ISO-10303-21;
HEADER;
FILE_DESCRIPTION(('STEP'), '1');
FILE_NAME('MultiToolTest', '2026-04-18T07:34:33', (''), (''), 'Express 3.1.2.0', 'Express Tool', 'Unknown');
FILE_SCHEMA(('AUTOMOTIVE_DESIGN'));
ENDSEC;

DATA;
#1 = MANIFOLD_SOLID_BREP('Hole1_0', #2);
#2 = CLOSED_SHELL('', (#3, #59, #68));
#3 = ADVANCED_FACE('', (#4), #40, .T.);
#4 = FACE_OUTER_BOUND('', #5, .T.);
#5 = EDGE_LOOP('', (#6, #15, #27, #28));
#6 = ORIENTED_EDGE('', *, *, #7, .F.);
#7 = EDGE_CURVE('', #8, #10, #12, .T.);
#8 = VERTEX_POINT('', #9);
#9 = CARTESIAN_POINT('', (7.5, 0., 0.));
#10 = VERTEX_POINT('', #11);
#11 = CARTESIAN_POINT('', (7.5, 0., 40.));
#12 = B_SPLINE_CURVE_WITH_KNOTS('', 1, (#13, #14), .UNSPECIFIED., .F., .U., (2, 2), (0., 40.), .UNSPECIFIED.);
#13 = CARTESIAN_POINT('', (7.5, 0., 0.));
#14 = CARTESIAN_POINT('', (7.5, 0., 40.));
#15 = ORIENTED_EDGE('', *, *, #16, .T.);
#16 = EDGE_CURVE('', #8, #8, #17, .T.);
#17 = (
   BOUNDED_CURVE ()
   B_SPLINE_CURVE (2, (#18, #19, #20, #21, #22, #23, #24, #25, #26), .UNSPECIFIED., .T., .U.)
   B_SPLINE_CURVE_WITH_KNOTS ((3, 2, 2, 2, 3), (0., 11.7809724509617, 23.5619449019234, 35.3429173528852, 47.1238898038469), .UNSPECIFIED.)
   CURVE ()
   GEOMETRIC_REPRESENTATION_ITEM ()
   RATIONAL_B_SPLINE_CURVE ((1., 0.707106781186548, 1., 0.707106781186548, 1., 0.707106781186548, 1., 0.707106781186548, 1.))
   REPRESENTATION_ITEM ('')
);
#18 = CARTESIAN_POINT('', (7.5, 0., 0.));
#19 = CARTESIAN_POINT('', (7.5, 7.5, 0.));
#20 = CARTESIAN_POINT('', (4.59242549680257E-16, 7.5, 0.));
#21 = CARTESIAN_POINT('', (-7.5, 7.5, 0.));
#22 = CARTESIAN_POINT('', (-7.5, 9.18485099360515E-16, 0.));
#23 = CARTESIAN_POINT('', (-7.5, -7.5, 0.));
#24 = CARTESIAN_POINT('', (-1.37772764904077E-15, -7.5, 0.));
#25 = CARTESIAN_POINT('', (7.5, -7.5, 0.));
#26 = CARTESIAN_POINT('', (7.5, 0., 0.));
#27 = ORIENTED_EDGE('', *, *, #7, .T.);
#28 = ORIENTED_EDGE('', *, *, #29, .F.);
#29 = EDGE_CURVE('', #10, #10, #30, .T.);
#30 = (
   BOUNDED_CURVE ()
   B_SPLINE_CURVE (2, (#31, #32, #33, #34, #35, #36, #37, #38, #39), .UNSPECIFIED., .T., .U.)
   B_SPLINE_CURVE_WITH_KNOTS ((3, 2, 2, 2, 3), (0., 11.7809724509617, 23.5619449019234, 35.3429173528852, 47.1238898038469), .UNSPECIFIED.)
   CURVE ()
   GEOMETRIC_REPRESENTATION_ITEM ()
   RATIONAL_B_SPLINE_CURVE ((1., 0.707106781186548, 1., 0.707106781186548, 1., 0.707106781186548, 1., 0.707106781186548, 1.))
   REPRESENTATION_ITEM ('')
);
#31 = CARTESIAN_POINT('', (7.5, 0., 40.));
#32 = CARTESIAN_POINT('', (7.5, 7.5, 40.));
#33 = CARTESIAN_POINT('', (4.59242549680257E-16, 7.5, 40.));
#34 = CARTESIAN_POINT('', (-7.5, 7.5, 40.));
#35 = CARTESIAN_POINT('', (-7.5, 9.18485099360515E-16, 40.));
#36 = CARTESIAN_POINT('', (-7.5, -7.5, 40.));
#37 = CARTESIAN_POINT('', (-1.37772764904077E-15, -7.5, 40.));
#38 = CARTESIAN_POINT('', (7.5, -7.5, 40.));
#39 = CARTESIAN_POINT('', (7.5, 0., 40.));
#40 = (
   BOUNDED_SURFACE ()
   B_SPLINE_SURFACE (2, 1, ((#41, #42), (#43, #44), (#45, #46), (#47, #48), (#49, #50), (#51, #52), (#53, #54), (#55, #56), (#57, #58)), .UNSPECIFIED., .T., .F., .U.)
   B_SPLINE_SURFACE_WITH_KNOTS ((3, 2, 2, 2, 3), (2, 2), (0., 11.7809724509617, 23.5619449019234, 35.3429173528852, 47.1238898038469), (0., 40.), .UNSPECIFIED.)
   GEOMETRIC_REPRESENTATION_ITEM ()
   RATIONAL_B_SPLINE_SURFACE (((1., 1.), (0.707106781186548, 0.707106781186548), (1., 1.), (0.707106781186548, 0.707106781186548), (1., 1.), (0.707106781186548, 0.707106781186548), (1., 1.), (0.707106781186548, 0.707106781186548), (1., 1.)))
   REPRESENTATION_ITEM ('')
   SURFACE ()
);
#41 = CARTESIAN_POINT('', (7.5, 0., 0.));
#42 = CARTESIAN_POINT('', (7.5, 0., 40.));
#43 = CARTESIAN_POINT('', (7.5, 7.5, 0.));
#44 = CARTESIAN_POINT('', (7.5, 7.5, 40.));
#45 = CARTESIAN_POINT('', (4.59242549680257E-16, 7.5, 0.));
#46 = CARTESIAN_POINT('', (4.59242549680257E-16, 7.5, 40.));
#47 = CARTESIAN_POINT('', (-7.5, 7.5, 0.));
#48 = CARTESIAN_POINT('', (-7.5, 7.5, 40.));
#49 = CARTESIAN_POINT('', (-7.5, 9.18485099360515E-16, 0.));
#50 = CARTESIAN_POINT('', (-7.5, 9.18485099360515E-16, 40.));
#51 = CARTESIAN_POINT('', (-7.5, -7.5, 0.));
#52 = CARTESIAN_POINT('', (-7.5, -7.5, 40.));
#53 = CARTESIAN_POINT('', (-1.37772764904077E-15, -7.5, 0.));
#54 = CARTESIAN_POINT('', (-1.37772764904077E-15, -7.5, 40.));
#55 = CARTESIAN_POINT('', (7.5, -7.5, 0.));
#56 = CARTESIAN_POINT('', (7.5, -7.5, 40.));
#57 = CARTESIAN_POINT('', (7.5, 0., 0.));
#58 = CARTESIAN_POINT('', (7.5, 0., 40.));
#59 = ADVANCED_FACE('', (#60), #63, .T.);
#60 = FACE_OUTER_BOUND('', #61, .T.);
#61 = EDGE_LOOP('', (#62));
#62 = ORIENTED_EDGE('', *, *, #16, .F.);
#63 = B_SPLINE_SURFACE_WITH_KNOTS('', 1, 1, ((#64, #65), (#66, #67)), .UNSPECIFIED., .F., .F., .U., (2, 2), (2, 2), (0., 1.), (0., 1.), .UNSPECIFIED.);
#64 = CARTESIAN_POINT('', (11.667261889578, -11.667261889578, 0.));
#65 = CARTESIAN_POINT('', (11.667261889578, 11.667261889578, 0.));
#66 = CARTESIAN_POINT('', (-11.667261889578, -11.667261889578, 0.));
#67 = CARTESIAN_POINT('', (-11.667261889578, 11.667261889578, 0.));
#68 = ADVANCED_FACE('', (#69), #72, .T.);
#69 = FACE_OUTER_BOUND('', #70, .T.);
#70 = EDGE_LOOP('', (#71));
#71 = ORIENTED_EDGE('', *, *, #29, .T.);
#72 = B_SPLINE_SURFACE_WITH_KNOTS('', 1, 1, ((#73, #74), (#75, #76)), .UNSPECIFIED., .F., .F., .U., (2, 2), (2, 2), (0., 1.), (0., 1.), .UNSPECIFIED.);
#73 = CARTESIAN_POINT('', (11.667261889578, -11.667261889578, 40.));
#74 = CARTESIAN_POINT('', (-11.667261889578, -11.667261889578, 40.));
#75 = CARTESIAN_POINT('', (11.667261889578, 11.667261889578, 40.));
#76 = CARTESIAN_POINT('', (-11.667261889578, 11.667261889578, 40.));
#77 = DRAUGHTING_MODEL('', (#85, #277), #280);
#78 = PRESENTATION_STYLE_ASSIGNMENT((#79));
#79 = SURFACE_STYLE_USAGE(.POSITIVE., #80);
#80 = SURFACE_SIDE_STYLE('', (#81));
#81 = SURFACE_STYLE_FILL_AREA(#82);
#82 = FILL_AREA_STYLE('', (#83));
#83 = FILL_AREA_STYLE_COLOUR('', #84);
#84 = COLOUR_RGB('', 0.50196078431373, 0.50196078431373, 0.50196078431373);
#85 = STYLED_ITEM('', (#78), #1);
#86 = MANIFOLD_SOLID_BREP('Subtraction_0', #87);
#87 = CLOSED_SHELL('', (#88, #124, #160, #182, #204, #228, #244));
#88 = ADVANCED_FACE('', (#89), #119, .T.);
#89 = FACE_OUTER_BOUND('', #90, .T.);
#90 = EDGE_LOOP('', (#91, #100, #107, #114));
#91 = ORIENTED_EDGE('', *, *, #92, .T.);
#92 = EDGE_CURVE('', #93, #95, #97, .T.);
#93 = VERTEX_POINT('', #94);
#94 = CARTESIAN_POINT('', (0., 80., 0.));
#95 = VERTEX_POINT('', #96);
#96 = CARTESIAN_POINT('', (0., 80., 30.));
#97 = B_SPLINE_CURVE_WITH_KNOTS('', 1, (#98, #99), .UNSPECIFIED., .F., .U., (2, 2), (0., 30.), .UNSPECIFIED.);
#98 = CARTESIAN_POINT('', (0., 80., 0.));
#99 = CARTESIAN_POINT('', (0., 80., 30.));
#100 = ORIENTED_EDGE('', *, *, #101, .T.);
#101 = EDGE_CURVE('', #95, #102, #104, .T.);
#102 = VERTEX_POINT('', #103);
#103 = CARTESIAN_POINT('', (100., 80., 30.));
#104 = B_SPLINE_CURVE_WITH_KNOTS('', 1, (#105, #106), .UNSPECIFIED., .F., .U., (2, 2), (0., 100.), .UNSPECIFIED.);
#105 = CARTESIAN_POINT('', (0., 80., 30.));
#106 = CARTESIAN_POINT('', (100., 80., 30.));
#107 = ORIENTED_EDGE('', *, *, #108, .F.);
#108 = EDGE_CURVE('', #109, #102, #111, .T.);
#109 = VERTEX_POINT('', #110);
#110 = CARTESIAN_POINT('', (100., 80., 0.));
#111 = B_SPLINE_CURVE_WITH_KNOTS('', 1, (#112, #113), .UNSPECIFIED., .F., .U., (2, 2), (0., 30.), .UNSPECIFIED.);
#112 = CARTESIAN_POINT('', (100., 80., 0.));
#113 = CARTESIAN_POINT('', (100., 80., 30.));
#114 = ORIENTED_EDGE('', *, *, #115, .F.);
#115 = EDGE_CURVE('', #93, #109, #116, .T.);
#116 = B_SPLINE_CURVE_WITH_KNOTS('', 1, (#117, #118), .UNSPECIFIED., .F., .U., (2, 2), (0., 100.), .UNSPECIFIED.);
#117 = CARTESIAN_POINT('', (0., 80., 0.));
#118 = CARTESIAN_POINT('', (100., 80., 0.));
#119 = B_SPLINE_SURFACE_WITH_KNOTS('', 1, 1, ((#120, #121), (#122, #123)), .UNSPECIFIED., .F., .F., .U., (2, 2), (2, 2), (0., 30.), (0., 100.), .UNSPECIFIED.);
#120 = CARTESIAN_POINT('', (0., 80., 0.));
#121 = CARTESIAN_POINT('', (100., 80., 0.));
#122 = CARTESIAN_POINT('', (0., 80., 30.));
#123 = CARTESIAN_POINT('', (100., 80., 30.));
#124 = ADVANCED_FACE('', (#125), #155, .T.);
#125 = FACE_OUTER_BOUND('', #126, .T.);
#126 = EDGE_LOOP('', (#127, #137, #142, #143, #150));
#127 = ORIENTED_EDGE('', *, *, #128, .T.);
#128 = EDGE_CURVE('', #129, #131, #133, .T.);
#129 = VERTEX_POINT('', #130);
#130 = CARTESIAN_POINT('', (7.5, 0., 0.));
#131 = VERTEX_POINT('', #132);
#132 = CARTESIAN_POINT('', (0., 7.5, 0.));
#133 = (
   BOUNDED_CURVE ()
   B_SPLINE_CURVE (2, (#134, #135, #136), .UNSPECIFIED., .F., .U.)
   B_SPLINE_CURVE_WITH_KNOTS ((3, 3), (0., 1.), .UNSPECIFIED.)
   CURVE ()
   GEOMETRIC_REPRESENTATION_ITEM ()
   RATIONAL_B_SPLINE_CURVE ((1., 0.707106781186548, 1.))
   REPRESENTATION_ITEM ('')
);
#134 = CARTESIAN_POINT('', (7.5, 0., 0.));
#135 = CARTESIAN_POINT('', (7.5, 7.5, 0.));
#136 = CARTESIAN_POINT('', (4.59242549680257E-16, 7.5, 0.));
#137 = ORIENTED_EDGE('', *, *, #138, .T.);
#138 = EDGE_CURVE('', #131, #93, #139, .T.);
#139 = B_SPLINE_CURVE_WITH_KNOTS('', 1, (#140, #141), .UNSPECIFIED., .F., .U., (2, 2), (7.5, 80.), .UNSPECIFIED.);
#140 = CARTESIAN_POINT('', (0., 7.5, 0.));
#141 = CARTESIAN_POINT('', (0., 80., 0.));
#142 = ORIENTED_EDGE('', *, *, #115, .T.);
#143 = ORIENTED_EDGE('', *, *, #144, .F.);
#144 = EDGE_CURVE('', #145, #109, #147, .T.);
#145 = VERTEX_POINT('', #146);
#146 = CARTESIAN_POINT('', (100., 0., 0.));
#147 = B_SPLINE_CURVE_WITH_KNOTS('', 1, (#148, #149), .UNSPECIFIED., .F., .U., (2, 2), (0., 80.), .UNSPECIFIED.);
#148 = CARTESIAN_POINT('', (100., 0., 0.));
#149 = CARTESIAN_POINT('', (100., 80., 0.));
#150 = ORIENTED_EDGE('', *, *, #151, .F.);
#151 = EDGE_CURVE('', #129, #145, #152, .T.);
#152 = B_SPLINE_CURVE_WITH_KNOTS('', 1, (#153, #154), .UNSPECIFIED., .F., .U., (2, 2), (7.5, 100.), .UNSPECIFIED.);
#153 = CARTESIAN_POINT('', (7.5, 0., 0.));
#154 = CARTESIAN_POINT('', (100., 0., 0.));
#155 = B_SPLINE_SURFACE_WITH_KNOTS('', 1, 1, ((#156, #157), (#158, #159)), .UNSPECIFIED., .F., .F., .U., (2, 2), (2, 2), (0., 80.), (0., 100.), .UNSPECIFIED.);
#156 = CARTESIAN_POINT('', (0., 0., 0.));
#157 = CARTESIAN_POINT('', (100., 0., 0.));
#158 = CARTESIAN_POINT('', (0., 80., 0.));
#159 = CARTESIAN_POINT('', (100., 80., 0.));
#160 = ADVANCED_FACE('', (#161), #177, .T.);
#161 = FACE_OUTER_BOUND('', #162, .T.);
#162 = EDGE_LOOP('', (#163, #170, #171, #172));
#163 = ORIENTED_EDGE('', *, *, #164, .F.);
#164 = EDGE_CURVE('', #145, #165, #167, .T.);
#165 = VERTEX_POINT('', #166);
#166 = CARTESIAN_POINT('', (100., 0., 30.));
#167 = B_SPLINE_CURVE_WITH_KNOTS('', 1, (#168, #169), .UNSPECIFIED., .F., .U., (2, 2), (0., 30.), .UNSPECIFIED.);
#168 = CARTESIAN_POINT('', (100., 0., 0.));
#169 = CARTESIAN_POINT('', (100., 0., 30.));
#170 = ORIENTED_EDGE('', *, *, #144, .T.);
#171 = ORIENTED_EDGE('', *, *, #108, .T.);
#172 = ORIENTED_EDGE('', *, *, #173, .F.);
#173 = EDGE_CURVE('', #165, #102, #174, .T.);
#174 = B_SPLINE_CURVE_WITH_KNOTS('', 1, (#175, #176), .UNSPECIFIED., .F., .U., (2, 2), (0., 80.), .UNSPECIFIED.);
#175 = CARTESIAN_POINT('', (100., 0., 30.));
#176 = CARTESIAN_POINT('', (100., 80., 30.));
#177 = B_SPLINE_SURFACE_WITH_KNOTS('', 1, 1, ((#178, #179), (#180, #181)), .UNSPECIFIED., .F., .F., .U., (2, 2), (2, 2), (0., 80.), (0., 30.), .UNSPECIFIED.);
#178 = CARTESIAN_POINT('', (100., 0., 0.));
#179 = CARTESIAN_POINT('', (100., 0., 30.));
#180 = CARTESIAN_POINT('', (100., 80., 0.));
#181 = CARTESIAN_POINT('', (100., 80., 30.));
#182 = ADVANCED_FACE('', (#183), #199, .T.);
#183 = FACE_OUTER_BOUND('', #184, .T.);
#184 = EDGE_LOOP('', (#185, #192, #197, #198));
#185 = ORIENTED_EDGE('', *, *, #186, .T.);
#186 = EDGE_CURVE('', #131, #187, #189, .T.);
#187 = VERTEX_POINT('', #188);
#188 = CARTESIAN_POINT('', (0., 7.5, 30.));
#189 = B_SPLINE_CURVE_WITH_KNOTS('', 1, (#190, #191), .UNSPECIFIED., .F., .U., (2, 2), (0., 1.), .UNSPECIFIED.);
#190 = CARTESIAN_POINT('', (0., 7.5, 0.));
#191 = CARTESIAN_POINT('', (0., 7.5, 30.));
#192 = ORIENTED_EDGE('', *, *, #193, .T.);
#193 = EDGE_CURVE('', #187, #95, #194, .T.);
#194 = B_SPLINE_CURVE_WITH_KNOTS('', 1, (#195, #196), .UNSPECIFIED., .F., .U., (2, 2), (7.5, 80.), .UNSPECIFIED.);
#195 = CARTESIAN_POINT('', (0., 7.5, 30.));
#196 = CARTESIAN_POINT('', (0., 80., 30.));
#197 = ORIENTED_EDGE('', *, *, #92, .F.);
#198 = ORIENTED_EDGE('', *, *, #138, .F.);
#199 = B_SPLINE_SURFACE_WITH_KNOTS('', 1, 1, ((#200, #201), (#202, #203)), .UNSPECIFIED., .F., .F., .U., (2, 2), (2, 2), (0., 30.), (0., 80.), .UNSPECIFIED.);
#200 = CARTESIAN_POINT('', (0., 0., 0.));
#201 = CARTESIAN_POINT('', (0., 80., 0.));
#202 = CARTESIAN_POINT('', (0., 0., 30.));
#203 = CARTESIAN_POINT('', (0., 80., 30.));
#204 = ADVANCED_FACE('', (#205), #223, .T.);
#205 = FACE_OUTER_BOUND('', #206, .T.);
#206 = EDGE_LOOP('', (#207, #215, #220, #221, #222));
#207 = ORIENTED_EDGE('', *, *, #208, .F.);
#208 = EDGE_CURVE('', #209, #187, #211, .T.);
#209 = VERTEX_POINT('', #210);
#210 = CARTESIAN_POINT('', (7.5, 0., 30.));
#211 = (
   BOUNDED_CURVE ()
   B_SPLINE_CURVE (2, (#212, #213, #214), .UNSPECIFIED., .F., .U.)
   B_SPLINE_CURVE_WITH_KNOTS ((3, 3), (0., 1.), .UNSPECIFIED.)
   CURVE ()
   GEOMETRIC_REPRESENTATION_ITEM ()
   RATIONAL_B_SPLINE_CURVE ((1., 0.707106781186548, 1.))
   REPRESENTATION_ITEM ('')
);
#212 = CARTESIAN_POINT('', (7.5, 0., 30.));
#213 = CARTESIAN_POINT('', (7.5, 7.5, 30.));
#214 = CARTESIAN_POINT('', (4.59242549680257E-16, 7.5, 30.));
#215 = ORIENTED_EDGE('', *, *, #216, .T.);
#216 = EDGE_CURVE('', #209, #165, #217, .T.);
#217 = B_SPLINE_CURVE_WITH_KNOTS('', 1, (#218, #219), .UNSPECIFIED., .F., .U., (2, 2), (7.5, 100.), .UNSPECIFIED.);
#218 = CARTESIAN_POINT('', (7.5, 0., 30.));
#219 = CARTESIAN_POINT('', (100., 0., 30.));
#220 = ORIENTED_EDGE('', *, *, #173, .T.);
#221 = ORIENTED_EDGE('', *, *, #101, .F.);
#222 = ORIENTED_EDGE('', *, *, #193, .F.);
#223 = B_SPLINE_SURFACE_WITH_KNOTS('', 1, 1, ((#224, #225), (#226, #227)), .UNSPECIFIED., .F., .F., .U., (2, 2), (2, 2), (0., 100.), (0., 80.), .UNSPECIFIED.);
#224 = CARTESIAN_POINT('', (0., 0., 30.));
#225 = CARTESIAN_POINT('', (0., 80., 30.));
#226 = CARTESIAN_POINT('', (100., 0., 30.));
#227 = CARTESIAN_POINT('', (100., 80., 30.));
#228 = ADVANCED_FACE('', (#229), #239, .T.);
#229 = FACE_OUTER_BOUND('', #230, .T.);
#230 = EDGE_LOOP('', (#231, #236, #237, #238));
#231 = ORIENTED_EDGE('', *, *, #232, .F.);
#232 = EDGE_CURVE('', #129, #209, #233, .T.);
#233 = B_SPLINE_CURVE_WITH_KNOTS('', 1, (#234, #235), .UNSPECIFIED., .F., .U., (2, 2), (0., 1.), .UNSPECIFIED.);
#234 = CARTESIAN_POINT('', (7.5, 0., 0.));
#235 = CARTESIAN_POINT('', (7.5, 0., 30.));
#236 = ORIENTED_EDGE('', *, *, #151, .T.);
#237 = ORIENTED_EDGE('', *, *, #164, .T.);
#238 = ORIENTED_EDGE('', *, *, #216, .F.);
#239 = B_SPLINE_SURFACE_WITH_KNOTS('', 1, 1, ((#240, #241), (#242, #243)), .UNSPECIFIED., .F., .F., .U., (2, 2), (2, 2), (0., 100.), (0., 30.), .UNSPECIFIED.);
#240 = CARTESIAN_POINT('', (0., 0., 0.));
#241 = CARTESIAN_POINT('', (0., 0., 30.));
#242 = CARTESIAN_POINT('', (100., 0., 0.));
#243 = CARTESIAN_POINT('', (100., 0., 30.));
#244 = ADVANCED_FACE('', (#245), #251, .F.);
#245 = FACE_OUTER_BOUND('', #246, .F.);
#246 = EDGE_LOOP('', (#247, #248, #249, #250));
#247 = ORIENTED_EDGE('', *, *, #186, .T.);
#248 = ORIENTED_EDGE('', *, *, #208, .F.);
#249 = ORIENTED_EDGE('', *, *, #232, .F.);
#250 = ORIENTED_EDGE('', *, *, #128, .T.);
#251 = (
   BOUNDED_SURFACE ()
   B_SPLINE_SURFACE (2, 1, ((#252, #253), (#254, #255), (#256, #257), (#258, #259), (#260, #261), (#262, #263), (#264, #265), (#266, #267), (#268, #269)), .UNSPECIFIED., .T., .F., .U.)
   B_SPLINE_SURFACE_WITH_KNOTS ((3, 2, 2, 2, 3), (2, 2), (0., 11.7809724509617, 23.5619449019234, 35.3429173528852, 47.1238898038469), (0., 40.), .UNSPECIFIED.)
   GEOMETRIC_REPRESENTATION_ITEM ()
   RATIONAL_B_SPLINE_SURFACE (((1., 1.), (0.707106781186548, 0.707106781186548), (1., 1.), (0.707106781186548, 0.707106781186548), (1., 1.), (0.707106781186548, 0.707106781186548), (1., 1.), (0.707106781186548, 0.707106781186548), (1., 1.)))
   REPRESENTATION_ITEM ('')
   SURFACE ()
);
#252 = CARTESIAN_POINT('', (7.5, 0., 0.));
#253 = CARTESIAN_POINT('', (7.5, 0., 40.));
#254 = CARTESIAN_POINT('', (7.5, 7.5, 0.));
#255 = CARTESIAN_POINT('', (7.5, 7.5, 40.));
#256 = CARTESIAN_POINT('', (4.59242549680257E-16, 7.5, 0.));
#257 = CARTESIAN_POINT('', (4.59242549680257E-16, 7.5, 40.));
#258 = CARTESIAN_POINT('', (-7.5, 7.5, 0.));
#259 = CARTESIAN_POINT('', (-7.5, 7.5, 40.));
#260 = CARTESIAN_POINT('', (-7.5, 9.18485099360515E-16, 0.));
#261 = CARTESIAN_POINT('', (-7.5, 9.18485099360515E-16, 40.));
#262 = CARTESIAN_POINT('', (-7.5, -7.5, 0.));
#263 = CARTESIAN_POINT('', (-7.5, -7.5, 40.));
#264 = CARTESIAN_POINT('', (-1.37772764904077E-15, -7.5, 0.));
#265 = CARTESIAN_POINT('', (-1.37772764904077E-15, -7.5, 40.));
#266 = CARTESIAN_POINT('', (7.5, -7.5, 0.));
#267 = CARTESIAN_POINT('', (7.5, -7.5, 40.));
#268 = CARTESIAN_POINT('', (7.5, 0., 0.));
#269 = CARTESIAN_POINT('', (7.5, 0., 40.));
#270 = PRESENTATION_STYLE_ASSIGNMENT((#271));
#271 = SURFACE_STYLE_USAGE(.POSITIVE., #272);
#272 = SURFACE_SIDE_STYLE('', (#273));
#273 = SURFACE_STYLE_FILL_AREA(#274);
#274 = FILL_AREA_STYLE('', (#275));
#275 = FILL_AREA_STYLE_COLOUR('', #276);
#276 = COLOUR_RGB('', 0.50196078431373, 0.50196078431373, 0.50196078431373);
#277 = STYLED_ITEM('', (#270), #86);
#278 = CARTESIAN_POINT('Origin', (0., 0., 0.));
#279 = GEOMETRIC_SET('', (#278));
#280 = (
   GEOMETRIC_REPRESENTATION_CONTEXT (3)
   GLOBAL_UNCERTAINTY_ASSIGNED_CONTEXT ((#282))
   GLOBAL_UNIT_ASSIGNED_CONTEXT ((#281, #283, #284))
   REPRESENTATION_CONTEXT ('', '3D')
);
#281 = (
   LENGTH_UNIT ()
   NAMED_UNIT (*)
   SI_UNIT (.MILLI., .METRE.)
);
#282 = UNCERTAINTY_MEASURE_WITH_UNIT(LENGTH_MEASURE(1.E-6), #281, 'DISTANCE_ACCURACY_VALUE', '');
#283 = (
   NAMED_UNIT (*)
   SI_UNIT ($, .STERADIAN.)
   SOLID_ANGLE_UNIT ()
);
#284 = (
   NAMED_UNIT (*)
   PLANE_ANGLE_UNIT ()
   SI_UNIT ($, .RADIAN.)
);
#285 = SHAPE_REPRESENTATION('', (#300), #280);
#286 = PRODUCT_DEFINITION_SHAPE('', '', #287);
#287 = PRODUCT_DEFINITION('', '', #290, #294);
#288 = APPLICATION_CONTEXT('configuration controlled 3D designs of mechanical parts and assemblies');
#289 = APPLICATION_PROTOCOL_DEFINITION('International Standard', 'automotive_design', 2002, #288);
#290 = PRODUCT_DEFINITION_FORMATION_WITH_SPECIFIED_SOURCE('', '', #291, .NOT_KNOWN.);
#291 = PRODUCT('MultiToolTest', 'MultiToolTest', '', (#292));
#292 = PRODUCT_CONTEXT('', #288, 'mechanical');
#293 = PRODUCT_RELATED_PRODUCT_CATEGORY('detail', '', (#291));
#294 = PRODUCT_DEFINITION_CONTEXT('part definition', #288, 'design');
#295 = SHAPE_DEFINITION_REPRESENTATION(#286, #285);
#296 = SHAPE_REPRESENTATION_RELATIONSHIP('', '', #285, #297);
#297 = SHAPE_REPRESENTATION('', (#279), #280);
#298 = SHAPE_REPRESENTATION_RELATIONSHIP('', '', #285, #299);
#299 = ADVANCED_BREP_SHAPE_REPRESENTATION('', (#1, #86), #280);
#300 = AXIS2_PLACEMENT_3D('', #301, #302, #303);
#301 = CARTESIAN_POINT('', (0., 0., 0.));
#302 = DIRECTION('', (0., 0., 1.));
#303 = DIRECTION('', (1., 0., 0.));
ENDSEC;
END-ISO-10303-21;
