ISO-10303-21;
HEADER;
FILE_DESCRIPTION(('STEP'), '1');
FILE_NAME('Bracket', '2026-04-18T07:37:55', (''), (''), 'Express 3.1.2.0', 'Express Tool', 'Unknown');
FILE_SCHEMA(('AUTOMOTIVE_DESIGN'));
ENDSEC;

DATA;
#1 = MANIFOLD_SOLID_BREP('Subtraction_0', #2);
#2 = CLOSED_SHELL('', (#3, #39, #67, #89, #125, #153, #183, #205, #237, #263, #294));
#3 = ADVANCED_FACE('', (#4), #34, .T.);
#4 = FACE_OUTER_BOUND('', #5, .T.);
#5 = EDGE_LOOP('', (#6, #15, #22, #29));
#6 = ORIENTED_EDGE('', *, *, #7, .T.);
#7 = EDGE_CURVE('', #8, #10, #12, .T.);
#8 = VERTEX_POINT('', #9);
#9 = CARTESIAN_POINT('', (15., 0., 10.));
#10 = VERTEX_POINT('', #11);
#11 = CARTESIAN_POINT('', (15., 60., 10.));
#12 = B_SPLINE_CURVE_WITH_KNOTS('', 1, (#13, #14), .UNSPECIFIED., .F., .U., (2, 2), (0., 1.), .UNSPECIFIED.);
#13 = CARTESIAN_POINT('', (15., 0., 10.));
#14 = CARTESIAN_POINT('', (15., 60., 10.));
#15 = ORIENTED_EDGE('', *, *, #16, .T.);
#16 = EDGE_CURVE('', #10, #17, #19, .T.);
#17 = VERTEX_POINT('', #18);
#18 = CARTESIAN_POINT('', (15., 60., 60.));
#19 = B_SPLINE_CURVE_WITH_KNOTS('', 1, (#20, #21), .UNSPECIFIED., .F., .U., (2, 2), (10., 60.), .UNSPECIFIED.);
#20 = CARTESIAN_POINT('', (15., 60., 10.));
#21 = CARTESIAN_POINT('', (15., 60., 60.));
#22 = ORIENTED_EDGE('', *, *, #23, .F.);
#23 = EDGE_CURVE('', #24, #17, #26, .T.);
#24 = VERTEX_POINT('', #25);
#25 = CARTESIAN_POINT('', (15., 0., 60.));
#26 = B_SPLINE_CURVE_WITH_KNOTS('', 1, (#27, #28), .UNSPECIFIED., .F., .U., (2, 2), (0., 60.), .UNSPECIFIED.);
#27 = CARTESIAN_POINT('', (15., 0., 60.));
#28 = CARTESIAN_POINT('', (15., 60., 60.));
#29 = ORIENTED_EDGE('', *, *, #30, .F.);
#30 = EDGE_CURVE('', #8, #24, #31, .T.);
#31 = B_SPLINE_CURVE_WITH_KNOTS('', 1, (#32, #33), .UNSPECIFIED., .F., .U., (2, 2), (10., 60.), .UNSPECIFIED.);
#32 = CARTESIAN_POINT('', (15., 0., 10.));
#33 = CARTESIAN_POINT('', (15., 0., 60.));
#34 = B_SPLINE_SURFACE_WITH_KNOTS('', 1, 1, ((#35, #36), (#37, #38)), .UNSPECIFIED., .F., .F., .U., (2, 2), (2, 2), (0., 60.), (0., 60.), .UNSPECIFIED.);
#35 = CARTESIAN_POINT('', (15., 0., 0.));
#36 = CARTESIAN_POINT('', (15., 0., 60.));
#37 = CARTESIAN_POINT('', (15., 60., 0.));
#38 = CARTESIAN_POINT('', (15., 60., 60.));
#39 = ADVANCED_FACE('', (#40), #62, .T.);
#40 = FACE_OUTER_BOUND('', #41, .T.);
#41 = EDGE_LOOP('', (#42, #49, #56, #61));
#42 = ORIENTED_EDGE('', *, *, #43, .T.);
#43 = EDGE_CURVE('', #10, #44, #46, .T.);
#44 = VERTEX_POINT('', #45);
#45 = CARTESIAN_POINT('', (0., 60., 10.));
#46 = B_SPLINE_CURVE_WITH_KNOTS('', 1, (#47, #48), .UNSPECIFIED., .F., .U., (2, 2), (0., 1.), .UNSPECIFIED.);
#47 = CARTESIAN_POINT('', (15., 60., 10.));
#48 = CARTESIAN_POINT('', (1.4210854715202E-14, 60., 10.));
#49 = ORIENTED_EDGE('', *, *, #50, .T.);
#50 = EDGE_CURVE('', #44, #51, #53, .T.);
#51 = VERTEX_POINT('', #52);
#52 = CARTESIAN_POINT('', (0., 60., 60.));
#53 = B_SPLINE_CURVE_WITH_KNOTS('', 1, (#54, #55), .UNSPECIFIED., .F., .U., (2, 2), (10., 60.), .UNSPECIFIED.);
#54 = CARTESIAN_POINT('', (0., 60., 10.));
#55 = CARTESIAN_POINT('', (0., 60., 60.));
#56 = ORIENTED_EDGE('', *, *, #57, .T.);
#57 = EDGE_CURVE('', #51, #17, #58, .T.);
#58 = B_SPLINE_CURVE_WITH_KNOTS('', 1, (#59, #60), .UNSPECIFIED., .F., .U., (2, 2), (0., 15.), .UNSPECIFIED.);
#59 = CARTESIAN_POINT('', (0., 60., 60.));
#60 = CARTESIAN_POINT('', (15., 60., 60.));
#61 = ORIENTED_EDGE('', *, *, #16, .F.);
#62 = B_SPLINE_SURFACE_WITH_KNOTS('', 1, 1, ((#63, #64), (#65, #66)), .UNSPECIFIED., .F., .F., .U., (2, 2), (2, 2), (0., 60.), (0., 15.), .UNSPECIFIED.);
#63 = CARTESIAN_POINT('', (0., 60., 0.));
#64 = CARTESIAN_POINT('', (15., 60., 0.));
#65 = CARTESIAN_POINT('', (0., 60., 60.));
#66 = CARTESIAN_POINT('', (15., 60., 60.));
#67 = ADVANCED_FACE('', (#68), #84, .T.);
#68 = FACE_OUTER_BOUND('', #69, .T.);
#69 = EDGE_LOOP('', (#70, #77, #82, #83));
#70 = ORIENTED_EDGE('', *, *, #71, .F.);
#71 = EDGE_CURVE('', #72, #51, #74, .T.);
#72 = VERTEX_POINT('', #73);
#73 = CARTESIAN_POINT('', (0., 0., 60.));
#74 = B_SPLINE_CURVE_WITH_KNOTS('', 1, (#75, #76), .UNSPECIFIED., .F., .U., (2, 2), (0., 60.), .UNSPECIFIED.);
#75 = CARTESIAN_POINT('', (0., 0., 60.));
#76 = CARTESIAN_POINT('', (0., 60., 60.));
#77 = ORIENTED_EDGE('', *, *, #78, .T.);
#78 = EDGE_CURVE('', #72, #24, #79, .T.);
#79 = B_SPLINE_CURVE_WITH_KNOTS('', 1, (#80, #81), .UNSPECIFIED., .F., .U., (2, 2), (0., 15.), .UNSPECIFIED.);
#80 = CARTESIAN_POINT('', (0., 0., 60.));
#81 = CARTESIAN_POINT('', (15., 0., 60.));
#82 = ORIENTED_EDGE('', *, *, #23, .T.);
#83 = ORIENTED_EDGE('', *, *, #57, .F.);
#84 = B_SPLINE_SURFACE_WITH_KNOTS('', 1, 1, ((#85, #86), (#87, #88)), .UNSPECIFIED., .F., .F., .U., (2, 2), (2, 2), (0., 15.), (0., 60.), .UNSPECIFIED.);
#85 = CARTESIAN_POINT('', (0., 0., 60.));
#86 = CARTESIAN_POINT('', (0., 60., 60.));
#87 = CARTESIAN_POINT('', (15., 0., 60.));
#88 = CARTESIAN_POINT('', (15., 60., 60.));
#89 = ADVANCED_FACE('', (#90), #120, .T.);
#90 = FACE_OUTER_BOUND('', #91, .T.);
#91 = EDGE_LOOP('', (#92, #101, #108, #115));
#92 = ORIENTED_EDGE('', *, *, #93, .T.);
#93 = EDGE_CURVE('', #94, #96, #98, .T.);
#94 = VERTEX_POINT('', #95);
#95 = CARTESIAN_POINT('', (0., 80., 0.));
#96 = VERTEX_POINT('', #97);
#97 = CARTESIAN_POINT('', (0., 80., 10.));
#98 = B_SPLINE_CURVE_WITH_KNOTS('', 1, (#99, #100), .UNSPECIFIED., .F., .U., (2, 2), (0., 10.), .UNSPECIFIED.);
#99 = CARTESIAN_POINT('', (0., 80., 0.));
#100 = CARTESIAN_POINT('', (0., 80., 10.));
#101 = ORIENTED_EDGE('', *, *, #102, .T.);
#102 = EDGE_CURVE('', #96, #103, #105, .T.);
#103 = VERTEX_POINT('', #104);
#104 = CARTESIAN_POINT('', (120., 80., 10.));
#105 = B_SPLINE_CURVE_WITH_KNOTS('', 1, (#106, #107), .UNSPECIFIED., .F., .U., (2, 2), (0., 120.), .UNSPECIFIED.);
#106 = CARTESIAN_POINT('', (0., 80., 10.));
#107 = CARTESIAN_POINT('', (120., 80., 10.));
#108 = ORIENTED_EDGE('', *, *, #109, .F.);
#109 = EDGE_CURVE('', #110, #103, #112, .T.);
#110 = VERTEX_POINT('', #111);
#111 = CARTESIAN_POINT('', (120., 80., 0.));
#112 = B_SPLINE_CURVE_WITH_KNOTS('', 1, (#113, #114), .UNSPECIFIED., .F., .U., (2, 2), (0., 10.), .UNSPECIFIED.);
#113 = CARTESIAN_POINT('', (120., 80., 0.));
#114 = CARTESIAN_POINT('', (120., 80., 10.));
#115 = ORIENTED_EDGE('', *, *, #116, .F.);
#116 = EDGE_CURVE('', #94, #110, #117, .T.);
#117 = B_SPLINE_CURVE_WITH_KNOTS('', 1, (#118, #119), .UNSPECIFIED., .F., .U., (2, 2), (0., 120.), .UNSPECIFIED.);
#118 = CARTESIAN_POINT('', (0., 80., 0.));
#119 = CARTESIAN_POINT('', (120., 80., 0.));
#120 = B_SPLINE_SURFACE_WITH_KNOTS('', 1, 1, ((#121, #122), (#123, #124)), .UNSPECIFIED., .F., .F., .U., (2, 2), (2, 2), (0., 10.), (0., 120.), .UNSPECIFIED.);
#121 = CARTESIAN_POINT('', (0., 80., 0.));
#122 = CARTESIAN_POINT('', (120., 80., 0.));
#123 = CARTESIAN_POINT('', (0., 80., 10.));
#124 = CARTESIAN_POINT('', (120., 80., 10.));
#125 = ADVANCED_FACE('', (#126), #148, .T.);
#126 = FACE_OUTER_BOUND('', #127, .T.);
#127 = EDGE_LOOP('', (#128, #137, #142, #143));
#128 = ORIENTED_EDGE('', *, *, #129, .F.);
#129 = EDGE_CURVE('', #130, #132, #134, .T.);
#130 = VERTEX_POINT('', #131);
#131 = CARTESIAN_POINT('', (120., 0., 0.));
#132 = VERTEX_POINT('', #133);
#133 = CARTESIAN_POINT('', (120., 0., 10.));
#134 = B_SPLINE_CURVE_WITH_KNOTS('', 1, (#135, #136), .UNSPECIFIED., .F., .U., (2, 2), (0., 10.), .UNSPECIFIED.);
#135 = CARTESIAN_POINT('', (120., 0., 0.));
#136 = CARTESIAN_POINT('', (120., 0., 10.));
#137 = ORIENTED_EDGE('', *, *, #138, .T.);
#138 = EDGE_CURVE('', #130, #110, #139, .T.);
#139 = B_SPLINE_CURVE_WITH_KNOTS('', 1, (#140, #141), .UNSPECIFIED., .F., .U., (2, 2), (0., 80.), .UNSPECIFIED.);
#140 = CARTESIAN_POINT('', (120., 0., 0.));
#141 = CARTESIAN_POINT('', (120., 80., 0.));
#142 = ORIENTED_EDGE('', *, *, #109, .T.);
#143 = ORIENTED_EDGE('', *, *, #144, .F.);
#144 = EDGE_CURVE('', #132, #103, #145, .T.);
#145 = B_SPLINE_CURVE_WITH_KNOTS('', 1, (#146, #147), .UNSPECIFIED., .F., .U., (2, 2), (0., 80.), .UNSPECIFIED.);
#146 = CARTESIAN_POINT('', (120., 0., 10.));
#147 = CARTESIAN_POINT('', (120., 80., 10.));
#148 = B_SPLINE_SURFACE_WITH_KNOTS('', 1, 1, ((#149, #150), (#151, #152)), .UNSPECIFIED., .F., .F., .U., (2, 2), (2, 2), (0., 80.), (0., 10.), .UNSPECIFIED.);
#149 = CARTESIAN_POINT('', (120., 0., 0.));
#150 = CARTESIAN_POINT('', (120., 0., 10.));
#151 = CARTESIAN_POINT('', (120., 80., 0.));
#152 = CARTESIAN_POINT('', (120., 80., 10.));
#153 = ADVANCED_FACE('', (#154), #178, .T.);
#154 = FACE_OUTER_BOUND('', #155, .T.);
#155 = EDGE_LOOP('', (#156, #166, #171, #172, #173));
#156 = ORIENTED_EDGE('', *, *, #157, .T.);
#157 = EDGE_CURVE('', #158, #160, #162, .T.);
#158 = VERTEX_POINT('', #159);
#159 = CARTESIAN_POINT('', (6., 0., 0.));
#160 = VERTEX_POINT('', #161);
#161 = CARTESIAN_POINT('', (0., 6., 0.));
#162 = (
   BOUNDED_CURVE ()
   B_SPLINE_CURVE (2, (#163, #164, #165), .UNSPECIFIED., .F., .U.)
   B_SPLINE_CURVE_WITH_KNOTS ((3, 3), (0., 1.), .UNSPECIFIED.)
   CURVE ()
   GEOMETRIC_REPRESENTATION_ITEM ()
   RATIONAL_B_SPLINE_CURVE ((1., 0.707106781186548, 1.))
   REPRESENTATION_ITEM ('')
);
#163 = CARTESIAN_POINT('', (6., 0., 0.));
#164 = CARTESIAN_POINT('', (6., 6., 0.));
#165 = CARTESIAN_POINT('', (3.67394039744206E-16, 6., 0.));
#166 = ORIENTED_EDGE('', *, *, #167, .T.);
#167 = EDGE_CURVE('', #160, #94, #168, .T.);
#168 = B_SPLINE_CURVE_WITH_KNOTS('', 1, (#169, #170), .UNSPECIFIED., .F., .U., (2, 2), (6., 80.), .UNSPECIFIED.);
#169 = CARTESIAN_POINT('', (0., 6., 0.));
#170 = CARTESIAN_POINT('', (0., 80., 0.));
#171 = ORIENTED_EDGE('', *, *, #116, .T.);
#172 = ORIENTED_EDGE('', *, *, #138, .F.);
#173 = ORIENTED_EDGE('', *, *, #174, .F.);
#174 = EDGE_CURVE('', #158, #130, #175, .T.);
#175 = B_SPLINE_CURVE_WITH_KNOTS('', 1, (#176, #177), .UNSPECIFIED., .F., .U., (2, 2), (6., 120.), .UNSPECIFIED.);
#176 = CARTESIAN_POINT('', (6., 0., 0.));
#177 = CARTESIAN_POINT('', (120., 0., 0.));
#178 = B_SPLINE_SURFACE_WITH_KNOTS('', 1, 1, ((#179, #180), (#181, #182)), .UNSPECIFIED., .F., .F., .U., (2, 2), (2, 2), (0., 80.), (0., 120.), .UNSPECIFIED.);
#179 = CARTESIAN_POINT('', (0., 0., 0.));
#180 = CARTESIAN_POINT('', (120., 0., 0.));
#181 = CARTESIAN_POINT('', (0., 80., 0.));
#182 = CARTESIAN_POINT('', (120., 80., 0.));
#183 = ADVANCED_FACE('', (#184), #200, .T.);
#184 = FACE_OUTER_BOUND('', #185, .T.);
#185 = EDGE_LOOP('', (#186, #187, #188, #193, #194, #195));
#186 = ORIENTED_EDGE('', *, *, #43, .F.);
#187 = ORIENTED_EDGE('', *, *, #7, .F.);
#188 = ORIENTED_EDGE('', *, *, #189, .T.);
#189 = EDGE_CURVE('', #8, #132, #190, .T.);
#190 = B_SPLINE_CURVE_WITH_KNOTS('', 1, (#191, #192), .UNSPECIFIED., .F., .U., (2, 2), (15., 120.), .UNSPECIFIED.);
#191 = CARTESIAN_POINT('', (15., 0., 10.));
#192 = CARTESIAN_POINT('', (120., 0., 10.));
#193 = ORIENTED_EDGE('', *, *, #144, .T.);
#194 = ORIENTED_EDGE('', *, *, #102, .F.);
#195 = ORIENTED_EDGE('', *, *, #196, .F.);
#196 = EDGE_CURVE('', #44, #96, #197, .T.);
#197 = B_SPLINE_CURVE_WITH_KNOTS('', 1, (#198, #199), .UNSPECIFIED., .F., .U., (2, 2), (60., 80.), .UNSPECIFIED.);
#198 = CARTESIAN_POINT('', (0., 60., 10.));
#199 = CARTESIAN_POINT('', (0., 80., 10.));
#200 = B_SPLINE_SURFACE_WITH_KNOTS('', 1, 1, ((#201, #202), (#203, #204)), .UNSPECIFIED., .F., .F., .U., (2, 2), (2, 2), (0., 120.), (0., 80.), .UNSPECIFIED.);
#201 = CARTESIAN_POINT('', (0., 0., 10.));
#202 = CARTESIAN_POINT('', (0., 80., 10.));
#203 = CARTESIAN_POINT('', (120., 0., 10.));
#204 = CARTESIAN_POINT('', (120., 80., 10.));
#205 = ADVANCED_FACE('', (#206), #232, .T.);
#206 = FACE_OUTER_BOUND('', #207, .T.);
#207 = EDGE_LOOP('', (#208, #217, #222, #223, #224, #225, #226, #227));
#208 = ORIENTED_EDGE('', *, *, #209, .F.);
#209 = EDGE_CURVE('', #210, #212, #214, .T.);
#210 = VERTEX_POINT('', #211);
#211 = CARTESIAN_POINT('', (0., 0., 20.));
#212 = VERTEX_POINT('', #213);
#213 = CARTESIAN_POINT('', (3.67394039744206E-16, 6., 20.));
#214 = B_SPLINE_CURVE_WITH_KNOTS('', 1, (#215, #216), .UNSPECIFIED., .F., .U., (2, 2), (0., 0.642824346533225), .UNSPECIFIED.);
#215 = CARTESIAN_POINT('', (0., 0., 20.));
#216 = CARTESIAN_POINT('', (0., 6., 20.));
#217 = ORIENTED_EDGE('', *, *, #218, .T.);
#218 = EDGE_CURVE('', #210, #72, #219, .T.);
#219 = B_SPLINE_CURVE_WITH_KNOTS('', 1, (#220, #221), .UNSPECIFIED., .F., .U., (2, 2), (20., 60.), .UNSPECIFIED.);
#220 = CARTESIAN_POINT('', (0., 0., 20.));
#221 = CARTESIAN_POINT('', (0., 0., 60.));
#222 = ORIENTED_EDGE('', *, *, #71, .T.);
#223 = ORIENTED_EDGE('', *, *, #50, .F.);
#224 = ORIENTED_EDGE('', *, *, #196, .T.);
#225 = ORIENTED_EDGE('', *, *, #93, .F.);
#226 = ORIENTED_EDGE('', *, *, #167, .F.);
#227 = ORIENTED_EDGE('', *, *, #228, .T.);
#228 = EDGE_CURVE('', #160, #212, #229, .T.);
#229 = B_SPLINE_CURVE_WITH_KNOTS('', 1, (#230, #231), .UNSPECIFIED., .F., .U., (2, 2), (0., 1.), .UNSPECIFIED.);
#230 = CARTESIAN_POINT('', (0., 6., 0.));
#231 = CARTESIAN_POINT('', (0., 6., 20.));
#232 = B_SPLINE_SURFACE_WITH_KNOTS('', 1, 1, ((#233, #234), (#235, #236)), .UNSPECIFIED., .F., .F., .U., (2, 2), (2, 2), (0., 60.), (0., 80.), .UNSPECIFIED.);
#233 = CARTESIAN_POINT('', (0., 0., 0.));
#234 = CARTESIAN_POINT('', (0., 80., 0.));
#235 = CARTESIAN_POINT('', (0., 0., 60.));
#236 = CARTESIAN_POINT('', (0., 80., 60.));
#237 = ADVANCED_FACE('', (#238), #258, .T.);
#238 = FACE_OUTER_BOUND('', #239, .T.);
#239 = EDGE_LOOP('', (#240, #247, #252, #253, #254, #255, #256, #257));
#240 = ORIENTED_EDGE('', *, *, #241, .F.);
#241 = EDGE_CURVE('', #242, #210, #244, .T.);
#242 = VERTEX_POINT('', #243);
#243 = CARTESIAN_POINT('', (6., 0., 20.));
#244 = B_SPLINE_CURVE_WITH_KNOTS('', 1, (#245, #246), .UNSPECIFIED., .F., .U., (2, 2), (0.357175653466774, 1.), .UNSPECIFIED.);
#245 = CARTESIAN_POINT('', (6., 0., 20.));
#246 = CARTESIAN_POINT('', (-1.4210854715202E-14, 0., 20.));
#247 = ORIENTED_EDGE('', *, *, #248, .F.);
#248 = EDGE_CURVE('', #158, #242, #249, .T.);
#249 = B_SPLINE_CURVE_WITH_KNOTS('', 1, (#250, #251), .UNSPECIFIED., .F., .U., (2, 2), (0., 1.), .UNSPECIFIED.);
#250 = CARTESIAN_POINT('', (6., 0., 0.));
#251 = CARTESIAN_POINT('', (6., 0., 20.));
#252 = ORIENTED_EDGE('', *, *, #174, .T.);
#253 = ORIENTED_EDGE('', *, *, #129, .T.);
#254 = ORIENTED_EDGE('', *, *, #189, .F.);
#255 = ORIENTED_EDGE('', *, *, #30, .T.);
#256 = ORIENTED_EDGE('', *, *, #78, .F.);
#257 = ORIENTED_EDGE('', *, *, #218, .F.);
#258 = B_SPLINE_SURFACE_WITH_KNOTS('', 1, 1, ((#259, #260), (#261, #262)), .UNSPECIFIED., .F., .F., .U., (2, 2), (2, 2), (0., 120.), (0., 60.), .UNSPECIFIED.);
#259 = CARTESIAN_POINT('', (0., 0., 0.));
#260 = CARTESIAN_POINT('', (0., 0., 60.));
#261 = CARTESIAN_POINT('', (120., 0., 0.));
#262 = CARTESIAN_POINT('', (120., 0., 60.));
#263 = ADVANCED_FACE('', (#264), #275, .F.);
#264 = FACE_OUTER_BOUND('', #265, .F.);
#265 = EDGE_LOOP('', (#266, #267, #273, #274));
#266 = ORIENTED_EDGE('', *, *, #228, .T.);
#267 = ORIENTED_EDGE('', *, *, #268, .F.);
#268 = EDGE_CURVE('', #242, #212, #269, .T.);
#269 = (
   BOUNDED_CURVE ()
   B_SPLINE_CURVE (2, (#270, #271, #272), .UNSPECIFIED., .F., .U.)
   B_SPLINE_CURVE_WITH_KNOTS ((3, 3), (0., 9.42477796076938), .UNSPECIFIED.)
   CURVE ()
   GEOMETRIC_REPRESENTATION_ITEM ()
   RATIONAL_B_SPLINE_CURVE ((1., 0.707106781186548, 1.))
   REPRESENTATION_ITEM ('')
);
#270 = CARTESIAN_POINT('', (6., 0., 20.));
#271 = CARTESIAN_POINT('', (6., 6., 20.));
#272 = CARTESIAN_POINT('', (3.67394039744206E-16, 6., 20.));
#273 = ORIENTED_EDGE('', *, *, #248, .F.);
#274 = ORIENTED_EDGE('', *, *, #157, .T.);
#275 = (
   BOUNDED_SURFACE ()
   B_SPLINE_SURFACE (2, 1, ((#276, #277), (#278, #279), (#280, #281), (#282, #283), (#284, #285), (#286, #287), (#288, #289), (#290, #291), (#292, #293)), .UNSPECIFIED., .T., .F., .U.)
   B_SPLINE_SURFACE_WITH_KNOTS ((3, 2, 2, 2, 3), (2, 2), (0., 9.42477796076938, 18.8495559215388, 28.2743338823081, 37.6991118430775), (0., 20.), .UNSPECIFIED.)
   GEOMETRIC_REPRESENTATION_ITEM ()
   RATIONAL_B_SPLINE_SURFACE (((1., 1.), (0.707106781186548, 0.707106781186548), (1., 1.), (0.707106781186548, 0.707106781186548), (1., 1.), (0.707106781186548, 0.707106781186548), (1., 1.), (0.707106781186548, 0.707106781186548), (1., 1.)))
   REPRESENTATION_ITEM ('')
   SURFACE ()
);
#276 = CARTESIAN_POINT('', (6., 0., 0.));
#277 = CARTESIAN_POINT('', (6., 0., 20.));
#278 = CARTESIAN_POINT('', (6., 6., 0.));
#279 = CARTESIAN_POINT('', (6., 6., 20.));
#280 = CARTESIAN_POINT('', (3.67394039744206E-16, 6., 0.));
#281 = CARTESIAN_POINT('', (3.67394039744206E-16, 6., 20.));
#282 = CARTESIAN_POINT('', (-6., 6., 0.));
#283 = CARTESIAN_POINT('', (-6., 6., 20.));
#284 = CARTESIAN_POINT('', (-6., 7.34788079488412E-16, 0.));
#285 = CARTESIAN_POINT('', (-6., 7.34788079488412E-16, 20.));
#286 = CARTESIAN_POINT('', (-6., -6., 0.));
#287 = CARTESIAN_POINT('', (-6., -6., 20.));
#288 = CARTESIAN_POINT('', (-1.10218211923262E-15, -6., 0.));
#289 = CARTESIAN_POINT('', (-1.10218211923262E-15, -6., 20.));
#290 = CARTESIAN_POINT('', (6., -6., 0.));
#291 = CARTESIAN_POINT('', (6., -6., 20.));
#292 = CARTESIAN_POINT('', (6., 0., 0.));
#293 = CARTESIAN_POINT('', (6., 0., 20.));
#294 = ADVANCED_FACE('', (#295), #300, .F.);
#295 = FACE_OUTER_BOUND('', #296, .F.);
#296 = EDGE_LOOP('', (#297, #298, #299));
#297 = ORIENTED_EDGE('', *, *, #241, .F.);
#298 = ORIENTED_EDGE('', *, *, #268, .T.);
#299 = ORIENTED_EDGE('', *, *, #209, .F.);
#300 = B_SPLINE_SURFACE_WITH_KNOTS('', 1, 1, ((#301, #302), (#303, #304)), .UNSPECIFIED., .F., .F., .U., (2, 2), (2, 2), (0., 1.), (0., 1.), .UNSPECIFIED.);
#301 = CARTESIAN_POINT('', (9.33380951166243, -9.33380951166243, 20.));
#302 = CARTESIAN_POINT('', (-9.33380951166243, -9.33380951166243, 20.));
#303 = CARTESIAN_POINT('', (9.33380951166243, 9.33380951166243, 20.));
#304 = CARTESIAN_POINT('', (-9.33380951166243, 9.33380951166243, 20.));
#305 = DRAUGHTING_MODEL('', (#313, #459), #462);
#306 = PRESENTATION_STYLE_ASSIGNMENT((#307));
#307 = SURFACE_STYLE_USAGE(.POSITIVE., #308);
#308 = SURFACE_SIDE_STYLE('', (#309));
#309 = SURFACE_STYLE_FILL_AREA(#310);
#310 = FILL_AREA_STYLE('', (#311));
#311 = FILL_AREA_STYLE_COLOUR('', #312);
#312 = COLOUR_RGB('', 0.50196078431373, 0.50196078431373, 0.50196078431373);
#313 = STYLED_ITEM('', (#306), #1);
#314 = MANIFOLD_SOLID_BREP('Slot_0', #315);
#315 = CLOSED_SHELL('', (#316, #352, #380, #408, #428, #440));
#316 = ADVANCED_FACE('', (#317), #347, .T.);
#317 = FACE_OUTER_BOUND('', #318, .T.);
#318 = EDGE_LOOP('', (#319, #328, #335, #342));
#319 = ORIENTED_EDGE('', *, *, #320, .T.);
#320 = EDGE_CURVE('', #321, #323, #325, .T.);
#321 = VERTEX_POINT('', #322);
#322 = CARTESIAN_POINT('', (0., 8., 0.));
#323 = VERTEX_POINT('', #324);
#324 = CARTESIAN_POINT('', (0., 8., 20.));
#325 = B_SPLINE_CURVE_WITH_KNOTS('', 1, (#326, #327), .UNSPECIFIED., .F., .U., (2, 2), (0., 20.), .UNSPECIFIED.);
#326 = CARTESIAN_POINT('', (0., 8., 0.));
#327 = CARTESIAN_POINT('', (0., 8., 20.));
#328 = ORIENTED_EDGE('', *, *, #329, .T.);
#329 = EDGE_CURVE('', #323, #330, #332, .T.);
#330 = VERTEX_POINT('', #331);
#331 = CARTESIAN_POINT('', (30., 8., 20.));
#332 = B_SPLINE_CURVE_WITH_KNOTS('', 1, (#333, #334), .UNSPECIFIED., .F., .U., (2, 2), (0., 30.), .UNSPECIFIED.);
#333 = CARTESIAN_POINT('', (0., 8., 20.));
#334 = CARTESIAN_POINT('', (30., 8., 20.));
#335 = ORIENTED_EDGE('', *, *, #336, .F.);
#336 = EDGE_CURVE('', #337, #330, #339, .T.);
#337 = VERTEX_POINT('', #338);
#338 = CARTESIAN_POINT('', (30., 8., 0.));
#339 = B_SPLINE_CURVE_WITH_KNOTS('', 1, (#340, #341), .UNSPECIFIED., .F., .U., (2, 2), (0., 20.), .UNSPECIFIED.);
#340 = CARTESIAN_POINT('', (30., 8., 0.));
#341 = CARTESIAN_POINT('', (30., 8., 20.));
#342 = ORIENTED_EDGE('', *, *, #343, .F.);
#343 = EDGE_CURVE('', #321, #337, #344, .T.);
#344 = B_SPLINE_CURVE_WITH_KNOTS('', 1, (#345, #346), .UNSPECIFIED., .F., .U., (2, 2), (0., 30.), .UNSPECIFIED.);
#345 = CARTESIAN_POINT('', (0., 8., 0.));
#346 = CARTESIAN_POINT('', (30., 8., 0.));
#347 = B_SPLINE_SURFACE_WITH_KNOTS('', 1, 1, ((#348, #349), (#350, #351)), .UNSPECIFIED., .F., .F., .U., (2, 2), (2, 2), (0., 20.), (0., 30.), .UNSPECIFIED.);
#348 = CARTESIAN_POINT('', (0., 8., 0.));
#349 = CARTESIAN_POINT('', (30., 8., 0.));
#350 = CARTESIAN_POINT('', (0., 8., 20.));
#351 = CARTESIAN_POINT('', (30., 8., 20.));
#352 = ADVANCED_FACE('', (#353), #375, .T.);
#353 = FACE_OUTER_BOUND('', #354, .T.);
#354 = EDGE_LOOP('', (#355, #362, #369, #374));
#355 = ORIENTED_EDGE('', *, *, #356, .F.);
#356 = EDGE_CURVE('', #357, #323, #359, .T.);
#357 = VERTEX_POINT('', #358);
#358 = CARTESIAN_POINT('', (0., 0., 20.));
#359 = B_SPLINE_CURVE_WITH_KNOTS('', 1, (#360, #361), .UNSPECIFIED., .F., .U., (2, 2), (0., 8.), .UNSPECIFIED.);
#360 = CARTESIAN_POINT('', (0., 0., 20.));
#361 = CARTESIAN_POINT('', (0., 8., 20.));
#362 = ORIENTED_EDGE('', *, *, #363, .T.);
#363 = EDGE_CURVE('', #357, #364, #366, .T.);
#364 = VERTEX_POINT('', #365);
#365 = CARTESIAN_POINT('', (30., 0., 20.));
#366 = B_SPLINE_CURVE_WITH_KNOTS('', 1, (#367, #368), .UNSPECIFIED., .F., .U., (2, 2), (0., 30.), .UNSPECIFIED.);
#367 = CARTESIAN_POINT('', (0., 0., 20.));
#368 = CARTESIAN_POINT('', (30., 0., 20.));
#369 = ORIENTED_EDGE('', *, *, #370, .T.);
#370 = EDGE_CURVE('', #364, #330, #371, .T.);
#371 = B_SPLINE_CURVE_WITH_KNOTS('', 1, (#372, #373), .UNSPECIFIED., .F., .U., (2, 2), (0., 8.), .UNSPECIFIED.);
#372 = CARTESIAN_POINT('', (30., 0., 20.));
#373 = CARTESIAN_POINT('', (30., 8., 20.));
#374 = ORIENTED_EDGE('', *, *, #329, .F.);
#375 = B_SPLINE_SURFACE_WITH_KNOTS('', 1, 1, ((#376, #377), (#378, #379)), .UNSPECIFIED., .F., .F., .U., (2, 2), (2, 2), (0., 30.), (0., 8.), .UNSPECIFIED.);
#376 = CARTESIAN_POINT('', (0., 0., 20.));
#377 = CARTESIAN_POINT('', (0., 8., 20.));
#378 = CARTESIAN_POINT('', (30., 0., 20.));
#379 = CARTESIAN_POINT('', (30., 8., 20.));
#380 = ADVANCED_FACE('', (#381), #403, .T.);
#381 = FACE_OUTER_BOUND('', #382, .T.);
#382 = EDGE_LOOP('', (#383, #390, #397, #402));
#383 = ORIENTED_EDGE('', *, *, #384, .F.);
#384 = EDGE_CURVE('', #385, #357, #387, .T.);
#385 = VERTEX_POINT('', #386);
#386 = CARTESIAN_POINT('', (0., 0., 0.));
#387 = B_SPLINE_CURVE_WITH_KNOTS('', 1, (#388, #389), .UNSPECIFIED., .F., .U., (2, 2), (0., 20.), .UNSPECIFIED.);
#388 = CARTESIAN_POINT('', (0., 0., 0.));
#389 = CARTESIAN_POINT('', (0., 0., 20.));
#390 = ORIENTED_EDGE('', *, *, #391, .T.);
#391 = EDGE_CURVE('', #385, #392, #394, .T.);
#392 = VERTEX_POINT('', #393);
#393 = CARTESIAN_POINT('', (30., 0., 0.));
#394 = B_SPLINE_CURVE_WITH_KNOTS('', 1, (#395, #396), .UNSPECIFIED., .F., .U., (2, 2), (0., 30.), .UNSPECIFIED.);
#395 = CARTESIAN_POINT('', (0., 0., 0.));
#396 = CARTESIAN_POINT('', (30., 0., 0.));
#397 = ORIENTED_EDGE('', *, *, #398, .T.);
#398 = EDGE_CURVE('', #392, #364, #399, .T.);
#399 = B_SPLINE_CURVE_WITH_KNOTS('', 1, (#400, #401), .UNSPECIFIED., .F., .U., (2, 2), (0., 20.), .UNSPECIFIED.);
#400 = CARTESIAN_POINT('', (30., 0., 0.));
#401 = CARTESIAN_POINT('', (30., 0., 20.));
#402 = ORIENTED_EDGE('', *, *, #363, .F.);
#403 = B_SPLINE_SURFACE_WITH_KNOTS('', 1, 1, ((#404, #405), (#406, #407)), .UNSPECIFIED., .F., .F., .U., (2, 2), (2, 2), (0., 30.), (0., 20.), .UNSPECIFIED.);
#404 = CARTESIAN_POINT('', (0., 0., 0.));
#405 = CARTESIAN_POINT('', (0., 0., 20.));
#406 = CARTESIAN_POINT('', (30., 0., 0.));
#407 = CARTESIAN_POINT('', (30., 0., 20.));
#408 = ADVANCED_FACE('', (#409), #423, .T.);
#409 = FACE_OUTER_BOUND('', #410, .T.);
#410 = EDGE_LOOP('', (#411, #416, #417, #422));
#411 = ORIENTED_EDGE('', *, *, #412, .T.);
#412 = EDGE_CURVE('', #385, #321, #413, .T.);
#413 = B_SPLINE_CURVE_WITH_KNOTS('', 1, (#414, #415), .UNSPECIFIED., .F., .U., (2, 2), (0., 8.), .UNSPECIFIED.);
#414 = CARTESIAN_POINT('', (0., 0., 0.));
#415 = CARTESIAN_POINT('', (0., 8., 0.));
#416 = ORIENTED_EDGE('', *, *, #343, .T.);
#417 = ORIENTED_EDGE('', *, *, #418, .F.);
#418 = EDGE_CURVE('', #392, #337, #419, .T.);
#419 = B_SPLINE_CURVE_WITH_KNOTS('', 1, (#420, #421), .UNSPECIFIED., .F., .U., (2, 2), (0., 8.), .UNSPECIFIED.);
#420 = CARTESIAN_POINT('', (30., 0., 0.));
#421 = CARTESIAN_POINT('', (30., 8., 0.));
#422 = ORIENTED_EDGE('', *, *, #391, .F.);
#423 = B_SPLINE_SURFACE_WITH_KNOTS('', 1, 1, ((#424, #425), (#426, #427)), .UNSPECIFIED., .F., .F., .U., (2, 2), (2, 2), (0., 8.), (0., 30.), .UNSPECIFIED.);
#424 = CARTESIAN_POINT('', (0., 0., 0.));
#425 = CARTESIAN_POINT('', (30., 0., 0.));
#426 = CARTESIAN_POINT('', (0., 8., 0.));
#427 = CARTESIAN_POINT('', (30., 8., 0.));
#428 = ADVANCED_FACE('', (#429), #435, .T.);
#429 = FACE_OUTER_BOUND('', #430, .T.);
#430 = EDGE_LOOP('', (#431, #432, #433, #434));
#431 = ORIENTED_EDGE('', *, *, #398, .F.);
#432 = ORIENTED_EDGE('', *, *, #418, .T.);
#433 = ORIENTED_EDGE('', *, *, #336, .T.);
#434 = ORIENTED_EDGE('', *, *, #370, .F.);
#435 = B_SPLINE_SURFACE_WITH_KNOTS('', 1, 1, ((#436, #437), (#438, #439)), .UNSPECIFIED., .F., .F., .U., (2, 2), (2, 2), (0., 8.), (0., 20.), .UNSPECIFIED.);
#436 = CARTESIAN_POINT('', (30., 0., 0.));
#437 = CARTESIAN_POINT('', (30., 0., 20.));
#438 = CARTESIAN_POINT('', (30., 8., 0.));
#439 = CARTESIAN_POINT('', (30., 8., 20.));
#440 = ADVANCED_FACE('', (#441), #447, .T.);
#441 = FACE_OUTER_BOUND('', #442, .T.);
#442 = EDGE_LOOP('', (#443, #444, #445, #446));
#443 = ORIENTED_EDGE('', *, *, #384, .T.);
#444 = ORIENTED_EDGE('', *, *, #356, .T.);
#445 = ORIENTED_EDGE('', *, *, #320, .F.);
#446 = ORIENTED_EDGE('', *, *, #412, .F.);
#447 = B_SPLINE_SURFACE_WITH_KNOTS('', 1, 1, ((#448, #449), (#450, #451)), .UNSPECIFIED., .F., .F., .U., (2, 2), (2, 2), (0., 20.), (0., 8.), .UNSPECIFIED.);
#448 = CARTESIAN_POINT('', (0., 0., 0.));
#449 = CARTESIAN_POINT('', (0., 8., 0.));
#450 = CARTESIAN_POINT('', (0., 0., 20.));
#451 = CARTESIAN_POINT('', (0., 8., 20.));
#452 = PRESENTATION_STYLE_ASSIGNMENT((#453));
#453 = SURFACE_STYLE_USAGE(.POSITIVE., #454);
#454 = SURFACE_SIDE_STYLE('', (#455));
#455 = SURFACE_STYLE_FILL_AREA(#456);
#456 = FILL_AREA_STYLE('', (#457));
#457 = FILL_AREA_STYLE_COLOUR('', #458);
#458 = COLOUR_RGB('', 0.50196078431373, 0.50196078431373, 0.50196078431373);
#459 = STYLED_ITEM('', (#452), #314);
#460 = CARTESIAN_POINT('Origin', (0., 0., 0.));
#461 = GEOMETRIC_SET('', (#460));
#462 = (
   GEOMETRIC_REPRESENTATION_CONTEXT (3)
   GLOBAL_UNCERTAINTY_ASSIGNED_CONTEXT ((#464))
   GLOBAL_UNIT_ASSIGNED_CONTEXT ((#463, #465, #466))
   REPRESENTATION_CONTEXT ('', '3D')
);
#463 = (
   LENGTH_UNIT ()
   NAMED_UNIT (*)
   SI_UNIT (.MILLI., .METRE.)
);
#464 = UNCERTAINTY_MEASURE_WITH_UNIT(LENGTH_MEASURE(1.E-6), #463, 'DISTANCE_ACCURACY_VALUE', '');
#465 = (
   NAMED_UNIT (*)
   SI_UNIT ($, .STERADIAN.)
   SOLID_ANGLE_UNIT ()
);
#466 = (
   NAMED_UNIT (*)
   PLANE_ANGLE_UNIT ()
   SI_UNIT ($, .RADIAN.)
);
#467 = SHAPE_REPRESENTATION('', (#482), #462);
#468 = PRODUCT_DEFINITION_SHAPE('', '', #469);
#469 = PRODUCT_DEFINITION('', '', #472, #476);
#470 = APPLICATION_CONTEXT('configuration controlled 3D designs of mechanical parts and assemblies');
#471 = APPLICATION_PROTOCOL_DEFINITION('International Standard', 'automotive_design', 2002, #470);
#472 = PRODUCT_DEFINITION_FORMATION_WITH_SPECIFIED_SOURCE('', '', #473, .NOT_KNOWN.);
#473 = PRODUCT('Bracket', 'Bracket', '', (#474));
#474 = PRODUCT_CONTEXT('', #470, 'mechanical');
#475 = PRODUCT_RELATED_PRODUCT_CATEGORY('detail', '', (#473));
#476 = PRODUCT_DEFINITION_CONTEXT('part definition', #470, 'design');
#477 = SHAPE_DEFINITION_REPRESENTATION(#468, #467);
#478 = SHAPE_REPRESENTATION_RELATIONSHIP('', '', #467, #479);
#479 = SHAPE_REPRESENTATION('', (#461), #462);
#480 = SHAPE_REPRESENTATION_RELATIONSHIP('', '', #467, #481);
#481 = ADVANCED_BREP_SHAPE_REPRESENTATION('', (#1, #314), #462);
#482 = AXIS2_PLACEMENT_3D('', #483, #484, #485);
#483 = CARTESIAN_POINT('', (0., 0., 0.));
#484 = DIRECTION('', (0., 0., 1.));
#485 = DIRECTION('', (1., 0., 0.));
ENDSEC;
END-ISO-10303-21;
