ISO-10303-21;
HEADER;
FILE_DESCRIPTION(('STEP'), '1');
FILE_NAME('OrderTest', '2026-04-18T07:39:11', (''), (''), 'Express 3.1.2.0', 'Express Tool', 'Unknown');
FILE_SCHEMA(('AUTOMOTIVE_DESIGN'));
ENDSEC;

DATA;
#1 = MANIFOLD_SOLID_BREP('Slot_0', #2);
#2 = CLOSED_SHELL('', (#3, #39, #67, #95, #115, #127));
#3 = ADVANCED_FACE('', (#4), #34, .T.);
#4 = FACE_OUTER_BOUND('', #5, .T.);
#5 = EDGE_LOOP('', (#6, #15, #22, #29));
#6 = ORIENTED_EDGE('', *, *, #7, .T.);
#7 = EDGE_CURVE('', #8, #10, #12, .T.);
#8 = VERTEX_POINT('', #9);
#9 = CARTESIAN_POINT('', (0., 8., 0.));
#10 = VERTEX_POINT('', #11);
#11 = CARTESIAN_POINT('', (0., 8., 20.));
#12 = B_SPLINE_CURVE_WITH_KNOTS('', 1, (#13, #14), .UNSPECIFIED., .F., .U., (2, 2), (0., 20.), .UNSPECIFIED.);
#13 = CARTESIAN_POINT('', (0., 8., 0.));
#14 = CARTESIAN_POINT('', (0., 8., 20.));
#15 = ORIENTED_EDGE('', *, *, #16, .T.);
#16 = EDGE_CURVE('', #10, #17, #19, .T.);
#17 = VERTEX_POINT('', #18);
#18 = CARTESIAN_POINT('', (30., 8., 20.));
#19 = B_SPLINE_CURVE_WITH_KNOTS('', 1, (#20, #21), .UNSPECIFIED., .F., .U., (2, 2), (0., 30.), .UNSPECIFIED.);
#20 = CARTESIAN_POINT('', (0., 8., 20.));
#21 = CARTESIAN_POINT('', (30., 8., 20.));
#22 = ORIENTED_EDGE('', *, *, #23, .F.);
#23 = EDGE_CURVE('', #24, #17, #26, .T.);
#24 = VERTEX_POINT('', #25);
#25 = CARTESIAN_POINT('', (30., 8., 0.));
#26 = B_SPLINE_CURVE_WITH_KNOTS('', 1, (#27, #28), .UNSPECIFIED., .F., .U., (2, 2), (0., 20.), .UNSPECIFIED.);
#27 = CARTESIAN_POINT('', (30., 8., 0.));
#28 = CARTESIAN_POINT('', (30., 8., 20.));
#29 = ORIENTED_EDGE('', *, *, #30, .F.);
#30 = EDGE_CURVE('', #8, #24, #31, .T.);
#31 = B_SPLINE_CURVE_WITH_KNOTS('', 1, (#32, #33), .UNSPECIFIED., .F., .U., (2, 2), (0., 30.), .UNSPECIFIED.);
#32 = CARTESIAN_POINT('', (0., 8., 0.));
#33 = CARTESIAN_POINT('', (30., 8., 0.));
#34 = B_SPLINE_SURFACE_WITH_KNOTS('', 1, 1, ((#35, #36), (#37, #38)), .UNSPECIFIED., .F., .F., .U., (2, 2), (2, 2), (0., 20.), (0., 30.), .UNSPECIFIED.);
#35 = CARTESIAN_POINT('', (0., 8., 0.));
#36 = CARTESIAN_POINT('', (30., 8., 0.));
#37 = CARTESIAN_POINT('', (0., 8., 20.));
#38 = CARTESIAN_POINT('', (30., 8., 20.));
#39 = ADVANCED_FACE('', (#40), #62, .T.);
#40 = FACE_OUTER_BOUND('', #41, .T.);
#41 = EDGE_LOOP('', (#42, #49, #56, #61));
#42 = ORIENTED_EDGE('', *, *, #43, .F.);
#43 = EDGE_CURVE('', #44, #10, #46, .T.);
#44 = VERTEX_POINT('', #45);
#45 = CARTESIAN_POINT('', (0., 0., 20.));
#46 = B_SPLINE_CURVE_WITH_KNOTS('', 1, (#47, #48), .UNSPECIFIED., .F., .U., (2, 2), (0., 8.), .UNSPECIFIED.);
#47 = CARTESIAN_POINT('', (0., 0., 20.));
#48 = CARTESIAN_POINT('', (0., 8., 20.));
#49 = ORIENTED_EDGE('', *, *, #50, .T.);
#50 = EDGE_CURVE('', #44, #51, #53, .T.);
#51 = VERTEX_POINT('', #52);
#52 = CARTESIAN_POINT('', (30., 0., 20.));
#53 = B_SPLINE_CURVE_WITH_KNOTS('', 1, (#54, #55), .UNSPECIFIED., .F., .U., (2, 2), (0., 30.), .UNSPECIFIED.);
#54 = CARTESIAN_POINT('', (0., 0., 20.));
#55 = CARTESIAN_POINT('', (30., 0., 20.));
#56 = ORIENTED_EDGE('', *, *, #57, .T.);
#57 = EDGE_CURVE('', #51, #17, #58, .T.);
#58 = B_SPLINE_CURVE_WITH_KNOTS('', 1, (#59, #60), .UNSPECIFIED., .F., .U., (2, 2), (0., 8.), .UNSPECIFIED.);
#59 = CARTESIAN_POINT('', (30., 0., 20.));
#60 = CARTESIAN_POINT('', (30., 8., 20.));
#61 = ORIENTED_EDGE('', *, *, #16, .F.);
#62 = B_SPLINE_SURFACE_WITH_KNOTS('', 1, 1, ((#63, #64), (#65, #66)), .UNSPECIFIED., .F., .F., .U., (2, 2), (2, 2), (0., 30.), (0., 8.), .UNSPECIFIED.);
#63 = CARTESIAN_POINT('', (0., 0., 20.));
#64 = CARTESIAN_POINT('', (0., 8., 20.));
#65 = CARTESIAN_POINT('', (30., 0., 20.));
#66 = CARTESIAN_POINT('', (30., 8., 20.));
#67 = ADVANCED_FACE('', (#68), #90, .T.);
#68 = FACE_OUTER_BOUND('', #69, .T.);
#69 = EDGE_LOOP('', (#70, #77, #84, #89));
#70 = ORIENTED_EDGE('', *, *, #71, .F.);
#71 = EDGE_CURVE('', #72, #44, #74, .T.);
#72 = VERTEX_POINT('', #73);
#73 = CARTESIAN_POINT('', (0., 0., 0.));
#74 = B_SPLINE_CURVE_WITH_KNOTS('', 1, (#75, #76), .UNSPECIFIED., .F., .U., (2, 2), (0., 20.), .UNSPECIFIED.);
#75 = CARTESIAN_POINT('', (0., 0., 0.));
#76 = CARTESIAN_POINT('', (0., 0., 20.));
#77 = ORIENTED_EDGE('', *, *, #78, .T.);
#78 = EDGE_CURVE('', #72, #79, #81, .T.);
#79 = VERTEX_POINT('', #80);
#80 = CARTESIAN_POINT('', (30., 0., 0.));
#81 = B_SPLINE_CURVE_WITH_KNOTS('', 1, (#82, #83), .UNSPECIFIED., .F., .U., (2, 2), (0., 30.), .UNSPECIFIED.);
#82 = CARTESIAN_POINT('', (0., 0., 0.));
#83 = CARTESIAN_POINT('', (30., 0., 0.));
#84 = ORIENTED_EDGE('', *, *, #85, .T.);
#85 = EDGE_CURVE('', #79, #51, #86, .T.);
#86 = B_SPLINE_CURVE_WITH_KNOTS('', 1, (#87, #88), .UNSPECIFIED., .F., .U., (2, 2), (0., 20.), .UNSPECIFIED.);
#87 = CARTESIAN_POINT('', (30., 0., 0.));
#88 = CARTESIAN_POINT('', (30., 0., 20.));
#89 = ORIENTED_EDGE('', *, *, #50, .F.);
#90 = B_SPLINE_SURFACE_WITH_KNOTS('', 1, 1, ((#91, #92), (#93, #94)), .UNSPECIFIED., .F., .F., .U., (2, 2), (2, 2), (0., 30.), (0., 20.), .UNSPECIFIED.);
#91 = CARTESIAN_POINT('', (0., 0., 0.));
#92 = CARTESIAN_POINT('', (0., 0., 20.));
#93 = CARTESIAN_POINT('', (30., 0., 0.));
#94 = CARTESIAN_POINT('', (30., 0., 20.));
#95 = ADVANCED_FACE('', (#96), #110, .T.);
#96 = FACE_OUTER_BOUND('', #97, .T.);
#97 = EDGE_LOOP('', (#98, #103, #104, #109));
#98 = ORIENTED_EDGE('', *, *, #99, .T.);
#99 = EDGE_CURVE('', #72, #8, #100, .T.);
#100 = B_SPLINE_CURVE_WITH_KNOTS('', 1, (#101, #102), .UNSPECIFIED., .F., .U., (2, 2), (0., 8.), .UNSPECIFIED.);
#101 = CARTESIAN_POINT('', (0., 0., 0.));
#102 = CARTESIAN_POINT('', (0., 8., 0.));
#103 = ORIENTED_EDGE('', *, *, #30, .T.);
#104 = ORIENTED_EDGE('', *, *, #105, .F.);
#105 = EDGE_CURVE('', #79, #24, #106, .T.);
#106 = B_SPLINE_CURVE_WITH_KNOTS('', 1, (#107, #108), .UNSPECIFIED., .F., .U., (2, 2), (0., 8.), .UNSPECIFIED.);
#107 = CARTESIAN_POINT('', (30., 0., 0.));
#108 = CARTESIAN_POINT('', (30., 8., 0.));
#109 = ORIENTED_EDGE('', *, *, #78, .F.);
#110 = B_SPLINE_SURFACE_WITH_KNOTS('', 1, 1, ((#111, #112), (#113, #114)), .UNSPECIFIED., .F., .F., .U., (2, 2), (2, 2), (0., 8.), (0., 30.), .UNSPECIFIED.);
#111 = CARTESIAN_POINT('', (0., 0., 0.));
#112 = CARTESIAN_POINT('', (30., 0., 0.));
#113 = CARTESIAN_POINT('', (0., 8., 0.));
#114 = CARTESIAN_POINT('', (30., 8., 0.));
#115 = ADVANCED_FACE('', (#116), #122, .T.);
#116 = FACE_OUTER_BOUND('', #117, .T.);
#117 = EDGE_LOOP('', (#118, #119, #120, #121));
#118 = ORIENTED_EDGE('', *, *, #85, .F.);
#119 = ORIENTED_EDGE('', *, *, #105, .T.);
#120 = ORIENTED_EDGE('', *, *, #23, .T.);
#121 = ORIENTED_EDGE('', *, *, #57, .F.);
#122 = B_SPLINE_SURFACE_WITH_KNOTS('', 1, 1, ((#123, #124), (#125, #126)), .UNSPECIFIED., .F., .F., .U., (2, 2), (2, 2), (0., 8.), (0., 20.), .UNSPECIFIED.);
#123 = CARTESIAN_POINT('', (30., 0., 0.));
#124 = CARTESIAN_POINT('', (30., 0., 20.));
#125 = CARTESIAN_POINT('', (30., 8., 0.));
#126 = CARTESIAN_POINT('', (30., 8., 20.));
#127 = ADVANCED_FACE('', (#128), #134, .T.);
#128 = FACE_OUTER_BOUND('', #129, .T.);
#129 = EDGE_LOOP('', (#130, #131, #132, #133));
#130 = ORIENTED_EDGE('', *, *, #71, .T.);
#131 = ORIENTED_EDGE('', *, *, #43, .T.);
#132 = ORIENTED_EDGE('', *, *, #7, .F.);
#133 = ORIENTED_EDGE('', *, *, #99, .F.);
#134 = B_SPLINE_SURFACE_WITH_KNOTS('', 1, 1, ((#135, #136), (#137, #138)), .UNSPECIFIED., .F., .F., .U., (2, 2), (2, 2), (0., 20.), (0., 8.), .UNSPECIFIED.);
#135 = CARTESIAN_POINT('', (0., 0., 0.));
#136 = CARTESIAN_POINT('', (0., 8., 0.));
#137 = CARTESIAN_POINT('', (0., 0., 20.));
#138 = CARTESIAN_POINT('', (0., 8., 20.));
#139 = DRAUGHTING_MODEL('', (#147, #459), #462);
#140 = PRESENTATION_STYLE_ASSIGNMENT((#141));
#141 = SURFACE_STYLE_USAGE(.POSITIVE., #142);
#142 = SURFACE_SIDE_STYLE('', (#143));
#143 = SURFACE_STYLE_FILL_AREA(#144);
#144 = FILL_AREA_STYLE('', (#145));
#145 = FILL_AREA_STYLE_COLOUR('', #146);
#146 = COLOUR_RGB('', 0.50196078431373, 0.50196078431373, 0.50196078431373);
#147 = STYLED_ITEM('', (#140), #1);
#148 = MANIFOLD_SOLID_BREP('Subtraction_0', #149);
#149 = CLOSED_SHELL('', (#150, #186, #214, #236, #272, #308, #330, #352, #384, #410, #441));
#150 = ADVANCED_FACE('', (#151), #181, .T.);
#151 = FACE_OUTER_BOUND('', #152, .T.);
#152 = EDGE_LOOP('', (#153, #162, #169, #176));
#153 = ORIENTED_EDGE('', *, *, #154, .T.);
#154 = EDGE_CURVE('', #155, #157, #159, .T.);
#155 = VERTEX_POINT('', #156);
#156 = CARTESIAN_POINT('', (15., 0., 10.));
#157 = VERTEX_POINT('', #158);
#158 = CARTESIAN_POINT('', (15., 60., 10.));
#159 = B_SPLINE_CURVE_WITH_KNOTS('', 1, (#160, #161), .UNSPECIFIED., .F., .U., (2, 2), (0., 1.), .UNSPECIFIED.);
#160 = CARTESIAN_POINT('', (15., 0., 10.));
#161 = CARTESIAN_POINT('', (15., 60., 10.));
#162 = ORIENTED_EDGE('', *, *, #163, .T.);
#163 = EDGE_CURVE('', #157, #164, #166, .T.);
#164 = VERTEX_POINT('', #165);
#165 = CARTESIAN_POINT('', (15., 60., 60.));
#166 = B_SPLINE_CURVE_WITH_KNOTS('', 1, (#167, #168), .UNSPECIFIED., .F., .U., (2, 2), (10., 60.), .UNSPECIFIED.);
#167 = CARTESIAN_POINT('', (15., 60., 10.));
#168 = CARTESIAN_POINT('', (15., 60., 60.));
#169 = ORIENTED_EDGE('', *, *, #170, .F.);
#170 = EDGE_CURVE('', #171, #164, #173, .T.);
#171 = VERTEX_POINT('', #172);
#172 = CARTESIAN_POINT('', (15., 0., 60.));
#173 = B_SPLINE_CURVE_WITH_KNOTS('', 1, (#174, #175), .UNSPECIFIED., .F., .U., (2, 2), (0., 60.), .UNSPECIFIED.);
#174 = CARTESIAN_POINT('', (15., 0., 60.));
#175 = CARTESIAN_POINT('', (15., 60., 60.));
#176 = ORIENTED_EDGE('', *, *, #177, .F.);
#177 = EDGE_CURVE('', #155, #171, #178, .T.);
#178 = B_SPLINE_CURVE_WITH_KNOTS('', 1, (#179, #180), .UNSPECIFIED., .F., .U., (2, 2), (10., 60.), .UNSPECIFIED.);
#179 = CARTESIAN_POINT('', (15., 0., 10.));
#180 = CARTESIAN_POINT('', (15., 0., 60.));
#181 = B_SPLINE_SURFACE_WITH_KNOTS('', 1, 1, ((#182, #183), (#184, #185)), .UNSPECIFIED., .F., .F., .U., (2, 2), (2, 2), (0., 60.), (0., 60.), .UNSPECIFIED.);
#182 = CARTESIAN_POINT('', (15., 0., 0.));
#183 = CARTESIAN_POINT('', (15., 0., 60.));
#184 = CARTESIAN_POINT('', (15., 60., 0.));
#185 = CARTESIAN_POINT('', (15., 60., 60.));
#186 = ADVANCED_FACE('', (#187), #209, .T.);
#187 = FACE_OUTER_BOUND('', #188, .T.);
#188 = EDGE_LOOP('', (#189, #196, #203, #208));
#189 = ORIENTED_EDGE('', *, *, #190, .T.);
#190 = EDGE_CURVE('', #157, #191, #193, .T.);
#191 = VERTEX_POINT('', #192);
#192 = CARTESIAN_POINT('', (0., 60., 10.));
#193 = B_SPLINE_CURVE_WITH_KNOTS('', 1, (#194, #195), .UNSPECIFIED., .F., .U., (2, 2), (0., 1.), .UNSPECIFIED.);
#194 = CARTESIAN_POINT('', (15., 60., 10.));
#195 = CARTESIAN_POINT('', (1.4210854715202E-14, 60., 10.));
#196 = ORIENTED_EDGE('', *, *, #197, .T.);
#197 = EDGE_CURVE('', #191, #198, #200, .T.);
#198 = VERTEX_POINT('', #199);
#199 = CARTESIAN_POINT('', (0., 60., 60.));
#200 = B_SPLINE_CURVE_WITH_KNOTS('', 1, (#201, #202), .UNSPECIFIED., .F., .U., (2, 2), (10., 60.), .UNSPECIFIED.);
#201 = CARTESIAN_POINT('', (0., 60., 10.));
#202 = CARTESIAN_POINT('', (0., 60., 60.));
#203 = ORIENTED_EDGE('', *, *, #204, .T.);
#204 = EDGE_CURVE('', #198, #164, #205, .T.);
#205 = B_SPLINE_CURVE_WITH_KNOTS('', 1, (#206, #207), .UNSPECIFIED., .F., .U., (2, 2), (0., 15.), .UNSPECIFIED.);
#206 = CARTESIAN_POINT('', (0., 60., 60.));
#207 = CARTESIAN_POINT('', (15., 60., 60.));
#208 = ORIENTED_EDGE('', *, *, #163, .F.);
#209 = B_SPLINE_SURFACE_WITH_KNOTS('', 1, 1, ((#210, #211), (#212, #213)), .UNSPECIFIED., .F., .F., .U., (2, 2), (2, 2), (0., 60.), (0., 15.), .UNSPECIFIED.);
#210 = CARTESIAN_POINT('', (0., 60., 0.));
#211 = CARTESIAN_POINT('', (15., 60., 0.));
#212 = CARTESIAN_POINT('', (0., 60., 60.));
#213 = CARTESIAN_POINT('', (15., 60., 60.));
#214 = ADVANCED_FACE('', (#215), #231, .T.);
#215 = FACE_OUTER_BOUND('', #216, .T.);
#216 = EDGE_LOOP('', (#217, #224, #229, #230));
#217 = ORIENTED_EDGE('', *, *, #218, .F.);
#218 = EDGE_CURVE('', #219, #198, #221, .T.);
#219 = VERTEX_POINT('', #220);
#220 = CARTESIAN_POINT('', (0., 0., 60.));
#221 = B_SPLINE_CURVE_WITH_KNOTS('', 1, (#222, #223), .UNSPECIFIED., .F., .U., (2, 2), (0., 60.), .UNSPECIFIED.);
#222 = CARTESIAN_POINT('', (0., 0., 60.));
#223 = CARTESIAN_POINT('', (0., 60., 60.));
#224 = ORIENTED_EDGE('', *, *, #225, .T.);
#225 = EDGE_CURVE('', #219, #171, #226, .T.);
#226 = B_SPLINE_CURVE_WITH_KNOTS('', 1, (#227, #228), .UNSPECIFIED., .F., .U., (2, 2), (0., 15.), .UNSPECIFIED.);
#227 = CARTESIAN_POINT('', (0., 0., 60.));
#228 = CARTESIAN_POINT('', (15., 0., 60.));
#229 = ORIENTED_EDGE('', *, *, #170, .T.);
#230 = ORIENTED_EDGE('', *, *, #204, .F.);
#231 = B_SPLINE_SURFACE_WITH_KNOTS('', 1, 1, ((#232, #233), (#234, #235)), .UNSPECIFIED., .F., .F., .U., (2, 2), (2, 2), (0., 15.), (0., 60.), .UNSPECIFIED.);
#232 = CARTESIAN_POINT('', (0., 0., 60.));
#233 = CARTESIAN_POINT('', (0., 60., 60.));
#234 = CARTESIAN_POINT('', (15., 0., 60.));
#235 = CARTESIAN_POINT('', (15., 60., 60.));
#236 = ADVANCED_FACE('', (#237), #267, .T.);
#237 = FACE_OUTER_BOUND('', #238, .T.);
#238 = EDGE_LOOP('', (#239, #248, #255, #262));
#239 = ORIENTED_EDGE('', *, *, #240, .T.);
#240 = EDGE_CURVE('', #241, #243, #245, .T.);
#241 = VERTEX_POINT('', #242);
#242 = CARTESIAN_POINT('', (0., 80., 0.));
#243 = VERTEX_POINT('', #244);
#244 = CARTESIAN_POINT('', (0., 80., 10.));
#245 = B_SPLINE_CURVE_WITH_KNOTS('', 1, (#246, #247), .UNSPECIFIED., .F., .U., (2, 2), (0., 10.), .UNSPECIFIED.);
#246 = CARTESIAN_POINT('', (0., 80., 0.));
#247 = CARTESIAN_POINT('', (0., 80., 10.));
#248 = ORIENTED_EDGE('', *, *, #249, .T.);
#249 = EDGE_CURVE('', #243, #250, #252, .T.);
#250 = VERTEX_POINT('', #251);
#251 = CARTESIAN_POINT('', (120., 80., 10.));
#252 = B_SPLINE_CURVE_WITH_KNOTS('', 1, (#253, #254), .UNSPECIFIED., .F., .U., (2, 2), (0., 120.), .UNSPECIFIED.);
#253 = CARTESIAN_POINT('', (0., 80., 10.));
#254 = CARTESIAN_POINT('', (120., 80., 10.));
#255 = ORIENTED_EDGE('', *, *, #256, .F.);
#256 = EDGE_CURVE('', #257, #250, #259, .T.);
#257 = VERTEX_POINT('', #258);
#258 = CARTESIAN_POINT('', (120., 80., 0.));
#259 = B_SPLINE_CURVE_WITH_KNOTS('', 1, (#260, #261), .UNSPECIFIED., .F., .U., (2, 2), (0., 10.), .UNSPECIFIED.);
#260 = CARTESIAN_POINT('', (120., 80., 0.));
#261 = CARTESIAN_POINT('', (120., 80., 10.));
#262 = ORIENTED_EDGE('', *, *, #263, .F.);
#263 = EDGE_CURVE('', #241, #257, #264, .T.);
#264 = B_SPLINE_CURVE_WITH_KNOTS('', 1, (#265, #266), .UNSPECIFIED., .F., .U., (2, 2), (0., 120.), .UNSPECIFIED.);
#265 = CARTESIAN_POINT('', (0., 80., 0.));
#266 = CARTESIAN_POINT('', (120., 80., 0.));
#267 = B_SPLINE_SURFACE_WITH_KNOTS('', 1, 1, ((#268, #269), (#270, #271)), .UNSPECIFIED., .F., .F., .U., (2, 2), (2, 2), (0., 10.), (0., 120.), .UNSPECIFIED.);
#268 = CARTESIAN_POINT('', (0., 80., 0.));
#269 = CARTESIAN_POINT('', (120., 80., 0.));
#270 = CARTESIAN_POINT('', (0., 80., 10.));
#271 = CARTESIAN_POINT('', (120., 80., 10.));
#272 = ADVANCED_FACE('', (#273), #303, .T.);
#273 = FACE_OUTER_BOUND('', #274, .T.);
#274 = EDGE_LOOP('', (#275, #285, #290, #291, #298));
#275 = ORIENTED_EDGE('', *, *, #276, .T.);
#276 = EDGE_CURVE('', #277, #279, #281, .T.);
#277 = VERTEX_POINT('', #278);
#278 = CARTESIAN_POINT('', (6., 0., 0.));
#279 = VERTEX_POINT('', #280);
#280 = CARTESIAN_POINT('', (0., 6., 0.));
#281 = (
   BOUNDED_CURVE ()
   B_SPLINE_CURVE (2, (#282, #283, #284), .UNSPECIFIED., .F., .U.)
   B_SPLINE_CURVE_WITH_KNOTS ((3, 3), (0., 1.), .UNSPECIFIED.)
   CURVE ()
   GEOMETRIC_REPRESENTATION_ITEM ()
   RATIONAL_B_SPLINE_CURVE ((1., 0.707106781186548, 1.))
   REPRESENTATION_ITEM ('')
);
#282 = CARTESIAN_POINT('', (6., 0., 0.));
#283 = CARTESIAN_POINT('', (6., 6., 0.));
#284 = CARTESIAN_POINT('', (3.67394039744206E-16, 6., 0.));
#285 = ORIENTED_EDGE('', *, *, #286, .T.);
#286 = EDGE_CURVE('', #279, #241, #287, .T.);
#287 = B_SPLINE_CURVE_WITH_KNOTS('', 1, (#288, #289), .UNSPECIFIED., .F., .U., (2, 2), (6., 80.), .UNSPECIFIED.);
#288 = CARTESIAN_POINT('', (0., 6., 0.));
#289 = CARTESIAN_POINT('', (0., 80., 0.));
#290 = ORIENTED_EDGE('', *, *, #263, .T.);
#291 = ORIENTED_EDGE('', *, *, #292, .F.);
#292 = EDGE_CURVE('', #293, #257, #295, .T.);
#293 = VERTEX_POINT('', #294);
#294 = CARTESIAN_POINT('', (120., 0., 0.));
#295 = B_SPLINE_CURVE_WITH_KNOTS('', 1, (#296, #297), .UNSPECIFIED., .F., .U., (2, 2), (0., 80.), .UNSPECIFIED.);
#296 = CARTESIAN_POINT('', (120., 0., 0.));
#297 = CARTESIAN_POINT('', (120., 80., 0.));
#298 = ORIENTED_EDGE('', *, *, #299, .F.);
#299 = EDGE_CURVE('', #277, #293, #300, .T.);
#300 = B_SPLINE_CURVE_WITH_KNOTS('', 1, (#301, #302), .UNSPECIFIED., .F., .U., (2, 2), (6., 120.), .UNSPECIFIED.);
#301 = CARTESIAN_POINT('', (6., 0., 0.));
#302 = CARTESIAN_POINT('', (120., 0., 0.));
#303 = B_SPLINE_SURFACE_WITH_KNOTS('', 1, 1, ((#304, #305), (#306, #307)), .UNSPECIFIED., .F., .F., .U., (2, 2), (2, 2), (0., 80.), (0., 120.), .UNSPECIFIED.);
#304 = CARTESIAN_POINT('', (0., 0., 0.));
#305 = CARTESIAN_POINT('', (120., 0., 0.));
#306 = CARTESIAN_POINT('', (0., 80., 0.));
#307 = CARTESIAN_POINT('', (120., 80., 0.));
#308 = ADVANCED_FACE('', (#309), #325, .T.);
#309 = FACE_OUTER_BOUND('', #310, .T.);
#310 = EDGE_LOOP('', (#311, #318, #319, #320));
#311 = ORIENTED_EDGE('', *, *, #312, .F.);
#312 = EDGE_CURVE('', #293, #313, #315, .T.);
#313 = VERTEX_POINT('', #314);
#314 = CARTESIAN_POINT('', (120., 0., 10.));
#315 = B_SPLINE_CURVE_WITH_KNOTS('', 1, (#316, #317), .UNSPECIFIED., .F., .U., (2, 2), (0., 10.), .UNSPECIFIED.);
#316 = CARTESIAN_POINT('', (120., 0., 0.));
#317 = CARTESIAN_POINT('', (120., 0., 10.));
#318 = ORIENTED_EDGE('', *, *, #292, .T.);
#319 = ORIENTED_EDGE('', *, *, #256, .T.);
#320 = ORIENTED_EDGE('', *, *, #321, .F.);
#321 = EDGE_CURVE('', #313, #250, #322, .T.);
#322 = B_SPLINE_CURVE_WITH_KNOTS('', 1, (#323, #324), .UNSPECIFIED., .F., .U., (2, 2), (0., 80.), .UNSPECIFIED.);
#323 = CARTESIAN_POINT('', (120., 0., 10.));
#324 = CARTESIAN_POINT('', (120., 80., 10.));
#325 = B_SPLINE_SURFACE_WITH_KNOTS('', 1, 1, ((#326, #327), (#328, #329)), .UNSPECIFIED., .F., .F., .U., (2, 2), (2, 2), (0., 80.), (0., 10.), .UNSPECIFIED.);
#326 = CARTESIAN_POINT('', (120., 0., 0.));
#327 = CARTESIAN_POINT('', (120., 0., 10.));
#328 = CARTESIAN_POINT('', (120., 80., 0.));
#329 = CARTESIAN_POINT('', (120., 80., 10.));
#330 = ADVANCED_FACE('', (#331), #347, .T.);
#331 = FACE_OUTER_BOUND('', #332, .T.);
#332 = EDGE_LOOP('', (#333, #334, #335, #340, #341, #342));
#333 = ORIENTED_EDGE('', *, *, #190, .F.);
#334 = ORIENTED_EDGE('', *, *, #154, .F.);
#335 = ORIENTED_EDGE('', *, *, #336, .T.);
#336 = EDGE_CURVE('', #155, #313, #337, .T.);
#337 = B_SPLINE_CURVE_WITH_KNOTS('', 1, (#338, #339), .UNSPECIFIED., .F., .U., (2, 2), (15., 120.), .UNSPECIFIED.);
#338 = CARTESIAN_POINT('', (15., 0., 10.));
#339 = CARTESIAN_POINT('', (120., 0., 10.));
#340 = ORIENTED_EDGE('', *, *, #321, .T.);
#341 = ORIENTED_EDGE('', *, *, #249, .F.);
#342 = ORIENTED_EDGE('', *, *, #343, .F.);
#343 = EDGE_CURVE('', #191, #243, #344, .T.);
#344 = B_SPLINE_CURVE_WITH_KNOTS('', 1, (#345, #346), .UNSPECIFIED., .F., .U., (2, 2), (60., 80.), .UNSPECIFIED.);
#345 = CARTESIAN_POINT('', (0., 60., 10.));
#346 = CARTESIAN_POINT('', (0., 80., 10.));
#347 = B_SPLINE_SURFACE_WITH_KNOTS('', 1, 1, ((#348, #349), (#350, #351)), .UNSPECIFIED., .F., .F., .U., (2, 2), (2, 2), (0., 120.), (0., 80.), .UNSPECIFIED.);
#348 = CARTESIAN_POINT('', (0., 0., 10.));
#349 = CARTESIAN_POINT('', (0., 80., 10.));
#350 = CARTESIAN_POINT('', (120., 0., 10.));
#351 = CARTESIAN_POINT('', (120., 80., 10.));
#352 = ADVANCED_FACE('', (#353), #379, .T.);
#353 = FACE_OUTER_BOUND('', #354, .T.);
#354 = EDGE_LOOP('', (#355, #364, #369, #370, #371, #372, #373, #374));
#355 = ORIENTED_EDGE('', *, *, #356, .F.);
#356 = EDGE_CURVE('', #357, #359, #361, .T.);
#357 = VERTEX_POINT('', #358);
#358 = CARTESIAN_POINT('', (0., 0., 20.));
#359 = VERTEX_POINT('', #360);
#360 = CARTESIAN_POINT('', (3.67394039744206E-16, 6., 20.));
#361 = B_SPLINE_CURVE_WITH_KNOTS('', 1, (#362, #363), .UNSPECIFIED., .F., .U., (2, 2), (0., 0.642824346533225), .UNSPECIFIED.);
#362 = CARTESIAN_POINT('', (0., 0., 20.));
#363 = CARTESIAN_POINT('', (0., 6., 20.));
#364 = ORIENTED_EDGE('', *, *, #365, .T.);
#365 = EDGE_CURVE('', #357, #219, #366, .T.);
#366 = B_SPLINE_CURVE_WITH_KNOTS('', 1, (#367, #368), .UNSPECIFIED., .F., .U., (2, 2), (20., 60.), .UNSPECIFIED.);
#367 = CARTESIAN_POINT('', (0., 0., 20.));
#368 = CARTESIAN_POINT('', (0., 0., 60.));
#369 = ORIENTED_EDGE('', *, *, #218, .T.);
#370 = ORIENTED_EDGE('', *, *, #197, .F.);
#371 = ORIENTED_EDGE('', *, *, #343, .T.);
#372 = ORIENTED_EDGE('', *, *, #240, .F.);
#373 = ORIENTED_EDGE('', *, *, #286, .F.);
#374 = ORIENTED_EDGE('', *, *, #375, .T.);
#375 = EDGE_CURVE('', #279, #359, #376, .T.);
#376 = B_SPLINE_CURVE_WITH_KNOTS('', 1, (#377, #378), .UNSPECIFIED., .F., .U., (2, 2), (0., 1.), .UNSPECIFIED.);
#377 = CARTESIAN_POINT('', (0., 6., 0.));
#378 = CARTESIAN_POINT('', (0., 6., 20.));
#379 = B_SPLINE_SURFACE_WITH_KNOTS('', 1, 1, ((#380, #381), (#382, #383)), .UNSPECIFIED., .F., .F., .U., (2, 2), (2, 2), (0., 60.), (0., 80.), .UNSPECIFIED.);
#380 = CARTESIAN_POINT('', (0., 0., 0.));
#381 = CARTESIAN_POINT('', (0., 80., 0.));
#382 = CARTESIAN_POINT('', (0., 0., 60.));
#383 = CARTESIAN_POINT('', (0., 80., 60.));
#384 = ADVANCED_FACE('', (#385), #405, .T.);
#385 = FACE_OUTER_BOUND('', #386, .T.);
#386 = EDGE_LOOP('', (#387, #394, #399, #400, #401, #402, #403, #404));
#387 = ORIENTED_EDGE('', *, *, #388, .F.);
#388 = EDGE_CURVE('', #389, #357, #391, .T.);
#389 = VERTEX_POINT('', #390);
#390 = CARTESIAN_POINT('', (6., 0., 20.));
#391 = B_SPLINE_CURVE_WITH_KNOTS('', 1, (#392, #393), .UNSPECIFIED., .F., .U., (2, 2), (0.357175653466774, 1.), .UNSPECIFIED.);
#392 = CARTESIAN_POINT('', (6., 0., 20.));
#393 = CARTESIAN_POINT('', (-1.4210854715202E-14, 0., 20.));
#394 = ORIENTED_EDGE('', *, *, #395, .F.);
#395 = EDGE_CURVE('', #277, #389, #396, .T.);
#396 = B_SPLINE_CURVE_WITH_KNOTS('', 1, (#397, #398), .UNSPECIFIED., .F., .U., (2, 2), (0., 1.), .UNSPECIFIED.);
#397 = CARTESIAN_POINT('', (6., 0., 0.));
#398 = CARTESIAN_POINT('', (6., 0., 20.));
#399 = ORIENTED_EDGE('', *, *, #299, .T.);
#400 = ORIENTED_EDGE('', *, *, #312, .T.);
#401 = ORIENTED_EDGE('', *, *, #336, .F.);
#402 = ORIENTED_EDGE('', *, *, #177, .T.);
#403 = ORIENTED_EDGE('', *, *, #225, .F.);
#404 = ORIENTED_EDGE('', *, *, #365, .F.);
#405 = B_SPLINE_SURFACE_WITH_KNOTS('', 1, 1, ((#406, #407), (#408, #409)), .UNSPECIFIED., .F., .F., .U., (2, 2), (2, 2), (0., 120.), (0., 60.), .UNSPECIFIED.);
#406 = CARTESIAN_POINT('', (0., 0., 0.));
#407 = CARTESIAN_POINT('', (0., 0., 60.));
#408 = CARTESIAN_POINT('', (120., 0., 0.));
#409 = CARTESIAN_POINT('', (120., 0., 60.));
#410 = ADVANCED_FACE('', (#411), #422, .F.);
#411 = FACE_OUTER_BOUND('', #412, .F.);
#412 = EDGE_LOOP('', (#413, #414, #420, #421));
#413 = ORIENTED_EDGE('', *, *, #375, .T.);
#414 = ORIENTED_EDGE('', *, *, #415, .F.);
#415 = EDGE_CURVE('', #389, #359, #416, .T.);
#416 = (
   BOUNDED_CURVE ()
   B_SPLINE_CURVE (2, (#417, #418, #419), .UNSPECIFIED., .F., .U.)
   B_SPLINE_CURVE_WITH_KNOTS ((3, 3), (0., 9.42477796076938), .UNSPECIFIED.)
   CURVE ()
   GEOMETRIC_REPRESENTATION_ITEM ()
   RATIONAL_B_SPLINE_CURVE ((1., 0.707106781186548, 1.))
   REPRESENTATION_ITEM ('')
);
#417 = CARTESIAN_POINT('', (6., 0., 20.));
#418 = CARTESIAN_POINT('', (6., 6., 20.));
#419 = CARTESIAN_POINT('', (3.67394039744206E-16, 6., 20.));
#420 = ORIENTED_EDGE('', *, *, #395, .F.);
#421 = ORIENTED_EDGE('', *, *, #276, .T.);
#422 = (
   BOUNDED_SURFACE ()
   B_SPLINE_SURFACE (2, 1, ((#423, #424), (#425, #426), (#427, #428), (#429, #430), (#431, #432), (#433, #434), (#435, #436), (#437, #438), (#439, #440)), .UNSPECIFIED., .T., .F., .U.)
   B_SPLINE_SURFACE_WITH_KNOTS ((3, 2, 2, 2, 3), (2, 2), (0., 9.42477796076938, 18.8495559215388, 28.2743338823081, 37.6991118430775), (0., 20.), .UNSPECIFIED.)
   GEOMETRIC_REPRESENTATION_ITEM ()
   RATIONAL_B_SPLINE_SURFACE (((1., 1.), (0.707106781186548, 0.707106781186548), (1., 1.), (0.707106781186548, 0.707106781186548), (1., 1.), (0.707106781186548, 0.707106781186548), (1., 1.), (0.707106781186548, 0.707106781186548), (1., 1.)))
   REPRESENTATION_ITEM ('')
   SURFACE ()
);
#423 = CARTESIAN_POINT('', (6., 0., 0.));
#424 = CARTESIAN_POINT('', (6., 0., 20.));
#425 = CARTESIAN_POINT('', (6., 6., 0.));
#426 = CARTESIAN_POINT('', (6., 6., 20.));
#427 = CARTESIAN_POINT('', (3.67394039744206E-16, 6., 0.));
#428 = CARTESIAN_POINT('', (3.67394039744206E-16, 6., 20.));
#429 = CARTESIAN_POINT('', (-6., 6., 0.));
#430 = CARTESIAN_POINT('', (-6., 6., 20.));
#431 = CARTESIAN_POINT('', (-6., 7.34788079488412E-16, 0.));
#432 = CARTESIAN_POINT('', (-6., 7.34788079488412E-16, 20.));
#433 = CARTESIAN_POINT('', (-6., -6., 0.));
#434 = CARTESIAN_POINT('', (-6., -6., 20.));
#435 = CARTESIAN_POINT('', (-1.10218211923262E-15, -6., 0.));
#436 = CARTESIAN_POINT('', (-1.10218211923262E-15, -6., 20.));
#437 = CARTESIAN_POINT('', (6., -6., 0.));
#438 = CARTESIAN_POINT('', (6., -6., 20.));
#439 = CARTESIAN_POINT('', (6., 0., 0.));
#440 = CARTESIAN_POINT('', (6., 0., 20.));
#441 = ADVANCED_FACE('', (#442), #447, .F.);
#442 = FACE_OUTER_BOUND('', #443, .F.);
#443 = EDGE_LOOP('', (#444, #445, #446));
#444 = ORIENTED_EDGE('', *, *, #388, .F.);
#445 = ORIENTED_EDGE('', *, *, #415, .T.);
#446 = ORIENTED_EDGE('', *, *, #356, .F.);
#447 = B_SPLINE_SURFACE_WITH_KNOTS('', 1, 1, ((#448, #449), (#450, #451)), .UNSPECIFIED., .F., .F., .U., (2, 2), (2, 2), (0., 1.), (0., 1.), .UNSPECIFIED.);
#448 = CARTESIAN_POINT('', (9.33380951166243, -9.33380951166243, 20.));
#449 = CARTESIAN_POINT('', (-9.33380951166243, -9.33380951166243, 20.));
#450 = CARTESIAN_POINT('', (9.33380951166243, 9.33380951166243, 20.));
#451 = CARTESIAN_POINT('', (-9.33380951166243, 9.33380951166243, 20.));
#452 = PRESENTATION_STYLE_ASSIGNMENT((#453));
#453 = SURFACE_STYLE_USAGE(.POSITIVE., #454);
#454 = SURFACE_SIDE_STYLE('', (#455));
#455 = SURFACE_STYLE_FILL_AREA(#456);
#456 = FILL_AREA_STYLE('', (#457));
#457 = FILL_AREA_STYLE_COLOUR('', #458);
#458 = COLOUR_RGB('', 0.50196078431373, 0.50196078431373, 0.50196078431373);
#459 = STYLED_ITEM('', (#452), #148);
#460 = CARTESIAN_POINT('Origin', (0., 0., 0.));
#461 = GEOMETRIC_SET('', (#460));
#462 = (
   GEOMETRIC_REPRESENTATION_CONTEXT (3)
   GLOBAL_UNCERTAINTY_ASSIGNED_CONTEXT ((#464))
   GLOBAL_UNIT_ASSIGNED_CONTEXT ((#463, #465, #466))
   REPRESENTATION_CONTEXT ('', '3D')
);
#463 = (
   LENGTH_UNIT ()
   NAMED_UNIT (*)
   SI_UNIT (.MILLI., .METRE.)
);
#464 = UNCERTAINTY_MEASURE_WITH_UNIT(LENGTH_MEASURE(1.E-6), #463, 'DISTANCE_ACCURACY_VALUE', '');
#465 = (
   NAMED_UNIT (*)
   SI_UNIT ($, .STERADIAN.)
   SOLID_ANGLE_UNIT ()
);
#466 = (
   NAMED_UNIT (*)
   PLANE_ANGLE_UNIT ()
   SI_UNIT ($, .RADIAN.)
);
#467 = SHAPE_REPRESENTATION('', (#482), #462);
#468 = PRODUCT_DEFINITION_SHAPE('', '', #469);
#469 = PRODUCT_DEFINITION('', '', #472, #476);
#470 = APPLICATION_CONTEXT('configuration controlled 3D designs of mechanical parts and assemblies');
#471 = APPLICATION_PROTOCOL_DEFINITION('International Standard', 'automotive_design', 2002, #470);
#472 = PRODUCT_DEFINITION_FORMATION_WITH_SPECIFIED_SOURCE('', '', #473, .NOT_KNOWN.);
#473 = PRODUCT('OrderTest', 'OrderTest', '', (#474));
#474 = PRODUCT_CONTEXT('', #470, 'mechanical');
#475 = PRODUCT_RELATED_PRODUCT_CATEGORY('detail', '', (#473));
#476 = PRODUCT_DEFINITION_CONTEXT('part definition', #470, 'design');
#477 = SHAPE_DEFINITION_REPRESENTATION(#468, #467);
#478 = SHAPE_REPRESENTATION_RELATIONSHIP('', '', #467, #479);
#479 = SHAPE_REPRESENTATION('', (#461), #462);
#480 = SHAPE_REPRESENTATION_RELATIONSHIP('', '', #467, #481);
#481 = ADVANCED_BREP_SHAPE_REPRESENTATION('', (#1, #148), #462);
#482 = AXIS2_PLACEMENT_3D('', #483, #484, #485);
#483 = CARTESIAN_POINT('', (0., 0., 0.));
#484 = DIRECTION('', (0., 0., 1.));
#485 = DIRECTION('', (1., 0., 0.));
ENDSEC;
END-ISO-10303-21;
