ISO-10303-21;
HEADER;
FILE_DESCRIPTION(('STEP'), '1');
FILE_NAME('OrderTest', '2026-04-18T07:39:11', (''), (''), 'Express 3.1.2.0', 'Express Tool', 'Unknown');
FILE_SCHEMA(('AUTOMOTIVE_DESIGN'));
ENDSEC;

DATA;
#1 = MANIFOLD_SOLID_BREP('MountHole_0', #2);
#2 = CLOSED_SHELL('', (#3, #59, #68));
#3 = ADVANCED_FACE('', (#4), #40, .T.);
#4 = FACE_OUTER_BOUND('', #5, .T.);
#5 = EDGE_LOOP('', (#6, #15, #27, #28));
#6 = ORIENTED_EDGE('', *, *, #7, .F.);
#7 = EDGE_CURVE('', #8, #10, #12, .T.);
#8 = VERTEX_POINT('', #9);
#9 = CARTESIAN_POINT('', (6., 0., 0.));
#10 = VERTEX_POINT('', #11);
#11 = CARTESIAN_POINT('', (6., 0., 20.));
#12 = B_SPLINE_CURVE_WITH_KNOTS('', 1, (#13, #14), .UNSPECIFIED., .F., .U., (2, 2), (0., 20.), .UNSPECIFIED.);
#13 = CARTESIAN_POINT('', (6., 0., 0.));
#14 = CARTESIAN_POINT('', (6., 0., 20.));
#15 = ORIENTED_EDGE('', *, *, #16, .T.);
#16 = EDGE_CURVE('', #8, #8, #17, .T.);
#17 = (
   BOUNDED_CURVE ()
   B_SPLINE_CURVE (2, (#18, #19, #20, #21, #22, #23, #24, #25, #26), .UNSPECIFIED., .T., .U.)
   B_SPLINE_CURVE_WITH_KNOTS ((3, 2, 2, 2, 3), (0., 9.42477796076938, 18.8495559215388, 28.2743338823081, 37.6991118430775), .UNSPECIFIED.)
   CURVE ()
   GEOMETRIC_REPRESENTATION_ITEM ()
   RATIONAL_B_SPLINE_CURVE ((1., 0.707106781186548, 1., 0.707106781186548, 1., 0.707106781186548, 1., 0.707106781186548, 1.))
   REPRESENTATION_ITEM ('')
);
#18 = CARTESIAN_POINT('', (6., 0., 0.));
#19 = CARTESIAN_POINT('', (6., 6., 0.));
#20 = CARTESIAN_POINT('', (3.67394039744206E-16, 6., 0.));
#21 = CARTESIAN_POINT('', (-6., 6., 0.));
#22 = CARTESIAN_POINT('', (-6., 7.34788079488412E-16, 0.));
#23 = CARTESIAN_POINT('', (-6., -6., 0.));
#24 = CARTESIAN_POINT('', (-1.10218211923262E-15, -6., 0.));
#25 = CARTESIAN_POINT('', (6., -6., 0.));
#26 = CARTESIAN_POINT('', (6., 0., 0.));
#27 = ORIENTED_EDGE('', *, *, #7, .T.);
#28 = ORIENTED_EDGE('', *, *, #29, .F.);
#29 = EDGE_CURVE('', #10, #10, #30, .T.);
#30 = (
   BOUNDED_CURVE ()
   B_SPLINE_CURVE (2, (#31, #32, #33, #34, #35, #36, #37, #38, #39), .UNSPECIFIED., .T., .U.)
   B_SPLINE_CURVE_WITH_KNOTS ((3, 2, 2, 2, 3), (0., 9.42477796076938, 18.8495559215388, 28.2743338823081, 37.6991118430775), .UNSPECIFIED.)
   CURVE ()
   GEOMETRIC_REPRESENTATION_ITEM ()
   RATIONAL_B_SPLINE_CURVE ((1., 0.707106781186548, 1., 0.707106781186548, 1., 0.707106781186548, 1., 0.707106781186548, 1.))
   REPRESENTATION_ITEM ('')
);
#31 = CARTESIAN_POINT('', (6., 0., 20.));
#32 = CARTESIAN_POINT('', (6., 6., 20.));
#33 = CARTESIAN_POINT('', (3.67394039744206E-16, 6., 20.));
#34 = CARTESIAN_POINT('', (-6., 6., 20.));
#35 = CARTESIAN_POINT('', (-6., 7.34788079488412E-16, 20.));
#36 = CARTESIAN_POINT('', (-6., -6., 20.));
#37 = CARTESIAN_POINT('', (-1.10218211923262E-15, -6., 20.));
#38 = CARTESIAN_POINT('', (6., -6., 20.));
#39 = CARTESIAN_POINT('', (6., 0., 20.));
#40 = (
   BOUNDED_SURFACE ()
   B_SPLINE_SURFACE (2, 1, ((#41, #42), (#43, #44), (#45, #46), (#47, #48), (#49, #50), (#51, #52), (#53, #54), (#55, #56), (#57, #58)), .UNSPECIFIED., .T., .F., .U.)
   B_SPLINE_SURFACE_WITH_KNOTS ((3, 2, 2, 2, 3), (2, 2), (0., 9.42477796076938, 18.8495559215388, 28.2743338823081, 37.6991118430775), (0., 20.), .UNSPECIFIED.)
   GEOMETRIC_REPRESENTATION_ITEM ()
   RATIONAL_B_SPLINE_SURFACE (((1., 1.), (0.707106781186548, 0.707106781186548), (1., 1.), (0.707106781186548, 0.707106781186548), (1., 1.), (0.707106781186548, 0.707106781186548), (1., 1.), (0.707106781186548, 0.707106781186548), (1., 1.)))
   REPRESENTATION_ITEM ('')
   SURFACE ()
);
#41 = CARTESIAN_POINT('', (6., 0., 0.));
#42 = CARTESIAN_POINT('', (6., 0., 20.));
#43 = CARTESIAN_POINT('', (6., 6., 0.));
#44 = CARTESIAN_POINT('', (6., 6., 20.));
#45 = CARTESIAN_POINT('', (3.67394039744206E-16, 6., 0.));
#46 = CARTESIAN_POINT('', (3.67394039744206E-16, 6., 20.));
#47 = CARTESIAN_POINT('', (-6., 6., 0.));
#48 = CARTESIAN_POINT('', (-6., 6., 20.));
#49 = CARTESIAN_POINT('', (-6., 7.34788079488412E-16, 0.));
#50 = CARTESIAN_POINT('', (-6., 7.34788079488412E-16, 20.));
#51 = CARTESIAN_POINT('', (-6., -6., 0.));
#52 = CARTESIAN_POINT('', (-6., -6., 20.));
#53 = CARTESIAN_POINT('', (-1.10218211923262E-15, -6., 0.));
#54 = CARTESIAN_POINT('', (-1.10218211923262E-15, -6., 20.));
#55 = CARTESIAN_POINT('', (6., -6., 0.));
#56 = CARTESIAN_POINT('', (6., -6., 20.));
#57 = CARTESIAN_POINT('', (6., 0., 0.));
#58 = CARTESIAN_POINT('', (6., 0., 20.));
#59 = ADVANCED_FACE('', (#60), #63, .T.);
#60 = FACE_OUTER_BOUND('', #61, .T.);
#61 = EDGE_LOOP('', (#62));
#62 = ORIENTED_EDGE('', *, *, #16, .F.);
#63 = B_SPLINE_SURFACE_WITH_KNOTS('', 1, 1, ((#64, #65), (#66, #67)), .UNSPECIFIED., .F., .F., .U., (2, 2), (2, 2), (0., 1.), (0., 1.), .UNSPECIFIED.);
#64 = CARTESIAN_POINT('', (9.33380951166243, -9.33380951166243, 0.));
#65 = CARTESIAN_POINT('', (9.33380951166243, 9.33380951166243, 0.));
#66 = CARTESIAN_POINT('', (-9.33380951166243, -9.33380951166243, 0.));
#67 = CARTESIAN_POINT('', (-9.33380951166243, 9.33380951166243, 0.));
#68 = ADVANCED_FACE('', (#69), #72, .T.);
#69 = FACE_OUTER_BOUND('', #70, .T.);
#70 = EDGE_LOOP('', (#71));
#71 = ORIENTED_EDGE('', *, *, #29, .T.);
#72 = B_SPLINE_SURFACE_WITH_KNOTS('', 1, 1, ((#73, #74), (#75, #76)), .UNSPECIFIED., .F., .F., .U., (2, 2), (2, 2), (0., 1.), (0., 1.), .UNSPECIFIED.);
#73 = CARTESIAN_POINT('', (9.33380951166243, -9.33380951166243, 20.));
#74 = CARTESIAN_POINT('', (-9.33380951166243, -9.33380951166243, 20.));
#75 = CARTESIAN_POINT('', (9.33380951166243, 9.33380951166243, 20.));
#76 = CARTESIAN_POINT('', (-9.33380951166243, 9.33380951166243, 20.));
#77 = DRAUGHTING_MODEL('', (#85, #441), #444);
#78 = PRESENTATION_STYLE_ASSIGNMENT((#79));
#79 = SURFACE_STYLE_USAGE(.POSITIVE., #80);
#80 = SURFACE_SIDE_STYLE('', (#81));
#81 = SURFACE_STYLE_FILL_AREA(#82);
#82 = FILL_AREA_STYLE('', (#83));
#83 = FILL_AREA_STYLE_COLOUR('', #84);
#84 = COLOUR_RGB('', 0.50196078431373, 0.50196078431373, 0.50196078431373);
#85 = STYLED_ITEM('', (#78), #1);
#86 = MANIFOLD_SOLID_BREP('Subtraction_0', #87);
#87 = CLOSED_SHELL('', (#88, #124, #152, #188, #216, #258, #288, #310, #332, #364, #388, #404, #422));
#88 = ADVANCED_FACE('', (#89), #119, .T.);
#89 = FACE_OUTER_BOUND('', #90, .T.);
#90 = EDGE_LOOP('', (#91, #100, #107, #114));
#91 = ORIENTED_EDGE('', *, *, #92, .T.);
#92 = EDGE_CURVE('', #93, #95, #97, .T.);
#93 = VERTEX_POINT('', #94);
#94 = CARTESIAN_POINT('', (15., 60., 10.));
#95 = VERTEX_POINT('', #96);
#96 = CARTESIAN_POINT('', (0., 60., 10.));
#97 = B_SPLINE_CURVE_WITH_KNOTS('', 1, (#98, #99), .UNSPECIFIED., .F., .U., (2, 2), (0., 1.), .UNSPECIFIED.);
#98 = CARTESIAN_POINT('', (15., 60., 10.));
#99 = CARTESIAN_POINT('', (1.4210854715202E-14, 60., 10.));
#100 = ORIENTED_EDGE('', *, *, #101, .T.);
#101 = EDGE_CURVE('', #95, #102, #104, .T.);
#102 = VERTEX_POINT('', #103);
#103 = CARTESIAN_POINT('', (0., 60., 60.));
#104 = B_SPLINE_CURVE_WITH_KNOTS('', 1, (#105, #106), .UNSPECIFIED., .F., .U., (2, 2), (10., 60.), .UNSPECIFIED.);
#105 = CARTESIAN_POINT('', (0., 60., 10.));
#106 = CARTESIAN_POINT('', (0., 60., 60.));
#107 = ORIENTED_EDGE('', *, *, #108, .T.);
#108 = EDGE_CURVE('', #102, #109, #111, .T.);
#109 = VERTEX_POINT('', #110);
#110 = CARTESIAN_POINT('', (15., 60., 60.));
#111 = B_SPLINE_CURVE_WITH_KNOTS('', 1, (#112, #113), .UNSPECIFIED., .F., .U., (2, 2), (0., 15.), .UNSPECIFIED.);
#112 = CARTESIAN_POINT('', (0., 60., 60.));
#113 = CARTESIAN_POINT('', (15., 60., 60.));
#114 = ORIENTED_EDGE('', *, *, #115, .F.);
#115 = EDGE_CURVE('', #93, #109, #116, .T.);
#116 = B_SPLINE_CURVE_WITH_KNOTS('', 1, (#117, #118), .UNSPECIFIED., .F., .U., (2, 2), (10., 60.), .UNSPECIFIED.);
#117 = CARTESIAN_POINT('', (15., 60., 10.));
#118 = CARTESIAN_POINT('', (15., 60., 60.));
#119 = B_SPLINE_SURFACE_WITH_KNOTS('', 1, 1, ((#120, #121), (#122, #123)), .UNSPECIFIED., .F., .F., .U., (2, 2), (2, 2), (0., 60.), (0., 15.), .UNSPECIFIED.);
#120 = CARTESIAN_POINT('', (0., 60., 0.));
#121 = CARTESIAN_POINT('', (15., 60., 0.));
#122 = CARTESIAN_POINT('', (0., 60., 60.));
#123 = CARTESIAN_POINT('', (15., 60., 60.));
#124 = ADVANCED_FACE('', (#125), #147, .T.);
#125 = FACE_OUTER_BOUND('', #126, .T.);
#126 = EDGE_LOOP('', (#127, #134, #141, #146));
#127 = ORIENTED_EDGE('', *, *, #128, .F.);
#128 = EDGE_CURVE('', #129, #102, #131, .T.);
#129 = VERTEX_POINT('', #130);
#130 = CARTESIAN_POINT('', (0., 0., 60.));
#131 = B_SPLINE_CURVE_WITH_KNOTS('', 1, (#132, #133), .UNSPECIFIED., .F., .U., (2, 2), (0., 60.), .UNSPECIFIED.);
#132 = CARTESIAN_POINT('', (0., 0., 60.));
#133 = CARTESIAN_POINT('', (0., 60., 60.));
#134 = ORIENTED_EDGE('', *, *, #135, .T.);
#135 = EDGE_CURVE('', #129, #136, #138, .T.);
#136 = VERTEX_POINT('', #137);
#137 = CARTESIAN_POINT('', (15., 0., 60.));
#138 = B_SPLINE_CURVE_WITH_KNOTS('', 1, (#139, #140), .UNSPECIFIED., .F., .U., (2, 2), (0., 15.), .UNSPECIFIED.);
#139 = CARTESIAN_POINT('', (0., 0., 60.));
#140 = CARTESIAN_POINT('', (15., 0., 60.));
#141 = ORIENTED_EDGE('', *, *, #142, .T.);
#142 = EDGE_CURVE('', #136, #109, #143, .T.);
#143 = B_SPLINE_CURVE_WITH_KNOTS('', 1, (#144, #145), .UNSPECIFIED., .F., .U., (2, 2), (0., 60.), .UNSPECIFIED.);
#144 = CARTESIAN_POINT('', (15., 0., 60.));
#145 = CARTESIAN_POINT('', (15., 60., 60.));
#146 = ORIENTED_EDGE('', *, *, #108, .F.);
#147 = B_SPLINE_SURFACE_WITH_KNOTS('', 1, 1, ((#148, #149), (#150, #151)), .UNSPECIFIED., .F., .F., .U., (2, 2), (2, 2), (0., 15.), (0., 60.), .UNSPECIFIED.);
#148 = CARTESIAN_POINT('', (0., 0., 60.));
#149 = CARTESIAN_POINT('', (0., 60., 60.));
#150 = CARTESIAN_POINT('', (15., 0., 60.));
#151 = CARTESIAN_POINT('', (15., 60., 60.));
#152 = ADVANCED_FACE('', (#153), #183, .T.);
#153 = FACE_OUTER_BOUND('', #154, .T.);
#154 = EDGE_LOOP('', (#155, #164, #171, #178));
#155 = ORIENTED_EDGE('', *, *, #156, .T.);
#156 = EDGE_CURVE('', #157, #159, #161, .T.);
#157 = VERTEX_POINT('', #158);
#158 = CARTESIAN_POINT('', (0., 80., 0.));
#159 = VERTEX_POINT('', #160);
#160 = CARTESIAN_POINT('', (0., 80., 10.));
#161 = B_SPLINE_CURVE_WITH_KNOTS('', 1, (#162, #163), .UNSPECIFIED., .F., .U., (2, 2), (0., 10.), .UNSPECIFIED.);
#162 = CARTESIAN_POINT('', (0., 80., 0.));
#163 = CARTESIAN_POINT('', (0., 80., 10.));
#164 = ORIENTED_EDGE('', *, *, #165, .T.);
#165 = EDGE_CURVE('', #159, #166, #168, .T.);
#166 = VERTEX_POINT('', #167);
#167 = CARTESIAN_POINT('', (120., 80., 10.));
#168 = B_SPLINE_CURVE_WITH_KNOTS('', 1, (#169, #170), .UNSPECIFIED., .F., .U., (2, 2), (0., 120.), .UNSPECIFIED.);
#169 = CARTESIAN_POINT('', (0., 80., 10.));
#170 = CARTESIAN_POINT('', (120., 80., 10.));
#171 = ORIENTED_EDGE('', *, *, #172, .F.);
#172 = EDGE_CURVE('', #173, #166, #175, .T.);
#173 = VERTEX_POINT('', #174);
#174 = CARTESIAN_POINT('', (120., 80., 0.));
#175 = B_SPLINE_CURVE_WITH_KNOTS('', 1, (#176, #177), .UNSPECIFIED., .F., .U., (2, 2), (0., 10.), .UNSPECIFIED.);
#176 = CARTESIAN_POINT('', (120., 80., 0.));
#177 = CARTESIAN_POINT('', (120., 80., 10.));
#178 = ORIENTED_EDGE('', *, *, #179, .F.);
#179 = EDGE_CURVE('', #157, #173, #180, .T.);
#180 = B_SPLINE_CURVE_WITH_KNOTS('', 1, (#181, #182), .UNSPECIFIED., .F., .U., (2, 2), (0., 120.), .UNSPECIFIED.);
#181 = CARTESIAN_POINT('', (0., 80., 0.));
#182 = CARTESIAN_POINT('', (120., 80., 0.));
#183 = B_SPLINE_SURFACE_WITH_KNOTS('', 1, 1, ((#184, #185), (#186, #187)), .UNSPECIFIED., .F., .F., .U., (2, 2), (2, 2), (0., 10.), (0., 120.), .UNSPECIFIED.);
#184 = CARTESIAN_POINT('', (0., 80., 0.));
#185 = CARTESIAN_POINT('', (120., 80., 0.));
#186 = CARTESIAN_POINT('', (0., 80., 10.));
#187 = CARTESIAN_POINT('', (120., 80., 10.));
#188 = ADVANCED_FACE('', (#189), #211, .T.);
#189 = FACE_OUTER_BOUND('', #190, .T.);
#190 = EDGE_LOOP('', (#191, #200, #205, #206));
#191 = ORIENTED_EDGE('', *, *, #192, .F.);
#192 = EDGE_CURVE('', #193, #195, #197, .T.);
#193 = VERTEX_POINT('', #194);
#194 = CARTESIAN_POINT('', (120., 0., 0.));
#195 = VERTEX_POINT('', #196);
#196 = CARTESIAN_POINT('', (120., 0., 10.));
#197 = B_SPLINE_CURVE_WITH_KNOTS('', 1, (#198, #199), .UNSPECIFIED., .F., .U., (2, 2), (0., 10.), .UNSPECIFIED.);
#198 = CARTESIAN_POINT('', (120., 0., 0.));
#199 = CARTESIAN_POINT('', (120., 0., 10.));
#200 = ORIENTED_EDGE('', *, *, #201, .T.);
#201 = EDGE_CURVE('', #193, #173, #202, .T.);
#202 = B_SPLINE_CURVE_WITH_KNOTS('', 1, (#203, #204), .UNSPECIFIED., .F., .U., (2, 2), (0., 80.), .UNSPECIFIED.);
#203 = CARTESIAN_POINT('', (120., 0., 0.));
#204 = CARTESIAN_POINT('', (120., 80., 0.));
#205 = ORIENTED_EDGE('', *, *, #172, .T.);
#206 = ORIENTED_EDGE('', *, *, #207, .F.);
#207 = EDGE_CURVE('', #195, #166, #208, .T.);
#208 = B_SPLINE_CURVE_WITH_KNOTS('', 1, (#209, #210), .UNSPECIFIED., .F., .U., (2, 2), (0., 80.), .UNSPECIFIED.);
#209 = CARTESIAN_POINT('', (120., 0., 10.));
#210 = CARTESIAN_POINT('', (120., 80., 10.));
#211 = B_SPLINE_SURFACE_WITH_KNOTS('', 1, 1, ((#212, #213), (#214, #215)), .UNSPECIFIED., .F., .F., .U., (2, 2), (2, 2), (0., 80.), (0., 10.), .UNSPECIFIED.);
#212 = CARTESIAN_POINT('', (120., 0., 0.));
#213 = CARTESIAN_POINT('', (120., 0., 10.));
#214 = CARTESIAN_POINT('', (120., 80., 0.));
#215 = CARTESIAN_POINT('', (120., 80., 10.));
#216 = ADVANCED_FACE('', (#217), #253, .T.);
#217 = FACE_OUTER_BOUND('', #218, .T.);
#218 = EDGE_LOOP('', (#219, #228, #235, #240, #241, #242, #247, #248));
#219 = ORIENTED_EDGE('', *, *, #220, .T.);
#220 = EDGE_CURVE('', #221, #223, #225, .T.);
#221 = VERTEX_POINT('', #222);
#222 = CARTESIAN_POINT('', (0., 8., 0.));
#223 = VERTEX_POINT('', #224);
#224 = CARTESIAN_POINT('', (0., 8., 20.));
#225 = B_SPLINE_CURVE_WITH_KNOTS('', 1, (#226, #227), .UNSPECIFIED., .F., .U., (2, 2), (0., 20.), .UNSPECIFIED.);
#226 = CARTESIAN_POINT('', (0., 8., 0.));
#227 = CARTESIAN_POINT('', (0., 8., 20.));
#228 = ORIENTED_EDGE('', *, *, #229, .F.);
#229 = EDGE_CURVE('', #230, #223, #232, .T.);
#230 = VERTEX_POINT('', #231);
#231 = CARTESIAN_POINT('', (0., 0., 20.));
#232 = B_SPLINE_CURVE_WITH_KNOTS('', 1, (#233, #234), .UNSPECIFIED., .F., .U., (2, 2), (0., 1.), .UNSPECIFIED.);
#233 = CARTESIAN_POINT('', (0., 0., 20.));
#234 = CARTESIAN_POINT('', (0., 8., 20.));
#235 = ORIENTED_EDGE('', *, *, #236, .T.);
#236 = EDGE_CURVE('', #230, #129, #237, .T.);
#237 = B_SPLINE_CURVE_WITH_KNOTS('', 1, (#238, #239), .UNSPECIFIED., .F., .U., (2, 2), (20., 60.), .UNSPECIFIED.);
#238 = CARTESIAN_POINT('', (0., 0., 20.));
#239 = CARTESIAN_POINT('', (0., 0., 60.));
#240 = ORIENTED_EDGE('', *, *, #128, .T.);
#241 = ORIENTED_EDGE('', *, *, #101, .F.);
#242 = ORIENTED_EDGE('', *, *, #243, .T.);
#243 = EDGE_CURVE('', #95, #159, #244, .T.);
#244 = B_SPLINE_CURVE_WITH_KNOTS('', 1, (#245, #246), .UNSPECIFIED., .F., .U., (2, 2), (60., 80.), .UNSPECIFIED.);
#245 = CARTESIAN_POINT('', (0., 60., 10.));
#246 = CARTESIAN_POINT('', (0., 80., 10.));
#247 = ORIENTED_EDGE('', *, *, #156, .F.);
#248 = ORIENTED_EDGE('', *, *, #249, .F.);
#249 = EDGE_CURVE('', #221, #157, #250, .T.);
#250 = B_SPLINE_CURVE_WITH_KNOTS('', 1, (#251, #252), .UNSPECIFIED., .F., .U., (2, 2), (8., 80.), .UNSPECIFIED.);
#251 = CARTESIAN_POINT('', (0., 8., 0.));
#252 = CARTESIAN_POINT('', (0., 80., 0.));
#253 = B_SPLINE_SURFACE_WITH_KNOTS('', 1, 1, ((#254, #255), (#256, #257)), .UNSPECIFIED., .F., .F., .U., (2, 2), (2, 2), (0., 60.), (0., 80.), .UNSPECIFIED.);
#254 = CARTESIAN_POINT('', (0., 0., 0.));
#255 = CARTESIAN_POINT('', (0., 80., 0.));
#256 = CARTESIAN_POINT('', (0., 0., 60.));
#257 = CARTESIAN_POINT('', (0., 80., 60.));
#258 = ADVANCED_FACE('', (#259), #283, .T.);
#259 = FACE_OUTER_BOUND('', #260, .T.);
#260 = EDGE_LOOP('', (#261, #270, #275, #276, #277, #278));
#261 = ORIENTED_EDGE('', *, *, #262, .T.);
#262 = EDGE_CURVE('', #263, #265, #267, .T.);
#263 = VERTEX_POINT('', #264);
#264 = CARTESIAN_POINT('', (30., 0., 0.));
#265 = VERTEX_POINT('', #266);
#266 = CARTESIAN_POINT('', (30., 8., 0.));
#267 = B_SPLINE_CURVE_WITH_KNOTS('', 1, (#268, #269), .UNSPECIFIED., .F., .U., (2, 2), (0., 8.), .UNSPECIFIED.);
#268 = CARTESIAN_POINT('', (30., 0., 0.));
#269 = CARTESIAN_POINT('', (30., 8., 0.));
#270 = ORIENTED_EDGE('', *, *, #271, .F.);
#271 = EDGE_CURVE('', #221, #265, #272, .T.);
#272 = B_SPLINE_CURVE_WITH_KNOTS('', 1, (#273, #274), .UNSPECIFIED., .F., .U., (2, 2), (0., 30.), .UNSPECIFIED.);
#273 = CARTESIAN_POINT('', (0., 8., 0.));
#274 = CARTESIAN_POINT('', (30., 8., 0.));
#275 = ORIENTED_EDGE('', *, *, #249, .T.);
#276 = ORIENTED_EDGE('', *, *, #179, .T.);
#277 = ORIENTED_EDGE('', *, *, #201, .F.);
#278 = ORIENTED_EDGE('', *, *, #279, .F.);
#279 = EDGE_CURVE('', #263, #193, #280, .T.);
#280 = B_SPLINE_CURVE_WITH_KNOTS('', 1, (#281, #282), .UNSPECIFIED., .F., .U., (2, 2), (30., 120.), .UNSPECIFIED.);
#281 = CARTESIAN_POINT('', (30., 0., 0.));
#282 = CARTESIAN_POINT('', (120., 0., 0.));
#283 = B_SPLINE_SURFACE_WITH_KNOTS('', 1, 1, ((#284, #285), (#286, #287)), .UNSPECIFIED., .F., .F., .U., (2, 2), (2, 2), (0., 80.), (0., 120.), .UNSPECIFIED.);
#284 = CARTESIAN_POINT('', (0., 0., 0.));
#285 = CARTESIAN_POINT('', (120., 0., 0.));
#286 = CARTESIAN_POINT('', (0., 80., 0.));
#287 = CARTESIAN_POINT('', (120., 80., 0.));
#288 = ADVANCED_FACE('', (#289), #305, .T.);
#289 = FACE_OUTER_BOUND('', #290, .T.);
#290 = EDGE_LOOP('', (#291, #298, #303, #304));
#291 = ORIENTED_EDGE('', *, *, #292, .F.);
#292 = EDGE_CURVE('', #293, #230, #295, .T.);
#293 = VERTEX_POINT('', #294);
#294 = CARTESIAN_POINT('', (15., 0., 20.));
#295 = B_SPLINE_CURVE_WITH_KNOTS('', 1, (#296, #297), .UNSPECIFIED., .F., .U., (2, 2), (0.5, 1.), .UNSPECIFIED.);
#296 = CARTESIAN_POINT('', (15., 0., 20.));
#297 = CARTESIAN_POINT('', (0., 0., 20.));
#298 = ORIENTED_EDGE('', *, *, #299, .T.);
#299 = EDGE_CURVE('', #293, #136, #300, .T.);
#300 = B_SPLINE_CURVE_WITH_KNOTS('', 1, (#301, #302), .UNSPECIFIED., .F., .U., (2, 2), (20., 60.), .UNSPECIFIED.);
#301 = CARTESIAN_POINT('', (15., 0., 20.));
#302 = CARTESIAN_POINT('', (15., 0., 60.));
#303 = ORIENTED_EDGE('', *, *, #135, .F.);
#304 = ORIENTED_EDGE('', *, *, #236, .F.);
#305 = B_SPLINE_SURFACE_WITH_KNOTS('', 1, 1, ((#306, #307), (#308, #309)), .UNSPECIFIED., .F., .F., .U., (2, 2), (2, 2), (0., 120.), (0., 60.), .UNSPECIFIED.);
#306 = CARTESIAN_POINT('', (0., 0., 0.));
#307 = CARTESIAN_POINT('', (0., 0., 60.));
#308 = CARTESIAN_POINT('', (120., 0., 0.));
#309 = CARTESIAN_POINT('', (120., 0., 60.));
#310 = ADVANCED_FACE('', (#311), #327, .T.);
#311 = FACE_OUTER_BOUND('', #312, .T.);
#312 = EDGE_LOOP('', (#313, #320, #321, #322));
#313 = ORIENTED_EDGE('', *, *, #314, .F.);
#314 = EDGE_CURVE('', #263, #315, #317, .T.);
#315 = VERTEX_POINT('', #316);
#316 = CARTESIAN_POINT('', (30., 0., 10.));
#317 = B_SPLINE_CURVE_WITH_KNOTS('', 1, (#318, #319), .UNSPECIFIED., .F., .U., (2, 2), (0., 0.5), .UNSPECIFIED.);
#318 = CARTESIAN_POINT('', (30., 0., 0.));
#319 = CARTESIAN_POINT('', (30., 0., 10.));
#320 = ORIENTED_EDGE('', *, *, #279, .T.);
#321 = ORIENTED_EDGE('', *, *, #192, .T.);
#322 = ORIENTED_EDGE('', *, *, #323, .F.);
#323 = EDGE_CURVE('', #315, #195, #324, .T.);
#324 = B_SPLINE_CURVE_WITH_KNOTS('', 1, (#325, #326), .UNSPECIFIED., .F., .U., (2, 2), (30., 120.), .UNSPECIFIED.);
#325 = CARTESIAN_POINT('', (30., 0., 10.));
#326 = CARTESIAN_POINT('', (120., 0., 10.));
#327 = B_SPLINE_SURFACE_WITH_KNOTS('', 1, 1, ((#328, #329), (#330, #331)), .UNSPECIFIED., .F., .F., .U., (2, 2), (2, 2), (0., 120.), (0., 60.), .UNSPECIFIED.);
#328 = CARTESIAN_POINT('', (0., 0., 0.));
#329 = CARTESIAN_POINT('', (0., 0., 60.));
#330 = CARTESIAN_POINT('', (120., 0., 0.));
#331 = CARTESIAN_POINT('', (120., 0., 60.));
#332 = ADVANCED_FACE('', (#333), #359, .T.);
#333 = FACE_OUTER_BOUND('', #334, .T.);
#334 = EDGE_LOOP('', (#335, #344, #349, #350, #351, #352, #353, #354));
#335 = ORIENTED_EDGE('', *, *, #336, .F.);
#336 = EDGE_CURVE('', #337, #339, #341, .T.);
#337 = VERTEX_POINT('', #338);
#338 = CARTESIAN_POINT('', (30., 8., 10.));
#339 = VERTEX_POINT('', #340);
#340 = CARTESIAN_POINT('', (15., 8., 10.));
#341 = B_SPLINE_CURVE_WITH_KNOTS('', 1, (#342, #343), .UNSPECIFIED., .F., .U., (2, 2), (0., 0.5), .UNSPECIFIED.);
#342 = CARTESIAN_POINT('', (30., 8., 10.));
#343 = CARTESIAN_POINT('', (15., 8., 10.));
#344 = ORIENTED_EDGE('', *, *, #345, .F.);
#345 = EDGE_CURVE('', #315, #337, #346, .T.);
#346 = B_SPLINE_CURVE_WITH_KNOTS('', 1, (#347, #348), .UNSPECIFIED., .F., .U., (2, 2), (0., 1.), .UNSPECIFIED.);
#347 = CARTESIAN_POINT('', (30., 1.4210854715202E-14, 10.));
#348 = CARTESIAN_POINT('', (30., 8., 10.));
#349 = ORIENTED_EDGE('', *, *, #323, .T.);
#350 = ORIENTED_EDGE('', *, *, #207, .T.);
#351 = ORIENTED_EDGE('', *, *, #165, .F.);
#352 = ORIENTED_EDGE('', *, *, #243, .F.);
#353 = ORIENTED_EDGE('', *, *, #92, .F.);
#354 = ORIENTED_EDGE('', *, *, #355, .F.);
#355 = EDGE_CURVE('', #339, #93, #356, .T.);
#356 = B_SPLINE_CURVE_WITH_KNOTS('', 1, (#357, #358), .UNSPECIFIED., .F., .U., (2, 2), (0.133333333333333, 1.), .UNSPECIFIED.);
#357 = CARTESIAN_POINT('', (15., 8., 10.));
#358 = CARTESIAN_POINT('', (15., 60., 10.));
#359 = B_SPLINE_SURFACE_WITH_KNOTS('', 1, 1, ((#360, #361), (#362, #363)), .UNSPECIFIED., .F., .F., .U., (2, 2), (2, 2), (0., 120.), (0., 80.), .UNSPECIFIED.);
#360 = CARTESIAN_POINT('', (0., 0., 10.));
#361 = CARTESIAN_POINT('', (0., 80., 10.));
#362 = CARTESIAN_POINT('', (120., 0., 10.));
#363 = CARTESIAN_POINT('', (120., 80., 10.));
#364 = ADVANCED_FACE('', (#365), #383, .T.);
#365 = FACE_OUTER_BOUND('', #366, .T.);
#366 = EDGE_LOOP('', (#367, #374, #375, #376, #377, #378));
#367 = ORIENTED_EDGE('', *, *, #368, .F.);
#368 = EDGE_CURVE('', #339, #369, #371, .T.);
#369 = VERTEX_POINT('', #370);
#370 = CARTESIAN_POINT('', (15., 8., 20.));
#371 = B_SPLINE_CURVE_WITH_KNOTS('', 1, (#372, #373), .UNSPECIFIED., .F., .U., (2, 2), (0., 1.), .UNSPECIFIED.);
#372 = CARTESIAN_POINT('', (15., 8., 9.99999999999999));
#373 = CARTESIAN_POINT('', (15., 8., 20.));
#374 = ORIENTED_EDGE('', *, *, #355, .T.);
#375 = ORIENTED_EDGE('', *, *, #115, .T.);
#376 = ORIENTED_EDGE('', *, *, #142, .F.);
#377 = ORIENTED_EDGE('', *, *, #299, .F.);
#378 = ORIENTED_EDGE('', *, *, #379, .F.);
#379 = EDGE_CURVE('', #369, #293, #380, .T.);
#380 = B_SPLINE_CURVE_WITH_KNOTS('', 1, (#381, #382), .UNSPECIFIED., .F., .U., (2, 2), (0., 1.), .UNSPECIFIED.);
#381 = CARTESIAN_POINT('', (15., 8., 20.));
#382 = CARTESIAN_POINT('', (15., -8.88178419700125E-16, 20.));
#383 = B_SPLINE_SURFACE_WITH_KNOTS('', 1, 1, ((#384, #385), (#386, #387)), .UNSPECIFIED., .F., .F., .U., (2, 2), (2, 2), (0., 60.), (0., 60.), .UNSPECIFIED.);
#384 = CARTESIAN_POINT('', (15., 0., 0.));
#385 = CARTESIAN_POINT('', (15., 0., 60.));
#386 = CARTESIAN_POINT('', (15., 60., 0.));
#387 = CARTESIAN_POINT('', (15., 60., 60.));
#388 = ADVANCED_FACE('', (#389), #399, .F.);
#389 = FACE_OUTER_BOUND('', #390, .F.);
#390 = EDGE_LOOP('', (#391, #392, #397, #398));
#391 = ORIENTED_EDGE('', *, *, #379, .F.);
#392 = ORIENTED_EDGE('', *, *, #393, .F.);
#393 = EDGE_CURVE('', #223, #369, #394, .T.);
#394 = B_SPLINE_CURVE_WITH_KNOTS('', 1, (#395, #396), .UNSPECIFIED., .F., .U., (2, 2), (0., 15.), .UNSPECIFIED.);
#395 = CARTESIAN_POINT('', (0., 8., 20.));
#396 = CARTESIAN_POINT('', (15., 8., 20.));
#397 = ORIENTED_EDGE('', *, *, #229, .F.);
#398 = ORIENTED_EDGE('', *, *, #292, .F.);
#399 = B_SPLINE_SURFACE_WITH_KNOTS('', 1, 1, ((#400, #401), (#402, #403)), .UNSPECIFIED., .F., .F., .U., (2, 2), (2, 2), (0., 30.), (0., 8.), .UNSPECIFIED.);
#400 = CARTESIAN_POINT('', (0., 0., 20.));
#401 = CARTESIAN_POINT('', (0., 8., 20.));
#402 = CARTESIAN_POINT('', (30., 0., 20.));
#403 = CARTESIAN_POINT('', (30., 8., 20.));
#404 = ADVANCED_FACE('', (#405), #417, .F.);
#405 = FACE_OUTER_BOUND('', #406, .F.);
#406 = EDGE_LOOP('', (#407, #408, #409, #414, #415, #416));
#407 = ORIENTED_EDGE('', *, *, #368, .F.);
#408 = ORIENTED_EDGE('', *, *, #336, .F.);
#409 = ORIENTED_EDGE('', *, *, #410, .F.);
#410 = EDGE_CURVE('', #265, #337, #411, .T.);
#411 = B_SPLINE_CURVE_WITH_KNOTS('', 1, (#412, #413), .UNSPECIFIED., .F., .U., (2, 2), (0., 10.), .UNSPECIFIED.);
#412 = CARTESIAN_POINT('', (30., 8., 0.));
#413 = CARTESIAN_POINT('', (30., 8., 10.));
#414 = ORIENTED_EDGE('', *, *, #271, .F.);
#415 = ORIENTED_EDGE('', *, *, #220, .T.);
#416 = ORIENTED_EDGE('', *, *, #393, .T.);
#417 = B_SPLINE_SURFACE_WITH_KNOTS('', 1, 1, ((#418, #419), (#420, #421)), .UNSPECIFIED., .F., .F., .U., (2, 2), (2, 2), (0., 20.), (0., 30.), .UNSPECIFIED.);
#418 = CARTESIAN_POINT('', (0., 8., 0.));
#419 = CARTESIAN_POINT('', (30., 8., 0.));
#420 = CARTESIAN_POINT('', (0., 8., 20.));
#421 = CARTESIAN_POINT('', (30., 8., 20.));
#422 = ADVANCED_FACE('', (#423), #429, .F.);
#423 = FACE_OUTER_BOUND('', #424, .F.);
#424 = EDGE_LOOP('', (#425, #426, #427, #428));
#425 = ORIENTED_EDGE('', *, *, #345, .F.);
#426 = ORIENTED_EDGE('', *, *, #314, .F.);
#427 = ORIENTED_EDGE('', *, *, #262, .T.);
#428 = ORIENTED_EDGE('', *, *, #410, .T.);
#429 = B_SPLINE_SURFACE_WITH_KNOTS('', 1, 1, ((#430, #431), (#432, #433)), .UNSPECIFIED., .F., .F., .U., (2, 2), (2, 2), (0., 8.), (0., 20.), .UNSPECIFIED.);
#430 = CARTESIAN_POINT('', (30., 0., 0.));
#431 = CARTESIAN_POINT('', (30., 0., 20.));
#432 = CARTESIAN_POINT('', (30., 8., 0.));
#433 = CARTESIAN_POINT('', (30., 8., 20.));
#434 = PRESENTATION_STYLE_ASSIGNMENT((#435));
#435 = SURFACE_STYLE_USAGE(.POSITIVE., #436);
#436 = SURFACE_SIDE_STYLE('', (#437));
#437 = SURFACE_STYLE_FILL_AREA(#438);
#438 = FILL_AREA_STYLE('', (#439));
#439 = FILL_AREA_STYLE_COLOUR('', #440);
#440 = COLOUR_RGB('', 0.50196078431373, 0.50196078431373, 0.50196078431373);
#441 = STYLED_ITEM('', (#434), #86);
#442 = CARTESIAN_POINT('Origin', (0., 0., 0.));
#443 = GEOMETRIC_SET('', (#442));
#444 = (
   GEOMETRIC_REPRESENTATION_CONTEXT (3)
   GLOBAL_UNCERTAINTY_ASSIGNED_CONTEXT ((#446))
   GLOBAL_UNIT_ASSIGNED_CONTEXT ((#445, #447, #448))
   REPRESENTATION_CONTEXT ('', '3D')
);
#445 = (
   LENGTH_UNIT ()
   NAMED_UNIT (*)
   SI_UNIT (.MILLI., .METRE.)
);
#446 = UNCERTAINTY_MEASURE_WITH_UNIT(LENGTH_MEASURE(1.E-6), #445, 'DISTANCE_ACCURACY_VALUE', '');
#447 = (
   NAMED_UNIT (*)
   SI_UNIT ($, .STERADIAN.)
   SOLID_ANGLE_UNIT ()
);
#448 = (
   NAMED_UNIT (*)
   PLANE_ANGLE_UNIT ()
   SI_UNIT ($, .RADIAN.)
);
#449 = SHAPE_REPRESENTATION('', (#464), #444);
#450 = PRODUCT_DEFINITION_SHAPE('', '', #451);
#451 = PRODUCT_DEFINITION('', '', #454, #458);
#452 = APPLICATION_CONTEXT('configuration controlled 3D designs of mechanical parts and assemblies');
#453 = APPLICATION_PROTOCOL_DEFINITION('International Standard', 'automotive_design', 2002, #452);
#454 = PRODUCT_DEFINITION_FORMATION_WITH_SPECIFIED_SOURCE('', '', #455, .NOT_KNOWN.);
#455 = PRODUCT('OrderTest', 'OrderTest', '', (#456));
#456 = PRODUCT_CONTEXT('', #452, 'mechanical');
#457 = PRODUCT_RELATED_PRODUCT_CATEGORY('detail', '', (#455));
#458 = PRODUCT_DEFINITION_CONTEXT('part definition', #452, 'design');
#459 = SHAPE_DEFINITION_REPRESENTATION(#450, #449);
#460 = SHAPE_REPRESENTATION_RELATIONSHIP('', '', #449, #461);
#461 = SHAPE_REPRESENTATION('', (#443), #444);
#462 = SHAPE_REPRESENTATION_RELATIONSHIP('', '', #449, #463);
#463 = ADVANCED_BREP_SHAPE_REPRESENTATION('', (#1, #86), #444);
#464 = AXIS2_PLACEMENT_3D('', #465, #466, #467);
#465 = CARTESIAN_POINT('', (0., 0., 0.));
#466 = DIRECTION('', (0., 0., 1.));
#467 = DIRECTION('', (1., 0., 0.));
ENDSEC;
END-ISO-10303-21;
