ISO-10303-21;
HEADER;
FILE_DESCRIPTION(('STEP'), '1');
FILE_NAME('BoolTest', '2026-03-20T13:01:38', (''), (''), 'Express 3.1.2.0', 'Express Tool', 'Unknown');
FILE_SCHEMA(('AUTOMOTIVE_DESIGN'));
ENDSEC;

DATA;
#1 = MANIFOLD_SOLID_BREP('Union_0', #2);
#2 = CLOSED_SHELL('', (#3, #53, #95, #123, #139, #155, #193, #221, #243, #259, #275));
#3 = ADVANCED_FACE('', (#4), #48, .T.);
#4 = FACE_OUTER_BOUND('', #5, .T.);
#5 = EDGE_LOOP('', (#6, #15, #22, #29, #36, #43));
#6 = ORIENTED_EDGE('', *, *, #7, .T.);
#7 = EDGE_CURVE('', #8, #10, #12, .T.);
#8 = VERTEX_POINT('', #9);
#9 = CARTESIAN_POINT('', (30., 100., 60.));
#10 = VERTEX_POINT('', #11);
#11 = CARTESIAN_POINT('', (30., 30., 60.));
#12 = B_SPLINE_CURVE_WITH_KNOTS('', 1, (#13, #14), .UNSPECIFIED., .F., .U., (2, 2), (0.125, 1.), .UNSPECIFIED.);
#13 = CARTESIAN_POINT('', (30., 100., 60.));
#14 = CARTESIAN_POINT('', (30., 30., 60.));
#15 = ORIENTED_EDGE('', *, *, #16, .T.);
#16 = EDGE_CURVE('', #10, #17, #19, .T.);
#17 = VERTEX_POINT('', #18);
#18 = CARTESIAN_POINT('', (30., 30., 80.));
#19 = B_SPLINE_CURVE_WITH_KNOTS('', 1, (#20, #21), .UNSPECIFIED., .F., .U., (2, 2), (0.75, 1.), .UNSPECIFIED.);
#20 = CARTESIAN_POINT('', (30., 30., 60.));
#21 = CARTESIAN_POINT('', (30., 30., 80.));
#22 = ORIENTED_EDGE('', *, *, #23, .F.);
#23 = EDGE_CURVE('', #24, #17, #26, .T.);
#24 = VERTEX_POINT('', #25);
#25 = CARTESIAN_POINT('', (30., 110., 80.));
#26 = B_SPLINE_CURVE_WITH_KNOTS('', 1, (#27, #28), .UNSPECIFIED., .F., .U., (2, 2), (0., 1.), .UNSPECIFIED.);
#27 = CARTESIAN_POINT('', (30., 110., 80.));
#28 = CARTESIAN_POINT('', (30., 30., 80.));
#29 = ORIENTED_EDGE('', *, *, #30, .F.);
#30 = EDGE_CURVE('', #31, #24, #33, .T.);
#31 = VERTEX_POINT('', #32);
#32 = CARTESIAN_POINT('', (30., 110., 0.));
#33 = B_SPLINE_CURVE_WITH_KNOTS('', 1, (#34, #35), .UNSPECIFIED., .F., .U., (2, 2), (0., 1.), .UNSPECIFIED.);
#34 = CARTESIAN_POINT('', (30., 110., 0.));
#35 = CARTESIAN_POINT('', (30., 110., 80.));
#36 = ORIENTED_EDGE('', *, *, #37, .T.);
#37 = EDGE_CURVE('', #31, #38, #40, .T.);
#38 = VERTEX_POINT('', #39);
#39 = CARTESIAN_POINT('', (30., 100., 0.));
#40 = B_SPLINE_CURVE_WITH_KNOTS('', 1, (#41, #42), .UNSPECIFIED., .F., .U., (2, 2), (0., 0.125), .UNSPECIFIED.);
#41 = CARTESIAN_POINT('', (30., 110., 0.));
#42 = CARTESIAN_POINT('', (30., 100., 0.));
#43 = ORIENTED_EDGE('', *, *, #44, .T.);
#44 = EDGE_CURVE('', #38, #8, #45, .T.);
#45 = B_SPLINE_CURVE_WITH_KNOTS('', 1, (#46, #47), .UNSPECIFIED., .F., .U., (2, 2), (0., 1.), .UNSPECIFIED.);
#46 = CARTESIAN_POINT('', (30., 100., 0.));
#47 = CARTESIAN_POINT('', (30., 100., 60.));
#48 = B_SPLINE_SURFACE_WITH_KNOTS('', 1, 1, ((#49, #50), (#51, #52)), .UNSPECIFIED., .F., .F., .U., (2, 2), (2, 2), (0., 1.), (0., 1.), .UNSPECIFIED.);
#49 = CARTESIAN_POINT('', (30., 110., 0.));
#50 = CARTESIAN_POINT('', (30., 110., 80.));
#51 = CARTESIAN_POINT('', (30., 30., 0.));
#52 = CARTESIAN_POINT('', (30., 30., 80.));
#53 = ADVANCED_FACE('', (#54), #90, .T.);
#54 = FACE_OUTER_BOUND('', #55, .T.);
#55 = EDGE_LOOP('', (#56, #63, #70, #77, #84, #89));
#56 = ORIENTED_EDGE('', *, *, #57, .T.);
#57 = EDGE_CURVE('', #10, #58, #60, .T.);
#58 = VERTEX_POINT('', #59);
#59 = CARTESIAN_POINT('', (100., 30., 60.));
#60 = B_SPLINE_CURVE_WITH_KNOTS('', 1, (#61, #62), .UNSPECIFIED., .F., .U., (2, 2), (0., 0.875), .UNSPECIFIED.);
#61 = CARTESIAN_POINT('', (30., 30., 60.));
#62 = CARTESIAN_POINT('', (100., 30., 60.));
#63 = ORIENTED_EDGE('', *, *, #64, .T.);
#64 = EDGE_CURVE('', #58, #65, #67, .T.);
#65 = VERTEX_POINT('', #66);
#66 = CARTESIAN_POINT('', (100., 30., 0.));
#67 = B_SPLINE_CURVE_WITH_KNOTS('', 1, (#68, #69), .UNSPECIFIED., .F., .U., (2, 2), (0., 1.), .UNSPECIFIED.);
#68 = CARTESIAN_POINT('', (100., 30., 60.));
#69 = CARTESIAN_POINT('', (100., 30., 7.105427357601E-15));
#70 = ORIENTED_EDGE('', *, *, #71, .T.);
#71 = EDGE_CURVE('', #65, #72, #74, .T.);
#72 = VERTEX_POINT('', #73);
#73 = CARTESIAN_POINT('', (110., 30., 0.));
#74 = B_SPLINE_CURVE_WITH_KNOTS('', 1, (#75, #76), .UNSPECIFIED., .F., .U., (2, 2), (0.875, 1.), .UNSPECIFIED.);
#75 = CARTESIAN_POINT('', (100., 30., 0.));
#76 = CARTESIAN_POINT('', (110., 30., 0.));
#77 = ORIENTED_EDGE('', *, *, #78, .T.);
#78 = EDGE_CURVE('', #72, #79, #81, .T.);
#79 = VERTEX_POINT('', #80);
#80 = CARTESIAN_POINT('', (110., 30., 80.));
#81 = B_SPLINE_CURVE_WITH_KNOTS('', 1, (#82, #83), .UNSPECIFIED., .F., .U., (2, 2), (0., 1.), .UNSPECIFIED.);
#82 = CARTESIAN_POINT('', (110., 30., 0.));
#83 = CARTESIAN_POINT('', (110., 30., 80.));
#84 = ORIENTED_EDGE('', *, *, #85, .F.);
#85 = EDGE_CURVE('', #17, #79, #86, .T.);
#86 = B_SPLINE_CURVE_WITH_KNOTS('', 1, (#87, #88), .UNSPECIFIED., .F., .U., (2, 2), (0., 1.), .UNSPECIFIED.);
#87 = CARTESIAN_POINT('', (30., 30., 80.));
#88 = CARTESIAN_POINT('', (110., 30., 80.));
#89 = ORIENTED_EDGE('', *, *, #16, .F.);
#90 = B_SPLINE_SURFACE_WITH_KNOTS('', 1, 1, ((#91, #92), (#93, #94)), .UNSPECIFIED., .F., .F., .U., (2, 2), (2, 2), (0., 1.), (0., 1.), .UNSPECIFIED.);
#91 = CARTESIAN_POINT('', (30., 30., 0.));
#92 = CARTESIAN_POINT('', (30., 30., 80.));
#93 = CARTESIAN_POINT('', (110., 30., 0.));
#94 = CARTESIAN_POINT('', (110., 30., 80.));
#95 = ADVANCED_FACE('', (#96), #118, .T.);
#96 = FACE_OUTER_BOUND('', #97, .T.);
#97 = EDGE_LOOP('', (#98, #107, #112, #113));
#98 = ORIENTED_EDGE('', *, *, #99, .F.);
#99 = EDGE_CURVE('', #100, #102, #104, .T.);
#100 = VERTEX_POINT('', #101);
#101 = CARTESIAN_POINT('', (110., 110., 0.));
#102 = VERTEX_POINT('', #103);
#103 = CARTESIAN_POINT('', (110., 110., 80.));
#104 = B_SPLINE_CURVE_WITH_KNOTS('', 1, (#105, #106), .UNSPECIFIED., .F., .U., (2, 2), (0., 1.), .UNSPECIFIED.);
#105 = CARTESIAN_POINT('', (110., 110., 0.));
#106 = CARTESIAN_POINT('', (110., 110., 80.));
#107 = ORIENTED_EDGE('', *, *, #108, .T.);
#108 = EDGE_CURVE('', #100, #31, #109, .T.);
#109 = B_SPLINE_CURVE_WITH_KNOTS('', 1, (#110, #111), .UNSPECIFIED., .F., .U., (2, 2), (0., 1.), .UNSPECIFIED.);
#110 = CARTESIAN_POINT('', (110., 110., 0.));
#111 = CARTESIAN_POINT('', (30., 110., 0.));
#112 = ORIENTED_EDGE('', *, *, #30, .T.);
#113 = ORIENTED_EDGE('', *, *, #114, .F.);
#114 = EDGE_CURVE('', #102, #24, #115, .T.);
#115 = B_SPLINE_CURVE_WITH_KNOTS('', 1, (#116, #117), .UNSPECIFIED., .F., .U., (2, 2), (0., 1.), .UNSPECIFIED.);
#116 = CARTESIAN_POINT('', (110., 110., 80.));
#117 = CARTESIAN_POINT('', (30., 110., 80.));
#118 = B_SPLINE_SURFACE_WITH_KNOTS('', 1, 1, ((#119, #120), (#121, #122)), .UNSPECIFIED., .F., .F., .U., (2, 2), (2, 2), (0., 1.), (0., 1.), .UNSPECIFIED.);
#119 = CARTESIAN_POINT('', (110., 110., 0.));
#120 = CARTESIAN_POINT('', (110., 110., 80.));
#121 = CARTESIAN_POINT('', (30., 110., 0.));
#122 = CARTESIAN_POINT('', (30., 110., 80.));
#123 = ADVANCED_FACE('', (#124), #134, .T.);
#124 = FACE_OUTER_BOUND('', #125, .T.);
#125 = EDGE_LOOP('', (#126, #127, #128, #133));
#126 = ORIENTED_EDGE('', *, *, #23, .T.);
#127 = ORIENTED_EDGE('', *, *, #85, .T.);
#128 = ORIENTED_EDGE('', *, *, #129, .T.);
#129 = EDGE_CURVE('', #79, #102, #130, .T.);
#130 = B_SPLINE_CURVE_WITH_KNOTS('', 1, (#131, #132), .UNSPECIFIED., .F., .U., (2, 2), (0., 1.), .UNSPECIFIED.);
#131 = CARTESIAN_POINT('', (110., 30., 80.));
#132 = CARTESIAN_POINT('', (110., 110., 80.));
#133 = ORIENTED_EDGE('', *, *, #114, .T.);
#134 = B_SPLINE_SURFACE_WITH_KNOTS('', 1, 1, ((#135, #136), (#137, #138)), .UNSPECIFIED., .F., .F., .U., (2, 2), (2, 2), (0., 1.), (0., 1.), .UNSPECIFIED.);
#135 = CARTESIAN_POINT('', (132.225396744416, 7.77460325558381, 80.));
#136 = CARTESIAN_POINT('', (7.77460325558381, 7.77460325558381, 80.));
#137 = CARTESIAN_POINT('', (132.225396744416, 132.225396744416, 80.));
#138 = CARTESIAN_POINT('', (7.77460325558381, 132.225396744416, 80.));
#139 = ADVANCED_FACE('', (#140), #150, .T.);
#140 = FACE_OUTER_BOUND('', #141, .T.);
#141 = EDGE_LOOP('', (#142, #143, #148, #149));
#142 = ORIENTED_EDGE('', *, *, #78, .F.);
#143 = ORIENTED_EDGE('', *, *, #144, .T.);
#144 = EDGE_CURVE('', #72, #100, #145, .T.);
#145 = B_SPLINE_CURVE_WITH_KNOTS('', 1, (#146, #147), .UNSPECIFIED., .F., .U., (2, 2), (0., 1.), .UNSPECIFIED.);
#146 = CARTESIAN_POINT('', (110., 30., 0.));
#147 = CARTESIAN_POINT('', (110., 110., 0.));
#148 = ORIENTED_EDGE('', *, *, #99, .T.);
#149 = ORIENTED_EDGE('', *, *, #129, .F.);
#150 = B_SPLINE_SURFACE_WITH_KNOTS('', 1, 1, ((#151, #152), (#153, #154)), .UNSPECIFIED., .F., .F., .U., (2, 2), (2, 2), (0., 1.), (0., 1.), .UNSPECIFIED.);
#151 = CARTESIAN_POINT('', (110., 30., 0.));
#152 = CARTESIAN_POINT('', (110., 30., 80.));
#153 = CARTESIAN_POINT('', (110., 110., 0.));
#154 = CARTESIAN_POINT('', (110., 110., 80.));
#155 = ADVANCED_FACE('', (#156), #188, .T.);
#156 = FACE_OUTER_BOUND('', #157, .T.);
#157 = EDGE_LOOP('', (#158, #165, #166, #167, #168, #169, #176, #183));
#158 = ORIENTED_EDGE('', *, *, #159, .F.);
#159 = EDGE_CURVE('', #38, #160, #162, .T.);
#160 = VERTEX_POINT('', #161);
#161 = CARTESIAN_POINT('', (0., 100., 0.));
#162 = B_SPLINE_CURVE_WITH_KNOTS('', 1, (#163, #164), .UNSPECIFIED., .F., .U., (2, 2), (0.7, 1.), .UNSPECIFIED.);
#163 = CARTESIAN_POINT('', (30., 100., 0.));
#164 = CARTESIAN_POINT('', (0., 100., 0.));
#165 = ORIENTED_EDGE('', *, *, #37, .F.);
#166 = ORIENTED_EDGE('', *, *, #108, .F.);
#167 = ORIENTED_EDGE('', *, *, #144, .F.);
#168 = ORIENTED_EDGE('', *, *, #71, .F.);
#169 = ORIENTED_EDGE('', *, *, #170, .F.);
#170 = EDGE_CURVE('', #171, #65, #173, .T.);
#171 = VERTEX_POINT('', #172);
#172 = CARTESIAN_POINT('', (100., 0., 0.));
#173 = B_SPLINE_CURVE_WITH_KNOTS('', 1, (#174, #175), .UNSPECIFIED., .F., .U., (2, 2), (0., 0.3), .UNSPECIFIED.);
#174 = CARTESIAN_POINT('', (100., 0., 0.));
#175 = CARTESIAN_POINT('', (100., 30., 0.));
#176 = ORIENTED_EDGE('', *, *, #177, .F.);
#177 = EDGE_CURVE('', #178, #171, #180, .T.);
#178 = VERTEX_POINT('', #179);
#179 = CARTESIAN_POINT('', (0., 0., 0.));
#180 = B_SPLINE_CURVE_WITH_KNOTS('', 1, (#181, #182), .UNSPECIFIED., .F., .U., (2, 2), (0., 1.), .UNSPECIFIED.);
#181 = CARTESIAN_POINT('', (0., 0., 0.));
#182 = CARTESIAN_POINT('', (100., 0., 0.));
#183 = ORIENTED_EDGE('', *, *, #184, .F.);
#184 = EDGE_CURVE('', #160, #178, #185, .T.);
#185 = B_SPLINE_CURVE_WITH_KNOTS('', 1, (#186, #187), .UNSPECIFIED., .F., .U., (2, 2), (0., 1.), .UNSPECIFIED.);
#186 = CARTESIAN_POINT('', (0., 100., 0.));
#187 = CARTESIAN_POINT('', (0., 0., 0.));
#188 = B_SPLINE_SURFACE_WITH_KNOTS('', 1, 1, ((#189, #190), (#191, #192)), .UNSPECIFIED., .F., .F., .U., (2, 2), (2, 2), (-0.0285648693066449, 1.), (0., 1.02856486930664), .UNSPECIFIED.);
#189 = CARTESIAN_POINT('', (132.225396744416, -27.7817459305202, 0.));
#190 = CARTESIAN_POINT('', (132.225396744416, 132.225396744416, 0.));
#191 = CARTESIAN_POINT('', (-27.7817459305202, -27.7817459305202, 0.));
#192 = CARTESIAN_POINT('', (-27.7817459305202, 132.225396744416, 0.));
#193 = ADVANCED_FACE('', (#194), #216, .T.);
#194 = FACE_OUTER_BOUND('', #195, .T.);
#195 = EDGE_LOOP('', (#196, #203, #204, #211));
#196 = ORIENTED_EDGE('', *, *, #197, .F.);
#197 = EDGE_CURVE('', #160, #198, #200, .T.);
#198 = VERTEX_POINT('', #199);
#199 = CARTESIAN_POINT('', (0., 100., 60.));
#200 = B_SPLINE_CURVE_WITH_KNOTS('', 1, (#201, #202), .UNSPECIFIED., .F., .U., (2, 2), (0., 1.), .UNSPECIFIED.);
#201 = CARTESIAN_POINT('', (0., 100., 0.));
#202 = CARTESIAN_POINT('', (0., 100., 60.));
#203 = ORIENTED_EDGE('', *, *, #184, .T.);
#204 = ORIENTED_EDGE('', *, *, #205, .T.);
#205 = EDGE_CURVE('', #178, #206, #208, .T.);
#206 = VERTEX_POINT('', #207);
#207 = CARTESIAN_POINT('', (0., 0., 60.));
#208 = B_SPLINE_CURVE_WITH_KNOTS('', 1, (#209, #210), .UNSPECIFIED., .F., .U., (2, 2), (0., 1.), .UNSPECIFIED.);
#209 = CARTESIAN_POINT('', (0., 0., 0.));
#210 = CARTESIAN_POINT('', (0., 0., 60.));
#211 = ORIENTED_EDGE('', *, *, #212, .F.);
#212 = EDGE_CURVE('', #198, #206, #213, .T.);
#213 = B_SPLINE_CURVE_WITH_KNOTS('', 1, (#214, #215), .UNSPECIFIED., .F., .U., (2, 2), (0., 1.), .UNSPECIFIED.);
#214 = CARTESIAN_POINT('', (0., 100., 60.));
#215 = CARTESIAN_POINT('', (0., 0., 60.));
#216 = B_SPLINE_SURFACE_WITH_KNOTS('', 1, 1, ((#217, #218), (#219, #220)), .UNSPECIFIED., .F., .F., .U., (2, 2), (2, 2), (0., 1.), (0., 1.), .UNSPECIFIED.);
#217 = CARTESIAN_POINT('', (0., 100., 0.));
#218 = CARTESIAN_POINT('', (0., 100., 60.));
#219 = CARTESIAN_POINT('', (0., 0., 0.));
#220 = CARTESIAN_POINT('', (0., 0., 60.));
#221 = ADVANCED_FACE('', (#222), #238, .T.);
#222 = FACE_OUTER_BOUND('', #223, .T.);
#223 = EDGE_LOOP('', (#224, #225, #226, #233));
#224 = ORIENTED_EDGE('', *, *, #205, .F.);
#225 = ORIENTED_EDGE('', *, *, #177, .T.);
#226 = ORIENTED_EDGE('', *, *, #227, .T.);
#227 = EDGE_CURVE('', #171, #228, #230, .T.);
#228 = VERTEX_POINT('', #229);
#229 = CARTESIAN_POINT('', (100., 0., 60.));
#230 = B_SPLINE_CURVE_WITH_KNOTS('', 1, (#231, #232), .UNSPECIFIED., .F., .U., (2, 2), (0., 1.), .UNSPECIFIED.);
#231 = CARTESIAN_POINT('', (100., 0., 0.));
#232 = CARTESIAN_POINT('', (100., 0., 60.));
#233 = ORIENTED_EDGE('', *, *, #234, .F.);
#234 = EDGE_CURVE('', #206, #228, #235, .T.);
#235 = B_SPLINE_CURVE_WITH_KNOTS('', 1, (#236, #237), .UNSPECIFIED., .F., .U., (2, 2), (0., 1.), .UNSPECIFIED.);
#236 = CARTESIAN_POINT('', (0., 0., 60.));
#237 = CARTESIAN_POINT('', (100., 0., 60.));
#238 = B_SPLINE_SURFACE_WITH_KNOTS('', 1, 1, ((#239, #240), (#241, #242)), .UNSPECIFIED., .F., .F., .U., (2, 2), (2, 2), (0., 1.), (0., 1.), .UNSPECIFIED.);
#239 = CARTESIAN_POINT('', (0., 0., 0.));
#240 = CARTESIAN_POINT('', (0., 0., 60.));
#241 = CARTESIAN_POINT('', (100., 0., 0.));
#242 = CARTESIAN_POINT('', (100., 0., 60.));
#243 = ADVANCED_FACE('', (#244), #254, .T.);
#244 = FACE_OUTER_BOUND('', #245, .T.);
#245 = EDGE_LOOP('', (#246, #247, #252, #253));
#246 = ORIENTED_EDGE('', *, *, #64, .F.);
#247 = ORIENTED_EDGE('', *, *, #248, .F.);
#248 = EDGE_CURVE('', #228, #58, #249, .T.);
#249 = B_SPLINE_CURVE_WITH_KNOTS('', 1, (#250, #251), .UNSPECIFIED., .F., .U., (2, 2), (0., 0.3), .UNSPECIFIED.);
#250 = CARTESIAN_POINT('', (100., 0., 60.));
#251 = CARTESIAN_POINT('', (100., 30., 60.));
#252 = ORIENTED_EDGE('', *, *, #227, .F.);
#253 = ORIENTED_EDGE('', *, *, #170, .T.);
#254 = B_SPLINE_SURFACE_WITH_KNOTS('', 1, 1, ((#255, #256), (#257, #258)), .UNSPECIFIED., .F., .F., .U., (2, 2), (2, 2), (0., 1.), (0., 1.), .UNSPECIFIED.);
#255 = CARTESIAN_POINT('', (100., 0., 0.));
#256 = CARTESIAN_POINT('', (100., 0., 60.));
#257 = CARTESIAN_POINT('', (100., 100., 0.));
#258 = CARTESIAN_POINT('', (100., 100., 60.));
#259 = ADVANCED_FACE('', (#260), #270, .T.);
#260 = FACE_OUTER_BOUND('', #261, .T.);
#261 = EDGE_LOOP('', (#262, #263, #264, #265));
#262 = ORIENTED_EDGE('', *, *, #44, .F.);
#263 = ORIENTED_EDGE('', *, *, #159, .T.);
#264 = ORIENTED_EDGE('', *, *, #197, .T.);
#265 = ORIENTED_EDGE('', *, *, #266, .F.);
#266 = EDGE_CURVE('', #8, #198, #267, .T.);
#267 = B_SPLINE_CURVE_WITH_KNOTS('', 1, (#268, #269), .UNSPECIFIED., .F., .U., (2, 2), (0.7, 1.), .UNSPECIFIED.);
#268 = CARTESIAN_POINT('', (30., 100., 60.));
#269 = CARTESIAN_POINT('', (0., 100., 60.));
#270 = B_SPLINE_SURFACE_WITH_KNOTS('', 1, 1, ((#271, #272), (#273, #274)), .UNSPECIFIED., .F., .F., .U., (2, 2), (2, 2), (0., 1.), (0., 1.), .UNSPECIFIED.);
#271 = CARTESIAN_POINT('', (100., 100., 0.));
#272 = CARTESIAN_POINT('', (100., 100., 60.));
#273 = CARTESIAN_POINT('', (0., 100., 0.));
#274 = CARTESIAN_POINT('', (0., 100., 60.));
#275 = ADVANCED_FACE('', (#276), #284, .T.);
#276 = FACE_OUTER_BOUND('', #277, .T.);
#277 = EDGE_LOOP('', (#278, #279, #280, #281, #282, #283));
#278 = ORIENTED_EDGE('', *, *, #7, .F.);
#279 = ORIENTED_EDGE('', *, *, #266, .T.);
#280 = ORIENTED_EDGE('', *, *, #212, .T.);
#281 = ORIENTED_EDGE('', *, *, #234, .T.);
#282 = ORIENTED_EDGE('', *, *, #248, .T.);
#283 = ORIENTED_EDGE('', *, *, #57, .F.);
#284 = B_SPLINE_SURFACE_WITH_KNOTS('', 1, 1, ((#285, #286), (#287, #288)), .UNSPECIFIED., .F., .F., .U., (2, 2), (2, 2), (0., 1.), (0., 1.), .UNSPECIFIED.);
#285 = CARTESIAN_POINT('', (127.78174593052, -27.7817459305202, 60.));
#286 = CARTESIAN_POINT('', (-27.7817459305202, -27.7817459305202, 60.));
#287 = CARTESIAN_POINT('', (127.78174593052, 127.78174593052, 60.));
#288 = CARTESIAN_POINT('', (-27.7817459305202, 127.78174593052, 60.));
#289 = DRAUGHTING_MODEL('', (#297), #300);
#290 = PRESENTATION_STYLE_ASSIGNMENT((#291));
#291 = SURFACE_STYLE_USAGE(.POSITIVE., #292);
#292 = SURFACE_SIDE_STYLE('', (#293));
#293 = SURFACE_STYLE_FILL_AREA(#294);
#294 = FILL_AREA_STYLE('', (#295));
#295 = FILL_AREA_STYLE_COLOUR('', #296);
#296 = COLOUR_RGB('', 0.50196078431373, 0.50196078431373, 0.50196078431373);
#297 = STYLED_ITEM('', (#290), #1);
#298 = CARTESIAN_POINT('Origin', (0., 0., 0.));
#299 = GEOMETRIC_SET('', (#298));
#300 = (
   GEOMETRIC_REPRESENTATION_CONTEXT (3)
   GLOBAL_UNCERTAINTY_ASSIGNED_CONTEXT ((#302))
   GLOBAL_UNIT_ASSIGNED_CONTEXT ((#301, #303, #304))
   REPRESENTATION_CONTEXT ('', '3D')
);
#301 = (
   LENGTH_UNIT ()
   NAMED_UNIT (*)
   SI_UNIT (.MILLI., .METRE.)
);
#302 = UNCERTAINTY_MEASURE_WITH_UNIT(LENGTH_MEASURE(1.E-6), #301, 'DISTANCE_ACCURACY_VALUE', '');
#303 = (
   NAMED_UNIT (*)
   SI_UNIT ($, .STERADIAN.)
   SOLID_ANGLE_UNIT ()
);
#304 = (
   NAMED_UNIT (*)
   PLANE_ANGLE_UNIT ()
   SI_UNIT ($, .RADIAN.)
);
#305 = SHAPE_REPRESENTATION('', (#320), #300);
#306 = PRODUCT_DEFINITION_SHAPE('', '', #307);
#307 = PRODUCT_DEFINITION('', '', #310, #314);
#308 = APPLICATION_CONTEXT('configuration controlled 3D designs of mechanical parts and assemblies');
#309 = APPLICATION_PROTOCOL_DEFINITION('International Standard', 'automotive_design', 2002, #308);
#310 = PRODUCT_DEFINITION_FORMATION_WITH_SPECIFIED_SOURCE('', '', #311, .NOT_KNOWN.);
#311 = PRODUCT('BoolTest', 'BoolTest', '', (#312));
#312 = PRODUCT_CONTEXT('', #308, 'mechanical');
#313 = PRODUCT_RELATED_PRODUCT_CATEGORY('detail', '', (#311));
#314 = PRODUCT_DEFINITION_CONTEXT('part definition', #308, 'design');
#315 = SHAPE_DEFINITION_REPRESENTATION(#306, #305);
#316 = SHAPE_REPRESENTATION_RELATIONSHIP('', '', #305, #317);
#317 = SHAPE_REPRESENTATION('', (#299), #300);
#318 = SHAPE_REPRESENTATION_RELATIONSHIP('', '', #305, #319);
#319 = ADVANCED_BREP_SHAPE_REPRESENTATION('', (#1), #300);
#320 = AXIS2_PLACEMENT_3D('', #321, #322, #323);
#321 = CARTESIAN_POINT('', (0., 0., 0.));
#322 = DIRECTION('', (0., 0., 1.));
#323 = DIRECTION('', (1., 0., 0.));
ENDSEC;
END-ISO-10303-21;
