ISO-10303-21;
HEADER;
FILE_DESCRIPTION(('STEP'), '1');
FILE_NAME('NamedBool', '2026-03-20T13:04:47', (''), (''), 'Express 3.1.2.0', 'Express Tool', 'Unknown');
FILE_SCHEMA(('AUTOMOTIVE_DESIGN'));
ENDSEC;

DATA;
#1 = MANIFOLD_SOLID_BREP('MyCustomUnion_0', #2);
#2 = CLOSED_SHELL('', (#3, #39, #67, #95, #115, #127, #169, #205, #225, #241, #257));
#3 = ADVANCED_FACE('', (#4), #34, .T.);
#4 = FACE_OUTER_BOUND('', #5, .T.);
#5 = EDGE_LOOP('', (#6, #15, #22, #29));
#6 = ORIENTED_EDGE('', *, *, #7, .T.);
#7 = EDGE_CURVE('', #8, #10, #12, .T.);
#8 = VERTEX_POINT('', #9);
#9 = CARTESIAN_POINT('', (70., 30., 60.));
#10 = VERTEX_POINT('', #11);
#11 = CARTESIAN_POINT('', (70., 70., 60.));
#12 = B_SPLINE_CURVE_WITH_KNOTS('', 1, (#13, #14), .UNSPECIFIED., .F., .U., (2, 2), (0., 1.), .UNSPECIFIED.);
#13 = CARTESIAN_POINT('', (70., 30., 60.));
#14 = CARTESIAN_POINT('', (70., 70., 60.));
#15 = ORIENTED_EDGE('', *, *, #16, .T.);
#16 = EDGE_CURVE('', #10, #17, #19, .T.);
#17 = VERTEX_POINT('', #18);
#18 = CARTESIAN_POINT('', (70., 70., 80.));
#19 = B_SPLINE_CURVE_WITH_KNOTS('', 1, (#20, #21), .UNSPECIFIED., .F., .U., (2, 2), (0.75, 1.), .UNSPECIFIED.);
#20 = CARTESIAN_POINT('', (70., 70., 60.));
#21 = CARTESIAN_POINT('', (70., 70., 80.));
#22 = ORIENTED_EDGE('', *, *, #23, .F.);
#23 = EDGE_CURVE('', #24, #17, #26, .T.);
#24 = VERTEX_POINT('', #25);
#25 = CARTESIAN_POINT('', (70., 30., 80.));
#26 = B_SPLINE_CURVE_WITH_KNOTS('', 1, (#27, #28), .UNSPECIFIED., .F., .U., (2, 2), (0., 1.), .UNSPECIFIED.);
#27 = CARTESIAN_POINT('', (70., 30., 80.));
#28 = CARTESIAN_POINT('', (70., 70., 80.));
#29 = ORIENTED_EDGE('', *, *, #30, .F.);
#30 = EDGE_CURVE('', #8, #24, #31, .T.);
#31 = B_SPLINE_CURVE_WITH_KNOTS('', 1, (#32, #33), .UNSPECIFIED., .F., .U., (2, 2), (0.75, 1.), .UNSPECIFIED.);
#32 = CARTESIAN_POINT('', (70., 30., 60.));
#33 = CARTESIAN_POINT('', (70., 30., 80.));
#34 = B_SPLINE_SURFACE_WITH_KNOTS('', 1, 1, ((#35, #36), (#37, #38)), .UNSPECIFIED., .F., .F., .U., (2, 2), (2, 2), (0., 1.), (0., 1.), .UNSPECIFIED.);
#35 = CARTESIAN_POINT('', (70., 30., 0.));
#36 = CARTESIAN_POINT('', (70., 30., 80.));
#37 = CARTESIAN_POINT('', (70., 70., 0.));
#38 = CARTESIAN_POINT('', (70., 70., 80.));
#39 = ADVANCED_FACE('', (#40), #62, .T.);
#40 = FACE_OUTER_BOUND('', #41, .T.);
#41 = EDGE_LOOP('', (#42, #49, #56, #61));
#42 = ORIENTED_EDGE('', *, *, #43, .T.);
#43 = EDGE_CURVE('', #10, #44, #46, .T.);
#44 = VERTEX_POINT('', #45);
#45 = CARTESIAN_POINT('', (30., 70., 60.));
#46 = B_SPLINE_CURVE_WITH_KNOTS('', 1, (#47, #48), .UNSPECIFIED., .F., .U., (2, 2), (0., 1.), .UNSPECIFIED.);
#47 = CARTESIAN_POINT('', (70., 70., 60.));
#48 = CARTESIAN_POINT('', (30., 70., 60.));
#49 = ORIENTED_EDGE('', *, *, #50, .T.);
#50 = EDGE_CURVE('', #44, #51, #53, .T.);
#51 = VERTEX_POINT('', #52);
#52 = CARTESIAN_POINT('', (30., 70., 80.));
#53 = B_SPLINE_CURVE_WITH_KNOTS('', 1, (#54, #55), .UNSPECIFIED., .F., .U., (2, 2), (0.75, 1.), .UNSPECIFIED.);
#54 = CARTESIAN_POINT('', (30., 70., 60.));
#55 = CARTESIAN_POINT('', (30., 70., 80.));
#56 = ORIENTED_EDGE('', *, *, #57, .F.);
#57 = EDGE_CURVE('', #17, #51, #58, .T.);
#58 = B_SPLINE_CURVE_WITH_KNOTS('', 1, (#59, #60), .UNSPECIFIED., .F., .U., (2, 2), (0., 1.), .UNSPECIFIED.);
#59 = CARTESIAN_POINT('', (70., 70., 80.));
#60 = CARTESIAN_POINT('', (30., 70., 80.));
#61 = ORIENTED_EDGE('', *, *, #16, .F.);
#62 = B_SPLINE_SURFACE_WITH_KNOTS('', 1, 1, ((#63, #64), (#65, #66)), .UNSPECIFIED., .F., .F., .U., (2, 2), (2, 2), (0., 1.), (0., 1.), .UNSPECIFIED.);
#63 = CARTESIAN_POINT('', (70., 70., 0.));
#64 = CARTESIAN_POINT('', (70., 70., 80.));
#65 = CARTESIAN_POINT('', (30., 70., 0.));
#66 = CARTESIAN_POINT('', (30., 70., 80.));
#67 = ADVANCED_FACE('', (#68), #90, .T.);
#68 = FACE_OUTER_BOUND('', #69, .T.);
#69 = EDGE_LOOP('', (#70, #77, #84, #89));
#70 = ORIENTED_EDGE('', *, *, #71, .T.);
#71 = EDGE_CURVE('', #44, #72, #74, .T.);
#72 = VERTEX_POINT('', #73);
#73 = CARTESIAN_POINT('', (30., 30., 60.));
#74 = B_SPLINE_CURVE_WITH_KNOTS('', 1, (#75, #76), .UNSPECIFIED., .F., .U., (2, 2), (0., 1.), .UNSPECIFIED.);
#75 = CARTESIAN_POINT('', (30., 70., 60.));
#76 = CARTESIAN_POINT('', (30., 30., 60.));
#77 = ORIENTED_EDGE('', *, *, #78, .T.);
#78 = EDGE_CURVE('', #72, #79, #81, .T.);
#79 = VERTEX_POINT('', #80);
#80 = CARTESIAN_POINT('', (30., 30., 80.));
#81 = B_SPLINE_CURVE_WITH_KNOTS('', 1, (#82, #83), .UNSPECIFIED., .F., .U., (2, 2), (0.75, 1.), .UNSPECIFIED.);
#82 = CARTESIAN_POINT('', (30., 30., 60.));
#83 = CARTESIAN_POINT('', (30., 30., 80.));
#84 = ORIENTED_EDGE('', *, *, #85, .F.);
#85 = EDGE_CURVE('', #51, #79, #86, .T.);
#86 = B_SPLINE_CURVE_WITH_KNOTS('', 1, (#87, #88), .UNSPECIFIED., .F., .U., (2, 2), (0., 1.), .UNSPECIFIED.);
#87 = CARTESIAN_POINT('', (30., 70., 80.));
#88 = CARTESIAN_POINT('', (30., 30., 80.));
#89 = ORIENTED_EDGE('', *, *, #50, .F.);
#90 = B_SPLINE_SURFACE_WITH_KNOTS('', 1, 1, ((#91, #92), (#93, #94)), .UNSPECIFIED., .F., .F., .U., (2, 2), (2, 2), (0., 1.), (0., 1.), .UNSPECIFIED.);
#91 = CARTESIAN_POINT('', (30., 70., 0.));
#92 = CARTESIAN_POINT('', (30., 70., 80.));
#93 = CARTESIAN_POINT('', (30., 30., 0.));
#94 = CARTESIAN_POINT('', (30., 30., 80.));
#95 = ADVANCED_FACE('', (#96), #110, .T.);
#96 = FACE_OUTER_BOUND('', #97, .T.);
#97 = EDGE_LOOP('', (#98, #103, #104, #109));
#98 = ORIENTED_EDGE('', *, *, #99, .T.);
#99 = EDGE_CURVE('', #72, #8, #100, .T.);
#100 = B_SPLINE_CURVE_WITH_KNOTS('', 1, (#101, #102), .UNSPECIFIED., .F., .U., (2, 2), (0., 1.), .UNSPECIFIED.);
#101 = CARTESIAN_POINT('', (30., 30., 60.));
#102 = CARTESIAN_POINT('', (70., 30., 60.));
#103 = ORIENTED_EDGE('', *, *, #30, .T.);
#104 = ORIENTED_EDGE('', *, *, #105, .F.);
#105 = EDGE_CURVE('', #79, #24, #106, .T.);
#106 = B_SPLINE_CURVE_WITH_KNOTS('', 1, (#107, #108), .UNSPECIFIED., .F., .U., (2, 2), (0., 1.), .UNSPECIFIED.);
#107 = CARTESIAN_POINT('', (30., 30., 80.));
#108 = CARTESIAN_POINT('', (70., 30., 80.));
#109 = ORIENTED_EDGE('', *, *, #78, .F.);
#110 = B_SPLINE_SURFACE_WITH_KNOTS('', 1, 1, ((#111, #112), (#113, #114)), .UNSPECIFIED., .F., .F., .U., (2, 2), (2, 2), (0., 1.), (0., 1.), .UNSPECIFIED.);
#111 = CARTESIAN_POINT('', (30., 30., 0.));
#112 = CARTESIAN_POINT('', (30., 30., 80.));
#113 = CARTESIAN_POINT('', (70., 30., 0.));
#114 = CARTESIAN_POINT('', (70., 30., 80.));
#115 = ADVANCED_FACE('', (#116), #122, .T.);
#116 = FACE_OUTER_BOUND('', #117, .T.);
#117 = EDGE_LOOP('', (#118, #119, #120, #121));
#118 = ORIENTED_EDGE('', *, *, #85, .T.);
#119 = ORIENTED_EDGE('', *, *, #105, .T.);
#120 = ORIENTED_EDGE('', *, *, #23, .T.);
#121 = ORIENTED_EDGE('', *, *, #57, .T.);
#122 = B_SPLINE_SURFACE_WITH_KNOTS('', 1, 1, ((#123, #124), (#125, #126)), .UNSPECIFIED., .F., .F., .U., (2, 2), (2, 2), (0., 1.), (0., 1.), .UNSPECIFIED.);
#123 = CARTESIAN_POINT('', (81.1126983722081, 18.8873016277919, 80.));
#124 = CARTESIAN_POINT('', (18.8873016277919, 18.8873016277919, 80.));
#125 = CARTESIAN_POINT('', (81.1126983722081, 81.1126983722081, 80.));
#126 = CARTESIAN_POINT('', (18.8873016277919, 81.1126983722081, 80.));
#127 = ADVANCED_FACE('', (#128, #158), #164, .T.);
#128 = FACE_OUTER_BOUND('', #129, .T.);
#129 = EDGE_LOOP('', (#130, #139, #146, #153));
#130 = ORIENTED_EDGE('', *, *, #131, .T.);
#131 = EDGE_CURVE('', #132, #134, #136, .T.);
#132 = VERTEX_POINT('', #133);
#133 = CARTESIAN_POINT('', (0., 100., 60.));
#134 = VERTEX_POINT('', #135);
#135 = CARTESIAN_POINT('', (0., 0., 60.));
#136 = B_SPLINE_CURVE_WITH_KNOTS('', 1, (#137, #138), .UNSPECIFIED., .F., .U., (2, 2), (0., 1.), .UNSPECIFIED.);
#137 = CARTESIAN_POINT('', (0., 100., 60.));
#138 = CARTESIAN_POINT('', (0., 0., 60.));
#139 = ORIENTED_EDGE('', *, *, #140, .T.);
#140 = EDGE_CURVE('', #134, #141, #143, .T.);
#141 = VERTEX_POINT('', #142);
#142 = CARTESIAN_POINT('', (100., 0., 60.));
#143 = B_SPLINE_CURVE_WITH_KNOTS('', 1, (#144, #145), .UNSPECIFIED., .F., .U., (2, 2), (0., 1.), .UNSPECIFIED.);
#144 = CARTESIAN_POINT('', (0., 0., 60.));
#145 = CARTESIAN_POINT('', (100., 0., 60.));
#146 = ORIENTED_EDGE('', *, *, #147, .T.);
#147 = EDGE_CURVE('', #141, #148, #150, .T.);
#148 = VERTEX_POINT('', #149);
#149 = CARTESIAN_POINT('', (100., 100., 60.));
#150 = B_SPLINE_CURVE_WITH_KNOTS('', 1, (#151, #152), .UNSPECIFIED., .F., .U., (2, 2), (0., 1.), .UNSPECIFIED.);
#151 = CARTESIAN_POINT('', (100., 0., 60.));
#152 = CARTESIAN_POINT('', (100., 100., 60.));
#153 = ORIENTED_EDGE('', *, *, #154, .T.);
#154 = EDGE_CURVE('', #148, #132, #155, .T.);
#155 = B_SPLINE_CURVE_WITH_KNOTS('', 1, (#156, #157), .UNSPECIFIED., .F., .U., (2, 2), (0., 1.), .UNSPECIFIED.);
#156 = CARTESIAN_POINT('', (100., 100., 60.));
#157 = CARTESIAN_POINT('', (0., 100., 60.));
#158 = FACE_BOUND('', #159, .T.);
#159 = EDGE_LOOP('', (#160, #161, #162, #163));
#160 = ORIENTED_EDGE('', *, *, #71, .F.);
#161 = ORIENTED_EDGE('', *, *, #43, .F.);
#162 = ORIENTED_EDGE('', *, *, #7, .F.);
#163 = ORIENTED_EDGE('', *, *, #99, .F.);
#164 = B_SPLINE_SURFACE_WITH_KNOTS('', 1, 1, ((#165, #166), (#167, #168)), .UNSPECIFIED., .F., .F., .U., (2, 2), (2, 2), (0., 1.), (0., 1.), .UNSPECIFIED.);
#165 = CARTESIAN_POINT('', (127.78174593052, -27.7817459305202, 60.));
#166 = CARTESIAN_POINT('', (-27.7817459305202, -27.7817459305202, 60.));
#167 = CARTESIAN_POINT('', (127.78174593052, 127.78174593052, 60.));
#168 = CARTESIAN_POINT('', (-27.7817459305202, 127.78174593052, 60.));
#169 = ADVANCED_FACE('', (#170), #200, .T.);
#170 = FACE_OUTER_BOUND('', #171, .T.);
#171 = EDGE_LOOP('', (#172, #181, #188, #195));
#172 = ORIENTED_EDGE('', *, *, #173, .F.);
#173 = EDGE_CURVE('', #174, #176, #178, .T.);
#174 = VERTEX_POINT('', #175);
#175 = CARTESIAN_POINT('', (0., 100., 0.));
#176 = VERTEX_POINT('', #177);
#177 = CARTESIAN_POINT('', (0., 0., 0.));
#178 = B_SPLINE_CURVE_WITH_KNOTS('', 1, (#179, #180), .UNSPECIFIED., .F., .U., (2, 2), (0., 1.), .UNSPECIFIED.);
#179 = CARTESIAN_POINT('', (0., 100., 0.));
#180 = CARTESIAN_POINT('', (0., 0., 0.));
#181 = ORIENTED_EDGE('', *, *, #182, .F.);
#182 = EDGE_CURVE('', #183, #174, #185, .T.);
#183 = VERTEX_POINT('', #184);
#184 = CARTESIAN_POINT('', (100., 100., 0.));
#185 = B_SPLINE_CURVE_WITH_KNOTS('', 1, (#186, #187), .UNSPECIFIED., .F., .U., (2, 2), (0., 1.), .UNSPECIFIED.);
#186 = CARTESIAN_POINT('', (100., 100., 0.));
#187 = CARTESIAN_POINT('', (0., 100., 0.));
#188 = ORIENTED_EDGE('', *, *, #189, .F.);
#189 = EDGE_CURVE('', #190, #183, #192, .T.);
#190 = VERTEX_POINT('', #191);
#191 = CARTESIAN_POINT('', (100., 0., 0.));
#192 = B_SPLINE_CURVE_WITH_KNOTS('', 1, (#193, #194), .UNSPECIFIED., .F., .U., (2, 2), (0., 1.), .UNSPECIFIED.);
#193 = CARTESIAN_POINT('', (100., 0., 0.));
#194 = CARTESIAN_POINT('', (100., 100., 0.));
#195 = ORIENTED_EDGE('', *, *, #196, .F.);
#196 = EDGE_CURVE('', #176, #190, #197, .T.);
#197 = B_SPLINE_CURVE_WITH_KNOTS('', 1, (#198, #199), .UNSPECIFIED., .F., .U., (2, 2), (0., 1.), .UNSPECIFIED.);
#198 = CARTESIAN_POINT('', (0., 0., 0.));
#199 = CARTESIAN_POINT('', (100., 0., 0.));
#200 = B_SPLINE_SURFACE_WITH_KNOTS('', 1, 1, ((#201, #202), (#203, #204)), .UNSPECIFIED., .F., .F., .U., (2, 2), (2, 2), (0., 1.), (0., 1.), .UNSPECIFIED.);
#201 = CARTESIAN_POINT('', (127.78174593052, -27.7817459305202, 0.));
#202 = CARTESIAN_POINT('', (127.78174593052, 127.78174593052, 0.));
#203 = CARTESIAN_POINT('', (-27.7817459305202, -27.7817459305202, 0.));
#204 = CARTESIAN_POINT('', (-27.7817459305202, 127.78174593052, 0.));
#205 = ADVANCED_FACE('', (#206), #220, .T.);
#206 = FACE_OUTER_BOUND('', #207, .T.);
#207 = EDGE_LOOP('', (#208, #213, #214, #219));
#208 = ORIENTED_EDGE('', *, *, #209, .F.);
#209 = EDGE_CURVE('', #174, #132, #210, .T.);
#210 = B_SPLINE_CURVE_WITH_KNOTS('', 1, (#211, #212), .UNSPECIFIED., .F., .U., (2, 2), (0., 1.), .UNSPECIFIED.);
#211 = CARTESIAN_POINT('', (0., 100., 0.));
#212 = CARTESIAN_POINT('', (0., 100., 60.));
#213 = ORIENTED_EDGE('', *, *, #173, .T.);
#214 = ORIENTED_EDGE('', *, *, #215, .T.);
#215 = EDGE_CURVE('', #176, #134, #216, .T.);
#216 = B_SPLINE_CURVE_WITH_KNOTS('', 1, (#217, #218), .UNSPECIFIED., .F., .U., (2, 2), (0., 1.), .UNSPECIFIED.);
#217 = CARTESIAN_POINT('', (0., 0., 0.));
#218 = CARTESIAN_POINT('', (0., 0., 60.));
#219 = ORIENTED_EDGE('', *, *, #131, .F.);
#220 = B_SPLINE_SURFACE_WITH_KNOTS('', 1, 1, ((#221, #222), (#223, #224)), .UNSPECIFIED., .F., .F., .U., (2, 2), (2, 2), (0., 1.), (0., 1.), .UNSPECIFIED.);
#221 = CARTESIAN_POINT('', (0., 100., 0.));
#222 = CARTESIAN_POINT('', (0., 100., 60.));
#223 = CARTESIAN_POINT('', (0., 0., 0.));
#224 = CARTESIAN_POINT('', (0., 0., 60.));
#225 = ADVANCED_FACE('', (#226), #236, .T.);
#226 = FACE_OUTER_BOUND('', #227, .T.);
#227 = EDGE_LOOP('', (#228, #229, #230, #235));
#228 = ORIENTED_EDGE('', *, *, #215, .F.);
#229 = ORIENTED_EDGE('', *, *, #196, .T.);
#230 = ORIENTED_EDGE('', *, *, #231, .T.);
#231 = EDGE_CURVE('', #190, #141, #232, .T.);
#232 = B_SPLINE_CURVE_WITH_KNOTS('', 1, (#233, #234), .UNSPECIFIED., .F., .U., (2, 2), (0., 1.), .UNSPECIFIED.);
#233 = CARTESIAN_POINT('', (100., 0., 0.));
#234 = CARTESIAN_POINT('', (100., 0., 60.));
#235 = ORIENTED_EDGE('', *, *, #140, .F.);
#236 = B_SPLINE_SURFACE_WITH_KNOTS('', 1, 1, ((#237, #238), (#239, #240)), .UNSPECIFIED., .F., .F., .U., (2, 2), (2, 2), (0., 1.), (0., 1.), .UNSPECIFIED.);
#237 = CARTESIAN_POINT('', (0., 0., 0.));
#238 = CARTESIAN_POINT('', (0., 0., 60.));
#239 = CARTESIAN_POINT('', (100., 0., 0.));
#240 = CARTESIAN_POINT('', (100., 0., 60.));
#241 = ADVANCED_FACE('', (#242), #252, .T.);
#242 = FACE_OUTER_BOUND('', #243, .T.);
#243 = EDGE_LOOP('', (#244, #249, #250, #251));
#244 = ORIENTED_EDGE('', *, *, #245, .F.);
#245 = EDGE_CURVE('', #183, #148, #246, .T.);
#246 = B_SPLINE_CURVE_WITH_KNOTS('', 1, (#247, #248), .UNSPECIFIED., .F., .U., (2, 2), (0., 1.), .UNSPECIFIED.);
#247 = CARTESIAN_POINT('', (100., 100., 0.));
#248 = CARTESIAN_POINT('', (100., 100., 60.));
#249 = ORIENTED_EDGE('', *, *, #182, .T.);
#250 = ORIENTED_EDGE('', *, *, #209, .T.);
#251 = ORIENTED_EDGE('', *, *, #154, .F.);
#252 = B_SPLINE_SURFACE_WITH_KNOTS('', 1, 1, ((#253, #254), (#255, #256)), .UNSPECIFIED., .F., .F., .U., (2, 2), (2, 2), (0., 1.), (0., 1.), .UNSPECIFIED.);
#253 = CARTESIAN_POINT('', (100., 100., 0.));
#254 = CARTESIAN_POINT('', (100., 100., 60.));
#255 = CARTESIAN_POINT('', (0., 100., 0.));
#256 = CARTESIAN_POINT('', (0., 100., 60.));
#257 = ADVANCED_FACE('', (#258), #264, .T.);
#258 = FACE_OUTER_BOUND('', #259, .T.);
#259 = EDGE_LOOP('', (#260, #261, #262, #263));
#260 = ORIENTED_EDGE('', *, *, #231, .F.);
#261 = ORIENTED_EDGE('', *, *, #189, .T.);
#262 = ORIENTED_EDGE('', *, *, #245, .T.);
#263 = ORIENTED_EDGE('', *, *, #147, .F.);
#264 = B_SPLINE_SURFACE_WITH_KNOTS('', 1, 1, ((#265, #266), (#267, #268)), .UNSPECIFIED., .F., .F., .U., (2, 2), (2, 2), (0., 1.), (0., 1.), .UNSPECIFIED.);
#265 = CARTESIAN_POINT('', (100., 0., 0.));
#266 = CARTESIAN_POINT('', (100., 0., 60.));
#267 = CARTESIAN_POINT('', (100., 100., 0.));
#268 = CARTESIAN_POINT('', (100., 100., 60.));
#269 = DRAUGHTING_MODEL('', (#277), #280);
#270 = PRESENTATION_STYLE_ASSIGNMENT((#271));
#271 = SURFACE_STYLE_USAGE(.POSITIVE., #272);
#272 = SURFACE_SIDE_STYLE('', (#273));
#273 = SURFACE_STYLE_FILL_AREA(#274);
#274 = FILL_AREA_STYLE('', (#275));
#275 = FILL_AREA_STYLE_COLOUR('', #276);
#276 = COLOUR_RGB('', 0.50196078431373, 0.50196078431373, 0.50196078431373);
#277 = STYLED_ITEM('', (#270), #1);
#278 = CARTESIAN_POINT('Origin', (0., 0., 0.));
#279 = GEOMETRIC_SET('', (#278));
#280 = (
   GEOMETRIC_REPRESENTATION_CONTEXT (3)
   GLOBAL_UNCERTAINTY_ASSIGNED_CONTEXT ((#282))
   GLOBAL_UNIT_ASSIGNED_CONTEXT ((#281, #283, #284))
   REPRESENTATION_CONTEXT ('', '3D')
);
#281 = (
   LENGTH_UNIT ()
   NAMED_UNIT (*)
   SI_UNIT (.MILLI., .METRE.)
);
#282 = UNCERTAINTY_MEASURE_WITH_UNIT(LENGTH_MEASURE(1.E-6), #281, 'DISTANCE_ACCURACY_VALUE', '');
#283 = (
   NAMED_UNIT (*)
   SI_UNIT ($, .STERADIAN.)
   SOLID_ANGLE_UNIT ()
);
#284 = (
   NAMED_UNIT (*)
   PLANE_ANGLE_UNIT ()
   SI_UNIT ($, .RADIAN.)
);
#285 = SHAPE_REPRESENTATION('', (#300), #280);
#286 = PRODUCT_DEFINITION_SHAPE('', '', #287);
#287 = PRODUCT_DEFINITION('', '', #290, #294);
#288 = APPLICATION_CONTEXT('configuration controlled 3D designs of mechanical parts and assemblies');
#289 = APPLICATION_PROTOCOL_DEFINITION('International Standard', 'automotive_design', 2002, #288);
#290 = PRODUCT_DEFINITION_FORMATION_WITH_SPECIFIED_SOURCE('', '', #291, .NOT_KNOWN.);
#291 = PRODUCT('NamedBool', 'NamedBool', '', (#292));
#292 = PRODUCT_CONTEXT('', #288, 'mechanical');
#293 = PRODUCT_RELATED_PRODUCT_CATEGORY('detail', '', (#291));
#294 = PRODUCT_DEFINITION_CONTEXT('part definition', #288, 'design');
#295 = SHAPE_DEFINITION_REPRESENTATION(#286, #285);
#296 = SHAPE_REPRESENTATION_RELATIONSHIP('', '', #285, #297);
#297 = SHAPE_REPRESENTATION('', (#279), #280);
#298 = SHAPE_REPRESENTATION_RELATIONSHIP('', '', #285, #299);
#299 = ADVANCED_BREP_SHAPE_REPRESENTATION('', (#1), #280);
#300 = AXIS2_PLACEMENT_3D('', #301, #302, #303);
#301 = CARTESIAN_POINT('', (0., 0., 0.));
#302 = DIRECTION('', (0., 0., 1.));
#303 = DIRECTION('', (1., 0., 0.));
ENDSEC;
END-ISO-10303-21;
