ISO-10303-21;
HEADER;
FILE_DESCRIPTION(('STEP'), '1');
FILE_NAME('MultiTool', '2026-03-20T13:05:18', (''), (''), 'Express 3.1.2.0', 'Express Tool', 'Unknown');
FILE_SCHEMA(('AUTOMOTIVE_DESIGN'));
ENDSEC;

DATA;
#1 = MANIFOLD_SOLID_BREP('Subtraction_0', #2);
#2 = CLOSED_SHELL('', (#3, #129, #255, #275, #291, #307, #319, #339, #355, #371, #383, #403, #419, #435, #447, #467, #483, #499));
#3 = ADVANCED_FACE('', (#4, #34, #64, #94), #124, .T.);
#4 = FACE_OUTER_BOUND('', #5, .T.);
#5 = EDGE_LOOP('', (#6, #15, #22, #29));
#6 = ORIENTED_EDGE('', *, *, #7, .T.);
#7 = EDGE_CURVE('', #8, #10, #12, .T.);
#8 = VERTEX_POINT('', #9);
#9 = CARTESIAN_POINT('', (0., 120., 50.));
#10 = VERTEX_POINT('', #11);
#11 = CARTESIAN_POINT('', (0., 0., 50.));
#12 = B_SPLINE_CURVE_WITH_KNOTS('', 1, (#13, #14), .UNSPECIFIED., .F., .U., (2, 2), (0., 1.), .UNSPECIFIED.);
#13 = CARTESIAN_POINT('', (0., 120., 50.));
#14 = CARTESIAN_POINT('', (0., 0., 50.));
#15 = ORIENTED_EDGE('', *, *, #16, .T.);
#16 = EDGE_CURVE('', #10, #17, #19, .T.);
#17 = VERTEX_POINT('', #18);
#18 = CARTESIAN_POINT('', (120., 0., 50.));
#19 = B_SPLINE_CURVE_WITH_KNOTS('', 1, (#20, #21), .UNSPECIFIED., .F., .U., (2, 2), (0., 1.), .UNSPECIFIED.);
#20 = CARTESIAN_POINT('', (0., 0., 50.));
#21 = CARTESIAN_POINT('', (120., 0., 50.));
#22 = ORIENTED_EDGE('', *, *, #23, .T.);
#23 = EDGE_CURVE('', #17, #24, #26, .T.);
#24 = VERTEX_POINT('', #25);
#25 = CARTESIAN_POINT('', (120., 120., 50.));
#26 = B_SPLINE_CURVE_WITH_KNOTS('', 1, (#27, #28), .UNSPECIFIED., .F., .U., (2, 2), (0., 1.), .UNSPECIFIED.);
#27 = CARTESIAN_POINT('', (120., 0., 50.));
#28 = CARTESIAN_POINT('', (120., 120., 50.));
#29 = ORIENTED_EDGE('', *, *, #30, .T.);
#30 = EDGE_CURVE('', #24, #8, #31, .T.);
#31 = B_SPLINE_CURVE_WITH_KNOTS('', 1, (#32, #33), .UNSPECIFIED., .F., .U., (2, 2), (0., 1.), .UNSPECIFIED.);
#32 = CARTESIAN_POINT('', (120., 120., 50.));
#33 = CARTESIAN_POINT('', (0., 120., 50.));
#34 = FACE_BOUND('', #35, .T.);
#35 = EDGE_LOOP('', (#36, #45, #52, #59));
#36 = ORIENTED_EDGE('', *, *, #37, .F.);
#37 = EDGE_CURVE('', #38, #40, #42, .T.);
#38 = VERTEX_POINT('', #39);
#39 = CARTESIAN_POINT('', (10., 30., 50.));
#40 = VERTEX_POINT('', #41);
#41 = CARTESIAN_POINT('', (10., 10., 50.));
#42 = B_SPLINE_CURVE_WITH_KNOTS('', 1, (#43, #44), .UNSPECIFIED., .F., .U., (2, 2), (0., 1.), .UNSPECIFIED.);
#43 = CARTESIAN_POINT('', (10., 30., 50.));
#44 = CARTESIAN_POINT('', (10., 9.99999999999999, 50.));
#45 = ORIENTED_EDGE('', *, *, #46, .F.);
#46 = EDGE_CURVE('', #47, #38, #49, .T.);
#47 = VERTEX_POINT('', #48);
#48 = CARTESIAN_POINT('', (30., 30., 50.));
#49 = B_SPLINE_CURVE_WITH_KNOTS('', 1, (#50, #51), .UNSPECIFIED., .F., .U., (2, 2), (0., 1.), .UNSPECIFIED.);
#50 = CARTESIAN_POINT('', (30., 30., 50.));
#51 = CARTESIAN_POINT('', (9.99999999999999, 30., 50.));
#52 = ORIENTED_EDGE('', *, *, #53, .F.);
#53 = EDGE_CURVE('', #54, #47, #56, .T.);
#54 = VERTEX_POINT('', #55);
#55 = CARTESIAN_POINT('', (30., 10., 50.));
#56 = B_SPLINE_CURVE_WITH_KNOTS('', 1, (#57, #58), .UNSPECIFIED., .F., .U., (2, 2), (0., 1.), .UNSPECIFIED.);
#57 = CARTESIAN_POINT('', (30., 10., 50.));
#58 = CARTESIAN_POINT('', (30., 30., 50.));
#59 = ORIENTED_EDGE('', *, *, #60, .F.);
#60 = EDGE_CURVE('', #40, #54, #61, .T.);
#61 = B_SPLINE_CURVE_WITH_KNOTS('', 1, (#62, #63), .UNSPECIFIED., .F., .U., (2, 2), (0., 1.), .UNSPECIFIED.);
#62 = CARTESIAN_POINT('', (10., 10., 50.));
#63 = CARTESIAN_POINT('', (30., 10., 50.));
#64 = FACE_BOUND('', #65, .T.);
#65 = EDGE_LOOP('', (#66, #75, #82, #89));
#66 = ORIENTED_EDGE('', *, *, #67, .F.);
#67 = EDGE_CURVE('', #68, #70, #72, .T.);
#68 = VERTEX_POINT('', #69);
#69 = CARTESIAN_POINT('', (50., 70., 50.));
#70 = VERTEX_POINT('', #71);
#71 = CARTESIAN_POINT('', (50., 50., 50.));
#72 = B_SPLINE_CURVE_WITH_KNOTS('', 1, (#73, #74), .UNSPECIFIED., .F., .U., (2, 2), (0., 1.), .UNSPECIFIED.);
#73 = CARTESIAN_POINT('', (50., 70., 50.));
#74 = CARTESIAN_POINT('', (50., 50., 50.));
#75 = ORIENTED_EDGE('', *, *, #76, .F.);
#76 = EDGE_CURVE('', #77, #68, #79, .T.);
#77 = VERTEX_POINT('', #78);
#78 = CARTESIAN_POINT('', (70., 70., 50.));
#79 = B_SPLINE_CURVE_WITH_KNOTS('', 1, (#80, #81), .UNSPECIFIED., .F., .U., (2, 2), (0., 1.), .UNSPECIFIED.);
#80 = CARTESIAN_POINT('', (70., 70., 50.));
#81 = CARTESIAN_POINT('', (50., 70., 50.));
#82 = ORIENTED_EDGE('', *, *, #83, .F.);
#83 = EDGE_CURVE('', #84, #77, #86, .T.);
#84 = VERTEX_POINT('', #85);
#85 = CARTESIAN_POINT('', (70., 50., 50.));
#86 = B_SPLINE_CURVE_WITH_KNOTS('', 1, (#87, #88), .UNSPECIFIED., .F., .U., (2, 2), (0., 1.), .UNSPECIFIED.);
#87 = CARTESIAN_POINT('', (70., 50., 50.));
#88 = CARTESIAN_POINT('', (70., 70., 50.));
#89 = ORIENTED_EDGE('', *, *, #90, .F.);
#90 = EDGE_CURVE('', #70, #84, #91, .T.);
#91 = B_SPLINE_CURVE_WITH_KNOTS('', 1, (#92, #93), .UNSPECIFIED., .F., .U., (2, 2), (0., 1.), .UNSPECIFIED.);
#92 = CARTESIAN_POINT('', (50., 50., 50.));
#93 = CARTESIAN_POINT('', (70., 50., 50.));
#94 = FACE_BOUND('', #95, .T.);
#95 = EDGE_LOOP('', (#96, #105, #112, #119));
#96 = ORIENTED_EDGE('', *, *, #97, .F.);
#97 = EDGE_CURVE('', #98, #100, #102, .T.);
#98 = VERTEX_POINT('', #99);
#99 = CARTESIAN_POINT('', (90., 110., 50.));
#100 = VERTEX_POINT('', #101);
#101 = CARTESIAN_POINT('', (90., 90., 50.));
#102 = B_SPLINE_CURVE_WITH_KNOTS('', 1, (#103, #104), .UNSPECIFIED., .F., .U., (2, 2), (0., 1.), .UNSPECIFIED.);
#103 = CARTESIAN_POINT('', (90., 110., 50.));
#104 = CARTESIAN_POINT('', (90., 90., 50.));
#105 = ORIENTED_EDGE('', *, *, #106, .F.);
#106 = EDGE_CURVE('', #107, #98, #109, .T.);
#107 = VERTEX_POINT('', #108);
#108 = CARTESIAN_POINT('', (110., 110., 50.));
#109 = B_SPLINE_CURVE_WITH_KNOTS('', 1, (#110, #111), .UNSPECIFIED., .F., .U., (2, 2), (0., 1.), .UNSPECIFIED.);
#110 = CARTESIAN_POINT('', (110., 110., 50.));
#111 = CARTESIAN_POINT('', (90., 110., 50.));
#112 = ORIENTED_EDGE('', *, *, #113, .F.);
#113 = EDGE_CURVE('', #114, #107, #116, .T.);
#114 = VERTEX_POINT('', #115);
#115 = CARTESIAN_POINT('', (110., 90., 50.));
#116 = B_SPLINE_CURVE_WITH_KNOTS('', 1, (#117, #118), .UNSPECIFIED., .F., .U., (2, 2), (0., 1.), .UNSPECIFIED.);
#117 = CARTESIAN_POINT('', (110., 90., 50.));
#118 = CARTESIAN_POINT('', (110., 110., 50.));
#119 = ORIENTED_EDGE('', *, *, #120, .F.);
#120 = EDGE_CURVE('', #100, #114, #121, .T.);
#121 = B_SPLINE_CURVE_WITH_KNOTS('', 1, (#122, #123), .UNSPECIFIED., .F., .U., (2, 2), (0., 1.), .UNSPECIFIED.);
#122 = CARTESIAN_POINT('', (90., 90., 50.));
#123 = CARTESIAN_POINT('', (110., 90., 50.));
#124 = B_SPLINE_SURFACE_WITH_KNOTS('', 1, 1, ((#125, #126), (#127, #128)), .UNSPECIFIED., .F., .F., .U., (2, 2), (2, 2), (0., 1.), (0., 1.), .UNSPECIFIED.);
#125 = CARTESIAN_POINT('', (153.338095116624, -33.3380951166243, 50.));
#126 = CARTESIAN_POINT('', (-33.3380951166243, -33.3380951166243, 50.));
#127 = CARTESIAN_POINT('', (153.338095116624, 153.338095116624, 50.));
#128 = CARTESIAN_POINT('', (-33.3380951166243, 153.338095116624, 50.));
#129 = ADVANCED_FACE('', (#130, #160, #190, #220), #250, .T.);
#130 = FACE_OUTER_BOUND('', #131, .T.);
#131 = EDGE_LOOP('', (#132, #141, #148, #155));
#132 = ORIENTED_EDGE('', *, *, #133, .F.);
#133 = EDGE_CURVE('', #134, #136, #138, .T.);
#134 = VERTEX_POINT('', #135);
#135 = CARTESIAN_POINT('', (0., 120., 0.));
#136 = VERTEX_POINT('', #137);
#137 = CARTESIAN_POINT('', (0., 0., 0.));
#138 = B_SPLINE_CURVE_WITH_KNOTS('', 1, (#139, #140), .UNSPECIFIED., .F., .U., (2, 2), (0., 1.), .UNSPECIFIED.);
#139 = CARTESIAN_POINT('', (0., 120., 0.));
#140 = CARTESIAN_POINT('', (0., 0., 0.));
#141 = ORIENTED_EDGE('', *, *, #142, .F.);
#142 = EDGE_CURVE('', #143, #134, #145, .T.);
#143 = VERTEX_POINT('', #144);
#144 = CARTESIAN_POINT('', (120., 120., 0.));
#145 = B_SPLINE_CURVE_WITH_KNOTS('', 1, (#146, #147), .UNSPECIFIED., .F., .U., (2, 2), (0., 1.), .UNSPECIFIED.);
#146 = CARTESIAN_POINT('', (120., 120., 0.));
#147 = CARTESIAN_POINT('', (0., 120., 0.));
#148 = ORIENTED_EDGE('', *, *, #149, .F.);
#149 = EDGE_CURVE('', #150, #143, #152, .T.);
#150 = VERTEX_POINT('', #151);
#151 = CARTESIAN_POINT('', (120., 0., 0.));
#152 = B_SPLINE_CURVE_WITH_KNOTS('', 1, (#153, #154), .UNSPECIFIED., .F., .U., (2, 2), (0., 1.), .UNSPECIFIED.);
#153 = CARTESIAN_POINT('', (120., 0., 0.));
#154 = CARTESIAN_POINT('', (120., 120., 0.));
#155 = ORIENTED_EDGE('', *, *, #156, .F.);
#156 = EDGE_CURVE('', #136, #150, #157, .T.);
#157 = B_SPLINE_CURVE_WITH_KNOTS('', 1, (#158, #159), .UNSPECIFIED., .F., .U., (2, 2), (0., 1.), .UNSPECIFIED.);
#158 = CARTESIAN_POINT('', (0., 0., 0.));
#159 = CARTESIAN_POINT('', (120., 0., 0.));
#160 = FACE_BOUND('', #161, .T.);
#161 = EDGE_LOOP('', (#162, #171, #178, #185));
#162 = ORIENTED_EDGE('', *, *, #163, .F.);
#163 = EDGE_CURVE('', #164, #166, #168, .T.);
#164 = VERTEX_POINT('', #165);
#165 = CARTESIAN_POINT('', (10., 10., 0.));
#166 = VERTEX_POINT('', #167);
#167 = CARTESIAN_POINT('', (10., 30., 0.));
#168 = B_SPLINE_CURVE_WITH_KNOTS('', 1, (#169, #170), .UNSPECIFIED., .F., .U., (2, 2), (0., 1.), .UNSPECIFIED.);
#169 = CARTESIAN_POINT('', (10., 10., 0.));
#170 = CARTESIAN_POINT('', (10., 30., 0.));
#171 = ORIENTED_EDGE('', *, *, #172, .F.);
#172 = EDGE_CURVE('', #173, #164, #175, .T.);
#173 = VERTEX_POINT('', #174);
#174 = CARTESIAN_POINT('', (30., 10., 0.));
#175 = B_SPLINE_CURVE_WITH_KNOTS('', 1, (#176, #177), .UNSPECIFIED., .F., .U., (2, 2), (0., 1.), .UNSPECIFIED.);
#176 = CARTESIAN_POINT('', (30., 10., 0.));
#177 = CARTESIAN_POINT('', (9.99999999999999, 10., 0.));
#178 = ORIENTED_EDGE('', *, *, #179, .F.);
#179 = EDGE_CURVE('', #180, #173, #182, .T.);
#180 = VERTEX_POINT('', #181);
#181 = CARTESIAN_POINT('', (30., 30., 0.));
#182 = B_SPLINE_CURVE_WITH_KNOTS('', 1, (#183, #184), .UNSPECIFIED., .F., .U., (2, 2), (0., 1.), .UNSPECIFIED.);
#183 = CARTESIAN_POINT('', (30., 30., 0.));
#184 = CARTESIAN_POINT('', (30., 9.99999999999999, 0.));
#185 = ORIENTED_EDGE('', *, *, #186, .F.);
#186 = EDGE_CURVE('', #166, #180, #187, .T.);
#187 = B_SPLINE_CURVE_WITH_KNOTS('', 1, (#188, #189), .UNSPECIFIED., .F., .U., (2, 2), (0., 1.), .UNSPECIFIED.);
#188 = CARTESIAN_POINT('', (10., 30., 0.));
#189 = CARTESIAN_POINT('', (30., 30., 0.));
#190 = FACE_BOUND('', #191, .T.);
#191 = EDGE_LOOP('', (#192, #201, #208, #215));
#192 = ORIENTED_EDGE('', *, *, #193, .F.);
#193 = EDGE_CURVE('', #194, #196, #198, .T.);
#194 = VERTEX_POINT('', #195);
#195 = CARTESIAN_POINT('', (50., 50., 0.));
#196 = VERTEX_POINT('', #197);
#197 = CARTESIAN_POINT('', (50., 70., 0.));
#198 = B_SPLINE_CURVE_WITH_KNOTS('', 1, (#199, #200), .UNSPECIFIED., .F., .U., (2, 2), (0., 1.), .UNSPECIFIED.);
#199 = CARTESIAN_POINT('', (50., 50., 0.));
#200 = CARTESIAN_POINT('', (50., 70., 0.));
#201 = ORIENTED_EDGE('', *, *, #202, .F.);
#202 = EDGE_CURVE('', #203, #194, #205, .T.);
#203 = VERTEX_POINT('', #204);
#204 = CARTESIAN_POINT('', (70., 50., 0.));
#205 = B_SPLINE_CURVE_WITH_KNOTS('', 1, (#206, #207), .UNSPECIFIED., .F., .U., (2, 2), (0., 1.), .UNSPECIFIED.);
#206 = CARTESIAN_POINT('', (70., 50., 0.));
#207 = CARTESIAN_POINT('', (50., 50., 0.));
#208 = ORIENTED_EDGE('', *, *, #209, .F.);
#209 = EDGE_CURVE('', #210, #203, #212, .T.);
#210 = VERTEX_POINT('', #211);
#211 = CARTESIAN_POINT('', (70., 70., 0.));
#212 = B_SPLINE_CURVE_WITH_KNOTS('', 1, (#213, #214), .UNSPECIFIED., .F., .U., (2, 2), (0., 1.), .UNSPECIFIED.);
#213 = CARTESIAN_POINT('', (70., 70., 0.));
#214 = CARTESIAN_POINT('', (70., 50., 0.));
#215 = ORIENTED_EDGE('', *, *, #216, .F.);
#216 = EDGE_CURVE('', #196, #210, #217, .T.);
#217 = B_SPLINE_CURVE_WITH_KNOTS('', 1, (#218, #219), .UNSPECIFIED., .F., .U., (2, 2), (0., 1.), .UNSPECIFIED.);
#218 = CARTESIAN_POINT('', (50., 70., 0.));
#219 = CARTESIAN_POINT('', (70., 70., 0.));
#220 = FACE_BOUND('', #221, .T.);
#221 = EDGE_LOOP('', (#222, #231, #238, #245));
#222 = ORIENTED_EDGE('', *, *, #223, .F.);
#223 = EDGE_CURVE('', #224, #226, #228, .T.);
#224 = VERTEX_POINT('', #225);
#225 = CARTESIAN_POINT('', (90., 90., 0.));
#226 = VERTEX_POINT('', #227);
#227 = CARTESIAN_POINT('', (90., 110., 0.));
#228 = B_SPLINE_CURVE_WITH_KNOTS('', 1, (#229, #230), .UNSPECIFIED., .F., .U., (2, 2), (0., 1.), .UNSPECIFIED.);
#229 = CARTESIAN_POINT('', (90., 90., 0.));
#230 = CARTESIAN_POINT('', (90., 110., 0.));
#231 = ORIENTED_EDGE('', *, *, #232, .F.);
#232 = EDGE_CURVE('', #233, #224, #235, .T.);
#233 = VERTEX_POINT('', #234);
#234 = CARTESIAN_POINT('', (110., 90., 0.));
#235 = B_SPLINE_CURVE_WITH_KNOTS('', 1, (#236, #237), .UNSPECIFIED., .F., .U., (2, 2), (0., 1.), .UNSPECIFIED.);
#236 = CARTESIAN_POINT('', (110., 90., 0.));
#237 = CARTESIAN_POINT('', (90., 90., 0.));
#238 = ORIENTED_EDGE('', *, *, #239, .F.);
#239 = EDGE_CURVE('', #240, #233, #242, .T.);
#240 = VERTEX_POINT('', #241);
#241 = CARTESIAN_POINT('', (110., 110., 0.));
#242 = B_SPLINE_CURVE_WITH_KNOTS('', 1, (#243, #244), .UNSPECIFIED., .F., .U., (2, 2), (0., 1.), .UNSPECIFIED.);
#243 = CARTESIAN_POINT('', (110., 110., 0.));
#244 = CARTESIAN_POINT('', (110., 90., 0.));
#245 = ORIENTED_EDGE('', *, *, #246, .F.);
#246 = EDGE_CURVE('', #226, #240, #247, .T.);
#247 = B_SPLINE_CURVE_WITH_KNOTS('', 1, (#248, #249), .UNSPECIFIED., .F., .U., (2, 2), (0., 1.), .UNSPECIFIED.);
#248 = CARTESIAN_POINT('', (90., 110., 0.));
#249 = CARTESIAN_POINT('', (110., 110., 0.));
#250 = B_SPLINE_SURFACE_WITH_KNOTS('', 1, 1, ((#251, #252), (#253, #254)), .UNSPECIFIED., .F., .F., .U., (2, 2), (2, 2), (0., 1.), (0., 1.), .UNSPECIFIED.);
#251 = CARTESIAN_POINT('', (153.338095116624, -33.3380951166243, 0.));
#252 = CARTESIAN_POINT('', (153.338095116624, 153.338095116624, 0.));
#253 = CARTESIAN_POINT('', (-33.3380951166243, -33.3380951166243, 0.));
#254 = CARTESIAN_POINT('', (-33.3380951166243, 153.338095116624, 0.));
#255 = ADVANCED_FACE('', (#256), #270, .T.);
#256 = FACE_OUTER_BOUND('', #257, .T.);
#257 = EDGE_LOOP('', (#258, #263, #264, #269));
#258 = ORIENTED_EDGE('', *, *, #259, .F.);
#259 = EDGE_CURVE('', #134, #8, #260, .T.);
#260 = B_SPLINE_CURVE_WITH_KNOTS('', 1, (#261, #262), .UNSPECIFIED., .F., .U., (2, 2), (0., 1.), .UNSPECIFIED.);
#261 = CARTESIAN_POINT('', (0., 120., 0.));
#262 = CARTESIAN_POINT('', (0., 120., 50.));
#263 = ORIENTED_EDGE('', *, *, #133, .T.);
#264 = ORIENTED_EDGE('', *, *, #265, .T.);
#265 = EDGE_CURVE('', #136, #10, #266, .T.);
#266 = B_SPLINE_CURVE_WITH_KNOTS('', 1, (#267, #268), .UNSPECIFIED., .F., .U., (2, 2), (0., 1.), .UNSPECIFIED.);
#267 = CARTESIAN_POINT('', (0., 0., 0.));
#268 = CARTESIAN_POINT('', (0., 0., 50.));
#269 = ORIENTED_EDGE('', *, *, #7, .F.);
#270 = B_SPLINE_SURFACE_WITH_KNOTS('', 1, 1, ((#271, #272), (#273, #274)), .UNSPECIFIED., .F., .F., .U., (2, 2), (2, 2), (0., 1.), (0., 1.), .UNSPECIFIED.);
#271 = CARTESIAN_POINT('', (0., 120., 0.));
#272 = CARTESIAN_POINT('', (0., 120., 50.));
#273 = CARTESIAN_POINT('', (0., 0., 0.));
#274 = CARTESIAN_POINT('', (0., 0., 50.));
#275 = ADVANCED_FACE('', (#276), #286, .T.);
#276 = FACE_OUTER_BOUND('', #277, .T.);
#277 = EDGE_LOOP('', (#278, #279, #280, #285));
#278 = ORIENTED_EDGE('', *, *, #265, .F.);
#279 = ORIENTED_EDGE('', *, *, #156, .T.);
#280 = ORIENTED_EDGE('', *, *, #281, .T.);
#281 = EDGE_CURVE('', #150, #17, #282, .T.);
#282 = B_SPLINE_CURVE_WITH_KNOTS('', 1, (#283, #284), .UNSPECIFIED., .F., .U., (2, 2), (0., 1.), .UNSPECIFIED.);
#283 = CARTESIAN_POINT('', (120., 0., 0.));
#284 = CARTESIAN_POINT('', (120., 0., 50.));
#285 = ORIENTED_EDGE('', *, *, #16, .F.);
#286 = B_SPLINE_SURFACE_WITH_KNOTS('', 1, 1, ((#287, #288), (#289, #290)), .UNSPECIFIED., .F., .F., .U., (2, 2), (2, 2), (0., 1.), (0., 1.), .UNSPECIFIED.);
#287 = CARTESIAN_POINT('', (0., 0., 0.));
#288 = CARTESIAN_POINT('', (0., 0., 50.));
#289 = CARTESIAN_POINT('', (120., 0., 0.));
#290 = CARTESIAN_POINT('', (120., 0., 50.));
#291 = ADVANCED_FACE('', (#292), #302, .T.);
#292 = FACE_OUTER_BOUND('', #293, .T.);
#293 = EDGE_LOOP('', (#294, #299, #300, #301));
#294 = ORIENTED_EDGE('', *, *, #295, .F.);
#295 = EDGE_CURVE('', #143, #24, #296, .T.);
#296 = B_SPLINE_CURVE_WITH_KNOTS('', 1, (#297, #298), .UNSPECIFIED., .F., .U., (2, 2), (0., 1.), .UNSPECIFIED.);
#297 = CARTESIAN_POINT('', (120., 120., 0.));
#298 = CARTESIAN_POINT('', (120., 120., 50.));
#299 = ORIENTED_EDGE('', *, *, #142, .T.);
#300 = ORIENTED_EDGE('', *, *, #259, .T.);
#301 = ORIENTED_EDGE('', *, *, #30, .F.);
#302 = B_SPLINE_SURFACE_WITH_KNOTS('', 1, 1, ((#303, #304), (#305, #306)), .UNSPECIFIED., .F., .F., .U., (2, 2), (2, 2), (0., 1.), (0., 1.), .UNSPECIFIED.);
#303 = CARTESIAN_POINT('', (120., 120., 0.));
#304 = CARTESIAN_POINT('', (120., 120., 50.));
#305 = CARTESIAN_POINT('', (0., 120., 0.));
#306 = CARTESIAN_POINT('', (0., 120., 50.));
#307 = ADVANCED_FACE('', (#308), #314, .T.);
#308 = FACE_OUTER_BOUND('', #309, .T.);
#309 = EDGE_LOOP('', (#310, #311, #312, #313));
#310 = ORIENTED_EDGE('', *, *, #281, .F.);
#311 = ORIENTED_EDGE('', *, *, #149, .T.);
#312 = ORIENTED_EDGE('', *, *, #295, .T.);
#313 = ORIENTED_EDGE('', *, *, #23, .F.);
#314 = B_SPLINE_SURFACE_WITH_KNOTS('', 1, 1, ((#315, #316), (#317, #318)), .UNSPECIFIED., .F., .F., .U., (2, 2), (2, 2), (0., 1.), (0., 1.), .UNSPECIFIED.);
#315 = CARTESIAN_POINT('', (120., 0., 0.));
#316 = CARTESIAN_POINT('', (120., 0., 50.));
#317 = CARTESIAN_POINT('', (120., 120., 0.));
#318 = CARTESIAN_POINT('', (120., 120., 50.));
#319 = ADVANCED_FACE('', (#320), #334, .F.);
#320 = FACE_OUTER_BOUND('', #321, .F.);
#321 = EDGE_LOOP('', (#322, #323, #328, #329));
#322 = ORIENTED_EDGE('', *, *, #60, .F.);
#323 = ORIENTED_EDGE('', *, *, #324, .F.);
#324 = EDGE_CURVE('', #164, #40, #325, .T.);
#325 = B_SPLINE_CURVE_WITH_KNOTS('', 1, (#326, #327), .UNSPECIFIED., .F., .U., (2, 2), (0., 0.625), .UNSPECIFIED.);
#326 = CARTESIAN_POINT('', (10., 10., 0.));
#327 = CARTESIAN_POINT('', (10., 10., 50.));
#328 = ORIENTED_EDGE('', *, *, #172, .F.);
#329 = ORIENTED_EDGE('', *, *, #330, .T.);
#330 = EDGE_CURVE('', #173, #54, #331, .T.);
#331 = B_SPLINE_CURVE_WITH_KNOTS('', 1, (#332, #333), .UNSPECIFIED., .F., .U., (2, 2), (0., 0.625), .UNSPECIFIED.);
#332 = CARTESIAN_POINT('', (30., 10., 0.));
#333 = CARTESIAN_POINT('', (30., 10., 50.));
#334 = B_SPLINE_SURFACE_WITH_KNOTS('', 1, 1, ((#335, #336), (#337, #338)), .UNSPECIFIED., .F., .F., .U., (2, 2), (2, 2), (0., 1.), (0., 1.), .UNSPECIFIED.);
#335 = CARTESIAN_POINT('', (10., 10., 0.));
#336 = CARTESIAN_POINT('', (10., 10., 80.));
#337 = CARTESIAN_POINT('', (30., 10., 0.));
#338 = CARTESIAN_POINT('', (30., 10., 80.));
#339 = ADVANCED_FACE('', (#340), #350, .F.);
#340 = FACE_OUTER_BOUND('', #341, .F.);
#341 = EDGE_LOOP('', (#342, #343, #344, #345));
#342 = ORIENTED_EDGE('', *, *, #53, .F.);
#343 = ORIENTED_EDGE('', *, *, #330, .F.);
#344 = ORIENTED_EDGE('', *, *, #179, .F.);
#345 = ORIENTED_EDGE('', *, *, #346, .T.);
#346 = EDGE_CURVE('', #180, #47, #347, .T.);
#347 = B_SPLINE_CURVE_WITH_KNOTS('', 1, (#348, #349), .UNSPECIFIED., .F., .U., (2, 2), (0., 0.625), .UNSPECIFIED.);
#348 = CARTESIAN_POINT('', (30., 30., 0.));
#349 = CARTESIAN_POINT('', (30., 30., 50.));
#350 = B_SPLINE_SURFACE_WITH_KNOTS('', 1, 1, ((#351, #352), (#353, #354)), .UNSPECIFIED., .F., .F., .U., (2, 2), (2, 2), (0., 1.), (0., 1.), .UNSPECIFIED.);
#351 = CARTESIAN_POINT('', (30., 10., 0.));
#352 = CARTESIAN_POINT('', (30., 10., 80.));
#353 = CARTESIAN_POINT('', (30., 30., 0.));
#354 = CARTESIAN_POINT('', (30., 30., 80.));
#355 = ADVANCED_FACE('', (#356), #366, .F.);
#356 = FACE_OUTER_BOUND('', #357, .F.);
#357 = EDGE_LOOP('', (#358, #359, #360, #361));
#358 = ORIENTED_EDGE('', *, *, #46, .F.);
#359 = ORIENTED_EDGE('', *, *, #346, .F.);
#360 = ORIENTED_EDGE('', *, *, #186, .F.);
#361 = ORIENTED_EDGE('', *, *, #362, .T.);
#362 = EDGE_CURVE('', #166, #38, #363, .T.);
#363 = B_SPLINE_CURVE_WITH_KNOTS('', 1, (#364, #365), .UNSPECIFIED., .F., .U., (2, 2), (0., 0.625), .UNSPECIFIED.);
#364 = CARTESIAN_POINT('', (10., 30., 0.));
#365 = CARTESIAN_POINT('', (10., 30., 50.));
#366 = B_SPLINE_SURFACE_WITH_KNOTS('', 1, 1, ((#367, #368), (#369, #370)), .UNSPECIFIED., .F., .F., .U., (2, 2), (2, 2), (0., 1.), (0., 1.), .UNSPECIFIED.);
#367 = CARTESIAN_POINT('', (30., 30., 0.));
#368 = CARTESIAN_POINT('', (30., 30., 80.));
#369 = CARTESIAN_POINT('', (10., 30., 0.));
#370 = CARTESIAN_POINT('', (10., 30., 80.));
#371 = ADVANCED_FACE('', (#372), #378, .F.);
#372 = FACE_OUTER_BOUND('', #373, .F.);
#373 = EDGE_LOOP('', (#374, #375, #376, #377));
#374 = ORIENTED_EDGE('', *, *, #37, .F.);
#375 = ORIENTED_EDGE('', *, *, #362, .F.);
#376 = ORIENTED_EDGE('', *, *, #163, .F.);
#377 = ORIENTED_EDGE('', *, *, #324, .T.);
#378 = B_SPLINE_SURFACE_WITH_KNOTS('', 1, 1, ((#379, #380), (#381, #382)), .UNSPECIFIED., .F., .F., .U., (2, 2), (2, 2), (0., 1.), (0., 1.), .UNSPECIFIED.);
#379 = CARTESIAN_POINT('', (10., 30., 0.));
#380 = CARTESIAN_POINT('', (10., 30., 80.));
#381 = CARTESIAN_POINT('', (10., 10., 0.));
#382 = CARTESIAN_POINT('', (10., 10., 80.));
#383 = ADVANCED_FACE('', (#384), #398, .F.);
#384 = FACE_OUTER_BOUND('', #385, .F.);
#385 = EDGE_LOOP('', (#386, #387, #392, #393));
#386 = ORIENTED_EDGE('', *, *, #90, .F.);
#387 = ORIENTED_EDGE('', *, *, #388, .F.);
#388 = EDGE_CURVE('', #194, #70, #389, .T.);
#389 = B_SPLINE_CURVE_WITH_KNOTS('', 1, (#390, #391), .UNSPECIFIED., .F., .U., (2, 2), (0., 0.625), .UNSPECIFIED.);
#390 = CARTESIAN_POINT('', (50., 50., 0.));
#391 = CARTESIAN_POINT('', (50., 50., 50.));
#392 = ORIENTED_EDGE('', *, *, #202, .F.);
#393 = ORIENTED_EDGE('', *, *, #394, .T.);
#394 = EDGE_CURVE('', #203, #84, #395, .T.);
#395 = B_SPLINE_CURVE_WITH_KNOTS('', 1, (#396, #397), .UNSPECIFIED., .F., .U., (2, 2), (0., 0.625), .UNSPECIFIED.);
#396 = CARTESIAN_POINT('', (70., 50., 0.));
#397 = CARTESIAN_POINT('', (70., 50., 50.));
#398 = B_SPLINE_SURFACE_WITH_KNOTS('', 1, 1, ((#399, #400), (#401, #402)), .UNSPECIFIED., .F., .F., .U., (2, 2), (2, 2), (0., 1.), (0., 1.), .UNSPECIFIED.);
#399 = CARTESIAN_POINT('', (50., 50., 0.));
#400 = CARTESIAN_POINT('', (50., 50., 80.));
#401 = CARTESIAN_POINT('', (70., 50., 0.));
#402 = CARTESIAN_POINT('', (70., 50., 80.));
#403 = ADVANCED_FACE('', (#404), #414, .F.);
#404 = FACE_OUTER_BOUND('', #405, .F.);
#405 = EDGE_LOOP('', (#406, #407, #408, #409));
#406 = ORIENTED_EDGE('', *, *, #83, .F.);
#407 = ORIENTED_EDGE('', *, *, #394, .F.);
#408 = ORIENTED_EDGE('', *, *, #209, .F.);
#409 = ORIENTED_EDGE('', *, *, #410, .T.);
#410 = EDGE_CURVE('', #210, #77, #411, .T.);
#411 = B_SPLINE_CURVE_WITH_KNOTS('', 1, (#412, #413), .UNSPECIFIED., .F., .U., (2, 2), (0., 0.625), .UNSPECIFIED.);
#412 = CARTESIAN_POINT('', (70., 70., 0.));
#413 = CARTESIAN_POINT('', (70., 70., 50.));
#414 = B_SPLINE_SURFACE_WITH_KNOTS('', 1, 1, ((#415, #416), (#417, #418)), .UNSPECIFIED., .F., .F., .U., (2, 2), (2, 2), (0., 1.), (0., 1.), .UNSPECIFIED.);
#415 = CARTESIAN_POINT('', (70., 50., 0.));
#416 = CARTESIAN_POINT('', (70., 50., 80.));
#417 = CARTESIAN_POINT('', (70., 70., 0.));
#418 = CARTESIAN_POINT('', (70., 70., 80.));
#419 = ADVANCED_FACE('', (#420), #430, .F.);
#420 = FACE_OUTER_BOUND('', #421, .F.);
#421 = EDGE_LOOP('', (#422, #423, #424, #425));
#422 = ORIENTED_EDGE('', *, *, #76, .F.);
#423 = ORIENTED_EDGE('', *, *, #410, .F.);
#424 = ORIENTED_EDGE('', *, *, #216, .F.);
#425 = ORIENTED_EDGE('', *, *, #426, .T.);
#426 = EDGE_CURVE('', #196, #68, #427, .T.);
#427 = B_SPLINE_CURVE_WITH_KNOTS('', 1, (#428, #429), .UNSPECIFIED., .F., .U., (2, 2), (0., 0.625), .UNSPECIFIED.);
#428 = CARTESIAN_POINT('', (50., 70., 0.));
#429 = CARTESIAN_POINT('', (50., 70., 50.));
#430 = B_SPLINE_SURFACE_WITH_KNOTS('', 1, 1, ((#431, #432), (#433, #434)), .UNSPECIFIED., .F., .F., .U., (2, 2), (2, 2), (0., 1.), (0., 1.), .UNSPECIFIED.);
#431 = CARTESIAN_POINT('', (70., 70., 0.));
#432 = CARTESIAN_POINT('', (70., 70., 80.));
#433 = CARTESIAN_POINT('', (50., 70., 0.));
#434 = CARTESIAN_POINT('', (50., 70., 80.));
#435 = ADVANCED_FACE('', (#436), #442, .F.);
#436 = FACE_OUTER_BOUND('', #437, .F.);
#437 = EDGE_LOOP('', (#438, #439, #440, #441));
#438 = ORIENTED_EDGE('', *, *, #67, .F.);
#439 = ORIENTED_EDGE('', *, *, #426, .F.);
#440 = ORIENTED_EDGE('', *, *, #193, .F.);
#441 = ORIENTED_EDGE('', *, *, #388, .T.);
#442 = B_SPLINE_SURFACE_WITH_KNOTS('', 1, 1, ((#443, #444), (#445, #446)), .UNSPECIFIED., .F., .F., .U., (2, 2), (2, 2), (0., 1.), (0., 1.), .UNSPECIFIED.);
#443 = CARTESIAN_POINT('', (50., 70., 0.));
#444 = CARTESIAN_POINT('', (50., 70., 80.));
#445 = CARTESIAN_POINT('', (50., 50., 0.));
#446 = CARTESIAN_POINT('', (50., 50., 80.));
#447 = ADVANCED_FACE('', (#448), #462, .F.);
#448 = FACE_OUTER_BOUND('', #449, .F.);
#449 = EDGE_LOOP('', (#450, #451, #456, #457));
#450 = ORIENTED_EDGE('', *, *, #120, .F.);
#451 = ORIENTED_EDGE('', *, *, #452, .F.);
#452 = EDGE_CURVE('', #224, #100, #453, .T.);
#453 = B_SPLINE_CURVE_WITH_KNOTS('', 1, (#454, #455), .UNSPECIFIED., .F., .U., (2, 2), (0., 0.625), .UNSPECIFIED.);
#454 = CARTESIAN_POINT('', (90., 90., 0.));
#455 = CARTESIAN_POINT('', (90., 90., 50.));
#456 = ORIENTED_EDGE('', *, *, #232, .F.);
#457 = ORIENTED_EDGE('', *, *, #458, .T.);
#458 = EDGE_CURVE('', #233, #114, #459, .T.);
#459 = B_SPLINE_CURVE_WITH_KNOTS('', 1, (#460, #461), .UNSPECIFIED., .F., .U., (2, 2), (0., 0.625), .UNSPECIFIED.);
#460 = CARTESIAN_POINT('', (110., 90., 0.));
#461 = CARTESIAN_POINT('', (110., 90., 50.));
#462 = B_SPLINE_SURFACE_WITH_KNOTS('', 1, 1, ((#463, #464), (#465, #466)), .UNSPECIFIED., .F., .F., .U., (2, 2), (2, 2), (0., 1.), (0., 1.), .UNSPECIFIED.);
#463 = CARTESIAN_POINT('', (90., 90., 0.));
#464 = CARTESIAN_POINT('', (90., 90., 80.));
#465 = CARTESIAN_POINT('', (110., 90., 0.));
#466 = CARTESIAN_POINT('', (110., 90., 80.));
#467 = ADVANCED_FACE('', (#468), #478, .F.);
#468 = FACE_OUTER_BOUND('', #469, .F.);
#469 = EDGE_LOOP('', (#470, #471, #472, #473));
#470 = ORIENTED_EDGE('', *, *, #113, .F.);
#471 = ORIENTED_EDGE('', *, *, #458, .F.);
#472 = ORIENTED_EDGE('', *, *, #239, .F.);
#473 = ORIENTED_EDGE('', *, *, #474, .T.);
#474 = EDGE_CURVE('', #240, #107, #475, .T.);
#475 = B_SPLINE_CURVE_WITH_KNOTS('', 1, (#476, #477), .UNSPECIFIED., .F., .U., (2, 2), (0., 0.625), .UNSPECIFIED.);
#476 = CARTESIAN_POINT('', (110., 110., 0.));
#477 = CARTESIAN_POINT('', (110., 110., 50.));
#478 = B_SPLINE_SURFACE_WITH_KNOTS('', 1, 1, ((#479, #480), (#481, #482)), .UNSPECIFIED., .F., .F., .U., (2, 2), (2, 2), (0., 1.), (0., 1.), .UNSPECIFIED.);
#479 = CARTESIAN_POINT('', (110., 90., 0.));
#480 = CARTESIAN_POINT('', (110., 90., 80.));
#481 = CARTESIAN_POINT('', (110., 110., 0.));
#482 = CARTESIAN_POINT('', (110., 110., 80.));
#483 = ADVANCED_FACE('', (#484), #494, .F.);
#484 = FACE_OUTER_BOUND('', #485, .F.);
#485 = EDGE_LOOP('', (#486, #487, #488, #489));
#486 = ORIENTED_EDGE('', *, *, #106, .F.);
#487 = ORIENTED_EDGE('', *, *, #474, .F.);
#488 = ORIENTED_EDGE('', *, *, #246, .F.);
#489 = ORIENTED_EDGE('', *, *, #490, .T.);
#490 = EDGE_CURVE('', #226, #98, #491, .T.);
#491 = B_SPLINE_CURVE_WITH_KNOTS('', 1, (#492, #493), .UNSPECIFIED., .F., .U., (2, 2), (0., 0.625), .UNSPECIFIED.);
#492 = CARTESIAN_POINT('', (90., 110., 0.));
#493 = CARTESIAN_POINT('', (90., 110., 50.));
#494 = B_SPLINE_SURFACE_WITH_KNOTS('', 1, 1, ((#495, #496), (#497, #498)), .UNSPECIFIED., .F., .F., .U., (2, 2), (2, 2), (0., 1.), (0., 1.), .UNSPECIFIED.);
#495 = CARTESIAN_POINT('', (110., 110., 0.));
#496 = CARTESIAN_POINT('', (110., 110., 80.));
#497 = CARTESIAN_POINT('', (90., 110., 0.));
#498 = CARTESIAN_POINT('', (90., 110., 80.));
#499 = ADVANCED_FACE('', (#500), #506, .F.);
#500 = FACE_OUTER_BOUND('', #501, .F.);
#501 = EDGE_LOOP('', (#502, #503, #504, #505));
#502 = ORIENTED_EDGE('', *, *, #97, .F.);
#503 = ORIENTED_EDGE('', *, *, #490, .F.);
#504 = ORIENTED_EDGE('', *, *, #223, .F.);
#505 = ORIENTED_EDGE('', *, *, #452, .T.);
#506 = B_SPLINE_SURFACE_WITH_KNOTS('', 1, 1, ((#507, #508), (#509, #510)), .UNSPECIFIED., .F., .F., .U., (2, 2), (2, 2), (0., 1.), (0., 1.), .UNSPECIFIED.);
#507 = CARTESIAN_POINT('', (90., 110., 0.));
#508 = CARTESIAN_POINT('', (90., 110., 80.));
#509 = CARTESIAN_POINT('', (90., 90., 0.));
#510 = CARTESIAN_POINT('', (90., 90., 80.));
#511 = DRAUGHTING_MODEL('', (#519), #522);
#512 = PRESENTATION_STYLE_ASSIGNMENT((#513));
#513 = SURFACE_STYLE_USAGE(.POSITIVE., #514);
#514 = SURFACE_SIDE_STYLE('', (#515));
#515 = SURFACE_STYLE_FILL_AREA(#516);
#516 = FILL_AREA_STYLE('', (#517));
#517 = FILL_AREA_STYLE_COLOUR('', #518);
#518 = COLOUR_RGB('', 0.50196078431373, 0.50196078431373, 0.50196078431373);
#519 = STYLED_ITEM('', (#512), #1);
#520 = CARTESIAN_POINT('Origin', (0., 0., 0.));
#521 = GEOMETRIC_SET('', (#520));
#522 = (
   GEOMETRIC_REPRESENTATION_CONTEXT (3)
   GLOBAL_UNCERTAINTY_ASSIGNED_CONTEXT ((#524))
   GLOBAL_UNIT_ASSIGNED_CONTEXT ((#523, #525, #526))
   REPRESENTATION_CONTEXT ('', '3D')
);
#523 = (
   LENGTH_UNIT ()
   NAMED_UNIT (*)
   SI_UNIT (.MILLI., .METRE.)
);
#524 = UNCERTAINTY_MEASURE_WITH_UNIT(LENGTH_MEASURE(1.E-6), #523, 'DISTANCE_ACCURACY_VALUE', '');
#525 = (
   NAMED_UNIT (*)
   SI_UNIT ($, .STERADIAN.)
   SOLID_ANGLE_UNIT ()
);
#526 = (
   NAMED_UNIT (*)
   PLANE_ANGLE_UNIT ()
   SI_UNIT ($, .RADIAN.)
);
#527 = SHAPE_REPRESENTATION('', (#542), #522);
#528 = PRODUCT_DEFINITION_SHAPE('', '', #529);
#529 = PRODUCT_DEFINITION('', '', #532, #536);
#530 = APPLICATION_CONTEXT('configuration controlled 3D designs of mechanical parts and assemblies');
#531 = APPLICATION_PROTOCOL_DEFINITION('International Standard', 'automotive_design', 2002, #530);
#532 = PRODUCT_DEFINITION_FORMATION_WITH_SPECIFIED_SOURCE('', '', #533, .NOT_KNOWN.);
#533 = PRODUCT('MultiTool', 'MultiTool', '', (#534));
#534 = PRODUCT_CONTEXT('', #530, 'mechanical');
#535 = PRODUCT_RELATED_PRODUCT_CATEGORY('detail', '', (#533));
#536 = PRODUCT_DEFINITION_CONTEXT('part definition', #530, 'design');
#537 = SHAPE_DEFINITION_REPRESENTATION(#528, #527);
#538 = SHAPE_REPRESENTATION_RELATIONSHIP('', '', #527, #539);
#539 = SHAPE_REPRESENTATION('', (#521), #522);
#540 = SHAPE_REPRESENTATION_RELATIONSHIP('', '', #527, #541);
#541 = ADVANCED_BREP_SHAPE_REPRESENTATION('', (#1), #522);
#542 = AXIS2_PLACEMENT_3D('', #543, #544, #545);
#543 = CARTESIAN_POINT('', (0., 0., 0.));
#544 = DIRECTION('', (0., 0., 1.));
#545 = DIRECTION('', (1., 0., 0.));
ENDSEC;
END-ISO-10303-21;
