ISO-10303-21;
HEADER;
FILE_DESCRIPTION(('STEP'), '1');
FILE_NAME('NoOverlap', '2026-03-20T13:06:57', (''), (''), 'Express 3.1.2.0', 'Express Tool', 'Unknown');
FILE_SCHEMA(('AUTOMOTIVE_DESIGN'));
ENDSEC;

DATA;
#1 = SHELL_BASED_SURFACE_MODEL('Union_0', (#2, #139));
#2 = CLOSED_SHELL('', (#3, #39, #75, #95, #111, #127));
#3 = ADVANCED_FACE('', (#4), #34, .F.);
#4 = FACE_OUTER_BOUND('', #5, .F.);
#5 = EDGE_LOOP('', (#6, #15, #22, #29));
#6 = ORIENTED_EDGE('', *, *, #7, .T.);
#7 = EDGE_CURVE('', #8, #10, #12, .T.);
#8 = VERTEX_POINT('', #9);
#9 = CARTESIAN_POINT('', (0., 40., 40.));
#10 = VERTEX_POINT('', #11);
#11 = CARTESIAN_POINT('', (0., 0., 40.));
#12 = B_SPLINE_CURVE_WITH_KNOTS('', 1, (#13, #14), .UNSPECIFIED., .F., .U., (2, 2), (0., 1.), .UNSPECIFIED.);
#13 = CARTESIAN_POINT('', (0., 40., 40.));
#14 = CARTESIAN_POINT('', (0., 0., 40.));
#15 = ORIENTED_EDGE('', *, *, #16, .T.);
#16 = EDGE_CURVE('', #10, #17, #19, .T.);
#17 = VERTEX_POINT('', #18);
#18 = CARTESIAN_POINT('', (40., 0., 40.));
#19 = B_SPLINE_CURVE_WITH_KNOTS('', 1, (#20, #21), .UNSPECIFIED., .F., .U., (2, 2), (0., 1.), .UNSPECIFIED.);
#20 = CARTESIAN_POINT('', (0., 0., 40.));
#21 = CARTESIAN_POINT('', (40., 0., 40.));
#22 = ORIENTED_EDGE('', *, *, #23, .T.);
#23 = EDGE_CURVE('', #17, #24, #26, .T.);
#24 = VERTEX_POINT('', #25);
#25 = CARTESIAN_POINT('', (40., 40., 40.));
#26 = B_SPLINE_CURVE_WITH_KNOTS('', 1, (#27, #28), .UNSPECIFIED., .F., .U., (2, 2), (0., 1.), .UNSPECIFIED.);
#27 = CARTESIAN_POINT('', (40., 0., 40.));
#28 = CARTESIAN_POINT('', (40., 40., 40.));
#29 = ORIENTED_EDGE('', *, *, #30, .T.);
#30 = EDGE_CURVE('', #24, #8, #31, .T.);
#31 = B_SPLINE_CURVE_WITH_KNOTS('', 1, (#32, #33), .UNSPECIFIED., .F., .U., (2, 2), (0., 1.), .UNSPECIFIED.);
#32 = CARTESIAN_POINT('', (40., 40., 40.));
#33 = CARTESIAN_POINT('', (0., 40., 40.));
#34 = B_SPLINE_SURFACE_WITH_KNOTS('', 1, 1, ((#35, #36), (#37, #38)), .UNSPECIFIED., .F., .F., .U., (2, 2), (2, 2), (0., 1.), (0., 1.), .UNSPECIFIED.);
#35 = CARTESIAN_POINT('', (51.1126983722081, -11.1126983722081, 40.));
#36 = CARTESIAN_POINT('', (-11.1126983722081, -11.1126983722081, 40.));
#37 = CARTESIAN_POINT('', (51.1126983722081, 51.1126983722081, 40.));
#38 = CARTESIAN_POINT('', (-11.1126983722081, 51.1126983722081, 40.));
#39 = ADVANCED_FACE('', (#40), #70, .F.);
#40 = FACE_OUTER_BOUND('', #41, .F.);
#41 = EDGE_LOOP('', (#42, #51, #58, #65));
#42 = ORIENTED_EDGE('', *, *, #43, .F.);
#43 = EDGE_CURVE('', #44, #46, #48, .T.);
#44 = VERTEX_POINT('', #45);
#45 = CARTESIAN_POINT('', (0., 40., 0.));
#46 = VERTEX_POINT('', #47);
#47 = CARTESIAN_POINT('', (0., 0., 0.));
#48 = B_SPLINE_CURVE_WITH_KNOTS('', 1, (#49, #50), .UNSPECIFIED., .F., .U., (2, 2), (0., 1.), .UNSPECIFIED.);
#49 = CARTESIAN_POINT('', (0., 40., 0.));
#50 = CARTESIAN_POINT('', (0., 0., 0.));
#51 = ORIENTED_EDGE('', *, *, #52, .F.);
#52 = EDGE_CURVE('', #53, #44, #55, .T.);
#53 = VERTEX_POINT('', #54);
#54 = CARTESIAN_POINT('', (40., 40., 0.));
#55 = B_SPLINE_CURVE_WITH_KNOTS('', 1, (#56, #57), .UNSPECIFIED., .F., .U., (2, 2), (0., 1.), .UNSPECIFIED.);
#56 = CARTESIAN_POINT('', (40., 40., 0.));
#57 = CARTESIAN_POINT('', (0., 40., 0.));
#58 = ORIENTED_EDGE('', *, *, #59, .F.);
#59 = EDGE_CURVE('', #60, #53, #62, .T.);
#60 = VERTEX_POINT('', #61);
#61 = CARTESIAN_POINT('', (40., 0., 0.));
#62 = B_SPLINE_CURVE_WITH_KNOTS('', 1, (#63, #64), .UNSPECIFIED., .F., .U., (2, 2), (0., 1.), .UNSPECIFIED.);
#63 = CARTESIAN_POINT('', (40., 0., 0.));
#64 = CARTESIAN_POINT('', (40., 40., 0.));
#65 = ORIENTED_EDGE('', *, *, #66, .F.);
#66 = EDGE_CURVE('', #46, #60, #67, .T.);
#67 = B_SPLINE_CURVE_WITH_KNOTS('', 1, (#68, #69), .UNSPECIFIED., .F., .U., (2, 2), (0., 1.), .UNSPECIFIED.);
#68 = CARTESIAN_POINT('', (0., 0., 0.));
#69 = CARTESIAN_POINT('', (40., 0., 0.));
#70 = B_SPLINE_SURFACE_WITH_KNOTS('', 1, 1, ((#71, #72), (#73, #74)), .UNSPECIFIED., .F., .F., .U., (2, 2), (2, 2), (0., 1.), (0., 1.), .UNSPECIFIED.);
#71 = CARTESIAN_POINT('', (51.1126983722081, -11.1126983722081, 0.));
#72 = CARTESIAN_POINT('', (51.1126983722081, 51.1126983722081, 0.));
#73 = CARTESIAN_POINT('', (-11.1126983722081, -11.1126983722081, 0.));
#74 = CARTESIAN_POINT('', (-11.1126983722081, 51.1126983722081, 0.));
#75 = ADVANCED_FACE('', (#76), #90, .F.);
#76 = FACE_OUTER_BOUND('', #77, .F.);
#77 = EDGE_LOOP('', (#78, #83, #84, #89));
#78 = ORIENTED_EDGE('', *, *, #79, .F.);
#79 = EDGE_CURVE('', #44, #8, #80, .T.);
#80 = B_SPLINE_CURVE_WITH_KNOTS('', 1, (#81, #82), .UNSPECIFIED., .F., .U., (2, 2), (0., 1.), .UNSPECIFIED.);
#81 = CARTESIAN_POINT('', (0., 40., 0.));
#82 = CARTESIAN_POINT('', (0., 40., 40.));
#83 = ORIENTED_EDGE('', *, *, #43, .T.);
#84 = ORIENTED_EDGE('', *, *, #85, .T.);
#85 = EDGE_CURVE('', #46, #10, #86, .T.);
#86 = B_SPLINE_CURVE_WITH_KNOTS('', 1, (#87, #88), .UNSPECIFIED., .F., .U., (2, 2), (0., 1.), .UNSPECIFIED.);
#87 = CARTESIAN_POINT('', (0., 0., 0.));
#88 = CARTESIAN_POINT('', (0., 0., 40.));
#89 = ORIENTED_EDGE('', *, *, #7, .F.);
#90 = B_SPLINE_SURFACE_WITH_KNOTS('', 1, 1, ((#91, #92), (#93, #94)), .UNSPECIFIED., .F., .F., .U., (2, 2), (2, 2), (0., 1.), (0., 1.), .UNSPECIFIED.);
#91 = CARTESIAN_POINT('', (0., 40., 0.));
#92 = CARTESIAN_POINT('', (0., 40., 40.));
#93 = CARTESIAN_POINT('', (0., 0., 0.));
#94 = CARTESIAN_POINT('', (0., 0., 40.));
#95 = ADVANCED_FACE('', (#96), #106, .F.);
#96 = FACE_OUTER_BOUND('', #97, .F.);
#97 = EDGE_LOOP('', (#98, #99, #100, #105));
#98 = ORIENTED_EDGE('', *, *, #85, .F.);
#99 = ORIENTED_EDGE('', *, *, #66, .T.);
#100 = ORIENTED_EDGE('', *, *, #101, .T.);
#101 = EDGE_CURVE('', #60, #17, #102, .T.);
#102 = B_SPLINE_CURVE_WITH_KNOTS('', 1, (#103, #104), .UNSPECIFIED., .F., .U., (2, 2), (0., 1.), .UNSPECIFIED.);
#103 = CARTESIAN_POINT('', (40., 0., 0.));
#104 = CARTESIAN_POINT('', (40., 0., 40.));
#105 = ORIENTED_EDGE('', *, *, #16, .F.);
#106 = B_SPLINE_SURFACE_WITH_KNOTS('', 1, 1, ((#107, #108), (#109, #110)), .UNSPECIFIED., .F., .F., .U., (2, 2), (2, 2), (0., 1.), (0., 1.), .UNSPECIFIED.);
#107 = CARTESIAN_POINT('', (0., 0., 0.));
#108 = CARTESIAN_POINT('', (0., 0., 40.));
#109 = CARTESIAN_POINT('', (40., 0., 0.));
#110 = CARTESIAN_POINT('', (40., 0., 40.));
#111 = ADVANCED_FACE('', (#112), #122, .F.);
#112 = FACE_OUTER_BOUND('', #113, .F.);
#113 = EDGE_LOOP('', (#114, #119, #120, #121));
#114 = ORIENTED_EDGE('', *, *, #115, .F.);
#115 = EDGE_CURVE('', #53, #24, #116, .T.);
#116 = B_SPLINE_CURVE_WITH_KNOTS('', 1, (#117, #118), .UNSPECIFIED., .F., .U., (2, 2), (0., 1.), .UNSPECIFIED.);
#117 = CARTESIAN_POINT('', (40., 40., 0.));
#118 = CARTESIAN_POINT('', (40., 40., 40.));
#119 = ORIENTED_EDGE('', *, *, #52, .T.);
#120 = ORIENTED_EDGE('', *, *, #79, .T.);
#121 = ORIENTED_EDGE('', *, *, #30, .F.);
#122 = B_SPLINE_SURFACE_WITH_KNOTS('', 1, 1, ((#123, #124), (#125, #126)), .UNSPECIFIED., .F., .F., .U., (2, 2), (2, 2), (0., 1.), (0., 1.), .UNSPECIFIED.);
#123 = CARTESIAN_POINT('', (40., 40., 0.));
#124 = CARTESIAN_POINT('', (40., 40., 40.));
#125 = CARTESIAN_POINT('', (0., 40., 0.));
#126 = CARTESIAN_POINT('', (0., 40., 40.));
#127 = ADVANCED_FACE('', (#128), #134, .F.);
#128 = FACE_OUTER_BOUND('', #129, .F.);
#129 = EDGE_LOOP('', (#130, #131, #132, #133));
#130 = ORIENTED_EDGE('', *, *, #101, .F.);
#131 = ORIENTED_EDGE('', *, *, #59, .T.);
#132 = ORIENTED_EDGE('', *, *, #115, .T.);
#133 = ORIENTED_EDGE('', *, *, #23, .F.);
#134 = B_SPLINE_SURFACE_WITH_KNOTS('', 1, 1, ((#135, #136), (#137, #138)), .UNSPECIFIED., .F., .F., .U., (2, 2), (2, 2), (0., 1.), (0., 1.), .UNSPECIFIED.);
#135 = CARTESIAN_POINT('', (40., 0., 0.));
#136 = CARTESIAN_POINT('', (40., 0., 40.));
#137 = CARTESIAN_POINT('', (40., 40., 0.));
#138 = CARTESIAN_POINT('', (40., 40., 40.));
#139 = CLOSED_SHELL('', (#140, #176, #204, #226, #248, #264));
#140 = ADVANCED_FACE('', (#141), #171, .F.);
#141 = FACE_OUTER_BOUND('', #142, .F.);
#142 = EDGE_LOOP('', (#143, #152, #159, #166));
#143 = ORIENTED_EDGE('', *, *, #144, .F.);
#144 = EDGE_CURVE('', #145, #147, #149, .T.);
#145 = VERTEX_POINT('', #146);
#146 = CARTESIAN_POINT('', (100., 140., 0.));
#147 = VERTEX_POINT('', #148);
#148 = CARTESIAN_POINT('', (100., 140., 40.));
#149 = B_SPLINE_CURVE_WITH_KNOTS('', 1, (#150, #151), .UNSPECIFIED., .F., .U., (2, 2), (0., 1.), .UNSPECIFIED.);
#150 = CARTESIAN_POINT('', (100., 140., 0.));
#151 = CARTESIAN_POINT('', (100., 140., 40.));
#152 = ORIENTED_EDGE('', *, *, #153, .T.);
#153 = EDGE_CURVE('', #145, #154, #156, .T.);
#154 = VERTEX_POINT('', #155);
#155 = CARTESIAN_POINT('', (100., 100., 0.));
#156 = B_SPLINE_CURVE_WITH_KNOTS('', 1, (#157, #158), .UNSPECIFIED., .F., .U., (2, 2), (0., 1.), .UNSPECIFIED.);
#157 = CARTESIAN_POINT('', (100., 140., 0.));
#158 = CARTESIAN_POINT('', (100., 100., 0.));
#159 = ORIENTED_EDGE('', *, *, #160, .T.);
#160 = EDGE_CURVE('', #154, #161, #163, .T.);
#161 = VERTEX_POINT('', #162);
#162 = CARTESIAN_POINT('', (100., 100., 40.));
#163 = B_SPLINE_CURVE_WITH_KNOTS('', 1, (#164, #165), .UNSPECIFIED., .F., .U., (2, 2), (0., 1.), .UNSPECIFIED.);
#164 = CARTESIAN_POINT('', (100., 100., 0.));
#165 = CARTESIAN_POINT('', (100., 100., 40.));
#166 = ORIENTED_EDGE('', *, *, #167, .F.);
#167 = EDGE_CURVE('', #147, #161, #168, .T.);
#168 = B_SPLINE_CURVE_WITH_KNOTS('', 1, (#169, #170), .UNSPECIFIED., .F., .U., (2, 2), (0., 1.), .UNSPECIFIED.);
#169 = CARTESIAN_POINT('', (100., 140., 40.));
#170 = CARTESIAN_POINT('', (100., 100., 40.));
#171 = B_SPLINE_SURFACE_WITH_KNOTS('', 1, 1, ((#172, #173), (#174, #175)), .UNSPECIFIED., .F., .F., .U., (2, 2), (2, 2), (0., 1.), (0., 1.), .UNSPECIFIED.);
#172 = CARTESIAN_POINT('', (100., 140., 0.));
#173 = CARTESIAN_POINT('', (100., 140., 40.));
#174 = CARTESIAN_POINT('', (100., 100., 0.));
#175 = CARTESIAN_POINT('', (100., 100., 40.));
#176 = ADVANCED_FACE('', (#177), #199, .F.);
#177 = FACE_OUTER_BOUND('', #178, .F.);
#178 = EDGE_LOOP('', (#179, #180, #187, #194));
#179 = ORIENTED_EDGE('', *, *, #153, .F.);
#180 = ORIENTED_EDGE('', *, *, #181, .F.);
#181 = EDGE_CURVE('', #182, #145, #184, .T.);
#182 = VERTEX_POINT('', #183);
#183 = CARTESIAN_POINT('', (140., 140., 0.));
#184 = B_SPLINE_CURVE_WITH_KNOTS('', 1, (#185, #186), .UNSPECIFIED., .F., .U., (2, 2), (0., 1.), .UNSPECIFIED.);
#185 = CARTESIAN_POINT('', (140., 140., 0.));
#186 = CARTESIAN_POINT('', (100., 140., 0.));
#187 = ORIENTED_EDGE('', *, *, #188, .F.);
#188 = EDGE_CURVE('', #189, #182, #191, .T.);
#189 = VERTEX_POINT('', #190);
#190 = CARTESIAN_POINT('', (140., 100., 0.));
#191 = B_SPLINE_CURVE_WITH_KNOTS('', 1, (#192, #193), .UNSPECIFIED., .F., .U., (2, 2), (0., 1.), .UNSPECIFIED.);
#192 = CARTESIAN_POINT('', (140., 100., 0.));
#193 = CARTESIAN_POINT('', (140., 140., 0.));
#194 = ORIENTED_EDGE('', *, *, #195, .F.);
#195 = EDGE_CURVE('', #154, #189, #196, .T.);
#196 = B_SPLINE_CURVE_WITH_KNOTS('', 1, (#197, #198), .UNSPECIFIED., .F., .U., (2, 2), (0., 1.), .UNSPECIFIED.);
#197 = CARTESIAN_POINT('', (100., 100., 0.));
#198 = CARTESIAN_POINT('', (140., 100., 0.));
#199 = B_SPLINE_SURFACE_WITH_KNOTS('', 1, 1, ((#200, #201), (#202, #203)), .UNSPECIFIED., .F., .F., .U., (2, 2), (2, 2), (0., 1.), (0., 1.), .UNSPECIFIED.);
#200 = CARTESIAN_POINT('', (151.112698372208, 88.8873016277919, 0.));
#201 = CARTESIAN_POINT('', (151.112698372208, 151.112698372208, 0.));
#202 = CARTESIAN_POINT('', (88.8873016277919, 88.8873016277919, 0.));
#203 = CARTESIAN_POINT('', (88.8873016277919, 151.112698372208, 0.));
#204 = ADVANCED_FACE('', (#205), #221, .F.);
#205 = FACE_OUTER_BOUND('', #206, .F.);
#206 = EDGE_LOOP('', (#207, #214, #215, #216));
#207 = ORIENTED_EDGE('', *, *, #208, .F.);
#208 = EDGE_CURVE('', #182, #209, #211, .T.);
#209 = VERTEX_POINT('', #210);
#210 = CARTESIAN_POINT('', (140., 140., 40.));
#211 = B_SPLINE_CURVE_WITH_KNOTS('', 1, (#212, #213), .UNSPECIFIED., .F., .U., (2, 2), (0., 1.), .UNSPECIFIED.);
#212 = CARTESIAN_POINT('', (140., 140., 0.));
#213 = CARTESIAN_POINT('', (140., 140., 40.));
#214 = ORIENTED_EDGE('', *, *, #181, .T.);
#215 = ORIENTED_EDGE('', *, *, #144, .T.);
#216 = ORIENTED_EDGE('', *, *, #217, .F.);
#217 = EDGE_CURVE('', #209, #147, #218, .T.);
#218 = B_SPLINE_CURVE_WITH_KNOTS('', 1, (#219, #220), .UNSPECIFIED., .F., .U., (2, 2), (0., 1.), .UNSPECIFIED.);
#219 = CARTESIAN_POINT('', (140., 140., 40.));
#220 = CARTESIAN_POINT('', (100., 140., 40.));
#221 = B_SPLINE_SURFACE_WITH_KNOTS('', 1, 1, ((#222, #223), (#224, #225)), .UNSPECIFIED., .F., .F., .U., (2, 2), (2, 2), (0., 1.), (0., 1.), .UNSPECIFIED.);
#222 = CARTESIAN_POINT('', (140., 140., 0.));
#223 = CARTESIAN_POINT('', (140., 140., 40.));
#224 = CARTESIAN_POINT('', (100., 140., 0.));
#225 = CARTESIAN_POINT('', (100., 140., 40.));
#226 = ADVANCED_FACE('', (#227), #243, .F.);
#227 = FACE_OUTER_BOUND('', #228, .F.);
#228 = EDGE_LOOP('', (#229, #230, #237, #242));
#229 = ORIENTED_EDGE('', *, *, #167, .T.);
#230 = ORIENTED_EDGE('', *, *, #231, .T.);
#231 = EDGE_CURVE('', #161, #232, #234, .T.);
#232 = VERTEX_POINT('', #233);
#233 = CARTESIAN_POINT('', (140., 100., 40.));
#234 = B_SPLINE_CURVE_WITH_KNOTS('', 1, (#235, #236), .UNSPECIFIED., .F., .U., (2, 2), (0., 1.), .UNSPECIFIED.);
#235 = CARTESIAN_POINT('', (100., 100., 40.));
#236 = CARTESIAN_POINT('', (140., 100., 40.));
#237 = ORIENTED_EDGE('', *, *, #238, .T.);
#238 = EDGE_CURVE('', #232, #209, #239, .T.);
#239 = B_SPLINE_CURVE_WITH_KNOTS('', 1, (#240, #241), .UNSPECIFIED., .F., .U., (2, 2), (0., 1.), .UNSPECIFIED.);
#240 = CARTESIAN_POINT('', (140., 100., 40.));
#241 = CARTESIAN_POINT('', (140., 140., 40.));
#242 = ORIENTED_EDGE('', *, *, #217, .T.);
#243 = B_SPLINE_SURFACE_WITH_KNOTS('', 1, 1, ((#244, #245), (#246, #247)), .UNSPECIFIED., .F., .F., .U., (2, 2), (2, 2), (0., 1.), (0., 1.), .UNSPECIFIED.);
#244 = CARTESIAN_POINT('', (151.112698372208, 88.8873016277919, 40.));
#245 = CARTESIAN_POINT('', (88.8873016277919, 88.8873016277919, 40.));
#246 = CARTESIAN_POINT('', (151.112698372208, 151.112698372208, 40.));
#247 = CARTESIAN_POINT('', (88.8873016277919, 151.112698372208, 40.));
#248 = ADVANCED_FACE('', (#249), #259, .F.);
#249 = FACE_OUTER_BOUND('', #250, .F.);
#250 = EDGE_LOOP('', (#251, #252, #253, #258));
#251 = ORIENTED_EDGE('', *, *, #160, .F.);
#252 = ORIENTED_EDGE('', *, *, #195, .T.);
#253 = ORIENTED_EDGE('', *, *, #254, .T.);
#254 = EDGE_CURVE('', #189, #232, #255, .T.);
#255 = B_SPLINE_CURVE_WITH_KNOTS('', 1, (#256, #257), .UNSPECIFIED., .F., .U., (2, 2), (0., 1.), .UNSPECIFIED.);
#256 = CARTESIAN_POINT('', (140., 100., 0.));
#257 = CARTESIAN_POINT('', (140., 100., 40.));
#258 = ORIENTED_EDGE('', *, *, #231, .F.);
#259 = B_SPLINE_SURFACE_WITH_KNOTS('', 1, 1, ((#260, #261), (#262, #263)), .UNSPECIFIED., .F., .F., .U., (2, 2), (2, 2), (0., 1.), (0., 1.), .UNSPECIFIED.);
#260 = CARTESIAN_POINT('', (100., 100., 0.));
#261 = CARTESIAN_POINT('', (100., 100., 40.));
#262 = CARTESIAN_POINT('', (140., 100., 0.));
#263 = CARTESIAN_POINT('', (140., 100., 40.));
#264 = ADVANCED_FACE('', (#265), #271, .F.);
#265 = FACE_OUTER_BOUND('', #266, .F.);
#266 = EDGE_LOOP('', (#267, #268, #269, #270));
#267 = ORIENTED_EDGE('', *, *, #254, .F.);
#268 = ORIENTED_EDGE('', *, *, #188, .T.);
#269 = ORIENTED_EDGE('', *, *, #208, .T.);
#270 = ORIENTED_EDGE('', *, *, #238, .F.);
#271 = B_SPLINE_SURFACE_WITH_KNOTS('', 1, 1, ((#272, #273), (#274, #275)), .UNSPECIFIED., .F., .F., .U., (2, 2), (2, 2), (0., 1.), (0., 1.), .UNSPECIFIED.);
#272 = CARTESIAN_POINT('', (140., 100., 0.));
#273 = CARTESIAN_POINT('', (140., 100., 40.));
#274 = CARTESIAN_POINT('', (140., 140., 0.));
#275 = CARTESIAN_POINT('', (140., 140., 40.));
#276 = DRAUGHTING_MODEL('', (#284), #287);
#277 = PRESENTATION_STYLE_ASSIGNMENT((#278));
#278 = SURFACE_STYLE_USAGE(.POSITIVE., #279);
#279 = SURFACE_SIDE_STYLE('', (#280));
#280 = SURFACE_STYLE_FILL_AREA(#281);
#281 = FILL_AREA_STYLE('', (#282));
#282 = FILL_AREA_STYLE_COLOUR('', #283);
#283 = COLOUR_RGB('', 0.50196078431373, 0.50196078431373, 0.50196078431373);
#284 = STYLED_ITEM('', (#277), #1);
#285 = CARTESIAN_POINT('Origin', (0., 0., 0.));
#286 = GEOMETRIC_SET('', (#285));
#287 = (
   GEOMETRIC_REPRESENTATION_CONTEXT (3)
   GLOBAL_UNCERTAINTY_ASSIGNED_CONTEXT ((#289))
   GLOBAL_UNIT_ASSIGNED_CONTEXT ((#288, #290, #291))
   REPRESENTATION_CONTEXT ('', '3D')
);
#288 = (
   LENGTH_UNIT ()
   NAMED_UNIT (*)
   SI_UNIT (.MILLI., .METRE.)
);
#289 = UNCERTAINTY_MEASURE_WITH_UNIT(LENGTH_MEASURE(1.E-6), #288, 'DISTANCE_ACCURACY_VALUE', '');
#290 = (
   NAMED_UNIT (*)
   SI_UNIT ($, .STERADIAN.)
   SOLID_ANGLE_UNIT ()
);
#291 = (
   NAMED_UNIT (*)
   PLANE_ANGLE_UNIT ()
   SI_UNIT ($, .RADIAN.)
);
#292 = SHAPE_REPRESENTATION('', (#307), #287);
#293 = PRODUCT_DEFINITION_SHAPE('', '', #294);
#294 = PRODUCT_DEFINITION('', '', #297, #301);
#295 = APPLICATION_CONTEXT('configuration controlled 3D designs of mechanical parts and assemblies');
#296 = APPLICATION_PROTOCOL_DEFINITION('International Standard', 'automotive_design', 2002, #295);
#297 = PRODUCT_DEFINITION_FORMATION_WITH_SPECIFIED_SOURCE('', '', #298, .NOT_KNOWN.);
#298 = PRODUCT('NoOverlap', 'NoOverlap', '', (#299));
#299 = PRODUCT_CONTEXT('', #295, 'mechanical');
#300 = PRODUCT_RELATED_PRODUCT_CATEGORY('detail', '', (#298));
#301 = PRODUCT_DEFINITION_CONTEXT('part definition', #295, 'design');
#302 = SHAPE_DEFINITION_REPRESENTATION(#293, #292);
#303 = SHAPE_REPRESENTATION_RELATIONSHIP('', '', #292, #304);
#304 = SHAPE_REPRESENTATION('', (#286), #287);
#305 = SHAPE_REPRESENTATION_RELATIONSHIP('', '', #292, #306);
#306 = MANIFOLD_SURFACE_SHAPE_REPRESENTATION('', (#1), #287);
#307 = AXIS2_PLACEMENT_3D('', #308, #309, #310);
#308 = CARTESIAN_POINT('', (0., 0., 0.));
#309 = DIRECTION('', (0., 0., 1.));
#310 = DIRECTION('', (1., 0., 0.));
ENDSEC;
END-ISO-10303-21;
