ISO-10303-21;
HEADER;
FILE_DESCRIPTION(('STEP'), '1');
FILE_NAME('UpdateTgtTool', '2026-03-20T13:14:30', (''), (''), 'Express 3.1.2.0', 'Express Tool', 'Unknown');
FILE_SCHEMA(('AUTOMOTIVE_DESIGN'));
ENDSEC;

DATA;
#1 = MANIFOLD_SOLID_BREP('Extrusion1_0', #2);
#2 = CLOSED_SHELL('', (#3, #39, #75, #95, #111, #127));
#3 = ADVANCED_FACE('', (#4), #34, .T.);
#4 = FACE_OUTER_BOUND('', #5, .T.);
#5 = EDGE_LOOP('', (#6, #15, #22, #29));
#6 = ORIENTED_EDGE('', *, *, #7, .T.);
#7 = EDGE_CURVE('', #8, #10, #12, .T.);
#8 = VERTEX_POINT('', #9);
#9 = CARTESIAN_POINT('', (40., 100., 60.));
#10 = VERTEX_POINT('', #11);
#11 = CARTESIAN_POINT('', (40., 40., 60.));
#12 = B_SPLINE_CURVE_WITH_KNOTS('', 1, (#13, #14), .UNSPECIFIED., .F., .U., (2, 2), (0., 1.), .UNSPECIFIED.);
#13 = CARTESIAN_POINT('', (40., 100., 60.));
#14 = CARTESIAN_POINT('', (40., 40., 60.));
#15 = ORIENTED_EDGE('', *, *, #16, .T.);
#16 = EDGE_CURVE('', #10, #17, #19, .T.);
#17 = VERTEX_POINT('', #18);
#18 = CARTESIAN_POINT('', (100., 40., 60.));
#19 = B_SPLINE_CURVE_WITH_KNOTS('', 1, (#20, #21), .UNSPECIFIED., .F., .U., (2, 2), (0., 1.), .UNSPECIFIED.);
#20 = CARTESIAN_POINT('', (40., 40., 60.));
#21 = CARTESIAN_POINT('', (100., 40., 60.));
#22 = ORIENTED_EDGE('', *, *, #23, .T.);
#23 = EDGE_CURVE('', #17, #24, #26, .T.);
#24 = VERTEX_POINT('', #25);
#25 = CARTESIAN_POINT('', (100., 100., 60.));
#26 = B_SPLINE_CURVE_WITH_KNOTS('', 1, (#27, #28), .UNSPECIFIED., .F., .U., (2, 2), (0., 1.), .UNSPECIFIED.);
#27 = CARTESIAN_POINT('', (100., 40., 60.));
#28 = CARTESIAN_POINT('', (100., 100., 60.));
#29 = ORIENTED_EDGE('', *, *, #30, .T.);
#30 = EDGE_CURVE('', #24, #8, #31, .T.);
#31 = B_SPLINE_CURVE_WITH_KNOTS('', 1, (#32, #33), .UNSPECIFIED., .F., .U., (2, 2), (0., 1.), .UNSPECIFIED.);
#32 = CARTESIAN_POINT('', (100., 100., 60.));
#33 = CARTESIAN_POINT('', (40., 100., 60.));
#34 = B_SPLINE_SURFACE_WITH_KNOTS('', 1, 1, ((#35, #36), (#37, #38)), .UNSPECIFIED., .F., .F., .U., (2, 2), (2, 2), (0., 1.), (0., 1.), .UNSPECIFIED.);
#35 = CARTESIAN_POINT('', (116.669047558312, 23.3309524416879, 60.));
#36 = CARTESIAN_POINT('', (23.3309524416879, 23.3309524416879, 60.));
#37 = CARTESIAN_POINT('', (116.669047558312, 116.669047558312, 60.));
#38 = CARTESIAN_POINT('', (23.3309524416879, 116.669047558312, 60.));
#39 = ADVANCED_FACE('', (#40), #70, .T.);
#40 = FACE_OUTER_BOUND('', #41, .T.);
#41 = EDGE_LOOP('', (#42, #51, #58, #65));
#42 = ORIENTED_EDGE('', *, *, #43, .F.);
#43 = EDGE_CURVE('', #44, #46, #48, .T.);
#44 = VERTEX_POINT('', #45);
#45 = CARTESIAN_POINT('', (40., 100., 0.));
#46 = VERTEX_POINT('', #47);
#47 = CARTESIAN_POINT('', (40., 40., 0.));
#48 = B_SPLINE_CURVE_WITH_KNOTS('', 1, (#49, #50), .UNSPECIFIED., .F., .U., (2, 2), (0., 1.), .UNSPECIFIED.);
#49 = CARTESIAN_POINT('', (40., 100., 0.));
#50 = CARTESIAN_POINT('', (40., 40., 0.));
#51 = ORIENTED_EDGE('', *, *, #52, .F.);
#52 = EDGE_CURVE('', #53, #44, #55, .T.);
#53 = VERTEX_POINT('', #54);
#54 = CARTESIAN_POINT('', (100., 100., 0.));
#55 = B_SPLINE_CURVE_WITH_KNOTS('', 1, (#56, #57), .UNSPECIFIED., .F., .U., (2, 2), (0., 1.), .UNSPECIFIED.);
#56 = CARTESIAN_POINT('', (100., 100., 0.));
#57 = CARTESIAN_POINT('', (40., 100., 0.));
#58 = ORIENTED_EDGE('', *, *, #59, .F.);
#59 = EDGE_CURVE('', #60, #53, #62, .T.);
#60 = VERTEX_POINT('', #61);
#61 = CARTESIAN_POINT('', (100., 40., 0.));
#62 = B_SPLINE_CURVE_WITH_KNOTS('', 1, (#63, #64), .UNSPECIFIED., .F., .U., (2, 2), (0., 1.), .UNSPECIFIED.);
#63 = CARTESIAN_POINT('', (100., 40., 0.));
#64 = CARTESIAN_POINT('', (100., 100., 0.));
#65 = ORIENTED_EDGE('', *, *, #66, .F.);
#66 = EDGE_CURVE('', #46, #60, #67, .T.);
#67 = B_SPLINE_CURVE_WITH_KNOTS('', 1, (#68, #69), .UNSPECIFIED., .F., .U., (2, 2), (0., 1.), .UNSPECIFIED.);
#68 = CARTESIAN_POINT('', (40., 40., 0.));
#69 = CARTESIAN_POINT('', (100., 40., 0.));
#70 = B_SPLINE_SURFACE_WITH_KNOTS('', 1, 1, ((#71, #72), (#73, #74)), .UNSPECIFIED., .F., .F., .U., (2, 2), (2, 2), (0., 1.), (0., 1.), .UNSPECIFIED.);
#71 = CARTESIAN_POINT('', (116.669047558312, 23.3309524416879, 0.));
#72 = CARTESIAN_POINT('', (116.669047558312, 116.669047558312, 0.));
#73 = CARTESIAN_POINT('', (23.3309524416879, 23.3309524416879, 0.));
#74 = CARTESIAN_POINT('', (23.3309524416879, 116.669047558312, 0.));
#75 = ADVANCED_FACE('', (#76), #90, .T.);
#76 = FACE_OUTER_BOUND('', #77, .T.);
#77 = EDGE_LOOP('', (#78, #83, #84, #89));
#78 = ORIENTED_EDGE('', *, *, #79, .F.);
#79 = EDGE_CURVE('', #44, #8, #80, .T.);
#80 = B_SPLINE_CURVE_WITH_KNOTS('', 1, (#81, #82), .UNSPECIFIED., .F., .U., (2, 2), (0., 1.), .UNSPECIFIED.);
#81 = CARTESIAN_POINT('', (40., 100., 0.));
#82 = CARTESIAN_POINT('', (40., 100., 60.));
#83 = ORIENTED_EDGE('', *, *, #43, .T.);
#84 = ORIENTED_EDGE('', *, *, #85, .T.);
#85 = EDGE_CURVE('', #46, #10, #86, .T.);
#86 = B_SPLINE_CURVE_WITH_KNOTS('', 1, (#87, #88), .UNSPECIFIED., .F., .U., (2, 2), (0., 1.), .UNSPECIFIED.);
#87 = CARTESIAN_POINT('', (40., 40., 0.));
#88 = CARTESIAN_POINT('', (40., 40., 60.));
#89 = ORIENTED_EDGE('', *, *, #7, .F.);
#90 = B_SPLINE_SURFACE_WITH_KNOTS('', 1, 1, ((#91, #92), (#93, #94)), .UNSPECIFIED., .F., .F., .U., (2, 2), (2, 2), (0., 1.), (0., 1.), .UNSPECIFIED.);
#91 = CARTESIAN_POINT('', (40., 100., 0.));
#92 = CARTESIAN_POINT('', (40., 100., 60.));
#93 = CARTESIAN_POINT('', (40., 40., 0.));
#94 = CARTESIAN_POINT('', (40., 40., 60.));
#95 = ADVANCED_FACE('', (#96), #106, .T.);
#96 = FACE_OUTER_BOUND('', #97, .T.);
#97 = EDGE_LOOP('', (#98, #99, #100, #105));
#98 = ORIENTED_EDGE('', *, *, #85, .F.);
#99 = ORIENTED_EDGE('', *, *, #66, .T.);
#100 = ORIENTED_EDGE('', *, *, #101, .T.);
#101 = EDGE_CURVE('', #60, #17, #102, .T.);
#102 = B_SPLINE_CURVE_WITH_KNOTS('', 1, (#103, #104), .UNSPECIFIED., .F., .U., (2, 2), (0., 1.), .UNSPECIFIED.);
#103 = CARTESIAN_POINT('', (100., 40., 0.));
#104 = CARTESIAN_POINT('', (100., 40., 60.));
#105 = ORIENTED_EDGE('', *, *, #16, .F.);
#106 = B_SPLINE_SURFACE_WITH_KNOTS('', 1, 1, ((#107, #108), (#109, #110)), .UNSPECIFIED., .F., .F., .U., (2, 2), (2, 2), (0., 1.), (0., 1.), .UNSPECIFIED.);
#107 = CARTESIAN_POINT('', (40., 40., 0.));
#108 = CARTESIAN_POINT('', (40., 40., 60.));
#109 = CARTESIAN_POINT('', (100., 40., 0.));
#110 = CARTESIAN_POINT('', (100., 40., 60.));
#111 = ADVANCED_FACE('', (#112), #122, .T.);
#112 = FACE_OUTER_BOUND('', #113, .T.);
#113 = EDGE_LOOP('', (#114, #119, #120, #121));
#114 = ORIENTED_EDGE('', *, *, #115, .F.);
#115 = EDGE_CURVE('', #53, #24, #116, .T.);
#116 = B_SPLINE_CURVE_WITH_KNOTS('', 1, (#117, #118), .UNSPECIFIED., .F., .U., (2, 2), (0., 1.), .UNSPECIFIED.);
#117 = CARTESIAN_POINT('', (100., 100., 0.));
#118 = CARTESIAN_POINT('', (100., 100., 60.));
#119 = ORIENTED_EDGE('', *, *, #52, .T.);
#120 = ORIENTED_EDGE('', *, *, #79, .T.);
#121 = ORIENTED_EDGE('', *, *, #30, .F.);
#122 = B_SPLINE_SURFACE_WITH_KNOTS('', 1, 1, ((#123, #124), (#125, #126)), .UNSPECIFIED., .F., .F., .U., (2, 2), (2, 2), (0., 1.), (0., 1.), .UNSPECIFIED.);
#123 = CARTESIAN_POINT('', (100., 100., 0.));
#124 = CARTESIAN_POINT('', (100., 100., 60.));
#125 = CARTESIAN_POINT('', (40., 100., 0.));
#126 = CARTESIAN_POINT('', (40., 100., 60.));
#127 = ADVANCED_FACE('', (#128), #134, .T.);
#128 = FACE_OUTER_BOUND('', #129, .T.);
#129 = EDGE_LOOP('', (#130, #131, #132, #133));
#130 = ORIENTED_EDGE('', *, *, #101, .F.);
#131 = ORIENTED_EDGE('', *, *, #59, .T.);
#132 = ORIENTED_EDGE('', *, *, #115, .T.);
#133 = ORIENTED_EDGE('', *, *, #23, .F.);
#134 = B_SPLINE_SURFACE_WITH_KNOTS('', 1, 1, ((#135, #136), (#137, #138)), .UNSPECIFIED., .F., .F., .U., (2, 2), (2, 2), (0., 1.), (0., 1.), .UNSPECIFIED.);
#135 = CARTESIAN_POINT('', (100., 40., 0.));
#136 = CARTESIAN_POINT('', (100., 40., 60.));
#137 = CARTESIAN_POINT('', (100., 100., 0.));
#138 = CARTESIAN_POINT('', (100., 100., 60.));
#139 = DRAUGHTING_MODEL('', (#147, #417), #420);
#140 = PRESENTATION_STYLE_ASSIGNMENT((#141));
#141 = SURFACE_STYLE_USAGE(.POSITIVE., #142);
#142 = SURFACE_SIDE_STYLE('', (#143));
#143 = SURFACE_STYLE_FILL_AREA(#144);
#144 = FILL_AREA_STYLE('', (#145));
#145 = FILL_AREA_STYLE_COLOUR('', #146);
#146 = COLOUR_RGB('', 0.50196078431373, 0.50196078431373, 0.50196078431373);
#147 = STYLED_ITEM('', (#140), #1);
#148 = MANIFOLD_SOLID_BREP('Subtraction_0', #149);
#149 = CLOSED_SHELL('', (#150, #216, #282, #302, #318, #334, #346, #366, #382, #398));
#150 = ADVANCED_FACE('', (#151, #181), #211, .T.);
#151 = FACE_OUTER_BOUND('', #152, .T.);
#152 = EDGE_LOOP('', (#153, #162, #169, #176));
#153 = ORIENTED_EDGE('', *, *, #154, .T.);
#154 = EDGE_CURVE('', #155, #157, #159, .T.);
#155 = VERTEX_POINT('', #156);
#156 = CARTESIAN_POINT('', (0., 80., 50.));
#157 = VERTEX_POINT('', #158);
#158 = CARTESIAN_POINT('', (0., 0., 50.));
#159 = B_SPLINE_CURVE_WITH_KNOTS('', 1, (#160, #161), .UNSPECIFIED., .F., .U., (2, 2), (0., 1.), .UNSPECIFIED.);
#160 = CARTESIAN_POINT('', (0., 80., 50.));
#161 = CARTESIAN_POINT('', (0., 0., 50.));
#162 = ORIENTED_EDGE('', *, *, #163, .T.);
#163 = EDGE_CURVE('', #157, #164, #166, .T.);
#164 = VERTEX_POINT('', #165);
#165 = CARTESIAN_POINT('', (80., 0., 50.));
#166 = B_SPLINE_CURVE_WITH_KNOTS('', 1, (#167, #168), .UNSPECIFIED., .F., .U., (2, 2), (0., 1.), .UNSPECIFIED.);
#167 = CARTESIAN_POINT('', (0., 0., 50.));
#168 = CARTESIAN_POINT('', (80., 0., 50.));
#169 = ORIENTED_EDGE('', *, *, #170, .T.);
#170 = EDGE_CURVE('', #164, #171, #173, .T.);
#171 = VERTEX_POINT('', #172);
#172 = CARTESIAN_POINT('', (80., 80., 50.));
#173 = B_SPLINE_CURVE_WITH_KNOTS('', 1, (#174, #175), .UNSPECIFIED., .F., .U., (2, 2), (0., 1.), .UNSPECIFIED.);
#174 = CARTESIAN_POINT('', (80., 0., 50.));
#175 = CARTESIAN_POINT('', (80., 80., 50.));
#176 = ORIENTED_EDGE('', *, *, #177, .T.);
#177 = EDGE_CURVE('', #171, #155, #178, .T.);
#178 = B_SPLINE_CURVE_WITH_KNOTS('', 1, (#179, #180), .UNSPECIFIED., .F., .U., (2, 2), (0., 1.), .UNSPECIFIED.);
#179 = CARTESIAN_POINT('', (80., 80., 50.));
#180 = CARTESIAN_POINT('', (0., 80., 50.));
#181 = FACE_BOUND('', #182, .T.);
#182 = EDGE_LOOP('', (#183, #192, #199, #206));
#183 = ORIENTED_EDGE('', *, *, #184, .F.);
#184 = EDGE_CURVE('', #185, #187, #189, .T.);
#185 = VERTEX_POINT('', #186);
#186 = CARTESIAN_POINT('', (20., 60., 50.));
#187 = VERTEX_POINT('', #188);
#188 = CARTESIAN_POINT('', (20., 20., 50.));
#189 = B_SPLINE_CURVE_WITH_KNOTS('', 1, (#190, #191), .UNSPECIFIED., .F., .U., (2, 2), (0., 1.), .UNSPECIFIED.);
#190 = CARTESIAN_POINT('', (20., 60., 50.));
#191 = CARTESIAN_POINT('', (20., 20., 50.));
#192 = ORIENTED_EDGE('', *, *, #193, .F.);
#193 = EDGE_CURVE('', #194, #185, #196, .T.);
#194 = VERTEX_POINT('', #195);
#195 = CARTESIAN_POINT('', (60., 60., 50.));
#196 = B_SPLINE_CURVE_WITH_KNOTS('', 1, (#197, #198), .UNSPECIFIED., .F., .U., (2, 2), (0., 1.), .UNSPECIFIED.);
#197 = CARTESIAN_POINT('', (60., 60., 50.));
#198 = CARTESIAN_POINT('', (20., 60., 50.));
#199 = ORIENTED_EDGE('', *, *, #200, .F.);
#200 = EDGE_CURVE('', #201, #194, #203, .T.);
#201 = VERTEX_POINT('', #202);
#202 = CARTESIAN_POINT('', (60., 20., 50.));
#203 = B_SPLINE_CURVE_WITH_KNOTS('', 1, (#204, #205), .UNSPECIFIED., .F., .U., (2, 2), (0., 1.), .UNSPECIFIED.);
#204 = CARTESIAN_POINT('', (60., 20., 50.));
#205 = CARTESIAN_POINT('', (60., 60., 50.));
#206 = ORIENTED_EDGE('', *, *, #207, .F.);
#207 = EDGE_CURVE('', #187, #201, #208, .T.);
#208 = B_SPLINE_CURVE_WITH_KNOTS('', 1, (#209, #210), .UNSPECIFIED., .F., .U., (2, 2), (0., 1.), .UNSPECIFIED.);
#209 = CARTESIAN_POINT('', (20., 20., 50.));
#210 = CARTESIAN_POINT('', (60., 20., 50.));
#211 = B_SPLINE_SURFACE_WITH_KNOTS('', 1, 1, ((#212, #213), (#214, #215)), .UNSPECIFIED., .F., .F., .U., (2, 2), (2, 2), (0., 1.), (0., 1.), .UNSPECIFIED.);
#212 = CARTESIAN_POINT('', (102.225396744416, -22.2253967444162, 50.));
#213 = CARTESIAN_POINT('', (-22.2253967444162, -22.2253967444162, 50.));
#214 = CARTESIAN_POINT('', (102.225396744416, 102.225396744416, 50.));
#215 = CARTESIAN_POINT('', (-22.2253967444162, 102.225396744416, 50.));
#216 = ADVANCED_FACE('', (#217, #247), #277, .T.);
#217 = FACE_OUTER_BOUND('', #218, .T.);
#218 = EDGE_LOOP('', (#219, #228, #235, #242));
#219 = ORIENTED_EDGE('', *, *, #220, .F.);
#220 = EDGE_CURVE('', #221, #223, #225, .T.);
#221 = VERTEX_POINT('', #222);
#222 = CARTESIAN_POINT('', (0., 80., 0.));
#223 = VERTEX_POINT('', #224);
#224 = CARTESIAN_POINT('', (0., 0., 0.));
#225 = B_SPLINE_CURVE_WITH_KNOTS('', 1, (#226, #227), .UNSPECIFIED., .F., .U., (2, 2), (0., 1.), .UNSPECIFIED.);
#226 = CARTESIAN_POINT('', (0., 80., 0.));
#227 = CARTESIAN_POINT('', (0., 0., 0.));
#228 = ORIENTED_EDGE('', *, *, #229, .F.);
#229 = EDGE_CURVE('', #230, #221, #232, .T.);
#230 = VERTEX_POINT('', #231);
#231 = CARTESIAN_POINT('', (80., 80., 0.));
#232 = B_SPLINE_CURVE_WITH_KNOTS('', 1, (#233, #234), .UNSPECIFIED., .F., .U., (2, 2), (0., 1.), .UNSPECIFIED.);
#233 = CARTESIAN_POINT('', (80., 80., 0.));
#234 = CARTESIAN_POINT('', (0., 80., 0.));
#235 = ORIENTED_EDGE('', *, *, #236, .F.);
#236 = EDGE_CURVE('', #237, #230, #239, .T.);
#237 = VERTEX_POINT('', #238);
#238 = CARTESIAN_POINT('', (80., 0., 0.));
#239 = B_SPLINE_CURVE_WITH_KNOTS('', 1, (#240, #241), .UNSPECIFIED., .F., .U., (2, 2), (0., 1.), .UNSPECIFIED.);
#240 = CARTESIAN_POINT('', (80., 0., 0.));
#241 = CARTESIAN_POINT('', (80., 80., 0.));
#242 = ORIENTED_EDGE('', *, *, #243, .F.);
#243 = EDGE_CURVE('', #223, #237, #244, .T.);
#244 = B_SPLINE_CURVE_WITH_KNOTS('', 1, (#245, #246), .UNSPECIFIED., .F., .U., (2, 2), (0., 1.), .UNSPECIFIED.);
#245 = CARTESIAN_POINT('', (0., 0., 0.));
#246 = CARTESIAN_POINT('', (80., 0., 0.));
#247 = FACE_BOUND('', #248, .T.);
#248 = EDGE_LOOP('', (#249, #258, #265, #272));
#249 = ORIENTED_EDGE('', *, *, #250, .F.);
#250 = EDGE_CURVE('', #251, #253, #255, .T.);
#251 = VERTEX_POINT('', #252);
#252 = CARTESIAN_POINT('', (20., 20., 0.));
#253 = VERTEX_POINT('', #254);
#254 = CARTESIAN_POINT('', (20., 60., 0.));
#255 = B_SPLINE_CURVE_WITH_KNOTS('', 1, (#256, #257), .UNSPECIFIED., .F., .U., (2, 2), (0., 1.), .UNSPECIFIED.);
#256 = CARTESIAN_POINT('', (20., 20., 0.));
#257 = CARTESIAN_POINT('', (20., 60., 0.));
#258 = ORIENTED_EDGE('', *, *, #259, .F.);
#259 = EDGE_CURVE('', #260, #251, #262, .T.);
#260 = VERTEX_POINT('', #261);
#261 = CARTESIAN_POINT('', (60., 20., 0.));
#262 = B_SPLINE_CURVE_WITH_KNOTS('', 1, (#263, #264), .UNSPECIFIED., .F., .U., (2, 2), (0., 1.), .UNSPECIFIED.);
#263 = CARTESIAN_POINT('', (60., 20., 0.));
#264 = CARTESIAN_POINT('', (20., 20., 0.));
#265 = ORIENTED_EDGE('', *, *, #266, .F.);
#266 = EDGE_CURVE('', #267, #260, #269, .T.);
#267 = VERTEX_POINT('', #268);
#268 = CARTESIAN_POINT('', (60., 60., 0.));
#269 = B_SPLINE_CURVE_WITH_KNOTS('', 1, (#270, #271), .UNSPECIFIED., .F., .U., (2, 2), (0., 1.), .UNSPECIFIED.);
#270 = CARTESIAN_POINT('', (60., 60., 0.));
#271 = CARTESIAN_POINT('', (60., 20., 0.));
#272 = ORIENTED_EDGE('', *, *, #273, .F.);
#273 = EDGE_CURVE('', #253, #267, #274, .T.);
#274 = B_SPLINE_CURVE_WITH_KNOTS('', 1, (#275, #276), .UNSPECIFIED., .F., .U., (2, 2), (0., 1.), .UNSPECIFIED.);
#275 = CARTESIAN_POINT('', (20., 60., 0.));
#276 = CARTESIAN_POINT('', (60., 60., 0.));
#277 = B_SPLINE_SURFACE_WITH_KNOTS('', 1, 1, ((#278, #279), (#280, #281)), .UNSPECIFIED., .F., .F., .U., (2, 2), (2, 2), (0., 1.), (0., 1.), .UNSPECIFIED.);
#278 = CARTESIAN_POINT('', (102.225396744416, -22.2253967444162, 0.));
#279 = CARTESIAN_POINT('', (102.225396744416, 102.225396744416, 0.));
#280 = CARTESIAN_POINT('', (-22.2253967444162, -22.2253967444162, 0.));
#281 = CARTESIAN_POINT('', (-22.2253967444162, 102.225396744416, 0.));
#282 = ADVANCED_FACE('', (#283), #297, .T.);
#283 = FACE_OUTER_BOUND('', #284, .T.);
#284 = EDGE_LOOP('', (#285, #290, #291, #296));
#285 = ORIENTED_EDGE('', *, *, #286, .F.);
#286 = EDGE_CURVE('', #221, #155, #287, .T.);
#287 = B_SPLINE_CURVE_WITH_KNOTS('', 1, (#288, #289), .UNSPECIFIED., .F., .U., (2, 2), (0., 1.), .UNSPECIFIED.);
#288 = CARTESIAN_POINT('', (0., 80., 0.));
#289 = CARTESIAN_POINT('', (0., 80., 50.));
#290 = ORIENTED_EDGE('', *, *, #220, .T.);
#291 = ORIENTED_EDGE('', *, *, #292, .T.);
#292 = EDGE_CURVE('', #223, #157, #293, .T.);
#293 = B_SPLINE_CURVE_WITH_KNOTS('', 1, (#294, #295), .UNSPECIFIED., .F., .U., (2, 2), (0., 1.), .UNSPECIFIED.);
#294 = CARTESIAN_POINT('', (0., 0., 0.));
#295 = CARTESIAN_POINT('', (0., 0., 50.));
#296 = ORIENTED_EDGE('', *, *, #154, .F.);
#297 = B_SPLINE_SURFACE_WITH_KNOTS('', 1, 1, ((#298, #299), (#300, #301)), .UNSPECIFIED., .F., .F., .U., (2, 2), (2, 2), (0., 1.), (0., 1.), .UNSPECIFIED.);
#298 = CARTESIAN_POINT('', (0., 80., 0.));
#299 = CARTESIAN_POINT('', (0., 80., 50.));
#300 = CARTESIAN_POINT('', (0., 0., 0.));
#301 = CARTESIAN_POINT('', (0., 0., 50.));
#302 = ADVANCED_FACE('', (#303), #313, .T.);
#303 = FACE_OUTER_BOUND('', #304, .T.);
#304 = EDGE_LOOP('', (#305, #306, #307, #312));
#305 = ORIENTED_EDGE('', *, *, #292, .F.);
#306 = ORIENTED_EDGE('', *, *, #243, .T.);
#307 = ORIENTED_EDGE('', *, *, #308, .T.);
#308 = EDGE_CURVE('', #237, #164, #309, .T.);
#309 = B_SPLINE_CURVE_WITH_KNOTS('', 1, (#310, #311), .UNSPECIFIED., .F., .U., (2, 2), (0., 1.), .UNSPECIFIED.);
#310 = CARTESIAN_POINT('', (80., 0., 0.));
#311 = CARTESIAN_POINT('', (80., 0., 50.));
#312 = ORIENTED_EDGE('', *, *, #163, .F.);
#313 = B_SPLINE_SURFACE_WITH_KNOTS('', 1, 1, ((#314, #315), (#316, #317)), .UNSPECIFIED., .F., .F., .U., (2, 2), (2, 2), (0., 1.), (0., 1.), .UNSPECIFIED.);
#314 = CARTESIAN_POINT('', (0., 0., 0.));
#315 = CARTESIAN_POINT('', (0., 0., 50.));
#316 = CARTESIAN_POINT('', (80., 0., 0.));
#317 = CARTESIAN_POINT('', (80., 0., 50.));
#318 = ADVANCED_FACE('', (#319), #329, .T.);
#319 = FACE_OUTER_BOUND('', #320, .T.);
#320 = EDGE_LOOP('', (#321, #326, #327, #328));
#321 = ORIENTED_EDGE('', *, *, #322, .F.);
#322 = EDGE_CURVE('', #230, #171, #323, .T.);
#323 = B_SPLINE_CURVE_WITH_KNOTS('', 1, (#324, #325), .UNSPECIFIED., .F., .U., (2, 2), (0., 1.), .UNSPECIFIED.);
#324 = CARTESIAN_POINT('', (80., 80., 0.));
#325 = CARTESIAN_POINT('', (80., 80., 50.));
#326 = ORIENTED_EDGE('', *, *, #229, .T.);
#327 = ORIENTED_EDGE('', *, *, #286, .T.);
#328 = ORIENTED_EDGE('', *, *, #177, .F.);
#329 = B_SPLINE_SURFACE_WITH_KNOTS('', 1, 1, ((#330, #331), (#332, #333)), .UNSPECIFIED., .F., .F., .U., (2, 2), (2, 2), (0., 1.), (0., 1.), .UNSPECIFIED.);
#330 = CARTESIAN_POINT('', (80., 80., 0.));
#331 = CARTESIAN_POINT('', (80., 80., 50.));
#332 = CARTESIAN_POINT('', (0., 80., 0.));
#333 = CARTESIAN_POINT('', (0., 80., 50.));
#334 = ADVANCED_FACE('', (#335), #341, .T.);
#335 = FACE_OUTER_BOUND('', #336, .T.);
#336 = EDGE_LOOP('', (#337, #338, #339, #340));
#337 = ORIENTED_EDGE('', *, *, #308, .F.);
#338 = ORIENTED_EDGE('', *, *, #236, .T.);
#339 = ORIENTED_EDGE('', *, *, #322, .T.);
#340 = ORIENTED_EDGE('', *, *, #170, .F.);
#341 = B_SPLINE_SURFACE_WITH_KNOTS('', 1, 1, ((#342, #343), (#344, #345)), .UNSPECIFIED., .F., .F., .U., (2, 2), (2, 2), (0., 1.), (0., 1.), .UNSPECIFIED.);
#342 = CARTESIAN_POINT('', (80., 0., 0.));
#343 = CARTESIAN_POINT('', (80., 0., 50.));
#344 = CARTESIAN_POINT('', (80., 80., 0.));
#345 = CARTESIAN_POINT('', (80., 80., 50.));
#346 = ADVANCED_FACE('', (#347), #361, .F.);
#347 = FACE_OUTER_BOUND('', #348, .F.);
#348 = EDGE_LOOP('', (#349, #350, #355, #356));
#349 = ORIENTED_EDGE('', *, *, #207, .F.);
#350 = ORIENTED_EDGE('', *, *, #351, .F.);
#351 = EDGE_CURVE('', #251, #187, #352, .T.);
#352 = B_SPLINE_CURVE_WITH_KNOTS('', 1, (#353, #354), .UNSPECIFIED., .F., .U., (2, 2), (0., 0.714285714285714), .UNSPECIFIED.);
#353 = CARTESIAN_POINT('', (20., 20., 0.));
#354 = CARTESIAN_POINT('', (20., 20., 50.));
#355 = ORIENTED_EDGE('', *, *, #259, .F.);
#356 = ORIENTED_EDGE('', *, *, #357, .T.);
#357 = EDGE_CURVE('', #260, #201, #358, .T.);
#358 = B_SPLINE_CURVE_WITH_KNOTS('', 1, (#359, #360), .UNSPECIFIED., .F., .U., (2, 2), (0., 0.714285714285714), .UNSPECIFIED.);
#359 = CARTESIAN_POINT('', (60., 20., 0.));
#360 = CARTESIAN_POINT('', (60., 20., 50.));
#361 = B_SPLINE_SURFACE_WITH_KNOTS('', 1, 1, ((#362, #363), (#364, #365)), .UNSPECIFIED., .F., .F., .U., (2, 2), (2, 2), (0., 1.), (0., 1.), .UNSPECIFIED.);
#362 = CARTESIAN_POINT('', (20., 20., 0.));
#363 = CARTESIAN_POINT('', (20., 20., 70.));
#364 = CARTESIAN_POINT('', (60., 20., 0.));
#365 = CARTESIAN_POINT('', (60., 20., 70.));
#366 = ADVANCED_FACE('', (#367), #377, .F.);
#367 = FACE_OUTER_BOUND('', #368, .F.);
#368 = EDGE_LOOP('', (#369, #370, #371, #372));
#369 = ORIENTED_EDGE('', *, *, #200, .F.);
#370 = ORIENTED_EDGE('', *, *, #357, .F.);
#371 = ORIENTED_EDGE('', *, *, #266, .F.);
#372 = ORIENTED_EDGE('', *, *, #373, .T.);
#373 = EDGE_CURVE('', #267, #194, #374, .T.);
#374 = B_SPLINE_CURVE_WITH_KNOTS('', 1, (#375, #376), .UNSPECIFIED., .F., .U., (2, 2), (0., 0.714285714285714), .UNSPECIFIED.);
#375 = CARTESIAN_POINT('', (60., 60., 0.));
#376 = CARTESIAN_POINT('', (60., 60., 50.));
#377 = B_SPLINE_SURFACE_WITH_KNOTS('', 1, 1, ((#378, #379), (#380, #381)), .UNSPECIFIED., .F., .F., .U., (2, 2), (2, 2), (0., 1.), (0., 1.), .UNSPECIFIED.);
#378 = CARTESIAN_POINT('', (60., 20., 0.));
#379 = CARTESIAN_POINT('', (60., 20., 70.));
#380 = CARTESIAN_POINT('', (60., 60., 0.));
#381 = CARTESIAN_POINT('', (60., 60., 70.));
#382 = ADVANCED_FACE('', (#383), #393, .F.);
#383 = FACE_OUTER_BOUND('', #384, .F.);
#384 = EDGE_LOOP('', (#385, #386, #387, #388));
#385 = ORIENTED_EDGE('', *, *, #193, .F.);
#386 = ORIENTED_EDGE('', *, *, #373, .F.);
#387 = ORIENTED_EDGE('', *, *, #273, .F.);
#388 = ORIENTED_EDGE('', *, *, #389, .T.);
#389 = EDGE_CURVE('', #253, #185, #390, .T.);
#390 = B_SPLINE_CURVE_WITH_KNOTS('', 1, (#391, #392), .UNSPECIFIED., .F., .U., (2, 2), (0., 0.714285714285714), .UNSPECIFIED.);
#391 = CARTESIAN_POINT('', (20., 60., 0.));
#392 = CARTESIAN_POINT('', (20., 60., 50.));
#393 = B_SPLINE_SURFACE_WITH_KNOTS('', 1, 1, ((#394, #395), (#396, #397)), .UNSPECIFIED., .F., .F., .U., (2, 2), (2, 2), (0., 1.), (0., 1.), .UNSPECIFIED.);
#394 = CARTESIAN_POINT('', (60., 60., 0.));
#395 = CARTESIAN_POINT('', (60., 60., 70.));
#396 = CARTESIAN_POINT('', (20., 60., 0.));
#397 = CARTESIAN_POINT('', (20., 60., 70.));
#398 = ADVANCED_FACE('', (#399), #405, .F.);
#399 = FACE_OUTER_BOUND('', #400, .F.);
#400 = EDGE_LOOP('', (#401, #402, #403, #404));
#401 = ORIENTED_EDGE('', *, *, #184, .F.);
#402 = ORIENTED_EDGE('', *, *, #389, .F.);
#403 = ORIENTED_EDGE('', *, *, #250, .F.);
#404 = ORIENTED_EDGE('', *, *, #351, .T.);
#405 = B_SPLINE_SURFACE_WITH_KNOTS('', 1, 1, ((#406, #407), (#408, #409)), .UNSPECIFIED., .F., .F., .U., (2, 2), (2, 2), (0., 1.), (0., 1.), .UNSPECIFIED.);
#406 = CARTESIAN_POINT('', (20., 60., 0.));
#407 = CARTESIAN_POINT('', (20., 60., 70.));
#408 = CARTESIAN_POINT('', (20., 20., 0.));
#409 = CARTESIAN_POINT('', (20., 20., 70.));
#410 = PRESENTATION_STYLE_ASSIGNMENT((#411));
#411 = SURFACE_STYLE_USAGE(.POSITIVE., #412);
#412 = SURFACE_SIDE_STYLE('', (#413));
#413 = SURFACE_STYLE_FILL_AREA(#414);
#414 = FILL_AREA_STYLE('', (#415));
#415 = FILL_AREA_STYLE_COLOUR('', #416);
#416 = COLOUR_RGB('', 0.50196078431373, 0.50196078431373, 0.50196078431373);
#417 = STYLED_ITEM('', (#410), #148);
#418 = CARTESIAN_POINT('Origin', (0., 0., 0.));
#419 = GEOMETRIC_SET('', (#418));
#420 = (
   GEOMETRIC_REPRESENTATION_CONTEXT (3)
   GLOBAL_UNCERTAINTY_ASSIGNED_CONTEXT ((#422))
   GLOBAL_UNIT_ASSIGNED_CONTEXT ((#421, #423, #424))
   REPRESENTATION_CONTEXT ('', '3D')
);
#421 = (
   LENGTH_UNIT ()
   NAMED_UNIT (*)
   SI_UNIT (.MILLI., .METRE.)
);
#422 = UNCERTAINTY_MEASURE_WITH_UNIT(LENGTH_MEASURE(1.E-6), #421, 'DISTANCE_ACCURACY_VALUE', '');
#423 = (
   NAMED_UNIT (*)
   SI_UNIT ($, .STERADIAN.)
   SOLID_ANGLE_UNIT ()
);
#424 = (
   NAMED_UNIT (*)
   PLANE_ANGLE_UNIT ()
   SI_UNIT ($, .RADIAN.)
);
#425 = SHAPE_REPRESENTATION('', (#440), #420);
#426 = PRODUCT_DEFINITION_SHAPE('', '', #427);
#427 = PRODUCT_DEFINITION('', '', #430, #434);
#428 = APPLICATION_CONTEXT('configuration controlled 3D designs of mechanical parts and assemblies');
#429 = APPLICATION_PROTOCOL_DEFINITION('International Standard', 'automotive_design', 2002, #428);
#430 = PRODUCT_DEFINITION_FORMATION_WITH_SPECIFIED_SOURCE('', '', #431, .NOT_KNOWN.);
#431 = PRODUCT('UpdateTgtTool', 'UpdateTgtTool', '', (#432));
#432 = PRODUCT_CONTEXT('', #428, 'mechanical');
#433 = PRODUCT_RELATED_PRODUCT_CATEGORY('detail', '', (#431));
#434 = PRODUCT_DEFINITION_CONTEXT('part definition', #428, 'design');
#435 = SHAPE_DEFINITION_REPRESENTATION(#426, #425);
#436 = SHAPE_REPRESENTATION_RELATIONSHIP('', '', #425, #437);
#437 = SHAPE_REPRESENTATION('', (#419), #420);
#438 = SHAPE_REPRESENTATION_RELATIONSHIP('', '', #425, #439);
#439 = ADVANCED_BREP_SHAPE_REPRESENTATION('', (#1, #148), #420);
#440 = AXIS2_PLACEMENT_3D('', #441, #442, #443);
#441 = CARTESIAN_POINT('', (0., 0., 0.));
#442 = DIRECTION('', (0., 0., 1.));
#443 = DIRECTION('', (1., 0., 0.));
ENDSEC;
END-ISO-10303-21;
