ISO-10303-21;
HEADER;
FILE_DESCRIPTION(('STEP'), '1');
FILE_NAME('UpdateTgtTool', '2026-03-20T13:14:30', (''), (''), 'Express 3.1.2.0', 'Express Tool', 'Unknown');
FILE_SCHEMA(('AUTOMOTIVE_DESIGN'));
ENDSEC;

DATA;
#1 = MANIFOLD_SOLID_BREP('Extrusion0_0', #2);
#2 = CLOSED_SHELL('', (#3, #39, #75, #95, #111, #127));
#3 = ADVANCED_FACE('', (#4), #34, .T.);
#4 = FACE_OUTER_BOUND('', #5, .T.);
#5 = EDGE_LOOP('', (#6, #15, #22, #29));
#6 = ORIENTED_EDGE('', *, *, #7, .T.);
#7 = EDGE_CURVE('', #8, #10, #12, .T.);
#8 = VERTEX_POINT('', #9);
#9 = CARTESIAN_POINT('', (20., 60., 70.));
#10 = VERTEX_POINT('', #11);
#11 = CARTESIAN_POINT('', (20., 20., 70.));
#12 = B_SPLINE_CURVE_WITH_KNOTS('', 1, (#13, #14), .UNSPECIFIED., .F., .U., (2, 2), (0., 1.), .UNSPECIFIED.);
#13 = CARTESIAN_POINT('', (20., 60., 70.));
#14 = CARTESIAN_POINT('', (20., 20., 70.));
#15 = ORIENTED_EDGE('', *, *, #16, .T.);
#16 = EDGE_CURVE('', #10, #17, #19, .T.);
#17 = VERTEX_POINT('', #18);
#18 = CARTESIAN_POINT('', (60., 20., 70.));
#19 = B_SPLINE_CURVE_WITH_KNOTS('', 1, (#20, #21), .UNSPECIFIED., .F., .U., (2, 2), (0., 1.), .UNSPECIFIED.);
#20 = CARTESIAN_POINT('', (20., 20., 70.));
#21 = CARTESIAN_POINT('', (60., 20., 70.));
#22 = ORIENTED_EDGE('', *, *, #23, .T.);
#23 = EDGE_CURVE('', #17, #24, #26, .T.);
#24 = VERTEX_POINT('', #25);
#25 = CARTESIAN_POINT('', (60., 60., 70.));
#26 = B_SPLINE_CURVE_WITH_KNOTS('', 1, (#27, #28), .UNSPECIFIED., .F., .U., (2, 2), (0., 1.), .UNSPECIFIED.);
#27 = CARTESIAN_POINT('', (60., 20., 70.));
#28 = CARTESIAN_POINT('', (60., 60., 70.));
#29 = ORIENTED_EDGE('', *, *, #30, .T.);
#30 = EDGE_CURVE('', #24, #8, #31, .T.);
#31 = B_SPLINE_CURVE_WITH_KNOTS('', 1, (#32, #33), .UNSPECIFIED., .F., .U., (2, 2), (0., 1.), .UNSPECIFIED.);
#32 = CARTESIAN_POINT('', (60., 60., 70.));
#33 = CARTESIAN_POINT('', (20., 60., 70.));
#34 = B_SPLINE_SURFACE_WITH_KNOTS('', 1, 1, ((#35, #36), (#37, #38)), .UNSPECIFIED., .F., .F., .U., (2, 2), (2, 2), (0., 1.), (0., 1.), .UNSPECIFIED.);
#35 = CARTESIAN_POINT('', (71.1126983722081, 8.88730162779191, 70.));
#36 = CARTESIAN_POINT('', (8.88730162779191, 8.88730162779191, 70.));
#37 = CARTESIAN_POINT('', (71.1126983722081, 71.1126983722081, 70.));
#38 = CARTESIAN_POINT('', (8.88730162779191, 71.1126983722081, 70.));
#39 = ADVANCED_FACE('', (#40), #70, .T.);
#40 = FACE_OUTER_BOUND('', #41, .T.);
#41 = EDGE_LOOP('', (#42, #51, #58, #65));
#42 = ORIENTED_EDGE('', *, *, #43, .F.);
#43 = EDGE_CURVE('', #44, #46, #48, .T.);
#44 = VERTEX_POINT('', #45);
#45 = CARTESIAN_POINT('', (20., 60., 0.));
#46 = VERTEX_POINT('', #47);
#47 = CARTESIAN_POINT('', (20., 20., 0.));
#48 = B_SPLINE_CURVE_WITH_KNOTS('', 1, (#49, #50), .UNSPECIFIED., .F., .U., (2, 2), (0., 1.), .UNSPECIFIED.);
#49 = CARTESIAN_POINT('', (20., 60., 0.));
#50 = CARTESIAN_POINT('', (20., 20., 0.));
#51 = ORIENTED_EDGE('', *, *, #52, .F.);
#52 = EDGE_CURVE('', #53, #44, #55, .T.);
#53 = VERTEX_POINT('', #54);
#54 = CARTESIAN_POINT('', (60., 60., 0.));
#55 = B_SPLINE_CURVE_WITH_KNOTS('', 1, (#56, #57), .UNSPECIFIED., .F., .U., (2, 2), (0., 1.), .UNSPECIFIED.);
#56 = CARTESIAN_POINT('', (60., 60., 0.));
#57 = CARTESIAN_POINT('', (20., 60., 0.));
#58 = ORIENTED_EDGE('', *, *, #59, .F.);
#59 = EDGE_CURVE('', #60, #53, #62, .T.);
#60 = VERTEX_POINT('', #61);
#61 = CARTESIAN_POINT('', (60., 20., 0.));
#62 = B_SPLINE_CURVE_WITH_KNOTS('', 1, (#63, #64), .UNSPECIFIED., .F., .U., (2, 2), (0., 1.), .UNSPECIFIED.);
#63 = CARTESIAN_POINT('', (60., 20., 0.));
#64 = CARTESIAN_POINT('', (60., 60., 0.));
#65 = ORIENTED_EDGE('', *, *, #66, .F.);
#66 = EDGE_CURVE('', #46, #60, #67, .T.);
#67 = B_SPLINE_CURVE_WITH_KNOTS('', 1, (#68, #69), .UNSPECIFIED., .F., .U., (2, 2), (0., 1.), .UNSPECIFIED.);
#68 = CARTESIAN_POINT('', (20., 20., 0.));
#69 = CARTESIAN_POINT('', (60., 20., 0.));
#70 = B_SPLINE_SURFACE_WITH_KNOTS('', 1, 1, ((#71, #72), (#73, #74)), .UNSPECIFIED., .F., .F., .U., (2, 2), (2, 2), (0., 1.), (0., 1.), .UNSPECIFIED.);
#71 = CARTESIAN_POINT('', (71.1126983722081, 8.88730162779191, 0.));
#72 = CARTESIAN_POINT('', (71.1126983722081, 71.1126983722081, 0.));
#73 = CARTESIAN_POINT('', (8.88730162779191, 8.88730162779191, 0.));
#74 = CARTESIAN_POINT('', (8.88730162779191, 71.1126983722081, 0.));
#75 = ADVANCED_FACE('', (#76), #90, .T.);
#76 = FACE_OUTER_BOUND('', #77, .T.);
#77 = EDGE_LOOP('', (#78, #83, #84, #89));
#78 = ORIENTED_EDGE('', *, *, #79, .F.);
#79 = EDGE_CURVE('', #44, #8, #80, .T.);
#80 = B_SPLINE_CURVE_WITH_KNOTS('', 1, (#81, #82), .UNSPECIFIED., .F., .U., (2, 2), (0., 1.), .UNSPECIFIED.);
#81 = CARTESIAN_POINT('', (20., 60., 0.));
#82 = CARTESIAN_POINT('', (20., 60., 70.));
#83 = ORIENTED_EDGE('', *, *, #43, .T.);
#84 = ORIENTED_EDGE('', *, *, #85, .T.);
#85 = EDGE_CURVE('', #46, #10, #86, .T.);
#86 = B_SPLINE_CURVE_WITH_KNOTS('', 1, (#87, #88), .UNSPECIFIED., .F., .U., (2, 2), (0., 1.), .UNSPECIFIED.);
#87 = CARTESIAN_POINT('', (20., 20., 0.));
#88 = CARTESIAN_POINT('', (20., 20., 70.));
#89 = ORIENTED_EDGE('', *, *, #7, .F.);
#90 = B_SPLINE_SURFACE_WITH_KNOTS('', 1, 1, ((#91, #92), (#93, #94)), .UNSPECIFIED., .F., .F., .U., (2, 2), (2, 2), (0., 1.), (0., 1.), .UNSPECIFIED.);
#91 = CARTESIAN_POINT('', (20., 60., 0.));
#92 = CARTESIAN_POINT('', (20., 60., 70.));
#93 = CARTESIAN_POINT('', (20., 20., 0.));
#94 = CARTESIAN_POINT('', (20., 20., 70.));
#95 = ADVANCED_FACE('', (#96), #106, .T.);
#96 = FACE_OUTER_BOUND('', #97, .T.);
#97 = EDGE_LOOP('', (#98, #99, #100, #105));
#98 = ORIENTED_EDGE('', *, *, #85, .F.);
#99 = ORIENTED_EDGE('', *, *, #66, .T.);
#100 = ORIENTED_EDGE('', *, *, #101, .T.);
#101 = EDGE_CURVE('', #60, #17, #102, .T.);
#102 = B_SPLINE_CURVE_WITH_KNOTS('', 1, (#103, #104), .UNSPECIFIED., .F., .U., (2, 2), (0., 1.), .UNSPECIFIED.);
#103 = CARTESIAN_POINT('', (60., 20., 0.));
#104 = CARTESIAN_POINT('', (60., 20., 70.));
#105 = ORIENTED_EDGE('', *, *, #16, .F.);
#106 = B_SPLINE_SURFACE_WITH_KNOTS('', 1, 1, ((#107, #108), (#109, #110)), .UNSPECIFIED., .F., .F., .U., (2, 2), (2, 2), (0., 1.), (0., 1.), .UNSPECIFIED.);
#107 = CARTESIAN_POINT('', (20., 20., 0.));
#108 = CARTESIAN_POINT('', (20., 20., 70.));
#109 = CARTESIAN_POINT('', (60., 20., 0.));
#110 = CARTESIAN_POINT('', (60., 20., 70.));
#111 = ADVANCED_FACE('', (#112), #122, .T.);
#112 = FACE_OUTER_BOUND('', #113, .T.);
#113 = EDGE_LOOP('', (#114, #119, #120, #121));
#114 = ORIENTED_EDGE('', *, *, #115, .F.);
#115 = EDGE_CURVE('', #53, #24, #116, .T.);
#116 = B_SPLINE_CURVE_WITH_KNOTS('', 1, (#117, #118), .UNSPECIFIED., .F., .U., (2, 2), (0., 1.), .UNSPECIFIED.);
#117 = CARTESIAN_POINT('', (60., 60., 0.));
#118 = CARTESIAN_POINT('', (60., 60., 70.));
#119 = ORIENTED_EDGE('', *, *, #52, .T.);
#120 = ORIENTED_EDGE('', *, *, #79, .T.);
#121 = ORIENTED_EDGE('', *, *, #30, .F.);
#122 = B_SPLINE_SURFACE_WITH_KNOTS('', 1, 1, ((#123, #124), (#125, #126)), .UNSPECIFIED., .F., .F., .U., (2, 2), (2, 2), (0., 1.), (0., 1.), .UNSPECIFIED.);
#123 = CARTESIAN_POINT('', (60., 60., 0.));
#124 = CARTESIAN_POINT('', (60., 60., 70.));
#125 = CARTESIAN_POINT('', (20., 60., 0.));
#126 = CARTESIAN_POINT('', (20., 60., 70.));
#127 = ADVANCED_FACE('', (#128), #134, .T.);
#128 = FACE_OUTER_BOUND('', #129, .T.);
#129 = EDGE_LOOP('', (#130, #131, #132, #133));
#130 = ORIENTED_EDGE('', *, *, #101, .F.);
#131 = ORIENTED_EDGE('', *, *, #59, .T.);
#132 = ORIENTED_EDGE('', *, *, #115, .T.);
#133 = ORIENTED_EDGE('', *, *, #23, .F.);
#134 = B_SPLINE_SURFACE_WITH_KNOTS('', 1, 1, ((#135, #136), (#137, #138)), .UNSPECIFIED., .F., .F., .U., (2, 2), (2, 2), (0., 1.), (0., 1.), .UNSPECIFIED.);
#135 = CARTESIAN_POINT('', (60., 20., 0.));
#136 = CARTESIAN_POINT('', (60., 20., 70.));
#137 = CARTESIAN_POINT('', (60., 60., 0.));
#138 = CARTESIAN_POINT('', (60., 60., 70.));
#139 = DRAUGHTING_MODEL('', (#147, #383), #386);
#140 = PRESENTATION_STYLE_ASSIGNMENT((#141));
#141 = SURFACE_STYLE_USAGE(.POSITIVE., #142);
#142 = SURFACE_SIDE_STYLE('', (#143));
#143 = SURFACE_STYLE_FILL_AREA(#144);
#144 = FILL_AREA_STYLE('', (#145));
#145 = FILL_AREA_STYLE_COLOUR('', #146);
#146 = COLOUR_RGB('', 0.50196078431373, 0.50196078431373, 0.50196078431373);
#147 = STYLED_ITEM('', (#140), #1);
#148 = MANIFOLD_SOLID_BREP('Subtraction_0', #149);
#149 = CLOSED_SHELL('', (#150, #186, #214, #236, #272, #302, #326, #348, #364));
#150 = ADVANCED_FACE('', (#151), #181, .T.);
#151 = FACE_OUTER_BOUND('', #152, .T.);
#152 = EDGE_LOOP('', (#153, #162, #169, #176));
#153 = ORIENTED_EDGE('', *, *, #154, .T.);
#154 = EDGE_CURVE('', #155, #157, #159, .T.);
#155 = VERTEX_POINT('', #156);
#156 = CARTESIAN_POINT('', (40., 100., 60.));
#157 = VERTEX_POINT('', #158);
#158 = CARTESIAN_POINT('', (40., 40., 60.));
#159 = B_SPLINE_CURVE_WITH_KNOTS('', 1, (#160, #161), .UNSPECIFIED., .F., .U., (2, 2), (0., 1.), .UNSPECIFIED.);
#160 = CARTESIAN_POINT('', (40., 100., 60.));
#161 = CARTESIAN_POINT('', (40., 40., 60.));
#162 = ORIENTED_EDGE('', *, *, #163, .T.);
#163 = EDGE_CURVE('', #157, #164, #166, .T.);
#164 = VERTEX_POINT('', #165);
#165 = CARTESIAN_POINT('', (100., 40., 60.));
#166 = B_SPLINE_CURVE_WITH_KNOTS('', 1, (#167, #168), .UNSPECIFIED., .F., .U., (2, 2), (0., 1.), .UNSPECIFIED.);
#167 = CARTESIAN_POINT('', (40., 40., 60.));
#168 = CARTESIAN_POINT('', (100., 40., 60.));
#169 = ORIENTED_EDGE('', *, *, #170, .T.);
#170 = EDGE_CURVE('', #164, #171, #173, .T.);
#171 = VERTEX_POINT('', #172);
#172 = CARTESIAN_POINT('', (100., 100., 60.));
#173 = B_SPLINE_CURVE_WITH_KNOTS('', 1, (#174, #175), .UNSPECIFIED., .F., .U., (2, 2), (0., 1.), .UNSPECIFIED.);
#174 = CARTESIAN_POINT('', (100., 40., 60.));
#175 = CARTESIAN_POINT('', (100., 100., 60.));
#176 = ORIENTED_EDGE('', *, *, #177, .T.);
#177 = EDGE_CURVE('', #171, #155, #178, .T.);
#178 = B_SPLINE_CURVE_WITH_KNOTS('', 1, (#179, #180), .UNSPECIFIED., .F., .U., (2, 2), (0., 1.), .UNSPECIFIED.);
#179 = CARTESIAN_POINT('', (100., 100., 60.));
#180 = CARTESIAN_POINT('', (40., 100., 60.));
#181 = B_SPLINE_SURFACE_WITH_KNOTS('', 1, 1, ((#182, #183), (#184, #185)), .UNSPECIFIED., .F., .F., .U., (2, 2), (2, 2), (0., 1.), (0., 1.), .UNSPECIFIED.);
#182 = CARTESIAN_POINT('', (116.669047558312, 23.3309524416879, 60.));
#183 = CARTESIAN_POINT('', (23.3309524416879, 23.3309524416879, 60.));
#184 = CARTESIAN_POINT('', (116.669047558312, 116.669047558312, 60.));
#185 = CARTESIAN_POINT('', (23.3309524416879, 116.669047558312, 60.));
#186 = ADVANCED_FACE('', (#187), #209, .T.);
#187 = FACE_OUTER_BOUND('', #188, .T.);
#188 = EDGE_LOOP('', (#189, #196, #203, #208));
#189 = ORIENTED_EDGE('', *, *, #190, .F.);
#190 = EDGE_CURVE('', #191, #171, #193, .T.);
#191 = VERTEX_POINT('', #192);
#192 = CARTESIAN_POINT('', (100., 100., 0.));
#193 = B_SPLINE_CURVE_WITH_KNOTS('', 1, (#194, #195), .UNSPECIFIED., .F., .U., (2, 2), (0., 1.), .UNSPECIFIED.);
#194 = CARTESIAN_POINT('', (100., 100., 0.));
#195 = CARTESIAN_POINT('', (100., 100., 60.));
#196 = ORIENTED_EDGE('', *, *, #197, .T.);
#197 = EDGE_CURVE('', #191, #198, #200, .T.);
#198 = VERTEX_POINT('', #199);
#199 = CARTESIAN_POINT('', (40., 100., 0.));
#200 = B_SPLINE_CURVE_WITH_KNOTS('', 1, (#201, #202), .UNSPECIFIED., .F., .U., (2, 2), (0., 1.), .UNSPECIFIED.);
#201 = CARTESIAN_POINT('', (100., 100., 0.));
#202 = CARTESIAN_POINT('', (40., 100., 0.));
#203 = ORIENTED_EDGE('', *, *, #204, .T.);
#204 = EDGE_CURVE('', #198, #155, #205, .T.);
#205 = B_SPLINE_CURVE_WITH_KNOTS('', 1, (#206, #207), .UNSPECIFIED., .F., .U., (2, 2), (0., 1.), .UNSPECIFIED.);
#206 = CARTESIAN_POINT('', (40., 100., 0.));
#207 = CARTESIAN_POINT('', (40., 100., 60.));
#208 = ORIENTED_EDGE('', *, *, #177, .F.);
#209 = B_SPLINE_SURFACE_WITH_KNOTS('', 1, 1, ((#210, #211), (#212, #213)), .UNSPECIFIED., .F., .F., .U., (2, 2), (2, 2), (0., 1.), (0., 1.), .UNSPECIFIED.);
#210 = CARTESIAN_POINT('', (100., 100., 0.));
#211 = CARTESIAN_POINT('', (100., 100., 60.));
#212 = CARTESIAN_POINT('', (40., 100., 0.));
#213 = CARTESIAN_POINT('', (40., 100., 60.));
#214 = ADVANCED_FACE('', (#215), #231, .T.);
#215 = FACE_OUTER_BOUND('', #216, .T.);
#216 = EDGE_LOOP('', (#217, #224, #229, #230));
#217 = ORIENTED_EDGE('', *, *, #218, .F.);
#218 = EDGE_CURVE('', #219, #164, #221, .T.);
#219 = VERTEX_POINT('', #220);
#220 = CARTESIAN_POINT('', (100., 40., 0.));
#221 = B_SPLINE_CURVE_WITH_KNOTS('', 1, (#222, #223), .UNSPECIFIED., .F., .U., (2, 2), (0., 1.), .UNSPECIFIED.);
#222 = CARTESIAN_POINT('', (100., 40., 0.));
#223 = CARTESIAN_POINT('', (100., 40., 60.));
#224 = ORIENTED_EDGE('', *, *, #225, .T.);
#225 = EDGE_CURVE('', #219, #191, #226, .T.);
#226 = B_SPLINE_CURVE_WITH_KNOTS('', 1, (#227, #228), .UNSPECIFIED., .F., .U., (2, 2), (0., 1.), .UNSPECIFIED.);
#227 = CARTESIAN_POINT('', (100., 40., 0.));
#228 = CARTESIAN_POINT('', (100., 100., 0.));
#229 = ORIENTED_EDGE('', *, *, #190, .T.);
#230 = ORIENTED_EDGE('', *, *, #170, .F.);
#231 = B_SPLINE_SURFACE_WITH_KNOTS('', 1, 1, ((#232, #233), (#234, #235)), .UNSPECIFIED., .F., .F., .U., (2, 2), (2, 2), (0., 1.), (0., 1.), .UNSPECIFIED.);
#232 = CARTESIAN_POINT('', (100., 40., 0.));
#233 = CARTESIAN_POINT('', (100., 40., 60.));
#234 = CARTESIAN_POINT('', (100., 100., 0.));
#235 = CARTESIAN_POINT('', (100., 100., 60.));
#236 = ADVANCED_FACE('', (#237), #267, .T.);
#237 = FACE_OUTER_BOUND('', #238, .T.);
#238 = EDGE_LOOP('', (#239, #248, #255, #260, #261, #262));
#239 = ORIENTED_EDGE('', *, *, #240, .F.);
#240 = EDGE_CURVE('', #241, #243, #245, .T.);
#241 = VERTEX_POINT('', #242);
#242 = CARTESIAN_POINT('', (80., 40., 50.));
#243 = VERTEX_POINT('', #244);
#244 = CARTESIAN_POINT('', (40., 40., 50.));
#245 = B_SPLINE_CURVE_WITH_KNOTS('', 1, (#246, #247), .UNSPECIFIED., .F., .U., (2, 2), (0.333333333333333, 1.), .UNSPECIFIED.);
#246 = CARTESIAN_POINT('', (80., 40., 50.));
#247 = CARTESIAN_POINT('', (40., 40., 50.));
#248 = ORIENTED_EDGE('', *, *, #249, .F.);
#249 = EDGE_CURVE('', #250, #241, #252, .T.);
#250 = VERTEX_POINT('', #251);
#251 = CARTESIAN_POINT('', (80., 40., 0.));
#252 = B_SPLINE_CURVE_WITH_KNOTS('', 1, (#253, #254), .UNSPECIFIED., .F., .U., (2, 2), (0., 1.), .UNSPECIFIED.);
#253 = CARTESIAN_POINT('', (80., 40., 2.8421709430404E-14));
#254 = CARTESIAN_POINT('', (80., 40., 50.));
#255 = ORIENTED_EDGE('', *, *, #256, .T.);
#256 = EDGE_CURVE('', #250, #219, #257, .T.);
#257 = B_SPLINE_CURVE_WITH_KNOTS('', 1, (#258, #259), .UNSPECIFIED., .F., .U., (2, 2), (0.666666666666667, 1.), .UNSPECIFIED.);
#258 = CARTESIAN_POINT('', (80., 40., 0.));
#259 = CARTESIAN_POINT('', (100., 40., 0.));
#260 = ORIENTED_EDGE('', *, *, #218, .T.);
#261 = ORIENTED_EDGE('', *, *, #163, .F.);
#262 = ORIENTED_EDGE('', *, *, #263, .F.);
#263 = EDGE_CURVE('', #243, #157, #264, .T.);
#264 = B_SPLINE_CURVE_WITH_KNOTS('', 1, (#265, #266), .UNSPECIFIED., .F., .U., (2, 2), (0.833333333333333, 1.), .UNSPECIFIED.);
#265 = CARTESIAN_POINT('', (40., 40., 50.));
#266 = CARTESIAN_POINT('', (40., 40., 60.));
#267 = B_SPLINE_SURFACE_WITH_KNOTS('', 1, 1, ((#268, #269), (#270, #271)), .UNSPECIFIED., .F., .F., .U., (2, 2), (2, 2), (0., 1.), (0., 1.), .UNSPECIFIED.);
#268 = CARTESIAN_POINT('', (40., 40., 0.));
#269 = CARTESIAN_POINT('', (40., 40., 60.));
#270 = CARTESIAN_POINT('', (100., 40., 0.));
#271 = CARTESIAN_POINT('', (100., 40., 60.));
#272 = ADVANCED_FACE('', (#273), #297, .T.);
#273 = FACE_OUTER_BOUND('', #274, .T.);
#274 = EDGE_LOOP('', (#275, #282, #283, #284, #285, #292));
#275 = ORIENTED_EDGE('', *, *, #276, .F.);
#276 = EDGE_CURVE('', #243, #277, #279, .T.);
#277 = VERTEX_POINT('', #278);
#278 = CARTESIAN_POINT('', (40., 80., 50.));
#279 = B_SPLINE_CURVE_WITH_KNOTS('', 1, (#280, #281), .UNSPECIFIED., .F., .U., (2, 2), (0., 0.666666666666667), .UNSPECIFIED.);
#280 = CARTESIAN_POINT('', (40., 40., 50.));
#281 = CARTESIAN_POINT('', (40., 80., 50.));
#282 = ORIENTED_EDGE('', *, *, #263, .T.);
#283 = ORIENTED_EDGE('', *, *, #154, .F.);
#284 = ORIENTED_EDGE('', *, *, #204, .F.);
#285 = ORIENTED_EDGE('', *, *, #286, .T.);
#286 = EDGE_CURVE('', #198, #287, #289, .T.);
#287 = VERTEX_POINT('', #288);
#288 = CARTESIAN_POINT('', (40., 80., 0.));
#289 = B_SPLINE_CURVE_WITH_KNOTS('', 1, (#290, #291), .UNSPECIFIED., .F., .U., (2, 2), (0., 0.333333333333333), .UNSPECIFIED.);
#290 = CARTESIAN_POINT('', (40., 100., 0.));
#291 = CARTESIAN_POINT('', (40., 80., 0.));
#292 = ORIENTED_EDGE('', *, *, #293, .F.);
#293 = EDGE_CURVE('', #277, #287, #294, .T.);
#294 = B_SPLINE_CURVE_WITH_KNOTS('', 1, (#295, #296), .UNSPECIFIED., .F., .U., (2, 2), (0., 1.), .UNSPECIFIED.);
#295 = CARTESIAN_POINT('', (40., 80., 50.));
#296 = CARTESIAN_POINT('', (40., 80., 0.));
#297 = B_SPLINE_SURFACE_WITH_KNOTS('', 1, 1, ((#298, #299), (#300, #301)), .UNSPECIFIED., .F., .F., .U., (2, 2), (2, 2), (0., 1.), (0., 1.), .UNSPECIFIED.);
#298 = CARTESIAN_POINT('', (40., 100., 0.));
#299 = CARTESIAN_POINT('', (40., 100., 60.));
#300 = CARTESIAN_POINT('', (40., 40., 0.));
#301 = CARTESIAN_POINT('', (40., 40., 60.));
#302 = ADVANCED_FACE('', (#303), #321, .T.);
#303 = FACE_OUTER_BOUND('', #304, .T.);
#304 = EDGE_LOOP('', (#305, #312, #313, #314, #315, #316));
#305 = ORIENTED_EDGE('', *, *, #306, .F.);
#306 = EDGE_CURVE('', #287, #307, #309, .T.);
#307 = VERTEX_POINT('', #308);
#308 = CARTESIAN_POINT('', (80., 80., 0.));
#309 = B_SPLINE_CURVE_WITH_KNOTS('', 1, (#310, #311), .UNSPECIFIED., .F., .U., (2, 2), (0.294147303978592, 1.), .UNSPECIFIED.);
#310 = CARTESIAN_POINT('', (40., 80., 0.));
#311 = CARTESIAN_POINT('', (80., 80., 0.));
#312 = ORIENTED_EDGE('', *, *, #286, .F.);
#313 = ORIENTED_EDGE('', *, *, #197, .F.);
#314 = ORIENTED_EDGE('', *, *, #225, .F.);
#315 = ORIENTED_EDGE('', *, *, #256, .F.);
#316 = ORIENTED_EDGE('', *, *, #317, .F.);
#317 = EDGE_CURVE('', #307, #250, #318, .T.);
#318 = B_SPLINE_CURVE_WITH_KNOTS('', 1, (#319, #320), .UNSPECIFIED., .F., .U., (2, 2), (0., 0.705852696021408), .UNSPECIFIED.);
#319 = CARTESIAN_POINT('', (80., 80., 0.));
#320 = CARTESIAN_POINT('', (80., 40., 0.));
#321 = B_SPLINE_SURFACE_WITH_KNOTS('', 1, 1, ((#322, #323), (#324, #325)), .UNSPECIFIED., .F., .F., .U., (2, 2), (2, 2), (0., 1.), (0., 1.), .UNSPECIFIED.);
#322 = CARTESIAN_POINT('', (116.669047558312, 23.3309524416879, 0.));
#323 = CARTESIAN_POINT('', (116.669047558312, 116.669047558312, 0.));
#324 = CARTESIAN_POINT('', (23.3309524416879, 23.3309524416879, 0.));
#325 = CARTESIAN_POINT('', (23.3309524416879, 116.669047558312, 0.));
#326 = ADVANCED_FACE('', (#327), #343, .F.);
#327 = FACE_OUTER_BOUND('', #328, .F.);
#328 = EDGE_LOOP('', (#329, #330, #331, #338));
#329 = ORIENTED_EDGE('', *, *, #249, .F.);
#330 = ORIENTED_EDGE('', *, *, #317, .F.);
#331 = ORIENTED_EDGE('', *, *, #332, .T.);
#332 = EDGE_CURVE('', #307, #333, #335, .T.);
#333 = VERTEX_POINT('', #334);
#334 = CARTESIAN_POINT('', (80., 80., 50.));
#335 = B_SPLINE_CURVE_WITH_KNOTS('', 1, (#336, #337), .UNSPECIFIED., .F., .U., (2, 2), (0., 1.), .UNSPECIFIED.);
#336 = CARTESIAN_POINT('', (80., 80., 0.));
#337 = CARTESIAN_POINT('', (80., 80., 50.));
#338 = ORIENTED_EDGE('', *, *, #339, .F.);
#339 = EDGE_CURVE('', #241, #333, #340, .T.);
#340 = B_SPLINE_CURVE_WITH_KNOTS('', 1, (#341, #342), .UNSPECIFIED., .F., .U., (2, 2), (0.5, 1.), .UNSPECIFIED.);
#341 = CARTESIAN_POINT('', (80., 40., 50.));
#342 = CARTESIAN_POINT('', (80., 80., 50.));
#343 = B_SPLINE_SURFACE_WITH_KNOTS('', 1, 1, ((#344, #345), (#346, #347)), .UNSPECIFIED., .F., .F., .U., (2, 2), (2, 2), (0., 1.), (0., 1.), .UNSPECIFIED.);
#344 = CARTESIAN_POINT('', (80., 0., 0.));
#345 = CARTESIAN_POINT('', (80., 0., 50.));
#346 = CARTESIAN_POINT('', (80., 80., 0.));
#347 = CARTESIAN_POINT('', (80., 80., 50.));
#348 = ADVANCED_FACE('', (#349), #359, .F.);
#349 = FACE_OUTER_BOUND('', #350, .F.);
#350 = EDGE_LOOP('', (#351, #352, #353, #354));
#351 = ORIENTED_EDGE('', *, *, #276, .F.);
#352 = ORIENTED_EDGE('', *, *, #240, .F.);
#353 = ORIENTED_EDGE('', *, *, #339, .T.);
#354 = ORIENTED_EDGE('', *, *, #355, .T.);
#355 = EDGE_CURVE('', #333, #277, #356, .T.);
#356 = B_SPLINE_CURVE_WITH_KNOTS('', 1, (#357, #358), .UNSPECIFIED., .F., .U., (2, 2), (0., 0.5), .UNSPECIFIED.);
#357 = CARTESIAN_POINT('', (80., 80., 50.));
#358 = CARTESIAN_POINT('', (40., 80., 50.));
#359 = B_SPLINE_SURFACE_WITH_KNOTS('', 1, 1, ((#360, #361), (#362, #363)), .UNSPECIFIED., .F., .F., .U., (2, 2), (2, 2), (0., 1.), (0., 1.), .UNSPECIFIED.);
#360 = CARTESIAN_POINT('', (102.225396744416, -22.2253967444162, 50.));
#361 = CARTESIAN_POINT('', (-22.2253967444162, -22.2253967444162, 50.));
#362 = CARTESIAN_POINT('', (102.225396744416, 102.225396744416, 50.));
#363 = CARTESIAN_POINT('', (-22.2253967444162, 102.225396744416, 50.));
#364 = ADVANCED_FACE('', (#365), #371, .F.);
#365 = FACE_OUTER_BOUND('', #366, .F.);
#366 = EDGE_LOOP('', (#367, #368, #369, #370));
#367 = ORIENTED_EDGE('', *, *, #293, .F.);
#368 = ORIENTED_EDGE('', *, *, #355, .F.);
#369 = ORIENTED_EDGE('', *, *, #332, .F.);
#370 = ORIENTED_EDGE('', *, *, #306, .F.);
#371 = B_SPLINE_SURFACE_WITH_KNOTS('', 1, 1, ((#372, #373), (#374, #375)), .UNSPECIFIED., .F., .F., .U., (2, 2), (2, 2), (0., 1.), (0., 1.), .UNSPECIFIED.);
#372 = CARTESIAN_POINT('', (80., 80., 0.));
#373 = CARTESIAN_POINT('', (80., 80., 50.));
#374 = CARTESIAN_POINT('', (0., 80., 0.));
#375 = CARTESIAN_POINT('', (0., 80., 50.));
#376 = PRESENTATION_STYLE_ASSIGNMENT((#377));
#377 = SURFACE_STYLE_USAGE(.POSITIVE., #378);
#378 = SURFACE_SIDE_STYLE('', (#379));
#379 = SURFACE_STYLE_FILL_AREA(#380);
#380 = FILL_AREA_STYLE('', (#381));
#381 = FILL_AREA_STYLE_COLOUR('', #382);
#382 = COLOUR_RGB('', 0.50196078431373, 0.50196078431373, 0.50196078431373);
#383 = STYLED_ITEM('', (#376), #148);
#384 = CARTESIAN_POINT('Origin', (0., 0., 0.));
#385 = GEOMETRIC_SET('', (#384));
#386 = (
   GEOMETRIC_REPRESENTATION_CONTEXT (3)
   GLOBAL_UNCERTAINTY_ASSIGNED_CONTEXT ((#388))
   GLOBAL_UNIT_ASSIGNED_CONTEXT ((#387, #389, #390))
   REPRESENTATION_CONTEXT ('', '3D')
);
#387 = (
   LENGTH_UNIT ()
   NAMED_UNIT (*)
   SI_UNIT (.MILLI., .METRE.)
);
#388 = UNCERTAINTY_MEASURE_WITH_UNIT(LENGTH_MEASURE(1.E-6), #387, 'DISTANCE_ACCURACY_VALUE', '');
#389 = (
   NAMED_UNIT (*)
   SI_UNIT ($, .STERADIAN.)
   SOLID_ANGLE_UNIT ()
);
#390 = (
   NAMED_UNIT (*)
   PLANE_ANGLE_UNIT ()
   SI_UNIT ($, .RADIAN.)
);
#391 = SHAPE_REPRESENTATION('', (#406), #386);
#392 = PRODUCT_DEFINITION_SHAPE('', '', #393);
#393 = PRODUCT_DEFINITION('', '', #396, #400);
#394 = APPLICATION_CONTEXT('configuration controlled 3D designs of mechanical parts and assemblies');
#395 = APPLICATION_PROTOCOL_DEFINITION('International Standard', 'automotive_design', 2002, #394);
#396 = PRODUCT_DEFINITION_FORMATION_WITH_SPECIFIED_SOURCE('', '', #397, .NOT_KNOWN.);
#397 = PRODUCT('UpdateTgtTool', 'UpdateTgtTool', '', (#398));
#398 = PRODUCT_CONTEXT('', #394, 'mechanical');
#399 = PRODUCT_RELATED_PRODUCT_CATEGORY('detail', '', (#397));
#400 = PRODUCT_DEFINITION_CONTEXT('part definition', #394, 'design');
#401 = SHAPE_DEFINITION_REPRESENTATION(#392, #391);
#402 = SHAPE_REPRESENTATION_RELATIONSHIP('', '', #391, #403);
#403 = SHAPE_REPRESENTATION('', (#385), #386);
#404 = SHAPE_REPRESENTATION_RELATIONSHIP('', '', #391, #405);
#405 = ADVANCED_BREP_SHAPE_REPRESENTATION('', (#1, #148), #386);
#406 = AXIS2_PLACEMENT_3D('', #407, #408, #409);
#407 = CARTESIAN_POINT('', (0., 0., 0.));
#408 = DIRECTION('', (0., 0., 1.));
#409 = DIRECTION('', (1., 0., 0.));
ENDSEC;
END-ISO-10303-21;
