ISO-10303-21;
HEADER;
FILE_DESCRIPTION(('STEP'), '1');
FILE_NAME('ChainBool', '2026-03-20T13:16:46', (''), (''), 'Express 3.1.2.0', 'Express Tool', 'Unknown');
FILE_SCHEMA(('AUTOMOTIVE_DESIGN'));
ENDSEC;

DATA;
#1 = MANIFOLD_SOLID_BREP('Subtraction_0', #2);
#2 = CLOSED_SHELL('', (#3, #39, #67, #147, #213, #233, #249, #265, #277, #299, #329, #345, #367, #383, #399));
#3 = ADVANCED_FACE('', (#4), #34, .T.);
#4 = FACE_OUTER_BOUND('', #5, .T.);
#5 = EDGE_LOOP('', (#6, #15, #22, #29));
#6 = ORIENTED_EDGE('', *, *, #7, .T.);
#7 = EDGE_CURVE('', #8, #10, #12, .T.);
#8 = VERTEX_POINT('', #9);
#9 = CARTESIAN_POINT('', (10., 80., 50.));
#10 = VERTEX_POINT('', #11);
#11 = CARTESIAN_POINT('', (10., 20., 50.));
#12 = B_SPLINE_CURVE_WITH_KNOTS('', 1, (#13, #14), .UNSPECIFIED., .F., .U., (2, 2), (0., 1.), .UNSPECIFIED.);
#13 = CARTESIAN_POINT('', (10., 80., 50.));
#14 = CARTESIAN_POINT('', (10., 20., 50.));
#15 = ORIENTED_EDGE('', *, *, #16, .T.);
#16 = EDGE_CURVE('', #10, #17, #19, .T.);
#17 = VERTEX_POINT('', #18);
#18 = CARTESIAN_POINT('', (10., 20., 70.));
#19 = B_SPLINE_CURVE_WITH_KNOTS('', 1, (#20, #21), .UNSPECIFIED., .F., .U., (2, 2), (0.714285714285714, 1.), .UNSPECIFIED.);
#20 = CARTESIAN_POINT('', (10., 20., 50.));
#21 = CARTESIAN_POINT('', (10., 20., 70.));
#22 = ORIENTED_EDGE('', *, *, #23, .F.);
#23 = EDGE_CURVE('', #24, #17, #26, .T.);
#24 = VERTEX_POINT('', #25);
#25 = CARTESIAN_POINT('', (10., 80., 70.));
#26 = B_SPLINE_CURVE_WITH_KNOTS('', 1, (#27, #28), .UNSPECIFIED., .F., .U., (2, 2), (0., 1.), .UNSPECIFIED.);
#27 = CARTESIAN_POINT('', (10., 80., 70.));
#28 = CARTESIAN_POINT('', (10., 20., 70.));
#29 = ORIENTED_EDGE('', *, *, #30, .F.);
#30 = EDGE_CURVE('', #8, #24, #31, .T.);
#31 = B_SPLINE_CURVE_WITH_KNOTS('', 1, (#32, #33), .UNSPECIFIED., .F., .U., (2, 2), (0.714285714285714, 1.), .UNSPECIFIED.);
#32 = CARTESIAN_POINT('', (10., 80., 50.));
#33 = CARTESIAN_POINT('', (10., 80., 70.));
#34 = B_SPLINE_SURFACE_WITH_KNOTS('', 1, 1, ((#35, #36), (#37, #38)), .UNSPECIFIED., .F., .F., .U., (2, 2), (2, 2), (0., 1.), (0., 1.), .UNSPECIFIED.);
#35 = CARTESIAN_POINT('', (10., 80., 0.));
#36 = CARTESIAN_POINT('', (10., 80., 70.));
#37 = CARTESIAN_POINT('', (10., 20., 0.));
#38 = CARTESIAN_POINT('', (10., 20., 70.));
#39 = ADVANCED_FACE('', (#40), #62, .T.);
#40 = FACE_OUTER_BOUND('', #41, .T.);
#41 = EDGE_LOOP('', (#42, #49, #56, #61));
#42 = ORIENTED_EDGE('', *, *, #43, .T.);
#43 = EDGE_CURVE('', #10, #44, #46, .T.);
#44 = VERTEX_POINT('', #45);
#45 = CARTESIAN_POINT('', (70., 20., 50.));
#46 = B_SPLINE_CURVE_WITH_KNOTS('', 1, (#47, #48), .UNSPECIFIED., .F., .U., (2, 2), (0., 1.), .UNSPECIFIED.);
#47 = CARTESIAN_POINT('', (10., 20., 50.));
#48 = CARTESIAN_POINT('', (70., 20., 50.));
#49 = ORIENTED_EDGE('', *, *, #50, .T.);
#50 = EDGE_CURVE('', #44, #51, #53, .T.);
#51 = VERTEX_POINT('', #52);
#52 = CARTESIAN_POINT('', (70., 20., 70.));
#53 = B_SPLINE_CURVE_WITH_KNOTS('', 1, (#54, #55), .UNSPECIFIED., .F., .U., (2, 2), (0.714285714285714, 1.), .UNSPECIFIED.);
#54 = CARTESIAN_POINT('', (70., 20., 50.));
#55 = CARTESIAN_POINT('', (70., 20., 70.));
#56 = ORIENTED_EDGE('', *, *, #57, .F.);
#57 = EDGE_CURVE('', #17, #51, #58, .T.);
#58 = B_SPLINE_CURVE_WITH_KNOTS('', 1, (#59, #60), .UNSPECIFIED., .F., .U., (2, 2), (0., 1.), .UNSPECIFIED.);
#59 = CARTESIAN_POINT('', (10., 20., 70.));
#60 = CARTESIAN_POINT('', (70., 20., 70.));
#61 = ORIENTED_EDGE('', *, *, #16, .F.);
#62 = B_SPLINE_SURFACE_WITH_KNOTS('', 1, 1, ((#63, #64), (#65, #66)), .UNSPECIFIED., .F., .F., .U., (2, 2), (2, 2), (0., 1.), (0., 1.), .UNSPECIFIED.);
#63 = CARTESIAN_POINT('', (10., 20., 0.));
#64 = CARTESIAN_POINT('', (10., 20., 70.));
#65 = CARTESIAN_POINT('', (70., 20., 0.));
#66 = CARTESIAN_POINT('', (70., 20., 70.));
#67 = ADVANCED_FACE('', (#68, #98), #142, .T.);
#68 = FACE_OUTER_BOUND('', #69, .T.);
#69 = EDGE_LOOP('', (#70, #79, #86, #93));
#70 = ORIENTED_EDGE('', *, *, #71, .T.);
#71 = EDGE_CURVE('', #72, #74, #76, .T.);
#72 = VERTEX_POINT('', #73);
#73 = CARTESIAN_POINT('', (0., 100., 50.));
#74 = VERTEX_POINT('', #75);
#75 = CARTESIAN_POINT('', (0., 0., 50.));
#76 = B_SPLINE_CURVE_WITH_KNOTS('', 1, (#77, #78), .UNSPECIFIED., .F., .U., (2, 2), (0., 1.), .UNSPECIFIED.);
#77 = CARTESIAN_POINT('', (0., 100., 50.));
#78 = CARTESIAN_POINT('', (0., 0., 50.));
#79 = ORIENTED_EDGE('', *, *, #80, .T.);
#80 = EDGE_CURVE('', #74, #81, #83, .T.);
#81 = VERTEX_POINT('', #82);
#82 = CARTESIAN_POINT('', (100., 0., 50.));
#83 = B_SPLINE_CURVE_WITH_KNOTS('', 1, (#84, #85), .UNSPECIFIED., .F., .U., (2, 2), (0., 1.), .UNSPECIFIED.);
#84 = CARTESIAN_POINT('', (0., 0., 50.));
#85 = CARTESIAN_POINT('', (100., 0., 50.));
#86 = ORIENTED_EDGE('', *, *, #87, .T.);
#87 = EDGE_CURVE('', #81, #88, #90, .T.);
#88 = VERTEX_POINT('', #89);
#89 = CARTESIAN_POINT('', (100., 100., 50.));
#90 = B_SPLINE_CURVE_WITH_KNOTS('', 1, (#91, #92), .UNSPECIFIED., .F., .U., (2, 2), (0., 1.), .UNSPECIFIED.);
#91 = CARTESIAN_POINT('', (100., 0., 50.));
#92 = CARTESIAN_POINT('', (100., 100., 50.));
#93 = ORIENTED_EDGE('', *, *, #94, .T.);
#94 = EDGE_CURVE('', #88, #72, #95, .T.);
#95 = B_SPLINE_CURVE_WITH_KNOTS('', 1, (#96, #97), .UNSPECIFIED., .F., .U., (2, 2), (0., 1.), .UNSPECIFIED.);
#96 = CARTESIAN_POINT('', (100., 100., 50.));
#97 = CARTESIAN_POINT('', (0., 100., 50.));
#98 = FACE_BOUND('', #99, .T.);
#99 = EDGE_LOOP('', (#100, #109, #116, #123, #130, #135, #136, #137));
#100 = ORIENTED_EDGE('', *, *, #101, .F.);
#101 = EDGE_CURVE('', #102, #104, #106, .T.);
#102 = VERTEX_POINT('', #103);
#103 = CARTESIAN_POINT('', (50., 90., 50.));
#104 = VERTEX_POINT('', #105);
#105 = CARTESIAN_POINT('', (50., 80., 50.));
#106 = B_SPLINE_CURVE_WITH_KNOTS('', 1, (#107, #108), .UNSPECIFIED., .F., .U., (2, 2), (0., 0.333333333333333), .UNSPECIFIED.);
#107 = CARTESIAN_POINT('', (50., 90., 50.));
#108 = CARTESIAN_POINT('', (50., 80., 50.));
#109 = ORIENTED_EDGE('', *, *, #110, .F.);
#110 = EDGE_CURVE('', #111, #102, #113, .T.);
#111 = VERTEX_POINT('', #112);
#112 = CARTESIAN_POINT('', (80., 90., 50.));
#113 = B_SPLINE_CURVE_WITH_KNOTS('', 1, (#114, #115), .UNSPECIFIED., .F., .U., (2, 2), (0., 1.), .UNSPECIFIED.);
#114 = CARTESIAN_POINT('', (80., 90., 50.));
#115 = CARTESIAN_POINT('', (50., 90., 50.));
#116 = ORIENTED_EDGE('', *, *, #117, .F.);
#117 = EDGE_CURVE('', #118, #111, #120, .T.);
#118 = VERTEX_POINT('', #119);
#119 = CARTESIAN_POINT('', (80., 60., 50.));
#120 = B_SPLINE_CURVE_WITH_KNOTS('', 1, (#121, #122), .UNSPECIFIED., .F., .U., (2, 2), (0., 1.), .UNSPECIFIED.);
#121 = CARTESIAN_POINT('', (80., 60., 50.));
#122 = CARTESIAN_POINT('', (80., 90., 50.));
#123 = ORIENTED_EDGE('', *, *, #124, .F.);
#124 = EDGE_CURVE('', #125, #118, #127, .T.);
#125 = VERTEX_POINT('', #126);
#126 = CARTESIAN_POINT('', (70., 60., 50.));
#127 = B_SPLINE_CURVE_WITH_KNOTS('', 1, (#128, #129), .UNSPECIFIED., .F., .U., (2, 2), (0.666666666666667, 1.), .UNSPECIFIED.);
#128 = CARTESIAN_POINT('', (70., 60., 50.));
#129 = CARTESIAN_POINT('', (80., 60., 50.));
#130 = ORIENTED_EDGE('', *, *, #131, .F.);
#131 = EDGE_CURVE('', #44, #125, #132, .T.);
#132 = B_SPLINE_CURVE_WITH_KNOTS('', 1, (#133, #134), .UNSPECIFIED., .F., .U., (2, 2), (0., 0.666666666666667), .UNSPECIFIED.);
#133 = CARTESIAN_POINT('', (70., 20., 50.));
#134 = CARTESIAN_POINT('', (70., 60., 50.));
#135 = ORIENTED_EDGE('', *, *, #43, .F.);
#136 = ORIENTED_EDGE('', *, *, #7, .F.);
#137 = ORIENTED_EDGE('', *, *, #138, .F.);
#138 = EDGE_CURVE('', #104, #8, #139, .T.);
#139 = B_SPLINE_CURVE_WITH_KNOTS('', 1, (#140, #141), .UNSPECIFIED., .F., .U., (2, 2), (0.333333333333333, 1.), .UNSPECIFIED.);
#140 = CARTESIAN_POINT('', (50., 80., 50.));
#141 = CARTESIAN_POINT('', (10., 80., 50.));
#142 = B_SPLINE_SURFACE_WITH_KNOTS('', 1, 1, ((#143, #144), (#145, #146)), .UNSPECIFIED., .F., .F., .U., (2, 2), (2, 2), (0., 1.), (0., 1.), .UNSPECIFIED.);
#143 = CARTESIAN_POINT('', (127.78174593052, -27.7817459305202, 50.));
#144 = CARTESIAN_POINT('', (-27.7817459305202, -27.7817459305202, 50.));
#145 = CARTESIAN_POINT('', (127.78174593052, 127.78174593052, 50.));
#146 = CARTESIAN_POINT('', (-27.7817459305202, 127.78174593052, 50.));
#147 = ADVANCED_FACE('', (#148, #178), #208, .T.);
#148 = FACE_OUTER_BOUND('', #149, .T.);
#149 = EDGE_LOOP('', (#150, #159, #166, #173));
#150 = ORIENTED_EDGE('', *, *, #151, .F.);
#151 = EDGE_CURVE('', #152, #154, #156, .T.);
#152 = VERTEX_POINT('', #153);
#153 = CARTESIAN_POINT('', (0., 100., 0.));
#154 = VERTEX_POINT('', #155);
#155 = CARTESIAN_POINT('', (0., 0., 0.));
#156 = B_SPLINE_CURVE_WITH_KNOTS('', 1, (#157, #158), .UNSPECIFIED., .F., .U., (2, 2), (0., 1.), .UNSPECIFIED.);
#157 = CARTESIAN_POINT('', (0., 100., 0.));
#158 = CARTESIAN_POINT('', (0., 0., 0.));
#159 = ORIENTED_EDGE('', *, *, #160, .F.);
#160 = EDGE_CURVE('', #161, #152, #163, .T.);
#161 = VERTEX_POINT('', #162);
#162 = CARTESIAN_POINT('', (100., 100., 0.));
#163 = B_SPLINE_CURVE_WITH_KNOTS('', 1, (#164, #165), .UNSPECIFIED., .F., .U., (2, 2), (0., 1.), .UNSPECIFIED.);
#164 = CARTESIAN_POINT('', (100., 100., 0.));
#165 = CARTESIAN_POINT('', (0., 100., 0.));
#166 = ORIENTED_EDGE('', *, *, #167, .F.);
#167 = EDGE_CURVE('', #168, #161, #170, .T.);
#168 = VERTEX_POINT('', #169);
#169 = CARTESIAN_POINT('', (100., 0., 0.));
#170 = B_SPLINE_CURVE_WITH_KNOTS('', 1, (#171, #172), .UNSPECIFIED., .F., .U., (2, 2), (0., 1.), .UNSPECIFIED.);
#171 = CARTESIAN_POINT('', (100., 0., 0.));
#172 = CARTESIAN_POINT('', (100., 100., 0.));
#173 = ORIENTED_EDGE('', *, *, #174, .F.);
#174 = EDGE_CURVE('', #154, #168, #175, .T.);
#175 = B_SPLINE_CURVE_WITH_KNOTS('', 1, (#176, #177), .UNSPECIFIED., .F., .U., (2, 2), (0., 1.), .UNSPECIFIED.);
#176 = CARTESIAN_POINT('', (0., 0., 0.));
#177 = CARTESIAN_POINT('', (100., 0., 0.));
#178 = FACE_BOUND('', #179, .T.);
#179 = EDGE_LOOP('', (#180, #189, #196, #203));
#180 = ORIENTED_EDGE('', *, *, #181, .F.);
#181 = EDGE_CURVE('', #182, #184, #186, .T.);
#182 = VERTEX_POINT('', #183);
#183 = CARTESIAN_POINT('', (50., 60., 0.));
#184 = VERTEX_POINT('', #185);
#185 = CARTESIAN_POINT('', (50., 90., 0.));
#186 = B_SPLINE_CURVE_WITH_KNOTS('', 1, (#187, #188), .UNSPECIFIED., .F., .U., (2, 2), (0., 1.), .UNSPECIFIED.);
#187 = CARTESIAN_POINT('', (50., 60., 0.));
#188 = CARTESIAN_POINT('', (50., 90., 0.));
#189 = ORIENTED_EDGE('', *, *, #190, .F.);
#190 = EDGE_CURVE('', #191, #182, #193, .T.);
#191 = VERTEX_POINT('', #192);
#192 = CARTESIAN_POINT('', (80., 60., 0.));
#193 = B_SPLINE_CURVE_WITH_KNOTS('', 1, (#194, #195), .UNSPECIFIED., .F., .U., (2, 2), (0., 1.), .UNSPECIFIED.);
#194 = CARTESIAN_POINT('', (80., 60., 0.));
#195 = CARTESIAN_POINT('', (50., 60., 0.));
#196 = ORIENTED_EDGE('', *, *, #197, .F.);
#197 = EDGE_CURVE('', #198, #191, #200, .T.);
#198 = VERTEX_POINT('', #199);
#199 = CARTESIAN_POINT('', (80., 90., 0.));
#200 = B_SPLINE_CURVE_WITH_KNOTS('', 1, (#201, #202), .UNSPECIFIED., .F., .U., (2, 2), (0., 1.), .UNSPECIFIED.);
#201 = CARTESIAN_POINT('', (80., 90., 0.));
#202 = CARTESIAN_POINT('', (80., 60., 0.));
#203 = ORIENTED_EDGE('', *, *, #204, .F.);
#204 = EDGE_CURVE('', #184, #198, #205, .T.);
#205 = B_SPLINE_CURVE_WITH_KNOTS('', 1, (#206, #207), .UNSPECIFIED., .F., .U., (2, 2), (0., 1.), .UNSPECIFIED.);
#206 = CARTESIAN_POINT('', (50., 90., 0.));
#207 = CARTESIAN_POINT('', (80., 90., 0.));
#208 = B_SPLINE_SURFACE_WITH_KNOTS('', 1, 1, ((#209, #210), (#211, #212)), .UNSPECIFIED., .F., .F., .U., (2, 2), (2, 2), (0., 1.), (0., 1.), .UNSPECIFIED.);
#209 = CARTESIAN_POINT('', (127.78174593052, -27.7817459305202, 0.));
#210 = CARTESIAN_POINT('', (127.78174593052, 127.78174593052, 0.));
#211 = CARTESIAN_POINT('', (-27.7817459305202, -27.7817459305202, 0.));
#212 = CARTESIAN_POINT('', (-27.7817459305202, 127.78174593052, 0.));
#213 = ADVANCED_FACE('', (#214), #228, .T.);
#214 = FACE_OUTER_BOUND('', #215, .T.);
#215 = EDGE_LOOP('', (#216, #221, #222, #227));
#216 = ORIENTED_EDGE('', *, *, #217, .F.);
#217 = EDGE_CURVE('', #152, #72, #218, .T.);
#218 = B_SPLINE_CURVE_WITH_KNOTS('', 1, (#219, #220), .UNSPECIFIED., .F., .U., (2, 2), (0., 1.), .UNSPECIFIED.);
#219 = CARTESIAN_POINT('', (0., 100., 0.));
#220 = CARTESIAN_POINT('', (0., 100., 50.));
#221 = ORIENTED_EDGE('', *, *, #151, .T.);
#222 = ORIENTED_EDGE('', *, *, #223, .T.);
#223 = EDGE_CURVE('', #154, #74, #224, .T.);
#224 = B_SPLINE_CURVE_WITH_KNOTS('', 1, (#225, #226), .UNSPECIFIED., .F., .U., (2, 2), (0., 1.), .UNSPECIFIED.);
#225 = CARTESIAN_POINT('', (0., 0., 0.));
#226 = CARTESIAN_POINT('', (0., 0., 50.));
#227 = ORIENTED_EDGE('', *, *, #71, .F.);
#228 = B_SPLINE_SURFACE_WITH_KNOTS('', 1, 1, ((#229, #230), (#231, #232)), .UNSPECIFIED., .F., .F., .U., (2, 2), (2, 2), (0., 1.), (0., 1.), .UNSPECIFIED.);
#229 = CARTESIAN_POINT('', (0., 100., 0.));
#230 = CARTESIAN_POINT('', (0., 100., 50.));
#231 = CARTESIAN_POINT('', (0., 0., 0.));
#232 = CARTESIAN_POINT('', (0., 0., 50.));
#233 = ADVANCED_FACE('', (#234), #244, .T.);
#234 = FACE_OUTER_BOUND('', #235, .T.);
#235 = EDGE_LOOP('', (#236, #237, #238, #243));
#236 = ORIENTED_EDGE('', *, *, #223, .F.);
#237 = ORIENTED_EDGE('', *, *, #174, .T.);
#238 = ORIENTED_EDGE('', *, *, #239, .T.);
#239 = EDGE_CURVE('', #168, #81, #240, .T.);
#240 = B_SPLINE_CURVE_WITH_KNOTS('', 1, (#241, #242), .UNSPECIFIED., .F., .U., (2, 2), (0., 1.), .UNSPECIFIED.);
#241 = CARTESIAN_POINT('', (100., 0., 0.));
#242 = CARTESIAN_POINT('', (100., 0., 50.));
#243 = ORIENTED_EDGE('', *, *, #80, .F.);
#244 = B_SPLINE_SURFACE_WITH_KNOTS('', 1, 1, ((#245, #246), (#247, #248)), .UNSPECIFIED., .F., .F., .U., (2, 2), (2, 2), (0., 1.), (0., 1.), .UNSPECIFIED.);
#245 = CARTESIAN_POINT('', (0., 0., 0.));
#246 = CARTESIAN_POINT('', (0., 0., 50.));
#247 = CARTESIAN_POINT('', (100., 0., 0.));
#248 = CARTESIAN_POINT('', (100., 0., 50.));
#249 = ADVANCED_FACE('', (#250), #260, .T.);
#250 = FACE_OUTER_BOUND('', #251, .T.);
#251 = EDGE_LOOP('', (#252, #257, #258, #259));
#252 = ORIENTED_EDGE('', *, *, #253, .F.);
#253 = EDGE_CURVE('', #161, #88, #254, .T.);
#254 = B_SPLINE_CURVE_WITH_KNOTS('', 1, (#255, #256), .UNSPECIFIED., .F., .U., (2, 2), (0., 1.), .UNSPECIFIED.);
#255 = CARTESIAN_POINT('', (100., 100., 0.));
#256 = CARTESIAN_POINT('', (100., 100., 50.));
#257 = ORIENTED_EDGE('', *, *, #160, .T.);
#258 = ORIENTED_EDGE('', *, *, #217, .T.);
#259 = ORIENTED_EDGE('', *, *, #94, .F.);
#260 = B_SPLINE_SURFACE_WITH_KNOTS('', 1, 1, ((#261, #262), (#263, #264)), .UNSPECIFIED., .F., .F., .U., (2, 2), (2, 2), (0., 1.), (0., 1.), .UNSPECIFIED.);
#261 = CARTESIAN_POINT('', (100., 100., 0.));
#262 = CARTESIAN_POINT('', (100., 100., 50.));
#263 = CARTESIAN_POINT('', (0., 100., 0.));
#264 = CARTESIAN_POINT('', (0., 100., 50.));
#265 = ADVANCED_FACE('', (#266), #272, .T.);
#266 = FACE_OUTER_BOUND('', #267, .T.);
#267 = EDGE_LOOP('', (#268, #269, #270, #271));
#268 = ORIENTED_EDGE('', *, *, #239, .F.);
#269 = ORIENTED_EDGE('', *, *, #167, .T.);
#270 = ORIENTED_EDGE('', *, *, #253, .T.);
#271 = ORIENTED_EDGE('', *, *, #87, .F.);
#272 = B_SPLINE_SURFACE_WITH_KNOTS('', 1, 1, ((#273, #274), (#275, #276)), .UNSPECIFIED., .F., .F., .U., (2, 2), (2, 2), (0., 1.), (0., 1.), .UNSPECIFIED.);
#273 = CARTESIAN_POINT('', (100., 0., 0.));
#274 = CARTESIAN_POINT('', (100., 0., 50.));
#275 = CARTESIAN_POINT('', (100., 100., 0.));
#276 = CARTESIAN_POINT('', (100., 100., 50.));
#277 = ADVANCED_FACE('', (#278), #294, .T.);
#278 = FACE_OUTER_BOUND('', #279, .T.);
#279 = EDGE_LOOP('', (#280, #287, #288, #289));
#280 = ORIENTED_EDGE('', *, *, #281, .F.);
#281 = EDGE_CURVE('', #104, #282, #284, .T.);
#282 = VERTEX_POINT('', #283);
#283 = CARTESIAN_POINT('', (50., 80., 70.));
#284 = B_SPLINE_CURVE_WITH_KNOTS('', 1, (#285, #286), .UNSPECIFIED., .F., .U., (2, 2), (0., 1.), .UNSPECIFIED.);
#285 = CARTESIAN_POINT('', (50., 80., 50.));
#286 = CARTESIAN_POINT('', (50., 80., 70.));
#287 = ORIENTED_EDGE('', *, *, #138, .T.);
#288 = ORIENTED_EDGE('', *, *, #30, .T.);
#289 = ORIENTED_EDGE('', *, *, #290, .F.);
#290 = EDGE_CURVE('', #282, #24, #291, .T.);
#291 = B_SPLINE_CURVE_WITH_KNOTS('', 1, (#292, #293), .UNSPECIFIED., .F., .U., (2, 2), (0.333333333333333, 1.), .UNSPECIFIED.);
#292 = CARTESIAN_POINT('', (50., 80., 70.));
#293 = CARTESIAN_POINT('', (10., 80., 70.));
#294 = B_SPLINE_SURFACE_WITH_KNOTS('', 1, 1, ((#295, #296), (#297, #298)), .UNSPECIFIED., .F., .F., .U., (2, 2), (2, 2), (0., 1.), (0., 1.), .UNSPECIFIED.);
#295 = CARTESIAN_POINT('', (70., 80., 0.));
#296 = CARTESIAN_POINT('', (70., 80., 70.));
#297 = CARTESIAN_POINT('', (10., 80., 0.));
#298 = CARTESIAN_POINT('', (10., 80., 70.));
#299 = ADVANCED_FACE('', (#300), #324, .T.);
#300 = FACE_OUTER_BOUND('', #301, .T.);
#301 = EDGE_LOOP('', (#302, #309, #310, #311, #312, #319));
#302 = ORIENTED_EDGE('', *, *, #303, .F.);
#303 = EDGE_CURVE('', #282, #304, #306, .T.);
#304 = VERTEX_POINT('', #305);
#305 = CARTESIAN_POINT('', (50., 60., 70.));
#306 = B_SPLINE_CURVE_WITH_KNOTS('', 1, (#307, #308), .UNSPECIFIED., .F., .U., (2, 2), (0.333333333333333, 1.), .UNSPECIFIED.);
#307 = CARTESIAN_POINT('', (50., 80., 70.));
#308 = CARTESIAN_POINT('', (50., 60., 70.));
#309 = ORIENTED_EDGE('', *, *, #290, .T.);
#310 = ORIENTED_EDGE('', *, *, #23, .T.);
#311 = ORIENTED_EDGE('', *, *, #57, .T.);
#312 = ORIENTED_EDGE('', *, *, #313, .T.);
#313 = EDGE_CURVE('', #51, #314, #316, .T.);
#314 = VERTEX_POINT('', #315);
#315 = CARTESIAN_POINT('', (70., 60., 70.));
#316 = B_SPLINE_CURVE_WITH_KNOTS('', 1, (#317, #318), .UNSPECIFIED., .F., .U., (2, 2), (0., 0.666666666666667), .UNSPECIFIED.);
#317 = CARTESIAN_POINT('', (70., 20., 70.));
#318 = CARTESIAN_POINT('', (70., 60., 70.));
#319 = ORIENTED_EDGE('', *, *, #320, .F.);
#320 = EDGE_CURVE('', #304, #314, #321, .T.);
#321 = B_SPLINE_CURVE_WITH_KNOTS('', 1, (#322, #323), .UNSPECIFIED., .F., .U., (2, 2), (0., 0.666666666666667), .UNSPECIFIED.);
#322 = CARTESIAN_POINT('', (50., 60., 70.));
#323 = CARTESIAN_POINT('', (70., 60., 70.));
#324 = B_SPLINE_SURFACE_WITH_KNOTS('', 1, 1, ((#325, #326), (#327, #328)), .UNSPECIFIED., .F., .F., .U., (2, 2), (2, 2), (0., 1.), (0., 1.), .UNSPECIFIED.);
#325 = CARTESIAN_POINT('', (86.6690475583121, 3.33095244168786, 70.));
#326 = CARTESIAN_POINT('', (-6.66904755831214, 3.33095244168786, 70.));
#327 = CARTESIAN_POINT('', (86.6690475583121, 96.6690475583121, 70.));
#328 = CARTESIAN_POINT('', (-6.66904755831214, 96.6690475583121, 70.));
#329 = ADVANCED_FACE('', (#330), #340, .T.);
#330 = FACE_OUTER_BOUND('', #331, .T.);
#331 = EDGE_LOOP('', (#332, #337, #338, #339));
#332 = ORIENTED_EDGE('', *, *, #333, .F.);
#333 = EDGE_CURVE('', #314, #125, #334, .T.);
#334 = B_SPLINE_CURVE_WITH_KNOTS('', 1, (#335, #336), .UNSPECIFIED., .F., .U., (2, 2), (0., 1.), .UNSPECIFIED.);
#335 = CARTESIAN_POINT('', (70., 60., 70.));
#336 = CARTESIAN_POINT('', (70., 60., 50.));
#337 = ORIENTED_EDGE('', *, *, #313, .F.);
#338 = ORIENTED_EDGE('', *, *, #50, .F.);
#339 = ORIENTED_EDGE('', *, *, #131, .T.);
#340 = B_SPLINE_SURFACE_WITH_KNOTS('', 1, 1, ((#341, #342), (#343, #344)), .UNSPECIFIED., .F., .F., .U., (2, 2), (2, 2), (0., 1.), (0., 1.), .UNSPECIFIED.);
#341 = CARTESIAN_POINT('', (70., 20., 0.));
#342 = CARTESIAN_POINT('', (70., 20., 70.));
#343 = CARTESIAN_POINT('', (70., 80., 0.));
#344 = CARTESIAN_POINT('', (70., 80., 70.));
#345 = ADVANCED_FACE('', (#346), #362, .F.);
#346 = FACE_OUTER_BOUND('', #347, .F.);
#347 = EDGE_LOOP('', (#348, #349, #350, #355, #356, #361));
#348 = ORIENTED_EDGE('', *, *, #333, .F.);
#349 = ORIENTED_EDGE('', *, *, #320, .F.);
#350 = ORIENTED_EDGE('', *, *, #351, .F.);
#351 = EDGE_CURVE('', #182, #304, #352, .T.);
#352 = B_SPLINE_CURVE_WITH_KNOTS('', 1, (#353, #354), .UNSPECIFIED., .F., .U., (2, 2), (0., 0.777777777777778), .UNSPECIFIED.);
#353 = CARTESIAN_POINT('', (50., 60., 0.));
#354 = CARTESIAN_POINT('', (50., 60., 70.));
#355 = ORIENTED_EDGE('', *, *, #190, .F.);
#356 = ORIENTED_EDGE('', *, *, #357, .T.);
#357 = EDGE_CURVE('', #191, #118, #358, .T.);
#358 = B_SPLINE_CURVE_WITH_KNOTS('', 1, (#359, #360), .UNSPECIFIED., .F., .U., (2, 2), (0., 0.555555555555556), .UNSPECIFIED.);
#359 = CARTESIAN_POINT('', (80., 60., 0.));
#360 = CARTESIAN_POINT('', (80., 60., 50.));
#361 = ORIENTED_EDGE('', *, *, #124, .F.);
#362 = B_SPLINE_SURFACE_WITH_KNOTS('', 1, 1, ((#363, #364), (#365, #366)), .UNSPECIFIED., .F., .F., .U., (2, 2), (2, 2), (0., 1.), (0., 1.), .UNSPECIFIED.);
#363 = CARTESIAN_POINT('', (50., 60., 0.));
#364 = CARTESIAN_POINT('', (50., 60., 90.));
#365 = CARTESIAN_POINT('', (80., 60., 0.));
#366 = CARTESIAN_POINT('', (80., 60., 90.));
#367 = ADVANCED_FACE('', (#368), #378, .F.);
#368 = FACE_OUTER_BOUND('', #369, .F.);
#369 = EDGE_LOOP('', (#370, #371, #372, #373));
#370 = ORIENTED_EDGE('', *, *, #117, .F.);
#371 = ORIENTED_EDGE('', *, *, #357, .F.);
#372 = ORIENTED_EDGE('', *, *, #197, .F.);
#373 = ORIENTED_EDGE('', *, *, #374, .T.);
#374 = EDGE_CURVE('', #198, #111, #375, .T.);
#375 = B_SPLINE_CURVE_WITH_KNOTS('', 1, (#376, #377), .UNSPECIFIED., .F., .U., (2, 2), (0., 0.555555555555556), .UNSPECIFIED.);
#376 = CARTESIAN_POINT('', (80., 90., 0.));
#377 = CARTESIAN_POINT('', (80., 90., 50.));
#378 = B_SPLINE_SURFACE_WITH_KNOTS('', 1, 1, ((#379, #380), (#381, #382)), .UNSPECIFIED., .F., .F., .U., (2, 2), (2, 2), (0., 1.), (0., 1.), .UNSPECIFIED.);
#379 = CARTESIAN_POINT('', (80., 60., 0.));
#380 = CARTESIAN_POINT('', (80., 60., 90.));
#381 = CARTESIAN_POINT('', (80., 90., 0.));
#382 = CARTESIAN_POINT('', (80., 90., 90.));
#383 = ADVANCED_FACE('', (#384), #394, .F.);
#384 = FACE_OUTER_BOUND('', #385, .F.);
#385 = EDGE_LOOP('', (#386, #387, #388, #389));
#386 = ORIENTED_EDGE('', *, *, #110, .F.);
#387 = ORIENTED_EDGE('', *, *, #374, .F.);
#388 = ORIENTED_EDGE('', *, *, #204, .F.);
#389 = ORIENTED_EDGE('', *, *, #390, .T.);
#390 = EDGE_CURVE('', #184, #102, #391, .T.);
#391 = B_SPLINE_CURVE_WITH_KNOTS('', 1, (#392, #393), .UNSPECIFIED., .F., .U., (2, 2), (0., 0.555555555555556), .UNSPECIFIED.);
#392 = CARTESIAN_POINT('', (50., 90., 0.));
#393 = CARTESIAN_POINT('', (50., 90., 50.));
#394 = B_SPLINE_SURFACE_WITH_KNOTS('', 1, 1, ((#395, #396), (#397, #398)), .UNSPECIFIED., .F., .F., .U., (2, 2), (2, 2), (0., 1.), (0., 1.), .UNSPECIFIED.);
#395 = CARTESIAN_POINT('', (80., 90., 0.));
#396 = CARTESIAN_POINT('', (80., 90., 90.));
#397 = CARTESIAN_POINT('', (50., 90., 0.));
#398 = CARTESIAN_POINT('', (50., 90., 90.));
#399 = ADVANCED_FACE('', (#400), #408, .F.);
#400 = FACE_OUTER_BOUND('', #401, .F.);
#401 = EDGE_LOOP('', (#402, #403, #404, #405, #406, #407));
#402 = ORIENTED_EDGE('', *, *, #303, .F.);
#403 = ORIENTED_EDGE('', *, *, #281, .F.);
#404 = ORIENTED_EDGE('', *, *, #101, .F.);
#405 = ORIENTED_EDGE('', *, *, #390, .F.);
#406 = ORIENTED_EDGE('', *, *, #181, .F.);
#407 = ORIENTED_EDGE('', *, *, #351, .T.);
#408 = B_SPLINE_SURFACE_WITH_KNOTS('', 1, 1, ((#409, #410), (#411, #412)), .UNSPECIFIED., .F., .F., .U., (2, 2), (2, 2), (0., 1.), (0., 1.), .UNSPECIFIED.);
#409 = CARTESIAN_POINT('', (50., 90., 0.));
#410 = CARTESIAN_POINT('', (50., 90., 90.));
#411 = CARTESIAN_POINT('', (50., 60., 0.));
#412 = CARTESIAN_POINT('', (50., 60., 90.));
#413 = DRAUGHTING_MODEL('', (#421), #424);
#414 = PRESENTATION_STYLE_ASSIGNMENT((#415));
#415 = SURFACE_STYLE_USAGE(.POSITIVE., #416);
#416 = SURFACE_SIDE_STYLE('', (#417));
#417 = SURFACE_STYLE_FILL_AREA(#418);
#418 = FILL_AREA_STYLE('', (#419));
#419 = FILL_AREA_STYLE_COLOUR('', #420);
#420 = COLOUR_RGB('', 0.50196078431373, 0.50196078431373, 0.50196078431373);
#421 = STYLED_ITEM('', (#414), #1);
#422 = CARTESIAN_POINT('Origin', (0., 0., 0.));
#423 = GEOMETRIC_SET('', (#422));
#424 = (
   GEOMETRIC_REPRESENTATION_CONTEXT (3)
   GLOBAL_UNCERTAINTY_ASSIGNED_CONTEXT ((#426))
   GLOBAL_UNIT_ASSIGNED_CONTEXT ((#425, #427, #428))
   REPRESENTATION_CONTEXT ('', '3D')
);
#425 = (
   LENGTH_UNIT ()
   NAMED_UNIT (*)
   SI_UNIT (.MILLI., .METRE.)
);
#426 = UNCERTAINTY_MEASURE_WITH_UNIT(LENGTH_MEASURE(1.E-6), #425, 'DISTANCE_ACCURACY_VALUE', '');
#427 = (
   NAMED_UNIT (*)
   SI_UNIT ($, .STERADIAN.)
   SOLID_ANGLE_UNIT ()
);
#428 = (
   NAMED_UNIT (*)
   PLANE_ANGLE_UNIT ()
   SI_UNIT ($, .RADIAN.)
);
#429 = SHAPE_REPRESENTATION('', (#444), #424);
#430 = PRODUCT_DEFINITION_SHAPE('', '', #431);
#431 = PRODUCT_DEFINITION('', '', #434, #438);
#432 = APPLICATION_CONTEXT('configuration controlled 3D designs of mechanical parts and assemblies');
#433 = APPLICATION_PROTOCOL_DEFINITION('International Standard', 'automotive_design', 2002, #432);
#434 = PRODUCT_DEFINITION_FORMATION_WITH_SPECIFIED_SOURCE('', '', #435, .NOT_KNOWN.);
#435 = PRODUCT('ChainBool', 'ChainBool', '', (#436));
#436 = PRODUCT_CONTEXT('', #432, 'mechanical');
#437 = PRODUCT_RELATED_PRODUCT_CATEGORY('detail', '', (#435));
#438 = PRODUCT_DEFINITION_CONTEXT('part definition', #432, 'design');
#439 = SHAPE_DEFINITION_REPRESENTATION(#430, #429);
#440 = SHAPE_REPRESENTATION_RELATIONSHIP('', '', #429, #441);
#441 = SHAPE_REPRESENTATION('', (#423), #424);
#442 = SHAPE_REPRESENTATION_RELATIONSHIP('', '', #429, #443);
#443 = ADVANCED_BREP_SHAPE_REPRESENTATION('', (#1), #424);
#444 = AXIS2_PLACEMENT_3D('', #445, #446, #447);
#445 = CARTESIAN_POINT('', (0., 0., 0.));
#446 = DIRECTION('', (0., 0., 1.));
#447 = DIRECTION('', (1., 0., 0.));
ENDSEC;
END-ISO-10303-21;
