ISO-10303-21;
HEADER;
FILE_DESCRIPTION(('STEP'), '1');
FILE_NAME('ChainBool', '2026-03-20T13:16:46', (''), (''), 'Express 3.1.2.0', 'Express Tool', 'Unknown');
FILE_SCHEMA(('AUTOMOTIVE_DESIGN'));
ENDSEC;

DATA;
#1 = MANIFOLD_SOLID_BREP('Extrusion1_0', #2);
#2 = CLOSED_SHELL('', (#3, #39, #75, #95, #111, #127));
#3 = ADVANCED_FACE('', (#4), #34, .T.);
#4 = FACE_OUTER_BOUND('', #5, .T.);
#5 = EDGE_LOOP('', (#6, #15, #22, #29));
#6 = ORIENTED_EDGE('', *, *, #7, .T.);
#7 = EDGE_CURVE('', #8, #10, #12, .T.);
#8 = VERTEX_POINT('', #9);
#9 = CARTESIAN_POINT('', (50., 90., 90.));
#10 = VERTEX_POINT('', #11);
#11 = CARTESIAN_POINT('', (50., 60., 90.));
#12 = B_SPLINE_CURVE_WITH_KNOTS('', 1, (#13, #14), .UNSPECIFIED., .F., .U., (2, 2), (0., 1.), .UNSPECIFIED.);
#13 = CARTESIAN_POINT('', (50., 90., 90.));
#14 = CARTESIAN_POINT('', (50., 60., 90.));
#15 = ORIENTED_EDGE('', *, *, #16, .T.);
#16 = EDGE_CURVE('', #10, #17, #19, .T.);
#17 = VERTEX_POINT('', #18);
#18 = CARTESIAN_POINT('', (80., 60., 90.));
#19 = B_SPLINE_CURVE_WITH_KNOTS('', 1, (#20, #21), .UNSPECIFIED., .F., .U., (2, 2), (0., 1.), .UNSPECIFIED.);
#20 = CARTESIAN_POINT('', (50., 60., 90.));
#21 = CARTESIAN_POINT('', (80., 60., 90.));
#22 = ORIENTED_EDGE('', *, *, #23, .T.);
#23 = EDGE_CURVE('', #17, #24, #26, .T.);
#24 = VERTEX_POINT('', #25);
#25 = CARTESIAN_POINT('', (80., 90., 90.));
#26 = B_SPLINE_CURVE_WITH_KNOTS('', 1, (#27, #28), .UNSPECIFIED., .F., .U., (2, 2), (0., 1.), .UNSPECIFIED.);
#27 = CARTESIAN_POINT('', (80., 60., 90.));
#28 = CARTESIAN_POINT('', (80., 90., 90.));
#29 = ORIENTED_EDGE('', *, *, #30, .T.);
#30 = EDGE_CURVE('', #24, #8, #31, .T.);
#31 = B_SPLINE_CURVE_WITH_KNOTS('', 1, (#32, #33), .UNSPECIFIED., .F., .U., (2, 2), (0., 1.), .UNSPECIFIED.);
#32 = CARTESIAN_POINT('', (80., 90., 90.));
#33 = CARTESIAN_POINT('', (50., 90., 90.));
#34 = B_SPLINE_SURFACE_WITH_KNOTS('', 1, 1, ((#35, #36), (#37, #38)), .UNSPECIFIED., .F., .F., .U., (2, 2), (2, 2), (0., 1.), (0., 1.), .UNSPECIFIED.);
#35 = CARTESIAN_POINT('', (88.3345237791561, 51.6654762208439, 90.));
#36 = CARTESIAN_POINT('', (41.6654762208439, 51.6654762208439, 90.));
#37 = CARTESIAN_POINT('', (88.3345237791561, 98.3345237791561, 90.));
#38 = CARTESIAN_POINT('', (41.6654762208439, 98.3345237791561, 90.));
#39 = ADVANCED_FACE('', (#40), #70, .T.);
#40 = FACE_OUTER_BOUND('', #41, .T.);
#41 = EDGE_LOOP('', (#42, #51, #58, #65));
#42 = ORIENTED_EDGE('', *, *, #43, .F.);
#43 = EDGE_CURVE('', #44, #46, #48, .T.);
#44 = VERTEX_POINT('', #45);
#45 = CARTESIAN_POINT('', (50., 90., 0.));
#46 = VERTEX_POINT('', #47);
#47 = CARTESIAN_POINT('', (50., 60., 0.));
#48 = B_SPLINE_CURVE_WITH_KNOTS('', 1, (#49, #50), .UNSPECIFIED., .F., .U., (2, 2), (0., 1.), .UNSPECIFIED.);
#49 = CARTESIAN_POINT('', (50., 90., 0.));
#50 = CARTESIAN_POINT('', (50., 60., 0.));
#51 = ORIENTED_EDGE('', *, *, #52, .F.);
#52 = EDGE_CURVE('', #53, #44, #55, .T.);
#53 = VERTEX_POINT('', #54);
#54 = CARTESIAN_POINT('', (80., 90., 0.));
#55 = B_SPLINE_CURVE_WITH_KNOTS('', 1, (#56, #57), .UNSPECIFIED., .F., .U., (2, 2), (0., 1.), .UNSPECIFIED.);
#56 = CARTESIAN_POINT('', (80., 90., 0.));
#57 = CARTESIAN_POINT('', (50., 90., 0.));
#58 = ORIENTED_EDGE('', *, *, #59, .F.);
#59 = EDGE_CURVE('', #60, #53, #62, .T.);
#60 = VERTEX_POINT('', #61);
#61 = CARTESIAN_POINT('', (80., 60., 0.));
#62 = B_SPLINE_CURVE_WITH_KNOTS('', 1, (#63, #64), .UNSPECIFIED., .F., .U., (2, 2), (0., 1.), .UNSPECIFIED.);
#63 = CARTESIAN_POINT('', (80., 60., 0.));
#64 = CARTESIAN_POINT('', (80., 90., 0.));
#65 = ORIENTED_EDGE('', *, *, #66, .F.);
#66 = EDGE_CURVE('', #46, #60, #67, .T.);
#67 = B_SPLINE_CURVE_WITH_KNOTS('', 1, (#68, #69), .UNSPECIFIED., .F., .U., (2, 2), (0., 1.), .UNSPECIFIED.);
#68 = CARTESIAN_POINT('', (50., 60., 0.));
#69 = CARTESIAN_POINT('', (80., 60., 0.));
#70 = B_SPLINE_SURFACE_WITH_KNOTS('', 1, 1, ((#71, #72), (#73, #74)), .UNSPECIFIED., .F., .F., .U., (2, 2), (2, 2), (0., 1.), (0., 1.), .UNSPECIFIED.);
#71 = CARTESIAN_POINT('', (88.3345237791561, 51.6654762208439, 0.));
#72 = CARTESIAN_POINT('', (88.3345237791561, 98.3345237791561, 0.));
#73 = CARTESIAN_POINT('', (41.6654762208439, 51.6654762208439, 0.));
#74 = CARTESIAN_POINT('', (41.6654762208439, 98.3345237791561, 0.));
#75 = ADVANCED_FACE('', (#76), #90, .T.);
#76 = FACE_OUTER_BOUND('', #77, .T.);
#77 = EDGE_LOOP('', (#78, #83, #84, #89));
#78 = ORIENTED_EDGE('', *, *, #79, .F.);
#79 = EDGE_CURVE('', #44, #8, #80, .T.);
#80 = B_SPLINE_CURVE_WITH_KNOTS('', 1, (#81, #82), .UNSPECIFIED., .F., .U., (2, 2), (0., 1.), .UNSPECIFIED.);
#81 = CARTESIAN_POINT('', (50., 90., 0.));
#82 = CARTESIAN_POINT('', (50., 90., 90.));
#83 = ORIENTED_EDGE('', *, *, #43, .T.);
#84 = ORIENTED_EDGE('', *, *, #85, .T.);
#85 = EDGE_CURVE('', #46, #10, #86, .T.);
#86 = B_SPLINE_CURVE_WITH_KNOTS('', 1, (#87, #88), .UNSPECIFIED., .F., .U., (2, 2), (0., 1.), .UNSPECIFIED.);
#87 = CARTESIAN_POINT('', (50., 60., 0.));
#88 = CARTESIAN_POINT('', (50., 60., 90.));
#89 = ORIENTED_EDGE('', *, *, #7, .F.);
#90 = B_SPLINE_SURFACE_WITH_KNOTS('', 1, 1, ((#91, #92), (#93, #94)), .UNSPECIFIED., .F., .F., .U., (2, 2), (2, 2), (0., 1.), (0., 1.), .UNSPECIFIED.);
#91 = CARTESIAN_POINT('', (50., 90., 0.));
#92 = CARTESIAN_POINT('', (50., 90., 90.));
#93 = CARTESIAN_POINT('', (50., 60., 0.));
#94 = CARTESIAN_POINT('', (50., 60., 90.));
#95 = ADVANCED_FACE('', (#96), #106, .T.);
#96 = FACE_OUTER_BOUND('', #97, .T.);
#97 = EDGE_LOOP('', (#98, #99, #100, #105));
#98 = ORIENTED_EDGE('', *, *, #85, .F.);
#99 = ORIENTED_EDGE('', *, *, #66, .T.);
#100 = ORIENTED_EDGE('', *, *, #101, .T.);
#101 = EDGE_CURVE('', #60, #17, #102, .T.);
#102 = B_SPLINE_CURVE_WITH_KNOTS('', 1, (#103, #104), .UNSPECIFIED., .F., .U., (2, 2), (0., 1.), .UNSPECIFIED.);
#103 = CARTESIAN_POINT('', (80., 60., 0.));
#104 = CARTESIAN_POINT('', (80., 60., 90.));
#105 = ORIENTED_EDGE('', *, *, #16, .F.);
#106 = B_SPLINE_SURFACE_WITH_KNOTS('', 1, 1, ((#107, #108), (#109, #110)), .UNSPECIFIED., .F., .F., .U., (2, 2), (2, 2), (0., 1.), (0., 1.), .UNSPECIFIED.);
#107 = CARTESIAN_POINT('', (50., 60., 0.));
#108 = CARTESIAN_POINT('', (50., 60., 90.));
#109 = CARTESIAN_POINT('', (80., 60., 0.));
#110 = CARTESIAN_POINT('', (80., 60., 90.));
#111 = ADVANCED_FACE('', (#112), #122, .T.);
#112 = FACE_OUTER_BOUND('', #113, .T.);
#113 = EDGE_LOOP('', (#114, #119, #120, #121));
#114 = ORIENTED_EDGE('', *, *, #115, .F.);
#115 = EDGE_CURVE('', #53, #24, #116, .T.);
#116 = B_SPLINE_CURVE_WITH_KNOTS('', 1, (#117, #118), .UNSPECIFIED., .F., .U., (2, 2), (0., 1.), .UNSPECIFIED.);
#117 = CARTESIAN_POINT('', (80., 90., 0.));
#118 = CARTESIAN_POINT('', (80., 90., 90.));
#119 = ORIENTED_EDGE('', *, *, #52, .T.);
#120 = ORIENTED_EDGE('', *, *, #79, .T.);
#121 = ORIENTED_EDGE('', *, *, #30, .F.);
#122 = B_SPLINE_SURFACE_WITH_KNOTS('', 1, 1, ((#123, #124), (#125, #126)), .UNSPECIFIED., .F., .F., .U., (2, 2), (2, 2), (0., 1.), (0., 1.), .UNSPECIFIED.);
#123 = CARTESIAN_POINT('', (80., 90., 0.));
#124 = CARTESIAN_POINT('', (80., 90., 90.));
#125 = CARTESIAN_POINT('', (50., 90., 0.));
#126 = CARTESIAN_POINT('', (50., 90., 90.));
#127 = ADVANCED_FACE('', (#128), #134, .T.);
#128 = FACE_OUTER_BOUND('', #129, .T.);
#129 = EDGE_LOOP('', (#130, #131, #132, #133));
#130 = ORIENTED_EDGE('', *, *, #101, .F.);
#131 = ORIENTED_EDGE('', *, *, #59, .T.);
#132 = ORIENTED_EDGE('', *, *, #115, .T.);
#133 = ORIENTED_EDGE('', *, *, #23, .F.);
#134 = B_SPLINE_SURFACE_WITH_KNOTS('', 1, 1, ((#135, #136), (#137, #138)), .UNSPECIFIED., .F., .F., .U., (2, 2), (2, 2), (0., 1.), (0., 1.), .UNSPECIFIED.);
#135 = CARTESIAN_POINT('', (80., 60., 0.));
#136 = CARTESIAN_POINT('', (80., 60., 90.));
#137 = CARTESIAN_POINT('', (80., 90., 0.));
#138 = CARTESIAN_POINT('', (80., 90., 90.));
#139 = DRAUGHTING_MODEL('', (#147, #423), #426);
#140 = PRESENTATION_STYLE_ASSIGNMENT((#141));
#141 = SURFACE_STYLE_USAGE(.POSITIVE., #142);
#142 = SURFACE_SIDE_STYLE('', (#143));
#143 = SURFACE_STYLE_FILL_AREA(#144);
#144 = FILL_AREA_STYLE('', (#145));
#145 = FILL_AREA_STYLE_COLOUR('', #146);
#146 = COLOUR_RGB('', 0.50196078431373, 0.50196078431373, 0.50196078431373);
#147 = STYLED_ITEM('', (#140), #1);
#148 = MANIFOLD_SOLID_BREP('Union_0', #149);
#149 = CLOSED_SHELL('', (#150, #186, #214, #242, #262, #274, #316, #352, #372, #388, #404));
#150 = ADVANCED_FACE('', (#151), #181, .T.);
#151 = FACE_OUTER_BOUND('', #152, .T.);
#152 = EDGE_LOOP('', (#153, #162, #169, #176));
#153 = ORIENTED_EDGE('', *, *, #154, .T.);
#154 = EDGE_CURVE('', #155, #157, #159, .T.);
#155 = VERTEX_POINT('', #156);
#156 = CARTESIAN_POINT('', (70., 20., 50.));
#157 = VERTEX_POINT('', #158);
#158 = CARTESIAN_POINT('', (70., 80., 50.));
#159 = B_SPLINE_CURVE_WITH_KNOTS('', 1, (#160, #161), .UNSPECIFIED., .F., .U., (2, 2), (0., 1.), .UNSPECIFIED.);
#160 = CARTESIAN_POINT('', (70., 20., 50.));
#161 = CARTESIAN_POINT('', (70., 80., 50.));
#162 = ORIENTED_EDGE('', *, *, #163, .T.);
#163 = EDGE_CURVE('', #157, #164, #166, .T.);
#164 = VERTEX_POINT('', #165);
#165 = CARTESIAN_POINT('', (70., 80., 70.));
#166 = B_SPLINE_CURVE_WITH_KNOTS('', 1, (#167, #168), .UNSPECIFIED., .F., .U., (2, 2), (0.714285714285714, 1.), .UNSPECIFIED.);
#167 = CARTESIAN_POINT('', (70., 80., 50.));
#168 = CARTESIAN_POINT('', (70., 80., 70.));
#169 = ORIENTED_EDGE('', *, *, #170, .F.);
#170 = EDGE_CURVE('', #171, #164, #173, .T.);
#171 = VERTEX_POINT('', #172);
#172 = CARTESIAN_POINT('', (70., 20., 70.));
#173 = B_SPLINE_CURVE_WITH_KNOTS('', 1, (#174, #175), .UNSPECIFIED., .F., .U., (2, 2), (0., 1.), .UNSPECIFIED.);
#174 = CARTESIAN_POINT('', (70., 20., 70.));
#175 = CARTESIAN_POINT('', (70., 80., 70.));
#176 = ORIENTED_EDGE('', *, *, #177, .F.);
#177 = EDGE_CURVE('', #155, #171, #178, .T.);
#178 = B_SPLINE_CURVE_WITH_KNOTS('', 1, (#179, #180), .UNSPECIFIED., .F., .U., (2, 2), (0.714285714285714, 1.), .UNSPECIFIED.);
#179 = CARTESIAN_POINT('', (70., 20., 50.));
#180 = CARTESIAN_POINT('', (70., 20., 70.));
#181 = B_SPLINE_SURFACE_WITH_KNOTS('', 1, 1, ((#182, #183), (#184, #185)), .UNSPECIFIED., .F., .F., .U., (2, 2), (2, 2), (0., 1.), (0., 1.), .UNSPECIFIED.);
#182 = CARTESIAN_POINT('', (70., 20., 0.));
#183 = CARTESIAN_POINT('', (70., 20., 70.));
#184 = CARTESIAN_POINT('', (70., 80., 0.));
#185 = CARTESIAN_POINT('', (70., 80., 70.));
#186 = ADVANCED_FACE('', (#187), #209, .T.);
#187 = FACE_OUTER_BOUND('', #188, .T.);
#188 = EDGE_LOOP('', (#189, #196, #203, #208));
#189 = ORIENTED_EDGE('', *, *, #190, .T.);
#190 = EDGE_CURVE('', #157, #191, #193, .T.);
#191 = VERTEX_POINT('', #192);
#192 = CARTESIAN_POINT('', (10., 80., 50.));
#193 = B_SPLINE_CURVE_WITH_KNOTS('', 1, (#194, #195), .UNSPECIFIED., .F., .U., (2, 2), (0., 1.), .UNSPECIFIED.);
#194 = CARTESIAN_POINT('', (70., 80., 50.));
#195 = CARTESIAN_POINT('', (10., 80., 50.));
#196 = ORIENTED_EDGE('', *, *, #197, .T.);
#197 = EDGE_CURVE('', #191, #198, #200, .T.);
#198 = VERTEX_POINT('', #199);
#199 = CARTESIAN_POINT('', (10., 80., 70.));
#200 = B_SPLINE_CURVE_WITH_KNOTS('', 1, (#201, #202), .UNSPECIFIED., .F., .U., (2, 2), (0.714285714285714, 1.), .UNSPECIFIED.);
#201 = CARTESIAN_POINT('', (10., 80., 50.));
#202 = CARTESIAN_POINT('', (10., 80., 70.));
#203 = ORIENTED_EDGE('', *, *, #204, .F.);
#204 = EDGE_CURVE('', #164, #198, #205, .T.);
#205 = B_SPLINE_CURVE_WITH_KNOTS('', 1, (#206, #207), .UNSPECIFIED., .F., .U., (2, 2), (0., 1.), .UNSPECIFIED.);
#206 = CARTESIAN_POINT('', (70., 80., 70.));
#207 = CARTESIAN_POINT('', (10., 80., 70.));
#208 = ORIENTED_EDGE('', *, *, #163, .F.);
#209 = B_SPLINE_SURFACE_WITH_KNOTS('', 1, 1, ((#210, #211), (#212, #213)), .UNSPECIFIED., .F., .F., .U., (2, 2), (2, 2), (0., 1.), (0., 1.), .UNSPECIFIED.);
#210 = CARTESIAN_POINT('', (70., 80., 0.));
#211 = CARTESIAN_POINT('', (70., 80., 70.));
#212 = CARTESIAN_POINT('', (10., 80., 0.));
#213 = CARTESIAN_POINT('', (10., 80., 70.));
#214 = ADVANCED_FACE('', (#215), #237, .T.);
#215 = FACE_OUTER_BOUND('', #216, .T.);
#216 = EDGE_LOOP('', (#217, #224, #231, #236));
#217 = ORIENTED_EDGE('', *, *, #218, .T.);
#218 = EDGE_CURVE('', #191, #219, #221, .T.);
#219 = VERTEX_POINT('', #220);
#220 = CARTESIAN_POINT('', (10., 20., 50.));
#221 = B_SPLINE_CURVE_WITH_KNOTS('', 1, (#222, #223), .UNSPECIFIED., .F., .U., (2, 2), (0., 1.), .UNSPECIFIED.);
#222 = CARTESIAN_POINT('', (10., 80., 50.));
#223 = CARTESIAN_POINT('', (10., 20., 50.));
#224 = ORIENTED_EDGE('', *, *, #225, .T.);
#225 = EDGE_CURVE('', #219, #226, #228, .T.);
#226 = VERTEX_POINT('', #227);
#227 = CARTESIAN_POINT('', (10., 20., 70.));
#228 = B_SPLINE_CURVE_WITH_KNOTS('', 1, (#229, #230), .UNSPECIFIED., .F., .U., (2, 2), (0.714285714285714, 1.), .UNSPECIFIED.);
#229 = CARTESIAN_POINT('', (10., 20., 50.));
#230 = CARTESIAN_POINT('', (10., 20., 70.));
#231 = ORIENTED_EDGE('', *, *, #232, .F.);
#232 = EDGE_CURVE('', #198, #226, #233, .T.);
#233 = B_SPLINE_CURVE_WITH_KNOTS('', 1, (#234, #235), .UNSPECIFIED., .F., .U., (2, 2), (0., 1.), .UNSPECIFIED.);
#234 = CARTESIAN_POINT('', (10., 80., 70.));
#235 = CARTESIAN_POINT('', (10., 20., 70.));
#236 = ORIENTED_EDGE('', *, *, #197, .F.);
#237 = B_SPLINE_SURFACE_WITH_KNOTS('', 1, 1, ((#238, #239), (#240, #241)), .UNSPECIFIED., .F., .F., .U., (2, 2), (2, 2), (0., 1.), (0., 1.), .UNSPECIFIED.);
#238 = CARTESIAN_POINT('', (10., 80., 0.));
#239 = CARTESIAN_POINT('', (10., 80., 70.));
#240 = CARTESIAN_POINT('', (10., 20., 0.));
#241 = CARTESIAN_POINT('', (10., 20., 70.));
#242 = ADVANCED_FACE('', (#243), #257, .T.);
#243 = FACE_OUTER_BOUND('', #244, .T.);
#244 = EDGE_LOOP('', (#245, #250, #251, #256));
#245 = ORIENTED_EDGE('', *, *, #246, .T.);
#246 = EDGE_CURVE('', #219, #155, #247, .T.);
#247 = B_SPLINE_CURVE_WITH_KNOTS('', 1, (#248, #249), .UNSPECIFIED., .F., .U., (2, 2), (0., 1.), .UNSPECIFIED.);
#248 = CARTESIAN_POINT('', (10., 20., 50.));
#249 = CARTESIAN_POINT('', (70., 20., 50.));
#250 = ORIENTED_EDGE('', *, *, #177, .T.);
#251 = ORIENTED_EDGE('', *, *, #252, .F.);
#252 = EDGE_CURVE('', #226, #171, #253, .T.);
#253 = B_SPLINE_CURVE_WITH_KNOTS('', 1, (#254, #255), .UNSPECIFIED., .F., .U., (2, 2), (0., 1.), .UNSPECIFIED.);
#254 = CARTESIAN_POINT('', (10., 20., 70.));
#255 = CARTESIAN_POINT('', (70., 20., 70.));
#256 = ORIENTED_EDGE('', *, *, #225, .F.);
#257 = B_SPLINE_SURFACE_WITH_KNOTS('', 1, 1, ((#258, #259), (#260, #261)), .UNSPECIFIED., .F., .F., .U., (2, 2), (2, 2), (0., 1.), (0., 1.), .UNSPECIFIED.);
#258 = CARTESIAN_POINT('', (10., 20., 0.));
#259 = CARTESIAN_POINT('', (10., 20., 70.));
#260 = CARTESIAN_POINT('', (70., 20., 0.));
#261 = CARTESIAN_POINT('', (70., 20., 70.));
#262 = ADVANCED_FACE('', (#263), #269, .T.);
#263 = FACE_OUTER_BOUND('', #264, .T.);
#264 = EDGE_LOOP('', (#265, #266, #267, #268));
#265 = ORIENTED_EDGE('', *, *, #232, .T.);
#266 = ORIENTED_EDGE('', *, *, #252, .T.);
#267 = ORIENTED_EDGE('', *, *, #170, .T.);
#268 = ORIENTED_EDGE('', *, *, #204, .T.);
#269 = B_SPLINE_SURFACE_WITH_KNOTS('', 1, 1, ((#270, #271), (#272, #273)), .UNSPECIFIED., .F., .F., .U., (2, 2), (2, 2), (0., 1.), (0., 1.), .UNSPECIFIED.);
#270 = CARTESIAN_POINT('', (86.6690475583121, 3.33095244168786, 70.));
#271 = CARTESIAN_POINT('', (-6.66904755831214, 3.33095244168786, 70.));
#272 = CARTESIAN_POINT('', (86.6690475583121, 96.6690475583121, 70.));
#273 = CARTESIAN_POINT('', (-6.66904755831214, 96.6690475583121, 70.));
#274 = ADVANCED_FACE('', (#275, #305), #311, .T.);
#275 = FACE_OUTER_BOUND('', #276, .T.);
#276 = EDGE_LOOP('', (#277, #286, #293, #300));
#277 = ORIENTED_EDGE('', *, *, #278, .T.);
#278 = EDGE_CURVE('', #279, #281, #283, .T.);
#279 = VERTEX_POINT('', #280);
#280 = CARTESIAN_POINT('', (0., 100., 50.));
#281 = VERTEX_POINT('', #282);
#282 = CARTESIAN_POINT('', (0., 0., 50.));
#283 = B_SPLINE_CURVE_WITH_KNOTS('', 1, (#284, #285), .UNSPECIFIED., .F., .U., (2, 2), (0., 1.), .UNSPECIFIED.);
#284 = CARTESIAN_POINT('', (0., 100., 50.));
#285 = CARTESIAN_POINT('', (0., 0., 50.));
#286 = ORIENTED_EDGE('', *, *, #287, .T.);
#287 = EDGE_CURVE('', #281, #288, #290, .T.);
#288 = VERTEX_POINT('', #289);
#289 = CARTESIAN_POINT('', (100., 0., 50.));
#290 = B_SPLINE_CURVE_WITH_KNOTS('', 1, (#291, #292), .UNSPECIFIED., .F., .U., (2, 2), (0., 1.), .UNSPECIFIED.);
#291 = CARTESIAN_POINT('', (0., 0., 50.));
#292 = CARTESIAN_POINT('', (100., 0., 50.));
#293 = ORIENTED_EDGE('', *, *, #294, .T.);
#294 = EDGE_CURVE('', #288, #295, #297, .T.);
#295 = VERTEX_POINT('', #296);
#296 = CARTESIAN_POINT('', (100., 100., 50.));
#297 = B_SPLINE_CURVE_WITH_KNOTS('', 1, (#298, #299), .UNSPECIFIED., .F., .U., (2, 2), (0., 1.), .UNSPECIFIED.);
#298 = CARTESIAN_POINT('', (100., 0., 50.));
#299 = CARTESIAN_POINT('', (100., 100., 50.));
#300 = ORIENTED_EDGE('', *, *, #301, .T.);
#301 = EDGE_CURVE('', #295, #279, #302, .T.);
#302 = B_SPLINE_CURVE_WITH_KNOTS('', 1, (#303, #304), .UNSPECIFIED., .F., .U., (2, 2), (0., 1.), .UNSPECIFIED.);
#303 = CARTESIAN_POINT('', (100., 100., 50.));
#304 = CARTESIAN_POINT('', (0., 100., 50.));
#305 = FACE_BOUND('', #306, .T.);
#306 = EDGE_LOOP('', (#307, #308, #309, #310));
#307 = ORIENTED_EDGE('', *, *, #218, .F.);
#308 = ORIENTED_EDGE('', *, *, #190, .F.);
#309 = ORIENTED_EDGE('', *, *, #154, .F.);
#310 = ORIENTED_EDGE('', *, *, #246, .F.);
#311 = B_SPLINE_SURFACE_WITH_KNOTS('', 1, 1, ((#312, #313), (#314, #315)), .UNSPECIFIED., .F., .F., .U., (2, 2), (2, 2), (0., 1.), (0., 1.), .UNSPECIFIED.);
#312 = CARTESIAN_POINT('', (127.78174593052, -27.7817459305202, 50.));
#313 = CARTESIAN_POINT('', (-27.7817459305202, -27.7817459305202, 50.));
#314 = CARTESIAN_POINT('', (127.78174593052, 127.78174593052, 50.));
#315 = CARTESIAN_POINT('', (-27.7817459305202, 127.78174593052, 50.));
#316 = ADVANCED_FACE('', (#317), #347, .T.);
#317 = FACE_OUTER_BOUND('', #318, .T.);
#318 = EDGE_LOOP('', (#319, #328, #335, #342));
#319 = ORIENTED_EDGE('', *, *, #320, .F.);
#320 = EDGE_CURVE('', #321, #323, #325, .T.);
#321 = VERTEX_POINT('', #322);
#322 = CARTESIAN_POINT('', (0., 100., 0.));
#323 = VERTEX_POINT('', #324);
#324 = CARTESIAN_POINT('', (0., 0., 0.));
#325 = B_SPLINE_CURVE_WITH_KNOTS('', 1, (#326, #327), .UNSPECIFIED., .F., .U., (2, 2), (0., 1.), .UNSPECIFIED.);
#326 = CARTESIAN_POINT('', (0., 100., 0.));
#327 = CARTESIAN_POINT('', (0., 0., 0.));
#328 = ORIENTED_EDGE('', *, *, #329, .F.);
#329 = EDGE_CURVE('', #330, #321, #332, .T.);
#330 = VERTEX_POINT('', #331);
#331 = CARTESIAN_POINT('', (100., 100., 0.));
#332 = B_SPLINE_CURVE_WITH_KNOTS('', 1, (#333, #334), .UNSPECIFIED., .F., .U., (2, 2), (0., 1.), .UNSPECIFIED.);
#333 = CARTESIAN_POINT('', (100., 100., 0.));
#334 = CARTESIAN_POINT('', (0., 100., 0.));
#335 = ORIENTED_EDGE('', *, *, #336, .F.);
#336 = EDGE_CURVE('', #337, #330, #339, .T.);
#337 = VERTEX_POINT('', #338);
#338 = CARTESIAN_POINT('', (100., 0., 0.));
#339 = B_SPLINE_CURVE_WITH_KNOTS('', 1, (#340, #341), .UNSPECIFIED., .F., .U., (2, 2), (0., 1.), .UNSPECIFIED.);
#340 = CARTESIAN_POINT('', (100., 0., 0.));
#341 = CARTESIAN_POINT('', (100., 100., 0.));
#342 = ORIENTED_EDGE('', *, *, #343, .F.);
#343 = EDGE_CURVE('', #323, #337, #344, .T.);
#344 = B_SPLINE_CURVE_WITH_KNOTS('', 1, (#345, #346), .UNSPECIFIED., .F., .U., (2, 2), (0., 1.), .UNSPECIFIED.);
#345 = CARTESIAN_POINT('', (0., 0., 0.));
#346 = CARTESIAN_POINT('', (100., 0., 0.));
#347 = B_SPLINE_SURFACE_WITH_KNOTS('', 1, 1, ((#348, #349), (#350, #351)), .UNSPECIFIED., .F., .F., .U., (2, 2), (2, 2), (0., 1.), (0., 1.), .UNSPECIFIED.);
#348 = CARTESIAN_POINT('', (127.78174593052, -27.7817459305202, 0.));
#349 = CARTESIAN_POINT('', (127.78174593052, 127.78174593052, 0.));
#350 = CARTESIAN_POINT('', (-27.7817459305202, -27.7817459305202, 0.));
#351 = CARTESIAN_POINT('', (-27.7817459305202, 127.78174593052, 0.));
#352 = ADVANCED_FACE('', (#353), #367, .T.);
#353 = FACE_OUTER_BOUND('', #354, .T.);
#354 = EDGE_LOOP('', (#355, #360, #361, #366));
#355 = ORIENTED_EDGE('', *, *, #356, .F.);
#356 = EDGE_CURVE('', #321, #279, #357, .T.);
#357 = B_SPLINE_CURVE_WITH_KNOTS('', 1, (#358, #359), .UNSPECIFIED., .F., .U., (2, 2), (0., 1.), .UNSPECIFIED.);
#358 = CARTESIAN_POINT('', (0., 100., 0.));
#359 = CARTESIAN_POINT('', (0., 100., 50.));
#360 = ORIENTED_EDGE('', *, *, #320, .T.);
#361 = ORIENTED_EDGE('', *, *, #362, .T.);
#362 = EDGE_CURVE('', #323, #281, #363, .T.);
#363 = B_SPLINE_CURVE_WITH_KNOTS('', 1, (#364, #365), .UNSPECIFIED., .F., .U., (2, 2), (0., 1.), .UNSPECIFIED.);
#364 = CARTESIAN_POINT('', (0., 0., 0.));
#365 = CARTESIAN_POINT('', (0., 0., 50.));
#366 = ORIENTED_EDGE('', *, *, #278, .F.);
#367 = B_SPLINE_SURFACE_WITH_KNOTS('', 1, 1, ((#368, #369), (#370, #371)), .UNSPECIFIED., .F., .F., .U., (2, 2), (2, 2), (0., 1.), (0., 1.), .UNSPECIFIED.);
#368 = CARTESIAN_POINT('', (0., 100., 0.));
#369 = CARTESIAN_POINT('', (0., 100., 50.));
#370 = CARTESIAN_POINT('', (0., 0., 0.));
#371 = CARTESIAN_POINT('', (0., 0., 50.));
#372 = ADVANCED_FACE('', (#373), #383, .T.);
#373 = FACE_OUTER_BOUND('', #374, .T.);
#374 = EDGE_LOOP('', (#375, #376, #377, #382));
#375 = ORIENTED_EDGE('', *, *, #362, .F.);
#376 = ORIENTED_EDGE('', *, *, #343, .T.);
#377 = ORIENTED_EDGE('', *, *, #378, .T.);
#378 = EDGE_CURVE('', #337, #288, #379, .T.);
#379 = B_SPLINE_CURVE_WITH_KNOTS('', 1, (#380, #381), .UNSPECIFIED., .F., .U., (2, 2), (0., 1.), .UNSPECIFIED.);
#380 = CARTESIAN_POINT('', (100., 0., 0.));
#381 = CARTESIAN_POINT('', (100., 0., 50.));
#382 = ORIENTED_EDGE('', *, *, #287, .F.);
#383 = B_SPLINE_SURFACE_WITH_KNOTS('', 1, 1, ((#384, #385), (#386, #387)), .UNSPECIFIED., .F., .F., .U., (2, 2), (2, 2), (0., 1.), (0., 1.), .UNSPECIFIED.);
#384 = CARTESIAN_POINT('', (0., 0., 0.));
#385 = CARTESIAN_POINT('', (0., 0., 50.));
#386 = CARTESIAN_POINT('', (100., 0., 0.));
#387 = CARTESIAN_POINT('', (100., 0., 50.));
#388 = ADVANCED_FACE('', (#389), #399, .T.);
#389 = FACE_OUTER_BOUND('', #390, .T.);
#390 = EDGE_LOOP('', (#391, #396, #397, #398));
#391 = ORIENTED_EDGE('', *, *, #392, .F.);
#392 = EDGE_CURVE('', #330, #295, #393, .T.);
#393 = B_SPLINE_CURVE_WITH_KNOTS('', 1, (#394, #395), .UNSPECIFIED., .F., .U., (2, 2), (0., 1.), .UNSPECIFIED.);
#394 = CARTESIAN_POINT('', (100., 100., 0.));
#395 = CARTESIAN_POINT('', (100., 100., 50.));
#396 = ORIENTED_EDGE('', *, *, #329, .T.);
#397 = ORIENTED_EDGE('', *, *, #356, .T.);
#398 = ORIENTED_EDGE('', *, *, #301, .F.);
#399 = B_SPLINE_SURFACE_WITH_KNOTS('', 1, 1, ((#400, #401), (#402, #403)), .UNSPECIFIED., .F., .F., .U., (2, 2), (2, 2), (0., 1.), (0., 1.), .UNSPECIFIED.);
#400 = CARTESIAN_POINT('', (100., 100., 0.));
#401 = CARTESIAN_POINT('', (100., 100., 50.));
#402 = CARTESIAN_POINT('', (0., 100., 0.));
#403 = CARTESIAN_POINT('', (0., 100., 50.));
#404 = ADVANCED_FACE('', (#405), #411, .T.);
#405 = FACE_OUTER_BOUND('', #406, .T.);
#406 = EDGE_LOOP('', (#407, #408, #409, #410));
#407 = ORIENTED_EDGE('', *, *, #378, .F.);
#408 = ORIENTED_EDGE('', *, *, #336, .T.);
#409 = ORIENTED_EDGE('', *, *, #392, .T.);
#410 = ORIENTED_EDGE('', *, *, #294, .F.);
#411 = B_SPLINE_SURFACE_WITH_KNOTS('', 1, 1, ((#412, #413), (#414, #415)), .UNSPECIFIED., .F., .F., .U., (2, 2), (2, 2), (0., 1.), (0., 1.), .UNSPECIFIED.);
#412 = CARTESIAN_POINT('', (100., 0., 0.));
#413 = CARTESIAN_POINT('', (100., 0., 50.));
#414 = CARTESIAN_POINT('', (100., 100., 0.));
#415 = CARTESIAN_POINT('', (100., 100., 50.));
#416 = PRESENTATION_STYLE_ASSIGNMENT((#417));
#417 = SURFACE_STYLE_USAGE(.POSITIVE., #418);
#418 = SURFACE_SIDE_STYLE('', (#419));
#419 = SURFACE_STYLE_FILL_AREA(#420);
#420 = FILL_AREA_STYLE('', (#421));
#421 = FILL_AREA_STYLE_COLOUR('', #422);
#422 = COLOUR_RGB('', 0.50196078431373, 0.50196078431373, 0.50196078431373);
#423 = STYLED_ITEM('', (#416), #148);
#424 = CARTESIAN_POINT('Origin', (0., 0., 0.));
#425 = GEOMETRIC_SET('', (#424));
#426 = (
   GEOMETRIC_REPRESENTATION_CONTEXT (3)
   GLOBAL_UNCERTAINTY_ASSIGNED_CONTEXT ((#428))
   GLOBAL_UNIT_ASSIGNED_CONTEXT ((#427, #429, #430))
   REPRESENTATION_CONTEXT ('', '3D')
);
#427 = (
   LENGTH_UNIT ()
   NAMED_UNIT (*)
   SI_UNIT (.MILLI., .METRE.)
);
#428 = UNCERTAINTY_MEASURE_WITH_UNIT(LENGTH_MEASURE(1.E-6), #427, 'DISTANCE_ACCURACY_VALUE', '');
#429 = (
   NAMED_UNIT (*)
   SI_UNIT ($, .STERADIAN.)
   SOLID_ANGLE_UNIT ()
);
#430 = (
   NAMED_UNIT (*)
   PLANE_ANGLE_UNIT ()
   SI_UNIT ($, .RADIAN.)
);
#431 = SHAPE_REPRESENTATION('', (#446), #426);
#432 = PRODUCT_DEFINITION_SHAPE('', '', #433);
#433 = PRODUCT_DEFINITION('', '', #436, #440);
#434 = APPLICATION_CONTEXT('configuration controlled 3D designs of mechanical parts and assemblies');
#435 = APPLICATION_PROTOCOL_DEFINITION('International Standard', 'automotive_design', 2002, #434);
#436 = PRODUCT_DEFINITION_FORMATION_WITH_SPECIFIED_SOURCE('', '', #437, .NOT_KNOWN.);
#437 = PRODUCT('ChainBool', 'ChainBool', '', (#438));
#438 = PRODUCT_CONTEXT('', #434, 'mechanical');
#439 = PRODUCT_RELATED_PRODUCT_CATEGORY('detail', '', (#437));
#440 = PRODUCT_DEFINITION_CONTEXT('part definition', #434, 'design');
#441 = SHAPE_DEFINITION_REPRESENTATION(#432, #431);
#442 = SHAPE_REPRESENTATION_RELATIONSHIP('', '', #431, #443);
#443 = SHAPE_REPRESENTATION('', (#425), #426);
#444 = SHAPE_REPRESENTATION_RELATIONSHIP('', '', #431, #445);
#445 = ADVANCED_BREP_SHAPE_REPRESENTATION('', (#1, #148), #426);
#446 = AXIS2_PLACEMENT_3D('', #447, #448, #449);
#447 = CARTESIAN_POINT('', (0., 0., 0.));
#448 = DIRECTION('', (0., 0., 1.));
#449 = DIRECTION('', (1., 0., 0.));
ENDSEC;
END-ISO-10303-21;
