ISO-10303-21;
HEADER;
FILE_DESCRIPTION(('STEP'), '1');
FILE_NAME('Indices', '2026-03-20T13:45:54', (''), (''), 'Express 3.1.2.0', 'Express Tool', 'Unknown');
FILE_SCHEMA(('AUTOMOTIVE_DESIGN'));
ENDSEC;

DATA;
#1 = MANIFOLD_SOLID_BREP('LinearPattern_0', #2);
#2 = CLOSED_SHELL('', (#3, #39, #75, #95, #111, #127));
#3 = ADVANCED_FACE('', (#4), #34, .T.);
#4 = FACE_OUTER_BOUND('', #5, .T.);
#5 = EDGE_LOOP('', (#6, #15, #22, #29));
#6 = ORIENTED_EDGE('', *, *, #7, .T.);
#7 = EDGE_CURVE('', #8, #10, #12, .T.);
#8 = VERTEX_POINT('', #9);
#9 = CARTESIAN_POINT('', (10., 40., 40.));
#10 = VERTEX_POINT('', #11);
#11 = CARTESIAN_POINT('', (10., 20., 40.));
#12 = B_SPLINE_CURVE_WITH_KNOTS('', 1, (#13, #14), .UNSPECIFIED., .F., .U., (2, 2), (0., 1.), .UNSPECIFIED.);
#13 = CARTESIAN_POINT('', (10., 40., 40.));
#14 = CARTESIAN_POINT('', (10., 20., 40.));
#15 = ORIENTED_EDGE('', *, *, #16, .T.);
#16 = EDGE_CURVE('', #10, #17, #19, .T.);
#17 = VERTEX_POINT('', #18);
#18 = CARTESIAN_POINT('', (30., 20., 40.));
#19 = B_SPLINE_CURVE_WITH_KNOTS('', 1, (#20, #21), .UNSPECIFIED., .F., .U., (2, 2), (0., 1.), .UNSPECIFIED.);
#20 = CARTESIAN_POINT('', (10., 20., 40.));
#21 = CARTESIAN_POINT('', (30., 20., 40.));
#22 = ORIENTED_EDGE('', *, *, #23, .T.);
#23 = EDGE_CURVE('', #17, #24, #26, .T.);
#24 = VERTEX_POINT('', #25);
#25 = CARTESIAN_POINT('', (30., 40., 40.));
#26 = B_SPLINE_CURVE_WITH_KNOTS('', 1, (#27, #28), .UNSPECIFIED., .F., .U., (2, 2), (0., 1.), .UNSPECIFIED.);
#27 = CARTESIAN_POINT('', (30., 20., 40.));
#28 = CARTESIAN_POINT('', (30., 40., 40.));
#29 = ORIENTED_EDGE('', *, *, #30, .T.);
#30 = EDGE_CURVE('', #24, #8, #31, .T.);
#31 = B_SPLINE_CURVE_WITH_KNOTS('', 1, (#32, #33), .UNSPECIFIED., .F., .U., (2, 2), (0., 1.), .UNSPECIFIED.);
#32 = CARTESIAN_POINT('', (30., 40., 40.));
#33 = CARTESIAN_POINT('', (10., 40., 40.));
#34 = B_SPLINE_SURFACE_WITH_KNOTS('', 1, 1, ((#35, #36), (#37, #38)), .UNSPECIFIED., .F., .F., .U., (2, 2), (2, 2), (0., 1.), (0., 1.), .UNSPECIFIED.);
#35 = CARTESIAN_POINT('', (35.556349186104, 14.443650813896, 40.));
#36 = CARTESIAN_POINT('', (4.44365081389595, 14.443650813896, 40.));
#37 = CARTESIAN_POINT('', (35.556349186104, 45.556349186104, 40.));
#38 = CARTESIAN_POINT('', (4.44365081389595, 45.556349186104, 40.));
#39 = ADVANCED_FACE('', (#40), #70, .T.);
#40 = FACE_OUTER_BOUND('', #41, .T.);
#41 = EDGE_LOOP('', (#42, #51, #58, #65));
#42 = ORIENTED_EDGE('', *, *, #43, .F.);
#43 = EDGE_CURVE('', #44, #46, #48, .T.);
#44 = VERTEX_POINT('', #45);
#45 = CARTESIAN_POINT('', (10., 40., 0.));
#46 = VERTEX_POINT('', #47);
#47 = CARTESIAN_POINT('', (10., 20., 0.));
#48 = B_SPLINE_CURVE_WITH_KNOTS('', 1, (#49, #50), .UNSPECIFIED., .F., .U., (2, 2), (0., 1.), .UNSPECIFIED.);
#49 = CARTESIAN_POINT('', (10., 40., 0.));
#50 = CARTESIAN_POINT('', (10., 20., 0.));
#51 = ORIENTED_EDGE('', *, *, #52, .F.);
#52 = EDGE_CURVE('', #53, #44, #55, .T.);
#53 = VERTEX_POINT('', #54);
#54 = CARTESIAN_POINT('', (30., 40., 0.));
#55 = B_SPLINE_CURVE_WITH_KNOTS('', 1, (#56, #57), .UNSPECIFIED., .F., .U., (2, 2), (0., 1.), .UNSPECIFIED.);
#56 = CARTESIAN_POINT('', (30., 40., 0.));
#57 = CARTESIAN_POINT('', (10., 40., 0.));
#58 = ORIENTED_EDGE('', *, *, #59, .F.);
#59 = EDGE_CURVE('', #60, #53, #62, .T.);
#60 = VERTEX_POINT('', #61);
#61 = CARTESIAN_POINT('', (30., 20., 0.));
#62 = B_SPLINE_CURVE_WITH_KNOTS('', 1, (#63, #64), .UNSPECIFIED., .F., .U., (2, 2), (0., 1.), .UNSPECIFIED.);
#63 = CARTESIAN_POINT('', (30., 20., 0.));
#64 = CARTESIAN_POINT('', (30., 40., 0.));
#65 = ORIENTED_EDGE('', *, *, #66, .F.);
#66 = EDGE_CURVE('', #46, #60, #67, .T.);
#67 = B_SPLINE_CURVE_WITH_KNOTS('', 1, (#68, #69), .UNSPECIFIED., .F., .U., (2, 2), (0., 1.), .UNSPECIFIED.);
#68 = CARTESIAN_POINT('', (10., 20., 0.));
#69 = CARTESIAN_POINT('', (30., 20., 0.));
#70 = B_SPLINE_SURFACE_WITH_KNOTS('', 1, 1, ((#71, #72), (#73, #74)), .UNSPECIFIED., .F., .F., .U., (2, 2), (2, 2), (0., 1.), (0., 1.), .UNSPECIFIED.);
#71 = CARTESIAN_POINT('', (35.556349186104, 14.443650813896, 0.));
#72 = CARTESIAN_POINT('', (35.556349186104, 45.556349186104, 0.));
#73 = CARTESIAN_POINT('', (4.44365081389595, 14.443650813896, 0.));
#74 = CARTESIAN_POINT('', (4.44365081389595, 45.556349186104, 0.));
#75 = ADVANCED_FACE('', (#76), #90, .T.);
#76 = FACE_OUTER_BOUND('', #77, .T.);
#77 = EDGE_LOOP('', (#78, #83, #84, #89));
#78 = ORIENTED_EDGE('', *, *, #79, .F.);
#79 = EDGE_CURVE('', #44, #8, #80, .T.);
#80 = B_SPLINE_CURVE_WITH_KNOTS('', 1, (#81, #82), .UNSPECIFIED., .F., .U., (2, 2), (0., 1.), .UNSPECIFIED.);
#81 = CARTESIAN_POINT('', (10., 40., 0.));
#82 = CARTESIAN_POINT('', (10., 40., 40.));
#83 = ORIENTED_EDGE('', *, *, #43, .T.);
#84 = ORIENTED_EDGE('', *, *, #85, .T.);
#85 = EDGE_CURVE('', #46, #10, #86, .T.);
#86 = B_SPLINE_CURVE_WITH_KNOTS('', 1, (#87, #88), .UNSPECIFIED., .F., .U., (2, 2), (0., 1.), .UNSPECIFIED.);
#87 = CARTESIAN_POINT('', (10., 20., 0.));
#88 = CARTESIAN_POINT('', (10., 20., 40.));
#89 = ORIENTED_EDGE('', *, *, #7, .F.);
#90 = B_SPLINE_SURFACE_WITH_KNOTS('', 1, 1, ((#91, #92), (#93, #94)), .UNSPECIFIED., .F., .F., .U., (2, 2), (2, 2), (0., 1.), (0., 1.), .UNSPECIFIED.);
#91 = CARTESIAN_POINT('', (10., 40., 0.));
#92 = CARTESIAN_POINT('', (10., 40., 40.));
#93 = CARTESIAN_POINT('', (10., 20., 0.));
#94 = CARTESIAN_POINT('', (10., 20., 40.));
#95 = ADVANCED_FACE('', (#96), #106, .T.);
#96 = FACE_OUTER_BOUND('', #97, .T.);
#97 = EDGE_LOOP('', (#98, #99, #100, #105));
#98 = ORIENTED_EDGE('', *, *, #85, .F.);
#99 = ORIENTED_EDGE('', *, *, #66, .T.);
#100 = ORIENTED_EDGE('', *, *, #101, .T.);
#101 = EDGE_CURVE('', #60, #17, #102, .T.);
#102 = B_SPLINE_CURVE_WITH_KNOTS('', 1, (#103, #104), .UNSPECIFIED., .F., .U., (2, 2), (0., 1.), .UNSPECIFIED.);
#103 = CARTESIAN_POINT('', (30., 20., 0.));
#104 = CARTESIAN_POINT('', (30., 20., 40.));
#105 = ORIENTED_EDGE('', *, *, #16, .F.);
#106 = B_SPLINE_SURFACE_WITH_KNOTS('', 1, 1, ((#107, #108), (#109, #110)), .UNSPECIFIED., .F., .F., .U., (2, 2), (2, 2), (0., 1.), (0., 1.), .UNSPECIFIED.);
#107 = CARTESIAN_POINT('', (10., 20., 0.));
#108 = CARTESIAN_POINT('', (10., 20., 40.));
#109 = CARTESIAN_POINT('', (30., 20., 0.));
#110 = CARTESIAN_POINT('', (30., 20., 40.));
#111 = ADVANCED_FACE('', (#112), #122, .T.);
#112 = FACE_OUTER_BOUND('', #113, .T.);
#113 = EDGE_LOOP('', (#114, #119, #120, #121));
#114 = ORIENTED_EDGE('', *, *, #115, .F.);
#115 = EDGE_CURVE('', #53, #24, #116, .T.);
#116 = B_SPLINE_CURVE_WITH_KNOTS('', 1, (#117, #118), .UNSPECIFIED., .F., .U., (2, 2), (0., 1.), .UNSPECIFIED.);
#117 = CARTESIAN_POINT('', (30., 40., 0.));
#118 = CARTESIAN_POINT('', (30., 40., 40.));
#119 = ORIENTED_EDGE('', *, *, #52, .T.);
#120 = ORIENTED_EDGE('', *, *, #79, .T.);
#121 = ORIENTED_EDGE('', *, *, #30, .F.);
#122 = B_SPLINE_SURFACE_WITH_KNOTS('', 1, 1, ((#123, #124), (#125, #126)), .UNSPECIFIED., .F., .F., .U., (2, 2), (2, 2), (0., 1.), (0., 1.), .UNSPECIFIED.);
#123 = CARTESIAN_POINT('', (30., 40., 0.));
#124 = CARTESIAN_POINT('', (30., 40., 40.));
#125 = CARTESIAN_POINT('', (10., 40., 0.));
#126 = CARTESIAN_POINT('', (10., 40., 40.));
#127 = ADVANCED_FACE('', (#128), #134, .T.);
#128 = FACE_OUTER_BOUND('', #129, .T.);
#129 = EDGE_LOOP('', (#130, #131, #132, #133));
#130 = ORIENTED_EDGE('', *, *, #101, .F.);
#131 = ORIENTED_EDGE('', *, *, #59, .T.);
#132 = ORIENTED_EDGE('', *, *, #115, .T.);
#133 = ORIENTED_EDGE('', *, *, #23, .F.);
#134 = B_SPLINE_SURFACE_WITH_KNOTS('', 1, 1, ((#135, #136), (#137, #138)), .UNSPECIFIED., .F., .F., .U., (2, 2), (2, 2), (0., 1.), (0., 1.), .UNSPECIFIED.);
#135 = CARTESIAN_POINT('', (30., 20., 0.));
#136 = CARTESIAN_POINT('', (30., 20., 40.));
#137 = CARTESIAN_POINT('', (30., 40., 0.));
#138 = CARTESIAN_POINT('', (30., 40., 40.));
#139 = DRAUGHTING_MODEL('', (#147, #293, #439, #709), #712);
#140 = PRESENTATION_STYLE_ASSIGNMENT((#141));
#141 = SURFACE_STYLE_USAGE(.POSITIVE., #142);
#142 = SURFACE_SIDE_STYLE('', (#143));
#143 = SURFACE_STYLE_FILL_AREA(#144);
#144 = FILL_AREA_STYLE('', (#145));
#145 = FILL_AREA_STYLE_COLOUR('', #146);
#146 = COLOUR_RGB('', 0.50196078431373, 0.50196078431373, 0.50196078431373);
#147 = STYLED_ITEM('', (#140), #1);
#148 = MANIFOLD_SOLID_BREP('LinearPattern_1', #149);
#149 = CLOSED_SHELL('', (#150, #186, #222, #242, #258, #274));
#150 = ADVANCED_FACE('', (#151), #181, .T.);
#151 = FACE_OUTER_BOUND('', #152, .T.);
#152 = EDGE_LOOP('', (#153, #162, #169, #176));
#153 = ORIENTED_EDGE('', *, *, #154, .T.);
#154 = EDGE_CURVE('', #155, #157, #159, .T.);
#155 = VERTEX_POINT('', #156);
#156 = CARTESIAN_POINT('', (60., 40., 40.));
#157 = VERTEX_POINT('', #158);
#158 = CARTESIAN_POINT('', (60., 20., 40.));
#159 = B_SPLINE_CURVE_WITH_KNOTS('', 1, (#160, #161), .UNSPECIFIED., .F., .U., (2, 2), (0., 1.), .UNSPECIFIED.);
#160 = CARTESIAN_POINT('', (60., 40., 40.));
#161 = CARTESIAN_POINT('', (60., 20., 40.));
#162 = ORIENTED_EDGE('', *, *, #163, .T.);
#163 = EDGE_CURVE('', #157, #164, #166, .T.);
#164 = VERTEX_POINT('', #165);
#165 = CARTESIAN_POINT('', (80., 20., 40.));
#166 = B_SPLINE_CURVE_WITH_KNOTS('', 1, (#167, #168), .UNSPECIFIED., .F., .U., (2, 2), (0., 1.), .UNSPECIFIED.);
#167 = CARTESIAN_POINT('', (60., 20., 40.));
#168 = CARTESIAN_POINT('', (80., 20., 40.));
#169 = ORIENTED_EDGE('', *, *, #170, .T.);
#170 = EDGE_CURVE('', #164, #171, #173, .T.);
#171 = VERTEX_POINT('', #172);
#172 = CARTESIAN_POINT('', (80., 40., 40.));
#173 = B_SPLINE_CURVE_WITH_KNOTS('', 1, (#174, #175), .UNSPECIFIED., .F., .U., (2, 2), (0., 1.), .UNSPECIFIED.);
#174 = CARTESIAN_POINT('', (80., 20., 40.));
#175 = CARTESIAN_POINT('', (80., 40., 40.));
#176 = ORIENTED_EDGE('', *, *, #177, .T.);
#177 = EDGE_CURVE('', #171, #155, #178, .T.);
#178 = B_SPLINE_CURVE_WITH_KNOTS('', 1, (#179, #180), .UNSPECIFIED., .F., .U., (2, 2), (0., 1.), .UNSPECIFIED.);
#179 = CARTESIAN_POINT('', (80., 40., 40.));
#180 = CARTESIAN_POINT('', (60., 40., 40.));
#181 = B_SPLINE_SURFACE_WITH_KNOTS('', 1, 1, ((#182, #183), (#184, #185)), .UNSPECIFIED., .F., .F., .U., (2, 2), (2, 2), (0., 1.), (0., 1.), .UNSPECIFIED.);
#182 = CARTESIAN_POINT('', (85.556349186104, 14.443650813896, 40.));
#183 = CARTESIAN_POINT('', (54.443650813896, 14.443650813896, 40.));
#184 = CARTESIAN_POINT('', (85.556349186104, 45.556349186104, 40.));
#185 = CARTESIAN_POINT('', (54.443650813896, 45.556349186104, 40.));
#186 = ADVANCED_FACE('', (#187), #217, .T.);
#187 = FACE_OUTER_BOUND('', #188, .T.);
#188 = EDGE_LOOP('', (#189, #198, #205, #212));
#189 = ORIENTED_EDGE('', *, *, #190, .F.);
#190 = EDGE_CURVE('', #191, #193, #195, .T.);
#191 = VERTEX_POINT('', #192);
#192 = CARTESIAN_POINT('', (60., 40., 0.));
#193 = VERTEX_POINT('', #194);
#194 = CARTESIAN_POINT('', (60., 20., 0.));
#195 = B_SPLINE_CURVE_WITH_KNOTS('', 1, (#196, #197), .UNSPECIFIED., .F., .U., (2, 2), (0., 1.), .UNSPECIFIED.);
#196 = CARTESIAN_POINT('', (60., 40., 0.));
#197 = CARTESIAN_POINT('', (60., 20., 0.));
#198 = ORIENTED_EDGE('', *, *, #199, .F.);
#199 = EDGE_CURVE('', #200, #191, #202, .T.);
#200 = VERTEX_POINT('', #201);
#201 = CARTESIAN_POINT('', (80., 40., 0.));
#202 = B_SPLINE_CURVE_WITH_KNOTS('', 1, (#203, #204), .UNSPECIFIED., .F., .U., (2, 2), (0., 1.), .UNSPECIFIED.);
#203 = CARTESIAN_POINT('', (80., 40., 0.));
#204 = CARTESIAN_POINT('', (60., 40., 0.));
#205 = ORIENTED_EDGE('', *, *, #206, .F.);
#206 = EDGE_CURVE('', #207, #200, #209, .T.);
#207 = VERTEX_POINT('', #208);
#208 = CARTESIAN_POINT('', (80., 20., 0.));
#209 = B_SPLINE_CURVE_WITH_KNOTS('', 1, (#210, #211), .UNSPECIFIED., .F., .U., (2, 2), (0., 1.), .UNSPECIFIED.);
#210 = CARTESIAN_POINT('', (80., 20., 0.));
#211 = CARTESIAN_POINT('', (80., 40., 0.));
#212 = ORIENTED_EDGE('', *, *, #213, .F.);
#213 = EDGE_CURVE('', #193, #207, #214, .T.);
#214 = B_SPLINE_CURVE_WITH_KNOTS('', 1, (#215, #216), .UNSPECIFIED., .F., .U., (2, 2), (0., 1.), .UNSPECIFIED.);
#215 = CARTESIAN_POINT('', (60., 20., 0.));
#216 = CARTESIAN_POINT('', (80., 20., 0.));
#217 = B_SPLINE_SURFACE_WITH_KNOTS('', 1, 1, ((#218, #219), (#220, #221)), .UNSPECIFIED., .F., .F., .U., (2, 2), (2, 2), (0., 1.), (0., 1.), .UNSPECIFIED.);
#218 = CARTESIAN_POINT('', (85.556349186104, 14.443650813896, 0.));
#219 = CARTESIAN_POINT('', (85.556349186104, 45.556349186104, 0.));
#220 = CARTESIAN_POINT('', (54.443650813896, 14.443650813896, 0.));
#221 = CARTESIAN_POINT('', (54.443650813896, 45.556349186104, 0.));
#222 = ADVANCED_FACE('', (#223), #237, .T.);
#223 = FACE_OUTER_BOUND('', #224, .T.);
#224 = EDGE_LOOP('', (#225, #230, #231, #236));
#225 = ORIENTED_EDGE('', *, *, #226, .F.);
#226 = EDGE_CURVE('', #191, #155, #227, .T.);
#227 = B_SPLINE_CURVE_WITH_KNOTS('', 1, (#228, #229), .UNSPECIFIED., .F., .U., (2, 2), (0., 1.), .UNSPECIFIED.);
#228 = CARTESIAN_POINT('', (60., 40., 0.));
#229 = CARTESIAN_POINT('', (60., 40., 40.));
#230 = ORIENTED_EDGE('', *, *, #190, .T.);
#231 = ORIENTED_EDGE('', *, *, #232, .T.);
#232 = EDGE_CURVE('', #193, #157, #233, .T.);
#233 = B_SPLINE_CURVE_WITH_KNOTS('', 1, (#234, #235), .UNSPECIFIED., .F., .U., (2, 2), (0., 1.), .UNSPECIFIED.);
#234 = CARTESIAN_POINT('', (60., 20., 0.));
#235 = CARTESIAN_POINT('', (60., 20., 40.));
#236 = ORIENTED_EDGE('', *, *, #154, .F.);
#237 = B_SPLINE_SURFACE_WITH_KNOTS('', 1, 1, ((#238, #239), (#240, #241)), .UNSPECIFIED., .F., .F., .U., (2, 2), (2, 2), (0., 1.), (0., 1.), .UNSPECIFIED.);
#238 = CARTESIAN_POINT('', (60., 40., 0.));
#239 = CARTESIAN_POINT('', (60., 40., 40.));
#240 = CARTESIAN_POINT('', (60., 20., 0.));
#241 = CARTESIAN_POINT('', (60., 20., 40.));
#242 = ADVANCED_FACE('', (#243), #253, .T.);
#243 = FACE_OUTER_BOUND('', #244, .T.);
#244 = EDGE_LOOP('', (#245, #246, #247, #252));
#245 = ORIENTED_EDGE('', *, *, #232, .F.);
#246 = ORIENTED_EDGE('', *, *, #213, .T.);
#247 = ORIENTED_EDGE('', *, *, #248, .T.);
#248 = EDGE_CURVE('', #207, #164, #249, .T.);
#249 = B_SPLINE_CURVE_WITH_KNOTS('', 1, (#250, #251), .UNSPECIFIED., .F., .U., (2, 2), (0., 1.), .UNSPECIFIED.);
#250 = CARTESIAN_POINT('', (80., 20., 0.));
#251 = CARTESIAN_POINT('', (80., 20., 40.));
#252 = ORIENTED_EDGE('', *, *, #163, .F.);
#253 = B_SPLINE_SURFACE_WITH_KNOTS('', 1, 1, ((#254, #255), (#256, #257)), .UNSPECIFIED., .F., .F., .U., (2, 2), (2, 2), (0., 1.), (0., 1.), .UNSPECIFIED.);
#254 = CARTESIAN_POINT('', (60., 20., 0.));
#255 = CARTESIAN_POINT('', (60., 20., 40.));
#256 = CARTESIAN_POINT('', (80., 20., 0.));
#257 = CARTESIAN_POINT('', (80., 20., 40.));
#258 = ADVANCED_FACE('', (#259), #269, .T.);
#259 = FACE_OUTER_BOUND('', #260, .T.);
#260 = EDGE_LOOP('', (#261, #266, #267, #268));
#261 = ORIENTED_EDGE('', *, *, #262, .F.);
#262 = EDGE_CURVE('', #200, #171, #263, .T.);
#263 = B_SPLINE_CURVE_WITH_KNOTS('', 1, (#264, #265), .UNSPECIFIED., .F., .U., (2, 2), (0., 1.), .UNSPECIFIED.);
#264 = CARTESIAN_POINT('', (80., 40., 0.));
#265 = CARTESIAN_POINT('', (80., 40., 40.));
#266 = ORIENTED_EDGE('', *, *, #199, .T.);
#267 = ORIENTED_EDGE('', *, *, #226, .T.);
#268 = ORIENTED_EDGE('', *, *, #177, .F.);
#269 = B_SPLINE_SURFACE_WITH_KNOTS('', 1, 1, ((#270, #271), (#272, #273)), .UNSPECIFIED., .F., .F., .U., (2, 2), (2, 2), (0., 1.), (0., 1.), .UNSPECIFIED.);
#270 = CARTESIAN_POINT('', (80., 40., 0.));
#271 = CARTESIAN_POINT('', (80., 40., 40.));
#272 = CARTESIAN_POINT('', (60., 40., 0.));
#273 = CARTESIAN_POINT('', (60., 40., 40.));
#274 = ADVANCED_FACE('', (#275), #281, .T.);
#275 = FACE_OUTER_BOUND('', #276, .T.);
#276 = EDGE_LOOP('', (#277, #278, #279, #280));
#277 = ORIENTED_EDGE('', *, *, #248, .F.);
#278 = ORIENTED_EDGE('', *, *, #206, .T.);
#279 = ORIENTED_EDGE('', *, *, #262, .T.);
#280 = ORIENTED_EDGE('', *, *, #170, .F.);
#281 = B_SPLINE_SURFACE_WITH_KNOTS('', 1, 1, ((#282, #283), (#284, #285)), .UNSPECIFIED., .F., .F., .U., (2, 2), (2, 2), (0., 1.), (0., 1.), .UNSPECIFIED.);
#282 = CARTESIAN_POINT('', (80., 20., 0.));
#283 = CARTESIAN_POINT('', (80., 20., 40.));
#284 = CARTESIAN_POINT('', (80., 40., 0.));
#285 = CARTESIAN_POINT('', (80., 40., 40.));
#286 = PRESENTATION_STYLE_ASSIGNMENT((#287));
#287 = SURFACE_STYLE_USAGE(.POSITIVE., #288);
#288 = SURFACE_SIDE_STYLE('', (#289));
#289 = SURFACE_STYLE_FILL_AREA(#290);
#290 = FILL_AREA_STYLE('', (#291));
#291 = FILL_AREA_STYLE_COLOUR('', #292);
#292 = COLOUR_RGB('', 0.50196078431373, 0.50196078431373, 0.50196078431373);
#293 = STYLED_ITEM('', (#286), #148);
#294 = MANIFOLD_SOLID_BREP('LinearPattern_3', #295);
#295 = CLOSED_SHELL('', (#296, #332, #368, #388, #404, #420));
#296 = ADVANCED_FACE('', (#297), #327, .T.);
#297 = FACE_OUTER_BOUND('', #298, .T.);
#298 = EDGE_LOOP('', (#299, #308, #315, #322));
#299 = ORIENTED_EDGE('', *, *, #300, .T.);
#300 = EDGE_CURVE('', #301, #303, #305, .T.);
#301 = VERTEX_POINT('', #302);
#302 = CARTESIAN_POINT('', (160., 40., 40.));
#303 = VERTEX_POINT('', #304);
#304 = CARTESIAN_POINT('', (160., 20., 40.));
#305 = B_SPLINE_CURVE_WITH_KNOTS('', 1, (#306, #307), .UNSPECIFIED., .F., .U., (2, 2), (0., 1.), .UNSPECIFIED.);
#306 = CARTESIAN_POINT('', (160., 40., 40.));
#307 = CARTESIAN_POINT('', (160., 20., 40.));
#308 = ORIENTED_EDGE('', *, *, #309, .T.);
#309 = EDGE_CURVE('', #303, #310, #312, .T.);
#310 = VERTEX_POINT('', #311);
#311 = CARTESIAN_POINT('', (180., 20., 40.));
#312 = B_SPLINE_CURVE_WITH_KNOTS('', 1, (#313, #314), .UNSPECIFIED., .F., .U., (2, 2), (0., 1.), .UNSPECIFIED.);
#313 = CARTESIAN_POINT('', (160., 20., 40.));
#314 = CARTESIAN_POINT('', (180., 20., 40.));
#315 = ORIENTED_EDGE('', *, *, #316, .T.);
#316 = EDGE_CURVE('', #310, #317, #319, .T.);
#317 = VERTEX_POINT('', #318);
#318 = CARTESIAN_POINT('', (180., 40., 40.));
#319 = B_SPLINE_CURVE_WITH_KNOTS('', 1, (#320, #321), .UNSPECIFIED., .F., .U., (2, 2), (0., 1.), .UNSPECIFIED.);
#320 = CARTESIAN_POINT('', (180., 20., 40.));
#321 = CARTESIAN_POINT('', (180., 40., 40.));
#322 = ORIENTED_EDGE('', *, *, #323, .T.);
#323 = EDGE_CURVE('', #317, #301, #324, .T.);
#324 = B_SPLINE_CURVE_WITH_KNOTS('', 1, (#325, #326), .UNSPECIFIED., .F., .U., (2, 2), (0., 1.), .UNSPECIFIED.);
#325 = CARTESIAN_POINT('', (180., 40., 40.));
#326 = CARTESIAN_POINT('', (160., 40., 40.));
#327 = B_SPLINE_SURFACE_WITH_KNOTS('', 1, 1, ((#328, #329), (#330, #331)), .UNSPECIFIED., .F., .F., .U., (2, 2), (2, 2), (0., 1.), (0., 1.), .UNSPECIFIED.);
#328 = CARTESIAN_POINT('', (185.556349186104, 14.443650813896, 40.));
#329 = CARTESIAN_POINT('', (154.443650813896, 14.443650813896, 40.));
#330 = CARTESIAN_POINT('', (185.556349186104, 45.556349186104, 40.));
#331 = CARTESIAN_POINT('', (154.443650813896, 45.556349186104, 40.));
#332 = ADVANCED_FACE('', (#333), #363, .T.);
#333 = FACE_OUTER_BOUND('', #334, .T.);
#334 = EDGE_LOOP('', (#335, #344, #351, #358));
#335 = ORIENTED_EDGE('', *, *, #336, .F.);
#336 = EDGE_CURVE('', #337, #339, #341, .T.);
#337 = VERTEX_POINT('', #338);
#338 = CARTESIAN_POINT('', (160., 40., 0.));
#339 = VERTEX_POINT('', #340);
#340 = CARTESIAN_POINT('', (160., 20., 0.));
#341 = B_SPLINE_CURVE_WITH_KNOTS('', 1, (#342, #343), .UNSPECIFIED., .F., .U., (2, 2), (0., 1.), .UNSPECIFIED.);
#342 = CARTESIAN_POINT('', (160., 40., 0.));
#343 = CARTESIAN_POINT('', (160., 20., 0.));
#344 = ORIENTED_EDGE('', *, *, #345, .F.);
#345 = EDGE_CURVE('', #346, #337, #348, .T.);
#346 = VERTEX_POINT('', #347);
#347 = CARTESIAN_POINT('', (180., 40., 0.));
#348 = B_SPLINE_CURVE_WITH_KNOTS('', 1, (#349, #350), .UNSPECIFIED., .F., .U., (2, 2), (0., 1.), .UNSPECIFIED.);
#349 = CARTESIAN_POINT('', (180., 40., 0.));
#350 = CARTESIAN_POINT('', (160., 40., 0.));
#351 = ORIENTED_EDGE('', *, *, #352, .F.);
#352 = EDGE_CURVE('', #353, #346, #355, .T.);
#353 = VERTEX_POINT('', #354);
#354 = CARTESIAN_POINT('', (180., 20., 0.));
#355 = B_SPLINE_CURVE_WITH_KNOTS('', 1, (#356, #357), .UNSPECIFIED., .F., .U., (2, 2), (0., 1.), .UNSPECIFIED.);
#356 = CARTESIAN_POINT('', (180., 20., 0.));
#357 = CARTESIAN_POINT('', (180., 40., 0.));
#358 = ORIENTED_EDGE('', *, *, #359, .F.);
#359 = EDGE_CURVE('', #339, #353, #360, .T.);
#360 = B_SPLINE_CURVE_WITH_KNOTS('', 1, (#361, #362), .UNSPECIFIED., .F., .U., (2, 2), (0., 1.), .UNSPECIFIED.);
#361 = CARTESIAN_POINT('', (160., 20., 0.));
#362 = CARTESIAN_POINT('', (180., 20., 0.));
#363 = B_SPLINE_SURFACE_WITH_KNOTS('', 1, 1, ((#364, #365), (#366, #367)), .UNSPECIFIED., .F., .F., .U., (2, 2), (2, 2), (0., 1.), (0., 1.), .UNSPECIFIED.);
#364 = CARTESIAN_POINT('', (185.556349186104, 14.443650813896, 0.));
#365 = CARTESIAN_POINT('', (185.556349186104, 45.556349186104, 0.));
#366 = CARTESIAN_POINT('', (154.443650813896, 14.443650813896, 0.));
#367 = CARTESIAN_POINT('', (154.443650813896, 45.556349186104, 0.));
#368 = ADVANCED_FACE('', (#369), #383, .T.);
#369 = FACE_OUTER_BOUND('', #370, .T.);
#370 = EDGE_LOOP('', (#371, #376, #377, #382));
#371 = ORIENTED_EDGE('', *, *, #372, .F.);
#372 = EDGE_CURVE('', #337, #301, #373, .T.);
#373 = B_SPLINE_CURVE_WITH_KNOTS('', 1, (#374, #375), .UNSPECIFIED., .F., .U., (2, 2), (0., 1.), .UNSPECIFIED.);
#374 = CARTESIAN_POINT('', (160., 40., 0.));
#375 = CARTESIAN_POINT('', (160., 40., 40.));
#376 = ORIENTED_EDGE('', *, *, #336, .T.);
#377 = ORIENTED_EDGE('', *, *, #378, .T.);
#378 = EDGE_CURVE('', #339, #303, #379, .T.);
#379 = B_SPLINE_CURVE_WITH_KNOTS('', 1, (#380, #381), .UNSPECIFIED., .F., .U., (2, 2), (0., 1.), .UNSPECIFIED.);
#380 = CARTESIAN_POINT('', (160., 20., 0.));
#381 = CARTESIAN_POINT('', (160., 20., 40.));
#382 = ORIENTED_EDGE('', *, *, #300, .F.);
#383 = B_SPLINE_SURFACE_WITH_KNOTS('', 1, 1, ((#384, #385), (#386, #387)), .UNSPECIFIED., .F., .F., .U., (2, 2), (2, 2), (0., 1.), (0., 1.), .UNSPECIFIED.);
#384 = CARTESIAN_POINT('', (160., 40., 0.));
#385 = CARTESIAN_POINT('', (160., 40., 40.));
#386 = CARTESIAN_POINT('', (160., 20., 0.));
#387 = CARTESIAN_POINT('', (160., 20., 40.));
#388 = ADVANCED_FACE('', (#389), #399, .T.);
#389 = FACE_OUTER_BOUND('', #390, .T.);
#390 = EDGE_LOOP('', (#391, #392, #393, #398));
#391 = ORIENTED_EDGE('', *, *, #378, .F.);
#392 = ORIENTED_EDGE('', *, *, #359, .T.);
#393 = ORIENTED_EDGE('', *, *, #394, .T.);
#394 = EDGE_CURVE('', #353, #310, #395, .T.);
#395 = B_SPLINE_CURVE_WITH_KNOTS('', 1, (#396, #397), .UNSPECIFIED., .F., .U., (2, 2), (0., 1.), .UNSPECIFIED.);
#396 = CARTESIAN_POINT('', (180., 20., 0.));
#397 = CARTESIAN_POINT('', (180., 20., 40.));
#398 = ORIENTED_EDGE('', *, *, #309, .F.);
#399 = B_SPLINE_SURFACE_WITH_KNOTS('', 1, 1, ((#400, #401), (#402, #403)), .UNSPECIFIED., .F., .F., .U., (2, 2), (2, 2), (0., 1.), (0., 1.), .UNSPECIFIED.);
#400 = CARTESIAN_POINT('', (160., 20., 0.));
#401 = CARTESIAN_POINT('', (160., 20., 40.));
#402 = CARTESIAN_POINT('', (180., 20., 0.));
#403 = CARTESIAN_POINT('', (180., 20., 40.));
#404 = ADVANCED_FACE('', (#405), #415, .T.);
#405 = FACE_OUTER_BOUND('', #406, .T.);
#406 = EDGE_LOOP('', (#407, #412, #413, #414));
#407 = ORIENTED_EDGE('', *, *, #408, .F.);
#408 = EDGE_CURVE('', #346, #317, #409, .T.);
#409 = B_SPLINE_CURVE_WITH_KNOTS('', 1, (#410, #411), .UNSPECIFIED., .F., .U., (2, 2), (0., 1.), .UNSPECIFIED.);
#410 = CARTESIAN_POINT('', (180., 40., 0.));
#411 = CARTESIAN_POINT('', (180., 40., 40.));
#412 = ORIENTED_EDGE('', *, *, #345, .T.);
#413 = ORIENTED_EDGE('', *, *, #372, .T.);
#414 = ORIENTED_EDGE('', *, *, #323, .F.);
#415 = B_SPLINE_SURFACE_WITH_KNOTS('', 1, 1, ((#416, #417), (#418, #419)), .UNSPECIFIED., .F., .F., .U., (2, 2), (2, 2), (0., 1.), (0., 1.), .UNSPECIFIED.);
#416 = CARTESIAN_POINT('', (180., 40., 0.));
#417 = CARTESIAN_POINT('', (180., 40., 40.));
#418 = CARTESIAN_POINT('', (160., 40., 0.));
#419 = CARTESIAN_POINT('', (160., 40., 40.));
#420 = ADVANCED_FACE('', (#421), #427, .T.);
#421 = FACE_OUTER_BOUND('', #422, .T.);
#422 = EDGE_LOOP('', (#423, #424, #425, #426));
#423 = ORIENTED_EDGE('', *, *, #394, .F.);
#424 = ORIENTED_EDGE('', *, *, #352, .T.);
#425 = ORIENTED_EDGE('', *, *, #408, .T.);
#426 = ORIENTED_EDGE('', *, *, #316, .F.);
#427 = B_SPLINE_SURFACE_WITH_KNOTS('', 1, 1, ((#428, #429), (#430, #431)), .UNSPECIFIED., .F., .F., .U., (2, 2), (2, 2), (0., 1.), (0., 1.), .UNSPECIFIED.);
#428 = CARTESIAN_POINT('', (180., 20., 0.));
#429 = CARTESIAN_POINT('', (180., 20., 40.));
#430 = CARTESIAN_POINT('', (180., 40., 0.));
#431 = CARTESIAN_POINT('', (180., 40., 40.));
#432 = PRESENTATION_STYLE_ASSIGNMENT((#433));
#433 = SURFACE_STYLE_USAGE(.POSITIVE., #434);
#434 = SURFACE_SIDE_STYLE('', (#435));
#435 = SURFACE_STYLE_FILL_AREA(#436);
#436 = FILL_AREA_STYLE('', (#437));
#437 = FILL_AREA_STYLE_COLOUR('', #438);
#438 = COLOUR_RGB('', 0.50196078431373, 0.50196078431373, 0.50196078431373);
#439 = STYLED_ITEM('', (#432), #294);
#440 = MANIFOLD_SOLID_BREP('Subtraction_0', #441);
#441 = CLOSED_SHELL('', (#442, #508, #574, #594, #610, #626, #638, #658, #674, #690));
#442 = ADVANCED_FACE('', (#443, #473), #503, .T.);
#443 = FACE_OUTER_BOUND('', #444, .T.);
#444 = EDGE_LOOP('', (#445, #454, #461, #468));
#445 = ORIENTED_EDGE('', *, *, #446, .T.);
#446 = EDGE_CURVE('', #447, #449, #451, .T.);
#447 = VERTEX_POINT('', #448);
#448 = CARTESIAN_POINT('', (0., 60., 20.));
#449 = VERTEX_POINT('', #450);
#450 = CARTESIAN_POINT('', (0., 0., 20.));
#451 = B_SPLINE_CURVE_WITH_KNOTS('', 1, (#452, #453), .UNSPECIFIED., .F., .U., (2, 2), (0., 1.), .UNSPECIFIED.);
#452 = CARTESIAN_POINT('', (0., 60., 20.));
#453 = CARTESIAN_POINT('', (0., 0., 20.));
#454 = ORIENTED_EDGE('', *, *, #455, .T.);
#455 = EDGE_CURVE('', #449, #456, #458, .T.);
#456 = VERTEX_POINT('', #457);
#457 = CARTESIAN_POINT('', (200., 0., 20.));
#458 = B_SPLINE_CURVE_WITH_KNOTS('', 1, (#459, #460), .UNSPECIFIED., .F., .U., (2, 2), (0., 1.), .UNSPECIFIED.);
#459 = CARTESIAN_POINT('', (0., 0., 20.));
#460 = CARTESIAN_POINT('', (200., 0., 20.));
#461 = ORIENTED_EDGE('', *, *, #462, .T.);
#462 = EDGE_CURVE('', #456, #463, #465, .T.);
#463 = VERTEX_POINT('', #464);
#464 = CARTESIAN_POINT('', (200., 60., 20.));
#465 = B_SPLINE_CURVE_WITH_KNOTS('', 1, (#466, #467), .UNSPECIFIED., .F., .U., (2, 2), (0., 1.), .UNSPECIFIED.);
#466 = CARTESIAN_POINT('', (200., 0., 20.));
#467 = CARTESIAN_POINT('', (200., 60., 20.));
#468 = ORIENTED_EDGE('', *, *, #469, .T.);
#469 = EDGE_CURVE('', #463, #447, #470, .T.);
#470 = B_SPLINE_CURVE_WITH_KNOTS('', 1, (#471, #472), .UNSPECIFIED., .F., .U., (2, 2), (0., 1.), .UNSPECIFIED.);
#471 = CARTESIAN_POINT('', (200., 60., 20.));
#472 = CARTESIAN_POINT('', (0., 60., 20.));
#473 = FACE_BOUND('', #474, .T.);
#474 = EDGE_LOOP('', (#475, #484, #491, #498));
#475 = ORIENTED_EDGE('', *, *, #476, .F.);
#476 = EDGE_CURVE('', #477, #479, #481, .T.);
#477 = VERTEX_POINT('', #478);
#478 = CARTESIAN_POINT('', (110., 40., 20.));
#479 = VERTEX_POINT('', #480);
#480 = CARTESIAN_POINT('', (110., 20., 20.));
#481 = B_SPLINE_CURVE_WITH_KNOTS('', 1, (#482, #483), .UNSPECIFIED., .F., .U., (2, 2), (0., 1.), .UNSPECIFIED.);
#482 = CARTESIAN_POINT('', (110., 40., 20.));
#483 = CARTESIAN_POINT('', (110., 20., 20.));
#484 = ORIENTED_EDGE('', *, *, #485, .F.);
#485 = EDGE_CURVE('', #486, #477, #488, .T.);
#486 = VERTEX_POINT('', #487);
#487 = CARTESIAN_POINT('', (130., 40., 20.));
#488 = B_SPLINE_CURVE_WITH_KNOTS('', 1, (#489, #490), .UNSPECIFIED., .F., .U., (2, 2), (0., 1.), .UNSPECIFIED.);
#489 = CARTESIAN_POINT('', (130., 40., 20.));
#490 = CARTESIAN_POINT('', (110., 40., 20.));
#491 = ORIENTED_EDGE('', *, *, #492, .F.);
#492 = EDGE_CURVE('', #493, #486, #495, .T.);
#493 = VERTEX_POINT('', #494);
#494 = CARTESIAN_POINT('', (130., 20., 20.));
#495 = B_SPLINE_CURVE_WITH_KNOTS('', 1, (#496, #497), .UNSPECIFIED., .F., .U., (2, 2), (0., 1.), .UNSPECIFIED.);
#496 = CARTESIAN_POINT('', (130., 20., 20.));
#497 = CARTESIAN_POINT('', (130., 40., 20.));
#498 = ORIENTED_EDGE('', *, *, #499, .F.);
#499 = EDGE_CURVE('', #479, #493, #500, .T.);
#500 = B_SPLINE_CURVE_WITH_KNOTS('', 1, (#501, #502), .UNSPECIFIED., .F., .U., (2, 2), (0., 1.), .UNSPECIFIED.);
#501 = CARTESIAN_POINT('', (110., 20., 20.));
#502 = CARTESIAN_POINT('', (130., 20., 20.));
#503 = B_SPLINE_SURFACE_WITH_KNOTS('', 1, 1, ((#504, #505), (#506, #507)), .UNSPECIFIED., .F., .F., .U., (2, 2), (2, 2), (0., 1.), (0., 1.), .UNSPECIFIED.);
#504 = CARTESIAN_POINT('', (214.843371598016, -84.843371598016, 20.));
#505 = CARTESIAN_POINT('', (-14.8433715980161, -84.843371598016, 20.));
#506 = CARTESIAN_POINT('', (214.843371598016, 144.843371598016, 20.));
#507 = CARTESIAN_POINT('', (-14.8433715980161, 144.843371598016, 20.));
#508 = ADVANCED_FACE('', (#509, #539), #569, .T.);
#509 = FACE_OUTER_BOUND('', #510, .T.);
#510 = EDGE_LOOP('', (#511, #520, #527, #534));
#511 = ORIENTED_EDGE('', *, *, #512, .F.);
#512 = EDGE_CURVE('', #513, #515, #517, .T.);
#513 = VERTEX_POINT('', #514);
#514 = CARTESIAN_POINT('', (0., 60., 0.));
#515 = VERTEX_POINT('', #516);
#516 = CARTESIAN_POINT('', (0., 0., 0.));
#517 = B_SPLINE_CURVE_WITH_KNOTS('', 1, (#518, #519), .UNSPECIFIED., .F., .U., (2, 2), (0., 1.), .UNSPECIFIED.);
#518 = CARTESIAN_POINT('', (0., 60., 0.));
#519 = CARTESIAN_POINT('', (0., 0., 0.));
#520 = ORIENTED_EDGE('', *, *, #521, .F.);
#521 = EDGE_CURVE('', #522, #513, #524, .T.);
#522 = VERTEX_POINT('', #523);
#523 = CARTESIAN_POINT('', (200., 60., 0.));
#524 = B_SPLINE_CURVE_WITH_KNOTS('', 1, (#525, #526), .UNSPECIFIED., .F., .U., (2, 2), (0., 1.), .UNSPECIFIED.);
#525 = CARTESIAN_POINT('', (200., 60., 0.));
#526 = CARTESIAN_POINT('', (0., 60., 0.));
#527 = ORIENTED_EDGE('', *, *, #528, .F.);
#528 = EDGE_CURVE('', #529, #522, #531, .T.);
#529 = VERTEX_POINT('', #530);
#530 = CARTESIAN_POINT('', (200., 0., 0.));
#531 = B_SPLINE_CURVE_WITH_KNOTS('', 1, (#532, #533), .UNSPECIFIED., .F., .U., (2, 2), (0., 1.), .UNSPECIFIED.);
#532 = CARTESIAN_POINT('', (200., 0., 0.));
#533 = CARTESIAN_POINT('', (200., 60., 0.));
#534 = ORIENTED_EDGE('', *, *, #535, .F.);
#535 = EDGE_CURVE('', #515, #529, #536, .T.);
#536 = B_SPLINE_CURVE_WITH_KNOTS('', 1, (#537, #538), .UNSPECIFIED., .F., .U., (2, 2), (0., 1.), .UNSPECIFIED.);
#537 = CARTESIAN_POINT('', (0., 0., 0.));
#538 = CARTESIAN_POINT('', (200., 0., 0.));
#539 = FACE_BOUND('', #540, .T.);
#540 = EDGE_LOOP('', (#541, #550, #557, #564));
#541 = ORIENTED_EDGE('', *, *, #542, .F.);
#542 = EDGE_CURVE('', #543, #545, #547, .T.);
#543 = VERTEX_POINT('', #544);
#544 = CARTESIAN_POINT('', (110., 20., 0.));
#545 = VERTEX_POINT('', #546);
#546 = CARTESIAN_POINT('', (110., 40., 0.));
#547 = B_SPLINE_CURVE_WITH_KNOTS('', 1, (#548, #549), .UNSPECIFIED., .F., .U., (2, 2), (0., 1.), .UNSPECIFIED.);
#548 = CARTESIAN_POINT('', (110., 20., 0.));
#549 = CARTESIAN_POINT('', (110., 40., 0.));
#550 = ORIENTED_EDGE('', *, *, #551, .F.);
#551 = EDGE_CURVE('', #552, #543, #554, .T.);
#552 = VERTEX_POINT('', #553);
#553 = CARTESIAN_POINT('', (130., 20., 0.));
#554 = B_SPLINE_CURVE_WITH_KNOTS('', 1, (#555, #556), .UNSPECIFIED., .F., .U., (2, 2), (0., 1.), .UNSPECIFIED.);
#555 = CARTESIAN_POINT('', (130., 20., 0.));
#556 = CARTESIAN_POINT('', (110., 20., 0.));
#557 = ORIENTED_EDGE('', *, *, #558, .F.);
#558 = EDGE_CURVE('', #559, #552, #561, .T.);
#559 = VERTEX_POINT('', #560);
#560 = CARTESIAN_POINT('', (130., 40., 0.));
#561 = B_SPLINE_CURVE_WITH_KNOTS('', 1, (#562, #563), .UNSPECIFIED., .F., .U., (2, 2), (0., 1.), .UNSPECIFIED.);
#562 = CARTESIAN_POINT('', (130., 40., 0.));
#563 = CARTESIAN_POINT('', (130., 20., 0.));
#564 = ORIENTED_EDGE('', *, *, #565, .F.);
#565 = EDGE_CURVE('', #545, #559, #566, .T.);
#566 = B_SPLINE_CURVE_WITH_KNOTS('', 1, (#567, #568), .UNSPECIFIED., .F., .U., (2, 2), (0., 1.), .UNSPECIFIED.);
#567 = CARTESIAN_POINT('', (110., 40., 0.));
#568 = CARTESIAN_POINT('', (130., 40., 0.));
#569 = B_SPLINE_SURFACE_WITH_KNOTS('', 1, 1, ((#570, #571), (#572, #573)), .UNSPECIFIED., .F., .F., .U., (2, 2), (2, 2), (0., 1.), (0., 1.), .UNSPECIFIED.);
#570 = CARTESIAN_POINT('', (214.843371598016, -84.843371598016, 0.));
#571 = CARTESIAN_POINT('', (214.843371598016, 144.843371598016, 0.));
#572 = CARTESIAN_POINT('', (-14.8433715980161, -84.843371598016, 0.));
#573 = CARTESIAN_POINT('', (-14.8433715980161, 144.843371598016, 0.));
#574 = ADVANCED_FACE('', (#575), #589, .T.);
#575 = FACE_OUTER_BOUND('', #576, .T.);
#576 = EDGE_LOOP('', (#577, #582, #583, #588));
#577 = ORIENTED_EDGE('', *, *, #578, .F.);
#578 = EDGE_CURVE('', #513, #447, #579, .T.);
#579 = B_SPLINE_CURVE_WITH_KNOTS('', 1, (#580, #581), .UNSPECIFIED., .F., .U., (2, 2), (0., 1.), .UNSPECIFIED.);
#580 = CARTESIAN_POINT('', (0., 60., 0.));
#581 = CARTESIAN_POINT('', (0., 60., 20.));
#582 = ORIENTED_EDGE('', *, *, #512, .T.);
#583 = ORIENTED_EDGE('', *, *, #584, .T.);
#584 = EDGE_CURVE('', #515, #449, #585, .T.);
#585 = B_SPLINE_CURVE_WITH_KNOTS('', 1, (#586, #587), .UNSPECIFIED., .F., .U., (2, 2), (0., 1.), .UNSPECIFIED.);
#586 = CARTESIAN_POINT('', (0., 0., 0.));
#587 = CARTESIAN_POINT('', (0., 0., 20.));
#588 = ORIENTED_EDGE('', *, *, #446, .F.);
#589 = B_SPLINE_SURFACE_WITH_KNOTS('', 1, 1, ((#590, #591), (#592, #593)), .UNSPECIFIED., .F., .F., .U., (2, 2), (2, 2), (0., 1.), (0., 1.), .UNSPECIFIED.);
#590 = CARTESIAN_POINT('', (0., 60., 0.));
#591 = CARTESIAN_POINT('', (0., 60., 20.));
#592 = CARTESIAN_POINT('', (0., 0., 0.));
#593 = CARTESIAN_POINT('', (0., 0., 20.));
#594 = ADVANCED_FACE('', (#595), #605, .T.);
#595 = FACE_OUTER_BOUND('', #596, .T.);
#596 = EDGE_LOOP('', (#597, #598, #599, #604));
#597 = ORIENTED_EDGE('', *, *, #584, .F.);
#598 = ORIENTED_EDGE('', *, *, #535, .T.);
#599 = ORIENTED_EDGE('', *, *, #600, .T.);
#600 = EDGE_CURVE('', #529, #456, #601, .T.);
#601 = B_SPLINE_CURVE_WITH_KNOTS('', 1, (#602, #603), .UNSPECIFIED., .F., .U., (2, 2), (0., 1.), .UNSPECIFIED.);
#602 = CARTESIAN_POINT('', (200., 0., 0.));
#603 = CARTESIAN_POINT('', (200., 0., 20.));
#604 = ORIENTED_EDGE('', *, *, #455, .F.);
#605 = B_SPLINE_SURFACE_WITH_KNOTS('', 1, 1, ((#606, #607), (#608, #609)), .UNSPECIFIED., .F., .F., .U., (2, 2), (2, 2), (0., 1.), (0., 1.), .UNSPECIFIED.);
#606 = CARTESIAN_POINT('', (0., 0., 0.));
#607 = CARTESIAN_POINT('', (0., 0., 20.));
#608 = CARTESIAN_POINT('', (200., 0., 0.));
#609 = CARTESIAN_POINT('', (200., 0., 20.));
#610 = ADVANCED_FACE('', (#611), #621, .T.);
#611 = FACE_OUTER_BOUND('', #612, .T.);
#612 = EDGE_LOOP('', (#613, #618, #619, #620));
#613 = ORIENTED_EDGE('', *, *, #614, .F.);
#614 = EDGE_CURVE('', #522, #463, #615, .T.);
#615 = B_SPLINE_CURVE_WITH_KNOTS('', 1, (#616, #617), .UNSPECIFIED., .F., .U., (2, 2), (0., 1.), .UNSPECIFIED.);
#616 = CARTESIAN_POINT('', (200., 60., 0.));
#617 = CARTESIAN_POINT('', (200., 60., 20.));
#618 = ORIENTED_EDGE('', *, *, #521, .T.);
#619 = ORIENTED_EDGE('', *, *, #578, .T.);
#620 = ORIENTED_EDGE('', *, *, #469, .F.);
#621 = B_SPLINE_SURFACE_WITH_KNOTS('', 1, 1, ((#622, #623), (#624, #625)), .UNSPECIFIED., .F., .F., .U., (2, 2), (2, 2), (0., 1.), (0., 1.), .UNSPECIFIED.);
#622 = CARTESIAN_POINT('', (200., 60., 0.));
#623 = CARTESIAN_POINT('', (200., 60., 20.));
#624 = CARTESIAN_POINT('', (0., 60., 0.));
#625 = CARTESIAN_POINT('', (0., 60., 20.));
#626 = ADVANCED_FACE('', (#627), #633, .T.);
#627 = FACE_OUTER_BOUND('', #628, .T.);
#628 = EDGE_LOOP('', (#629, #630, #631, #632));
#629 = ORIENTED_EDGE('', *, *, #600, .F.);
#630 = ORIENTED_EDGE('', *, *, #528, .T.);
#631 = ORIENTED_EDGE('', *, *, #614, .T.);
#632 = ORIENTED_EDGE('', *, *, #462, .F.);
#633 = B_SPLINE_SURFACE_WITH_KNOTS('', 1, 1, ((#634, #635), (#636, #637)), .UNSPECIFIED., .F., .F., .U., (2, 2), (2, 2), (0., 1.), (0., 1.), .UNSPECIFIED.);
#634 = CARTESIAN_POINT('', (200., 0., 0.));
#635 = CARTESIAN_POINT('', (200., 0., 20.));
#636 = CARTESIAN_POINT('', (200., 60., 0.));
#637 = CARTESIAN_POINT('', (200., 60., 20.));
#638 = ADVANCED_FACE('', (#639), #653, .F.);
#639 = FACE_OUTER_BOUND('', #640, .F.);
#640 = EDGE_LOOP('', (#641, #642, #647, #648));
#641 = ORIENTED_EDGE('', *, *, #499, .F.);
#642 = ORIENTED_EDGE('', *, *, #643, .F.);
#643 = EDGE_CURVE('', #543, #479, #644, .T.);
#644 = B_SPLINE_CURVE_WITH_KNOTS('', 1, (#645, #646), .UNSPECIFIED., .F., .U., (2, 2), (0., 0.5), .UNSPECIFIED.);
#645 = CARTESIAN_POINT('', (110., 20., 0.));
#646 = CARTESIAN_POINT('', (110., 20., 20.));
#647 = ORIENTED_EDGE('', *, *, #551, .F.);
#648 = ORIENTED_EDGE('', *, *, #649, .T.);
#649 = EDGE_CURVE('', #552, #493, #650, .T.);
#650 = B_SPLINE_CURVE_WITH_KNOTS('', 1, (#651, #652), .UNSPECIFIED., .F., .U., (2, 2), (0., 0.5), .UNSPECIFIED.);
#651 = CARTESIAN_POINT('', (130., 20., 0.));
#652 = CARTESIAN_POINT('', (130., 20., 20.));
#653 = B_SPLINE_SURFACE_WITH_KNOTS('', 1, 1, ((#654, #655), (#656, #657)), .UNSPECIFIED., .F., .F., .U., (2, 2), (2, 2), (0., 1.), (0., 1.), .UNSPECIFIED.);
#654 = CARTESIAN_POINT('', (110., 20., 0.));
#655 = CARTESIAN_POINT('', (110., 20., 40.));
#656 = CARTESIAN_POINT('', (130., 20., 0.));
#657 = CARTESIAN_POINT('', (130., 20., 40.));
#658 = ADVANCED_FACE('', (#659), #669, .F.);
#659 = FACE_OUTER_BOUND('', #660, .F.);
#660 = EDGE_LOOP('', (#661, #662, #663, #664));
#661 = ORIENTED_EDGE('', *, *, #492, .F.);
#662 = ORIENTED_EDGE('', *, *, #649, .F.);
#663 = ORIENTED_EDGE('', *, *, #558, .F.);
#664 = ORIENTED_EDGE('', *, *, #665, .T.);
#665 = EDGE_CURVE('', #559, #486, #666, .T.);
#666 = B_SPLINE_CURVE_WITH_KNOTS('', 1, (#667, #668), .UNSPECIFIED., .F., .U., (2, 2), (0., 0.5), .UNSPECIFIED.);
#667 = CARTESIAN_POINT('', (130., 40., 0.));
#668 = CARTESIAN_POINT('', (130., 40., 20.));
#669 = B_SPLINE_SURFACE_WITH_KNOTS('', 1, 1, ((#670, #671), (#672, #673)), .UNSPECIFIED., .F., .F., .U., (2, 2), (2, 2), (0., 1.), (0., 1.), .UNSPECIFIED.);
#670 = CARTESIAN_POINT('', (130., 20., 0.));
#671 = CARTESIAN_POINT('', (130., 20., 40.));
#672 = CARTESIAN_POINT('', (130., 40., 0.));
#673 = CARTESIAN_POINT('', (130., 40., 40.));
#674 = ADVANCED_FACE('', (#675), #685, .F.);
#675 = FACE_OUTER_BOUND('', #676, .F.);
#676 = EDGE_LOOP('', (#677, #678, #679, #680));
#677 = ORIENTED_EDGE('', *, *, #485, .F.);
#678 = ORIENTED_EDGE('', *, *, #665, .F.);
#679 = ORIENTED_EDGE('', *, *, #565, .F.);
#680 = ORIENTED_EDGE('', *, *, #681, .T.);
#681 = EDGE_CURVE('', #545, #477, #682, .T.);
#682 = B_SPLINE_CURVE_WITH_KNOTS('', 1, (#683, #684), .UNSPECIFIED., .F., .U., (2, 2), (0., 0.5), .UNSPECIFIED.);
#683 = CARTESIAN_POINT('', (110., 40., 0.));
#684 = CARTESIAN_POINT('', (110., 40., 20.));
#685 = B_SPLINE_SURFACE_WITH_KNOTS('', 1, 1, ((#686, #687), (#688, #689)), .UNSPECIFIED., .F., .F., .U., (2, 2), (2, 2), (0., 1.), (0., 1.), .UNSPECIFIED.);
#686 = CARTESIAN_POINT('', (130., 40., 0.));
#687 = CARTESIAN_POINT('', (130., 40., 40.));
#688 = CARTESIAN_POINT('', (110., 40., 0.));
#689 = CARTESIAN_POINT('', (110., 40., 40.));
#690 = ADVANCED_FACE('', (#691), #697, .F.);
#691 = FACE_OUTER_BOUND('', #692, .F.);
#692 = EDGE_LOOP('', (#693, #694, #695, #696));
#693 = ORIENTED_EDGE('', *, *, #476, .F.);
#694 = ORIENTED_EDGE('', *, *, #681, .F.);
#695 = ORIENTED_EDGE('', *, *, #542, .F.);
#696 = ORIENTED_EDGE('', *, *, #643, .T.);
#697 = B_SPLINE_SURFACE_WITH_KNOTS('', 1, 1, ((#698, #699), (#700, #701)), .UNSPECIFIED., .F., .F., .U., (2, 2), (2, 2), (0., 1.), (0., 1.), .UNSPECIFIED.);
#698 = CARTESIAN_POINT('', (110., 40., 0.));
#699 = CARTESIAN_POINT('', (110., 40., 40.));
#700 = CARTESIAN_POINT('', (110., 20., 0.));
#701 = CARTESIAN_POINT('', (110., 20., 40.));
#702 = PRESENTATION_STYLE_ASSIGNMENT((#703));
#703 = SURFACE_STYLE_USAGE(.POSITIVE., #704);
#704 = SURFACE_SIDE_STYLE('', (#705));
#705 = SURFACE_STYLE_FILL_AREA(#706);
#706 = FILL_AREA_STYLE('', (#707));
#707 = FILL_AREA_STYLE_COLOUR('', #708);
#708 = COLOUR_RGB('', 0.50196078431373, 0.50196078431373, 0.50196078431373);
#709 = STYLED_ITEM('', (#702), #440);
#710 = CARTESIAN_POINT('Origin', (0., 0., 0.));
#711 = GEOMETRIC_SET('', (#710));
#712 = (
   GEOMETRIC_REPRESENTATION_CONTEXT (3)
   GLOBAL_UNCERTAINTY_ASSIGNED_CONTEXT ((#714))
   GLOBAL_UNIT_ASSIGNED_CONTEXT ((#713, #715, #716))
   REPRESENTATION_CONTEXT ('', '3D')
);
#713 = (
   LENGTH_UNIT ()
   NAMED_UNIT (*)
   SI_UNIT (.MILLI., .METRE.)
);
#714 = UNCERTAINTY_MEASURE_WITH_UNIT(LENGTH_MEASURE(1.E-6), #713, 'DISTANCE_ACCURACY_VALUE', '');
#715 = (
   NAMED_UNIT (*)
   SI_UNIT ($, .STERADIAN.)
   SOLID_ANGLE_UNIT ()
);
#716 = (
   NAMED_UNIT (*)
   PLANE_ANGLE_UNIT ()
   SI_UNIT ($, .RADIAN.)
);
#717 = SHAPE_REPRESENTATION('', (#732), #712);
#718 = PRODUCT_DEFINITION_SHAPE('', '', #719);
#719 = PRODUCT_DEFINITION('', '', #722, #726);
#720 = APPLICATION_CONTEXT('configuration controlled 3D designs of mechanical parts and assemblies');
#721 = APPLICATION_PROTOCOL_DEFINITION('International Standard', 'automotive_design', 2002, #720);
#722 = PRODUCT_DEFINITION_FORMATION_WITH_SPECIFIED_SOURCE('', '', #723, .NOT_KNOWN.);
#723 = PRODUCT('Indices', 'Indices', '', (#724));
#724 = PRODUCT_CONTEXT('', #720, 'mechanical');
#725 = PRODUCT_RELATED_PRODUCT_CATEGORY('detail', '', (#723));
#726 = PRODUCT_DEFINITION_CONTEXT('part definition', #720, 'design');
#727 = SHAPE_DEFINITION_REPRESENTATION(#718, #717);
#728 = SHAPE_REPRESENTATION_RELATIONSHIP('', '', #717, #729);
#729 = SHAPE_REPRESENTATION('', (#711), #712);
#730 = SHAPE_REPRESENTATION_RELATIONSHIP('', '', #717, #731);
#731 = ADVANCED_BREP_SHAPE_REPRESENTATION('', (#1, #148, #294, #440), #712);
#732 = AXIS2_PLACEMENT_3D('', #733, #734, #735);
#733 = CARTESIAN_POINT('', (0., 0., 0.));
#734 = DIRECTION('', (0., 0., 1.));
#735 = DIRECTION('', (1., 0., 0.));
ENDSEC;
END-ISO-10303-21;
