ISO-10303-21;
HEADER;
FILE_DESCRIPTION(('STEP'), '1');
FILE_NAME('Indices', '2026-03-20T13:45:54', (''), (''), 'Express 3.1.2.0', 'Express Tool', 'Unknown');
FILE_SCHEMA(('AUTOMOTIVE_DESIGN'));
ENDSEC;

DATA;
#1 = MANIFOLD_SOLID_BREP('Extrusion_0', #2);
#2 = CLOSED_SHELL('', (#3, #39, #75, #95, #111, #127));
#3 = ADVANCED_FACE('', (#4), #34, .T.);
#4 = FACE_OUTER_BOUND('', #5, .T.);
#5 = EDGE_LOOP('', (#6, #15, #22, #29));
#6 = ORIENTED_EDGE('', *, *, #7, .T.);
#7 = EDGE_CURVE('', #8, #10, #12, .T.);
#8 = VERTEX_POINT('', #9);
#9 = CARTESIAN_POINT('', (0., 60., 20.));
#10 = VERTEX_POINT('', #11);
#11 = CARTESIAN_POINT('', (0., 0., 20.));
#12 = B_SPLINE_CURVE_WITH_KNOTS('', 1, (#13, #14), .UNSPECIFIED., .F., .U., (2, 2), (0., 1.), .UNSPECIFIED.);
#13 = CARTESIAN_POINT('', (0., 60., 20.));
#14 = CARTESIAN_POINT('', (0., 0., 20.));
#15 = ORIENTED_EDGE('', *, *, #16, .T.);
#16 = EDGE_CURVE('', #10, #17, #19, .T.);
#17 = VERTEX_POINT('', #18);
#18 = CARTESIAN_POINT('', (200., 0., 20.));
#19 = B_SPLINE_CURVE_WITH_KNOTS('', 1, (#20, #21), .UNSPECIFIED., .F., .U., (2, 2), (0., 1.), .UNSPECIFIED.);
#20 = CARTESIAN_POINT('', (0., 0., 20.));
#21 = CARTESIAN_POINT('', (200., 0., 20.));
#22 = ORIENTED_EDGE('', *, *, #23, .T.);
#23 = EDGE_CURVE('', #17, #24, #26, .T.);
#24 = VERTEX_POINT('', #25);
#25 = CARTESIAN_POINT('', (200., 60., 20.));
#26 = B_SPLINE_CURVE_WITH_KNOTS('', 1, (#27, #28), .UNSPECIFIED., .F., .U., (2, 2), (0., 1.), .UNSPECIFIED.);
#27 = CARTESIAN_POINT('', (200., 0., 20.));
#28 = CARTESIAN_POINT('', (200., 60., 20.));
#29 = ORIENTED_EDGE('', *, *, #30, .T.);
#30 = EDGE_CURVE('', #24, #8, #31, .T.);
#31 = B_SPLINE_CURVE_WITH_KNOTS('', 1, (#32, #33), .UNSPECIFIED., .F., .U., (2, 2), (0., 1.), .UNSPECIFIED.);
#32 = CARTESIAN_POINT('', (200., 60., 20.));
#33 = CARTESIAN_POINT('', (0., 60., 20.));
#34 = B_SPLINE_SURFACE_WITH_KNOTS('', 1, 1, ((#35, #36), (#37, #38)), .UNSPECIFIED., .F., .F., .U., (2, 2), (2, 2), (0., 1.), (0., 1.), .UNSPECIFIED.);
#35 = CARTESIAN_POINT('', (214.843371598016, -84.843371598016, 20.));
#36 = CARTESIAN_POINT('', (-14.8433715980161, -84.843371598016, 20.));
#37 = CARTESIAN_POINT('', (214.843371598016, 144.843371598016, 20.));
#38 = CARTESIAN_POINT('', (-14.8433715980161, 144.843371598016, 20.));
#39 = ADVANCED_FACE('', (#40), #70, .T.);
#40 = FACE_OUTER_BOUND('', #41, .T.);
#41 = EDGE_LOOP('', (#42, #51, #58, #65));
#42 = ORIENTED_EDGE('', *, *, #43, .F.);
#43 = EDGE_CURVE('', #44, #46, #48, .T.);
#44 = VERTEX_POINT('', #45);
#45 = CARTESIAN_POINT('', (0., 60., 0.));
#46 = VERTEX_POINT('', #47);
#47 = CARTESIAN_POINT('', (0., 0., 0.));
#48 = B_SPLINE_CURVE_WITH_KNOTS('', 1, (#49, #50), .UNSPECIFIED., .F., .U., (2, 2), (0., 1.), .UNSPECIFIED.);
#49 = CARTESIAN_POINT('', (0., 60., 0.));
#50 = CARTESIAN_POINT('', (0., 0., 0.));
#51 = ORIENTED_EDGE('', *, *, #52, .F.);
#52 = EDGE_CURVE('', #53, #44, #55, .T.);
#53 = VERTEX_POINT('', #54);
#54 = CARTESIAN_POINT('', (200., 60., 0.));
#55 = B_SPLINE_CURVE_WITH_KNOTS('', 1, (#56, #57), .UNSPECIFIED., .F., .U., (2, 2), (0., 1.), .UNSPECIFIED.);
#56 = CARTESIAN_POINT('', (200., 60., 0.));
#57 = CARTESIAN_POINT('', (0., 60., 0.));
#58 = ORIENTED_EDGE('', *, *, #59, .F.);
#59 = EDGE_CURVE('', #60, #53, #62, .T.);
#60 = VERTEX_POINT('', #61);
#61 = CARTESIAN_POINT('', (200., 0., 0.));
#62 = B_SPLINE_CURVE_WITH_KNOTS('', 1, (#63, #64), .UNSPECIFIED., .F., .U., (2, 2), (0., 1.), .UNSPECIFIED.);
#63 = CARTESIAN_POINT('', (200., 0., 0.));
#64 = CARTESIAN_POINT('', (200., 60., 0.));
#65 = ORIENTED_EDGE('', *, *, #66, .F.);
#66 = EDGE_CURVE('', #46, #60, #67, .T.);
#67 = B_SPLINE_CURVE_WITH_KNOTS('', 1, (#68, #69), .UNSPECIFIED., .F., .U., (2, 2), (0., 1.), .UNSPECIFIED.);
#68 = CARTESIAN_POINT('', (0., 0., 0.));
#69 = CARTESIAN_POINT('', (200., 0., 0.));
#70 = B_SPLINE_SURFACE_WITH_KNOTS('', 1, 1, ((#71, #72), (#73, #74)), .UNSPECIFIED., .F., .F., .U., (2, 2), (2, 2), (0., 1.), (0., 1.), .UNSPECIFIED.);
#71 = CARTESIAN_POINT('', (214.843371598016, -84.843371598016, 0.));
#72 = CARTESIAN_POINT('', (214.843371598016, 144.843371598016, 0.));
#73 = CARTESIAN_POINT('', (-14.8433715980161, -84.843371598016, 0.));
#74 = CARTESIAN_POINT('', (-14.8433715980161, 144.843371598016, 0.));
#75 = ADVANCED_FACE('', (#76), #90, .T.);
#76 = FACE_OUTER_BOUND('', #77, .T.);
#77 = EDGE_LOOP('', (#78, #83, #84, #89));
#78 = ORIENTED_EDGE('', *, *, #79, .F.);
#79 = EDGE_CURVE('', #44, #8, #80, .T.);
#80 = B_SPLINE_CURVE_WITH_KNOTS('', 1, (#81, #82), .UNSPECIFIED., .F., .U., (2, 2), (0., 1.), .UNSPECIFIED.);
#81 = CARTESIAN_POINT('', (0., 60., 0.));
#82 = CARTESIAN_POINT('', (0., 60., 20.));
#83 = ORIENTED_EDGE('', *, *, #43, .T.);
#84 = ORIENTED_EDGE('', *, *, #85, .T.);
#85 = EDGE_CURVE('', #46, #10, #86, .T.);
#86 = B_SPLINE_CURVE_WITH_KNOTS('', 1, (#87, #88), .UNSPECIFIED., .F., .U., (2, 2), (0., 1.), .UNSPECIFIED.);
#87 = CARTESIAN_POINT('', (0., 0., 0.));
#88 = CARTESIAN_POINT('', (0., 0., 20.));
#89 = ORIENTED_EDGE('', *, *, #7, .F.);
#90 = B_SPLINE_SURFACE_WITH_KNOTS('', 1, 1, ((#91, #92), (#93, #94)), .UNSPECIFIED., .F., .F., .U., (2, 2), (2, 2), (0., 1.), (0., 1.), .UNSPECIFIED.);
#91 = CARTESIAN_POINT('', (0., 60., 0.));
#92 = CARTESIAN_POINT('', (0., 60., 20.));
#93 = CARTESIAN_POINT('', (0., 0., 0.));
#94 = CARTESIAN_POINT('', (0., 0., 20.));
#95 = ADVANCED_FACE('', (#96), #106, .T.);
#96 = FACE_OUTER_BOUND('', #97, .T.);
#97 = EDGE_LOOP('', (#98, #99, #100, #105));
#98 = ORIENTED_EDGE('', *, *, #85, .F.);
#99 = ORIENTED_EDGE('', *, *, #66, .T.);
#100 = ORIENTED_EDGE('', *, *, #101, .T.);
#101 = EDGE_CURVE('', #60, #17, #102, .T.);
#102 = B_SPLINE_CURVE_WITH_KNOTS('', 1, (#103, #104), .UNSPECIFIED., .F., .U., (2, 2), (0., 1.), .UNSPECIFIED.);
#103 = CARTESIAN_POINT('', (200., 0., 0.));
#104 = CARTESIAN_POINT('', (200., 0., 20.));
#105 = ORIENTED_EDGE('', *, *, #16, .F.);
#106 = B_SPLINE_SURFACE_WITH_KNOTS('', 1, 1, ((#107, #108), (#109, #110)), .UNSPECIFIED., .F., .F., .U., (2, 2), (2, 2), (0., 1.), (0., 1.), .UNSPECIFIED.);
#107 = CARTESIAN_POINT('', (0., 0., 0.));
#108 = CARTESIAN_POINT('', (0., 0., 20.));
#109 = CARTESIAN_POINT('', (200., 0., 0.));
#110 = CARTESIAN_POINT('', (200., 0., 20.));
#111 = ADVANCED_FACE('', (#112), #122, .T.);
#112 = FACE_OUTER_BOUND('', #113, .T.);
#113 = EDGE_LOOP('', (#114, #119, #120, #121));
#114 = ORIENTED_EDGE('', *, *, #115, .F.);
#115 = EDGE_CURVE('', #53, #24, #116, .T.);
#116 = B_SPLINE_CURVE_WITH_KNOTS('', 1, (#117, #118), .UNSPECIFIED., .F., .U., (2, 2), (0., 1.), .UNSPECIFIED.);
#117 = CARTESIAN_POINT('', (200., 60., 0.));
#118 = CARTESIAN_POINT('', (200., 60., 20.));
#119 = ORIENTED_EDGE('', *, *, #52, .T.);
#120 = ORIENTED_EDGE('', *, *, #79, .T.);
#121 = ORIENTED_EDGE('', *, *, #30, .F.);
#122 = B_SPLINE_SURFACE_WITH_KNOTS('', 1, 1, ((#123, #124), (#125, #126)), .UNSPECIFIED., .F., .F., .U., (2, 2), (2, 2), (0., 1.), (0., 1.), .UNSPECIFIED.);
#123 = CARTESIAN_POINT('', (200., 60., 0.));
#124 = CARTESIAN_POINT('', (200., 60., 20.));
#125 = CARTESIAN_POINT('', (0., 60., 0.));
#126 = CARTESIAN_POINT('', (0., 60., 20.));
#127 = ADVANCED_FACE('', (#128), #134, .T.);
#128 = FACE_OUTER_BOUND('', #129, .T.);
#129 = EDGE_LOOP('', (#130, #131, #132, #133));
#130 = ORIENTED_EDGE('', *, *, #101, .F.);
#131 = ORIENTED_EDGE('', *, *, #59, .T.);
#132 = ORIENTED_EDGE('', *, *, #115, .T.);
#133 = ORIENTED_EDGE('', *, *, #23, .F.);
#134 = B_SPLINE_SURFACE_WITH_KNOTS('', 1, 1, ((#135, #136), (#137, #138)), .UNSPECIFIED., .F., .F., .U., (2, 2), (2, 2), (0., 1.), (0., 1.), .UNSPECIFIED.);
#135 = CARTESIAN_POINT('', (200., 0., 0.));
#136 = CARTESIAN_POINT('', (200., 0., 20.));
#137 = CARTESIAN_POINT('', (200., 60., 0.));
#138 = CARTESIAN_POINT('', (200., 60., 20.));
#139 = DRAUGHTING_MODEL('', (#147, #293, #439, #585, #731), #734);
#140 = PRESENTATION_STYLE_ASSIGNMENT((#141));
#141 = SURFACE_STYLE_USAGE(.POSITIVE., #142);
#142 = SURFACE_SIDE_STYLE('', (#143));
#143 = SURFACE_STYLE_FILL_AREA(#144);
#144 = FILL_AREA_STYLE('', (#145));
#145 = FILL_AREA_STYLE_COLOUR('', #146);
#146 = COLOUR_RGB('', 0.50196078431373, 0.50196078431373, 0.50196078431373);
#147 = STYLED_ITEM('', (#140), #1);
#148 = MANIFOLD_SOLID_BREP('LinearPattern_0', #149);
#149 = CLOSED_SHELL('', (#150, #186, #222, #242, #258, #274));
#150 = ADVANCED_FACE('', (#151), #181, .T.);
#151 = FACE_OUTER_BOUND('', #152, .T.);
#152 = EDGE_LOOP('', (#153, #162, #169, #176));
#153 = ORIENTED_EDGE('', *, *, #154, .T.);
#154 = EDGE_CURVE('', #155, #157, #159, .T.);
#155 = VERTEX_POINT('', #156);
#156 = CARTESIAN_POINT('', (10., 40., 40.));
#157 = VERTEX_POINT('', #158);
#158 = CARTESIAN_POINT('', (10., 20., 40.));
#159 = B_SPLINE_CURVE_WITH_KNOTS('', 1, (#160, #161), .UNSPECIFIED., .F., .U., (2, 2), (0., 1.), .UNSPECIFIED.);
#160 = CARTESIAN_POINT('', (10., 40., 40.));
#161 = CARTESIAN_POINT('', (10., 20., 40.));
#162 = ORIENTED_EDGE('', *, *, #163, .T.);
#163 = EDGE_CURVE('', #157, #164, #166, .T.);
#164 = VERTEX_POINT('', #165);
#165 = CARTESIAN_POINT('', (30., 20., 40.));
#166 = B_SPLINE_CURVE_WITH_KNOTS('', 1, (#167, #168), .UNSPECIFIED., .F., .U., (2, 2), (0., 1.), .UNSPECIFIED.);
#167 = CARTESIAN_POINT('', (10., 20., 40.));
#168 = CARTESIAN_POINT('', (30., 20., 40.));
#169 = ORIENTED_EDGE('', *, *, #170, .T.);
#170 = EDGE_CURVE('', #164, #171, #173, .T.);
#171 = VERTEX_POINT('', #172);
#172 = CARTESIAN_POINT('', (30., 40., 40.));
#173 = B_SPLINE_CURVE_WITH_KNOTS('', 1, (#174, #175), .UNSPECIFIED., .F., .U., (2, 2), (0., 1.), .UNSPECIFIED.);
#174 = CARTESIAN_POINT('', (30., 20., 40.));
#175 = CARTESIAN_POINT('', (30., 40., 40.));
#176 = ORIENTED_EDGE('', *, *, #177, .T.);
#177 = EDGE_CURVE('', #171, #155, #178, .T.);
#178 = B_SPLINE_CURVE_WITH_KNOTS('', 1, (#179, #180), .UNSPECIFIED., .F., .U., (2, 2), (0., 1.), .UNSPECIFIED.);
#179 = CARTESIAN_POINT('', (30., 40., 40.));
#180 = CARTESIAN_POINT('', (10., 40., 40.));
#181 = B_SPLINE_SURFACE_WITH_KNOTS('', 1, 1, ((#182, #183), (#184, #185)), .UNSPECIFIED., .F., .F., .U., (2, 2), (2, 2), (0., 1.), (0., 1.), .UNSPECIFIED.);
#182 = CARTESIAN_POINT('', (35.556349186104, 14.443650813896, 40.));
#183 = CARTESIAN_POINT('', (4.44365081389595, 14.443650813896, 40.));
#184 = CARTESIAN_POINT('', (35.556349186104, 45.556349186104, 40.));
#185 = CARTESIAN_POINT('', (4.44365081389595, 45.556349186104, 40.));
#186 = ADVANCED_FACE('', (#187), #217, .T.);
#187 = FACE_OUTER_BOUND('', #188, .T.);
#188 = EDGE_LOOP('', (#189, #198, #205, #212));
#189 = ORIENTED_EDGE('', *, *, #190, .F.);
#190 = EDGE_CURVE('', #191, #193, #195, .T.);
#191 = VERTEX_POINT('', #192);
#192 = CARTESIAN_POINT('', (10., 40., 0.));
#193 = VERTEX_POINT('', #194);
#194 = CARTESIAN_POINT('', (10., 20., 0.));
#195 = B_SPLINE_CURVE_WITH_KNOTS('', 1, (#196, #197), .UNSPECIFIED., .F., .U., (2, 2), (0., 1.), .UNSPECIFIED.);
#196 = CARTESIAN_POINT('', (10., 40., 0.));
#197 = CARTESIAN_POINT('', (10., 20., 0.));
#198 = ORIENTED_EDGE('', *, *, #199, .F.);
#199 = EDGE_CURVE('', #200, #191, #202, .T.);
#200 = VERTEX_POINT('', #201);
#201 = CARTESIAN_POINT('', (30., 40., 0.));
#202 = B_SPLINE_CURVE_WITH_KNOTS('', 1, (#203, #204), .UNSPECIFIED., .F., .U., (2, 2), (0., 1.), .UNSPECIFIED.);
#203 = CARTESIAN_POINT('', (30., 40., 0.));
#204 = CARTESIAN_POINT('', (10., 40., 0.));
#205 = ORIENTED_EDGE('', *, *, #206, .F.);
#206 = EDGE_CURVE('', #207, #200, #209, .T.);
#207 = VERTEX_POINT('', #208);
#208 = CARTESIAN_POINT('', (30., 20., 0.));
#209 = B_SPLINE_CURVE_WITH_KNOTS('', 1, (#210, #211), .UNSPECIFIED., .F., .U., (2, 2), (0., 1.), .UNSPECIFIED.);
#210 = CARTESIAN_POINT('', (30., 20., 0.));
#211 = CARTESIAN_POINT('', (30., 40., 0.));
#212 = ORIENTED_EDGE('', *, *, #213, .F.);
#213 = EDGE_CURVE('', #193, #207, #214, .T.);
#214 = B_SPLINE_CURVE_WITH_KNOTS('', 1, (#215, #216), .UNSPECIFIED., .F., .U., (2, 2), (0., 1.), .UNSPECIFIED.);
#215 = CARTESIAN_POINT('', (10., 20., 0.));
#216 = CARTESIAN_POINT('', (30., 20., 0.));
#217 = B_SPLINE_SURFACE_WITH_KNOTS('', 1, 1, ((#218, #219), (#220, #221)), .UNSPECIFIED., .F., .F., .U., (2, 2), (2, 2), (0., 1.), (0., 1.), .UNSPECIFIED.);
#218 = CARTESIAN_POINT('', (35.556349186104, 14.443650813896, 0.));
#219 = CARTESIAN_POINT('', (35.556349186104, 45.556349186104, 0.));
#220 = CARTESIAN_POINT('', (4.44365081389595, 14.443650813896, 0.));
#221 = CARTESIAN_POINT('', (4.44365081389595, 45.556349186104, 0.));
#222 = ADVANCED_FACE('', (#223), #237, .T.);
#223 = FACE_OUTER_BOUND('', #224, .T.);
#224 = EDGE_LOOP('', (#225, #230, #231, #236));
#225 = ORIENTED_EDGE('', *, *, #226, .F.);
#226 = EDGE_CURVE('', #191, #155, #227, .T.);
#227 = B_SPLINE_CURVE_WITH_KNOTS('', 1, (#228, #229), .UNSPECIFIED., .F., .U., (2, 2), (0., 1.), .UNSPECIFIED.);
#228 = CARTESIAN_POINT('', (10., 40., 0.));
#229 = CARTESIAN_POINT('', (10., 40., 40.));
#230 = ORIENTED_EDGE('', *, *, #190, .T.);
#231 = ORIENTED_EDGE('', *, *, #232, .T.);
#232 = EDGE_CURVE('', #193, #157, #233, .T.);
#233 = B_SPLINE_CURVE_WITH_KNOTS('', 1, (#234, #235), .UNSPECIFIED., .F., .U., (2, 2), (0., 1.), .UNSPECIFIED.);
#234 = CARTESIAN_POINT('', (10., 20., 0.));
#235 = CARTESIAN_POINT('', (10., 20., 40.));
#236 = ORIENTED_EDGE('', *, *, #154, .F.);
#237 = B_SPLINE_SURFACE_WITH_KNOTS('', 1, 1, ((#238, #239), (#240, #241)), .UNSPECIFIED., .F., .F., .U., (2, 2), (2, 2), (0., 1.), (0., 1.), .UNSPECIFIED.);
#238 = CARTESIAN_POINT('', (10., 40., 0.));
#239 = CARTESIAN_POINT('', (10., 40., 40.));
#240 = CARTESIAN_POINT('', (10., 20., 0.));
#241 = CARTESIAN_POINT('', (10., 20., 40.));
#242 = ADVANCED_FACE('', (#243), #253, .T.);
#243 = FACE_OUTER_BOUND('', #244, .T.);
#244 = EDGE_LOOP('', (#245, #246, #247, #252));
#245 = ORIENTED_EDGE('', *, *, #232, .F.);
#246 = ORIENTED_EDGE('', *, *, #213, .T.);
#247 = ORIENTED_EDGE('', *, *, #248, .T.);
#248 = EDGE_CURVE('', #207, #164, #249, .T.);
#249 = B_SPLINE_CURVE_WITH_KNOTS('', 1, (#250, #251), .UNSPECIFIED., .F., .U., (2, 2), (0., 1.), .UNSPECIFIED.);
#250 = CARTESIAN_POINT('', (30., 20., 0.));
#251 = CARTESIAN_POINT('', (30., 20., 40.));
#252 = ORIENTED_EDGE('', *, *, #163, .F.);
#253 = B_SPLINE_SURFACE_WITH_KNOTS('', 1, 1, ((#254, #255), (#256, #257)), .UNSPECIFIED., .F., .F., .U., (2, 2), (2, 2), (0., 1.), (0., 1.), .UNSPECIFIED.);
#254 = CARTESIAN_POINT('', (10., 20., 0.));
#255 = CARTESIAN_POINT('', (10., 20., 40.));
#256 = CARTESIAN_POINT('', (30., 20., 0.));
#257 = CARTESIAN_POINT('', (30., 20., 40.));
#258 = ADVANCED_FACE('', (#259), #269, .T.);
#259 = FACE_OUTER_BOUND('', #260, .T.);
#260 = EDGE_LOOP('', (#261, #266, #267, #268));
#261 = ORIENTED_EDGE('', *, *, #262, .F.);
#262 = EDGE_CURVE('', #200, #171, #263, .T.);
#263 = B_SPLINE_CURVE_WITH_KNOTS('', 1, (#264, #265), .UNSPECIFIED., .F., .U., (2, 2), (0., 1.), .UNSPECIFIED.);
#264 = CARTESIAN_POINT('', (30., 40., 0.));
#265 = CARTESIAN_POINT('', (30., 40., 40.));
#266 = ORIENTED_EDGE('', *, *, #199, .T.);
#267 = ORIENTED_EDGE('', *, *, #226, .T.);
#268 = ORIENTED_EDGE('', *, *, #177, .F.);
#269 = B_SPLINE_SURFACE_WITH_KNOTS('', 1, 1, ((#270, #271), (#272, #273)), .UNSPECIFIED., .F., .F., .U., (2, 2), (2, 2), (0., 1.), (0., 1.), .UNSPECIFIED.);
#270 = CARTESIAN_POINT('', (30., 40., 0.));
#271 = CARTESIAN_POINT('', (30., 40., 40.));
#272 = CARTESIAN_POINT('', (10., 40., 0.));
#273 = CARTESIAN_POINT('', (10., 40., 40.));
#274 = ADVANCED_FACE('', (#275), #281, .T.);
#275 = FACE_OUTER_BOUND('', #276, .T.);
#276 = EDGE_LOOP('', (#277, #278, #279, #280));
#277 = ORIENTED_EDGE('', *, *, #248, .F.);
#278 = ORIENTED_EDGE('', *, *, #206, .T.);
#279 = ORIENTED_EDGE('', *, *, #262, .T.);
#280 = ORIENTED_EDGE('', *, *, #170, .F.);
#281 = B_SPLINE_SURFACE_WITH_KNOTS('', 1, 1, ((#282, #283), (#284, #285)), .UNSPECIFIED., .F., .F., .U., (2, 2), (2, 2), (0., 1.), (0., 1.), .UNSPECIFIED.);
#282 = CARTESIAN_POINT('', (30., 20., 0.));
#283 = CARTESIAN_POINT('', (30., 20., 40.));
#284 = CARTESIAN_POINT('', (30., 40., 0.));
#285 = CARTESIAN_POINT('', (30., 40., 40.));
#286 = PRESENTATION_STYLE_ASSIGNMENT((#287));
#287 = SURFACE_STYLE_USAGE(.POSITIVE., #288);
#288 = SURFACE_SIDE_STYLE('', (#289));
#289 = SURFACE_STYLE_FILL_AREA(#290);
#290 = FILL_AREA_STYLE('', (#291));
#291 = FILL_AREA_STYLE_COLOUR('', #292);
#292 = COLOUR_RGB('', 0.50196078431373, 0.50196078431373, 0.50196078431373);
#293 = STYLED_ITEM('', (#286), #148);
#294 = MANIFOLD_SOLID_BREP('LinearPattern_1', #295);
#295 = CLOSED_SHELL('', (#296, #332, #368, #388, #404, #420));
#296 = ADVANCED_FACE('', (#297), #327, .T.);
#297 = FACE_OUTER_BOUND('', #298, .T.);
#298 = EDGE_LOOP('', (#299, #308, #315, #322));
#299 = ORIENTED_EDGE('', *, *, #300, .T.);
#300 = EDGE_CURVE('', #301, #303, #305, .T.);
#301 = VERTEX_POINT('', #302);
#302 = CARTESIAN_POINT('', (60., 40., 40.));
#303 = VERTEX_POINT('', #304);
#304 = CARTESIAN_POINT('', (60., 20., 40.));
#305 = B_SPLINE_CURVE_WITH_KNOTS('', 1, (#306, #307), .UNSPECIFIED., .F., .U., (2, 2), (0., 1.), .UNSPECIFIED.);
#306 = CARTESIAN_POINT('', (60., 40., 40.));
#307 = CARTESIAN_POINT('', (60., 20., 40.));
#308 = ORIENTED_EDGE('', *, *, #309, .T.);
#309 = EDGE_CURVE('', #303, #310, #312, .T.);
#310 = VERTEX_POINT('', #311);
#311 = CARTESIAN_POINT('', (80., 20., 40.));
#312 = B_SPLINE_CURVE_WITH_KNOTS('', 1, (#313, #314), .UNSPECIFIED., .F., .U., (2, 2), (0., 1.), .UNSPECIFIED.);
#313 = CARTESIAN_POINT('', (60., 20., 40.));
#314 = CARTESIAN_POINT('', (80., 20., 40.));
#315 = ORIENTED_EDGE('', *, *, #316, .T.);
#316 = EDGE_CURVE('', #310, #317, #319, .T.);
#317 = VERTEX_POINT('', #318);
#318 = CARTESIAN_POINT('', (80., 40., 40.));
#319 = B_SPLINE_CURVE_WITH_KNOTS('', 1, (#320, #321), .UNSPECIFIED., .F., .U., (2, 2), (0., 1.), .UNSPECIFIED.);
#320 = CARTESIAN_POINT('', (80., 20., 40.));
#321 = CARTESIAN_POINT('', (80., 40., 40.));
#322 = ORIENTED_EDGE('', *, *, #323, .T.);
#323 = EDGE_CURVE('', #317, #301, #324, .T.);
#324 = B_SPLINE_CURVE_WITH_KNOTS('', 1, (#325, #326), .UNSPECIFIED., .F., .U., (2, 2), (0., 1.), .UNSPECIFIED.);
#325 = CARTESIAN_POINT('', (80., 40., 40.));
#326 = CARTESIAN_POINT('', (60., 40., 40.));
#327 = B_SPLINE_SURFACE_WITH_KNOTS('', 1, 1, ((#328, #329), (#330, #331)), .UNSPECIFIED., .F., .F., .U., (2, 2), (2, 2), (0., 1.), (0., 1.), .UNSPECIFIED.);
#328 = CARTESIAN_POINT('', (85.556349186104, 14.443650813896, 40.));
#329 = CARTESIAN_POINT('', (54.443650813896, 14.443650813896, 40.));
#330 = CARTESIAN_POINT('', (85.556349186104, 45.556349186104, 40.));
#331 = CARTESIAN_POINT('', (54.443650813896, 45.556349186104, 40.));
#332 = ADVANCED_FACE('', (#333), #363, .T.);
#333 = FACE_OUTER_BOUND('', #334, .T.);
#334 = EDGE_LOOP('', (#335, #344, #351, #358));
#335 = ORIENTED_EDGE('', *, *, #336, .F.);
#336 = EDGE_CURVE('', #337, #339, #341, .T.);
#337 = VERTEX_POINT('', #338);
#338 = CARTESIAN_POINT('', (60., 40., 0.));
#339 = VERTEX_POINT('', #340);
#340 = CARTESIAN_POINT('', (60., 20., 0.));
#341 = B_SPLINE_CURVE_WITH_KNOTS('', 1, (#342, #343), .UNSPECIFIED., .F., .U., (2, 2), (0., 1.), .UNSPECIFIED.);
#342 = CARTESIAN_POINT('', (60., 40., 0.));
#343 = CARTESIAN_POINT('', (60., 20., 0.));
#344 = ORIENTED_EDGE('', *, *, #345, .F.);
#345 = EDGE_CURVE('', #346, #337, #348, .T.);
#346 = VERTEX_POINT('', #347);
#347 = CARTESIAN_POINT('', (80., 40., 0.));
#348 = B_SPLINE_CURVE_WITH_KNOTS('', 1, (#349, #350), .UNSPECIFIED., .F., .U., (2, 2), (0., 1.), .UNSPECIFIED.);
#349 = CARTESIAN_POINT('', (80., 40., 0.));
#350 = CARTESIAN_POINT('', (60., 40., 0.));
#351 = ORIENTED_EDGE('', *, *, #352, .F.);
#352 = EDGE_CURVE('', #353, #346, #355, .T.);
#353 = VERTEX_POINT('', #354);
#354 = CARTESIAN_POINT('', (80., 20., 0.));
#355 = B_SPLINE_CURVE_WITH_KNOTS('', 1, (#356, #357), .UNSPECIFIED., .F., .U., (2, 2), (0., 1.), .UNSPECIFIED.);
#356 = CARTESIAN_POINT('', (80., 20., 0.));
#357 = CARTESIAN_POINT('', (80., 40., 0.));
#358 = ORIENTED_EDGE('', *, *, #359, .F.);
#359 = EDGE_CURVE('', #339, #353, #360, .T.);
#360 = B_SPLINE_CURVE_WITH_KNOTS('', 1, (#361, #362), .UNSPECIFIED., .F., .U., (2, 2), (0., 1.), .UNSPECIFIED.);
#361 = CARTESIAN_POINT('', (60., 20., 0.));
#362 = CARTESIAN_POINT('', (80., 20., 0.));
#363 = B_SPLINE_SURFACE_WITH_KNOTS('', 1, 1, ((#364, #365), (#366, #367)), .UNSPECIFIED., .F., .F., .U., (2, 2), (2, 2), (0., 1.), (0., 1.), .UNSPECIFIED.);
#364 = CARTESIAN_POINT('', (85.556349186104, 14.443650813896, 0.));
#365 = CARTESIAN_POINT('', (85.556349186104, 45.556349186104, 0.));
#366 = CARTESIAN_POINT('', (54.443650813896, 14.443650813896, 0.));
#367 = CARTESIAN_POINT('', (54.443650813896, 45.556349186104, 0.));
#368 = ADVANCED_FACE('', (#369), #383, .T.);
#369 = FACE_OUTER_BOUND('', #370, .T.);
#370 = EDGE_LOOP('', (#371, #376, #377, #382));
#371 = ORIENTED_EDGE('', *, *, #372, .F.);
#372 = EDGE_CURVE('', #337, #301, #373, .T.);
#373 = B_SPLINE_CURVE_WITH_KNOTS('', 1, (#374, #375), .UNSPECIFIED., .F., .U., (2, 2), (0., 1.), .UNSPECIFIED.);
#374 = CARTESIAN_POINT('', (60., 40., 0.));
#375 = CARTESIAN_POINT('', (60., 40., 40.));
#376 = ORIENTED_EDGE('', *, *, #336, .T.);
#377 = ORIENTED_EDGE('', *, *, #378, .T.);
#378 = EDGE_CURVE('', #339, #303, #379, .T.);
#379 = B_SPLINE_CURVE_WITH_KNOTS('', 1, (#380, #381), .UNSPECIFIED., .F., .U., (2, 2), (0., 1.), .UNSPECIFIED.);
#380 = CARTESIAN_POINT('', (60., 20., 0.));
#381 = CARTESIAN_POINT('', (60., 20., 40.));
#382 = ORIENTED_EDGE('', *, *, #300, .F.);
#383 = B_SPLINE_SURFACE_WITH_KNOTS('', 1, 1, ((#384, #385), (#386, #387)), .UNSPECIFIED., .F., .F., .U., (2, 2), (2, 2), (0., 1.), (0., 1.), .UNSPECIFIED.);
#384 = CARTESIAN_POINT('', (60., 40., 0.));
#385 = CARTESIAN_POINT('', (60., 40., 40.));
#386 = CARTESIAN_POINT('', (60., 20., 0.));
#387 = CARTESIAN_POINT('', (60., 20., 40.));
#388 = ADVANCED_FACE('', (#389), #399, .T.);
#389 = FACE_OUTER_BOUND('', #390, .T.);
#390 = EDGE_LOOP('', (#391, #392, #393, #398));
#391 = ORIENTED_EDGE('', *, *, #378, .F.);
#392 = ORIENTED_EDGE('', *, *, #359, .T.);
#393 = ORIENTED_EDGE('', *, *, #394, .T.);
#394 = EDGE_CURVE('', #353, #310, #395, .T.);
#395 = B_SPLINE_CURVE_WITH_KNOTS('', 1, (#396, #397), .UNSPECIFIED., .F., .U., (2, 2), (0., 1.), .UNSPECIFIED.);
#396 = CARTESIAN_POINT('', (80., 20., 0.));
#397 = CARTESIAN_POINT('', (80., 20., 40.));
#398 = ORIENTED_EDGE('', *, *, #309, .F.);
#399 = B_SPLINE_SURFACE_WITH_KNOTS('', 1, 1, ((#400, #401), (#402, #403)), .UNSPECIFIED., .F., .F., .U., (2, 2), (2, 2), (0., 1.), (0., 1.), .UNSPECIFIED.);
#400 = CARTESIAN_POINT('', (60., 20., 0.));
#401 = CARTESIAN_POINT('', (60., 20., 40.));
#402 = CARTESIAN_POINT('', (80., 20., 0.));
#403 = CARTESIAN_POINT('', (80., 20., 40.));
#404 = ADVANCED_FACE('', (#405), #415, .T.);
#405 = FACE_OUTER_BOUND('', #406, .T.);
#406 = EDGE_LOOP('', (#407, #412, #413, #414));
#407 = ORIENTED_EDGE('', *, *, #408, .F.);
#408 = EDGE_CURVE('', #346, #317, #409, .T.);
#409 = B_SPLINE_CURVE_WITH_KNOTS('', 1, (#410, #411), .UNSPECIFIED., .F., .U., (2, 2), (0., 1.), .UNSPECIFIED.);
#410 = CARTESIAN_POINT('', (80., 40., 0.));
#411 = CARTESIAN_POINT('', (80., 40., 40.));
#412 = ORIENTED_EDGE('', *, *, #345, .T.);
#413 = ORIENTED_EDGE('', *, *, #372, .T.);
#414 = ORIENTED_EDGE('', *, *, #323, .F.);
#415 = B_SPLINE_SURFACE_WITH_KNOTS('', 1, 1, ((#416, #417), (#418, #419)), .UNSPECIFIED., .F., .F., .U., (2, 2), (2, 2), (0., 1.), (0., 1.), .UNSPECIFIED.);
#416 = CARTESIAN_POINT('', (80., 40., 0.));
#417 = CARTESIAN_POINT('', (80., 40., 40.));
#418 = CARTESIAN_POINT('', (60., 40., 0.));
#419 = CARTESIAN_POINT('', (60., 40., 40.));
#420 = ADVANCED_FACE('', (#421), #427, .T.);
#421 = FACE_OUTER_BOUND('', #422, .T.);
#422 = EDGE_LOOP('', (#423, #424, #425, #426));
#423 = ORIENTED_EDGE('', *, *, #394, .F.);
#424 = ORIENTED_EDGE('', *, *, #352, .T.);
#425 = ORIENTED_EDGE('', *, *, #408, .T.);
#426 = ORIENTED_EDGE('', *, *, #316, .F.);
#427 = B_SPLINE_SURFACE_WITH_KNOTS('', 1, 1, ((#428, #429), (#430, #431)), .UNSPECIFIED., .F., .F., .U., (2, 2), (2, 2), (0., 1.), (0., 1.), .UNSPECIFIED.);
#428 = CARTESIAN_POINT('', (80., 20., 0.));
#429 = CARTESIAN_POINT('', (80., 20., 40.));
#430 = CARTESIAN_POINT('', (80., 40., 0.));
#431 = CARTESIAN_POINT('', (80., 40., 40.));
#432 = PRESENTATION_STYLE_ASSIGNMENT((#433));
#433 = SURFACE_STYLE_USAGE(.POSITIVE., #434);
#434 = SURFACE_SIDE_STYLE('', (#435));
#435 = SURFACE_STYLE_FILL_AREA(#436);
#436 = FILL_AREA_STYLE('', (#437));
#437 = FILL_AREA_STYLE_COLOUR('', #438);
#438 = COLOUR_RGB('', 0.50196078431373, 0.50196078431373, 0.50196078431373);
#439 = STYLED_ITEM('', (#432), #294);
#440 = MANIFOLD_SOLID_BREP('LinearPattern_2', #441);
#441 = CLOSED_SHELL('', (#442, #478, #514, #534, #550, #566));
#442 = ADVANCED_FACE('', (#443), #473, .T.);
#443 = FACE_OUTER_BOUND('', #444, .T.);
#444 = EDGE_LOOP('', (#445, #454, #461, #468));
#445 = ORIENTED_EDGE('', *, *, #446, .T.);
#446 = EDGE_CURVE('', #447, #449, #451, .T.);
#447 = VERTEX_POINT('', #448);
#448 = CARTESIAN_POINT('', (110., 40., 40.));
#449 = VERTEX_POINT('', #450);
#450 = CARTESIAN_POINT('', (110., 20., 40.));
#451 = B_SPLINE_CURVE_WITH_KNOTS('', 1, (#452, #453), .UNSPECIFIED., .F., .U., (2, 2), (0., 1.), .UNSPECIFIED.);
#452 = CARTESIAN_POINT('', (110., 40., 40.));
#453 = CARTESIAN_POINT('', (110., 20., 40.));
#454 = ORIENTED_EDGE('', *, *, #455, .T.);
#455 = EDGE_CURVE('', #449, #456, #458, .T.);
#456 = VERTEX_POINT('', #457);
#457 = CARTESIAN_POINT('', (130., 20., 40.));
#458 = B_SPLINE_CURVE_WITH_KNOTS('', 1, (#459, #460), .UNSPECIFIED., .F., .U., (2, 2), (0., 1.), .UNSPECIFIED.);
#459 = CARTESIAN_POINT('', (110., 20., 40.));
#460 = CARTESIAN_POINT('', (130., 20., 40.));
#461 = ORIENTED_EDGE('', *, *, #462, .T.);
#462 = EDGE_CURVE('', #456, #463, #465, .T.);
#463 = VERTEX_POINT('', #464);
#464 = CARTESIAN_POINT('', (130., 40., 40.));
#465 = B_SPLINE_CURVE_WITH_KNOTS('', 1, (#466, #467), .UNSPECIFIED., .F., .U., (2, 2), (0., 1.), .UNSPECIFIED.);
#466 = CARTESIAN_POINT('', (130., 20., 40.));
#467 = CARTESIAN_POINT('', (130., 40., 40.));
#468 = ORIENTED_EDGE('', *, *, #469, .T.);
#469 = EDGE_CURVE('', #463, #447, #470, .T.);
#470 = B_SPLINE_CURVE_WITH_KNOTS('', 1, (#471, #472), .UNSPECIFIED., .F., .U., (2, 2), (0., 1.), .UNSPECIFIED.);
#471 = CARTESIAN_POINT('', (130., 40., 40.));
#472 = CARTESIAN_POINT('', (110., 40., 40.));
#473 = B_SPLINE_SURFACE_WITH_KNOTS('', 1, 1, ((#474, #475), (#476, #477)), .UNSPECIFIED., .F., .F., .U., (2, 2), (2, 2), (0., 1.), (0., 1.), .UNSPECIFIED.);
#474 = CARTESIAN_POINT('', (135.556349186104, 14.443650813896, 40.));
#475 = CARTESIAN_POINT('', (104.443650813896, 14.443650813896, 40.));
#476 = CARTESIAN_POINT('', (135.556349186104, 45.556349186104, 40.));
#477 = CARTESIAN_POINT('', (104.443650813896, 45.556349186104, 40.));
#478 = ADVANCED_FACE('', (#479), #509, .T.);
#479 = FACE_OUTER_BOUND('', #480, .T.);
#480 = EDGE_LOOP('', (#481, #490, #497, #504));
#481 = ORIENTED_EDGE('', *, *, #482, .F.);
#482 = EDGE_CURVE('', #483, #485, #487, .T.);
#483 = VERTEX_POINT('', #484);
#484 = CARTESIAN_POINT('', (110., 40., 0.));
#485 = VERTEX_POINT('', #486);
#486 = CARTESIAN_POINT('', (110., 20., 0.));
#487 = B_SPLINE_CURVE_WITH_KNOTS('', 1, (#488, #489), .UNSPECIFIED., .F., .U., (2, 2), (0., 1.), .UNSPECIFIED.);
#488 = CARTESIAN_POINT('', (110., 40., 0.));
#489 = CARTESIAN_POINT('', (110., 20., 0.));
#490 = ORIENTED_EDGE('', *, *, #491, .F.);
#491 = EDGE_CURVE('', #492, #483, #494, .T.);
#492 = VERTEX_POINT('', #493);
#493 = CARTESIAN_POINT('', (130., 40., 0.));
#494 = B_SPLINE_CURVE_WITH_KNOTS('', 1, (#495, #496), .UNSPECIFIED., .F., .U., (2, 2), (0., 1.), .UNSPECIFIED.);
#495 = CARTESIAN_POINT('', (130., 40., 0.));
#496 = CARTESIAN_POINT('', (110., 40., 0.));
#497 = ORIENTED_EDGE('', *, *, #498, .F.);
#498 = EDGE_CURVE('', #499, #492, #501, .T.);
#499 = VERTEX_POINT('', #500);
#500 = CARTESIAN_POINT('', (130., 20., 0.));
#501 = B_SPLINE_CURVE_WITH_KNOTS('', 1, (#502, #503), .UNSPECIFIED., .F., .U., (2, 2), (0., 1.), .UNSPECIFIED.);
#502 = CARTESIAN_POINT('', (130., 20., 0.));
#503 = CARTESIAN_POINT('', (130., 40., 0.));
#504 = ORIENTED_EDGE('', *, *, #505, .F.);
#505 = EDGE_CURVE('', #485, #499, #506, .T.);
#506 = B_SPLINE_CURVE_WITH_KNOTS('', 1, (#507, #508), .UNSPECIFIED., .F., .U., (2, 2), (0., 1.), .UNSPECIFIED.);
#507 = CARTESIAN_POINT('', (110., 20., 0.));
#508 = CARTESIAN_POINT('', (130., 20., 0.));
#509 = B_SPLINE_SURFACE_WITH_KNOTS('', 1, 1, ((#510, #511), (#512, #513)), .UNSPECIFIED., .F., .F., .U., (2, 2), (2, 2), (0., 1.), (0., 1.), .UNSPECIFIED.);
#510 = CARTESIAN_POINT('', (135.556349186104, 14.443650813896, 0.));
#511 = CARTESIAN_POINT('', (135.556349186104, 45.556349186104, 0.));
#512 = CARTESIAN_POINT('', (104.443650813896, 14.443650813896, 0.));
#513 = CARTESIAN_POINT('', (104.443650813896, 45.556349186104, 0.));
#514 = ADVANCED_FACE('', (#515), #529, .T.);
#515 = FACE_OUTER_BOUND('', #516, .T.);
#516 = EDGE_LOOP('', (#517, #522, #523, #528));
#517 = ORIENTED_EDGE('', *, *, #518, .F.);
#518 = EDGE_CURVE('', #483, #447, #519, .T.);
#519 = B_SPLINE_CURVE_WITH_KNOTS('', 1, (#520, #521), .UNSPECIFIED., .F., .U., (2, 2), (0., 1.), .UNSPECIFIED.);
#520 = CARTESIAN_POINT('', (110., 40., 0.));
#521 = CARTESIAN_POINT('', (110., 40., 40.));
#522 = ORIENTED_EDGE('', *, *, #482, .T.);
#523 = ORIENTED_EDGE('', *, *, #524, .T.);
#524 = EDGE_CURVE('', #485, #449, #525, .T.);
#525 = B_SPLINE_CURVE_WITH_KNOTS('', 1, (#526, #527), .UNSPECIFIED., .F., .U., (2, 2), (0., 1.), .UNSPECIFIED.);
#526 = CARTESIAN_POINT('', (110., 20., 0.));
#527 = CARTESIAN_POINT('', (110., 20., 40.));
#528 = ORIENTED_EDGE('', *, *, #446, .F.);
#529 = B_SPLINE_SURFACE_WITH_KNOTS('', 1, 1, ((#530, #531), (#532, #533)), .UNSPECIFIED., .F., .F., .U., (2, 2), (2, 2), (0., 1.), (0., 1.), .UNSPECIFIED.);
#530 = CARTESIAN_POINT('', (110., 40., 0.));
#531 = CARTESIAN_POINT('', (110., 40., 40.));
#532 = CARTESIAN_POINT('', (110., 20., 0.));
#533 = CARTESIAN_POINT('', (110., 20., 40.));
#534 = ADVANCED_FACE('', (#535), #545, .T.);
#535 = FACE_OUTER_BOUND('', #536, .T.);
#536 = EDGE_LOOP('', (#537, #538, #539, #544));
#537 = ORIENTED_EDGE('', *, *, #524, .F.);
#538 = ORIENTED_EDGE('', *, *, #505, .T.);
#539 = ORIENTED_EDGE('', *, *, #540, .T.);
#540 = EDGE_CURVE('', #499, #456, #541, .T.);
#541 = B_SPLINE_CURVE_WITH_KNOTS('', 1, (#542, #543), .UNSPECIFIED., .F., .U., (2, 2), (0., 1.), .UNSPECIFIED.);
#542 = CARTESIAN_POINT('', (130., 20., 0.));
#543 = CARTESIAN_POINT('', (130., 20., 40.));
#544 = ORIENTED_EDGE('', *, *, #455, .F.);
#545 = B_SPLINE_SURFACE_WITH_KNOTS('', 1, 1, ((#546, #547), (#548, #549)), .UNSPECIFIED., .F., .F., .U., (2, 2), (2, 2), (0., 1.), (0., 1.), .UNSPECIFIED.);
#546 = CARTESIAN_POINT('', (110., 20., 0.));
#547 = CARTESIAN_POINT('', (110., 20., 40.));
#548 = CARTESIAN_POINT('', (130., 20., 0.));
#549 = CARTESIAN_POINT('', (130., 20., 40.));
#550 = ADVANCED_FACE('', (#551), #561, .T.);
#551 = FACE_OUTER_BOUND('', #552, .T.);
#552 = EDGE_LOOP('', (#553, #558, #559, #560));
#553 = ORIENTED_EDGE('', *, *, #554, .F.);
#554 = EDGE_CURVE('', #492, #463, #555, .T.);
#555 = B_SPLINE_CURVE_WITH_KNOTS('', 1, (#556, #557), .UNSPECIFIED., .F., .U., (2, 2), (0., 1.), .UNSPECIFIED.);
#556 = CARTESIAN_POINT('', (130., 40., 0.));
#557 = CARTESIAN_POINT('', (130., 40., 40.));
#558 = ORIENTED_EDGE('', *, *, #491, .T.);
#559 = ORIENTED_EDGE('', *, *, #518, .T.);
#560 = ORIENTED_EDGE('', *, *, #469, .F.);
#561 = B_SPLINE_SURFACE_WITH_KNOTS('', 1, 1, ((#562, #563), (#564, #565)), .UNSPECIFIED., .F., .F., .U., (2, 2), (2, 2), (0., 1.), (0., 1.), .UNSPECIFIED.);
#562 = CARTESIAN_POINT('', (130., 40., 0.));
#563 = CARTESIAN_POINT('', (130., 40., 40.));
#564 = CARTESIAN_POINT('', (110., 40., 0.));
#565 = CARTESIAN_POINT('', (110., 40., 40.));
#566 = ADVANCED_FACE('', (#567), #573, .T.);
#567 = FACE_OUTER_BOUND('', #568, .T.);
#568 = EDGE_LOOP('', (#569, #570, #571, #572));
#569 = ORIENTED_EDGE('', *, *, #540, .F.);
#570 = ORIENTED_EDGE('', *, *, #498, .T.);
#571 = ORIENTED_EDGE('', *, *, #554, .T.);
#572 = ORIENTED_EDGE('', *, *, #462, .F.);
#573 = B_SPLINE_SURFACE_WITH_KNOTS('', 1, 1, ((#574, #575), (#576, #577)), .UNSPECIFIED., .F., .F., .U., (2, 2), (2, 2), (0., 1.), (0., 1.), .UNSPECIFIED.);
#574 = CARTESIAN_POINT('', (130., 20., 0.));
#575 = CARTESIAN_POINT('', (130., 20., 40.));
#576 = CARTESIAN_POINT('', (130., 40., 0.));
#577 = CARTESIAN_POINT('', (130., 40., 40.));
#578 = PRESENTATION_STYLE_ASSIGNMENT((#579));
#579 = SURFACE_STYLE_USAGE(.POSITIVE., #580);
#580 = SURFACE_SIDE_STYLE('', (#581));
#581 = SURFACE_STYLE_FILL_AREA(#582);
#582 = FILL_AREA_STYLE('', (#583));
#583 = FILL_AREA_STYLE_COLOUR('', #584);
#584 = COLOUR_RGB('', 0.50196078431373, 0.50196078431373, 0.50196078431373);
#585 = STYLED_ITEM('', (#578), #440);
#586 = MANIFOLD_SOLID_BREP('LinearPattern_3', #587);
#587 = CLOSED_SHELL('', (#588, #624, #660, #680, #696, #712));
#588 = ADVANCED_FACE('', (#589), #619, .T.);
#589 = FACE_OUTER_BOUND('', #590, .T.);
#590 = EDGE_LOOP('', (#591, #600, #607, #614));
#591 = ORIENTED_EDGE('', *, *, #592, .T.);
#592 = EDGE_CURVE('', #593, #595, #597, .T.);
#593 = VERTEX_POINT('', #594);
#594 = CARTESIAN_POINT('', (160., 40., 40.));
#595 = VERTEX_POINT('', #596);
#596 = CARTESIAN_POINT('', (160., 20., 40.));
#597 = B_SPLINE_CURVE_WITH_KNOTS('', 1, (#598, #599), .UNSPECIFIED., .F., .U., (2, 2), (0., 1.), .UNSPECIFIED.);
#598 = CARTESIAN_POINT('', (160., 40., 40.));
#599 = CARTESIAN_POINT('', (160., 20., 40.));
#600 = ORIENTED_EDGE('', *, *, #601, .T.);
#601 = EDGE_CURVE('', #595, #602, #604, .T.);
#602 = VERTEX_POINT('', #603);
#603 = CARTESIAN_POINT('', (180., 20., 40.));
#604 = B_SPLINE_CURVE_WITH_KNOTS('', 1, (#605, #606), .UNSPECIFIED., .F., .U., (2, 2), (0., 1.), .UNSPECIFIED.);
#605 = CARTESIAN_POINT('', (160., 20., 40.));
#606 = CARTESIAN_POINT('', (180., 20., 40.));
#607 = ORIENTED_EDGE('', *, *, #608, .T.);
#608 = EDGE_CURVE('', #602, #609, #611, .T.);
#609 = VERTEX_POINT('', #610);
#610 = CARTESIAN_POINT('', (180., 40., 40.));
#611 = B_SPLINE_CURVE_WITH_KNOTS('', 1, (#612, #613), .UNSPECIFIED., .F., .U., (2, 2), (0., 1.), .UNSPECIFIED.);
#612 = CARTESIAN_POINT('', (180., 20., 40.));
#613 = CARTESIAN_POINT('', (180., 40., 40.));
#614 = ORIENTED_EDGE('', *, *, #615, .T.);
#615 = EDGE_CURVE('', #609, #593, #616, .T.);
#616 = B_SPLINE_CURVE_WITH_KNOTS('', 1, (#617, #618), .UNSPECIFIED., .F., .U., (2, 2), (0., 1.), .UNSPECIFIED.);
#617 = CARTESIAN_POINT('', (180., 40., 40.));
#618 = CARTESIAN_POINT('', (160., 40., 40.));
#619 = B_SPLINE_SURFACE_WITH_KNOTS('', 1, 1, ((#620, #621), (#622, #623)), .UNSPECIFIED., .F., .F., .U., (2, 2), (2, 2), (0., 1.), (0., 1.), .UNSPECIFIED.);
#620 = CARTESIAN_POINT('', (185.556349186104, 14.443650813896, 40.));
#621 = CARTESIAN_POINT('', (154.443650813896, 14.443650813896, 40.));
#622 = CARTESIAN_POINT('', (185.556349186104, 45.556349186104, 40.));
#623 = CARTESIAN_POINT('', (154.443650813896, 45.556349186104, 40.));
#624 = ADVANCED_FACE('', (#625), #655, .T.);
#625 = FACE_OUTER_BOUND('', #626, .T.);
#626 = EDGE_LOOP('', (#627, #636, #643, #650));
#627 = ORIENTED_EDGE('', *, *, #628, .F.);
#628 = EDGE_CURVE('', #629, #631, #633, .T.);
#629 = VERTEX_POINT('', #630);
#630 = CARTESIAN_POINT('', (160., 40., 0.));
#631 = VERTEX_POINT('', #632);
#632 = CARTESIAN_POINT('', (160., 20., 0.));
#633 = B_SPLINE_CURVE_WITH_KNOTS('', 1, (#634, #635), .UNSPECIFIED., .F., .U., (2, 2), (0., 1.), .UNSPECIFIED.);
#634 = CARTESIAN_POINT('', (160., 40., 0.));
#635 = CARTESIAN_POINT('', (160., 20., 0.));
#636 = ORIENTED_EDGE('', *, *, #637, .F.);
#637 = EDGE_CURVE('', #638, #629, #640, .T.);
#638 = VERTEX_POINT('', #639);
#639 = CARTESIAN_POINT('', (180., 40., 0.));
#640 = B_SPLINE_CURVE_WITH_KNOTS('', 1, (#641, #642), .UNSPECIFIED., .F., .U., (2, 2), (0., 1.), .UNSPECIFIED.);
#641 = CARTESIAN_POINT('', (180., 40., 0.));
#642 = CARTESIAN_POINT('', (160., 40., 0.));
#643 = ORIENTED_EDGE('', *, *, #644, .F.);
#644 = EDGE_CURVE('', #645, #638, #647, .T.);
#645 = VERTEX_POINT('', #646);
#646 = CARTESIAN_POINT('', (180., 20., 0.));
#647 = B_SPLINE_CURVE_WITH_KNOTS('', 1, (#648, #649), .UNSPECIFIED., .F., .U., (2, 2), (0., 1.), .UNSPECIFIED.);
#648 = CARTESIAN_POINT('', (180., 20., 0.));
#649 = CARTESIAN_POINT('', (180., 40., 0.));
#650 = ORIENTED_EDGE('', *, *, #651, .F.);
#651 = EDGE_CURVE('', #631, #645, #652, .T.);
#652 = B_SPLINE_CURVE_WITH_KNOTS('', 1, (#653, #654), .UNSPECIFIED., .F., .U., (2, 2), (0., 1.), .UNSPECIFIED.);
#653 = CARTESIAN_POINT('', (160., 20., 0.));
#654 = CARTESIAN_POINT('', (180., 20., 0.));
#655 = B_SPLINE_SURFACE_WITH_KNOTS('', 1, 1, ((#656, #657), (#658, #659)), .UNSPECIFIED., .F., .F., .U., (2, 2), (2, 2), (0., 1.), (0., 1.), .UNSPECIFIED.);
#656 = CARTESIAN_POINT('', (185.556349186104, 14.443650813896, 0.));
#657 = CARTESIAN_POINT('', (185.556349186104, 45.556349186104, 0.));
#658 = CARTESIAN_POINT('', (154.443650813896, 14.443650813896, 0.));
#659 = CARTESIAN_POINT('', (154.443650813896, 45.556349186104, 0.));
#660 = ADVANCED_FACE('', (#661), #675, .T.);
#661 = FACE_OUTER_BOUND('', #662, .T.);
#662 = EDGE_LOOP('', (#663, #668, #669, #674));
#663 = ORIENTED_EDGE('', *, *, #664, .F.);
#664 = EDGE_CURVE('', #629, #593, #665, .T.);
#665 = B_SPLINE_CURVE_WITH_KNOTS('', 1, (#666, #667), .UNSPECIFIED., .F., .U., (2, 2), (0., 1.), .UNSPECIFIED.);
#666 = CARTESIAN_POINT('', (160., 40., 0.));
#667 = CARTESIAN_POINT('', (160., 40., 40.));
#668 = ORIENTED_EDGE('', *, *, #628, .T.);
#669 = ORIENTED_EDGE('', *, *, #670, .T.);
#670 = EDGE_CURVE('', #631, #595, #671, .T.);
#671 = B_SPLINE_CURVE_WITH_KNOTS('', 1, (#672, #673), .UNSPECIFIED., .F., .U., (2, 2), (0., 1.), .UNSPECIFIED.);
#672 = CARTESIAN_POINT('', (160., 20., 0.));
#673 = CARTESIAN_POINT('', (160., 20., 40.));
#674 = ORIENTED_EDGE('', *, *, #592, .F.);
#675 = B_SPLINE_SURFACE_WITH_KNOTS('', 1, 1, ((#676, #677), (#678, #679)), .UNSPECIFIED., .F., .F., .U., (2, 2), (2, 2), (0., 1.), (0., 1.), .UNSPECIFIED.);
#676 = CARTESIAN_POINT('', (160., 40., 0.));
#677 = CARTESIAN_POINT('', (160., 40., 40.));
#678 = CARTESIAN_POINT('', (160., 20., 0.));
#679 = CARTESIAN_POINT('', (160., 20., 40.));
#680 = ADVANCED_FACE('', (#681), #691, .T.);
#681 = FACE_OUTER_BOUND('', #682, .T.);
#682 = EDGE_LOOP('', (#683, #684, #685, #690));
#683 = ORIENTED_EDGE('', *, *, #670, .F.);
#684 = ORIENTED_EDGE('', *, *, #651, .T.);
#685 = ORIENTED_EDGE('', *, *, #686, .T.);
#686 = EDGE_CURVE('', #645, #602, #687, .T.);
#687 = B_SPLINE_CURVE_WITH_KNOTS('', 1, (#688, #689), .UNSPECIFIED., .F., .U., (2, 2), (0., 1.), .UNSPECIFIED.);
#688 = CARTESIAN_POINT('', (180., 20., 0.));
#689 = CARTESIAN_POINT('', (180., 20., 40.));
#690 = ORIENTED_EDGE('', *, *, #601, .F.);
#691 = B_SPLINE_SURFACE_WITH_KNOTS('', 1, 1, ((#692, #693), (#694, #695)), .UNSPECIFIED., .F., .F., .U., (2, 2), (2, 2), (0., 1.), (0., 1.), .UNSPECIFIED.);
#692 = CARTESIAN_POINT('', (160., 20., 0.));
#693 = CARTESIAN_POINT('', (160., 20., 40.));
#694 = CARTESIAN_POINT('', (180., 20., 0.));
#695 = CARTESIAN_POINT('', (180., 20., 40.));
#696 = ADVANCED_FACE('', (#697), #707, .T.);
#697 = FACE_OUTER_BOUND('', #698, .T.);
#698 = EDGE_LOOP('', (#699, #704, #705, #706));
#699 = ORIENTED_EDGE('', *, *, #700, .F.);
#700 = EDGE_CURVE('', #638, #609, #701, .T.);
#701 = B_SPLINE_CURVE_WITH_KNOTS('', 1, (#702, #703), .UNSPECIFIED., .F., .U., (2, 2), (0., 1.), .UNSPECIFIED.);
#702 = CARTESIAN_POINT('', (180., 40., 0.));
#703 = CARTESIAN_POINT('', (180., 40., 40.));
#704 = ORIENTED_EDGE('', *, *, #637, .T.);
#705 = ORIENTED_EDGE('', *, *, #664, .T.);
#706 = ORIENTED_EDGE('', *, *, #615, .F.);
#707 = B_SPLINE_SURFACE_WITH_KNOTS('', 1, 1, ((#708, #709), (#710, #711)), .UNSPECIFIED., .F., .F., .U., (2, 2), (2, 2), (0., 1.), (0., 1.), .UNSPECIFIED.);
#708 = CARTESIAN_POINT('', (180., 40., 0.));
#709 = CARTESIAN_POINT('', (180., 40., 40.));
#710 = CARTESIAN_POINT('', (160., 40., 0.));
#711 = CARTESIAN_POINT('', (160., 40., 40.));
#712 = ADVANCED_FACE('', (#713), #719, .T.);
#713 = FACE_OUTER_BOUND('', #714, .T.);
#714 = EDGE_LOOP('', (#715, #716, #717, #718));
#715 = ORIENTED_EDGE('', *, *, #686, .F.);
#716 = ORIENTED_EDGE('', *, *, #644, .T.);
#717 = ORIENTED_EDGE('', *, *, #700, .T.);
#718 = ORIENTED_EDGE('', *, *, #608, .F.);
#719 = B_SPLINE_SURFACE_WITH_KNOTS('', 1, 1, ((#720, #721), (#722, #723)), .UNSPECIFIED., .F., .F., .U., (2, 2), (2, 2), (0., 1.), (0., 1.), .UNSPECIFIED.);
#720 = CARTESIAN_POINT('', (180., 20., 0.));
#721 = CARTESIAN_POINT('', (180., 20., 40.));
#722 = CARTESIAN_POINT('', (180., 40., 0.));
#723 = CARTESIAN_POINT('', (180., 40., 40.));
#724 = PRESENTATION_STYLE_ASSIGNMENT((#725));
#725 = SURFACE_STYLE_USAGE(.POSITIVE., #726);
#726 = SURFACE_SIDE_STYLE('', (#727));
#727 = SURFACE_STYLE_FILL_AREA(#728);
#728 = FILL_AREA_STYLE('', (#729));
#729 = FILL_AREA_STYLE_COLOUR('', #730);
#730 = COLOUR_RGB('', 0.50196078431373, 0.50196078431373, 0.50196078431373);
#731 = STYLED_ITEM('', (#724), #586);
#732 = CARTESIAN_POINT('Origin', (0., 0., 0.));
#733 = GEOMETRIC_SET('', (#732));
#734 = (
   GEOMETRIC_REPRESENTATION_CONTEXT (3)
   GLOBAL_UNCERTAINTY_ASSIGNED_CONTEXT ((#736))
   GLOBAL_UNIT_ASSIGNED_CONTEXT ((#735, #737, #738))
   REPRESENTATION_CONTEXT ('', '3D')
);
#735 = (
   LENGTH_UNIT ()
   NAMED_UNIT (*)
   SI_UNIT (.MILLI., .METRE.)
);
#736 = UNCERTAINTY_MEASURE_WITH_UNIT(LENGTH_MEASURE(1.E-6), #735, 'DISTANCE_ACCURACY_VALUE', '');
#737 = (
   NAMED_UNIT (*)
   SI_UNIT ($, .STERADIAN.)
   SOLID_ANGLE_UNIT ()
);
#738 = (
   NAMED_UNIT (*)
   PLANE_ANGLE_UNIT ()
   SI_UNIT ($, .RADIAN.)
);
#739 = SHAPE_REPRESENTATION('', (#754), #734);
#740 = PRODUCT_DEFINITION_SHAPE('', '', #741);
#741 = PRODUCT_DEFINITION('', '', #744, #748);
#742 = APPLICATION_CONTEXT('configuration controlled 3D designs of mechanical parts and assemblies');
#743 = APPLICATION_PROTOCOL_DEFINITION('International Standard', 'automotive_design', 2002, #742);
#744 = PRODUCT_DEFINITION_FORMATION_WITH_SPECIFIED_SOURCE('', '', #745, .NOT_KNOWN.);
#745 = PRODUCT('Indices', 'Indices', '', (#746));
#746 = PRODUCT_CONTEXT('', #742, 'mechanical');
#747 = PRODUCT_RELATED_PRODUCT_CATEGORY('detail', '', (#745));
#748 = PRODUCT_DEFINITION_CONTEXT('part definition', #742, 'design');
#749 = SHAPE_DEFINITION_REPRESENTATION(#740, #739);
#750 = SHAPE_REPRESENTATION_RELATIONSHIP('', '', #739, #751);
#751 = SHAPE_REPRESENTATION('', (#733), #734);
#752 = SHAPE_REPRESENTATION_RELATIONSHIP('', '', #739, #753);
#753 = ADVANCED_BREP_SHAPE_REPRESENTATION('', (#1, #148, #294, #440, #586), #734);
#754 = AXIS2_PLACEMENT_3D('', #755, #756, #757);
#755 = CARTESIAN_POINT('', (0., 0., 0.));
#756 = DIRECTION('', (0., 0., 1.));
#757 = DIRECTION('', (1., 0., 0.));
ENDSEC;
END-ISO-10303-21;
