ISO-10303-21;
HEADER;
FILE_DESCRIPTION(('STEP'), '1');
FILE_NAME('TgtIdx', '2026-03-20T13:46:30', (''), (''), 'Express 3.1.2.0', 'Express Tool', 'Unknown');
FILE_SCHEMA(('AUTOMOTIVE_DESIGN'));
ENDSEC;

DATA;
#1 = MANIFOLD_SOLID_BREP('LinearPattern_0', #2);
#2 = CLOSED_SHELL('', (#3, #39, #75, #95, #111, #127));
#3 = ADVANCED_FACE('', (#4), #34, .T.);
#4 = FACE_OUTER_BOUND('', #5, .T.);
#5 = EDGE_LOOP('', (#6, #15, #22, #29));
#6 = ORIENTED_EDGE('', *, *, #7, .T.);
#7 = EDGE_CURVE('', #8, #10, #12, .T.);
#8 = VERTEX_POINT('', #9);
#9 = CARTESIAN_POINT('', (0., 30., 30.));
#10 = VERTEX_POINT('', #11);
#11 = CARTESIAN_POINT('', (0., 0., 30.));
#12 = B_SPLINE_CURVE_WITH_KNOTS('', 1, (#13, #14), .UNSPECIFIED., .F., .U., (2, 2), (0., 1.), .UNSPECIFIED.);
#13 = CARTESIAN_POINT('', (0., 30., 30.));
#14 = CARTESIAN_POINT('', (0., 0., 30.));
#15 = ORIENTED_EDGE('', *, *, #16, .T.);
#16 = EDGE_CURVE('', #10, #17, #19, .T.);
#17 = VERTEX_POINT('', #18);
#18 = CARTESIAN_POINT('', (30., 0., 30.));
#19 = B_SPLINE_CURVE_WITH_KNOTS('', 1, (#20, #21), .UNSPECIFIED., .F., .U., (2, 2), (0., 1.), .UNSPECIFIED.);
#20 = CARTESIAN_POINT('', (0., 0., 30.));
#21 = CARTESIAN_POINT('', (30., 0., 30.));
#22 = ORIENTED_EDGE('', *, *, #23, .T.);
#23 = EDGE_CURVE('', #17, #24, #26, .T.);
#24 = VERTEX_POINT('', #25);
#25 = CARTESIAN_POINT('', (30., 30., 30.));
#26 = B_SPLINE_CURVE_WITH_KNOTS('', 1, (#27, #28), .UNSPECIFIED., .F., .U., (2, 2), (0., 1.), .UNSPECIFIED.);
#27 = CARTESIAN_POINT('', (30., 0., 30.));
#28 = CARTESIAN_POINT('', (30., 30., 30.));
#29 = ORIENTED_EDGE('', *, *, #30, .T.);
#30 = EDGE_CURVE('', #24, #8, #31, .T.);
#31 = B_SPLINE_CURVE_WITH_KNOTS('', 1, (#32, #33), .UNSPECIFIED., .F., .U., (2, 2), (0., 1.), .UNSPECIFIED.);
#32 = CARTESIAN_POINT('', (30., 30., 30.));
#33 = CARTESIAN_POINT('', (0., 30., 30.));
#34 = B_SPLINE_SURFACE_WITH_KNOTS('', 1, 1, ((#35, #36), (#37, #38)), .UNSPECIFIED., .F., .F., .U., (2, 2), (2, 2), (0., 1.), (0., 1.), .UNSPECIFIED.);
#35 = CARTESIAN_POINT('', (38.3345237791561, -8.33452377915607, 30.));
#36 = CARTESIAN_POINT('', (-8.33452377915607, -8.33452377915607, 30.));
#37 = CARTESIAN_POINT('', (38.3345237791561, 38.3345237791561, 30.));
#38 = CARTESIAN_POINT('', (-8.33452377915607, 38.3345237791561, 30.));
#39 = ADVANCED_FACE('', (#40), #70, .T.);
#40 = FACE_OUTER_BOUND('', #41, .T.);
#41 = EDGE_LOOP('', (#42, #51, #58, #65));
#42 = ORIENTED_EDGE('', *, *, #43, .F.);
#43 = EDGE_CURVE('', #44, #46, #48, .T.);
#44 = VERTEX_POINT('', #45);
#45 = CARTESIAN_POINT('', (0., 30., 0.));
#46 = VERTEX_POINT('', #47);
#47 = CARTESIAN_POINT('', (0., 0., 0.));
#48 = B_SPLINE_CURVE_WITH_KNOTS('', 1, (#49, #50), .UNSPECIFIED., .F., .U., (2, 2), (0., 1.), .UNSPECIFIED.);
#49 = CARTESIAN_POINT('', (0., 30., 0.));
#50 = CARTESIAN_POINT('', (0., 0., 0.));
#51 = ORIENTED_EDGE('', *, *, #52, .F.);
#52 = EDGE_CURVE('', #53, #44, #55, .T.);
#53 = VERTEX_POINT('', #54);
#54 = CARTESIAN_POINT('', (30., 30., 0.));
#55 = B_SPLINE_CURVE_WITH_KNOTS('', 1, (#56, #57), .UNSPECIFIED., .F., .U., (2, 2), (0., 1.), .UNSPECIFIED.);
#56 = CARTESIAN_POINT('', (30., 30., 0.));
#57 = CARTESIAN_POINT('', (0., 30., 0.));
#58 = ORIENTED_EDGE('', *, *, #59, .F.);
#59 = EDGE_CURVE('', #60, #53, #62, .T.);
#60 = VERTEX_POINT('', #61);
#61 = CARTESIAN_POINT('', (30., 0., 0.));
#62 = B_SPLINE_CURVE_WITH_KNOTS('', 1, (#63, #64), .UNSPECIFIED., .F., .U., (2, 2), (0., 1.), .UNSPECIFIED.);
#63 = CARTESIAN_POINT('', (30., 0., 0.));
#64 = CARTESIAN_POINT('', (30., 30., 0.));
#65 = ORIENTED_EDGE('', *, *, #66, .F.);
#66 = EDGE_CURVE('', #46, #60, #67, .T.);
#67 = B_SPLINE_CURVE_WITH_KNOTS('', 1, (#68, #69), .UNSPECIFIED., .F., .U., (2, 2), (0., 1.), .UNSPECIFIED.);
#68 = CARTESIAN_POINT('', (0., 0., 0.));
#69 = CARTESIAN_POINT('', (30., 0., 0.));
#70 = B_SPLINE_SURFACE_WITH_KNOTS('', 1, 1, ((#71, #72), (#73, #74)), .UNSPECIFIED., .F., .F., .U., (2, 2), (2, 2), (0., 1.), (0., 1.), .UNSPECIFIED.);
#71 = CARTESIAN_POINT('', (38.3345237791561, -8.33452377915607, 0.));
#72 = CARTESIAN_POINT('', (38.3345237791561, 38.3345237791561, 0.));
#73 = CARTESIAN_POINT('', (-8.33452377915607, -8.33452377915607, 0.));
#74 = CARTESIAN_POINT('', (-8.33452377915607, 38.3345237791561, 0.));
#75 = ADVANCED_FACE('', (#76), #90, .T.);
#76 = FACE_OUTER_BOUND('', #77, .T.);
#77 = EDGE_LOOP('', (#78, #83, #84, #89));
#78 = ORIENTED_EDGE('', *, *, #79, .F.);
#79 = EDGE_CURVE('', #44, #8, #80, .T.);
#80 = B_SPLINE_CURVE_WITH_KNOTS('', 1, (#81, #82), .UNSPECIFIED., .F., .U., (2, 2), (0., 1.), .UNSPECIFIED.);
#81 = CARTESIAN_POINT('', (0., 30., 0.));
#82 = CARTESIAN_POINT('', (0., 30., 30.));
#83 = ORIENTED_EDGE('', *, *, #43, .T.);
#84 = ORIENTED_EDGE('', *, *, #85, .T.);
#85 = EDGE_CURVE('', #46, #10, #86, .T.);
#86 = B_SPLINE_CURVE_WITH_KNOTS('', 1, (#87, #88), .UNSPECIFIED., .F., .U., (2, 2), (0., 1.), .UNSPECIFIED.);
#87 = CARTESIAN_POINT('', (0., 0., 0.));
#88 = CARTESIAN_POINT('', (0., 0., 30.));
#89 = ORIENTED_EDGE('', *, *, #7, .F.);
#90 = B_SPLINE_SURFACE_WITH_KNOTS('', 1, 1, ((#91, #92), (#93, #94)), .UNSPECIFIED., .F., .F., .U., (2, 2), (2, 2), (0., 1.), (0., 1.), .UNSPECIFIED.);
#91 = CARTESIAN_POINT('', (0., 30., 0.));
#92 = CARTESIAN_POINT('', (0., 30., 30.));
#93 = CARTESIAN_POINT('', (0., 0., 0.));
#94 = CARTESIAN_POINT('', (0., 0., 30.));
#95 = ADVANCED_FACE('', (#96), #106, .T.);
#96 = FACE_OUTER_BOUND('', #97, .T.);
#97 = EDGE_LOOP('', (#98, #99, #100, #105));
#98 = ORIENTED_EDGE('', *, *, #85, .F.);
#99 = ORIENTED_EDGE('', *, *, #66, .T.);
#100 = ORIENTED_EDGE('', *, *, #101, .T.);
#101 = EDGE_CURVE('', #60, #17, #102, .T.);
#102 = B_SPLINE_CURVE_WITH_KNOTS('', 1, (#103, #104), .UNSPECIFIED., .F., .U., (2, 2), (0., 1.), .UNSPECIFIED.);
#103 = CARTESIAN_POINT('', (30., 0., 0.));
#104 = CARTESIAN_POINT('', (30., 0., 30.));
#105 = ORIENTED_EDGE('', *, *, #16, .F.);
#106 = B_SPLINE_SURFACE_WITH_KNOTS('', 1, 1, ((#107, #108), (#109, #110)), .UNSPECIFIED., .F., .F., .U., (2, 2), (2, 2), (0., 1.), (0., 1.), .UNSPECIFIED.);
#107 = CARTESIAN_POINT('', (0., 0., 0.));
#108 = CARTESIAN_POINT('', (0., 0., 30.));
#109 = CARTESIAN_POINT('', (30., 0., 0.));
#110 = CARTESIAN_POINT('', (30., 0., 30.));
#111 = ADVANCED_FACE('', (#112), #122, .T.);
#112 = FACE_OUTER_BOUND('', #113, .T.);
#113 = EDGE_LOOP('', (#114, #119, #120, #121));
#114 = ORIENTED_EDGE('', *, *, #115, .F.);
#115 = EDGE_CURVE('', #53, #24, #116, .T.);
#116 = B_SPLINE_CURVE_WITH_KNOTS('', 1, (#117, #118), .UNSPECIFIED., .F., .U., (2, 2), (0., 1.), .UNSPECIFIED.);
#117 = CARTESIAN_POINT('', (30., 30., 0.));
#118 = CARTESIAN_POINT('', (30., 30., 30.));
#119 = ORIENTED_EDGE('', *, *, #52, .T.);
#120 = ORIENTED_EDGE('', *, *, #79, .T.);
#121 = ORIENTED_EDGE('', *, *, #30, .F.);
#122 = B_SPLINE_SURFACE_WITH_KNOTS('', 1, 1, ((#123, #124), (#125, #126)), .UNSPECIFIED., .F., .F., .U., (2, 2), (2, 2), (0., 1.), (0., 1.), .UNSPECIFIED.);
#123 = CARTESIAN_POINT('', (30., 30., 0.));
#124 = CARTESIAN_POINT('', (30., 30., 30.));
#125 = CARTESIAN_POINT('', (0., 30., 0.));
#126 = CARTESIAN_POINT('', (0., 30., 30.));
#127 = ADVANCED_FACE('', (#128), #134, .T.);
#128 = FACE_OUTER_BOUND('', #129, .T.);
#129 = EDGE_LOOP('', (#130, #131, #132, #133));
#130 = ORIENTED_EDGE('', *, *, #101, .F.);
#131 = ORIENTED_EDGE('', *, *, #59, .T.);
#132 = ORIENTED_EDGE('', *, *, #115, .T.);
#133 = ORIENTED_EDGE('', *, *, #23, .F.);
#134 = B_SPLINE_SURFACE_WITH_KNOTS('', 1, 1, ((#135, #136), (#137, #138)), .UNSPECIFIED., .F., .F., .U., (2, 2), (2, 2), (0., 1.), (0., 1.), .UNSPECIFIED.);
#135 = CARTESIAN_POINT('', (30., 0., 0.));
#136 = CARTESIAN_POINT('', (30., 0., 30.));
#137 = CARTESIAN_POINT('', (30., 30., 0.));
#138 = CARTESIAN_POINT('', (30., 30., 30.));
#139 = DRAUGHTING_MODEL('', (#147, #293, #439), #442);
#140 = PRESENTATION_STYLE_ASSIGNMENT((#141));
#141 = SURFACE_STYLE_USAGE(.POSITIVE., #142);
#142 = SURFACE_SIDE_STYLE('', (#143));
#143 = SURFACE_STYLE_FILL_AREA(#144);
#144 = FILL_AREA_STYLE('', (#145));
#145 = FILL_AREA_STYLE_COLOUR('', #146);
#146 = COLOUR_RGB('', 0.50196078431373, 0.50196078431373, 0.50196078431373);
#147 = STYLED_ITEM('', (#140), #1);
#148 = MANIFOLD_SOLID_BREP('LinearPattern_1', #149);
#149 = CLOSED_SHELL('', (#150, #186, #222, #242, #258, #274));
#150 = ADVANCED_FACE('', (#151), #181, .T.);
#151 = FACE_OUTER_BOUND('', #152, .T.);
#152 = EDGE_LOOP('', (#153, #162, #169, #176));
#153 = ORIENTED_EDGE('', *, *, #154, .T.);
#154 = EDGE_CURVE('', #155, #157, #159, .T.);
#155 = VERTEX_POINT('', #156);
#156 = CARTESIAN_POINT('', (60., 30., 30.));
#157 = VERTEX_POINT('', #158);
#158 = CARTESIAN_POINT('', (60., 0., 30.));
#159 = B_SPLINE_CURVE_WITH_KNOTS('', 1, (#160, #161), .UNSPECIFIED., .F., .U., (2, 2), (0., 1.), .UNSPECIFIED.);
#160 = CARTESIAN_POINT('', (60., 30., 30.));
#161 = CARTESIAN_POINT('', (60., 0., 30.));
#162 = ORIENTED_EDGE('', *, *, #163, .T.);
#163 = EDGE_CURVE('', #157, #164, #166, .T.);
#164 = VERTEX_POINT('', #165);
#165 = CARTESIAN_POINT('', (90., 0., 30.));
#166 = B_SPLINE_CURVE_WITH_KNOTS('', 1, (#167, #168), .UNSPECIFIED., .F., .U., (2, 2), (0., 1.), .UNSPECIFIED.);
#167 = CARTESIAN_POINT('', (60., 0., 30.));
#168 = CARTESIAN_POINT('', (90., 0., 30.));
#169 = ORIENTED_EDGE('', *, *, #170, .T.);
#170 = EDGE_CURVE('', #164, #171, #173, .T.);
#171 = VERTEX_POINT('', #172);
#172 = CARTESIAN_POINT('', (90., 30., 30.));
#173 = B_SPLINE_CURVE_WITH_KNOTS('', 1, (#174, #175), .UNSPECIFIED., .F., .U., (2, 2), (0., 1.), .UNSPECIFIED.);
#174 = CARTESIAN_POINT('', (90., 0., 30.));
#175 = CARTESIAN_POINT('', (90., 30., 30.));
#176 = ORIENTED_EDGE('', *, *, #177, .T.);
#177 = EDGE_CURVE('', #171, #155, #178, .T.);
#178 = B_SPLINE_CURVE_WITH_KNOTS('', 1, (#179, #180), .UNSPECIFIED., .F., .U., (2, 2), (0., 1.), .UNSPECIFIED.);
#179 = CARTESIAN_POINT('', (90., 30., 30.));
#180 = CARTESIAN_POINT('', (60., 30., 30.));
#181 = B_SPLINE_SURFACE_WITH_KNOTS('', 1, 1, ((#182, #183), (#184, #185)), .UNSPECIFIED., .F., .F., .U., (2, 2), (2, 2), (0., 1.), (0., 1.), .UNSPECIFIED.);
#182 = CARTESIAN_POINT('', (98.3345237791561, -8.33452377915607, 30.));
#183 = CARTESIAN_POINT('', (51.6654762208439, -8.33452377915607, 30.));
#184 = CARTESIAN_POINT('', (98.3345237791561, 38.3345237791561, 30.));
#185 = CARTESIAN_POINT('', (51.6654762208439, 38.3345237791561, 30.));
#186 = ADVANCED_FACE('', (#187), #217, .T.);
#187 = FACE_OUTER_BOUND('', #188, .T.);
#188 = EDGE_LOOP('', (#189, #198, #205, #212));
#189 = ORIENTED_EDGE('', *, *, #190, .F.);
#190 = EDGE_CURVE('', #191, #193, #195, .T.);
#191 = VERTEX_POINT('', #192);
#192 = CARTESIAN_POINT('', (60., 30., 0.));
#193 = VERTEX_POINT('', #194);
#194 = CARTESIAN_POINT('', (60., 0., 0.));
#195 = B_SPLINE_CURVE_WITH_KNOTS('', 1, (#196, #197), .UNSPECIFIED., .F., .U., (2, 2), (0., 1.), .UNSPECIFIED.);
#196 = CARTESIAN_POINT('', (60., 30., 0.));
#197 = CARTESIAN_POINT('', (60., 0., 0.));
#198 = ORIENTED_EDGE('', *, *, #199, .F.);
#199 = EDGE_CURVE('', #200, #191, #202, .T.);
#200 = VERTEX_POINT('', #201);
#201 = CARTESIAN_POINT('', (90., 30., 0.));
#202 = B_SPLINE_CURVE_WITH_KNOTS('', 1, (#203, #204), .UNSPECIFIED., .F., .U., (2, 2), (0., 1.), .UNSPECIFIED.);
#203 = CARTESIAN_POINT('', (90., 30., 0.));
#204 = CARTESIAN_POINT('', (60., 30., 0.));
#205 = ORIENTED_EDGE('', *, *, #206, .F.);
#206 = EDGE_CURVE('', #207, #200, #209, .T.);
#207 = VERTEX_POINT('', #208);
#208 = CARTESIAN_POINT('', (90., 0., 0.));
#209 = B_SPLINE_CURVE_WITH_KNOTS('', 1, (#210, #211), .UNSPECIFIED., .F., .U., (2, 2), (0., 1.), .UNSPECIFIED.);
#210 = CARTESIAN_POINT('', (90., 0., 0.));
#211 = CARTESIAN_POINT('', (90., 30., 0.));
#212 = ORIENTED_EDGE('', *, *, #213, .F.);
#213 = EDGE_CURVE('', #193, #207, #214, .T.);
#214 = B_SPLINE_CURVE_WITH_KNOTS('', 1, (#215, #216), .UNSPECIFIED., .F., .U., (2, 2), (0., 1.), .UNSPECIFIED.);
#215 = CARTESIAN_POINT('', (60., 0., 0.));
#216 = CARTESIAN_POINT('', (90., 0., 0.));
#217 = B_SPLINE_SURFACE_WITH_KNOTS('', 1, 1, ((#218, #219), (#220, #221)), .UNSPECIFIED., .F., .F., .U., (2, 2), (2, 2), (0., 1.), (0., 1.), .UNSPECIFIED.);
#218 = CARTESIAN_POINT('', (98.3345237791561, -8.33452377915607, 0.));
#219 = CARTESIAN_POINT('', (98.3345237791561, 38.3345237791561, 0.));
#220 = CARTESIAN_POINT('', (51.6654762208439, -8.33452377915607, 0.));
#221 = CARTESIAN_POINT('', (51.6654762208439, 38.3345237791561, 0.));
#222 = ADVANCED_FACE('', (#223), #237, .T.);
#223 = FACE_OUTER_BOUND('', #224, .T.);
#224 = EDGE_LOOP('', (#225, #230, #231, #236));
#225 = ORIENTED_EDGE('', *, *, #226, .F.);
#226 = EDGE_CURVE('', #191, #155, #227, .T.);
#227 = B_SPLINE_CURVE_WITH_KNOTS('', 1, (#228, #229), .UNSPECIFIED., .F., .U., (2, 2), (0., 1.), .UNSPECIFIED.);
#228 = CARTESIAN_POINT('', (60., 30., 0.));
#229 = CARTESIAN_POINT('', (60., 30., 30.));
#230 = ORIENTED_EDGE('', *, *, #190, .T.);
#231 = ORIENTED_EDGE('', *, *, #232, .T.);
#232 = EDGE_CURVE('', #193, #157, #233, .T.);
#233 = B_SPLINE_CURVE_WITH_KNOTS('', 1, (#234, #235), .UNSPECIFIED., .F., .U., (2, 2), (0., 1.), .UNSPECIFIED.);
#234 = CARTESIAN_POINT('', (60., 0., 0.));
#235 = CARTESIAN_POINT('', (60., 0., 30.));
#236 = ORIENTED_EDGE('', *, *, #154, .F.);
#237 = B_SPLINE_SURFACE_WITH_KNOTS('', 1, 1, ((#238, #239), (#240, #241)), .UNSPECIFIED., .F., .F., .U., (2, 2), (2, 2), (0., 1.), (0., 1.), .UNSPECIFIED.);
#238 = CARTESIAN_POINT('', (60., 30., 0.));
#239 = CARTESIAN_POINT('', (60., 30., 30.));
#240 = CARTESIAN_POINT('', (60., 0., 0.));
#241 = CARTESIAN_POINT('', (60., 0., 30.));
#242 = ADVANCED_FACE('', (#243), #253, .T.);
#243 = FACE_OUTER_BOUND('', #244, .T.);
#244 = EDGE_LOOP('', (#245, #246, #247, #252));
#245 = ORIENTED_EDGE('', *, *, #232, .F.);
#246 = ORIENTED_EDGE('', *, *, #213, .T.);
#247 = ORIENTED_EDGE('', *, *, #248, .T.);
#248 = EDGE_CURVE('', #207, #164, #249, .T.);
#249 = B_SPLINE_CURVE_WITH_KNOTS('', 1, (#250, #251), .UNSPECIFIED., .F., .U., (2, 2), (0., 1.), .UNSPECIFIED.);
#250 = CARTESIAN_POINT('', (90., 0., 0.));
#251 = CARTESIAN_POINT('', (90., 0., 30.));
#252 = ORIENTED_EDGE('', *, *, #163, .F.);
#253 = B_SPLINE_SURFACE_WITH_KNOTS('', 1, 1, ((#254, #255), (#256, #257)), .UNSPECIFIED., .F., .F., .U., (2, 2), (2, 2), (0., 1.), (0., 1.), .UNSPECIFIED.);
#254 = CARTESIAN_POINT('', (60., 0., 0.));
#255 = CARTESIAN_POINT('', (60., 0., 30.));
#256 = CARTESIAN_POINT('', (90., 0., 0.));
#257 = CARTESIAN_POINT('', (90., 0., 30.));
#258 = ADVANCED_FACE('', (#259), #269, .T.);
#259 = FACE_OUTER_BOUND('', #260, .T.);
#260 = EDGE_LOOP('', (#261, #266, #267, #268));
#261 = ORIENTED_EDGE('', *, *, #262, .F.);
#262 = EDGE_CURVE('', #200, #171, #263, .T.);
#263 = B_SPLINE_CURVE_WITH_KNOTS('', 1, (#264, #265), .UNSPECIFIED., .F., .U., (2, 2), (0., 1.), .UNSPECIFIED.);
#264 = CARTESIAN_POINT('', (90., 30., 0.));
#265 = CARTESIAN_POINT('', (90., 30., 30.));
#266 = ORIENTED_EDGE('', *, *, #199, .T.);
#267 = ORIENTED_EDGE('', *, *, #226, .T.);
#268 = ORIENTED_EDGE('', *, *, #177, .F.);
#269 = B_SPLINE_SURFACE_WITH_KNOTS('', 1, 1, ((#270, #271), (#272, #273)), .UNSPECIFIED., .F., .F., .U., (2, 2), (2, 2), (0., 1.), (0., 1.), .UNSPECIFIED.);
#270 = CARTESIAN_POINT('', (90., 30., 0.));
#271 = CARTESIAN_POINT('', (90., 30., 30.));
#272 = CARTESIAN_POINT('', (60., 30., 0.));
#273 = CARTESIAN_POINT('', (60., 30., 30.));
#274 = ADVANCED_FACE('', (#275), #281, .T.);
#275 = FACE_OUTER_BOUND('', #276, .T.);
#276 = EDGE_LOOP('', (#277, #278, #279, #280));
#277 = ORIENTED_EDGE('', *, *, #248, .F.);
#278 = ORIENTED_EDGE('', *, *, #206, .T.);
#279 = ORIENTED_EDGE('', *, *, #262, .T.);
#280 = ORIENTED_EDGE('', *, *, #170, .F.);
#281 = B_SPLINE_SURFACE_WITH_KNOTS('', 1, 1, ((#282, #283), (#284, #285)), .UNSPECIFIED., .F., .F., .U., (2, 2), (2, 2), (0., 1.), (0., 1.), .UNSPECIFIED.);
#282 = CARTESIAN_POINT('', (90., 0., 0.));
#283 = CARTESIAN_POINT('', (90., 0., 30.));
#284 = CARTESIAN_POINT('', (90., 30., 0.));
#285 = CARTESIAN_POINT('', (90., 30., 30.));
#286 = PRESENTATION_STYLE_ASSIGNMENT((#287));
#287 = SURFACE_STYLE_USAGE(.POSITIVE., #288);
#288 = SURFACE_SIDE_STYLE('', (#289));
#289 = SURFACE_STYLE_FILL_AREA(#290);
#290 = FILL_AREA_STYLE('', (#291));
#291 = FILL_AREA_STYLE_COLOUR('', #292);
#292 = COLOUR_RGB('', 0.50196078431373, 0.50196078431373, 0.50196078431373);
#293 = STYLED_ITEM('', (#286), #148);
#294 = MANIFOLD_SOLID_BREP('LinearPattern_2', #295);
#295 = CLOSED_SHELL('', (#296, #332, #368, #388, #404, #420));
#296 = ADVANCED_FACE('', (#297), #327, .T.);
#297 = FACE_OUTER_BOUND('', #298, .T.);
#298 = EDGE_LOOP('', (#299, #308, #315, #322));
#299 = ORIENTED_EDGE('', *, *, #300, .T.);
#300 = EDGE_CURVE('', #301, #303, #305, .T.);
#301 = VERTEX_POINT('', #302);
#302 = CARTESIAN_POINT('', (120., 30., 30.));
#303 = VERTEX_POINT('', #304);
#304 = CARTESIAN_POINT('', (120., 0., 30.));
#305 = B_SPLINE_CURVE_WITH_KNOTS('', 1, (#306, #307), .UNSPECIFIED., .F., .U., (2, 2), (0., 1.), .UNSPECIFIED.);
#306 = CARTESIAN_POINT('', (120., 30., 30.));
#307 = CARTESIAN_POINT('', (120., 0., 30.));
#308 = ORIENTED_EDGE('', *, *, #309, .T.);
#309 = EDGE_CURVE('', #303, #310, #312, .T.);
#310 = VERTEX_POINT('', #311);
#311 = CARTESIAN_POINT('', (150., 0., 30.));
#312 = B_SPLINE_CURVE_WITH_KNOTS('', 1, (#313, #314), .UNSPECIFIED., .F., .U., (2, 2), (0., 1.), .UNSPECIFIED.);
#313 = CARTESIAN_POINT('', (120., 0., 30.));
#314 = CARTESIAN_POINT('', (150., 0., 30.));
#315 = ORIENTED_EDGE('', *, *, #316, .T.);
#316 = EDGE_CURVE('', #310, #317, #319, .T.);
#317 = VERTEX_POINT('', #318);
#318 = CARTESIAN_POINT('', (150., 30., 30.));
#319 = B_SPLINE_CURVE_WITH_KNOTS('', 1, (#320, #321), .UNSPECIFIED., .F., .U., (2, 2), (0., 1.), .UNSPECIFIED.);
#320 = CARTESIAN_POINT('', (150., 0., 30.));
#321 = CARTESIAN_POINT('', (150., 30., 30.));
#322 = ORIENTED_EDGE('', *, *, #323, .T.);
#323 = EDGE_CURVE('', #317, #301, #324, .T.);
#324 = B_SPLINE_CURVE_WITH_KNOTS('', 1, (#325, #326), .UNSPECIFIED., .F., .U., (2, 2), (0., 1.), .UNSPECIFIED.);
#325 = CARTESIAN_POINT('', (150., 30., 30.));
#326 = CARTESIAN_POINT('', (120., 30., 30.));
#327 = B_SPLINE_SURFACE_WITH_KNOTS('', 1, 1, ((#328, #329), (#330, #331)), .UNSPECIFIED., .F., .F., .U., (2, 2), (2, 2), (0., 1.), (0., 1.), .UNSPECIFIED.);
#328 = CARTESIAN_POINT('', (158.334523779156, -8.33452377915607, 30.));
#329 = CARTESIAN_POINT('', (111.665476220844, -8.33452377915607, 30.));
#330 = CARTESIAN_POINT('', (158.334523779156, 38.3345237791561, 30.));
#331 = CARTESIAN_POINT('', (111.665476220844, 38.3345237791561, 30.));
#332 = ADVANCED_FACE('', (#333), #363, .T.);
#333 = FACE_OUTER_BOUND('', #334, .T.);
#334 = EDGE_LOOP('', (#335, #344, #351, #358));
#335 = ORIENTED_EDGE('', *, *, #336, .F.);
#336 = EDGE_CURVE('', #337, #339, #341, .T.);
#337 = VERTEX_POINT('', #338);
#338 = CARTESIAN_POINT('', (120., 30., 0.));
#339 = VERTEX_POINT('', #340);
#340 = CARTESIAN_POINT('', (120., 0., 0.));
#341 = B_SPLINE_CURVE_WITH_KNOTS('', 1, (#342, #343), .UNSPECIFIED., .F., .U., (2, 2), (0., 1.), .UNSPECIFIED.);
#342 = CARTESIAN_POINT('', (120., 30., 0.));
#343 = CARTESIAN_POINT('', (120., 0., 0.));
#344 = ORIENTED_EDGE('', *, *, #345, .F.);
#345 = EDGE_CURVE('', #346, #337, #348, .T.);
#346 = VERTEX_POINT('', #347);
#347 = CARTESIAN_POINT('', (150., 30., 0.));
#348 = B_SPLINE_CURVE_WITH_KNOTS('', 1, (#349, #350), .UNSPECIFIED., .F., .U., (2, 2), (0., 1.), .UNSPECIFIED.);
#349 = CARTESIAN_POINT('', (150., 30., 0.));
#350 = CARTESIAN_POINT('', (120., 30., 0.));
#351 = ORIENTED_EDGE('', *, *, #352, .F.);
#352 = EDGE_CURVE('', #353, #346, #355, .T.);
#353 = VERTEX_POINT('', #354);
#354 = CARTESIAN_POINT('', (150., 0., 0.));
#355 = B_SPLINE_CURVE_WITH_KNOTS('', 1, (#356, #357), .UNSPECIFIED., .F., .U., (2, 2), (0., 1.), .UNSPECIFIED.);
#356 = CARTESIAN_POINT('', (150., 0., 0.));
#357 = CARTESIAN_POINT('', (150., 30., 0.));
#358 = ORIENTED_EDGE('', *, *, #359, .F.);
#359 = EDGE_CURVE('', #339, #353, #360, .T.);
#360 = B_SPLINE_CURVE_WITH_KNOTS('', 1, (#361, #362), .UNSPECIFIED., .F., .U., (2, 2), (0., 1.), .UNSPECIFIED.);
#361 = CARTESIAN_POINT('', (120., 0., 0.));
#362 = CARTESIAN_POINT('', (150., 0., 0.));
#363 = B_SPLINE_SURFACE_WITH_KNOTS('', 1, 1, ((#364, #365), (#366, #367)), .UNSPECIFIED., .F., .F., .U., (2, 2), (2, 2), (0., 1.), (0., 1.), .UNSPECIFIED.);
#364 = CARTESIAN_POINT('', (158.334523779156, -8.33452377915607, 0.));
#365 = CARTESIAN_POINT('', (158.334523779156, 38.3345237791561, 0.));
#366 = CARTESIAN_POINT('', (111.665476220844, -8.33452377915607, 0.));
#367 = CARTESIAN_POINT('', (111.665476220844, 38.3345237791561, 0.));
#368 = ADVANCED_FACE('', (#369), #383, .T.);
#369 = FACE_OUTER_BOUND('', #370, .T.);
#370 = EDGE_LOOP('', (#371, #376, #377, #382));
#371 = ORIENTED_EDGE('', *, *, #372, .F.);
#372 = EDGE_CURVE('', #337, #301, #373, .T.);
#373 = B_SPLINE_CURVE_WITH_KNOTS('', 1, (#374, #375), .UNSPECIFIED., .F., .U., (2, 2), (0., 1.), .UNSPECIFIED.);
#374 = CARTESIAN_POINT('', (120., 30., 0.));
#375 = CARTESIAN_POINT('', (120., 30., 30.));
#376 = ORIENTED_EDGE('', *, *, #336, .T.);
#377 = ORIENTED_EDGE('', *, *, #378, .T.);
#378 = EDGE_CURVE('', #339, #303, #379, .T.);
#379 = B_SPLINE_CURVE_WITH_KNOTS('', 1, (#380, #381), .UNSPECIFIED., .F., .U., (2, 2), (0., 1.), .UNSPECIFIED.);
#380 = CARTESIAN_POINT('', (120., 0., 0.));
#381 = CARTESIAN_POINT('', (120., 0., 30.));
#382 = ORIENTED_EDGE('', *, *, #300, .F.);
#383 = B_SPLINE_SURFACE_WITH_KNOTS('', 1, 1, ((#384, #385), (#386, #387)), .UNSPECIFIED., .F., .F., .U., (2, 2), (2, 2), (0., 1.), (0., 1.), .UNSPECIFIED.);
#384 = CARTESIAN_POINT('', (120., 30., 0.));
#385 = CARTESIAN_POINT('', (120., 30., 30.));
#386 = CARTESIAN_POINT('', (120., 0., 0.));
#387 = CARTESIAN_POINT('', (120., 0., 30.));
#388 = ADVANCED_FACE('', (#389), #399, .T.);
#389 = FACE_OUTER_BOUND('', #390, .T.);
#390 = EDGE_LOOP('', (#391, #392, #393, #398));
#391 = ORIENTED_EDGE('', *, *, #378, .F.);
#392 = ORIENTED_EDGE('', *, *, #359, .T.);
#393 = ORIENTED_EDGE('', *, *, #394, .T.);
#394 = EDGE_CURVE('', #353, #310, #395, .T.);
#395 = B_SPLINE_CURVE_WITH_KNOTS('', 1, (#396, #397), .UNSPECIFIED., .F., .U., (2, 2), (0., 1.), .UNSPECIFIED.);
#396 = CARTESIAN_POINT('', (150., 0., 0.));
#397 = CARTESIAN_POINT('', (150., 0., 30.));
#398 = ORIENTED_EDGE('', *, *, #309, .F.);
#399 = B_SPLINE_SURFACE_WITH_KNOTS('', 1, 1, ((#400, #401), (#402, #403)), .UNSPECIFIED., .F., .F., .U., (2, 2), (2, 2), (0., 1.), (0., 1.), .UNSPECIFIED.);
#400 = CARTESIAN_POINT('', (120., 0., 0.));
#401 = CARTESIAN_POINT('', (120., 0., 30.));
#402 = CARTESIAN_POINT('', (150., 0., 0.));
#403 = CARTESIAN_POINT('', (150., 0., 30.));
#404 = ADVANCED_FACE('', (#405), #415, .T.);
#405 = FACE_OUTER_BOUND('', #406, .T.);
#406 = EDGE_LOOP('', (#407, #412, #413, #414));
#407 = ORIENTED_EDGE('', *, *, #408, .F.);
#408 = EDGE_CURVE('', #346, #317, #409, .T.);
#409 = B_SPLINE_CURVE_WITH_KNOTS('', 1, (#410, #411), .UNSPECIFIED., .F., .U., (2, 2), (0., 1.), .UNSPECIFIED.);
#410 = CARTESIAN_POINT('', (150., 30., 0.));
#411 = CARTESIAN_POINT('', (150., 30., 30.));
#412 = ORIENTED_EDGE('', *, *, #345, .T.);
#413 = ORIENTED_EDGE('', *, *, #372, .T.);
#414 = ORIENTED_EDGE('', *, *, #323, .F.);
#415 = B_SPLINE_SURFACE_WITH_KNOTS('', 1, 1, ((#416, #417), (#418, #419)), .UNSPECIFIED., .F., .F., .U., (2, 2), (2, 2), (0., 1.), (0., 1.), .UNSPECIFIED.);
#416 = CARTESIAN_POINT('', (150., 30., 0.));
#417 = CARTESIAN_POINT('', (150., 30., 30.));
#418 = CARTESIAN_POINT('', (120., 30., 0.));
#419 = CARTESIAN_POINT('', (120., 30., 30.));
#420 = ADVANCED_FACE('', (#421), #427, .T.);
#421 = FACE_OUTER_BOUND('', #422, .T.);
#422 = EDGE_LOOP('', (#423, #424, #425, #426));
#423 = ORIENTED_EDGE('', *, *, #394, .F.);
#424 = ORIENTED_EDGE('', *, *, #352, .T.);
#425 = ORIENTED_EDGE('', *, *, #408, .T.);
#426 = ORIENTED_EDGE('', *, *, #316, .F.);
#427 = B_SPLINE_SURFACE_WITH_KNOTS('', 1, 1, ((#428, #429), (#430, #431)), .UNSPECIFIED., .F., .F., .U., (2, 2), (2, 2), (0., 1.), (0., 1.), .UNSPECIFIED.);
#428 = CARTESIAN_POINT('', (150., 0., 0.));
#429 = CARTESIAN_POINT('', (150., 0., 30.));
#430 = CARTESIAN_POINT('', (150., 30., 0.));
#431 = CARTESIAN_POINT('', (150., 30., 30.));
#432 = PRESENTATION_STYLE_ASSIGNMENT((#433));
#433 = SURFACE_STYLE_USAGE(.POSITIVE., #434);
#434 = SURFACE_SIDE_STYLE('', (#435));
#435 = SURFACE_STYLE_FILL_AREA(#436);
#436 = FILL_AREA_STYLE('', (#437));
#437 = FILL_AREA_STYLE_COLOUR('', #438);
#438 = COLOUR_RGB('', 0.50196078431373, 0.50196078431373, 0.50196078431373);
#439 = STYLED_ITEM('', (#432), #294);
#440 = CARTESIAN_POINT('Origin', (0., 0., 0.));
#441 = GEOMETRIC_SET('', (#440));
#442 = (
   GEOMETRIC_REPRESENTATION_CONTEXT (3)
   GLOBAL_UNCERTAINTY_ASSIGNED_CONTEXT ((#444))
   GLOBAL_UNIT_ASSIGNED_CONTEXT ((#443, #445, #446))
   REPRESENTATION_CONTEXT ('', '3D')
);
#443 = (
   LENGTH_UNIT ()
   NAMED_UNIT (*)
   SI_UNIT (.MILLI., .METRE.)
);
#444 = UNCERTAINTY_MEASURE_WITH_UNIT(LENGTH_MEASURE(1.E-6), #443, 'DISTANCE_ACCURACY_VALUE', '');
#445 = (
   NAMED_UNIT (*)
   SI_UNIT ($, .STERADIAN.)
   SOLID_ANGLE_UNIT ()
);
#446 = (
   NAMED_UNIT (*)
   PLANE_ANGLE_UNIT ()
   SI_UNIT ($, .RADIAN.)
);
#447 = SHAPE_REPRESENTATION('', (#462), #442);
#448 = PRODUCT_DEFINITION_SHAPE('', '', #449);
#449 = PRODUCT_DEFINITION('', '', #452, #456);
#450 = APPLICATION_CONTEXT('configuration controlled 3D designs of mechanical parts and assemblies');
#451 = APPLICATION_PROTOCOL_DEFINITION('International Standard', 'automotive_design', 2002, #450);
#452 = PRODUCT_DEFINITION_FORMATION_WITH_SPECIFIED_SOURCE('', '', #453, .NOT_KNOWN.);
#453 = PRODUCT('TgtIdx', 'TgtIdx', '', (#454));
#454 = PRODUCT_CONTEXT('', #450, 'mechanical');
#455 = PRODUCT_RELATED_PRODUCT_CATEGORY('detail', '', (#453));
#456 = PRODUCT_DEFINITION_CONTEXT('part definition', #450, 'design');
#457 = SHAPE_DEFINITION_REPRESENTATION(#448, #447);
#458 = SHAPE_REPRESENTATION_RELATIONSHIP('', '', #447, #459);
#459 = SHAPE_REPRESENTATION('', (#441), #442);
#460 = SHAPE_REPRESENTATION_RELATIONSHIP('', '', #447, #461);
#461 = ADVANCED_BREP_SHAPE_REPRESENTATION('', (#1, #148, #294), #442);
#462 = AXIS2_PLACEMENT_3D('', #463, #464, #465);
#463 = CARTESIAN_POINT('', (0., 0., 0.));
#464 = DIRECTION('', (0., 0., 1.));
#465 = DIRECTION('', (1., 0., 0.));
ENDSEC;
END-ISO-10303-21;
