ISO-10303-21;
HEADER;
FILE_DESCRIPTION(('STEP'), '1');
FILE_NAME('TgtIdx', '2026-03-20T13:46:30', (''), (''), 'Express 3.1.2.0', 'Express Tool', 'Unknown');
FILE_SCHEMA(('AUTOMOTIVE_DESIGN'));
ENDSEC;

DATA;
#1 = MANIFOLD_SOLID_BREP('LinearPattern_1', #2);
#2 = CLOSED_SHELL('', (#3, #39, #75, #95, #111, #127));
#3 = ADVANCED_FACE('', (#4), #34, .T.);
#4 = FACE_OUTER_BOUND('', #5, .T.);
#5 = EDGE_LOOP('', (#6, #15, #22, #29));
#6 = ORIENTED_EDGE('', *, *, #7, .T.);
#7 = EDGE_CURVE('', #8, #10, #12, .T.);
#8 = VERTEX_POINT('', #9);
#9 = CARTESIAN_POINT('', (60., 30., 30.));
#10 = VERTEX_POINT('', #11);
#11 = CARTESIAN_POINT('', (60., 0., 30.));
#12 = B_SPLINE_CURVE_WITH_KNOTS('', 1, (#13, #14), .UNSPECIFIED., .F., .U., (2, 2), (0., 1.), .UNSPECIFIED.);
#13 = CARTESIAN_POINT('', (60., 30., 30.));
#14 = CARTESIAN_POINT('', (60., 0., 30.));
#15 = ORIENTED_EDGE('', *, *, #16, .T.);
#16 = EDGE_CURVE('', #10, #17, #19, .T.);
#17 = VERTEX_POINT('', #18);
#18 = CARTESIAN_POINT('', (90., 0., 30.));
#19 = B_SPLINE_CURVE_WITH_KNOTS('', 1, (#20, #21), .UNSPECIFIED., .F., .U., (2, 2), (0., 1.), .UNSPECIFIED.);
#20 = CARTESIAN_POINT('', (60., 0., 30.));
#21 = CARTESIAN_POINT('', (90., 0., 30.));
#22 = ORIENTED_EDGE('', *, *, #23, .T.);
#23 = EDGE_CURVE('', #17, #24, #26, .T.);
#24 = VERTEX_POINT('', #25);
#25 = CARTESIAN_POINT('', (90., 30., 30.));
#26 = B_SPLINE_CURVE_WITH_KNOTS('', 1, (#27, #28), .UNSPECIFIED., .F., .U., (2, 2), (0., 1.), .UNSPECIFIED.);
#27 = CARTESIAN_POINT('', (90., 0., 30.));
#28 = CARTESIAN_POINT('', (90., 30., 30.));
#29 = ORIENTED_EDGE('', *, *, #30, .T.);
#30 = EDGE_CURVE('', #24, #8, #31, .T.);
#31 = B_SPLINE_CURVE_WITH_KNOTS('', 1, (#32, #33), .UNSPECIFIED., .F., .U., (2, 2), (0., 1.), .UNSPECIFIED.);
#32 = CARTESIAN_POINT('', (90., 30., 30.));
#33 = CARTESIAN_POINT('', (60., 30., 30.));
#34 = B_SPLINE_SURFACE_WITH_KNOTS('', 1, 1, ((#35, #36), (#37, #38)), .UNSPECIFIED., .F., .F., .U., (2, 2), (2, 2), (0., 1.), (0., 1.), .UNSPECIFIED.);
#35 = CARTESIAN_POINT('', (98.3345237791561, -8.33452377915607, 30.));
#36 = CARTESIAN_POINT('', (51.6654762208439, -8.33452377915607, 30.));
#37 = CARTESIAN_POINT('', (98.3345237791561, 38.3345237791561, 30.));
#38 = CARTESIAN_POINT('', (51.6654762208439, 38.3345237791561, 30.));
#39 = ADVANCED_FACE('', (#40), #70, .T.);
#40 = FACE_OUTER_BOUND('', #41, .T.);
#41 = EDGE_LOOP('', (#42, #51, #58, #65));
#42 = ORIENTED_EDGE('', *, *, #43, .F.);
#43 = EDGE_CURVE('', #44, #46, #48, .T.);
#44 = VERTEX_POINT('', #45);
#45 = CARTESIAN_POINT('', (60., 30., 0.));
#46 = VERTEX_POINT('', #47);
#47 = CARTESIAN_POINT('', (60., 0., 0.));
#48 = B_SPLINE_CURVE_WITH_KNOTS('', 1, (#49, #50), .UNSPECIFIED., .F., .U., (2, 2), (0., 1.), .UNSPECIFIED.);
#49 = CARTESIAN_POINT('', (60., 30., 0.));
#50 = CARTESIAN_POINT('', (60., 0., 0.));
#51 = ORIENTED_EDGE('', *, *, #52, .F.);
#52 = EDGE_CURVE('', #53, #44, #55, .T.);
#53 = VERTEX_POINT('', #54);
#54 = CARTESIAN_POINT('', (90., 30., 0.));
#55 = B_SPLINE_CURVE_WITH_KNOTS('', 1, (#56, #57), .UNSPECIFIED., .F., .U., (2, 2), (0., 1.), .UNSPECIFIED.);
#56 = CARTESIAN_POINT('', (90., 30., 0.));
#57 = CARTESIAN_POINT('', (60., 30., 0.));
#58 = ORIENTED_EDGE('', *, *, #59, .F.);
#59 = EDGE_CURVE('', #60, #53, #62, .T.);
#60 = VERTEX_POINT('', #61);
#61 = CARTESIAN_POINT('', (90., 0., 0.));
#62 = B_SPLINE_CURVE_WITH_KNOTS('', 1, (#63, #64), .UNSPECIFIED., .F., .U., (2, 2), (0., 1.), .UNSPECIFIED.);
#63 = CARTESIAN_POINT('', (90., 0., 0.));
#64 = CARTESIAN_POINT('', (90., 30., 0.));
#65 = ORIENTED_EDGE('', *, *, #66, .F.);
#66 = EDGE_CURVE('', #46, #60, #67, .T.);
#67 = B_SPLINE_CURVE_WITH_KNOTS('', 1, (#68, #69), .UNSPECIFIED., .F., .U., (2, 2), (0., 1.), .UNSPECIFIED.);
#68 = CARTESIAN_POINT('', (60., 0., 0.));
#69 = CARTESIAN_POINT('', (90., 0., 0.));
#70 = B_SPLINE_SURFACE_WITH_KNOTS('', 1, 1, ((#71, #72), (#73, #74)), .UNSPECIFIED., .F., .F., .U., (2, 2), (2, 2), (0., 1.), (0., 1.), .UNSPECIFIED.);
#71 = CARTESIAN_POINT('', (98.3345237791561, -8.33452377915607, 0.));
#72 = CARTESIAN_POINT('', (98.3345237791561, 38.3345237791561, 0.));
#73 = CARTESIAN_POINT('', (51.6654762208439, -8.33452377915607, 0.));
#74 = CARTESIAN_POINT('', (51.6654762208439, 38.3345237791561, 0.));
#75 = ADVANCED_FACE('', (#76), #90, .T.);
#76 = FACE_OUTER_BOUND('', #77, .T.);
#77 = EDGE_LOOP('', (#78, #83, #84, #89));
#78 = ORIENTED_EDGE('', *, *, #79, .F.);
#79 = EDGE_CURVE('', #44, #8, #80, .T.);
#80 = B_SPLINE_CURVE_WITH_KNOTS('', 1, (#81, #82), .UNSPECIFIED., .F., .U., (2, 2), (0., 1.), .UNSPECIFIED.);
#81 = CARTESIAN_POINT('', (60., 30., 0.));
#82 = CARTESIAN_POINT('', (60., 30., 30.));
#83 = ORIENTED_EDGE('', *, *, #43, .T.);
#84 = ORIENTED_EDGE('', *, *, #85, .T.);
#85 = EDGE_CURVE('', #46, #10, #86, .T.);
#86 = B_SPLINE_CURVE_WITH_KNOTS('', 1, (#87, #88), .UNSPECIFIED., .F., .U., (2, 2), (0., 1.), .UNSPECIFIED.);
#87 = CARTESIAN_POINT('', (60., 0., 0.));
#88 = CARTESIAN_POINT('', (60., 0., 30.));
#89 = ORIENTED_EDGE('', *, *, #7, .F.);
#90 = B_SPLINE_SURFACE_WITH_KNOTS('', 1, 1, ((#91, #92), (#93, #94)), .UNSPECIFIED., .F., .F., .U., (2, 2), (2, 2), (0., 1.), (0., 1.), .UNSPECIFIED.);
#91 = CARTESIAN_POINT('', (60., 30., 0.));
#92 = CARTESIAN_POINT('', (60., 30., 30.));
#93 = CARTESIAN_POINT('', (60., 0., 0.));
#94 = CARTESIAN_POINT('', (60., 0., 30.));
#95 = ADVANCED_FACE('', (#96), #106, .T.);
#96 = FACE_OUTER_BOUND('', #97, .T.);
#97 = EDGE_LOOP('', (#98, #99, #100, #105));
#98 = ORIENTED_EDGE('', *, *, #85, .F.);
#99 = ORIENTED_EDGE('', *, *, #66, .T.);
#100 = ORIENTED_EDGE('', *, *, #101, .T.);
#101 = EDGE_CURVE('', #60, #17, #102, .T.);
#102 = B_SPLINE_CURVE_WITH_KNOTS('', 1, (#103, #104), .UNSPECIFIED., .F., .U., (2, 2), (0., 1.), .UNSPECIFIED.);
#103 = CARTESIAN_POINT('', (90., 0., 0.));
#104 = CARTESIAN_POINT('', (90., 0., 30.));
#105 = ORIENTED_EDGE('', *, *, #16, .F.);
#106 = B_SPLINE_SURFACE_WITH_KNOTS('', 1, 1, ((#107, #108), (#109, #110)), .UNSPECIFIED., .F., .F., .U., (2, 2), (2, 2), (0., 1.), (0., 1.), .UNSPECIFIED.);
#107 = CARTESIAN_POINT('', (60., 0., 0.));
#108 = CARTESIAN_POINT('', (60., 0., 30.));
#109 = CARTESIAN_POINT('', (90., 0., 0.));
#110 = CARTESIAN_POINT('', (90., 0., 30.));
#111 = ADVANCED_FACE('', (#112), #122, .T.);
#112 = FACE_OUTER_BOUND('', #113, .T.);
#113 = EDGE_LOOP('', (#114, #119, #120, #121));
#114 = ORIENTED_EDGE('', *, *, #115, .F.);
#115 = EDGE_CURVE('', #53, #24, #116, .T.);
#116 = B_SPLINE_CURVE_WITH_KNOTS('', 1, (#117, #118), .UNSPECIFIED., .F., .U., (2, 2), (0., 1.), .UNSPECIFIED.);
#117 = CARTESIAN_POINT('', (90., 30., 0.));
#118 = CARTESIAN_POINT('', (90., 30., 30.));
#119 = ORIENTED_EDGE('', *, *, #52, .T.);
#120 = ORIENTED_EDGE('', *, *, #79, .T.);
#121 = ORIENTED_EDGE('', *, *, #30, .F.);
#122 = B_SPLINE_SURFACE_WITH_KNOTS('', 1, 1, ((#123, #124), (#125, #126)), .UNSPECIFIED., .F., .F., .U., (2, 2), (2, 2), (0., 1.), (0., 1.), .UNSPECIFIED.);
#123 = CARTESIAN_POINT('', (90., 30., 0.));
#124 = CARTESIAN_POINT('', (90., 30., 30.));
#125 = CARTESIAN_POINT('', (60., 30., 0.));
#126 = CARTESIAN_POINT('', (60., 30., 30.));
#127 = ADVANCED_FACE('', (#128), #134, .T.);
#128 = FACE_OUTER_BOUND('', #129, .T.);
#129 = EDGE_LOOP('', (#130, #131, #132, #133));
#130 = ORIENTED_EDGE('', *, *, #101, .F.);
#131 = ORIENTED_EDGE('', *, *, #59, .T.);
#132 = ORIENTED_EDGE('', *, *, #115, .T.);
#133 = ORIENTED_EDGE('', *, *, #23, .F.);
#134 = B_SPLINE_SURFACE_WITH_KNOTS('', 1, 1, ((#135, #136), (#137, #138)), .UNSPECIFIED., .F., .F., .U., (2, 2), (2, 2), (0., 1.), (0., 1.), .UNSPECIFIED.);
#135 = CARTESIAN_POINT('', (90., 0., 0.));
#136 = CARTESIAN_POINT('', (90., 0., 30.));
#137 = CARTESIAN_POINT('', (90., 30., 0.));
#138 = CARTESIAN_POINT('', (90., 30., 30.));
#139 = DRAUGHTING_MODEL('', (#147, #293, #563), #566);
#140 = PRESENTATION_STYLE_ASSIGNMENT((#141));
#141 = SURFACE_STYLE_USAGE(.POSITIVE., #142);
#142 = SURFACE_SIDE_STYLE('', (#143));
#143 = SURFACE_STYLE_FILL_AREA(#144);
#144 = FILL_AREA_STYLE('', (#145));
#145 = FILL_AREA_STYLE_COLOUR('', #146);
#146 = COLOUR_RGB('', 0.50196078431373, 0.50196078431373, 0.50196078431373);
#147 = STYLED_ITEM('', (#140), #1);
#148 = MANIFOLD_SOLID_BREP('LinearPattern_2', #149);
#149 = CLOSED_SHELL('', (#150, #186, #222, #242, #258, #274));
#150 = ADVANCED_FACE('', (#151), #181, .T.);
#151 = FACE_OUTER_BOUND('', #152, .T.);
#152 = EDGE_LOOP('', (#153, #162, #169, #176));
#153 = ORIENTED_EDGE('', *, *, #154, .T.);
#154 = EDGE_CURVE('', #155, #157, #159, .T.);
#155 = VERTEX_POINT('', #156);
#156 = CARTESIAN_POINT('', (120., 30., 30.));
#157 = VERTEX_POINT('', #158);
#158 = CARTESIAN_POINT('', (120., 0., 30.));
#159 = B_SPLINE_CURVE_WITH_KNOTS('', 1, (#160, #161), .UNSPECIFIED., .F., .U., (2, 2), (0., 1.), .UNSPECIFIED.);
#160 = CARTESIAN_POINT('', (120., 30., 30.));
#161 = CARTESIAN_POINT('', (120., 0., 30.));
#162 = ORIENTED_EDGE('', *, *, #163, .T.);
#163 = EDGE_CURVE('', #157, #164, #166, .T.);
#164 = VERTEX_POINT('', #165);
#165 = CARTESIAN_POINT('', (150., 0., 30.));
#166 = B_SPLINE_CURVE_WITH_KNOTS('', 1, (#167, #168), .UNSPECIFIED., .F., .U., (2, 2), (0., 1.), .UNSPECIFIED.);
#167 = CARTESIAN_POINT('', (120., 0., 30.));
#168 = CARTESIAN_POINT('', (150., 0., 30.));
#169 = ORIENTED_EDGE('', *, *, #170, .T.);
#170 = EDGE_CURVE('', #164, #171, #173, .T.);
#171 = VERTEX_POINT('', #172);
#172 = CARTESIAN_POINT('', (150., 30., 30.));
#173 = B_SPLINE_CURVE_WITH_KNOTS('', 1, (#174, #175), .UNSPECIFIED., .F., .U., (2, 2), (0., 1.), .UNSPECIFIED.);
#174 = CARTESIAN_POINT('', (150., 0., 30.));
#175 = CARTESIAN_POINT('', (150., 30., 30.));
#176 = ORIENTED_EDGE('', *, *, #177, .T.);
#177 = EDGE_CURVE('', #171, #155, #178, .T.);
#178 = B_SPLINE_CURVE_WITH_KNOTS('', 1, (#179, #180), .UNSPECIFIED., .F., .U., (2, 2), (0., 1.), .UNSPECIFIED.);
#179 = CARTESIAN_POINT('', (150., 30., 30.));
#180 = CARTESIAN_POINT('', (120., 30., 30.));
#181 = B_SPLINE_SURFACE_WITH_KNOTS('', 1, 1, ((#182, #183), (#184, #185)), .UNSPECIFIED., .F., .F., .U., (2, 2), (2, 2), (0., 1.), (0., 1.), .UNSPECIFIED.);
#182 = CARTESIAN_POINT('', (158.334523779156, -8.33452377915607, 30.));
#183 = CARTESIAN_POINT('', (111.665476220844, -8.33452377915607, 30.));
#184 = CARTESIAN_POINT('', (158.334523779156, 38.3345237791561, 30.));
#185 = CARTESIAN_POINT('', (111.665476220844, 38.3345237791561, 30.));
#186 = ADVANCED_FACE('', (#187), #217, .T.);
#187 = FACE_OUTER_BOUND('', #188, .T.);
#188 = EDGE_LOOP('', (#189, #198, #205, #212));
#189 = ORIENTED_EDGE('', *, *, #190, .F.);
#190 = EDGE_CURVE('', #191, #193, #195, .T.);
#191 = VERTEX_POINT('', #192);
#192 = CARTESIAN_POINT('', (120., 30., 0.));
#193 = VERTEX_POINT('', #194);
#194 = CARTESIAN_POINT('', (120., 0., 0.));
#195 = B_SPLINE_CURVE_WITH_KNOTS('', 1, (#196, #197), .UNSPECIFIED., .F., .U., (2, 2), (0., 1.), .UNSPECIFIED.);
#196 = CARTESIAN_POINT('', (120., 30., 0.));
#197 = CARTESIAN_POINT('', (120., 0., 0.));
#198 = ORIENTED_EDGE('', *, *, #199, .F.);
#199 = EDGE_CURVE('', #200, #191, #202, .T.);
#200 = VERTEX_POINT('', #201);
#201 = CARTESIAN_POINT('', (150., 30., 0.));
#202 = B_SPLINE_CURVE_WITH_KNOTS('', 1, (#203, #204), .UNSPECIFIED., .F., .U., (2, 2), (0., 1.), .UNSPECIFIED.);
#203 = CARTESIAN_POINT('', (150., 30., 0.));
#204 = CARTESIAN_POINT('', (120., 30., 0.));
#205 = ORIENTED_EDGE('', *, *, #206, .F.);
#206 = EDGE_CURVE('', #207, #200, #209, .T.);
#207 = VERTEX_POINT('', #208);
#208 = CARTESIAN_POINT('', (150., 0., 0.));
#209 = B_SPLINE_CURVE_WITH_KNOTS('', 1, (#210, #211), .UNSPECIFIED., .F., .U., (2, 2), (0., 1.), .UNSPECIFIED.);
#210 = CARTESIAN_POINT('', (150., 0., 0.));
#211 = CARTESIAN_POINT('', (150., 30., 0.));
#212 = ORIENTED_EDGE('', *, *, #213, .F.);
#213 = EDGE_CURVE('', #193, #207, #214, .T.);
#214 = B_SPLINE_CURVE_WITH_KNOTS('', 1, (#215, #216), .UNSPECIFIED., .F., .U., (2, 2), (0., 1.), .UNSPECIFIED.);
#215 = CARTESIAN_POINT('', (120., 0., 0.));
#216 = CARTESIAN_POINT('', (150., 0., 0.));
#217 = B_SPLINE_SURFACE_WITH_KNOTS('', 1, 1, ((#218, #219), (#220, #221)), .UNSPECIFIED., .F., .F., .U., (2, 2), (2, 2), (0., 1.), (0., 1.), .UNSPECIFIED.);
#218 = CARTESIAN_POINT('', (158.334523779156, -8.33452377915607, 0.));
#219 = CARTESIAN_POINT('', (158.334523779156, 38.3345237791561, 0.));
#220 = CARTESIAN_POINT('', (111.665476220844, -8.33452377915607, 0.));
#221 = CARTESIAN_POINT('', (111.665476220844, 38.3345237791561, 0.));
#222 = ADVANCED_FACE('', (#223), #237, .T.);
#223 = FACE_OUTER_BOUND('', #224, .T.);
#224 = EDGE_LOOP('', (#225, #230, #231, #236));
#225 = ORIENTED_EDGE('', *, *, #226, .F.);
#226 = EDGE_CURVE('', #191, #155, #227, .T.);
#227 = B_SPLINE_CURVE_WITH_KNOTS('', 1, (#228, #229), .UNSPECIFIED., .F., .U., (2, 2), (0., 1.), .UNSPECIFIED.);
#228 = CARTESIAN_POINT('', (120., 30., 0.));
#229 = CARTESIAN_POINT('', (120., 30., 30.));
#230 = ORIENTED_EDGE('', *, *, #190, .T.);
#231 = ORIENTED_EDGE('', *, *, #232, .T.);
#232 = EDGE_CURVE('', #193, #157, #233, .T.);
#233 = B_SPLINE_CURVE_WITH_KNOTS('', 1, (#234, #235), .UNSPECIFIED., .F., .U., (2, 2), (0., 1.), .UNSPECIFIED.);
#234 = CARTESIAN_POINT('', (120., 0., 0.));
#235 = CARTESIAN_POINT('', (120., 0., 30.));
#236 = ORIENTED_EDGE('', *, *, #154, .F.);
#237 = B_SPLINE_SURFACE_WITH_KNOTS('', 1, 1, ((#238, #239), (#240, #241)), .UNSPECIFIED., .F., .F., .U., (2, 2), (2, 2), (0., 1.), (0., 1.), .UNSPECIFIED.);
#238 = CARTESIAN_POINT('', (120., 30., 0.));
#239 = CARTESIAN_POINT('', (120., 30., 30.));
#240 = CARTESIAN_POINT('', (120., 0., 0.));
#241 = CARTESIAN_POINT('', (120., 0., 30.));
#242 = ADVANCED_FACE('', (#243), #253, .T.);
#243 = FACE_OUTER_BOUND('', #244, .T.);
#244 = EDGE_LOOP('', (#245, #246, #247, #252));
#245 = ORIENTED_EDGE('', *, *, #232, .F.);
#246 = ORIENTED_EDGE('', *, *, #213, .T.);
#247 = ORIENTED_EDGE('', *, *, #248, .T.);
#248 = EDGE_CURVE('', #207, #164, #249, .T.);
#249 = B_SPLINE_CURVE_WITH_KNOTS('', 1, (#250, #251), .UNSPECIFIED., .F., .U., (2, 2), (0., 1.), .UNSPECIFIED.);
#250 = CARTESIAN_POINT('', (150., 0., 0.));
#251 = CARTESIAN_POINT('', (150., 0., 30.));
#252 = ORIENTED_EDGE('', *, *, #163, .F.);
#253 = B_SPLINE_SURFACE_WITH_KNOTS('', 1, 1, ((#254, #255), (#256, #257)), .UNSPECIFIED., .F., .F., .U., (2, 2), (2, 2), (0., 1.), (0., 1.), .UNSPECIFIED.);
#254 = CARTESIAN_POINT('', (120., 0., 0.));
#255 = CARTESIAN_POINT('', (120., 0., 30.));
#256 = CARTESIAN_POINT('', (150., 0., 0.));
#257 = CARTESIAN_POINT('', (150., 0., 30.));
#258 = ADVANCED_FACE('', (#259), #269, .T.);
#259 = FACE_OUTER_BOUND('', #260, .T.);
#260 = EDGE_LOOP('', (#261, #266, #267, #268));
#261 = ORIENTED_EDGE('', *, *, #262, .F.);
#262 = EDGE_CURVE('', #200, #171, #263, .T.);
#263 = B_SPLINE_CURVE_WITH_KNOTS('', 1, (#264, #265), .UNSPECIFIED., .F., .U., (2, 2), (0., 1.), .UNSPECIFIED.);
#264 = CARTESIAN_POINT('', (150., 30., 0.));
#265 = CARTESIAN_POINT('', (150., 30., 30.));
#266 = ORIENTED_EDGE('', *, *, #199, .T.);
#267 = ORIENTED_EDGE('', *, *, #226, .T.);
#268 = ORIENTED_EDGE('', *, *, #177, .F.);
#269 = B_SPLINE_SURFACE_WITH_KNOTS('', 1, 1, ((#270, #271), (#272, #273)), .UNSPECIFIED., .F., .F., .U., (2, 2), (2, 2), (0., 1.), (0., 1.), .UNSPECIFIED.);
#270 = CARTESIAN_POINT('', (150., 30., 0.));
#271 = CARTESIAN_POINT('', (150., 30., 30.));
#272 = CARTESIAN_POINT('', (120., 30., 0.));
#273 = CARTESIAN_POINT('', (120., 30., 30.));
#274 = ADVANCED_FACE('', (#275), #281, .T.);
#275 = FACE_OUTER_BOUND('', #276, .T.);
#276 = EDGE_LOOP('', (#277, #278, #279, #280));
#277 = ORIENTED_EDGE('', *, *, #248, .F.);
#278 = ORIENTED_EDGE('', *, *, #206, .T.);
#279 = ORIENTED_EDGE('', *, *, #262, .T.);
#280 = ORIENTED_EDGE('', *, *, #170, .F.);
#281 = B_SPLINE_SURFACE_WITH_KNOTS('', 1, 1, ((#282, #283), (#284, #285)), .UNSPECIFIED., .F., .F., .U., (2, 2), (2, 2), (0., 1.), (0., 1.), .UNSPECIFIED.);
#282 = CARTESIAN_POINT('', (150., 0., 0.));
#283 = CARTESIAN_POINT('', (150., 0., 30.));
#284 = CARTESIAN_POINT('', (150., 30., 0.));
#285 = CARTESIAN_POINT('', (150., 30., 30.));
#286 = PRESENTATION_STYLE_ASSIGNMENT((#287));
#287 = SURFACE_STYLE_USAGE(.POSITIVE., #288);
#288 = SURFACE_SIDE_STYLE('', (#289));
#289 = SURFACE_STYLE_FILL_AREA(#290);
#290 = FILL_AREA_STYLE('', (#291));
#291 = FILL_AREA_STYLE_COLOUR('', #292);
#292 = COLOUR_RGB('', 0.50196078431373, 0.50196078431373, 0.50196078431373);
#293 = STYLED_ITEM('', (#286), #148);
#294 = MANIFOLD_SOLID_BREP('Subtraction_0', #295);
#295 = CLOSED_SHELL('', (#296, #362, #428, #448, #464, #480, #492, #512, #528, #544));
#296 = ADVANCED_FACE('', (#297, #327), #357, .T.);
#297 = FACE_OUTER_BOUND('', #298, .T.);
#298 = EDGE_LOOP('', (#299, #308, #315, #322));
#299 = ORIENTED_EDGE('', *, *, #300, .T.);
#300 = EDGE_CURVE('', #301, #303, #305, .T.);
#301 = VERTEX_POINT('', #302);
#302 = CARTESIAN_POINT('', (0., 30., 30.));
#303 = VERTEX_POINT('', #304);
#304 = CARTESIAN_POINT('', (0., 0., 30.));
#305 = B_SPLINE_CURVE_WITH_KNOTS('', 1, (#306, #307), .UNSPECIFIED., .F., .U., (2, 2), (0., 1.), .UNSPECIFIED.);
#306 = CARTESIAN_POINT('', (0., 30., 30.));
#307 = CARTESIAN_POINT('', (0., 0., 30.));
#308 = ORIENTED_EDGE('', *, *, #309, .T.);
#309 = EDGE_CURVE('', #303, #310, #312, .T.);
#310 = VERTEX_POINT('', #311);
#311 = CARTESIAN_POINT('', (30., 0., 30.));
#312 = B_SPLINE_CURVE_WITH_KNOTS('', 1, (#313, #314), .UNSPECIFIED., .F., .U., (2, 2), (0., 1.), .UNSPECIFIED.);
#313 = CARTESIAN_POINT('', (0., 0., 30.));
#314 = CARTESIAN_POINT('', (30., 0., 30.));
#315 = ORIENTED_EDGE('', *, *, #316, .T.);
#316 = EDGE_CURVE('', #310, #317, #319, .T.);
#317 = VERTEX_POINT('', #318);
#318 = CARTESIAN_POINT('', (30., 30., 30.));
#319 = B_SPLINE_CURVE_WITH_KNOTS('', 1, (#320, #321), .UNSPECIFIED., .F., .U., (2, 2), (0., 1.), .UNSPECIFIED.);
#320 = CARTESIAN_POINT('', (30., 0., 30.));
#321 = CARTESIAN_POINT('', (30., 30., 30.));
#322 = ORIENTED_EDGE('', *, *, #323, .T.);
#323 = EDGE_CURVE('', #317, #301, #324, .T.);
#324 = B_SPLINE_CURVE_WITH_KNOTS('', 1, (#325, #326), .UNSPECIFIED., .F., .U., (2, 2), (0., 1.), .UNSPECIFIED.);
#325 = CARTESIAN_POINT('', (30., 30., 30.));
#326 = CARTESIAN_POINT('', (0., 30., 30.));
#327 = FACE_BOUND('', #328, .T.);
#328 = EDGE_LOOP('', (#329, #338, #345, #352));
#329 = ORIENTED_EDGE('', *, *, #330, .F.);
#330 = EDGE_CURVE('', #331, #333, #335, .T.);
#331 = VERTEX_POINT('', #332);
#332 = CARTESIAN_POINT('', (5., 25., 30.));
#333 = VERTEX_POINT('', #334);
#334 = CARTESIAN_POINT('', (5., 5., 30.));
#335 = B_SPLINE_CURVE_WITH_KNOTS('', 1, (#336, #337), .UNSPECIFIED., .F., .U., (2, 2), (0., 1.), .UNSPECIFIED.);
#336 = CARTESIAN_POINT('', (5., 25., 30.));
#337 = CARTESIAN_POINT('', (5., 5., 30.));
#338 = ORIENTED_EDGE('', *, *, #339, .F.);
#339 = EDGE_CURVE('', #340, #331, #342, .T.);
#340 = VERTEX_POINT('', #341);
#341 = CARTESIAN_POINT('', (25., 25., 30.));
#342 = B_SPLINE_CURVE_WITH_KNOTS('', 1, (#343, #344), .UNSPECIFIED., .F., .U., (2, 2), (0., 1.), .UNSPECIFIED.);
#343 = CARTESIAN_POINT('', (25., 25., 30.));
#344 = CARTESIAN_POINT('', (5., 25., 30.));
#345 = ORIENTED_EDGE('', *, *, #346, .F.);
#346 = EDGE_CURVE('', #347, #340, #349, .T.);
#347 = VERTEX_POINT('', #348);
#348 = CARTESIAN_POINT('', (25., 5., 30.));
#349 = B_SPLINE_CURVE_WITH_KNOTS('', 1, (#350, #351), .UNSPECIFIED., .F., .U., (2, 2), (0., 1.), .UNSPECIFIED.);
#350 = CARTESIAN_POINT('', (25., 5., 30.));
#351 = CARTESIAN_POINT('', (25., 25., 30.));
#352 = ORIENTED_EDGE('', *, *, #353, .F.);
#353 = EDGE_CURVE('', #333, #347, #354, .T.);
#354 = B_SPLINE_CURVE_WITH_KNOTS('', 1, (#355, #356), .UNSPECIFIED., .F., .U., (2, 2), (0., 1.), .UNSPECIFIED.);
#355 = CARTESIAN_POINT('', (5., 5., 30.));
#356 = CARTESIAN_POINT('', (25., 5., 30.));
#357 = B_SPLINE_SURFACE_WITH_KNOTS('', 1, 1, ((#358, #359), (#360, #361)), .UNSPECIFIED., .F., .F., .U., (2, 2), (2, 2), (0., 1.), (0., 1.), .UNSPECIFIED.);
#358 = CARTESIAN_POINT('', (38.3345237791561, -8.33452377915607, 30.));
#359 = CARTESIAN_POINT('', (-8.33452377915607, -8.33452377915607, 30.));
#360 = CARTESIAN_POINT('', (38.3345237791561, 38.3345237791561, 30.));
#361 = CARTESIAN_POINT('', (-8.33452377915607, 38.3345237791561, 30.));
#362 = ADVANCED_FACE('', (#363, #393), #423, .T.);
#363 = FACE_OUTER_BOUND('', #364, .T.);
#364 = EDGE_LOOP('', (#365, #374, #381, #388));
#365 = ORIENTED_EDGE('', *, *, #366, .F.);
#366 = EDGE_CURVE('', #367, #369, #371, .T.);
#367 = VERTEX_POINT('', #368);
#368 = CARTESIAN_POINT('', (0., 30., 0.));
#369 = VERTEX_POINT('', #370);
#370 = CARTESIAN_POINT('', (0., 0., 0.));
#371 = B_SPLINE_CURVE_WITH_KNOTS('', 1, (#372, #373), .UNSPECIFIED., .F., .U., (2, 2), (0., 1.), .UNSPECIFIED.);
#372 = CARTESIAN_POINT('', (0., 30., 0.));
#373 = CARTESIAN_POINT('', (0., 0., 0.));
#374 = ORIENTED_EDGE('', *, *, #375, .F.);
#375 = EDGE_CURVE('', #376, #367, #378, .T.);
#376 = VERTEX_POINT('', #377);
#377 = CARTESIAN_POINT('', (30., 30., 0.));
#378 = B_SPLINE_CURVE_WITH_KNOTS('', 1, (#379, #380), .UNSPECIFIED., .F., .U., (2, 2), (0., 1.), .UNSPECIFIED.);
#379 = CARTESIAN_POINT('', (30., 30., 0.));
#380 = CARTESIAN_POINT('', (0., 30., 0.));
#381 = ORIENTED_EDGE('', *, *, #382, .F.);
#382 = EDGE_CURVE('', #383, #376, #385, .T.);
#383 = VERTEX_POINT('', #384);
#384 = CARTESIAN_POINT('', (30., 0., 0.));
#385 = B_SPLINE_CURVE_WITH_KNOTS('', 1, (#386, #387), .UNSPECIFIED., .F., .U., (2, 2), (0., 1.), .UNSPECIFIED.);
#386 = CARTESIAN_POINT('', (30., 0., 0.));
#387 = CARTESIAN_POINT('', (30., 30., 0.));
#388 = ORIENTED_EDGE('', *, *, #389, .F.);
#389 = EDGE_CURVE('', #369, #383, #390, .T.);
#390 = B_SPLINE_CURVE_WITH_KNOTS('', 1, (#391, #392), .UNSPECIFIED., .F., .U., (2, 2), (0., 1.), .UNSPECIFIED.);
#391 = CARTESIAN_POINT('', (0., 0., 0.));
#392 = CARTESIAN_POINT('', (30., 0., 0.));
#393 = FACE_BOUND('', #394, .T.);
#394 = EDGE_LOOP('', (#395, #404, #411, #418));
#395 = ORIENTED_EDGE('', *, *, #396, .F.);
#396 = EDGE_CURVE('', #397, #399, #401, .T.);
#397 = VERTEX_POINT('', #398);
#398 = CARTESIAN_POINT('', (5., 5., 0.));
#399 = VERTEX_POINT('', #400);
#400 = CARTESIAN_POINT('', (5., 25., 0.));
#401 = B_SPLINE_CURVE_WITH_KNOTS('', 1, (#402, #403), .UNSPECIFIED., .F., .U., (2, 2), (0., 1.), .UNSPECIFIED.);
#402 = CARTESIAN_POINT('', (5., 5., 0.));
#403 = CARTESIAN_POINT('', (5., 25., 0.));
#404 = ORIENTED_EDGE('', *, *, #405, .F.);
#405 = EDGE_CURVE('', #406, #397, #408, .T.);
#406 = VERTEX_POINT('', #407);
#407 = CARTESIAN_POINT('', (25., 5., 0.));
#408 = B_SPLINE_CURVE_WITH_KNOTS('', 1, (#409, #410), .UNSPECIFIED., .F., .U., (2, 2), (0., 1.), .UNSPECIFIED.);
#409 = CARTESIAN_POINT('', (25., 5., 0.));
#410 = CARTESIAN_POINT('', (5., 5., 0.));
#411 = ORIENTED_EDGE('', *, *, #412, .F.);
#412 = EDGE_CURVE('', #413, #406, #415, .T.);
#413 = VERTEX_POINT('', #414);
#414 = CARTESIAN_POINT('', (25., 25., 0.));
#415 = B_SPLINE_CURVE_WITH_KNOTS('', 1, (#416, #417), .UNSPECIFIED., .F., .U., (2, 2), (0., 1.), .UNSPECIFIED.);
#416 = CARTESIAN_POINT('', (25., 25., 0.));
#417 = CARTESIAN_POINT('', (25., 5., 0.));
#418 = ORIENTED_EDGE('', *, *, #419, .F.);
#419 = EDGE_CURVE('', #399, #413, #420, .T.);
#420 = B_SPLINE_CURVE_WITH_KNOTS('', 1, (#421, #422), .UNSPECIFIED., .F., .U., (2, 2), (0., 1.), .UNSPECIFIED.);
#421 = CARTESIAN_POINT('', (5., 25., 0.));
#422 = CARTESIAN_POINT('', (25., 25., 0.));
#423 = B_SPLINE_SURFACE_WITH_KNOTS('', 1, 1, ((#424, #425), (#426, #427)), .UNSPECIFIED., .F., .F., .U., (2, 2), (2, 2), (0., 1.), (0., 1.), .UNSPECIFIED.);
#424 = CARTESIAN_POINT('', (38.3345237791561, -8.33452377915607, 0.));
#425 = CARTESIAN_POINT('', (38.3345237791561, 38.3345237791561, 0.));
#426 = CARTESIAN_POINT('', (-8.33452377915607, -8.33452377915607, 0.));
#427 = CARTESIAN_POINT('', (-8.33452377915607, 38.3345237791561, 0.));
#428 = ADVANCED_FACE('', (#429), #443, .T.);
#429 = FACE_OUTER_BOUND('', #430, .T.);
#430 = EDGE_LOOP('', (#431, #436, #437, #442));
#431 = ORIENTED_EDGE('', *, *, #432, .F.);
#432 = EDGE_CURVE('', #367, #301, #433, .T.);
#433 = B_SPLINE_CURVE_WITH_KNOTS('', 1, (#434, #435), .UNSPECIFIED., .F., .U., (2, 2), (0., 1.), .UNSPECIFIED.);
#434 = CARTESIAN_POINT('', (0., 30., 0.));
#435 = CARTESIAN_POINT('', (0., 30., 30.));
#436 = ORIENTED_EDGE('', *, *, #366, .T.);
#437 = ORIENTED_EDGE('', *, *, #438, .T.);
#438 = EDGE_CURVE('', #369, #303, #439, .T.);
#439 = B_SPLINE_CURVE_WITH_KNOTS('', 1, (#440, #441), .UNSPECIFIED., .F., .U., (2, 2), (0., 1.), .UNSPECIFIED.);
#440 = CARTESIAN_POINT('', (0., 0., 0.));
#441 = CARTESIAN_POINT('', (0., 0., 30.));
#442 = ORIENTED_EDGE('', *, *, #300, .F.);
#443 = B_SPLINE_SURFACE_WITH_KNOTS('', 1, 1, ((#444, #445), (#446, #447)), .UNSPECIFIED., .F., .F., .U., (2, 2), (2, 2), (0., 1.), (0., 1.), .UNSPECIFIED.);
#444 = CARTESIAN_POINT('', (0., 30., 0.));
#445 = CARTESIAN_POINT('', (0., 30., 30.));
#446 = CARTESIAN_POINT('', (0., 0., 0.));
#447 = CARTESIAN_POINT('', (0., 0., 30.));
#448 = ADVANCED_FACE('', (#449), #459, .T.);
#449 = FACE_OUTER_BOUND('', #450, .T.);
#450 = EDGE_LOOP('', (#451, #452, #453, #458));
#451 = ORIENTED_EDGE('', *, *, #438, .F.);
#452 = ORIENTED_EDGE('', *, *, #389, .T.);
#453 = ORIENTED_EDGE('', *, *, #454, .T.);
#454 = EDGE_CURVE('', #383, #310, #455, .T.);
#455 = B_SPLINE_CURVE_WITH_KNOTS('', 1, (#456, #457), .UNSPECIFIED., .F., .U., (2, 2), (0., 1.), .UNSPECIFIED.);
#456 = CARTESIAN_POINT('', (30., 0., 0.));
#457 = CARTESIAN_POINT('', (30., 0., 30.));
#458 = ORIENTED_EDGE('', *, *, #309, .F.);
#459 = B_SPLINE_SURFACE_WITH_KNOTS('', 1, 1, ((#460, #461), (#462, #463)), .UNSPECIFIED., .F., .F., .U., (2, 2), (2, 2), (0., 1.), (0., 1.), .UNSPECIFIED.);
#460 = CARTESIAN_POINT('', (0., 0., 0.));
#461 = CARTESIAN_POINT('', (0., 0., 30.));
#462 = CARTESIAN_POINT('', (30., 0., 0.));
#463 = CARTESIAN_POINT('', (30., 0., 30.));
#464 = ADVANCED_FACE('', (#465), #475, .T.);
#465 = FACE_OUTER_BOUND('', #466, .T.);
#466 = EDGE_LOOP('', (#467, #472, #473, #474));
#467 = ORIENTED_EDGE('', *, *, #468, .F.);
#468 = EDGE_CURVE('', #376, #317, #469, .T.);
#469 = B_SPLINE_CURVE_WITH_KNOTS('', 1, (#470, #471), .UNSPECIFIED., .F., .U., (2, 2), (0., 1.), .UNSPECIFIED.);
#470 = CARTESIAN_POINT('', (30., 30., 0.));
#471 = CARTESIAN_POINT('', (30., 30., 30.));
#472 = ORIENTED_EDGE('', *, *, #375, .T.);
#473 = ORIENTED_EDGE('', *, *, #432, .T.);
#474 = ORIENTED_EDGE('', *, *, #323, .F.);
#475 = B_SPLINE_SURFACE_WITH_KNOTS('', 1, 1, ((#476, #477), (#478, #479)), .UNSPECIFIED., .F., .F., .U., (2, 2), (2, 2), (0., 1.), (0., 1.), .UNSPECIFIED.);
#476 = CARTESIAN_POINT('', (30., 30., 0.));
#477 = CARTESIAN_POINT('', (30., 30., 30.));
#478 = CARTESIAN_POINT('', (0., 30., 0.));
#479 = CARTESIAN_POINT('', (0., 30., 30.));
#480 = ADVANCED_FACE('', (#481), #487, .T.);
#481 = FACE_OUTER_BOUND('', #482, .T.);
#482 = EDGE_LOOP('', (#483, #484, #485, #486));
#483 = ORIENTED_EDGE('', *, *, #454, .F.);
#484 = ORIENTED_EDGE('', *, *, #382, .T.);
#485 = ORIENTED_EDGE('', *, *, #468, .T.);
#486 = ORIENTED_EDGE('', *, *, #316, .F.);
#487 = B_SPLINE_SURFACE_WITH_KNOTS('', 1, 1, ((#488, #489), (#490, #491)), .UNSPECIFIED., .F., .F., .U., (2, 2), (2, 2), (0., 1.), (0., 1.), .UNSPECIFIED.);
#488 = CARTESIAN_POINT('', (30., 0., 0.));
#489 = CARTESIAN_POINT('', (30., 0., 30.));
#490 = CARTESIAN_POINT('', (30., 30., 0.));
#491 = CARTESIAN_POINT('', (30., 30., 30.));
#492 = ADVANCED_FACE('', (#493), #507, .F.);
#493 = FACE_OUTER_BOUND('', #494, .F.);
#494 = EDGE_LOOP('', (#495, #496, #501, #502));
#495 = ORIENTED_EDGE('', *, *, #353, .F.);
#496 = ORIENTED_EDGE('', *, *, #497, .F.);
#497 = EDGE_CURVE('', #397, #333, #498, .T.);
#498 = B_SPLINE_CURVE_WITH_KNOTS('', 1, (#499, #500), .UNSPECIFIED., .F., .U., (2, 2), (0., 0.6), .UNSPECIFIED.);
#499 = CARTESIAN_POINT('', (5., 5., 0.));
#500 = CARTESIAN_POINT('', (5., 5., 30.));
#501 = ORIENTED_EDGE('', *, *, #405, .F.);
#502 = ORIENTED_EDGE('', *, *, #503, .T.);
#503 = EDGE_CURVE('', #406, #347, #504, .T.);
#504 = B_SPLINE_CURVE_WITH_KNOTS('', 1, (#505, #506), .UNSPECIFIED., .F., .U., (2, 2), (0., 0.6), .UNSPECIFIED.);
#505 = CARTESIAN_POINT('', (25., 5., 0.));
#506 = CARTESIAN_POINT('', (25., 5., 30.));
#507 = B_SPLINE_SURFACE_WITH_KNOTS('', 1, 1, ((#508, #509), (#510, #511)), .UNSPECIFIED., .F., .F., .U., (2, 2), (2, 2), (0., 1.), (0., 1.), .UNSPECIFIED.);
#508 = CARTESIAN_POINT('', (5., 5., 0.));
#509 = CARTESIAN_POINT('', (5., 5., 50.));
#510 = CARTESIAN_POINT('', (25., 5., 0.));
#511 = CARTESIAN_POINT('', (25., 5., 50.));
#512 = ADVANCED_FACE('', (#513), #523, .F.);
#513 = FACE_OUTER_BOUND('', #514, .F.);
#514 = EDGE_LOOP('', (#515, #516, #517, #518));
#515 = ORIENTED_EDGE('', *, *, #346, .F.);
#516 = ORIENTED_EDGE('', *, *, #503, .F.);
#517 = ORIENTED_EDGE('', *, *, #412, .F.);
#518 = ORIENTED_EDGE('', *, *, #519, .T.);
#519 = EDGE_CURVE('', #413, #340, #520, .T.);
#520 = B_SPLINE_CURVE_WITH_KNOTS('', 1, (#521, #522), .UNSPECIFIED., .F., .U., (2, 2), (0., 0.6), .UNSPECIFIED.);
#521 = CARTESIAN_POINT('', (25., 25., 0.));
#522 = CARTESIAN_POINT('', (25., 25., 30.));
#523 = B_SPLINE_SURFACE_WITH_KNOTS('', 1, 1, ((#524, #525), (#526, #527)), .UNSPECIFIED., .F., .F., .U., (2, 2), (2, 2), (0., 1.), (0., 1.), .UNSPECIFIED.);
#524 = CARTESIAN_POINT('', (25., 5., 0.));
#525 = CARTESIAN_POINT('', (25., 5., 50.));
#526 = CARTESIAN_POINT('', (25., 25., 0.));
#527 = CARTESIAN_POINT('', (25., 25., 50.));
#528 = ADVANCED_FACE('', (#529), #539, .F.);
#529 = FACE_OUTER_BOUND('', #530, .F.);
#530 = EDGE_LOOP('', (#531, #532, #533, #534));
#531 = ORIENTED_EDGE('', *, *, #339, .F.);
#532 = ORIENTED_EDGE('', *, *, #519, .F.);
#533 = ORIENTED_EDGE('', *, *, #419, .F.);
#534 = ORIENTED_EDGE('', *, *, #535, .T.);
#535 = EDGE_CURVE('', #399, #331, #536, .T.);
#536 = B_SPLINE_CURVE_WITH_KNOTS('', 1, (#537, #538), .UNSPECIFIED., .F., .U., (2, 2), (0., 0.6), .UNSPECIFIED.);
#537 = CARTESIAN_POINT('', (5., 25., 0.));
#538 = CARTESIAN_POINT('', (5., 25., 30.));
#539 = B_SPLINE_SURFACE_WITH_KNOTS('', 1, 1, ((#540, #541), (#542, #543)), .UNSPECIFIED., .F., .F., .U., (2, 2), (2, 2), (0., 1.), (0., 1.), .UNSPECIFIED.);
#540 = CARTESIAN_POINT('', (25., 25., 0.));
#541 = CARTESIAN_POINT('', (25., 25., 50.));
#542 = CARTESIAN_POINT('', (5., 25., 0.));
#543 = CARTESIAN_POINT('', (5., 25., 50.));
#544 = ADVANCED_FACE('', (#545), #551, .F.);
#545 = FACE_OUTER_BOUND('', #546, .F.);
#546 = EDGE_LOOP('', (#547, #548, #549, #550));
#547 = ORIENTED_EDGE('', *, *, #330, .F.);
#548 = ORIENTED_EDGE('', *, *, #535, .F.);
#549 = ORIENTED_EDGE('', *, *, #396, .F.);
#550 = ORIENTED_EDGE('', *, *, #497, .T.);
#551 = B_SPLINE_SURFACE_WITH_KNOTS('', 1, 1, ((#552, #553), (#554, #555)), .UNSPECIFIED., .F., .F., .U., (2, 2), (2, 2), (0., 1.), (0., 1.), .UNSPECIFIED.);
#552 = CARTESIAN_POINT('', (5., 25., 0.));
#553 = CARTESIAN_POINT('', (5., 25., 50.));
#554 = CARTESIAN_POINT('', (5., 5., 0.));
#555 = CARTESIAN_POINT('', (5., 5., 50.));
#556 = PRESENTATION_STYLE_ASSIGNMENT((#557));
#557 = SURFACE_STYLE_USAGE(.POSITIVE., #558);
#558 = SURFACE_SIDE_STYLE('', (#559));
#559 = SURFACE_STYLE_FILL_AREA(#560);
#560 = FILL_AREA_STYLE('', (#561));
#561 = FILL_AREA_STYLE_COLOUR('', #562);
#562 = COLOUR_RGB('', 0.50196078431373, 0.50196078431373, 0.50196078431373);
#563 = STYLED_ITEM('', (#556), #294);
#564 = CARTESIAN_POINT('Origin', (0., 0., 0.));
#565 = GEOMETRIC_SET('', (#564));
#566 = (
   GEOMETRIC_REPRESENTATION_CONTEXT (3)
   GLOBAL_UNCERTAINTY_ASSIGNED_CONTEXT ((#568))
   GLOBAL_UNIT_ASSIGNED_CONTEXT ((#567, #569, #570))
   REPRESENTATION_CONTEXT ('', '3D')
);
#567 = (
   LENGTH_UNIT ()
   NAMED_UNIT (*)
   SI_UNIT (.MILLI., .METRE.)
);
#568 = UNCERTAINTY_MEASURE_WITH_UNIT(LENGTH_MEASURE(1.E-6), #567, 'DISTANCE_ACCURACY_VALUE', '');
#569 = (
   NAMED_UNIT (*)
   SI_UNIT ($, .STERADIAN.)
   SOLID_ANGLE_UNIT ()
);
#570 = (
   NAMED_UNIT (*)
   PLANE_ANGLE_UNIT ()
   SI_UNIT ($, .RADIAN.)
);
#571 = SHAPE_REPRESENTATION('', (#586), #566);
#572 = PRODUCT_DEFINITION_SHAPE('', '', #573);
#573 = PRODUCT_DEFINITION('', '', #576, #580);
#574 = APPLICATION_CONTEXT('configuration controlled 3D designs of mechanical parts and assemblies');
#575 = APPLICATION_PROTOCOL_DEFINITION('International Standard', 'automotive_design', 2002, #574);
#576 = PRODUCT_DEFINITION_FORMATION_WITH_SPECIFIED_SOURCE('', '', #577, .NOT_KNOWN.);
#577 = PRODUCT('TgtIdx', 'TgtIdx', '', (#578));
#578 = PRODUCT_CONTEXT('', #574, 'mechanical');
#579 = PRODUCT_RELATED_PRODUCT_CATEGORY('detail', '', (#577));
#580 = PRODUCT_DEFINITION_CONTEXT('part definition', #574, 'design');
#581 = SHAPE_DEFINITION_REPRESENTATION(#572, #571);
#582 = SHAPE_REPRESENTATION_RELATIONSHIP('', '', #571, #583);
#583 = SHAPE_REPRESENTATION('', (#565), #566);
#584 = SHAPE_REPRESENTATION_RELATIONSHIP('', '', #571, #585);
#585 = ADVANCED_BREP_SHAPE_REPRESENTATION('', (#1, #148, #294), #566);
#586 = AXIS2_PLACEMENT_3D('', #587, #588, #589);
#587 = CARTESIAN_POINT('', (0., 0., 0.));
#588 = DIRECTION('', (0., 0., 1.));
#589 = DIRECTION('', (1., 0., 0.));
ENDSEC;
END-ISO-10303-21;
