ISO-10303-21;
HEADER;
FILE_DESCRIPTION(('STEP'), '1');
FILE_NAME('RevolveTest', '2026-04-14T13:06:54', (''), (''), 'Express 3.1.2.0', 'Express Tool', 'Unknown');
FILE_SCHEMA(('AUTOMOTIVE_DESIGN'));
ENDSEC;

DATA;
#1 = MANIFOLD_SOLID_BREP('Solid', #2);
#2 = CLOSED_SHELL('', (#3, #59, #115, #127));
#3 = ADVANCED_FACE('', (#4), #40, .T.);
#4 = FACE_OUTER_BOUND('', #5, .T.);
#5 = EDGE_LOOP('', (#6, #15, #27, #28));
#6 = ORIENTED_EDGE('', *, *, #7, .F.);
#7 = EDGE_CURVE('', #8, #10, #12, .T.);
#8 = VERTEX_POINT('', #9);
#9 = CARTESIAN_POINT('', (55., 0., 0.));
#10 = VERTEX_POINT('', #11);
#11 = CARTESIAN_POINT('', (55., 15., 0.));
#12 = B_SPLINE_CURVE_WITH_KNOTS('', 1, (#13, #14), .UNSPECIFIED., .F., .U., (2, 2), (0., 1.), .UNSPECIFIED.);
#13 = CARTESIAN_POINT('', (55., 0., 0.));
#14 = CARTESIAN_POINT('', (55., 15., 0.));
#15 = ORIENTED_EDGE('', *, *, #16, .T.);
#16 = EDGE_CURVE('', #8, #8, #17, .T.);
#17 = (
   BOUNDED_CURVE ()
   B_SPLINE_CURVE (2, (#18, #19, #20, #21, #22, #23, #24, #25, #26), .UNSPECIFIED., .T., .U.)
   B_SPLINE_CURVE_WITH_KNOTS ((3, 2, 2, 2, 3), (0., 86.3937979737193, 172.787595947439, 259.181393921158, 345.575191894877), .UNSPECIFIED.)
   CURVE ()
   GEOMETRIC_REPRESENTATION_ITEM ()
   RATIONAL_B_SPLINE_CURVE ((1., 0.707106781186548, 1., 0.707106781186548, 1., 0.707106781186548, 1., 0.707106781186548, 1.))
   REPRESENTATION_ITEM ('')
);
#18 = CARTESIAN_POINT('', (55., 0., 0.));
#19 = CARTESIAN_POINT('', (55., 0., -55.));
#20 = CARTESIAN_POINT('', (3.36777869765522E-15, 0., -55.));
#21 = CARTESIAN_POINT('', (-55., 0., -55.));
#22 = CARTESIAN_POINT('', (-55., 0., -6.73555739531044E-15));
#23 = CARTESIAN_POINT('', (-55., 0., 55.));
#24 = CARTESIAN_POINT('', (-1.01033360929657E-14, 0., 55.));
#25 = CARTESIAN_POINT('', (55., 0., 55.));
#26 = CARTESIAN_POINT('', (55., 0., 0.));
#27 = ORIENTED_EDGE('', *, *, #7, .T.);
#28 = ORIENTED_EDGE('', *, *, #29, .F.);
#29 = EDGE_CURVE('', #10, #10, #30, .T.);
#30 = (
   BOUNDED_CURVE ()
   B_SPLINE_CURVE (2, (#31, #32, #33, #34, #35, #36, #37, #38, #39), .UNSPECIFIED., .T., .U.)
   B_SPLINE_CURVE_WITH_KNOTS ((3, 2, 2, 2, 3), (0., 86.3937979737193, 172.787595947439, 259.181393921158, 345.575191894877), .UNSPECIFIED.)
   CURVE ()
   GEOMETRIC_REPRESENTATION_ITEM ()
   RATIONAL_B_SPLINE_CURVE ((1., 0.707106781186548, 1., 0.707106781186548, 1., 0.707106781186548, 1., 0.707106781186548, 1.))
   REPRESENTATION_ITEM ('')
);
#31 = CARTESIAN_POINT('', (55., 15., 0.));
#32 = CARTESIAN_POINT('', (55., 15., -55.));
#33 = CARTESIAN_POINT('', (3.36777869765522E-15, 15., -55.));
#34 = CARTESIAN_POINT('', (-55., 15., -55.));
#35 = CARTESIAN_POINT('', (-55., 15., -6.73555739531044E-15));
#36 = CARTESIAN_POINT('', (-55., 15., 55.));
#37 = CARTESIAN_POINT('', (-1.01033360929657E-14, 15., 55.));
#38 = CARTESIAN_POINT('', (55., 15., 55.));
#39 = CARTESIAN_POINT('', (55., 15., 0.));
#40 = (
   BOUNDED_SURFACE ()
   B_SPLINE_SURFACE (2, 1, ((#41, #42), (#43, #44), (#45, #46), (#47, #48), (#49, #50), (#51, #52), (#53, #54), (#55, #56), (#57, #58)), .UNSPECIFIED., .T., .F., .U.)
   B_SPLINE_SURFACE_WITH_KNOTS ((3, 2, 2, 2, 3), (2, 2), (0., 86.3937979737193, 172.787595947439, 259.181393921158, 345.575191894877), (0., 1.), .UNSPECIFIED.)
   GEOMETRIC_REPRESENTATION_ITEM ()
   RATIONAL_B_SPLINE_SURFACE (((1., 1.), (0.707106781186548, 0.707106781186548), (1., 1.), (0.707106781186548, 0.707106781186548), (1., 1.), (0.707106781186548, 0.707106781186548), (1., 1.), (0.707106781186548, 0.707106781186548), (1., 1.)))
   REPRESENTATION_ITEM ('')
   SURFACE ()
);
#41 = CARTESIAN_POINT('', (55., 0., 0.));
#42 = CARTESIAN_POINT('', (55., 15., 0.));
#43 = CARTESIAN_POINT('', (55., 0., -55.));
#44 = CARTESIAN_POINT('', (55., 15., -55.));
#45 = CARTESIAN_POINT('', (3.36777869765522E-15, 0., -55.));
#46 = CARTESIAN_POINT('', (3.36777869765522E-15, 15., -55.));
#47 = CARTESIAN_POINT('', (-55., 0., -55.));
#48 = CARTESIAN_POINT('', (-55., 15., -55.));
#49 = CARTESIAN_POINT('', (-55., 0., -6.73555739531044E-15));
#50 = CARTESIAN_POINT('', (-55., 15., -6.73555739531044E-15));
#51 = CARTESIAN_POINT('', (-55., 0., 55.));
#52 = CARTESIAN_POINT('', (-55., 15., 55.));
#53 = CARTESIAN_POINT('', (-1.01033360929657E-14, 0., 55.));
#54 = CARTESIAN_POINT('', (-1.01033360929657E-14, 15., 55.));
#55 = CARTESIAN_POINT('', (55., 0., 55.));
#56 = CARTESIAN_POINT('', (55., 15., 55.));
#57 = CARTESIAN_POINT('', (55., 0., 0.));
#58 = CARTESIAN_POINT('', (55., 15., 0.));
#59 = ADVANCED_FACE('', (#60), #96, .T.);
#60 = FACE_OUTER_BOUND('', #61, .T.);
#61 = EDGE_LOOP('', (#62, #71, #83, #84));
#62 = ORIENTED_EDGE('', *, *, #63, .F.);
#63 = EDGE_CURVE('', #64, #66, #68, .T.);
#64 = VERTEX_POINT('', #65);
#65 = CARTESIAN_POINT('', (40., 15., 0.));
#66 = VERTEX_POINT('', #67);
#67 = CARTESIAN_POINT('', (40., 0., 0.));
#68 = B_SPLINE_CURVE_WITH_KNOTS('', 1, (#69, #70), .UNSPECIFIED., .F., .U., (2, 2), (0., 1.), .UNSPECIFIED.);
#69 = CARTESIAN_POINT('', (40., 15., 0.));
#70 = CARTESIAN_POINT('', (40., 0., 0.));
#71 = ORIENTED_EDGE('', *, *, #72, .T.);
#72 = EDGE_CURVE('', #64, #64, #73, .T.);
#73 = (
   BOUNDED_CURVE ()
   B_SPLINE_CURVE (2, (#74, #75, #76, #77, #78, #79, #80, #81, #82), .UNSPECIFIED., .T., .U.)
   B_SPLINE_CURVE_WITH_KNOTS ((3, 2, 2, 2, 3), (0., 62.8318530717959, 125.663706143592, 188.495559215388, 251.327412287183), .UNSPECIFIED.)
   CURVE ()
   GEOMETRIC_REPRESENTATION_ITEM ()
   RATIONAL_B_SPLINE_CURVE ((1., 0.707106781186548, 1., 0.707106781186548, 1., 0.707106781186548, 1., 0.707106781186548, 1.))
   REPRESENTATION_ITEM ('')
);
#74 = CARTESIAN_POINT('', (40., 15., 0.));
#75 = CARTESIAN_POINT('', (40., 15., -40.));
#76 = CARTESIAN_POINT('', (2.44929359829471E-15, 15., -40.));
#77 = CARTESIAN_POINT('', (-40., 15., -40.));
#78 = CARTESIAN_POINT('', (-40., 15., -4.89858719658941E-15));
#79 = CARTESIAN_POINT('', (-40., 15., 40.));
#80 = CARTESIAN_POINT('', (-7.34788079488412E-15, 15., 40.));
#81 = CARTESIAN_POINT('', (40., 15., 40.));
#82 = CARTESIAN_POINT('', (40., 15., 0.));
#83 = ORIENTED_EDGE('', *, *, #63, .T.);
#84 = ORIENTED_EDGE('', *, *, #85, .F.);
#85 = EDGE_CURVE('', #66, #66, #86, .T.);
#86 = (
   BOUNDED_CURVE ()
   B_SPLINE_CURVE (2, (#87, #88, #89, #90, #91, #92, #93, #94, #95), .UNSPECIFIED., .T., .U.)
   B_SPLINE_CURVE_WITH_KNOTS ((3, 2, 2, 2, 3), (0., 62.8318530717959, 125.663706143592, 188.495559215388, 251.327412287183), .UNSPECIFIED.)
   CURVE ()
   GEOMETRIC_REPRESENTATION_ITEM ()
   RATIONAL_B_SPLINE_CURVE ((1., 0.707106781186548, 1., 0.707106781186548, 1., 0.707106781186548, 1., 0.707106781186548, 1.))
   REPRESENTATION_ITEM ('')
);
#87 = CARTESIAN_POINT('', (40., 0., 0.));
#88 = CARTESIAN_POINT('', (40., 0., -40.));
#89 = CARTESIAN_POINT('', (2.44929359829471E-15, 0., -40.));
#90 = CARTESIAN_POINT('', (-40., 0., -40.));
#91 = CARTESIAN_POINT('', (-40., 0., -4.89858719658941E-15));
#92 = CARTESIAN_POINT('', (-40., 0., 40.));
#93 = CARTESIAN_POINT('', (-7.34788079488412E-15, 0., 40.));
#94 = CARTESIAN_POINT('', (40., 0., 40.));
#95 = CARTESIAN_POINT('', (40., 0., 0.));
#96 = (
   BOUNDED_SURFACE ()
   B_SPLINE_SURFACE (2, 1, ((#97, #98), (#99, #100), (#101, #102), (#103, #104), (#105, #106), (#107, #108), (#109, #110), (#111, #112), (#113, #114)), .UNSPECIFIED., .T., .F., .U.)
   B_SPLINE_SURFACE_WITH_KNOTS ((3, 2, 2, 2, 3), (2, 2), (0., 62.8318530717959, 125.663706143592, 188.495559215388, 251.327412287183), (0., 1.), .UNSPECIFIED.)
   GEOMETRIC_REPRESENTATION_ITEM ()
   RATIONAL_B_SPLINE_SURFACE (((1., 1.), (0.707106781186548, 0.707106781186548), (1., 1.), (0.707106781186548, 0.707106781186548), (1., 1.), (0.707106781186548, 0.707106781186548), (1., 1.), (0.707106781186548, 0.707106781186548), (1., 1.)))
   REPRESENTATION_ITEM ('')
   SURFACE ()
);
#97 = CARTESIAN_POINT('', (40., 15., 0.));
#98 = CARTESIAN_POINT('', (40., 0., 0.));
#99 = CARTESIAN_POINT('', (40., 15., -40.));
#100 = CARTESIAN_POINT('', (40., 0., -40.));
#101 = CARTESIAN_POINT('', (2.44929359829471E-15, 15., -40.));
#102 = CARTESIAN_POINT('', (2.44929359829471E-15, 0., -40.));
#103 = CARTESIAN_POINT('', (-40., 15., -40.));
#104 = CARTESIAN_POINT('', (-40., 0., -40.));
#105 = CARTESIAN_POINT('', (-40., 15., -4.89858719658941E-15));
#106 = CARTESIAN_POINT('', (-40., 0., -4.89858719658941E-15));
#107 = CARTESIAN_POINT('', (-40., 15., 40.));
#108 = CARTESIAN_POINT('', (-40., 0., 40.));
#109 = CARTESIAN_POINT('', (-7.34788079488412E-15, 15., 40.));
#110 = CARTESIAN_POINT('', (-7.34788079488412E-15, 0., 40.));
#111 = CARTESIAN_POINT('', (40., 15., 40.));
#112 = CARTESIAN_POINT('', (40., 0., 40.));
#113 = CARTESIAN_POINT('', (40., 15., 0.));
#114 = CARTESIAN_POINT('', (40., 0., 0.));
#115 = ADVANCED_FACE('', (#116, #119), #122, .T.);
#116 = FACE_OUTER_BOUND('', #117, .T.);
#117 = EDGE_LOOP('', (#118));
#118 = ORIENTED_EDGE('', *, *, #16, .F.);
#119 = FACE_BOUND('', #120, .T.);
#120 = EDGE_LOOP('', (#121));
#121 = ORIENTED_EDGE('', *, *, #85, .T.);
#122 = B_SPLINE_SURFACE_WITH_KNOTS('', 1, 1, ((#123, #124), (#125, #126)), .UNSPECIFIED., .F., .F., .U., (2, 2), (2, 2), (0., 1.), (0., 1.), .UNSPECIFIED.);
#123 = CARTESIAN_POINT('', (-85.5599205235723, 0., -85.5599205235723));
#124 = CARTESIAN_POINT('', (-85.5599205235723, 0., 85.5599205235723));
#125 = CARTESIAN_POINT('', (85.5599205235723, 0., -85.5599205235723));
#126 = CARTESIAN_POINT('', (85.5599205235723, 0., 85.5599205235723));
#127 = ADVANCED_FACE('', (#128, #131), #134, .T.);
#128 = FACE_OUTER_BOUND('', #129, .T.);
#129 = EDGE_LOOP('', (#130));
#130 = ORIENTED_EDGE('', *, *, #29, .T.);
#131 = FACE_BOUND('', #132, .T.);
#132 = EDGE_LOOP('', (#133));
#133 = ORIENTED_EDGE('', *, *, #72, .F.);
#134 = B_SPLINE_SURFACE_WITH_KNOTS('', 1, 1, ((#135, #136), (#137, #138)), .UNSPECIFIED., .F., .F., .U., (2, 2), (2, 2), (0., 1.), (0., 1.), .UNSPECIFIED.);
#135 = CARTESIAN_POINT('', (-85.5599205235723, 15., -85.5599205235723));
#136 = CARTESIAN_POINT('', (85.5599205235723, 15., -85.5599205235723));
#137 = CARTESIAN_POINT('', (-85.5599205235723, 15., 85.5599205235723));
#138 = CARTESIAN_POINT('', (85.5599205235723, 15., 85.5599205235723));
#139 = DRAUGHTING_MODEL('', (#147), #150);
#140 = PRESENTATION_STYLE_ASSIGNMENT((#141));
#141 = SURFACE_STYLE_USAGE(.POSITIVE., #142);
#142 = SURFACE_SIDE_STYLE('', (#143));
#143 = SURFACE_STYLE_FILL_AREA(#144);
#144 = FILL_AREA_STYLE('', (#145));
#145 = FILL_AREA_STYLE_COLOUR('', #146);
#146 = COLOUR_RGB('', 0.50196078431373, 0.50196078431373, 0.50196078431373);
#147 = STYLED_ITEM('', (#140), #1);
#148 = CARTESIAN_POINT('Origin', (0., 0., 0.));
#149 = GEOMETRIC_SET('', (#148));
#150 = (
   GEOMETRIC_REPRESENTATION_CONTEXT (3)
   GLOBAL_UNCERTAINTY_ASSIGNED_CONTEXT ((#152))
   GLOBAL_UNIT_ASSIGNED_CONTEXT ((#151, #153, #154))
   REPRESENTATION_CONTEXT ('', '3D')
);
#151 = (
   LENGTH_UNIT ()
   NAMED_UNIT (*)
   SI_UNIT (.MILLI., .METRE.)
);
#152 = UNCERTAINTY_MEASURE_WITH_UNIT(LENGTH_MEASURE(1.E-6), #151, 'DISTANCE_ACCURACY_VALUE', '');
#153 = (
   NAMED_UNIT (*)
   SI_UNIT ($, .STERADIAN.)
   SOLID_ANGLE_UNIT ()
);
#154 = (
   NAMED_UNIT (*)
   PLANE_ANGLE_UNIT ()
   SI_UNIT ($, .RADIAN.)
);
#155 = SHAPE_REPRESENTATION('', (#170), #150);
#156 = PRODUCT_DEFINITION_SHAPE('', '', #157);
#157 = PRODUCT_DEFINITION('', '', #160, #164);
#158 = APPLICATION_CONTEXT('configuration controlled 3D designs of mechanical parts and assemblies');
#159 = APPLICATION_PROTOCOL_DEFINITION('International Standard', 'automotive_design', 2002, #158);
#160 = PRODUCT_DEFINITION_FORMATION_WITH_SPECIFIED_SOURCE('', '', #161, .NOT_KNOWN.);
#161 = PRODUCT('RevolveTest', 'RevolveTest', '', (#162));
#162 = PRODUCT_CONTEXT('', #158, 'mechanical');
#163 = PRODUCT_RELATED_PRODUCT_CATEGORY('detail', '', (#161));
#164 = PRODUCT_DEFINITION_CONTEXT('part definition', #158, 'design');
#165 = SHAPE_DEFINITION_REPRESENTATION(#156, #155);
#166 = SHAPE_REPRESENTATION_RELATIONSHIP('', '', #155, #167);
#167 = SHAPE_REPRESENTATION('', (#149), #150);
#168 = SHAPE_REPRESENTATION_RELATIONSHIP('', '', #155, #169);
#169 = ADVANCED_BREP_SHAPE_REPRESENTATION('', (#1), #150);
#170 = AXIS2_PLACEMENT_3D('', #171, #172, #173);
#171 = CARTESIAN_POINT('', (0., 0., 0.));
#172 = DIRECTION('', (0., 0., 1.));
#173 = DIRECTION('', (1., 0., 0.));
ENDSEC;
END-ISO-10303-21;
