ISO-10303-21;
HEADER;
FILE_DESCRIPTION(('STEP'), '1');
FILE_NAME('PartialRevolve', '2026-04-14T13:08:06', (''), (''), 'Express 3.1.2.0', 'Express Tool', 'Unknown');
FILE_SCHEMA(('AUTOMOTIVE_DESIGN'));
ENDSEC;

DATA;
#1 = MANIFOLD_SOLID_BREP('Solid', #2);
#2 = CLOSED_SHELL('', (#3, #39, #69, #94, #117, #135));
#3 = ADVANCED_FACE('', (#4), #34, .T.);
#4 = FACE_OUTER_BOUND('', #5, .T.);
#5 = EDGE_LOOP('', (#6, #15, #22, #29));
#6 = ORIENTED_EDGE('', *, *, #7, .F.);
#7 = EDGE_CURVE('', #8, #10, #12, .T.);
#8 = VERTEX_POINT('', #9);
#9 = CARTESIAN_POINT('', (2.44929359829471E-15, 15., -40.));
#10 = VERTEX_POINT('', #11);
#11 = CARTESIAN_POINT('', (2.44929359829471E-15, 0., -40.));
#12 = B_SPLINE_CURVE_WITH_KNOTS('', 1, (#13, #14), .UNSPECIFIED., .F., .U., (2, 2), (0., 1.), .UNSPECIFIED.);
#13 = CARTESIAN_POINT('', (2.44929359829471E-15, 15., -40.));
#14 = CARTESIAN_POINT('', (2.44929359829471E-15, 0., -40.));
#15 = ORIENTED_EDGE('', *, *, #16, .F.);
#16 = EDGE_CURVE('', #17, #8, #19, .T.);
#17 = VERTEX_POINT('', #18);
#18 = CARTESIAN_POINT('', (3.36777869765522E-15, 15., -55.));
#19 = B_SPLINE_CURVE_WITH_KNOTS('', 1, (#20, #21), .UNSPECIFIED., .F., .U., (2, 2), (0., 1.), .UNSPECIFIED.);
#20 = CARTESIAN_POINT('', (3.36777869765522E-15, 15., -55.));
#21 = CARTESIAN_POINT('', (2.44929359829471E-15, 15., -40.));
#22 = ORIENTED_EDGE('', *, *, #23, .F.);
#23 = EDGE_CURVE('', #24, #17, #26, .T.);
#24 = VERTEX_POINT('', #25);
#25 = CARTESIAN_POINT('', (3.36777869765522E-15, 0., -55.));
#26 = B_SPLINE_CURVE_WITH_KNOTS('', 1, (#27, #28), .UNSPECIFIED., .F., .U., (2, 2), (0., 1.), .UNSPECIFIED.);
#27 = CARTESIAN_POINT('', (3.36777869765522E-15, 0., -55.));
#28 = CARTESIAN_POINT('', (3.36777869765522E-15, 15., -55.));
#29 = ORIENTED_EDGE('', *, *, #30, .F.);
#30 = EDGE_CURVE('', #10, #24, #31, .T.);
#31 = B_SPLINE_CURVE_WITH_KNOTS('', 1, (#32, #33), .UNSPECIFIED., .F., .U., (2, 2), (0., 1.), .UNSPECIFIED.);
#32 = CARTESIAN_POINT('', (2.44929359829471E-15, 0., -40.));
#33 = CARTESIAN_POINT('', (3.36777869765522E-15, 0., -55.));
#34 = B_SPLINE_SURFACE_WITH_KNOTS('', 1, 1, ((#35, #36), (#37, #38)), .UNSPECIFIED., .F., .F., .U., (2, 2), (2, 2), (0., 1.), (0., 1.), .UNSPECIFIED.);
#35 = CARTESIAN_POINT('', (3.62294989436925E-15, -4.16726188957804, -59.167261889578));
#36 = CARTESIAN_POINT('', (3.62294989436925E-15, 19.167261889578, -59.167261889578));
#37 = CARTESIAN_POINT('', (2.19412240158068E-15, -4.16726188957804, -35.832738110422));
#38 = CARTESIAN_POINT('', (2.19412240158068E-15, 19.167261889578, -35.832738110422));
#39 = ADVANCED_FACE('', (#40), #64, .T.);
#40 = FACE_OUTER_BOUND('', #41, .T.);
#41 = EDGE_LOOP('', (#42, #51, #57, #58));
#42 = ORIENTED_EDGE('', *, *, #43, .F.);
#43 = EDGE_CURVE('', #44, #46, #48, .T.);
#44 = VERTEX_POINT('', #45);
#45 = CARTESIAN_POINT('', (55., 15., 0.));
#46 = VERTEX_POINT('', #47);
#47 = CARTESIAN_POINT('', (40., 15., 0.));
#48 = B_SPLINE_CURVE_WITH_KNOTS('', 1, (#49, #50), .UNSPECIFIED., .F., .U., (2, 2), (0., 1.), .UNSPECIFIED.);
#49 = CARTESIAN_POINT('', (55., 15., 0.));
#50 = CARTESIAN_POINT('', (40., 15., 0.));
#51 = ORIENTED_EDGE('', *, *, #52, .T.);
#52 = EDGE_CURVE('', #44, #17, #53, .T.);
#53 = (
   BOUNDED_CURVE ()
   B_SPLINE_CURVE (2, (#54, #55, #56), .UNSPECIFIED., .F., .U.)
   B_SPLINE_CURVE_WITH_KNOTS ((3, 3), (0., 86.3937979737193), .UNSPECIFIED.)
   CURVE ()
   GEOMETRIC_REPRESENTATION_ITEM ()
   RATIONAL_B_SPLINE_CURVE ((1., 0.707106781186548, 1.))
   REPRESENTATION_ITEM ('')
);
#54 = CARTESIAN_POINT('', (55., 15., 4.54491453348926E-31));
#55 = CARTESIAN_POINT('', (55., 15., -55.));
#56 = CARTESIAN_POINT('', (8.03071540108089E-15, 15., -55.));
#57 = ORIENTED_EDGE('', *, *, #16, .T.);
#58 = ORIENTED_EDGE('', *, *, #59, .F.);
#59 = EDGE_CURVE('', #46, #8, #60, .T.);
#60 = (
   BOUNDED_CURVE ()
   B_SPLINE_CURVE (2, (#61, #62, #63), .UNSPECIFIED., .F., .U.)
   B_SPLINE_CURVE_WITH_KNOTS ((3, 3), (0., 62.8318530717959), .UNSPECIFIED.)
   CURVE ()
   GEOMETRIC_REPRESENTATION_ITEM ()
   RATIONAL_B_SPLINE_CURVE ((1., 0.707106781186548, 1.))
   REPRESENTATION_ITEM ('')
);
#61 = CARTESIAN_POINT('', (40., 15., 3.94430452610515E-32));
#62 = CARTESIAN_POINT('', (40., 15., -40.));
#63 = CARTESIAN_POINT('', (7.77836411649547E-15, 15., -40.));
#64 = B_SPLINE_SURFACE_WITH_KNOTS('', 1, 1, ((#65, #66), (#67, #68)), .UNSPECIFIED., .F., .F., .U., (2, 2), (2, 2), (0., 1.), (0., 1.), .UNSPECIFIED.);
#65 = CARTESIAN_POINT('', (-60.5, 15., 60.5));
#66 = CARTESIAN_POINT('', (-60.5, 15., -60.5));
#67 = CARTESIAN_POINT('', (60.5, 15., 60.5));
#68 = CARTESIAN_POINT('', (60.5, 15., -60.5));
#69 = ADVANCED_FACE('', (#70), #87, .T.);
#70 = FACE_OUTER_BOUND('', #71, .T.);
#71 = EDGE_LOOP('', (#72, #79, #85, #86));
#72 = ORIENTED_EDGE('', *, *, #73, .F.);
#73 = EDGE_CURVE('', #74, #44, #76, .T.);
#74 = VERTEX_POINT('', #75);
#75 = CARTESIAN_POINT('', (55., 0., 0.));
#76 = B_SPLINE_CURVE_WITH_KNOTS('', 1, (#77, #78), .UNSPECIFIED., .F., .U., (2, 2), (0., 1.), .UNSPECIFIED.);
#77 = CARTESIAN_POINT('', (55., 0., 0.));
#78 = CARTESIAN_POINT('', (55., 15., 0.));
#79 = ORIENTED_EDGE('', *, *, #80, .T.);
#80 = EDGE_CURVE('', #74, #24, #81, .T.);
#81 = (
   BOUNDED_CURVE ()
   B_SPLINE_CURVE (2, (#82, #83, #84), .UNSPECIFIED., .F., .U.)
   B_SPLINE_CURVE_WITH_KNOTS ((3, 3), (0., 1.), .UNSPECIFIED.)
   CURVE ()
   GEOMETRIC_REPRESENTATION_ITEM ()
   RATIONAL_B_SPLINE_CURVE ((1., 0.707106781186548, 1.))
   REPRESENTATION_ITEM ('')
);
#82 = CARTESIAN_POINT('', (55., 0., 0.));
#83 = CARTESIAN_POINT('', (55., 0., -55.));
#84 = CARTESIAN_POINT('', (3.36777869765522E-15, 0., -55.));
#85 = ORIENTED_EDGE('', *, *, #23, .T.);
#86 = ORIENTED_EDGE('', *, *, #52, .F.);
#87 = (
   BOUNDED_SURFACE ()
   B_SPLINE_SURFACE (2, 1, ((#88, #89), (#90, #91), (#92, #93)), .UNSPECIFIED., .F., .F., .U.)
   B_SPLINE_SURFACE_WITH_KNOTS ((3, 3), (2, 2), (0., 86.3937979737193), (0., 1.), .UNSPECIFIED.)
   GEOMETRIC_REPRESENTATION_ITEM ()
   RATIONAL_B_SPLINE_SURFACE (((1., 1.), (0.707106781186548, 0.707106781186548), (1., 1.)))
   REPRESENTATION_ITEM ('')
   SURFACE ()
);
#88 = CARTESIAN_POINT('', (55., 0., 4.54491453348926E-31));
#89 = CARTESIAN_POINT('', (55., 15., 4.54491453348926E-31));
#90 = CARTESIAN_POINT('', (55., 0., -55.));
#91 = CARTESIAN_POINT('', (55., 15., -55.));
#92 = CARTESIAN_POINT('', (8.03071540108089E-15, 0., -55.));
#93 = CARTESIAN_POINT('', (8.03071540108089E-15, 15., -55.));
#94 = ADVANCED_FACE('', (#95), #112, .T.);
#95 = FACE_OUTER_BOUND('', #96, .T.);
#96 = EDGE_LOOP('', (#97, #104, #110, #111));
#97 = ORIENTED_EDGE('', *, *, #98, .F.);
#98 = EDGE_CURVE('', #99, #74, #101, .T.);
#99 = VERTEX_POINT('', #100);
#100 = CARTESIAN_POINT('', (40., 0., 0.));
#101 = B_SPLINE_CURVE_WITH_KNOTS('', 1, (#102, #103), .UNSPECIFIED., .F., .U., (2, 2), (0., 1.), .UNSPECIFIED.);
#102 = CARTESIAN_POINT('', (40., 0., 0.));
#103 = CARTESIAN_POINT('', (55., 0., 0.));
#104 = ORIENTED_EDGE('', *, *, #105, .T.);
#105 = EDGE_CURVE('', #99, #10, #106, .T.);
#106 = (
   BOUNDED_CURVE ()
   B_SPLINE_CURVE (2, (#107, #108, #109), .UNSPECIFIED., .F., .U.)
   B_SPLINE_CURVE_WITH_KNOTS ((3, 3), (0., 62.8318530717959), .UNSPECIFIED.)
   CURVE ()
   GEOMETRIC_REPRESENTATION_ITEM ()
   RATIONAL_B_SPLINE_CURVE ((1., 0.707106781186548, 1.))
   REPRESENTATION_ITEM ('')
);
#107 = CARTESIAN_POINT('', (40., 0., 3.94430452610515E-32));
#108 = CARTESIAN_POINT('', (40., 0., -40.));
#109 = CARTESIAN_POINT('', (7.77836411649547E-15, 0., -40.));
#110 = ORIENTED_EDGE('', *, *, #30, .T.);
#111 = ORIENTED_EDGE('', *, *, #80, .F.);
#112 = B_SPLINE_SURFACE_WITH_KNOTS('', 1, 1, ((#113, #114), (#115, #116)), .UNSPECIFIED., .F., .F., .U., (2, 2), (2, 2), (0., 1.), (0., 1.), .UNSPECIFIED.);
#113 = CARTESIAN_POINT('', (-60.5, 0., 60.5));
#114 = CARTESIAN_POINT('', (60.5, 0., 60.5));
#115 = CARTESIAN_POINT('', (-60.5, 0., -60.5));
#116 = CARTESIAN_POINT('', (60.5, 0., -60.5));
#117 = ADVANCED_FACE('', (#118), #128, .T.);
#118 = FACE_OUTER_BOUND('', #119, .T.);
#119 = EDGE_LOOP('', (#120, #125, #126, #127));
#120 = ORIENTED_EDGE('', *, *, #121, .F.);
#121 = EDGE_CURVE('', #46, #99, #122, .T.);
#122 = B_SPLINE_CURVE_WITH_KNOTS('', 1, (#123, #124), .UNSPECIFIED., .F., .U., (2, 2), (0., 1.), .UNSPECIFIED.);
#123 = CARTESIAN_POINT('', (40., 15., 0.));
#124 = CARTESIAN_POINT('', (40., 0., 0.));
#125 = ORIENTED_EDGE('', *, *, #59, .T.);
#126 = ORIENTED_EDGE('', *, *, #7, .T.);
#127 = ORIENTED_EDGE('', *, *, #105, .F.);
#128 = (
   BOUNDED_SURFACE ()
   B_SPLINE_SURFACE (2, 1, ((#129, #130), (#131, #132), (#133, #134)), .UNSPECIFIED., .F., .F., .U.)
   B_SPLINE_SURFACE_WITH_KNOTS ((3, 3), (2, 2), (0., 62.8318530717959), (0., 1.), .UNSPECIFIED.)
   GEOMETRIC_REPRESENTATION_ITEM ()
   RATIONAL_B_SPLINE_SURFACE (((1., 1.), (0.707106781186548, 0.707106781186548), (1., 1.)))
   REPRESENTATION_ITEM ('')
   SURFACE ()
);
#129 = CARTESIAN_POINT('', (40., 15., 3.94430452610515E-32));
#130 = CARTESIAN_POINT('', (40., 0., 3.94430452610515E-32));
#131 = CARTESIAN_POINT('', (40., 15., -40.));
#132 = CARTESIAN_POINT('', (40., 0., -40.));
#133 = CARTESIAN_POINT('', (7.77836411649547E-15, 15., -40.));
#134 = CARTESIAN_POINT('', (7.77836411649547E-15, 0., -40.));
#135 = ADVANCED_FACE('', (#136), #142, .T.);
#136 = FACE_OUTER_BOUND('', #137, .T.);
#137 = EDGE_LOOP('', (#138, #139, #140, #141));
#138 = ORIENTED_EDGE('', *, *, #121, .T.);
#139 = ORIENTED_EDGE('', *, *, #98, .T.);
#140 = ORIENTED_EDGE('', *, *, #73, .T.);
#141 = ORIENTED_EDGE('', *, *, #43, .T.);
#142 = B_SPLINE_SURFACE_WITH_KNOTS('', 1, 1, ((#143, #144), (#145, #146)), .UNSPECIFIED., .F., .F., .U., (2, 2), (2, 2), (0., 1.), (0., 1.), .UNSPECIFIED.);
#143 = CARTESIAN_POINT('', (59.167261889578, -4.16726188957804, 0.));
#144 = CARTESIAN_POINT('', (35.832738110422, -4.16726188957804, 0.));
#145 = CARTESIAN_POINT('', (59.167261889578, 19.167261889578, 0.));
#146 = CARTESIAN_POINT('', (35.832738110422, 19.167261889578, 0.));
#147 = DRAUGHTING_MODEL('', (#155, #325, #511), #514);
#148 = PRESENTATION_STYLE_ASSIGNMENT((#149));
#149 = SURFACE_STYLE_USAGE(.POSITIVE., #150);
#150 = SURFACE_SIDE_STYLE('', (#151));
#151 = SURFACE_STYLE_FILL_AREA(#152);
#152 = FILL_AREA_STYLE('', (#153));
#153 = FILL_AREA_STYLE_COLOUR('', #154);
#154 = COLOUR_RGB('', 0.50196078431373, 0.50196078431373, 0.50196078431373);
#155 = STYLED_ITEM('', (#148), #1);
#156 = MANIFOLD_SOLID_BREP('Solid0', #157);
#157 = CLOSED_SHELL('', (#158, #194, #228, #259, #284, #306));
#158 = ADVANCED_FACE('', (#159), #189, .T.);
#159 = FACE_OUTER_BOUND('', #160, .T.);
#160 = EDGE_LOOP('', (#161, #170, #177, #184));
#161 = ORIENTED_EDGE('', *, *, #162, .F.);
#162 = EDGE_CURVE('', #163, #165, #167, .T.);
#163 = VERTEX_POINT('', #164);
#164 = CARTESIAN_POINT('', (-40., 45., -4.89858719658941E-15));
#165 = VERTEX_POINT('', #166);
#166 = CARTESIAN_POINT('', (-40., 30., -4.89858719658941E-15));
#167 = B_SPLINE_CURVE_WITH_KNOTS('', 1, (#168, #169), .UNSPECIFIED., .F., .U., (2, 2), (0., 1.), .UNSPECIFIED.);
#168 = CARTESIAN_POINT('', (-40., 45., -4.89858719658941E-15));
#169 = CARTESIAN_POINT('', (-40., 30., -4.89858719658941E-15));
#170 = ORIENTED_EDGE('', *, *, #171, .F.);
#171 = EDGE_CURVE('', #172, #163, #174, .T.);
#172 = VERTEX_POINT('', #173);
#173 = CARTESIAN_POINT('', (-55., 45., -6.73555739531044E-15));
#174 = B_SPLINE_CURVE_WITH_KNOTS('', 1, (#175, #176), .UNSPECIFIED., .F., .U., (2, 2), (0., 1.), .UNSPECIFIED.);
#175 = CARTESIAN_POINT('', (-55., 45., -6.73555739531044E-15));
#176 = CARTESIAN_POINT('', (-40., 45., -4.89858719658941E-15));
#177 = ORIENTED_EDGE('', *, *, #178, .F.);
#178 = EDGE_CURVE('', #179, #172, #181, .T.);
#179 = VERTEX_POINT('', #180);
#180 = CARTESIAN_POINT('', (-55., 30., -6.73555739531044E-15));
#181 = B_SPLINE_CURVE_WITH_KNOTS('', 1, (#182, #183), .UNSPECIFIED., .F., .U., (2, 2), (0., 1.), .UNSPECIFIED.);
#182 = CARTESIAN_POINT('', (-55., 30., -6.73555739531044E-15));
#183 = CARTESIAN_POINT('', (-55., 45., -6.73555739531044E-15));
#184 = ORIENTED_EDGE('', *, *, #185, .F.);
#185 = EDGE_CURVE('', #165, #179, #186, .T.);
#186 = B_SPLINE_CURVE_WITH_KNOTS('', 1, (#187, #188), .UNSPECIFIED., .F., .U., (2, 2), (0., 1.), .UNSPECIFIED.);
#187 = CARTESIAN_POINT('', (-40., 30., -4.89858719658941E-15));
#188 = CARTESIAN_POINT('', (-55., 30., -6.73555739531044E-15));
#189 = B_SPLINE_SURFACE_WITH_KNOTS('', 1, 1, ((#190, #191), (#192, #193)), .UNSPECIFIED., .F., .F., .U., (2, 2), (2, 2), (0., 1.), (0., 1.), .UNSPECIFIED.);
#190 = CARTESIAN_POINT('', (-59.167261889578, 25.832738110422, -7.24589978873849E-15));
#191 = CARTESIAN_POINT('', (-59.167261889578, 49.167261889578, -7.24589978873849E-15));
#192 = CARTESIAN_POINT('', (-35.832738110422, 25.832738110422, -4.38824480316136E-15));
#193 = CARTESIAN_POINT('', (-35.832738110422, 49.167261889578, -4.38824480316136E-15));
#194 = ADVANCED_FACE('', (#195), #223, .T.);
#195 = FACE_OUTER_BOUND('', #196, .T.);
#196 = EDGE_LOOP('', (#197, #206, #214, #215));
#197 = ORIENTED_EDGE('', *, *, #198, .F.);
#198 = EDGE_CURVE('', #199, #201, #203, .T.);
#199 = VERTEX_POINT('', #200);
#200 = CARTESIAN_POINT('', (55., 45., 0.));
#201 = VERTEX_POINT('', #202);
#202 = CARTESIAN_POINT('', (40., 45., 0.));
#203 = B_SPLINE_CURVE_WITH_KNOTS('', 1, (#204, #205), .UNSPECIFIED., .F., .U., (2, 2), (0., 1.), .UNSPECIFIED.);
#204 = CARTESIAN_POINT('', (55., 45., 0.));
#205 = CARTESIAN_POINT('', (40., 45., 0.));
#206 = ORIENTED_EDGE('', *, *, #207, .T.);
#207 = EDGE_CURVE('', #199, #172, #208, .T.);
#208 = (
   BOUNDED_CURVE ()
   B_SPLINE_CURVE (2, (#209, #210, #211, #212, #213), .UNSPECIFIED., .F., .U.)
   B_SPLINE_CURVE_WITH_KNOTS ((3, 2, 3), (0., 86.3937979737193, 172.787595947439), .UNSPECIFIED.)
   CURVE ()
   GEOMETRIC_REPRESENTATION_ITEM ()
   RATIONAL_B_SPLINE_CURVE ((1., 0.707106781186548, 1., 0.707106781186548, 1.))
   REPRESENTATION_ITEM ('')
);
#209 = CARTESIAN_POINT('', (55., 45., -1.70098132688281E-30));
#210 = CARTESIAN_POINT('', (55., 45., -55.));
#211 = CARTESIAN_POINT('', (-3.73764865994578E-15, 45., -55.));
#212 = CARTESIAN_POINT('', (-55., 45., -55.));
#213 = CARTESIAN_POINT('', (-55., 45., -2.09464121105124E-14));
#214 = ORIENTED_EDGE('', *, *, #171, .T.);
#215 = ORIENTED_EDGE('', *, *, #216, .F.);
#216 = EDGE_CURVE('', #201, #163, #217, .T.);
#217 = (
   BOUNDED_CURVE ()
   B_SPLINE_CURVE (2, (#218, #219, #220, #221, #222), .UNSPECIFIED., .F., .U.)
   B_SPLINE_CURVE_WITH_KNOTS ((3, 2, 3), (0., 62.8318530717959, 125.663706143592), .UNSPECIFIED.)
   CURVE ()
   GEOMETRIC_REPRESENTATION_ITEM ()
   RATIONAL_B_SPLINE_CURVE ((1., 0.707106781186548, 1., 0.707106781186548, 1.))
   REPRESENTATION_ITEM ('')
);
#218 = CARTESIAN_POINT('', (40., 45., 0.));
#219 = CARTESIAN_POINT('', (40., 45., -40.));
#220 = CARTESIAN_POINT('', (9.55472095589571E-15, 45., -40.));
#221 = CARTESIAN_POINT('', (-40., 45., -40.));
#222 = CARTESIAN_POINT('', (-40., 45., -4.89858719658941E-15));
#223 = B_SPLINE_SURFACE_WITH_KNOTS('', 1, 1, ((#224, #225), (#226, #227)), .UNSPECIFIED., .F., .F., .U., (2, 2), (2, 2), (0., 1.), (0., 1.), .UNSPECIFIED.);
#224 = CARTESIAN_POINT('', (-60.5, 45., 60.5));
#225 = CARTESIAN_POINT('', (-60.5, 45., -60.5));
#226 = CARTESIAN_POINT('', (60.5, 45., 60.5));
#227 = CARTESIAN_POINT('', (60.5, 45., -60.5));
#228 = ADVANCED_FACE('', (#229), #248, .T.);
#229 = FACE_OUTER_BOUND('', #230, .T.);
#230 = EDGE_LOOP('', (#231, #238, #246, #247));
#231 = ORIENTED_EDGE('', *, *, #232, .F.);
#232 = EDGE_CURVE('', #233, #199, #235, .T.);
#233 = VERTEX_POINT('', #234);
#234 = CARTESIAN_POINT('', (55., 30., 0.));
#235 = B_SPLINE_CURVE_WITH_KNOTS('', 1, (#236, #237), .UNSPECIFIED., .F., .U., (2, 2), (0., 1.), .UNSPECIFIED.);
#236 = CARTESIAN_POINT('', (55., 30., 0.));
#237 = CARTESIAN_POINT('', (55., 45., 0.));
#238 = ORIENTED_EDGE('', *, *, #239, .T.);
#239 = EDGE_CURVE('', #233, #179, #240, .T.);
#240 = (
   BOUNDED_CURVE ()
   B_SPLINE_CURVE (2, (#241, #242, #243, #244, #245), .UNSPECIFIED., .F., .U.)
   B_SPLINE_CURVE_WITH_KNOTS ((3, 2, 3), (0., 0.5, 1.), .UNSPECIFIED.)
   CURVE ()
   GEOMETRIC_REPRESENTATION_ITEM ()
   RATIONAL_B_SPLINE_CURVE ((1., 0.707106781186548, 1., 0.707106781186548, 1.))
   REPRESENTATION_ITEM ('')
);
#241 = CARTESIAN_POINT('', (55., 30., 0.));
#242 = CARTESIAN_POINT('', (55., 30., -55.));
#243 = CARTESIAN_POINT('', (3.36777869765522E-15, 30., -55.));
#244 = CARTESIAN_POINT('', (-55., 30., -55.));
#245 = CARTESIAN_POINT('', (-55., 30., -6.73555739531044E-15));
#246 = ORIENTED_EDGE('', *, *, #178, .T.);
#247 = ORIENTED_EDGE('', *, *, #207, .F.);
#248 = (
   BOUNDED_SURFACE ()
   B_SPLINE_SURFACE (2, 1, ((#249, #250), (#251, #252), (#253, #254), (#255, #256), (#257, #258)), .UNSPECIFIED., .F., .F., .U.)
   B_SPLINE_SURFACE_WITH_KNOTS ((3, 2, 3), (2, 2), (0., 86.3937979737193, 172.787595947439), (0., 1.), .UNSPECIFIED.)
   GEOMETRIC_REPRESENTATION_ITEM ()
   RATIONAL_B_SPLINE_SURFACE (((1., 1.), (0.707106781186548, 0.707106781186548), (1., 1.), (0.707106781186548, 0.707106781186548), (1., 1.)))
   REPRESENTATION_ITEM ('')
   SURFACE ()
);
#249 = CARTESIAN_POINT('', (55., 30., -1.70098132688281E-30));
#250 = CARTESIAN_POINT('', (55., 45., -1.70098132688281E-30));
#251 = CARTESIAN_POINT('', (55., 30., -55.));
#252 = CARTESIAN_POINT('', (55., 45., -55.));
#253 = CARTESIAN_POINT('', (-3.73764865994578E-15, 30., -55.));
#254 = CARTESIAN_POINT('', (-3.73764865994578E-15, 45., -55.));
#255 = CARTESIAN_POINT('', (-55., 30., -55.));
#256 = CARTESIAN_POINT('', (-55., 45., -55.));
#257 = CARTESIAN_POINT('', (-55., 30., -2.09464121105124E-14));
#258 = CARTESIAN_POINT('', (-55., 45., -2.09464121105124E-14));
#259 = ADVANCED_FACE('', (#260), #279, .T.);
#260 = FACE_OUTER_BOUND('', #261, .T.);
#261 = EDGE_LOOP('', (#262, #269, #277, #278));
#262 = ORIENTED_EDGE('', *, *, #263, .F.);
#263 = EDGE_CURVE('', #264, #233, #266, .T.);
#264 = VERTEX_POINT('', #265);
#265 = CARTESIAN_POINT('', (40., 30., 0.));
#266 = B_SPLINE_CURVE_WITH_KNOTS('', 1, (#267, #268), .UNSPECIFIED., .F., .U., (2, 2), (0., 1.), .UNSPECIFIED.);
#267 = CARTESIAN_POINT('', (40., 30., 0.));
#268 = CARTESIAN_POINT('', (55., 30., 0.));
#269 = ORIENTED_EDGE('', *, *, #270, .T.);
#270 = EDGE_CURVE('', #264, #165, #271, .T.);
#271 = (
   BOUNDED_CURVE ()
   B_SPLINE_CURVE (2, (#272, #273, #274, #275, #276), .UNSPECIFIED., .F., .U.)
   B_SPLINE_CURVE_WITH_KNOTS ((3, 2, 3), (0., 62.8318530717959, 125.663706143592), .UNSPECIFIED.)
   CURVE ()
   GEOMETRIC_REPRESENTATION_ITEM ()
   RATIONAL_B_SPLINE_CURVE ((1., 0.707106781186548, 1., 0.707106781186548, 1.))
   REPRESENTATION_ITEM ('')
);
#272 = CARTESIAN_POINT('', (40., 30., 0.));
#273 = CARTESIAN_POINT('', (40., 30., -40.));
#274 = CARTESIAN_POINT('', (9.55472095589571E-15, 30., -40.));
#275 = CARTESIAN_POINT('', (-40., 30., -40.));
#276 = CARTESIAN_POINT('', (-40., 30., -4.89858719658941E-15));
#277 = ORIENTED_EDGE('', *, *, #185, .T.);
#278 = ORIENTED_EDGE('', *, *, #239, .F.);
#279 = B_SPLINE_SURFACE_WITH_KNOTS('', 1, 1, ((#280, #281), (#282, #283)), .UNSPECIFIED., .F., .F., .U., (2, 2), (2, 2), (0., 1.), (0., 1.), .UNSPECIFIED.);
#280 = CARTESIAN_POINT('', (-60.5, 30., 60.5));
#281 = CARTESIAN_POINT('', (60.5, 30., 60.5));
#282 = CARTESIAN_POINT('', (-60.5, 30., -60.5));
#283 = CARTESIAN_POINT('', (60.5, 30., -60.5));
#284 = ADVANCED_FACE('', (#285), #295, .T.);
#285 = FACE_OUTER_BOUND('', #286, .T.);
#286 = EDGE_LOOP('', (#287, #292, #293, #294));
#287 = ORIENTED_EDGE('', *, *, #288, .F.);
#288 = EDGE_CURVE('', #201, #264, #289, .T.);
#289 = B_SPLINE_CURVE_WITH_KNOTS('', 1, (#290, #291), .UNSPECIFIED., .F., .U., (2, 2), (0., 1.), .UNSPECIFIED.);
#290 = CARTESIAN_POINT('', (40., 45., 0.));
#291 = CARTESIAN_POINT('', (40., 30., 0.));
#292 = ORIENTED_EDGE('', *, *, #216, .T.);
#293 = ORIENTED_EDGE('', *, *, #162, .T.);
#294 = ORIENTED_EDGE('', *, *, #270, .F.);
#295 = (
   BOUNDED_SURFACE ()
   B_SPLINE_SURFACE (2, 1, ((#296, #297), (#298, #299), (#300, #301), (#302, #303), (#304, #305)), .UNSPECIFIED., .F., .F., .U.)
   B_SPLINE_SURFACE_WITH_KNOTS ((3, 2, 3), (2, 2), (0., 62.8318530717959, 125.663706143592), (0., 1.), .UNSPECIFIED.)
   GEOMETRIC_REPRESENTATION_ITEM ()
   RATIONAL_B_SPLINE_SURFACE (((1., 1.), (0.707106781186548, 0.707106781186548), (1., 1.), (0.707106781186548, 0.707106781186548), (1., 1.)))
   REPRESENTATION_ITEM ('')
   SURFACE ()
);
#296 = CARTESIAN_POINT('', (40., 45., 0.));
#297 = CARTESIAN_POINT('', (40., 30., 0.));
#298 = CARTESIAN_POINT('', (40., 45., -40.));
#299 = CARTESIAN_POINT('', (40., 30., -40.));
#300 = CARTESIAN_POINT('', (9.55472095589571E-15, 45., -40.));
#301 = CARTESIAN_POINT('', (9.55472095589571E-15, 30., -40.));
#302 = CARTESIAN_POINT('', (-40., 45., -40.));
#303 = CARTESIAN_POINT('', (-40., 30., -40.));
#304 = CARTESIAN_POINT('', (-40., 45., -4.89858719658941E-15));
#305 = CARTESIAN_POINT('', (-40., 30., -4.89858719658941E-15));
#306 = ADVANCED_FACE('', (#307), #313, .T.);
#307 = FACE_OUTER_BOUND('', #308, .T.);
#308 = EDGE_LOOP('', (#309, #310, #311, #312));
#309 = ORIENTED_EDGE('', *, *, #288, .T.);
#310 = ORIENTED_EDGE('', *, *, #263, .T.);
#311 = ORIENTED_EDGE('', *, *, #232, .T.);
#312 = ORIENTED_EDGE('', *, *, #198, .T.);
#313 = B_SPLINE_SURFACE_WITH_KNOTS('', 1, 1, ((#314, #315), (#316, #317)), .UNSPECIFIED., .F., .F., .U., (2, 2), (2, 2), (0., 1.), (0., 1.), .UNSPECIFIED.);
#314 = CARTESIAN_POINT('', (59.167261889578, 25.832738110422, 0.));
#315 = CARTESIAN_POINT('', (35.832738110422, 25.832738110422, 0.));
#316 = CARTESIAN_POINT('', (59.167261889578, 49.167261889578, 0.));
#317 = CARTESIAN_POINT('', (35.832738110422, 49.167261889578, 0.));
#318 = PRESENTATION_STYLE_ASSIGNMENT((#319));
#319 = SURFACE_STYLE_USAGE(.POSITIVE., #320);
#320 = SURFACE_SIDE_STYLE('', (#321));
#321 = SURFACE_STYLE_FILL_AREA(#322);
#322 = FILL_AREA_STYLE('', (#323));
#323 = FILL_AREA_STYLE_COLOUR('', #324);
#324 = COLOUR_RGB('', 0.50196078431373, 0.50196078431373, 0.50196078431373);
#325 = STYLED_ITEM('', (#318), #156);
#326 = MANIFOLD_SOLID_BREP('Solid1', #327);
#327 = CLOSED_SHELL('', (#328, #364, #402, #439, #466, #492));
#328 = ADVANCED_FACE('', (#329), #359, .T.);
#329 = FACE_OUTER_BOUND('', #330, .T.);
#330 = EDGE_LOOP('', (#331, #340, #347, #354));
#331 = ORIENTED_EDGE('', *, *, #332, .F.);
#332 = EDGE_CURVE('', #333, #335, #337, .T.);
#333 = VERTEX_POINT('', #334);
#334 = CARTESIAN_POINT('', (-7.34788079488412E-15, 75., 40.));
#335 = VERTEX_POINT('', #336);
#336 = CARTESIAN_POINT('', (-7.34788079488412E-15, 60., 40.));
#337 = B_SPLINE_CURVE_WITH_KNOTS('', 1, (#338, #339), .UNSPECIFIED., .F., .U., (2, 2), (0., 1.), .UNSPECIFIED.);
#338 = CARTESIAN_POINT('', (-7.34788079488412E-15, 75., 40.));
#339 = CARTESIAN_POINT('', (-7.34788079488412E-15, 60., 40.));
#340 = ORIENTED_EDGE('', *, *, #341, .F.);
#341 = EDGE_CURVE('', #342, #333, #344, .T.);
#342 = VERTEX_POINT('', #343);
#343 = CARTESIAN_POINT('', (-1.01033360929657E-14, 75., 55.));
#344 = B_SPLINE_CURVE_WITH_KNOTS('', 1, (#345, #346), .UNSPECIFIED., .F., .U., (2, 2), (0., 1.), .UNSPECIFIED.);
#345 = CARTESIAN_POINT('', (-1.01033360929657E-14, 75., 55.));
#346 = CARTESIAN_POINT('', (-7.34788079488412E-15, 75., 40.));
#347 = ORIENTED_EDGE('', *, *, #348, .F.);
#348 = EDGE_CURVE('', #349, #342, #351, .T.);
#349 = VERTEX_POINT('', #350);
#350 = CARTESIAN_POINT('', (-1.01033360929657E-14, 60., 55.));
#351 = B_SPLINE_CURVE_WITH_KNOTS('', 1, (#352, #353), .UNSPECIFIED., .F., .U., (2, 2), (0., 1.), .UNSPECIFIED.);
#352 = CARTESIAN_POINT('', (-1.01033360929657E-14, 60., 55.));
#353 = CARTESIAN_POINT('', (-1.01033360929657E-14, 75., 55.));
#354 = ORIENTED_EDGE('', *, *, #355, .F.);
#355 = EDGE_CURVE('', #335, #349, #356, .T.);
#356 = B_SPLINE_CURVE_WITH_KNOTS('', 1, (#357, #358), .UNSPECIFIED., .F., .U., (2, 2), (0., 1.), .UNSPECIFIED.);
#357 = CARTESIAN_POINT('', (-7.34788079488412E-15, 60., 40.));
#358 = CARTESIAN_POINT('', (-1.01033360929657E-14, 60., 55.));
#359 = B_SPLINE_SURFACE_WITH_KNOTS('', 1, 1, ((#360, #361), (#362, #363)), .UNSPECIFIED., .F., .F., .U., (2, 2), (2, 2), (0., 1.), (0., 1.), .UNSPECIFIED.);
#360 = CARTESIAN_POINT('', (-1.08688496831077E-14, 55.832738110422, 59.167261889578));
#361 = CARTESIAN_POINT('', (-1.08688496831077E-14, 79.167261889578, 59.167261889578));
#362 = CARTESIAN_POINT('', (-6.58236720474205E-15, 55.832738110422, 35.832738110422));
#363 = CARTESIAN_POINT('', (-6.58236720474205E-15, 79.167261889578, 35.832738110422));
#364 = ADVANCED_FACE('', (#365), #397, .T.);
#365 = FACE_OUTER_BOUND('', #366, .T.);
#366 = EDGE_LOOP('', (#367, #376, #386, #387));
#367 = ORIENTED_EDGE('', *, *, #368, .F.);
#368 = EDGE_CURVE('', #369, #371, #373, .T.);
#369 = VERTEX_POINT('', #370);
#370 = CARTESIAN_POINT('', (55., 75., 0.));
#371 = VERTEX_POINT('', #372);
#372 = CARTESIAN_POINT('', (40., 75., 0.));
#373 = B_SPLINE_CURVE_WITH_KNOTS('', 1, (#374, #375), .UNSPECIFIED., .F., .U., (2, 2), (0., 1.), .UNSPECIFIED.);
#374 = CARTESIAN_POINT('', (55., 75., 0.));
#375 = CARTESIAN_POINT('', (40., 75., 0.));
#376 = ORIENTED_EDGE('', *, *, #377, .T.);
#377 = EDGE_CURVE('', #369, #342, #378, .T.);
#378 = (
   BOUNDED_CURVE ()
   B_SPLINE_CURVE (2, (#379, #380, #381, #382, #383, #384, #385), .UNSPECIFIED., .F., .U.)
   B_SPLINE_CURVE_WITH_KNOTS ((3, 2, 2, 3), (0., 86.3937979737193, 172.787595947439, 259.181393921158), .UNSPECIFIED.)
   CURVE ()
   GEOMETRIC_REPRESENTATION_ITEM ()
   RATIONAL_B_SPLINE_CURVE ((1., 0.707106781186548, 1., 0.707106781186548, 1., 0.707106781186548, 1.))
   REPRESENTATION_ITEM ('')
);
#379 = CARTESIAN_POINT('', (55., 75., -3.72243739651165E-30));
#380 = CARTESIAN_POINT('', (55., 75., -55.));
#381 = CARTESIAN_POINT('', (6.92049237645572E-15, 75., -55.));
#382 = CARTESIAN_POINT('', (-55., 75., -55.));
#383 = CARTESIAN_POINT('', (-55., 75., 7.47529731989156E-15));
#384 = CARTESIAN_POINT('', (-55., 75., 55.));
#385 = CARTESIAN_POINT('', (7.66023230103684E-15, 75., 55.));
#386 = ORIENTED_EDGE('', *, *, #341, .T.);
#387 = ORIENTED_EDGE('', *, *, #388, .F.);
#388 = EDGE_CURVE('', #371, #333, #389, .T.);
#389 = (
   BOUNDED_CURVE ()
   B_SPLINE_CURVE (2, (#390, #391, #392, #393, #394, #395, #396), .UNSPECIFIED., .F., .U.)
   B_SPLINE_CURVE_WITH_KNOTS ((3, 2, 2, 3), (0., 62.8318530717959, 125.663706143592, 188.495559215388), .UNSPECIFIED.)
   CURVE ()
   GEOMETRIC_REPRESENTATION_ITEM ()
   RATIONAL_B_SPLINE_CURVE ((1., 0.707106781186548, 1., 0.707106781186548, 1., 0.707106781186548, 1.))
   REPRESENTATION_ITEM ('')
);
#390 = CARTESIAN_POINT('', (40., 75., -1.97215226305253E-31));
#391 = CARTESIAN_POINT('', (40., 75., -40.));
#392 = CARTESIAN_POINT('', (-1.10342008050579E-15, 75., -40.));
#393 = CARTESIAN_POINT('', (-40., 75., -40.));
#394 = CARTESIAN_POINT('', (-40., 75., 2.20684016101159E-15));
#395 = CARTESIAN_POINT('', (-40., 75., 40.));
#396 = CARTESIAN_POINT('', (-3.79516711608362E-15, 75., 40.));
#397 = B_SPLINE_SURFACE_WITH_KNOTS('', 1, 1, ((#398, #399), (#400, #401)), .UNSPECIFIED., .F., .F., .U., (2, 2), (2, 2), (0., 1.), (0., 1.), .UNSPECIFIED.);
#398 = CARTESIAN_POINT('', (-60.5, 75., 60.5));
#399 = CARTESIAN_POINT('', (-60.5, 75., -60.5));
#400 = CARTESIAN_POINT('', (60.5, 75., 60.5));
#401 = CARTESIAN_POINT('', (60.5, 75., -60.5));
#402 = ADVANCED_FACE('', (#403), #424, .T.);
#403 = FACE_OUTER_BOUND('', #404, .T.);
#404 = EDGE_LOOP('', (#405, #412, #422, #423));
#405 = ORIENTED_EDGE('', *, *, #406, .F.);
#406 = EDGE_CURVE('', #407, #369, #409, .T.);
#407 = VERTEX_POINT('', #408);
#408 = CARTESIAN_POINT('', (55., 60., 0.));
#409 = B_SPLINE_CURVE_WITH_KNOTS('', 1, (#410, #411), .UNSPECIFIED., .F., .U., (2, 2), (0., 1.), .UNSPECIFIED.);
#410 = CARTESIAN_POINT('', (55., 60., 0.));
#411 = CARTESIAN_POINT('', (55., 75., 0.));
#412 = ORIENTED_EDGE('', *, *, #413, .T.);
#413 = EDGE_CURVE('', #407, #349, #414, .T.);
#414 = (
   BOUNDED_CURVE ()
   B_SPLINE_CURVE (2, (#415, #416, #417, #418, #419, #420, #421), .UNSPECIFIED., .F., .U.)
   B_SPLINE_CURVE_WITH_KNOTS ((3, 2, 2, 3), (0., 0.333333333333333, 0.666666666666667, 1.), .UNSPECIFIED.)
   CURVE ()
   GEOMETRIC_REPRESENTATION_ITEM ()
   RATIONAL_B_SPLINE_CURVE ((1., 0.707106781186548, 1., 0.707106781186548, 1., 0.707106781186548, 1.))
   REPRESENTATION_ITEM ('')
);
#415 = CARTESIAN_POINT('', (55., 60., 0.));
#416 = CARTESIAN_POINT('', (55., 60., -55.));
#417 = CARTESIAN_POINT('', (3.36777869765522E-15, 60., -55.));
#418 = CARTESIAN_POINT('', (-55., 60., -55.));
#419 = CARTESIAN_POINT('', (-55., 60., -6.73555739531044E-15));
#420 = CARTESIAN_POINT('', (-55., 60., 55.));
#421 = CARTESIAN_POINT('', (-1.01033360929657E-14, 60., 55.));
#422 = ORIENTED_EDGE('', *, *, #348, .T.);
#423 = ORIENTED_EDGE('', *, *, #377, .F.);
#424 = (
   BOUNDED_SURFACE ()
   B_SPLINE_SURFACE (2, 1, ((#425, #426), (#427, #428), (#429, #430), (#431, #432), (#433, #434), (#435, #436), (#437, #438)), .UNSPECIFIED., .F., .F., .U.)
   B_SPLINE_SURFACE_WITH_KNOTS ((3, 2, 2, 3), (2, 2), (0., 86.3937979737193, 172.787595947439, 259.181393921158), (0., 1.), .UNSPECIFIED.)
   GEOMETRIC_REPRESENTATION_ITEM ()
   RATIONAL_B_SPLINE_SURFACE (((1., 1.), (0.707106781186548, 0.707106781186548), (1., 1.), (0.707106781186548, 0.707106781186548), (1., 1.), (0.707106781186548, 0.707106781186548), (1., 1.)))
   REPRESENTATION_ITEM ('')
   SURFACE ()
);
#425 = CARTESIAN_POINT('', (55., 60., -3.72243739651165E-30));
#426 = CARTESIAN_POINT('', (55., 75., -3.72243739651165E-30));
#427 = CARTESIAN_POINT('', (55., 60., -55.));
#428 = CARTESIAN_POINT('', (55., 75., -55.));
#429 = CARTESIAN_POINT('', (6.92049237645572E-15, 60., -55.));
#430 = CARTESIAN_POINT('', (6.92049237645572E-15, 75., -55.));
#431 = CARTESIAN_POINT('', (-55., 60., -55.));
#432 = CARTESIAN_POINT('', (-55., 75., -55.));
#433 = CARTESIAN_POINT('', (-55., 60., 7.47529731989156E-15));
#434 = CARTESIAN_POINT('', (-55., 75., 7.47529731989156E-15));
#435 = CARTESIAN_POINT('', (-55., 60., 55.));
#436 = CARTESIAN_POINT('', (-55., 75., 55.));
#437 = CARTESIAN_POINT('', (7.66023230103684E-15, 60., 55.));
#438 = CARTESIAN_POINT('', (7.66023230103684E-15, 75., 55.));
#439 = ADVANCED_FACE('', (#440), #461, .T.);
#440 = FACE_OUTER_BOUND('', #441, .T.);
#441 = EDGE_LOOP('', (#442, #449, #459, #460));
#442 = ORIENTED_EDGE('', *, *, #443, .F.);
#443 = EDGE_CURVE('', #444, #407, #446, .T.);
#444 = VERTEX_POINT('', #445);
#445 = CARTESIAN_POINT('', (40., 60., 0.));
#446 = B_SPLINE_CURVE_WITH_KNOTS('', 1, (#447, #448), .UNSPECIFIED., .F., .U., (2, 2), (0., 1.), .UNSPECIFIED.);
#447 = CARTESIAN_POINT('', (40., 60., 0.));
#448 = CARTESIAN_POINT('', (55., 60., 0.));
#449 = ORIENTED_EDGE('', *, *, #450, .T.);
#450 = EDGE_CURVE('', #444, #335, #451, .T.);
#451 = (
   BOUNDED_CURVE ()
   B_SPLINE_CURVE (2, (#452, #453, #454, #455, #456, #457, #458), .UNSPECIFIED., .F., .U.)
   B_SPLINE_CURVE_WITH_KNOTS ((3, 2, 2, 3), (0., 62.8318530717959, 125.663706143592, 188.495559215388), .UNSPECIFIED.)
   CURVE ()
   GEOMETRIC_REPRESENTATION_ITEM ()
   RATIONAL_B_SPLINE_CURVE ((1., 0.707106781186548, 1., 0.707106781186548, 1., 0.707106781186548, 1.))
   REPRESENTATION_ITEM ('')
);
#452 = CARTESIAN_POINT('', (40., 60., -1.97215226305253E-31));
#453 = CARTESIAN_POINT('', (40., 60., -40.));
#454 = CARTESIAN_POINT('', (-1.10342008050579E-15, 60., -40.));
#455 = CARTESIAN_POINT('', (-40., 60., -40.));
#456 = CARTESIAN_POINT('', (-40., 60., 2.20684016101159E-15));
#457 = CARTESIAN_POINT('', (-40., 60., 40.));
#458 = CARTESIAN_POINT('', (-3.79516711608362E-15, 60., 40.));
#459 = ORIENTED_EDGE('', *, *, #355, .T.);
#460 = ORIENTED_EDGE('', *, *, #413, .F.);
#461 = B_SPLINE_SURFACE_WITH_KNOTS('', 1, 1, ((#462, #463), (#464, #465)), .UNSPECIFIED., .F., .F., .U., (2, 2), (2, 2), (0., 1.), (0., 1.), .UNSPECIFIED.);
#462 = CARTESIAN_POINT('', (-60.5, 60., 60.5));
#463 = CARTESIAN_POINT('', (60.5, 60., 60.5));
#464 = CARTESIAN_POINT('', (-60.5, 60., -60.5));
#465 = CARTESIAN_POINT('', (60.5, 60., -60.5));
#466 = ADVANCED_FACE('', (#467), #477, .T.);
#467 = FACE_OUTER_BOUND('', #468, .T.);
#468 = EDGE_LOOP('', (#469, #474, #475, #476));
#469 = ORIENTED_EDGE('', *, *, #470, .F.);
#470 = EDGE_CURVE('', #371, #444, #471, .T.);
#471 = B_SPLINE_CURVE_WITH_KNOTS('', 1, (#472, #473), .UNSPECIFIED., .F., .U., (2, 2), (0., 1.), .UNSPECIFIED.);
#472 = CARTESIAN_POINT('', (40., 75., 0.));
#473 = CARTESIAN_POINT('', (40., 60., 0.));
#474 = ORIENTED_EDGE('', *, *, #388, .T.);
#475 = ORIENTED_EDGE('', *, *, #332, .T.);
#476 = ORIENTED_EDGE('', *, *, #450, .F.);
#477 = (
   BOUNDED_SURFACE ()
   B_SPLINE_SURFACE (2, 1, ((#478, #479), (#480, #481), (#482, #483), (#484, #485), (#486, #487), (#488, #489), (#490, #491)), .UNSPECIFIED., .F., .F., .U.)
   B_SPLINE_SURFACE_WITH_KNOTS ((3, 2, 2, 3), (2, 2), (0., 62.8318530717959, 125.663706143592, 188.495559215388), (0., 1.), .UNSPECIFIED.)
   GEOMETRIC_REPRESENTATION_ITEM ()
   RATIONAL_B_SPLINE_SURFACE (((1., 1.), (0.707106781186548, 0.707106781186548), (1., 1.), (0.707106781186548, 0.707106781186548), (1., 1.), (0.707106781186548, 0.707106781186548), (1., 1.)))
   REPRESENTATION_ITEM ('')
   SURFACE ()
);
#478 = CARTESIAN_POINT('', (40., 75., -1.97215226305253E-31));
#479 = CARTESIAN_POINT('', (40., 60., -1.97215226305253E-31));
#480 = CARTESIAN_POINT('', (40., 75., -40.));
#481 = CARTESIAN_POINT('', (40., 60., -40.));
#482 = CARTESIAN_POINT('', (-1.10342008050579E-15, 75., -40.));
#483 = CARTESIAN_POINT('', (-1.10342008050579E-15, 60., -40.));
#484 = CARTESIAN_POINT('', (-40., 75., -40.));
#485 = CARTESIAN_POINT('', (-40., 60., -40.));
#486 = CARTESIAN_POINT('', (-40., 75., 2.20684016101159E-15));
#487 = CARTESIAN_POINT('', (-40., 60., 2.20684016101159E-15));
#488 = CARTESIAN_POINT('', (-40., 75., 40.));
#489 = CARTESIAN_POINT('', (-40., 60., 40.));
#490 = CARTESIAN_POINT('', (-3.79516711608362E-15, 75., 40.));
#491 = CARTESIAN_POINT('', (-3.79516711608362E-15, 60., 40.));
#492 = ADVANCED_FACE('', (#493), #499, .T.);
#493 = FACE_OUTER_BOUND('', #494, .T.);
#494 = EDGE_LOOP('', (#495, #496, #497, #498));
#495 = ORIENTED_EDGE('', *, *, #470, .T.);
#496 = ORIENTED_EDGE('', *, *, #443, .T.);
#497 = ORIENTED_EDGE('', *, *, #406, .T.);
#498 = ORIENTED_EDGE('', *, *, #368, .T.);
#499 = B_SPLINE_SURFACE_WITH_KNOTS('', 1, 1, ((#500, #501), (#502, #503)), .UNSPECIFIED., .F., .F., .U., (2, 2), (2, 2), (0., 1.), (0., 1.), .UNSPECIFIED.);
#500 = CARTESIAN_POINT('', (59.167261889578, 55.832738110422, 0.));
#501 = CARTESIAN_POINT('', (35.832738110422, 55.832738110422, 0.));
#502 = CARTESIAN_POINT('', (59.167261889578, 79.167261889578, 0.));
#503 = CARTESIAN_POINT('', (35.832738110422, 79.167261889578, 0.));
#504 = PRESENTATION_STYLE_ASSIGNMENT((#505));
#505 = SURFACE_STYLE_USAGE(.POSITIVE., #506);
#506 = SURFACE_SIDE_STYLE('', (#507));
#507 = SURFACE_STYLE_FILL_AREA(#508);
#508 = FILL_AREA_STYLE('', (#509));
#509 = FILL_AREA_STYLE_COLOUR('', #510);
#510 = COLOUR_RGB('', 0.50196078431373, 0.50196078431373, 0.50196078431373);
#511 = STYLED_ITEM('', (#504), #326);
#512 = CARTESIAN_POINT('Origin', (0., 0., 0.));
#513 = GEOMETRIC_SET('', (#512));
#514 = (
   GEOMETRIC_REPRESENTATION_CONTEXT (3)
   GLOBAL_UNCERTAINTY_ASSIGNED_CONTEXT ((#516))
   GLOBAL_UNIT_ASSIGNED_CONTEXT ((#515, #517, #518))
   REPRESENTATION_CONTEXT ('', '3D')
);
#515 = (
   LENGTH_UNIT ()
   NAMED_UNIT (*)
   SI_UNIT (.MILLI., .METRE.)
);
#516 = UNCERTAINTY_MEASURE_WITH_UNIT(LENGTH_MEASURE(1.E-6), #515, 'DISTANCE_ACCURACY_VALUE', '');
#517 = (
   NAMED_UNIT (*)
   SI_UNIT ($, .STERADIAN.)
   SOLID_ANGLE_UNIT ()
);
#518 = (
   NAMED_UNIT (*)
   PLANE_ANGLE_UNIT ()
   SI_UNIT ($, .RADIAN.)
);
#519 = SHAPE_REPRESENTATION('', (#534), #514);
#520 = PRODUCT_DEFINITION_SHAPE('', '', #521);
#521 = PRODUCT_DEFINITION('', '', #524, #528);
#522 = APPLICATION_CONTEXT('configuration controlled 3D designs of mechanical parts and assemblies');
#523 = APPLICATION_PROTOCOL_DEFINITION('International Standard', 'automotive_design', 2002, #522);
#524 = PRODUCT_DEFINITION_FORMATION_WITH_SPECIFIED_SOURCE('', '', #525, .NOT_KNOWN.);
#525 = PRODUCT('PartialRevolve', 'PartialRevolve', '', (#526));
#526 = PRODUCT_CONTEXT('', #522, 'mechanical');
#527 = PRODUCT_RELATED_PRODUCT_CATEGORY('detail', '', (#525));
#528 = PRODUCT_DEFINITION_CONTEXT('part definition', #522, 'design');
#529 = SHAPE_DEFINITION_REPRESENTATION(#520, #519);
#530 = SHAPE_REPRESENTATION_RELATIONSHIP('', '', #519, #531);
#531 = SHAPE_REPRESENTATION('', (#513), #514);
#532 = SHAPE_REPRESENTATION_RELATIONSHIP('', '', #519, #533);
#533 = ADVANCED_BREP_SHAPE_REPRESENTATION('', (#1, #156, #326), #514);
#534 = AXIS2_PLACEMENT_3D('', #535, #536, #537);
#535 = CARTESIAN_POINT('', (0., 0., 0.));
#536 = DIRECTION('', (0., 0., 1.));
#537 = DIRECTION('', (1., 0., 0.));
ENDSEC;
END-ISO-10303-21;
