ISO-10303-21;
HEADER;
FILE_DESCRIPTION(('STEP'), '1');
FILE_NAME('EdgeAngles', '2026-04-14T13:08:51', (''), (''), 'Express 3.1.2.0', 'Express Tool', 'Unknown');
FILE_SCHEMA(('AUTOMOTIVE_DESIGN'));
ENDSEC;

DATA;
#1 = MANIFOLD_SOLID_BREP('Solid', #2);
#2 = CLOSED_SHELL('', (#3, #45, #87, #117));
#3 = ADVANCED_FACE('', (#4), #40, .T.);
#4 = FACE_OUTER_BOUND('', #5, .T.);
#5 = EDGE_LOOP('', (#6, #15, #27, #28));
#6 = ORIENTED_EDGE('', *, *, #7, .F.);
#7 = EDGE_CURVE('', #8, #10, #12, .T.);
#8 = VERTEX_POINT('', #9);
#9 = CARTESIAN_POINT('', (55., 15., 0.));
#10 = VERTEX_POINT('', #11);
#11 = CARTESIAN_POINT('', (40., 15., 0.));
#12 = B_SPLINE_CURVE_WITH_KNOTS('', 1, (#13, #14), .UNSPECIFIED., .F., .U., (2, 2), (0., 1.), .UNSPECIFIED.);
#13 = CARTESIAN_POINT('', (55., 15., 0.));
#14 = CARTESIAN_POINT('', (40., 15., 0.));
#15 = ORIENTED_EDGE('', *, *, #16, .T.);
#16 = EDGE_CURVE('', #8, #8, #17, .T.);
#17 = (
   BOUNDED_CURVE ()
   B_SPLINE_CURVE (2, (#18, #19, #20, #21, #22, #23, #24, #25, #26), .UNSPECIFIED., .T., .U.)
   B_SPLINE_CURVE_WITH_KNOTS ((3, 2, 2, 2, 3), (0., 86.3937979737193, 172.787595947439, 259.181393921158, 345.575191894877), .UNSPECIFIED.)
   CURVE ()
   GEOMETRIC_REPRESENTATION_ITEM ()
   RATIONAL_B_SPLINE_CURVE ((1., 0.707106781186548, 1., 0.707106781186548, 1., 0.707106781186548, 1., 0.707106781186548, 1.))
   REPRESENTATION_ITEM ('')
);
#18 = CARTESIAN_POINT('', (55., 15., 3.72243739651165E-30));
#19 = CARTESIAN_POINT('', (55., 15., -55.));
#20 = CARTESIAN_POINT('', (2.55722391901584E-14, 15., -55.));
#21 = CARTESIAN_POINT('', (-55., 15., -55.));
#22 = CARTESIAN_POINT('', (-55., 15., -2.09464121105124E-14));
#23 = CARTESIAN_POINT('', (-55., 15., 55.));
#24 = CARTESIAN_POINT('', (-2.10973031566454E-15, 15., 55.));
#25 = CARTESIAN_POINT('', (55., 15., 55.));
#26 = CARTESIAN_POINT('', (55., 15., 3.72243739651165E-30));
#27 = ORIENTED_EDGE('', *, *, #7, .T.);
#28 = ORIENTED_EDGE('', *, *, #29, .F.);
#29 = EDGE_CURVE('', #10, #10, #30, .T.);
#30 = (
   BOUNDED_CURVE ()
   B_SPLINE_CURVE (2, (#31, #32, #33, #34, #35, #36, #37, #38, #39), .UNSPECIFIED., .T., .U.)
   B_SPLINE_CURVE_WITH_KNOTS ((3, 2, 2, 2, 3), (0., 62.8318530717959, 125.663706143592, 188.495559215388, 251.327412287183), .UNSPECIFIED.)
   CURVE ()
   GEOMETRIC_REPRESENTATION_ITEM ()
   RATIONAL_B_SPLINE_CURVE ((1., 0.707106781186548, 1., 0.707106781186548, 1., 0.707106781186548, 1., 0.707106781186548, 1.))
   REPRESENTATION_ITEM ('')
);
#31 = CARTESIAN_POINT('', (40., 15., -3.45126646034193E-31));
#32 = CARTESIAN_POINT('', (40., 15., -40.));
#33 = CARTESIAN_POINT('', (8.111431023883E-15, 15., -40.));
#34 = CARTESIAN_POINT('', (-40., 15., -40.));
#35 = CARTESIAN_POINT('', (-40., 15., -1.34587351778891E-15));
#36 = CARTESIAN_POINT('', (-40., 15., 40.));
#37 = CARTESIAN_POINT('', (1.86697030950468E-15, 15., 40.));
#38 = CARTESIAN_POINT('', (40., 15., 40.));
#39 = CARTESIAN_POINT('', (40., 15., -3.45126646034193E-31));
#40 = B_SPLINE_SURFACE_WITH_KNOTS('', 1, 1, ((#41, #42), (#43, #44)), .UNSPECIFIED., .F., .F., .U., (2, 2), (2, 2), (0., 1.), (0., 1.), .UNSPECIFIED.);
#41 = CARTESIAN_POINT('', (-60.5, 15., 60.5));
#42 = CARTESIAN_POINT('', (-60.5, 15., -60.5));
#43 = CARTESIAN_POINT('', (60.5, 15., 60.5));
#44 = CARTESIAN_POINT('', (60.5, 15., -60.5));
#45 = ADVANCED_FACE('', (#46), #82, .T.);
#46 = FACE_OUTER_BOUND('', #47, .T.);
#47 = EDGE_LOOP('', (#48, #57, #69, #70));
#48 = ORIENTED_EDGE('', *, *, #49, .F.);
#49 = EDGE_CURVE('', #50, #52, #54, .T.);
#50 = VERTEX_POINT('', #51);
#51 = CARTESIAN_POINT('', (40., 0., 0.));
#52 = VERTEX_POINT('', #53);
#53 = CARTESIAN_POINT('', (55., 0., 0.));
#54 = B_SPLINE_CURVE_WITH_KNOTS('', 1, (#55, #56), .UNSPECIFIED., .F., .U., (2, 2), (0., 1.), .UNSPECIFIED.);
#55 = CARTESIAN_POINT('', (40., 0., 0.));
#56 = CARTESIAN_POINT('', (55., 0., 0.));
#57 = ORIENTED_EDGE('', *, *, #58, .T.);
#58 = EDGE_CURVE('', #50, #50, #59, .T.);
#59 = (
   BOUNDED_CURVE ()
   B_SPLINE_CURVE (2, (#60, #61, #62, #63, #64, #65, #66, #67, #68), .UNSPECIFIED., .T., .U.)
   B_SPLINE_CURVE_WITH_KNOTS ((3, 2, 2, 2, 3), (0., 62.8318530717959, 125.663706143592, 188.495559215388, 251.327412287183), .UNSPECIFIED.)
   CURVE ()
   GEOMETRIC_REPRESENTATION_ITEM ()
   RATIONAL_B_SPLINE_CURVE ((1., 0.707106781186548, 1., 0.707106781186548, 1., 0.707106781186548, 1., 0.707106781186548, 1.))
   REPRESENTATION_ITEM ('')
);
#60 = CARTESIAN_POINT('', (40., 0., -3.45126646034193E-31));
#61 = CARTESIAN_POINT('', (40., 0., -40.));
#62 = CARTESIAN_POINT('', (8.111431023883E-15, 0., -40.));
#63 = CARTESIAN_POINT('', (-40., 0., -40.));
#64 = CARTESIAN_POINT('', (-40., 0., -1.34587351778891E-15));
#65 = CARTESIAN_POINT('', (-40., 0., 40.));
#66 = CARTESIAN_POINT('', (1.86697030950468E-15, 0., 40.));
#67 = CARTESIAN_POINT('', (40., 0., 40.));
#68 = CARTESIAN_POINT('', (40., 0., -3.45126646034193E-31));
#69 = ORIENTED_EDGE('', *, *, #49, .T.);
#70 = ORIENTED_EDGE('', *, *, #71, .F.);
#71 = EDGE_CURVE('', #52, #52, #72, .T.);
#72 = (
   BOUNDED_CURVE ()
   B_SPLINE_CURVE (2, (#73, #74, #75, #76, #77, #78, #79, #80, #81), .UNSPECIFIED., .T., .U.)
   B_SPLINE_CURVE_WITH_KNOTS ((3, 2, 2, 2, 3), (0., 0.25, 0.5, 0.75, 1.), .UNSPECIFIED.)
   CURVE ()
   GEOMETRIC_REPRESENTATION_ITEM ()
   RATIONAL_B_SPLINE_CURVE ((1., 0.707106781186548, 1., 0.707106781186548, 1., 0.707106781186548, 1., 0.707106781186548, 1.))
   REPRESENTATION_ITEM ('')
);
#73 = CARTESIAN_POINT('', (55., 0., 0.));
#74 = CARTESIAN_POINT('', (55., 0., -55.));
#75 = CARTESIAN_POINT('', (3.36777869765522E-15, 0., -55.));
#76 = CARTESIAN_POINT('', (-55., 0., -55.));
#77 = CARTESIAN_POINT('', (-55., 0., -6.73555739531044E-15));
#78 = CARTESIAN_POINT('', (-55., 0., 55.));
#79 = CARTESIAN_POINT('', (-1.01033360929657E-14, 0., 55.));
#80 = CARTESIAN_POINT('', (55., 0., 55.));
#81 = CARTESIAN_POINT('', (55., 0., 0.));
#82 = B_SPLINE_SURFACE_WITH_KNOTS('', 1, 1, ((#83, #84), (#85, #86)), .UNSPECIFIED., .F., .F., .U., (2, 2), (2, 2), (0., 1.), (0., 1.), .UNSPECIFIED.);
#83 = CARTESIAN_POINT('', (-60.5, 0., 60.5));
#84 = CARTESIAN_POINT('', (60.5, 0., 60.5));
#85 = CARTESIAN_POINT('', (-60.5, 0., -60.5));
#86 = CARTESIAN_POINT('', (60.5, 0., -60.5));
#87 = ADVANCED_FACE('', (#88), #98, .T.);
#88 = FACE_OUTER_BOUND('', #89, .T.);
#89 = EDGE_LOOP('', (#90, #95, #96, #97));
#90 = ORIENTED_EDGE('', *, *, #91, .F.);
#91 = EDGE_CURVE('', #10, #50, #92, .T.);
#92 = B_SPLINE_CURVE_WITH_KNOTS('', 1, (#93, #94), .UNSPECIFIED., .F., .U., (2, 2), (0., 1.), .UNSPECIFIED.);
#93 = CARTESIAN_POINT('', (40., 15., 0.));
#94 = CARTESIAN_POINT('', (40., 0., 0.));
#95 = ORIENTED_EDGE('', *, *, #29, .T.);
#96 = ORIENTED_EDGE('', *, *, #91, .T.);
#97 = ORIENTED_EDGE('', *, *, #58, .F.);
#98 = (
   BOUNDED_SURFACE ()
   B_SPLINE_SURFACE (2, 1, ((#99, #100), (#101, #102), (#103, #104), (#105, #106), (#107, #108), (#109, #110), (#111, #112), (#113, #114), (#115, #116)), .UNSPECIFIED., .T., .F., .U.)
   B_SPLINE_SURFACE_WITH_KNOTS ((3, 2, 2, 2, 3), (2, 2), (0., 62.8318530717959, 125.663706143592, 188.495559215388, 251.327412287183), (0., 1.), .UNSPECIFIED.)
   GEOMETRIC_REPRESENTATION_ITEM ()
   RATIONAL_B_SPLINE_SURFACE (((1., 1.), (0.707106781186548, 0.707106781186548), (1., 1.), (0.707106781186548, 0.707106781186548), (1., 1.), (0.707106781186548, 0.707106781186548), (1., 1.), (0.707106781186548, 0.707106781186548), (1., 1.)))
   REPRESENTATION_ITEM ('')
   SURFACE ()
);
#99 = CARTESIAN_POINT('', (40., 15., -3.45126646034193E-31));
#100 = CARTESIAN_POINT('', (40., 0., -3.45126646034193E-31));
#101 = CARTESIAN_POINT('', (40., 15., -40.));
#102 = CARTESIAN_POINT('', (40., 0., -40.));
#103 = CARTESIAN_POINT('', (8.111431023883E-15, 15., -40.));
#104 = CARTESIAN_POINT('', (8.111431023883E-15, 0., -40.));
#105 = CARTESIAN_POINT('', (-40., 15., -40.));
#106 = CARTESIAN_POINT('', (-40., 0., -40.));
#107 = CARTESIAN_POINT('', (-40., 15., -1.34587351778891E-15));
#108 = CARTESIAN_POINT('', (-40., 0., -1.34587351778891E-15));
#109 = CARTESIAN_POINT('', (-40., 15., 40.));
#110 = CARTESIAN_POINT('', (-40., 0., 40.));
#111 = CARTESIAN_POINT('', (1.86697030950468E-15, 15., 40.));
#112 = CARTESIAN_POINT('', (1.86697030950468E-15, 0., 40.));
#113 = CARTESIAN_POINT('', (40., 15., 40.));
#114 = CARTESIAN_POINT('', (40., 0., 40.));
#115 = CARTESIAN_POINT('', (40., 15., -3.45126646034193E-31));
#116 = CARTESIAN_POINT('', (40., 0., -3.45126646034193E-31));
#117 = ADVANCED_FACE('', (#118), #128, .T.);
#118 = FACE_OUTER_BOUND('', #119, .T.);
#119 = EDGE_LOOP('', (#120, #125, #126, #127));
#120 = ORIENTED_EDGE('', *, *, #121, .F.);
#121 = EDGE_CURVE('', #52, #8, #122, .T.);
#122 = B_SPLINE_CURVE_WITH_KNOTS('', 1, (#123, #124), .UNSPECIFIED., .F., .U., (2, 2), (0., 1.), .UNSPECIFIED.);
#123 = CARTESIAN_POINT('', (55., 0., 0.));
#124 = CARTESIAN_POINT('', (55., 15., 0.));
#125 = ORIENTED_EDGE('', *, *, #71, .T.);
#126 = ORIENTED_EDGE('', *, *, #121, .T.);
#127 = ORIENTED_EDGE('', *, *, #16, .F.);
#128 = (
   BOUNDED_SURFACE ()
   B_SPLINE_SURFACE (2, 1, ((#129, #130), (#131, #132), (#133, #134), (#135, #136), (#137, #138), (#139, #140), (#141, #142), (#143, #144), (#145, #146)), .UNSPECIFIED., .T., .F., .U.)
   B_SPLINE_SURFACE_WITH_KNOTS ((3, 2, 2, 2, 3), (2, 2), (0., 86.3937979737193, 172.787595947439, 259.181393921158, 345.575191894877), (0., 1.), .UNSPECIFIED.)
   GEOMETRIC_REPRESENTATION_ITEM ()
   RATIONAL_B_SPLINE_SURFACE (((1., 1.), (0.707106781186548, 0.707106781186548), (1., 1.), (0.707106781186548, 0.707106781186548), (1., 1.), (0.707106781186548, 0.707106781186548), (1., 1.), (0.707106781186548, 0.707106781186548), (1., 1.)))
   REPRESENTATION_ITEM ('')
   SURFACE ()
);
#129 = CARTESIAN_POINT('', (55., 0., 3.72243739651165E-30));
#130 = CARTESIAN_POINT('', (55., 15., 3.72243739651165E-30));
#131 = CARTESIAN_POINT('', (55., 0., -55.));
#132 = CARTESIAN_POINT('', (55., 15., -55.));
#133 = CARTESIAN_POINT('', (2.55722391901584E-14, 0., -55.));
#134 = CARTESIAN_POINT('', (2.55722391901584E-14, 15., -55.));
#135 = CARTESIAN_POINT('', (-55., 0., -55.));
#136 = CARTESIAN_POINT('', (-55., 15., -55.));
#137 = CARTESIAN_POINT('', (-55., 0., -2.09464121105124E-14));
#138 = CARTESIAN_POINT('', (-55., 15., -2.09464121105124E-14));
#139 = CARTESIAN_POINT('', (-55., 0., 55.));
#140 = CARTESIAN_POINT('', (-55., 15., 55.));
#141 = CARTESIAN_POINT('', (-2.10973031566454E-15, 0., 55.));
#142 = CARTESIAN_POINT('', (-2.10973031566454E-15, 15., 55.));
#143 = CARTESIAN_POINT('', (55., 0., 55.));
#144 = CARTESIAN_POINT('', (55., 15., 55.));
#145 = CARTESIAN_POINT('', (55., 0., 3.72243739651165E-30));
#146 = CARTESIAN_POINT('', (55., 15., 3.72243739651165E-30));
#147 = DRAUGHTING_MODEL('', (#155, #309, #455, #609), #612);
#148 = PRESENTATION_STYLE_ASSIGNMENT((#149));
#149 = SURFACE_STYLE_USAGE(.POSITIVE., #150);
#150 = SURFACE_SIDE_STYLE('', (#151));
#151 = SURFACE_STYLE_FILL_AREA(#152);
#152 = FILL_AREA_STYLE('', (#153));
#153 = FILL_AREA_STYLE_COLOUR('', #154);
#154 = COLOUR_RGB('', 0.50196078431373, 0.50196078431373, 0.50196078431373);
#155 = STYLED_ITEM('', (#148), #1);
#156 = MANIFOLD_SOLID_BREP('Solid0', #157);
#157 = CLOSED_SHELL('', (#158, #194, #230, #252, #271, #290));
#158 = ADVANCED_FACE('', (#159), #189, .T.);
#159 = FACE_OUTER_BOUND('', #160, .T.);
#160 = EDGE_LOOP('', (#161, #170, #177, #184));
#161 = ORIENTED_EDGE('', *, *, #162, .F.);
#162 = EDGE_CURVE('', #163, #165, #167, .T.);
#163 = VERTEX_POINT('', #164);
#164 = CARTESIAN_POINT('', (40., 45., 0.));
#165 = VERTEX_POINT('', #166);
#166 = CARTESIAN_POINT('', (40., 30., 0.));
#167 = B_SPLINE_CURVE_WITH_KNOTS('', 1, (#168, #169), .UNSPECIFIED., .F., .U., (2, 2), (0., 1.), .UNSPECIFIED.);
#168 = CARTESIAN_POINT('', (40., 45., 0.));
#169 = CARTESIAN_POINT('', (40., 30., 0.));
#170 = ORIENTED_EDGE('', *, *, #171, .F.);
#171 = EDGE_CURVE('', #172, #163, #174, .T.);
#172 = VERTEX_POINT('', #173);
#173 = CARTESIAN_POINT('', (55., 45., 0.));
#174 = B_SPLINE_CURVE_WITH_KNOTS('', 1, (#175, #176), .UNSPECIFIED., .F., .U., (2, 2), (0., 1.), .UNSPECIFIED.);
#175 = CARTESIAN_POINT('', (55., 45., 0.));
#176 = CARTESIAN_POINT('', (40., 45., 0.));
#177 = ORIENTED_EDGE('', *, *, #178, .F.);
#178 = EDGE_CURVE('', #179, #172, #181, .T.);
#179 = VERTEX_POINT('', #180);
#180 = CARTESIAN_POINT('', (55., 30., 0.));
#181 = B_SPLINE_CURVE_WITH_KNOTS('', 1, (#182, #183), .UNSPECIFIED., .F., .U., (2, 2), (0., 1.), .UNSPECIFIED.);
#182 = CARTESIAN_POINT('', (55., 30., 0.));
#183 = CARTESIAN_POINT('', (55., 45., 0.));
#184 = ORIENTED_EDGE('', *, *, #185, .F.);
#185 = EDGE_CURVE('', #165, #179, #186, .T.);
#186 = B_SPLINE_CURVE_WITH_KNOTS('', 1, (#187, #188), .UNSPECIFIED., .F., .U., (2, 2), (0., 1.), .UNSPECIFIED.);
#187 = CARTESIAN_POINT('', (40., 30., 0.));
#188 = CARTESIAN_POINT('', (55., 30., 0.));
#189 = B_SPLINE_SURFACE_WITH_KNOTS('', 1, 1, ((#190, #191), (#192, #193)), .UNSPECIFIED., .F., .F., .U., (2, 2), (2, 2), (0., 1.), (0., 1.), .UNSPECIFIED.);
#190 = CARTESIAN_POINT('', (59.167261889578, 25.832738110422, 0.));
#191 = CARTESIAN_POINT('', (59.167261889578, 49.167261889578, 0.));
#192 = CARTESIAN_POINT('', (35.832738110422, 25.832738110422, 0.));
#193 = CARTESIAN_POINT('', (35.832738110422, 49.167261889578, 0.));
#194 = ADVANCED_FACE('', (#195), #225, .T.);
#195 = FACE_OUTER_BOUND('', #196, .T.);
#196 = EDGE_LOOP('', (#197, #206, #213, #220));
#197 = ORIENTED_EDGE('', *, *, #198, .T.);
#198 = EDGE_CURVE('', #199, #201, #203, .T.);
#199 = VERTEX_POINT('', #200);
#200 = CARTESIAN_POINT('', (2.44929359829471E-15, 45., 40.));
#201 = VERTEX_POINT('', #202);
#202 = CARTESIAN_POINT('', (2.44929359829471E-15, 30., 40.));
#203 = B_SPLINE_CURVE_WITH_KNOTS('', 1, (#204, #205), .UNSPECIFIED., .F., .U., (2, 2), (0., 1.), .UNSPECIFIED.);
#204 = CARTESIAN_POINT('', (2.44929359829471E-15, 45., 40.));
#205 = CARTESIAN_POINT('', (2.44929359829471E-15, 30., 40.));
#206 = ORIENTED_EDGE('', *, *, #207, .T.);
#207 = EDGE_CURVE('', #201, #208, #210, .T.);
#208 = VERTEX_POINT('', #209);
#209 = CARTESIAN_POINT('', (3.36777869765522E-15, 30., 55.));
#210 = B_SPLINE_CURVE_WITH_KNOTS('', 1, (#211, #212), .UNSPECIFIED., .F., .U., (2, 2), (0., 1.), .UNSPECIFIED.);
#211 = CARTESIAN_POINT('', (2.44929359829471E-15, 30., 40.));
#212 = CARTESIAN_POINT('', (3.36777869765522E-15, 30., 55.));
#213 = ORIENTED_EDGE('', *, *, #214, .T.);
#214 = EDGE_CURVE('', #208, #215, #217, .T.);
#215 = VERTEX_POINT('', #216);
#216 = CARTESIAN_POINT('', (3.36777869765522E-15, 45., 55.));
#217 = B_SPLINE_CURVE_WITH_KNOTS('', 1, (#218, #219), .UNSPECIFIED., .F., .U., (2, 2), (0., 1.), .UNSPECIFIED.);
#218 = CARTESIAN_POINT('', (3.36777869765522E-15, 30., 55.));
#219 = CARTESIAN_POINT('', (3.36777869765522E-15, 45., 55.));
#220 = ORIENTED_EDGE('', *, *, #221, .T.);
#221 = EDGE_CURVE('', #215, #199, #222, .T.);
#222 = B_SPLINE_CURVE_WITH_KNOTS('', 1, (#223, #224), .UNSPECIFIED., .F., .U., (2, 2), (0., 1.), .UNSPECIFIED.);
#223 = CARTESIAN_POINT('', (3.36777869765522E-15, 45., 55.));
#224 = CARTESIAN_POINT('', (2.44929359829471E-15, 45., 40.));
#225 = B_SPLINE_SURFACE_WITH_KNOTS('', 1, 1, ((#226, #227), (#228, #229)), .UNSPECIFIED., .F., .F., .U., (2, 2), (2, 2), (0., 1.), (0., 1.), .UNSPECIFIED.);
#226 = CARTESIAN_POINT('', (3.62294989436925E-15, 25.832738110422, 59.167261889578));
#227 = CARTESIAN_POINT('', (2.19412240158068E-15, 25.832738110422, 35.832738110422));
#228 = CARTESIAN_POINT('', (3.62294989436925E-15, 49.167261889578, 59.167261889578));
#229 = CARTESIAN_POINT('', (2.19412240158068E-15, 49.167261889578, 35.832738110422));
#230 = ADVANCED_FACE('', (#231), #247, .T.);
#231 = FACE_OUTER_BOUND('', #232, .T.);
#232 = EDGE_LOOP('', (#233, #234, #240, #241));
#233 = ORIENTED_EDGE('', *, *, #185, .T.);
#234 = ORIENTED_EDGE('', *, *, #235, .T.);
#235 = EDGE_CURVE('', #179, #208, #236, .T.);
#236 = (
   BOUNDED_CURVE ()
   B_SPLINE_CURVE (2, (#237, #238, #239), .UNSPECIFIED., .F., .U.)
   B_SPLINE_CURVE_WITH_KNOTS ((3, 3), (0., 1.), .UNSPECIFIED.)
   CURVE ()
   GEOMETRIC_REPRESENTATION_ITEM ()
   RATIONAL_B_SPLINE_CURVE ((1., 0.707106781186548, 1.))
   REPRESENTATION_ITEM ('')
);
#237 = CARTESIAN_POINT('', (55., 30., 0.));
#238 = CARTESIAN_POINT('', (55., 30., 55.));
#239 = CARTESIAN_POINT('', (3.36777869765522E-15, 30., 55.));
#240 = ORIENTED_EDGE('', *, *, #207, .F.);
#241 = ORIENTED_EDGE('', *, *, #242, .F.);
#242 = EDGE_CURVE('', #165, #201, #243, .T.);
#243 = (
   BOUNDED_CURVE ()
   B_SPLINE_CURVE (2, (#244, #245, #246), .UNSPECIFIED., .F., .U.)
   B_SPLINE_CURVE_WITH_KNOTS ((3, 3), (0., 62.8318530717959), .UNSPECIFIED.)
   CURVE ()
   GEOMETRIC_REPRESENTATION_ITEM ()
   RATIONAL_B_SPLINE_CURVE ((1., 0.707106781186548, 1.))
   REPRESENTATION_ITEM ('')
);
#244 = CARTESIAN_POINT('', (40., 30., -3.94430452610515E-32));
#245 = CARTESIAN_POINT('', (40., 30., 40.));
#246 = CARTESIAN_POINT('', (7.77836411649547E-15, 30., 40.));
#247 = B_SPLINE_SURFACE_WITH_KNOTS('', 1, 1, ((#248, #249), (#250, #251)), .UNSPECIFIED., .F., .F., .U., (2, 2), (2, 2), (0., 1.), (0., 1.), .UNSPECIFIED.);
#248 = CARTESIAN_POINT('', (-60.5, 30., -60.5));
#249 = CARTESIAN_POINT('', (-60.5, 30., 60.5));
#250 = CARTESIAN_POINT('', (60.5, 30., -60.5));
#251 = CARTESIAN_POINT('', (60.5, 30., 60.5));
#252 = ADVANCED_FACE('', (#253), #264, .T.);
#253 = FACE_OUTER_BOUND('', #254, .T.);
#254 = EDGE_LOOP('', (#255, #256, #257, #258));
#255 = ORIENTED_EDGE('', *, *, #162, .T.);
#256 = ORIENTED_EDGE('', *, *, #242, .T.);
#257 = ORIENTED_EDGE('', *, *, #198, .F.);
#258 = ORIENTED_EDGE('', *, *, #259, .F.);
#259 = EDGE_CURVE('', #163, #199, #260, .T.);
#260 = (
   BOUNDED_CURVE ()
   B_SPLINE_CURVE (2, (#261, #262, #263), .UNSPECIFIED., .F., .U.)
   B_SPLINE_CURVE_WITH_KNOTS ((3, 3), (0., 62.8318530717959), .UNSPECIFIED.)
   CURVE ()
   GEOMETRIC_REPRESENTATION_ITEM ()
   RATIONAL_B_SPLINE_CURVE ((1., 0.707106781186548, 1.))
   REPRESENTATION_ITEM ('')
);
#261 = CARTESIAN_POINT('', (40., 45., -3.94430452610515E-32));
#262 = CARTESIAN_POINT('', (40., 45., 40.));
#263 = CARTESIAN_POINT('', (7.77836411649547E-15, 45., 40.));
#264 = (
   BOUNDED_SURFACE ()
   B_SPLINE_SURFACE (1, 2, ((#265, #266, #267), (#268, #269, #270)), .UNSPECIFIED., .F., .F., .U.)
   B_SPLINE_SURFACE_WITH_KNOTS ((2, 2), (3, 3), (0., 1.), (0., 62.8318530717959), .UNSPECIFIED.)
   GEOMETRIC_REPRESENTATION_ITEM ()
   RATIONAL_B_SPLINE_SURFACE (((1., 0.707106781186548, 1.), (1., 0.707106781186548, 1.)))
   REPRESENTATION_ITEM ('')
   SURFACE ()
);
#265 = CARTESIAN_POINT('', (40., 45., -3.94430452610515E-32));
#266 = CARTESIAN_POINT('', (40., 45., 40.));
#267 = CARTESIAN_POINT('', (7.77836411649547E-15, 45., 40.));
#268 = CARTESIAN_POINT('', (40., 30., -3.94430452610515E-32));
#269 = CARTESIAN_POINT('', (40., 30., 40.));
#270 = CARTESIAN_POINT('', (7.77836411649547E-15, 30., 40.));
#271 = ADVANCED_FACE('', (#272), #283, .T.);
#272 = FACE_OUTER_BOUND('', #273, .T.);
#273 = EDGE_LOOP('', (#274, #275, #281, #282));
#274 = ORIENTED_EDGE('', *, *, #178, .T.);
#275 = ORIENTED_EDGE('', *, *, #276, .T.);
#276 = EDGE_CURVE('', #172, #215, #277, .T.);
#277 = (
   BOUNDED_CURVE ()
   B_SPLINE_CURVE (2, (#278, #279, #280), .UNSPECIFIED., .F., .U.)
   B_SPLINE_CURVE_WITH_KNOTS ((3, 3), (0., 86.3937979737193), .UNSPECIFIED.)
   CURVE ()
   GEOMETRIC_REPRESENTATION_ITEM ()
   RATIONAL_B_SPLINE_CURVE ((1., 0.707106781186548, 1.))
   REPRESENTATION_ITEM ('')
);
#278 = CARTESIAN_POINT('', (55., 45., -4.54491453348926E-31));
#279 = CARTESIAN_POINT('', (55., 45., 55.));
#280 = CARTESIAN_POINT('', (8.03071540108089E-15, 45., 55.));
#281 = ORIENTED_EDGE('', *, *, #214, .F.);
#282 = ORIENTED_EDGE('', *, *, #235, .F.);
#283 = (
   BOUNDED_SURFACE ()
   B_SPLINE_SURFACE (1, 2, ((#284, #285, #286), (#287, #288, #289)), .UNSPECIFIED., .F., .F., .U.)
   B_SPLINE_SURFACE_WITH_KNOTS ((2, 2), (3, 3), (0., 1.), (0., 86.3937979737193), .UNSPECIFIED.)
   GEOMETRIC_REPRESENTATION_ITEM ()
   RATIONAL_B_SPLINE_SURFACE (((1., 0.707106781186548, 1.), (1., 0.707106781186548, 1.)))
   REPRESENTATION_ITEM ('')
   SURFACE ()
);
#284 = CARTESIAN_POINT('', (55., 30., -4.54491453348926E-31));
#285 = CARTESIAN_POINT('', (55., 30., 55.));
#286 = CARTESIAN_POINT('', (8.03071540108089E-15, 30., 55.));
#287 = CARTESIAN_POINT('', (55., 45., -4.54491453348926E-31));
#288 = CARTESIAN_POINT('', (55., 45., 55.));
#289 = CARTESIAN_POINT('', (8.03071540108089E-15, 45., 55.));
#290 = ADVANCED_FACE('', (#291), #297, .T.);
#291 = FACE_OUTER_BOUND('', #292, .T.);
#292 = EDGE_LOOP('', (#293, #294, #295, #296));
#293 = ORIENTED_EDGE('', *, *, #171, .T.);
#294 = ORIENTED_EDGE('', *, *, #259, .T.);
#295 = ORIENTED_EDGE('', *, *, #221, .F.);
#296 = ORIENTED_EDGE('', *, *, #276, .F.);
#297 = B_SPLINE_SURFACE_WITH_KNOTS('', 1, 1, ((#298, #299), (#300, #301)), .UNSPECIFIED., .F., .F., .U., (2, 2), (2, 2), (0., 1.), (0., 1.), .UNSPECIFIED.);
#298 = CARTESIAN_POINT('', (-60.5, 45., -60.5));
#299 = CARTESIAN_POINT('', (60.5, 45., -60.5));
#300 = CARTESIAN_POINT('', (-60.5, 45., 60.5));
#301 = CARTESIAN_POINT('', (60.5, 45., 60.5));
#302 = PRESENTATION_STYLE_ASSIGNMENT((#303));
#303 = SURFACE_STYLE_USAGE(.POSITIVE., #304);
#304 = SURFACE_SIDE_STYLE('', (#305));
#305 = SURFACE_STYLE_FILL_AREA(#306);
#306 = FILL_AREA_STYLE('', (#307));
#307 = FILL_AREA_STYLE_COLOUR('', #308);
#308 = COLOUR_RGB('', 0.50196078431373, 0.50196078431373, 0.50196078431373);
#309 = STYLED_ITEM('', (#302), #156);
#310 = MANIFOLD_SOLID_BREP('Solid1', #311);
#311 = CLOSED_SHELL('', (#312, #368, #424, #436));
#312 = ADVANCED_FACE('', (#313), #349, .T.);
#313 = FACE_OUTER_BOUND('', #314, .T.);
#314 = EDGE_LOOP('', (#315, #324, #336, #337));
#315 = ORIENTED_EDGE('', *, *, #316, .F.);
#316 = EDGE_CURVE('', #317, #319, #321, .T.);
#317 = VERTEX_POINT('', #318);
#318 = CARTESIAN_POINT('', (55., 60., 0.));
#319 = VERTEX_POINT('', #320);
#320 = CARTESIAN_POINT('', (55., 75., 0.));
#321 = B_SPLINE_CURVE_WITH_KNOTS('', 1, (#322, #323), .UNSPECIFIED., .F., .U., (2, 2), (0., 1.), .UNSPECIFIED.);
#322 = CARTESIAN_POINT('', (55., 60., 0.));
#323 = CARTESIAN_POINT('', (55., 75., 0.));
#324 = ORIENTED_EDGE('', *, *, #325, .T.);
#325 = EDGE_CURVE('', #317, #317, #326, .T.);
#326 = (
   BOUNDED_CURVE ()
   B_SPLINE_CURVE (2, (#327, #328, #329, #330, #331, #332, #333, #334, #335), .UNSPECIFIED., .T., .U.)
   B_SPLINE_CURVE_WITH_KNOTS ((3, 2, 2, 2, 3), (0., 86.3937979737193, 172.787595947439, 259.181393921158, 345.575191894877), .UNSPECIFIED.)
   CURVE ()
   GEOMETRIC_REPRESENTATION_ITEM ()
   RATIONAL_B_SPLINE_CURVE ((1., 0.707106781186548, 1., 0.707106781186548, 1., 0.707106781186548, 1., 0.707106781186548, 1.))
   REPRESENTATION_ITEM ('')
);
#327 = CARTESIAN_POINT('', (55., 60., 0.));
#328 = CARTESIAN_POINT('', (55., 60., -55.));
#329 = CARTESIAN_POINT('', (3.36777869765522E-15, 60., -55.));
#330 = CARTESIAN_POINT('', (-55., 60., -55.));
#331 = CARTESIAN_POINT('', (-55., 60., -6.73555739531044E-15));
#332 = CARTESIAN_POINT('', (-55., 60., 55.));
#333 = CARTESIAN_POINT('', (-1.01033360929657E-14, 60., 55.));
#334 = CARTESIAN_POINT('', (55., 60., 55.));
#335 = CARTESIAN_POINT('', (55., 60., 0.));
#336 = ORIENTED_EDGE('', *, *, #316, .T.);
#337 = ORIENTED_EDGE('', *, *, #338, .F.);
#338 = EDGE_CURVE('', #319, #319, #339, .T.);
#339 = (
   BOUNDED_CURVE ()
   B_SPLINE_CURVE (2, (#340, #341, #342, #343, #344, #345, #346, #347, #348), .UNSPECIFIED., .T., .U.)
   B_SPLINE_CURVE_WITH_KNOTS ((3, 2, 2, 2, 3), (0., 86.3937979737193, 172.787595947439, 259.181393921158, 345.575191894877), .UNSPECIFIED.)
   CURVE ()
   GEOMETRIC_REPRESENTATION_ITEM ()
   RATIONAL_B_SPLINE_CURVE ((1., 0.707106781186548, 1., 0.707106781186548, 1., 0.707106781186548, 1., 0.707106781186548, 1.))
   REPRESENTATION_ITEM ('')
);
#340 = CARTESIAN_POINT('', (55., 75., 0.));
#341 = CARTESIAN_POINT('', (55., 75., -55.));
#342 = CARTESIAN_POINT('', (3.36777869765522E-15, 75., -55.));
#343 = CARTESIAN_POINT('', (-55., 75., -55.));
#344 = CARTESIAN_POINT('', (-55., 75., -6.73555739531044E-15));
#345 = CARTESIAN_POINT('', (-55., 75., 55.));
#346 = CARTESIAN_POINT('', (-1.01033360929657E-14, 75., 55.));
#347 = CARTESIAN_POINT('', (55., 75., 55.));
#348 = CARTESIAN_POINT('', (55., 75., 0.));
#349 = (
   BOUNDED_SURFACE ()
   B_SPLINE_SURFACE (2, 1, ((#350, #351), (#352, #353), (#354, #355), (#356, #357), (#358, #359), (#360, #361), (#362, #363), (#364, #365), (#366, #367)), .UNSPECIFIED., .T., .F., .U.)
   B_SPLINE_SURFACE_WITH_KNOTS ((3, 2, 2, 2, 3), (2, 2), (0., 86.3937979737193, 172.787595947439, 259.181393921158, 345.575191894877), (0., 1.), .UNSPECIFIED.)
   GEOMETRIC_REPRESENTATION_ITEM ()
   RATIONAL_B_SPLINE_SURFACE (((1., 1.), (0.707106781186548, 0.707106781186548), (1., 1.), (0.707106781186548, 0.707106781186548), (1., 1.), (0.707106781186548, 0.707106781186548), (1., 1.), (0.707106781186548, 0.707106781186548), (1., 1.)))
   REPRESENTATION_ITEM ('')
   SURFACE ()
);
#350 = CARTESIAN_POINT('', (55., 60., 0.));
#351 = CARTESIAN_POINT('', (55., 75., 0.));
#352 = CARTESIAN_POINT('', (55., 60., -55.));
#353 = CARTESIAN_POINT('', (55., 75., -55.));
#354 = CARTESIAN_POINT('', (3.36777869765522E-15, 60., -55.));
#355 = CARTESIAN_POINT('', (3.36777869765522E-15, 75., -55.));
#356 = CARTESIAN_POINT('', (-55., 60., -55.));
#357 = CARTESIAN_POINT('', (-55., 75., -55.));
#358 = CARTESIAN_POINT('', (-55., 60., -6.73555739531044E-15));
#359 = CARTESIAN_POINT('', (-55., 75., -6.73555739531044E-15));
#360 = CARTESIAN_POINT('', (-55., 60., 55.));
#361 = CARTESIAN_POINT('', (-55., 75., 55.));
#362 = CARTESIAN_POINT('', (-1.01033360929657E-14, 60., 55.));
#363 = CARTESIAN_POINT('', (-1.01033360929657E-14, 75., 55.));
#364 = CARTESIAN_POINT('', (55., 60., 55.));
#365 = CARTESIAN_POINT('', (55., 75., 55.));
#366 = CARTESIAN_POINT('', (55., 60., 0.));
#367 = CARTESIAN_POINT('', (55., 75., 0.));
#368 = ADVANCED_FACE('', (#369), #405, .T.);
#369 = FACE_OUTER_BOUND('', #370, .T.);
#370 = EDGE_LOOP('', (#371, #380, #392, #393));
#371 = ORIENTED_EDGE('', *, *, #372, .F.);
#372 = EDGE_CURVE('', #373, #375, #377, .T.);
#373 = VERTEX_POINT('', #374);
#374 = CARTESIAN_POINT('', (40., 75., 0.));
#375 = VERTEX_POINT('', #376);
#376 = CARTESIAN_POINT('', (40., 60., 0.));
#377 = B_SPLINE_CURVE_WITH_KNOTS('', 1, (#378, #379), .UNSPECIFIED., .F., .U., (2, 2), (0., 1.), .UNSPECIFIED.);
#378 = CARTESIAN_POINT('', (40., 75., 0.));
#379 = CARTESIAN_POINT('', (40., 60., 0.));
#380 = ORIENTED_EDGE('', *, *, #381, .T.);
#381 = EDGE_CURVE('', #373, #373, #382, .T.);
#382 = (
   BOUNDED_CURVE ()
   B_SPLINE_CURVE (2, (#383, #384, #385, #386, #387, #388, #389, #390, #391), .UNSPECIFIED., .T., .U.)
   B_SPLINE_CURVE_WITH_KNOTS ((3, 2, 2, 2, 3), (0., 62.8318530717959, 125.663706143592, 188.495559215388, 251.327412287183), .UNSPECIFIED.)
   CURVE ()
   GEOMETRIC_REPRESENTATION_ITEM ()
   RATIONAL_B_SPLINE_CURVE ((1., 0.707106781186548, 1., 0.707106781186548, 1., 0.707106781186548, 1., 0.707106781186548, 1.))
   REPRESENTATION_ITEM ('')
);
#383 = CARTESIAN_POINT('', (40., 75., 0.));
#384 = CARTESIAN_POINT('', (40., 75., -40.));
#385 = CARTESIAN_POINT('', (2.44929359829471E-15, 75., -40.));
#386 = CARTESIAN_POINT('', (-40., 75., -40.));
#387 = CARTESIAN_POINT('', (-40., 75., -4.89858719658941E-15));
#388 = CARTESIAN_POINT('', (-40., 75., 40.));
#389 = CARTESIAN_POINT('', (-7.34788079488412E-15, 75., 40.));
#390 = CARTESIAN_POINT('', (40., 75., 40.));
#391 = CARTESIAN_POINT('', (40., 75., 0.));
#392 = ORIENTED_EDGE('', *, *, #372, .T.);
#393 = ORIENTED_EDGE('', *, *, #394, .F.);
#394 = EDGE_CURVE('', #375, #375, #395, .T.);
#395 = (
   BOUNDED_CURVE ()
   B_SPLINE_CURVE (2, (#396, #397, #398, #399, #400, #401, #402, #403, #404), .UNSPECIFIED., .T., .U.)
   B_SPLINE_CURVE_WITH_KNOTS ((3, 2, 2, 2, 3), (0., 62.8318530717959, 125.663706143592, 188.495559215388, 251.327412287183), .UNSPECIFIED.)
   CURVE ()
   GEOMETRIC_REPRESENTATION_ITEM ()
   RATIONAL_B_SPLINE_CURVE ((1., 0.707106781186548, 1., 0.707106781186548, 1., 0.707106781186548, 1., 0.707106781186548, 1.))
   REPRESENTATION_ITEM ('')
);
#396 = CARTESIAN_POINT('', (40., 60., 0.));
#397 = CARTESIAN_POINT('', (40., 60., -40.));
#398 = CARTESIAN_POINT('', (2.44929359829471E-15, 60., -40.));
#399 = CARTESIAN_POINT('', (-40., 60., -40.));
#400 = CARTESIAN_POINT('', (-40., 60., -4.89858719658941E-15));
#401 = CARTESIAN_POINT('', (-40., 60., 40.));
#402 = CARTESIAN_POINT('', (-7.34788079488412E-15, 60., 40.));
#403 = CARTESIAN_POINT('', (40., 60., 40.));
#404 = CARTESIAN_POINT('', (40., 60., 0.));
#405 = (
   BOUNDED_SURFACE ()
   B_SPLINE_SURFACE (2, 1, ((#406, #407), (#408, #409), (#410, #411), (#412, #413), (#414, #415), (#416, #417), (#418, #419), (#420, #421), (#422, #423)), .UNSPECIFIED., .T., .F., .U.)
   B_SPLINE_SURFACE_WITH_KNOTS ((3, 2, 2, 2, 3), (2, 2), (0., 62.8318530717959, 125.663706143592, 188.495559215388, 251.327412287183), (0., 1.), .UNSPECIFIED.)
   GEOMETRIC_REPRESENTATION_ITEM ()
   RATIONAL_B_SPLINE_SURFACE (((1., 1.), (0.707106781186548, 0.707106781186548), (1., 1.), (0.707106781186548, 0.707106781186548), (1., 1.), (0.707106781186548, 0.707106781186548), (1., 1.), (0.707106781186548, 0.707106781186548), (1., 1.)))
   REPRESENTATION_ITEM ('')
   SURFACE ()
);
#406 = CARTESIAN_POINT('', (40., 75., 0.));
#407 = CARTESIAN_POINT('', (40., 60., 0.));
#408 = CARTESIAN_POINT('', (40., 75., -40.));
#409 = CARTESIAN_POINT('', (40., 60., -40.));
#410 = CARTESIAN_POINT('', (2.44929359829471E-15, 75., -40.));
#411 = CARTESIAN_POINT('', (2.44929359829471E-15, 60., -40.));
#412 = CARTESIAN_POINT('', (-40., 75., -40.));
#413 = CARTESIAN_POINT('', (-40., 60., -40.));
#414 = CARTESIAN_POINT('', (-40., 75., -4.89858719658941E-15));
#415 = CARTESIAN_POINT('', (-40., 60., -4.89858719658941E-15));
#416 = CARTESIAN_POINT('', (-40., 75., 40.));
#417 = CARTESIAN_POINT('', (-40., 60., 40.));
#418 = CARTESIAN_POINT('', (-7.34788079488412E-15, 75., 40.));
#419 = CARTESIAN_POINT('', (-7.34788079488412E-15, 60., 40.));
#420 = CARTESIAN_POINT('', (40., 75., 40.));
#421 = CARTESIAN_POINT('', (40., 60., 40.));
#422 = CARTESIAN_POINT('', (40., 75., 0.));
#423 = CARTESIAN_POINT('', (40., 60., 0.));
#424 = ADVANCED_FACE('', (#425, #428), #431, .T.);
#425 = FACE_OUTER_BOUND('', #426, .T.);
#426 = EDGE_LOOP('', (#427));
#427 = ORIENTED_EDGE('', *, *, #325, .F.);
#428 = FACE_BOUND('', #429, .T.);
#429 = EDGE_LOOP('', (#430));
#430 = ORIENTED_EDGE('', *, *, #394, .T.);
#431 = B_SPLINE_SURFACE_WITH_KNOTS('', 1, 1, ((#432, #433), (#434, #435)), .UNSPECIFIED., .F., .F., .U., (2, 2), (2, 2), (0., 1.), (0., 1.), .UNSPECIFIED.);
#432 = CARTESIAN_POINT('', (-85.5599205235723, 60., -85.5599205235723));
#433 = CARTESIAN_POINT('', (-85.5599205235723, 60., 85.5599205235723));
#434 = CARTESIAN_POINT('', (85.5599205235723, 60., -85.5599205235723));
#435 = CARTESIAN_POINT('', (85.5599205235723, 60., 85.5599205235723));
#436 = ADVANCED_FACE('', (#437, #440), #443, .T.);
#437 = FACE_OUTER_BOUND('', #438, .T.);
#438 = EDGE_LOOP('', (#439));
#439 = ORIENTED_EDGE('', *, *, #338, .T.);
#440 = FACE_BOUND('', #441, .T.);
#441 = EDGE_LOOP('', (#442));
#442 = ORIENTED_EDGE('', *, *, #381, .F.);
#443 = B_SPLINE_SURFACE_WITH_KNOTS('', 1, 1, ((#444, #445), (#446, #447)), .UNSPECIFIED., .F., .F., .U., (2, 2), (2, 2), (0., 1.), (0., 1.), .UNSPECIFIED.);
#444 = CARTESIAN_POINT('', (-85.5599205235723, 75., -85.5599205235723));
#445 = CARTESIAN_POINT('', (85.5599205235723, 75., -85.5599205235723));
#446 = CARTESIAN_POINT('', (-85.5599205235723, 75., 85.5599205235723));
#447 = CARTESIAN_POINT('', (85.5599205235723, 75., 85.5599205235723));
#448 = PRESENTATION_STYLE_ASSIGNMENT((#449));
#449 = SURFACE_STYLE_USAGE(.POSITIVE., #450);
#450 = SURFACE_SIDE_STYLE('', (#451));
#451 = SURFACE_STYLE_FILL_AREA(#452);
#452 = FILL_AREA_STYLE('', (#453));
#453 = FILL_AREA_STYLE_COLOUR('', #454);
#454 = COLOUR_RGB('', 0.50196078431373, 0.50196078431373, 0.50196078431373);
#455 = STYLED_ITEM('', (#448), #310);
#456 = MANIFOLD_SOLID_BREP('Solid2', #457);
#457 = CLOSED_SHELL('', (#458, #494, #524, #549, #572, #590));
#458 = ADVANCED_FACE('', (#459), #489, .T.);
#459 = FACE_OUTER_BOUND('', #460, .T.);
#460 = EDGE_LOOP('', (#461, #470, #477, #484));
#461 = ORIENTED_EDGE('', *, *, #462, .F.);
#462 = EDGE_CURVE('', #463, #465, #467, .T.);
#463 = VERTEX_POINT('', #464);
#464 = CARTESIAN_POINT('', (39.9980000166666, 105., -0.399993333366667));
#465 = VERTEX_POINT('', #466);
#466 = CARTESIAN_POINT('', (39.9980000166666, 90., -0.399993333366667));
#467 = B_SPLINE_CURVE_WITH_KNOTS('', 1, (#468, #469), .UNSPECIFIED., .F., .U., (2, 2), (0., 1.), .UNSPECIFIED.);
#468 = CARTESIAN_POINT('', (39.9980000166666, 105., -0.399993333366667));
#469 = CARTESIAN_POINT('', (39.9980000166666, 90., -0.399993333366667));
#470 = ORIENTED_EDGE('', *, *, #471, .F.);
#471 = EDGE_CURVE('', #472, #463, #474, .T.);
#472 = VERTEX_POINT('', #473);
#473 = CARTESIAN_POINT('', (54.9972500229166, 105., -0.549990833379167));
#474 = B_SPLINE_CURVE_WITH_KNOTS('', 1, (#475, #476), .UNSPECIFIED., .F., .U., (2, 2), (0., 1.), .UNSPECIFIED.);
#475 = CARTESIAN_POINT('', (54.9972500229166, 105., -0.549990833379167));
#476 = CARTESIAN_POINT('', (39.9980000166666, 105., -0.399993333366667));
#477 = ORIENTED_EDGE('', *, *, #478, .F.);
#478 = EDGE_CURVE('', #479, #472, #481, .T.);
#479 = VERTEX_POINT('', #480);
#480 = CARTESIAN_POINT('', (54.9972500229166, 90., -0.549990833379167));
#481 = B_SPLINE_CURVE_WITH_KNOTS('', 1, (#482, #483), .UNSPECIFIED., .F., .U., (2, 2), (0., 1.), .UNSPECIFIED.);
#482 = CARTESIAN_POINT('', (54.9972500229166, 90., -0.549990833379167));
#483 = CARTESIAN_POINT('', (54.9972500229166, 105., -0.549990833379167));
#484 = ORIENTED_EDGE('', *, *, #485, .F.);
#485 = EDGE_CURVE('', #465, #479, #486, .T.);
#486 = B_SPLINE_CURVE_WITH_KNOTS('', 1, (#487, #488), .UNSPECIFIED., .F., .U., (2, 2), (0., 1.), .UNSPECIFIED.);
#487 = CARTESIAN_POINT('', (39.9980000166666, 90., -0.399993333366667));
#488 = CARTESIAN_POINT('', (54.9972500229166, 90., -0.549990833379167));
#489 = B_SPLINE_SURFACE_WITH_KNOTS('', 1, 1, ((#490, #491), (#492, #493)), .UNSPECIFIED., .F., .F., .U., (2, 2), (2, 2), (0., 1.), (0., 1.), .UNSPECIFIED.);
#490 = CARTESIAN_POINT('', (59.1643035511365, 85.832738110422, -0.591662757734771));
#491 = CARTESIAN_POINT('', (59.1643035511365, 109.167261889578, -0.591662757734771));
#492 = CARTESIAN_POINT('', (35.8309464884467, 85.832738110422, -0.358321409011062));
#493 = CARTESIAN_POINT('', (35.8309464884467, 109.167261889578, -0.358321409011062));
#494 = ADVANCED_FACE('', (#495), #519, .T.);
#495 = FACE_OUTER_BOUND('', #496, .T.);
#496 = EDGE_LOOP('', (#497, #506, #512, #513));
#497 = ORIENTED_EDGE('', *, *, #498, .F.);
#498 = EDGE_CURVE('', #499, #501, #503, .T.);
#499 = VERTEX_POINT('', #500);
#500 = CARTESIAN_POINT('', (55., 105., 0.));
#501 = VERTEX_POINT('', #502);
#502 = CARTESIAN_POINT('', (40., 105., 0.));
#503 = B_SPLINE_CURVE_WITH_KNOTS('', 1, (#504, #505), .UNSPECIFIED., .F., .U., (2, 2), (0., 1.), .UNSPECIFIED.);
#504 = CARTESIAN_POINT('', (55., 105., 0.));
#505 = CARTESIAN_POINT('', (40., 105., 0.));
#506 = ORIENTED_EDGE('', *, *, #507, .T.);
#507 = EDGE_CURVE('', #499, #472, #508, .T.);
#508 = (
   BOUNDED_CURVE ()
   B_SPLINE_CURVE (2, (#509, #510, #511), .UNSPECIFIED., .F., .U.)
   B_SPLINE_CURVE_WITH_KNOTS ((3, 3), (0., 0.550000000000091), .UNSPECIFIED.)
   CURVE ()
   GEOMETRIC_REPRESENTATION_ITEM ()
   RATIONAL_B_SPLINE_CURVE ((1., 0.999987500026042, 1.))
   REPRESENTATION_ITEM ('')
);
#509 = CARTESIAN_POINT('', (55., 105.000000001404, 1.20745882943487E-28));
#510 = CARTESIAN_POINT('', (55., 105.000000001404, -0.275002291689786));
#511 = CARTESIAN_POINT('', (54.9972500229166, 105.000000001404, -0.549990833379167));
#512 = ORIENTED_EDGE('', *, *, #471, .T.);
#513 = ORIENTED_EDGE('', *, *, #514, .F.);
#514 = EDGE_CURVE('', #501, #463, #515, .T.);
#515 = (
   BOUNDED_CURVE ()
   B_SPLINE_CURVE (2, (#516, #517, #518), .UNSPECIFIED., .F., .U.)
   B_SPLINE_CURVE_WITH_KNOTS ((3, 3), (0., 0.400000000000178), .UNSPECIFIED.)
   CURVE ()
   GEOMETRIC_REPRESENTATION_ITEM ()
   RATIONAL_B_SPLINE_CURVE ((1., 0.999987500026041, 1.))
   REPRESENTATION_ITEM ('')
);
#516 = CARTESIAN_POINT('', (40.0000000005263, 104.999999998596, 1.66448037829643E-23));
#517 = CARTESIAN_POINT('', (40.0000000005263, 104.999999998596, -0.200001666683289));
#518 = CARTESIAN_POINT('', (39.9980000171929, 104.999999998597, -0.399993333366667));
#519 = B_SPLINE_SURFACE_WITH_KNOTS('', 1, 1, ((#520, #521), (#522, #523)), .UNSPECIFIED., .F., .F., .U., (2, 2), (2, 2), (0., 1.), (0., 1.), .UNSPECIFIED.);
#520 = CARTESIAN_POINT('', (-60.5, 105., 60.5));
#521 = CARTESIAN_POINT('', (-60.5, 105., -60.5));
#522 = CARTESIAN_POINT('', (60.5, 105., 60.5));
#523 = CARTESIAN_POINT('', (60.5, 105., -60.5));
#524 = ADVANCED_FACE('', (#525), #542, .T.);
#525 = FACE_OUTER_BOUND('', #526, .T.);
#526 = EDGE_LOOP('', (#527, #534, #540, #541));
#527 = ORIENTED_EDGE('', *, *, #528, .F.);
#528 = EDGE_CURVE('', #529, #499, #531, .T.);
#529 = VERTEX_POINT('', #530);
#530 = CARTESIAN_POINT('', (55., 90., 0.));
#531 = B_SPLINE_CURVE_WITH_KNOTS('', 1, (#532, #533), .UNSPECIFIED., .F., .U., (2, 2), (0., 1.), .UNSPECIFIED.);
#532 = CARTESIAN_POINT('', (55., 90., 0.));
#533 = CARTESIAN_POINT('', (55., 105., 0.));
#534 = ORIENTED_EDGE('', *, *, #535, .T.);
#535 = EDGE_CURVE('', #529, #479, #536, .T.);
#536 = (
   BOUNDED_CURVE ()
   B_SPLINE_CURVE (2, (#537, #538, #539), .UNSPECIFIED., .F., .U.)
   B_SPLINE_CURVE_WITH_KNOTS ((3, 3), (0., 1.), .UNSPECIFIED.)
   CURVE ()
   GEOMETRIC_REPRESENTATION_ITEM ()
   RATIONAL_B_SPLINE_CURVE ((1., 0.999987500026042, 1.))
   REPRESENTATION_ITEM ('')
);
#537 = CARTESIAN_POINT('', (55., 90., 0.));
#538 = CARTESIAN_POINT('', (55., 90., -0.275002291689647));
#539 = CARTESIAN_POINT('', (54.9972500229166, 90., -0.549990833379167));
#540 = ORIENTED_EDGE('', *, *, #478, .T.);
#541 = ORIENTED_EDGE('', *, *, #507, .F.);
#542 = (
   BOUNDED_SURFACE ()
   B_SPLINE_SURFACE (2, 1, ((#543, #544), (#545, #546), (#547, #548)), .UNSPECIFIED., .F., .F., .U.)
   B_SPLINE_SURFACE_WITH_KNOTS ((3, 3), (2, 2), (0., 0.550000000000091), (0., 1.), .UNSPECIFIED.)
   GEOMETRIC_REPRESENTATION_ITEM ()
   RATIONAL_B_SPLINE_SURFACE (((1., 1.), (0.999987500026042, 0.999987500026042), (1., 1.)))
   REPRESENTATION_ITEM ('')
   SURFACE ()
);
#543 = CARTESIAN_POINT('', (55., 90., 1.20745882943487E-28));
#544 = CARTESIAN_POINT('', (55., 105.000000001404, 1.20745882943487E-28));
#545 = CARTESIAN_POINT('', (55., 90., -0.275002291689786));
#546 = CARTESIAN_POINT('', (55., 105.000000001404, -0.275002291689786));
#547 = CARTESIAN_POINT('', (54.9972500229166, 90., -0.549990833379167));
#548 = CARTESIAN_POINT('', (54.9972500229166, 105.000000001404, -0.549990833379167));
#549 = ADVANCED_FACE('', (#550), #567, .T.);
#550 = FACE_OUTER_BOUND('', #551, .T.);
#551 = EDGE_LOOP('', (#552, #559, #565, #566));
#552 = ORIENTED_EDGE('', *, *, #553, .F.);
#553 = EDGE_CURVE('', #554, #529, #556, .T.);
#554 = VERTEX_POINT('', #555);
#555 = CARTESIAN_POINT('', (40., 90., 0.));
#556 = B_SPLINE_CURVE_WITH_KNOTS('', 1, (#557, #558), .UNSPECIFIED., .F., .U., (2, 2), (0., 1.), .UNSPECIFIED.);
#557 = CARTESIAN_POINT('', (40., 90., 0.));
#558 = CARTESIAN_POINT('', (55., 90., 0.));
#559 = ORIENTED_EDGE('', *, *, #560, .T.);
#560 = EDGE_CURVE('', #554, #465, #561, .T.);
#561 = (
   BOUNDED_CURVE ()
   B_SPLINE_CURVE (2, (#562, #563, #564), .UNSPECIFIED., .F., .U.)
   B_SPLINE_CURVE_WITH_KNOTS ((3, 3), (0., 0.400000000000178), .UNSPECIFIED.)
   CURVE ()
   GEOMETRIC_REPRESENTATION_ITEM ()
   RATIONAL_B_SPLINE_CURVE ((1., 0.999987500026041, 1.))
   REPRESENTATION_ITEM ('')
);
#562 = CARTESIAN_POINT('', (40., 90., 1.53876437540217E-29));
#563 = CARTESIAN_POINT('', (40., 90., -0.200001666683289));
#564 = CARTESIAN_POINT('', (39.9980000166666, 90.0000000000001, -0.399993333366667));
#565 = ORIENTED_EDGE('', *, *, #485, .T.);
#566 = ORIENTED_EDGE('', *, *, #535, .F.);
#567 = B_SPLINE_SURFACE_WITH_KNOTS('', 1, 1, ((#568, #569), (#570, #571)), .UNSPECIFIED., .F., .F., .U., (2, 2), (2, 2), (0., 1.), (0., 1.), .UNSPECIFIED.);
#568 = CARTESIAN_POINT('', (-60.5, 90., 60.5));
#569 = CARTESIAN_POINT('', (60.5, 90., 60.5));
#570 = CARTESIAN_POINT('', (-60.5, 90., -60.5));
#571 = CARTESIAN_POINT('', (60.5, 90., -60.5));
#572 = ADVANCED_FACE('', (#573), #583, .T.);
#573 = FACE_OUTER_BOUND('', #574, .T.);
#574 = EDGE_LOOP('', (#575, #580, #581, #582));
#575 = ORIENTED_EDGE('', *, *, #576, .F.);
#576 = EDGE_CURVE('', #501, #554, #577, .T.);
#577 = B_SPLINE_CURVE_WITH_KNOTS('', 1, (#578, #579), .UNSPECIFIED., .F., .U., (2, 2), (0., 1.), .UNSPECIFIED.);
#578 = CARTESIAN_POINT('', (40., 105., 0.));
#579 = CARTESIAN_POINT('', (40., 90., 0.));
#580 = ORIENTED_EDGE('', *, *, #514, .T.);
#581 = ORIENTED_EDGE('', *, *, #462, .T.);
#582 = ORIENTED_EDGE('', *, *, #560, .F.);
#583 = (
   BOUNDED_SURFACE ()
   B_SPLINE_SURFACE (2, 1, ((#584, #585), (#586, #587), (#588, #589)), .UNSPECIFIED., .F., .F., .U.)
   B_SPLINE_SURFACE_WITH_KNOTS ((3, 3), (2, 2), (0., 0.400000000000178), (0., 1.), .UNSPECIFIED.)
   GEOMETRIC_REPRESENTATION_ITEM ()
   RATIONAL_B_SPLINE_SURFACE (((1., 1.), (0.999987500026041, 0.999987500026041), (1., 1.)))
   REPRESENTATION_ITEM ('')
   SURFACE ()
);
#584 = CARTESIAN_POINT('', (40.0000000005263, 104.999999998596, 1.66448037829643E-23));
#585 = CARTESIAN_POINT('', (40., 90., 1.53876437540217E-29));
#586 = CARTESIAN_POINT('', (40.0000000005263, 104.999999998596, -0.200001666683289));
#587 = CARTESIAN_POINT('', (40., 90., -0.200001666683289));
#588 = CARTESIAN_POINT('', (39.9980000171929, 104.999999998597, -0.399993333366667));
#589 = CARTESIAN_POINT('', (39.9980000166666, 90.0000000000001, -0.399993333366667));
#590 = ADVANCED_FACE('', (#591), #597, .T.);
#591 = FACE_OUTER_BOUND('', #592, .T.);
#592 = EDGE_LOOP('', (#593, #594, #595, #596));
#593 = ORIENTED_EDGE('', *, *, #576, .T.);
#594 = ORIENTED_EDGE('', *, *, #553, .T.);
#595 = ORIENTED_EDGE('', *, *, #528, .T.);
#596 = ORIENTED_EDGE('', *, *, #498, .T.);
#597 = B_SPLINE_SURFACE_WITH_KNOTS('', 1, 1, ((#598, #599), (#600, #601)), .UNSPECIFIED., .F., .F., .U., (2, 2), (2, 2), (0., 1.), (0., 1.), .UNSPECIFIED.);
#598 = CARTESIAN_POINT('', (59.167261889578, 85.832738110422, 0.));
#599 = CARTESIAN_POINT('', (35.832738110422, 85.832738110422, 0.));
#600 = CARTESIAN_POINT('', (59.167261889578, 109.167261889578, 0.));
#601 = CARTESIAN_POINT('', (35.832738110422, 109.167261889578, 0.));
#602 = PRESENTATION_STYLE_ASSIGNMENT((#603));
#603 = SURFACE_STYLE_USAGE(.POSITIVE., #604);
#604 = SURFACE_SIDE_STYLE('', (#605));
#605 = SURFACE_STYLE_FILL_AREA(#606);
#606 = FILL_AREA_STYLE('', (#607));
#607 = FILL_AREA_STYLE_COLOUR('', #608);
#608 = COLOUR_RGB('', 0.50196078431373, 0.50196078431373, 0.50196078431373);
#609 = STYLED_ITEM('', (#602), #456);
#610 = CARTESIAN_POINT('Origin', (0., 0., 0.));
#611 = GEOMETRIC_SET('', (#610));
#612 = (
   GEOMETRIC_REPRESENTATION_CONTEXT (3)
   GLOBAL_UNCERTAINTY_ASSIGNED_CONTEXT ((#614))
   GLOBAL_UNIT_ASSIGNED_CONTEXT ((#613, #615, #616))
   REPRESENTATION_CONTEXT ('', '3D')
);
#613 = (
   LENGTH_UNIT ()
   NAMED_UNIT (*)
   SI_UNIT (.MILLI., .METRE.)
);
#614 = UNCERTAINTY_MEASURE_WITH_UNIT(LENGTH_MEASURE(1.E-6), #613, 'DISTANCE_ACCURACY_VALUE', '');
#615 = (
   NAMED_UNIT (*)
   SI_UNIT ($, .STERADIAN.)
   SOLID_ANGLE_UNIT ()
);
#616 = (
   NAMED_UNIT (*)
   PLANE_ANGLE_UNIT ()
   SI_UNIT ($, .RADIAN.)
);
#617 = SHAPE_REPRESENTATION('', (#632), #612);
#618 = PRODUCT_DEFINITION_SHAPE('', '', #619);
#619 = PRODUCT_DEFINITION('', '', #622, #626);
#620 = APPLICATION_CONTEXT('configuration controlled 3D designs of mechanical parts and assemblies');
#621 = APPLICATION_PROTOCOL_DEFINITION('International Standard', 'automotive_design', 2002, #620);
#622 = PRODUCT_DEFINITION_FORMATION_WITH_SPECIFIED_SOURCE('', '', #623, .NOT_KNOWN.);
#623 = PRODUCT('EdgeAngles', 'EdgeAngles', '', (#624));
#624 = PRODUCT_CONTEXT('', #620, 'mechanical');
#625 = PRODUCT_RELATED_PRODUCT_CATEGORY('detail', '', (#623));
#626 = PRODUCT_DEFINITION_CONTEXT('part definition', #620, 'design');
#627 = SHAPE_DEFINITION_REPRESENTATION(#618, #617);
#628 = SHAPE_REPRESENTATION_RELATIONSHIP('', '', #617, #629);
#629 = SHAPE_REPRESENTATION('', (#611), #612);
#630 = SHAPE_REPRESENTATION_RELATIONSHIP('', '', #617, #631);
#631 = ADVANCED_BREP_SHAPE_REPRESENTATION('', (#1, #156, #310, #456), #612);
#632 = AXIS2_PLACEMENT_3D('', #633, #634, #635);
#633 = CARTESIAN_POINT('', (0., 0., 0.));
#634 = DIRECTION('', (0., 0., 1.));
#635 = DIRECTION('', (1., 0., 0.));
ENDSEC;
END-ISO-10303-21;
