ISO-10303-21;
HEADER;
FILE_DESCRIPTION(('STEP'), '1');
FILE_NAME('ZeroAngle', '2026-04-14T13:10:22', (''), (''), 'Express 3.1.2.0', 'Express Tool', 'Unknown');
FILE_SCHEMA(('AUTOMOTIVE_DESIGN'));
ENDSEC;

DATA;
#1 = MANIFOLD_SOLID_BREP('Solid', #2);
#2 = CLOSED_SHELL('', (#3, #45, #87, #117));
#3 = ADVANCED_FACE('', (#4), #40, .T.);
#4 = FACE_OUTER_BOUND('', #5, .T.);
#5 = EDGE_LOOP('', (#6, #15, #27, #28));
#6 = ORIENTED_EDGE('', *, *, #7, .F.);
#7 = EDGE_CURVE('', #8, #10, #12, .T.);
#8 = VERTEX_POINT('', #9);
#9 = CARTESIAN_POINT('', (55., 15., 0.));
#10 = VERTEX_POINT('', #11);
#11 = CARTESIAN_POINT('', (40., 15., 0.));
#12 = B_SPLINE_CURVE_WITH_KNOTS('', 1, (#13, #14), .UNSPECIFIED., .F., .U., (2, 2), (0., 1.), .UNSPECIFIED.);
#13 = CARTESIAN_POINT('', (55., 15., 0.));
#14 = CARTESIAN_POINT('', (40., 15., 0.));
#15 = ORIENTED_EDGE('', *, *, #16, .T.);
#16 = EDGE_CURVE('', #8, #8, #17, .T.);
#17 = (
   BOUNDED_CURVE ()
   B_SPLINE_CURVE (2, (#18, #19, #20, #21, #22, #23, #24, #25, #26), .UNSPECIFIED., .T., .U.)
   B_SPLINE_CURVE_WITH_KNOTS ((3, 2, 2, 2, 3), (0., 86.3937979737193, 172.787595947439, 259.181393921158, 345.575191894877), .UNSPECIFIED.)
   CURVE ()
   GEOMETRIC_REPRESENTATION_ITEM ()
   RATIONAL_B_SPLINE_CURVE ((1., 0.707106781186548, 1., 0.707106781186548, 1., 0.707106781186548, 1., 0.707106781186548, 1.))
   REPRESENTATION_ITEM ('')
);
#18 = CARTESIAN_POINT('', (55., 15., 3.72243739651165E-30));
#19 = CARTESIAN_POINT('', (55., 15., -55.));
#20 = CARTESIAN_POINT('', (2.55722391901584E-14, 15., -55.));
#21 = CARTESIAN_POINT('', (-55., 15., -55.));
#22 = CARTESIAN_POINT('', (-55., 15., -2.09464121105124E-14));
#23 = CARTESIAN_POINT('', (-55., 15., 55.));
#24 = CARTESIAN_POINT('', (-2.10973031566454E-15, 15., 55.));
#25 = CARTESIAN_POINT('', (55., 15., 55.));
#26 = CARTESIAN_POINT('', (55., 15., 3.72243739651165E-30));
#27 = ORIENTED_EDGE('', *, *, #7, .T.);
#28 = ORIENTED_EDGE('', *, *, #29, .F.);
#29 = EDGE_CURVE('', #10, #10, #30, .T.);
#30 = (
   BOUNDED_CURVE ()
   B_SPLINE_CURVE (2, (#31, #32, #33, #34, #35, #36, #37, #38, #39), .UNSPECIFIED., .T., .U.)
   B_SPLINE_CURVE_WITH_KNOTS ((3, 2, 2, 2, 3), (0., 62.8318530717959, 125.663706143592, 188.495559215388, 251.327412287183), .UNSPECIFIED.)
   CURVE ()
   GEOMETRIC_REPRESENTATION_ITEM ()
   RATIONAL_B_SPLINE_CURVE ((1., 0.707106781186548, 1., 0.707106781186548, 1., 0.707106781186548, 1., 0.707106781186548, 1.))
   REPRESENTATION_ITEM ('')
);
#31 = CARTESIAN_POINT('', (40., 15., -3.45126646034193E-31));
#32 = CARTESIAN_POINT('', (40., 15., -40.));
#33 = CARTESIAN_POINT('', (8.111431023883E-15, 15., -40.));
#34 = CARTESIAN_POINT('', (-40., 15., -40.));
#35 = CARTESIAN_POINT('', (-40., 15., -1.34587351778891E-15));
#36 = CARTESIAN_POINT('', (-40., 15., 40.));
#37 = CARTESIAN_POINT('', (1.86697030950468E-15, 15., 40.));
#38 = CARTESIAN_POINT('', (40., 15., 40.));
#39 = CARTESIAN_POINT('', (40., 15., -3.45126646034193E-31));
#40 = B_SPLINE_SURFACE_WITH_KNOTS('', 1, 1, ((#41, #42), (#43, #44)), .UNSPECIFIED., .F., .F., .U., (2, 2), (2, 2), (0., 1.), (0., 1.), .UNSPECIFIED.);
#41 = CARTESIAN_POINT('', (-60.5, 15., 60.5));
#42 = CARTESIAN_POINT('', (-60.5, 15., -60.5));
#43 = CARTESIAN_POINT('', (60.5, 15., 60.5));
#44 = CARTESIAN_POINT('', (60.5, 15., -60.5));
#45 = ADVANCED_FACE('', (#46), #82, .T.);
#46 = FACE_OUTER_BOUND('', #47, .T.);
#47 = EDGE_LOOP('', (#48, #57, #69, #70));
#48 = ORIENTED_EDGE('', *, *, #49, .F.);
#49 = EDGE_CURVE('', #50, #52, #54, .T.);
#50 = VERTEX_POINT('', #51);
#51 = CARTESIAN_POINT('', (40., 0., 0.));
#52 = VERTEX_POINT('', #53);
#53 = CARTESIAN_POINT('', (55., 0., 0.));
#54 = B_SPLINE_CURVE_WITH_KNOTS('', 1, (#55, #56), .UNSPECIFIED., .F., .U., (2, 2), (0., 1.), .UNSPECIFIED.);
#55 = CARTESIAN_POINT('', (40., 0., 0.));
#56 = CARTESIAN_POINT('', (55., 0., 0.));
#57 = ORIENTED_EDGE('', *, *, #58, .T.);
#58 = EDGE_CURVE('', #50, #50, #59, .T.);
#59 = (
   BOUNDED_CURVE ()
   B_SPLINE_CURVE (2, (#60, #61, #62, #63, #64, #65, #66, #67, #68), .UNSPECIFIED., .T., .U.)
   B_SPLINE_CURVE_WITH_KNOTS ((3, 2, 2, 2, 3), (0., 62.8318530717959, 125.663706143592, 188.495559215388, 251.327412287183), .UNSPECIFIED.)
   CURVE ()
   GEOMETRIC_REPRESENTATION_ITEM ()
   RATIONAL_B_SPLINE_CURVE ((1., 0.707106781186548, 1., 0.707106781186548, 1., 0.707106781186548, 1., 0.707106781186548, 1.))
   REPRESENTATION_ITEM ('')
);
#60 = CARTESIAN_POINT('', (40., 0., -3.45126646034193E-31));
#61 = CARTESIAN_POINT('', (40., 0., -40.));
#62 = CARTESIAN_POINT('', (8.111431023883E-15, 0., -40.));
#63 = CARTESIAN_POINT('', (-40., 0., -40.));
#64 = CARTESIAN_POINT('', (-40., 0., -1.34587351778891E-15));
#65 = CARTESIAN_POINT('', (-40., 0., 40.));
#66 = CARTESIAN_POINT('', (1.86697030950468E-15, 0., 40.));
#67 = CARTESIAN_POINT('', (40., 0., 40.));
#68 = CARTESIAN_POINT('', (40., 0., -3.45126646034193E-31));
#69 = ORIENTED_EDGE('', *, *, #49, .T.);
#70 = ORIENTED_EDGE('', *, *, #71, .F.);
#71 = EDGE_CURVE('', #52, #52, #72, .T.);
#72 = (
   BOUNDED_CURVE ()
   B_SPLINE_CURVE (2, (#73, #74, #75, #76, #77, #78, #79, #80, #81), .UNSPECIFIED., .T., .U.)
   B_SPLINE_CURVE_WITH_KNOTS ((3, 2, 2, 2, 3), (0., 0.25, 0.5, 0.75, 1.), .UNSPECIFIED.)
   CURVE ()
   GEOMETRIC_REPRESENTATION_ITEM ()
   RATIONAL_B_SPLINE_CURVE ((1., 0.707106781186548, 1., 0.707106781186548, 1., 0.707106781186548, 1., 0.707106781186548, 1.))
   REPRESENTATION_ITEM ('')
);
#73 = CARTESIAN_POINT('', (55., 0., 0.));
#74 = CARTESIAN_POINT('', (55., 0., -55.));
#75 = CARTESIAN_POINT('', (3.36777869765522E-15, 0., -55.));
#76 = CARTESIAN_POINT('', (-55., 0., -55.));
#77 = CARTESIAN_POINT('', (-55., 0., -6.73555739531044E-15));
#78 = CARTESIAN_POINT('', (-55., 0., 55.));
#79 = CARTESIAN_POINT('', (-1.01033360929657E-14, 0., 55.));
#80 = CARTESIAN_POINT('', (55., 0., 55.));
#81 = CARTESIAN_POINT('', (55., 0., 0.));
#82 = B_SPLINE_SURFACE_WITH_KNOTS('', 1, 1, ((#83, #84), (#85, #86)), .UNSPECIFIED., .F., .F., .U., (2, 2), (2, 2), (0., 1.), (0., 1.), .UNSPECIFIED.);
#83 = CARTESIAN_POINT('', (-60.5, 0., 60.5));
#84 = CARTESIAN_POINT('', (60.5, 0., 60.5));
#85 = CARTESIAN_POINT('', (-60.5, 0., -60.5));
#86 = CARTESIAN_POINT('', (60.5, 0., -60.5));
#87 = ADVANCED_FACE('', (#88), #98, .T.);
#88 = FACE_OUTER_BOUND('', #89, .T.);
#89 = EDGE_LOOP('', (#90, #95, #96, #97));
#90 = ORIENTED_EDGE('', *, *, #91, .F.);
#91 = EDGE_CURVE('', #10, #50, #92, .T.);
#92 = B_SPLINE_CURVE_WITH_KNOTS('', 1, (#93, #94), .UNSPECIFIED., .F., .U., (2, 2), (0., 1.), .UNSPECIFIED.);
#93 = CARTESIAN_POINT('', (40., 15., 0.));
#94 = CARTESIAN_POINT('', (40., 0., 0.));
#95 = ORIENTED_EDGE('', *, *, #29, .T.);
#96 = ORIENTED_EDGE('', *, *, #91, .T.);
#97 = ORIENTED_EDGE('', *, *, #58, .F.);
#98 = (
   BOUNDED_SURFACE ()
   B_SPLINE_SURFACE (2, 1, ((#99, #100), (#101, #102), (#103, #104), (#105, #106), (#107, #108), (#109, #110), (#111, #112), (#113, #114), (#115, #116)), .UNSPECIFIED., .T., .F., .U.)
   B_SPLINE_SURFACE_WITH_KNOTS ((3, 2, 2, 2, 3), (2, 2), (0., 62.8318530717959, 125.663706143592, 188.495559215388, 251.327412287183), (0., 1.), .UNSPECIFIED.)
   GEOMETRIC_REPRESENTATION_ITEM ()
   RATIONAL_B_SPLINE_SURFACE (((1., 1.), (0.707106781186548, 0.707106781186548), (1., 1.), (0.707106781186548, 0.707106781186548), (1., 1.), (0.707106781186548, 0.707106781186548), (1., 1.), (0.707106781186548, 0.707106781186548), (1., 1.)))
   REPRESENTATION_ITEM ('')
   SURFACE ()
);
#99 = CARTESIAN_POINT('', (40., 15., -3.45126646034193E-31));
#100 = CARTESIAN_POINT('', (40., 0., -3.45126646034193E-31));
#101 = CARTESIAN_POINT('', (40., 15., -40.));
#102 = CARTESIAN_POINT('', (40., 0., -40.));
#103 = CARTESIAN_POINT('', (8.111431023883E-15, 15., -40.));
#104 = CARTESIAN_POINT('', (8.111431023883E-15, 0., -40.));
#105 = CARTESIAN_POINT('', (-40., 15., -40.));
#106 = CARTESIAN_POINT('', (-40., 0., -40.));
#107 = CARTESIAN_POINT('', (-40., 15., -1.34587351778891E-15));
#108 = CARTESIAN_POINT('', (-40., 0., -1.34587351778891E-15));
#109 = CARTESIAN_POINT('', (-40., 15., 40.));
#110 = CARTESIAN_POINT('', (-40., 0., 40.));
#111 = CARTESIAN_POINT('', (1.86697030950468E-15, 15., 40.));
#112 = CARTESIAN_POINT('', (1.86697030950468E-15, 0., 40.));
#113 = CARTESIAN_POINT('', (40., 15., 40.));
#114 = CARTESIAN_POINT('', (40., 0., 40.));
#115 = CARTESIAN_POINT('', (40., 15., -3.45126646034193E-31));
#116 = CARTESIAN_POINT('', (40., 0., -3.45126646034193E-31));
#117 = ADVANCED_FACE('', (#118), #128, .T.);
#118 = FACE_OUTER_BOUND('', #119, .T.);
#119 = EDGE_LOOP('', (#120, #125, #126, #127));
#120 = ORIENTED_EDGE('', *, *, #121, .F.);
#121 = EDGE_CURVE('', #52, #8, #122, .T.);
#122 = B_SPLINE_CURVE_WITH_KNOTS('', 1, (#123, #124), .UNSPECIFIED., .F., .U., (2, 2), (0., 1.), .UNSPECIFIED.);
#123 = CARTESIAN_POINT('', (55., 0., 0.));
#124 = CARTESIAN_POINT('', (55., 15., 0.));
#125 = ORIENTED_EDGE('', *, *, #71, .T.);
#126 = ORIENTED_EDGE('', *, *, #121, .T.);
#127 = ORIENTED_EDGE('', *, *, #16, .F.);
#128 = (
   BOUNDED_SURFACE ()
   B_SPLINE_SURFACE (2, 1, ((#129, #130), (#131, #132), (#133, #134), (#135, #136), (#137, #138), (#139, #140), (#141, #142), (#143, #144), (#145, #146)), .UNSPECIFIED., .T., .F., .U.)
   B_SPLINE_SURFACE_WITH_KNOTS ((3, 2, 2, 2, 3), (2, 2), (0., 86.3937979737193, 172.787595947439, 259.181393921158, 345.575191894877), (0., 1.), .UNSPECIFIED.)
   GEOMETRIC_REPRESENTATION_ITEM ()
   RATIONAL_B_SPLINE_SURFACE (((1., 1.), (0.707106781186548, 0.707106781186548), (1., 1.), (0.707106781186548, 0.707106781186548), (1., 1.), (0.707106781186548, 0.707106781186548), (1., 1.), (0.707106781186548, 0.707106781186548), (1., 1.)))
   REPRESENTATION_ITEM ('')
   SURFACE ()
);
#129 = CARTESIAN_POINT('', (55., 0., 3.72243739651165E-30));
#130 = CARTESIAN_POINT('', (55., 15., 3.72243739651165E-30));
#131 = CARTESIAN_POINT('', (55., 0., -55.));
#132 = CARTESIAN_POINT('', (55., 15., -55.));
#133 = CARTESIAN_POINT('', (2.55722391901584E-14, 0., -55.));
#134 = CARTESIAN_POINT('', (2.55722391901584E-14, 15., -55.));
#135 = CARTESIAN_POINT('', (-55., 0., -55.));
#136 = CARTESIAN_POINT('', (-55., 15., -55.));
#137 = CARTESIAN_POINT('', (-55., 0., -2.09464121105124E-14));
#138 = CARTESIAN_POINT('', (-55., 15., -2.09464121105124E-14));
#139 = CARTESIAN_POINT('', (-55., 0., 55.));
#140 = CARTESIAN_POINT('', (-55., 15., 55.));
#141 = CARTESIAN_POINT('', (-2.10973031566454E-15, 0., 55.));
#142 = CARTESIAN_POINT('', (-2.10973031566454E-15, 15., 55.));
#143 = CARTESIAN_POINT('', (55., 0., 55.));
#144 = CARTESIAN_POINT('', (55., 15., 55.));
#145 = CARTESIAN_POINT('', (55., 0., 3.72243739651165E-30));
#146 = CARTESIAN_POINT('', (55., 15., 3.72243739651165E-30));
#147 = DRAUGHTING_MODEL('', (#155, #309), #312);
#148 = PRESENTATION_STYLE_ASSIGNMENT((#149));
#149 = SURFACE_STYLE_USAGE(.POSITIVE., #150);
#150 = SURFACE_SIDE_STYLE('', (#151));
#151 = SURFACE_STYLE_FILL_AREA(#152);
#152 = FILL_AREA_STYLE('', (#153));
#153 = FILL_AREA_STYLE_COLOUR('', #154);
#154 = COLOUR_RGB('', 0.50196078431373, 0.50196078431373, 0.50196078431373);
#155 = STYLED_ITEM('', (#148), #1);
#156 = MANIFOLD_SOLID_BREP('Solid0', #157);
#157 = CLOSED_SHELL('', (#158, #194, #224, #249, #272, #290));
#158 = ADVANCED_FACE('', (#159), #189, .T.);
#159 = FACE_OUTER_BOUND('', #160, .T.);
#160 = EDGE_LOOP('', (#161, #170, #177, #184));
#161 = ORIENTED_EDGE('', *, *, #162, .F.);
#162 = EDGE_CURVE('', #163, #165, #167, .T.);
#163 = VERTEX_POINT('', #164);
#164 = CARTESIAN_POINT('', (2.44929359829471E-15, 45., -40.));
#165 = VERTEX_POINT('', #166);
#166 = CARTESIAN_POINT('', (2.44929359829471E-15, 30., -40.));
#167 = B_SPLINE_CURVE_WITH_KNOTS('', 1, (#168, #169), .UNSPECIFIED., .F., .U., (2, 2), (0., 1.), .UNSPECIFIED.);
#168 = CARTESIAN_POINT('', (2.44929359829471E-15, 45., -40.));
#169 = CARTESIAN_POINT('', (2.44929359829471E-15, 30., -40.));
#170 = ORIENTED_EDGE('', *, *, #171, .F.);
#171 = EDGE_CURVE('', #172, #163, #174, .T.);
#172 = VERTEX_POINT('', #173);
#173 = CARTESIAN_POINT('', (3.36777869765522E-15, 45., -55.));
#174 = B_SPLINE_CURVE_WITH_KNOTS('', 1, (#175, #176), .UNSPECIFIED., .F., .U., (2, 2), (0., 1.), .UNSPECIFIED.);
#175 = CARTESIAN_POINT('', (3.36777869765522E-15, 45., -55.));
#176 = CARTESIAN_POINT('', (2.44929359829471E-15, 45., -40.));
#177 = ORIENTED_EDGE('', *, *, #178, .F.);
#178 = EDGE_CURVE('', #179, #172, #181, .T.);
#179 = VERTEX_POINT('', #180);
#180 = CARTESIAN_POINT('', (3.36777869765522E-15, 30., -55.));
#181 = B_SPLINE_CURVE_WITH_KNOTS('', 1, (#182, #183), .UNSPECIFIED., .F., .U., (2, 2), (0., 1.), .UNSPECIFIED.);
#182 = CARTESIAN_POINT('', (3.36777869765522E-15, 30., -55.));
#183 = CARTESIAN_POINT('', (3.36777869765522E-15, 45., -55.));
#184 = ORIENTED_EDGE('', *, *, #185, .F.);
#185 = EDGE_CURVE('', #165, #179, #186, .T.);
#186 = B_SPLINE_CURVE_WITH_KNOTS('', 1, (#187, #188), .UNSPECIFIED., .F., .U., (2, 2), (0., 1.), .UNSPECIFIED.);
#187 = CARTESIAN_POINT('', (2.44929359829471E-15, 30., -40.));
#188 = CARTESIAN_POINT('', (3.36777869765522E-15, 30., -55.));
#189 = B_SPLINE_SURFACE_WITH_KNOTS('', 1, 1, ((#190, #191), (#192, #193)), .UNSPECIFIED., .F., .F., .U., (2, 2), (2, 2), (0., 1.), (0., 1.), .UNSPECIFIED.);
#190 = CARTESIAN_POINT('', (3.62294989436925E-15, 25.832738110422, -59.167261889578));
#191 = CARTESIAN_POINT('', (3.62294989436925E-15, 49.167261889578, -59.167261889578));
#192 = CARTESIAN_POINT('', (2.19412240158068E-15, 25.832738110422, -35.832738110422));
#193 = CARTESIAN_POINT('', (2.19412240158068E-15, 49.167261889578, -35.832738110422));
#194 = ADVANCED_FACE('', (#195), #219, .T.);
#195 = FACE_OUTER_BOUND('', #196, .T.);
#196 = EDGE_LOOP('', (#197, #206, #212, #213));
#197 = ORIENTED_EDGE('', *, *, #198, .F.);
#198 = EDGE_CURVE('', #199, #201, #203, .T.);
#199 = VERTEX_POINT('', #200);
#200 = CARTESIAN_POINT('', (55., 45., 0.));
#201 = VERTEX_POINT('', #202);
#202 = CARTESIAN_POINT('', (40., 45., 0.));
#203 = B_SPLINE_CURVE_WITH_KNOTS('', 1, (#204, #205), .UNSPECIFIED., .F., .U., (2, 2), (0., 1.), .UNSPECIFIED.);
#204 = CARTESIAN_POINT('', (55., 45., 0.));
#205 = CARTESIAN_POINT('', (40., 45., 0.));
#206 = ORIENTED_EDGE('', *, *, #207, .T.);
#207 = EDGE_CURVE('', #199, #172, #208, .T.);
#208 = (
   BOUNDED_CURVE ()
   B_SPLINE_CURVE (2, (#209, #210, #211), .UNSPECIFIED., .F., .U.)
   B_SPLINE_CURVE_WITH_KNOTS ((3, 3), (0., 86.3937979737193), .UNSPECIFIED.)
   CURVE ()
   GEOMETRIC_REPRESENTATION_ITEM ()
   RATIONAL_B_SPLINE_CURVE ((1., 0.707106781186548, 1.))
   REPRESENTATION_ITEM ('')
);
#209 = CARTESIAN_POINT('', (55., 45., 4.54491453348926E-31));
#210 = CARTESIAN_POINT('', (55., 45., -55.));
#211 = CARTESIAN_POINT('', (9.96855922588116E-15, 45., -55.));
#212 = ORIENTED_EDGE('', *, *, #171, .T.);
#213 = ORIENTED_EDGE('', *, *, #214, .F.);
#214 = EDGE_CURVE('', #201, #163, #215, .T.);
#215 = (
   BOUNDED_CURVE ()
   B_SPLINE_CURVE (2, (#216, #217, #218), .UNSPECIFIED., .F., .U.)
   B_SPLINE_CURVE_WITH_KNOTS ((3, 3), (0., 62.8318530717959), .UNSPECIFIED.)
   CURVE ()
   GEOMETRIC_REPRESENTATION_ITEM ()
   RATIONAL_B_SPLINE_CURVE ((1., 0.707106781186548, 1.))
   REPRESENTATION_ITEM ('')
);
#216 = CARTESIAN_POINT('', (40., 45., 3.94430452610515E-32));
#217 = CARTESIAN_POINT('', (40., 45., -40.));
#218 = CARTESIAN_POINT('', (7.77836411649547E-15, 45., -40.));
#219 = B_SPLINE_SURFACE_WITH_KNOTS('', 1, 1, ((#220, #221), (#222, #223)), .UNSPECIFIED., .F., .F., .U., (2, 2), (2, 2), (0., 1.), (0., 1.), .UNSPECIFIED.);
#220 = CARTESIAN_POINT('', (-60.5, 45., 60.5));
#221 = CARTESIAN_POINT('', (-60.5, 45., -60.5));
#222 = CARTESIAN_POINT('', (60.5, 45., 60.5));
#223 = CARTESIAN_POINT('', (60.5, 45., -60.5));
#224 = ADVANCED_FACE('', (#225), #242, .T.);
#225 = FACE_OUTER_BOUND('', #226, .T.);
#226 = EDGE_LOOP('', (#227, #234, #240, #241));
#227 = ORIENTED_EDGE('', *, *, #228, .F.);
#228 = EDGE_CURVE('', #229, #199, #231, .T.);
#229 = VERTEX_POINT('', #230);
#230 = CARTESIAN_POINT('', (55., 30., 0.));
#231 = B_SPLINE_CURVE_WITH_KNOTS('', 1, (#232, #233), .UNSPECIFIED., .F., .U., (2, 2), (0., 1.), .UNSPECIFIED.);
#232 = CARTESIAN_POINT('', (55., 30., 0.));
#233 = CARTESIAN_POINT('', (55., 45., 0.));
#234 = ORIENTED_EDGE('', *, *, #235, .T.);
#235 = EDGE_CURVE('', #229, #179, #236, .T.);
#236 = (
   BOUNDED_CURVE ()
   B_SPLINE_CURVE (2, (#237, #238, #239), .UNSPECIFIED., .F., .U.)
   B_SPLINE_CURVE_WITH_KNOTS ((3, 3), (0., 1.), .UNSPECIFIED.)
   CURVE ()
   GEOMETRIC_REPRESENTATION_ITEM ()
   RATIONAL_B_SPLINE_CURVE ((1., 0.707106781186548, 1.))
   REPRESENTATION_ITEM ('')
);
#237 = CARTESIAN_POINT('', (55., 30., 0.));
#238 = CARTESIAN_POINT('', (55., 30., -55.));
#239 = CARTESIAN_POINT('', (3.36777869765522E-15, 30., -55.));
#240 = ORIENTED_EDGE('', *, *, #178, .T.);
#241 = ORIENTED_EDGE('', *, *, #207, .F.);
#242 = (
   BOUNDED_SURFACE ()
   B_SPLINE_SURFACE (2, 1, ((#243, #244), (#245, #246), (#247, #248)), .UNSPECIFIED., .F., .F., .U.)
   B_SPLINE_SURFACE_WITH_KNOTS ((3, 3), (2, 2), (0., 86.3937979737193), (0., 1.), .UNSPECIFIED.)
   GEOMETRIC_REPRESENTATION_ITEM ()
   RATIONAL_B_SPLINE_SURFACE (((1., 1.), (0.707106781186548, 0.707106781186548), (1., 1.)))
   REPRESENTATION_ITEM ('')
   SURFACE ()
);
#243 = CARTESIAN_POINT('', (55., 30., 4.54491453348926E-31));
#244 = CARTESIAN_POINT('', (55., 45., 4.54491453348926E-31));
#245 = CARTESIAN_POINT('', (55., 30., -55.));
#246 = CARTESIAN_POINT('', (55., 45., -55.));
#247 = CARTESIAN_POINT('', (8.03071540108089E-15, 30., -55.));
#248 = CARTESIAN_POINT('', (9.96855922588116E-15, 45., -55.));
#249 = ADVANCED_FACE('', (#250), #267, .T.);
#250 = FACE_OUTER_BOUND('', #251, .T.);
#251 = EDGE_LOOP('', (#252, #259, #265, #266));
#252 = ORIENTED_EDGE('', *, *, #253, .F.);
#253 = EDGE_CURVE('', #254, #229, #256, .T.);
#254 = VERTEX_POINT('', #255);
#255 = CARTESIAN_POINT('', (40., 30., 0.));
#256 = B_SPLINE_CURVE_WITH_KNOTS('', 1, (#257, #258), .UNSPECIFIED., .F., .U., (2, 2), (0., 1.), .UNSPECIFIED.);
#257 = CARTESIAN_POINT('', (40., 30., 0.));
#258 = CARTESIAN_POINT('', (55., 30., 0.));
#259 = ORIENTED_EDGE('', *, *, #260, .T.);
#260 = EDGE_CURVE('', #254, #165, #261, .T.);
#261 = (
   BOUNDED_CURVE ()
   B_SPLINE_CURVE (2, (#262, #263, #264), .UNSPECIFIED., .F., .U.)
   B_SPLINE_CURVE_WITH_KNOTS ((3, 3), (0., 62.8318530717959), .UNSPECIFIED.)
   CURVE ()
   GEOMETRIC_REPRESENTATION_ITEM ()
   RATIONAL_B_SPLINE_CURVE ((1., 0.707106781186548, 1.))
   REPRESENTATION_ITEM ('')
);
#262 = CARTESIAN_POINT('', (40., 30., 3.94430452610515E-32));
#263 = CARTESIAN_POINT('', (40., 30., -40.));
#264 = CARTESIAN_POINT('', (7.77836411649547E-15, 30., -40.));
#265 = ORIENTED_EDGE('', *, *, #185, .T.);
#266 = ORIENTED_EDGE('', *, *, #235, .F.);
#267 = B_SPLINE_SURFACE_WITH_KNOTS('', 1, 1, ((#268, #269), (#270, #271)), .UNSPECIFIED., .F., .F., .U., (2, 2), (2, 2), (0., 1.), (0., 1.), .UNSPECIFIED.);
#268 = CARTESIAN_POINT('', (-60.5, 30., 60.5));
#269 = CARTESIAN_POINT('', (60.5, 30., 60.5));
#270 = CARTESIAN_POINT('', (-60.5, 30., -60.5));
#271 = CARTESIAN_POINT('', (60.5, 30., -60.5));
#272 = ADVANCED_FACE('', (#273), #283, .T.);
#273 = FACE_OUTER_BOUND('', #274, .T.);
#274 = EDGE_LOOP('', (#275, #280, #281, #282));
#275 = ORIENTED_EDGE('', *, *, #276, .F.);
#276 = EDGE_CURVE('', #201, #254, #277, .T.);
#277 = B_SPLINE_CURVE_WITH_KNOTS('', 1, (#278, #279), .UNSPECIFIED., .F., .U., (2, 2), (0., 1.), .UNSPECIFIED.);
#278 = CARTESIAN_POINT('', (40., 45., 0.));
#279 = CARTESIAN_POINT('', (40., 30., 0.));
#280 = ORIENTED_EDGE('', *, *, #214, .T.);
#281 = ORIENTED_EDGE('', *, *, #162, .T.);
#282 = ORIENTED_EDGE('', *, *, #260, .F.);
#283 = (
   BOUNDED_SURFACE ()
   B_SPLINE_SURFACE (2, 1, ((#284, #285), (#286, #287), (#288, #289)), .UNSPECIFIED., .F., .F., .U.)
   B_SPLINE_SURFACE_WITH_KNOTS ((3, 3), (2, 2), (0., 62.8318530717959), (0., 1.), .UNSPECIFIED.)
   GEOMETRIC_REPRESENTATION_ITEM ()
   RATIONAL_B_SPLINE_SURFACE (((1., 1.), (0.707106781186548, 0.707106781186548), (1., 1.)))
   REPRESENTATION_ITEM ('')
   SURFACE ()
);
#284 = CARTESIAN_POINT('', (40., 45., 3.94430452610515E-32));
#285 = CARTESIAN_POINT('', (40., 30., 3.94430452610515E-32));
#286 = CARTESIAN_POINT('', (40., 45., -40.));
#287 = CARTESIAN_POINT('', (40., 30., -40.));
#288 = CARTESIAN_POINT('', (7.77836411649547E-15, 45., -40.));
#289 = CARTESIAN_POINT('', (7.77836411649547E-15, 30., -40.));
#290 = ADVANCED_FACE('', (#291), #297, .T.);
#291 = FACE_OUTER_BOUND('', #292, .T.);
#292 = EDGE_LOOP('', (#293, #294, #295, #296));
#293 = ORIENTED_EDGE('', *, *, #276, .T.);
#294 = ORIENTED_EDGE('', *, *, #253, .T.);
#295 = ORIENTED_EDGE('', *, *, #228, .T.);
#296 = ORIENTED_EDGE('', *, *, #198, .T.);
#297 = B_SPLINE_SURFACE_WITH_KNOTS('', 1, 1, ((#298, #299), (#300, #301)), .UNSPECIFIED., .F., .F., .U., (2, 2), (2, 2), (0., 1.), (0., 1.), .UNSPECIFIED.);
#298 = CARTESIAN_POINT('', (59.167261889578, 25.832738110422, 0.));
#299 = CARTESIAN_POINT('', (35.832738110422, 25.832738110422, 0.));
#300 = CARTESIAN_POINT('', (59.167261889578, 49.167261889578, 0.));
#301 = CARTESIAN_POINT('', (35.832738110422, 49.167261889578, 0.));
#302 = PRESENTATION_STYLE_ASSIGNMENT((#303));
#303 = SURFACE_STYLE_USAGE(.POSITIVE., #304);
#304 = SURFACE_SIDE_STYLE('', (#305));
#305 = SURFACE_STYLE_FILL_AREA(#306);
#306 = FILL_AREA_STYLE('', (#307));
#307 = FILL_AREA_STYLE_COLOUR('', #308);
#308 = COLOUR_RGB('', 0.50196078431373, 0.50196078431373, 0.50196078431373);
#309 = STYLED_ITEM('', (#302), #156);
#310 = CARTESIAN_POINT('Origin', (0., 0., 0.));
#311 = GEOMETRIC_SET('', (#310));
#312 = (
   GEOMETRIC_REPRESENTATION_CONTEXT (3)
   GLOBAL_UNCERTAINTY_ASSIGNED_CONTEXT ((#314))
   GLOBAL_UNIT_ASSIGNED_CONTEXT ((#313, #315, #316))
   REPRESENTATION_CONTEXT ('', '3D')
);
#313 = (
   LENGTH_UNIT ()
   NAMED_UNIT (*)
   SI_UNIT (.MILLI., .METRE.)
);
#314 = UNCERTAINTY_MEASURE_WITH_UNIT(LENGTH_MEASURE(1.E-6), #313, 'DISTANCE_ACCURACY_VALUE', '');
#315 = (
   NAMED_UNIT (*)
   SI_UNIT ($, .STERADIAN.)
   SOLID_ANGLE_UNIT ()
);
#316 = (
   NAMED_UNIT (*)
   PLANE_ANGLE_UNIT ()
   SI_UNIT ($, .RADIAN.)
);
#317 = SHAPE_REPRESENTATION('', (#332), #312);
#318 = PRODUCT_DEFINITION_SHAPE('', '', #319);
#319 = PRODUCT_DEFINITION('', '', #322, #326);
#320 = APPLICATION_CONTEXT('configuration controlled 3D designs of mechanical parts and assemblies');
#321 = APPLICATION_PROTOCOL_DEFINITION('International Standard', 'automotive_design', 2002, #320);
#322 = PRODUCT_DEFINITION_FORMATION_WITH_SPECIFIED_SOURCE('', '', #323, .NOT_KNOWN.);
#323 = PRODUCT('ZeroAngle', 'ZeroAngle', '', (#324));
#324 = PRODUCT_CONTEXT('', #320, 'mechanical');
#325 = PRODUCT_RELATED_PRODUCT_CATEGORY('detail', '', (#323));
#326 = PRODUCT_DEFINITION_CONTEXT('part definition', #320, 'design');
#327 = SHAPE_DEFINITION_REPRESENTATION(#318, #317);
#328 = SHAPE_REPRESENTATION_RELATIONSHIP('', '', #317, #329);
#329 = SHAPE_REPRESENTATION('', (#311), #312);
#330 = SHAPE_REPRESENTATION_RELATIONSHIP('', '', #317, #331);
#331 = ADVANCED_BREP_SHAPE_REPRESENTATION('', (#1, #156), #312);
#332 = AXIS2_PLACEMENT_3D('', #333, #334, #335);
#333 = CARTESIAN_POINT('', (0., 0., 0.));
#334 = DIRECTION('', (0., 0., 1.));
#335 = DIRECTION('', (1., 0., 0.));
ENDSEC;
END-ISO-10303-21;
