ISO-10303-21;
HEADER;
FILE_DESCRIPTION(('STEP'), '1');
FILE_NAME('AxisTest', '2026-04-14T13:11:06', (''), (''), 'Express 3.1.2.0', 'Express Tool', 'Unknown');
FILE_SCHEMA(('AUTOMOTIVE_DESIGN'));
ENDSEC;

DATA;
#1 = MANIFOLD_SOLID_BREP('Solid', #2);
#2 = CLOSED_SHELL('', (#3, #59, #84, #127));
#3 = ADVANCED_FACE('', (#4), #40, .T.);
#4 = FACE_OUTER_BOUND('', #5, .T.);
#5 = EDGE_LOOP('', (#6, #15, #27, #28));
#6 = ORIENTED_EDGE('', *, *, #7, .T.);
#7 = EDGE_CURVE('', #8, #10, #12, .T.);
#8 = VERTEX_POINT('', #9);
#9 = CARTESIAN_POINT('', (10., 40., 0.));
#10 = VERTEX_POINT('', #11);
#11 = CARTESIAN_POINT('', (0., 40., 0.));
#12 = B_SPLINE_CURVE_WITH_KNOTS('', 1, (#13, #14), .UNSPECIFIED., .F., .U., (2, 2), (0., 1.), .UNSPECIFIED.);
#13 = CARTESIAN_POINT('', (10., 40., 0.));
#14 = CARTESIAN_POINT('', (0., 40., 0.));
#15 = ORIENTED_EDGE('', *, *, #16, .T.);
#16 = EDGE_CURVE('', #10, #10, #17, .T.);
#17 = (
   BOUNDED_CURVE ()
   B_SPLINE_CURVE (2, (#18, #19, #20, #21, #22, #23, #24, #25, #26), .UNSPECIFIED., .T., .U.)
   B_SPLINE_CURVE_WITH_KNOTS ((3, 2, 2, 2, 3), (0., 62.8318530717959, 125.663706143592, 188.495559215388, 251.327412287183), .UNSPECIFIED.)
   CURVE ()
   GEOMETRIC_REPRESENTATION_ITEM ()
   RATIONAL_B_SPLINE_CURVE ((1., 0.707106781186548, 1., 0.707106781186548, 1., 0.707106781186548, 1., 0.707106781186548, 1.))
   REPRESENTATION_ITEM ('')
);
#18 = CARTESIAN_POINT('', (0., 40., 0.));
#19 = CARTESIAN_POINT('', (0., 40., 40.));
#20 = CARTESIAN_POINT('', (0., 2.44929359829471E-15, 40.));
#21 = CARTESIAN_POINT('', (0., -40., 40.));
#22 = CARTESIAN_POINT('', (0., -40., 4.89858719658941E-15));
#23 = CARTESIAN_POINT('', (0., -40., -40.));
#24 = CARTESIAN_POINT('', (0., -7.34788079488412E-15, -40.));
#25 = CARTESIAN_POINT('', (0., 40., -40.));
#26 = CARTESIAN_POINT('', (0., 40., 0.));
#27 = ORIENTED_EDGE('', *, *, #7, .F.);
#28 = ORIENTED_EDGE('', *, *, #29, .F.);
#29 = EDGE_CURVE('', #8, #8, #30, .T.);
#30 = (
   BOUNDED_CURVE ()
   B_SPLINE_CURVE (2, (#31, #32, #33, #34, #35, #36, #37, #38, #39), .UNSPECIFIED., .T., .U.)
   B_SPLINE_CURVE_WITH_KNOTS ((3, 2, 2, 2, 3), (0., 62.8318530717959, 125.663706143592, 188.495559215388, 251.327412287183), .UNSPECIFIED.)
   CURVE ()
   GEOMETRIC_REPRESENTATION_ITEM ()
   RATIONAL_B_SPLINE_CURVE ((1., 0.707106781186548, 1., 0.707106781186548, 1., 0.707106781186548, 1., 0.707106781186548, 1.))
   REPRESENTATION_ITEM ('')
);
#31 = CARTESIAN_POINT('', (10., 40., 0.));
#32 = CARTESIAN_POINT('', (10., 40., 40.));
#33 = CARTESIAN_POINT('', (10., 2.44929359829471E-15, 40.));
#34 = CARTESIAN_POINT('', (10., -40., 40.));
#35 = CARTESIAN_POINT('', (10., -40., 4.89858719658941E-15));
#36 = CARTESIAN_POINT('', (10., -40., -40.));
#37 = CARTESIAN_POINT('', (10., -7.34788079488412E-15, -40.));
#38 = CARTESIAN_POINT('', (10., 40., -40.));
#39 = CARTESIAN_POINT('', (10., 40., 0.));
#40 = (
   BOUNDED_SURFACE ()
   B_SPLINE_SURFACE (1, 2, ((#41, #42, #43, #44, #45, #46, #47, #48, #49), (#50, #51, #52, #53, #54, #55, #56, #57, #58)), .UNSPECIFIED., .F., .T., .U.)
   B_SPLINE_SURFACE_WITH_KNOTS ((2, 2), (3, 2, 2, 2, 3), (0., 1.), (0., 62.8318530717959, 125.663706143592, 188.495559215388, 251.327412287183), .UNSPECIFIED.)
   GEOMETRIC_REPRESENTATION_ITEM ()
   RATIONAL_B_SPLINE_SURFACE (((1., 0.707106781186548, 1., 0.707106781186548, 1., 0.707106781186548, 1., 0.707106781186548, 1.), (1., 0.707106781186548, 1., 0.707106781186548, 1., 0.707106781186548, 1., 0.707106781186548, 1.)))
   REPRESENTATION_ITEM ('')
   SURFACE ()
);
#41 = CARTESIAN_POINT('', (10., 40., 0.));
#42 = CARTESIAN_POINT('', (10., 40., 40.));
#43 = CARTESIAN_POINT('', (10., 2.44929359829471E-15, 40.));
#44 = CARTESIAN_POINT('', (10., -40., 40.));
#45 = CARTESIAN_POINT('', (10., -40., 4.89858719658941E-15));
#46 = CARTESIAN_POINT('', (10., -40., -40.));
#47 = CARTESIAN_POINT('', (10., -7.34788079488412E-15, -40.));
#48 = CARTESIAN_POINT('', (10., 40., -40.));
#49 = CARTESIAN_POINT('', (10., 40., 0.));
#50 = CARTESIAN_POINT('', (0., 40., 0.));
#51 = CARTESIAN_POINT('', (0., 40., 40.));
#52 = CARTESIAN_POINT('', (0., 2.44929359829471E-15, 40.));
#53 = CARTESIAN_POINT('', (0., -40., 40.));
#54 = CARTESIAN_POINT('', (0., -40., 4.89858719658941E-15));
#55 = CARTESIAN_POINT('', (0., -40., -40.));
#56 = CARTESIAN_POINT('', (0., -7.34788079488412E-15, -40.));
#57 = CARTESIAN_POINT('', (0., 40., -40.));
#58 = CARTESIAN_POINT('', (0., 40., 0.));
#59 = ADVANCED_FACE('', (#60, #63), #79, .T.);
#60 = FACE_OUTER_BOUND('', #61, .T.);
#61 = EDGE_LOOP('', (#62));
#62 = ORIENTED_EDGE('', *, *, #16, .F.);
#63 = FACE_BOUND('', #64, .T.);
#64 = EDGE_LOOP('', (#65));
#65 = ORIENTED_EDGE('', *, *, #66, .T.);
#66 = EDGE_CURVE('', #67, #67, #69, .T.);
#67 = VERTEX_POINT('', #68);
#68 = CARTESIAN_POINT('', (0., 30., 0.));
#69 = (
   BOUNDED_CURVE ()
   B_SPLINE_CURVE (2, (#70, #71, #72, #73, #74, #75, #76, #77, #78), .UNSPECIFIED., .T., .U.)
   B_SPLINE_CURVE_WITH_KNOTS ((3, 2, 2, 2, 3), (0., 47.1238898038469, 94.2477796076938, 141.371669411541, 188.495559215388), .UNSPECIFIED.)
   CURVE ()
   GEOMETRIC_REPRESENTATION_ITEM ()
   RATIONAL_B_SPLINE_CURVE ((1., 0.707106781186548, 1., 0.707106781186548, 1., 0.707106781186548, 1., 0.707106781186548, 1.))
   REPRESENTATION_ITEM ('')
);
#70 = CARTESIAN_POINT('', (0., 30., 0.));
#71 = CARTESIAN_POINT('', (0., 30., 30.));
#72 = CARTESIAN_POINT('', (0., 1.83697019872103E-15, 30.));
#73 = CARTESIAN_POINT('', (0., -30., 30.));
#74 = CARTESIAN_POINT('', (0., -30., 3.67394039744206E-15));
#75 = CARTESIAN_POINT('', (0., -30., -30.));
#76 = CARTESIAN_POINT('', (0., -5.51091059616309E-15, -30.));
#77 = CARTESIAN_POINT('', (0., 30., -30.));
#78 = CARTESIAN_POINT('', (0., 30., 0.));
#79 = B_SPLINE_SURFACE_WITH_KNOTS('', 1, 1, ((#80, #81), (#82, #83)), .UNSPECIFIED., .F., .F., .U., (2, 2), (2, 2), (0., 1.), (0., 1.), .UNSPECIFIED.);
#80 = CARTESIAN_POINT('', (0., -62.2253967444162, -62.2253967444162));
#81 = CARTESIAN_POINT('', (0., 62.2253967444162, -62.2253967444162));
#82 = CARTESIAN_POINT('', (0., -62.2253967444162, 62.2253967444162));
#83 = CARTESIAN_POINT('', (0., 62.2253967444162, 62.2253967444162));
#84 = ADVANCED_FACE('', (#85), #108, .T.);
#85 = FACE_OUTER_BOUND('', #86, .T.);
#86 = EDGE_LOOP('', (#87, #94, #106, #107));
#87 = ORIENTED_EDGE('', *, *, #88, .T.);
#88 = EDGE_CURVE('', #67, #89, #91, .T.);
#89 = VERTEX_POINT('', #90);
#90 = CARTESIAN_POINT('', (10., 30., 0.));
#91 = B_SPLINE_CURVE_WITH_KNOTS('', 1, (#92, #93), .UNSPECIFIED., .F., .U., (2, 2), (0., 1.), .UNSPECIFIED.);
#92 = CARTESIAN_POINT('', (0., 30., 0.));
#93 = CARTESIAN_POINT('', (10., 30., 0.));
#94 = ORIENTED_EDGE('', *, *, #95, .T.);
#95 = EDGE_CURVE('', #89, #89, #96, .T.);
#96 = (
   BOUNDED_CURVE ()
   B_SPLINE_CURVE (2, (#97, #98, #99, #100, #101, #102, #103, #104, #105), .UNSPECIFIED., .T., .U.)
   B_SPLINE_CURVE_WITH_KNOTS ((3, 2, 2, 2, 3), (0., 47.1238898038469, 94.2477796076938, 141.371669411541, 188.495559215388), .UNSPECIFIED.)
   CURVE ()
   GEOMETRIC_REPRESENTATION_ITEM ()
   RATIONAL_B_SPLINE_CURVE ((1., 0.707106781186548, 1., 0.707106781186548, 1., 0.707106781186548, 1., 0.707106781186548, 1.))
   REPRESENTATION_ITEM ('')
);
#97 = CARTESIAN_POINT('', (10., 30., 0.));
#98 = CARTESIAN_POINT('', (10., 30., 30.));
#99 = CARTESIAN_POINT('', (10., 1.83697019872103E-15, 30.));
#100 = CARTESIAN_POINT('', (10., -30., 30.));
#101 = CARTESIAN_POINT('', (10., -30., 3.67394039744206E-15));
#102 = CARTESIAN_POINT('', (10., -30., -30.));
#103 = CARTESIAN_POINT('', (10., -5.51091059616309E-15, -30.));
#104 = CARTESIAN_POINT('', (10., 30., -30.));
#105 = CARTESIAN_POINT('', (10., 30., 0.));
#106 = ORIENTED_EDGE('', *, *, #88, .F.);
#107 = ORIENTED_EDGE('', *, *, #66, .F.);
#108 = (
   BOUNDED_SURFACE ()
   B_SPLINE_SURFACE (1, 2, ((#109, #110, #111, #112, #113, #114, #115, #116, #117), (#118, #119, #120, #121, #122, #123, #124, #125, #126)), .UNSPECIFIED., .F., .T., .U.)
   B_SPLINE_SURFACE_WITH_KNOTS ((2, 2), (3, 2, 2, 2, 3), (0., 1.), (0., 47.1238898038469, 94.2477796076938, 141.371669411541, 188.495559215388), .UNSPECIFIED.)
   GEOMETRIC_REPRESENTATION_ITEM ()
   RATIONAL_B_SPLINE_SURFACE (((1., 0.707106781186548, 1., 0.707106781186548, 1., 0.707106781186548, 1., 0.707106781186548, 1.), (1., 0.707106781186548, 1., 0.707106781186548, 1., 0.707106781186548, 1., 0.707106781186548, 1.)))
   REPRESENTATION_ITEM ('')
   SURFACE ()
);
#109 = CARTESIAN_POINT('', (0., 30., 0.));
#110 = CARTESIAN_POINT('', (0., 30., 30.));
#111 = CARTESIAN_POINT('', (0., 1.83697019872103E-15, 30.));
#112 = CARTESIAN_POINT('', (0., -30., 30.));
#113 = CARTESIAN_POINT('', (0., -30., 3.67394039744206E-15));
#114 = CARTESIAN_POINT('', (0., -30., -30.));
#115 = CARTESIAN_POINT('', (0., -5.51091059616309E-15, -30.));
#116 = CARTESIAN_POINT('', (0., 30., -30.));
#117 = CARTESIAN_POINT('', (0., 30., 0.));
#118 = CARTESIAN_POINT('', (10., 30., 0.));
#119 = CARTESIAN_POINT('', (10., 30., 30.));
#120 = CARTESIAN_POINT('', (10., 1.83697019872103E-15, 30.));
#121 = CARTESIAN_POINT('', (10., -30., 30.));
#122 = CARTESIAN_POINT('', (10., -30., 3.67394039744206E-15));
#123 = CARTESIAN_POINT('', (10., -30., -30.));
#124 = CARTESIAN_POINT('', (10., -5.51091059616309E-15, -30.));
#125 = CARTESIAN_POINT('', (10., 30., -30.));
#126 = CARTESIAN_POINT('', (10., 30., 0.));
#127 = ADVANCED_FACE('', (#128, #131), #134, .T.);
#128 = FACE_OUTER_BOUND('', #129, .T.);
#129 = EDGE_LOOP('', (#130));
#130 = ORIENTED_EDGE('', *, *, #29, .T.);
#131 = FACE_BOUND('', #132, .T.);
#132 = EDGE_LOOP('', (#133));
#133 = ORIENTED_EDGE('', *, *, #95, .F.);
#134 = B_SPLINE_SURFACE_WITH_KNOTS('', 1, 1, ((#135, #136), (#137, #138)), .UNSPECIFIED., .F., .F., .U., (2, 2), (2, 2), (0., 1.), (0., 1.), .UNSPECIFIED.);
#135 = CARTESIAN_POINT('', (10., -62.2253967444162, -62.2253967444162));
#136 = CARTESIAN_POINT('', (10., -62.2253967444162, 62.2253967444162));
#137 = CARTESIAN_POINT('', (10., 62.2253967444162, -62.2253967444162));
#138 = CARTESIAN_POINT('', (10., 62.2253967444162, 62.2253967444162));
#139 = DRAUGHTING_MODEL('', (#147, #279, #492), #495);
#140 = PRESENTATION_STYLE_ASSIGNMENT((#141));
#141 = SURFACE_STYLE_USAGE(.POSITIVE., #142);
#142 = SURFACE_SIDE_STYLE('', (#143));
#143 = SURFACE_STYLE_FILL_AREA(#144);
#144 = FILL_AREA_STYLE('', (#145));
#145 = FILL_AREA_STYLE_COLOUR('', #146);
#146 = COLOUR_RGB('', 0.50196078431373, 0.50196078431373, 0.50196078431373);
#147 = STYLED_ITEM('', (#140), #1);
#148 = SHELL_BASED_SURFACE_MODEL('Solid0', (#149, #200, #224, #257));
#149 = OPEN_SHELL('', (#150));
#150 = ADVANCED_FACE('', (#151, #173), #195, .F.);
#151 = FACE_OUTER_BOUND('', #152, .F.);
#152 = EDGE_LOOP('', (#153, #163));
#153 = ORIENTED_EDGE('', *, *, #154, .T.);
#154 = EDGE_CURVE('', #155, #157, #159, .T.);
#155 = VERTEX_POINT('', #156);
#156 = CARTESIAN_POINT('', (55.9016994374947, -1.02689755924538E-14, 0.));
#157 = VERTEX_POINT('', #158);
#158 = CARTESIAN_POINT('', (0., 55.9016994374947, 0.));
#159 = (
   BOUNDED_CURVE ()
   B_SPLINE_CURVE (2, (#160, #161, #162), .UNSPECIFIED., .F., .U.)
   B_SPLINE_CURVE_WITH_KNOTS ((3, 3), (0., 0.25), .UNSPECIFIED.)
   CURVE ()
   GEOMETRIC_REPRESENTATION_ITEM ()
   RATIONAL_B_SPLINE_CURVE ((1., 0.707106781186548, 1.))
   REPRESENTATION_ITEM ('')
);
#160 = CARTESIAN_POINT('', (55.9016994374947, 0., 0.));
#161 = CARTESIAN_POINT('', (55.9016994374947, 55.9016994374947, 0.));
#162 = CARTESIAN_POINT('', (3.42299186415127E-15, 55.9016994374947, 0.));
#163 = ORIENTED_EDGE('', *, *, #164, .T.);
#164 = EDGE_CURVE('', #157, #155, #165, .T.);
#165 = (
   BOUNDED_CURVE ()
   B_SPLINE_CURVE (2, (#166, #167, #168, #169, #170, #171, #172), .UNSPECIFIED., .F., .U.)
   B_SPLINE_CURVE_WITH_KNOTS ((3, 2, 2, 3), (0., 0.25, 0.5, 0.75), .UNSPECIFIED.)
   CURVE ()
   GEOMETRIC_REPRESENTATION_ITEM ()
   RATIONAL_B_SPLINE_CURVE ((1., 0.707106781186548, 1., 0.707106781186548, 1., 0.707106781186548, 1.))
   REPRESENTATION_ITEM ('')
);
#166 = CARTESIAN_POINT('', (0., 55.9016994374947, 0.));
#167 = CARTESIAN_POINT('', (-55.9016994374947, 55.9016994374947, 0.));
#168 = CARTESIAN_POINT('', (-55.9016994374947, 3.42299186415127E-15, 0.));
#169 = CARTESIAN_POINT('', (-55.9016994374947, -55.9016994374947, 0.));
#170 = CARTESIAN_POINT('', (-6.84598372830253E-15, -55.9016994374947, 0.));
#171 = CARTESIAN_POINT('', (55.9016994374947, -55.9016994374948, 0.));
#172 = CARTESIAN_POINT('', (55.9016994374947, -1.02689755924538E-14, 0.));
#173 = FACE_BOUND('', #174, .F.);
#174 = EDGE_LOOP('', (#175, #189));
#175 = ORIENTED_EDGE('', *, *, #176, .F.);
#176 = EDGE_CURVE('', #177, #179, #181, .T.);
#177 = VERTEX_POINT('', #178);
#178 = CARTESIAN_POINT('', (2.52467405347956E-15, 41.2310562561766, 0.));
#179 = VERTEX_POINT('', #180);
#180 = CARTESIAN_POINT('', (41.2310562561766, -7.57402216043867E-15, 0.));
#181 = (
   BOUNDED_CURVE ()
   B_SPLINE_CURVE (2, (#182, #183, #184, #185, #186, #187, #188), .UNSPECIFIED., .F., .U.)
   B_SPLINE_CURVE_WITH_KNOTS ((3, 2, 2, 3), (0.25, 0.5, 0.75, 1.), .UNSPECIFIED.)
   CURVE ()
   GEOMETRIC_REPRESENTATION_ITEM ()
   RATIONAL_B_SPLINE_CURVE ((1., 0.707106781186548, 1., 0.707106781186548, 1., 0.707106781186548, 1.))
   REPRESENTATION_ITEM ('')
);
#182 = CARTESIAN_POINT('', (2.52467405347956E-15, 41.2310562561766, 0.));
#183 = CARTESIAN_POINT('', (-41.2310562561766, 41.2310562561766, 0.));
#184 = CARTESIAN_POINT('', (-41.2310562561766, 5.04934810695911E-15, 0.));
#185 = CARTESIAN_POINT('', (-41.2310562561766, -41.2310562561766, 0.));
#186 = CARTESIAN_POINT('', (-7.57402216043867E-15, -41.2310562561766, 0.));
#187 = CARTESIAN_POINT('', (41.2310562561766, -41.2310562561766, 0.));
#188 = CARTESIAN_POINT('', (41.2310562561766, -1.00986962139182E-14, 0.));
#189 = ORIENTED_EDGE('', *, *, #190, .F.);
#190 = EDGE_CURVE('', #179, #177, #191, .T.);
#191 = (
   BOUNDED_CURVE ()
   B_SPLINE_CURVE (2, (#192, #193, #194), .UNSPECIFIED., .F., .U.)
   B_SPLINE_CURVE_WITH_KNOTS ((3, 3), (0., 0.25), .UNSPECIFIED.)
   CURVE ()
   GEOMETRIC_REPRESENTATION_ITEM ()
   RATIONAL_B_SPLINE_CURVE ((1., 0.707106781186548, 1.))
   REPRESENTATION_ITEM ('')
);
#192 = CARTESIAN_POINT('', (41.2310562561766, 0., 0.));
#193 = CARTESIAN_POINT('', (41.2310562561766, 41.2310562561766, 0.));
#194 = CARTESIAN_POINT('', (2.52467405347956E-15, 41.2310562561766, 0.));
#195 = B_SPLINE_SURFACE_WITH_KNOTS('', 1, 1, ((#196, #197), (#198, #199)), .UNSPECIFIED., .F., .F., .U., (2, 2), (2, 2), (0., 1.), (0., 1.), .UNSPECIFIED.);
#196 = CARTESIAN_POINT('', (86.9626356546304, -86.9626356546304, 0.));
#197 = CARTESIAN_POINT('', (-86.9626356546304, -86.9626356546304, 0.));
#198 = CARTESIAN_POINT('', (86.9626356546304, 86.9626356546304, 0.));
#199 = CARTESIAN_POINT('', (-86.9626356546304, 86.9626356546304, 0.));
#200 = OPEN_SHELL('', (#201));
#201 = ADVANCED_FACE('', (#202, #206), #219, .F.);
#202 = FACE_OUTER_BOUND('', #203, .F.);
#203 = EDGE_LOOP('', (#204, #205));
#204 = ORIENTED_EDGE('', *, *, #176, .T.);
#205 = ORIENTED_EDGE('', *, *, #190, .T.);
#206 = FACE_BOUND('', #207, .F.);
#207 = EDGE_LOOP('', (#208, #218));
#208 = ORIENTED_EDGE('', *, *, #209, .F.);
#209 = EDGE_CURVE('', #210, #212, #214, .T.);
#210 = VERTEX_POINT('', #211);
#211 = CARTESIAN_POINT('', (40., -7.34788079488412E-15, 0.));
#212 = VERTEX_POINT('', #213);
#213 = CARTESIAN_POINT('', (2.44929359829471E-15, 40., 0.));
#214 = (
   BOUNDED_CURVE ()
   B_SPLINE_CURVE (2, (#215, #216, #217), .UNSPECIFIED., .F., .U.)
   B_SPLINE_CURVE_WITH_KNOTS ((3, 3), (0., 0.25), .UNSPECIFIED.)
   CURVE ()
   GEOMETRIC_REPRESENTATION_ITEM ()
   RATIONAL_B_SPLINE_CURVE ((1., 0.707106781186548, 1.))
   REPRESENTATION_ITEM ('')
);
#215 = CARTESIAN_POINT('', (40., 0., 0.));
#216 = CARTESIAN_POINT('', (40., 40., 0.));
#217 = CARTESIAN_POINT('', (2.44929359829471E-15, 40., 0.));
#218 = ORIENTED_EDGE('', *, *, #209, .T.);
#219 = B_SPLINE_SURFACE_WITH_KNOTS('', 1, 1, ((#220, #221), (#222, #223)), .UNSPECIFIED., .F., .F., .U., (2, 2), (2, 2), (0., 1.), (0., 1.), .UNSPECIFIED.);
#220 = CARTESIAN_POINT('', (64.1404708432983, -64.1404708432983, 0.));
#221 = CARTESIAN_POINT('', (-64.1404708432983, -64.1404708432983, 0.));
#222 = CARTESIAN_POINT('', (64.1404708432983, 64.1404708432983, 0.));
#223 = CARTESIAN_POINT('', (-64.1404708432983, 64.1404708432983, 0.));
#224 = OPEN_SHELL('', (#225));
#225 = ADVANCED_FACE('', (#226, #248), #252, .F.);
#226 = FACE_OUTER_BOUND('', #227, .F.);
#227 = EDGE_LOOP('', (#228, #238));
#228 = ORIENTED_EDGE('', *, *, #229, .F.);
#229 = EDGE_CURVE('', #230, #232, #234, .T.);
#230 = VERTEX_POINT('', #231);
#231 = CARTESIAN_POINT('', (55., -1.01033360929657E-14, 0.));
#232 = VERTEX_POINT('', #233);
#233 = CARTESIAN_POINT('', (0., 55., 0.));
#234 = (
   BOUNDED_CURVE ()
   B_SPLINE_CURVE (2, (#235, #236, #237), .UNSPECIFIED., .F., .U.)
   B_SPLINE_CURVE_WITH_KNOTS ((3, 3), (0.75, 1.), .UNSPECIFIED.)
   CURVE ()
   GEOMETRIC_REPRESENTATION_ITEM ()
   RATIONAL_B_SPLINE_CURVE ((1., 0.707106781186548, 1.))
   REPRESENTATION_ITEM ('')
);
#235 = CARTESIAN_POINT('', (55., -1.01033360929657E-14, 0.));
#236 = CARTESIAN_POINT('', (55., 55., 0.));
#237 = CARTESIAN_POINT('', (1.34711147906209E-14, 55., 0.));
#238 = ORIENTED_EDGE('', *, *, #239, .F.);
#239 = EDGE_CURVE('', #232, #230, #240, .T.);
#240 = (
   BOUNDED_CURVE ()
   B_SPLINE_CURVE (2, (#241, #242, #243, #244, #245, #246, #247), .UNSPECIFIED., .F., .U.)
   B_SPLINE_CURVE_WITH_KNOTS ((3, 2, 2, 3), (0., 0.25, 0.5, 0.75), .UNSPECIFIED.)
   CURVE ()
   GEOMETRIC_REPRESENTATION_ITEM ()
   RATIONAL_B_SPLINE_CURVE ((1., 0.707106781186548, 1., 0.707106781186548, 1., 0.707106781186548, 1.))
   REPRESENTATION_ITEM ('')
);
#241 = CARTESIAN_POINT('', (0., 55., 0.));
#242 = CARTESIAN_POINT('', (-55., 55., 0.));
#243 = CARTESIAN_POINT('', (-55., 3.36777869765522E-15, 0.));
#244 = CARTESIAN_POINT('', (-55., -55., 0.));
#245 = CARTESIAN_POINT('', (-6.73555739531044E-15, -55., 0.));
#246 = CARTESIAN_POINT('', (55., -55., 0.));
#247 = CARTESIAN_POINT('', (55., -1.01033360929657E-14, 0.));
#248 = FACE_BOUND('', #249, .F.);
#249 = EDGE_LOOP('', (#250, #251));
#250 = ORIENTED_EDGE('', *, *, #209, .T.);
#251 = ORIENTED_EDGE('', *, *, #209, .F.);
#252 = B_SPLINE_SURFACE_WITH_KNOTS('', 1, 1, ((#253, #254), (#255, #256)), .UNSPECIFIED., .F., .F., .U., (2, 2), (2, 2), (0., 1.), (0., 1.), .UNSPECIFIED.);
#253 = CARTESIAN_POINT('', (85.5599205235723, -85.5599205235723, 0.));
#254 = CARTESIAN_POINT('', (85.5599205235723, 85.5599205235723, 0.));
#255 = CARTESIAN_POINT('', (-85.5599205235723, -85.5599205235723, 0.));
#256 = CARTESIAN_POINT('', (-85.5599205235723, 85.5599205235723, 0.));
#257 = OPEN_SHELL('', (#258));
#258 = ADVANCED_FACE('', (#259, #263), #267, .F.);
#259 = FACE_OUTER_BOUND('', #260, .F.);
#260 = EDGE_LOOP('', (#261, #262));
#261 = ORIENTED_EDGE('', *, *, #164, .F.);
#262 = ORIENTED_EDGE('', *, *, #154, .F.);
#263 = FACE_BOUND('', #264, .F.);
#264 = EDGE_LOOP('', (#265, #266));
#265 = ORIENTED_EDGE('', *, *, #229, .T.);
#266 = ORIENTED_EDGE('', *, *, #239, .T.);
#267 = B_SPLINE_SURFACE_WITH_KNOTS('', 1, 1, ((#268, #269), (#270, #271)), .UNSPECIFIED., .F., .F., .U., (2, 2), (2, 2), (0., 1.), (0., 1.), .UNSPECIFIED.);
#268 = CARTESIAN_POINT('', (86.9626356546304, -86.9626356546304, 0.));
#269 = CARTESIAN_POINT('', (86.9626356546304, 86.9626356546304, 0.));
#270 = CARTESIAN_POINT('', (-86.9626356546304, -86.9626356546304, 0.));
#271 = CARTESIAN_POINT('', (-86.9626356546304, 86.9626356546304, 0.));
#272 = PRESENTATION_STYLE_ASSIGNMENT((#273));
#273 = SURFACE_STYLE_USAGE(.POSITIVE., #274);
#274 = SURFACE_SIDE_STYLE('', (#275));
#275 = SURFACE_STYLE_FILL_AREA(#276);
#276 = FILL_AREA_STYLE('', (#277));
#277 = FILL_AREA_STYLE_COLOUR('', #278);
#278 = COLOUR_RGB('', 0.50196078431373, 0.50196078431373, 0.50196078431373);
#279 = STYLED_ITEM('', (#272), #148);
#280 = SHELL_BASED_SURFACE_MODEL('Solid1', (#281, #332, #383, #434));
#281 = OPEN_SHELL('', (#282));
#282 = ADVANCED_FACE('', (#283), #313, .T.);
#283 = FACE_OUTER_BOUND('', #284, .T.);
#284 = EDGE_LOOP('', (#285, #294, #304, #312));
#285 = ORIENTED_EDGE('', *, *, #286, .T.);
#286 = EDGE_CURVE('', #287, #289, #291, .T.);
#287 = VERTEX_POINT('', #288);
#288 = CARTESIAN_POINT('', (40., 40., 0.));
#289 = VERTEX_POINT('', #290);
#290 = CARTESIAN_POINT('', (50., 40., 0.));
#291 = B_SPLINE_CURVE_WITH_KNOTS('', 1, (#292, #293), .UNSPECIFIED., .F., .U., (2, 2), (0., 1.), .UNSPECIFIED.);
#292 = CARTESIAN_POINT('', (40., 40., 0.));
#293 = CARTESIAN_POINT('', (50., 40., 0.));
#294 = ORIENTED_EDGE('', *, *, #295, .T.);
#295 = EDGE_CURVE('', #289, #296, #298, .T.);
#296 = VERTEX_POINT('', #297);
#297 = CARTESIAN_POINT('', (40., 50., 0.));
#298 = (
   BOUNDED_CURVE ()
   B_SPLINE_CURVE (2, (#299, #300, #301, #302, #303), .UNSPECIFIED., .F., .U.)
   B_SPLINE_CURVE_WITH_KNOTS ((3, 2, 3), (0., 0.25, 0.5), .UNSPECIFIED.)
   CURVE ()
   GEOMETRIC_REPRESENTATION_ITEM ()
   RATIONAL_B_SPLINE_CURVE ((1., 0.707106781186548, 1., 0.707106781186548, 1.))
   REPRESENTATION_ITEM ('')
);
#299 = CARTESIAN_POINT('', (50., 40., 0.));
#300 = CARTESIAN_POINT('', (50., 40., -7.07106781186546));
#301 = CARTESIAN_POINT('', (45., 45., -7.07106781186545));
#302 = CARTESIAN_POINT('', (40., 50., -7.07106781186546));
#303 = CARTESIAN_POINT('', (40., 50., -8.65956056235491E-16));
#304 = ORIENTED_EDGE('', *, *, #305, .T.);
#305 = EDGE_CURVE('', #296, #289, #306, .T.);
#306 = (
   BOUNDED_CURVE ()
   B_SPLINE_CURVE (2, (#307, #308, #309, #310, #311), .UNSPECIFIED., .F., .U.)
   B_SPLINE_CURVE_WITH_KNOTS ((3, 2, 3), (0.5, 0.75, 1.), .UNSPECIFIED.)
   CURVE ()
   GEOMETRIC_REPRESENTATION_ITEM ()
   RATIONAL_B_SPLINE_CURVE ((1., 0.707106781186548, 1., 0.707106781186548, 1.))
   REPRESENTATION_ITEM ('')
);
#307 = CARTESIAN_POINT('', (40., 50., -8.65956056235491E-16));
#308 = CARTESIAN_POINT('', (40., 50., 7.07106781186545));
#309 = CARTESIAN_POINT('', (45., 45., 7.07106781186545));
#310 = CARTESIAN_POINT('', (50., 40., 7.07106781186546));
#311 = CARTESIAN_POINT('', (50., 40., 1.73191211247098E-15));
#312 = ORIENTED_EDGE('', *, *, #286, .F.);
#313 = (
   BOUNDED_SURFACE ()
   B_SPLINE_SURFACE (1, 2, ((#314, #315, #316, #317, #318, #319, #320, #321, #322), (#323, #324, #325, #326, #327, #328, #329, #330, #331)), .UNSPECIFIED., .F., .T., .U.)
   B_SPLINE_SURFACE_WITH_KNOTS ((2, 2), (3, 2, 2, 2, 3), (0., 1.), (0., 0.25, 0.5, 0.75, 1.), .UNSPECIFIED.)
   GEOMETRIC_REPRESENTATION_ITEM ()
   RATIONAL_B_SPLINE_SURFACE (((1., 0.707106781186548, 1., 0.707106781186548, 1., 0.707106781186548, 1., 0.707106781186548, 1.), (1., 0.707106781186548, 1., 0.707106781186548, 1., 0.707106781186548, 1., 0.707106781186548, 1.)))
   REPRESENTATION_ITEM ('')
   SURFACE ()
);
#314 = CARTESIAN_POINT('', (40., 40., 0.));
#315 = CARTESIAN_POINT('', (40., 40., 0.));
#316 = CARTESIAN_POINT('', (40., 40., 0.));
#317 = CARTESIAN_POINT('', (40., 40., 0.));
#318 = CARTESIAN_POINT('', (40., 40., 0.));
#319 = CARTESIAN_POINT('', (40., 40., 0.));
#320 = CARTESIAN_POINT('', (40., 40., 0.));
#321 = CARTESIAN_POINT('', (40., 40., 0.));
#322 = CARTESIAN_POINT('', (40., 40., 0.));
#323 = CARTESIAN_POINT('', (50., 40., 0.));
#324 = CARTESIAN_POINT('', (50., 40., -7.07106781186548));
#325 = CARTESIAN_POINT('', (45., 45., -7.07106781186548));
#326 = CARTESIAN_POINT('', (40., 50., -7.07106781186548));
#327 = CARTESIAN_POINT('', (40., 50., -8.65956056235493E-16));
#328 = CARTESIAN_POINT('', (40., 50., 7.07106781186547));
#329 = CARTESIAN_POINT('', (45., 45., 7.07106781186548));
#330 = CARTESIAN_POINT('', (50., 40., 7.07106781186548));
#331 = CARTESIAN_POINT('', (50., 40., 0.));
#332 = OPEN_SHELL('', (#333));
#333 = ADVANCED_FACE('', (#334), #364, .T.);
#334 = FACE_OUTER_BOUND('', #335, .T.);
#335 = EDGE_LOOP('', (#336, #345, #346, #356));
#336 = ORIENTED_EDGE('', *, *, #337, .T.);
#337 = EDGE_CURVE('', #338, #340, #342, .T.);
#338 = VERTEX_POINT('', #339);
#339 = CARTESIAN_POINT('', (50., 40., 0.));
#340 = VERTEX_POINT('', #341);
#341 = CARTESIAN_POINT('', (50., 50., 0.));
#342 = B_SPLINE_CURVE_WITH_KNOTS('', 1, (#343, #344), .UNSPECIFIED., .F., .U., (2, 2), (0., 1.), .UNSPECIFIED.);
#343 = CARTESIAN_POINT('', (50., 40., 0.));
#344 = CARTESIAN_POINT('', (50., 50., 0.));
#345 = ORIENTED_EDGE('', *, *, #337, .F.);
#346 = ORIENTED_EDGE('', *, *, #347, .F.);
#347 = EDGE_CURVE('', #348, #338, #350, .T.);
#348 = VERTEX_POINT('', #349);
#349 = CARTESIAN_POINT('', (40., 50., 0.));
#350 = (
   BOUNDED_CURVE ()
   B_SPLINE_CURVE (2, (#351, #352, #353, #354, #355), .UNSPECIFIED., .F., .U.)
   B_SPLINE_CURVE_WITH_KNOTS ((3, 2, 3), (0.5, 0.75, 1.), .UNSPECIFIED.)
   CURVE ()
   GEOMETRIC_REPRESENTATION_ITEM ()
   RATIONAL_B_SPLINE_CURVE ((1., 0.707106781186548, 1., 0.707106781186548, 1.))
   REPRESENTATION_ITEM ('')
);
#351 = CARTESIAN_POINT('', (40., 50., -8.65956056235491E-16));
#352 = CARTESIAN_POINT('', (40., 50., 7.07106781186545));
#353 = CARTESIAN_POINT('', (45., 45., 7.07106781186545));
#354 = CARTESIAN_POINT('', (50., 40., 7.07106781186546));
#355 = CARTESIAN_POINT('', (50., 40., 1.73191211247098E-15));
#356 = ORIENTED_EDGE('', *, *, #357, .F.);
#357 = EDGE_CURVE('', #338, #348, #358, .T.);
#358 = (
   BOUNDED_CURVE ()
   B_SPLINE_CURVE (2, (#359, #360, #361, #362, #363), .UNSPECIFIED., .F., .U.)
   B_SPLINE_CURVE_WITH_KNOTS ((3, 2, 3), (0., 0.25, 0.5), .UNSPECIFIED.)
   CURVE ()
   GEOMETRIC_REPRESENTATION_ITEM ()
   RATIONAL_B_SPLINE_CURVE ((1., 0.707106781186548, 1., 0.707106781186548, 1.))
   REPRESENTATION_ITEM ('')
);
#359 = CARTESIAN_POINT('', (50., 40., 0.));
#360 = CARTESIAN_POINT('', (50., 40., -7.07106781186546));
#361 = CARTESIAN_POINT('', (45., 45., -7.07106781186545));
#362 = CARTESIAN_POINT('', (40., 50., -7.07106781186546));
#363 = CARTESIAN_POINT('', (40., 50., -8.65956056235491E-16));
#364 = (
   BOUNDED_SURFACE ()
   B_SPLINE_SURFACE (1, 2, ((#365, #366, #367, #368, #369, #370, #371, #372, #373), (#374, #375, #376, #377, #378, #379, #380, #381, #382)), .UNSPECIFIED., .F., .T., .U.)
   B_SPLINE_SURFACE_WITH_KNOTS ((2, 2), (3, 2, 2, 2, 3), (0., 1.), (0., 0.25, 0.5, 0.75, 1.), .UNSPECIFIED.)
   GEOMETRIC_REPRESENTATION_ITEM ()
   RATIONAL_B_SPLINE_SURFACE (((1., 0.707106781186548, 1., 0.707106781186548, 1., 0.707106781186548, 1., 0.707106781186548, 1.), (1., 0.707106781186548, 1., 0.707106781186548, 1., 0.707106781186548, 1., 0.707106781186548, 1.)))
   REPRESENTATION_ITEM ('')
   SURFACE ()
);
#365 = CARTESIAN_POINT('', (50., 40., 0.));
#366 = CARTESIAN_POINT('', (50., 40., -7.07106781186548));
#367 = CARTESIAN_POINT('', (45., 45., -7.07106781186548));
#368 = CARTESIAN_POINT('', (40., 50., -7.07106781186548));
#369 = CARTESIAN_POINT('', (40., 50., -8.65956056235493E-16));
#370 = CARTESIAN_POINT('', (40., 50., 7.07106781186547));
#371 = CARTESIAN_POINT('', (45., 45., 7.07106781186548));
#372 = CARTESIAN_POINT('', (50., 40., 7.07106781186548));
#373 = CARTESIAN_POINT('', (50., 40., 0.));
#374 = CARTESIAN_POINT('', (50., 50., 0.));
#375 = CARTESIAN_POINT('', (50., 50., 0.));
#376 = CARTESIAN_POINT('', (50., 50., 0.));
#377 = CARTESIAN_POINT('', (50., 50., 0.));
#378 = CARTESIAN_POINT('', (50., 50., 0.));
#379 = CARTESIAN_POINT('', (50., 50., 0.));
#380 = CARTESIAN_POINT('', (50., 50., 0.));
#381 = CARTESIAN_POINT('', (50., 50., 0.));
#382 = CARTESIAN_POINT('', (50., 50., 0.));
#383 = OPEN_SHELL('', (#384));
#384 = ADVANCED_FACE('', (#385), #415, .T.);
#385 = FACE_OUTER_BOUND('', #386, .T.);
#386 = EDGE_LOOP('', (#387, #396, #406, #414));
#387 = ORIENTED_EDGE('', *, *, #388, .T.);
#388 = EDGE_CURVE('', #389, #391, #393, .T.);
#389 = VERTEX_POINT('', #390);
#390 = CARTESIAN_POINT('', (50., 50., 0.));
#391 = VERTEX_POINT('', #392);
#392 = CARTESIAN_POINT('', (40., 50., 0.));
#393 = B_SPLINE_CURVE_WITH_KNOTS('', 1, (#394, #395), .UNSPECIFIED., .F., .U., (2, 2), (0., 1.), .UNSPECIFIED.);
#394 = CARTESIAN_POINT('', (50., 50., 0.));
#395 = CARTESIAN_POINT('', (40., 50., 0.));
#396 = ORIENTED_EDGE('', *, *, #397, .T.);
#397 = EDGE_CURVE('', #391, #398, #400, .T.);
#398 = VERTEX_POINT('', #399);
#399 = CARTESIAN_POINT('', (50., 40., 0.));
#400 = (
   BOUNDED_CURVE ()
   B_SPLINE_CURVE (2, (#401, #402, #403, #404, #405), .UNSPECIFIED., .F., .U.)
   B_SPLINE_CURVE_WITH_KNOTS ((3, 2, 3), (0., 0.25, 0.5), .UNSPECIFIED.)
   CURVE ()
   GEOMETRIC_REPRESENTATION_ITEM ()
   RATIONAL_B_SPLINE_CURVE ((1., 0.707106781186548, 1., 0.707106781186548, 1.))
   REPRESENTATION_ITEM ('')
);
#401 = CARTESIAN_POINT('', (40., 50., 0.));
#402 = CARTESIAN_POINT('', (40., 50., 7.07106781186546));
#403 = CARTESIAN_POINT('', (45., 45., 7.07106781186545));
#404 = CARTESIAN_POINT('', (50., 40., 7.07106781186546));
#405 = CARTESIAN_POINT('', (50., 40., 8.65956056235491E-16));
#406 = ORIENTED_EDGE('', *, *, #407, .T.);
#407 = EDGE_CURVE('', #398, #391, #408, .T.);
#408 = (
   BOUNDED_CURVE ()
   B_SPLINE_CURVE (2, (#409, #410, #411, #412, #413), .UNSPECIFIED., .F., .U.)
   B_SPLINE_CURVE_WITH_KNOTS ((3, 2, 3), (0.5, 0.75, 1.), .UNSPECIFIED.)
   CURVE ()
   GEOMETRIC_REPRESENTATION_ITEM ()
   RATIONAL_B_SPLINE_CURVE ((1., 0.707106781186548, 1., 0.707106781186548, 1.))
   REPRESENTATION_ITEM ('')
);
#409 = CARTESIAN_POINT('', (50., 40., 8.65956056235491E-16));
#410 = CARTESIAN_POINT('', (50., 40., -7.07106781186545));
#411 = CARTESIAN_POINT('', (45., 45., -7.07106781186545));
#412 = CARTESIAN_POINT('', (40., 50., -7.07106781186546));
#413 = CARTESIAN_POINT('', (40., 50., -1.73191211247098E-15));
#414 = ORIENTED_EDGE('', *, *, #388, .F.);
#415 = (
   BOUNDED_SURFACE ()
   B_SPLINE_SURFACE (1, 2, ((#416, #417, #418, #419, #420, #421, #422, #423, #424), (#425, #426, #427, #428, #429, #430, #431, #432, #433)), .UNSPECIFIED., .F., .T., .U.)
   B_SPLINE_SURFACE_WITH_KNOTS ((2, 2), (3, 2, 2, 2, 3), (0., 1.), (0., 0.25, 0.5, 0.75, 1.), .UNSPECIFIED.)
   GEOMETRIC_REPRESENTATION_ITEM ()
   RATIONAL_B_SPLINE_SURFACE (((1., 0.707106781186548, 1., 0.707106781186548, 1., 0.707106781186548, 1., 0.707106781186548, 1.), (1., 0.707106781186548, 1., 0.707106781186548, 1., 0.707106781186548, 1., 0.707106781186548, 1.)))
   REPRESENTATION_ITEM ('')
   SURFACE ()
);
#416 = CARTESIAN_POINT('', (50., 50., 0.));
#417 = CARTESIAN_POINT('', (50., 50., 0.));
#418 = CARTESIAN_POINT('', (50., 50., 0.));
#419 = CARTESIAN_POINT('', (50., 50., 0.));
#420 = CARTESIAN_POINT('', (50., 50., 0.));
#421 = CARTESIAN_POINT('', (50., 50., 0.));
#422 = CARTESIAN_POINT('', (50., 50., 0.));
#423 = CARTESIAN_POINT('', (50., 50., 0.));
#424 = CARTESIAN_POINT('', (50., 50., 0.));
#425 = CARTESIAN_POINT('', (40., 50., 0.));
#426 = CARTESIAN_POINT('', (40., 50., 7.07106781186548));
#427 = CARTESIAN_POINT('', (45., 45., 7.07106781186548));
#428 = CARTESIAN_POINT('', (50., 40., 7.07106781186548));
#429 = CARTESIAN_POINT('', (50., 40., 8.65956056235493E-16));
#430 = CARTESIAN_POINT('', (50., 40., -7.07106781186547));
#431 = CARTESIAN_POINT('', (45., 45., -7.07106781186548));
#432 = CARTESIAN_POINT('', (40., 50., -7.07106781186548));
#433 = CARTESIAN_POINT('', (40., 50., 0.));
#434 = OPEN_SHELL('', (#435));
#435 = ADVANCED_FACE('', (#436), #466, .T.);
#436 = FACE_OUTER_BOUND('', #437, .T.);
#437 = EDGE_LOOP('', (#438, #447, #448, #458));
#438 = ORIENTED_EDGE('', *, *, #439, .T.);
#439 = EDGE_CURVE('', #440, #442, #444, .T.);
#440 = VERTEX_POINT('', #441);
#441 = CARTESIAN_POINT('', (40., 50., 0.));
#442 = VERTEX_POINT('', #443);
#443 = CARTESIAN_POINT('', (40., 40., 0.));
#444 = B_SPLINE_CURVE_WITH_KNOTS('', 1, (#445, #446), .UNSPECIFIED., .F., .U., (2, 2), (0., 1.), .UNSPECIFIED.);
#445 = CARTESIAN_POINT('', (40., 50., 0.));
#446 = CARTESIAN_POINT('', (40., 40., 0.));
#447 = ORIENTED_EDGE('', *, *, #439, .F.);
#448 = ORIENTED_EDGE('', *, *, #449, .F.);
#449 = EDGE_CURVE('', #450, #440, #452, .T.);
#450 = VERTEX_POINT('', #451);
#451 = CARTESIAN_POINT('', (50., 40., 0.));
#452 = (
   BOUNDED_CURVE ()
   B_SPLINE_CURVE (2, (#453, #454, #455, #456, #457), .UNSPECIFIED., .F., .U.)
   B_SPLINE_CURVE_WITH_KNOTS ((3, 2, 3), (0.5, 0.75, 1.), .UNSPECIFIED.)
   CURVE ()
   GEOMETRIC_REPRESENTATION_ITEM ()
   RATIONAL_B_SPLINE_CURVE ((1., 0.707106781186548, 1., 0.707106781186548, 1.))
   REPRESENTATION_ITEM ('')
);
#453 = CARTESIAN_POINT('', (50., 40., 8.65956056235491E-16));
#454 = CARTESIAN_POINT('', (50., 40., -7.07106781186545));
#455 = CARTESIAN_POINT('', (45., 45., -7.07106781186545));
#456 = CARTESIAN_POINT('', (40., 50., -7.07106781186546));
#457 = CARTESIAN_POINT('', (40., 50., -1.73191211247098E-15));
#458 = ORIENTED_EDGE('', *, *, #459, .F.);
#459 = EDGE_CURVE('', #440, #450, #460, .T.);
#460 = (
   BOUNDED_CURVE ()
   B_SPLINE_CURVE (2, (#461, #462, #463, #464, #465), .UNSPECIFIED., .F., .U.)
   B_SPLINE_CURVE_WITH_KNOTS ((3, 2, 3), (0., 0.25, 0.5), .UNSPECIFIED.)
   CURVE ()
   GEOMETRIC_REPRESENTATION_ITEM ()
   RATIONAL_B_SPLINE_CURVE ((1., 0.707106781186548, 1., 0.707106781186548, 1.))
   REPRESENTATION_ITEM ('')
);
#461 = CARTESIAN_POINT('', (40., 50., 0.));
#462 = CARTESIAN_POINT('', (40., 50., 7.07106781186546));
#463 = CARTESIAN_POINT('', (45., 45., 7.07106781186545));
#464 = CARTESIAN_POINT('', (50., 40., 7.07106781186546));
#465 = CARTESIAN_POINT('', (50., 40., 8.65956056235491E-16));
#466 = (
   BOUNDED_SURFACE ()
   B_SPLINE_SURFACE (1, 2, ((#467, #468, #469, #470, #471, #472, #473, #474, #475), (#476, #477, #478, #479, #480, #481, #482, #483, #484)), .UNSPECIFIED., .F., .T., .U.)
   B_SPLINE_SURFACE_WITH_KNOTS ((2, 2), (3, 2, 2, 2, 3), (0., 1.), (0., 0.25, 0.5, 0.75, 1.), .UNSPECIFIED.)
   GEOMETRIC_REPRESENTATION_ITEM ()
   RATIONAL_B_SPLINE_SURFACE (((1., 0.707106781186548, 1., 0.707106781186548, 1., 0.707106781186548, 1., 0.707106781186548, 1.), (1., 0.707106781186548, 1., 0.707106781186548, 1., 0.707106781186548, 1., 0.707106781186548, 1.)))
   REPRESENTATION_ITEM ('')
   SURFACE ()
);
#467 = CARTESIAN_POINT('', (40., 50., 0.));
#468 = CARTESIAN_POINT('', (40., 50., 7.07106781186548));
#469 = CARTESIAN_POINT('', (45., 45., 7.07106781186548));
#470 = CARTESIAN_POINT('', (50., 40., 7.07106781186548));
#471 = CARTESIAN_POINT('', (50., 40., 8.65956056235493E-16));
#472 = CARTESIAN_POINT('', (50., 40., -7.07106781186547));
#473 = CARTESIAN_POINT('', (45., 45., -7.07106781186548));
#474 = CARTESIAN_POINT('', (40., 50., -7.07106781186548));
#475 = CARTESIAN_POINT('', (40., 50., 0.));
#476 = CARTESIAN_POINT('', (40., 40., 0.));
#477 = CARTESIAN_POINT('', (40., 40., 0.));
#478 = CARTESIAN_POINT('', (40., 40., 0.));
#479 = CARTESIAN_POINT('', (40., 40., 0.));
#480 = CARTESIAN_POINT('', (40., 40., 0.));
#481 = CARTESIAN_POINT('', (40., 40., 0.));
#482 = CARTESIAN_POINT('', (40., 40., 0.));
#483 = CARTESIAN_POINT('', (40., 40., 0.));
#484 = CARTESIAN_POINT('', (40., 40., 0.));
#485 = PRESENTATION_STYLE_ASSIGNMENT((#486));
#486 = SURFACE_STYLE_USAGE(.POSITIVE., #487);
#487 = SURFACE_SIDE_STYLE('', (#488));
#488 = SURFACE_STYLE_FILL_AREA(#489);
#489 = FILL_AREA_STYLE('', (#490));
#490 = FILL_AREA_STYLE_COLOUR('', #491);
#491 = COLOUR_RGB('', 0.50196078431373, 0.50196078431373, 0.50196078431373);
#492 = STYLED_ITEM('', (#485), #280);
#493 = CARTESIAN_POINT('Origin', (0., 0., 0.));
#494 = GEOMETRIC_SET('', (#493));
#495 = (
   GEOMETRIC_REPRESENTATION_CONTEXT (3)
   GLOBAL_UNCERTAINTY_ASSIGNED_CONTEXT ((#497))
   GLOBAL_UNIT_ASSIGNED_CONTEXT ((#496, #498, #499))
   REPRESENTATION_CONTEXT ('', '3D')
);
#496 = (
   LENGTH_UNIT ()
   NAMED_UNIT (*)
   SI_UNIT (.MILLI., .METRE.)
);
#497 = UNCERTAINTY_MEASURE_WITH_UNIT(LENGTH_MEASURE(1.E-6), #496, 'DISTANCE_ACCURACY_VALUE', '');
#498 = (
   NAMED_UNIT (*)
   SI_UNIT ($, .STERADIAN.)
   SOLID_ANGLE_UNIT ()
);
#499 = (
   NAMED_UNIT (*)
   PLANE_ANGLE_UNIT ()
   SI_UNIT ($, .RADIAN.)
);
#500 = SHAPE_REPRESENTATION('', (#517), #495);
#501 = PRODUCT_DEFINITION_SHAPE('', '', #502);
#502 = PRODUCT_DEFINITION('', '', #505, #509);
#503 = APPLICATION_CONTEXT('configuration controlled 3D designs of mechanical parts and assemblies');
#504 = APPLICATION_PROTOCOL_DEFINITION('International Standard', 'automotive_design', 2002, #503);
#505 = PRODUCT_DEFINITION_FORMATION_WITH_SPECIFIED_SOURCE('', '', #506, .NOT_KNOWN.);
#506 = PRODUCT('AxisTest', 'AxisTest', '', (#507));
#507 = PRODUCT_CONTEXT('', #503, 'mechanical');
#508 = PRODUCT_RELATED_PRODUCT_CATEGORY('detail', '', (#506));
#509 = PRODUCT_DEFINITION_CONTEXT('part definition', #503, 'design');
#510 = SHAPE_DEFINITION_REPRESENTATION(#501, #500);
#511 = SHAPE_REPRESENTATION_RELATIONSHIP('', '', #500, #512);
#512 = SHAPE_REPRESENTATION('', (#494), #495);
#513 = SHAPE_REPRESENTATION_RELATIONSHIP('', '', #500, #514);
#514 = ADVANCED_BREP_SHAPE_REPRESENTATION('', (#1), #495);
#515 = SHAPE_REPRESENTATION_RELATIONSHIP('', '', #500, #516);
#516 = MANIFOLD_SURFACE_SHAPE_REPRESENTATION('', (#148, #280), #495);
#517 = AXIS2_PLACEMENT_3D('', #518, #519, #520);
#518 = CARTESIAN_POINT('', (0., 0., 0.));
#519 = DIRECTION('', (0., 0., 1.));
#520 = DIRECTION('', (1., 0., 0.));
ENDSEC;
END-ISO-10303-21;
