ISO-10303-21;
HEADER;
FILE_DESCRIPTION(('STEP'), '1');
FILE_NAME('ProfileOnAxis', '2026-04-14T13:12:28', (''), (''), 'Express 3.1.2.0', 'Express Tool', 'Unknown');
FILE_SCHEMA(('AUTOMOTIVE_DESIGN'));
ENDSEC;

DATA;
#1 = MANIFOLD_SOLID_BREP('Solid', #2);
#2 = CLOSED_SHELL('', (#3, #71, #81));
#3 = ADVANCED_FACE('', (#4), #52, .T.);
#4 = FACE_OUTER_BOUND('', #5, .T.);
#5 = EDGE_LOOP('', (#6, #15, #25, #33, #34, #44));
#6 = ORIENTED_EDGE('', *, *, #7, .T.);
#7 = EDGE_CURVE('', #8, #10, #12, .T.);
#8 = VERTEX_POINT('', #9);
#9 = CARTESIAN_POINT('', (10., 0., 0.));
#10 = VERTEX_POINT('', #11);
#11 = CARTESIAN_POINT('', (10., 15., 0.));
#12 = B_SPLINE_CURVE_WITH_KNOTS('', 1, (#13, #14), .UNSPECIFIED., .F., .U., (2, 2), (0., 1.), .UNSPECIFIED.);
#13 = CARTESIAN_POINT('', (10., 0., 0.));
#14 = CARTESIAN_POINT('', (10., 15., 0.));
#15 = ORIENTED_EDGE('', *, *, #16, .T.);
#16 = EDGE_CURVE('', #10, #17, #19, .T.);
#17 = VERTEX_POINT('', #18);
#18 = CARTESIAN_POINT('', (-10., 15., 0.));
#19 = (
   BOUNDED_CURVE ()
   B_SPLINE_CURVE (2, (#20, #21, #22, #23, #24), .UNSPECIFIED., .F., .U.)
   B_SPLINE_CURVE_WITH_KNOTS ((3, 2, 3), (0., 15.707963267949, 31.4159265358979), .UNSPECIFIED.)
   CURVE ()
   GEOMETRIC_REPRESENTATION_ITEM ()
   RATIONAL_B_SPLINE_CURVE ((1., 0.707106781186548, 1., 0.707106781186548, 1.))
   REPRESENTATION_ITEM ('')
);
#20 = CARTESIAN_POINT('', (10., 15., 0.));
#21 = CARTESIAN_POINT('', (10., 15., -10.));
#22 = CARTESIAN_POINT('', (6.12323399573677E-16, 15., -10.));
#23 = CARTESIAN_POINT('', (-10., 15., -10.));
#24 = CARTESIAN_POINT('', (-10., 15., -1.22464679914735E-15));
#25 = ORIENTED_EDGE('', *, *, #26, .T.);
#26 = EDGE_CURVE('', #17, #10, #27, .T.);
#27 = (
   BOUNDED_CURVE ()
   B_SPLINE_CURVE (2, (#28, #29, #30, #31, #32), .UNSPECIFIED., .F., .U.)
   B_SPLINE_CURVE_WITH_KNOTS ((3, 2, 3), (31.4159265358979, 47.1238898038469, 62.8318530717959), .UNSPECIFIED.)
   CURVE ()
   GEOMETRIC_REPRESENTATION_ITEM ()
   RATIONAL_B_SPLINE_CURVE ((1., 0.707106781186548, 1., 0.707106781186548, 1.))
   REPRESENTATION_ITEM ('')
);
#28 = CARTESIAN_POINT('', (-10., 15., -1.22464679914735E-15));
#29 = CARTESIAN_POINT('', (-10., 15., 10.));
#30 = CARTESIAN_POINT('', (-1.83697019872103E-15, 15., 10.));
#31 = CARTESIAN_POINT('', (10., 15., 10.));
#32 = CARTESIAN_POINT('', (10., 15., 2.44929359829471E-15));
#33 = ORIENTED_EDGE('', *, *, #7, .F.);
#34 = ORIENTED_EDGE('', *, *, #35, .F.);
#35 = EDGE_CURVE('', #36, #8, #38, .T.);
#36 = VERTEX_POINT('', #37);
#37 = CARTESIAN_POINT('', (-10., 0., -1.22464679914735E-15));
#38 = (
   BOUNDED_CURVE ()
   B_SPLINE_CURVE (2, (#39, #40, #41, #42, #43), .UNSPECIFIED., .F., .U.)
   B_SPLINE_CURVE_WITH_KNOTS ((3, 2, 3), (31.4159265358979, 47.1238898038469, 62.8318530717959), .UNSPECIFIED.)
   CURVE ()
   GEOMETRIC_REPRESENTATION_ITEM ()
   RATIONAL_B_SPLINE_CURVE ((1., 0.707106781186548, 1., 0.707106781186548, 1.))
   REPRESENTATION_ITEM ('')
);
#39 = CARTESIAN_POINT('', (-10., 0., -1.22464679914735E-15));
#40 = CARTESIAN_POINT('', (-10., 0., 10.));
#41 = CARTESIAN_POINT('', (-1.83697019872103E-15, 0., 10.));
#42 = CARTESIAN_POINT('', (10., 0., 10.));
#43 = CARTESIAN_POINT('', (10., 0., 2.44929359829471E-15));
#44 = ORIENTED_EDGE('', *, *, #45, .F.);
#45 = EDGE_CURVE('', #8, #36, #46, .T.);
#46 = (
   BOUNDED_CURVE ()
   B_SPLINE_CURVE (2, (#47, #48, #49, #50, #51), .UNSPECIFIED., .F., .U.)
   B_SPLINE_CURVE_WITH_KNOTS ((3, 2, 3), (0., 15.707963267949, 31.4159265358979), .UNSPECIFIED.)
   CURVE ()
   GEOMETRIC_REPRESENTATION_ITEM ()
   RATIONAL_B_SPLINE_CURVE ((1., 0.707106781186548, 1., 0.707106781186548, 1.))
   REPRESENTATION_ITEM ('')
);
#47 = CARTESIAN_POINT('', (10., 0., 0.));
#48 = CARTESIAN_POINT('', (10., 0., -10.));
#49 = CARTESIAN_POINT('', (6.12323399573677E-16, 0., -10.));
#50 = CARTESIAN_POINT('', (-10., 0., -10.));
#51 = CARTESIAN_POINT('', (-10., 0., -1.22464679914735E-15));
#52 = (
   BOUNDED_SURFACE ()
   B_SPLINE_SURFACE (1, 2, ((#53, #54, #55, #56, #57, #58, #59, #60, #61), (#62, #63, #64, #65, #66, #67, #68, #69, #70)), .UNSPECIFIED., .F., .T., .U.)
   B_SPLINE_SURFACE_WITH_KNOTS ((2, 2), (3, 2, 2, 2, 3), (0., 1.), (0., 15.707963267949, 31.4159265358979, 47.1238898038469, 62.8318530717959), .UNSPECIFIED.)
   GEOMETRIC_REPRESENTATION_ITEM ()
   RATIONAL_B_SPLINE_SURFACE (((1., 0.707106781186548, 1., 0.707106781186548, 1., 0.707106781186548, 1., 0.707106781186548, 1.), (1., 0.707106781186548, 1., 0.707106781186548, 1., 0.707106781186548, 1., 0.707106781186548, 1.)))
   REPRESENTATION_ITEM ('')
   SURFACE ()
);
#53 = CARTESIAN_POINT('', (10., 0., 0.));
#54 = CARTESIAN_POINT('', (10., 0., -10.));
#55 = CARTESIAN_POINT('', (6.12323399573677E-16, 0., -10.));
#56 = CARTESIAN_POINT('', (-10., 0., -10.));
#57 = CARTESIAN_POINT('', (-10., 0., -1.22464679914735E-15));
#58 = CARTESIAN_POINT('', (-10., 0., 10.));
#59 = CARTESIAN_POINT('', (-1.83697019872103E-15, 0., 10.));
#60 = CARTESIAN_POINT('', (10., 0., 10.));
#61 = CARTESIAN_POINT('', (10., 0., 0.));
#62 = CARTESIAN_POINT('', (10., 15., 0.));
#63 = CARTESIAN_POINT('', (10., 15., -10.));
#64 = CARTESIAN_POINT('', (6.12323399573677E-16, 15., -10.));
#65 = CARTESIAN_POINT('', (-10., 15., -10.));
#66 = CARTESIAN_POINT('', (-10., 15., -1.22464679914735E-15));
#67 = CARTESIAN_POINT('', (-10., 15., 10.));
#68 = CARTESIAN_POINT('', (-1.83697019872103E-15, 15., 10.));
#69 = CARTESIAN_POINT('', (10., 15., 10.));
#70 = CARTESIAN_POINT('', (10., 15., 0.));
#71 = ADVANCED_FACE('', (#72), #76, .T.);
#72 = FACE_OUTER_BOUND('', #73, .T.);
#73 = EDGE_LOOP('', (#74, #75));
#74 = ORIENTED_EDGE('', *, *, #26, .F.);
#75 = ORIENTED_EDGE('', *, *, #16, .F.);
#76 = B_SPLINE_SURFACE_WITH_KNOTS('', 1, 1, ((#77, #78), (#79, #80)), .UNSPECIFIED., .F., .F., .U., (2, 2), (2, 2), (0., 1.), (0., 1.), .UNSPECIFIED.);
#77 = CARTESIAN_POINT('', (-15.556349186104, 15., -15.5563491861041));
#78 = CARTESIAN_POINT('', (-15.556349186104, 15., 15.556349186104));
#79 = CARTESIAN_POINT('', (15.556349186104, 15., -15.5563491861041));
#80 = CARTESIAN_POINT('', (15.556349186104, 15., 15.556349186104));
#81 = ADVANCED_FACE('', (#82), #86, .T.);
#82 = FACE_OUTER_BOUND('', #83, .T.);
#83 = EDGE_LOOP('', (#84, #85));
#84 = ORIENTED_EDGE('', *, *, #45, .T.);
#85 = ORIENTED_EDGE('', *, *, #35, .T.);
#86 = B_SPLINE_SURFACE_WITH_KNOTS('', 1, 1, ((#87, #88), (#89, #90)), .UNSPECIFIED., .F., .F., .U., (2, 2), (2, 2), (0., 1.), (0., 1.), .UNSPECIFIED.);
#87 = CARTESIAN_POINT('', (-15.5563491861041, 0., -15.556349186104));
#88 = CARTESIAN_POINT('', (15.556349186104, 0., -15.556349186104));
#89 = CARTESIAN_POINT('', (-15.5563491861041, 0., 15.556349186104));
#90 = CARTESIAN_POINT('', (15.556349186104, 0., 15.556349186104));
#91 = DRAUGHTING_MODEL('', (#99, #183), #186);
#92 = PRESENTATION_STYLE_ASSIGNMENT((#93));
#93 = SURFACE_STYLE_USAGE(.POSITIVE., #94);
#94 = SURFACE_SIDE_STYLE('', (#95));
#95 = SURFACE_STYLE_FILL_AREA(#96);
#96 = FILL_AREA_STYLE('', (#97));
#97 = FILL_AREA_STYLE_COLOUR('', #98);
#98 = COLOUR_RGB('', 0.50196078431373, 0.50196078431373, 0.50196078431373);
#99 = STYLED_ITEM('', (#92), #1);
#100 = MANIFOLD_SOLID_BREP('Solid0', #101);
#101 = CLOSED_SHELL('', (#102, #158, #167));
#102 = ADVANCED_FACE('', (#103), #139, .T.);
#103 = FACE_OUTER_BOUND('', #104, .T.);
#104 = EDGE_LOOP('', (#105, #114, #126, #127));
#105 = ORIENTED_EDGE('', *, *, #106, .F.);
#106 = EDGE_CURVE('', #107, #109, #111, .T.);
#107 = VERTEX_POINT('', #108);
#108 = CARTESIAN_POINT('', (15., 30., 0.));
#109 = VERTEX_POINT('', #110);
#110 = CARTESIAN_POINT('', (15., 45., 0.));
#111 = B_SPLINE_CURVE_WITH_KNOTS('', 1, (#112, #113), .UNSPECIFIED., .F., .U., (2, 2), (0., 1.), .UNSPECIFIED.);
#112 = CARTESIAN_POINT('', (15., 30., 0.));
#113 = CARTESIAN_POINT('', (15., 45., 0.));
#114 = ORIENTED_EDGE('', *, *, #115, .T.);
#115 = EDGE_CURVE('', #107, #107, #116, .T.);
#116 = (
   BOUNDED_CURVE ()
   B_SPLINE_CURVE (2, (#117, #118, #119, #120, #121, #122, #123, #124, #125), .UNSPECIFIED., .T., .U.)
   B_SPLINE_CURVE_WITH_KNOTS ((3, 2, 2, 2, 3), (0., 23.5619449019234, 47.1238898038469, 70.6858347057703, 94.2477796076938), .UNSPECIFIED.)
   CURVE ()
   GEOMETRIC_REPRESENTATION_ITEM ()
   RATIONAL_B_SPLINE_CURVE ((1., 0.707106781186548, 1., 0.707106781186548, 1., 0.707106781186548, 1., 0.707106781186548, 1.))
   REPRESENTATION_ITEM ('')
);
#117 = CARTESIAN_POINT('', (15., 30., 0.));
#118 = CARTESIAN_POINT('', (15., 30., -15.));
#119 = CARTESIAN_POINT('', (9.18485099360515E-16, 30., -15.));
#120 = CARTESIAN_POINT('', (-15., 30., -15.));
#121 = CARTESIAN_POINT('', (-15., 30., -1.83697019872103E-15));
#122 = CARTESIAN_POINT('', (-15., 30., 15.));
#123 = CARTESIAN_POINT('', (-2.75545529808154E-15, 30., 15.));
#124 = CARTESIAN_POINT('', (15., 30., 15.));
#125 = CARTESIAN_POINT('', (15., 30., 0.));
#126 = ORIENTED_EDGE('', *, *, #106, .T.);
#127 = ORIENTED_EDGE('', *, *, #128, .F.);
#128 = EDGE_CURVE('', #109, #109, #129, .T.);
#129 = (
   BOUNDED_CURVE ()
   B_SPLINE_CURVE (2, (#130, #131, #132, #133, #134, #135, #136, #137, #138), .UNSPECIFIED., .T., .U.)
   B_SPLINE_CURVE_WITH_KNOTS ((3, 2, 2, 2, 3), (0., 0.25, 0.5, 0.75, 1.), .UNSPECIFIED.)
   CURVE ()
   GEOMETRIC_REPRESENTATION_ITEM ()
   RATIONAL_B_SPLINE_CURVE ((1., 0.707106781186548, 1., 0.707106781186548, 1., 0.707106781186548, 1., 0.707106781186548, 1.))
   REPRESENTATION_ITEM ('')
);
#130 = CARTESIAN_POINT('', (15., 45., 0.));
#131 = CARTESIAN_POINT('', (15., 45., -15.));
#132 = CARTESIAN_POINT('', (9.18485099360515E-16, 45., -15.));
#133 = CARTESIAN_POINT('', (-15., 45., -15.));
#134 = CARTESIAN_POINT('', (-15., 45., -1.83697019872103E-15));
#135 = CARTESIAN_POINT('', (-15., 45., 15.));
#136 = CARTESIAN_POINT('', (-2.75545529808154E-15, 45., 15.));
#137 = CARTESIAN_POINT('', (15., 45., 15.));
#138 = CARTESIAN_POINT('', (15., 45., 0.));
#139 = (
   BOUNDED_SURFACE ()
   B_SPLINE_SURFACE (2, 1, ((#140, #141), (#142, #143), (#144, #145), (#146, #147), (#148, #149), (#150, #151), (#152, #153), (#154, #155), (#156, #157)), .UNSPECIFIED., .T., .F., .U.)
   B_SPLINE_SURFACE_WITH_KNOTS ((3, 2, 2, 2, 3), (2, 2), (0., 23.5619449019234, 47.1238898038469, 70.6858347057703, 94.2477796076938), (0., 1.), .UNSPECIFIED.)
   GEOMETRIC_REPRESENTATION_ITEM ()
   RATIONAL_B_SPLINE_SURFACE (((1., 1.), (0.707106781186548, 0.707106781186548), (1., 1.), (0.707106781186548, 0.707106781186548), (1., 1.), (0.707106781186548, 0.707106781186548), (1., 1.), (0.707106781186548, 0.707106781186548), (1., 1.)))
   REPRESENTATION_ITEM ('')
   SURFACE ()
);
#140 = CARTESIAN_POINT('', (15., 30., 0.));
#141 = CARTESIAN_POINT('', (15., 45., 0.));
#142 = CARTESIAN_POINT('', (15., 30., -15.));
#143 = CARTESIAN_POINT('', (15., 45., -15.));
#144 = CARTESIAN_POINT('', (9.18485099360515E-16, 30., -15.));
#145 = CARTESIAN_POINT('', (9.18485099360515E-16, 45., -15.));
#146 = CARTESIAN_POINT('', (-15., 30., -15.));
#147 = CARTESIAN_POINT('', (-15., 45., -15.));
#148 = CARTESIAN_POINT('', (-15., 30., -1.83697019872103E-15));
#149 = CARTESIAN_POINT('', (-15., 45., -1.83697019872103E-15));
#150 = CARTESIAN_POINT('', (-15., 30., 15.));
#151 = CARTESIAN_POINT('', (-15., 45., 15.));
#152 = CARTESIAN_POINT('', (-2.75545529808154E-15, 30., 15.));
#153 = CARTESIAN_POINT('', (-2.75545529808154E-15, 45., 15.));
#154 = CARTESIAN_POINT('', (15., 30., 15.));
#155 = CARTESIAN_POINT('', (15., 45., 15.));
#156 = CARTESIAN_POINT('', (15., 30., 0.));
#157 = CARTESIAN_POINT('', (15., 45., 0.));
#158 = ADVANCED_FACE('', (#159), #162, .T.);
#159 = FACE_OUTER_BOUND('', #160, .T.);
#160 = EDGE_LOOP('', (#161));
#161 = ORIENTED_EDGE('', *, *, #115, .F.);
#162 = B_SPLINE_SURFACE_WITH_KNOTS('', 1, 1, ((#163, #164), (#165, #166)), .UNSPECIFIED., .F., .F., .U., (2, 2), (2, 2), (0., 1.), (0., 1.), .UNSPECIFIED.);
#163 = CARTESIAN_POINT('', (-23.3345237791561, 30., -23.3345237791561));
#164 = CARTESIAN_POINT('', (-23.3345237791561, 30., 23.3345237791561));
#165 = CARTESIAN_POINT('', (23.3345237791561, 30., -23.3345237791561));
#166 = CARTESIAN_POINT('', (23.3345237791561, 30., 23.3345237791561));
#167 = ADVANCED_FACE('', (#168), #171, .T.);
#168 = FACE_OUTER_BOUND('', #169, .T.);
#169 = EDGE_LOOP('', (#170));
#170 = ORIENTED_EDGE('', *, *, #128, .T.);
#171 = B_SPLINE_SURFACE_WITH_KNOTS('', 1, 1, ((#172, #173), (#174, #175)), .UNSPECIFIED., .F., .F., .U., (2, 2), (2, 2), (0., 1.), (0., 1.), .UNSPECIFIED.);
#172 = CARTESIAN_POINT('', (-23.3345237791561, 45., -23.3345237791561));
#173 = CARTESIAN_POINT('', (23.3345237791561, 45., -23.3345237791561));
#174 = CARTESIAN_POINT('', (-23.3345237791561, 45., 23.3345237791561));
#175 = CARTESIAN_POINT('', (23.3345237791561, 45., 23.3345237791561));
#176 = PRESENTATION_STYLE_ASSIGNMENT((#177));
#177 = SURFACE_STYLE_USAGE(.POSITIVE., #178);
#178 = SURFACE_SIDE_STYLE('', (#179));
#179 = SURFACE_STYLE_FILL_AREA(#180);
#180 = FILL_AREA_STYLE('', (#181));
#181 = FILL_AREA_STYLE_COLOUR('', #182);
#182 = COLOUR_RGB('', 0.50196078431373, 0.50196078431373, 0.50196078431373);
#183 = STYLED_ITEM('', (#176), #100);
#184 = CARTESIAN_POINT('Origin', (0., 0., 0.));
#185 = GEOMETRIC_SET('', (#184));
#186 = (
   GEOMETRIC_REPRESENTATION_CONTEXT (3)
   GLOBAL_UNCERTAINTY_ASSIGNED_CONTEXT ((#188))
   GLOBAL_UNIT_ASSIGNED_CONTEXT ((#187, #189, #190))
   REPRESENTATION_CONTEXT ('', '3D')
);
#187 = (
   LENGTH_UNIT ()
   NAMED_UNIT (*)
   SI_UNIT (.MILLI., .METRE.)
);
#188 = UNCERTAINTY_MEASURE_WITH_UNIT(LENGTH_MEASURE(1.E-6), #187, 'DISTANCE_ACCURACY_VALUE', '');
#189 = (
   NAMED_UNIT (*)
   SI_UNIT ($, .STERADIAN.)
   SOLID_ANGLE_UNIT ()
);
#190 = (
   NAMED_UNIT (*)
   PLANE_ANGLE_UNIT ()
   SI_UNIT ($, .RADIAN.)
);
#191 = SHAPE_REPRESENTATION('', (#206), #186);
#192 = PRODUCT_DEFINITION_SHAPE('', '', #193);
#193 = PRODUCT_DEFINITION('', '', #196, #200);
#194 = APPLICATION_CONTEXT('configuration controlled 3D designs of mechanical parts and assemblies');
#195 = APPLICATION_PROTOCOL_DEFINITION('International Standard', 'automotive_design', 2002, #194);
#196 = PRODUCT_DEFINITION_FORMATION_WITH_SPECIFIED_SOURCE('', '', #197, .NOT_KNOWN.);
#197 = PRODUCT('ProfileOnAxis', 'ProfileOnAxis', '', (#198));
#198 = PRODUCT_CONTEXT('', #194, 'mechanical');
#199 = PRODUCT_RELATED_PRODUCT_CATEGORY('detail', '', (#197));
#200 = PRODUCT_DEFINITION_CONTEXT('part definition', #194, 'design');
#201 = SHAPE_DEFINITION_REPRESENTATION(#192, #191);
#202 = SHAPE_REPRESENTATION_RELATIONSHIP('', '', #191, #203);
#203 = SHAPE_REPRESENTATION('', (#185), #186);
#204 = SHAPE_REPRESENTATION_RELATIONSHIP('', '', #191, #205);
#205 = ADVANCED_BREP_SHAPE_REPRESENTATION('', (#1, #100), #186);
#206 = AXIS2_PLACEMENT_3D('', #207, #208, #209);
#207 = CARTESIAN_POINT('', (0., 0., 0.));
#208 = DIRECTION('', (0., 0., 1.));
#209 = DIRECTION('', (1., 0., 0.));
ENDSEC;
END-ISO-10303-21;
