ISO-10303-21;
HEADER;
FILE_DESCRIPTION(('STEP'), '1');
FILE_NAME('CircleCorrect', '2026-04-14T13:17:16', (''), (''), 'Express 3.1.2.0', 'Express Tool', 'Unknown');
FILE_SCHEMA(('AUTOMOTIVE_DESIGN'));
ENDSEC;

DATA;
#1 = MANIFOLD_SOLID_BREP('Solid', #2);
#2 = CLOSED_SHELL('', (#3));
#3 = ADVANCED_FACE('', (#4), #34, .T.);
#4 = FACE_OUTER_BOUND('', #5, .T.);
#5 = EDGE_LOOP('', (#6, #20, #32, #33));
#6 = ORIENTED_EDGE('', *, *, #7, .F.);
#7 = EDGE_CURVE('', #8, #8, #10, .T.);
#8 = VERTEX_POINT('', #9);
#9 = CARTESIAN_POINT('', (0., 3.77475828372553E-15, 53.));
#10 = (
   BOUNDED_CURVE ()
   B_SPLINE_CURVE (2, (#11, #12, #13, #14, #15, #16, #17, #18, #19), .UNSPECIFIED., .T., .U.)
   B_SPLINE_CURVE_WITH_KNOTS ((3, 2, 2, 2, 3), (0., 0.25, 0.5, 0.75, 1.), .UNSPECIFIED.)
   CURVE ()
   GEOMETRIC_REPRESENTATION_ITEM ()
   RATIONAL_B_SPLINE_CURVE ((1., 0.707106781186548, 1., 0.707106781186548, 1., 0.707106781186548, 1., 0.707106781186548, 1.))
   REPRESENTATION_ITEM ('')
);
#11 = CARTESIAN_POINT('', (0., 3.77475828372553E-15, 53.));
#12 = CARTESIAN_POINT('', (0., -8., 53.));
#13 = CARTESIAN_POINT('', (0., -8., 45.));
#14 = CARTESIAN_POINT('', (0., -8., 37.));
#15 = CARTESIAN_POINT('', (0., 2.79504084440765E-15, 37.));
#16 = CARTESIAN_POINT('', (0., 8., 37.));
#17 = CARTESIAN_POINT('', (0., 8.00000000000001, 45.));
#18 = CARTESIAN_POINT('', (0., 8.00000000000001, 53.));
#19 = CARTESIAN_POINT('', (0., 3.77475828372553E-15, 53.));
#20 = ORIENTED_EDGE('', *, *, #21, .T.);
#21 = EDGE_CURVE('', #8, #8, #22, .T.);
#22 = (
   BOUNDED_CURVE ()
   B_SPLINE_CURVE (2, (#23, #24, #25, #26, #27, #28, #29, #30, #31), .UNSPECIFIED., .T., .U.)
   B_SPLINE_CURVE_WITH_KNOTS ((3, 2, 2, 2, 3), (0., 0.25, 0.5, 0.75, 1.), .UNSPECIFIED.)
   CURVE ()
   GEOMETRIC_REPRESENTATION_ITEM ()
   RATIONAL_B_SPLINE_CURVE ((1., 0.707106781186548, 1., 0.707106781186548, 1., 0.707106781186548, 1., 0.707106781186548, 1.))
   REPRESENTATION_ITEM ('')
);
#23 = CARTESIAN_POINT('', (0., 3.77475828372553E-15, 53.));
#24 = CARTESIAN_POINT('', (-53., 3.77475828372553E-15, 53.));
#25 = CARTESIAN_POINT('', (-53., 3.77475828372553E-15, 3.24531401774049E-15));
#26 = CARTESIAN_POINT('', (-53., 3.77475828372553E-15, -53.));
#27 = CARTESIAN_POINT('', (-6.49062803548097E-15, 3.77475828372553E-15, -53.));
#28 = CARTESIAN_POINT('', (53., 3.77475828372553E-15, -53.));
#29 = CARTESIAN_POINT('', (53., 3.77475828372553E-15, -9.73594205322146E-15));
#30 = CARTESIAN_POINT('', (53., 3.77475828372553E-15, 53.));
#31 = CARTESIAN_POINT('', (0., 3.77475828372553E-15, 53.));
#32 = ORIENTED_EDGE('', *, *, #7, .T.);
#33 = ORIENTED_EDGE('', *, *, #21, .F.);
#34 = (
   BOUNDED_SURFACE ()
   B_SPLINE_SURFACE (2, 2, ((#35, #36, #37, #38, #39, #40, #41, #42, #43), (#44, #45, #46, #47, #48, #49, #50, #51, #52), (#53, #54, #55, #56, #57, #58, #59, #60, #61), (#62, #63, #64, #65, #66, #67, #68, #69, #70), (#71, #72, #73, #74, #75, #76, #77, #78, #79), (#80, #81, #82, #83, #84, #85, #86, #87, #88), (#89, #90, #91, #92, #93, #94, #95, #96, #97), (#98, #99, #100, #101, #102, #103, #104, #105, #106), (#107, #108, #109, #110, #111, #112, #113, #114, #115)), .UNSPECIFIED., .T., .T., .U.)
   B_SPLINE_SURFACE_WITH_KNOTS ((3, 2, 2, 2, 3), (3, 2, 2, 2, 3), (0., 0.25, 0.5, 0.75, 1.), (0., 0.25, 0.5, 0.75, 1.), .UNSPECIFIED.)
   GEOMETRIC_REPRESENTATION_ITEM ()
   RATIONAL_B_SPLINE_SURFACE (((1., 0.707106781186548, 1., 0.707106781186548, 1., 0.707106781186548, 1., 0.707106781186548, 1.), (0.707106781186548, 0.5, 0.707106781186548, 0.5, 0.707106781186548, 0.5, 0.707106781186548, 0.5, 0.707106781186548), (1., 0.707106781186548, 1., 0.707106781186548, 1., 0.707106781186548, 1., 0.707106781186548, 1.), (0.707106781186548, 0.5, 0.707106781186548, 0.5, 0.707106781186548, 0.5, 0.707106781186548, 0.5, 0.707106781186548), (1., 0.707106781186548, 1., 0.707106781186548, 1., 0.707106781186548, 1., 0.707106781186548, 1.), (0.707106781186548, 0.5, 0.707106781186548, 0.5, 0.707106781186548, 0.5, 0.707106781186548, 0.5, 0.707106781186548), (1., 0.707106781186548, 1., 0.707106781186548, 1., 0.707106781186548, 1., 0.707106781186548, 1.), (0.707106781186548, 0.5, 0.707106781186548, 0.5, 0.707106781186548, 0.5, 0.707106781186548, 0.5, 0.707106781186548), (1., 0.707106781186548, 1., 0.707106781186548, 1., 0.707106781186548, 1., 0.707106781186548, 1.)))
   REPRESENTATION_ITEM ('')
   SURFACE ()
);
#35 = CARTESIAN_POINT('', (0., 3.77475828372553E-15, 53.));
#36 = CARTESIAN_POINT('', (0., -8., 53.));
#37 = CARTESIAN_POINT('', (0., -8., 45.));
#38 = CARTESIAN_POINT('', (0., -8., 37.));
#39 = CARTESIAN_POINT('', (0., 2.79504084440765E-15, 37.));
#40 = CARTESIAN_POINT('', (0., 8., 37.));
#41 = CARTESIAN_POINT('', (0., 8.00000000000001, 45.));
#42 = CARTESIAN_POINT('', (0., 8.00000000000001, 53.));
#43 = CARTESIAN_POINT('', (0., 3.77475828372553E-15, 53.));
#44 = CARTESIAN_POINT('', (-53., 3.77475828372553E-15, 53.));
#45 = CARTESIAN_POINT('', (-53., -8., 53.));
#46 = CARTESIAN_POINT('', (-45., -8., 45.));
#47 = CARTESIAN_POINT('', (-37., -8., 37.));
#48 = CARTESIAN_POINT('', (-37., 2.79504084440765E-15, 37.));
#49 = CARTESIAN_POINT('', (-37., 8., 37.));
#50 = CARTESIAN_POINT('', (-45., 8.00000000000001, 45.));
#51 = CARTESIAN_POINT('', (-53., 8.00000000000001, 53.));
#52 = CARTESIAN_POINT('', (-53., 3.77475828372553E-15, 53.));
#53 = CARTESIAN_POINT('', (-53., 3.77475828372553E-15, 3.24531401774049E-15));
#54 = CARTESIAN_POINT('', (-53., -8., 3.24531401774049E-15));
#55 = CARTESIAN_POINT('', (-45., -8., 2.75545529808154E-15));
#56 = CARTESIAN_POINT('', (-37., -8., 2.2655965784226E-15));
#57 = CARTESIAN_POINT('', (-37., 2.79504084440765E-15, 2.2655965784226E-15));
#58 = CARTESIAN_POINT('', (-37., 8., 2.2655965784226E-15));
#59 = CARTESIAN_POINT('', (-45., 8.00000000000001, 2.75545529808154E-15));
#60 = CARTESIAN_POINT('', (-53., 8.00000000000001, 3.24531401774049E-15));
#61 = CARTESIAN_POINT('', (-53., 3.77475828372553E-15, 3.24531401774049E-15));
#62 = CARTESIAN_POINT('', (-53., 3.77475828372553E-15, -53.));
#63 = CARTESIAN_POINT('', (-53., -8., -53.));
#64 = CARTESIAN_POINT('', (-45., -8., -45.));
#65 = CARTESIAN_POINT('', (-37., -8., -37.));
#66 = CARTESIAN_POINT('', (-37., 2.79504084440765E-15, -37.));
#67 = CARTESIAN_POINT('', (-37., 8., -37.));
#68 = CARTESIAN_POINT('', (-45., 8.00000000000001, -45.));
#69 = CARTESIAN_POINT('', (-53., 8.00000000000001, -53.));
#70 = CARTESIAN_POINT('', (-53., 3.77475828372553E-15, -53.));
#71 = CARTESIAN_POINT('', (-6.49062803548097E-15, 3.77475828372553E-15, -53.));
#72 = CARTESIAN_POINT('', (-6.49062803548097E-15, -8., -53.));
#73 = CARTESIAN_POINT('', (-5.51091059616309E-15, -8., -45.));
#74 = CARTESIAN_POINT('', (-4.53119315684521E-15, -8., -37.));
#75 = CARTESIAN_POINT('', (-4.53119315684521E-15, 2.79504084440765E-15, -37.));
#76 = CARTESIAN_POINT('', (-4.53119315684521E-15, 8., -37.));
#77 = CARTESIAN_POINT('', (-5.51091059616309E-15, 8.00000000000001, -45.));
#78 = CARTESIAN_POINT('', (-6.49062803548097E-15, 8.00000000000001, -53.));
#79 = CARTESIAN_POINT('', (-6.49062803548097E-15, 3.77475828372553E-15, -53.));
#80 = CARTESIAN_POINT('', (53., 3.77475828372553E-15, -53.));
#81 = CARTESIAN_POINT('', (53., -8., -53.));
#82 = CARTESIAN_POINT('', (45., -8., -45.));
#83 = CARTESIAN_POINT('', (37., -8., -37.));
#84 = CARTESIAN_POINT('', (37., 2.79504084440765E-15, -37.));
#85 = CARTESIAN_POINT('', (37., 8., -37.));
#86 = CARTESIAN_POINT('', (45., 8.00000000000001, -45.));
#87 = CARTESIAN_POINT('', (53., 8.00000000000001, -53.));
#88 = CARTESIAN_POINT('', (53., 3.77475828372553E-15, -53.));
#89 = CARTESIAN_POINT('', (53., 3.77475828372553E-15, -9.73594205322146E-15));
#90 = CARTESIAN_POINT('', (53., -8., -9.73594205322146E-15));
#91 = CARTESIAN_POINT('', (45., -8., -8.26636589424463E-15));
#92 = CARTESIAN_POINT('', (37., -8., -6.79678973526781E-15));
#93 = CARTESIAN_POINT('', (37., 2.79504084440765E-15, -6.79678973526781E-15));
#94 = CARTESIAN_POINT('', (37., 8., -6.79678973526781E-15));
#95 = CARTESIAN_POINT('', (45., 8.00000000000001, -8.26636589424463E-15));
#96 = CARTESIAN_POINT('', (53., 8.00000000000001, -9.73594205322146E-15));
#97 = CARTESIAN_POINT('', (53., 3.77475828372553E-15, -9.73594205322146E-15));
#98 = CARTESIAN_POINT('', (53., 3.77475828372553E-15, 53.));
#99 = CARTESIAN_POINT('', (53., -8., 53.));
#100 = CARTESIAN_POINT('', (45., -8., 45.));
#101 = CARTESIAN_POINT('', (37., -8., 37.));
#102 = CARTESIAN_POINT('', (37., 2.79504084440765E-15, 37.));
#103 = CARTESIAN_POINT('', (37., 8., 37.));
#104 = CARTESIAN_POINT('', (45., 8.00000000000001, 45.));
#105 = CARTESIAN_POINT('', (53., 8.00000000000001, 53.));
#106 = CARTESIAN_POINT('', (53., 3.77475828372553E-15, 53.));
#107 = CARTESIAN_POINT('', (0., 3.77475828372553E-15, 53.));
#108 = CARTESIAN_POINT('', (0., -8., 53.));
#109 = CARTESIAN_POINT('', (0., -8., 45.));
#110 = CARTESIAN_POINT('', (0., -8., 37.));
#111 = CARTESIAN_POINT('', (0., 2.79504084440765E-15, 37.));
#112 = CARTESIAN_POINT('', (0., 8., 37.));
#113 = CARTESIAN_POINT('', (0., 8.00000000000001, 45.));
#114 = CARTESIAN_POINT('', (0., 8.00000000000001, 53.));
#115 = CARTESIAN_POINT('', (0., 3.77475828372553E-15, 53.));
#116 = DRAUGHTING_MODEL('', (#124), #127);
#117 = PRESENTATION_STYLE_ASSIGNMENT((#118));
#118 = SURFACE_STYLE_USAGE(.POSITIVE., #119);
#119 = SURFACE_SIDE_STYLE('', (#120));
#120 = SURFACE_STYLE_FILL_AREA(#121);
#121 = FILL_AREA_STYLE('', (#122));
#122 = FILL_AREA_STYLE_COLOUR('', #123);
#123 = COLOUR_RGB('', 0.50196078431373, 0.50196078431373, 0.50196078431373);
#124 = STYLED_ITEM('', (#117), #1);
#125 = CARTESIAN_POINT('Origin', (0., 0., 0.));
#126 = GEOMETRIC_SET('', (#125));
#127 = (
   GEOMETRIC_REPRESENTATION_CONTEXT (3)
   GLOBAL_UNCERTAINTY_ASSIGNED_CONTEXT ((#129))
   GLOBAL_UNIT_ASSIGNED_CONTEXT ((#128, #130, #131))
   REPRESENTATION_CONTEXT ('', '3D')
);
#128 = (
   LENGTH_UNIT ()
   NAMED_UNIT (*)
   SI_UNIT (.MILLI., .METRE.)
);
#129 = UNCERTAINTY_MEASURE_WITH_UNIT(LENGTH_MEASURE(1.E-6), #128, 'DISTANCE_ACCURACY_VALUE', '');
#130 = (
   NAMED_UNIT (*)
   SI_UNIT ($, .STERADIAN.)
   SOLID_ANGLE_UNIT ()
);
#131 = (
   NAMED_UNIT (*)
   PLANE_ANGLE_UNIT ()
   SI_UNIT ($, .RADIAN.)
);
#132 = SHAPE_REPRESENTATION('', (#147), #127);
#133 = PRODUCT_DEFINITION_SHAPE('', '', #134);
#134 = PRODUCT_DEFINITION('', '', #137, #141);
#135 = APPLICATION_CONTEXT('configuration controlled 3D designs of mechanical parts and assemblies');
#136 = APPLICATION_PROTOCOL_DEFINITION('International Standard', 'automotive_design', 2002, #135);
#137 = PRODUCT_DEFINITION_FORMATION_WITH_SPECIFIED_SOURCE('', '', #138, .NOT_KNOWN.);
#138 = PRODUCT('CircleCorrect', 'CircleCorrect', '', (#139));
#139 = PRODUCT_CONTEXT('', #135, 'mechanical');
#140 = PRODUCT_RELATED_PRODUCT_CATEGORY('detail', '', (#138));
#141 = PRODUCT_DEFINITION_CONTEXT('part definition', #135, 'design');
#142 = SHAPE_DEFINITION_REPRESENTATION(#133, #132);
#143 = SHAPE_REPRESENTATION_RELATIONSHIP('', '', #132, #144);
#144 = SHAPE_REPRESENTATION('', (#126), #127);
#145 = SHAPE_REPRESENTATION_RELATIONSHIP('', '', #132, #146);
#146 = ADVANCED_BREP_SHAPE_REPRESENTATION('', (#1), #127);
#147 = AXIS2_PLACEMENT_3D('', #148, #149, #150);
#148 = CARTESIAN_POINT('', (0., 0., 0.));
#149 = DIRECTION('', (0., 0., 1.));
#150 = DIRECTION('', (1., 0., 0.));
ENDSEC;
END-ISO-10303-21;
