ISO-10303-21;
HEADER;
FILE_DESCRIPTION(('STEP'), '1');
FILE_NAME('LShapeOffset', '2026-04-14T13:18:48', (''), (''), 'Express 3.1.2.0', 'Express Tool', 'Unknown');
FILE_SCHEMA(('AUTOMOTIVE_DESIGN'));
ENDSEC;

DATA;
#1 = MANIFOLD_SOLID_BREP('Solid', #2);
#2 = CLOSED_SHELL('', (#3, #59, #115, #127, #152, #195));
#3 = ADVANCED_FACE('', (#4), #40, .T.);
#4 = FACE_OUTER_BOUND('', #5, .T.);
#5 = EDGE_LOOP('', (#6, #15, #27, #28));
#6 = ORIENTED_EDGE('', *, *, #7, .F.);
#7 = EDGE_CURVE('', #8, #10, #12, .T.);
#8 = VERTEX_POINT('', #9);
#9 = CARTESIAN_POINT('', (50., 0., 0.));
#10 = VERTEX_POINT('', #11);
#11 = CARTESIAN_POINT('', (50., 5., 0.));
#12 = B_SPLINE_CURVE_WITH_KNOTS('', 1, (#13, #14), .UNSPECIFIED., .F., .U., (2, 2), (0., 1.), .UNSPECIFIED.);
#13 = CARTESIAN_POINT('', (50., 0., 0.));
#14 = CARTESIAN_POINT('', (50., 5., 0.));
#15 = ORIENTED_EDGE('', *, *, #16, .T.);
#16 = EDGE_CURVE('', #8, #8, #17, .T.);
#17 = (
   BOUNDED_CURVE ()
   B_SPLINE_CURVE (2, (#18, #19, #20, #21, #22, #23, #24, #25, #26), .UNSPECIFIED., .T., .U.)
   B_SPLINE_CURVE_WITH_KNOTS ((3, 2, 2, 2, 3), (0., 78.5398163397448, 157.07963267949, 235.619449019235, 314.159265358979), .UNSPECIFIED.)
   CURVE ()
   GEOMETRIC_REPRESENTATION_ITEM ()
   RATIONAL_B_SPLINE_CURVE ((1., 0.707106781186548, 1., 0.707106781186548, 1., 0.707106781186548, 1., 0.707106781186548, 1.))
   REPRESENTATION_ITEM ('')
);
#18 = CARTESIAN_POINT('', (50., 0., 0.));
#19 = CARTESIAN_POINT('', (50., 0., -50.));
#20 = CARTESIAN_POINT('', (3.06161699786838E-15, 0., -50.));
#21 = CARTESIAN_POINT('', (-50., 0., -50.));
#22 = CARTESIAN_POINT('', (-50., 0., -6.12323399573677E-15));
#23 = CARTESIAN_POINT('', (-50., 0., 50.));
#24 = CARTESIAN_POINT('', (-9.18485099360515E-15, 0., 50.));
#25 = CARTESIAN_POINT('', (50., 0., 50.));
#26 = CARTESIAN_POINT('', (50., 0., 0.));
#27 = ORIENTED_EDGE('', *, *, #7, .T.);
#28 = ORIENTED_EDGE('', *, *, #29, .F.);
#29 = EDGE_CURVE('', #10, #10, #30, .T.);
#30 = (
   BOUNDED_CURVE ()
   B_SPLINE_CURVE (2, (#31, #32, #33, #34, #35, #36, #37, #38, #39), .UNSPECIFIED., .T., .U.)
   B_SPLINE_CURVE_WITH_KNOTS ((3, 2, 2, 2, 3), (0., 78.5398163397448, 157.07963267949, 235.619449019235, 314.159265358979), .UNSPECIFIED.)
   CURVE ()
   GEOMETRIC_REPRESENTATION_ITEM ()
   RATIONAL_B_SPLINE_CURVE ((1., 0.707106781186548, 1., 0.707106781186548, 1., 0.707106781186548, 1., 0.707106781186548, 1.))
   REPRESENTATION_ITEM ('')
);
#31 = CARTESIAN_POINT('', (50., 5., 0.));
#32 = CARTESIAN_POINT('', (50., 5., -50.));
#33 = CARTESIAN_POINT('', (3.06161699786838E-15, 5., -50.));
#34 = CARTESIAN_POINT('', (-50., 5., -50.));
#35 = CARTESIAN_POINT('', (-50., 5., -6.12323399573677E-15));
#36 = CARTESIAN_POINT('', (-50., 5., 50.));
#37 = CARTESIAN_POINT('', (-9.18485099360515E-15, 5., 50.));
#38 = CARTESIAN_POINT('', (50., 5., 50.));
#39 = CARTESIAN_POINT('', (50., 5., 0.));
#40 = (
   BOUNDED_SURFACE ()
   B_SPLINE_SURFACE (2, 1, ((#41, #42), (#43, #44), (#45, #46), (#47, #48), (#49, #50), (#51, #52), (#53, #54), (#55, #56), (#57, #58)), .UNSPECIFIED., .T., .F., .U.)
   B_SPLINE_SURFACE_WITH_KNOTS ((3, 2, 2, 2, 3), (2, 2), (0., 78.5398163397448, 157.07963267949, 235.619449019235, 314.159265358979), (0., 1.), .UNSPECIFIED.)
   GEOMETRIC_REPRESENTATION_ITEM ()
   RATIONAL_B_SPLINE_SURFACE (((1., 1.), (0.707106781186548, 0.707106781186548), (1., 1.), (0.707106781186548, 0.707106781186548), (1., 1.), (0.707106781186548, 0.707106781186548), (1., 1.), (0.707106781186548, 0.707106781186548), (1., 1.)))
   REPRESENTATION_ITEM ('')
   SURFACE ()
);
#41 = CARTESIAN_POINT('', (50., 0., 0.));
#42 = CARTESIAN_POINT('', (50., 5., 0.));
#43 = CARTESIAN_POINT('', (50., 0., -50.));
#44 = CARTESIAN_POINT('', (50., 5., -50.));
#45 = CARTESIAN_POINT('', (3.06161699786838E-15, 0., -50.));
#46 = CARTESIAN_POINT('', (3.06161699786838E-15, 5., -50.));
#47 = CARTESIAN_POINT('', (-50., 0., -50.));
#48 = CARTESIAN_POINT('', (-50., 5., -50.));
#49 = CARTESIAN_POINT('', (-50., 0., -6.12323399573677E-15));
#50 = CARTESIAN_POINT('', (-50., 5., -6.12323399573677E-15));
#51 = CARTESIAN_POINT('', (-50., 0., 50.));
#52 = CARTESIAN_POINT('', (-50., 5., 50.));
#53 = CARTESIAN_POINT('', (-9.18485099360515E-15, 0., 50.));
#54 = CARTESIAN_POINT('', (-9.18485099360515E-15, 5., 50.));
#55 = CARTESIAN_POINT('', (50., 0., 50.));
#56 = CARTESIAN_POINT('', (50., 5., 50.));
#57 = CARTESIAN_POINT('', (50., 0., 0.));
#58 = CARTESIAN_POINT('', (50., 5., 0.));
#59 = ADVANCED_FACE('', (#60), #96, .T.);
#60 = FACE_OUTER_BOUND('', #61, .T.);
#61 = EDGE_LOOP('', (#62, #71, #83, #84));
#62 = ORIENTED_EDGE('', *, *, #63, .F.);
#63 = EDGE_CURVE('', #64, #66, #68, .T.);
#64 = VERTEX_POINT('', #65);
#65 = CARTESIAN_POINT('', (30., 20., 0.));
#66 = VERTEX_POINT('', #67);
#67 = CARTESIAN_POINT('', (30., 0., 0.));
#68 = B_SPLINE_CURVE_WITH_KNOTS('', 1, (#69, #70), .UNSPECIFIED., .F., .U., (2, 2), (0., 1.), .UNSPECIFIED.);
#69 = CARTESIAN_POINT('', (30., 20., 0.));
#70 = CARTESIAN_POINT('', (30., 0., 0.));
#71 = ORIENTED_EDGE('', *, *, #72, .T.);
#72 = EDGE_CURVE('', #64, #64, #73, .T.);
#73 = (
   BOUNDED_CURVE ()
   B_SPLINE_CURVE (2, (#74, #75, #76, #77, #78, #79, #80, #81, #82), .UNSPECIFIED., .T., .U.)
   B_SPLINE_CURVE_WITH_KNOTS ((3, 2, 2, 2, 3), (0., 47.1238898038469, 94.2477796076938, 141.371669411541, 188.495559215388), .UNSPECIFIED.)
   CURVE ()
   GEOMETRIC_REPRESENTATION_ITEM ()
   RATIONAL_B_SPLINE_CURVE ((1., 0.707106781186548, 1., 0.707106781186548, 1., 0.707106781186548, 1., 0.707106781186548, 1.))
   REPRESENTATION_ITEM ('')
);
#74 = CARTESIAN_POINT('', (30., 20., 0.));
#75 = CARTESIAN_POINT('', (30., 20., -30.));
#76 = CARTESIAN_POINT('', (1.83697019872103E-15, 20., -30.));
#77 = CARTESIAN_POINT('', (-30., 20., -30.));
#78 = CARTESIAN_POINT('', (-30., 20., -3.67394039744206E-15));
#79 = CARTESIAN_POINT('', (-30., 20., 30.));
#80 = CARTESIAN_POINT('', (-5.51091059616309E-15, 20., 30.));
#81 = CARTESIAN_POINT('', (30., 20., 30.));
#82 = CARTESIAN_POINT('', (30., 20., 0.));
#83 = ORIENTED_EDGE('', *, *, #63, .T.);
#84 = ORIENTED_EDGE('', *, *, #85, .F.);
#85 = EDGE_CURVE('', #66, #66, #86, .T.);
#86 = (
   BOUNDED_CURVE ()
   B_SPLINE_CURVE (2, (#87, #88, #89, #90, #91, #92, #93, #94, #95), .UNSPECIFIED., .T., .U.)
   B_SPLINE_CURVE_WITH_KNOTS ((3, 2, 2, 2, 3), (0., 47.1238898038469, 94.2477796076938, 141.371669411541, 188.495559215388), .UNSPECIFIED.)
   CURVE ()
   GEOMETRIC_REPRESENTATION_ITEM ()
   RATIONAL_B_SPLINE_CURVE ((1., 0.707106781186548, 1., 0.707106781186548, 1., 0.707106781186548, 1., 0.707106781186548, 1.))
   REPRESENTATION_ITEM ('')
);
#87 = CARTESIAN_POINT('', (30., 0., 0.));
#88 = CARTESIAN_POINT('', (30., 0., -30.));
#89 = CARTESIAN_POINT('', (1.83697019872103E-15, 0., -30.));
#90 = CARTESIAN_POINT('', (-30., 0., -30.));
#91 = CARTESIAN_POINT('', (-30., 0., -3.67394039744206E-15));
#92 = CARTESIAN_POINT('', (-30., 0., 30.));
#93 = CARTESIAN_POINT('', (-5.51091059616309E-15, 0., 30.));
#94 = CARTESIAN_POINT('', (30., 0., 30.));
#95 = CARTESIAN_POINT('', (30., 0., 0.));
#96 = (
   BOUNDED_SURFACE ()
   B_SPLINE_SURFACE (2, 1, ((#97, #98), (#99, #100), (#101, #102), (#103, #104), (#105, #106), (#107, #108), (#109, #110), (#111, #112), (#113, #114)), .UNSPECIFIED., .T., .F., .U.)
   B_SPLINE_SURFACE_WITH_KNOTS ((3, 2, 2, 2, 3), (2, 2), (0., 47.1238898038469, 94.2477796076938, 141.371669411541, 188.495559215388), (0., 1.), .UNSPECIFIED.)
   GEOMETRIC_REPRESENTATION_ITEM ()
   RATIONAL_B_SPLINE_SURFACE (((1., 1.), (0.707106781186548, 0.707106781186548), (1., 1.), (0.707106781186548, 0.707106781186548), (1., 1.), (0.707106781186548, 0.707106781186548), (1., 1.), (0.707106781186548, 0.707106781186548), (1., 1.)))
   REPRESENTATION_ITEM ('')
   SURFACE ()
);
#97 = CARTESIAN_POINT('', (30., 20., 0.));
#98 = CARTESIAN_POINT('', (30., 0., 0.));
#99 = CARTESIAN_POINT('', (30., 20., -30.));
#100 = CARTESIAN_POINT('', (30., 0., -30.));
#101 = CARTESIAN_POINT('', (1.83697019872103E-15, 20., -30.));
#102 = CARTESIAN_POINT('', (1.83697019872103E-15, 0., -30.));
#103 = CARTESIAN_POINT('', (-30., 20., -30.));
#104 = CARTESIAN_POINT('', (-30., 0., -30.));
#105 = CARTESIAN_POINT('', (-30., 20., -3.67394039744206E-15));
#106 = CARTESIAN_POINT('', (-30., 0., -3.67394039744206E-15));
#107 = CARTESIAN_POINT('', (-30., 20., 30.));
#108 = CARTESIAN_POINT('', (-30., 0., 30.));
#109 = CARTESIAN_POINT('', (-5.51091059616309E-15, 20., 30.));
#110 = CARTESIAN_POINT('', (-5.51091059616309E-15, 0., 30.));
#111 = CARTESIAN_POINT('', (30., 20., 30.));
#112 = CARTESIAN_POINT('', (30., 0., 30.));
#113 = CARTESIAN_POINT('', (30., 20., 0.));
#114 = CARTESIAN_POINT('', (30., 0., 0.));
#115 = ADVANCED_FACE('', (#116, #119), #122, .T.);
#116 = FACE_OUTER_BOUND('', #117, .T.);
#117 = EDGE_LOOP('', (#118));
#118 = ORIENTED_EDGE('', *, *, #16, .F.);
#119 = FACE_BOUND('', #120, .T.);
#120 = EDGE_LOOP('', (#121));
#121 = ORIENTED_EDGE('', *, *, #85, .T.);
#122 = B_SPLINE_SURFACE_WITH_KNOTS('', 1, 1, ((#123, #124), (#125, #126)), .UNSPECIFIED., .F., .F., .U., (2, 2), (2, 2), (0., 1.), (0., 1.), .UNSPECIFIED.);
#123 = CARTESIAN_POINT('', (-77.7817459305203, 0., -77.7817459305202));
#124 = CARTESIAN_POINT('', (-77.7817459305203, 0., 77.7817459305203));
#125 = CARTESIAN_POINT('', (77.7817459305203, 0., -77.7817459305202));
#126 = CARTESIAN_POINT('', (77.7817459305203, 0., 77.7817459305203));
#127 = ADVANCED_FACE('', (#128, #144), #147, .T.);
#128 = FACE_OUTER_BOUND('', #129, .T.);
#129 = EDGE_LOOP('', (#130));
#130 = ORIENTED_EDGE('', *, *, #131, .T.);
#131 = EDGE_CURVE('', #132, #132, #134, .T.);
#132 = VERTEX_POINT('', #133);
#133 = CARTESIAN_POINT('', (35., 20., 0.));
#134 = (
   BOUNDED_CURVE ()
   B_SPLINE_CURVE (2, (#135, #136, #137, #138, #139, #140, #141, #142, #143), .UNSPECIFIED., .T., .U.)
   B_SPLINE_CURVE_WITH_KNOTS ((3, 2, 2, 2, 3), (0., 54.9778714378214, 109.955742875643, 164.933614313464, 219.911485751286), .UNSPECIFIED.)
   CURVE ()
   GEOMETRIC_REPRESENTATION_ITEM ()
   RATIONAL_B_SPLINE_CURVE ((1., 0.707106781186548, 1., 0.707106781186548, 1., 0.707106781186548, 1., 0.707106781186548, 1.))
   REPRESENTATION_ITEM ('')
);
#135 = CARTESIAN_POINT('', (35., 20., 0.));
#136 = CARTESIAN_POINT('', (35., 20., -35.));
#137 = CARTESIAN_POINT('', (2.14313189850787E-15, 20., -35.));
#138 = CARTESIAN_POINT('', (-35., 20., -35.));
#139 = CARTESIAN_POINT('', (-35., 20., -4.28626379701574E-15));
#140 = CARTESIAN_POINT('', (-35., 20., 35.));
#141 = CARTESIAN_POINT('', (-6.4293956955236E-15, 20., 35.));
#142 = CARTESIAN_POINT('', (35., 20., 35.));
#143 = CARTESIAN_POINT('', (35., 20., 0.));
#144 = FACE_BOUND('', #145, .T.);
#145 = EDGE_LOOP('', (#146));
#146 = ORIENTED_EDGE('', *, *, #72, .F.);
#147 = B_SPLINE_SURFACE_WITH_KNOTS('', 1, 1, ((#148, #149), (#150, #151)), .UNSPECIFIED., .F., .F., .U., (2, 2), (2, 2), (0., 1.), (0., 1.), .UNSPECIFIED.);
#148 = CARTESIAN_POINT('', (-54.4472221513642, 20., -54.4472221513642));
#149 = CARTESIAN_POINT('', (54.4472221513642, 20., -54.4472221513642));
#150 = CARTESIAN_POINT('', (-54.4472221513642, 20., 54.4472221513642));
#151 = CARTESIAN_POINT('', (54.4472221513642, 20., 54.4472221513642));
#152 = ADVANCED_FACE('', (#153), #176, .T.);
#153 = FACE_OUTER_BOUND('', #154, .T.);
#154 = EDGE_LOOP('', (#155, #162, #174, #175));
#155 = ORIENTED_EDGE('', *, *, #156, .F.);
#156 = EDGE_CURVE('', #157, #132, #159, .T.);
#157 = VERTEX_POINT('', #158);
#158 = CARTESIAN_POINT('', (35., 5., 0.));
#159 = B_SPLINE_CURVE_WITH_KNOTS('', 1, (#160, #161), .UNSPECIFIED., .F., .U., (2, 2), (0., 1.), .UNSPECIFIED.);
#160 = CARTESIAN_POINT('', (35., 5., 0.));
#161 = CARTESIAN_POINT('', (35., 20., 0.));
#162 = ORIENTED_EDGE('', *, *, #163, .T.);
#163 = EDGE_CURVE('', #157, #157, #164, .T.);
#164 = (
   BOUNDED_CURVE ()
   B_SPLINE_CURVE (2, (#165, #166, #167, #168, #169, #170, #171, #172, #173), .UNSPECIFIED., .T., .U.)
   B_SPLINE_CURVE_WITH_KNOTS ((3, 2, 2, 2, 3), (0., 54.9778714378214, 109.955742875643, 164.933614313464, 219.911485751286), .UNSPECIFIED.)
   CURVE ()
   GEOMETRIC_REPRESENTATION_ITEM ()
   RATIONAL_B_SPLINE_CURVE ((1., 0.707106781186548, 1., 0.707106781186548, 1., 0.707106781186548, 1., 0.707106781186548, 1.))
   REPRESENTATION_ITEM ('')
);
#165 = CARTESIAN_POINT('', (35., 5., 0.));
#166 = CARTESIAN_POINT('', (35., 5., -35.));
#167 = CARTESIAN_POINT('', (2.14313189850787E-15, 5., -35.));
#168 = CARTESIAN_POINT('', (-35., 5., -35.));
#169 = CARTESIAN_POINT('', (-35., 5., -4.28626379701574E-15));
#170 = CARTESIAN_POINT('', (-35., 5., 35.));
#171 = CARTESIAN_POINT('', (-6.4293956955236E-15, 5., 35.));
#172 = CARTESIAN_POINT('', (35., 5., 35.));
#173 = CARTESIAN_POINT('', (35., 5., 0.));
#174 = ORIENTED_EDGE('', *, *, #156, .T.);
#175 = ORIENTED_EDGE('', *, *, #131, .F.);
#176 = (
   BOUNDED_SURFACE ()
   B_SPLINE_SURFACE (2, 1, ((#177, #178), (#179, #180), (#181, #182), (#183, #184), (#185, #186), (#187, #188), (#189, #190), (#191, #192), (#193, #194)), .UNSPECIFIED., .T., .F., .U.)
   B_SPLINE_SURFACE_WITH_KNOTS ((3, 2, 2, 2, 3), (2, 2), (0., 54.9778714378214, 109.955742875643, 164.933614313464, 219.911485751286), (0., 1.), .UNSPECIFIED.)
   GEOMETRIC_REPRESENTATION_ITEM ()
   RATIONAL_B_SPLINE_SURFACE (((1., 1.), (0.707106781186548, 0.707106781186548), (1., 1.), (0.707106781186548, 0.707106781186548), (1., 1.), (0.707106781186548, 0.707106781186548), (1., 1.), (0.707106781186548, 0.707106781186548), (1., 1.)))
   REPRESENTATION_ITEM ('')
   SURFACE ()
);
#177 = CARTESIAN_POINT('', (35., 5., 0.));
#178 = CARTESIAN_POINT('', (35., 20., 0.));
#179 = CARTESIAN_POINT('', (35., 5., -35.));
#180 = CARTESIAN_POINT('', (35., 20., -35.));
#181 = CARTESIAN_POINT('', (2.14313189850787E-15, 5., -35.));
#182 = CARTESIAN_POINT('', (2.14313189850787E-15, 20., -35.));
#183 = CARTESIAN_POINT('', (-35., 5., -35.));
#184 = CARTESIAN_POINT('', (-35., 20., -35.));
#185 = CARTESIAN_POINT('', (-35., 5., -4.28626379701574E-15));
#186 = CARTESIAN_POINT('', (-35., 20., -4.28626379701574E-15));
#187 = CARTESIAN_POINT('', (-35., 5., 35.));
#188 = CARTESIAN_POINT('', (-35., 20., 35.));
#189 = CARTESIAN_POINT('', (-6.4293956955236E-15, 5., 35.));
#190 = CARTESIAN_POINT('', (-6.4293956955236E-15, 20., 35.));
#191 = CARTESIAN_POINT('', (35., 5., 35.));
#192 = CARTESIAN_POINT('', (35., 20., 35.));
#193 = CARTESIAN_POINT('', (35., 5., 0.));
#194 = CARTESIAN_POINT('', (35., 20., 0.));
#195 = ADVANCED_FACE('', (#196, #199), #202, .T.);
#196 = FACE_OUTER_BOUND('', #197, .T.);
#197 = EDGE_LOOP('', (#198));
#198 = ORIENTED_EDGE('', *, *, #29, .T.);
#199 = FACE_BOUND('', #200, .T.);
#200 = EDGE_LOOP('', (#201));
#201 = ORIENTED_EDGE('', *, *, #163, .F.);
#202 = B_SPLINE_SURFACE_WITH_KNOTS('', 1, 1, ((#203, #204), (#205, #206)), .UNSPECIFIED., .F., .F., .U., (2, 2), (2, 2), (0., 1.), (0., 1.), .UNSPECIFIED.);
#203 = CARTESIAN_POINT('', (-77.7817459305203, 5., -77.7817459305202));
#204 = CARTESIAN_POINT('', (77.7817459305203, 5., -77.7817459305202));
#205 = CARTESIAN_POINT('', (-77.7817459305203, 5., 77.7817459305203));
#206 = CARTESIAN_POINT('', (77.7817459305203, 5., 77.7817459305203));
#207 = DRAUGHTING_MODEL('', (#215, #385), #388);
#208 = PRESENTATION_STYLE_ASSIGNMENT((#209));
#209 = SURFACE_STYLE_USAGE(.POSITIVE., #210);
#210 = SURFACE_SIDE_STYLE('', (#211));
#211 = SURFACE_STYLE_FILL_AREA(#212);
#212 = FILL_AREA_STYLE('', (#213));
#213 = FILL_AREA_STYLE_COLOUR('', #214);
#214 = COLOUR_RGB('', 0.50196078431373, 0.50196078431373, 0.50196078431373);
#215 = STYLED_ITEM('', (#208), #1);
#216 = MANIFOLD_SOLID_BREP('Solid0', #217);
#217 = CLOSED_SHELL('', (#218, #254, #288, #319, #344, #366));
#218 = ADVANCED_FACE('', (#219), #249, .T.);
#219 = FACE_OUTER_BOUND('', #220, .T.);
#220 = EDGE_LOOP('', (#221, #230, #237, #244));
#221 = ORIENTED_EDGE('', *, *, #222, .F.);
#222 = EDGE_CURVE('', #223, #225, #227, .T.);
#223 = VERTEX_POINT('', #224);
#224 = CARTESIAN_POINT('', (0., 50., -1.22464679914735E-15));
#225 = VERTEX_POINT('', #226);
#226 = CARTESIAN_POINT('', (0., 40., -1.22464679914735E-15));
#227 = B_SPLINE_CURVE_WITH_KNOTS('', 1, (#228, #229), .UNSPECIFIED., .F., .U., (2, 2), (0., 1.), .UNSPECIFIED.);
#228 = CARTESIAN_POINT('', (0., 50., -1.22464679914735E-15));
#229 = CARTESIAN_POINT('', (0., 40., -1.22464679914735E-15));
#230 = ORIENTED_EDGE('', *, *, #231, .F.);
#231 = EDGE_CURVE('', #232, #223, #234, .T.);
#232 = VERTEX_POINT('', #233);
#233 = CARTESIAN_POINT('', (-15., 50., -3.06161699786838E-15));
#234 = B_SPLINE_CURVE_WITH_KNOTS('', 1, (#235, #236), .UNSPECIFIED., .F., .U., (2, 2), (0., 1.), .UNSPECIFIED.);
#235 = CARTESIAN_POINT('', (-15., 50., -3.06161699786838E-15));
#236 = CARTESIAN_POINT('', (0., 50., -1.22464679914735E-15));
#237 = ORIENTED_EDGE('', *, *, #238, .F.);
#238 = EDGE_CURVE('', #239, #232, #241, .T.);
#239 = VERTEX_POINT('', #240);
#240 = CARTESIAN_POINT('', (-15., 40., -3.06161699786838E-15));
#241 = B_SPLINE_CURVE_WITH_KNOTS('', 1, (#242, #243), .UNSPECIFIED., .F., .U., (2, 2), (0., 1.), .UNSPECIFIED.);
#242 = CARTESIAN_POINT('', (-15., 40., -3.06161699786838E-15));
#243 = CARTESIAN_POINT('', (-15., 50., -3.06161699786838E-15));
#244 = ORIENTED_EDGE('', *, *, #245, .F.);
#245 = EDGE_CURVE('', #225, #239, #246, .T.);
#246 = B_SPLINE_CURVE_WITH_KNOTS('', 1, (#247, #248), .UNSPECIFIED., .F., .U., (2, 2), (0., 1.), .UNSPECIFIED.);
#247 = CARTESIAN_POINT('', (0., 40., -1.22464679914735E-15));
#248 = CARTESIAN_POINT('', (-15., 40., -3.06161699786838E-15));
#249 = B_SPLINE_SURFACE_WITH_KNOTS('', 1, 1, ((#250, #251), (#252, #253)), .UNSPECIFIED., .F., .F., .U., (2, 2), (2, 2), (0., 1.), (0., 1.), .UNSPECIFIED.);
#250 = CARTESIAN_POINT('', (-17.415266007526, 35.084733992474, -3.35740177638899E-15));
#251 = CARTESIAN_POINT('', (-17.415266007526, 54.915266007526, -3.35740177638899E-15));
#252 = CARTESIAN_POINT('', (2.41526600752597, 35.084733992474, -9.28862020626744E-16));
#253 = CARTESIAN_POINT('', (2.41526600752597, 54.915266007526, -9.28862020626744E-16));
#254 = ADVANCED_FACE('', (#255), #283, .T.);
#255 = FACE_OUTER_BOUND('', #256, .T.);
#256 = EDGE_LOOP('', (#257, #266, #274, #275));
#257 = ORIENTED_EDGE('', *, *, #258, .F.);
#258 = EDGE_CURVE('', #259, #261, #263, .T.);
#259 = VERTEX_POINT('', #260);
#260 = CARTESIAN_POINT('', (35., 50., 0.));
#261 = VERTEX_POINT('', #262);
#262 = CARTESIAN_POINT('', (20., 50., 0.));
#263 = B_SPLINE_CURVE_WITH_KNOTS('', 1, (#264, #265), .UNSPECIFIED., .F., .U., (2, 2), (0., 1.), .UNSPECIFIED.);
#264 = CARTESIAN_POINT('', (35., 50., 0.));
#265 = CARTESIAN_POINT('', (20., 50., 0.));
#266 = ORIENTED_EDGE('', *, *, #267, .T.);
#267 = EDGE_CURVE('', #259, #232, #268, .T.);
#268 = (
   BOUNDED_CURVE ()
   B_SPLINE_CURVE (2, (#269, #270, #271, #272, #273), .UNSPECIFIED., .F., .U.)
   B_SPLINE_CURVE_WITH_KNOTS ((3, 2, 3), (0., 39.2699081698724, 78.5398163397448), .UNSPECIFIED.)
   CURVE ()
   GEOMETRIC_REPRESENTATION_ITEM ()
   RATIONAL_B_SPLINE_CURVE ((1., 0.707106781186548, 1., 0.707106781186548, 1.))
   REPRESENTATION_ITEM ('')
);
#269 = CARTESIAN_POINT('', (35., 50., 3.69778549322349E-32));
#270 = CARTESIAN_POINT('', (35., 50., -25.));
#271 = CARTESIAN_POINT('', (10., 50., -25.));
#272 = CARTESIAN_POINT('', (-15., 50., -25.));
#273 = CARTESIAN_POINT('', (-15., 50., -6.61433067666888E-15));
#274 = ORIENTED_EDGE('', *, *, #231, .T.);
#275 = ORIENTED_EDGE('', *, *, #276, .F.);
#276 = EDGE_CURVE('', #261, #223, #277, .T.);
#277 = (
   BOUNDED_CURVE ()
   B_SPLINE_CURVE (2, (#278, #279, #280, #281, #282), .UNSPECIFIED., .F., .U.)
   B_SPLINE_CURVE_WITH_KNOTS ((3, 2, 3), (0., 15.707963267949, 31.4159265358979), .UNSPECIFIED.)
   CURVE ()
   GEOMETRIC_REPRESENTATION_ITEM ()
   RATIONAL_B_SPLINE_CURVE ((1., 0.707106781186548, 1., 0.707106781186548, 1.))
   REPRESENTATION_ITEM ('')
);
#278 = CARTESIAN_POINT('', (20., 50., 0.));
#279 = CARTESIAN_POINT('', (20., 50., -10.));
#280 = CARTESIAN_POINT('', (9.99999999999999, 50., -10.));
#281 = CARTESIAN_POINT('', (-6.49310395802733E-15, 50., -10.));
#282 = CARTESIAN_POINT('', (-7.105427357601E-15, 50., -1.22464679914735E-15));
#283 = B_SPLINE_SURFACE_WITH_KNOTS('', 1, 1, ((#284, #285), (#286, #287)), .UNSPECIFIED., .F., .F., .U., (2, 2), (2, 2), (0., 1.), (0., 1.), .UNSPECIFIED.);
#284 = CARTESIAN_POINT('', (-17.5, 50., 27.5));
#285 = CARTESIAN_POINT('', (-17.5, 50., -27.5));
#286 = CARTESIAN_POINT('', (37.5, 50., 27.5));
#287 = CARTESIAN_POINT('', (37.5, 50., -27.5));
#288 = ADVANCED_FACE('', (#289), #308, .T.);
#289 = FACE_OUTER_BOUND('', #290, .T.);
#290 = EDGE_LOOP('', (#291, #298, #306, #307));
#291 = ORIENTED_EDGE('', *, *, #292, .F.);
#292 = EDGE_CURVE('', #293, #259, #295, .T.);
#293 = VERTEX_POINT('', #294);
#294 = CARTESIAN_POINT('', (35., 40., 0.));
#295 = B_SPLINE_CURVE_WITH_KNOTS('', 1, (#296, #297), .UNSPECIFIED., .F., .U., (2, 2), (0., 1.), .UNSPECIFIED.);
#296 = CARTESIAN_POINT('', (35., 40., 0.));
#297 = CARTESIAN_POINT('', (35., 50., 0.));
#298 = ORIENTED_EDGE('', *, *, #299, .T.);
#299 = EDGE_CURVE('', #293, #239, #300, .T.);
#300 = (
   BOUNDED_CURVE ()
   B_SPLINE_CURVE (2, (#301, #302, #303, #304, #305), .UNSPECIFIED., .F., .U.)
   B_SPLINE_CURVE_WITH_KNOTS ((3, 2, 3), (0., 0.5, 1.), .UNSPECIFIED.)
   CURVE ()
   GEOMETRIC_REPRESENTATION_ITEM ()
   RATIONAL_B_SPLINE_CURVE ((1., 0.707106781186548, 1., 0.707106781186548, 1.))
   REPRESENTATION_ITEM ('')
);
#301 = CARTESIAN_POINT('', (35., 40., 0.));
#302 = CARTESIAN_POINT('', (35., 40., -25.));
#303 = CARTESIAN_POINT('', (10., 40., -25.));
#304 = CARTESIAN_POINT('', (-15., 40., -25.));
#305 = CARTESIAN_POINT('', (-15., 40., -3.06161699786838E-15));
#306 = ORIENTED_EDGE('', *, *, #238, .T.);
#307 = ORIENTED_EDGE('', *, *, #267, .F.);
#308 = (
   BOUNDED_SURFACE ()
   B_SPLINE_SURFACE (2, 1, ((#309, #310), (#311, #312), (#313, #314), (#315, #316), (#317, #318)), .UNSPECIFIED., .F., .F., .U.)
   B_SPLINE_SURFACE_WITH_KNOTS ((3, 2, 3), (2, 2), (0., 39.2699081698724, 78.5398163397448), (0., 1.), .UNSPECIFIED.)
   GEOMETRIC_REPRESENTATION_ITEM ()
   RATIONAL_B_SPLINE_SURFACE (((1., 1.), (0.707106781186548, 0.707106781186548), (1., 1.), (0.707106781186548, 0.707106781186548), (1., 1.)))
   REPRESENTATION_ITEM ('')
   SURFACE ()
);
#309 = CARTESIAN_POINT('', (35., 40., 3.69778549322349E-32));
#310 = CARTESIAN_POINT('', (35., 50., 3.69778549322349E-32));
#311 = CARTESIAN_POINT('', (35., 40., -25.));
#312 = CARTESIAN_POINT('', (35., 50., -25.));
#313 = CARTESIAN_POINT('', (10., 40., -25.));
#314 = CARTESIAN_POINT('', (10., 50., -25.));
#315 = CARTESIAN_POINT('', (-15., 40., -25.));
#316 = CARTESIAN_POINT('', (-15., 50., -25.));
#317 = CARTESIAN_POINT('', (-15., 40., -6.61433067666888E-15));
#318 = CARTESIAN_POINT('', (-15., 50., -6.61433067666888E-15));
#319 = ADVANCED_FACE('', (#320), #339, .T.);
#320 = FACE_OUTER_BOUND('', #321, .T.);
#321 = EDGE_LOOP('', (#322, #329, #337, #338));
#322 = ORIENTED_EDGE('', *, *, #323, .F.);
#323 = EDGE_CURVE('', #324, #293, #326, .T.);
#324 = VERTEX_POINT('', #325);
#325 = CARTESIAN_POINT('', (20., 40., 0.));
#326 = B_SPLINE_CURVE_WITH_KNOTS('', 1, (#327, #328), .UNSPECIFIED., .F., .U., (2, 2), (0., 1.), .UNSPECIFIED.);
#327 = CARTESIAN_POINT('', (20., 40., 0.));
#328 = CARTESIAN_POINT('', (35., 40., 0.));
#329 = ORIENTED_EDGE('', *, *, #330, .T.);
#330 = EDGE_CURVE('', #324, #225, #331, .T.);
#331 = (
   BOUNDED_CURVE ()
   B_SPLINE_CURVE (2, (#332, #333, #334, #335, #336), .UNSPECIFIED., .F., .U.)
   B_SPLINE_CURVE_WITH_KNOTS ((3, 2, 3), (0., 15.707963267949, 31.4159265358979), .UNSPECIFIED.)
   CURVE ()
   GEOMETRIC_REPRESENTATION_ITEM ()
   RATIONAL_B_SPLINE_CURVE ((1., 0.707106781186548, 1., 0.707106781186548, 1.))
   REPRESENTATION_ITEM ('')
);
#332 = CARTESIAN_POINT('', (20., 40., 0.));
#333 = CARTESIAN_POINT('', (20., 40., -10.));
#334 = CARTESIAN_POINT('', (10., 40., -10.));
#335 = CARTESIAN_POINT('', (6.12323399573677E-16, 40., -10.));
#336 = CARTESIAN_POINT('', (0., 40., -1.22464679914735E-15));
#337 = ORIENTED_EDGE('', *, *, #245, .T.);
#338 = ORIENTED_EDGE('', *, *, #299, .F.);
#339 = B_SPLINE_SURFACE_WITH_KNOTS('', 1, 1, ((#340, #341), (#342, #343)), .UNSPECIFIED., .F., .F., .U., (2, 2), (2, 2), (0., 1.), (0., 1.), .UNSPECIFIED.);
#340 = CARTESIAN_POINT('', (-17.5, 40., 27.5));
#341 = CARTESIAN_POINT('', (37.5, 40., 27.5));
#342 = CARTESIAN_POINT('', (-17.5, 40., -27.5));
#343 = CARTESIAN_POINT('', (37.5, 40., -27.5));
#344 = ADVANCED_FACE('', (#345), #355, .T.);
#345 = FACE_OUTER_BOUND('', #346, .T.);
#346 = EDGE_LOOP('', (#347, #352, #353, #354));
#347 = ORIENTED_EDGE('', *, *, #348, .F.);
#348 = EDGE_CURVE('', #261, #324, #349, .T.);
#349 = B_SPLINE_CURVE_WITH_KNOTS('', 1, (#350, #351), .UNSPECIFIED., .F., .U., (2, 2), (0., 1.), .UNSPECIFIED.);
#350 = CARTESIAN_POINT('', (20., 50., 0.));
#351 = CARTESIAN_POINT('', (20., 40., 0.));
#352 = ORIENTED_EDGE('', *, *, #276, .T.);
#353 = ORIENTED_EDGE('', *, *, #222, .T.);
#354 = ORIENTED_EDGE('', *, *, #330, .F.);
#355 = (
   BOUNDED_SURFACE ()
   B_SPLINE_SURFACE (2, 1, ((#356, #357), (#358, #359), (#360, #361), (#362, #363), (#364, #365)), .UNSPECIFIED., .F., .F., .U.)
   B_SPLINE_SURFACE_WITH_KNOTS ((3, 2, 3), (2, 2), (0., 15.707963267949, 31.4159265358979), (0., 1.), .UNSPECIFIED.)
   GEOMETRIC_REPRESENTATION_ITEM ()
   RATIONAL_B_SPLINE_SURFACE (((1., 1.), (0.707106781186548, 0.707106781186548), (1., 1.), (0.707106781186548, 0.707106781186548), (1., 1.)))
   REPRESENTATION_ITEM ('')
   SURFACE ()
);
#356 = CARTESIAN_POINT('', (20., 50., 0.));
#357 = CARTESIAN_POINT('', (20., 40., 0.));
#358 = CARTESIAN_POINT('', (20., 50., -10.));
#359 = CARTESIAN_POINT('', (20., 40., -10.));
#360 = CARTESIAN_POINT('', (9.99999999999999, 50., -10.));
#361 = CARTESIAN_POINT('', (10., 40., -10.));
#362 = CARTESIAN_POINT('', (-6.49310395802733E-15, 50., -10.));
#363 = CARTESIAN_POINT('', (6.12323399573677E-16, 40., -10.));
#364 = CARTESIAN_POINT('', (-7.105427357601E-15, 50., -1.22464679914735E-15));
#365 = CARTESIAN_POINT('', (0., 40., -1.22464679914735E-15));
#366 = ADVANCED_FACE('', (#367), #373, .T.);
#367 = FACE_OUTER_BOUND('', #368, .T.);
#368 = EDGE_LOOP('', (#369, #370, #371, #372));
#369 = ORIENTED_EDGE('', *, *, #348, .T.);
#370 = ORIENTED_EDGE('', *, *, #323, .T.);
#371 = ORIENTED_EDGE('', *, *, #292, .T.);
#372 = ORIENTED_EDGE('', *, *, #258, .T.);
#373 = B_SPLINE_SURFACE_WITH_KNOTS('', 1, 1, ((#374, #375), (#376, #377)), .UNSPECIFIED., .F., .F., .U., (2, 2), (2, 2), (0., 1.), (0., 1.), .UNSPECIFIED.);
#374 = CARTESIAN_POINT('', (37.415266007526, 35.084733992474, 0.));
#375 = CARTESIAN_POINT('', (17.584733992474, 35.084733992474, 0.));
#376 = CARTESIAN_POINT('', (37.415266007526, 54.915266007526, 0.));
#377 = CARTESIAN_POINT('', (17.584733992474, 54.915266007526, 0.));
#378 = PRESENTATION_STYLE_ASSIGNMENT((#379));
#379 = SURFACE_STYLE_USAGE(.POSITIVE., #380);
#380 = SURFACE_SIDE_STYLE('', (#381));
#381 = SURFACE_STYLE_FILL_AREA(#382);
#382 = FILL_AREA_STYLE('', (#383));
#383 = FILL_AREA_STYLE_COLOUR('', #384);
#384 = COLOUR_RGB('', 0.50196078431373, 0.50196078431373, 0.50196078431373);
#385 = STYLED_ITEM('', (#378), #216);
#386 = CARTESIAN_POINT('Origin', (0., 0., 0.));
#387 = GEOMETRIC_SET('', (#386));
#388 = (
   GEOMETRIC_REPRESENTATION_CONTEXT (3)
   GLOBAL_UNCERTAINTY_ASSIGNED_CONTEXT ((#390))
   GLOBAL_UNIT_ASSIGNED_CONTEXT ((#389, #391, #392))
   REPRESENTATION_CONTEXT ('', '3D')
);
#389 = (
   LENGTH_UNIT ()
   NAMED_UNIT (*)
   SI_UNIT (.MILLI., .METRE.)
);
#390 = UNCERTAINTY_MEASURE_WITH_UNIT(LENGTH_MEASURE(1.E-6), #389, 'DISTANCE_ACCURACY_VALUE', '');
#391 = (
   NAMED_UNIT (*)
   SI_UNIT ($, .STERADIAN.)
   SOLID_ANGLE_UNIT ()
);
#392 = (
   NAMED_UNIT (*)
   PLANE_ANGLE_UNIT ()
   SI_UNIT ($, .RADIAN.)
);
#393 = SHAPE_REPRESENTATION('', (#408), #388);
#394 = PRODUCT_DEFINITION_SHAPE('', '', #395);
#395 = PRODUCT_DEFINITION('', '', #398, #402);
#396 = APPLICATION_CONTEXT('configuration controlled 3D designs of mechanical parts and assemblies');
#397 = APPLICATION_PROTOCOL_DEFINITION('International Standard', 'automotive_design', 2002, #396);
#398 = PRODUCT_DEFINITION_FORMATION_WITH_SPECIFIED_SOURCE('', '', #399, .NOT_KNOWN.);
#399 = PRODUCT('LShapeOffset', 'LShapeOffset', '', (#400));
#400 = PRODUCT_CONTEXT('', #396, 'mechanical');
#401 = PRODUCT_RELATED_PRODUCT_CATEGORY('detail', '', (#399));
#402 = PRODUCT_DEFINITION_CONTEXT('part definition', #396, 'design');
#403 = SHAPE_DEFINITION_REPRESENTATION(#394, #393);
#404 = SHAPE_REPRESENTATION_RELATIONSHIP('', '', #393, #405);
#405 = SHAPE_REPRESENTATION('', (#387), #388);
#406 = SHAPE_REPRESENTATION_RELATIONSHIP('', '', #393, #407);
#407 = ADVANCED_BREP_SHAPE_REPRESENTATION('', (#1, #216), #388);
#408 = AXIS2_PLACEMENT_3D('', #409, #410, #411);
#409 = CARTESIAN_POINT('', (0., 0., 0.));
#410 = DIRECTION('', (0., 0., 1.));
#411 = DIRECTION('', (1., 0., 0.));
ENDSEC;
END-ISO-10303-21;
