ISO-10303-21;
HEADER;
FILE_DESCRIPTION(('STEP'), '1');
FILE_NAME('CylinderDegenerate', '2026-04-13T14:09:08', (''), (''), 'Express 3.1.2.0', 'Express Tool', 'Unknown');
FILE_SCHEMA(('AUTOMOTIVE_DESIGN'));
ENDSEC;

DATA;
#1 = SHELL_BASED_SURFACE_MODEL('Sheet', (#2));
#2 = OPEN_SHELL('', (#3));
#3 = ADVANCED_FACE('', (#4), #40, .T.);
#4 = FACE_OUTER_BOUND('', #5, .T.);
#5 = EDGE_LOOP('', (#6, #15, #27, #28));
#6 = ORIENTED_EDGE('', *, *, #7, .F.);
#7 = EDGE_CURVE('', #8, #10, #12, .T.);
#8 = VERTEX_POINT('', #9);
#9 = CARTESIAN_POINT('', (-25., 0., -25.));
#10 = VERTEX_POINT('', #11);
#11 = CARTESIAN_POINT('', (-25., 0., 25.));
#12 = B_SPLINE_CURVE_WITH_KNOTS('', 1, (#13, #14), .UNSPECIFIED., .F., .U., (2, 2), (0., 50.), .UNSPECIFIED.);
#13 = CARTESIAN_POINT('', (-25., 0., -25.));
#14 = CARTESIAN_POINT('', (-25., 0., 25.));
#15 = ORIENTED_EDGE('', *, *, #16, .T.);
#16 = EDGE_CURVE('', #8, #8, #17, .T.);
#17 = (
   BOUNDED_CURVE ()
   B_SPLINE_CURVE (2, (#18, #19, #20, #21, #22, #23, #24, #25, #26), .UNSPECIFIED., .T., .U.)
   B_SPLINE_CURVE_WITH_KNOTS ((3, 2, 2, 2, 3), (0., 39.2699081698724, 78.5398163397448, 117.809724509617, 157.07963267949), .UNSPECIFIED.)
   CURVE ()
   GEOMETRIC_REPRESENTATION_ITEM ()
   RATIONAL_B_SPLINE_CURVE ((1., 0.707106781186548, 1., 0.707106781186548, 1., 0.707106781186548, 1., 0.707106781186548, 1.))
   REPRESENTATION_ITEM ('')
);
#18 = CARTESIAN_POINT('', (-25., 0., -25.));
#19 = CARTESIAN_POINT('', (-25., -25., -25.));
#20 = CARTESIAN_POINT('', (-1.53080849893419E-15, -25., -25.));
#21 = CARTESIAN_POINT('', (25., -25., -25.));
#22 = CARTESIAN_POINT('', (25., -3.06161699786838E-15, -25.));
#23 = CARTESIAN_POINT('', (25., 25., -25.));
#24 = CARTESIAN_POINT('', (4.59242549680257E-15, 25., -25.));
#25 = CARTESIAN_POINT('', (-25., 25., -25.));
#26 = CARTESIAN_POINT('', (-25., 0., -25.));
#27 = ORIENTED_EDGE('', *, *, #7, .T.);
#28 = ORIENTED_EDGE('', *, *, #29, .F.);
#29 = EDGE_CURVE('', #10, #10, #30, .T.);
#30 = (
   BOUNDED_CURVE ()
   B_SPLINE_CURVE (2, (#31, #32, #33, #34, #35, #36, #37, #38, #39), .UNSPECIFIED., .T., .U.)
   B_SPLINE_CURVE_WITH_KNOTS ((3, 2, 2, 2, 3), (0., 39.2699081698724, 78.5398163397448, 117.809724509617, 157.07963267949), .UNSPECIFIED.)
   CURVE ()
   GEOMETRIC_REPRESENTATION_ITEM ()
   RATIONAL_B_SPLINE_CURVE ((1., 0.707106781186548, 1., 0.707106781186548, 1., 0.707106781186548, 1., 0.707106781186548, 1.))
   REPRESENTATION_ITEM ('')
);
#31 = CARTESIAN_POINT('', (-25., 0., 25.));
#32 = CARTESIAN_POINT('', (-25., -25., 25.));
#33 = CARTESIAN_POINT('', (-1.53080849893419E-15, -25., 25.));
#34 = CARTESIAN_POINT('', (25., -25., 25.));
#35 = CARTESIAN_POINT('', (25., -3.06161699786838E-15, 25.));
#36 = CARTESIAN_POINT('', (25., 25., 25.));
#37 = CARTESIAN_POINT('', (4.59242549680257E-15, 25., 25.));
#38 = CARTESIAN_POINT('', (-25., 25., 25.));
#39 = CARTESIAN_POINT('', (-25., 0., 25.));
#40 = (
   BOUNDED_SURFACE ()
   B_SPLINE_SURFACE (2, 1, ((#41, #42), (#43, #44), (#45, #46), (#47, #48), (#49, #50), (#51, #52), (#53, #54), (#55, #56), (#57, #58)), .UNSPECIFIED., .T., .F., .U.)
   B_SPLINE_SURFACE_WITH_KNOTS ((3, 2, 2, 2, 3), (2, 2), (0., 39.2699081698724, 78.5398163397448, 117.809724509617, 157.07963267949), (0., 50.), .UNSPECIFIED.)
   GEOMETRIC_REPRESENTATION_ITEM ()
   RATIONAL_B_SPLINE_SURFACE (((1., 1.), (0.707106781186548, 0.707106781186548), (1., 1.), (0.707106781186548, 0.707106781186548), (1., 1.), (0.707106781186548, 0.707106781186548), (1., 1.), (0.707106781186548, 0.707106781186548), (1., 1.)))
   REPRESENTATION_ITEM ('')
   SURFACE ()
);
#41 = CARTESIAN_POINT('', (-25., 0., -25.));
#42 = CARTESIAN_POINT('', (-25., 0., 25.));
#43 = CARTESIAN_POINT('', (-25., -25., -25.));
#44 = CARTESIAN_POINT('', (-25., -25., 25.));
#45 = CARTESIAN_POINT('', (-1.53080849893419E-15, -25., -25.));
#46 = CARTESIAN_POINT('', (-1.53080849893419E-15, -25., 25.));
#47 = CARTESIAN_POINT('', (25., -25., -25.));
#48 = CARTESIAN_POINT('', (25., -25., 25.));
#49 = CARTESIAN_POINT('', (25., -3.06161699786838E-15, -25.));
#50 = CARTESIAN_POINT('', (25., -3.06161699786838E-15, 25.));
#51 = CARTESIAN_POINT('', (25., 25., -25.));
#52 = CARTESIAN_POINT('', (25., 25., 25.));
#53 = CARTESIAN_POINT('', (4.59242549680257E-15, 25., -25.));
#54 = CARTESIAN_POINT('', (4.59242549680257E-15, 25., 25.));
#55 = CARTESIAN_POINT('', (-25., 25., -25.));
#56 = CARTESIAN_POINT('', (-25., 25., 25.));
#57 = CARTESIAN_POINT('', (-25., 0., -25.));
#58 = CARTESIAN_POINT('', (-25., 0., 25.));
#59 = DRAUGHTING_MODEL('', (#67), #70);
#60 = PRESENTATION_STYLE_ASSIGNMENT((#61));
#61 = SURFACE_STYLE_USAGE(.POSITIVE., #62);
#62 = SURFACE_SIDE_STYLE('', (#63));
#63 = SURFACE_STYLE_FILL_AREA(#64);
#64 = FILL_AREA_STYLE('', (#65));
#65 = FILL_AREA_STYLE_COLOUR('', #66);
#66 = COLOUR_RGB('', 0.50196078431373, 0.50196078431373, 0.50196078431373);
#67 = STYLED_ITEM('', (#60), #1);
#68 = CARTESIAN_POINT('Origin', (0., 0., 0.));
#69 = GEOMETRIC_SET('', (#68));
#70 = (
   GEOMETRIC_REPRESENTATION_CONTEXT (3)
   GLOBAL_UNCERTAINTY_ASSIGNED_CONTEXT ((#72))
   GLOBAL_UNIT_ASSIGNED_CONTEXT ((#71, #73, #74))
   REPRESENTATION_CONTEXT ('', '3D')
);
#71 = (
   LENGTH_UNIT ()
   NAMED_UNIT (*)
   SI_UNIT (.MILLI., .METRE.)
);
#72 = UNCERTAINTY_MEASURE_WITH_UNIT(LENGTH_MEASURE(1.E-6), #71, 'DISTANCE_ACCURACY_VALUE', '');
#73 = (
   NAMED_UNIT (*)
   SI_UNIT ($, .STERADIAN.)
   SOLID_ANGLE_UNIT ()
);
#74 = (
   NAMED_UNIT (*)
   PLANE_ANGLE_UNIT ()
   SI_UNIT ($, .RADIAN.)
);
#75 = SHAPE_REPRESENTATION('', (#90), #70);
#76 = PRODUCT_DEFINITION_SHAPE('', '', #77);
#77 = PRODUCT_DEFINITION('', '', #80, #84);
#78 = APPLICATION_CONTEXT('configuration controlled 3D designs of mechanical parts and assemblies');
#79 = APPLICATION_PROTOCOL_DEFINITION('International Standard', 'automotive_design', 2002, #78);
#80 = PRODUCT_DEFINITION_FORMATION_WITH_SPECIFIED_SOURCE('', '', #81, .NOT_KNOWN.);
#81 = PRODUCT('CylinderDegenerate', 'CylinderDegenerate', '', (#82));
#82 = PRODUCT_CONTEXT('', #78, 'mechanical');
#83 = PRODUCT_RELATED_PRODUCT_CATEGORY('detail', '', (#81));
#84 = PRODUCT_DEFINITION_CONTEXT('part definition', #78, 'design');
#85 = SHAPE_DEFINITION_REPRESENTATION(#76, #75);
#86 = SHAPE_REPRESENTATION_RELATIONSHIP('', '', #75, #87);
#87 = SHAPE_REPRESENTATION('', (#69), #70);
#88 = SHAPE_REPRESENTATION_RELATIONSHIP('', '', #75, #89);
#89 = MANIFOLD_SURFACE_SHAPE_REPRESENTATION('', (#1), #70);
#90 = AXIS2_PLACEMENT_3D('', #91, #92, #93);
#91 = CARTESIAN_POINT('', (0., 0., 0.));
#92 = DIRECTION('', (0., 0., 1.));
#93 = DIRECTION('', (1., 0., 0.));
ENDSEC;
END-ISO-10303-21;
