ISO-10303-21;
HEADER;
FILE_DESCRIPTION(('STEP'), '1');
FILE_NAME('SigTest', '2026-04-14T20:28:19', (''), (''), 'Express 3.1.2.0', 'Express Tool', 'Unknown');
FILE_SCHEMA(('AUTOMOTIVE_DESIGN'));
ENDSEC;

DATA;
#1 = MANIFOLD_SOLID_BREP('Solid', #2);
#2 = CLOSED_SHELL('', (#3, #67, #115, #137, #159, #175, #187, #223, #251, #273, #295, #307));
#3 = ADVANCED_FACE('', (#4), #62, .T.);
#4 = FACE_OUTER_BOUND('', #5, .T.);
#5 = EDGE_LOOP('', (#6, #15, #22, #29, #36, #43, #50, #57));
#6 = ORIENTED_EDGE('', *, *, #7, .T.);
#7 = EDGE_CURVE('', #8, #10, #12, .T.);
#8 = VERTEX_POINT('', #9);
#9 = CARTESIAN_POINT('', (40., 5., 20.));
#10 = VERTEX_POINT('', #11);
#11 = CARTESIAN_POINT('', (40., 5., -20.));
#12 = B_SPLINE_CURVE_WITH_KNOTS('', 1, (#13, #14), .UNSPECIFIED., .F., .U., (2, 2), (0., 1.), .UNSPECIFIED.);
#13 = CARTESIAN_POINT('', (40., 5., 20.));
#14 = CARTESIAN_POINT('', (40., 5., -20.));
#15 = ORIENTED_EDGE('', *, *, #16, .T.);
#16 = EDGE_CURVE('', #10, #17, #19, .T.);
#17 = VERTEX_POINT('', #18);
#18 = CARTESIAN_POINT('', (30., 5., -20.));
#19 = B_SPLINE_CURVE_WITH_KNOTS('', 1, (#20, #21), .UNSPECIFIED., .F., .U., (2, 2), (0., 1.), .UNSPECIFIED.);
#20 = CARTESIAN_POINT('', (40., 5., -20.));
#21 = CARTESIAN_POINT('', (30., 5., -20.));
#22 = ORIENTED_EDGE('', *, *, #23, .F.);
#23 = EDGE_CURVE('', #24, #17, #26, .T.);
#24 = VERTEX_POINT('', #25);
#25 = CARTESIAN_POINT('', (30., 5., -30.));
#26 = B_SPLINE_CURVE_WITH_KNOTS('', 1, (#27, #28), .UNSPECIFIED., .F., .U., (2, 2), (0., 10.), .UNSPECIFIED.);
#27 = CARTESIAN_POINT('', (30., 5., -30.));
#28 = CARTESIAN_POINT('', (30., 5., -20.));
#29 = ORIENTED_EDGE('', *, *, #30, .T.);
#30 = EDGE_CURVE('', #24, #31, #33, .T.);
#31 = VERTEX_POINT('', #32);
#32 = CARTESIAN_POINT('', (70., 5., -30.));
#33 = B_SPLINE_CURVE_WITH_KNOTS('', 1, (#34, #35), .UNSPECIFIED., .F., .U., (2, 2), (0., 40.), .UNSPECIFIED.);
#34 = CARTESIAN_POINT('', (30., 5., -30.));
#35 = CARTESIAN_POINT('', (70., 5., -30.));
#36 = ORIENTED_EDGE('', *, *, #37, .T.);
#37 = EDGE_CURVE('', #31, #38, #40, .T.);
#38 = VERTEX_POINT('', #39);
#39 = CARTESIAN_POINT('', (70., 5., 30.));
#40 = B_SPLINE_CURVE_WITH_KNOTS('', 1, (#41, #42), .UNSPECIFIED., .F., .U., (2, 2), (0., 60.), .UNSPECIFIED.);
#41 = CARTESIAN_POINT('', (70., 5., -30.));
#42 = CARTESIAN_POINT('', (70., 5., 30.));
#43 = ORIENTED_EDGE('', *, *, #44, .F.);
#44 = EDGE_CURVE('', #45, #38, #47, .T.);
#45 = VERTEX_POINT('', #46);
#46 = CARTESIAN_POINT('', (30., 5., 30.));
#47 = B_SPLINE_CURVE_WITH_KNOTS('', 1, (#48, #49), .UNSPECIFIED., .F., .U., (2, 2), (0., 40.), .UNSPECIFIED.);
#48 = CARTESIAN_POINT('', (30., 5., 30.));
#49 = CARTESIAN_POINT('', (70., 5., 30.));
#50 = ORIENTED_EDGE('', *, *, #51, .F.);
#51 = EDGE_CURVE('', #52, #45, #54, .T.);
#52 = VERTEX_POINT('', #53);
#53 = CARTESIAN_POINT('', (30., 5., 20.));
#54 = B_SPLINE_CURVE_WITH_KNOTS('', 1, (#55, #56), .UNSPECIFIED., .F., .U., (2, 2), (50., 60.), .UNSPECIFIED.);
#55 = CARTESIAN_POINT('', (30., 5., 20.));
#56 = CARTESIAN_POINT('', (30., 5., 30.));
#57 = ORIENTED_EDGE('', *, *, #58, .T.);
#58 = EDGE_CURVE('', #52, #8, #59, .T.);
#59 = B_SPLINE_CURVE_WITH_KNOTS('', 1, (#60, #61), .UNSPECIFIED., .F., .U., (2, 2), (0., 1.), .UNSPECIFIED.);
#60 = CARTESIAN_POINT('', (30., 5., 20.));
#61 = CARTESIAN_POINT('', (40., 5., 20.));
#62 = B_SPLINE_SURFACE_WITH_KNOTS('', 1, 1, ((#63, #64), (#65, #66)), .UNSPECIFIED., .F., .F., .U., (2, 2), (2, 2), (0., 40.), (0., 60.), .UNSPECIFIED.);
#63 = CARTESIAN_POINT('', (30., 5., -30.));
#64 = CARTESIAN_POINT('', (30., 5., 30.));
#65 = CARTESIAN_POINT('', (70., 5., -30.));
#66 = CARTESIAN_POINT('', (70., 5., 30.));
#67 = ADVANCED_FACE('', (#68), #110, .T.);
#68 = FACE_OUTER_BOUND('', #69, .T.);
#69 = EDGE_LOOP('', (#70, #79, #84, #85, #92, #99, #104, #105));
#70 = ORIENTED_EDGE('', *, *, #71, .T.);
#71 = EDGE_CURVE('', #72, #74, #76, .T.);
#72 = VERTEX_POINT('', #73);
#73 = CARTESIAN_POINT('', (30., 30., -20.));
#74 = VERTEX_POINT('', #75);
#75 = CARTESIAN_POINT('', (30., 30., 20.));
#76 = B_SPLINE_CURVE_WITH_KNOTS('', 1, (#77, #78), .UNSPECIFIED., .F., .U., (2, 2), (0., 1.), .UNSPECIFIED.);
#77 = CARTESIAN_POINT('', (30., 30., -20.));
#78 = CARTESIAN_POINT('', (30., 30., 20.));
#79 = ORIENTED_EDGE('', *, *, #80, .T.);
#80 = EDGE_CURVE('', #74, #52, #81, .T.);
#81 = B_SPLINE_CURVE_WITH_KNOTS('', 1, (#82, #83), .UNSPECIFIED., .F., .U., (2, 2), (0., 1.), .UNSPECIFIED.);
#82 = CARTESIAN_POINT('', (30., 30., 20.));
#83 = CARTESIAN_POINT('', (30., 5., 20.));
#84 = ORIENTED_EDGE('', *, *, #51, .T.);
#85 = ORIENTED_EDGE('', *, *, #86, .T.);
#86 = EDGE_CURVE('', #45, #87, #89, .T.);
#87 = VERTEX_POINT('', #88);
#88 = CARTESIAN_POINT('', (30., 35., 30.));
#89 = B_SPLINE_CURVE_WITH_KNOTS('', 1, (#90, #91), .UNSPECIFIED., .F., .U., (2, 2), (0., 30.), .UNSPECIFIED.);
#90 = CARTESIAN_POINT('', (30., 5., 30.));
#91 = CARTESIAN_POINT('', (30., 35., 30.));
#92 = ORIENTED_EDGE('', *, *, #93, .F.);
#93 = EDGE_CURVE('', #94, #87, #96, .T.);
#94 = VERTEX_POINT('', #95);
#95 = CARTESIAN_POINT('', (30., 35., -30.));
#96 = B_SPLINE_CURVE_WITH_KNOTS('', 1, (#97, #98), .UNSPECIFIED., .F., .U., (2, 2), (0., 60.), .UNSPECIFIED.);
#97 = CARTESIAN_POINT('', (30., 35., -30.));
#98 = CARTESIAN_POINT('', (30., 35., 30.));
#99 = ORIENTED_EDGE('', *, *, #100, .F.);
#100 = EDGE_CURVE('', #24, #94, #101, .T.);
#101 = B_SPLINE_CURVE_WITH_KNOTS('', 1, (#102, #103), .UNSPECIFIED., .F., .U., (2, 2), (0., 30.), .UNSPECIFIED.);
#102 = CARTESIAN_POINT('', (30., 5., -30.));
#103 = CARTESIAN_POINT('', (30., 35., -30.));
#104 = ORIENTED_EDGE('', *, *, #23, .T.);
#105 = ORIENTED_EDGE('', *, *, #106, .T.);
#106 = EDGE_CURVE('', #17, #72, #107, .T.);
#107 = B_SPLINE_CURVE_WITH_KNOTS('', 1, (#108, #109), .UNSPECIFIED., .F., .U., (2, 2), (0., 1.), .UNSPECIFIED.);
#108 = CARTESIAN_POINT('', (30., 5., -20.));
#109 = CARTESIAN_POINT('', (30., 30., -20.));
#110 = B_SPLINE_SURFACE_WITH_KNOTS('', 1, 1, ((#111, #112), (#113, #114)), .UNSPECIFIED., .F., .F., .U., (2, 2), (2, 2), (0., 60.), (0., 30.), .UNSPECIFIED.);
#111 = CARTESIAN_POINT('', (30., 5., -30.));
#112 = CARTESIAN_POINT('', (30., 35., -30.));
#113 = CARTESIAN_POINT('', (30., 5., 30.));
#114 = CARTESIAN_POINT('', (30., 35., 30.));
#115 = ADVANCED_FACE('', (#116), #132, .T.);
#116 = FACE_OUTER_BOUND('', #117, .T.);
#117 = EDGE_LOOP('', (#118, #119, #120, #127));
#118 = ORIENTED_EDGE('', *, *, #86, .F.);
#119 = ORIENTED_EDGE('', *, *, #44, .T.);
#120 = ORIENTED_EDGE('', *, *, #121, .T.);
#121 = EDGE_CURVE('', #38, #122, #124, .T.);
#122 = VERTEX_POINT('', #123);
#123 = CARTESIAN_POINT('', (70., 35., 30.));
#124 = B_SPLINE_CURVE_WITH_KNOTS('', 1, (#125, #126), .UNSPECIFIED., .F., .U., (2, 2), (0., 30.), .UNSPECIFIED.);
#125 = CARTESIAN_POINT('', (70., 5., 30.));
#126 = CARTESIAN_POINT('', (70., 35., 30.));
#127 = ORIENTED_EDGE('', *, *, #128, .F.);
#128 = EDGE_CURVE('', #87, #122, #129, .T.);
#129 = B_SPLINE_CURVE_WITH_KNOTS('', 1, (#130, #131), .UNSPECIFIED., .F., .U., (2, 2), (0., 40.), .UNSPECIFIED.);
#130 = CARTESIAN_POINT('', (30., 35., 30.));
#131 = CARTESIAN_POINT('', (70., 35., 30.));
#132 = B_SPLINE_SURFACE_WITH_KNOTS('', 1, 1, ((#133, #134), (#135, #136)), .UNSPECIFIED., .F., .F., .U., (2, 2), (2, 2), (0., 40.), (0., 30.), .UNSPECIFIED.);
#133 = CARTESIAN_POINT('', (30., 5., 30.));
#134 = CARTESIAN_POINT('', (30., 35., 30.));
#135 = CARTESIAN_POINT('', (70., 5., 30.));
#136 = CARTESIAN_POINT('', (70., 35., 30.));
#137 = ADVANCED_FACE('', (#138), #154, .T.);
#138 = FACE_OUTER_BOUND('', #139, .T.);
#139 = EDGE_LOOP('', (#140, #141, #148, #153));
#140 = ORIENTED_EDGE('', *, *, #37, .F.);
#141 = ORIENTED_EDGE('', *, *, #142, .T.);
#142 = EDGE_CURVE('', #31, #143, #145, .T.);
#143 = VERTEX_POINT('', #144);
#144 = CARTESIAN_POINT('', (70., 35., -30.));
#145 = B_SPLINE_CURVE_WITH_KNOTS('', 1, (#146, #147), .UNSPECIFIED., .F., .U., (2, 2), (0., 30.), .UNSPECIFIED.);
#146 = CARTESIAN_POINT('', (70., 5., -30.));
#147 = CARTESIAN_POINT('', (70., 35., -30.));
#148 = ORIENTED_EDGE('', *, *, #149, .T.);
#149 = EDGE_CURVE('', #143, #122, #150, .T.);
#150 = B_SPLINE_CURVE_WITH_KNOTS('', 1, (#151, #152), .UNSPECIFIED., .F., .U., (2, 2), (0., 60.), .UNSPECIFIED.);
#151 = CARTESIAN_POINT('', (70., 35., -30.));
#152 = CARTESIAN_POINT('', (70., 35., 30.));
#153 = ORIENTED_EDGE('', *, *, #121, .F.);
#154 = B_SPLINE_SURFACE_WITH_KNOTS('', 1, 1, ((#155, #156), (#157, #158)), .UNSPECIFIED., .F., .F., .U., (2, 2), (2, 2), (0., 30.), (0., 60.), .UNSPECIFIED.);
#155 = CARTESIAN_POINT('', (70., 5., -30.));
#156 = CARTESIAN_POINT('', (70., 5., 30.));
#157 = CARTESIAN_POINT('', (70., 35., -30.));
#158 = CARTESIAN_POINT('', (70., 35., 30.));
#159 = ADVANCED_FACE('', (#160), #170, .T.);
#160 = FACE_OUTER_BOUND('', #161, .T.);
#161 = EDGE_LOOP('', (#162, #163, #168, #169));
#162 = ORIENTED_EDGE('', *, *, #100, .T.);
#163 = ORIENTED_EDGE('', *, *, #164, .T.);
#164 = EDGE_CURVE('', #94, #143, #165, .T.);
#165 = B_SPLINE_CURVE_WITH_KNOTS('', 1, (#166, #167), .UNSPECIFIED., .F., .U., (2, 2), (0., 40.), .UNSPECIFIED.);
#166 = CARTESIAN_POINT('', (30., 35., -30.));
#167 = CARTESIAN_POINT('', (70., 35., -30.));
#168 = ORIENTED_EDGE('', *, *, #142, .F.);
#169 = ORIENTED_EDGE('', *, *, #30, .F.);
#170 = B_SPLINE_SURFACE_WITH_KNOTS('', 1, 1, ((#171, #172), (#173, #174)), .UNSPECIFIED., .F., .F., .U., (2, 2), (2, 2), (0., 30.), (0., 40.), .UNSPECIFIED.);
#171 = CARTESIAN_POINT('', (30., 5., -30.));
#172 = CARTESIAN_POINT('', (70., 5., -30.));
#173 = CARTESIAN_POINT('', (30., 35., -30.));
#174 = CARTESIAN_POINT('', (70., 35., -30.));
#175 = ADVANCED_FACE('', (#176), #182, .T.);
#176 = FACE_OUTER_BOUND('', #177, .T.);
#177 = EDGE_LOOP('', (#178, #179, #180, #181));
#178 = ORIENTED_EDGE('', *, *, #93, .T.);
#179 = ORIENTED_EDGE('', *, *, #128, .T.);
#180 = ORIENTED_EDGE('', *, *, #149, .F.);
#181 = ORIENTED_EDGE('', *, *, #164, .F.);
#182 = B_SPLINE_SURFACE_WITH_KNOTS('', 1, 1, ((#183, #184), (#185, #186)), .UNSPECIFIED., .F., .F., .U., (2, 2), (2, 2), (0., 60.), (0., 40.), .UNSPECIFIED.);
#183 = CARTESIAN_POINT('', (30., 35., -30.));
#184 = CARTESIAN_POINT('', (70., 35., -30.));
#185 = CARTESIAN_POINT('', (30., 35., 30.));
#186 = CARTESIAN_POINT('', (70., 35., 30.));
#187 = ADVANCED_FACE('', (#188), #218, .T.);
#188 = FACE_OUTER_BOUND('', #189, .T.);
#189 = EDGE_LOOP('', (#190, #199, #206, #213));
#190 = ORIENTED_EDGE('', *, *, #191, .F.);
#191 = EDGE_CURVE('', #192, #194, #196, .T.);
#192 = VERTEX_POINT('', #193);
#193 = CARTESIAN_POINT('', (-40., -30., -20.));
#194 = VERTEX_POINT('', #195);
#195 = CARTESIAN_POINT('', (-40., -30., 20.));
#196 = B_SPLINE_CURVE_WITH_KNOTS('', 1, (#197, #198), .UNSPECIFIED., .F., .U., (2, 2), (0., 40.), .UNSPECIFIED.);
#197 = CARTESIAN_POINT('', (-40., -30., -20.));
#198 = CARTESIAN_POINT('', (-40., -30., 20.));
#199 = ORIENTED_EDGE('', *, *, #200, .T.);
#200 = EDGE_CURVE('', #192, #201, #203, .T.);
#201 = VERTEX_POINT('', #202);
#202 = CARTESIAN_POINT('', (40., -30., -20.));
#203 = B_SPLINE_CURVE_WITH_KNOTS('', 1, (#204, #205), .UNSPECIFIED., .F., .U., (2, 2), (0., 80.), .UNSPECIFIED.);
#204 = CARTESIAN_POINT('', (-40., -30., -20.));
#205 = CARTESIAN_POINT('', (40., -30., -20.));
#206 = ORIENTED_EDGE('', *, *, #207, .T.);
#207 = EDGE_CURVE('', #201, #208, #210, .T.);
#208 = VERTEX_POINT('', #209);
#209 = CARTESIAN_POINT('', (40., -30., 20.));
#210 = B_SPLINE_CURVE_WITH_KNOTS('', 1, (#211, #212), .UNSPECIFIED., .F., .U., (2, 2), (0., 40.), .UNSPECIFIED.);
#211 = CARTESIAN_POINT('', (40., -30., -20.));
#212 = CARTESIAN_POINT('', (40., -30., 20.));
#213 = ORIENTED_EDGE('', *, *, #214, .F.);
#214 = EDGE_CURVE('', #194, #208, #215, .T.);
#215 = B_SPLINE_CURVE_WITH_KNOTS('', 1, (#216, #217), .UNSPECIFIED., .F., .U., (2, 2), (0., 80.), .UNSPECIFIED.);
#216 = CARTESIAN_POINT('', (-40., -30., 20.));
#217 = CARTESIAN_POINT('', (40., -30., 20.));
#218 = B_SPLINE_SURFACE_WITH_KNOTS('', 1, 1, ((#219, #220), (#221, #222)), .UNSPECIFIED., .F., .F., .U., (2, 2), (2, 2), (0., 80.), (0., 40.), .UNSPECIFIED.);
#219 = CARTESIAN_POINT('', (-40., -30., -20.));
#220 = CARTESIAN_POINT('', (-40., -30., 20.));
#221 = CARTESIAN_POINT('', (40., -30., -20.));
#222 = CARTESIAN_POINT('', (40., -30., 20.));
#223 = ADVANCED_FACE('', (#224), #246, .T.);
#224 = FACE_OUTER_BOUND('', #225, .T.);
#225 = EDGE_LOOP('', (#226, #227, #234, #241));
#226 = ORIENTED_EDGE('', *, *, #191, .T.);
#227 = ORIENTED_EDGE('', *, *, #228, .T.);
#228 = EDGE_CURVE('', #194, #229, #231, .T.);
#229 = VERTEX_POINT('', #230);
#230 = CARTESIAN_POINT('', (-40., 30., 20.));
#231 = B_SPLINE_CURVE_WITH_KNOTS('', 1, (#232, #233), .UNSPECIFIED., .F., .U., (2, 2), (0., 60.), .UNSPECIFIED.);
#232 = CARTESIAN_POINT('', (-40., -30., 20.));
#233 = CARTESIAN_POINT('', (-40., 30., 20.));
#234 = ORIENTED_EDGE('', *, *, #235, .F.);
#235 = EDGE_CURVE('', #236, #229, #238, .T.);
#236 = VERTEX_POINT('', #237);
#237 = CARTESIAN_POINT('', (-40., 30., -20.));
#238 = B_SPLINE_CURVE_WITH_KNOTS('', 1, (#239, #240), .UNSPECIFIED., .F., .U., (2, 2), (0., 40.), .UNSPECIFIED.);
#239 = CARTESIAN_POINT('', (-40., 30., -20.));
#240 = CARTESIAN_POINT('', (-40., 30., 20.));
#241 = ORIENTED_EDGE('', *, *, #242, .F.);
#242 = EDGE_CURVE('', #192, #236, #243, .T.);
#243 = B_SPLINE_CURVE_WITH_KNOTS('', 1, (#244, #245), .UNSPECIFIED., .F., .U., (2, 2), (0., 60.), .UNSPECIFIED.);
#244 = CARTESIAN_POINT('', (-40., -30., -20.));
#245 = CARTESIAN_POINT('', (-40., 30., -20.));
#246 = B_SPLINE_SURFACE_WITH_KNOTS('', 1, 1, ((#247, #248), (#249, #250)), .UNSPECIFIED., .F., .F., .U., (2, 2), (2, 2), (0., 40.), (0., 60.), .UNSPECIFIED.);
#247 = CARTESIAN_POINT('', (-40., -30., -20.));
#248 = CARTESIAN_POINT('', (-40., 30., -20.));
#249 = CARTESIAN_POINT('', (-40., -30., 20.));
#250 = CARTESIAN_POINT('', (-40., 30., 20.));
#251 = ADVANCED_FACE('', (#252), #268, .T.);
#252 = FACE_OUTER_BOUND('', #253, .T.);
#253 = EDGE_LOOP('', (#254, #255, #260, #261, #262, #267));
#254 = ORIENTED_EDGE('', *, *, #16, .F.);
#255 = ORIENTED_EDGE('', *, *, #256, .F.);
#256 = EDGE_CURVE('', #201, #10, #257, .T.);
#257 = B_SPLINE_CURVE_WITH_KNOTS('', 1, (#258, #259), .UNSPECIFIED., .F., .U., (2, 2), (0., 35.), .UNSPECIFIED.);
#258 = CARTESIAN_POINT('', (40., -30., -20.));
#259 = CARTESIAN_POINT('', (40., 5., -20.));
#260 = ORIENTED_EDGE('', *, *, #200, .F.);
#261 = ORIENTED_EDGE('', *, *, #242, .T.);
#262 = ORIENTED_EDGE('', *, *, #263, .T.);
#263 = EDGE_CURVE('', #236, #72, #264, .T.);
#264 = B_SPLINE_CURVE_WITH_KNOTS('', 1, (#265, #266), .UNSPECIFIED., .F., .U., (2, 2), (0., 70.), .UNSPECIFIED.);
#265 = CARTESIAN_POINT('', (-40., 30., -20.));
#266 = CARTESIAN_POINT('', (30., 30., -20.));
#267 = ORIENTED_EDGE('', *, *, #106, .F.);
#268 = B_SPLINE_SURFACE_WITH_KNOTS('', 1, 1, ((#269, #270), (#271, #272)), .UNSPECIFIED., .F., .F., .U., (2, 2), (2, 2), (0., 60.), (0., 80.), .UNSPECIFIED.);
#269 = CARTESIAN_POINT('', (-40., -30., -20.));
#270 = CARTESIAN_POINT('', (40., -30., -20.));
#271 = CARTESIAN_POINT('', (-40., 30., -20.));
#272 = CARTESIAN_POINT('', (40., 30., -20.));
#273 = ADVANCED_FACE('', (#274), #290, .T.);
#274 = FACE_OUTER_BOUND('', #275, .T.);
#275 = EDGE_LOOP('', (#276, #277, #278, #283, #284, #285));
#276 = ORIENTED_EDGE('', *, *, #58, .F.);
#277 = ORIENTED_EDGE('', *, *, #80, .F.);
#278 = ORIENTED_EDGE('', *, *, #279, .F.);
#279 = EDGE_CURVE('', #229, #74, #280, .T.);
#280 = B_SPLINE_CURVE_WITH_KNOTS('', 1, (#281, #282), .UNSPECIFIED., .F., .U., (2, 2), (0., 70.), .UNSPECIFIED.);
#281 = CARTESIAN_POINT('', (-40., 30., 20.));
#282 = CARTESIAN_POINT('', (30., 30., 20.));
#283 = ORIENTED_EDGE('', *, *, #228, .F.);
#284 = ORIENTED_EDGE('', *, *, #214, .T.);
#285 = ORIENTED_EDGE('', *, *, #286, .T.);
#286 = EDGE_CURVE('', #208, #8, #287, .T.);
#287 = B_SPLINE_CURVE_WITH_KNOTS('', 1, (#288, #289), .UNSPECIFIED., .F., .U., (2, 2), (0., 35.), .UNSPECIFIED.);
#288 = CARTESIAN_POINT('', (40., -30., 20.));
#289 = CARTESIAN_POINT('', (40., 5., 20.));
#290 = B_SPLINE_SURFACE_WITH_KNOTS('', 1, 1, ((#291, #292), (#293, #294)), .UNSPECIFIED., .F., .F., .U., (2, 2), (2, 2), (0., 80.), (0., 60.), .UNSPECIFIED.);
#291 = CARTESIAN_POINT('', (-40., -30., 20.));
#292 = CARTESIAN_POINT('', (-40., 30., 20.));
#293 = CARTESIAN_POINT('', (40., -30., 20.));
#294 = CARTESIAN_POINT('', (40., 30., 20.));
#295 = ADVANCED_FACE('', (#296), #302, .T.);
#296 = FACE_OUTER_BOUND('', #297, .T.);
#297 = EDGE_LOOP('', (#298, #299, #300, #301));
#298 = ORIENTED_EDGE('', *, *, #7, .F.);
#299 = ORIENTED_EDGE('', *, *, #286, .F.);
#300 = ORIENTED_EDGE('', *, *, #207, .F.);
#301 = ORIENTED_EDGE('', *, *, #256, .T.);
#302 = B_SPLINE_SURFACE_WITH_KNOTS('', 1, 1, ((#303, #304), (#305, #306)), .UNSPECIFIED., .F., .F., .U., (2, 2), (2, 2), (0., 60.), (0., 40.), .UNSPECIFIED.);
#303 = CARTESIAN_POINT('', (40., -30., -20.));
#304 = CARTESIAN_POINT('', (40., -30., 20.));
#305 = CARTESIAN_POINT('', (40., 30., -20.));
#306 = CARTESIAN_POINT('', (40., 30., 20.));
#307 = ADVANCED_FACE('', (#308), #314, .T.);
#308 = FACE_OUTER_BOUND('', #309, .T.);
#309 = EDGE_LOOP('', (#310, #311, #312, #313));
#310 = ORIENTED_EDGE('', *, *, #71, .F.);
#311 = ORIENTED_EDGE('', *, *, #263, .F.);
#312 = ORIENTED_EDGE('', *, *, #235, .T.);
#313 = ORIENTED_EDGE('', *, *, #279, .T.);
#314 = B_SPLINE_SURFACE_WITH_KNOTS('', 1, 1, ((#315, #316), (#317, #318)), .UNSPECIFIED., .F., .F., .U., (2, 2), (2, 2), (0., 40.), (0., 80.), .UNSPECIFIED.);
#315 = CARTESIAN_POINT('', (-40., 30., -20.));
#316 = CARTESIAN_POINT('', (40., 30., -20.));
#317 = CARTESIAN_POINT('', (-40., 30., 20.));
#318 = CARTESIAN_POINT('', (40., 30., 20.));
#319 = DRAUGHTING_MODEL('', (#327, #519, #665, #948), #951);
#320 = PRESENTATION_STYLE_ASSIGNMENT((#321));
#321 = SURFACE_STYLE_USAGE(.POSITIVE., #322);
#322 = SURFACE_SIDE_STYLE('', (#323));
#323 = SURFACE_STYLE_FILL_AREA(#324);
#324 = FILL_AREA_STYLE('', (#325));
#325 = FILL_AREA_STYLE_COLOUR('', #326);
#326 = COLOUR_RGB('', 0.50196078431373, 0.50196078431373, 0.50196078431373);
#327 = STYLED_ITEM('', (#320), #1);
#328 = MANIFOLD_SOLID_BREP('Solid0', #329);
#329 = CLOSED_SHELL('', (#330, #366, #402, #424, #446, #470, #486));
#330 = ADVANCED_FACE('', (#331), #361, .T.);
#331 = FACE_OUTER_BOUND('', #332, .T.);
#332 = EDGE_LOOP('', (#333, #342, #349, #356));
#333 = ORIENTED_EDGE('', *, *, #334, .F.);
#334 = EDGE_CURVE('', #335, #337, #339, .T.);
#335 = VERTEX_POINT('', #336);
#336 = CARTESIAN_POINT('', (-40., -30., -20.));
#337 = VERTEX_POINT('', #338);
#338 = CARTESIAN_POINT('', (-40., -30., 20.));
#339 = B_SPLINE_CURVE_WITH_KNOTS('', 1, (#340, #341), .UNSPECIFIED., .F., .U., (2, 2), (0., 40.), .UNSPECIFIED.);
#340 = CARTESIAN_POINT('', (-40., -30., -20.));
#341 = CARTESIAN_POINT('', (-40., -30., 20.));
#342 = ORIENTED_EDGE('', *, *, #343, .T.);
#343 = EDGE_CURVE('', #335, #344, #346, .T.);
#344 = VERTEX_POINT('', #345);
#345 = CARTESIAN_POINT('', (40., -30., -20.));
#346 = B_SPLINE_CURVE_WITH_KNOTS('', 1, (#347, #348), .UNSPECIFIED., .F., .U., (2, 2), (0., 80.), .UNSPECIFIED.);
#347 = CARTESIAN_POINT('', (-40., -30., -20.));
#348 = CARTESIAN_POINT('', (40., -30., -20.));
#349 = ORIENTED_EDGE('', *, *, #350, .T.);
#350 = EDGE_CURVE('', #344, #351, #353, .T.);
#351 = VERTEX_POINT('', #352);
#352 = CARTESIAN_POINT('', (40., -30., 20.));
#353 = B_SPLINE_CURVE_WITH_KNOTS('', 1, (#354, #355), .UNSPECIFIED., .F., .U., (2, 2), (0., 40.), .UNSPECIFIED.);
#354 = CARTESIAN_POINT('', (40., -30., -20.));
#355 = CARTESIAN_POINT('', (40., -30., 20.));
#356 = ORIENTED_EDGE('', *, *, #357, .F.);
#357 = EDGE_CURVE('', #337, #351, #358, .T.);
#358 = B_SPLINE_CURVE_WITH_KNOTS('', 1, (#359, #360), .UNSPECIFIED., .F., .U., (2, 2), (0., 80.), .UNSPECIFIED.);
#359 = CARTESIAN_POINT('', (-40., -30., 20.));
#360 = CARTESIAN_POINT('', (40., -30., 20.));
#361 = B_SPLINE_SURFACE_WITH_KNOTS('', 1, 1, ((#362, #363), (#364, #365)), .UNSPECIFIED., .F., .F., .U., (2, 2), (2, 2), (0., 80.), (0., 40.), .UNSPECIFIED.);
#362 = CARTESIAN_POINT('', (-40., -30., -20.));
#363 = CARTESIAN_POINT('', (-40., -30., 20.));
#364 = CARTESIAN_POINT('', (40., -30., -20.));
#365 = CARTESIAN_POINT('', (40., -30., 20.));
#366 = ADVANCED_FACE('', (#367), #397, .T.);
#367 = FACE_OUTER_BOUND('', #368, .T.);
#368 = EDGE_LOOP('', (#369, #379, #384, #385, #392));
#369 = ORIENTED_EDGE('', *, *, #370, .T.);
#370 = EDGE_CURVE('', #371, #373, #375, .T.);
#371 = VERTEX_POINT('', #372);
#372 = CARTESIAN_POINT('', (30., 30., -20.));
#373 = VERTEX_POINT('', #374);
#374 = CARTESIAN_POINT('', (40., 20., -20.));
#375 = (
   BOUNDED_CURVE ()
   B_SPLINE_CURVE (2, (#376, #377, #378), .UNSPECIFIED., .F., .U.)
   B_SPLINE_CURVE_WITH_KNOTS ((3, 3), (0., 1.), .UNSPECIFIED.)
   CURVE ()
   GEOMETRIC_REPRESENTATION_ITEM ()
   RATIONAL_B_SPLINE_CURVE ((1., 0.707106781186548, 1.))
   REPRESENTATION_ITEM ('')
);
#376 = CARTESIAN_POINT('', (30., 30., -20.));
#377 = CARTESIAN_POINT('', (30., 20., -20.));
#378 = CARTESIAN_POINT('', (40., 20., -20.));
#379 = ORIENTED_EDGE('', *, *, #380, .F.);
#380 = EDGE_CURVE('', #344, #373, #381, .T.);
#381 = B_SPLINE_CURVE_WITH_KNOTS('', 1, (#382, #383), .UNSPECIFIED., .F., .U., (2, 2), (0., 50.), .UNSPECIFIED.);
#382 = CARTESIAN_POINT('', (40., -30., -20.));
#383 = CARTESIAN_POINT('', (40., 20., -20.));
#384 = ORIENTED_EDGE('', *, *, #343, .F.);
#385 = ORIENTED_EDGE('', *, *, #386, .T.);
#386 = EDGE_CURVE('', #335, #387, #389, .T.);
#387 = VERTEX_POINT('', #388);
#388 = CARTESIAN_POINT('', (-40., 30., -20.));
#389 = B_SPLINE_CURVE_WITH_KNOTS('', 1, (#390, #391), .UNSPECIFIED., .F., .U., (2, 2), (0., 60.), .UNSPECIFIED.);
#390 = CARTESIAN_POINT('', (-40., -30., -20.));
#391 = CARTESIAN_POINT('', (-40., 30., -20.));
#392 = ORIENTED_EDGE('', *, *, #393, .T.);
#393 = EDGE_CURVE('', #387, #371, #394, .T.);
#394 = B_SPLINE_CURVE_WITH_KNOTS('', 1, (#395, #396), .UNSPECIFIED., .F., .U., (2, 2), (0., 70.), .UNSPECIFIED.);
#395 = CARTESIAN_POINT('', (-40., 30., -20.));
#396 = CARTESIAN_POINT('', (30., 30., -20.));
#397 = B_SPLINE_SURFACE_WITH_KNOTS('', 1, 1, ((#398, #399), (#400, #401)), .UNSPECIFIED., .F., .F., .U., (2, 2), (2, 2), (0., 60.), (0., 80.), .UNSPECIFIED.);
#398 = CARTESIAN_POINT('', (-40., -30., -20.));
#399 = CARTESIAN_POINT('', (40., -30., -20.));
#400 = CARTESIAN_POINT('', (-40., 30., -20.));
#401 = CARTESIAN_POINT('', (40., 30., -20.));
#402 = ADVANCED_FACE('', (#403), #419, .T.);
#403 = FACE_OUTER_BOUND('', #404, .T.);
#404 = EDGE_LOOP('', (#405, #412, #417, #418));
#405 = ORIENTED_EDGE('', *, *, #406, .T.);
#406 = EDGE_CURVE('', #373, #407, #409, .T.);
#407 = VERTEX_POINT('', #408);
#408 = CARTESIAN_POINT('', (40., 20., 20.));
#409 = B_SPLINE_CURVE_WITH_KNOTS('', 1, (#410, #411), .UNSPECIFIED., .F., .U., (2, 2), (0., 1.), .UNSPECIFIED.);
#410 = CARTESIAN_POINT('', (40., 20., -20.));
#411 = CARTESIAN_POINT('', (40., 20., 20.));
#412 = ORIENTED_EDGE('', *, *, #413, .F.);
#413 = EDGE_CURVE('', #351, #407, #414, .T.);
#414 = B_SPLINE_CURVE_WITH_KNOTS('', 1, (#415, #416), .UNSPECIFIED., .F., .U., (2, 2), (0., 50.), .UNSPECIFIED.);
#415 = CARTESIAN_POINT('', (40., -30., 20.));
#416 = CARTESIAN_POINT('', (40., 20., 20.));
#417 = ORIENTED_EDGE('', *, *, #350, .F.);
#418 = ORIENTED_EDGE('', *, *, #380, .T.);
#419 = B_SPLINE_SURFACE_WITH_KNOTS('', 1, 1, ((#420, #421), (#422, #423)), .UNSPECIFIED., .F., .F., .U., (2, 2), (2, 2), (0., 60.), (0., 40.), .UNSPECIFIED.);
#420 = CARTESIAN_POINT('', (40., -30., -20.));
#421 = CARTESIAN_POINT('', (40., -30., 20.));
#422 = CARTESIAN_POINT('', (40., 30., -20.));
#423 = CARTESIAN_POINT('', (40., 30., 20.));
#424 = ADVANCED_FACE('', (#425), #441, .T.);
#425 = FACE_OUTER_BOUND('', #426, .T.);
#426 = EDGE_LOOP('', (#427, #428, #435, #440));
#427 = ORIENTED_EDGE('', *, *, #334, .T.);
#428 = ORIENTED_EDGE('', *, *, #429, .T.);
#429 = EDGE_CURVE('', #337, #430, #432, .T.);
#430 = VERTEX_POINT('', #431);
#431 = CARTESIAN_POINT('', (-40., 30., 20.));
#432 = B_SPLINE_CURVE_WITH_KNOTS('', 1, (#433, #434), .UNSPECIFIED., .F., .U., (2, 2), (0., 60.), .UNSPECIFIED.);
#433 = CARTESIAN_POINT('', (-40., -30., 20.));
#434 = CARTESIAN_POINT('', (-40., 30., 20.));
#435 = ORIENTED_EDGE('', *, *, #436, .F.);
#436 = EDGE_CURVE('', #387, #430, #437, .T.);
#437 = B_SPLINE_CURVE_WITH_KNOTS('', 1, (#438, #439), .UNSPECIFIED., .F., .U., (2, 2), (0., 40.), .UNSPECIFIED.);
#438 = CARTESIAN_POINT('', (-40., 30., -20.));
#439 = CARTESIAN_POINT('', (-40., 30., 20.));
#440 = ORIENTED_EDGE('', *, *, #386, .F.);
#441 = B_SPLINE_SURFACE_WITH_KNOTS('', 1, 1, ((#442, #443), (#444, #445)), .UNSPECIFIED., .F., .F., .U., (2, 2), (2, 2), (0., 40.), (0., 60.), .UNSPECIFIED.);
#442 = CARTESIAN_POINT('', (-40., -30., -20.));
#443 = CARTESIAN_POINT('', (-40., 30., -20.));
#444 = CARTESIAN_POINT('', (-40., -30., 20.));
#445 = CARTESIAN_POINT('', (-40., 30., 20.));
#446 = ADVANCED_FACE('', (#447), #465, .T.);
#447 = FACE_OUTER_BOUND('', #448, .T.);
#448 = EDGE_LOOP('', (#449, #457, #462, #463, #464));
#449 = ORIENTED_EDGE('', *, *, #450, .F.);
#450 = EDGE_CURVE('', #451, #407, #453, .T.);
#451 = VERTEX_POINT('', #452);
#452 = CARTESIAN_POINT('', (30., 30., 20.));
#453 = (
   BOUNDED_CURVE ()
   B_SPLINE_CURVE (2, (#454, #455, #456), .UNSPECIFIED., .F., .U.)
   B_SPLINE_CURVE_WITH_KNOTS ((3, 3), (0., 1.), .UNSPECIFIED.)
   CURVE ()
   GEOMETRIC_REPRESENTATION_ITEM ()
   RATIONAL_B_SPLINE_CURVE ((1., 0.707106781186548, 1.))
   REPRESENTATION_ITEM ('')
);
#454 = CARTESIAN_POINT('', (30., 30., 20.));
#455 = CARTESIAN_POINT('', (30., 20., 20.));
#456 = CARTESIAN_POINT('', (40., 20., 20.));
#457 = ORIENTED_EDGE('', *, *, #458, .F.);
#458 = EDGE_CURVE('', #430, #451, #459, .T.);
#459 = B_SPLINE_CURVE_WITH_KNOTS('', 1, (#460, #461), .UNSPECIFIED., .F., .U., (2, 2), (0., 70.), .UNSPECIFIED.);
#460 = CARTESIAN_POINT('', (-40., 30., 20.));
#461 = CARTESIAN_POINT('', (30., 30., 20.));
#462 = ORIENTED_EDGE('', *, *, #429, .F.);
#463 = ORIENTED_EDGE('', *, *, #357, .T.);
#464 = ORIENTED_EDGE('', *, *, #413, .T.);
#465 = B_SPLINE_SURFACE_WITH_KNOTS('', 1, 1, ((#466, #467), (#468, #469)), .UNSPECIFIED., .F., .F., .U., (2, 2), (2, 2), (0., 80.), (0., 60.), .UNSPECIFIED.);
#466 = CARTESIAN_POINT('', (-40., -30., 20.));
#467 = CARTESIAN_POINT('', (-40., 30., 20.));
#468 = CARTESIAN_POINT('', (40., -30., 20.));
#469 = CARTESIAN_POINT('', (40., 30., 20.));
#470 = ADVANCED_FACE('', (#471), #481, .T.);
#471 = FACE_OUTER_BOUND('', #472, .T.);
#472 = EDGE_LOOP('', (#473, #478, #479, #480));
#473 = ORIENTED_EDGE('', *, *, #474, .F.);
#474 = EDGE_CURVE('', #371, #451, #475, .T.);
#475 = B_SPLINE_CURVE_WITH_KNOTS('', 1, (#476, #477), .UNSPECIFIED., .F., .U., (2, 2), (0., 1.), .UNSPECIFIED.);
#476 = CARTESIAN_POINT('', (30., 30., -20.));
#477 = CARTESIAN_POINT('', (30., 30., 20.));
#478 = ORIENTED_EDGE('', *, *, #393, .F.);
#479 = ORIENTED_EDGE('', *, *, #436, .T.);
#480 = ORIENTED_EDGE('', *, *, #458, .T.);
#481 = B_SPLINE_SURFACE_WITH_KNOTS('', 1, 1, ((#482, #483), (#484, #485)), .UNSPECIFIED., .F., .F., .U., (2, 2), (2, 2), (0., 40.), (0., 80.), .UNSPECIFIED.);
#482 = CARTESIAN_POINT('', (-40., 30., -20.));
#483 = CARTESIAN_POINT('', (40., 30., -20.));
#484 = CARTESIAN_POINT('', (-40., 30., 20.));
#485 = CARTESIAN_POINT('', (40., 30., 20.));
#486 = ADVANCED_FACE('', (#487), #493, .F.);
#487 = FACE_OUTER_BOUND('', #488, .F.);
#488 = EDGE_LOOP('', (#489, #490, #491, #492));
#489 = ORIENTED_EDGE('', *, *, #474, .F.);
#490 = ORIENTED_EDGE('', *, *, #370, .T.);
#491 = ORIENTED_EDGE('', *, *, #406, .T.);
#492 = ORIENTED_EDGE('', *, *, #450, .F.);
#493 = (
   BOUNDED_SURFACE ()
   B_SPLINE_SURFACE (2, 1, ((#494, #495), (#496, #497), (#498, #499), (#500, #501), (#502, #503), (#504, #505), (#506, #507), (#508, #509), (#510, #511)), .UNSPECIFIED., .T., .F., .U.)
   B_SPLINE_SURFACE_WITH_KNOTS ((3, 2, 2, 2, 3), (2, 2), (0., 15.707963267949, 31.4159265358979, 47.1238898038469, 62.8318530717959), (0., 60.), .UNSPECIFIED.)
   GEOMETRIC_REPRESENTATION_ITEM ()
   RATIONAL_B_SPLINE_SURFACE (((1., 1.), (0.707106781186548, 0.707106781186548), (1., 1.), (0.707106781186548, 0.707106781186548), (1., 1.), (0.707106781186548, 0.707106781186548), (1., 1.), (0.707106781186548, 0.707106781186548), (1., 1.)))
   REPRESENTATION_ITEM ('')
   SURFACE ()
);
#494 = CARTESIAN_POINT('', (50., 30., -40.));
#495 = CARTESIAN_POINT('', (50., 30., 20.));
#496 = CARTESIAN_POINT('', (50., 40., -40.));
#497 = CARTESIAN_POINT('', (50., 40., 20.));
#498 = CARTESIAN_POINT('', (40., 40., -40.));
#499 = CARTESIAN_POINT('', (40., 40., 20.));
#500 = CARTESIAN_POINT('', (30., 40., -40.));
#501 = CARTESIAN_POINT('', (30., 40., 20.));
#502 = CARTESIAN_POINT('', (30., 30., -40.));
#503 = CARTESIAN_POINT('', (30., 30., 20.));
#504 = CARTESIAN_POINT('', (30., 20., -40.));
#505 = CARTESIAN_POINT('', (30., 20., 20.));
#506 = CARTESIAN_POINT('', (40., 20., -40.));
#507 = CARTESIAN_POINT('', (40., 20., 20.));
#508 = CARTESIAN_POINT('', (50., 20., -40.));
#509 = CARTESIAN_POINT('', (50., 20., 20.));
#510 = CARTESIAN_POINT('', (50., 30., -40.));
#511 = CARTESIAN_POINT('', (50., 30., 20.));
#512 = PRESENTATION_STYLE_ASSIGNMENT((#513));
#513 = SURFACE_STYLE_USAGE(.POSITIVE., #514);
#514 = SURFACE_SIDE_STYLE('', (#515));
#515 = SURFACE_STYLE_FILL_AREA(#516);
#516 = FILL_AREA_STYLE('', (#517));
#517 = FILL_AREA_STYLE_COLOUR('', #518);
#518 = COLOUR_RGB('', 0.50196078431373, 0.50196078431373, 0.50196078431373);
#519 = STYLED_ITEM('', (#512), #328);
#520 = MANIFOLD_SOLID_BREP('Solid1', #521);
#521 = CLOSED_SHELL('', (#522, #558, #586, #608, #630, #646));
#522 = ADVANCED_FACE('', (#523), #553, .T.);
#523 = FACE_OUTER_BOUND('', #524, .T.);
#524 = EDGE_LOOP('', (#525, #534, #541, #548));
#525 = ORIENTED_EDGE('', *, *, #526, .F.);
#526 = EDGE_CURVE('', #527, #529, #531, .T.);
#527 = VERTEX_POINT('', #528);
#528 = CARTESIAN_POINT('', (40., -5., 20.));
#529 = VERTEX_POINT('', #530);
#530 = CARTESIAN_POINT('', (40., -5., -20.));
#531 = B_SPLINE_CURVE_WITH_KNOTS('', 1, (#532, #533), .UNSPECIFIED., .F., .U., (2, 2), (0., 1.), .UNSPECIFIED.);
#532 = CARTESIAN_POINT('', (40., -5., 20.));
#533 = CARTESIAN_POINT('', (40., -5., -20.));
#534 = ORIENTED_EDGE('', *, *, #535, .F.);
#535 = EDGE_CURVE('', #536, #527, #538, .T.);
#536 = VERTEX_POINT('', #537);
#537 = CARTESIAN_POINT('', (0., -5., 20.));
#538 = B_SPLINE_CURVE_WITH_KNOTS('', 1, (#539, #540), .UNSPECIFIED., .F., .U., (2, 2), (0., 40.), .UNSPECIFIED.);
#539 = CARTESIAN_POINT('', (0., -5., 20.));
#540 = CARTESIAN_POINT('', (40., -5., 20.));
#541 = ORIENTED_EDGE('', *, *, #542, .F.);
#542 = EDGE_CURVE('', #543, #536, #545, .T.);
#543 = VERTEX_POINT('', #544);
#544 = CARTESIAN_POINT('', (0., -5., -20.));
#545 = B_SPLINE_CURVE_WITH_KNOTS('', 1, (#546, #547), .UNSPECIFIED., .F., .U., (2, 2), (20., 60.), .UNSPECIFIED.);
#546 = CARTESIAN_POINT('', (0., -5., -20.));
#547 = CARTESIAN_POINT('', (0., -5., 20.));
#548 = ORIENTED_EDGE('', *, *, #549, .F.);
#549 = EDGE_CURVE('', #529, #543, #550, .T.);
#550 = B_SPLINE_CURVE_WITH_KNOTS('', 1, (#551, #552), .UNSPECIFIED., .F., .U., (2, 2), (0., 1.), .UNSPECIFIED.);
#551 = CARTESIAN_POINT('', (40., -5., -20.));
#552 = CARTESIAN_POINT('', (0., -5., -20.));
#553 = B_SPLINE_SURFACE_WITH_KNOTS('', 1, 1, ((#554, #555), (#556, #557)), .UNSPECIFIED., .F., .F., .U., (2, 2), (2, 2), (0., 60.), (0., 60.), .UNSPECIFIED.);
#554 = CARTESIAN_POINT('', (0., -5., -40.));
#555 = CARTESIAN_POINT('', (0., -5., 20.));
#556 = CARTESIAN_POINT('', (60., -5., -40.));
#557 = CARTESIAN_POINT('', (60., -5., 20.));
#558 = ADVANCED_FACE('', (#559), #581, .T.);
#559 = FACE_OUTER_BOUND('', #560, .T.);
#560 = EDGE_LOOP('', (#561, #562, #569, #576));
#561 = ORIENTED_EDGE('', *, *, #535, .T.);
#562 = ORIENTED_EDGE('', *, *, #563, .T.);
#563 = EDGE_CURVE('', #527, #564, #566, .T.);
#564 = VERTEX_POINT('', #565);
#565 = CARTESIAN_POINT('', (40., 30., 20.));
#566 = B_SPLINE_CURVE_WITH_KNOTS('', 1, (#567, #568), .UNSPECIFIED., .F., .U., (2, 2), (25., 60.), .UNSPECIFIED.);
#567 = CARTESIAN_POINT('', (40., -5., 20.));
#568 = CARTESIAN_POINT('', (40., 30., 20.));
#569 = ORIENTED_EDGE('', *, *, #570, .F.);
#570 = EDGE_CURVE('', #571, #564, #573, .T.);
#571 = VERTEX_POINT('', #572);
#572 = CARTESIAN_POINT('', (0., 30., 20.));
#573 = B_SPLINE_CURVE_WITH_KNOTS('', 1, (#574, #575), .UNSPECIFIED., .F., .U., (2, 2), (40., 80.), .UNSPECIFIED.);
#574 = CARTESIAN_POINT('', (0., 30., 20.));
#575 = CARTESIAN_POINT('', (40., 30., 20.));
#576 = ORIENTED_EDGE('', *, *, #577, .F.);
#577 = EDGE_CURVE('', #536, #571, #578, .T.);
#578 = B_SPLINE_CURVE_WITH_KNOTS('', 1, (#579, #580), .UNSPECIFIED., .F., .U., (2, 2), (0., 35.), .UNSPECIFIED.);
#579 = CARTESIAN_POINT('', (0., -5., 20.));
#580 = CARTESIAN_POINT('', (0., 30., 20.));
#581 = B_SPLINE_SURFACE_WITH_KNOTS('', 1, 1, ((#582, #583), (#584, #585)), .UNSPECIFIED., .F., .F., .U., (2, 2), (2, 2), (0., 80.), (0., 60.), .UNSPECIFIED.);
#582 = CARTESIAN_POINT('', (-40., -30., 20.));
#583 = CARTESIAN_POINT('', (-40., 30., 20.));
#584 = CARTESIAN_POINT('', (40., -30., 20.));
#585 = CARTESIAN_POINT('', (40., 30., 20.));
#586 = ADVANCED_FACE('', (#587), #603, .T.);
#587 = FACE_OUTER_BOUND('', #588, .T.);
#588 = EDGE_LOOP('', (#589, #590, #597, #602));
#589 = ORIENTED_EDGE('', *, *, #526, .T.);
#590 = ORIENTED_EDGE('', *, *, #591, .T.);
#591 = EDGE_CURVE('', #529, #592, #594, .T.);
#592 = VERTEX_POINT('', #593);
#593 = CARTESIAN_POINT('', (40., 30., -20.));
#594 = B_SPLINE_CURVE_WITH_KNOTS('', 1, (#595, #596), .UNSPECIFIED., .F., .U., (2, 2), (25., 60.), .UNSPECIFIED.);
#595 = CARTESIAN_POINT('', (40., -5., -20.));
#596 = CARTESIAN_POINT('', (40., 30., -20.));
#597 = ORIENTED_EDGE('', *, *, #598, .T.);
#598 = EDGE_CURVE('', #592, #564, #599, .T.);
#599 = B_SPLINE_CURVE_WITH_KNOTS('', 1, (#600, #601), .UNSPECIFIED., .F., .U., (2, 2), (0., 40.), .UNSPECIFIED.);
#600 = CARTESIAN_POINT('', (40., 30., -20.));
#601 = CARTESIAN_POINT('', (40., 30., 20.));
#602 = ORIENTED_EDGE('', *, *, #563, .F.);
#603 = B_SPLINE_SURFACE_WITH_KNOTS('', 1, 1, ((#604, #605), (#606, #607)), .UNSPECIFIED., .F., .F., .U., (2, 2), (2, 2), (0., 60.), (0., 40.), .UNSPECIFIED.);
#604 = CARTESIAN_POINT('', (40., -30., -20.));
#605 = CARTESIAN_POINT('', (40., -30., 20.));
#606 = CARTESIAN_POINT('', (40., 30., -20.));
#607 = CARTESIAN_POINT('', (40., 30., 20.));
#608 = ADVANCED_FACE('', (#609), #625, .T.);
#609 = FACE_OUTER_BOUND('', #610, .T.);
#610 = EDGE_LOOP('', (#611, #612, #619, #624));
#611 = ORIENTED_EDGE('', *, *, #549, .T.);
#612 = ORIENTED_EDGE('', *, *, #613, .T.);
#613 = EDGE_CURVE('', #543, #614, #616, .T.);
#614 = VERTEX_POINT('', #615);
#615 = CARTESIAN_POINT('', (0., 30., -20.));
#616 = B_SPLINE_CURVE_WITH_KNOTS('', 1, (#617, #618), .UNSPECIFIED., .F., .U., (2, 2), (0., 1.), .UNSPECIFIED.);
#617 = CARTESIAN_POINT('', (0., -5., -20.));
#618 = CARTESIAN_POINT('', (0., 30., -20.));
#619 = ORIENTED_EDGE('', *, *, #620, .T.);
#620 = EDGE_CURVE('', #614, #592, #621, .T.);
#621 = B_SPLINE_CURVE_WITH_KNOTS('', 1, (#622, #623), .UNSPECIFIED., .F., .U., (2, 2), (40., 80.), .UNSPECIFIED.);
#622 = CARTESIAN_POINT('', (0., 30., -20.));
#623 = CARTESIAN_POINT('', (40., 30., -20.));
#624 = ORIENTED_EDGE('', *, *, #591, .F.);
#625 = B_SPLINE_SURFACE_WITH_KNOTS('', 1, 1, ((#626, #627), (#628, #629)), .UNSPECIFIED., .F., .F., .U., (2, 2), (2, 2), (0., 60.), (0., 80.), .UNSPECIFIED.);
#626 = CARTESIAN_POINT('', (-40., -30., -20.));
#627 = CARTESIAN_POINT('', (40., -30., -20.));
#628 = CARTESIAN_POINT('', (-40., 30., -20.));
#629 = CARTESIAN_POINT('', (40., 30., -20.));
#630 = ADVANCED_FACE('', (#631), #641, .T.);
#631 = FACE_OUTER_BOUND('', #632, .T.);
#632 = EDGE_LOOP('', (#633, #638, #639, #640));
#633 = ORIENTED_EDGE('', *, *, #634, .F.);
#634 = EDGE_CURVE('', #614, #571, #635, .T.);
#635 = B_SPLINE_CURVE_WITH_KNOTS('', 1, (#636, #637), .UNSPECIFIED., .F., .U., (2, 2), (0., 1.), .UNSPECIFIED.);
#636 = CARTESIAN_POINT('', (0., 30., -20.));
#637 = CARTESIAN_POINT('', (0., 30., 20.));
#638 = ORIENTED_EDGE('', *, *, #613, .F.);
#639 = ORIENTED_EDGE('', *, *, #542, .T.);
#640 = ORIENTED_EDGE('', *, *, #577, .T.);
#641 = B_SPLINE_SURFACE_WITH_KNOTS('', 1, 1, ((#642, #643), (#644, #645)), .UNSPECIFIED., .F., .F., .U., (2, 2), (2, 2), (0., 60.), (0., 40.), .UNSPECIFIED.);
#642 = CARTESIAN_POINT('', (0., -5., -40.));
#643 = CARTESIAN_POINT('', (0., 35., -40.));
#644 = CARTESIAN_POINT('', (0., -5., 20.));
#645 = CARTESIAN_POINT('', (0., 35., 20.));
#646 = ADVANCED_FACE('', (#647), #653, .T.);
#647 = FACE_OUTER_BOUND('', #648, .T.);
#648 = EDGE_LOOP('', (#649, #650, #651, #652));
#649 = ORIENTED_EDGE('', *, *, #634, .T.);
#650 = ORIENTED_EDGE('', *, *, #570, .T.);
#651 = ORIENTED_EDGE('', *, *, #598, .F.);
#652 = ORIENTED_EDGE('', *, *, #620, .F.);
#653 = B_SPLINE_SURFACE_WITH_KNOTS('', 1, 1, ((#654, #655), (#656, #657)), .UNSPECIFIED., .F., .F., .U., (2, 2), (2, 2), (0., 40.), (0., 80.), .UNSPECIFIED.);
#654 = CARTESIAN_POINT('', (-40., 30., -20.));
#655 = CARTESIAN_POINT('', (40., 30., -20.));
#656 = CARTESIAN_POINT('', (-40., 30., 20.));
#657 = CARTESIAN_POINT('', (40., 30., 20.));
#658 = PRESENTATION_STYLE_ASSIGNMENT((#659));
#659 = SURFACE_STYLE_USAGE(.POSITIVE., #660);
#660 = SURFACE_SIDE_STYLE('', (#661));
#661 = SURFACE_STYLE_FILL_AREA(#662);
#662 = FILL_AREA_STYLE('', (#663));
#663 = FILL_AREA_STYLE_COLOUR('', #664);
#664 = COLOUR_RGB('', 0.50196078431373, 0.50196078431373, 0.50196078431373);
#665 = STYLED_ITEM('', (#658), #520);
#666 = SHELL_BASED_SURFACE_MODEL('Solid2', (#667, #804));
#667 = CLOSED_SHELL('', (#668, #704, #732, #760, #780, #792));
#668 = ADVANCED_FACE('', (#669), #699, .F.);
#669 = FACE_OUTER_BOUND('', #670, .F.);
#670 = EDGE_LOOP('', (#671, #680, #687, #694));
#671 = ORIENTED_EDGE('', *, *, #672, .T.);
#672 = EDGE_CURVE('', #673, #675, #677, .T.);
#673 = VERTEX_POINT('', #674);
#674 = CARTESIAN_POINT('', (-40., 30., -20.));
#675 = VERTEX_POINT('', #676);
#676 = CARTESIAN_POINT('', (-40., 30., 20.));
#677 = B_SPLINE_CURVE_WITH_KNOTS('', 1, (#678, #679), .UNSPECIFIED., .F., .U., (2, 2), (0., 40.), .UNSPECIFIED.);
#678 = CARTESIAN_POINT('', (-40., 30., -20.));
#679 = CARTESIAN_POINT('', (-40., 30., 20.));
#680 = ORIENTED_EDGE('', *, *, #681, .T.);
#681 = EDGE_CURVE('', #675, #682, #684, .T.);
#682 = VERTEX_POINT('', #683);
#683 = CARTESIAN_POINT('', (40., 30., 20.));
#684 = B_SPLINE_CURVE_WITH_KNOTS('', 1, (#685, #686), .UNSPECIFIED., .F., .U., (2, 2), (0., 80.), .UNSPECIFIED.);
#685 = CARTESIAN_POINT('', (-40., 30., 20.));
#686 = CARTESIAN_POINT('', (40., 30., 20.));
#687 = ORIENTED_EDGE('', *, *, #688, .F.);
#688 = EDGE_CURVE('', #689, #682, #691, .T.);
#689 = VERTEX_POINT('', #690);
#690 = CARTESIAN_POINT('', (40., 30., -20.));
#691 = B_SPLINE_CURVE_WITH_KNOTS('', 1, (#692, #693), .UNSPECIFIED., .F., .U., (2, 2), (0., 40.), .UNSPECIFIED.);
#692 = CARTESIAN_POINT('', (40., 30., -20.));
#693 = CARTESIAN_POINT('', (40., 30., 20.));
#694 = ORIENTED_EDGE('', *, *, #695, .F.);
#695 = EDGE_CURVE('', #673, #689, #696, .T.);
#696 = B_SPLINE_CURVE_WITH_KNOTS('', 1, (#697, #698), .UNSPECIFIED., .F., .U., (2, 2), (0., 80.), .UNSPECIFIED.);
#697 = CARTESIAN_POINT('', (-40., 30., -20.));
#698 = CARTESIAN_POINT('', (40., 30., -20.));
#699 = B_SPLINE_SURFACE_WITH_KNOTS('', 1, 1, ((#700, #701), (#702, #703)), .UNSPECIFIED., .F., .F., .U., (2, 2), (2, 2), (0., 40.), (0., 80.), .UNSPECIFIED.);
#700 = CARTESIAN_POINT('', (-40., 30., -20.));
#701 = CARTESIAN_POINT('', (40., 30., -20.));
#702 = CARTESIAN_POINT('', (-40., 30., 20.));
#703 = CARTESIAN_POINT('', (40., 30., 20.));
#704 = ADVANCED_FACE('', (#705), #727, .F.);
#705 = FACE_OUTER_BOUND('', #706, .F.);
#706 = EDGE_LOOP('', (#707, #714, #721, #726));
#707 = ORIENTED_EDGE('', *, *, #708, .F.);
#708 = EDGE_CURVE('', #709, #675, #711, .T.);
#709 = VERTEX_POINT('', #710);
#710 = CARTESIAN_POINT('', (-40., -30., 20.));
#711 = B_SPLINE_CURVE_WITH_KNOTS('', 1, (#712, #713), .UNSPECIFIED., .F., .U., (2, 2), (0., 60.), .UNSPECIFIED.);
#712 = CARTESIAN_POINT('', (-40., -30., 20.));
#713 = CARTESIAN_POINT('', (-40., 30., 20.));
#714 = ORIENTED_EDGE('', *, *, #715, .T.);
#715 = EDGE_CURVE('', #709, #716, #718, .T.);
#716 = VERTEX_POINT('', #717);
#717 = CARTESIAN_POINT('', (40., -30., 20.));
#718 = B_SPLINE_CURVE_WITH_KNOTS('', 1, (#719, #720), .UNSPECIFIED., .F., .U., (2, 2), (0., 80.), .UNSPECIFIED.);
#719 = CARTESIAN_POINT('', (-40., -30., 20.));
#720 = CARTESIAN_POINT('', (40., -30., 20.));
#721 = ORIENTED_EDGE('', *, *, #722, .T.);
#722 = EDGE_CURVE('', #716, #682, #723, .T.);
#723 = B_SPLINE_CURVE_WITH_KNOTS('', 1, (#724, #725), .UNSPECIFIED., .F., .U., (2, 2), (0., 60.), .UNSPECIFIED.);
#724 = CARTESIAN_POINT('', (40., -30., 20.));
#725 = CARTESIAN_POINT('', (40., 30., 20.));
#726 = ORIENTED_EDGE('', *, *, #681, .F.);
#727 = B_SPLINE_SURFACE_WITH_KNOTS('', 1, 1, ((#728, #729), (#730, #731)), .UNSPECIFIED., .F., .F., .U., (2, 2), (2, 2), (0., 80.), (0., 60.), .UNSPECIFIED.);
#728 = CARTESIAN_POINT('', (-40., -30., 20.));
#729 = CARTESIAN_POINT('', (-40., 30., 20.));
#730 = CARTESIAN_POINT('', (40., -30., 20.));
#731 = CARTESIAN_POINT('', (40., 30., 20.));
#732 = ADVANCED_FACE('', (#733), #755, .F.);
#733 = FACE_OUTER_BOUND('', #734, .F.);
#734 = EDGE_LOOP('', (#735, #742, #749, #754));
#735 = ORIENTED_EDGE('', *, *, #736, .F.);
#736 = EDGE_CURVE('', #737, #709, #739, .T.);
#737 = VERTEX_POINT('', #738);
#738 = CARTESIAN_POINT('', (-40., -30., -20.));
#739 = B_SPLINE_CURVE_WITH_KNOTS('', 1, (#740, #741), .UNSPECIFIED., .F., .U., (2, 2), (0., 40.), .UNSPECIFIED.);
#740 = CARTESIAN_POINT('', (-40., -30., -20.));
#741 = CARTESIAN_POINT('', (-40., -30., 20.));
#742 = ORIENTED_EDGE('', *, *, #743, .T.);
#743 = EDGE_CURVE('', #737, #744, #746, .T.);
#744 = VERTEX_POINT('', #745);
#745 = CARTESIAN_POINT('', (40., -30., -20.));
#746 = B_SPLINE_CURVE_WITH_KNOTS('', 1, (#747, #748), .UNSPECIFIED., .F., .U., (2, 2), (0., 80.), .UNSPECIFIED.);
#747 = CARTESIAN_POINT('', (-40., -30., -20.));
#748 = CARTESIAN_POINT('', (40., -30., -20.));
#749 = ORIENTED_EDGE('', *, *, #750, .T.);
#750 = EDGE_CURVE('', #744, #716, #751, .T.);
#751 = B_SPLINE_CURVE_WITH_KNOTS('', 1, (#752, #753), .UNSPECIFIED., .F., .U., (2, 2), (0., 40.), .UNSPECIFIED.);
#752 = CARTESIAN_POINT('', (40., -30., -20.));
#753 = CARTESIAN_POINT('', (40., -30., 20.));
#754 = ORIENTED_EDGE('', *, *, #715, .F.);
#755 = B_SPLINE_SURFACE_WITH_KNOTS('', 1, 1, ((#756, #757), (#758, #759)), .UNSPECIFIED., .F., .F., .U., (2, 2), (2, 2), (0., 80.), (0., 40.), .UNSPECIFIED.);
#756 = CARTESIAN_POINT('', (-40., -30., -20.));
#757 = CARTESIAN_POINT('', (-40., -30., 20.));
#758 = CARTESIAN_POINT('', (40., -30., -20.));
#759 = CARTESIAN_POINT('', (40., -30., 20.));
#760 = ADVANCED_FACE('', (#761), #775, .F.);
#761 = FACE_OUTER_BOUND('', #762, .F.);
#762 = EDGE_LOOP('', (#763, #768, #769, #774));
#763 = ORIENTED_EDGE('', *, *, #764, .T.);
#764 = EDGE_CURVE('', #737, #673, #765, .T.);
#765 = B_SPLINE_CURVE_WITH_KNOTS('', 1, (#766, #767), .UNSPECIFIED., .F., .U., (2, 2), (0., 60.), .UNSPECIFIED.);
#766 = CARTESIAN_POINT('', (-40., -30., -20.));
#767 = CARTESIAN_POINT('', (-40., 30., -20.));
#768 = ORIENTED_EDGE('', *, *, #695, .T.);
#769 = ORIENTED_EDGE('', *, *, #770, .F.);
#770 = EDGE_CURVE('', #744, #689, #771, .T.);
#771 = B_SPLINE_CURVE_WITH_KNOTS('', 1, (#772, #773), .UNSPECIFIED., .F., .U., (2, 2), (0., 60.), .UNSPECIFIED.);
#772 = CARTESIAN_POINT('', (40., -30., -20.));
#773 = CARTESIAN_POINT('', (40., 30., -20.));
#774 = ORIENTED_EDGE('', *, *, #743, .F.);
#775 = B_SPLINE_SURFACE_WITH_KNOTS('', 1, 1, ((#776, #777), (#778, #779)), .UNSPECIFIED., .F., .F., .U., (2, 2), (2, 2), (0., 60.), (0., 80.), .UNSPECIFIED.);
#776 = CARTESIAN_POINT('', (-40., -30., -20.));
#777 = CARTESIAN_POINT('', (40., -30., -20.));
#778 = CARTESIAN_POINT('', (-40., 30., -20.));
#779 = CARTESIAN_POINT('', (40., 30., -20.));
#780 = ADVANCED_FACE('', (#781), #787, .F.);
#781 = FACE_OUTER_BOUND('', #782, .F.);
#782 = EDGE_LOOP('', (#783, #784, #785, #786));
#783 = ORIENTED_EDGE('', *, *, #750, .F.);
#784 = ORIENTED_EDGE('', *, *, #770, .T.);
#785 = ORIENTED_EDGE('', *, *, #688, .T.);
#786 = ORIENTED_EDGE('', *, *, #722, .F.);
#787 = B_SPLINE_SURFACE_WITH_KNOTS('', 1, 1, ((#788, #789), (#790, #791)), .UNSPECIFIED., .F., .F., .U., (2, 2), (2, 2), (0., 60.), (0., 40.), .UNSPECIFIED.);
#788 = CARTESIAN_POINT('', (40., -30., -20.));
#789 = CARTESIAN_POINT('', (40., -30., 20.));
#790 = CARTESIAN_POINT('', (40., 30., -20.));
#791 = CARTESIAN_POINT('', (40., 30., 20.));
#792 = ADVANCED_FACE('', (#793), #799, .F.);
#793 = FACE_OUTER_BOUND('', #794, .F.);
#794 = EDGE_LOOP('', (#795, #796, #797, #798));
#795 = ORIENTED_EDGE('', *, *, #736, .T.);
#796 = ORIENTED_EDGE('', *, *, #708, .T.);
#797 = ORIENTED_EDGE('', *, *, #672, .F.);
#798 = ORIENTED_EDGE('', *, *, #764, .F.);
#799 = B_SPLINE_SURFACE_WITH_KNOTS('', 1, 1, ((#800, #801), (#802, #803)), .UNSPECIFIED., .F., .F., .U., (2, 2), (2, 2), (0., 40.), (0., 60.), .UNSPECIFIED.);
#800 = CARTESIAN_POINT('', (-40., -30., -20.));
#801 = CARTESIAN_POINT('', (-40., 30., -20.));
#802 = CARTESIAN_POINT('', (-40., -30., 20.));
#803 = CARTESIAN_POINT('', (-40., 30., 20.));
#804 = CLOSED_SHELL('', (#805, #841, #869, #897, #917, #929));
#805 = ADVANCED_FACE('', (#806), #836, .F.);
#806 = FACE_OUTER_BOUND('', #807, .F.);
#807 = EDGE_LOOP('', (#808, #817, #824, #831));
#808 = ORIENTED_EDGE('', *, *, #809, .T.);
#809 = EDGE_CURVE('', #810, #812, #814, .T.);
#810 = VERTEX_POINT('', #811);
#811 = CARTESIAN_POINT('', (30., 35., -30.));
#812 = VERTEX_POINT('', #813);
#813 = CARTESIAN_POINT('', (30., 35., 30.));
#814 = B_SPLINE_CURVE_WITH_KNOTS('', 1, (#815, #816), .UNSPECIFIED., .F., .U., (2, 2), (0., 60.), .UNSPECIFIED.);
#815 = CARTESIAN_POINT('', (30., 35., -30.));
#816 = CARTESIAN_POINT('', (30., 35., 30.));
#817 = ORIENTED_EDGE('', *, *, #818, .T.);
#818 = EDGE_CURVE('', #812, #819, #821, .T.);
#819 = VERTEX_POINT('', #820);
#820 = CARTESIAN_POINT('', (70., 35., 30.));
#821 = B_SPLINE_CURVE_WITH_KNOTS('', 1, (#822, #823), .UNSPECIFIED., .F., .U., (2, 2), (0., 40.), .UNSPECIFIED.);
#822 = CARTESIAN_POINT('', (30., 35., 30.));
#823 = CARTESIAN_POINT('', (70., 35., 30.));
#824 = ORIENTED_EDGE('', *, *, #825, .F.);
#825 = EDGE_CURVE('', #826, #819, #828, .T.);
#826 = VERTEX_POINT('', #827);
#827 = CARTESIAN_POINT('', (70., 35., -30.));
#828 = B_SPLINE_CURVE_WITH_KNOTS('', 1, (#829, #830), .UNSPECIFIED., .F., .U., (2, 2), (0., 60.), .UNSPECIFIED.);
#829 = CARTESIAN_POINT('', (70., 35., -30.));
#830 = CARTESIAN_POINT('', (70., 35., 30.));
#831 = ORIENTED_EDGE('', *, *, #832, .F.);
#832 = EDGE_CURVE('', #810, #826, #833, .T.);
#833 = B_SPLINE_CURVE_WITH_KNOTS('', 1, (#834, #835), .UNSPECIFIED., .F., .U., (2, 2), (0., 40.), .UNSPECIFIED.);
#834 = CARTESIAN_POINT('', (30., 35., -30.));
#835 = CARTESIAN_POINT('', (70., 35., -30.));
#836 = B_SPLINE_SURFACE_WITH_KNOTS('', 1, 1, ((#837, #838), (#839, #840)), .UNSPECIFIED., .F., .F., .U., (2, 2), (2, 2), (0., 60.), (0., 40.), .UNSPECIFIED.);
#837 = CARTESIAN_POINT('', (30., 35., -30.));
#838 = CARTESIAN_POINT('', (70., 35., -30.));
#839 = CARTESIAN_POINT('', (30., 35., 30.));
#840 = CARTESIAN_POINT('', (70., 35., 30.));
#841 = ADVANCED_FACE('', (#842), #864, .F.);
#842 = FACE_OUTER_BOUND('', #843, .F.);
#843 = EDGE_LOOP('', (#844, #851, #858, #863));
#844 = ORIENTED_EDGE('', *, *, #845, .F.);
#845 = EDGE_CURVE('', #846, #812, #848, .T.);
#846 = VERTEX_POINT('', #847);
#847 = CARTESIAN_POINT('', (30., 5., 30.));
#848 = B_SPLINE_CURVE_WITH_KNOTS('', 1, (#849, #850), .UNSPECIFIED., .F., .U., (2, 2), (0., 30.), .UNSPECIFIED.);
#849 = CARTESIAN_POINT('', (30., 5., 30.));
#850 = CARTESIAN_POINT('', (30., 35., 30.));
#851 = ORIENTED_EDGE('', *, *, #852, .T.);
#852 = EDGE_CURVE('', #846, #853, #855, .T.);
#853 = VERTEX_POINT('', #854);
#854 = CARTESIAN_POINT('', (70., 5., 30.));
#855 = B_SPLINE_CURVE_WITH_KNOTS('', 1, (#856, #857), .UNSPECIFIED., .F., .U., (2, 2), (0., 40.), .UNSPECIFIED.);
#856 = CARTESIAN_POINT('', (30., 5., 30.));
#857 = CARTESIAN_POINT('', (70., 5., 30.));
#858 = ORIENTED_EDGE('', *, *, #859, .T.);
#859 = EDGE_CURVE('', #853, #819, #860, .T.);
#860 = B_SPLINE_CURVE_WITH_KNOTS('', 1, (#861, #862), .UNSPECIFIED., .F., .U., (2, 2), (0., 30.), .UNSPECIFIED.);
#861 = CARTESIAN_POINT('', (70., 5., 30.));
#862 = CARTESIAN_POINT('', (70., 35., 30.));
#863 = ORIENTED_EDGE('', *, *, #818, .F.);
#864 = B_SPLINE_SURFACE_WITH_KNOTS('', 1, 1, ((#865, #866), (#867, #868)), .UNSPECIFIED., .F., .F., .U., (2, 2), (2, 2), (0., 40.), (0., 30.), .UNSPECIFIED.);
#865 = CARTESIAN_POINT('', (30., 5., 30.));
#866 = CARTESIAN_POINT('', (30., 35., 30.));
#867 = CARTESIAN_POINT('', (70., 5., 30.));
#868 = CARTESIAN_POINT('', (70., 35., 30.));
#869 = ADVANCED_FACE('', (#870), #892, .F.);
#870 = FACE_OUTER_BOUND('', #871, .F.);
#871 = EDGE_LOOP('', (#872, #879, #886, #891));
#872 = ORIENTED_EDGE('', *, *, #873, .F.);
#873 = EDGE_CURVE('', #874, #846, #876, .T.);
#874 = VERTEX_POINT('', #875);
#875 = CARTESIAN_POINT('', (30., 5., -30.));
#876 = B_SPLINE_CURVE_WITH_KNOTS('', 1, (#877, #878), .UNSPECIFIED., .F., .U., (2, 2), (0., 60.), .UNSPECIFIED.);
#877 = CARTESIAN_POINT('', (30., 5., -30.));
#878 = CARTESIAN_POINT('', (30., 5., 30.));
#879 = ORIENTED_EDGE('', *, *, #880, .T.);
#880 = EDGE_CURVE('', #874, #881, #883, .T.);
#881 = VERTEX_POINT('', #882);
#882 = CARTESIAN_POINT('', (70., 5., -30.));
#883 = B_SPLINE_CURVE_WITH_KNOTS('', 1, (#884, #885), .UNSPECIFIED., .F., .U., (2, 2), (0., 40.), .UNSPECIFIED.);
#884 = CARTESIAN_POINT('', (30., 5., -30.));
#885 = CARTESIAN_POINT('', (70., 5., -30.));
#886 = ORIENTED_EDGE('', *, *, #887, .T.);
#887 = EDGE_CURVE('', #881, #853, #888, .T.);
#888 = B_SPLINE_CURVE_WITH_KNOTS('', 1, (#889, #890), .UNSPECIFIED., .F., .U., (2, 2), (0., 60.), .UNSPECIFIED.);
#889 = CARTESIAN_POINT('', (70., 5., -30.));
#890 = CARTESIAN_POINT('', (70., 5., 30.));
#891 = ORIENTED_EDGE('', *, *, #852, .F.);
#892 = B_SPLINE_SURFACE_WITH_KNOTS('', 1, 1, ((#893, #894), (#895, #896)), .UNSPECIFIED., .F., .F., .U., (2, 2), (2, 2), (0., 40.), (0., 60.), .UNSPECIFIED.);
#893 = CARTESIAN_POINT('', (30., 5., -30.));
#894 = CARTESIAN_POINT('', (30., 5., 30.));
#895 = CARTESIAN_POINT('', (70., 5., -30.));
#896 = CARTESIAN_POINT('', (70., 5., 30.));
#897 = ADVANCED_FACE('', (#898), #912, .F.);
#898 = FACE_OUTER_BOUND('', #899, .F.);
#899 = EDGE_LOOP('', (#900, #905, #906, #911));
#900 = ORIENTED_EDGE('', *, *, #901, .T.);
#901 = EDGE_CURVE('', #874, #810, #902, .T.);
#902 = B_SPLINE_CURVE_WITH_KNOTS('', 1, (#903, #904), .UNSPECIFIED., .F., .U., (2, 2), (0., 30.), .UNSPECIFIED.);
#903 = CARTESIAN_POINT('', (30., 5., -30.));
#904 = CARTESIAN_POINT('', (30., 35., -30.));
#905 = ORIENTED_EDGE('', *, *, #832, .T.);
#906 = ORIENTED_EDGE('', *, *, #907, .F.);
#907 = EDGE_CURVE('', #881, #826, #908, .T.);
#908 = B_SPLINE_CURVE_WITH_KNOTS('', 1, (#909, #910), .UNSPECIFIED., .F., .U., (2, 2), (0., 30.), .UNSPECIFIED.);
#909 = CARTESIAN_POINT('', (70., 5., -30.));
#910 = CARTESIAN_POINT('', (70., 35., -30.));
#911 = ORIENTED_EDGE('', *, *, #880, .F.);
#912 = B_SPLINE_SURFACE_WITH_KNOTS('', 1, 1, ((#913, #914), (#915, #916)), .UNSPECIFIED., .F., .F., .U., (2, 2), (2, 2), (0., 30.), (0., 40.), .UNSPECIFIED.);
#913 = CARTESIAN_POINT('', (30., 5., -30.));
#914 = CARTESIAN_POINT('', (70., 5., -30.));
#915 = CARTESIAN_POINT('', (30., 35., -30.));
#916 = CARTESIAN_POINT('', (70., 35., -30.));
#917 = ADVANCED_FACE('', (#918), #924, .F.);
#918 = FACE_OUTER_BOUND('', #919, .F.);
#919 = EDGE_LOOP('', (#920, #921, #922, #923));
#920 = ORIENTED_EDGE('', *, *, #887, .F.);
#921 = ORIENTED_EDGE('', *, *, #907, .T.);
#922 = ORIENTED_EDGE('', *, *, #825, .T.);
#923 = ORIENTED_EDGE('', *, *, #859, .F.);
#924 = B_SPLINE_SURFACE_WITH_KNOTS('', 1, 1, ((#925, #926), (#927, #928)), .UNSPECIFIED., .F., .F., .U., (2, 2), (2, 2), (0., 30.), (0., 60.), .UNSPECIFIED.);
#925 = CARTESIAN_POINT('', (70., 5., -30.));
#926 = CARTESIAN_POINT('', (70., 5., 30.));
#927 = CARTESIAN_POINT('', (70., 35., -30.));
#928 = CARTESIAN_POINT('', (70., 35., 30.));
#929 = ADVANCED_FACE('', (#930), #936, .F.);
#930 = FACE_OUTER_BOUND('', #931, .F.);
#931 = EDGE_LOOP('', (#932, #933, #934, #935));
#932 = ORIENTED_EDGE('', *, *, #873, .T.);
#933 = ORIENTED_EDGE('', *, *, #845, .T.);
#934 = ORIENTED_EDGE('', *, *, #809, .F.);
#935 = ORIENTED_EDGE('', *, *, #901, .F.);
#936 = B_SPLINE_SURFACE_WITH_KNOTS('', 1, 1, ((#937, #938), (#939, #940)), .UNSPECIFIED., .F., .F., .U., (2, 2), (2, 2), (0., 60.), (0., 30.), .UNSPECIFIED.);
#937 = CARTESIAN_POINT('', (30., 5., -30.));
#938 = CARTESIAN_POINT('', (30., 35., -30.));
#939 = CARTESIAN_POINT('', (30., 5., 30.));
#940 = CARTESIAN_POINT('', (30., 35., 30.));
#941 = PRESENTATION_STYLE_ASSIGNMENT((#942));
#942 = SURFACE_STYLE_USAGE(.POSITIVE., #943);
#943 = SURFACE_SIDE_STYLE('', (#944));
#944 = SURFACE_STYLE_FILL_AREA(#945);
#945 = FILL_AREA_STYLE('', (#946));
#946 = FILL_AREA_STYLE_COLOUR('', #947);
#947 = COLOUR_RGB('', 0.50196078431373, 0.50196078431373, 0.50196078431373);
#948 = STYLED_ITEM('', (#941), #666);
#949 = CARTESIAN_POINT('Origin', (0., 0., 0.));
#950 = GEOMETRIC_SET('', (#949));
#951 = (
   GEOMETRIC_REPRESENTATION_CONTEXT (3)
   GLOBAL_UNCERTAINTY_ASSIGNED_CONTEXT ((#953))
   GLOBAL_UNIT_ASSIGNED_CONTEXT ((#952, #954, #955))
   REPRESENTATION_CONTEXT ('', '3D')
);
#952 = (
   LENGTH_UNIT ()
   NAMED_UNIT (*)
   SI_UNIT (.MILLI., .METRE.)
);
#953 = UNCERTAINTY_MEASURE_WITH_UNIT(LENGTH_MEASURE(1.E-6), #952, 'DISTANCE_ACCURACY_VALUE', '');
#954 = (
   NAMED_UNIT (*)
   SI_UNIT ($, .STERADIAN.)
   SOLID_ANGLE_UNIT ()
);
#955 = (
   NAMED_UNIT (*)
   PLANE_ANGLE_UNIT ()
   SI_UNIT ($, .RADIAN.)
);
#956 = SHAPE_REPRESENTATION('', (#973), #951);
#957 = PRODUCT_DEFINITION_SHAPE('', '', #958);
#958 = PRODUCT_DEFINITION('', '', #961, #965);
#959 = APPLICATION_CONTEXT('configuration controlled 3D designs of mechanical parts and assemblies');
#960 = APPLICATION_PROTOCOL_DEFINITION('International Standard', 'automotive_design', 2002, #959);
#961 = PRODUCT_DEFINITION_FORMATION_WITH_SPECIFIED_SOURCE('', '', #962, .NOT_KNOWN.);
#962 = PRODUCT('SigTest', 'SigTest', '', (#963));
#963 = PRODUCT_CONTEXT('', #959, 'mechanical');
#964 = PRODUCT_RELATED_PRODUCT_CATEGORY('detail', '', (#962));
#965 = PRODUCT_DEFINITION_CONTEXT('part definition', #959, 'design');
#966 = SHAPE_DEFINITION_REPRESENTATION(#957, #956);
#967 = SHAPE_REPRESENTATION_RELATIONSHIP('', '', #956, #968);
#968 = SHAPE_REPRESENTATION('', (#950), #951);
#969 = SHAPE_REPRESENTATION_RELATIONSHIP('', '', #956, #970);
#970 = ADVANCED_BREP_SHAPE_REPRESENTATION('', (#1, #328, #520), #951);
#971 = SHAPE_REPRESENTATION_RELATIONSHIP('', '', #956, #972);
#972 = MANIFOLD_SURFACE_SHAPE_REPRESENTATION('', (#666), #951);
#973 = AXIS2_PLACEMENT_3D('', #974, #975, #976);
#974 = CARTESIAN_POINT('', (0., 0., 0.));
#975 = DIRECTION('', (0., 0., 1.));
#976 = DIRECTION('', (1., 0., 0.));
ENDSEC;
END-ISO-10303-21;
