ISO-10303-21;
HEADER;
FILE_DESCRIPTION(('STEP'), '1');
FILE_NAME('ToolReuse', '2026-04-14T20:39:51', (''), (''), 'Express 3.1.2.0', 'Express Tool', 'Unknown');
FILE_SCHEMA(('AUTOMOTIVE_DESIGN'));
ENDSEC;

DATA;
#1 = MANIFOLD_SOLID_BREP('Solid', #2);
#2 = CLOSED_SHELL('', (#3, #39, #75, #97, #119, #143, #159));
#3 = ADVANCED_FACE('', (#4), #34, .T.);
#4 = FACE_OUTER_BOUND('', #5, .T.);
#5 = EDGE_LOOP('', (#6, #15, #22, #29));
#6 = ORIENTED_EDGE('', *, *, #7, .F.);
#7 = EDGE_CURVE('', #8, #10, #12, .T.);
#8 = VERTEX_POINT('', #9);
#9 = CARTESIAN_POINT('', (-40., -30., -20.));
#10 = VERTEX_POINT('', #11);
#11 = CARTESIAN_POINT('', (-40., -30., 20.));
#12 = B_SPLINE_CURVE_WITH_KNOTS('', 1, (#13, #14), .UNSPECIFIED., .F., .U., (2, 2), (0., 40.), .UNSPECIFIED.);
#13 = CARTESIAN_POINT('', (-40., -30., -20.));
#14 = CARTESIAN_POINT('', (-40., -30., 20.));
#15 = ORIENTED_EDGE('', *, *, #16, .T.);
#16 = EDGE_CURVE('', #8, #17, #19, .T.);
#17 = VERTEX_POINT('', #18);
#18 = CARTESIAN_POINT('', (40., -30., -20.));
#19 = B_SPLINE_CURVE_WITH_KNOTS('', 1, (#20, #21), .UNSPECIFIED., .F., .U., (2, 2), (0., 80.), .UNSPECIFIED.);
#20 = CARTESIAN_POINT('', (-40., -30., -20.));
#21 = CARTESIAN_POINT('', (40., -30., -20.));
#22 = ORIENTED_EDGE('', *, *, #23, .T.);
#23 = EDGE_CURVE('', #17, #24, #26, .T.);
#24 = VERTEX_POINT('', #25);
#25 = CARTESIAN_POINT('', (40., -30., 20.));
#26 = B_SPLINE_CURVE_WITH_KNOTS('', 1, (#27, #28), .UNSPECIFIED., .F., .U., (2, 2), (0., 40.), .UNSPECIFIED.);
#27 = CARTESIAN_POINT('', (40., -30., -20.));
#28 = CARTESIAN_POINT('', (40., -30., 20.));
#29 = ORIENTED_EDGE('', *, *, #30, .F.);
#30 = EDGE_CURVE('', #10, #24, #31, .T.);
#31 = B_SPLINE_CURVE_WITH_KNOTS('', 1, (#32, #33), .UNSPECIFIED., .F., .U., (2, 2), (0., 80.), .UNSPECIFIED.);
#32 = CARTESIAN_POINT('', (-40., -30., 20.));
#33 = CARTESIAN_POINT('', (40., -30., 20.));
#34 = B_SPLINE_SURFACE_WITH_KNOTS('', 1, 1, ((#35, #36), (#37, #38)), .UNSPECIFIED., .F., .F., .U., (2, 2), (2, 2), (0., 80.), (0., 40.), .UNSPECIFIED.);
#35 = CARTESIAN_POINT('', (-40., -30., -20.));
#36 = CARTESIAN_POINT('', (-40., -30., 20.));
#37 = CARTESIAN_POINT('', (40., -30., -20.));
#38 = CARTESIAN_POINT('', (40., -30., 20.));
#39 = ADVANCED_FACE('', (#40), #70, .T.);
#40 = FACE_OUTER_BOUND('', #41, .T.);
#41 = EDGE_LOOP('', (#42, #52, #57, #58, #65));
#42 = ORIENTED_EDGE('', *, *, #43, .T.);
#43 = EDGE_CURVE('', #44, #46, #48, .T.);
#44 = VERTEX_POINT('', #45);
#45 = CARTESIAN_POINT('', (27.5, 30., -20.));
#46 = VERTEX_POINT('', #47);
#47 = CARTESIAN_POINT('', (40., 17.5, -20.));
#48 = (
   BOUNDED_CURVE ()
   B_SPLINE_CURVE (2, (#49, #50, #51), .UNSPECIFIED., .F., .U.)
   B_SPLINE_CURVE_WITH_KNOTS ((3, 3), (0., 1.), .UNSPECIFIED.)
   CURVE ()
   GEOMETRIC_REPRESENTATION_ITEM ()
   RATIONAL_B_SPLINE_CURVE ((1., 0.707106781186548, 1.))
   REPRESENTATION_ITEM ('')
);
#49 = CARTESIAN_POINT('', (27.5, 30., -20.));
#50 = CARTESIAN_POINT('', (27.5, 17.5, -20.));
#51 = CARTESIAN_POINT('', (40., 17.5, -20.));
#52 = ORIENTED_EDGE('', *, *, #53, .F.);
#53 = EDGE_CURVE('', #17, #46, #54, .T.);
#54 = B_SPLINE_CURVE_WITH_KNOTS('', 1, (#55, #56), .UNSPECIFIED., .F., .U., (2, 2), (0., 47.5), .UNSPECIFIED.);
#55 = CARTESIAN_POINT('', (40., -30., -20.));
#56 = CARTESIAN_POINT('', (40., 17.5, -20.));
#57 = ORIENTED_EDGE('', *, *, #16, .F.);
#58 = ORIENTED_EDGE('', *, *, #59, .T.);
#59 = EDGE_CURVE('', #8, #60, #62, .T.);
#60 = VERTEX_POINT('', #61);
#61 = CARTESIAN_POINT('', (-40., 30., -20.));
#62 = B_SPLINE_CURVE_WITH_KNOTS('', 1, (#63, #64), .UNSPECIFIED., .F., .U., (2, 2), (0., 60.), .UNSPECIFIED.);
#63 = CARTESIAN_POINT('', (-40., -30., -20.));
#64 = CARTESIAN_POINT('', (-40., 30., -20.));
#65 = ORIENTED_EDGE('', *, *, #66, .T.);
#66 = EDGE_CURVE('', #60, #44, #67, .T.);
#67 = B_SPLINE_CURVE_WITH_KNOTS('', 1, (#68, #69), .UNSPECIFIED., .F., .U., (2, 2), (0., 67.5), .UNSPECIFIED.);
#68 = CARTESIAN_POINT('', (-40., 30., -20.));
#69 = CARTESIAN_POINT('', (27.5, 30., -20.));
#70 = B_SPLINE_SURFACE_WITH_KNOTS('', 1, 1, ((#71, #72), (#73, #74)), .UNSPECIFIED., .F., .F., .U., (2, 2), (2, 2), (0., 60.), (0., 80.), .UNSPECIFIED.);
#71 = CARTESIAN_POINT('', (-40., -30., -20.));
#72 = CARTESIAN_POINT('', (40., -30., -20.));
#73 = CARTESIAN_POINT('', (-40., 30., -20.));
#74 = CARTESIAN_POINT('', (40., 30., -20.));
#75 = ADVANCED_FACE('', (#76), #92, .T.);
#76 = FACE_OUTER_BOUND('', #77, .T.);
#77 = EDGE_LOOP('', (#78, #85, #90, #91));
#78 = ORIENTED_EDGE('', *, *, #79, .T.);
#79 = EDGE_CURVE('', #46, #80, #82, .T.);
#80 = VERTEX_POINT('', #81);
#81 = CARTESIAN_POINT('', (40., 17.5, 20.));
#82 = B_SPLINE_CURVE_WITH_KNOTS('', 1, (#83, #84), .UNSPECIFIED., .F., .U., (2, 2), (0., 1.), .UNSPECIFIED.);
#83 = CARTESIAN_POINT('', (40., 17.5, -20.));
#84 = CARTESIAN_POINT('', (40., 17.5, 20.));
#85 = ORIENTED_EDGE('', *, *, #86, .F.);
#86 = EDGE_CURVE('', #24, #80, #87, .T.);
#87 = B_SPLINE_CURVE_WITH_KNOTS('', 1, (#88, #89), .UNSPECIFIED., .F., .U., (2, 2), (0., 47.5), .UNSPECIFIED.);
#88 = CARTESIAN_POINT('', (40., -30., 20.));
#89 = CARTESIAN_POINT('', (40., 17.5, 20.));
#90 = ORIENTED_EDGE('', *, *, #23, .F.);
#91 = ORIENTED_EDGE('', *, *, #53, .T.);
#92 = B_SPLINE_SURFACE_WITH_KNOTS('', 1, 1, ((#93, #94), (#95, #96)), .UNSPECIFIED., .F., .F., .U., (2, 2), (2, 2), (0., 60.), (0., 40.), .UNSPECIFIED.);
#93 = CARTESIAN_POINT('', (40., -30., -20.));
#94 = CARTESIAN_POINT('', (40., -30., 20.));
#95 = CARTESIAN_POINT('', (40., 30., -20.));
#96 = CARTESIAN_POINT('', (40., 30., 20.));
#97 = ADVANCED_FACE('', (#98), #114, .T.);
#98 = FACE_OUTER_BOUND('', #99, .T.);
#99 = EDGE_LOOP('', (#100, #101, #108, #113));
#100 = ORIENTED_EDGE('', *, *, #7, .T.);
#101 = ORIENTED_EDGE('', *, *, #102, .T.);
#102 = EDGE_CURVE('', #10, #103, #105, .T.);
#103 = VERTEX_POINT('', #104);
#104 = CARTESIAN_POINT('', (-40., 30., 20.));
#105 = B_SPLINE_CURVE_WITH_KNOTS('', 1, (#106, #107), .UNSPECIFIED., .F., .U., (2, 2), (0., 60.), .UNSPECIFIED.);
#106 = CARTESIAN_POINT('', (-40., -30., 20.));
#107 = CARTESIAN_POINT('', (-40., 30., 20.));
#108 = ORIENTED_EDGE('', *, *, #109, .F.);
#109 = EDGE_CURVE('', #60, #103, #110, .T.);
#110 = B_SPLINE_CURVE_WITH_KNOTS('', 1, (#111, #112), .UNSPECIFIED., .F., .U., (2, 2), (0., 40.), .UNSPECIFIED.);
#111 = CARTESIAN_POINT('', (-40., 30., -20.));
#112 = CARTESIAN_POINT('', (-40., 30., 20.));
#113 = ORIENTED_EDGE('', *, *, #59, .F.);
#114 = B_SPLINE_SURFACE_WITH_KNOTS('', 1, 1, ((#115, #116), (#117, #118)), .UNSPECIFIED., .F., .F., .U., (2, 2), (2, 2), (0., 40.), (0., 60.), .UNSPECIFIED.);
#115 = CARTESIAN_POINT('', (-40., -30., -20.));
#116 = CARTESIAN_POINT('', (-40., 30., -20.));
#117 = CARTESIAN_POINT('', (-40., -30., 20.));
#118 = CARTESIAN_POINT('', (-40., 30., 20.));
#119 = ADVANCED_FACE('', (#120), #138, .T.);
#120 = FACE_OUTER_BOUND('', #121, .T.);
#121 = EDGE_LOOP('', (#122, #130, #135, #136, #137));
#122 = ORIENTED_EDGE('', *, *, #123, .F.);
#123 = EDGE_CURVE('', #124, #80, #126, .T.);
#124 = VERTEX_POINT('', #125);
#125 = CARTESIAN_POINT('', (27.5, 30., 20.));
#126 = (
   BOUNDED_CURVE ()
   B_SPLINE_CURVE (2, (#127, #128, #129), .UNSPECIFIED., .F., .U.)
   B_SPLINE_CURVE_WITH_KNOTS ((3, 3), (0., 1.), .UNSPECIFIED.)
   CURVE ()
   GEOMETRIC_REPRESENTATION_ITEM ()
   RATIONAL_B_SPLINE_CURVE ((1., 0.707106781186548, 1.))
   REPRESENTATION_ITEM ('')
);
#127 = CARTESIAN_POINT('', (27.5, 30., 20.));
#128 = CARTESIAN_POINT('', (27.5, 17.5, 20.));
#129 = CARTESIAN_POINT('', (40., 17.5, 20.));
#130 = ORIENTED_EDGE('', *, *, #131, .F.);
#131 = EDGE_CURVE('', #103, #124, #132, .T.);
#132 = B_SPLINE_CURVE_WITH_KNOTS('', 1, (#133, #134), .UNSPECIFIED., .F., .U., (2, 2), (0., 67.5), .UNSPECIFIED.);
#133 = CARTESIAN_POINT('', (-40., 30., 20.));
#134 = CARTESIAN_POINT('', (27.5, 30., 20.));
#135 = ORIENTED_EDGE('', *, *, #102, .F.);
#136 = ORIENTED_EDGE('', *, *, #30, .T.);
#137 = ORIENTED_EDGE('', *, *, #86, .T.);
#138 = B_SPLINE_SURFACE_WITH_KNOTS('', 1, 1, ((#139, #140), (#141, #142)), .UNSPECIFIED., .F., .F., .U., (2, 2), (2, 2), (0., 80.), (0., 60.), .UNSPECIFIED.);
#139 = CARTESIAN_POINT('', (-40., -30., 20.));
#140 = CARTESIAN_POINT('', (-40., 30., 20.));
#141 = CARTESIAN_POINT('', (40., -30., 20.));
#142 = CARTESIAN_POINT('', (40., 30., 20.));
#143 = ADVANCED_FACE('', (#144), #154, .T.);
#144 = FACE_OUTER_BOUND('', #145, .T.);
#145 = EDGE_LOOP('', (#146, #151, #152, #153));
#146 = ORIENTED_EDGE('', *, *, #147, .F.);
#147 = EDGE_CURVE('', #44, #124, #148, .T.);
#148 = B_SPLINE_CURVE_WITH_KNOTS('', 1, (#149, #150), .UNSPECIFIED., .F., .U., (2, 2), (0., 1.), .UNSPECIFIED.);
#149 = CARTESIAN_POINT('', (27.5, 30., -20.));
#150 = CARTESIAN_POINT('', (27.5, 30., 20.));
#151 = ORIENTED_EDGE('', *, *, #66, .F.);
#152 = ORIENTED_EDGE('', *, *, #109, .T.);
#153 = ORIENTED_EDGE('', *, *, #131, .T.);
#154 = B_SPLINE_SURFACE_WITH_KNOTS('', 1, 1, ((#155, #156), (#157, #158)), .UNSPECIFIED., .F., .F., .U., (2, 2), (2, 2), (0., 40.), (0., 80.), .UNSPECIFIED.);
#155 = CARTESIAN_POINT('', (-40., 30., -20.));
#156 = CARTESIAN_POINT('', (40., 30., -20.));
#157 = CARTESIAN_POINT('', (-40., 30., 20.));
#158 = CARTESIAN_POINT('', (40., 30., 20.));
#159 = ADVANCED_FACE('', (#160), #166, .F.);
#160 = FACE_OUTER_BOUND('', #161, .F.);
#161 = EDGE_LOOP('', (#162, #163, #164, #165));
#162 = ORIENTED_EDGE('', *, *, #147, .F.);
#163 = ORIENTED_EDGE('', *, *, #43, .T.);
#164 = ORIENTED_EDGE('', *, *, #79, .T.);
#165 = ORIENTED_EDGE('', *, *, #123, .F.);
#166 = (
   BOUNDED_SURFACE ()
   B_SPLINE_SURFACE (2, 1, ((#167, #168), (#169, #170), (#171, #172), (#173, #174), (#175, #176), (#177, #178), (#179, #180), (#181, #182), (#183, #184)), .UNSPECIFIED., .T., .F., .U.)
   B_SPLINE_SURFACE_WITH_KNOTS ((3, 2, 2, 2, 3), (2, 2), (0., 19.6349540849362, 39.2699081698724, 58.9048622548086, 78.5398163397448), (0., 60.), .UNSPECIFIED.)
   GEOMETRIC_REPRESENTATION_ITEM ()
   RATIONAL_B_SPLINE_SURFACE (((1., 1.), (0.707106781186548, 0.707106781186548), (1., 1.), (0.707106781186548, 0.707106781186548), (1., 1.), (0.707106781186548, 0.707106781186548), (1., 1.), (0.707106781186548, 0.707106781186548), (1., 1.)))
   REPRESENTATION_ITEM ('')
   SURFACE ()
);
#167 = CARTESIAN_POINT('', (52.5, 30., -40.));
#168 = CARTESIAN_POINT('', (52.5, 30., 20.));
#169 = CARTESIAN_POINT('', (52.5, 42.5, -40.));
#170 = CARTESIAN_POINT('', (52.5, 42.5, 20.));
#171 = CARTESIAN_POINT('', (40., 42.5, -40.));
#172 = CARTESIAN_POINT('', (40., 42.5, 20.));
#173 = CARTESIAN_POINT('', (27.5, 42.5, -40.));
#174 = CARTESIAN_POINT('', (27.5, 42.5, 20.));
#175 = CARTESIAN_POINT('', (27.5, 30., -40.));
#176 = CARTESIAN_POINT('', (27.5, 30., 20.));
#177 = CARTESIAN_POINT('', (27.5, 17.5, -40.));
#178 = CARTESIAN_POINT('', (27.5, 17.5, 20.));
#179 = CARTESIAN_POINT('', (40., 17.5, -40.));
#180 = CARTESIAN_POINT('', (40., 17.5, 20.));
#181 = CARTESIAN_POINT('', (52.5, 17.5, -40.));
#182 = CARTESIAN_POINT('', (52.5, 17.5, 20.));
#183 = CARTESIAN_POINT('', (52.5, 30., -40.));
#184 = CARTESIAN_POINT('', (52.5, 30., 20.));
#185 = DRAUGHTING_MODEL('', (#193, #385, #617), #620);
#186 = PRESENTATION_STYLE_ASSIGNMENT((#187));
#187 = SURFACE_STYLE_USAGE(.POSITIVE., #188);
#188 = SURFACE_SIDE_STYLE('', (#189));
#189 = SURFACE_STYLE_FILL_AREA(#190);
#190 = FILL_AREA_STYLE('', (#191));
#191 = FILL_AREA_STYLE_COLOUR('', #192);
#192 = COLOUR_RGB('', 0.50196078431373, 0.50196078431373, 0.50196078431373);
#193 = STYLED_ITEM('', (#186), #1);
#194 = MANIFOLD_SOLID_BREP('Solid0', #195);
#195 = CLOSED_SHELL('', (#196, #232, #268, #290, #312, #336, #352));
#196 = ADVANCED_FACE('', (#197), #227, .T.);
#197 = FACE_OUTER_BOUND('', #198, .T.);
#198 = EDGE_LOOP('', (#199, #208, #215, #222));
#199 = ORIENTED_EDGE('', *, *, #200, .F.);
#200 = EDGE_CURVE('', #201, #203, #205, .T.);
#201 = VERTEX_POINT('', #202);
#202 = CARTESIAN_POINT('', (-40., 50., -20.));
#203 = VERTEX_POINT('', #204);
#204 = CARTESIAN_POINT('', (-40., 50., 20.));
#205 = B_SPLINE_CURVE_WITH_KNOTS('', 1, (#206, #207), .UNSPECIFIED., .F., .U., (2, 2), (0., 40.), .UNSPECIFIED.);
#206 = CARTESIAN_POINT('', (-40., 50., -20.));
#207 = CARTESIAN_POINT('', (-40., 50., 20.));
#208 = ORIENTED_EDGE('', *, *, #209, .T.);
#209 = EDGE_CURVE('', #201, #210, #212, .T.);
#210 = VERTEX_POINT('', #211);
#211 = CARTESIAN_POINT('', (40., 50., -20.));
#212 = B_SPLINE_CURVE_WITH_KNOTS('', 1, (#213, #214), .UNSPECIFIED., .F., .U., (2, 2), (0., 80.), .UNSPECIFIED.);
#213 = CARTESIAN_POINT('', (-40., 50., -20.));
#214 = CARTESIAN_POINT('', (40., 50., -20.));
#215 = ORIENTED_EDGE('', *, *, #216, .T.);
#216 = EDGE_CURVE('', #210, #217, #219, .T.);
#217 = VERTEX_POINT('', #218);
#218 = CARTESIAN_POINT('', (40., 50., 20.));
#219 = B_SPLINE_CURVE_WITH_KNOTS('', 1, (#220, #221), .UNSPECIFIED., .F., .U., (2, 2), (0., 40.), .UNSPECIFIED.);
#220 = CARTESIAN_POINT('', (40., 50., -20.));
#221 = CARTESIAN_POINT('', (40., 50., 20.));
#222 = ORIENTED_EDGE('', *, *, #223, .F.);
#223 = EDGE_CURVE('', #203, #217, #224, .T.);
#224 = B_SPLINE_CURVE_WITH_KNOTS('', 1, (#225, #226), .UNSPECIFIED., .F., .U., (2, 2), (0., 80.), .UNSPECIFIED.);
#225 = CARTESIAN_POINT('', (-40., 50., 20.));
#226 = CARTESIAN_POINT('', (40., 50., 20.));
#227 = B_SPLINE_SURFACE_WITH_KNOTS('', 1, 1, ((#228, #229), (#230, #231)), .UNSPECIFIED., .F., .F., .U., (2, 2), (2, 2), (0., 80.), (0., 40.), .UNSPECIFIED.);
#228 = CARTESIAN_POINT('', (-40., 50., -20.));
#229 = CARTESIAN_POINT('', (-40., 50., 20.));
#230 = CARTESIAN_POINT('', (40., 50., -20.));
#231 = CARTESIAN_POINT('', (40., 50., 20.));
#232 = ADVANCED_FACE('', (#233), #263, .T.);
#233 = FACE_OUTER_BOUND('', #234, .T.);
#234 = EDGE_LOOP('', (#235, #245, #250, #251, #258));
#235 = ORIENTED_EDGE('', *, *, #236, .T.);
#236 = EDGE_CURVE('', #237, #239, #241, .T.);
#237 = VERTEX_POINT('', #238);
#238 = CARTESIAN_POINT('', (27.5, 110., -20.));
#239 = VERTEX_POINT('', #240);
#240 = CARTESIAN_POINT('', (40., 97.5, -20.));
#241 = (
   BOUNDED_CURVE ()
   B_SPLINE_CURVE (2, (#242, #243, #244), .UNSPECIFIED., .F., .U.)
   B_SPLINE_CURVE_WITH_KNOTS ((3, 3), (0., 1.), .UNSPECIFIED.)
   CURVE ()
   GEOMETRIC_REPRESENTATION_ITEM ()
   RATIONAL_B_SPLINE_CURVE ((1., 0.707106781186548, 1.))
   REPRESENTATION_ITEM ('')
);
#242 = CARTESIAN_POINT('', (27.5, 110., -20.));
#243 = CARTESIAN_POINT('', (27.5, 97.5, -20.));
#244 = CARTESIAN_POINT('', (40., 97.5, -20.));
#245 = ORIENTED_EDGE('', *, *, #246, .F.);
#246 = EDGE_CURVE('', #210, #239, #247, .T.);
#247 = B_SPLINE_CURVE_WITH_KNOTS('', 1, (#248, #249), .UNSPECIFIED., .F., .U., (2, 2), (0., 47.5), .UNSPECIFIED.);
#248 = CARTESIAN_POINT('', (40., 50., -20.));
#249 = CARTESIAN_POINT('', (40., 97.5, -20.));
#250 = ORIENTED_EDGE('', *, *, #209, .F.);
#251 = ORIENTED_EDGE('', *, *, #252, .T.);
#252 = EDGE_CURVE('', #201, #253, #255, .T.);
#253 = VERTEX_POINT('', #254);
#254 = CARTESIAN_POINT('', (-40., 110., -20.));
#255 = B_SPLINE_CURVE_WITH_KNOTS('', 1, (#256, #257), .UNSPECIFIED., .F., .U., (2, 2), (0., 60.), .UNSPECIFIED.);
#256 = CARTESIAN_POINT('', (-40., 50., -20.));
#257 = CARTESIAN_POINT('', (-40., 110., -20.));
#258 = ORIENTED_EDGE('', *, *, #259, .T.);
#259 = EDGE_CURVE('', #253, #237, #260, .T.);
#260 = B_SPLINE_CURVE_WITH_KNOTS('', 1, (#261, #262), .UNSPECIFIED., .F., .U., (2, 2), (0., 67.5), .UNSPECIFIED.);
#261 = CARTESIAN_POINT('', (-40., 110., -20.));
#262 = CARTESIAN_POINT('', (27.5, 110., -20.));
#263 = B_SPLINE_SURFACE_WITH_KNOTS('', 1, 1, ((#264, #265), (#266, #267)), .UNSPECIFIED., .F., .F., .U., (2, 2), (2, 2), (0., 60.), (0., 80.), .UNSPECIFIED.);
#264 = CARTESIAN_POINT('', (-40., 50., -20.));
#265 = CARTESIAN_POINT('', (40., 50., -20.));
#266 = CARTESIAN_POINT('', (-40., 110., -20.));
#267 = CARTESIAN_POINT('', (40., 110., -20.));
#268 = ADVANCED_FACE('', (#269), #285, .T.);
#269 = FACE_OUTER_BOUND('', #270, .T.);
#270 = EDGE_LOOP('', (#271, #278, #283, #284));
#271 = ORIENTED_EDGE('', *, *, #272, .T.);
#272 = EDGE_CURVE('', #239, #273, #275, .T.);
#273 = VERTEX_POINT('', #274);
#274 = CARTESIAN_POINT('', (40., 97.5, 20.));
#275 = B_SPLINE_CURVE_WITH_KNOTS('', 1, (#276, #277), .UNSPECIFIED., .F., .U., (2, 2), (0., 1.), .UNSPECIFIED.);
#276 = CARTESIAN_POINT('', (40., 97.5, -20.));
#277 = CARTESIAN_POINT('', (40., 97.5, 20.));
#278 = ORIENTED_EDGE('', *, *, #279, .F.);
#279 = EDGE_CURVE('', #217, #273, #280, .T.);
#280 = B_SPLINE_CURVE_WITH_KNOTS('', 1, (#281, #282), .UNSPECIFIED., .F., .U., (2, 2), (0., 47.5), .UNSPECIFIED.);
#281 = CARTESIAN_POINT('', (40., 50., 20.));
#282 = CARTESIAN_POINT('', (40., 97.5, 20.));
#283 = ORIENTED_EDGE('', *, *, #216, .F.);
#284 = ORIENTED_EDGE('', *, *, #246, .T.);
#285 = B_SPLINE_SURFACE_WITH_KNOTS('', 1, 1, ((#286, #287), (#288, #289)), .UNSPECIFIED., .F., .F., .U., (2, 2), (2, 2), (0., 60.), (0., 40.), .UNSPECIFIED.);
#286 = CARTESIAN_POINT('', (40., 50., -20.));
#287 = CARTESIAN_POINT('', (40., 50., 20.));
#288 = CARTESIAN_POINT('', (40., 110., -20.));
#289 = CARTESIAN_POINT('', (40., 110., 20.));
#290 = ADVANCED_FACE('', (#291), #307, .T.);
#291 = FACE_OUTER_BOUND('', #292, .T.);
#292 = EDGE_LOOP('', (#293, #294, #301, #306));
#293 = ORIENTED_EDGE('', *, *, #200, .T.);
#294 = ORIENTED_EDGE('', *, *, #295, .T.);
#295 = EDGE_CURVE('', #203, #296, #298, .T.);
#296 = VERTEX_POINT('', #297);
#297 = CARTESIAN_POINT('', (-40., 110., 20.));
#298 = B_SPLINE_CURVE_WITH_KNOTS('', 1, (#299, #300), .UNSPECIFIED., .F., .U., (2, 2), (0., 60.), .UNSPECIFIED.);
#299 = CARTESIAN_POINT('', (-40., 50., 20.));
#300 = CARTESIAN_POINT('', (-40., 110., 20.));
#301 = ORIENTED_EDGE('', *, *, #302, .F.);
#302 = EDGE_CURVE('', #253, #296, #303, .T.);
#303 = B_SPLINE_CURVE_WITH_KNOTS('', 1, (#304, #305), .UNSPECIFIED., .F., .U., (2, 2), (0., 40.), .UNSPECIFIED.);
#304 = CARTESIAN_POINT('', (-40., 110., -20.));
#305 = CARTESIAN_POINT('', (-40., 110., 20.));
#306 = ORIENTED_EDGE('', *, *, #252, .F.);
#307 = B_SPLINE_SURFACE_WITH_KNOTS('', 1, 1, ((#308, #309), (#310, #311)), .UNSPECIFIED., .F., .F., .U., (2, 2), (2, 2), (0., 40.), (0., 60.), .UNSPECIFIED.);
#308 = CARTESIAN_POINT('', (-40., 50., -20.));
#309 = CARTESIAN_POINT('', (-40., 110., -20.));
#310 = CARTESIAN_POINT('', (-40., 50., 20.));
#311 = CARTESIAN_POINT('', (-40., 110., 20.));
#312 = ADVANCED_FACE('', (#313), #331, .T.);
#313 = FACE_OUTER_BOUND('', #314, .T.);
#314 = EDGE_LOOP('', (#315, #323, #328, #329, #330));
#315 = ORIENTED_EDGE('', *, *, #316, .F.);
#316 = EDGE_CURVE('', #317, #273, #319, .T.);
#317 = VERTEX_POINT('', #318);
#318 = CARTESIAN_POINT('', (27.5, 110., 20.));
#319 = (
   BOUNDED_CURVE ()
   B_SPLINE_CURVE (2, (#320, #321, #322), .UNSPECIFIED., .F., .U.)
   B_SPLINE_CURVE_WITH_KNOTS ((3, 3), (0., 1.), .UNSPECIFIED.)
   CURVE ()
   GEOMETRIC_REPRESENTATION_ITEM ()
   RATIONAL_B_SPLINE_CURVE ((1., 0.707106781186548, 1.))
   REPRESENTATION_ITEM ('')
);
#320 = CARTESIAN_POINT('', (27.5, 110., 20.));
#321 = CARTESIAN_POINT('', (27.5, 97.5, 20.));
#322 = CARTESIAN_POINT('', (40., 97.5, 20.));
#323 = ORIENTED_EDGE('', *, *, #324, .F.);
#324 = EDGE_CURVE('', #296, #317, #325, .T.);
#325 = B_SPLINE_CURVE_WITH_KNOTS('', 1, (#326, #327), .UNSPECIFIED., .F., .U., (2, 2), (0., 67.5), .UNSPECIFIED.);
#326 = CARTESIAN_POINT('', (-40., 110., 20.));
#327 = CARTESIAN_POINT('', (27.5, 110., 20.));
#328 = ORIENTED_EDGE('', *, *, #295, .F.);
#329 = ORIENTED_EDGE('', *, *, #223, .T.);
#330 = ORIENTED_EDGE('', *, *, #279, .T.);
#331 = B_SPLINE_SURFACE_WITH_KNOTS('', 1, 1, ((#332, #333), (#334, #335)), .UNSPECIFIED., .F., .F., .U., (2, 2), (2, 2), (0., 80.), (0., 60.), .UNSPECIFIED.);
#332 = CARTESIAN_POINT('', (-40., 50., 20.));
#333 = CARTESIAN_POINT('', (-40., 110., 20.));
#334 = CARTESIAN_POINT('', (40., 50., 20.));
#335 = CARTESIAN_POINT('', (40., 110., 20.));
#336 = ADVANCED_FACE('', (#337), #347, .T.);
#337 = FACE_OUTER_BOUND('', #338, .T.);
#338 = EDGE_LOOP('', (#339, #344, #345, #346));
#339 = ORIENTED_EDGE('', *, *, #340, .F.);
#340 = EDGE_CURVE('', #237, #317, #341, .T.);
#341 = B_SPLINE_CURVE_WITH_KNOTS('', 1, (#342, #343), .UNSPECIFIED., .F., .U., (2, 2), (0., 1.), .UNSPECIFIED.);
#342 = CARTESIAN_POINT('', (27.5, 110., -20.));
#343 = CARTESIAN_POINT('', (27.5, 110., 20.));
#344 = ORIENTED_EDGE('', *, *, #259, .F.);
#345 = ORIENTED_EDGE('', *, *, #302, .T.);
#346 = ORIENTED_EDGE('', *, *, #324, .T.);
#347 = B_SPLINE_SURFACE_WITH_KNOTS('', 1, 1, ((#348, #349), (#350, #351)), .UNSPECIFIED., .F., .F., .U., (2, 2), (2, 2), (0., 40.), (0., 80.), .UNSPECIFIED.);
#348 = CARTESIAN_POINT('', (-40., 110., -20.));
#349 = CARTESIAN_POINT('', (40., 110., -20.));
#350 = CARTESIAN_POINT('', (-40., 110., 20.));
#351 = CARTESIAN_POINT('', (40., 110., 20.));
#352 = ADVANCED_FACE('', (#353), #359, .F.);
#353 = FACE_OUTER_BOUND('', #354, .F.);
#354 = EDGE_LOOP('', (#355, #356, #357, #358));
#355 = ORIENTED_EDGE('', *, *, #340, .F.);
#356 = ORIENTED_EDGE('', *, *, #236, .T.);
#357 = ORIENTED_EDGE('', *, *, #272, .T.);
#358 = ORIENTED_EDGE('', *, *, #316, .F.);
#359 = (
   BOUNDED_SURFACE ()
   B_SPLINE_SURFACE (2, 1, ((#360, #361), (#362, #363), (#364, #365), (#366, #367), (#368, #369), (#370, #371), (#372, #373), (#374, #375), (#376, #377)), .UNSPECIFIED., .T., .F., .U.)
   B_SPLINE_SURFACE_WITH_KNOTS ((3, 2, 2, 2, 3), (2, 2), (0., 19.6349540849362, 39.2699081698724, 58.9048622548086, 78.5398163397448), (0., 60.), .UNSPECIFIED.)
   GEOMETRIC_REPRESENTATION_ITEM ()
   RATIONAL_B_SPLINE_SURFACE (((1., 1.), (0.707106781186548, 0.707106781186548), (1., 1.), (0.707106781186548, 0.707106781186548), (1., 1.), (0.707106781186548, 0.707106781186548), (1., 1.), (0.707106781186548, 0.707106781186548), (1., 1.)))
   REPRESENTATION_ITEM ('')
   SURFACE ()
);
#360 = CARTESIAN_POINT('', (52.5, 110., -40.));
#361 = CARTESIAN_POINT('', (52.5, 110., 20.));
#362 = CARTESIAN_POINT('', (52.5, 122.5, -40.));
#363 = CARTESIAN_POINT('', (52.5, 122.5, 20.));
#364 = CARTESIAN_POINT('', (40., 122.5, -40.));
#365 = CARTESIAN_POINT('', (40., 122.5, 20.));
#366 = CARTESIAN_POINT('', (27.5, 122.5, -40.));
#367 = CARTESIAN_POINT('', (27.5, 122.5, 20.));
#368 = CARTESIAN_POINT('', (27.5, 110., -40.));
#369 = CARTESIAN_POINT('', (27.5, 110., 20.));
#370 = CARTESIAN_POINT('', (27.5, 97.5, -40.));
#371 = CARTESIAN_POINT('', (27.5, 97.5, 20.));
#372 = CARTESIAN_POINT('', (40., 97.5, -40.));
#373 = CARTESIAN_POINT('', (40., 97.5, 20.));
#374 = CARTESIAN_POINT('', (52.5, 97.5, -40.));
#375 = CARTESIAN_POINT('', (52.5, 97.5, 20.));
#376 = CARTESIAN_POINT('', (52.5, 110., -40.));
#377 = CARTESIAN_POINT('', (52.5, 110., 20.));
#378 = PRESENTATION_STYLE_ASSIGNMENT((#379));
#379 = SURFACE_STYLE_USAGE(.POSITIVE., #380);
#380 = SURFACE_SIDE_STYLE('', (#381));
#381 = SURFACE_STYLE_FILL_AREA(#382);
#382 = FILL_AREA_STYLE('', (#383));
#383 = FILL_AREA_STYLE_COLOUR('', #384);
#384 = COLOUR_RGB('', 0.50196078431373, 0.50196078431373, 0.50196078431373);
#385 = STYLED_ITEM('', (#378), #194);
#386 = MANIFOLD_SOLID_BREP('Solid1', #387);
#387 = CLOSED_SHELL('', (#388, #410, #479, #515, #543, #570, #582, #598));
#388 = ADVANCED_FACE('', (#389), #405, .T.);
#389 = FACE_OUTER_BOUND('', #390, .T.);
#390 = EDGE_LOOP('', (#391));
#391 = ORIENTED_EDGE('', *, *, #392, .F.);
#392 = EDGE_CURVE('', #393, #393, #395, .T.);
#393 = VERTEX_POINT('', #394);
#394 = CARTESIAN_POINT('', (52.5, 190., -40.));
#395 = (
   BOUNDED_CURVE ()
   B_SPLINE_CURVE (2, (#396, #397, #398, #399, #400, #401, #402, #403, #404), .UNSPECIFIED., .T., .U.)
   B_SPLINE_CURVE_WITH_KNOTS ((3, 2, 2, 2, 3), (0., 19.6349540849362, 39.2699081698724, 58.9048622548086, 78.5398163397448), .UNSPECIFIED.)
   CURVE ()
   GEOMETRIC_REPRESENTATION_ITEM ()
   RATIONAL_B_SPLINE_CURVE ((1., 0.707106781186548, 1., 0.707106781186548, 1., 0.707106781186548, 1., 0.707106781186548, 1.))
   REPRESENTATION_ITEM ('')
);
#396 = CARTESIAN_POINT('', (52.5, 190., -40.));
#397 = CARTESIAN_POINT('', (52.5, 202.5, -40.));
#398 = CARTESIAN_POINT('', (40., 202.5, -40.));
#399 = CARTESIAN_POINT('', (27.5, 202.5, -40.));
#400 = CARTESIAN_POINT('', (27.5, 190., -40.));
#401 = CARTESIAN_POINT('', (27.5, 177.5, -40.));
#402 = CARTESIAN_POINT('', (40., 177.5, -40.));
#403 = CARTESIAN_POINT('', (52.5, 177.5, -40.));
#404 = CARTESIAN_POINT('', (52.5, 190., -40.));
#405 = B_SPLINE_SURFACE_WITH_KNOTS('', 1, 1, ((#406, #407), (#408, #409)), .UNSPECIFIED., .F., .F., .U., (2, 2), (2, 2), (0., 1.), (0., 1.), .UNSPECIFIED.);
#406 = CARTESIAN_POINT('', (59.4454364826301, 170.55456351737, -40.));
#407 = CARTESIAN_POINT('', (59.4454364826301, 209.44543648263, -40.));
#408 = CARTESIAN_POINT('', (20.5545635173699, 170.55456351737, -40.));
#409 = CARTESIAN_POINT('', (20.5545635173699, 209.44543648263, -40.));
#410 = ADVANCED_FACE('', (#411), #460, .T.);
#411 = FACE_OUTER_BOUND('', #412, .T.);
#412 = EDGE_LOOP('', (#413, #422, #432, #437, #438, #439, #447, #454));
#413 = ORIENTED_EDGE('', *, *, #414, .T.);
#414 = EDGE_CURVE('', #415, #417, #419, .T.);
#415 = VERTEX_POINT('', #416);
#416 = CARTESIAN_POINT('', (27.5, 190., -20.));
#417 = VERTEX_POINT('', #418);
#418 = CARTESIAN_POINT('', (27.5, 190., 20.));
#419 = B_SPLINE_CURVE_WITH_KNOTS('', 1, (#420, #421), .UNSPECIFIED., .F., .U., (2, 2), (0., 1.), .UNSPECIFIED.);
#420 = CARTESIAN_POINT('', (27.5, 190., -20.));
#421 = CARTESIAN_POINT('', (27.5, 190., 20.));
#422 = ORIENTED_EDGE('', *, *, #423, .F.);
#423 = EDGE_CURVE('', #424, #417, #426, .T.);
#424 = VERTEX_POINT('', #425);
#425 = CARTESIAN_POINT('', (52.5, 190., 20.));
#426 = (
   BOUNDED_CURVE ()
   B_SPLINE_CURVE (2, (#427, #428, #429, #430, #431), .UNSPECIFIED., .F., .U.)
   B_SPLINE_CURVE_WITH_KNOTS ((3, 2, 3), (0., 19.6349540849362, 39.2699081698724), .UNSPECIFIED.)
   CURVE ()
   GEOMETRIC_REPRESENTATION_ITEM ()
   RATIONAL_B_SPLINE_CURVE ((1., 0.707106781186548, 1., 0.707106781186548, 1.))
   REPRESENTATION_ITEM ('')
);
#427 = CARTESIAN_POINT('', (52.5, 190., 20.));
#428 = CARTESIAN_POINT('', (52.5, 202.5, 20.));
#429 = CARTESIAN_POINT('', (40., 202.5, 20.));
#430 = CARTESIAN_POINT('', (27.5, 202.5, 20.));
#431 = CARTESIAN_POINT('', (27.5, 190., 20.));
#432 = ORIENTED_EDGE('', *, *, #433, .F.);
#433 = EDGE_CURVE('', #393, #424, #434, .T.);
#434 = B_SPLINE_CURVE_WITH_KNOTS('', 1, (#435, #436), .UNSPECIFIED., .F., .U., (2, 2), (0., 60.), .UNSPECIFIED.);
#435 = CARTESIAN_POINT('', (52.5, 190., -40.));
#436 = CARTESIAN_POINT('', (52.5, 190., 20.));
#437 = ORIENTED_EDGE('', *, *, #392, .T.);
#438 = ORIENTED_EDGE('', *, *, #433, .T.);
#439 = ORIENTED_EDGE('', *, *, #440, .F.);
#440 = EDGE_CURVE('', #441, #424, #443, .T.);
#441 = VERTEX_POINT('', #442);
#442 = CARTESIAN_POINT('', (40., 177.5, 20.));
#443 = (
   BOUNDED_CURVE ()
   B_SPLINE_CURVE (2, (#444, #445, #446), .UNSPECIFIED., .F., .U.)
   B_SPLINE_CURVE_WITH_KNOTS ((3, 3), (58.9048622548086, 78.5398163397448), .UNSPECIFIED.)
   CURVE ()
   GEOMETRIC_REPRESENTATION_ITEM ()
   RATIONAL_B_SPLINE_CURVE ((1., 0.707106781186548, 1.))
   REPRESENTATION_ITEM ('')
);
#444 = CARTESIAN_POINT('', (40., 177.5, 20.));
#445 = CARTESIAN_POINT('', (52.5, 177.5, 20.));
#446 = CARTESIAN_POINT('', (52.5, 190., 20.));
#447 = ORIENTED_EDGE('', *, *, #448, .F.);
#448 = EDGE_CURVE('', #449, #441, #451, .T.);
#449 = VERTEX_POINT('', #450);
#450 = CARTESIAN_POINT('', (40., 177.5, -20.));
#451 = B_SPLINE_CURVE_WITH_KNOTS('', 1, (#452, #453), .UNSPECIFIED., .F., .U., (2, 2), (0., 1.), .UNSPECIFIED.);
#452 = CARTESIAN_POINT('', (40., 177.5, -20.));
#453 = CARTESIAN_POINT('', (40., 177.5, 20.));
#454 = ORIENTED_EDGE('', *, *, #455, .F.);
#455 = EDGE_CURVE('', #415, #449, #456, .T.);
#456 = (
   BOUNDED_CURVE ()
   B_SPLINE_CURVE (2, (#457, #458, #459), .UNSPECIFIED., .F., .U.)
   B_SPLINE_CURVE_WITH_KNOTS ((3, 3), (0., 1.), .UNSPECIFIED.)
   CURVE ()
   GEOMETRIC_REPRESENTATION_ITEM ()
   RATIONAL_B_SPLINE_CURVE ((1., 0.707106781186548, 1.))
   REPRESENTATION_ITEM ('')
);
#457 = CARTESIAN_POINT('', (27.5, 190., -20.));
#458 = CARTESIAN_POINT('', (27.5, 177.5, -20.));
#459 = CARTESIAN_POINT('', (40., 177.5, -20.));
#460 = (
   BOUNDED_SURFACE ()
   B_SPLINE_SURFACE (2, 1, ((#461, #462), (#463, #464), (#465, #466), (#467, #468), (#469, #470), (#471, #472), (#473, #474), (#475, #476), (#477, #478)), .UNSPECIFIED., .T., .F., .U.)
   B_SPLINE_SURFACE_WITH_KNOTS ((3, 2, 2, 2, 3), (2, 2), (0., 19.6349540849362, 39.2699081698724, 58.9048622548086, 78.5398163397448), (0., 60.), .UNSPECIFIED.)
   GEOMETRIC_REPRESENTATION_ITEM ()
   RATIONAL_B_SPLINE_SURFACE (((1., 1.), (0.707106781186548, 0.707106781186548), (1., 1.), (0.707106781186548, 0.707106781186548), (1., 1.), (0.707106781186548, 0.707106781186548), (1., 1.), (0.707106781186548, 0.707106781186548), (1., 1.)))
   REPRESENTATION_ITEM ('')
   SURFACE ()
);
#461 = CARTESIAN_POINT('', (52.5, 190., -40.));
#462 = CARTESIAN_POINT('', (52.5, 190., 20.));
#463 = CARTESIAN_POINT('', (52.5, 202.5, -40.));
#464 = CARTESIAN_POINT('', (52.5, 202.5, 20.));
#465 = CARTESIAN_POINT('', (40., 202.5, -40.));
#466 = CARTESIAN_POINT('', (40., 202.5, 20.));
#467 = CARTESIAN_POINT('', (27.5, 202.5, -40.));
#468 = CARTESIAN_POINT('', (27.5, 202.5, 20.));
#469 = CARTESIAN_POINT('', (27.5, 190., -40.));
#470 = CARTESIAN_POINT('', (27.5, 190., 20.));
#471 = CARTESIAN_POINT('', (27.5, 177.5, -40.));
#472 = CARTESIAN_POINT('', (27.5, 177.5, 20.));
#473 = CARTESIAN_POINT('', (40., 177.5, -40.));
#474 = CARTESIAN_POINT('', (40., 177.5, 20.));
#475 = CARTESIAN_POINT('', (52.5, 177.5, -40.));
#476 = CARTESIAN_POINT('', (52.5, 177.5, 20.));
#477 = CARTESIAN_POINT('', (52.5, 190., -40.));
#478 = CARTESIAN_POINT('', (52.5, 190., 20.));
#479 = ADVANCED_FACE('', (#480), #510, .T.);
#480 = FACE_OUTER_BOUND('', #481, .T.);
#481 = EDGE_LOOP('', (#482, #483, #490, #497, #504, #509));
#482 = ORIENTED_EDGE('', *, *, #423, .T.);
#483 = ORIENTED_EDGE('', *, *, #484, .F.);
#484 = EDGE_CURVE('', #485, #417, #487, .T.);
#485 = VERTEX_POINT('', #486);
#486 = CARTESIAN_POINT('', (-40., 190., 20.));
#487 = B_SPLINE_CURVE_WITH_KNOTS('', 1, (#488, #489), .UNSPECIFIED., .F., .U., (2, 2), (0., 67.5), .UNSPECIFIED.);
#488 = CARTESIAN_POINT('', (-40., 190., 20.));
#489 = CARTESIAN_POINT('', (27.5, 190., 20.));
#490 = ORIENTED_EDGE('', *, *, #491, .F.);
#491 = EDGE_CURVE('', #492, #485, #494, .T.);
#492 = VERTEX_POINT('', #493);
#493 = CARTESIAN_POINT('', (-40., 130., 20.));
#494 = B_SPLINE_CURVE_WITH_KNOTS('', 1, (#495, #496), .UNSPECIFIED., .F., .U., (2, 2), (0., 60.), .UNSPECIFIED.);
#495 = CARTESIAN_POINT('', (-40., 130., 20.));
#496 = CARTESIAN_POINT('', (-40., 190., 20.));
#497 = ORIENTED_EDGE('', *, *, #498, .T.);
#498 = EDGE_CURVE('', #492, #499, #501, .T.);
#499 = VERTEX_POINT('', #500);
#500 = CARTESIAN_POINT('', (40., 130., 20.));
#501 = B_SPLINE_CURVE_WITH_KNOTS('', 1, (#502, #503), .UNSPECIFIED., .F., .U., (2, 2), (0., 80.), .UNSPECIFIED.);
#502 = CARTESIAN_POINT('', (-40., 130., 20.));
#503 = CARTESIAN_POINT('', (40., 130., 20.));
#504 = ORIENTED_EDGE('', *, *, #505, .T.);
#505 = EDGE_CURVE('', #499, #441, #506, .T.);
#506 = B_SPLINE_CURVE_WITH_KNOTS('', 1, (#507, #508), .UNSPECIFIED., .F., .U., (2, 2), (0., 47.5), .UNSPECIFIED.);
#507 = CARTESIAN_POINT('', (40., 130., 20.));
#508 = CARTESIAN_POINT('', (40., 177.5, 20.));
#509 = ORIENTED_EDGE('', *, *, #440, .T.);
#510 = B_SPLINE_SURFACE_WITH_KNOTS('', 1, 1, ((#511, #512), (#513, #514)), .UNSPECIFIED., .F., .F., .U., (2, 2), (2, 2), (0., 99.4454364826301), (0., 79.4454364826301), .UNSPECIFIED.);
#511 = CARTESIAN_POINT('', (-40., 130., 20.));
#512 = CARTESIAN_POINT('', (-40., 209.44543648263, 20.));
#513 = CARTESIAN_POINT('', (59.4454364826301, 130., 20.));
#514 = CARTESIAN_POINT('', (59.4454364826301, 209.44543648263, 20.));
#515 = ADVANCED_FACE('', (#516), #538, .T.);
#516 = FACE_OUTER_BOUND('', #517, .T.);
#517 = EDGE_LOOP('', (#518, #525, #532, #537));
#518 = ORIENTED_EDGE('', *, *, #519, .F.);
#519 = EDGE_CURVE('', #520, #492, #522, .T.);
#520 = VERTEX_POINT('', #521);
#521 = CARTESIAN_POINT('', (-40., 130., -20.));
#522 = B_SPLINE_CURVE_WITH_KNOTS('', 1, (#523, #524), .UNSPECIFIED., .F., .U., (2, 2), (0., 40.), .UNSPECIFIED.);
#523 = CARTESIAN_POINT('', (-40., 130., -20.));
#524 = CARTESIAN_POINT('', (-40., 130., 20.));
#525 = ORIENTED_EDGE('', *, *, #526, .T.);
#526 = EDGE_CURVE('', #520, #527, #529, .T.);
#527 = VERTEX_POINT('', #528);
#528 = CARTESIAN_POINT('', (40., 130., -20.));
#529 = B_SPLINE_CURVE_WITH_KNOTS('', 1, (#530, #531), .UNSPECIFIED., .F., .U., (2, 2), (0., 80.), .UNSPECIFIED.);
#530 = CARTESIAN_POINT('', (-40., 130., -20.));
#531 = CARTESIAN_POINT('', (40., 130., -20.));
#532 = ORIENTED_EDGE('', *, *, #533, .T.);
#533 = EDGE_CURVE('', #527, #499, #534, .T.);
#534 = B_SPLINE_CURVE_WITH_KNOTS('', 1, (#535, #536), .UNSPECIFIED., .F., .U., (2, 2), (0., 40.), .UNSPECIFIED.);
#535 = CARTESIAN_POINT('', (40., 130., -20.));
#536 = CARTESIAN_POINT('', (40., 130., 20.));
#537 = ORIENTED_EDGE('', *, *, #498, .F.);
#538 = B_SPLINE_SURFACE_WITH_KNOTS('', 1, 1, ((#539, #540), (#541, #542)), .UNSPECIFIED., .F., .F., .U., (2, 2), (2, 2), (0., 80.), (0., 40.), .UNSPECIFIED.);
#539 = CARTESIAN_POINT('', (-40., 130., -20.));
#540 = CARTESIAN_POINT('', (-40., 130., 20.));
#541 = CARTESIAN_POINT('', (40., 130., -20.));
#542 = CARTESIAN_POINT('', (40., 130., 20.));
#543 = ADVANCED_FACE('', (#544), #565, .T.);
#544 = FACE_OUTER_BOUND('', #545, .T.);
#545 = EDGE_LOOP('', (#546, #547, #552, #553, #560));
#546 = ORIENTED_EDGE('', *, *, #455, .T.);
#547 = ORIENTED_EDGE('', *, *, #548, .F.);
#548 = EDGE_CURVE('', #527, #449, #549, .T.);
#549 = B_SPLINE_CURVE_WITH_KNOTS('', 1, (#550, #551), .UNSPECIFIED., .F., .U., (2, 2), (0., 47.5), .UNSPECIFIED.);
#550 = CARTESIAN_POINT('', (40., 130., -20.));
#551 = CARTESIAN_POINT('', (40., 177.5, -20.));
#552 = ORIENTED_EDGE('', *, *, #526, .F.);
#553 = ORIENTED_EDGE('', *, *, #554, .T.);
#554 = EDGE_CURVE('', #520, #555, #557, .T.);
#555 = VERTEX_POINT('', #556);
#556 = CARTESIAN_POINT('', (-40., 190., -20.));
#557 = B_SPLINE_CURVE_WITH_KNOTS('', 1, (#558, #559), .UNSPECIFIED., .F., .U., (2, 2), (0., 60.), .UNSPECIFIED.);
#558 = CARTESIAN_POINT('', (-40., 130., -20.));
#559 = CARTESIAN_POINT('', (-40., 190., -20.));
#560 = ORIENTED_EDGE('', *, *, #561, .T.);
#561 = EDGE_CURVE('', #555, #415, #562, .T.);
#562 = B_SPLINE_CURVE_WITH_KNOTS('', 1, (#563, #564), .UNSPECIFIED., .F., .U., (2, 2), (0., 67.5), .UNSPECIFIED.);
#563 = CARTESIAN_POINT('', (-40., 190., -20.));
#564 = CARTESIAN_POINT('', (27.5, 190., -20.));
#565 = B_SPLINE_SURFACE_WITH_KNOTS('', 1, 1, ((#566, #567), (#568, #569)), .UNSPECIFIED., .F., .F., .U., (2, 2), (2, 2), (0., 60.), (0., 80.), .UNSPECIFIED.);
#566 = CARTESIAN_POINT('', (-40., 130., -20.));
#567 = CARTESIAN_POINT('', (40., 130., -20.));
#568 = CARTESIAN_POINT('', (-40., 190., -20.));
#569 = CARTESIAN_POINT('', (40., 190., -20.));
#570 = ADVANCED_FACE('', (#571), #577, .T.);
#571 = FACE_OUTER_BOUND('', #572, .T.);
#572 = EDGE_LOOP('', (#573, #574, #575, #576));
#573 = ORIENTED_EDGE('', *, *, #448, .T.);
#574 = ORIENTED_EDGE('', *, *, #505, .F.);
#575 = ORIENTED_EDGE('', *, *, #533, .F.);
#576 = ORIENTED_EDGE('', *, *, #548, .T.);
#577 = B_SPLINE_SURFACE_WITH_KNOTS('', 1, 1, ((#578, #579), (#580, #581)), .UNSPECIFIED., .F., .F., .U., (2, 2), (2, 2), (0., 60.), (0., 40.), .UNSPECIFIED.);
#578 = CARTESIAN_POINT('', (40., 130., -20.));
#579 = CARTESIAN_POINT('', (40., 130., 20.));
#580 = CARTESIAN_POINT('', (40., 190., -20.));
#581 = CARTESIAN_POINT('', (40., 190., 20.));
#582 = ADVANCED_FACE('', (#583), #593, .T.);
#583 = FACE_OUTER_BOUND('', #584, .T.);
#584 = EDGE_LOOP('', (#585, #586, #587, #592));
#585 = ORIENTED_EDGE('', *, *, #519, .T.);
#586 = ORIENTED_EDGE('', *, *, #491, .T.);
#587 = ORIENTED_EDGE('', *, *, #588, .F.);
#588 = EDGE_CURVE('', #555, #485, #589, .T.);
#589 = B_SPLINE_CURVE_WITH_KNOTS('', 1, (#590, #591), .UNSPECIFIED., .F., .U., (2, 2), (0., 40.), .UNSPECIFIED.);
#590 = CARTESIAN_POINT('', (-40., 190., -20.));
#591 = CARTESIAN_POINT('', (-40., 190., 20.));
#592 = ORIENTED_EDGE('', *, *, #554, .F.);
#593 = B_SPLINE_SURFACE_WITH_KNOTS('', 1, 1, ((#594, #595), (#596, #597)), .UNSPECIFIED., .F., .F., .U., (2, 2), (2, 2), (0., 40.), (0., 60.), .UNSPECIFIED.);
#594 = CARTESIAN_POINT('', (-40., 130., -20.));
#595 = CARTESIAN_POINT('', (-40., 190., -20.));
#596 = CARTESIAN_POINT('', (-40., 130., 20.));
#597 = CARTESIAN_POINT('', (-40., 190., 20.));
#598 = ADVANCED_FACE('', (#599), #605, .T.);
#599 = FACE_OUTER_BOUND('', #600, .T.);
#600 = EDGE_LOOP('', (#601, #602, #603, #604));
#601 = ORIENTED_EDGE('', *, *, #414, .F.);
#602 = ORIENTED_EDGE('', *, *, #561, .F.);
#603 = ORIENTED_EDGE('', *, *, #588, .T.);
#604 = ORIENTED_EDGE('', *, *, #484, .T.);
#605 = B_SPLINE_SURFACE_WITH_KNOTS('', 1, 1, ((#606, #607), (#608, #609)), .UNSPECIFIED., .F., .F., .U., (2, 2), (2, 2), (0., 40.), (0., 80.), .UNSPECIFIED.);
#606 = CARTESIAN_POINT('', (-40., 190., -20.));
#607 = CARTESIAN_POINT('', (40., 190., -20.));
#608 = CARTESIAN_POINT('', (-40., 190., 20.));
#609 = CARTESIAN_POINT('', (40., 190., 20.));
#610 = PRESENTATION_STYLE_ASSIGNMENT((#611));
#611 = SURFACE_STYLE_USAGE(.POSITIVE., #612);
#612 = SURFACE_SIDE_STYLE('', (#613));
#613 = SURFACE_STYLE_FILL_AREA(#614);
#614 = FILL_AREA_STYLE('', (#615));
#615 = FILL_AREA_STYLE_COLOUR('', #616);
#616 = COLOUR_RGB('', 0.50196078431373, 0.50196078431373, 0.50196078431373);
#617 = STYLED_ITEM('', (#610), #386);
#618 = CARTESIAN_POINT('Origin', (0., 0., 0.));
#619 = GEOMETRIC_SET('', (#618));
#620 = (
   GEOMETRIC_REPRESENTATION_CONTEXT (3)
   GLOBAL_UNCERTAINTY_ASSIGNED_CONTEXT ((#622))
   GLOBAL_UNIT_ASSIGNED_CONTEXT ((#621, #623, #624))
   REPRESENTATION_CONTEXT ('', '3D')
);
#621 = (
   LENGTH_UNIT ()
   NAMED_UNIT (*)
   SI_UNIT (.MILLI., .METRE.)
);
#622 = UNCERTAINTY_MEASURE_WITH_UNIT(LENGTH_MEASURE(1.E-6), #621, 'DISTANCE_ACCURACY_VALUE', '');
#623 = (
   NAMED_UNIT (*)
   SI_UNIT ($, .STERADIAN.)
   SOLID_ANGLE_UNIT ()
);
#624 = (
   NAMED_UNIT (*)
   PLANE_ANGLE_UNIT ()
   SI_UNIT ($, .RADIAN.)
);
#625 = SHAPE_REPRESENTATION('', (#640), #620);
#626 = PRODUCT_DEFINITION_SHAPE('', '', #627);
#627 = PRODUCT_DEFINITION('', '', #630, #634);
#628 = APPLICATION_CONTEXT('configuration controlled 3D designs of mechanical parts and assemblies');
#629 = APPLICATION_PROTOCOL_DEFINITION('International Standard', 'automotive_design', 2002, #628);
#630 = PRODUCT_DEFINITION_FORMATION_WITH_SPECIFIED_SOURCE('', '', #631, .NOT_KNOWN.);
#631 = PRODUCT('ToolReuse', 'ToolReuse', '', (#632));
#632 = PRODUCT_CONTEXT('', #628, 'mechanical');
#633 = PRODUCT_RELATED_PRODUCT_CATEGORY('detail', '', (#631));
#634 = PRODUCT_DEFINITION_CONTEXT('part definition', #628, 'design');
#635 = SHAPE_DEFINITION_REPRESENTATION(#626, #625);
#636 = SHAPE_REPRESENTATION_RELATIONSHIP('', '', #625, #637);
#637 = SHAPE_REPRESENTATION('', (#619), #620);
#638 = SHAPE_REPRESENTATION_RELATIONSHIP('', '', #625, #639);
#639 = ADVANCED_BREP_SHAPE_REPRESENTATION('', (#1, #194, #386), #620);
#640 = AXIS2_PLACEMENT_3D('', #641, #642, #643);
#641 = CARTESIAN_POINT('', (0., 0., 0.));
#642 = DIRECTION('', (0., 0., 1.));
#643 = DIRECTION('', (1., 0., 0.));
ENDSEC;
END-ISO-10303-21;
