ISO-10303-21;
HEADER;
FILE_DESCRIPTION(('STEP'), '1');
FILE_NAME('MultiVsSeq', '2026-04-14T20:43:03', (''), (''), 'Express 3.1.2.0', 'Express Tool', 'Unknown');
FILE_SCHEMA(('AUTOMOTIVE_DESIGN'));
ENDSEC;

DATA;
#1 = SHELL_BASED_SURFACE_MODEL('Solid', (#2, #269, #406));
#2 = CLOSED_SHELL('', (#3, #39, #67, #95, #115, #127, #169, #197, #225, #245, #257));
#3 = ADVANCED_FACE('', (#4), #34, .F.);
#4 = FACE_OUTER_BOUND('', #5, .F.);
#5 = EDGE_LOOP('', (#6, #15, #22, #29));
#6 = ORIENTED_EDGE('', *, *, #7, .T.);
#7 = EDGE_CURVE('', #8, #10, #12, .T.);
#8 = VERTEX_POINT('', #9);
#9 = CARTESIAN_POINT('', (0., 40., -10.));
#10 = VERTEX_POINT('', #11);
#11 = CARTESIAN_POINT('', (0., 40., 10.));
#12 = B_SPLINE_CURVE_WITH_KNOTS('', 1, (#13, #14), .UNSPECIFIED., .F., .U., (2, 2), (0., 1.), .UNSPECIFIED.);
#13 = CARTESIAN_POINT('', (0., 40., -10.));
#14 = CARTESIAN_POINT('', (0., 40., 10.));
#15 = ORIENTED_EDGE('', *, *, #16, .T.);
#16 = EDGE_CURVE('', #10, #17, #19, .T.);
#17 = VERTEX_POINT('', #18);
#18 = CARTESIAN_POINT('', (0., 85., 10.));
#19 = B_SPLINE_CURVE_WITH_KNOTS('', 1, (#20, #21), .UNSPECIFIED., .F., .U., (2, 2), (5., 50.), .UNSPECIFIED.);
#20 = CARTESIAN_POINT('', (0., 40., 10.));
#21 = CARTESIAN_POINT('', (0., 85., 10.));
#22 = ORIENTED_EDGE('', *, *, #23, .F.);
#23 = EDGE_CURVE('', #24, #17, #26, .T.);
#24 = VERTEX_POINT('', #25);
#25 = CARTESIAN_POINT('', (0., 85., -10.));
#26 = B_SPLINE_CURVE_WITH_KNOTS('', 1, (#27, #28), .UNSPECIFIED., .F., .U., (2, 2), (0., 20.), .UNSPECIFIED.);
#27 = CARTESIAN_POINT('', (0., 85., -10.));
#28 = CARTESIAN_POINT('', (0., 85., 10.));
#29 = ORIENTED_EDGE('', *, *, #30, .F.);
#30 = EDGE_CURVE('', #8, #24, #31, .T.);
#31 = B_SPLINE_CURVE_WITH_KNOTS('', 1, (#32, #33), .UNSPECIFIED., .F., .U., (2, 2), (5., 50.), .UNSPECIFIED.);
#32 = CARTESIAN_POINT('', (0., 40., -10.));
#33 = CARTESIAN_POINT('', (0., 85., -10.));
#34 = B_SPLINE_SURFACE_WITH_KNOTS('', 1, 1, ((#35, #36), (#37, #38)), .UNSPECIFIED., .F., .F., .U., (2, 2), (2, 2), (0., 20.), (0., 50.), .UNSPECIFIED.);
#35 = CARTESIAN_POINT('', (0., 35., -10.));
#36 = CARTESIAN_POINT('', (0., 85., -10.));
#37 = CARTESIAN_POINT('', (0., 35., 10.));
#38 = CARTESIAN_POINT('', (0., 85., 10.));
#39 = ADVANCED_FACE('', (#40), #62, .F.);
#40 = FACE_OUTER_BOUND('', #41, .F.);
#41 = EDGE_LOOP('', (#42, #49, #56, #61));
#42 = ORIENTED_EDGE('', *, *, #43, .T.);
#43 = EDGE_CURVE('', #10, #44, #46, .T.);
#44 = VERTEX_POINT('', #45);
#45 = CARTESIAN_POINT('', (20., 40., 10.));
#46 = B_SPLINE_CURVE_WITH_KNOTS('', 1, (#47, #48), .UNSPECIFIED., .F., .U., (2, 2), (0., 1.), .UNSPECIFIED.);
#47 = CARTESIAN_POINT('', (3.5527136788005E-15, 40., 10.));
#48 = CARTESIAN_POINT('', (20., 40., 10.));
#49 = ORIENTED_EDGE('', *, *, #50, .T.);
#50 = EDGE_CURVE('', #44, #51, #53, .T.);
#51 = VERTEX_POINT('', #52);
#52 = CARTESIAN_POINT('', (20., 85., 10.));
#53 = B_SPLINE_CURVE_WITH_KNOTS('', 1, (#54, #55), .UNSPECIFIED., .F., .U., (2, 2), (5., 50.), .UNSPECIFIED.);
#54 = CARTESIAN_POINT('', (20., 40., 10.));
#55 = CARTESIAN_POINT('', (20., 85., 10.));
#56 = ORIENTED_EDGE('', *, *, #57, .F.);
#57 = EDGE_CURVE('', #17, #51, #58, .T.);
#58 = B_SPLINE_CURVE_WITH_KNOTS('', 1, (#59, #60), .UNSPECIFIED., .F., .U., (2, 2), (0., 20.), .UNSPECIFIED.);
#59 = CARTESIAN_POINT('', (0., 85., 10.));
#60 = CARTESIAN_POINT('', (20., 85., 10.));
#61 = ORIENTED_EDGE('', *, *, #16, .F.);
#62 = B_SPLINE_SURFACE_WITH_KNOTS('', 1, 1, ((#63, #64), (#65, #66)), .UNSPECIFIED., .F., .F., .U., (2, 2), (2, 2), (0., 20.), (0., 50.), .UNSPECIFIED.);
#63 = CARTESIAN_POINT('', (0., 35., 10.));
#64 = CARTESIAN_POINT('', (0., 85., 10.));
#65 = CARTESIAN_POINT('', (20., 35., 10.));
#66 = CARTESIAN_POINT('', (20., 85., 10.));
#67 = ADVANCED_FACE('', (#68), #90, .F.);
#68 = FACE_OUTER_BOUND('', #69, .F.);
#69 = EDGE_LOOP('', (#70, #77, #84, #89));
#70 = ORIENTED_EDGE('', *, *, #71, .T.);
#71 = EDGE_CURVE('', #44, #72, #74, .T.);
#72 = VERTEX_POINT('', #73);
#73 = CARTESIAN_POINT('', (20., 40., -10.));
#74 = B_SPLINE_CURVE_WITH_KNOTS('', 1, (#75, #76), .UNSPECIFIED., .F., .U., (2, 2), (0., 1.), .UNSPECIFIED.);
#75 = CARTESIAN_POINT('', (20., 40., 10.));
#76 = CARTESIAN_POINT('', (20., 40., -10.));
#77 = ORIENTED_EDGE('', *, *, #78, .T.);
#78 = EDGE_CURVE('', #72, #79, #81, .T.);
#79 = VERTEX_POINT('', #80);
#80 = CARTESIAN_POINT('', (20., 85., -10.));
#81 = B_SPLINE_CURVE_WITH_KNOTS('', 1, (#82, #83), .UNSPECIFIED., .F., .U., (2, 2), (5., 50.), .UNSPECIFIED.);
#82 = CARTESIAN_POINT('', (20., 40., -10.));
#83 = CARTESIAN_POINT('', (20., 85., -10.));
#84 = ORIENTED_EDGE('', *, *, #85, .T.);
#85 = EDGE_CURVE('', #79, #51, #86, .T.);
#86 = B_SPLINE_CURVE_WITH_KNOTS('', 1, (#87, #88), .UNSPECIFIED., .F., .U., (2, 2), (0., 20.), .UNSPECIFIED.);
#87 = CARTESIAN_POINT('', (20., 85., -10.));
#88 = CARTESIAN_POINT('', (20., 85., 10.));
#89 = ORIENTED_EDGE('', *, *, #50, .F.);
#90 = B_SPLINE_SURFACE_WITH_KNOTS('', 1, 1, ((#91, #92), (#93, #94)), .UNSPECIFIED., .F., .F., .U., (2, 2), (2, 2), (0., 50.), (0., 20.), .UNSPECIFIED.);
#91 = CARTESIAN_POINT('', (20., 35., -10.));
#92 = CARTESIAN_POINT('', (20., 35., 10.));
#93 = CARTESIAN_POINT('', (20., 85., -10.));
#94 = CARTESIAN_POINT('', (20., 85., 10.));
#95 = ADVANCED_FACE('', (#96), #110, .F.);
#96 = FACE_OUTER_BOUND('', #97, .F.);
#97 = EDGE_LOOP('', (#98, #103, #104, #109));
#98 = ORIENTED_EDGE('', *, *, #99, .T.);
#99 = EDGE_CURVE('', #72, #8, #100, .T.);
#100 = B_SPLINE_CURVE_WITH_KNOTS('', 1, (#101, #102), .UNSPECIFIED., .F., .U., (2, 2), (0., 1.), .UNSPECIFIED.);
#101 = CARTESIAN_POINT('', (20., 40., -10.));
#102 = CARTESIAN_POINT('', (-3.5527136788005E-15, 40., -10.));
#103 = ORIENTED_EDGE('', *, *, #30, .T.);
#104 = ORIENTED_EDGE('', *, *, #105, .T.);
#105 = EDGE_CURVE('', #24, #79, #106, .T.);
#106 = B_SPLINE_CURVE_WITH_KNOTS('', 1, (#107, #108), .UNSPECIFIED., .F., .U., (2, 2), (0., 20.), .UNSPECIFIED.);
#107 = CARTESIAN_POINT('', (0., 85., -10.));
#108 = CARTESIAN_POINT('', (20., 85., -10.));
#109 = ORIENTED_EDGE('', *, *, #78, .F.);
#110 = B_SPLINE_SURFACE_WITH_KNOTS('', 1, 1, ((#111, #112), (#113, #114)), .UNSPECIFIED., .F., .F., .U., (2, 2), (2, 2), (0., 50.), (0., 20.), .UNSPECIFIED.);
#111 = CARTESIAN_POINT('', (0., 35., -10.));
#112 = CARTESIAN_POINT('', (20., 35., -10.));
#113 = CARTESIAN_POINT('', (0., 85., -10.));
#114 = CARTESIAN_POINT('', (20., 85., -10.));
#115 = ADVANCED_FACE('', (#116), #122, .F.);
#116 = FACE_OUTER_BOUND('', #117, .F.);
#117 = EDGE_LOOP('', (#118, #119, #120, #121));
#118 = ORIENTED_EDGE('', *, *, #23, .T.);
#119 = ORIENTED_EDGE('', *, *, #57, .T.);
#120 = ORIENTED_EDGE('', *, *, #85, .F.);
#121 = ORIENTED_EDGE('', *, *, #105, .F.);
#122 = B_SPLINE_SURFACE_WITH_KNOTS('', 1, 1, ((#123, #124), (#125, #126)), .UNSPECIFIED., .F., .F., .U., (2, 2), (2, 2), (0., 20.), (0., 20.), .UNSPECIFIED.);
#123 = CARTESIAN_POINT('', (0., 85., -10.));
#124 = CARTESIAN_POINT('', (20., 85., -10.));
#125 = CARTESIAN_POINT('', (0., 85., 10.));
#126 = CARTESIAN_POINT('', (20., 85., 10.));
#127 = ADVANCED_FACE('', (#128, #158), #164, .F.);
#128 = FACE_OUTER_BOUND('', #129, .F.);
#129 = EDGE_LOOP('', (#130, #139, #146, #153));
#130 = ORIENTED_EDGE('', *, *, #131, .T.);
#131 = EDGE_CURVE('', #132, #134, #136, .T.);
#132 = VERTEX_POINT('', #133);
#133 = CARTESIAN_POINT('', (-50., 40., -30.));
#134 = VERTEX_POINT('', #135);
#135 = CARTESIAN_POINT('', (-50., 40., 30.));
#136 = B_SPLINE_CURVE_WITH_KNOTS('', 1, (#137, #138), .UNSPECIFIED., .F., .U., (2, 2), (0., 60.), .UNSPECIFIED.);
#137 = CARTESIAN_POINT('', (-50., 40., -30.));
#138 = CARTESIAN_POINT('', (-50., 40., 30.));
#139 = ORIENTED_EDGE('', *, *, #140, .T.);
#140 = EDGE_CURVE('', #134, #141, #143, .T.);
#141 = VERTEX_POINT('', #142);
#142 = CARTESIAN_POINT('', (50., 40., 30.));
#143 = B_SPLINE_CURVE_WITH_KNOTS('', 1, (#144, #145), .UNSPECIFIED., .F., .U., (2, 2), (0., 100.), .UNSPECIFIED.);
#144 = CARTESIAN_POINT('', (-50., 40., 30.));
#145 = CARTESIAN_POINT('', (50., 40., 30.));
#146 = ORIENTED_EDGE('', *, *, #147, .F.);
#147 = EDGE_CURVE('', #148, #141, #150, .T.);
#148 = VERTEX_POINT('', #149);
#149 = CARTESIAN_POINT('', (50., 40., -30.));
#150 = B_SPLINE_CURVE_WITH_KNOTS('', 1, (#151, #152), .UNSPECIFIED., .F., .U., (2, 2), (0., 60.), .UNSPECIFIED.);
#151 = CARTESIAN_POINT('', (50., 40., -30.));
#152 = CARTESIAN_POINT('', (50., 40., 30.));
#153 = ORIENTED_EDGE('', *, *, #154, .F.);
#154 = EDGE_CURVE('', #132, #148, #155, .T.);
#155 = B_SPLINE_CURVE_WITH_KNOTS('', 1, (#156, #157), .UNSPECIFIED., .F., .U., (2, 2), (0., 100.), .UNSPECIFIED.);
#156 = CARTESIAN_POINT('', (-50., 40., -30.));
#157 = CARTESIAN_POINT('', (50., 40., -30.));
#158 = FACE_BOUND('', #159, .F.);
#159 = EDGE_LOOP('', (#160, #161, #162, #163));
#160 = ORIENTED_EDGE('', *, *, #71, .F.);
#161 = ORIENTED_EDGE('', *, *, #43, .F.);
#162 = ORIENTED_EDGE('', *, *, #7, .F.);
#163 = ORIENTED_EDGE('', *, *, #99, .F.);
#164 = B_SPLINE_SURFACE_WITH_KNOTS('', 1, 1, ((#165, #166), (#167, #168)), .UNSPECIFIED., .F., .F., .U., (2, 2), (2, 2), (0., 60.), (0., 100.), .UNSPECIFIED.);
#165 = CARTESIAN_POINT('', (-50., 40., -30.));
#166 = CARTESIAN_POINT('', (50., 40., -30.));
#167 = CARTESIAN_POINT('', (-50., 40., 30.));
#168 = CARTESIAN_POINT('', (50., 40., 30.));
#169 = ADVANCED_FACE('', (#170), #192, .F.);
#170 = FACE_OUTER_BOUND('', #171, .F.);
#171 = EDGE_LOOP('', (#172, #179, #186, #191));
#172 = ORIENTED_EDGE('', *, *, #173, .F.);
#173 = EDGE_CURVE('', #174, #134, #176, .T.);
#174 = VERTEX_POINT('', #175);
#175 = CARTESIAN_POINT('', (-50., -40., 30.));
#176 = B_SPLINE_CURVE_WITH_KNOTS('', 1, (#177, #178), .UNSPECIFIED., .F., .U., (2, 2), (0., 80.), .UNSPECIFIED.);
#177 = CARTESIAN_POINT('', (-50., -40., 30.));
#178 = CARTESIAN_POINT('', (-50., 40., 30.));
#179 = ORIENTED_EDGE('', *, *, #180, .T.);
#180 = EDGE_CURVE('', #174, #181, #183, .T.);
#181 = VERTEX_POINT('', #182);
#182 = CARTESIAN_POINT('', (50., -40., 30.));
#183 = B_SPLINE_CURVE_WITH_KNOTS('', 1, (#184, #185), .UNSPECIFIED., .F., .U., (2, 2), (0., 100.), .UNSPECIFIED.);
#184 = CARTESIAN_POINT('', (-50., -40., 30.));
#185 = CARTESIAN_POINT('', (50., -40., 30.));
#186 = ORIENTED_EDGE('', *, *, #187, .T.);
#187 = EDGE_CURVE('', #181, #141, #188, .T.);
#188 = B_SPLINE_CURVE_WITH_KNOTS('', 1, (#189, #190), .UNSPECIFIED., .F., .U., (2, 2), (0., 80.), .UNSPECIFIED.);
#189 = CARTESIAN_POINT('', (50., -40., 30.));
#190 = CARTESIAN_POINT('', (50., 40., 30.));
#191 = ORIENTED_EDGE('', *, *, #140, .F.);
#192 = B_SPLINE_SURFACE_WITH_KNOTS('', 1, 1, ((#193, #194), (#195, #196)), .UNSPECIFIED., .F., .F., .U., (2, 2), (2, 2), (0., 100.), (0., 80.), .UNSPECIFIED.);
#193 = CARTESIAN_POINT('', (-50., -40., 30.));
#194 = CARTESIAN_POINT('', (-50., 40., 30.));
#195 = CARTESIAN_POINT('', (50., -40., 30.));
#196 = CARTESIAN_POINT('', (50., 40., 30.));
#197 = ADVANCED_FACE('', (#198), #220, .F.);
#198 = FACE_OUTER_BOUND('', #199, .F.);
#199 = EDGE_LOOP('', (#200, #207, #214, #219));
#200 = ORIENTED_EDGE('', *, *, #201, .F.);
#201 = EDGE_CURVE('', #202, #174, #204, .T.);
#202 = VERTEX_POINT('', #203);
#203 = CARTESIAN_POINT('', (-50., -40., -30.));
#204 = B_SPLINE_CURVE_WITH_KNOTS('', 1, (#205, #206), .UNSPECIFIED., .F., .U., (2, 2), (0., 60.), .UNSPECIFIED.);
#205 = CARTESIAN_POINT('', (-50., -40., -30.));
#206 = CARTESIAN_POINT('', (-50., -40., 30.));
#207 = ORIENTED_EDGE('', *, *, #208, .T.);
#208 = EDGE_CURVE('', #202, #209, #211, .T.);
#209 = VERTEX_POINT('', #210);
#210 = CARTESIAN_POINT('', (50., -40., -30.));
#211 = B_SPLINE_CURVE_WITH_KNOTS('', 1, (#212, #213), .UNSPECIFIED., .F., .U., (2, 2), (0., 100.), .UNSPECIFIED.);
#212 = CARTESIAN_POINT('', (-50., -40., -30.));
#213 = CARTESIAN_POINT('', (50., -40., -30.));
#214 = ORIENTED_EDGE('', *, *, #215, .T.);
#215 = EDGE_CURVE('', #209, #181, #216, .T.);
#216 = B_SPLINE_CURVE_WITH_KNOTS('', 1, (#217, #218), .UNSPECIFIED., .F., .U., (2, 2), (0., 60.), .UNSPECIFIED.);
#217 = CARTESIAN_POINT('', (50., -40., -30.));
#218 = CARTESIAN_POINT('', (50., -40., 30.));
#219 = ORIENTED_EDGE('', *, *, #180, .F.);
#220 = B_SPLINE_SURFACE_WITH_KNOTS('', 1, 1, ((#221, #222), (#223, #224)), .UNSPECIFIED., .F., .F., .U., (2, 2), (2, 2), (0., 100.), (0., 60.), .UNSPECIFIED.);
#221 = CARTESIAN_POINT('', (-50., -40., -30.));
#222 = CARTESIAN_POINT('', (-50., -40., 30.));
#223 = CARTESIAN_POINT('', (50., -40., -30.));
#224 = CARTESIAN_POINT('', (50., -40., 30.));
#225 = ADVANCED_FACE('', (#226), #240, .F.);
#226 = FACE_OUTER_BOUND('', #227, .F.);
#227 = EDGE_LOOP('', (#228, #233, #234, #239));
#228 = ORIENTED_EDGE('', *, *, #229, .T.);
#229 = EDGE_CURVE('', #202, #132, #230, .T.);
#230 = B_SPLINE_CURVE_WITH_KNOTS('', 1, (#231, #232), .UNSPECIFIED., .F., .U., (2, 2), (0., 80.), .UNSPECIFIED.);
#231 = CARTESIAN_POINT('', (-50., -40., -30.));
#232 = CARTESIAN_POINT('', (-50., 40., -30.));
#233 = ORIENTED_EDGE('', *, *, #154, .T.);
#234 = ORIENTED_EDGE('', *, *, #235, .F.);
#235 = EDGE_CURVE('', #209, #148, #236, .T.);
#236 = B_SPLINE_CURVE_WITH_KNOTS('', 1, (#237, #238), .UNSPECIFIED., .F., .U., (2, 2), (0., 80.), .UNSPECIFIED.);
#237 = CARTESIAN_POINT('', (50., -40., -30.));
#238 = CARTESIAN_POINT('', (50., 40., -30.));
#239 = ORIENTED_EDGE('', *, *, #208, .F.);
#240 = B_SPLINE_SURFACE_WITH_KNOTS('', 1, 1, ((#241, #242), (#243, #244)), .UNSPECIFIED., .F., .F., .U., (2, 2), (2, 2), (0., 80.), (0., 100.), .UNSPECIFIED.);
#241 = CARTESIAN_POINT('', (-50., -40., -30.));
#242 = CARTESIAN_POINT('', (50., -40., -30.));
#243 = CARTESIAN_POINT('', (-50., 40., -30.));
#244 = CARTESIAN_POINT('', (50., 40., -30.));
#245 = ADVANCED_FACE('', (#246), #252, .F.);
#246 = FACE_OUTER_BOUND('', #247, .F.);
#247 = EDGE_LOOP('', (#248, #249, #250, #251));
#248 = ORIENTED_EDGE('', *, *, #215, .F.);
#249 = ORIENTED_EDGE('', *, *, #235, .T.);
#250 = ORIENTED_EDGE('', *, *, #147, .T.);
#251 = ORIENTED_EDGE('', *, *, #187, .F.);
#252 = B_SPLINE_SURFACE_WITH_KNOTS('', 1, 1, ((#253, #254), (#255, #256)), .UNSPECIFIED., .F., .F., .U., (2, 2), (2, 2), (0., 80.), (0., 60.), .UNSPECIFIED.);
#253 = CARTESIAN_POINT('', (50., -40., -30.));
#254 = CARTESIAN_POINT('', (50., -40., 30.));
#255 = CARTESIAN_POINT('', (50., 40., -30.));
#256 = CARTESIAN_POINT('', (50., 40., 30.));
#257 = ADVANCED_FACE('', (#258), #264, .F.);
#258 = FACE_OUTER_BOUND('', #259, .F.);
#259 = EDGE_LOOP('', (#260, #261, #262, #263));
#260 = ORIENTED_EDGE('', *, *, #201, .T.);
#261 = ORIENTED_EDGE('', *, *, #173, .T.);
#262 = ORIENTED_EDGE('', *, *, #131, .F.);
#263 = ORIENTED_EDGE('', *, *, #229, .F.);
#264 = B_SPLINE_SURFACE_WITH_KNOTS('', 1, 1, ((#265, #266), (#267, #268)), .UNSPECIFIED., .F., .F., .U., (2, 2), (2, 2), (0., 60.), (0., 80.), .UNSPECIFIED.);
#265 = CARTESIAN_POINT('', (-50., -40., -30.));
#266 = CARTESIAN_POINT('', (-50., 40., -30.));
#267 = CARTESIAN_POINT('', (-50., -40., 30.));
#268 = CARTESIAN_POINT('', (-50., 40., 30.));
#269 = CLOSED_SHELL('', (#270, #306, #334, #356, #378, #394));
#270 = ADVANCED_FACE('', (#271), #301, .F.);
#271 = FACE_OUTER_BOUND('', #272, .F.);
#272 = EDGE_LOOP('', (#273, #282, #289, #296));
#273 = ORIENTED_EDGE('', *, *, #274, .T.);
#274 = EDGE_CURVE('', #275, #277, #279, .T.);
#275 = VERTEX_POINT('', #276);
#276 = CARTESIAN_POINT('', (65., -5., -20.));
#277 = VERTEX_POINT('', #278);
#278 = CARTESIAN_POINT('', (65., -5., 20.));
#279 = B_SPLINE_CURVE_WITH_KNOTS('', 1, (#280, #281), .UNSPECIFIED., .F., .U., (2, 2), (0., 40.), .UNSPECIFIED.);
#280 = CARTESIAN_POINT('', (65., -5., -20.));
#281 = CARTESIAN_POINT('', (65., -5., 20.));
#282 = ORIENTED_EDGE('', *, *, #283, .T.);
#283 = EDGE_CURVE('', #277, #284, #286, .T.);
#284 = VERTEX_POINT('', #285);
#285 = CARTESIAN_POINT('', (65., 25., 20.));
#286 = B_SPLINE_CURVE_WITH_KNOTS('', 1, (#287, #288), .UNSPECIFIED., .F., .U., (2, 2), (0., 30.), .UNSPECIFIED.);
#287 = CARTESIAN_POINT('', (65., -5., 20.));
#288 = CARTESIAN_POINT('', (65., 25., 20.));
#289 = ORIENTED_EDGE('', *, *, #290, .F.);
#290 = EDGE_CURVE('', #291, #284, #293, .T.);
#291 = VERTEX_POINT('', #292);
#292 = CARTESIAN_POINT('', (65., 25., -20.));
#293 = B_SPLINE_CURVE_WITH_KNOTS('', 1, (#294, #295), .UNSPECIFIED., .F., .U., (2, 2), (0., 40.), .UNSPECIFIED.);
#294 = CARTESIAN_POINT('', (65., 25., -20.));
#295 = CARTESIAN_POINT('', (65., 25., 20.));
#296 = ORIENTED_EDGE('', *, *, #297, .F.);
#297 = EDGE_CURVE('', #275, #291, #298, .T.);
#298 = B_SPLINE_CURVE_WITH_KNOTS('', 1, (#299, #300), .UNSPECIFIED., .F., .U., (2, 2), (0., 30.), .UNSPECIFIED.);
#299 = CARTESIAN_POINT('', (65., -5., -20.));
#300 = CARTESIAN_POINT('', (65., 25., -20.));
#301 = B_SPLINE_SURFACE_WITH_KNOTS('', 1, 1, ((#302, #303), (#304, #305)), .UNSPECIFIED., .F., .F., .U., (2, 2), (2, 2), (0., 40.), (0., 30.), .UNSPECIFIED.);
#302 = CARTESIAN_POINT('', (65., -5., -20.));
#303 = CARTESIAN_POINT('', (65., 25., -20.));
#304 = CARTESIAN_POINT('', (65., -5., 20.));
#305 = CARTESIAN_POINT('', (65., 25., 20.));
#306 = ADVANCED_FACE('', (#307), #329, .F.);
#307 = FACE_OUTER_BOUND('', #308, .F.);
#308 = EDGE_LOOP('', (#309, #310, #317, #324));
#309 = ORIENTED_EDGE('', *, *, #283, .F.);
#310 = ORIENTED_EDGE('', *, *, #311, .T.);
#311 = EDGE_CURVE('', #277, #312, #314, .T.);
#312 = VERTEX_POINT('', #313);
#313 = CARTESIAN_POINT('', (95., -5., 20.));
#314 = B_SPLINE_CURVE_WITH_KNOTS('', 1, (#315, #316), .UNSPECIFIED., .F., .U., (2, 2), (0., 30.), .UNSPECIFIED.);
#315 = CARTESIAN_POINT('', (65., -5., 20.));
#316 = CARTESIAN_POINT('', (95., -5., 20.));
#317 = ORIENTED_EDGE('', *, *, #318, .T.);
#318 = EDGE_CURVE('', #312, #319, #321, .T.);
#319 = VERTEX_POINT('', #320);
#320 = CARTESIAN_POINT('', (95., 25., 20.));
#321 = B_SPLINE_CURVE_WITH_KNOTS('', 1, (#322, #323), .UNSPECIFIED., .F., .U., (2, 2), (0., 30.), .UNSPECIFIED.);
#322 = CARTESIAN_POINT('', (95., -5., 20.));
#323 = CARTESIAN_POINT('', (95., 25., 20.));
#324 = ORIENTED_EDGE('', *, *, #325, .F.);
#325 = EDGE_CURVE('', #284, #319, #326, .T.);
#326 = B_SPLINE_CURVE_WITH_KNOTS('', 1, (#327, #328), .UNSPECIFIED., .F., .U., (2, 2), (0., 30.), .UNSPECIFIED.);
#327 = CARTESIAN_POINT('', (65., 25., 20.));
#328 = CARTESIAN_POINT('', (95., 25., 20.));
#329 = B_SPLINE_SURFACE_WITH_KNOTS('', 1, 1, ((#330, #331), (#332, #333)), .UNSPECIFIED., .F., .F., .U., (2, 2), (2, 2), (0., 30.), (0., 30.), .UNSPECIFIED.);
#330 = CARTESIAN_POINT('', (65., -5., 20.));
#331 = CARTESIAN_POINT('', (65., 25., 20.));
#332 = CARTESIAN_POINT('', (95., -5., 20.));
#333 = CARTESIAN_POINT('', (95., 25., 20.));
#334 = ADVANCED_FACE('', (#335), #351, .F.);
#335 = FACE_OUTER_BOUND('', #336, .F.);
#336 = EDGE_LOOP('', (#337, #338, #345, #350));
#337 = ORIENTED_EDGE('', *, *, #274, .F.);
#338 = ORIENTED_EDGE('', *, *, #339, .T.);
#339 = EDGE_CURVE('', #275, #340, #342, .T.);
#340 = VERTEX_POINT('', #341);
#341 = CARTESIAN_POINT('', (95., -5., -20.));
#342 = B_SPLINE_CURVE_WITH_KNOTS('', 1, (#343, #344), .UNSPECIFIED., .F., .U., (2, 2), (0., 30.), .UNSPECIFIED.);
#343 = CARTESIAN_POINT('', (65., -5., -20.));
#344 = CARTESIAN_POINT('', (95., -5., -20.));
#345 = ORIENTED_EDGE('', *, *, #346, .T.);
#346 = EDGE_CURVE('', #340, #312, #347, .T.);
#347 = B_SPLINE_CURVE_WITH_KNOTS('', 1, (#348, #349), .UNSPECIFIED., .F., .U., (2, 2), (0., 40.), .UNSPECIFIED.);
#348 = CARTESIAN_POINT('', (95., -5., -20.));
#349 = CARTESIAN_POINT('', (95., -5., 20.));
#350 = ORIENTED_EDGE('', *, *, #311, .F.);
#351 = B_SPLINE_SURFACE_WITH_KNOTS('', 1, 1, ((#352, #353), (#354, #355)), .UNSPECIFIED., .F., .F., .U., (2, 2), (2, 2), (0., 30.), (0., 40.), .UNSPECIFIED.);
#352 = CARTESIAN_POINT('', (65., -5., -20.));
#353 = CARTESIAN_POINT('', (65., -5., 20.));
#354 = CARTESIAN_POINT('', (95., -5., -20.));
#355 = CARTESIAN_POINT('', (95., -5., 20.));
#356 = ADVANCED_FACE('', (#357), #373, .F.);
#357 = FACE_OUTER_BOUND('', #358, .F.);
#358 = EDGE_LOOP('', (#359, #360, #367, #372));
#359 = ORIENTED_EDGE('', *, *, #297, .T.);
#360 = ORIENTED_EDGE('', *, *, #361, .T.);
#361 = EDGE_CURVE('', #291, #362, #364, .T.);
#362 = VERTEX_POINT('', #363);
#363 = CARTESIAN_POINT('', (95., 25., -20.));
#364 = B_SPLINE_CURVE_WITH_KNOTS('', 1, (#365, #366), .UNSPECIFIED., .F., .U., (2, 2), (0., 30.), .UNSPECIFIED.);
#365 = CARTESIAN_POINT('', (65., 25., -20.));
#366 = CARTESIAN_POINT('', (95., 25., -20.));
#367 = ORIENTED_EDGE('', *, *, #368, .F.);
#368 = EDGE_CURVE('', #340, #362, #369, .T.);
#369 = B_SPLINE_CURVE_WITH_KNOTS('', 1, (#370, #371), .UNSPECIFIED., .F., .U., (2, 2), (0., 30.), .UNSPECIFIED.);
#370 = CARTESIAN_POINT('', (95., -5., -20.));
#371 = CARTESIAN_POINT('', (95., 25., -20.));
#372 = ORIENTED_EDGE('', *, *, #339, .F.);
#373 = B_SPLINE_SURFACE_WITH_KNOTS('', 1, 1, ((#374, #375), (#376, #377)), .UNSPECIFIED., .F., .F., .U., (2, 2), (2, 2), (0., 30.), (0., 30.), .UNSPECIFIED.);
#374 = CARTESIAN_POINT('', (65., -5., -20.));
#375 = CARTESIAN_POINT('', (95., -5., -20.));
#376 = CARTESIAN_POINT('', (65., 25., -20.));
#377 = CARTESIAN_POINT('', (95., 25., -20.));
#378 = ADVANCED_FACE('', (#379), #389, .F.);
#379 = FACE_OUTER_BOUND('', #380, .F.);
#380 = EDGE_LOOP('', (#381, #382, #383, #388));
#381 = ORIENTED_EDGE('', *, *, #290, .T.);
#382 = ORIENTED_EDGE('', *, *, #325, .T.);
#383 = ORIENTED_EDGE('', *, *, #384, .F.);
#384 = EDGE_CURVE('', #362, #319, #385, .T.);
#385 = B_SPLINE_CURVE_WITH_KNOTS('', 1, (#386, #387), .UNSPECIFIED., .F., .U., (2, 2), (0., 40.), .UNSPECIFIED.);
#386 = CARTESIAN_POINT('', (95., 25., -20.));
#387 = CARTESIAN_POINT('', (95., 25., 20.));
#388 = ORIENTED_EDGE('', *, *, #361, .F.);
#389 = B_SPLINE_SURFACE_WITH_KNOTS('', 1, 1, ((#390, #391), (#392, #393)), .UNSPECIFIED., .F., .F., .U., (2, 2), (2, 2), (0., 40.), (0., 30.), .UNSPECIFIED.);
#390 = CARTESIAN_POINT('', (65., 25., -20.));
#391 = CARTESIAN_POINT('', (95., 25., -20.));
#392 = CARTESIAN_POINT('', (65., 25., 20.));
#393 = CARTESIAN_POINT('', (95., 25., 20.));
#394 = ADVANCED_FACE('', (#395), #401, .F.);
#395 = FACE_OUTER_BOUND('', #396, .F.);
#396 = EDGE_LOOP('', (#397, #398, #399, #400));
#397 = ORIENTED_EDGE('', *, *, #346, .F.);
#398 = ORIENTED_EDGE('', *, *, #368, .T.);
#399 = ORIENTED_EDGE('', *, *, #384, .T.);
#400 = ORIENTED_EDGE('', *, *, #318, .F.);
#401 = B_SPLINE_SURFACE_WITH_KNOTS('', 1, 1, ((#402, #403), (#404, #405)), .UNSPECIFIED., .F., .F., .U., (2, 2), (2, 2), (0., 30.), (0., 40.), .UNSPECIFIED.);
#402 = CARTESIAN_POINT('', (95., -5., -20.));
#403 = CARTESIAN_POINT('', (95., -5., 20.));
#404 = CARTESIAN_POINT('', (95., 25., -20.));
#405 = CARTESIAN_POINT('', (95., 25., 20.));
#406 = CLOSED_SHELL('', (#407, #429, #472));
#407 = ADVANCED_FACE('', (#408), #424, .F.);
#408 = FACE_OUTER_BOUND('', #409, .F.);
#409 = EDGE_LOOP('', (#410));
#410 = ORIENTED_EDGE('', *, *, #411, .F.);
#411 = EDGE_CURVE('', #412, #412, #414, .T.);
#412 = VERTEX_POINT('', #413);
#413 = CARTESIAN_POINT('', (60., 40., 45.));
#414 = (
   BOUNDED_CURVE ()
   B_SPLINE_CURVE (2, (#415, #416, #417, #418, #419, #420, #421, #422, #423), .UNSPECIFIED., .T., .U.)
   B_SPLINE_CURVE_WITH_KNOTS ((3, 2, 2, 2, 3), (0., 15.707963267949, 31.4159265358979, 47.1238898038469, 62.8318530717959), .UNSPECIFIED.)
   CURVE ()
   GEOMETRIC_REPRESENTATION_ITEM ()
   RATIONAL_B_SPLINE_CURVE ((1., 0.707106781186548, 1., 0.707106781186548, 1., 0.707106781186548, 1., 0.707106781186548, 1.))
   REPRESENTATION_ITEM ('')
);
#415 = CARTESIAN_POINT('', (60., 40., 45.));
#416 = CARTESIAN_POINT('', (60., 50., 45.));
#417 = CARTESIAN_POINT('', (50., 50., 45.));
#418 = CARTESIAN_POINT('', (40., 50., 45.));
#419 = CARTESIAN_POINT('', (40., 40., 45.));
#420 = CARTESIAN_POINT('', (40., 30., 45.));
#421 = CARTESIAN_POINT('', (50., 30., 45.));
#422 = CARTESIAN_POINT('', (60., 30., 45.));
#423 = CARTESIAN_POINT('', (60., 40., 45.));
#424 = B_SPLINE_SURFACE_WITH_KNOTS('', 1, 1, ((#425, #426), (#427, #428)), .UNSPECIFIED., .F., .F., .U., (2, 2), (2, 2), (0., 1.), (0., 1.), .UNSPECIFIED.);
#425 = CARTESIAN_POINT('', (65.556349186104, 24.4436508138959, 45.));
#426 = CARTESIAN_POINT('', (65.556349186104, 55.556349186104, 45.));
#427 = CARTESIAN_POINT('', (34.4436508138959, 24.4436508138959, 45.));
#428 = CARTESIAN_POINT('', (34.4436508138959, 55.556349186104, 45.));
#429 = ADVANCED_FACE('', (#430), #453, .F.);
#430 = FACE_OUTER_BOUND('', #431, .F.);
#431 = EDGE_LOOP('', (#432, #439, #440, #441));
#432 = ORIENTED_EDGE('', *, *, #433, .F.);
#433 = EDGE_CURVE('', #412, #434, #436, .T.);
#434 = VERTEX_POINT('', #435);
#435 = CARTESIAN_POINT('', (60., 40., 75.));
#436 = B_SPLINE_CURVE_WITH_KNOTS('', 1, (#437, #438), .UNSPECIFIED., .F., .U., (2, 2), (0., 30.), .UNSPECIFIED.);
#437 = CARTESIAN_POINT('', (60., 40., 45.));
#438 = CARTESIAN_POINT('', (60., 40., 75.));
#439 = ORIENTED_EDGE('', *, *, #411, .T.);
#440 = ORIENTED_EDGE('', *, *, #433, .T.);
#441 = ORIENTED_EDGE('', *, *, #442, .F.);
#442 = EDGE_CURVE('', #434, #434, #443, .T.);
#443 = (
   BOUNDED_CURVE ()
   B_SPLINE_CURVE (2, (#444, #445, #446, #447, #448, #449, #450, #451, #452), .UNSPECIFIED., .T., .U.)
   B_SPLINE_CURVE_WITH_KNOTS ((3, 2, 2, 2, 3), (0., 15.707963267949, 31.4159265358979, 47.1238898038469, 62.8318530717959), .UNSPECIFIED.)
   CURVE ()
   GEOMETRIC_REPRESENTATION_ITEM ()
   RATIONAL_B_SPLINE_CURVE ((1., 0.707106781186548, 1., 0.707106781186548, 1., 0.707106781186548, 1., 0.707106781186548, 1.))
   REPRESENTATION_ITEM ('')
);
#444 = CARTESIAN_POINT('', (60., 40., 75.));
#445 = CARTESIAN_POINT('', (60., 50., 75.));
#446 = CARTESIAN_POINT('', (50., 50., 75.));
#447 = CARTESIAN_POINT('', (40., 50., 75.));
#448 = CARTESIAN_POINT('', (40., 40., 75.));
#449 = CARTESIAN_POINT('', (40., 30., 75.));
#450 = CARTESIAN_POINT('', (50., 30., 75.));
#451 = CARTESIAN_POINT('', (60., 30., 75.));
#452 = CARTESIAN_POINT('', (60., 40., 75.));
#453 = (
   BOUNDED_SURFACE ()
   B_SPLINE_SURFACE (2, 1, ((#454, #455), (#456, #457), (#458, #459), (#460, #461), (#462, #463), (#464, #465), (#466, #467), (#468, #469), (#470, #471)), .UNSPECIFIED., .T., .F., .U.)
   B_SPLINE_SURFACE_WITH_KNOTS ((3, 2, 2, 2, 3), (2, 2), (0., 15.707963267949, 31.4159265358979, 47.1238898038469, 62.8318530717959), (0., 30.), .UNSPECIFIED.)
   GEOMETRIC_REPRESENTATION_ITEM ()
   RATIONAL_B_SPLINE_SURFACE (((1., 1.), (0.707106781186548, 0.707106781186548), (1., 1.), (0.707106781186548, 0.707106781186548), (1., 1.), (0.707106781186548, 0.707106781186548), (1., 1.), (0.707106781186548, 0.707106781186548), (1., 1.)))
   REPRESENTATION_ITEM ('')
   SURFACE ()
);
#454 = CARTESIAN_POINT('', (60., 40., 45.));
#455 = CARTESIAN_POINT('', (60., 40., 75.));
#456 = CARTESIAN_POINT('', (60., 50., 45.));
#457 = CARTESIAN_POINT('', (60., 50., 75.));
#458 = CARTESIAN_POINT('', (50., 50., 45.));
#459 = CARTESIAN_POINT('', (50., 50., 75.));
#460 = CARTESIAN_POINT('', (40., 50., 45.));
#461 = CARTESIAN_POINT('', (40., 50., 75.));
#462 = CARTESIAN_POINT('', (40., 40., 45.));
#463 = CARTESIAN_POINT('', (40., 40., 75.));
#464 = CARTESIAN_POINT('', (40., 30., 45.));
#465 = CARTESIAN_POINT('', (40., 30., 75.));
#466 = CARTESIAN_POINT('', (50., 30., 45.));
#467 = CARTESIAN_POINT('', (50., 30., 75.));
#468 = CARTESIAN_POINT('', (60., 30., 45.));
#469 = CARTESIAN_POINT('', (60., 30., 75.));
#470 = CARTESIAN_POINT('', (60., 40., 45.));
#471 = CARTESIAN_POINT('', (60., 40., 75.));
#472 = ADVANCED_FACE('', (#473), #476, .F.);
#473 = FACE_OUTER_BOUND('', #474, .F.);
#474 = EDGE_LOOP('', (#475));
#475 = ORIENTED_EDGE('', *, *, #442, .T.);
#476 = B_SPLINE_SURFACE_WITH_KNOTS('', 1, 1, ((#477, #478), (#479, #480)), .UNSPECIFIED., .F., .F., .U., (2, 2), (2, 2), (0., 1.), (0., 1.), .UNSPECIFIED.);
#477 = CARTESIAN_POINT('', (65.556349186104, 24.4436508138959, 75.));
#478 = CARTESIAN_POINT('', (34.4436508138959, 24.4436508138959, 75.));
#479 = CARTESIAN_POINT('', (65.556349186104, 55.556349186104, 75.));
#480 = CARTESIAN_POINT('', (34.4436508138959, 55.556349186104, 75.));
#481 = DRAUGHTING_MODEL('', (#489), #492);
#482 = PRESENTATION_STYLE_ASSIGNMENT((#483));
#483 = SURFACE_STYLE_USAGE(.POSITIVE., #484);
#484 = SURFACE_SIDE_STYLE('', (#485));
#485 = SURFACE_STYLE_FILL_AREA(#486);
#486 = FILL_AREA_STYLE('', (#487));
#487 = FILL_AREA_STYLE_COLOUR('', #488);
#488 = COLOUR_RGB('', 0.50196078431373, 0.50196078431373, 0.50196078431373);
#489 = STYLED_ITEM('', (#482), #1);
#490 = CARTESIAN_POINT('Origin', (0., 0., 0.));
#491 = GEOMETRIC_SET('', (#490));
#492 = (
   GEOMETRIC_REPRESENTATION_CONTEXT (3)
   GLOBAL_UNCERTAINTY_ASSIGNED_CONTEXT ((#494))
   GLOBAL_UNIT_ASSIGNED_CONTEXT ((#493, #495, #496))
   REPRESENTATION_CONTEXT ('', '3D')
);
#493 = (
   LENGTH_UNIT ()
   NAMED_UNIT (*)
   SI_UNIT (.MILLI., .METRE.)
);
#494 = UNCERTAINTY_MEASURE_WITH_UNIT(LENGTH_MEASURE(1.E-6), #493, 'DISTANCE_ACCURACY_VALUE', '');
#495 = (
   NAMED_UNIT (*)
   SI_UNIT ($, .STERADIAN.)
   SOLID_ANGLE_UNIT ()
);
#496 = (
   NAMED_UNIT (*)
   PLANE_ANGLE_UNIT ()
   SI_UNIT ($, .RADIAN.)
);
#497 = SHAPE_REPRESENTATION('', (#512), #492);
#498 = PRODUCT_DEFINITION_SHAPE('', '', #499);
#499 = PRODUCT_DEFINITION('', '', #502, #506);
#500 = APPLICATION_CONTEXT('configuration controlled 3D designs of mechanical parts and assemblies');
#501 = APPLICATION_PROTOCOL_DEFINITION('International Standard', 'automotive_design', 2002, #500);
#502 = PRODUCT_DEFINITION_FORMATION_WITH_SPECIFIED_SOURCE('', '', #503, .NOT_KNOWN.);
#503 = PRODUCT('MultiVsSeq', 'MultiVsSeq', '', (#504));
#504 = PRODUCT_CONTEXT('', #500, 'mechanical');
#505 = PRODUCT_RELATED_PRODUCT_CATEGORY('detail', '', (#503));
#506 = PRODUCT_DEFINITION_CONTEXT('part definition', #500, 'design');
#507 = SHAPE_DEFINITION_REPRESENTATION(#498, #497);
#508 = SHAPE_REPRESENTATION_RELATIONSHIP('', '', #497, #509);
#509 = SHAPE_REPRESENTATION('', (#491), #492);
#510 = SHAPE_REPRESENTATION_RELATIONSHIP('', '', #497, #511);
#511 = MANIFOLD_SURFACE_SHAPE_REPRESENTATION('', (#1), #492);
#512 = AXIS2_PLACEMENT_3D('', #513, #514, #515);
#513 = CARTESIAN_POINT('', (0., 0., 0.));
#514 = DIRECTION('', (0., 0., 1.));
#515 = DIRECTION('', (1., 0., 0.));
ENDSEC;
END-ISO-10303-21;
