ISO-10303-21;
HEADER;
FILE_DESCRIPTION(('STEP'), '1');
FILE_NAME('ChainFixed', '2026-04-14T20:45:56', (''), (''), 'Express 3.1.2.0', 'Express Tool', 'Unknown');
FILE_SCHEMA(('AUTOMOTIVE_DESIGN'));
ENDSEC;

DATA;
#1 = SHELL_BASED_SURFACE_MODEL('Solid', (#2, #169));
#2 = CLOSED_SHELL('', (#3, #84, #105, #142, #157));
#3 = ADVANCED_FACE('', (#4), #38, .F.);
#4 = FACE_OUTER_BOUND('', #5, .F.);
#5 = EDGE_LOOP('', (#6, #16, #24, #32));
#6 = ORIENTED_EDGE('', *, *, #7, .T.);
#7 = EDGE_CURVE('', #8, #10, #12, .T.);
#8 = VERTEX_POINT('', #9);
#9 = CARTESIAN_POINT('', (40., 40., -29.1607978309962));
#10 = VERTEX_POINT('', #11);
#11 = CARTESIAN_POINT('', (50., 30., -29.1607978309962));
#12 = (
   BOUNDED_CURVE ()
   B_SPLINE_CURVE (2, (#13, #14, #15), .UNSPECIFIED., .F., .U.)
   B_SPLINE_CURVE_WITH_KNOTS ((3, 3), (0.5, 0.75), .UNSPECIFIED.)
   CURVE ()
   GEOMETRIC_REPRESENTATION_ITEM ()
   RATIONAL_B_SPLINE_CURVE ((1., 0.707106781186548, 1.))
   REPRESENTATION_ITEM ('')
);
#13 = CARTESIAN_POINT('', (39.9999999999999, 40., -29.1607978309961));
#14 = CARTESIAN_POINT('', (39.9999999999999, 29.9999999999999, -29.1607978309962));
#15 = CARTESIAN_POINT('', (50., 29.9999999999999, -29.1607978309961));
#16 = ORIENTED_EDGE('', *, *, #17, .F.);
#17 = EDGE_CURVE('', #18, #10, #20, .T.);
#18 = VERTEX_POINT('', #19);
#19 = CARTESIAN_POINT('', (50., -20., 30.));
#20 = (
   BOUNDED_CURVE ()
   B_SPLINE_CURVE (2, (#21, #22, #23), .UNSPECIFIED., .F., .U.)
   B_SPLINE_CURVE_WITH_KNOTS ((3, 3), (0.5, 0.721326441254288), .UNSPECIFIED.)
   CURVE ()
   GEOMETRIC_REPRESENTATION_ITEM ()
   RATIONAL_B_SPLINE_CURVE ((1., 0.763762615825973, 1.))
   REPRESENTATION_ITEM ('')
);
#21 = CARTESIAN_POINT('', (50., -20., 30.));
#22 = CARTESIAN_POINT('', (50., -20., -20.709255283711));
#23 = CARTESIAN_POINT('', (50., 30., -29.1607978309962));
#24 = ORIENTED_EDGE('', *, *, #25, .F.);
#25 = EDGE_CURVE('', #26, #18, #28, .T.);
#26 = VERTEX_POINT('', #27);
#27 = CARTESIAN_POINT('', (-10., 40., 30.));
#28 = (
   BOUNDED_CURVE ()
   B_SPLINE_CURVE (2, (#29, #30, #31), .UNSPECIFIED., .F., .U.)
   B_SPLINE_CURVE_WITH_KNOTS ((3, 3), (0.5, 0.75), .UNSPECIFIED.)
   CURVE ()
   GEOMETRIC_REPRESENTATION_ITEM ()
   RATIONAL_B_SPLINE_CURVE ((1., 0.707106781186548, 1.))
   REPRESENTATION_ITEM ('')
);
#29 = CARTESIAN_POINT('', (-10., 40., 30.));
#30 = CARTESIAN_POINT('', (-10., -20., 30.));
#31 = CARTESIAN_POINT('', (50., -20., 30.));
#32 = ORIENTED_EDGE('', *, *, #33, .F.);
#33 = EDGE_CURVE('', #8, #26, #34, .T.);
#34 = (
   BOUNDED_CURVE ()
   B_SPLINE_CURVE (2, (#35, #36, #37), .UNSPECIFIED., .F., .U.)
   B_SPLINE_CURVE_WITH_KNOTS ((3, 3), (0.528673558745712, 0.75), .UNSPECIFIED.)
   CURVE ()
   GEOMETRIC_REPRESENTATION_ITEM ()
   RATIONAL_B_SPLINE_CURVE ((1., 0.763762615825973, 1.))
   REPRESENTATION_ITEM ('')
);
#35 = CARTESIAN_POINT('', (40.0000000000001, 40., -29.1607978309962));
#36 = CARTESIAN_POINT('', (-9.99999999999999, 40., -20.7092552837111));
#37 = CARTESIAN_POINT('', (-10., 40., 30.));
#38 = (
   BOUNDED_SURFACE ()
   B_SPLINE_SURFACE (2, 2, ((#39, #40, #41, #42, #43), (#44, #45, #46, #47, #48), (#49, #50, #51, #52, #53), (#54, #55, #56, #57, #58), (#59, #60, #61, #62, #63), (#64, #65, #66, #67, #68), (#69, #70, #71, #72, #73), (#74, #75, #76, #77, #78), (#79, #80, #81, #82, #83)), .UNSPECIFIED., .T., .F., .U.)
   B_SPLINE_SURFACE_WITH_KNOTS ((3, 2, 2, 2, 3), (3, 2, 3), (0., 0.25, 0.5, 0.75, 1.), (0., 0.5, 1.), .UNSPECIFIED.)
   GEOMETRIC_REPRESENTATION_ITEM ()
   RATIONAL_B_SPLINE_SURFACE (((1., 0.707106781186548, 1., 0.707106781186548, 1.), (0.707106781186548, 0.5, 0.707106781186548, 0.5, 0.707106781186548), (1., 0.707106781186548, 1., 0.707106781186548, 1.), (0.707106781186548, 0.5, 0.707106781186548, 0.5, 0.707106781186548), (1., 0.707106781186548, 1., 0.707106781186548, 1.), (0.707106781186548, 0.5, 0.707106781186548, 0.5, 0.707106781186548), (1., 0.707106781186548, 1., 0.707106781186548, 1.), (0.707106781186548, 0.5, 0.707106781186548, 0.5, 0.707106781186548), (1., 0.707106781186548, 1., 0.707106781186548, 1.)))
   REPRESENTATION_ITEM ('')
   SURFACE ()
);
#39 = CARTESIAN_POINT('', (50., 40., -30.));
#40 = CARTESIAN_POINT('', (110., 40., -30.));
#41 = CARTESIAN_POINT('', (110., 40., 30.));
#42 = CARTESIAN_POINT('', (110., 40., 90.));
#43 = CARTESIAN_POINT('', (50., 40., 90.));
#44 = CARTESIAN_POINT('', (50., 40., -30.));
#45 = CARTESIAN_POINT('', (110., 100., -30.));
#46 = CARTESIAN_POINT('', (110., 100., 30.));
#47 = CARTESIAN_POINT('', (110., 100., 90.));
#48 = CARTESIAN_POINT('', (50., 40., 90.));
#49 = CARTESIAN_POINT('', (50., 40., -30.));
#50 = CARTESIAN_POINT('', (50., 100., -30.));
#51 = CARTESIAN_POINT('', (50., 100., 30.));
#52 = CARTESIAN_POINT('', (50., 100., 90.));
#53 = CARTESIAN_POINT('', (50., 40., 90.));
#54 = CARTESIAN_POINT('', (50., 40., -30.));
#55 = CARTESIAN_POINT('', (-9.99999999999996, 100., -30.));
#56 = CARTESIAN_POINT('', (-9.99999999999999, 100., 30.));
#57 = CARTESIAN_POINT('', (-10., 100., 90.));
#58 = CARTESIAN_POINT('', (50., 40., 90.));
#59 = CARTESIAN_POINT('', (50., 40., -30.));
#60 = CARTESIAN_POINT('', (-9.99999999999999, 40., -30.));
#61 = CARTESIAN_POINT('', (-10., 40., 30.));
#62 = CARTESIAN_POINT('', (-10., 40., 90.));
#63 = CARTESIAN_POINT('', (50., 40., 90.));
#64 = CARTESIAN_POINT('', (50., 40., -30.));
#65 = CARTESIAN_POINT('', (-9.99999999999999, -20., -30.));
#66 = CARTESIAN_POINT('', (-10., -20., 30.));
#67 = CARTESIAN_POINT('', (-10., -20., 90.));
#68 = CARTESIAN_POINT('', (50., 40., 90.));
#69 = CARTESIAN_POINT('', (50., 40., -30.));
#70 = CARTESIAN_POINT('', (50., -20., -30.));
#71 = CARTESIAN_POINT('', (50., -20., 30.));
#72 = CARTESIAN_POINT('', (50., -20., 90.));
#73 = CARTESIAN_POINT('', (50., 40., 90.));
#74 = CARTESIAN_POINT('', (50., 40., -30.));
#75 = CARTESIAN_POINT('', (110., -20., -30.));
#76 = CARTESIAN_POINT('', (110., -20., 30.));
#77 = CARTESIAN_POINT('', (110., -20., 90.));
#78 = CARTESIAN_POINT('', (50., 40., 90.));
#79 = CARTESIAN_POINT('', (50., 40., -30.));
#80 = CARTESIAN_POINT('', (110., 40., -30.));
#81 = CARTESIAN_POINT('', (110., 40., 30.));
#82 = CARTESIAN_POINT('', (110., 40., 90.));
#83 = CARTESIAN_POINT('', (50., 40., 90.));
#84 = ADVANCED_FACE('', (#85), #100, .F.);
#85 = FACE_OUTER_BOUND('', #86, .F.);
#86 = EDGE_LOOP('', (#87, #88, #95));
#87 = ORIENTED_EDGE('', *, *, #17, .T.);
#88 = ORIENTED_EDGE('', *, *, #89, .T.);
#89 = EDGE_CURVE('', #10, #90, #92, .T.);
#90 = VERTEX_POINT('', #91);
#91 = CARTESIAN_POINT('', (50., 30., 30.));
#92 = B_SPLINE_CURVE_WITH_KNOTS('', 1, (#93, #94), .UNSPECIFIED., .F., .U., (2, 2), (0.0139867028167307, 1.), .UNSPECIFIED.);
#93 = CARTESIAN_POINT('', (50., 30., -29.1607978309962));
#94 = CARTESIAN_POINT('', (50., 30., 30.));
#95 = ORIENTED_EDGE('', *, *, #96, .F.);
#96 = EDGE_CURVE('', #18, #90, #97, .T.);
#97 = B_SPLINE_CURVE_WITH_KNOTS('', 1, (#98, #99), .UNSPECIFIED., .F., .U., (2, 2), (20., 70.), .UNSPECIFIED.);
#98 = CARTESIAN_POINT('', (50., -20., 30.));
#99 = CARTESIAN_POINT('', (50., 30., 30.));
#100 = B_SPLINE_SURFACE_WITH_KNOTS('', 1, 1, ((#101, #102), (#103, #104)), .UNSPECIFIED., .F., .F., .U., (2, 2), (2, 2), (0., 80.), (0., 60.), .UNSPECIFIED.);
#101 = CARTESIAN_POINT('', (50., -40., -30.));
#102 = CARTESIAN_POINT('', (50., -40., 30.));
#103 = CARTESIAN_POINT('', (50., 40., -30.));
#104 = CARTESIAN_POINT('', (50., 40., 30.));
#105 = ADVANCED_FACE('', (#106), #123, .T.);
#106 = FACE_OUTER_BOUND('', #107, .T.);
#107 = EDGE_LOOP('', (#108, #109, #110, #118));
#108 = ORIENTED_EDGE('', *, *, #7, .T.);
#109 = ORIENTED_EDGE('', *, *, #89, .T.);
#110 = ORIENTED_EDGE('', *, *, #111, .F.);
#111 = EDGE_CURVE('', #112, #90, #114, .T.);
#112 = VERTEX_POINT('', #113);
#113 = CARTESIAN_POINT('', (40., 40., 30.));
#114 = (
   BOUNDED_CURVE ()
   B_SPLINE_CURVE (2, (#115, #116, #117), .UNSPECIFIED., .F., .U.)
   B_SPLINE_CURVE_WITH_KNOTS ((3, 3), (0., 1.), .UNSPECIFIED.)
   CURVE ()
   GEOMETRIC_REPRESENTATION_ITEM ()
   RATIONAL_B_SPLINE_CURVE ((1., 0.707106781186548, 1.))
   REPRESENTATION_ITEM ('')
);
#115 = CARTESIAN_POINT('', (40., 40., 30.));
#116 = CARTESIAN_POINT('', (40., 30., 30.));
#117 = CARTESIAN_POINT('', (50., 30., 30.));
#118 = ORIENTED_EDGE('', *, *, #119, .F.);
#119 = EDGE_CURVE('', #8, #112, #120, .T.);
#120 = B_SPLINE_CURVE_WITH_KNOTS('', 1, (#121, #122), .UNSPECIFIED., .F., .U., (2, 2), (0.0139867028167307, 1.), .UNSPECIFIED.);
#121 = CARTESIAN_POINT('', (40., 40., -29.1607978309962));
#122 = CARTESIAN_POINT('', (40., 40., 30.));
#123 = (
   BOUNDED_SURFACE ()
   B_SPLINE_SURFACE (2, 1, ((#124, #125), (#126, #127), (#128, #129), (#130, #131), (#132, #133), (#134, #135), (#136, #137), (#138, #139), (#140, #141)), .UNSPECIFIED., .T., .F., .U.)
   B_SPLINE_SURFACE_WITH_KNOTS ((3, 2, 2, 2, 3), (2, 2), (0., 15.707963267949, 31.4159265358979, 47.1238898038469, 62.8318530717959), (0., 100.), .UNSPECIFIED.)
   GEOMETRIC_REPRESENTATION_ITEM ()
   RATIONAL_B_SPLINE_SURFACE (((1., 1.), (0.707106781186548, 0.707106781186548), (1., 1.), (0.707106781186548, 0.707106781186548), (1., 1.), (0.707106781186548, 0.707106781186548), (1., 1.), (0.707106781186548, 0.707106781186548), (1., 1.)))
   REPRESENTATION_ITEM ('')
   SURFACE ()
);
#124 = CARTESIAN_POINT('', (60., 40., -60.));
#125 = CARTESIAN_POINT('', (60., 40., 40.));
#126 = CARTESIAN_POINT('', (60., 50., -60.));
#127 = CARTESIAN_POINT('', (60., 50., 40.));
#128 = CARTESIAN_POINT('', (50., 50., -60.));
#129 = CARTESIAN_POINT('', (50., 50., 40.));
#130 = CARTESIAN_POINT('', (40., 50., -60.));
#131 = CARTESIAN_POINT('', (40., 50., 40.));
#132 = CARTESIAN_POINT('', (40., 40., -60.));
#133 = CARTESIAN_POINT('', (40., 40., 40.));
#134 = CARTESIAN_POINT('', (40., 30., -60.));
#135 = CARTESIAN_POINT('', (40., 30., 40.));
#136 = CARTESIAN_POINT('', (50., 30., -60.));
#137 = CARTESIAN_POINT('', (50., 30., 40.));
#138 = CARTESIAN_POINT('', (60., 30., -60.));
#139 = CARTESIAN_POINT('', (60., 30., 40.));
#140 = CARTESIAN_POINT('', (60., 40., -60.));
#141 = CARTESIAN_POINT('', (60., 40., 40.));
#142 = ADVANCED_FACE('', (#143), #152, .F.);
#143 = FACE_OUTER_BOUND('', #144, .F.);
#144 = EDGE_LOOP('', (#145, #146, #151));
#145 = ORIENTED_EDGE('', *, *, #33, .T.);
#146 = ORIENTED_EDGE('', *, *, #147, .T.);
#147 = EDGE_CURVE('', #26, #112, #148, .T.);
#148 = B_SPLINE_CURVE_WITH_KNOTS('', 1, (#149, #150), .UNSPECIFIED., .F., .U., (2, 2), (40., 90.), .UNSPECIFIED.);
#149 = CARTESIAN_POINT('', (-10., 40., 30.));
#150 = CARTESIAN_POINT('', (40., 40., 30.));
#151 = ORIENTED_EDGE('', *, *, #119, .F.);
#152 = B_SPLINE_SURFACE_WITH_KNOTS('', 1, 1, ((#153, #154), (#155, #156)), .UNSPECIFIED., .F., .F., .U., (2, 2), (2, 2), (0., 60.), (0., 100.), .UNSPECIFIED.);
#153 = CARTESIAN_POINT('', (-50., 40., -30.));
#154 = CARTESIAN_POINT('', (50., 40., -30.));
#155 = CARTESIAN_POINT('', (-50., 40., 30.));
#156 = CARTESIAN_POINT('', (50., 40., 30.));
#157 = ADVANCED_FACE('', (#158), #164, .F.);
#158 = FACE_OUTER_BOUND('', #159, .F.);
#159 = EDGE_LOOP('', (#160, #161, #162, #163));
#160 = ORIENTED_EDGE('', *, *, #25, .T.);
#161 = ORIENTED_EDGE('', *, *, #96, .T.);
#162 = ORIENTED_EDGE('', *, *, #111, .F.);
#163 = ORIENTED_EDGE('', *, *, #147, .F.);
#164 = B_SPLINE_SURFACE_WITH_KNOTS('', 1, 1, ((#165, #166), (#167, #168)), .UNSPECIFIED., .F., .F., .U., (2, 2), (2, 2), (0., 100.), (0., 80.), .UNSPECIFIED.);
#165 = CARTESIAN_POINT('', (-50., -40., 30.));
#166 = CARTESIAN_POINT('', (-50., 40., 30.));
#167 = CARTESIAN_POINT('', (50., -40., 30.));
#168 = CARTESIAN_POINT('', (50., 40., 30.));
#169 = CLOSED_SHELL('', (#170, #259, #287, #309, #338, #353, #370));
#170 = ADVANCED_FACE('', (#171), #213, .F.);
#171 = FACE_OUTER_BOUND('', #172, .F.);
#172 = EDGE_LOOP('', (#173, #183, #191, #199, #207));
#173 = ORIENTED_EDGE('', *, *, #174, .F.);
#174 = EDGE_CURVE('', #175, #177, #179, .T.);
#175 = VERTEX_POINT('', #176);
#176 = CARTESIAN_POINT('', (10., 0., 50.));
#177 = VERTEX_POINT('', #178);
#178 = CARTESIAN_POINT('', (10., 40., 74.7213595499958));
#179 = (
   BOUNDED_CURVE ()
   B_SPLINE_CURVE (2, (#180, #181, #182), .UNSPECIFIED., .F., .U.)
   B_SPLINE_CURVE_WITH_KNOTS ((3, 3), (0.826028383993916, 1.), .UNSPECIFIED.)
   CURVE ()
   GEOMETRIC_REPRESENTATION_ITEM ()
   RATIONAL_B_SPLINE_CURVE ((1., 0.85065080835204, 1.))
   REPRESENTATION_ITEM ('')
);
#180 = CARTESIAN_POINT('', (10., -2.1316282072803E-14, 50.));
#181 = CARTESIAN_POINT('', (10., 12.3606797749979, 74.7213595499958));
#182 = CARTESIAN_POINT('', (10., 40., 74.7213595499958));
#183 = ORIENTED_EDGE('', *, *, #184, .F.);
#184 = EDGE_CURVE('', #185, #175, #187, .T.);
#185 = VERTEX_POINT('', #186);
#186 = CARTESIAN_POINT('', (50., 0., 74.7213595499958));
#187 = (
   BOUNDED_CURVE ()
   B_SPLINE_CURVE (2, (#188, #189, #190), .UNSPECIFIED., .F., .U.)
   B_SPLINE_CURVE_WITH_KNOTS ((3, 3), (0.25, 0.423971616006084), .UNSPECIFIED.)
   CURVE ()
   GEOMETRIC_REPRESENTATION_ITEM ()
   RATIONAL_B_SPLINE_CURVE ((1., 0.85065080835204, 1.))
   REPRESENTATION_ITEM ('')
);
#188 = CARTESIAN_POINT('', (50., 0., 74.7213595499958));
#189 = CARTESIAN_POINT('', (22.3606797749979, 0., 74.7213595499958));
#190 = CARTESIAN_POINT('', (10., 0., 50.));
#191 = ORIENTED_EDGE('', *, *, #192, .F.);
#192 = EDGE_CURVE('', #193, #185, #195, .T.);
#193 = VERTEX_POINT('', #194);
#194 = CARTESIAN_POINT('', (50., 0.313730334031135, 75.));
#195 = (
   BOUNDED_CURVE ()
   B_SPLINE_CURVE (2, (#196, #197, #198), .UNSPECIFIED., .F., .U.)
   B_SPLINE_CURVE_WITH_KNOTS ((3, 3), (0.365541650056943, 0.366597799036011), .UNSPECIFIED.)
   CURVE ()
   GEOMETRIC_REPRESENTATION_ITEM ()
   RATIONAL_B_SPLINE_CURVE ((1., 0.999993886536074, 1.))
   REPRESENTATION_ITEM ('')
);
#196 = CARTESIAN_POINT('', (50., 0.313730334031149, 75.));
#197 = CARTESIAN_POINT('', (50., 0.15637800341347, 74.8612282883231));
#198 = CARTESIAN_POINT('', (50., -7.105427357601E-15, 74.7213595499958));
#199 = ORIENTED_EDGE('', *, *, #200, .F.);
#200 = EDGE_CURVE('', #201, #193, #203, .T.);
#201 = VERTEX_POINT('', #202);
#202 = CARTESIAN_POINT('', (10.3137303340311, 40., 75.));
#203 = (
   BOUNDED_CURVE ()
   B_SPLINE_CURVE (2, (#204, #205, #206), .UNSPECIFIED., .F., .U.)
   B_SPLINE_CURVE_WITH_KNOTS ((3, 3), (0.5, 0.75), .UNSPECIFIED.)
   CURVE ()
   GEOMETRIC_REPRESENTATION_ITEM ()
   RATIONAL_B_SPLINE_CURVE ((1., 0.707106781186548, 1.))
   REPRESENTATION_ITEM ('')
);
#204 = CARTESIAN_POINT('', (10.3137303340311, 40., 75.));
#205 = CARTESIAN_POINT('', (10.3137303340311, 0.313730334031142, 75.));
#206 = CARTESIAN_POINT('', (50., 0.313730334031135, 75.));
#207 = ORIENTED_EDGE('', *, *, #208, .F.);
#208 = EDGE_CURVE('', #177, #201, #209, .T.);
#209 = (
   BOUNDED_CURVE ()
   B_SPLINE_CURVE (2, (#210, #211, #212), .UNSPECIFIED., .F., .U.)
   B_SPLINE_CURVE_WITH_KNOTS ((3, 3), (0.883402200963989, 0.884458349943057), .UNSPECIFIED.)
   CURVE ()
   GEOMETRIC_REPRESENTATION_ITEM ()
   RATIONAL_B_SPLINE_CURVE ((1., 0.999993886536074, 1.))
   REPRESENTATION_ITEM ('')
);
#210 = CARTESIAN_POINT('', (9.99999999999994, 40., 74.7213595499957));
#211 = CARTESIAN_POINT('', (10.1563780034132, 40., 74.8612282883228));
#212 = CARTESIAN_POINT('', (10.3137303340311, 40., 75.));
#213 = (
   BOUNDED_SURFACE ()
   B_SPLINE_SURFACE (2, 2, ((#214, #215, #216, #217, #218), (#219, #220, #221, #222, #223), (#224, #225, #226, #227, #228), (#229, #230, #231, #232, #233), (#234, #235, #236, #237, #238), (#239, #240, #241, #242, #243), (#244, #245, #246, #247, #248), (#249, #250, #251, #252, #253), (#254, #255, #256, #257, #258)), .UNSPECIFIED., .T., .F., .U.)
   B_SPLINE_SURFACE_WITH_KNOTS ((3, 2, 2, 2, 3), (3, 2, 3), (0., 0.25, 0.5, 0.75, 1.), (0., 0.5, 1.), .UNSPECIFIED.)
   GEOMETRIC_REPRESENTATION_ITEM ()
   RATIONAL_B_SPLINE_SURFACE (((1., 0.707106781186548, 1., 0.707106781186548, 1.), (0.707106781186548, 0.5, 0.707106781186548, 0.5, 0.707106781186548), (1., 0.707106781186548, 1., 0.707106781186548, 1.), (0.707106781186548, 0.5, 0.707106781186548, 0.5, 0.707106781186548), (1., 0.707106781186548, 1., 0.707106781186548, 1.), (0.707106781186548, 0.5, 0.707106781186548, 0.5, 0.707106781186548), (1., 0.707106781186548, 1., 0.707106781186548, 1.), (0.707106781186548, 0.5, 0.707106781186548, 0.5, 0.707106781186548), (1., 0.707106781186548, 1., 0.707106781186548, 1.)))
   REPRESENTATION_ITEM ('')
   SURFACE ()
);
#214 = CARTESIAN_POINT('', (50., 40., -30.));
#215 = CARTESIAN_POINT('', (110., 40., -30.));
#216 = CARTESIAN_POINT('', (110., 40., 30.));
#217 = CARTESIAN_POINT('', (110., 40., 90.));
#218 = CARTESIAN_POINT('', (50., 40., 90.));
#219 = CARTESIAN_POINT('', (50., 40., -30.));
#220 = CARTESIAN_POINT('', (110., 100., -30.));
#221 = CARTESIAN_POINT('', (110., 100., 30.));
#222 = CARTESIAN_POINT('', (110., 100., 90.));
#223 = CARTESIAN_POINT('', (50., 40., 90.));
#224 = CARTESIAN_POINT('', (50., 40., -30.));
#225 = CARTESIAN_POINT('', (50., 100., -30.));
#226 = CARTESIAN_POINT('', (50., 100., 30.));
#227 = CARTESIAN_POINT('', (50., 100., 90.));
#228 = CARTESIAN_POINT('', (50., 40., 90.));
#229 = CARTESIAN_POINT('', (50., 40., -30.));
#230 = CARTESIAN_POINT('', (-9.99999999999996, 100., -30.));
#231 = CARTESIAN_POINT('', (-9.99999999999999, 100., 30.));
#232 = CARTESIAN_POINT('', (-10., 100., 90.));
#233 = CARTESIAN_POINT('', (50., 40., 90.));
#234 = CARTESIAN_POINT('', (50., 40., -30.));
#235 = CARTESIAN_POINT('', (-9.99999999999999, 40., -30.));
#236 = CARTESIAN_POINT('', (-10., 40., 30.));
#237 = CARTESIAN_POINT('', (-10., 40., 90.));
#238 = CARTESIAN_POINT('', (50., 40., 90.));
#239 = CARTESIAN_POINT('', (50., 40., -30.));
#240 = CARTESIAN_POINT('', (-9.99999999999999, -20., -30.));
#241 = CARTESIAN_POINT('', (-10., -20., 30.));
#242 = CARTESIAN_POINT('', (-10., -20., 90.));
#243 = CARTESIAN_POINT('', (50., 40., 90.));
#244 = CARTESIAN_POINT('', (50., 40., -30.));
#245 = CARTESIAN_POINT('', (50., -20., -30.));
#246 = CARTESIAN_POINT('', (50., -20., 30.));
#247 = CARTESIAN_POINT('', (50., -20., 90.));
#248 = CARTESIAN_POINT('', (50., 40., 90.));
#249 = CARTESIAN_POINT('', (50., 40., -30.));
#250 = CARTESIAN_POINT('', (110., -20., -30.));
#251 = CARTESIAN_POINT('', (110., -20., 30.));
#252 = CARTESIAN_POINT('', (110., -20., 90.));
#253 = CARTESIAN_POINT('', (50., 40., 90.));
#254 = CARTESIAN_POINT('', (50., 40., -30.));
#255 = CARTESIAN_POINT('', (110., 40., -30.));
#256 = CARTESIAN_POINT('', (110., 40., 30.));
#257 = CARTESIAN_POINT('', (110., 40., 90.));
#258 = CARTESIAN_POINT('', (50., 40., 90.));
#259 = ADVANCED_FACE('', (#260), #282, .F.);
#260 = FACE_OUTER_BOUND('', #261, .F.);
#261 = EDGE_LOOP('', (#262, #263, #270, #277));
#262 = ORIENTED_EDGE('', *, *, #184, .T.);
#263 = ORIENTED_EDGE('', *, *, #264, .F.);
#264 = EDGE_CURVE('', #265, #175, #267, .T.);
#265 = VERTEX_POINT('', #266);
#266 = CARTESIAN_POINT('', (10., 0., 45.));
#267 = B_SPLINE_CURVE_WITH_KNOTS('', 1, (#268, #269), .UNSPECIFIED., .F., .U., (2, 2), (0., 5.), .UNSPECIFIED.);
#268 = CARTESIAN_POINT('', (10., 0., 45.));
#269 = CARTESIAN_POINT('', (10., 0., 50.));
#270 = ORIENTED_EDGE('', *, *, #271, .T.);
#271 = EDGE_CURVE('', #265, #272, #274, .T.);
#272 = VERTEX_POINT('', #273);
#273 = CARTESIAN_POINT('', (50., 0., 45.));
#274 = B_SPLINE_CURVE_WITH_KNOTS('', 1, (#275, #276), .UNSPECIFIED., .F., .U., (2, 2), (0., 40.), .UNSPECIFIED.);
#275 = CARTESIAN_POINT('', (10., 0., 45.));
#276 = CARTESIAN_POINT('', (50., 0., 45.));
#277 = ORIENTED_EDGE('', *, *, #278, .T.);
#278 = EDGE_CURVE('', #272, #185, #279, .T.);
#279 = B_SPLINE_CURVE_WITH_KNOTS('', 1, (#280, #281), .UNSPECIFIED., .F., .U., (2, 2), (0., 29.7213595499958), .UNSPECIFIED.);
#280 = CARTESIAN_POINT('', (50., 0., 45.));
#281 = CARTESIAN_POINT('', (50., 0., 74.7213595499958));
#282 = B_SPLINE_SURFACE_WITH_KNOTS('', 1, 1, ((#283, #284), (#285, #286)), .UNSPECIFIED., .F., .F., .U., (2, 2), (2, 2), (0., 40.), (0., 30.), .UNSPECIFIED.);
#283 = CARTESIAN_POINT('', (10., 0., 45.));
#284 = CARTESIAN_POINT('', (10., 0., 75.));
#285 = CARTESIAN_POINT('', (50., 0., 45.));
#286 = CARTESIAN_POINT('', (50., 0., 75.));
#287 = ADVANCED_FACE('', (#288), #304, .F.);
#288 = FACE_OUTER_BOUND('', #289, .F.);
#289 = EDGE_LOOP('', (#290, #291, #298, #303));
#290 = ORIENTED_EDGE('', *, *, #174, .T.);
#291 = ORIENTED_EDGE('', *, *, #292, .F.);
#292 = EDGE_CURVE('', #293, #177, #295, .T.);
#293 = VERTEX_POINT('', #294);
#294 = CARTESIAN_POINT('', (10., 40., 45.));
#295 = B_SPLINE_CURVE_WITH_KNOTS('', 1, (#296, #297), .UNSPECIFIED., .F., .U., (2, 2), (0., 29.7213595499958), .UNSPECIFIED.);
#296 = CARTESIAN_POINT('', (10., 40., 45.));
#297 = CARTESIAN_POINT('', (10., 40., 74.7213595499958));
#298 = ORIENTED_EDGE('', *, *, #299, .F.);
#299 = EDGE_CURVE('', #265, #293, #300, .T.);
#300 = B_SPLINE_CURVE_WITH_KNOTS('', 1, (#301, #302), .UNSPECIFIED., .F., .U., (2, 2), (0., 40.), .UNSPECIFIED.);
#301 = CARTESIAN_POINT('', (10., 0., 45.));
#302 = CARTESIAN_POINT('', (10., 40., 45.));
#303 = ORIENTED_EDGE('', *, *, #264, .T.);
#304 = B_SPLINE_SURFACE_WITH_KNOTS('', 1, 1, ((#305, #306), (#307, #308)), .UNSPECIFIED., .F., .F., .U., (2, 2), (2, 2), (0., 30.), (0., 40.), .UNSPECIFIED.);
#305 = CARTESIAN_POINT('', (10., 0., 45.));
#306 = CARTESIAN_POINT('', (10., 40., 45.));
#307 = CARTESIAN_POINT('', (10., 0., 75.));
#308 = CARTESIAN_POINT('', (10., 40., 75.));
#309 = ADVANCED_FACE('', (#310), #333, .F.);
#310 = FACE_OUTER_BOUND('', #311, .F.);
#311 = EDGE_LOOP('', (#312, #313, #320, #327, #332));
#312 = ORIENTED_EDGE('', *, *, #208, .T.);
#313 = ORIENTED_EDGE('', *, *, #314, .T.);
#314 = EDGE_CURVE('', #201, #315, #317, .T.);
#315 = VERTEX_POINT('', #316);
#316 = CARTESIAN_POINT('', (50., 40., 75.));
#317 = B_SPLINE_CURVE_WITH_KNOTS('', 1, (#318, #319), .UNSPECIFIED., .F., .U., (2, 2), (0.313730334031135, 40.), .UNSPECIFIED.);
#318 = CARTESIAN_POINT('', (10.3137303340311, 40., 75.));
#319 = CARTESIAN_POINT('', (50., 40., 75.));
#320 = ORIENTED_EDGE('', *, *, #321, .F.);
#321 = EDGE_CURVE('', #322, #315, #324, .T.);
#322 = VERTEX_POINT('', #323);
#323 = CARTESIAN_POINT('', (50., 40., 45.));
#324 = B_SPLINE_CURVE_WITH_KNOTS('', 1, (#325, #326), .UNSPECIFIED., .F., .U., (2, 2), (0., 30.), .UNSPECIFIED.);
#325 = CARTESIAN_POINT('', (50., 40., 45.));
#326 = CARTESIAN_POINT('', (50., 40., 75.));
#327 = ORIENTED_EDGE('', *, *, #328, .F.);
#328 = EDGE_CURVE('', #293, #322, #329, .T.);
#329 = B_SPLINE_CURVE_WITH_KNOTS('', 1, (#330, #331), .UNSPECIFIED., .F., .U., (2, 2), (0., 40.), .UNSPECIFIED.);
#330 = CARTESIAN_POINT('', (10., 40., 45.));
#331 = CARTESIAN_POINT('', (50., 40., 45.));
#332 = ORIENTED_EDGE('', *, *, #292, .T.);
#333 = B_SPLINE_SURFACE_WITH_KNOTS('', 1, 1, ((#334, #335), (#336, #337)), .UNSPECIFIED., .F., .F., .U., (2, 2), (2, 2), (0., 30.), (0., 40.), .UNSPECIFIED.);
#334 = CARTESIAN_POINT('', (10., 40., 45.));
#335 = CARTESIAN_POINT('', (50., 40., 45.));
#336 = CARTESIAN_POINT('', (10., 40., 75.));
#337 = CARTESIAN_POINT('', (50., 40., 75.));
#338 = ADVANCED_FACE('', (#339), #348, .F.);
#339 = FACE_OUTER_BOUND('', #340, .F.);
#340 = EDGE_LOOP('', (#341, #342, #347));
#341 = ORIENTED_EDGE('', *, *, #200, .T.);
#342 = ORIENTED_EDGE('', *, *, #343, .T.);
#343 = EDGE_CURVE('', #193, #315, #344, .T.);
#344 = B_SPLINE_CURVE_WITH_KNOTS('', 1, (#345, #346), .UNSPECIFIED., .F., .U., (2, 2), (0.313730334031135, 40.), .UNSPECIFIED.);
#345 = CARTESIAN_POINT('', (50., 0.313730334031135, 75.));
#346 = CARTESIAN_POINT('', (50., 40., 75.));
#347 = ORIENTED_EDGE('', *, *, #314, .F.);
#348 = B_SPLINE_SURFACE_WITH_KNOTS('', 1, 1, ((#349, #350), (#351, #352)), .UNSPECIFIED., .F., .F., .U., (2, 2), (2, 2), (0., 40.), (0., 40.), .UNSPECIFIED.);
#349 = CARTESIAN_POINT('', (10., 0., 75.));
#350 = CARTESIAN_POINT('', (10., 40., 75.));
#351 = CARTESIAN_POINT('', (50., 0., 75.));
#352 = CARTESIAN_POINT('', (50., 40., 75.));
#353 = ADVANCED_FACE('', (#354), #365, .F.);
#354 = FACE_OUTER_BOUND('', #355, .F.);
#355 = EDGE_LOOP('', (#356, #357, #358, #363, #364));
#356 = ORIENTED_EDGE('', *, *, #192, .T.);
#357 = ORIENTED_EDGE('', *, *, #278, .F.);
#358 = ORIENTED_EDGE('', *, *, #359, .T.);
#359 = EDGE_CURVE('', #272, #322, #360, .T.);
#360 = B_SPLINE_CURVE_WITH_KNOTS('', 1, (#361, #362), .UNSPECIFIED., .F., .U., (2, 2), (0., 40.), .UNSPECIFIED.);
#361 = CARTESIAN_POINT('', (50., 0., 45.));
#362 = CARTESIAN_POINT('', (50., 40., 45.));
#363 = ORIENTED_EDGE('', *, *, #321, .T.);
#364 = ORIENTED_EDGE('', *, *, #343, .F.);
#365 = B_SPLINE_SURFACE_WITH_KNOTS('', 1, 1, ((#366, #367), (#368, #369)), .UNSPECIFIED., .F., .F., .U., (2, 2), (2, 2), (0., 40.), (0., 30.), .UNSPECIFIED.);
#366 = CARTESIAN_POINT('', (50., 0., 45.));
#367 = CARTESIAN_POINT('', (50., 0., 75.));
#368 = CARTESIAN_POINT('', (50., 40., 45.));
#369 = CARTESIAN_POINT('', (50., 40., 75.));
#370 = ADVANCED_FACE('', (#371), #377, .F.);
#371 = FACE_OUTER_BOUND('', #372, .F.);
#372 = EDGE_LOOP('', (#373, #374, #375, #376));
#373 = ORIENTED_EDGE('', *, *, #299, .T.);
#374 = ORIENTED_EDGE('', *, *, #328, .T.);
#375 = ORIENTED_EDGE('', *, *, #359, .F.);
#376 = ORIENTED_EDGE('', *, *, #271, .F.);
#377 = B_SPLINE_SURFACE_WITH_KNOTS('', 1, 1, ((#378, #379), (#380, #381)), .UNSPECIFIED., .F., .F., .U., (2, 2), (2, 2), (0., 40.), (0., 40.), .UNSPECIFIED.);
#378 = CARTESIAN_POINT('', (10., 0., 45.));
#379 = CARTESIAN_POINT('', (50., 0., 45.));
#380 = CARTESIAN_POINT('', (10., 40., 45.));
#381 = CARTESIAN_POINT('', (50., 40., 45.));
#382 = DRAUGHTING_MODEL('', (#390), #393);
#383 = PRESENTATION_STYLE_ASSIGNMENT((#384));
#384 = SURFACE_STYLE_USAGE(.POSITIVE., #385);
#385 = SURFACE_SIDE_STYLE('', (#386));
#386 = SURFACE_STYLE_FILL_AREA(#387);
#387 = FILL_AREA_STYLE('', (#388));
#388 = FILL_AREA_STYLE_COLOUR('', #389);
#389 = COLOUR_RGB('', 0.50196078431373, 0.50196078431373, 0.50196078431373);
#390 = STYLED_ITEM('', (#383), #1);
#391 = CARTESIAN_POINT('Origin', (0., 0., 0.));
#392 = GEOMETRIC_SET('', (#391));
#393 = (
   GEOMETRIC_REPRESENTATION_CONTEXT (3)
   GLOBAL_UNCERTAINTY_ASSIGNED_CONTEXT ((#395))
   GLOBAL_UNIT_ASSIGNED_CONTEXT ((#394, #396, #397))
   REPRESENTATION_CONTEXT ('', '3D')
);
#394 = (
   LENGTH_UNIT ()
   NAMED_UNIT (*)
   SI_UNIT (.MILLI., .METRE.)
);
#395 = UNCERTAINTY_MEASURE_WITH_UNIT(LENGTH_MEASURE(1.E-6), #394, 'DISTANCE_ACCURACY_VALUE', '');
#396 = (
   NAMED_UNIT (*)
   SI_UNIT ($, .STERADIAN.)
   SOLID_ANGLE_UNIT ()
);
#397 = (
   NAMED_UNIT (*)
   PLANE_ANGLE_UNIT ()
   SI_UNIT ($, .RADIAN.)
);
#398 = SHAPE_REPRESENTATION('', (#413), #393);
#399 = PRODUCT_DEFINITION_SHAPE('', '', #400);
#400 = PRODUCT_DEFINITION('', '', #403, #407);
#401 = APPLICATION_CONTEXT('configuration controlled 3D designs of mechanical parts and assemblies');
#402 = APPLICATION_PROTOCOL_DEFINITION('International Standard', 'automotive_design', 2002, #401);
#403 = PRODUCT_DEFINITION_FORMATION_WITH_SPECIFIED_SOURCE('', '', #404, .NOT_KNOWN.);
#404 = PRODUCT('ChainFixed', 'ChainFixed', '', (#405));
#405 = PRODUCT_CONTEXT('', #401, 'mechanical');
#406 = PRODUCT_RELATED_PRODUCT_CATEGORY('detail', '', (#404));
#407 = PRODUCT_DEFINITION_CONTEXT('part definition', #401, 'design');
#408 = SHAPE_DEFINITION_REPRESENTATION(#399, #398);
#409 = SHAPE_REPRESENTATION_RELATIONSHIP('', '', #398, #410);
#410 = SHAPE_REPRESENTATION('', (#392), #393);
#411 = SHAPE_REPRESENTATION_RELATIONSHIP('', '', #398, #412);
#412 = MANIFOLD_SURFACE_SHAPE_REPRESENTATION('', (#1), #393);
#413 = AXIS2_PLACEMENT_3D('', #414, #415, #416);
#414 = CARTESIAN_POINT('', (0., 0., 0.));
#415 = DIRECTION('', (0., 0., 1.));
#416 = DIRECTION('', (1., 0., 0.));
ENDSEC;
END-ISO-10303-21;
