ISO-10303-21;
HEADER;
FILE_DESCRIPTION(('STEP'), '1');
FILE_NAME('StpAsm', '2026-05-09T18:35:30', (''), (''), 'Express 3.1.2.0', 'Express Tool', 'Unknown');
FILE_SCHEMA(('AUTOMOTIVE_DESIGN'));
ENDSEC;

DATA;
#1 = (
   GEOMETRIC_REPRESENTATION_CONTEXT (3)
   GLOBAL_UNCERTAINTY_ASSIGNED_CONTEXT ((#3))
   GLOBAL_UNIT_ASSIGNED_CONTEXT ((#2, #4, #5))
   REPRESENTATION_CONTEXT ('', '3D')
);
#2 = (
   LENGTH_UNIT ()
   NAMED_UNIT (*)
   SI_UNIT (.MILLI., .METRE.)
);
#3 = UNCERTAINTY_MEASURE_WITH_UNIT(LENGTH_MEASURE(1.E-6), #2, 'DISTANCE_ACCURACY_VALUE', '');
#4 = (
   NAMED_UNIT (*)
   SI_UNIT ($, .STERADIAN.)
   SOLID_ANGLE_UNIT ()
);
#5 = (
   NAMED_UNIT (*)
   PLANE_ANGLE_UNIT ()
   SI_UNIT ($, .RADIAN.)
);
#6 = SHAPE_REPRESENTATION('', (#126), #1);
#7 = PRODUCT_DEFINITION_SHAPE('', '', #8);
#8 = PRODUCT_DEFINITION('', '', #11, #15);
#9 = APPLICATION_CONTEXT('configuration controlled 3D designs of mechanical parts and assemblies');
#10 = APPLICATION_PROTOCOL_DEFINITION('International Standard', 'automotive_design', 2002, #9);
#11 = PRODUCT_DEFINITION_FORMATION_WITH_SPECIFIED_SOURCE('', '', #12, .NOT_KNOWN.);
#12 = PRODUCT('StpAsm', 'StpAsm', '', (#13));
#13 = PRODUCT_CONTEXT('', #9, 'mechanical');
#14 = PRODUCT_RELATED_PRODUCT_CATEGORY('detail', '', (#12));
#15 = PRODUCT_DEFINITION_CONTEXT('part definition', #9, 'design');
#16 = SHAPE_DEFINITION_REPRESENTATION(#7, #6);
#17 = MANIFOLD_SOLID_BREP('Cyl1_0', #18);
#18 = CLOSED_SHELL('', (#19, #75, #84));
#19 = ADVANCED_FACE('', (#20), #56, .T.);
#20 = FACE_OUTER_BOUND('', #21, .T.);
#21 = EDGE_LOOP('', (#22, #31, #43, #44));
#22 = ORIENTED_EDGE('', *, *, #23, .F.);
#23 = EDGE_CURVE('', #24, #26, #28, .T.);
#24 = VERTEX_POINT('', #25);
#25 = CARTESIAN_POINT('', (15., 0., 0.));
#26 = VERTEX_POINT('', #27);
#27 = CARTESIAN_POINT('', (15., 0., 50.));
#28 = B_SPLINE_CURVE_WITH_KNOTS('', 1, (#29, #30), .UNSPECIFIED., .F., .U., (2, 2), (0., 50.), .UNSPECIFIED.);
#29 = CARTESIAN_POINT('', (15., 0., 0.));
#30 = CARTESIAN_POINT('', (15., 0., 50.));
#31 = ORIENTED_EDGE('', *, *, #32, .T.);
#32 = EDGE_CURVE('', #24, #24, #33, .T.);
#33 = (
   BOUNDED_CURVE ()
   B_SPLINE_CURVE (2, (#34, #35, #36, #37, #38, #39, #40, #41, #42), .UNSPECIFIED., .T., .U.)
   B_SPLINE_CURVE_WITH_KNOTS ((3, 2, 2, 2, 3), (0., 23.5619449019235, 47.1238898038469, 70.6858347057703, 94.2477796076938), .UNSPECIFIED.)
   CURVE ()
   GEOMETRIC_REPRESENTATION_ITEM ()
   RATIONAL_B_SPLINE_CURVE ((1., 0.707106781186548, 1., 0.707106781186548, 1., 0.707106781186548, 1., 0.707106781186548, 1.))
   REPRESENTATION_ITEM ('')
);
#34 = CARTESIAN_POINT('', (15., 0., 0.));
#35 = CARTESIAN_POINT('', (15., 15., 0.));
#36 = CARTESIAN_POINT('', (9.18485099360515E-16, 15., 0.));
#37 = CARTESIAN_POINT('', (-15., 15., 0.));
#38 = CARTESIAN_POINT('', (-15., 1.83697019872103E-15, 0.));
#39 = CARTESIAN_POINT('', (-15., -15., 0.));
#40 = CARTESIAN_POINT('', (-2.75545529808154E-15, -15., 0.));
#41 = CARTESIAN_POINT('', (15., -15., 0.));
#42 = CARTESIAN_POINT('', (15., 0., 0.));
#43 = ORIENTED_EDGE('', *, *, #23, .T.);
#44 = ORIENTED_EDGE('', *, *, #45, .F.);
#45 = EDGE_CURVE('', #26, #26, #46, .T.);
#46 = (
   BOUNDED_CURVE ()
   B_SPLINE_CURVE (2, (#47, #48, #49, #50, #51, #52, #53, #54, #55), .UNSPECIFIED., .T., .U.)
   B_SPLINE_CURVE_WITH_KNOTS ((3, 2, 2, 2, 3), (0., 23.5619449019235, 47.1238898038469, 70.6858347057703, 94.2477796076938), .UNSPECIFIED.)
   CURVE ()
   GEOMETRIC_REPRESENTATION_ITEM ()
   RATIONAL_B_SPLINE_CURVE ((1., 0.707106781186548, 1., 0.707106781186548, 1., 0.707106781186548, 1., 0.707106781186548, 1.))
   REPRESENTATION_ITEM ('')
);
#47 = CARTESIAN_POINT('', (15., 0., 50.));
#48 = CARTESIAN_POINT('', (15., 15., 50.));
#49 = CARTESIAN_POINT('', (9.18485099360515E-16, 15., 50.));
#50 = CARTESIAN_POINT('', (-15., 15., 50.));
#51 = CARTESIAN_POINT('', (-15., 1.83697019872103E-15, 50.));
#52 = CARTESIAN_POINT('', (-15., -15., 50.));
#53 = CARTESIAN_POINT('', (-2.75545529808154E-15, -15., 50.));
#54 = CARTESIAN_POINT('', (15., -15., 50.));
#55 = CARTESIAN_POINT('', (15., 0., 50.));
#56 = (
   BOUNDED_SURFACE ()
   B_SPLINE_SURFACE (2, 1, ((#57, #58), (#59, #60), (#61, #62), (#63, #64), (#65, #66), (#67, #68), (#69, #70), (#71, #72), (#73, #74)), .UNSPECIFIED., .T., .F., .U.)
   B_SPLINE_SURFACE_WITH_KNOTS ((3, 2, 2, 2, 3), (2, 2), (0., 23.5619449019235, 47.1238898038469, 70.6858347057703, 94.2477796076938), (0., 50.), .UNSPECIFIED.)
   GEOMETRIC_REPRESENTATION_ITEM ()
   RATIONAL_B_SPLINE_SURFACE (((1., 1.), (0.707106781186548, 0.707106781186548), (1., 1.), (0.707106781186548, 0.707106781186548), (1., 1.), (0.707106781186548, 0.707106781186548), (1., 1.), (0.707106781186548, 0.707106781186548), (1., 1.)))
   REPRESENTATION_ITEM ('')
   SURFACE ()
);
#57 = CARTESIAN_POINT('', (15., -1.57772181044202E-30, 0.));
#58 = CARTESIAN_POINT('', (15., -1.57772181044202E-30, 50.));
#59 = CARTESIAN_POINT('', (15., 15., 0.));
#60 = CARTESIAN_POINT('', (15., 15., 50.));
#61 = CARTESIAN_POINT('', (-8.29636600502828E-15, 15., 0.));
#62 = CARTESIAN_POINT('', (-8.29636600502828E-15, 15., 50.));
#63 = CARTESIAN_POINT('', (-15., 15., 0.));
#64 = CARTESIAN_POINT('', (-15., 15., 50.));
#65 = CARTESIAN_POINT('', (-15., -1.2373884516481E-14, 0.));
#66 = CARTESIAN_POINT('', (-15., -1.2373884516481E-14, 50.));
#67 = CARTESIAN_POINT('', (-15., -15., 0.));
#68 = CARTESIAN_POINT('', (-15., -15., 50.));
#69 = CARTESIAN_POINT('', (2.24054831273166E-15, -15., 0.));
#70 = CARTESIAN_POINT('', (2.24054831273166E-15, -15., 50.));
#71 = CARTESIAN_POINT('', (15., -15., 0.));
#72 = CARTESIAN_POINT('', (15., -15., 50.));
#73 = CARTESIAN_POINT('', (15., -1.57772181044202E-30, 0.));
#74 = CARTESIAN_POINT('', (15., -1.57772181044202E-30, 50.));
#75 = ADVANCED_FACE('', (#76), #79, .T.);
#76 = FACE_OUTER_BOUND('', #77, .T.);
#77 = EDGE_LOOP('', (#78));
#78 = ORIENTED_EDGE('', *, *, #32, .F.);
#79 = B_SPLINE_SURFACE_WITH_KNOTS('', 1, 1, ((#80, #81), (#82, #83)), .UNSPECIFIED., .F., .F., .U., (2, 2), (2, 2), (0., 1.), (0., 1.), .UNSPECIFIED.);
#80 = CARTESIAN_POINT('', (23.3345237791561, -23.3345237791561, 0.));
#81 = CARTESIAN_POINT('', (23.3345237791561, 23.3345237791561, 0.));
#82 = CARTESIAN_POINT('', (-23.3345237791561, -23.3345237791561, 0.));
#83 = CARTESIAN_POINT('', (-23.3345237791561, 23.3345237791561, 0.));
#84 = ADVANCED_FACE('', (#85), #88, .T.);
#85 = FACE_OUTER_BOUND('', #86, .T.);
#86 = EDGE_LOOP('', (#87));
#87 = ORIENTED_EDGE('', *, *, #45, .T.);
#88 = B_SPLINE_SURFACE_WITH_KNOTS('', 1, 1, ((#89, #90), (#91, #92)), .UNSPECIFIED., .F., .F., .U., (2, 2), (2, 2), (0., 1.), (0., 1.), .UNSPECIFIED.);
#89 = CARTESIAN_POINT('', (23.3345237791561, -23.3345237791561, 50.));
#90 = CARTESIAN_POINT('', (-23.3345237791561, -23.3345237791561, 50.));
#91 = CARTESIAN_POINT('', (23.3345237791561, 23.3345237791561, 50.));
#92 = CARTESIAN_POINT('', (-23.3345237791561, 23.3345237791561, 50.));
#93 = DRAUGHTING_MODEL('', (#101), #104);
#94 = PRESENTATION_STYLE_ASSIGNMENT((#95));
#95 = SURFACE_STYLE_USAGE(.POSITIVE., #96);
#96 = SURFACE_SIDE_STYLE('', (#97));
#97 = SURFACE_STYLE_FILL_AREA(#98);
#98 = FILL_AREA_STYLE('', (#99));
#99 = FILL_AREA_STYLE_COLOUR('', #100);
#100 = COLOUR_RGB('', 0.50196078431373, 0.50196078431373, 0.50196078431373);
#101 = STYLED_ITEM('', (#94), #17);
#102 = CARTESIAN_POINT('Origin', (0., 0., 0.));
#103 = GEOMETRIC_SET('', (#102));
#104 = (
   GEOMETRIC_REPRESENTATION_CONTEXT (3)
   GLOBAL_UNCERTAINTY_ASSIGNED_CONTEXT ((#106))
   GLOBAL_UNIT_ASSIGNED_CONTEXT ((#105, #107, #108))
   REPRESENTATION_CONTEXT ('', '3D')
);
#105 = (
   LENGTH_UNIT ()
   NAMED_UNIT (*)
   SI_UNIT (.MILLI., .METRE.)
);
#106 = UNCERTAINTY_MEASURE_WITH_UNIT(LENGTH_MEASURE(1.E-6), #105, 'DISTANCE_ACCURACY_VALUE', '');
#107 = (
   NAMED_UNIT (*)
   SI_UNIT ($, .STERADIAN.)
   SOLID_ANGLE_UNIT ()
);
#108 = (
   NAMED_UNIT (*)
   PLANE_ANGLE_UNIT ()
   SI_UNIT ($, .RADIAN.)
);
#109 = SHAPE_REPRESENTATION('', (#130), #104);
#110 = PRODUCT_DEFINITION_SHAPE('', '', #111);
#111 = PRODUCT_DEFINITION('', '', #114, #118);
#112 = APPLICATION_CONTEXT('configuration controlled 3D designs of mechanical parts and assemblies');
#113 = APPLICATION_PROTOCOL_DEFINITION('International Standard', 'automotive_design', 2002, #112);
#114 = PRODUCT_DEFINITION_FORMATION_WITH_SPECIFIED_SOURCE('', '', #115, .NOT_KNOWN.);
#115 = PRODUCT('CylPart', 'CylPart', '', (#116));
#116 = PRODUCT_CONTEXT('', #112, 'mechanical');
#117 = PRODUCT_RELATED_PRODUCT_CATEGORY('detail', '', (#115));
#118 = PRODUCT_DEFINITION_CONTEXT('part definition', #112, 'design');
#119 = SHAPE_DEFINITION_REPRESENTATION(#110, #109);
#120 = SHAPE_REPRESENTATION_RELATIONSHIP('', '', #109, #121);
#121 = SHAPE_REPRESENTATION('', (#103), #104);
#122 = SHAPE_REPRESENTATION_RELATIONSHIP('', '', #109, #123);
#123 = ADVANCED_BREP_SHAPE_REPRESENTATION('', (#17), #104);
#124 = NEXT_ASSEMBLY_USAGE_OCCURRENCE('', 'StpInst', 'StpInst', #8, #111, '');
#125 = PRODUCT_DEFINITION_SHAPE('', '', #124);
#126 = AXIS2_PLACEMENT_3D('', #127, #128, #129);
#127 = CARTESIAN_POINT('', (0., 0., 0.));
#128 = DIRECTION('', (0., 0., 1.));
#129 = DIRECTION('', (1., 0., 0.));
#130 = AXIS2_PLACEMENT_3D('', #131, #132, #133);
#131 = CARTESIAN_POINT('', (0., 0., 0.));
#132 = DIRECTION('', (0., 0., 1.));
#133 = DIRECTION('', (1., 0., 0.));
#134 = ITEM_DEFINED_TRANSFORMATION('', '', #126, #130);
#135 = (
   REPRESENTATION_RELATIONSHIP ('', '', #6, #109)
   REPRESENTATION_RELATIONSHIP_WITH_TRANSFORMATION (#134)
   SHAPE_REPRESENTATION_RELATIONSHIP ()
);
#136 = CONTEXT_DEPENDENT_SHAPE_REPRESENTATION(#135, #125);
ENDSEC;
END-ISO-10303-21;
