ISO-10303-21;
HEADER;
FILE_DESCRIPTION(('STEP'), '1');
FILE_NAME('TransMulti', '2026-04-20T17:31:55', (''), (''), 'Express 3.1.2.0', 'Express Tool', 'Unknown');
FILE_SCHEMA(('AUTOMOTIVE_DESIGN'));
ENDSEC;

DATA;
#1 = MANIFOLD_SOLID_BREP('RefSph_0', #2);
#2 = CLOSED_SHELL('', (#3));
#3 = ADVANCED_FACE('', (#4), #19, .T.);
#4 = FACE_OUTER_BOUND('', #5, .T.);
#5 = EDGE_LOOP('', (#6, #18));
#6 = ORIENTED_EDGE('', *, *, #7, .F.);
#7 = EDGE_CURVE('', #8, #10, #12, .T.);
#8 = VERTEX_POINT('', #9);
#9 = CARTESIAN_POINT('', (-9.18485099360515E-16, 0., -5.));
#10 = VERTEX_POINT('', #11);
#11 = CARTESIAN_POINT('', (1.53080849893419E-15, 0., 5.));
#12 = (
   BOUNDED_CURVE ()
   B_SPLINE_CURVE (2, (#13, #14, #15, #16, #17), .UNSPECIFIED., .F., .U.)
   B_SPLINE_CURVE_WITH_KNOTS ((3, 2, 3), (0., 0.5, 1.), .UNSPECIFIED.)
   CURVE ()
   GEOMETRIC_REPRESENTATION_ITEM ()
   RATIONAL_B_SPLINE_CURVE ((1., 0.707106781186548, 1., 0.707106781186548, 1.))
   REPRESENTATION_ITEM ('')
);
#13 = CARTESIAN_POINT('', (-9.18485099360515E-16, 0., -5.));
#14 = CARTESIAN_POINT('', (5., 0., -5.));
#15 = CARTESIAN_POINT('', (5., 0., -1.22464679914735E-15));
#16 = CARTESIAN_POINT('', (5., 0., 5.));
#17 = CARTESIAN_POINT('', (1.53080849893419E-15, 0., 5.));
#18 = ORIENTED_EDGE('', *, *, #7, .T.);
#19 = (
   BOUNDED_SURFACE ()
   B_SPLINE_SURFACE (2, 2, ((#20, #21, #22, #23, #24), (#25, #26, #27, #28, #29), (#30, #31, #32, #33, #34), (#35, #36, #37, #38, #39), (#40, #41, #42, #43, #44), (#45, #46, #47, #48, #49), (#50, #51, #52, #53, #54), (#55, #56, #57, #58, #59), (#60, #61, #62, #63, #64)), .UNSPECIFIED., .T., .F., .U.)
   B_SPLINE_SURFACE_WITH_KNOTS ((3, 2, 2, 2, 3), (3, 2, 3), (0., 0.25, 0.5, 0.75, 1.), (0., 0.5, 1.), .UNSPECIFIED.)
   GEOMETRIC_REPRESENTATION_ITEM ()
   RATIONAL_B_SPLINE_SURFACE (((1., 0.707106781186548, 1., 0.707106781186548, 1.), (0.707106781186548, 0.5, 0.707106781186548, 0.5, 0.707106781186548), (1., 0.707106781186548, 1., 0.707106781186548, 1.), (0.707106781186548, 0.5, 0.707106781186548, 0.5, 0.707106781186548), (1., 0.707106781186548, 1., 0.707106781186548, 1.), (0.707106781186548, 0.5, 0.707106781186548, 0.5, 0.707106781186548), (1., 0.707106781186548, 1., 0.707106781186548, 1.), (0.707106781186548, 0.5, 0.707106781186548, 0.5, 0.707106781186548), (1., 0.707106781186548, 1., 0.707106781186548, 1.)))
   REPRESENTATION_ITEM ('')
   SURFACE ()
);
#20 = CARTESIAN_POINT('', (-9.18485099360515E-16, 0., -5.));
#21 = CARTESIAN_POINT('', (5., 0., -5.));
#22 = CARTESIAN_POINT('', (5., 0., -1.22464679914735E-15));
#23 = CARTESIAN_POINT('', (5., 0., 5.));
#24 = CARTESIAN_POINT('', (1.53080849893419E-15, 0., 5.));
#25 = CARTESIAN_POINT('', (-9.18485099360515E-16, 0., -5.));
#26 = CARTESIAN_POINT('', (5., 5., -5.));
#27 = CARTESIAN_POINT('', (5., 5., -1.22464679914735E-15));
#28 = CARTESIAN_POINT('', (5., 5., 5.));
#29 = CARTESIAN_POINT('', (1.53080849893419E-15, 0., 5.));
#30 = CARTESIAN_POINT('', (-9.18485099360515E-16, 0., -5.));
#31 = CARTESIAN_POINT('', (3.06161699786838E-16, 5., -5.));
#32 = CARTESIAN_POINT('', (3.06161699786838E-16, 5., -1.22464679914735E-15));
#33 = CARTESIAN_POINT('', (3.06161699786838E-16, 5., 5.));
#34 = CARTESIAN_POINT('', (1.53080849893419E-15, 0., 5.));
#35 = CARTESIAN_POINT('', (-9.18485099360515E-16, 0., -5.));
#36 = CARTESIAN_POINT('', (-5., 5., -5.));
#37 = CARTESIAN_POINT('', (-5., 5., -1.22464679914735E-15));
#38 = CARTESIAN_POINT('', (-5., 5., 5.));
#39 = CARTESIAN_POINT('', (1.53080849893419E-15, 0., 5.));
#40 = CARTESIAN_POINT('', (-9.18485099360515E-16, 0., -5.));
#41 = CARTESIAN_POINT('', (-5., 6.12323399573677E-16, -5.));
#42 = CARTESIAN_POINT('', (-5., 6.12323399573677E-16, -1.22464679914735E-15));
#43 = CARTESIAN_POINT('', (-5., 6.12323399573677E-16, 5.));
#44 = CARTESIAN_POINT('', (1.53080849893419E-15, 0., 5.));
#45 = CARTESIAN_POINT('', (-9.18485099360515E-16, 0., -5.));
#46 = CARTESIAN_POINT('', (-5., -5., -5.));
#47 = CARTESIAN_POINT('', (-5., -5., -1.22464679914735E-15));
#48 = CARTESIAN_POINT('', (-5., -5., 5.));
#49 = CARTESIAN_POINT('', (1.53080849893419E-15, 0., 5.));
#50 = CARTESIAN_POINT('', (-9.18485099360515E-16, 0., -5.));
#51 = CARTESIAN_POINT('', (-9.18485099360515E-16, -5., -5.));
#52 = CARTESIAN_POINT('', (-9.18485099360515E-16, -5., -1.22464679914735E-15));
#53 = CARTESIAN_POINT('', (-9.18485099360515E-16, -5., 5.));
#54 = CARTESIAN_POINT('', (1.53080849893419E-15, 0., 5.));
#55 = CARTESIAN_POINT('', (-9.18485099360515E-16, 0., -5.));
#56 = CARTESIAN_POINT('', (5., -5., -5.));
#57 = CARTESIAN_POINT('', (5., -5., -1.22464679914735E-15));
#58 = CARTESIAN_POINT('', (5., -5., 5.));
#59 = CARTESIAN_POINT('', (1.53080849893419E-15, 0., 5.));
#60 = CARTESIAN_POINT('', (-9.18485099360515E-16, 0., -5.));
#61 = CARTESIAN_POINT('', (5., 0., -5.));
#62 = CARTESIAN_POINT('', (5., 0., -1.22464679914735E-15));
#63 = CARTESIAN_POINT('', (5., 0., 5.));
#64 = CARTESIAN_POINT('', (1.53080849893419E-15, 0., 5.));
#65 = DRAUGHTING_MODEL('', (#73, #219, #303), #306);
#66 = PRESENTATION_STYLE_ASSIGNMENT((#67));
#67 = SURFACE_STYLE_USAGE(.POSITIVE., #68);
#68 = SURFACE_SIDE_STYLE('', (#69));
#69 = SURFACE_STYLE_FILL_AREA(#70);
#70 = FILL_AREA_STYLE('', (#71));
#71 = FILL_AREA_STYLE_COLOUR('', #72);
#72 = COLOUR_RGB('', 0.50196078431373, 0.50196078431373, 0.50196078431373);
#73 = STYLED_ITEM('', (#66), #1);
#74 = MANIFOLD_SOLID_BREP('TransMulti_0', #75);
#75 = CLOSED_SHELL('', (#76, #112, #140, #168, #188, #200));
#76 = ADVANCED_FACE('', (#77), #107, .T.);
#77 = FACE_OUTER_BOUND('', #78, .T.);
#78 = EDGE_LOOP('', (#79, #88, #95, #102));
#79 = ORIENTED_EDGE('', *, *, #80, .T.);
#80 = EDGE_CURVE('', #81, #83, #85, .T.);
#81 = VERTEX_POINT('', #82);
#82 = CARTESIAN_POINT('', (60., 20., 0.));
#83 = VERTEX_POINT('', #84);
#84 = CARTESIAN_POINT('', (60., 20., 25.));
#85 = B_SPLINE_CURVE_WITH_KNOTS('', 1, (#86, #87), .UNSPECIFIED., .F., .U., (2, 2), (0., 25.), .UNSPECIFIED.);
#86 = CARTESIAN_POINT('', (60., 20., 0.));
#87 = CARTESIAN_POINT('', (60., 20., 25.));
#88 = ORIENTED_EDGE('', *, *, #89, .T.);
#89 = EDGE_CURVE('', #83, #90, #92, .T.);
#90 = VERTEX_POINT('', #91);
#91 = CARTESIAN_POINT('', (90., 20., 25.));
#92 = B_SPLINE_CURVE_WITH_KNOTS('', 1, (#93, #94), .UNSPECIFIED., .F., .U., (2, 2), (0., 30.), .UNSPECIFIED.);
#93 = CARTESIAN_POINT('', (60., 20., 25.));
#94 = CARTESIAN_POINT('', (90., 20., 25.));
#95 = ORIENTED_EDGE('', *, *, #96, .F.);
#96 = EDGE_CURVE('', #97, #90, #99, .T.);
#97 = VERTEX_POINT('', #98);
#98 = CARTESIAN_POINT('', (90., 20., 0.));
#99 = B_SPLINE_CURVE_WITH_KNOTS('', 1, (#100, #101), .UNSPECIFIED., .F., .U., (2, 2), (0., 25.), .UNSPECIFIED.);
#100 = CARTESIAN_POINT('', (90., 20., 0.));
#101 = CARTESIAN_POINT('', (90., 20., 25.));
#102 = ORIENTED_EDGE('', *, *, #103, .F.);
#103 = EDGE_CURVE('', #81, #97, #104, .T.);
#104 = B_SPLINE_CURVE_WITH_KNOTS('', 1, (#105, #106), .UNSPECIFIED., .F., .U., (2, 2), (0., 30.), .UNSPECIFIED.);
#105 = CARTESIAN_POINT('', (60., 20., 0.));
#106 = CARTESIAN_POINT('', (90., 20., 0.));
#107 = B_SPLINE_SURFACE_WITH_KNOTS('', 1, 1, ((#108, #109), (#110, #111)), .UNSPECIFIED., .F., .F., .U., (2, 2), (2, 2), (0., 25.), (0., 30.), .UNSPECIFIED.);
#108 = CARTESIAN_POINT('', (60., 20., 0.));
#109 = CARTESIAN_POINT('', (90., 20., 0.));
#110 = CARTESIAN_POINT('', (60., 20., 25.));
#111 = CARTESIAN_POINT('', (90., 20., 25.));
#112 = ADVANCED_FACE('', (#113), #135, .T.);
#113 = FACE_OUTER_BOUND('', #114, .T.);
#114 = EDGE_LOOP('', (#115, #122, #129, #134));
#115 = ORIENTED_EDGE('', *, *, #116, .F.);
#116 = EDGE_CURVE('', #117, #83, #119, .T.);
#117 = VERTEX_POINT('', #118);
#118 = CARTESIAN_POINT('', (60., 0., 25.));
#119 = B_SPLINE_CURVE_WITH_KNOTS('', 1, (#120, #121), .UNSPECIFIED., .F., .U., (2, 2), (0., 20.), .UNSPECIFIED.);
#120 = CARTESIAN_POINT('', (60., 0., 25.));
#121 = CARTESIAN_POINT('', (60., 20., 25.));
#122 = ORIENTED_EDGE('', *, *, #123, .T.);
#123 = EDGE_CURVE('', #117, #124, #126, .T.);
#124 = VERTEX_POINT('', #125);
#125 = CARTESIAN_POINT('', (90., 0., 25.));
#126 = B_SPLINE_CURVE_WITH_KNOTS('', 1, (#127, #128), .UNSPECIFIED., .F., .U., (2, 2), (0., 30.), .UNSPECIFIED.);
#127 = CARTESIAN_POINT('', (60., 0., 25.));
#128 = CARTESIAN_POINT('', (90., 0., 25.));
#129 = ORIENTED_EDGE('', *, *, #130, .T.);
#130 = EDGE_CURVE('', #124, #90, #131, .T.);
#131 = B_SPLINE_CURVE_WITH_KNOTS('', 1, (#132, #133), .UNSPECIFIED., .F., .U., (2, 2), (0., 20.), .UNSPECIFIED.);
#132 = CARTESIAN_POINT('', (90., 0., 25.));
#133 = CARTESIAN_POINT('', (90., 20., 25.));
#134 = ORIENTED_EDGE('', *, *, #89, .F.);
#135 = B_SPLINE_SURFACE_WITH_KNOTS('', 1, 1, ((#136, #137), (#138, #139)), .UNSPECIFIED., .F., .F., .U., (2, 2), (2, 2), (0., 30.), (0., 20.), .UNSPECIFIED.);
#136 = CARTESIAN_POINT('', (60., 0., 25.));
#137 = CARTESIAN_POINT('', (60., 20., 25.));
#138 = CARTESIAN_POINT('', (90., 0., 25.));
#139 = CARTESIAN_POINT('', (90., 20., 25.));
#140 = ADVANCED_FACE('', (#141), #163, .T.);
#141 = FACE_OUTER_BOUND('', #142, .T.);
#142 = EDGE_LOOP('', (#143, #150, #157, #162));
#143 = ORIENTED_EDGE('', *, *, #144, .F.);
#144 = EDGE_CURVE('', #145, #117, #147, .T.);
#145 = VERTEX_POINT('', #146);
#146 = CARTESIAN_POINT('', (60., 0., 0.));
#147 = B_SPLINE_CURVE_WITH_KNOTS('', 1, (#148, #149), .UNSPECIFIED., .F., .U., (2, 2), (0., 25.), .UNSPECIFIED.);
#148 = CARTESIAN_POINT('', (60., 0., 0.));
#149 = CARTESIAN_POINT('', (60., 0., 25.));
#150 = ORIENTED_EDGE('', *, *, #151, .T.);
#151 = EDGE_CURVE('', #145, #152, #154, .T.);
#152 = VERTEX_POINT('', #153);
#153 = CARTESIAN_POINT('', (90., 0., 0.));
#154 = B_SPLINE_CURVE_WITH_KNOTS('', 1, (#155, #156), .UNSPECIFIED., .F., .U., (2, 2), (0., 30.), .UNSPECIFIED.);
#155 = CARTESIAN_POINT('', (60., 0., 0.));
#156 = CARTESIAN_POINT('', (90., 0., 0.));
#157 = ORIENTED_EDGE('', *, *, #158, .T.);
#158 = EDGE_CURVE('', #152, #124, #159, .T.);
#159 = B_SPLINE_CURVE_WITH_KNOTS('', 1, (#160, #161), .UNSPECIFIED., .F., .U., (2, 2), (0., 25.), .UNSPECIFIED.);
#160 = CARTESIAN_POINT('', (90., 0., 0.));
#161 = CARTESIAN_POINT('', (90., 0., 25.));
#162 = ORIENTED_EDGE('', *, *, #123, .F.);
#163 = B_SPLINE_SURFACE_WITH_KNOTS('', 1, 1, ((#164, #165), (#166, #167)), .UNSPECIFIED., .F., .F., .U., (2, 2), (2, 2), (0., 30.), (0., 25.), .UNSPECIFIED.);
#164 = CARTESIAN_POINT('', (60., 0., 0.));
#165 = CARTESIAN_POINT('', (60., 0., 25.));
#166 = CARTESIAN_POINT('', (90., 0., 0.));
#167 = CARTESIAN_POINT('', (90., 0., 25.));
#168 = ADVANCED_FACE('', (#169), #183, .T.);
#169 = FACE_OUTER_BOUND('', #170, .T.);
#170 = EDGE_LOOP('', (#171, #176, #177, #182));
#171 = ORIENTED_EDGE('', *, *, #172, .T.);
#172 = EDGE_CURVE('', #145, #81, #173, .T.);
#173 = B_SPLINE_CURVE_WITH_KNOTS('', 1, (#174, #175), .UNSPECIFIED., .F., .U., (2, 2), (0., 20.), .UNSPECIFIED.);
#174 = CARTESIAN_POINT('', (60., 0., 0.));
#175 = CARTESIAN_POINT('', (60., 20., 0.));
#176 = ORIENTED_EDGE('', *, *, #103, .T.);
#177 = ORIENTED_EDGE('', *, *, #178, .F.);
#178 = EDGE_CURVE('', #152, #97, #179, .T.);
#179 = B_SPLINE_CURVE_WITH_KNOTS('', 1, (#180, #181), .UNSPECIFIED., .F., .U., (2, 2), (0., 20.), .UNSPECIFIED.);
#180 = CARTESIAN_POINT('', (90., 0., 0.));
#181 = CARTESIAN_POINT('', (90., 20., 0.));
#182 = ORIENTED_EDGE('', *, *, #151, .F.);
#183 = B_SPLINE_SURFACE_WITH_KNOTS('', 1, 1, ((#184, #185), (#186, #187)), .UNSPECIFIED., .F., .F., .U., (2, 2), (2, 2), (0., 20.), (0., 30.), .UNSPECIFIED.);
#184 = CARTESIAN_POINT('', (60., 0., 0.));
#185 = CARTESIAN_POINT('', (90., 0., 0.));
#186 = CARTESIAN_POINT('', (60., 20., 0.));
#187 = CARTESIAN_POINT('', (90., 20., 0.));
#188 = ADVANCED_FACE('', (#189), #195, .T.);
#189 = FACE_OUTER_BOUND('', #190, .T.);
#190 = EDGE_LOOP('', (#191, #192, #193, #194));
#191 = ORIENTED_EDGE('', *, *, #158, .F.);
#192 = ORIENTED_EDGE('', *, *, #178, .T.);
#193 = ORIENTED_EDGE('', *, *, #96, .T.);
#194 = ORIENTED_EDGE('', *, *, #130, .F.);
#195 = B_SPLINE_SURFACE_WITH_KNOTS('', 1, 1, ((#196, #197), (#198, #199)), .UNSPECIFIED., .F., .F., .U., (2, 2), (2, 2), (0., 20.), (0., 25.), .UNSPECIFIED.);
#196 = CARTESIAN_POINT('', (90., 0., 0.));
#197 = CARTESIAN_POINT('', (90., 0., 25.));
#198 = CARTESIAN_POINT('', (90., 20., 0.));
#199 = CARTESIAN_POINT('', (90., 20., 25.));
#200 = ADVANCED_FACE('', (#201), #207, .T.);
#201 = FACE_OUTER_BOUND('', #202, .T.);
#202 = EDGE_LOOP('', (#203, #204, #205, #206));
#203 = ORIENTED_EDGE('', *, *, #144, .T.);
#204 = ORIENTED_EDGE('', *, *, #116, .T.);
#205 = ORIENTED_EDGE('', *, *, #80, .F.);
#206 = ORIENTED_EDGE('', *, *, #172, .F.);
#207 = B_SPLINE_SURFACE_WITH_KNOTS('', 1, 1, ((#208, #209), (#210, #211)), .UNSPECIFIED., .F., .F., .U., (2, 2), (2, 2), (0., 25.), (0., 20.), .UNSPECIFIED.);
#208 = CARTESIAN_POINT('', (60., 0., 0.));
#209 = CARTESIAN_POINT('', (60., 20., 0.));
#210 = CARTESIAN_POINT('', (60., 0., 25.));
#211 = CARTESIAN_POINT('', (60., 20., 25.));
#212 = PRESENTATION_STYLE_ASSIGNMENT((#213));
#213 = SURFACE_STYLE_USAGE(.POSITIVE., #214);
#214 = SURFACE_SIDE_STYLE('', (#215));
#215 = SURFACE_STYLE_FILL_AREA(#216);
#216 = FILL_AREA_STYLE('', (#217));
#217 = FILL_AREA_STYLE_COLOUR('', #218);
#218 = COLOUR_RGB('', 0.50196078431373, 0.50196078431373, 0.50196078431373);
#219 = STYLED_ITEM('', (#212), #74);
#220 = MANIFOLD_SOLID_BREP('TransMulti_1', #221);
#221 = CLOSED_SHELL('', (#222, #278, #287));
#222 = ADVANCED_FACE('', (#223), #259, .T.);
#223 = FACE_OUTER_BOUND('', #224, .T.);
#224 = EDGE_LOOP('', (#225, #234, #246, #247));
#225 = ORIENTED_EDGE('', *, *, #226, .F.);
#226 = EDGE_CURVE('', #227, #229, #231, .T.);
#227 = VERTEX_POINT('', #228);
#228 = CARTESIAN_POINT('', (67.5, 0., 0.));
#229 = VERTEX_POINT('', #230);
#230 = CARTESIAN_POINT('', (67.5, 0., 30.));
#231 = B_SPLINE_CURVE_WITH_KNOTS('', 1, (#232, #233), .UNSPECIFIED., .F., .U., (2, 2), (0., 30.), .UNSPECIFIED.);
#232 = CARTESIAN_POINT('', (67.5, 0., 0.));
#233 = CARTESIAN_POINT('', (67.5, 0., 30.));
#234 = ORIENTED_EDGE('', *, *, #235, .T.);
#235 = EDGE_CURVE('', #227, #227, #236, .T.);
#236 = (
   BOUNDED_CURVE ()
   B_SPLINE_CURVE (2, (#237, #238, #239, #240, #241, #242, #243, #244, #245), .UNSPECIFIED., .T., .U.)
   B_SPLINE_CURVE_WITH_KNOTS ((3, 2, 2, 2, 3), (0., 11.7809724509617, 23.5619449019234, 35.3429173528852, 47.1238898038469), .UNSPECIFIED.)
   CURVE ()
   GEOMETRIC_REPRESENTATION_ITEM ()
   RATIONAL_B_SPLINE_CURVE ((1., 0.707106781186548, 1., 0.707106781186548, 1., 0.707106781186548, 1., 0.707106781186548, 1.))
   REPRESENTATION_ITEM ('')
);
#237 = CARTESIAN_POINT('', (67.5, 0., 0.));
#238 = CARTESIAN_POINT('', (67.5, 7.5, 0.));
#239 = CARTESIAN_POINT('', (60., 7.5, 0.));
#240 = CARTESIAN_POINT('', (52.5, 7.5, 0.));
#241 = CARTESIAN_POINT('', (52.5, 9.18485099360515E-16, 0.));
#242 = CARTESIAN_POINT('', (52.5, -7.5, 0.));
#243 = CARTESIAN_POINT('', (60., -7.5, 0.));
#244 = CARTESIAN_POINT('', (67.5, -7.5, 0.));
#245 = CARTESIAN_POINT('', (67.5, 0., 0.));
#246 = ORIENTED_EDGE('', *, *, #226, .T.);
#247 = ORIENTED_EDGE('', *, *, #248, .F.);
#248 = EDGE_CURVE('', #229, #229, #249, .T.);
#249 = (
   BOUNDED_CURVE ()
   B_SPLINE_CURVE (2, (#250, #251, #252, #253, #254, #255, #256, #257, #258), .UNSPECIFIED., .T., .U.)
   B_SPLINE_CURVE_WITH_KNOTS ((3, 2, 2, 2, 3), (0., 11.7809724509617, 23.5619449019234, 35.3429173528852, 47.1238898038469), .UNSPECIFIED.)
   CURVE ()
   GEOMETRIC_REPRESENTATION_ITEM ()
   RATIONAL_B_SPLINE_CURVE ((1., 0.707106781186548, 1., 0.707106781186548, 1., 0.707106781186548, 1., 0.707106781186548, 1.))
   REPRESENTATION_ITEM ('')
);
#250 = CARTESIAN_POINT('', (67.5, 0., 30.));
#251 = CARTESIAN_POINT('', (67.5, 7.5, 30.));
#252 = CARTESIAN_POINT('', (60., 7.5, 30.));
#253 = CARTESIAN_POINT('', (52.5, 7.5, 30.));
#254 = CARTESIAN_POINT('', (52.5, 9.18485099360515E-16, 30.));
#255 = CARTESIAN_POINT('', (52.5, -7.5, 30.));
#256 = CARTESIAN_POINT('', (60., -7.5, 30.));
#257 = CARTESIAN_POINT('', (67.5, -7.5, 30.));
#258 = CARTESIAN_POINT('', (67.5, 0., 30.));
#259 = (
   BOUNDED_SURFACE ()
   B_SPLINE_SURFACE (2, 1, ((#260, #261), (#262, #263), (#264, #265), (#266, #267), (#268, #269), (#270, #271), (#272, #273), (#274, #275), (#276, #277)), .UNSPECIFIED., .T., .F., .U.)
   B_SPLINE_SURFACE_WITH_KNOTS ((3, 2, 2, 2, 3), (2, 2), (0., 11.7809724509617, 23.5619449019234, 35.3429173528852, 47.1238898038469), (0., 30.), .UNSPECIFIED.)
   GEOMETRIC_REPRESENTATION_ITEM ()
   RATIONAL_B_SPLINE_SURFACE (((1., 1.), (0.707106781186548, 0.707106781186548), (1., 1.), (0.707106781186548, 0.707106781186548), (1., 1.), (0.707106781186548, 0.707106781186548), (1., 1.), (0.707106781186548, 0.707106781186548), (1., 1.)))
   REPRESENTATION_ITEM ('')
   SURFACE ()
);
#260 = CARTESIAN_POINT('', (67.5, 0., 0.));
#261 = CARTESIAN_POINT('', (67.5, 0., 30.));
#262 = CARTESIAN_POINT('', (67.5, 7.5, 0.));
#263 = CARTESIAN_POINT('', (67.5, 7.5, 30.));
#264 = CARTESIAN_POINT('', (60., 7.5, 0.));
#265 = CARTESIAN_POINT('', (60., 7.5, 30.));
#266 = CARTESIAN_POINT('', (52.5, 7.5, 0.));
#267 = CARTESIAN_POINT('', (52.5, 7.5, 30.));
#268 = CARTESIAN_POINT('', (52.5, 9.18485099360515E-16, 0.));
#269 = CARTESIAN_POINT('', (52.5, 9.18485099360515E-16, 30.));
#270 = CARTESIAN_POINT('', (52.5, -7.5, 0.));
#271 = CARTESIAN_POINT('', (52.5, -7.5, 30.));
#272 = CARTESIAN_POINT('', (60., -7.5, 0.));
#273 = CARTESIAN_POINT('', (60., -7.5, 30.));
#274 = CARTESIAN_POINT('', (67.5, -7.5, 0.));
#275 = CARTESIAN_POINT('', (67.5, -7.5, 30.));
#276 = CARTESIAN_POINT('', (67.5, 0., 0.));
#277 = CARTESIAN_POINT('', (67.5, 0., 30.));
#278 = ADVANCED_FACE('', (#279), #282, .T.);
#279 = FACE_OUTER_BOUND('', #280, .T.);
#280 = EDGE_LOOP('', (#281));
#281 = ORIENTED_EDGE('', *, *, #235, .F.);
#282 = B_SPLINE_SURFACE_WITH_KNOTS('', 1, 1, ((#283, #284), (#285, #286)), .UNSPECIFIED., .F., .F., .U., (2, 2), (2, 2), (0., 1.), (0., 1.), .UNSPECIFIED.);
#283 = CARTESIAN_POINT('', (71.667261889578, -11.667261889578, 0.));
#284 = CARTESIAN_POINT('', (71.667261889578, 11.667261889578, 0.));
#285 = CARTESIAN_POINT('', (48.332738110422, -11.667261889578, 0.));
#286 = CARTESIAN_POINT('', (48.332738110422, 11.667261889578, 0.));
#287 = ADVANCED_FACE('', (#288), #291, .T.);
#288 = FACE_OUTER_BOUND('', #289, .T.);
#289 = EDGE_LOOP('', (#290));
#290 = ORIENTED_EDGE('', *, *, #248, .T.);
#291 = B_SPLINE_SURFACE_WITH_KNOTS('', 1, 1, ((#292, #293), (#294, #295)), .UNSPECIFIED., .F., .F., .U., (2, 2), (2, 2), (0., 1.), (0., 1.), .UNSPECIFIED.);
#292 = CARTESIAN_POINT('', (71.667261889578, -11.667261889578, 30.));
#293 = CARTESIAN_POINT('', (48.332738110422, -11.667261889578, 30.));
#294 = CARTESIAN_POINT('', (71.667261889578, 11.667261889578, 30.));
#295 = CARTESIAN_POINT('', (48.332738110422, 11.667261889578, 30.));
#296 = PRESENTATION_STYLE_ASSIGNMENT((#297));
#297 = SURFACE_STYLE_USAGE(.POSITIVE., #298);
#298 = SURFACE_SIDE_STYLE('', (#299));
#299 = SURFACE_STYLE_FILL_AREA(#300);
#300 = FILL_AREA_STYLE('', (#301));
#301 = FILL_AREA_STYLE_COLOUR('', #302);
#302 = COLOUR_RGB('', 0.50196078431373, 0.50196078431373, 0.50196078431373);
#303 = STYLED_ITEM('', (#296), #220);
#304 = CARTESIAN_POINT('Origin', (0., 0., 0.));
#305 = GEOMETRIC_SET('', (#304));
#306 = (
   GEOMETRIC_REPRESENTATION_CONTEXT (3)
   GLOBAL_UNCERTAINTY_ASSIGNED_CONTEXT ((#308))
   GLOBAL_UNIT_ASSIGNED_CONTEXT ((#307, #309, #310))
   REPRESENTATION_CONTEXT ('', '3D')
);
#307 = (
   LENGTH_UNIT ()
   NAMED_UNIT (*)
   SI_UNIT (.MILLI., .METRE.)
);
#308 = UNCERTAINTY_MEASURE_WITH_UNIT(LENGTH_MEASURE(1.E-6), #307, 'DISTANCE_ACCURACY_VALUE', '');
#309 = (
   NAMED_UNIT (*)
   SI_UNIT ($, .STERADIAN.)
   SOLID_ANGLE_UNIT ()
);
#310 = (
   NAMED_UNIT (*)
   PLANE_ANGLE_UNIT ()
   SI_UNIT ($, .RADIAN.)
);
#311 = SHAPE_REPRESENTATION('', (#326), #306);
#312 = PRODUCT_DEFINITION_SHAPE('', '', #313);
#313 = PRODUCT_DEFINITION('', '', #316, #320);
#314 = APPLICATION_CONTEXT('configuration controlled 3D designs of mechanical parts and assemblies');
#315 = APPLICATION_PROTOCOL_DEFINITION('International Standard', 'automotive_design', 2002, #314);
#316 = PRODUCT_DEFINITION_FORMATION_WITH_SPECIFIED_SOURCE('', '', #317, .NOT_KNOWN.);
#317 = PRODUCT('TransMulti', 'TransMulti', '', (#318));
#318 = PRODUCT_CONTEXT('', #314, 'mechanical');
#319 = PRODUCT_RELATED_PRODUCT_CATEGORY('detail', '', (#317));
#320 = PRODUCT_DEFINITION_CONTEXT('part definition', #314, 'design');
#321 = SHAPE_DEFINITION_REPRESENTATION(#312, #311);
#322 = SHAPE_REPRESENTATION_RELATIONSHIP('', '', #311, #323);
#323 = SHAPE_REPRESENTATION('', (#305), #306);
#324 = SHAPE_REPRESENTATION_RELATIONSHIP('', '', #311, #325);
#325 = ADVANCED_BREP_SHAPE_REPRESENTATION('', (#1, #74, #220), #306);
#326 = AXIS2_PLACEMENT_3D('', #327, #328, #329);
#327 = CARTESIAN_POINT('', (0., 0., 0.));
#328 = DIRECTION('', (0., 0., 1.));
#329 = DIRECTION('', (1., 0., 0.));
ENDSEC;
END-ISO-10303-21;
