ISO-10303-21;
HEADER;
FILE_DESCRIPTION(('STEP'), '1');
FILE_NAME('Assembly', '2026-04-20T19:51:31', (''), (''), 'Express 3.1.2.0', 'Express Tool', 'Unknown');
FILE_SCHEMA(('AUTOMOTIVE_DESIGN'));
ENDSEC;

DATA;
#1 = MANIFOLD_SOLID_BREP('BasePlate_0', #2);
#2 = CLOSED_SHELL('', (#3, #39, #67, #95, #115, #127));
#3 = ADVANCED_FACE('', (#4), #34, .T.);
#4 = FACE_OUTER_BOUND('', #5, .T.);
#5 = EDGE_LOOP('', (#6, #15, #22, #29));
#6 = ORIENTED_EDGE('', *, *, #7, .T.);
#7 = EDGE_CURVE('', #8, #10, #12, .T.);
#8 = VERTEX_POINT('', #9);
#9 = CARTESIAN_POINT('', (0., 80., 0.));
#10 = VERTEX_POINT('', #11);
#11 = CARTESIAN_POINT('', (0., 80., 5.));
#12 = B_SPLINE_CURVE_WITH_KNOTS('', 1, (#13, #14), .UNSPECIFIED., .F., .U., (2, 2), (0., 5.), .UNSPECIFIED.);
#13 = CARTESIAN_POINT('', (0., 80., 0.));
#14 = CARTESIAN_POINT('', (0., 80., 5.));
#15 = ORIENTED_EDGE('', *, *, #16, .T.);
#16 = EDGE_CURVE('', #10, #17, #19, .T.);
#17 = VERTEX_POINT('', #18);
#18 = CARTESIAN_POINT('', (100., 80., 5.));
#19 = B_SPLINE_CURVE_WITH_KNOTS('', 1, (#20, #21), .UNSPECIFIED., .F., .U., (2, 2), (0., 100.), .UNSPECIFIED.);
#20 = CARTESIAN_POINT('', (0., 80., 5.));
#21 = CARTESIAN_POINT('', (100., 80., 5.));
#22 = ORIENTED_EDGE('', *, *, #23, .F.);
#23 = EDGE_CURVE('', #24, #17, #26, .T.);
#24 = VERTEX_POINT('', #25);
#25 = CARTESIAN_POINT('', (100., 80., 0.));
#26 = B_SPLINE_CURVE_WITH_KNOTS('', 1, (#27, #28), .UNSPECIFIED., .F., .U., (2, 2), (0., 5.), .UNSPECIFIED.);
#27 = CARTESIAN_POINT('', (100., 80., 0.));
#28 = CARTESIAN_POINT('', (100., 80., 5.));
#29 = ORIENTED_EDGE('', *, *, #30, .F.);
#30 = EDGE_CURVE('', #8, #24, #31, .T.);
#31 = B_SPLINE_CURVE_WITH_KNOTS('', 1, (#32, #33), .UNSPECIFIED., .F., .U., (2, 2), (0., 100.), .UNSPECIFIED.);
#32 = CARTESIAN_POINT('', (0., 80., 0.));
#33 = CARTESIAN_POINT('', (100., 80., 0.));
#34 = B_SPLINE_SURFACE_WITH_KNOTS('', 1, 1, ((#35, #36), (#37, #38)), .UNSPECIFIED., .F., .F., .U., (2, 2), (2, 2), (0., 5.), (0., 100.), .UNSPECIFIED.);
#35 = CARTESIAN_POINT('', (0., 80., 0.));
#36 = CARTESIAN_POINT('', (100., 80., 0.));
#37 = CARTESIAN_POINT('', (0., 80., 5.));
#38 = CARTESIAN_POINT('', (100., 80., 5.));
#39 = ADVANCED_FACE('', (#40), #62, .T.);
#40 = FACE_OUTER_BOUND('', #41, .T.);
#41 = EDGE_LOOP('', (#42, #49, #56, #61));
#42 = ORIENTED_EDGE('', *, *, #43, .F.);
#43 = EDGE_CURVE('', #44, #10, #46, .T.);
#44 = VERTEX_POINT('', #45);
#45 = CARTESIAN_POINT('', (0., 0., 5.));
#46 = B_SPLINE_CURVE_WITH_KNOTS('', 1, (#47, #48), .UNSPECIFIED., .F., .U., (2, 2), (0., 80.), .UNSPECIFIED.);
#47 = CARTESIAN_POINT('', (0., 0., 5.));
#48 = CARTESIAN_POINT('', (0., 80., 5.));
#49 = ORIENTED_EDGE('', *, *, #50, .T.);
#50 = EDGE_CURVE('', #44, #51, #53, .T.);
#51 = VERTEX_POINT('', #52);
#52 = CARTESIAN_POINT('', (100., 0., 5.));
#53 = B_SPLINE_CURVE_WITH_KNOTS('', 1, (#54, #55), .UNSPECIFIED., .F., .U., (2, 2), (0., 100.), .UNSPECIFIED.);
#54 = CARTESIAN_POINT('', (0., 0., 5.));
#55 = CARTESIAN_POINT('', (100., 0., 5.));
#56 = ORIENTED_EDGE('', *, *, #57, .T.);
#57 = EDGE_CURVE('', #51, #17, #58, .T.);
#58 = B_SPLINE_CURVE_WITH_KNOTS('', 1, (#59, #60), .UNSPECIFIED., .F., .U., (2, 2), (0., 80.), .UNSPECIFIED.);
#59 = CARTESIAN_POINT('', (100., 0., 5.));
#60 = CARTESIAN_POINT('', (100., 80., 5.));
#61 = ORIENTED_EDGE('', *, *, #16, .F.);
#62 = B_SPLINE_SURFACE_WITH_KNOTS('', 1, 1, ((#63, #64), (#65, #66)), .UNSPECIFIED., .F., .F., .U., (2, 2), (2, 2), (0., 100.), (0., 80.), .UNSPECIFIED.);
#63 = CARTESIAN_POINT('', (0., 0., 5.));
#64 = CARTESIAN_POINT('', (0., 80., 5.));
#65 = CARTESIAN_POINT('', (100., 0., 5.));
#66 = CARTESIAN_POINT('', (100., 80., 5.));
#67 = ADVANCED_FACE('', (#68), #90, .T.);
#68 = FACE_OUTER_BOUND('', #69, .T.);
#69 = EDGE_LOOP('', (#70, #77, #84, #89));
#70 = ORIENTED_EDGE('', *, *, #71, .F.);
#71 = EDGE_CURVE('', #72, #44, #74, .T.);
#72 = VERTEX_POINT('', #73);
#73 = CARTESIAN_POINT('', (0., 0., 0.));
#74 = B_SPLINE_CURVE_WITH_KNOTS('', 1, (#75, #76), .UNSPECIFIED., .F., .U., (2, 2), (0., 5.), .UNSPECIFIED.);
#75 = CARTESIAN_POINT('', (0., 0., 0.));
#76 = CARTESIAN_POINT('', (0., 0., 5.));
#77 = ORIENTED_EDGE('', *, *, #78, .T.);
#78 = EDGE_CURVE('', #72, #79, #81, .T.);
#79 = VERTEX_POINT('', #80);
#80 = CARTESIAN_POINT('', (100., 0., 0.));
#81 = B_SPLINE_CURVE_WITH_KNOTS('', 1, (#82, #83), .UNSPECIFIED., .F., .U., (2, 2), (0., 100.), .UNSPECIFIED.);
#82 = CARTESIAN_POINT('', (0., 0., 0.));
#83 = CARTESIAN_POINT('', (100., 0., 0.));
#84 = ORIENTED_EDGE('', *, *, #85, .T.);
#85 = EDGE_CURVE('', #79, #51, #86, .T.);
#86 = B_SPLINE_CURVE_WITH_KNOTS('', 1, (#87, #88), .UNSPECIFIED., .F., .U., (2, 2), (0., 5.), .UNSPECIFIED.);
#87 = CARTESIAN_POINT('', (100., 0., 0.));
#88 = CARTESIAN_POINT('', (100., 0., 5.));
#89 = ORIENTED_EDGE('', *, *, #50, .F.);
#90 = B_SPLINE_SURFACE_WITH_KNOTS('', 1, 1, ((#91, #92), (#93, #94)), .UNSPECIFIED., .F., .F., .U., (2, 2), (2, 2), (0., 100.), (0., 5.), .UNSPECIFIED.);
#91 = CARTESIAN_POINT('', (0., 0., 0.));
#92 = CARTESIAN_POINT('', (0., 0., 5.));
#93 = CARTESIAN_POINT('', (100., 0., 0.));
#94 = CARTESIAN_POINT('', (100., 0., 5.));
#95 = ADVANCED_FACE('', (#96), #110, .T.);
#96 = FACE_OUTER_BOUND('', #97, .T.);
#97 = EDGE_LOOP('', (#98, #103, #104, #109));
#98 = ORIENTED_EDGE('', *, *, #99, .T.);
#99 = EDGE_CURVE('', #72, #8, #100, .T.);
#100 = B_SPLINE_CURVE_WITH_KNOTS('', 1, (#101, #102), .UNSPECIFIED., .F., .U., (2, 2), (0., 80.), .UNSPECIFIED.);
#101 = CARTESIAN_POINT('', (0., 0., 0.));
#102 = CARTESIAN_POINT('', (0., 80., 0.));
#103 = ORIENTED_EDGE('', *, *, #30, .T.);
#104 = ORIENTED_EDGE('', *, *, #105, .F.);
#105 = EDGE_CURVE('', #79, #24, #106, .T.);
#106 = B_SPLINE_CURVE_WITH_KNOTS('', 1, (#107, #108), .UNSPECIFIED., .F., .U., (2, 2), (0., 80.), .UNSPECIFIED.);
#107 = CARTESIAN_POINT('', (100., 0., 0.));
#108 = CARTESIAN_POINT('', (100., 80., 0.));
#109 = ORIENTED_EDGE('', *, *, #78, .F.);
#110 = B_SPLINE_SURFACE_WITH_KNOTS('', 1, 1, ((#111, #112), (#113, #114)), .UNSPECIFIED., .F., .F., .U., (2, 2), (2, 2), (0., 80.), (0., 100.), .UNSPECIFIED.);
#111 = CARTESIAN_POINT('', (0., 0., 0.));
#112 = CARTESIAN_POINT('', (100., 0., 0.));
#113 = CARTESIAN_POINT('', (0., 80., 0.));
#114 = CARTESIAN_POINT('', (100., 80., 0.));
#115 = ADVANCED_FACE('', (#116), #122, .T.);
#116 = FACE_OUTER_BOUND('', #117, .T.);
#117 = EDGE_LOOP('', (#118, #119, #120, #121));
#118 = ORIENTED_EDGE('', *, *, #85, .F.);
#119 = ORIENTED_EDGE('', *, *, #105, .T.);
#120 = ORIENTED_EDGE('', *, *, #23, .T.);
#121 = ORIENTED_EDGE('', *, *, #57, .F.);
#122 = B_SPLINE_SURFACE_WITH_KNOTS('', 1, 1, ((#123, #124), (#125, #126)), .UNSPECIFIED., .F., .F., .U., (2, 2), (2, 2), (0., 80.), (0., 5.), .UNSPECIFIED.);
#123 = CARTESIAN_POINT('', (100., 0., 0.));
#124 = CARTESIAN_POINT('', (100., 0., 5.));
#125 = CARTESIAN_POINT('', (100., 80., 0.));
#126 = CARTESIAN_POINT('', (100., 80., 5.));
#127 = ADVANCED_FACE('', (#128), #134, .T.);
#128 = FACE_OUTER_BOUND('', #129, .T.);
#129 = EDGE_LOOP('', (#130, #131, #132, #133));
#130 = ORIENTED_EDGE('', *, *, #71, .T.);
#131 = ORIENTED_EDGE('', *, *, #43, .T.);
#132 = ORIENTED_EDGE('', *, *, #7, .F.);
#133 = ORIENTED_EDGE('', *, *, #99, .F.);
#134 = B_SPLINE_SURFACE_WITH_KNOTS('', 1, 1, ((#135, #136), (#137, #138)), .UNSPECIFIED., .F., .F., .U., (2, 2), (2, 2), (0., 5.), (0., 80.), .UNSPECIFIED.);
#135 = CARTESIAN_POINT('', (0., 0., 0.));
#136 = CARTESIAN_POINT('', (0., 80., 0.));
#137 = CARTESIAN_POINT('', (0., 0., 5.));
#138 = CARTESIAN_POINT('', (0., 80., 5.));
#139 = DRAUGHTING_MODEL('', (#147, #344), #347);
#140 = PRESENTATION_STYLE_ASSIGNMENT((#141));
#141 = SURFACE_STYLE_USAGE(.POSITIVE., #142);
#142 = SURFACE_SIDE_STYLE('', (#143));
#143 = SURFACE_STYLE_FILL_AREA(#144);
#144 = FILL_AREA_STYLE('', (#145));
#145 = FILL_AREA_STYLE_COLOUR('', #146);
#146 = COLOUR_RGB('', 0.50196078431373, 0.50196078431373, 0.50196078431373);
#147 = STYLED_ITEM('', (#140), #1);
#148 = MANIFOLD_SOLID_BREP('Bracket: BracketUnion_0', #149);
#149 = CLOSED_SHELL('', (#150, #172, #237, #265, #287, #309, #325));
#150 = ADVANCED_FACE('', (#151), #167, .T.);
#151 = FACE_OUTER_BOUND('', #152, .T.);
#152 = EDGE_LOOP('', (#153));
#153 = ORIENTED_EDGE('', *, *, #154, .T.);
#154 = EDGE_CURVE('', #155, #155, #157, .T.);
#155 = VERTEX_POINT('', #156);
#156 = CARTESIAN_POINT('', (50., 0., 40.));
#157 = (
   BOUNDED_CURVE ()
   B_SPLINE_CURVE (2, (#158, #159, #160, #161, #162, #163, #164, #165, #166), .UNSPECIFIED., .T., .U.)
   B_SPLINE_CURVE_WITH_KNOTS ((3, 2, 2, 2, 3), (0., 78.5398163397448, 157.07963267949, 235.619449019235, 314.159265358979), .UNSPECIFIED.)
   CURVE ()
   GEOMETRIC_REPRESENTATION_ITEM ()
   RATIONAL_B_SPLINE_CURVE ((1., 0.707106781186548, 1., 0.707106781186548, 1., 0.707106781186548, 1., 0.707106781186548, 1.))
   REPRESENTATION_ITEM ('')
);
#158 = CARTESIAN_POINT('', (50., 0., 40.));
#159 = CARTESIAN_POINT('', (50., 50., 40.));
#160 = CARTESIAN_POINT('', (3.06161699786838E-15, 50., 40.));
#161 = CARTESIAN_POINT('', (-50., 50., 40.));
#162 = CARTESIAN_POINT('', (-50., 6.12323399573677E-15, 40.));
#163 = CARTESIAN_POINT('', (-50., -50., 40.));
#164 = CARTESIAN_POINT('', (-9.18485099360515E-15, -50., 40.));
#165 = CARTESIAN_POINT('', (50., -50., 40.));
#166 = CARTESIAN_POINT('', (50., 0., 40.));
#167 = B_SPLINE_SURFACE_WITH_KNOTS('', 1, 1, ((#168, #169), (#170, #171)), .UNSPECIFIED., .F., .F., .U., (2, 2), (2, 2), (0., 1.), (0., 1.), .UNSPECIFIED.);
#168 = CARTESIAN_POINT('', (77.7817459305203, -77.7817459305203, 40.));
#169 = CARTESIAN_POINT('', (-77.7817459305203, -77.7817459305203, 40.));
#170 = CARTESIAN_POINT('', (77.7817459305203, 77.7817459305203, 40.));
#171 = CARTESIAN_POINT('', (-77.7817459305203, 77.7817459305203, 40.));
#172 = ADVANCED_FACE('', (#173), #218, .T.);
#173 = FACE_OUTER_BOUND('', #174, .T.);
#174 = EDGE_LOOP('', (#175, #184, #198, #205, #210, #211, #212));
#175 = ORIENTED_EDGE('', *, *, #176, .F.);
#176 = EDGE_CURVE('', #177, #179, #181, .T.);
#177 = VERTEX_POINT('', #178);
#178 = CARTESIAN_POINT('', (30., 40., 0.));
#179 = VERTEX_POINT('', #180);
#180 = CARTESIAN_POINT('', (30., 40., 10.));
#181 = B_SPLINE_CURVE_WITH_KNOTS('', 1, (#182, #183), .UNSPECIFIED., .F., .U., (2, 2), (0., 1.), .UNSPECIFIED.);
#182 = CARTESIAN_POINT('', (30., 40., 0.));
#183 = CARTESIAN_POINT('', (30., 40., 10.));
#184 = ORIENTED_EDGE('', *, *, #185, .T.);
#185 = EDGE_CURVE('', #177, #186, #188, .T.);
#186 = VERTEX_POINT('', #187);
#187 = CARTESIAN_POINT('', (50., 0., 0.));
#188 = (
   BOUNDED_CURVE ()
   B_SPLINE_CURVE (2, (#189, #190, #191, #192, #193, #194, #195, #196, #197), .UNSPECIFIED., .F., .U.)
   B_SPLINE_CURVE_WITH_KNOTS ((3, 2, 2, 2, 3), (46.0075592255305, 78.5398163397448, 157.07963267949, 235.619449019235, 314.159265358979), .UNSPECIFIED.)
   CURVE ()
   GEOMETRIC_REPRESENTATION_ITEM ()
   RATIONAL_B_SPLINE_CURVE ((0.85786437626905, 0.878679656440358, 1., 0.707106781186548, 1., 0.707106781186548, 1., 0.707106781186548, 1.))
   REPRESENTATION_ITEM ('')
);
#189 = CARTESIAN_POINT('', (30., 40., 0.));
#190 = CARTESIAN_POINT('', (16.6666666666667, 50., 0.));
#191 = CARTESIAN_POINT('', (3.06161699786838E-15, 50., 0.));
#192 = CARTESIAN_POINT('', (-50., 50., 0.));
#193 = CARTESIAN_POINT('', (-50., 6.12323399573677E-15, 0.));
#194 = CARTESIAN_POINT('', (-50., -50., 0.));
#195 = CARTESIAN_POINT('', (-9.18485099360515E-15, -50., 0.));
#196 = CARTESIAN_POINT('', (50., -50., 0.));
#197 = CARTESIAN_POINT('', (50., 0., 0.));
#198 = ORIENTED_EDGE('', *, *, #199, .T.);
#199 = EDGE_CURVE('', #186, #200, #202, .T.);
#200 = VERTEX_POINT('', #201);
#201 = CARTESIAN_POINT('', (50., 0., 10.));
#202 = B_SPLINE_CURVE_WITH_KNOTS('', 1, (#203, #204), .UNSPECIFIED., .F., .U., (2, 2), (0., 1.), .UNSPECIFIED.);
#203 = CARTESIAN_POINT('', (50., 0., 0.));
#204 = CARTESIAN_POINT('', (50., 0., 10.));
#205 = ORIENTED_EDGE('', *, *, #206, .T.);
#206 = EDGE_CURVE('', #200, #155, #207, .T.);
#207 = B_SPLINE_CURVE_WITH_KNOTS('', 1, (#208, #209), .UNSPECIFIED., .F., .U., (2, 2), (10., 40.), .UNSPECIFIED.);
#208 = CARTESIAN_POINT('', (50., 0., 10.));
#209 = CARTESIAN_POINT('', (50., 0., 40.));
#210 = ORIENTED_EDGE('', *, *, #154, .F.);
#211 = ORIENTED_EDGE('', *, *, #206, .F.);
#212 = ORIENTED_EDGE('', *, *, #213, .T.);
#213 = EDGE_CURVE('', #200, #179, #214, .T.);
#214 = (
   BOUNDED_CURVE ()
   B_SPLINE_CURVE (2, (#215, #216, #217), .UNSPECIFIED., .F., .U.)
   B_SPLINE_CURVE_WITH_KNOTS ((3, 3), (0., 1.), .UNSPECIFIED.)
   CURVE ()
   GEOMETRIC_REPRESENTATION_ITEM ()
   RATIONAL_B_SPLINE_CURVE ((1., 0.894427190999916, 1.))
   REPRESENTATION_ITEM ('')
);
#215 = CARTESIAN_POINT('', (50., 0., 10.));
#216 = CARTESIAN_POINT('', (50., 25., 10.));
#217 = CARTESIAN_POINT('', (30., 40., 10.));
#218 = (
   BOUNDED_SURFACE ()
   B_SPLINE_SURFACE (2, 1, ((#219, #220), (#221, #222), (#223, #224), (#225, #226), (#227, #228), (#229, #230), (#231, #232), (#233, #234), (#235, #236)), .UNSPECIFIED., .T., .F., .U.)
   B_SPLINE_SURFACE_WITH_KNOTS ((3, 2, 2, 2, 3), (2, 2), (0., 78.5398163397448, 157.07963267949, 235.619449019234, 314.159265358979), (0., 40.), .UNSPECIFIED.)
   GEOMETRIC_REPRESENTATION_ITEM ()
   RATIONAL_B_SPLINE_SURFACE (((1., 1.), (0.707106781186548, 0.707106781186548), (1., 1.), (0.707106781186548, 0.707106781186548), (1., 1.), (0.707106781186548, 0.707106781186548), (1., 1.), (0.707106781186548, 0.707106781186548), (1., 1.)))
   REPRESENTATION_ITEM ('')
   SURFACE ()
);
#219 = CARTESIAN_POINT('', (50., 1.57772181044202E-30, 0.));
#220 = CARTESIAN_POINT('', (50., 1.57772181044202E-30, 40.));
#221 = CARTESIAN_POINT('', (50., 50., 0.));
#222 = CARTESIAN_POINT('', (50., 50., 40.));
#223 = CARTESIAN_POINT('', (-2.40278248029854E-14, 50., 0.));
#224 = CARTESIAN_POINT('', (-2.40278248029854E-14, 50., 40.));
#225 = CARTESIAN_POINT('', (-50., 50., 0.));
#226 = CARTESIAN_POINT('', (-50., 50., 40.));
#227 = CARTESIAN_POINT('', (-50., -4.183840066807E-14, 0.));
#228 = CARTESIAN_POINT('', (-50., -4.183840066807E-14, 40.));
#229 = CARTESIAN_POINT('', (-50., -50., 0.));
#230 = CARTESIAN_POINT('', (-50., -50., 40.));
#231 = CARTESIAN_POINT('', (1.16873418693478E-14, -50., 0.));
#232 = CARTESIAN_POINT('', (1.16873418693478E-14, -50., 40.));
#233 = CARTESIAN_POINT('', (50., -50., 0.));
#234 = CARTESIAN_POINT('', (50., -50., 40.));
#235 = CARTESIAN_POINT('', (50., 1.57772181044202E-30, 0.));
#236 = CARTESIAN_POINT('', (50., 1.57772181044202E-30, 40.));
#237 = ADVANCED_FACE('', (#238), #260, .T.);
#238 = FACE_OUTER_BOUND('', #239, .T.);
#239 = EDGE_LOOP('', (#240, #241, #248, #255));
#240 = ORIENTED_EDGE('', *, *, #176, .T.);
#241 = ORIENTED_EDGE('', *, *, #242, .T.);
#242 = EDGE_CURVE('', #179, #243, #245, .T.);
#243 = VERTEX_POINT('', #244);
#244 = CARTESIAN_POINT('', (60., 40., 10.));
#245 = B_SPLINE_CURVE_WITH_KNOTS('', 1, (#246, #247), .UNSPECIFIED., .F., .U., (2, 2), (30., 60.), .UNSPECIFIED.);
#246 = CARTESIAN_POINT('', (30., 40., 10.));
#247 = CARTESIAN_POINT('', (60., 40., 10.));
#248 = ORIENTED_EDGE('', *, *, #249, .F.);
#249 = EDGE_CURVE('', #250, #243, #252, .T.);
#250 = VERTEX_POINT('', #251);
#251 = CARTESIAN_POINT('', (60., 40., 0.));
#252 = B_SPLINE_CURVE_WITH_KNOTS('', 1, (#253, #254), .UNSPECIFIED., .F., .U., (2, 2), (0., 10.), .UNSPECIFIED.);
#253 = CARTESIAN_POINT('', (60., 40., 0.));
#254 = CARTESIAN_POINT('', (60., 40., 10.));
#255 = ORIENTED_EDGE('', *, *, #256, .F.);
#256 = EDGE_CURVE('', #177, #250, #257, .T.);
#257 = B_SPLINE_CURVE_WITH_KNOTS('', 1, (#258, #259), .UNSPECIFIED., .F., .U., (2, 2), (30., 60.), .UNSPECIFIED.);
#258 = CARTESIAN_POINT('', (30., 40., 0.));
#259 = CARTESIAN_POINT('', (60., 40., 0.));
#260 = B_SPLINE_SURFACE_WITH_KNOTS('', 1, 1, ((#261, #262), (#263, #264)), .UNSPECIFIED., .F., .F., .U., (2, 2), (2, 2), (0., 10.), (0., 60.), .UNSPECIFIED.);
#261 = CARTESIAN_POINT('', (0., 40., 0.));
#262 = CARTESIAN_POINT('', (60., 40., 0.));
#263 = CARTESIAN_POINT('', (0., 40., 10.));
#264 = CARTESIAN_POINT('', (60., 40., 10.));
#265 = ADVANCED_FACE('', (#266), #282, .T.);
#266 = FACE_OUTER_BOUND('', #267, .T.);
#267 = EDGE_LOOP('', (#268, #275, #276, #277));
#268 = ORIENTED_EDGE('', *, *, #269, .F.);
#269 = EDGE_CURVE('', #186, #270, #272, .T.);
#270 = VERTEX_POINT('', #271);
#271 = CARTESIAN_POINT('', (60., 0., 0.));
#272 = B_SPLINE_CURVE_WITH_KNOTS('', 1, (#273, #274), .UNSPECIFIED., .F., .U., (2, 2), (50., 60.), .UNSPECIFIED.);
#273 = CARTESIAN_POINT('', (50., 0., 0.));
#274 = CARTESIAN_POINT('', (60., 0., 0.));
#275 = ORIENTED_EDGE('', *, *, #185, .F.);
#276 = ORIENTED_EDGE('', *, *, #256, .T.);
#277 = ORIENTED_EDGE('', *, *, #278, .F.);
#278 = EDGE_CURVE('', #270, #250, #279, .T.);
#279 = B_SPLINE_CURVE_WITH_KNOTS('', 1, (#280, #281), .UNSPECIFIED., .F., .U., (2, 2), (0., 40.), .UNSPECIFIED.);
#280 = CARTESIAN_POINT('', (60., 0., 0.));
#281 = CARTESIAN_POINT('', (60., 40., 0.));
#282 = B_SPLINE_SURFACE_WITH_KNOTS('', 1, 1, ((#283, #284), (#285, #286)), .UNSPECIFIED., .F., .F., .U., (2, 2), (2, 2), (-77.7817459305203, 77.7817459305203), (-77.7817459305203, 77.7817459305203), .UNSPECIFIED.);
#283 = CARTESIAN_POINT('', (-77.7817459305203, -77.7817459305203, 0.));
#284 = CARTESIAN_POINT('', (77.7817459305203, -77.7817459305203, 0.));
#285 = CARTESIAN_POINT('', (-77.7817459305203, 77.7817459305203, 0.));
#286 = CARTESIAN_POINT('', (77.7817459305203, 77.7817459305203, 0.));
#287 = ADVANCED_FACE('', (#288), #304, .T.);
#288 = FACE_OUTER_BOUND('', #289, .T.);
#289 = EDGE_LOOP('', (#290, #297, #298, #299));
#290 = ORIENTED_EDGE('', *, *, #291, .F.);
#291 = EDGE_CURVE('', #270, #292, #294, .T.);
#292 = VERTEX_POINT('', #293);
#293 = CARTESIAN_POINT('', (60., 0., 10.));
#294 = B_SPLINE_CURVE_WITH_KNOTS('', 1, (#295, #296), .UNSPECIFIED., .F., .U., (2, 2), (0., 10.), .UNSPECIFIED.);
#295 = CARTESIAN_POINT('', (60., 0., 0.));
#296 = CARTESIAN_POINT('', (60., 0., 10.));
#297 = ORIENTED_EDGE('', *, *, #278, .T.);
#298 = ORIENTED_EDGE('', *, *, #249, .T.);
#299 = ORIENTED_EDGE('', *, *, #300, .F.);
#300 = EDGE_CURVE('', #292, #243, #301, .T.);
#301 = B_SPLINE_CURVE_WITH_KNOTS('', 1, (#302, #303), .UNSPECIFIED., .F., .U., (2, 2), (0., 40.), .UNSPECIFIED.);
#302 = CARTESIAN_POINT('', (60., 0., 10.));
#303 = CARTESIAN_POINT('', (60., 40., 10.));
#304 = B_SPLINE_SURFACE_WITH_KNOTS('', 1, 1, ((#305, #306), (#307, #308)), .UNSPECIFIED., .F., .F., .U., (2, 2), (2, 2), (0., 40.), (0., 10.), .UNSPECIFIED.);
#305 = CARTESIAN_POINT('', (60., 0., 0.));
#306 = CARTESIAN_POINT('', (60., 0., 10.));
#307 = CARTESIAN_POINT('', (60., 40., 0.));
#308 = CARTESIAN_POINT('', (60., 40., 10.));
#309 = ADVANCED_FACE('', (#310), #320, .T.);
#310 = FACE_OUTER_BOUND('', #311, .T.);
#311 = EDGE_LOOP('', (#312, #313, #318, #319));
#312 = ORIENTED_EDGE('', *, *, #213, .F.);
#313 = ORIENTED_EDGE('', *, *, #314, .T.);
#314 = EDGE_CURVE('', #200, #292, #315, .T.);
#315 = B_SPLINE_CURVE_WITH_KNOTS('', 1, (#316, #317), .UNSPECIFIED., .F., .U., (2, 2), (50., 60.), .UNSPECIFIED.);
#316 = CARTESIAN_POINT('', (50., 0., 10.));
#317 = CARTESIAN_POINT('', (60., 0., 10.));
#318 = ORIENTED_EDGE('', *, *, #300, .T.);
#319 = ORIENTED_EDGE('', *, *, #242, .F.);
#320 = B_SPLINE_SURFACE_WITH_KNOTS('', 1, 1, ((#321, #322), (#323, #324)), .UNSPECIFIED., .F., .F., .U., (2, 2), (2, 2), (0., 60.), (0., 40.), .UNSPECIFIED.);
#321 = CARTESIAN_POINT('', (0., 0., 10.));
#322 = CARTESIAN_POINT('', (0., 40., 10.));
#323 = CARTESIAN_POINT('', (60., 0., 10.));
#324 = CARTESIAN_POINT('', (60., 40., 10.));
#325 = ADVANCED_FACE('', (#326), #332, .T.);
#326 = FACE_OUTER_BOUND('', #327, .T.);
#327 = EDGE_LOOP('', (#328, #329, #330, #331));
#328 = ORIENTED_EDGE('', *, *, #199, .F.);
#329 = ORIENTED_EDGE('', *, *, #269, .T.);
#330 = ORIENTED_EDGE('', *, *, #291, .T.);
#331 = ORIENTED_EDGE('', *, *, #314, .F.);
#332 = B_SPLINE_SURFACE_WITH_KNOTS('', 1, 1, ((#333, #334), (#335, #336)), .UNSPECIFIED., .F., .F., .U., (2, 2), (2, 2), (0., 60.), (0., 10.), .UNSPECIFIED.);
#333 = CARTESIAN_POINT('', (0., 0., 0.));
#334 = CARTESIAN_POINT('', (0., 0., 10.));
#335 = CARTESIAN_POINT('', (60., 0., 0.));
#336 = CARTESIAN_POINT('', (60., 0., 10.));
#337 = PRESENTATION_STYLE_ASSIGNMENT((#338));
#338 = SURFACE_STYLE_USAGE(.POSITIVE., #339);
#339 = SURFACE_SIDE_STYLE('', (#340));
#340 = SURFACE_STYLE_FILL_AREA(#341);
#341 = FILL_AREA_STYLE('', (#342));
#342 = FILL_AREA_STYLE_COLOUR('', #343);
#343 = COLOUR_RGB('', 0.50196078431373, 0.50196078431373, 0.50196078431373);
#344 = STYLED_ITEM('', (#337), #148);
#345 = CARTESIAN_POINT('Origin', (0., 0., 0.));
#346 = GEOMETRIC_SET('', (#345));
#347 = (
   GEOMETRIC_REPRESENTATION_CONTEXT (3)
   GLOBAL_UNCERTAINTY_ASSIGNED_CONTEXT ((#349))
   GLOBAL_UNIT_ASSIGNED_CONTEXT ((#348, #350, #351))
   REPRESENTATION_CONTEXT ('', '3D')
);
#348 = (
   LENGTH_UNIT ()
   NAMED_UNIT (*)
   SI_UNIT (.MILLI., .METRE.)
);
#349 = UNCERTAINTY_MEASURE_WITH_UNIT(LENGTH_MEASURE(1.E-6), #348, 'DISTANCE_ACCURACY_VALUE', '');
#350 = (
   NAMED_UNIT (*)
   SI_UNIT ($, .STERADIAN.)
   SOLID_ANGLE_UNIT ()
);
#351 = (
   NAMED_UNIT (*)
   PLANE_ANGLE_UNIT ()
   SI_UNIT ($, .RADIAN.)
);
#352 = SHAPE_REPRESENTATION('', (#367), #347);
#353 = PRODUCT_DEFINITION_SHAPE('', '', #354);
#354 = PRODUCT_DEFINITION('', '', #357, #361);
#355 = APPLICATION_CONTEXT('configuration controlled 3D designs of mechanical parts and assemblies');
#356 = APPLICATION_PROTOCOL_DEFINITION('International Standard', 'automotive_design', 2002, #355);
#357 = PRODUCT_DEFINITION_FORMATION_WITH_SPECIFIED_SOURCE('', '', #358, .NOT_KNOWN.);
#358 = PRODUCT('Assembly', 'Assembly', '', (#359));
#359 = PRODUCT_CONTEXT('', #355, 'mechanical');
#360 = PRODUCT_RELATED_PRODUCT_CATEGORY('detail', '', (#358));
#361 = PRODUCT_DEFINITION_CONTEXT('part definition', #355, 'design');
#362 = SHAPE_DEFINITION_REPRESENTATION(#353, #352);
#363 = SHAPE_REPRESENTATION_RELATIONSHIP('', '', #352, #364);
#364 = SHAPE_REPRESENTATION('', (#346), #347);
#365 = SHAPE_REPRESENTATION_RELATIONSHIP('', '', #352, #366);
#366 = ADVANCED_BREP_SHAPE_REPRESENTATION('', (#1, #148), #347);
#367 = AXIS2_PLACEMENT_3D('', #368, #369, #370);
#368 = CARTESIAN_POINT('', (0., 0., 0.));
#369 = DIRECTION('', (0., 0., 1.));
#370 = DIRECTION('', (1., 0., 0.));
ENDSEC;
END-ISO-10303-21;
