ISO-10303-21;
HEADER;
FILE_DESCRIPTION(('STEP'), '1');
FILE_NAME('ExtendTest', '2026-04-15T12:09:56', (''), (''), 'Express 3.1.2.0', 'Express Tool', 'Unknown');
FILE_SCHEMA(('AUTOMOTIVE_DESIGN'));
ENDSEC;

DATA;
#1 = MANIFOLD_SOLID_BREP('Solid', #2);
#2 = CLOSED_SHELL('', (#3, #47, #81, #115, #133, #151));
#3 = ADVANCED_FACE('', (#4), #42, .T.);
#4 = FACE_OUTER_BOUND('', #5, .T.);
#5 = EDGE_LOOP('', (#6, #17, #26, #35));
#6 = ORIENTED_EDGE('', *, *, #7, .F.);
#7 = EDGE_CURVE('', #8, #10, #12, .T.);
#8 = VERTEX_POINT('', #9);
#9 = CARTESIAN_POINT('', (35., -25., -20.));
#10 = VERTEX_POINT('', #11);
#11 = CARTESIAN_POINT('', (35., -25., 20.));
#12 = B_SPLINE_CURVE_WITH_KNOTS('', 3, (#13, #14, #15, #16), .UNSPECIFIED., .F., .U., (4, 4), (20., 60.), .UNSPECIFIED.);
#13 = CARTESIAN_POINT('', (35., -25., -20.));
#14 = CARTESIAN_POINT('', (35., -25., -6.66666666666665));
#15 = CARTESIAN_POINT('', (35., -25., 6.66666666666667));
#16 = CARTESIAN_POINT('', (35., -25., 20.));
#17 = ORIENTED_EDGE('', *, *, #18, .T.);
#18 = EDGE_CURVE('', #8, #19, #21, .T.);
#19 = VERTEX_POINT('', #20);
#20 = CARTESIAN_POINT('', (35., 25., -20.));
#21 = B_SPLINE_CURVE_WITH_KNOTS('', 3, (#22, #23, #24, #25), .UNSPECIFIED., .F., .U., (4, 4), (20., 70.), .UNSPECIFIED.);
#22 = CARTESIAN_POINT('', (35., -25., -20.));
#23 = CARTESIAN_POINT('', (35., -8.33333333333333, -20.));
#24 = CARTESIAN_POINT('', (35., 8.33333333333333, -20.));
#25 = CARTESIAN_POINT('', (35., 25., -20.));
#26 = ORIENTED_EDGE('', *, *, #27, .T.);
#27 = EDGE_CURVE('', #19, #28, #30, .T.);
#28 = VERTEX_POINT('', #29);
#29 = CARTESIAN_POINT('', (35., 25., 20.));
#30 = B_SPLINE_CURVE_WITH_KNOTS('', 3, (#31, #32, #33, #34), .UNSPECIFIED., .F., .U., (4, 4), (20., 60.), .UNSPECIFIED.);
#31 = CARTESIAN_POINT('', (35., 25., -20.));
#32 = CARTESIAN_POINT('', (35., 25., -6.66666666666665));
#33 = CARTESIAN_POINT('', (35., 25., 6.66666666666667));
#34 = CARTESIAN_POINT('', (35., 25., 20.));
#35 = ORIENTED_EDGE('', *, *, #36, .F.);
#36 = EDGE_CURVE('', #10, #28, #37, .T.);
#37 = B_SPLINE_CURVE_WITH_KNOTS('', 3, (#38, #39, #40, #41), .UNSPECIFIED., .F., .U., (4, 4), (20., 70.), .UNSPECIFIED.);
#38 = CARTESIAN_POINT('', (35., -25., 20.));
#39 = CARTESIAN_POINT('', (35., -8.33333333333333, 20.));
#40 = CARTESIAN_POINT('', (35., 8.33333333333333, 20.));
#41 = CARTESIAN_POINT('', (35., 25., 20.));
#42 = B_SPLINE_SURFACE_WITH_KNOTS('', 1, 1, ((#43, #44), (#45, #46)), .UNSPECIFIED., .F., .F., .U., (2, 2), (2, 2), (-25., 65.), (-25., 55.), .UNSPECIFIED.);
#43 = CARTESIAN_POINT('', (35., -45., -40.));
#44 = CARTESIAN_POINT('', (35., -45., 40.));
#45 = CARTESIAN_POINT('', (35., 45., -40.));
#46 = CARTESIAN_POINT('', (35., 45., 40.));
#47 = ADVANCED_FACE('', (#48), #76, .T.);
#48 = FACE_OUTER_BOUND('', #49, .T.);
#49 = EDGE_LOOP('', (#50, #61, #68, #69));
#50 = ORIENTED_EDGE('', *, *, #51, .T.);
#51 = EDGE_CURVE('', #52, #54, #56, .T.);
#52 = VERTEX_POINT('', #53);
#53 = CARTESIAN_POINT('', (-35., 25., -20.));
#54 = VERTEX_POINT('', #55);
#55 = CARTESIAN_POINT('', (-35., 25., 20.));
#56 = B_SPLINE_CURVE_WITH_KNOTS('', 3, (#57, #58, #59, #60), .UNSPECIFIED., .F., .U., (4, 4), (20., 60.), .UNSPECIFIED.);
#57 = CARTESIAN_POINT('', (-35., 25., -20.));
#58 = CARTESIAN_POINT('', (-35., 25., -6.66666666666665));
#59 = CARTESIAN_POINT('', (-35., 25., 6.66666666666667));
#60 = CARTESIAN_POINT('', (-35., 25., 20.));
#61 = ORIENTED_EDGE('', *, *, #62, .T.);
#62 = EDGE_CURVE('', #54, #28, #63, .T.);
#63 = B_SPLINE_CURVE_WITH_KNOTS('', 3, (#64, #65, #66, #67), .UNSPECIFIED., .F., .U., (4, 4), (20., 90.), .UNSPECIFIED.);
#64 = CARTESIAN_POINT('', (-35., 25., 20.));
#65 = CARTESIAN_POINT('', (-11.6666666666667, 25., 20.));
#66 = CARTESIAN_POINT('', (11.6666666666667, 25., 20.));
#67 = CARTESIAN_POINT('', (35., 25., 20.));
#68 = ORIENTED_EDGE('', *, *, #27, .F.);
#69 = ORIENTED_EDGE('', *, *, #70, .F.);
#70 = EDGE_CURVE('', #52, #19, #71, .T.);
#71 = B_SPLINE_CURVE_WITH_KNOTS('', 3, (#72, #73, #74, #75), .UNSPECIFIED., .F., .U., (4, 4), (20., 90.), .UNSPECIFIED.);
#72 = CARTESIAN_POINT('', (-35., 25., -20.));
#73 = CARTESIAN_POINT('', (-11.6666666666667, 25., -20.));
#74 = CARTESIAN_POINT('', (11.6666666666667, 25., -20.));
#75 = CARTESIAN_POINT('', (35., 25., -20.));
#76 = B_SPLINE_SURFACE_WITH_KNOTS('', 1, 1, ((#77, #78), (#79, #80)), .UNSPECIFIED., .F., .F., .U., (2, 2), (2, 2), (-25., 55.), (-25., 85.), .UNSPECIFIED.);
#77 = CARTESIAN_POINT('', (-55., 25., -40.));
#78 = CARTESIAN_POINT('', (55., 25., -40.));
#79 = CARTESIAN_POINT('', (-55., 25., 40.));
#80 = CARTESIAN_POINT('', (55., 25., 40.));
#81 = ADVANCED_FACE('', (#82), #110, .T.);
#82 = FACE_OUTER_BOUND('', #83, .T.);
#83 = EDGE_LOOP('', (#84, #95, #102, #103));
#84 = ORIENTED_EDGE('', *, *, #85, .T.);
#85 = EDGE_CURVE('', #86, #88, #90, .T.);
#86 = VERTEX_POINT('', #87);
#87 = CARTESIAN_POINT('', (-35., -25., -20.));
#88 = VERTEX_POINT('', #89);
#89 = CARTESIAN_POINT('', (-35., -25., 20.));
#90 = B_SPLINE_CURVE_WITH_KNOTS('', 3, (#91, #92, #93, #94), .UNSPECIFIED., .F., .U., (4, 4), (20., 60.), .UNSPECIFIED.);
#91 = CARTESIAN_POINT('', (-35., -25., -20.));
#92 = CARTESIAN_POINT('', (-35., -25., -6.66666666666665));
#93 = CARTESIAN_POINT('', (-35., -25., 6.66666666666667));
#94 = CARTESIAN_POINT('', (-35., -25., 20.));
#95 = ORIENTED_EDGE('', *, *, #96, .T.);
#96 = EDGE_CURVE('', #88, #54, #97, .T.);
#97 = B_SPLINE_CURVE_WITH_KNOTS('', 3, (#98, #99, #100, #101), .UNSPECIFIED., .F., .U., (4, 4), (20., 70.), .UNSPECIFIED.);
#98 = CARTESIAN_POINT('', (-35., -25., 20.));
#99 = CARTESIAN_POINT('', (-35., -8.33333333333333, 20.));
#100 = CARTESIAN_POINT('', (-35., 8.33333333333333, 20.));
#101 = CARTESIAN_POINT('', (-35., 25., 20.));
#102 = ORIENTED_EDGE('', *, *, #51, .F.);
#103 = ORIENTED_EDGE('', *, *, #104, .F.);
#104 = EDGE_CURVE('', #86, #52, #105, .T.);
#105 = B_SPLINE_CURVE_WITH_KNOTS('', 3, (#106, #107, #108, #109), .UNSPECIFIED., .F., .U., (4, 4), (20., 70.), .UNSPECIFIED.);
#106 = CARTESIAN_POINT('', (-35., -25., -20.));
#107 = CARTESIAN_POINT('', (-35., -8.33333333333333, -20.));
#108 = CARTESIAN_POINT('', (-35., 8.33333333333333, -20.));
#109 = CARTESIAN_POINT('', (-35., 25., -20.));
#110 = B_SPLINE_SURFACE_WITH_KNOTS('', 1, 1, ((#111, #112), (#113, #114)), .UNSPECIFIED., .F., .F., .U., (2, 2), (2, 2), (-25., 55.), (-25., 65.), .UNSPECIFIED.);
#111 = CARTESIAN_POINT('', (-35., -45., -40.));
#112 = CARTESIAN_POINT('', (-35., 45., -40.));
#113 = CARTESIAN_POINT('', (-35., -45., 40.));
#114 = CARTESIAN_POINT('', (-35., 45., 40.));
#115 = ADVANCED_FACE('', (#116), #128, .T.);
#116 = FACE_OUTER_BOUND('', #117, .T.);
#117 = EDGE_LOOP('', (#118, #119, #120, #121));
#118 = ORIENTED_EDGE('', *, *, #104, .T.);
#119 = ORIENTED_EDGE('', *, *, #70, .T.);
#120 = ORIENTED_EDGE('', *, *, #18, .F.);
#121 = ORIENTED_EDGE('', *, *, #122, .F.);
#122 = EDGE_CURVE('', #86, #8, #123, .T.);
#123 = B_SPLINE_CURVE_WITH_KNOTS('', 3, (#124, #125, #126, #127), .UNSPECIFIED., .F., .U., (4, 4), (20., 90.), .UNSPECIFIED.);
#124 = CARTESIAN_POINT('', (-35., -25., -20.));
#125 = CARTESIAN_POINT('', (-11.6666666666667, -25., -20.));
#126 = CARTESIAN_POINT('', (11.6666666666667, -25., -20.));
#127 = CARTESIAN_POINT('', (35., -25., -20.));
#128 = B_SPLINE_SURFACE_WITH_KNOTS('', 1, 1, ((#129, #130), (#131, #132)), .UNSPECIFIED., .F., .F., .U., (2, 2), (2, 2), (-25., 65.), (-25., 85.), .UNSPECIFIED.);
#129 = CARTESIAN_POINT('', (-55., -45., -20.));
#130 = CARTESIAN_POINT('', (55., -45., -20.));
#131 = CARTESIAN_POINT('', (-55., 45., -20.));
#132 = CARTESIAN_POINT('', (55., 45., -20.));
#133 = ADVANCED_FACE('', (#134), #146, .T.);
#134 = FACE_OUTER_BOUND('', #135, .T.);
#135 = EDGE_LOOP('', (#136, #137, #138, #139));
#136 = ORIENTED_EDGE('', *, *, #85, .F.);
#137 = ORIENTED_EDGE('', *, *, #122, .T.);
#138 = ORIENTED_EDGE('', *, *, #7, .T.);
#139 = ORIENTED_EDGE('', *, *, #140, .F.);
#140 = EDGE_CURVE('', #88, #10, #141, .T.);
#141 = B_SPLINE_CURVE_WITH_KNOTS('', 3, (#142, #143, #144, #145), .UNSPECIFIED., .F., .U., (4, 4), (20., 90.), .UNSPECIFIED.);
#142 = CARTESIAN_POINT('', (-35., -25., 20.));
#143 = CARTESIAN_POINT('', (-11.6666666666667, -25., 20.));
#144 = CARTESIAN_POINT('', (11.6666666666667, -25., 20.));
#145 = CARTESIAN_POINT('', (35., -25., 20.));
#146 = B_SPLINE_SURFACE_WITH_KNOTS('', 1, 1, ((#147, #148), (#149, #150)), .UNSPECIFIED., .F., .F., .U., (2, 2), (2, 2), (-25., 85.), (-25., 55.), .UNSPECIFIED.);
#147 = CARTESIAN_POINT('', (-55., -25., -40.));
#148 = CARTESIAN_POINT('', (-55., -25., 40.));
#149 = CARTESIAN_POINT('', (55., -25., -40.));
#150 = CARTESIAN_POINT('', (55., -25., 40.));
#151 = ADVANCED_FACE('', (#152), #158, .T.);
#152 = FACE_OUTER_BOUND('', #153, .T.);
#153 = EDGE_LOOP('', (#154, #155, #156, #157));
#154 = ORIENTED_EDGE('', *, *, #96, .F.);
#155 = ORIENTED_EDGE('', *, *, #140, .T.);
#156 = ORIENTED_EDGE('', *, *, #36, .T.);
#157 = ORIENTED_EDGE('', *, *, #62, .F.);
#158 = B_SPLINE_SURFACE_WITH_KNOTS('', 1, 1, ((#159, #160), (#161, #162)), .UNSPECIFIED., .F., .F., .U., (2, 2), (2, 2), (-25., 85.), (-25., 65.), .UNSPECIFIED.);
#159 = CARTESIAN_POINT('', (-55., -45., 20.));
#160 = CARTESIAN_POINT('', (-55., 45., 20.));
#161 = CARTESIAN_POINT('', (55., -45., 20.));
#162 = CARTESIAN_POINT('', (55., 45., 20.));
#163 = DRAUGHTING_MODEL('', (#171), #174);
#164 = PRESENTATION_STYLE_ASSIGNMENT((#165));
#165 = SURFACE_STYLE_USAGE(.POSITIVE., #166);
#166 = SURFACE_SIDE_STYLE('', (#167));
#167 = SURFACE_STYLE_FILL_AREA(#168);
#168 = FILL_AREA_STYLE('', (#169));
#169 = FILL_AREA_STYLE_COLOUR('', #170);
#170 = COLOUR_RGB('', 0.8, 0.8, 0.8);
#171 = STYLED_ITEM('', (#164), #1);
#172 = CARTESIAN_POINT('Origin', (0., 0., 0.));
#173 = GEOMETRIC_SET('', (#172));
#174 = (
   GEOMETRIC_REPRESENTATION_CONTEXT (3)
   GLOBAL_UNCERTAINTY_ASSIGNED_CONTEXT ((#176))
   GLOBAL_UNIT_ASSIGNED_CONTEXT ((#175, #177, #178))
   REPRESENTATION_CONTEXT ('', '3D')
);
#175 = (
   LENGTH_UNIT ()
   NAMED_UNIT (*)
   SI_UNIT (.MILLI., .METRE.)
);
#176 = UNCERTAINTY_MEASURE_WITH_UNIT(LENGTH_MEASURE(1.E-6), #175, 'DISTANCE_ACCURACY_VALUE', '');
#177 = (
   NAMED_UNIT (*)
   SI_UNIT ($, .STERADIAN.)
   SOLID_ANGLE_UNIT ()
);
#178 = (
   NAMED_UNIT (*)
   PLANE_ANGLE_UNIT ()
   SI_UNIT ($, .RADIAN.)
);
#179 = SHAPE_REPRESENTATION('', (#194), #174);
#180 = PRODUCT_DEFINITION_SHAPE('', '', #181);
#181 = PRODUCT_DEFINITION('', '', #184, #188);
#182 = APPLICATION_CONTEXT('configuration controlled 3D designs of mechanical parts and assemblies');
#183 = APPLICATION_PROTOCOL_DEFINITION('International Standard', 'automotive_design', 2002, #182);
#184 = PRODUCT_DEFINITION_FORMATION_WITH_SPECIFIED_SOURCE('', '', #185, .NOT_KNOWN.);
#185 = PRODUCT('ExtendTest', 'ExtendTest', '', (#186));
#186 = PRODUCT_CONTEXT('', #182, 'mechanical');
#187 = PRODUCT_RELATED_PRODUCT_CATEGORY('detail', '', (#185));
#188 = PRODUCT_DEFINITION_CONTEXT('part definition', #182, 'design');
#189 = SHAPE_DEFINITION_REPRESENTATION(#180, #179);
#190 = SHAPE_REPRESENTATION_RELATIONSHIP('', '', #179, #191);
#191 = SHAPE_REPRESENTATION('', (#173), #174);
#192 = SHAPE_REPRESENTATION_RELATIONSHIP('', '', #179, #193);
#193 = ADVANCED_BREP_SHAPE_REPRESENTATION('', (#1), #174);
#194 = AXIS2_PLACEMENT_3D('', #195, #196, #197);
#195 = CARTESIAN_POINT('', (0., 0., 0.));
#196 = DIRECTION('', (0., 0., 1.));
#197 = DIRECTION('', (1., 0., 0.));
ENDSEC;
END-ISO-10303-21;
