ISO-10303-21;
HEADER;
FILE_DESCRIPTION(('STEP'), '1');
FILE_NAME('SphereOffset', '2026-04-15T12:10:27', (''), (''), 'Express 3.1.2.0', 'Express Tool', 'Unknown');
FILE_SCHEMA(('AUTOMOTIVE_DESIGN'));
ENDSEC;

DATA;
#1 = MANIFOLD_SOLID_BREP('Solid', #2);
#2 = CLOSED_SHELL('', (#3));
#3 = ADVANCED_FACE('', (#4), #19, .T.);
#4 = FACE_OUTER_BOUND('', #5, .T.);
#5 = EDGE_LOOP('', (#6, #18));
#6 = ORIENTED_EDGE('', *, *, #7, .F.);
#7 = EDGE_CURVE('', #8, #10, #12, .T.);
#8 = VERTEX_POINT('', #9);
#9 = CARTESIAN_POINT('', (-3.67394039744206E-15, 0., -20.));
#10 = VERTEX_POINT('', #11);
#11 = CARTESIAN_POINT('', (6.12323399573677E-15, 0., 20.));
#12 = (
   BOUNDED_CURVE ()
   B_SPLINE_CURVE (2, (#13, #14, #15, #16, #17), .UNSPECIFIED., .F., .U.)
   B_SPLINE_CURVE_WITH_KNOTS ((3, 2, 3), (0., 0.5, 1.), .UNSPECIFIED.)
   CURVE ()
   GEOMETRIC_REPRESENTATION_ITEM ()
   RATIONAL_B_SPLINE_CURVE ((1., 0.707106781186548, 1., 0.707106781186548, 1.))
   REPRESENTATION_ITEM ('')
);
#13 = CARTESIAN_POINT('', (-3.67394039744206E-15, 0., -20.));
#14 = CARTESIAN_POINT('', (20., 0., -20.));
#15 = CARTESIAN_POINT('', (20., 0., -4.89858719658941E-15));
#16 = CARTESIAN_POINT('', (20., 0., 20.));
#17 = CARTESIAN_POINT('', (6.12323399573677E-15, 0., 20.));
#18 = ORIENTED_EDGE('', *, *, #7, .T.);
#19 = (
   BOUNDED_SURFACE ()
   B_SPLINE_SURFACE (2, 2, ((#20, #21, #22, #23, #24), (#25, #26, #27, #28, #29), (#30, #31, #32, #33, #34), (#35, #36, #37, #38, #39), (#40, #41, #42, #43, #44), (#45, #46, #47, #48, #49), (#50, #51, #52, #53, #54), (#55, #56, #57, #58, #59), (#60, #61, #62, #63, #64)), .UNSPECIFIED., .T., .F., .U.)
   B_SPLINE_SURFACE_WITH_KNOTS ((3, 2, 2, 2, 3), (3, 2, 3), (0., 0.25, 0.5, 0.75, 1.), (0., 0.5, 1.), .UNSPECIFIED.)
   GEOMETRIC_REPRESENTATION_ITEM ()
   RATIONAL_B_SPLINE_SURFACE (((1., 0.707106781186548, 1., 0.707106781186548, 1.), (0.707106781186548, 0.5, 0.707106781186548, 0.5, 0.707106781186548), (1., 0.707106781186548, 1., 0.707106781186548, 1.), (0.707106781186548, 0.5, 0.707106781186548, 0.5, 0.707106781186548), (1., 0.707106781186548, 1., 0.707106781186548, 1.), (0.707106781186548, 0.5, 0.707106781186548, 0.5, 0.707106781186548), (1., 0.707106781186548, 1., 0.707106781186548, 1.), (0.707106781186548, 0.5, 0.707106781186548, 0.5, 0.707106781186548), (1., 0.707106781186548, 1., 0.707106781186548, 1.)))
   REPRESENTATION_ITEM ('')
   SURFACE ()
);
#20 = CARTESIAN_POINT('', (-3.67394039744206E-15, 0., -20.));
#21 = CARTESIAN_POINT('', (20., 0., -20.));
#22 = CARTESIAN_POINT('', (20., 0., -4.89858719658941E-15));
#23 = CARTESIAN_POINT('', (20., 0., 20.));
#24 = CARTESIAN_POINT('', (6.12323399573677E-15, 0., 20.));
#25 = CARTESIAN_POINT('', (-3.67394039744206E-15, 0., -20.));
#26 = CARTESIAN_POINT('', (20., 20., -20.));
#27 = CARTESIAN_POINT('', (20., 20., -4.89858719658941E-15));
#28 = CARTESIAN_POINT('', (20., 20., 20.));
#29 = CARTESIAN_POINT('', (6.12323399573677E-15, 0., 20.));
#30 = CARTESIAN_POINT('', (-3.67394039744206E-15, 0., -20.));
#31 = CARTESIAN_POINT('', (1.22464679914735E-15, 20., -20.));
#32 = CARTESIAN_POINT('', (1.22464679914735E-15, 20., -4.89858719658941E-15));
#33 = CARTESIAN_POINT('', (1.22464679914735E-15, 20., 20.));
#34 = CARTESIAN_POINT('', (6.12323399573677E-15, 0., 20.));
#35 = CARTESIAN_POINT('', (-3.67394039744206E-15, 0., -20.));
#36 = CARTESIAN_POINT('', (-20., 20., -20.));
#37 = CARTESIAN_POINT('', (-20., 20., -4.89858719658941E-15));
#38 = CARTESIAN_POINT('', (-20., 20., 20.));
#39 = CARTESIAN_POINT('', (6.12323399573677E-15, 0., 20.));
#40 = CARTESIAN_POINT('', (-3.67394039744206E-15, 0., -20.));
#41 = CARTESIAN_POINT('', (-20., 2.44929359829471E-15, -20.));
#42 = CARTESIAN_POINT('', (-20., 2.44929359829471E-15, -4.89858719658941E-15));
#43 = CARTESIAN_POINT('', (-20., 2.44929359829471E-15, 20.));
#44 = CARTESIAN_POINT('', (6.12323399573677E-15, 0., 20.));
#45 = CARTESIAN_POINT('', (-3.67394039744206E-15, 0., -20.));
#46 = CARTESIAN_POINT('', (-20., -20., -20.));
#47 = CARTESIAN_POINT('', (-20., -20., -4.89858719658941E-15));
#48 = CARTESIAN_POINT('', (-20., -20., 20.));
#49 = CARTESIAN_POINT('', (6.12323399573677E-15, 0., 20.));
#50 = CARTESIAN_POINT('', (-3.67394039744206E-15, 0., -20.));
#51 = CARTESIAN_POINT('', (-3.67394039744206E-15, -20., -20.));
#52 = CARTESIAN_POINT('', (-3.67394039744206E-15, -20., -4.89858719658941E-15));
#53 = CARTESIAN_POINT('', (-3.67394039744206E-15, -20., 20.));
#54 = CARTESIAN_POINT('', (6.12323399573677E-15, 0., 20.));
#55 = CARTESIAN_POINT('', (-3.67394039744206E-15, 0., -20.));
#56 = CARTESIAN_POINT('', (20., -20., -20.));
#57 = CARTESIAN_POINT('', (20., -20., -4.89858719658941E-15));
#58 = CARTESIAN_POINT('', (20., -20., 20.));
#59 = CARTESIAN_POINT('', (6.12323399573677E-15, 0., 20.));
#60 = CARTESIAN_POINT('', (-3.67394039744206E-15, 0., -20.));
#61 = CARTESIAN_POINT('', (20., 0., -20.));
#62 = CARTESIAN_POINT('', (20., 0., -4.89858719658941E-15));
#63 = CARTESIAN_POINT('', (20., 0., 20.));
#64 = CARTESIAN_POINT('', (6.12323399573677E-15, 0., 20.));
#65 = DRAUGHTING_MODEL('', (#73, #219), #222);
#66 = PRESENTATION_STYLE_ASSIGNMENT((#67));
#67 = SURFACE_STYLE_USAGE(.POSITIVE., #68);
#68 = SURFACE_SIDE_STYLE('', (#69));
#69 = SURFACE_STYLE_FILL_AREA(#70);
#70 = FILL_AREA_STYLE('', (#71));
#71 = FILL_AREA_STYLE_COLOUR('', #72);
#72 = COLOUR_RGB('', 0.50196078431373, 0.50196078431373, 0.50196078431373);
#73 = STYLED_ITEM('', (#66), #1);
#74 = MANIFOLD_SOLID_BREP('Solid0', #75);
#75 = CLOSED_SHELL('', (#76, #112, #140, #168, #188, #200));
#76 = ADVANCED_FACE('', (#77), #107, .T.);
#77 = FACE_OUTER_BOUND('', #78, .T.);
#78 = EDGE_LOOP('', (#79, #88, #95, #102));
#79 = ORIENTED_EDGE('', *, *, #80, .T.);
#80 = EDGE_CURVE('', #81, #83, #85, .T.);
#81 = VERTEX_POINT('', #82);
#82 = CARTESIAN_POINT('', (45., 5., -5.));
#83 = VERTEX_POINT('', #84);
#84 = CARTESIAN_POINT('', (45., 5., 5.));
#85 = B_SPLINE_CURVE_WITH_KNOTS('', 1, (#86, #87), .UNSPECIFIED., .F., .U., (2, 2), (0., 10.), .UNSPECIFIED.);
#86 = CARTESIAN_POINT('', (45., 5., -5.));
#87 = CARTESIAN_POINT('', (45., 5., 5.));
#88 = ORIENTED_EDGE('', *, *, #89, .T.);
#89 = EDGE_CURVE('', #83, #90, #92, .T.);
#90 = VERTEX_POINT('', #91);
#91 = CARTESIAN_POINT('', (55., 5., 5.));
#92 = B_SPLINE_CURVE_WITH_KNOTS('', 1, (#93, #94), .UNSPECIFIED., .F., .U., (2, 2), (0., 10.), .UNSPECIFIED.);
#93 = CARTESIAN_POINT('', (45., 5., 5.));
#94 = CARTESIAN_POINT('', (55., 5., 5.));
#95 = ORIENTED_EDGE('', *, *, #96, .F.);
#96 = EDGE_CURVE('', #97, #90, #99, .T.);
#97 = VERTEX_POINT('', #98);
#98 = CARTESIAN_POINT('', (55., 5., -5.));
#99 = B_SPLINE_CURVE_WITH_KNOTS('', 1, (#100, #101), .UNSPECIFIED., .F., .U., (2, 2), (0., 10.), .UNSPECIFIED.);
#100 = CARTESIAN_POINT('', (55., 5., -5.));
#101 = CARTESIAN_POINT('', (55., 5., 5.));
#102 = ORIENTED_EDGE('', *, *, #103, .F.);
#103 = EDGE_CURVE('', #81, #97, #104, .T.);
#104 = B_SPLINE_CURVE_WITH_KNOTS('', 1, (#105, #106), .UNSPECIFIED., .F., .U., (2, 2), (0., 10.), .UNSPECIFIED.);
#105 = CARTESIAN_POINT('', (45., 5., -5.));
#106 = CARTESIAN_POINT('', (55., 5., -5.));
#107 = B_SPLINE_SURFACE_WITH_KNOTS('', 1, 1, ((#108, #109), (#110, #111)), .UNSPECIFIED., .F., .F., .U., (2, 2), (2, 2), (0., 10.), (0., 10.), .UNSPECIFIED.);
#108 = CARTESIAN_POINT('', (45., 5., -5.));
#109 = CARTESIAN_POINT('', (55., 5., -5.));
#110 = CARTESIAN_POINT('', (45., 5., 5.));
#111 = CARTESIAN_POINT('', (55., 5., 5.));
#112 = ADVANCED_FACE('', (#113), #135, .T.);
#113 = FACE_OUTER_BOUND('', #114, .T.);
#114 = EDGE_LOOP('', (#115, #122, #129, #134));
#115 = ORIENTED_EDGE('', *, *, #116, .F.);
#116 = EDGE_CURVE('', #117, #83, #119, .T.);
#117 = VERTEX_POINT('', #118);
#118 = CARTESIAN_POINT('', (45., -5., 5.));
#119 = B_SPLINE_CURVE_WITH_KNOTS('', 1, (#120, #121), .UNSPECIFIED., .F., .U., (2, 2), (0., 10.), .UNSPECIFIED.);
#120 = CARTESIAN_POINT('', (45., -5., 5.));
#121 = CARTESIAN_POINT('', (45., 5., 5.));
#122 = ORIENTED_EDGE('', *, *, #123, .T.);
#123 = EDGE_CURVE('', #117, #124, #126, .T.);
#124 = VERTEX_POINT('', #125);
#125 = CARTESIAN_POINT('', (55., -5., 5.));
#126 = B_SPLINE_CURVE_WITH_KNOTS('', 1, (#127, #128), .UNSPECIFIED., .F., .U., (2, 2), (0., 10.), .UNSPECIFIED.);
#127 = CARTESIAN_POINT('', (45., -5., 5.));
#128 = CARTESIAN_POINT('', (55., -5., 5.));
#129 = ORIENTED_EDGE('', *, *, #130, .T.);
#130 = EDGE_CURVE('', #124, #90, #131, .T.);
#131 = B_SPLINE_CURVE_WITH_KNOTS('', 1, (#132, #133), .UNSPECIFIED., .F., .U., (2, 2), (0., 10.), .UNSPECIFIED.);
#132 = CARTESIAN_POINT('', (55., -5., 5.));
#133 = CARTESIAN_POINT('', (55., 5., 5.));
#134 = ORIENTED_EDGE('', *, *, #89, .F.);
#135 = B_SPLINE_SURFACE_WITH_KNOTS('', 1, 1, ((#136, #137), (#138, #139)), .UNSPECIFIED., .F., .F., .U., (2, 2), (2, 2), (0., 10.), (0., 10.), .UNSPECIFIED.);
#136 = CARTESIAN_POINT('', (45., -5., 5.));
#137 = CARTESIAN_POINT('', (45., 5., 5.));
#138 = CARTESIAN_POINT('', (55., -5., 5.));
#139 = CARTESIAN_POINT('', (55., 5., 5.));
#140 = ADVANCED_FACE('', (#141), #163, .T.);
#141 = FACE_OUTER_BOUND('', #142, .T.);
#142 = EDGE_LOOP('', (#143, #150, #157, #162));
#143 = ORIENTED_EDGE('', *, *, #144, .F.);
#144 = EDGE_CURVE('', #145, #117, #147, .T.);
#145 = VERTEX_POINT('', #146);
#146 = CARTESIAN_POINT('', (45., -5., -5.));
#147 = B_SPLINE_CURVE_WITH_KNOTS('', 1, (#148, #149), .UNSPECIFIED., .F., .U., (2, 2), (0., 10.), .UNSPECIFIED.);
#148 = CARTESIAN_POINT('', (45., -5., -5.));
#149 = CARTESIAN_POINT('', (45., -5., 5.));
#150 = ORIENTED_EDGE('', *, *, #151, .T.);
#151 = EDGE_CURVE('', #145, #152, #154, .T.);
#152 = VERTEX_POINT('', #153);
#153 = CARTESIAN_POINT('', (55., -5., -5.));
#154 = B_SPLINE_CURVE_WITH_KNOTS('', 1, (#155, #156), .UNSPECIFIED., .F., .U., (2, 2), (0., 10.), .UNSPECIFIED.);
#155 = CARTESIAN_POINT('', (45., -5., -5.));
#156 = CARTESIAN_POINT('', (55., -5., -5.));
#157 = ORIENTED_EDGE('', *, *, #158, .T.);
#158 = EDGE_CURVE('', #152, #124, #159, .T.);
#159 = B_SPLINE_CURVE_WITH_KNOTS('', 1, (#160, #161), .UNSPECIFIED., .F., .U., (2, 2), (0., 10.), .UNSPECIFIED.);
#160 = CARTESIAN_POINT('', (55., -5., -5.));
#161 = CARTESIAN_POINT('', (55., -5., 5.));
#162 = ORIENTED_EDGE('', *, *, #123, .F.);
#163 = B_SPLINE_SURFACE_WITH_KNOTS('', 1, 1, ((#164, #165), (#166, #167)), .UNSPECIFIED., .F., .F., .U., (2, 2), (2, 2), (0., 10.), (0., 10.), .UNSPECIFIED.);
#164 = CARTESIAN_POINT('', (45., -5., -5.));
#165 = CARTESIAN_POINT('', (45., -5., 5.));
#166 = CARTESIAN_POINT('', (55., -5., -5.));
#167 = CARTESIAN_POINT('', (55., -5., 5.));
#168 = ADVANCED_FACE('', (#169), #183, .T.);
#169 = FACE_OUTER_BOUND('', #170, .T.);
#170 = EDGE_LOOP('', (#171, #176, #177, #182));
#171 = ORIENTED_EDGE('', *, *, #172, .T.);
#172 = EDGE_CURVE('', #145, #81, #173, .T.);
#173 = B_SPLINE_CURVE_WITH_KNOTS('', 1, (#174, #175), .UNSPECIFIED., .F., .U., (2, 2), (0., 10.), .UNSPECIFIED.);
#174 = CARTESIAN_POINT('', (45., -5., -5.));
#175 = CARTESIAN_POINT('', (45., 5., -5.));
#176 = ORIENTED_EDGE('', *, *, #103, .T.);
#177 = ORIENTED_EDGE('', *, *, #178, .F.);
#178 = EDGE_CURVE('', #152, #97, #179, .T.);
#179 = B_SPLINE_CURVE_WITH_KNOTS('', 1, (#180, #181), .UNSPECIFIED., .F., .U., (2, 2), (0., 10.), .UNSPECIFIED.);
#180 = CARTESIAN_POINT('', (55., -5., -5.));
#181 = CARTESIAN_POINT('', (55., 5., -5.));
#182 = ORIENTED_EDGE('', *, *, #151, .F.);
#183 = B_SPLINE_SURFACE_WITH_KNOTS('', 1, 1, ((#184, #185), (#186, #187)), .UNSPECIFIED., .F., .F., .U., (2, 2), (2, 2), (0., 10.), (0., 10.), .UNSPECIFIED.);
#184 = CARTESIAN_POINT('', (45., -5., -5.));
#185 = CARTESIAN_POINT('', (55., -5., -5.));
#186 = CARTESIAN_POINT('', (45., 5., -5.));
#187 = CARTESIAN_POINT('', (55., 5., -5.));
#188 = ADVANCED_FACE('', (#189), #195, .T.);
#189 = FACE_OUTER_BOUND('', #190, .T.);
#190 = EDGE_LOOP('', (#191, #192, #193, #194));
#191 = ORIENTED_EDGE('', *, *, #158, .F.);
#192 = ORIENTED_EDGE('', *, *, #178, .T.);
#193 = ORIENTED_EDGE('', *, *, #96, .T.);
#194 = ORIENTED_EDGE('', *, *, #130, .F.);
#195 = B_SPLINE_SURFACE_WITH_KNOTS('', 1, 1, ((#196, #197), (#198, #199)), .UNSPECIFIED., .F., .F., .U., (2, 2), (2, 2), (0., 10.), (0., 10.), .UNSPECIFIED.);
#196 = CARTESIAN_POINT('', (55., -5., -5.));
#197 = CARTESIAN_POINT('', (55., -5., 5.));
#198 = CARTESIAN_POINT('', (55., 5., -5.));
#199 = CARTESIAN_POINT('', (55., 5., 5.));
#200 = ADVANCED_FACE('', (#201), #207, .T.);
#201 = FACE_OUTER_BOUND('', #202, .T.);
#202 = EDGE_LOOP('', (#203, #204, #205, #206));
#203 = ORIENTED_EDGE('', *, *, #144, .T.);
#204 = ORIENTED_EDGE('', *, *, #116, .T.);
#205 = ORIENTED_EDGE('', *, *, #80, .F.);
#206 = ORIENTED_EDGE('', *, *, #172, .F.);
#207 = B_SPLINE_SURFACE_WITH_KNOTS('', 1, 1, ((#208, #209), (#210, #211)), .UNSPECIFIED., .F., .F., .U., (2, 2), (2, 2), (0., 10.), (0., 10.), .UNSPECIFIED.);
#208 = CARTESIAN_POINT('', (45., -5., -5.));
#209 = CARTESIAN_POINT('', (45., 5., -5.));
#210 = CARTESIAN_POINT('', (45., -5., 5.));
#211 = CARTESIAN_POINT('', (45., 5., 5.));
#212 = PRESENTATION_STYLE_ASSIGNMENT((#213));
#213 = SURFACE_STYLE_USAGE(.POSITIVE., #214);
#214 = SURFACE_SIDE_STYLE('', (#215));
#215 = SURFACE_STYLE_FILL_AREA(#216);
#216 = FILL_AREA_STYLE('', (#217));
#217 = FILL_AREA_STYLE_COLOUR('', #218);
#218 = COLOUR_RGB('', 0.50196078431373, 0.50196078431373, 0.50196078431373);
#219 = STYLED_ITEM('', (#212), #74);
#220 = CARTESIAN_POINT('Origin', (0., 0., 0.));
#221 = GEOMETRIC_SET('', (#220));
#222 = (
   GEOMETRIC_REPRESENTATION_CONTEXT (3)
   GLOBAL_UNCERTAINTY_ASSIGNED_CONTEXT ((#224))
   GLOBAL_UNIT_ASSIGNED_CONTEXT ((#223, #225, #226))
   REPRESENTATION_CONTEXT ('', '3D')
);
#223 = (
   LENGTH_UNIT ()
   NAMED_UNIT (*)
   SI_UNIT (.MILLI., .METRE.)
);
#224 = UNCERTAINTY_MEASURE_WITH_UNIT(LENGTH_MEASURE(1.E-6), #223, 'DISTANCE_ACCURACY_VALUE', '');
#225 = (
   NAMED_UNIT (*)
   SI_UNIT ($, .STERADIAN.)
   SOLID_ANGLE_UNIT ()
);
#226 = (
   NAMED_UNIT (*)
   PLANE_ANGLE_UNIT ()
   SI_UNIT ($, .RADIAN.)
);
#227 = SHAPE_REPRESENTATION('', (#242), #222);
#228 = PRODUCT_DEFINITION_SHAPE('', '', #229);
#229 = PRODUCT_DEFINITION('', '', #232, #236);
#230 = APPLICATION_CONTEXT('configuration controlled 3D designs of mechanical parts and assemblies');
#231 = APPLICATION_PROTOCOL_DEFINITION('International Standard', 'automotive_design', 2002, #230);
#232 = PRODUCT_DEFINITION_FORMATION_WITH_SPECIFIED_SOURCE('', '', #233, .NOT_KNOWN.);
#233 = PRODUCT('SphereOffset', 'SphereOffset', '', (#234));
#234 = PRODUCT_CONTEXT('', #230, 'mechanical');
#235 = PRODUCT_RELATED_PRODUCT_CATEGORY('detail', '', (#233));
#236 = PRODUCT_DEFINITION_CONTEXT('part definition', #230, 'design');
#237 = SHAPE_DEFINITION_REPRESENTATION(#228, #227);
#238 = SHAPE_REPRESENTATION_RELATIONSHIP('', '', #227, #239);
#239 = SHAPE_REPRESENTATION('', (#221), #222);
#240 = SHAPE_REPRESENTATION_RELATIONSHIP('', '', #227, #241);
#241 = ADVANCED_BREP_SHAPE_REPRESENTATION('', (#1, #74), #222);
#242 = AXIS2_PLACEMENT_3D('', #243, #244, #245);
#243 = CARTESIAN_POINT('', (0., 0., 0.));
#244 = DIRECTION('', (0., 0., 1.));
#245 = DIRECTION('', (1., 0., 0.));
ENDSEC;
END-ISO-10303-21;
