ISO-10303-21;
HEADER;
FILE_DESCRIPTION(('STEP'), '1');
FILE_NAME('CylOffset', '2026-04-15T12:10:57', (''), (''), 'Express 3.1.2.0', 'Express Tool', 'Unknown');
FILE_SCHEMA(('AUTOMOTIVE_DESIGN'));
ENDSEC;

DATA;
#1 = MANIFOLD_SOLID_BREP('Solid', #2);
#2 = CLOSED_SHELL('', (#3, #69, #112, #165, #174));
#3 = ADVANCED_FACE('', (#4), #41, .F.);
#4 = FACE_OUTER_BOUND('', #5, .F.);
#5 = EDGE_LOOP('', (#6, #16, #28, #29));
#6 = ORIENTED_EDGE('', *, *, #7, .F.);
#7 = EDGE_CURVE('', #8, #10, #12, .T.);
#8 = VERTEX_POINT('', #9);
#9 = CARTESIAN_POINT('', (15., 1.97215226305252E-32, 25.));
#10 = VERTEX_POINT('', #11);
#11 = CARTESIAN_POINT('', (20., 0., 20.));
#12 = (
   BOUNDED_CURVE ()
   B_SPLINE_CURVE (2, (#13, #14, #15), .UNSPECIFIED., .F., .U.)
   B_SPLINE_CURVE_WITH_KNOTS ((3, 3), (0., 1.), .UNSPECIFIED.)
   CURVE ()
   GEOMETRIC_REPRESENTATION_ITEM ()
   RATIONAL_B_SPLINE_CURVE ((1., 0.707106781186548, 1.))
   REPRESENTATION_ITEM ('')
);
#13 = CARTESIAN_POINT('', (15., 1.97215226305252E-32, 25.));
#14 = CARTESIAN_POINT('', (20., -9.86076131526265E-32, 25.));
#15 = CARTESIAN_POINT('', (20., -1.97215226305253E-31, 20.));
#16 = ORIENTED_EDGE('', *, *, #17, .T.);
#17 = EDGE_CURVE('', #8, #8, #18, .T.);
#18 = (
   BOUNDED_CURVE ()
   B_SPLINE_CURVE (2, (#19, #20, #21, #22, #23, #24, #25, #26, #27), .UNSPECIFIED., .T., .U.)
   B_SPLINE_CURVE_WITH_KNOTS ((3, 2, 2, 2, 3), (0., 0.25, 0.5, 0.75, 1.), .UNSPECIFIED.)
   CURVE ()
   GEOMETRIC_REPRESENTATION_ITEM ()
   RATIONAL_B_SPLINE_CURVE ((1., 0.707106781186548, 1., 0.707106781186548, 1., 0.707106781186548, 1., 0.707106781186548, 1.))
   REPRESENTATION_ITEM ('')
);
#19 = CARTESIAN_POINT('', (15., 1.97215226305252E-32, 25.));
#20 = CARTESIAN_POINT('', (15., 15., 25.));
#21 = CARTESIAN_POINT('', (-3.7999627552964E-15, 15., 25.));
#22 = CARTESIAN_POINT('', (-15., 15., 25.));
#23 = CARTESIAN_POINT('', (-15., -8.27565060379345E-16, 25.));
#24 = CARTESIAN_POINT('', (-15., -15., 25.));
#25 = CARTESIAN_POINT('', (-4.80936789363808E-15, -15., 25.));
#26 = CARTESIAN_POINT('', (15., -15., 25.));
#27 = CARTESIAN_POINT('', (15., 1.97215226305252E-32, 25.));
#28 = ORIENTED_EDGE('', *, *, #7, .T.);
#29 = ORIENTED_EDGE('', *, *, #30, .F.);
#30 = EDGE_CURVE('', #10, #10, #31, .T.);
#31 = (
   BOUNDED_CURVE ()
   B_SPLINE_CURVE (2, (#32, #33, #34, #35, #36, #37, #38, #39, #40), .UNSPECIFIED., .T., .U.)
   B_SPLINE_CURVE_WITH_KNOTS ((3, 2, 2, 2, 3), (0., 23.5619449019235, 47.1238898038469, 70.6858347057703, 94.2477796076938), .UNSPECIFIED.)
   CURVE ()
   GEOMETRIC_REPRESENTATION_ITEM ()
   RATIONAL_B_SPLINE_CURVE ((1., 0.707106781186548, 1., 0.707106781186548, 1., 0.707106781186548, 1., 0.707106781186548, 1.))
   REPRESENTATION_ITEM ('')
);
#32 = CARTESIAN_POINT('', (20., 0., 20.));
#33 = CARTESIAN_POINT('', (20., 20., 20.));
#34 = CARTESIAN_POINT('', (1.22464679914735E-15, 20., 20.));
#35 = CARTESIAN_POINT('', (-20., 20., 20.));
#36 = CARTESIAN_POINT('', (-20., 2.44929359829471E-15, 20.));
#37 = CARTESIAN_POINT('', (-20., -20., 20.));
#38 = CARTESIAN_POINT('', (-3.67394039744206E-15, -20., 20.));
#39 = CARTESIAN_POINT('', (20., -20., 20.));
#40 = CARTESIAN_POINT('', (20., 0., 20.));
#41 = (
   BOUNDED_SURFACE ()
   B_SPLINE_SURFACE (2, 2, ((#42, #43, #44), (#45, #46, #47), (#48, #49, #50), (#51, #52, #53), (#54, #55, #56), (#57, #58, #59), (#60, #61, #62), (#63, #64, #65), (#66, #67, #68)), .UNSPECIFIED., .T., .F., .U.)
   B_SPLINE_SURFACE_WITH_KNOTS ((3, 2, 2, 2, 3), (3, 3), (0., 0.25, 0.5, 0.75, 1.), (0., 1.), .UNSPECIFIED.)
   GEOMETRIC_REPRESENTATION_ITEM ()
   RATIONAL_B_SPLINE_SURFACE (((1., 0.707106781186548, 1.), (0.707106781186548, 0.5, 0.707106781186548), (1., 0.707106781186548, 1.), (0.707106781186548, 0.5, 0.707106781186548), (1., 0.707106781186548, 1.), (0.707106781186548, 0.5, 0.707106781186548), (1., 0.707106781186548, 1.), (0.707106781186548, 0.5, 0.707106781186548), (1., 0.707106781186548, 1.)))
   REPRESENTATION_ITEM ('')
   SURFACE ()
);
#42 = CARTESIAN_POINT('', (15., 1.97215226305252E-32, 25.));
#43 = CARTESIAN_POINT('', (20., -9.86076131526265E-32, 25.));
#44 = CARTESIAN_POINT('', (20., -1.97215226305253E-31, 20.));
#45 = CARTESIAN_POINT('', (15., 15., 25.));
#46 = CARTESIAN_POINT('', (20., 20., 25.));
#47 = CARTESIAN_POINT('', (20., 20., 20.));
#48 = CARTESIAN_POINT('', (-3.7999627552964E-15, 15., 25.));
#49 = CARTESIAN_POINT('', (-3.49380105550957E-15, 20., 25.));
#50 = CARTESIAN_POINT('', (-8.53073971111072E-15, 20., 20.));
#51 = CARTESIAN_POINT('', (-15., 15., 25.));
#52 = CARTESIAN_POINT('', (-20., 20., 25.));
#53 = CARTESIAN_POINT('', (-20., 20., 20.));
#54 = CARTESIAN_POINT('', (-15., -8.27565060379345E-16, 25.));
#55 = CARTESIAN_POINT('', (-20., -2.15241660805673E-16, 25.));
#56 = CARTESIAN_POINT('', (-20., -7.92064318614098E-15, 20.));
#57 = CARTESIAN_POINT('', (-15., -15., 25.));
#58 = CARTESIAN_POINT('', (-20., -20., 25.));
#59 = CARTESIAN_POINT('', (-20., -20., 20.));
#60 = CARTESIAN_POINT('', (-4.80936789363808E-15, -15., 25.));
#61 = CARTESIAN_POINT('', (-5.72785299299859E-15, -20., 25.));
#62 = CARTESIAN_POINT('', (-3.05939012326444E-15, -20., 20.));
#63 = CARTESIAN_POINT('', (15., -15., 25.));
#64 = CARTESIAN_POINT('', (20., -20., 25.));
#65 = CARTESIAN_POINT('', (20., -20., 20.));
#66 = CARTESIAN_POINT('', (15., 1.97215226305252E-32, 25.));
#67 = CARTESIAN_POINT('', (20., -9.86076131526265E-32, 25.));
#68 = CARTESIAN_POINT('', (20., -1.97215226305253E-31, 20.));
#69 = ADVANCED_FACE('', (#70), #93, .T.);
#70 = FACE_OUTER_BOUND('', #71, .T.);
#71 = EDGE_LOOP('', (#72, #79, #91, #92));
#72 = ORIENTED_EDGE('', *, *, #73, .F.);
#73 = EDGE_CURVE('', #74, #10, #76, .T.);
#74 = VERTEX_POINT('', #75);
#75 = CARTESIAN_POINT('', (20., 1.37182538744568E-32, -20.));
#76 = B_SPLINE_CURVE_WITH_KNOTS('', 1, (#77, #78), .UNSPECIFIED., .F., .U., (2, 2), (0., 40.), .UNSPECIFIED.);
#77 = CARTESIAN_POINT('', (20., 0., -20.));
#78 = CARTESIAN_POINT('', (20., 0., 20.));
#79 = ORIENTED_EDGE('', *, *, #80, .T.);
#80 = EDGE_CURVE('', #74, #74, #81, .T.);
#81 = (
   BOUNDED_CURVE ()
   B_SPLINE_CURVE (2, (#82, #83, #84, #85, #86, #87, #88, #89, #90), .UNSPECIFIED., .T., .U.)
   B_SPLINE_CURVE_WITH_KNOTS ((3, 2, 2, 2, 3), (0., 23.5619449019235, 47.1238898038469, 70.6858347057703, 94.2477796076938), .UNSPECIFIED.)
   CURVE ()
   GEOMETRIC_REPRESENTATION_ITEM ()
   RATIONAL_B_SPLINE_CURVE ((1., 0.707106781186548, 1., 0.707106781186548, 1., 0.707106781186548, 1., 0.707106781186548, 1.))
   REPRESENTATION_ITEM ('')
);
#82 = CARTESIAN_POINT('', (20., 0., -20.));
#83 = CARTESIAN_POINT('', (20., 20., -20.));
#84 = CARTESIAN_POINT('', (1.22464679914735E-15, 20., -20.));
#85 = CARTESIAN_POINT('', (-20., 20., -20.));
#86 = CARTESIAN_POINT('', (-20., 2.44929359829471E-15, -20.));
#87 = CARTESIAN_POINT('', (-20., -20., -20.));
#88 = CARTESIAN_POINT('', (-3.67394039744206E-15, -20., -20.));
#89 = CARTESIAN_POINT('', (20., -20., -20.));
#90 = CARTESIAN_POINT('', (20., 0., -20.));
#91 = ORIENTED_EDGE('', *, *, #73, .T.);
#92 = ORIENTED_EDGE('', *, *, #30, .F.);
#93 = (
   BOUNDED_SURFACE ()
   B_SPLINE_SURFACE (2, 1, ((#94, #95), (#96, #97), (#98, #99), (#100, #101), (#102, #103), (#104, #105), (#106, #107), (#108, #109), (#110, #111)), .UNSPECIFIED., .T., .F., .U.)
   B_SPLINE_SURFACE_WITH_KNOTS ((3, 2, 2, 2, 3), (2, 2), (0., 23.5619449019235, 47.1238898038469, 70.6858347057703, 94.2477796076938), (0., 40.), .UNSPECIFIED.)
   GEOMETRIC_REPRESENTATION_ITEM ()
   RATIONAL_B_SPLINE_SURFACE (((1., 1.), (0.707106781186548, 0.707106781186548), (1., 1.), (0.707106781186548, 0.707106781186548), (1., 1.), (0.707106781186548, 0.707106781186548), (1., 1.), (0.707106781186548, 0.707106781186548), (1., 1.)))
   REPRESENTATION_ITEM ('')
   SURFACE ()
);
#94 = CARTESIAN_POINT('', (20., 0., -20.));
#95 = CARTESIAN_POINT('', (20., 0., 20.));
#96 = CARTESIAN_POINT('', (20., 20., -20.));
#97 = CARTESIAN_POINT('', (20., 20., 20.));
#98 = CARTESIAN_POINT('', (1.22464679914735E-15, 20., -20.));
#99 = CARTESIAN_POINT('', (1.22464679914735E-15, 20., 20.));
#100 = CARTESIAN_POINT('', (-20., 20., -20.));
#101 = CARTESIAN_POINT('', (-20., 20., 20.));
#102 = CARTESIAN_POINT('', (-20., 2.44929359829471E-15, -20.));
#103 = CARTESIAN_POINT('', (-20., 2.44929359829471E-15, 20.));
#104 = CARTESIAN_POINT('', (-20., -20., -20.));
#105 = CARTESIAN_POINT('', (-20., -20., 20.));
#106 = CARTESIAN_POINT('', (-3.67394039744206E-15, -20., -20.));
#107 = CARTESIAN_POINT('', (-3.67394039744206E-15, -20., 20.));
#108 = CARTESIAN_POINT('', (20., -20., -20.));
#109 = CARTESIAN_POINT('', (20., -20., 20.));
#110 = CARTESIAN_POINT('', (20., 0., -20.));
#111 = CARTESIAN_POINT('', (20., 0., 20.));
#112 = ADVANCED_FACE('', (#113), #137, .T.);
#113 = FACE_OUTER_BOUND('', #114, .T.);
#114 = EDGE_LOOP('', (#115, #123, #135, #136));
#115 = ORIENTED_EDGE('', *, *, #116, .F.);
#116 = EDGE_CURVE('', #117, #74, #119, .T.);
#117 = VERTEX_POINT('', #118);
#118 = CARTESIAN_POINT('', (15., 1.97215226305252E-32, -25.));
#119 = (
   BOUNDED_CURVE ()
   B_SPLINE_CURVE (2, (#120, #121, #122), .UNSPECIFIED., .F., .U.)
   B_SPLINE_CURVE_WITH_KNOTS ((3, 3), (0., 1.), .UNSPECIFIED.)
   CURVE ()
   GEOMETRIC_REPRESENTATION_ITEM ()
   RATIONAL_B_SPLINE_CURVE ((1., 0.707106781186548, 1.))
   REPRESENTATION_ITEM ('')
);
#120 = CARTESIAN_POINT('', (15., 1.97215226305252E-32, -25.));
#121 = CARTESIAN_POINT('', (20., -5.91645678915759E-32, -25.));
#122 = CARTESIAN_POINT('', (20., 1.37182538744568E-32, -20.));
#123 = ORIENTED_EDGE('', *, *, #124, .T.);
#124 = EDGE_CURVE('', #117, #117, #125, .T.);
#125 = (
   BOUNDED_CURVE ()
   B_SPLINE_CURVE (2, (#126, #127, #128, #129, #130, #131, #132, #133, #134), .UNSPECIFIED., .T., .U.)
   B_SPLINE_CURVE_WITH_KNOTS ((3, 2, 2, 2, 3), (0., 0.25, 0.5, 0.75, 1.), .UNSPECIFIED.)
   CURVE ()
   GEOMETRIC_REPRESENTATION_ITEM ()
   RATIONAL_B_SPLINE_CURVE ((1., 0.707106781186548, 1., 0.707106781186548, 1., 0.707106781186548, 1., 0.707106781186548, 1.))
   REPRESENTATION_ITEM ('')
);
#126 = CARTESIAN_POINT('', (15., 1.97215226305252E-32, -25.));
#127 = CARTESIAN_POINT('', (15., 15., -25.));
#128 = CARTESIAN_POINT('', (-3.7999627552964E-15, 15., -25.));
#129 = CARTESIAN_POINT('', (-15., 15., -25.));
#130 = CARTESIAN_POINT('', (-15., -8.27565060379345E-16, -25.));
#131 = CARTESIAN_POINT('', (-15., -15., -25.));
#132 = CARTESIAN_POINT('', (-4.80936789363809E-15, -15., -25.));
#133 = CARTESIAN_POINT('', (15., -15., -25.));
#134 = CARTESIAN_POINT('', (15., 1.97215226305252E-32, -25.));
#135 = ORIENTED_EDGE('', *, *, #116, .T.);
#136 = ORIENTED_EDGE('', *, *, #80, .F.);
#137 = (
   BOUNDED_SURFACE ()
   B_SPLINE_SURFACE (2, 2, ((#138, #139, #140), (#141, #142, #143), (#144, #145, #146), (#147, #148, #149), (#150, #151, #152), (#153, #154, #155), (#156, #157, #158), (#159, #160, #161), (#162, #163, #164)), .UNSPECIFIED., .T., .F., .U.)
   B_SPLINE_SURFACE_WITH_KNOTS ((3, 2, 2, 2, 3), (3, 3), (0., 0.25, 0.5, 0.75, 1.), (0., 1.), .UNSPECIFIED.)
   GEOMETRIC_REPRESENTATION_ITEM ()
   RATIONAL_B_SPLINE_SURFACE (((1., 0.707106781186548, 1.), (0.707106781186548, 0.5, 0.707106781186548), (1., 0.707106781186548, 1.), (0.707106781186548, 0.5, 0.707106781186548), (1., 0.707106781186548, 1.), (0.707106781186548, 0.5, 0.707106781186548), (1., 0.707106781186548, 1.), (0.707106781186548, 0.5, 0.707106781186548), (1., 0.707106781186548, 1.)))
   REPRESENTATION_ITEM ('')
   SURFACE ()
);
#138 = CARTESIAN_POINT('', (15., 1.97215226305252E-32, -25.));
#139 = CARTESIAN_POINT('', (20., -5.91645678915759E-32, -25.));
#140 = CARTESIAN_POINT('', (20., 1.37182538744568E-32, -20.));
#141 = CARTESIAN_POINT('', (15., 15., -25.));
#142 = CARTESIAN_POINT('', (20., 20., -25.));
#143 = CARTESIAN_POINT('', (20., 20., -20.));
#144 = CARTESIAN_POINT('', (-3.7999627552964E-15, 15., -25.));
#145 = CARTESIAN_POINT('', (-3.49380105550956E-15, 20., -25.));
#146 = CARTESIAN_POINT('', (5.36797231807045E-16, 20., -20.));
#147 = CARTESIAN_POINT('', (-15., 15., -25.));
#148 = CARTESIAN_POINT('', (-20., 20., -25.));
#149 = CARTESIAN_POINT('', (-20., 20., -20.));
#150 = CARTESIAN_POINT('', (-15., -8.27565060379345E-16, -25.));
#151 = CARTESIAN_POINT('', (-20., -2.15241660805669E-16, -25.));
#152 = CARTESIAN_POINT('', (-20., 7.84595491382755E-15, -20.));
#153 = CARTESIAN_POINT('', (-15., -15., -25.));
#154 = CARTESIAN_POINT('', (-20., -20., -25.));
#155 = CARTESIAN_POINT('', (-20., -20., -20.));
#156 = CARTESIAN_POINT('', (-4.80936789363809E-15, -15., -25.));
#157 = CARTESIAN_POINT('', (-5.7278529929986E-15, -20., -25.));
#158 = CARTESIAN_POINT('', (-9.75845128031521E-15, -20., -20.));
#159 = CARTESIAN_POINT('', (15., -15., -25.));
#160 = CARTESIAN_POINT('', (20., -20., -25.));
#161 = CARTESIAN_POINT('', (20., -20., -20.));
#162 = CARTESIAN_POINT('', (15., 1.97215226305252E-32, -25.));
#163 = CARTESIAN_POINT('', (20., -5.91645678915759E-32, -25.));
#164 = CARTESIAN_POINT('', (20., 1.37182538744568E-32, -20.));
#165 = ADVANCED_FACE('', (#166), #169, .T.);
#166 = FACE_OUTER_BOUND('', #167, .T.);
#167 = EDGE_LOOP('', (#168));
#168 = ORIENTED_EDGE('', *, *, #124, .F.);
#169 = B_SPLINE_SURFACE_WITH_KNOTS('', 1, 1, ((#170, #171), (#172, #173)), .UNSPECIFIED., .F., .F., .U., (2, 2), (2, 2), (0.178587826733388, 0.821412173266612), (0.178587826733388, 0.821412173266613), .UNSPECIFIED.);
#170 = CARTESIAN_POINT('', (15., -15., -25.));
#171 = CARTESIAN_POINT('', (15., 15., -25.));
#172 = CARTESIAN_POINT('', (-15., -15., -25.));
#173 = CARTESIAN_POINT('', (-15., 15., -25.));
#174 = ADVANCED_FACE('', (#175), #178, .T.);
#175 = FACE_OUTER_BOUND('', #176, .T.);
#176 = EDGE_LOOP('', (#177));
#177 = ORIENTED_EDGE('', *, *, #17, .T.);
#178 = B_SPLINE_SURFACE_WITH_KNOTS('', 1, 1, ((#179, #180), (#181, #182)), .UNSPECIFIED., .F., .F., .U., (2, 2), (2, 2), (0.178587826733388, 0.821412173266613), (0.178587826733388, 0.821412173266612), .UNSPECIFIED.);
#179 = CARTESIAN_POINT('', (15., -15., 25.));
#180 = CARTESIAN_POINT('', (-15., -15., 25.));
#181 = CARTESIAN_POINT('', (15., 15., 25.));
#182 = CARTESIAN_POINT('', (-15., 15., 25.));
#183 = DRAUGHTING_MODEL('', (#191, #337), #340);
#184 = PRESENTATION_STYLE_ASSIGNMENT((#185));
#185 = SURFACE_STYLE_USAGE(.POSITIVE., #186);
#186 = SURFACE_SIDE_STYLE('', (#187));
#187 = SURFACE_STYLE_FILL_AREA(#188);
#188 = FILL_AREA_STYLE('', (#189));
#189 = FILL_AREA_STYLE_COLOUR('', #190);
#190 = COLOUR_RGB('', 0.8, 0.8, 0.8);
#191 = STYLED_ITEM('', (#184), #1);
#192 = MANIFOLD_SOLID_BREP('Solid0', #193);
#193 = CLOSED_SHELL('', (#194, #230, #258, #286, #306, #318));
#194 = ADVANCED_FACE('', (#195), #225, .T.);
#195 = FACE_OUTER_BOUND('', #196, .T.);
#196 = EDGE_LOOP('', (#197, #206, #213, #220));
#197 = ORIENTED_EDGE('', *, *, #198, .T.);
#198 = EDGE_CURVE('', #199, #201, #203, .T.);
#199 = VERTEX_POINT('', #200);
#200 = CARTESIAN_POINT('', (46., 4., -4.));
#201 = VERTEX_POINT('', #202);
#202 = CARTESIAN_POINT('', (46., 4., 4.));
#203 = B_SPLINE_CURVE_WITH_KNOTS('', 1, (#204, #205), .UNSPECIFIED., .F., .U., (2, 2), (0., 8.), .UNSPECIFIED.);
#204 = CARTESIAN_POINT('', (46., 4., -4.));
#205 = CARTESIAN_POINT('', (46., 4., 4.));
#206 = ORIENTED_EDGE('', *, *, #207, .T.);
#207 = EDGE_CURVE('', #201, #208, #210, .T.);
#208 = VERTEX_POINT('', #209);
#209 = CARTESIAN_POINT('', (54., 4., 4.));
#210 = B_SPLINE_CURVE_WITH_KNOTS('', 1, (#211, #212), .UNSPECIFIED., .F., .U., (2, 2), (0., 8.), .UNSPECIFIED.);
#211 = CARTESIAN_POINT('', (46., 4., 4.));
#212 = CARTESIAN_POINT('', (54., 4., 4.));
#213 = ORIENTED_EDGE('', *, *, #214, .F.);
#214 = EDGE_CURVE('', #215, #208, #217, .T.);
#215 = VERTEX_POINT('', #216);
#216 = CARTESIAN_POINT('', (54., 4., -4.));
#217 = B_SPLINE_CURVE_WITH_KNOTS('', 1, (#218, #219), .UNSPECIFIED., .F., .U., (2, 2), (0., 8.), .UNSPECIFIED.);
#218 = CARTESIAN_POINT('', (54., 4., -4.));
#219 = CARTESIAN_POINT('', (54., 4., 4.));
#220 = ORIENTED_EDGE('', *, *, #221, .F.);
#221 = EDGE_CURVE('', #199, #215, #222, .T.);
#222 = B_SPLINE_CURVE_WITH_KNOTS('', 1, (#223, #224), .UNSPECIFIED., .F., .U., (2, 2), (0., 8.), .UNSPECIFIED.);
#223 = CARTESIAN_POINT('', (46., 4., -4.));
#224 = CARTESIAN_POINT('', (54., 4., -4.));
#225 = B_SPLINE_SURFACE_WITH_KNOTS('', 1, 1, ((#226, #227), (#228, #229)), .UNSPECIFIED., .F., .F., .U., (2, 2), (2, 2), (0., 8.), (0., 8.), .UNSPECIFIED.);
#226 = CARTESIAN_POINT('', (46., 4., -4.));
#227 = CARTESIAN_POINT('', (54., 4., -4.));
#228 = CARTESIAN_POINT('', (46., 4., 4.));
#229 = CARTESIAN_POINT('', (54., 4., 4.));
#230 = ADVANCED_FACE('', (#231), #253, .T.);
#231 = FACE_OUTER_BOUND('', #232, .T.);
#232 = EDGE_LOOP('', (#233, #240, #247, #252));
#233 = ORIENTED_EDGE('', *, *, #234, .F.);
#234 = EDGE_CURVE('', #235, #201, #237, .T.);
#235 = VERTEX_POINT('', #236);
#236 = CARTESIAN_POINT('', (46., -4., 4.));
#237 = B_SPLINE_CURVE_WITH_KNOTS('', 1, (#238, #239), .UNSPECIFIED., .F., .U., (2, 2), (0., 8.), .UNSPECIFIED.);
#238 = CARTESIAN_POINT('', (46., -4., 4.));
#239 = CARTESIAN_POINT('', (46., 4., 4.));
#240 = ORIENTED_EDGE('', *, *, #241, .T.);
#241 = EDGE_CURVE('', #235, #242, #244, .T.);
#242 = VERTEX_POINT('', #243);
#243 = CARTESIAN_POINT('', (54., -4., 4.));
#244 = B_SPLINE_CURVE_WITH_KNOTS('', 1, (#245, #246), .UNSPECIFIED., .F., .U., (2, 2), (0., 8.), .UNSPECIFIED.);
#245 = CARTESIAN_POINT('', (46., -4., 4.));
#246 = CARTESIAN_POINT('', (54., -4., 4.));
#247 = ORIENTED_EDGE('', *, *, #248, .T.);
#248 = EDGE_CURVE('', #242, #208, #249, .T.);
#249 = B_SPLINE_CURVE_WITH_KNOTS('', 1, (#250, #251), .UNSPECIFIED., .F., .U., (2, 2), (0., 8.), .UNSPECIFIED.);
#250 = CARTESIAN_POINT('', (54., -4., 4.));
#251 = CARTESIAN_POINT('', (54., 4., 4.));
#252 = ORIENTED_EDGE('', *, *, #207, .F.);
#253 = B_SPLINE_SURFACE_WITH_KNOTS('', 1, 1, ((#254, #255), (#256, #257)), .UNSPECIFIED., .F., .F., .U., (2, 2), (2, 2), (0., 8.), (0., 8.), .UNSPECIFIED.);
#254 = CARTESIAN_POINT('', (46., -4., 4.));
#255 = CARTESIAN_POINT('', (46., 4., 4.));
#256 = CARTESIAN_POINT('', (54., -4., 4.));
#257 = CARTESIAN_POINT('', (54., 4., 4.));
#258 = ADVANCED_FACE('', (#259), #281, .T.);
#259 = FACE_OUTER_BOUND('', #260, .T.);
#260 = EDGE_LOOP('', (#261, #268, #275, #280));
#261 = ORIENTED_EDGE('', *, *, #262, .F.);
#262 = EDGE_CURVE('', #263, #235, #265, .T.);
#263 = VERTEX_POINT('', #264);
#264 = CARTESIAN_POINT('', (46., -4., -4.));
#265 = B_SPLINE_CURVE_WITH_KNOTS('', 1, (#266, #267), .UNSPECIFIED., .F., .U., (2, 2), (0., 8.), .UNSPECIFIED.);
#266 = CARTESIAN_POINT('', (46., -4., -4.));
#267 = CARTESIAN_POINT('', (46., -4., 4.));
#268 = ORIENTED_EDGE('', *, *, #269, .T.);
#269 = EDGE_CURVE('', #263, #270, #272, .T.);
#270 = VERTEX_POINT('', #271);
#271 = CARTESIAN_POINT('', (54., -4., -4.));
#272 = B_SPLINE_CURVE_WITH_KNOTS('', 1, (#273, #274), .UNSPECIFIED., .F., .U., (2, 2), (0., 8.), .UNSPECIFIED.);
#273 = CARTESIAN_POINT('', (46., -4., -4.));
#274 = CARTESIAN_POINT('', (54., -4., -4.));
#275 = ORIENTED_EDGE('', *, *, #276, .T.);
#276 = EDGE_CURVE('', #270, #242, #277, .T.);
#277 = B_SPLINE_CURVE_WITH_KNOTS('', 1, (#278, #279), .UNSPECIFIED., .F., .U., (2, 2), (0., 8.), .UNSPECIFIED.);
#278 = CARTESIAN_POINT('', (54., -4., -4.));
#279 = CARTESIAN_POINT('', (54., -4., 4.));
#280 = ORIENTED_EDGE('', *, *, #241, .F.);
#281 = B_SPLINE_SURFACE_WITH_KNOTS('', 1, 1, ((#282, #283), (#284, #285)), .UNSPECIFIED., .F., .F., .U., (2, 2), (2, 2), (0., 8.), (0., 8.), .UNSPECIFIED.);
#282 = CARTESIAN_POINT('', (46., -4., -4.));
#283 = CARTESIAN_POINT('', (46., -4., 4.));
#284 = CARTESIAN_POINT('', (54., -4., -4.));
#285 = CARTESIAN_POINT('', (54., -4., 4.));
#286 = ADVANCED_FACE('', (#287), #301, .T.);
#287 = FACE_OUTER_BOUND('', #288, .T.);
#288 = EDGE_LOOP('', (#289, #294, #295, #300));
#289 = ORIENTED_EDGE('', *, *, #290, .T.);
#290 = EDGE_CURVE('', #263, #199, #291, .T.);
#291 = B_SPLINE_CURVE_WITH_KNOTS('', 1, (#292, #293), .UNSPECIFIED., .F., .U., (2, 2), (0., 8.), .UNSPECIFIED.);
#292 = CARTESIAN_POINT('', (46., -4., -4.));
#293 = CARTESIAN_POINT('', (46., 4., -4.));
#294 = ORIENTED_EDGE('', *, *, #221, .T.);
#295 = ORIENTED_EDGE('', *, *, #296, .F.);
#296 = EDGE_CURVE('', #270, #215, #297, .T.);
#297 = B_SPLINE_CURVE_WITH_KNOTS('', 1, (#298, #299), .UNSPECIFIED., .F., .U., (2, 2), (0., 8.), .UNSPECIFIED.);
#298 = CARTESIAN_POINT('', (54., -4., -4.));
#299 = CARTESIAN_POINT('', (54., 4., -4.));
#300 = ORIENTED_EDGE('', *, *, #269, .F.);
#301 = B_SPLINE_SURFACE_WITH_KNOTS('', 1, 1, ((#302, #303), (#304, #305)), .UNSPECIFIED., .F., .F., .U., (2, 2), (2, 2), (0., 8.), (0., 8.), .UNSPECIFIED.);
#302 = CARTESIAN_POINT('', (46., -4., -4.));
#303 = CARTESIAN_POINT('', (54., -4., -4.));
#304 = CARTESIAN_POINT('', (46., 4., -4.));
#305 = CARTESIAN_POINT('', (54., 4., -4.));
#306 = ADVANCED_FACE('', (#307), #313, .T.);
#307 = FACE_OUTER_BOUND('', #308, .T.);
#308 = EDGE_LOOP('', (#309, #310, #311, #312));
#309 = ORIENTED_EDGE('', *, *, #276, .F.);
#310 = ORIENTED_EDGE('', *, *, #296, .T.);
#311 = ORIENTED_EDGE('', *, *, #214, .T.);
#312 = ORIENTED_EDGE('', *, *, #248, .F.);
#313 = B_SPLINE_SURFACE_WITH_KNOTS('', 1, 1, ((#314, #315), (#316, #317)), .UNSPECIFIED., .F., .F., .U., (2, 2), (2, 2), (0., 8.), (0., 8.), .UNSPECIFIED.);
#314 = CARTESIAN_POINT('', (54., -4., -4.));
#315 = CARTESIAN_POINT('', (54., -4., 4.));
#316 = CARTESIAN_POINT('', (54., 4., -4.));
#317 = CARTESIAN_POINT('', (54., 4., 4.));
#318 = ADVANCED_FACE('', (#319), #325, .T.);
#319 = FACE_OUTER_BOUND('', #320, .T.);
#320 = EDGE_LOOP('', (#321, #322, #323, #324));
#321 = ORIENTED_EDGE('', *, *, #262, .T.);
#322 = ORIENTED_EDGE('', *, *, #234, .T.);
#323 = ORIENTED_EDGE('', *, *, #198, .F.);
#324 = ORIENTED_EDGE('', *, *, #290, .F.);
#325 = B_SPLINE_SURFACE_WITH_KNOTS('', 1, 1, ((#326, #327), (#328, #329)), .UNSPECIFIED., .F., .F., .U., (2, 2), (2, 2), (0., 8.), (0., 8.), .UNSPECIFIED.);
#326 = CARTESIAN_POINT('', (46., -4., -4.));
#327 = CARTESIAN_POINT('', (46., 4., -4.));
#328 = CARTESIAN_POINT('', (46., -4., 4.));
#329 = CARTESIAN_POINT('', (46., 4., 4.));
#330 = PRESENTATION_STYLE_ASSIGNMENT((#331));
#331 = SURFACE_STYLE_USAGE(.POSITIVE., #332);
#332 = SURFACE_SIDE_STYLE('', (#333));
#333 = SURFACE_STYLE_FILL_AREA(#334);
#334 = FILL_AREA_STYLE('', (#335));
#335 = FILL_AREA_STYLE_COLOUR('', #336);
#336 = COLOUR_RGB('', 0.50196078431373, 0.50196078431373, 0.50196078431373);
#337 = STYLED_ITEM('', (#330), #192);
#338 = CARTESIAN_POINT('Origin', (0., 0., 0.));
#339 = GEOMETRIC_SET('', (#338));
#340 = (
   GEOMETRIC_REPRESENTATION_CONTEXT (3)
   GLOBAL_UNCERTAINTY_ASSIGNED_CONTEXT ((#342))
   GLOBAL_UNIT_ASSIGNED_CONTEXT ((#341, #343, #344))
   REPRESENTATION_CONTEXT ('', '3D')
);
#341 = (
   LENGTH_UNIT ()
   NAMED_UNIT (*)
   SI_UNIT (.MILLI., .METRE.)
);
#342 = UNCERTAINTY_MEASURE_WITH_UNIT(LENGTH_MEASURE(1.E-6), #341, 'DISTANCE_ACCURACY_VALUE', '');
#343 = (
   NAMED_UNIT (*)
   SI_UNIT ($, .STERADIAN.)
   SOLID_ANGLE_UNIT ()
);
#344 = (
   NAMED_UNIT (*)
   PLANE_ANGLE_UNIT ()
   SI_UNIT ($, .RADIAN.)
);
#345 = SHAPE_REPRESENTATION('', (#360), #340);
#346 = PRODUCT_DEFINITION_SHAPE('', '', #347);
#347 = PRODUCT_DEFINITION('', '', #350, #354);
#348 = APPLICATION_CONTEXT('configuration controlled 3D designs of mechanical parts and assemblies');
#349 = APPLICATION_PROTOCOL_DEFINITION('International Standard', 'automotive_design', 2002, #348);
#350 = PRODUCT_DEFINITION_FORMATION_WITH_SPECIFIED_SOURCE('', '', #351, .NOT_KNOWN.);
#351 = PRODUCT('CylOffset', 'CylOffset', '', (#352));
#352 = PRODUCT_CONTEXT('', #348, 'mechanical');
#353 = PRODUCT_RELATED_PRODUCT_CATEGORY('detail', '', (#351));
#354 = PRODUCT_DEFINITION_CONTEXT('part definition', #348, 'design');
#355 = SHAPE_DEFINITION_REPRESENTATION(#346, #345);
#356 = SHAPE_REPRESENTATION_RELATIONSHIP('', '', #345, #357);
#357 = SHAPE_REPRESENTATION('', (#339), #340);
#358 = SHAPE_REPRESENTATION_RELATIONSHIP('', '', #345, #359);
#359 = ADVANCED_BREP_SHAPE_REPRESENTATION('', (#1, #192), #340);
#360 = AXIS2_PLACEMENT_3D('', #361, #362, #363);
#361 = CARTESIAN_POINT('', (0., 0., 0.));
#362 = DIRECTION('', (0., 0., 1.));
#363 = DIRECTION('', (1., 0., 0.));
ENDSEC;
END-ISO-10303-21;
