ISO-10303-21;
HEADER;
FILE_DESCRIPTION(('STEP'), '1');
FILE_NAME('ConeOffset', '2026-04-15T12:13:19', (''), (''), 'Express 3.1.2.0', 'Express Tool', 'Unknown');
FILE_SCHEMA(('AUTOMOTIVE_DESIGN'));
ENDSEC;

DATA;
#1 = MANIFOLD_SOLID_BREP('Solid', #2);
#2 = CLOSED_SHELL('', (#3, #69, #112, #185, #194));
#3 = ADVANCED_FACE('', (#4), #41, .F.);
#4 = FACE_OUTER_BOUND('', #5, .F.);
#5 = EDGE_LOOP('', (#6, #16, #28, #29));
#6 = ORIENTED_EDGE('', *, *, #7, .F.);
#7 = EDGE_CURVE('', #8, #10, #12, .T.);
#8 = VERTEX_POINT('', #9);
#9 = CARTESIAN_POINT('', (5., -3.5527136788005E-15, 25.));
#10 = VERTEX_POINT('', #11);
#11 = CARTESIAN_POINT('', (9.68164588784522, -1.8192589602225E-30, 21.755617207942));
#12 = (
   BOUNDED_CURVE ()
   B_SPLINE_CURVE (2, (#13, #14, #15), .UNSPECIFIED., .F., .U.)
   B_SPLINE_CURVE_WITH_KNOTS ((3, 3), (0., 1.), .UNSPECIFIED.)
   CURVE ()
   GEOMETRIC_REPRESENTATION_ITEM ()
   RATIONAL_B_SPLINE_CURVE ((1., 0.821925617555625, 1.))
   REPRESENTATION_ITEM ('')
);
#13 = CARTESIAN_POINT('', (5., -3.5527136788005E-15, 25.));
#14 = CARTESIAN_POINT('', (8.46500234082345, -2.62945158780156E-15, 25.));
#15 = CARTESIAN_POINT('', (9.68164588784522, -1.8192589602225E-30, 21.755617207942));
#16 = ORIENTED_EDGE('', *, *, #17, .T.);
#17 = EDGE_CURVE('', #8, #8, #18, .T.);
#18 = (
   BOUNDED_CURVE ()
   B_SPLINE_CURVE (2, (#19, #20, #21, #22, #23, #24, #25, #26, #27), .UNSPECIFIED., .T., .U.)
   B_SPLINE_CURVE_WITH_KNOTS ((3, 2, 2, 2, 3), (0., 0.25, 0.5, 0.75, 1.), .UNSPECIFIED.)
   CURVE ()
   GEOMETRIC_REPRESENTATION_ITEM ()
   RATIONAL_B_SPLINE_CURVE ((1., 0.707106781186548, 1., 0.707106781186548, 1., 0.707106781186548, 1., 0.707106781186548, 1.))
   REPRESENTATION_ITEM ('')
);
#19 = CARTESIAN_POINT('', (5., -3.5527136788005E-15, 25.));
#20 = CARTESIAN_POINT('', (5., 5., 25.));
#21 = CARTESIAN_POINT('', (3.09559704915754E-15, 5., 25.));
#22 = CARTESIAN_POINT('', (-5., 5., 25.));
#23 = CARTESIAN_POINT('', (-5., 3.49890326359908E-15, 25.));
#24 = CARTESIAN_POINT('', (-5., -5., 25.));
#25 = CARTESIAN_POINT('', (-4.56834329281572E-15, -5., 25.));
#26 = CARTESIAN_POINT('', (5., -5., 25.));
#27 = CARTESIAN_POINT('', (5., -3.5527136788005E-15, 25.));
#28 = ORIENTED_EDGE('', *, *, #7, .T.);
#29 = ORIENTED_EDGE('', *, *, #30, .F.);
#30 = EDGE_CURVE('', #10, #10, #31, .T.);
#31 = (
   BOUNDED_CURVE ()
   B_SPLINE_CURVE (2, (#32, #33, #34, #35, #36, #37, #38, #39, #40), .UNSPECIFIED., .T., .U.)
   B_SPLINE_CURVE_WITH_KNOTS ((3, 2, 2, 2, 3), (0., 0.25, 0.5, 0.75, 1.), .UNSPECIFIED.)
   CURVE ()
   GEOMETRIC_REPRESENTATION_ITEM ()
   RATIONAL_B_SPLINE_CURVE ((1., 0.707106781186548, 1., 0.707106781186548, 1., 0.707106781186548, 1., 0.707106781186548, 1.))
   REPRESENTATION_ITEM ('')
);
#32 = CARTESIAN_POINT('', (9.68164588784522, 0., 21.755617207942));
#33 = CARTESIAN_POINT('', (9.68164588784522, 9.68164588784522, 21.755617207942));
#34 = CARTESIAN_POINT('', (5.92829832351389E-16, 9.68164588784522, 21.755617207942));
#35 = CARTESIAN_POINT('', (-9.68164588784522, 9.68164588784522, 21.755617207942));
#36 = CARTESIAN_POINT('', (-9.68164588784522, 1.18565966470278E-15, 21.755617207942));
#37 = CARTESIAN_POINT('', (-9.68164588784522, -9.68164588784522, 21.755617207942));
#38 = CARTESIAN_POINT('', (-1.77848949705417E-15, -9.68164588784522, 21.755617207942));
#39 = CARTESIAN_POINT('', (9.68164588784522, -9.68164588784522, 21.755617207942));
#40 = CARTESIAN_POINT('', (9.68164588784522, 0., 21.755617207942));
#41 = (
   BOUNDED_SURFACE ()
   B_SPLINE_SURFACE (2, 2, ((#42, #43, #44), (#45, #46, #47), (#48, #49, #50), (#51, #52, #53), (#54, #55, #56), (#57, #58, #59), (#60, #61, #62), (#63, #64, #65), (#66, #67, #68)), .UNSPECIFIED., .T., .F., .U.)
   B_SPLINE_SURFACE_WITH_KNOTS ((3, 2, 2, 2, 3), (3, 3), (0., 0.25, 0.5, 0.75, 1.), (0., 1.), .UNSPECIFIED.)
   GEOMETRIC_REPRESENTATION_ITEM ()
   RATIONAL_B_SPLINE_SURFACE (((1., 0.821925617555625, 1.), (0.707106781186548, 0.581189177804524, 0.707106781186548), (1., 0.821925617555625, 1.), (0.707106781186548, 0.581189177804524, 0.707106781186548), (1., 0.821925617555625, 1.), (0.707106781186548, 0.581189177804524, 0.707106781186548), (1., 0.821925617555625, 1.), (0.707106781186548, 0.581189177804524, 0.707106781186548), (1., 0.821925617555625, 1.)))
   REPRESENTATION_ITEM ('')
   SURFACE ()
);
#42 = CARTESIAN_POINT('', (5., -3.5527136788005E-15, 25.));
#43 = CARTESIAN_POINT('', (8.46500234082345, -2.62945158780156E-15, 25.));
#44 = CARTESIAN_POINT('', (9.68164588784522, -1.8192589602225E-30, 21.755617207942));
#45 = CARTESIAN_POINT('', (5., 5., 25.));
#46 = CARTESIAN_POINT('', (8.46500234082346, 8.46500234082345, 25.));
#47 = CARTESIAN_POINT('', (9.68164588784523, 9.68164588784522, 21.755617207942));
#48 = CARTESIAN_POINT('', (3.09559704915754E-15, 5., 25.));
#49 = CARTESIAN_POINT('', (2.38450515944498E-15, 8.46500234082345, 25.));
#50 = CARTESIAN_POINT('', (7.67563373796277E-15, 9.68164588784523, 21.755617207942));
#51 = CARTESIAN_POINT('', (-5., 5., 25.));
#52 = CARTESIAN_POINT('', (-8.46500234082345, 8.46500234082346, 25.));
#53 = CARTESIAN_POINT('', (-9.68164588784521, 9.68164588784524, 21.755617207942));
#54 = CARTESIAN_POINT('', (-5., 3.49890326359908E-15, 25.));
#55 = CARTESIAN_POINT('', (-8.46500234082345, 2.99998157517289E-15, 25.));
#56 = CARTESIAN_POINT('', (-9.68164588784522, 1.621169032001E-14, 21.755617207942));
#57 = CARTESIAN_POINT('', (-5., -5., 25.));
#58 = CARTESIAN_POINT('', (-8.46500234082346, -8.46500234082345, 25.));
#59 = CARTESIAN_POINT('', (-9.68164588784523, -9.6816458878452, 21.7556172079419));
#60 = CARTESIAN_POINT('', (-4.56834329281572E-15, -5., 25.));
#61 = CARTESIAN_POINT('', (-4.2815918056759E-15, -8.46500234082345, 25.));
#62 = CARTESIAN_POINT('', (-9.72171624675003E-15, -9.68164588784521, 21.7556172079419));
#63 = CARTESIAN_POINT('', (5., -5., 25.));
#64 = CARTESIAN_POINT('', (8.46500234082345, -8.46500234082346, 25.));
#65 = CARTESIAN_POINT('', (9.68164588784521, -9.68164588784522, 21.7556172079419));
#66 = CARTESIAN_POINT('', (5., -3.5527136788005E-15, 25.));
#67 = CARTESIAN_POINT('', (8.46500234082345, -2.62945158780156E-15, 25.));
#68 = CARTESIAN_POINT('', (9.68164588784522, -1.8192589602225E-30, 21.755617207942));
#69 = ADVANCED_FACE('', (#70), #93, .T.);
#70 = FACE_OUTER_BOUND('', #71, .T.);
#71 = EDGE_LOOP('', (#72, #79, #91, #92));
#72 = ORIENTED_EDGE('', *, *, #73, .F.);
#73 = EDGE_CURVE('', #74, #10, #76, .T.);
#74 = VERTEX_POINT('', #75);
#75 = CARTESIAN_POINT('', (24.6816458878452, 2.86225436011507E-31, -18.244382792058));
#76 = B_SPLINE_CURVE_WITH_KNOTS('', 1, (#77, #78), .UNSPECIFIED., .F., .U., (2, 2), (0., 40.), .UNSPECIFIED.);
#77 = CARTESIAN_POINT('', (24.6816458878452, 0., -18.244382792058));
#78 = CARTESIAN_POINT('', (9.68164588784522, 0., 21.755617207942));
#79 = ORIENTED_EDGE('', *, *, #80, .T.);
#80 = EDGE_CURVE('', #74, #74, #81, .T.);
#81 = (
   BOUNDED_CURVE ()
   B_SPLINE_CURVE (2, (#82, #83, #84, #85, #86, #87, #88, #89, #90), .UNSPECIFIED., .T., .U.)
   B_SPLINE_CURVE_WITH_KNOTS ((3, 2, 2, 2, 3), (0., 0.25, 0.5, 0.75, 1.), .UNSPECIFIED.)
   CURVE ()
   GEOMETRIC_REPRESENTATION_ITEM ()
   RATIONAL_B_SPLINE_CURVE ((1., 0.707106781186548, 1., 0.707106781186548, 1., 0.707106781186548, 1., 0.707106781186548, 1.))
   REPRESENTATION_ITEM ('')
);
#82 = CARTESIAN_POINT('', (24.6816458878452, 0., -18.244382792058));
#83 = CARTESIAN_POINT('', (24.6816458878452, 24.6816458878452, -18.244382792058));
#84 = CARTESIAN_POINT('', (1.5113149317119E-15, 24.6816458878452, -18.244382792058));
#85 = CARTESIAN_POINT('', (-24.6816458878452, 24.6816458878452, -18.244382792058));
#86 = CARTESIAN_POINT('', (-24.6816458878452, 3.02262986342381E-15, -18.244382792058));
#87 = CARTESIAN_POINT('', (-24.6816458878452, -24.6816458878452, -18.244382792058));
#88 = CARTESIAN_POINT('', (-4.53394479513571E-15, -24.6816458878452, -18.244382792058));
#89 = CARTESIAN_POINT('', (24.6816458878452, -24.6816458878452, -18.244382792058));
#90 = CARTESIAN_POINT('', (24.6816458878452, 0., -18.244382792058));
#91 = ORIENTED_EDGE('', *, *, #73, .T.);
#92 = ORIENTED_EDGE('', *, *, #30, .F.);
#93 = (
   BOUNDED_SURFACE ()
   B_SPLINE_SURFACE (2, 1, ((#94, #95), (#96, #97), (#98, #99), (#100, #101), (#102, #103), (#104, #105), (#106, #107), (#108, #109), (#110, #111)), .UNSPECIFIED., .T., .F., .U.)
   B_SPLINE_SURFACE_WITH_KNOTS ((3, 2, 2, 2, 3), (2, 2), (0., 0.25, 0.5, 0.75, 1.), (0., 40.), .UNSPECIFIED.)
   GEOMETRIC_REPRESENTATION_ITEM ()
   RATIONAL_B_SPLINE_SURFACE (((1., 1.), (0.707106781186548, 0.707106781186548), (1., 1.), (0.707106781186548, 0.707106781186548), (1., 1.), (0.707106781186548, 0.707106781186548), (1., 1.), (0.707106781186548, 0.707106781186548), (1., 1.)))
   REPRESENTATION_ITEM ('')
   SURFACE ()
);
#94 = CARTESIAN_POINT('', (24.6816458878452, 0., -18.244382792058));
#95 = CARTESIAN_POINT('', (9.68164588784522, 0., 21.755617207942));
#96 = CARTESIAN_POINT('', (24.6816458878452, 24.6816458878452, -18.244382792058));
#97 = CARTESIAN_POINT('', (9.68164588784522, 9.68164588784522, 21.755617207942));
#98 = CARTESIAN_POINT('', (1.5113149317119E-15, 24.6816458878452, -18.244382792058));
#99 = CARTESIAN_POINT('', (5.92829832351389E-16, 9.68164588784522, 21.755617207942));
#100 = CARTESIAN_POINT('', (-24.6816458878452, 24.6816458878452, -18.244382792058));
#101 = CARTESIAN_POINT('', (-9.68164588784522, 9.68164588784522, 21.755617207942));
#102 = CARTESIAN_POINT('', (-24.6816458878452, 3.02262986342381E-15, -18.244382792058));
#103 = CARTESIAN_POINT('', (-9.68164588784522, 1.18565966470278E-15, 21.755617207942));
#104 = CARTESIAN_POINT('', (-24.6816458878452, -24.6816458878452, -18.244382792058));
#105 = CARTESIAN_POINT('', (-9.68164588784522, -9.68164588784522, 21.755617207942));
#106 = CARTESIAN_POINT('', (-4.53394479513571E-15, -24.6816458878452, -18.244382792058));
#107 = CARTESIAN_POINT('', (-1.77848949705417E-15, -9.68164588784522, 21.755617207942));
#108 = CARTESIAN_POINT('', (24.6816458878452, -24.6816458878452, -18.244382792058));
#109 = CARTESIAN_POINT('', (9.68164588784522, -9.68164588784522, 21.755617207942));
#110 = CARTESIAN_POINT('', (24.6816458878452, 0., -18.244382792058));
#111 = CARTESIAN_POINT('', (9.68164588784522, 0., 21.755617207942));
#112 = ADVANCED_FACE('', (#113), #139, .T.);
#113 = FACE_OUTER_BOUND('', #114, .T.);
#114 = EDGE_LOOP('', (#115, #125, #137, #138));
#115 = ORIENTED_EDGE('', *, *, #116, .F.);
#116 = EDGE_CURVE('', #117, #74, #119, .T.);
#117 = VERTEX_POINT('', #118);
#118 = CARTESIAN_POINT('', (20., 3.5527136788005E-15, -25.));
#119 = (
   BOUNDED_CURVE ()
   B_SPLINE_CURVE (2, (#120, #121, #122, #123, #124), .UNSPECIFIED., .F., .U.)
   B_SPLINE_CURVE_WITH_KNOTS ((3, 2, 3), (0., 0.5, 1.), .UNSPECIFIED.)
   CURVE ()
   GEOMETRIC_REPRESENTATION_ITEM ()
   RATIONAL_B_SPLINE_CURVE ((1., 0.885887926817665, 1., 0.885887926817665, 1.))
   REPRESENTATION_ITEM ('')
);
#120 = CARTESIAN_POINT('', (20., 3.5527136788005E-15, -25.));
#121 = CARTESIAN_POINT('', (22.618273193123, 4.25036180290387E-15, -25.));
#122 = CARTESIAN_POINT('', (24.1096280877781, 3.11863226566075E-15, -22.847974188813));
#123 = CARTESIAN_POINT('', (25.6009829824332, 1.98690272841764E-15, -20.695948377626));
#124 = CARTESIAN_POINT('', (24.6816458878452, 2.86225436011507E-31, -18.244382792058));
#125 = ORIENTED_EDGE('', *, *, #126, .T.);
#126 = EDGE_CURVE('', #117, #117, #127, .T.);
#127 = (
   BOUNDED_CURVE ()
   B_SPLINE_CURVE (2, (#128, #129, #130, #131, #132, #133, #134, #135, #136), .UNSPECIFIED., .T., .U.)
   B_SPLINE_CURVE_WITH_KNOTS ((3, 2, 2, 2, 3), (0., 0.25, 0.5, 0.75, 1.), .UNSPECIFIED.)
   CURVE ()
   GEOMETRIC_REPRESENTATION_ITEM ()
   RATIONAL_B_SPLINE_CURVE ((1., 0.707106781186548, 1., 0.707106781186548, 1., 0.707106781186548, 1., 0.707106781186548, 1.))
   REPRESENTATION_ITEM ('')
);
#128 = CARTESIAN_POINT('', (20., 3.5527136788005E-15, -25.));
#129 = CARTESIAN_POINT('', (20., 20., -25.));
#130 = CARTESIAN_POINT('', (2.8095722821597E-16, 20., -25.));
#131 = CARTESIAN_POINT('', (-20., 20., -25.));
#132 = CARTESIAN_POINT('', (-20., -4.6561337593063E-15, -25.));
#133 = CARTESIAN_POINT('', (-20., -20., -25.));
#134 = CARTESIAN_POINT('', (6.04051106802806E-15, -20., -25.));
#135 = CARTESIAN_POINT('', (20., -20., -25.));
#136 = CARTESIAN_POINT('', (20., 3.5527136788005E-15, -25.));
#137 = ORIENTED_EDGE('', *, *, #116, .T.);
#138 = ORIENTED_EDGE('', *, *, #80, .F.);
#139 = (
   BOUNDED_SURFACE ()
   B_SPLINE_SURFACE (2, 2, ((#140, #141, #142, #143, #144), (#145, #146, #147, #148, #149), (#150, #151, #152, #153, #154), (#155, #156, #157, #158, #159), (#160, #161, #162, #163, #164), (#165, #166, #167, #168, #169), (#170, #171, #172, #173, #174), (#175, #176, #177, #178, #179), (#180, #181, #182, #183, #184)), .UNSPECIFIED., .T., .F., .U.)
   B_SPLINE_SURFACE_WITH_KNOTS ((3, 2, 2, 2, 3), (3, 2, 3), (0., 0.25, 0.5, 0.75, 1.), (0., 0.5, 1.), .UNSPECIFIED.)
   GEOMETRIC_REPRESENTATION_ITEM ()
   RATIONAL_B_SPLINE_SURFACE (((1., 0.885887926817665, 1., 0.885887926817665, 1.), (0.707106781186548, 0.626417360424063, 0.707106781186548, 0.626417360424063, 0.707106781186548), (1., 0.885887926817665, 1., 0.885887926817665, 1.), (0.707106781186548, 0.626417360424063, 0.707106781186548, 0.626417360424063, 0.707106781186548), (1., 0.885887926817665, 1., 0.885887926817665, 1.), (0.707106781186548, 0.626417360424063, 0.707106781186548, 0.626417360424063, 0.707106781186548), (1., 0.885887926817665, 1., 0.885887926817665, 1.), (0.707106781186548, 0.626417360424063, 0.707106781186548, 0.626417360424063, 0.707106781186548), (1., 0.885887926817665, 1., 0.885887926817665, 1.)))
   REPRESENTATION_ITEM ('')
   SURFACE ()
);
#140 = CARTESIAN_POINT('', (20., 3.5527136788005E-15, -25.));
#141 = CARTESIAN_POINT('', (22.618273193123, 4.25036180290387E-15, -25.));
#142 = CARTESIAN_POINT('', (24.1096280877781, 3.11863226566075E-15, -22.847974188813));
#143 = CARTESIAN_POINT('', (25.6009829824332, 1.98690272841764E-15, -20.695948377626));
#144 = CARTESIAN_POINT('', (24.6816458878452, 2.86225436011507E-31, -18.244382792058));
#145 = CARTESIAN_POINT('', (20., 20., -25.));
#146 = CARTESIAN_POINT('', (22.618273193123, 22.618273193123, -25.));
#147 = CARTESIAN_POINT('', (24.1096280877781, 24.1096280877781, -22.847974188813));
#148 = CARTESIAN_POINT('', (25.6009829824332, 25.6009829824332, -20.695948377626));
#149 = CARTESIAN_POINT('', (24.6816458878452, 24.6816458878452, -18.2443827920581));
#150 = CARTESIAN_POINT('', (2.8095722821597E-16, 20., -25.));
#151 = CARTESIAN_POINT('', (-2.56367901624825E-16, 22.618273193123, -25.));
#152 = CARTESIAN_POINT('', (2.26777351784961E-15, 24.1096280877781, -22.847974188813));
#153 = CARTESIAN_POINT('', (4.79191493732404E-15, 25.6009829824332, -20.695948377626));
#154 = CARTESIAN_POINT('', (8.20471591179564E-15, 24.6816458878452, -18.2443827920581));
#155 = CARTESIAN_POINT('', (-20., 20., -25.));
#156 = CARTESIAN_POINT('', (-22.618273193123, 22.618273193123, -25.));
#157 = CARTESIAN_POINT('', (-24.1096280877781, 24.1096280877781, -22.847974188813));
#158 = CARTESIAN_POINT('', (-25.6009829824332, 25.6009829824332, -20.695948377626));
#159 = CARTESIAN_POINT('', (-24.6816458878452, 24.6816458878452, -18.2443827920581));
#160 = CARTESIAN_POINT('', (-20., -4.6561337593063E-15, -25.));
#161 = CARTESIAN_POINT('', (-22.618273193123, -5.03313589488452E-15, -25.));
#162 = CARTESIAN_POINT('', (-24.1096280877781, -1.11658259317877E-15, -22.847974188813));
#163 = CARTESIAN_POINT('', (-25.6009829824332, 2.79997070852699E-15, -20.695948377626));
#164 = CARTESIAN_POINT('', (-24.6816458878452, 7.63866992905254E-15, -18.244382792058));
#165 = CARTESIAN_POINT('', (-20., -20., -25.));
#166 = CARTESIAN_POINT('', (-22.618273193123, -22.618273193123, -25.));
#167 = CARTESIAN_POINT('', (-24.1096280877781, -24.1096280877781, -22.847974188813));
#168 = CARTESIAN_POINT('', (-25.6009829824332, -25.6009829824332, -20.695948377626));
#169 = CARTESIAN_POINT('', (-24.6816458878452, -24.6816458878452, -18.244382792058));
#170 = CARTESIAN_POINT('', (6.04051106802806E-15, -20., -25.));
#171 = CARTESIAN_POINT('', (6.25719020934371E-15, -22.618273193123, -25.));
#172 = CARTESIAN_POINT('', (3.55041049005607E-15, -24.1096280877781, -22.847974188813));
#173 = CARTESIAN_POINT('', (8.43630770768426E-16, -25.6009829824332, -20.695948377626));
#174 = CARTESIAN_POINT('', (-2.45658388068071E-15, -24.6816458878452, -18.244382792058));
#175 = CARTESIAN_POINT('', (20., -20., -25.));
#176 = CARTESIAN_POINT('', (22.618273193123, -22.618273193123, -25.));
#177 = CARTESIAN_POINT('', (24.1096280877781, -24.1096280877781, -22.847974188813));
#178 = CARTESIAN_POINT('', (25.6009829824332, -25.6009829824332, -20.695948377626));
#179 = CARTESIAN_POINT('', (24.6816458878452, -24.6816458878452, -18.244382792058));
#180 = CARTESIAN_POINT('', (20., 3.5527136788005E-15, -25.));
#181 = CARTESIAN_POINT('', (22.618273193123, 4.25036180290387E-15, -25.));
#182 = CARTESIAN_POINT('', (24.1096280877781, 3.11863226566075E-15, -22.847974188813));
#183 = CARTESIAN_POINT('', (25.6009829824332, 1.98690272841764E-15, -20.695948377626));
#184 = CARTESIAN_POINT('', (24.6816458878452, 2.86225436011507E-31, -18.244382792058));
#185 = ADVANCED_FACE('', (#186), #189, .T.);
#186 = FACE_OUTER_BOUND('', #187, .T.);
#187 = EDGE_LOOP('', (#188));
#188 = ORIENTED_EDGE('', *, *, #126, .F.);
#189 = B_SPLINE_SURFACE_WITH_KNOTS('', 1, 1, ((#190, #191), (#192, #193)), .UNSPECIFIED., .F., .F., .U., (2, 2), (2, 2), (0.178587826733387, 0.821412173266613), (0.178587826733388, 0.821412173266613), .UNSPECIFIED.);
#190 = CARTESIAN_POINT('', (20., -20., -25.));
#191 = CARTESIAN_POINT('', (20., 20., -25.));
#192 = CARTESIAN_POINT('', (-20., -20., -25.));
#193 = CARTESIAN_POINT('', (-20., 20., -25.));
#194 = ADVANCED_FACE('', (#195), #198, .T.);
#195 = FACE_OUTER_BOUND('', #196, .T.);
#196 = EDGE_LOOP('', (#197));
#197 = ORIENTED_EDGE('', *, *, #17, .T.);
#198 = B_SPLINE_SURFACE_WITH_KNOTS('', 1, 1, ((#199, #200), (#201, #202)), .UNSPECIFIED., .F., .F., .U., (2, 2), (2, 2), (0.178587826733388, 0.821412173266613), (0.178587826733387, 0.821412173266613), .UNSPECIFIED.);
#199 = CARTESIAN_POINT('', (5., -5.00000000000001, 25.));
#200 = CARTESIAN_POINT('', (-5., -5.00000000000001, 25.));
#201 = CARTESIAN_POINT('', (5., 5., 25.));
#202 = CARTESIAN_POINT('', (-5., 5., 25.));
#203 = DRAUGHTING_MODEL('', (#211, #357), #360);
#204 = PRESENTATION_STYLE_ASSIGNMENT((#205));
#205 = SURFACE_STYLE_USAGE(.POSITIVE., #206);
#206 = SURFACE_SIDE_STYLE('', (#207));
#207 = SURFACE_STYLE_FILL_AREA(#208);
#208 = FILL_AREA_STYLE('', (#209));
#209 = FILL_AREA_STYLE_COLOUR('', #210);
#210 = COLOUR_RGB('', 0.8, 0.8, 0.8);
#211 = STYLED_ITEM('', (#204), #1);
#212 = MANIFOLD_SOLID_BREP('Solid0', #213);
#213 = CLOSED_SHELL('', (#214, #250, #278, #306, #326, #338));
#214 = ADVANCED_FACE('', (#215), #245, .T.);
#215 = FACE_OUTER_BOUND('', #216, .T.);
#216 = EDGE_LOOP('', (#217, #226, #233, #240));
#217 = ORIENTED_EDGE('', *, *, #218, .T.);
#218 = EDGE_CURVE('', #219, #221, #223, .T.);
#219 = VERTEX_POINT('', #220);
#220 = CARTESIAN_POINT('', (46., 4., -4.));
#221 = VERTEX_POINT('', #222);
#222 = CARTESIAN_POINT('', (46., 4., 4.));
#223 = B_SPLINE_CURVE_WITH_KNOTS('', 1, (#224, #225), .UNSPECIFIED., .F., .U., (2, 2), (0., 8.), .UNSPECIFIED.);
#224 = CARTESIAN_POINT('', (46., 4., -4.));
#225 = CARTESIAN_POINT('', (46., 4., 4.));
#226 = ORIENTED_EDGE('', *, *, #227, .T.);
#227 = EDGE_CURVE('', #221, #228, #230, .T.);
#228 = VERTEX_POINT('', #229);
#229 = CARTESIAN_POINT('', (54., 4., 4.));
#230 = B_SPLINE_CURVE_WITH_KNOTS('', 1, (#231, #232), .UNSPECIFIED., .F., .U., (2, 2), (0., 8.), .UNSPECIFIED.);
#231 = CARTESIAN_POINT('', (46., 4., 4.));
#232 = CARTESIAN_POINT('', (54., 4., 4.));
#233 = ORIENTED_EDGE('', *, *, #234, .F.);
#234 = EDGE_CURVE('', #235, #228, #237, .T.);
#235 = VERTEX_POINT('', #236);
#236 = CARTESIAN_POINT('', (54., 4., -4.));
#237 = B_SPLINE_CURVE_WITH_KNOTS('', 1, (#238, #239), .UNSPECIFIED., .F., .U., (2, 2), (0., 8.), .UNSPECIFIED.);
#238 = CARTESIAN_POINT('', (54., 4., -4.));
#239 = CARTESIAN_POINT('', (54., 4., 4.));
#240 = ORIENTED_EDGE('', *, *, #241, .F.);
#241 = EDGE_CURVE('', #219, #235, #242, .T.);
#242 = B_SPLINE_CURVE_WITH_KNOTS('', 1, (#243, #244), .UNSPECIFIED., .F., .U., (2, 2), (0., 8.), .UNSPECIFIED.);
#243 = CARTESIAN_POINT('', (46., 4., -4.));
#244 = CARTESIAN_POINT('', (54., 4., -4.));
#245 = B_SPLINE_SURFACE_WITH_KNOTS('', 1, 1, ((#246, #247), (#248, #249)), .UNSPECIFIED., .F., .F., .U., (2, 2), (2, 2), (0., 8.), (0., 8.), .UNSPECIFIED.);
#246 = CARTESIAN_POINT('', (46., 4., -4.));
#247 = CARTESIAN_POINT('', (54., 4., -4.));
#248 = CARTESIAN_POINT('', (46., 4., 4.));
#249 = CARTESIAN_POINT('', (54., 4., 4.));
#250 = ADVANCED_FACE('', (#251), #273, .T.);
#251 = FACE_OUTER_BOUND('', #252, .T.);
#252 = EDGE_LOOP('', (#253, #260, #267, #272));
#253 = ORIENTED_EDGE('', *, *, #254, .F.);
#254 = EDGE_CURVE('', #255, #221, #257, .T.);
#255 = VERTEX_POINT('', #256);
#256 = CARTESIAN_POINT('', (46., -4., 4.));
#257 = B_SPLINE_CURVE_WITH_KNOTS('', 1, (#258, #259), .UNSPECIFIED., .F., .U., (2, 2), (0., 8.), .UNSPECIFIED.);
#258 = CARTESIAN_POINT('', (46., -4., 4.));
#259 = CARTESIAN_POINT('', (46., 4., 4.));
#260 = ORIENTED_EDGE('', *, *, #261, .T.);
#261 = EDGE_CURVE('', #255, #262, #264, .T.);
#262 = VERTEX_POINT('', #263);
#263 = CARTESIAN_POINT('', (54., -4., 4.));
#264 = B_SPLINE_CURVE_WITH_KNOTS('', 1, (#265, #266), .UNSPECIFIED., .F., .U., (2, 2), (0., 8.), .UNSPECIFIED.);
#265 = CARTESIAN_POINT('', (46., -4., 4.));
#266 = CARTESIAN_POINT('', (54., -4., 4.));
#267 = ORIENTED_EDGE('', *, *, #268, .T.);
#268 = EDGE_CURVE('', #262, #228, #269, .T.);
#269 = B_SPLINE_CURVE_WITH_KNOTS('', 1, (#270, #271), .UNSPECIFIED., .F., .U., (2, 2), (0., 8.), .UNSPECIFIED.);
#270 = CARTESIAN_POINT('', (54., -4., 4.));
#271 = CARTESIAN_POINT('', (54., 4., 4.));
#272 = ORIENTED_EDGE('', *, *, #227, .F.);
#273 = B_SPLINE_SURFACE_WITH_KNOTS('', 1, 1, ((#274, #275), (#276, #277)), .UNSPECIFIED., .F., .F., .U., (2, 2), (2, 2), (0., 8.), (0., 8.), .UNSPECIFIED.);
#274 = CARTESIAN_POINT('', (46., -4., 4.));
#275 = CARTESIAN_POINT('', (46., 4., 4.));
#276 = CARTESIAN_POINT('', (54., -4., 4.));
#277 = CARTESIAN_POINT('', (54., 4., 4.));
#278 = ADVANCED_FACE('', (#279), #301, .T.);
#279 = FACE_OUTER_BOUND('', #280, .T.);
#280 = EDGE_LOOP('', (#281, #288, #295, #300));
#281 = ORIENTED_EDGE('', *, *, #282, .F.);
#282 = EDGE_CURVE('', #283, #255, #285, .T.);
#283 = VERTEX_POINT('', #284);
#284 = CARTESIAN_POINT('', (46., -4., -4.));
#285 = B_SPLINE_CURVE_WITH_KNOTS('', 1, (#286, #287), .UNSPECIFIED., .F., .U., (2, 2), (0., 8.), .UNSPECIFIED.);
#286 = CARTESIAN_POINT('', (46., -4., -4.));
#287 = CARTESIAN_POINT('', (46., -4., 4.));
#288 = ORIENTED_EDGE('', *, *, #289, .T.);
#289 = EDGE_CURVE('', #283, #290, #292, .T.);
#290 = VERTEX_POINT('', #291);
#291 = CARTESIAN_POINT('', (54., -4., -4.));
#292 = B_SPLINE_CURVE_WITH_KNOTS('', 1, (#293, #294), .UNSPECIFIED., .F., .U., (2, 2), (0., 8.), .UNSPECIFIED.);
#293 = CARTESIAN_POINT('', (46., -4., -4.));
#294 = CARTESIAN_POINT('', (54., -4., -4.));
#295 = ORIENTED_EDGE('', *, *, #296, .T.);
#296 = EDGE_CURVE('', #290, #262, #297, .T.);
#297 = B_SPLINE_CURVE_WITH_KNOTS('', 1, (#298, #299), .UNSPECIFIED., .F., .U., (2, 2), (0., 8.), .UNSPECIFIED.);
#298 = CARTESIAN_POINT('', (54., -4., -4.));
#299 = CARTESIAN_POINT('', (54., -4., 4.));
#300 = ORIENTED_EDGE('', *, *, #261, .F.);
#301 = B_SPLINE_SURFACE_WITH_KNOTS('', 1, 1, ((#302, #303), (#304, #305)), .UNSPECIFIED., .F., .F., .U., (2, 2), (2, 2), (0., 8.), (0., 8.), .UNSPECIFIED.);
#302 = CARTESIAN_POINT('', (46., -4., -4.));
#303 = CARTESIAN_POINT('', (46., -4., 4.));
#304 = CARTESIAN_POINT('', (54., -4., -4.));
#305 = CARTESIAN_POINT('', (54., -4., 4.));
#306 = ADVANCED_FACE('', (#307), #321, .T.);
#307 = FACE_OUTER_BOUND('', #308, .T.);
#308 = EDGE_LOOP('', (#309, #314, #315, #320));
#309 = ORIENTED_EDGE('', *, *, #310, .T.);
#310 = EDGE_CURVE('', #283, #219, #311, .T.);
#311 = B_SPLINE_CURVE_WITH_KNOTS('', 1, (#312, #313), .UNSPECIFIED., .F., .U., (2, 2), (0., 8.), .UNSPECIFIED.);
#312 = CARTESIAN_POINT('', (46., -4., -4.));
#313 = CARTESIAN_POINT('', (46., 4., -4.));
#314 = ORIENTED_EDGE('', *, *, #241, .T.);
#315 = ORIENTED_EDGE('', *, *, #316, .F.);
#316 = EDGE_CURVE('', #290, #235, #317, .T.);
#317 = B_SPLINE_CURVE_WITH_KNOTS('', 1, (#318, #319), .UNSPECIFIED., .F., .U., (2, 2), (0., 8.), .UNSPECIFIED.);
#318 = CARTESIAN_POINT('', (54., -4., -4.));
#319 = CARTESIAN_POINT('', (54., 4., -4.));
#320 = ORIENTED_EDGE('', *, *, #289, .F.);
#321 = B_SPLINE_SURFACE_WITH_KNOTS('', 1, 1, ((#322, #323), (#324, #325)), .UNSPECIFIED., .F., .F., .U., (2, 2), (2, 2), (0., 8.), (0., 8.), .UNSPECIFIED.);
#322 = CARTESIAN_POINT('', (46., -4., -4.));
#323 = CARTESIAN_POINT('', (54., -4., -4.));
#324 = CARTESIAN_POINT('', (46., 4., -4.));
#325 = CARTESIAN_POINT('', (54., 4., -4.));
#326 = ADVANCED_FACE('', (#327), #333, .T.);
#327 = FACE_OUTER_BOUND('', #328, .T.);
#328 = EDGE_LOOP('', (#329, #330, #331, #332));
#329 = ORIENTED_EDGE('', *, *, #296, .F.);
#330 = ORIENTED_EDGE('', *, *, #316, .T.);
#331 = ORIENTED_EDGE('', *, *, #234, .T.);
#332 = ORIENTED_EDGE('', *, *, #268, .F.);
#333 = B_SPLINE_SURFACE_WITH_KNOTS('', 1, 1, ((#334, #335), (#336, #337)), .UNSPECIFIED., .F., .F., .U., (2, 2), (2, 2), (0., 8.), (0., 8.), .UNSPECIFIED.);
#334 = CARTESIAN_POINT('', (54., -4., -4.));
#335 = CARTESIAN_POINT('', (54., -4., 4.));
#336 = CARTESIAN_POINT('', (54., 4., -4.));
#337 = CARTESIAN_POINT('', (54., 4., 4.));
#338 = ADVANCED_FACE('', (#339), #345, .T.);
#339 = FACE_OUTER_BOUND('', #340, .T.);
#340 = EDGE_LOOP('', (#341, #342, #343, #344));
#341 = ORIENTED_EDGE('', *, *, #282, .T.);
#342 = ORIENTED_EDGE('', *, *, #254, .T.);
#343 = ORIENTED_EDGE('', *, *, #218, .F.);
#344 = ORIENTED_EDGE('', *, *, #310, .F.);
#345 = B_SPLINE_SURFACE_WITH_KNOTS('', 1, 1, ((#346, #347), (#348, #349)), .UNSPECIFIED., .F., .F., .U., (2, 2), (2, 2), (0., 8.), (0., 8.), .UNSPECIFIED.);
#346 = CARTESIAN_POINT('', (46., -4., -4.));
#347 = CARTESIAN_POINT('', (46., 4., -4.));
#348 = CARTESIAN_POINT('', (46., -4., 4.));
#349 = CARTESIAN_POINT('', (46., 4., 4.));
#350 = PRESENTATION_STYLE_ASSIGNMENT((#351));
#351 = SURFACE_STYLE_USAGE(.POSITIVE., #352);
#352 = SURFACE_SIDE_STYLE('', (#353));
#353 = SURFACE_STYLE_FILL_AREA(#354);
#354 = FILL_AREA_STYLE('', (#355));
#355 = FILL_AREA_STYLE_COLOUR('', #356);
#356 = COLOUR_RGB('', 0.50196078431373, 0.50196078431373, 0.50196078431373);
#357 = STYLED_ITEM('', (#350), #212);
#358 = CARTESIAN_POINT('Origin', (0., 0., 0.));
#359 = GEOMETRIC_SET('', (#358));
#360 = (
   GEOMETRIC_REPRESENTATION_CONTEXT (3)
   GLOBAL_UNCERTAINTY_ASSIGNED_CONTEXT ((#362))
   GLOBAL_UNIT_ASSIGNED_CONTEXT ((#361, #363, #364))
   REPRESENTATION_CONTEXT ('', '3D')
);
#361 = (
   LENGTH_UNIT ()
   NAMED_UNIT (*)
   SI_UNIT (.MILLI., .METRE.)
);
#362 = UNCERTAINTY_MEASURE_WITH_UNIT(LENGTH_MEASURE(1.E-6), #361, 'DISTANCE_ACCURACY_VALUE', '');
#363 = (
   NAMED_UNIT (*)
   SI_UNIT ($, .STERADIAN.)
   SOLID_ANGLE_UNIT ()
);
#364 = (
   NAMED_UNIT (*)
   PLANE_ANGLE_UNIT ()
   SI_UNIT ($, .RADIAN.)
);
#365 = SHAPE_REPRESENTATION('', (#380), #360);
#366 = PRODUCT_DEFINITION_SHAPE('', '', #367);
#367 = PRODUCT_DEFINITION('', '', #370, #374);
#368 = APPLICATION_CONTEXT('configuration controlled 3D designs of mechanical parts and assemblies');
#369 = APPLICATION_PROTOCOL_DEFINITION('International Standard', 'automotive_design', 2002, #368);
#370 = PRODUCT_DEFINITION_FORMATION_WITH_SPECIFIED_SOURCE('', '', #371, .NOT_KNOWN.);
#371 = PRODUCT('ConeOffset', 'ConeOffset', '', (#372));
#372 = PRODUCT_CONTEXT('', #368, 'mechanical');
#373 = PRODUCT_RELATED_PRODUCT_CATEGORY('detail', '', (#371));
#374 = PRODUCT_DEFINITION_CONTEXT('part definition', #368, 'design');
#375 = SHAPE_DEFINITION_REPRESENTATION(#366, #365);
#376 = SHAPE_REPRESENTATION_RELATIONSHIP('', '', #365, #377);
#377 = SHAPE_REPRESENTATION('', (#359), #360);
#378 = SHAPE_REPRESENTATION_RELATIONSHIP('', '', #365, #379);
#379 = ADVANCED_BREP_SHAPE_REPRESENTATION('', (#1, #212), #360);
#380 = AXIS2_PLACEMENT_3D('', #381, #382, #383);
#381 = CARTESIAN_POINT('', (0., 0., 0.));
#382 = DIRECTION('', (0., 0., 1.));
#383 = DIRECTION('', (1., 0., 0.));
ENDSEC;
END-ISO-10303-21;
