ISO-10303-21;
HEADER;
FILE_DESCRIPTION(('STEP'), '1');
FILE_NAME('BoolOffset', '2026-04-15T12:14:49', (''), (''), 'Express 3.1.2.0', 'Express Tool', 'Unknown');
FILE_SCHEMA(('AUTOMOTIVE_DESIGN'));
ENDSEC;

DATA;
#1 = MANIFOLD_SOLID_BREP('Solid', #2);
#2 = CLOSED_SHELL('', (#3, #46, #89, #125, #166, #207, #250, #293, #324, #367, #396, #439, #461, #492, #512, #534, #546, #572, #590, #616, #634, #654, #688, #706, #724, #744, #771, #785, #802, #816, #830, #844));
#3 = ADVANCED_FACE('', (#4), #30, .T.);
#4 = FACE_OUTER_BOUND('', #5, .T.);
#5 = EDGE_LOOP('', (#6, #16, #24));
#6 = ORIENTED_EDGE('', *, *, #7, .F.);
#7 = EDGE_CURVE('', #8, #10, #12, .T.);
#8 = VERTEX_POINT('', #9);
#9 = CARTESIAN_POINT('', (30., 12.5, 18.));
#10 = VERTEX_POINT('', #11);
#11 = CARTESIAN_POINT('', (30., 15.5, 15.));
#12 = (
   BOUNDED_CURVE ()
   B_SPLINE_CURVE (2, (#13, #14, #15), .UNSPECIFIED., .F., .U.)
   B_SPLINE_CURVE_WITH_KNOTS ((3, 3), (0., 1.), .UNSPECIFIED.)
   CURVE ()
   GEOMETRIC_REPRESENTATION_ITEM ()
   RATIONAL_B_SPLINE_CURVE ((1., 0.707106781186548, 1.))
   REPRESENTATION_ITEM ('')
);
#13 = CARTESIAN_POINT('', (30., 12.5, 18.));
#14 = CARTESIAN_POINT('', (30., 15.5, 18.));
#15 = CARTESIAN_POINT('', (30., 15.5, 15.));
#16 = ORIENTED_EDGE('', *, *, #17, .T.);
#17 = EDGE_CURVE('', #8, #18, #20, .T.);
#18 = VERTEX_POINT('', #19);
#19 = CARTESIAN_POINT('', (33., 12.5, 15.));
#20 = (
   BOUNDED_CURVE ()
   B_SPLINE_CURVE (2, (#21, #22, #23), .UNSPECIFIED., .F., .U.)
   B_SPLINE_CURVE_WITH_KNOTS ((3, 3), (0., 1.), .UNSPECIFIED.)
   CURVE ()
   GEOMETRIC_REPRESENTATION_ITEM ()
   RATIONAL_B_SPLINE_CURVE ((1., 0.707106781186548, 1.))
   REPRESENTATION_ITEM ('')
);
#21 = CARTESIAN_POINT('', (30., 12.5, 18.));
#22 = CARTESIAN_POINT('', (33., 12.5, 18.));
#23 = CARTESIAN_POINT('', (33., 12.5, 15.));
#24 = ORIENTED_EDGE('', *, *, #25, .F.);
#25 = EDGE_CURVE('', #10, #18, #26, .T.);
#26 = (
   BOUNDED_CURVE ()
   B_SPLINE_CURVE (2, (#27, #28, #29), .UNSPECIFIED., .F., .U.)
   B_SPLINE_CURVE_WITH_KNOTS ((3, 3), (0., 1.), .UNSPECIFIED.)
   CURVE ()
   GEOMETRIC_REPRESENTATION_ITEM ()
   RATIONAL_B_SPLINE_CURVE ((1., 0.707106781186547, 1.))
   REPRESENTATION_ITEM ('')
);
#27 = CARTESIAN_POINT('', (30., 15.5, 15.));
#28 = CARTESIAN_POINT('', (33., 15.5, 15.));
#29 = CARTESIAN_POINT('', (33., 12.5, 15.));
#30 = (
   BOUNDED_SURFACE ()
   B_SPLINE_SURFACE (2, 2, ((#31, #32, #33), (#34, #35, #36), (#37, #38, #39), (#40, #41, #42), (#43, #44, #45)), .UNSPECIFIED., .F., .F., .U.)
   B_SPLINE_SURFACE_WITH_KNOTS ((3, 2, 3), (3, 3), (0., 0.5, 1.), (0., 1.), .UNSPECIFIED.)
   GEOMETRIC_REPRESENTATION_ITEM ()
   RATIONAL_B_SPLINE_SURFACE (((1., 0.707106781186548, 1.), (0.908143173825081, 0.642154196499989, 0.908143173825081), (1., 0.707106781186548, 1.), (0.908143173825081, 0.642154196499989, 0.908143173825081), (1., 0.707106781186548, 1.)))
   REPRESENTATION_ITEM ('')
   SURFACE ()
);
#31 = CARTESIAN_POINT('', (30., 12.5, 18.));
#32 = CARTESIAN_POINT('', (30., 15.5, 18.));
#33 = CARTESIAN_POINT('', (30., 15.5, 15.));
#34 = CARTESIAN_POINT('', (30., 12.5, 18.));
#35 = CARTESIAN_POINT('', (31.383018943282, 15.5, 18.));
#36 = CARTESIAN_POINT('', (31.383018943282, 15.5, 15.));
#37 = CARTESIAN_POINT('', (30., 12.5, 18.));
#38 = CARTESIAN_POINT('', (32.2812178968001, 14.4483441449905, 18.));
#39 = CARTESIAN_POINT('', (32.2812178968001, 14.4483441449905, 15.));
#40 = CARTESIAN_POINT('', (30., 12.5, 18.));
#41 = CARTESIAN_POINT('', (33.1794168503182, 13.3966882899811, 18.));
#42 = CARTESIAN_POINT('', (33.1794168503182, 13.3966882899811, 15.));
#43 = CARTESIAN_POINT('', (30., 12.5, 18.));
#44 = CARTESIAN_POINT('', (32.9630650217854, 12.0306966048793, 18.));
#45 = CARTESIAN_POINT('', (32.9630650217854, 12.0306966048793, 15.));
#46 = ADVANCED_FACE('', (#47), #73, .F.);
#47 = FACE_OUTER_BOUND('', #48, .F.);
#48 = EDGE_LOOP('', (#49, #59, #67));
#49 = ORIENTED_EDGE('', *, *, #50, .F.);
#50 = EDGE_CURVE('', #51, #53, #55, .T.);
#51 = VERTEX_POINT('', #52);
#52 = CARTESIAN_POINT('', (25.5, 20., 15.));
#53 = VERTEX_POINT('', #54);
#54 = CARTESIAN_POINT('', (22.5, 23., 15.));
#55 = (
   BOUNDED_CURVE ()
   B_SPLINE_CURVE (2, (#56, #57, #58), .UNSPECIFIED., .F., .U.)
   B_SPLINE_CURVE_WITH_KNOTS ((3, 3), (0., 1.), .UNSPECIFIED.)
   CURVE ()
   GEOMETRIC_REPRESENTATION_ITEM ()
   RATIONAL_B_SPLINE_CURVE ((1., 0.707106781186546, 1.))
   REPRESENTATION_ITEM ('')
);
#56 = CARTESIAN_POINT('', (25.5, 20., 15.));
#57 = CARTESIAN_POINT('', (25.5, 23., 15.));
#58 = CARTESIAN_POINT('', (22.5, 23., 15.));
#59 = ORIENTED_EDGE('', *, *, #60, .F.);
#60 = EDGE_CURVE('', #61, #51, #63, .T.);
#61 = VERTEX_POINT('', #62);
#62 = CARTESIAN_POINT('', (22.5, 20., 18.));
#63 = (
   BOUNDED_CURVE ()
   B_SPLINE_CURVE (2, (#64, #65, #66), .UNSPECIFIED., .F., .U.)
   B_SPLINE_CURVE_WITH_KNOTS ((3, 3), (0., 1.), .UNSPECIFIED.)
   CURVE ()
   GEOMETRIC_REPRESENTATION_ITEM ()
   RATIONAL_B_SPLINE_CURVE ((1., 0.707106781186548, 1.))
   REPRESENTATION_ITEM ('')
);
#64 = CARTESIAN_POINT('', (22.5, 20., 18.));
#65 = CARTESIAN_POINT('', (25.5, 20., 18.));
#66 = CARTESIAN_POINT('', (25.5, 20., 15.));
#67 = ORIENTED_EDGE('', *, *, #68, .F.);
#68 = EDGE_CURVE('', #53, #61, #69, .T.);
#69 = (
   BOUNDED_CURVE ()
   B_SPLINE_CURVE (2, (#70, #71, #72), .UNSPECIFIED., .F., .U.)
   B_SPLINE_CURVE_WITH_KNOTS ((3, 3), (0., 1.), .UNSPECIFIED.)
   CURVE ()
   GEOMETRIC_REPRESENTATION_ITEM ()
   RATIONAL_B_SPLINE_CURVE ((1., 0.707106781186548, 1.))
   REPRESENTATION_ITEM ('')
);
#70 = CARTESIAN_POINT('', (22.5, 23., 15.));
#71 = CARTESIAN_POINT('', (22.5, 23., 18.));
#72 = CARTESIAN_POINT('', (22.5, 20., 18.));
#73 = (
   BOUNDED_SURFACE ()
   B_SPLINE_SURFACE (2, 2, ((#74, #75, #76), (#77, #78, #79), (#80, #81, #82), (#83, #84, #85), (#86, #87, #88)), .UNSPECIFIED., .F., .F., .U.)
   B_SPLINE_SURFACE_WITH_KNOTS ((3, 2, 3), (3, 3), (0., 0.5, 1.), (0., 1.), .UNSPECIFIED.)
   GEOMETRIC_REPRESENTATION_ITEM ()
   RATIONAL_B_SPLINE_SURFACE (((1., 0.707106781186546, 1.), (0.908143173825081, 0.642154196499987, 0.908143173825081), (1., 0.707106781186546, 1.), (0.908143173825081, 0.642154196499987, 0.908143173825081), (1., 0.707106781186546, 1.)))
   REPRESENTATION_ITEM ('')
   SURFACE ()
);
#74 = CARTESIAN_POINT('', (25.5, 20., 15.));
#75 = CARTESIAN_POINT('', (25.5, 23., 15.));
#76 = CARTESIAN_POINT('', (22.5, 23., 15.));
#77 = CARTESIAN_POINT('', (25.5, 20., 16.383018943282));
#78 = CARTESIAN_POINT('', (25.5, 23., 16.383018943282));
#79 = CARTESIAN_POINT('', (22.5, 23., 15.));
#80 = CARTESIAN_POINT('', (24.4483441449905, 20., 17.2812178968001));
#81 = CARTESIAN_POINT('', (24.4483441449906, 23., 17.2812178968001));
#82 = CARTESIAN_POINT('', (22.5, 23., 15.));
#83 = CARTESIAN_POINT('', (23.3966882899811, 20., 18.1794168503182));
#84 = CARTESIAN_POINT('', (23.3966882899811, 23., 18.1794168503182));
#85 = CARTESIAN_POINT('', (22.5, 23., 15.));
#86 = CARTESIAN_POINT('', (22.0306966048793, 20., 17.9630650217854));
#87 = CARTESIAN_POINT('', (22.0306966048793, 23., 17.9630650217854));
#88 = CARTESIAN_POINT('', (22.5, 23., 15.));
#89 = ADVANCED_FACE('', (#90), #118, .F.);
#90 = FACE_OUTER_BOUND('', #91, .F.);
#91 = EDGE_LOOP('', (#92, #99, #107, #112));
#92 = ORIENTED_EDGE('', *, *, #93, .F.);
#93 = EDGE_CURVE('', #94, #51, #96, .T.);
#94 = VERTEX_POINT('', #95);
#95 = CARTESIAN_POINT('', (25.5, 20., -15.));
#96 = B_SPLINE_CURVE_WITH_KNOTS('', 1, (#97, #98), .UNSPECIFIED., .F., .U., (2, 2), (0., 1.), .UNSPECIFIED.);
#97 = CARTESIAN_POINT('', (25.5, 20., -15.));
#98 = CARTESIAN_POINT('', (25.5, 20., 15.));
#99 = ORIENTED_EDGE('', *, *, #100, .T.);
#100 = EDGE_CURVE('', #94, #101, #103, .T.);
#101 = VERTEX_POINT('', #102);
#102 = CARTESIAN_POINT('', (30., 15.5, -15.));
#103 = (
   BOUNDED_CURVE ()
   B_SPLINE_CURVE (2, (#104, #105, #106), .UNSPECIFIED., .F., .U.)
   B_SPLINE_CURVE_WITH_KNOTS ((3, 3), (0., 1.), .UNSPECIFIED.)
   CURVE ()
   GEOMETRIC_REPRESENTATION_ITEM ()
   RATIONAL_B_SPLINE_CURVE ((1., 0.707106781186548, 1.))
   REPRESENTATION_ITEM ('')
);
#104 = CARTESIAN_POINT('', (25.5, 20., -15.));
#105 = CARTESIAN_POINT('', (25.5, 15.5, -15.));
#106 = CARTESIAN_POINT('', (30., 15.5, -15.));
#107 = ORIENTED_EDGE('', *, *, #108, .T.);
#108 = EDGE_CURVE('', #101, #10, #109, .T.);
#109 = B_SPLINE_CURVE_WITH_KNOTS('', 1, (#110, #111), .UNSPECIFIED., .F., .U., (2, 2), (0., 1.), .UNSPECIFIED.);
#110 = CARTESIAN_POINT('', (30., 15.5, -15.));
#111 = CARTESIAN_POINT('', (30., 15.5, 15.));
#112 = ORIENTED_EDGE('', *, *, #113, .F.);
#113 = EDGE_CURVE('', #51, #10, #114, .T.);
#114 = (
   BOUNDED_CURVE ()
   B_SPLINE_CURVE (2, (#115, #116, #117), .UNSPECIFIED., .F., .U.)
   B_SPLINE_CURVE_WITH_KNOTS ((3, 3), (0., 1.), .UNSPECIFIED.)
   CURVE ()
   GEOMETRIC_REPRESENTATION_ITEM ()
   RATIONAL_B_SPLINE_CURVE ((1., 0.707106781186548, 1.))
   REPRESENTATION_ITEM ('')
);
#115 = CARTESIAN_POINT('', (25.5, 20., 15.));
#116 = CARTESIAN_POINT('', (25.5, 15.5, 15.));
#117 = CARTESIAN_POINT('', (30., 15.5, 15.));
#118 = (
   BOUNDED_SURFACE ()
   B_SPLINE_SURFACE (2, 1, ((#119, #120), (#121, #122), (#123, #124)), .UNSPECIFIED., .F., .F., .U.)
   B_SPLINE_SURFACE_WITH_KNOTS ((3, 3), (2, 2), (23.5619449019234, 35.3429173528852), (15., 45.), .UNSPECIFIED.)
   GEOMETRIC_REPRESENTATION_ITEM ()
   RATIONAL_B_SPLINE_SURFACE (((1., 1.), (0.707106781186547, 0.707106781186547), (1., 1.)))
   REPRESENTATION_ITEM ('')
   SURFACE ()
);
#119 = CARTESIAN_POINT('', (25.5, 20., -15.));
#120 = CARTESIAN_POINT('', (25.5, 20., 15.));
#121 = CARTESIAN_POINT('', (25.5, 15.5, -15.));
#122 = CARTESIAN_POINT('', (25.5, 15.5, 15.));
#123 = CARTESIAN_POINT('', (30., 15.5, -15.));
#124 = CARTESIAN_POINT('', (30., 15.5, 15.));
#125 = ADVANCED_FACE('', (#126), #150, .T.);
#126 = FACE_OUTER_BOUND('', #127, .T.);
#127 = EDGE_LOOP('', (#128, #136, #144));
#128 = ORIENTED_EDGE('', *, *, #129, .F.);
#129 = EDGE_CURVE('', #94, #130, #132, .T.);
#130 = VERTEX_POINT('', #131);
#131 = CARTESIAN_POINT('', (22.5, 23., -15.));
#132 = (
   BOUNDED_CURVE ()
   B_SPLINE_CURVE (2, (#133, #134, #135), .UNSPECIFIED., .F., .U.)
   B_SPLINE_CURVE_WITH_KNOTS ((3, 3), (0., 1.), .UNSPECIFIED.)
   CURVE ()
   GEOMETRIC_REPRESENTATION_ITEM ()
   RATIONAL_B_SPLINE_CURVE ((1., 0.707106781186546, 1.))
   REPRESENTATION_ITEM ('')
);
#133 = CARTESIAN_POINT('', (25.5, 20., -15.));
#134 = CARTESIAN_POINT('', (25.5, 23., -15.));
#135 = CARTESIAN_POINT('', (22.5, 23., -15.));
#136 = ORIENTED_EDGE('', *, *, #137, .F.);
#137 = EDGE_CURVE('', #138, #94, #140, .T.);
#138 = VERTEX_POINT('', #139);
#139 = CARTESIAN_POINT('', (22.5, 20., -18.));
#140 = (
   BOUNDED_CURVE ()
   B_SPLINE_CURVE (2, (#141, #142, #143), .UNSPECIFIED., .F., .U.)
   B_SPLINE_CURVE_WITH_KNOTS ((3, 3), (0., 1.), .UNSPECIFIED.)
   CURVE ()
   GEOMETRIC_REPRESENTATION_ITEM ()
   RATIONAL_B_SPLINE_CURVE ((1., 0.707106781186548, 1.))
   REPRESENTATION_ITEM ('')
);
#141 = CARTESIAN_POINT('', (22.5, 20., -18.));
#142 = CARTESIAN_POINT('', (25.5, 20., -18.));
#143 = CARTESIAN_POINT('', (25.5, 20., -15.));
#144 = ORIENTED_EDGE('', *, *, #145, .F.);
#145 = EDGE_CURVE('', #130, #138, #146, .T.);
#146 = (
   BOUNDED_CURVE ()
   B_SPLINE_CURVE (2, (#147, #148, #149), .UNSPECIFIED., .F., .U.)
   B_SPLINE_CURVE_WITH_KNOTS ((3, 3), (0., 1.), .UNSPECIFIED.)
   CURVE ()
   GEOMETRIC_REPRESENTATION_ITEM ()
   RATIONAL_B_SPLINE_CURVE ((1., 0.707106781186548, 1.))
   REPRESENTATION_ITEM ('')
);
#147 = CARTESIAN_POINT('', (22.5, 23., -15.));
#148 = CARTESIAN_POINT('', (22.5, 23., -18.));
#149 = CARTESIAN_POINT('', (22.5, 20., -18.));
#150 = (
   BOUNDED_SURFACE ()
   B_SPLINE_SURFACE (2, 2, ((#151, #152, #153), (#154, #155, #156), (#157, #158, #159), (#160, #161, #162), (#163, #164, #165)), .UNSPECIFIED., .F., .F., .U.)
   B_SPLINE_SURFACE_WITH_KNOTS ((3, 2, 3), (3, 3), (0., 0.5, 1.), (0., 1.), .UNSPECIFIED.)
   GEOMETRIC_REPRESENTATION_ITEM ()
   RATIONAL_B_SPLINE_SURFACE (((1., 0.707106781186546, 1.), (0.908143173825081, 0.642154196499987, 0.908143173825081), (1., 0.707106781186546, 1.), (0.908143173825081, 0.642154196499987, 0.908143173825081), (1., 0.707106781186546, 1.)))
   REPRESENTATION_ITEM ('')
   SURFACE ()
);
#151 = CARTESIAN_POINT('', (25.5, 20., -15.));
#152 = CARTESIAN_POINT('', (25.5, 23., -15.));
#153 = CARTESIAN_POINT('', (22.5, 23., -15.));
#154 = CARTESIAN_POINT('', (25.5, 20., -16.383018943282));
#155 = CARTESIAN_POINT('', (25.5, 23., -16.383018943282));
#156 = CARTESIAN_POINT('', (22.5, 23., -15.));
#157 = CARTESIAN_POINT('', (24.4483441449905, 20., -17.2812178968001));
#158 = CARTESIAN_POINT('', (24.4483441449906, 23., -17.2812178968001));
#159 = CARTESIAN_POINT('', (22.5, 23., -15.));
#160 = CARTESIAN_POINT('', (23.3966882899811, 20., -18.1794168503182));
#161 = CARTESIAN_POINT('', (23.3966882899811, 23., -18.1794168503182));
#162 = CARTESIAN_POINT('', (22.5, 23., -15.));
#163 = CARTESIAN_POINT('', (22.0306966048793, 20., -17.9630650217854));
#164 = CARTESIAN_POINT('', (22.0306966048793, 23., -17.9630650217854));
#165 = CARTESIAN_POINT('', (22.5, 23., -15.));
#166 = ADVANCED_FACE('', (#167), #191, .F.);
#167 = FACE_OUTER_BOUND('', #168, .F.);
#168 = EDGE_LOOP('', (#169, #179, #185));
#169 = ORIENTED_EDGE('', *, *, #170, .F.);
#170 = EDGE_CURVE('', #171, #173, #175, .T.);
#171 = VERTEX_POINT('', #172);
#172 = CARTESIAN_POINT('', (33., 12.5, -15.));
#173 = VERTEX_POINT('', #174);
#174 = CARTESIAN_POINT('', (30., 12.5, -18.));
#175 = (
   BOUNDED_CURVE ()
   B_SPLINE_CURVE (2, (#176, #177, #178), .UNSPECIFIED., .F., .U.)
   B_SPLINE_CURVE_WITH_KNOTS ((3, 3), (0., 1.), .UNSPECIFIED.)
   CURVE ()
   GEOMETRIC_REPRESENTATION_ITEM ()
   RATIONAL_B_SPLINE_CURVE ((1., 0.707106781186546, 1.))
   REPRESENTATION_ITEM ('')
);
#176 = CARTESIAN_POINT('', (33., 12.5, -15.));
#177 = CARTESIAN_POINT('', (33., 12.5, -18.));
#178 = CARTESIAN_POINT('', (30., 12.5, -18.));
#179 = ORIENTED_EDGE('', *, *, #180, .F.);
#180 = EDGE_CURVE('', #101, #171, #181, .T.);
#181 = (
   BOUNDED_CURVE ()
   B_SPLINE_CURVE (2, (#182, #183, #184), .UNSPECIFIED., .F., .U.)
   B_SPLINE_CURVE_WITH_KNOTS ((3, 3), (0., 1.), .UNSPECIFIED.)
   CURVE ()
   GEOMETRIC_REPRESENTATION_ITEM ()
   RATIONAL_B_SPLINE_CURVE ((1., 0.707106781186547, 1.))
   REPRESENTATION_ITEM ('')
);
#182 = CARTESIAN_POINT('', (30., 15.5, -15.));
#183 = CARTESIAN_POINT('', (33., 15.5, -15.));
#184 = CARTESIAN_POINT('', (33., 12.5, -15.));
#185 = ORIENTED_EDGE('', *, *, #186, .F.);
#186 = EDGE_CURVE('', #173, #101, #187, .T.);
#187 = (
   BOUNDED_CURVE ()
   B_SPLINE_CURVE (2, (#188, #189, #190), .UNSPECIFIED., .F., .U.)
   B_SPLINE_CURVE_WITH_KNOTS ((3, 3), (0., 1.), .UNSPECIFIED.)
   CURVE ()
   GEOMETRIC_REPRESENTATION_ITEM ()
   RATIONAL_B_SPLINE_CURVE ((1., 0.707106781186548, 1.))
   REPRESENTATION_ITEM ('')
);
#188 = CARTESIAN_POINT('', (30., 12.5, -18.));
#189 = CARTESIAN_POINT('', (30., 15.5, -18.));
#190 = CARTESIAN_POINT('', (30., 15.5, -15.));
#191 = (
   BOUNDED_SURFACE ()
   B_SPLINE_SURFACE (2, 2, ((#192, #193, #194), (#195, #196, #197), (#198, #199, #200), (#201, #202, #203), (#204, #205, #206)), .UNSPECIFIED., .F., .F., .U.)
   B_SPLINE_SURFACE_WITH_KNOTS ((3, 2, 3), (3, 3), (0., 0.5, 1.), (0., 1.), .UNSPECIFIED.)
   GEOMETRIC_REPRESENTATION_ITEM ()
   RATIONAL_B_SPLINE_SURFACE (((1., 0.707106781186546, 1.), (0.908143173825081, 0.642154196499987, 0.908143173825081), (1., 0.707106781186546, 1.), (0.908143173825081, 0.642154196499987, 0.908143173825081), (1., 0.707106781186546, 1.)))
   REPRESENTATION_ITEM ('')
   SURFACE ()
);
#192 = CARTESIAN_POINT('', (33., 12.5, -15.));
#193 = CARTESIAN_POINT('', (33., 12.5, -18.));
#194 = CARTESIAN_POINT('', (30., 12.5, -18.));
#195 = CARTESIAN_POINT('', (33., 13.883018943282, -15.));
#196 = CARTESIAN_POINT('', (33., 13.883018943282, -18.));
#197 = CARTESIAN_POINT('', (30., 12.5, -18.));
#198 = CARTESIAN_POINT('', (31.9483441449905, 14.7812178968001, -15.));
#199 = CARTESIAN_POINT('', (31.9483441449905, 14.7812178968001, -18.));
#200 = CARTESIAN_POINT('', (30., 12.5, -18.));
#201 = CARTESIAN_POINT('', (30.8966882899811, 15.6794168503182, -15.));
#202 = CARTESIAN_POINT('', (30.8966882899811, 15.6794168503182, -18.));
#203 = CARTESIAN_POINT('', (30., 12.5, -18.));
#204 = CARTESIAN_POINT('', (29.5306966048793, 15.4630650217854, -15.));
#205 = CARTESIAN_POINT('', (29.5306966048793, 15.4630650217854, -18.));
#206 = CARTESIAN_POINT('', (30., 12.5, -18.));
#207 = ADVANCED_FACE('', (#208), #234, .F.);
#208 = FACE_OUTER_BOUND('', #209, .F.);
#209 = EDGE_LOOP('', (#210, #220, #228));
#210 = ORIENTED_EDGE('', *, *, #211, .F.);
#211 = EDGE_CURVE('', #212, #214, #216, .T.);
#212 = VERTEX_POINT('', #213);
#213 = CARTESIAN_POINT('', (30., -20., 18.));
#214 = VERTEX_POINT('', #215);
#215 = CARTESIAN_POINT('', (30., -23., 15.));
#216 = (
   BOUNDED_CURVE ()
   B_SPLINE_CURVE (2, (#217, #218, #219), .UNSPECIFIED., .F., .U.)
   B_SPLINE_CURVE_WITH_KNOTS ((3, 3), (0., 1.), .UNSPECIFIED.)
   CURVE ()
   GEOMETRIC_REPRESENTATION_ITEM ()
   RATIONAL_B_SPLINE_CURVE ((1., 0.707106781186547, 1.))
   REPRESENTATION_ITEM ('')
);
#217 = CARTESIAN_POINT('', (30., -20., 18.));
#218 = CARTESIAN_POINT('', (30., -23., 18.));
#219 = CARTESIAN_POINT('', (30., -23., 15.));
#220 = ORIENTED_EDGE('', *, *, #221, .T.);
#221 = EDGE_CURVE('', #212, #222, #224, .T.);
#222 = VERTEX_POINT('', #223);
#223 = CARTESIAN_POINT('', (33., -20., 15.));
#224 = (
   BOUNDED_CURVE ()
   B_SPLINE_CURVE (2, (#225, #226, #227), .UNSPECIFIED., .F., .U.)
   B_SPLINE_CURVE_WITH_KNOTS ((3, 3), (0., 1.), .UNSPECIFIED.)
   CURVE ()
   GEOMETRIC_REPRESENTATION_ITEM ()
   RATIONAL_B_SPLINE_CURVE ((1., 0.707106781186548, 1.))
   REPRESENTATION_ITEM ('')
);
#225 = CARTESIAN_POINT('', (30., -20., 18.));
#226 = CARTESIAN_POINT('', (33., -20., 18.));
#227 = CARTESIAN_POINT('', (33., -20., 15.));
#228 = ORIENTED_EDGE('', *, *, #229, .F.);
#229 = EDGE_CURVE('', #214, #222, #230, .T.);
#230 = (
   BOUNDED_CURVE ()
   B_SPLINE_CURVE (2, (#231, #232, #233), .UNSPECIFIED., .F., .U.)
   B_SPLINE_CURVE_WITH_KNOTS ((3, 3), (0., 1.), .UNSPECIFIED.)
   CURVE ()
   GEOMETRIC_REPRESENTATION_ITEM ()
   RATIONAL_B_SPLINE_CURVE ((1., 0.707106781186548, 1.))
   REPRESENTATION_ITEM ('')
);
#231 = CARTESIAN_POINT('', (30., -23., 15.));
#232 = CARTESIAN_POINT('', (33., -23., 15.));
#233 = CARTESIAN_POINT('', (33., -20., 15.));
#234 = (
   BOUNDED_SURFACE ()
   B_SPLINE_SURFACE (2, 2, ((#235, #236, #237), (#238, #239, #240), (#241, #242, #243), (#244, #245, #246), (#247, #248, #249)), .UNSPECIFIED., .F., .F., .U.)
   B_SPLINE_SURFACE_WITH_KNOTS ((3, 2, 3), (3, 3), (0., 0.5, 1.), (0., 1.), .UNSPECIFIED.)
   GEOMETRIC_REPRESENTATION_ITEM ()
   RATIONAL_B_SPLINE_SURFACE (((1., 0.707106781186547, 1.), (0.908143173825081, 0.642154196499988, 0.908143173825081), (1., 0.707106781186547, 1.), (0.908143173825081, 0.642154196499988, 0.908143173825081), (1., 0.707106781186547, 1.)))
   REPRESENTATION_ITEM ('')
   SURFACE ()
);
#235 = CARTESIAN_POINT('', (30., -20., 18.));
#236 = CARTESIAN_POINT('', (30., -23., 18.));
#237 = CARTESIAN_POINT('', (30., -23., 15.));
#238 = CARTESIAN_POINT('', (30., -20., 18.));
#239 = CARTESIAN_POINT('', (31.383018943282, -23., 18.));
#240 = CARTESIAN_POINT('', (31.383018943282, -23., 15.));
#241 = CARTESIAN_POINT('', (30., -20., 18.));
#242 = CARTESIAN_POINT('', (32.2812178968001, -21.9483441449905, 18.));
#243 = CARTESIAN_POINT('', (32.2812178968001, -21.9483441449905, 15.));
#244 = CARTESIAN_POINT('', (30., -20., 18.));
#245 = CARTESIAN_POINT('', (33.1794168503182, -20.8966882899811, 18.));
#246 = CARTESIAN_POINT('', (33.1794168503182, -20.8966882899811, 15.));
#247 = CARTESIAN_POINT('', (30., -20., 18.));
#248 = CARTESIAN_POINT('', (32.9630650217854, -19.5306966048793, 18.));
#249 = CARTESIAN_POINT('', (32.9630650217854, -19.5306966048793, 15.));
#250 = ADVANCED_FACE('', (#251), #277, .T.);
#251 = FACE_OUTER_BOUND('', #252, .T.);
#252 = EDGE_LOOP('', (#253, #263, #271));
#253 = ORIENTED_EDGE('', *, *, #254, .F.);
#254 = EDGE_CURVE('', #255, #257, #259, .T.);
#255 = VERTEX_POINT('', #256);
#256 = CARTESIAN_POINT('', (-33., 20., -15.));
#257 = VERTEX_POINT('', #258);
#258 = CARTESIAN_POINT('', (-30., 20., -18.));
#259 = (
   BOUNDED_CURVE ()
   B_SPLINE_CURVE (2, (#260, #261, #262), .UNSPECIFIED., .F., .U.)
   B_SPLINE_CURVE_WITH_KNOTS ((3, 3), (0., 1.), .UNSPECIFIED.)
   CURVE ()
   GEOMETRIC_REPRESENTATION_ITEM ()
   RATIONAL_B_SPLINE_CURVE ((1., 0.707106781186546, 1.))
   REPRESENTATION_ITEM ('')
);
#260 = CARTESIAN_POINT('', (-33., 20., -15.));
#261 = CARTESIAN_POINT('', (-33., 20., -18.));
#262 = CARTESIAN_POINT('', (-30., 20., -18.));
#263 = ORIENTED_EDGE('', *, *, #264, .F.);
#264 = EDGE_CURVE('', #265, #255, #267, .T.);
#265 = VERTEX_POINT('', #266);
#266 = CARTESIAN_POINT('', (-30., 23., -15.));
#267 = (
   BOUNDED_CURVE ()
   B_SPLINE_CURVE (2, (#268, #269, #270), .UNSPECIFIED., .F., .U.)
   B_SPLINE_CURVE_WITH_KNOTS ((3, 3), (0., 1.), .UNSPECIFIED.)
   CURVE ()
   GEOMETRIC_REPRESENTATION_ITEM ()
   RATIONAL_B_SPLINE_CURVE ((1., 0.707106781186548, 1.))
   REPRESENTATION_ITEM ('')
);
#268 = CARTESIAN_POINT('', (-30., 23., -15.));
#269 = CARTESIAN_POINT('', (-33., 23., -15.));
#270 = CARTESIAN_POINT('', (-33., 20., -15.));
#271 = ORIENTED_EDGE('', *, *, #272, .T.);
#272 = EDGE_CURVE('', #265, #257, #273, .T.);
#273 = (
   BOUNDED_CURVE ()
   B_SPLINE_CURVE (2, (#274, #275, #276), .UNSPECIFIED., .F., .U.)
   B_SPLINE_CURVE_WITH_KNOTS ((3, 3), (0., 1.), .UNSPECIFIED.)
   CURVE ()
   GEOMETRIC_REPRESENTATION_ITEM ()
   RATIONAL_B_SPLINE_CURVE ((1., 0.707106781186548, 1.))
   REPRESENTATION_ITEM ('')
);
#274 = CARTESIAN_POINT('', (-30., 23.0000000000001, -15.));
#275 = CARTESIAN_POINT('', (-30., 23.0000000000001, -18.));
#276 = CARTESIAN_POINT('', (-30., 20.0000000000001, -18.));
#277 = (
   BOUNDED_SURFACE ()
   B_SPLINE_SURFACE (2, 2, ((#278, #279, #280), (#281, #282, #283), (#284, #285, #286), (#287, #288, #289), (#290, #291, #292)), .UNSPECIFIED., .F., .F., .U.)
   B_SPLINE_SURFACE_WITH_KNOTS ((3, 2, 3), (3, 3), (0., 0.5, 1.), (0., 1.), .UNSPECIFIED.)
   GEOMETRIC_REPRESENTATION_ITEM ()
   RATIONAL_B_SPLINE_SURFACE (((1., 0.707106781186546, 1.), (0.908143173825081, 0.642154196499988, 0.908143173825081), (1., 0.707106781186546, 1.), (0.908143173825081, 0.642154196499988, 0.908143173825081), (1., 0.707106781186546, 1.)))
   REPRESENTATION_ITEM ('')
   SURFACE ()
);
#278 = CARTESIAN_POINT('', (-33., 20., -15.));
#279 = CARTESIAN_POINT('', (-33., 20., -18.));
#280 = CARTESIAN_POINT('', (-30., 20., -18.));
#281 = CARTESIAN_POINT('', (-33., 21.383018943282, -15.));
#282 = CARTESIAN_POINT('', (-33., 21.383018943282, -18.));
#283 = CARTESIAN_POINT('', (-30., 20., -18.));
#284 = CARTESIAN_POINT('', (-31.9483441449905, 22.2812178968001, -15.));
#285 = CARTESIAN_POINT('', (-31.9483441449906, 22.2812178968001, -18.));
#286 = CARTESIAN_POINT('', (-30., 20., -18.));
#287 = CARTESIAN_POINT('', (-30.8966882899811, 23.1794168503182, -15.));
#288 = CARTESIAN_POINT('', (-30.8966882899811, 23.1794168503182, -18.));
#289 = CARTESIAN_POINT('', (-30., 20., -18.));
#290 = CARTESIAN_POINT('', (-29.5306966048793, 22.9630650217854, -15.));
#291 = CARTESIAN_POINT('', (-29.5306966048793, 22.9630650217854, -18.));
#292 = CARTESIAN_POINT('', (-30., 20., -18.));
#293 = ADVANCED_FACE('', (#294), #317, .F.);
#294 = FACE_OUTER_BOUND('', #295, .F.);
#295 = EDGE_LOOP('', (#296, #297, #304, #312));
#296 = ORIENTED_EDGE('', *, *, #264, .F.);
#297 = ORIENTED_EDGE('', *, *, #298, .T.);
#298 = EDGE_CURVE('', #265, #299, #301, .T.);
#299 = VERTEX_POINT('', #300);
#300 = CARTESIAN_POINT('', (-30., 23., 15.));
#301 = B_SPLINE_CURVE_WITH_KNOTS('', 1, (#302, #303), .UNSPECIFIED., .F., .U., (2, 2), (0., 1.), .UNSPECIFIED.);
#302 = CARTESIAN_POINT('', (-30., 23., -15.));
#303 = CARTESIAN_POINT('', (-30., 23., 15.));
#304 = ORIENTED_EDGE('', *, *, #305, .T.);
#305 = EDGE_CURVE('', #299, #306, #308, .T.);
#306 = VERTEX_POINT('', #307);
#307 = CARTESIAN_POINT('', (-33., 20., 15.));
#308 = (
   BOUNDED_CURVE ()
   B_SPLINE_CURVE (2, (#309, #310, #311), .UNSPECIFIED., .F., .U.)
   B_SPLINE_CURVE_WITH_KNOTS ((3, 3), (0., 1.), .UNSPECIFIED.)
   CURVE ()
   GEOMETRIC_REPRESENTATION_ITEM ()
   RATIONAL_B_SPLINE_CURVE ((1., 0.707106781186548, 1.))
   REPRESENTATION_ITEM ('')
);
#309 = CARTESIAN_POINT('', (-30., 23., 15.));
#310 = CARTESIAN_POINT('', (-33., 23., 15.));
#311 = CARTESIAN_POINT('', (-33., 20., 15.));
#312 = ORIENTED_EDGE('', *, *, #313, .F.);
#313 = EDGE_CURVE('', #255, #306, #314, .T.);
#314 = B_SPLINE_CURVE_WITH_KNOTS('', 1, (#315, #316), .UNSPECIFIED., .F., .U., (2, 2), (0., 1.), .UNSPECIFIED.);
#315 = CARTESIAN_POINT('', (-33., 20., -15.));
#316 = CARTESIAN_POINT('', (-33., 20., 15.));
#317 = (
   BOUNDED_SURFACE ()
   B_SPLINE_SURFACE (1, 2, ((#318, #319, #320), (#321, #322, #323)), .UNSPECIFIED., .F., .F., .U.)
   B_SPLINE_SURFACE_WITH_KNOTS ((2, 2), (3, 3), (0., 1.), (0., 1.), .UNSPECIFIED.)
   GEOMETRIC_REPRESENTATION_ITEM ()
   RATIONAL_B_SPLINE_SURFACE (((1., 0.707106781186548, 1.), (1., 0.707106781186548, 1.)))
   REPRESENTATION_ITEM ('')
   SURFACE ()
);
#318 = CARTESIAN_POINT('', (-30., 23., -15.));
#319 = CARTESIAN_POINT('', (-33., 23., -15.));
#320 = CARTESIAN_POINT('', (-33., 20., -15.));
#321 = CARTESIAN_POINT('', (-30., 23., 15.));
#322 = CARTESIAN_POINT('', (-33., 23., 15.));
#323 = CARTESIAN_POINT('', (-33., 20., 15.));
#324 = ADVANCED_FACE('', (#325), #351, .T.);
#325 = FACE_OUTER_BOUND('', #326, .T.);
#326 = EDGE_LOOP('', (#327, #337, #345));
#327 = ORIENTED_EDGE('', *, *, #328, .F.);
#328 = EDGE_CURVE('', #329, #331, #333, .T.);
#329 = VERTEX_POINT('', #330);
#330 = CARTESIAN_POINT('', (-30., -20., 18.));
#331 = VERTEX_POINT('', #332);
#332 = CARTESIAN_POINT('', (-30., -23., 15.));
#333 = (
   BOUNDED_CURVE ()
   B_SPLINE_CURVE (2, (#334, #335, #336), .UNSPECIFIED., .F., .U.)
   B_SPLINE_CURVE_WITH_KNOTS ((3, 3), (0., 1.), .UNSPECIFIED.)
   CURVE ()
   GEOMETRIC_REPRESENTATION_ITEM ()
   RATIONAL_B_SPLINE_CURVE ((1., 0.707106781186547, 1.))
   REPRESENTATION_ITEM ('')
);
#334 = CARTESIAN_POINT('', (-30., -20., 18.));
#335 = CARTESIAN_POINT('', (-30., -23., 18.));
#336 = CARTESIAN_POINT('', (-30., -23., 15.));
#337 = ORIENTED_EDGE('', *, *, #338, .T.);
#338 = EDGE_CURVE('', #329, #339, #341, .T.);
#339 = VERTEX_POINT('', #340);
#340 = CARTESIAN_POINT('', (-33., -20., 15.));
#341 = (
   BOUNDED_CURVE ()
   B_SPLINE_CURVE (2, (#342, #343, #344), .UNSPECIFIED., .F., .U.)
   B_SPLINE_CURVE_WITH_KNOTS ((3, 3), (0., 1.), .UNSPECIFIED.)
   CURVE ()
   GEOMETRIC_REPRESENTATION_ITEM ()
   RATIONAL_B_SPLINE_CURVE ((1., 0.707106781186548, 1.))
   REPRESENTATION_ITEM ('')
);
#342 = CARTESIAN_POINT('', (-30., -20., 18.));
#343 = CARTESIAN_POINT('', (-33., -20., 18.));
#344 = CARTESIAN_POINT('', (-33., -20., 15.));
#345 = ORIENTED_EDGE('', *, *, #346, .F.);
#346 = EDGE_CURVE('', #331, #339, #347, .T.);
#347 = (
   BOUNDED_CURVE ()
   B_SPLINE_CURVE (2, (#348, #349, #350), .UNSPECIFIED., .F., .U.)
   B_SPLINE_CURVE_WITH_KNOTS ((3, 3), (0., 1.), .UNSPECIFIED.)
   CURVE ()
   GEOMETRIC_REPRESENTATION_ITEM ()
   RATIONAL_B_SPLINE_CURVE ((1., 0.707106781186548, 1.))
   REPRESENTATION_ITEM ('')
);
#348 = CARTESIAN_POINT('', (-30., -23., 15.));
#349 = CARTESIAN_POINT('', (-33., -23., 15.));
#350 = CARTESIAN_POINT('', (-33., -20., 15.));
#351 = (
   BOUNDED_SURFACE ()
   B_SPLINE_SURFACE (2, 2, ((#352, #353, #354), (#355, #356, #357), (#358, #359, #360), (#361, #362, #363), (#364, #365, #366)), .UNSPECIFIED., .F., .F., .U.)
   B_SPLINE_SURFACE_WITH_KNOTS ((3, 2, 3), (3, 3), (0., 0.5, 1.), (0., 1.), .UNSPECIFIED.)
   GEOMETRIC_REPRESENTATION_ITEM ()
   RATIONAL_B_SPLINE_SURFACE (((1., 0.707106781186547, 1.), (0.908143173825081, 0.642154196499988, 0.908143173825081), (1., 0.707106781186547, 1.), (0.908143173825081, 0.642154196499988, 0.908143173825081), (1., 0.707106781186547, 1.)))
   REPRESENTATION_ITEM ('')
   SURFACE ()
);
#352 = CARTESIAN_POINT('', (-30., -20., 18.));
#353 = CARTESIAN_POINT('', (-30., -23., 18.));
#354 = CARTESIAN_POINT('', (-30., -23., 15.));
#355 = CARTESIAN_POINT('', (-30., -20., 18.));
#356 = CARTESIAN_POINT('', (-31.383018943282, -23., 18.));
#357 = CARTESIAN_POINT('', (-31.383018943282, -23., 15.));
#358 = CARTESIAN_POINT('', (-30., -20., 18.));
#359 = CARTESIAN_POINT('', (-32.2812178968001, -21.9483441449905, 18.));
#360 = CARTESIAN_POINT('', (-32.2812178968001, -21.9483441449906, 15.));
#361 = CARTESIAN_POINT('', (-30., -20., 18.));
#362 = CARTESIAN_POINT('', (-33.1794168503182, -20.8966882899811, 18.));
#363 = CARTESIAN_POINT('', (-33.1794168503182, -20.8966882899811, 15.));
#364 = CARTESIAN_POINT('', (-30., -20., 18.));
#365 = CARTESIAN_POINT('', (-32.9630650217854, -19.5306966048793, 18.));
#366 = CARTESIAN_POINT('', (-32.9630650217854, -19.5306966048793, 15.));
#367 = ADVANCED_FACE('', (#368), #389, .T.);
#368 = FACE_OUTER_BOUND('', #369, .T.);
#369 = EDGE_LOOP('', (#370, #371, #378, #384));
#370 = ORIENTED_EDGE('', *, *, #338, .F.);
#371 = ORIENTED_EDGE('', *, *, #372, .T.);
#372 = EDGE_CURVE('', #329, #373, #375, .T.);
#373 = VERTEX_POINT('', #374);
#374 = CARTESIAN_POINT('', (-30., 20., 18.));
#375 = B_SPLINE_CURVE_WITH_KNOTS('', 1, (#376, #377), .UNSPECIFIED., .F., .U., (2, 2), (0., 1.), .UNSPECIFIED.);
#376 = CARTESIAN_POINT('', (-30., -20., 18.));
#377 = CARTESIAN_POINT('', (-30., 20., 18.));
#378 = ORIENTED_EDGE('', *, *, #379, .T.);
#379 = EDGE_CURVE('', #373, #306, #380, .T.);
#380 = (
   BOUNDED_CURVE ()
   B_SPLINE_CURVE (2, (#381, #382, #383), .UNSPECIFIED., .F., .U.)
   B_SPLINE_CURVE_WITH_KNOTS ((3, 3), (0., 1.), .UNSPECIFIED.)
   CURVE ()
   GEOMETRIC_REPRESENTATION_ITEM ()
   RATIONAL_B_SPLINE_CURVE ((1., 0.707106781186548, 1.))
   REPRESENTATION_ITEM ('')
);
#381 = CARTESIAN_POINT('', (-30., 20., 18.));
#382 = CARTESIAN_POINT('', (-33., 20., 18.));
#383 = CARTESIAN_POINT('', (-33., 20., 15.));
#384 = ORIENTED_EDGE('', *, *, #385, .F.);
#385 = EDGE_CURVE('', #339, #306, #386, .T.);
#386 = B_SPLINE_CURVE_WITH_KNOTS('', 1, (#387, #388), .UNSPECIFIED., .F., .U., (2, 2), (0., 1.), .UNSPECIFIED.);
#387 = CARTESIAN_POINT('', (-33., -20., 15.));
#388 = CARTESIAN_POINT('', (-33., 20., 15.));
#389 = (
   BOUNDED_SURFACE ()
   B_SPLINE_SURFACE (1, 2, ((#390, #391, #392), (#393, #394, #395)), .UNSPECIFIED., .F., .F., .U.)
   B_SPLINE_SURFACE_WITH_KNOTS ((2, 2), (3, 3), (0., 1.), (0., 1.), .UNSPECIFIED.)
   GEOMETRIC_REPRESENTATION_ITEM ()
   RATIONAL_B_SPLINE_SURFACE (((1., 0.707106781186548, 1.), (1., 0.707106781186548, 1.)))
   REPRESENTATION_ITEM ('')
   SURFACE ()
);
#390 = CARTESIAN_POINT('', (-30., -20., 18.));
#391 = CARTESIAN_POINT('', (-33., -20., 18.));
#392 = CARTESIAN_POINT('', (-33., -20., 15.));
#393 = CARTESIAN_POINT('', (-30., 20., 18.));
#394 = CARTESIAN_POINT('', (-33., 20., 18.));
#395 = CARTESIAN_POINT('', (-33., 20., 15.));
#396 = ADVANCED_FACE('', (#397), #423, .F.);
#397 = FACE_OUTER_BOUND('', #398, .F.);
#398 = EDGE_LOOP('', (#399, #409, #417));
#399 = ORIENTED_EDGE('', *, *, #400, .F.);
#400 = EDGE_CURVE('', #401, #403, #405, .T.);
#401 = VERTEX_POINT('', #402);
#402 = CARTESIAN_POINT('', (-33., -20., -15.));
#403 = VERTEX_POINT('', #404);
#404 = CARTESIAN_POINT('', (-30., -20., -18.));
#405 = (
   BOUNDED_CURVE ()
   B_SPLINE_CURVE (2, (#406, #407, #408), .UNSPECIFIED., .F., .U.)
   B_SPLINE_CURVE_WITH_KNOTS ((3, 3), (0., 1.), .UNSPECIFIED.)
   CURVE ()
   GEOMETRIC_REPRESENTATION_ITEM ()
   RATIONAL_B_SPLINE_CURVE ((1., 0.707106781186546, 1.))
   REPRESENTATION_ITEM ('')
);
#406 = CARTESIAN_POINT('', (-33., -20., -15.));
#407 = CARTESIAN_POINT('', (-33., -20., -18.));
#408 = CARTESIAN_POINT('', (-30., -20., -18.));
#409 = ORIENTED_EDGE('', *, *, #410, .F.);
#410 = EDGE_CURVE('', #411, #401, #413, .T.);
#411 = VERTEX_POINT('', #412);
#412 = CARTESIAN_POINT('', (-30., -23., -15.));
#413 = (
   BOUNDED_CURVE ()
   B_SPLINE_CURVE (2, (#414, #415, #416), .UNSPECIFIED., .F., .U.)
   B_SPLINE_CURVE_WITH_KNOTS ((3, 3), (0., 1.), .UNSPECIFIED.)
   CURVE ()
   GEOMETRIC_REPRESENTATION_ITEM ()
   RATIONAL_B_SPLINE_CURVE ((1., 0.707106781186548, 1.))
   REPRESENTATION_ITEM ('')
);
#414 = CARTESIAN_POINT('', (-30., -23., -15.));
#415 = CARTESIAN_POINT('', (-33., -23., -15.));
#416 = CARTESIAN_POINT('', (-33., -20., -15.));
#417 = ORIENTED_EDGE('', *, *, #418, .T.);
#418 = EDGE_CURVE('', #411, #403, #419, .T.);
#419 = (
   BOUNDED_CURVE ()
   B_SPLINE_CURVE (2, (#420, #421, #422), .UNSPECIFIED., .F., .U.)
   B_SPLINE_CURVE_WITH_KNOTS ((3, 3), (0., 1.), .UNSPECIFIED.)
   CURVE ()
   GEOMETRIC_REPRESENTATION_ITEM ()
   RATIONAL_B_SPLINE_CURVE ((1., 0.707106781186548, 1.))
   REPRESENTATION_ITEM ('')
);
#420 = CARTESIAN_POINT('', (-30., -23., -15.));
#421 = CARTESIAN_POINT('', (-30., -23., -18.));
#422 = CARTESIAN_POINT('', (-30., -20., -18.));
#423 = (
   BOUNDED_SURFACE ()
   B_SPLINE_SURFACE (2, 2, ((#424, #425, #426), (#427, #428, #429), (#430, #431, #432), (#433, #434, #435), (#436, #437, #438)), .UNSPECIFIED., .F., .F., .U.)
   B_SPLINE_SURFACE_WITH_KNOTS ((3, 2, 3), (3, 3), (0., 0.5, 1.), (0., 1.), .UNSPECIFIED.)
   GEOMETRIC_REPRESENTATION_ITEM ()
   RATIONAL_B_SPLINE_SURFACE (((1., 0.707106781186546, 1.), (0.908143173825081, 0.642154196499988, 0.908143173825081), (1., 0.707106781186546, 1.), (0.908143173825081, 0.642154196499988, 0.908143173825081), (1., 0.707106781186546, 1.)))
   REPRESENTATION_ITEM ('')
   SURFACE ()
);
#424 = CARTESIAN_POINT('', (-33., -20., -15.));
#425 = CARTESIAN_POINT('', (-33., -20., -18.));
#426 = CARTESIAN_POINT('', (-30., -20., -18.));
#427 = CARTESIAN_POINT('', (-33., -21.383018943282, -15.));
#428 = CARTESIAN_POINT('', (-33., -21.383018943282, -18.));
#429 = CARTESIAN_POINT('', (-30., -20., -18.));
#430 = CARTESIAN_POINT('', (-31.9483441449905, -22.2812178968001, -15.));
#431 = CARTESIAN_POINT('', (-31.9483441449906, -22.2812178968001, -18.));
#432 = CARTESIAN_POINT('', (-30., -20., -18.));
#433 = CARTESIAN_POINT('', (-30.8966882899811, -23.1794168503182, -15.));
#434 = CARTESIAN_POINT('', (-30.8966882899811, -23.1794168503182, -18.));
#435 = CARTESIAN_POINT('', (-30., -20., -18.));
#436 = CARTESIAN_POINT('', (-29.5306966048793, -22.9630650217854, -15.));
#437 = CARTESIAN_POINT('', (-29.5306966048793, -22.9630650217854, -18.));
#438 = CARTESIAN_POINT('', (-30., -20., -18.));
#439 = ADVANCED_FACE('', (#440), #454, .T.);
#440 = FACE_OUTER_BOUND('', #441, .T.);
#441 = EDGE_LOOP('', (#442, #443, #448, #449));
#442 = ORIENTED_EDGE('', *, *, #410, .F.);
#443 = ORIENTED_EDGE('', *, *, #444, .T.);
#444 = EDGE_CURVE('', #411, #331, #445, .T.);
#445 = B_SPLINE_CURVE_WITH_KNOTS('', 1, (#446, #447), .UNSPECIFIED., .F., .U., (2, 2), (0., 1.), .UNSPECIFIED.);
#446 = CARTESIAN_POINT('', (-30., -23., -15.));
#447 = CARTESIAN_POINT('', (-30., -23., 15.));
#448 = ORIENTED_EDGE('', *, *, #346, .T.);
#449 = ORIENTED_EDGE('', *, *, #450, .F.);
#450 = EDGE_CURVE('', #401, #339, #451, .T.);
#451 = B_SPLINE_CURVE_WITH_KNOTS('', 1, (#452, #453), .UNSPECIFIED., .F., .U., (2, 2), (0., 1.), .UNSPECIFIED.);
#452 = CARTESIAN_POINT('', (-33., -20., -15.));
#453 = CARTESIAN_POINT('', (-33., -20., 15.));
#454 = (
   BOUNDED_SURFACE ()
   B_SPLINE_SURFACE (1, 2, ((#455, #456, #457), (#458, #459, #460)), .UNSPECIFIED., .F., .F., .U.)
   B_SPLINE_SURFACE_WITH_KNOTS ((2, 2), (3, 3), (0., 1.), (0., 1.), .UNSPECIFIED.)
   GEOMETRIC_REPRESENTATION_ITEM ()
   RATIONAL_B_SPLINE_SURFACE (((1., 0.707106781186548, 1.), (1., 0.707106781186548, 1.)))
   REPRESENTATION_ITEM ('')
   SURFACE ()
);
#455 = CARTESIAN_POINT('', (-30., -23., -15.));
#456 = CARTESIAN_POINT('', (-33., -23., -15.));
#457 = CARTESIAN_POINT('', (-33., -20., -15.));
#458 = CARTESIAN_POINT('', (-30., -23., 15.));
#459 = CARTESIAN_POINT('', (-33., -23., 15.));
#460 = CARTESIAN_POINT('', (-33., -20., 15.));
#461 = ADVANCED_FACE('', (#462), #485, .F.);
#462 = FACE_OUTER_BOUND('', #463, .F.);
#463 = EDGE_LOOP('', (#464, #465, #472, #480));
#464 = ORIENTED_EDGE('', *, *, #418, .F.);
#465 = ORIENTED_EDGE('', *, *, #466, .T.);
#466 = EDGE_CURVE('', #411, #467, #469, .T.);
#467 = VERTEX_POINT('', #468);
#468 = CARTESIAN_POINT('', (30., -23., -15.));
#469 = B_SPLINE_CURVE_WITH_KNOTS('', 1, (#470, #471), .UNSPECIFIED., .F., .U., (2, 2), (0., 1.), .UNSPECIFIED.);
#470 = CARTESIAN_POINT('', (-30., -23., -15.));
#471 = CARTESIAN_POINT('', (30., -23., -15.));
#472 = ORIENTED_EDGE('', *, *, #473, .T.);
#473 = EDGE_CURVE('', #467, #474, #476, .T.);
#474 = VERTEX_POINT('', #475);
#475 = CARTESIAN_POINT('', (30., -20., -18.));
#476 = (
   BOUNDED_CURVE ()
   B_SPLINE_CURVE (2, (#477, #478, #479), .UNSPECIFIED., .F., .U.)
   B_SPLINE_CURVE_WITH_KNOTS ((3, 3), (0., 1.), .UNSPECIFIED.)
   CURVE ()
   GEOMETRIC_REPRESENTATION_ITEM ()
   RATIONAL_B_SPLINE_CURVE ((1., 0.707106781186548, 1.))
   REPRESENTATION_ITEM ('')
);
#477 = CARTESIAN_POINT('', (30., -23., -15.));
#478 = CARTESIAN_POINT('', (30., -23., -18.));
#479 = CARTESIAN_POINT('', (30., -20., -18.));
#480 = ORIENTED_EDGE('', *, *, #481, .F.);
#481 = EDGE_CURVE('', #403, #474, #482, .T.);
#482 = B_SPLINE_CURVE_WITH_KNOTS('', 1, (#483, #484), .UNSPECIFIED., .F., .U., (2, 2), (0., 1.), .UNSPECIFIED.);
#483 = CARTESIAN_POINT('', (-30., -20., -18.));
#484 = CARTESIAN_POINT('', (30., -20., -18.));
#485 = (
   BOUNDED_SURFACE ()
   B_SPLINE_SURFACE (1, 2, ((#486, #487, #488), (#489, #490, #491)), .UNSPECIFIED., .F., .F., .U.)
   B_SPLINE_SURFACE_WITH_KNOTS ((2, 2), (3, 3), (0., 1.), (0., 1.), .UNSPECIFIED.)
   GEOMETRIC_REPRESENTATION_ITEM ()
   RATIONAL_B_SPLINE_SURFACE (((1., 0.707106781186548, 1.), (1., 0.707106781186548, 1.)))
   REPRESENTATION_ITEM ('')
   SURFACE ()
);
#486 = CARTESIAN_POINT('', (-30., -23., -15.));
#487 = CARTESIAN_POINT('', (-30., -23., -18.));
#488 = CARTESIAN_POINT('', (-30., -20., -18.));
#489 = CARTESIAN_POINT('', (30., -23., -15.));
#490 = CARTESIAN_POINT('', (30., -23., -18.));
#491 = CARTESIAN_POINT('', (30., -20., -18.));
#492 = ADVANCED_FACE('', (#493), #507, .T.);
#493 = FACE_OUTER_BOUND('', #494, .T.);
#494 = EDGE_LOOP('', (#495, #496, #497, #502));
#495 = ORIENTED_EDGE('', *, *, #444, .F.);
#496 = ORIENTED_EDGE('', *, *, #466, .T.);
#497 = ORIENTED_EDGE('', *, *, #498, .T.);
#498 = EDGE_CURVE('', #467, #214, #499, .T.);
#499 = B_SPLINE_CURVE_WITH_KNOTS('', 1, (#500, #501), .UNSPECIFIED., .F., .U., (2, 2), (0., 1.), .UNSPECIFIED.);
#500 = CARTESIAN_POINT('', (30., -23., -15.));
#501 = CARTESIAN_POINT('', (30., -23., 15.));
#502 = ORIENTED_EDGE('', *, *, #503, .F.);
#503 = EDGE_CURVE('', #331, #214, #504, .T.);
#504 = B_SPLINE_CURVE_WITH_KNOTS('', 1, (#505, #506), .UNSPECIFIED., .F., .U., (2, 2), (0., 1.), .UNSPECIFIED.);
#505 = CARTESIAN_POINT('', (-30., -23., 15.));
#506 = CARTESIAN_POINT('', (30., -23., 15.));
#507 = B_SPLINE_SURFACE_WITH_KNOTS('', 1, 1, ((#508, #509), (#510, #511)), .UNSPECIFIED., .F., .F., .U., (2, 2), (2, 2), (0., 60.), (0., 30.), .UNSPECIFIED.);
#508 = CARTESIAN_POINT('', (-30., -23., -15.));
#509 = CARTESIAN_POINT('', (-30., -23., 15.));
#510 = CARTESIAN_POINT('', (30., -23., -15.));
#511 = CARTESIAN_POINT('', (30., -23., 15.));
#512 = ADVANCED_FACE('', (#513), #527, .T.);
#513 = FACE_OUTER_BOUND('', #514, .T.);
#514 = EDGE_LOOP('', (#515, #516, #521, #522));
#515 = ORIENTED_EDGE('', *, *, #400, .F.);
#516 = ORIENTED_EDGE('', *, *, #517, .T.);
#517 = EDGE_CURVE('', #401, #255, #518, .T.);
#518 = B_SPLINE_CURVE_WITH_KNOTS('', 1, (#519, #520), .UNSPECIFIED., .F., .U., (2, 2), (0., 1.), .UNSPECIFIED.);
#519 = CARTESIAN_POINT('', (-33., -20., -15.));
#520 = CARTESIAN_POINT('', (-33., 20., -15.));
#521 = ORIENTED_EDGE('', *, *, #254, .T.);
#522 = ORIENTED_EDGE('', *, *, #523, .F.);
#523 = EDGE_CURVE('', #403, #257, #524, .T.);
#524 = B_SPLINE_CURVE_WITH_KNOTS('', 1, (#525, #526), .UNSPECIFIED., .F., .U., (2, 2), (0., 1.), .UNSPECIFIED.);
#525 = CARTESIAN_POINT('', (-30., -20., -18.));
#526 = CARTESIAN_POINT('', (-30., 20., -18.));
#527 = (
   BOUNDED_SURFACE ()
   B_SPLINE_SURFACE (1, 2, ((#528, #529, #530), (#531, #532, #533)), .UNSPECIFIED., .F., .F., .U.)
   B_SPLINE_SURFACE_WITH_KNOTS ((2, 2), (3, 3), (0., 1.), (0., 1.), .UNSPECIFIED.)
   GEOMETRIC_REPRESENTATION_ITEM ()
   RATIONAL_B_SPLINE_SURFACE (((1., 0.707106781186546, 1.), (1., 0.707106781186546, 1.)))
   REPRESENTATION_ITEM ('')
   SURFACE ()
);
#528 = CARTESIAN_POINT('', (-33., -20., -15.));
#529 = CARTESIAN_POINT('', (-33., -20., -18.));
#530 = CARTESIAN_POINT('', (-30., -20., -18.));
#531 = CARTESIAN_POINT('', (-33., 20., -15.));
#532 = CARTESIAN_POINT('', (-33., 20., -18.));
#533 = CARTESIAN_POINT('', (-30., 20., -18.));
#534 = ADVANCED_FACE('', (#535), #541, .T.);
#535 = FACE_OUTER_BOUND('', #536, .T.);
#536 = EDGE_LOOP('', (#537, #538, #539, #540));
#537 = ORIENTED_EDGE('', *, *, #450, .T.);
#538 = ORIENTED_EDGE('', *, *, #385, .T.);
#539 = ORIENTED_EDGE('', *, *, #313, .F.);
#540 = ORIENTED_EDGE('', *, *, #517, .F.);
#541 = B_SPLINE_SURFACE_WITH_KNOTS('', 1, 1, ((#542, #543), (#544, #545)), .UNSPECIFIED., .F., .F., .U., (2, 2), (2, 2), (0., 30.), (0., 40.), .UNSPECIFIED.);
#542 = CARTESIAN_POINT('', (-33., -20., -15.));
#543 = CARTESIAN_POINT('', (-33., 20., -15.));
#544 = CARTESIAN_POINT('', (-33., -20., 15.));
#545 = CARTESIAN_POINT('', (-33., 20., 15.));
#546 = ADVANCED_FACE('', (#547), #567, .T.);
#547 = FACE_OUTER_BOUND('', #548, .T.);
#548 = EDGE_LOOP('', (#549, #555, #560, #561, #562));
#549 = ORIENTED_EDGE('', *, *, #550, .T.);
#550 = EDGE_CURVE('', #138, #173, #551, .T.);
#551 = (
   BOUNDED_CURVE ()
   B_SPLINE_CURVE (2, (#552, #553, #554), .UNSPECIFIED., .F., .U.)
   B_SPLINE_CURVE_WITH_KNOTS ((3, 3), (0., 1.), .UNSPECIFIED.)
   CURVE ()
   GEOMETRIC_REPRESENTATION_ITEM ()
   RATIONAL_B_SPLINE_CURVE ((1., 0.707106781186548, 1.))
   REPRESENTATION_ITEM ('')
);
#552 = CARTESIAN_POINT('', (22.5, 20., -18.));
#553 = CARTESIAN_POINT('', (22.5, 12.5, -18.));
#554 = CARTESIAN_POINT('', (30., 12.5, -18.));
#555 = ORIENTED_EDGE('', *, *, #556, .F.);
#556 = EDGE_CURVE('', #474, #173, #557, .T.);
#557 = B_SPLINE_CURVE_WITH_KNOTS('', 1, (#558, #559), .UNSPECIFIED., .F., .U., (2, 2), (0., 1.), .UNSPECIFIED.);
#558 = CARTESIAN_POINT('', (30., -20., -18.));
#559 = CARTESIAN_POINT('', (30., 12.5, -18.));
#560 = ORIENTED_EDGE('', *, *, #481, .F.);
#561 = ORIENTED_EDGE('', *, *, #523, .T.);
#562 = ORIENTED_EDGE('', *, *, #563, .T.);
#563 = EDGE_CURVE('', #257, #138, #564, .T.);
#564 = B_SPLINE_CURVE_WITH_KNOTS('', 1, (#565, #566), .UNSPECIFIED., .F., .U., (2, 2), (0., 52.5), .UNSPECIFIED.);
#565 = CARTESIAN_POINT('', (-30., 20., -18.));
#566 = CARTESIAN_POINT('', (22.5, 20., -18.));
#567 = B_SPLINE_SURFACE_WITH_KNOTS('', 1, 1, ((#568, #569), (#570, #571)), .UNSPECIFIED., .F., .F., .U., (2, 2), (2, 2), (0., 40.), (0., 60.), .UNSPECIFIED.);
#568 = CARTESIAN_POINT('', (-30., -20., -18.));
#569 = CARTESIAN_POINT('', (30., -20., -18.));
#570 = CARTESIAN_POINT('', (-30., 20., -18.));
#571 = CARTESIAN_POINT('', (30., 20., -18.));
#572 = ADVANCED_FACE('', (#573), #583, .F.);
#573 = FACE_OUTER_BOUND('', #574, .F.);
#574 = EDGE_LOOP('', (#575, #576, #581, #582));
#575 = ORIENTED_EDGE('', *, *, #328, .F.);
#576 = ORIENTED_EDGE('', *, *, #577, .T.);
#577 = EDGE_CURVE('', #329, #212, #578, .T.);
#578 = B_SPLINE_CURVE_WITH_KNOTS('', 1, (#579, #580), .UNSPECIFIED., .F., .U., (2, 2), (0., 1.), .UNSPECIFIED.);
#579 = CARTESIAN_POINT('', (-30., -20., 18.));
#580 = CARTESIAN_POINT('', (30., -20., 18.));
#581 = ORIENTED_EDGE('', *, *, #211, .T.);
#582 = ORIENTED_EDGE('', *, *, #503, .F.);
#583 = (
   BOUNDED_SURFACE ()
   B_SPLINE_SURFACE (1, 2, ((#584, #585, #586), (#587, #588, #589)), .UNSPECIFIED., .F., .F., .U.)
   B_SPLINE_SURFACE_WITH_KNOTS ((2, 2), (3, 3), (0., 1.), (0., 1.), .UNSPECIFIED.)
   GEOMETRIC_REPRESENTATION_ITEM ()
   RATIONAL_B_SPLINE_SURFACE (((1., 0.707106781186547, 1.), (1., 0.707106781186547, 1.)))
   REPRESENTATION_ITEM ('')
   SURFACE ()
);
#584 = CARTESIAN_POINT('', (-30., -20., 18.));
#585 = CARTESIAN_POINT('', (-30., -23., 18.));
#586 = CARTESIAN_POINT('', (-30., -23., 15.));
#587 = CARTESIAN_POINT('', (30., -20., 18.));
#588 = CARTESIAN_POINT('', (30., -23., 18.));
#589 = CARTESIAN_POINT('', (30., -23., 15.));
#590 = ADVANCED_FACE('', (#591), #611, .T.);
#591 = FACE_OUTER_BOUND('', #592, .T.);
#592 = EDGE_LOOP('', (#593, #599, #604, #605, #606));
#593 = ORIENTED_EDGE('', *, *, #594, .F.);
#594 = EDGE_CURVE('', #61, #8, #595, .T.);
#595 = (
   BOUNDED_CURVE ()
   B_SPLINE_CURVE (2, (#596, #597, #598), .UNSPECIFIED., .F., .U.)
   B_SPLINE_CURVE_WITH_KNOTS ((3, 3), (0., 1.), .UNSPECIFIED.)
   CURVE ()
   GEOMETRIC_REPRESENTATION_ITEM ()
   RATIONAL_B_SPLINE_CURVE ((1., 0.707106781186548, 1.))
   REPRESENTATION_ITEM ('')
);
#596 = CARTESIAN_POINT('', (22.5, 20., 18.));
#597 = CARTESIAN_POINT('', (22.5, 12.5, 18.));
#598 = CARTESIAN_POINT('', (30., 12.5, 18.));
#599 = ORIENTED_EDGE('', *, *, #600, .F.);
#600 = EDGE_CURVE('', #373, #61, #601, .T.);
#601 = B_SPLINE_CURVE_WITH_KNOTS('', 1, (#602, #603), .UNSPECIFIED., .F., .U., (2, 2), (0., 1.), .UNSPECIFIED.);
#602 = CARTESIAN_POINT('', (-30., 20., 18.));
#603 = CARTESIAN_POINT('', (22.5, 20., 18.));
#604 = ORIENTED_EDGE('', *, *, #372, .F.);
#605 = ORIENTED_EDGE('', *, *, #577, .T.);
#606 = ORIENTED_EDGE('', *, *, #607, .T.);
#607 = EDGE_CURVE('', #212, #8, #608, .T.);
#608 = B_SPLINE_CURVE_WITH_KNOTS('', 1, (#609, #610), .UNSPECIFIED., .F., .U., (2, 2), (0., 1.), .UNSPECIFIED.);
#609 = CARTESIAN_POINT('', (30., -20., 18.));
#610 = CARTESIAN_POINT('', (30., 12.5, 18.));
#611 = B_SPLINE_SURFACE_WITH_KNOTS('', 1, 1, ((#612, #613), (#614, #615)), .UNSPECIFIED., .F., .F., .U., (2, 2), (2, 2), (0., 60.), (0., 40.), .UNSPECIFIED.);
#612 = CARTESIAN_POINT('', (-30., -20., 18.));
#613 = CARTESIAN_POINT('', (-30., 20., 18.));
#614 = CARTESIAN_POINT('', (30., -20., 18.));
#615 = CARTESIAN_POINT('', (30., 20., 18.));
#616 = ADVANCED_FACE('', (#617), #627, .T.);
#617 = FACE_OUTER_BOUND('', #618, .T.);
#618 = EDGE_LOOP('', (#619, #620, #625, #626));
#619 = ORIENTED_EDGE('', *, *, #272, .F.);
#620 = ORIENTED_EDGE('', *, *, #621, .T.);
#621 = EDGE_CURVE('', #265, #130, #622, .T.);
#622 = B_SPLINE_CURVE_WITH_KNOTS('', 1, (#623, #624), .UNSPECIFIED., .F., .U., (2, 2), (0., 1.), .UNSPECIFIED.);
#623 = CARTESIAN_POINT('', (-30., 23.0000000000001, -15.));
#624 = CARTESIAN_POINT('', (22.5, 23., -15.));
#625 = ORIENTED_EDGE('', *, *, #145, .T.);
#626 = ORIENTED_EDGE('', *, *, #563, .F.);
#627 = (
   BOUNDED_SURFACE ()
   B_SPLINE_SURFACE (1, 2, ((#628, #629, #630), (#631, #632, #633)), .UNSPECIFIED., .F., .F., .U.)
   B_SPLINE_SURFACE_WITH_KNOTS ((2, 2), (3, 3), (0., 1.), (0., 1.), .UNSPECIFIED.)
   GEOMETRIC_REPRESENTATION_ITEM ()
   RATIONAL_B_SPLINE_SURFACE (((1., 0.707106781186548, 1.), (1., 0.707106781186548, 1.)))
   REPRESENTATION_ITEM ('')
   SURFACE ()
);
#628 = CARTESIAN_POINT('', (-30., 23.0000000000001, -15.));
#629 = CARTESIAN_POINT('', (-30., 23.0000000000001, -18.));
#630 = CARTESIAN_POINT('', (-30., 20.0000000000001, -18.));
#631 = CARTESIAN_POINT('', (22.5, 23., -15.));
#632 = CARTESIAN_POINT('', (22.5, 23., -18.));
#633 = CARTESIAN_POINT('', (22.5, 20., -18.));
#634 = ADVANCED_FACE('', (#635), #649, .T.);
#635 = FACE_OUTER_BOUND('', #636, .T.);
#636 = EDGE_LOOP('', (#637, #642, #643, #644));
#637 = ORIENTED_EDGE('', *, *, #638, .F.);
#638 = EDGE_CURVE('', #130, #53, #639, .T.);
#639 = B_SPLINE_CURVE_WITH_KNOTS('', 1, (#640, #641), .UNSPECIFIED., .F., .U., (2, 2), (0., 1.), .UNSPECIFIED.);
#640 = CARTESIAN_POINT('', (22.5, 23., -15.));
#641 = CARTESIAN_POINT('', (22.5, 23., 15.));
#642 = ORIENTED_EDGE('', *, *, #621, .F.);
#643 = ORIENTED_EDGE('', *, *, #298, .T.);
#644 = ORIENTED_EDGE('', *, *, #645, .T.);
#645 = EDGE_CURVE('', #299, #53, #646, .T.);
#646 = B_SPLINE_CURVE_WITH_KNOTS('', 1, (#647, #648), .UNSPECIFIED., .F., .U., (2, 2), (0., 1.), .UNSPECIFIED.);
#647 = CARTESIAN_POINT('', (-30., 23., 15.));
#648 = CARTESIAN_POINT('', (22.5, 23., 15.));
#649 = B_SPLINE_SURFACE_WITH_KNOTS('', 1, 1, ((#650, #651), (#652, #653)), .UNSPECIFIED., .F., .F., .U., (2, 2), (2, 2), (0., 30.), (0., 52.5), .UNSPECIFIED.);
#650 = CARTESIAN_POINT('', (-30., 23., -15.));
#651 = CARTESIAN_POINT('', (22.5, 23., -15.));
#652 = CARTESIAN_POINT('', (-30., 23., 15.));
#653 = CARTESIAN_POINT('', (22.5, 23., 15.));
#654 = ADVANCED_FACE('', (#655), #672, .T.);
#655 = FACE_OUTER_BOUND('', #656, .T.);
#656 = EDGE_LOOP('', (#657, #665, #671));
#657 = ORIENTED_EDGE('', *, *, #658, .F.);
#658 = EDGE_CURVE('', #659, #474, #661, .T.);
#659 = VERTEX_POINT('', #660);
#660 = CARTESIAN_POINT('', (33., -20., -15.));
#661 = (
   BOUNDED_CURVE ()
   B_SPLINE_CURVE (2, (#662, #663, #664), .UNSPECIFIED., .F., .U.)
   B_SPLINE_CURVE_WITH_KNOTS ((3, 3), (0., 1.), .UNSPECIFIED.)
   CURVE ()
   GEOMETRIC_REPRESENTATION_ITEM ()
   RATIONAL_B_SPLINE_CURVE ((1., 0.707106781186546, 1.))
   REPRESENTATION_ITEM ('')
);
#662 = CARTESIAN_POINT('', (33., -20., -15.));
#663 = CARTESIAN_POINT('', (33., -20., -18.));
#664 = CARTESIAN_POINT('', (30., -20., -18.));
#665 = ORIENTED_EDGE('', *, *, #666, .F.);
#666 = EDGE_CURVE('', #467, #659, #667, .T.);
#667 = (
   BOUNDED_CURVE ()
   B_SPLINE_CURVE (2, (#668, #669, #670), .UNSPECIFIED., .F., .U.)
   B_SPLINE_CURVE_WITH_KNOTS ((3, 3), (0., 1.), .UNSPECIFIED.)
   CURVE ()
   GEOMETRIC_REPRESENTATION_ITEM ()
   RATIONAL_B_SPLINE_CURVE ((1., 0.707106781186548, 1.))
   REPRESENTATION_ITEM ('')
);
#668 = CARTESIAN_POINT('', (30., -23., -15.));
#669 = CARTESIAN_POINT('', (33., -23., -15.));
#670 = CARTESIAN_POINT('', (33., -20., -15.));
#671 = ORIENTED_EDGE('', *, *, #473, .T.);
#672 = (
   BOUNDED_SURFACE ()
   B_SPLINE_SURFACE (2, 2, ((#673, #674, #675), (#676, #677, #678), (#679, #680, #681), (#682, #683, #684), (#685, #686, #687)), .UNSPECIFIED., .F., .F., .U.)
   B_SPLINE_SURFACE_WITH_KNOTS ((3, 2, 3), (3, 3), (0., 0.5, 1.), (0., 1.), .UNSPECIFIED.)
   GEOMETRIC_REPRESENTATION_ITEM ()
   RATIONAL_B_SPLINE_SURFACE (((1., 0.707106781186546, 1.), (0.908143173825081, 0.642154196499988, 0.908143173825081), (1., 0.707106781186546, 1.), (0.908143173825081, 0.642154196499988, 0.908143173825081), (1., 0.707106781186546, 1.)))
   REPRESENTATION_ITEM ('')
   SURFACE ()
);
#673 = CARTESIAN_POINT('', (33., -20., -15.));
#674 = CARTESIAN_POINT('', (33., -20., -18.));
#675 = CARTESIAN_POINT('', (30., -20., -18.));
#676 = CARTESIAN_POINT('', (33., -21.383018943282, -15.));
#677 = CARTESIAN_POINT('', (33., -21.383018943282, -18.));
#678 = CARTESIAN_POINT('', (30., -20., -18.));
#679 = CARTESIAN_POINT('', (31.9483441449905, -22.2812178968001, -15.));
#680 = CARTESIAN_POINT('', (31.9483441449906, -22.2812178968001, -18.));
#681 = CARTESIAN_POINT('', (30., -20., -18.));
#682 = CARTESIAN_POINT('', (30.8966882899811, -23.1794168503182, -15.));
#683 = CARTESIAN_POINT('', (30.8966882899811, -23.1794168503182, -18.));
#684 = CARTESIAN_POINT('', (30., -20., -18.));
#685 = CARTESIAN_POINT('', (29.5306966048793, -22.9630650217854, -15.));
#686 = CARTESIAN_POINT('', (29.5306966048793, -22.9630650217854, -18.));
#687 = CARTESIAN_POINT('', (30., -20., -18.));
#688 = ADVANCED_FACE('', (#689), #699, .F.);
#689 = FACE_OUTER_BOUND('', #690, .F.);
#690 = EDGE_LOOP('', (#691, #692, #697, #698));
#691 = ORIENTED_EDGE('', *, *, #658, .F.);
#692 = ORIENTED_EDGE('', *, *, #693, .T.);
#693 = EDGE_CURVE('', #659, #171, #694, .T.);
#694 = B_SPLINE_CURVE_WITH_KNOTS('', 1, (#695, #696), .UNSPECIFIED., .F., .U., (2, 2), (0., 1.), .UNSPECIFIED.);
#695 = CARTESIAN_POINT('', (33., -20., -15.));
#696 = CARTESIAN_POINT('', (33., 12.5, -15.));
#697 = ORIENTED_EDGE('', *, *, #170, .T.);
#698 = ORIENTED_EDGE('', *, *, #556, .F.);
#699 = (
   BOUNDED_SURFACE ()
   B_SPLINE_SURFACE (1, 2, ((#700, #701, #702), (#703, #704, #705)), .UNSPECIFIED., .F., .F., .U.)
   B_SPLINE_SURFACE_WITH_KNOTS ((2, 2), (3, 3), (0., 1.), (0., 1.), .UNSPECIFIED.)
   GEOMETRIC_REPRESENTATION_ITEM ()
   RATIONAL_B_SPLINE_SURFACE (((1., 0.707106781186546, 1.), (1., 0.707106781186546, 1.)))
   REPRESENTATION_ITEM ('')
   SURFACE ()
);
#700 = CARTESIAN_POINT('', (33., -20., -15.));
#701 = CARTESIAN_POINT('', (33., -20., -18.));
#702 = CARTESIAN_POINT('', (30., -20., -18.));
#703 = CARTESIAN_POINT('', (33., 12.5, -15.));
#704 = CARTESIAN_POINT('', (33., 12.5, -18.));
#705 = CARTESIAN_POINT('', (30., 12.5, -18.));
#706 = ADVANCED_FACE('', (#707), #717, .F.);
#707 = FACE_OUTER_BOUND('', #708, .F.);
#708 = EDGE_LOOP('', (#709, #710, #711, #712));
#709 = ORIENTED_EDGE('', *, *, #666, .F.);
#710 = ORIENTED_EDGE('', *, *, #498, .T.);
#711 = ORIENTED_EDGE('', *, *, #229, .T.);
#712 = ORIENTED_EDGE('', *, *, #713, .F.);
#713 = EDGE_CURVE('', #659, #222, #714, .T.);
#714 = B_SPLINE_CURVE_WITH_KNOTS('', 1, (#715, #716), .UNSPECIFIED., .F., .U., (2, 2), (0., 1.), .UNSPECIFIED.);
#715 = CARTESIAN_POINT('', (33., -20., -15.));
#716 = CARTESIAN_POINT('', (33., -20., 15.));
#717 = (
   BOUNDED_SURFACE ()
   B_SPLINE_SURFACE (1, 2, ((#718, #719, #720), (#721, #722, #723)), .UNSPECIFIED., .F., .F., .U.)
   B_SPLINE_SURFACE_WITH_KNOTS ((2, 2), (3, 3), (0., 1.), (0., 1.), .UNSPECIFIED.)
   GEOMETRIC_REPRESENTATION_ITEM ()
   RATIONAL_B_SPLINE_SURFACE (((1., 0.707106781186548, 1.), (1., 0.707106781186548, 1.)))
   REPRESENTATION_ITEM ('')
   SURFACE ()
);
#718 = CARTESIAN_POINT('', (30., -23., -15.));
#719 = CARTESIAN_POINT('', (33., -23., -15.));
#720 = CARTESIAN_POINT('', (33., -20., -15.));
#721 = CARTESIAN_POINT('', (30., -23., 15.));
#722 = CARTESIAN_POINT('', (33., -23., 15.));
#723 = CARTESIAN_POINT('', (33., -20., 15.));
#724 = ADVANCED_FACE('', (#725), #739, .T.);
#725 = FACE_OUTER_BOUND('', #726, .T.);
#726 = EDGE_LOOP('', (#727, #732, #737, #738));
#727 = ORIENTED_EDGE('', *, *, #728, .T.);
#728 = EDGE_CURVE('', #171, #18, #729, .T.);
#729 = B_SPLINE_CURVE_WITH_KNOTS('', 1, (#730, #731), .UNSPECIFIED., .F., .U., (2, 2), (0., 1.), .UNSPECIFIED.);
#730 = CARTESIAN_POINT('', (33., 12.5, -15.));
#731 = CARTESIAN_POINT('', (33., 12.5, 15.));
#732 = ORIENTED_EDGE('', *, *, #733, .F.);
#733 = EDGE_CURVE('', #222, #18, #734, .T.);
#734 = B_SPLINE_CURVE_WITH_KNOTS('', 1, (#735, #736), .UNSPECIFIED., .F., .U., (2, 2), (0., 32.5), .UNSPECIFIED.);
#735 = CARTESIAN_POINT('', (33., -20., 15.));
#736 = CARTESIAN_POINT('', (33., 12.5, 15.));
#737 = ORIENTED_EDGE('', *, *, #713, .F.);
#738 = ORIENTED_EDGE('', *, *, #693, .T.);
#739 = B_SPLINE_SURFACE_WITH_KNOTS('', 1, 1, ((#740, #741), (#742, #743)), .UNSPECIFIED., .F., .F., .U., (2, 2), (2, 2), (0., 32.5), (0., 30.), .UNSPECIFIED.);
#740 = CARTESIAN_POINT('', (33., -20., -15.));
#741 = CARTESIAN_POINT('', (33., -20., 15.));
#742 = CARTESIAN_POINT('', (33., 12.5, -15.));
#743 = CARTESIAN_POINT('', (33., 12.5, 15.));
#744 = ADVANCED_FACE('', (#745), #755, .F.);
#745 = FACE_OUTER_BOUND('', #746, .F.);
#746 = EDGE_LOOP('', (#747, #748, #754));
#747 = ORIENTED_EDGE('', *, *, #305, .F.);
#748 = ORIENTED_EDGE('', *, *, #749, .T.);
#749 = EDGE_CURVE('', #299, #373, #750, .T.);
#750 = (
   BOUNDED_CURVE ()
   B_SPLINE_CURVE (2, (#751, #752, #753), .UNSPECIFIED., .F., .U.)
   B_SPLINE_CURVE_WITH_KNOTS ((3, 3), (0., 1.), .UNSPECIFIED.)
   CURVE ()
   GEOMETRIC_REPRESENTATION_ITEM ()
   RATIONAL_B_SPLINE_CURVE ((1., 0.707106781186548, 1.))
   REPRESENTATION_ITEM ('')
);
#751 = CARTESIAN_POINT('', (-30., 23., 15.));
#752 = CARTESIAN_POINT('', (-30., 23., 18.));
#753 = CARTESIAN_POINT('', (-30., 20., 18.));
#754 = ORIENTED_EDGE('', *, *, #379, .T.);
#755 = (
   BOUNDED_SURFACE ()
   B_SPLINE_SURFACE (2, 2, ((#756, #757, #758), (#759, #760, #761), (#762, #763, #764), (#765, #766, #767), (#768, #769, #770)), .UNSPECIFIED., .F., .F., .U.)
   B_SPLINE_SURFACE_WITH_KNOTS ((3, 2, 3), (3, 3), (0., 0.5, 1.), (0., 1.), .UNSPECIFIED.)
   GEOMETRIC_REPRESENTATION_ITEM ()
   RATIONAL_B_SPLINE_SURFACE (((1., 0.707106781186548, 1.), (0.908143173825081, 0.642154196499989, 0.908143173825081), (1., 0.707106781186548, 1.), (0.908143173825081, 0.642154196499989, 0.908143173825081), (1., 0.707106781186548, 1.)))
   REPRESENTATION_ITEM ('')
   SURFACE ()
);
#756 = CARTESIAN_POINT('', (-30., 23., 15.));
#757 = CARTESIAN_POINT('', (-33., 23., 15.));
#758 = CARTESIAN_POINT('', (-33., 20., 15.));
#759 = CARTESIAN_POINT('', (-30., 23., 15.));
#760 = CARTESIAN_POINT('', (-33., 23., 16.383018943282));
#761 = CARTESIAN_POINT('', (-33., 20., 16.383018943282));
#762 = CARTESIAN_POINT('', (-30., 23., 15.));
#763 = CARTESIAN_POINT('', (-31.9483441449905, 23., 17.2812178968001));
#764 = CARTESIAN_POINT('', (-31.9483441449905, 20., 17.2812178968001));
#765 = CARTESIAN_POINT('', (-30., 23., 15.));
#766 = CARTESIAN_POINT('', (-30.8966882899811, 23., 18.1794168503182));
#767 = CARTESIAN_POINT('', (-30.8966882899811, 20., 18.1794168503182));
#768 = CARTESIAN_POINT('', (-30., 23., 15.));
#769 = CARTESIAN_POINT('', (-29.5306966048793, 23., 17.9630650217854));
#770 = CARTESIAN_POINT('', (-29.5306966048793, 20., 17.9630650217854));
#771 = ADVANCED_FACE('', (#772), #778, .F.);
#772 = FACE_OUTER_BOUND('', #773, .F.);
#773 = EDGE_LOOP('', (#774, #775, #776, #777));
#774 = ORIENTED_EDGE('', *, *, #749, .F.);
#775 = ORIENTED_EDGE('', *, *, #645, .T.);
#776 = ORIENTED_EDGE('', *, *, #68, .T.);
#777 = ORIENTED_EDGE('', *, *, #600, .F.);
#778 = (
   BOUNDED_SURFACE ()
   B_SPLINE_SURFACE (1, 2, ((#779, #780, #781), (#782, #783, #784)), .UNSPECIFIED., .F., .F., .U.)
   B_SPLINE_SURFACE_WITH_KNOTS ((2, 2), (3, 3), (0., 1.), (0., 1.), .UNSPECIFIED.)
   GEOMETRIC_REPRESENTATION_ITEM ()
   RATIONAL_B_SPLINE_SURFACE (((1., 0.707106781186548, 1.), (1., 0.707106781186548, 1.)))
   REPRESENTATION_ITEM ('')
   SURFACE ()
);
#779 = CARTESIAN_POINT('', (-30., 23., 15.));
#780 = CARTESIAN_POINT('', (-30., 23., 18.));
#781 = CARTESIAN_POINT('', (-30., 20., 18.));
#782 = CARTESIAN_POINT('', (22.5, 23., 15.));
#783 = CARTESIAN_POINT('', (22.5, 23., 18.));
#784 = CARTESIAN_POINT('', (22.5, 20., 18.));
#785 = ADVANCED_FACE('', (#786), #792, .F.);
#786 = FACE_OUTER_BOUND('', #787, .F.);
#787 = EDGE_LOOP('', (#788, #789, #790, #791));
#788 = ORIENTED_EDGE('', *, *, #137, .F.);
#789 = ORIENTED_EDGE('', *, *, #550, .T.);
#790 = ORIENTED_EDGE('', *, *, #186, .T.);
#791 = ORIENTED_EDGE('', *, *, #100, .F.);
#792 = (
   BOUNDED_SURFACE ()
   B_SPLINE_SURFACE (2, 2, ((#793, #794, #795), (#796, #797, #798), (#799, #800, #801)), .UNSPECIFIED., .F., .F., .U.)
   B_SPLINE_SURFACE_WITH_KNOTS ((3, 3), (3, 3), (0., 1.), (0., 1.), .UNSPECIFIED.)
   GEOMETRIC_REPRESENTATION_ITEM ()
   RATIONAL_B_SPLINE_SURFACE (((1., 0.707106781186548, 1.), (0.707106781186548, 0.5, 0.707106781186548), (1., 0.707106781186548, 1.)))
   REPRESENTATION_ITEM ('')
   SURFACE ()
);
#793 = CARTESIAN_POINT('', (22.5, 20., -18.));
#794 = CARTESIAN_POINT('', (25.5, 20., -18.));
#795 = CARTESIAN_POINT('', (25.5, 20., -15.));
#796 = CARTESIAN_POINT('', (22.5, 12.5, -18.));
#797 = CARTESIAN_POINT('', (25.5, 15.5, -18.));
#798 = CARTESIAN_POINT('', (25.5, 15.5, -15.));
#799 = CARTESIAN_POINT('', (30., 12.5, -18.));
#800 = CARTESIAN_POINT('', (30., 15.5, -18.));
#801 = CARTESIAN_POINT('', (30., 15.5, -15.));
#802 = ADVANCED_FACE('', (#803), #809, .F.);
#803 = FACE_OUTER_BOUND('', #804, .F.);
#804 = EDGE_LOOP('', (#805, #806, #807, #808));
#805 = ORIENTED_EDGE('', *, *, #221, .F.);
#806 = ORIENTED_EDGE('', *, *, #607, .T.);
#807 = ORIENTED_EDGE('', *, *, #17, .T.);
#808 = ORIENTED_EDGE('', *, *, #733, .F.);
#809 = (
   BOUNDED_SURFACE ()
   B_SPLINE_SURFACE (1, 2, ((#810, #811, #812), (#813, #814, #815)), .UNSPECIFIED., .F., .F., .U.)
   B_SPLINE_SURFACE_WITH_KNOTS ((2, 2), (3, 3), (0., 1.), (0., 1.), .UNSPECIFIED.)
   GEOMETRIC_REPRESENTATION_ITEM ()
   RATIONAL_B_SPLINE_SURFACE (((1., 0.707106781186548, 1.), (1., 0.707106781186548, 1.)))
   REPRESENTATION_ITEM ('')
   SURFACE ()
);
#810 = CARTESIAN_POINT('', (30., -20., 18.));
#811 = CARTESIAN_POINT('', (33., -20., 18.));
#812 = CARTESIAN_POINT('', (33., -20., 15.));
#813 = CARTESIAN_POINT('', (30., 12.5, 18.));
#814 = CARTESIAN_POINT('', (33., 12.5, 18.));
#815 = CARTESIAN_POINT('', (33., 12.5, 15.));
#816 = ADVANCED_FACE('', (#817), #823, .F.);
#817 = FACE_OUTER_BOUND('', #818, .F.);
#818 = EDGE_LOOP('', (#819, #820, #821, #822));
#819 = ORIENTED_EDGE('', *, *, #129, .F.);
#820 = ORIENTED_EDGE('', *, *, #93, .T.);
#821 = ORIENTED_EDGE('', *, *, #50, .T.);
#822 = ORIENTED_EDGE('', *, *, #638, .F.);
#823 = (
   BOUNDED_SURFACE ()
   B_SPLINE_SURFACE (1, 2, ((#824, #825, #826), (#827, #828, #829)), .UNSPECIFIED., .F., .F., .U.)
   B_SPLINE_SURFACE_WITH_KNOTS ((2, 2), (3, 3), (0., 1.), (0., 1.), .UNSPECIFIED.)
   GEOMETRIC_REPRESENTATION_ITEM ()
   RATIONAL_B_SPLINE_SURFACE (((1., 0.707106781186546, 1.), (1., 0.707106781186546, 1.)))
   REPRESENTATION_ITEM ('')
   SURFACE ()
);
#824 = CARTESIAN_POINT('', (25.5, 20., -15.));
#825 = CARTESIAN_POINT('', (25.5, 23., -15.));
#826 = CARTESIAN_POINT('', (22.5, 23., -15.));
#827 = CARTESIAN_POINT('', (25.5, 20., 15.));
#828 = CARTESIAN_POINT('', (25.5, 23., 15.));
#829 = CARTESIAN_POINT('', (22.5, 23., 15.));
#830 = ADVANCED_FACE('', (#831), #837, .T.);
#831 = FACE_OUTER_BOUND('', #832, .T.);
#832 = EDGE_LOOP('', (#833, #834, #835, #836));
#833 = ORIENTED_EDGE('', *, *, #180, .F.);
#834 = ORIENTED_EDGE('', *, *, #108, .T.);
#835 = ORIENTED_EDGE('', *, *, #25, .T.);
#836 = ORIENTED_EDGE('', *, *, #728, .F.);
#837 = (
   BOUNDED_SURFACE ()
   B_SPLINE_SURFACE (1, 2, ((#838, #839, #840), (#841, #842, #843)), .UNSPECIFIED., .F., .F., .U.)
   B_SPLINE_SURFACE_WITH_KNOTS ((2, 2), (3, 3), (0., 1.), (0., 1.), .UNSPECIFIED.)
   GEOMETRIC_REPRESENTATION_ITEM ()
   RATIONAL_B_SPLINE_SURFACE (((1., 0.707106781186547, 1.), (1., 0.707106781186547, 1.)))
   REPRESENTATION_ITEM ('')
   SURFACE ()
);
#838 = CARTESIAN_POINT('', (30., 15.5, -15.));
#839 = CARTESIAN_POINT('', (33., 15.5, -15.));
#840 = CARTESIAN_POINT('', (33., 12.5, -15.));
#841 = CARTESIAN_POINT('', (30., 15.5, 15.));
#842 = CARTESIAN_POINT('', (33., 15.5, 15.));
#843 = CARTESIAN_POINT('', (33., 12.5, 15.));
#844 = ADVANCED_FACE('', (#845), #851, .T.);
#845 = FACE_OUTER_BOUND('', #846, .T.);
#846 = EDGE_LOOP('', (#847, #848, #849, #850));
#847 = ORIENTED_EDGE('', *, *, #60, .F.);
#848 = ORIENTED_EDGE('', *, *, #594, .T.);
#849 = ORIENTED_EDGE('', *, *, #7, .T.);
#850 = ORIENTED_EDGE('', *, *, #113, .F.);
#851 = (
   BOUNDED_SURFACE ()
   B_SPLINE_SURFACE (2, 2, ((#852, #853, #854), (#855, #856, #857), (#858, #859, #860)), .UNSPECIFIED., .F., .F., .U.)
   B_SPLINE_SURFACE_WITH_KNOTS ((3, 3), (3, 3), (0., 1.), (0., 1.), .UNSPECIFIED.)
   GEOMETRIC_REPRESENTATION_ITEM ()
   RATIONAL_B_SPLINE_SURFACE (((1., 0.707106781186548, 1.), (0.707106781186548, 0.500000000000001, 0.707106781186548), (1., 0.707106781186548, 1.)))
   REPRESENTATION_ITEM ('')
   SURFACE ()
);
#852 = CARTESIAN_POINT('', (22.5, 20., 18.));
#853 = CARTESIAN_POINT('', (25.5, 20., 18.));
#854 = CARTESIAN_POINT('', (25.5, 20., 15.));
#855 = CARTESIAN_POINT('', (22.5, 12.5, 18.));
#856 = CARTESIAN_POINT('', (25.5, 15.5, 18.));
#857 = CARTESIAN_POINT('', (25.5, 15.5, 15.));
#858 = CARTESIAN_POINT('', (30., 12.5, 18.));
#859 = CARTESIAN_POINT('', (30., 15.5, 18.));
#860 = CARTESIAN_POINT('', (30., 15.5, 15.));
#861 = DRAUGHTING_MODEL('', (#869, #1015), #1018);
#862 = PRESENTATION_STYLE_ASSIGNMENT((#863));
#863 = SURFACE_STYLE_USAGE(.POSITIVE., #864);
#864 = SURFACE_SIDE_STYLE('', (#865));
#865 = SURFACE_STYLE_FILL_AREA(#866);
#866 = FILL_AREA_STYLE('', (#867));
#867 = FILL_AREA_STYLE_COLOUR('', #868);
#868 = COLOUR_RGB('', 0.8, 0.8, 0.8);
#869 = STYLED_ITEM('', (#862), #1);
#870 = MANIFOLD_SOLID_BREP('Solid0', #871);
#871 = CLOSED_SHELL('', (#872, #908, #936, #964, #984, #996));
#872 = ADVANCED_FACE('', (#873), #903, .T.);
#873 = FACE_OUTER_BOUND('', #874, .T.);
#874 = EDGE_LOOP('', (#875, #884, #891, #898));
#875 = ORIENTED_EDGE('', *, *, #876, .T.);
#876 = EDGE_CURVE('', #877, #879, #881, .T.);
#877 = VERTEX_POINT('', #878);
#878 = CARTESIAN_POINT('', (76., 4., -4.));
#879 = VERTEX_POINT('', #880);
#880 = CARTESIAN_POINT('', (76., 4., 4.));
#881 = B_SPLINE_CURVE_WITH_KNOTS('', 1, (#882, #883), .UNSPECIFIED., .F., .U., (2, 2), (0., 8.), .UNSPECIFIED.);
#882 = CARTESIAN_POINT('', (76., 4., -4.));
#883 = CARTESIAN_POINT('', (76., 4., 4.));
#884 = ORIENTED_EDGE('', *, *, #885, .T.);
#885 = EDGE_CURVE('', #879, #886, #888, .T.);
#886 = VERTEX_POINT('', #887);
#887 = CARTESIAN_POINT('', (84., 4., 4.));
#888 = B_SPLINE_CURVE_WITH_KNOTS('', 1, (#889, #890), .UNSPECIFIED., .F., .U., (2, 2), (0., 8.), .UNSPECIFIED.);
#889 = CARTESIAN_POINT('', (76., 4., 4.));
#890 = CARTESIAN_POINT('', (84., 4., 4.));
#891 = ORIENTED_EDGE('', *, *, #892, .F.);
#892 = EDGE_CURVE('', #893, #886, #895, .T.);
#893 = VERTEX_POINT('', #894);
#894 = CARTESIAN_POINT('', (84., 4., -4.));
#895 = B_SPLINE_CURVE_WITH_KNOTS('', 1, (#896, #897), .UNSPECIFIED., .F., .U., (2, 2), (0., 8.), .UNSPECIFIED.);
#896 = CARTESIAN_POINT('', (84., 4., -4.));
#897 = CARTESIAN_POINT('', (84., 4., 4.));
#898 = ORIENTED_EDGE('', *, *, #899, .F.);
#899 = EDGE_CURVE('', #877, #893, #900, .T.);
#900 = B_SPLINE_CURVE_WITH_KNOTS('', 1, (#901, #902), .UNSPECIFIED., .F., .U., (2, 2), (0., 8.), .UNSPECIFIED.);
#901 = CARTESIAN_POINT('', (76., 4., -4.));
#902 = CARTESIAN_POINT('', (84., 4., -4.));
#903 = B_SPLINE_SURFACE_WITH_KNOTS('', 1, 1, ((#904, #905), (#906, #907)), .UNSPECIFIED., .F., .F., .U., (2, 2), (2, 2), (0., 8.), (0., 8.), .UNSPECIFIED.);
#904 = CARTESIAN_POINT('', (76., 4., -4.));
#905 = CARTESIAN_POINT('', (84., 4., -4.));
#906 = CARTESIAN_POINT('', (76., 4., 4.));
#907 = CARTESIAN_POINT('', (84., 4., 4.));
#908 = ADVANCED_FACE('', (#909), #931, .T.);
#909 = FACE_OUTER_BOUND('', #910, .T.);
#910 = EDGE_LOOP('', (#911, #918, #925, #930));
#911 = ORIENTED_EDGE('', *, *, #912, .F.);
#912 = EDGE_CURVE('', #913, #879, #915, .T.);
#913 = VERTEX_POINT('', #914);
#914 = CARTESIAN_POINT('', (76., -4., 4.));
#915 = B_SPLINE_CURVE_WITH_KNOTS('', 1, (#916, #917), .UNSPECIFIED., .F., .U., (2, 2), (0., 8.), .UNSPECIFIED.);
#916 = CARTESIAN_POINT('', (76., -4., 4.));
#917 = CARTESIAN_POINT('', (76., 4., 4.));
#918 = ORIENTED_EDGE('', *, *, #919, .T.);
#919 = EDGE_CURVE('', #913, #920, #922, .T.);
#920 = VERTEX_POINT('', #921);
#921 = CARTESIAN_POINT('', (84., -4., 4.));
#922 = B_SPLINE_CURVE_WITH_KNOTS('', 1, (#923, #924), .UNSPECIFIED., .F., .U., (2, 2), (0., 8.), .UNSPECIFIED.);
#923 = CARTESIAN_POINT('', (76., -4., 4.));
#924 = CARTESIAN_POINT('', (84., -4., 4.));
#925 = ORIENTED_EDGE('', *, *, #926, .T.);
#926 = EDGE_CURVE('', #920, #886, #927, .T.);
#927 = B_SPLINE_CURVE_WITH_KNOTS('', 1, (#928, #929), .UNSPECIFIED., .F., .U., (2, 2), (0., 8.), .UNSPECIFIED.);
#928 = CARTESIAN_POINT('', (84., -4., 4.));
#929 = CARTESIAN_POINT('', (84., 4., 4.));
#930 = ORIENTED_EDGE('', *, *, #885, .F.);
#931 = B_SPLINE_SURFACE_WITH_KNOTS('', 1, 1, ((#932, #933), (#934, #935)), .UNSPECIFIED., .F., .F., .U., (2, 2), (2, 2), (0., 8.), (0., 8.), .UNSPECIFIED.);
#932 = CARTESIAN_POINT('', (76., -4., 4.));
#933 = CARTESIAN_POINT('', (76., 4., 4.));
#934 = CARTESIAN_POINT('', (84., -4., 4.));
#935 = CARTESIAN_POINT('', (84., 4., 4.));
#936 = ADVANCED_FACE('', (#937), #959, .T.);
#937 = FACE_OUTER_BOUND('', #938, .T.);
#938 = EDGE_LOOP('', (#939, #946, #953, #958));
#939 = ORIENTED_EDGE('', *, *, #940, .F.);
#940 = EDGE_CURVE('', #941, #913, #943, .T.);
#941 = VERTEX_POINT('', #942);
#942 = CARTESIAN_POINT('', (76., -4., -4.));
#943 = B_SPLINE_CURVE_WITH_KNOTS('', 1, (#944, #945), .UNSPECIFIED., .F., .U., (2, 2), (0., 8.), .UNSPECIFIED.);
#944 = CARTESIAN_POINT('', (76., -4., -4.));
#945 = CARTESIAN_POINT('', (76., -4., 4.));
#946 = ORIENTED_EDGE('', *, *, #947, .T.);
#947 = EDGE_CURVE('', #941, #948, #950, .T.);
#948 = VERTEX_POINT('', #949);
#949 = CARTESIAN_POINT('', (84., -4., -4.));
#950 = B_SPLINE_CURVE_WITH_KNOTS('', 1, (#951, #952), .UNSPECIFIED., .F., .U., (2, 2), (0., 8.), .UNSPECIFIED.);
#951 = CARTESIAN_POINT('', (76., -4., -4.));
#952 = CARTESIAN_POINT('', (84., -4., -4.));
#953 = ORIENTED_EDGE('', *, *, #954, .T.);
#954 = EDGE_CURVE('', #948, #920, #955, .T.);
#955 = B_SPLINE_CURVE_WITH_KNOTS('', 1, (#956, #957), .UNSPECIFIED., .F., .U., (2, 2), (0., 8.), .UNSPECIFIED.);
#956 = CARTESIAN_POINT('', (84., -4., -4.));
#957 = CARTESIAN_POINT('', (84., -4., 4.));
#958 = ORIENTED_EDGE('', *, *, #919, .F.);
#959 = B_SPLINE_SURFACE_WITH_KNOTS('', 1, 1, ((#960, #961), (#962, #963)), .UNSPECIFIED., .F., .F., .U., (2, 2), (2, 2), (0., 8.), (0., 8.), .UNSPECIFIED.);
#960 = CARTESIAN_POINT('', (76., -4., -4.));
#961 = CARTESIAN_POINT('', (76., -4., 4.));
#962 = CARTESIAN_POINT('', (84., -4., -4.));
#963 = CARTESIAN_POINT('', (84., -4., 4.));
#964 = ADVANCED_FACE('', (#965), #979, .T.);
#965 = FACE_OUTER_BOUND('', #966, .T.);
#966 = EDGE_LOOP('', (#967, #972, #973, #978));
#967 = ORIENTED_EDGE('', *, *, #968, .T.);
#968 = EDGE_CURVE('', #941, #877, #969, .T.);
#969 = B_SPLINE_CURVE_WITH_KNOTS('', 1, (#970, #971), .UNSPECIFIED., .F., .U., (2, 2), (0., 8.), .UNSPECIFIED.);
#970 = CARTESIAN_POINT('', (76., -4., -4.));
#971 = CARTESIAN_POINT('', (76., 4., -4.));
#972 = ORIENTED_EDGE('', *, *, #899, .T.);
#973 = ORIENTED_EDGE('', *, *, #974, .F.);
#974 = EDGE_CURVE('', #948, #893, #975, .T.);
#975 = B_SPLINE_CURVE_WITH_KNOTS('', 1, (#976, #977), .UNSPECIFIED., .F., .U., (2, 2), (0., 8.), .UNSPECIFIED.);
#976 = CARTESIAN_POINT('', (84., -4., -4.));
#977 = CARTESIAN_POINT('', (84., 4., -4.));
#978 = ORIENTED_EDGE('', *, *, #947, .F.);
#979 = B_SPLINE_SURFACE_WITH_KNOTS('', 1, 1, ((#980, #981), (#982, #983)), .UNSPECIFIED., .F., .F., .U., (2, 2), (2, 2), (0., 8.), (0., 8.), .UNSPECIFIED.);
#980 = CARTESIAN_POINT('', (76., -4., -4.));
#981 = CARTESIAN_POINT('', (84., -4., -4.));
#982 = CARTESIAN_POINT('', (76., 4., -4.));
#983 = CARTESIAN_POINT('', (84., 4., -4.));
#984 = ADVANCED_FACE('', (#985), #991, .T.);
#985 = FACE_OUTER_BOUND('', #986, .T.);
#986 = EDGE_LOOP('', (#987, #988, #989, #990));
#987 = ORIENTED_EDGE('', *, *, #954, .F.);
#988 = ORIENTED_EDGE('', *, *, #974, .T.);
#989 = ORIENTED_EDGE('', *, *, #892, .T.);
#990 = ORIENTED_EDGE('', *, *, #926, .F.);
#991 = B_SPLINE_SURFACE_WITH_KNOTS('', 1, 1, ((#992, #993), (#994, #995)), .UNSPECIFIED., .F., .F., .U., (2, 2), (2, 2), (0., 8.), (0., 8.), .UNSPECIFIED.);
#992 = CARTESIAN_POINT('', (84., -4., -4.));
#993 = CARTESIAN_POINT('', (84., -4., 4.));
#994 = CARTESIAN_POINT('', (84., 4., -4.));
#995 = CARTESIAN_POINT('', (84., 4., 4.));
#996 = ADVANCED_FACE('', (#997), #1003, .T.);
#997 = FACE_OUTER_BOUND('', #998, .T.);
#998 = EDGE_LOOP('', (#999, #1000, #1001, #1002));
#999 = ORIENTED_EDGE('', *, *, #940, .T.);
#1000 = ORIENTED_EDGE('', *, *, #912, .T.);
#1001 = ORIENTED_EDGE('', *, *, #876, .F.);
#1002 = ORIENTED_EDGE('', *, *, #968, .F.);
#1003 = B_SPLINE_SURFACE_WITH_KNOTS('', 1, 1, ((#1004, #1005), (#1006, #1007)), .UNSPECIFIED., .F., .F., .U., (2, 2), (2, 2), (0., 8.), (0., 8.), .UNSPECIFIED.);
#1004 = CARTESIAN_POINT('', (76., -4., -4.));
#1005 = CARTESIAN_POINT('', (76., 4., -4.));
#1006 = CARTESIAN_POINT('', (76., -4., 4.));
#1007 = CARTESIAN_POINT('', (76., 4., 4.));
#1008 = PRESENTATION_STYLE_ASSIGNMENT((#1009));
#1009 = SURFACE_STYLE_USAGE(.POSITIVE., #1010);
#1010 = SURFACE_SIDE_STYLE('', (#1011));
#1011 = SURFACE_STYLE_FILL_AREA(#1012);
#1012 = FILL_AREA_STYLE('', (#1013));
#1013 = FILL_AREA_STYLE_COLOUR('', #1014);
#1014 = COLOUR_RGB('', 0.50196078431373, 0.50196078431373, 0.50196078431373);
#1015 = STYLED_ITEM('', (#1008), #870);
#1016 = CARTESIAN_POINT('Origin', (0., 0., 0.));
#1017 = GEOMETRIC_SET('', (#1016));
#1018 = (
   GEOMETRIC_REPRESENTATION_CONTEXT (3)
   GLOBAL_UNCERTAINTY_ASSIGNED_CONTEXT ((#1020))
   GLOBAL_UNIT_ASSIGNED_CONTEXT ((#1019, #1021, #1022))
   REPRESENTATION_CONTEXT ('', '3D')
);
#1019 = (
   LENGTH_UNIT ()
   NAMED_UNIT (*)
   SI_UNIT (.MILLI., .METRE.)
);
#1020 = UNCERTAINTY_MEASURE_WITH_UNIT(LENGTH_MEASURE(1.E-6), #1019, 'DISTANCE_ACCURACY_VALUE', '');
#1021 = (
   NAMED_UNIT (*)
   SI_UNIT ($, .STERADIAN.)
   SOLID_ANGLE_UNIT ()
);
#1022 = (
   NAMED_UNIT (*)
   PLANE_ANGLE_UNIT ()
   SI_UNIT ($, .RADIAN.)
);
#1023 = SHAPE_REPRESENTATION('', (#1038), #1018);
#1024 = PRODUCT_DEFINITION_SHAPE('', '', #1025);
#1025 = PRODUCT_DEFINITION('', '', #1028, #1032);
#1026 = APPLICATION_CONTEXT('configuration controlled 3D designs of mechanical parts and assemblies');
#1027 = APPLICATION_PROTOCOL_DEFINITION('International Standard', 'automotive_design', 2002, #1026);
#1028 = PRODUCT_DEFINITION_FORMATION_WITH_SPECIFIED_SOURCE('', '', #1029, .NOT_KNOWN.);
#1029 = PRODUCT('BoolOffset', 'BoolOffset', '', (#1030));
#1030 = PRODUCT_CONTEXT('', #1026, 'mechanical');
#1031 = PRODUCT_RELATED_PRODUCT_CATEGORY('detail', '', (#1029));
#1032 = PRODUCT_DEFINITION_CONTEXT('part definition', #1026, 'design');
#1033 = SHAPE_DEFINITION_REPRESENTATION(#1024, #1023);
#1034 = SHAPE_REPRESENTATION_RELATIONSHIP('', '', #1023, #1035);
#1035 = SHAPE_REPRESENTATION('', (#1017), #1018);
#1036 = SHAPE_REPRESENTATION_RELATIONSHIP('', '', #1023, #1037);
#1037 = ADVANCED_BREP_SHAPE_REPRESENTATION('', (#1, #870), #1018);
#1038 = AXIS2_PLACEMENT_3D('', #1039, #1040, #1041);
#1039 = CARTESIAN_POINT('', (0., 0., 0.));
#1040 = DIRECTION('', (0., 0., 1.));
#1041 = DIRECTION('', (1., 0., 0.));
ENDSEC;
END-ISO-10303-21;
