ISO-10303-21;
HEADER;
FILE_DESCRIPTION(('STEP'), '1');
FILE_NAME('ExtrusionOffset', '2026-04-15T12:18:02', (''), (''), 'Express 3.1.2.0', 'Express Tool', 'Unknown');
FILE_SCHEMA(('AUTOMOTIVE_DESIGN'));
ENDSEC;

DATA;
#1 = SHELL_BASED_SURFACE_MODEL('Solid', (#2, #46, #90, #134, #178, #210, #240, #284, #328, #372, #395, #439, #466, #498, #522, #554, #589, #612, #644, #679, #702, #725, #742, #759, #778, #801, #822, #841, #860, #879, #900, #921, #936, #951, #966));
#2 = OPEN_SHELL('', (#3));
#3 = ADVANCED_FACE('', (#4), #30, .T.);
#4 = FACE_OUTER_BOUND('', #5, .T.);
#5 = EDGE_LOOP('', (#6, #16, #24));
#6 = ORIENTED_EDGE('', *, *, #7, .F.);
#7 = EDGE_CURVE('', #8, #10, #12, .T.);
#8 = VERTEX_POINT('', #9);
#9 = CARTESIAN_POINT('', (40., 15., 23.));
#10 = VERTEX_POINT('', #11);
#11 = CARTESIAN_POINT('', (43., 15., 20.));
#12 = (
   BOUNDED_CURVE ()
   B_SPLINE_CURVE (2, (#13, #14, #15), .UNSPECIFIED., .F., .U.)
   B_SPLINE_CURVE_WITH_KNOTS ((3, 3), (0., 1.), .UNSPECIFIED.)
   CURVE ()
   GEOMETRIC_REPRESENTATION_ITEM ()
   RATIONAL_B_SPLINE_CURVE ((1., 0.707106781186547, 1.))
   REPRESENTATION_ITEM ('')
);
#13 = CARTESIAN_POINT('', (40., 15., 23.));
#14 = CARTESIAN_POINT('', (43., 15., 23.));
#15 = CARTESIAN_POINT('', (43., 15., 20.));
#16 = ORIENTED_EDGE('', *, *, #17, .T.);
#17 = EDGE_CURVE('', #8, #18, #20, .T.);
#18 = VERTEX_POINT('', #19);
#19 = CARTESIAN_POINT('', (40., 18., 20.));
#20 = (
   BOUNDED_CURVE ()
   B_SPLINE_CURVE (2, (#21, #22, #23), .UNSPECIFIED., .F., .U.)
   B_SPLINE_CURVE_WITH_KNOTS ((3, 3), (0., 1.), .UNSPECIFIED.)
   CURVE ()
   GEOMETRIC_REPRESENTATION_ITEM ()
   RATIONAL_B_SPLINE_CURVE ((1., 0.707106781186549, 1.))
   REPRESENTATION_ITEM ('')
);
#21 = CARTESIAN_POINT('', (40., 15., 23.));
#22 = CARTESIAN_POINT('', (40., 18., 23.));
#23 = CARTESIAN_POINT('', (40., 18., 20.));
#24 = ORIENTED_EDGE('', *, *, #25, .T.);
#25 = EDGE_CURVE('', #18, #10, #26, .T.);
#26 = (
   BOUNDED_CURVE ()
   B_SPLINE_CURVE (2, (#27, #28, #29), .UNSPECIFIED., .F., .U.)
   B_SPLINE_CURVE_WITH_KNOTS ((3, 3), (0., 1.), .UNSPECIFIED.)
   CURVE ()
   GEOMETRIC_REPRESENTATION_ITEM ()
   RATIONAL_B_SPLINE_CURVE ((1., 0.707106781186547, 1.))
   REPRESENTATION_ITEM ('')
);
#27 = CARTESIAN_POINT('', (40., 18., 20.));
#28 = CARTESIAN_POINT('', (43., 18., 20.));
#29 = CARTESIAN_POINT('', (43., 15., 20.));
#30 = (
   BOUNDED_SURFACE ()
   B_SPLINE_SURFACE (2, 2, ((#31, #32, #33), (#34, #35, #36), (#37, #38, #39), (#40, #41, #42), (#43, #44, #45)), .UNSPECIFIED., .F., .F., .U.)
   B_SPLINE_SURFACE_WITH_KNOTS ((3, 2, 3), (3, 3), (0., 0.5, 1.), (0., 1.), .UNSPECIFIED.)
   GEOMETRIC_REPRESENTATION_ITEM ()
   RATIONAL_B_SPLINE_SURFACE (((1., 0.707106781186547, 1.), (0.908143173825081, 0.642154196499988, 0.908143173825081), (1., 0.707106781186547, 1.), (0.908143173825081, 0.642154196499988, 0.908143173825081), (1., 0.707106781186547, 1.)))
   REPRESENTATION_ITEM ('')
   SURFACE ()
);
#31 = CARTESIAN_POINT('', (40., 15., 23.));
#32 = CARTESIAN_POINT('', (43., 15., 23.));
#33 = CARTESIAN_POINT('', (43., 15., 20.));
#34 = CARTESIAN_POINT('', (40., 15., 23.));
#35 = CARTESIAN_POINT('', (43., 16.383018943282, 23.));
#36 = CARTESIAN_POINT('', (43., 16.383018943282, 20.));
#37 = CARTESIAN_POINT('', (40., 15., 23.));
#38 = CARTESIAN_POINT('', (41.9483441449905, 17.2812178968001, 23.));
#39 = CARTESIAN_POINT('', (41.9483441449906, 17.2812178968001, 20.));
#40 = CARTESIAN_POINT('', (40., 15., 23.));
#41 = CARTESIAN_POINT('', (40.8966882899811, 18.1794168503182, 23.));
#42 = CARTESIAN_POINT('', (40.8966882899811, 18.1794168503182, 20.));
#43 = CARTESIAN_POINT('', (40., 15., 23.));
#44 = CARTESIAN_POINT('', (39.5306966048793, 17.9630650217854, 23.));
#45 = CARTESIAN_POINT('', (39.5306966048793, 17.9630650217854, 20.));
#46 = OPEN_SHELL('', (#47));
#47 = ADVANCED_FACE('', (#48), #74, .T.);
#48 = FACE_OUTER_BOUND('', #49, .T.);
#49 = EDGE_LOOP('', (#50, #60, #68));
#50 = ORIENTED_EDGE('', *, *, #51, .F.);
#51 = EDGE_CURVE('', #52, #54, #56, .T.);
#52 = VERTEX_POINT('', #53);
#53 = CARTESIAN_POINT('', (15., 40., 23.));
#54 = VERTEX_POINT('', #55);
#55 = CARTESIAN_POINT('', (15., 43., 20.));
#56 = (
   BOUNDED_CURVE ()
   B_SPLINE_CURVE (2, (#57, #58, #59), .UNSPECIFIED., .F., .U.)
   B_SPLINE_CURVE_WITH_KNOTS ((3, 3), (0., 1.), .UNSPECIFIED.)
   CURVE ()
   GEOMETRIC_REPRESENTATION_ITEM ()
   RATIONAL_B_SPLINE_CURVE ((1., 0.707106781186547, 1.))
   REPRESENTATION_ITEM ('')
);
#57 = CARTESIAN_POINT('', (15., 40., 23.));
#58 = CARTESIAN_POINT('', (15., 43., 23.));
#59 = CARTESIAN_POINT('', (15., 43., 20.));
#60 = ORIENTED_EDGE('', *, *, #61, .T.);
#61 = EDGE_CURVE('', #52, #62, #64, .T.);
#62 = VERTEX_POINT('', #63);
#63 = CARTESIAN_POINT('', (18., 40., 20.));
#64 = (
   BOUNDED_CURVE ()
   B_SPLINE_CURVE (2, (#65, #66, #67), .UNSPECIFIED., .F., .U.)
   B_SPLINE_CURVE_WITH_KNOTS ((3, 3), (0., 1.), .UNSPECIFIED.)
   CURVE ()
   GEOMETRIC_REPRESENTATION_ITEM ()
   RATIONAL_B_SPLINE_CURVE ((1., 0.707106781186549, 1.))
   REPRESENTATION_ITEM ('')
);
#65 = CARTESIAN_POINT('', (15., 40., 23.));
#66 = CARTESIAN_POINT('', (18., 40., 23.));
#67 = CARTESIAN_POINT('', (18., 40., 20.));
#68 = ORIENTED_EDGE('', *, *, #69, .F.);
#69 = EDGE_CURVE('', #54, #62, #70, .T.);
#70 = (
   BOUNDED_CURVE ()
   B_SPLINE_CURVE (2, (#71, #72, #73), .UNSPECIFIED., .F., .U.)
   B_SPLINE_CURVE_WITH_KNOTS ((3, 3), (0., 1.), .UNSPECIFIED.)
   CURVE ()
   GEOMETRIC_REPRESENTATION_ITEM ()
   RATIONAL_B_SPLINE_CURVE ((1., 0.707106781186547, 1.))
   REPRESENTATION_ITEM ('')
);
#71 = CARTESIAN_POINT('', (15., 43., 20.));
#72 = CARTESIAN_POINT('', (18., 43., 20.));
#73 = CARTESIAN_POINT('', (18., 40., 20.));
#74 = (
   BOUNDED_SURFACE ()
   B_SPLINE_SURFACE (2, 2, ((#75, #76, #77), (#78, #79, #80), (#81, #82, #83), (#84, #85, #86), (#87, #88, #89)), .UNSPECIFIED., .F., .F., .U.)
   B_SPLINE_SURFACE_WITH_KNOTS ((3, 2, 3), (3, 3), (0., 0.5, 1.), (0., 1.), .UNSPECIFIED.)
   GEOMETRIC_REPRESENTATION_ITEM ()
   RATIONAL_B_SPLINE_SURFACE (((1., 0.707106781186547, 1.), (0.908143173825081, 0.642154196499988, 0.908143173825081), (1., 0.707106781186547, 1.), (0.908143173825081, 0.642154196499988, 0.908143173825081), (1., 0.707106781186547, 1.)))
   REPRESENTATION_ITEM ('')
   SURFACE ()
);
#75 = CARTESIAN_POINT('', (15., 40., 23.));
#76 = CARTESIAN_POINT('', (15., 43., 23.));
#77 = CARTESIAN_POINT('', (15., 43., 20.));
#78 = CARTESIAN_POINT('', (15., 40., 23.));
#79 = CARTESIAN_POINT('', (16.383018943282, 43., 23.));
#80 = CARTESIAN_POINT('', (16.383018943282, 43., 20.));
#81 = CARTESIAN_POINT('', (15., 40., 23.));
#82 = CARTESIAN_POINT('', (17.2812178968001, 41.9483441449905, 23.));
#83 = CARTESIAN_POINT('', (17.2812178968001, 41.9483441449905, 20.));
#84 = CARTESIAN_POINT('', (15., 40., 23.));
#85 = CARTESIAN_POINT('', (18.1794168503182, 40.8966882899811, 23.));
#86 = CARTESIAN_POINT('', (18.1794168503182, 40.8966882899811, 20.));
#87 = CARTESIAN_POINT('', (15., 40., 23.));
#88 = CARTESIAN_POINT('', (17.9630650217854, 39.5306966048793, 23.));
#89 = CARTESIAN_POINT('', (17.9630650217854, 39.5306966048793, 20.));
#90 = OPEN_SHELL('', (#91));
#91 = ADVANCED_FACE('', (#92), #118, .T.);
#92 = FACE_OUTER_BOUND('', #93, .T.);
#93 = EDGE_LOOP('', (#94, #104, #112));
#94 = ORIENTED_EDGE('', *, *, #95, .F.);
#95 = EDGE_CURVE('', #96, #98, #100, .T.);
#96 = VERTEX_POINT('', #97);
#97 = CARTESIAN_POINT('', (43., -4.20725816117877E-30, 20.));
#98 = VERTEX_POINT('', #99);
#99 = CARTESIAN_POINT('', (40., -3., 20.));
#100 = (
   BOUNDED_CURVE ()
   B_SPLINE_CURVE (2, (#101, #102, #103), .UNSPECIFIED., .F., .U.)
   B_SPLINE_CURVE_WITH_KNOTS ((3, 3), (0., 1.), .UNSPECIFIED.)
   CURVE ()
   GEOMETRIC_REPRESENTATION_ITEM ()
   RATIONAL_B_SPLINE_CURVE ((1., 0.707106781186546, 1.))
   REPRESENTATION_ITEM ('')
);
#101 = CARTESIAN_POINT('', (43., -4.20725816117877E-30, 20.));
#102 = CARTESIAN_POINT('', (43., -3.00000000000001, 20.));
#103 = CARTESIAN_POINT('', (40., -3., 20.));
#104 = ORIENTED_EDGE('', *, *, #105, .F.);
#105 = EDGE_CURVE('', #106, #96, #108, .T.);
#106 = VERTEX_POINT('', #107);
#107 = CARTESIAN_POINT('', (40., -1.4791141972894E-31, 23.));
#108 = (
   BOUNDED_CURVE ()
   B_SPLINE_CURVE (2, (#109, #110, #111), .UNSPECIFIED., .F., .U.)
   B_SPLINE_CURVE_WITH_KNOTS ((3, 3), (0., 1.), .UNSPECIFIED.)
   CURVE ()
   GEOMETRIC_REPRESENTATION_ITEM ()
   RATIONAL_B_SPLINE_CURVE ((1., 0.707106781186547, 1.))
   REPRESENTATION_ITEM ('')
);
#109 = CARTESIAN_POINT('', (40., 0., 23.));
#110 = CARTESIAN_POINT('', (43., 0., 23.));
#111 = CARTESIAN_POINT('', (43., 0., 20.));
#112 = ORIENTED_EDGE('', *, *, #113, .T.);
#113 = EDGE_CURVE('', #106, #98, #114, .T.);
#114 = (
   BOUNDED_CURVE ()
   B_SPLINE_CURVE (2, (#115, #116, #117), .UNSPECIFIED., .F., .U.)
   B_SPLINE_CURVE_WITH_KNOTS ((3, 3), (0., 1.), .UNSPECIFIED.)
   CURVE ()
   GEOMETRIC_REPRESENTATION_ITEM ()
   RATIONAL_B_SPLINE_CURVE ((1., 0.707106781186547, 1.))
   REPRESENTATION_ITEM ('')
);
#115 = CARTESIAN_POINT('', (40., -1.4791141972894E-31, 23.));
#116 = CARTESIAN_POINT('', (40., -3., 23.));
#117 = CARTESIAN_POINT('', (40., -3., 20.));
#118 = (
   BOUNDED_SURFACE ()
   B_SPLINE_SURFACE (2, 2, ((#119, #120, #121), (#122, #123, #124), (#125, #126, #127), (#128, #129, #130), (#131, #132, #133)), .UNSPECIFIED., .F., .F., .U.)
   B_SPLINE_SURFACE_WITH_KNOTS ((3, 2, 3), (3, 3), (0., 0.5, 1.), (0., 1.), .UNSPECIFIED.)
   GEOMETRIC_REPRESENTATION_ITEM ()
   RATIONAL_B_SPLINE_SURFACE (((1., 0.707106781186546, 1.), (0.908143173825081, 0.642154196499987, 0.908143173825081), (1., 0.707106781186546, 1.), (0.908143173825081, 0.642154196499987, 0.908143173825081), (1., 0.707106781186546, 1.)))
   REPRESENTATION_ITEM ('')
   SURFACE ()
);
#119 = CARTESIAN_POINT('', (43., -4.20725816117876E-30, 20.));
#120 = CARTESIAN_POINT('', (43., -3.00000000000001, 20.));
#121 = CARTESIAN_POINT('', (40., -3., 20.));
#122 = CARTESIAN_POINT('', (43., -3.2756468785587E-15, 21.383018943282));
#123 = CARTESIAN_POINT('', (43., -3.00000000000001, 21.383018943282));
#124 = CARTESIAN_POINT('', (40., -3., 20.));
#125 = CARTESIAN_POINT('', (41.9483441449906, -5.40300935085748E-15, 22.2812178968001));
#126 = CARTESIAN_POINT('', (41.9483441449905, -3.00000000000001, 22.2812178968001));
#127 = CARTESIAN_POINT('', (40., -3., 20.));
#128 = CARTESIAN_POINT('', (40.8966882899811, -7.53037182315628E-15, 23.1794168503182));
#129 = CARTESIAN_POINT('', (40.8966882899811, -3.00000000000002, 23.1794168503182));
#130 = CARTESIAN_POINT('', (40., -3., 20.));
#131 = CARTESIAN_POINT('', (39.5306966048793, -7.01794775604825E-15, 22.9630650217854));
#132 = CARTESIAN_POINT('', (39.5306966048793, -3.00000000000002, 22.9630650217854));
#133 = CARTESIAN_POINT('', (40., -3., 20.));
#134 = OPEN_SHELL('', (#135));
#135 = ADVANCED_FACE('', (#136), #162, .T.);
#136 = FACE_OUTER_BOUND('', #137, .T.);
#137 = EDGE_LOOP('', (#138, #148, #156));
#138 = ORIENTED_EDGE('', *, *, #139, .F.);
#139 = EDGE_CURVE('', #140, #142, #144, .T.);
#140 = VERTEX_POINT('', #141);
#141 = CARTESIAN_POINT('', (-1.4791141972894E-31, 40., 23.));
#142 = VERTEX_POINT('', #143);
#143 = CARTESIAN_POINT('', (0., 43., 20.));
#144 = (
   BOUNDED_CURVE ()
   B_SPLINE_CURVE (2, (#145, #146, #147), .UNSPECIFIED., .F., .U.)
   B_SPLINE_CURVE_WITH_KNOTS ((3, 3), (0., 1.), .UNSPECIFIED.)
   CURVE ()
   GEOMETRIC_REPRESENTATION_ITEM ()
   RATIONAL_B_SPLINE_CURVE ((1., 0.707106781186547, 1.))
   REPRESENTATION_ITEM ('')
);
#145 = CARTESIAN_POINT('', (0., 40., 23.));
#146 = CARTESIAN_POINT('', (0., 43., 23.));
#147 = CARTESIAN_POINT('', (0., 43., 20.));
#148 = ORIENTED_EDGE('', *, *, #149, .T.);
#149 = EDGE_CURVE('', #140, #150, #152, .T.);
#150 = VERTEX_POINT('', #151);
#151 = CARTESIAN_POINT('', (-3., 40., 20.));
#152 = (
   BOUNDED_CURVE ()
   B_SPLINE_CURVE (2, (#153, #154, #155), .UNSPECIFIED., .F., .U.)
   B_SPLINE_CURVE_WITH_KNOTS ((3, 3), (0., 1.), .UNSPECIFIED.)
   CURVE ()
   GEOMETRIC_REPRESENTATION_ITEM ()
   RATIONAL_B_SPLINE_CURVE ((1., 0.707106781186547, 1.))
   REPRESENTATION_ITEM ('')
);
#153 = CARTESIAN_POINT('', (-1.4791141972894E-31, 40., 23.));
#154 = CARTESIAN_POINT('', (-3., 40., 23.));
#155 = CARTESIAN_POINT('', (-3., 40., 20.));
#156 = ORIENTED_EDGE('', *, *, #157, .T.);
#157 = EDGE_CURVE('', #150, #142, #158, .T.);
#158 = (
   BOUNDED_CURVE ()
   B_SPLINE_CURVE (2, (#159, #160, #161), .UNSPECIFIED., .F., .U.)
   B_SPLINE_CURVE_WITH_KNOTS ((3, 3), (0., 1.), .UNSPECIFIED.)
   CURVE ()
   GEOMETRIC_REPRESENTATION_ITEM ()
   RATIONAL_B_SPLINE_CURVE ((1., 0.707106781186547, 1.))
   REPRESENTATION_ITEM ('')
);
#159 = CARTESIAN_POINT('', (-3., 40., 20.));
#160 = CARTESIAN_POINT('', (-3., 43., 20.));
#161 = CARTESIAN_POINT('', (-1.07187543957223E-15, 43., 20.));
#162 = (
   BOUNDED_SURFACE ()
   B_SPLINE_SURFACE (2, 2, ((#163, #164, #165), (#166, #167, #168), (#169, #170, #171), (#172, #173, #174), (#175, #176, #177)), .UNSPECIFIED., .F., .F., .U.)
   B_SPLINE_SURFACE_WITH_KNOTS ((3, 2, 3), (3, 3), (0., 0.5, 1.), (0., 1.), .UNSPECIFIED.)
   GEOMETRIC_REPRESENTATION_ITEM ()
   RATIONAL_B_SPLINE_SURFACE (((1., 0.707106781186547, 1.), (0.908143173825081, 0.642154196499988, 0.908143173825081), (1., 0.707106781186547, 1.), (0.908143173825081, 0.642154196499988, 0.908143173825081), (1., 0.707106781186547, 1.)))
   REPRESENTATION_ITEM ('')
   SURFACE ()
);
#163 = CARTESIAN_POINT('', (0., 40., 23.));
#164 = CARTESIAN_POINT('', (-5.83874360135121E-47, 43., 23.));
#165 = CARTESIAN_POINT('', (-1.97215226305253E-31, 43., 20.));
#166 = CARTESIAN_POINT('', (0., 40., 23.));
#167 = CARTESIAN_POINT('', (-1.38301894328196, 43., 23.));
#168 = CARTESIAN_POINT('', (-1.38301894328195, 43., 20.));
#169 = CARTESIAN_POINT('', (0., 40., 23.));
#170 = CARTESIAN_POINT('', (-2.2812178968001, 41.9483441449906, 23.));
#171 = CARTESIAN_POINT('', (-2.28121789680009, 41.9483441449905, 20.));
#172 = CARTESIAN_POINT('', (0., 40., 23.));
#173 = CARTESIAN_POINT('', (-3.17941685031824, 40.8966882899811, 23.));
#174 = CARTESIAN_POINT('', (-3.17941685031824, 40.8966882899811, 20.));
#175 = CARTESIAN_POINT('', (0., 40., 23.));
#176 = CARTESIAN_POINT('', (-2.96306502178542, 39.5306966048793, 23.));
#177 = CARTESIAN_POINT('', (-2.96306502178542, 39.5306966048793, 20.));
#178 = OPEN_SHELL('', (#179));
#179 = ADVANCED_FACE('', (#180), #203, .T.);
#180 = FACE_OUTER_BOUND('', #181, .T.);
#181 = EDGE_LOOP('', (#182, #192, #197, #198));
#182 = ORIENTED_EDGE('', *, *, #183, .F.);
#183 = EDGE_CURVE('', #184, #186, #188, .T.);
#184 = VERTEX_POINT('', #185);
#185 = CARTESIAN_POINT('', (15., 15., 23.));
#186 = VERTEX_POINT('', #187);
#187 = CARTESIAN_POINT('', (18., 15., 20.));
#188 = (
   BOUNDED_CURVE ()
   B_SPLINE_CURVE (2, (#189, #190, #191), .UNSPECIFIED., .F., .U.)
   B_SPLINE_CURVE_WITH_KNOTS ((3, 3), (0., 1.), .UNSPECIFIED.)
   CURVE ()
   GEOMETRIC_REPRESENTATION_ITEM ()
   RATIONAL_B_SPLINE_CURVE ((1., 0.707106781186549, 1.))
   REPRESENTATION_ITEM ('')
);
#189 = CARTESIAN_POINT('', (15., 15., 23.));
#190 = CARTESIAN_POINT('', (18., 15., 23.));
#191 = CARTESIAN_POINT('', (18., 15., 20.));
#192 = ORIENTED_EDGE('', *, *, #193, .T.);
#193 = EDGE_CURVE('', #184, #52, #194, .T.);
#194 = B_SPLINE_CURVE_WITH_KNOTS('', 1, (#195, #196), .UNSPECIFIED., .F., .U., (2, 2), (0., 1.), .UNSPECIFIED.);
#195 = CARTESIAN_POINT('', (15., 15., 23.));
#196 = CARTESIAN_POINT('', (15., 40., 23.));
#197 = ORIENTED_EDGE('', *, *, #61, .T.);
#198 = ORIENTED_EDGE('', *, *, #199, .F.);
#199 = EDGE_CURVE('', #186, #62, #200, .T.);
#200 = B_SPLINE_CURVE_WITH_KNOTS('', 1, (#201, #202), .UNSPECIFIED., .F., .U., (2, 2), (0., 1.), .UNSPECIFIED.);
#201 = CARTESIAN_POINT('', (18., 15., 20.));
#202 = CARTESIAN_POINT('', (18., 40., 20.));
#203 = (
   BOUNDED_SURFACE ()
   B_SPLINE_SURFACE (1, 2, ((#204, #205, #206), (#207, #208, #209)), .UNSPECIFIED., .F., .F., .U.)
   B_SPLINE_SURFACE_WITH_KNOTS ((2, 2), (3, 3), (0., 1.), (0., 1.), .UNSPECIFIED.)
   GEOMETRIC_REPRESENTATION_ITEM ()
   RATIONAL_B_SPLINE_SURFACE (((1., 0.707106781186549, 1.), (1., 0.707106781186549, 1.)))
   REPRESENTATION_ITEM ('')
   SURFACE ()
);
#204 = CARTESIAN_POINT('', (15., 15., 23.));
#205 = CARTESIAN_POINT('', (18., 15., 23.));
#206 = CARTESIAN_POINT('', (18., 15., 20.));
#207 = CARTESIAN_POINT('', (15., 40., 23.));
#208 = CARTESIAN_POINT('', (18., 40., 23.));
#209 = CARTESIAN_POINT('', (18., 40., 20.));
#210 = OPEN_SHELL('', (#211));
#211 = ADVANCED_FACE('', (#212), #233, .T.);
#212 = FACE_OUTER_BOUND('', #213, .T.);
#213 = EDGE_LOOP('', (#214, #215, #220, #228));
#214 = ORIENTED_EDGE('', *, *, #17, .F.);
#215 = ORIENTED_EDGE('', *, *, #216, .T.);
#216 = EDGE_CURVE('', #8, #184, #217, .T.);
#217 = B_SPLINE_CURVE_WITH_KNOTS('', 1, (#218, #219), .UNSPECIFIED., .F., .U., (2, 2), (0., 1.), .UNSPECIFIED.);
#218 = CARTESIAN_POINT('', (40., 15., 23.));
#219 = CARTESIAN_POINT('', (15., 15., 23.));
#220 = ORIENTED_EDGE('', *, *, #221, .T.);
#221 = EDGE_CURVE('', #184, #222, #224, .T.);
#222 = VERTEX_POINT('', #223);
#223 = CARTESIAN_POINT('', (15., 18., 20.));
#224 = (
   BOUNDED_CURVE ()
   B_SPLINE_CURVE (2, (#225, #226, #227), .UNSPECIFIED., .F., .U.)
   B_SPLINE_CURVE_WITH_KNOTS ((3, 3), (0., 1.), .UNSPECIFIED.)
   CURVE ()
   GEOMETRIC_REPRESENTATION_ITEM ()
   RATIONAL_B_SPLINE_CURVE ((1., 0.707106781186549, 1.))
   REPRESENTATION_ITEM ('')
);
#225 = CARTESIAN_POINT('', (15., 15., 23.));
#226 = CARTESIAN_POINT('', (15., 18., 23.));
#227 = CARTESIAN_POINT('', (15., 18., 20.));
#228 = ORIENTED_EDGE('', *, *, #229, .F.);
#229 = EDGE_CURVE('', #18, #222, #230, .T.);
#230 = B_SPLINE_CURVE_WITH_KNOTS('', 1, (#231, #232), .UNSPECIFIED., .F., .U., (2, 2), (0., 1.), .UNSPECIFIED.);
#231 = CARTESIAN_POINT('', (40., 18., 20.));
#232 = CARTESIAN_POINT('', (15., 18., 20.));
#233 = (
   BOUNDED_SURFACE ()
   B_SPLINE_SURFACE (1, 2, ((#234, #235, #236), (#237, #238, #239)), .UNSPECIFIED., .F., .F., .U.)
   B_SPLINE_SURFACE_WITH_KNOTS ((2, 2), (3, 3), (0., 1.), (0., 1.), .UNSPECIFIED.)
   GEOMETRIC_REPRESENTATION_ITEM ()
   RATIONAL_B_SPLINE_SURFACE (((1., 0.707106781186549, 1.), (1., 0.707106781186549, 1.)))
   REPRESENTATION_ITEM ('')
   SURFACE ()
);
#234 = CARTESIAN_POINT('', (40., 15., 23.));
#235 = CARTESIAN_POINT('', (40., 18., 23.));
#236 = CARTESIAN_POINT('', (40., 18., 20.));
#237 = CARTESIAN_POINT('', (15., 15., 23.));
#238 = CARTESIAN_POINT('', (15., 18., 23.));
#239 = CARTESIAN_POINT('', (15., 18., 20.));
#240 = OPEN_SHELL('', (#241));
#241 = ADVANCED_FACE('', (#242), #268, .T.);
#242 = FACE_OUTER_BOUND('', #243, .T.);
#243 = EDGE_LOOP('', (#244, #254, #262));
#244 = ORIENTED_EDGE('', *, *, #245, .F.);
#245 = EDGE_CURVE('', #246, #248, #250, .T.);
#246 = VERTEX_POINT('', #247);
#247 = CARTESIAN_POINT('', (40., 18., 0.));
#248 = VERTEX_POINT('', #249);
#249 = CARTESIAN_POINT('', (43., 15., 0.));
#250 = (
   BOUNDED_CURVE ()
   B_SPLINE_CURVE (2, (#251, #252, #253), .UNSPECIFIED., .F., .U.)
   B_SPLINE_CURVE_WITH_KNOTS ((3, 3), (0., 1.), .UNSPECIFIED.)
   CURVE ()
   GEOMETRIC_REPRESENTATION_ITEM ()
   RATIONAL_B_SPLINE_CURVE ((1., 0.707106781186547, 1.))
   REPRESENTATION_ITEM ('')
);
#251 = CARTESIAN_POINT('', (40., 18., 0.));
#252 = CARTESIAN_POINT('', (43., 18., 0.));
#253 = CARTESIAN_POINT('', (43., 15., 0.));
#254 = ORIENTED_EDGE('', *, *, #255, .F.);
#255 = EDGE_CURVE('', #256, #246, #258, .T.);
#256 = VERTEX_POINT('', #257);
#257 = CARTESIAN_POINT('', (40., 15., -3.));
#258 = (
   BOUNDED_CURVE ()
   B_SPLINE_CURVE (2, (#259, #260, #261), .UNSPECIFIED., .F., .U.)
   B_SPLINE_CURVE_WITH_KNOTS ((3, 3), (0., 1.), .UNSPECIFIED.)
   CURVE ()
   GEOMETRIC_REPRESENTATION_ITEM ()
   RATIONAL_B_SPLINE_CURVE ((1., 0.707106781186548, 1.))
   REPRESENTATION_ITEM ('')
);
#259 = CARTESIAN_POINT('', (40., 15., -3.));
#260 = CARTESIAN_POINT('', (40., 18., -3.));
#261 = CARTESIAN_POINT('', (40., 18., -6.27786229722176E-16));
#262 = ORIENTED_EDGE('', *, *, #263, .T.);
#263 = EDGE_CURVE('', #256, #248, #264, .T.);
#264 = (
   BOUNDED_CURVE ()
   B_SPLINE_CURVE (2, (#265, #266, #267), .UNSPECIFIED., .F., .U.)
   B_SPLINE_CURVE_WITH_KNOTS ((3, 3), (0., 1.), .UNSPECIFIED.)
   CURVE ()
   GEOMETRIC_REPRESENTATION_ITEM ()
   RATIONAL_B_SPLINE_CURVE ((1., 0.707106781186547, 1.))
   REPRESENTATION_ITEM ('')
);
#265 = CARTESIAN_POINT('', (40., 15., -3.));
#266 = CARTESIAN_POINT('', (43., 15., -3.));
#267 = CARTESIAN_POINT('', (43., 15., -1.07187543957223E-15));
#268 = (
   BOUNDED_SURFACE ()
   B_SPLINE_SURFACE (2, 2, ((#269, #270, #271), (#272, #273, #274), (#275, #276, #277), (#278, #279, #280), (#281, #282, #283)), .UNSPECIFIED., .F., .F., .U.)
   B_SPLINE_SURFACE_WITH_KNOTS ((3, 2, 3), (3, 3), (0., 0.5, 1.), (0., 1.), .UNSPECIFIED.)
   GEOMETRIC_REPRESENTATION_ITEM ()
   RATIONAL_B_SPLINE_SURFACE (((1., 0.707106781186547, 1.), (0.908143173825081, 0.642154196499988, 0.908143173825081), (1., 0.707106781186547, 1.), (0.908143173825081, 0.642154196499988, 0.908143173825081), (1., 0.707106781186547, 1.)))
   REPRESENTATION_ITEM ('')
   SURFACE ()
);
#269 = CARTESIAN_POINT('', (40., 18., 0.));
#270 = CARTESIAN_POINT('', (43., 18., 0.));
#271 = CARTESIAN_POINT('', (43., 15., -1.97215226305253E-31));
#272 = CARTESIAN_POINT('', (40., 18., 0.));
#273 = CARTESIAN_POINT('', (43., 18., -1.38301894328196));
#274 = CARTESIAN_POINT('', (43., 15., -1.38301894328195));
#275 = CARTESIAN_POINT('', (40., 18., 0.));
#276 = CARTESIAN_POINT('', (41.9483441449906, 18., -2.2812178968001));
#277 = CARTESIAN_POINT('', (41.9483441449905, 15., -2.28121789680009));
#278 = CARTESIAN_POINT('', (40., 18., 0.));
#279 = CARTESIAN_POINT('', (40.8966882899811, 18., -3.17941685031824));
#280 = CARTESIAN_POINT('', (40.8966882899811, 15., -3.17941685031824));
#281 = CARTESIAN_POINT('', (40., 18., 0.));
#282 = CARTESIAN_POINT('', (39.5306966048793, 18., -2.96306502178542));
#283 = CARTESIAN_POINT('', (39.5306966048793, 15., -2.96306502178542));
#284 = OPEN_SHELL('', (#285));
#285 = ADVANCED_FACE('', (#286), #312, .T.);
#286 = FACE_OUTER_BOUND('', #287, .T.);
#287 = EDGE_LOOP('', (#288, #298, #306));
#288 = ORIENTED_EDGE('', *, *, #289, .F.);
#289 = EDGE_CURVE('', #290, #292, #294, .T.);
#290 = VERTEX_POINT('', #291);
#291 = CARTESIAN_POINT('', (15., 43., 0.));
#292 = VERTEX_POINT('', #293);
#293 = CARTESIAN_POINT('', (18., 40., -6.27786229722176E-16));
#294 = (
   BOUNDED_CURVE ()
   B_SPLINE_CURVE (2, (#295, #296, #297), .UNSPECIFIED., .F., .U.)
   B_SPLINE_CURVE_WITH_KNOTS ((3, 3), (0., 1.), .UNSPECIFIED.)
   CURVE ()
   GEOMETRIC_REPRESENTATION_ITEM ()
   RATIONAL_B_SPLINE_CURVE ((1., 0.707106781186547, 1.))
   REPRESENTATION_ITEM ('')
);
#295 = CARTESIAN_POINT('', (15., 43., 0.));
#296 = CARTESIAN_POINT('', (18., 43., 0.));
#297 = CARTESIAN_POINT('', (18., 40., 0.));
#298 = ORIENTED_EDGE('', *, *, #299, .F.);
#299 = EDGE_CURVE('', #300, #290, #302, .T.);
#300 = VERTEX_POINT('', #301);
#301 = CARTESIAN_POINT('', (15., 40., -3.));
#302 = (
   BOUNDED_CURVE ()
   B_SPLINE_CURVE (2, (#303, #304, #305), .UNSPECIFIED., .F., .U.)
   B_SPLINE_CURVE_WITH_KNOTS ((3, 3), (0., 1.), .UNSPECIFIED.)
   CURVE ()
   GEOMETRIC_REPRESENTATION_ITEM ()
   RATIONAL_B_SPLINE_CURVE ((1., 0.707106781186547, 1.))
   REPRESENTATION_ITEM ('')
);
#303 = CARTESIAN_POINT('', (15., 40., -3.));
#304 = CARTESIAN_POINT('', (15., 43., -3.));
#305 = CARTESIAN_POINT('', (15., 43., -1.07187543957223E-15));
#306 = ORIENTED_EDGE('', *, *, #307, .T.);
#307 = EDGE_CURVE('', #300, #292, #308, .T.);
#308 = (
   BOUNDED_CURVE ()
   B_SPLINE_CURVE (2, (#309, #310, #311), .UNSPECIFIED., .F., .U.)
   B_SPLINE_CURVE_WITH_KNOTS ((3, 3), (0., 1.), .UNSPECIFIED.)
   CURVE ()
   GEOMETRIC_REPRESENTATION_ITEM ()
   RATIONAL_B_SPLINE_CURVE ((1., 0.707106781186548, 1.))
   REPRESENTATION_ITEM ('')
);
#309 = CARTESIAN_POINT('', (15., 40., -3.));
#310 = CARTESIAN_POINT('', (18., 40., -3.));
#311 = CARTESIAN_POINT('', (18., 40., -6.27786229722176E-16));
#312 = (
   BOUNDED_SURFACE ()
   B_SPLINE_SURFACE (2, 2, ((#313, #314, #315), (#316, #317, #318), (#319, #320, #321), (#322, #323, #324), (#325, #326, #327)), .UNSPECIFIED., .F., .F., .U.)
   B_SPLINE_SURFACE_WITH_KNOTS ((3, 2, 3), (3, 3), (0., 0.5, 1.), (0., 1.), .UNSPECIFIED.)
   GEOMETRIC_REPRESENTATION_ITEM ()
   RATIONAL_B_SPLINE_SURFACE (((1., 0.707106781186547, 1.), (0.908143173825081, 0.642154196499988, 0.908143173825081), (1., 0.707106781186547, 1.), (0.908143173825081, 0.642154196499988, 0.908143173825081), (1., 0.707106781186547, 1.)))
   REPRESENTATION_ITEM ('')
   SURFACE ()
);
#313 = CARTESIAN_POINT('', (15., 43., -1.97215226305253E-31));
#314 = CARTESIAN_POINT('', (18., 43., 0.));
#315 = CARTESIAN_POINT('', (18., 40., 0.));
#316 = CARTESIAN_POINT('', (15., 43., -1.38301894328196));
#317 = CARTESIAN_POINT('', (18., 43., -1.38301894328196));
#318 = CARTESIAN_POINT('', (18., 40., 0.));
#319 = CARTESIAN_POINT('', (15., 41.9483441449905, -2.28121789680009));
#320 = CARTESIAN_POINT('', (18., 41.9483441449906, -2.2812178968001));
#321 = CARTESIAN_POINT('', (18., 40., 0.));
#322 = CARTESIAN_POINT('', (15., 40.8966882899811, -3.17941685031823));
#323 = CARTESIAN_POINT('', (18., 40.8966882899811, -3.17941685031824));
#324 = CARTESIAN_POINT('', (18., 40., 0.));
#325 = CARTESIAN_POINT('', (15., 39.5306966048793, -2.96306502178541));
#326 = CARTESIAN_POINT('', (18., 39.5306966048793, -2.96306502178542));
#327 = CARTESIAN_POINT('', (18., 40., 0.));
#328 = OPEN_SHELL('', (#329));
#329 = ADVANCED_FACE('', (#330), #356, .T.);
#330 = FACE_OUTER_BOUND('', #331, .T.);
#331 = EDGE_LOOP('', (#332, #342, #350));
#332 = ORIENTED_EDGE('', *, *, #333, .F.);
#333 = EDGE_CURVE('', #334, #336, #338, .T.);
#334 = VERTEX_POINT('', #335);
#335 = CARTESIAN_POINT('', (43., -4.20725816117877E-30, 0.));
#336 = VERTEX_POINT('', #337);
#337 = CARTESIAN_POINT('', (40., -3., 0.));
#338 = (
   BOUNDED_CURVE ()
   B_SPLINE_CURVE (2, (#339, #340, #341), .UNSPECIFIED., .F., .U.)
   B_SPLINE_CURVE_WITH_KNOTS ((3, 3), (0., 1.), .UNSPECIFIED.)
   CURVE ()
   GEOMETRIC_REPRESENTATION_ITEM ()
   RATIONAL_B_SPLINE_CURVE ((1., 0.707106781186546, 1.))
   REPRESENTATION_ITEM ('')
);
#339 = CARTESIAN_POINT('', (43., -4.20725816117877E-30, 0.));
#340 = CARTESIAN_POINT('', (43., -3.00000000000001, 0.));
#341 = CARTESIAN_POINT('', (40., -3., 0.));
#342 = ORIENTED_EDGE('', *, *, #343, .F.);
#343 = EDGE_CURVE('', #344, #334, #346, .T.);
#344 = VERTEX_POINT('', #345);
#345 = CARTESIAN_POINT('', (40., 0., -3.));
#346 = (
   BOUNDED_CURVE ()
   B_SPLINE_CURVE (2, (#347, #348, #349), .UNSPECIFIED., .F., .U.)
   B_SPLINE_CURVE_WITH_KNOTS ((3, 3), (0., 1.), .UNSPECIFIED.)
   CURVE ()
   GEOMETRIC_REPRESENTATION_ITEM ()
   RATIONAL_B_SPLINE_CURVE ((1., 0.707106781186547, 1.))
   REPRESENTATION_ITEM ('')
);
#347 = CARTESIAN_POINT('', (40., 0., -3.));
#348 = CARTESIAN_POINT('', (43., 0., -3.));
#349 = CARTESIAN_POINT('', (43., 0., -1.07187543957223E-15));
#350 = ORIENTED_EDGE('', *, *, #351, .T.);
#351 = EDGE_CURVE('', #344, #336, #352, .T.);
#352 = (
   BOUNDED_CURVE ()
   B_SPLINE_CURVE (2, (#353, #354, #355), .UNSPECIFIED., .F., .U.)
   B_SPLINE_CURVE_WITH_KNOTS ((3, 3), (0., 1.), .UNSPECIFIED.)
   CURVE ()
   GEOMETRIC_REPRESENTATION_ITEM ()
   RATIONAL_B_SPLINE_CURVE ((1., 0.707106781186547, 1.))
   REPRESENTATION_ITEM ('')
);
#353 = CARTESIAN_POINT('', (40., -1.64346021921045E-32, -3.));
#354 = CARTESIAN_POINT('', (40., -3., -3.));
#355 = CARTESIAN_POINT('', (40., -3., -6.27786229722166E-16));
#356 = (
   BOUNDED_SURFACE ()
   B_SPLINE_SURFACE (2, 2, ((#357, #358, #359), (#360, #361, #362), (#363, #364, #365), (#366, #367, #368), (#369, #370, #371)), .UNSPECIFIED., .F., .F., .U.)
   B_SPLINE_SURFACE_WITH_KNOTS ((3, 2, 3), (3, 3), (0., 0.5, 1.), (0., 1.), .UNSPECIFIED.)
   GEOMETRIC_REPRESENTATION_ITEM ()
   RATIONAL_B_SPLINE_SURFACE (((1., 0.707106781186546, 1.), (0.908143173825081, 0.642154196499987, 0.908143173825081), (1., 0.707106781186546, 1.), (0.908143173825081, 0.642154196499987, 0.908143173825081), (1., 0.707106781186546, 1.)))
   REPRESENTATION_ITEM ('')
   SURFACE ()
);
#357 = CARTESIAN_POINT('', (43., -4.20725816117877E-30, 4.93038065763132E-32));
#358 = CARTESIAN_POINT('', (43., -3.00000000000001, -2.9193718006756E-47));
#359 = CARTESIAN_POINT('', (40., -3., 0.));
#360 = CARTESIAN_POINT('', (43., -4.09455859819839E-16, -1.38301894328196));
#361 = CARTESIAN_POINT('', (43., -3.00000000000001, -1.38301894328196));
#362 = CARTESIAN_POINT('', (40., -3., 0.));
#363 = CARTESIAN_POINT('', (41.9483441449905, -6.75376168857188E-16, -2.28121789680009));
#364 = CARTESIAN_POINT('', (41.9483441449906, -3.00000000000001, -2.2812178968001));
#365 = CARTESIAN_POINT('', (40., -3., 0.));
#366 = CARTESIAN_POINT('', (40.8966882899811, -9.41296477894537E-16, -3.17941685031823));
#367 = CARTESIAN_POINT('', (40.8966882899811, -3.00000000000001, -3.17941685031824));
#368 = CARTESIAN_POINT('', (40., -3., 0.));
#369 = CARTESIAN_POINT('', (39.5306966048793, -8.77243469506033E-16, -2.96306502178541));
#370 = CARTESIAN_POINT('', (39.5306966048793, -3.00000000000001, -2.96306502178542));
#371 = CARTESIAN_POINT('', (40., -3., 0.));
#372 = OPEN_SHELL('', (#373));
#373 = ADVANCED_FACE('', (#374), #388, .T.);
#374 = FACE_OUTER_BOUND('', #375, .T.);
#375 = EDGE_LOOP('', (#376, #377, #382, #383));
#376 = ORIENTED_EDGE('', *, *, #343, .F.);
#377 = ORIENTED_EDGE('', *, *, #378, .T.);
#378 = EDGE_CURVE('', #344, #256, #379, .T.);
#379 = B_SPLINE_CURVE_WITH_KNOTS('', 1, (#380, #381), .UNSPECIFIED., .F., .U., (2, 2), (0., 1.), .UNSPECIFIED.);
#380 = CARTESIAN_POINT('', (40., 0., -3.));
#381 = CARTESIAN_POINT('', (40., 15., -3.));
#382 = ORIENTED_EDGE('', *, *, #263, .T.);
#383 = ORIENTED_EDGE('', *, *, #384, .F.);
#384 = EDGE_CURVE('', #334, #248, #385, .T.);
#385 = B_SPLINE_CURVE_WITH_KNOTS('', 1, (#386, #387), .UNSPECIFIED., .F., .U., (2, 2), (0., 1.), .UNSPECIFIED.);
#386 = CARTESIAN_POINT('', (43., 0., -1.07187543957223E-15));
#387 = CARTESIAN_POINT('', (43., 15., -1.07187543957223E-15));
#388 = (
   BOUNDED_SURFACE ()
   B_SPLINE_SURFACE (1, 2, ((#389, #390, #391), (#392, #393, #394)), .UNSPECIFIED., .F., .F., .U.)
   B_SPLINE_SURFACE_WITH_KNOTS ((2, 2), (3, 3), (0., 1.), (0., 1.), .UNSPECIFIED.)
   GEOMETRIC_REPRESENTATION_ITEM ()
   RATIONAL_B_SPLINE_SURFACE (((1., 0.707106781186547, 1.), (1., 0.707106781186547, 1.)))
   REPRESENTATION_ITEM ('')
   SURFACE ()
);
#389 = CARTESIAN_POINT('', (40., 0., -3.));
#390 = CARTESIAN_POINT('', (43., 0., -3.));
#391 = CARTESIAN_POINT('', (43., 0., -1.07187543957223E-15));
#392 = CARTESIAN_POINT('', (40., 15., -3.));
#393 = CARTESIAN_POINT('', (43., 15., -3.));
#394 = CARTESIAN_POINT('', (43., 15., -1.07187543957223E-15));
#395 = OPEN_SHELL('', (#396));
#396 = ADVANCED_FACE('', (#397), #423, .T.);
#397 = FACE_OUTER_BOUND('', #398, .T.);
#398 = EDGE_LOOP('', (#399, #409, #417));
#399 = ORIENTED_EDGE('', *, *, #400, .F.);
#400 = EDGE_CURVE('', #401, #403, #405, .T.);
#401 = VERTEX_POINT('', #402);
#402 = CARTESIAN_POINT('', (0., 40., -3.));
#403 = VERTEX_POINT('', #404);
#404 = CARTESIAN_POINT('', (0., 43., -1.07187543957223E-15));
#405 = (
   BOUNDED_CURVE ()
   B_SPLINE_CURVE (2, (#406, #407, #408), .UNSPECIFIED., .F., .U.)
   B_SPLINE_CURVE_WITH_KNOTS ((3, 3), (0., 1.), .UNSPECIFIED.)
   CURVE ()
   GEOMETRIC_REPRESENTATION_ITEM ()
   RATIONAL_B_SPLINE_CURVE ((1., 0.707106781186547, 1.))
   REPRESENTATION_ITEM ('')
);
#406 = CARTESIAN_POINT('', (0., 40., -3.));
#407 = CARTESIAN_POINT('', (0., 43., -3.));
#408 = CARTESIAN_POINT('', (0., 43., -1.07187543957223E-15));
#409 = ORIENTED_EDGE('', *, *, #410, .T.);
#410 = EDGE_CURVE('', #401, #411, #413, .T.);
#411 = VERTEX_POINT('', #412);
#412 = CARTESIAN_POINT('', (-3., 40., -6.27786229722166E-16));
#413 = (
   BOUNDED_CURVE ()
   B_SPLINE_CURVE (2, (#414, #415, #416), .UNSPECIFIED., .F., .U.)
   B_SPLINE_CURVE_WITH_KNOTS ((3, 3), (0., 1.), .UNSPECIFIED.)
   CURVE ()
   GEOMETRIC_REPRESENTATION_ITEM ()
   RATIONAL_B_SPLINE_CURVE ((1., 0.707106781186547, 1.))
   REPRESENTATION_ITEM ('')
);
#414 = CARTESIAN_POINT('', (-1.64346021921045E-32, 40., -3.));
#415 = CARTESIAN_POINT('', (-3., 40., -3.));
#416 = CARTESIAN_POINT('', (-3., 40., -6.27786229722166E-16));
#417 = ORIENTED_EDGE('', *, *, #418, .T.);
#418 = EDGE_CURVE('', #411, #403, #419, .T.);
#419 = (
   BOUNDED_CURVE ()
   B_SPLINE_CURVE (2, (#420, #421, #422), .UNSPECIFIED., .F., .U.)
   B_SPLINE_CURVE_WITH_KNOTS ((3, 3), (0., 1.), .UNSPECIFIED.)
   CURVE ()
   GEOMETRIC_REPRESENTATION_ITEM ()
   RATIONAL_B_SPLINE_CURVE ((1., 0.707106781186547, 1.))
   REPRESENTATION_ITEM ('')
);
#420 = CARTESIAN_POINT('', (-3., 40., 0.));
#421 = CARTESIAN_POINT('', (-3., 43., 0.));
#422 = CARTESIAN_POINT('', (-1.07187543957223E-15, 43., 0.));
#423 = (
   BOUNDED_SURFACE ()
   B_SPLINE_SURFACE (2, 2, ((#424, #425, #426), (#427, #428, #429), (#430, #431, #432), (#433, #434, #435), (#436, #437, #438)), .UNSPECIFIED., .F., .F., .U.)
   B_SPLINE_SURFACE_WITH_KNOTS ((3, 2, 3), (3, 3), (0., 0.5, 1.), (0., 1.), .UNSPECIFIED.)
   GEOMETRIC_REPRESENTATION_ITEM ()
   RATIONAL_B_SPLINE_SURFACE (((1., 0.707106781186547, 1.), (0.908143173825081, 0.642154196499988, 0.908143173825081), (1., 0.707106781186547, 1.), (0.908143173825081, 0.642154196499988, 0.908143173825081), (1., 0.707106781186547, 1.)))
   REPRESENTATION_ITEM ('')
   SURFACE ()
);
#424 = CARTESIAN_POINT('', (0., 40., -3.));
#425 = CARTESIAN_POINT('', (0., 43., -3.));
#426 = CARTESIAN_POINT('', (4.93038065763132E-32, 43., -1.07187543957223E-15));
#427 = CARTESIAN_POINT('', (0., 40., -3.));
#428 = CARTESIAN_POINT('', (-1.38301894328196, 43., -3.));
#429 = CARTESIAN_POINT('', (-1.38301894328196, 43., -1.48133129939206E-15));
#430 = CARTESIAN_POINT('', (0., 40., -3.));
#431 = CARTESIAN_POINT('', (-2.28121789680009, 41.9483441449905, -3.));
#432 = CARTESIAN_POINT('', (-2.28121789680009, 41.9483441449905, -1.74725160842941E-15));
#433 = CARTESIAN_POINT('', (0., 40., -3.));
#434 = CARTESIAN_POINT('', (-3.17941685031823, 40.8966882899811, -3.));
#435 = CARTESIAN_POINT('', (-3.17941685031823, 40.8966882899811, -2.01317191746676E-15));
#436 = CARTESIAN_POINT('', (0., 40., -3.));
#437 = CARTESIAN_POINT('', (-2.96306502178541, 39.5306966048793, -3.));
#438 = CARTESIAN_POINT('', (-2.96306502178541, 39.5306966048793, -1.94911890907826E-15));
#439 = OPEN_SHELL('', (#440));
#440 = ADVANCED_FACE('', (#441), #461, .T.);
#441 = FACE_OUTER_BOUND('', #442, .T.);
#442 = EDGE_LOOP('', (#443, #448, #455, #460));
#443 = ORIENTED_EDGE('', *, *, #444, .F.);
#444 = EDGE_CURVE('', #246, #18, #445, .T.);
#445 = B_SPLINE_CURVE_WITH_KNOTS('', 1, (#446, #447), .UNSPECIFIED., .F., .U., (2, 2), (0., 1.), .UNSPECIFIED.);
#446 = CARTESIAN_POINT('', (40., 18., 0.));
#447 = CARTESIAN_POINT('', (40., 18., 20.));
#448 = ORIENTED_EDGE('', *, *, #449, .T.);
#449 = EDGE_CURVE('', #246, #450, #452, .T.);
#450 = VERTEX_POINT('', #451);
#451 = CARTESIAN_POINT('', (15., 18., 0.));
#452 = B_SPLINE_CURVE_WITH_KNOTS('', 1, (#453, #454), .UNSPECIFIED., .F., .U., (2, 2), (0., 1.), .UNSPECIFIED.);
#453 = CARTESIAN_POINT('', (40., 18., -6.27786229722176E-16));
#454 = CARTESIAN_POINT('', (15., 18., -6.27786229722176E-16));
#455 = ORIENTED_EDGE('', *, *, #456, .T.);
#456 = EDGE_CURVE('', #450, #222, #457, .T.);
#457 = B_SPLINE_CURVE_WITH_KNOTS('', 1, (#458, #459), .UNSPECIFIED., .F., .U., (2, 2), (0., 1.), .UNSPECIFIED.);
#458 = CARTESIAN_POINT('', (15., 18., 0.));
#459 = CARTESIAN_POINT('', (15., 18., 20.));
#460 = ORIENTED_EDGE('', *, *, #229, .F.);
#461 = B_SPLINE_SURFACE_WITH_KNOTS('', 1, 1, ((#462, #463), (#464, #465)), .UNSPECIFIED., .F., .F., .U., (2, 2), (2, 2), (0., 1.), (0., 1.), .UNSPECIFIED.);
#462 = CARTESIAN_POINT('', (40., 18., 0.));
#463 = CARTESIAN_POINT('', (40., 18., 20.));
#464 = CARTESIAN_POINT('', (15., 18., 0.));
#465 = CARTESIAN_POINT('', (15., 18., 20.));
#466 = OPEN_SHELL('', (#467));
#467 = ADVANCED_FACE('', (#468), #491, .T.);
#468 = FACE_OUTER_BOUND('', #469, .T.);
#469 = EDGE_LOOP('', (#470, #480, #485, #486));
#470 = ORIENTED_EDGE('', *, *, #471, .F.);
#471 = EDGE_CURVE('', #472, #474, #476, .T.);
#472 = VERTEX_POINT('', #473);
#473 = CARTESIAN_POINT('', (15., 15., -3.));
#474 = VERTEX_POINT('', #475);
#475 = CARTESIAN_POINT('', (18., 15., -6.27786229722176E-16));
#476 = (
   BOUNDED_CURVE ()
   B_SPLINE_CURVE (2, (#477, #478, #479), .UNSPECIFIED., .F., .U.)
   B_SPLINE_CURVE_WITH_KNOTS ((3, 3), (0., 1.), .UNSPECIFIED.)
   CURVE ()
   GEOMETRIC_REPRESENTATION_ITEM ()
   RATIONAL_B_SPLINE_CURVE ((1., 0.707106781186548, 1.))
   REPRESENTATION_ITEM ('')
);
#477 = CARTESIAN_POINT('', (15., 15., -3.));
#478 = CARTESIAN_POINT('', (18., 15., -3.));
#479 = CARTESIAN_POINT('', (18., 15., -6.27786229722176E-16));
#480 = ORIENTED_EDGE('', *, *, #481, .T.);
#481 = EDGE_CURVE('', #472, #300, #482, .T.);
#482 = B_SPLINE_CURVE_WITH_KNOTS('', 1, (#483, #484), .UNSPECIFIED., .F., .U., (2, 2), (0., 1.), .UNSPECIFIED.);
#483 = CARTESIAN_POINT('', (15., 15., -3.));
#484 = CARTESIAN_POINT('', (15., 40., -3.));
#485 = ORIENTED_EDGE('', *, *, #307, .T.);
#486 = ORIENTED_EDGE('', *, *, #487, .F.);
#487 = EDGE_CURVE('', #474, #292, #488, .T.);
#488 = B_SPLINE_CURVE_WITH_KNOTS('', 1, (#489, #490), .UNSPECIFIED., .F., .U., (2, 2), (0., 1.), .UNSPECIFIED.);
#489 = CARTESIAN_POINT('', (18., 15., -6.27786229722176E-16));
#490 = CARTESIAN_POINT('', (18., 40., -6.27786229722176E-16));
#491 = (
   BOUNDED_SURFACE ()
   B_SPLINE_SURFACE (1, 2, ((#492, #493, #494), (#495, #496, #497)), .UNSPECIFIED., .F., .F., .U.)
   B_SPLINE_SURFACE_WITH_KNOTS ((2, 2), (3, 3), (0., 1.), (0., 1.), .UNSPECIFIED.)
   GEOMETRIC_REPRESENTATION_ITEM ()
   RATIONAL_B_SPLINE_SURFACE (((1., 0.707106781186548, 1.), (1., 0.707106781186548, 1.)))
   REPRESENTATION_ITEM ('')
   SURFACE ()
);
#492 = CARTESIAN_POINT('', (15., 15., -3.));
#493 = CARTESIAN_POINT('', (18., 15., -3.));
#494 = CARTESIAN_POINT('', (18., 15., -6.27786229722176E-16));
#495 = CARTESIAN_POINT('', (15., 40., -3.));
#496 = CARTESIAN_POINT('', (18., 40., -3.));
#497 = CARTESIAN_POINT('', (18., 40., -6.27786229722176E-16));
#498 = OPEN_SHELL('', (#499));
#499 = ADVANCED_FACE('', (#500), #515, .T.);
#500 = FACE_OUTER_BOUND('', #501, .T.);
#501 = EDGE_LOOP('', (#502, #503, #508, #514));
#502 = ORIENTED_EDGE('', *, *, #255, .F.);
#503 = ORIENTED_EDGE('', *, *, #504, .T.);
#504 = EDGE_CURVE('', #256, #472, #505, .T.);
#505 = B_SPLINE_CURVE_WITH_KNOTS('', 1, (#506, #507), .UNSPECIFIED., .F., .U., (2, 2), (0., 1.), .UNSPECIFIED.);
#506 = CARTESIAN_POINT('', (40., 15., -3.));
#507 = CARTESIAN_POINT('', (15., 15., -3.));
#508 = ORIENTED_EDGE('', *, *, #509, .T.);
#509 = EDGE_CURVE('', #472, #450, #510, .T.);
#510 = (
   BOUNDED_CURVE ()
   B_SPLINE_CURVE (2, (#511, #512, #513), .UNSPECIFIED., .F., .U.)
   B_SPLINE_CURVE_WITH_KNOTS ((3, 3), (0., 1.), .UNSPECIFIED.)
   CURVE ()
   GEOMETRIC_REPRESENTATION_ITEM ()
   RATIONAL_B_SPLINE_CURVE ((1., 0.707106781186548, 1.))
   REPRESENTATION_ITEM ('')
);
#511 = CARTESIAN_POINT('', (15., 15., -3.));
#512 = CARTESIAN_POINT('', (15., 18., -3.));
#513 = CARTESIAN_POINT('', (15., 18., -6.27786229722176E-16));
#514 = ORIENTED_EDGE('', *, *, #449, .F.);
#515 = (
   BOUNDED_SURFACE ()
   B_SPLINE_SURFACE (1, 2, ((#516, #517, #518), (#519, #520, #521)), .UNSPECIFIED., .F., .F., .U.)
   B_SPLINE_SURFACE_WITH_KNOTS ((2, 2), (3, 3), (0., 1.), (0., 1.), .UNSPECIFIED.)
   GEOMETRIC_REPRESENTATION_ITEM ()
   RATIONAL_B_SPLINE_SURFACE (((1., 0.707106781186548, 1.), (1., 0.707106781186548, 1.)))
   REPRESENTATION_ITEM ('')
   SURFACE ()
);
#516 = CARTESIAN_POINT('', (40., 15., -3.));
#517 = CARTESIAN_POINT('', (40., 18., -3.));
#518 = CARTESIAN_POINT('', (40., 18., -6.27786229722176E-16));
#519 = CARTESIAN_POINT('', (15., 15., -3.));
#520 = CARTESIAN_POINT('', (15., 18., -3.));
#521 = CARTESIAN_POINT('', (15., 18., -6.27786229722176E-16));
#522 = OPEN_SHELL('', (#523));
#523 = ADVANCED_FACE('', (#524), #547, .T.);
#524 = FACE_OUTER_BOUND('', #525, .T.);
#525 = EDGE_LOOP('', (#526, #527, #534, #542));
#526 = ORIENTED_EDGE('', *, *, #149, .F.);
#527 = ORIENTED_EDGE('', *, *, #528, .T.);
#528 = EDGE_CURVE('', #140, #529, #531, .T.);
#529 = VERTEX_POINT('', #530);
#530 = CARTESIAN_POINT('', (-1.4791141972894E-31, 0., 23.));
#531 = B_SPLINE_CURVE_WITH_KNOTS('', 1, (#532, #533), .UNSPECIFIED., .F., .U., (2, 2), (0., 1.), .UNSPECIFIED.);
#532 = CARTESIAN_POINT('', (-1.4791141972894E-31, 40., 23.));
#533 = CARTESIAN_POINT('', (-1.4791141972894E-31, 0., 23.));
#534 = ORIENTED_EDGE('', *, *, #535, .T.);
#535 = EDGE_CURVE('', #529, #536, #538, .T.);
#536 = VERTEX_POINT('', #537);
#537 = CARTESIAN_POINT('', (-3., 0., 20.));
#538 = (
   BOUNDED_CURVE ()
   B_SPLINE_CURVE (2, (#539, #540, #541), .UNSPECIFIED., .F., .U.)
   B_SPLINE_CURVE_WITH_KNOTS ((3, 3), (0., 1.), .UNSPECIFIED.)
   CURVE ()
   GEOMETRIC_REPRESENTATION_ITEM ()
   RATIONAL_B_SPLINE_CURVE ((1., 0.707106781186547, 1.))
   REPRESENTATION_ITEM ('')
);
#539 = CARTESIAN_POINT('', (-1.4791141972894E-31, 0., 23.));
#540 = CARTESIAN_POINT('', (-3., 0., 23.));
#541 = CARTESIAN_POINT('', (-3., 0., 20.));
#542 = ORIENTED_EDGE('', *, *, #543, .F.);
#543 = EDGE_CURVE('', #150, #536, #544, .T.);
#544 = B_SPLINE_CURVE_WITH_KNOTS('', 1, (#545, #546), .UNSPECIFIED., .F., .U., (2, 2), (0., 1.), .UNSPECIFIED.);
#545 = CARTESIAN_POINT('', (-3., 40., 20.));
#546 = CARTESIAN_POINT('', (-3., 0., 20.));
#547 = (
   BOUNDED_SURFACE ()
   B_SPLINE_SURFACE (1, 2, ((#548, #549, #550), (#551, #552, #553)), .UNSPECIFIED., .F., .F., .U.)
   B_SPLINE_SURFACE_WITH_KNOTS ((2, 2), (3, 3), (0., 1.), (0., 1.), .UNSPECIFIED.)
   GEOMETRIC_REPRESENTATION_ITEM ()
   RATIONAL_B_SPLINE_SURFACE (((1., 0.707106781186547, 1.), (1., 0.707106781186547, 1.)))
   REPRESENTATION_ITEM ('')
   SURFACE ()
);
#548 = CARTESIAN_POINT('', (-1.4791141972894E-31, 40., 23.));
#549 = CARTESIAN_POINT('', (-3., 40., 23.));
#550 = CARTESIAN_POINT('', (-3., 40., 20.));
#551 = CARTESIAN_POINT('', (-1.4791141972894E-31, 0., 23.));
#552 = CARTESIAN_POINT('', (-3., 0., 23.));
#553 = CARTESIAN_POINT('', (-3., 0., 20.));
#554 = OPEN_SHELL('', (#555));
#555 = ADVANCED_FACE('', (#556), #573, .T.);
#556 = FACE_OUTER_BOUND('', #557, .T.);
#557 = EDGE_LOOP('', (#558, #566, #567));
#558 = ORIENTED_EDGE('', *, *, #559, .F.);
#559 = EDGE_CURVE('', #536, #560, #562, .T.);
#560 = VERTEX_POINT('', #561);
#561 = CARTESIAN_POINT('', (-6.27786229722166E-16, -3., 20.));
#562 = (
   BOUNDED_CURVE ()
   B_SPLINE_CURVE (2, (#563, #564, #565), .UNSPECIFIED., .F., .U.)
   B_SPLINE_CURVE_WITH_KNOTS ((3, 3), (0., 1.), .UNSPECIFIED.)
   CURVE ()
   GEOMETRIC_REPRESENTATION_ITEM ()
   RATIONAL_B_SPLINE_CURVE ((1., 0.707106781186547, 1.))
   REPRESENTATION_ITEM ('')
);
#563 = CARTESIAN_POINT('', (-3., -1.64346021921045E-32, 20.));
#564 = CARTESIAN_POINT('', (-3., -3., 20.));
#565 = CARTESIAN_POINT('', (-6.27786229722166E-16, -3., 20.));
#566 = ORIENTED_EDGE('', *, *, #535, .F.);
#567 = ORIENTED_EDGE('', *, *, #568, .T.);
#568 = EDGE_CURVE('', #529, #560, #569, .T.);
#569 = (
   BOUNDED_CURVE ()
   B_SPLINE_CURVE (2, (#570, #571, #572), .UNSPECIFIED., .F., .U.)
   B_SPLINE_CURVE_WITH_KNOTS ((3, 3), (0., 1.), .UNSPECIFIED.)
   CURVE ()
   GEOMETRIC_REPRESENTATION_ITEM ()
   RATIONAL_B_SPLINE_CURVE ((1., 0.707106781186547, 1.))
   REPRESENTATION_ITEM ('')
);
#570 = CARTESIAN_POINT('', (0., -1.4791141972894E-31, 23.));
#571 = CARTESIAN_POINT('', (0., -3., 23.));
#572 = CARTESIAN_POINT('', (0., -3., 20.));
#573 = (
   BOUNDED_SURFACE ()
   B_SPLINE_SURFACE (2, 2, ((#574, #575, #576), (#577, #578, #579), (#580, #581, #582), (#583, #584, #585), (#586, #587, #588)), .UNSPECIFIED., .F., .F., .U.)
   B_SPLINE_SURFACE_WITH_KNOTS ((3, 2, 3), (3, 3), (0., 0.5, 1.), (0., 1.), .UNSPECIFIED.)
   GEOMETRIC_REPRESENTATION_ITEM ()
   RATIONAL_B_SPLINE_SURFACE (((1., 0.707106781186547, 1.), (0.908143173825081, 0.642154196499988, 0.908143173825081), (1., 0.707106781186547, 1.), (0.908143173825081, 0.642154196499988, 0.908143173825081), (1., 0.707106781186547, 1.)))
   REPRESENTATION_ITEM ('')
   SURFACE ()
);
#574 = CARTESIAN_POINT('', (-3., -1.64346021921045E-32, 20.));
#575 = CARTESIAN_POINT('', (-3., -3., 20.));
#576 = CARTESIAN_POINT('', (-6.27786229722166E-16, -3., 20.));
#577 = CARTESIAN_POINT('', (-3., -1.64346021921045E-32, 20.));
#578 = CARTESIAN_POINT('', (-3., -3., 21.383018943282));
#579 = CARTESIAN_POINT('', (-6.27786229722166E-16, -3., 21.383018943282));
#580 = CARTESIAN_POINT('', (-3., -1.64346021921045E-32, 20.));
#581 = CARTESIAN_POINT('', (-3., -1.94834414499055, 22.2812178968001));
#582 = CARTESIAN_POINT('', (-6.27786229722166E-16, -1.94834414499055, 22.2812178968001));
#583 = CARTESIAN_POINT('', (-3., -1.64346021921045E-32, 20.));
#584 = CARTESIAN_POINT('', (-3., -0.8966882899811, 23.1794168503182));
#585 = CARTESIAN_POINT('', (-6.27786229722166E-16, -0.896688289981103, 23.1794168503182));
#586 = CARTESIAN_POINT('', (-3., -1.64346021921045E-32, 20.));
#587 = CARTESIAN_POINT('', (-3., 0.469303395120694, 22.9630650217854));
#588 = CARTESIAN_POINT('', (-6.27786229722166E-16, 0.469303395120694, 22.9630650217854));
#589 = OPEN_SHELL('', (#590));
#590 = ADVANCED_FACE('', (#591), #605, .T.);
#591 = FACE_OUTER_BOUND('', #592, .T.);
#592 = EDGE_LOOP('', (#593, #594, #599, #600));
#593 = ORIENTED_EDGE('', *, *, #568, .F.);
#594 = ORIENTED_EDGE('', *, *, #595, .T.);
#595 = EDGE_CURVE('', #529, #106, #596, .T.);
#596 = B_SPLINE_CURVE_WITH_KNOTS('', 1, (#597, #598), .UNSPECIFIED., .F., .U., (2, 2), (0., 1.), .UNSPECIFIED.);
#597 = CARTESIAN_POINT('', (0., -1.4791141972894E-31, 23.));
#598 = CARTESIAN_POINT('', (40., -1.4791141972894E-31, 23.));
#599 = ORIENTED_EDGE('', *, *, #113, .T.);
#600 = ORIENTED_EDGE('', *, *, #601, .F.);
#601 = EDGE_CURVE('', #560, #98, #602, .T.);
#602 = B_SPLINE_CURVE_WITH_KNOTS('', 1, (#603, #604), .UNSPECIFIED., .F., .U., (2, 2), (0., 1.), .UNSPECIFIED.);
#603 = CARTESIAN_POINT('', (0., -3., 20.));
#604 = CARTESIAN_POINT('', (40., -3., 20.));
#605 = (
   BOUNDED_SURFACE ()
   B_SPLINE_SURFACE (1, 2, ((#606, #607, #608), (#609, #610, #611)), .UNSPECIFIED., .F., .F., .U.)
   B_SPLINE_SURFACE_WITH_KNOTS ((2, 2), (3, 3), (0., 1.), (0., 1.), .UNSPECIFIED.)
   GEOMETRIC_REPRESENTATION_ITEM ()
   RATIONAL_B_SPLINE_SURFACE (((1., 0.707106781186547, 1.), (1., 0.707106781186547, 1.)))
   REPRESENTATION_ITEM ('')
   SURFACE ()
);
#606 = CARTESIAN_POINT('', (0., -1.4791141972894E-31, 23.));
#607 = CARTESIAN_POINT('', (0., -3., 23.));
#608 = CARTESIAN_POINT('', (0., -3., 20.));
#609 = CARTESIAN_POINT('', (40., -1.4791141972894E-31, 23.));
#610 = CARTESIAN_POINT('', (40., -3., 23.));
#611 = CARTESIAN_POINT('', (40., -3., 20.));
#612 = OPEN_SHELL('', (#613));
#613 = ADVANCED_FACE('', (#614), #637, .T.);
#614 = FACE_OUTER_BOUND('', #615, .T.);
#615 = EDGE_LOOP('', (#616, #617, #624, #632));
#616 = ORIENTED_EDGE('', *, *, #410, .F.);
#617 = ORIENTED_EDGE('', *, *, #618, .T.);
#618 = EDGE_CURVE('', #401, #619, #621, .T.);
#619 = VERTEX_POINT('', #620);
#620 = CARTESIAN_POINT('', (-1.64346021921045E-32, 0., -3.));
#621 = B_SPLINE_CURVE_WITH_KNOTS('', 1, (#622, #623), .UNSPECIFIED., .F., .U., (2, 2), (0., 1.), .UNSPECIFIED.);
#622 = CARTESIAN_POINT('', (-1.64346021921045E-32, 40., -3.));
#623 = CARTESIAN_POINT('', (-1.64346021921045E-32, 0., -3.));
#624 = ORIENTED_EDGE('', *, *, #625, .T.);
#625 = EDGE_CURVE('', #619, #626, #628, .T.);
#626 = VERTEX_POINT('', #627);
#627 = CARTESIAN_POINT('', (-3., 0., -6.27786229722166E-16));
#628 = (
   BOUNDED_CURVE ()
   B_SPLINE_CURVE (2, (#629, #630, #631), .UNSPECIFIED., .F., .U.)
   B_SPLINE_CURVE_WITH_KNOTS ((3, 3), (0., 1.), .UNSPECIFIED.)
   CURVE ()
   GEOMETRIC_REPRESENTATION_ITEM ()
   RATIONAL_B_SPLINE_CURVE ((1., 0.707106781186547, 1.))
   REPRESENTATION_ITEM ('')
);
#629 = CARTESIAN_POINT('', (-1.64346021921045E-32, 0., -3.));
#630 = CARTESIAN_POINT('', (-3., 0., -3.));
#631 = CARTESIAN_POINT('', (-3., 0., -6.27786229722166E-16));
#632 = ORIENTED_EDGE('', *, *, #633, .F.);
#633 = EDGE_CURVE('', #411, #626, #634, .T.);
#634 = B_SPLINE_CURVE_WITH_KNOTS('', 1, (#635, #636), .UNSPECIFIED., .F., .U., (2, 2), (0., 1.), .UNSPECIFIED.);
#635 = CARTESIAN_POINT('', (-3., 40., -6.27786229722166E-16));
#636 = CARTESIAN_POINT('', (-3., 0., -6.27786229722166E-16));
#637 = (
   BOUNDED_SURFACE ()
   B_SPLINE_SURFACE (1, 2, ((#638, #639, #640), (#641, #642, #643)), .UNSPECIFIED., .F., .F., .U.)
   B_SPLINE_SURFACE_WITH_KNOTS ((2, 2), (3, 3), (0., 1.), (0., 1.), .UNSPECIFIED.)
   GEOMETRIC_REPRESENTATION_ITEM ()
   RATIONAL_B_SPLINE_SURFACE (((1., 0.707106781186547, 1.), (1., 0.707106781186547, 1.)))
   REPRESENTATION_ITEM ('')
   SURFACE ()
);
#638 = CARTESIAN_POINT('', (-1.64346021921045E-32, 40., -3.));
#639 = CARTESIAN_POINT('', (-3., 40., -3.));
#640 = CARTESIAN_POINT('', (-3., 40., -6.27786229722166E-16));
#641 = CARTESIAN_POINT('', (-1.64346021921045E-32, 0., -3.));
#642 = CARTESIAN_POINT('', (-3., 0., -3.));
#643 = CARTESIAN_POINT('', (-3., 0., -6.27786229722166E-16));
#644 = OPEN_SHELL('', (#645));
#645 = ADVANCED_FACE('', (#646), #663, .T.);
#646 = FACE_OUTER_BOUND('', #647, .T.);
#647 = EDGE_LOOP('', (#648, #656, #657));
#648 = ORIENTED_EDGE('', *, *, #649, .F.);
#649 = EDGE_CURVE('', #626, #650, #652, .T.);
#650 = VERTEX_POINT('', #651);
#651 = CARTESIAN_POINT('', (-6.27786229722166E-16, -3., 0.));
#652 = (
   BOUNDED_CURVE ()
   B_SPLINE_CURVE (2, (#653, #654, #655), .UNSPECIFIED., .F., .U.)
   B_SPLINE_CURVE_WITH_KNOTS ((3, 3), (0., 1.), .UNSPECIFIED.)
   CURVE ()
   GEOMETRIC_REPRESENTATION_ITEM ()
   RATIONAL_B_SPLINE_CURVE ((1., 0.707106781186547, 1.))
   REPRESENTATION_ITEM ('')
);
#653 = CARTESIAN_POINT('', (-3., -1.64346021921045E-32, 0.));
#654 = CARTESIAN_POINT('', (-3., -3., 0.));
#655 = CARTESIAN_POINT('', (-6.27786229722166E-16, -3., 0.));
#656 = ORIENTED_EDGE('', *, *, #625, .F.);
#657 = ORIENTED_EDGE('', *, *, #658, .T.);
#658 = EDGE_CURVE('', #619, #650, #659, .T.);
#659 = (
   BOUNDED_CURVE ()
   B_SPLINE_CURVE (2, (#660, #661, #662), .UNSPECIFIED., .F., .U.)
   B_SPLINE_CURVE_WITH_KNOTS ((3, 3), (0., 1.), .UNSPECIFIED.)
   CURVE ()
   GEOMETRIC_REPRESENTATION_ITEM ()
   RATIONAL_B_SPLINE_CURVE ((1., 0.707106781186547, 1.))
   REPRESENTATION_ITEM ('')
);
#660 = CARTESIAN_POINT('', (0., -1.64346021921045E-32, -3.));
#661 = CARTESIAN_POINT('', (0., -3., -3.));
#662 = CARTESIAN_POINT('', (0., -3., -6.27786229722166E-16));
#663 = (
   BOUNDED_SURFACE ()
   B_SPLINE_SURFACE (2, 2, ((#664, #665, #666), (#667, #668, #669), (#670, #671, #672), (#673, #674, #675), (#676, #677, #678)), .UNSPECIFIED., .F., .F., .U.)
   B_SPLINE_SURFACE_WITH_KNOTS ((3, 2, 3), (3, 3), (0., 0.5, 1.), (0., 1.), .UNSPECIFIED.)
   GEOMETRIC_REPRESENTATION_ITEM ()
   RATIONAL_B_SPLINE_SURFACE (((1., 0.707106781186547, 1.), (0.908143173825081, 0.642154196499988, 0.908143173825081), (1., 0.707106781186547, 1.), (0.908143173825081, 0.642154196499988, 0.908143173825081), (1., 0.707106781186547, 1.)))
   REPRESENTATION_ITEM ('')
   SURFACE ()
);
#664 = CARTESIAN_POINT('', (-3., -1.64346021921045E-32, 0.));
#665 = CARTESIAN_POINT('', (-3., -3., 1.45968590033835E-47));
#666 = CARTESIAN_POINT('', (-6.27786229722166E-16, -3., -4.93038065763132E-32));
#667 = CARTESIAN_POINT('', (-3., -1.64346021921045E-32, 0.));
#668 = CARTESIAN_POINT('', (-3., -3., -1.38301894328196));
#669 = CARTESIAN_POINT('', (-1.037242089542E-15, -3., -1.38301894328195));
#670 = CARTESIAN_POINT('', (-3., -1.64346021921045E-32, 0.));
#671 = CARTESIAN_POINT('', (-3., -1.94834414499055, -2.28121789680009));
#672 = CARTESIAN_POINT('', (-1.30316239857935E-15, -1.94834414499055, -2.28121789680009));
#673 = CARTESIAN_POINT('', (-3., -1.64346021921045E-32, 0.));
#674 = CARTESIAN_POINT('', (-3., -0.896688289981101, -3.17941685031823));
#675 = CARTESIAN_POINT('', (-1.5690827076167E-15, -0.896688289981103, -3.17941685031823));
#676 = CARTESIAN_POINT('', (-3., -1.64346021921045E-32, 0.));
#677 = CARTESIAN_POINT('', (-3., 0.469303395120694, -2.96306502178541));
#678 = CARTESIAN_POINT('', (-1.50502969922819E-15, 0.469303395120693, -2.96306502178541));
#679 = OPEN_SHELL('', (#680));
#680 = ADVANCED_FACE('', (#681), #695, .T.);
#681 = FACE_OUTER_BOUND('', #682, .T.);
#682 = EDGE_LOOP('', (#683, #684, #689, #690));
#683 = ORIENTED_EDGE('', *, *, #658, .F.);
#684 = ORIENTED_EDGE('', *, *, #685, .T.);
#685 = EDGE_CURVE('', #619, #344, #686, .T.);
#686 = B_SPLINE_CURVE_WITH_KNOTS('', 1, (#687, #688), .UNSPECIFIED., .F., .U., (2, 2), (0., 1.), .UNSPECIFIED.);
#687 = CARTESIAN_POINT('', (0., -1.64346021921045E-32, -3.));
#688 = CARTESIAN_POINT('', (40., -1.64346021921045E-32, -3.));
#689 = ORIENTED_EDGE('', *, *, #351, .T.);
#690 = ORIENTED_EDGE('', *, *, #691, .F.);
#691 = EDGE_CURVE('', #650, #336, #692, .T.);
#692 = B_SPLINE_CURVE_WITH_KNOTS('', 1, (#693, #694), .UNSPECIFIED., .F., .U., (2, 2), (0., 1.), .UNSPECIFIED.);
#693 = CARTESIAN_POINT('', (0., -3., -6.27786229722166E-16));
#694 = CARTESIAN_POINT('', (40., -3., -6.27786229722166E-16));
#695 = (
   BOUNDED_SURFACE ()
   B_SPLINE_SURFACE (1, 2, ((#696, #697, #698), (#699, #700, #701)), .UNSPECIFIED., .F., .F., .U.)
   B_SPLINE_SURFACE_WITH_KNOTS ((2, 2), (3, 3), (0., 1.), (0., 1.), .UNSPECIFIED.)
   GEOMETRIC_REPRESENTATION_ITEM ()
   RATIONAL_B_SPLINE_SURFACE (((1., 0.707106781186547, 1.), (1., 0.707106781186547, 1.)))
   REPRESENTATION_ITEM ('')
   SURFACE ()
);
#696 = CARTESIAN_POINT('', (0., -1.64346021921045E-32, -3.));
#697 = CARTESIAN_POINT('', (0., -3., -3.));
#698 = CARTESIAN_POINT('', (0., -3., -6.27786229722166E-16));
#699 = CARTESIAN_POINT('', (40., -1.64346021921045E-32, -3.));
#700 = CARTESIAN_POINT('', (40., -3., -3.));
#701 = CARTESIAN_POINT('', (40., -3., -6.27786229722166E-16));
#702 = OPEN_SHELL('', (#703));
#703 = ADVANCED_FACE('', (#704), #718, .T.);
#704 = FACE_OUTER_BOUND('', #705, .T.);
#705 = EDGE_LOOP('', (#706, #707, #712, #713));
#706 = ORIENTED_EDGE('', *, *, #649, .F.);
#707 = ORIENTED_EDGE('', *, *, #708, .T.);
#708 = EDGE_CURVE('', #626, #536, #709, .T.);
#709 = B_SPLINE_CURVE_WITH_KNOTS('', 1, (#710, #711), .UNSPECIFIED., .F., .U., (2, 2), (0., 1.), .UNSPECIFIED.);
#710 = CARTESIAN_POINT('', (-3., 0., 0.));
#711 = CARTESIAN_POINT('', (-3., 0., 20.));
#712 = ORIENTED_EDGE('', *, *, #559, .T.);
#713 = ORIENTED_EDGE('', *, *, #714, .F.);
#714 = EDGE_CURVE('', #650, #560, #715, .T.);
#715 = B_SPLINE_CURVE_WITH_KNOTS('', 1, (#716, #717), .UNSPECIFIED., .F., .U., (2, 2), (0., 1.), .UNSPECIFIED.);
#716 = CARTESIAN_POINT('', (-6.27786229722166E-16, -3., 0.));
#717 = CARTESIAN_POINT('', (-6.27786229722166E-16, -3., 20.));
#718 = (
   BOUNDED_SURFACE ()
   B_SPLINE_SURFACE (1, 2, ((#719, #720, #721), (#722, #723, #724)), .UNSPECIFIED., .F., .F., .U.)
   B_SPLINE_SURFACE_WITH_KNOTS ((2, 2), (3, 3), (0., 1.), (0., 1.), .UNSPECIFIED.)
   GEOMETRIC_REPRESENTATION_ITEM ()
   RATIONAL_B_SPLINE_SURFACE (((1., 0.707106781186547, 1.), (1., 0.707106781186547, 1.)))
   REPRESENTATION_ITEM ('')
   SURFACE ()
);
#719 = CARTESIAN_POINT('', (-3., -1.64346021921045E-32, 0.));
#720 = CARTESIAN_POINT('', (-3., -3., 0.));
#721 = CARTESIAN_POINT('', (-6.27786229722166E-16, -3., 0.));
#722 = CARTESIAN_POINT('', (-3., -1.64346021921045E-32, 20.));
#723 = CARTESIAN_POINT('', (-3., -3., 20.));
#724 = CARTESIAN_POINT('', (-6.27786229722166E-16, -3., 20.));
#725 = OPEN_SHELL('', (#726));
#726 = ADVANCED_FACE('', (#727), #737, .T.);
#727 = FACE_OUTER_BOUND('', #728, .T.);
#728 = EDGE_LOOP('', (#729, #730, #731, #736));
#729 = ORIENTED_EDGE('', *, *, #714, .F.);
#730 = ORIENTED_EDGE('', *, *, #691, .T.);
#731 = ORIENTED_EDGE('', *, *, #732, .T.);
#732 = EDGE_CURVE('', #336, #98, #733, .T.);
#733 = B_SPLINE_CURVE_WITH_KNOTS('', 1, (#734, #735), .UNSPECIFIED., .F., .U., (2, 2), (0., 1.), .UNSPECIFIED.);
#734 = CARTESIAN_POINT('', (40., -3., 0.));
#735 = CARTESIAN_POINT('', (40., -3., 20.));
#736 = ORIENTED_EDGE('', *, *, #601, .F.);
#737 = B_SPLINE_SURFACE_WITH_KNOTS('', 1, 1, ((#738, #739), (#740, #741)), .UNSPECIFIED., .F., .F., .U., (2, 2), (2, 2), (0., 1.), (0., 1.), .UNSPECIFIED.);
#738 = CARTESIAN_POINT('', (0., -3., 0.));
#739 = CARTESIAN_POINT('', (0., -3., 20.));
#740 = CARTESIAN_POINT('', (40., -3., 0.));
#741 = CARTESIAN_POINT('', (40., -3., 20.));
#742 = OPEN_SHELL('', (#743));
#743 = ADVANCED_FACE('', (#744), #754, .T.);
#744 = FACE_OUTER_BOUND('', #745, .T.);
#745 = EDGE_LOOP('', (#746, #751, #752, #753));
#746 = ORIENTED_EDGE('', *, *, #747, .F.);
#747 = EDGE_CURVE('', #411, #150, #748, .T.);
#748 = B_SPLINE_CURVE_WITH_KNOTS('', 1, (#749, #750), .UNSPECIFIED., .F., .U., (2, 2), (0., 1.), .UNSPECIFIED.);
#749 = CARTESIAN_POINT('', (-3., 40., 0.));
#750 = CARTESIAN_POINT('', (-3., 40., 20.));
#751 = ORIENTED_EDGE('', *, *, #633, .T.);
#752 = ORIENTED_EDGE('', *, *, #708, .T.);
#753 = ORIENTED_EDGE('', *, *, #543, .F.);
#754 = B_SPLINE_SURFACE_WITH_KNOTS('', 1, 1, ((#755, #756), (#757, #758)), .UNSPECIFIED., .F., .F., .U., (2, 2), (2, 2), (0., 1.), (0., 1.), .UNSPECIFIED.);
#755 = CARTESIAN_POINT('', (-3., 40., 0.));
#756 = CARTESIAN_POINT('', (-3., 40., 20.));
#757 = CARTESIAN_POINT('', (-3., 0., 0.));
#758 = CARTESIAN_POINT('', (-3., 0., 20.));
#759 = OPEN_SHELL('', (#760));
#760 = ADVANCED_FACE('', (#761), #773, .T.);
#761 = FACE_OUTER_BOUND('', #762, .T.);
#762 = EDGE_LOOP('', (#763, #764, #769, #770, #771, #772));
#763 = ORIENTED_EDGE('', *, *, #618, .F.);
#764 = ORIENTED_EDGE('', *, *, #765, .F.);
#765 = EDGE_CURVE('', #300, #401, #766, .T.);
#766 = B_SPLINE_CURVE_WITH_KNOTS('', 1, (#767, #768), .UNSPECIFIED., .F., .U., (2, 2), (0., 1.), .UNSPECIFIED.);
#767 = CARTESIAN_POINT('', (15., 40., -3.));
#768 = CARTESIAN_POINT('', (0., 40., -3.));
#769 = ORIENTED_EDGE('', *, *, #481, .F.);
#770 = ORIENTED_EDGE('', *, *, #504, .F.);
#771 = ORIENTED_EDGE('', *, *, #378, .F.);
#772 = ORIENTED_EDGE('', *, *, #685, .F.);
#773 = B_SPLINE_SURFACE_WITH_KNOTS('', 1, 1, ((#774, #775), (#776, #777)), .UNSPECIFIED., .F., .F., .U., (2, 2), (2, 2), (0.178587826733387, 0.821412173266613), (0.178587826733387, 0.821412173266613), .UNSPECIFIED.);
#774 = CARTESIAN_POINT('', (40., -3.5527136788005E-15, -3.));
#775 = CARTESIAN_POINT('', (40., 40., -3.));
#776 = CARTESIAN_POINT('', (0., -3.5527136788005E-15, -3.));
#777 = CARTESIAN_POINT('', (0., 40., -3.));
#778 = OPEN_SHELL('', (#779));
#779 = ADVANCED_FACE('', (#780), #796, .T.);
#780 = FACE_OUTER_BOUND('', #781, .T.);
#781 = EDGE_LOOP('', (#782, #783, #784, #789, #790, #791));
#782 = ORIENTED_EDGE('', *, *, #528, .T.);
#783 = ORIENTED_EDGE('', *, *, #595, .T.);
#784 = ORIENTED_EDGE('', *, *, #785, .T.);
#785 = EDGE_CURVE('', #106, #8, #786, .T.);
#786 = B_SPLINE_CURVE_WITH_KNOTS('', 1, (#787, #788), .UNSPECIFIED., .F., .U., (2, 2), (0., 1.), .UNSPECIFIED.);
#787 = CARTESIAN_POINT('', (40., 0., 23.));
#788 = CARTESIAN_POINT('', (40., 15., 23.));
#789 = ORIENTED_EDGE('', *, *, #216, .T.);
#790 = ORIENTED_EDGE('', *, *, #193, .T.);
#791 = ORIENTED_EDGE('', *, *, #792, .T.);
#792 = EDGE_CURVE('', #52, #140, #793, .T.);
#793 = B_SPLINE_CURVE_WITH_KNOTS('', 1, (#794, #795), .UNSPECIFIED., .F., .U., (2, 2), (0., 1.), .UNSPECIFIED.);
#794 = CARTESIAN_POINT('', (15., 40., 23.));
#795 = CARTESIAN_POINT('', (0., 40., 23.));
#796 = B_SPLINE_SURFACE_WITH_KNOTS('', 1, 1, ((#797, #798), (#799, #800)), .UNSPECIFIED., .F., .F., .U., (2, 2), (2, 2), (0.178587826733387, 0.821412173266613), (0.178587826733387, 0.821412173266613), .UNSPECIFIED.);
#797 = CARTESIAN_POINT('', (40., -3.5527136788005E-15, 23.));
#798 = CARTESIAN_POINT('', (0., -3.5527136788005E-15, 23.));
#799 = CARTESIAN_POINT('', (40., 40., 23.));
#800 = CARTESIAN_POINT('', (0., 40., 23.));
#801 = OPEN_SHELL('', (#802));
#802 = ADVANCED_FACE('', (#803), #817, .T.);
#803 = FACE_OUTER_BOUND('', #804, .T.);
#804 = EDGE_LOOP('', (#805, #810, #811, #816));
#805 = ORIENTED_EDGE('', *, *, #806, .F.);
#806 = EDGE_CURVE('', #474, #186, #807, .T.);
#807 = B_SPLINE_CURVE_WITH_KNOTS('', 1, (#808, #809), .UNSPECIFIED., .F., .U., (2, 2), (0., 1.), .UNSPECIFIED.);
#808 = CARTESIAN_POINT('', (18., 15., 0.));
#809 = CARTESIAN_POINT('', (18., 15., 20.));
#810 = ORIENTED_EDGE('', *, *, #487, .T.);
#811 = ORIENTED_EDGE('', *, *, #812, .T.);
#812 = EDGE_CURVE('', #292, #62, #813, .T.);
#813 = B_SPLINE_CURVE_WITH_KNOTS('', 1, (#814, #815), .UNSPECIFIED., .F., .U., (2, 2), (0., 1.), .UNSPECIFIED.);
#814 = CARTESIAN_POINT('', (18., 40., 0.));
#815 = CARTESIAN_POINT('', (18., 40., 20.));
#816 = ORIENTED_EDGE('', *, *, #199, .F.);
#817 = B_SPLINE_SURFACE_WITH_KNOTS('', 1, 1, ((#818, #819), (#820, #821)), .UNSPECIFIED., .F., .F., .U., (2, 2), (2, 2), (0., 1.), (0., 1.), .UNSPECIFIED.);
#818 = CARTESIAN_POINT('', (18., 15., 0.));
#819 = CARTESIAN_POINT('', (18., 15., 20.));
#820 = CARTESIAN_POINT('', (18., 40., 0.));
#821 = CARTESIAN_POINT('', (18., 40., 20.));
#822 = OPEN_SHELL('', (#823));
#823 = ADVANCED_FACE('', (#824), #834, .T.);
#824 = FACE_OUTER_BOUND('', #825, .T.);
#825 = EDGE_LOOP('', (#826, #827, #828, #829));
#826 = ORIENTED_EDGE('', *, *, #418, .F.);
#827 = ORIENTED_EDGE('', *, *, #747, .T.);
#828 = ORIENTED_EDGE('', *, *, #157, .T.);
#829 = ORIENTED_EDGE('', *, *, #830, .F.);
#830 = EDGE_CURVE('', #403, #142, #831, .T.);
#831 = B_SPLINE_CURVE_WITH_KNOTS('', 1, (#832, #833), .UNSPECIFIED., .F., .U., (2, 2), (0., 1.), .UNSPECIFIED.);
#832 = CARTESIAN_POINT('', (-1.07187543957223E-15, 43., 0.));
#833 = CARTESIAN_POINT('', (-1.07187543957223E-15, 43., 20.));
#834 = (
   BOUNDED_SURFACE ()
   B_SPLINE_SURFACE (1, 2, ((#835, #836, #837), (#838, #839, #840)), .UNSPECIFIED., .F., .F., .U.)
   B_SPLINE_SURFACE_WITH_KNOTS ((2, 2), (3, 3), (0., 1.), (0., 1.), .UNSPECIFIED.)
   GEOMETRIC_REPRESENTATION_ITEM ()
   RATIONAL_B_SPLINE_SURFACE (((1., 0.707106781186547, 1.), (1., 0.707106781186547, 1.)))
   REPRESENTATION_ITEM ('')
   SURFACE ()
);
#835 = CARTESIAN_POINT('', (-3., 40., 0.));
#836 = CARTESIAN_POINT('', (-3., 43., 0.));
#837 = CARTESIAN_POINT('', (-1.07187543957223E-15, 43., 0.));
#838 = CARTESIAN_POINT('', (-3., 40., 20.));
#839 = CARTESIAN_POINT('', (-3., 43., 20.));
#840 = CARTESIAN_POINT('', (-1.07187543957223E-15, 43., 20.));
#841 = OPEN_SHELL('', (#842));
#842 = ADVANCED_FACE('', (#843), #853, .T.);
#843 = FACE_OUTER_BOUND('', #844, .T.);
#844 = EDGE_LOOP('', (#845, #846, #847, #848));
#845 = ORIENTED_EDGE('', *, *, #299, .F.);
#846 = ORIENTED_EDGE('', *, *, #765, .T.);
#847 = ORIENTED_EDGE('', *, *, #400, .T.);
#848 = ORIENTED_EDGE('', *, *, #849, .F.);
#849 = EDGE_CURVE('', #290, #403, #850, .T.);
#850 = B_SPLINE_CURVE_WITH_KNOTS('', 1, (#851, #852), .UNSPECIFIED., .F., .U., (2, 2), (0., 1.), .UNSPECIFIED.);
#851 = CARTESIAN_POINT('', (15., 43., -1.07187543957223E-15));
#852 = CARTESIAN_POINT('', (0., 43., -1.07187543957223E-15));
#853 = (
   BOUNDED_SURFACE ()
   B_SPLINE_SURFACE (1, 2, ((#854, #855, #856), (#857, #858, #859)), .UNSPECIFIED., .F., .F., .U.)
   B_SPLINE_SURFACE_WITH_KNOTS ((2, 2), (3, 3), (0., 1.), (0., 1.), .UNSPECIFIED.)
   GEOMETRIC_REPRESENTATION_ITEM ()
   RATIONAL_B_SPLINE_SURFACE (((1., 0.707106781186547, 1.), (1., 0.707106781186547, 1.)))
   REPRESENTATION_ITEM ('')
   SURFACE ()
);
#854 = CARTESIAN_POINT('', (15., 40., -3.));
#855 = CARTESIAN_POINT('', (15., 43., -3.));
#856 = CARTESIAN_POINT('', (15., 43., -1.07187543957223E-15));
#857 = CARTESIAN_POINT('', (0., 40., -3.));
#858 = CARTESIAN_POINT('', (0., 43., -3.));
#859 = CARTESIAN_POINT('', (0., 43., -1.07187543957223E-15));
#860 = OPEN_SHELL('', (#861));
#861 = ADVANCED_FACE('', (#862), #872, .T.);
#862 = FACE_OUTER_BOUND('', #863, .T.);
#863 = EDGE_LOOP('', (#864, #865, #870, #871));
#864 = ORIENTED_EDGE('', *, *, #333, .F.);
#865 = ORIENTED_EDGE('', *, *, #866, .T.);
#866 = EDGE_CURVE('', #334, #96, #867, .T.);
#867 = B_SPLINE_CURVE_WITH_KNOTS('', 1, (#868, #869), .UNSPECIFIED., .F., .U., (2, 2), (0., 1.), .UNSPECIFIED.);
#868 = CARTESIAN_POINT('', (43., -4.20725816117877E-30, 0.));
#869 = CARTESIAN_POINT('', (43., -4.20725816117877E-30, 20.));
#870 = ORIENTED_EDGE('', *, *, #95, .T.);
#871 = ORIENTED_EDGE('', *, *, #732, .F.);
#872 = (
   BOUNDED_SURFACE ()
   B_SPLINE_SURFACE (1, 2, ((#873, #874, #875), (#876, #877, #878)), .UNSPECIFIED., .F., .F., .U.)
   B_SPLINE_SURFACE_WITH_KNOTS ((2, 2), (3, 3), (0., 1.), (0., 1.), .UNSPECIFIED.)
   GEOMETRIC_REPRESENTATION_ITEM ()
   RATIONAL_B_SPLINE_SURFACE (((1., 0.707106781186546, 1.), (1., 0.707106781186546, 1.)))
   REPRESENTATION_ITEM ('')
   SURFACE ()
);
#873 = CARTESIAN_POINT('', (43., -4.20725816117877E-30, 0.));
#874 = CARTESIAN_POINT('', (43., -3.00000000000001, 0.));
#875 = CARTESIAN_POINT('', (40., -3., 0.));
#876 = CARTESIAN_POINT('', (43., -4.20725816117877E-30, 20.));
#877 = CARTESIAN_POINT('', (43., -3.00000000000001, 20.));
#878 = CARTESIAN_POINT('', (40., -3., 20.));
#879 = OPEN_SHELL('', (#880));
#880 = ADVANCED_FACE('', (#881), #895, .T.);
#881 = FACE_OUTER_BOUND('', #882, .T.);
#882 = EDGE_LOOP('', (#883, #888, #889, #890));
#883 = ORIENTED_EDGE('', *, *, #884, .F.);
#884 = EDGE_CURVE('', #290, #54, #885, .T.);
#885 = B_SPLINE_CURVE_WITH_KNOTS('', 1, (#886, #887), .UNSPECIFIED., .F., .U., (2, 2), (0., 1.), .UNSPECIFIED.);
#886 = CARTESIAN_POINT('', (15., 43., 0.));
#887 = CARTESIAN_POINT('', (15., 43., 20.));
#888 = ORIENTED_EDGE('', *, *, #849, .T.);
#889 = ORIENTED_EDGE('', *, *, #830, .T.);
#890 = ORIENTED_EDGE('', *, *, #891, .F.);
#891 = EDGE_CURVE('', #54, #142, #892, .T.);
#892 = B_SPLINE_CURVE_WITH_KNOTS('', 1, (#893, #894), .UNSPECIFIED., .F., .U., (2, 2), (0., 1.), .UNSPECIFIED.);
#893 = CARTESIAN_POINT('', (15., 43., 20.));
#894 = CARTESIAN_POINT('', (0., 43., 20.));
#895 = B_SPLINE_SURFACE_WITH_KNOTS('', 1, 1, ((#896, #897), (#898, #899)), .UNSPECIFIED., .F., .F., .U., (2, 2), (2, 2), (0., 1.), (0., 1.), .UNSPECIFIED.);
#896 = CARTESIAN_POINT('', (15., 43., 0.));
#897 = CARTESIAN_POINT('', (15., 43., 20.));
#898 = CARTESIAN_POINT('', (0., 43., 0.));
#899 = CARTESIAN_POINT('', (0., 43., 20.));
#900 = OPEN_SHELL('', (#901));
#901 = ADVANCED_FACE('', (#902), #916, .T.);
#902 = FACE_OUTER_BOUND('', #903, .T.);
#903 = EDGE_LOOP('', (#904, #905, #906, #911));
#904 = ORIENTED_EDGE('', *, *, #866, .F.);
#905 = ORIENTED_EDGE('', *, *, #384, .T.);
#906 = ORIENTED_EDGE('', *, *, #907, .T.);
#907 = EDGE_CURVE('', #248, #10, #908, .T.);
#908 = B_SPLINE_CURVE_WITH_KNOTS('', 1, (#909, #910), .UNSPECIFIED., .F., .U., (2, 2), (0., 1.), .UNSPECIFIED.);
#909 = CARTESIAN_POINT('', (43., 15., 0.));
#910 = CARTESIAN_POINT('', (43., 15., 20.));
#911 = ORIENTED_EDGE('', *, *, #912, .F.);
#912 = EDGE_CURVE('', #96, #10, #913, .T.);
#913 = B_SPLINE_CURVE_WITH_KNOTS('', 1, (#914, #915), .UNSPECIFIED., .F., .U., (2, 2), (0., 1.), .UNSPECIFIED.);
#914 = CARTESIAN_POINT('', (43., 0., 20.));
#915 = CARTESIAN_POINT('', (43., 15., 20.));
#916 = B_SPLINE_SURFACE_WITH_KNOTS('', 1, 1, ((#917, #918), (#919, #920)), .UNSPECIFIED., .F., .F., .U., (2, 2), (2, 2), (0., 1.), (0., 1.), .UNSPECIFIED.);
#917 = CARTESIAN_POINT('', (43., 0., 0.));
#918 = CARTESIAN_POINT('', (43., 0., 20.));
#919 = CARTESIAN_POINT('', (43., 15., 0.));
#920 = CARTESIAN_POINT('', (43., 15., 20.));
#921 = OPEN_SHELL('', (#922));
#922 = ADVANCED_FACE('', (#923), #929, .T.);
#923 = FACE_OUTER_BOUND('', #924, .T.);
#924 = EDGE_LOOP('', (#925, #926, #927, #928));
#925 = ORIENTED_EDGE('', *, *, #289, .F.);
#926 = ORIENTED_EDGE('', *, *, #884, .T.);
#927 = ORIENTED_EDGE('', *, *, #69, .T.);
#928 = ORIENTED_EDGE('', *, *, #812, .F.);
#929 = (
   BOUNDED_SURFACE ()
   B_SPLINE_SURFACE (1, 2, ((#930, #931, #932), (#933, #934, #935)), .UNSPECIFIED., .F., .F., .U.)
   B_SPLINE_SURFACE_WITH_KNOTS ((2, 2), (3, 3), (0., 1.), (0., 1.), .UNSPECIFIED.)
   GEOMETRIC_REPRESENTATION_ITEM ()
   RATIONAL_B_SPLINE_SURFACE (((1., 0.707106781186547, 1.), (1., 0.707106781186547, 1.)))
   REPRESENTATION_ITEM ('')
   SURFACE ()
);
#930 = CARTESIAN_POINT('', (15., 43., 0.));
#931 = CARTESIAN_POINT('', (18., 43., 0.));
#932 = CARTESIAN_POINT('', (18., 40., 0.));
#933 = CARTESIAN_POINT('', (15., 43., 20.));
#934 = CARTESIAN_POINT('', (18., 43., 20.));
#935 = CARTESIAN_POINT('', (18., 40., 20.));
#936 = OPEN_SHELL('', (#937));
#937 = ADVANCED_FACE('', (#938), #944, .T.);
#938 = FACE_OUTER_BOUND('', #939, .T.);
#939 = EDGE_LOOP('', (#940, #941, #942, #943));
#940 = ORIENTED_EDGE('', *, *, #245, .F.);
#941 = ORIENTED_EDGE('', *, *, #444, .T.);
#942 = ORIENTED_EDGE('', *, *, #25, .T.);
#943 = ORIENTED_EDGE('', *, *, #907, .F.);
#944 = (
   BOUNDED_SURFACE ()
   B_SPLINE_SURFACE (1, 2, ((#945, #946, #947), (#948, #949, #950)), .UNSPECIFIED., .F., .F., .U.)
   B_SPLINE_SURFACE_WITH_KNOTS ((2, 2), (3, 3), (0., 1.), (0., 1.), .UNSPECIFIED.)
   GEOMETRIC_REPRESENTATION_ITEM ()
   RATIONAL_B_SPLINE_SURFACE (((1., 0.707106781186547, 1.), (1., 0.707106781186547, 1.)))
   REPRESENTATION_ITEM ('')
   SURFACE ()
);
#945 = CARTESIAN_POINT('', (40., 18., 0.));
#946 = CARTESIAN_POINT('', (43., 18., 0.));
#947 = CARTESIAN_POINT('', (43., 15., 0.));
#948 = CARTESIAN_POINT('', (40., 18., 20.));
#949 = CARTESIAN_POINT('', (43., 18., 20.));
#950 = CARTESIAN_POINT('', (43., 15., 20.));
#951 = OPEN_SHELL('', (#952));
#952 = ADVANCED_FACE('', (#953), #959, .T.);
#953 = FACE_OUTER_BOUND('', #954, .T.);
#954 = EDGE_LOOP('', (#955, #956, #957, #958));
#955 = ORIENTED_EDGE('', *, *, #51, .F.);
#956 = ORIENTED_EDGE('', *, *, #792, .T.);
#957 = ORIENTED_EDGE('', *, *, #139, .T.);
#958 = ORIENTED_EDGE('', *, *, #891, .F.);
#959 = (
   BOUNDED_SURFACE ()
   B_SPLINE_SURFACE (1, 2, ((#960, #961, #962), (#963, #964, #965)), .UNSPECIFIED., .F., .F., .U.)
   B_SPLINE_SURFACE_WITH_KNOTS ((2, 2), (3, 3), (0., 1.), (0., 1.), .UNSPECIFIED.)
   GEOMETRIC_REPRESENTATION_ITEM ()
   RATIONAL_B_SPLINE_SURFACE (((1., 0.707106781186547, 1.), (1., 0.707106781186547, 1.)))
   REPRESENTATION_ITEM ('')
   SURFACE ()
);
#960 = CARTESIAN_POINT('', (15., 40., 23.));
#961 = CARTESIAN_POINT('', (15., 43., 23.));
#962 = CARTESIAN_POINT('', (15., 43., 20.));
#963 = CARTESIAN_POINT('', (0., 40., 23.));
#964 = CARTESIAN_POINT('', (0., 43., 23.));
#965 = CARTESIAN_POINT('', (0., 43., 20.));
#966 = OPEN_SHELL('', (#967));
#967 = ADVANCED_FACE('', (#968), #974, .T.);
#968 = FACE_OUTER_BOUND('', #969, .T.);
#969 = EDGE_LOOP('', (#970, #971, #972, #973));
#970 = ORIENTED_EDGE('', *, *, #105, .F.);
#971 = ORIENTED_EDGE('', *, *, #785, .T.);
#972 = ORIENTED_EDGE('', *, *, #7, .T.);
#973 = ORIENTED_EDGE('', *, *, #912, .F.);
#974 = (
   BOUNDED_SURFACE ()
   B_SPLINE_SURFACE (1, 2, ((#975, #976, #977), (#978, #979, #980)), .UNSPECIFIED., .F., .F., .U.)
   B_SPLINE_SURFACE_WITH_KNOTS ((2, 2), (3, 3), (0., 1.), (0., 1.), .UNSPECIFIED.)
   GEOMETRIC_REPRESENTATION_ITEM ()
   RATIONAL_B_SPLINE_SURFACE (((1., 0.707106781186547, 1.), (1., 0.707106781186547, 1.)))
   REPRESENTATION_ITEM ('')
   SURFACE ()
);
#975 = CARTESIAN_POINT('', (40., 0., 23.));
#976 = CARTESIAN_POINT('', (43., 0., 23.));
#977 = CARTESIAN_POINT('', (43., 0., 20.));
#978 = CARTESIAN_POINT('', (40., 15., 23.));
#979 = CARTESIAN_POINT('', (43., 15., 23.));
#980 = CARTESIAN_POINT('', (43., 15., 20.));
#981 = DRAUGHTING_MODEL('', (#989, #1135), #1138);
#982 = PRESENTATION_STYLE_ASSIGNMENT((#983));
#983 = SURFACE_STYLE_USAGE(.POSITIVE., #984);
#984 = SURFACE_SIDE_STYLE('', (#985));
#985 = SURFACE_STYLE_FILL_AREA(#986);
#986 = FILL_AREA_STYLE('', (#987));
#987 = FILL_AREA_STYLE_COLOUR('', #988);
#988 = COLOUR_RGB('', 0.8, 0.8, 0.8);
#989 = STYLED_ITEM('', (#982), #1);
#990 = MANIFOLD_SOLID_BREP('Solid0', #991);
#991 = CLOSED_SHELL('', (#992, #1028, #1056, #1084, #1104, #1116));
#992 = ADVANCED_FACE('', (#993), #1023, .T.);
#993 = FACE_OUTER_BOUND('', #994, .T.);
#994 = EDGE_LOOP('', (#995, #1004, #1011, #1018));
#995 = ORIENTED_EDGE('', *, *, #996, .T.);
#996 = EDGE_CURVE('', #997, #999, #1001, .T.);
#997 = VERTEX_POINT('', #998);
#998 = CARTESIAN_POINT('', (57., 3., -3.));
#999 = VERTEX_POINT('', #1000);
#1000 = CARTESIAN_POINT('', (57., 3., 3.));
#1001 = B_SPLINE_CURVE_WITH_KNOTS('', 1, (#1002, #1003), .UNSPECIFIED., .F., .U., (2, 2), (0., 6.), .UNSPECIFIED.);
#1002 = CARTESIAN_POINT('', (57., 3., -3.));
#1003 = CARTESIAN_POINT('', (57., 3., 3.));
#1004 = ORIENTED_EDGE('', *, *, #1005, .T.);
#1005 = EDGE_CURVE('', #999, #1006, #1008, .T.);
#1006 = VERTEX_POINT('', #1007);
#1007 = CARTESIAN_POINT('', (63., 3., 3.));
#1008 = B_SPLINE_CURVE_WITH_KNOTS('', 1, (#1009, #1010), .UNSPECIFIED., .F., .U., (2, 2), (0., 6.), .UNSPECIFIED.);
#1009 = CARTESIAN_POINT('', (57., 3., 3.));
#1010 = CARTESIAN_POINT('', (63., 3., 3.));
#1011 = ORIENTED_EDGE('', *, *, #1012, .F.);
#1012 = EDGE_CURVE('', #1013, #1006, #1015, .T.);
#1013 = VERTEX_POINT('', #1014);
#1014 = CARTESIAN_POINT('', (63., 3., -3.));
#1015 = B_SPLINE_CURVE_WITH_KNOTS('', 1, (#1016, #1017), .UNSPECIFIED., .F., .U., (2, 2), (0., 6.), .UNSPECIFIED.);
#1016 = CARTESIAN_POINT('', (63., 3., -3.));
#1017 = CARTESIAN_POINT('', (63., 3., 3.));
#1018 = ORIENTED_EDGE('', *, *, #1019, .F.);
#1019 = EDGE_CURVE('', #997, #1013, #1020, .T.);
#1020 = B_SPLINE_CURVE_WITH_KNOTS('', 1, (#1021, #1022), .UNSPECIFIED., .F., .U., (2, 2), (0., 6.), .UNSPECIFIED.);
#1021 = CARTESIAN_POINT('', (57., 3., -3.));
#1022 = CARTESIAN_POINT('', (63., 3., -3.));
#1023 = B_SPLINE_SURFACE_WITH_KNOTS('', 1, 1, ((#1024, #1025), (#1026, #1027)), .UNSPECIFIED., .F., .F., .U., (2, 2), (2, 2), (0., 6.), (0., 6.), .UNSPECIFIED.);
#1024 = CARTESIAN_POINT('', (57., 3., -3.));
#1025 = CARTESIAN_POINT('', (63., 3., -3.));
#1026 = CARTESIAN_POINT('', (57., 3., 3.));
#1027 = CARTESIAN_POINT('', (63., 3., 3.));
#1028 = ADVANCED_FACE('', (#1029), #1051, .T.);
#1029 = FACE_OUTER_BOUND('', #1030, .T.);
#1030 = EDGE_LOOP('', (#1031, #1038, #1045, #1050));
#1031 = ORIENTED_EDGE('', *, *, #1032, .F.);
#1032 = EDGE_CURVE('', #1033, #999, #1035, .T.);
#1033 = VERTEX_POINT('', #1034);
#1034 = CARTESIAN_POINT('', (57., -3., 3.));
#1035 = B_SPLINE_CURVE_WITH_KNOTS('', 1, (#1036, #1037), .UNSPECIFIED., .F., .U., (2, 2), (0., 6.), .UNSPECIFIED.);
#1036 = CARTESIAN_POINT('', (57., -3., 3.));
#1037 = CARTESIAN_POINT('', (57., 3., 3.));
#1038 = ORIENTED_EDGE('', *, *, #1039, .T.);
#1039 = EDGE_CURVE('', #1033, #1040, #1042, .T.);
#1040 = VERTEX_POINT('', #1041);
#1041 = CARTESIAN_POINT('', (63., -3., 3.));
#1042 = B_SPLINE_CURVE_WITH_KNOTS('', 1, (#1043, #1044), .UNSPECIFIED., .F., .U., (2, 2), (0., 6.), .UNSPECIFIED.);
#1043 = CARTESIAN_POINT('', (57., -3., 3.));
#1044 = CARTESIAN_POINT('', (63., -3., 3.));
#1045 = ORIENTED_EDGE('', *, *, #1046, .T.);
#1046 = EDGE_CURVE('', #1040, #1006, #1047, .T.);
#1047 = B_SPLINE_CURVE_WITH_KNOTS('', 1, (#1048, #1049), .UNSPECIFIED., .F., .U., (2, 2), (0., 6.), .UNSPECIFIED.);
#1048 = CARTESIAN_POINT('', (63., -3., 3.));
#1049 = CARTESIAN_POINT('', (63., 3., 3.));
#1050 = ORIENTED_EDGE('', *, *, #1005, .F.);
#1051 = B_SPLINE_SURFACE_WITH_KNOTS('', 1, 1, ((#1052, #1053), (#1054, #1055)), .UNSPECIFIED., .F., .F., .U., (2, 2), (2, 2), (0., 6.), (0., 6.), .UNSPECIFIED.);
#1052 = CARTESIAN_POINT('', (57., -3., 3.));
#1053 = CARTESIAN_POINT('', (57., 3., 3.));
#1054 = CARTESIAN_POINT('', (63., -3., 3.));
#1055 = CARTESIAN_POINT('', (63., 3., 3.));
#1056 = ADVANCED_FACE('', (#1057), #1079, .T.);
#1057 = FACE_OUTER_BOUND('', #1058, .T.);
#1058 = EDGE_LOOP('', (#1059, #1066, #1073, #1078));
#1059 = ORIENTED_EDGE('', *, *, #1060, .F.);
#1060 = EDGE_CURVE('', #1061, #1033, #1063, .T.);
#1061 = VERTEX_POINT('', #1062);
#1062 = CARTESIAN_POINT('', (57., -3., -3.));
#1063 = B_SPLINE_CURVE_WITH_KNOTS('', 1, (#1064, #1065), .UNSPECIFIED., .F., .U., (2, 2), (0., 6.), .UNSPECIFIED.);
#1064 = CARTESIAN_POINT('', (57., -3., -3.));
#1065 = CARTESIAN_POINT('', (57., -3., 3.));
#1066 = ORIENTED_EDGE('', *, *, #1067, .T.);
#1067 = EDGE_CURVE('', #1061, #1068, #1070, .T.);
#1068 = VERTEX_POINT('', #1069);
#1069 = CARTESIAN_POINT('', (63., -3., -3.));
#1070 = B_SPLINE_CURVE_WITH_KNOTS('', 1, (#1071, #1072), .UNSPECIFIED., .F., .U., (2, 2), (0., 6.), .UNSPECIFIED.);
#1071 = CARTESIAN_POINT('', (57., -3., -3.));
#1072 = CARTESIAN_POINT('', (63., -3., -3.));
#1073 = ORIENTED_EDGE('', *, *, #1074, .T.);
#1074 = EDGE_CURVE('', #1068, #1040, #1075, .T.);
#1075 = B_SPLINE_CURVE_WITH_KNOTS('', 1, (#1076, #1077), .UNSPECIFIED., .F., .U., (2, 2), (0., 6.), .UNSPECIFIED.);
#1076 = CARTESIAN_POINT('', (63., -3., -3.));
#1077 = CARTESIAN_POINT('', (63., -3., 3.));
#1078 = ORIENTED_EDGE('', *, *, #1039, .F.);
#1079 = B_SPLINE_SURFACE_WITH_KNOTS('', 1, 1, ((#1080, #1081), (#1082, #1083)), .UNSPECIFIED., .F., .F., .U., (2, 2), (2, 2), (0., 6.), (0., 6.), .UNSPECIFIED.);
#1080 = CARTESIAN_POINT('', (57., -3., -3.));
#1081 = CARTESIAN_POINT('', (57., -3., 3.));
#1082 = CARTESIAN_POINT('', (63., -3., -3.));
#1083 = CARTESIAN_POINT('', (63., -3., 3.));
#1084 = ADVANCED_FACE('', (#1085), #1099, .T.);
#1085 = FACE_OUTER_BOUND('', #1086, .T.);
#1086 = EDGE_LOOP('', (#1087, #1092, #1093, #1098));
#1087 = ORIENTED_EDGE('', *, *, #1088, .T.);
#1088 = EDGE_CURVE('', #1061, #997, #1089, .T.);
#1089 = B_SPLINE_CURVE_WITH_KNOTS('', 1, (#1090, #1091), .UNSPECIFIED., .F., .U., (2, 2), (0., 6.), .UNSPECIFIED.);
#1090 = CARTESIAN_POINT('', (57., -3., -3.));
#1091 = CARTESIAN_POINT('', (57., 3., -3.));
#1092 = ORIENTED_EDGE('', *, *, #1019, .T.);
#1093 = ORIENTED_EDGE('', *, *, #1094, .F.);
#1094 = EDGE_CURVE('', #1068, #1013, #1095, .T.);
#1095 = B_SPLINE_CURVE_WITH_KNOTS('', 1, (#1096, #1097), .UNSPECIFIED., .F., .U., (2, 2), (0., 6.), .UNSPECIFIED.);
#1096 = CARTESIAN_POINT('', (63., -3., -3.));
#1097 = CARTESIAN_POINT('', (63., 3., -3.));
#1098 = ORIENTED_EDGE('', *, *, #1067, .F.);
#1099 = B_SPLINE_SURFACE_WITH_KNOTS('', 1, 1, ((#1100, #1101), (#1102, #1103)), .UNSPECIFIED., .F., .F., .U., (2, 2), (2, 2), (0., 6.), (0., 6.), .UNSPECIFIED.);
#1100 = CARTESIAN_POINT('', (57., -3., -3.));
#1101 = CARTESIAN_POINT('', (63., -3., -3.));
#1102 = CARTESIAN_POINT('', (57., 3., -3.));
#1103 = CARTESIAN_POINT('', (63., 3., -3.));
#1104 = ADVANCED_FACE('', (#1105), #1111, .T.);
#1105 = FACE_OUTER_BOUND('', #1106, .T.);
#1106 = EDGE_LOOP('', (#1107, #1108, #1109, #1110));
#1107 = ORIENTED_EDGE('', *, *, #1074, .F.);
#1108 = ORIENTED_EDGE('', *, *, #1094, .T.);
#1109 = ORIENTED_EDGE('', *, *, #1012, .T.);
#1110 = ORIENTED_EDGE('', *, *, #1046, .F.);
#1111 = B_SPLINE_SURFACE_WITH_KNOTS('', 1, 1, ((#1112, #1113), (#1114, #1115)), .UNSPECIFIED., .F., .F., .U., (2, 2), (2, 2), (0., 6.), (0., 6.), .UNSPECIFIED.);
#1112 = CARTESIAN_POINT('', (63., -3., -3.));
#1113 = CARTESIAN_POINT('', (63., -3., 3.));
#1114 = CARTESIAN_POINT('', (63., 3., -3.));
#1115 = CARTESIAN_POINT('', (63., 3., 3.));
#1116 = ADVANCED_FACE('', (#1117), #1123, .T.);
#1117 = FACE_OUTER_BOUND('', #1118, .T.);
#1118 = EDGE_LOOP('', (#1119, #1120, #1121, #1122));
#1119 = ORIENTED_EDGE('', *, *, #1060, .T.);
#1120 = ORIENTED_EDGE('', *, *, #1032, .T.);
#1121 = ORIENTED_EDGE('', *, *, #996, .F.);
#1122 = ORIENTED_EDGE('', *, *, #1088, .F.);
#1123 = B_SPLINE_SURFACE_WITH_KNOTS('', 1, 1, ((#1124, #1125), (#1126, #1127)), .UNSPECIFIED., .F., .F., .U., (2, 2), (2, 2), (0., 6.), (0., 6.), .UNSPECIFIED.);
#1124 = CARTESIAN_POINT('', (57., -3., -3.));
#1125 = CARTESIAN_POINT('', (57., 3., -3.));
#1126 = CARTESIAN_POINT('', (57., -3., 3.));
#1127 = CARTESIAN_POINT('', (57., 3., 3.));
#1128 = PRESENTATION_STYLE_ASSIGNMENT((#1129));
#1129 = SURFACE_STYLE_USAGE(.POSITIVE., #1130);
#1130 = SURFACE_SIDE_STYLE('', (#1131));
#1131 = SURFACE_STYLE_FILL_AREA(#1132);
#1132 = FILL_AREA_STYLE('', (#1133));
#1133 = FILL_AREA_STYLE_COLOUR('', #1134);
#1134 = COLOUR_RGB('', 0.50196078431373, 0.50196078431373, 0.50196078431373);
#1135 = STYLED_ITEM('', (#1128), #990);
#1136 = CARTESIAN_POINT('Origin', (0., 0., 0.));
#1137 = GEOMETRIC_SET('', (#1136));
#1138 = (
   GEOMETRIC_REPRESENTATION_CONTEXT (3)
   GLOBAL_UNCERTAINTY_ASSIGNED_CONTEXT ((#1140))
   GLOBAL_UNIT_ASSIGNED_CONTEXT ((#1139, #1141, #1142))
   REPRESENTATION_CONTEXT ('', '3D')
);
#1139 = (
   LENGTH_UNIT ()
   NAMED_UNIT (*)
   SI_UNIT (.MILLI., .METRE.)
);
#1140 = UNCERTAINTY_MEASURE_WITH_UNIT(LENGTH_MEASURE(1.E-6), #1139, 'DISTANCE_ACCURACY_VALUE', '');
#1141 = (
   NAMED_UNIT (*)
   SI_UNIT ($, .STERADIAN.)
   SOLID_ANGLE_UNIT ()
);
#1142 = (
   NAMED_UNIT (*)
   PLANE_ANGLE_UNIT ()
   SI_UNIT ($, .RADIAN.)
);
#1143 = SHAPE_REPRESENTATION('', (#1160), #1138);
#1144 = PRODUCT_DEFINITION_SHAPE('', '', #1145);
#1145 = PRODUCT_DEFINITION('', '', #1148, #1152);
#1146 = APPLICATION_CONTEXT('configuration controlled 3D designs of mechanical parts and assemblies');
#1147 = APPLICATION_PROTOCOL_DEFINITION('International Standard', 'automotive_design', 2002, #1146);
#1148 = PRODUCT_DEFINITION_FORMATION_WITH_SPECIFIED_SOURCE('', '', #1149, .NOT_KNOWN.);
#1149 = PRODUCT('ExtrusionOffset', 'ExtrusionOffset', '', (#1150));
#1150 = PRODUCT_CONTEXT('', #1146, 'mechanical');
#1151 = PRODUCT_RELATED_PRODUCT_CATEGORY('detail', '', (#1149));
#1152 = PRODUCT_DEFINITION_CONTEXT('part definition', #1146, 'design');
#1153 = SHAPE_DEFINITION_REPRESENTATION(#1144, #1143);
#1154 = SHAPE_REPRESENTATION_RELATIONSHIP('', '', #1143, #1155);
#1155 = SHAPE_REPRESENTATION('', (#1137), #1138);
#1156 = SHAPE_REPRESENTATION_RELATIONSHIP('', '', #1143, #1157);
#1157 = ADVANCED_BREP_SHAPE_REPRESENTATION('', (#990), #1138);
#1158 = SHAPE_REPRESENTATION_RELATIONSHIP('', '', #1143, #1159);
#1159 = MANIFOLD_SURFACE_SHAPE_REPRESENTATION('', (#1), #1138);
#1160 = AXIS2_PLACEMENT_3D('', #1161, #1162, #1163);
#1161 = CARTESIAN_POINT('', (0., 0., 0.));
#1162 = DIRECTION('', (0., 0., 1.));
#1163 = DIRECTION('', (1., 0., 0.));
ENDSEC;
END-ISO-10303-21;
