ISO-10303-21;
HEADER;
FILE_DESCRIPTION(('STEP'), '1');
FILE_NAME('ExtTrueLShape', '2026-04-15T12:23:37', (''), (''), 'Express 3.1.2.0', 'Express Tool', 'Unknown');
FILE_SCHEMA(('AUTOMOTIVE_DESIGN'));
ENDSEC;

DATA;
#1 = MANIFOLD_SOLID_BREP('Solid', #2);
#2 = CLOSED_SHELL('', (#3, #47, #99, #133, #159, #185, #203, #223));
#3 = ADVANCED_FACE('', (#4), #42, .T.);
#4 = FACE_OUTER_BOUND('', #5, .T.);
#5 = EDGE_LOOP('', (#6, #17, #26, #35));
#6 = ORIENTED_EDGE('', *, *, #7, .F.);
#7 = EDGE_CURVE('', #8, #10, #12, .T.);
#8 = VERTEX_POINT('', #9);
#9 = CARTESIAN_POINT('', (43., 18., -3.));
#10 = VERTEX_POINT('', #11);
#11 = CARTESIAN_POINT('', (43., 18., 23.));
#12 = B_SPLINE_CURVE_WITH_KNOTS('', 3, (#13, #14, #15, #16), .UNSPECIFIED., .F., .U., (4, 4), (12., 38.), .UNSPECIFIED.);
#13 = CARTESIAN_POINT('', (43., 18., -2.99999999999999));
#14 = CARTESIAN_POINT('', (43., 18., 5.66666666666667));
#15 = CARTESIAN_POINT('', (43., 18., 14.3333333333333));
#16 = CARTESIAN_POINT('', (43., 18., 23.));
#17 = ORIENTED_EDGE('', *, *, #18, .T.);
#18 = EDGE_CURVE('', #8, #19, #21, .T.);
#19 = VERTEX_POINT('', #20);
#20 = CARTESIAN_POINT('', (18., 18., -3.));
#21 = B_SPLINE_CURVE_WITH_KNOTS('', 3, (#22, #23, #24, #25), .UNSPECIFIED., .F., .U., (4, 4), (18., 43.), .UNSPECIFIED.);
#22 = CARTESIAN_POINT('', (43., 18., -3.));
#23 = CARTESIAN_POINT('', (34.6666666666667, 18., -3.));
#24 = CARTESIAN_POINT('', (26.3333333333333, 18., -3.));
#25 = CARTESIAN_POINT('', (18., 18., -3.));
#26 = ORIENTED_EDGE('', *, *, #27, .T.);
#27 = EDGE_CURVE('', #19, #28, #30, .T.);
#28 = VERTEX_POINT('', #29);
#29 = CARTESIAN_POINT('', (18., 18., 23.));
#30 = B_SPLINE_CURVE_WITH_KNOTS('', 3, (#31, #32, #33, #34), .UNSPECIFIED., .F., .U., (4, 4), (12., 38.), .UNSPECIFIED.);
#31 = CARTESIAN_POINT('', (18., 18., -2.99999999999999));
#32 = CARTESIAN_POINT('', (18., 18., 5.66666666666667));
#33 = CARTESIAN_POINT('', (18., 18., 14.3333333333333));
#34 = CARTESIAN_POINT('', (18., 18., 23.));
#35 = ORIENTED_EDGE('', *, *, #36, .F.);
#36 = EDGE_CURVE('', #10, #28, #37, .T.);
#37 = B_SPLINE_CURVE_WITH_KNOTS('', 3, (#38, #39, #40, #41), .UNSPECIFIED., .F., .U., (4, 4), (18., 43.), .UNSPECIFIED.);
#38 = CARTESIAN_POINT('', (43., 18., 23.));
#39 = CARTESIAN_POINT('', (34.6666666666667, 18., 23.));
#40 = CARTESIAN_POINT('', (26.3333333333333, 18., 23.));
#41 = CARTESIAN_POINT('', (18., 18., 23.));
#42 = B_SPLINE_SURFACE_WITH_KNOTS('', 1, 1, ((#43, #44), (#45, #46)), .UNSPECIFIED., .F., .F., .U., (2, 2), (2, 2), (-0.6, 1.6), (-0.75, 1.75), .UNSPECIFIED.);
#43 = CARTESIAN_POINT('', (55., 18., -15.));
#44 = CARTESIAN_POINT('', (55., 18., 35.));
#45 = CARTESIAN_POINT('', (-2.22044604925031E-15, 18., -15.));
#46 = CARTESIAN_POINT('', (-2.22044604925031E-15, 18., 35.));
#47 = ADVANCED_FACE('', (#48), #94, .T.);
#48 = FACE_OUTER_BOUND('', #49, .T.);
#49 = EDGE_LOOP('', (#50, #61, #70, #77, #78, #87));
#50 = ORIENTED_EDGE('', *, *, #51, .F.);
#51 = EDGE_CURVE('', #52, #54, #56, .T.);
#52 = VERTEX_POINT('', #53);
#53 = CARTESIAN_POINT('', (-3., 43., -3.));
#54 = VERTEX_POINT('', #55);
#55 = CARTESIAN_POINT('', (-3., -3., -3.));
#56 = B_SPLINE_CURVE_WITH_KNOTS('', 3, (#57, #58, #59, #60), .UNSPECIFIED., .F., .U., (4, 4), (12., 58.), .UNSPECIFIED.);
#57 = CARTESIAN_POINT('', (-3., 43., -3.));
#58 = CARTESIAN_POINT('', (-3., 27.6666666666667, -3.));
#59 = CARTESIAN_POINT('', (-3., 12.3333333333333, -3.));
#60 = CARTESIAN_POINT('', (-3., -3., -3.));
#61 = ORIENTED_EDGE('', *, *, #62, .F.);
#62 = EDGE_CURVE('', #63, #52, #65, .T.);
#63 = VERTEX_POINT('', #64);
#64 = CARTESIAN_POINT('', (18., 43., -3.));
#65 = B_SPLINE_CURVE_WITH_KNOTS('', 3, (#66, #67, #68, #69), .UNSPECIFIED., .F., .U., (4, 4), (12., 33.), .UNSPECIFIED.);
#66 = CARTESIAN_POINT('', (18., 43., -3.));
#67 = CARTESIAN_POINT('', (11., 43., -3.));
#68 = CARTESIAN_POINT('', (4., 43., -3.));
#69 = CARTESIAN_POINT('', (-3., 43., -3.));
#70 = ORIENTED_EDGE('', *, *, #71, .F.);
#71 = EDGE_CURVE('', #19, #63, #72, .T.);
#72 = B_SPLINE_CURVE_WITH_KNOTS('', 3, (#73, #74, #75, #76), .UNSPECIFIED., .F., .U., (4, 4), (12., 37.), .UNSPECIFIED.);
#73 = CARTESIAN_POINT('', (18., 18., -3.));
#74 = CARTESIAN_POINT('', (18., 26.3333333333333, -3.));
#75 = CARTESIAN_POINT('', (18., 34.6666666666667, -3.));
#76 = CARTESIAN_POINT('', (18., 43., -3.));
#77 = ORIENTED_EDGE('', *, *, #18, .F.);
#78 = ORIENTED_EDGE('', *, *, #79, .F.);
#79 = EDGE_CURVE('', #80, #8, #82, .T.);
#80 = VERTEX_POINT('', #81);
#81 = CARTESIAN_POINT('', (43., -3., -3.));
#82 = B_SPLINE_CURVE_WITH_KNOTS('', 3, (#83, #84, #85, #86), .UNSPECIFIED., .F., .U., (4, 4), (12., 33.), .UNSPECIFIED.);
#83 = CARTESIAN_POINT('', (43., -3., -3.));
#84 = CARTESIAN_POINT('', (43., 4., -3.));
#85 = CARTESIAN_POINT('', (43., 11., -3.));
#86 = CARTESIAN_POINT('', (43., 18., -3.));
#87 = ORIENTED_EDGE('', *, *, #88, .F.);
#88 = EDGE_CURVE('', #54, #80, #89, .T.);
#89 = B_SPLINE_CURVE_WITH_KNOTS('', 3, (#90, #91, #92, #93), .UNSPECIFIED., .F., .U., (4, 4), (12., 58.), .UNSPECIFIED.);
#90 = CARTESIAN_POINT('', (-3.00000000000001, -3., -3.));
#91 = CARTESIAN_POINT('', (12.3333333333333, -3., -3.));
#92 = CARTESIAN_POINT('', (27.6666666666667, -3., -3.));
#93 = CARTESIAN_POINT('', (43., -3., -3.));
#94 = B_SPLINE_SURFACE_WITH_KNOTS('', 1, 1, ((#95, #96), (#97, #98)), .UNSPECIFIED., .F., .F., .U., (2, 2), (2, 2), (0., 1.), (0., 1.), .UNSPECIFIED.);
#95 = CARTESIAN_POINT('', (51.1126983722081, -11.1126983722081, -3.));
#96 = CARTESIAN_POINT('', (51.1126983722081, 51.1126983722081, -3.));
#97 = CARTESIAN_POINT('', (-11.1126983722081, -11.1126983722081, -3.));
#98 = CARTESIAN_POINT('', (-11.1126983722081, 51.1126983722081, -3.));
#99 = ADVANCED_FACE('', (#100), #128, .T.);
#100 = FACE_OUTER_BOUND('', #101, .T.);
#101 = EDGE_LOOP('', (#102, #111, #112, #121));
#102 = ORIENTED_EDGE('', *, *, #103, .F.);
#103 = EDGE_CURVE('', #63, #104, #106, .T.);
#104 = VERTEX_POINT('', #105);
#105 = CARTESIAN_POINT('', (18., 43., 23.));
#106 = B_SPLINE_CURVE_WITH_KNOTS('', 3, (#107, #108, #109, #110), .UNSPECIFIED., .F., .U., (4, 4), (12., 38.), .UNSPECIFIED.);
#107 = CARTESIAN_POINT('', (18., 43., -3.));
#108 = CARTESIAN_POINT('', (18., 43., 5.66666666666667));
#109 = CARTESIAN_POINT('', (18., 43., 14.3333333333333));
#110 = CARTESIAN_POINT('', (18., 43., 23.));
#111 = ORIENTED_EDGE('', *, *, #62, .T.);
#112 = ORIENTED_EDGE('', *, *, #113, .T.);
#113 = EDGE_CURVE('', #52, #114, #116, .T.);
#114 = VERTEX_POINT('', #115);
#115 = CARTESIAN_POINT('', (-3., 43., 23.));
#116 = B_SPLINE_CURVE_WITH_KNOTS('', 3, (#117, #118, #119, #120), .UNSPECIFIED., .F., .U., (4, 4), (12., 38.), .UNSPECIFIED.);
#117 = CARTESIAN_POINT('', (-3., 43., -2.99999999999999));
#118 = CARTESIAN_POINT('', (-3., 43., 5.66666666666667));
#119 = CARTESIAN_POINT('', (-3., 43., 14.3333333333333));
#120 = CARTESIAN_POINT('', (-3., 43., 23.));
#121 = ORIENTED_EDGE('', *, *, #122, .F.);
#122 = EDGE_CURVE('', #104, #114, #123, .T.);
#123 = B_SPLINE_CURVE_WITH_KNOTS('', 3, (#124, #125, #126, #127), .UNSPECIFIED., .F., .U., (4, 4), (12., 33.), .UNSPECIFIED.);
#124 = CARTESIAN_POINT('', (18., 43., 23.));
#125 = CARTESIAN_POINT('', (11., 43., 23.));
#126 = CARTESIAN_POINT('', (4., 43., 23.));
#127 = CARTESIAN_POINT('', (-3., 43., 23.));
#128 = B_SPLINE_SURFACE_WITH_KNOTS('', 1, 1, ((#129, #130), (#131, #132)), .UNSPECIFIED., .F., .F., .U., (2, 2), (2, 2), (-1., 2.), (-0.75, 1.75), .UNSPECIFIED.);
#129 = CARTESIAN_POINT('', (30., 43., -15.));
#130 = CARTESIAN_POINT('', (30., 43., 35.));
#131 = CARTESIAN_POINT('', (-15., 43., -15.));
#132 = CARTESIAN_POINT('', (-15., 43., 35.));
#133 = ADVANCED_FACE('', (#134), #154, .T.);
#134 = FACE_OUTER_BOUND('', #135, .T.);
#135 = EDGE_LOOP('', (#136, #137, #138, #147));
#136 = ORIENTED_EDGE('', *, *, #113, .F.);
#137 = ORIENTED_EDGE('', *, *, #51, .T.);
#138 = ORIENTED_EDGE('', *, *, #139, .T.);
#139 = EDGE_CURVE('', #54, #140, #142, .T.);
#140 = VERTEX_POINT('', #141);
#141 = CARTESIAN_POINT('', (-3.00000000000001, -3., 23.));
#142 = B_SPLINE_CURVE_WITH_KNOTS('', 3, (#143, #144, #145, #146), .UNSPECIFIED., .F., .U., (4, 4), (12., 38.), .UNSPECIFIED.);
#143 = CARTESIAN_POINT('', (-3., -3., -2.99999999999999));
#144 = CARTESIAN_POINT('', (-3., -3., 5.66666666666667));
#145 = CARTESIAN_POINT('', (-3., -3., 14.3333333333333));
#146 = CARTESIAN_POINT('', (-3., -3., 23.));
#147 = ORIENTED_EDGE('', *, *, #148, .F.);
#148 = EDGE_CURVE('', #114, #140, #149, .T.);
#149 = B_SPLINE_CURVE_WITH_KNOTS('', 3, (#150, #151, #152, #153), .UNSPECIFIED., .F., .U., (4, 4), (12., 58.), .UNSPECIFIED.);
#150 = CARTESIAN_POINT('', (-3., 43., 23.));
#151 = CARTESIAN_POINT('', (-3., 27.6666666666667, 23.));
#152 = CARTESIAN_POINT('', (-3., 12.3333333333333, 23.));
#153 = CARTESIAN_POINT('', (-3., -3., 23.));
#154 = B_SPLINE_SURFACE_WITH_KNOTS('', 1, 1, ((#155, #156), (#157, #158)), .UNSPECIFIED., .F., .F., .U., (2, 2), (2, 2), (-0.375, 1.375), (-0.75, 1.75), .UNSPECIFIED.);
#155 = CARTESIAN_POINT('', (-3., 55., -15.));
#156 = CARTESIAN_POINT('', (-3., 55., 35.));
#157 = CARTESIAN_POINT('', (-3., -15., -15.));
#158 = CARTESIAN_POINT('', (-3., -15., 35.));
#159 = ADVANCED_FACE('', (#160), #180, .T.);
#160 = FACE_OUTER_BOUND('', #161, .T.);
#161 = EDGE_LOOP('', (#162, #163, #164, #173));
#162 = ORIENTED_EDGE('', *, *, #139, .F.);
#163 = ORIENTED_EDGE('', *, *, #88, .T.);
#164 = ORIENTED_EDGE('', *, *, #165, .T.);
#165 = EDGE_CURVE('', #80, #166, #168, .T.);
#166 = VERTEX_POINT('', #167);
#167 = CARTESIAN_POINT('', (43., -3., 23.));
#168 = B_SPLINE_CURVE_WITH_KNOTS('', 3, (#169, #170, #171, #172), .UNSPECIFIED., .F., .U., (4, 4), (12., 38.), .UNSPECIFIED.);
#169 = CARTESIAN_POINT('', (43., -3., -2.99999999999999));
#170 = CARTESIAN_POINT('', (43., -3., 5.66666666666667));
#171 = CARTESIAN_POINT('', (43., -3., 14.3333333333333));
#172 = CARTESIAN_POINT('', (43., -3., 23.));
#173 = ORIENTED_EDGE('', *, *, #174, .F.);
#174 = EDGE_CURVE('', #140, #166, #175, .T.);
#175 = B_SPLINE_CURVE_WITH_KNOTS('', 3, (#176, #177, #178, #179), .UNSPECIFIED., .F., .U., (4, 4), (12., 58.), .UNSPECIFIED.);
#176 = CARTESIAN_POINT('', (-3.00000000000001, -3., 23.));
#177 = CARTESIAN_POINT('', (12.3333333333333, -3., 23.));
#178 = CARTESIAN_POINT('', (27.6666666666667, -3., 23.));
#179 = CARTESIAN_POINT('', (43., -3., 23.));
#180 = B_SPLINE_SURFACE_WITH_KNOTS('', 1, 1, ((#181, #182), (#183, #184)), .UNSPECIFIED., .F., .F., .U., (2, 2), (2, 2), (-0.375, 1.375), (-0.75, 1.75), .UNSPECIFIED.);
#181 = CARTESIAN_POINT('', (-15., -3., -15.));
#182 = CARTESIAN_POINT('', (-15., -3., 35.));
#183 = CARTESIAN_POINT('', (55., -3., -15.));
#184 = CARTESIAN_POINT('', (55., -3., 35.));
#185 = ADVANCED_FACE('', (#186), #198, .T.);
#186 = FACE_OUTER_BOUND('', #187, .T.);
#187 = EDGE_LOOP('', (#188, #189, #190, #191));
#188 = ORIENTED_EDGE('', *, *, #165, .F.);
#189 = ORIENTED_EDGE('', *, *, #79, .T.);
#190 = ORIENTED_EDGE('', *, *, #7, .T.);
#191 = ORIENTED_EDGE('', *, *, #192, .F.);
#192 = EDGE_CURVE('', #166, #10, #193, .T.);
#193 = B_SPLINE_CURVE_WITH_KNOTS('', 3, (#194, #195, #196, #197), .UNSPECIFIED., .F., .U., (4, 4), (12., 33.), .UNSPECIFIED.);
#194 = CARTESIAN_POINT('', (43., -3., 23.));
#195 = CARTESIAN_POINT('', (43., 4., 23.));
#196 = CARTESIAN_POINT('', (43., 11., 23.));
#197 = CARTESIAN_POINT('', (43., 18., 23.));
#198 = B_SPLINE_SURFACE_WITH_KNOTS('', 1, 1, ((#199, #200), (#201, #202)), .UNSPECIFIED., .F., .F., .U., (2, 2), (2, 2), (-1., 2.), (-0.75, 1.75), .UNSPECIFIED.);
#199 = CARTESIAN_POINT('', (43., -15., -15.));
#200 = CARTESIAN_POINT('', (43., -15., 35.));
#201 = CARTESIAN_POINT('', (43., 30., -15.));
#202 = CARTESIAN_POINT('', (43., 30., 35.));
#203 = ADVANCED_FACE('', (#204), #218, .T.);
#204 = FACE_OUTER_BOUND('', #205, .T.);
#205 = EDGE_LOOP('', (#206, #207, #208, #209, #210, #217));
#206 = ORIENTED_EDGE('', *, *, #148, .T.);
#207 = ORIENTED_EDGE('', *, *, #174, .T.);
#208 = ORIENTED_EDGE('', *, *, #192, .T.);
#209 = ORIENTED_EDGE('', *, *, #36, .T.);
#210 = ORIENTED_EDGE('', *, *, #211, .T.);
#211 = EDGE_CURVE('', #28, #104, #212, .T.);
#212 = B_SPLINE_CURVE_WITH_KNOTS('', 3, (#213, #214, #215, #216), .UNSPECIFIED., .F., .U., (4, 4), (12., 37.), .UNSPECIFIED.);
#213 = CARTESIAN_POINT('', (18., 18., 23.));
#214 = CARTESIAN_POINT('', (18., 26.3333333333333, 23.));
#215 = CARTESIAN_POINT('', (18., 34.6666666666667, 23.));
#216 = CARTESIAN_POINT('', (18., 43., 23.));
#217 = ORIENTED_EDGE('', *, *, #122, .T.);
#218 = B_SPLINE_SURFACE_WITH_KNOTS('', 1, 1, ((#219, #220), (#221, #222)), .UNSPECIFIED., .F., .F., .U., (2, 2), (2, 2), (0., 1.), (0., 1.), .UNSPECIFIED.);
#219 = CARTESIAN_POINT('', (51.1126983722081, -11.1126983722081, 23.));
#220 = CARTESIAN_POINT('', (-11.1126983722081, -11.1126983722081, 23.));
#221 = CARTESIAN_POINT('', (51.1126983722081, 51.1126983722081, 23.));
#222 = CARTESIAN_POINT('', (-11.1126983722081, 51.1126983722081, 23.));
#223 = ADVANCED_FACE('', (#224), #230, .T.);
#224 = FACE_OUTER_BOUND('', #225, .T.);
#225 = EDGE_LOOP('', (#226, #227, #228, #229));
#226 = ORIENTED_EDGE('', *, *, #27, .F.);
#227 = ORIENTED_EDGE('', *, *, #71, .T.);
#228 = ORIENTED_EDGE('', *, *, #103, .T.);
#229 = ORIENTED_EDGE('', *, *, #211, .F.);
#230 = B_SPLINE_SURFACE_WITH_KNOTS('', 1, 1, ((#231, #232), (#233, #234)), .UNSPECIFIED., .F., .F., .U., (2, 2), (2, 2), (-0.6, 1.6), (-0.75, 1.75), .UNSPECIFIED.);
#231 = CARTESIAN_POINT('', (18., -2.22044604925031E-15, -15.));
#232 = CARTESIAN_POINT('', (18., -2.22044604925031E-15, 35.));
#233 = CARTESIAN_POINT('', (18., 55., -15.));
#234 = CARTESIAN_POINT('', (18., 55., 35.));
#235 = DRAUGHTING_MODEL('', (#243, #389), #392);
#236 = PRESENTATION_STYLE_ASSIGNMENT((#237));
#237 = SURFACE_STYLE_USAGE(.POSITIVE., #238);
#238 = SURFACE_SIDE_STYLE('', (#239));
#239 = SURFACE_STYLE_FILL_AREA(#240);
#240 = FILL_AREA_STYLE('', (#241));
#241 = FILL_AREA_STYLE_COLOUR('', #242);
#242 = COLOUR_RGB('', 0.8, 0.8, 0.8);
#243 = STYLED_ITEM('', (#236), #1);
#244 = MANIFOLD_SOLID_BREP('Solid0', #245);
#245 = CLOSED_SHELL('', (#246, #282, #310, #338, #358, #370));
#246 = ADVANCED_FACE('', (#247), #277, .T.);
#247 = FACE_OUTER_BOUND('', #248, .T.);
#248 = EDGE_LOOP('', (#249, #258, #265, #272));
#249 = ORIENTED_EDGE('', *, *, #250, .T.);
#250 = EDGE_CURVE('', #251, #253, #255, .T.);
#251 = VERTEX_POINT('', #252);
#252 = CARTESIAN_POINT('', (57., 3., -3.));
#253 = VERTEX_POINT('', #254);
#254 = CARTESIAN_POINT('', (57., 3., 3.));
#255 = B_SPLINE_CURVE_WITH_KNOTS('', 1, (#256, #257), .UNSPECIFIED., .F., .U., (2, 2), (0., 6.), .UNSPECIFIED.);
#256 = CARTESIAN_POINT('', (57., 3., -3.));
#257 = CARTESIAN_POINT('', (57., 3., 3.));
#258 = ORIENTED_EDGE('', *, *, #259, .T.);
#259 = EDGE_CURVE('', #253, #260, #262, .T.);
#260 = VERTEX_POINT('', #261);
#261 = CARTESIAN_POINT('', (63., 3., 3.));
#262 = B_SPLINE_CURVE_WITH_KNOTS('', 1, (#263, #264), .UNSPECIFIED., .F., .U., (2, 2), (0., 6.), .UNSPECIFIED.);
#263 = CARTESIAN_POINT('', (57., 3., 3.));
#264 = CARTESIAN_POINT('', (63., 3., 3.));
#265 = ORIENTED_EDGE('', *, *, #266, .F.);
#266 = EDGE_CURVE('', #267, #260, #269, .T.);
#267 = VERTEX_POINT('', #268);
#268 = CARTESIAN_POINT('', (63., 3., -3.));
#269 = B_SPLINE_CURVE_WITH_KNOTS('', 1, (#270, #271), .UNSPECIFIED., .F., .U., (2, 2), (0., 6.), .UNSPECIFIED.);
#270 = CARTESIAN_POINT('', (63., 3., -3.));
#271 = CARTESIAN_POINT('', (63., 3., 3.));
#272 = ORIENTED_EDGE('', *, *, #273, .F.);
#273 = EDGE_CURVE('', #251, #267, #274, .T.);
#274 = B_SPLINE_CURVE_WITH_KNOTS('', 1, (#275, #276), .UNSPECIFIED., .F., .U., (2, 2), (0., 6.), .UNSPECIFIED.);
#275 = CARTESIAN_POINT('', (57., 3., -3.));
#276 = CARTESIAN_POINT('', (63., 3., -3.));
#277 = B_SPLINE_SURFACE_WITH_KNOTS('', 1, 1, ((#278, #279), (#280, #281)), .UNSPECIFIED., .F., .F., .U., (2, 2), (2, 2), (0., 6.), (0., 6.), .UNSPECIFIED.);
#278 = CARTESIAN_POINT('', (57., 3., -3.));
#279 = CARTESIAN_POINT('', (63., 3., -3.));
#280 = CARTESIAN_POINT('', (57., 3., 3.));
#281 = CARTESIAN_POINT('', (63., 3., 3.));
#282 = ADVANCED_FACE('', (#283), #305, .T.);
#283 = FACE_OUTER_BOUND('', #284, .T.);
#284 = EDGE_LOOP('', (#285, #292, #299, #304));
#285 = ORIENTED_EDGE('', *, *, #286, .F.);
#286 = EDGE_CURVE('', #287, #253, #289, .T.);
#287 = VERTEX_POINT('', #288);
#288 = CARTESIAN_POINT('', (57., -3., 3.));
#289 = B_SPLINE_CURVE_WITH_KNOTS('', 1, (#290, #291), .UNSPECIFIED., .F., .U., (2, 2), (0., 6.), .UNSPECIFIED.);
#290 = CARTESIAN_POINT('', (57., -3., 3.));
#291 = CARTESIAN_POINT('', (57., 3., 3.));
#292 = ORIENTED_EDGE('', *, *, #293, .T.);
#293 = EDGE_CURVE('', #287, #294, #296, .T.);
#294 = VERTEX_POINT('', #295);
#295 = CARTESIAN_POINT('', (63., -3., 3.));
#296 = B_SPLINE_CURVE_WITH_KNOTS('', 1, (#297, #298), .UNSPECIFIED., .F., .U., (2, 2), (0., 6.), .UNSPECIFIED.);
#297 = CARTESIAN_POINT('', (57., -3., 3.));
#298 = CARTESIAN_POINT('', (63., -3., 3.));
#299 = ORIENTED_EDGE('', *, *, #300, .T.);
#300 = EDGE_CURVE('', #294, #260, #301, .T.);
#301 = B_SPLINE_CURVE_WITH_KNOTS('', 1, (#302, #303), .UNSPECIFIED., .F., .U., (2, 2), (0., 6.), .UNSPECIFIED.);
#302 = CARTESIAN_POINT('', (63., -3., 3.));
#303 = CARTESIAN_POINT('', (63., 3., 3.));
#304 = ORIENTED_EDGE('', *, *, #259, .F.);
#305 = B_SPLINE_SURFACE_WITH_KNOTS('', 1, 1, ((#306, #307), (#308, #309)), .UNSPECIFIED., .F., .F., .U., (2, 2), (2, 2), (0., 6.), (0., 6.), .UNSPECIFIED.);
#306 = CARTESIAN_POINT('', (57., -3., 3.));
#307 = CARTESIAN_POINT('', (57., 3., 3.));
#308 = CARTESIAN_POINT('', (63., -3., 3.));
#309 = CARTESIAN_POINT('', (63., 3., 3.));
#310 = ADVANCED_FACE('', (#311), #333, .T.);
#311 = FACE_OUTER_BOUND('', #312, .T.);
#312 = EDGE_LOOP('', (#313, #320, #327, #332));
#313 = ORIENTED_EDGE('', *, *, #314, .F.);
#314 = EDGE_CURVE('', #315, #287, #317, .T.);
#315 = VERTEX_POINT('', #316);
#316 = CARTESIAN_POINT('', (57., -3., -3.));
#317 = B_SPLINE_CURVE_WITH_KNOTS('', 1, (#318, #319), .UNSPECIFIED., .F., .U., (2, 2), (0., 6.), .UNSPECIFIED.);
#318 = CARTESIAN_POINT('', (57., -3., -3.));
#319 = CARTESIAN_POINT('', (57., -3., 3.));
#320 = ORIENTED_EDGE('', *, *, #321, .T.);
#321 = EDGE_CURVE('', #315, #322, #324, .T.);
#322 = VERTEX_POINT('', #323);
#323 = CARTESIAN_POINT('', (63., -3., -3.));
#324 = B_SPLINE_CURVE_WITH_KNOTS('', 1, (#325, #326), .UNSPECIFIED., .F., .U., (2, 2), (0., 6.), .UNSPECIFIED.);
#325 = CARTESIAN_POINT('', (57., -3., -3.));
#326 = CARTESIAN_POINT('', (63., -3., -3.));
#327 = ORIENTED_EDGE('', *, *, #328, .T.);
#328 = EDGE_CURVE('', #322, #294, #329, .T.);
#329 = B_SPLINE_CURVE_WITH_KNOTS('', 1, (#330, #331), .UNSPECIFIED., .F., .U., (2, 2), (0., 6.), .UNSPECIFIED.);
#330 = CARTESIAN_POINT('', (63., -3., -3.));
#331 = CARTESIAN_POINT('', (63., -3., 3.));
#332 = ORIENTED_EDGE('', *, *, #293, .F.);
#333 = B_SPLINE_SURFACE_WITH_KNOTS('', 1, 1, ((#334, #335), (#336, #337)), .UNSPECIFIED., .F., .F., .U., (2, 2), (2, 2), (0., 6.), (0., 6.), .UNSPECIFIED.);
#334 = CARTESIAN_POINT('', (57., -3., -3.));
#335 = CARTESIAN_POINT('', (57., -3., 3.));
#336 = CARTESIAN_POINT('', (63., -3., -3.));
#337 = CARTESIAN_POINT('', (63., -3., 3.));
#338 = ADVANCED_FACE('', (#339), #353, .T.);
#339 = FACE_OUTER_BOUND('', #340, .T.);
#340 = EDGE_LOOP('', (#341, #346, #347, #352));
#341 = ORIENTED_EDGE('', *, *, #342, .T.);
#342 = EDGE_CURVE('', #315, #251, #343, .T.);
#343 = B_SPLINE_CURVE_WITH_KNOTS('', 1, (#344, #345), .UNSPECIFIED., .F., .U., (2, 2), (0., 6.), .UNSPECIFIED.);
#344 = CARTESIAN_POINT('', (57., -3., -3.));
#345 = CARTESIAN_POINT('', (57., 3., -3.));
#346 = ORIENTED_EDGE('', *, *, #273, .T.);
#347 = ORIENTED_EDGE('', *, *, #348, .F.);
#348 = EDGE_CURVE('', #322, #267, #349, .T.);
#349 = B_SPLINE_CURVE_WITH_KNOTS('', 1, (#350, #351), .UNSPECIFIED., .F., .U., (2, 2), (0., 6.), .UNSPECIFIED.);
#350 = CARTESIAN_POINT('', (63., -3., -3.));
#351 = CARTESIAN_POINT('', (63., 3., -3.));
#352 = ORIENTED_EDGE('', *, *, #321, .F.);
#353 = B_SPLINE_SURFACE_WITH_KNOTS('', 1, 1, ((#354, #355), (#356, #357)), .UNSPECIFIED., .F., .F., .U., (2, 2), (2, 2), (0., 6.), (0., 6.), .UNSPECIFIED.);
#354 = CARTESIAN_POINT('', (57., -3., -3.));
#355 = CARTESIAN_POINT('', (63., -3., -3.));
#356 = CARTESIAN_POINT('', (57., 3., -3.));
#357 = CARTESIAN_POINT('', (63., 3., -3.));
#358 = ADVANCED_FACE('', (#359), #365, .T.);
#359 = FACE_OUTER_BOUND('', #360, .T.);
#360 = EDGE_LOOP('', (#361, #362, #363, #364));
#361 = ORIENTED_EDGE('', *, *, #328, .F.);
#362 = ORIENTED_EDGE('', *, *, #348, .T.);
#363 = ORIENTED_EDGE('', *, *, #266, .T.);
#364 = ORIENTED_EDGE('', *, *, #300, .F.);
#365 = B_SPLINE_SURFACE_WITH_KNOTS('', 1, 1, ((#366, #367), (#368, #369)), .UNSPECIFIED., .F., .F., .U., (2, 2), (2, 2), (0., 6.), (0., 6.), .UNSPECIFIED.);
#366 = CARTESIAN_POINT('', (63., -3., -3.));
#367 = CARTESIAN_POINT('', (63., -3., 3.));
#368 = CARTESIAN_POINT('', (63., 3., -3.));
#369 = CARTESIAN_POINT('', (63., 3., 3.));
#370 = ADVANCED_FACE('', (#371), #377, .T.);
#371 = FACE_OUTER_BOUND('', #372, .T.);
#372 = EDGE_LOOP('', (#373, #374, #375, #376));
#373 = ORIENTED_EDGE('', *, *, #314, .T.);
#374 = ORIENTED_EDGE('', *, *, #286, .T.);
#375 = ORIENTED_EDGE('', *, *, #250, .F.);
#376 = ORIENTED_EDGE('', *, *, #342, .F.);
#377 = B_SPLINE_SURFACE_WITH_KNOTS('', 1, 1, ((#378, #379), (#380, #381)), .UNSPECIFIED., .F., .F., .U., (2, 2), (2, 2), (0., 6.), (0., 6.), .UNSPECIFIED.);
#378 = CARTESIAN_POINT('', (57., -3., -3.));
#379 = CARTESIAN_POINT('', (57., 3., -3.));
#380 = CARTESIAN_POINT('', (57., -3., 3.));
#381 = CARTESIAN_POINT('', (57., 3., 3.));
#382 = PRESENTATION_STYLE_ASSIGNMENT((#383));
#383 = SURFACE_STYLE_USAGE(.POSITIVE., #384);
#384 = SURFACE_SIDE_STYLE('', (#385));
#385 = SURFACE_STYLE_FILL_AREA(#386);
#386 = FILL_AREA_STYLE('', (#387));
#387 = FILL_AREA_STYLE_COLOUR('', #388);
#388 = COLOUR_RGB('', 0.50196078431373, 0.50196078431373, 0.50196078431373);
#389 = STYLED_ITEM('', (#382), #244);
#390 = CARTESIAN_POINT('Origin', (0., 0., 0.));
#391 = GEOMETRIC_SET('', (#390));
#392 = (
   GEOMETRIC_REPRESENTATION_CONTEXT (3)
   GLOBAL_UNCERTAINTY_ASSIGNED_CONTEXT ((#394))
   GLOBAL_UNIT_ASSIGNED_CONTEXT ((#393, #395, #396))
   REPRESENTATION_CONTEXT ('', '3D')
);
#393 = (
   LENGTH_UNIT ()
   NAMED_UNIT (*)
   SI_UNIT (.MILLI., .METRE.)
);
#394 = UNCERTAINTY_MEASURE_WITH_UNIT(LENGTH_MEASURE(1.E-6), #393, 'DISTANCE_ACCURACY_VALUE', '');
#395 = (
   NAMED_UNIT (*)
   SI_UNIT ($, .STERADIAN.)
   SOLID_ANGLE_UNIT ()
);
#396 = (
   NAMED_UNIT (*)
   PLANE_ANGLE_UNIT ()
   SI_UNIT ($, .RADIAN.)
);
#397 = SHAPE_REPRESENTATION('', (#412), #392);
#398 = PRODUCT_DEFINITION_SHAPE('', '', #399);
#399 = PRODUCT_DEFINITION('', '', #402, #406);
#400 = APPLICATION_CONTEXT('configuration controlled 3D designs of mechanical parts and assemblies');
#401 = APPLICATION_PROTOCOL_DEFINITION('International Standard', 'automotive_design', 2002, #400);
#402 = PRODUCT_DEFINITION_FORMATION_WITH_SPECIFIED_SOURCE('', '', #403, .NOT_KNOWN.);
#403 = PRODUCT('ExtTrueLShape', 'ExtTrueLShape', '', (#404));
#404 = PRODUCT_CONTEXT('', #400, 'mechanical');
#405 = PRODUCT_RELATED_PRODUCT_CATEGORY('detail', '', (#403));
#406 = PRODUCT_DEFINITION_CONTEXT('part definition', #400, 'design');
#407 = SHAPE_DEFINITION_REPRESENTATION(#398, #397);
#408 = SHAPE_REPRESENTATION_RELATIONSHIP('', '', #397, #409);
#409 = SHAPE_REPRESENTATION('', (#391), #392);
#410 = SHAPE_REPRESENTATION_RELATIONSHIP('', '', #397, #411);
#411 = ADVANCED_BREP_SHAPE_REPRESENTATION('', (#1, #244), #392);
#412 = AXIS2_PLACEMENT_3D('', #413, #414, #415);
#413 = CARTESIAN_POINT('', (0., 0., 0.));
#414 = DIRECTION('', (0., 0., 1.));
#415 = DIRECTION('', (1., 0., 0.));
ENDSEC;
END-ISO-10303-21;
