ISO-10303-21;
HEADER;
FILE_DESCRIPTION(('STEP'), '1');
FILE_NAME('TestAsm', '2026-05-09T19:10:42', (''), (''), 'Express 3.1.2.0', 'Express Tool', 'Unknown');
FILE_SCHEMA(('AUTOMOTIVE_DESIGN'));
ENDSEC;

DATA;
#1 = (
   GEOMETRIC_REPRESENTATION_CONTEXT (3)
   GLOBAL_UNCERTAINTY_ASSIGNED_CONTEXT ((#3))
   GLOBAL_UNIT_ASSIGNED_CONTEXT ((#2, #4, #5))
   REPRESENTATION_CONTEXT ('', '3D')
);
#2 = (
   LENGTH_UNIT ()
   NAMED_UNIT (*)
   SI_UNIT (.MILLI., .METRE.)
);
#3 = UNCERTAINTY_MEASURE_WITH_UNIT(LENGTH_MEASURE(1.E-6), #2, 'DISTANCE_ACCURACY_VALUE', '');
#4 = (
   NAMED_UNIT (*)
   SI_UNIT ($, .STERADIAN.)
   SOLID_ANGLE_UNIT ()
);
#5 = (
   NAMED_UNIT (*)
   PLANE_ANGLE_UNIT ()
   SI_UNIT ($, .RADIAN.)
);
#6 = SHAPE_REPRESENTATION('', (#272), #1);
#7 = PRODUCT_DEFINITION_SHAPE('', '', #8);
#8 = PRODUCT_DEFINITION('', '', #11, #15);
#9 = APPLICATION_CONTEXT('configuration controlled 3D designs of mechanical parts and assemblies');
#10 = APPLICATION_PROTOCOL_DEFINITION('International Standard', 'automotive_design', 2002, #9);
#11 = PRODUCT_DEFINITION_FORMATION_WITH_SPECIFIED_SOURCE('', '', #12, .NOT_KNOWN.);
#12 = PRODUCT('TestAsm', 'TestAsm', '', (#13));
#13 = PRODUCT_CONTEXT('', #9, 'mechanical');
#14 = PRODUCT_RELATED_PRODUCT_CATEGORY('detail', '', (#12));
#15 = PRODUCT_DEFINITION_CONTEXT('part definition', #9, 'design');
#16 = SHAPE_DEFINITION_REPRESENTATION(#7, #6);
#17 = MANIFOLD_SOLID_BREP('Body_0', #18);
#18 = CLOSED_SHELL('', (#19, #55, #83, #111, #131, #143));
#19 = ADVANCED_FACE('', (#20), #50, .T.);
#20 = FACE_OUTER_BOUND('', #21, .T.);
#21 = EDGE_LOOP('', (#22, #31, #38, #45));
#22 = ORIENTED_EDGE('', *, *, #23, .T.);
#23 = EDGE_CURVE('', #24, #26, #28, .T.);
#24 = VERTEX_POINT('', #25);
#25 = CARTESIAN_POINT('', (0., 60., 0.));
#26 = VERTEX_POINT('', #27);
#27 = CARTESIAN_POINT('', (0., 60., 40.));
#28 = B_SPLINE_CURVE_WITH_KNOTS('', 1, (#29, #30), .UNSPECIFIED., .F., .U., (2, 2), (0., 40.), .UNSPECIFIED.);
#29 = CARTESIAN_POINT('', (0., 60., 0.));
#30 = CARTESIAN_POINT('', (0., 60., 40.));
#31 = ORIENTED_EDGE('', *, *, #32, .T.);
#32 = EDGE_CURVE('', #26, #33, #35, .T.);
#33 = VERTEX_POINT('', #34);
#34 = CARTESIAN_POINT('', (80., 60., 40.));
#35 = B_SPLINE_CURVE_WITH_KNOTS('', 1, (#36, #37), .UNSPECIFIED., .F., .U., (2, 2), (0., 80.), .UNSPECIFIED.);
#36 = CARTESIAN_POINT('', (0., 60., 40.));
#37 = CARTESIAN_POINT('', (80., 60., 40.));
#38 = ORIENTED_EDGE('', *, *, #39, .F.);
#39 = EDGE_CURVE('', #40, #33, #42, .T.);
#40 = VERTEX_POINT('', #41);
#41 = CARTESIAN_POINT('', (80., 60., 0.));
#42 = B_SPLINE_CURVE_WITH_KNOTS('', 1, (#43, #44), .UNSPECIFIED., .F., .U., (2, 2), (0., 40.), .UNSPECIFIED.);
#43 = CARTESIAN_POINT('', (80., 60., 0.));
#44 = CARTESIAN_POINT('', (80., 60., 40.));
#45 = ORIENTED_EDGE('', *, *, #46, .F.);
#46 = EDGE_CURVE('', #24, #40, #47, .T.);
#47 = B_SPLINE_CURVE_WITH_KNOTS('', 1, (#48, #49), .UNSPECIFIED., .F., .U., (2, 2), (0., 80.), .UNSPECIFIED.);
#48 = CARTESIAN_POINT('', (0., 60., 0.));
#49 = CARTESIAN_POINT('', (80., 60., 0.));
#50 = B_SPLINE_SURFACE_WITH_KNOTS('', 1, 1, ((#51, #52), (#53, #54)), .UNSPECIFIED., .F., .F., .U., (2, 2), (2, 2), (0., 40.), (0., 80.), .UNSPECIFIED.);
#51 = CARTESIAN_POINT('', (0., 60., 0.));
#52 = CARTESIAN_POINT('', (80., 60., 0.));
#53 = CARTESIAN_POINT('', (0., 60., 40.));
#54 = CARTESIAN_POINT('', (80., 60., 40.));
#55 = ADVANCED_FACE('', (#56), #78, .T.);
#56 = FACE_OUTER_BOUND('', #57, .T.);
#57 = EDGE_LOOP('', (#58, #65, #72, #77));
#58 = ORIENTED_EDGE('', *, *, #59, .F.);
#59 = EDGE_CURVE('', #60, #26, #62, .T.);
#60 = VERTEX_POINT('', #61);
#61 = CARTESIAN_POINT('', (0., 0., 40.));
#62 = B_SPLINE_CURVE_WITH_KNOTS('', 1, (#63, #64), .UNSPECIFIED., .F., .U., (2, 2), (0., 60.), .UNSPECIFIED.);
#63 = CARTESIAN_POINT('', (0., 0., 40.));
#64 = CARTESIAN_POINT('', (0., 60., 40.));
#65 = ORIENTED_EDGE('', *, *, #66, .T.);
#66 = EDGE_CURVE('', #60, #67, #69, .T.);
#67 = VERTEX_POINT('', #68);
#68 = CARTESIAN_POINT('', (80., 0., 40.));
#69 = B_SPLINE_CURVE_WITH_KNOTS('', 1, (#70, #71), .UNSPECIFIED., .F., .U., (2, 2), (0., 80.), .UNSPECIFIED.);
#70 = CARTESIAN_POINT('', (0., 0., 40.));
#71 = CARTESIAN_POINT('', (80., 0., 40.));
#72 = ORIENTED_EDGE('', *, *, #73, .T.);
#73 = EDGE_CURVE('', #67, #33, #74, .T.);
#74 = B_SPLINE_CURVE_WITH_KNOTS('', 1, (#75, #76), .UNSPECIFIED., .F., .U., (2, 2), (0., 60.), .UNSPECIFIED.);
#75 = CARTESIAN_POINT('', (80., 0., 40.));
#76 = CARTESIAN_POINT('', (80., 60., 40.));
#77 = ORIENTED_EDGE('', *, *, #32, .F.);
#78 = B_SPLINE_SURFACE_WITH_KNOTS('', 1, 1, ((#79, #80), (#81, #82)), .UNSPECIFIED., .F., .F., .U., (2, 2), (2, 2), (0., 80.), (0., 60.), .UNSPECIFIED.);
#79 = CARTESIAN_POINT('', (0., 0., 40.));
#80 = CARTESIAN_POINT('', (0., 60., 40.));
#81 = CARTESIAN_POINT('', (80., 0., 40.));
#82 = CARTESIAN_POINT('', (80., 60., 40.));
#83 = ADVANCED_FACE('', (#84), #106, .T.);
#84 = FACE_OUTER_BOUND('', #85, .T.);
#85 = EDGE_LOOP('', (#86, #93, #100, #105));
#86 = ORIENTED_EDGE('', *, *, #87, .F.);
#87 = EDGE_CURVE('', #88, #60, #90, .T.);
#88 = VERTEX_POINT('', #89);
#89 = CARTESIAN_POINT('', (0., 0., 0.));
#90 = B_SPLINE_CURVE_WITH_KNOTS('', 1, (#91, #92), .UNSPECIFIED., .F., .U., (2, 2), (0., 40.), .UNSPECIFIED.);
#91 = CARTESIAN_POINT('', (0., 0., 0.));
#92 = CARTESIAN_POINT('', (0., 0., 40.));
#93 = ORIENTED_EDGE('', *, *, #94, .T.);
#94 = EDGE_CURVE('', #88, #95, #97, .T.);
#95 = VERTEX_POINT('', #96);
#96 = CARTESIAN_POINT('', (80., 0., 0.));
#97 = B_SPLINE_CURVE_WITH_KNOTS('', 1, (#98, #99), .UNSPECIFIED., .F., .U., (2, 2), (0., 80.), .UNSPECIFIED.);
#98 = CARTESIAN_POINT('', (0., 0., 0.));
#99 = CARTESIAN_POINT('', (80., 0., 0.));
#100 = ORIENTED_EDGE('', *, *, #101, .T.);
#101 = EDGE_CURVE('', #95, #67, #102, .T.);
#102 = B_SPLINE_CURVE_WITH_KNOTS('', 1, (#103, #104), .UNSPECIFIED., .F., .U., (2, 2), (0., 40.), .UNSPECIFIED.);
#103 = CARTESIAN_POINT('', (80., 0., 0.));
#104 = CARTESIAN_POINT('', (80., 0., 40.));
#105 = ORIENTED_EDGE('', *, *, #66, .F.);
#106 = B_SPLINE_SURFACE_WITH_KNOTS('', 1, 1, ((#107, #108), (#109, #110)), .UNSPECIFIED., .F., .F., .U., (2, 2), (2, 2), (0., 80.), (0., 40.), .UNSPECIFIED.);
#107 = CARTESIAN_POINT('', (0., 0., 0.));
#108 = CARTESIAN_POINT('', (0., 0., 40.));
#109 = CARTESIAN_POINT('', (80., 0., 0.));
#110 = CARTESIAN_POINT('', (80., 0., 40.));
#111 = ADVANCED_FACE('', (#112), #126, .T.);
#112 = FACE_OUTER_BOUND('', #113, .T.);
#113 = EDGE_LOOP('', (#114, #119, #120, #125));
#114 = ORIENTED_EDGE('', *, *, #115, .T.);
#115 = EDGE_CURVE('', #88, #24, #116, .T.);
#116 = B_SPLINE_CURVE_WITH_KNOTS('', 1, (#117, #118), .UNSPECIFIED., .F., .U., (2, 2), (0., 60.), .UNSPECIFIED.);
#117 = CARTESIAN_POINT('', (0., 0., 0.));
#118 = CARTESIAN_POINT('', (0., 60., 0.));
#119 = ORIENTED_EDGE('', *, *, #46, .T.);
#120 = ORIENTED_EDGE('', *, *, #121, .F.);
#121 = EDGE_CURVE('', #95, #40, #122, .T.);
#122 = B_SPLINE_CURVE_WITH_KNOTS('', 1, (#123, #124), .UNSPECIFIED., .F., .U., (2, 2), (0., 60.), .UNSPECIFIED.);
#123 = CARTESIAN_POINT('', (80., 0., 0.));
#124 = CARTESIAN_POINT('', (80., 60., 0.));
#125 = ORIENTED_EDGE('', *, *, #94, .F.);
#126 = B_SPLINE_SURFACE_WITH_KNOTS('', 1, 1, ((#127, #128), (#129, #130)), .UNSPECIFIED., .F., .F., .U., (2, 2), (2, 2), (0., 60.), (0., 80.), .UNSPECIFIED.);
#127 = CARTESIAN_POINT('', (0., 0., 0.));
#128 = CARTESIAN_POINT('', (80., 0., 0.));
#129 = CARTESIAN_POINT('', (0., 60., 0.));
#130 = CARTESIAN_POINT('', (80., 60., 0.));
#131 = ADVANCED_FACE('', (#132), #138, .T.);
#132 = FACE_OUTER_BOUND('', #133, .T.);
#133 = EDGE_LOOP('', (#134, #135, #136, #137));
#134 = ORIENTED_EDGE('', *, *, #101, .F.);
#135 = ORIENTED_EDGE('', *, *, #121, .T.);
#136 = ORIENTED_EDGE('', *, *, #39, .T.);
#137 = ORIENTED_EDGE('', *, *, #73, .F.);
#138 = B_SPLINE_SURFACE_WITH_KNOTS('', 1, 1, ((#139, #140), (#141, #142)), .UNSPECIFIED., .F., .F., .U., (2, 2), (2, 2), (0., 60.), (0., 40.), .UNSPECIFIED.);
#139 = CARTESIAN_POINT('', (80., 0., 0.));
#140 = CARTESIAN_POINT('', (80., 0., 40.));
#141 = CARTESIAN_POINT('', (80., 60., 0.));
#142 = CARTESIAN_POINT('', (80., 60., 40.));
#143 = ADVANCED_FACE('', (#144), #150, .T.);
#144 = FACE_OUTER_BOUND('', #145, .T.);
#145 = EDGE_LOOP('', (#146, #147, #148, #149));
#146 = ORIENTED_EDGE('', *, *, #87, .T.);
#147 = ORIENTED_EDGE('', *, *, #59, .T.);
#148 = ORIENTED_EDGE('', *, *, #23, .F.);
#149 = ORIENTED_EDGE('', *, *, #115, .F.);
#150 = B_SPLINE_SURFACE_WITH_KNOTS('', 1, 1, ((#151, #152), (#153, #154)), .UNSPECIFIED., .F., .F., .U., (2, 2), (2, 2), (0., 40.), (0., 60.), .UNSPECIFIED.);
#151 = CARTESIAN_POINT('', (0., 0., 0.));
#152 = CARTESIAN_POINT('', (0., 60., 0.));
#153 = CARTESIAN_POINT('', (0., 0., 40.));
#154 = CARTESIAN_POINT('', (0., 60., 40.));
#155 = DRAUGHTING_MODEL('', (#163, #247), #250);
#156 = PRESENTATION_STYLE_ASSIGNMENT((#157));
#157 = SURFACE_STYLE_USAGE(.POSITIVE., #158);
#158 = SURFACE_SIDE_STYLE('', (#159));
#159 = SURFACE_STYLE_FILL_AREA(#160);
#160 = FILL_AREA_STYLE('', (#161));
#161 = FILL_AREA_STYLE_COLOUR('', #162);
#162 = COLOUR_RGB('', 0.50196078431373, 0.50196078431373, 0.50196078431373);
#163 = STYLED_ITEM('', (#156), #17);
#164 = MANIFOLD_SOLID_BREP('Hole_0', #165);
#165 = CLOSED_SHELL('', (#166, #222, #231));
#166 = ADVANCED_FACE('', (#167), #203, .T.);
#167 = FACE_OUTER_BOUND('', #168, .T.);
#168 = EDGE_LOOP('', (#169, #178, #190, #191));
#169 = ORIENTED_EDGE('', *, *, #170, .F.);
#170 = EDGE_CURVE('', #171, #173, #175, .T.);
#171 = VERTEX_POINT('', #172);
#172 = CARTESIAN_POINT('', (50., 0., 0.));
#173 = VERTEX_POINT('', #174);
#174 = CARTESIAN_POINT('', (50., 0., 50.));
#175 = B_SPLINE_CURVE_WITH_KNOTS('', 1, (#176, #177), .UNSPECIFIED., .F., .U., (2, 2), (0., 50.), .UNSPECIFIED.);
#176 = CARTESIAN_POINT('', (50., 0., 0.));
#177 = CARTESIAN_POINT('', (50., 0., 50.));
#178 = ORIENTED_EDGE('', *, *, #179, .T.);
#179 = EDGE_CURVE('', #171, #171, #180, .T.);
#180 = (
   BOUNDED_CURVE ()
   B_SPLINE_CURVE (2, (#181, #182, #183, #184, #185, #186, #187, #188, #189), .UNSPECIFIED., .T., .U.)
   B_SPLINE_CURVE_WITH_KNOTS ((3, 2, 2, 2, 3), (0., 78.5398163397448, 157.07963267949, 235.619449019235, 314.159265358979), .UNSPECIFIED.)
   CURVE ()
   GEOMETRIC_REPRESENTATION_ITEM ()
   RATIONAL_B_SPLINE_CURVE ((1., 0.707106781186548, 1., 0.707106781186548, 1., 0.707106781186548, 1., 0.707106781186548, 1.))
   REPRESENTATION_ITEM ('')
);
#181 = CARTESIAN_POINT('', (50., 0., 0.));
#182 = CARTESIAN_POINT('', (50., 50., 0.));
#183 = CARTESIAN_POINT('', (3.06161699786838E-15, 50., 0.));
#184 = CARTESIAN_POINT('', (-50., 50., 0.));
#185 = CARTESIAN_POINT('', (-50., 6.12323399573677E-15, 0.));
#186 = CARTESIAN_POINT('', (-50., -50., 0.));
#187 = CARTESIAN_POINT('', (-9.18485099360515E-15, -50., 0.));
#188 = CARTESIAN_POINT('', (50., -50., 0.));
#189 = CARTESIAN_POINT('', (50., 0., 0.));
#190 = ORIENTED_EDGE('', *, *, #170, .T.);
#191 = ORIENTED_EDGE('', *, *, #192, .F.);
#192 = EDGE_CURVE('', #173, #173, #193, .T.);
#193 = (
   BOUNDED_CURVE ()
   B_SPLINE_CURVE (2, (#194, #195, #196, #197, #198, #199, #200, #201, #202), .UNSPECIFIED., .T., .U.)
   B_SPLINE_CURVE_WITH_KNOTS ((3, 2, 2, 2, 3), (0., 78.5398163397448, 157.07963267949, 235.619449019235, 314.159265358979), .UNSPECIFIED.)
   CURVE ()
   GEOMETRIC_REPRESENTATION_ITEM ()
   RATIONAL_B_SPLINE_CURVE ((1., 0.707106781186548, 1., 0.707106781186548, 1., 0.707106781186548, 1., 0.707106781186548, 1.))
   REPRESENTATION_ITEM ('')
);
#194 = CARTESIAN_POINT('', (50., 0., 50.));
#195 = CARTESIAN_POINT('', (50., 50., 50.));
#196 = CARTESIAN_POINT('', (3.06161699786838E-15, 50., 50.));
#197 = CARTESIAN_POINT('', (-50., 50., 50.));
#198 = CARTESIAN_POINT('', (-50., 6.12323399573677E-15, 50.));
#199 = CARTESIAN_POINT('', (-50., -50., 50.));
#200 = CARTESIAN_POINT('', (-9.18485099360515E-15, -50., 50.));
#201 = CARTESIAN_POINT('', (50., -50., 50.));
#202 = CARTESIAN_POINT('', (50., 0., 50.));
#203 = (
   BOUNDED_SURFACE ()
   B_SPLINE_SURFACE (2, 1, ((#204, #205), (#206, #207), (#208, #209), (#210, #211), (#212, #213), (#214, #215), (#216, #217), (#218, #219), (#220, #221)), .UNSPECIFIED., .T., .F., .U.)
   B_SPLINE_SURFACE_WITH_KNOTS ((3, 2, 2, 2, 3), (2, 2), (0., 78.5398163397448, 157.07963267949, 235.619449019235, 314.159265358979), (0., 50.), .UNSPECIFIED.)
   GEOMETRIC_REPRESENTATION_ITEM ()
   RATIONAL_B_SPLINE_SURFACE (((1., 1.), (0.707106781186548, 0.707106781186548), (1., 1.), (0.707106781186548, 0.707106781186548), (1., 1.), (0.707106781186548, 0.707106781186548), (1., 1.), (0.707106781186548, 0.707106781186548), (1., 1.)))
   REPRESENTATION_ITEM ('')
   SURFACE ()
);
#204 = CARTESIAN_POINT('', (50., 0., 0.));
#205 = CARTESIAN_POINT('', (50., 0., 50.));
#206 = CARTESIAN_POINT('', (50., 50., 0.));
#207 = CARTESIAN_POINT('', (50., 50., 50.));
#208 = CARTESIAN_POINT('', (3.06161699786838E-15, 50., 0.));
#209 = CARTESIAN_POINT('', (3.06161699786838E-15, 50., 50.));
#210 = CARTESIAN_POINT('', (-50., 50., 0.));
#211 = CARTESIAN_POINT('', (-50., 50., 50.));
#212 = CARTESIAN_POINT('', (-50., 6.12323399573677E-15, 0.));
#213 = CARTESIAN_POINT('', (-50., 6.12323399573677E-15, 50.));
#214 = CARTESIAN_POINT('', (-50., -50., 0.));
#215 = CARTESIAN_POINT('', (-50., -50., 50.));
#216 = CARTESIAN_POINT('', (-9.18485099360515E-15, -50., 0.));
#217 = CARTESIAN_POINT('', (-9.18485099360515E-15, -50., 50.));
#218 = CARTESIAN_POINT('', (50., -50., 0.));
#219 = CARTESIAN_POINT('', (50., -50., 50.));
#220 = CARTESIAN_POINT('', (50., 0., 0.));
#221 = CARTESIAN_POINT('', (50., 0., 50.));
#222 = ADVANCED_FACE('', (#223), #226, .T.);
#223 = FACE_OUTER_BOUND('', #224, .T.);
#224 = EDGE_LOOP('', (#225));
#225 = ORIENTED_EDGE('', *, *, #179, .F.);
#226 = B_SPLINE_SURFACE_WITH_KNOTS('', 1, 1, ((#227, #228), (#229, #230)), .UNSPECIFIED., .F., .F., .U., (2, 2), (2, 2), (0., 1.), (0., 1.), .UNSPECIFIED.);
#227 = CARTESIAN_POINT('', (77.7817459305203, -77.7817459305203, 0.));
#228 = CARTESIAN_POINT('', (77.7817459305203, 77.7817459305203, 0.));
#229 = CARTESIAN_POINT('', (-77.7817459305203, -77.7817459305203, 0.));
#230 = CARTESIAN_POINT('', (-77.7817459305203, 77.7817459305203, 0.));
#231 = ADVANCED_FACE('', (#232), #235, .T.);
#232 = FACE_OUTER_BOUND('', #233, .T.);
#233 = EDGE_LOOP('', (#234));
#234 = ORIENTED_EDGE('', *, *, #192, .T.);
#235 = B_SPLINE_SURFACE_WITH_KNOTS('', 1, 1, ((#236, #237), (#238, #239)), .UNSPECIFIED., .F., .F., .U., (2, 2), (2, 2), (0., 1.), (0., 1.), .UNSPECIFIED.);
#236 = CARTESIAN_POINT('', (77.7817459305203, -77.7817459305203, 50.));
#237 = CARTESIAN_POINT('', (-77.7817459305203, -77.7817459305203, 50.));
#238 = CARTESIAN_POINT('', (77.7817459305203, 77.7817459305203, 50.));
#239 = CARTESIAN_POINT('', (-77.7817459305203, 77.7817459305203, 50.));
#240 = PRESENTATION_STYLE_ASSIGNMENT((#241));
#241 = SURFACE_STYLE_USAGE(.POSITIVE., #242);
#242 = SURFACE_SIDE_STYLE('', (#243));
#243 = SURFACE_STYLE_FILL_AREA(#244);
#244 = FILL_AREA_STYLE('', (#245));
#245 = FILL_AREA_STYLE_COLOUR('', #246);
#246 = COLOUR_RGB('', 0.50196078431373, 0.50196078431373, 0.50196078431373);
#247 = STYLED_ITEM('', (#240), #164);
#248 = CARTESIAN_POINT('Origin', (0., 0., 0.));
#249 = GEOMETRIC_SET('', (#248));
#250 = (
   GEOMETRIC_REPRESENTATION_CONTEXT (3)
   GLOBAL_UNCERTAINTY_ASSIGNED_CONTEXT ((#252))
   GLOBAL_UNIT_ASSIGNED_CONTEXT ((#251, #253, #254))
   REPRESENTATION_CONTEXT ('', '3D')
);
#251 = (
   LENGTH_UNIT ()
   NAMED_UNIT (*)
   SI_UNIT (.MILLI., .METRE.)
);
#252 = UNCERTAINTY_MEASURE_WITH_UNIT(LENGTH_MEASURE(1.E-6), #251, 'DISTANCE_ACCURACY_VALUE', '');
#253 = (
   NAMED_UNIT (*)
   SI_UNIT ($, .STERADIAN.)
   SOLID_ANGLE_UNIT ()
);
#254 = (
   NAMED_UNIT (*)
   PLANE_ANGLE_UNIT ()
   SI_UNIT ($, .RADIAN.)
);
#255 = SHAPE_REPRESENTATION('', (#276), #250);
#256 = PRODUCT_DEFINITION_SHAPE('', '', #257);
#257 = PRODUCT_DEFINITION('', '', #260, #264);
#258 = APPLICATION_CONTEXT('configuration controlled 3D designs of mechanical parts and assemblies');
#259 = APPLICATION_PROTOCOL_DEFINITION('International Standard', 'automotive_design', 2002, #258);
#260 = PRODUCT_DEFINITION_FORMATION_WITH_SPECIFIED_SOURCE('', '', #261, .NOT_KNOWN.);
#261 = PRODUCT('Bracket', 'Bracket', '', (#262));
#262 = PRODUCT_CONTEXT('', #258, 'mechanical');
#263 = PRODUCT_RELATED_PRODUCT_CATEGORY('detail', '', (#261));
#264 = PRODUCT_DEFINITION_CONTEXT('part definition', #258, 'design');
#265 = SHAPE_DEFINITION_REPRESENTATION(#256, #255);
#266 = SHAPE_REPRESENTATION_RELATIONSHIP('', '', #255, #267);
#267 = SHAPE_REPRESENTATION('', (#249), #250);
#268 = SHAPE_REPRESENTATION_RELATIONSHIP('', '', #255, #269);
#269 = ADVANCED_BREP_SHAPE_REPRESENTATION('', (#17, #164), #250);
#270 = NEXT_ASSEMBLY_USAGE_OCCURRENCE('', 'Bracket', 'Bracket', #8, #257, '');
#271 = PRODUCT_DEFINITION_SHAPE('', '', #270);
#272 = AXIS2_PLACEMENT_3D('', #273, #274, #275);
#273 = CARTESIAN_POINT('', (0., 0., 0.));
#274 = DIRECTION('', (0., 0., 1.));
#275 = DIRECTION('', (1., 0., 0.));
#276 = AXIS2_PLACEMENT_3D('', #277, #278, #279);
#277 = CARTESIAN_POINT('', (0., 0., 0.));
#278 = DIRECTION('', (0., 0., 1.));
#279 = DIRECTION('', (1., 0., 0.));
#280 = ITEM_DEFINED_TRANSFORMATION('', '', #272, #276);
#281 = (
   REPRESENTATION_RELATIONSHIP ('', '', #6, #255)
   REPRESENTATION_RELATIONSHIP_WITH_TRANSFORMATION (#280)
   SHAPE_REPRESENTATION_RELATIONSHIP ()
);
#282 = CONTEXT_DEPENDENT_SHAPE_REPRESENTATION(#281, #271);
ENDSEC;
END-ISO-10303-21;
