ISO-10303-21;
HEADER;
FILE_DESCRIPTION(('STEP'), '1');
FILE_NAME('CrossAxis', '2026-04-17T23:19:20', (''), (''), 'Express 3.1.2.0', 'Express Tool', 'Unknown');
FILE_SCHEMA(('AUTOMOTIVE_DESIGN'));
ENDSEC;

DATA;
#1 = MANIFOLD_SOLID_BREP('CrossAxis_0', #2);
#2 = CLOSED_SHELL('', (#3, #59, #127, #140));
#3 = ADVANCED_FACE('', (#4), #40, .T.);
#4 = FACE_OUTER_BOUND('', #5, .T.);
#5 = EDGE_LOOP('', (#6, #15, #27, #28));
#6 = ORIENTED_EDGE('', *, *, #7, .F.);
#7 = EDGE_CURVE('', #8, #10, #12, .T.);
#8 = VERTEX_POINT('', #9);
#9 = CARTESIAN_POINT('', (40., 0., 0.));
#10 = VERTEX_POINT('', #11);
#11 = CARTESIAN_POINT('', (40., 30., 0.));
#12 = B_SPLINE_CURVE_WITH_KNOTS('', 1, (#13, #14), .UNSPECIFIED., .F., .U., (2, 2), (0., 1.), .UNSPECIFIED.);
#13 = CARTESIAN_POINT('', (40., 0., 0.));
#14 = CARTESIAN_POINT('', (40., 30., 0.));
#15 = ORIENTED_EDGE('', *, *, #16, .T.);
#16 = EDGE_CURVE('', #8, #8, #17, .T.);
#17 = (
   BOUNDED_CURVE ()
   B_SPLINE_CURVE (2, (#18, #19, #20, #21, #22, #23, #24, #25, #26), .UNSPECIFIED., .T., .U.)
   B_SPLINE_CURVE_WITH_KNOTS ((3, 2, 2, 2, 3), (0., 62.8318530717959, 125.663706143592, 188.495559215388, 251.327412287183), .UNSPECIFIED.)
   CURVE ()
   GEOMETRIC_REPRESENTATION_ITEM ()
   RATIONAL_B_SPLINE_CURVE ((1., 0.707106781186548, 1., 0.707106781186548, 1., 0.707106781186548, 1., 0.707106781186548, 1.))
   REPRESENTATION_ITEM ('')
);
#18 = CARTESIAN_POINT('', (40., 0., 0.));
#19 = CARTESIAN_POINT('', (40., 0., -40.));
#20 = CARTESIAN_POINT('', (2.44929359829471E-15, 0., -40.));
#21 = CARTESIAN_POINT('', (-40., 0., -40.));
#22 = CARTESIAN_POINT('', (-40., 0., -4.89858719658941E-15));
#23 = CARTESIAN_POINT('', (-40., 0., 40.));
#24 = CARTESIAN_POINT('', (-7.34788079488412E-15, 0., 40.));
#25 = CARTESIAN_POINT('', (40., 0., 40.));
#26 = CARTESIAN_POINT('', (40., 0., 0.));
#27 = ORIENTED_EDGE('', *, *, #7, .T.);
#28 = ORIENTED_EDGE('', *, *, #29, .F.);
#29 = EDGE_CURVE('', #10, #10, #30, .T.);
#30 = (
   BOUNDED_CURVE ()
   B_SPLINE_CURVE (2, (#31, #32, #33, #34, #35, #36, #37, #38, #39), .UNSPECIFIED., .T., .U.)
   B_SPLINE_CURVE_WITH_KNOTS ((3, 2, 2, 2, 3), (0., 62.8318530717959, 125.663706143592, 188.495559215388, 251.327412287183), .UNSPECIFIED.)
   CURVE ()
   GEOMETRIC_REPRESENTATION_ITEM ()
   RATIONAL_B_SPLINE_CURVE ((1., 0.707106781186548, 1., 0.707106781186548, 1., 0.707106781186548, 1., 0.707106781186548, 1.))
   REPRESENTATION_ITEM ('')
);
#31 = CARTESIAN_POINT('', (40., 30., 0.));
#32 = CARTESIAN_POINT('', (40., 30., -40.));
#33 = CARTESIAN_POINT('', (2.44929359829471E-15, 30., -40.));
#34 = CARTESIAN_POINT('', (-40., 30., -40.));
#35 = CARTESIAN_POINT('', (-40., 30., -4.89858719658941E-15));
#36 = CARTESIAN_POINT('', (-40., 30., 40.));
#37 = CARTESIAN_POINT('', (-7.34788079488412E-15, 30., 40.));
#38 = CARTESIAN_POINT('', (40., 30., 40.));
#39 = CARTESIAN_POINT('', (40., 30., 0.));
#40 = (
   BOUNDED_SURFACE ()
   B_SPLINE_SURFACE (2, 1, ((#41, #42), (#43, #44), (#45, #46), (#47, #48), (#49, #50), (#51, #52), (#53, #54), (#55, #56), (#57, #58)), .UNSPECIFIED., .T., .F., .U.)
   B_SPLINE_SURFACE_WITH_KNOTS ((3, 2, 2, 2, 3), (2, 2), (0., 62.8318530717959, 125.663706143592, 188.495559215388, 251.327412287183), (0., 1.), .UNSPECIFIED.)
   GEOMETRIC_REPRESENTATION_ITEM ()
   RATIONAL_B_SPLINE_SURFACE (((1., 1.), (0.707106781186548, 0.707106781186548), (1., 1.), (0.707106781186548, 0.707106781186548), (1., 1.), (0.707106781186548, 0.707106781186548), (1., 1.), (0.707106781186548, 0.707106781186548), (1., 1.)))
   REPRESENTATION_ITEM ('')
   SURFACE ()
);
#41 = CARTESIAN_POINT('', (40., 0., 0.));
#42 = CARTESIAN_POINT('', (40., 30., 0.));
#43 = CARTESIAN_POINT('', (40., 0., -40.));
#44 = CARTESIAN_POINT('', (40., 30., -40.));
#45 = CARTESIAN_POINT('', (2.44929359829471E-15, 0., -40.));
#46 = CARTESIAN_POINT('', (2.44929359829471E-15, 30., -40.));
#47 = CARTESIAN_POINT('', (-40., 0., -40.));
#48 = CARTESIAN_POINT('', (-40., 30., -40.));
#49 = CARTESIAN_POINT('', (-40., 0., -4.89858719658941E-15));
#50 = CARTESIAN_POINT('', (-40., 30., -4.89858719658941E-15));
#51 = CARTESIAN_POINT('', (-40., 0., 40.));
#52 = CARTESIAN_POINT('', (-40., 30., 40.));
#53 = CARTESIAN_POINT('', (-7.34788079488412E-15, 0., 40.));
#54 = CARTESIAN_POINT('', (-7.34788079488412E-15, 30., 40.));
#55 = CARTESIAN_POINT('', (40., 0., 40.));
#56 = CARTESIAN_POINT('', (40., 30., 40.));
#57 = CARTESIAN_POINT('', (40., 0., 0.));
#58 = CARTESIAN_POINT('', (40., 30., 0.));
#59 = ADVANCED_FACE('', (#60), #108, .T.);
#60 = FACE_OUTER_BOUND('', #61, .T.);
#61 = EDGE_LOOP('', (#62, #71, #81, #89, #90, #100));
#62 = ORIENTED_EDGE('', *, *, #63, .F.);
#63 = EDGE_CURVE('', #64, #66, #68, .T.);
#64 = VERTEX_POINT('', #65);
#65 = CARTESIAN_POINT('', (-10., 30., 0.));
#66 = VERTEX_POINT('', #67);
#67 = CARTESIAN_POINT('', (-10., 0., 0.));
#68 = B_SPLINE_CURVE_WITH_KNOTS('', 1, (#69, #70), .UNSPECIFIED., .F., .U., (2, 2), (0., 1.), .UNSPECIFIED.);
#69 = CARTESIAN_POINT('', (-10., 30., 0.));
#70 = CARTESIAN_POINT('', (-10., 0., 0.));
#71 = ORIENTED_EDGE('', *, *, #72, .T.);
#72 = EDGE_CURVE('', #64, #73, #75, .T.);
#73 = VERTEX_POINT('', #74);
#74 = CARTESIAN_POINT('', (10., 30., 1.22464679914735E-15));
#75 = (
   BOUNDED_CURVE ()
   B_SPLINE_CURVE (2, (#76, #77, #78, #79, #80), .UNSPECIFIED., .F., .U.)
   B_SPLINE_CURVE_WITH_KNOTS ((3, 2, 3), (0.5, 0.75, 1.), .UNSPECIFIED.)
   CURVE ()
   GEOMETRIC_REPRESENTATION_ITEM ()
   RATIONAL_B_SPLINE_CURVE ((1., 0.707106781186548, 1., 0.707106781186548, 1.))
   REPRESENTATION_ITEM ('')
);
#76 = CARTESIAN_POINT('', (-10., 30., -1.22464679914735E-15));
#77 = CARTESIAN_POINT('', (-10., 30., 10.));
#78 = CARTESIAN_POINT('', (-1.83697019872103E-15, 30., 10.));
#79 = CARTESIAN_POINT('', (10., 30., 10.));
#80 = CARTESIAN_POINT('', (10., 30., 2.44929359829471E-15));
#81 = ORIENTED_EDGE('', *, *, #82, .T.);
#82 = EDGE_CURVE('', #73, #64, #83, .T.);
#83 = (
   BOUNDED_CURVE ()
   B_SPLINE_CURVE (2, (#84, #85, #86, #87, #88), .UNSPECIFIED., .F., .U.)
   B_SPLINE_CURVE_WITH_KNOTS ((3, 2, 3), (31.4159265358979, 47.1238898038469, 62.8318530717959), .UNSPECIFIED.)
   CURVE ()
   GEOMETRIC_REPRESENTATION_ITEM ()
   RATIONAL_B_SPLINE_CURVE ((1., 0.707106781186548, 1., 0.707106781186548, 1.))
   REPRESENTATION_ITEM ('')
);
#84 = CARTESIAN_POINT('', (10., 30., 1.22464679914735E-15));
#85 = CARTESIAN_POINT('', (10., 30., -10.));
#86 = CARTESIAN_POINT('', (1.83697019872103E-15, 30., -10.));
#87 = CARTESIAN_POINT('', (-10., 30., -10.));
#88 = CARTESIAN_POINT('', (-10., 30., -2.44929359829471E-15));
#89 = ORIENTED_EDGE('', *, *, #63, .T.);
#90 = ORIENTED_EDGE('', *, *, #91, .F.);
#91 = EDGE_CURVE('', #92, #66, #94, .T.);
#92 = VERTEX_POINT('', #93);
#93 = CARTESIAN_POINT('', (10., 0., 0.));
#94 = (
   BOUNDED_CURVE ()
   B_SPLINE_CURVE (2, (#95, #96, #97, #98, #99), .UNSPECIFIED., .F., .U.)
   B_SPLINE_CURVE_WITH_KNOTS ((3, 2, 3), (31.4159265358979, 47.1238898038469, 62.8318530717959), .UNSPECIFIED.)
   CURVE ()
   GEOMETRIC_REPRESENTATION_ITEM ()
   RATIONAL_B_SPLINE_CURVE ((1., 0.707106781186548, 1., 0.707106781186548, 1.))
   REPRESENTATION_ITEM ('')
);
#95 = CARTESIAN_POINT('', (10., 0., 1.22464679914735E-15));
#96 = CARTESIAN_POINT('', (10., 0., -10.));
#97 = CARTESIAN_POINT('', (1.83697019872103E-15, 0., -10.));
#98 = CARTESIAN_POINT('', (-10., 0., -10.));
#99 = CARTESIAN_POINT('', (-10., 0., -2.44929359829471E-15));
#100 = ORIENTED_EDGE('', *, *, #101, .F.);
#101 = EDGE_CURVE('', #66, #92, #102, .T.);
#102 = (
   BOUNDED_CURVE ()
   B_SPLINE_CURVE (2, (#103, #104, #105, #106, #107), .UNSPECIFIED., .F., .U.)
   B_SPLINE_CURVE_WITH_KNOTS ((3, 2, 3), (0.5, 0.75, 1.), .UNSPECIFIED.)
   CURVE ()
   GEOMETRIC_REPRESENTATION_ITEM ()
   RATIONAL_B_SPLINE_CURVE ((1., 0.707106781186548, 1., 0.707106781186548, 1.))
   REPRESENTATION_ITEM ('')
);
#103 = CARTESIAN_POINT('', (-10., 0., -1.22464679914735E-15));
#104 = CARTESIAN_POINT('', (-10., 0., 10.));
#105 = CARTESIAN_POINT('', (-1.83697019872103E-15, 0., 10.));
#106 = CARTESIAN_POINT('', (10., 0., 10.));
#107 = CARTESIAN_POINT('', (10., 0., 2.44929359829471E-15));
#108 = (
   BOUNDED_SURFACE ()
   B_SPLINE_SURFACE (2, 1, ((#109, #110), (#111, #112), (#113, #114), (#115, #116), (#117, #118), (#119, #120), (#121, #122), (#123, #124), (#125, #126)), .UNSPECIFIED., .T., .F., .U.)
   B_SPLINE_SURFACE_WITH_KNOTS ((3, 2, 2, 2, 3), (2, 2), (0., 15.707963267949, 31.4159265358979, 47.1238898038469, 62.8318530717959), (0., 1.), .UNSPECIFIED.)
   GEOMETRIC_REPRESENTATION_ITEM ()
   RATIONAL_B_SPLINE_SURFACE (((1., 1.), (0.707106781186548, 0.707106781186548), (1., 1.), (0.707106781186548, 0.707106781186548), (1., 1.), (0.707106781186548, 0.707106781186548), (1., 1.), (0.707106781186548, 0.707106781186548), (1., 1.)))
   REPRESENTATION_ITEM ('')
   SURFACE ()
);
#109 = CARTESIAN_POINT('', (-10., 30., 0.));
#110 = CARTESIAN_POINT('', (-10., 0., 0.));
#111 = CARTESIAN_POINT('', (-10., 30., 10.));
#112 = CARTESIAN_POINT('', (-10., 0., 10.));
#113 = CARTESIAN_POINT('', (-6.12323399573677E-16, 30., 10.));
#114 = CARTESIAN_POINT('', (-6.12323399573677E-16, 0., 10.));
#115 = CARTESIAN_POINT('', (10., 30., 10.));
#116 = CARTESIAN_POINT('', (10., 0., 10.));
#117 = CARTESIAN_POINT('', (10., 30., 1.22464679914735E-15));
#118 = CARTESIAN_POINT('', (10., 0., 1.22464679914735E-15));
#119 = CARTESIAN_POINT('', (10., 30., -10.));
#120 = CARTESIAN_POINT('', (10., 0., -10.));
#121 = CARTESIAN_POINT('', (1.83697019872103E-15, 30., -10.));
#122 = CARTESIAN_POINT('', (1.83697019872103E-15, 0., -10.));
#123 = CARTESIAN_POINT('', (-10., 30., -10.));
#124 = CARTESIAN_POINT('', (-10., 0., -10.));
#125 = CARTESIAN_POINT('', (-10., 30., 0.));
#126 = CARTESIAN_POINT('', (-10., 0., 0.));
#127 = ADVANCED_FACE('', (#128, #131), #135, .T.);
#128 = FACE_OUTER_BOUND('', #129, .T.);
#129 = EDGE_LOOP('', (#130));
#130 = ORIENTED_EDGE('', *, *, #16, .F.);
#131 = FACE_BOUND('', #132, .T.);
#132 = EDGE_LOOP('', (#133, #134));
#133 = ORIENTED_EDGE('', *, *, #101, .T.);
#134 = ORIENTED_EDGE('', *, *, #91, .T.);
#135 = B_SPLINE_SURFACE_WITH_KNOTS('', 1, 1, ((#136, #137), (#138, #139)), .UNSPECIFIED., .F., .F., .U., (2, 2), (2, 2), (0., 1.), (0., 1.), .UNSPECIFIED.);
#136 = CARTESIAN_POINT('', (-62.2253967444162, 0., -62.2253967444162));
#137 = CARTESIAN_POINT('', (-62.2253967444162, 0., 62.2253967444162));
#138 = CARTESIAN_POINT('', (62.2253967444162, 0., -62.2253967444162));
#139 = CARTESIAN_POINT('', (62.2253967444162, 0., 62.2253967444162));
#140 = ADVANCED_FACE('', (#141, #144), #148, .T.);
#141 = FACE_OUTER_BOUND('', #142, .T.);
#142 = EDGE_LOOP('', (#143));
#143 = ORIENTED_EDGE('', *, *, #29, .T.);
#144 = FACE_BOUND('', #145, .T.);
#145 = EDGE_LOOP('', (#146, #147));
#146 = ORIENTED_EDGE('', *, *, #72, .F.);
#147 = ORIENTED_EDGE('', *, *, #82, .F.);
#148 = B_SPLINE_SURFACE_WITH_KNOTS('', 1, 1, ((#149, #150), (#151, #152)), .UNSPECIFIED., .F., .F., .U., (2, 2), (2, 2), (0., 1.), (0., 1.), .UNSPECIFIED.);
#149 = CARTESIAN_POINT('', (-62.2253967444162, 30., -62.2253967444162));
#150 = CARTESIAN_POINT('', (62.2253967444162, 30., -62.2253967444162));
#151 = CARTESIAN_POINT('', (-62.2253967444162, 30., 62.2253967444162));
#152 = CARTESIAN_POINT('', (62.2253967444162, 30., 62.2253967444162));
#153 = DRAUGHTING_MODEL('', (#161), #164);
#154 = PRESENTATION_STYLE_ASSIGNMENT((#155));
#155 = SURFACE_STYLE_USAGE(.POSITIVE., #156);
#156 = SURFACE_SIDE_STYLE('', (#157));
#157 = SURFACE_STYLE_FILL_AREA(#158);
#158 = FILL_AREA_STYLE('', (#159));
#159 = FILL_AREA_STYLE_COLOUR('', #160);
#160 = COLOUR_RGB('', 0.50196078431373, 0.50196078431373, 0.50196078431373);
#161 = STYLED_ITEM('', (#154), #1);
#162 = CARTESIAN_POINT('Origin', (0., 0., 0.));
#163 = GEOMETRIC_SET('', (#162));
#164 = (
   GEOMETRIC_REPRESENTATION_CONTEXT (3)
   GLOBAL_UNCERTAINTY_ASSIGNED_CONTEXT ((#166))
   GLOBAL_UNIT_ASSIGNED_CONTEXT ((#165, #167, #168))
   REPRESENTATION_CONTEXT ('', '3D')
);
#165 = (
   LENGTH_UNIT ()
   NAMED_UNIT (*)
   SI_UNIT (.MILLI., .METRE.)
);
#166 = UNCERTAINTY_MEASURE_WITH_UNIT(LENGTH_MEASURE(1.E-6), #165, 'DISTANCE_ACCURACY_VALUE', '');
#167 = (
   NAMED_UNIT (*)
   SI_UNIT ($, .STERADIAN.)
   SOLID_ANGLE_UNIT ()
);
#168 = (
   NAMED_UNIT (*)
   PLANE_ANGLE_UNIT ()
   SI_UNIT ($, .RADIAN.)
);
#169 = SHAPE_REPRESENTATION('', (#184), #164);
#170 = PRODUCT_DEFINITION_SHAPE('', '', #171);
#171 = PRODUCT_DEFINITION('', '', #174, #178);
#172 = APPLICATION_CONTEXT('configuration controlled 3D designs of mechanical parts and assemblies');
#173 = APPLICATION_PROTOCOL_DEFINITION('International Standard', 'automotive_design', 2002, #172);
#174 = PRODUCT_DEFINITION_FORMATION_WITH_SPECIFIED_SOURCE('', '', #175, .NOT_KNOWN.);
#175 = PRODUCT('CrossAxis', 'CrossAxis', '', (#176));
#176 = PRODUCT_CONTEXT('', #172, 'mechanical');
#177 = PRODUCT_RELATED_PRODUCT_CATEGORY('detail', '', (#175));
#178 = PRODUCT_DEFINITION_CONTEXT('part definition', #172, 'design');
#179 = SHAPE_DEFINITION_REPRESENTATION(#170, #169);
#180 = SHAPE_REPRESENTATION_RELATIONSHIP('', '', #169, #181);
#181 = SHAPE_REPRESENTATION('', (#163), #164);
#182 = SHAPE_REPRESENTATION_RELATIONSHIP('', '', #169, #183);
#183 = ADVANCED_BREP_SHAPE_REPRESENTATION('', (#1), #164);
#184 = AXIS2_PLACEMENT_3D('', #185, #186, #187);
#185 = CARTESIAN_POINT('', (0., 0., 0.));
#186 = DIRECTION('', (0., 0., 1.));
#187 = DIRECTION('', (1., 0., 0.));
ENDSEC;
END-ISO-10303-21;
