ISO-10303-21;
HEADER;
FILE_DESCRIPTION(('STEP'), '1');
FILE_NAME('TwoRev', '2026-04-17T23:22:54', (''), (''), 'Express 3.1.2.0', 'Express Tool', 'Unknown');
FILE_SCHEMA(('AUTOMOTIVE_DESIGN'));
ENDSEC;

DATA;
#1 = MANIFOLD_SOLID_BREP('Rev1_0', #2);
#2 = CLOSED_SHELL('', (#3, #39, #73, #104, #129, #151));
#3 = ADVANCED_FACE('', (#4), #34, .T.);
#4 = FACE_OUTER_BOUND('', #5, .T.);
#5 = EDGE_LOOP('', (#6, #15, #22, #29));
#6 = ORIENTED_EDGE('', *, *, #7, .F.);
#7 = EDGE_CURVE('', #8, #10, #12, .T.);
#8 = VERTEX_POINT('', #9);
#9 = CARTESIAN_POINT('', (-20., 30., -2.44929359829471E-15));
#10 = VERTEX_POINT('', #11);
#11 = CARTESIAN_POINT('', (-20., 0., -2.44929359829471E-15));
#12 = B_SPLINE_CURVE_WITH_KNOTS('', 1, (#13, #14), .UNSPECIFIED., .F., .U., (2, 2), (0., 1.), .UNSPECIFIED.);
#13 = CARTESIAN_POINT('', (-20., 30., -2.44929359829471E-15));
#14 = CARTESIAN_POINT('', (-20., 0., -2.44929359829471E-15));
#15 = ORIENTED_EDGE('', *, *, #16, .F.);
#16 = EDGE_CURVE('', #17, #8, #19, .T.);
#17 = VERTEX_POINT('', #18);
#18 = CARTESIAN_POINT('', (-40., 30., -4.89858719658941E-15));
#19 = B_SPLINE_CURVE_WITH_KNOTS('', 1, (#20, #21), .UNSPECIFIED., .F., .U., (2, 2), (0., 1.), .UNSPECIFIED.);
#20 = CARTESIAN_POINT('', (-40., 30., -4.89858719658941E-15));
#21 = CARTESIAN_POINT('', (-20., 30., -2.44929359829471E-15));
#22 = ORIENTED_EDGE('', *, *, #23, .F.);
#23 = EDGE_CURVE('', #24, #17, #26, .T.);
#24 = VERTEX_POINT('', #25);
#25 = CARTESIAN_POINT('', (-40., 0., -4.89858719658941E-15));
#26 = B_SPLINE_CURVE_WITH_KNOTS('', 1, (#27, #28), .UNSPECIFIED., .F., .U., (2, 2), (0., 1.), .UNSPECIFIED.);
#27 = CARTESIAN_POINT('', (-40., 0., -4.89858719658941E-15));
#28 = CARTESIAN_POINT('', (-40., 30., -4.89858719658941E-15));
#29 = ORIENTED_EDGE('', *, *, #30, .F.);
#30 = EDGE_CURVE('', #10, #24, #31, .T.);
#31 = B_SPLINE_CURVE_WITH_KNOTS('', 1, (#32, #33), .UNSPECIFIED., .F., .U., (2, 2), (0., 1.), .UNSPECIFIED.);
#32 = CARTESIAN_POINT('', (-20., 0., -2.44929359829471E-15));
#33 = CARTESIAN_POINT('', (-40., 0., -4.89858719658941E-15));
#34 = B_SPLINE_SURFACE_WITH_KNOTS('', 1, 1, ((#35, #36), (#37, #38)), .UNSPECIFIED., .F., .F., .U., (2, 2), (2, 2), (0., 1.), (0., 1.), .UNSPECIFIED.);
#35 = CARTESIAN_POINT('', (-49.8305320150519, -4.83053201505194, -6.10248015320431E-15));
#36 = CARTESIAN_POINT('', (-49.8305320150519, 34.8305320150519, -6.10248015320431E-15));
#37 = CARTESIAN_POINT('', (-10.1694679849481, -4.83053201505194, -1.24540064167981E-15));
#38 = CARTESIAN_POINT('', (-10.1694679849481, 34.8305320150519, -1.24540064167981E-15));
#39 = ADVANCED_FACE('', (#40), #68, .T.);
#40 = FACE_OUTER_BOUND('', #41, .T.);
#41 = EDGE_LOOP('', (#42, #51, #59, #60));
#42 = ORIENTED_EDGE('', *, *, #43, .F.);
#43 = EDGE_CURVE('', #44, #46, #48, .T.);
#44 = VERTEX_POINT('', #45);
#45 = CARTESIAN_POINT('', (40., 30., 0.));
#46 = VERTEX_POINT('', #47);
#47 = CARTESIAN_POINT('', (20., 30., 0.));
#48 = B_SPLINE_CURVE_WITH_KNOTS('', 1, (#49, #50), .UNSPECIFIED., .F., .U., (2, 2), (0., 1.), .UNSPECIFIED.);
#49 = CARTESIAN_POINT('', (40., 30., 0.));
#50 = CARTESIAN_POINT('', (20., 30., 0.));
#51 = ORIENTED_EDGE('', *, *, #52, .T.);
#52 = EDGE_CURVE('', #44, #17, #53, .T.);
#53 = (
   BOUNDED_CURVE ()
   B_SPLINE_CURVE (2, (#54, #55, #56, #57, #58), .UNSPECIFIED., .F., .U.)
   B_SPLINE_CURVE_WITH_KNOTS ((3, 2, 3), (0., 62.8318530717959, 125.663706143592), .UNSPECIFIED.)
   CURVE ()
   GEOMETRIC_REPRESENTATION_ITEM ()
   RATIONAL_B_SPLINE_CURVE ((1., 0.707106781186548, 1., 0.707106781186548, 1.))
   REPRESENTATION_ITEM ('')
);
#54 = CARTESIAN_POINT('', (40., 30., 0.));
#55 = CARTESIAN_POINT('', (40., 30., -40.));
#56 = CARTESIAN_POINT('', (9.55472095589571E-15, 30., -40.));
#57 = CARTESIAN_POINT('', (-40., 30., -40.));
#58 = CARTESIAN_POINT('', (-40., 30., -4.89858719658941E-15));
#59 = ORIENTED_EDGE('', *, *, #16, .T.);
#60 = ORIENTED_EDGE('', *, *, #61, .F.);
#61 = EDGE_CURVE('', #46, #8, #62, .T.);
#62 = (
   BOUNDED_CURVE ()
   B_SPLINE_CURVE (2, (#63, #64, #65, #66, #67), .UNSPECIFIED., .F., .U.)
   B_SPLINE_CURVE_WITH_KNOTS ((3, 2, 3), (0., 31.4159265358979, 62.8318530717959), .UNSPECIFIED.)
   CURVE ()
   GEOMETRIC_REPRESENTATION_ITEM ()
   RATIONAL_B_SPLINE_CURVE ((1., 0.707106781186548, 1., 0.707106781186548, 1.))
   REPRESENTATION_ITEM ('')
);
#63 = CARTESIAN_POINT('', (20., 30., 0.));
#64 = CARTESIAN_POINT('', (20., 30., -20.));
#65 = CARTESIAN_POINT('', (4.77736047794785E-15, 30., -20.));
#66 = CARTESIAN_POINT('', (-20., 30., -20.));
#67 = CARTESIAN_POINT('', (-20., 30., -2.44929359829471E-15));
#68 = B_SPLINE_SURFACE_WITH_KNOTS('', 1, 1, ((#69, #70), (#71, #72)), .UNSPECIFIED., .F., .F., .U., (2, 2), (2, 2), (0., 1.), (0., 1.), .UNSPECIFIED.);
#69 = CARTESIAN_POINT('', (-44., 30., 44.));
#70 = CARTESIAN_POINT('', (-44., 30., -44.));
#71 = CARTESIAN_POINT('', (44., 30., 44.));
#72 = CARTESIAN_POINT('', (44., 30., -44.));
#73 = ADVANCED_FACE('', (#74), #93, .T.);
#74 = FACE_OUTER_BOUND('', #75, .T.);
#75 = EDGE_LOOP('', (#76, #83, #91, #92));
#76 = ORIENTED_EDGE('', *, *, #77, .F.);
#77 = EDGE_CURVE('', #78, #44, #80, .T.);
#78 = VERTEX_POINT('', #79);
#79 = CARTESIAN_POINT('', (40., 0., 0.));
#80 = B_SPLINE_CURVE_WITH_KNOTS('', 1, (#81, #82), .UNSPECIFIED., .F., .U., (2, 2), (0., 1.), .UNSPECIFIED.);
#81 = CARTESIAN_POINT('', (40., 0., 0.));
#82 = CARTESIAN_POINT('', (40., 30., 0.));
#83 = ORIENTED_EDGE('', *, *, #84, .T.);
#84 = EDGE_CURVE('', #78, #24, #85, .T.);
#85 = (
   BOUNDED_CURVE ()
   B_SPLINE_CURVE (2, (#86, #87, #88, #89, #90), .UNSPECIFIED., .F., .U.)
   B_SPLINE_CURVE_WITH_KNOTS ((3, 2, 3), (0., 0.5, 1.), .UNSPECIFIED.)
   CURVE ()
   GEOMETRIC_REPRESENTATION_ITEM ()
   RATIONAL_B_SPLINE_CURVE ((1., 0.707106781186548, 1., 0.707106781186548, 1.))
   REPRESENTATION_ITEM ('')
);
#86 = CARTESIAN_POINT('', (40., 0., 0.));
#87 = CARTESIAN_POINT('', (40., 0., -40.));
#88 = CARTESIAN_POINT('', (2.44929359829471E-15, 0., -40.));
#89 = CARTESIAN_POINT('', (-40., 0., -40.));
#90 = CARTESIAN_POINT('', (-40., 0., -4.89858719658941E-15));
#91 = ORIENTED_EDGE('', *, *, #23, .T.);
#92 = ORIENTED_EDGE('', *, *, #52, .F.);
#93 = (
   BOUNDED_SURFACE ()
   B_SPLINE_SURFACE (2, 1, ((#94, #95), (#96, #97), (#98, #99), (#100, #101), (#102, #103)), .UNSPECIFIED., .F., .F., .U.)
   B_SPLINE_SURFACE_WITH_KNOTS ((3, 2, 3), (2, 2), (0., 62.8318530717959, 125.663706143592), (0., 1.), .UNSPECIFIED.)
   GEOMETRIC_REPRESENTATION_ITEM ()
   RATIONAL_B_SPLINE_SURFACE (((1., 1.), (0.707106781186548, 0.707106781186548), (1., 1.), (0.707106781186548, 0.707106781186548), (1., 1.)))
   REPRESENTATION_ITEM ('')
   SURFACE ()
);
#94 = CARTESIAN_POINT('', (40., 0., 0.));
#95 = CARTESIAN_POINT('', (40., 30., 0.));
#96 = CARTESIAN_POINT('', (40., 0., -40.));
#97 = CARTESIAN_POINT('', (40., 30., -40.));
#98 = CARTESIAN_POINT('', (9.55472095589571E-15, 0., -40.));
#99 = CARTESIAN_POINT('', (9.55472095589571E-15, 30., -40.));
#100 = CARTESIAN_POINT('', (-40., 0., -40.));
#101 = CARTESIAN_POINT('', (-40., 30., -40.));
#102 = CARTESIAN_POINT('', (-40., 0., -4.89858719658941E-15));
#103 = CARTESIAN_POINT('', (-40., 30., -4.89858719658941E-15));
#104 = ADVANCED_FACE('', (#105), #124, .T.);
#105 = FACE_OUTER_BOUND('', #106, .T.);
#106 = EDGE_LOOP('', (#107, #114, #122, #123));
#107 = ORIENTED_EDGE('', *, *, #108, .F.);
#108 = EDGE_CURVE('', #109, #78, #111, .T.);
#109 = VERTEX_POINT('', #110);
#110 = CARTESIAN_POINT('', (20., 0., 0.));
#111 = B_SPLINE_CURVE_WITH_KNOTS('', 1, (#112, #113), .UNSPECIFIED., .F., .U., (2, 2), (0., 1.), .UNSPECIFIED.);
#112 = CARTESIAN_POINT('', (20., 0., 0.));
#113 = CARTESIAN_POINT('', (40., 0., 0.));
#114 = ORIENTED_EDGE('', *, *, #115, .T.);
#115 = EDGE_CURVE('', #109, #10, #116, .T.);
#116 = (
   BOUNDED_CURVE ()
   B_SPLINE_CURVE (2, (#117, #118, #119, #120, #121), .UNSPECIFIED., .F., .U.)
   B_SPLINE_CURVE_WITH_KNOTS ((3, 2, 3), (0., 31.4159265358979, 62.8318530717959), .UNSPECIFIED.)
   CURVE ()
   GEOMETRIC_REPRESENTATION_ITEM ()
   RATIONAL_B_SPLINE_CURVE ((1., 0.707106781186548, 1., 0.707106781186548, 1.))
   REPRESENTATION_ITEM ('')
);
#117 = CARTESIAN_POINT('', (20., 0., 0.));
#118 = CARTESIAN_POINT('', (20., 0., -20.));
#119 = CARTESIAN_POINT('', (4.77736047794785E-15, 0., -20.));
#120 = CARTESIAN_POINT('', (-20., 0., -20.));
#121 = CARTESIAN_POINT('', (-20., 0., -2.44929359829471E-15));
#122 = ORIENTED_EDGE('', *, *, #30, .T.);
#123 = ORIENTED_EDGE('', *, *, #84, .F.);
#124 = B_SPLINE_SURFACE_WITH_KNOTS('', 1, 1, ((#125, #126), (#127, #128)), .UNSPECIFIED., .F., .F., .U., (2, 2), (2, 2), (0., 1.), (0., 1.), .UNSPECIFIED.);
#125 = CARTESIAN_POINT('', (-44., 0., 44.));
#126 = CARTESIAN_POINT('', (44., 0., 44.));
#127 = CARTESIAN_POINT('', (-44., 0., -44.));
#128 = CARTESIAN_POINT('', (44., 0., -44.));
#129 = ADVANCED_FACE('', (#130), #140, .T.);
#130 = FACE_OUTER_BOUND('', #131, .T.);
#131 = EDGE_LOOP('', (#132, #137, #138, #139));
#132 = ORIENTED_EDGE('', *, *, #133, .F.);
#133 = EDGE_CURVE('', #46, #109, #134, .T.);
#134 = B_SPLINE_CURVE_WITH_KNOTS('', 1, (#135, #136), .UNSPECIFIED., .F., .U., (2, 2), (0., 1.), .UNSPECIFIED.);
#135 = CARTESIAN_POINT('', (20., 30., 0.));
#136 = CARTESIAN_POINT('', (20., 0., 0.));
#137 = ORIENTED_EDGE('', *, *, #61, .T.);
#138 = ORIENTED_EDGE('', *, *, #7, .T.);
#139 = ORIENTED_EDGE('', *, *, #115, .F.);
#140 = (
   BOUNDED_SURFACE ()
   B_SPLINE_SURFACE (2, 1, ((#141, #142), (#143, #144), (#145, #146), (#147, #148), (#149, #150)), .UNSPECIFIED., .F., .F., .U.)
   B_SPLINE_SURFACE_WITH_KNOTS ((3, 2, 3), (2, 2), (0., 31.4159265358979, 62.8318530717959), (0., 1.), .UNSPECIFIED.)
   GEOMETRIC_REPRESENTATION_ITEM ()
   RATIONAL_B_SPLINE_SURFACE (((1., 1.), (0.707106781186548, 0.707106781186548), (1., 1.), (0.707106781186548, 0.707106781186548), (1., 1.)))
   REPRESENTATION_ITEM ('')
   SURFACE ()
);
#141 = CARTESIAN_POINT('', (20., 30., 0.));
#142 = CARTESIAN_POINT('', (20., 0., 0.));
#143 = CARTESIAN_POINT('', (20., 30., -20.));
#144 = CARTESIAN_POINT('', (20., 0., -20.));
#145 = CARTESIAN_POINT('', (4.77736047794785E-15, 30., -20.));
#146 = CARTESIAN_POINT('', (4.77736047794785E-15, 0., -20.));
#147 = CARTESIAN_POINT('', (-20., 30., -20.));
#148 = CARTESIAN_POINT('', (-20., 0., -20.));
#149 = CARTESIAN_POINT('', (-20., 30., -2.44929359829471E-15));
#150 = CARTESIAN_POINT('', (-20., 0., -2.44929359829471E-15));
#151 = ADVANCED_FACE('', (#152), #158, .T.);
#152 = FACE_OUTER_BOUND('', #153, .T.);
#153 = EDGE_LOOP('', (#154, #155, #156, #157));
#154 = ORIENTED_EDGE('', *, *, #133, .T.);
#155 = ORIENTED_EDGE('', *, *, #108, .T.);
#156 = ORIENTED_EDGE('', *, *, #77, .T.);
#157 = ORIENTED_EDGE('', *, *, #43, .T.);
#158 = B_SPLINE_SURFACE_WITH_KNOTS('', 1, 1, ((#159, #160), (#161, #162)), .UNSPECIFIED., .F., .F., .U., (2, 2), (2, 2), (0., 1.), (0., 1.), .UNSPECIFIED.);
#159 = CARTESIAN_POINT('', (49.8305320150519, -4.83053201505194, 0.));
#160 = CARTESIAN_POINT('', (10.1694679849481, -4.83053201505194, 0.));
#161 = CARTESIAN_POINT('', (49.8305320150519, 34.8305320150519, 0.));
#162 = CARTESIAN_POINT('', (10.1694679849481, 34.8305320150519, 0.));
#163 = DRAUGHTING_MODEL('', (#171, #325), #328);
#164 = PRESENTATION_STYLE_ASSIGNMENT((#165));
#165 = SURFACE_STYLE_USAGE(.POSITIVE., #166);
#166 = SURFACE_SIDE_STYLE('', (#167));
#167 = SURFACE_STYLE_FILL_AREA(#168);
#168 = FILL_AREA_STYLE('', (#169));
#169 = FILL_AREA_STYLE_COLOUR('', #170);
#170 = COLOUR_RGB('', 0.50196078431373, 0.50196078431373, 0.50196078431373);
#171 = STYLED_ITEM('', (#164), #1);
#172 = MANIFOLD_SOLID_BREP('Rev2_0', #173);
#173 = CLOSED_SHELL('', (#174, #210, #240, #265, #288, #306));
#174 = ADVANCED_FACE('', (#175), #205, .T.);
#175 = FACE_OUTER_BOUND('', #176, .T.);
#176 = EDGE_LOOP('', (#177, #186, #193, #200));
#177 = ORIENTED_EDGE('', *, *, #178, .F.);
#178 = EDGE_CURVE('', #179, #181, #183, .T.);
#179 = VERTEX_POINT('', #180);
#180 = CARTESIAN_POINT('', (3.06161699786838E-15, 20., -50.));
#181 = VERTEX_POINT('', #182);
#182 = CARTESIAN_POINT('', (3.06161699786838E-15, 0., -50.));
#183 = B_SPLINE_CURVE_WITH_KNOTS('', 1, (#184, #185), .UNSPECIFIED., .F., .U., (2, 2), (0., 1.), .UNSPECIFIED.);
#184 = CARTESIAN_POINT('', (3.06161699786838E-15, 20., -50.));
#185 = CARTESIAN_POINT('', (3.06161699786838E-15, 0., -50.));
#186 = ORIENTED_EDGE('', *, *, #187, .F.);
#187 = EDGE_CURVE('', #188, #179, #190, .T.);
#188 = VERTEX_POINT('', #189);
#189 = CARTESIAN_POINT('', (4.28626379701574E-15, 20., -70.));
#190 = B_SPLINE_CURVE_WITH_KNOTS('', 1, (#191, #192), .UNSPECIFIED., .F., .U., (2, 2), (0., 1.), .UNSPECIFIED.);
#191 = CARTESIAN_POINT('', (4.28626379701574E-15, 20., -70.));
#192 = CARTESIAN_POINT('', (3.06161699786838E-15, 20., -50.));
#193 = ORIENTED_EDGE('', *, *, #194, .F.);
#194 = EDGE_CURVE('', #195, #188, #197, .T.);
#195 = VERTEX_POINT('', #196);
#196 = CARTESIAN_POINT('', (4.28626379701574E-15, 0., -70.));
#197 = B_SPLINE_CURVE_WITH_KNOTS('', 1, (#198, #199), .UNSPECIFIED., .F., .U., (2, 2), (0., 1.), .UNSPECIFIED.);
#198 = CARTESIAN_POINT('', (4.28626379701574E-15, 0., -70.));
#199 = CARTESIAN_POINT('', (4.28626379701574E-15, 20., -70.));
#200 = ORIENTED_EDGE('', *, *, #201, .F.);
#201 = EDGE_CURVE('', #181, #195, #202, .T.);
#202 = B_SPLINE_CURVE_WITH_KNOTS('', 1, (#203, #204), .UNSPECIFIED., .F., .U., (2, 2), (0., 1.), .UNSPECIFIED.);
#203 = CARTESIAN_POINT('', (3.06161699786838E-15, 0., -50.));
#204 = CARTESIAN_POINT('', (4.28626379701574E-15, 0., -70.));
#205 = B_SPLINE_SURFACE_WITH_KNOTS('', 1, 1, ((#206, #207), (#208, #209)), .UNSPECIFIED., .F., .F., .U., (2, 2), (2, 2), (0., 1.), (0., 1.), .UNSPECIFIED.);
#206 = CARTESIAN_POINT('', (4.6264920593011E-15, -5.55634918610405, -75.556349186104));
#207 = CARTESIAN_POINT('', (4.6264920593011E-15, 25.556349186104, -75.556349186104));
#208 = CARTESIAN_POINT('', (2.72138873558302E-15, -5.55634918610405, -44.443650813896));
#209 = CARTESIAN_POINT('', (2.72138873558302E-15, 25.556349186104, -44.443650813896));
#210 = ADVANCED_FACE('', (#211), #235, .T.);
#211 = FACE_OUTER_BOUND('', #212, .T.);
#212 = EDGE_LOOP('', (#213, #222, #228, #229));
#213 = ORIENTED_EDGE('', *, *, #214, .F.);
#214 = EDGE_CURVE('', #215, #217, #219, .T.);
#215 = VERTEX_POINT('', #216);
#216 = CARTESIAN_POINT('', (70., 20., 0.));
#217 = VERTEX_POINT('', #218);
#218 = CARTESIAN_POINT('', (50., 20., 0.));
#219 = B_SPLINE_CURVE_WITH_KNOTS('', 1, (#220, #221), .UNSPECIFIED., .F., .U., (2, 2), (0., 1.), .UNSPECIFIED.);
#220 = CARTESIAN_POINT('', (70., 20., 0.));
#221 = CARTESIAN_POINT('', (50., 20., 0.));
#222 = ORIENTED_EDGE('', *, *, #223, .T.);
#223 = EDGE_CURVE('', #215, #188, #224, .T.);
#224 = (
   BOUNDED_CURVE ()
   B_SPLINE_CURVE (2, (#225, #226, #227), .UNSPECIFIED., .F., .U.)
   B_SPLINE_CURVE_WITH_KNOTS ((3, 3), (0., 109.955742875643), .UNSPECIFIED.)
   CURVE ()
   GEOMETRIC_REPRESENTATION_ITEM ()
   RATIONAL_B_SPLINE_CURVE ((1., 0.707106781186548, 1.))
   REPRESENTATION_ITEM ('')
);
#225 = CARTESIAN_POINT('', (70., 20., -2.82581245691669E-30));
#226 = CARTESIAN_POINT('', (70., 20., -70.));
#227 = CARTESIAN_POINT('', (1.17763932806533E-15, 20., -70.));
#228 = ORIENTED_EDGE('', *, *, #187, .T.);
#229 = ORIENTED_EDGE('', *, *, #230, .F.);
#230 = EDGE_CURVE('', #217, #179, #231, .T.);
#231 = (
   BOUNDED_CURVE ()
   B_SPLINE_CURVE (2, (#232, #233, #234), .UNSPECIFIED., .F., .U.)
   B_SPLINE_CURVE_WITH_KNOTS ((3, 3), (0., 78.5398163397448), .UNSPECIFIED.)
   CURVE ()
   GEOMETRIC_REPRESENTATION_ITEM ()
   RATIONAL_B_SPLINE_CURVE ((1., 0.707106781186547, 1.))
   REPRESENTATION_ITEM ('')
);
#232 = CARTESIAN_POINT('', (50., 20., -4.12179822977979E-30));
#233 = CARTESIAN_POINT('', (50., 20., -50.));
#234 = CARTESIAN_POINT('', (5.72615225696876E-15, 20., -50.));
#235 = B_SPLINE_SURFACE_WITH_KNOTS('', 1, 1, ((#236, #237), (#238, #239)), .UNSPECIFIED., .F., .F., .U., (2, 2), (2, 2), (0., 1.), (0., 1.), .UNSPECIFIED.);
#236 = CARTESIAN_POINT('', (-77., 20., 77.));
#237 = CARTESIAN_POINT('', (-77., 20., -77.));
#238 = CARTESIAN_POINT('', (77., 20., 77.));
#239 = CARTESIAN_POINT('', (77., 20., -77.));
#240 = ADVANCED_FACE('', (#241), #258, .T.);
#241 = FACE_OUTER_BOUND('', #242, .T.);
#242 = EDGE_LOOP('', (#243, #250, #256, #257));
#243 = ORIENTED_EDGE('', *, *, #244, .F.);
#244 = EDGE_CURVE('', #245, #215, #247, .T.);
#245 = VERTEX_POINT('', #246);
#246 = CARTESIAN_POINT('', (70., 0., 0.));
#247 = B_SPLINE_CURVE_WITH_KNOTS('', 1, (#248, #249), .UNSPECIFIED., .F., .U., (2, 2), (0., 1.), .UNSPECIFIED.);
#248 = CARTESIAN_POINT('', (70., 0., 0.));
#249 = CARTESIAN_POINT('', (70., 20., 0.));
#250 = ORIENTED_EDGE('', *, *, #251, .T.);
#251 = EDGE_CURVE('', #245, #195, #252, .T.);
#252 = (
   BOUNDED_CURVE ()
   B_SPLINE_CURVE (2, (#253, #254, #255), .UNSPECIFIED., .F., .U.)
   B_SPLINE_CURVE_WITH_KNOTS ((3, 3), (0., 1.), .UNSPECIFIED.)
   CURVE ()
   GEOMETRIC_REPRESENTATION_ITEM ()
   RATIONAL_B_SPLINE_CURVE ((1., 0.707106781186548, 1.))
   REPRESENTATION_ITEM ('')
);
#253 = CARTESIAN_POINT('', (70., 0., 0.));
#254 = CARTESIAN_POINT('', (70., 0., -70.));
#255 = CARTESIAN_POINT('', (4.28626379701574E-15, 0., -70.));
#256 = ORIENTED_EDGE('', *, *, #194, .T.);
#257 = ORIENTED_EDGE('', *, *, #223, .F.);
#258 = (
   BOUNDED_SURFACE ()
   B_SPLINE_SURFACE (2, 1, ((#259, #260), (#261, #262), (#263, #264)), .UNSPECIFIED., .F., .F., .U.)
   B_SPLINE_SURFACE_WITH_KNOTS ((3, 3), (2, 2), (0., 109.955742875643), (0., 1.), .UNSPECIFIED.)
   GEOMETRIC_REPRESENTATION_ITEM ()
   RATIONAL_B_SPLINE_SURFACE (((1., 1.), (0.707106781186548, 0.707106781186548), (1., 1.)))
   REPRESENTATION_ITEM ('')
   SURFACE ()
);
#259 = CARTESIAN_POINT('', (70., 0., -2.82581245691669E-30));
#260 = CARTESIAN_POINT('', (70., 20., -2.82581245691669E-30));
#261 = CARTESIAN_POINT('', (70., 0., -70.));
#262 = CARTESIAN_POINT('', (70., 20., -70.));
#263 = CARTESIAN_POINT('', (1.17763932806533E-15, 0., -70.));
#264 = CARTESIAN_POINT('', (1.17763932806533E-15, 20., -70.));
#265 = ADVANCED_FACE('', (#266), #283, .T.);
#266 = FACE_OUTER_BOUND('', #267, .T.);
#267 = EDGE_LOOP('', (#268, #275, #281, #282));
#268 = ORIENTED_EDGE('', *, *, #269, .F.);
#269 = EDGE_CURVE('', #270, #245, #272, .T.);
#270 = VERTEX_POINT('', #271);
#271 = CARTESIAN_POINT('', (50., 0., 0.));
#272 = B_SPLINE_CURVE_WITH_KNOTS('', 1, (#273, #274), .UNSPECIFIED., .F., .U., (2, 2), (0., 1.), .UNSPECIFIED.);
#273 = CARTESIAN_POINT('', (50., 0., 0.));
#274 = CARTESIAN_POINT('', (70., 0., 0.));
#275 = ORIENTED_EDGE('', *, *, #276, .T.);
#276 = EDGE_CURVE('', #270, #181, #277, .T.);
#277 = (
   BOUNDED_CURVE ()
   B_SPLINE_CURVE (2, (#278, #279, #280), .UNSPECIFIED., .F., .U.)
   B_SPLINE_CURVE_WITH_KNOTS ((3, 3), (0., 78.5398163397448), .UNSPECIFIED.)
   CURVE ()
   GEOMETRIC_REPRESENTATION_ITEM ()
   RATIONAL_B_SPLINE_CURVE ((1., 0.707106781186547, 1.))
   REPRESENTATION_ITEM ('')
);
#278 = CARTESIAN_POINT('', (50., 0., -4.12179822977979E-30));
#279 = CARTESIAN_POINT('', (50., 0., -50.));
#280 = CARTESIAN_POINT('', (5.72615225696876E-15, 0., -50.));
#281 = ORIENTED_EDGE('', *, *, #201, .T.);
#282 = ORIENTED_EDGE('', *, *, #251, .F.);
#283 = B_SPLINE_SURFACE_WITH_KNOTS('', 1, 1, ((#284, #285), (#286, #287)), .UNSPECIFIED., .F., .F., .U., (2, 2), (2, 2), (0., 1.), (0., 1.), .UNSPECIFIED.);
#284 = CARTESIAN_POINT('', (-77., 0., 77.));
#285 = CARTESIAN_POINT('', (77., 0., 77.));
#286 = CARTESIAN_POINT('', (-77., 0., -77.));
#287 = CARTESIAN_POINT('', (77., 0., -77.));
#288 = ADVANCED_FACE('', (#289), #299, .T.);
#289 = FACE_OUTER_BOUND('', #290, .T.);
#290 = EDGE_LOOP('', (#291, #296, #297, #298));
#291 = ORIENTED_EDGE('', *, *, #292, .F.);
#292 = EDGE_CURVE('', #217, #270, #293, .T.);
#293 = B_SPLINE_CURVE_WITH_KNOTS('', 1, (#294, #295), .UNSPECIFIED., .F., .U., (2, 2), (0., 1.), .UNSPECIFIED.);
#294 = CARTESIAN_POINT('', (50., 20., 0.));
#295 = CARTESIAN_POINT('', (50., 0., 0.));
#296 = ORIENTED_EDGE('', *, *, #230, .T.);
#297 = ORIENTED_EDGE('', *, *, #178, .T.);
#298 = ORIENTED_EDGE('', *, *, #276, .F.);
#299 = (
   BOUNDED_SURFACE ()
   B_SPLINE_SURFACE (2, 1, ((#300, #301), (#302, #303), (#304, #305)), .UNSPECIFIED., .F., .F., .U.)
   B_SPLINE_SURFACE_WITH_KNOTS ((3, 3), (2, 2), (0., 78.5398163397448), (0., 1.), .UNSPECIFIED.)
   GEOMETRIC_REPRESENTATION_ITEM ()
   RATIONAL_B_SPLINE_SURFACE (((1., 1.), (0.707106781186547, 0.707106781186547), (1., 1.)))
   REPRESENTATION_ITEM ('')
   SURFACE ()
);
#300 = CARTESIAN_POINT('', (50., 20., -4.12179822977979E-30));
#301 = CARTESIAN_POINT('', (50., 0., -4.12179822977979E-30));
#302 = CARTESIAN_POINT('', (50., 20., -50.));
#303 = CARTESIAN_POINT('', (50., 0., -50.));
#304 = CARTESIAN_POINT('', (5.72615225696876E-15, 20., -50.));
#305 = CARTESIAN_POINT('', (5.72615225696876E-15, 0., -50.));
#306 = ADVANCED_FACE('', (#307), #313, .T.);
#307 = FACE_OUTER_BOUND('', #308, .T.);
#308 = EDGE_LOOP('', (#309, #310, #311, #312));
#309 = ORIENTED_EDGE('', *, *, #292, .T.);
#310 = ORIENTED_EDGE('', *, *, #269, .T.);
#311 = ORIENTED_EDGE('', *, *, #244, .T.);
#312 = ORIENTED_EDGE('', *, *, #214, .T.);
#313 = B_SPLINE_SURFACE_WITH_KNOTS('', 1, 1, ((#314, #315), (#316, #317)), .UNSPECIFIED., .F., .F., .U., (2, 2), (2, 2), (0., 1.), (0., 1.), .UNSPECIFIED.);
#314 = CARTESIAN_POINT('', (75.556349186104, -5.55634918610405, 0.));
#315 = CARTESIAN_POINT('', (44.443650813896, -5.55634918610405, 0.));
#316 = CARTESIAN_POINT('', (75.556349186104, 25.556349186104, 0.));
#317 = CARTESIAN_POINT('', (44.443650813896, 25.556349186104, 0.));
#318 = PRESENTATION_STYLE_ASSIGNMENT((#319));
#319 = SURFACE_STYLE_USAGE(.POSITIVE., #320);
#320 = SURFACE_SIDE_STYLE('', (#321));
#321 = SURFACE_STYLE_FILL_AREA(#322);
#322 = FILL_AREA_STYLE('', (#323));
#323 = FILL_AREA_STYLE_COLOUR('', #324);
#324 = COLOUR_RGB('', 0.50196078431373, 0.50196078431373, 0.50196078431373);
#325 = STYLED_ITEM('', (#318), #172);
#326 = CARTESIAN_POINT('Origin', (0., 0., 0.));
#327 = GEOMETRIC_SET('', (#326));
#328 = (
   GEOMETRIC_REPRESENTATION_CONTEXT (3)
   GLOBAL_UNCERTAINTY_ASSIGNED_CONTEXT ((#330))
   GLOBAL_UNIT_ASSIGNED_CONTEXT ((#329, #331, #332))
   REPRESENTATION_CONTEXT ('', '3D')
);
#329 = (
   LENGTH_UNIT ()
   NAMED_UNIT (*)
   SI_UNIT (.MILLI., .METRE.)
);
#330 = UNCERTAINTY_MEASURE_WITH_UNIT(LENGTH_MEASURE(1.E-6), #329, 'DISTANCE_ACCURACY_VALUE', '');
#331 = (
   NAMED_UNIT (*)
   SI_UNIT ($, .STERADIAN.)
   SOLID_ANGLE_UNIT ()
);
#332 = (
   NAMED_UNIT (*)
   PLANE_ANGLE_UNIT ()
   SI_UNIT ($, .RADIAN.)
);
#333 = SHAPE_REPRESENTATION('', (#348), #328);
#334 = PRODUCT_DEFINITION_SHAPE('', '', #335);
#335 = PRODUCT_DEFINITION('', '', #338, #342);
#336 = APPLICATION_CONTEXT('configuration controlled 3D designs of mechanical parts and assemblies');
#337 = APPLICATION_PROTOCOL_DEFINITION('International Standard', 'automotive_design', 2002, #336);
#338 = PRODUCT_DEFINITION_FORMATION_WITH_SPECIFIED_SOURCE('', '', #339, .NOT_KNOWN.);
#339 = PRODUCT('TwoRev', 'TwoRev', '', (#340));
#340 = PRODUCT_CONTEXT('', #336, 'mechanical');
#341 = PRODUCT_RELATED_PRODUCT_CATEGORY('detail', '', (#339));
#342 = PRODUCT_DEFINITION_CONTEXT('part definition', #336, 'design');
#343 = SHAPE_DEFINITION_REPRESENTATION(#334, #333);
#344 = SHAPE_REPRESENTATION_RELATIONSHIP('', '', #333, #345);
#345 = SHAPE_REPRESENTATION('', (#327), #328);
#346 = SHAPE_REPRESENTATION_RELATIONSHIP('', '', #333, #347);
#347 = ADVANCED_BREP_SHAPE_REPRESENTATION('', (#1, #172), #328);
#348 = AXIS2_PLACEMENT_3D('', #349, #350, #351);
#349 = CARTESIAN_POINT('', (0., 0., 0.));
#350 = DIRECTION('', (0., 0., 1.));
#351 = DIRECTION('', (1., 0., 0.));
ENDSEC;
END-ISO-10303-21;
