ISO-10303-21;
HEADER;
FILE_DESCRIPTION(('STEP'), '1');
FILE_NAME('ScaleTypesTest', '2026-04-15T10:17:23', (''), (''), 'Express 3.1.2.0', 'Express Tool', 'Unknown');
FILE_SCHEMA(('AUTOMOTIVE_DESIGN'));
ENDSEC;

DATA;
#1 = MANIFOLD_SOLID_BREP('Solid', #2);
#2 = CLOSED_SHELL('', (#3));
#3 = ADVANCED_FACE('', (#4), #19, .T.);
#4 = FACE_OUTER_BOUND('', #5, .T.);
#5 = EDGE_LOOP('', (#6, #18));
#6 = ORIENTED_EDGE('', *, *, #7, .F.);
#7 = EDGE_CURVE('', #8, #10, #12, .T.);
#8 = VERTEX_POINT('', #9);
#9 = CARTESIAN_POINT('', (-3.67394039744206E-15, 0., -20.));
#10 = VERTEX_POINT('', #11);
#11 = CARTESIAN_POINT('', (6.12323399573677E-15, 0., 20.));
#12 = (
   BOUNDED_CURVE ()
   B_SPLINE_CURVE (2, (#13, #14, #15, #16, #17), .UNSPECIFIED., .F., .U.)
   B_SPLINE_CURVE_WITH_KNOTS ((3, 2, 3), (0., 0.5, 1.), .UNSPECIFIED.)
   CURVE ()
   GEOMETRIC_REPRESENTATION_ITEM ()
   RATIONAL_B_SPLINE_CURVE ((1., 0.707106781186548, 1., 0.707106781186548, 1.))
   REPRESENTATION_ITEM ('')
);
#13 = CARTESIAN_POINT('', (-3.67394039744206E-15, 0., -20.));
#14 = CARTESIAN_POINT('', (20., 0., -20.));
#15 = CARTESIAN_POINT('', (20., 0., -4.89858719658941E-15));
#16 = CARTESIAN_POINT('', (20., 0., 20.));
#17 = CARTESIAN_POINT('', (6.12323399573677E-15, 0., 20.));
#18 = ORIENTED_EDGE('', *, *, #7, .T.);
#19 = (
   BOUNDED_SURFACE ()
   B_SPLINE_SURFACE (2, 2, ((#20, #21, #22, #23, #24), (#25, #26, #27, #28, #29), (#30, #31, #32, #33, #34), (#35, #36, #37, #38, #39), (#40, #41, #42, #43, #44), (#45, #46, #47, #48, #49), (#50, #51, #52, #53, #54), (#55, #56, #57, #58, #59), (#60, #61, #62, #63, #64)), .UNSPECIFIED., .T., .F., .U.)
   B_SPLINE_SURFACE_WITH_KNOTS ((3, 2, 2, 2, 3), (3, 2, 3), (0., 0.25, 0.5, 0.75, 1.), (0., 0.5, 1.), .UNSPECIFIED.)
   GEOMETRIC_REPRESENTATION_ITEM ()
   RATIONAL_B_SPLINE_SURFACE (((1., 0.707106781186548, 1., 0.707106781186548, 1.), (0.707106781186548, 0.5, 0.707106781186548, 0.5, 0.707106781186548), (1., 0.707106781186548, 1., 0.707106781186548, 1.), (0.707106781186548, 0.5, 0.707106781186548, 0.5, 0.707106781186548), (1., 0.707106781186548, 1., 0.707106781186548, 1.), (0.707106781186548, 0.5, 0.707106781186548, 0.5, 0.707106781186548), (1., 0.707106781186548, 1., 0.707106781186548, 1.), (0.707106781186548, 0.5, 0.707106781186548, 0.5, 0.707106781186548), (1., 0.707106781186548, 1., 0.707106781186548, 1.)))
   REPRESENTATION_ITEM ('')
   SURFACE ()
);
#20 = CARTESIAN_POINT('', (-3.67394039744206E-15, 0., -20.));
#21 = CARTESIAN_POINT('', (20., 0., -20.));
#22 = CARTESIAN_POINT('', (20., 0., -4.89858719658941E-15));
#23 = CARTESIAN_POINT('', (20., 0., 20.));
#24 = CARTESIAN_POINT('', (6.12323399573677E-15, 0., 20.));
#25 = CARTESIAN_POINT('', (-3.67394039744206E-15, 0., -20.));
#26 = CARTESIAN_POINT('', (20., 20., -20.));
#27 = CARTESIAN_POINT('', (20., 20., -4.89858719658941E-15));
#28 = CARTESIAN_POINT('', (20., 20., 20.));
#29 = CARTESIAN_POINT('', (6.12323399573677E-15, 0., 20.));
#30 = CARTESIAN_POINT('', (-3.67394039744206E-15, 0., -20.));
#31 = CARTESIAN_POINT('', (1.22464679914735E-15, 20., -20.));
#32 = CARTESIAN_POINT('', (1.22464679914735E-15, 20., -4.89858719658941E-15));
#33 = CARTESIAN_POINT('', (1.22464679914735E-15, 20., 20.));
#34 = CARTESIAN_POINT('', (6.12323399573677E-15, 0., 20.));
#35 = CARTESIAN_POINT('', (-3.67394039744206E-15, 0., -20.));
#36 = CARTESIAN_POINT('', (-20., 20., -20.));
#37 = CARTESIAN_POINT('', (-20., 20., -4.89858719658941E-15));
#38 = CARTESIAN_POINT('', (-20., 20., 20.));
#39 = CARTESIAN_POINT('', (6.12323399573677E-15, 0., 20.));
#40 = CARTESIAN_POINT('', (-3.67394039744206E-15, 0., -20.));
#41 = CARTESIAN_POINT('', (-20., 2.44929359829471E-15, -20.));
#42 = CARTESIAN_POINT('', (-20., 2.44929359829471E-15, -4.89858719658941E-15));
#43 = CARTESIAN_POINT('', (-20., 2.44929359829471E-15, 20.));
#44 = CARTESIAN_POINT('', (6.12323399573677E-15, 0., 20.));
#45 = CARTESIAN_POINT('', (-3.67394039744206E-15, 0., -20.));
#46 = CARTESIAN_POINT('', (-20., -20., -20.));
#47 = CARTESIAN_POINT('', (-20., -20., -4.89858719658941E-15));
#48 = CARTESIAN_POINT('', (-20., -20., 20.));
#49 = CARTESIAN_POINT('', (6.12323399573677E-15, 0., 20.));
#50 = CARTESIAN_POINT('', (-3.67394039744206E-15, 0., -20.));
#51 = CARTESIAN_POINT('', (-3.67394039744206E-15, -20., -20.));
#52 = CARTESIAN_POINT('', (-3.67394039744206E-15, -20., -4.89858719658941E-15));
#53 = CARTESIAN_POINT('', (-3.67394039744206E-15, -20., 20.));
#54 = CARTESIAN_POINT('', (6.12323399573677E-15, 0., 20.));
#55 = CARTESIAN_POINT('', (-3.67394039744206E-15, 0., -20.));
#56 = CARTESIAN_POINT('', (20., -20., -20.));
#57 = CARTESIAN_POINT('', (20., -20., -4.89858719658941E-15));
#58 = CARTESIAN_POINT('', (20., -20., 20.));
#59 = CARTESIAN_POINT('', (6.12323399573677E-15, 0., 20.));
#60 = CARTESIAN_POINT('', (-3.67394039744206E-15, 0., -20.));
#61 = CARTESIAN_POINT('', (20., 0., -20.));
#62 = CARTESIAN_POINT('', (20., 0., -4.89858719658941E-15));
#63 = CARTESIAN_POINT('', (20., 0., 20.));
#64 = CARTESIAN_POINT('', (6.12323399573677E-15, 0., 20.));
#65 = DRAUGHTING_MODEL('', (#73, #157, #241, #387), #390);
#66 = PRESENTATION_STYLE_ASSIGNMENT((#67));
#67 = SURFACE_STYLE_USAGE(.POSITIVE., #68);
#68 = SURFACE_SIDE_STYLE('', (#69));
#69 = SURFACE_STYLE_FILL_AREA(#70);
#70 = FILL_AREA_STYLE('', (#71));
#71 = FILL_AREA_STYLE_COLOUR('', #72);
#72 = COLOUR_RGB('', 0.50196078431373, 0.50196078431373, 0.50196078431373);
#73 = STYLED_ITEM('', (#66), #1);
#74 = MANIFOLD_SOLID_BREP('Solid0', #75);
#75 = CLOSED_SHELL('', (#76, #132, #141));
#76 = ADVANCED_FACE('', (#77), #113, .T.);
#77 = FACE_OUTER_BOUND('', #78, .T.);
#78 = EDGE_LOOP('', (#79, #88, #100, #101));
#79 = ORIENTED_EDGE('', *, *, #80, .F.);
#80 = EDGE_CURVE('', #81, #83, #85, .T.);
#81 = VERTEX_POINT('', #82);
#82 = CARTESIAN_POINT('', (70., 0., -20.));
#83 = VERTEX_POINT('', #84);
#84 = CARTESIAN_POINT('', (70., 0., 20.));
#85 = B_SPLINE_CURVE_WITH_KNOTS('', 1, (#86, #87), .UNSPECIFIED., .F., .U., (2, 2), (0., 40.), .UNSPECIFIED.);
#86 = CARTESIAN_POINT('', (70., 0., -20.));
#87 = CARTESIAN_POINT('', (70., 0., 20.));
#88 = ORIENTED_EDGE('', *, *, #89, .T.);
#89 = EDGE_CURVE('', #81, #81, #90, .T.);
#90 = (
   BOUNDED_CURVE ()
   B_SPLINE_CURVE (2, (#91, #92, #93, #94, #95, #96, #97, #98, #99), .UNSPECIFIED., .T., .U.)
   B_SPLINE_CURVE_WITH_KNOTS ((3, 2, 2, 2, 3), (0., 15.707963267949, 31.4159265358979, 47.1238898038469, 62.8318530717959), .UNSPECIFIED.)
   CURVE ()
   GEOMETRIC_REPRESENTATION_ITEM ()
   RATIONAL_B_SPLINE_CURVE ((1., 0.707106781186548, 1., 0.707106781186548, 1., 0.707106781186548, 1., 0.707106781186548, 1.))
   REPRESENTATION_ITEM ('')
);
#91 = CARTESIAN_POINT('', (70., 0., -20.));
#92 = CARTESIAN_POINT('', (70., 10., -20.));
#93 = CARTESIAN_POINT('', (60., 10., -20.));
#94 = CARTESIAN_POINT('', (50., 10., -20.));
#95 = CARTESIAN_POINT('', (50., 1.22464679914735E-15, -20.));
#96 = CARTESIAN_POINT('', (50., -10., -20.));
#97 = CARTESIAN_POINT('', (60., -10., -20.));
#98 = CARTESIAN_POINT('', (70., -10., -20.));
#99 = CARTESIAN_POINT('', (70., 0., -20.));
#100 = ORIENTED_EDGE('', *, *, #80, .T.);
#101 = ORIENTED_EDGE('', *, *, #102, .F.);
#102 = EDGE_CURVE('', #83, #83, #103, .T.);
#103 = (
   BOUNDED_CURVE ()
   B_SPLINE_CURVE (2, (#104, #105, #106, #107, #108, #109, #110, #111, #112), .UNSPECIFIED., .T., .U.)
   B_SPLINE_CURVE_WITH_KNOTS ((3, 2, 2, 2, 3), (0., 15.707963267949, 31.4159265358979, 47.1238898038469, 62.8318530717959), .UNSPECIFIED.)
   CURVE ()
   GEOMETRIC_REPRESENTATION_ITEM ()
   RATIONAL_B_SPLINE_CURVE ((1., 0.707106781186548, 1., 0.707106781186548, 1., 0.707106781186548, 1., 0.707106781186548, 1.))
   REPRESENTATION_ITEM ('')
);
#104 = CARTESIAN_POINT('', (70., 0., 20.));
#105 = CARTESIAN_POINT('', (70., 10., 20.));
#106 = CARTESIAN_POINT('', (60., 10., 20.));
#107 = CARTESIAN_POINT('', (50., 10., 20.));
#108 = CARTESIAN_POINT('', (50., 1.22464679914735E-15, 20.));
#109 = CARTESIAN_POINT('', (50., -10., 20.));
#110 = CARTESIAN_POINT('', (60., -10., 20.));
#111 = CARTESIAN_POINT('', (70., -10., 20.));
#112 = CARTESIAN_POINT('', (70., 0., 20.));
#113 = (
   BOUNDED_SURFACE ()
   B_SPLINE_SURFACE (2, 1, ((#114, #115), (#116, #117), (#118, #119), (#120, #121), (#122, #123), (#124, #125), (#126, #127), (#128, #129), (#130, #131)), .UNSPECIFIED., .T., .F., .U.)
   B_SPLINE_SURFACE_WITH_KNOTS ((3, 2, 2, 2, 3), (2, 2), (0., 15.707963267949, 31.4159265358979, 47.1238898038469, 62.8318530717959), (0., 40.), .UNSPECIFIED.)
   GEOMETRIC_REPRESENTATION_ITEM ()
   RATIONAL_B_SPLINE_SURFACE (((1., 1.), (0.707106781186548, 0.707106781186548), (1., 1.), (0.707106781186548, 0.707106781186548), (1., 1.), (0.707106781186548, 0.707106781186548), (1., 1.), (0.707106781186548, 0.707106781186548), (1., 1.)))
   REPRESENTATION_ITEM ('')
   SURFACE ()
);
#114 = CARTESIAN_POINT('', (70., 0., -20.));
#115 = CARTESIAN_POINT('', (70., 0., 20.));
#116 = CARTESIAN_POINT('', (70., 10., -20.));
#117 = CARTESIAN_POINT('', (70., 10., 20.));
#118 = CARTESIAN_POINT('', (60., 10., -20.));
#119 = CARTESIAN_POINT('', (60., 10., 20.));
#120 = CARTESIAN_POINT('', (50., 10., -20.));
#121 = CARTESIAN_POINT('', (50., 10., 20.));
#122 = CARTESIAN_POINT('', (50., 1.22464679914735E-15, -20.));
#123 = CARTESIAN_POINT('', (50., 1.22464679914735E-15, 20.));
#124 = CARTESIAN_POINT('', (50., -10., -20.));
#125 = CARTESIAN_POINT('', (50., -10., 20.));
#126 = CARTESIAN_POINT('', (60., -10., -20.));
#127 = CARTESIAN_POINT('', (60., -10., 20.));
#128 = CARTESIAN_POINT('', (70., -10., -20.));
#129 = CARTESIAN_POINT('', (70., -10., 20.));
#130 = CARTESIAN_POINT('', (70., 0., -20.));
#131 = CARTESIAN_POINT('', (70., 0., 20.));
#132 = ADVANCED_FACE('', (#133), #136, .T.);
#133 = FACE_OUTER_BOUND('', #134, .T.);
#134 = EDGE_LOOP('', (#135));
#135 = ORIENTED_EDGE('', *, *, #89, .F.);
#136 = B_SPLINE_SURFACE_WITH_KNOTS('', 1, 1, ((#137, #138), (#139, #140)), .UNSPECIFIED., .F., .F., .U., (2, 2), (2, 2), (0., 1.), (0., 1.), .UNSPECIFIED.);
#137 = CARTESIAN_POINT('', (75.556349186104, -15.5563491861041, -20.));
#138 = CARTESIAN_POINT('', (75.556349186104, 15.556349186104, -20.));
#139 = CARTESIAN_POINT('', (44.4436508138959, -15.5563491861041, -20.));
#140 = CARTESIAN_POINT('', (44.4436508138959, 15.556349186104, -20.));
#141 = ADVANCED_FACE('', (#142), #145, .T.);
#142 = FACE_OUTER_BOUND('', #143, .T.);
#143 = EDGE_LOOP('', (#144));
#144 = ORIENTED_EDGE('', *, *, #102, .T.);
#145 = B_SPLINE_SURFACE_WITH_KNOTS('', 1, 1, ((#146, #147), (#148, #149)), .UNSPECIFIED., .F., .F., .U., (2, 2), (2, 2), (0., 1.), (0., 1.), .UNSPECIFIED.);
#146 = CARTESIAN_POINT('', (75.556349186104, -15.5563491861041, 20.));
#147 = CARTESIAN_POINT('', (44.4436508138959, -15.5563491861041, 20.));
#148 = CARTESIAN_POINT('', (75.556349186104, 15.556349186104, 20.));
#149 = CARTESIAN_POINT('', (44.4436508138959, 15.556349186104, 20.));
#150 = PRESENTATION_STYLE_ASSIGNMENT((#151));
#151 = SURFACE_STYLE_USAGE(.POSITIVE., #152);
#152 = SURFACE_SIDE_STYLE('', (#153));
#153 = SURFACE_STYLE_FILL_AREA(#154);
#154 = FILL_AREA_STYLE('', (#155));
#155 = FILL_AREA_STYLE_COLOUR('', #156);
#156 = COLOUR_RGB('', 0.50196078431373, 0.50196078431373, 0.50196078431373);
#157 = STYLED_ITEM('', (#150), #74);
#158 = MANIFOLD_SOLID_BREP('Solid1', #159);
#159 = CLOSED_SHELL('', (#160, #216, #225));
#160 = ADVANCED_FACE('', (#161), #197, .T.);
#161 = FACE_OUTER_BOUND('', #162, .T.);
#162 = EDGE_LOOP('', (#163, #172, #184, #185));
#163 = ORIENTED_EDGE('', *, *, #164, .F.);
#164 = EDGE_CURVE('', #165, #167, #169, .T.);
#165 = VERTEX_POINT('', #166);
#166 = CARTESIAN_POINT('', (132.5, 0., -15.));
#167 = VERTEX_POINT('', #168);
#168 = CARTESIAN_POINT('', (122.5, 0., 15.));
#169 = B_SPLINE_CURVE_WITH_KNOTS('', 1, (#170, #171), .UNSPECIFIED., .F., .U., (2, 2), (0., 30.), .UNSPECIFIED.);
#170 = CARTESIAN_POINT('', (132.5, 0., -15.));
#171 = CARTESIAN_POINT('', (122.5, 0., 15.));
#172 = ORIENTED_EDGE('', *, *, #173, .T.);
#173 = EDGE_CURVE('', #165, #165, #174, .T.);
#174 = (
   BOUNDED_CURVE ()
   B_SPLINE_CURVE (2, (#175, #176, #177, #178, #179, #180, #181, #182, #183), .UNSPECIFIED., .T., .U.)
   B_SPLINE_CURVE_WITH_KNOTS ((3, 2, 2, 2, 3), (0., 0.25, 0.5, 0.75, 1.), .UNSPECIFIED.)
   CURVE ()
   GEOMETRIC_REPRESENTATION_ITEM ()
   RATIONAL_B_SPLINE_CURVE ((1., 0.707106781186548, 1., 0.707106781186548, 1., 0.707106781186548, 1., 0.707106781186548, 1.))
   REPRESENTATION_ITEM ('')
);
#175 = CARTESIAN_POINT('', (132.5, 0., -15.));
#176 = CARTESIAN_POINT('', (132.5, 12.5, -15.));
#177 = CARTESIAN_POINT('', (120., 12.5, -15.));
#178 = CARTESIAN_POINT('', (107.5, 12.5, -15.));
#179 = CARTESIAN_POINT('', (107.5, 1.53080849893419E-15, -15.));
#180 = CARTESIAN_POINT('', (107.5, -12.5, -15.));
#181 = CARTESIAN_POINT('', (120., -12.5, -15.));
#182 = CARTESIAN_POINT('', (132.5, -12.5, -15.));
#183 = CARTESIAN_POINT('', (132.5, 0., -15.));
#184 = ORIENTED_EDGE('', *, *, #164, .T.);
#185 = ORIENTED_EDGE('', *, *, #186, .F.);
#186 = EDGE_CURVE('', #167, #167, #187, .T.);
#187 = (
   BOUNDED_CURVE ()
   B_SPLINE_CURVE (2, (#188, #189, #190, #191, #192, #193, #194, #195, #196), .UNSPECIFIED., .T., .U.)
   B_SPLINE_CURVE_WITH_KNOTS ((3, 2, 2, 2, 3), (0., 0.25, 0.5, 0.75, 1.), .UNSPECIFIED.)
   CURVE ()
   GEOMETRIC_REPRESENTATION_ITEM ()
   RATIONAL_B_SPLINE_CURVE ((1., 0.707106781186548, 1., 0.707106781186548, 1., 0.707106781186548, 1., 0.707106781186548, 1.))
   REPRESENTATION_ITEM ('')
);
#188 = CARTESIAN_POINT('', (122.5, 0., 15.));
#189 = CARTESIAN_POINT('', (122.5, 2.5, 15.));
#190 = CARTESIAN_POINT('', (120., 2.5, 15.));
#191 = CARTESIAN_POINT('', (117.5, 2.5, 15.));
#192 = CARTESIAN_POINT('', (117.5, 3.06161699786838E-16, 15.));
#193 = CARTESIAN_POINT('', (117.5, -2.5, 15.));
#194 = CARTESIAN_POINT('', (120., -2.5, 15.));
#195 = CARTESIAN_POINT('', (122.5, -2.5, 15.));
#196 = CARTESIAN_POINT('', (122.5, 0., 15.));
#197 = (
   BOUNDED_SURFACE ()
   B_SPLINE_SURFACE (2, 1, ((#198, #199), (#200, #201), (#202, #203), (#204, #205), (#206, #207), (#208, #209), (#210, #211), (#212, #213), (#214, #215)), .UNSPECIFIED., .T., .F., .U.)
   B_SPLINE_SURFACE_WITH_KNOTS ((3, 2, 2, 2, 3), (2, 2), (0., 0.25, 0.5, 0.75, 1.), (0., 30.), .UNSPECIFIED.)
   GEOMETRIC_REPRESENTATION_ITEM ()
   RATIONAL_B_SPLINE_SURFACE (((1., 1.), (0.707106781186548, 0.707106781186548), (1., 1.), (0.707106781186548, 0.707106781186548), (1., 1.), (0.707106781186548, 0.707106781186548), (1., 1.), (0.707106781186548, 0.707106781186548), (1., 1.)))
   REPRESENTATION_ITEM ('')
   SURFACE ()
);
#198 = CARTESIAN_POINT('', (132.5, 0., -15.));
#199 = CARTESIAN_POINT('', (122.5, 0., 15.));
#200 = CARTESIAN_POINT('', (132.5, 12.5, -15.));
#201 = CARTESIAN_POINT('', (122.5, 2.5, 15.));
#202 = CARTESIAN_POINT('', (120., 12.5, -15.));
#203 = CARTESIAN_POINT('', (120., 2.5, 15.));
#204 = CARTESIAN_POINT('', (107.5, 12.5, -15.));
#205 = CARTESIAN_POINT('', (117.5, 2.5, 15.));
#206 = CARTESIAN_POINT('', (107.5, 1.53080849893419E-15, -15.));
#207 = CARTESIAN_POINT('', (117.5, 3.06161699786838E-16, 15.));
#208 = CARTESIAN_POINT('', (107.5, -12.5, -15.));
#209 = CARTESIAN_POINT('', (117.5, -2.5, 15.));
#210 = CARTESIAN_POINT('', (120., -12.5, -15.));
#211 = CARTESIAN_POINT('', (120., -2.5, 15.));
#212 = CARTESIAN_POINT('', (132.5, -12.5, -15.));
#213 = CARTESIAN_POINT('', (122.5, -2.5, 15.));
#214 = CARTESIAN_POINT('', (132.5, 0., -15.));
#215 = CARTESIAN_POINT('', (122.5, 0., 15.));
#216 = ADVANCED_FACE('', (#217), #220, .T.);
#217 = FACE_OUTER_BOUND('', #218, .T.);
#218 = EDGE_LOOP('', (#219));
#219 = ORIENTED_EDGE('', *, *, #173, .F.);
#220 = B_SPLINE_SURFACE_WITH_KNOTS('', 1, 1, ((#221, #222), (#223, #224)), .UNSPECIFIED., .F., .F., .U., (2, 2), (2, 2), (0., 1.), (0., 1.), .UNSPECIFIED.);
#221 = CARTESIAN_POINT('', (139.44543648263, -19.4454364826301, -15.));
#222 = CARTESIAN_POINT('', (139.44543648263, 19.4454364826301, -15.));
#223 = CARTESIAN_POINT('', (100.55456351737, -19.4454364826301, -15.));
#224 = CARTESIAN_POINT('', (100.55456351737, 19.4454364826301, -15.));
#225 = ADVANCED_FACE('', (#226), #229, .T.);
#226 = FACE_OUTER_BOUND('', #227, .T.);
#227 = EDGE_LOOP('', (#228));
#228 = ORIENTED_EDGE('', *, *, #186, .T.);
#229 = B_SPLINE_SURFACE_WITH_KNOTS('', 1, 1, ((#230, #231), (#232, #233)), .UNSPECIFIED., .F., .F., .U., (2, 2), (2, 2), (0., 1.), (0., 1.), .UNSPECIFIED.);
#230 = CARTESIAN_POINT('', (123.889087296526, -3.88908729652601, 15.));
#231 = CARTESIAN_POINT('', (116.110912703474, -3.88908729652601, 15.));
#232 = CARTESIAN_POINT('', (123.889087296526, 3.88908729652601, 15.));
#233 = CARTESIAN_POINT('', (116.110912703474, 3.88908729652601, 15.));
#234 = PRESENTATION_STYLE_ASSIGNMENT((#235));
#235 = SURFACE_STYLE_USAGE(.POSITIVE., #236);
#236 = SURFACE_SIDE_STYLE('', (#237));
#237 = SURFACE_STYLE_FILL_AREA(#238);
#238 = FILL_AREA_STYLE('', (#239));
#239 = FILL_AREA_STYLE_COLOUR('', #240);
#240 = COLOUR_RGB('', 0.50196078431373, 0.50196078431373, 0.50196078431373);
#241 = STYLED_ITEM('', (#234), #158);
#242 = MANIFOLD_SOLID_BREP('Solid2', #243);
#243 = CLOSED_SHELL('', (#244, #280, #308, #336, #356, #368));
#244 = ADVANCED_FACE('', (#245), #275, .T.);
#245 = FACE_OUTER_BOUND('', #246, .T.);
#246 = EDGE_LOOP('', (#247, #256, #263, #270));
#247 = ORIENTED_EDGE('', *, *, #248, .T.);
#248 = EDGE_CURVE('', #249, #251, #253, .T.);
#249 = VERTEX_POINT('', #250);
#250 = CARTESIAN_POINT('', (-5., 85., -5.));
#251 = VERTEX_POINT('', #252);
#252 = CARTESIAN_POINT('', (-5., 85., 5.));
#253 = B_SPLINE_CURVE_WITH_KNOTS('', 1, (#254, #255), .UNSPECIFIED., .F., .U., (2, 2), (0., 10.), .UNSPECIFIED.);
#254 = CARTESIAN_POINT('', (-5., 85., -5.));
#255 = CARTESIAN_POINT('', (-5., 85., 5.));
#256 = ORIENTED_EDGE('', *, *, #257, .T.);
#257 = EDGE_CURVE('', #251, #258, #260, .T.);
#258 = VERTEX_POINT('', #259);
#259 = CARTESIAN_POINT('', (5., 85., 5.));
#260 = B_SPLINE_CURVE_WITH_KNOTS('', 1, (#261, #262), .UNSPECIFIED., .F., .U., (2, 2), (0., 10.), .UNSPECIFIED.);
#261 = CARTESIAN_POINT('', (-5., 85., 5.));
#262 = CARTESIAN_POINT('', (5., 85., 5.));
#263 = ORIENTED_EDGE('', *, *, #264, .F.);
#264 = EDGE_CURVE('', #265, #258, #267, .T.);
#265 = VERTEX_POINT('', #266);
#266 = CARTESIAN_POINT('', (5., 85., -5.));
#267 = B_SPLINE_CURVE_WITH_KNOTS('', 1, (#268, #269), .UNSPECIFIED., .F., .U., (2, 2), (0., 10.), .UNSPECIFIED.);
#268 = CARTESIAN_POINT('', (5., 85., -5.));
#269 = CARTESIAN_POINT('', (5., 85., 5.));
#270 = ORIENTED_EDGE('', *, *, #271, .F.);
#271 = EDGE_CURVE('', #249, #265, #272, .T.);
#272 = B_SPLINE_CURVE_WITH_KNOTS('', 1, (#273, #274), .UNSPECIFIED., .F., .U., (2, 2), (0., 10.), .UNSPECIFIED.);
#273 = CARTESIAN_POINT('', (-5., 85., -5.));
#274 = CARTESIAN_POINT('', (5., 85., -5.));
#275 = B_SPLINE_SURFACE_WITH_KNOTS('', 1, 1, ((#276, #277), (#278, #279)), .UNSPECIFIED., .F., .F., .U., (2, 2), (2, 2), (0., 10.), (0., 10.), .UNSPECIFIED.);
#276 = CARTESIAN_POINT('', (-5., 85., -5.));
#277 = CARTESIAN_POINT('', (5., 85., -5.));
#278 = CARTESIAN_POINT('', (-5., 85., 5.));
#279 = CARTESIAN_POINT('', (5., 85., 5.));
#280 = ADVANCED_FACE('', (#281), #303, .T.);
#281 = FACE_OUTER_BOUND('', #282, .T.);
#282 = EDGE_LOOP('', (#283, #290, #297, #302));
#283 = ORIENTED_EDGE('', *, *, #284, .F.);
#284 = EDGE_CURVE('', #285, #251, #287, .T.);
#285 = VERTEX_POINT('', #286);
#286 = CARTESIAN_POINT('', (-5., 75., 5.));
#287 = B_SPLINE_CURVE_WITH_KNOTS('', 1, (#288, #289), .UNSPECIFIED., .F., .U., (2, 2), (0., 10.), .UNSPECIFIED.);
#288 = CARTESIAN_POINT('', (-5., 75., 5.));
#289 = CARTESIAN_POINT('', (-5., 85., 5.));
#290 = ORIENTED_EDGE('', *, *, #291, .T.);
#291 = EDGE_CURVE('', #285, #292, #294, .T.);
#292 = VERTEX_POINT('', #293);
#293 = CARTESIAN_POINT('', (5., 75., 5.));
#294 = B_SPLINE_CURVE_WITH_KNOTS('', 1, (#295, #296), .UNSPECIFIED., .F., .U., (2, 2), (0., 10.), .UNSPECIFIED.);
#295 = CARTESIAN_POINT('', (-5., 75., 5.));
#296 = CARTESIAN_POINT('', (5., 75., 5.));
#297 = ORIENTED_EDGE('', *, *, #298, .T.);
#298 = EDGE_CURVE('', #292, #258, #299, .T.);
#299 = B_SPLINE_CURVE_WITH_KNOTS('', 1, (#300, #301), .UNSPECIFIED., .F., .U., (2, 2), (0., 10.), .UNSPECIFIED.);
#300 = CARTESIAN_POINT('', (5., 75., 5.));
#301 = CARTESIAN_POINT('', (5., 85., 5.));
#302 = ORIENTED_EDGE('', *, *, #257, .F.);
#303 = B_SPLINE_SURFACE_WITH_KNOTS('', 1, 1, ((#304, #305), (#306, #307)), .UNSPECIFIED., .F., .F., .U., (2, 2), (2, 2), (0., 10.), (0., 10.), .UNSPECIFIED.);
#304 = CARTESIAN_POINT('', (-5., 75., 5.));
#305 = CARTESIAN_POINT('', (-5., 85., 5.));
#306 = CARTESIAN_POINT('', (5., 75., 5.));
#307 = CARTESIAN_POINT('', (5., 85., 5.));
#308 = ADVANCED_FACE('', (#309), #331, .T.);
#309 = FACE_OUTER_BOUND('', #310, .T.);
#310 = EDGE_LOOP('', (#311, #318, #325, #330));
#311 = ORIENTED_EDGE('', *, *, #312, .F.);
#312 = EDGE_CURVE('', #313, #285, #315, .T.);
#313 = VERTEX_POINT('', #314);
#314 = CARTESIAN_POINT('', (-5., 75., -5.));
#315 = B_SPLINE_CURVE_WITH_KNOTS('', 1, (#316, #317), .UNSPECIFIED., .F., .U., (2, 2), (0., 10.), .UNSPECIFIED.);
#316 = CARTESIAN_POINT('', (-5., 75., -5.));
#317 = CARTESIAN_POINT('', (-5., 75., 5.));
#318 = ORIENTED_EDGE('', *, *, #319, .T.);
#319 = EDGE_CURVE('', #313, #320, #322, .T.);
#320 = VERTEX_POINT('', #321);
#321 = CARTESIAN_POINT('', (5., 75., -5.));
#322 = B_SPLINE_CURVE_WITH_KNOTS('', 1, (#323, #324), .UNSPECIFIED., .F., .U., (2, 2), (0., 10.), .UNSPECIFIED.);
#323 = CARTESIAN_POINT('', (-5., 75., -5.));
#324 = CARTESIAN_POINT('', (5., 75., -5.));
#325 = ORIENTED_EDGE('', *, *, #326, .T.);
#326 = EDGE_CURVE('', #320, #292, #327, .T.);
#327 = B_SPLINE_CURVE_WITH_KNOTS('', 1, (#328, #329), .UNSPECIFIED., .F., .U., (2, 2), (0., 10.), .UNSPECIFIED.);
#328 = CARTESIAN_POINT('', (5., 75., -5.));
#329 = CARTESIAN_POINT('', (5., 75., 5.));
#330 = ORIENTED_EDGE('', *, *, #291, .F.);
#331 = B_SPLINE_SURFACE_WITH_KNOTS('', 1, 1, ((#332, #333), (#334, #335)), .UNSPECIFIED., .F., .F., .U., (2, 2), (2, 2), (0., 10.), (0., 10.), .UNSPECIFIED.);
#332 = CARTESIAN_POINT('', (-5., 75., -5.));
#333 = CARTESIAN_POINT('', (-5., 75., 5.));
#334 = CARTESIAN_POINT('', (5., 75., -5.));
#335 = CARTESIAN_POINT('', (5., 75., 5.));
#336 = ADVANCED_FACE('', (#337), #351, .T.);
#337 = FACE_OUTER_BOUND('', #338, .T.);
#338 = EDGE_LOOP('', (#339, #344, #345, #350));
#339 = ORIENTED_EDGE('', *, *, #340, .T.);
#340 = EDGE_CURVE('', #313, #249, #341, .T.);
#341 = B_SPLINE_CURVE_WITH_KNOTS('', 1, (#342, #343), .UNSPECIFIED., .F., .U., (2, 2), (0., 10.), .UNSPECIFIED.);
#342 = CARTESIAN_POINT('', (-5., 75., -5.));
#343 = CARTESIAN_POINT('', (-5., 85., -5.));
#344 = ORIENTED_EDGE('', *, *, #271, .T.);
#345 = ORIENTED_EDGE('', *, *, #346, .F.);
#346 = EDGE_CURVE('', #320, #265, #347, .T.);
#347 = B_SPLINE_CURVE_WITH_KNOTS('', 1, (#348, #349), .UNSPECIFIED., .F., .U., (2, 2), (0., 10.), .UNSPECIFIED.);
#348 = CARTESIAN_POINT('', (5., 75., -5.));
#349 = CARTESIAN_POINT('', (5., 85., -5.));
#350 = ORIENTED_EDGE('', *, *, #319, .F.);
#351 = B_SPLINE_SURFACE_WITH_KNOTS('', 1, 1, ((#352, #353), (#354, #355)), .UNSPECIFIED., .F., .F., .U., (2, 2), (2, 2), (0., 10.), (0., 10.), .UNSPECIFIED.);
#352 = CARTESIAN_POINT('', (-5., 75., -5.));
#353 = CARTESIAN_POINT('', (5., 75., -5.));
#354 = CARTESIAN_POINT('', (-5., 85., -5.));
#355 = CARTESIAN_POINT('', (5., 85., -5.));
#356 = ADVANCED_FACE('', (#357), #363, .T.);
#357 = FACE_OUTER_BOUND('', #358, .T.);
#358 = EDGE_LOOP('', (#359, #360, #361, #362));
#359 = ORIENTED_EDGE('', *, *, #326, .F.);
#360 = ORIENTED_EDGE('', *, *, #346, .T.);
#361 = ORIENTED_EDGE('', *, *, #264, .T.);
#362 = ORIENTED_EDGE('', *, *, #298, .F.);
#363 = B_SPLINE_SURFACE_WITH_KNOTS('', 1, 1, ((#364, #365), (#366, #367)), .UNSPECIFIED., .F., .F., .U., (2, 2), (2, 2), (0., 10.), (0., 10.), .UNSPECIFIED.);
#364 = CARTESIAN_POINT('', (5., 75., -5.));
#365 = CARTESIAN_POINT('', (5., 75., 5.));
#366 = CARTESIAN_POINT('', (5., 85., -5.));
#367 = CARTESIAN_POINT('', (5., 85., 5.));
#368 = ADVANCED_FACE('', (#369), #375, .T.);
#369 = FACE_OUTER_BOUND('', #370, .T.);
#370 = EDGE_LOOP('', (#371, #372, #373, #374));
#371 = ORIENTED_EDGE('', *, *, #312, .T.);
#372 = ORIENTED_EDGE('', *, *, #284, .T.);
#373 = ORIENTED_EDGE('', *, *, #248, .F.);
#374 = ORIENTED_EDGE('', *, *, #340, .F.);
#375 = B_SPLINE_SURFACE_WITH_KNOTS('', 1, 1, ((#376, #377), (#378, #379)), .UNSPECIFIED., .F., .F., .U., (2, 2), (2, 2), (0., 10.), (0., 10.), .UNSPECIFIED.);
#376 = CARTESIAN_POINT('', (-5., 75., -5.));
#377 = CARTESIAN_POINT('', (-5., 85., -5.));
#378 = CARTESIAN_POINT('', (-5., 75., 5.));
#379 = CARTESIAN_POINT('', (-5., 85., 5.));
#380 = PRESENTATION_STYLE_ASSIGNMENT((#381));
#381 = SURFACE_STYLE_USAGE(.POSITIVE., #382);
#382 = SURFACE_SIDE_STYLE('', (#383));
#383 = SURFACE_STYLE_FILL_AREA(#384);
#384 = FILL_AREA_STYLE('', (#385));
#385 = FILL_AREA_STYLE_COLOUR('', #386);
#386 = COLOUR_RGB('', 0.50196078431373, 0.50196078431373, 0.50196078431373);
#387 = STYLED_ITEM('', (#380), #242);
#388 = CARTESIAN_POINT('Origin', (0., 0., 0.));
#389 = GEOMETRIC_SET('', (#388));
#390 = (
   GEOMETRIC_REPRESENTATION_CONTEXT (3)
   GLOBAL_UNCERTAINTY_ASSIGNED_CONTEXT ((#392))
   GLOBAL_UNIT_ASSIGNED_CONTEXT ((#391, #393, #394))
   REPRESENTATION_CONTEXT ('', '3D')
);
#391 = (
   LENGTH_UNIT ()
   NAMED_UNIT (*)
   SI_UNIT (.MILLI., .METRE.)
);
#392 = UNCERTAINTY_MEASURE_WITH_UNIT(LENGTH_MEASURE(1.E-6), #391, 'DISTANCE_ACCURACY_VALUE', '');
#393 = (
   NAMED_UNIT (*)
   SI_UNIT ($, .STERADIAN.)
   SOLID_ANGLE_UNIT ()
);
#394 = (
   NAMED_UNIT (*)
   PLANE_ANGLE_UNIT ()
   SI_UNIT ($, .RADIAN.)
);
#395 = SHAPE_REPRESENTATION('', (#410), #390);
#396 = PRODUCT_DEFINITION_SHAPE('', '', #397);
#397 = PRODUCT_DEFINITION('', '', #400, #404);
#398 = APPLICATION_CONTEXT('configuration controlled 3D designs of mechanical parts and assemblies');
#399 = APPLICATION_PROTOCOL_DEFINITION('International Standard', 'automotive_design', 2002, #398);
#400 = PRODUCT_DEFINITION_FORMATION_WITH_SPECIFIED_SOURCE('', '', #401, .NOT_KNOWN.);
#401 = PRODUCT('ScaleTypesTest', 'ScaleTypesTest', '', (#402));
#402 = PRODUCT_CONTEXT('', #398, 'mechanical');
#403 = PRODUCT_RELATED_PRODUCT_CATEGORY('detail', '', (#401));
#404 = PRODUCT_DEFINITION_CONTEXT('part definition', #398, 'design');
#405 = SHAPE_DEFINITION_REPRESENTATION(#396, #395);
#406 = SHAPE_REPRESENTATION_RELATIONSHIP('', '', #395, #407);
#407 = SHAPE_REPRESENTATION('', (#389), #390);
#408 = SHAPE_REPRESENTATION_RELATIONSHIP('', '', #395, #409);
#409 = ADVANCED_BREP_SHAPE_REPRESENTATION('', (#1, #74, #158, #242), #390);
#410 = AXIS2_PLACEMENT_3D('', #411, #412, #413);
#411 = CARTESIAN_POINT('', (0., 0., 0.));
#412 = DIRECTION('', (0., 0., 1.));
#413 = DIRECTION('', (1., 0., 0.));
ENDSEC;
END-ISO-10303-21;
