ISO-10303-21;
HEADER;
FILE_DESCRIPTION(('STEP'), '1');
FILE_NAME('ScaleFractionalTest', '2026-04-15T10:17:54', (''), (''), 'Express 3.1.2.0', 'Express Tool', 'Unknown');
FILE_SCHEMA(('AUTOMOTIVE_DESIGN'));
ENDSEC;

DATA;
#1 = MANIFOLD_SOLID_BREP('Solid', #2);
#2 = CLOSED_SHELL('', (#3, #39, #67, #95, #115, #127));
#3 = ADVANCED_FACE('', (#4), #34, .T.);
#4 = FACE_OUTER_BOUND('', #5, .T.);
#5 = EDGE_LOOP('', (#6, #15, #22, #29));
#6 = ORIENTED_EDGE('', *, *, #7, .T.);
#7 = EDGE_CURVE('', #8, #10, #12, .T.);
#8 = VERTEX_POINT('', #9);
#9 = CARTESIAN_POINT('', (-7.5, 7.5, -7.5));
#10 = VERTEX_POINT('', #11);
#11 = CARTESIAN_POINT('', (-7.5, 7.5, 7.5));
#12 = B_SPLINE_CURVE_WITH_KNOTS('', 1, (#13, #14), .UNSPECIFIED., .F., .U., (2, 2), (0., 30.), .UNSPECIFIED.);
#13 = CARTESIAN_POINT('', (-7.5, 7.5, -7.5));
#14 = CARTESIAN_POINT('', (-7.5, 7.5, 7.5));
#15 = ORIENTED_EDGE('', *, *, #16, .T.);
#16 = EDGE_CURVE('', #10, #17, #19, .T.);
#17 = VERTEX_POINT('', #18);
#18 = CARTESIAN_POINT('', (7.5, 7.5, 7.5));
#19 = B_SPLINE_CURVE_WITH_KNOTS('', 1, (#20, #21), .UNSPECIFIED., .F., .U., (2, 2), (0., 30.), .UNSPECIFIED.);
#20 = CARTESIAN_POINT('', (-7.5, 7.5, 7.5));
#21 = CARTESIAN_POINT('', (7.5, 7.5, 7.5));
#22 = ORIENTED_EDGE('', *, *, #23, .F.);
#23 = EDGE_CURVE('', #24, #17, #26, .T.);
#24 = VERTEX_POINT('', #25);
#25 = CARTESIAN_POINT('', (7.5, 7.5, -7.5));
#26 = B_SPLINE_CURVE_WITH_KNOTS('', 1, (#27, #28), .UNSPECIFIED., .F., .U., (2, 2), (0., 30.), .UNSPECIFIED.);
#27 = CARTESIAN_POINT('', (7.5, 7.5, -7.5));
#28 = CARTESIAN_POINT('', (7.5, 7.5, 7.5));
#29 = ORIENTED_EDGE('', *, *, #30, .F.);
#30 = EDGE_CURVE('', #8, #24, #31, .T.);
#31 = B_SPLINE_CURVE_WITH_KNOTS('', 1, (#32, #33), .UNSPECIFIED., .F., .U., (2, 2), (0., 30.), .UNSPECIFIED.);
#32 = CARTESIAN_POINT('', (-7.5, 7.5, -7.5));
#33 = CARTESIAN_POINT('', (7.5, 7.5, -7.5));
#34 = B_SPLINE_SURFACE_WITH_KNOTS('', 1, 1, ((#35, #36), (#37, #38)), .UNSPECIFIED., .F., .F., .U., (2, 2), (2, 2), (0., 30.), (0., 30.), .UNSPECIFIED.);
#35 = CARTESIAN_POINT('', (-7.5, 7.5, -7.5));
#36 = CARTESIAN_POINT('', (7.5, 7.5, -7.5));
#37 = CARTESIAN_POINT('', (-7.5, 7.5, 7.5));
#38 = CARTESIAN_POINT('', (7.5, 7.5, 7.5));
#39 = ADVANCED_FACE('', (#40), #62, .T.);
#40 = FACE_OUTER_BOUND('', #41, .T.);
#41 = EDGE_LOOP('', (#42, #49, #56, #61));
#42 = ORIENTED_EDGE('', *, *, #43, .F.);
#43 = EDGE_CURVE('', #44, #10, #46, .T.);
#44 = VERTEX_POINT('', #45);
#45 = CARTESIAN_POINT('', (-7.5, -7.5, 7.5));
#46 = B_SPLINE_CURVE_WITH_KNOTS('', 1, (#47, #48), .UNSPECIFIED., .F., .U., (2, 2), (0., 30.), .UNSPECIFIED.);
#47 = CARTESIAN_POINT('', (-7.5, -7.5, 7.5));
#48 = CARTESIAN_POINT('', (-7.5, 7.5, 7.5));
#49 = ORIENTED_EDGE('', *, *, #50, .T.);
#50 = EDGE_CURVE('', #44, #51, #53, .T.);
#51 = VERTEX_POINT('', #52);
#52 = CARTESIAN_POINT('', (7.5, -7.5, 7.5));
#53 = B_SPLINE_CURVE_WITH_KNOTS('', 1, (#54, #55), .UNSPECIFIED., .F., .U., (2, 2), (0., 30.), .UNSPECIFIED.);
#54 = CARTESIAN_POINT('', (-7.5, -7.5, 7.5));
#55 = CARTESIAN_POINT('', (7.5, -7.5, 7.5));
#56 = ORIENTED_EDGE('', *, *, #57, .T.);
#57 = EDGE_CURVE('', #51, #17, #58, .T.);
#58 = B_SPLINE_CURVE_WITH_KNOTS('', 1, (#59, #60), .UNSPECIFIED., .F., .U., (2, 2), (0., 30.), .UNSPECIFIED.);
#59 = CARTESIAN_POINT('', (7.5, -7.5, 7.5));
#60 = CARTESIAN_POINT('', (7.5, 7.5, 7.5));
#61 = ORIENTED_EDGE('', *, *, #16, .F.);
#62 = B_SPLINE_SURFACE_WITH_KNOTS('', 1, 1, ((#63, #64), (#65, #66)), .UNSPECIFIED., .F., .F., .U., (2, 2), (2, 2), (0., 30.), (0., 30.), .UNSPECIFIED.);
#63 = CARTESIAN_POINT('', (-7.5, -7.5, 7.5));
#64 = CARTESIAN_POINT('', (-7.5, 7.5, 7.5));
#65 = CARTESIAN_POINT('', (7.5, -7.5, 7.5));
#66 = CARTESIAN_POINT('', (7.5, 7.5, 7.5));
#67 = ADVANCED_FACE('', (#68), #90, .T.);
#68 = FACE_OUTER_BOUND('', #69, .T.);
#69 = EDGE_LOOP('', (#70, #77, #84, #89));
#70 = ORIENTED_EDGE('', *, *, #71, .F.);
#71 = EDGE_CURVE('', #72, #44, #74, .T.);
#72 = VERTEX_POINT('', #73);
#73 = CARTESIAN_POINT('', (-7.5, -7.5, -7.5));
#74 = B_SPLINE_CURVE_WITH_KNOTS('', 1, (#75, #76), .UNSPECIFIED., .F., .U., (2, 2), (0., 30.), .UNSPECIFIED.);
#75 = CARTESIAN_POINT('', (-7.5, -7.5, -7.5));
#76 = CARTESIAN_POINT('', (-7.5, -7.5, 7.5));
#77 = ORIENTED_EDGE('', *, *, #78, .T.);
#78 = EDGE_CURVE('', #72, #79, #81, .T.);
#79 = VERTEX_POINT('', #80);
#80 = CARTESIAN_POINT('', (7.5, -7.5, -7.5));
#81 = B_SPLINE_CURVE_WITH_KNOTS('', 1, (#82, #83), .UNSPECIFIED., .F., .U., (2, 2), (0., 30.), .UNSPECIFIED.);
#82 = CARTESIAN_POINT('', (-7.5, -7.5, -7.5));
#83 = CARTESIAN_POINT('', (7.5, -7.5, -7.5));
#84 = ORIENTED_EDGE('', *, *, #85, .T.);
#85 = EDGE_CURVE('', #79, #51, #86, .T.);
#86 = B_SPLINE_CURVE_WITH_KNOTS('', 1, (#87, #88), .UNSPECIFIED., .F., .U., (2, 2), (0., 30.), .UNSPECIFIED.);
#87 = CARTESIAN_POINT('', (7.5, -7.5, -7.5));
#88 = CARTESIAN_POINT('', (7.5, -7.5, 7.5));
#89 = ORIENTED_EDGE('', *, *, #50, .F.);
#90 = B_SPLINE_SURFACE_WITH_KNOTS('', 1, 1, ((#91, #92), (#93, #94)), .UNSPECIFIED., .F., .F., .U., (2, 2), (2, 2), (0., 30.), (0., 30.), .UNSPECIFIED.);
#91 = CARTESIAN_POINT('', (-7.5, -7.5, -7.5));
#92 = CARTESIAN_POINT('', (-7.5, -7.5, 7.5));
#93 = CARTESIAN_POINT('', (7.5, -7.5, -7.5));
#94 = CARTESIAN_POINT('', (7.5, -7.5, 7.5));
#95 = ADVANCED_FACE('', (#96), #110, .T.);
#96 = FACE_OUTER_BOUND('', #97, .T.);
#97 = EDGE_LOOP('', (#98, #103, #104, #109));
#98 = ORIENTED_EDGE('', *, *, #99, .T.);
#99 = EDGE_CURVE('', #72, #8, #100, .T.);
#100 = B_SPLINE_CURVE_WITH_KNOTS('', 1, (#101, #102), .UNSPECIFIED., .F., .U., (2, 2), (0., 30.), .UNSPECIFIED.);
#101 = CARTESIAN_POINT('', (-7.5, -7.5, -7.5));
#102 = CARTESIAN_POINT('', (-7.5, 7.5, -7.5));
#103 = ORIENTED_EDGE('', *, *, #30, .T.);
#104 = ORIENTED_EDGE('', *, *, #105, .F.);
#105 = EDGE_CURVE('', #79, #24, #106, .T.);
#106 = B_SPLINE_CURVE_WITH_KNOTS('', 1, (#107, #108), .UNSPECIFIED., .F., .U., (2, 2), (0., 30.), .UNSPECIFIED.);
#107 = CARTESIAN_POINT('', (7.5, -7.5, -7.5));
#108 = CARTESIAN_POINT('', (7.5, 7.5, -7.5));
#109 = ORIENTED_EDGE('', *, *, #78, .F.);
#110 = B_SPLINE_SURFACE_WITH_KNOTS('', 1, 1, ((#111, #112), (#113, #114)), .UNSPECIFIED., .F., .F., .U., (2, 2), (2, 2), (0., 30.), (0., 30.), .UNSPECIFIED.);
#111 = CARTESIAN_POINT('', (-7.5, -7.5, -7.5));
#112 = CARTESIAN_POINT('', (7.5, -7.5, -7.5));
#113 = CARTESIAN_POINT('', (-7.5, 7.5, -7.5));
#114 = CARTESIAN_POINT('', (7.5, 7.5, -7.5));
#115 = ADVANCED_FACE('', (#116), #122, .T.);
#116 = FACE_OUTER_BOUND('', #117, .T.);
#117 = EDGE_LOOP('', (#118, #119, #120, #121));
#118 = ORIENTED_EDGE('', *, *, #85, .F.);
#119 = ORIENTED_EDGE('', *, *, #105, .T.);
#120 = ORIENTED_EDGE('', *, *, #23, .T.);
#121 = ORIENTED_EDGE('', *, *, #57, .F.);
#122 = B_SPLINE_SURFACE_WITH_KNOTS('', 1, 1, ((#123, #124), (#125, #126)), .UNSPECIFIED., .F., .F., .U., (2, 2), (2, 2), (0., 30.), (0., 30.), .UNSPECIFIED.);
#123 = CARTESIAN_POINT('', (7.5, -7.5, -7.5));
#124 = CARTESIAN_POINT('', (7.5, -7.5, 7.5));
#125 = CARTESIAN_POINT('', (7.5, 7.5, -7.5));
#126 = CARTESIAN_POINT('', (7.5, 7.5, 7.5));
#127 = ADVANCED_FACE('', (#128), #134, .T.);
#128 = FACE_OUTER_BOUND('', #129, .T.);
#129 = EDGE_LOOP('', (#130, #131, #132, #133));
#130 = ORIENTED_EDGE('', *, *, #71, .T.);
#131 = ORIENTED_EDGE('', *, *, #43, .T.);
#132 = ORIENTED_EDGE('', *, *, #7, .F.);
#133 = ORIENTED_EDGE('', *, *, #99, .F.);
#134 = B_SPLINE_SURFACE_WITH_KNOTS('', 1, 1, ((#135, #136), (#137, #138)), .UNSPECIFIED., .F., .F., .U., (2, 2), (2, 2), (0., 30.), (0., 30.), .UNSPECIFIED.);
#135 = CARTESIAN_POINT('', (-7.5, -7.5, -7.5));
#136 = CARTESIAN_POINT('', (-7.5, 7.5, -7.5));
#137 = CARTESIAN_POINT('', (-7.5, -7.5, 7.5));
#138 = CARTESIAN_POINT('', (-7.5, 7.5, 7.5));
#139 = DRAUGHTING_MODEL('', (#147, #293, #439, #585), #588);
#140 = PRESENTATION_STYLE_ASSIGNMENT((#141));
#141 = SURFACE_STYLE_USAGE(.POSITIVE., #142);
#142 = SURFACE_SIDE_STYLE('', (#143));
#143 = SURFACE_STYLE_FILL_AREA(#144);
#144 = FILL_AREA_STYLE('', (#145));
#145 = FILL_AREA_STYLE_COLOUR('', #146);
#146 = COLOUR_RGB('', 0.50196078431373, 0.50196078431373, 0.50196078431373);
#147 = STYLED_ITEM('', (#140), #1);
#148 = MANIFOLD_SOLID_BREP('Solid0', #149);
#149 = CLOSED_SHELL('', (#150, #186, #214, #242, #262, #274));
#150 = ADVANCED_FACE('', (#151), #181, .T.);
#151 = FACE_OUTER_BOUND('', #152, .T.);
#152 = EDGE_LOOP('', (#153, #162, #169, #176));
#153 = ORIENTED_EDGE('', *, *, #154, .T.);
#154 = EDGE_CURVE('', #155, #157, #159, .T.);
#155 = VERTEX_POINT('', #156);
#156 = CARTESIAN_POINT('', (67.5, 22.5, -22.5));
#157 = VERTEX_POINT('', #158);
#158 = CARTESIAN_POINT('', (67.5, 22.5, 22.5));
#159 = B_SPLINE_CURVE_WITH_KNOTS('', 1, (#160, #161), .UNSPECIFIED., .F., .U., (2, 2), (0., 30.), .UNSPECIFIED.);
#160 = CARTESIAN_POINT('', (67.5, 22.5, -22.5));
#161 = CARTESIAN_POINT('', (67.5, 22.5, 22.5));
#162 = ORIENTED_EDGE('', *, *, #163, .T.);
#163 = EDGE_CURVE('', #157, #164, #166, .T.);
#164 = VERTEX_POINT('', #165);
#165 = CARTESIAN_POINT('', (112.5, 22.5, 22.5));
#166 = B_SPLINE_CURVE_WITH_KNOTS('', 1, (#167, #168), .UNSPECIFIED., .F., .U., (2, 2), (0., 30.), .UNSPECIFIED.);
#167 = CARTESIAN_POINT('', (67.5, 22.5, 22.5));
#168 = CARTESIAN_POINT('', (112.5, 22.5, 22.5));
#169 = ORIENTED_EDGE('', *, *, #170, .F.);
#170 = EDGE_CURVE('', #171, #164, #173, .T.);
#171 = VERTEX_POINT('', #172);
#172 = CARTESIAN_POINT('', (112.5, 22.5, -22.5));
#173 = B_SPLINE_CURVE_WITH_KNOTS('', 1, (#174, #175), .UNSPECIFIED., .F., .U., (2, 2), (0., 30.), .UNSPECIFIED.);
#174 = CARTESIAN_POINT('', (112.5, 22.5, -22.5));
#175 = CARTESIAN_POINT('', (112.5, 22.5, 22.5));
#176 = ORIENTED_EDGE('', *, *, #177, .F.);
#177 = EDGE_CURVE('', #155, #171, #178, .T.);
#178 = B_SPLINE_CURVE_WITH_KNOTS('', 1, (#179, #180), .UNSPECIFIED., .F., .U., (2, 2), (0., 30.), .UNSPECIFIED.);
#179 = CARTESIAN_POINT('', (67.5, 22.5, -22.5));
#180 = CARTESIAN_POINT('', (112.5, 22.5, -22.5));
#181 = B_SPLINE_SURFACE_WITH_KNOTS('', 1, 1, ((#182, #183), (#184, #185)), .UNSPECIFIED., .F., .F., .U., (2, 2), (2, 2), (0., 30.), (0., 30.), .UNSPECIFIED.);
#182 = CARTESIAN_POINT('', (67.5, 22.5, -22.5));
#183 = CARTESIAN_POINT('', (112.5, 22.5, -22.5));
#184 = CARTESIAN_POINT('', (67.5, 22.5, 22.5));
#185 = CARTESIAN_POINT('', (112.5, 22.5, 22.5));
#186 = ADVANCED_FACE('', (#187), #209, .T.);
#187 = FACE_OUTER_BOUND('', #188, .T.);
#188 = EDGE_LOOP('', (#189, #196, #203, #208));
#189 = ORIENTED_EDGE('', *, *, #190, .F.);
#190 = EDGE_CURVE('', #191, #157, #193, .T.);
#191 = VERTEX_POINT('', #192);
#192 = CARTESIAN_POINT('', (67.5, -22.5, 22.5));
#193 = B_SPLINE_CURVE_WITH_KNOTS('', 1, (#194, #195), .UNSPECIFIED., .F., .U., (2, 2), (0., 30.), .UNSPECIFIED.);
#194 = CARTESIAN_POINT('', (67.5, -22.5, 22.5));
#195 = CARTESIAN_POINT('', (67.5, 22.5, 22.5));
#196 = ORIENTED_EDGE('', *, *, #197, .T.);
#197 = EDGE_CURVE('', #191, #198, #200, .T.);
#198 = VERTEX_POINT('', #199);
#199 = CARTESIAN_POINT('', (112.5, -22.5, 22.5));
#200 = B_SPLINE_CURVE_WITH_KNOTS('', 1, (#201, #202), .UNSPECIFIED., .F., .U., (2, 2), (0., 30.), .UNSPECIFIED.);
#201 = CARTESIAN_POINT('', (67.5, -22.5, 22.5));
#202 = CARTESIAN_POINT('', (112.5, -22.5, 22.5));
#203 = ORIENTED_EDGE('', *, *, #204, .T.);
#204 = EDGE_CURVE('', #198, #164, #205, .T.);
#205 = B_SPLINE_CURVE_WITH_KNOTS('', 1, (#206, #207), .UNSPECIFIED., .F., .U., (2, 2), (0., 30.), .UNSPECIFIED.);
#206 = CARTESIAN_POINT('', (112.5, -22.5, 22.5));
#207 = CARTESIAN_POINT('', (112.5, 22.5, 22.5));
#208 = ORIENTED_EDGE('', *, *, #163, .F.);
#209 = B_SPLINE_SURFACE_WITH_KNOTS('', 1, 1, ((#210, #211), (#212, #213)), .UNSPECIFIED., .F., .F., .U., (2, 2), (2, 2), (0., 30.), (0., 30.), .UNSPECIFIED.);
#210 = CARTESIAN_POINT('', (67.5, -22.5, 22.5));
#211 = CARTESIAN_POINT('', (67.5, 22.5, 22.5));
#212 = CARTESIAN_POINT('', (112.5, -22.5, 22.5));
#213 = CARTESIAN_POINT('', (112.5, 22.5, 22.5));
#214 = ADVANCED_FACE('', (#215), #237, .T.);
#215 = FACE_OUTER_BOUND('', #216, .T.);
#216 = EDGE_LOOP('', (#217, #224, #231, #236));
#217 = ORIENTED_EDGE('', *, *, #218, .F.);
#218 = EDGE_CURVE('', #219, #191, #221, .T.);
#219 = VERTEX_POINT('', #220);
#220 = CARTESIAN_POINT('', (67.5, -22.5, -22.5));
#221 = B_SPLINE_CURVE_WITH_KNOTS('', 1, (#222, #223), .UNSPECIFIED., .F., .U., (2, 2), (0., 30.), .UNSPECIFIED.);
#222 = CARTESIAN_POINT('', (67.5, -22.5, -22.5));
#223 = CARTESIAN_POINT('', (67.5, -22.5, 22.5));
#224 = ORIENTED_EDGE('', *, *, #225, .T.);
#225 = EDGE_CURVE('', #219, #226, #228, .T.);
#226 = VERTEX_POINT('', #227);
#227 = CARTESIAN_POINT('', (112.5, -22.5, -22.5));
#228 = B_SPLINE_CURVE_WITH_KNOTS('', 1, (#229, #230), .UNSPECIFIED., .F., .U., (2, 2), (0., 30.), .UNSPECIFIED.);
#229 = CARTESIAN_POINT('', (67.5, -22.5, -22.5));
#230 = CARTESIAN_POINT('', (112.5, -22.5, -22.5));
#231 = ORIENTED_EDGE('', *, *, #232, .T.);
#232 = EDGE_CURVE('', #226, #198, #233, .T.);
#233 = B_SPLINE_CURVE_WITH_KNOTS('', 1, (#234, #235), .UNSPECIFIED., .F., .U., (2, 2), (0., 30.), .UNSPECIFIED.);
#234 = CARTESIAN_POINT('', (112.5, -22.5, -22.5));
#235 = CARTESIAN_POINT('', (112.5, -22.5, 22.5));
#236 = ORIENTED_EDGE('', *, *, #197, .F.);
#237 = B_SPLINE_SURFACE_WITH_KNOTS('', 1, 1, ((#238, #239), (#240, #241)), .UNSPECIFIED., .F., .F., .U., (2, 2), (2, 2), (0., 30.), (0., 30.), .UNSPECIFIED.);
#238 = CARTESIAN_POINT('', (67.5, -22.5, -22.5));
#239 = CARTESIAN_POINT('', (67.5, -22.5, 22.5));
#240 = CARTESIAN_POINT('', (112.5, -22.5, -22.5));
#241 = CARTESIAN_POINT('', (112.5, -22.5, 22.5));
#242 = ADVANCED_FACE('', (#243), #257, .T.);
#243 = FACE_OUTER_BOUND('', #244, .T.);
#244 = EDGE_LOOP('', (#245, #250, #251, #256));
#245 = ORIENTED_EDGE('', *, *, #246, .T.);
#246 = EDGE_CURVE('', #219, #155, #247, .T.);
#247 = B_SPLINE_CURVE_WITH_KNOTS('', 1, (#248, #249), .UNSPECIFIED., .F., .U., (2, 2), (0., 30.), .UNSPECIFIED.);
#248 = CARTESIAN_POINT('', (67.5, -22.5, -22.5));
#249 = CARTESIAN_POINT('', (67.5, 22.5, -22.5));
#250 = ORIENTED_EDGE('', *, *, #177, .T.);
#251 = ORIENTED_EDGE('', *, *, #252, .F.);
#252 = EDGE_CURVE('', #226, #171, #253, .T.);
#253 = B_SPLINE_CURVE_WITH_KNOTS('', 1, (#254, #255), .UNSPECIFIED., .F., .U., (2, 2), (0., 30.), .UNSPECIFIED.);
#254 = CARTESIAN_POINT('', (112.5, -22.5, -22.5));
#255 = CARTESIAN_POINT('', (112.5, 22.5, -22.5));
#256 = ORIENTED_EDGE('', *, *, #225, .F.);
#257 = B_SPLINE_SURFACE_WITH_KNOTS('', 1, 1, ((#258, #259), (#260, #261)), .UNSPECIFIED., .F., .F., .U., (2, 2), (2, 2), (0., 30.), (0., 30.), .UNSPECIFIED.);
#258 = CARTESIAN_POINT('', (67.5, -22.5, -22.5));
#259 = CARTESIAN_POINT('', (112.5, -22.5, -22.5));
#260 = CARTESIAN_POINT('', (67.5, 22.5, -22.5));
#261 = CARTESIAN_POINT('', (112.5, 22.5, -22.5));
#262 = ADVANCED_FACE('', (#263), #269, .T.);
#263 = FACE_OUTER_BOUND('', #264, .T.);
#264 = EDGE_LOOP('', (#265, #266, #267, #268));
#265 = ORIENTED_EDGE('', *, *, #232, .F.);
#266 = ORIENTED_EDGE('', *, *, #252, .T.);
#267 = ORIENTED_EDGE('', *, *, #170, .T.);
#268 = ORIENTED_EDGE('', *, *, #204, .F.);
#269 = B_SPLINE_SURFACE_WITH_KNOTS('', 1, 1, ((#270, #271), (#272, #273)), .UNSPECIFIED., .F., .F., .U., (2, 2), (2, 2), (0., 30.), (0., 30.), .UNSPECIFIED.);
#270 = CARTESIAN_POINT('', (112.5, -22.5, -22.5));
#271 = CARTESIAN_POINT('', (112.5, -22.5, 22.5));
#272 = CARTESIAN_POINT('', (112.5, 22.5, -22.5));
#273 = CARTESIAN_POINT('', (112.5, 22.5, 22.5));
#274 = ADVANCED_FACE('', (#275), #281, .T.);
#275 = FACE_OUTER_BOUND('', #276, .T.);
#276 = EDGE_LOOP('', (#277, #278, #279, #280));
#277 = ORIENTED_EDGE('', *, *, #218, .T.);
#278 = ORIENTED_EDGE('', *, *, #190, .T.);
#279 = ORIENTED_EDGE('', *, *, #154, .F.);
#280 = ORIENTED_EDGE('', *, *, #246, .F.);
#281 = B_SPLINE_SURFACE_WITH_KNOTS('', 1, 1, ((#282, #283), (#284, #285)), .UNSPECIFIED., .F., .F., .U., (2, 2), (2, 2), (0., 30.), (0., 30.), .UNSPECIFIED.);
#282 = CARTESIAN_POINT('', (67.5, -22.5, -22.5));
#283 = CARTESIAN_POINT('', (67.5, 22.5, -22.5));
#284 = CARTESIAN_POINT('', (67.5, -22.5, 22.5));
#285 = CARTESIAN_POINT('', (67.5, 22.5, 22.5));
#286 = PRESENTATION_STYLE_ASSIGNMENT((#287));
#287 = SURFACE_STYLE_USAGE(.POSITIVE., #288);
#288 = SURFACE_SIDE_STYLE('', (#289));
#289 = SURFACE_STYLE_FILL_AREA(#290);
#290 = FILL_AREA_STYLE('', (#291));
#291 = FILL_AREA_STYLE_COLOUR('', #292);
#292 = COLOUR_RGB('', 0.50196078431373, 0.50196078431373, 0.50196078431373);
#293 = STYLED_ITEM('', (#286), #148);
#294 = MANIFOLD_SOLID_BREP('Solid1', #295);
#295 = CLOSED_SHELL('', (#296, #332, #360, #388, #408, #420));
#296 = ADVANCED_FACE('', (#297), #327, .T.);
#297 = FACE_OUTER_BOUND('', #298, .T.);
#298 = EDGE_LOOP('', (#299, #308, #315, #322));
#299 = ORIENTED_EDGE('', *, *, #300, .T.);
#300 = EDGE_CURVE('', #301, #303, #305, .T.);
#301 = VERTEX_POINT('', #302);
#302 = CARTESIAN_POINT('', (262.5, 37.5, -37.5));
#303 = VERTEX_POINT('', #304);
#304 = CARTESIAN_POINT('', (262.5, 37.5, 37.5));
#305 = B_SPLINE_CURVE_WITH_KNOTS('', 1, (#306, #307), .UNSPECIFIED., .F., .U., (2, 2), (0., 30.), .UNSPECIFIED.);
#306 = CARTESIAN_POINT('', (262.5, 37.5, -37.5));
#307 = CARTESIAN_POINT('', (262.5, 37.5, 37.5));
#308 = ORIENTED_EDGE('', *, *, #309, .T.);
#309 = EDGE_CURVE('', #303, #310, #312, .T.);
#310 = VERTEX_POINT('', #311);
#311 = CARTESIAN_POINT('', (337.5, 37.5, 37.5));
#312 = B_SPLINE_CURVE_WITH_KNOTS('', 1, (#313, #314), .UNSPECIFIED., .F., .U., (2, 2), (0., 30.), .UNSPECIFIED.);
#313 = CARTESIAN_POINT('', (262.5, 37.5, 37.5));
#314 = CARTESIAN_POINT('', (337.5, 37.5, 37.5));
#315 = ORIENTED_EDGE('', *, *, #316, .F.);
#316 = EDGE_CURVE('', #317, #310, #319, .T.);
#317 = VERTEX_POINT('', #318);
#318 = CARTESIAN_POINT('', (337.5, 37.5, -37.5));
#319 = B_SPLINE_CURVE_WITH_KNOTS('', 1, (#320, #321), .UNSPECIFIED., .F., .U., (2, 2), (0., 30.), .UNSPECIFIED.);
#320 = CARTESIAN_POINT('', (337.5, 37.5, -37.5));
#321 = CARTESIAN_POINT('', (337.5, 37.5, 37.5));
#322 = ORIENTED_EDGE('', *, *, #323, .F.);
#323 = EDGE_CURVE('', #301, #317, #324, .T.);
#324 = B_SPLINE_CURVE_WITH_KNOTS('', 1, (#325, #326), .UNSPECIFIED., .F., .U., (2, 2), (0., 30.), .UNSPECIFIED.);
#325 = CARTESIAN_POINT('', (262.5, 37.5, -37.5));
#326 = CARTESIAN_POINT('', (337.5, 37.5, -37.5));
#327 = B_SPLINE_SURFACE_WITH_KNOTS('', 1, 1, ((#328, #329), (#330, #331)), .UNSPECIFIED., .F., .F., .U., (2, 2), (2, 2), (0., 30.), (0., 30.), .UNSPECIFIED.);
#328 = CARTESIAN_POINT('', (262.5, 37.5, -37.5));
#329 = CARTESIAN_POINT('', (337.5, 37.5, -37.5));
#330 = CARTESIAN_POINT('', (262.5, 37.5, 37.5));
#331 = CARTESIAN_POINT('', (337.5, 37.5, 37.5));
#332 = ADVANCED_FACE('', (#333), #355, .T.);
#333 = FACE_OUTER_BOUND('', #334, .T.);
#334 = EDGE_LOOP('', (#335, #342, #349, #354));
#335 = ORIENTED_EDGE('', *, *, #336, .F.);
#336 = EDGE_CURVE('', #337, #303, #339, .T.);
#337 = VERTEX_POINT('', #338);
#338 = CARTESIAN_POINT('', (262.5, -37.5, 37.5));
#339 = B_SPLINE_CURVE_WITH_KNOTS('', 1, (#340, #341), .UNSPECIFIED., .F., .U., (2, 2), (0., 30.), .UNSPECIFIED.);
#340 = CARTESIAN_POINT('', (262.5, -37.5, 37.5));
#341 = CARTESIAN_POINT('', (262.5, 37.5, 37.5));
#342 = ORIENTED_EDGE('', *, *, #343, .T.);
#343 = EDGE_CURVE('', #337, #344, #346, .T.);
#344 = VERTEX_POINT('', #345);
#345 = CARTESIAN_POINT('', (337.5, -37.5, 37.5));
#346 = B_SPLINE_CURVE_WITH_KNOTS('', 1, (#347, #348), .UNSPECIFIED., .F., .U., (2, 2), (0., 30.), .UNSPECIFIED.);
#347 = CARTESIAN_POINT('', (262.5, -37.5, 37.5));
#348 = CARTESIAN_POINT('', (337.5, -37.5, 37.5));
#349 = ORIENTED_EDGE('', *, *, #350, .T.);
#350 = EDGE_CURVE('', #344, #310, #351, .T.);
#351 = B_SPLINE_CURVE_WITH_KNOTS('', 1, (#352, #353), .UNSPECIFIED., .F., .U., (2, 2), (0., 30.), .UNSPECIFIED.);
#352 = CARTESIAN_POINT('', (337.5, -37.5, 37.5));
#353 = CARTESIAN_POINT('', (337.5, 37.5, 37.5));
#354 = ORIENTED_EDGE('', *, *, #309, .F.);
#355 = B_SPLINE_SURFACE_WITH_KNOTS('', 1, 1, ((#356, #357), (#358, #359)), .UNSPECIFIED., .F., .F., .U., (2, 2), (2, 2), (0., 30.), (0., 30.), .UNSPECIFIED.);
#356 = CARTESIAN_POINT('', (262.5, -37.5, 37.5));
#357 = CARTESIAN_POINT('', (262.5, 37.5, 37.5));
#358 = CARTESIAN_POINT('', (337.5, -37.5, 37.5));
#359 = CARTESIAN_POINT('', (337.5, 37.5, 37.5));
#360 = ADVANCED_FACE('', (#361), #383, .T.);
#361 = FACE_OUTER_BOUND('', #362, .T.);
#362 = EDGE_LOOP('', (#363, #370, #377, #382));
#363 = ORIENTED_EDGE('', *, *, #364, .F.);
#364 = EDGE_CURVE('', #365, #337, #367, .T.);
#365 = VERTEX_POINT('', #366);
#366 = CARTESIAN_POINT('', (262.5, -37.5, -37.5));
#367 = B_SPLINE_CURVE_WITH_KNOTS('', 1, (#368, #369), .UNSPECIFIED., .F., .U., (2, 2), (0., 30.), .UNSPECIFIED.);
#368 = CARTESIAN_POINT('', (262.5, -37.5, -37.5));
#369 = CARTESIAN_POINT('', (262.5, -37.5, 37.5));
#370 = ORIENTED_EDGE('', *, *, #371, .T.);
#371 = EDGE_CURVE('', #365, #372, #374, .T.);
#372 = VERTEX_POINT('', #373);
#373 = CARTESIAN_POINT('', (337.5, -37.5, -37.5));
#374 = B_SPLINE_CURVE_WITH_KNOTS('', 1, (#375, #376), .UNSPECIFIED., .F., .U., (2, 2), (0., 30.), .UNSPECIFIED.);
#375 = CARTESIAN_POINT('', (262.5, -37.5, -37.5));
#376 = CARTESIAN_POINT('', (337.5, -37.5, -37.5));
#377 = ORIENTED_EDGE('', *, *, #378, .T.);
#378 = EDGE_CURVE('', #372, #344, #379, .T.);
#379 = B_SPLINE_CURVE_WITH_KNOTS('', 1, (#380, #381), .UNSPECIFIED., .F., .U., (2, 2), (0., 30.), .UNSPECIFIED.);
#380 = CARTESIAN_POINT('', (337.5, -37.5, -37.5));
#381 = CARTESIAN_POINT('', (337.5, -37.5, 37.5));
#382 = ORIENTED_EDGE('', *, *, #343, .F.);
#383 = B_SPLINE_SURFACE_WITH_KNOTS('', 1, 1, ((#384, #385), (#386, #387)), .UNSPECIFIED., .F., .F., .U., (2, 2), (2, 2), (0., 30.), (0., 30.), .UNSPECIFIED.);
#384 = CARTESIAN_POINT('', (262.5, -37.5, -37.5));
#385 = CARTESIAN_POINT('', (262.5, -37.5, 37.5));
#386 = CARTESIAN_POINT('', (337.5, -37.5, -37.5));
#387 = CARTESIAN_POINT('', (337.5, -37.5, 37.5));
#388 = ADVANCED_FACE('', (#389), #403, .T.);
#389 = FACE_OUTER_BOUND('', #390, .T.);
#390 = EDGE_LOOP('', (#391, #396, #397, #402));
#391 = ORIENTED_EDGE('', *, *, #392, .T.);
#392 = EDGE_CURVE('', #365, #301, #393, .T.);
#393 = B_SPLINE_CURVE_WITH_KNOTS('', 1, (#394, #395), .UNSPECIFIED., .F., .U., (2, 2), (0., 30.), .UNSPECIFIED.);
#394 = CARTESIAN_POINT('', (262.5, -37.5, -37.5));
#395 = CARTESIAN_POINT('', (262.5, 37.5, -37.5));
#396 = ORIENTED_EDGE('', *, *, #323, .T.);
#397 = ORIENTED_EDGE('', *, *, #398, .F.);
#398 = EDGE_CURVE('', #372, #317, #399, .T.);
#399 = B_SPLINE_CURVE_WITH_KNOTS('', 1, (#400, #401), .UNSPECIFIED., .F., .U., (2, 2), (0., 30.), .UNSPECIFIED.);
#400 = CARTESIAN_POINT('', (337.5, -37.5, -37.5));
#401 = CARTESIAN_POINT('', (337.5, 37.5, -37.5));
#402 = ORIENTED_EDGE('', *, *, #371, .F.);
#403 = B_SPLINE_SURFACE_WITH_KNOTS('', 1, 1, ((#404, #405), (#406, #407)), .UNSPECIFIED., .F., .F., .U., (2, 2), (2, 2), (0., 30.), (0., 30.), .UNSPECIFIED.);
#404 = CARTESIAN_POINT('', (262.5, -37.5, -37.5));
#405 = CARTESIAN_POINT('', (337.5, -37.5, -37.5));
#406 = CARTESIAN_POINT('', (262.5, 37.5, -37.5));
#407 = CARTESIAN_POINT('', (337.5, 37.5, -37.5));
#408 = ADVANCED_FACE('', (#409), #415, .T.);
#409 = FACE_OUTER_BOUND('', #410, .T.);
#410 = EDGE_LOOP('', (#411, #412, #413, #414));
#411 = ORIENTED_EDGE('', *, *, #378, .F.);
#412 = ORIENTED_EDGE('', *, *, #398, .T.);
#413 = ORIENTED_EDGE('', *, *, #316, .T.);
#414 = ORIENTED_EDGE('', *, *, #350, .F.);
#415 = B_SPLINE_SURFACE_WITH_KNOTS('', 1, 1, ((#416, #417), (#418, #419)), .UNSPECIFIED., .F., .F., .U., (2, 2), (2, 2), (0., 30.), (0., 30.), .UNSPECIFIED.);
#416 = CARTESIAN_POINT('', (337.5, -37.5, -37.5));
#417 = CARTESIAN_POINT('', (337.5, -37.5, 37.5));
#418 = CARTESIAN_POINT('', (337.5, 37.5, -37.5));
#419 = CARTESIAN_POINT('', (337.5, 37.5, 37.5));
#420 = ADVANCED_FACE('', (#421), #427, .T.);
#421 = FACE_OUTER_BOUND('', #422, .T.);
#422 = EDGE_LOOP('', (#423, #424, #425, #426));
#423 = ORIENTED_EDGE('', *, *, #364, .T.);
#424 = ORIENTED_EDGE('', *, *, #336, .T.);
#425 = ORIENTED_EDGE('', *, *, #300, .F.);
#426 = ORIENTED_EDGE('', *, *, #392, .F.);
#427 = B_SPLINE_SURFACE_WITH_KNOTS('', 1, 1, ((#428, #429), (#430, #431)), .UNSPECIFIED., .F., .F., .U., (2, 2), (2, 2), (0., 30.), (0., 30.), .UNSPECIFIED.);
#428 = CARTESIAN_POINT('', (262.5, -37.5, -37.5));
#429 = CARTESIAN_POINT('', (262.5, 37.5, -37.5));
#430 = CARTESIAN_POINT('', (262.5, -37.5, 37.5));
#431 = CARTESIAN_POINT('', (262.5, 37.5, 37.5));
#432 = PRESENTATION_STYLE_ASSIGNMENT((#433));
#433 = SURFACE_STYLE_USAGE(.POSITIVE., #434);
#434 = SURFACE_SIDE_STYLE('', (#435));
#435 = SURFACE_STYLE_FILL_AREA(#436);
#436 = FILL_AREA_STYLE('', (#437));
#437 = FILL_AREA_STYLE_COLOUR('', #438);
#438 = COLOUR_RGB('', 0.50196078431373, 0.50196078431373, 0.50196078431373);
#439 = STYLED_ITEM('', (#432), #294);
#440 = MANIFOLD_SOLID_BREP('Solid2', #441);
#441 = CLOSED_SHELL('', (#442, #478, #506, #534, #554, #566));
#442 = ADVANCED_FACE('', (#443), #473, .T.);
#443 = FACE_OUTER_BOUND('', #444, .T.);
#444 = EDGE_LOOP('', (#445, #454, #461, #468));
#445 = ORIENTED_EDGE('', *, *, #446, .T.);
#446 = EDGE_CURVE('', #447, #449, #451, .T.);
#447 = VERTEX_POINT('', #448);
#448 = CARTESIAN_POINT('', (54.945, 4.995, -4.995));
#449 = VERTEX_POINT('', #450);
#450 = CARTESIAN_POINT('', (54.945, 4.995, 4.995));
#451 = B_SPLINE_CURVE_WITH_KNOTS('', 1, (#452, #453), .UNSPECIFIED., .F., .U., (2, 2), (0., 30.), .UNSPECIFIED.);
#452 = CARTESIAN_POINT('', (54.945, 4.995, -4.995));
#453 = CARTESIAN_POINT('', (54.945, 4.995, 4.995));
#454 = ORIENTED_EDGE('', *, *, #455, .T.);
#455 = EDGE_CURVE('', #449, #456, #458, .T.);
#456 = VERTEX_POINT('', #457);
#457 = CARTESIAN_POINT('', (64.935, 4.995, 4.995));
#458 = B_SPLINE_CURVE_WITH_KNOTS('', 1, (#459, #460), .UNSPECIFIED., .F., .U., (2, 2), (0., 30.), .UNSPECIFIED.);
#459 = CARTESIAN_POINT('', (54.945, 4.995, 4.995));
#460 = CARTESIAN_POINT('', (64.935, 4.995, 4.995));
#461 = ORIENTED_EDGE('', *, *, #462, .F.);
#462 = EDGE_CURVE('', #463, #456, #465, .T.);
#463 = VERTEX_POINT('', #464);
#464 = CARTESIAN_POINT('', (64.935, 4.995, -4.995));
#465 = B_SPLINE_CURVE_WITH_KNOTS('', 1, (#466, #467), .UNSPECIFIED., .F., .U., (2, 2), (0., 30.), .UNSPECIFIED.);
#466 = CARTESIAN_POINT('', (64.935, 4.995, -4.995));
#467 = CARTESIAN_POINT('', (64.935, 4.995, 4.995));
#468 = ORIENTED_EDGE('', *, *, #469, .F.);
#469 = EDGE_CURVE('', #447, #463, #470, .T.);
#470 = B_SPLINE_CURVE_WITH_KNOTS('', 1, (#471, #472), .UNSPECIFIED., .F., .U., (2, 2), (0., 30.), .UNSPECIFIED.);
#471 = CARTESIAN_POINT('', (54.945, 4.995, -4.995));
#472 = CARTESIAN_POINT('', (64.935, 4.995, -4.995));
#473 = B_SPLINE_SURFACE_WITH_KNOTS('', 1, 1, ((#474, #475), (#476, #477)), .UNSPECIFIED., .F., .F., .U., (2, 2), (2, 2), (0., 30.), (0., 30.), .UNSPECIFIED.);
#474 = CARTESIAN_POINT('', (54.945, 4.995, -4.995));
#475 = CARTESIAN_POINT('', (64.935, 4.995, -4.995));
#476 = CARTESIAN_POINT('', (54.945, 4.995, 4.995));
#477 = CARTESIAN_POINT('', (64.935, 4.995, 4.995));
#478 = ADVANCED_FACE('', (#479), #501, .T.);
#479 = FACE_OUTER_BOUND('', #480, .T.);
#480 = EDGE_LOOP('', (#481, #488, #495, #500));
#481 = ORIENTED_EDGE('', *, *, #482, .F.);
#482 = EDGE_CURVE('', #483, #449, #485, .T.);
#483 = VERTEX_POINT('', #484);
#484 = CARTESIAN_POINT('', (54.945, -4.995, 4.995));
#485 = B_SPLINE_CURVE_WITH_KNOTS('', 1, (#486, #487), .UNSPECIFIED., .F., .U., (2, 2), (0., 30.), .UNSPECIFIED.);
#486 = CARTESIAN_POINT('', (54.945, -4.995, 4.995));
#487 = CARTESIAN_POINT('', (54.945, 4.995, 4.995));
#488 = ORIENTED_EDGE('', *, *, #489, .T.);
#489 = EDGE_CURVE('', #483, #490, #492, .T.);
#490 = VERTEX_POINT('', #491);
#491 = CARTESIAN_POINT('', (64.935, -4.995, 4.995));
#492 = B_SPLINE_CURVE_WITH_KNOTS('', 1, (#493, #494), .UNSPECIFIED., .F., .U., (2, 2), (0., 30.), .UNSPECIFIED.);
#493 = CARTESIAN_POINT('', (54.945, -4.995, 4.995));
#494 = CARTESIAN_POINT('', (64.935, -4.995, 4.995));
#495 = ORIENTED_EDGE('', *, *, #496, .T.);
#496 = EDGE_CURVE('', #490, #456, #497, .T.);
#497 = B_SPLINE_CURVE_WITH_KNOTS('', 1, (#498, #499), .UNSPECIFIED., .F., .U., (2, 2), (0., 30.), .UNSPECIFIED.);
#498 = CARTESIAN_POINT('', (64.935, -4.995, 4.995));
#499 = CARTESIAN_POINT('', (64.935, 4.995, 4.995));
#500 = ORIENTED_EDGE('', *, *, #455, .F.);
#501 = B_SPLINE_SURFACE_WITH_KNOTS('', 1, 1, ((#502, #503), (#504, #505)), .UNSPECIFIED., .F., .F., .U., (2, 2), (2, 2), (0., 30.), (0., 30.), .UNSPECIFIED.);
#502 = CARTESIAN_POINT('', (54.945, -4.995, 4.995));
#503 = CARTESIAN_POINT('', (54.945, 4.995, 4.995));
#504 = CARTESIAN_POINT('', (64.935, -4.995, 4.995));
#505 = CARTESIAN_POINT('', (64.935, 4.995, 4.995));
#506 = ADVANCED_FACE('', (#507), #529, .T.);
#507 = FACE_OUTER_BOUND('', #508, .T.);
#508 = EDGE_LOOP('', (#509, #516, #523, #528));
#509 = ORIENTED_EDGE('', *, *, #510, .F.);
#510 = EDGE_CURVE('', #511, #483, #513, .T.);
#511 = VERTEX_POINT('', #512);
#512 = CARTESIAN_POINT('', (54.945, -4.995, -4.995));
#513 = B_SPLINE_CURVE_WITH_KNOTS('', 1, (#514, #515), .UNSPECIFIED., .F., .U., (2, 2), (0., 30.), .UNSPECIFIED.);
#514 = CARTESIAN_POINT('', (54.945, -4.995, -4.995));
#515 = CARTESIAN_POINT('', (54.945, -4.995, 4.995));
#516 = ORIENTED_EDGE('', *, *, #517, .T.);
#517 = EDGE_CURVE('', #511, #518, #520, .T.);
#518 = VERTEX_POINT('', #519);
#519 = CARTESIAN_POINT('', (64.935, -4.995, -4.995));
#520 = B_SPLINE_CURVE_WITH_KNOTS('', 1, (#521, #522), .UNSPECIFIED., .F., .U., (2, 2), (0., 30.), .UNSPECIFIED.);
#521 = CARTESIAN_POINT('', (54.945, -4.995, -4.995));
#522 = CARTESIAN_POINT('', (64.935, -4.995, -4.995));
#523 = ORIENTED_EDGE('', *, *, #524, .T.);
#524 = EDGE_CURVE('', #518, #490, #525, .T.);
#525 = B_SPLINE_CURVE_WITH_KNOTS('', 1, (#526, #527), .UNSPECIFIED., .F., .U., (2, 2), (0., 30.), .UNSPECIFIED.);
#526 = CARTESIAN_POINT('', (64.935, -4.995, -4.995));
#527 = CARTESIAN_POINT('', (64.935, -4.995, 4.995));
#528 = ORIENTED_EDGE('', *, *, #489, .F.);
#529 = B_SPLINE_SURFACE_WITH_KNOTS('', 1, 1, ((#530, #531), (#532, #533)), .UNSPECIFIED., .F., .F., .U., (2, 2), (2, 2), (0., 30.), (0., 30.), .UNSPECIFIED.);
#530 = CARTESIAN_POINT('', (54.945, -4.995, -4.995));
#531 = CARTESIAN_POINT('', (54.945, -4.995, 4.995));
#532 = CARTESIAN_POINT('', (64.935, -4.995, -4.995));
#533 = CARTESIAN_POINT('', (64.935, -4.995, 4.995));
#534 = ADVANCED_FACE('', (#535), #549, .T.);
#535 = FACE_OUTER_BOUND('', #536, .T.);
#536 = EDGE_LOOP('', (#537, #542, #543, #548));
#537 = ORIENTED_EDGE('', *, *, #538, .T.);
#538 = EDGE_CURVE('', #511, #447, #539, .T.);
#539 = B_SPLINE_CURVE_WITH_KNOTS('', 1, (#540, #541), .UNSPECIFIED., .F., .U., (2, 2), (0., 30.), .UNSPECIFIED.);
#540 = CARTESIAN_POINT('', (54.945, -4.995, -4.995));
#541 = CARTESIAN_POINT('', (54.945, 4.995, -4.995));
#542 = ORIENTED_EDGE('', *, *, #469, .T.);
#543 = ORIENTED_EDGE('', *, *, #544, .F.);
#544 = EDGE_CURVE('', #518, #463, #545, .T.);
#545 = B_SPLINE_CURVE_WITH_KNOTS('', 1, (#546, #547), .UNSPECIFIED., .F., .U., (2, 2), (0., 30.), .UNSPECIFIED.);
#546 = CARTESIAN_POINT('', (64.935, -4.995, -4.995));
#547 = CARTESIAN_POINT('', (64.935, 4.995, -4.995));
#548 = ORIENTED_EDGE('', *, *, #517, .F.);
#549 = B_SPLINE_SURFACE_WITH_KNOTS('', 1, 1, ((#550, #551), (#552, #553)), .UNSPECIFIED., .F., .F., .U., (2, 2), (2, 2), (0., 30.), (0., 30.), .UNSPECIFIED.);
#550 = CARTESIAN_POINT('', (54.945, -4.995, -4.995));
#551 = CARTESIAN_POINT('', (64.935, -4.995, -4.995));
#552 = CARTESIAN_POINT('', (54.945, 4.995, -4.995));
#553 = CARTESIAN_POINT('', (64.935, 4.995, -4.995));
#554 = ADVANCED_FACE('', (#555), #561, .T.);
#555 = FACE_OUTER_BOUND('', #556, .T.);
#556 = EDGE_LOOP('', (#557, #558, #559, #560));
#557 = ORIENTED_EDGE('', *, *, #524, .F.);
#558 = ORIENTED_EDGE('', *, *, #544, .T.);
#559 = ORIENTED_EDGE('', *, *, #462, .T.);
#560 = ORIENTED_EDGE('', *, *, #496, .F.);
#561 = B_SPLINE_SURFACE_WITH_KNOTS('', 1, 1, ((#562, #563), (#564, #565)), .UNSPECIFIED., .F., .F., .U., (2, 2), (2, 2), (0., 30.), (0., 30.), .UNSPECIFIED.);
#562 = CARTESIAN_POINT('', (64.935, -4.995, -4.995));
#563 = CARTESIAN_POINT('', (64.935, -4.995, 4.995));
#564 = CARTESIAN_POINT('', (64.935, 4.995, -4.995));
#565 = CARTESIAN_POINT('', (64.935, 4.995, 4.995));
#566 = ADVANCED_FACE('', (#567), #573, .T.);
#567 = FACE_OUTER_BOUND('', #568, .T.);
#568 = EDGE_LOOP('', (#569, #570, #571, #572));
#569 = ORIENTED_EDGE('', *, *, #510, .T.);
#570 = ORIENTED_EDGE('', *, *, #482, .T.);
#571 = ORIENTED_EDGE('', *, *, #446, .F.);
#572 = ORIENTED_EDGE('', *, *, #538, .F.);
#573 = B_SPLINE_SURFACE_WITH_KNOTS('', 1, 1, ((#574, #575), (#576, #577)), .UNSPECIFIED., .F., .F., .U., (2, 2), (2, 2), (0., 30.), (0., 30.), .UNSPECIFIED.);
#574 = CARTESIAN_POINT('', (54.945, -4.995, -4.995));
#575 = CARTESIAN_POINT('', (54.945, 4.995, -4.995));
#576 = CARTESIAN_POINT('', (54.945, -4.995, 4.995));
#577 = CARTESIAN_POINT('', (54.945, 4.995, 4.995));
#578 = PRESENTATION_STYLE_ASSIGNMENT((#579));
#579 = SURFACE_STYLE_USAGE(.POSITIVE., #580);
#580 = SURFACE_SIDE_STYLE('', (#581));
#581 = SURFACE_STYLE_FILL_AREA(#582);
#582 = FILL_AREA_STYLE('', (#583));
#583 = FILL_AREA_STYLE_COLOUR('', #584);
#584 = COLOUR_RGB('', 0.50196078431373, 0.50196078431373, 0.50196078431373);
#585 = STYLED_ITEM('', (#578), #440);
#586 = CARTESIAN_POINT('Origin', (0., 0., 0.));
#587 = GEOMETRIC_SET('', (#586));
#588 = (
   GEOMETRIC_REPRESENTATION_CONTEXT (3)
   GLOBAL_UNCERTAINTY_ASSIGNED_CONTEXT ((#590))
   GLOBAL_UNIT_ASSIGNED_CONTEXT ((#589, #591, #592))
   REPRESENTATION_CONTEXT ('', '3D')
);
#589 = (
   LENGTH_UNIT ()
   NAMED_UNIT (*)
   SI_UNIT (.MILLI., .METRE.)
);
#590 = UNCERTAINTY_MEASURE_WITH_UNIT(LENGTH_MEASURE(1.E-6), #589, 'DISTANCE_ACCURACY_VALUE', '');
#591 = (
   NAMED_UNIT (*)
   SI_UNIT ($, .STERADIAN.)
   SOLID_ANGLE_UNIT ()
);
#592 = (
   NAMED_UNIT (*)
   PLANE_ANGLE_UNIT ()
   SI_UNIT ($, .RADIAN.)
);
#593 = SHAPE_REPRESENTATION('', (#608), #588);
#594 = PRODUCT_DEFINITION_SHAPE('', '', #595);
#595 = PRODUCT_DEFINITION('', '', #598, #602);
#596 = APPLICATION_CONTEXT('configuration controlled 3D designs of mechanical parts and assemblies');
#597 = APPLICATION_PROTOCOL_DEFINITION('International Standard', 'automotive_design', 2002, #596);
#598 = PRODUCT_DEFINITION_FORMATION_WITH_SPECIFIED_SOURCE('', '', #599, .NOT_KNOWN.);
#599 = PRODUCT('ScaleFractionalTest', 'ScaleFractionalTest', '', (#600));
#600 = PRODUCT_CONTEXT('', #596, 'mechanical');
#601 = PRODUCT_RELATED_PRODUCT_CATEGORY('detail', '', (#599));
#602 = PRODUCT_DEFINITION_CONTEXT('part definition', #596, 'design');
#603 = SHAPE_DEFINITION_REPRESENTATION(#594, #593);
#604 = SHAPE_REPRESENTATION_RELATIONSHIP('', '', #593, #605);
#605 = SHAPE_REPRESENTATION('', (#587), #588);
#606 = SHAPE_REPRESENTATION_RELATIONSHIP('', '', #593, #607);
#607 = ADVANCED_BREP_SHAPE_REPRESENTATION('', (#1, #148, #294, #440), #588);
#608 = AXIS2_PLACEMENT_3D('', #609, #610, #611);
#609 = CARTESIAN_POINT('', (0., 0., 0.));
#610 = DIRECTION('', (0., 0., 1.));
#611 = DIRECTION('', (1., 0., 0.));
ENDSEC;
END-ISO-10303-21;
