ISO-10303-21;
HEADER;
FILE_DESCRIPTION(('STEP'), '1');
FILE_NAME('TwoDirections', '2026-04-20T16:18:28', (''), (''), 'Express 3.1.2.0', 'Express Tool', 'Unknown');
FILE_SCHEMA(('AUTOMOTIVE_DESIGN'));
ENDSEC;

DATA;
#1 = MANIFOLD_SOLID_BREP('LP_grid_0', #2);
#2 = CLOSED_SHELL('', (#3, #39, #67, #95, #115, #127));
#3 = ADVANCED_FACE('', (#4), #34, .T.);
#4 = FACE_OUTER_BOUND('', #5, .T.);
#5 = EDGE_LOOP('', (#6, #15, #22, #29));
#6 = ORIENTED_EDGE('', *, *, #7, .T.);
#7 = EDGE_CURVE('', #8, #10, #12, .T.);
#8 = VERTEX_POINT('', #9);
#9 = CARTESIAN_POINT('', (0., 15., 0.));
#10 = VERTEX_POINT('', #11);
#11 = CARTESIAN_POINT('', (0., 15., 20.));
#12 = B_SPLINE_CURVE_WITH_KNOTS('', 1, (#13, #14), .UNSPECIFIED., .F., .U., (2, 2), (0., 20.), .UNSPECIFIED.);
#13 = CARTESIAN_POINT('', (0., 15., 0.));
#14 = CARTESIAN_POINT('', (0., 15., 20.));
#15 = ORIENTED_EDGE('', *, *, #16, .T.);
#16 = EDGE_CURVE('', #10, #17, #19, .T.);
#17 = VERTEX_POINT('', #18);
#18 = CARTESIAN_POINT('', (15., 15., 20.));
#19 = B_SPLINE_CURVE_WITH_KNOTS('', 1, (#20, #21), .UNSPECIFIED., .F., .U., (2, 2), (0., 15.), .UNSPECIFIED.);
#20 = CARTESIAN_POINT('', (0., 15., 20.));
#21 = CARTESIAN_POINT('', (15., 15., 20.));
#22 = ORIENTED_EDGE('', *, *, #23, .F.);
#23 = EDGE_CURVE('', #24, #17, #26, .T.);
#24 = VERTEX_POINT('', #25);
#25 = CARTESIAN_POINT('', (15., 15., 0.));
#26 = B_SPLINE_CURVE_WITH_KNOTS('', 1, (#27, #28), .UNSPECIFIED., .F., .U., (2, 2), (0., 20.), .UNSPECIFIED.);
#27 = CARTESIAN_POINT('', (15., 15., 0.));
#28 = CARTESIAN_POINT('', (15., 15., 20.));
#29 = ORIENTED_EDGE('', *, *, #30, .F.);
#30 = EDGE_CURVE('', #8, #24, #31, .T.);
#31 = B_SPLINE_CURVE_WITH_KNOTS('', 1, (#32, #33), .UNSPECIFIED., .F., .U., (2, 2), (0., 15.), .UNSPECIFIED.);
#32 = CARTESIAN_POINT('', (0., 15., 0.));
#33 = CARTESIAN_POINT('', (15., 15., 0.));
#34 = B_SPLINE_SURFACE_WITH_KNOTS('', 1, 1, ((#35, #36), (#37, #38)), .UNSPECIFIED., .F., .F., .U., (2, 2), (2, 2), (0., 20.), (0., 15.), .UNSPECIFIED.);
#35 = CARTESIAN_POINT('', (0., 15., 0.));
#36 = CARTESIAN_POINT('', (15., 15., 0.));
#37 = CARTESIAN_POINT('', (0., 15., 20.));
#38 = CARTESIAN_POINT('', (15., 15., 20.));
#39 = ADVANCED_FACE('', (#40), #62, .T.);
#40 = FACE_OUTER_BOUND('', #41, .T.);
#41 = EDGE_LOOP('', (#42, #49, #56, #61));
#42 = ORIENTED_EDGE('', *, *, #43, .F.);
#43 = EDGE_CURVE('', #44, #10, #46, .T.);
#44 = VERTEX_POINT('', #45);
#45 = CARTESIAN_POINT('', (0., 0., 20.));
#46 = B_SPLINE_CURVE_WITH_KNOTS('', 1, (#47, #48), .UNSPECIFIED., .F., .U., (2, 2), (0., 15.), .UNSPECIFIED.);
#47 = CARTESIAN_POINT('', (0., 0., 20.));
#48 = CARTESIAN_POINT('', (0., 15., 20.));
#49 = ORIENTED_EDGE('', *, *, #50, .T.);
#50 = EDGE_CURVE('', #44, #51, #53, .T.);
#51 = VERTEX_POINT('', #52);
#52 = CARTESIAN_POINT('', (15., 0., 20.));
#53 = B_SPLINE_CURVE_WITH_KNOTS('', 1, (#54, #55), .UNSPECIFIED., .F., .U., (2, 2), (0., 15.), .UNSPECIFIED.);
#54 = CARTESIAN_POINT('', (0., 0., 20.));
#55 = CARTESIAN_POINT('', (15., 0., 20.));
#56 = ORIENTED_EDGE('', *, *, #57, .T.);
#57 = EDGE_CURVE('', #51, #17, #58, .T.);
#58 = B_SPLINE_CURVE_WITH_KNOTS('', 1, (#59, #60), .UNSPECIFIED., .F., .U., (2, 2), (0., 15.), .UNSPECIFIED.);
#59 = CARTESIAN_POINT('', (15., 0., 20.));
#60 = CARTESIAN_POINT('', (15., 15., 20.));
#61 = ORIENTED_EDGE('', *, *, #16, .F.);
#62 = B_SPLINE_SURFACE_WITH_KNOTS('', 1, 1, ((#63, #64), (#65, #66)), .UNSPECIFIED., .F., .F., .U., (2, 2), (2, 2), (0., 15.), (0., 15.), .UNSPECIFIED.);
#63 = CARTESIAN_POINT('', (0., 0., 20.));
#64 = CARTESIAN_POINT('', (0., 15., 20.));
#65 = CARTESIAN_POINT('', (15., 0., 20.));
#66 = CARTESIAN_POINT('', (15., 15., 20.));
#67 = ADVANCED_FACE('', (#68), #90, .T.);
#68 = FACE_OUTER_BOUND('', #69, .T.);
#69 = EDGE_LOOP('', (#70, #77, #84, #89));
#70 = ORIENTED_EDGE('', *, *, #71, .F.);
#71 = EDGE_CURVE('', #72, #44, #74, .T.);
#72 = VERTEX_POINT('', #73);
#73 = CARTESIAN_POINT('', (0., 0., 0.));
#74 = B_SPLINE_CURVE_WITH_KNOTS('', 1, (#75, #76), .UNSPECIFIED., .F., .U., (2, 2), (0., 20.), .UNSPECIFIED.);
#75 = CARTESIAN_POINT('', (0., 0., 0.));
#76 = CARTESIAN_POINT('', (0., 0., 20.));
#77 = ORIENTED_EDGE('', *, *, #78, .T.);
#78 = EDGE_CURVE('', #72, #79, #81, .T.);
#79 = VERTEX_POINT('', #80);
#80 = CARTESIAN_POINT('', (15., 0., 0.));
#81 = B_SPLINE_CURVE_WITH_KNOTS('', 1, (#82, #83), .UNSPECIFIED., .F., .U., (2, 2), (0., 15.), .UNSPECIFIED.);
#82 = CARTESIAN_POINT('', (0., 0., 0.));
#83 = CARTESIAN_POINT('', (15., 0., 0.));
#84 = ORIENTED_EDGE('', *, *, #85, .T.);
#85 = EDGE_CURVE('', #79, #51, #86, .T.);
#86 = B_SPLINE_CURVE_WITH_KNOTS('', 1, (#87, #88), .UNSPECIFIED., .F., .U., (2, 2), (0., 20.), .UNSPECIFIED.);
#87 = CARTESIAN_POINT('', (15., 0., 0.));
#88 = CARTESIAN_POINT('', (15., 0., 20.));
#89 = ORIENTED_EDGE('', *, *, #50, .F.);
#90 = B_SPLINE_SURFACE_WITH_KNOTS('', 1, 1, ((#91, #92), (#93, #94)), .UNSPECIFIED., .F., .F., .U., (2, 2), (2, 2), (0., 15.), (0., 20.), .UNSPECIFIED.);
#91 = CARTESIAN_POINT('', (0., 0., 0.));
#92 = CARTESIAN_POINT('', (0., 0., 20.));
#93 = CARTESIAN_POINT('', (15., 0., 0.));
#94 = CARTESIAN_POINT('', (15., 0., 20.));
#95 = ADVANCED_FACE('', (#96), #110, .T.);
#96 = FACE_OUTER_BOUND('', #97, .T.);
#97 = EDGE_LOOP('', (#98, #103, #104, #109));
#98 = ORIENTED_EDGE('', *, *, #99, .T.);
#99 = EDGE_CURVE('', #72, #8, #100, .T.);
#100 = B_SPLINE_CURVE_WITH_KNOTS('', 1, (#101, #102), .UNSPECIFIED., .F., .U., (2, 2), (0., 15.), .UNSPECIFIED.);
#101 = CARTESIAN_POINT('', (0., 0., 0.));
#102 = CARTESIAN_POINT('', (0., 15., 0.));
#103 = ORIENTED_EDGE('', *, *, #30, .T.);
#104 = ORIENTED_EDGE('', *, *, #105, .F.);
#105 = EDGE_CURVE('', #79, #24, #106, .T.);
#106 = B_SPLINE_CURVE_WITH_KNOTS('', 1, (#107, #108), .UNSPECIFIED., .F., .U., (2, 2), (0., 15.), .UNSPECIFIED.);
#107 = CARTESIAN_POINT('', (15., 0., 0.));
#108 = CARTESIAN_POINT('', (15., 15., 0.));
#109 = ORIENTED_EDGE('', *, *, #78, .F.);
#110 = B_SPLINE_SURFACE_WITH_KNOTS('', 1, 1, ((#111, #112), (#113, #114)), .UNSPECIFIED., .F., .F., .U., (2, 2), (2, 2), (0., 15.), (0., 15.), .UNSPECIFIED.);
#111 = CARTESIAN_POINT('', (0., 0., 0.));
#112 = CARTESIAN_POINT('', (15., 0., 0.));
#113 = CARTESIAN_POINT('', (0., 15., 0.));
#114 = CARTESIAN_POINT('', (15., 15., 0.));
#115 = ADVANCED_FACE('', (#116), #122, .T.);
#116 = FACE_OUTER_BOUND('', #117, .T.);
#117 = EDGE_LOOP('', (#118, #119, #120, #121));
#118 = ORIENTED_EDGE('', *, *, #85, .F.);
#119 = ORIENTED_EDGE('', *, *, #105, .T.);
#120 = ORIENTED_EDGE('', *, *, #23, .T.);
#121 = ORIENTED_EDGE('', *, *, #57, .F.);
#122 = B_SPLINE_SURFACE_WITH_KNOTS('', 1, 1, ((#123, #124), (#125, #126)), .UNSPECIFIED., .F., .F., .U., (2, 2), (2, 2), (0., 15.), (0., 20.), .UNSPECIFIED.);
#123 = CARTESIAN_POINT('', (15., 0., 0.));
#124 = CARTESIAN_POINT('', (15., 0., 20.));
#125 = CARTESIAN_POINT('', (15., 15., 0.));
#126 = CARTESIAN_POINT('', (15., 15., 20.));
#127 = ADVANCED_FACE('', (#128), #134, .T.);
#128 = FACE_OUTER_BOUND('', #129, .T.);
#129 = EDGE_LOOP('', (#130, #131, #132, #133));
#130 = ORIENTED_EDGE('', *, *, #71, .T.);
#131 = ORIENTED_EDGE('', *, *, #43, .T.);
#132 = ORIENTED_EDGE('', *, *, #7, .F.);
#133 = ORIENTED_EDGE('', *, *, #99, .F.);
#134 = B_SPLINE_SURFACE_WITH_KNOTS('', 1, 1, ((#135, #136), (#137, #138)), .UNSPECIFIED., .F., .F., .U., (2, 2), (2, 2), (0., 20.), (0., 15.), .UNSPECIFIED.);
#135 = CARTESIAN_POINT('', (0., 0., 0.));
#136 = CARTESIAN_POINT('', (0., 15., 0.));
#137 = CARTESIAN_POINT('', (0., 0., 20.));
#138 = CARTESIAN_POINT('', (0., 15., 20.));
#139 = DRAUGHTING_MODEL('', (#147, #293, #439, #585, #731, #877, #1023, #1169, #1315, #1461, #1607, #1753), #1756);
#140 = PRESENTATION_STYLE_ASSIGNMENT((#141));
#141 = SURFACE_STYLE_USAGE(.POSITIVE., #142);
#142 = SURFACE_SIDE_STYLE('', (#143));
#143 = SURFACE_STYLE_FILL_AREA(#144);
#144 = FILL_AREA_STYLE('', (#145));
#145 = FILL_AREA_STYLE_COLOUR('', #146);
#146 = COLOUR_RGB('', 0.50196078431373, 0.50196078431373, 0.50196078431373);
#147 = STYLED_ITEM('', (#140), #1);
#148 = MANIFOLD_SOLID_BREP('LP_grid_1', #149);
#149 = CLOSED_SHELL('', (#150, #186, #214, #242, #262, #274));
#150 = ADVANCED_FACE('', (#151), #181, .T.);
#151 = FACE_OUTER_BOUND('', #152, .T.);
#152 = EDGE_LOOP('', (#153, #162, #169, #176));
#153 = ORIENTED_EDGE('', *, *, #154, .T.);
#154 = EDGE_CURVE('', #155, #157, #159, .T.);
#155 = VERTEX_POINT('', #156);
#156 = CARTESIAN_POINT('', (30., 15., 0.));
#157 = VERTEX_POINT('', #158);
#158 = CARTESIAN_POINT('', (30., 15., 20.));
#159 = B_SPLINE_CURVE_WITH_KNOTS('', 1, (#160, #161), .UNSPECIFIED., .F., .U., (2, 2), (0., 20.), .UNSPECIFIED.);
#160 = CARTESIAN_POINT('', (30., 15., 0.));
#161 = CARTESIAN_POINT('', (30., 15., 20.));
#162 = ORIENTED_EDGE('', *, *, #163, .T.);
#163 = EDGE_CURVE('', #157, #164, #166, .T.);
#164 = VERTEX_POINT('', #165);
#165 = CARTESIAN_POINT('', (45., 15., 20.));
#166 = B_SPLINE_CURVE_WITH_KNOTS('', 1, (#167, #168), .UNSPECIFIED., .F., .U., (2, 2), (0., 15.), .UNSPECIFIED.);
#167 = CARTESIAN_POINT('', (30., 15., 20.));
#168 = CARTESIAN_POINT('', (45., 15., 20.));
#169 = ORIENTED_EDGE('', *, *, #170, .F.);
#170 = EDGE_CURVE('', #171, #164, #173, .T.);
#171 = VERTEX_POINT('', #172);
#172 = CARTESIAN_POINT('', (45., 15., 0.));
#173 = B_SPLINE_CURVE_WITH_KNOTS('', 1, (#174, #175), .UNSPECIFIED., .F., .U., (2, 2), (0., 20.), .UNSPECIFIED.);
#174 = CARTESIAN_POINT('', (45., 15., 0.));
#175 = CARTESIAN_POINT('', (45., 15., 20.));
#176 = ORIENTED_EDGE('', *, *, #177, .F.);
#177 = EDGE_CURVE('', #155, #171, #178, .T.);
#178 = B_SPLINE_CURVE_WITH_KNOTS('', 1, (#179, #180), .UNSPECIFIED., .F., .U., (2, 2), (0., 15.), .UNSPECIFIED.);
#179 = CARTESIAN_POINT('', (30., 15., 0.));
#180 = CARTESIAN_POINT('', (45., 15., 0.));
#181 = B_SPLINE_SURFACE_WITH_KNOTS('', 1, 1, ((#182, #183), (#184, #185)), .UNSPECIFIED., .F., .F., .U., (2, 2), (2, 2), (0., 20.), (0., 15.), .UNSPECIFIED.);
#182 = CARTESIAN_POINT('', (30., 15., 0.));
#183 = CARTESIAN_POINT('', (45., 15., 0.));
#184 = CARTESIAN_POINT('', (30., 15., 20.));
#185 = CARTESIAN_POINT('', (45., 15., 20.));
#186 = ADVANCED_FACE('', (#187), #209, .T.);
#187 = FACE_OUTER_BOUND('', #188, .T.);
#188 = EDGE_LOOP('', (#189, #196, #203, #208));
#189 = ORIENTED_EDGE('', *, *, #190, .F.);
#190 = EDGE_CURVE('', #191, #157, #193, .T.);
#191 = VERTEX_POINT('', #192);
#192 = CARTESIAN_POINT('', (30., 0., 20.));
#193 = B_SPLINE_CURVE_WITH_KNOTS('', 1, (#194, #195), .UNSPECIFIED., .F., .U., (2, 2), (0., 15.), .UNSPECIFIED.);
#194 = CARTESIAN_POINT('', (30., 0., 20.));
#195 = CARTESIAN_POINT('', (30., 15., 20.));
#196 = ORIENTED_EDGE('', *, *, #197, .T.);
#197 = EDGE_CURVE('', #191, #198, #200, .T.);
#198 = VERTEX_POINT('', #199);
#199 = CARTESIAN_POINT('', (45., 0., 20.));
#200 = B_SPLINE_CURVE_WITH_KNOTS('', 1, (#201, #202), .UNSPECIFIED., .F., .U., (2, 2), (0., 15.), .UNSPECIFIED.);
#201 = CARTESIAN_POINT('', (30., 0., 20.));
#202 = CARTESIAN_POINT('', (45., 0., 20.));
#203 = ORIENTED_EDGE('', *, *, #204, .T.);
#204 = EDGE_CURVE('', #198, #164, #205, .T.);
#205 = B_SPLINE_CURVE_WITH_KNOTS('', 1, (#206, #207), .UNSPECIFIED., .F., .U., (2, 2), (0., 15.), .UNSPECIFIED.);
#206 = CARTESIAN_POINT('', (45., 0., 20.));
#207 = CARTESIAN_POINT('', (45., 15., 20.));
#208 = ORIENTED_EDGE('', *, *, #163, .F.);
#209 = B_SPLINE_SURFACE_WITH_KNOTS('', 1, 1, ((#210, #211), (#212, #213)), .UNSPECIFIED., .F., .F., .U., (2, 2), (2, 2), (0., 15.), (0., 15.), .UNSPECIFIED.);
#210 = CARTESIAN_POINT('', (30., 0., 20.));
#211 = CARTESIAN_POINT('', (30., 15., 20.));
#212 = CARTESIAN_POINT('', (45., 0., 20.));
#213 = CARTESIAN_POINT('', (45., 15., 20.));
#214 = ADVANCED_FACE('', (#215), #237, .T.);
#215 = FACE_OUTER_BOUND('', #216, .T.);
#216 = EDGE_LOOP('', (#217, #224, #231, #236));
#217 = ORIENTED_EDGE('', *, *, #218, .F.);
#218 = EDGE_CURVE('', #219, #191, #221, .T.);
#219 = VERTEX_POINT('', #220);
#220 = CARTESIAN_POINT('', (30., 0., 0.));
#221 = B_SPLINE_CURVE_WITH_KNOTS('', 1, (#222, #223), .UNSPECIFIED., .F., .U., (2, 2), (0., 20.), .UNSPECIFIED.);
#222 = CARTESIAN_POINT('', (30., 0., 0.));
#223 = CARTESIAN_POINT('', (30., 0., 20.));
#224 = ORIENTED_EDGE('', *, *, #225, .T.);
#225 = EDGE_CURVE('', #219, #226, #228, .T.);
#226 = VERTEX_POINT('', #227);
#227 = CARTESIAN_POINT('', (45., 0., 0.));
#228 = B_SPLINE_CURVE_WITH_KNOTS('', 1, (#229, #230), .UNSPECIFIED., .F., .U., (2, 2), (0., 15.), .UNSPECIFIED.);
#229 = CARTESIAN_POINT('', (30., 0., 0.));
#230 = CARTESIAN_POINT('', (45., 0., 0.));
#231 = ORIENTED_EDGE('', *, *, #232, .T.);
#232 = EDGE_CURVE('', #226, #198, #233, .T.);
#233 = B_SPLINE_CURVE_WITH_KNOTS('', 1, (#234, #235), .UNSPECIFIED., .F., .U., (2, 2), (0., 20.), .UNSPECIFIED.);
#234 = CARTESIAN_POINT('', (45., 0., 0.));
#235 = CARTESIAN_POINT('', (45., 0., 20.));
#236 = ORIENTED_EDGE('', *, *, #197, .F.);
#237 = B_SPLINE_SURFACE_WITH_KNOTS('', 1, 1, ((#238, #239), (#240, #241)), .UNSPECIFIED., .F., .F., .U., (2, 2), (2, 2), (0., 15.), (0., 20.), .UNSPECIFIED.);
#238 = CARTESIAN_POINT('', (30., 0., 0.));
#239 = CARTESIAN_POINT('', (30., 0., 20.));
#240 = CARTESIAN_POINT('', (45., 0., 0.));
#241 = CARTESIAN_POINT('', (45., 0., 20.));
#242 = ADVANCED_FACE('', (#243), #257, .T.);
#243 = FACE_OUTER_BOUND('', #244, .T.);
#244 = EDGE_LOOP('', (#245, #250, #251, #256));
#245 = ORIENTED_EDGE('', *, *, #246, .T.);
#246 = EDGE_CURVE('', #219, #155, #247, .T.);
#247 = B_SPLINE_CURVE_WITH_KNOTS('', 1, (#248, #249), .UNSPECIFIED., .F., .U., (2, 2), (0., 15.), .UNSPECIFIED.);
#248 = CARTESIAN_POINT('', (30., 0., 0.));
#249 = CARTESIAN_POINT('', (30., 15., 0.));
#250 = ORIENTED_EDGE('', *, *, #177, .T.);
#251 = ORIENTED_EDGE('', *, *, #252, .F.);
#252 = EDGE_CURVE('', #226, #171, #253, .T.);
#253 = B_SPLINE_CURVE_WITH_KNOTS('', 1, (#254, #255), .UNSPECIFIED., .F., .U., (2, 2), (0., 15.), .UNSPECIFIED.);
#254 = CARTESIAN_POINT('', (45., 0., 0.));
#255 = CARTESIAN_POINT('', (45., 15., 0.));
#256 = ORIENTED_EDGE('', *, *, #225, .F.);
#257 = B_SPLINE_SURFACE_WITH_KNOTS('', 1, 1, ((#258, #259), (#260, #261)), .UNSPECIFIED., .F., .F., .U., (2, 2), (2, 2), (0., 15.), (0., 15.), .UNSPECIFIED.);
#258 = CARTESIAN_POINT('', (30., 0., 0.));
#259 = CARTESIAN_POINT('', (45., 0., 0.));
#260 = CARTESIAN_POINT('', (30., 15., 0.));
#261 = CARTESIAN_POINT('', (45., 15., 0.));
#262 = ADVANCED_FACE('', (#263), #269, .T.);
#263 = FACE_OUTER_BOUND('', #264, .T.);
#264 = EDGE_LOOP('', (#265, #266, #267, #268));
#265 = ORIENTED_EDGE('', *, *, #232, .F.);
#266 = ORIENTED_EDGE('', *, *, #252, .T.);
#267 = ORIENTED_EDGE('', *, *, #170, .T.);
#268 = ORIENTED_EDGE('', *, *, #204, .F.);
#269 = B_SPLINE_SURFACE_WITH_KNOTS('', 1, 1, ((#270, #271), (#272, #273)), .UNSPECIFIED., .F., .F., .U., (2, 2), (2, 2), (0., 15.), (0., 20.), .UNSPECIFIED.);
#270 = CARTESIAN_POINT('', (45., 0., 0.));
#271 = CARTESIAN_POINT('', (45., 0., 20.));
#272 = CARTESIAN_POINT('', (45., 15., 0.));
#273 = CARTESIAN_POINT('', (45., 15., 20.));
#274 = ADVANCED_FACE('', (#275), #281, .T.);
#275 = FACE_OUTER_BOUND('', #276, .T.);
#276 = EDGE_LOOP('', (#277, #278, #279, #280));
#277 = ORIENTED_EDGE('', *, *, #218, .T.);
#278 = ORIENTED_EDGE('', *, *, #190, .T.);
#279 = ORIENTED_EDGE('', *, *, #154, .F.);
#280 = ORIENTED_EDGE('', *, *, #246, .F.);
#281 = B_SPLINE_SURFACE_WITH_KNOTS('', 1, 1, ((#282, #283), (#284, #285)), .UNSPECIFIED., .F., .F., .U., (2, 2), (2, 2), (0., 20.), (0., 15.), .UNSPECIFIED.);
#282 = CARTESIAN_POINT('', (30., 0., 0.));
#283 = CARTESIAN_POINT('', (30., 15., 0.));
#284 = CARTESIAN_POINT('', (30., 0., 20.));
#285 = CARTESIAN_POINT('', (30., 15., 20.));
#286 = PRESENTATION_STYLE_ASSIGNMENT((#287));
#287 = SURFACE_STYLE_USAGE(.POSITIVE., #288);
#288 = SURFACE_SIDE_STYLE('', (#289));
#289 = SURFACE_STYLE_FILL_AREA(#290);
#290 = FILL_AREA_STYLE('', (#291));
#291 = FILL_AREA_STYLE_COLOUR('', #292);
#292 = COLOUR_RGB('', 0.50196078431373, 0.50196078431373, 0.50196078431373);
#293 = STYLED_ITEM('', (#286), #148);
#294 = MANIFOLD_SOLID_BREP('LP_grid_2', #295);
#295 = CLOSED_SHELL('', (#296, #332, #360, #388, #408, #420));
#296 = ADVANCED_FACE('', (#297), #327, .T.);
#297 = FACE_OUTER_BOUND('', #298, .T.);
#298 = EDGE_LOOP('', (#299, #308, #315, #322));
#299 = ORIENTED_EDGE('', *, *, #300, .T.);
#300 = EDGE_CURVE('', #301, #303, #305, .T.);
#301 = VERTEX_POINT('', #302);
#302 = CARTESIAN_POINT('', (60., 15., 0.));
#303 = VERTEX_POINT('', #304);
#304 = CARTESIAN_POINT('', (60., 15., 20.));
#305 = B_SPLINE_CURVE_WITH_KNOTS('', 1, (#306, #307), .UNSPECIFIED., .F., .U., (2, 2), (0., 20.), .UNSPECIFIED.);
#306 = CARTESIAN_POINT('', (60., 15., 0.));
#307 = CARTESIAN_POINT('', (60., 15., 20.));
#308 = ORIENTED_EDGE('', *, *, #309, .T.);
#309 = EDGE_CURVE('', #303, #310, #312, .T.);
#310 = VERTEX_POINT('', #311);
#311 = CARTESIAN_POINT('', (75., 15., 20.));
#312 = B_SPLINE_CURVE_WITH_KNOTS('', 1, (#313, #314), .UNSPECIFIED., .F., .U., (2, 2), (0., 15.), .UNSPECIFIED.);
#313 = CARTESIAN_POINT('', (60., 15., 20.));
#314 = CARTESIAN_POINT('', (75., 15., 20.));
#315 = ORIENTED_EDGE('', *, *, #316, .F.);
#316 = EDGE_CURVE('', #317, #310, #319, .T.);
#317 = VERTEX_POINT('', #318);
#318 = CARTESIAN_POINT('', (75., 15., 0.));
#319 = B_SPLINE_CURVE_WITH_KNOTS('', 1, (#320, #321), .UNSPECIFIED., .F., .U., (2, 2), (0., 20.), .UNSPECIFIED.);
#320 = CARTESIAN_POINT('', (75., 15., 0.));
#321 = CARTESIAN_POINT('', (75., 15., 20.));
#322 = ORIENTED_EDGE('', *, *, #323, .F.);
#323 = EDGE_CURVE('', #301, #317, #324, .T.);
#324 = B_SPLINE_CURVE_WITH_KNOTS('', 1, (#325, #326), .UNSPECIFIED., .F., .U., (2, 2), (0., 15.), .UNSPECIFIED.);
#325 = CARTESIAN_POINT('', (60., 15., 0.));
#326 = CARTESIAN_POINT('', (75., 15., 0.));
#327 = B_SPLINE_SURFACE_WITH_KNOTS('', 1, 1, ((#328, #329), (#330, #331)), .UNSPECIFIED., .F., .F., .U., (2, 2), (2, 2), (0., 20.), (0., 15.), .UNSPECIFIED.);
#328 = CARTESIAN_POINT('', (60., 15., 0.));
#329 = CARTESIAN_POINT('', (75., 15., 0.));
#330 = CARTESIAN_POINT('', (60., 15., 20.));
#331 = CARTESIAN_POINT('', (75., 15., 20.));
#332 = ADVANCED_FACE('', (#333), #355, .T.);
#333 = FACE_OUTER_BOUND('', #334, .T.);
#334 = EDGE_LOOP('', (#335, #342, #349, #354));
#335 = ORIENTED_EDGE('', *, *, #336, .F.);
#336 = EDGE_CURVE('', #337, #303, #339, .T.);
#337 = VERTEX_POINT('', #338);
#338 = CARTESIAN_POINT('', (60., 0., 20.));
#339 = B_SPLINE_CURVE_WITH_KNOTS('', 1, (#340, #341), .UNSPECIFIED., .F., .U., (2, 2), (0., 15.), .UNSPECIFIED.);
#340 = CARTESIAN_POINT('', (60., 0., 20.));
#341 = CARTESIAN_POINT('', (60., 15., 20.));
#342 = ORIENTED_EDGE('', *, *, #343, .T.);
#343 = EDGE_CURVE('', #337, #344, #346, .T.);
#344 = VERTEX_POINT('', #345);
#345 = CARTESIAN_POINT('', (75., 0., 20.));
#346 = B_SPLINE_CURVE_WITH_KNOTS('', 1, (#347, #348), .UNSPECIFIED., .F., .U., (2, 2), (0., 15.), .UNSPECIFIED.);
#347 = CARTESIAN_POINT('', (60., 0., 20.));
#348 = CARTESIAN_POINT('', (75., 0., 20.));
#349 = ORIENTED_EDGE('', *, *, #350, .T.);
#350 = EDGE_CURVE('', #344, #310, #351, .T.);
#351 = B_SPLINE_CURVE_WITH_KNOTS('', 1, (#352, #353), .UNSPECIFIED., .F., .U., (2, 2), (0., 15.), .UNSPECIFIED.);
#352 = CARTESIAN_POINT('', (75., 0., 20.));
#353 = CARTESIAN_POINT('', (75., 15., 20.));
#354 = ORIENTED_EDGE('', *, *, #309, .F.);
#355 = B_SPLINE_SURFACE_WITH_KNOTS('', 1, 1, ((#356, #357), (#358, #359)), .UNSPECIFIED., .F., .F., .U., (2, 2), (2, 2), (0., 15.), (0., 15.), .UNSPECIFIED.);
#356 = CARTESIAN_POINT('', (60., 0., 20.));
#357 = CARTESIAN_POINT('', (60., 15., 20.));
#358 = CARTESIAN_POINT('', (75., 0., 20.));
#359 = CARTESIAN_POINT('', (75., 15., 20.));
#360 = ADVANCED_FACE('', (#361), #383, .T.);
#361 = FACE_OUTER_BOUND('', #362, .T.);
#362 = EDGE_LOOP('', (#363, #370, #377, #382));
#363 = ORIENTED_EDGE('', *, *, #364, .F.);
#364 = EDGE_CURVE('', #365, #337, #367, .T.);
#365 = VERTEX_POINT('', #366);
#366 = CARTESIAN_POINT('', (60., 0., 0.));
#367 = B_SPLINE_CURVE_WITH_KNOTS('', 1, (#368, #369), .UNSPECIFIED., .F., .U., (2, 2), (0., 20.), .UNSPECIFIED.);
#368 = CARTESIAN_POINT('', (60., 0., 0.));
#369 = CARTESIAN_POINT('', (60., 0., 20.));
#370 = ORIENTED_EDGE('', *, *, #371, .T.);
#371 = EDGE_CURVE('', #365, #372, #374, .T.);
#372 = VERTEX_POINT('', #373);
#373 = CARTESIAN_POINT('', (75., 0., 0.));
#374 = B_SPLINE_CURVE_WITH_KNOTS('', 1, (#375, #376), .UNSPECIFIED., .F., .U., (2, 2), (0., 15.), .UNSPECIFIED.);
#375 = CARTESIAN_POINT('', (60., 0., 0.));
#376 = CARTESIAN_POINT('', (75., 0., 0.));
#377 = ORIENTED_EDGE('', *, *, #378, .T.);
#378 = EDGE_CURVE('', #372, #344, #379, .T.);
#379 = B_SPLINE_CURVE_WITH_KNOTS('', 1, (#380, #381), .UNSPECIFIED., .F., .U., (2, 2), (0., 20.), .UNSPECIFIED.);
#380 = CARTESIAN_POINT('', (75., 0., 0.));
#381 = CARTESIAN_POINT('', (75., 0., 20.));
#382 = ORIENTED_EDGE('', *, *, #343, .F.);
#383 = B_SPLINE_SURFACE_WITH_KNOTS('', 1, 1, ((#384, #385), (#386, #387)), .UNSPECIFIED., .F., .F., .U., (2, 2), (2, 2), (0., 15.), (0., 20.), .UNSPECIFIED.);
#384 = CARTESIAN_POINT('', (60., 0., 0.));
#385 = CARTESIAN_POINT('', (60., 0., 20.));
#386 = CARTESIAN_POINT('', (75., 0., 0.));
#387 = CARTESIAN_POINT('', (75., 0., 20.));
#388 = ADVANCED_FACE('', (#389), #403, .T.);
#389 = FACE_OUTER_BOUND('', #390, .T.);
#390 = EDGE_LOOP('', (#391, #396, #397, #402));
#391 = ORIENTED_EDGE('', *, *, #392, .T.);
#392 = EDGE_CURVE('', #365, #301, #393, .T.);
#393 = B_SPLINE_CURVE_WITH_KNOTS('', 1, (#394, #395), .UNSPECIFIED., .F., .U., (2, 2), (0., 15.), .UNSPECIFIED.);
#394 = CARTESIAN_POINT('', (60., 0., 0.));
#395 = CARTESIAN_POINT('', (60., 15., 0.));
#396 = ORIENTED_EDGE('', *, *, #323, .T.);
#397 = ORIENTED_EDGE('', *, *, #398, .F.);
#398 = EDGE_CURVE('', #372, #317, #399, .T.);
#399 = B_SPLINE_CURVE_WITH_KNOTS('', 1, (#400, #401), .UNSPECIFIED., .F., .U., (2, 2), (0., 15.), .UNSPECIFIED.);
#400 = CARTESIAN_POINT('', (75., 0., 0.));
#401 = CARTESIAN_POINT('', (75., 15., 0.));
#402 = ORIENTED_EDGE('', *, *, #371, .F.);
#403 = B_SPLINE_SURFACE_WITH_KNOTS('', 1, 1, ((#404, #405), (#406, #407)), .UNSPECIFIED., .F., .F., .U., (2, 2), (2, 2), (0., 15.), (0., 15.), .UNSPECIFIED.);
#404 = CARTESIAN_POINT('', (60., 0., 0.));
#405 = CARTESIAN_POINT('', (75., 0., 0.));
#406 = CARTESIAN_POINT('', (60., 15., 0.));
#407 = CARTESIAN_POINT('', (75., 15., 0.));
#408 = ADVANCED_FACE('', (#409), #415, .T.);
#409 = FACE_OUTER_BOUND('', #410, .T.);
#410 = EDGE_LOOP('', (#411, #412, #413, #414));
#411 = ORIENTED_EDGE('', *, *, #378, .F.);
#412 = ORIENTED_EDGE('', *, *, #398, .T.);
#413 = ORIENTED_EDGE('', *, *, #316, .T.);
#414 = ORIENTED_EDGE('', *, *, #350, .F.);
#415 = B_SPLINE_SURFACE_WITH_KNOTS('', 1, 1, ((#416, #417), (#418, #419)), .UNSPECIFIED., .F., .F., .U., (2, 2), (2, 2), (0., 15.), (0., 20.), .UNSPECIFIED.);
#416 = CARTESIAN_POINT('', (75., 0., 0.));
#417 = CARTESIAN_POINT('', (75., 0., 20.));
#418 = CARTESIAN_POINT('', (75., 15., 0.));
#419 = CARTESIAN_POINT('', (75., 15., 20.));
#420 = ADVANCED_FACE('', (#421), #427, .T.);
#421 = FACE_OUTER_BOUND('', #422, .T.);
#422 = EDGE_LOOP('', (#423, #424, #425, #426));
#423 = ORIENTED_EDGE('', *, *, #364, .T.);
#424 = ORIENTED_EDGE('', *, *, #336, .T.);
#425 = ORIENTED_EDGE('', *, *, #300, .F.);
#426 = ORIENTED_EDGE('', *, *, #392, .F.);
#427 = B_SPLINE_SURFACE_WITH_KNOTS('', 1, 1, ((#428, #429), (#430, #431)), .UNSPECIFIED., .F., .F., .U., (2, 2), (2, 2), (0., 20.), (0., 15.), .UNSPECIFIED.);
#428 = CARTESIAN_POINT('', (60., 0., 0.));
#429 = CARTESIAN_POINT('', (60., 15., 0.));
#430 = CARTESIAN_POINT('', (60., 0., 20.));
#431 = CARTESIAN_POINT('', (60., 15., 20.));
#432 = PRESENTATION_STYLE_ASSIGNMENT((#433));
#433 = SURFACE_STYLE_USAGE(.POSITIVE., #434);
#434 = SURFACE_SIDE_STYLE('', (#435));
#435 = SURFACE_STYLE_FILL_AREA(#436);
#436 = FILL_AREA_STYLE('', (#437));
#437 = FILL_AREA_STYLE_COLOUR('', #438);
#438 = COLOUR_RGB('', 0.50196078431373, 0.50196078431373, 0.50196078431373);
#439 = STYLED_ITEM('', (#432), #294);
#440 = MANIFOLD_SOLID_BREP('LP_grid_3', #441);
#441 = CLOSED_SHELL('', (#442, #478, #506, #534, #554, #566));
#442 = ADVANCED_FACE('', (#443), #473, .T.);
#443 = FACE_OUTER_BOUND('', #444, .T.);
#444 = EDGE_LOOP('', (#445, #454, #461, #468));
#445 = ORIENTED_EDGE('', *, *, #446, .T.);
#446 = EDGE_CURVE('', #447, #449, #451, .T.);
#447 = VERTEX_POINT('', #448);
#448 = CARTESIAN_POINT('', (90., 15., 0.));
#449 = VERTEX_POINT('', #450);
#450 = CARTESIAN_POINT('', (90., 15., 20.));
#451 = B_SPLINE_CURVE_WITH_KNOTS('', 1, (#452, #453), .UNSPECIFIED., .F., .U., (2, 2), (0., 20.), .UNSPECIFIED.);
#452 = CARTESIAN_POINT('', (90., 15., 0.));
#453 = CARTESIAN_POINT('', (90., 15., 20.));
#454 = ORIENTED_EDGE('', *, *, #455, .T.);
#455 = EDGE_CURVE('', #449, #456, #458, .T.);
#456 = VERTEX_POINT('', #457);
#457 = CARTESIAN_POINT('', (105., 15., 20.));
#458 = B_SPLINE_CURVE_WITH_KNOTS('', 1, (#459, #460), .UNSPECIFIED., .F., .U., (2, 2), (0., 15.), .UNSPECIFIED.);
#459 = CARTESIAN_POINT('', (90., 15., 20.));
#460 = CARTESIAN_POINT('', (105., 15., 20.));
#461 = ORIENTED_EDGE('', *, *, #462, .F.);
#462 = EDGE_CURVE('', #463, #456, #465, .T.);
#463 = VERTEX_POINT('', #464);
#464 = CARTESIAN_POINT('', (105., 15., 0.));
#465 = B_SPLINE_CURVE_WITH_KNOTS('', 1, (#466, #467), .UNSPECIFIED., .F., .U., (2, 2), (0., 20.), .UNSPECIFIED.);
#466 = CARTESIAN_POINT('', (105., 15., 0.));
#467 = CARTESIAN_POINT('', (105., 15., 20.));
#468 = ORIENTED_EDGE('', *, *, #469, .F.);
#469 = EDGE_CURVE('', #447, #463, #470, .T.);
#470 = B_SPLINE_CURVE_WITH_KNOTS('', 1, (#471, #472), .UNSPECIFIED., .F., .U., (2, 2), (0., 15.), .UNSPECIFIED.);
#471 = CARTESIAN_POINT('', (90., 15., 0.));
#472 = CARTESIAN_POINT('', (105., 15., 0.));
#473 = B_SPLINE_SURFACE_WITH_KNOTS('', 1, 1, ((#474, #475), (#476, #477)), .UNSPECIFIED., .F., .F., .U., (2, 2), (2, 2), (0., 20.), (0., 15.), .UNSPECIFIED.);
#474 = CARTESIAN_POINT('', (90., 15., 0.));
#475 = CARTESIAN_POINT('', (105., 15., 0.));
#476 = CARTESIAN_POINT('', (90., 15., 20.));
#477 = CARTESIAN_POINT('', (105., 15., 20.));
#478 = ADVANCED_FACE('', (#479), #501, .T.);
#479 = FACE_OUTER_BOUND('', #480, .T.);
#480 = EDGE_LOOP('', (#481, #488, #495, #500));
#481 = ORIENTED_EDGE('', *, *, #482, .F.);
#482 = EDGE_CURVE('', #483, #449, #485, .T.);
#483 = VERTEX_POINT('', #484);
#484 = CARTESIAN_POINT('', (90., 0., 20.));
#485 = B_SPLINE_CURVE_WITH_KNOTS('', 1, (#486, #487), .UNSPECIFIED., .F., .U., (2, 2), (0., 15.), .UNSPECIFIED.);
#486 = CARTESIAN_POINT('', (90., 0., 20.));
#487 = CARTESIAN_POINT('', (90., 15., 20.));
#488 = ORIENTED_EDGE('', *, *, #489, .T.);
#489 = EDGE_CURVE('', #483, #490, #492, .T.);
#490 = VERTEX_POINT('', #491);
#491 = CARTESIAN_POINT('', (105., 0., 20.));
#492 = B_SPLINE_CURVE_WITH_KNOTS('', 1, (#493, #494), .UNSPECIFIED., .F., .U., (2, 2), (0., 15.), .UNSPECIFIED.);
#493 = CARTESIAN_POINT('', (90., 0., 20.));
#494 = CARTESIAN_POINT('', (105., 0., 20.));
#495 = ORIENTED_EDGE('', *, *, #496, .T.);
#496 = EDGE_CURVE('', #490, #456, #497, .T.);
#497 = B_SPLINE_CURVE_WITH_KNOTS('', 1, (#498, #499), .UNSPECIFIED., .F., .U., (2, 2), (0., 15.), .UNSPECIFIED.);
#498 = CARTESIAN_POINT('', (105., 0., 20.));
#499 = CARTESIAN_POINT('', (105., 15., 20.));
#500 = ORIENTED_EDGE('', *, *, #455, .F.);
#501 = B_SPLINE_SURFACE_WITH_KNOTS('', 1, 1, ((#502, #503), (#504, #505)), .UNSPECIFIED., .F., .F., .U., (2, 2), (2, 2), (0., 15.), (0., 15.), .UNSPECIFIED.);
#502 = CARTESIAN_POINT('', (90., 0., 20.));
#503 = CARTESIAN_POINT('', (90., 15., 20.));
#504 = CARTESIAN_POINT('', (105., 0., 20.));
#505 = CARTESIAN_POINT('', (105., 15., 20.));
#506 = ADVANCED_FACE('', (#507), #529, .T.);
#507 = FACE_OUTER_BOUND('', #508, .T.);
#508 = EDGE_LOOP('', (#509, #516, #523, #528));
#509 = ORIENTED_EDGE('', *, *, #510, .F.);
#510 = EDGE_CURVE('', #511, #483, #513, .T.);
#511 = VERTEX_POINT('', #512);
#512 = CARTESIAN_POINT('', (90., 0., 0.));
#513 = B_SPLINE_CURVE_WITH_KNOTS('', 1, (#514, #515), .UNSPECIFIED., .F., .U., (2, 2), (0., 20.), .UNSPECIFIED.);
#514 = CARTESIAN_POINT('', (90., 0., 0.));
#515 = CARTESIAN_POINT('', (90., 0., 20.));
#516 = ORIENTED_EDGE('', *, *, #517, .T.);
#517 = EDGE_CURVE('', #511, #518, #520, .T.);
#518 = VERTEX_POINT('', #519);
#519 = CARTESIAN_POINT('', (105., 0., 0.));
#520 = B_SPLINE_CURVE_WITH_KNOTS('', 1, (#521, #522), .UNSPECIFIED., .F., .U., (2, 2), (0., 15.), .UNSPECIFIED.);
#521 = CARTESIAN_POINT('', (90., 0., 0.));
#522 = CARTESIAN_POINT('', (105., 0., 0.));
#523 = ORIENTED_EDGE('', *, *, #524, .T.);
#524 = EDGE_CURVE('', #518, #490, #525, .T.);
#525 = B_SPLINE_CURVE_WITH_KNOTS('', 1, (#526, #527), .UNSPECIFIED., .F., .U., (2, 2), (0., 20.), .UNSPECIFIED.);
#526 = CARTESIAN_POINT('', (105., 0., 0.));
#527 = CARTESIAN_POINT('', (105., 0., 20.));
#528 = ORIENTED_EDGE('', *, *, #489, .F.);
#529 = B_SPLINE_SURFACE_WITH_KNOTS('', 1, 1, ((#530, #531), (#532, #533)), .UNSPECIFIED., .F., .F., .U., (2, 2), (2, 2), (0., 15.), (0., 20.), .UNSPECIFIED.);
#530 = CARTESIAN_POINT('', (90., 0., 0.));
#531 = CARTESIAN_POINT('', (90., 0., 20.));
#532 = CARTESIAN_POINT('', (105., 0., 0.));
#533 = CARTESIAN_POINT('', (105., 0., 20.));
#534 = ADVANCED_FACE('', (#535), #549, .T.);
#535 = FACE_OUTER_BOUND('', #536, .T.);
#536 = EDGE_LOOP('', (#537, #542, #543, #548));
#537 = ORIENTED_EDGE('', *, *, #538, .T.);
#538 = EDGE_CURVE('', #511, #447, #539, .T.);
#539 = B_SPLINE_CURVE_WITH_KNOTS('', 1, (#540, #541), .UNSPECIFIED., .F., .U., (2, 2), (0., 15.), .UNSPECIFIED.);
#540 = CARTESIAN_POINT('', (90., 0., 0.));
#541 = CARTESIAN_POINT('', (90., 15., 0.));
#542 = ORIENTED_EDGE('', *, *, #469, .T.);
#543 = ORIENTED_EDGE('', *, *, #544, .F.);
#544 = EDGE_CURVE('', #518, #463, #545, .T.);
#545 = B_SPLINE_CURVE_WITH_KNOTS('', 1, (#546, #547), .UNSPECIFIED., .F., .U., (2, 2), (0., 15.), .UNSPECIFIED.);
#546 = CARTESIAN_POINT('', (105., 0., 0.));
#547 = CARTESIAN_POINT('', (105., 15., 0.));
#548 = ORIENTED_EDGE('', *, *, #517, .F.);
#549 = B_SPLINE_SURFACE_WITH_KNOTS('', 1, 1, ((#550, #551), (#552, #553)), .UNSPECIFIED., .F., .F., .U., (2, 2), (2, 2), (0., 15.), (0., 15.), .UNSPECIFIED.);
#550 = CARTESIAN_POINT('', (90., 0., 0.));
#551 = CARTESIAN_POINT('', (105., 0., 0.));
#552 = CARTESIAN_POINT('', (90., 15., 0.));
#553 = CARTESIAN_POINT('', (105., 15., 0.));
#554 = ADVANCED_FACE('', (#555), #561, .T.);
#555 = FACE_OUTER_BOUND('', #556, .T.);
#556 = EDGE_LOOP('', (#557, #558, #559, #560));
#557 = ORIENTED_EDGE('', *, *, #524, .F.);
#558 = ORIENTED_EDGE('', *, *, #544, .T.);
#559 = ORIENTED_EDGE('', *, *, #462, .T.);
#560 = ORIENTED_EDGE('', *, *, #496, .F.);
#561 = B_SPLINE_SURFACE_WITH_KNOTS('', 1, 1, ((#562, #563), (#564, #565)), .UNSPECIFIED., .F., .F., .U., (2, 2), (2, 2), (0., 15.), (0., 20.), .UNSPECIFIED.);
#562 = CARTESIAN_POINT('', (105., 0., 0.));
#563 = CARTESIAN_POINT('', (105., 0., 20.));
#564 = CARTESIAN_POINT('', (105., 15., 0.));
#565 = CARTESIAN_POINT('', (105., 15., 20.));
#566 = ADVANCED_FACE('', (#567), #573, .T.);
#567 = FACE_OUTER_BOUND('', #568, .T.);
#568 = EDGE_LOOP('', (#569, #570, #571, #572));
#569 = ORIENTED_EDGE('', *, *, #510, .T.);
#570 = ORIENTED_EDGE('', *, *, #482, .T.);
#571 = ORIENTED_EDGE('', *, *, #446, .F.);
#572 = ORIENTED_EDGE('', *, *, #538, .F.);
#573 = B_SPLINE_SURFACE_WITH_KNOTS('', 1, 1, ((#574, #575), (#576, #577)), .UNSPECIFIED., .F., .F., .U., (2, 2), (2, 2), (0., 20.), (0., 15.), .UNSPECIFIED.);
#574 = CARTESIAN_POINT('', (90., 0., 0.));
#575 = CARTESIAN_POINT('', (90., 15., 0.));
#576 = CARTESIAN_POINT('', (90., 0., 20.));
#577 = CARTESIAN_POINT('', (90., 15., 20.));
#578 = PRESENTATION_STYLE_ASSIGNMENT((#579));
#579 = SURFACE_STYLE_USAGE(.POSITIVE., #580);
#580 = SURFACE_SIDE_STYLE('', (#581));
#581 = SURFACE_STYLE_FILL_AREA(#582);
#582 = FILL_AREA_STYLE('', (#583));
#583 = FILL_AREA_STYLE_COLOUR('', #584);
#584 = COLOUR_RGB('', 0.50196078431373, 0.50196078431373, 0.50196078431373);
#585 = STYLED_ITEM('', (#578), #440);
#586 = MANIFOLD_SOLID_BREP('LP_grid_4', #587);
#587 = CLOSED_SHELL('', (#588, #624, #652, #680, #700, #712));
#588 = ADVANCED_FACE('', (#589), #619, .T.);
#589 = FACE_OUTER_BOUND('', #590, .T.);
#590 = EDGE_LOOP('', (#591, #600, #607, #614));
#591 = ORIENTED_EDGE('', *, *, #592, .T.);
#592 = EDGE_CURVE('', #593, #595, #597, .T.);
#593 = VERTEX_POINT('', #594);
#594 = CARTESIAN_POINT('', (0., 45., 0.));
#595 = VERTEX_POINT('', #596);
#596 = CARTESIAN_POINT('', (0., 45., 20.));
#597 = B_SPLINE_CURVE_WITH_KNOTS('', 1, (#598, #599), .UNSPECIFIED., .F., .U., (2, 2), (0., 20.), .UNSPECIFIED.);
#598 = CARTESIAN_POINT('', (0., 45., 0.));
#599 = CARTESIAN_POINT('', (0., 45., 20.));
#600 = ORIENTED_EDGE('', *, *, #601, .T.);
#601 = EDGE_CURVE('', #595, #602, #604, .T.);
#602 = VERTEX_POINT('', #603);
#603 = CARTESIAN_POINT('', (15., 45., 20.));
#604 = B_SPLINE_CURVE_WITH_KNOTS('', 1, (#605, #606), .UNSPECIFIED., .F., .U., (2, 2), (0., 15.), .UNSPECIFIED.);
#605 = CARTESIAN_POINT('', (0., 45., 20.));
#606 = CARTESIAN_POINT('', (15., 45., 20.));
#607 = ORIENTED_EDGE('', *, *, #608, .F.);
#608 = EDGE_CURVE('', #609, #602, #611, .T.);
#609 = VERTEX_POINT('', #610);
#610 = CARTESIAN_POINT('', (15., 45., 0.));
#611 = B_SPLINE_CURVE_WITH_KNOTS('', 1, (#612, #613), .UNSPECIFIED., .F., .U., (2, 2), (0., 20.), .UNSPECIFIED.);
#612 = CARTESIAN_POINT('', (15., 45., 0.));
#613 = CARTESIAN_POINT('', (15., 45., 20.));
#614 = ORIENTED_EDGE('', *, *, #615, .F.);
#615 = EDGE_CURVE('', #593, #609, #616, .T.);
#616 = B_SPLINE_CURVE_WITH_KNOTS('', 1, (#617, #618), .UNSPECIFIED., .F., .U., (2, 2), (0., 15.), .UNSPECIFIED.);
#617 = CARTESIAN_POINT('', (0., 45., 0.));
#618 = CARTESIAN_POINT('', (15., 45., 0.));
#619 = B_SPLINE_SURFACE_WITH_KNOTS('', 1, 1, ((#620, #621), (#622, #623)), .UNSPECIFIED., .F., .F., .U., (2, 2), (2, 2), (0., 20.), (0., 15.), .UNSPECIFIED.);
#620 = CARTESIAN_POINT('', (0., 45., 0.));
#621 = CARTESIAN_POINT('', (15., 45., 0.));
#622 = CARTESIAN_POINT('', (0., 45., 20.));
#623 = CARTESIAN_POINT('', (15., 45., 20.));
#624 = ADVANCED_FACE('', (#625), #647, .T.);
#625 = FACE_OUTER_BOUND('', #626, .T.);
#626 = EDGE_LOOP('', (#627, #634, #641, #646));
#627 = ORIENTED_EDGE('', *, *, #628, .F.);
#628 = EDGE_CURVE('', #629, #595, #631, .T.);
#629 = VERTEX_POINT('', #630);
#630 = CARTESIAN_POINT('', (0., 30., 20.));
#631 = B_SPLINE_CURVE_WITH_KNOTS('', 1, (#632, #633), .UNSPECIFIED., .F., .U., (2, 2), (0., 15.), .UNSPECIFIED.);
#632 = CARTESIAN_POINT('', (0., 30., 20.));
#633 = CARTESIAN_POINT('', (0., 45., 20.));
#634 = ORIENTED_EDGE('', *, *, #635, .T.);
#635 = EDGE_CURVE('', #629, #636, #638, .T.);
#636 = VERTEX_POINT('', #637);
#637 = CARTESIAN_POINT('', (15., 30., 20.));
#638 = B_SPLINE_CURVE_WITH_KNOTS('', 1, (#639, #640), .UNSPECIFIED., .F., .U., (2, 2), (0., 15.), .UNSPECIFIED.);
#639 = CARTESIAN_POINT('', (0., 30., 20.));
#640 = CARTESIAN_POINT('', (15., 30., 20.));
#641 = ORIENTED_EDGE('', *, *, #642, .T.);
#642 = EDGE_CURVE('', #636, #602, #643, .T.);
#643 = B_SPLINE_CURVE_WITH_KNOTS('', 1, (#644, #645), .UNSPECIFIED., .F., .U., (2, 2), (0., 15.), .UNSPECIFIED.);
#644 = CARTESIAN_POINT('', (15., 30., 20.));
#645 = CARTESIAN_POINT('', (15., 45., 20.));
#646 = ORIENTED_EDGE('', *, *, #601, .F.);
#647 = B_SPLINE_SURFACE_WITH_KNOTS('', 1, 1, ((#648, #649), (#650, #651)), .UNSPECIFIED., .F., .F., .U., (2, 2), (2, 2), (0., 15.), (0., 15.), .UNSPECIFIED.);
#648 = CARTESIAN_POINT('', (0., 30., 20.));
#649 = CARTESIAN_POINT('', (0., 45., 20.));
#650 = CARTESIAN_POINT('', (15., 30., 20.));
#651 = CARTESIAN_POINT('', (15., 45., 20.));
#652 = ADVANCED_FACE('', (#653), #675, .T.);
#653 = FACE_OUTER_BOUND('', #654, .T.);
#654 = EDGE_LOOP('', (#655, #662, #669, #674));
#655 = ORIENTED_EDGE('', *, *, #656, .F.);
#656 = EDGE_CURVE('', #657, #629, #659, .T.);
#657 = VERTEX_POINT('', #658);
#658 = CARTESIAN_POINT('', (0., 30., 0.));
#659 = B_SPLINE_CURVE_WITH_KNOTS('', 1, (#660, #661), .UNSPECIFIED., .F., .U., (2, 2), (0., 20.), .UNSPECIFIED.);
#660 = CARTESIAN_POINT('', (0., 30., 0.));
#661 = CARTESIAN_POINT('', (0., 30., 20.));
#662 = ORIENTED_EDGE('', *, *, #663, .T.);
#663 = EDGE_CURVE('', #657, #664, #666, .T.);
#664 = VERTEX_POINT('', #665);
#665 = CARTESIAN_POINT('', (15., 30., 0.));
#666 = B_SPLINE_CURVE_WITH_KNOTS('', 1, (#667, #668), .UNSPECIFIED., .F., .U., (2, 2), (0., 15.), .UNSPECIFIED.);
#667 = CARTESIAN_POINT('', (0., 30., 0.));
#668 = CARTESIAN_POINT('', (15., 30., 0.));
#669 = ORIENTED_EDGE('', *, *, #670, .T.);
#670 = EDGE_CURVE('', #664, #636, #671, .T.);
#671 = B_SPLINE_CURVE_WITH_KNOTS('', 1, (#672, #673), .UNSPECIFIED., .F., .U., (2, 2), (0., 20.), .UNSPECIFIED.);
#672 = CARTESIAN_POINT('', (15., 30., 0.));
#673 = CARTESIAN_POINT('', (15., 30., 20.));
#674 = ORIENTED_EDGE('', *, *, #635, .F.);
#675 = B_SPLINE_SURFACE_WITH_KNOTS('', 1, 1, ((#676, #677), (#678, #679)), .UNSPECIFIED., .F., .F., .U., (2, 2), (2, 2), (0., 15.), (0., 20.), .UNSPECIFIED.);
#676 = CARTESIAN_POINT('', (0., 30., 0.));
#677 = CARTESIAN_POINT('', (0., 30., 20.));
#678 = CARTESIAN_POINT('', (15., 30., 0.));
#679 = CARTESIAN_POINT('', (15., 30., 20.));
#680 = ADVANCED_FACE('', (#681), #695, .T.);
#681 = FACE_OUTER_BOUND('', #682, .T.);
#682 = EDGE_LOOP('', (#683, #688, #689, #694));
#683 = ORIENTED_EDGE('', *, *, #684, .T.);
#684 = EDGE_CURVE('', #657, #593, #685, .T.);
#685 = B_SPLINE_CURVE_WITH_KNOTS('', 1, (#686, #687), .UNSPECIFIED., .F., .U., (2, 2), (0., 15.), .UNSPECIFIED.);
#686 = CARTESIAN_POINT('', (0., 30., 0.));
#687 = CARTESIAN_POINT('', (0., 45., 0.));
#688 = ORIENTED_EDGE('', *, *, #615, .T.);
#689 = ORIENTED_EDGE('', *, *, #690, .F.);
#690 = EDGE_CURVE('', #664, #609, #691, .T.);
#691 = B_SPLINE_CURVE_WITH_KNOTS('', 1, (#692, #693), .UNSPECIFIED., .F., .U., (2, 2), (0., 15.), .UNSPECIFIED.);
#692 = CARTESIAN_POINT('', (15., 30., 0.));
#693 = CARTESIAN_POINT('', (15., 45., 0.));
#694 = ORIENTED_EDGE('', *, *, #663, .F.);
#695 = B_SPLINE_SURFACE_WITH_KNOTS('', 1, 1, ((#696, #697), (#698, #699)), .UNSPECIFIED., .F., .F., .U., (2, 2), (2, 2), (0., 15.), (0., 15.), .UNSPECIFIED.);
#696 = CARTESIAN_POINT('', (0., 30., 0.));
#697 = CARTESIAN_POINT('', (15., 30., 0.));
#698 = CARTESIAN_POINT('', (0., 45., 0.));
#699 = CARTESIAN_POINT('', (15., 45., 0.));
#700 = ADVANCED_FACE('', (#701), #707, .T.);
#701 = FACE_OUTER_BOUND('', #702, .T.);
#702 = EDGE_LOOP('', (#703, #704, #705, #706));
#703 = ORIENTED_EDGE('', *, *, #670, .F.);
#704 = ORIENTED_EDGE('', *, *, #690, .T.);
#705 = ORIENTED_EDGE('', *, *, #608, .T.);
#706 = ORIENTED_EDGE('', *, *, #642, .F.);
#707 = B_SPLINE_SURFACE_WITH_KNOTS('', 1, 1, ((#708, #709), (#710, #711)), .UNSPECIFIED., .F., .F., .U., (2, 2), (2, 2), (0., 15.), (0., 20.), .UNSPECIFIED.);
#708 = CARTESIAN_POINT('', (15., 30., 0.));
#709 = CARTESIAN_POINT('', (15., 30., 20.));
#710 = CARTESIAN_POINT('', (15., 45., 0.));
#711 = CARTESIAN_POINT('', (15., 45., 20.));
#712 = ADVANCED_FACE('', (#713), #719, .T.);
#713 = FACE_OUTER_BOUND('', #714, .T.);
#714 = EDGE_LOOP('', (#715, #716, #717, #718));
#715 = ORIENTED_EDGE('', *, *, #656, .T.);
#716 = ORIENTED_EDGE('', *, *, #628, .T.);
#717 = ORIENTED_EDGE('', *, *, #592, .F.);
#718 = ORIENTED_EDGE('', *, *, #684, .F.);
#719 = B_SPLINE_SURFACE_WITH_KNOTS('', 1, 1, ((#720, #721), (#722, #723)), .UNSPECIFIED., .F., .F., .U., (2, 2), (2, 2), (0., 20.), (0., 15.), .UNSPECIFIED.);
#720 = CARTESIAN_POINT('', (0., 30., 0.));
#721 = CARTESIAN_POINT('', (0., 45., 0.));
#722 = CARTESIAN_POINT('', (0., 30., 20.));
#723 = CARTESIAN_POINT('', (0., 45., 20.));
#724 = PRESENTATION_STYLE_ASSIGNMENT((#725));
#725 = SURFACE_STYLE_USAGE(.POSITIVE., #726);
#726 = SURFACE_SIDE_STYLE('', (#727));
#727 = SURFACE_STYLE_FILL_AREA(#728);
#728 = FILL_AREA_STYLE('', (#729));
#729 = FILL_AREA_STYLE_COLOUR('', #730);
#730 = COLOUR_RGB('', 0.50196078431373, 0.50196078431373, 0.50196078431373);
#731 = STYLED_ITEM('', (#724), #586);
#732 = MANIFOLD_SOLID_BREP('LP_grid_5', #733);
#733 = CLOSED_SHELL('', (#734, #770, #798, #826, #846, #858));
#734 = ADVANCED_FACE('', (#735), #765, .T.);
#735 = FACE_OUTER_BOUND('', #736, .T.);
#736 = EDGE_LOOP('', (#737, #746, #753, #760));
#737 = ORIENTED_EDGE('', *, *, #738, .T.);
#738 = EDGE_CURVE('', #739, #741, #743, .T.);
#739 = VERTEX_POINT('', #740);
#740 = CARTESIAN_POINT('', (30., 45., 0.));
#741 = VERTEX_POINT('', #742);
#742 = CARTESIAN_POINT('', (30., 45., 20.));
#743 = B_SPLINE_CURVE_WITH_KNOTS('', 1, (#744, #745), .UNSPECIFIED., .F., .U., (2, 2), (0., 20.), .UNSPECIFIED.);
#744 = CARTESIAN_POINT('', (30., 45., 0.));
#745 = CARTESIAN_POINT('', (30., 45., 20.));
#746 = ORIENTED_EDGE('', *, *, #747, .T.);
#747 = EDGE_CURVE('', #741, #748, #750, .T.);
#748 = VERTEX_POINT('', #749);
#749 = CARTESIAN_POINT('', (45., 45., 20.));
#750 = B_SPLINE_CURVE_WITH_KNOTS('', 1, (#751, #752), .UNSPECIFIED., .F., .U., (2, 2), (0., 15.), .UNSPECIFIED.);
#751 = CARTESIAN_POINT('', (30., 45., 20.));
#752 = CARTESIAN_POINT('', (45., 45., 20.));
#753 = ORIENTED_EDGE('', *, *, #754, .F.);
#754 = EDGE_CURVE('', #755, #748, #757, .T.);
#755 = VERTEX_POINT('', #756);
#756 = CARTESIAN_POINT('', (45., 45., 0.));
#757 = B_SPLINE_CURVE_WITH_KNOTS('', 1, (#758, #759), .UNSPECIFIED., .F., .U., (2, 2), (0., 20.), .UNSPECIFIED.);
#758 = CARTESIAN_POINT('', (45., 45., 0.));
#759 = CARTESIAN_POINT('', (45., 45., 20.));
#760 = ORIENTED_EDGE('', *, *, #761, .F.);
#761 = EDGE_CURVE('', #739, #755, #762, .T.);
#762 = B_SPLINE_CURVE_WITH_KNOTS('', 1, (#763, #764), .UNSPECIFIED., .F., .U., (2, 2), (0., 15.), .UNSPECIFIED.);
#763 = CARTESIAN_POINT('', (30., 45., 0.));
#764 = CARTESIAN_POINT('', (45., 45., 0.));
#765 = B_SPLINE_SURFACE_WITH_KNOTS('', 1, 1, ((#766, #767), (#768, #769)), .UNSPECIFIED., .F., .F., .U., (2, 2), (2, 2), (0., 20.), (0., 15.), .UNSPECIFIED.);
#766 = CARTESIAN_POINT('', (30., 45., 0.));
#767 = CARTESIAN_POINT('', (45., 45., 0.));
#768 = CARTESIAN_POINT('', (30., 45., 20.));
#769 = CARTESIAN_POINT('', (45., 45., 20.));
#770 = ADVANCED_FACE('', (#771), #793, .T.);
#771 = FACE_OUTER_BOUND('', #772, .T.);
#772 = EDGE_LOOP('', (#773, #780, #787, #792));
#773 = ORIENTED_EDGE('', *, *, #774, .F.);
#774 = EDGE_CURVE('', #775, #741, #777, .T.);
#775 = VERTEX_POINT('', #776);
#776 = CARTESIAN_POINT('', (30., 30., 20.));
#777 = B_SPLINE_CURVE_WITH_KNOTS('', 1, (#778, #779), .UNSPECIFIED., .F., .U., (2, 2), (0., 15.), .UNSPECIFIED.);
#778 = CARTESIAN_POINT('', (30., 30., 20.));
#779 = CARTESIAN_POINT('', (30., 45., 20.));
#780 = ORIENTED_EDGE('', *, *, #781, .T.);
#781 = EDGE_CURVE('', #775, #782, #784, .T.);
#782 = VERTEX_POINT('', #783);
#783 = CARTESIAN_POINT('', (45., 30., 20.));
#784 = B_SPLINE_CURVE_WITH_KNOTS('', 1, (#785, #786), .UNSPECIFIED., .F., .U., (2, 2), (0., 15.), .UNSPECIFIED.);
#785 = CARTESIAN_POINT('', (30., 30., 20.));
#786 = CARTESIAN_POINT('', (45., 30., 20.));
#787 = ORIENTED_EDGE('', *, *, #788, .T.);
#788 = EDGE_CURVE('', #782, #748, #789, .T.);
#789 = B_SPLINE_CURVE_WITH_KNOTS('', 1, (#790, #791), .UNSPECIFIED., .F., .U., (2, 2), (0., 15.), .UNSPECIFIED.);
#790 = CARTESIAN_POINT('', (45., 30., 20.));
#791 = CARTESIAN_POINT('', (45., 45., 20.));
#792 = ORIENTED_EDGE('', *, *, #747, .F.);
#793 = B_SPLINE_SURFACE_WITH_KNOTS('', 1, 1, ((#794, #795), (#796, #797)), .UNSPECIFIED., .F., .F., .U., (2, 2), (2, 2), (0., 15.), (0., 15.), .UNSPECIFIED.);
#794 = CARTESIAN_POINT('', (30., 30., 20.));
#795 = CARTESIAN_POINT('', (30., 45., 20.));
#796 = CARTESIAN_POINT('', (45., 30., 20.));
#797 = CARTESIAN_POINT('', (45., 45., 20.));
#798 = ADVANCED_FACE('', (#799), #821, .T.);
#799 = FACE_OUTER_BOUND('', #800, .T.);
#800 = EDGE_LOOP('', (#801, #808, #815, #820));
#801 = ORIENTED_EDGE('', *, *, #802, .F.);
#802 = EDGE_CURVE('', #803, #775, #805, .T.);
#803 = VERTEX_POINT('', #804);
#804 = CARTESIAN_POINT('', (30., 30., 0.));
#805 = B_SPLINE_CURVE_WITH_KNOTS('', 1, (#806, #807), .UNSPECIFIED., .F., .U., (2, 2), (0., 20.), .UNSPECIFIED.);
#806 = CARTESIAN_POINT('', (30., 30., 0.));
#807 = CARTESIAN_POINT('', (30., 30., 20.));
#808 = ORIENTED_EDGE('', *, *, #809, .T.);
#809 = EDGE_CURVE('', #803, #810, #812, .T.);
#810 = VERTEX_POINT('', #811);
#811 = CARTESIAN_POINT('', (45., 30., 0.));
#812 = B_SPLINE_CURVE_WITH_KNOTS('', 1, (#813, #814), .UNSPECIFIED., .F., .U., (2, 2), (0., 15.), .UNSPECIFIED.);
#813 = CARTESIAN_POINT('', (30., 30., 0.));
#814 = CARTESIAN_POINT('', (45., 30., 0.));
#815 = ORIENTED_EDGE('', *, *, #816, .T.);
#816 = EDGE_CURVE('', #810, #782, #817, .T.);
#817 = B_SPLINE_CURVE_WITH_KNOTS('', 1, (#818, #819), .UNSPECIFIED., .F., .U., (2, 2), (0., 20.), .UNSPECIFIED.);
#818 = CARTESIAN_POINT('', (45., 30., 0.));
#819 = CARTESIAN_POINT('', (45., 30., 20.));
#820 = ORIENTED_EDGE('', *, *, #781, .F.);
#821 = B_SPLINE_SURFACE_WITH_KNOTS('', 1, 1, ((#822, #823), (#824, #825)), .UNSPECIFIED., .F., .F., .U., (2, 2), (2, 2), (0., 15.), (0., 20.), .UNSPECIFIED.);
#822 = CARTESIAN_POINT('', (30., 30., 0.));
#823 = CARTESIAN_POINT('', (30., 30., 20.));
#824 = CARTESIAN_POINT('', (45., 30., 0.));
#825 = CARTESIAN_POINT('', (45., 30., 20.));
#826 = ADVANCED_FACE('', (#827), #841, .T.);
#827 = FACE_OUTER_BOUND('', #828, .T.);
#828 = EDGE_LOOP('', (#829, #834, #835, #840));
#829 = ORIENTED_EDGE('', *, *, #830, .T.);
#830 = EDGE_CURVE('', #803, #739, #831, .T.);
#831 = B_SPLINE_CURVE_WITH_KNOTS('', 1, (#832, #833), .UNSPECIFIED., .F., .U., (2, 2), (0., 15.), .UNSPECIFIED.);
#832 = CARTESIAN_POINT('', (30., 30., 0.));
#833 = CARTESIAN_POINT('', (30., 45., 0.));
#834 = ORIENTED_EDGE('', *, *, #761, .T.);
#835 = ORIENTED_EDGE('', *, *, #836, .F.);
#836 = EDGE_CURVE('', #810, #755, #837, .T.);
#837 = B_SPLINE_CURVE_WITH_KNOTS('', 1, (#838, #839), .UNSPECIFIED., .F., .U., (2, 2), (0., 15.), .UNSPECIFIED.);
#838 = CARTESIAN_POINT('', (45., 30., 0.));
#839 = CARTESIAN_POINT('', (45., 45., 0.));
#840 = ORIENTED_EDGE('', *, *, #809, .F.);
#841 = B_SPLINE_SURFACE_WITH_KNOTS('', 1, 1, ((#842, #843), (#844, #845)), .UNSPECIFIED., .F., .F., .U., (2, 2), (2, 2), (0., 15.), (0., 15.), .UNSPECIFIED.);
#842 = CARTESIAN_POINT('', (30., 30., 0.));
#843 = CARTESIAN_POINT('', (45., 30., 0.));
#844 = CARTESIAN_POINT('', (30., 45., 0.));
#845 = CARTESIAN_POINT('', (45., 45., 0.));
#846 = ADVANCED_FACE('', (#847), #853, .T.);
#847 = FACE_OUTER_BOUND('', #848, .T.);
#848 = EDGE_LOOP('', (#849, #850, #851, #852));
#849 = ORIENTED_EDGE('', *, *, #816, .F.);
#850 = ORIENTED_EDGE('', *, *, #836, .T.);
#851 = ORIENTED_EDGE('', *, *, #754, .T.);
#852 = ORIENTED_EDGE('', *, *, #788, .F.);
#853 = B_SPLINE_SURFACE_WITH_KNOTS('', 1, 1, ((#854, #855), (#856, #857)), .UNSPECIFIED., .F., .F., .U., (2, 2), (2, 2), (0., 15.), (0., 20.), .UNSPECIFIED.);
#854 = CARTESIAN_POINT('', (45., 30., 0.));
#855 = CARTESIAN_POINT('', (45., 30., 20.));
#856 = CARTESIAN_POINT('', (45., 45., 0.));
#857 = CARTESIAN_POINT('', (45., 45., 20.));
#858 = ADVANCED_FACE('', (#859), #865, .T.);
#859 = FACE_OUTER_BOUND('', #860, .T.);
#860 = EDGE_LOOP('', (#861, #862, #863, #864));
#861 = ORIENTED_EDGE('', *, *, #802, .T.);
#862 = ORIENTED_EDGE('', *, *, #774, .T.);
#863 = ORIENTED_EDGE('', *, *, #738, .F.);
#864 = ORIENTED_EDGE('', *, *, #830, .F.);
#865 = B_SPLINE_SURFACE_WITH_KNOTS('', 1, 1, ((#866, #867), (#868, #869)), .UNSPECIFIED., .F., .F., .U., (2, 2), (2, 2), (0., 20.), (0., 15.), .UNSPECIFIED.);
#866 = CARTESIAN_POINT('', (30., 30., 0.));
#867 = CARTESIAN_POINT('', (30., 45., 0.));
#868 = CARTESIAN_POINT('', (30., 30., 20.));
#869 = CARTESIAN_POINT('', (30., 45., 20.));
#870 = PRESENTATION_STYLE_ASSIGNMENT((#871));
#871 = SURFACE_STYLE_USAGE(.POSITIVE., #872);
#872 = SURFACE_SIDE_STYLE('', (#873));
#873 = SURFACE_STYLE_FILL_AREA(#874);
#874 = FILL_AREA_STYLE('', (#875));
#875 = FILL_AREA_STYLE_COLOUR('', #876);
#876 = COLOUR_RGB('', 0.50196078431373, 0.50196078431373, 0.50196078431373);
#877 = STYLED_ITEM('', (#870), #732);
#878 = MANIFOLD_SOLID_BREP('LP_grid_6', #879);
#879 = CLOSED_SHELL('', (#880, #916, #944, #972, #992, #1004));
#880 = ADVANCED_FACE('', (#881), #911, .T.);
#881 = FACE_OUTER_BOUND('', #882, .T.);
#882 = EDGE_LOOP('', (#883, #892, #899, #906));
#883 = ORIENTED_EDGE('', *, *, #884, .T.);
#884 = EDGE_CURVE('', #885, #887, #889, .T.);
#885 = VERTEX_POINT('', #886);
#886 = CARTESIAN_POINT('', (60., 45., 0.));
#887 = VERTEX_POINT('', #888);
#888 = CARTESIAN_POINT('', (60., 45., 20.));
#889 = B_SPLINE_CURVE_WITH_KNOTS('', 1, (#890, #891), .UNSPECIFIED., .F., .U., (2, 2), (0., 20.), .UNSPECIFIED.);
#890 = CARTESIAN_POINT('', (60., 45., 0.));
#891 = CARTESIAN_POINT('', (60., 45., 20.));
#892 = ORIENTED_EDGE('', *, *, #893, .T.);
#893 = EDGE_CURVE('', #887, #894, #896, .T.);
#894 = VERTEX_POINT('', #895);
#895 = CARTESIAN_POINT('', (75., 45., 20.));
#896 = B_SPLINE_CURVE_WITH_KNOTS('', 1, (#897, #898), .UNSPECIFIED., .F., .U., (2, 2), (0., 15.), .UNSPECIFIED.);
#897 = CARTESIAN_POINT('', (60., 45., 20.));
#898 = CARTESIAN_POINT('', (75., 45., 20.));
#899 = ORIENTED_EDGE('', *, *, #900, .F.);
#900 = EDGE_CURVE('', #901, #894, #903, .T.);
#901 = VERTEX_POINT('', #902);
#902 = CARTESIAN_POINT('', (75., 45., 0.));
#903 = B_SPLINE_CURVE_WITH_KNOTS('', 1, (#904, #905), .UNSPECIFIED., .F., .U., (2, 2), (0., 20.), .UNSPECIFIED.);
#904 = CARTESIAN_POINT('', (75., 45., 0.));
#905 = CARTESIAN_POINT('', (75., 45., 20.));
#906 = ORIENTED_EDGE('', *, *, #907, .F.);
#907 = EDGE_CURVE('', #885, #901, #908, .T.);
#908 = B_SPLINE_CURVE_WITH_KNOTS('', 1, (#909, #910), .UNSPECIFIED., .F., .U., (2, 2), (0., 15.), .UNSPECIFIED.);
#909 = CARTESIAN_POINT('', (60., 45., 0.));
#910 = CARTESIAN_POINT('', (75., 45., 0.));
#911 = B_SPLINE_SURFACE_WITH_KNOTS('', 1, 1, ((#912, #913), (#914, #915)), .UNSPECIFIED., .F., .F., .U., (2, 2), (2, 2), (0., 20.), (0., 15.), .UNSPECIFIED.);
#912 = CARTESIAN_POINT('', (60., 45., 0.));
#913 = CARTESIAN_POINT('', (75., 45., 0.));
#914 = CARTESIAN_POINT('', (60., 45., 20.));
#915 = CARTESIAN_POINT('', (75., 45., 20.));
#916 = ADVANCED_FACE('', (#917), #939, .T.);
#917 = FACE_OUTER_BOUND('', #918, .T.);
#918 = EDGE_LOOP('', (#919, #926, #933, #938));
#919 = ORIENTED_EDGE('', *, *, #920, .F.);
#920 = EDGE_CURVE('', #921, #887, #923, .T.);
#921 = VERTEX_POINT('', #922);
#922 = CARTESIAN_POINT('', (60., 30., 20.));
#923 = B_SPLINE_CURVE_WITH_KNOTS('', 1, (#924, #925), .UNSPECIFIED., .F., .U., (2, 2), (0., 15.), .UNSPECIFIED.);
#924 = CARTESIAN_POINT('', (60., 30., 20.));
#925 = CARTESIAN_POINT('', (60., 45., 20.));
#926 = ORIENTED_EDGE('', *, *, #927, .T.);
#927 = EDGE_CURVE('', #921, #928, #930, .T.);
#928 = VERTEX_POINT('', #929);
#929 = CARTESIAN_POINT('', (75., 30., 20.));
#930 = B_SPLINE_CURVE_WITH_KNOTS('', 1, (#931, #932), .UNSPECIFIED., .F., .U., (2, 2), (0., 15.), .UNSPECIFIED.);
#931 = CARTESIAN_POINT('', (60., 30., 20.));
#932 = CARTESIAN_POINT('', (75., 30., 20.));
#933 = ORIENTED_EDGE('', *, *, #934, .T.);
#934 = EDGE_CURVE('', #928, #894, #935, .T.);
#935 = B_SPLINE_CURVE_WITH_KNOTS('', 1, (#936, #937), .UNSPECIFIED., .F., .U., (2, 2), (0., 15.), .UNSPECIFIED.);
#936 = CARTESIAN_POINT('', (75., 30., 20.));
#937 = CARTESIAN_POINT('', (75., 45., 20.));
#938 = ORIENTED_EDGE('', *, *, #893, .F.);
#939 = B_SPLINE_SURFACE_WITH_KNOTS('', 1, 1, ((#940, #941), (#942, #943)), .UNSPECIFIED., .F., .F., .U., (2, 2), (2, 2), (0., 15.), (0., 15.), .UNSPECIFIED.);
#940 = CARTESIAN_POINT('', (60., 30., 20.));
#941 = CARTESIAN_POINT('', (60., 45., 20.));
#942 = CARTESIAN_POINT('', (75., 30., 20.));
#943 = CARTESIAN_POINT('', (75., 45., 20.));
#944 = ADVANCED_FACE('', (#945), #967, .T.);
#945 = FACE_OUTER_BOUND('', #946, .T.);
#946 = EDGE_LOOP('', (#947, #954, #961, #966));
#947 = ORIENTED_EDGE('', *, *, #948, .F.);
#948 = EDGE_CURVE('', #949, #921, #951, .T.);
#949 = VERTEX_POINT('', #950);
#950 = CARTESIAN_POINT('', (60., 30., 0.));
#951 = B_SPLINE_CURVE_WITH_KNOTS('', 1, (#952, #953), .UNSPECIFIED., .F., .U., (2, 2), (0., 20.), .UNSPECIFIED.);
#952 = CARTESIAN_POINT('', (60., 30., 0.));
#953 = CARTESIAN_POINT('', (60., 30., 20.));
#954 = ORIENTED_EDGE('', *, *, #955, .T.);
#955 = EDGE_CURVE('', #949, #956, #958, .T.);
#956 = VERTEX_POINT('', #957);
#957 = CARTESIAN_POINT('', (75., 30., 0.));
#958 = B_SPLINE_CURVE_WITH_KNOTS('', 1, (#959, #960), .UNSPECIFIED., .F., .U., (2, 2), (0., 15.), .UNSPECIFIED.);
#959 = CARTESIAN_POINT('', (60., 30., 0.));
#960 = CARTESIAN_POINT('', (75., 30., 0.));
#961 = ORIENTED_EDGE('', *, *, #962, .T.);
#962 = EDGE_CURVE('', #956, #928, #963, .T.);
#963 = B_SPLINE_CURVE_WITH_KNOTS('', 1, (#964, #965), .UNSPECIFIED., .F., .U., (2, 2), (0., 20.), .UNSPECIFIED.);
#964 = CARTESIAN_POINT('', (75., 30., 0.));
#965 = CARTESIAN_POINT('', (75., 30., 20.));
#966 = ORIENTED_EDGE('', *, *, #927, .F.);
#967 = B_SPLINE_SURFACE_WITH_KNOTS('', 1, 1, ((#968, #969), (#970, #971)), .UNSPECIFIED., .F., .F., .U., (2, 2), (2, 2), (0., 15.), (0., 20.), .UNSPECIFIED.);
#968 = CARTESIAN_POINT('', (60., 30., 0.));
#969 = CARTESIAN_POINT('', (60., 30., 20.));
#970 = CARTESIAN_POINT('', (75., 30., 0.));
#971 = CARTESIAN_POINT('', (75., 30., 20.));
#972 = ADVANCED_FACE('', (#973), #987, .T.);
#973 = FACE_OUTER_BOUND('', #974, .T.);
#974 = EDGE_LOOP('', (#975, #980, #981, #986));
#975 = ORIENTED_EDGE('', *, *, #976, .T.);
#976 = EDGE_CURVE('', #949, #885, #977, .T.);
#977 = B_SPLINE_CURVE_WITH_KNOTS('', 1, (#978, #979), .UNSPECIFIED., .F., .U., (2, 2), (0., 15.), .UNSPECIFIED.);
#978 = CARTESIAN_POINT('', (60., 30., 0.));
#979 = CARTESIAN_POINT('', (60., 45., 0.));
#980 = ORIENTED_EDGE('', *, *, #907, .T.);
#981 = ORIENTED_EDGE('', *, *, #982, .F.);
#982 = EDGE_CURVE('', #956, #901, #983, .T.);
#983 = B_SPLINE_CURVE_WITH_KNOTS('', 1, (#984, #985), .UNSPECIFIED., .F., .U., (2, 2), (0., 15.), .UNSPECIFIED.);
#984 = CARTESIAN_POINT('', (75., 30., 0.));
#985 = CARTESIAN_POINT('', (75., 45., 0.));
#986 = ORIENTED_EDGE('', *, *, #955, .F.);
#987 = B_SPLINE_SURFACE_WITH_KNOTS('', 1, 1, ((#988, #989), (#990, #991)), .UNSPECIFIED., .F., .F., .U., (2, 2), (2, 2), (0., 15.), (0., 15.), .UNSPECIFIED.);
#988 = CARTESIAN_POINT('', (60., 30., 0.));
#989 = CARTESIAN_POINT('', (75., 30., 0.));
#990 = CARTESIAN_POINT('', (60., 45., 0.));
#991 = CARTESIAN_POINT('', (75., 45., 0.));
#992 = ADVANCED_FACE('', (#993), #999, .T.);
#993 = FACE_OUTER_BOUND('', #994, .T.);
#994 = EDGE_LOOP('', (#995, #996, #997, #998));
#995 = ORIENTED_EDGE('', *, *, #962, .F.);
#996 = ORIENTED_EDGE('', *, *, #982, .T.);
#997 = ORIENTED_EDGE('', *, *, #900, .T.);
#998 = ORIENTED_EDGE('', *, *, #934, .F.);
#999 = B_SPLINE_SURFACE_WITH_KNOTS('', 1, 1, ((#1000, #1001), (#1002, #1003)), .UNSPECIFIED., .F., .F., .U., (2, 2), (2, 2), (0., 15.), (0., 20.), .UNSPECIFIED.);
#1000 = CARTESIAN_POINT('', (75., 30., 0.));
#1001 = CARTESIAN_POINT('', (75., 30., 20.));
#1002 = CARTESIAN_POINT('', (75., 45., 0.));
#1003 = CARTESIAN_POINT('', (75., 45., 20.));
#1004 = ADVANCED_FACE('', (#1005), #1011, .T.);
#1005 = FACE_OUTER_BOUND('', #1006, .T.);
#1006 = EDGE_LOOP('', (#1007, #1008, #1009, #1010));
#1007 = ORIENTED_EDGE('', *, *, #948, .T.);
#1008 = ORIENTED_EDGE('', *, *, #920, .T.);
#1009 = ORIENTED_EDGE('', *, *, #884, .F.);
#1010 = ORIENTED_EDGE('', *, *, #976, .F.);
#1011 = B_SPLINE_SURFACE_WITH_KNOTS('', 1, 1, ((#1012, #1013), (#1014, #1015)), .UNSPECIFIED., .F., .F., .U., (2, 2), (2, 2), (0., 20.), (0., 15.), .UNSPECIFIED.);
#1012 = CARTESIAN_POINT('', (60., 30., 0.));
#1013 = CARTESIAN_POINT('', (60., 45., 0.));
#1014 = CARTESIAN_POINT('', (60., 30., 20.));
#1015 = CARTESIAN_POINT('', (60., 45., 20.));
#1016 = PRESENTATION_STYLE_ASSIGNMENT((#1017));
#1017 = SURFACE_STYLE_USAGE(.POSITIVE., #1018);
#1018 = SURFACE_SIDE_STYLE('', (#1019));
#1019 = SURFACE_STYLE_FILL_AREA(#1020);
#1020 = FILL_AREA_STYLE('', (#1021));
#1021 = FILL_AREA_STYLE_COLOUR('', #1022);
#1022 = COLOUR_RGB('', 0.50196078431373, 0.50196078431373, 0.50196078431373);
#1023 = STYLED_ITEM('', (#1016), #878);
#1024 = MANIFOLD_SOLID_BREP('LP_grid_7', #1025);
#1025 = CLOSED_SHELL('', (#1026, #1062, #1090, #1118, #1138, #1150));
#1026 = ADVANCED_FACE('', (#1027), #1057, .T.);
#1027 = FACE_OUTER_BOUND('', #1028, .T.);
#1028 = EDGE_LOOP('', (#1029, #1038, #1045, #1052));
#1029 = ORIENTED_EDGE('', *, *, #1030, .T.);
#1030 = EDGE_CURVE('', #1031, #1033, #1035, .T.);
#1031 = VERTEX_POINT('', #1032);
#1032 = CARTESIAN_POINT('', (90., 45., 0.));
#1033 = VERTEX_POINT('', #1034);
#1034 = CARTESIAN_POINT('', (90., 45., 20.));
#1035 = B_SPLINE_CURVE_WITH_KNOTS('', 1, (#1036, #1037), .UNSPECIFIED., .F., .U., (2, 2), (0., 20.), .UNSPECIFIED.);
#1036 = CARTESIAN_POINT('', (90., 45., 0.));
#1037 = CARTESIAN_POINT('', (90., 45., 20.));
#1038 = ORIENTED_EDGE('', *, *, #1039, .T.);
#1039 = EDGE_CURVE('', #1033, #1040, #1042, .T.);
#1040 = VERTEX_POINT('', #1041);
#1041 = CARTESIAN_POINT('', (105., 45., 20.));
#1042 = B_SPLINE_CURVE_WITH_KNOTS('', 1, (#1043, #1044), .UNSPECIFIED., .F., .U., (2, 2), (0., 15.), .UNSPECIFIED.);
#1043 = CARTESIAN_POINT('', (90., 45., 20.));
#1044 = CARTESIAN_POINT('', (105., 45., 20.));
#1045 = ORIENTED_EDGE('', *, *, #1046, .F.);
#1046 = EDGE_CURVE('', #1047, #1040, #1049, .T.);
#1047 = VERTEX_POINT('', #1048);
#1048 = CARTESIAN_POINT('', (105., 45., 0.));
#1049 = B_SPLINE_CURVE_WITH_KNOTS('', 1, (#1050, #1051), .UNSPECIFIED., .F., .U., (2, 2), (0., 20.), .UNSPECIFIED.);
#1050 = CARTESIAN_POINT('', (105., 45., 0.));
#1051 = CARTESIAN_POINT('', (105., 45., 20.));
#1052 = ORIENTED_EDGE('', *, *, #1053, .F.);
#1053 = EDGE_CURVE('', #1031, #1047, #1054, .T.);
#1054 = B_SPLINE_CURVE_WITH_KNOTS('', 1, (#1055, #1056), .UNSPECIFIED., .F., .U., (2, 2), (0., 15.), .UNSPECIFIED.);
#1055 = CARTESIAN_POINT('', (90., 45., 0.));
#1056 = CARTESIAN_POINT('', (105., 45., 0.));
#1057 = B_SPLINE_SURFACE_WITH_KNOTS('', 1, 1, ((#1058, #1059), (#1060, #1061)), .UNSPECIFIED., .F., .F., .U., (2, 2), (2, 2), (0., 20.), (0., 15.), .UNSPECIFIED.);
#1058 = CARTESIAN_POINT('', (90., 45., 0.));
#1059 = CARTESIAN_POINT('', (105., 45., 0.));
#1060 = CARTESIAN_POINT('', (90., 45., 20.));
#1061 = CARTESIAN_POINT('', (105., 45., 20.));
#1062 = ADVANCED_FACE('', (#1063), #1085, .T.);
#1063 = FACE_OUTER_BOUND('', #1064, .T.);
#1064 = EDGE_LOOP('', (#1065, #1072, #1079, #1084));
#1065 = ORIENTED_EDGE('', *, *, #1066, .F.);
#1066 = EDGE_CURVE('', #1067, #1033, #1069, .T.);
#1067 = VERTEX_POINT('', #1068);
#1068 = CARTESIAN_POINT('', (90., 30., 20.));
#1069 = B_SPLINE_CURVE_WITH_KNOTS('', 1, (#1070, #1071), .UNSPECIFIED., .F., .U., (2, 2), (0., 15.), .UNSPECIFIED.);
#1070 = CARTESIAN_POINT('', (90., 30., 20.));
#1071 = CARTESIAN_POINT('', (90., 45., 20.));
#1072 = ORIENTED_EDGE('', *, *, #1073, .T.);
#1073 = EDGE_CURVE('', #1067, #1074, #1076, .T.);
#1074 = VERTEX_POINT('', #1075);
#1075 = CARTESIAN_POINT('', (105., 30., 20.));
#1076 = B_SPLINE_CURVE_WITH_KNOTS('', 1, (#1077, #1078), .UNSPECIFIED., .F., .U., (2, 2), (0., 15.), .UNSPECIFIED.);
#1077 = CARTESIAN_POINT('', (90., 30., 20.));
#1078 = CARTESIAN_POINT('', (105., 30., 20.));
#1079 = ORIENTED_EDGE('', *, *, #1080, .T.);
#1080 = EDGE_CURVE('', #1074, #1040, #1081, .T.);
#1081 = B_SPLINE_CURVE_WITH_KNOTS('', 1, (#1082, #1083), .UNSPECIFIED., .F., .U., (2, 2), (0., 15.), .UNSPECIFIED.);
#1082 = CARTESIAN_POINT('', (105., 30., 20.));
#1083 = CARTESIAN_POINT('', (105., 45., 20.));
#1084 = ORIENTED_EDGE('', *, *, #1039, .F.);
#1085 = B_SPLINE_SURFACE_WITH_KNOTS('', 1, 1, ((#1086, #1087), (#1088, #1089)), .UNSPECIFIED., .F., .F., .U., (2, 2), (2, 2), (0., 15.), (0., 15.), .UNSPECIFIED.);
#1086 = CARTESIAN_POINT('', (90., 30., 20.));
#1087 = CARTESIAN_POINT('', (90., 45., 20.));
#1088 = CARTESIAN_POINT('', (105., 30., 20.));
#1089 = CARTESIAN_POINT('', (105., 45., 20.));
#1090 = ADVANCED_FACE('', (#1091), #1113, .T.);
#1091 = FACE_OUTER_BOUND('', #1092, .T.);
#1092 = EDGE_LOOP('', (#1093, #1100, #1107, #1112));
#1093 = ORIENTED_EDGE('', *, *, #1094, .F.);
#1094 = EDGE_CURVE('', #1095, #1067, #1097, .T.);
#1095 = VERTEX_POINT('', #1096);
#1096 = CARTESIAN_POINT('', (90., 30., 0.));
#1097 = B_SPLINE_CURVE_WITH_KNOTS('', 1, (#1098, #1099), .UNSPECIFIED., .F., .U., (2, 2), (0., 20.), .UNSPECIFIED.);
#1098 = CARTESIAN_POINT('', (90., 30., 0.));
#1099 = CARTESIAN_POINT('', (90., 30., 20.));
#1100 = ORIENTED_EDGE('', *, *, #1101, .T.);
#1101 = EDGE_CURVE('', #1095, #1102, #1104, .T.);
#1102 = VERTEX_POINT('', #1103);
#1103 = CARTESIAN_POINT('', (105., 30., 0.));
#1104 = B_SPLINE_CURVE_WITH_KNOTS('', 1, (#1105, #1106), .UNSPECIFIED., .F., .U., (2, 2), (0., 15.), .UNSPECIFIED.);
#1105 = CARTESIAN_POINT('', (90., 30., 0.));
#1106 = CARTESIAN_POINT('', (105., 30., 0.));
#1107 = ORIENTED_EDGE('', *, *, #1108, .T.);
#1108 = EDGE_CURVE('', #1102, #1074, #1109, .T.);
#1109 = B_SPLINE_CURVE_WITH_KNOTS('', 1, (#1110, #1111), .UNSPECIFIED., .F., .U., (2, 2), (0., 20.), .UNSPECIFIED.);
#1110 = CARTESIAN_POINT('', (105., 30., 0.));
#1111 = CARTESIAN_POINT('', (105., 30., 20.));
#1112 = ORIENTED_EDGE('', *, *, #1073, .F.);
#1113 = B_SPLINE_SURFACE_WITH_KNOTS('', 1, 1, ((#1114, #1115), (#1116, #1117)), .UNSPECIFIED., .F., .F., .U., (2, 2), (2, 2), (0., 15.), (0., 20.), .UNSPECIFIED.);
#1114 = CARTESIAN_POINT('', (90., 30., 0.));
#1115 = CARTESIAN_POINT('', (90., 30., 20.));
#1116 = CARTESIAN_POINT('', (105., 30., 0.));
#1117 = CARTESIAN_POINT('', (105., 30., 20.));
#1118 = ADVANCED_FACE('', (#1119), #1133, .T.);
#1119 = FACE_OUTER_BOUND('', #1120, .T.);
#1120 = EDGE_LOOP('', (#1121, #1126, #1127, #1132));
#1121 = ORIENTED_EDGE('', *, *, #1122, .T.);
#1122 = EDGE_CURVE('', #1095, #1031, #1123, .T.);
#1123 = B_SPLINE_CURVE_WITH_KNOTS('', 1, (#1124, #1125), .UNSPECIFIED., .F., .U., (2, 2), (0., 15.), .UNSPECIFIED.);
#1124 = CARTESIAN_POINT('', (90., 30., 0.));
#1125 = CARTESIAN_POINT('', (90., 45., 0.));
#1126 = ORIENTED_EDGE('', *, *, #1053, .T.);
#1127 = ORIENTED_EDGE('', *, *, #1128, .F.);
#1128 = EDGE_CURVE('', #1102, #1047, #1129, .T.);
#1129 = B_SPLINE_CURVE_WITH_KNOTS('', 1, (#1130, #1131), .UNSPECIFIED., .F., .U., (2, 2), (0., 15.), .UNSPECIFIED.);
#1130 = CARTESIAN_POINT('', (105., 30., 0.));
#1131 = CARTESIAN_POINT('', (105., 45., 0.));
#1132 = ORIENTED_EDGE('', *, *, #1101, .F.);
#1133 = B_SPLINE_SURFACE_WITH_KNOTS('', 1, 1, ((#1134, #1135), (#1136, #1137)), .UNSPECIFIED., .F., .F., .U., (2, 2), (2, 2), (0., 15.), (0., 15.), .UNSPECIFIED.);
#1134 = CARTESIAN_POINT('', (90., 30., 0.));
#1135 = CARTESIAN_POINT('', (105., 30., 0.));
#1136 = CARTESIAN_POINT('', (90., 45., 0.));
#1137 = CARTESIAN_POINT('', (105., 45., 0.));
#1138 = ADVANCED_FACE('', (#1139), #1145, .T.);
#1139 = FACE_OUTER_BOUND('', #1140, .T.);
#1140 = EDGE_LOOP('', (#1141, #1142, #1143, #1144));
#1141 = ORIENTED_EDGE('', *, *, #1108, .F.);
#1142 = ORIENTED_EDGE('', *, *, #1128, .T.);
#1143 = ORIENTED_EDGE('', *, *, #1046, .T.);
#1144 = ORIENTED_EDGE('', *, *, #1080, .F.);
#1145 = B_SPLINE_SURFACE_WITH_KNOTS('', 1, 1, ((#1146, #1147), (#1148, #1149)), .UNSPECIFIED., .F., .F., .U., (2, 2), (2, 2), (0., 15.), (0., 20.), .UNSPECIFIED.);
#1146 = CARTESIAN_POINT('', (105., 30., 0.));
#1147 = CARTESIAN_POINT('', (105., 30., 20.));
#1148 = CARTESIAN_POINT('', (105., 45., 0.));
#1149 = CARTESIAN_POINT('', (105., 45., 20.));
#1150 = ADVANCED_FACE('', (#1151), #1157, .T.);
#1151 = FACE_OUTER_BOUND('', #1152, .T.);
#1152 = EDGE_LOOP('', (#1153, #1154, #1155, #1156));
#1153 = ORIENTED_EDGE('', *, *, #1094, .T.);
#1154 = ORIENTED_EDGE('', *, *, #1066, .T.);
#1155 = ORIENTED_EDGE('', *, *, #1030, .F.);
#1156 = ORIENTED_EDGE('', *, *, #1122, .F.);
#1157 = B_SPLINE_SURFACE_WITH_KNOTS('', 1, 1, ((#1158, #1159), (#1160, #1161)), .UNSPECIFIED., .F., .F., .U., (2, 2), (2, 2), (0., 20.), (0., 15.), .UNSPECIFIED.);
#1158 = CARTESIAN_POINT('', (90., 30., 0.));
#1159 = CARTESIAN_POINT('', (90., 45., 0.));
#1160 = CARTESIAN_POINT('', (90., 30., 20.));
#1161 = CARTESIAN_POINT('', (90., 45., 20.));
#1162 = PRESENTATION_STYLE_ASSIGNMENT((#1163));
#1163 = SURFACE_STYLE_USAGE(.POSITIVE., #1164);
#1164 = SURFACE_SIDE_STYLE('', (#1165));
#1165 = SURFACE_STYLE_FILL_AREA(#1166);
#1166 = FILL_AREA_STYLE('', (#1167));
#1167 = FILL_AREA_STYLE_COLOUR('', #1168);
#1168 = COLOUR_RGB('', 0.50196078431373, 0.50196078431373, 0.50196078431373);
#1169 = STYLED_ITEM('', (#1162), #1024);
#1170 = MANIFOLD_SOLID_BREP('LP_grid_8', #1171);
#1171 = CLOSED_SHELL('', (#1172, #1208, #1236, #1264, #1284, #1296));
#1172 = ADVANCED_FACE('', (#1173), #1203, .T.);
#1173 = FACE_OUTER_BOUND('', #1174, .T.);
#1174 = EDGE_LOOP('', (#1175, #1184, #1191, #1198));
#1175 = ORIENTED_EDGE('', *, *, #1176, .T.);
#1176 = EDGE_CURVE('', #1177, #1179, #1181, .T.);
#1177 = VERTEX_POINT('', #1178);
#1178 = CARTESIAN_POINT('', (0., 75., 0.));
#1179 = VERTEX_POINT('', #1180);
#1180 = CARTESIAN_POINT('', (0., 75., 20.));
#1181 = B_SPLINE_CURVE_WITH_KNOTS('', 1, (#1182, #1183), .UNSPECIFIED., .F., .U., (2, 2), (0., 20.), .UNSPECIFIED.);
#1182 = CARTESIAN_POINT('', (0., 75., 0.));
#1183 = CARTESIAN_POINT('', (0., 75., 20.));
#1184 = ORIENTED_EDGE('', *, *, #1185, .T.);
#1185 = EDGE_CURVE('', #1179, #1186, #1188, .T.);
#1186 = VERTEX_POINT('', #1187);
#1187 = CARTESIAN_POINT('', (15., 75., 20.));
#1188 = B_SPLINE_CURVE_WITH_KNOTS('', 1, (#1189, #1190), .UNSPECIFIED., .F., .U., (2, 2), (0., 15.), .UNSPECIFIED.);
#1189 = CARTESIAN_POINT('', (0., 75., 20.));
#1190 = CARTESIAN_POINT('', (15., 75., 20.));
#1191 = ORIENTED_EDGE('', *, *, #1192, .F.);
#1192 = EDGE_CURVE('', #1193, #1186, #1195, .T.);
#1193 = VERTEX_POINT('', #1194);
#1194 = CARTESIAN_POINT('', (15., 75., 0.));
#1195 = B_SPLINE_CURVE_WITH_KNOTS('', 1, (#1196, #1197), .UNSPECIFIED., .F., .U., (2, 2), (0., 20.), .UNSPECIFIED.);
#1196 = CARTESIAN_POINT('', (15., 75., 0.));
#1197 = CARTESIAN_POINT('', (15., 75., 20.));
#1198 = ORIENTED_EDGE('', *, *, #1199, .F.);
#1199 = EDGE_CURVE('', #1177, #1193, #1200, .T.);
#1200 = B_SPLINE_CURVE_WITH_KNOTS('', 1, (#1201, #1202), .UNSPECIFIED., .F., .U., (2, 2), (0., 15.), .UNSPECIFIED.);
#1201 = CARTESIAN_POINT('', (0., 75., 0.));
#1202 = CARTESIAN_POINT('', (15., 75., 0.));
#1203 = B_SPLINE_SURFACE_WITH_KNOTS('', 1, 1, ((#1204, #1205), (#1206, #1207)), .UNSPECIFIED., .F., .F., .U., (2, 2), (2, 2), (0., 20.), (0., 15.), .UNSPECIFIED.);
#1204 = CARTESIAN_POINT('', (0., 75., 0.));
#1205 = CARTESIAN_POINT('', (15., 75., 0.));
#1206 = CARTESIAN_POINT('', (0., 75., 20.));
#1207 = CARTESIAN_POINT('', (15., 75., 20.));
#1208 = ADVANCED_FACE('', (#1209), #1231, .T.);
#1209 = FACE_OUTER_BOUND('', #1210, .T.);
#1210 = EDGE_LOOP('', (#1211, #1218, #1225, #1230));
#1211 = ORIENTED_EDGE('', *, *, #1212, .F.);
#1212 = EDGE_CURVE('', #1213, #1179, #1215, .T.);
#1213 = VERTEX_POINT('', #1214);
#1214 = CARTESIAN_POINT('', (0., 60., 20.));
#1215 = B_SPLINE_CURVE_WITH_KNOTS('', 1, (#1216, #1217), .UNSPECIFIED., .F., .U., (2, 2), (0., 15.), .UNSPECIFIED.);
#1216 = CARTESIAN_POINT('', (0., 60., 20.));
#1217 = CARTESIAN_POINT('', (0., 75., 20.));
#1218 = ORIENTED_EDGE('', *, *, #1219, .T.);
#1219 = EDGE_CURVE('', #1213, #1220, #1222, .T.);
#1220 = VERTEX_POINT('', #1221);
#1221 = CARTESIAN_POINT('', (15., 60., 20.));
#1222 = B_SPLINE_CURVE_WITH_KNOTS('', 1, (#1223, #1224), .UNSPECIFIED., .F., .U., (2, 2), (0., 15.), .UNSPECIFIED.);
#1223 = CARTESIAN_POINT('', (0., 60., 20.));
#1224 = CARTESIAN_POINT('', (15., 60., 20.));
#1225 = ORIENTED_EDGE('', *, *, #1226, .T.);
#1226 = EDGE_CURVE('', #1220, #1186, #1227, .T.);
#1227 = B_SPLINE_CURVE_WITH_KNOTS('', 1, (#1228, #1229), .UNSPECIFIED., .F., .U., (2, 2), (0., 15.), .UNSPECIFIED.);
#1228 = CARTESIAN_POINT('', (15., 60., 20.));
#1229 = CARTESIAN_POINT('', (15., 75., 20.));
#1230 = ORIENTED_EDGE('', *, *, #1185, .F.);
#1231 = B_SPLINE_SURFACE_WITH_KNOTS('', 1, 1, ((#1232, #1233), (#1234, #1235)), .UNSPECIFIED., .F., .F., .U., (2, 2), (2, 2), (0., 15.), (0., 15.), .UNSPECIFIED.);
#1232 = CARTESIAN_POINT('', (0., 60., 20.));
#1233 = CARTESIAN_POINT('', (0., 75., 20.));
#1234 = CARTESIAN_POINT('', (15., 60., 20.));
#1235 = CARTESIAN_POINT('', (15., 75., 20.));
#1236 = ADVANCED_FACE('', (#1237), #1259, .T.);
#1237 = FACE_OUTER_BOUND('', #1238, .T.);
#1238 = EDGE_LOOP('', (#1239, #1246, #1253, #1258));
#1239 = ORIENTED_EDGE('', *, *, #1240, .F.);
#1240 = EDGE_CURVE('', #1241, #1213, #1243, .T.);
#1241 = VERTEX_POINT('', #1242);
#1242 = CARTESIAN_POINT('', (0., 60., 0.));
#1243 = B_SPLINE_CURVE_WITH_KNOTS('', 1, (#1244, #1245), .UNSPECIFIED., .F., .U., (2, 2), (0., 20.), .UNSPECIFIED.);
#1244 = CARTESIAN_POINT('', (0., 60., 0.));
#1245 = CARTESIAN_POINT('', (0., 60., 20.));
#1246 = ORIENTED_EDGE('', *, *, #1247, .T.);
#1247 = EDGE_CURVE('', #1241, #1248, #1250, .T.);
#1248 = VERTEX_POINT('', #1249);
#1249 = CARTESIAN_POINT('', (15., 60., 0.));
#1250 = B_SPLINE_CURVE_WITH_KNOTS('', 1, (#1251, #1252), .UNSPECIFIED., .F., .U., (2, 2), (0., 15.), .UNSPECIFIED.);
#1251 = CARTESIAN_POINT('', (0., 60., 0.));
#1252 = CARTESIAN_POINT('', (15., 60., 0.));
#1253 = ORIENTED_EDGE('', *, *, #1254, .T.);
#1254 = EDGE_CURVE('', #1248, #1220, #1255, .T.);
#1255 = B_SPLINE_CURVE_WITH_KNOTS('', 1, (#1256, #1257), .UNSPECIFIED., .F., .U., (2, 2), (0., 20.), .UNSPECIFIED.);
#1256 = CARTESIAN_POINT('', (15., 60., 0.));
#1257 = CARTESIAN_POINT('', (15., 60., 20.));
#1258 = ORIENTED_EDGE('', *, *, #1219, .F.);
#1259 = B_SPLINE_SURFACE_WITH_KNOTS('', 1, 1, ((#1260, #1261), (#1262, #1263)), .UNSPECIFIED., .F., .F., .U., (2, 2), (2, 2), (0., 15.), (0., 20.), .UNSPECIFIED.);
#1260 = CARTESIAN_POINT('', (0., 60., 0.));
#1261 = CARTESIAN_POINT('', (0., 60., 20.));
#1262 = CARTESIAN_POINT('', (15., 60., 0.));
#1263 = CARTESIAN_POINT('', (15., 60., 20.));
#1264 = ADVANCED_FACE('', (#1265), #1279, .T.);
#1265 = FACE_OUTER_BOUND('', #1266, .T.);
#1266 = EDGE_LOOP('', (#1267, #1272, #1273, #1278));
#1267 = ORIENTED_EDGE('', *, *, #1268, .T.);
#1268 = EDGE_CURVE('', #1241, #1177, #1269, .T.);
#1269 = B_SPLINE_CURVE_WITH_KNOTS('', 1, (#1270, #1271), .UNSPECIFIED., .F., .U., (2, 2), (0., 15.), .UNSPECIFIED.);
#1270 = CARTESIAN_POINT('', (0., 60., 0.));
#1271 = CARTESIAN_POINT('', (0., 75., 0.));
#1272 = ORIENTED_EDGE('', *, *, #1199, .T.);
#1273 = ORIENTED_EDGE('', *, *, #1274, .F.);
#1274 = EDGE_CURVE('', #1248, #1193, #1275, .T.);
#1275 = B_SPLINE_CURVE_WITH_KNOTS('', 1, (#1276, #1277), .UNSPECIFIED., .F., .U., (2, 2), (0., 15.), .UNSPECIFIED.);
#1276 = CARTESIAN_POINT('', (15., 60., 0.));
#1277 = CARTESIAN_POINT('', (15., 75., 0.));
#1278 = ORIENTED_EDGE('', *, *, #1247, .F.);
#1279 = B_SPLINE_SURFACE_WITH_KNOTS('', 1, 1, ((#1280, #1281), (#1282, #1283)), .UNSPECIFIED., .F., .F., .U., (2, 2), (2, 2), (0., 15.), (0., 15.), .UNSPECIFIED.);
#1280 = CARTESIAN_POINT('', (0., 60., 0.));
#1281 = CARTESIAN_POINT('', (15., 60., 0.));
#1282 = CARTESIAN_POINT('', (0., 75., 0.));
#1283 = CARTESIAN_POINT('', (15., 75., 0.));
#1284 = ADVANCED_FACE('', (#1285), #1291, .T.);
#1285 = FACE_OUTER_BOUND('', #1286, .T.);
#1286 = EDGE_LOOP('', (#1287, #1288, #1289, #1290));
#1287 = ORIENTED_EDGE('', *, *, #1254, .F.);
#1288 = ORIENTED_EDGE('', *, *, #1274, .T.);
#1289 = ORIENTED_EDGE('', *, *, #1192, .T.);
#1290 = ORIENTED_EDGE('', *, *, #1226, .F.);
#1291 = B_SPLINE_SURFACE_WITH_KNOTS('', 1, 1, ((#1292, #1293), (#1294, #1295)), .UNSPECIFIED., .F., .F., .U., (2, 2), (2, 2), (0., 15.), (0., 20.), .UNSPECIFIED.);
#1292 = CARTESIAN_POINT('', (15., 60., 0.));
#1293 = CARTESIAN_POINT('', (15., 60., 20.));
#1294 = CARTESIAN_POINT('', (15., 75., 0.));
#1295 = CARTESIAN_POINT('', (15., 75., 20.));
#1296 = ADVANCED_FACE('', (#1297), #1303, .T.);
#1297 = FACE_OUTER_BOUND('', #1298, .T.);
#1298 = EDGE_LOOP('', (#1299, #1300, #1301, #1302));
#1299 = ORIENTED_EDGE('', *, *, #1240, .T.);
#1300 = ORIENTED_EDGE('', *, *, #1212, .T.);
#1301 = ORIENTED_EDGE('', *, *, #1176, .F.);
#1302 = ORIENTED_EDGE('', *, *, #1268, .F.);
#1303 = B_SPLINE_SURFACE_WITH_KNOTS('', 1, 1, ((#1304, #1305), (#1306, #1307)), .UNSPECIFIED., .F., .F., .U., (2, 2), (2, 2), (0., 20.), (0., 15.), .UNSPECIFIED.);
#1304 = CARTESIAN_POINT('', (0., 60., 0.));
#1305 = CARTESIAN_POINT('', (0., 75., 0.));
#1306 = CARTESIAN_POINT('', (0., 60., 20.));
#1307 = CARTESIAN_POINT('', (0., 75., 20.));
#1308 = PRESENTATION_STYLE_ASSIGNMENT((#1309));
#1309 = SURFACE_STYLE_USAGE(.POSITIVE., #1310);
#1310 = SURFACE_SIDE_STYLE('', (#1311));
#1311 = SURFACE_STYLE_FILL_AREA(#1312);
#1312 = FILL_AREA_STYLE('', (#1313));
#1313 = FILL_AREA_STYLE_COLOUR('', #1314);
#1314 = COLOUR_RGB('', 0.50196078431373, 0.50196078431373, 0.50196078431373);
#1315 = STYLED_ITEM('', (#1308), #1170);
#1316 = MANIFOLD_SOLID_BREP('LP_grid_9', #1317);
#1317 = CLOSED_SHELL('', (#1318, #1354, #1382, #1410, #1430, #1442));
#1318 = ADVANCED_FACE('', (#1319), #1349, .T.);
#1319 = FACE_OUTER_BOUND('', #1320, .T.);
#1320 = EDGE_LOOP('', (#1321, #1330, #1337, #1344));
#1321 = ORIENTED_EDGE('', *, *, #1322, .T.);
#1322 = EDGE_CURVE('', #1323, #1325, #1327, .T.);
#1323 = VERTEX_POINT('', #1324);
#1324 = CARTESIAN_POINT('', (30., 75., 0.));
#1325 = VERTEX_POINT('', #1326);
#1326 = CARTESIAN_POINT('', (30., 75., 20.));
#1327 = B_SPLINE_CURVE_WITH_KNOTS('', 1, (#1328, #1329), .UNSPECIFIED., .F., .U., (2, 2), (0., 20.), .UNSPECIFIED.);
#1328 = CARTESIAN_POINT('', (30., 75., 0.));
#1329 = CARTESIAN_POINT('', (30., 75., 20.));
#1330 = ORIENTED_EDGE('', *, *, #1331, .T.);
#1331 = EDGE_CURVE('', #1325, #1332, #1334, .T.);
#1332 = VERTEX_POINT('', #1333);
#1333 = CARTESIAN_POINT('', (45., 75., 20.));
#1334 = B_SPLINE_CURVE_WITH_KNOTS('', 1, (#1335, #1336), .UNSPECIFIED., .F., .U., (2, 2), (0., 15.), .UNSPECIFIED.);
#1335 = CARTESIAN_POINT('', (30., 75., 20.));
#1336 = CARTESIAN_POINT('', (45., 75., 20.));
#1337 = ORIENTED_EDGE('', *, *, #1338, .F.);
#1338 = EDGE_CURVE('', #1339, #1332, #1341, .T.);
#1339 = VERTEX_POINT('', #1340);
#1340 = CARTESIAN_POINT('', (45., 75., 0.));
#1341 = B_SPLINE_CURVE_WITH_KNOTS('', 1, (#1342, #1343), .UNSPECIFIED., .F., .U., (2, 2), (0., 20.), .UNSPECIFIED.);
#1342 = CARTESIAN_POINT('', (45., 75., 0.));
#1343 = CARTESIAN_POINT('', (45., 75., 20.));
#1344 = ORIENTED_EDGE('', *, *, #1345, .F.);
#1345 = EDGE_CURVE('', #1323, #1339, #1346, .T.);
#1346 = B_SPLINE_CURVE_WITH_KNOTS('', 1, (#1347, #1348), .UNSPECIFIED., .F., .U., (2, 2), (0., 15.), .UNSPECIFIED.);
#1347 = CARTESIAN_POINT('', (30., 75., 0.));
#1348 = CARTESIAN_POINT('', (45., 75., 0.));
#1349 = B_SPLINE_SURFACE_WITH_KNOTS('', 1, 1, ((#1350, #1351), (#1352, #1353)), .UNSPECIFIED., .F., .F., .U., (2, 2), (2, 2), (0., 20.), (0., 15.), .UNSPECIFIED.);
#1350 = CARTESIAN_POINT('', (30., 75., 0.));
#1351 = CARTESIAN_POINT('', (45., 75., 0.));
#1352 = CARTESIAN_POINT('', (30., 75., 20.));
#1353 = CARTESIAN_POINT('', (45., 75., 20.));
#1354 = ADVANCED_FACE('', (#1355), #1377, .T.);
#1355 = FACE_OUTER_BOUND('', #1356, .T.);
#1356 = EDGE_LOOP('', (#1357, #1364, #1371, #1376));
#1357 = ORIENTED_EDGE('', *, *, #1358, .F.);
#1358 = EDGE_CURVE('', #1359, #1325, #1361, .T.);
#1359 = VERTEX_POINT('', #1360);
#1360 = CARTESIAN_POINT('', (30., 60., 20.));
#1361 = B_SPLINE_CURVE_WITH_KNOTS('', 1, (#1362, #1363), .UNSPECIFIED., .F., .U., (2, 2), (0., 15.), .UNSPECIFIED.);
#1362 = CARTESIAN_POINT('', (30., 60., 20.));
#1363 = CARTESIAN_POINT('', (30., 75., 20.));
#1364 = ORIENTED_EDGE('', *, *, #1365, .T.);
#1365 = EDGE_CURVE('', #1359, #1366, #1368, .T.);
#1366 = VERTEX_POINT('', #1367);
#1367 = CARTESIAN_POINT('', (45., 60., 20.));
#1368 = B_SPLINE_CURVE_WITH_KNOTS('', 1, (#1369, #1370), .UNSPECIFIED., .F., .U., (2, 2), (0., 15.), .UNSPECIFIED.);
#1369 = CARTESIAN_POINT('', (30., 60., 20.));
#1370 = CARTESIAN_POINT('', (45., 60., 20.));
#1371 = ORIENTED_EDGE('', *, *, #1372, .T.);
#1372 = EDGE_CURVE('', #1366, #1332, #1373, .T.);
#1373 = B_SPLINE_CURVE_WITH_KNOTS('', 1, (#1374, #1375), .UNSPECIFIED., .F., .U., (2, 2), (0., 15.), .UNSPECIFIED.);
#1374 = CARTESIAN_POINT('', (45., 60., 20.));
#1375 = CARTESIAN_POINT('', (45., 75., 20.));
#1376 = ORIENTED_EDGE('', *, *, #1331, .F.);
#1377 = B_SPLINE_SURFACE_WITH_KNOTS('', 1, 1, ((#1378, #1379), (#1380, #1381)), .UNSPECIFIED., .F., .F., .U., (2, 2), (2, 2), (0., 15.), (0., 15.), .UNSPECIFIED.);
#1378 = CARTESIAN_POINT('', (30., 60., 20.));
#1379 = CARTESIAN_POINT('', (30., 75., 20.));
#1380 = CARTESIAN_POINT('', (45., 60., 20.));
#1381 = CARTESIAN_POINT('', (45., 75., 20.));
#1382 = ADVANCED_FACE('', (#1383), #1405, .T.);
#1383 = FACE_OUTER_BOUND('', #1384, .T.);
#1384 = EDGE_LOOP('', (#1385, #1392, #1399, #1404));
#1385 = ORIENTED_EDGE('', *, *, #1386, .F.);
#1386 = EDGE_CURVE('', #1387, #1359, #1389, .T.);
#1387 = VERTEX_POINT('', #1388);
#1388 = CARTESIAN_POINT('', (30., 60., 0.));
#1389 = B_SPLINE_CURVE_WITH_KNOTS('', 1, (#1390, #1391), .UNSPECIFIED., .F., .U., (2, 2), (0., 20.), .UNSPECIFIED.);
#1390 = CARTESIAN_POINT('', (30., 60., 0.));
#1391 = CARTESIAN_POINT('', (30., 60., 20.));
#1392 = ORIENTED_EDGE('', *, *, #1393, .T.);
#1393 = EDGE_CURVE('', #1387, #1394, #1396, .T.);
#1394 = VERTEX_POINT('', #1395);
#1395 = CARTESIAN_POINT('', (45., 60., 0.));
#1396 = B_SPLINE_CURVE_WITH_KNOTS('', 1, (#1397, #1398), .UNSPECIFIED., .F., .U., (2, 2), (0., 15.), .UNSPECIFIED.);
#1397 = CARTESIAN_POINT('', (30., 60., 0.));
#1398 = CARTESIAN_POINT('', (45., 60., 0.));
#1399 = ORIENTED_EDGE('', *, *, #1400, .T.);
#1400 = EDGE_CURVE('', #1394, #1366, #1401, .T.);
#1401 = B_SPLINE_CURVE_WITH_KNOTS('', 1, (#1402, #1403), .UNSPECIFIED., .F., .U., (2, 2), (0., 20.), .UNSPECIFIED.);
#1402 = CARTESIAN_POINT('', (45., 60., 0.));
#1403 = CARTESIAN_POINT('', (45., 60., 20.));
#1404 = ORIENTED_EDGE('', *, *, #1365, .F.);
#1405 = B_SPLINE_SURFACE_WITH_KNOTS('', 1, 1, ((#1406, #1407), (#1408, #1409)), .UNSPECIFIED., .F., .F., .U., (2, 2), (2, 2), (0., 15.), (0., 20.), .UNSPECIFIED.);
#1406 = CARTESIAN_POINT('', (30., 60., 0.));
#1407 = CARTESIAN_POINT('', (30., 60., 20.));
#1408 = CARTESIAN_POINT('', (45., 60., 0.));
#1409 = CARTESIAN_POINT('', (45., 60., 20.));
#1410 = ADVANCED_FACE('', (#1411), #1425, .T.);
#1411 = FACE_OUTER_BOUND('', #1412, .T.);
#1412 = EDGE_LOOP('', (#1413, #1418, #1419, #1424));
#1413 = ORIENTED_EDGE('', *, *, #1414, .T.);
#1414 = EDGE_CURVE('', #1387, #1323, #1415, .T.);
#1415 = B_SPLINE_CURVE_WITH_KNOTS('', 1, (#1416, #1417), .UNSPECIFIED., .F., .U., (2, 2), (0., 15.), .UNSPECIFIED.);
#1416 = CARTESIAN_POINT('', (30., 60., 0.));
#1417 = CARTESIAN_POINT('', (30., 75., 0.));
#1418 = ORIENTED_EDGE('', *, *, #1345, .T.);
#1419 = ORIENTED_EDGE('', *, *, #1420, .F.);
#1420 = EDGE_CURVE('', #1394, #1339, #1421, .T.);
#1421 = B_SPLINE_CURVE_WITH_KNOTS('', 1, (#1422, #1423), .UNSPECIFIED., .F., .U., (2, 2), (0., 15.), .UNSPECIFIED.);
#1422 = CARTESIAN_POINT('', (45., 60., 0.));
#1423 = CARTESIAN_POINT('', (45., 75., 0.));
#1424 = ORIENTED_EDGE('', *, *, #1393, .F.);
#1425 = B_SPLINE_SURFACE_WITH_KNOTS('', 1, 1, ((#1426, #1427), (#1428, #1429)), .UNSPECIFIED., .F., .F., .U., (2, 2), (2, 2), (0., 15.), (0., 15.), .UNSPECIFIED.);
#1426 = CARTESIAN_POINT('', (30., 60., 0.));
#1427 = CARTESIAN_POINT('', (45., 60., 0.));
#1428 = CARTESIAN_POINT('', (30., 75., 0.));
#1429 = CARTESIAN_POINT('', (45., 75., 0.));
#1430 = ADVANCED_FACE('', (#1431), #1437, .T.);
#1431 = FACE_OUTER_BOUND('', #1432, .T.);
#1432 = EDGE_LOOP('', (#1433, #1434, #1435, #1436));
#1433 = ORIENTED_EDGE('', *, *, #1400, .F.);
#1434 = ORIENTED_EDGE('', *, *, #1420, .T.);
#1435 = ORIENTED_EDGE('', *, *, #1338, .T.);
#1436 = ORIENTED_EDGE('', *, *, #1372, .F.);
#1437 = B_SPLINE_SURFACE_WITH_KNOTS('', 1, 1, ((#1438, #1439), (#1440, #1441)), .UNSPECIFIED., .F., .F., .U., (2, 2), (2, 2), (0., 15.), (0., 20.), .UNSPECIFIED.);
#1438 = CARTESIAN_POINT('', (45., 60., 0.));
#1439 = CARTESIAN_POINT('', (45., 60., 20.));
#1440 = CARTESIAN_POINT('', (45., 75., 0.));
#1441 = CARTESIAN_POINT('', (45., 75., 20.));
#1442 = ADVANCED_FACE('', (#1443), #1449, .T.);
#1443 = FACE_OUTER_BOUND('', #1444, .T.);
#1444 = EDGE_LOOP('', (#1445, #1446, #1447, #1448));
#1445 = ORIENTED_EDGE('', *, *, #1386, .T.);
#1446 = ORIENTED_EDGE('', *, *, #1358, .T.);
#1447 = ORIENTED_EDGE('', *, *, #1322, .F.);
#1448 = ORIENTED_EDGE('', *, *, #1414, .F.);
#1449 = B_SPLINE_SURFACE_WITH_KNOTS('', 1, 1, ((#1450, #1451), (#1452, #1453)), .UNSPECIFIED., .F., .F., .U., (2, 2), (2, 2), (0., 20.), (0., 15.), .UNSPECIFIED.);
#1450 = CARTESIAN_POINT('', (30., 60., 0.));
#1451 = CARTESIAN_POINT('', (30., 75., 0.));
#1452 = CARTESIAN_POINT('', (30., 60., 20.));
#1453 = CARTESIAN_POINT('', (30., 75., 20.));
#1454 = PRESENTATION_STYLE_ASSIGNMENT((#1455));
#1455 = SURFACE_STYLE_USAGE(.POSITIVE., #1456);
#1456 = SURFACE_SIDE_STYLE('', (#1457));
#1457 = SURFACE_STYLE_FILL_AREA(#1458);
#1458 = FILL_AREA_STYLE('', (#1459));
#1459 = FILL_AREA_STYLE_COLOUR('', #1460);
#1460 = COLOUR_RGB('', 0.50196078431373, 0.50196078431373, 0.50196078431373);
#1461 = STYLED_ITEM('', (#1454), #1316);
#1462 = MANIFOLD_SOLID_BREP('LP_grid_10', #1463);
#1463 = CLOSED_SHELL('', (#1464, #1500, #1528, #1556, #1576, #1588));
#1464 = ADVANCED_FACE('', (#1465), #1495, .T.);
#1465 = FACE_OUTER_BOUND('', #1466, .T.);
#1466 = EDGE_LOOP('', (#1467, #1476, #1483, #1490));
#1467 = ORIENTED_EDGE('', *, *, #1468, .T.);
#1468 = EDGE_CURVE('', #1469, #1471, #1473, .T.);
#1469 = VERTEX_POINT('', #1470);
#1470 = CARTESIAN_POINT('', (60., 75., 0.));
#1471 = VERTEX_POINT('', #1472);
#1472 = CARTESIAN_POINT('', (60., 75., 20.));
#1473 = B_SPLINE_CURVE_WITH_KNOTS('', 1, (#1474, #1475), .UNSPECIFIED., .F., .U., (2, 2), (0., 20.), .UNSPECIFIED.);
#1474 = CARTESIAN_POINT('', (60., 75., 0.));
#1475 = CARTESIAN_POINT('', (60., 75., 20.));
#1476 = ORIENTED_EDGE('', *, *, #1477, .T.);
#1477 = EDGE_CURVE('', #1471, #1478, #1480, .T.);
#1478 = VERTEX_POINT('', #1479);
#1479 = CARTESIAN_POINT('', (75., 75., 20.));
#1480 = B_SPLINE_CURVE_WITH_KNOTS('', 1, (#1481, #1482), .UNSPECIFIED., .F., .U., (2, 2), (0., 15.), .UNSPECIFIED.);
#1481 = CARTESIAN_POINT('', (60., 75., 20.));
#1482 = CARTESIAN_POINT('', (75., 75., 20.));
#1483 = ORIENTED_EDGE('', *, *, #1484, .F.);
#1484 = EDGE_CURVE('', #1485, #1478, #1487, .T.);
#1485 = VERTEX_POINT('', #1486);
#1486 = CARTESIAN_POINT('', (75., 75., 0.));
#1487 = B_SPLINE_CURVE_WITH_KNOTS('', 1, (#1488, #1489), .UNSPECIFIED., .F., .U., (2, 2), (0., 20.), .UNSPECIFIED.);
#1488 = CARTESIAN_POINT('', (75., 75., 0.));
#1489 = CARTESIAN_POINT('', (75., 75., 20.));
#1490 = ORIENTED_EDGE('', *, *, #1491, .F.);
#1491 = EDGE_CURVE('', #1469, #1485, #1492, .T.);
#1492 = B_SPLINE_CURVE_WITH_KNOTS('', 1, (#1493, #1494), .UNSPECIFIED., .F., .U., (2, 2), (0., 15.), .UNSPECIFIED.);
#1493 = CARTESIAN_POINT('', (60., 75., 0.));
#1494 = CARTESIAN_POINT('', (75., 75., 0.));
#1495 = B_SPLINE_SURFACE_WITH_KNOTS('', 1, 1, ((#1496, #1497), (#1498, #1499)), .UNSPECIFIED., .F., .F., .U., (2, 2), (2, 2), (0., 20.), (0., 15.), .UNSPECIFIED.);
#1496 = CARTESIAN_POINT('', (60., 75., 0.));
#1497 = CARTESIAN_POINT('', (75., 75., 0.));
#1498 = CARTESIAN_POINT('', (60., 75., 20.));
#1499 = CARTESIAN_POINT('', (75., 75., 20.));
#1500 = ADVANCED_FACE('', (#1501), #1523, .T.);
#1501 = FACE_OUTER_BOUND('', #1502, .T.);
#1502 = EDGE_LOOP('', (#1503, #1510, #1517, #1522));
#1503 = ORIENTED_EDGE('', *, *, #1504, .F.);
#1504 = EDGE_CURVE('', #1505, #1471, #1507, .T.);
#1505 = VERTEX_POINT('', #1506);
#1506 = CARTESIAN_POINT('', (60., 60., 20.));
#1507 = B_SPLINE_CURVE_WITH_KNOTS('', 1, (#1508, #1509), .UNSPECIFIED., .F., .U., (2, 2), (0., 15.), .UNSPECIFIED.);
#1508 = CARTESIAN_POINT('', (60., 60., 20.));
#1509 = CARTESIAN_POINT('', (60., 75., 20.));
#1510 = ORIENTED_EDGE('', *, *, #1511, .T.);
#1511 = EDGE_CURVE('', #1505, #1512, #1514, .T.);
#1512 = VERTEX_POINT('', #1513);
#1513 = CARTESIAN_POINT('', (75., 60., 20.));
#1514 = B_SPLINE_CURVE_WITH_KNOTS('', 1, (#1515, #1516), .UNSPECIFIED., .F., .U., (2, 2), (0., 15.), .UNSPECIFIED.);
#1515 = CARTESIAN_POINT('', (60., 60., 20.));
#1516 = CARTESIAN_POINT('', (75., 60., 20.));
#1517 = ORIENTED_EDGE('', *, *, #1518, .T.);
#1518 = EDGE_CURVE('', #1512, #1478, #1519, .T.);
#1519 = B_SPLINE_CURVE_WITH_KNOTS('', 1, (#1520, #1521), .UNSPECIFIED., .F., .U., (2, 2), (0., 15.), .UNSPECIFIED.);
#1520 = CARTESIAN_POINT('', (75., 60., 20.));
#1521 = CARTESIAN_POINT('', (75., 75., 20.));
#1522 = ORIENTED_EDGE('', *, *, #1477, .F.);
#1523 = B_SPLINE_SURFACE_WITH_KNOTS('', 1, 1, ((#1524, #1525), (#1526, #1527)), .UNSPECIFIED., .F., .F., .U., (2, 2), (2, 2), (0., 15.), (0., 15.), .UNSPECIFIED.);
#1524 = CARTESIAN_POINT('', (60., 60., 20.));
#1525 = CARTESIAN_POINT('', (60., 75., 20.));
#1526 = CARTESIAN_POINT('', (75., 60., 20.));
#1527 = CARTESIAN_POINT('', (75., 75., 20.));
#1528 = ADVANCED_FACE('', (#1529), #1551, .T.);
#1529 = FACE_OUTER_BOUND('', #1530, .T.);
#1530 = EDGE_LOOP('', (#1531, #1538, #1545, #1550));
#1531 = ORIENTED_EDGE('', *, *, #1532, .F.);
#1532 = EDGE_CURVE('', #1533, #1505, #1535, .T.);
#1533 = VERTEX_POINT('', #1534);
#1534 = CARTESIAN_POINT('', (60., 60., 0.));
#1535 = B_SPLINE_CURVE_WITH_KNOTS('', 1, (#1536, #1537), .UNSPECIFIED., .F., .U., (2, 2), (0., 20.), .UNSPECIFIED.);
#1536 = CARTESIAN_POINT('', (60., 60., 0.));
#1537 = CARTESIAN_POINT('', (60., 60., 20.));
#1538 = ORIENTED_EDGE('', *, *, #1539, .T.);
#1539 = EDGE_CURVE('', #1533, #1540, #1542, .T.);
#1540 = VERTEX_POINT('', #1541);
#1541 = CARTESIAN_POINT('', (75., 60., 0.));
#1542 = B_SPLINE_CURVE_WITH_KNOTS('', 1, (#1543, #1544), .UNSPECIFIED., .F., .U., (2, 2), (0., 15.), .UNSPECIFIED.);
#1543 = CARTESIAN_POINT('', (60., 60., 0.));
#1544 = CARTESIAN_POINT('', (75., 60., 0.));
#1545 = ORIENTED_EDGE('', *, *, #1546, .T.);
#1546 = EDGE_CURVE('', #1540, #1512, #1547, .T.);
#1547 = B_SPLINE_CURVE_WITH_KNOTS('', 1, (#1548, #1549), .UNSPECIFIED., .F., .U., (2, 2), (0., 20.), .UNSPECIFIED.);
#1548 = CARTESIAN_POINT('', (75., 60., 0.));
#1549 = CARTESIAN_POINT('', (75., 60., 20.));
#1550 = ORIENTED_EDGE('', *, *, #1511, .F.);
#1551 = B_SPLINE_SURFACE_WITH_KNOTS('', 1, 1, ((#1552, #1553), (#1554, #1555)), .UNSPECIFIED., .F., .F., .U., (2, 2), (2, 2), (0., 15.), (0., 20.), .UNSPECIFIED.);
#1552 = CARTESIAN_POINT('', (60., 60., 0.));
#1553 = CARTESIAN_POINT('', (60., 60., 20.));
#1554 = CARTESIAN_POINT('', (75., 60., 0.));
#1555 = CARTESIAN_POINT('', (75., 60., 20.));
#1556 = ADVANCED_FACE('', (#1557), #1571, .T.);
#1557 = FACE_OUTER_BOUND('', #1558, .T.);
#1558 = EDGE_LOOP('', (#1559, #1564, #1565, #1570));
#1559 = ORIENTED_EDGE('', *, *, #1560, .T.);
#1560 = EDGE_CURVE('', #1533, #1469, #1561, .T.);
#1561 = B_SPLINE_CURVE_WITH_KNOTS('', 1, (#1562, #1563), .UNSPECIFIED., .F., .U., (2, 2), (0., 15.), .UNSPECIFIED.);
#1562 = CARTESIAN_POINT('', (60., 60., 0.));
#1563 = CARTESIAN_POINT('', (60., 75., 0.));
#1564 = ORIENTED_EDGE('', *, *, #1491, .T.);
#1565 = ORIENTED_EDGE('', *, *, #1566, .F.);
#1566 = EDGE_CURVE('', #1540, #1485, #1567, .T.);
#1567 = B_SPLINE_CURVE_WITH_KNOTS('', 1, (#1568, #1569), .UNSPECIFIED., .F., .U., (2, 2), (0., 15.), .UNSPECIFIED.);
#1568 = CARTESIAN_POINT('', (75., 60., 0.));
#1569 = CARTESIAN_POINT('', (75., 75., 0.));
#1570 = ORIENTED_EDGE('', *, *, #1539, .F.);
#1571 = B_SPLINE_SURFACE_WITH_KNOTS('', 1, 1, ((#1572, #1573), (#1574, #1575)), .UNSPECIFIED., .F., .F., .U., (2, 2), (2, 2), (0., 15.), (0., 15.), .UNSPECIFIED.);
#1572 = CARTESIAN_POINT('', (60., 60., 0.));
#1573 = CARTESIAN_POINT('', (75., 60., 0.));
#1574 = CARTESIAN_POINT('', (60., 75., 0.));
#1575 = CARTESIAN_POINT('', (75., 75., 0.));
#1576 = ADVANCED_FACE('', (#1577), #1583, .T.);
#1577 = FACE_OUTER_BOUND('', #1578, .T.);
#1578 = EDGE_LOOP('', (#1579, #1580, #1581, #1582));
#1579 = ORIENTED_EDGE('', *, *, #1546, .F.);
#1580 = ORIENTED_EDGE('', *, *, #1566, .T.);
#1581 = ORIENTED_EDGE('', *, *, #1484, .T.);
#1582 = ORIENTED_EDGE('', *, *, #1518, .F.);
#1583 = B_SPLINE_SURFACE_WITH_KNOTS('', 1, 1, ((#1584, #1585), (#1586, #1587)), .UNSPECIFIED., .F., .F., .U., (2, 2), (2, 2), (0., 15.), (0., 20.), .UNSPECIFIED.);
#1584 = CARTESIAN_POINT('', (75., 60., 0.));
#1585 = CARTESIAN_POINT('', (75., 60., 20.));
#1586 = CARTESIAN_POINT('', (75., 75., 0.));
#1587 = CARTESIAN_POINT('', (75., 75., 20.));
#1588 = ADVANCED_FACE('', (#1589), #1595, .T.);
#1589 = FACE_OUTER_BOUND('', #1590, .T.);
#1590 = EDGE_LOOP('', (#1591, #1592, #1593, #1594));
#1591 = ORIENTED_EDGE('', *, *, #1532, .T.);
#1592 = ORIENTED_EDGE('', *, *, #1504, .T.);
#1593 = ORIENTED_EDGE('', *, *, #1468, .F.);
#1594 = ORIENTED_EDGE('', *, *, #1560, .F.);
#1595 = B_SPLINE_SURFACE_WITH_KNOTS('', 1, 1, ((#1596, #1597), (#1598, #1599)), .UNSPECIFIED., .F., .F., .U., (2, 2), (2, 2), (0., 20.), (0., 15.), .UNSPECIFIED.);
#1596 = CARTESIAN_POINT('', (60., 60., 0.));
#1597 = CARTESIAN_POINT('', (60., 75., 0.));
#1598 = CARTESIAN_POINT('', (60., 60., 20.));
#1599 = CARTESIAN_POINT('', (60., 75., 20.));
#1600 = PRESENTATION_STYLE_ASSIGNMENT((#1601));
#1601 = SURFACE_STYLE_USAGE(.POSITIVE., #1602);
#1602 = SURFACE_SIDE_STYLE('', (#1603));
#1603 = SURFACE_STYLE_FILL_AREA(#1604);
#1604 = FILL_AREA_STYLE('', (#1605));
#1605 = FILL_AREA_STYLE_COLOUR('', #1606);
#1606 = COLOUR_RGB('', 0.50196078431373, 0.50196078431373, 0.50196078431373);
#1607 = STYLED_ITEM('', (#1600), #1462);
#1608 = MANIFOLD_SOLID_BREP('LP_grid_11', #1609);
#1609 = CLOSED_SHELL('', (#1610, #1646, #1674, #1702, #1722, #1734));
#1610 = ADVANCED_FACE('', (#1611), #1641, .T.);
#1611 = FACE_OUTER_BOUND('', #1612, .T.);
#1612 = EDGE_LOOP('', (#1613, #1622, #1629, #1636));
#1613 = ORIENTED_EDGE('', *, *, #1614, .T.);
#1614 = EDGE_CURVE('', #1615, #1617, #1619, .T.);
#1615 = VERTEX_POINT('', #1616);
#1616 = CARTESIAN_POINT('', (90., 75., 0.));
#1617 = VERTEX_POINT('', #1618);
#1618 = CARTESIAN_POINT('', (90., 75., 20.));
#1619 = B_SPLINE_CURVE_WITH_KNOTS('', 1, (#1620, #1621), .UNSPECIFIED., .F., .U., (2, 2), (0., 20.), .UNSPECIFIED.);
#1620 = CARTESIAN_POINT('', (90., 75., 0.));
#1621 = CARTESIAN_POINT('', (90., 75., 20.));
#1622 = ORIENTED_EDGE('', *, *, #1623, .T.);
#1623 = EDGE_CURVE('', #1617, #1624, #1626, .T.);
#1624 = VERTEX_POINT('', #1625);
#1625 = CARTESIAN_POINT('', (105., 75., 20.));
#1626 = B_SPLINE_CURVE_WITH_KNOTS('', 1, (#1627, #1628), .UNSPECIFIED., .F., .U., (2, 2), (0., 15.), .UNSPECIFIED.);
#1627 = CARTESIAN_POINT('', (90., 75., 20.));
#1628 = CARTESIAN_POINT('', (105., 75., 20.));
#1629 = ORIENTED_EDGE('', *, *, #1630, .F.);
#1630 = EDGE_CURVE('', #1631, #1624, #1633, .T.);
#1631 = VERTEX_POINT('', #1632);
#1632 = CARTESIAN_POINT('', (105., 75., 0.));
#1633 = B_SPLINE_CURVE_WITH_KNOTS('', 1, (#1634, #1635), .UNSPECIFIED., .F., .U., (2, 2), (0., 20.), .UNSPECIFIED.);
#1634 = CARTESIAN_POINT('', (105., 75., 0.));
#1635 = CARTESIAN_POINT('', (105., 75., 20.));
#1636 = ORIENTED_EDGE('', *, *, #1637, .F.);
#1637 = EDGE_CURVE('', #1615, #1631, #1638, .T.);
#1638 = B_SPLINE_CURVE_WITH_KNOTS('', 1, (#1639, #1640), .UNSPECIFIED., .F., .U., (2, 2), (0., 15.), .UNSPECIFIED.);
#1639 = CARTESIAN_POINT('', (90., 75., 0.));
#1640 = CARTESIAN_POINT('', (105., 75., 0.));
#1641 = B_SPLINE_SURFACE_WITH_KNOTS('', 1, 1, ((#1642, #1643), (#1644, #1645)), .UNSPECIFIED., .F., .F., .U., (2, 2), (2, 2), (0., 20.), (0., 15.), .UNSPECIFIED.);
#1642 = CARTESIAN_POINT('', (90., 75., 0.));
#1643 = CARTESIAN_POINT('', (105., 75., 0.));
#1644 = CARTESIAN_POINT('', (90., 75., 20.));
#1645 = CARTESIAN_POINT('', (105., 75., 20.));
#1646 = ADVANCED_FACE('', (#1647), #1669, .T.);
#1647 = FACE_OUTER_BOUND('', #1648, .T.);
#1648 = EDGE_LOOP('', (#1649, #1656, #1663, #1668));
#1649 = ORIENTED_EDGE('', *, *, #1650, .F.);
#1650 = EDGE_CURVE('', #1651, #1617, #1653, .T.);
#1651 = VERTEX_POINT('', #1652);
#1652 = CARTESIAN_POINT('', (90., 60., 20.));
#1653 = B_SPLINE_CURVE_WITH_KNOTS('', 1, (#1654, #1655), .UNSPECIFIED., .F., .U., (2, 2), (0., 15.), .UNSPECIFIED.);
#1654 = CARTESIAN_POINT('', (90., 60., 20.));
#1655 = CARTESIAN_POINT('', (90., 75., 20.));
#1656 = ORIENTED_EDGE('', *, *, #1657, .T.);
#1657 = EDGE_CURVE('', #1651, #1658, #1660, .T.);
#1658 = VERTEX_POINT('', #1659);
#1659 = CARTESIAN_POINT('', (105., 60., 20.));
#1660 = B_SPLINE_CURVE_WITH_KNOTS('', 1, (#1661, #1662), .UNSPECIFIED., .F., .U., (2, 2), (0., 15.), .UNSPECIFIED.);
#1661 = CARTESIAN_POINT('', (90., 60., 20.));
#1662 = CARTESIAN_POINT('', (105., 60., 20.));
#1663 = ORIENTED_EDGE('', *, *, #1664, .T.);
#1664 = EDGE_CURVE('', #1658, #1624, #1665, .T.);
#1665 = B_SPLINE_CURVE_WITH_KNOTS('', 1, (#1666, #1667), .UNSPECIFIED., .F., .U., (2, 2), (0., 15.), .UNSPECIFIED.);
#1666 = CARTESIAN_POINT('', (105., 60., 20.));
#1667 = CARTESIAN_POINT('', (105., 75., 20.));
#1668 = ORIENTED_EDGE('', *, *, #1623, .F.);
#1669 = B_SPLINE_SURFACE_WITH_KNOTS('', 1, 1, ((#1670, #1671), (#1672, #1673)), .UNSPECIFIED., .F., .F., .U., (2, 2), (2, 2), (0., 15.), (0., 15.), .UNSPECIFIED.);
#1670 = CARTESIAN_POINT('', (90., 60., 20.));
#1671 = CARTESIAN_POINT('', (90., 75., 20.));
#1672 = CARTESIAN_POINT('', (105., 60., 20.));
#1673 = CARTESIAN_POINT('', (105., 75., 20.));
#1674 = ADVANCED_FACE('', (#1675), #1697, .T.);
#1675 = FACE_OUTER_BOUND('', #1676, .T.);
#1676 = EDGE_LOOP('', (#1677, #1684, #1691, #1696));
#1677 = ORIENTED_EDGE('', *, *, #1678, .F.);
#1678 = EDGE_CURVE('', #1679, #1651, #1681, .T.);
#1679 = VERTEX_POINT('', #1680);
#1680 = CARTESIAN_POINT('', (90., 60., 0.));
#1681 = B_SPLINE_CURVE_WITH_KNOTS('', 1, (#1682, #1683), .UNSPECIFIED., .F., .U., (2, 2), (0., 20.), .UNSPECIFIED.);
#1682 = CARTESIAN_POINT('', (90., 60., 0.));
#1683 = CARTESIAN_POINT('', (90., 60., 20.));
#1684 = ORIENTED_EDGE('', *, *, #1685, .T.);
#1685 = EDGE_CURVE('', #1679, #1686, #1688, .T.);
#1686 = VERTEX_POINT('', #1687);
#1687 = CARTESIAN_POINT('', (105., 60., 0.));
#1688 = B_SPLINE_CURVE_WITH_KNOTS('', 1, (#1689, #1690), .UNSPECIFIED., .F., .U., (2, 2), (0., 15.), .UNSPECIFIED.);
#1689 = CARTESIAN_POINT('', (90., 60., 0.));
#1690 = CARTESIAN_POINT('', (105., 60., 0.));
#1691 = ORIENTED_EDGE('', *, *, #1692, .T.);
#1692 = EDGE_CURVE('', #1686, #1658, #1693, .T.);
#1693 = B_SPLINE_CURVE_WITH_KNOTS('', 1, (#1694, #1695), .UNSPECIFIED., .F., .U., (2, 2), (0., 20.), .UNSPECIFIED.);
#1694 = CARTESIAN_POINT('', (105., 60., 0.));
#1695 = CARTESIAN_POINT('', (105., 60., 20.));
#1696 = ORIENTED_EDGE('', *, *, #1657, .F.);
#1697 = B_SPLINE_SURFACE_WITH_KNOTS('', 1, 1, ((#1698, #1699), (#1700, #1701)), .UNSPECIFIED., .F., .F., .U., (2, 2), (2, 2), (0., 15.), (0., 20.), .UNSPECIFIED.);
#1698 = CARTESIAN_POINT('', (90., 60., 0.));
#1699 = CARTESIAN_POINT('', (90., 60., 20.));
#1700 = CARTESIAN_POINT('', (105., 60., 0.));
#1701 = CARTESIAN_POINT('', (105., 60., 20.));
#1702 = ADVANCED_FACE('', (#1703), #1717, .T.);
#1703 = FACE_OUTER_BOUND('', #1704, .T.);
#1704 = EDGE_LOOP('', (#1705, #1710, #1711, #1716));
#1705 = ORIENTED_EDGE('', *, *, #1706, .T.);
#1706 = EDGE_CURVE('', #1679, #1615, #1707, .T.);
#1707 = B_SPLINE_CURVE_WITH_KNOTS('', 1, (#1708, #1709), .UNSPECIFIED., .F., .U., (2, 2), (0., 15.), .UNSPECIFIED.);
#1708 = CARTESIAN_POINT('', (90., 60., 0.));
#1709 = CARTESIAN_POINT('', (90., 75., 0.));
#1710 = ORIENTED_EDGE('', *, *, #1637, .T.);
#1711 = ORIENTED_EDGE('', *, *, #1712, .F.);
#1712 = EDGE_CURVE('', #1686, #1631, #1713, .T.);
#1713 = B_SPLINE_CURVE_WITH_KNOTS('', 1, (#1714, #1715), .UNSPECIFIED., .F., .U., (2, 2), (0., 15.), .UNSPECIFIED.);
#1714 = CARTESIAN_POINT('', (105., 60., 0.));
#1715 = CARTESIAN_POINT('', (105., 75., 0.));
#1716 = ORIENTED_EDGE('', *, *, #1685, .F.);
#1717 = B_SPLINE_SURFACE_WITH_KNOTS('', 1, 1, ((#1718, #1719), (#1720, #1721)), .UNSPECIFIED., .F., .F., .U., (2, 2), (2, 2), (0., 15.), (0., 15.), .UNSPECIFIED.);
#1718 = CARTESIAN_POINT('', (90., 60., 0.));
#1719 = CARTESIAN_POINT('', (105., 60., 0.));
#1720 = CARTESIAN_POINT('', (90., 75., 0.));
#1721 = CARTESIAN_POINT('', (105., 75., 0.));
#1722 = ADVANCED_FACE('', (#1723), #1729, .T.);
#1723 = FACE_OUTER_BOUND('', #1724, .T.);
#1724 = EDGE_LOOP('', (#1725, #1726, #1727, #1728));
#1725 = ORIENTED_EDGE('', *, *, #1692, .F.);
#1726 = ORIENTED_EDGE('', *, *, #1712, .T.);
#1727 = ORIENTED_EDGE('', *, *, #1630, .T.);
#1728 = ORIENTED_EDGE('', *, *, #1664, .F.);
#1729 = B_SPLINE_SURFACE_WITH_KNOTS('', 1, 1, ((#1730, #1731), (#1732, #1733)), .UNSPECIFIED., .F., .F., .U., (2, 2), (2, 2), (0., 15.), (0., 20.), .UNSPECIFIED.);
#1730 = CARTESIAN_POINT('', (105., 60., 0.));
#1731 = CARTESIAN_POINT('', (105., 60., 20.));
#1732 = CARTESIAN_POINT('', (105., 75., 0.));
#1733 = CARTESIAN_POINT('', (105., 75., 20.));
#1734 = ADVANCED_FACE('', (#1735), #1741, .T.);
#1735 = FACE_OUTER_BOUND('', #1736, .T.);
#1736 = EDGE_LOOP('', (#1737, #1738, #1739, #1740));
#1737 = ORIENTED_EDGE('', *, *, #1678, .T.);
#1738 = ORIENTED_EDGE('', *, *, #1650, .T.);
#1739 = ORIENTED_EDGE('', *, *, #1614, .F.);
#1740 = ORIENTED_EDGE('', *, *, #1706, .F.);
#1741 = B_SPLINE_SURFACE_WITH_KNOTS('', 1, 1, ((#1742, #1743), (#1744, #1745)), .UNSPECIFIED., .F., .F., .U., (2, 2), (2, 2), (0., 20.), (0., 15.), .UNSPECIFIED.);
#1742 = CARTESIAN_POINT('', (90., 60., 0.));
#1743 = CARTESIAN_POINT('', (90., 75., 0.));
#1744 = CARTESIAN_POINT('', (90., 60., 20.));
#1745 = CARTESIAN_POINT('', (90., 75., 20.));
#1746 = PRESENTATION_STYLE_ASSIGNMENT((#1747));
#1747 = SURFACE_STYLE_USAGE(.POSITIVE., #1748);
#1748 = SURFACE_SIDE_STYLE('', (#1749));
#1749 = SURFACE_STYLE_FILL_AREA(#1750);
#1750 = FILL_AREA_STYLE('', (#1751));
#1751 = FILL_AREA_STYLE_COLOUR('', #1752);
#1752 = COLOUR_RGB('', 0.50196078431373, 0.50196078431373, 0.50196078431373);
#1753 = STYLED_ITEM('', (#1746), #1608);
#1754 = CARTESIAN_POINT('Origin', (0., 0., 0.));
#1755 = GEOMETRIC_SET('', (#1754));
#1756 = (
   GEOMETRIC_REPRESENTATION_CONTEXT (3)
   GLOBAL_UNCERTAINTY_ASSIGNED_CONTEXT ((#1758))
   GLOBAL_UNIT_ASSIGNED_CONTEXT ((#1757, #1759, #1760))
   REPRESENTATION_CONTEXT ('', '3D')
);
#1757 = (
   LENGTH_UNIT ()
   NAMED_UNIT (*)
   SI_UNIT (.MILLI., .METRE.)
);
#1758 = UNCERTAINTY_MEASURE_WITH_UNIT(LENGTH_MEASURE(1.E-6), #1757, 'DISTANCE_ACCURACY_VALUE', '');
#1759 = (
   NAMED_UNIT (*)
   SI_UNIT ($, .STERADIAN.)
   SOLID_ANGLE_UNIT ()
);
#1760 = (
   NAMED_UNIT (*)
   PLANE_ANGLE_UNIT ()
   SI_UNIT ($, .RADIAN.)
);
#1761 = SHAPE_REPRESENTATION('', (#1776), #1756);
#1762 = PRODUCT_DEFINITION_SHAPE('', '', #1763);
#1763 = PRODUCT_DEFINITION('', '', #1766, #1770);
#1764 = APPLICATION_CONTEXT('configuration controlled 3D designs of mechanical parts and assemblies');
#1765 = APPLICATION_PROTOCOL_DEFINITION('International Standard', 'automotive_design', 2002, #1764);
#1766 = PRODUCT_DEFINITION_FORMATION_WITH_SPECIFIED_SOURCE('', '', #1767, .NOT_KNOWN.);
#1767 = PRODUCT('TwoDirections', 'TwoDirections', '', (#1768));
#1768 = PRODUCT_CONTEXT('', #1764, 'mechanical');
#1769 = PRODUCT_RELATED_PRODUCT_CATEGORY('detail', '', (#1767));
#1770 = PRODUCT_DEFINITION_CONTEXT('part definition', #1764, 'design');
#1771 = SHAPE_DEFINITION_REPRESENTATION(#1762, #1761);
#1772 = SHAPE_REPRESENTATION_RELATIONSHIP('', '', #1761, #1773);
#1773 = SHAPE_REPRESENTATION('', (#1755), #1756);
#1774 = SHAPE_REPRESENTATION_RELATIONSHIP('', '', #1761, #1775);
#1775 = ADVANCED_BREP_SHAPE_REPRESENTATION('', (#1, #148, #294, #440, #586, #732, #878, #1024, #1170, #1316, #1462, #1608), #1756);
#1776 = AXIS2_PLACEMENT_3D('', #1777, #1778, #1779);
#1777 = CARTESIAN_POINT('', (0., 0., 0.));
#1778 = DIRECTION('', (0., 0., 1.));
#1779 = DIRECTION('', (1., 0., 0.));
ENDSEC;
END-ISO-10303-21;
