ISO-10303-21;
HEADER;
FILE_DESCRIPTION(('STEP'), '1');
FILE_NAME('MultiTargets', '2026-04-20T16:20:00', (''), (''), 'Express 3.1.2.0', 'Express Tool', 'Unknown');
FILE_SCHEMA(('AUTOMOTIVE_DESIGN'));
ENDSEC;

DATA;
#1 = MANIFOLD_SOLID_BREP('LP_multi_0', #2);
#2 = CLOSED_SHELL('', (#3, #39, #67, #95, #115, #127));
#3 = ADVANCED_FACE('', (#4), #34, .T.);
#4 = FACE_OUTER_BOUND('', #5, .T.);
#5 = EDGE_LOOP('', (#6, #15, #22, #29));
#6 = ORIENTED_EDGE('', *, *, #7, .T.);
#7 = EDGE_CURVE('', #8, #10, #12, .T.);
#8 = VERTEX_POINT('', #9);
#9 = CARTESIAN_POINT('', (0., 15., 0.));
#10 = VERTEX_POINT('', #11);
#11 = CARTESIAN_POINT('', (0., 15., 25.));
#12 = B_SPLINE_CURVE_WITH_KNOTS('', 1, (#13, #14), .UNSPECIFIED., .F., .U., (2, 2), (0., 25.), .UNSPECIFIED.);
#13 = CARTESIAN_POINT('', (0., 15., 0.));
#14 = CARTESIAN_POINT('', (0., 15., 25.));
#15 = ORIENTED_EDGE('', *, *, #16, .T.);
#16 = EDGE_CURVE('', #10, #17, #19, .T.);
#17 = VERTEX_POINT('', #18);
#18 = CARTESIAN_POINT('', (15., 15., 25.));
#19 = B_SPLINE_CURVE_WITH_KNOTS('', 1, (#20, #21), .UNSPECIFIED., .F., .U., (2, 2), (0., 15.), .UNSPECIFIED.);
#20 = CARTESIAN_POINT('', (0., 15., 25.));
#21 = CARTESIAN_POINT('', (15., 15., 25.));
#22 = ORIENTED_EDGE('', *, *, #23, .F.);
#23 = EDGE_CURVE('', #24, #17, #26, .T.);
#24 = VERTEX_POINT('', #25);
#25 = CARTESIAN_POINT('', (15., 15., 0.));
#26 = B_SPLINE_CURVE_WITH_KNOTS('', 1, (#27, #28), .UNSPECIFIED., .F., .U., (2, 2), (0., 25.), .UNSPECIFIED.);
#27 = CARTESIAN_POINT('', (15., 15., 0.));
#28 = CARTESIAN_POINT('', (15., 15., 25.));
#29 = ORIENTED_EDGE('', *, *, #30, .F.);
#30 = EDGE_CURVE('', #8, #24, #31, .T.);
#31 = B_SPLINE_CURVE_WITH_KNOTS('', 1, (#32, #33), .UNSPECIFIED., .F., .U., (2, 2), (0., 15.), .UNSPECIFIED.);
#32 = CARTESIAN_POINT('', (0., 15., 0.));
#33 = CARTESIAN_POINT('', (15., 15., 0.));
#34 = B_SPLINE_SURFACE_WITH_KNOTS('', 1, 1, ((#35, #36), (#37, #38)), .UNSPECIFIED., .F., .F., .U., (2, 2), (2, 2), (0., 25.), (0., 15.), .UNSPECIFIED.);
#35 = CARTESIAN_POINT('', (0., 15., 0.));
#36 = CARTESIAN_POINT('', (15., 15., 0.));
#37 = CARTESIAN_POINT('', (0., 15., 25.));
#38 = CARTESIAN_POINT('', (15., 15., 25.));
#39 = ADVANCED_FACE('', (#40), #62, .T.);
#40 = FACE_OUTER_BOUND('', #41, .T.);
#41 = EDGE_LOOP('', (#42, #49, #56, #61));
#42 = ORIENTED_EDGE('', *, *, #43, .F.);
#43 = EDGE_CURVE('', #44, #10, #46, .T.);
#44 = VERTEX_POINT('', #45);
#45 = CARTESIAN_POINT('', (0., 0., 25.));
#46 = B_SPLINE_CURVE_WITH_KNOTS('', 1, (#47, #48), .UNSPECIFIED., .F., .U., (2, 2), (0., 15.), .UNSPECIFIED.);
#47 = CARTESIAN_POINT('', (0., 0., 25.));
#48 = CARTESIAN_POINT('', (0., 15., 25.));
#49 = ORIENTED_EDGE('', *, *, #50, .T.);
#50 = EDGE_CURVE('', #44, #51, #53, .T.);
#51 = VERTEX_POINT('', #52);
#52 = CARTESIAN_POINT('', (15., 0., 25.));
#53 = B_SPLINE_CURVE_WITH_KNOTS('', 1, (#54, #55), .UNSPECIFIED., .F., .U., (2, 2), (0., 15.), .UNSPECIFIED.);
#54 = CARTESIAN_POINT('', (0., 0., 25.));
#55 = CARTESIAN_POINT('', (15., 0., 25.));
#56 = ORIENTED_EDGE('', *, *, #57, .T.);
#57 = EDGE_CURVE('', #51, #17, #58, .T.);
#58 = B_SPLINE_CURVE_WITH_KNOTS('', 1, (#59, #60), .UNSPECIFIED., .F., .U., (2, 2), (0., 15.), .UNSPECIFIED.);
#59 = CARTESIAN_POINT('', (15., 0., 25.));
#60 = CARTESIAN_POINT('', (15., 15., 25.));
#61 = ORIENTED_EDGE('', *, *, #16, .F.);
#62 = B_SPLINE_SURFACE_WITH_KNOTS('', 1, 1, ((#63, #64), (#65, #66)), .UNSPECIFIED., .F., .F., .U., (2, 2), (2, 2), (0., 15.), (0., 15.), .UNSPECIFIED.);
#63 = CARTESIAN_POINT('', (0., 0., 25.));
#64 = CARTESIAN_POINT('', (0., 15., 25.));
#65 = CARTESIAN_POINT('', (15., 0., 25.));
#66 = CARTESIAN_POINT('', (15., 15., 25.));
#67 = ADVANCED_FACE('', (#68), #90, .T.);
#68 = FACE_OUTER_BOUND('', #69, .T.);
#69 = EDGE_LOOP('', (#70, #77, #84, #89));
#70 = ORIENTED_EDGE('', *, *, #71, .F.);
#71 = EDGE_CURVE('', #72, #44, #74, .T.);
#72 = VERTEX_POINT('', #73);
#73 = CARTESIAN_POINT('', (0., 0., 0.));
#74 = B_SPLINE_CURVE_WITH_KNOTS('', 1, (#75, #76), .UNSPECIFIED., .F., .U., (2, 2), (0., 25.), .UNSPECIFIED.);
#75 = CARTESIAN_POINT('', (0., 0., 0.));
#76 = CARTESIAN_POINT('', (0., 0., 25.));
#77 = ORIENTED_EDGE('', *, *, #78, .T.);
#78 = EDGE_CURVE('', #72, #79, #81, .T.);
#79 = VERTEX_POINT('', #80);
#80 = CARTESIAN_POINT('', (15., 0., 0.));
#81 = B_SPLINE_CURVE_WITH_KNOTS('', 1, (#82, #83), .UNSPECIFIED., .F., .U., (2, 2), (0., 15.), .UNSPECIFIED.);
#82 = CARTESIAN_POINT('', (0., 0., 0.));
#83 = CARTESIAN_POINT('', (15., 0., 0.));
#84 = ORIENTED_EDGE('', *, *, #85, .T.);
#85 = EDGE_CURVE('', #79, #51, #86, .T.);
#86 = B_SPLINE_CURVE_WITH_KNOTS('', 1, (#87, #88), .UNSPECIFIED., .F., .U., (2, 2), (0., 25.), .UNSPECIFIED.);
#87 = CARTESIAN_POINT('', (15., 0., 0.));
#88 = CARTESIAN_POINT('', (15., 0., 25.));
#89 = ORIENTED_EDGE('', *, *, #50, .F.);
#90 = B_SPLINE_SURFACE_WITH_KNOTS('', 1, 1, ((#91, #92), (#93, #94)), .UNSPECIFIED., .F., .F., .U., (2, 2), (2, 2), (0., 15.), (0., 25.), .UNSPECIFIED.);
#91 = CARTESIAN_POINT('', (0., 0., 0.));
#92 = CARTESIAN_POINT('', (0., 0., 25.));
#93 = CARTESIAN_POINT('', (15., 0., 0.));
#94 = CARTESIAN_POINT('', (15., 0., 25.));
#95 = ADVANCED_FACE('', (#96), #110, .T.);
#96 = FACE_OUTER_BOUND('', #97, .T.);
#97 = EDGE_LOOP('', (#98, #103, #104, #109));
#98 = ORIENTED_EDGE('', *, *, #99, .T.);
#99 = EDGE_CURVE('', #72, #8, #100, .T.);
#100 = B_SPLINE_CURVE_WITH_KNOTS('', 1, (#101, #102), .UNSPECIFIED., .F., .U., (2, 2), (0., 15.), .UNSPECIFIED.);
#101 = CARTESIAN_POINT('', (0., 0., 0.));
#102 = CARTESIAN_POINT('', (0., 15., 0.));
#103 = ORIENTED_EDGE('', *, *, #30, .T.);
#104 = ORIENTED_EDGE('', *, *, #105, .F.);
#105 = EDGE_CURVE('', #79, #24, #106, .T.);
#106 = B_SPLINE_CURVE_WITH_KNOTS('', 1, (#107, #108), .UNSPECIFIED., .F., .U., (2, 2), (0., 15.), .UNSPECIFIED.);
#107 = CARTESIAN_POINT('', (15., 0., 0.));
#108 = CARTESIAN_POINT('', (15., 15., 0.));
#109 = ORIENTED_EDGE('', *, *, #78, .F.);
#110 = B_SPLINE_SURFACE_WITH_KNOTS('', 1, 1, ((#111, #112), (#113, #114)), .UNSPECIFIED., .F., .F., .U., (2, 2), (2, 2), (0., 15.), (0., 15.), .UNSPECIFIED.);
#111 = CARTESIAN_POINT('', (0., 0., 0.));
#112 = CARTESIAN_POINT('', (15., 0., 0.));
#113 = CARTESIAN_POINT('', (0., 15., 0.));
#114 = CARTESIAN_POINT('', (15., 15., 0.));
#115 = ADVANCED_FACE('', (#116), #122, .T.);
#116 = FACE_OUTER_BOUND('', #117, .T.);
#117 = EDGE_LOOP('', (#118, #119, #120, #121));
#118 = ORIENTED_EDGE('', *, *, #85, .F.);
#119 = ORIENTED_EDGE('', *, *, #105, .T.);
#120 = ORIENTED_EDGE('', *, *, #23, .T.);
#121 = ORIENTED_EDGE('', *, *, #57, .F.);
#122 = B_SPLINE_SURFACE_WITH_KNOTS('', 1, 1, ((#123, #124), (#125, #126)), .UNSPECIFIED., .F., .F., .U., (2, 2), (2, 2), (0., 15.), (0., 25.), .UNSPECIFIED.);
#123 = CARTESIAN_POINT('', (15., 0., 0.));
#124 = CARTESIAN_POINT('', (15., 0., 25.));
#125 = CARTESIAN_POINT('', (15., 15., 0.));
#126 = CARTESIAN_POINT('', (15., 15., 25.));
#127 = ADVANCED_FACE('', (#128), #134, .T.);
#128 = FACE_OUTER_BOUND('', #129, .T.);
#129 = EDGE_LOOP('', (#130, #131, #132, #133));
#130 = ORIENTED_EDGE('', *, *, #71, .T.);
#131 = ORIENTED_EDGE('', *, *, #43, .T.);
#132 = ORIENTED_EDGE('', *, *, #7, .F.);
#133 = ORIENTED_EDGE('', *, *, #99, .F.);
#134 = B_SPLINE_SURFACE_WITH_KNOTS('', 1, 1, ((#135, #136), (#137, #138)), .UNSPECIFIED., .F., .F., .U., (2, 2), (2, 2), (0., 25.), (0., 15.), .UNSPECIFIED.);
#135 = CARTESIAN_POINT('', (0., 0., 0.));
#136 = CARTESIAN_POINT('', (0., 15., 0.));
#137 = CARTESIAN_POINT('', (0., 0., 25.));
#138 = CARTESIAN_POINT('', (0., 15., 25.));
#139 = DRAUGHTING_MODEL('', (#147, #293, #439, #523, #607, #691), #698);
#140 = PRESENTATION_STYLE_ASSIGNMENT((#141));
#141 = SURFACE_STYLE_USAGE(.POSITIVE., #142);
#142 = SURFACE_SIDE_STYLE('', (#143));
#143 = SURFACE_STYLE_FILL_AREA(#144);
#144 = FILL_AREA_STYLE('', (#145));
#145 = FILL_AREA_STYLE_COLOUR('', #146);
#146 = COLOUR_RGB('', 0.50196078431373, 0.50196078431373, 0.50196078431373);
#147 = STYLED_ITEM('', (#140), #1);
#148 = MANIFOLD_SOLID_BREP('LP_multi_1', #149);
#149 = CLOSED_SHELL('', (#150, #186, #214, #242, #262, #274));
#150 = ADVANCED_FACE('', (#151), #181, .T.);
#151 = FACE_OUTER_BOUND('', #152, .T.);
#152 = EDGE_LOOP('', (#153, #162, #169, #176));
#153 = ORIENTED_EDGE('', *, *, #154, .T.);
#154 = EDGE_CURVE('', #155, #157, #159, .T.);
#155 = VERTEX_POINT('', #156);
#156 = CARTESIAN_POINT('', (40., 15., 0.));
#157 = VERTEX_POINT('', #158);
#158 = CARTESIAN_POINT('', (40., 15., 25.));
#159 = B_SPLINE_CURVE_WITH_KNOTS('', 1, (#160, #161), .UNSPECIFIED., .F., .U., (2, 2), (0., 25.), .UNSPECIFIED.);
#160 = CARTESIAN_POINT('', (40., 15., 0.));
#161 = CARTESIAN_POINT('', (40., 15., 25.));
#162 = ORIENTED_EDGE('', *, *, #163, .T.);
#163 = EDGE_CURVE('', #157, #164, #166, .T.);
#164 = VERTEX_POINT('', #165);
#165 = CARTESIAN_POINT('', (55., 15., 25.));
#166 = B_SPLINE_CURVE_WITH_KNOTS('', 1, (#167, #168), .UNSPECIFIED., .F., .U., (2, 2), (0., 15.), .UNSPECIFIED.);
#167 = CARTESIAN_POINT('', (40., 15., 25.));
#168 = CARTESIAN_POINT('', (55., 15., 25.));
#169 = ORIENTED_EDGE('', *, *, #170, .F.);
#170 = EDGE_CURVE('', #171, #164, #173, .T.);
#171 = VERTEX_POINT('', #172);
#172 = CARTESIAN_POINT('', (55., 15., 0.));
#173 = B_SPLINE_CURVE_WITH_KNOTS('', 1, (#174, #175), .UNSPECIFIED., .F., .U., (2, 2), (0., 25.), .UNSPECIFIED.);
#174 = CARTESIAN_POINT('', (55., 15., 0.));
#175 = CARTESIAN_POINT('', (55., 15., 25.));
#176 = ORIENTED_EDGE('', *, *, #177, .F.);
#177 = EDGE_CURVE('', #155, #171, #178, .T.);
#178 = B_SPLINE_CURVE_WITH_KNOTS('', 1, (#179, #180), .UNSPECIFIED., .F., .U., (2, 2), (0., 15.), .UNSPECIFIED.);
#179 = CARTESIAN_POINT('', (40., 15., 0.));
#180 = CARTESIAN_POINT('', (55., 15., 0.));
#181 = B_SPLINE_SURFACE_WITH_KNOTS('', 1, 1, ((#182, #183), (#184, #185)), .UNSPECIFIED., .F., .F., .U., (2, 2), (2, 2), (0., 25.), (0., 15.), .UNSPECIFIED.);
#182 = CARTESIAN_POINT('', (40., 15., 0.));
#183 = CARTESIAN_POINT('', (55., 15., 0.));
#184 = CARTESIAN_POINT('', (40., 15., 25.));
#185 = CARTESIAN_POINT('', (55., 15., 25.));
#186 = ADVANCED_FACE('', (#187), #209, .T.);
#187 = FACE_OUTER_BOUND('', #188, .T.);
#188 = EDGE_LOOP('', (#189, #196, #203, #208));
#189 = ORIENTED_EDGE('', *, *, #190, .F.);
#190 = EDGE_CURVE('', #191, #157, #193, .T.);
#191 = VERTEX_POINT('', #192);
#192 = CARTESIAN_POINT('', (40., 0., 25.));
#193 = B_SPLINE_CURVE_WITH_KNOTS('', 1, (#194, #195), .UNSPECIFIED., .F., .U., (2, 2), (0., 15.), .UNSPECIFIED.);
#194 = CARTESIAN_POINT('', (40., 0., 25.));
#195 = CARTESIAN_POINT('', (40., 15., 25.));
#196 = ORIENTED_EDGE('', *, *, #197, .T.);
#197 = EDGE_CURVE('', #191, #198, #200, .T.);
#198 = VERTEX_POINT('', #199);
#199 = CARTESIAN_POINT('', (55., 0., 25.));
#200 = B_SPLINE_CURVE_WITH_KNOTS('', 1, (#201, #202), .UNSPECIFIED., .F., .U., (2, 2), (0., 15.), .UNSPECIFIED.);
#201 = CARTESIAN_POINT('', (40., 0., 25.));
#202 = CARTESIAN_POINT('', (55., 0., 25.));
#203 = ORIENTED_EDGE('', *, *, #204, .T.);
#204 = EDGE_CURVE('', #198, #164, #205, .T.);
#205 = B_SPLINE_CURVE_WITH_KNOTS('', 1, (#206, #207), .UNSPECIFIED., .F., .U., (2, 2), (0., 15.), .UNSPECIFIED.);
#206 = CARTESIAN_POINT('', (55., 0., 25.));
#207 = CARTESIAN_POINT('', (55., 15., 25.));
#208 = ORIENTED_EDGE('', *, *, #163, .F.);
#209 = B_SPLINE_SURFACE_WITH_KNOTS('', 1, 1, ((#210, #211), (#212, #213)), .UNSPECIFIED., .F., .F., .U., (2, 2), (2, 2), (0., 15.), (0., 15.), .UNSPECIFIED.);
#210 = CARTESIAN_POINT('', (40., 0., 25.));
#211 = CARTESIAN_POINT('', (40., 15., 25.));
#212 = CARTESIAN_POINT('', (55., 0., 25.));
#213 = CARTESIAN_POINT('', (55., 15., 25.));
#214 = ADVANCED_FACE('', (#215), #237, .T.);
#215 = FACE_OUTER_BOUND('', #216, .T.);
#216 = EDGE_LOOP('', (#217, #224, #231, #236));
#217 = ORIENTED_EDGE('', *, *, #218, .F.);
#218 = EDGE_CURVE('', #219, #191, #221, .T.);
#219 = VERTEX_POINT('', #220);
#220 = CARTESIAN_POINT('', (40., 0., 0.));
#221 = B_SPLINE_CURVE_WITH_KNOTS('', 1, (#222, #223), .UNSPECIFIED., .F., .U., (2, 2), (0., 25.), .UNSPECIFIED.);
#222 = CARTESIAN_POINT('', (40., 0., 0.));
#223 = CARTESIAN_POINT('', (40., 0., 25.));
#224 = ORIENTED_EDGE('', *, *, #225, .T.);
#225 = EDGE_CURVE('', #219, #226, #228, .T.);
#226 = VERTEX_POINT('', #227);
#227 = CARTESIAN_POINT('', (55., 0., 0.));
#228 = B_SPLINE_CURVE_WITH_KNOTS('', 1, (#229, #230), .UNSPECIFIED., .F., .U., (2, 2), (0., 15.), .UNSPECIFIED.);
#229 = CARTESIAN_POINT('', (40., 0., 0.));
#230 = CARTESIAN_POINT('', (55., 0., 0.));
#231 = ORIENTED_EDGE('', *, *, #232, .T.);
#232 = EDGE_CURVE('', #226, #198, #233, .T.);
#233 = B_SPLINE_CURVE_WITH_KNOTS('', 1, (#234, #235), .UNSPECIFIED., .F., .U., (2, 2), (0., 25.), .UNSPECIFIED.);
#234 = CARTESIAN_POINT('', (55., 0., 0.));
#235 = CARTESIAN_POINT('', (55., 0., 25.));
#236 = ORIENTED_EDGE('', *, *, #197, .F.);
#237 = B_SPLINE_SURFACE_WITH_KNOTS('', 1, 1, ((#238, #239), (#240, #241)), .UNSPECIFIED., .F., .F., .U., (2, 2), (2, 2), (0., 15.), (0., 25.), .UNSPECIFIED.);
#238 = CARTESIAN_POINT('', (40., 0., 0.));
#239 = CARTESIAN_POINT('', (40., 0., 25.));
#240 = CARTESIAN_POINT('', (55., 0., 0.));
#241 = CARTESIAN_POINT('', (55., 0., 25.));
#242 = ADVANCED_FACE('', (#243), #257, .T.);
#243 = FACE_OUTER_BOUND('', #244, .T.);
#244 = EDGE_LOOP('', (#245, #250, #251, #256));
#245 = ORIENTED_EDGE('', *, *, #246, .T.);
#246 = EDGE_CURVE('', #219, #155, #247, .T.);
#247 = B_SPLINE_CURVE_WITH_KNOTS('', 1, (#248, #249), .UNSPECIFIED., .F., .U., (2, 2), (0., 15.), .UNSPECIFIED.);
#248 = CARTESIAN_POINT('', (40., 0., 0.));
#249 = CARTESIAN_POINT('', (40., 15., 0.));
#250 = ORIENTED_EDGE('', *, *, #177, .T.);
#251 = ORIENTED_EDGE('', *, *, #252, .F.);
#252 = EDGE_CURVE('', #226, #171, #253, .T.);
#253 = B_SPLINE_CURVE_WITH_KNOTS('', 1, (#254, #255), .UNSPECIFIED., .F., .U., (2, 2), (0., 15.), .UNSPECIFIED.);
#254 = CARTESIAN_POINT('', (55., 0., 0.));
#255 = CARTESIAN_POINT('', (55., 15., 0.));
#256 = ORIENTED_EDGE('', *, *, #225, .F.);
#257 = B_SPLINE_SURFACE_WITH_KNOTS('', 1, 1, ((#258, #259), (#260, #261)), .UNSPECIFIED., .F., .F., .U., (2, 2), (2, 2), (0., 15.), (0., 15.), .UNSPECIFIED.);
#258 = CARTESIAN_POINT('', (40., 0., 0.));
#259 = CARTESIAN_POINT('', (55., 0., 0.));
#260 = CARTESIAN_POINT('', (40., 15., 0.));
#261 = CARTESIAN_POINT('', (55., 15., 0.));
#262 = ADVANCED_FACE('', (#263), #269, .T.);
#263 = FACE_OUTER_BOUND('', #264, .T.);
#264 = EDGE_LOOP('', (#265, #266, #267, #268));
#265 = ORIENTED_EDGE('', *, *, #232, .F.);
#266 = ORIENTED_EDGE('', *, *, #252, .T.);
#267 = ORIENTED_EDGE('', *, *, #170, .T.);
#268 = ORIENTED_EDGE('', *, *, #204, .F.);
#269 = B_SPLINE_SURFACE_WITH_KNOTS('', 1, 1, ((#270, #271), (#272, #273)), .UNSPECIFIED., .F., .F., .U., (2, 2), (2, 2), (0., 15.), (0., 25.), .UNSPECIFIED.);
#270 = CARTESIAN_POINT('', (55., 0., 0.));
#271 = CARTESIAN_POINT('', (55., 0., 25.));
#272 = CARTESIAN_POINT('', (55., 15., 0.));
#273 = CARTESIAN_POINT('', (55., 15., 25.));
#274 = ADVANCED_FACE('', (#275), #281, .T.);
#275 = FACE_OUTER_BOUND('', #276, .T.);
#276 = EDGE_LOOP('', (#277, #278, #279, #280));
#277 = ORIENTED_EDGE('', *, *, #218, .T.);
#278 = ORIENTED_EDGE('', *, *, #190, .T.);
#279 = ORIENTED_EDGE('', *, *, #154, .F.);
#280 = ORIENTED_EDGE('', *, *, #246, .F.);
#281 = B_SPLINE_SURFACE_WITH_KNOTS('', 1, 1, ((#282, #283), (#284, #285)), .UNSPECIFIED., .F., .F., .U., (2, 2), (2, 2), (0., 25.), (0., 15.), .UNSPECIFIED.);
#282 = CARTESIAN_POINT('', (40., 0., 0.));
#283 = CARTESIAN_POINT('', (40., 15., 0.));
#284 = CARTESIAN_POINT('', (40., 0., 25.));
#285 = CARTESIAN_POINT('', (40., 15., 25.));
#286 = PRESENTATION_STYLE_ASSIGNMENT((#287));
#287 = SURFACE_STYLE_USAGE(.POSITIVE., #288);
#288 = SURFACE_SIDE_STYLE('', (#289));
#289 = SURFACE_STYLE_FILL_AREA(#290);
#290 = FILL_AREA_STYLE('', (#291));
#291 = FILL_AREA_STYLE_COLOUR('', #292);
#292 = COLOUR_RGB('', 0.50196078431373, 0.50196078431373, 0.50196078431373);
#293 = STYLED_ITEM('', (#286), #148);
#294 = MANIFOLD_SOLID_BREP('LP_multi_2', #295);
#295 = CLOSED_SHELL('', (#296, #332, #360, #388, #408, #420));
#296 = ADVANCED_FACE('', (#297), #327, .T.);
#297 = FACE_OUTER_BOUND('', #298, .T.);
#298 = EDGE_LOOP('', (#299, #308, #315, #322));
#299 = ORIENTED_EDGE('', *, *, #300, .T.);
#300 = EDGE_CURVE('', #301, #303, #305, .T.);
#301 = VERTEX_POINT('', #302);
#302 = CARTESIAN_POINT('', (80., 15., 0.));
#303 = VERTEX_POINT('', #304);
#304 = CARTESIAN_POINT('', (80., 15., 25.));
#305 = B_SPLINE_CURVE_WITH_KNOTS('', 1, (#306, #307), .UNSPECIFIED., .F., .U., (2, 2), (0., 25.), .UNSPECIFIED.);
#306 = CARTESIAN_POINT('', (80., 15., 0.));
#307 = CARTESIAN_POINT('', (80., 15., 25.));
#308 = ORIENTED_EDGE('', *, *, #309, .T.);
#309 = EDGE_CURVE('', #303, #310, #312, .T.);
#310 = VERTEX_POINT('', #311);
#311 = CARTESIAN_POINT('', (95., 15., 25.));
#312 = B_SPLINE_CURVE_WITH_KNOTS('', 1, (#313, #314), .UNSPECIFIED., .F., .U., (2, 2), (0., 15.), .UNSPECIFIED.);
#313 = CARTESIAN_POINT('', (80., 15., 25.));
#314 = CARTESIAN_POINT('', (95., 15., 25.));
#315 = ORIENTED_EDGE('', *, *, #316, .F.);
#316 = EDGE_CURVE('', #317, #310, #319, .T.);
#317 = VERTEX_POINT('', #318);
#318 = CARTESIAN_POINT('', (95., 15., 0.));
#319 = B_SPLINE_CURVE_WITH_KNOTS('', 1, (#320, #321), .UNSPECIFIED., .F., .U., (2, 2), (0., 25.), .UNSPECIFIED.);
#320 = CARTESIAN_POINT('', (95., 15., 0.));
#321 = CARTESIAN_POINT('', (95., 15., 25.));
#322 = ORIENTED_EDGE('', *, *, #323, .F.);
#323 = EDGE_CURVE('', #301, #317, #324, .T.);
#324 = B_SPLINE_CURVE_WITH_KNOTS('', 1, (#325, #326), .UNSPECIFIED., .F., .U., (2, 2), (0., 15.), .UNSPECIFIED.);
#325 = CARTESIAN_POINT('', (80., 15., 0.));
#326 = CARTESIAN_POINT('', (95., 15., 0.));
#327 = B_SPLINE_SURFACE_WITH_KNOTS('', 1, 1, ((#328, #329), (#330, #331)), .UNSPECIFIED., .F., .F., .U., (2, 2), (2, 2), (0., 25.), (0., 15.), .UNSPECIFIED.);
#328 = CARTESIAN_POINT('', (80., 15., 0.));
#329 = CARTESIAN_POINT('', (95., 15., 0.));
#330 = CARTESIAN_POINT('', (80., 15., 25.));
#331 = CARTESIAN_POINT('', (95., 15., 25.));
#332 = ADVANCED_FACE('', (#333), #355, .T.);
#333 = FACE_OUTER_BOUND('', #334, .T.);
#334 = EDGE_LOOP('', (#335, #342, #349, #354));
#335 = ORIENTED_EDGE('', *, *, #336, .F.);
#336 = EDGE_CURVE('', #337, #303, #339, .T.);
#337 = VERTEX_POINT('', #338);
#338 = CARTESIAN_POINT('', (80., 0., 25.));
#339 = B_SPLINE_CURVE_WITH_KNOTS('', 1, (#340, #341), .UNSPECIFIED., .F., .U., (2, 2), (0., 15.), .UNSPECIFIED.);
#340 = CARTESIAN_POINT('', (80., 0., 25.));
#341 = CARTESIAN_POINT('', (80., 15., 25.));
#342 = ORIENTED_EDGE('', *, *, #343, .T.);
#343 = EDGE_CURVE('', #337, #344, #346, .T.);
#344 = VERTEX_POINT('', #345);
#345 = CARTESIAN_POINT('', (95., 0., 25.));
#346 = B_SPLINE_CURVE_WITH_KNOTS('', 1, (#347, #348), .UNSPECIFIED., .F., .U., (2, 2), (0., 15.), .UNSPECIFIED.);
#347 = CARTESIAN_POINT('', (80., 0., 25.));
#348 = CARTESIAN_POINT('', (95., 0., 25.));
#349 = ORIENTED_EDGE('', *, *, #350, .T.);
#350 = EDGE_CURVE('', #344, #310, #351, .T.);
#351 = B_SPLINE_CURVE_WITH_KNOTS('', 1, (#352, #353), .UNSPECIFIED., .F., .U., (2, 2), (0., 15.), .UNSPECIFIED.);
#352 = CARTESIAN_POINT('', (95., 0., 25.));
#353 = CARTESIAN_POINT('', (95., 15., 25.));
#354 = ORIENTED_EDGE('', *, *, #309, .F.);
#355 = B_SPLINE_SURFACE_WITH_KNOTS('', 1, 1, ((#356, #357), (#358, #359)), .UNSPECIFIED., .F., .F., .U., (2, 2), (2, 2), (0., 15.), (0., 15.), .UNSPECIFIED.);
#356 = CARTESIAN_POINT('', (80., 0., 25.));
#357 = CARTESIAN_POINT('', (80., 15., 25.));
#358 = CARTESIAN_POINT('', (95., 0., 25.));
#359 = CARTESIAN_POINT('', (95., 15., 25.));
#360 = ADVANCED_FACE('', (#361), #383, .T.);
#361 = FACE_OUTER_BOUND('', #362, .T.);
#362 = EDGE_LOOP('', (#363, #370, #377, #382));
#363 = ORIENTED_EDGE('', *, *, #364, .F.);
#364 = EDGE_CURVE('', #365, #337, #367, .T.);
#365 = VERTEX_POINT('', #366);
#366 = CARTESIAN_POINT('', (80., 0., 0.));
#367 = B_SPLINE_CURVE_WITH_KNOTS('', 1, (#368, #369), .UNSPECIFIED., .F., .U., (2, 2), (0., 25.), .UNSPECIFIED.);
#368 = CARTESIAN_POINT('', (80., 0., 0.));
#369 = CARTESIAN_POINT('', (80., 0., 25.));
#370 = ORIENTED_EDGE('', *, *, #371, .T.);
#371 = EDGE_CURVE('', #365, #372, #374, .T.);
#372 = VERTEX_POINT('', #373);
#373 = CARTESIAN_POINT('', (95., 0., 0.));
#374 = B_SPLINE_CURVE_WITH_KNOTS('', 1, (#375, #376), .UNSPECIFIED., .F., .U., (2, 2), (0., 15.), .UNSPECIFIED.);
#375 = CARTESIAN_POINT('', (80., 0., 0.));
#376 = CARTESIAN_POINT('', (95., 0., 0.));
#377 = ORIENTED_EDGE('', *, *, #378, .T.);
#378 = EDGE_CURVE('', #372, #344, #379, .T.);
#379 = B_SPLINE_CURVE_WITH_KNOTS('', 1, (#380, #381), .UNSPECIFIED., .F., .U., (2, 2), (0., 25.), .UNSPECIFIED.);
#380 = CARTESIAN_POINT('', (95., 0., 0.));
#381 = CARTESIAN_POINT('', (95., 0., 25.));
#382 = ORIENTED_EDGE('', *, *, #343, .F.);
#383 = B_SPLINE_SURFACE_WITH_KNOTS('', 1, 1, ((#384, #385), (#386, #387)), .UNSPECIFIED., .F., .F., .U., (2, 2), (2, 2), (0., 15.), (0., 25.), .UNSPECIFIED.);
#384 = CARTESIAN_POINT('', (80., 0., 0.));
#385 = CARTESIAN_POINT('', (80., 0., 25.));
#386 = CARTESIAN_POINT('', (95., 0., 0.));
#387 = CARTESIAN_POINT('', (95., 0., 25.));
#388 = ADVANCED_FACE('', (#389), #403, .T.);
#389 = FACE_OUTER_BOUND('', #390, .T.);
#390 = EDGE_LOOP('', (#391, #396, #397, #402));
#391 = ORIENTED_EDGE('', *, *, #392, .T.);
#392 = EDGE_CURVE('', #365, #301, #393, .T.);
#393 = B_SPLINE_CURVE_WITH_KNOTS('', 1, (#394, #395), .UNSPECIFIED., .F., .U., (2, 2), (0., 15.), .UNSPECIFIED.);
#394 = CARTESIAN_POINT('', (80., 0., 0.));
#395 = CARTESIAN_POINT('', (80., 15., 0.));
#396 = ORIENTED_EDGE('', *, *, #323, .T.);
#397 = ORIENTED_EDGE('', *, *, #398, .F.);
#398 = EDGE_CURVE('', #372, #317, #399, .T.);
#399 = B_SPLINE_CURVE_WITH_KNOTS('', 1, (#400, #401), .UNSPECIFIED., .F., .U., (2, 2), (0., 15.), .UNSPECIFIED.);
#400 = CARTESIAN_POINT('', (95., 0., 0.));
#401 = CARTESIAN_POINT('', (95., 15., 0.));
#402 = ORIENTED_EDGE('', *, *, #371, .F.);
#403 = B_SPLINE_SURFACE_WITH_KNOTS('', 1, 1, ((#404, #405), (#406, #407)), .UNSPECIFIED., .F., .F., .U., (2, 2), (2, 2), (0., 15.), (0., 15.), .UNSPECIFIED.);
#404 = CARTESIAN_POINT('', (80., 0., 0.));
#405 = CARTESIAN_POINT('', (95., 0., 0.));
#406 = CARTESIAN_POINT('', (80., 15., 0.));
#407 = CARTESIAN_POINT('', (95., 15., 0.));
#408 = ADVANCED_FACE('', (#409), #415, .T.);
#409 = FACE_OUTER_BOUND('', #410, .T.);
#410 = EDGE_LOOP('', (#411, #412, #413, #414));
#411 = ORIENTED_EDGE('', *, *, #378, .F.);
#412 = ORIENTED_EDGE('', *, *, #398, .T.);
#413 = ORIENTED_EDGE('', *, *, #316, .T.);
#414 = ORIENTED_EDGE('', *, *, #350, .F.);
#415 = B_SPLINE_SURFACE_WITH_KNOTS('', 1, 1, ((#416, #417), (#418, #419)), .UNSPECIFIED., .F., .F., .U., (2, 2), (2, 2), (0., 15.), (0., 25.), .UNSPECIFIED.);
#416 = CARTESIAN_POINT('', (95., 0., 0.));
#417 = CARTESIAN_POINT('', (95., 0., 25.));
#418 = CARTESIAN_POINT('', (95., 15., 0.));
#419 = CARTESIAN_POINT('', (95., 15., 25.));
#420 = ADVANCED_FACE('', (#421), #427, .T.);
#421 = FACE_OUTER_BOUND('', #422, .T.);
#422 = EDGE_LOOP('', (#423, #424, #425, #426));
#423 = ORIENTED_EDGE('', *, *, #364, .T.);
#424 = ORIENTED_EDGE('', *, *, #336, .T.);
#425 = ORIENTED_EDGE('', *, *, #300, .F.);
#426 = ORIENTED_EDGE('', *, *, #392, .F.);
#427 = B_SPLINE_SURFACE_WITH_KNOTS('', 1, 1, ((#428, #429), (#430, #431)), .UNSPECIFIED., .F., .F., .U., (2, 2), (2, 2), (0., 25.), (0., 15.), .UNSPECIFIED.);
#428 = CARTESIAN_POINT('', (80., 0., 0.));
#429 = CARTESIAN_POINT('', (80., 15., 0.));
#430 = CARTESIAN_POINT('', (80., 0., 25.));
#431 = CARTESIAN_POINT('', (80., 15., 25.));
#432 = PRESENTATION_STYLE_ASSIGNMENT((#433));
#433 = SURFACE_STYLE_USAGE(.POSITIVE., #434);
#434 = SURFACE_SIDE_STYLE('', (#435));
#435 = SURFACE_STYLE_FILL_AREA(#436);
#436 = FILL_AREA_STYLE('', (#437));
#437 = FILL_AREA_STYLE_COLOUR('', #438);
#438 = COLOUR_RGB('', 0.50196078431373, 0.50196078431373, 0.50196078431373);
#439 = STYLED_ITEM('', (#432), #294);
#440 = MANIFOLD_SOLID_BREP('LP_multi_3', #441);
#441 = CLOSED_SHELL('', (#442, #498, #507));
#442 = ADVANCED_FACE('', (#443), #479, .T.);
#443 = FACE_OUTER_BOUND('', #444, .T.);
#444 = EDGE_LOOP('', (#445, #454, #466, #467));
#445 = ORIENTED_EDGE('', *, *, #446, .F.);
#446 = EDGE_CURVE('', #447, #449, #451, .T.);
#447 = VERTEX_POINT('', #448);
#448 = CARTESIAN_POINT('', (6., 0., 0.));
#449 = VERTEX_POINT('', #450);
#450 = CARTESIAN_POINT('', (6., 0., 25.));
#451 = B_SPLINE_CURVE_WITH_KNOTS('', 1, (#452, #453), .UNSPECIFIED., .F., .U., (2, 2), (0., 25.), .UNSPECIFIED.);
#452 = CARTESIAN_POINT('', (6., 0., 0.));
#453 = CARTESIAN_POINT('', (6., 0., 25.));
#454 = ORIENTED_EDGE('', *, *, #455, .T.);
#455 = EDGE_CURVE('', #447, #447, #456, .T.);
#456 = (
   BOUNDED_CURVE ()
   B_SPLINE_CURVE (2, (#457, #458, #459, #460, #461, #462, #463, #464, #465), .UNSPECIFIED., .T., .U.)
   B_SPLINE_CURVE_WITH_KNOTS ((3, 2, 2, 2, 3), (0., 9.42477796076938, 18.8495559215388, 28.2743338823081, 37.6991118430775), .UNSPECIFIED.)
   CURVE ()
   GEOMETRIC_REPRESENTATION_ITEM ()
   RATIONAL_B_SPLINE_CURVE ((1., 0.707106781186548, 1., 0.707106781186548, 1., 0.707106781186548, 1., 0.707106781186548, 1.))
   REPRESENTATION_ITEM ('')
);
#457 = CARTESIAN_POINT('', (6., 0., 0.));
#458 = CARTESIAN_POINT('', (6., 6., 0.));
#459 = CARTESIAN_POINT('', (3.67394039744206E-16, 6., 0.));
#460 = CARTESIAN_POINT('', (-6., 6., 0.));
#461 = CARTESIAN_POINT('', (-6., 7.34788079488412E-16, 0.));
#462 = CARTESIAN_POINT('', (-6., -6., 0.));
#463 = CARTESIAN_POINT('', (-1.10218211923262E-15, -6., 0.));
#464 = CARTESIAN_POINT('', (6., -6., 0.));
#465 = CARTESIAN_POINT('', (6., 0., 0.));
#466 = ORIENTED_EDGE('', *, *, #446, .T.);
#467 = ORIENTED_EDGE('', *, *, #468, .F.);
#468 = EDGE_CURVE('', #449, #449, #469, .T.);
#469 = (
   BOUNDED_CURVE ()
   B_SPLINE_CURVE (2, (#470, #471, #472, #473, #474, #475, #476, #477, #478), .UNSPECIFIED., .T., .U.)
   B_SPLINE_CURVE_WITH_KNOTS ((3, 2, 2, 2, 3), (0., 9.42477796076938, 18.8495559215388, 28.2743338823081, 37.6991118430775), .UNSPECIFIED.)
   CURVE ()
   GEOMETRIC_REPRESENTATION_ITEM ()
   RATIONAL_B_SPLINE_CURVE ((1., 0.707106781186548, 1., 0.707106781186548, 1., 0.707106781186548, 1., 0.707106781186548, 1.))
   REPRESENTATION_ITEM ('')
);
#470 = CARTESIAN_POINT('', (6., 0., 25.));
#471 = CARTESIAN_POINT('', (6., 6., 25.));
#472 = CARTESIAN_POINT('', (3.67394039744206E-16, 6., 25.));
#473 = CARTESIAN_POINT('', (-6., 6., 25.));
#474 = CARTESIAN_POINT('', (-6., 7.34788079488412E-16, 25.));
#475 = CARTESIAN_POINT('', (-6., -6., 25.));
#476 = CARTESIAN_POINT('', (-1.10218211923262E-15, -6., 25.));
#477 = CARTESIAN_POINT('', (6., -6., 25.));
#478 = CARTESIAN_POINT('', (6., 0., 25.));
#479 = (
   BOUNDED_SURFACE ()
   B_SPLINE_SURFACE (2, 1, ((#480, #481), (#482, #483), (#484, #485), (#486, #487), (#488, #489), (#490, #491), (#492, #493), (#494, #495), (#496, #497)), .UNSPECIFIED., .T., .F., .U.)
   B_SPLINE_SURFACE_WITH_KNOTS ((3, 2, 2, 2, 3), (2, 2), (0., 9.42477796076938, 18.8495559215388, 28.2743338823081, 37.6991118430775), (0., 25.), .UNSPECIFIED.)
   GEOMETRIC_REPRESENTATION_ITEM ()
   RATIONAL_B_SPLINE_SURFACE (((1., 1.), (0.707106781186548, 0.707106781186548), (1., 1.), (0.707106781186548, 0.707106781186548), (1., 1.), (0.707106781186548, 0.707106781186548), (1., 1.), (0.707106781186548, 0.707106781186548), (1., 1.)))
   REPRESENTATION_ITEM ('')
   SURFACE ()
);
#480 = CARTESIAN_POINT('', (6., 0., 0.));
#481 = CARTESIAN_POINT('', (6., 0., 25.));
#482 = CARTESIAN_POINT('', (6., 6., 0.));
#483 = CARTESIAN_POINT('', (6., 6., 25.));
#484 = CARTESIAN_POINT('', (3.67394039744206E-16, 6., 0.));
#485 = CARTESIAN_POINT('', (3.67394039744206E-16, 6., 25.));
#486 = CARTESIAN_POINT('', (-6., 6., 0.));
#487 = CARTESIAN_POINT('', (-6., 6., 25.));
#488 = CARTESIAN_POINT('', (-6., 7.34788079488412E-16, 0.));
#489 = CARTESIAN_POINT('', (-6., 7.34788079488412E-16, 25.));
#490 = CARTESIAN_POINT('', (-6., -6., 0.));
#491 = CARTESIAN_POINT('', (-6., -6., 25.));
#492 = CARTESIAN_POINT('', (-1.10218211923262E-15, -6., 0.));
#493 = CARTESIAN_POINT('', (-1.10218211923262E-15, -6., 25.));
#494 = CARTESIAN_POINT('', (6., -6., 0.));
#495 = CARTESIAN_POINT('', (6., -6., 25.));
#496 = CARTESIAN_POINT('', (6., 0., 0.));
#497 = CARTESIAN_POINT('', (6., 0., 25.));
#498 = ADVANCED_FACE('', (#499), #502, .T.);
#499 = FACE_OUTER_BOUND('', #500, .T.);
#500 = EDGE_LOOP('', (#501));
#501 = ORIENTED_EDGE('', *, *, #455, .F.);
#502 = B_SPLINE_SURFACE_WITH_KNOTS('', 1, 1, ((#503, #504), (#505, #506)), .UNSPECIFIED., .F., .F., .U., (2, 2), (2, 2), (0., 1.), (0., 1.), .UNSPECIFIED.);
#503 = CARTESIAN_POINT('', (9.33380951166243, -9.33380951166243, 0.));
#504 = CARTESIAN_POINT('', (9.33380951166243, 9.33380951166243, 0.));
#505 = CARTESIAN_POINT('', (-9.33380951166243, -9.33380951166243, 0.));
#506 = CARTESIAN_POINT('', (-9.33380951166243, 9.33380951166243, 0.));
#507 = ADVANCED_FACE('', (#508), #511, .T.);
#508 = FACE_OUTER_BOUND('', #509, .T.);
#509 = EDGE_LOOP('', (#510));
#510 = ORIENTED_EDGE('', *, *, #468, .T.);
#511 = B_SPLINE_SURFACE_WITH_KNOTS('', 1, 1, ((#512, #513), (#514, #515)), .UNSPECIFIED., .F., .F., .U., (2, 2), (2, 2), (0., 1.), (0., 1.), .UNSPECIFIED.);
#512 = CARTESIAN_POINT('', (9.33380951166243, -9.33380951166243, 25.));
#513 = CARTESIAN_POINT('', (-9.33380951166243, -9.33380951166243, 25.));
#514 = CARTESIAN_POINT('', (9.33380951166243, 9.33380951166243, 25.));
#515 = CARTESIAN_POINT('', (-9.33380951166243, 9.33380951166243, 25.));
#516 = PRESENTATION_STYLE_ASSIGNMENT((#517));
#517 = SURFACE_STYLE_USAGE(.POSITIVE., #518);
#518 = SURFACE_SIDE_STYLE('', (#519));
#519 = SURFACE_STYLE_FILL_AREA(#520);
#520 = FILL_AREA_STYLE('', (#521));
#521 = FILL_AREA_STYLE_COLOUR('', #522);
#522 = COLOUR_RGB('', 0.50196078431373, 0.50196078431373, 0.50196078431373);
#523 = STYLED_ITEM('', (#516), #440);
#524 = MANIFOLD_SOLID_BREP('LP_multi_4', #525);
#525 = CLOSED_SHELL('', (#526, #582, #591));
#526 = ADVANCED_FACE('', (#527), #563, .T.);
#527 = FACE_OUTER_BOUND('', #528, .T.);
#528 = EDGE_LOOP('', (#529, #538, #550, #551));
#529 = ORIENTED_EDGE('', *, *, #530, .F.);
#530 = EDGE_CURVE('', #531, #533, #535, .T.);
#531 = VERTEX_POINT('', #532);
#532 = CARTESIAN_POINT('', (46., 0., 0.));
#533 = VERTEX_POINT('', #534);
#534 = CARTESIAN_POINT('', (46., 0., 25.));
#535 = B_SPLINE_CURVE_WITH_KNOTS('', 1, (#536, #537), .UNSPECIFIED., .F., .U., (2, 2), (0., 25.), .UNSPECIFIED.);
#536 = CARTESIAN_POINT('', (46., 0., 0.));
#537 = CARTESIAN_POINT('', (46., 0., 25.));
#538 = ORIENTED_EDGE('', *, *, #539, .T.);
#539 = EDGE_CURVE('', #531, #531, #540, .T.);
#540 = (
   BOUNDED_CURVE ()
   B_SPLINE_CURVE (2, (#541, #542, #543, #544, #545, #546, #547, #548, #549), .UNSPECIFIED., .T., .U.)
   B_SPLINE_CURVE_WITH_KNOTS ((3, 2, 2, 2, 3), (0., 9.42477796076938, 18.8495559215388, 28.2743338823081, 37.6991118430775), .UNSPECIFIED.)
   CURVE ()
   GEOMETRIC_REPRESENTATION_ITEM ()
   RATIONAL_B_SPLINE_CURVE ((1., 0.707106781186548, 1., 0.707106781186548, 1., 0.707106781186548, 1., 0.707106781186548, 1.))
   REPRESENTATION_ITEM ('')
);
#541 = CARTESIAN_POINT('', (46., 0., 0.));
#542 = CARTESIAN_POINT('', (46., 6., 0.));
#543 = CARTESIAN_POINT('', (40., 6., 0.));
#544 = CARTESIAN_POINT('', (34., 6., 0.));
#545 = CARTESIAN_POINT('', (34., 7.34788079488412E-16, 0.));
#546 = CARTESIAN_POINT('', (34., -6., 0.));
#547 = CARTESIAN_POINT('', (40., -6., 0.));
#548 = CARTESIAN_POINT('', (46., -6., 0.));
#549 = CARTESIAN_POINT('', (46., 0., 0.));
#550 = ORIENTED_EDGE('', *, *, #530, .T.);
#551 = ORIENTED_EDGE('', *, *, #552, .F.);
#552 = EDGE_CURVE('', #533, #533, #553, .T.);
#553 = (
   BOUNDED_CURVE ()
   B_SPLINE_CURVE (2, (#554, #555, #556, #557, #558, #559, #560, #561, #562), .UNSPECIFIED., .T., .U.)
   B_SPLINE_CURVE_WITH_KNOTS ((3, 2, 2, 2, 3), (0., 9.42477796076938, 18.8495559215388, 28.2743338823081, 37.6991118430775), .UNSPECIFIED.)
   CURVE ()
   GEOMETRIC_REPRESENTATION_ITEM ()
   RATIONAL_B_SPLINE_CURVE ((1., 0.707106781186548, 1., 0.707106781186548, 1., 0.707106781186548, 1., 0.707106781186548, 1.))
   REPRESENTATION_ITEM ('')
);
#554 = CARTESIAN_POINT('', (46., 0., 25.));
#555 = CARTESIAN_POINT('', (46., 6., 25.));
#556 = CARTESIAN_POINT('', (40., 6., 25.));
#557 = CARTESIAN_POINT('', (34., 6., 25.));
#558 = CARTESIAN_POINT('', (34., 7.34788079488412E-16, 25.));
#559 = CARTESIAN_POINT('', (34., -6., 25.));
#560 = CARTESIAN_POINT('', (40., -6., 25.));
#561 = CARTESIAN_POINT('', (46., -6., 25.));
#562 = CARTESIAN_POINT('', (46., 0., 25.));
#563 = (
   BOUNDED_SURFACE ()
   B_SPLINE_SURFACE (2, 1, ((#564, #565), (#566, #567), (#568, #569), (#570, #571), (#572, #573), (#574, #575), (#576, #577), (#578, #579), (#580, #581)), .UNSPECIFIED., .T., .F., .U.)
   B_SPLINE_SURFACE_WITH_KNOTS ((3, 2, 2, 2, 3), (2, 2), (0., 9.42477796076938, 18.8495559215388, 28.2743338823081, 37.6991118430775), (0., 25.), .UNSPECIFIED.)
   GEOMETRIC_REPRESENTATION_ITEM ()
   RATIONAL_B_SPLINE_SURFACE (((1., 1.), (0.707106781186548, 0.707106781186548), (1., 1.), (0.707106781186548, 0.707106781186548), (1., 1.), (0.707106781186548, 0.707106781186548), (1., 1.), (0.707106781186548, 0.707106781186548), (1., 1.)))
   REPRESENTATION_ITEM ('')
   SURFACE ()
);
#564 = CARTESIAN_POINT('', (46., 0., 0.));
#565 = CARTESIAN_POINT('', (46., 0., 25.));
#566 = CARTESIAN_POINT('', (46., 6., 0.));
#567 = CARTESIAN_POINT('', (46., 6., 25.));
#568 = CARTESIAN_POINT('', (40., 6., 0.));
#569 = CARTESIAN_POINT('', (40., 6., 25.));
#570 = CARTESIAN_POINT('', (34., 6., 0.));
#571 = CARTESIAN_POINT('', (34., 6., 25.));
#572 = CARTESIAN_POINT('', (34., 7.34788079488412E-16, 0.));
#573 = CARTESIAN_POINT('', (34., 7.34788079488412E-16, 25.));
#574 = CARTESIAN_POINT('', (34., -6., 0.));
#575 = CARTESIAN_POINT('', (34., -6., 25.));
#576 = CARTESIAN_POINT('', (40., -6., 0.));
#577 = CARTESIAN_POINT('', (40., -6., 25.));
#578 = CARTESIAN_POINT('', (46., -6., 0.));
#579 = CARTESIAN_POINT('', (46., -6., 25.));
#580 = CARTESIAN_POINT('', (46., 0., 0.));
#581 = CARTESIAN_POINT('', (46., 0., 25.));
#582 = ADVANCED_FACE('', (#583), #586, .T.);
#583 = FACE_OUTER_BOUND('', #584, .T.);
#584 = EDGE_LOOP('', (#585));
#585 = ORIENTED_EDGE('', *, *, #539, .F.);
#586 = B_SPLINE_SURFACE_WITH_KNOTS('', 1, 1, ((#587, #588), (#589, #590)), .UNSPECIFIED., .F., .F., .U., (2, 2), (2, 2), (0., 1.), (0., 1.), .UNSPECIFIED.);
#587 = CARTESIAN_POINT('', (49.3338095116624, -9.33380951166243, 0.));
#588 = CARTESIAN_POINT('', (49.3338095116624, 9.33380951166243, 0.));
#589 = CARTESIAN_POINT('', (30.6661904883376, -9.33380951166243, 0.));
#590 = CARTESIAN_POINT('', (30.6661904883376, 9.33380951166243, 0.));
#591 = ADVANCED_FACE('', (#592), #595, .T.);
#592 = FACE_OUTER_BOUND('', #593, .T.);
#593 = EDGE_LOOP('', (#594));
#594 = ORIENTED_EDGE('', *, *, #552, .T.);
#595 = B_SPLINE_SURFACE_WITH_KNOTS('', 1, 1, ((#596, #597), (#598, #599)), .UNSPECIFIED., .F., .F., .U., (2, 2), (2, 2), (0., 1.), (0., 1.), .UNSPECIFIED.);
#596 = CARTESIAN_POINT('', (49.3338095116624, -9.33380951166243, 25.));
#597 = CARTESIAN_POINT('', (30.6661904883376, -9.33380951166243, 25.));
#598 = CARTESIAN_POINT('', (49.3338095116624, 9.33380951166243, 25.));
#599 = CARTESIAN_POINT('', (30.6661904883376, 9.33380951166243, 25.));
#600 = PRESENTATION_STYLE_ASSIGNMENT((#601));
#601 = SURFACE_STYLE_USAGE(.POSITIVE., #602);
#602 = SURFACE_SIDE_STYLE('', (#603));
#603 = SURFACE_STYLE_FILL_AREA(#604);
#604 = FILL_AREA_STYLE('', (#605));
#605 = FILL_AREA_STYLE_COLOUR('', #606);
#606 = COLOUR_RGB('', 0.50196078431373, 0.50196078431373, 0.50196078431373);
#607 = STYLED_ITEM('', (#600), #524);
#608 = MANIFOLD_SOLID_BREP('LP_multi_5', #609);
#609 = CLOSED_SHELL('', (#610, #666, #675));
#610 = ADVANCED_FACE('', (#611), #647, .T.);
#611 = FACE_OUTER_BOUND('', #612, .T.);
#612 = EDGE_LOOP('', (#613, #622, #634, #635));
#613 = ORIENTED_EDGE('', *, *, #614, .F.);
#614 = EDGE_CURVE('', #615, #617, #619, .T.);
#615 = VERTEX_POINT('', #616);
#616 = CARTESIAN_POINT('', (86., 0., 0.));
#617 = VERTEX_POINT('', #618);
#618 = CARTESIAN_POINT('', (86., 0., 25.));
#619 = B_SPLINE_CURVE_WITH_KNOTS('', 1, (#620, #621), .UNSPECIFIED., .F., .U., (2, 2), (0., 25.), .UNSPECIFIED.);
#620 = CARTESIAN_POINT('', (86., 0., 0.));
#621 = CARTESIAN_POINT('', (86., 0., 25.));
#622 = ORIENTED_EDGE('', *, *, #623, .T.);
#623 = EDGE_CURVE('', #615, #615, #624, .T.);
#624 = (
   BOUNDED_CURVE ()
   B_SPLINE_CURVE (2, (#625, #626, #627, #628, #629, #630, #631, #632, #633), .UNSPECIFIED., .T., .U.)
   B_SPLINE_CURVE_WITH_KNOTS ((3, 2, 2, 2, 3), (0., 9.42477796076938, 18.8495559215388, 28.2743338823081, 37.6991118430775), .UNSPECIFIED.)
   CURVE ()
   GEOMETRIC_REPRESENTATION_ITEM ()
   RATIONAL_B_SPLINE_CURVE ((1., 0.707106781186548, 1., 0.707106781186548, 1., 0.707106781186548, 1., 0.707106781186548, 1.))
   REPRESENTATION_ITEM ('')
);
#625 = CARTESIAN_POINT('', (86., 0., 0.));
#626 = CARTESIAN_POINT('', (86., 6., 0.));
#627 = CARTESIAN_POINT('', (80., 6., 0.));
#628 = CARTESIAN_POINT('', (74., 6., 0.));
#629 = CARTESIAN_POINT('', (74., 7.34788079488412E-16, 0.));
#630 = CARTESIAN_POINT('', (74., -6., 0.));
#631 = CARTESIAN_POINT('', (80., -6., 0.));
#632 = CARTESIAN_POINT('', (86., -6., 0.));
#633 = CARTESIAN_POINT('', (86., 0., 0.));
#634 = ORIENTED_EDGE('', *, *, #614, .T.);
#635 = ORIENTED_EDGE('', *, *, #636, .F.);
#636 = EDGE_CURVE('', #617, #617, #637, .T.);
#637 = (
   BOUNDED_CURVE ()
   B_SPLINE_CURVE (2, (#638, #639, #640, #641, #642, #643, #644, #645, #646), .UNSPECIFIED., .T., .U.)
   B_SPLINE_CURVE_WITH_KNOTS ((3, 2, 2, 2, 3), (0., 9.42477796076938, 18.8495559215388, 28.2743338823081, 37.6991118430775), .UNSPECIFIED.)
   CURVE ()
   GEOMETRIC_REPRESENTATION_ITEM ()
   RATIONAL_B_SPLINE_CURVE ((1., 0.707106781186548, 1., 0.707106781186548, 1., 0.707106781186548, 1., 0.707106781186548, 1.))
   REPRESENTATION_ITEM ('')
);
#638 = CARTESIAN_POINT('', (86., 0., 25.));
#639 = CARTESIAN_POINT('', (86., 6., 25.));
#640 = CARTESIAN_POINT('', (80., 6., 25.));
#641 = CARTESIAN_POINT('', (74., 6., 25.));
#642 = CARTESIAN_POINT('', (74., 7.34788079488412E-16, 25.));
#643 = CARTESIAN_POINT('', (74., -6., 25.));
#644 = CARTESIAN_POINT('', (80., -6., 25.));
#645 = CARTESIAN_POINT('', (86., -6., 25.));
#646 = CARTESIAN_POINT('', (86., 0., 25.));
#647 = (
   BOUNDED_SURFACE ()
   B_SPLINE_SURFACE (2, 1, ((#648, #649), (#650, #651), (#652, #653), (#654, #655), (#656, #657), (#658, #659), (#660, #661), (#662, #663), (#664, #665)), .UNSPECIFIED., .T., .F., .U.)
   B_SPLINE_SURFACE_WITH_KNOTS ((3, 2, 2, 2, 3), (2, 2), (0., 9.42477796076938, 18.8495559215388, 28.2743338823081, 37.6991118430775), (0., 25.), .UNSPECIFIED.)
   GEOMETRIC_REPRESENTATION_ITEM ()
   RATIONAL_B_SPLINE_SURFACE (((1., 1.), (0.707106781186548, 0.707106781186548), (1., 1.), (0.707106781186548, 0.707106781186548), (1., 1.), (0.707106781186548, 0.707106781186548), (1., 1.), (0.707106781186548, 0.707106781186548), (1., 1.)))
   REPRESENTATION_ITEM ('')
   SURFACE ()
);
#648 = CARTESIAN_POINT('', (86., 0., 0.));
#649 = CARTESIAN_POINT('', (86., 0., 25.));
#650 = CARTESIAN_POINT('', (86., 6., 0.));
#651 = CARTESIAN_POINT('', (86., 6., 25.));
#652 = CARTESIAN_POINT('', (80., 6., 0.));
#653 = CARTESIAN_POINT('', (80., 6., 25.));
#654 = CARTESIAN_POINT('', (74., 6., 0.));
#655 = CARTESIAN_POINT('', (74., 6., 25.));
#656 = CARTESIAN_POINT('', (74., 7.34788079488412E-16, 0.));
#657 = CARTESIAN_POINT('', (74., 7.34788079488412E-16, 25.));
#658 = CARTESIAN_POINT('', (74., -6., 0.));
#659 = CARTESIAN_POINT('', (74., -6., 25.));
#660 = CARTESIAN_POINT('', (80., -6., 0.));
#661 = CARTESIAN_POINT('', (80., -6., 25.));
#662 = CARTESIAN_POINT('', (86., -6., 0.));
#663 = CARTESIAN_POINT('', (86., -6., 25.));
#664 = CARTESIAN_POINT('', (86., 0., 0.));
#665 = CARTESIAN_POINT('', (86., 0., 25.));
#666 = ADVANCED_FACE('', (#667), #670, .T.);
#667 = FACE_OUTER_BOUND('', #668, .T.);
#668 = EDGE_LOOP('', (#669));
#669 = ORIENTED_EDGE('', *, *, #623, .F.);
#670 = B_SPLINE_SURFACE_WITH_KNOTS('', 1, 1, ((#671, #672), (#673, #674)), .UNSPECIFIED., .F., .F., .U., (2, 2), (2, 2), (0., 1.), (0., 1.), .UNSPECIFIED.);
#671 = CARTESIAN_POINT('', (89.3338095116624, -9.33380951166243, 0.));
#672 = CARTESIAN_POINT('', (89.3338095116624, 9.33380951166243, 0.));
#673 = CARTESIAN_POINT('', (70.6661904883376, -9.33380951166243, 0.));
#674 = CARTESIAN_POINT('', (70.6661904883376, 9.33380951166243, 0.));
#675 = ADVANCED_FACE('', (#676), #679, .T.);
#676 = FACE_OUTER_BOUND('', #677, .T.);
#677 = EDGE_LOOP('', (#678));
#678 = ORIENTED_EDGE('', *, *, #636, .T.);
#679 = B_SPLINE_SURFACE_WITH_KNOTS('', 1, 1, ((#680, #681), (#682, #683)), .UNSPECIFIED., .F., .F., .U., (2, 2), (2, 2), (0., 1.), (0., 1.), .UNSPECIFIED.);
#680 = CARTESIAN_POINT('', (89.3338095116624, -9.33380951166243, 25.));
#681 = CARTESIAN_POINT('', (70.6661904883376, -9.33380951166243, 25.));
#682 = CARTESIAN_POINT('', (89.3338095116624, 9.33380951166243, 25.));
#683 = CARTESIAN_POINT('', (70.6661904883376, 9.33380951166243, 25.));
#684 = PRESENTATION_STYLE_ASSIGNMENT((#685));
#685 = SURFACE_STYLE_USAGE(.POSITIVE., #686);
#686 = SURFACE_SIDE_STYLE('', (#687));
#687 = SURFACE_STYLE_FILL_AREA(#688);
#688 = FILL_AREA_STYLE('', (#689));
#689 = FILL_AREA_STYLE_COLOUR('', #690);
#690 = COLOUR_RGB('', 0.50196078431373, 0.50196078431373, 0.50196078431373);
#691 = STYLED_ITEM('', (#684), #608);
#692 = CARTESIAN_POINT('Origin', (0., 0., 0.));
#693 = GEOMETRIC_SET('', (#692));
#694 = AXIS2_PLACEMENT_3D('WCS1', #695, #696, #697);
#695 = CARTESIAN_POINT('', (0., 0., 0.));
#696 = DIRECTION('', (0., 0., 1.));
#697 = DIRECTION('', (1., 0., 0.));
#698 = (
   GEOMETRIC_REPRESENTATION_CONTEXT (3)
   GLOBAL_UNCERTAINTY_ASSIGNED_CONTEXT ((#700))
   GLOBAL_UNIT_ASSIGNED_CONTEXT ((#699, #701, #702))
   REPRESENTATION_CONTEXT ('', '3D')
);
#699 = (
   LENGTH_UNIT ()
   NAMED_UNIT (*)
   SI_UNIT (.MILLI., .METRE.)
);
#700 = UNCERTAINTY_MEASURE_WITH_UNIT(LENGTH_MEASURE(1.E-6), #699, 'DISTANCE_ACCURACY_VALUE', '');
#701 = (
   NAMED_UNIT (*)
   SI_UNIT ($, .STERADIAN.)
   SOLID_ANGLE_UNIT ()
);
#702 = (
   NAMED_UNIT (*)
   PLANE_ANGLE_UNIT ()
   SI_UNIT ($, .RADIAN.)
);
#703 = SHAPE_REPRESENTATION('', (#720), #698);
#704 = PRODUCT_DEFINITION_SHAPE('', '', #705);
#705 = PRODUCT_DEFINITION('', '', #708, #712);
#706 = APPLICATION_CONTEXT('configuration controlled 3D designs of mechanical parts and assemblies');
#707 = APPLICATION_PROTOCOL_DEFINITION('International Standard', 'automotive_design', 2002, #706);
#708 = PRODUCT_DEFINITION_FORMATION_WITH_SPECIFIED_SOURCE('', '', #709, .NOT_KNOWN.);
#709 = PRODUCT('MultiTargets', 'MultiTargets', '', (#710));
#710 = PRODUCT_CONTEXT('', #706, 'mechanical');
#711 = PRODUCT_RELATED_PRODUCT_CATEGORY('detail', '', (#709));
#712 = PRODUCT_DEFINITION_CONTEXT('part definition', #706, 'design');
#713 = SHAPE_DEFINITION_REPRESENTATION(#704, #703);
#714 = CONSTRUCTIVE_GEOMETRY_REPRESENTATION('supplemental geometry', (#694), #698);
#715 = CONSTRUCTIVE_GEOMETRY_REPRESENTATION_RELATIONSHIP('', '', #703, #714);
#716 = SHAPE_REPRESENTATION_RELATIONSHIP('', '', #703, #717);
#717 = SHAPE_REPRESENTATION('', (#693), #698);
#718 = SHAPE_REPRESENTATION_RELATIONSHIP('', '', #703, #719);
#719 = ADVANCED_BREP_SHAPE_REPRESENTATION('', (#1, #148, #294, #440, #524, #608), #698);
#720 = AXIS2_PLACEMENT_3D('', #721, #722, #723);
#721 = CARTESIAN_POINT('', (0., 0., 0.));
#722 = DIRECTION('', (0., 0., 1.));
#723 = DIRECTION('', (1., 0., 0.));
ENDSEC;
END-ISO-10303-21;
