ISO-10303-21;
HEADER;
FILE_DESCRIPTION(('STEP'), '1');
FILE_NAME('UpdateDist', '2026-04-20T16:24:03', (''), (''), 'Express 3.1.2.0', 'Express Tool', 'Unknown');
FILE_SCHEMA(('AUTOMOTIVE_DESIGN'));
ENDSEC;

DATA;
#1 = MANIFOLD_SOLID_BREP('RefCyl_0', #2);
#2 = CLOSED_SHELL('', (#3, #59, #68));
#3 = ADVANCED_FACE('', (#4), #40, .T.);
#4 = FACE_OUTER_BOUND('', #5, .T.);
#5 = EDGE_LOOP('', (#6, #15, #27, #28));
#6 = ORIENTED_EDGE('', *, *, #7, .F.);
#7 = EDGE_CURVE('', #8, #10, #12, .T.);
#8 = VERTEX_POINT('', #9);
#9 = CARTESIAN_POINT('', (5., 0., 0.));
#10 = VERTEX_POINT('', #11);
#11 = CARTESIAN_POINT('', (5., 0., 5.));
#12 = B_SPLINE_CURVE_WITH_KNOTS('', 1, (#13, #14), .UNSPECIFIED., .F., .U., (2, 2), (0., 5.), .UNSPECIFIED.);
#13 = CARTESIAN_POINT('', (5., 0., 0.));
#14 = CARTESIAN_POINT('', (5., 0., 5.));
#15 = ORIENTED_EDGE('', *, *, #16, .T.);
#16 = EDGE_CURVE('', #8, #8, #17, .T.);
#17 = (
   BOUNDED_CURVE ()
   B_SPLINE_CURVE (2, (#18, #19, #20, #21, #22, #23, #24, #25, #26), .UNSPECIFIED., .T., .U.)
   B_SPLINE_CURVE_WITH_KNOTS ((3, 2, 2, 2, 3), (0., 7.85398163397448, 15.707963267949, 23.5619449019234, 31.4159265358979), .UNSPECIFIED.)
   CURVE ()
   GEOMETRIC_REPRESENTATION_ITEM ()
   RATIONAL_B_SPLINE_CURVE ((1., 0.707106781186548, 1., 0.707106781186548, 1., 0.707106781186548, 1., 0.707106781186548, 1.))
   REPRESENTATION_ITEM ('')
);
#18 = CARTESIAN_POINT('', (5., 0., 0.));
#19 = CARTESIAN_POINT('', (5., 5., 0.));
#20 = CARTESIAN_POINT('', (3.06161699786838E-16, 5., 0.));
#21 = CARTESIAN_POINT('', (-5., 5., 0.));
#22 = CARTESIAN_POINT('', (-5., 6.12323399573677E-16, 0.));
#23 = CARTESIAN_POINT('', (-5., -5., 0.));
#24 = CARTESIAN_POINT('', (-9.18485099360515E-16, -5., 0.));
#25 = CARTESIAN_POINT('', (5., -5., 0.));
#26 = CARTESIAN_POINT('', (5., 0., 0.));
#27 = ORIENTED_EDGE('', *, *, #7, .T.);
#28 = ORIENTED_EDGE('', *, *, #29, .F.);
#29 = EDGE_CURVE('', #10, #10, #30, .T.);
#30 = (
   BOUNDED_CURVE ()
   B_SPLINE_CURVE (2, (#31, #32, #33, #34, #35, #36, #37, #38, #39), .UNSPECIFIED., .T., .U.)
   B_SPLINE_CURVE_WITH_KNOTS ((3, 2, 2, 2, 3), (0., 7.85398163397448, 15.707963267949, 23.5619449019234, 31.4159265358979), .UNSPECIFIED.)
   CURVE ()
   GEOMETRIC_REPRESENTATION_ITEM ()
   RATIONAL_B_SPLINE_CURVE ((1., 0.707106781186548, 1., 0.707106781186548, 1., 0.707106781186548, 1., 0.707106781186548, 1.))
   REPRESENTATION_ITEM ('')
);
#31 = CARTESIAN_POINT('', (5., 0., 5.));
#32 = CARTESIAN_POINT('', (5., 5., 5.));
#33 = CARTESIAN_POINT('', (3.06161699786838E-16, 5., 5.));
#34 = CARTESIAN_POINT('', (-5., 5., 5.));
#35 = CARTESIAN_POINT('', (-5., 6.12323399573677E-16, 5.));
#36 = CARTESIAN_POINT('', (-5., -5., 5.));
#37 = CARTESIAN_POINT('', (-9.18485099360515E-16, -5., 5.));
#38 = CARTESIAN_POINT('', (5., -5., 5.));
#39 = CARTESIAN_POINT('', (5., 0., 5.));
#40 = (
   BOUNDED_SURFACE ()
   B_SPLINE_SURFACE (2, 1, ((#41, #42), (#43, #44), (#45, #46), (#47, #48), (#49, #50), (#51, #52), (#53, #54), (#55, #56), (#57, #58)), .UNSPECIFIED., .T., .F., .U.)
   B_SPLINE_SURFACE_WITH_KNOTS ((3, 2, 2, 2, 3), (2, 2), (0., 7.85398163397448, 15.707963267949, 23.5619449019234, 31.4159265358979), (0., 5.), .UNSPECIFIED.)
   GEOMETRIC_REPRESENTATION_ITEM ()
   RATIONAL_B_SPLINE_SURFACE (((1., 1.), (0.707106781186548, 0.707106781186548), (1., 1.), (0.707106781186548, 0.707106781186548), (1., 1.), (0.707106781186548, 0.707106781186548), (1., 1.), (0.707106781186548, 0.707106781186548), (1., 1.)))
   REPRESENTATION_ITEM ('')
   SURFACE ()
);
#41 = CARTESIAN_POINT('', (5., 0., 0.));
#42 = CARTESIAN_POINT('', (5., 0., 5.));
#43 = CARTESIAN_POINT('', (5., 5., 0.));
#44 = CARTESIAN_POINT('', (5., 5., 5.));
#45 = CARTESIAN_POINT('', (3.06161699786838E-16, 5., 0.));
#46 = CARTESIAN_POINT('', (3.06161699786838E-16, 5., 5.));
#47 = CARTESIAN_POINT('', (-5., 5., 0.));
#48 = CARTESIAN_POINT('', (-5., 5., 5.));
#49 = CARTESIAN_POINT('', (-5., 6.12323399573677E-16, 0.));
#50 = CARTESIAN_POINT('', (-5., 6.12323399573677E-16, 5.));
#51 = CARTESIAN_POINT('', (-5., -5., 0.));
#52 = CARTESIAN_POINT('', (-5., -5., 5.));
#53 = CARTESIAN_POINT('', (-9.18485099360515E-16, -5., 0.));
#54 = CARTESIAN_POINT('', (-9.18485099360515E-16, -5., 5.));
#55 = CARTESIAN_POINT('', (5., -5., 0.));
#56 = CARTESIAN_POINT('', (5., -5., 5.));
#57 = CARTESIAN_POINT('', (5., 0., 0.));
#58 = CARTESIAN_POINT('', (5., 0., 5.));
#59 = ADVANCED_FACE('', (#60), #63, .T.);
#60 = FACE_OUTER_BOUND('', #61, .T.);
#61 = EDGE_LOOP('', (#62));
#62 = ORIENTED_EDGE('', *, *, #16, .F.);
#63 = B_SPLINE_SURFACE_WITH_KNOTS('', 1, 1, ((#64, #65), (#66, #67)), .UNSPECIFIED., .F., .F., .U., (2, 2), (2, 2), (0., 1.), (0., 1.), .UNSPECIFIED.);
#64 = CARTESIAN_POINT('', (7.77817459305202, -7.77817459305203, 0.));
#65 = CARTESIAN_POINT('', (7.77817459305202, 7.77817459305202, 0.));
#66 = CARTESIAN_POINT('', (-7.77817459305203, -7.77817459305203, 0.));
#67 = CARTESIAN_POINT('', (-7.77817459305203, 7.77817459305202, 0.));
#68 = ADVANCED_FACE('', (#69), #72, .T.);
#69 = FACE_OUTER_BOUND('', #70, .T.);
#70 = EDGE_LOOP('', (#71));
#71 = ORIENTED_EDGE('', *, *, #29, .T.);
#72 = B_SPLINE_SURFACE_WITH_KNOTS('', 1, 1, ((#73, #74), (#75, #76)), .UNSPECIFIED., .F., .F., .U., (2, 2), (2, 2), (0., 1.), (0., 1.), .UNSPECIFIED.);
#73 = CARTESIAN_POINT('', (7.77817459305202, -7.77817459305203, 5.));
#74 = CARTESIAN_POINT('', (-7.77817459305203, -7.77817459305203, 5.));
#75 = CARTESIAN_POINT('', (7.77817459305202, 7.77817459305202, 5.));
#76 = CARTESIAN_POINT('', (-7.77817459305203, 7.77817459305202, 5.));
#77 = DRAUGHTING_MODEL('', (#85, #231, #377, #523, #669), #672);
#78 = PRESENTATION_STYLE_ASSIGNMENT((#79));
#79 = SURFACE_STYLE_USAGE(.POSITIVE., #80);
#80 = SURFACE_SIDE_STYLE('', (#81));
#81 = SURFACE_STYLE_FILL_AREA(#82);
#82 = FILL_AREA_STYLE('', (#83));
#83 = FILL_AREA_STYLE_COLOUR('', #84);
#84 = COLOUR_RGB('', 0.50196078431373, 0.50196078431373, 0.50196078431373);
#85 = STYLED_ITEM('', (#78), #1);
#86 = MANIFOLD_SOLID_BREP('LP1_0', #87);
#87 = CLOSED_SHELL('', (#88, #124, #152, #180, #200, #212));
#88 = ADVANCED_FACE('', (#89), #119, .T.);
#89 = FACE_OUTER_BOUND('', #90, .T.);
#90 = EDGE_LOOP('', (#91, #100, #107, #114));
#91 = ORIENTED_EDGE('', *, *, #92, .T.);
#92 = EDGE_CURVE('', #93, #95, #97, .T.);
#93 = VERTEX_POINT('', #94);
#94 = CARTESIAN_POINT('', (0., 15., 0.));
#95 = VERTEX_POINT('', #96);
#96 = CARTESIAN_POINT('', (0., 15., 25.));
#97 = B_SPLINE_CURVE_WITH_KNOTS('', 1, (#98, #99), .UNSPECIFIED., .F., .U., (2, 2), (0., 25.), .UNSPECIFIED.);
#98 = CARTESIAN_POINT('', (0., 15., 0.));
#99 = CARTESIAN_POINT('', (0., 15., 25.));
#100 = ORIENTED_EDGE('', *, *, #101, .T.);
#101 = EDGE_CURVE('', #95, #102, #104, .T.);
#102 = VERTEX_POINT('', #103);
#103 = CARTESIAN_POINT('', (20., 15., 25.));
#104 = B_SPLINE_CURVE_WITH_KNOTS('', 1, (#105, #106), .UNSPECIFIED., .F., .U., (2, 2), (0., 20.), .UNSPECIFIED.);
#105 = CARTESIAN_POINT('', (0., 15., 25.));
#106 = CARTESIAN_POINT('', (20., 15., 25.));
#107 = ORIENTED_EDGE('', *, *, #108, .F.);
#108 = EDGE_CURVE('', #109, #102, #111, .T.);
#109 = VERTEX_POINT('', #110);
#110 = CARTESIAN_POINT('', (20., 15., 0.));
#111 = B_SPLINE_CURVE_WITH_KNOTS('', 1, (#112, #113), .UNSPECIFIED., .F., .U., (2, 2), (0., 25.), .UNSPECIFIED.);
#112 = CARTESIAN_POINT('', (20., 15., 0.));
#113 = CARTESIAN_POINT('', (20., 15., 25.));
#114 = ORIENTED_EDGE('', *, *, #115, .F.);
#115 = EDGE_CURVE('', #93, #109, #116, .T.);
#116 = B_SPLINE_CURVE_WITH_KNOTS('', 1, (#117, #118), .UNSPECIFIED., .F., .U., (2, 2), (0., 20.), .UNSPECIFIED.);
#117 = CARTESIAN_POINT('', (0., 15., 0.));
#118 = CARTESIAN_POINT('', (20., 15., 0.));
#119 = B_SPLINE_SURFACE_WITH_KNOTS('', 1, 1, ((#120, #121), (#122, #123)), .UNSPECIFIED., .F., .F., .U., (2, 2), (2, 2), (0., 25.), (0., 20.), .UNSPECIFIED.);
#120 = CARTESIAN_POINT('', (0., 15., 0.));
#121 = CARTESIAN_POINT('', (20., 15., 0.));
#122 = CARTESIAN_POINT('', (0., 15., 25.));
#123 = CARTESIAN_POINT('', (20., 15., 25.));
#124 = ADVANCED_FACE('', (#125), #147, .T.);
#125 = FACE_OUTER_BOUND('', #126, .T.);
#126 = EDGE_LOOP('', (#127, #134, #141, #146));
#127 = ORIENTED_EDGE('', *, *, #128, .F.);
#128 = EDGE_CURVE('', #129, #95, #131, .T.);
#129 = VERTEX_POINT('', #130);
#130 = CARTESIAN_POINT('', (0., 0., 25.));
#131 = B_SPLINE_CURVE_WITH_KNOTS('', 1, (#132, #133), .UNSPECIFIED., .F., .U., (2, 2), (0., 15.), .UNSPECIFIED.);
#132 = CARTESIAN_POINT('', (0., 0., 25.));
#133 = CARTESIAN_POINT('', (0., 15., 25.));
#134 = ORIENTED_EDGE('', *, *, #135, .T.);
#135 = EDGE_CURVE('', #129, #136, #138, .T.);
#136 = VERTEX_POINT('', #137);
#137 = CARTESIAN_POINT('', (20., 0., 25.));
#138 = B_SPLINE_CURVE_WITH_KNOTS('', 1, (#139, #140), .UNSPECIFIED., .F., .U., (2, 2), (0., 20.), .UNSPECIFIED.);
#139 = CARTESIAN_POINT('', (0., 0., 25.));
#140 = CARTESIAN_POINT('', (20., 0., 25.));
#141 = ORIENTED_EDGE('', *, *, #142, .T.);
#142 = EDGE_CURVE('', #136, #102, #143, .T.);
#143 = B_SPLINE_CURVE_WITH_KNOTS('', 1, (#144, #145), .UNSPECIFIED., .F., .U., (2, 2), (0., 15.), .UNSPECIFIED.);
#144 = CARTESIAN_POINT('', (20., 0., 25.));
#145 = CARTESIAN_POINT('', (20., 15., 25.));
#146 = ORIENTED_EDGE('', *, *, #101, .F.);
#147 = B_SPLINE_SURFACE_WITH_KNOTS('', 1, 1, ((#148, #149), (#150, #151)), .UNSPECIFIED., .F., .F., .U., (2, 2), (2, 2), (0., 20.), (0., 15.), .UNSPECIFIED.);
#148 = CARTESIAN_POINT('', (0., 0., 25.));
#149 = CARTESIAN_POINT('', (0., 15., 25.));
#150 = CARTESIAN_POINT('', (20., 0., 25.));
#151 = CARTESIAN_POINT('', (20., 15., 25.));
#152 = ADVANCED_FACE('', (#153), #175, .T.);
#153 = FACE_OUTER_BOUND('', #154, .T.);
#154 = EDGE_LOOP('', (#155, #162, #169, #174));
#155 = ORIENTED_EDGE('', *, *, #156, .F.);
#156 = EDGE_CURVE('', #157, #129, #159, .T.);
#157 = VERTEX_POINT('', #158);
#158 = CARTESIAN_POINT('', (0., 0., 0.));
#159 = B_SPLINE_CURVE_WITH_KNOTS('', 1, (#160, #161), .UNSPECIFIED., .F., .U., (2, 2), (0., 25.), .UNSPECIFIED.);
#160 = CARTESIAN_POINT('', (0., 0., 0.));
#161 = CARTESIAN_POINT('', (0., 0., 25.));
#162 = ORIENTED_EDGE('', *, *, #163, .T.);
#163 = EDGE_CURVE('', #157, #164, #166, .T.);
#164 = VERTEX_POINT('', #165);
#165 = CARTESIAN_POINT('', (20., 0., 0.));
#166 = B_SPLINE_CURVE_WITH_KNOTS('', 1, (#167, #168), .UNSPECIFIED., .F., .U., (2, 2), (0., 20.), .UNSPECIFIED.);
#167 = CARTESIAN_POINT('', (0., 0., 0.));
#168 = CARTESIAN_POINT('', (20., 0., 0.));
#169 = ORIENTED_EDGE('', *, *, #170, .T.);
#170 = EDGE_CURVE('', #164, #136, #171, .T.);
#171 = B_SPLINE_CURVE_WITH_KNOTS('', 1, (#172, #173), .UNSPECIFIED., .F., .U., (2, 2), (0., 25.), .UNSPECIFIED.);
#172 = CARTESIAN_POINT('', (20., 0., 0.));
#173 = CARTESIAN_POINT('', (20., 0., 25.));
#174 = ORIENTED_EDGE('', *, *, #135, .F.);
#175 = B_SPLINE_SURFACE_WITH_KNOTS('', 1, 1, ((#176, #177), (#178, #179)), .UNSPECIFIED., .F., .F., .U., (2, 2), (2, 2), (0., 20.), (0., 25.), .UNSPECIFIED.);
#176 = CARTESIAN_POINT('', (0., 0., 0.));
#177 = CARTESIAN_POINT('', (0., 0., 25.));
#178 = CARTESIAN_POINT('', (20., 0., 0.));
#179 = CARTESIAN_POINT('', (20., 0., 25.));
#180 = ADVANCED_FACE('', (#181), #195, .T.);
#181 = FACE_OUTER_BOUND('', #182, .T.);
#182 = EDGE_LOOP('', (#183, #188, #189, #194));
#183 = ORIENTED_EDGE('', *, *, #184, .T.);
#184 = EDGE_CURVE('', #157, #93, #185, .T.);
#185 = B_SPLINE_CURVE_WITH_KNOTS('', 1, (#186, #187), .UNSPECIFIED., .F., .U., (2, 2), (0., 15.), .UNSPECIFIED.);
#186 = CARTESIAN_POINT('', (0., 0., 0.));
#187 = CARTESIAN_POINT('', (0., 15., 0.));
#188 = ORIENTED_EDGE('', *, *, #115, .T.);
#189 = ORIENTED_EDGE('', *, *, #190, .F.);
#190 = EDGE_CURVE('', #164, #109, #191, .T.);
#191 = B_SPLINE_CURVE_WITH_KNOTS('', 1, (#192, #193), .UNSPECIFIED., .F., .U., (2, 2), (0., 15.), .UNSPECIFIED.);
#192 = CARTESIAN_POINT('', (20., 0., 0.));
#193 = CARTESIAN_POINT('', (20., 15., 0.));
#194 = ORIENTED_EDGE('', *, *, #163, .F.);
#195 = B_SPLINE_SURFACE_WITH_KNOTS('', 1, 1, ((#196, #197), (#198, #199)), .UNSPECIFIED., .F., .F., .U., (2, 2), (2, 2), (0., 15.), (0., 20.), .UNSPECIFIED.);
#196 = CARTESIAN_POINT('', (0., 0., 0.));
#197 = CARTESIAN_POINT('', (20., 0., 0.));
#198 = CARTESIAN_POINT('', (0., 15., 0.));
#199 = CARTESIAN_POINT('', (20., 15., 0.));
#200 = ADVANCED_FACE('', (#201), #207, .T.);
#201 = FACE_OUTER_BOUND('', #202, .T.);
#202 = EDGE_LOOP('', (#203, #204, #205, #206));
#203 = ORIENTED_EDGE('', *, *, #170, .F.);
#204 = ORIENTED_EDGE('', *, *, #190, .T.);
#205 = ORIENTED_EDGE('', *, *, #108, .T.);
#206 = ORIENTED_EDGE('', *, *, #142, .F.);
#207 = B_SPLINE_SURFACE_WITH_KNOTS('', 1, 1, ((#208, #209), (#210, #211)), .UNSPECIFIED., .F., .F., .U., (2, 2), (2, 2), (0., 15.), (0., 25.), .UNSPECIFIED.);
#208 = CARTESIAN_POINT('', (20., 0., 0.));
#209 = CARTESIAN_POINT('', (20., 0., 25.));
#210 = CARTESIAN_POINT('', (20., 15., 0.));
#211 = CARTESIAN_POINT('', (20., 15., 25.));
#212 = ADVANCED_FACE('', (#213), #219, .T.);
#213 = FACE_OUTER_BOUND('', #214, .T.);
#214 = EDGE_LOOP('', (#215, #216, #217, #218));
#215 = ORIENTED_EDGE('', *, *, #156, .T.);
#216 = ORIENTED_EDGE('', *, *, #128, .T.);
#217 = ORIENTED_EDGE('', *, *, #92, .F.);
#218 = ORIENTED_EDGE('', *, *, #184, .F.);
#219 = B_SPLINE_SURFACE_WITH_KNOTS('', 1, 1, ((#220, #221), (#222, #223)), .UNSPECIFIED., .F., .F., .U., (2, 2), (2, 2), (0., 25.), (0., 15.), .UNSPECIFIED.);
#220 = CARTESIAN_POINT('', (0., 0., 0.));
#221 = CARTESIAN_POINT('', (0., 15., 0.));
#222 = CARTESIAN_POINT('', (0., 0., 25.));
#223 = CARTESIAN_POINT('', (0., 15., 25.));
#224 = PRESENTATION_STYLE_ASSIGNMENT((#225));
#225 = SURFACE_STYLE_USAGE(.POSITIVE., #226);
#226 = SURFACE_SIDE_STYLE('', (#227));
#227 = SURFACE_STYLE_FILL_AREA(#228);
#228 = FILL_AREA_STYLE('', (#229));
#229 = FILL_AREA_STYLE_COLOUR('', #230);
#230 = COLOUR_RGB('', 0.50196078431373, 0.50196078431373, 0.50196078431373);
#231 = STYLED_ITEM('', (#224), #86);
#232 = MANIFOLD_SOLID_BREP('LP1_1', #233);
#233 = CLOSED_SHELL('', (#234, #270, #298, #326, #346, #358));
#234 = ADVANCED_FACE('', (#235), #265, .T.);
#235 = FACE_OUTER_BOUND('', #236, .T.);
#236 = EDGE_LOOP('', (#237, #246, #253, #260));
#237 = ORIENTED_EDGE('', *, *, #238, .T.);
#238 = EDGE_CURVE('', #239, #241, #243, .T.);
#239 = VERTEX_POINT('', #240);
#240 = CARTESIAN_POINT('', (30., 15., 0.));
#241 = VERTEX_POINT('', #242);
#242 = CARTESIAN_POINT('', (30., 15., 25.));
#243 = B_SPLINE_CURVE_WITH_KNOTS('', 1, (#244, #245), .UNSPECIFIED., .F., .U., (2, 2), (0., 25.), .UNSPECIFIED.);
#244 = CARTESIAN_POINT('', (30., 15., 0.));
#245 = CARTESIAN_POINT('', (30., 15., 25.));
#246 = ORIENTED_EDGE('', *, *, #247, .T.);
#247 = EDGE_CURVE('', #241, #248, #250, .T.);
#248 = VERTEX_POINT('', #249);
#249 = CARTESIAN_POINT('', (50., 15., 25.));
#250 = B_SPLINE_CURVE_WITH_KNOTS('', 1, (#251, #252), .UNSPECIFIED., .F., .U., (2, 2), (0., 20.), .UNSPECIFIED.);
#251 = CARTESIAN_POINT('', (30., 15., 25.));
#252 = CARTESIAN_POINT('', (50., 15., 25.));
#253 = ORIENTED_EDGE('', *, *, #254, .F.);
#254 = EDGE_CURVE('', #255, #248, #257, .T.);
#255 = VERTEX_POINT('', #256);
#256 = CARTESIAN_POINT('', (50., 15., 0.));
#257 = B_SPLINE_CURVE_WITH_KNOTS('', 1, (#258, #259), .UNSPECIFIED., .F., .U., (2, 2), (0., 25.), .UNSPECIFIED.);
#258 = CARTESIAN_POINT('', (50., 15., 0.));
#259 = CARTESIAN_POINT('', (50., 15., 25.));
#260 = ORIENTED_EDGE('', *, *, #261, .F.);
#261 = EDGE_CURVE('', #239, #255, #262, .T.);
#262 = B_SPLINE_CURVE_WITH_KNOTS('', 1, (#263, #264), .UNSPECIFIED., .F., .U., (2, 2), (0., 20.), .UNSPECIFIED.);
#263 = CARTESIAN_POINT('', (30., 15., 0.));
#264 = CARTESIAN_POINT('', (50., 15., 0.));
#265 = B_SPLINE_SURFACE_WITH_KNOTS('', 1, 1, ((#266, #267), (#268, #269)), .UNSPECIFIED., .F., .F., .U., (2, 2), (2, 2), (0., 25.), (0., 20.), .UNSPECIFIED.);
#266 = CARTESIAN_POINT('', (30., 15., 0.));
#267 = CARTESIAN_POINT('', (50., 15., 0.));
#268 = CARTESIAN_POINT('', (30., 15., 25.));
#269 = CARTESIAN_POINT('', (50., 15., 25.));
#270 = ADVANCED_FACE('', (#271), #293, .T.);
#271 = FACE_OUTER_BOUND('', #272, .T.);
#272 = EDGE_LOOP('', (#273, #280, #287, #292));
#273 = ORIENTED_EDGE('', *, *, #274, .F.);
#274 = EDGE_CURVE('', #275, #241, #277, .T.);
#275 = VERTEX_POINT('', #276);
#276 = CARTESIAN_POINT('', (30., 0., 25.));
#277 = B_SPLINE_CURVE_WITH_KNOTS('', 1, (#278, #279), .UNSPECIFIED., .F., .U., (2, 2), (0., 15.), .UNSPECIFIED.);
#278 = CARTESIAN_POINT('', (30., 0., 25.));
#279 = CARTESIAN_POINT('', (30., 15., 25.));
#280 = ORIENTED_EDGE('', *, *, #281, .T.);
#281 = EDGE_CURVE('', #275, #282, #284, .T.);
#282 = VERTEX_POINT('', #283);
#283 = CARTESIAN_POINT('', (50., 0., 25.));
#284 = B_SPLINE_CURVE_WITH_KNOTS('', 1, (#285, #286), .UNSPECIFIED., .F., .U., (2, 2), (0., 20.), .UNSPECIFIED.);
#285 = CARTESIAN_POINT('', (30., 0., 25.));
#286 = CARTESIAN_POINT('', (50., 0., 25.));
#287 = ORIENTED_EDGE('', *, *, #288, .T.);
#288 = EDGE_CURVE('', #282, #248, #289, .T.);
#289 = B_SPLINE_CURVE_WITH_KNOTS('', 1, (#290, #291), .UNSPECIFIED., .F., .U., (2, 2), (0., 15.), .UNSPECIFIED.);
#290 = CARTESIAN_POINT('', (50., 0., 25.));
#291 = CARTESIAN_POINT('', (50., 15., 25.));
#292 = ORIENTED_EDGE('', *, *, #247, .F.);
#293 = B_SPLINE_SURFACE_WITH_KNOTS('', 1, 1, ((#294, #295), (#296, #297)), .UNSPECIFIED., .F., .F., .U., (2, 2), (2, 2), (0., 20.), (0., 15.), .UNSPECIFIED.);
#294 = CARTESIAN_POINT('', (30., 0., 25.));
#295 = CARTESIAN_POINT('', (30., 15., 25.));
#296 = CARTESIAN_POINT('', (50., 0., 25.));
#297 = CARTESIAN_POINT('', (50., 15., 25.));
#298 = ADVANCED_FACE('', (#299), #321, .T.);
#299 = FACE_OUTER_BOUND('', #300, .T.);
#300 = EDGE_LOOP('', (#301, #308, #315, #320));
#301 = ORIENTED_EDGE('', *, *, #302, .F.);
#302 = EDGE_CURVE('', #303, #275, #305, .T.);
#303 = VERTEX_POINT('', #304);
#304 = CARTESIAN_POINT('', (30., 0., 0.));
#305 = B_SPLINE_CURVE_WITH_KNOTS('', 1, (#306, #307), .UNSPECIFIED., .F., .U., (2, 2), (0., 25.), .UNSPECIFIED.);
#306 = CARTESIAN_POINT('', (30., 0., 0.));
#307 = CARTESIAN_POINT('', (30., 0., 25.));
#308 = ORIENTED_EDGE('', *, *, #309, .T.);
#309 = EDGE_CURVE('', #303, #310, #312, .T.);
#310 = VERTEX_POINT('', #311);
#311 = CARTESIAN_POINT('', (50., 0., 0.));
#312 = B_SPLINE_CURVE_WITH_KNOTS('', 1, (#313, #314), .UNSPECIFIED., .F., .U., (2, 2), (0., 20.), .UNSPECIFIED.);
#313 = CARTESIAN_POINT('', (30., 0., 0.));
#314 = CARTESIAN_POINT('', (50., 0., 0.));
#315 = ORIENTED_EDGE('', *, *, #316, .T.);
#316 = EDGE_CURVE('', #310, #282, #317, .T.);
#317 = B_SPLINE_CURVE_WITH_KNOTS('', 1, (#318, #319), .UNSPECIFIED., .F., .U., (2, 2), (0., 25.), .UNSPECIFIED.);
#318 = CARTESIAN_POINT('', (50., 0., 0.));
#319 = CARTESIAN_POINT('', (50., 0., 25.));
#320 = ORIENTED_EDGE('', *, *, #281, .F.);
#321 = B_SPLINE_SURFACE_WITH_KNOTS('', 1, 1, ((#322, #323), (#324, #325)), .UNSPECIFIED., .F., .F., .U., (2, 2), (2, 2), (0., 20.), (0., 25.), .UNSPECIFIED.);
#322 = CARTESIAN_POINT('', (30., 0., 0.));
#323 = CARTESIAN_POINT('', (30., 0., 25.));
#324 = CARTESIAN_POINT('', (50., 0., 0.));
#325 = CARTESIAN_POINT('', (50., 0., 25.));
#326 = ADVANCED_FACE('', (#327), #341, .T.);
#327 = FACE_OUTER_BOUND('', #328, .T.);
#328 = EDGE_LOOP('', (#329, #334, #335, #340));
#329 = ORIENTED_EDGE('', *, *, #330, .T.);
#330 = EDGE_CURVE('', #303, #239, #331, .T.);
#331 = B_SPLINE_CURVE_WITH_KNOTS('', 1, (#332, #333), .UNSPECIFIED., .F., .U., (2, 2), (0., 15.), .UNSPECIFIED.);
#332 = CARTESIAN_POINT('', (30., 0., 0.));
#333 = CARTESIAN_POINT('', (30., 15., 0.));
#334 = ORIENTED_EDGE('', *, *, #261, .T.);
#335 = ORIENTED_EDGE('', *, *, #336, .F.);
#336 = EDGE_CURVE('', #310, #255, #337, .T.);
#337 = B_SPLINE_CURVE_WITH_KNOTS('', 1, (#338, #339), .UNSPECIFIED., .F., .U., (2, 2), (0., 15.), .UNSPECIFIED.);
#338 = CARTESIAN_POINT('', (50., 0., 0.));
#339 = CARTESIAN_POINT('', (50., 15., 0.));
#340 = ORIENTED_EDGE('', *, *, #309, .F.);
#341 = B_SPLINE_SURFACE_WITH_KNOTS('', 1, 1, ((#342, #343), (#344, #345)), .UNSPECIFIED., .F., .F., .U., (2, 2), (2, 2), (0., 15.), (0., 20.), .UNSPECIFIED.);
#342 = CARTESIAN_POINT('', (30., 0., 0.));
#343 = CARTESIAN_POINT('', (50., 0., 0.));
#344 = CARTESIAN_POINT('', (30., 15., 0.));
#345 = CARTESIAN_POINT('', (50., 15., 0.));
#346 = ADVANCED_FACE('', (#347), #353, .T.);
#347 = FACE_OUTER_BOUND('', #348, .T.);
#348 = EDGE_LOOP('', (#349, #350, #351, #352));
#349 = ORIENTED_EDGE('', *, *, #316, .F.);
#350 = ORIENTED_EDGE('', *, *, #336, .T.);
#351 = ORIENTED_EDGE('', *, *, #254, .T.);
#352 = ORIENTED_EDGE('', *, *, #288, .F.);
#353 = B_SPLINE_SURFACE_WITH_KNOTS('', 1, 1, ((#354, #355), (#356, #357)), .UNSPECIFIED., .F., .F., .U., (2, 2), (2, 2), (0., 15.), (0., 25.), .UNSPECIFIED.);
#354 = CARTESIAN_POINT('', (50., 0., 0.));
#355 = CARTESIAN_POINT('', (50., 0., 25.));
#356 = CARTESIAN_POINT('', (50., 15., 0.));
#357 = CARTESIAN_POINT('', (50., 15., 25.));
#358 = ADVANCED_FACE('', (#359), #365, .T.);
#359 = FACE_OUTER_BOUND('', #360, .T.);
#360 = EDGE_LOOP('', (#361, #362, #363, #364));
#361 = ORIENTED_EDGE('', *, *, #302, .T.);
#362 = ORIENTED_EDGE('', *, *, #274, .T.);
#363 = ORIENTED_EDGE('', *, *, #238, .F.);
#364 = ORIENTED_EDGE('', *, *, #330, .F.);
#365 = B_SPLINE_SURFACE_WITH_KNOTS('', 1, 1, ((#366, #367), (#368, #369)), .UNSPECIFIED., .F., .F., .U., (2, 2), (2, 2), (0., 25.), (0., 15.), .UNSPECIFIED.);
#366 = CARTESIAN_POINT('', (30., 0., 0.));
#367 = CARTESIAN_POINT('', (30., 15., 0.));
#368 = CARTESIAN_POINT('', (30., 0., 25.));
#369 = CARTESIAN_POINT('', (30., 15., 25.));
#370 = PRESENTATION_STYLE_ASSIGNMENT((#371));
#371 = SURFACE_STYLE_USAGE(.POSITIVE., #372);
#372 = SURFACE_SIDE_STYLE('', (#373));
#373 = SURFACE_STYLE_FILL_AREA(#374);
#374 = FILL_AREA_STYLE('', (#375));
#375 = FILL_AREA_STYLE_COLOUR('', #376);
#376 = COLOUR_RGB('', 0.50196078431373, 0.50196078431373, 0.50196078431373);
#377 = STYLED_ITEM('', (#370), #232);
#378 = MANIFOLD_SOLID_BREP('LP1_2', #379);
#379 = CLOSED_SHELL('', (#380, #416, #444, #472, #492, #504));
#380 = ADVANCED_FACE('', (#381), #411, .T.);
#381 = FACE_OUTER_BOUND('', #382, .T.);
#382 = EDGE_LOOP('', (#383, #392, #399, #406));
#383 = ORIENTED_EDGE('', *, *, #384, .T.);
#384 = EDGE_CURVE('', #385, #387, #389, .T.);
#385 = VERTEX_POINT('', #386);
#386 = CARTESIAN_POINT('', (60., 15., 0.));
#387 = VERTEX_POINT('', #388);
#388 = CARTESIAN_POINT('', (60., 15., 25.));
#389 = B_SPLINE_CURVE_WITH_KNOTS('', 1, (#390, #391), .UNSPECIFIED., .F., .U., (2, 2), (0., 25.), .UNSPECIFIED.);
#390 = CARTESIAN_POINT('', (60., 15., 0.));
#391 = CARTESIAN_POINT('', (60., 15., 25.));
#392 = ORIENTED_EDGE('', *, *, #393, .T.);
#393 = EDGE_CURVE('', #387, #394, #396, .T.);
#394 = VERTEX_POINT('', #395);
#395 = CARTESIAN_POINT('', (80., 15., 25.));
#396 = B_SPLINE_CURVE_WITH_KNOTS('', 1, (#397, #398), .UNSPECIFIED., .F., .U., (2, 2), (0., 20.), .UNSPECIFIED.);
#397 = CARTESIAN_POINT('', (60., 15., 25.));
#398 = CARTESIAN_POINT('', (80., 15., 25.));
#399 = ORIENTED_EDGE('', *, *, #400, .F.);
#400 = EDGE_CURVE('', #401, #394, #403, .T.);
#401 = VERTEX_POINT('', #402);
#402 = CARTESIAN_POINT('', (80., 15., 0.));
#403 = B_SPLINE_CURVE_WITH_KNOTS('', 1, (#404, #405), .UNSPECIFIED., .F., .U., (2, 2), (0., 25.), .UNSPECIFIED.);
#404 = CARTESIAN_POINT('', (80., 15., 0.));
#405 = CARTESIAN_POINT('', (80., 15., 25.));
#406 = ORIENTED_EDGE('', *, *, #407, .F.);
#407 = EDGE_CURVE('', #385, #401, #408, .T.);
#408 = B_SPLINE_CURVE_WITH_KNOTS('', 1, (#409, #410), .UNSPECIFIED., .F., .U., (2, 2), (0., 20.), .UNSPECIFIED.);
#409 = CARTESIAN_POINT('', (60., 15., 0.));
#410 = CARTESIAN_POINT('', (80., 15., 0.));
#411 = B_SPLINE_SURFACE_WITH_KNOTS('', 1, 1, ((#412, #413), (#414, #415)), .UNSPECIFIED., .F., .F., .U., (2, 2), (2, 2), (0., 25.), (0., 20.), .UNSPECIFIED.);
#412 = CARTESIAN_POINT('', (60., 15., 0.));
#413 = CARTESIAN_POINT('', (80., 15., 0.));
#414 = CARTESIAN_POINT('', (60., 15., 25.));
#415 = CARTESIAN_POINT('', (80., 15., 25.));
#416 = ADVANCED_FACE('', (#417), #439, .T.);
#417 = FACE_OUTER_BOUND('', #418, .T.);
#418 = EDGE_LOOP('', (#419, #426, #433, #438));
#419 = ORIENTED_EDGE('', *, *, #420, .F.);
#420 = EDGE_CURVE('', #421, #387, #423, .T.);
#421 = VERTEX_POINT('', #422);
#422 = CARTESIAN_POINT('', (60., 0., 25.));
#423 = B_SPLINE_CURVE_WITH_KNOTS('', 1, (#424, #425), .UNSPECIFIED., .F., .U., (2, 2), (0., 15.), .UNSPECIFIED.);
#424 = CARTESIAN_POINT('', (60., 0., 25.));
#425 = CARTESIAN_POINT('', (60., 15., 25.));
#426 = ORIENTED_EDGE('', *, *, #427, .T.);
#427 = EDGE_CURVE('', #421, #428, #430, .T.);
#428 = VERTEX_POINT('', #429);
#429 = CARTESIAN_POINT('', (80., 0., 25.));
#430 = B_SPLINE_CURVE_WITH_KNOTS('', 1, (#431, #432), .UNSPECIFIED., .F., .U., (2, 2), (0., 20.), .UNSPECIFIED.);
#431 = CARTESIAN_POINT('', (60., 0., 25.));
#432 = CARTESIAN_POINT('', (80., 0., 25.));
#433 = ORIENTED_EDGE('', *, *, #434, .T.);
#434 = EDGE_CURVE('', #428, #394, #435, .T.);
#435 = B_SPLINE_CURVE_WITH_KNOTS('', 1, (#436, #437), .UNSPECIFIED., .F., .U., (2, 2), (0., 15.), .UNSPECIFIED.);
#436 = CARTESIAN_POINT('', (80., 0., 25.));
#437 = CARTESIAN_POINT('', (80., 15., 25.));
#438 = ORIENTED_EDGE('', *, *, #393, .F.);
#439 = B_SPLINE_SURFACE_WITH_KNOTS('', 1, 1, ((#440, #441), (#442, #443)), .UNSPECIFIED., .F., .F., .U., (2, 2), (2, 2), (0., 20.), (0., 15.), .UNSPECIFIED.);
#440 = CARTESIAN_POINT('', (60., 0., 25.));
#441 = CARTESIAN_POINT('', (60., 15., 25.));
#442 = CARTESIAN_POINT('', (80., 0., 25.));
#443 = CARTESIAN_POINT('', (80., 15., 25.));
#444 = ADVANCED_FACE('', (#445), #467, .T.);
#445 = FACE_OUTER_BOUND('', #446, .T.);
#446 = EDGE_LOOP('', (#447, #454, #461, #466));
#447 = ORIENTED_EDGE('', *, *, #448, .F.);
#448 = EDGE_CURVE('', #449, #421, #451, .T.);
#449 = VERTEX_POINT('', #450);
#450 = CARTESIAN_POINT('', (60., 0., 0.));
#451 = B_SPLINE_CURVE_WITH_KNOTS('', 1, (#452, #453), .UNSPECIFIED., .F., .U., (2, 2), (0., 25.), .UNSPECIFIED.);
#452 = CARTESIAN_POINT('', (60., 0., 0.));
#453 = CARTESIAN_POINT('', (60., 0., 25.));
#454 = ORIENTED_EDGE('', *, *, #455, .T.);
#455 = EDGE_CURVE('', #449, #456, #458, .T.);
#456 = VERTEX_POINT('', #457);
#457 = CARTESIAN_POINT('', (80., 0., 0.));
#458 = B_SPLINE_CURVE_WITH_KNOTS('', 1, (#459, #460), .UNSPECIFIED., .F., .U., (2, 2), (0., 20.), .UNSPECIFIED.);
#459 = CARTESIAN_POINT('', (60., 0., 0.));
#460 = CARTESIAN_POINT('', (80., 0., 0.));
#461 = ORIENTED_EDGE('', *, *, #462, .T.);
#462 = EDGE_CURVE('', #456, #428, #463, .T.);
#463 = B_SPLINE_CURVE_WITH_KNOTS('', 1, (#464, #465), .UNSPECIFIED., .F., .U., (2, 2), (0., 25.), .UNSPECIFIED.);
#464 = CARTESIAN_POINT('', (80., 0., 0.));
#465 = CARTESIAN_POINT('', (80., 0., 25.));
#466 = ORIENTED_EDGE('', *, *, #427, .F.);
#467 = B_SPLINE_SURFACE_WITH_KNOTS('', 1, 1, ((#468, #469), (#470, #471)), .UNSPECIFIED., .F., .F., .U., (2, 2), (2, 2), (0., 20.), (0., 25.), .UNSPECIFIED.);
#468 = CARTESIAN_POINT('', (60., 0., 0.));
#469 = CARTESIAN_POINT('', (60., 0., 25.));
#470 = CARTESIAN_POINT('', (80., 0., 0.));
#471 = CARTESIAN_POINT('', (80., 0., 25.));
#472 = ADVANCED_FACE('', (#473), #487, .T.);
#473 = FACE_OUTER_BOUND('', #474, .T.);
#474 = EDGE_LOOP('', (#475, #480, #481, #486));
#475 = ORIENTED_EDGE('', *, *, #476, .T.);
#476 = EDGE_CURVE('', #449, #385, #477, .T.);
#477 = B_SPLINE_CURVE_WITH_KNOTS('', 1, (#478, #479), .UNSPECIFIED., .F., .U., (2, 2), (0., 15.), .UNSPECIFIED.);
#478 = CARTESIAN_POINT('', (60., 0., 0.));
#479 = CARTESIAN_POINT('', (60., 15., 0.));
#480 = ORIENTED_EDGE('', *, *, #407, .T.);
#481 = ORIENTED_EDGE('', *, *, #482, .F.);
#482 = EDGE_CURVE('', #456, #401, #483, .T.);
#483 = B_SPLINE_CURVE_WITH_KNOTS('', 1, (#484, #485), .UNSPECIFIED., .F., .U., (2, 2), (0., 15.), .UNSPECIFIED.);
#484 = CARTESIAN_POINT('', (80., 0., 0.));
#485 = CARTESIAN_POINT('', (80., 15., 0.));
#486 = ORIENTED_EDGE('', *, *, #455, .F.);
#487 = B_SPLINE_SURFACE_WITH_KNOTS('', 1, 1, ((#488, #489), (#490, #491)), .UNSPECIFIED., .F., .F., .U., (2, 2), (2, 2), (0., 15.), (0., 20.), .UNSPECIFIED.);
#488 = CARTESIAN_POINT('', (60., 0., 0.));
#489 = CARTESIAN_POINT('', (80., 0., 0.));
#490 = CARTESIAN_POINT('', (60., 15., 0.));
#491 = CARTESIAN_POINT('', (80., 15., 0.));
#492 = ADVANCED_FACE('', (#493), #499, .T.);
#493 = FACE_OUTER_BOUND('', #494, .T.);
#494 = EDGE_LOOP('', (#495, #496, #497, #498));
#495 = ORIENTED_EDGE('', *, *, #462, .F.);
#496 = ORIENTED_EDGE('', *, *, #482, .T.);
#497 = ORIENTED_EDGE('', *, *, #400, .T.);
#498 = ORIENTED_EDGE('', *, *, #434, .F.);
#499 = B_SPLINE_SURFACE_WITH_KNOTS('', 1, 1, ((#500, #501), (#502, #503)), .UNSPECIFIED., .F., .F., .U., (2, 2), (2, 2), (0., 15.), (0., 25.), .UNSPECIFIED.);
#500 = CARTESIAN_POINT('', (80., 0., 0.));
#501 = CARTESIAN_POINT('', (80., 0., 25.));
#502 = CARTESIAN_POINT('', (80., 15., 0.));
#503 = CARTESIAN_POINT('', (80., 15., 25.));
#504 = ADVANCED_FACE('', (#505), #511, .T.);
#505 = FACE_OUTER_BOUND('', #506, .T.);
#506 = EDGE_LOOP('', (#507, #508, #509, #510));
#507 = ORIENTED_EDGE('', *, *, #448, .T.);
#508 = ORIENTED_EDGE('', *, *, #420, .T.);
#509 = ORIENTED_EDGE('', *, *, #384, .F.);
#510 = ORIENTED_EDGE('', *, *, #476, .F.);
#511 = B_SPLINE_SURFACE_WITH_KNOTS('', 1, 1, ((#512, #513), (#514, #515)), .UNSPECIFIED., .F., .F., .U., (2, 2), (2, 2), (0., 25.), (0., 15.), .UNSPECIFIED.);
#512 = CARTESIAN_POINT('', (60., 0., 0.));
#513 = CARTESIAN_POINT('', (60., 15., 0.));
#514 = CARTESIAN_POINT('', (60., 0., 25.));
#515 = CARTESIAN_POINT('', (60., 15., 25.));
#516 = PRESENTATION_STYLE_ASSIGNMENT((#517));
#517 = SURFACE_STYLE_USAGE(.POSITIVE., #518);
#518 = SURFACE_SIDE_STYLE('', (#519));
#519 = SURFACE_STYLE_FILL_AREA(#520);
#520 = FILL_AREA_STYLE('', (#521));
#521 = FILL_AREA_STYLE_COLOUR('', #522);
#522 = COLOUR_RGB('', 0.50196078431373, 0.50196078431373, 0.50196078431373);
#523 = STYLED_ITEM('', (#516), #378);
#524 = MANIFOLD_SOLID_BREP('LP1_3', #525);
#525 = CLOSED_SHELL('', (#526, #562, #590, #618, #638, #650));
#526 = ADVANCED_FACE('', (#527), #557, .T.);
#527 = FACE_OUTER_BOUND('', #528, .T.);
#528 = EDGE_LOOP('', (#529, #538, #545, #552));
#529 = ORIENTED_EDGE('', *, *, #530, .T.);
#530 = EDGE_CURVE('', #531, #533, #535, .T.);
#531 = VERTEX_POINT('', #532);
#532 = CARTESIAN_POINT('', (90., 15., 0.));
#533 = VERTEX_POINT('', #534);
#534 = CARTESIAN_POINT('', (90., 15., 25.));
#535 = B_SPLINE_CURVE_WITH_KNOTS('', 1, (#536, #537), .UNSPECIFIED., .F., .U., (2, 2), (0., 25.), .UNSPECIFIED.);
#536 = CARTESIAN_POINT('', (90., 15., 0.));
#537 = CARTESIAN_POINT('', (90., 15., 25.));
#538 = ORIENTED_EDGE('', *, *, #539, .T.);
#539 = EDGE_CURVE('', #533, #540, #542, .T.);
#540 = VERTEX_POINT('', #541);
#541 = CARTESIAN_POINT('', (110., 15., 25.));
#542 = B_SPLINE_CURVE_WITH_KNOTS('', 1, (#543, #544), .UNSPECIFIED., .F., .U., (2, 2), (0., 20.), .UNSPECIFIED.);
#543 = CARTESIAN_POINT('', (90., 15., 25.));
#544 = CARTESIAN_POINT('', (110., 15., 25.));
#545 = ORIENTED_EDGE('', *, *, #546, .F.);
#546 = EDGE_CURVE('', #547, #540, #549, .T.);
#547 = VERTEX_POINT('', #548);
#548 = CARTESIAN_POINT('', (110., 15., 0.));
#549 = B_SPLINE_CURVE_WITH_KNOTS('', 1, (#550, #551), .UNSPECIFIED., .F., .U., (2, 2), (0., 25.), .UNSPECIFIED.);
#550 = CARTESIAN_POINT('', (110., 15., 0.));
#551 = CARTESIAN_POINT('', (110., 15., 25.));
#552 = ORIENTED_EDGE('', *, *, #553, .F.);
#553 = EDGE_CURVE('', #531, #547, #554, .T.);
#554 = B_SPLINE_CURVE_WITH_KNOTS('', 1, (#555, #556), .UNSPECIFIED., .F., .U., (2, 2), (0., 20.), .UNSPECIFIED.);
#555 = CARTESIAN_POINT('', (90., 15., 0.));
#556 = CARTESIAN_POINT('', (110., 15., 0.));
#557 = B_SPLINE_SURFACE_WITH_KNOTS('', 1, 1, ((#558, #559), (#560, #561)), .UNSPECIFIED., .F., .F., .U., (2, 2), (2, 2), (0., 25.), (0., 20.), .UNSPECIFIED.);
#558 = CARTESIAN_POINT('', (90., 15., 0.));
#559 = CARTESIAN_POINT('', (110., 15., 0.));
#560 = CARTESIAN_POINT('', (90., 15., 25.));
#561 = CARTESIAN_POINT('', (110., 15., 25.));
#562 = ADVANCED_FACE('', (#563), #585, .T.);
#563 = FACE_OUTER_BOUND('', #564, .T.);
#564 = EDGE_LOOP('', (#565, #572, #579, #584));
#565 = ORIENTED_EDGE('', *, *, #566, .F.);
#566 = EDGE_CURVE('', #567, #533, #569, .T.);
#567 = VERTEX_POINT('', #568);
#568 = CARTESIAN_POINT('', (90., 0., 25.));
#569 = B_SPLINE_CURVE_WITH_KNOTS('', 1, (#570, #571), .UNSPECIFIED., .F., .U., (2, 2), (0., 15.), .UNSPECIFIED.);
#570 = CARTESIAN_POINT('', (90., 0., 25.));
#571 = CARTESIAN_POINT('', (90., 15., 25.));
#572 = ORIENTED_EDGE('', *, *, #573, .T.);
#573 = EDGE_CURVE('', #567, #574, #576, .T.);
#574 = VERTEX_POINT('', #575);
#575 = CARTESIAN_POINT('', (110., 0., 25.));
#576 = B_SPLINE_CURVE_WITH_KNOTS('', 1, (#577, #578), .UNSPECIFIED., .F., .U., (2, 2), (0., 20.), .UNSPECIFIED.);
#577 = CARTESIAN_POINT('', (90., 0., 25.));
#578 = CARTESIAN_POINT('', (110., 0., 25.));
#579 = ORIENTED_EDGE('', *, *, #580, .T.);
#580 = EDGE_CURVE('', #574, #540, #581, .T.);
#581 = B_SPLINE_CURVE_WITH_KNOTS('', 1, (#582, #583), .UNSPECIFIED., .F., .U., (2, 2), (0., 15.), .UNSPECIFIED.);
#582 = CARTESIAN_POINT('', (110., 0., 25.));
#583 = CARTESIAN_POINT('', (110., 15., 25.));
#584 = ORIENTED_EDGE('', *, *, #539, .F.);
#585 = B_SPLINE_SURFACE_WITH_KNOTS('', 1, 1, ((#586, #587), (#588, #589)), .UNSPECIFIED., .F., .F., .U., (2, 2), (2, 2), (0., 20.), (0., 15.), .UNSPECIFIED.);
#586 = CARTESIAN_POINT('', (90., 0., 25.));
#587 = CARTESIAN_POINT('', (90., 15., 25.));
#588 = CARTESIAN_POINT('', (110., 0., 25.));
#589 = CARTESIAN_POINT('', (110., 15., 25.));
#590 = ADVANCED_FACE('', (#591), #613, .T.);
#591 = FACE_OUTER_BOUND('', #592, .T.);
#592 = EDGE_LOOP('', (#593, #600, #607, #612));
#593 = ORIENTED_EDGE('', *, *, #594, .F.);
#594 = EDGE_CURVE('', #595, #567, #597, .T.);
#595 = VERTEX_POINT('', #596);
#596 = CARTESIAN_POINT('', (90., 0., 0.));
#597 = B_SPLINE_CURVE_WITH_KNOTS('', 1, (#598, #599), .UNSPECIFIED., .F., .U., (2, 2), (0., 25.), .UNSPECIFIED.);
#598 = CARTESIAN_POINT('', (90., 0., 0.));
#599 = CARTESIAN_POINT('', (90., 0., 25.));
#600 = ORIENTED_EDGE('', *, *, #601, .T.);
#601 = EDGE_CURVE('', #595, #602, #604, .T.);
#602 = VERTEX_POINT('', #603);
#603 = CARTESIAN_POINT('', (110., 0., 0.));
#604 = B_SPLINE_CURVE_WITH_KNOTS('', 1, (#605, #606), .UNSPECIFIED., .F., .U., (2, 2), (0., 20.), .UNSPECIFIED.);
#605 = CARTESIAN_POINT('', (90., 0., 0.));
#606 = CARTESIAN_POINT('', (110., 0., 0.));
#607 = ORIENTED_EDGE('', *, *, #608, .T.);
#608 = EDGE_CURVE('', #602, #574, #609, .T.);
#609 = B_SPLINE_CURVE_WITH_KNOTS('', 1, (#610, #611), .UNSPECIFIED., .F., .U., (2, 2), (0., 25.), .UNSPECIFIED.);
#610 = CARTESIAN_POINT('', (110., 0., 0.));
#611 = CARTESIAN_POINT('', (110., 0., 25.));
#612 = ORIENTED_EDGE('', *, *, #573, .F.);
#613 = B_SPLINE_SURFACE_WITH_KNOTS('', 1, 1, ((#614, #615), (#616, #617)), .UNSPECIFIED., .F., .F., .U., (2, 2), (2, 2), (0., 20.), (0., 25.), .UNSPECIFIED.);
#614 = CARTESIAN_POINT('', (90., 0., 0.));
#615 = CARTESIAN_POINT('', (90., 0., 25.));
#616 = CARTESIAN_POINT('', (110., 0., 0.));
#617 = CARTESIAN_POINT('', (110., 0., 25.));
#618 = ADVANCED_FACE('', (#619), #633, .T.);
#619 = FACE_OUTER_BOUND('', #620, .T.);
#620 = EDGE_LOOP('', (#621, #626, #627, #632));
#621 = ORIENTED_EDGE('', *, *, #622, .T.);
#622 = EDGE_CURVE('', #595, #531, #623, .T.);
#623 = B_SPLINE_CURVE_WITH_KNOTS('', 1, (#624, #625), .UNSPECIFIED., .F., .U., (2, 2), (0., 15.), .UNSPECIFIED.);
#624 = CARTESIAN_POINT('', (90., 0., 0.));
#625 = CARTESIAN_POINT('', (90., 15., 0.));
#626 = ORIENTED_EDGE('', *, *, #553, .T.);
#627 = ORIENTED_EDGE('', *, *, #628, .F.);
#628 = EDGE_CURVE('', #602, #547, #629, .T.);
#629 = B_SPLINE_CURVE_WITH_KNOTS('', 1, (#630, #631), .UNSPECIFIED., .F., .U., (2, 2), (0., 15.), .UNSPECIFIED.);
#630 = CARTESIAN_POINT('', (110., 0., 0.));
#631 = CARTESIAN_POINT('', (110., 15., 0.));
#632 = ORIENTED_EDGE('', *, *, #601, .F.);
#633 = B_SPLINE_SURFACE_WITH_KNOTS('', 1, 1, ((#634, #635), (#636, #637)), .UNSPECIFIED., .F., .F., .U., (2, 2), (2, 2), (0., 15.), (0., 20.), .UNSPECIFIED.);
#634 = CARTESIAN_POINT('', (90., 0., 0.));
#635 = CARTESIAN_POINT('', (110., 0., 0.));
#636 = CARTESIAN_POINT('', (90., 15., 0.));
#637 = CARTESIAN_POINT('', (110., 15., 0.));
#638 = ADVANCED_FACE('', (#639), #645, .T.);
#639 = FACE_OUTER_BOUND('', #640, .T.);
#640 = EDGE_LOOP('', (#641, #642, #643, #644));
#641 = ORIENTED_EDGE('', *, *, #608, .F.);
#642 = ORIENTED_EDGE('', *, *, #628, .T.);
#643 = ORIENTED_EDGE('', *, *, #546, .T.);
#644 = ORIENTED_EDGE('', *, *, #580, .F.);
#645 = B_SPLINE_SURFACE_WITH_KNOTS('', 1, 1, ((#646, #647), (#648, #649)), .UNSPECIFIED., .F., .F., .U., (2, 2), (2, 2), (0., 15.), (0., 25.), .UNSPECIFIED.);
#646 = CARTESIAN_POINT('', (110., 0., 0.));
#647 = CARTESIAN_POINT('', (110., 0., 25.));
#648 = CARTESIAN_POINT('', (110., 15., 0.));
#649 = CARTESIAN_POINT('', (110., 15., 25.));
#650 = ADVANCED_FACE('', (#651), #657, .T.);
#651 = FACE_OUTER_BOUND('', #652, .T.);
#652 = EDGE_LOOP('', (#653, #654, #655, #656));
#653 = ORIENTED_EDGE('', *, *, #594, .T.);
#654 = ORIENTED_EDGE('', *, *, #566, .T.);
#655 = ORIENTED_EDGE('', *, *, #530, .F.);
#656 = ORIENTED_EDGE('', *, *, #622, .F.);
#657 = B_SPLINE_SURFACE_WITH_KNOTS('', 1, 1, ((#658, #659), (#660, #661)), .UNSPECIFIED., .F., .F., .U., (2, 2), (2, 2), (0., 25.), (0., 15.), .UNSPECIFIED.);
#658 = CARTESIAN_POINT('', (90., 0., 0.));
#659 = CARTESIAN_POINT('', (90., 15., 0.));
#660 = CARTESIAN_POINT('', (90., 0., 25.));
#661 = CARTESIAN_POINT('', (90., 15., 25.));
#662 = PRESENTATION_STYLE_ASSIGNMENT((#663));
#663 = SURFACE_STYLE_USAGE(.POSITIVE., #664);
#664 = SURFACE_SIDE_STYLE('', (#665));
#665 = SURFACE_STYLE_FILL_AREA(#666);
#666 = FILL_AREA_STYLE('', (#667));
#667 = FILL_AREA_STYLE_COLOUR('', #668);
#668 = COLOUR_RGB('', 0.50196078431373, 0.50196078431373, 0.50196078431373);
#669 = STYLED_ITEM('', (#662), #524);
#670 = CARTESIAN_POINT('Origin', (0., 0., 0.));
#671 = GEOMETRIC_SET('', (#670));
#672 = (
   GEOMETRIC_REPRESENTATION_CONTEXT (3)
   GLOBAL_UNCERTAINTY_ASSIGNED_CONTEXT ((#674))
   GLOBAL_UNIT_ASSIGNED_CONTEXT ((#673, #675, #676))
   REPRESENTATION_CONTEXT ('', '3D')
);
#673 = (
   LENGTH_UNIT ()
   NAMED_UNIT (*)
   SI_UNIT (.MILLI., .METRE.)
);
#674 = UNCERTAINTY_MEASURE_WITH_UNIT(LENGTH_MEASURE(1.E-6), #673, 'DISTANCE_ACCURACY_VALUE', '');
#675 = (
   NAMED_UNIT (*)
   SI_UNIT ($, .STERADIAN.)
   SOLID_ANGLE_UNIT ()
);
#676 = (
   NAMED_UNIT (*)
   PLANE_ANGLE_UNIT ()
   SI_UNIT ($, .RADIAN.)
);
#677 = SHAPE_REPRESENTATION('', (#692), #672);
#678 = PRODUCT_DEFINITION_SHAPE('', '', #679);
#679 = PRODUCT_DEFINITION('', '', #682, #686);
#680 = APPLICATION_CONTEXT('configuration controlled 3D designs of mechanical parts and assemblies');
#681 = APPLICATION_PROTOCOL_DEFINITION('International Standard', 'automotive_design', 2002, #680);
#682 = PRODUCT_DEFINITION_FORMATION_WITH_SPECIFIED_SOURCE('', '', #683, .NOT_KNOWN.);
#683 = PRODUCT('UpdateDist', 'UpdateDist', '', (#684));
#684 = PRODUCT_CONTEXT('', #680, 'mechanical');
#685 = PRODUCT_RELATED_PRODUCT_CATEGORY('detail', '', (#683));
#686 = PRODUCT_DEFINITION_CONTEXT('part definition', #680, 'design');
#687 = SHAPE_DEFINITION_REPRESENTATION(#678, #677);
#688 = SHAPE_REPRESENTATION_RELATIONSHIP('', '', #677, #689);
#689 = SHAPE_REPRESENTATION('', (#671), #672);
#690 = SHAPE_REPRESENTATION_RELATIONSHIP('', '', #677, #691);
#691 = ADVANCED_BREP_SHAPE_REPRESENTATION('', (#1, #86, #232, #378, #524), #672);
#692 = AXIS2_PLACEMENT_3D('', #693, #694, #695);
#693 = CARTESIAN_POINT('', (0., 0., 0.));
#694 = DIRECTION('', (0., 0., 1.));
#695 = DIRECTION('', (1., 0., 0.));
ENDSEC;
END-ISO-10303-21;
