ISO-10303-21;
HEADER;
FILE_DESCRIPTION(('STEP'), '1');
FILE_NAME('BrepEdgeRef', '2026-04-20T16:26:44', (''), (''), 'Express 3.1.2.0', 'Express Tool', 'Unknown');
FILE_SCHEMA(('AUTOMOTIVE_DESIGN'));
ENDSEC;

DATA;
#1 = MANIFOLD_SOLID_BREP('Box1_0', #2);
#2 = CLOSED_SHELL('', (#3, #39, #67, #95, #115, #127));
#3 = ADVANCED_FACE('', (#4), #34, .T.);
#4 = FACE_OUTER_BOUND('', #5, .T.);
#5 = EDGE_LOOP('', (#6, #15, #22, #29));
#6 = ORIENTED_EDGE('', *, *, #7, .T.);
#7 = EDGE_CURVE('', #8, #10, #12, .T.);
#8 = VERTEX_POINT('', #9);
#9 = CARTESIAN_POINT('', (0., 40., 0.));
#10 = VERTEX_POINT('', #11);
#11 = CARTESIAN_POINT('', (0., 40., 30.));
#12 = B_SPLINE_CURVE_WITH_KNOTS('', 1, (#13, #14), .UNSPECIFIED., .F., .U., (2, 2), (0., 30.), .UNSPECIFIED.);
#13 = CARTESIAN_POINT('', (0., 40., 0.));
#14 = CARTESIAN_POINT('', (0., 40., 30.));
#15 = ORIENTED_EDGE('', *, *, #16, .T.);
#16 = EDGE_CURVE('', #10, #17, #19, .T.);
#17 = VERTEX_POINT('', #18);
#18 = CARTESIAN_POINT('', (60., 40., 30.));
#19 = B_SPLINE_CURVE_WITH_KNOTS('', 1, (#20, #21), .UNSPECIFIED., .F., .U., (2, 2), (0., 60.), .UNSPECIFIED.);
#20 = CARTESIAN_POINT('', (0., 40., 30.));
#21 = CARTESIAN_POINT('', (60., 40., 30.));
#22 = ORIENTED_EDGE('', *, *, #23, .F.);
#23 = EDGE_CURVE('', #24, #17, #26, .T.);
#24 = VERTEX_POINT('', #25);
#25 = CARTESIAN_POINT('', (60., 40., 0.));
#26 = B_SPLINE_CURVE_WITH_KNOTS('', 1, (#27, #28), .UNSPECIFIED., .F., .U., (2, 2), (0., 30.), .UNSPECIFIED.);
#27 = CARTESIAN_POINT('', (60., 40., 0.));
#28 = CARTESIAN_POINT('', (60., 40., 30.));
#29 = ORIENTED_EDGE('', *, *, #30, .F.);
#30 = EDGE_CURVE('', #8, #24, #31, .T.);
#31 = B_SPLINE_CURVE_WITH_KNOTS('', 1, (#32, #33), .UNSPECIFIED., .F., .U., (2, 2), (0., 60.), .UNSPECIFIED.);
#32 = CARTESIAN_POINT('', (0., 40., 0.));
#33 = CARTESIAN_POINT('', (60., 40., 0.));
#34 = B_SPLINE_SURFACE_WITH_KNOTS('', 1, 1, ((#35, #36), (#37, #38)), .UNSPECIFIED., .F., .F., .U., (2, 2), (2, 2), (0., 30.), (0., 60.), .UNSPECIFIED.);
#35 = CARTESIAN_POINT('', (0., 40., 0.));
#36 = CARTESIAN_POINT('', (60., 40., 0.));
#37 = CARTESIAN_POINT('', (0., 40., 30.));
#38 = CARTESIAN_POINT('', (60., 40., 30.));
#39 = ADVANCED_FACE('', (#40), #62, .T.);
#40 = FACE_OUTER_BOUND('', #41, .T.);
#41 = EDGE_LOOP('', (#42, #49, #56, #61));
#42 = ORIENTED_EDGE('', *, *, #43, .F.);
#43 = EDGE_CURVE('', #44, #10, #46, .T.);
#44 = VERTEX_POINT('', #45);
#45 = CARTESIAN_POINT('', (0., 0., 30.));
#46 = B_SPLINE_CURVE_WITH_KNOTS('', 1, (#47, #48), .UNSPECIFIED., .F., .U., (2, 2), (0., 40.), .UNSPECIFIED.);
#47 = CARTESIAN_POINT('', (0., 0., 30.));
#48 = CARTESIAN_POINT('', (0., 40., 30.));
#49 = ORIENTED_EDGE('', *, *, #50, .T.);
#50 = EDGE_CURVE('', #44, #51, #53, .T.);
#51 = VERTEX_POINT('', #52);
#52 = CARTESIAN_POINT('', (60., 0., 30.));
#53 = B_SPLINE_CURVE_WITH_KNOTS('', 1, (#54, #55), .UNSPECIFIED., .F., .U., (2, 2), (0., 60.), .UNSPECIFIED.);
#54 = CARTESIAN_POINT('', (0., 0., 30.));
#55 = CARTESIAN_POINT('', (60., 0., 30.));
#56 = ORIENTED_EDGE('', *, *, #57, .T.);
#57 = EDGE_CURVE('', #51, #17, #58, .T.);
#58 = B_SPLINE_CURVE_WITH_KNOTS('', 1, (#59, #60), .UNSPECIFIED., .F., .U., (2, 2), (0., 40.), .UNSPECIFIED.);
#59 = CARTESIAN_POINT('', (60., 0., 30.));
#60 = CARTESIAN_POINT('', (60., 40., 30.));
#61 = ORIENTED_EDGE('', *, *, #16, .F.);
#62 = B_SPLINE_SURFACE_WITH_KNOTS('', 1, 1, ((#63, #64), (#65, #66)), .UNSPECIFIED., .F., .F., .U., (2, 2), (2, 2), (0., 60.), (0., 40.), .UNSPECIFIED.);
#63 = CARTESIAN_POINT('', (0., 0., 30.));
#64 = CARTESIAN_POINT('', (0., 40., 30.));
#65 = CARTESIAN_POINT('', (60., 0., 30.));
#66 = CARTESIAN_POINT('', (60., 40., 30.));
#67 = ADVANCED_FACE('', (#68), #90, .T.);
#68 = FACE_OUTER_BOUND('', #69, .T.);
#69 = EDGE_LOOP('', (#70, #77, #84, #89));
#70 = ORIENTED_EDGE('', *, *, #71, .F.);
#71 = EDGE_CURVE('', #72, #44, #74, .T.);
#72 = VERTEX_POINT('', #73);
#73 = CARTESIAN_POINT('', (0., 0., 0.));
#74 = B_SPLINE_CURVE_WITH_KNOTS('', 1, (#75, #76), .UNSPECIFIED., .F., .U., (2, 2), (0., 30.), .UNSPECIFIED.);
#75 = CARTESIAN_POINT('', (0., 0., 0.));
#76 = CARTESIAN_POINT('', (0., 0., 30.));
#77 = ORIENTED_EDGE('', *, *, #78, .T.);
#78 = EDGE_CURVE('', #72, #79, #81, .T.);
#79 = VERTEX_POINT('', #80);
#80 = CARTESIAN_POINT('', (60., 0., 0.));
#81 = B_SPLINE_CURVE_WITH_KNOTS('', 1, (#82, #83), .UNSPECIFIED., .F., .U., (2, 2), (0., 60.), .UNSPECIFIED.);
#82 = CARTESIAN_POINT('', (0., 0., 0.));
#83 = CARTESIAN_POINT('', (60., 0., 0.));
#84 = ORIENTED_EDGE('', *, *, #85, .T.);
#85 = EDGE_CURVE('', #79, #51, #86, .T.);
#86 = B_SPLINE_CURVE_WITH_KNOTS('', 1, (#87, #88), .UNSPECIFIED., .F., .U., (2, 2), (0., 30.), .UNSPECIFIED.);
#87 = CARTESIAN_POINT('', (60., 0., 0.));
#88 = CARTESIAN_POINT('', (60., 0., 30.));
#89 = ORIENTED_EDGE('', *, *, #50, .F.);
#90 = B_SPLINE_SURFACE_WITH_KNOTS('', 1, 1, ((#91, #92), (#93, #94)), .UNSPECIFIED., .F., .F., .U., (2, 2), (2, 2), (0., 60.), (0., 30.), .UNSPECIFIED.);
#91 = CARTESIAN_POINT('', (0., 0., 0.));
#92 = CARTESIAN_POINT('', (0., 0., 30.));
#93 = CARTESIAN_POINT('', (60., 0., 0.));
#94 = CARTESIAN_POINT('', (60., 0., 30.));
#95 = ADVANCED_FACE('', (#96), #110, .T.);
#96 = FACE_OUTER_BOUND('', #97, .T.);
#97 = EDGE_LOOP('', (#98, #103, #104, #109));
#98 = ORIENTED_EDGE('', *, *, #99, .T.);
#99 = EDGE_CURVE('', #72, #8, #100, .T.);
#100 = B_SPLINE_CURVE_WITH_KNOTS('', 1, (#101, #102), .UNSPECIFIED., .F., .U., (2, 2), (0., 40.), .UNSPECIFIED.);
#101 = CARTESIAN_POINT('', (0., 0., 0.));
#102 = CARTESIAN_POINT('', (0., 40., 0.));
#103 = ORIENTED_EDGE('', *, *, #30, .T.);
#104 = ORIENTED_EDGE('', *, *, #105, .F.);
#105 = EDGE_CURVE('', #79, #24, #106, .T.);
#106 = B_SPLINE_CURVE_WITH_KNOTS('', 1, (#107, #108), .UNSPECIFIED., .F., .U., (2, 2), (0., 40.), .UNSPECIFIED.);
#107 = CARTESIAN_POINT('', (60., 0., 0.));
#108 = CARTESIAN_POINT('', (60., 40., 0.));
#109 = ORIENTED_EDGE('', *, *, #78, .F.);
#110 = B_SPLINE_SURFACE_WITH_KNOTS('', 1, 1, ((#111, #112), (#113, #114)), .UNSPECIFIED., .F., .F., .U., (2, 2), (2, 2), (0., 40.), (0., 60.), .UNSPECIFIED.);
#111 = CARTESIAN_POINT('', (0., 0., 0.));
#112 = CARTESIAN_POINT('', (60., 0., 0.));
#113 = CARTESIAN_POINT('', (0., 40., 0.));
#114 = CARTESIAN_POINT('', (60., 40., 0.));
#115 = ADVANCED_FACE('', (#116), #122, .T.);
#116 = FACE_OUTER_BOUND('', #117, .T.);
#117 = EDGE_LOOP('', (#118, #119, #120, #121));
#118 = ORIENTED_EDGE('', *, *, #85, .F.);
#119 = ORIENTED_EDGE('', *, *, #105, .T.);
#120 = ORIENTED_EDGE('', *, *, #23, .T.);
#121 = ORIENTED_EDGE('', *, *, #57, .F.);
#122 = B_SPLINE_SURFACE_WITH_KNOTS('', 1, 1, ((#123, #124), (#125, #126)), .UNSPECIFIED., .F., .F., .U., (2, 2), (2, 2), (0., 40.), (0., 30.), .UNSPECIFIED.);
#123 = CARTESIAN_POINT('', (60., 0., 0.));
#124 = CARTESIAN_POINT('', (60., 0., 30.));
#125 = CARTESIAN_POINT('', (60., 40., 0.));
#126 = CARTESIAN_POINT('', (60., 40., 30.));
#127 = ADVANCED_FACE('', (#128), #134, .T.);
#128 = FACE_OUTER_BOUND('', #129, .T.);
#129 = EDGE_LOOP('', (#130, #131, #132, #133));
#130 = ORIENTED_EDGE('', *, *, #71, .T.);
#131 = ORIENTED_EDGE('', *, *, #43, .T.);
#132 = ORIENTED_EDGE('', *, *, #7, .F.);
#133 = ORIENTED_EDGE('', *, *, #99, .F.);
#134 = B_SPLINE_SURFACE_WITH_KNOTS('', 1, 1, ((#135, #136), (#137, #138)), .UNSPECIFIED., .F., .F., .U., (2, 2), (2, 2), (0., 30.), (0., 40.), .UNSPECIFIED.);
#135 = CARTESIAN_POINT('', (0., 0., 0.));
#136 = CARTESIAN_POINT('', (0., 40., 0.));
#137 = CARTESIAN_POINT('', (0., 0., 30.));
#138 = CARTESIAN_POINT('', (0., 40., 30.));
#139 = DRAUGHTING_MODEL('', (#147, #231, #315, #399, #483), #490);
#140 = PRESENTATION_STYLE_ASSIGNMENT((#141));
#141 = SURFACE_STYLE_USAGE(.POSITIVE., #142);
#142 = SURFACE_SIDE_STYLE('', (#143));
#143 = SURFACE_STYLE_FILL_AREA(#144);
#144 = FILL_AREA_STYLE('', (#145));
#145 = FILL_AREA_STYLE_COLOUR('', #146);
#146 = COLOUR_RGB('', 0.50196078431373, 0.50196078431373, 0.50196078431373);
#147 = STYLED_ITEM('', (#140), #1);
#148 = MANIFOLD_SOLID_BREP('LP_edge_0', #149);
#149 = CLOSED_SHELL('', (#150, #206, #215));
#150 = ADVANCED_FACE('', (#151), #187, .T.);
#151 = FACE_OUTER_BOUND('', #152, .T.);
#152 = EDGE_LOOP('', (#153, #162, #174, #175));
#153 = ORIENTED_EDGE('', *, *, #154, .F.);
#154 = EDGE_CURVE('', #155, #157, #159, .T.);
#155 = VERTEX_POINT('', #156);
#156 = CARTESIAN_POINT('', (4., 0., 0.));
#157 = VERTEX_POINT('', #158);
#158 = CARTESIAN_POINT('', (4., 0., 10.));
#159 = B_SPLINE_CURVE_WITH_KNOTS('', 1, (#160, #161), .UNSPECIFIED., .F., .U., (2, 2), (0., 10.), .UNSPECIFIED.);
#160 = CARTESIAN_POINT('', (4., 0., 0.));
#161 = CARTESIAN_POINT('', (4., 0., 10.));
#162 = ORIENTED_EDGE('', *, *, #163, .T.);
#163 = EDGE_CURVE('', #155, #155, #164, .T.);
#164 = (
   BOUNDED_CURVE ()
   B_SPLINE_CURVE (2, (#165, #166, #167, #168, #169, #170, #171, #172, #173), .UNSPECIFIED., .T., .U.)
   B_SPLINE_CURVE_WITH_KNOTS ((3, 2, 2, 2, 3), (0., 6.28318530717959, 12.5663706143592, 18.8495559215388, 25.1327412287183), .UNSPECIFIED.)
   CURVE ()
   GEOMETRIC_REPRESENTATION_ITEM ()
   RATIONAL_B_SPLINE_CURVE ((1., 0.707106781186548, 1., 0.707106781186548, 1., 0.707106781186548, 1., 0.707106781186548, 1.))
   REPRESENTATION_ITEM ('')
);
#165 = CARTESIAN_POINT('', (4., 0., 0.));
#166 = CARTESIAN_POINT('', (4., 4., 0.));
#167 = CARTESIAN_POINT('', (2.44929359829471E-16, 4., 0.));
#168 = CARTESIAN_POINT('', (-4., 4., 0.));
#169 = CARTESIAN_POINT('', (-4., 4.89858719658941E-16, 0.));
#170 = CARTESIAN_POINT('', (-4., -4., 0.));
#171 = CARTESIAN_POINT('', (-7.34788079488412E-16, -4., 0.));
#172 = CARTESIAN_POINT('', (4., -4., 0.));
#173 = CARTESIAN_POINT('', (4., 0., 0.));
#174 = ORIENTED_EDGE('', *, *, #154, .T.);
#175 = ORIENTED_EDGE('', *, *, #176, .F.);
#176 = EDGE_CURVE('', #157, #157, #177, .T.);
#177 = (
   BOUNDED_CURVE ()
   B_SPLINE_CURVE (2, (#178, #179, #180, #181, #182, #183, #184, #185, #186), .UNSPECIFIED., .T., .U.)
   B_SPLINE_CURVE_WITH_KNOTS ((3, 2, 2, 2, 3), (0., 6.28318530717959, 12.5663706143592, 18.8495559215388, 25.1327412287183), .UNSPECIFIED.)
   CURVE ()
   GEOMETRIC_REPRESENTATION_ITEM ()
   RATIONAL_B_SPLINE_CURVE ((1., 0.707106781186548, 1., 0.707106781186548, 1., 0.707106781186548, 1., 0.707106781186548, 1.))
   REPRESENTATION_ITEM ('')
);
#178 = CARTESIAN_POINT('', (4., 0., 10.));
#179 = CARTESIAN_POINT('', (4., 4., 10.));
#180 = CARTESIAN_POINT('', (2.44929359829471E-16, 4., 10.));
#181 = CARTESIAN_POINT('', (-4., 4., 10.));
#182 = CARTESIAN_POINT('', (-4., 4.89858719658941E-16, 10.));
#183 = CARTESIAN_POINT('', (-4., -4., 10.));
#184 = CARTESIAN_POINT('', (-7.34788079488412E-16, -4., 10.));
#185 = CARTESIAN_POINT('', (4., -4., 10.));
#186 = CARTESIAN_POINT('', (4., 0., 10.));
#187 = (
   BOUNDED_SURFACE ()
   B_SPLINE_SURFACE (2, 1, ((#188, #189), (#190, #191), (#192, #193), (#194, #195), (#196, #197), (#198, #199), (#200, #201), (#202, #203), (#204, #205)), .UNSPECIFIED., .T., .F., .U.)
   B_SPLINE_SURFACE_WITH_KNOTS ((3, 2, 2, 2, 3), (2, 2), (0., 6.28318530717959, 12.5663706143592, 18.8495559215388, 25.1327412287183), (0., 10.), .UNSPECIFIED.)
   GEOMETRIC_REPRESENTATION_ITEM ()
   RATIONAL_B_SPLINE_SURFACE (((1., 1.), (0.707106781186548, 0.707106781186548), (1., 1.), (0.707106781186548, 0.707106781186548), (1., 1.), (0.707106781186548, 0.707106781186548), (1., 1.), (0.707106781186548, 0.707106781186548), (1., 1.)))
   REPRESENTATION_ITEM ('')
   SURFACE ()
);
#188 = CARTESIAN_POINT('', (4., 0., 0.));
#189 = CARTESIAN_POINT('', (4., 0., 10.));
#190 = CARTESIAN_POINT('', (4., 4., 0.));
#191 = CARTESIAN_POINT('', (4., 4., 10.));
#192 = CARTESIAN_POINT('', (2.44929359829471E-16, 4., 0.));
#193 = CARTESIAN_POINT('', (2.44929359829471E-16, 4., 10.));
#194 = CARTESIAN_POINT('', (-4., 4., 0.));
#195 = CARTESIAN_POINT('', (-4., 4., 10.));
#196 = CARTESIAN_POINT('', (-4., 4.89858719658941E-16, 0.));
#197 = CARTESIAN_POINT('', (-4., 4.89858719658941E-16, 10.));
#198 = CARTESIAN_POINT('', (-4., -4., 0.));
#199 = CARTESIAN_POINT('', (-4., -4., 10.));
#200 = CARTESIAN_POINT('', (-7.34788079488412E-16, -4., 0.));
#201 = CARTESIAN_POINT('', (-7.34788079488412E-16, -4., 10.));
#202 = CARTESIAN_POINT('', (4., -4., 0.));
#203 = CARTESIAN_POINT('', (4., -4., 10.));
#204 = CARTESIAN_POINT('', (4., 0., 0.));
#205 = CARTESIAN_POINT('', (4., 0., 10.));
#206 = ADVANCED_FACE('', (#207), #210, .T.);
#207 = FACE_OUTER_BOUND('', #208, .T.);
#208 = EDGE_LOOP('', (#209));
#209 = ORIENTED_EDGE('', *, *, #163, .F.);
#210 = B_SPLINE_SURFACE_WITH_KNOTS('', 1, 1, ((#211, #212), (#213, #214)), .UNSPECIFIED., .F., .F., .U., (2, 2), (2, 2), (0., 1.), (0., 1.), .UNSPECIFIED.);
#211 = CARTESIAN_POINT('', (6.22253967444162, -6.22253967444162, 0.));
#212 = CARTESIAN_POINT('', (6.22253967444162, 6.22253967444162, 0.));
#213 = CARTESIAN_POINT('', (-6.22253967444162, -6.22253967444162, 0.));
#214 = CARTESIAN_POINT('', (-6.22253967444162, 6.22253967444162, 0.));
#215 = ADVANCED_FACE('', (#216), #219, .T.);
#216 = FACE_OUTER_BOUND('', #217, .T.);
#217 = EDGE_LOOP('', (#218));
#218 = ORIENTED_EDGE('', *, *, #176, .T.);
#219 = B_SPLINE_SURFACE_WITH_KNOTS('', 1, 1, ((#220, #221), (#222, #223)), .UNSPECIFIED., .F., .F., .U., (2, 2), (2, 2), (0., 1.), (0., 1.), .UNSPECIFIED.);
#220 = CARTESIAN_POINT('', (6.22253967444162, -6.22253967444162, 10.));
#221 = CARTESIAN_POINT('', (-6.22253967444162, -6.22253967444162, 10.));
#222 = CARTESIAN_POINT('', (6.22253967444162, 6.22253967444162, 10.));
#223 = CARTESIAN_POINT('', (-6.22253967444162, 6.22253967444162, 10.));
#224 = PRESENTATION_STYLE_ASSIGNMENT((#225));
#225 = SURFACE_STYLE_USAGE(.POSITIVE., #226);
#226 = SURFACE_SIDE_STYLE('', (#227));
#227 = SURFACE_STYLE_FILL_AREA(#228);
#228 = FILL_AREA_STYLE('', (#229));
#229 = FILL_AREA_STYLE_COLOUR('', #230);
#230 = COLOUR_RGB('', 0.50196078431373, 0.50196078431373, 0.50196078431373);
#231 = STYLED_ITEM('', (#224), #148);
#232 = MANIFOLD_SOLID_BREP('LP_edge_1', #233);
#233 = CLOSED_SHELL('', (#234, #290, #299));
#234 = ADVANCED_FACE('', (#235), #271, .T.);
#235 = FACE_OUTER_BOUND('', #236, .T.);
#236 = EDGE_LOOP('', (#237, #246, #258, #259));
#237 = ORIENTED_EDGE('', *, *, #238, .F.);
#238 = EDGE_CURVE('', #239, #241, #243, .T.);
#239 = VERTEX_POINT('', #240);
#240 = CARTESIAN_POINT('', (4., 15., 0.));
#241 = VERTEX_POINT('', #242);
#242 = CARTESIAN_POINT('', (4., 15., 10.));
#243 = B_SPLINE_CURVE_WITH_KNOTS('', 1, (#244, #245), .UNSPECIFIED., .F., .U., (2, 2), (0., 10.), .UNSPECIFIED.);
#244 = CARTESIAN_POINT('', (4., 15., 0.));
#245 = CARTESIAN_POINT('', (4., 15., 10.));
#246 = ORIENTED_EDGE('', *, *, #247, .T.);
#247 = EDGE_CURVE('', #239, #239, #248, .T.);
#248 = (
   BOUNDED_CURVE ()
   B_SPLINE_CURVE (2, (#249, #250, #251, #252, #253, #254, #255, #256, #257), .UNSPECIFIED., .T., .U.)
   B_SPLINE_CURVE_WITH_KNOTS ((3, 2, 2, 2, 3), (0., 6.28318530717959, 12.5663706143592, 18.8495559215388, 25.1327412287183), .UNSPECIFIED.)
   CURVE ()
   GEOMETRIC_REPRESENTATION_ITEM ()
   RATIONAL_B_SPLINE_CURVE ((1., 0.707106781186548, 1., 0.707106781186548, 1., 0.707106781186548, 1., 0.707106781186548, 1.))
   REPRESENTATION_ITEM ('')
);
#249 = CARTESIAN_POINT('', (4., 15., 0.));
#250 = CARTESIAN_POINT('', (4., 19., 0.));
#251 = CARTESIAN_POINT('', (2.44929359829471E-16, 19., 0.));
#252 = CARTESIAN_POINT('', (-4., 19., 0.));
#253 = CARTESIAN_POINT('', (-4., 15., 0.));
#254 = CARTESIAN_POINT('', (-4., 11., 0.));
#255 = CARTESIAN_POINT('', (-7.34788079488412E-16, 11., 0.));
#256 = CARTESIAN_POINT('', (4., 11., 0.));
#257 = CARTESIAN_POINT('', (4., 15., 0.));
#258 = ORIENTED_EDGE('', *, *, #238, .T.);
#259 = ORIENTED_EDGE('', *, *, #260, .F.);
#260 = EDGE_CURVE('', #241, #241, #261, .T.);
#261 = (
   BOUNDED_CURVE ()
   B_SPLINE_CURVE (2, (#262, #263, #264, #265, #266, #267, #268, #269, #270), .UNSPECIFIED., .T., .U.)
   B_SPLINE_CURVE_WITH_KNOTS ((3, 2, 2, 2, 3), (0., 6.28318530717959, 12.5663706143592, 18.8495559215388, 25.1327412287183), .UNSPECIFIED.)
   CURVE ()
   GEOMETRIC_REPRESENTATION_ITEM ()
   RATIONAL_B_SPLINE_CURVE ((1., 0.707106781186548, 1., 0.707106781186548, 1., 0.707106781186548, 1., 0.707106781186548, 1.))
   REPRESENTATION_ITEM ('')
);
#262 = CARTESIAN_POINT('', (4., 15., 10.));
#263 = CARTESIAN_POINT('', (4., 19., 10.));
#264 = CARTESIAN_POINT('', (2.44929359829471E-16, 19., 10.));
#265 = CARTESIAN_POINT('', (-4., 19., 10.));
#266 = CARTESIAN_POINT('', (-4., 15., 10.));
#267 = CARTESIAN_POINT('', (-4., 11., 10.));
#268 = CARTESIAN_POINT('', (-7.34788079488412E-16, 11., 10.));
#269 = CARTESIAN_POINT('', (4., 11., 10.));
#270 = CARTESIAN_POINT('', (4., 15., 10.));
#271 = (
   BOUNDED_SURFACE ()
   B_SPLINE_SURFACE (2, 1, ((#272, #273), (#274, #275), (#276, #277), (#278, #279), (#280, #281), (#282, #283), (#284, #285), (#286, #287), (#288, #289)), .UNSPECIFIED., .T., .F., .U.)
   B_SPLINE_SURFACE_WITH_KNOTS ((3, 2, 2, 2, 3), (2, 2), (0., 6.28318530717959, 12.5663706143592, 18.8495559215388, 25.1327412287183), (0., 10.), .UNSPECIFIED.)
   GEOMETRIC_REPRESENTATION_ITEM ()
   RATIONAL_B_SPLINE_SURFACE (((1., 1.), (0.707106781186548, 0.707106781186548), (1., 1.), (0.707106781186548, 0.707106781186548), (1., 1.), (0.707106781186548, 0.707106781186548), (1., 1.), (0.707106781186548, 0.707106781186548), (1., 1.)))
   REPRESENTATION_ITEM ('')
   SURFACE ()
);
#272 = CARTESIAN_POINT('', (4., 15., 0.));
#273 = CARTESIAN_POINT('', (4., 15., 10.));
#274 = CARTESIAN_POINT('', (4., 19., 0.));
#275 = CARTESIAN_POINT('', (4., 19., 10.));
#276 = CARTESIAN_POINT('', (2.44929359829471E-16, 19., 0.));
#277 = CARTESIAN_POINT('', (2.44929359829471E-16, 19., 10.));
#278 = CARTESIAN_POINT('', (-4., 19., 0.));
#279 = CARTESIAN_POINT('', (-4., 19., 10.));
#280 = CARTESIAN_POINT('', (-4., 15., 0.));
#281 = CARTESIAN_POINT('', (-4., 15., 10.));
#282 = CARTESIAN_POINT('', (-4., 11., 0.));
#283 = CARTESIAN_POINT('', (-4., 11., 10.));
#284 = CARTESIAN_POINT('', (-7.34788079488412E-16, 11., 0.));
#285 = CARTESIAN_POINT('', (-7.34788079488412E-16, 11., 10.));
#286 = CARTESIAN_POINT('', (4., 11., 0.));
#287 = CARTESIAN_POINT('', (4., 11., 10.));
#288 = CARTESIAN_POINT('', (4., 15., 0.));
#289 = CARTESIAN_POINT('', (4., 15., 10.));
#290 = ADVANCED_FACE('', (#291), #294, .T.);
#291 = FACE_OUTER_BOUND('', #292, .T.);
#292 = EDGE_LOOP('', (#293));
#293 = ORIENTED_EDGE('', *, *, #247, .F.);
#294 = B_SPLINE_SURFACE_WITH_KNOTS('', 1, 1, ((#295, #296), (#297, #298)), .UNSPECIFIED., .F., .F., .U., (2, 2), (2, 2), (0., 1.), (0., 1.), .UNSPECIFIED.);
#295 = CARTESIAN_POINT('', (6.22253967444162, 8.77746032555838, 0.));
#296 = CARTESIAN_POINT('', (6.22253967444162, 21.2225396744416, 0.));
#297 = CARTESIAN_POINT('', (-6.22253967444162, 8.77746032555838, 0.));
#298 = CARTESIAN_POINT('', (-6.22253967444162, 21.2225396744416, 0.));
#299 = ADVANCED_FACE('', (#300), #303, .T.);
#300 = FACE_OUTER_BOUND('', #301, .T.);
#301 = EDGE_LOOP('', (#302));
#302 = ORIENTED_EDGE('', *, *, #260, .T.);
#303 = B_SPLINE_SURFACE_WITH_KNOTS('', 1, 1, ((#304, #305), (#306, #307)), .UNSPECIFIED., .F., .F., .U., (2, 2), (2, 2), (0., 1.), (0., 1.), .UNSPECIFIED.);
#304 = CARTESIAN_POINT('', (6.22253967444162, 8.77746032555838, 10.));
#305 = CARTESIAN_POINT('', (-6.22253967444162, 8.77746032555838, 10.));
#306 = CARTESIAN_POINT('', (6.22253967444162, 21.2225396744416, 10.));
#307 = CARTESIAN_POINT('', (-6.22253967444162, 21.2225396744416, 10.));
#308 = PRESENTATION_STYLE_ASSIGNMENT((#309));
#309 = SURFACE_STYLE_USAGE(.POSITIVE., #310);
#310 = SURFACE_SIDE_STYLE('', (#311));
#311 = SURFACE_STYLE_FILL_AREA(#312);
#312 = FILL_AREA_STYLE('', (#313));
#313 = FILL_AREA_STYLE_COLOUR('', #314);
#314 = COLOUR_RGB('', 0.50196078431373, 0.50196078431373, 0.50196078431373);
#315 = STYLED_ITEM('', (#308), #232);
#316 = MANIFOLD_SOLID_BREP('LP_edge_2', #317);
#317 = CLOSED_SHELL('', (#318, #374, #383));
#318 = ADVANCED_FACE('', (#319), #355, .T.);
#319 = FACE_OUTER_BOUND('', #320, .T.);
#320 = EDGE_LOOP('', (#321, #330, #342, #343));
#321 = ORIENTED_EDGE('', *, *, #322, .F.);
#322 = EDGE_CURVE('', #323, #325, #327, .T.);
#323 = VERTEX_POINT('', #324);
#324 = CARTESIAN_POINT('', (4., 30., 0.));
#325 = VERTEX_POINT('', #326);
#326 = CARTESIAN_POINT('', (4., 30., 10.));
#327 = B_SPLINE_CURVE_WITH_KNOTS('', 1, (#328, #329), .UNSPECIFIED., .F., .U., (2, 2), (0., 10.), .UNSPECIFIED.);
#328 = CARTESIAN_POINT('', (4., 30., 0.));
#329 = CARTESIAN_POINT('', (4., 30., 10.));
#330 = ORIENTED_EDGE('', *, *, #331, .T.);
#331 = EDGE_CURVE('', #323, #323, #332, .T.);
#332 = (
   BOUNDED_CURVE ()
   B_SPLINE_CURVE (2, (#333, #334, #335, #336, #337, #338, #339, #340, #341), .UNSPECIFIED., .T., .U.)
   B_SPLINE_CURVE_WITH_KNOTS ((3, 2, 2, 2, 3), (0., 6.28318530717959, 12.5663706143592, 18.8495559215388, 25.1327412287183), .UNSPECIFIED.)
   CURVE ()
   GEOMETRIC_REPRESENTATION_ITEM ()
   RATIONAL_B_SPLINE_CURVE ((1., 0.707106781186548, 1., 0.707106781186548, 1., 0.707106781186548, 1., 0.707106781186548, 1.))
   REPRESENTATION_ITEM ('')
);
#333 = CARTESIAN_POINT('', (4., 30., 0.));
#334 = CARTESIAN_POINT('', (4., 34., 0.));
#335 = CARTESIAN_POINT('', (2.44929359829471E-16, 34., 0.));
#336 = CARTESIAN_POINT('', (-4., 34., 0.));
#337 = CARTESIAN_POINT('', (-4., 30., 0.));
#338 = CARTESIAN_POINT('', (-4., 26., 0.));
#339 = CARTESIAN_POINT('', (-7.34788079488412E-16, 26., 0.));
#340 = CARTESIAN_POINT('', (4., 26., 0.));
#341 = CARTESIAN_POINT('', (4., 30., 0.));
#342 = ORIENTED_EDGE('', *, *, #322, .T.);
#343 = ORIENTED_EDGE('', *, *, #344, .F.);
#344 = EDGE_CURVE('', #325, #325, #345, .T.);
#345 = (
   BOUNDED_CURVE ()
   B_SPLINE_CURVE (2, (#346, #347, #348, #349, #350, #351, #352, #353, #354), .UNSPECIFIED., .T., .U.)
   B_SPLINE_CURVE_WITH_KNOTS ((3, 2, 2, 2, 3), (0., 6.28318530717959, 12.5663706143592, 18.8495559215388, 25.1327412287183), .UNSPECIFIED.)
   CURVE ()
   GEOMETRIC_REPRESENTATION_ITEM ()
   RATIONAL_B_SPLINE_CURVE ((1., 0.707106781186548, 1., 0.707106781186548, 1., 0.707106781186548, 1., 0.707106781186548, 1.))
   REPRESENTATION_ITEM ('')
);
#346 = CARTESIAN_POINT('', (4., 30., 10.));
#347 = CARTESIAN_POINT('', (4., 34., 10.));
#348 = CARTESIAN_POINT('', (2.44929359829471E-16, 34., 10.));
#349 = CARTESIAN_POINT('', (-4., 34., 10.));
#350 = CARTESIAN_POINT('', (-4., 30., 10.));
#351 = CARTESIAN_POINT('', (-4., 26., 10.));
#352 = CARTESIAN_POINT('', (-7.34788079488412E-16, 26., 10.));
#353 = CARTESIAN_POINT('', (4., 26., 10.));
#354 = CARTESIAN_POINT('', (4., 30., 10.));
#355 = (
   BOUNDED_SURFACE ()
   B_SPLINE_SURFACE (2, 1, ((#356, #357), (#358, #359), (#360, #361), (#362, #363), (#364, #365), (#366, #367), (#368, #369), (#370, #371), (#372, #373)), .UNSPECIFIED., .T., .F., .U.)
   B_SPLINE_SURFACE_WITH_KNOTS ((3, 2, 2, 2, 3), (2, 2), (0., 6.28318530717959, 12.5663706143592, 18.8495559215388, 25.1327412287183), (0., 10.), .UNSPECIFIED.)
   GEOMETRIC_REPRESENTATION_ITEM ()
   RATIONAL_B_SPLINE_SURFACE (((1., 1.), (0.707106781186548, 0.707106781186548), (1., 1.), (0.707106781186548, 0.707106781186548), (1., 1.), (0.707106781186548, 0.707106781186548), (1., 1.), (0.707106781186548, 0.707106781186548), (1., 1.)))
   REPRESENTATION_ITEM ('')
   SURFACE ()
);
#356 = CARTESIAN_POINT('', (4., 30., 0.));
#357 = CARTESIAN_POINT('', (4., 30., 10.));
#358 = CARTESIAN_POINT('', (4., 34., 0.));
#359 = CARTESIAN_POINT('', (4., 34., 10.));
#360 = CARTESIAN_POINT('', (2.44929359829471E-16, 34., 0.));
#361 = CARTESIAN_POINT('', (2.44929359829471E-16, 34., 10.));
#362 = CARTESIAN_POINT('', (-4., 34., 0.));
#363 = CARTESIAN_POINT('', (-4., 34., 10.));
#364 = CARTESIAN_POINT('', (-4., 30., 0.));
#365 = CARTESIAN_POINT('', (-4., 30., 10.));
#366 = CARTESIAN_POINT('', (-4., 26., 0.));
#367 = CARTESIAN_POINT('', (-4., 26., 10.));
#368 = CARTESIAN_POINT('', (-7.34788079488412E-16, 26., 0.));
#369 = CARTESIAN_POINT('', (-7.34788079488412E-16, 26., 10.));
#370 = CARTESIAN_POINT('', (4., 26., 0.));
#371 = CARTESIAN_POINT('', (4., 26., 10.));
#372 = CARTESIAN_POINT('', (4., 30., 0.));
#373 = CARTESIAN_POINT('', (4., 30., 10.));
#374 = ADVANCED_FACE('', (#375), #378, .T.);
#375 = FACE_OUTER_BOUND('', #376, .T.);
#376 = EDGE_LOOP('', (#377));
#377 = ORIENTED_EDGE('', *, *, #331, .F.);
#378 = B_SPLINE_SURFACE_WITH_KNOTS('', 1, 1, ((#379, #380), (#381, #382)), .UNSPECIFIED., .F., .F., .U., (2, 2), (2, 2), (0., 1.), (0., 1.), .UNSPECIFIED.);
#379 = CARTESIAN_POINT('', (6.22253967444162, 23.7774603255584, 0.));
#380 = CARTESIAN_POINT('', (6.22253967444162, 36.2225396744416, 0.));
#381 = CARTESIAN_POINT('', (-6.22253967444162, 23.7774603255584, 0.));
#382 = CARTESIAN_POINT('', (-6.22253967444162, 36.2225396744416, 0.));
#383 = ADVANCED_FACE('', (#384), #387, .T.);
#384 = FACE_OUTER_BOUND('', #385, .T.);
#385 = EDGE_LOOP('', (#386));
#386 = ORIENTED_EDGE('', *, *, #344, .T.);
#387 = B_SPLINE_SURFACE_WITH_KNOTS('', 1, 1, ((#388, #389), (#390, #391)), .UNSPECIFIED., .F., .F., .U., (2, 2), (2, 2), (0., 1.), (0., 1.), .UNSPECIFIED.);
#388 = CARTESIAN_POINT('', (6.22253967444162, 23.7774603255584, 10.));
#389 = CARTESIAN_POINT('', (-6.22253967444162, 23.7774603255584, 10.));
#390 = CARTESIAN_POINT('', (6.22253967444162, 36.2225396744416, 10.));
#391 = CARTESIAN_POINT('', (-6.22253967444162, 36.2225396744416, 10.));
#392 = PRESENTATION_STYLE_ASSIGNMENT((#393));
#393 = SURFACE_STYLE_USAGE(.POSITIVE., #394);
#394 = SURFACE_SIDE_STYLE('', (#395));
#395 = SURFACE_STYLE_FILL_AREA(#396);
#396 = FILL_AREA_STYLE('', (#397));
#397 = FILL_AREA_STYLE_COLOUR('', #398);
#398 = COLOUR_RGB('', 0.50196078431373, 0.50196078431373, 0.50196078431373);
#399 = STYLED_ITEM('', (#392), #316);
#400 = MANIFOLD_SOLID_BREP('LP_edge_3', #401);
#401 = CLOSED_SHELL('', (#402, #458, #467));
#402 = ADVANCED_FACE('', (#403), #439, .T.);
#403 = FACE_OUTER_BOUND('', #404, .T.);
#404 = EDGE_LOOP('', (#405, #414, #426, #427));
#405 = ORIENTED_EDGE('', *, *, #406, .F.);
#406 = EDGE_CURVE('', #407, #409, #411, .T.);
#407 = VERTEX_POINT('', #408);
#408 = CARTESIAN_POINT('', (4., 45., 0.));
#409 = VERTEX_POINT('', #410);
#410 = CARTESIAN_POINT('', (4., 45., 10.));
#411 = B_SPLINE_CURVE_WITH_KNOTS('', 1, (#412, #413), .UNSPECIFIED., .F., .U., (2, 2), (0., 10.), .UNSPECIFIED.);
#412 = CARTESIAN_POINT('', (4., 45., 0.));
#413 = CARTESIAN_POINT('', (4., 45., 10.));
#414 = ORIENTED_EDGE('', *, *, #415, .T.);
#415 = EDGE_CURVE('', #407, #407, #416, .T.);
#416 = (
   BOUNDED_CURVE ()
   B_SPLINE_CURVE (2, (#417, #418, #419, #420, #421, #422, #423, #424, #425), .UNSPECIFIED., .T., .U.)
   B_SPLINE_CURVE_WITH_KNOTS ((3, 2, 2, 2, 3), (0., 6.28318530717959, 12.5663706143592, 18.8495559215388, 25.1327412287183), .UNSPECIFIED.)
   CURVE ()
   GEOMETRIC_REPRESENTATION_ITEM ()
   RATIONAL_B_SPLINE_CURVE ((1., 0.707106781186548, 1., 0.707106781186548, 1., 0.707106781186548, 1., 0.707106781186548, 1.))
   REPRESENTATION_ITEM ('')
);
#417 = CARTESIAN_POINT('', (4., 45., 0.));
#418 = CARTESIAN_POINT('', (4., 49., 0.));
#419 = CARTESIAN_POINT('', (2.44929359829471E-16, 49., 0.));
#420 = CARTESIAN_POINT('', (-4., 49., 0.));
#421 = CARTESIAN_POINT('', (-4., 45., 0.));
#422 = CARTESIAN_POINT('', (-4., 41., 0.));
#423 = CARTESIAN_POINT('', (-7.34788079488412E-16, 41., 0.));
#424 = CARTESIAN_POINT('', (4., 41., 0.));
#425 = CARTESIAN_POINT('', (4., 45., 0.));
#426 = ORIENTED_EDGE('', *, *, #406, .T.);
#427 = ORIENTED_EDGE('', *, *, #428, .F.);
#428 = EDGE_CURVE('', #409, #409, #429, .T.);
#429 = (
   BOUNDED_CURVE ()
   B_SPLINE_CURVE (2, (#430, #431, #432, #433, #434, #435, #436, #437, #438), .UNSPECIFIED., .T., .U.)
   B_SPLINE_CURVE_WITH_KNOTS ((3, 2, 2, 2, 3), (0., 6.28318530717959, 12.5663706143592, 18.8495559215388, 25.1327412287183), .UNSPECIFIED.)
   CURVE ()
   GEOMETRIC_REPRESENTATION_ITEM ()
   RATIONAL_B_SPLINE_CURVE ((1., 0.707106781186548, 1., 0.707106781186548, 1., 0.707106781186548, 1., 0.707106781186548, 1.))
   REPRESENTATION_ITEM ('')
);
#430 = CARTESIAN_POINT('', (4., 45., 10.));
#431 = CARTESIAN_POINT('', (4., 49., 10.));
#432 = CARTESIAN_POINT('', (2.44929359829471E-16, 49., 10.));
#433 = CARTESIAN_POINT('', (-4., 49., 10.));
#434 = CARTESIAN_POINT('', (-4., 45., 10.));
#435 = CARTESIAN_POINT('', (-4., 41., 10.));
#436 = CARTESIAN_POINT('', (-7.34788079488412E-16, 41., 10.));
#437 = CARTESIAN_POINT('', (4., 41., 10.));
#438 = CARTESIAN_POINT('', (4., 45., 10.));
#439 = (
   BOUNDED_SURFACE ()
   B_SPLINE_SURFACE (2, 1, ((#440, #441), (#442, #443), (#444, #445), (#446, #447), (#448, #449), (#450, #451), (#452, #453), (#454, #455), (#456, #457)), .UNSPECIFIED., .T., .F., .U.)
   B_SPLINE_SURFACE_WITH_KNOTS ((3, 2, 2, 2, 3), (2, 2), (0., 6.28318530717959, 12.5663706143592, 18.8495559215388, 25.1327412287183), (0., 10.), .UNSPECIFIED.)
   GEOMETRIC_REPRESENTATION_ITEM ()
   RATIONAL_B_SPLINE_SURFACE (((1., 1.), (0.707106781186548, 0.707106781186548), (1., 1.), (0.707106781186548, 0.707106781186548), (1., 1.), (0.707106781186548, 0.707106781186548), (1., 1.), (0.707106781186548, 0.707106781186548), (1., 1.)))
   REPRESENTATION_ITEM ('')
   SURFACE ()
);
#440 = CARTESIAN_POINT('', (4., 45., 0.));
#441 = CARTESIAN_POINT('', (4., 45., 10.));
#442 = CARTESIAN_POINT('', (4., 49., 0.));
#443 = CARTESIAN_POINT('', (4., 49., 10.));
#444 = CARTESIAN_POINT('', (2.44929359829471E-16, 49., 0.));
#445 = CARTESIAN_POINT('', (2.44929359829471E-16, 49., 10.));
#446 = CARTESIAN_POINT('', (-4., 49., 0.));
#447 = CARTESIAN_POINT('', (-4., 49., 10.));
#448 = CARTESIAN_POINT('', (-4., 45., 0.));
#449 = CARTESIAN_POINT('', (-4., 45., 10.));
#450 = CARTESIAN_POINT('', (-4., 41., 0.));
#451 = CARTESIAN_POINT('', (-4., 41., 10.));
#452 = CARTESIAN_POINT('', (-7.34788079488412E-16, 41., 0.));
#453 = CARTESIAN_POINT('', (-7.34788079488412E-16, 41., 10.));
#454 = CARTESIAN_POINT('', (4., 41., 0.));
#455 = CARTESIAN_POINT('', (4., 41., 10.));
#456 = CARTESIAN_POINT('', (4., 45., 0.));
#457 = CARTESIAN_POINT('', (4., 45., 10.));
#458 = ADVANCED_FACE('', (#459), #462, .T.);
#459 = FACE_OUTER_BOUND('', #460, .T.);
#460 = EDGE_LOOP('', (#461));
#461 = ORIENTED_EDGE('', *, *, #415, .F.);
#462 = B_SPLINE_SURFACE_WITH_KNOTS('', 1, 1, ((#463, #464), (#465, #466)), .UNSPECIFIED., .F., .F., .U., (2, 2), (2, 2), (0., 1.), (0., 1.), .UNSPECIFIED.);
#463 = CARTESIAN_POINT('', (6.22253967444162, 38.7774603255584, 0.));
#464 = CARTESIAN_POINT('', (6.22253967444162, 51.2225396744416, 0.));
#465 = CARTESIAN_POINT('', (-6.22253967444162, 38.7774603255584, 0.));
#466 = CARTESIAN_POINT('', (-6.22253967444162, 51.2225396744416, 0.));
#467 = ADVANCED_FACE('', (#468), #471, .T.);
#468 = FACE_OUTER_BOUND('', #469, .T.);
#469 = EDGE_LOOP('', (#470));
#470 = ORIENTED_EDGE('', *, *, #428, .T.);
#471 = B_SPLINE_SURFACE_WITH_KNOTS('', 1, 1, ((#472, #473), (#474, #475)), .UNSPECIFIED., .F., .F., .U., (2, 2), (2, 2), (0., 1.), (0., 1.), .UNSPECIFIED.);
#472 = CARTESIAN_POINT('', (6.22253967444162, 38.7774603255584, 10.));
#473 = CARTESIAN_POINT('', (-6.22253967444162, 38.7774603255584, 10.));
#474 = CARTESIAN_POINT('', (6.22253967444162, 51.2225396744416, 10.));
#475 = CARTESIAN_POINT('', (-6.22253967444162, 51.2225396744416, 10.));
#476 = PRESENTATION_STYLE_ASSIGNMENT((#477));
#477 = SURFACE_STYLE_USAGE(.POSITIVE., #478);
#478 = SURFACE_SIDE_STYLE('', (#479));
#479 = SURFACE_STYLE_FILL_AREA(#480);
#480 = FILL_AREA_STYLE('', (#481));
#481 = FILL_AREA_STYLE_COLOUR('', #482);
#482 = COLOUR_RGB('', 0.50196078431373, 0.50196078431373, 0.50196078431373);
#483 = STYLED_ITEM('', (#476), #400);
#484 = CARTESIAN_POINT('Origin', (0., 0., 0.));
#485 = GEOMETRIC_SET('', (#484));
#486 = AXIS2_PLACEMENT_3D('WCS1', #487, #488, #489);
#487 = CARTESIAN_POINT('', (0., 0., 0.));
#488 = DIRECTION('', (0., 0., 1.));
#489 = DIRECTION('', (1., 0., 0.));
#490 = (
   GEOMETRIC_REPRESENTATION_CONTEXT (3)
   GLOBAL_UNCERTAINTY_ASSIGNED_CONTEXT ((#492))
   GLOBAL_UNIT_ASSIGNED_CONTEXT ((#491, #493, #494))
   REPRESENTATION_CONTEXT ('', '3D')
);
#491 = (
   LENGTH_UNIT ()
   NAMED_UNIT (*)
   SI_UNIT (.MILLI., .METRE.)
);
#492 = UNCERTAINTY_MEASURE_WITH_UNIT(LENGTH_MEASURE(1.E-6), #491, 'DISTANCE_ACCURACY_VALUE', '');
#493 = (
   NAMED_UNIT (*)
   SI_UNIT ($, .STERADIAN.)
   SOLID_ANGLE_UNIT ()
);
#494 = (
   NAMED_UNIT (*)
   PLANE_ANGLE_UNIT ()
   SI_UNIT ($, .RADIAN.)
);
#495 = SHAPE_REPRESENTATION('', (#512), #490);
#496 = PRODUCT_DEFINITION_SHAPE('', '', #497);
#497 = PRODUCT_DEFINITION('', '', #500, #504);
#498 = APPLICATION_CONTEXT('configuration controlled 3D designs of mechanical parts and assemblies');
#499 = APPLICATION_PROTOCOL_DEFINITION('International Standard', 'automotive_design', 2002, #498);
#500 = PRODUCT_DEFINITION_FORMATION_WITH_SPECIFIED_SOURCE('', '', #501, .NOT_KNOWN.);
#501 = PRODUCT('BrepEdgeRef', 'BrepEdgeRef', '', (#502));
#502 = PRODUCT_CONTEXT('', #498, 'mechanical');
#503 = PRODUCT_RELATED_PRODUCT_CATEGORY('detail', '', (#501));
#504 = PRODUCT_DEFINITION_CONTEXT('part definition', #498, 'design');
#505 = SHAPE_DEFINITION_REPRESENTATION(#496, #495);
#506 = CONSTRUCTIVE_GEOMETRY_REPRESENTATION('supplemental geometry', (#486), #490);
#507 = CONSTRUCTIVE_GEOMETRY_REPRESENTATION_RELATIONSHIP('', '', #495, #506);
#508 = SHAPE_REPRESENTATION_RELATIONSHIP('', '', #495, #509);
#509 = SHAPE_REPRESENTATION('', (#485), #490);
#510 = SHAPE_REPRESENTATION_RELATIONSHIP('', '', #495, #511);
#511 = ADVANCED_BREP_SHAPE_REPRESENTATION('', (#1, #148, #232, #316, #400), #490);
#512 = AXIS2_PLACEMENT_3D('', #513, #514, #515);
#513 = CARTESIAN_POINT('', (0., 0., 0.));
#514 = DIRECTION('', (0., 0., 1.));
#515 = DIRECTION('', (1., 0., 0.));
ENDSEC;
END-ISO-10303-21;
