ISO-10303-21;
HEADER;
FILE_DESCRIPTION(('STEP'), '1');
FILE_NAME('BrepEdgeAxis', '2026-04-20T17:17:57', (''), (''), 'Express 3.1.2.0', 'Express Tool', 'Unknown');
FILE_SCHEMA(('AUTOMOTIVE_DESIGN'));
ENDSEC;

DATA;
#1 = MANIFOLD_SOLID_BREP('CenterCyl_0', #2);
#2 = CLOSED_SHELL('', (#3, #59, #68));
#3 = ADVANCED_FACE('', (#4), #40, .T.);
#4 = FACE_OUTER_BOUND('', #5, .T.);
#5 = EDGE_LOOP('', (#6, #15, #27, #28));
#6 = ORIENTED_EDGE('', *, *, #7, .F.);
#7 = EDGE_CURVE('', #8, #10, #12, .T.);
#8 = VERTEX_POINT('', #9);
#9 = CARTESIAN_POINT('', (7.5, 0., 0.));
#10 = VERTEX_POINT('', #11);
#11 = CARTESIAN_POINT('', (7.5, 0., 50.));
#12 = B_SPLINE_CURVE_WITH_KNOTS('', 1, (#13, #14), .UNSPECIFIED., .F., .U., (2, 2), (0., 50.), .UNSPECIFIED.);
#13 = CARTESIAN_POINT('', (7.5, 0., 0.));
#14 = CARTESIAN_POINT('', (7.5, 0., 50.));
#15 = ORIENTED_EDGE('', *, *, #16, .T.);
#16 = EDGE_CURVE('', #8, #8, #17, .T.);
#17 = (
   BOUNDED_CURVE ()
   B_SPLINE_CURVE (2, (#18, #19, #20, #21, #22, #23, #24, #25, #26), .UNSPECIFIED., .T., .U.)
   B_SPLINE_CURVE_WITH_KNOTS ((3, 2, 2, 2, 3), (0., 11.7809724509617, 23.5619449019234, 35.3429173528852, 47.1238898038469), .UNSPECIFIED.)
   CURVE ()
   GEOMETRIC_REPRESENTATION_ITEM ()
   RATIONAL_B_SPLINE_CURVE ((1., 0.707106781186548, 1., 0.707106781186548, 1., 0.707106781186548, 1., 0.707106781186548, 1.))
   REPRESENTATION_ITEM ('')
);
#18 = CARTESIAN_POINT('', (7.5, 0., 0.));
#19 = CARTESIAN_POINT('', (7.5, 7.5, 0.));
#20 = CARTESIAN_POINT('', (4.59242549680257E-16, 7.5, 0.));
#21 = CARTESIAN_POINT('', (-7.5, 7.5, 0.));
#22 = CARTESIAN_POINT('', (-7.5, 9.18485099360515E-16, 0.));
#23 = CARTESIAN_POINT('', (-7.5, -7.5, 0.));
#24 = CARTESIAN_POINT('', (-1.37772764904077E-15, -7.5, 0.));
#25 = CARTESIAN_POINT('', (7.5, -7.5, 0.));
#26 = CARTESIAN_POINT('', (7.5, 0., 0.));
#27 = ORIENTED_EDGE('', *, *, #7, .T.);
#28 = ORIENTED_EDGE('', *, *, #29, .F.);
#29 = EDGE_CURVE('', #10, #10, #30, .T.);
#30 = (
   BOUNDED_CURVE ()
   B_SPLINE_CURVE (2, (#31, #32, #33, #34, #35, #36, #37, #38, #39), .UNSPECIFIED., .T., .U.)
   B_SPLINE_CURVE_WITH_KNOTS ((3, 2, 2, 2, 3), (0., 11.7809724509617, 23.5619449019234, 35.3429173528852, 47.1238898038469), .UNSPECIFIED.)
   CURVE ()
   GEOMETRIC_REPRESENTATION_ITEM ()
   RATIONAL_B_SPLINE_CURVE ((1., 0.707106781186548, 1., 0.707106781186548, 1., 0.707106781186548, 1., 0.707106781186548, 1.))
   REPRESENTATION_ITEM ('')
);
#31 = CARTESIAN_POINT('', (7.5, 0., 50.));
#32 = CARTESIAN_POINT('', (7.5, 7.5, 50.));
#33 = CARTESIAN_POINT('', (4.59242549680257E-16, 7.5, 50.));
#34 = CARTESIAN_POINT('', (-7.5, 7.5, 50.));
#35 = CARTESIAN_POINT('', (-7.5, 9.18485099360515E-16, 50.));
#36 = CARTESIAN_POINT('', (-7.5, -7.5, 50.));
#37 = CARTESIAN_POINT('', (-1.37772764904077E-15, -7.5, 50.));
#38 = CARTESIAN_POINT('', (7.5, -7.5, 50.));
#39 = CARTESIAN_POINT('', (7.5, 0., 50.));
#40 = (
   BOUNDED_SURFACE ()
   B_SPLINE_SURFACE (2, 1, ((#41, #42), (#43, #44), (#45, #46), (#47, #48), (#49, #50), (#51, #52), (#53, #54), (#55, #56), (#57, #58)), .UNSPECIFIED., .T., .F., .U.)
   B_SPLINE_SURFACE_WITH_KNOTS ((3, 2, 2, 2, 3), (2, 2), (0., 11.7809724509617, 23.5619449019234, 35.3429173528852, 47.1238898038469), (0., 50.), .UNSPECIFIED.)
   GEOMETRIC_REPRESENTATION_ITEM ()
   RATIONAL_B_SPLINE_SURFACE (((1., 1.), (0.707106781186548, 0.707106781186548), (1., 1.), (0.707106781186548, 0.707106781186548), (1., 1.), (0.707106781186548, 0.707106781186548), (1., 1.), (0.707106781186548, 0.707106781186548), (1., 1.)))
   REPRESENTATION_ITEM ('')
   SURFACE ()
);
#41 = CARTESIAN_POINT('', (7.5, 0., 0.));
#42 = CARTESIAN_POINT('', (7.5, 0., 50.));
#43 = CARTESIAN_POINT('', (7.5, 7.5, 0.));
#44 = CARTESIAN_POINT('', (7.5, 7.5, 50.));
#45 = CARTESIAN_POINT('', (4.59242549680257E-16, 7.5, 0.));
#46 = CARTESIAN_POINT('', (4.59242549680257E-16, 7.5, 50.));
#47 = CARTESIAN_POINT('', (-7.5, 7.5, 0.));
#48 = CARTESIAN_POINT('', (-7.5, 7.5, 50.));
#49 = CARTESIAN_POINT('', (-7.5, 9.18485099360515E-16, 0.));
#50 = CARTESIAN_POINT('', (-7.5, 9.18485099360515E-16, 50.));
#51 = CARTESIAN_POINT('', (-7.5, -7.5, 0.));
#52 = CARTESIAN_POINT('', (-7.5, -7.5, 50.));
#53 = CARTESIAN_POINT('', (-1.37772764904077E-15, -7.5, 0.));
#54 = CARTESIAN_POINT('', (-1.37772764904077E-15, -7.5, 50.));
#55 = CARTESIAN_POINT('', (7.5, -7.5, 0.));
#56 = CARTESIAN_POINT('', (7.5, -7.5, 50.));
#57 = CARTESIAN_POINT('', (7.5, 0., 0.));
#58 = CARTESIAN_POINT('', (7.5, 0., 50.));
#59 = ADVANCED_FACE('', (#60), #63, .T.);
#60 = FACE_OUTER_BOUND('', #61, .T.);
#61 = EDGE_LOOP('', (#62));
#62 = ORIENTED_EDGE('', *, *, #16, .F.);
#63 = B_SPLINE_SURFACE_WITH_KNOTS('', 1, 1, ((#64, #65), (#66, #67)), .UNSPECIFIED., .F., .F., .U., (2, 2), (2, 2), (0., 1.), (0., 1.), .UNSPECIFIED.);
#64 = CARTESIAN_POINT('', (11.667261889578, -11.667261889578, 0.));
#65 = CARTESIAN_POINT('', (11.667261889578, 11.667261889578, 0.));
#66 = CARTESIAN_POINT('', (-11.667261889578, -11.667261889578, 0.));
#67 = CARTESIAN_POINT('', (-11.667261889578, 11.667261889578, 0.));
#68 = ADVANCED_FACE('', (#69), #72, .T.);
#69 = FACE_OUTER_BOUND('', #70, .T.);
#70 = EDGE_LOOP('', (#71));
#71 = ORIENTED_EDGE('', *, *, #29, .T.);
#72 = B_SPLINE_SURFACE_WITH_KNOTS('', 1, 1, ((#73, #74), (#75, #76)), .UNSPECIFIED., .F., .F., .U., (2, 2), (2, 2), (0., 1.), (0., 1.), .UNSPECIFIED.);
#73 = CARTESIAN_POINT('', (11.667261889578, -11.667261889578, 50.));
#74 = CARTESIAN_POINT('', (-11.667261889578, -11.667261889578, 50.));
#75 = CARTESIAN_POINT('', (11.667261889578, 11.667261889578, 50.));
#76 = CARTESIAN_POINT('', (-11.667261889578, 11.667261889578, 50.));
#77 = DRAUGHTING_MODEL('', (#85, #231, #377, #523, #669, #815, #961), #964);
#78 = PRESENTATION_STYLE_ASSIGNMENT((#79));
#79 = SURFACE_STYLE_USAGE(.POSITIVE., #80);
#80 = SURFACE_SIDE_STYLE('', (#81));
#81 = SURFACE_STYLE_FILL_AREA(#82);
#82 = FILL_AREA_STYLE('', (#83));
#83 = FILL_AREA_STYLE_COLOUR('', #84);
#84 = COLOUR_RGB('', 0.50196078431373, 0.50196078431373, 0.50196078431373);
#85 = STYLED_ITEM('', (#78), #1);
#86 = MANIFOLD_SOLID_BREP('CP_brepedge_0', #87);
#87 = CLOSED_SHELL('', (#88, #124, #152, #180, #200, #212));
#88 = ADVANCED_FACE('', (#89), #119, .T.);
#89 = FACE_OUTER_BOUND('', #90, .T.);
#90 = EDGE_LOOP('', (#91, #100, #107, #114));
#91 = ORIENTED_EDGE('', *, *, #92, .T.);
#92 = EDGE_CURVE('', #93, #95, #97, .T.);
#93 = VERTEX_POINT('', #94);
#94 = CARTESIAN_POINT('', (0., 8., 0.));
#95 = VERTEX_POINT('', #96);
#96 = CARTESIAN_POINT('', (0., 8., 50.));
#97 = B_SPLINE_CURVE_WITH_KNOTS('', 1, (#98, #99), .UNSPECIFIED., .F., .U., (2, 2), (0., 50.), .UNSPECIFIED.);
#98 = CARTESIAN_POINT('', (0., 8., 0.));
#99 = CARTESIAN_POINT('', (0., 8., 50.));
#100 = ORIENTED_EDGE('', *, *, #101, .T.);
#101 = EDGE_CURVE('', #95, #102, #104, .T.);
#102 = VERTEX_POINT('', #103);
#103 = CARTESIAN_POINT('', (10., 8., 50.));
#104 = B_SPLINE_CURVE_WITH_KNOTS('', 1, (#105, #106), .UNSPECIFIED., .F., .U., (2, 2), (0., 10.), .UNSPECIFIED.);
#105 = CARTESIAN_POINT('', (0., 8., 50.));
#106 = CARTESIAN_POINT('', (10., 8., 50.));
#107 = ORIENTED_EDGE('', *, *, #108, .F.);
#108 = EDGE_CURVE('', #109, #102, #111, .T.);
#109 = VERTEX_POINT('', #110);
#110 = CARTESIAN_POINT('', (10., 8., 0.));
#111 = B_SPLINE_CURVE_WITH_KNOTS('', 1, (#112, #113), .UNSPECIFIED., .F., .U., (2, 2), (0., 50.), .UNSPECIFIED.);
#112 = CARTESIAN_POINT('', (10., 8., 0.));
#113 = CARTESIAN_POINT('', (10., 8., 50.));
#114 = ORIENTED_EDGE('', *, *, #115, .F.);
#115 = EDGE_CURVE('', #93, #109, #116, .T.);
#116 = B_SPLINE_CURVE_WITH_KNOTS('', 1, (#117, #118), .UNSPECIFIED., .F., .U., (2, 2), (0., 10.), .UNSPECIFIED.);
#117 = CARTESIAN_POINT('', (0., 8., 0.));
#118 = CARTESIAN_POINT('', (10., 8., 0.));
#119 = B_SPLINE_SURFACE_WITH_KNOTS('', 1, 1, ((#120, #121), (#122, #123)), .UNSPECIFIED., .F., .F., .U., (2, 2), (2, 2), (0., 50.), (0., 10.), .UNSPECIFIED.);
#120 = CARTESIAN_POINT('', (0., 8., 0.));
#121 = CARTESIAN_POINT('', (10., 8., 0.));
#122 = CARTESIAN_POINT('', (0., 8., 50.));
#123 = CARTESIAN_POINT('', (10., 8., 50.));
#124 = ADVANCED_FACE('', (#125), #147, .T.);
#125 = FACE_OUTER_BOUND('', #126, .T.);
#126 = EDGE_LOOP('', (#127, #134, #141, #146));
#127 = ORIENTED_EDGE('', *, *, #128, .F.);
#128 = EDGE_CURVE('', #129, #95, #131, .T.);
#129 = VERTEX_POINT('', #130);
#130 = CARTESIAN_POINT('', (0., 0., 50.));
#131 = B_SPLINE_CURVE_WITH_KNOTS('', 1, (#132, #133), .UNSPECIFIED., .F., .U., (2, 2), (0., 8.), .UNSPECIFIED.);
#132 = CARTESIAN_POINT('', (0., 0., 50.));
#133 = CARTESIAN_POINT('', (0., 8., 50.));
#134 = ORIENTED_EDGE('', *, *, #135, .T.);
#135 = EDGE_CURVE('', #129, #136, #138, .T.);
#136 = VERTEX_POINT('', #137);
#137 = CARTESIAN_POINT('', (10., 0., 50.));
#138 = B_SPLINE_CURVE_WITH_KNOTS('', 1, (#139, #140), .UNSPECIFIED., .F., .U., (2, 2), (0., 10.), .UNSPECIFIED.);
#139 = CARTESIAN_POINT('', (0., 0., 50.));
#140 = CARTESIAN_POINT('', (10., 0., 50.));
#141 = ORIENTED_EDGE('', *, *, #142, .T.);
#142 = EDGE_CURVE('', #136, #102, #143, .T.);
#143 = B_SPLINE_CURVE_WITH_KNOTS('', 1, (#144, #145), .UNSPECIFIED., .F., .U., (2, 2), (0., 8.), .UNSPECIFIED.);
#144 = CARTESIAN_POINT('', (10., 0., 50.));
#145 = CARTESIAN_POINT('', (10., 8., 50.));
#146 = ORIENTED_EDGE('', *, *, #101, .F.);
#147 = B_SPLINE_SURFACE_WITH_KNOTS('', 1, 1, ((#148, #149), (#150, #151)), .UNSPECIFIED., .F., .F., .U., (2, 2), (2, 2), (0., 10.), (0., 8.), .UNSPECIFIED.);
#148 = CARTESIAN_POINT('', (0., 0., 50.));
#149 = CARTESIAN_POINT('', (0., 8., 50.));
#150 = CARTESIAN_POINT('', (10., 0., 50.));
#151 = CARTESIAN_POINT('', (10., 8., 50.));
#152 = ADVANCED_FACE('', (#153), #175, .T.);
#153 = FACE_OUTER_BOUND('', #154, .T.);
#154 = EDGE_LOOP('', (#155, #162, #169, #174));
#155 = ORIENTED_EDGE('', *, *, #156, .F.);
#156 = EDGE_CURVE('', #157, #129, #159, .T.);
#157 = VERTEX_POINT('', #158);
#158 = CARTESIAN_POINT('', (0., 0., 0.));
#159 = B_SPLINE_CURVE_WITH_KNOTS('', 1, (#160, #161), .UNSPECIFIED., .F., .U., (2, 2), (0., 50.), .UNSPECIFIED.);
#160 = CARTESIAN_POINT('', (0., 0., 0.));
#161 = CARTESIAN_POINT('', (0., 0., 50.));
#162 = ORIENTED_EDGE('', *, *, #163, .T.);
#163 = EDGE_CURVE('', #157, #164, #166, .T.);
#164 = VERTEX_POINT('', #165);
#165 = CARTESIAN_POINT('', (10., 0., 0.));
#166 = B_SPLINE_CURVE_WITH_KNOTS('', 1, (#167, #168), .UNSPECIFIED., .F., .U., (2, 2), (0., 10.), .UNSPECIFIED.);
#167 = CARTESIAN_POINT('', (0., 0., 0.));
#168 = CARTESIAN_POINT('', (10., 0., 0.));
#169 = ORIENTED_EDGE('', *, *, #170, .T.);
#170 = EDGE_CURVE('', #164, #136, #171, .T.);
#171 = B_SPLINE_CURVE_WITH_KNOTS('', 1, (#172, #173), .UNSPECIFIED., .F., .U., (2, 2), (0., 50.), .UNSPECIFIED.);
#172 = CARTESIAN_POINT('', (10., 0., 0.));
#173 = CARTESIAN_POINT('', (10., 0., 50.));
#174 = ORIENTED_EDGE('', *, *, #135, .F.);
#175 = B_SPLINE_SURFACE_WITH_KNOTS('', 1, 1, ((#176, #177), (#178, #179)), .UNSPECIFIED., .F., .F., .U., (2, 2), (2, 2), (0., 10.), (0., 50.), .UNSPECIFIED.);
#176 = CARTESIAN_POINT('', (0., 0., 0.));
#177 = CARTESIAN_POINT('', (0., 0., 50.));
#178 = CARTESIAN_POINT('', (10., 0., 0.));
#179 = CARTESIAN_POINT('', (10., 0., 50.));
#180 = ADVANCED_FACE('', (#181), #195, .T.);
#181 = FACE_OUTER_BOUND('', #182, .T.);
#182 = EDGE_LOOP('', (#183, #188, #189, #194));
#183 = ORIENTED_EDGE('', *, *, #184, .T.);
#184 = EDGE_CURVE('', #157, #93, #185, .T.);
#185 = B_SPLINE_CURVE_WITH_KNOTS('', 1, (#186, #187), .UNSPECIFIED., .F., .U., (2, 2), (0., 8.), .UNSPECIFIED.);
#186 = CARTESIAN_POINT('', (0., 0., 0.));
#187 = CARTESIAN_POINT('', (0., 8., 0.));
#188 = ORIENTED_EDGE('', *, *, #115, .T.);
#189 = ORIENTED_EDGE('', *, *, #190, .F.);
#190 = EDGE_CURVE('', #164, #109, #191, .T.);
#191 = B_SPLINE_CURVE_WITH_KNOTS('', 1, (#192, #193), .UNSPECIFIED., .F., .U., (2, 2), (0., 8.), .UNSPECIFIED.);
#192 = CARTESIAN_POINT('', (10., 0., 0.));
#193 = CARTESIAN_POINT('', (10., 8., 0.));
#194 = ORIENTED_EDGE('', *, *, #163, .F.);
#195 = B_SPLINE_SURFACE_WITH_KNOTS('', 1, 1, ((#196, #197), (#198, #199)), .UNSPECIFIED., .F., .F., .U., (2, 2), (2, 2), (0., 8.), (0., 10.), .UNSPECIFIED.);
#196 = CARTESIAN_POINT('', (0., 0., 0.));
#197 = CARTESIAN_POINT('', (10., 0., 0.));
#198 = CARTESIAN_POINT('', (0., 8., 0.));
#199 = CARTESIAN_POINT('', (10., 8., 0.));
#200 = ADVANCED_FACE('', (#201), #207, .T.);
#201 = FACE_OUTER_BOUND('', #202, .T.);
#202 = EDGE_LOOP('', (#203, #204, #205, #206));
#203 = ORIENTED_EDGE('', *, *, #170, .F.);
#204 = ORIENTED_EDGE('', *, *, #190, .T.);
#205 = ORIENTED_EDGE('', *, *, #108, .T.);
#206 = ORIENTED_EDGE('', *, *, #142, .F.);
#207 = B_SPLINE_SURFACE_WITH_KNOTS('', 1, 1, ((#208, #209), (#210, #211)), .UNSPECIFIED., .F., .F., .U., (2, 2), (2, 2), (0., 8.), (0., 50.), .UNSPECIFIED.);
#208 = CARTESIAN_POINT('', (10., 0., 0.));
#209 = CARTESIAN_POINT('', (10., 0., 50.));
#210 = CARTESIAN_POINT('', (10., 8., 0.));
#211 = CARTESIAN_POINT('', (10., 8., 50.));
#212 = ADVANCED_FACE('', (#213), #219, .T.);
#213 = FACE_OUTER_BOUND('', #214, .T.);
#214 = EDGE_LOOP('', (#215, #216, #217, #218));
#215 = ORIENTED_EDGE('', *, *, #156, .T.);
#216 = ORIENTED_EDGE('', *, *, #128, .T.);
#217 = ORIENTED_EDGE('', *, *, #92, .F.);
#218 = ORIENTED_EDGE('', *, *, #184, .F.);
#219 = B_SPLINE_SURFACE_WITH_KNOTS('', 1, 1, ((#220, #221), (#222, #223)), .UNSPECIFIED., .F., .F., .U., (2, 2), (2, 2), (0., 50.), (0., 8.), .UNSPECIFIED.);
#220 = CARTESIAN_POINT('', (0., 0., 0.));
#221 = CARTESIAN_POINT('', (0., 8., 0.));
#222 = CARTESIAN_POINT('', (0., 0., 50.));
#223 = CARTESIAN_POINT('', (0., 8., 50.));
#224 = PRESENTATION_STYLE_ASSIGNMENT((#225));
#225 = SURFACE_STYLE_USAGE(.POSITIVE., #226);
#226 = SURFACE_SIDE_STYLE('', (#227));
#227 = SURFACE_STYLE_FILL_AREA(#228);
#228 = FILL_AREA_STYLE('', (#229));
#229 = FILL_AREA_STYLE_COLOUR('', #230);
#230 = COLOUR_RGB('', 0.50196078431373, 0.50196078431373, 0.50196078431373);
#231 = STYLED_ITEM('', (#224), #86);
#232 = MANIFOLD_SOLID_BREP('CP_brepedge_1', #233);
#233 = CLOSED_SHELL('', (#234, #270, #298, #326, #346, #358));
#234 = ADVANCED_FACE('', (#235), #265, .T.);
#235 = FACE_OUTER_BOUND('', #236, .T.);
#236 = EDGE_LOOP('', (#237, #246, #253, #260));
#237 = ORIENTED_EDGE('', *, *, #238, .T.);
#238 = EDGE_CURVE('', #239, #241, #243, .T.);
#239 = VERTEX_POINT('', #240);
#240 = CARTESIAN_POINT('', (-3.17819712001244, -2.49521667719621, 0.));
#241 = VERTEX_POINT('', #242);
#242 = CARTESIAN_POINT('', (-3.17819712001244, -2.49521667719621, 50.));
#243 = B_SPLINE_CURVE_WITH_KNOTS('', 1, (#244, #245), .UNSPECIFIED., .F., .U., (2, 2), (0., 50.), .UNSPECIFIED.);
#244 = CARTESIAN_POINT('', (-3.17819712001244, -2.49521667719621, 0.));
#245 = CARTESIAN_POINT('', (-3.17819712001244, -2.49521667719621, 50.));
#246 = ORIENTED_EDGE('', *, *, #247, .T.);
#247 = EDGE_CURVE('', #241, #248, #250, .T.);
#248 = VERTEX_POINT('', #249);
#249 = CARTESIAN_POINT('', (1.82178167271302, 6.16504960463922, 50.));
#250 = B_SPLINE_CURVE_WITH_KNOTS('', 1, (#251, #252), .UNSPECIFIED., .F., .U., (2, 2), (0., 10.), .UNSPECIFIED.);
#251 = CARTESIAN_POINT('', (-3.17819712001244, -2.49521667719621, 50.));
#252 = CARTESIAN_POINT('', (1.82178167271302, 6.16504960463922, 50.));
#253 = ORIENTED_EDGE('', *, *, #254, .F.);
#254 = EDGE_CURVE('', #255, #248, #257, .T.);
#255 = VERTEX_POINT('', #256);
#256 = CARTESIAN_POINT('', (1.82178167271302, 6.16504960463922, 0.));
#257 = B_SPLINE_CURVE_WITH_KNOTS('', 1, (#258, #259), .UNSPECIFIED., .F., .U., (2, 2), (0., 50.), .UNSPECIFIED.);
#258 = CARTESIAN_POINT('', (1.82178167271302, 6.16504960463922, 0.));
#259 = CARTESIAN_POINT('', (1.82178167271302, 6.16504960463922, 50.));
#260 = ORIENTED_EDGE('', *, *, #261, .F.);
#261 = EDGE_CURVE('', #239, #255, #262, .T.);
#262 = B_SPLINE_CURVE_WITH_KNOTS('', 1, (#263, #264), .UNSPECIFIED., .F., .U., (2, 2), (0., 10.), .UNSPECIFIED.);
#263 = CARTESIAN_POINT('', (-3.17819712001244, -2.49521667719621, 0.));
#264 = CARTESIAN_POINT('', (1.82178167271302, 6.16504960463922, 0.));
#265 = B_SPLINE_SURFACE_WITH_KNOTS('', 1, 1, ((#266, #267), (#268, #269)), .UNSPECIFIED., .F., .F., .U., (2, 2), (2, 2), (0., 50.), (0., 10.), .UNSPECIFIED.);
#266 = CARTESIAN_POINT('', (-3.17819712001244, -2.49521667719621, 0.));
#267 = CARTESIAN_POINT('', (1.82178167271302, 6.16504960463922, 0.));
#268 = CARTESIAN_POINT('', (-3.17819712001244, -2.49521667719621, 50.));
#269 = CARTESIAN_POINT('', (1.82178167271302, 6.16504960463922, 50.));
#270 = ADVANCED_FACE('', (#271), #293, .T.);
#271 = FACE_OUTER_BOUND('', #272, .T.);
#272 = EDGE_LOOP('', (#273, #280, #287, #292));
#273 = ORIENTED_EDGE('', *, *, #274, .F.);
#274 = EDGE_CURVE('', #275, #241, #277, .T.);
#275 = VERTEX_POINT('', #276);
#276 = CARTESIAN_POINT('', (3.75001590545591, -6.49519971137657, 50.));
#277 = B_SPLINE_CURVE_WITH_KNOTS('', 1, (#278, #279), .UNSPECIFIED., .F., .U., (2, 2), (0., 8.), .UNSPECIFIED.);
#278 = CARTESIAN_POINT('', (3.75001590545591, -6.49519971137657, 50.));
#279 = CARTESIAN_POINT('', (-3.17819712001244, -2.49521667719621, 50.));
#280 = ORIENTED_EDGE('', *, *, #281, .T.);
#281 = EDGE_CURVE('', #275, #282, #284, .T.);
#282 = VERTEX_POINT('', #283);
#283 = CARTESIAN_POINT('', (8.74999469818136, 2.16506657045886, 50.));
#284 = B_SPLINE_CURVE_WITH_KNOTS('', 1, (#285, #286), .UNSPECIFIED., .F., .U., (2, 2), (0., 10.), .UNSPECIFIED.);
#285 = CARTESIAN_POINT('', (3.75001590545591, -6.49519971137657, 50.));
#286 = CARTESIAN_POINT('', (8.74999469818136, 2.16506657045886, 50.));
#287 = ORIENTED_EDGE('', *, *, #288, .T.);
#288 = EDGE_CURVE('', #282, #248, #289, .T.);
#289 = B_SPLINE_CURVE_WITH_KNOTS('', 1, (#290, #291), .UNSPECIFIED., .F., .U., (2, 2), (0., 8.), .UNSPECIFIED.);
#290 = CARTESIAN_POINT('', (8.74999469818136, 2.16506657045886, 50.));
#291 = CARTESIAN_POINT('', (1.82178167271302, 6.16504960463922, 50.));
#292 = ORIENTED_EDGE('', *, *, #247, .F.);
#293 = B_SPLINE_SURFACE_WITH_KNOTS('', 1, 1, ((#294, #295), (#296, #297)), .UNSPECIFIED., .F., .F., .U., (2, 2), (2, 2), (0., 10.), (0., 8.), .UNSPECIFIED.);
#294 = CARTESIAN_POINT('', (3.75001590545591, -6.49519971137657, 50.));
#295 = CARTESIAN_POINT('', (-3.17819712001244, -2.49521667719621, 50.));
#296 = CARTESIAN_POINT('', (8.74999469818136, 2.16506657045886, 50.));
#297 = CARTESIAN_POINT('', (1.82178167271302, 6.16504960463922, 50.));
#298 = ADVANCED_FACE('', (#299), #321, .T.);
#299 = FACE_OUTER_BOUND('', #300, .T.);
#300 = EDGE_LOOP('', (#301, #308, #315, #320));
#301 = ORIENTED_EDGE('', *, *, #302, .F.);
#302 = EDGE_CURVE('', #303, #275, #305, .T.);
#303 = VERTEX_POINT('', #304);
#304 = CARTESIAN_POINT('', (3.75001590545591, -6.49519971137657, 0.));
#305 = B_SPLINE_CURVE_WITH_KNOTS('', 1, (#306, #307), .UNSPECIFIED., .F., .U., (2, 2), (0., 50.), .UNSPECIFIED.);
#306 = CARTESIAN_POINT('', (3.75001590545591, -6.49519971137657, 0.));
#307 = CARTESIAN_POINT('', (3.75001590545591, -6.49519971137657, 50.));
#308 = ORIENTED_EDGE('', *, *, #309, .T.);
#309 = EDGE_CURVE('', #303, #310, #312, .T.);
#310 = VERTEX_POINT('', #311);
#311 = CARTESIAN_POINT('', (8.74999469818136, 2.16506657045886, 0.));
#312 = B_SPLINE_CURVE_WITH_KNOTS('', 1, (#313, #314), .UNSPECIFIED., .F., .U., (2, 2), (0., 10.), .UNSPECIFIED.);
#313 = CARTESIAN_POINT('', (3.75001590545591, -6.49519971137657, 0.));
#314 = CARTESIAN_POINT('', (8.74999469818136, 2.16506657045886, 0.));
#315 = ORIENTED_EDGE('', *, *, #316, .T.);
#316 = EDGE_CURVE('', #310, #282, #317, .T.);
#317 = B_SPLINE_CURVE_WITH_KNOTS('', 1, (#318, #319), .UNSPECIFIED., .F., .U., (2, 2), (0., 50.), .UNSPECIFIED.);
#318 = CARTESIAN_POINT('', (8.74999469818136, 2.16506657045886, 0.));
#319 = CARTESIAN_POINT('', (8.74999469818136, 2.16506657045886, 50.));
#320 = ORIENTED_EDGE('', *, *, #281, .F.);
#321 = B_SPLINE_SURFACE_WITH_KNOTS('', 1, 1, ((#322, #323), (#324, #325)), .UNSPECIFIED., .F., .F., .U., (2, 2), (2, 2), (0., 10.), (0., 50.), .UNSPECIFIED.);
#322 = CARTESIAN_POINT('', (3.75001590545591, -6.49519971137657, 0.));
#323 = CARTESIAN_POINT('', (3.75001590545591, -6.49519971137657, 50.));
#324 = CARTESIAN_POINT('', (8.74999469818136, 2.16506657045886, 0.));
#325 = CARTESIAN_POINT('', (8.74999469818136, 2.16506657045886, 50.));
#326 = ADVANCED_FACE('', (#327), #341, .T.);
#327 = FACE_OUTER_BOUND('', #328, .T.);
#328 = EDGE_LOOP('', (#329, #334, #335, #340));
#329 = ORIENTED_EDGE('', *, *, #330, .T.);
#330 = EDGE_CURVE('', #303, #239, #331, .T.);
#331 = B_SPLINE_CURVE_WITH_KNOTS('', 1, (#332, #333), .UNSPECIFIED., .F., .U., (2, 2), (0., 8.), .UNSPECIFIED.);
#332 = CARTESIAN_POINT('', (3.75001590545591, -6.49519971137657, 0.));
#333 = CARTESIAN_POINT('', (-3.17819712001244, -2.49521667719621, 0.));
#334 = ORIENTED_EDGE('', *, *, #261, .T.);
#335 = ORIENTED_EDGE('', *, *, #336, .F.);
#336 = EDGE_CURVE('', #310, #255, #337, .T.);
#337 = B_SPLINE_CURVE_WITH_KNOTS('', 1, (#338, #339), .UNSPECIFIED., .F., .U., (2, 2), (0., 8.), .UNSPECIFIED.);
#338 = CARTESIAN_POINT('', (8.74999469818136, 2.16506657045886, 0.));
#339 = CARTESIAN_POINT('', (1.82178167271302, 6.16504960463922, 0.));
#340 = ORIENTED_EDGE('', *, *, #309, .F.);
#341 = B_SPLINE_SURFACE_WITH_KNOTS('', 1, 1, ((#342, #343), (#344, #345)), .UNSPECIFIED., .F., .F., .U., (2, 2), (2, 2), (0., 8.), (0., 10.), .UNSPECIFIED.);
#342 = CARTESIAN_POINT('', (3.75001590545591, -6.49519971137657, 0.));
#343 = CARTESIAN_POINT('', (8.74999469818136, 2.16506657045886, 0.));
#344 = CARTESIAN_POINT('', (-3.17819712001244, -2.49521667719621, 0.));
#345 = CARTESIAN_POINT('', (1.82178167271302, 6.16504960463922, 0.));
#346 = ADVANCED_FACE('', (#347), #353, .T.);
#347 = FACE_OUTER_BOUND('', #348, .T.);
#348 = EDGE_LOOP('', (#349, #350, #351, #352));
#349 = ORIENTED_EDGE('', *, *, #316, .F.);
#350 = ORIENTED_EDGE('', *, *, #336, .T.);
#351 = ORIENTED_EDGE('', *, *, #254, .T.);
#352 = ORIENTED_EDGE('', *, *, #288, .F.);
#353 = B_SPLINE_SURFACE_WITH_KNOTS('', 1, 1, ((#354, #355), (#356, #357)), .UNSPECIFIED., .F., .F., .U., (2, 2), (2, 2), (0., 8.), (0., 50.), .UNSPECIFIED.);
#354 = CARTESIAN_POINT('', (8.74999469818136, 2.16506657045886, 0.));
#355 = CARTESIAN_POINT('', (8.74999469818136, 2.16506657045886, 50.));
#356 = CARTESIAN_POINT('', (1.82178167271302, 6.16504960463922, 0.));
#357 = CARTESIAN_POINT('', (1.82178167271302, 6.16504960463922, 50.));
#358 = ADVANCED_FACE('', (#359), #365, .T.);
#359 = FACE_OUTER_BOUND('', #360, .T.);
#360 = EDGE_LOOP('', (#361, #362, #363, #364));
#361 = ORIENTED_EDGE('', *, *, #302, .T.);
#362 = ORIENTED_EDGE('', *, *, #274, .T.);
#363 = ORIENTED_EDGE('', *, *, #238, .F.);
#364 = ORIENTED_EDGE('', *, *, #330, .F.);
#365 = B_SPLINE_SURFACE_WITH_KNOTS('', 1, 1, ((#366, #367), (#368, #369)), .UNSPECIFIED., .F., .F., .U., (2, 2), (2, 2), (0., 50.), (0., 8.), .UNSPECIFIED.);
#366 = CARTESIAN_POINT('', (3.75001590545591, -6.49519971137657, 0.));
#367 = CARTESIAN_POINT('', (-3.17819712001244, -2.49521667719621, 0.));
#368 = CARTESIAN_POINT('', (3.75001590545591, -6.49519971137657, 50.));
#369 = CARTESIAN_POINT('', (-3.17819712001244, -2.49521667719621, 50.));
#370 = PRESENTATION_STYLE_ASSIGNMENT((#371));
#371 = SURFACE_STYLE_USAGE(.POSITIVE., #372);
#372 = SURFACE_SIDE_STYLE('', (#373));
#373 = SURFACE_STYLE_FILL_AREA(#374);
#374 = FILL_AREA_STYLE('', (#375));
#375 = FILL_AREA_STYLE_COLOUR('', #376);
#376 = COLOUR_RGB('', 0.50196078431373, 0.50196078431373, 0.50196078431373);
#377 = STYLED_ITEM('', (#370), #232);
#378 = MANIFOLD_SOLID_BREP('CP_brepedge_2', #379);
#379 = CLOSED_SHELL('', (#380, #416, #444, #472, #492, #504));
#380 = ADVANCED_FACE('', (#381), #411, .T.);
#381 = FACE_OUTER_BOUND('', #382, .T.);
#382 = EDGE_LOOP('', (#383, #392, #399, #406));
#383 = ORIENTED_EDGE('', *, *, #384, .T.);
#384 = EDGE_CURVE('', #385, #387, #389, .T.);
#385 = VERTEX_POINT('', #386);
#386 = CARTESIAN_POINT('', (4.32184817107915, -10.4952060938472, 0.));
#387 = VERTEX_POINT('', #388);
#388 = CARTESIAN_POINT('', (4.32184817107915, -10.4952060938472, 50.));
#389 = B_SPLINE_CURVE_WITH_KNOTS('', 1, (#390, #391), .UNSPECIFIED., .F., .U., (2, 2), (0., 50.), .UNSPECIFIED.);
#390 = CARTESIAN_POINT('', (4.32184817107915, -10.4952060938472, 0.));
#391 = CARTESIAN_POINT('', (4.32184817107915, -10.4952060938472, 50.));
#392 = ORIENTED_EDGE('', *, *, #393, .T.);
#393 = EDGE_CURVE('', #387, #394, #396, .T.);
#394 = VERTEX_POINT('', #395);
#395 = CARTESIAN_POINT('', (-0.678194243379985, -1.83497654414068, 50.));
#396 = B_SPLINE_CURVE_WITH_KNOTS('', 1, (#397, #398), .UNSPECIFIED., .F., .U., (2, 2), (0., 10.), .UNSPECIFIED.);
#397 = CARTESIAN_POINT('', (4.32184817107915, -10.4952060938472, 50.));
#398 = CARTESIAN_POINT('', (-0.678194243379984, -1.83497654414068, 50.));
#399 = ORIENTED_EDGE('', *, *, #400, .F.);
#400 = EDGE_CURVE('', #401, #394, #403, .T.);
#401 = VERTEX_POINT('', #402);
#402 = CARTESIAN_POINT('', (-0.678194243379985, -1.83497654414068, 0.));
#403 = B_SPLINE_CURVE_WITH_KNOTS('', 1, (#404, #405), .UNSPECIFIED., .F., .U., (2, 2), (0., 50.), .UNSPECIFIED.);
#404 = CARTESIAN_POINT('', (-0.678194243379984, -1.83497654414068, 0.));
#405 = CARTESIAN_POINT('', (-0.678194243379984, -1.83497654414068, 50.));
#406 = ORIENTED_EDGE('', *, *, #407, .F.);
#407 = EDGE_CURVE('', #385, #401, #408, .T.);
#408 = B_SPLINE_CURVE_WITH_KNOTS('', 1, (#409, #410), .UNSPECIFIED., .F., .U., (2, 2), (0., 10.), .UNSPECIFIED.);
#409 = CARTESIAN_POINT('', (4.32184817107915, -10.4952060938472, 0.));
#410 = CARTESIAN_POINT('', (-0.678194243379984, -1.83497654414068, 0.));
#411 = B_SPLINE_SURFACE_WITH_KNOTS('', 1, 1, ((#412, #413), (#414, #415)), .UNSPECIFIED., .F., .F., .U., (2, 2), (2, 2), (0., 50.), (0., 10.), .UNSPECIFIED.);
#412 = CARTESIAN_POINT('', (4.32184817107915, -10.4952060938472, 0.));
#413 = CARTESIAN_POINT('', (-0.678194243379984, -1.83497654414068, 0.));
#414 = CARTESIAN_POINT('', (4.32184817107915, -10.4952060938472, 50.));
#415 = CARTESIAN_POINT('', (-0.678194243379984, -1.83497654414068, 50.));
#416 = ADVANCED_FACE('', (#417), #439, .T.);
#417 = FACE_OUTER_BOUND('', #418, .T.);
#418 = EDGE_LOOP('', (#419, #426, #433, #438));
#419 = ORIENTED_EDGE('', *, *, #420, .F.);
#420 = EDGE_CURVE('', #421, #387, #423, .T.);
#421 = VERTEX_POINT('', #422);
#422 = CARTESIAN_POINT('', (11.2500318108444, -6.49517216227988, 50.));
#423 = B_SPLINE_CURVE_WITH_KNOTS('', 1, (#424, #425), .UNSPECIFIED., .F., .U., (2, 2), (0., 8.), .UNSPECIFIED.);
#424 = CARTESIAN_POINT('', (11.2500318108444, -6.49517216227988, 50.));
#425 = CARTESIAN_POINT('', (4.32184817107915, -10.4952060938472, 50.));
#426 = ORIENTED_EDGE('', *, *, #427, .T.);
#427 = EDGE_CURVE('', #421, #428, #430, .T.);
#428 = VERTEX_POINT('', #429);
#429 = CARTESIAN_POINT('', (6.24998939638522, 2.16505738742663, 50.));
#430 = B_SPLINE_CURVE_WITH_KNOTS('', 1, (#431, #432), .UNSPECIFIED., .F., .U., (2, 2), (0., 10.), .UNSPECIFIED.);
#431 = CARTESIAN_POINT('', (11.2500318108444, -6.49517216227988, 50.));
#432 = CARTESIAN_POINT('', (6.24998939638522, 2.16505738742662, 50.));
#433 = ORIENTED_EDGE('', *, *, #434, .T.);
#434 = EDGE_CURVE('', #428, #394, #435, .T.);
#435 = B_SPLINE_CURVE_WITH_KNOTS('', 1, (#436, #437), .UNSPECIFIED., .F., .U., (2, 2), (0., 8.), .UNSPECIFIED.);
#436 = CARTESIAN_POINT('', (6.24998939638522, 2.16505738742662, 50.));
#437 = CARTESIAN_POINT('', (-0.678194243379984, -1.83497654414068, 50.));
#438 = ORIENTED_EDGE('', *, *, #393, .F.);
#439 = B_SPLINE_SURFACE_WITH_KNOTS('', 1, 1, ((#440, #441), (#442, #443)), .UNSPECIFIED., .F., .F., .U., (2, 2), (2, 2), (0., 10.), (0., 8.), .UNSPECIFIED.);
#440 = CARTESIAN_POINT('', (11.2500318108444, -6.49517216227988, 50.));
#441 = CARTESIAN_POINT('', (4.32184817107915, -10.4952060938472, 50.));
#442 = CARTESIAN_POINT('', (6.24998939638522, 2.16505738742662, 50.));
#443 = CARTESIAN_POINT('', (-0.678194243379984, -1.83497654414068, 50.));
#444 = ADVANCED_FACE('', (#445), #467, .T.);
#445 = FACE_OUTER_BOUND('', #446, .T.);
#446 = EDGE_LOOP('', (#447, #454, #461, #466));
#447 = ORIENTED_EDGE('', *, *, #448, .F.);
#448 = EDGE_CURVE('', #449, #421, #451, .T.);
#449 = VERTEX_POINT('', #450);
#450 = CARTESIAN_POINT('', (11.2500318108444, -6.49517216227988, 0.));
#451 = B_SPLINE_CURVE_WITH_KNOTS('', 1, (#452, #453), .UNSPECIFIED., .F., .U., (2, 2), (0., 50.), .UNSPECIFIED.);
#452 = CARTESIAN_POINT('', (11.2500318108444, -6.49517216227988, 0.));
#453 = CARTESIAN_POINT('', (11.2500318108444, -6.49517216227988, 50.));
#454 = ORIENTED_EDGE('', *, *, #455, .T.);
#455 = EDGE_CURVE('', #449, #456, #458, .T.);
#456 = VERTEX_POINT('', #457);
#457 = CARTESIAN_POINT('', (6.24998939638522, 2.16505738742663, 0.));
#458 = B_SPLINE_CURVE_WITH_KNOTS('', 1, (#459, #460), .UNSPECIFIED., .F., .U., (2, 2), (0., 10.), .UNSPECIFIED.);
#459 = CARTESIAN_POINT('', (11.2500318108444, -6.49517216227988, 0.));
#460 = CARTESIAN_POINT('', (6.24998939638522, 2.16505738742662, 0.));
#461 = ORIENTED_EDGE('', *, *, #462, .T.);
#462 = EDGE_CURVE('', #456, #428, #463, .T.);
#463 = B_SPLINE_CURVE_WITH_KNOTS('', 1, (#464, #465), .UNSPECIFIED., .F., .U., (2, 2), (0., 50.), .UNSPECIFIED.);
#464 = CARTESIAN_POINT('', (6.24998939638522, 2.16505738742662, 0.));
#465 = CARTESIAN_POINT('', (6.24998939638522, 2.16505738742662, 50.));
#466 = ORIENTED_EDGE('', *, *, #427, .F.);
#467 = B_SPLINE_SURFACE_WITH_KNOTS('', 1, 1, ((#468, #469), (#470, #471)), .UNSPECIFIED., .F., .F., .U., (2, 2), (2, 2), (0., 10.), (0., 50.), .UNSPECIFIED.);
#468 = CARTESIAN_POINT('', (11.2500318108444, -6.49517216227988, 0.));
#469 = CARTESIAN_POINT('', (11.2500318108444, -6.49517216227988, 50.));
#470 = CARTESIAN_POINT('', (6.24998939638522, 2.16505738742662, 0.));
#471 = CARTESIAN_POINT('', (6.24998939638522, 2.16505738742662, 50.));
#472 = ADVANCED_FACE('', (#473), #487, .T.);
#473 = FACE_OUTER_BOUND('', #474, .T.);
#474 = EDGE_LOOP('', (#475, #480, #481, #486));
#475 = ORIENTED_EDGE('', *, *, #476, .T.);
#476 = EDGE_CURVE('', #449, #385, #477, .T.);
#477 = B_SPLINE_CURVE_WITH_KNOTS('', 1, (#478, #479), .UNSPECIFIED., .F., .U., (2, 2), (0., 8.), .UNSPECIFIED.);
#478 = CARTESIAN_POINT('', (11.2500318108444, -6.49517216227988, 0.));
#479 = CARTESIAN_POINT('', (4.32184817107915, -10.4952060938472, 0.));
#480 = ORIENTED_EDGE('', *, *, #407, .T.);
#481 = ORIENTED_EDGE('', *, *, #482, .F.);
#482 = EDGE_CURVE('', #456, #401, #483, .T.);
#483 = B_SPLINE_CURVE_WITH_KNOTS('', 1, (#484, #485), .UNSPECIFIED., .F., .U., (2, 2), (0., 8.), .UNSPECIFIED.);
#484 = CARTESIAN_POINT('', (6.24998939638522, 2.16505738742662, 0.));
#485 = CARTESIAN_POINT('', (-0.678194243379984, -1.83497654414068, 0.));
#486 = ORIENTED_EDGE('', *, *, #455, .F.);
#487 = B_SPLINE_SURFACE_WITH_KNOTS('', 1, 1, ((#488, #489), (#490, #491)), .UNSPECIFIED., .F., .F., .U., (2, 2), (2, 2), (0., 8.), (0., 10.), .UNSPECIFIED.);
#488 = CARTESIAN_POINT('', (11.2500318108444, -6.49517216227988, 0.));
#489 = CARTESIAN_POINT('', (6.24998939638522, 2.16505738742662, 0.));
#490 = CARTESIAN_POINT('', (4.32184817107915, -10.4952060938472, 0.));
#491 = CARTESIAN_POINT('', (-0.678194243379984, -1.83497654414068, 0.));
#492 = ADVANCED_FACE('', (#493), #499, .T.);
#493 = FACE_OUTER_BOUND('', #494, .T.);
#494 = EDGE_LOOP('', (#495, #496, #497, #498));
#495 = ORIENTED_EDGE('', *, *, #462, .F.);
#496 = ORIENTED_EDGE('', *, *, #482, .T.);
#497 = ORIENTED_EDGE('', *, *, #400, .T.);
#498 = ORIENTED_EDGE('', *, *, #434, .F.);
#499 = B_SPLINE_SURFACE_WITH_KNOTS('', 1, 1, ((#500, #501), (#502, #503)), .UNSPECIFIED., .F., .F., .U., (2, 2), (2, 2), (0., 8.), (0., 50.), .UNSPECIFIED.);
#500 = CARTESIAN_POINT('', (6.24998939638522, 2.16505738742662, 0.));
#501 = CARTESIAN_POINT('', (6.24998939638522, 2.16505738742662, 50.));
#502 = CARTESIAN_POINT('', (-0.678194243379984, -1.83497654414068, 0.));
#503 = CARTESIAN_POINT('', (-0.678194243379984, -1.83497654414068, 50.));
#504 = ADVANCED_FACE('', (#505), #511, .T.);
#505 = FACE_OUTER_BOUND('', #506, .T.);
#506 = EDGE_LOOP('', (#507, #508, #509, #510));
#507 = ORIENTED_EDGE('', *, *, #448, .T.);
#508 = ORIENTED_EDGE('', *, *, #420, .T.);
#509 = ORIENTED_EDGE('', *, *, #384, .F.);
#510 = ORIENTED_EDGE('', *, *, #476, .F.);
#511 = B_SPLINE_SURFACE_WITH_KNOTS('', 1, 1, ((#512, #513), (#514, #515)), .UNSPECIFIED., .F., .F., .U., (2, 2), (2, 2), (0., 50.), (0., 8.), .UNSPECIFIED.);
#512 = CARTESIAN_POINT('', (11.2500318108444, -6.49517216227988, 0.));
#513 = CARTESIAN_POINT('', (4.32184817107915, -10.4952060938472, 0.));
#514 = CARTESIAN_POINT('', (11.2500318108444, -6.49517216227988, 50.));
#515 = CARTESIAN_POINT('', (4.32184817107915, -10.4952060938472, 50.));
#516 = PRESENTATION_STYLE_ASSIGNMENT((#517));
#517 = SURFACE_STYLE_USAGE(.POSITIVE., #518);
#518 = SURFACE_SIDE_STYLE('', (#519));
#519 = SURFACE_STYLE_FILL_AREA(#520);
#520 = FILL_AREA_STYLE('', (#521));
#521 = FILL_AREA_STYLE_COLOUR('', #522);
#522 = COLOUR_RGB('', 0.50196078431373, 0.50196078431373, 0.50196078431373);
#523 = STYLED_ITEM('', (#516), #378);
#524 = MANIFOLD_SOLID_BREP('CP_brepedge_3', #525);
#525 = CLOSED_SHELL('', (#526, #562, #590, #618, #638, #650));
#526 = ADVANCED_FACE('', (#527), #557, .T.);
#527 = FACE_OUTER_BOUND('', #528, .T.);
#528 = EDGE_LOOP('', (#529, #538, #545, #552));
#529 = ORIENTED_EDGE('', *, *, #530, .T.);
#530 = EDGE_CURVE('', #531, #533, #535, .T.);
#531 = VERTEX_POINT('', #532);
#532 = CARTESIAN_POINT('', (15.0000587710793, -7.99994490170757, 0.));
#533 = VERTEX_POINT('', #534);
#534 = CARTESIAN_POINT('', (15.0000587710793, -7.99994490170757, 50.));
#535 = B_SPLINE_CURVE_WITH_KNOTS('', 1, (#536, #537), .UNSPECIFIED., .F., .U., (2, 2), (0., 50.), .UNSPECIFIED.);
#536 = CARTESIAN_POINT('', (15.0000587710793, -7.99994490170757, 0.));
#537 = CARTESIAN_POINT('', (15.0000587710793, -7.99994490170757, 50.));
#538 = ORIENTED_EDGE('', *, *, #539, .T.);
#539 = EDGE_CURVE('', #533, #540, #542, .T.);
#540 = VERTEX_POINT('', #541);
#541 = CARTESIAN_POINT('', (5.00005877134911, -8.00001836580964, 50.));
#542 = B_SPLINE_CURVE_WITH_KNOTS('', 1, (#543, #544), .UNSPECIFIED., .F., .U., (2, 2), (0., 10.), .UNSPECIFIED.);
#543 = CARTESIAN_POINT('', (15.0000587710793, -7.99994490170757, 50.));
#544 = CARTESIAN_POINT('', (5.00005877134911, -8.00001836580964, 50.));
#545 = ORIENTED_EDGE('', *, *, #546, .F.);
#546 = EDGE_CURVE('', #547, #540, #549, .T.);
#547 = VERTEX_POINT('', #548);
#548 = CARTESIAN_POINT('', (5.00005877134911, -8.00001836580964, 0.));
#549 = B_SPLINE_CURVE_WITH_KNOTS('', 1, (#550, #551), .UNSPECIFIED., .F., .U., (2, 2), (0., 50.), .UNSPECIFIED.);
#550 = CARTESIAN_POINT('', (5.00005877134911, -8.00001836580964, 0.));
#551 = CARTESIAN_POINT('', (5.00005877134911, -8.00001836580964, 50.));
#552 = ORIENTED_EDGE('', *, *, #553, .F.);
#553 = EDGE_CURVE('', #531, #547, #554, .T.);
#554 = B_SPLINE_CURVE_WITH_KNOTS('', 1, (#555, #556), .UNSPECIFIED., .F., .U., (2, 2), (0., 10.), .UNSPECIFIED.);
#555 = CARTESIAN_POINT('', (15.0000587710793, -7.99994490170757, 0.));
#556 = CARTESIAN_POINT('', (5.00005877134911, -8.00001836580964, 0.));
#557 = B_SPLINE_SURFACE_WITH_KNOTS('', 1, 1, ((#558, #559), (#560, #561)), .UNSPECIFIED., .F., .F., .U., (2, 2), (2, 2), (0., 50.), (0., 10.), .UNSPECIFIED.);
#558 = CARTESIAN_POINT('', (15.0000587710793, -7.99994490170757, 0.));
#559 = CARTESIAN_POINT('', (5.00005877134911, -8.00001836580964, 0.));
#560 = CARTESIAN_POINT('', (15.0000587710793, -7.99994490170757, 50.));
#561 = CARTESIAN_POINT('', (5.00005877134911, -8.00001836580964, 50.));
#562 = ADVANCED_FACE('', (#563), #585, .T.);
#563 = FACE_OUTER_BOUND('', #564, .T.);
#564 = EDGE_LOOP('', (#565, #572, #579, #584));
#565 = ORIENTED_EDGE('', *, *, #566, .F.);
#566 = EDGE_CURVE('', #567, #533, #569, .T.);
#567 = VERTEX_POINT('', #568);
#568 = CARTESIAN_POINT('', (14.9999999997976, 5.50980765464962E-5, 50.));
#569 = B_SPLINE_CURVE_WITH_KNOTS('', 1, (#570, #571), .UNSPECIFIED., .F., .U., (2, 2), (0., 8.), .UNSPECIFIED.);
#570 = CARTESIAN_POINT('', (14.9999999997976, 5.50980765464962E-5, 50.));
#571 = CARTESIAN_POINT('', (15.0000587710793, -7.99994490170757, 50.));
#572 = ORIENTED_EDGE('', *, *, #573, .T.);
#573 = EDGE_CURVE('', #567, #574, #576, .T.);
#574 = VERTEX_POINT('', #575);
#575 = CARTESIAN_POINT('', (5.00000000006746, -1.83660255154987E-5, 50.));
#576 = B_SPLINE_CURVE_WITH_KNOTS('', 1, (#577, #578), .UNSPECIFIED., .F., .U., (2, 2), (0., 10.), .UNSPECIFIED.);
#577 = CARTESIAN_POINT('', (14.9999999997976, 5.50980765464962E-5, 50.));
#578 = CARTESIAN_POINT('', (5.00000000006746, -1.83660255154987E-5, 50.));
#579 = ORIENTED_EDGE('', *, *, #580, .T.);
#580 = EDGE_CURVE('', #574, #540, #581, .T.);
#581 = B_SPLINE_CURVE_WITH_KNOTS('', 1, (#582, #583), .UNSPECIFIED., .F., .U., (2, 2), (0., 8.), .UNSPECIFIED.);
#582 = CARTESIAN_POINT('', (5.00000000006746, -1.83660255154987E-5, 50.));
#583 = CARTESIAN_POINT('', (5.00005877134911, -8.00001836580964, 50.));
#584 = ORIENTED_EDGE('', *, *, #539, .F.);
#585 = B_SPLINE_SURFACE_WITH_KNOTS('', 1, 1, ((#586, #587), (#588, #589)), .UNSPECIFIED., .F., .F., .U., (2, 2), (2, 2), (0., 10.), (0., 8.), .UNSPECIFIED.);
#586 = CARTESIAN_POINT('', (14.9999999997976, 5.50980765464962E-5, 50.));
#587 = CARTESIAN_POINT('', (15.0000587710793, -7.99994490170757, 50.));
#588 = CARTESIAN_POINT('', (5.00000000006746, -1.83660255154987E-5, 50.));
#589 = CARTESIAN_POINT('', (5.00005877134911, -8.00001836580964, 50.));
#590 = ADVANCED_FACE('', (#591), #613, .T.);
#591 = FACE_OUTER_BOUND('', #592, .T.);
#592 = EDGE_LOOP('', (#593, #600, #607, #612));
#593 = ORIENTED_EDGE('', *, *, #594, .F.);
#594 = EDGE_CURVE('', #595, #567, #597, .T.);
#595 = VERTEX_POINT('', #596);
#596 = CARTESIAN_POINT('', (14.9999999997976, 5.50980765464962E-5, 0.));
#597 = B_SPLINE_CURVE_WITH_KNOTS('', 1, (#598, #599), .UNSPECIFIED., .F., .U., (2, 2), (0., 50.), .UNSPECIFIED.);
#598 = CARTESIAN_POINT('', (14.9999999997976, 5.50980765464962E-5, 0.));
#599 = CARTESIAN_POINT('', (14.9999999997976, 5.50980765464962E-5, 50.));
#600 = ORIENTED_EDGE('', *, *, #601, .T.);
#601 = EDGE_CURVE('', #595, #602, #604, .T.);
#602 = VERTEX_POINT('', #603);
#603 = CARTESIAN_POINT('', (5.00000000006746, -1.83660255154987E-5, 0.));
#604 = B_SPLINE_CURVE_WITH_KNOTS('', 1, (#605, #606), .UNSPECIFIED., .F., .U., (2, 2), (0., 10.), .UNSPECIFIED.);
#605 = CARTESIAN_POINT('', (14.9999999997976, 5.50980765464962E-5, 0.));
#606 = CARTESIAN_POINT('', (5.00000000006746, -1.83660255154987E-5, 0.));
#607 = ORIENTED_EDGE('', *, *, #608, .T.);
#608 = EDGE_CURVE('', #602, #574, #609, .T.);
#609 = B_SPLINE_CURVE_WITH_KNOTS('', 1, (#610, #611), .UNSPECIFIED., .F., .U., (2, 2), (0., 50.), .UNSPECIFIED.);
#610 = CARTESIAN_POINT('', (5.00000000006746, -1.83660255154987E-5, 0.));
#611 = CARTESIAN_POINT('', (5.00000000006746, -1.83660255154987E-5, 50.));
#612 = ORIENTED_EDGE('', *, *, #573, .F.);
#613 = B_SPLINE_SURFACE_WITH_KNOTS('', 1, 1, ((#614, #615), (#616, #617)), .UNSPECIFIED., .F., .F., .U., (2, 2), (2, 2), (0., 10.), (0., 50.), .UNSPECIFIED.);
#614 = CARTESIAN_POINT('', (14.9999999997976, 5.50980765464962E-5, 0.));
#615 = CARTESIAN_POINT('', (14.9999999997976, 5.50980765464962E-5, 50.));
#616 = CARTESIAN_POINT('', (5.00000000006746, -1.83660255154987E-5, 0.));
#617 = CARTESIAN_POINT('', (5.00000000006746, -1.83660255154987E-5, 50.));
#618 = ADVANCED_FACE('', (#619), #633, .T.);
#619 = FACE_OUTER_BOUND('', #620, .T.);
#620 = EDGE_LOOP('', (#621, #626, #627, #632));
#621 = ORIENTED_EDGE('', *, *, #622, .T.);
#622 = EDGE_CURVE('', #595, #531, #623, .T.);
#623 = B_SPLINE_CURVE_WITH_KNOTS('', 1, (#624, #625), .UNSPECIFIED., .F., .U., (2, 2), (0., 8.), .UNSPECIFIED.);
#624 = CARTESIAN_POINT('', (14.9999999997976, 5.50980765464962E-5, 0.));
#625 = CARTESIAN_POINT('', (15.0000587710793, -7.99994490170757, 0.));
#626 = ORIENTED_EDGE('', *, *, #553, .T.);
#627 = ORIENTED_EDGE('', *, *, #628, .F.);
#628 = EDGE_CURVE('', #602, #547, #629, .T.);
#629 = B_SPLINE_CURVE_WITH_KNOTS('', 1, (#630, #631), .UNSPECIFIED., .F., .U., (2, 2), (0., 8.), .UNSPECIFIED.);
#630 = CARTESIAN_POINT('', (5.00000000006746, -1.83660255154987E-5, 0.));
#631 = CARTESIAN_POINT('', (5.00005877134911, -8.00001836580964, 0.));
#632 = ORIENTED_EDGE('', *, *, #601, .F.);
#633 = B_SPLINE_SURFACE_WITH_KNOTS('', 1, 1, ((#634, #635), (#636, #637)), .UNSPECIFIED., .F., .F., .U., (2, 2), (2, 2), (0., 8.), (0., 10.), .UNSPECIFIED.);
#634 = CARTESIAN_POINT('', (14.9999999997976, 5.50980765464962E-5, 0.));
#635 = CARTESIAN_POINT('', (5.00000000006746, -1.83660255154987E-5, 0.));
#636 = CARTESIAN_POINT('', (15.0000587710793, -7.99994490170757, 0.));
#637 = CARTESIAN_POINT('', (5.00005877134911, -8.00001836580964, 0.));
#638 = ADVANCED_FACE('', (#639), #645, .T.);
#639 = FACE_OUTER_BOUND('', #640, .T.);
#640 = EDGE_LOOP('', (#641, #642, #643, #644));
#641 = ORIENTED_EDGE('', *, *, #608, .F.);
#642 = ORIENTED_EDGE('', *, *, #628, .T.);
#643 = ORIENTED_EDGE('', *, *, #546, .T.);
#644 = ORIENTED_EDGE('', *, *, #580, .F.);
#645 = B_SPLINE_SURFACE_WITH_KNOTS('', 1, 1, ((#646, #647), (#648, #649)), .UNSPECIFIED., .F., .F., .U., (2, 2), (2, 2), (0., 8.), (0., 50.), .UNSPECIFIED.);
#646 = CARTESIAN_POINT('', (5.00000000006746, -1.83660255154987E-5, 0.));
#647 = CARTESIAN_POINT('', (5.00000000006746, -1.83660255154987E-5, 50.));
#648 = CARTESIAN_POINT('', (5.00005877134911, -8.00001836580964, 0.));
#649 = CARTESIAN_POINT('', (5.00005877134911, -8.00001836580964, 50.));
#650 = ADVANCED_FACE('', (#651), #657, .T.);
#651 = FACE_OUTER_BOUND('', #652, .T.);
#652 = EDGE_LOOP('', (#653, #654, #655, #656));
#653 = ORIENTED_EDGE('', *, *, #594, .T.);
#654 = ORIENTED_EDGE('', *, *, #566, .T.);
#655 = ORIENTED_EDGE('', *, *, #530, .F.);
#656 = ORIENTED_EDGE('', *, *, #622, .F.);
#657 = B_SPLINE_SURFACE_WITH_KNOTS('', 1, 1, ((#658, #659), (#660, #661)), .UNSPECIFIED., .F., .F., .U., (2, 2), (2, 2), (0., 50.), (0., 8.), .UNSPECIFIED.);
#658 = CARTESIAN_POINT('', (14.9999999997976, 5.50980765464962E-5, 0.));
#659 = CARTESIAN_POINT('', (15.0000587710793, -7.99994490170757, 0.));
#660 = CARTESIAN_POINT('', (14.9999999997976, 5.50980765464962E-5, 50.));
#661 = CARTESIAN_POINT('', (15.0000587710793, -7.99994490170757, 50.));
#662 = PRESENTATION_STYLE_ASSIGNMENT((#663));
#663 = SURFACE_STYLE_USAGE(.POSITIVE., #664);
#664 = SURFACE_SIDE_STYLE('', (#665));
#665 = SURFACE_STYLE_FILL_AREA(#666);
#666 = FILL_AREA_STYLE('', (#667));
#667 = FILL_AREA_STYLE_COLOUR('', #668);
#668 = COLOUR_RGB('', 0.50196078431373, 0.50196078431373, 0.50196078431373);
#669 = STYLED_ITEM('', (#662), #524);
#670 = MANIFOLD_SOLID_BREP('CP_brepedge_4', #671);
#671 = CLOSED_SHELL('', (#672, #708, #736, #764, #784, #796));
#672 = ADVANCED_FACE('', (#673), #703, .T.);
#673 = FACE_OUTER_BOUND('', #674, .T.);
#674 = EDGE_LOOP('', (#675, #684, #691, #698));
#675 = ORIENTED_EDGE('', *, *, #676, .T.);
#676 = EDGE_CURVE('', #677, #679, #681, .T.);
#677 = VERTEX_POINT('', #678);
#678 = CARTESIAN_POINT('', (18.178178788839, 2.49529512354518, 0.));
#679 = VERTEX_POINT('', #680);
#680 = CARTESIAN_POINT('', (18.178178788839, 2.49529512354518, 50.));
#681 = B_SPLINE_CURVE_WITH_KNOTS('', 1, (#682, #683), .UNSPECIFIED., .F., .U., (2, 2), (0., 50.), .UNSPECIFIED.);
#682 = CARTESIAN_POINT('', (18.178178788839, 2.49529512354518, 0.));
#683 = CARTESIAN_POINT('', (18.178178788839, 2.49529512354518, 50.));
#684 = ORIENTED_EDGE('', *, *, #685, .T.);
#685 = EDGE_CURVE('', #679, #686, #688, .T.);
#686 = VERTEX_POINT('', #687);
#687 = CARTESIAN_POINT('', (13.1782636181171, -6.16500788995179, 50.));
#688 = B_SPLINE_CURVE_WITH_KNOTS('', 1, (#689, #690), .UNSPECIFIED., .F., .U., (2, 2), (0., 10.), .UNSPECIFIED.);
#689 = CARTESIAN_POINT('', (18.178178788839, 2.49529512354518, 50.));
#690 = CARTESIAN_POINT('', (13.1782636181171, -6.16500788995179, 50.));
#691 = ORIENTED_EDGE('', *, *, #692, .F.);
#692 = EDGE_CURVE('', #693, #686, #695, .T.);
#693 = VERTEX_POINT('', #694);
#694 = CARTESIAN_POINT('', (13.1782636181171, -6.16500788995179, 0.));
#695 = B_SPLINE_CURVE_WITH_KNOTS('', 1, (#696, #697), .UNSPECIFIED., .F., .U., (2, 2), (0., 50.), .UNSPECIFIED.);
#696 = CARTESIAN_POINT('', (13.1782636181171, -6.16500788995179, 0.));
#697 = CARTESIAN_POINT('', (13.1782636181171, -6.16500788995179, 50.));
#698 = ORIENTED_EDGE('', *, *, #699, .F.);
#699 = EDGE_CURVE('', #677, #693, #700, .T.);
#700 = B_SPLINE_CURVE_WITH_KNOTS('', 1, (#701, #702), .UNSPECIFIED., .F., .U., (2, 2), (0., 10.), .UNSPECIFIED.);
#701 = CARTESIAN_POINT('', (18.178178788839, 2.49529512354518, 0.));
#702 = CARTESIAN_POINT('', (13.1782636181171, -6.16500788995179, 0.));
#703 = B_SPLINE_SURFACE_WITH_KNOTS('', 1, 1, ((#704, #705), (#706, #707)), .UNSPECIFIED., .F., .F., .U., (2, 2), (2, 2), (0., 50.), (0., 10.), .UNSPECIFIED.);
#704 = CARTESIAN_POINT('', (18.178178788839, 2.49529512354518, 0.));
#705 = CARTESIAN_POINT('', (13.1782636181171, -6.16500788995179, 0.));
#706 = CARTESIAN_POINT('', (18.178178788839, 2.49529512354518, 50.));
#707 = CARTESIAN_POINT('', (13.1782636181171, -6.16500788995179, 50.));
#708 = ADVANCED_FACE('', (#709), #731, .T.);
#709 = FACE_OUTER_BOUND('', #710, .T.);
#710 = EDGE_LOOP('', (#711, #718, #725, #730));
#711 = ORIENTED_EDGE('', *, *, #712, .F.);
#712 = EDGE_CURVE('', #713, #679, #715, .T.);
#713 = VERTEX_POINT('', #714);
#714 = CARTESIAN_POINT('', (11.2499363780414, 6.49522726012273, 50.));
#715 = B_SPLINE_CURVE_WITH_KNOTS('', 1, (#716, #717), .UNSPECIFIED., .F., .U., (2, 2), (0., 8.), .UNSPECIFIED.);
#716 = CARTESIAN_POINT('', (11.2499363780414, 6.49522726012273, 50.));
#717 = CARTESIAN_POINT('', (18.178178788839, 2.49529512354518, 50.));
#718 = ORIENTED_EDGE('', *, *, #719, .T.);
#719 = EDGE_CURVE('', #713, #720, #722, .T.);
#720 = VERTEX_POINT('', #721);
#721 = CARTESIAN_POINT('', (6.25002120731952, -2.16507575337424, 50.));
#722 = B_SPLINE_CURVE_WITH_KNOTS('', 1, (#723, #724), .UNSPECIFIED., .F., .U., (2, 2), (0., 10.), .UNSPECIFIED.);
#723 = CARTESIAN_POINT('', (11.2499363780414, 6.49522726012273, 50.));
#724 = CARTESIAN_POINT('', (6.25002120731952, -2.16507575337424, 50.));
#725 = ORIENTED_EDGE('', *, *, #726, .T.);
#726 = EDGE_CURVE('', #720, #686, #727, .T.);
#727 = B_SPLINE_CURVE_WITH_KNOTS('', 1, (#728, #729), .UNSPECIFIED., .F., .U., (2, 2), (0., 8.), .UNSPECIFIED.);
#728 = CARTESIAN_POINT('', (6.25002120731952, -2.16507575337424, 50.));
#729 = CARTESIAN_POINT('', (13.1782636181171, -6.16500788995179, 50.));
#730 = ORIENTED_EDGE('', *, *, #685, .F.);
#731 = B_SPLINE_SURFACE_WITH_KNOTS('', 1, 1, ((#732, #733), (#734, #735)), .UNSPECIFIED., .F., .F., .U., (2, 2), (2, 2), (0., 10.), (0., 8.), .UNSPECIFIED.);
#732 = CARTESIAN_POINT('', (11.2499363780414, 6.49522726012273, 50.));
#733 = CARTESIAN_POINT('', (18.178178788839, 2.49529512354518, 50.));
#734 = CARTESIAN_POINT('', (6.25002120731952, -2.16507575337424, 50.));
#735 = CARTESIAN_POINT('', (13.1782636181171, -6.16500788995179, 50.));
#736 = ADVANCED_FACE('', (#737), #759, .T.);
#737 = FACE_OUTER_BOUND('', #738, .T.);
#738 = EDGE_LOOP('', (#739, #746, #753, #758));
#739 = ORIENTED_EDGE('', *, *, #740, .F.);
#740 = EDGE_CURVE('', #741, #713, #743, .T.);
#741 = VERTEX_POINT('', #742);
#742 = CARTESIAN_POINT('', (11.2499363780414, 6.49522726012273, 0.));
#743 = B_SPLINE_CURVE_WITH_KNOTS('', 1, (#744, #745), .UNSPECIFIED., .F., .U., (2, 2), (0., 50.), .UNSPECIFIED.);
#744 = CARTESIAN_POINT('', (11.2499363780414, 6.49522726012273, 0.));
#745 = CARTESIAN_POINT('', (11.2499363780414, 6.49522726012273, 50.));
#746 = ORIENTED_EDGE('', *, *, #747, .T.);
#747 = EDGE_CURVE('', #741, #748, #750, .T.);
#748 = VERTEX_POINT('', #749);
#749 = CARTESIAN_POINT('', (6.25002120731952, -2.16507575337424, 0.));
#750 = B_SPLINE_CURVE_WITH_KNOTS('', 1, (#751, #752), .UNSPECIFIED., .F., .U., (2, 2), (0., 10.), .UNSPECIFIED.);
#751 = CARTESIAN_POINT('', (11.2499363780414, 6.49522726012273, 0.));
#752 = CARTESIAN_POINT('', (6.25002120731952, -2.16507575337424, 0.));
#753 = ORIENTED_EDGE('', *, *, #754, .T.);
#754 = EDGE_CURVE('', #748, #720, #755, .T.);
#755 = B_SPLINE_CURVE_WITH_KNOTS('', 1, (#756, #757), .UNSPECIFIED., .F., .U., (2, 2), (0., 50.), .UNSPECIFIED.);
#756 = CARTESIAN_POINT('', (6.25002120731952, -2.16507575337424, 0.));
#757 = CARTESIAN_POINT('', (6.25002120731952, -2.16507575337424, 50.));
#758 = ORIENTED_EDGE('', *, *, #719, .F.);
#759 = B_SPLINE_SURFACE_WITH_KNOTS('', 1, 1, ((#760, #761), (#762, #763)), .UNSPECIFIED., .F., .F., .U., (2, 2), (2, 2), (0., 10.), (0., 50.), .UNSPECIFIED.);
#760 = CARTESIAN_POINT('', (11.2499363780414, 6.49522726012273, 0.));
#761 = CARTESIAN_POINT('', (11.2499363780414, 6.49522726012273, 50.));
#762 = CARTESIAN_POINT('', (6.25002120731952, -2.16507575337424, 0.));
#763 = CARTESIAN_POINT('', (6.25002120731952, -2.16507575337424, 50.));
#764 = ADVANCED_FACE('', (#765), #779, .T.);
#765 = FACE_OUTER_BOUND('', #766, .T.);
#766 = EDGE_LOOP('', (#767, #772, #773, #778));
#767 = ORIENTED_EDGE('', *, *, #768, .T.);
#768 = EDGE_CURVE('', #741, #677, #769, .T.);
#769 = B_SPLINE_CURVE_WITH_KNOTS('', 1, (#770, #771), .UNSPECIFIED., .F., .U., (2, 2), (0., 8.), .UNSPECIFIED.);
#770 = CARTESIAN_POINT('', (11.2499363780414, 6.49522726012273, 0.));
#771 = CARTESIAN_POINT('', (18.178178788839, 2.49529512354518, 0.));
#772 = ORIENTED_EDGE('', *, *, #699, .T.);
#773 = ORIENTED_EDGE('', *, *, #774, .F.);
#774 = EDGE_CURVE('', #748, #693, #775, .T.);
#775 = B_SPLINE_CURVE_WITH_KNOTS('', 1, (#776, #777), .UNSPECIFIED., .F., .U., (2, 2), (0., 8.), .UNSPECIFIED.);
#776 = CARTESIAN_POINT('', (6.25002120731952, -2.16507575337424, 0.));
#777 = CARTESIAN_POINT('', (13.1782636181171, -6.16500788995179, 0.));
#778 = ORIENTED_EDGE('', *, *, #747, .F.);
#779 = B_SPLINE_SURFACE_WITH_KNOTS('', 1, 1, ((#780, #781), (#782, #783)), .UNSPECIFIED., .F., .F., .U., (2, 2), (2, 2), (0., 8.), (0., 10.), .UNSPECIFIED.);
#780 = CARTESIAN_POINT('', (11.2499363780414, 6.49522726012273, 0.));
#781 = CARTESIAN_POINT('', (6.25002120731952, -2.16507575337424, 0.));
#782 = CARTESIAN_POINT('', (18.178178788839, 2.49529512354518, 0.));
#783 = CARTESIAN_POINT('', (13.1782636181171, -6.16500788995179, 0.));
#784 = ADVANCED_FACE('', (#785), #791, .T.);
#785 = FACE_OUTER_BOUND('', #786, .T.);
#786 = EDGE_LOOP('', (#787, #788, #789, #790));
#787 = ORIENTED_EDGE('', *, *, #754, .F.);
#788 = ORIENTED_EDGE('', *, *, #774, .T.);
#789 = ORIENTED_EDGE('', *, *, #692, .T.);
#790 = ORIENTED_EDGE('', *, *, #726, .F.);
#791 = B_SPLINE_SURFACE_WITH_KNOTS('', 1, 1, ((#792, #793), (#794, #795)), .UNSPECIFIED., .F., .F., .U., (2, 2), (2, 2), (0., 8.), (0., 50.), .UNSPECIFIED.);
#792 = CARTESIAN_POINT('', (6.25002120731952, -2.16507575337424, 0.));
#793 = CARTESIAN_POINT('', (6.25002120731952, -2.16507575337424, 50.));
#794 = CARTESIAN_POINT('', (13.1782636181171, -6.16500788995179, 0.));
#795 = CARTESIAN_POINT('', (13.1782636181171, -6.16500788995179, 50.));
#796 = ADVANCED_FACE('', (#797), #803, .T.);
#797 = FACE_OUTER_BOUND('', #798, .T.);
#798 = EDGE_LOOP('', (#799, #800, #801, #802));
#799 = ORIENTED_EDGE('', *, *, #740, .T.);
#800 = ORIENTED_EDGE('', *, *, #712, .T.);
#801 = ORIENTED_EDGE('', *, *, #676, .F.);
#802 = ORIENTED_EDGE('', *, *, #768, .F.);
#803 = B_SPLINE_SURFACE_WITH_KNOTS('', 1, 1, ((#804, #805), (#806, #807)), .UNSPECIFIED., .F., .F., .U., (2, 2), (2, 2), (0., 50.), (0., 8.), .UNSPECIFIED.);
#804 = CARTESIAN_POINT('', (11.2499363780414, 6.49522726012273, 0.));
#805 = CARTESIAN_POINT('', (18.178178788839, 2.49529512354518, 0.));
#806 = CARTESIAN_POINT('', (11.2499363780414, 6.49522726012273, 50.));
#807 = CARTESIAN_POINT('', (18.178178788839, 2.49529512354518, 50.));
#808 = PRESENTATION_STYLE_ASSIGNMENT((#809));
#809 = SURFACE_STYLE_USAGE(.POSITIVE., #810);
#810 = SURFACE_SIDE_STYLE('', (#811));
#811 = SURFACE_STYLE_FILL_AREA(#812);
#812 = FILL_AREA_STYLE('', (#813));
#813 = FILL_AREA_STYLE_COLOUR('', #814);
#814 = COLOUR_RGB('', 0.50196078431373, 0.50196078431373, 0.50196078431373);
#815 = STYLED_ITEM('', (#808), #670);
#816 = MANIFOLD_SOLID_BREP('CP_brepedge_5', #817);
#817 = CLOSED_SHELL('', (#818, #854, #882, #910, #930, #942));
#818 = ADVANCED_FACE('', (#819), #849, .T.);
#819 = FACE_OUTER_BOUND('', #820, .T.);
#820 = EDGE_LOOP('', (#821, #830, #837, #844));
#821 = ORIENTED_EDGE('', *, *, #822, .T.);
#822 = EDGE_CURVE('', #823, #825, #827, .T.);
#823 = VERTEX_POINT('', #824);
#824 = CARTESIAN_POINT('', (10.6780747267459, 10.495229441571, 0.));
#825 = VERTEX_POINT('', #826);
#826 = CARTESIAN_POINT('', (10.6780747267459, 10.495229441571, 50.));
#827 = B_SPLINE_CURVE_WITH_KNOTS('', 1, (#828, #829), .UNSPECIFIED., .F., .U., (2, 2), (0., 50.), .UNSPECIFIED.);
#828 = CARTESIAN_POINT('', (10.6780747267459, 10.495229441571, 0.));
#829 = CARTESIAN_POINT('', (10.6780747267459, 10.495229441571, 50.));
#830 = ORIENTED_EDGE('', *, *, #831, .T.);
#831 = EDGE_CURVE('', #825, #832, #834, .T.);
#832 = VERTEX_POINT('', #833);
#833 = CARTESIAN_POINT('', (15.6781807626689, 1.83503662446083, 50.));
#834 = B_SPLINE_CURVE_WITH_KNOTS('', 1, (#835, #836), .UNSPECIFIED., .F., .U., (2, 2), (0., 10.), .UNSPECIFIED.);
#835 = CARTESIAN_POINT('', (10.6780747267459, 10.495229441571, 50.));
#836 = CARTESIAN_POINT('', (15.6781807626689, 1.83503662446083, 50.));
#837 = ORIENTED_EDGE('', *, *, #838, .F.);
#838 = EDGE_CURVE('', #839, #832, #841, .T.);
#839 = VERTEX_POINT('', #840);
#840 = CARTESIAN_POINT('', (15.6781807626689, 1.83503662446083, 0.));
#841 = B_SPLINE_CURVE_WITH_KNOTS('', 1, (#842, #843), .UNSPECIFIED., .F., .U., (2, 2), (0., 50.), .UNSPECIFIED.);
#842 = CARTESIAN_POINT('', (15.6781807626689, 1.83503662446083, 0.));
#843 = CARTESIAN_POINT('', (15.6781807626689, 1.83503662446083, 50.));
#844 = ORIENTED_EDGE('', *, *, #845, .F.);
#845 = EDGE_CURVE('', #823, #839, #846, .T.);
#846 = B_SPLINE_CURVE_WITH_KNOTS('', 1, (#847, #848), .UNSPECIFIED., .F., .U., (2, 2), (0., 10.), .UNSPECIFIED.);
#847 = CARTESIAN_POINT('', (10.6780747267459, 10.495229441571, 0.));
#848 = CARTESIAN_POINT('', (15.6781807626689, 1.83503662446083, 0.));
#849 = B_SPLINE_SURFACE_WITH_KNOTS('', 1, 1, ((#850, #851), (#852, #853)), .UNSPECIFIED., .F., .F., .U., (2, 2), (2, 2), (0., 50.), (0., 10.), .UNSPECIFIED.);
#850 = CARTESIAN_POINT('', (10.6780747267459, 10.495229441571, 0.));
#851 = CARTESIAN_POINT('', (15.6781807626689, 1.83503662446083, 0.));
#852 = CARTESIAN_POINT('', (10.6780747267459, 10.495229441571, 50.));
#853 = CARTESIAN_POINT('', (15.6781807626689, 1.83503662446083, 50.));
#854 = ADVANCED_FACE('', (#855), #877, .T.);
#855 = FACE_OUTER_BOUND('', #856, .T.);
#856 = EDGE_LOOP('', (#857, #864, #871, #876));
#857 = ORIENTED_EDGE('', *, *, #858, .F.);
#858 = EDGE_CURVE('', #859, #825, #861, .T.);
#859 = VERTEX_POINT('', #860);
#860 = CARTESIAN_POINT('', (3.74992047305778, 6.49514461283263, 50.));
#861 = B_SPLINE_CURVE_WITH_KNOTS('', 1, (#862, #863), .UNSPECIFIED., .F., .U., (2, 2), (0., 8.), .UNSPECIFIED.);
#862 = CARTESIAN_POINT('', (3.74992047305778, 6.49514461283263, 50.));
#863 = CARTESIAN_POINT('', (10.6780747267459, 10.495229441571, 50.));
#864 = ORIENTED_EDGE('', *, *, #865, .T.);
#865 = EDGE_CURVE('', #859, #866, #868, .T.);
#866 = VERTEX_POINT('', #867);
#867 = CARTESIAN_POINT('', (8.75002650898074, -2.16504820427754, 50.));
#868 = B_SPLINE_CURVE_WITH_KNOTS('', 1, (#869, #870), .UNSPECIFIED., .F., .U., (2, 2), (0., 10.), .UNSPECIFIED.);
#869 = CARTESIAN_POINT('', (3.74992047305778, 6.49514461283263, 50.));
#870 = CARTESIAN_POINT('', (8.75002650898074, -2.16504820427754, 50.));
#871 = ORIENTED_EDGE('', *, *, #872, .T.);
#872 = EDGE_CURVE('', #866, #832, #873, .T.);
#873 = B_SPLINE_CURVE_WITH_KNOTS('', 1, (#874, #875), .UNSPECIFIED., .F., .U., (2, 2), (0., 8.), .UNSPECIFIED.);
#874 = CARTESIAN_POINT('', (8.75002650898074, -2.16504820427754, 50.));
#875 = CARTESIAN_POINT('', (15.6781807626689, 1.83503662446083, 50.));
#876 = ORIENTED_EDGE('', *, *, #831, .F.);
#877 = B_SPLINE_SURFACE_WITH_KNOTS('', 1, 1, ((#878, #879), (#880, #881)), .UNSPECIFIED., .F., .F., .U., (2, 2), (2, 2), (0., 10.), (0., 8.), .UNSPECIFIED.);
#878 = CARTESIAN_POINT('', (3.74992047305778, 6.49514461283263, 50.));
#879 = CARTESIAN_POINT('', (10.6780747267459, 10.495229441571, 50.));
#880 = CARTESIAN_POINT('', (8.75002650898074, -2.16504820427754, 50.));
#881 = CARTESIAN_POINT('', (15.6781807626689, 1.83503662446083, 50.));
#882 = ADVANCED_FACE('', (#883), #905, .T.);
#883 = FACE_OUTER_BOUND('', #884, .T.);
#884 = EDGE_LOOP('', (#885, #892, #899, #904));
#885 = ORIENTED_EDGE('', *, *, #886, .F.);
#886 = EDGE_CURVE('', #887, #859, #889, .T.);
#887 = VERTEX_POINT('', #888);
#888 = CARTESIAN_POINT('', (3.74992047305778, 6.49514461283263, 0.));
#889 = B_SPLINE_CURVE_WITH_KNOTS('', 1, (#890, #891), .UNSPECIFIED., .F., .U., (2, 2), (0., 50.), .UNSPECIFIED.);
#890 = CARTESIAN_POINT('', (3.74992047305778, 6.49514461283263, 0.));
#891 = CARTESIAN_POINT('', (3.74992047305778, 6.49514461283263, 50.));
#892 = ORIENTED_EDGE('', *, *, #893, .T.);
#893 = EDGE_CURVE('', #887, #894, #896, .T.);
#894 = VERTEX_POINT('', #895);
#895 = CARTESIAN_POINT('', (8.75002650898074, -2.16504820427754, 0.));
#896 = B_SPLINE_CURVE_WITH_KNOTS('', 1, (#897, #898), .UNSPECIFIED., .F., .U., (2, 2), (0., 10.), .UNSPECIFIED.);
#897 = CARTESIAN_POINT('', (3.74992047305778, 6.49514461283263, 0.));
#898 = CARTESIAN_POINT('', (8.75002650898074, -2.16504820427754, 0.));
#899 = ORIENTED_EDGE('', *, *, #900, .T.);
#900 = EDGE_CURVE('', #894, #866, #901, .T.);
#901 = B_SPLINE_CURVE_WITH_KNOTS('', 1, (#902, #903), .UNSPECIFIED., .F., .U., (2, 2), (0., 50.), .UNSPECIFIED.);
#902 = CARTESIAN_POINT('', (8.75002650898074, -2.16504820427754, 0.));
#903 = CARTESIAN_POINT('', (8.75002650898074, -2.16504820427754, 50.));
#904 = ORIENTED_EDGE('', *, *, #865, .F.);
#905 = B_SPLINE_SURFACE_WITH_KNOTS('', 1, 1, ((#906, #907), (#908, #909)), .UNSPECIFIED., .F., .F., .U., (2, 2), (2, 2), (0., 10.), (0., 50.), .UNSPECIFIED.);
#906 = CARTESIAN_POINT('', (3.74992047305778, 6.49514461283263, 0.));
#907 = CARTESIAN_POINT('', (3.74992047305778, 6.49514461283263, 50.));
#908 = CARTESIAN_POINT('', (8.75002650898074, -2.16504820427754, 0.));
#909 = CARTESIAN_POINT('', (8.75002650898074, -2.16504820427754, 50.));
#910 = ADVANCED_FACE('', (#911), #925, .T.);
#911 = FACE_OUTER_BOUND('', #912, .T.);
#912 = EDGE_LOOP('', (#913, #918, #919, #924));
#913 = ORIENTED_EDGE('', *, *, #914, .T.);
#914 = EDGE_CURVE('', #887, #823, #915, .T.);
#915 = B_SPLINE_CURVE_WITH_KNOTS('', 1, (#916, #917), .UNSPECIFIED., .F., .U., (2, 2), (0., 8.), .UNSPECIFIED.);
#916 = CARTESIAN_POINT('', (3.74992047305778, 6.49514461283263, 0.));
#917 = CARTESIAN_POINT('', (10.6780747267459, 10.495229441571, 0.));
#918 = ORIENTED_EDGE('', *, *, #845, .T.);
#919 = ORIENTED_EDGE('', *, *, #920, .F.);
#920 = EDGE_CURVE('', #894, #839, #921, .T.);
#921 = B_SPLINE_CURVE_WITH_KNOTS('', 1, (#922, #923), .UNSPECIFIED., .F., .U., (2, 2), (0., 8.), .UNSPECIFIED.);
#922 = CARTESIAN_POINT('', (8.75002650898074, -2.16504820427754, 0.));
#923 = CARTESIAN_POINT('', (15.6781807626689, 1.83503662446083, 0.));
#924 = ORIENTED_EDGE('', *, *, #893, .F.);
#925 = B_SPLINE_SURFACE_WITH_KNOTS('', 1, 1, ((#926, #927), (#928, #929)), .UNSPECIFIED., .F., .F., .U., (2, 2), (2, 2), (0., 8.), (0., 10.), .UNSPECIFIED.);
#926 = CARTESIAN_POINT('', (3.74992047305778, 6.49514461283263, 0.));
#927 = CARTESIAN_POINT('', (8.75002650898074, -2.16504820427754, 0.));
#928 = CARTESIAN_POINT('', (10.6780747267459, 10.495229441571, 0.));
#929 = CARTESIAN_POINT('', (15.6781807626689, 1.83503662446083, 0.));
#930 = ADVANCED_FACE('', (#931), #937, .T.);
#931 = FACE_OUTER_BOUND('', #932, .T.);
#932 = EDGE_LOOP('', (#933, #934, #935, #936));
#933 = ORIENTED_EDGE('', *, *, #900, .F.);
#934 = ORIENTED_EDGE('', *, *, #920, .T.);
#935 = ORIENTED_EDGE('', *, *, #838, .T.);
#936 = ORIENTED_EDGE('', *, *, #872, .F.);
#937 = B_SPLINE_SURFACE_WITH_KNOTS('', 1, 1, ((#938, #939), (#940, #941)), .UNSPECIFIED., .F., .F., .U., (2, 2), (2, 2), (0., 8.), (0., 50.), .UNSPECIFIED.);
#938 = CARTESIAN_POINT('', (8.75002650898074, -2.16504820427754, 0.));
#939 = CARTESIAN_POINT('', (8.75002650898074, -2.16504820427754, 50.));
#940 = CARTESIAN_POINT('', (15.6781807626689, 1.83503662446083, 0.));
#941 = CARTESIAN_POINT('', (15.6781807626689, 1.83503662446083, 50.));
#942 = ADVANCED_FACE('', (#943), #949, .T.);
#943 = FACE_OUTER_BOUND('', #944, .T.);
#944 = EDGE_LOOP('', (#945, #946, #947, #948));
#945 = ORIENTED_EDGE('', *, *, #886, .T.);
#946 = ORIENTED_EDGE('', *, *, #858, .T.);
#947 = ORIENTED_EDGE('', *, *, #822, .F.);
#948 = ORIENTED_EDGE('', *, *, #914, .F.);
#949 = B_SPLINE_SURFACE_WITH_KNOTS('', 1, 1, ((#950, #951), (#952, #953)), .UNSPECIFIED., .F., .F., .U., (2, 2), (2, 2), (0., 50.), (0., 8.), .UNSPECIFIED.);
#950 = CARTESIAN_POINT('', (3.74992047305778, 6.49514461283263, 0.));
#951 = CARTESIAN_POINT('', (10.6780747267459, 10.495229441571, 0.));
#952 = CARTESIAN_POINT('', (3.74992047305778, 6.49514461283263, 50.));
#953 = CARTESIAN_POINT('', (10.6780747267459, 10.495229441571, 50.));
#954 = PRESENTATION_STYLE_ASSIGNMENT((#955));
#955 = SURFACE_STYLE_USAGE(.POSITIVE., #956);
#956 = SURFACE_SIDE_STYLE('', (#957));
#957 = SURFACE_STYLE_FILL_AREA(#958);
#958 = FILL_AREA_STYLE('', (#959));
#959 = FILL_AREA_STYLE_COLOUR('', #960);
#960 = COLOUR_RGB('', 0.50196078431373, 0.50196078431373, 0.50196078431373);
#961 = STYLED_ITEM('', (#954), #816);
#962 = CARTESIAN_POINT('Origin', (0., 0., 0.));
#963 = GEOMETRIC_SET('', (#962));
#964 = (
   GEOMETRIC_REPRESENTATION_CONTEXT (3)
   GLOBAL_UNCERTAINTY_ASSIGNED_CONTEXT ((#966))
   GLOBAL_UNIT_ASSIGNED_CONTEXT ((#965, #967, #968))
   REPRESENTATION_CONTEXT ('', '3D')
);
#965 = (
   LENGTH_UNIT ()
   NAMED_UNIT (*)
   SI_UNIT (.MILLI., .METRE.)
);
#966 = UNCERTAINTY_MEASURE_WITH_UNIT(LENGTH_MEASURE(1.E-6), #965, 'DISTANCE_ACCURACY_VALUE', '');
#967 = (
   NAMED_UNIT (*)
   SI_UNIT ($, .STERADIAN.)
   SOLID_ANGLE_UNIT ()
);
#968 = (
   NAMED_UNIT (*)
   PLANE_ANGLE_UNIT ()
   SI_UNIT ($, .RADIAN.)
);
#969 = SHAPE_REPRESENTATION('', (#984), #964);
#970 = PRODUCT_DEFINITION_SHAPE('', '', #971);
#971 = PRODUCT_DEFINITION('', '', #974, #978);
#972 = APPLICATION_CONTEXT('configuration controlled 3D designs of mechanical parts and assemblies');
#973 = APPLICATION_PROTOCOL_DEFINITION('International Standard', 'automotive_design', 2002, #972);
#974 = PRODUCT_DEFINITION_FORMATION_WITH_SPECIFIED_SOURCE('', '', #975, .NOT_KNOWN.);
#975 = PRODUCT('BrepEdgeAxis', 'BrepEdgeAxis', '', (#976));
#976 = PRODUCT_CONTEXT('', #972, 'mechanical');
#977 = PRODUCT_RELATED_PRODUCT_CATEGORY('detail', '', (#975));
#978 = PRODUCT_DEFINITION_CONTEXT('part definition', #972, 'design');
#979 = SHAPE_DEFINITION_REPRESENTATION(#970, #969);
#980 = SHAPE_REPRESENTATION_RELATIONSHIP('', '', #969, #981);
#981 = SHAPE_REPRESENTATION('', (#963), #964);
#982 = SHAPE_REPRESENTATION_RELATIONSHIP('', '', #969, #983);
#983 = ADVANCED_BREP_SHAPE_REPRESENTATION('', (#1, #86, #232, #378, #524, #670, #816), #964);
#984 = AXIS2_PLACEMENT_3D('', #985, #986, #987);
#985 = CARTESIAN_POINT('', (0., 0., 0.));
#986 = DIRECTION('', (0., 0., 1.));
#987 = DIRECTION('', (1., 0., 0.));
ENDSEC;
END-ISO-10303-21;
