ISO-10303-21;
HEADER;
FILE_DESCRIPTION(('STEP'), '1');
FILE_NAME('VerticalInverted', '2026-04-20T09:05:25', (''), (''), 'Express 3.1.2.0', 'Express Tool', 'Unknown');
FILE_SCHEMA(('AUTOMOTIVE_DESIGN'));
ENDSEC;

DATA;
#1 = MANIFOLD_SOLID_BREP('Ref_0', #2);
#2 = CLOSED_SHELL('', (#3, #59, #68));
#3 = ADVANCED_FACE('', (#4), #40, .T.);
#4 = FACE_OUTER_BOUND('', #5, .T.);
#5 = EDGE_LOOP('', (#6, #15, #27, #28));
#6 = ORIENTED_EDGE('', *, *, #7, .F.);
#7 = EDGE_CURVE('', #8, #10, #12, .T.);
#8 = VERTEX_POINT('', #9);
#9 = CARTESIAN_POINT('', (50., 0., 0.));
#10 = VERTEX_POINT('', #11);
#11 = CARTESIAN_POINT('', (50., 0., 50.));
#12 = B_SPLINE_CURVE_WITH_KNOTS('', 1, (#13, #14), .UNSPECIFIED., .F., .U., (2, 2), (0., 50.), .UNSPECIFIED.);
#13 = CARTESIAN_POINT('', (50., 0., 0.));
#14 = CARTESIAN_POINT('', (50., 0., 50.));
#15 = ORIENTED_EDGE('', *, *, #16, .T.);
#16 = EDGE_CURVE('', #8, #8, #17, .T.);
#17 = (
   BOUNDED_CURVE ()
   B_SPLINE_CURVE (2, (#18, #19, #20, #21, #22, #23, #24, #25, #26), .UNSPECIFIED., .T., .U.)
   B_SPLINE_CURVE_WITH_KNOTS ((3, 2, 2, 2, 3), (0., 78.5398163397448, 157.07963267949, 235.619449019235, 314.159265358979), .UNSPECIFIED.)
   CURVE ()
   GEOMETRIC_REPRESENTATION_ITEM ()
   RATIONAL_B_SPLINE_CURVE ((1., 0.707106781186548, 1., 0.707106781186548, 1., 0.707106781186548, 1., 0.707106781186548, 1.))
   REPRESENTATION_ITEM ('')
);
#18 = CARTESIAN_POINT('', (50., 0., 0.));
#19 = CARTESIAN_POINT('', (50., 50., 0.));
#20 = CARTESIAN_POINT('', (3.06161699786838E-15, 50., 0.));
#21 = CARTESIAN_POINT('', (-50., 50., 0.));
#22 = CARTESIAN_POINT('', (-50., 6.12323399573677E-15, 0.));
#23 = CARTESIAN_POINT('', (-50., -50., 0.));
#24 = CARTESIAN_POINT('', (-9.18485099360515E-15, -50., 0.));
#25 = CARTESIAN_POINT('', (50., -50., 0.));
#26 = CARTESIAN_POINT('', (50., 0., 0.));
#27 = ORIENTED_EDGE('', *, *, #7, .T.);
#28 = ORIENTED_EDGE('', *, *, #29, .F.);
#29 = EDGE_CURVE('', #10, #10, #30, .T.);
#30 = (
   BOUNDED_CURVE ()
   B_SPLINE_CURVE (2, (#31, #32, #33, #34, #35, #36, #37, #38, #39), .UNSPECIFIED., .T., .U.)
   B_SPLINE_CURVE_WITH_KNOTS ((3, 2, 2, 2, 3), (0., 78.5398163397448, 157.07963267949, 235.619449019235, 314.159265358979), .UNSPECIFIED.)
   CURVE ()
   GEOMETRIC_REPRESENTATION_ITEM ()
   RATIONAL_B_SPLINE_CURVE ((1., 0.707106781186548, 1., 0.707106781186548, 1., 0.707106781186548, 1., 0.707106781186548, 1.))
   REPRESENTATION_ITEM ('')
);
#31 = CARTESIAN_POINT('', (50., 0., 50.));
#32 = CARTESIAN_POINT('', (50., 50., 50.));
#33 = CARTESIAN_POINT('', (3.06161699786838E-15, 50., 50.));
#34 = CARTESIAN_POINT('', (-50., 50., 50.));
#35 = CARTESIAN_POINT('', (-50., 6.12323399573677E-15, 50.));
#36 = CARTESIAN_POINT('', (-50., -50., 50.));
#37 = CARTESIAN_POINT('', (-9.18485099360515E-15, -50., 50.));
#38 = CARTESIAN_POINT('', (50., -50., 50.));
#39 = CARTESIAN_POINT('', (50., 0., 50.));
#40 = (
   BOUNDED_SURFACE ()
   B_SPLINE_SURFACE (2, 1, ((#41, #42), (#43, #44), (#45, #46), (#47, #48), (#49, #50), (#51, #52), (#53, #54), (#55, #56), (#57, #58)), .UNSPECIFIED., .T., .F., .U.)
   B_SPLINE_SURFACE_WITH_KNOTS ((3, 2, 2, 2, 3), (2, 2), (0., 78.5398163397448, 157.07963267949, 235.619449019235, 314.159265358979), (0., 50.), .UNSPECIFIED.)
   GEOMETRIC_REPRESENTATION_ITEM ()
   RATIONAL_B_SPLINE_SURFACE (((1., 1.), (0.707106781186548, 0.707106781186548), (1., 1.), (0.707106781186548, 0.707106781186548), (1., 1.), (0.707106781186548, 0.707106781186548), (1., 1.), (0.707106781186548, 0.707106781186548), (1., 1.)))
   REPRESENTATION_ITEM ('')
   SURFACE ()
);
#41 = CARTESIAN_POINT('', (50., 0., 0.));
#42 = CARTESIAN_POINT('', (50., 0., 50.));
#43 = CARTESIAN_POINT('', (50., 50., 0.));
#44 = CARTESIAN_POINT('', (50., 50., 50.));
#45 = CARTESIAN_POINT('', (3.06161699786838E-15, 50., 0.));
#46 = CARTESIAN_POINT('', (3.06161699786838E-15, 50., 50.));
#47 = CARTESIAN_POINT('', (-50., 50., 0.));
#48 = CARTESIAN_POINT('', (-50., 50., 50.));
#49 = CARTESIAN_POINT('', (-50., 6.12323399573677E-15, 0.));
#50 = CARTESIAN_POINT('', (-50., 6.12323399573677E-15, 50.));
#51 = CARTESIAN_POINT('', (-50., -50., 0.));
#52 = CARTESIAN_POINT('', (-50., -50., 50.));
#53 = CARTESIAN_POINT('', (-9.18485099360515E-15, -50., 0.));
#54 = CARTESIAN_POINT('', (-9.18485099360515E-15, -50., 50.));
#55 = CARTESIAN_POINT('', (50., -50., 0.));
#56 = CARTESIAN_POINT('', (50., -50., 50.));
#57 = CARTESIAN_POINT('', (50., 0., 0.));
#58 = CARTESIAN_POINT('', (50., 0., 50.));
#59 = ADVANCED_FACE('', (#60), #63, .T.);
#60 = FACE_OUTER_BOUND('', #61, .T.);
#61 = EDGE_LOOP('', (#62));
#62 = ORIENTED_EDGE('', *, *, #16, .F.);
#63 = B_SPLINE_SURFACE_WITH_KNOTS('', 1, 1, ((#64, #65), (#66, #67)), .UNSPECIFIED., .F., .F., .U., (2, 2), (2, 2), (0., 1.), (0., 1.), .UNSPECIFIED.);
#64 = CARTESIAN_POINT('', (77.7817459305203, -77.7817459305203, 0.));
#65 = CARTESIAN_POINT('', (77.7817459305203, 77.7817459305203, 0.));
#66 = CARTESIAN_POINT('', (-77.7817459305203, -77.7817459305203, 0.));
#67 = CARTESIAN_POINT('', (-77.7817459305203, 77.7817459305203, 0.));
#68 = ADVANCED_FACE('', (#69), #72, .T.);
#69 = FACE_OUTER_BOUND('', #70, .T.);
#70 = EDGE_LOOP('', (#71));
#71 = ORIENTED_EDGE('', *, *, #29, .T.);
#72 = B_SPLINE_SURFACE_WITH_KNOTS('', 1, 1, ((#73, #74), (#75, #76)), .UNSPECIFIED., .F., .F., .U., (2, 2), (2, 2), (0., 1.), (0., 1.), .UNSPECIFIED.);
#73 = CARTESIAN_POINT('', (77.7817459305203, -77.7817459305203, 50.));
#74 = CARTESIAN_POINT('', (-77.7817459305203, -77.7817459305203, 50.));
#75 = CARTESIAN_POINT('', (77.7817459305203, 77.7817459305203, 50.));
#76 = CARTESIAN_POINT('', (-77.7817459305203, 77.7817459305203, 50.));
#77 = DRAUGHTING_MODEL('', (#85, #131), #134);
#78 = PRESENTATION_STYLE_ASSIGNMENT((#79));
#79 = SURFACE_STYLE_USAGE(.POSITIVE., #80);
#80 = SURFACE_SIDE_STYLE('', (#81));
#81 = SURFACE_STYLE_FILL_AREA(#82);
#82 = FILL_AREA_STYLE('', (#83));
#83 = FILL_AREA_STYLE_COLOUR('', #84);
#84 = COLOUR_RGB('', 0.50196078431373, 0.50196078431373, 0.50196078431373);
#85 = STYLED_ITEM('', (#78), #1);
#86 = SHELL_BASED_SURFACE_MODEL('SliceBySheet_0', (#87));
#87 = OPEN_SHELL('', (#88));
#88 = ADVANCED_FACE('', (#89), #119, .T.);
#89 = FACE_OUTER_BOUND('', #90, .T.);
#90 = EDGE_LOOP('', (#91, #100, #107, #114));
#91 = ORIENTED_EDGE('', *, *, #92, .F.);
#92 = EDGE_CURVE('', #93, #95, #97, .T.);
#93 = VERTEX_POINT('', #94);
#94 = CARTESIAN_POINT('', (30., 60., 50.));
#95 = VERTEX_POINT('', #96);
#96 = CARTESIAN_POINT('', (30., 60., 0.));
#97 = B_SPLINE_CURVE_WITH_KNOTS('', 1, (#98, #99), .UNSPECIFIED., .F., .U., (2, 2), (0., 1.), .UNSPECIFIED.);
#98 = CARTESIAN_POINT('', (30., 60., 50.));
#99 = CARTESIAN_POINT('', (30., 60., 1.4210854715202E-14));
#100 = ORIENTED_EDGE('', *, *, #101, .F.);
#101 = EDGE_CURVE('', #102, #93, #104, .T.);
#102 = VERTEX_POINT('', #103);
#103 = CARTESIAN_POINT('', (30., 0., 50.));
#104 = B_SPLINE_CURVE_WITH_KNOTS('', 1, (#105, #106), .UNSPECIFIED., .F., .U., (2, 2), (0., 1.), .UNSPECIFIED.);
#105 = CARTESIAN_POINT('', (30., 2.8421709430404E-14, 50.));
#106 = CARTESIAN_POINT('', (30., 60., 50.));
#107 = ORIENTED_EDGE('', *, *, #108, .F.);
#108 = EDGE_CURVE('', #109, #102, #111, .T.);
#109 = VERTEX_POINT('', #110);
#110 = CARTESIAN_POINT('', (30., 0., 0.));
#111 = B_SPLINE_CURVE_WITH_KNOTS('', 1, (#112, #113), .UNSPECIFIED., .F., .U., (2, 2), (0., 1.), .UNSPECIFIED.);
#112 = CARTESIAN_POINT('', (30., 0., 1.4210854715202E-14));
#113 = CARTESIAN_POINT('', (30., 0., 50.));
#114 = ORIENTED_EDGE('', *, *, #115, .F.);
#115 = EDGE_CURVE('', #95, #109, #116, .T.);
#116 = B_SPLINE_CURVE_WITH_KNOTS('', 1, (#117, #118), .UNSPECIFIED., .F., .U., (2, 2), (0., 1.), .UNSPECIFIED.);
#117 = CARTESIAN_POINT('', (30., 60., 0.));
#118 = CARTESIAN_POINT('', (30., 0., 0.));
#119 = B_SPLINE_SURFACE_WITH_KNOTS('', 1, 1, ((#120, #121), (#122, #123)), .UNSPECIFIED., .F., .F., .U., (2, 2), (2, 2), (0., 0.833333333333334), (0.25, 0.75), .UNSPECIFIED.);
#120 = CARTESIAN_POINT('', (30., 60., 0.));
#121 = CARTESIAN_POINT('', (30., 0., 0.));
#122 = CARTESIAN_POINT('', (30., 60., 50.));
#123 = CARTESIAN_POINT('', (30., 0., 50.));
#124 = PRESENTATION_STYLE_ASSIGNMENT((#125));
#125 = SURFACE_STYLE_USAGE(.POSITIVE., #126);
#126 = SURFACE_SIDE_STYLE('', (#127));
#127 = SURFACE_STYLE_FILL_AREA(#128);
#128 = FILL_AREA_STYLE('', (#129));
#129 = FILL_AREA_STYLE_COLOUR('', #130);
#130 = COLOUR_RGB('', 0.50196078431373, 0.50196078431373, 0.50196078431373);
#131 = STYLED_ITEM('', (#124), #86);
#132 = CARTESIAN_POINT('Origin', (0., 0., 0.));
#133 = GEOMETRIC_SET('', (#132));
#134 = (
   GEOMETRIC_REPRESENTATION_CONTEXT (3)
   GLOBAL_UNCERTAINTY_ASSIGNED_CONTEXT ((#136))
   GLOBAL_UNIT_ASSIGNED_CONTEXT ((#135, #137, #138))
   REPRESENTATION_CONTEXT ('', '3D')
);
#135 = (
   LENGTH_UNIT ()
   NAMED_UNIT (*)
   SI_UNIT (.MILLI., .METRE.)
);
#136 = UNCERTAINTY_MEASURE_WITH_UNIT(LENGTH_MEASURE(1.E-6), #135, 'DISTANCE_ACCURACY_VALUE', '');
#137 = (
   NAMED_UNIT (*)
   SI_UNIT ($, .STERADIAN.)
   SOLID_ANGLE_UNIT ()
);
#138 = (
   NAMED_UNIT (*)
   PLANE_ANGLE_UNIT ()
   SI_UNIT ($, .RADIAN.)
);
#139 = SHAPE_REPRESENTATION('', (#156), #134);
#140 = PRODUCT_DEFINITION_SHAPE('', '', #141);
#141 = PRODUCT_DEFINITION('', '', #144, #148);
#142 = APPLICATION_CONTEXT('configuration controlled 3D designs of mechanical parts and assemblies');
#143 = APPLICATION_PROTOCOL_DEFINITION('International Standard', 'automotive_design', 2002, #142);
#144 = PRODUCT_DEFINITION_FORMATION_WITH_SPECIFIED_SOURCE('', '', #145, .NOT_KNOWN.);
#145 = PRODUCT('VerticalInverted', 'VerticalInverted', '', (#146));
#146 = PRODUCT_CONTEXT('', #142, 'mechanical');
#147 = PRODUCT_RELATED_PRODUCT_CATEGORY('detail', '', (#145));
#148 = PRODUCT_DEFINITION_CONTEXT('part definition', #142, 'design');
#149 = SHAPE_DEFINITION_REPRESENTATION(#140, #139);
#150 = SHAPE_REPRESENTATION_RELATIONSHIP('', '', #139, #151);
#151 = SHAPE_REPRESENTATION('', (#133), #134);
#152 = SHAPE_REPRESENTATION_RELATIONSHIP('', '', #139, #153);
#153 = ADVANCED_BREP_SHAPE_REPRESENTATION('', (#1), #134);
#154 = SHAPE_REPRESENTATION_RELATIONSHIP('', '', #139, #155);
#155 = MANIFOLD_SURFACE_SHAPE_REPRESENTATION('', (#86), #134);
#156 = AXIS2_PLACEMENT_3D('', #157, #158, #159);
#157 = CARTESIAN_POINT('', (0., 0., 0.));
#158 = DIRECTION('', (0., 0., 1.));
#159 = DIRECTION('', (1., 0., 0.));
ENDSEC;
END-ISO-10303-21;
