ISO-10303-21;
HEADER;
FILE_DESCRIPTION(('STEP'), '1');
FILE_NAME('RightPlaneVert', '2026-04-20T09:07:04', (''), (''), 'Express 3.1.2.0', 'Express Tool', 'Unknown');
FILE_SCHEMA(('AUTOMOTIVE_DESIGN'));
ENDSEC;

DATA;
#1 = MANIFOLD_SOLID_BREP('Ref_0', #2);
#2 = CLOSED_SHELL('', (#3, #59, #68));
#3 = ADVANCED_FACE('', (#4), #40, .T.);
#4 = FACE_OUTER_BOUND('', #5, .T.);
#5 = EDGE_LOOP('', (#6, #15, #27, #28));
#6 = ORIENTED_EDGE('', *, *, #7, .F.);
#7 = EDGE_CURVE('', #8, #10, #12, .T.);
#8 = VERTEX_POINT('', #9);
#9 = CARTESIAN_POINT('', (50., 0., 0.));
#10 = VERTEX_POINT('', #11);
#11 = CARTESIAN_POINT('', (50., 0., 50.));
#12 = B_SPLINE_CURVE_WITH_KNOTS('', 1, (#13, #14), .UNSPECIFIED., .F., .U., (2, 2), (0., 50.), .UNSPECIFIED.);
#13 = CARTESIAN_POINT('', (50., 0., 0.));
#14 = CARTESIAN_POINT('', (50., 0., 50.));
#15 = ORIENTED_EDGE('', *, *, #16, .T.);
#16 = EDGE_CURVE('', #8, #8, #17, .T.);
#17 = (
   BOUNDED_CURVE ()
   B_SPLINE_CURVE (2, (#18, #19, #20, #21, #22, #23, #24, #25, #26), .UNSPECIFIED., .T., .U.)
   B_SPLINE_CURVE_WITH_KNOTS ((3, 2, 2, 2, 3), (0., 78.5398163397448, 157.07963267949, 235.619449019235, 314.159265358979), .UNSPECIFIED.)
   CURVE ()
   GEOMETRIC_REPRESENTATION_ITEM ()
   RATIONAL_B_SPLINE_CURVE ((1., 0.707106781186548, 1., 0.707106781186548, 1., 0.707106781186548, 1., 0.707106781186548, 1.))
   REPRESENTATION_ITEM ('')
);
#18 = CARTESIAN_POINT('', (50., 0., 0.));
#19 = CARTESIAN_POINT('', (50., 50., 0.));
#20 = CARTESIAN_POINT('', (3.06161699786838E-15, 50., 0.));
#21 = CARTESIAN_POINT('', (-50., 50., 0.));
#22 = CARTESIAN_POINT('', (-50., 6.12323399573677E-15, 0.));
#23 = CARTESIAN_POINT('', (-50., -50., 0.));
#24 = CARTESIAN_POINT('', (-9.18485099360515E-15, -50., 0.));
#25 = CARTESIAN_POINT('', (50., -50., 0.));
#26 = CARTESIAN_POINT('', (50., 0., 0.));
#27 = ORIENTED_EDGE('', *, *, #7, .T.);
#28 = ORIENTED_EDGE('', *, *, #29, .F.);
#29 = EDGE_CURVE('', #10, #10, #30, .T.);
#30 = (
   BOUNDED_CURVE ()
   B_SPLINE_CURVE (2, (#31, #32, #33, #34, #35, #36, #37, #38, #39), .UNSPECIFIED., .T., .U.)
   B_SPLINE_CURVE_WITH_KNOTS ((3, 2, 2, 2, 3), (0., 78.5398163397448, 157.07963267949, 235.619449019235, 314.159265358979), .UNSPECIFIED.)
   CURVE ()
   GEOMETRIC_REPRESENTATION_ITEM ()
   RATIONAL_B_SPLINE_CURVE ((1., 0.707106781186548, 1., 0.707106781186548, 1., 0.707106781186548, 1., 0.707106781186548, 1.))
   REPRESENTATION_ITEM ('')
);
#31 = CARTESIAN_POINT('', (50., 0., 50.));
#32 = CARTESIAN_POINT('', (50., 50., 50.));
#33 = CARTESIAN_POINT('', (3.06161699786838E-15, 50., 50.));
#34 = CARTESIAN_POINT('', (-50., 50., 50.));
#35 = CARTESIAN_POINT('', (-50., 6.12323399573677E-15, 50.));
#36 = CARTESIAN_POINT('', (-50., -50., 50.));
#37 = CARTESIAN_POINT('', (-9.18485099360515E-15, -50., 50.));
#38 = CARTESIAN_POINT('', (50., -50., 50.));
#39 = CARTESIAN_POINT('', (50., 0., 50.));
#40 = (
   BOUNDED_SURFACE ()
   B_SPLINE_SURFACE (2, 1, ((#41, #42), (#43, #44), (#45, #46), (#47, #48), (#49, #50), (#51, #52), (#53, #54), (#55, #56), (#57, #58)), .UNSPECIFIED., .T., .F., .U.)
   B_SPLINE_SURFACE_WITH_KNOTS ((3, 2, 2, 2, 3), (2, 2), (0., 78.5398163397448, 157.07963267949, 235.619449019235, 314.159265358979), (0., 50.), .UNSPECIFIED.)
   GEOMETRIC_REPRESENTATION_ITEM ()
   RATIONAL_B_SPLINE_SURFACE (((1., 1.), (0.707106781186548, 0.707106781186548), (1., 1.), (0.707106781186548, 0.707106781186548), (1., 1.), (0.707106781186548, 0.707106781186548), (1., 1.), (0.707106781186548, 0.707106781186548), (1., 1.)))
   REPRESENTATION_ITEM ('')
   SURFACE ()
);
#41 = CARTESIAN_POINT('', (50., 0., 0.));
#42 = CARTESIAN_POINT('', (50., 0., 50.));
#43 = CARTESIAN_POINT('', (50., 50., 0.));
#44 = CARTESIAN_POINT('', (50., 50., 50.));
#45 = CARTESIAN_POINT('', (3.06161699786838E-15, 50., 0.));
#46 = CARTESIAN_POINT('', (3.06161699786838E-15, 50., 50.));
#47 = CARTESIAN_POINT('', (-50., 50., 0.));
#48 = CARTESIAN_POINT('', (-50., 50., 50.));
#49 = CARTESIAN_POINT('', (-50., 6.12323399573677E-15, 0.));
#50 = CARTESIAN_POINT('', (-50., 6.12323399573677E-15, 50.));
#51 = CARTESIAN_POINT('', (-50., -50., 0.));
#52 = CARTESIAN_POINT('', (-50., -50., 50.));
#53 = CARTESIAN_POINT('', (-9.18485099360515E-15, -50., 0.));
#54 = CARTESIAN_POINT('', (-9.18485099360515E-15, -50., 50.));
#55 = CARTESIAN_POINT('', (50., -50., 0.));
#56 = CARTESIAN_POINT('', (50., -50., 50.));
#57 = CARTESIAN_POINT('', (50., 0., 0.));
#58 = CARTESIAN_POINT('', (50., 0., 50.));
#59 = ADVANCED_FACE('', (#60), #63, .T.);
#60 = FACE_OUTER_BOUND('', #61, .T.);
#61 = EDGE_LOOP('', (#62));
#62 = ORIENTED_EDGE('', *, *, #16, .F.);
#63 = B_SPLINE_SURFACE_WITH_KNOTS('', 1, 1, ((#64, #65), (#66, #67)), .UNSPECIFIED., .F., .F., .U., (2, 2), (2, 2), (0., 1.), (0., 1.), .UNSPECIFIED.);
#64 = CARTESIAN_POINT('', (77.7817459305203, -77.7817459305203, 0.));
#65 = CARTESIAN_POINT('', (77.7817459305203, 77.7817459305203, 0.));
#66 = CARTESIAN_POINT('', (-77.7817459305203, -77.7817459305203, 0.));
#67 = CARTESIAN_POINT('', (-77.7817459305203, 77.7817459305203, 0.));
#68 = ADVANCED_FACE('', (#69), #72, .T.);
#69 = FACE_OUTER_BOUND('', #70, .T.);
#70 = EDGE_LOOP('', (#71));
#71 = ORIENTED_EDGE('', *, *, #29, .T.);
#72 = B_SPLINE_SURFACE_WITH_KNOTS('', 1, 1, ((#73, #74), (#75, #76)), .UNSPECIFIED., .F., .F., .U., (2, 2), (2, 2), (0., 1.), (0., 1.), .UNSPECIFIED.);
#73 = CARTESIAN_POINT('', (77.7817459305203, -77.7817459305203, 50.));
#74 = CARTESIAN_POINT('', (-77.7817459305203, -77.7817459305203, 50.));
#75 = CARTESIAN_POINT('', (77.7817459305203, 77.7817459305203, 50.));
#76 = CARTESIAN_POINT('', (-77.7817459305203, 77.7817459305203, 50.));
#77 = DRAUGHTING_MODEL('', (#85, #231), #234);
#78 = PRESENTATION_STYLE_ASSIGNMENT((#79));
#79 = SURFACE_STYLE_USAGE(.POSITIVE., #80);
#80 = SURFACE_SIDE_STYLE('', (#81));
#81 = SURFACE_STYLE_FILL_AREA(#82);
#82 = FILL_AREA_STYLE('', (#83));
#83 = FILL_AREA_STYLE_COLOUR('', #84);
#84 = COLOUR_RGB('', 0.50196078431373, 0.50196078431373, 0.50196078431373);
#85 = STYLED_ITEM('', (#78), #1);
#86 = MANIFOLD_SOLID_BREP('SliceBySheet_0', #87);
#87 = CLOSED_SHELL('', (#88, #124, #152, #180, #196, #212));
#88 = ADVANCED_FACE('', (#89), #119, .T.);
#89 = FACE_OUTER_BOUND('', #90, .T.);
#90 = EDGE_LOOP('', (#91, #100, #107, #114));
#91 = ORIENTED_EDGE('', *, *, #92, .F.);
#92 = EDGE_CURVE('', #93, #95, #97, .T.);
#93 = VERTEX_POINT('', #94);
#94 = CARTESIAN_POINT('', (0., 20., 50.));
#95 = VERTEX_POINT('', #96);
#96 = CARTESIAN_POINT('', (80., 20., 50.));
#97 = B_SPLINE_CURVE_WITH_KNOTS('', 1, (#98, #99), .UNSPECIFIED., .F., .U., (2, 2), (0., 1.), .UNSPECIFIED.);
#98 = CARTESIAN_POINT('', (0., 20., 50.));
#99 = CARTESIAN_POINT('', (80., 20., 50.));
#100 = ORIENTED_EDGE('', *, *, #101, .F.);
#101 = EDGE_CURVE('', #102, #93, #104, .T.);
#102 = VERTEX_POINT('', #103);
#103 = CARTESIAN_POINT('', (0., 0., 50.));
#104 = B_SPLINE_CURVE_WITH_KNOTS('', 1, (#105, #106), .UNSPECIFIED., .F., .U., (2, 2), (0., 20.), .UNSPECIFIED.);
#105 = CARTESIAN_POINT('', (0., 0., 50.));
#106 = CARTESIAN_POINT('', (0., 20., 50.));
#107 = ORIENTED_EDGE('', *, *, #108, .T.);
#108 = EDGE_CURVE('', #102, #109, #111, .T.);
#109 = VERTEX_POINT('', #110);
#110 = CARTESIAN_POINT('', (80., 0., 50.));
#111 = B_SPLINE_CURVE_WITH_KNOTS('', 1, (#112, #113), .UNSPECIFIED., .F., .U., (2, 2), (0., 80.), .UNSPECIFIED.);
#112 = CARTESIAN_POINT('', (0., 0., 50.));
#113 = CARTESIAN_POINT('', (80., 0., 50.));
#114 = ORIENTED_EDGE('', *, *, #115, .T.);
#115 = EDGE_CURVE('', #109, #95, #116, .T.);
#116 = B_SPLINE_CURVE_WITH_KNOTS('', 1, (#117, #118), .UNSPECIFIED., .F., .U., (2, 2), (0., 20.), .UNSPECIFIED.);
#117 = CARTESIAN_POINT('', (80., 0., 50.));
#118 = CARTESIAN_POINT('', (80., 20., 50.));
#119 = B_SPLINE_SURFACE_WITH_KNOTS('', 1, 1, ((#120, #121), (#122, #123)), .UNSPECIFIED., .F., .F., .U., (2, 2), (2, 2), (0., 80.), (0., 60.), .UNSPECIFIED.);
#120 = CARTESIAN_POINT('', (0., 0., 50.));
#121 = CARTESIAN_POINT('', (0., 60., 50.));
#122 = CARTESIAN_POINT('', (80., 0., 50.));
#123 = CARTESIAN_POINT('', (80., 60., 50.));
#124 = ADVANCED_FACE('', (#125), #147, .T.);
#125 = FACE_OUTER_BOUND('', #126, .T.);
#126 = EDGE_LOOP('', (#127, #136, #141, #142));
#127 = ORIENTED_EDGE('', *, *, #128, .F.);
#128 = EDGE_CURVE('', #129, #131, #133, .T.);
#129 = VERTEX_POINT('', #130);
#130 = CARTESIAN_POINT('', (0., 0., 30.));
#131 = VERTEX_POINT('', #132);
#132 = CARTESIAN_POINT('', (0., 20., 30.));
#133 = B_SPLINE_CURVE_WITH_KNOTS('', 1, (#134, #135), .UNSPECIFIED., .F., .U., (2, 2), (0., 1.), .UNSPECIFIED.);
#134 = CARTESIAN_POINT('', (0., 1.4210854715202E-14, 30.));
#135 = CARTESIAN_POINT('', (0., 20., 30.));
#136 = ORIENTED_EDGE('', *, *, #137, .T.);
#137 = EDGE_CURVE('', #129, #102, #138, .T.);
#138 = B_SPLINE_CURVE_WITH_KNOTS('', 1, (#139, #140), .UNSPECIFIED., .F., .U., (2, 2), (30., 50.), .UNSPECIFIED.);
#139 = CARTESIAN_POINT('', (0., 0., 30.));
#140 = CARTESIAN_POINT('', (0., 0., 50.));
#141 = ORIENTED_EDGE('', *, *, #101, .T.);
#142 = ORIENTED_EDGE('', *, *, #143, .F.);
#143 = EDGE_CURVE('', #131, #93, #144, .T.);
#144 = B_SPLINE_CURVE_WITH_KNOTS('', 1, (#145, #146), .UNSPECIFIED., .F., .U., (2, 2), (0., 1.), .UNSPECIFIED.);
#145 = CARTESIAN_POINT('', (0., 20., 30.));
#146 = CARTESIAN_POINT('', (0., 20., 50.));
#147 = B_SPLINE_SURFACE_WITH_KNOTS('', 1, 1, ((#148, #149), (#150, #151)), .UNSPECIFIED., .F., .F., .U., (2, 2), (2, 2), (0., 50.), (0., 60.), .UNSPECIFIED.);
#148 = CARTESIAN_POINT('', (0., 0., 0.));
#149 = CARTESIAN_POINT('', (0., 60., 0.));
#150 = CARTESIAN_POINT('', (0., 0., 50.));
#151 = CARTESIAN_POINT('', (0., 60., 50.));
#152 = ADVANCED_FACE('', (#153), #175, .T.);
#153 = FACE_OUTER_BOUND('', #154, .T.);
#154 = EDGE_LOOP('', (#155, #164, #169, #170));
#155 = ORIENTED_EDGE('', *, *, #156, .F.);
#156 = EDGE_CURVE('', #157, #159, #161, .T.);
#157 = VERTEX_POINT('', #158);
#158 = CARTESIAN_POINT('', (80., 20., 30.));
#159 = VERTEX_POINT('', #160);
#160 = CARTESIAN_POINT('', (80., 0., 30.));
#161 = B_SPLINE_CURVE_WITH_KNOTS('', 1, (#162, #163), .UNSPECIFIED., .F., .U., (2, 2), (0., 1.), .UNSPECIFIED.);
#162 = CARTESIAN_POINT('', (80., 20., 30.));
#163 = CARTESIAN_POINT('', (80., -1.4210854715202E-14, 30.));
#164 = ORIENTED_EDGE('', *, *, #165, .F.);
#165 = EDGE_CURVE('', #95, #157, #166, .T.);
#166 = B_SPLINE_CURVE_WITH_KNOTS('', 1, (#167, #168), .UNSPECIFIED., .F., .U., (2, 2), (0., 1.), .UNSPECIFIED.);
#167 = CARTESIAN_POINT('', (80., 20., 50.));
#168 = CARTESIAN_POINT('', (80., 20., 30.));
#169 = ORIENTED_EDGE('', *, *, #115, .F.);
#170 = ORIENTED_EDGE('', *, *, #171, .F.);
#171 = EDGE_CURVE('', #159, #109, #172, .T.);
#172 = B_SPLINE_CURVE_WITH_KNOTS('', 1, (#173, #174), .UNSPECIFIED., .F., .U., (2, 2), (30., 50.), .UNSPECIFIED.);
#173 = CARTESIAN_POINT('', (80., 0., 30.));
#174 = CARTESIAN_POINT('', (80., 0., 50.));
#175 = B_SPLINE_SURFACE_WITH_KNOTS('', 1, 1, ((#176, #177), (#178, #179)), .UNSPECIFIED., .F., .F., .U., (2, 2), (2, 2), (0., 60.), (0., 50.), .UNSPECIFIED.);
#176 = CARTESIAN_POINT('', (80., 0., 0.));
#177 = CARTESIAN_POINT('', (80., 0., 50.));
#178 = CARTESIAN_POINT('', (80., 60., 0.));
#179 = CARTESIAN_POINT('', (80., 60., 50.));
#180 = ADVANCED_FACE('', (#181), #191, .T.);
#181 = FACE_OUTER_BOUND('', #182, .T.);
#182 = EDGE_LOOP('', (#183, #188, #189, #190));
#183 = ORIENTED_EDGE('', *, *, #184, .F.);
#184 = EDGE_CURVE('', #159, #129, #185, .T.);
#185 = B_SPLINE_CURVE_WITH_KNOTS('', 1, (#186, #187), .UNSPECIFIED., .F., .U., (2, 2), (0., 1.), .UNSPECIFIED.);
#186 = CARTESIAN_POINT('', (80., 0., 30.));
#187 = CARTESIAN_POINT('', (0., 0., 30.));
#188 = ORIENTED_EDGE('', *, *, #171, .T.);
#189 = ORIENTED_EDGE('', *, *, #108, .F.);
#190 = ORIENTED_EDGE('', *, *, #137, .F.);
#191 = B_SPLINE_SURFACE_WITH_KNOTS('', 1, 1, ((#192, #193), (#194, #195)), .UNSPECIFIED., .F., .F., .U., (2, 2), (2, 2), (0., 80.), (0., 50.), .UNSPECIFIED.);
#192 = CARTESIAN_POINT('', (0., 0., 0.));
#193 = CARTESIAN_POINT('', (0., 0., 50.));
#194 = CARTESIAN_POINT('', (80., 0., 0.));
#195 = CARTESIAN_POINT('', (80., 0., 50.));
#196 = ADVANCED_FACE('', (#197), #207, .F.);
#197 = FACE_OUTER_BOUND('', #198, .F.);
#198 = EDGE_LOOP('', (#199, #200, #201, #202));
#199 = ORIENTED_EDGE('', *, *, #165, .F.);
#200 = ORIENTED_EDGE('', *, *, #92, .F.);
#201 = ORIENTED_EDGE('', *, *, #143, .F.);
#202 = ORIENTED_EDGE('', *, *, #203, .T.);
#203 = EDGE_CURVE('', #131, #157, #204, .T.);
#204 = B_SPLINE_CURVE_WITH_KNOTS('', 1, (#205, #206), .UNSPECIFIED., .F., .U., (2, 2), (0., 0.8), .UNSPECIFIED.);
#205 = CARTESIAN_POINT('', (0., 20., 30.));
#206 = CARTESIAN_POINT('', (80., 20., 30.));
#207 = B_SPLINE_SURFACE_WITH_KNOTS('', 1, 1, ((#208, #209), (#210, #211)), .UNSPECIFIED., .F., .F., .U., (2, 2), (2, 2), (0., 1.), (0., 1.), .UNSPECIFIED.);
#208 = CARTESIAN_POINT('', (0., 20., 30.));
#209 = CARTESIAN_POINT('', (0., 20., 200.));
#210 = CARTESIAN_POINT('', (100., 20., 30.));
#211 = CARTESIAN_POINT('', (100., 20., 200.));
#212 = ADVANCED_FACE('', (#213), #219, .F.);
#213 = FACE_OUTER_BOUND('', #214, .F.);
#214 = EDGE_LOOP('', (#215, #216, #217, #218));
#215 = ORIENTED_EDGE('', *, *, #184, .F.);
#216 = ORIENTED_EDGE('', *, *, #156, .F.);
#217 = ORIENTED_EDGE('', *, *, #203, .F.);
#218 = ORIENTED_EDGE('', *, *, #128, .F.);
#219 = B_SPLINE_SURFACE_WITH_KNOTS('', 1, 1, ((#220, #221), (#222, #223)), .UNSPECIFIED., .F., .F., .U., (2, 2), (2, 2), (0., 1.), (0., 1.), .UNSPECIFIED.);
#220 = CARTESIAN_POINT('', (0., -70., 30.));
#221 = CARTESIAN_POINT('', (0., 20., 30.));
#222 = CARTESIAN_POINT('', (100., -70., 30.));
#223 = CARTESIAN_POINT('', (100., 20., 30.));
#224 = PRESENTATION_STYLE_ASSIGNMENT((#225));
#225 = SURFACE_STYLE_USAGE(.POSITIVE., #226);
#226 = SURFACE_SIDE_STYLE('', (#227));
#227 = SURFACE_STYLE_FILL_AREA(#228);
#228 = FILL_AREA_STYLE('', (#229));
#229 = FILL_AREA_STYLE_COLOUR('', #230);
#230 = COLOUR_RGB('', 0.50196078431373, 0.50196078431373, 0.50196078431373);
#231 = STYLED_ITEM('', (#224), #86);
#232 = CARTESIAN_POINT('Origin', (0., 0., 0.));
#233 = GEOMETRIC_SET('', (#232));
#234 = (
   GEOMETRIC_REPRESENTATION_CONTEXT (3)
   GLOBAL_UNCERTAINTY_ASSIGNED_CONTEXT ((#236))
   GLOBAL_UNIT_ASSIGNED_CONTEXT ((#235, #237, #238))
   REPRESENTATION_CONTEXT ('', '3D')
);
#235 = (
   LENGTH_UNIT ()
   NAMED_UNIT (*)
   SI_UNIT (.MILLI., .METRE.)
);
#236 = UNCERTAINTY_MEASURE_WITH_UNIT(LENGTH_MEASURE(1.E-6), #235, 'DISTANCE_ACCURACY_VALUE', '');
#237 = (
   NAMED_UNIT (*)
   SI_UNIT ($, .STERADIAN.)
   SOLID_ANGLE_UNIT ()
);
#238 = (
   NAMED_UNIT (*)
   PLANE_ANGLE_UNIT ()
   SI_UNIT ($, .RADIAN.)
);
#239 = SHAPE_REPRESENTATION('', (#254), #234);
#240 = PRODUCT_DEFINITION_SHAPE('', '', #241);
#241 = PRODUCT_DEFINITION('', '', #244, #248);
#242 = APPLICATION_CONTEXT('configuration controlled 3D designs of mechanical parts and assemblies');
#243 = APPLICATION_PROTOCOL_DEFINITION('International Standard', 'automotive_design', 2002, #242);
#244 = PRODUCT_DEFINITION_FORMATION_WITH_SPECIFIED_SOURCE('', '', #245, .NOT_KNOWN.);
#245 = PRODUCT('RightPlaneVert', 'RightPlaneVert', '', (#246));
#246 = PRODUCT_CONTEXT('', #242, 'mechanical');
#247 = PRODUCT_RELATED_PRODUCT_CATEGORY('detail', '', (#245));
#248 = PRODUCT_DEFINITION_CONTEXT('part definition', #242, 'design');
#249 = SHAPE_DEFINITION_REPRESENTATION(#240, #239);
#250 = SHAPE_REPRESENTATION_RELATIONSHIP('', '', #239, #251);
#251 = SHAPE_REPRESENTATION('', (#233), #234);
#252 = SHAPE_REPRESENTATION_RELATIONSHIP('', '', #239, #253);
#253 = ADVANCED_BREP_SHAPE_REPRESENTATION('', (#1, #86), #234);
#254 = AXIS2_PLACEMENT_3D('', #255, #256, #257);
#255 = CARTESIAN_POINT('', (0., 0., 0.));
#256 = DIRECTION('', (0., 0., 1.));
#257 = DIRECTION('', (1., 0., 0.));
ENDSEC;
END-ISO-10303-21;
