ISO-10303-21;
HEADER;
FILE_DESCRIPTION(('STEP'), '1');
FILE_NAME('InvertedOnly', '2026-04-20T09:13:49', (''), (''), 'Express 3.1.2.0', 'Express Tool', 'Unknown');
FILE_SCHEMA(('AUTOMOTIVE_DESIGN'));
ENDSEC;

DATA;
#1 = MANIFOLD_SOLID_BREP('Box_0', #2);
#2 = CLOSED_SHELL('', (#3, #39, #67, #95, #115, #127));
#3 = ADVANCED_FACE('', (#4), #34, .T.);
#4 = FACE_OUTER_BOUND('', #5, .T.);
#5 = EDGE_LOOP('', (#6, #15, #22, #29));
#6 = ORIENTED_EDGE('', *, *, #7, .T.);
#7 = EDGE_CURVE('', #8, #10, #12, .T.);
#8 = VERTEX_POINT('', #9);
#9 = CARTESIAN_POINT('', (0., 60., 0.));
#10 = VERTEX_POINT('', #11);
#11 = CARTESIAN_POINT('', (0., 60., 50.));
#12 = B_SPLINE_CURVE_WITH_KNOTS('', 1, (#13, #14), .UNSPECIFIED., .F., .U., (2, 2), (0., 50.), .UNSPECIFIED.);
#13 = CARTESIAN_POINT('', (0., 60., 0.));
#14 = CARTESIAN_POINT('', (0., 60., 50.));
#15 = ORIENTED_EDGE('', *, *, #16, .T.);
#16 = EDGE_CURVE('', #10, #17, #19, .T.);
#17 = VERTEX_POINT('', #18);
#18 = CARTESIAN_POINT('', (80., 60., 50.));
#19 = B_SPLINE_CURVE_WITH_KNOTS('', 1, (#20, #21), .UNSPECIFIED., .F., .U., (2, 2), (0., 80.), .UNSPECIFIED.);
#20 = CARTESIAN_POINT('', (0., 60., 50.));
#21 = CARTESIAN_POINT('', (80., 60., 50.));
#22 = ORIENTED_EDGE('', *, *, #23, .F.);
#23 = EDGE_CURVE('', #24, #17, #26, .T.);
#24 = VERTEX_POINT('', #25);
#25 = CARTESIAN_POINT('', (80., 60., 0.));
#26 = B_SPLINE_CURVE_WITH_KNOTS('', 1, (#27, #28), .UNSPECIFIED., .F., .U., (2, 2), (0., 50.), .UNSPECIFIED.);
#27 = CARTESIAN_POINT('', (80., 60., 0.));
#28 = CARTESIAN_POINT('', (80., 60., 50.));
#29 = ORIENTED_EDGE('', *, *, #30, .F.);
#30 = EDGE_CURVE('', #8, #24, #31, .T.);
#31 = B_SPLINE_CURVE_WITH_KNOTS('', 1, (#32, #33), .UNSPECIFIED., .F., .U., (2, 2), (0., 80.), .UNSPECIFIED.);
#32 = CARTESIAN_POINT('', (0., 60., 0.));
#33 = CARTESIAN_POINT('', (80., 60., 0.));
#34 = B_SPLINE_SURFACE_WITH_KNOTS('', 1, 1, ((#35, #36), (#37, #38)), .UNSPECIFIED., .F., .F., .U., (2, 2), (2, 2), (0., 50.), (0., 80.), .UNSPECIFIED.);
#35 = CARTESIAN_POINT('', (0., 60., 0.));
#36 = CARTESIAN_POINT('', (80., 60., 0.));
#37 = CARTESIAN_POINT('', (0., 60., 50.));
#38 = CARTESIAN_POINT('', (80., 60., 50.));
#39 = ADVANCED_FACE('', (#40), #62, .T.);
#40 = FACE_OUTER_BOUND('', #41, .T.);
#41 = EDGE_LOOP('', (#42, #49, #56, #61));
#42 = ORIENTED_EDGE('', *, *, #43, .F.);
#43 = EDGE_CURVE('', #44, #10, #46, .T.);
#44 = VERTEX_POINT('', #45);
#45 = CARTESIAN_POINT('', (0., 0., 50.));
#46 = B_SPLINE_CURVE_WITH_KNOTS('', 1, (#47, #48), .UNSPECIFIED., .F., .U., (2, 2), (0., 60.), .UNSPECIFIED.);
#47 = CARTESIAN_POINT('', (0., 0., 50.));
#48 = CARTESIAN_POINT('', (0., 60., 50.));
#49 = ORIENTED_EDGE('', *, *, #50, .T.);
#50 = EDGE_CURVE('', #44, #51, #53, .T.);
#51 = VERTEX_POINT('', #52);
#52 = CARTESIAN_POINT('', (80., 0., 50.));
#53 = B_SPLINE_CURVE_WITH_KNOTS('', 1, (#54, #55), .UNSPECIFIED., .F., .U., (2, 2), (0., 80.), .UNSPECIFIED.);
#54 = CARTESIAN_POINT('', (0., 0., 50.));
#55 = CARTESIAN_POINT('', (80., 0., 50.));
#56 = ORIENTED_EDGE('', *, *, #57, .T.);
#57 = EDGE_CURVE('', #51, #17, #58, .T.);
#58 = B_SPLINE_CURVE_WITH_KNOTS('', 1, (#59, #60), .UNSPECIFIED., .F., .U., (2, 2), (0., 60.), .UNSPECIFIED.);
#59 = CARTESIAN_POINT('', (80., 0., 50.));
#60 = CARTESIAN_POINT('', (80., 60., 50.));
#61 = ORIENTED_EDGE('', *, *, #16, .F.);
#62 = B_SPLINE_SURFACE_WITH_KNOTS('', 1, 1, ((#63, #64), (#65, #66)), .UNSPECIFIED., .F., .F., .U., (2, 2), (2, 2), (0., 80.), (0., 60.), .UNSPECIFIED.);
#63 = CARTESIAN_POINT('', (0., 0., 50.));
#64 = CARTESIAN_POINT('', (0., 60., 50.));
#65 = CARTESIAN_POINT('', (80., 0., 50.));
#66 = CARTESIAN_POINT('', (80., 60., 50.));
#67 = ADVANCED_FACE('', (#68), #90, .T.);
#68 = FACE_OUTER_BOUND('', #69, .T.);
#69 = EDGE_LOOP('', (#70, #77, #84, #89));
#70 = ORIENTED_EDGE('', *, *, #71, .F.);
#71 = EDGE_CURVE('', #72, #44, #74, .T.);
#72 = VERTEX_POINT('', #73);
#73 = CARTESIAN_POINT('', (0., 0., 0.));
#74 = B_SPLINE_CURVE_WITH_KNOTS('', 1, (#75, #76), .UNSPECIFIED., .F., .U., (2, 2), (0., 50.), .UNSPECIFIED.);
#75 = CARTESIAN_POINT('', (0., 0., 0.));
#76 = CARTESIAN_POINT('', (0., 0., 50.));
#77 = ORIENTED_EDGE('', *, *, #78, .T.);
#78 = EDGE_CURVE('', #72, #79, #81, .T.);
#79 = VERTEX_POINT('', #80);
#80 = CARTESIAN_POINT('', (80., 0., 0.));
#81 = B_SPLINE_CURVE_WITH_KNOTS('', 1, (#82, #83), .UNSPECIFIED., .F., .U., (2, 2), (0., 80.), .UNSPECIFIED.);
#82 = CARTESIAN_POINT('', (0., 0., 0.));
#83 = CARTESIAN_POINT('', (80., 0., 0.));
#84 = ORIENTED_EDGE('', *, *, #85, .T.);
#85 = EDGE_CURVE('', #79, #51, #86, .T.);
#86 = B_SPLINE_CURVE_WITH_KNOTS('', 1, (#87, #88), .UNSPECIFIED., .F., .U., (2, 2), (0., 50.), .UNSPECIFIED.);
#87 = CARTESIAN_POINT('', (80., 0., 0.));
#88 = CARTESIAN_POINT('', (80., 0., 50.));
#89 = ORIENTED_EDGE('', *, *, #50, .F.);
#90 = B_SPLINE_SURFACE_WITH_KNOTS('', 1, 1, ((#91, #92), (#93, #94)), .UNSPECIFIED., .F., .F., .U., (2, 2), (2, 2), (0., 80.), (0., 50.), .UNSPECIFIED.);
#91 = CARTESIAN_POINT('', (0., 0., 0.));
#92 = CARTESIAN_POINT('', (0., 0., 50.));
#93 = CARTESIAN_POINT('', (80., 0., 0.));
#94 = CARTESIAN_POINT('', (80., 0., 50.));
#95 = ADVANCED_FACE('', (#96), #110, .T.);
#96 = FACE_OUTER_BOUND('', #97, .T.);
#97 = EDGE_LOOP('', (#98, #103, #104, #109));
#98 = ORIENTED_EDGE('', *, *, #99, .T.);
#99 = EDGE_CURVE('', #72, #8, #100, .T.);
#100 = B_SPLINE_CURVE_WITH_KNOTS('', 1, (#101, #102), .UNSPECIFIED., .F., .U., (2, 2), (0., 60.), .UNSPECIFIED.);
#101 = CARTESIAN_POINT('', (0., 0., 0.));
#102 = CARTESIAN_POINT('', (0., 60., 0.));
#103 = ORIENTED_EDGE('', *, *, #30, .T.);
#104 = ORIENTED_EDGE('', *, *, #105, .F.);
#105 = EDGE_CURVE('', #79, #24, #106, .T.);
#106 = B_SPLINE_CURVE_WITH_KNOTS('', 1, (#107, #108), .UNSPECIFIED., .F., .U., (2, 2), (0., 60.), .UNSPECIFIED.);
#107 = CARTESIAN_POINT('', (80., 0., 0.));
#108 = CARTESIAN_POINT('', (80., 60., 0.));
#109 = ORIENTED_EDGE('', *, *, #78, .F.);
#110 = B_SPLINE_SURFACE_WITH_KNOTS('', 1, 1, ((#111, #112), (#113, #114)), .UNSPECIFIED., .F., .F., .U., (2, 2), (2, 2), (0., 60.), (0., 80.), .UNSPECIFIED.);
#111 = CARTESIAN_POINT('', (0., 0., 0.));
#112 = CARTESIAN_POINT('', (80., 0., 0.));
#113 = CARTESIAN_POINT('', (0., 60., 0.));
#114 = CARTESIAN_POINT('', (80., 60., 0.));
#115 = ADVANCED_FACE('', (#116), #122, .T.);
#116 = FACE_OUTER_BOUND('', #117, .T.);
#117 = EDGE_LOOP('', (#118, #119, #120, #121));
#118 = ORIENTED_EDGE('', *, *, #85, .F.);
#119 = ORIENTED_EDGE('', *, *, #105, .T.);
#120 = ORIENTED_EDGE('', *, *, #23, .T.);
#121 = ORIENTED_EDGE('', *, *, #57, .F.);
#122 = B_SPLINE_SURFACE_WITH_KNOTS('', 1, 1, ((#123, #124), (#125, #126)), .UNSPECIFIED., .F., .F., .U., (2, 2), (2, 2), (0., 60.), (0., 50.), .UNSPECIFIED.);
#123 = CARTESIAN_POINT('', (80., 0., 0.));
#124 = CARTESIAN_POINT('', (80., 0., 50.));
#125 = CARTESIAN_POINT('', (80., 60., 0.));
#126 = CARTESIAN_POINT('', (80., 60., 50.));
#127 = ADVANCED_FACE('', (#128), #134, .T.);
#128 = FACE_OUTER_BOUND('', #129, .T.);
#129 = EDGE_LOOP('', (#130, #131, #132, #133));
#130 = ORIENTED_EDGE('', *, *, #71, .T.);
#131 = ORIENTED_EDGE('', *, *, #43, .T.);
#132 = ORIENTED_EDGE('', *, *, #7, .F.);
#133 = ORIENTED_EDGE('', *, *, #99, .F.);
#134 = B_SPLINE_SURFACE_WITH_KNOTS('', 1, 1, ((#135, #136), (#137, #138)), .UNSPECIFIED., .F., .F., .U., (2, 2), (2, 2), (0., 50.), (0., 60.), .UNSPECIFIED.);
#135 = CARTESIAN_POINT('', (0., 0., 0.));
#136 = CARTESIAN_POINT('', (0., 60., 0.));
#137 = CARTESIAN_POINT('', (0., 0., 50.));
#138 = CARTESIAN_POINT('', (0., 60., 50.));
#139 = DRAUGHTING_MODEL('', (#147, #231, #353), #356);
#140 = PRESENTATION_STYLE_ASSIGNMENT((#141));
#141 = SURFACE_STYLE_USAGE(.POSITIVE., #142);
#142 = SURFACE_SIDE_STYLE('', (#143));
#143 = SURFACE_STYLE_FILL_AREA(#144);
#144 = FILL_AREA_STYLE('', (#145));
#145 = FILL_AREA_STYLE_COLOUR('', #146);
#146 = COLOUR_RGB('', 0.50196078431373, 0.50196078431373, 0.50196078431373);
#147 = STYLED_ITEM('', (#140), #1);
#148 = MANIFOLD_SOLID_BREP('Ref_0', #149);
#149 = CLOSED_SHELL('', (#150, #206, #215));
#150 = ADVANCED_FACE('', (#151), #187, .T.);
#151 = FACE_OUTER_BOUND('', #152, .T.);
#152 = EDGE_LOOP('', (#153, #162, #174, #175));
#153 = ORIENTED_EDGE('', *, *, #154, .F.);
#154 = EDGE_CURVE('', #155, #157, #159, .T.);
#155 = VERTEX_POINT('', #156);
#156 = CARTESIAN_POINT('', (50., 0., 0.));
#157 = VERTEX_POINT('', #158);
#158 = CARTESIAN_POINT('', (50., 0., 80.));
#159 = B_SPLINE_CURVE_WITH_KNOTS('', 1, (#160, #161), .UNSPECIFIED., .F., .U., (2, 2), (0., 80.), .UNSPECIFIED.);
#160 = CARTESIAN_POINT('', (50., 0., 0.));
#161 = CARTESIAN_POINT('', (50., 0., 80.));
#162 = ORIENTED_EDGE('', *, *, #163, .T.);
#163 = EDGE_CURVE('', #155, #155, #164, .T.);
#164 = (
   BOUNDED_CURVE ()
   B_SPLINE_CURVE (2, (#165, #166, #167, #168, #169, #170, #171, #172, #173), .UNSPECIFIED., .T., .U.)
   B_SPLINE_CURVE_WITH_KNOTS ((3, 2, 2, 2, 3), (0., 78.5398163397448, 157.07963267949, 235.619449019235, 314.159265358979), .UNSPECIFIED.)
   CURVE ()
   GEOMETRIC_REPRESENTATION_ITEM ()
   RATIONAL_B_SPLINE_CURVE ((1., 0.707106781186548, 1., 0.707106781186548, 1., 0.707106781186548, 1., 0.707106781186548, 1.))
   REPRESENTATION_ITEM ('')
);
#165 = CARTESIAN_POINT('', (50., 0., 0.));
#166 = CARTESIAN_POINT('', (50., 50., 0.));
#167 = CARTESIAN_POINT('', (3.06161699786838E-15, 50., 0.));
#168 = CARTESIAN_POINT('', (-50., 50., 0.));
#169 = CARTESIAN_POINT('', (-50., 6.12323399573677E-15, 0.));
#170 = CARTESIAN_POINT('', (-50., -50., 0.));
#171 = CARTESIAN_POINT('', (-9.18485099360515E-15, -50., 0.));
#172 = CARTESIAN_POINT('', (50., -50., 0.));
#173 = CARTESIAN_POINT('', (50., 0., 0.));
#174 = ORIENTED_EDGE('', *, *, #154, .T.);
#175 = ORIENTED_EDGE('', *, *, #176, .F.);
#176 = EDGE_CURVE('', #157, #157, #177, .T.);
#177 = (
   BOUNDED_CURVE ()
   B_SPLINE_CURVE (2, (#178, #179, #180, #181, #182, #183, #184, #185, #186), .UNSPECIFIED., .T., .U.)
   B_SPLINE_CURVE_WITH_KNOTS ((3, 2, 2, 2, 3), (0., 78.5398163397448, 157.07963267949, 235.619449019235, 314.159265358979), .UNSPECIFIED.)
   CURVE ()
   GEOMETRIC_REPRESENTATION_ITEM ()
   RATIONAL_B_SPLINE_CURVE ((1., 0.707106781186548, 1., 0.707106781186548, 1., 0.707106781186548, 1., 0.707106781186548, 1.))
   REPRESENTATION_ITEM ('')
);
#178 = CARTESIAN_POINT('', (50., 0., 80.));
#179 = CARTESIAN_POINT('', (50., 50., 80.));
#180 = CARTESIAN_POINT('', (3.06161699786838E-15, 50., 80.));
#181 = CARTESIAN_POINT('', (-50., 50., 80.));
#182 = CARTESIAN_POINT('', (-50., 6.12323399573677E-15, 80.));
#183 = CARTESIAN_POINT('', (-50., -50., 80.));
#184 = CARTESIAN_POINT('', (-9.18485099360515E-15, -50., 80.));
#185 = CARTESIAN_POINT('', (50., -50., 80.));
#186 = CARTESIAN_POINT('', (50., 0., 80.));
#187 = (
   BOUNDED_SURFACE ()
   B_SPLINE_SURFACE (2, 1, ((#188, #189), (#190, #191), (#192, #193), (#194, #195), (#196, #197), (#198, #199), (#200, #201), (#202, #203), (#204, #205)), .UNSPECIFIED., .T., .F., .U.)
   B_SPLINE_SURFACE_WITH_KNOTS ((3, 2, 2, 2, 3), (2, 2), (0., 78.5398163397448, 157.07963267949, 235.619449019235, 314.159265358979), (0., 80.), .UNSPECIFIED.)
   GEOMETRIC_REPRESENTATION_ITEM ()
   RATIONAL_B_SPLINE_SURFACE (((1., 1.), (0.707106781186548, 0.707106781186548), (1., 1.), (0.707106781186548, 0.707106781186548), (1., 1.), (0.707106781186548, 0.707106781186548), (1., 1.), (0.707106781186548, 0.707106781186548), (1., 1.)))
   REPRESENTATION_ITEM ('')
   SURFACE ()
);
#188 = CARTESIAN_POINT('', (50., 0., 0.));
#189 = CARTESIAN_POINT('', (50., 0., 80.));
#190 = CARTESIAN_POINT('', (50., 50., 0.));
#191 = CARTESIAN_POINT('', (50., 50., 80.));
#192 = CARTESIAN_POINT('', (3.06161699786838E-15, 50., 0.));
#193 = CARTESIAN_POINT('', (3.06161699786838E-15, 50., 80.));
#194 = CARTESIAN_POINT('', (-50., 50., 0.));
#195 = CARTESIAN_POINT('', (-50., 50., 80.));
#196 = CARTESIAN_POINT('', (-50., 6.12323399573677E-15, 0.));
#197 = CARTESIAN_POINT('', (-50., 6.12323399573677E-15, 80.));
#198 = CARTESIAN_POINT('', (-50., -50., 0.));
#199 = CARTESIAN_POINT('', (-50., -50., 80.));
#200 = CARTESIAN_POINT('', (-9.18485099360515E-15, -50., 0.));
#201 = CARTESIAN_POINT('', (-9.18485099360515E-15, -50., 80.));
#202 = CARTESIAN_POINT('', (50., -50., 0.));
#203 = CARTESIAN_POINT('', (50., -50., 80.));
#204 = CARTESIAN_POINT('', (50., 0., 0.));
#205 = CARTESIAN_POINT('', (50., 0., 80.));
#206 = ADVANCED_FACE('', (#207), #210, .T.);
#207 = FACE_OUTER_BOUND('', #208, .T.);
#208 = EDGE_LOOP('', (#209));
#209 = ORIENTED_EDGE('', *, *, #163, .F.);
#210 = B_SPLINE_SURFACE_WITH_KNOTS('', 1, 1, ((#211, #212), (#213, #214)), .UNSPECIFIED., .F., .F., .U., (2, 2), (2, 2), (0., 1.), (0., 1.), .UNSPECIFIED.);
#211 = CARTESIAN_POINT('', (77.7817459305203, -77.7817459305203, 0.));
#212 = CARTESIAN_POINT('', (77.7817459305203, 77.7817459305203, 0.));
#213 = CARTESIAN_POINT('', (-77.7817459305203, -77.7817459305203, 0.));
#214 = CARTESIAN_POINT('', (-77.7817459305203, 77.7817459305203, 0.));
#215 = ADVANCED_FACE('', (#216), #219, .T.);
#216 = FACE_OUTER_BOUND('', #217, .T.);
#217 = EDGE_LOOP('', (#218));
#218 = ORIENTED_EDGE('', *, *, #176, .T.);
#219 = B_SPLINE_SURFACE_WITH_KNOTS('', 1, 1, ((#220, #221), (#222, #223)), .UNSPECIFIED., .F., .F., .U., (2, 2), (2, 2), (0., 1.), (0., 1.), .UNSPECIFIED.);
#220 = CARTESIAN_POINT('', (77.7817459305203, -77.7817459305203, 80.));
#221 = CARTESIAN_POINT('', (-77.7817459305203, -77.7817459305203, 80.));
#222 = CARTESIAN_POINT('', (77.7817459305203, 77.7817459305203, 80.));
#223 = CARTESIAN_POINT('', (-77.7817459305203, 77.7817459305203, 80.));
#224 = PRESENTATION_STYLE_ASSIGNMENT((#225));
#225 = SURFACE_STYLE_USAGE(.POSITIVE., #226);
#226 = SURFACE_SIDE_STYLE('', (#227));
#227 = SURFACE_STYLE_FILL_AREA(#228);
#228 = FILL_AREA_STYLE('', (#229));
#229 = FILL_AREA_STYLE_COLOUR('', #230);
#230 = COLOUR_RGB('', 0.50196078431373, 0.50196078431373, 0.50196078431373);
#231 = STYLED_ITEM('', (#224), #148);
#232 = SHELL_BASED_SURFACE_MODEL('Sheet_0', (#233));
#233 = OPEN_SHELL('', (#234, #270, #298, #326));
#234 = ADVANCED_FACE('', (#235), #265, .T.);
#235 = FACE_OUTER_BOUND('', #236, .T.);
#236 = EDGE_LOOP('', (#237, #246, #253, #260));
#237 = ORIENTED_EDGE('', *, *, #238, .F.);
#238 = EDGE_CURVE('', #239, #241, #243, .T.);
#239 = VERTEX_POINT('', #240);
#240 = CARTESIAN_POINT('', (-20., 0., -200.));
#241 = VERTEX_POINT('', #242);
#242 = CARTESIAN_POINT('', (-20., 80., -200.));
#243 = B_SPLINE_CURVE_WITH_KNOTS('', 1, (#244, #245), .UNSPECIFIED., .F., .U., (2, 2), (0., 1.), .UNSPECIFIED.);
#244 = CARTESIAN_POINT('', (-20., 0., -200.));
#245 = CARTESIAN_POINT('', (-20., 80., -200.));
#246 = ORIENTED_EDGE('', *, *, #247, .T.);
#247 = EDGE_CURVE('', #239, #248, #250, .T.);
#248 = VERTEX_POINT('', #249);
#249 = CARTESIAN_POINT('', (-20., 0., -25.));
#250 = B_SPLINE_CURVE_WITH_KNOTS('', 1, (#251, #252), .UNSPECIFIED., .F., .U., (2, 2), (0., 1.), .UNSPECIFIED.);
#251 = CARTESIAN_POINT('', (-20., 0., -200.));
#252 = CARTESIAN_POINT('', (-20., 0., -25.));
#253 = ORIENTED_EDGE('', *, *, #254, .T.);
#254 = EDGE_CURVE('', #248, #255, #257, .T.);
#255 = VERTEX_POINT('', #256);
#256 = CARTESIAN_POINT('', (-20., 80., -25.));
#257 = B_SPLINE_CURVE_WITH_KNOTS('', 1, (#258, #259), .UNSPECIFIED., .F., .U., (2, 2), (0., 1.), .UNSPECIFIED.);
#258 = CARTESIAN_POINT('', (-20., 0., -25.));
#259 = CARTESIAN_POINT('', (-20., 80., -25.));
#260 = ORIENTED_EDGE('', *, *, #261, .F.);
#261 = EDGE_CURVE('', #241, #255, #262, .T.);
#262 = B_SPLINE_CURVE_WITH_KNOTS('', 1, (#263, #264), .UNSPECIFIED., .F., .U., (2, 2), (0., 1.), .UNSPECIFIED.);
#263 = CARTESIAN_POINT('', (-20., 80., -200.));
#264 = CARTESIAN_POINT('', (-20., 80., -25.));
#265 = B_SPLINE_SURFACE_WITH_KNOTS('', 1, 1, ((#266, #267), (#268, #269)), .UNSPECIFIED., .F., .F., .U., (2, 2), (2, 2), (0., 1.), (0., 1.), .UNSPECIFIED.);
#266 = CARTESIAN_POINT('', (-20., 0., -200.));
#267 = CARTESIAN_POINT('', (-20., 80., -200.));
#268 = CARTESIAN_POINT('', (-20., 0., -25.));
#269 = CARTESIAN_POINT('', (-20., 80., -25.));
#270 = ADVANCED_FACE('', (#271), #293, .T.);
#271 = FACE_OUTER_BOUND('', #272, .T.);
#272 = EDGE_LOOP('', (#273, #282, #287, #288));
#273 = ORIENTED_EDGE('', *, *, #274, .F.);
#274 = EDGE_CURVE('', #275, #277, #279, .T.);
#275 = VERTEX_POINT('', #276);
#276 = CARTESIAN_POINT('', (100., 0., -200.));
#277 = VERTEX_POINT('', #278);
#278 = CARTESIAN_POINT('', (100., 80., -200.));
#279 = B_SPLINE_CURVE_WITH_KNOTS('', 1, (#280, #281), .UNSPECIFIED., .F., .U., (2, 2), (0., 1.), .UNSPECIFIED.);
#280 = CARTESIAN_POINT('', (100., 0., -200.));
#281 = CARTESIAN_POINT('', (100., 80., -200.));
#282 = ORIENTED_EDGE('', *, *, #283, .T.);
#283 = EDGE_CURVE('', #275, #239, #284, .T.);
#284 = B_SPLINE_CURVE_WITH_KNOTS('', 1, (#285, #286), .UNSPECIFIED., .F., .U., (2, 2), (0., 1.), .UNSPECIFIED.);
#285 = CARTESIAN_POINT('', (100., 0., -200.));
#286 = CARTESIAN_POINT('', (-20., 0., -200.));
#287 = ORIENTED_EDGE('', *, *, #238, .T.);
#288 = ORIENTED_EDGE('', *, *, #289, .F.);
#289 = EDGE_CURVE('', #277, #241, #290, .T.);
#290 = B_SPLINE_CURVE_WITH_KNOTS('', 1, (#291, #292), .UNSPECIFIED., .F., .U., (2, 2), (0., 1.), .UNSPECIFIED.);
#291 = CARTESIAN_POINT('', (100., 80., -200.));
#292 = CARTESIAN_POINT('', (-20., 80., -200.));
#293 = B_SPLINE_SURFACE_WITH_KNOTS('', 1, 1, ((#294, #295), (#296, #297)), .UNSPECIFIED., .F., .F., .U., (2, 2), (2, 2), (0., 1.), (0., 1.), .UNSPECIFIED.);
#294 = CARTESIAN_POINT('', (100., 0., -200.));
#295 = CARTESIAN_POINT('', (100., 80., -200.));
#296 = CARTESIAN_POINT('', (-20., 0., -200.));
#297 = CARTESIAN_POINT('', (-20., 80., -200.));
#298 = ADVANCED_FACE('', (#299), #321, .T.);
#299 = FACE_OUTER_BOUND('', #300, .T.);
#300 = EDGE_LOOP('', (#301, #310, #315, #316));
#301 = ORIENTED_EDGE('', *, *, #302, .F.);
#302 = EDGE_CURVE('', #303, #305, #307, .T.);
#303 = VERTEX_POINT('', #304);
#304 = CARTESIAN_POINT('', (100., 0., -25.));
#305 = VERTEX_POINT('', #306);
#306 = CARTESIAN_POINT('', (100., 80., -25.));
#307 = B_SPLINE_CURVE_WITH_KNOTS('', 1, (#308, #309), .UNSPECIFIED., .F., .U., (2, 2), (0., 1.), .UNSPECIFIED.);
#308 = CARTESIAN_POINT('', (100., 0., -25.));
#309 = CARTESIAN_POINT('', (100., 80., -25.));
#310 = ORIENTED_EDGE('', *, *, #311, .T.);
#311 = EDGE_CURVE('', #303, #275, #312, .T.);
#312 = B_SPLINE_CURVE_WITH_KNOTS('', 1, (#313, #314), .UNSPECIFIED., .F., .U., (2, 2), (0., 1.), .UNSPECIFIED.);
#313 = CARTESIAN_POINT('', (100., 0., -25.));
#314 = CARTESIAN_POINT('', (100., 0., -200.));
#315 = ORIENTED_EDGE('', *, *, #274, .T.);
#316 = ORIENTED_EDGE('', *, *, #317, .F.);
#317 = EDGE_CURVE('', #305, #277, #318, .T.);
#318 = B_SPLINE_CURVE_WITH_KNOTS('', 1, (#319, #320), .UNSPECIFIED., .F., .U., (2, 2), (0., 1.), .UNSPECIFIED.);
#319 = CARTESIAN_POINT('', (100., 80., -25.));
#320 = CARTESIAN_POINT('', (100., 80., -200.));
#321 = B_SPLINE_SURFACE_WITH_KNOTS('', 1, 1, ((#322, #323), (#324, #325)), .UNSPECIFIED., .F., .F., .U., (2, 2), (2, 2), (0., 1.), (0., 1.), .UNSPECIFIED.);
#322 = CARTESIAN_POINT('', (100., 0., -25.));
#323 = CARTESIAN_POINT('', (100., 80., -25.));
#324 = CARTESIAN_POINT('', (100., 0., -200.));
#325 = CARTESIAN_POINT('', (100., 80., -200.));
#326 = ADVANCED_FACE('', (#327), #341, .T.);
#327 = FACE_OUTER_BOUND('', #328, .T.);
#328 = EDGE_LOOP('', (#329, #330, #335, #336));
#329 = ORIENTED_EDGE('', *, *, #254, .F.);
#330 = ORIENTED_EDGE('', *, *, #331, .T.);
#331 = EDGE_CURVE('', #248, #303, #332, .T.);
#332 = B_SPLINE_CURVE_WITH_KNOTS('', 1, (#333, #334), .UNSPECIFIED., .F., .U., (2, 2), (0., 1.), .UNSPECIFIED.);
#333 = CARTESIAN_POINT('', (-20., 0., -25.));
#334 = CARTESIAN_POINT('', (100., 0., -25.));
#335 = ORIENTED_EDGE('', *, *, #302, .T.);
#336 = ORIENTED_EDGE('', *, *, #337, .F.);
#337 = EDGE_CURVE('', #255, #305, #338, .T.);
#338 = B_SPLINE_CURVE_WITH_KNOTS('', 1, (#339, #340), .UNSPECIFIED., .F., .U., (2, 2), (0., 1.), .UNSPECIFIED.);
#339 = CARTESIAN_POINT('', (-20., 80., -25.));
#340 = CARTESIAN_POINT('', (100., 80., -25.));
#341 = B_SPLINE_SURFACE_WITH_KNOTS('', 1, 1, ((#342, #343), (#344, #345)), .UNSPECIFIED., .F., .F., .U., (2, 2), (2, 2), (0., 1.), (0., 1.), .UNSPECIFIED.);
#342 = CARTESIAN_POINT('', (-20., 0., -25.));
#343 = CARTESIAN_POINT('', (-20., 80., -25.));
#344 = CARTESIAN_POINT('', (100., 0., -25.));
#345 = CARTESIAN_POINT('', (100., 80., -25.));
#346 = PRESENTATION_STYLE_ASSIGNMENT((#347));
#347 = SURFACE_STYLE_USAGE(.POSITIVE., #348);
#348 = SURFACE_SIDE_STYLE('', (#349));
#349 = SURFACE_STYLE_FILL_AREA(#350);
#350 = FILL_AREA_STYLE('', (#351));
#351 = FILL_AREA_STYLE_COLOUR('', #352);
#352 = COLOUR_RGB('', 0.50196078431373, 0.50196078431373, 0.50196078431373);
#353 = STYLED_ITEM('', (#346), #232);
#354 = CARTESIAN_POINT('Origin', (0., 0., 0.));
#355 = GEOMETRIC_SET('', (#354));
#356 = (
   GEOMETRIC_REPRESENTATION_CONTEXT (3)
   GLOBAL_UNCERTAINTY_ASSIGNED_CONTEXT ((#358))
   GLOBAL_UNIT_ASSIGNED_CONTEXT ((#357, #359, #360))
   REPRESENTATION_CONTEXT ('', '3D')
);
#357 = (
   LENGTH_UNIT ()
   NAMED_UNIT (*)
   SI_UNIT (.MILLI., .METRE.)
);
#358 = UNCERTAINTY_MEASURE_WITH_UNIT(LENGTH_MEASURE(1.E-6), #357, 'DISTANCE_ACCURACY_VALUE', '');
#359 = (
   NAMED_UNIT (*)
   SI_UNIT ($, .STERADIAN.)
   SOLID_ANGLE_UNIT ()
);
#360 = (
   NAMED_UNIT (*)
   PLANE_ANGLE_UNIT ()
   SI_UNIT ($, .RADIAN.)
);
#361 = SHAPE_REPRESENTATION('', (#378), #356);
#362 = PRODUCT_DEFINITION_SHAPE('', '', #363);
#363 = PRODUCT_DEFINITION('', '', #366, #370);
#364 = APPLICATION_CONTEXT('configuration controlled 3D designs of mechanical parts and assemblies');
#365 = APPLICATION_PROTOCOL_DEFINITION('International Standard', 'automotive_design', 2002, #364);
#366 = PRODUCT_DEFINITION_FORMATION_WITH_SPECIFIED_SOURCE('', '', #367, .NOT_KNOWN.);
#367 = PRODUCT('InvertedOnly', 'InvertedOnly', '', (#368));
#368 = PRODUCT_CONTEXT('', #364, 'mechanical');
#369 = PRODUCT_RELATED_PRODUCT_CATEGORY('detail', '', (#367));
#370 = PRODUCT_DEFINITION_CONTEXT('part definition', #364, 'design');
#371 = SHAPE_DEFINITION_REPRESENTATION(#362, #361);
#372 = SHAPE_REPRESENTATION_RELATIONSHIP('', '', #361, #373);
#373 = SHAPE_REPRESENTATION('', (#355), #356);
#374 = SHAPE_REPRESENTATION_RELATIONSHIP('', '', #361, #375);
#375 = ADVANCED_BREP_SHAPE_REPRESENTATION('', (#1, #148), #356);
#376 = SHAPE_REPRESENTATION_RELATIONSHIP('', '', #361, #377);
#377 = MANIFOLD_SURFACE_SHAPE_REPRESENTATION('', (#232), #356);
#378 = AXIS2_PLACEMENT_3D('', #379, #380, #381);
#379 = CARTESIAN_POINT('', (0., 0., 0.));
#380 = DIRECTION('', (0., 0., 1.));
#381 = DIRECTION('', (1., 0., 0.));
ENDSEC;
END-ISO-10303-21;
