ISO-10303-21;
HEADER;
FILE_DESCRIPTION(('STEP'), '1');
FILE_NAME('PropagationTest', '2026-04-27T13:52:38', (''), (''), 'Express 3.1.3.0', 'Express Tool', 'Unknown');
FILE_SCHEMA(('AUTOMOTIVE_DESIGN'));
ENDSEC;

DATA;
#1 = (
   GEOMETRIC_REPRESENTATION_CONTEXT (3)
   GLOBAL_UNCERTAINTY_ASSIGNED_CONTEXT ((#3))
   GLOBAL_UNIT_ASSIGNED_CONTEXT ((#2, #4, #5))
   REPRESENTATION_CONTEXT ('', '3D')
);
#2 = (
   LENGTH_UNIT ()
   NAMED_UNIT (*)
   SI_UNIT (.MILLI., .METRE.)
);
#3 = UNCERTAINTY_MEASURE_WITH_UNIT(LENGTH_MEASURE(1.E-6), #2, 'DISTANCE_ACCURACY_VALUE', '');
#4 = (
   NAMED_UNIT (*)
   SI_UNIT ($, .STERADIAN.)
   SOLID_ANGLE_UNIT ()
);
#5 = (
   NAMED_UNIT (*)
   PLANE_ANGLE_UNIT ()
   SI_UNIT ($, .RADIAN.)
);
#6 = SHAPE_REPRESENTATION('', (#274, #287), #1);
#7 = PRODUCT_DEFINITION_SHAPE('', '', #8);
#8 = PRODUCT_DEFINITION('', '', #11, #15);
#9 = APPLICATION_CONTEXT('configuration controlled 3D designs of mechanical parts and assemblies');
#10 = APPLICATION_PROTOCOL_DEFINITION('International Standard', 'automotive_design', 2002, #9);
#11 = PRODUCT_DEFINITION_FORMATION_WITH_SPECIFIED_SOURCE('', '', #12, .NOT_KNOWN.);
#12 = PRODUCT('PropagationTest', 'PropagationTest', '', (#13));
#13 = PRODUCT_CONTEXT('', #9, 'mechanical');
#14 = PRODUCT_RELATED_PRODUCT_CATEGORY('detail', '', (#12));
#15 = PRODUCT_DEFINITION_CONTEXT('part definition', #9, 'design');
#16 = SHAPE_DEFINITION_REPRESENTATION(#7, #6);
#17 = MANIFOLD_SOLID_BREP('Box1_0', #18);
#18 = CLOSED_SHELL('', (#19, #55, #83, #111, #131, #143));
#19 = ADVANCED_FACE('', (#20), #50, .T.);
#20 = FACE_OUTER_BOUND('', #21, .T.);
#21 = EDGE_LOOP('', (#22, #31, #38, #45));
#22 = ORIENTED_EDGE('', *, *, #23, .T.);
#23 = EDGE_CURVE('', #24, #26, #28, .T.);
#24 = VERTEX_POINT('', #25);
#25 = CARTESIAN_POINT('', (0., 40., 0.));
#26 = VERTEX_POINT('', #27);
#27 = CARTESIAN_POINT('', (0., 40., 30.));
#28 = B_SPLINE_CURVE_WITH_KNOTS('', 1, (#29, #30), .UNSPECIFIED., .F., .U., (2, 2), (0., 30.), .UNSPECIFIED.);
#29 = CARTESIAN_POINT('', (0., 40., 0.));
#30 = CARTESIAN_POINT('', (0., 40., 30.));
#31 = ORIENTED_EDGE('', *, *, #32, .T.);
#32 = EDGE_CURVE('', #26, #33, #35, .T.);
#33 = VERTEX_POINT('', #34);
#34 = CARTESIAN_POINT('', (60., 40., 30.));
#35 = B_SPLINE_CURVE_WITH_KNOTS('', 1, (#36, #37), .UNSPECIFIED., .F., .U., (2, 2), (0., 60.), .UNSPECIFIED.);
#36 = CARTESIAN_POINT('', (0., 40., 30.));
#37 = CARTESIAN_POINT('', (60., 40., 30.));
#38 = ORIENTED_EDGE('', *, *, #39, .F.);
#39 = EDGE_CURVE('', #40, #33, #42, .T.);
#40 = VERTEX_POINT('', #41);
#41 = CARTESIAN_POINT('', (60., 40., 0.));
#42 = B_SPLINE_CURVE_WITH_KNOTS('', 1, (#43, #44), .UNSPECIFIED., .F., .U., (2, 2), (0., 30.), .UNSPECIFIED.);
#43 = CARTESIAN_POINT('', (60., 40., 0.));
#44 = CARTESIAN_POINT('', (60., 40., 30.));
#45 = ORIENTED_EDGE('', *, *, #46, .F.);
#46 = EDGE_CURVE('', #24, #40, #47, .T.);
#47 = B_SPLINE_CURVE_WITH_KNOTS('', 1, (#48, #49), .UNSPECIFIED., .F., .U., (2, 2), (0., 60.), .UNSPECIFIED.);
#48 = CARTESIAN_POINT('', (0., 40., 0.));
#49 = CARTESIAN_POINT('', (60., 40., 0.));
#50 = B_SPLINE_SURFACE_WITH_KNOTS('', 1, 1, ((#51, #52), (#53, #54)), .UNSPECIFIED., .F., .F., .U., (2, 2), (2, 2), (0., 30.), (0., 60.), .UNSPECIFIED.);
#51 = CARTESIAN_POINT('', (0., 40., 0.));
#52 = CARTESIAN_POINT('', (60., 40., 0.));
#53 = CARTESIAN_POINT('', (0., 40., 30.));
#54 = CARTESIAN_POINT('', (60., 40., 30.));
#55 = ADVANCED_FACE('', (#56), #78, .T.);
#56 = FACE_OUTER_BOUND('', #57, .T.);
#57 = EDGE_LOOP('', (#58, #65, #72, #77));
#58 = ORIENTED_EDGE('', *, *, #59, .F.);
#59 = EDGE_CURVE('', #60, #26, #62, .T.);
#60 = VERTEX_POINT('', #61);
#61 = CARTESIAN_POINT('', (0., 0., 30.));
#62 = B_SPLINE_CURVE_WITH_KNOTS('', 1, (#63, #64), .UNSPECIFIED., .F., .U., (2, 2), (0., 40.), .UNSPECIFIED.);
#63 = CARTESIAN_POINT('', (0., 0., 30.));
#64 = CARTESIAN_POINT('', (0., 40., 30.));
#65 = ORIENTED_EDGE('', *, *, #66, .T.);
#66 = EDGE_CURVE('', #60, #67, #69, .T.);
#67 = VERTEX_POINT('', #68);
#68 = CARTESIAN_POINT('', (60., 0., 30.));
#69 = B_SPLINE_CURVE_WITH_KNOTS('', 1, (#70, #71), .UNSPECIFIED., .F., .U., (2, 2), (0., 60.), .UNSPECIFIED.);
#70 = CARTESIAN_POINT('', (0., 0., 30.));
#71 = CARTESIAN_POINT('', (60., 0., 30.));
#72 = ORIENTED_EDGE('', *, *, #73, .T.);
#73 = EDGE_CURVE('', #67, #33, #74, .T.);
#74 = B_SPLINE_CURVE_WITH_KNOTS('', 1, (#75, #76), .UNSPECIFIED., .F., .U., (2, 2), (0., 40.), .UNSPECIFIED.);
#75 = CARTESIAN_POINT('', (60., 0., 30.));
#76 = CARTESIAN_POINT('', (60., 40., 30.));
#77 = ORIENTED_EDGE('', *, *, #32, .F.);
#78 = B_SPLINE_SURFACE_WITH_KNOTS('', 1, 1, ((#79, #80), (#81, #82)), .UNSPECIFIED., .F., .F., .U., (2, 2), (2, 2), (0., 60.), (0., 40.), .UNSPECIFIED.);
#79 = CARTESIAN_POINT('', (0., 0., 30.));
#80 = CARTESIAN_POINT('', (0., 40., 30.));
#81 = CARTESIAN_POINT('', (60., 0., 30.));
#82 = CARTESIAN_POINT('', (60., 40., 30.));
#83 = ADVANCED_FACE('', (#84), #106, .T.);
#84 = FACE_OUTER_BOUND('', #85, .T.);
#85 = EDGE_LOOP('', (#86, #93, #100, #105));
#86 = ORIENTED_EDGE('', *, *, #87, .F.);
#87 = EDGE_CURVE('', #88, #60, #90, .T.);
#88 = VERTEX_POINT('', #89);
#89 = CARTESIAN_POINT('', (0., 0., 0.));
#90 = B_SPLINE_CURVE_WITH_KNOTS('', 1, (#91, #92), .UNSPECIFIED., .F., .U., (2, 2), (0., 30.), .UNSPECIFIED.);
#91 = CARTESIAN_POINT('', (0., 0., 0.));
#92 = CARTESIAN_POINT('', (0., 0., 30.));
#93 = ORIENTED_EDGE('', *, *, #94, .T.);
#94 = EDGE_CURVE('', #88, #95, #97, .T.);
#95 = VERTEX_POINT('', #96);
#96 = CARTESIAN_POINT('', (60., 0., 0.));
#97 = B_SPLINE_CURVE_WITH_KNOTS('', 1, (#98, #99), .UNSPECIFIED., .F., .U., (2, 2), (0., 60.), .UNSPECIFIED.);
#98 = CARTESIAN_POINT('', (0., 0., 0.));
#99 = CARTESIAN_POINT('', (60., 0., 0.));
#100 = ORIENTED_EDGE('', *, *, #101, .T.);
#101 = EDGE_CURVE('', #95, #67, #102, .T.);
#102 = B_SPLINE_CURVE_WITH_KNOTS('', 1, (#103, #104), .UNSPECIFIED., .F., .U., (2, 2), (0., 30.), .UNSPECIFIED.);
#103 = CARTESIAN_POINT('', (60., 0., 0.));
#104 = CARTESIAN_POINT('', (60., 0., 30.));
#105 = ORIENTED_EDGE('', *, *, #66, .F.);
#106 = B_SPLINE_SURFACE_WITH_KNOTS('', 1, 1, ((#107, #108), (#109, #110)), .UNSPECIFIED., .F., .F., .U., (2, 2), (2, 2), (0., 60.), (0., 30.), .UNSPECIFIED.);
#107 = CARTESIAN_POINT('', (0., 0., 0.));
#108 = CARTESIAN_POINT('', (0., 0., 30.));
#109 = CARTESIAN_POINT('', (60., 0., 0.));
#110 = CARTESIAN_POINT('', (60., 0., 30.));
#111 = ADVANCED_FACE('', (#112), #126, .T.);
#112 = FACE_OUTER_BOUND('', #113, .T.);
#113 = EDGE_LOOP('', (#114, #119, #120, #125));
#114 = ORIENTED_EDGE('', *, *, #115, .T.);
#115 = EDGE_CURVE('', #88, #24, #116, .T.);
#116 = B_SPLINE_CURVE_WITH_KNOTS('', 1, (#117, #118), .UNSPECIFIED., .F., .U., (2, 2), (0., 40.), .UNSPECIFIED.);
#117 = CARTESIAN_POINT('', (0., 0., 0.));
#118 = CARTESIAN_POINT('', (0., 40., 0.));
#119 = ORIENTED_EDGE('', *, *, #46, .T.);
#120 = ORIENTED_EDGE('', *, *, #121, .F.);
#121 = EDGE_CURVE('', #95, #40, #122, .T.);
#122 = B_SPLINE_CURVE_WITH_KNOTS('', 1, (#123, #124), .UNSPECIFIED., .F., .U., (2, 2), (0., 40.), .UNSPECIFIED.);
#123 = CARTESIAN_POINT('', (60., 0., 0.));
#124 = CARTESIAN_POINT('', (60., 40., 0.));
#125 = ORIENTED_EDGE('', *, *, #94, .F.);
#126 = B_SPLINE_SURFACE_WITH_KNOTS('', 1, 1, ((#127, #128), (#129, #130)), .UNSPECIFIED., .F., .F., .U., (2, 2), (2, 2), (0., 40.), (0., 60.), .UNSPECIFIED.);
#127 = CARTESIAN_POINT('', (0., 0., 0.));
#128 = CARTESIAN_POINT('', (60., 0., 0.));
#129 = CARTESIAN_POINT('', (0., 40., 0.));
#130 = CARTESIAN_POINT('', (60., 40., 0.));
#131 = ADVANCED_FACE('', (#132), #138, .T.);
#132 = FACE_OUTER_BOUND('', #133, .T.);
#133 = EDGE_LOOP('', (#134, #135, #136, #137));
#134 = ORIENTED_EDGE('', *, *, #101, .F.);
#135 = ORIENTED_EDGE('', *, *, #121, .T.);
#136 = ORIENTED_EDGE('', *, *, #39, .T.);
#137 = ORIENTED_EDGE('', *, *, #73, .F.);
#138 = B_SPLINE_SURFACE_WITH_KNOTS('', 1, 1, ((#139, #140), (#141, #142)), .UNSPECIFIED., .F., .F., .U., (2, 2), (2, 2), (0., 40.), (0., 30.), .UNSPECIFIED.);
#139 = CARTESIAN_POINT('', (60., 0., 0.));
#140 = CARTESIAN_POINT('', (60., 0., 30.));
#141 = CARTESIAN_POINT('', (60., 40., 0.));
#142 = CARTESIAN_POINT('', (60., 40., 30.));
#143 = ADVANCED_FACE('', (#144), #150, .T.);
#144 = FACE_OUTER_BOUND('', #145, .T.);
#145 = EDGE_LOOP('', (#146, #147, #148, #149));
#146 = ORIENTED_EDGE('', *, *, #87, .T.);
#147 = ORIENTED_EDGE('', *, *, #59, .T.);
#148 = ORIENTED_EDGE('', *, *, #23, .F.);
#149 = ORIENTED_EDGE('', *, *, #115, .F.);
#150 = B_SPLINE_SURFACE_WITH_KNOTS('', 1, 1, ((#151, #152), (#153, #154)), .UNSPECIFIED., .F., .F., .U., (2, 2), (2, 2), (0., 30.), (0., 40.), .UNSPECIFIED.);
#151 = CARTESIAN_POINT('', (0., 0., 0.));
#152 = CARTESIAN_POINT('', (0., 40., 0.));
#153 = CARTESIAN_POINT('', (0., 0., 30.));
#154 = CARTESIAN_POINT('', (0., 40., 30.));
#155 = DRAUGHTING_MODEL('', (#163, #247), #252);
#156 = PRESENTATION_STYLE_ASSIGNMENT((#157));
#157 = SURFACE_STYLE_USAGE(.POSITIVE., #158);
#158 = SURFACE_SIDE_STYLE('', (#159));
#159 = SURFACE_STYLE_FILL_AREA(#160);
#160 = FILL_AREA_STYLE('', (#161));
#161 = FILL_AREA_STYLE_COLOUR('', #162);
#162 = COLOUR_RGB('', 0.50196078431373, 0.50196078431373, 0.50196078431373);
#163 = STYLED_ITEM('', (#156), #17);
#164 = MANIFOLD_SOLID_BREP('Cyl1_0', #165);
#165 = CLOSED_SHELL('', (#166, #222, #231));
#166 = ADVANCED_FACE('', (#167), #203, .T.);
#167 = FACE_OUTER_BOUND('', #168, .T.);
#168 = EDGE_LOOP('', (#169, #178, #190, #191));
#169 = ORIENTED_EDGE('', *, *, #170, .F.);
#170 = EDGE_CURVE('', #171, #173, #175, .T.);
#171 = VERTEX_POINT('', #172);
#172 = CARTESIAN_POINT('', (10., 0., 0.));
#173 = VERTEX_POINT('', #174);
#174 = CARTESIAN_POINT('', (10., 0., 40.));
#175 = B_SPLINE_CURVE_WITH_KNOTS('', 1, (#176, #177), .UNSPECIFIED., .F., .U., (2, 2), (0., 40.), .UNSPECIFIED.);
#176 = CARTESIAN_POINT('', (10., 0., 0.));
#177 = CARTESIAN_POINT('', (10., 0., 40.));
#178 = ORIENTED_EDGE('', *, *, #179, .T.);
#179 = EDGE_CURVE('', #171, #171, #180, .T.);
#180 = (
   BOUNDED_CURVE ()
   B_SPLINE_CURVE (2, (#181, #182, #183, #184, #185, #186, #187, #188, #189), .UNSPECIFIED., .T., .U.)
   B_SPLINE_CURVE_WITH_KNOTS ((3, 2, 2, 2, 3), (0., 15.707963267949, 31.4159265358979, 47.1238898038469, 62.8318530717959), .UNSPECIFIED.)
   CURVE ()
   GEOMETRIC_REPRESENTATION_ITEM ()
   RATIONAL_B_SPLINE_CURVE ((1., 0.707106781186548, 1., 0.707106781186548, 1., 0.707106781186548, 1., 0.707106781186548, 1.))
   REPRESENTATION_ITEM ('')
);
#181 = CARTESIAN_POINT('', (10., 0., 0.));
#182 = CARTESIAN_POINT('', (10., 10., 0.));
#183 = CARTESIAN_POINT('', (6.12323399573677E-16, 10., 0.));
#184 = CARTESIAN_POINT('', (-10., 10., 0.));
#185 = CARTESIAN_POINT('', (-10., 1.22464679914735E-15, 0.));
#186 = CARTESIAN_POINT('', (-10., -10., 0.));
#187 = CARTESIAN_POINT('', (-1.83697019872103E-15, -10., 0.));
#188 = CARTESIAN_POINT('', (10., -10., 0.));
#189 = CARTESIAN_POINT('', (10., 0., 0.));
#190 = ORIENTED_EDGE('', *, *, #170, .T.);
#191 = ORIENTED_EDGE('', *, *, #192, .F.);
#192 = EDGE_CURVE('', #173, #173, #193, .T.);
#193 = (
   BOUNDED_CURVE ()
   B_SPLINE_CURVE (2, (#194, #195, #196, #197, #198, #199, #200, #201, #202), .UNSPECIFIED., .T., .U.)
   B_SPLINE_CURVE_WITH_KNOTS ((3, 2, 2, 2, 3), (0., 15.707963267949, 31.4159265358979, 47.1238898038469, 62.8318530717959), .UNSPECIFIED.)
   CURVE ()
   GEOMETRIC_REPRESENTATION_ITEM ()
   RATIONAL_B_SPLINE_CURVE ((1., 0.707106781186548, 1., 0.707106781186548, 1., 0.707106781186548, 1., 0.707106781186548, 1.))
   REPRESENTATION_ITEM ('')
);
#194 = CARTESIAN_POINT('', (10., 0., 40.));
#195 = CARTESIAN_POINT('', (10., 10., 40.));
#196 = CARTESIAN_POINT('', (6.12323399573677E-16, 10., 40.));
#197 = CARTESIAN_POINT('', (-10., 10., 40.));
#198 = CARTESIAN_POINT('', (-10., 1.22464679914735E-15, 40.));
#199 = CARTESIAN_POINT('', (-10., -10., 40.));
#200 = CARTESIAN_POINT('', (-1.83697019872103E-15, -10., 40.));
#201 = CARTESIAN_POINT('', (10., -10., 40.));
#202 = CARTESIAN_POINT('', (10., 0., 40.));
#203 = (
   BOUNDED_SURFACE ()
   B_SPLINE_SURFACE (2, 1, ((#204, #205), (#206, #207), (#208, #209), (#210, #211), (#212, #213), (#214, #215), (#216, #217), (#218, #219), (#220, #221)), .UNSPECIFIED., .T., .F., .U.)
   B_SPLINE_SURFACE_WITH_KNOTS ((3, 2, 2, 2, 3), (2, 2), (0., 15.707963267949, 31.4159265358979, 47.1238898038469, 62.8318530717959), (0., 40.), .UNSPECIFIED.)
   GEOMETRIC_REPRESENTATION_ITEM ()
   RATIONAL_B_SPLINE_SURFACE (((1., 1.), (0.707106781186548, 0.707106781186548), (1., 1.), (0.707106781186548, 0.707106781186548), (1., 1.), (0.707106781186548, 0.707106781186548), (1., 1.), (0.707106781186548, 0.707106781186548), (1., 1.)))
   REPRESENTATION_ITEM ('')
   SURFACE ()
);
#204 = CARTESIAN_POINT('', (10., 0., 0.));
#205 = CARTESIAN_POINT('', (10., 0., 40.));
#206 = CARTESIAN_POINT('', (10., 10., 0.));
#207 = CARTESIAN_POINT('', (10., 10., 40.));
#208 = CARTESIAN_POINT('', (6.12323399573677E-16, 10., 0.));
#209 = CARTESIAN_POINT('', (6.12323399573677E-16, 10., 40.));
#210 = CARTESIAN_POINT('', (-10., 10., 0.));
#211 = CARTESIAN_POINT('', (-10., 10., 40.));
#212 = CARTESIAN_POINT('', (-10., 1.22464679914735E-15, 0.));
#213 = CARTESIAN_POINT('', (-10., 1.22464679914735E-15, 40.));
#214 = CARTESIAN_POINT('', (-10., -10., 0.));
#215 = CARTESIAN_POINT('', (-10., -10., 40.));
#216 = CARTESIAN_POINT('', (-1.83697019872103E-15, -10., 0.));
#217 = CARTESIAN_POINT('', (-1.83697019872103E-15, -10., 40.));
#218 = CARTESIAN_POINT('', (10., -10., 0.));
#219 = CARTESIAN_POINT('', (10., -10., 40.));
#220 = CARTESIAN_POINT('', (10., 0., 0.));
#221 = CARTESIAN_POINT('', (10., 0., 40.));
#222 = ADVANCED_FACE('', (#223), #226, .T.);
#223 = FACE_OUTER_BOUND('', #224, .T.);
#224 = EDGE_LOOP('', (#225));
#225 = ORIENTED_EDGE('', *, *, #179, .F.);
#226 = B_SPLINE_SURFACE_WITH_KNOTS('', 1, 1, ((#227, #228), (#229, #230)), .UNSPECIFIED., .F., .F., .U., (2, 2), (2, 2), (0., 1.), (0., 1.), .UNSPECIFIED.);
#227 = CARTESIAN_POINT('', (15.556349186104, -15.5563491861041, 0.));
#228 = CARTESIAN_POINT('', (15.556349186104, 15.556349186104, 0.));
#229 = CARTESIAN_POINT('', (-15.5563491861041, -15.5563491861041, 0.));
#230 = CARTESIAN_POINT('', (-15.5563491861041, 15.556349186104, 0.));
#231 = ADVANCED_FACE('', (#232), #235, .T.);
#232 = FACE_OUTER_BOUND('', #233, .T.);
#233 = EDGE_LOOP('', (#234));
#234 = ORIENTED_EDGE('', *, *, #192, .T.);
#235 = B_SPLINE_SURFACE_WITH_KNOTS('', 1, 1, ((#236, #237), (#238, #239)), .UNSPECIFIED., .F., .F., .U., (2, 2), (2, 2), (0., 1.), (0., 1.), .UNSPECIFIED.);
#236 = CARTESIAN_POINT('', (15.556349186104, -15.5563491861041, 40.));
#237 = CARTESIAN_POINT('', (-15.5563491861041, -15.5563491861041, 40.));
#238 = CARTESIAN_POINT('', (15.556349186104, 15.556349186104, 40.));
#239 = CARTESIAN_POINT('', (-15.5563491861041, 15.556349186104, 40.));
#240 = PRESENTATION_STYLE_ASSIGNMENT((#241));
#241 = SURFACE_STYLE_USAGE(.POSITIVE., #242);
#242 = SURFACE_SIDE_STYLE('', (#243));
#243 = SURFACE_STYLE_FILL_AREA(#244);
#244 = FILL_AREA_STYLE('', (#245));
#245 = FILL_AREA_STYLE_COLOUR('', #246);
#246 = COLOUR_RGB('', 0.50196078431373, 0.50196078431373, 0.50196078431373);
#247 = STYLED_ITEM('', (#240), #164);
#248 = AXIS2_PLACEMENT_3D('WCS', #249, #250, #251);
#249 = CARTESIAN_POINT('', (0., 0., 0.));
#250 = DIRECTION('', (0., 0., 1.));
#251 = DIRECTION('', (1., 0., 0.));
#252 = (
   GEOMETRIC_REPRESENTATION_CONTEXT (3)
   GLOBAL_UNCERTAINTY_ASSIGNED_CONTEXT ((#254))
   GLOBAL_UNIT_ASSIGNED_CONTEXT ((#253, #255, #256))
   REPRESENTATION_CONTEXT ('', '3D')
);
#253 = (
   LENGTH_UNIT ()
   NAMED_UNIT (*)
   SI_UNIT (.MILLI., .METRE.)
);
#254 = UNCERTAINTY_MEASURE_WITH_UNIT(LENGTH_MEASURE(1.E-6), #253, 'DISTANCE_ACCURACY_VALUE', '');
#255 = (
   NAMED_UNIT (*)
   SI_UNIT ($, .STERADIAN.)
   SOLID_ANGLE_UNIT ()
);
#256 = (
   NAMED_UNIT (*)
   PLANE_ANGLE_UNIT ()
   SI_UNIT ($, .RADIAN.)
);
#257 = SHAPE_REPRESENTATION('', (#278, #291), #252);
#258 = PRODUCT_DEFINITION_SHAPE('', '', #259);
#259 = PRODUCT_DEFINITION('', '', #262, #266);
#260 = APPLICATION_CONTEXT('configuration controlled 3D designs of mechanical parts and assemblies');
#261 = APPLICATION_PROTOCOL_DEFINITION('International Standard', 'automotive_design', 2002, #260);
#262 = PRODUCT_DEFINITION_FORMATION_WITH_SPECIFIED_SOURCE('', '', #263, .NOT_KNOWN.);
#263 = PRODUCT('EditablePart', 'EditablePart', '', (#264));
#264 = PRODUCT_CONTEXT('', #260, 'mechanical');
#265 = PRODUCT_RELATED_PRODUCT_CATEGORY('detail', '', (#263));
#266 = PRODUCT_DEFINITION_CONTEXT('part definition', #260, 'design');
#267 = SHAPE_DEFINITION_REPRESENTATION(#258, #257);
#268 = CONSTRUCTIVE_GEOMETRY_REPRESENTATION('supplemental geometry', (#248), #252);
#269 = CONSTRUCTIVE_GEOMETRY_REPRESENTATION_RELATIONSHIP('', '', #257, #268);
#270 = SHAPE_REPRESENTATION_RELATIONSHIP('', '', #257, #271);
#271 = ADVANCED_BREP_SHAPE_REPRESENTATION('', (#17, #164), #252);
#272 = NEXT_ASSEMBLY_USAGE_OCCURRENCE('', 'Inst1', 'Inst1', #8, #259, '');
#273 = PRODUCT_DEFINITION_SHAPE('', '', #272);
#274 = AXIS2_PLACEMENT_3D('', #275, #276, #277);
#275 = CARTESIAN_POINT('', (0., 0., 0.));
#276 = DIRECTION('', (0., 0., 1.));
#277 = DIRECTION('', (1., 0., 0.));
#278 = AXIS2_PLACEMENT_3D('', #279, #280, #281);
#279 = CARTESIAN_POINT('', (0., 0., 0.));
#280 = DIRECTION('', (0., 0., 1.));
#281 = DIRECTION('', (1., 0., 0.));
#282 = ITEM_DEFINED_TRANSFORMATION('', '', #274, #278);
#283 = (
   REPRESENTATION_RELATIONSHIP ('', '', #6, #257)
   REPRESENTATION_RELATIONSHIP_WITH_TRANSFORMATION (#282)
   SHAPE_REPRESENTATION_RELATIONSHIP ()
);
#284 = CONTEXT_DEPENDENT_SHAPE_REPRESENTATION(#283, #273);
#285 = NEXT_ASSEMBLY_USAGE_OCCURRENCE('', 'Inst2', 'Inst2', #8, #259, '');
#286 = PRODUCT_DEFINITION_SHAPE('', '', #285);
#287 = AXIS2_PLACEMENT_3D('', #288, #289, #290);
#288 = CARTESIAN_POINT('', (80., 0., 0.));
#289 = DIRECTION('', (0., 0., 1.));
#290 = DIRECTION('', (1., 0., 0.));
#291 = AXIS2_PLACEMENT_3D('', #292, #293, #294);
#292 = CARTESIAN_POINT('', (0., 0., 0.));
#293 = DIRECTION('', (0., 0., 1.));
#294 = DIRECTION('', (1., 0., 0.));
#295 = ITEM_DEFINED_TRANSFORMATION('', '', #287, #291);
#296 = (
   REPRESENTATION_RELATIONSHIP ('', '', #6, #257)
   REPRESENTATION_RELATIONSHIP_WITH_TRANSFORMATION (#295)
   SHAPE_REPRESENTATION_RELATIONSHIP ()
);
#297 = CONTEXT_DEPENDENT_SHAPE_REPRESENTATION(#296, #286);
ENDSEC;
END-ISO-10303-21;
