ISO-10303-21;
HEADER;
FILE_DESCRIPTION(('STEP'), '1');
FILE_NAME('NestedTest', '2026-04-27T13:54:45', (''), (''), 'Express 3.1.3.0', 'Express Tool', 'Unknown');
FILE_SCHEMA(('AUTOMOTIVE_DESIGN'));
ENDSEC;

DATA;
#1 = (
   GEOMETRIC_REPRESENTATION_CONTEXT (3)
   GLOBAL_UNCERTAINTY_ASSIGNED_CONTEXT ((#3))
   GLOBAL_UNIT_ASSIGNED_CONTEXT ((#2, #4, #5))
   REPRESENTATION_CONTEXT ('', '3D')
);
#2 = (
   LENGTH_UNIT ()
   NAMED_UNIT (*)
   SI_UNIT (.MILLI., .METRE.)
);
#3 = UNCERTAINTY_MEASURE_WITH_UNIT(LENGTH_MEASURE(1.E-6), #2, 'DISTANCE_ACCURACY_VALUE', '');
#4 = (
   NAMED_UNIT (*)
   SI_UNIT ($, .STERADIAN.)
   SOLID_ANGLE_UNIT ()
);
#5 = (
   NAMED_UNIT (*)
   PLANE_ANGLE_UNIT ()
   SI_UNIT ($, .RADIAN.)
);
#6 = SHAPE_REPRESENTATION('', (#292, #305), #1);
#7 = PRODUCT_DEFINITION_SHAPE('', '', #8);
#8 = PRODUCT_DEFINITION('', '', #11, #15);
#9 = APPLICATION_CONTEXT('configuration controlled 3D designs of mechanical parts and assemblies');
#10 = APPLICATION_PROTOCOL_DEFINITION('International Standard', 'automotive_design', 2002, #9);
#11 = PRODUCT_DEFINITION_FORMATION_WITH_SPECIFIED_SOURCE('', '', #12, .NOT_KNOWN.);
#12 = PRODUCT('NestedTest', 'NestedTest', '', (#13));
#13 = PRODUCT_CONTEXT('', #9, 'mechanical');
#14 = PRODUCT_RELATED_PRODUCT_CATEGORY('detail', '', (#12));
#15 = PRODUCT_DEFINITION_CONTEXT('part definition', #9, 'design');
#16 = SHAPE_DEFINITION_REPRESENTATION(#7, #6);
#17 = (
   GEOMETRIC_REPRESENTATION_CONTEXT (3)
   GLOBAL_UNCERTAINTY_ASSIGNED_CONTEXT ((#19))
   GLOBAL_UNIT_ASSIGNED_CONTEXT ((#18, #20, #21))
   REPRESENTATION_CONTEXT ('', '3D')
);
#18 = (
   LENGTH_UNIT ()
   NAMED_UNIT (*)
   SI_UNIT (.MILLI., .METRE.)
);
#19 = UNCERTAINTY_MEASURE_WITH_UNIT(LENGTH_MEASURE(1.E-6), #18, 'DISTANCE_ACCURACY_VALUE', '');
#20 = (
   NAMED_UNIT (*)
   SI_UNIT ($, .STERADIAN.)
   SOLID_ANGLE_UNIT ()
);
#21 = (
   NAMED_UNIT (*)
   PLANE_ANGLE_UNIT ()
   SI_UNIT ($, .RADIAN.)
);
#22 = SHAPE_REPRESENTATION('', (#144, #266, #279, #296, #309), #17);
#23 = PRODUCT_DEFINITION_SHAPE('', '', #24);
#24 = PRODUCT_DEFINITION('', '', #27, #31);
#25 = APPLICATION_CONTEXT('configuration controlled 3D designs of mechanical parts and assemblies');
#26 = APPLICATION_PROTOCOL_DEFINITION('International Standard', 'automotive_design', 2002, #25);
#27 = PRODUCT_DEFINITION_FORMATION_WITH_SPECIFIED_SOURCE('', '', #28, .NOT_KNOWN.);
#28 = PRODUCT('Gearbox', 'Gearbox', '', (#29));
#29 = PRODUCT_CONTEXT('', #25, 'mechanical');
#30 = PRODUCT_RELATED_PRODUCT_CATEGORY('detail', '', (#28));
#31 = PRODUCT_DEFINITION_CONTEXT('part definition', #25, 'design');
#32 = SHAPE_DEFINITION_REPRESENTATION(#23, #22);
#33 = MANIFOLD_SOLID_BREP('ShaftBody_0', #34);
#34 = CLOSED_SHELL('', (#35, #91, #100));
#35 = ADVANCED_FACE('', (#36), #72, .T.);
#36 = FACE_OUTER_BOUND('', #37, .T.);
#37 = EDGE_LOOP('', (#38, #47, #59, #60));
#38 = ORIENTED_EDGE('', *, *, #39, .F.);
#39 = EDGE_CURVE('', #40, #42, #44, .T.);
#40 = VERTEX_POINT('', #41);
#41 = CARTESIAN_POINT('', (4., 0., 0.));
#42 = VERTEX_POINT('', #43);
#43 = CARTESIAN_POINT('', (4., 0., 60.));
#44 = B_SPLINE_CURVE_WITH_KNOTS('', 1, (#45, #46), .UNSPECIFIED., .F., .U., (2, 2), (0., 60.), .UNSPECIFIED.);
#45 = CARTESIAN_POINT('', (4., 0., 0.));
#46 = CARTESIAN_POINT('', (4., 0., 60.));
#47 = ORIENTED_EDGE('', *, *, #48, .T.);
#48 = EDGE_CURVE('', #40, #40, #49, .T.);
#49 = (
   BOUNDED_CURVE ()
   B_SPLINE_CURVE (2, (#50, #51, #52, #53, #54, #55, #56, #57, #58), .UNSPECIFIED., .T., .U.)
   B_SPLINE_CURVE_WITH_KNOTS ((3, 2, 2, 2, 3), (0., 6.28318530717959, 12.5663706143592, 18.8495559215388, 25.1327412287183), .UNSPECIFIED.)
   CURVE ()
   GEOMETRIC_REPRESENTATION_ITEM ()
   RATIONAL_B_SPLINE_CURVE ((1., 0.707106781186548, 1., 0.707106781186548, 1., 0.707106781186548, 1., 0.707106781186548, 1.))
   REPRESENTATION_ITEM ('')
);
#50 = CARTESIAN_POINT('', (4., 0., 0.));
#51 = CARTESIAN_POINT('', (4., 4., 0.));
#52 = CARTESIAN_POINT('', (2.44929359829471E-16, 4., 0.));
#53 = CARTESIAN_POINT('', (-4., 4., 0.));
#54 = CARTESIAN_POINT('', (-4., 4.89858719658941E-16, 0.));
#55 = CARTESIAN_POINT('', (-4., -4., 0.));
#56 = CARTESIAN_POINT('', (-7.34788079488412E-16, -4., 0.));
#57 = CARTESIAN_POINT('', (4., -4., 0.));
#58 = CARTESIAN_POINT('', (4., 0., 0.));
#59 = ORIENTED_EDGE('', *, *, #39, .T.);
#60 = ORIENTED_EDGE('', *, *, #61, .F.);
#61 = EDGE_CURVE('', #42, #42, #62, .T.);
#62 = (
   BOUNDED_CURVE ()
   B_SPLINE_CURVE (2, (#63, #64, #65, #66, #67, #68, #69, #70, #71), .UNSPECIFIED., .T., .U.)
   B_SPLINE_CURVE_WITH_KNOTS ((3, 2, 2, 2, 3), (0., 6.28318530717959, 12.5663706143592, 18.8495559215388, 25.1327412287183), .UNSPECIFIED.)
   CURVE ()
   GEOMETRIC_REPRESENTATION_ITEM ()
   RATIONAL_B_SPLINE_CURVE ((1., 0.707106781186548, 1., 0.707106781186548, 1., 0.707106781186548, 1., 0.707106781186548, 1.))
   REPRESENTATION_ITEM ('')
);
#63 = CARTESIAN_POINT('', (4., 0., 60.));
#64 = CARTESIAN_POINT('', (4., 4., 60.));
#65 = CARTESIAN_POINT('', (2.44929359829471E-16, 4., 60.));
#66 = CARTESIAN_POINT('', (-4., 4., 60.));
#67 = CARTESIAN_POINT('', (-4., 4.89858719658941E-16, 60.));
#68 = CARTESIAN_POINT('', (-4., -4., 60.));
#69 = CARTESIAN_POINT('', (-7.34788079488412E-16, -4., 60.));
#70 = CARTESIAN_POINT('', (4., -4., 60.));
#71 = CARTESIAN_POINT('', (4., 0., 60.));
#72 = (
   BOUNDED_SURFACE ()
   B_SPLINE_SURFACE (2, 1, ((#73, #74), (#75, #76), (#77, #78), (#79, #80), (#81, #82), (#83, #84), (#85, #86), (#87, #88), (#89, #90)), .UNSPECIFIED., .T., .F., .U.)
   B_SPLINE_SURFACE_WITH_KNOTS ((3, 2, 2, 2, 3), (2, 2), (0., 6.28318530717959, 12.5663706143592, 18.8495559215388, 25.1327412287183), (0., 60.), .UNSPECIFIED.)
   GEOMETRIC_REPRESENTATION_ITEM ()
   RATIONAL_B_SPLINE_SURFACE (((1., 1.), (0.707106781186548, 0.707106781186548), (1., 1.), (0.707106781186548, 0.707106781186548), (1., 1.), (0.707106781186548, 0.707106781186548), (1., 1.), (0.707106781186548, 0.707106781186548), (1., 1.)))
   REPRESENTATION_ITEM ('')
   SURFACE ()
);
#73 = CARTESIAN_POINT('', (4., 0., 0.));
#74 = CARTESIAN_POINT('', (4., 0., 60.));
#75 = CARTESIAN_POINT('', (4., 4., 0.));
#76 = CARTESIAN_POINT('', (4., 4., 60.));
#77 = CARTESIAN_POINT('', (2.44929359829471E-16, 4., 0.));
#78 = CARTESIAN_POINT('', (2.44929359829471E-16, 4., 60.));
#79 = CARTESIAN_POINT('', (-4., 4., 0.));
#80 = CARTESIAN_POINT('', (-4., 4., 60.));
#81 = CARTESIAN_POINT('', (-4., 4.89858719658941E-16, 0.));
#82 = CARTESIAN_POINT('', (-4., 4.89858719658941E-16, 60.));
#83 = CARTESIAN_POINT('', (-4., -4., 0.));
#84 = CARTESIAN_POINT('', (-4., -4., 60.));
#85 = CARTESIAN_POINT('', (-7.34788079488412E-16, -4., 0.));
#86 = CARTESIAN_POINT('', (-7.34788079488412E-16, -4., 60.));
#87 = CARTESIAN_POINT('', (4., -4., 0.));
#88 = CARTESIAN_POINT('', (4., -4., 60.));
#89 = CARTESIAN_POINT('', (4., 0., 0.));
#90 = CARTESIAN_POINT('', (4., 0., 60.));
#91 = ADVANCED_FACE('', (#92), #95, .T.);
#92 = FACE_OUTER_BOUND('', #93, .T.);
#93 = EDGE_LOOP('', (#94));
#94 = ORIENTED_EDGE('', *, *, #48, .F.);
#95 = B_SPLINE_SURFACE_WITH_KNOTS('', 1, 1, ((#96, #97), (#98, #99)), .UNSPECIFIED., .F., .F., .U., (2, 2), (2, 2), (0., 1.), (0., 1.), .UNSPECIFIED.);
#96 = CARTESIAN_POINT('', (6.22253967444162, -6.22253967444162, 0.));
#97 = CARTESIAN_POINT('', (6.22253967444162, 6.22253967444162, 0.));
#98 = CARTESIAN_POINT('', (-6.22253967444162, -6.22253967444162, 0.));
#99 = CARTESIAN_POINT('', (-6.22253967444162, 6.22253967444162, 0.));
#100 = ADVANCED_FACE('', (#101), #104, .T.);
#101 = FACE_OUTER_BOUND('', #102, .T.);
#102 = EDGE_LOOP('', (#103));
#103 = ORIENTED_EDGE('', *, *, #61, .T.);
#104 = B_SPLINE_SURFACE_WITH_KNOTS('', 1, 1, ((#105, #106), (#107, #108)), .UNSPECIFIED., .F., .F., .U., (2, 2), (2, 2), (0., 1.), (0., 1.), .UNSPECIFIED.);
#105 = CARTESIAN_POINT('', (6.22253967444162, -6.22253967444162, 60.));
#106 = CARTESIAN_POINT('', (-6.22253967444162, -6.22253967444162, 60.));
#107 = CARTESIAN_POINT('', (6.22253967444162, 6.22253967444162, 60.));
#108 = CARTESIAN_POINT('', (-6.22253967444162, 6.22253967444162, 60.));
#109 = DRAUGHTING_MODEL('', (#117), #122);
#110 = PRESENTATION_STYLE_ASSIGNMENT((#111));
#111 = SURFACE_STYLE_USAGE(.POSITIVE., #112);
#112 = SURFACE_SIDE_STYLE('', (#113));
#113 = SURFACE_STYLE_FILL_AREA(#114);
#114 = FILL_AREA_STYLE('', (#115));
#115 = FILL_AREA_STYLE_COLOUR('', #116);
#116 = COLOUR_RGB('', 0.50196078431373, 0.50196078431373, 0.50196078431373);
#117 = STYLED_ITEM('', (#110), #33);
#118 = AXIS2_PLACEMENT_3D('WCS', #119, #120, #121);
#119 = CARTESIAN_POINT('', (0., 0., 0.));
#120 = DIRECTION('', (0., 0., 1.));
#121 = DIRECTION('', (1., 0., 0.));
#122 = (
   GEOMETRIC_REPRESENTATION_CONTEXT (3)
   GLOBAL_UNCERTAINTY_ASSIGNED_CONTEXT ((#124))
   GLOBAL_UNIT_ASSIGNED_CONTEXT ((#123, #125, #126))
   REPRESENTATION_CONTEXT ('', '3D')
);
#123 = (
   LENGTH_UNIT ()
   NAMED_UNIT (*)
   SI_UNIT (.MILLI., .METRE.)
);
#124 = UNCERTAINTY_MEASURE_WITH_UNIT(LENGTH_MEASURE(1.E-6), #123, 'DISTANCE_ACCURACY_VALUE', '');
#125 = (
   NAMED_UNIT (*)
   SI_UNIT ($, .STERADIAN.)
   SOLID_ANGLE_UNIT ()
);
#126 = (
   NAMED_UNIT (*)
   PLANE_ANGLE_UNIT ()
   SI_UNIT ($, .RADIAN.)
);
#127 = SHAPE_REPRESENTATION('', (#148), #122);
#128 = PRODUCT_DEFINITION_SHAPE('', '', #129);
#129 = PRODUCT_DEFINITION('', '', #132, #136);
#130 = APPLICATION_CONTEXT('configuration controlled 3D designs of mechanical parts and assemblies');
#131 = APPLICATION_PROTOCOL_DEFINITION('International Standard', 'automotive_design', 2002, #130);
#132 = PRODUCT_DEFINITION_FORMATION_WITH_SPECIFIED_SOURCE('', '', #133, .NOT_KNOWN.);
#133 = PRODUCT('Shaft', 'Shaft', '', (#134));
#134 = PRODUCT_CONTEXT('', #130, 'mechanical');
#135 = PRODUCT_RELATED_PRODUCT_CATEGORY('detail', '', (#133));
#136 = PRODUCT_DEFINITION_CONTEXT('part definition', #130, 'design');
#137 = SHAPE_DEFINITION_REPRESENTATION(#128, #127);
#138 = CONSTRUCTIVE_GEOMETRY_REPRESENTATION('supplemental geometry', (#118), #122);
#139 = CONSTRUCTIVE_GEOMETRY_REPRESENTATION_RELATIONSHIP('', '', #127, #138);
#140 = SHAPE_REPRESENTATION_RELATIONSHIP('', '', #127, #141);
#141 = ADVANCED_BREP_SHAPE_REPRESENTATION('', (#33), #122);
#142 = NEXT_ASSEMBLY_USAGE_OCCURRENCE('', 'MainShaft', 'MainShaft', #24, #129, '');
#143 = PRODUCT_DEFINITION_SHAPE('', '', #142);
#144 = AXIS2_PLACEMENT_3D('', #145, #146, #147);
#145 = CARTESIAN_POINT('', (0., 0., 0.));
#146 = DIRECTION('', (0., 0., 1.));
#147 = DIRECTION('', (1., 0., 0.));
#148 = AXIS2_PLACEMENT_3D('', #149, #150, #151);
#149 = CARTESIAN_POINT('', (0., 0., 0.));
#150 = DIRECTION('', (0., 0., 1.));
#151 = DIRECTION('', (1., 0., 0.));
#152 = ITEM_DEFINED_TRANSFORMATION('', '', #144, #148);
#153 = (
   REPRESENTATION_RELATIONSHIP ('', '', #22, #127)
   REPRESENTATION_RELATIONSHIP_WITH_TRANSFORMATION (#152)
   SHAPE_REPRESENTATION_RELATIONSHIP ()
);
#154 = CONTEXT_DEPENDENT_SHAPE_REPRESENTATION(#153, #143);
#155 = MANIFOLD_SOLID_BREP('GearBody_0', #156);
#156 = CLOSED_SHELL('', (#157, #213, #222));
#157 = ADVANCED_FACE('', (#158), #194, .T.);
#158 = FACE_OUTER_BOUND('', #159, .T.);
#159 = EDGE_LOOP('', (#160, #169, #181, #182));
#160 = ORIENTED_EDGE('', *, *, #161, .F.);
#161 = EDGE_CURVE('', #162, #164, #166, .T.);
#162 = VERTEX_POINT('', #163);
#163 = CARTESIAN_POINT('', (20., 0., 0.));
#164 = VERTEX_POINT('', #165);
#165 = CARTESIAN_POINT('', (20., 0., 10.));
#166 = B_SPLINE_CURVE_WITH_KNOTS('', 1, (#167, #168), .UNSPECIFIED., .F., .U., (2, 2), (0., 10.), .UNSPECIFIED.);
#167 = CARTESIAN_POINT('', (20., 0., 0.));
#168 = CARTESIAN_POINT('', (20., 0., 10.));
#169 = ORIENTED_EDGE('', *, *, #170, .T.);
#170 = EDGE_CURVE('', #162, #162, #171, .T.);
#171 = (
   BOUNDED_CURVE ()
   B_SPLINE_CURVE (2, (#172, #173, #174, #175, #176, #177, #178, #179, #180), .UNSPECIFIED., .T., .U.)
   B_SPLINE_CURVE_WITH_KNOTS ((3, 2, 2, 2, 3), (0., 31.4159265358979, 62.8318530717959, 94.2477796076938, 125.663706143592), .UNSPECIFIED.)
   CURVE ()
   GEOMETRIC_REPRESENTATION_ITEM ()
   RATIONAL_B_SPLINE_CURVE ((1., 0.707106781186548, 1., 0.707106781186548, 1., 0.707106781186548, 1., 0.707106781186548, 1.))
   REPRESENTATION_ITEM ('')
);
#172 = CARTESIAN_POINT('', (20., 0., 0.));
#173 = CARTESIAN_POINT('', (20., 20., 0.));
#174 = CARTESIAN_POINT('', (1.22464679914735E-15, 20., 0.));
#175 = CARTESIAN_POINT('', (-20., 20., 0.));
#176 = CARTESIAN_POINT('', (-20., 2.44929359829471E-15, 0.));
#177 = CARTESIAN_POINT('', (-20., -20., 0.));
#178 = CARTESIAN_POINT('', (-3.67394039744206E-15, -20., 0.));
#179 = CARTESIAN_POINT('', (20., -20., 0.));
#180 = CARTESIAN_POINT('', (20., 0., 0.));
#181 = ORIENTED_EDGE('', *, *, #161, .T.);
#182 = ORIENTED_EDGE('', *, *, #183, .F.);
#183 = EDGE_CURVE('', #164, #164, #184, .T.);
#184 = (
   BOUNDED_CURVE ()
   B_SPLINE_CURVE (2, (#185, #186, #187, #188, #189, #190, #191, #192, #193), .UNSPECIFIED., .T., .U.)
   B_SPLINE_CURVE_WITH_KNOTS ((3, 2, 2, 2, 3), (0., 31.4159265358979, 62.8318530717959, 94.2477796076938, 125.663706143592), .UNSPECIFIED.)
   CURVE ()
   GEOMETRIC_REPRESENTATION_ITEM ()
   RATIONAL_B_SPLINE_CURVE ((1., 0.707106781186548, 1., 0.707106781186548, 1., 0.707106781186548, 1., 0.707106781186548, 1.))
   REPRESENTATION_ITEM ('')
);
#185 = CARTESIAN_POINT('', (20., 0., 10.));
#186 = CARTESIAN_POINT('', (20., 20., 10.));
#187 = CARTESIAN_POINT('', (1.22464679914735E-15, 20., 10.));
#188 = CARTESIAN_POINT('', (-20., 20., 10.));
#189 = CARTESIAN_POINT('', (-20., 2.44929359829471E-15, 10.));
#190 = CARTESIAN_POINT('', (-20., -20., 10.));
#191 = CARTESIAN_POINT('', (-3.67394039744206E-15, -20., 10.));
#192 = CARTESIAN_POINT('', (20., -20., 10.));
#193 = CARTESIAN_POINT('', (20., 0., 10.));
#194 = (
   BOUNDED_SURFACE ()
   B_SPLINE_SURFACE (2, 1, ((#195, #196), (#197, #198), (#199, #200), (#201, #202), (#203, #204), (#205, #206), (#207, #208), (#209, #210), (#211, #212)), .UNSPECIFIED., .T., .F., .U.)
   B_SPLINE_SURFACE_WITH_KNOTS ((3, 2, 2, 2, 3), (2, 2), (0., 31.4159265358979, 62.8318530717959, 94.2477796076938, 125.663706143592), (0., 10.), .UNSPECIFIED.)
   GEOMETRIC_REPRESENTATION_ITEM ()
   RATIONAL_B_SPLINE_SURFACE (((1., 1.), (0.707106781186548, 0.707106781186548), (1., 1.), (0.707106781186548, 0.707106781186548), (1., 1.), (0.707106781186548, 0.707106781186548), (1., 1.), (0.707106781186548, 0.707106781186548), (1., 1.)))
   REPRESENTATION_ITEM ('')
   SURFACE ()
);
#195 = CARTESIAN_POINT('', (20., 0., 0.));
#196 = CARTESIAN_POINT('', (20., 0., 10.));
#197 = CARTESIAN_POINT('', (20., 20., 0.));
#198 = CARTESIAN_POINT('', (20., 20., 10.));
#199 = CARTESIAN_POINT('', (1.22464679914735E-15, 20., 0.));
#200 = CARTESIAN_POINT('', (1.22464679914735E-15, 20., 10.));
#201 = CARTESIAN_POINT('', (-20., 20., 0.));
#202 = CARTESIAN_POINT('', (-20., 20., 10.));
#203 = CARTESIAN_POINT('', (-20., 2.44929359829471E-15, 0.));
#204 = CARTESIAN_POINT('', (-20., 2.44929359829471E-15, 10.));
#205 = CARTESIAN_POINT('', (-20., -20., 0.));
#206 = CARTESIAN_POINT('', (-20., -20., 10.));
#207 = CARTESIAN_POINT('', (-3.67394039744206E-15, -20., 0.));
#208 = CARTESIAN_POINT('', (-3.67394039744206E-15, -20., 10.));
#209 = CARTESIAN_POINT('', (20., -20., 0.));
#210 = CARTESIAN_POINT('', (20., -20., 10.));
#211 = CARTESIAN_POINT('', (20., 0., 0.));
#212 = CARTESIAN_POINT('', (20., 0., 10.));
#213 = ADVANCED_FACE('', (#214), #217, .T.);
#214 = FACE_OUTER_BOUND('', #215, .T.);
#215 = EDGE_LOOP('', (#216));
#216 = ORIENTED_EDGE('', *, *, #170, .F.);
#217 = B_SPLINE_SURFACE_WITH_KNOTS('', 1, 1, ((#218, #219), (#220, #221)), .UNSPECIFIED., .F., .F., .U., (2, 2), (2, 2), (0., 1.), (0., 1.), .UNSPECIFIED.);
#218 = CARTESIAN_POINT('', (31.1126983722081, -31.1126983722081, 0.));
#219 = CARTESIAN_POINT('', (31.1126983722081, 31.1126983722081, 0.));
#220 = CARTESIAN_POINT('', (-31.1126983722081, -31.1126983722081, 0.));
#221 = CARTESIAN_POINT('', (-31.1126983722081, 31.1126983722081, 0.));
#222 = ADVANCED_FACE('', (#223), #226, .T.);
#223 = FACE_OUTER_BOUND('', #224, .T.);
#224 = EDGE_LOOP('', (#225));
#225 = ORIENTED_EDGE('', *, *, #183, .T.);
#226 = B_SPLINE_SURFACE_WITH_KNOTS('', 1, 1, ((#227, #228), (#229, #230)), .UNSPECIFIED., .F., .F., .U., (2, 2), (2, 2), (0., 1.), (0., 1.), .UNSPECIFIED.);
#227 = CARTESIAN_POINT('', (31.1126983722081, -31.1126983722081, 10.));
#228 = CARTESIAN_POINT('', (-31.1126983722081, -31.1126983722081, 10.));
#229 = CARTESIAN_POINT('', (31.1126983722081, 31.1126983722081, 9.99999999999999));
#230 = CARTESIAN_POINT('', (-31.1126983722081, 31.1126983722081, 10.));
#231 = DRAUGHTING_MODEL('', (#239), #244);
#232 = PRESENTATION_STYLE_ASSIGNMENT((#233));
#233 = SURFACE_STYLE_USAGE(.POSITIVE., #234);
#234 = SURFACE_SIDE_STYLE('', (#235));
#235 = SURFACE_STYLE_FILL_AREA(#236);
#236 = FILL_AREA_STYLE('', (#237));
#237 = FILL_AREA_STYLE_COLOUR('', #238);
#238 = COLOUR_RGB('', 0.50196078431373, 0.50196078431373, 0.50196078431373);
#239 = STYLED_ITEM('', (#232), #155);
#240 = AXIS2_PLACEMENT_3D('WCS', #241, #242, #243);
#241 = CARTESIAN_POINT('', (0., 0., 0.));
#242 = DIRECTION('', (0., 0., 1.));
#243 = DIRECTION('', (1., 0., 0.));
#244 = (
   GEOMETRIC_REPRESENTATION_CONTEXT (3)
   GLOBAL_UNCERTAINTY_ASSIGNED_CONTEXT ((#246))
   GLOBAL_UNIT_ASSIGNED_CONTEXT ((#245, #247, #248))
   REPRESENTATION_CONTEXT ('', '3D')
);
#245 = (
   LENGTH_UNIT ()
   NAMED_UNIT (*)
   SI_UNIT (.MILLI., .METRE.)
);
#246 = UNCERTAINTY_MEASURE_WITH_UNIT(LENGTH_MEASURE(1.E-6), #245, 'DISTANCE_ACCURACY_VALUE', '');
#247 = (
   NAMED_UNIT (*)
   SI_UNIT ($, .STERADIAN.)
   SOLID_ANGLE_UNIT ()
);
#248 = (
   NAMED_UNIT (*)
   PLANE_ANGLE_UNIT ()
   SI_UNIT ($, .RADIAN.)
);
#249 = SHAPE_REPRESENTATION('', (#270, #283), #244);
#250 = PRODUCT_DEFINITION_SHAPE('', '', #251);
#251 = PRODUCT_DEFINITION('', '', #254, #258);
#252 = APPLICATION_CONTEXT('configuration controlled 3D designs of mechanical parts and assemblies');
#253 = APPLICATION_PROTOCOL_DEFINITION('International Standard', 'automotive_design', 2002, #252);
#254 = PRODUCT_DEFINITION_FORMATION_WITH_SPECIFIED_SOURCE('', '', #255, .NOT_KNOWN.);
#255 = PRODUCT('Gear', 'Gear', '', (#256));
#256 = PRODUCT_CONTEXT('', #252, 'mechanical');
#257 = PRODUCT_RELATED_PRODUCT_CATEGORY('detail', '', (#255));
#258 = PRODUCT_DEFINITION_CONTEXT('part definition', #252, 'design');
#259 = SHAPE_DEFINITION_REPRESENTATION(#250, #249);
#260 = CONSTRUCTIVE_GEOMETRY_REPRESENTATION('supplemental geometry', (#240), #244);
#261 = CONSTRUCTIVE_GEOMETRY_REPRESENTATION_RELATIONSHIP('', '', #249, #260);
#262 = SHAPE_REPRESENTATION_RELATIONSHIP('', '', #249, #263);
#263 = ADVANCED_BREP_SHAPE_REPRESENTATION('', (#155), #244);
#264 = NEXT_ASSEMBLY_USAGE_OCCURRENCE('', 'Gear1', 'Gear1', #24, #251, '');
#265 = PRODUCT_DEFINITION_SHAPE('', '', #264);
#266 = AXIS2_PLACEMENT_3D('', #267, #268, #269);
#267 = CARTESIAN_POINT('', (0., 0., 10.));
#268 = DIRECTION('', (0., 0., 1.));
#269 = DIRECTION('', (1., 0., 0.));
#270 = AXIS2_PLACEMENT_3D('', #271, #272, #273);
#271 = CARTESIAN_POINT('', (0., 0., 0.));
#272 = DIRECTION('', (0., 0., 1.));
#273 = DIRECTION('', (1., 0., 0.));
#274 = ITEM_DEFINED_TRANSFORMATION('', '', #266, #270);
#275 = (
   REPRESENTATION_RELATIONSHIP ('', '', #22, #249)
   REPRESENTATION_RELATIONSHIP_WITH_TRANSFORMATION (#274)
   SHAPE_REPRESENTATION_RELATIONSHIP ()
);
#276 = CONTEXT_DEPENDENT_SHAPE_REPRESENTATION(#275, #265);
#277 = NEXT_ASSEMBLY_USAGE_OCCURRENCE('', 'Gear2', 'Gear2', #24, #251, '');
#278 = PRODUCT_DEFINITION_SHAPE('', '', #277);
#279 = AXIS2_PLACEMENT_3D('', #280, #281, #282);
#280 = CARTESIAN_POINT('', (0., 0., 30.));
#281 = DIRECTION('', (0., 0., 1.));
#282 = DIRECTION('', (1., 0., 0.));
#283 = AXIS2_PLACEMENT_3D('', #284, #285, #286);
#284 = CARTESIAN_POINT('', (0., 0., 0.));
#285 = DIRECTION('', (0., 0., 1.));
#286 = DIRECTION('', (1., 0., 0.));
#287 = ITEM_DEFINED_TRANSFORMATION('', '', #279, #283);
#288 = (
   REPRESENTATION_RELATIONSHIP ('', '', #22, #249)
   REPRESENTATION_RELATIONSHIP_WITH_TRANSFORMATION (#287)
   SHAPE_REPRESENTATION_RELATIONSHIP ()
);
#289 = CONTEXT_DEPENDENT_SHAPE_REPRESENTATION(#288, #278);
#290 = NEXT_ASSEMBLY_USAGE_OCCURRENCE('', 'Gearbox_1', 'Gearbox_1', #8, #24, '');
#291 = PRODUCT_DEFINITION_SHAPE('', '', #290);
#292 = AXIS2_PLACEMENT_3D('', #293, #294, #295);
#293 = CARTESIAN_POINT('', (0., 0., 0.));
#294 = DIRECTION('', (0., 0., 1.));
#295 = DIRECTION('', (1., 0., 0.));
#296 = AXIS2_PLACEMENT_3D('', #297, #298, #299);
#297 = CARTESIAN_POINT('', (0., 0., 0.));
#298 = DIRECTION('', (0., 0., 1.));
#299 = DIRECTION('', (1., 0., 0.));
#300 = ITEM_DEFINED_TRANSFORMATION('', '', #292, #296);
#301 = (
   REPRESENTATION_RELATIONSHIP ('', '', #6, #22)
   REPRESENTATION_RELATIONSHIP_WITH_TRANSFORMATION (#300)
   SHAPE_REPRESENTATION_RELATIONSHIP ()
);
#302 = CONTEXT_DEPENDENT_SHAPE_REPRESENTATION(#301, #291);
#303 = NEXT_ASSEMBLY_USAGE_OCCURRENCE('', 'Gearbox_2', 'Gearbox_2', #8, #24, '');
#304 = PRODUCT_DEFINITION_SHAPE('', '', #303);
#305 = AXIS2_PLACEMENT_3D('', #306, #307, #308);
#306 = CARTESIAN_POINT('', (60., 0., 0.));
#307 = DIRECTION('', (0., 0., 1.));
#308 = DIRECTION('', (1., 0., 0.));
#309 = AXIS2_PLACEMENT_3D('', #310, #311, #312);
#310 = CARTESIAN_POINT('', (0., 0., 0.));
#311 = DIRECTION('', (0., 0., 1.));
#312 = DIRECTION('', (1., 0., 0.));
#313 = ITEM_DEFINED_TRANSFORMATION('', '', #305, #309);
#314 = (
   REPRESENTATION_RELATIONSHIP ('', '', #6, #22)
   REPRESENTATION_RELATIONSHIP_WITH_TRANSFORMATION (#313)
   SHAPE_REPRESENTATION_RELATIONSHIP ()
);
#315 = CONTEXT_DEPENDENT_SHAPE_REPRESENTATION(#314, #304);
#316 = DRAUGHTING_MODEL('', (), #1);
#317 = REPRESENTATION_RELATIONSHIP('', '', #109, #316);
#318 = REPRESENTATION_RELATIONSHIP('', '', #231, #316);
ENDSEC;
END-ISO-10303-21;
