ISO-10303-21;
HEADER;
FILE_DESCRIPTION(('STEP'), '1');
FILE_NAME('FlagTop', '2026-08-19T21:43:11', (''), (''), 'Express 3.1.3.0', 'Express Tool', 'Unknown');
FILE_SCHEMA(('AUTOMOTIVE_DESIGN'));
ENDSEC;

DATA;
#1 = MANIFOLD_SOLID_BREP('E_semi cw=true_0', #2);
#2 = CLOSED_SHELL('', (#3, #39, #56, #81));
#3 = ADVANCED_FACE('', (#4), #34, .T.);
#4 = FACE_OUTER_BOUND('', #5, .T.);
#5 = EDGE_LOOP('', (#6, #15, #22, #29));
#6 = ORIENTED_EDGE('', *, *, #7, .F.);
#7 = EDGE_CURVE('', #8, #10, #12, .T.);
#8 = VERTEX_POINT('', #9);
#9 = CARTESIAN_POINT('', (-10., 0., 0.));
#10 = VERTEX_POINT('', #11);
#11 = CARTESIAN_POINT('', (-10., 0., 5.));
#12 = B_SPLINE_CURVE_WITH_KNOTS('', 1, (#13, #14), .UNSPECIFIED., .F., .U., (2, 2), (0., 5.), .UNSPECIFIED.);
#13 = CARTESIAN_POINT('', (-10., 1.22464679914735E-15, 0.));
#14 = CARTESIAN_POINT('', (-10., 1.22464679914735E-15, 5.));
#15 = ORIENTED_EDGE('', *, *, #16, .T.);
#16 = EDGE_CURVE('', #8, #17, #19, .T.);
#17 = VERTEX_POINT('', #18);
#18 = CARTESIAN_POINT('', (10., 0., 0.));
#19 = B_SPLINE_CURVE_WITH_KNOTS('', 1, (#20, #21), .UNSPECIFIED., .F., .U., (2, 2), (0., 1.), .UNSPECIFIED.);
#20 = CARTESIAN_POINT('', (-10., 0., 0.));
#21 = CARTESIAN_POINT('', (10., 0., 0.));
#22 = ORIENTED_EDGE('', *, *, #23, .T.);
#23 = EDGE_CURVE('', #17, #24, #26, .T.);
#24 = VERTEX_POINT('', #25);
#25 = CARTESIAN_POINT('', (10., 0., 5.));
#26 = B_SPLINE_CURVE_WITH_KNOTS('', 1, (#27, #28), .UNSPECIFIED., .F., .U., (2, 2), (0., 5.), .UNSPECIFIED.);
#27 = CARTESIAN_POINT('', (10., 0., 0.));
#28 = CARTESIAN_POINT('', (10., 0., 5.));
#29 = ORIENTED_EDGE('', *, *, #30, .F.);
#30 = EDGE_CURVE('', #10, #24, #31, .T.);
#31 = B_SPLINE_CURVE_WITH_KNOTS('', 1, (#32, #33), .UNSPECIFIED., .F., .U., (2, 2), (0., 1.), .UNSPECIFIED.);
#32 = CARTESIAN_POINT('', (-10., 0., 5.));
#33 = CARTESIAN_POINT('', (10., 0., 5.));
#34 = B_SPLINE_SURFACE_WITH_KNOTS('', 1, 1, ((#35, #36), (#37, #38)), .UNSPECIFIED., .F., .F., .U., (2, 2), (2, 2), (0., 1.), (0., 1.), .UNSPECIFIED.);
#35 = CARTESIAN_POINT('', (-10., 0., 0.));
#36 = CARTESIAN_POINT('', (-10., 0., 5.));
#37 = CARTESIAN_POINT('', (10., 0., 0.));
#38 = CARTESIAN_POINT('', (10., 0., 5.));
#39 = ADVANCED_FACE('', (#40), #51, .T.);
#40 = FACE_OUTER_BOUND('', #41, .T.);
#41 = EDGE_LOOP('', (#42, #43));
#42 = ORIENTED_EDGE('', *, *, #16, .F.);
#43 = ORIENTED_EDGE('', *, *, #44, .F.);
#44 = EDGE_CURVE('', #17, #8, #45, .T.);
#45 = (
   BOUNDED_CURVE ()
   B_SPLINE_CURVE (2, (#46, #47, #48, #49, #50), .UNSPECIFIED., .F., .U.)
   B_SPLINE_CURVE_WITH_KNOTS ((3, 2, 3), (0., 90., 180.), .UNSPECIFIED.)
   CURVE ()
   GEOMETRIC_REPRESENTATION_ITEM ()
   RATIONAL_B_SPLINE_CURVE ((1., 0.707106781186548, 1., 0.707106781186548, 1.))
   REPRESENTATION_ITEM ('')
);
#46 = CARTESIAN_POINT('', (10., 0., 0.));
#47 = CARTESIAN_POINT('', (10., 10., 0.));
#48 = CARTESIAN_POINT('', (6.12323399573677E-16, 10., 0.));
#49 = CARTESIAN_POINT('', (-10., 10., 0.));
#50 = CARTESIAN_POINT('', (-10., 1.22464679914735E-15, 0.));
#51 = B_SPLINE_SURFACE_WITH_KNOTS('', 1, 1, ((#52, #53), (#54, #55)), .UNSPECIFIED., .F., .F., .U., (2, 2), (2, 2), (0., 1.), (0., 1.), .UNSPECIFIED.);
#52 = CARTESIAN_POINT('', (12.2983738762488, -7.29837387624885, 0.));
#53 = CARTESIAN_POINT('', (12.2983738762488, 17.2983738762488, 0.));
#54 = CARTESIAN_POINT('', (-12.2983738762488, -7.29837387624885, 0.));
#55 = CARTESIAN_POINT('', (-12.2983738762488, 17.2983738762488, 0.));
#56 = ADVANCED_FACE('', (#57), #70, .T.);
#57 = FACE_OUTER_BOUND('', #58, .T.);
#58 = EDGE_LOOP('', (#59, #60, #61, #62));
#59 = ORIENTED_EDGE('', *, *, #23, .F.);
#60 = ORIENTED_EDGE('', *, *, #44, .T.);
#61 = ORIENTED_EDGE('', *, *, #7, .T.);
#62 = ORIENTED_EDGE('', *, *, #63, .F.);
#63 = EDGE_CURVE('', #24, #10, #64, .T.);
#64 = (
   BOUNDED_CURVE ()
   B_SPLINE_CURVE (2, (#65, #66, #67, #68, #69), .UNSPECIFIED., .F., .U.)
   B_SPLINE_CURVE_WITH_KNOTS ((3, 2, 3), (0., 90., 180.), .UNSPECIFIED.)
   CURVE ()
   GEOMETRIC_REPRESENTATION_ITEM ()
   RATIONAL_B_SPLINE_CURVE ((1., 0.707106781186548, 1., 0.707106781186548, 1.))
   REPRESENTATION_ITEM ('')
);
#65 = CARTESIAN_POINT('', (10., 0., 5.));
#66 = CARTESIAN_POINT('', (10., 10., 5.));
#67 = CARTESIAN_POINT('', (6.12323399573677E-16, 10., 5.));
#68 = CARTESIAN_POINT('', (-10., 10., 5.));
#69 = CARTESIAN_POINT('', (-10., 1.22464679914735E-15, 5.));
#70 = (
   BOUNDED_SURFACE ()
   B_SPLINE_SURFACE (2, 1, ((#71, #72), (#73, #74), (#75, #76), (#77, #78), (#79, #80)), .UNSPECIFIED., .F., .F., .U.)
   B_SPLINE_SURFACE_WITH_KNOTS ((3, 2, 3), (2, 2), (0., 90., 180.), (0., 5.), .UNSPECIFIED.)
   GEOMETRIC_REPRESENTATION_ITEM ()
   RATIONAL_B_SPLINE_SURFACE (((1., 1.), (0.707106781186548, 0.707106781186548), (1., 1.), (0.707106781186548, 0.707106781186548), (1., 1.)))
   REPRESENTATION_ITEM ('')
   SURFACE ()
);
#71 = CARTESIAN_POINT('', (10., 0., 0.));
#72 = CARTESIAN_POINT('', (10., 0., 5.));
#73 = CARTESIAN_POINT('', (10., 10., 0.));
#74 = CARTESIAN_POINT('', (10., 10., 5.));
#75 = CARTESIAN_POINT('', (6.12323399573677E-16, 10., 0.));
#76 = CARTESIAN_POINT('', (6.12323399573677E-16, 10., 5.));
#77 = CARTESIAN_POINT('', (-10., 10., 0.));
#78 = CARTESIAN_POINT('', (-10., 10., 5.));
#79 = CARTESIAN_POINT('', (-10., 1.22464679914735E-15, 0.));
#80 = CARTESIAN_POINT('', (-10., 1.22464679914735E-15, 5.));
#81 = ADVANCED_FACE('', (#82), #86, .T.);
#82 = FACE_OUTER_BOUND('', #83, .T.);
#83 = EDGE_LOOP('', (#84, #85));
#84 = ORIENTED_EDGE('', *, *, #30, .T.);
#85 = ORIENTED_EDGE('', *, *, #63, .T.);
#86 = B_SPLINE_SURFACE_WITH_KNOTS('', 1, 1, ((#87, #88), (#89, #90)), .UNSPECIFIED., .F., .F., .U., (2, 2), (2, 2), (0., 1.), (0., 1.), .UNSPECIFIED.);
#87 = CARTESIAN_POINT('', (12.2983738762488, -7.29837387624885, 5.));
#88 = CARTESIAN_POINT('', (-12.2983738762488, -7.29837387624885, 5.));
#89 = CARTESIAN_POINT('', (12.2983738762488, 17.2983738762488, 5.));
#90 = CARTESIAN_POINT('', (-12.2983738762488, 17.2983738762488, 5.));
#91 = DRAUGHTING_MODEL('', (#99), #100);
#92 = PRESENTATION_STYLE_ASSIGNMENT((#93));
#93 = SURFACE_STYLE_USAGE(.POSITIVE., #94);
#94 = SURFACE_SIDE_STYLE('', (#95));
#95 = SURFACE_STYLE_FILL_AREA(#96);
#96 = FILL_AREA_STYLE('', (#97));
#97 = FILL_AREA_STYLE_COLOUR('', #98);
#98 = COLOUR_RGB('', 0.50196078431373, 0.50196078431373, 0.50196078431373);
#99 = STYLED_ITEM('', (#92), #1);
#100 = (
   GEOMETRIC_REPRESENTATION_CONTEXT (3)
   GLOBAL_UNCERTAINTY_ASSIGNED_CONTEXT ((#102))
   GLOBAL_UNIT_ASSIGNED_CONTEXT ((#101, #103, #104))
   REPRESENTATION_CONTEXT ('', '3D')
);
#101 = (
   LENGTH_UNIT ()
   NAMED_UNIT (*)
   SI_UNIT (.MILLI., .METRE.)
);
#102 = UNCERTAINTY_MEASURE_WITH_UNIT(LENGTH_MEASURE(1.E-6), #101, 'DISTANCE_ACCURACY_VALUE', '');
#103 = (
   NAMED_UNIT (*)
   SI_UNIT ($, .STERADIAN.)
   SOLID_ANGLE_UNIT ()
);
#104 = (
   NAMED_UNIT (*)
   PLANE_ANGLE_UNIT ()
   SI_UNIT ($, .RADIAN.)
);
#105 = SHAPE_REPRESENTATION('', (#118), #100);
#106 = PRODUCT_DEFINITION_SHAPE('', '', #107);
#107 = PRODUCT_DEFINITION('', '', #110, #114);
#108 = APPLICATION_CONTEXT('configuration controlled 3D designs of mechanical parts and assemblies');
#109 = APPLICATION_PROTOCOL_DEFINITION('International Standard', 'automotive_design', 2002, #108);
#110 = PRODUCT_DEFINITION_FORMATION_WITH_SPECIFIED_SOURCE('', '', #111, .NOT_KNOWN.);
#111 = PRODUCT('FlagTop', 'FlagTop', '', (#112));
#112 = PRODUCT_CONTEXT('', #108, 'mechanical');
#113 = PRODUCT_RELATED_PRODUCT_CATEGORY('detail', '', (#111));
#114 = PRODUCT_DEFINITION_CONTEXT('part definition', #108, 'design');
#115 = SHAPE_DEFINITION_REPRESENTATION(#106, #105);
#116 = SHAPE_REPRESENTATION_RELATIONSHIP('', '', #105, #117);
#117 = ADVANCED_BREP_SHAPE_REPRESENTATION('', (#1), #100);
#118 = AXIS2_PLACEMENT_3D('', #119, #120, #121);
#119 = CARTESIAN_POINT('', (0., 0., 0.));
#120 = DIRECTION('', (0., 0., 1.));
#121 = DIRECTION('', (1., 0., 0.));
ENDSEC;
END-ISO-10303-21;
