ISO-10303-21;
HEADER;
FILE_DESCRIPTION(('STEP'), '1');
FILE_NAME('FlagTop', '2026-08-19T21:43:11', (''), (''), 'Express 3.1.3.0', 'Express Tool', 'Unknown');
FILE_SCHEMA(('AUTOMOTIVE_DESIGN'));
ENDSEC;

DATA;
#1 = MANIFOLD_SOLID_BREP('E_quarter cw=true_0', #2);
#2 = CLOSED_SHELL('', (#3, #30, #73, #89));
#3 = ADVANCED_FACE('', (#4), #25, .T.);
#4 = FACE_OUTER_BOUND('', #5, .T.);
#5 = EDGE_LOOP('', (#6, #15));
#6 = ORIENTED_EDGE('', *, *, #7, .F.);
#7 = EDGE_CURVE('', #8, #10, #12, .T.);
#8 = VERTEX_POINT('', #9);
#9 = CARTESIAN_POINT('', (10., -2.28105940857109E-15, 0.));
#10 = VERTEX_POINT('', #11);
#11 = CARTESIAN_POINT('', (0., 10., 0.));
#12 = B_SPLINE_CURVE_WITH_KNOTS('', 1, (#13, #14), .UNSPECIFIED., .F., .U., (2, 2), (0., 1.), .UNSPECIFIED.);
#13 = CARTESIAN_POINT('', (10., 0., 0.));
#14 = CARTESIAN_POINT('', (-1.77635683940025E-15, 10., 0.));
#15 = ORIENTED_EDGE('', *, *, #16, .F.);
#16 = EDGE_CURVE('', #10, #8, #17, .T.);
#17 = (
   BOUNDED_CURVE ()
   B_SPLINE_CURVE (2, (#18, #19, #20, #21, #22, #23, #24), .UNSPECIFIED., .F., .U.)
   B_SPLINE_CURVE_WITH_KNOTS ((3, 2, 2, 3), (0., 90., 180., 270.), .UNSPECIFIED.)
   CURVE ()
   GEOMETRIC_REPRESENTATION_ITEM ()
   RATIONAL_B_SPLINE_CURVE ((1., 0.707106781186548, 1., 0.707106781186548, 1., 0.707106781186548, 1.))
   REPRESENTATION_ITEM ('')
);
#18 = CARTESIAN_POINT('', (0., 10., 0.));
#19 = CARTESIAN_POINT('', (-10., 10., 0.));
#20 = CARTESIAN_POINT('', (-10., 1.68234189723614E-16, 0.));
#21 = CARTESIAN_POINT('', (-10., -10., 0.));
#22 = CARTESIAN_POINT('', (-1.22464679914735E-15, -10., 0.));
#23 = CARTESIAN_POINT('', (10., -10., 0.));
#24 = CARTESIAN_POINT('', (10., -2.28105940857109E-15, 0.));
#25 = B_SPLINE_SURFACE_WITH_KNOTS('', 1, 1, ((#26, #27), (#28, #29)), .UNSPECIFIED., .F., .F., .U., (2, 2), (2, 2), (0., 1.), (0., 1.), .UNSPECIFIED.);
#26 = CARTESIAN_POINT('', (15.556349186104, -15.556349186104, 0.));
#27 = CARTESIAN_POINT('', (15.556349186104, 15.556349186104, 0.));
#28 = CARTESIAN_POINT('', (-15.556349186104, -15.556349186104, 0.));
#29 = CARTESIAN_POINT('', (-15.556349186104, 15.556349186104, 0.));
#30 = ADVANCED_FACE('', (#31), #58, .T.);
#31 = FACE_OUTER_BOUND('', #32, .T.);
#32 = EDGE_LOOP('', (#33, #40, #41, #48));
#33 = ORIENTED_EDGE('', *, *, #34, .F.);
#34 = EDGE_CURVE('', #10, #35, #37, .T.);
#35 = VERTEX_POINT('', #36);
#36 = CARTESIAN_POINT('', (0., 10., 5.));
#37 = B_SPLINE_CURVE_WITH_KNOTS('', 1, (#38, #39), .UNSPECIFIED., .F., .U., (2, 2), (0., 5.), .UNSPECIFIED.);
#38 = CARTESIAN_POINT('', (0., 10., 0.));
#39 = CARTESIAN_POINT('', (0., 10., 5.));
#40 = ORIENTED_EDGE('', *, *, #16, .T.);
#41 = ORIENTED_EDGE('', *, *, #42, .T.);
#42 = EDGE_CURVE('', #8, #43, #45, .T.);
#43 = VERTEX_POINT('', #44);
#44 = CARTESIAN_POINT('', (10., -2.28105940857109E-15, 5.));
#45 = B_SPLINE_CURVE_WITH_KNOTS('', 1, (#46, #47), .UNSPECIFIED., .F., .U., (2, 2), (0., 5.), .UNSPECIFIED.);
#46 = CARTESIAN_POINT('', (10., -2.28105940857109E-15, 0.));
#47 = CARTESIAN_POINT('', (10., -2.28105940857109E-15, 5.));
#48 = ORIENTED_EDGE('', *, *, #49, .F.);
#49 = EDGE_CURVE('', #35, #43, #50, .T.);
#50 = (
   BOUNDED_CURVE ()
   B_SPLINE_CURVE (2, (#51, #52, #53, #54, #55, #56, #57), .UNSPECIFIED., .F., .U.)
   B_SPLINE_CURVE_WITH_KNOTS ((3, 2, 2, 3), (0., 90., 180., 270.), .UNSPECIFIED.)
   CURVE ()
   GEOMETRIC_REPRESENTATION_ITEM ()
   RATIONAL_B_SPLINE_CURVE ((1., 0.707106781186548, 1., 0.707106781186548, 1., 0.707106781186548, 1.))
   REPRESENTATION_ITEM ('')
);
#51 = CARTESIAN_POINT('', (0., 10., 5.));
#52 = CARTESIAN_POINT('', (-10., 10., 5.));
#53 = CARTESIAN_POINT('', (-10., 1.68234189723614E-16, 5.));
#54 = CARTESIAN_POINT('', (-10., -10., 5.));
#55 = CARTESIAN_POINT('', (-1.22464679914735E-15, -10., 5.));
#56 = CARTESIAN_POINT('', (10., -10., 5.));
#57 = CARTESIAN_POINT('', (10., -2.28105940857109E-15, 5.));
#58 = (
   BOUNDED_SURFACE ()
   B_SPLINE_SURFACE (2, 1, ((#59, #60), (#61, #62), (#63, #64), (#65, #66), (#67, #68), (#69, #70), (#71, #72)), .UNSPECIFIED., .F., .F., .U.)
   B_SPLINE_SURFACE_WITH_KNOTS ((3, 2, 2, 3), (2, 2), (0., 90., 180., 270.), (0., 5.), .UNSPECIFIED.)
   GEOMETRIC_REPRESENTATION_ITEM ()
   RATIONAL_B_SPLINE_SURFACE (((1., 1.), (0.707106781186548, 0.707106781186548), (1., 1.), (0.707106781186548, 0.707106781186548), (1., 1.), (0.707106781186548, 0.707106781186548), (1., 1.)))
   REPRESENTATION_ITEM ('')
   SURFACE ()
);
#59 = CARTESIAN_POINT('', (0., 10., 0.));
#60 = CARTESIAN_POINT('', (0., 10., 5.));
#61 = CARTESIAN_POINT('', (-10., 10., 0.));
#62 = CARTESIAN_POINT('', (-10., 10., 5.));
#63 = CARTESIAN_POINT('', (-10., 1.68234189723614E-16, 0.));
#64 = CARTESIAN_POINT('', (-10., 1.68234189723614E-16, 5.));
#65 = CARTESIAN_POINT('', (-10., -10., 0.));
#66 = CARTESIAN_POINT('', (-10., -10., 5.));
#67 = CARTESIAN_POINT('', (-1.22464679914735E-15, -10., 0.));
#68 = CARTESIAN_POINT('', (-1.22464679914735E-15, -10., 5.));
#69 = CARTESIAN_POINT('', (10., -10., 0.));
#70 = CARTESIAN_POINT('', (10., -10., 5.));
#71 = CARTESIAN_POINT('', (10., -2.28105940857109E-15, 0.));
#72 = CARTESIAN_POINT('', (10., -2.28105940857109E-15, 5.));
#73 = ADVANCED_FACE('', (#74), #84, .T.);
#74 = FACE_OUTER_BOUND('', #75, .T.);
#75 = EDGE_LOOP('', (#76, #77, #78, #79));
#76 = ORIENTED_EDGE('', *, *, #42, .F.);
#77 = ORIENTED_EDGE('', *, *, #7, .T.);
#78 = ORIENTED_EDGE('', *, *, #34, .T.);
#79 = ORIENTED_EDGE('', *, *, #80, .F.);
#80 = EDGE_CURVE('', #43, #35, #81, .T.);
#81 = B_SPLINE_CURVE_WITH_KNOTS('', 1, (#82, #83), .UNSPECIFIED., .F., .U., (2, 2), (0., 1.), .UNSPECIFIED.);
#82 = CARTESIAN_POINT('', (10., 0., 5.));
#83 = CARTESIAN_POINT('', (-1.77635683940025E-15, 10., 5.));
#84 = B_SPLINE_SURFACE_WITH_KNOTS('', 1, 1, ((#85, #86), (#87, #88)), .UNSPECIFIED., .F., .F., .U., (2, 2), (2, 2), (0., 1.), (0., 1.), .UNSPECIFIED.);
#85 = CARTESIAN_POINT('', (10., 0., 0.));
#86 = CARTESIAN_POINT('', (10., 0., 5.));
#87 = CARTESIAN_POINT('', (-1.77635683940025E-15, 10., 0.));
#88 = CARTESIAN_POINT('', (-1.77635683940025E-15, 10., 5.));
#89 = ADVANCED_FACE('', (#90), #94, .T.);
#90 = FACE_OUTER_BOUND('', #91, .T.);
#91 = EDGE_LOOP('', (#92, #93));
#92 = ORIENTED_EDGE('', *, *, #80, .T.);
#93 = ORIENTED_EDGE('', *, *, #49, .T.);
#94 = B_SPLINE_SURFACE_WITH_KNOTS('', 1, 1, ((#95, #96), (#97, #98)), .UNSPECIFIED., .F., .F., .U., (2, 2), (2, 2), (0., 1.), (0., 1.), .UNSPECIFIED.);
#95 = CARTESIAN_POINT('', (15.556349186104, -15.556349186104, 5.));
#96 = CARTESIAN_POINT('', (-15.556349186104, -15.556349186104, 5.));
#97 = CARTESIAN_POINT('', (15.556349186104, 15.556349186104, 5.));
#98 = CARTESIAN_POINT('', (-15.556349186104, 15.556349186104, 5.));
#99 = DRAUGHTING_MODEL('', (#107), #108);
#100 = PRESENTATION_STYLE_ASSIGNMENT((#101));
#101 = SURFACE_STYLE_USAGE(.POSITIVE., #102);
#102 = SURFACE_SIDE_STYLE('', (#103));
#103 = SURFACE_STYLE_FILL_AREA(#104);
#104 = FILL_AREA_STYLE('', (#105));
#105 = FILL_AREA_STYLE_COLOUR('', #106);
#106 = COLOUR_RGB('', 0.50196078431373, 0.50196078431373, 0.50196078431373);
#107 = STYLED_ITEM('', (#100), #1);
#108 = (
   GEOMETRIC_REPRESENTATION_CONTEXT (3)
   GLOBAL_UNCERTAINTY_ASSIGNED_CONTEXT ((#110))
   GLOBAL_UNIT_ASSIGNED_CONTEXT ((#109, #111, #112))
   REPRESENTATION_CONTEXT ('', '3D')
);
#109 = (
   LENGTH_UNIT ()
   NAMED_UNIT (*)
   SI_UNIT (.MILLI., .METRE.)
);
#110 = UNCERTAINTY_MEASURE_WITH_UNIT(LENGTH_MEASURE(1.E-6), #109, 'DISTANCE_ACCURACY_VALUE', '');
#111 = (
   NAMED_UNIT (*)
   SI_UNIT ($, .STERADIAN.)
   SOLID_ANGLE_UNIT ()
);
#112 = (
   NAMED_UNIT (*)
   PLANE_ANGLE_UNIT ()
   SI_UNIT ($, .RADIAN.)
);
#113 = SHAPE_REPRESENTATION('', (#126), #108);
#114 = PRODUCT_DEFINITION_SHAPE('', '', #115);
#115 = PRODUCT_DEFINITION('', '', #118, #122);
#116 = APPLICATION_CONTEXT('configuration controlled 3D designs of mechanical parts and assemblies');
#117 = APPLICATION_PROTOCOL_DEFINITION('International Standard', 'automotive_design', 2002, #116);
#118 = PRODUCT_DEFINITION_FORMATION_WITH_SPECIFIED_SOURCE('', '', #119, .NOT_KNOWN.);
#119 = PRODUCT('FlagTop', 'FlagTop', '', (#120));
#120 = PRODUCT_CONTEXT('', #116, 'mechanical');
#121 = PRODUCT_RELATED_PRODUCT_CATEGORY('detail', '', (#119));
#122 = PRODUCT_DEFINITION_CONTEXT('part definition', #116, 'design');
#123 = SHAPE_DEFINITION_REPRESENTATION(#114, #113);
#124 = SHAPE_REPRESENTATION_RELATIONSHIP('', '', #113, #125);
#125 = ADVANCED_BREP_SHAPE_REPRESENTATION('', (#1), #108);
#126 = AXIS2_PLACEMENT_3D('', #127, #128, #129);
#127 = CARTESIAN_POINT('', (0., 0., 0.));
#128 = DIRECTION('', (0., 0., 1.));
#129 = DIRECTION('', (1., 0., 0.));
ENDSEC;
END-ISO-10303-21;
