ISO-10303-21;
HEADER;
FILE_DESCRIPTION(('STEP'), '1');
FILE_NAME('KeepToolsDetail', '2026-04-14T20:19:57', (''), (''), 'Express 3.1.2.0', 'Express Tool', 'Unknown');
FILE_SCHEMA(('AUTOMOTIVE_DESIGN'));
ENDSEC;

DATA;
#1 = SHELL_BASED_SURFACE_MODEL('Solid', (#2, #139));
#2 = CLOSED_SHELL('', (#3, #39, #67, #95, #115, #127));
#3 = ADVANCED_FACE('', (#4), #34, .F.);
#4 = FACE_OUTER_BOUND('', #5, .F.);
#5 = EDGE_LOOP('', (#6, #15, #22, #29));
#6 = ORIENTED_EDGE('', *, *, #7, .T.);
#7 = EDGE_CURVE('', #8, #10, #12, .T.);
#8 = VERTEX_POINT('', #9);
#9 = CARTESIAN_POINT('', (-50., 30., -20.));
#10 = VERTEX_POINT('', #11);
#11 = CARTESIAN_POINT('', (-50., 30., 20.));
#12 = B_SPLINE_CURVE_WITH_KNOTS('', 1, (#13, #14), .UNSPECIFIED., .F., .U., (2, 2), (0., 40.), .UNSPECIFIED.);
#13 = CARTESIAN_POINT('', (-50., 30., -20.));
#14 = CARTESIAN_POINT('', (-50., 30., 20.));
#15 = ORIENTED_EDGE('', *, *, #16, .T.);
#16 = EDGE_CURVE('', #10, #17, #19, .T.);
#17 = VERTEX_POINT('', #18);
#18 = CARTESIAN_POINT('', (50., 30., 20.));
#19 = B_SPLINE_CURVE_WITH_KNOTS('', 1, (#20, #21), .UNSPECIFIED., .F., .U., (2, 2), (0., 100.), .UNSPECIFIED.);
#20 = CARTESIAN_POINT('', (-50., 30., 20.));
#21 = CARTESIAN_POINT('', (50., 30., 20.));
#22 = ORIENTED_EDGE('', *, *, #23, .F.);
#23 = EDGE_CURVE('', #24, #17, #26, .T.);
#24 = VERTEX_POINT('', #25);
#25 = CARTESIAN_POINT('', (50., 30., -20.));
#26 = B_SPLINE_CURVE_WITH_KNOTS('', 1, (#27, #28), .UNSPECIFIED., .F., .U., (2, 2), (0., 40.), .UNSPECIFIED.);
#27 = CARTESIAN_POINT('', (50., 30., -20.));
#28 = CARTESIAN_POINT('', (50., 30., 20.));
#29 = ORIENTED_EDGE('', *, *, #30, .F.);
#30 = EDGE_CURVE('', #8, #24, #31, .T.);
#31 = B_SPLINE_CURVE_WITH_KNOTS('', 1, (#32, #33), .UNSPECIFIED., .F., .U., (2, 2), (0., 100.), .UNSPECIFIED.);
#32 = CARTESIAN_POINT('', (-50., 30., -20.));
#33 = CARTESIAN_POINT('', (50., 30., -20.));
#34 = B_SPLINE_SURFACE_WITH_KNOTS('', 1, 1, ((#35, #36), (#37, #38)), .UNSPECIFIED., .F., .F., .U., (2, 2), (2, 2), (0., 40.), (0., 100.), .UNSPECIFIED.);
#35 = CARTESIAN_POINT('', (-50., 30., -20.));
#36 = CARTESIAN_POINT('', (50., 30., -20.));
#37 = CARTESIAN_POINT('', (-50., 30., 20.));
#38 = CARTESIAN_POINT('', (50., 30., 20.));
#39 = ADVANCED_FACE('', (#40), #62, .F.);
#40 = FACE_OUTER_BOUND('', #41, .F.);
#41 = EDGE_LOOP('', (#42, #49, #56, #61));
#42 = ORIENTED_EDGE('', *, *, #43, .F.);
#43 = EDGE_CURVE('', #44, #10, #46, .T.);
#44 = VERTEX_POINT('', #45);
#45 = CARTESIAN_POINT('', (-50., -30., 20.));
#46 = B_SPLINE_CURVE_WITH_KNOTS('', 1, (#47, #48), .UNSPECIFIED., .F., .U., (2, 2), (0., 60.), .UNSPECIFIED.);
#47 = CARTESIAN_POINT('', (-50., -30., 20.));
#48 = CARTESIAN_POINT('', (-50., 30., 20.));
#49 = ORIENTED_EDGE('', *, *, #50, .T.);
#50 = EDGE_CURVE('', #44, #51, #53, .T.);
#51 = VERTEX_POINT('', #52);
#52 = CARTESIAN_POINT('', (50., -30., 20.));
#53 = B_SPLINE_CURVE_WITH_KNOTS('', 1, (#54, #55), .UNSPECIFIED., .F., .U., (2, 2), (0., 100.), .UNSPECIFIED.);
#54 = CARTESIAN_POINT('', (-50., -30., 20.));
#55 = CARTESIAN_POINT('', (50., -30., 20.));
#56 = ORIENTED_EDGE('', *, *, #57, .T.);
#57 = EDGE_CURVE('', #51, #17, #58, .T.);
#58 = B_SPLINE_CURVE_WITH_KNOTS('', 1, (#59, #60), .UNSPECIFIED., .F., .U., (2, 2), (0., 60.), .UNSPECIFIED.);
#59 = CARTESIAN_POINT('', (50., -30., 20.));
#60 = CARTESIAN_POINT('', (50., 30., 20.));
#61 = ORIENTED_EDGE('', *, *, #16, .F.);
#62 = B_SPLINE_SURFACE_WITH_KNOTS('', 1, 1, ((#63, #64), (#65, #66)), .UNSPECIFIED., .F., .F., .U., (2, 2), (2, 2), (0., 100.), (0., 60.), .UNSPECIFIED.);
#63 = CARTESIAN_POINT('', (-50., -30., 20.));
#64 = CARTESIAN_POINT('', (-50., 30., 20.));
#65 = CARTESIAN_POINT('', (50., -30., 20.));
#66 = CARTESIAN_POINT('', (50., 30., 20.));
#67 = ADVANCED_FACE('', (#68), #90, .F.);
#68 = FACE_OUTER_BOUND('', #69, .F.);
#69 = EDGE_LOOP('', (#70, #77, #84, #89));
#70 = ORIENTED_EDGE('', *, *, #71, .F.);
#71 = EDGE_CURVE('', #72, #44, #74, .T.);
#72 = VERTEX_POINT('', #73);
#73 = CARTESIAN_POINT('', (-50., -30., -20.));
#74 = B_SPLINE_CURVE_WITH_KNOTS('', 1, (#75, #76), .UNSPECIFIED., .F., .U., (2, 2), (0., 40.), .UNSPECIFIED.);
#75 = CARTESIAN_POINT('', (-50., -30., -20.));
#76 = CARTESIAN_POINT('', (-50., -30., 20.));
#77 = ORIENTED_EDGE('', *, *, #78, .T.);
#78 = EDGE_CURVE('', #72, #79, #81, .T.);
#79 = VERTEX_POINT('', #80);
#80 = CARTESIAN_POINT('', (50., -30., -20.));
#81 = B_SPLINE_CURVE_WITH_KNOTS('', 1, (#82, #83), .UNSPECIFIED., .F., .U., (2, 2), (0., 100.), .UNSPECIFIED.);
#82 = CARTESIAN_POINT('', (-50., -30., -20.));
#83 = CARTESIAN_POINT('', (50., -30., -20.));
#84 = ORIENTED_EDGE('', *, *, #85, .T.);
#85 = EDGE_CURVE('', #79, #51, #86, .T.);
#86 = B_SPLINE_CURVE_WITH_KNOTS('', 1, (#87, #88), .UNSPECIFIED., .F., .U., (2, 2), (0., 40.), .UNSPECIFIED.);
#87 = CARTESIAN_POINT('', (50., -30., -20.));
#88 = CARTESIAN_POINT('', (50., -30., 20.));
#89 = ORIENTED_EDGE('', *, *, #50, .F.);
#90 = B_SPLINE_SURFACE_WITH_KNOTS('', 1, 1, ((#91, #92), (#93, #94)), .UNSPECIFIED., .F., .F., .U., (2, 2), (2, 2), (0., 100.), (0., 40.), .UNSPECIFIED.);
#91 = CARTESIAN_POINT('', (-50., -30., -20.));
#92 = CARTESIAN_POINT('', (-50., -30., 20.));
#93 = CARTESIAN_POINT('', (50., -30., -20.));
#94 = CARTESIAN_POINT('', (50., -30., 20.));
#95 = ADVANCED_FACE('', (#96), #110, .F.);
#96 = FACE_OUTER_BOUND('', #97, .F.);
#97 = EDGE_LOOP('', (#98, #103, #104, #109));
#98 = ORIENTED_EDGE('', *, *, #99, .T.);
#99 = EDGE_CURVE('', #72, #8, #100, .T.);
#100 = B_SPLINE_CURVE_WITH_KNOTS('', 1, (#101, #102), .UNSPECIFIED., .F., .U., (2, 2), (0., 60.), .UNSPECIFIED.);
#101 = CARTESIAN_POINT('', (-50., -30., -20.));
#102 = CARTESIAN_POINT('', (-50., 30., -20.));
#103 = ORIENTED_EDGE('', *, *, #30, .T.);
#104 = ORIENTED_EDGE('', *, *, #105, .F.);
#105 = EDGE_CURVE('', #79, #24, #106, .T.);
#106 = B_SPLINE_CURVE_WITH_KNOTS('', 1, (#107, #108), .UNSPECIFIED., .F., .U., (2, 2), (0., 60.), .UNSPECIFIED.);
#107 = CARTESIAN_POINT('', (50., -30., -20.));
#108 = CARTESIAN_POINT('', (50., 30., -20.));
#109 = ORIENTED_EDGE('', *, *, #78, .F.);
#110 = B_SPLINE_SURFACE_WITH_KNOTS('', 1, 1, ((#111, #112), (#113, #114)), .UNSPECIFIED., .F., .F., .U., (2, 2), (2, 2), (0., 60.), (0., 100.), .UNSPECIFIED.);
#111 = CARTESIAN_POINT('', (-50., -30., -20.));
#112 = CARTESIAN_POINT('', (50., -30., -20.));
#113 = CARTESIAN_POINT('', (-50., 30., -20.));
#114 = CARTESIAN_POINT('', (50., 30., -20.));
#115 = ADVANCED_FACE('', (#116), #122, .F.);
#116 = FACE_OUTER_BOUND('', #117, .F.);
#117 = EDGE_LOOP('', (#118, #119, #120, #121));
#118 = ORIENTED_EDGE('', *, *, #85, .F.);
#119 = ORIENTED_EDGE('', *, *, #105, .T.);
#120 = ORIENTED_EDGE('', *, *, #23, .T.);
#121 = ORIENTED_EDGE('', *, *, #57, .F.);
#122 = B_SPLINE_SURFACE_WITH_KNOTS('', 1, 1, ((#123, #124), (#125, #126)), .UNSPECIFIED., .F., .F., .U., (2, 2), (2, 2), (0., 60.), (0., 40.), .UNSPECIFIED.);
#123 = CARTESIAN_POINT('', (50., -30., -20.));
#124 = CARTESIAN_POINT('', (50., -30., 20.));
#125 = CARTESIAN_POINT('', (50., 30., -20.));
#126 = CARTESIAN_POINT('', (50., 30., 20.));
#127 = ADVANCED_FACE('', (#128), #134, .F.);
#128 = FACE_OUTER_BOUND('', #129, .F.);
#129 = EDGE_LOOP('', (#130, #131, #132, #133));
#130 = ORIENTED_EDGE('', *, *, #71, .T.);
#131 = ORIENTED_EDGE('', *, *, #43, .T.);
#132 = ORIENTED_EDGE('', *, *, #7, .F.);
#133 = ORIENTED_EDGE('', *, *, #99, .F.);
#134 = B_SPLINE_SURFACE_WITH_KNOTS('', 1, 1, ((#135, #136), (#137, #138)), .UNSPECIFIED., .F., .F., .U., (2, 2), (2, 2), (0., 40.), (0., 60.), .UNSPECIFIED.);
#135 = CARTESIAN_POINT('', (-50., -30., -20.));
#136 = CARTESIAN_POINT('', (-50., 30., -20.));
#137 = CARTESIAN_POINT('', (-50., -30., 20.));
#138 = CARTESIAN_POINT('', (-50., 30., 20.));
#139 = CLOSED_SHELL('', (#140, #176, #204, #232, #252, #264));
#140 = ADVANCED_FACE('', (#141), #171, .F.);
#141 = FACE_OUTER_BOUND('', #142, .F.);
#142 = EDGE_LOOP('', (#143, #152, #159, #166));
#143 = ORIENTED_EDGE('', *, *, #144, .T.);
#144 = EDGE_CURVE('', #145, #147, #149, .T.);
#145 = VERTEX_POINT('', #146);
#146 = CARTESIAN_POINT('', (30., 50., -40.));
#147 = VERTEX_POINT('', #148);
#148 = CARTESIAN_POINT('', (30., 50., 40.));
#149 = B_SPLINE_CURVE_WITH_KNOTS('', 1, (#150, #151), .UNSPECIFIED., .F., .U., (2, 2), (0., 80.), .UNSPECIFIED.);
#150 = CARTESIAN_POINT('', (30., 50., -40.));
#151 = CARTESIAN_POINT('', (30., 50., 40.));
#152 = ORIENTED_EDGE('', *, *, #153, .T.);
#153 = EDGE_CURVE('', #147, #154, #156, .T.);
#154 = VERTEX_POINT('', #155);
#155 = CARTESIAN_POINT('', (90., 50., 40.));
#156 = B_SPLINE_CURVE_WITH_KNOTS('', 1, (#157, #158), .UNSPECIFIED., .F., .U., (2, 2), (0., 60.), .UNSPECIFIED.);
#157 = CARTESIAN_POINT('', (30., 50., 40.));
#158 = CARTESIAN_POINT('', (90., 50., 40.));
#159 = ORIENTED_EDGE('', *, *, #160, .F.);
#160 = EDGE_CURVE('', #161, #154, #163, .T.);
#161 = VERTEX_POINT('', #162);
#162 = CARTESIAN_POINT('', (90., 50., -40.));
#163 = B_SPLINE_CURVE_WITH_KNOTS('', 1, (#164, #165), .UNSPECIFIED., .F., .U., (2, 2), (0., 80.), .UNSPECIFIED.);
#164 = CARTESIAN_POINT('', (90., 50., -40.));
#165 = CARTESIAN_POINT('', (90., 50., 40.));
#166 = ORIENTED_EDGE('', *, *, #167, .F.);
#167 = EDGE_CURVE('', #145, #161, #168, .T.);
#168 = B_SPLINE_CURVE_WITH_KNOTS('', 1, (#169, #170), .UNSPECIFIED., .F., .U., (2, 2), (0., 60.), .UNSPECIFIED.);
#169 = CARTESIAN_POINT('', (30., 50., -40.));
#170 = CARTESIAN_POINT('', (90., 50., -40.));
#171 = B_SPLINE_SURFACE_WITH_KNOTS('', 1, 1, ((#172, #173), (#174, #175)), .UNSPECIFIED., .F., .F., .U., (2, 2), (2, 2), (0., 80.), (0., 60.), .UNSPECIFIED.);
#172 = CARTESIAN_POINT('', (30., 50., -40.));
#173 = CARTESIAN_POINT('', (90., 50., -40.));
#174 = CARTESIAN_POINT('', (30., 50., 40.));
#175 = CARTESIAN_POINT('', (90., 50., 40.));
#176 = ADVANCED_FACE('', (#177), #199, .F.);
#177 = FACE_OUTER_BOUND('', #178, .F.);
#178 = EDGE_LOOP('', (#179, #186, #193, #198));
#179 = ORIENTED_EDGE('', *, *, #180, .F.);
#180 = EDGE_CURVE('', #181, #147, #183, .T.);
#181 = VERTEX_POINT('', #182);
#182 = CARTESIAN_POINT('', (30., 10., 40.));
#183 = B_SPLINE_CURVE_WITH_KNOTS('', 1, (#184, #185), .UNSPECIFIED., .F., .U., (2, 2), (0., 40.), .UNSPECIFIED.);
#184 = CARTESIAN_POINT('', (30., 10., 40.));
#185 = CARTESIAN_POINT('', (30., 50., 40.));
#186 = ORIENTED_EDGE('', *, *, #187, .T.);
#187 = EDGE_CURVE('', #181, #188, #190, .T.);
#188 = VERTEX_POINT('', #189);
#189 = CARTESIAN_POINT('', (90., 10., 40.));
#190 = B_SPLINE_CURVE_WITH_KNOTS('', 1, (#191, #192), .UNSPECIFIED., .F., .U., (2, 2), (0., 60.), .UNSPECIFIED.);
#191 = CARTESIAN_POINT('', (30., 10., 40.));
#192 = CARTESIAN_POINT('', (90., 10., 40.));
#193 = ORIENTED_EDGE('', *, *, #194, .T.);
#194 = EDGE_CURVE('', #188, #154, #195, .T.);
#195 = B_SPLINE_CURVE_WITH_KNOTS('', 1, (#196, #197), .UNSPECIFIED., .F., .U., (2, 2), (0., 40.), .UNSPECIFIED.);
#196 = CARTESIAN_POINT('', (90., 10., 40.));
#197 = CARTESIAN_POINT('', (90., 50., 40.));
#198 = ORIENTED_EDGE('', *, *, #153, .F.);
#199 = B_SPLINE_SURFACE_WITH_KNOTS('', 1, 1, ((#200, #201), (#202, #203)), .UNSPECIFIED., .F., .F., .U., (2, 2), (2, 2), (0., 60.), (0., 40.), .UNSPECIFIED.);
#200 = CARTESIAN_POINT('', (30., 10., 40.));
#201 = CARTESIAN_POINT('', (30., 50., 40.));
#202 = CARTESIAN_POINT('', (90., 10., 40.));
#203 = CARTESIAN_POINT('', (90., 50., 40.));
#204 = ADVANCED_FACE('', (#205), #227, .F.);
#205 = FACE_OUTER_BOUND('', #206, .F.);
#206 = EDGE_LOOP('', (#207, #214, #221, #226));
#207 = ORIENTED_EDGE('', *, *, #208, .F.);
#208 = EDGE_CURVE('', #209, #181, #211, .T.);
#209 = VERTEX_POINT('', #210);
#210 = CARTESIAN_POINT('', (30., 10., -40.));
#211 = B_SPLINE_CURVE_WITH_KNOTS('', 1, (#212, #213), .UNSPECIFIED., .F., .U., (2, 2), (0., 80.), .UNSPECIFIED.);
#212 = CARTESIAN_POINT('', (30., 10., -40.));
#213 = CARTESIAN_POINT('', (30., 10., 40.));
#214 = ORIENTED_EDGE('', *, *, #215, .T.);
#215 = EDGE_CURVE('', #209, #216, #218, .T.);
#216 = VERTEX_POINT('', #217);
#217 = CARTESIAN_POINT('', (90., 10., -40.));
#218 = B_SPLINE_CURVE_WITH_KNOTS('', 1, (#219, #220), .UNSPECIFIED., .F., .U., (2, 2), (0., 60.), .UNSPECIFIED.);
#219 = CARTESIAN_POINT('', (30., 10., -40.));
#220 = CARTESIAN_POINT('', (90., 10., -40.));
#221 = ORIENTED_EDGE('', *, *, #222, .T.);
#222 = EDGE_CURVE('', #216, #188, #223, .T.);
#223 = B_SPLINE_CURVE_WITH_KNOTS('', 1, (#224, #225), .UNSPECIFIED., .F., .U., (2, 2), (0., 80.), .UNSPECIFIED.);
#224 = CARTESIAN_POINT('', (90., 10., -40.));
#225 = CARTESIAN_POINT('', (90., 10., 40.));
#226 = ORIENTED_EDGE('', *, *, #187, .F.);
#227 = B_SPLINE_SURFACE_WITH_KNOTS('', 1, 1, ((#228, #229), (#230, #231)), .UNSPECIFIED., .F., .F., .U., (2, 2), (2, 2), (0., 60.), (0., 80.), .UNSPECIFIED.);
#228 = CARTESIAN_POINT('', (30., 10., -40.));
#229 = CARTESIAN_POINT('', (30., 10., 40.));
#230 = CARTESIAN_POINT('', (90., 10., -40.));
#231 = CARTESIAN_POINT('', (90., 10., 40.));
#232 = ADVANCED_FACE('', (#233), #247, .F.);
#233 = FACE_OUTER_BOUND('', #234, .F.);
#234 = EDGE_LOOP('', (#235, #240, #241, #246));
#235 = ORIENTED_EDGE('', *, *, #236, .T.);
#236 = EDGE_CURVE('', #209, #145, #237, .T.);
#237 = B_SPLINE_CURVE_WITH_KNOTS('', 1, (#238, #239), .UNSPECIFIED., .F., .U., (2, 2), (0., 40.), .UNSPECIFIED.);
#238 = CARTESIAN_POINT('', (30., 10., -40.));
#239 = CARTESIAN_POINT('', (30., 50., -40.));
#240 = ORIENTED_EDGE('', *, *, #167, .T.);
#241 = ORIENTED_EDGE('', *, *, #242, .F.);
#242 = EDGE_CURVE('', #216, #161, #243, .T.);
#243 = B_SPLINE_CURVE_WITH_KNOTS('', 1, (#244, #245), .UNSPECIFIED., .F., .U., (2, 2), (0., 40.), .UNSPECIFIED.);
#244 = CARTESIAN_POINT('', (90., 10., -40.));
#245 = CARTESIAN_POINT('', (90., 50., -40.));
#246 = ORIENTED_EDGE('', *, *, #215, .F.);
#247 = B_SPLINE_SURFACE_WITH_KNOTS('', 1, 1, ((#248, #249), (#250, #251)), .UNSPECIFIED., .F., .F., .U., (2, 2), (2, 2), (0., 40.), (0., 60.), .UNSPECIFIED.);
#248 = CARTESIAN_POINT('', (30., 10., -40.));
#249 = CARTESIAN_POINT('', (90., 10., -40.));
#250 = CARTESIAN_POINT('', (30., 50., -40.));
#251 = CARTESIAN_POINT('', (90., 50., -40.));
#252 = ADVANCED_FACE('', (#253), #259, .F.);
#253 = FACE_OUTER_BOUND('', #254, .F.);
#254 = EDGE_LOOP('', (#255, #256, #257, #258));
#255 = ORIENTED_EDGE('', *, *, #222, .F.);
#256 = ORIENTED_EDGE('', *, *, #242, .T.);
#257 = ORIENTED_EDGE('', *, *, #160, .T.);
#258 = ORIENTED_EDGE('', *, *, #194, .F.);
#259 = B_SPLINE_SURFACE_WITH_KNOTS('', 1, 1, ((#260, #261), (#262, #263)), .UNSPECIFIED., .F., .F., .U., (2, 2), (2, 2), (0., 40.), (0., 80.), .UNSPECIFIED.);
#260 = CARTESIAN_POINT('', (90., 10., -40.));
#261 = CARTESIAN_POINT('', (90., 10., 40.));
#262 = CARTESIAN_POINT('', (90., 50., -40.));
#263 = CARTESIAN_POINT('', (90., 50., 40.));
#264 = ADVANCED_FACE('', (#265), #271, .F.);
#265 = FACE_OUTER_BOUND('', #266, .F.);
#266 = EDGE_LOOP('', (#267, #268, #269, #270));
#267 = ORIENTED_EDGE('', *, *, #208, .T.);
#268 = ORIENTED_EDGE('', *, *, #180, .T.);
#269 = ORIENTED_EDGE('', *, *, #144, .F.);
#270 = ORIENTED_EDGE('', *, *, #236, .F.);
#271 = B_SPLINE_SURFACE_WITH_KNOTS('', 1, 1, ((#272, #273), (#274, #275)), .UNSPECIFIED., .F., .F., .U., (2, 2), (2, 2), (0., 80.), (0., 40.), .UNSPECIFIED.);
#272 = CARTESIAN_POINT('', (30., 10., -40.));
#273 = CARTESIAN_POINT('', (30., 50., -40.));
#274 = CARTESIAN_POINT('', (30., 10., 40.));
#275 = CARTESIAN_POINT('', (30., 50., 40.));
#276 = DRAUGHTING_MODEL('', (#284, #567, #713), #716);
#277 = PRESENTATION_STYLE_ASSIGNMENT((#278));
#278 = SURFACE_STYLE_USAGE(.POSITIVE., #279);
#279 = SURFACE_SIDE_STYLE('', (#280));
#280 = SURFACE_STYLE_FILL_AREA(#281);
#281 = FILL_AREA_STYLE('', (#282));
#282 = FILL_AREA_STYLE_COLOUR('', #283);
#283 = COLOUR_RGB('', 0.50196078431373, 0.50196078431373, 0.50196078431373);
#284 = STYLED_ITEM('', (#277), #1);
#285 = SHELL_BASED_SURFACE_MODEL('Solid', (#286, #423));
#286 = CLOSED_SHELL('', (#287, #323, #351, #379, #399, #411));
#287 = ADVANCED_FACE('', (#288), #318, .F.);
#288 = FACE_OUTER_BOUND('', #289, .F.);
#289 = EDGE_LOOP('', (#290, #299, #306, #313));
#290 = ORIENTED_EDGE('', *, *, #291, .T.);
#291 = EDGE_CURVE('', #292, #294, #296, .T.);
#292 = VERTEX_POINT('', #293);
#293 = CARTESIAN_POINT('', (-50., 30., 100.));
#294 = VERTEX_POINT('', #295);
#295 = CARTESIAN_POINT('', (-50., 30., 140.));
#296 = B_SPLINE_CURVE_WITH_KNOTS('', 1, (#297, #298), .UNSPECIFIED., .F., .U., (2, 2), (0., 40.), .UNSPECIFIED.);
#297 = CARTESIAN_POINT('', (-50., 30., 100.));
#298 = CARTESIAN_POINT('', (-50., 30., 140.));
#299 = ORIENTED_EDGE('', *, *, #300, .T.);
#300 = EDGE_CURVE('', #294, #301, #303, .T.);
#301 = VERTEX_POINT('', #302);
#302 = CARTESIAN_POINT('', (50., 30., 140.));
#303 = B_SPLINE_CURVE_WITH_KNOTS('', 1, (#304, #305), .UNSPECIFIED., .F., .U., (2, 2), (0., 100.), .UNSPECIFIED.);
#304 = CARTESIAN_POINT('', (-50., 30., 140.));
#305 = CARTESIAN_POINT('', (50., 30., 140.));
#306 = ORIENTED_EDGE('', *, *, #307, .F.);
#307 = EDGE_CURVE('', #308, #301, #310, .T.);
#308 = VERTEX_POINT('', #309);
#309 = CARTESIAN_POINT('', (50., 30., 100.));
#310 = B_SPLINE_CURVE_WITH_KNOTS('', 1, (#311, #312), .UNSPECIFIED., .F., .U., (2, 2), (0., 40.), .UNSPECIFIED.);
#311 = CARTESIAN_POINT('', (50., 30., 100.));
#312 = CARTESIAN_POINT('', (50., 30., 140.));
#313 = ORIENTED_EDGE('', *, *, #314, .F.);
#314 = EDGE_CURVE('', #292, #308, #315, .T.);
#315 = B_SPLINE_CURVE_WITH_KNOTS('', 1, (#316, #317), .UNSPECIFIED., .F., .U., (2, 2), (0., 100.), .UNSPECIFIED.);
#316 = CARTESIAN_POINT('', (-50., 30., 100.));
#317 = CARTESIAN_POINT('', (50., 30., 100.));
#318 = B_SPLINE_SURFACE_WITH_KNOTS('', 1, 1, ((#319, #320), (#321, #322)), .UNSPECIFIED., .F., .F., .U., (2, 2), (2, 2), (0., 40.), (0., 100.), .UNSPECIFIED.);
#319 = CARTESIAN_POINT('', (-50., 30., 100.));
#320 = CARTESIAN_POINT('', (50., 30., 100.));
#321 = CARTESIAN_POINT('', (-50., 30., 140.));
#322 = CARTESIAN_POINT('', (50., 30., 140.));
#323 = ADVANCED_FACE('', (#324), #346, .F.);
#324 = FACE_OUTER_BOUND('', #325, .F.);
#325 = EDGE_LOOP('', (#326, #333, #340, #345));
#326 = ORIENTED_EDGE('', *, *, #327, .F.);
#327 = EDGE_CURVE('', #328, #294, #330, .T.);
#328 = VERTEX_POINT('', #329);
#329 = CARTESIAN_POINT('', (-50., -30., 140.));
#330 = B_SPLINE_CURVE_WITH_KNOTS('', 1, (#331, #332), .UNSPECIFIED., .F., .U., (2, 2), (0., 60.), .UNSPECIFIED.);
#331 = CARTESIAN_POINT('', (-50., -30., 140.));
#332 = CARTESIAN_POINT('', (-50., 30., 140.));
#333 = ORIENTED_EDGE('', *, *, #334, .T.);
#334 = EDGE_CURVE('', #328, #335, #337, .T.);
#335 = VERTEX_POINT('', #336);
#336 = CARTESIAN_POINT('', (50., -30., 140.));
#337 = B_SPLINE_CURVE_WITH_KNOTS('', 1, (#338, #339), .UNSPECIFIED., .F., .U., (2, 2), (0., 100.), .UNSPECIFIED.);
#338 = CARTESIAN_POINT('', (-50., -30., 140.));
#339 = CARTESIAN_POINT('', (50., -30., 140.));
#340 = ORIENTED_EDGE('', *, *, #341, .T.);
#341 = EDGE_CURVE('', #335, #301, #342, .T.);
#342 = B_SPLINE_CURVE_WITH_KNOTS('', 1, (#343, #344), .UNSPECIFIED., .F., .U., (2, 2), (0., 60.), .UNSPECIFIED.);
#343 = CARTESIAN_POINT('', (50., -30., 140.));
#344 = CARTESIAN_POINT('', (50., 30., 140.));
#345 = ORIENTED_EDGE('', *, *, #300, .F.);
#346 = B_SPLINE_SURFACE_WITH_KNOTS('', 1, 1, ((#347, #348), (#349, #350)), .UNSPECIFIED., .F., .F., .U., (2, 2), (2, 2), (0., 100.), (0., 60.), .UNSPECIFIED.);
#347 = CARTESIAN_POINT('', (-50., -30., 140.));
#348 = CARTESIAN_POINT('', (-50., 30., 140.));
#349 = CARTESIAN_POINT('', (50., -30., 140.));
#350 = CARTESIAN_POINT('', (50., 30., 140.));
#351 = ADVANCED_FACE('', (#352), #374, .F.);
#352 = FACE_OUTER_BOUND('', #353, .F.);
#353 = EDGE_LOOP('', (#354, #361, #368, #373));
#354 = ORIENTED_EDGE('', *, *, #355, .F.);
#355 = EDGE_CURVE('', #356, #328, #358, .T.);
#356 = VERTEX_POINT('', #357);
#357 = CARTESIAN_POINT('', (-50., -30., 100.));
#358 = B_SPLINE_CURVE_WITH_KNOTS('', 1, (#359, #360), .UNSPECIFIED., .F., .U., (2, 2), (0., 40.), .UNSPECIFIED.);
#359 = CARTESIAN_POINT('', (-50., -30., 100.));
#360 = CARTESIAN_POINT('', (-50., -30., 140.));
#361 = ORIENTED_EDGE('', *, *, #362, .T.);
#362 = EDGE_CURVE('', #356, #363, #365, .T.);
#363 = VERTEX_POINT('', #364);
#364 = CARTESIAN_POINT('', (50., -30., 100.));
#365 = B_SPLINE_CURVE_WITH_KNOTS('', 1, (#366, #367), .UNSPECIFIED., .F., .U., (2, 2), (0., 100.), .UNSPECIFIED.);
#366 = CARTESIAN_POINT('', (-50., -30., 100.));
#367 = CARTESIAN_POINT('', (50., -30., 100.));
#368 = ORIENTED_EDGE('', *, *, #369, .T.);
#369 = EDGE_CURVE('', #363, #335, #370, .T.);
#370 = B_SPLINE_CURVE_WITH_KNOTS('', 1, (#371, #372), .UNSPECIFIED., .F., .U., (2, 2), (0., 40.), .UNSPECIFIED.);
#371 = CARTESIAN_POINT('', (50., -30., 100.));
#372 = CARTESIAN_POINT('', (50., -30., 140.));
#373 = ORIENTED_EDGE('', *, *, #334, .F.);
#374 = B_SPLINE_SURFACE_WITH_KNOTS('', 1, 1, ((#375, #376), (#377, #378)), .UNSPECIFIED., .F., .F., .U., (2, 2), (2, 2), (0., 100.), (0., 40.), .UNSPECIFIED.);
#375 = CARTESIAN_POINT('', (-50., -30., 100.));
#376 = CARTESIAN_POINT('', (-50., -30., 140.));
#377 = CARTESIAN_POINT('', (50., -30., 100.));
#378 = CARTESIAN_POINT('', (50., -30., 140.));
#379 = ADVANCED_FACE('', (#380), #394, .F.);
#380 = FACE_OUTER_BOUND('', #381, .F.);
#381 = EDGE_LOOP('', (#382, #387, #388, #393));
#382 = ORIENTED_EDGE('', *, *, #383, .T.);
#383 = EDGE_CURVE('', #356, #292, #384, .T.);
#384 = B_SPLINE_CURVE_WITH_KNOTS('', 1, (#385, #386), .UNSPECIFIED., .F., .U., (2, 2), (0., 60.), .UNSPECIFIED.);
#385 = CARTESIAN_POINT('', (-50., -30., 100.));
#386 = CARTESIAN_POINT('', (-50., 30., 100.));
#387 = ORIENTED_EDGE('', *, *, #314, .T.);
#388 = ORIENTED_EDGE('', *, *, #389, .F.);
#389 = EDGE_CURVE('', #363, #308, #390, .T.);
#390 = B_SPLINE_CURVE_WITH_KNOTS('', 1, (#391, #392), .UNSPECIFIED., .F., .U., (2, 2), (0., 60.), .UNSPECIFIED.);
#391 = CARTESIAN_POINT('', (50., -30., 100.));
#392 = CARTESIAN_POINT('', (50., 30., 100.));
#393 = ORIENTED_EDGE('', *, *, #362, .F.);
#394 = B_SPLINE_SURFACE_WITH_KNOTS('', 1, 1, ((#395, #396), (#397, #398)), .UNSPECIFIED., .F., .F., .U., (2, 2), (2, 2), (0., 60.), (0., 100.), .UNSPECIFIED.);
#395 = CARTESIAN_POINT('', (-50., -30., 100.));
#396 = CARTESIAN_POINT('', (50., -30., 100.));
#397 = CARTESIAN_POINT('', (-50., 30., 100.));
#398 = CARTESIAN_POINT('', (50., 30., 100.));
#399 = ADVANCED_FACE('', (#400), #406, .F.);
#400 = FACE_OUTER_BOUND('', #401, .F.);
#401 = EDGE_LOOP('', (#402, #403, #404, #405));
#402 = ORIENTED_EDGE('', *, *, #369, .F.);
#403 = ORIENTED_EDGE('', *, *, #389, .T.);
#404 = ORIENTED_EDGE('', *, *, #307, .T.);
#405 = ORIENTED_EDGE('', *, *, #341, .F.);
#406 = B_SPLINE_SURFACE_WITH_KNOTS('', 1, 1, ((#407, #408), (#409, #410)), .UNSPECIFIED., .F., .F., .U., (2, 2), (2, 2), (0., 60.), (0., 40.), .UNSPECIFIED.);
#407 = CARTESIAN_POINT('', (50., -30., 100.));
#408 = CARTESIAN_POINT('', (50., -30., 140.));
#409 = CARTESIAN_POINT('', (50., 30., 100.));
#410 = CARTESIAN_POINT('', (50., 30., 140.));
#411 = ADVANCED_FACE('', (#412), #418, .F.);
#412 = FACE_OUTER_BOUND('', #413, .F.);
#413 = EDGE_LOOP('', (#414, #415, #416, #417));
#414 = ORIENTED_EDGE('', *, *, #355, .T.);
#415 = ORIENTED_EDGE('', *, *, #327, .T.);
#416 = ORIENTED_EDGE('', *, *, #291, .F.);
#417 = ORIENTED_EDGE('', *, *, #383, .F.);
#418 = B_SPLINE_SURFACE_WITH_KNOTS('', 1, 1, ((#419, #420), (#421, #422)), .UNSPECIFIED., .F., .F., .U., (2, 2), (2, 2), (0., 40.), (0., 60.), .UNSPECIFIED.);
#419 = CARTESIAN_POINT('', (-50., -30., 100.));
#420 = CARTESIAN_POINT('', (-50., 30., 100.));
#421 = CARTESIAN_POINT('', (-50., -30., 140.));
#422 = CARTESIAN_POINT('', (-50., 30., 140.));
#423 = CLOSED_SHELL('', (#424, #460, #488, #516, #536, #548));
#424 = ADVANCED_FACE('', (#425), #455, .F.);
#425 = FACE_OUTER_BOUND('', #426, .F.);
#426 = EDGE_LOOP('', (#427, #436, #443, #450));
#427 = ORIENTED_EDGE('', *, *, #428, .T.);
#428 = EDGE_CURVE('', #429, #431, #433, .T.);
#429 = VERTEX_POINT('', #430);
#430 = CARTESIAN_POINT('', (30., 50., 80.));
#431 = VERTEX_POINT('', #432);
#432 = CARTESIAN_POINT('', (30., 50., 160.));
#433 = B_SPLINE_CURVE_WITH_KNOTS('', 1, (#434, #435), .UNSPECIFIED., .F., .U., (2, 2), (0., 80.), .UNSPECIFIED.);
#434 = CARTESIAN_POINT('', (30., 50., 80.));
#435 = CARTESIAN_POINT('', (30., 50., 160.));
#436 = ORIENTED_EDGE('', *, *, #437, .T.);
#437 = EDGE_CURVE('', #431, #438, #440, .T.);
#438 = VERTEX_POINT('', #439);
#439 = CARTESIAN_POINT('', (90., 50., 160.));
#440 = B_SPLINE_CURVE_WITH_KNOTS('', 1, (#441, #442), .UNSPECIFIED., .F., .U., (2, 2), (0., 60.), .UNSPECIFIED.);
#441 = CARTESIAN_POINT('', (30., 50., 160.));
#442 = CARTESIAN_POINT('', (90., 50., 160.));
#443 = ORIENTED_EDGE('', *, *, #444, .F.);
#444 = EDGE_CURVE('', #445, #438, #447, .T.);
#445 = VERTEX_POINT('', #446);
#446 = CARTESIAN_POINT('', (90., 50., 80.));
#447 = B_SPLINE_CURVE_WITH_KNOTS('', 1, (#448, #449), .UNSPECIFIED., .F., .U., (2, 2), (0., 80.), .UNSPECIFIED.);
#448 = CARTESIAN_POINT('', (90., 50., 80.));
#449 = CARTESIAN_POINT('', (90., 50., 160.));
#450 = ORIENTED_EDGE('', *, *, #451, .F.);
#451 = EDGE_CURVE('', #429, #445, #452, .T.);
#452 = B_SPLINE_CURVE_WITH_KNOTS('', 1, (#453, #454), .UNSPECIFIED., .F., .U., (2, 2), (0., 60.), .UNSPECIFIED.);
#453 = CARTESIAN_POINT('', (30., 50., 80.));
#454 = CARTESIAN_POINT('', (90., 50., 80.));
#455 = B_SPLINE_SURFACE_WITH_KNOTS('', 1, 1, ((#456, #457), (#458, #459)), .UNSPECIFIED., .F., .F., .U., (2, 2), (2, 2), (0., 80.), (0., 60.), .UNSPECIFIED.);
#456 = CARTESIAN_POINT('', (30., 50., 80.));
#457 = CARTESIAN_POINT('', (90., 50., 80.));
#458 = CARTESIAN_POINT('', (30., 50., 160.));
#459 = CARTESIAN_POINT('', (90., 50., 160.));
#460 = ADVANCED_FACE('', (#461), #483, .F.);
#461 = FACE_OUTER_BOUND('', #462, .F.);
#462 = EDGE_LOOP('', (#463, #470, #477, #482));
#463 = ORIENTED_EDGE('', *, *, #464, .F.);
#464 = EDGE_CURVE('', #465, #431, #467, .T.);
#465 = VERTEX_POINT('', #466);
#466 = CARTESIAN_POINT('', (30., 10., 160.));
#467 = B_SPLINE_CURVE_WITH_KNOTS('', 1, (#468, #469), .UNSPECIFIED., .F., .U., (2, 2), (0., 40.), .UNSPECIFIED.);
#468 = CARTESIAN_POINT('', (30., 10., 160.));
#469 = CARTESIAN_POINT('', (30., 50., 160.));
#470 = ORIENTED_EDGE('', *, *, #471, .T.);
#471 = EDGE_CURVE('', #465, #472, #474, .T.);
#472 = VERTEX_POINT('', #473);
#473 = CARTESIAN_POINT('', (90., 10., 160.));
#474 = B_SPLINE_CURVE_WITH_KNOTS('', 1, (#475, #476), .UNSPECIFIED., .F., .U., (2, 2), (0., 60.), .UNSPECIFIED.);
#475 = CARTESIAN_POINT('', (30., 10., 160.));
#476 = CARTESIAN_POINT('', (90., 10., 160.));
#477 = ORIENTED_EDGE('', *, *, #478, .T.);
#478 = EDGE_CURVE('', #472, #438, #479, .T.);
#479 = B_SPLINE_CURVE_WITH_KNOTS('', 1, (#480, #481), .UNSPECIFIED., .F., .U., (2, 2), (0., 40.), .UNSPECIFIED.);
#480 = CARTESIAN_POINT('', (90., 10., 160.));
#481 = CARTESIAN_POINT('', (90., 50., 160.));
#482 = ORIENTED_EDGE('', *, *, #437, .F.);
#483 = B_SPLINE_SURFACE_WITH_KNOTS('', 1, 1, ((#484, #485), (#486, #487)), .UNSPECIFIED., .F., .F., .U., (2, 2), (2, 2), (0., 60.), (0., 40.), .UNSPECIFIED.);
#484 = CARTESIAN_POINT('', (30., 10., 160.));
#485 = CARTESIAN_POINT('', (30., 50., 160.));
#486 = CARTESIAN_POINT('', (90., 10., 160.));
#487 = CARTESIAN_POINT('', (90., 50., 160.));
#488 = ADVANCED_FACE('', (#489), #511, .F.);
#489 = FACE_OUTER_BOUND('', #490, .F.);
#490 = EDGE_LOOP('', (#491, #498, #505, #510));
#491 = ORIENTED_EDGE('', *, *, #492, .F.);
#492 = EDGE_CURVE('', #493, #465, #495, .T.);
#493 = VERTEX_POINT('', #494);
#494 = CARTESIAN_POINT('', (30., 10., 80.));
#495 = B_SPLINE_CURVE_WITH_KNOTS('', 1, (#496, #497), .UNSPECIFIED., .F., .U., (2, 2), (0., 80.), .UNSPECIFIED.);
#496 = CARTESIAN_POINT('', (30., 10., 80.));
#497 = CARTESIAN_POINT('', (30., 10., 160.));
#498 = ORIENTED_EDGE('', *, *, #499, .T.);
#499 = EDGE_CURVE('', #493, #500, #502, .T.);
#500 = VERTEX_POINT('', #501);
#501 = CARTESIAN_POINT('', (90., 10., 80.));
#502 = B_SPLINE_CURVE_WITH_KNOTS('', 1, (#503, #504), .UNSPECIFIED., .F., .U., (2, 2), (0., 60.), .UNSPECIFIED.);
#503 = CARTESIAN_POINT('', (30., 10., 80.));
#504 = CARTESIAN_POINT('', (90., 10., 80.));
#505 = ORIENTED_EDGE('', *, *, #506, .T.);
#506 = EDGE_CURVE('', #500, #472, #507, .T.);
#507 = B_SPLINE_CURVE_WITH_KNOTS('', 1, (#508, #509), .UNSPECIFIED., .F., .U., (2, 2), (0., 80.), .UNSPECIFIED.);
#508 = CARTESIAN_POINT('', (90., 10., 80.));
#509 = CARTESIAN_POINT('', (90., 10., 160.));
#510 = ORIENTED_EDGE('', *, *, #471, .F.);
#511 = B_SPLINE_SURFACE_WITH_KNOTS('', 1, 1, ((#512, #513), (#514, #515)), .UNSPECIFIED., .F., .F., .U., (2, 2), (2, 2), (0., 60.), (0., 80.), .UNSPECIFIED.);
#512 = CARTESIAN_POINT('', (30., 10., 80.));
#513 = CARTESIAN_POINT('', (30., 10., 160.));
#514 = CARTESIAN_POINT('', (90., 10., 80.));
#515 = CARTESIAN_POINT('', (90., 10., 160.));
#516 = ADVANCED_FACE('', (#517), #531, .F.);
#517 = FACE_OUTER_BOUND('', #518, .F.);
#518 = EDGE_LOOP('', (#519, #524, #525, #530));
#519 = ORIENTED_EDGE('', *, *, #520, .T.);
#520 = EDGE_CURVE('', #493, #429, #521, .T.);
#521 = B_SPLINE_CURVE_WITH_KNOTS('', 1, (#522, #523), .UNSPECIFIED., .F., .U., (2, 2), (0., 40.), .UNSPECIFIED.);
#522 = CARTESIAN_POINT('', (30., 10., 80.));
#523 = CARTESIAN_POINT('', (30., 50., 80.));
#524 = ORIENTED_EDGE('', *, *, #451, .T.);
#525 = ORIENTED_EDGE('', *, *, #526, .F.);
#526 = EDGE_CURVE('', #500, #445, #527, .T.);
#527 = B_SPLINE_CURVE_WITH_KNOTS('', 1, (#528, #529), .UNSPECIFIED., .F., .U., (2, 2), (0., 40.), .UNSPECIFIED.);
#528 = CARTESIAN_POINT('', (90., 10., 80.));
#529 = CARTESIAN_POINT('', (90., 50., 80.));
#530 = ORIENTED_EDGE('', *, *, #499, .F.);
#531 = B_SPLINE_SURFACE_WITH_KNOTS('', 1, 1, ((#532, #533), (#534, #535)), .UNSPECIFIED., .F., .F., .U., (2, 2), (2, 2), (0., 40.), (0., 60.), .UNSPECIFIED.);
#532 = CARTESIAN_POINT('', (30., 10., 80.));
#533 = CARTESIAN_POINT('', (90., 10., 80.));
#534 = CARTESIAN_POINT('', (30., 50., 80.));
#535 = CARTESIAN_POINT('', (90., 50., 80.));
#536 = ADVANCED_FACE('', (#537), #543, .F.);
#537 = FACE_OUTER_BOUND('', #538, .F.);
#538 = EDGE_LOOP('', (#539, #540, #541, #542));
#539 = ORIENTED_EDGE('', *, *, #506, .F.);
#540 = ORIENTED_EDGE('', *, *, #526, .T.);
#541 = ORIENTED_EDGE('', *, *, #444, .T.);
#542 = ORIENTED_EDGE('', *, *, #478, .F.);
#543 = B_SPLINE_SURFACE_WITH_KNOTS('', 1, 1, ((#544, #545), (#546, #547)), .UNSPECIFIED., .F., .F., .U., (2, 2), (2, 2), (0., 40.), (0., 80.), .UNSPECIFIED.);
#544 = CARTESIAN_POINT('', (90., 10., 80.));
#545 = CARTESIAN_POINT('', (90., 10., 160.));
#546 = CARTESIAN_POINT('', (90., 50., 80.));
#547 = CARTESIAN_POINT('', (90., 50., 160.));
#548 = ADVANCED_FACE('', (#549), #555, .F.);
#549 = FACE_OUTER_BOUND('', #550, .F.);
#550 = EDGE_LOOP('', (#551, #552, #553, #554));
#551 = ORIENTED_EDGE('', *, *, #492, .T.);
#552 = ORIENTED_EDGE('', *, *, #464, .T.);
#553 = ORIENTED_EDGE('', *, *, #428, .F.);
#554 = ORIENTED_EDGE('', *, *, #520, .F.);
#555 = B_SPLINE_SURFACE_WITH_KNOTS('', 1, 1, ((#556, #557), (#558, #559)), .UNSPECIFIED., .F., .F., .U., (2, 2), (2, 2), (0., 80.), (0., 40.), .UNSPECIFIED.);
#556 = CARTESIAN_POINT('', (30., 10., 80.));
#557 = CARTESIAN_POINT('', (30., 50., 80.));
#558 = CARTESIAN_POINT('', (30., 10., 160.));
#559 = CARTESIAN_POINT('', (30., 50., 160.));
#560 = PRESENTATION_STYLE_ASSIGNMENT((#561));
#561 = SURFACE_STYLE_USAGE(.POSITIVE., #562);
#562 = SURFACE_SIDE_STYLE('', (#563));
#563 = SURFACE_STYLE_FILL_AREA(#564);
#564 = FILL_AREA_STYLE('', (#565));
#565 = FILL_AREA_STYLE_COLOUR('', #566);
#566 = COLOUR_RGB('', 0.50196078431373, 0.50196078431373, 0.50196078431373);
#567 = STYLED_ITEM('', (#560), #285);
#568 = MANIFOLD_SOLID_BREP('Solid0', #569);
#569 = CLOSED_SHELL('', (#570, #606, #634, #662, #682, #694));
#570 = ADVANCED_FACE('', (#571), #601, .T.);
#571 = FACE_OUTER_BOUND('', #572, .T.);
#572 = EDGE_LOOP('', (#573, #582, #589, #596));
#573 = ORIENTED_EDGE('', *, *, #574, .T.);
#574 = EDGE_CURVE('', #575, #577, #579, .T.);
#575 = VERTEX_POINT('', #576);
#576 = CARTESIAN_POINT('', (30., 50., 80.));
#577 = VERTEX_POINT('', #578);
#578 = CARTESIAN_POINT('', (30., 50., 160.));
#579 = B_SPLINE_CURVE_WITH_KNOTS('', 1, (#580, #581), .UNSPECIFIED., .F., .U., (2, 2), (0., 80.), .UNSPECIFIED.);
#580 = CARTESIAN_POINT('', (30., 50., 80.));
#581 = CARTESIAN_POINT('', (30., 50., 160.));
#582 = ORIENTED_EDGE('', *, *, #583, .T.);
#583 = EDGE_CURVE('', #577, #584, #586, .T.);
#584 = VERTEX_POINT('', #585);
#585 = CARTESIAN_POINT('', (90., 50., 160.));
#586 = B_SPLINE_CURVE_WITH_KNOTS('', 1, (#587, #588), .UNSPECIFIED., .F., .U., (2, 2), (0., 60.), .UNSPECIFIED.);
#587 = CARTESIAN_POINT('', (30., 50., 160.));
#588 = CARTESIAN_POINT('', (90., 50., 160.));
#589 = ORIENTED_EDGE('', *, *, #590, .F.);
#590 = EDGE_CURVE('', #591, #584, #593, .T.);
#591 = VERTEX_POINT('', #592);
#592 = CARTESIAN_POINT('', (90., 50., 80.));
#593 = B_SPLINE_CURVE_WITH_KNOTS('', 1, (#594, #595), .UNSPECIFIED., .F., .U., (2, 2), (0., 80.), .UNSPECIFIED.);
#594 = CARTESIAN_POINT('', (90., 50., 80.));
#595 = CARTESIAN_POINT('', (90., 50., 160.));
#596 = ORIENTED_EDGE('', *, *, #597, .F.);
#597 = EDGE_CURVE('', #575, #591, #598, .T.);
#598 = B_SPLINE_CURVE_WITH_KNOTS('', 1, (#599, #600), .UNSPECIFIED., .F., .U., (2, 2), (0., 60.), .UNSPECIFIED.);
#599 = CARTESIAN_POINT('', (30., 50., 80.));
#600 = CARTESIAN_POINT('', (90., 50., 80.));
#601 = B_SPLINE_SURFACE_WITH_KNOTS('', 1, 1, ((#602, #603), (#604, #605)), .UNSPECIFIED., .F., .F., .U., (2, 2), (2, 2), (0., 80.), (0., 60.), .UNSPECIFIED.);
#602 = CARTESIAN_POINT('', (30., 50., 80.));
#603 = CARTESIAN_POINT('', (90., 50., 80.));
#604 = CARTESIAN_POINT('', (30., 50., 160.));
#605 = CARTESIAN_POINT('', (90., 50., 160.));
#606 = ADVANCED_FACE('', (#607), #629, .T.);
#607 = FACE_OUTER_BOUND('', #608, .T.);
#608 = EDGE_LOOP('', (#609, #616, #623, #628));
#609 = ORIENTED_EDGE('', *, *, #610, .F.);
#610 = EDGE_CURVE('', #611, #577, #613, .T.);
#611 = VERTEX_POINT('', #612);
#612 = CARTESIAN_POINT('', (30., 10., 160.));
#613 = B_SPLINE_CURVE_WITH_KNOTS('', 1, (#614, #615), .UNSPECIFIED., .F., .U., (2, 2), (0., 40.), .UNSPECIFIED.);
#614 = CARTESIAN_POINT('', (30., 10., 160.));
#615 = CARTESIAN_POINT('', (30., 50., 160.));
#616 = ORIENTED_EDGE('', *, *, #617, .T.);
#617 = EDGE_CURVE('', #611, #618, #620, .T.);
#618 = VERTEX_POINT('', #619);
#619 = CARTESIAN_POINT('', (90., 10., 160.));
#620 = B_SPLINE_CURVE_WITH_KNOTS('', 1, (#621, #622), .UNSPECIFIED., .F., .U., (2, 2), (0., 60.), .UNSPECIFIED.);
#621 = CARTESIAN_POINT('', (30., 10., 160.));
#622 = CARTESIAN_POINT('', (90., 10., 160.));
#623 = ORIENTED_EDGE('', *, *, #624, .T.);
#624 = EDGE_CURVE('', #618, #584, #625, .T.);
#625 = B_SPLINE_CURVE_WITH_KNOTS('', 1, (#626, #627), .UNSPECIFIED., .F., .U., (2, 2), (0., 40.), .UNSPECIFIED.);
#626 = CARTESIAN_POINT('', (90., 10., 160.));
#627 = CARTESIAN_POINT('', (90., 50., 160.));
#628 = ORIENTED_EDGE('', *, *, #583, .F.);
#629 = B_SPLINE_SURFACE_WITH_KNOTS('', 1, 1, ((#630, #631), (#632, #633)), .UNSPECIFIED., .F., .F., .U., (2, 2), (2, 2), (0., 60.), (0., 40.), .UNSPECIFIED.);
#630 = CARTESIAN_POINT('', (30., 10., 160.));
#631 = CARTESIAN_POINT('', (30., 50., 160.));
#632 = CARTESIAN_POINT('', (90., 10., 160.));
#633 = CARTESIAN_POINT('', (90., 50., 160.));
#634 = ADVANCED_FACE('', (#635), #657, .T.);
#635 = FACE_OUTER_BOUND('', #636, .T.);
#636 = EDGE_LOOP('', (#637, #644, #651, #656));
#637 = ORIENTED_EDGE('', *, *, #638, .F.);
#638 = EDGE_CURVE('', #639, #611, #641, .T.);
#639 = VERTEX_POINT('', #640);
#640 = CARTESIAN_POINT('', (30., 10., 80.));
#641 = B_SPLINE_CURVE_WITH_KNOTS('', 1, (#642, #643), .UNSPECIFIED., .F., .U., (2, 2), (0., 80.), .UNSPECIFIED.);
#642 = CARTESIAN_POINT('', (30., 10., 80.));
#643 = CARTESIAN_POINT('', (30., 10., 160.));
#644 = ORIENTED_EDGE('', *, *, #645, .T.);
#645 = EDGE_CURVE('', #639, #646, #648, .T.);
#646 = VERTEX_POINT('', #647);
#647 = CARTESIAN_POINT('', (90., 10., 80.));
#648 = B_SPLINE_CURVE_WITH_KNOTS('', 1, (#649, #650), .UNSPECIFIED., .F., .U., (2, 2), (0., 60.), .UNSPECIFIED.);
#649 = CARTESIAN_POINT('', (30., 10., 80.));
#650 = CARTESIAN_POINT('', (90., 10., 80.));
#651 = ORIENTED_EDGE('', *, *, #652, .T.);
#652 = EDGE_CURVE('', #646, #618, #653, .T.);
#653 = B_SPLINE_CURVE_WITH_KNOTS('', 1, (#654, #655), .UNSPECIFIED., .F., .U., (2, 2), (0., 80.), .UNSPECIFIED.);
#654 = CARTESIAN_POINT('', (90., 10., 80.));
#655 = CARTESIAN_POINT('', (90., 10., 160.));
#656 = ORIENTED_EDGE('', *, *, #617, .F.);
#657 = B_SPLINE_SURFACE_WITH_KNOTS('', 1, 1, ((#658, #659), (#660, #661)), .UNSPECIFIED., .F., .F., .U., (2, 2), (2, 2), (0., 60.), (0., 80.), .UNSPECIFIED.);
#658 = CARTESIAN_POINT('', (30., 10., 80.));
#659 = CARTESIAN_POINT('', (30., 10., 160.));
#660 = CARTESIAN_POINT('', (90., 10., 80.));
#661 = CARTESIAN_POINT('', (90., 10., 160.));
#662 = ADVANCED_FACE('', (#663), #677, .T.);
#663 = FACE_OUTER_BOUND('', #664, .T.);
#664 = EDGE_LOOP('', (#665, #670, #671, #676));
#665 = ORIENTED_EDGE('', *, *, #666, .T.);
#666 = EDGE_CURVE('', #639, #575, #667, .T.);
#667 = B_SPLINE_CURVE_WITH_KNOTS('', 1, (#668, #669), .UNSPECIFIED., .F., .U., (2, 2), (0., 40.), .UNSPECIFIED.);
#668 = CARTESIAN_POINT('', (30., 10., 80.));
#669 = CARTESIAN_POINT('', (30., 50., 80.));
#670 = ORIENTED_EDGE('', *, *, #597, .T.);
#671 = ORIENTED_EDGE('', *, *, #672, .F.);
#672 = EDGE_CURVE('', #646, #591, #673, .T.);
#673 = B_SPLINE_CURVE_WITH_KNOTS('', 1, (#674, #675), .UNSPECIFIED., .F., .U., (2, 2), (0., 40.), .UNSPECIFIED.);
#674 = CARTESIAN_POINT('', (90., 10., 80.));
#675 = CARTESIAN_POINT('', (90., 50., 80.));
#676 = ORIENTED_EDGE('', *, *, #645, .F.);
#677 = B_SPLINE_SURFACE_WITH_KNOTS('', 1, 1, ((#678, #679), (#680, #681)), .UNSPECIFIED., .F., .F., .U., (2, 2), (2, 2), (0., 40.), (0., 60.), .UNSPECIFIED.);
#678 = CARTESIAN_POINT('', (30., 10., 80.));
#679 = CARTESIAN_POINT('', (90., 10., 80.));
#680 = CARTESIAN_POINT('', (30., 50., 80.));
#681 = CARTESIAN_POINT('', (90., 50., 80.));
#682 = ADVANCED_FACE('', (#683), #689, .T.);
#683 = FACE_OUTER_BOUND('', #684, .T.);
#684 = EDGE_LOOP('', (#685, #686, #687, #688));
#685 = ORIENTED_EDGE('', *, *, #652, .F.);
#686 = ORIENTED_EDGE('', *, *, #672, .T.);
#687 = ORIENTED_EDGE('', *, *, #590, .T.);
#688 = ORIENTED_EDGE('', *, *, #624, .F.);
#689 = B_SPLINE_SURFACE_WITH_KNOTS('', 1, 1, ((#690, #691), (#692, #693)), .UNSPECIFIED., .F., .F., .U., (2, 2), (2, 2), (0., 40.), (0., 80.), .UNSPECIFIED.);
#690 = CARTESIAN_POINT('', (90., 10., 80.));
#691 = CARTESIAN_POINT('', (90., 10., 160.));
#692 = CARTESIAN_POINT('', (90., 50., 80.));
#693 = CARTESIAN_POINT('', (90., 50., 160.));
#694 = ADVANCED_FACE('', (#695), #701, .T.);
#695 = FACE_OUTER_BOUND('', #696, .T.);
#696 = EDGE_LOOP('', (#697, #698, #699, #700));
#697 = ORIENTED_EDGE('', *, *, #638, .T.);
#698 = ORIENTED_EDGE('', *, *, #610, .T.);
#699 = ORIENTED_EDGE('', *, *, #574, .F.);
#700 = ORIENTED_EDGE('', *, *, #666, .F.);
#701 = B_SPLINE_SURFACE_WITH_KNOTS('', 1, 1, ((#702, #703), (#704, #705)), .UNSPECIFIED., .F., .F., .U., (2, 2), (2, 2), (0., 80.), (0., 40.), .UNSPECIFIED.);
#702 = CARTESIAN_POINT('', (30., 10., 80.));
#703 = CARTESIAN_POINT('', (30., 50., 80.));
#704 = CARTESIAN_POINT('', (30., 10., 160.));
#705 = CARTESIAN_POINT('', (30., 50., 160.));
#706 = PRESENTATION_STYLE_ASSIGNMENT((#707));
#707 = SURFACE_STYLE_USAGE(.POSITIVE., #708);
#708 = SURFACE_SIDE_STYLE('', (#709));
#709 = SURFACE_STYLE_FILL_AREA(#710);
#710 = FILL_AREA_STYLE('', (#711));
#711 = FILL_AREA_STYLE_COLOUR('', #712);
#712 = COLOUR_RGB('', 0.50196078431373, 0.50196078431373, 0.50196078431373);
#713 = STYLED_ITEM('', (#706), #568);
#714 = CARTESIAN_POINT('Origin', (0., 0., 0.));
#715 = GEOMETRIC_SET('', (#714));
#716 = (
   GEOMETRIC_REPRESENTATION_CONTEXT (3)
   GLOBAL_UNCERTAINTY_ASSIGNED_CONTEXT ((#718))
   GLOBAL_UNIT_ASSIGNED_CONTEXT ((#717, #719, #720))
   REPRESENTATION_CONTEXT ('', '3D')
);
#717 = (
   LENGTH_UNIT ()
   NAMED_UNIT (*)
   SI_UNIT (.MILLI., .METRE.)
);
#718 = UNCERTAINTY_MEASURE_WITH_UNIT(LENGTH_MEASURE(1.E-6), #717, 'DISTANCE_ACCURACY_VALUE', '');
#719 = (
   NAMED_UNIT (*)
   SI_UNIT ($, .STERADIAN.)
   SOLID_ANGLE_UNIT ()
);
#720 = (
   NAMED_UNIT (*)
   PLANE_ANGLE_UNIT ()
   SI_UNIT ($, .RADIAN.)
);
#721 = SHAPE_REPRESENTATION('', (#738), #716);
#722 = PRODUCT_DEFINITION_SHAPE('', '', #723);
#723 = PRODUCT_DEFINITION('', '', #726, #730);
#724 = APPLICATION_CONTEXT('configuration controlled 3D designs of mechanical parts and assemblies');
#725 = APPLICATION_PROTOCOL_DEFINITION('International Standard', 'automotive_design', 2002, #724);
#726 = PRODUCT_DEFINITION_FORMATION_WITH_SPECIFIED_SOURCE('', '', #727, .NOT_KNOWN.);
#727 = PRODUCT('KeepToolsDetail', 'KeepToolsDetail', '', (#728));
#728 = PRODUCT_CONTEXT('', #724, 'mechanical');
#729 = PRODUCT_RELATED_PRODUCT_CATEGORY('detail', '', (#727));
#730 = PRODUCT_DEFINITION_CONTEXT('part definition', #724, 'design');
#731 = SHAPE_DEFINITION_REPRESENTATION(#722, #721);
#732 = SHAPE_REPRESENTATION_RELATIONSHIP('', '', #721, #733);
#733 = SHAPE_REPRESENTATION('', (#715), #716);
#734 = SHAPE_REPRESENTATION_RELATIONSHIP('', '', #721, #735);
#735 = ADVANCED_BREP_SHAPE_REPRESENTATION('', (#568), #716);
#736 = SHAPE_REPRESENTATION_RELATIONSHIP('', '', #721, #737);
#737 = MANIFOLD_SURFACE_SHAPE_REPRESENTATION('', (#1, #285), #716);
#738 = AXIS2_PLACEMENT_3D('', #739, #740, #741);
#739 = CARTESIAN_POINT('', (0., 0., 0.));
#740 = DIRECTION('', (0., 0., 1.));
#741 = DIRECTION('', (1., 0., 0.));
ENDSEC;
END-ISO-10303-21;
