ISO-10303-21;
HEADER;
FILE_DESCRIPTION(('STEP'), '1');
FILE_NAME('KeepToolsRetest', '2026-04-14T20:22:41', (''), (''), 'Express 3.1.2.0', 'Express Tool', 'Unknown');
FILE_SCHEMA(('AUTOMOTIVE_DESIGN'));
ENDSEC;

DATA;
#1 = SHELL_BASED_SURFACE_MODEL('Solid', (#2, #139));
#2 = CLOSED_SHELL('', (#3, #39, #67, #95, #115, #127));
#3 = ADVANCED_FACE('', (#4), #34, .F.);
#4 = FACE_OUTER_BOUND('', #5, .F.);
#5 = EDGE_LOOP('', (#6, #15, #22, #29));
#6 = ORIENTED_EDGE('', *, *, #7, .T.);
#7 = EDGE_CURVE('', #8, #10, #12, .T.);
#8 = VERTEX_POINT('', #9);
#9 = CARTESIAN_POINT('', (-50., 30., -20.));
#10 = VERTEX_POINT('', #11);
#11 = CARTESIAN_POINT('', (-50., 30., 20.));
#12 = B_SPLINE_CURVE_WITH_KNOTS('', 1, (#13, #14), .UNSPECIFIED., .F., .U., (2, 2), (0., 40.), .UNSPECIFIED.);
#13 = CARTESIAN_POINT('', (-50., 30., -20.));
#14 = CARTESIAN_POINT('', (-50., 30., 20.));
#15 = ORIENTED_EDGE('', *, *, #16, .T.);
#16 = EDGE_CURVE('', #10, #17, #19, .T.);
#17 = VERTEX_POINT('', #18);
#18 = CARTESIAN_POINT('', (50., 30., 20.));
#19 = B_SPLINE_CURVE_WITH_KNOTS('', 1, (#20, #21), .UNSPECIFIED., .F., .U., (2, 2), (0., 100.), .UNSPECIFIED.);
#20 = CARTESIAN_POINT('', (-50., 30., 20.));
#21 = CARTESIAN_POINT('', (50., 30., 20.));
#22 = ORIENTED_EDGE('', *, *, #23, .F.);
#23 = EDGE_CURVE('', #24, #17, #26, .T.);
#24 = VERTEX_POINT('', #25);
#25 = CARTESIAN_POINT('', (50., 30., -20.));
#26 = B_SPLINE_CURVE_WITH_KNOTS('', 1, (#27, #28), .UNSPECIFIED., .F., .U., (2, 2), (0., 40.), .UNSPECIFIED.);
#27 = CARTESIAN_POINT('', (50., 30., -20.));
#28 = CARTESIAN_POINT('', (50., 30., 20.));
#29 = ORIENTED_EDGE('', *, *, #30, .F.);
#30 = EDGE_CURVE('', #8, #24, #31, .T.);
#31 = B_SPLINE_CURVE_WITH_KNOTS('', 1, (#32, #33), .UNSPECIFIED., .F., .U., (2, 2), (0., 100.), .UNSPECIFIED.);
#32 = CARTESIAN_POINT('', (-50., 30., -20.));
#33 = CARTESIAN_POINT('', (50., 30., -20.));
#34 = B_SPLINE_SURFACE_WITH_KNOTS('', 1, 1, ((#35, #36), (#37, #38)), .UNSPECIFIED., .F., .F., .U., (2, 2), (2, 2), (0., 40.), (0., 100.), .UNSPECIFIED.);
#35 = CARTESIAN_POINT('', (-50., 30., -20.));
#36 = CARTESIAN_POINT('', (50., 30., -20.));
#37 = CARTESIAN_POINT('', (-50., 30., 20.));
#38 = CARTESIAN_POINT('', (50., 30., 20.));
#39 = ADVANCED_FACE('', (#40), #62, .F.);
#40 = FACE_OUTER_BOUND('', #41, .F.);
#41 = EDGE_LOOP('', (#42, #49, #56, #61));
#42 = ORIENTED_EDGE('', *, *, #43, .F.);
#43 = EDGE_CURVE('', #44, #10, #46, .T.);
#44 = VERTEX_POINT('', #45);
#45 = CARTESIAN_POINT('', (-50., -30., 20.));
#46 = B_SPLINE_CURVE_WITH_KNOTS('', 1, (#47, #48), .UNSPECIFIED., .F., .U., (2, 2), (0., 60.), .UNSPECIFIED.);
#47 = CARTESIAN_POINT('', (-50., -30., 20.));
#48 = CARTESIAN_POINT('', (-50., 30., 20.));
#49 = ORIENTED_EDGE('', *, *, #50, .T.);
#50 = EDGE_CURVE('', #44, #51, #53, .T.);
#51 = VERTEX_POINT('', #52);
#52 = CARTESIAN_POINT('', (50., -30., 20.));
#53 = B_SPLINE_CURVE_WITH_KNOTS('', 1, (#54, #55), .UNSPECIFIED., .F., .U., (2, 2), (0., 100.), .UNSPECIFIED.);
#54 = CARTESIAN_POINT('', (-50., -30., 20.));
#55 = CARTESIAN_POINT('', (50., -30., 20.));
#56 = ORIENTED_EDGE('', *, *, #57, .T.);
#57 = EDGE_CURVE('', #51, #17, #58, .T.);
#58 = B_SPLINE_CURVE_WITH_KNOTS('', 1, (#59, #60), .UNSPECIFIED., .F., .U., (2, 2), (0., 60.), .UNSPECIFIED.);
#59 = CARTESIAN_POINT('', (50., -30., 20.));
#60 = CARTESIAN_POINT('', (50., 30., 20.));
#61 = ORIENTED_EDGE('', *, *, #16, .F.);
#62 = B_SPLINE_SURFACE_WITH_KNOTS('', 1, 1, ((#63, #64), (#65, #66)), .UNSPECIFIED., .F., .F., .U., (2, 2), (2, 2), (0., 100.), (0., 60.), .UNSPECIFIED.);
#63 = CARTESIAN_POINT('', (-50., -30., 20.));
#64 = CARTESIAN_POINT('', (-50., 30., 20.));
#65 = CARTESIAN_POINT('', (50., -30., 20.));
#66 = CARTESIAN_POINT('', (50., 30., 20.));
#67 = ADVANCED_FACE('', (#68), #90, .F.);
#68 = FACE_OUTER_BOUND('', #69, .F.);
#69 = EDGE_LOOP('', (#70, #77, #84, #89));
#70 = ORIENTED_EDGE('', *, *, #71, .F.);
#71 = EDGE_CURVE('', #72, #44, #74, .T.);
#72 = VERTEX_POINT('', #73);
#73 = CARTESIAN_POINT('', (-50., -30., -20.));
#74 = B_SPLINE_CURVE_WITH_KNOTS('', 1, (#75, #76), .UNSPECIFIED., .F., .U., (2, 2), (0., 40.), .UNSPECIFIED.);
#75 = CARTESIAN_POINT('', (-50., -30., -20.));
#76 = CARTESIAN_POINT('', (-50., -30., 20.));
#77 = ORIENTED_EDGE('', *, *, #78, .T.);
#78 = EDGE_CURVE('', #72, #79, #81, .T.);
#79 = VERTEX_POINT('', #80);
#80 = CARTESIAN_POINT('', (50., -30., -20.));
#81 = B_SPLINE_CURVE_WITH_KNOTS('', 1, (#82, #83), .UNSPECIFIED., .F., .U., (2, 2), (0., 100.), .UNSPECIFIED.);
#82 = CARTESIAN_POINT('', (-50., -30., -20.));
#83 = CARTESIAN_POINT('', (50., -30., -20.));
#84 = ORIENTED_EDGE('', *, *, #85, .T.);
#85 = EDGE_CURVE('', #79, #51, #86, .T.);
#86 = B_SPLINE_CURVE_WITH_KNOTS('', 1, (#87, #88), .UNSPECIFIED., .F., .U., (2, 2), (0., 40.), .UNSPECIFIED.);
#87 = CARTESIAN_POINT('', (50., -30., -20.));
#88 = CARTESIAN_POINT('', (50., -30., 20.));
#89 = ORIENTED_EDGE('', *, *, #50, .F.);
#90 = B_SPLINE_SURFACE_WITH_KNOTS('', 1, 1, ((#91, #92), (#93, #94)), .UNSPECIFIED., .F., .F., .U., (2, 2), (2, 2), (0., 100.), (0., 40.), .UNSPECIFIED.);
#91 = CARTESIAN_POINT('', (-50., -30., -20.));
#92 = CARTESIAN_POINT('', (-50., -30., 20.));
#93 = CARTESIAN_POINT('', (50., -30., -20.));
#94 = CARTESIAN_POINT('', (50., -30., 20.));
#95 = ADVANCED_FACE('', (#96), #110, .F.);
#96 = FACE_OUTER_BOUND('', #97, .F.);
#97 = EDGE_LOOP('', (#98, #103, #104, #109));
#98 = ORIENTED_EDGE('', *, *, #99, .T.);
#99 = EDGE_CURVE('', #72, #8, #100, .T.);
#100 = B_SPLINE_CURVE_WITH_KNOTS('', 1, (#101, #102), .UNSPECIFIED., .F., .U., (2, 2), (0., 60.), .UNSPECIFIED.);
#101 = CARTESIAN_POINT('', (-50., -30., -20.));
#102 = CARTESIAN_POINT('', (-50., 30., -20.));
#103 = ORIENTED_EDGE('', *, *, #30, .T.);
#104 = ORIENTED_EDGE('', *, *, #105, .F.);
#105 = EDGE_CURVE('', #79, #24, #106, .T.);
#106 = B_SPLINE_CURVE_WITH_KNOTS('', 1, (#107, #108), .UNSPECIFIED., .F., .U., (2, 2), (0., 60.), .UNSPECIFIED.);
#107 = CARTESIAN_POINT('', (50., -30., -20.));
#108 = CARTESIAN_POINT('', (50., 30., -20.));
#109 = ORIENTED_EDGE('', *, *, #78, .F.);
#110 = B_SPLINE_SURFACE_WITH_KNOTS('', 1, 1, ((#111, #112), (#113, #114)), .UNSPECIFIED., .F., .F., .U., (2, 2), (2, 2), (0., 60.), (0., 100.), .UNSPECIFIED.);
#111 = CARTESIAN_POINT('', (-50., -30., -20.));
#112 = CARTESIAN_POINT('', (50., -30., -20.));
#113 = CARTESIAN_POINT('', (-50., 30., -20.));
#114 = CARTESIAN_POINT('', (50., 30., -20.));
#115 = ADVANCED_FACE('', (#116), #122, .F.);
#116 = FACE_OUTER_BOUND('', #117, .F.);
#117 = EDGE_LOOP('', (#118, #119, #120, #121));
#118 = ORIENTED_EDGE('', *, *, #85, .F.);
#119 = ORIENTED_EDGE('', *, *, #105, .T.);
#120 = ORIENTED_EDGE('', *, *, #23, .T.);
#121 = ORIENTED_EDGE('', *, *, #57, .F.);
#122 = B_SPLINE_SURFACE_WITH_KNOTS('', 1, 1, ((#123, #124), (#125, #126)), .UNSPECIFIED., .F., .F., .U., (2, 2), (2, 2), (0., 60.), (0., 40.), .UNSPECIFIED.);
#123 = CARTESIAN_POINT('', (50., -30., -20.));
#124 = CARTESIAN_POINT('', (50., -30., 20.));
#125 = CARTESIAN_POINT('', (50., 30., -20.));
#126 = CARTESIAN_POINT('', (50., 30., 20.));
#127 = ADVANCED_FACE('', (#128), #134, .F.);
#128 = FACE_OUTER_BOUND('', #129, .F.);
#129 = EDGE_LOOP('', (#130, #131, #132, #133));
#130 = ORIENTED_EDGE('', *, *, #71, .T.);
#131 = ORIENTED_EDGE('', *, *, #43, .T.);
#132 = ORIENTED_EDGE('', *, *, #7, .F.);
#133 = ORIENTED_EDGE('', *, *, #99, .F.);
#134 = B_SPLINE_SURFACE_WITH_KNOTS('', 1, 1, ((#135, #136), (#137, #138)), .UNSPECIFIED., .F., .F., .U., (2, 2), (2, 2), (0., 40.), (0., 60.), .UNSPECIFIED.);
#135 = CARTESIAN_POINT('', (-50., -30., -20.));
#136 = CARTESIAN_POINT('', (-50., 30., -20.));
#137 = CARTESIAN_POINT('', (-50., -30., 20.));
#138 = CARTESIAN_POINT('', (-50., 30., 20.));
#139 = CLOSED_SHELL('', (#140, #176, #204, #232, #252, #264));
#140 = ADVANCED_FACE('', (#141), #171, .F.);
#141 = FACE_OUTER_BOUND('', #142, .F.);
#142 = EDGE_LOOP('', (#143, #152, #159, #166));
#143 = ORIENTED_EDGE('', *, *, #144, .T.);
#144 = EDGE_CURVE('', #145, #147, #149, .T.);
#145 = VERTEX_POINT('', #146);
#146 = CARTESIAN_POINT('', (30., 50., -40.));
#147 = VERTEX_POINT('', #148);
#148 = CARTESIAN_POINT('', (30., 50., 40.));
#149 = B_SPLINE_CURVE_WITH_KNOTS('', 1, (#150, #151), .UNSPECIFIED., .F., .U., (2, 2), (0., 80.), .UNSPECIFIED.);
#150 = CARTESIAN_POINT('', (30., 50., -40.));
#151 = CARTESIAN_POINT('', (30., 50., 40.));
#152 = ORIENTED_EDGE('', *, *, #153, .T.);
#153 = EDGE_CURVE('', #147, #154, #156, .T.);
#154 = VERTEX_POINT('', #155);
#155 = CARTESIAN_POINT('', (90., 50., 40.));
#156 = B_SPLINE_CURVE_WITH_KNOTS('', 1, (#157, #158), .UNSPECIFIED., .F., .U., (2, 2), (0., 60.), .UNSPECIFIED.);
#157 = CARTESIAN_POINT('', (30., 50., 40.));
#158 = CARTESIAN_POINT('', (90., 50., 40.));
#159 = ORIENTED_EDGE('', *, *, #160, .F.);
#160 = EDGE_CURVE('', #161, #154, #163, .T.);
#161 = VERTEX_POINT('', #162);
#162 = CARTESIAN_POINT('', (90., 50., -40.));
#163 = B_SPLINE_CURVE_WITH_KNOTS('', 1, (#164, #165), .UNSPECIFIED., .F., .U., (2, 2), (0., 80.), .UNSPECIFIED.);
#164 = CARTESIAN_POINT('', (90., 50., -40.));
#165 = CARTESIAN_POINT('', (90., 50., 40.));
#166 = ORIENTED_EDGE('', *, *, #167, .F.);
#167 = EDGE_CURVE('', #145, #161, #168, .T.);
#168 = B_SPLINE_CURVE_WITH_KNOTS('', 1, (#169, #170), .UNSPECIFIED., .F., .U., (2, 2), (0., 60.), .UNSPECIFIED.);
#169 = CARTESIAN_POINT('', (30., 50., -40.));
#170 = CARTESIAN_POINT('', (90., 50., -40.));
#171 = B_SPLINE_SURFACE_WITH_KNOTS('', 1, 1, ((#172, #173), (#174, #175)), .UNSPECIFIED., .F., .F., .U., (2, 2), (2, 2), (0., 80.), (0., 60.), .UNSPECIFIED.);
#172 = CARTESIAN_POINT('', (30., 50., -40.));
#173 = CARTESIAN_POINT('', (90., 50., -40.));
#174 = CARTESIAN_POINT('', (30., 50., 40.));
#175 = CARTESIAN_POINT('', (90., 50., 40.));
#176 = ADVANCED_FACE('', (#177), #199, .F.);
#177 = FACE_OUTER_BOUND('', #178, .F.);
#178 = EDGE_LOOP('', (#179, #186, #193, #198));
#179 = ORIENTED_EDGE('', *, *, #180, .F.);
#180 = EDGE_CURVE('', #181, #147, #183, .T.);
#181 = VERTEX_POINT('', #182);
#182 = CARTESIAN_POINT('', (30., 10., 40.));
#183 = B_SPLINE_CURVE_WITH_KNOTS('', 1, (#184, #185), .UNSPECIFIED., .F., .U., (2, 2), (0., 40.), .UNSPECIFIED.);
#184 = CARTESIAN_POINT('', (30., 10., 40.));
#185 = CARTESIAN_POINT('', (30., 50., 40.));
#186 = ORIENTED_EDGE('', *, *, #187, .T.);
#187 = EDGE_CURVE('', #181, #188, #190, .T.);
#188 = VERTEX_POINT('', #189);
#189 = CARTESIAN_POINT('', (90., 10., 40.));
#190 = B_SPLINE_CURVE_WITH_KNOTS('', 1, (#191, #192), .UNSPECIFIED., .F., .U., (2, 2), (0., 60.), .UNSPECIFIED.);
#191 = CARTESIAN_POINT('', (30., 10., 40.));
#192 = CARTESIAN_POINT('', (90., 10., 40.));
#193 = ORIENTED_EDGE('', *, *, #194, .T.);
#194 = EDGE_CURVE('', #188, #154, #195, .T.);
#195 = B_SPLINE_CURVE_WITH_KNOTS('', 1, (#196, #197), .UNSPECIFIED., .F., .U., (2, 2), (0., 40.), .UNSPECIFIED.);
#196 = CARTESIAN_POINT('', (90., 10., 40.));
#197 = CARTESIAN_POINT('', (90., 50., 40.));
#198 = ORIENTED_EDGE('', *, *, #153, .F.);
#199 = B_SPLINE_SURFACE_WITH_KNOTS('', 1, 1, ((#200, #201), (#202, #203)), .UNSPECIFIED., .F., .F., .U., (2, 2), (2, 2), (0., 60.), (0., 40.), .UNSPECIFIED.);
#200 = CARTESIAN_POINT('', (30., 10., 40.));
#201 = CARTESIAN_POINT('', (30., 50., 40.));
#202 = CARTESIAN_POINT('', (90., 10., 40.));
#203 = CARTESIAN_POINT('', (90., 50., 40.));
#204 = ADVANCED_FACE('', (#205), #227, .F.);
#205 = FACE_OUTER_BOUND('', #206, .F.);
#206 = EDGE_LOOP('', (#207, #214, #221, #226));
#207 = ORIENTED_EDGE('', *, *, #208, .F.);
#208 = EDGE_CURVE('', #209, #181, #211, .T.);
#209 = VERTEX_POINT('', #210);
#210 = CARTESIAN_POINT('', (30., 10., -40.));
#211 = B_SPLINE_CURVE_WITH_KNOTS('', 1, (#212, #213), .UNSPECIFIED., .F., .U., (2, 2), (0., 80.), .UNSPECIFIED.);
#212 = CARTESIAN_POINT('', (30., 10., -40.));
#213 = CARTESIAN_POINT('', (30., 10., 40.));
#214 = ORIENTED_EDGE('', *, *, #215, .T.);
#215 = EDGE_CURVE('', #209, #216, #218, .T.);
#216 = VERTEX_POINT('', #217);
#217 = CARTESIAN_POINT('', (90., 10., -40.));
#218 = B_SPLINE_CURVE_WITH_KNOTS('', 1, (#219, #220), .UNSPECIFIED., .F., .U., (2, 2), (0., 60.), .UNSPECIFIED.);
#219 = CARTESIAN_POINT('', (30., 10., -40.));
#220 = CARTESIAN_POINT('', (90., 10., -40.));
#221 = ORIENTED_EDGE('', *, *, #222, .T.);
#222 = EDGE_CURVE('', #216, #188, #223, .T.);
#223 = B_SPLINE_CURVE_WITH_KNOTS('', 1, (#224, #225), .UNSPECIFIED., .F., .U., (2, 2), (0., 80.), .UNSPECIFIED.);
#224 = CARTESIAN_POINT('', (90., 10., -40.));
#225 = CARTESIAN_POINT('', (90., 10., 40.));
#226 = ORIENTED_EDGE('', *, *, #187, .F.);
#227 = B_SPLINE_SURFACE_WITH_KNOTS('', 1, 1, ((#228, #229), (#230, #231)), .UNSPECIFIED., .F., .F., .U., (2, 2), (2, 2), (0., 60.), (0., 80.), .UNSPECIFIED.);
#228 = CARTESIAN_POINT('', (30., 10., -40.));
#229 = CARTESIAN_POINT('', (30., 10., 40.));
#230 = CARTESIAN_POINT('', (90., 10., -40.));
#231 = CARTESIAN_POINT('', (90., 10., 40.));
#232 = ADVANCED_FACE('', (#233), #247, .F.);
#233 = FACE_OUTER_BOUND('', #234, .F.);
#234 = EDGE_LOOP('', (#235, #240, #241, #246));
#235 = ORIENTED_EDGE('', *, *, #236, .T.);
#236 = EDGE_CURVE('', #209, #145, #237, .T.);
#237 = B_SPLINE_CURVE_WITH_KNOTS('', 1, (#238, #239), .UNSPECIFIED., .F., .U., (2, 2), (0., 40.), .UNSPECIFIED.);
#238 = CARTESIAN_POINT('', (30., 10., -40.));
#239 = CARTESIAN_POINT('', (30., 50., -40.));
#240 = ORIENTED_EDGE('', *, *, #167, .T.);
#241 = ORIENTED_EDGE('', *, *, #242, .F.);
#242 = EDGE_CURVE('', #216, #161, #243, .T.);
#243 = B_SPLINE_CURVE_WITH_KNOTS('', 1, (#244, #245), .UNSPECIFIED., .F., .U., (2, 2), (0., 40.), .UNSPECIFIED.);
#244 = CARTESIAN_POINT('', (90., 10., -40.));
#245 = CARTESIAN_POINT('', (90., 50., -40.));
#246 = ORIENTED_EDGE('', *, *, #215, .F.);
#247 = B_SPLINE_SURFACE_WITH_KNOTS('', 1, 1, ((#248, #249), (#250, #251)), .UNSPECIFIED., .F., .F., .U., (2, 2), (2, 2), (0., 40.), (0., 60.), .UNSPECIFIED.);
#248 = CARTESIAN_POINT('', (30., 10., -40.));
#249 = CARTESIAN_POINT('', (90., 10., -40.));
#250 = CARTESIAN_POINT('', (30., 50., -40.));
#251 = CARTESIAN_POINT('', (90., 50., -40.));
#252 = ADVANCED_FACE('', (#253), #259, .F.);
#253 = FACE_OUTER_BOUND('', #254, .F.);
#254 = EDGE_LOOP('', (#255, #256, #257, #258));
#255 = ORIENTED_EDGE('', *, *, #222, .F.);
#256 = ORIENTED_EDGE('', *, *, #242, .T.);
#257 = ORIENTED_EDGE('', *, *, #160, .T.);
#258 = ORIENTED_EDGE('', *, *, #194, .F.);
#259 = B_SPLINE_SURFACE_WITH_KNOTS('', 1, 1, ((#260, #261), (#262, #263)), .UNSPECIFIED., .F., .F., .U., (2, 2), (2, 2), (0., 40.), (0., 80.), .UNSPECIFIED.);
#260 = CARTESIAN_POINT('', (90., 10., -40.));
#261 = CARTESIAN_POINT('', (90., 10., 40.));
#262 = CARTESIAN_POINT('', (90., 50., -40.));
#263 = CARTESIAN_POINT('', (90., 50., 40.));
#264 = ADVANCED_FACE('', (#265), #271, .F.);
#265 = FACE_OUTER_BOUND('', #266, .F.);
#266 = EDGE_LOOP('', (#267, #268, #269, #270));
#267 = ORIENTED_EDGE('', *, *, #208, .T.);
#268 = ORIENTED_EDGE('', *, *, #180, .T.);
#269 = ORIENTED_EDGE('', *, *, #144, .F.);
#270 = ORIENTED_EDGE('', *, *, #236, .F.);
#271 = B_SPLINE_SURFACE_WITH_KNOTS('', 1, 1, ((#272, #273), (#274, #275)), .UNSPECIFIED., .F., .F., .U., (2, 2), (2, 2), (0., 80.), (0., 40.), .UNSPECIFIED.);
#272 = CARTESIAN_POINT('', (30., 10., -40.));
#273 = CARTESIAN_POINT('', (30., 50., -40.));
#274 = CARTESIAN_POINT('', (30., 10., 40.));
#275 = CARTESIAN_POINT('', (30., 50., 40.));
#276 = DRAUGHTING_MODEL('', (#284, #430, #576, #859), #862);
#277 = PRESENTATION_STYLE_ASSIGNMENT((#278));
#278 = SURFACE_STYLE_USAGE(.POSITIVE., #279);
#279 = SURFACE_SIDE_STYLE('', (#280));
#280 = SURFACE_STYLE_FILL_AREA(#281);
#281 = FILL_AREA_STYLE('', (#282));
#282 = FILL_AREA_STYLE_COLOUR('', #283);
#283 = COLOUR_RGB('', 0.50196078431373, 0.50196078431373, 0.50196078431373);
#284 = STYLED_ITEM('', (#277), #1);
#285 = MANIFOLD_SOLID_BREP('Solid0', #286);
#286 = CLOSED_SHELL('', (#287, #323, #351, #379, #399, #411));
#287 = ADVANCED_FACE('', (#288), #318, .T.);
#288 = FACE_OUTER_BOUND('', #289, .T.);
#289 = EDGE_LOOP('', (#290, #299, #306, #313));
#290 = ORIENTED_EDGE('', *, *, #291, .T.);
#291 = EDGE_CURVE('', #292, #294, #296, .T.);
#292 = VERTEX_POINT('', #293);
#293 = CARTESIAN_POINT('', (30., 50., -40.));
#294 = VERTEX_POINT('', #295);
#295 = CARTESIAN_POINT('', (30., 50., 40.));
#296 = B_SPLINE_CURVE_WITH_KNOTS('', 1, (#297, #298), .UNSPECIFIED., .F., .U., (2, 2), (0., 80.), .UNSPECIFIED.);
#297 = CARTESIAN_POINT('', (30., 50., -40.));
#298 = CARTESIAN_POINT('', (30., 50., 40.));
#299 = ORIENTED_EDGE('', *, *, #300, .T.);
#300 = EDGE_CURVE('', #294, #301, #303, .T.);
#301 = VERTEX_POINT('', #302);
#302 = CARTESIAN_POINT('', (90., 50., 40.));
#303 = B_SPLINE_CURVE_WITH_KNOTS('', 1, (#304, #305), .UNSPECIFIED., .F., .U., (2, 2), (0., 60.), .UNSPECIFIED.);
#304 = CARTESIAN_POINT('', (30., 50., 40.));
#305 = CARTESIAN_POINT('', (90., 50., 40.));
#306 = ORIENTED_EDGE('', *, *, #307, .F.);
#307 = EDGE_CURVE('', #308, #301, #310, .T.);
#308 = VERTEX_POINT('', #309);
#309 = CARTESIAN_POINT('', (90., 50., -40.));
#310 = B_SPLINE_CURVE_WITH_KNOTS('', 1, (#311, #312), .UNSPECIFIED., .F., .U., (2, 2), (0., 80.), .UNSPECIFIED.);
#311 = CARTESIAN_POINT('', (90., 50., -40.));
#312 = CARTESIAN_POINT('', (90., 50., 40.));
#313 = ORIENTED_EDGE('', *, *, #314, .F.);
#314 = EDGE_CURVE('', #292, #308, #315, .T.);
#315 = B_SPLINE_CURVE_WITH_KNOTS('', 1, (#316, #317), .UNSPECIFIED., .F., .U., (2, 2), (0., 60.), .UNSPECIFIED.);
#316 = CARTESIAN_POINT('', (30., 50., -40.));
#317 = CARTESIAN_POINT('', (90., 50., -40.));
#318 = B_SPLINE_SURFACE_WITH_KNOTS('', 1, 1, ((#319, #320), (#321, #322)), .UNSPECIFIED., .F., .F., .U., (2, 2), (2, 2), (0., 80.), (0., 60.), .UNSPECIFIED.);
#319 = CARTESIAN_POINT('', (30., 50., -40.));
#320 = CARTESIAN_POINT('', (90., 50., -40.));
#321 = CARTESIAN_POINT('', (30., 50., 40.));
#322 = CARTESIAN_POINT('', (90., 50., 40.));
#323 = ADVANCED_FACE('', (#324), #346, .T.);
#324 = FACE_OUTER_BOUND('', #325, .T.);
#325 = EDGE_LOOP('', (#326, #333, #340, #345));
#326 = ORIENTED_EDGE('', *, *, #327, .F.);
#327 = EDGE_CURVE('', #328, #294, #330, .T.);
#328 = VERTEX_POINT('', #329);
#329 = CARTESIAN_POINT('', (30., 10., 40.));
#330 = B_SPLINE_CURVE_WITH_KNOTS('', 1, (#331, #332), .UNSPECIFIED., .F., .U., (2, 2), (0., 40.), .UNSPECIFIED.);
#331 = CARTESIAN_POINT('', (30., 10., 40.));
#332 = CARTESIAN_POINT('', (30., 50., 40.));
#333 = ORIENTED_EDGE('', *, *, #334, .T.);
#334 = EDGE_CURVE('', #328, #335, #337, .T.);
#335 = VERTEX_POINT('', #336);
#336 = CARTESIAN_POINT('', (90., 10., 40.));
#337 = B_SPLINE_CURVE_WITH_KNOTS('', 1, (#338, #339), .UNSPECIFIED., .F., .U., (2, 2), (0., 60.), .UNSPECIFIED.);
#338 = CARTESIAN_POINT('', (30., 10., 40.));
#339 = CARTESIAN_POINT('', (90., 10., 40.));
#340 = ORIENTED_EDGE('', *, *, #341, .T.);
#341 = EDGE_CURVE('', #335, #301, #342, .T.);
#342 = B_SPLINE_CURVE_WITH_KNOTS('', 1, (#343, #344), .UNSPECIFIED., .F., .U., (2, 2), (0., 40.), .UNSPECIFIED.);
#343 = CARTESIAN_POINT('', (90., 10., 40.));
#344 = CARTESIAN_POINT('', (90., 50., 40.));
#345 = ORIENTED_EDGE('', *, *, #300, .F.);
#346 = B_SPLINE_SURFACE_WITH_KNOTS('', 1, 1, ((#347, #348), (#349, #350)), .UNSPECIFIED., .F., .F., .U., (2, 2), (2, 2), (0., 60.), (0., 40.), .UNSPECIFIED.);
#347 = CARTESIAN_POINT('', (30., 10., 40.));
#348 = CARTESIAN_POINT('', (30., 50., 40.));
#349 = CARTESIAN_POINT('', (90., 10., 40.));
#350 = CARTESIAN_POINT('', (90., 50., 40.));
#351 = ADVANCED_FACE('', (#352), #374, .T.);
#352 = FACE_OUTER_BOUND('', #353, .T.);
#353 = EDGE_LOOP('', (#354, #361, #368, #373));
#354 = ORIENTED_EDGE('', *, *, #355, .F.);
#355 = EDGE_CURVE('', #356, #328, #358, .T.);
#356 = VERTEX_POINT('', #357);
#357 = CARTESIAN_POINT('', (30., 10., -40.));
#358 = B_SPLINE_CURVE_WITH_KNOTS('', 1, (#359, #360), .UNSPECIFIED., .F., .U., (2, 2), (0., 80.), .UNSPECIFIED.);
#359 = CARTESIAN_POINT('', (30., 10., -40.));
#360 = CARTESIAN_POINT('', (30., 10., 40.));
#361 = ORIENTED_EDGE('', *, *, #362, .T.);
#362 = EDGE_CURVE('', #356, #363, #365, .T.);
#363 = VERTEX_POINT('', #364);
#364 = CARTESIAN_POINT('', (90., 10., -40.));
#365 = B_SPLINE_CURVE_WITH_KNOTS('', 1, (#366, #367), .UNSPECIFIED., .F., .U., (2, 2), (0., 60.), .UNSPECIFIED.);
#366 = CARTESIAN_POINT('', (30., 10., -40.));
#367 = CARTESIAN_POINT('', (90., 10., -40.));
#368 = ORIENTED_EDGE('', *, *, #369, .T.);
#369 = EDGE_CURVE('', #363, #335, #370, .T.);
#370 = B_SPLINE_CURVE_WITH_KNOTS('', 1, (#371, #372), .UNSPECIFIED., .F., .U., (2, 2), (0., 80.), .UNSPECIFIED.);
#371 = CARTESIAN_POINT('', (90., 10., -40.));
#372 = CARTESIAN_POINT('', (90., 10., 40.));
#373 = ORIENTED_EDGE('', *, *, #334, .F.);
#374 = B_SPLINE_SURFACE_WITH_KNOTS('', 1, 1, ((#375, #376), (#377, #378)), .UNSPECIFIED., .F., .F., .U., (2, 2), (2, 2), (0., 60.), (0., 80.), .UNSPECIFIED.);
#375 = CARTESIAN_POINT('', (30., 10., -40.));
#376 = CARTESIAN_POINT('', (30., 10., 40.));
#377 = CARTESIAN_POINT('', (90., 10., -40.));
#378 = CARTESIAN_POINT('', (90., 10., 40.));
#379 = ADVANCED_FACE('', (#380), #394, .T.);
#380 = FACE_OUTER_BOUND('', #381, .T.);
#381 = EDGE_LOOP('', (#382, #387, #388, #393));
#382 = ORIENTED_EDGE('', *, *, #383, .T.);
#383 = EDGE_CURVE('', #356, #292, #384, .T.);
#384 = B_SPLINE_CURVE_WITH_KNOTS('', 1, (#385, #386), .UNSPECIFIED., .F., .U., (2, 2), (0., 40.), .UNSPECIFIED.);
#385 = CARTESIAN_POINT('', (30., 10., -40.));
#386 = CARTESIAN_POINT('', (30., 50., -40.));
#387 = ORIENTED_EDGE('', *, *, #314, .T.);
#388 = ORIENTED_EDGE('', *, *, #389, .F.);
#389 = EDGE_CURVE('', #363, #308, #390, .T.);
#390 = B_SPLINE_CURVE_WITH_KNOTS('', 1, (#391, #392), .UNSPECIFIED., .F., .U., (2, 2), (0., 40.), .UNSPECIFIED.);
#391 = CARTESIAN_POINT('', (90., 10., -40.));
#392 = CARTESIAN_POINT('', (90., 50., -40.));
#393 = ORIENTED_EDGE('', *, *, #362, .F.);
#394 = B_SPLINE_SURFACE_WITH_KNOTS('', 1, 1, ((#395, #396), (#397, #398)), .UNSPECIFIED., .F., .F., .U., (2, 2), (2, 2), (0., 40.), (0., 60.), .UNSPECIFIED.);
#395 = CARTESIAN_POINT('', (30., 10., -40.));
#396 = CARTESIAN_POINT('', (90., 10., -40.));
#397 = CARTESIAN_POINT('', (30., 50., -40.));
#398 = CARTESIAN_POINT('', (90., 50., -40.));
#399 = ADVANCED_FACE('', (#400), #406, .T.);
#400 = FACE_OUTER_BOUND('', #401, .T.);
#401 = EDGE_LOOP('', (#402, #403, #404, #405));
#402 = ORIENTED_EDGE('', *, *, #369, .F.);
#403 = ORIENTED_EDGE('', *, *, #389, .T.);
#404 = ORIENTED_EDGE('', *, *, #307, .T.);
#405 = ORIENTED_EDGE('', *, *, #341, .F.);
#406 = B_SPLINE_SURFACE_WITH_KNOTS('', 1, 1, ((#407, #408), (#409, #410)), .UNSPECIFIED., .F., .F., .U., (2, 2), (2, 2), (0., 40.), (0., 80.), .UNSPECIFIED.);
#407 = CARTESIAN_POINT('', (90., 10., -40.));
#408 = CARTESIAN_POINT('', (90., 10., 40.));
#409 = CARTESIAN_POINT('', (90., 50., -40.));
#410 = CARTESIAN_POINT('', (90., 50., 40.));
#411 = ADVANCED_FACE('', (#412), #418, .T.);
#412 = FACE_OUTER_BOUND('', #413, .T.);
#413 = EDGE_LOOP('', (#414, #415, #416, #417));
#414 = ORIENTED_EDGE('', *, *, #355, .T.);
#415 = ORIENTED_EDGE('', *, *, #327, .T.);
#416 = ORIENTED_EDGE('', *, *, #291, .F.);
#417 = ORIENTED_EDGE('', *, *, #383, .F.);
#418 = B_SPLINE_SURFACE_WITH_KNOTS('', 1, 1, ((#419, #420), (#421, #422)), .UNSPECIFIED., .F., .F., .U., (2, 2), (2, 2), (0., 80.), (0., 40.), .UNSPECIFIED.);
#419 = CARTESIAN_POINT('', (30., 10., -40.));
#420 = CARTESIAN_POINT('', (30., 50., -40.));
#421 = CARTESIAN_POINT('', (30., 10., 40.));
#422 = CARTESIAN_POINT('', (30., 50., 40.));
#423 = PRESENTATION_STYLE_ASSIGNMENT((#424));
#424 = SURFACE_STYLE_USAGE(.POSITIVE., #425);
#425 = SURFACE_SIDE_STYLE('', (#426));
#426 = SURFACE_STYLE_FILL_AREA(#427);
#427 = FILL_AREA_STYLE('', (#428));
#428 = FILL_AREA_STYLE_COLOUR('', #429);
#429 = COLOUR_RGB('', 0.50196078431373, 0.50196078431373, 0.50196078431373);
#430 = STYLED_ITEM('', (#423), #285);
#431 = MANIFOLD_SOLID_BREP('EntityObjCopy', #432);
#432 = CLOSED_SHELL('', (#433, #469, #497, #525, #545, #557));
#433 = ADVANCED_FACE('', (#434), #464, .T.);
#434 = FACE_OUTER_BOUND('', #435, .T.);
#435 = EDGE_LOOP('', (#436, #445, #452, #459));
#436 = ORIENTED_EDGE('', *, *, #437, .T.);
#437 = EDGE_CURVE('', #438, #440, #442, .T.);
#438 = VERTEX_POINT('', #439);
#439 = CARTESIAN_POINT('', (30., 50., -40.));
#440 = VERTEX_POINT('', #441);
#441 = CARTESIAN_POINT('', (30., 50., 40.));
#442 = B_SPLINE_CURVE_WITH_KNOTS('', 1, (#443, #444), .UNSPECIFIED., .F., .U., (2, 2), (0., 80.), .UNSPECIFIED.);
#443 = CARTESIAN_POINT('', (30., 50., -40.));
#444 = CARTESIAN_POINT('', (30., 50., 40.));
#445 = ORIENTED_EDGE('', *, *, #446, .T.);
#446 = EDGE_CURVE('', #440, #447, #449, .T.);
#447 = VERTEX_POINT('', #448);
#448 = CARTESIAN_POINT('', (90., 50., 40.));
#449 = B_SPLINE_CURVE_WITH_KNOTS('', 1, (#450, #451), .UNSPECIFIED., .F., .U., (2, 2), (0., 60.), .UNSPECIFIED.);
#450 = CARTESIAN_POINT('', (30., 50., 40.));
#451 = CARTESIAN_POINT('', (90., 50., 40.));
#452 = ORIENTED_EDGE('', *, *, #453, .F.);
#453 = EDGE_CURVE('', #454, #447, #456, .T.);
#454 = VERTEX_POINT('', #455);
#455 = CARTESIAN_POINT('', (90., 50., -40.));
#456 = B_SPLINE_CURVE_WITH_KNOTS('', 1, (#457, #458), .UNSPECIFIED., .F., .U., (2, 2), (0., 80.), .UNSPECIFIED.);
#457 = CARTESIAN_POINT('', (90., 50., -40.));
#458 = CARTESIAN_POINT('', (90., 50., 40.));
#459 = ORIENTED_EDGE('', *, *, #460, .F.);
#460 = EDGE_CURVE('', #438, #454, #461, .T.);
#461 = B_SPLINE_CURVE_WITH_KNOTS('', 1, (#462, #463), .UNSPECIFIED., .F., .U., (2, 2), (0., 60.), .UNSPECIFIED.);
#462 = CARTESIAN_POINT('', (30., 50., -40.));
#463 = CARTESIAN_POINT('', (90., 50., -40.));
#464 = B_SPLINE_SURFACE_WITH_KNOTS('', 1, 1, ((#465, #466), (#467, #468)), .UNSPECIFIED., .F., .F., .U., (2, 2), (2, 2), (0., 80.), (0., 60.), .UNSPECIFIED.);
#465 = CARTESIAN_POINT('', (30., 50., -40.));
#466 = CARTESIAN_POINT('', (90., 50., -40.));
#467 = CARTESIAN_POINT('', (30., 50., 40.));
#468 = CARTESIAN_POINT('', (90., 50., 40.));
#469 = ADVANCED_FACE('', (#470), #492, .T.);
#470 = FACE_OUTER_BOUND('', #471, .T.);
#471 = EDGE_LOOP('', (#472, #479, #486, #491));
#472 = ORIENTED_EDGE('', *, *, #473, .F.);
#473 = EDGE_CURVE('', #474, #440, #476, .T.);
#474 = VERTEX_POINT('', #475);
#475 = CARTESIAN_POINT('', (30., 10., 40.));
#476 = B_SPLINE_CURVE_WITH_KNOTS('', 1, (#477, #478), .UNSPECIFIED., .F., .U., (2, 2), (0., 40.), .UNSPECIFIED.);
#477 = CARTESIAN_POINT('', (30., 10., 40.));
#478 = CARTESIAN_POINT('', (30., 50., 40.));
#479 = ORIENTED_EDGE('', *, *, #480, .T.);
#480 = EDGE_CURVE('', #474, #481, #483, .T.);
#481 = VERTEX_POINT('', #482);
#482 = CARTESIAN_POINT('', (90., 10., 40.));
#483 = B_SPLINE_CURVE_WITH_KNOTS('', 1, (#484, #485), .UNSPECIFIED., .F., .U., (2, 2), (0., 60.), .UNSPECIFIED.);
#484 = CARTESIAN_POINT('', (30., 10., 40.));
#485 = CARTESIAN_POINT('', (90., 10., 40.));
#486 = ORIENTED_EDGE('', *, *, #487, .T.);
#487 = EDGE_CURVE('', #481, #447, #488, .T.);
#488 = B_SPLINE_CURVE_WITH_KNOTS('', 1, (#489, #490), .UNSPECIFIED., .F., .U., (2, 2), (0., 40.), .UNSPECIFIED.);
#489 = CARTESIAN_POINT('', (90., 10., 40.));
#490 = CARTESIAN_POINT('', (90., 50., 40.));
#491 = ORIENTED_EDGE('', *, *, #446, .F.);
#492 = B_SPLINE_SURFACE_WITH_KNOTS('', 1, 1, ((#493, #494), (#495, #496)), .UNSPECIFIED., .F., .F., .U., (2, 2), (2, 2), (0., 60.), (0., 40.), .UNSPECIFIED.);
#493 = CARTESIAN_POINT('', (30., 10., 40.));
#494 = CARTESIAN_POINT('', (30., 50., 40.));
#495 = CARTESIAN_POINT('', (90., 10., 40.));
#496 = CARTESIAN_POINT('', (90., 50., 40.));
#497 = ADVANCED_FACE('', (#498), #520, .T.);
#498 = FACE_OUTER_BOUND('', #499, .T.);
#499 = EDGE_LOOP('', (#500, #507, #514, #519));
#500 = ORIENTED_EDGE('', *, *, #501, .F.);
#501 = EDGE_CURVE('', #502, #474, #504, .T.);
#502 = VERTEX_POINT('', #503);
#503 = CARTESIAN_POINT('', (30., 10., -40.));
#504 = B_SPLINE_CURVE_WITH_KNOTS('', 1, (#505, #506), .UNSPECIFIED., .F., .U., (2, 2), (0., 80.), .UNSPECIFIED.);
#505 = CARTESIAN_POINT('', (30., 10., -40.));
#506 = CARTESIAN_POINT('', (30., 10., 40.));
#507 = ORIENTED_EDGE('', *, *, #508, .T.);
#508 = EDGE_CURVE('', #502, #509, #511, .T.);
#509 = VERTEX_POINT('', #510);
#510 = CARTESIAN_POINT('', (90., 10., -40.));
#511 = B_SPLINE_CURVE_WITH_KNOTS('', 1, (#512, #513), .UNSPECIFIED., .F., .U., (2, 2), (0., 60.), .UNSPECIFIED.);
#512 = CARTESIAN_POINT('', (30., 10., -40.));
#513 = CARTESIAN_POINT('', (90., 10., -40.));
#514 = ORIENTED_EDGE('', *, *, #515, .T.);
#515 = EDGE_CURVE('', #509, #481, #516, .T.);
#516 = B_SPLINE_CURVE_WITH_KNOTS('', 1, (#517, #518), .UNSPECIFIED., .F., .U., (2, 2), (0., 80.), .UNSPECIFIED.);
#517 = CARTESIAN_POINT('', (90., 10., -40.));
#518 = CARTESIAN_POINT('', (90., 10., 40.));
#519 = ORIENTED_EDGE('', *, *, #480, .F.);
#520 = B_SPLINE_SURFACE_WITH_KNOTS('', 1, 1, ((#521, #522), (#523, #524)), .UNSPECIFIED., .F., .F., .U., (2, 2), (2, 2), (0., 60.), (0., 80.), .UNSPECIFIED.);
#521 = CARTESIAN_POINT('', (30., 10., -40.));
#522 = CARTESIAN_POINT('', (30., 10., 40.));
#523 = CARTESIAN_POINT('', (90., 10., -40.));
#524 = CARTESIAN_POINT('', (90., 10., 40.));
#525 = ADVANCED_FACE('', (#526), #540, .T.);
#526 = FACE_OUTER_BOUND('', #527, .T.);
#527 = EDGE_LOOP('', (#528, #533, #534, #539));
#528 = ORIENTED_EDGE('', *, *, #529, .T.);
#529 = EDGE_CURVE('', #502, #438, #530, .T.);
#530 = B_SPLINE_CURVE_WITH_KNOTS('', 1, (#531, #532), .UNSPECIFIED., .F., .U., (2, 2), (0., 40.), .UNSPECIFIED.);
#531 = CARTESIAN_POINT('', (30., 10., -40.));
#532 = CARTESIAN_POINT('', (30., 50., -40.));
#533 = ORIENTED_EDGE('', *, *, #460, .T.);
#534 = ORIENTED_EDGE('', *, *, #535, .F.);
#535 = EDGE_CURVE('', #509, #454, #536, .T.);
#536 = B_SPLINE_CURVE_WITH_KNOTS('', 1, (#537, #538), .UNSPECIFIED., .F., .U., (2, 2), (0., 40.), .UNSPECIFIED.);
#537 = CARTESIAN_POINT('', (90., 10., -40.));
#538 = CARTESIAN_POINT('', (90., 50., -40.));
#539 = ORIENTED_EDGE('', *, *, #508, .F.);
#540 = B_SPLINE_SURFACE_WITH_KNOTS('', 1, 1, ((#541, #542), (#543, #544)), .UNSPECIFIED., .F., .F., .U., (2, 2), (2, 2), (0., 40.), (0., 60.), .UNSPECIFIED.);
#541 = CARTESIAN_POINT('', (30., 10., -40.));
#542 = CARTESIAN_POINT('', (90., 10., -40.));
#543 = CARTESIAN_POINT('', (30., 50., -40.));
#544 = CARTESIAN_POINT('', (90., 50., -40.));
#545 = ADVANCED_FACE('', (#546), #552, .T.);
#546 = FACE_OUTER_BOUND('', #547, .T.);
#547 = EDGE_LOOP('', (#548, #549, #550, #551));
#548 = ORIENTED_EDGE('', *, *, #515, .F.);
#549 = ORIENTED_EDGE('', *, *, #535, .T.);
#550 = ORIENTED_EDGE('', *, *, #453, .T.);
#551 = ORIENTED_EDGE('', *, *, #487, .F.);
#552 = B_SPLINE_SURFACE_WITH_KNOTS('', 1, 1, ((#553, #554), (#555, #556)), .UNSPECIFIED., .F., .F., .U., (2, 2), (2, 2), (0., 40.), (0., 80.), .UNSPECIFIED.);
#553 = CARTESIAN_POINT('', (90., 10., -40.));
#554 = CARTESIAN_POINT('', (90., 10., 40.));
#555 = CARTESIAN_POINT('', (90., 50., -40.));
#556 = CARTESIAN_POINT('', (90., 50., 40.));
#557 = ADVANCED_FACE('', (#558), #564, .T.);
#558 = FACE_OUTER_BOUND('', #559, .T.);
#559 = EDGE_LOOP('', (#560, #561, #562, #563));
#560 = ORIENTED_EDGE('', *, *, #501, .T.);
#561 = ORIENTED_EDGE('', *, *, #473, .T.);
#562 = ORIENTED_EDGE('', *, *, #437, .F.);
#563 = ORIENTED_EDGE('', *, *, #529, .F.);
#564 = B_SPLINE_SURFACE_WITH_KNOTS('', 1, 1, ((#565, #566), (#567, #568)), .UNSPECIFIED., .F., .F., .U., (2, 2), (2, 2), (0., 80.), (0., 40.), .UNSPECIFIED.);
#565 = CARTESIAN_POINT('', (30., 10., -40.));
#566 = CARTESIAN_POINT('', (30., 50., -40.));
#567 = CARTESIAN_POINT('', (30., 10., 40.));
#568 = CARTESIAN_POINT('', (30., 50., 40.));
#569 = PRESENTATION_STYLE_ASSIGNMENT((#570));
#570 = SURFACE_STYLE_USAGE(.POSITIVE., #571);
#571 = SURFACE_SIDE_STYLE('', (#572));
#572 = SURFACE_STYLE_FILL_AREA(#573);
#573 = FILL_AREA_STYLE('', (#574));
#574 = FILL_AREA_STYLE_COLOUR('', #575);
#575 = COLOUR_RGB('', 0.50196078431373, 0.50196078431373, 0.50196078431373);
#576 = STYLED_ITEM('', (#569), #431);
#577 = SHELL_BASED_SURFACE_MODEL('Solid', (#578, #715));
#578 = CLOSED_SHELL('', (#579, #615, #643, #671, #691, #703));
#579 = ADVANCED_FACE('', (#580), #610, .F.);
#580 = FACE_OUTER_BOUND('', #581, .F.);
#581 = EDGE_LOOP('', (#582, #591, #598, #605));
#582 = ORIENTED_EDGE('', *, *, #583, .T.);
#583 = EDGE_CURVE('', #584, #586, #588, .T.);
#584 = VERTEX_POINT('', #585);
#585 = CARTESIAN_POINT('', (-50., 30., -20.));
#586 = VERTEX_POINT('', #587);
#587 = CARTESIAN_POINT('', (-50., 30., 20.));
#588 = B_SPLINE_CURVE_WITH_KNOTS('', 1, (#589, #590), .UNSPECIFIED., .F., .U., (2, 2), (0., 40.), .UNSPECIFIED.);
#589 = CARTESIAN_POINT('', (-50., 30., -20.));
#590 = CARTESIAN_POINT('', (-50., 30., 20.));
#591 = ORIENTED_EDGE('', *, *, #592, .T.);
#592 = EDGE_CURVE('', #586, #593, #595, .T.);
#593 = VERTEX_POINT('', #594);
#594 = CARTESIAN_POINT('', (50., 30., 20.));
#595 = B_SPLINE_CURVE_WITH_KNOTS('', 1, (#596, #597), .UNSPECIFIED., .F., .U., (2, 2), (0., 100.), .UNSPECIFIED.);
#596 = CARTESIAN_POINT('', (-50., 30., 20.));
#597 = CARTESIAN_POINT('', (50., 30., 20.));
#598 = ORIENTED_EDGE('', *, *, #599, .F.);
#599 = EDGE_CURVE('', #600, #593, #602, .T.);
#600 = VERTEX_POINT('', #601);
#601 = CARTESIAN_POINT('', (50., 30., -20.));
#602 = B_SPLINE_CURVE_WITH_KNOTS('', 1, (#603, #604), .UNSPECIFIED., .F., .U., (2, 2), (0., 40.), .UNSPECIFIED.);
#603 = CARTESIAN_POINT('', (50., 30., -20.));
#604 = CARTESIAN_POINT('', (50., 30., 20.));
#605 = ORIENTED_EDGE('', *, *, #606, .F.);
#606 = EDGE_CURVE('', #584, #600, #607, .T.);
#607 = B_SPLINE_CURVE_WITH_KNOTS('', 1, (#608, #609), .UNSPECIFIED., .F., .U., (2, 2), (0., 100.), .UNSPECIFIED.);
#608 = CARTESIAN_POINT('', (-50., 30., -20.));
#609 = CARTESIAN_POINT('', (50., 30., -20.));
#610 = B_SPLINE_SURFACE_WITH_KNOTS('', 1, 1, ((#611, #612), (#613, #614)), .UNSPECIFIED., .F., .F., .U., (2, 2), (2, 2), (0., 40.), (0., 100.), .UNSPECIFIED.);
#611 = CARTESIAN_POINT('', (-50., 30., -20.));
#612 = CARTESIAN_POINT('', (50., 30., -20.));
#613 = CARTESIAN_POINT('', (-50., 30., 20.));
#614 = CARTESIAN_POINT('', (50., 30., 20.));
#615 = ADVANCED_FACE('', (#616), #638, .F.);
#616 = FACE_OUTER_BOUND('', #617, .F.);
#617 = EDGE_LOOP('', (#618, #625, #632, #637));
#618 = ORIENTED_EDGE('', *, *, #619, .F.);
#619 = EDGE_CURVE('', #620, #586, #622, .T.);
#620 = VERTEX_POINT('', #621);
#621 = CARTESIAN_POINT('', (-50., -30., 20.));
#622 = B_SPLINE_CURVE_WITH_KNOTS('', 1, (#623, #624), .UNSPECIFIED., .F., .U., (2, 2), (0., 60.), .UNSPECIFIED.);
#623 = CARTESIAN_POINT('', (-50., -30., 20.));
#624 = CARTESIAN_POINT('', (-50., 30., 20.));
#625 = ORIENTED_EDGE('', *, *, #626, .T.);
#626 = EDGE_CURVE('', #620, #627, #629, .T.);
#627 = VERTEX_POINT('', #628);
#628 = CARTESIAN_POINT('', (50., -30., 20.));
#629 = B_SPLINE_CURVE_WITH_KNOTS('', 1, (#630, #631), .UNSPECIFIED., .F., .U., (2, 2), (0., 100.), .UNSPECIFIED.);
#630 = CARTESIAN_POINT('', (-50., -30., 20.));
#631 = CARTESIAN_POINT('', (50., -30., 20.));
#632 = ORIENTED_EDGE('', *, *, #633, .T.);
#633 = EDGE_CURVE('', #627, #593, #634, .T.);
#634 = B_SPLINE_CURVE_WITH_KNOTS('', 1, (#635, #636), .UNSPECIFIED., .F., .U., (2, 2), (0., 60.), .UNSPECIFIED.);
#635 = CARTESIAN_POINT('', (50., -30., 20.));
#636 = CARTESIAN_POINT('', (50., 30., 20.));
#637 = ORIENTED_EDGE('', *, *, #592, .F.);
#638 = B_SPLINE_SURFACE_WITH_KNOTS('', 1, 1, ((#639, #640), (#641, #642)), .UNSPECIFIED., .F., .F., .U., (2, 2), (2, 2), (0., 100.), (0., 60.), .UNSPECIFIED.);
#639 = CARTESIAN_POINT('', (-50., -30., 20.));
#640 = CARTESIAN_POINT('', (-50., 30., 20.));
#641 = CARTESIAN_POINT('', (50., -30., 20.));
#642 = CARTESIAN_POINT('', (50., 30., 20.));
#643 = ADVANCED_FACE('', (#644), #666, .F.);
#644 = FACE_OUTER_BOUND('', #645, .F.);
#645 = EDGE_LOOP('', (#646, #653, #660, #665));
#646 = ORIENTED_EDGE('', *, *, #647, .F.);
#647 = EDGE_CURVE('', #648, #620, #650, .T.);
#648 = VERTEX_POINT('', #649);
#649 = CARTESIAN_POINT('', (-50., -30., -20.));
#650 = B_SPLINE_CURVE_WITH_KNOTS('', 1, (#651, #652), .UNSPECIFIED., .F., .U., (2, 2), (0., 40.), .UNSPECIFIED.);
#651 = CARTESIAN_POINT('', (-50., -30., -20.));
#652 = CARTESIAN_POINT('', (-50., -30., 20.));
#653 = ORIENTED_EDGE('', *, *, #654, .T.);
#654 = EDGE_CURVE('', #648, #655, #657, .T.);
#655 = VERTEX_POINT('', #656);
#656 = CARTESIAN_POINT('', (50., -30., -20.));
#657 = B_SPLINE_CURVE_WITH_KNOTS('', 1, (#658, #659), .UNSPECIFIED., .F., .U., (2, 2), (0., 100.), .UNSPECIFIED.);
#658 = CARTESIAN_POINT('', (-50., -30., -20.));
#659 = CARTESIAN_POINT('', (50., -30., -20.));
#660 = ORIENTED_EDGE('', *, *, #661, .T.);
#661 = EDGE_CURVE('', #655, #627, #662, .T.);
#662 = B_SPLINE_CURVE_WITH_KNOTS('', 1, (#663, #664), .UNSPECIFIED., .F., .U., (2, 2), (0., 40.), .UNSPECIFIED.);
#663 = CARTESIAN_POINT('', (50., -30., -20.));
#664 = CARTESIAN_POINT('', (50., -30., 20.));
#665 = ORIENTED_EDGE('', *, *, #626, .F.);
#666 = B_SPLINE_SURFACE_WITH_KNOTS('', 1, 1, ((#667, #668), (#669, #670)), .UNSPECIFIED., .F., .F., .U., (2, 2), (2, 2), (0., 100.), (0., 40.), .UNSPECIFIED.);
#667 = CARTESIAN_POINT('', (-50., -30., -20.));
#668 = CARTESIAN_POINT('', (-50., -30., 20.));
#669 = CARTESIAN_POINT('', (50., -30., -20.));
#670 = CARTESIAN_POINT('', (50., -30., 20.));
#671 = ADVANCED_FACE('', (#672), #686, .F.);
#672 = FACE_OUTER_BOUND('', #673, .F.);
#673 = EDGE_LOOP('', (#674, #679, #680, #685));
#674 = ORIENTED_EDGE('', *, *, #675, .T.);
#675 = EDGE_CURVE('', #648, #584, #676, .T.);
#676 = B_SPLINE_CURVE_WITH_KNOTS('', 1, (#677, #678), .UNSPECIFIED., .F., .U., (2, 2), (0., 60.), .UNSPECIFIED.);
#677 = CARTESIAN_POINT('', (-50., -30., -20.));
#678 = CARTESIAN_POINT('', (-50., 30., -20.));
#679 = ORIENTED_EDGE('', *, *, #606, .T.);
#680 = ORIENTED_EDGE('', *, *, #681, .F.);
#681 = EDGE_CURVE('', #655, #600, #682, .T.);
#682 = B_SPLINE_CURVE_WITH_KNOTS('', 1, (#683, #684), .UNSPECIFIED., .F., .U., (2, 2), (0., 60.), .UNSPECIFIED.);
#683 = CARTESIAN_POINT('', (50., -30., -20.));
#684 = CARTESIAN_POINT('', (50., 30., -20.));
#685 = ORIENTED_EDGE('', *, *, #654, .F.);
#686 = B_SPLINE_SURFACE_WITH_KNOTS('', 1, 1, ((#687, #688), (#689, #690)), .UNSPECIFIED., .F., .F., .U., (2, 2), (2, 2), (0., 60.), (0., 100.), .UNSPECIFIED.);
#687 = CARTESIAN_POINT('', (-50., -30., -20.));
#688 = CARTESIAN_POINT('', (50., -30., -20.));
#689 = CARTESIAN_POINT('', (-50., 30., -20.));
#690 = CARTESIAN_POINT('', (50., 30., -20.));
#691 = ADVANCED_FACE('', (#692), #698, .F.);
#692 = FACE_OUTER_BOUND('', #693, .F.);
#693 = EDGE_LOOP('', (#694, #695, #696, #697));
#694 = ORIENTED_EDGE('', *, *, #661, .F.);
#695 = ORIENTED_EDGE('', *, *, #681, .T.);
#696 = ORIENTED_EDGE('', *, *, #599, .T.);
#697 = ORIENTED_EDGE('', *, *, #633, .F.);
#698 = B_SPLINE_SURFACE_WITH_KNOTS('', 1, 1, ((#699, #700), (#701, #702)), .UNSPECIFIED., .F., .F., .U., (2, 2), (2, 2), (0., 60.), (0., 40.), .UNSPECIFIED.);
#699 = CARTESIAN_POINT('', (50., -30., -20.));
#700 = CARTESIAN_POINT('', (50., -30., 20.));
#701 = CARTESIAN_POINT('', (50., 30., -20.));
#702 = CARTESIAN_POINT('', (50., 30., 20.));
#703 = ADVANCED_FACE('', (#704), #710, .F.);
#704 = FACE_OUTER_BOUND('', #705, .F.);
#705 = EDGE_LOOP('', (#706, #707, #708, #709));
#706 = ORIENTED_EDGE('', *, *, #647, .T.);
#707 = ORIENTED_EDGE('', *, *, #619, .T.);
#708 = ORIENTED_EDGE('', *, *, #583, .F.);
#709 = ORIENTED_EDGE('', *, *, #675, .F.);
#710 = B_SPLINE_SURFACE_WITH_KNOTS('', 1, 1, ((#711, #712), (#713, #714)), .UNSPECIFIED., .F., .F., .U., (2, 2), (2, 2), (0., 40.), (0., 60.), .UNSPECIFIED.);
#711 = CARTESIAN_POINT('', (-50., -30., -20.));
#712 = CARTESIAN_POINT('', (-50., 30., -20.));
#713 = CARTESIAN_POINT('', (-50., -30., 20.));
#714 = CARTESIAN_POINT('', (-50., 30., 20.));
#715 = CLOSED_SHELL('', (#716, #752, #780, #808, #828, #840));
#716 = ADVANCED_FACE('', (#717), #747, .F.);
#717 = FACE_OUTER_BOUND('', #718, .F.);
#718 = EDGE_LOOP('', (#719, #728, #735, #742));
#719 = ORIENTED_EDGE('', *, *, #720, .T.);
#720 = EDGE_CURVE('', #721, #723, #725, .T.);
#721 = VERTEX_POINT('', #722);
#722 = CARTESIAN_POINT('', (30., 50., -40.));
#723 = VERTEX_POINT('', #724);
#724 = CARTESIAN_POINT('', (30., 50., 40.));
#725 = B_SPLINE_CURVE_WITH_KNOTS('', 1, (#726, #727), .UNSPECIFIED., .F., .U., (2, 2), (0., 80.), .UNSPECIFIED.);
#726 = CARTESIAN_POINT('', (30., 50., -40.));
#727 = CARTESIAN_POINT('', (30., 50., 40.));
#728 = ORIENTED_EDGE('', *, *, #729, .T.);
#729 = EDGE_CURVE('', #723, #730, #732, .T.);
#730 = VERTEX_POINT('', #731);
#731 = CARTESIAN_POINT('', (90., 50., 40.));
#732 = B_SPLINE_CURVE_WITH_KNOTS('', 1, (#733, #734), .UNSPECIFIED., .F., .U., (2, 2), (0., 60.), .UNSPECIFIED.);
#733 = CARTESIAN_POINT('', (30., 50., 40.));
#734 = CARTESIAN_POINT('', (90., 50., 40.));
#735 = ORIENTED_EDGE('', *, *, #736, .F.);
#736 = EDGE_CURVE('', #737, #730, #739, .T.);
#737 = VERTEX_POINT('', #738);
#738 = CARTESIAN_POINT('', (90., 50., -40.));
#739 = B_SPLINE_CURVE_WITH_KNOTS('', 1, (#740, #741), .UNSPECIFIED., .F., .U., (2, 2), (0., 80.), .UNSPECIFIED.);
#740 = CARTESIAN_POINT('', (90., 50., -40.));
#741 = CARTESIAN_POINT('', (90., 50., 40.));
#742 = ORIENTED_EDGE('', *, *, #743, .F.);
#743 = EDGE_CURVE('', #721, #737, #744, .T.);
#744 = B_SPLINE_CURVE_WITH_KNOTS('', 1, (#745, #746), .UNSPECIFIED., .F., .U., (2, 2), (0., 60.), .UNSPECIFIED.);
#745 = CARTESIAN_POINT('', (30., 50., -40.));
#746 = CARTESIAN_POINT('', (90., 50., -40.));
#747 = B_SPLINE_SURFACE_WITH_KNOTS('', 1, 1, ((#748, #749), (#750, #751)), .UNSPECIFIED., .F., .F., .U., (2, 2), (2, 2), (0., 80.), (0., 60.), .UNSPECIFIED.);
#748 = CARTESIAN_POINT('', (30., 50., -40.));
#749 = CARTESIAN_POINT('', (90., 50., -40.));
#750 = CARTESIAN_POINT('', (30., 50., 40.));
#751 = CARTESIAN_POINT('', (90., 50., 40.));
#752 = ADVANCED_FACE('', (#753), #775, .F.);
#753 = FACE_OUTER_BOUND('', #754, .F.);
#754 = EDGE_LOOP('', (#755, #762, #769, #774));
#755 = ORIENTED_EDGE('', *, *, #756, .F.);
#756 = EDGE_CURVE('', #757, #723, #759, .T.);
#757 = VERTEX_POINT('', #758);
#758 = CARTESIAN_POINT('', (30., 10., 40.));
#759 = B_SPLINE_CURVE_WITH_KNOTS('', 1, (#760, #761), .UNSPECIFIED., .F., .U., (2, 2), (0., 40.), .UNSPECIFIED.);
#760 = CARTESIAN_POINT('', (30., 10., 40.));
#761 = CARTESIAN_POINT('', (30., 50., 40.));
#762 = ORIENTED_EDGE('', *, *, #763, .T.);
#763 = EDGE_CURVE('', #757, #764, #766, .T.);
#764 = VERTEX_POINT('', #765);
#765 = CARTESIAN_POINT('', (90., 10., 40.));
#766 = B_SPLINE_CURVE_WITH_KNOTS('', 1, (#767, #768), .UNSPECIFIED., .F., .U., (2, 2), (0., 60.), .UNSPECIFIED.);
#767 = CARTESIAN_POINT('', (30., 10., 40.));
#768 = CARTESIAN_POINT('', (90., 10., 40.));
#769 = ORIENTED_EDGE('', *, *, #770, .T.);
#770 = EDGE_CURVE('', #764, #730, #771, .T.);
#771 = B_SPLINE_CURVE_WITH_KNOTS('', 1, (#772, #773), .UNSPECIFIED., .F., .U., (2, 2), (0., 40.), .UNSPECIFIED.);
#772 = CARTESIAN_POINT('', (90., 10., 40.));
#773 = CARTESIAN_POINT('', (90., 50., 40.));
#774 = ORIENTED_EDGE('', *, *, #729, .F.);
#775 = B_SPLINE_SURFACE_WITH_KNOTS('', 1, 1, ((#776, #777), (#778, #779)), .UNSPECIFIED., .F., .F., .U., (2, 2), (2, 2), (0., 60.), (0., 40.), .UNSPECIFIED.);
#776 = CARTESIAN_POINT('', (30., 10., 40.));
#777 = CARTESIAN_POINT('', (30., 50., 40.));
#778 = CARTESIAN_POINT('', (90., 10., 40.));
#779 = CARTESIAN_POINT('', (90., 50., 40.));
#780 = ADVANCED_FACE('', (#781), #803, .F.);
#781 = FACE_OUTER_BOUND('', #782, .F.);
#782 = EDGE_LOOP('', (#783, #790, #797, #802));
#783 = ORIENTED_EDGE('', *, *, #784, .F.);
#784 = EDGE_CURVE('', #785, #757, #787, .T.);
#785 = VERTEX_POINT('', #786);
#786 = CARTESIAN_POINT('', (30., 10., -40.));
#787 = B_SPLINE_CURVE_WITH_KNOTS('', 1, (#788, #789), .UNSPECIFIED., .F., .U., (2, 2), (0., 80.), .UNSPECIFIED.);
#788 = CARTESIAN_POINT('', (30., 10., -40.));
#789 = CARTESIAN_POINT('', (30., 10., 40.));
#790 = ORIENTED_EDGE('', *, *, #791, .T.);
#791 = EDGE_CURVE('', #785, #792, #794, .T.);
#792 = VERTEX_POINT('', #793);
#793 = CARTESIAN_POINT('', (90., 10., -40.));
#794 = B_SPLINE_CURVE_WITH_KNOTS('', 1, (#795, #796), .UNSPECIFIED., .F., .U., (2, 2), (0., 60.), .UNSPECIFIED.);
#795 = CARTESIAN_POINT('', (30., 10., -40.));
#796 = CARTESIAN_POINT('', (90., 10., -40.));
#797 = ORIENTED_EDGE('', *, *, #798, .T.);
#798 = EDGE_CURVE('', #792, #764, #799, .T.);
#799 = B_SPLINE_CURVE_WITH_KNOTS('', 1, (#800, #801), .UNSPECIFIED., .F., .U., (2, 2), (0., 80.), .UNSPECIFIED.);
#800 = CARTESIAN_POINT('', (90., 10., -40.));
#801 = CARTESIAN_POINT('', (90., 10., 40.));
#802 = ORIENTED_EDGE('', *, *, #763, .F.);
#803 = B_SPLINE_SURFACE_WITH_KNOTS('', 1, 1, ((#804, #805), (#806, #807)), .UNSPECIFIED., .F., .F., .U., (2, 2), (2, 2), (0., 60.), (0., 80.), .UNSPECIFIED.);
#804 = CARTESIAN_POINT('', (30., 10., -40.));
#805 = CARTESIAN_POINT('', (30., 10., 40.));
#806 = CARTESIAN_POINT('', (90., 10., -40.));
#807 = CARTESIAN_POINT('', (90., 10., 40.));
#808 = ADVANCED_FACE('', (#809), #823, .F.);
#809 = FACE_OUTER_BOUND('', #810, .F.);
#810 = EDGE_LOOP('', (#811, #816, #817, #822));
#811 = ORIENTED_EDGE('', *, *, #812, .T.);
#812 = EDGE_CURVE('', #785, #721, #813, .T.);
#813 = B_SPLINE_CURVE_WITH_KNOTS('', 1, (#814, #815), .UNSPECIFIED., .F., .U., (2, 2), (0., 40.), .UNSPECIFIED.);
#814 = CARTESIAN_POINT('', (30., 10., -40.));
#815 = CARTESIAN_POINT('', (30., 50., -40.));
#816 = ORIENTED_EDGE('', *, *, #743, .T.);
#817 = ORIENTED_EDGE('', *, *, #818, .F.);
#818 = EDGE_CURVE('', #792, #737, #819, .T.);
#819 = B_SPLINE_CURVE_WITH_KNOTS('', 1, (#820, #821), .UNSPECIFIED., .F., .U., (2, 2), (0., 40.), .UNSPECIFIED.);
#820 = CARTESIAN_POINT('', (90., 10., -40.));
#821 = CARTESIAN_POINT('', (90., 50., -40.));
#822 = ORIENTED_EDGE('', *, *, #791, .F.);
#823 = B_SPLINE_SURFACE_WITH_KNOTS('', 1, 1, ((#824, #825), (#826, #827)), .UNSPECIFIED., .F., .F., .U., (2, 2), (2, 2), (0., 40.), (0., 60.), .UNSPECIFIED.);
#824 = CARTESIAN_POINT('', (30., 10., -40.));
#825 = CARTESIAN_POINT('', (90., 10., -40.));
#826 = CARTESIAN_POINT('', (30., 50., -40.));
#827 = CARTESIAN_POINT('', (90., 50., -40.));
#828 = ADVANCED_FACE('', (#829), #835, .F.);
#829 = FACE_OUTER_BOUND('', #830, .F.);
#830 = EDGE_LOOP('', (#831, #832, #833, #834));
#831 = ORIENTED_EDGE('', *, *, #798, .F.);
#832 = ORIENTED_EDGE('', *, *, #818, .T.);
#833 = ORIENTED_EDGE('', *, *, #736, .T.);
#834 = ORIENTED_EDGE('', *, *, #770, .F.);
#835 = B_SPLINE_SURFACE_WITH_KNOTS('', 1, 1, ((#836, #837), (#838, #839)), .UNSPECIFIED., .F., .F., .U., (2, 2), (2, 2), (0., 40.), (0., 80.), .UNSPECIFIED.);
#836 = CARTESIAN_POINT('', (90., 10., -40.));
#837 = CARTESIAN_POINT('', (90., 10., 40.));
#838 = CARTESIAN_POINT('', (90., 50., -40.));
#839 = CARTESIAN_POINT('', (90., 50., 40.));
#840 = ADVANCED_FACE('', (#841), #847, .F.);
#841 = FACE_OUTER_BOUND('', #842, .F.);
#842 = EDGE_LOOP('', (#843, #844, #845, #846));
#843 = ORIENTED_EDGE('', *, *, #784, .T.);
#844 = ORIENTED_EDGE('', *, *, #756, .T.);
#845 = ORIENTED_EDGE('', *, *, #720, .F.);
#846 = ORIENTED_EDGE('', *, *, #812, .F.);
#847 = B_SPLINE_SURFACE_WITH_KNOTS('', 1, 1, ((#848, #849), (#850, #851)), .UNSPECIFIED., .F., .F., .U., (2, 2), (2, 2), (0., 80.), (0., 40.), .UNSPECIFIED.);
#848 = CARTESIAN_POINT('', (30., 10., -40.));
#849 = CARTESIAN_POINT('', (30., 50., -40.));
#850 = CARTESIAN_POINT('', (30., 10., 40.));
#851 = CARTESIAN_POINT('', (30., 50., 40.));
#852 = PRESENTATION_STYLE_ASSIGNMENT((#853));
#853 = SURFACE_STYLE_USAGE(.POSITIVE., #854);
#854 = SURFACE_SIDE_STYLE('', (#855));
#855 = SURFACE_STYLE_FILL_AREA(#856);
#856 = FILL_AREA_STYLE('', (#857));
#857 = FILL_AREA_STYLE_COLOUR('', #858);
#858 = COLOUR_RGB('', 0.50196078431373, 0.50196078431373, 0.50196078431373);
#859 = STYLED_ITEM('', (#852), #577);
#860 = CARTESIAN_POINT('Origin', (0., 0., 0.));
#861 = GEOMETRIC_SET('', (#860));
#862 = (
   GEOMETRIC_REPRESENTATION_CONTEXT (3)
   GLOBAL_UNCERTAINTY_ASSIGNED_CONTEXT ((#864))
   GLOBAL_UNIT_ASSIGNED_CONTEXT ((#863, #865, #866))
   REPRESENTATION_CONTEXT ('', '3D')
);
#863 = (
   LENGTH_UNIT ()
   NAMED_UNIT (*)
   SI_UNIT (.MILLI., .METRE.)
);
#864 = UNCERTAINTY_MEASURE_WITH_UNIT(LENGTH_MEASURE(1.E-6), #863, 'DISTANCE_ACCURACY_VALUE', '');
#865 = (
   NAMED_UNIT (*)
   SI_UNIT ($, .STERADIAN.)
   SOLID_ANGLE_UNIT ()
);
#866 = (
   NAMED_UNIT (*)
   PLANE_ANGLE_UNIT ()
   SI_UNIT ($, .RADIAN.)
);
#867 = SHAPE_REPRESENTATION('', (#884), #862);
#868 = PRODUCT_DEFINITION_SHAPE('', '', #869);
#869 = PRODUCT_DEFINITION('', '', #872, #876);
#870 = APPLICATION_CONTEXT('configuration controlled 3D designs of mechanical parts and assemblies');
#871 = APPLICATION_PROTOCOL_DEFINITION('International Standard', 'automotive_design', 2002, #870);
#872 = PRODUCT_DEFINITION_FORMATION_WITH_SPECIFIED_SOURCE('', '', #873, .NOT_KNOWN.);
#873 = PRODUCT('KeepToolsRetest', 'KeepToolsRetest', '', (#874));
#874 = PRODUCT_CONTEXT('', #870, 'mechanical');
#875 = PRODUCT_RELATED_PRODUCT_CATEGORY('detail', '', (#873));
#876 = PRODUCT_DEFINITION_CONTEXT('part definition', #870, 'design');
#877 = SHAPE_DEFINITION_REPRESENTATION(#868, #867);
#878 = SHAPE_REPRESENTATION_RELATIONSHIP('', '', #867, #879);
#879 = SHAPE_REPRESENTATION('', (#861), #862);
#880 = SHAPE_REPRESENTATION_RELATIONSHIP('', '', #867, #881);
#881 = ADVANCED_BREP_SHAPE_REPRESENTATION('', (#285, #431), #862);
#882 = SHAPE_REPRESENTATION_RELATIONSHIP('', '', #867, #883);
#883 = MANIFOLD_SURFACE_SHAPE_REPRESENTATION('', (#1, #577), #862);
#884 = AXIS2_PLACEMENT_3D('', #885, #886, #887);
#885 = CARTESIAN_POINT('', (0., 0., 0.));
#886 = DIRECTION('', (0., 0., 1.));
#887 = DIRECTION('', (1., 0., 0.));
ENDSEC;
END-ISO-10303-21;
