ISO-10303-21;
HEADER;
FILE_DESCRIPTION(('STEP'), '1');
FILE_NAME('MirrorTest', '2026-04-15T11:07:06', (''), (''), 'Express 3.1.2.0', 'Express Tool', 'Unknown');
FILE_SCHEMA(('AUTOMOTIVE_DESIGN'));
ENDSEC;

DATA;
#1 = MANIFOLD_SOLID_BREP('Solid', #2);
#2 = CLOSED_SHELL('', (#3, #39, #75, #95, #115, #127));
#3 = ADVANCED_FACE('', (#4), #34, .F.);
#4 = FACE_OUTER_BOUND('', #5, .F.);
#5 = EDGE_LOOP('', (#6, #15, #22, #29));
#6 = ORIENTED_EDGE('', *, *, #7, .T.);
#7 = EDGE_CURVE('', #8, #10, #12, .T.);
#8 = VERTEX_POINT('', #9);
#9 = CARTESIAN_POINT('', (20., -10., -15.));
#10 = VERTEX_POINT('', #11);
#11 = CARTESIAN_POINT('', (20., 30., -15.));
#12 = B_SPLINE_CURVE_WITH_KNOTS('', 1, (#13, #14), .UNSPECIFIED., .F., .U., (2, 2), (0., 40.), .UNSPECIFIED.);
#13 = CARTESIAN_POINT('', (20., -10., -15.));
#14 = CARTESIAN_POINT('', (20., 30., -15.));
#15 = ORIENTED_EDGE('', *, *, #16, .T.);
#16 = EDGE_CURVE('', #10, #17, #19, .T.);
#17 = VERTEX_POINT('', #18);
#18 = CARTESIAN_POINT('', (-60., 30., -15.));
#19 = B_SPLINE_CURVE_WITH_KNOTS('', 1, (#20, #21), .UNSPECIFIED., .F., .U., (2, 2), (0., 80.), .UNSPECIFIED.);
#20 = CARTESIAN_POINT('', (20., 30., -15.));
#21 = CARTESIAN_POINT('', (-60., 30., -15.));
#22 = ORIENTED_EDGE('', *, *, #23, .F.);
#23 = EDGE_CURVE('', #24, #17, #26, .T.);
#24 = VERTEX_POINT('', #25);
#25 = CARTESIAN_POINT('', (-60., -10., -15.));
#26 = B_SPLINE_CURVE_WITH_KNOTS('', 1, (#27, #28), .UNSPECIFIED., .F., .U., (2, 2), (0., 40.), .UNSPECIFIED.);
#27 = CARTESIAN_POINT('', (-60., -10., -15.));
#28 = CARTESIAN_POINT('', (-60., 30., -15.));
#29 = ORIENTED_EDGE('', *, *, #30, .F.);
#30 = EDGE_CURVE('', #8, #24, #31, .T.);
#31 = B_SPLINE_CURVE_WITH_KNOTS('', 1, (#32, #33), .UNSPECIFIED., .F., .U., (2, 2), (0., 80.), .UNSPECIFIED.);
#32 = CARTESIAN_POINT('', (20., -10., -15.));
#33 = CARTESIAN_POINT('', (-60., -10., -15.));
#34 = B_SPLINE_SURFACE_WITH_KNOTS('', 1, 1, ((#35, #36), (#37, #38)), .UNSPECIFIED., .F., .F., .U., (2, 2), (2, 2), (0., 40.), (0., 80.), .UNSPECIFIED.);
#35 = CARTESIAN_POINT('', (20., -10., -15.));
#36 = CARTESIAN_POINT('', (-60., -10., -15.));
#37 = CARTESIAN_POINT('', (20., 30., -15.));
#38 = CARTESIAN_POINT('', (-60., 30., -15.));
#39 = ADVANCED_FACE('', (#40), #70, .F.);
#40 = FACE_OUTER_BOUND('', #41, .F.);
#41 = EDGE_LOOP('', (#42, #51, #58, #65));
#42 = ORIENTED_EDGE('', *, *, #43, .F.);
#43 = EDGE_CURVE('', #44, #46, #48, .T.);
#44 = VERTEX_POINT('', #45);
#45 = CARTESIAN_POINT('', (20., -10., 15.));
#46 = VERTEX_POINT('', #47);
#47 = CARTESIAN_POINT('', (20., 30., 15.));
#48 = B_SPLINE_CURVE_WITH_KNOTS('', 1, (#49, #50), .UNSPECIFIED., .F., .U., (2, 2), (0., 40.), .UNSPECIFIED.);
#49 = CARTESIAN_POINT('', (20., -10., 15.));
#50 = CARTESIAN_POINT('', (20., 30., 15.));
#51 = ORIENTED_EDGE('', *, *, #52, .T.);
#52 = EDGE_CURVE('', #44, #53, #55, .T.);
#53 = VERTEX_POINT('', #54);
#54 = CARTESIAN_POINT('', (-60., -10., 15.));
#55 = B_SPLINE_CURVE_WITH_KNOTS('', 1, (#56, #57), .UNSPECIFIED., .F., .U., (2, 2), (0., 80.), .UNSPECIFIED.);
#56 = CARTESIAN_POINT('', (20., -10., 15.));
#57 = CARTESIAN_POINT('', (-60., -10., 15.));
#58 = ORIENTED_EDGE('', *, *, #59, .T.);
#59 = EDGE_CURVE('', #53, #60, #62, .T.);
#60 = VERTEX_POINT('', #61);
#61 = CARTESIAN_POINT('', (-60., 30., 15.));
#62 = B_SPLINE_CURVE_WITH_KNOTS('', 1, (#63, #64), .UNSPECIFIED., .F., .U., (2, 2), (0., 40.), .UNSPECIFIED.);
#63 = CARTESIAN_POINT('', (-60., -10., 15.));
#64 = CARTESIAN_POINT('', (-60., 30., 15.));
#65 = ORIENTED_EDGE('', *, *, #66, .F.);
#66 = EDGE_CURVE('', #46, #60, #67, .T.);
#67 = B_SPLINE_CURVE_WITH_KNOTS('', 1, (#68, #69), .UNSPECIFIED., .F., .U., (2, 2), (0., 80.), .UNSPECIFIED.);
#68 = CARTESIAN_POINT('', (20., 30., 15.));
#69 = CARTESIAN_POINT('', (-60., 30., 15.));
#70 = B_SPLINE_SURFACE_WITH_KNOTS('', 1, 1, ((#71, #72), (#73, #74)), .UNSPECIFIED., .F., .F., .U., (2, 2), (2, 2), (0., 80.), (0., 40.), .UNSPECIFIED.);
#71 = CARTESIAN_POINT('', (20., -10., 15.));
#72 = CARTESIAN_POINT('', (20., 30., 15.));
#73 = CARTESIAN_POINT('', (-60., -10., 15.));
#74 = CARTESIAN_POINT('', (-60., 30., 15.));
#75 = ADVANCED_FACE('', (#76), #90, .F.);
#76 = FACE_OUTER_BOUND('', #77, .F.);
#77 = EDGE_LOOP('', (#78, #83, #84, #89));
#78 = ORIENTED_EDGE('', *, *, #79, .T.);
#79 = EDGE_CURVE('', #8, #44, #80, .T.);
#80 = B_SPLINE_CURVE_WITH_KNOTS('', 1, (#81, #82), .UNSPECIFIED., .F., .U., (2, 2), (0., 30.), .UNSPECIFIED.);
#81 = CARTESIAN_POINT('', (20., -10., -15.));
#82 = CARTESIAN_POINT('', (20., -10., 15.));
#83 = ORIENTED_EDGE('', *, *, #43, .T.);
#84 = ORIENTED_EDGE('', *, *, #85, .F.);
#85 = EDGE_CURVE('', #10, #46, #86, .T.);
#86 = B_SPLINE_CURVE_WITH_KNOTS('', 1, (#87, #88), .UNSPECIFIED., .F., .U., (2, 2), (0., 30.), .UNSPECIFIED.);
#87 = CARTESIAN_POINT('', (20., 30., -15.));
#88 = CARTESIAN_POINT('', (20., 30., 15.));
#89 = ORIENTED_EDGE('', *, *, #7, .F.);
#90 = B_SPLINE_SURFACE_WITH_KNOTS('', 1, 1, ((#91, #92), (#93, #94)), .UNSPECIFIED., .F., .F., .U., (2, 2), (2, 2), (0., 30.), (0., 40.), .UNSPECIFIED.);
#91 = CARTESIAN_POINT('', (20., -10., -15.));
#92 = CARTESIAN_POINT('', (20., 30., -15.));
#93 = CARTESIAN_POINT('', (20., -10., 15.));
#94 = CARTESIAN_POINT('', (20., 30., 15.));
#95 = ADVANCED_FACE('', (#96), #110, .F.);
#96 = FACE_OUTER_BOUND('', #97, .F.);
#97 = EDGE_LOOP('', (#98, #103, #104, #109));
#98 = ORIENTED_EDGE('', *, *, #99, .F.);
#99 = EDGE_CURVE('', #24, #53, #100, .T.);
#100 = B_SPLINE_CURVE_WITH_KNOTS('', 1, (#101, #102), .UNSPECIFIED., .F., .U., (2, 2), (0., 30.), .UNSPECIFIED.);
#101 = CARTESIAN_POINT('', (-60., -10., -15.));
#102 = CARTESIAN_POINT('', (-60., -10., 15.));
#103 = ORIENTED_EDGE('', *, *, #23, .T.);
#104 = ORIENTED_EDGE('', *, *, #105, .T.);
#105 = EDGE_CURVE('', #17, #60, #106, .T.);
#106 = B_SPLINE_CURVE_WITH_KNOTS('', 1, (#107, #108), .UNSPECIFIED., .F., .U., (2, 2), (0., 30.), .UNSPECIFIED.);
#107 = CARTESIAN_POINT('', (-60., 30., -15.));
#108 = CARTESIAN_POINT('', (-60., 30., 15.));
#109 = ORIENTED_EDGE('', *, *, #59, .F.);
#110 = B_SPLINE_SURFACE_WITH_KNOTS('', 1, 1, ((#111, #112), (#113, #114)), .UNSPECIFIED., .F., .F., .U., (2, 2), (2, 2), (0., 40.), (0., 30.), .UNSPECIFIED.);
#111 = CARTESIAN_POINT('', (-60., -10., -15.));
#112 = CARTESIAN_POINT('', (-60., -10., 15.));
#113 = CARTESIAN_POINT('', (-60., 30., -15.));
#114 = CARTESIAN_POINT('', (-60., 30., 15.));
#115 = ADVANCED_FACE('', (#116), #122, .F.);
#116 = FACE_OUTER_BOUND('', #117, .F.);
#117 = EDGE_LOOP('', (#118, #119, #120, #121));
#118 = ORIENTED_EDGE('', *, *, #79, .F.);
#119 = ORIENTED_EDGE('', *, *, #30, .T.);
#120 = ORIENTED_EDGE('', *, *, #99, .T.);
#121 = ORIENTED_EDGE('', *, *, #52, .F.);
#122 = B_SPLINE_SURFACE_WITH_KNOTS('', 1, 1, ((#123, #124), (#125, #126)), .UNSPECIFIED., .F., .F., .U., (2, 2), (2, 2), (0., 80.), (0., 30.), .UNSPECIFIED.);
#123 = CARTESIAN_POINT('', (20., -10., -15.));
#124 = CARTESIAN_POINT('', (20., -10., 15.));
#125 = CARTESIAN_POINT('', (-60., -10., -15.));
#126 = CARTESIAN_POINT('', (-60., -10., 15.));
#127 = ADVANCED_FACE('', (#128), #134, .F.);
#128 = FACE_OUTER_BOUND('', #129, .F.);
#129 = EDGE_LOOP('', (#130, #131, #132, #133));
#130 = ORIENTED_EDGE('', *, *, #85, .T.);
#131 = ORIENTED_EDGE('', *, *, #66, .T.);
#132 = ORIENTED_EDGE('', *, *, #105, .F.);
#133 = ORIENTED_EDGE('', *, *, #16, .F.);
#134 = B_SPLINE_SURFACE_WITH_KNOTS('', 1, 1, ((#135, #136), (#137, #138)), .UNSPECIFIED., .F., .F., .U., (2, 2), (2, 2), (0., 30.), (0., 80.), .UNSPECIFIED.);
#135 = CARTESIAN_POINT('', (20., 30., -15.));
#136 = CARTESIAN_POINT('', (-60., 30., -15.));
#137 = CARTESIAN_POINT('', (20., 30., 15.));
#138 = CARTESIAN_POINT('', (-60., 30., 15.));
#139 = DRAUGHTING_MODEL('', (#147, #231, #377), #380);
#140 = PRESENTATION_STYLE_ASSIGNMENT((#141));
#141 = SURFACE_STYLE_USAGE(.POSITIVE., #142);
#142 = SURFACE_SIDE_STYLE('', (#143));
#143 = SURFACE_STYLE_FILL_AREA(#144);
#144 = FILL_AREA_STYLE('', (#145));
#145 = FILL_AREA_STYLE_COLOUR('', #146);
#146 = COLOUR_RGB('', 0.50196078431373, 0.50196078431373, 0.50196078431373);
#147 = STYLED_ITEM('', (#140), #1);
#148 = MANIFOLD_SOLID_BREP('Solid0', #149);
#149 = CLOSED_SHELL('', (#150, #206, #215));
#150 = ADVANCED_FACE('', (#151), #187, .T.);
#151 = FACE_OUTER_BOUND('', #152, .T.);
#152 = EDGE_LOOP('', (#153, #162, #174, #175));
#153 = ORIENTED_EDGE('', *, *, #154, .F.);
#154 = EDGE_CURVE('', #155, #157, #159, .T.);
#155 = VERTEX_POINT('', #156);
#156 = CARTESIAN_POINT('', (4., 0., -5.));
#157 = VERTEX_POINT('', #158);
#158 = CARTESIAN_POINT('', (4., 0., 5.));
#159 = B_SPLINE_CURVE_WITH_KNOTS('', 1, (#160, #161), .UNSPECIFIED., .F., .U., (2, 2), (0., 10.), .UNSPECIFIED.);
#160 = CARTESIAN_POINT('', (4., 0., -5.));
#161 = CARTESIAN_POINT('', (4., 0., 5.));
#162 = ORIENTED_EDGE('', *, *, #163, .T.);
#163 = EDGE_CURVE('', #155, #155, #164, .T.);
#164 = (
   BOUNDED_CURVE ()
   B_SPLINE_CURVE (2, (#165, #166, #167, #168, #169, #170, #171, #172, #173), .UNSPECIFIED., .T., .U.)
   B_SPLINE_CURVE_WITH_KNOTS ((3, 2, 2, 2, 3), (0., 6.28318530717959, 12.5663706143592, 18.8495559215388, 25.1327412287183), .UNSPECIFIED.)
   CURVE ()
   GEOMETRIC_REPRESENTATION_ITEM ()
   RATIONAL_B_SPLINE_CURVE ((1., 0.707106781186548, 1., 0.707106781186548, 1., 0.707106781186548, 1., 0.707106781186548, 1.))
   REPRESENTATION_ITEM ('')
);
#165 = CARTESIAN_POINT('', (4., 0., -5.));
#166 = CARTESIAN_POINT('', (4., 4., -5.));
#167 = CARTESIAN_POINT('', (2.44929359829471E-16, 4., -5.));
#168 = CARTESIAN_POINT('', (-4., 4., -5.));
#169 = CARTESIAN_POINT('', (-4., 4.89858719658941E-16, -5.));
#170 = CARTESIAN_POINT('', (-4., -4., -5.));
#171 = CARTESIAN_POINT('', (-7.34788079488412E-16, -4., -5.));
#172 = CARTESIAN_POINT('', (4., -4., -5.));
#173 = CARTESIAN_POINT('', (4., 0., -5.));
#174 = ORIENTED_EDGE('', *, *, #154, .T.);
#175 = ORIENTED_EDGE('', *, *, #176, .F.);
#176 = EDGE_CURVE('', #157, #157, #177, .T.);
#177 = (
   BOUNDED_CURVE ()
   B_SPLINE_CURVE (2, (#178, #179, #180, #181, #182, #183, #184, #185, #186), .UNSPECIFIED., .T., .U.)
   B_SPLINE_CURVE_WITH_KNOTS ((3, 2, 2, 2, 3), (0., 6.28318530717959, 12.5663706143592, 18.8495559215388, 25.1327412287183), .UNSPECIFIED.)
   CURVE ()
   GEOMETRIC_REPRESENTATION_ITEM ()
   RATIONAL_B_SPLINE_CURVE ((1., 0.707106781186548, 1., 0.707106781186548, 1., 0.707106781186548, 1., 0.707106781186548, 1.))
   REPRESENTATION_ITEM ('')
);
#178 = CARTESIAN_POINT('', (4., 0., 5.));
#179 = CARTESIAN_POINT('', (4., 4., 5.));
#180 = CARTESIAN_POINT('', (2.44929359829471E-16, 4., 5.));
#181 = CARTESIAN_POINT('', (-4., 4., 5.));
#182 = CARTESIAN_POINT('', (-4., 4.89858719658941E-16, 5.));
#183 = CARTESIAN_POINT('', (-4., -4., 5.));
#184 = CARTESIAN_POINT('', (-7.34788079488412E-16, -4., 5.));
#185 = CARTESIAN_POINT('', (4., -4., 5.));
#186 = CARTESIAN_POINT('', (4., 0., 5.));
#187 = (
   BOUNDED_SURFACE ()
   B_SPLINE_SURFACE (2, 1, ((#188, #189), (#190, #191), (#192, #193), (#194, #195), (#196, #197), (#198, #199), (#200, #201), (#202, #203), (#204, #205)), .UNSPECIFIED., .T., .F., .U.)
   B_SPLINE_SURFACE_WITH_KNOTS ((3, 2, 2, 2, 3), (2, 2), (0., 6.28318530717959, 12.5663706143592, 18.8495559215388, 25.1327412287183), (0., 10.), .UNSPECIFIED.)
   GEOMETRIC_REPRESENTATION_ITEM ()
   RATIONAL_B_SPLINE_SURFACE (((1., 1.), (0.707106781186548, 0.707106781186548), (1., 1.), (0.707106781186548, 0.707106781186548), (1., 1.), (0.707106781186548, 0.707106781186548), (1., 1.), (0.707106781186548, 0.707106781186548), (1., 1.)))
   REPRESENTATION_ITEM ('')
   SURFACE ()
);
#188 = CARTESIAN_POINT('', (4., 0., -5.));
#189 = CARTESIAN_POINT('', (4., 0., 5.));
#190 = CARTESIAN_POINT('', (4., 4., -5.));
#191 = CARTESIAN_POINT('', (4., 4., 5.));
#192 = CARTESIAN_POINT('', (2.44929359829471E-16, 4., -5.));
#193 = CARTESIAN_POINT('', (2.44929359829471E-16, 4., 5.));
#194 = CARTESIAN_POINT('', (-4., 4., -5.));
#195 = CARTESIAN_POINT('', (-4., 4., 5.));
#196 = CARTESIAN_POINT('', (-4., 4.89858719658941E-16, -5.));
#197 = CARTESIAN_POINT('', (-4., 4.89858719658941E-16, 5.));
#198 = CARTESIAN_POINT('', (-4., -4., -5.));
#199 = CARTESIAN_POINT('', (-4., -4., 5.));
#200 = CARTESIAN_POINT('', (-7.34788079488412E-16, -4., -5.));
#201 = CARTESIAN_POINT('', (-7.34788079488412E-16, -4., 5.));
#202 = CARTESIAN_POINT('', (4., -4., -5.));
#203 = CARTESIAN_POINT('', (4., -4., 5.));
#204 = CARTESIAN_POINT('', (4., 0., -5.));
#205 = CARTESIAN_POINT('', (4., 0., 5.));
#206 = ADVANCED_FACE('', (#207), #210, .T.);
#207 = FACE_OUTER_BOUND('', #208, .T.);
#208 = EDGE_LOOP('', (#209));
#209 = ORIENTED_EDGE('', *, *, #163, .F.);
#210 = B_SPLINE_SURFACE_WITH_KNOTS('', 1, 1, ((#211, #212), (#213, #214)), .UNSPECIFIED., .F., .F., .U., (2, 2), (2, 2), (0., 1.), (0., 1.), .UNSPECIFIED.);
#211 = CARTESIAN_POINT('', (6.22253967444162, -6.22253967444162, -5.));
#212 = CARTESIAN_POINT('', (6.22253967444162, 6.22253967444162, -5.));
#213 = CARTESIAN_POINT('', (-6.22253967444162, -6.22253967444162, -5.));
#214 = CARTESIAN_POINT('', (-6.22253967444162, 6.22253967444162, -5.));
#215 = ADVANCED_FACE('', (#216), #219, .T.);
#216 = FACE_OUTER_BOUND('', #217, .T.);
#217 = EDGE_LOOP('', (#218));
#218 = ORIENTED_EDGE('', *, *, #176, .T.);
#219 = B_SPLINE_SURFACE_WITH_KNOTS('', 1, 1, ((#220, #221), (#222, #223)), .UNSPECIFIED., .F., .F., .U., (2, 2), (2, 2), (0., 1.), (0., 1.), .UNSPECIFIED.);
#220 = CARTESIAN_POINT('', (6.22253967444162, -6.22253967444162, 5.));
#221 = CARTESIAN_POINT('', (-6.22253967444162, -6.22253967444162, 5.));
#222 = CARTESIAN_POINT('', (6.22253967444162, 6.22253967444162, 5.));
#223 = CARTESIAN_POINT('', (-6.22253967444162, 6.22253967444162, 5.));
#224 = PRESENTATION_STYLE_ASSIGNMENT((#225));
#225 = SURFACE_STYLE_USAGE(.POSITIVE., #226);
#226 = SURFACE_SIDE_STYLE('', (#227));
#227 = SURFACE_STYLE_FILL_AREA(#228);
#228 = FILL_AREA_STYLE('', (#229));
#229 = FILL_AREA_STYLE_COLOUR('', #230);
#230 = COLOUR_RGB('', 0.50196078431373, 0.50196078431373, 0.50196078431373);
#231 = STYLED_ITEM('', (#224), #148);
#232 = MANIFOLD_SOLID_BREP('Solid1', #233);
#233 = CLOSED_SHELL('', (#234, #270, #298, #326, #346, #358));
#234 = ADVANCED_FACE('', (#235), #265, .T.);
#235 = FACE_OUTER_BOUND('', #236, .T.);
#236 = EDGE_LOOP('', (#237, #246, #253, #260));
#237 = ORIENTED_EDGE('', *, *, #238, .T.);
#238 = EDGE_CURVE('', #239, #241, #243, .T.);
#239 = VERTEX_POINT('', #240);
#240 = CARTESIAN_POINT('', (-0.5, 0.5, -0.5));
#241 = VERTEX_POINT('', #242);
#242 = CARTESIAN_POINT('', (-0.5, 0.5, 0.5));
#243 = B_SPLINE_CURVE_WITH_KNOTS('', 1, (#244, #245), .UNSPECIFIED., .F., .U., (2, 2), (0., 1.), .UNSPECIFIED.);
#244 = CARTESIAN_POINT('', (-0.5, 0.5, -0.5));
#245 = CARTESIAN_POINT('', (-0.5, 0.5, 0.5));
#246 = ORIENTED_EDGE('', *, *, #247, .T.);
#247 = EDGE_CURVE('', #241, #248, #250, .T.);
#248 = VERTEX_POINT('', #249);
#249 = CARTESIAN_POINT('', (0.5, 0.5, 0.5));
#250 = B_SPLINE_CURVE_WITH_KNOTS('', 1, (#251, #252), .UNSPECIFIED., .F., .U., (2, 2), (0., 1.), .UNSPECIFIED.);
#251 = CARTESIAN_POINT('', (-0.5, 0.5, 0.5));
#252 = CARTESIAN_POINT('', (0.5, 0.5, 0.5));
#253 = ORIENTED_EDGE('', *, *, #254, .F.);
#254 = EDGE_CURVE('', #255, #248, #257, .T.);
#255 = VERTEX_POINT('', #256);
#256 = CARTESIAN_POINT('', (0.5, 0.5, -0.5));
#257 = B_SPLINE_CURVE_WITH_KNOTS('', 1, (#258, #259), .UNSPECIFIED., .F., .U., (2, 2), (0., 1.), .UNSPECIFIED.);
#258 = CARTESIAN_POINT('', (0.5, 0.5, -0.5));
#259 = CARTESIAN_POINT('', (0.5, 0.5, 0.5));
#260 = ORIENTED_EDGE('', *, *, #261, .F.);
#261 = EDGE_CURVE('', #239, #255, #262, .T.);
#262 = B_SPLINE_CURVE_WITH_KNOTS('', 1, (#263, #264), .UNSPECIFIED., .F., .U., (2, 2), (0., 1.), .UNSPECIFIED.);
#263 = CARTESIAN_POINT('', (-0.5, 0.5, -0.5));
#264 = CARTESIAN_POINT('', (0.5, 0.5, -0.5));
#265 = B_SPLINE_SURFACE_WITH_KNOTS('', 1, 1, ((#266, #267), (#268, #269)), .UNSPECIFIED., .F., .F., .U., (2, 2), (2, 2), (0., 1.), (0., 1.), .UNSPECIFIED.);
#266 = CARTESIAN_POINT('', (-0.5, 0.5, -0.5));
#267 = CARTESIAN_POINT('', (0.5, 0.5, -0.5));
#268 = CARTESIAN_POINT('', (-0.5, 0.5, 0.5));
#269 = CARTESIAN_POINT('', (0.5, 0.5, 0.5));
#270 = ADVANCED_FACE('', (#271), #293, .T.);
#271 = FACE_OUTER_BOUND('', #272, .T.);
#272 = EDGE_LOOP('', (#273, #280, #287, #292));
#273 = ORIENTED_EDGE('', *, *, #274, .F.);
#274 = EDGE_CURVE('', #275, #241, #277, .T.);
#275 = VERTEX_POINT('', #276);
#276 = CARTESIAN_POINT('', (-0.5, -0.5, 0.5));
#277 = B_SPLINE_CURVE_WITH_KNOTS('', 1, (#278, #279), .UNSPECIFIED., .F., .U., (2, 2), (0., 1.), .UNSPECIFIED.);
#278 = CARTESIAN_POINT('', (-0.5, -0.5, 0.5));
#279 = CARTESIAN_POINT('', (-0.5, 0.5, 0.5));
#280 = ORIENTED_EDGE('', *, *, #281, .T.);
#281 = EDGE_CURVE('', #275, #282, #284, .T.);
#282 = VERTEX_POINT('', #283);
#283 = CARTESIAN_POINT('', (0.5, -0.5, 0.5));
#284 = B_SPLINE_CURVE_WITH_KNOTS('', 1, (#285, #286), .UNSPECIFIED., .F., .U., (2, 2), (0., 1.), .UNSPECIFIED.);
#285 = CARTESIAN_POINT('', (-0.5, -0.5, 0.5));
#286 = CARTESIAN_POINT('', (0.5, -0.5, 0.5));
#287 = ORIENTED_EDGE('', *, *, #288, .T.);
#288 = EDGE_CURVE('', #282, #248, #289, .T.);
#289 = B_SPLINE_CURVE_WITH_KNOTS('', 1, (#290, #291), .UNSPECIFIED., .F., .U., (2, 2), (0., 1.), .UNSPECIFIED.);
#290 = CARTESIAN_POINT('', (0.5, -0.5, 0.5));
#291 = CARTESIAN_POINT('', (0.5, 0.5, 0.5));
#292 = ORIENTED_EDGE('', *, *, #247, .F.);
#293 = B_SPLINE_SURFACE_WITH_KNOTS('', 1, 1, ((#294, #295), (#296, #297)), .UNSPECIFIED., .F., .F., .U., (2, 2), (2, 2), (0., 1.), (0., 1.), .UNSPECIFIED.);
#294 = CARTESIAN_POINT('', (-0.5, -0.5, 0.5));
#295 = CARTESIAN_POINT('', (-0.5, 0.5, 0.5));
#296 = CARTESIAN_POINT('', (0.5, -0.5, 0.5));
#297 = CARTESIAN_POINT('', (0.5, 0.5, 0.5));
#298 = ADVANCED_FACE('', (#299), #321, .T.);
#299 = FACE_OUTER_BOUND('', #300, .T.);
#300 = EDGE_LOOP('', (#301, #308, #315, #320));
#301 = ORIENTED_EDGE('', *, *, #302, .F.);
#302 = EDGE_CURVE('', #303, #275, #305, .T.);
#303 = VERTEX_POINT('', #304);
#304 = CARTESIAN_POINT('', (-0.5, -0.5, -0.5));
#305 = B_SPLINE_CURVE_WITH_KNOTS('', 1, (#306, #307), .UNSPECIFIED., .F., .U., (2, 2), (0., 1.), .UNSPECIFIED.);
#306 = CARTESIAN_POINT('', (-0.5, -0.5, -0.5));
#307 = CARTESIAN_POINT('', (-0.5, -0.5, 0.5));
#308 = ORIENTED_EDGE('', *, *, #309, .T.);
#309 = EDGE_CURVE('', #303, #310, #312, .T.);
#310 = VERTEX_POINT('', #311);
#311 = CARTESIAN_POINT('', (0.5, -0.5, -0.5));
#312 = B_SPLINE_CURVE_WITH_KNOTS('', 1, (#313, #314), .UNSPECIFIED., .F., .U., (2, 2), (0., 1.), .UNSPECIFIED.);
#313 = CARTESIAN_POINT('', (-0.5, -0.5, -0.5));
#314 = CARTESIAN_POINT('', (0.5, -0.5, -0.5));
#315 = ORIENTED_EDGE('', *, *, #316, .T.);
#316 = EDGE_CURVE('', #310, #282, #317, .T.);
#317 = B_SPLINE_CURVE_WITH_KNOTS('', 1, (#318, #319), .UNSPECIFIED., .F., .U., (2, 2), (0., 1.), .UNSPECIFIED.);
#318 = CARTESIAN_POINT('', (0.5, -0.5, -0.5));
#319 = CARTESIAN_POINT('', (0.5, -0.5, 0.5));
#320 = ORIENTED_EDGE('', *, *, #281, .F.);
#321 = B_SPLINE_SURFACE_WITH_KNOTS('', 1, 1, ((#322, #323), (#324, #325)), .UNSPECIFIED., .F., .F., .U., (2, 2), (2, 2), (0., 1.), (0., 1.), .UNSPECIFIED.);
#322 = CARTESIAN_POINT('', (-0.5, -0.5, -0.5));
#323 = CARTESIAN_POINT('', (-0.5, -0.5, 0.5));
#324 = CARTESIAN_POINT('', (0.5, -0.5, -0.5));
#325 = CARTESIAN_POINT('', (0.5, -0.5, 0.5));
#326 = ADVANCED_FACE('', (#327), #341, .T.);
#327 = FACE_OUTER_BOUND('', #328, .T.);
#328 = EDGE_LOOP('', (#329, #334, #335, #340));
#329 = ORIENTED_EDGE('', *, *, #330, .T.);
#330 = EDGE_CURVE('', #303, #239, #331, .T.);
#331 = B_SPLINE_CURVE_WITH_KNOTS('', 1, (#332, #333), .UNSPECIFIED., .F., .U., (2, 2), (0., 1.), .UNSPECIFIED.);
#332 = CARTESIAN_POINT('', (-0.5, -0.5, -0.5));
#333 = CARTESIAN_POINT('', (-0.5, 0.5, -0.5));
#334 = ORIENTED_EDGE('', *, *, #261, .T.);
#335 = ORIENTED_EDGE('', *, *, #336, .F.);
#336 = EDGE_CURVE('', #310, #255, #337, .T.);
#337 = B_SPLINE_CURVE_WITH_KNOTS('', 1, (#338, #339), .UNSPECIFIED., .F., .U., (2, 2), (0., 1.), .UNSPECIFIED.);
#338 = CARTESIAN_POINT('', (0.5, -0.5, -0.5));
#339 = CARTESIAN_POINT('', (0.5, 0.5, -0.5));
#340 = ORIENTED_EDGE('', *, *, #309, .F.);
#341 = B_SPLINE_SURFACE_WITH_KNOTS('', 1, 1, ((#342, #343), (#344, #345)), .UNSPECIFIED., .F., .F., .U., (2, 2), (2, 2), (0., 1.), (0., 1.), .UNSPECIFIED.);
#342 = CARTESIAN_POINT('', (-0.5, -0.5, -0.5));
#343 = CARTESIAN_POINT('', (0.5, -0.5, -0.5));
#344 = CARTESIAN_POINT('', (-0.5, 0.5, -0.5));
#345 = CARTESIAN_POINT('', (0.5, 0.5, -0.5));
#346 = ADVANCED_FACE('', (#347), #353, .T.);
#347 = FACE_OUTER_BOUND('', #348, .T.);
#348 = EDGE_LOOP('', (#349, #350, #351, #352));
#349 = ORIENTED_EDGE('', *, *, #316, .F.);
#350 = ORIENTED_EDGE('', *, *, #336, .T.);
#351 = ORIENTED_EDGE('', *, *, #254, .T.);
#352 = ORIENTED_EDGE('', *, *, #288, .F.);
#353 = B_SPLINE_SURFACE_WITH_KNOTS('', 1, 1, ((#354, #355), (#356, #357)), .UNSPECIFIED., .F., .F., .U., (2, 2), (2, 2), (0., 1.), (0., 1.), .UNSPECIFIED.);
#354 = CARTESIAN_POINT('', (0.5, -0.5, -0.5));
#355 = CARTESIAN_POINT('', (0.5, -0.5, 0.5));
#356 = CARTESIAN_POINT('', (0.5, 0.5, -0.5));
#357 = CARTESIAN_POINT('', (0.5, 0.5, 0.5));
#358 = ADVANCED_FACE('', (#359), #365, .T.);
#359 = FACE_OUTER_BOUND('', #360, .T.);
#360 = EDGE_LOOP('', (#361, #362, #363, #364));
#361 = ORIENTED_EDGE('', *, *, #302, .T.);
#362 = ORIENTED_EDGE('', *, *, #274, .T.);
#363 = ORIENTED_EDGE('', *, *, #238, .F.);
#364 = ORIENTED_EDGE('', *, *, #330, .F.);
#365 = B_SPLINE_SURFACE_WITH_KNOTS('', 1, 1, ((#366, #367), (#368, #369)), .UNSPECIFIED., .F., .F., .U., (2, 2), (2, 2), (0., 1.), (0., 1.), .UNSPECIFIED.);
#366 = CARTESIAN_POINT('', (-0.5, -0.5, -0.5));
#367 = CARTESIAN_POINT('', (-0.5, 0.5, -0.5));
#368 = CARTESIAN_POINT('', (-0.5, -0.5, 0.5));
#369 = CARTESIAN_POINT('', (-0.5, 0.5, 0.5));
#370 = PRESENTATION_STYLE_ASSIGNMENT((#371));
#371 = SURFACE_STYLE_USAGE(.POSITIVE., #372);
#372 = SURFACE_SIDE_STYLE('', (#373));
#373 = SURFACE_STYLE_FILL_AREA(#374);
#374 = FILL_AREA_STYLE('', (#375));
#375 = FILL_AREA_STYLE_COLOUR('', #376);
#376 = COLOUR_RGB('', 0.50196078431373, 0.50196078431373, 0.50196078431373);
#377 = STYLED_ITEM('', (#370), #232);
#378 = CARTESIAN_POINT('Origin', (0., 0., 0.));
#379 = GEOMETRIC_SET('', (#378));
#380 = (
   GEOMETRIC_REPRESENTATION_CONTEXT (3)
   GLOBAL_UNCERTAINTY_ASSIGNED_CONTEXT ((#382))
   GLOBAL_UNIT_ASSIGNED_CONTEXT ((#381, #383, #384))
   REPRESENTATION_CONTEXT ('', '3D')
);
#381 = (
   LENGTH_UNIT ()
   NAMED_UNIT (*)
   SI_UNIT (.MILLI., .METRE.)
);
#382 = UNCERTAINTY_MEASURE_WITH_UNIT(LENGTH_MEASURE(1.E-6), #381, 'DISTANCE_ACCURACY_VALUE', '');
#383 = (
   NAMED_UNIT (*)
   SI_UNIT ($, .STERADIAN.)
   SOLID_ANGLE_UNIT ()
);
#384 = (
   NAMED_UNIT (*)
   PLANE_ANGLE_UNIT ()
   SI_UNIT ($, .RADIAN.)
);
#385 = SHAPE_REPRESENTATION('', (#400), #380);
#386 = PRODUCT_DEFINITION_SHAPE('', '', #387);
#387 = PRODUCT_DEFINITION('', '', #390, #394);
#388 = APPLICATION_CONTEXT('configuration controlled 3D designs of mechanical parts and assemblies');
#389 = APPLICATION_PROTOCOL_DEFINITION('International Standard', 'automotive_design', 2002, #388);
#390 = PRODUCT_DEFINITION_FORMATION_WITH_SPECIFIED_SOURCE('', '', #391, .NOT_KNOWN.);
#391 = PRODUCT('MirrorTest', 'MirrorTest', '', (#392));
#392 = PRODUCT_CONTEXT('', #388, 'mechanical');
#393 = PRODUCT_RELATED_PRODUCT_CATEGORY('detail', '', (#391));
#394 = PRODUCT_DEFINITION_CONTEXT('part definition', #388, 'design');
#395 = SHAPE_DEFINITION_REPRESENTATION(#386, #385);
#396 = SHAPE_REPRESENTATION_RELATIONSHIP('', '', #385, #397);
#397 = SHAPE_REPRESENTATION('', (#379), #380);
#398 = SHAPE_REPRESENTATION_RELATIONSHIP('', '', #385, #399);
#399 = ADVANCED_BREP_SHAPE_REPRESENTATION('', (#1, #148, #232), #380);
#400 = AXIS2_PLACEMENT_3D('', #401, #402, #403);
#401 = CARTESIAN_POINT('', (0., 0., 0.));
#402 = DIRECTION('', (0., 0., 1.));
#403 = DIRECTION('', (1., 0., 0.));
ENDSEC;
END-ISO-10303-21;
