ISO-10303-21;
HEADER;
FILE_DESCRIPTION(('STEP'), '1');
FILE_NAME('MirrorCompound', '2026-04-15T11:18:17', (''), (''), 'Express 3.1.2.0', 'Express Tool', 'Unknown');
FILE_SCHEMA(('AUTOMOTIVE_DESIGN'));
ENDSEC;

DATA;
#1 = MANIFOLD_SOLID_BREP('Solid', #2);
#2 = CLOSED_SHELL('', (#3, #39, #75, #151, #167, #239, #259, #279, #295, #311, #323, #335, #351, #367));
#3 = ADVANCED_FACE('', (#4), #34, .T.);
#4 = FACE_OUTER_BOUND('', #5, .T.);
#5 = EDGE_LOOP('', (#6, #15, #22, #29));
#6 = ORIENTED_EDGE('', *, *, #7, .T.);
#7 = EDGE_CURVE('', #8, #10, #12, .T.);
#8 = VERTEX_POINT('', #9);
#9 = CARTESIAN_POINT('', (40., 10., -10.));
#10 = VERTEX_POINT('', #11);
#11 = CARTESIAN_POINT('', (40., 10., 10.));
#12 = B_SPLINE_CURVE_WITH_KNOTS('', 1, (#13, #14), .UNSPECIFIED., .F., .U., (2, 2), (0., 1.), .UNSPECIFIED.);
#13 = CARTESIAN_POINT('', (40., 10., -10.));
#14 = CARTESIAN_POINT('', (40., 10., 10.));
#15 = ORIENTED_EDGE('', *, *, #16, .T.);
#16 = EDGE_CURVE('', #10, #17, #19, .T.);
#17 = VERTEX_POINT('', #18);
#18 = CARTESIAN_POINT('', (40., 30., 10.));
#19 = B_SPLINE_CURVE_WITH_KNOTS('', 1, (#20, #21), .UNSPECIFIED., .F., .U., (2, 2), (40., 60.), .UNSPECIFIED.);
#20 = CARTESIAN_POINT('', (40., 10., 10.));
#21 = CARTESIAN_POINT('', (40., 30., 10.));
#22 = ORIENTED_EDGE('', *, *, #23, .F.);
#23 = EDGE_CURVE('', #24, #17, #26, .T.);
#24 = VERTEX_POINT('', #25);
#25 = CARTESIAN_POINT('', (40., 30., -10.));
#26 = B_SPLINE_CURVE_WITH_KNOTS('', 1, (#27, #28), .UNSPECIFIED., .F., .U., (2, 2), (0., 20.), .UNSPECIFIED.);
#27 = CARTESIAN_POINT('', (40., 30., -10.));
#28 = CARTESIAN_POINT('', (40., 30., 10.));
#29 = ORIENTED_EDGE('', *, *, #30, .F.);
#30 = EDGE_CURVE('', #8, #24, #31, .T.);
#31 = B_SPLINE_CURVE_WITH_KNOTS('', 1, (#32, #33), .UNSPECIFIED., .F., .U., (2, 2), (40., 60.), .UNSPECIFIED.);
#32 = CARTESIAN_POINT('', (40., 10., -10.));
#33 = CARTESIAN_POINT('', (40., 30., -10.));
#34 = B_SPLINE_SURFACE_WITH_KNOTS('', 1, 1, ((#35, #36), (#37, #38)), .UNSPECIFIED., .F., .F., .U., (2, 2), (2, 2), (0., 20.), (0., 60.), .UNSPECIFIED.);
#35 = CARTESIAN_POINT('', (40., -30., -10.));
#36 = CARTESIAN_POINT('', (40., 30., -10.));
#37 = CARTESIAN_POINT('', (40., -30., 10.));
#38 = CARTESIAN_POINT('', (40., 30., 10.));
#39 = ADVANCED_FACE('', (#40), #70, .T.);
#40 = FACE_OUTER_BOUND('', #41, .T.);
#41 = EDGE_LOOP('', (#42, #51, #58, #65));
#42 = ORIENTED_EDGE('', *, *, #43, .T.);
#43 = EDGE_CURVE('', #44, #46, #48, .T.);
#44 = VERTEX_POINT('', #45);
#45 = CARTESIAN_POINT('', (60., 10., 10.));
#46 = VERTEX_POINT('', #47);
#47 = CARTESIAN_POINT('', (60., 10., -10.));
#48 = B_SPLINE_CURVE_WITH_KNOTS('', 1, (#49, #50), .UNSPECIFIED., .F., .U., (2, 2), (0., 1.), .UNSPECIFIED.);
#49 = CARTESIAN_POINT('', (60., 10., 10.));
#50 = CARTESIAN_POINT('', (60., 10., -10.));
#51 = ORIENTED_EDGE('', *, *, #52, .T.);
#52 = EDGE_CURVE('', #46, #53, #55, .T.);
#53 = VERTEX_POINT('', #54);
#54 = CARTESIAN_POINT('', (60., 30., -10.));
#55 = B_SPLINE_CURVE_WITH_KNOTS('', 1, (#56, #57), .UNSPECIFIED., .F., .U., (2, 2), (40., 60.), .UNSPECIFIED.);
#56 = CARTESIAN_POINT('', (60., 10., -10.));
#57 = CARTESIAN_POINT('', (60., 30., -10.));
#58 = ORIENTED_EDGE('', *, *, #59, .T.);
#59 = EDGE_CURVE('', #53, #60, #62, .T.);
#60 = VERTEX_POINT('', #61);
#61 = CARTESIAN_POINT('', (60., 30., 10.));
#62 = B_SPLINE_CURVE_WITH_KNOTS('', 1, (#63, #64), .UNSPECIFIED., .F., .U., (2, 2), (0., 20.), .UNSPECIFIED.);
#63 = CARTESIAN_POINT('', (60., 30., -10.));
#64 = CARTESIAN_POINT('', (60., 30., 10.));
#65 = ORIENTED_EDGE('', *, *, #66, .F.);
#66 = EDGE_CURVE('', #44, #60, #67, .T.);
#67 = B_SPLINE_CURVE_WITH_KNOTS('', 1, (#68, #69), .UNSPECIFIED., .F., .U., (2, 2), (40., 60.), .UNSPECIFIED.);
#68 = CARTESIAN_POINT('', (60., 10., 10.));
#69 = CARTESIAN_POINT('', (60., 30., 10.));
#70 = B_SPLINE_SURFACE_WITH_KNOTS('', 1, 1, ((#71, #72), (#73, #74)), .UNSPECIFIED., .F., .F., .U., (2, 2), (2, 2), (0., 60.), (0., 20.), .UNSPECIFIED.);
#71 = CARTESIAN_POINT('', (60., -30., -10.));
#72 = CARTESIAN_POINT('', (60., -30., 10.));
#73 = CARTESIAN_POINT('', (60., 30., -10.));
#74 = CARTESIAN_POINT('', (60., 30., 10.));
#75 = ADVANCED_FACE('', (#76), #146, .T.);
#76 = FACE_OUTER_BOUND('', #77, .T.);
#77 = EDGE_LOOP('', (#78, #87, #94, #101, #108, #115, #122, #127, #128, #133, #134, #141));
#78 = ORIENTED_EDGE('', *, *, #79, .F.);
#79 = EDGE_CURVE('', #80, #82, #84, .T.);
#80 = VERTEX_POINT('', #81);
#81 = CARTESIAN_POINT('', (60., -10., -10.));
#82 = VERTEX_POINT('', #83);
#83 = CARTESIAN_POINT('', (90., -10., -10.));
#84 = B_SPLINE_CURVE_WITH_KNOTS('', 1, (#85, #86), .UNSPECIFIED., .F., .U., (2, 2), (50., 80.), .UNSPECIFIED.);
#85 = CARTESIAN_POINT('', (60., -10., -10.));
#86 = CARTESIAN_POINT('', (90., -10., -10.));
#87 = ORIENTED_EDGE('', *, *, #88, .F.);
#88 = EDGE_CURVE('', #89, #80, #91, .T.);
#89 = VERTEX_POINT('', #90);
#90 = CARTESIAN_POINT('', (60., -30., -10.));
#91 = B_SPLINE_CURVE_WITH_KNOTS('', 1, (#92, #93), .UNSPECIFIED., .F., .U., (2, 2), (0., 20.), .UNSPECIFIED.);
#92 = CARTESIAN_POINT('', (60., -30., -10.));
#93 = CARTESIAN_POINT('', (60., -10., -10.));
#94 = ORIENTED_EDGE('', *, *, #95, .F.);
#95 = EDGE_CURVE('', #96, #89, #98, .T.);
#96 = VERTEX_POINT('', #97);
#97 = CARTESIAN_POINT('', (40., -30., -10.));
#98 = B_SPLINE_CURVE_WITH_KNOTS('', 1, (#99, #100), .UNSPECIFIED., .F., .U., (2, 2), (0., 20.), .UNSPECIFIED.);
#99 = CARTESIAN_POINT('', (40., -30., -10.));
#100 = CARTESIAN_POINT('', (60., -30., -10.));
#101 = ORIENTED_EDGE('', *, *, #102, .T.);
#102 = EDGE_CURVE('', #96, #103, #105, .T.);
#103 = VERTEX_POINT('', #104);
#104 = CARTESIAN_POINT('', (40., -10., -10.));
#105 = B_SPLINE_CURVE_WITH_KNOTS('', 1, (#106, #107), .UNSPECIFIED., .F., .U., (2, 2), (0., 20.), .UNSPECIFIED.);
#106 = CARTESIAN_POINT('', (40., -30., -10.));
#107 = CARTESIAN_POINT('', (40., -10., -10.));
#108 = ORIENTED_EDGE('', *, *, #109, .F.);
#109 = EDGE_CURVE('', #110, #103, #112, .T.);
#110 = VERTEX_POINT('', #111);
#111 = CARTESIAN_POINT('', (10., -10., -10.));
#112 = B_SPLINE_CURVE_WITH_KNOTS('', 1, (#113, #114), .UNSPECIFIED., .F., .U., (2, 2), (0., 30.), .UNSPECIFIED.);
#113 = CARTESIAN_POINT('', (10., -10., -10.));
#114 = CARTESIAN_POINT('', (40., -10., -10.));
#115 = ORIENTED_EDGE('', *, *, #116, .T.);
#116 = EDGE_CURVE('', #110, #117, #119, .T.);
#117 = VERTEX_POINT('', #118);
#118 = CARTESIAN_POINT('', (10., 10., -10.));
#119 = B_SPLINE_CURVE_WITH_KNOTS('', 1, (#120, #121), .UNSPECIFIED., .F., .U., (2, 2), (0., 20.), .UNSPECIFIED.);
#120 = CARTESIAN_POINT('', (10., -10., -10.));
#121 = CARTESIAN_POINT('', (10., 10., -10.));
#122 = ORIENTED_EDGE('', *, *, #123, .T.);
#123 = EDGE_CURVE('', #117, #8, #124, .T.);
#124 = B_SPLINE_CURVE_WITH_KNOTS('', 1, (#125, #126), .UNSPECIFIED., .F., .U., (2, 2), (0., 30.), .UNSPECIFIED.);
#125 = CARTESIAN_POINT('', (10., 10., -10.));
#126 = CARTESIAN_POINT('', (40., 10., -10.));
#127 = ORIENTED_EDGE('', *, *, #30, .T.);
#128 = ORIENTED_EDGE('', *, *, #129, .T.);
#129 = EDGE_CURVE('', #24, #53, #130, .T.);
#130 = B_SPLINE_CURVE_WITH_KNOTS('', 1, (#131, #132), .UNSPECIFIED., .F., .U., (2, 2), (0., 20.), .UNSPECIFIED.);
#131 = CARTESIAN_POINT('', (40., 30., -10.));
#132 = CARTESIAN_POINT('', (60., 30., -10.));
#133 = ORIENTED_EDGE('', *, *, #52, .F.);
#134 = ORIENTED_EDGE('', *, *, #135, .T.);
#135 = EDGE_CURVE('', #46, #136, #138, .T.);
#136 = VERTEX_POINT('', #137);
#137 = CARTESIAN_POINT('', (90., 10., -10.));
#138 = B_SPLINE_CURVE_WITH_KNOTS('', 1, (#139, #140), .UNSPECIFIED., .F., .U., (2, 2), (50., 80.), .UNSPECIFIED.);
#139 = CARTESIAN_POINT('', (60., 10., -10.));
#140 = CARTESIAN_POINT('', (90., 10., -10.));
#141 = ORIENTED_EDGE('', *, *, #142, .F.);
#142 = EDGE_CURVE('', #82, #136, #143, .T.);
#143 = B_SPLINE_CURVE_WITH_KNOTS('', 1, (#144, #145), .UNSPECIFIED., .F., .U., (2, 2), (0., 20.), .UNSPECIFIED.);
#144 = CARTESIAN_POINT('', (90., -10., -10.));
#145 = CARTESIAN_POINT('', (90., 10., -10.));
#146 = B_SPLINE_SURFACE_WITH_KNOTS('', 1, 1, ((#147, #148), (#149, #150)), .UNSPECIFIED., .F., .F., .U., (2, 2), (2, 2), (0., 60.), (-30., 50.), .UNSPECIFIED.);
#147 = CARTESIAN_POINT('', (10., -30., -10.));
#148 = CARTESIAN_POINT('', (90., -30., -10.));
#149 = CARTESIAN_POINT('', (10., 30., -10.));
#150 = CARTESIAN_POINT('', (90., 30., -10.));
#151 = ADVANCED_FACE('', (#152), #162, .T.);
#152 = FACE_OUTER_BOUND('', #153, .T.);
#153 = EDGE_LOOP('', (#154, #155, #160, #161));
#154 = ORIENTED_EDGE('', *, *, #23, .T.);
#155 = ORIENTED_EDGE('', *, *, #156, .T.);
#156 = EDGE_CURVE('', #17, #60, #157, .T.);
#157 = B_SPLINE_CURVE_WITH_KNOTS('', 1, (#158, #159), .UNSPECIFIED., .F., .U., (2, 2), (0., 20.), .UNSPECIFIED.);
#158 = CARTESIAN_POINT('', (40., 30., 10.));
#159 = CARTESIAN_POINT('', (60., 30., 10.));
#160 = ORIENTED_EDGE('', *, *, #59, .F.);
#161 = ORIENTED_EDGE('', *, *, #129, .F.);
#162 = B_SPLINE_SURFACE_WITH_KNOTS('', 1, 1, ((#163, #164), (#165, #166)), .UNSPECIFIED., .F., .F., .U., (2, 2), (2, 2), (0., 20.), (0., 20.), .UNSPECIFIED.);
#163 = CARTESIAN_POINT('', (40., 30., -10.));
#164 = CARTESIAN_POINT('', (60., 30., -10.));
#165 = CARTESIAN_POINT('', (40., 30., 10.));
#166 = CARTESIAN_POINT('', (60., 30., 10.));
#167 = ADVANCED_FACE('', (#168), #234, .T.);
#168 = FACE_OUTER_BOUND('', #169, .T.);
#169 = EDGE_LOOP('', (#170, #177, #178, #179, #180, #187, #194, #201, #208, #215, #222, #229));
#170 = ORIENTED_EDGE('', *, *, #171, .F.);
#171 = EDGE_CURVE('', #44, #172, #174, .T.);
#172 = VERTEX_POINT('', #173);
#173 = CARTESIAN_POINT('', (90., 10., 10.));
#174 = B_SPLINE_CURVE_WITH_KNOTS('', 1, (#175, #176), .UNSPECIFIED., .F., .U., (2, 2), (50., 80.), .UNSPECIFIED.);
#175 = CARTESIAN_POINT('', (60., 10., 10.));
#176 = CARTESIAN_POINT('', (90., 10., 10.));
#177 = ORIENTED_EDGE('', *, *, #66, .T.);
#178 = ORIENTED_EDGE('', *, *, #156, .F.);
#179 = ORIENTED_EDGE('', *, *, #16, .F.);
#180 = ORIENTED_EDGE('', *, *, #181, .F.);
#181 = EDGE_CURVE('', #182, #10, #184, .T.);
#182 = VERTEX_POINT('', #183);
#183 = CARTESIAN_POINT('', (10., 10., 10.));
#184 = B_SPLINE_CURVE_WITH_KNOTS('', 1, (#185, #186), .UNSPECIFIED., .F., .U., (2, 2), (0., 30.), .UNSPECIFIED.);
#185 = CARTESIAN_POINT('', (10., 10., 10.));
#186 = CARTESIAN_POINT('', (40., 10., 10.));
#187 = ORIENTED_EDGE('', *, *, #188, .F.);
#188 = EDGE_CURVE('', #189, #182, #191, .T.);
#189 = VERTEX_POINT('', #190);
#190 = CARTESIAN_POINT('', (10., -10., 10.));
#191 = B_SPLINE_CURVE_WITH_KNOTS('', 1, (#192, #193), .UNSPECIFIED., .F., .U., (2, 2), (0., 20.), .UNSPECIFIED.);
#192 = CARTESIAN_POINT('', (10., -10., 10.));
#193 = CARTESIAN_POINT('', (10., 10., 10.));
#194 = ORIENTED_EDGE('', *, *, #195, .T.);
#195 = EDGE_CURVE('', #189, #196, #198, .T.);
#196 = VERTEX_POINT('', #197);
#197 = CARTESIAN_POINT('', (40., -10., 10.));
#198 = B_SPLINE_CURVE_WITH_KNOTS('', 1, (#199, #200), .UNSPECIFIED., .F., .U., (2, 2), (0., 30.), .UNSPECIFIED.);
#199 = CARTESIAN_POINT('', (10., -10., 10.));
#200 = CARTESIAN_POINT('', (40., -10., 10.));
#201 = ORIENTED_EDGE('', *, *, #202, .F.);
#202 = EDGE_CURVE('', #203, #196, #205, .T.);
#203 = VERTEX_POINT('', #204);
#204 = CARTESIAN_POINT('', (40., -30., 10.));
#205 = B_SPLINE_CURVE_WITH_KNOTS('', 1, (#206, #207), .UNSPECIFIED., .F., .U., (2, 2), (0., 20.), .UNSPECIFIED.);
#206 = CARTESIAN_POINT('', (40., -30., 10.));
#207 = CARTESIAN_POINT('', (40., -10., 10.));
#208 = ORIENTED_EDGE('', *, *, #209, .T.);
#209 = EDGE_CURVE('', #203, #210, #212, .T.);
#210 = VERTEX_POINT('', #211);
#211 = CARTESIAN_POINT('', (60., -30., 10.));
#212 = B_SPLINE_CURVE_WITH_KNOTS('', 1, (#213, #214), .UNSPECIFIED., .F., .U., (2, 2), (0., 20.), .UNSPECIFIED.);
#213 = CARTESIAN_POINT('', (40., -30., 10.));
#214 = CARTESIAN_POINT('', (60., -30., 10.));
#215 = ORIENTED_EDGE('', *, *, #216, .T.);
#216 = EDGE_CURVE('', #210, #217, #219, .T.);
#217 = VERTEX_POINT('', #218);
#218 = CARTESIAN_POINT('', (60., -10., 10.));
#219 = B_SPLINE_CURVE_WITH_KNOTS('', 1, (#220, #221), .UNSPECIFIED., .F., .U., (2, 2), (0., 20.), .UNSPECIFIED.);
#220 = CARTESIAN_POINT('', (60., -30., 10.));
#221 = CARTESIAN_POINT('', (60., -10., 10.));
#222 = ORIENTED_EDGE('', *, *, #223, .T.);
#223 = EDGE_CURVE('', #217, #224, #226, .T.);
#224 = VERTEX_POINT('', #225);
#225 = CARTESIAN_POINT('', (90., -10., 10.));
#226 = B_SPLINE_CURVE_WITH_KNOTS('', 1, (#227, #228), .UNSPECIFIED., .F., .U., (2, 2), (50., 80.), .UNSPECIFIED.);
#227 = CARTESIAN_POINT('', (60., -10., 10.));
#228 = CARTESIAN_POINT('', (90., -10., 10.));
#229 = ORIENTED_EDGE('', *, *, #230, .T.);
#230 = EDGE_CURVE('', #224, #172, #231, .T.);
#231 = B_SPLINE_CURVE_WITH_KNOTS('', 1, (#232, #233), .UNSPECIFIED., .F., .U., (2, 2), (0., 20.), .UNSPECIFIED.);
#232 = CARTESIAN_POINT('', (90., -10., 10.));
#233 = CARTESIAN_POINT('', (90., 10., 10.));
#234 = B_SPLINE_SURFACE_WITH_KNOTS('', 1, 1, ((#235, #236), (#237, #238)), .UNSPECIFIED., .F., .F., .U., (2, 2), (2, 2), (0., 80.), (-20., 40.), .UNSPECIFIED.);
#235 = CARTESIAN_POINT('', (10., -30., 10.));
#236 = CARTESIAN_POINT('', (9.99999999999999, 30., 10.));
#237 = CARTESIAN_POINT('', (90., -30., 10.));
#238 = CARTESIAN_POINT('', (90., 30., 10.));
#239 = ADVANCED_FACE('', (#240), #254, .T.);
#240 = FACE_OUTER_BOUND('', #241, .T.);
#241 = EDGE_LOOP('', (#242, #247, #248, #253));
#242 = ORIENTED_EDGE('', *, *, #243, .F.);
#243 = EDGE_CURVE('', #82, #224, #244, .T.);
#244 = B_SPLINE_CURVE_WITH_KNOTS('', 1, (#245, #246), .UNSPECIFIED., .F., .U., (2, 2), (0., 20.), .UNSPECIFIED.);
#245 = CARTESIAN_POINT('', (90., -10., -10.));
#246 = CARTESIAN_POINT('', (90., -10., 10.));
#247 = ORIENTED_EDGE('', *, *, #142, .T.);
#248 = ORIENTED_EDGE('', *, *, #249, .T.);
#249 = EDGE_CURVE('', #136, #172, #250, .T.);
#250 = B_SPLINE_CURVE_WITH_KNOTS('', 1, (#251, #252), .UNSPECIFIED., .F., .U., (2, 2), (0., 20.), .UNSPECIFIED.);
#251 = CARTESIAN_POINT('', (90., 10., -10.));
#252 = CARTESIAN_POINT('', (90., 10., 10.));
#253 = ORIENTED_EDGE('', *, *, #230, .F.);
#254 = B_SPLINE_SURFACE_WITH_KNOTS('', 1, 1, ((#255, #256), (#257, #258)), .UNSPECIFIED., .F., .F., .U., (2, 2), (2, 2), (0., 20.), (0., 20.), .UNSPECIFIED.);
#255 = CARTESIAN_POINT('', (90., -10., -10.));
#256 = CARTESIAN_POINT('', (90., -10., 10.));
#257 = CARTESIAN_POINT('', (90., 10., -10.));
#258 = CARTESIAN_POINT('', (90., 10., 10.));
#259 = ADVANCED_FACE('', (#260), #274, .T.);
#260 = FACE_OUTER_BOUND('', #261, .T.);
#261 = EDGE_LOOP('', (#262, #267, #268, #273));
#262 = ORIENTED_EDGE('', *, *, #263, .T.);
#263 = EDGE_CURVE('', #110, #189, #264, .T.);
#264 = B_SPLINE_CURVE_WITH_KNOTS('', 1, (#265, #266), .UNSPECIFIED., .F., .U., (2, 2), (0., 20.), .UNSPECIFIED.);
#265 = CARTESIAN_POINT('', (10., -10., -10.));
#266 = CARTESIAN_POINT('', (10., -10., 10.));
#267 = ORIENTED_EDGE('', *, *, #188, .T.);
#268 = ORIENTED_EDGE('', *, *, #269, .F.);
#269 = EDGE_CURVE('', #117, #182, #270, .T.);
#270 = B_SPLINE_CURVE_WITH_KNOTS('', 1, (#271, #272), .UNSPECIFIED., .F., .U., (2, 2), (0., 20.), .UNSPECIFIED.);
#271 = CARTESIAN_POINT('', (10., 10., -10.));
#272 = CARTESIAN_POINT('', (10., 10., 10.));
#273 = ORIENTED_EDGE('', *, *, #116, .F.);
#274 = B_SPLINE_SURFACE_WITH_KNOTS('', 1, 1, ((#275, #276), (#277, #278)), .UNSPECIFIED., .F., .F., .U., (2, 2), (2, 2), (0., 20.), (0., 20.), .UNSPECIFIED.);
#275 = CARTESIAN_POINT('', (10., -10., -10.));
#276 = CARTESIAN_POINT('', (10., 10., -10.));
#277 = CARTESIAN_POINT('', (10., -10., 10.));
#278 = CARTESIAN_POINT('', (10., 10., 10.));
#279 = ADVANCED_FACE('', (#280), #290, .T.);
#280 = FACE_OUTER_BOUND('', #281, .T.);
#281 = EDGE_LOOP('', (#282, #287, #288, #289));
#282 = ORIENTED_EDGE('', *, *, #283, .F.);
#283 = EDGE_CURVE('', #196, #103, #284, .T.);
#284 = B_SPLINE_CURVE_WITH_KNOTS('', 1, (#285, #286), .UNSPECIFIED., .F., .U., (2, 2), (0., 1.), .UNSPECIFIED.);
#285 = CARTESIAN_POINT('', (40., -10., 10.));
#286 = CARTESIAN_POINT('', (40., -10., -10.));
#287 = ORIENTED_EDGE('', *, *, #195, .F.);
#288 = ORIENTED_EDGE('', *, *, #263, .F.);
#289 = ORIENTED_EDGE('', *, *, #109, .T.);
#290 = B_SPLINE_SURFACE_WITH_KNOTS('', 1, 1, ((#291, #292), (#293, #294)), .UNSPECIFIED., .F., .F., .U., (2, 2), (2, 2), (0., 80.), (0., 20.), .UNSPECIFIED.);
#291 = CARTESIAN_POINT('', (10., -10., -10.));
#292 = CARTESIAN_POINT('', (10., -10., 10.));
#293 = CARTESIAN_POINT('', (90., -10., -10.));
#294 = CARTESIAN_POINT('', (90., -10., 10.));
#295 = ADVANCED_FACE('', (#296), #306, .T.);
#296 = FACE_OUTER_BOUND('', #297, .T.);
#297 = EDGE_LOOP('', (#298, #303, #304, #305));
#298 = ORIENTED_EDGE('', *, *, #299, .F.);
#299 = EDGE_CURVE('', #80, #217, #300, .T.);
#300 = B_SPLINE_CURVE_WITH_KNOTS('', 1, (#301, #302), .UNSPECIFIED., .F., .U., (2, 2), (0., 1.), .UNSPECIFIED.);
#301 = CARTESIAN_POINT('', (60., -10., -10.));
#302 = CARTESIAN_POINT('', (60., -10., 10.));
#303 = ORIENTED_EDGE('', *, *, #79, .T.);
#304 = ORIENTED_EDGE('', *, *, #243, .T.);
#305 = ORIENTED_EDGE('', *, *, #223, .F.);
#306 = B_SPLINE_SURFACE_WITH_KNOTS('', 1, 1, ((#307, #308), (#309, #310)), .UNSPECIFIED., .F., .F., .U., (2, 2), (2, 2), (0., 80.), (0., 20.), .UNSPECIFIED.);
#307 = CARTESIAN_POINT('', (10., -10., -10.));
#308 = CARTESIAN_POINT('', (10., -10., 10.));
#309 = CARTESIAN_POINT('', (90., -10., -10.));
#310 = CARTESIAN_POINT('', (90., -10., 10.));
#311 = ADVANCED_FACE('', (#312), #318, .T.);
#312 = FACE_OUTER_BOUND('', #313, .T.);
#313 = EDGE_LOOP('', (#314, #315, #316, #317));
#314 = ORIENTED_EDGE('', *, *, #7, .F.);
#315 = ORIENTED_EDGE('', *, *, #123, .F.);
#316 = ORIENTED_EDGE('', *, *, #269, .T.);
#317 = ORIENTED_EDGE('', *, *, #181, .T.);
#318 = B_SPLINE_SURFACE_WITH_KNOTS('', 1, 1, ((#319, #320), (#321, #322)), .UNSPECIFIED., .F., .F., .U., (2, 2), (2, 2), (0., 20.), (0., 80.), .UNSPECIFIED.);
#319 = CARTESIAN_POINT('', (10., 10., -10.));
#320 = CARTESIAN_POINT('', (90., 10., -10.));
#321 = CARTESIAN_POINT('', (10., 10., 10.));
#322 = CARTESIAN_POINT('', (90., 10., 10.));
#323 = ADVANCED_FACE('', (#324), #330, .T.);
#324 = FACE_OUTER_BOUND('', #325, .T.);
#325 = EDGE_LOOP('', (#326, #327, #328, #329));
#326 = ORIENTED_EDGE('', *, *, #43, .F.);
#327 = ORIENTED_EDGE('', *, *, #171, .T.);
#328 = ORIENTED_EDGE('', *, *, #249, .F.);
#329 = ORIENTED_EDGE('', *, *, #135, .F.);
#330 = B_SPLINE_SURFACE_WITH_KNOTS('', 1, 1, ((#331, #332), (#333, #334)), .UNSPECIFIED., .F., .F., .U., (2, 2), (2, 2), (0., 20.), (0., 80.), .UNSPECIFIED.);
#331 = CARTESIAN_POINT('', (10., 10., -10.));
#332 = CARTESIAN_POINT('', (90., 10., -10.));
#333 = CARTESIAN_POINT('', (10., 10., 10.));
#334 = CARTESIAN_POINT('', (90., 10., 10.));
#335 = ADVANCED_FACE('', (#336), #346, .T.);
#336 = FACE_OUTER_BOUND('', #337, .T.);
#337 = EDGE_LOOP('', (#338, #339, #340, #345));
#338 = ORIENTED_EDGE('', *, *, #299, .T.);
#339 = ORIENTED_EDGE('', *, *, #216, .F.);
#340 = ORIENTED_EDGE('', *, *, #341, .F.);
#341 = EDGE_CURVE('', #89, #210, #342, .T.);
#342 = B_SPLINE_CURVE_WITH_KNOTS('', 1, (#343, #344), .UNSPECIFIED., .F., .U., (2, 2), (0., 20.), .UNSPECIFIED.);
#343 = CARTESIAN_POINT('', (60., -30., -10.));
#344 = CARTESIAN_POINT('', (60., -30., 10.));
#345 = ORIENTED_EDGE('', *, *, #88, .T.);
#346 = B_SPLINE_SURFACE_WITH_KNOTS('', 1, 1, ((#347, #348), (#349, #350)), .UNSPECIFIED., .F., .F., .U., (2, 2), (2, 2), (0., 60.), (0., 20.), .UNSPECIFIED.);
#347 = CARTESIAN_POINT('', (60., -30., -10.));
#348 = CARTESIAN_POINT('', (60., -30., 10.));
#349 = CARTESIAN_POINT('', (60., 30., -10.));
#350 = CARTESIAN_POINT('', (60., 30., 10.));
#351 = ADVANCED_FACE('', (#352), #362, .T.);
#352 = FACE_OUTER_BOUND('', #353, .T.);
#353 = EDGE_LOOP('', (#354, #355, #356, #361));
#354 = ORIENTED_EDGE('', *, *, #283, .T.);
#355 = ORIENTED_EDGE('', *, *, #102, .F.);
#356 = ORIENTED_EDGE('', *, *, #357, .T.);
#357 = EDGE_CURVE('', #96, #203, #358, .T.);
#358 = B_SPLINE_CURVE_WITH_KNOTS('', 1, (#359, #360), .UNSPECIFIED., .F., .U., (2, 2), (0., 20.), .UNSPECIFIED.);
#359 = CARTESIAN_POINT('', (40., -30., -10.));
#360 = CARTESIAN_POINT('', (40., -30., 10.));
#361 = ORIENTED_EDGE('', *, *, #202, .T.);
#362 = B_SPLINE_SURFACE_WITH_KNOTS('', 1, 1, ((#363, #364), (#365, #366)), .UNSPECIFIED., .F., .F., .U., (2, 2), (2, 2), (0., 20.), (0., 60.), .UNSPECIFIED.);
#363 = CARTESIAN_POINT('', (40., -30., -10.));
#364 = CARTESIAN_POINT('', (40., 30., -10.));
#365 = CARTESIAN_POINT('', (40., -30., 10.));
#366 = CARTESIAN_POINT('', (40., 30., 10.));
#367 = ADVANCED_FACE('', (#368), #374, .T.);
#368 = FACE_OUTER_BOUND('', #369, .T.);
#369 = EDGE_LOOP('', (#370, #371, #372, #373));
#370 = ORIENTED_EDGE('', *, *, #357, .F.);
#371 = ORIENTED_EDGE('', *, *, #95, .T.);
#372 = ORIENTED_EDGE('', *, *, #341, .T.);
#373 = ORIENTED_EDGE('', *, *, #209, .F.);
#374 = B_SPLINE_SURFACE_WITH_KNOTS('', 1, 1, ((#375, #376), (#377, #378)), .UNSPECIFIED., .F., .F., .U., (2, 2), (2, 2), (0., 20.), (0., 20.), .UNSPECIFIED.);
#375 = CARTESIAN_POINT('', (40., -30., -10.));
#376 = CARTESIAN_POINT('', (40., -30., 10.));
#377 = CARTESIAN_POINT('', (60., -30., -10.));
#378 = CARTESIAN_POINT('', (60., -30., 10.));
#379 = DRAUGHTING_MODEL('', (#387, #471), #474);
#380 = PRESENTATION_STYLE_ASSIGNMENT((#381));
#381 = SURFACE_STYLE_USAGE(.POSITIVE., #382);
#382 = SURFACE_SIDE_STYLE('', (#383));
#383 = SURFACE_STYLE_FILL_AREA(#384);
#384 = FILL_AREA_STYLE('', (#385));
#385 = FILL_AREA_STYLE_COLOUR('', #386);
#386 = COLOUR_RGB('', 0.50196078431373, 0.50196078431373, 0.50196078431373);
#387 = STYLED_ITEM('', (#380), #1);
#388 = MANIFOLD_SOLID_BREP('Solid0', #389);
#389 = CLOSED_SHELL('', (#390, #446, #455));
#390 = ADVANCED_FACE('', (#391), #427, .T.);
#391 = FACE_OUTER_BOUND('', #392, .T.);
#392 = EDGE_LOOP('', (#393, #402, #414, #415));
#393 = ORIENTED_EDGE('', *, *, #394, .F.);
#394 = EDGE_CURVE('', #395, #397, #399, .T.);
#395 = VERTEX_POINT('', #396);
#396 = CARTESIAN_POINT('', (3., 0., -5.));
#397 = VERTEX_POINT('', #398);
#398 = CARTESIAN_POINT('', (3., 0., 5.));
#399 = B_SPLINE_CURVE_WITH_KNOTS('', 1, (#400, #401), .UNSPECIFIED., .F., .U., (2, 2), (0., 10.), .UNSPECIFIED.);
#400 = CARTESIAN_POINT('', (3., 0., -5.));
#401 = CARTESIAN_POINT('', (3., 0., 5.));
#402 = ORIENTED_EDGE('', *, *, #403, .T.);
#403 = EDGE_CURVE('', #395, #395, #404, .T.);
#404 = (
   BOUNDED_CURVE ()
   B_SPLINE_CURVE (2, (#405, #406, #407, #408, #409, #410, #411, #412, #413), .UNSPECIFIED., .T., .U.)
   B_SPLINE_CURVE_WITH_KNOTS ((3, 2, 2, 2, 3), (0., 4.71238898038469, 9.42477796076938, 14.1371669411541, 18.8495559215388), .UNSPECIFIED.)
   CURVE ()
   GEOMETRIC_REPRESENTATION_ITEM ()
   RATIONAL_B_SPLINE_CURVE ((1., 0.707106781186548, 1., 0.707106781186548, 1., 0.707106781186548, 1., 0.707106781186548, 1.))
   REPRESENTATION_ITEM ('')
);
#405 = CARTESIAN_POINT('', (3., 0., -5.));
#406 = CARTESIAN_POINT('', (3., 3., -5.));
#407 = CARTESIAN_POINT('', (1.83697019872103E-16, 3., -5.));
#408 = CARTESIAN_POINT('', (-3., 3., -5.));
#409 = CARTESIAN_POINT('', (-3., 3.67394039744206E-16, -5.));
#410 = CARTESIAN_POINT('', (-3., -3., -5.));
#411 = CARTESIAN_POINT('', (-5.51091059616309E-16, -3., -5.));
#412 = CARTESIAN_POINT('', (3., -3., -5.));
#413 = CARTESIAN_POINT('', (3., 0., -5.));
#414 = ORIENTED_EDGE('', *, *, #394, .T.);
#415 = ORIENTED_EDGE('', *, *, #416, .F.);
#416 = EDGE_CURVE('', #397, #397, #417, .T.);
#417 = (
   BOUNDED_CURVE ()
   B_SPLINE_CURVE (2, (#418, #419, #420, #421, #422, #423, #424, #425, #426), .UNSPECIFIED., .T., .U.)
   B_SPLINE_CURVE_WITH_KNOTS ((3, 2, 2, 2, 3), (0., 4.71238898038469, 9.42477796076938, 14.1371669411541, 18.8495559215388), .UNSPECIFIED.)
   CURVE ()
   GEOMETRIC_REPRESENTATION_ITEM ()
   RATIONAL_B_SPLINE_CURVE ((1., 0.707106781186548, 1., 0.707106781186548, 1., 0.707106781186548, 1., 0.707106781186548, 1.))
   REPRESENTATION_ITEM ('')
);
#418 = CARTESIAN_POINT('', (3., 0., 5.));
#419 = CARTESIAN_POINT('', (3., 3., 5.));
#420 = CARTESIAN_POINT('', (1.83697019872103E-16, 3., 5.));
#421 = CARTESIAN_POINT('', (-3., 3., 5.));
#422 = CARTESIAN_POINT('', (-3., 3.67394039744206E-16, 5.));
#423 = CARTESIAN_POINT('', (-3., -3., 5.));
#424 = CARTESIAN_POINT('', (-5.51091059616309E-16, -3., 5.));
#425 = CARTESIAN_POINT('', (3., -3., 5.));
#426 = CARTESIAN_POINT('', (3., 0., 5.));
#427 = (
   BOUNDED_SURFACE ()
   B_SPLINE_SURFACE (2, 1, ((#428, #429), (#430, #431), (#432, #433), (#434, #435), (#436, #437), (#438, #439), (#440, #441), (#442, #443), (#444, #445)), .UNSPECIFIED., .T., .F., .U.)
   B_SPLINE_SURFACE_WITH_KNOTS ((3, 2, 2, 2, 3), (2, 2), (0., 4.71238898038469, 9.42477796076938, 14.1371669411541, 18.8495559215388), (0., 10.), .UNSPECIFIED.)
   GEOMETRIC_REPRESENTATION_ITEM ()
   RATIONAL_B_SPLINE_SURFACE (((1., 1.), (0.707106781186548, 0.707106781186548), (1., 1.), (0.707106781186548, 0.707106781186548), (1., 1.), (0.707106781186548, 0.707106781186548), (1., 1.), (0.707106781186548, 0.707106781186548), (1., 1.)))
   REPRESENTATION_ITEM ('')
   SURFACE ()
);
#428 = CARTESIAN_POINT('', (3., 0., -5.));
#429 = CARTESIAN_POINT('', (3., 0., 5.));
#430 = CARTESIAN_POINT('', (3., 3., -5.));
#431 = CARTESIAN_POINT('', (3., 3., 5.));
#432 = CARTESIAN_POINT('', (1.83697019872103E-16, 3., -5.));
#433 = CARTESIAN_POINT('', (1.83697019872103E-16, 3., 5.));
#434 = CARTESIAN_POINT('', (-3., 3., -5.));
#435 = CARTESIAN_POINT('', (-3., 3., 5.));
#436 = CARTESIAN_POINT('', (-3., 3.67394039744206E-16, -5.));
#437 = CARTESIAN_POINT('', (-3., 3.67394039744206E-16, 5.));
#438 = CARTESIAN_POINT('', (-3., -3., -5.));
#439 = CARTESIAN_POINT('', (-3., -3., 5.));
#440 = CARTESIAN_POINT('', (-5.51091059616309E-16, -3., -5.));
#441 = CARTESIAN_POINT('', (-5.51091059616309E-16, -3., 5.));
#442 = CARTESIAN_POINT('', (3., -3., -5.));
#443 = CARTESIAN_POINT('', (3., -3., 5.));
#444 = CARTESIAN_POINT('', (3., 0., -5.));
#445 = CARTESIAN_POINT('', (3., 0., 5.));
#446 = ADVANCED_FACE('', (#447), #450, .T.);
#447 = FACE_OUTER_BOUND('', #448, .T.);
#448 = EDGE_LOOP('', (#449));
#449 = ORIENTED_EDGE('', *, *, #403, .F.);
#450 = B_SPLINE_SURFACE_WITH_KNOTS('', 1, 1, ((#451, #452), (#453, #454)), .UNSPECIFIED., .F., .F., .U., (2, 2), (2, 2), (0., 1.), (0., 1.), .UNSPECIFIED.);
#451 = CARTESIAN_POINT('', (4.66690475583121, -4.66690475583122, -5.));
#452 = CARTESIAN_POINT('', (4.66690475583121, 4.66690475583121, -5.));
#453 = CARTESIAN_POINT('', (-4.66690475583121, -4.66690475583122, -5.));
#454 = CARTESIAN_POINT('', (-4.66690475583121, 4.66690475583121, -5.));
#455 = ADVANCED_FACE('', (#456), #459, .T.);
#456 = FACE_OUTER_BOUND('', #457, .T.);
#457 = EDGE_LOOP('', (#458));
#458 = ORIENTED_EDGE('', *, *, #416, .T.);
#459 = B_SPLINE_SURFACE_WITH_KNOTS('', 1, 1, ((#460, #461), (#462, #463)), .UNSPECIFIED., .F., .F., .U., (2, 2), (2, 2), (0., 1.), (0., 1.), .UNSPECIFIED.);
#460 = CARTESIAN_POINT('', (4.66690475583121, -4.66690475583121, 5.));
#461 = CARTESIAN_POINT('', (-4.66690475583121, -4.66690475583121, 5.));
#462 = CARTESIAN_POINT('', (4.66690475583121, 4.66690475583121, 5.));
#463 = CARTESIAN_POINT('', (-4.66690475583121, 4.66690475583121, 5.));
#464 = PRESENTATION_STYLE_ASSIGNMENT((#465));
#465 = SURFACE_STYLE_USAGE(.POSITIVE., #466);
#466 = SURFACE_SIDE_STYLE('', (#467));
#467 = SURFACE_STYLE_FILL_AREA(#468);
#468 = FILL_AREA_STYLE('', (#469));
#469 = FILL_AREA_STYLE_COLOUR('', #470);
#470 = COLOUR_RGB('', 0.50196078431373, 0.50196078431373, 0.50196078431373);
#471 = STYLED_ITEM('', (#464), #388);
#472 = CARTESIAN_POINT('Origin', (0., 0., 0.));
#473 = GEOMETRIC_SET('', (#472));
#474 = (
   GEOMETRIC_REPRESENTATION_CONTEXT (3)
   GLOBAL_UNCERTAINTY_ASSIGNED_CONTEXT ((#476))
   GLOBAL_UNIT_ASSIGNED_CONTEXT ((#475, #477, #478))
   REPRESENTATION_CONTEXT ('', '3D')
);
#475 = (
   LENGTH_UNIT ()
   NAMED_UNIT (*)
   SI_UNIT (.MILLI., .METRE.)
);
#476 = UNCERTAINTY_MEASURE_WITH_UNIT(LENGTH_MEASURE(1.E-6), #475, 'DISTANCE_ACCURACY_VALUE', '');
#477 = (
   NAMED_UNIT (*)
   SI_UNIT ($, .STERADIAN.)
   SOLID_ANGLE_UNIT ()
);
#478 = (
   NAMED_UNIT (*)
   PLANE_ANGLE_UNIT ()
   SI_UNIT ($, .RADIAN.)
);
#479 = SHAPE_REPRESENTATION('', (#494), #474);
#480 = PRODUCT_DEFINITION_SHAPE('', '', #481);
#481 = PRODUCT_DEFINITION('', '', #484, #488);
#482 = APPLICATION_CONTEXT('configuration controlled 3D designs of mechanical parts and assemblies');
#483 = APPLICATION_PROTOCOL_DEFINITION('International Standard', 'automotive_design', 2002, #482);
#484 = PRODUCT_DEFINITION_FORMATION_WITH_SPECIFIED_SOURCE('', '', #485, .NOT_KNOWN.);
#485 = PRODUCT('MirrorCompound', 'MirrorCompound', '', (#486));
#486 = PRODUCT_CONTEXT('', #482, 'mechanical');
#487 = PRODUCT_RELATED_PRODUCT_CATEGORY('detail', '', (#485));
#488 = PRODUCT_DEFINITION_CONTEXT('part definition', #482, 'design');
#489 = SHAPE_DEFINITION_REPRESENTATION(#480, #479);
#490 = SHAPE_REPRESENTATION_RELATIONSHIP('', '', #479, #491);
#491 = SHAPE_REPRESENTATION('', (#473), #474);
#492 = SHAPE_REPRESENTATION_RELATIONSHIP('', '', #479, #493);
#493 = ADVANCED_BREP_SHAPE_REPRESENTATION('', (#1, #388), #474);
#494 = AXIS2_PLACEMENT_3D('', #495, #496, #497);
#495 = CARTESIAN_POINT('', (0., 0., 0.));
#496 = DIRECTION('', (0., 0., 1.));
#497 = DIRECTION('', (1., 0., 0.));
ENDSEC;
END-ISO-10303-21;
