ISO-10303-21;
HEADER;
FILE_DESCRIPTION(('STEP'), '1');
FILE_NAME('CrossPrimitive', '2026-04-13T16:11:53', (''), (''), 'Express 3.1.2.0', 'Express Tool', 'Unknown');
FILE_SCHEMA(('AUTOMOTIVE_DESIGN'));
ENDSEC;

DATA;
#1 = MANIFOLD_SOLID_BREP('Solid', #2);
#2 = CLOSED_SHELL('', (#3, #39, #67, #95, #115, #127));
#3 = ADVANCED_FACE('', (#4), #34, .T.);
#4 = FACE_OUTER_BOUND('', #5, .T.);
#5 = EDGE_LOOP('', (#6, #15, #22, #29));
#6 = ORIENTED_EDGE('', *, *, #7, .T.);
#7 = EDGE_CURVE('', #8, #10, #12, .T.);
#8 = VERTEX_POINT('', #9);
#9 = CARTESIAN_POINT('', (51.7157287525381, -7.07106781186547, -10.));
#10 = VERTEX_POINT('', #11);
#11 = CARTESIAN_POINT('', (51.7157287525381, -7.07106781186547, 10.));
#12 = B_SPLINE_CURVE_WITH_KNOTS('', 1, (#13, #14), .UNSPECIFIED., .F., .U., (2, 2), (0., 20.), .UNSPECIFIED.);
#13 = CARTESIAN_POINT('', (51.7157287525381, -7.07106781186547, -10.));
#14 = CARTESIAN_POINT('', (51.7157287525381, -7.07106781186547, 10.));
#15 = ORIENTED_EDGE('', *, *, #16, .T.);
#16 = EDGE_CURVE('', #10, #17, #19, .T.);
#17 = VERTEX_POINT('', #18);
#18 = CARTESIAN_POINT('', (87.0710678118655, 28.2842712474619, 10.));
#19 = B_SPLINE_CURVE_WITH_KNOTS('', 1, (#20, #21), .UNSPECIFIED., .F., .U., (2, 2), (0., 50.), .UNSPECIFIED.);
#20 = CARTESIAN_POINT('', (51.7157287525381, -7.07106781186547, 10.));
#21 = CARTESIAN_POINT('', (87.0710678118655, 28.2842712474619, 10.));
#22 = ORIENTED_EDGE('', *, *, #23, .F.);
#23 = EDGE_CURVE('', #24, #17, #26, .T.);
#24 = VERTEX_POINT('', #25);
#25 = CARTESIAN_POINT('', (87.0710678118655, 28.2842712474619, -10.));
#26 = B_SPLINE_CURVE_WITH_KNOTS('', 1, (#27, #28), .UNSPECIFIED., .F., .U., (2, 2), (0., 20.), .UNSPECIFIED.);
#27 = CARTESIAN_POINT('', (87.0710678118655, 28.2842712474619, -10.));
#28 = CARTESIAN_POINT('', (87.0710678118655, 28.2842712474619, 10.));
#29 = ORIENTED_EDGE('', *, *, #30, .F.);
#30 = EDGE_CURVE('', #8, #24, #31, .T.);
#31 = B_SPLINE_CURVE_WITH_KNOTS('', 1, (#32, #33), .UNSPECIFIED., .F., .U., (2, 2), (0., 50.), .UNSPECIFIED.);
#32 = CARTESIAN_POINT('', (51.7157287525381, -7.07106781186547, -10.));
#33 = CARTESIAN_POINT('', (87.0710678118655, 28.2842712474619, -10.));
#34 = B_SPLINE_SURFACE_WITH_KNOTS('', 1, 1, ((#35, #36), (#37, #38)), .UNSPECIFIED., .F., .F., .U., (2, 2), (2, 2), (0., 20.), (0., 50.), .UNSPECIFIED.);
#35 = CARTESIAN_POINT('', (51.7157287525381, -7.07106781186547, -10.));
#36 = CARTESIAN_POINT('', (87.0710678118655, 28.2842712474619, -10.));
#37 = CARTESIAN_POINT('', (51.7157287525381, -7.07106781186547, 10.));
#38 = CARTESIAN_POINT('', (87.0710678118655, 28.2842712474619, 10.));
#39 = ADVANCED_FACE('', (#40), #62, .T.);
#40 = FACE_OUTER_BOUND('', #41, .T.);
#41 = EDGE_LOOP('', (#42, #49, #56, #61));
#42 = ORIENTED_EDGE('', *, *, #43, .F.);
#43 = EDGE_CURVE('', #44, #10, #46, .T.);
#44 = VERTEX_POINT('', #45);
#45 = CARTESIAN_POINT('', (72.9289321881345, -28.2842712474619, 10.));
#46 = B_SPLINE_CURVE_WITH_KNOTS('', 1, (#47, #48), .UNSPECIFIED., .F., .U., (2, 2), (0., 30.), .UNSPECIFIED.);
#47 = CARTESIAN_POINT('', (72.9289321881345, -28.2842712474619, 10.));
#48 = CARTESIAN_POINT('', (51.7157287525381, -7.07106781186547, 10.));
#49 = ORIENTED_EDGE('', *, *, #50, .T.);
#50 = EDGE_CURVE('', #44, #51, #53, .T.);
#51 = VERTEX_POINT('', #52);
#52 = CARTESIAN_POINT('', (108.284271247462, 7.07106781186547, 10.));
#53 = B_SPLINE_CURVE_WITH_KNOTS('', 1, (#54, #55), .UNSPECIFIED., .F., .U., (2, 2), (0., 50.), .UNSPECIFIED.);
#54 = CARTESIAN_POINT('', (72.9289321881345, -28.2842712474619, 10.));
#55 = CARTESIAN_POINT('', (108.284271247462, 7.07106781186547, 10.));
#56 = ORIENTED_EDGE('', *, *, #57, .T.);
#57 = EDGE_CURVE('', #51, #17, #58, .T.);
#58 = B_SPLINE_CURVE_WITH_KNOTS('', 1, (#59, #60), .UNSPECIFIED., .F., .U., (2, 2), (0., 30.), .UNSPECIFIED.);
#59 = CARTESIAN_POINT('', (108.284271247462, 7.07106781186547, 10.));
#60 = CARTESIAN_POINT('', (87.0710678118655, 28.2842712474619, 10.));
#61 = ORIENTED_EDGE('', *, *, #16, .F.);
#62 = B_SPLINE_SURFACE_WITH_KNOTS('', 1, 1, ((#63, #64), (#65, #66)), .UNSPECIFIED., .F., .F., .U., (2, 2), (2, 2), (0., 50.), (0., 30.), .UNSPECIFIED.);
#63 = CARTESIAN_POINT('', (72.9289321881345, -28.2842712474619, 10.));
#64 = CARTESIAN_POINT('', (51.7157287525381, -7.07106781186547, 10.));
#65 = CARTESIAN_POINT('', (108.284271247462, 7.07106781186547, 10.));
#66 = CARTESIAN_POINT('', (87.0710678118655, 28.2842712474619, 10.));
#67 = ADVANCED_FACE('', (#68), #90, .T.);
#68 = FACE_OUTER_BOUND('', #69, .T.);
#69 = EDGE_LOOP('', (#70, #77, #84, #89));
#70 = ORIENTED_EDGE('', *, *, #71, .F.);
#71 = EDGE_CURVE('', #72, #44, #74, .T.);
#72 = VERTEX_POINT('', #73);
#73 = CARTESIAN_POINT('', (72.9289321881345, -28.2842712474619, -10.));
#74 = B_SPLINE_CURVE_WITH_KNOTS('', 1, (#75, #76), .UNSPECIFIED., .F., .U., (2, 2), (0., 20.), .UNSPECIFIED.);
#75 = CARTESIAN_POINT('', (72.9289321881345, -28.2842712474619, -10.));
#76 = CARTESIAN_POINT('', (72.9289321881345, -28.2842712474619, 10.));
#77 = ORIENTED_EDGE('', *, *, #78, .T.);
#78 = EDGE_CURVE('', #72, #79, #81, .T.);
#79 = VERTEX_POINT('', #80);
#80 = CARTESIAN_POINT('', (108.284271247462, 7.07106781186547, -10.));
#81 = B_SPLINE_CURVE_WITH_KNOTS('', 1, (#82, #83), .UNSPECIFIED., .F., .U., (2, 2), (0., 50.), .UNSPECIFIED.);
#82 = CARTESIAN_POINT('', (72.9289321881345, -28.2842712474619, -10.));
#83 = CARTESIAN_POINT('', (108.284271247462, 7.07106781186547, -10.));
#84 = ORIENTED_EDGE('', *, *, #85, .T.);
#85 = EDGE_CURVE('', #79, #51, #86, .T.);
#86 = B_SPLINE_CURVE_WITH_KNOTS('', 1, (#87, #88), .UNSPECIFIED., .F., .U., (2, 2), (0., 20.), .UNSPECIFIED.);
#87 = CARTESIAN_POINT('', (108.284271247462, 7.07106781186547, -10.));
#88 = CARTESIAN_POINT('', (108.284271247462, 7.07106781186547, 10.));
#89 = ORIENTED_EDGE('', *, *, #50, .F.);
#90 = B_SPLINE_SURFACE_WITH_KNOTS('', 1, 1, ((#91, #92), (#93, #94)), .UNSPECIFIED., .F., .F., .U., (2, 2), (2, 2), (0., 50.), (0., 20.), .UNSPECIFIED.);
#91 = CARTESIAN_POINT('', (72.9289321881345, -28.2842712474619, -10.));
#92 = CARTESIAN_POINT('', (72.9289321881345, -28.2842712474619, 10.));
#93 = CARTESIAN_POINT('', (108.284271247462, 7.07106781186547, -10.));
#94 = CARTESIAN_POINT('', (108.284271247462, 7.07106781186547, 10.));
#95 = ADVANCED_FACE('', (#96), #110, .T.);
#96 = FACE_OUTER_BOUND('', #97, .T.);
#97 = EDGE_LOOP('', (#98, #103, #104, #109));
#98 = ORIENTED_EDGE('', *, *, #99, .T.);
#99 = EDGE_CURVE('', #72, #8, #100, .T.);
#100 = B_SPLINE_CURVE_WITH_KNOTS('', 1, (#101, #102), .UNSPECIFIED., .F., .U., (2, 2), (0., 30.), .UNSPECIFIED.);
#101 = CARTESIAN_POINT('', (72.9289321881345, -28.2842712474619, -10.));
#102 = CARTESIAN_POINT('', (51.7157287525381, -7.07106781186547, -10.));
#103 = ORIENTED_EDGE('', *, *, #30, .T.);
#104 = ORIENTED_EDGE('', *, *, #105, .F.);
#105 = EDGE_CURVE('', #79, #24, #106, .T.);
#106 = B_SPLINE_CURVE_WITH_KNOTS('', 1, (#107, #108), .UNSPECIFIED., .F., .U., (2, 2), (0., 30.), .UNSPECIFIED.);
#107 = CARTESIAN_POINT('', (108.284271247462, 7.07106781186547, -10.));
#108 = CARTESIAN_POINT('', (87.0710678118655, 28.2842712474619, -10.));
#109 = ORIENTED_EDGE('', *, *, #78, .F.);
#110 = B_SPLINE_SURFACE_WITH_KNOTS('', 1, 1, ((#111, #112), (#113, #114)), .UNSPECIFIED., .F., .F., .U., (2, 2), (2, 2), (0., 30.), (0., 50.), .UNSPECIFIED.);
#111 = CARTESIAN_POINT('', (72.9289321881345, -28.2842712474619, -10.));
#112 = CARTESIAN_POINT('', (108.284271247462, 7.07106781186547, -10.));
#113 = CARTESIAN_POINT('', (51.7157287525381, -7.07106781186547, -10.));
#114 = CARTESIAN_POINT('', (87.0710678118655, 28.2842712474619, -10.));
#115 = ADVANCED_FACE('', (#116), #122, .T.);
#116 = FACE_OUTER_BOUND('', #117, .T.);
#117 = EDGE_LOOP('', (#118, #119, #120, #121));
#118 = ORIENTED_EDGE('', *, *, #85, .F.);
#119 = ORIENTED_EDGE('', *, *, #105, .T.);
#120 = ORIENTED_EDGE('', *, *, #23, .T.);
#121 = ORIENTED_EDGE('', *, *, #57, .F.);
#122 = B_SPLINE_SURFACE_WITH_KNOTS('', 1, 1, ((#123, #124), (#125, #126)), .UNSPECIFIED., .F., .F., .U., (2, 2), (2, 2), (0., 30.), (0., 20.), .UNSPECIFIED.);
#123 = CARTESIAN_POINT('', (108.284271247462, 7.07106781186547, -10.));
#124 = CARTESIAN_POINT('', (108.284271247462, 7.07106781186547, 10.));
#125 = CARTESIAN_POINT('', (87.0710678118655, 28.2842712474619, -10.));
#126 = CARTESIAN_POINT('', (87.0710678118655, 28.2842712474619, 10.));
#127 = ADVANCED_FACE('', (#128), #134, .T.);
#128 = FACE_OUTER_BOUND('', #129, .T.);
#129 = EDGE_LOOP('', (#130, #131, #132, #133));
#130 = ORIENTED_EDGE('', *, *, #71, .T.);
#131 = ORIENTED_EDGE('', *, *, #43, .T.);
#132 = ORIENTED_EDGE('', *, *, #7, .F.);
#133 = ORIENTED_EDGE('', *, *, #99, .F.);
#134 = B_SPLINE_SURFACE_WITH_KNOTS('', 1, 1, ((#135, #136), (#137, #138)), .UNSPECIFIED., .F., .F., .U., (2, 2), (2, 2), (0., 20.), (0., 30.), .UNSPECIFIED.);
#135 = CARTESIAN_POINT('', (72.9289321881345, -28.2842712474619, -10.));
#136 = CARTESIAN_POINT('', (51.7157287525381, -7.07106781186547, -10.));
#137 = CARTESIAN_POINT('', (72.9289321881345, -28.2842712474619, 10.));
#138 = CARTESIAN_POINT('', (51.7157287525381, -7.07106781186547, 10.));
#139 = DRAUGHTING_MODEL('', (#147, #219, #303, #387), #390);
#140 = PRESENTATION_STYLE_ASSIGNMENT((#141));
#141 = SURFACE_STYLE_USAGE(.POSITIVE., #142);
#142 = SURFACE_SIDE_STYLE('', (#143));
#143 = SURFACE_STYLE_FILL_AREA(#144);
#144 = FILL_AREA_STYLE('', (#145));
#145 = FILL_AREA_STYLE_COLOUR('', #146);
#146 = COLOUR_RGB('', 0.50196078431373, 0.50196078431373, 0.50196078431373);
#147 = STYLED_ITEM('', (#140), #1);
#148 = MANIFOLD_SOLID_BREP('Solid0', #149);
#149 = CLOSED_SHELL('', (#150));
#150 = ADVANCED_FACE('', (#151), #166, .T.);
#151 = FACE_OUTER_BOUND('', #152, .T.);
#152 = EDGE_LOOP('', (#153, #165));
#153 = ORIENTED_EDGE('', *, *, #154, .F.);
#154 = EDGE_CURVE('', #155, #157, #159, .T.);
#155 = VERTEX_POINT('', #156);
#156 = CARTESIAN_POINT('', (80., -1.94840112652986E-15, -15.));
#157 = VERTEX_POINT('', #158);
#158 = CARTESIAN_POINT('', (80., 3.2473352108831E-15, 15.));
#159 = (
   BOUNDED_CURVE ()
   B_SPLINE_CURVE (2, (#160, #161, #162, #163, #164), .UNSPECIFIED., .F., .U.)
   B_SPLINE_CURVE_WITH_KNOTS ((3, 2, 3), (0., 0.5, 1.), .UNSPECIFIED.)
   CURVE ()
   GEOMETRIC_REPRESENTATION_ITEM ()
   RATIONAL_B_SPLINE_CURVE ((1., 0.707106781186548, 1., 0.707106781186548, 1.))
   REPRESENTATION_ITEM ('')
);
#160 = CARTESIAN_POINT('', (80., -1.94840112652986E-15, -15.));
#161 = CARTESIAN_POINT('', (90.6066017177982, 10.6066017177982, -15.));
#162 = CARTESIAN_POINT('', (90.6066017177982, 10.6066017177982, -3.67394039744206E-15));
#163 = CARTESIAN_POINT('', (90.6066017177982, 10.6066017177982, 15.));
#164 = CARTESIAN_POINT('', (80., 3.2473352108831E-15, 15.));
#165 = ORIENTED_EDGE('', *, *, #154, .T.);
#166 = (
   BOUNDED_SURFACE ()
   B_SPLINE_SURFACE (2, 2, ((#167, #168, #169, #170, #171), (#172, #173, #174, #175, #176), (#177, #178, #179, #180, #181), (#182, #183, #184, #185, #186), (#187, #188, #189, #190, #191), (#192, #193, #194, #195, #196), (#197, #198, #199, #200, #201), (#202, #203, #204, #205, #206), (#207, #208, #209, #210, #211)), .UNSPECIFIED., .T., .F., .U.)
   B_SPLINE_SURFACE_WITH_KNOTS ((3, 2, 2, 2, 3), (3, 2, 3), (0., 0.25, 0.5, 0.75, 1.), (0., 0.5, 1.), .UNSPECIFIED.)
   GEOMETRIC_REPRESENTATION_ITEM ()
   RATIONAL_B_SPLINE_SURFACE (((1., 0.707106781186548, 1., 0.707106781186548, 1.), (0.707106781186548, 0.5, 0.707106781186548, 0.5, 0.707106781186548), (1., 0.707106781186548, 1., 0.707106781186548, 1.), (0.707106781186548, 0.5, 0.707106781186548, 0.5, 0.707106781186548), (1., 0.707106781186548, 1., 0.707106781186548, 1.), (0.707106781186548, 0.5, 0.707106781186548, 0.5, 0.707106781186548), (1., 0.707106781186548, 1., 0.707106781186548, 1.), (0.707106781186548, 0.5, 0.707106781186548, 0.5, 0.707106781186548), (1., 0.707106781186548, 1., 0.707106781186548, 1.)))
   REPRESENTATION_ITEM ('')
   SURFACE ()
);
#167 = CARTESIAN_POINT('', (80., -1.94840112652986E-15, -15.));
#168 = CARTESIAN_POINT('', (90.6066017177982, 10.6066017177982, -15.));
#169 = CARTESIAN_POINT('', (90.6066017177982, 10.6066017177982, -3.67394039744206E-15));
#170 = CARTESIAN_POINT('', (90.6066017177982, 10.6066017177982, 15.));
#171 = CARTESIAN_POINT('', (80., 3.2473352108831E-15, 15.));
#172 = CARTESIAN_POINT('', (80., -1.94840112652986E-15, -15.));
#173 = CARTESIAN_POINT('', (80., 21.2132034355964, -15.));
#174 = CARTESIAN_POINT('', (80., 21.2132034355964, -3.67394039744206E-15));
#175 = CARTESIAN_POINT('', (80., 21.2132034355964, 15.));
#176 = CARTESIAN_POINT('', (80., 3.2473352108831E-15, 15.));
#177 = CARTESIAN_POINT('', (80., -1.94840112652986E-15, -15.));
#178 = CARTESIAN_POINT('', (69.3933982822018, 10.6066017177982, -15.));
#179 = CARTESIAN_POINT('', (69.3933982822018, 10.6066017177982, -3.67394039744206E-15));
#180 = CARTESIAN_POINT('', (69.3933982822018, 10.6066017177982, 15.));
#181 = CARTESIAN_POINT('', (80., 3.2473352108831E-15, 15.));
#182 = CARTESIAN_POINT('', (80., -1.94840112652986E-15, -15.));
#183 = CARTESIAN_POINT('', (58.7867965644036, 5.83628062488504E-15, -15.));
#184 = CARTESIAN_POINT('', (58.7867965644036, 3.84441556344423E-15, -3.67394039744206E-15));
#185 = CARTESIAN_POINT('', (58.7867965644036, 2.89311624690988E-15, 15.));
#186 = CARTESIAN_POINT('', (80., 3.2473352108831E-15, 15.));
#187 = CARTESIAN_POINT('', (80., -1.94840112652986E-15, -15.));
#188 = CARTESIAN_POINT('', (69.3933982822018, -10.6066017177982, -15.));
#189 = CARTESIAN_POINT('', (69.3933982822018, -10.6066017177982, -3.67394039744206E-15));
#190 = CARTESIAN_POINT('', (69.3933982822018, -10.6066017177982, 15.));
#191 = CARTESIAN_POINT('', (80., 3.2473352108831E-15, 15.));
#192 = CARTESIAN_POINT('', (80., -1.94840112652986E-15, -15.));
#193 = CARTESIAN_POINT('', (80., -21.2132034355964, -15.));
#194 = CARTESIAN_POINT('', (80., -21.2132034355964, -3.67394039744206E-15));
#195 = CARTESIAN_POINT('', (80., -21.2132034355964, 15.));
#196 = CARTESIAN_POINT('', (80., 3.2473352108831E-15, 15.));
#197 = CARTESIAN_POINT('', (80., -1.94840112652986E-15, -15.));
#198 = CARTESIAN_POINT('', (90.6066017177982, -10.6066017177982, -15.));
#199 = CARTESIAN_POINT('', (90.6066017177982, -10.6066017177982, -3.67394039744206E-15));
#200 = CARTESIAN_POINT('', (90.6066017177982, -10.6066017177982, 15.));
#201 = CARTESIAN_POINT('', (80., 3.2473352108831E-15, 15.));
#202 = CARTESIAN_POINT('', (80., -1.94840112652986E-15, -15.));
#203 = CARTESIAN_POINT('', (101.213203435596, -7.61263746428529E-15, -15.));
#204 = CARTESIAN_POINT('', (101.213203435596, -7.39712924224473E-15, -3.67394039744206E-15));
#205 = CARTESIAN_POINT('', (101.213203435596, -6.66133814775094E-15, 15.));
#206 = CARTESIAN_POINT('', (80., 3.2473352108831E-15, 15.));
#207 = CARTESIAN_POINT('', (80., -1.94840112652986E-15, -15.));
#208 = CARTESIAN_POINT('', (90.6066017177982, 10.6066017177982, -15.));
#209 = CARTESIAN_POINT('', (90.6066017177982, 10.6066017177982, -3.67394039744206E-15));
#210 = CARTESIAN_POINT('', (90.6066017177982, 10.6066017177982, 15.));
#211 = CARTESIAN_POINT('', (80., 3.2473352108831E-15, 15.));
#212 = PRESENTATION_STYLE_ASSIGNMENT((#213));
#213 = SURFACE_STYLE_USAGE(.POSITIVE., #214);
#214 = SURFACE_SIDE_STYLE('', (#215));
#215 = SURFACE_STYLE_FILL_AREA(#216);
#216 = FILL_AREA_STYLE('', (#217));
#217 = FILL_AREA_STYLE_COLOUR('', #218);
#218 = COLOUR_RGB('', 0.50196078431373, 0.50196078431373, 0.50196078431373);
#219 = STYLED_ITEM('', (#212), #148);
#220 = MANIFOLD_SOLID_BREP('Solid1', #221);
#221 = CLOSED_SHELL('', (#222, #278, #287));
#222 = ADVANCED_FACE('', (#223), #259, .T.);
#223 = FACE_OUTER_BOUND('', #224, .T.);
#224 = EDGE_LOOP('', (#225, #234, #246, #247));
#225 = ORIENTED_EDGE('', *, *, #226, .F.);
#226 = EDGE_CURVE('', #227, #229, #231, .T.);
#227 = VERTEX_POINT('', #228);
#228 = CARTESIAN_POINT('', (63.6396103067893, 63.6396103067893, -20.));
#229 = VERTEX_POINT('', #230);
#230 = CARTESIAN_POINT('', (63.6396103067893, 63.6396103067893, 20.));
#231 = B_SPLINE_CURVE_WITH_KNOTS('', 1, (#232, #233), .UNSPECIFIED., .F., .U., (2, 2), (0., 40.), .UNSPECIFIED.);
#232 = CARTESIAN_POINT('', (63.6396103067893, 63.6396103067893, -20.));
#233 = CARTESIAN_POINT('', (63.6396103067893, 63.6396103067893, 20.));
#234 = ORIENTED_EDGE('', *, *, #235, .T.);
#235 = EDGE_CURVE('', #227, #227, #236, .T.);
#236 = (
   BOUNDED_CURVE ()
   B_SPLINE_CURVE (2, (#237, #238, #239, #240, #241, #242, #243, #244, #245), .UNSPECIFIED., .T., .U.)
   B_SPLINE_CURVE_WITH_KNOTS ((3, 2, 2, 2, 3), (0., 15.707963267949, 31.4159265358979, 47.1238898038469, 62.8318530717959), .UNSPECIFIED.)
   CURVE ()
   GEOMETRIC_REPRESENTATION_ITEM ()
   RATIONAL_B_SPLINE_CURVE ((1., 0.707106781186548, 1., 0.707106781186548, 1., 0.707106781186548, 1., 0.707106781186548, 1.))
   REPRESENTATION_ITEM ('')
);
#237 = CARTESIAN_POINT('', (63.6396103067893, 63.6396103067893, -20.));
#238 = CARTESIAN_POINT('', (56.5685424949238, 70.7106781186547, -20.));
#239 = CARTESIAN_POINT('', (49.4974746830583, 63.6396103067893, -20.));
#240 = CARTESIAN_POINT('', (42.4264068711929, 56.5685424949238, -20.));
#241 = CARTESIAN_POINT('', (49.4974746830583, 49.4974746830583, -20.));
#242 = CARTESIAN_POINT('', (56.5685424949238, 42.4264068711928, -20.));
#243 = CARTESIAN_POINT('', (63.6396103067893, 49.4974746830583, -20.));
#244 = CARTESIAN_POINT('', (70.7106781186548, 56.5685424949238, -20.));
#245 = CARTESIAN_POINT('', (63.6396103067893, 63.6396103067893, -20.));
#246 = ORIENTED_EDGE('', *, *, #226, .T.);
#247 = ORIENTED_EDGE('', *, *, #248, .F.);
#248 = EDGE_CURVE('', #229, #229, #249, .T.);
#249 = (
   BOUNDED_CURVE ()
   B_SPLINE_CURVE (2, (#250, #251, #252, #253, #254, #255, #256, #257, #258), .UNSPECIFIED., .T., .U.)
   B_SPLINE_CURVE_WITH_KNOTS ((3, 2, 2, 2, 3), (0., 15.707963267949, 31.4159265358979, 47.1238898038469, 62.8318530717959), .UNSPECIFIED.)
   CURVE ()
   GEOMETRIC_REPRESENTATION_ITEM ()
   RATIONAL_B_SPLINE_CURVE ((1., 0.707106781186548, 1., 0.707106781186548, 1., 0.707106781186548, 1., 0.707106781186548, 1.))
   REPRESENTATION_ITEM ('')
);
#250 = CARTESIAN_POINT('', (63.6396103067893, 63.6396103067893, 20.));
#251 = CARTESIAN_POINT('', (56.5685424949238, 70.7106781186547, 20.));
#252 = CARTESIAN_POINT('', (49.4974746830583, 63.6396103067893, 20.));
#253 = CARTESIAN_POINT('', (42.4264068711929, 56.5685424949238, 20.));
#254 = CARTESIAN_POINT('', (49.4974746830583, 49.4974746830583, 20.));
#255 = CARTESIAN_POINT('', (56.5685424949238, 42.4264068711928, 20.));
#256 = CARTESIAN_POINT('', (63.6396103067893, 49.4974746830583, 20.));
#257 = CARTESIAN_POINT('', (70.7106781186548, 56.5685424949238, 20.));
#258 = CARTESIAN_POINT('', (63.6396103067893, 63.6396103067893, 20.));
#259 = (
   BOUNDED_SURFACE ()
   B_SPLINE_SURFACE (2, 1, ((#260, #261), (#262, #263), (#264, #265), (#266, #267), (#268, #269), (#270, #271), (#272, #273), (#274, #275), (#276, #277)), .UNSPECIFIED., .T., .F., .U.)
   B_SPLINE_SURFACE_WITH_KNOTS ((3, 2, 2, 2, 3), (2, 2), (0., 15.707963267949, 31.4159265358979, 47.1238898038469, 62.8318530717959), (0., 40.), .UNSPECIFIED.)
   GEOMETRIC_REPRESENTATION_ITEM ()
   RATIONAL_B_SPLINE_SURFACE (((1., 1.), (0.707106781186548, 0.707106781186548), (1., 1.), (0.707106781186548, 0.707106781186548), (1., 1.), (0.707106781186548, 0.707106781186548), (1., 1.), (0.707106781186548, 0.707106781186548), (1., 1.)))
   REPRESENTATION_ITEM ('')
   SURFACE ()
);
#260 = CARTESIAN_POINT('', (63.6396103067893, 63.6396103067893, -20.));
#261 = CARTESIAN_POINT('', (63.6396103067893, 63.6396103067893, 20.));
#262 = CARTESIAN_POINT('', (56.5685424949238, 70.7106781186547, -20.));
#263 = CARTESIAN_POINT('', (56.5685424949238, 70.7106781186547, 20.));
#264 = CARTESIAN_POINT('', (49.4974746830583, 63.6396103067893, -20.));
#265 = CARTESIAN_POINT('', (49.4974746830583, 63.6396103067893, 20.));
#266 = CARTESIAN_POINT('', (42.4264068711929, 56.5685424949238, -20.));
#267 = CARTESIAN_POINT('', (42.4264068711929, 56.5685424949238, 20.));
#268 = CARTESIAN_POINT('', (49.4974746830583, 49.4974746830583, -20.));
#269 = CARTESIAN_POINT('', (49.4974746830583, 49.4974746830583, 20.));
#270 = CARTESIAN_POINT('', (56.5685424949238, 42.4264068711928, -20.));
#271 = CARTESIAN_POINT('', (56.5685424949238, 42.4264068711928, 20.));
#272 = CARTESIAN_POINT('', (63.6396103067893, 49.4974746830583, -20.));
#273 = CARTESIAN_POINT('', (63.6396103067893, 49.4974746830583, 20.));
#274 = CARTESIAN_POINT('', (70.7106781186548, 56.5685424949238, -20.));
#275 = CARTESIAN_POINT('', (70.7106781186548, 56.5685424949238, 20.));
#276 = CARTESIAN_POINT('', (63.6396103067893, 63.6396103067893, -20.));
#277 = CARTESIAN_POINT('', (63.6396103067893, 63.6396103067893, 20.));
#278 = ADVANCED_FACE('', (#279), #282, .T.);
#279 = FACE_OUTER_BOUND('', #280, .T.);
#280 = EDGE_LOOP('', (#281));
#281 = ORIENTED_EDGE('', *, *, #235, .F.);
#282 = B_SPLINE_SURFACE_WITH_KNOTS('', 1, 1, ((#283, #284), (#285, #286)), .UNSPECIFIED., .F., .F., .U., (2, 2), (2, 2), (0., 1.), (0., 1.), .UNSPECIFIED.);
#283 = CARTESIAN_POINT('', (78.5685424949238, 56.5685424949238, -20.));
#284 = CARTESIAN_POINT('', (56.5685424949238, 78.5685424949238, -20.));
#285 = CARTESIAN_POINT('', (56.5685424949238, 34.5685424949238, -20.));
#286 = CARTESIAN_POINT('', (34.5685424949238, 56.5685424949238, -20.));
#287 = ADVANCED_FACE('', (#288), #291, .T.);
#288 = FACE_OUTER_BOUND('', #289, .T.);
#289 = EDGE_LOOP('', (#290));
#290 = ORIENTED_EDGE('', *, *, #248, .T.);
#291 = B_SPLINE_SURFACE_WITH_KNOTS('', 1, 1, ((#292, #293), (#294, #295)), .UNSPECIFIED., .F., .F., .U., (2, 2), (2, 2), (0., 1.), (0., 1.), .UNSPECIFIED.);
#292 = CARTESIAN_POINT('', (78.5685424949238, 56.5685424949238, 20.));
#293 = CARTESIAN_POINT('', (56.5685424949238, 34.5685424949238, 20.));
#294 = CARTESIAN_POINT('', (56.5685424949238, 78.5685424949238, 20.));
#295 = CARTESIAN_POINT('', (34.5685424949238, 56.5685424949238, 20.));
#296 = PRESENTATION_STYLE_ASSIGNMENT((#297));
#297 = SURFACE_STYLE_USAGE(.POSITIVE., #298);
#298 = SURFACE_SIDE_STYLE('', (#299));
#299 = SURFACE_STYLE_FILL_AREA(#300);
#300 = FILL_AREA_STYLE('', (#301));
#301 = FILL_AREA_STYLE_COLOUR('', #302);
#302 = COLOUR_RGB('', 0.50196078431373, 0.50196078431373, 0.50196078431373);
#303 = STYLED_ITEM('', (#296), #220);
#304 = MANIFOLD_SOLID_BREP('Solid2', #305);
#305 = CLOSED_SHELL('', (#306, #362, #371));
#306 = ADVANCED_FACE('', (#307), #343, .T.);
#307 = FACE_OUTER_BOUND('', #308, .T.);
#308 = EDGE_LOOP('', (#309, #318, #330, #331));
#309 = ORIENTED_EDGE('', *, *, #310, .F.);
#310 = EDGE_CURVE('', #311, #313, #315, .T.);
#311 = VERTEX_POINT('', #312);
#312 = CARTESIAN_POINT('', (8.83883476483185, 121.975919754679, -20.));
#313 = VERTEX_POINT('', #314);
#314 = CARTESIAN_POINT('', (1.76776695296638, 114.904851942814, 20.));
#315 = B_SPLINE_CURVE_WITH_KNOTS('', 1, (#316, #317), .UNSPECIFIED., .F., .U., (2, 2), (0., 40.), .UNSPECIFIED.);
#316 = CARTESIAN_POINT('', (8.83883476483185, 121.975919754679, -20.));
#317 = CARTESIAN_POINT('', (1.76776695296638, 114.904851942814, 20.));
#318 = ORIENTED_EDGE('', *, *, #319, .T.);
#319 = EDGE_CURVE('', #311, #311, #320, .T.);
#320 = (
   BOUNDED_CURVE ()
   B_SPLINE_CURVE (2, (#321, #322, #323, #324, #325, #326, #327, #328, #329), .UNSPECIFIED., .T., .U.)
   B_SPLINE_CURVE_WITH_KNOTS ((3, 2, 2, 2, 3), (0., 0.25, 0.5, 0.75, 1.), .UNSPECIFIED.)
   CURVE ()
   GEOMETRIC_REPRESENTATION_ITEM ()
   RATIONAL_B_SPLINE_CURVE ((1., 0.707106781186548, 1., 0.707106781186548, 1., 0.707106781186548, 1., 0.707106781186548, 1.))
   REPRESENTATION_ITEM ('')
);
#321 = CARTESIAN_POINT('', (8.83883476483185, 121.975919754679, -20.));
#322 = CARTESIAN_POINT('', (1.62647673107585E-14, 130.814754519511, -20.));
#323 = CARTESIAN_POINT('', (-8.83883476483183, 121.975919754679, -20.));
#324 = CARTESIAN_POINT('', (-17.6776695296637, 113.137084989848, -20.));
#325 = CARTESIAN_POINT('', (-8.83883476483184, 104.298250225016, -20.));
#326 = CARTESIAN_POINT('', (8.60422844084496E-15, 95.4594154601839, -20.));
#327 = CARTESIAN_POINT('', (8.83883476483185, 104.298250225016, -20.));
#328 = CARTESIAN_POINT('', (17.6776695296637, 113.137084989848, -20.));
#329 = CARTESIAN_POINT('', (8.83883476483185, 121.975919754679, -20.));
#330 = ORIENTED_EDGE('', *, *, #310, .T.);
#331 = ORIENTED_EDGE('', *, *, #332, .F.);
#332 = EDGE_CURVE('', #313, #313, #333, .T.);
#333 = (
   BOUNDED_CURVE ()
   B_SPLINE_CURVE (2, (#334, #335, #336, #337, #338, #339, #340, #341, #342), .UNSPECIFIED., .T., .U.)
   B_SPLINE_CURVE_WITH_KNOTS ((3, 2, 2, 2, 3), (0., 0.25, 0.5, 0.75, 1.), .UNSPECIFIED.)
   CURVE ()
   GEOMETRIC_REPRESENTATION_ITEM ()
   RATIONAL_B_SPLINE_CURVE ((1., 0.707106781186548, 1., 0.707106781186548, 1., 0.707106781186548, 1., 0.707106781186548, 1.))
   REPRESENTATION_ITEM ('')
);
#334 = CARTESIAN_POINT('', (1.76776695296638, 114.904851942814, 20.));
#335 = CARTESIAN_POINT('', (8.93729534823251E-15, 116.67261889578, 20.));
#336 = CARTESIAN_POINT('', (-1.76776695296636, 114.904851942814, 20.));
#337 = CARTESIAN_POINT('', (-3.53553390593273, 113.137084989848, 20.));
#338 = CARTESIAN_POINT('', (-1.76776695296636, 111.369318036881, 20.));
#339 = CARTESIAN_POINT('', (8.82627304576999E-15, 109.601551083915, 20.));
#340 = CARTESIAN_POINT('', (1.76776695296638, 111.369318036881, 20.));
#341 = CARTESIAN_POINT('', (3.53553390593275, 113.137084989848, 20.));
#342 = CARTESIAN_POINT('', (1.76776695296638, 114.904851942814, 20.));
#343 = (
   BOUNDED_SURFACE ()
   B_SPLINE_SURFACE (2, 1, ((#344, #345), (#346, #347), (#348, #349), (#350, #351), (#352, #353), (#354, #355), (#356, #357), (#358, #359), (#360, #361)), .UNSPECIFIED., .T., .F., .U.)
   B_SPLINE_SURFACE_WITH_KNOTS ((3, 2, 2, 2, 3), (2, 2), (0., 0.25, 0.5, 0.75, 1.), (0., 40.), .UNSPECIFIED.)
   GEOMETRIC_REPRESENTATION_ITEM ()
   RATIONAL_B_SPLINE_SURFACE (((1., 1.), (0.707106781186548, 0.707106781186548), (1., 1.), (0.707106781186548, 0.707106781186548), (1., 1.), (0.707106781186548, 0.707106781186548), (1., 1.), (0.707106781186548, 0.707106781186548), (1., 1.)))
   REPRESENTATION_ITEM ('')
   SURFACE ()
);
#344 = CARTESIAN_POINT('', (8.83883476483185, 121.975919754679, -20.));
#345 = CARTESIAN_POINT('', (1.76776695296638, 114.904851942814, 20.));
#346 = CARTESIAN_POINT('', (1.62647673107585E-14, 130.814754519511, -20.));
#347 = CARTESIAN_POINT('', (8.93729534823251E-15, 116.67261889578, 20.));
#348 = CARTESIAN_POINT('', (-8.83883476483183, 121.975919754679, -20.));
#349 = CARTESIAN_POINT('', (-1.76776695296636, 114.904851942814, 20.));
#350 = CARTESIAN_POINT('', (-17.6776695296637, 113.137084989848, -20.));
#351 = CARTESIAN_POINT('', (-3.53553390593273, 113.137084989848, 20.));
#352 = CARTESIAN_POINT('', (-8.83883476483184, 104.298250225016, -20.));
#353 = CARTESIAN_POINT('', (-1.76776695296636, 111.369318036881, 20.));
#354 = CARTESIAN_POINT('', (8.60422844084496E-15, 95.4594154601839, -20.));
#355 = CARTESIAN_POINT('', (8.82627304576999E-15, 109.601551083915, 20.));
#356 = CARTESIAN_POINT('', (8.83883476483185, 104.298250225016, -20.));
#357 = CARTESIAN_POINT('', (1.76776695296638, 111.369318036881, 20.));
#358 = CARTESIAN_POINT('', (17.6776695296637, 113.137084989848, -20.));
#359 = CARTESIAN_POINT('', (3.53553390593275, 113.137084989848, 20.));
#360 = CARTESIAN_POINT('', (8.83883476483185, 121.975919754679, -20.));
#361 = CARTESIAN_POINT('', (1.76776695296638, 114.904851942814, 20.));
#362 = ADVANCED_FACE('', (#363), #366, .T.);
#363 = FACE_OUTER_BOUND('', #364, .T.);
#364 = EDGE_LOOP('', (#365));
#365 = ORIENTED_EDGE('', *, *, #319, .F.);
#366 = B_SPLINE_SURFACE_WITH_KNOTS('', 1, 1, ((#367, #368), (#369, #370)), .UNSPECIFIED., .F., .F., .U., (2, 2), (2, 2), (0., 1.), (0., 1.), .UNSPECIFIED.);
#367 = CARTESIAN_POINT('', (27.5, 113.137084989848, -20.));
#368 = CARTESIAN_POINT('', (1.32730205296954E-14, 140.637084989848, -20.));
#369 = CARTESIAN_POINT('', (9.51484373209518E-15, 85.6370849898476, -20.));
#370 = CARTESIAN_POINT('', (-27.5, 113.137084989848, -20.));
#371 = ADVANCED_FACE('', (#372), #375, .T.);
#372 = FACE_OUTER_BOUND('', #373, .T.);
#373 = EDGE_LOOP('', (#374));
#374 = ORIENTED_EDGE('', *, *, #332, .T.);
#375 = B_SPLINE_SURFACE_WITH_KNOTS('', 1, 1, ((#376, #377), (#378, #379)), .UNSPECIFIED., .F., .F., .U., (2, 2), (2, 2), (0., 1.), (0., 1.), .UNSPECIFIED.);
#376 = CARTESIAN_POINT('', (5.50000000000001, 113.137084989848, 20.));
#377 = CARTESIAN_POINT('', (6.58245145894222E-15, 107.637084989848, 20.));
#378 = CARTESIAN_POINT('', (1.11811169350603E-14, 118.637084989848, 20.));
#379 = CARTESIAN_POINT('', (-5.49999999999999, 113.137084989848, 20.));
#380 = PRESENTATION_STYLE_ASSIGNMENT((#381));
#381 = SURFACE_STYLE_USAGE(.POSITIVE., #382);
#382 = SURFACE_SIDE_STYLE('', (#383));
#383 = SURFACE_STYLE_FILL_AREA(#384);
#384 = FILL_AREA_STYLE('', (#385));
#385 = FILL_AREA_STYLE_COLOUR('', #386);
#386 = COLOUR_RGB('', 0.50196078431373, 0.50196078431373, 0.50196078431373);
#387 = STYLED_ITEM('', (#380), #304);
#388 = CARTESIAN_POINT('Origin', (0., 0., 0.));
#389 = GEOMETRIC_SET('', (#388));
#390 = (
   GEOMETRIC_REPRESENTATION_CONTEXT (3)
   GLOBAL_UNCERTAINTY_ASSIGNED_CONTEXT ((#392))
   GLOBAL_UNIT_ASSIGNED_CONTEXT ((#391, #393, #394))
   REPRESENTATION_CONTEXT ('', '3D')
);
#391 = (
   LENGTH_UNIT ()
   NAMED_UNIT (*)
   SI_UNIT (.MILLI., .METRE.)
);
#392 = UNCERTAINTY_MEASURE_WITH_UNIT(LENGTH_MEASURE(1.E-6), #391, 'DISTANCE_ACCURACY_VALUE', '');
#393 = (
   NAMED_UNIT (*)
   SI_UNIT ($, .STERADIAN.)
   SOLID_ANGLE_UNIT ()
);
#394 = (
   NAMED_UNIT (*)
   PLANE_ANGLE_UNIT ()
   SI_UNIT ($, .RADIAN.)
);
#395 = SHAPE_REPRESENTATION('', (#410), #390);
#396 = PRODUCT_DEFINITION_SHAPE('', '', #397);
#397 = PRODUCT_DEFINITION('', '', #400, #404);
#398 = APPLICATION_CONTEXT('configuration controlled 3D designs of mechanical parts and assemblies');
#399 = APPLICATION_PROTOCOL_DEFINITION('International Standard', 'automotive_design', 2002, #398);
#400 = PRODUCT_DEFINITION_FORMATION_WITH_SPECIFIED_SOURCE('', '', #401, .NOT_KNOWN.);
#401 = PRODUCT('CrossPrimitive', 'CrossPrimitive', '', (#402));
#402 = PRODUCT_CONTEXT('', #398, 'mechanical');
#403 = PRODUCT_RELATED_PRODUCT_CATEGORY('detail', '', (#401));
#404 = PRODUCT_DEFINITION_CONTEXT('part definition', #398, 'design');
#405 = SHAPE_DEFINITION_REPRESENTATION(#396, #395);
#406 = SHAPE_REPRESENTATION_RELATIONSHIP('', '', #395, #407);
#407 = SHAPE_REPRESENTATION('', (#389), #390);
#408 = SHAPE_REPRESENTATION_RELATIONSHIP('', '', #395, #409);
#409 = ADVANCED_BREP_SHAPE_REPRESENTATION('', (#1, #148, #220, #304), #390);
#410 = AXIS2_PLACEMENT_3D('', #411, #412, #413);
#411 = CARTESIAN_POINT('', (0., 0., 0.));
#412 = DIRECTION('', (0., 0., 1.));
#413 = DIRECTION('', (1., 0., 0.));
ENDSEC;
END-ISO-10303-21;
