ISO-10303-21;
HEADER;
FILE_DESCRIPTION(('STEP'), '1');
FILE_NAME('GearTest', '2026-04-29T19:07:56', (''), (''), 'Express 3.1.3.0', 'Express Tool', 'Unknown');
FILE_SCHEMA(('AUTOMOTIVE_DESIGN'));
ENDSEC;

DATA;
#1 = (
   GEOMETRIC_REPRESENTATION_CONTEXT (3)
   GLOBAL_UNCERTAINTY_ASSIGNED_CONTEXT ((#3))
   GLOBAL_UNIT_ASSIGNED_CONTEXT ((#2, #4, #5))
   REPRESENTATION_CONTEXT ('', '3D')
);
#2 = (
   LENGTH_UNIT ()
   NAMED_UNIT (*)
   SI_UNIT (.MILLI., .METRE.)
);
#3 = UNCERTAINTY_MEASURE_WITH_UNIT(LENGTH_MEASURE(1.E-6), #2, 'DISTANCE_ACCURACY_VALUE', '');
#4 = (
   NAMED_UNIT (*)
   SI_UNIT ($, .STERADIAN.)
   SOLID_ANGLE_UNIT ()
);
#5 = (
   NAMED_UNIT (*)
   PLANE_ANGLE_UNIT ()
   SI_UNIT ($, .RADIAN.)
);
#6 = SHAPE_REPRESENTATION('', (#128, #250, #372), #1);
#7 = PRODUCT_DEFINITION_SHAPE('', '', #8);
#8 = PRODUCT_DEFINITION('', '', #11, #15);
#9 = APPLICATION_CONTEXT('configuration controlled 3D designs of mechanical parts and assemblies');
#10 = APPLICATION_PROTOCOL_DEFINITION('International Standard', 'automotive_design', 2002, #9);
#11 = PRODUCT_DEFINITION_FORMATION_WITH_SPECIFIED_SOURCE('', '', #12, .NOT_KNOWN.);
#12 = PRODUCT('GearTest', 'GearTest', '', (#13));
#13 = PRODUCT_CONTEXT('', #9, 'mechanical');
#14 = PRODUCT_RELATED_PRODUCT_CATEGORY('detail', '', (#12));
#15 = PRODUCT_DEFINITION_CONTEXT('part definition', #9, 'design');
#16 = SHAPE_DEFINITION_REPRESENTATION(#7, #6);
#17 = MANIFOLD_SOLID_BREP('Cyl1_0', #18);
#18 = CLOSED_SHELL('', (#19, #75, #84));
#19 = ADVANCED_FACE('', (#20), #56, .T.);
#20 = FACE_OUTER_BOUND('', #21, .T.);
#21 = EDGE_LOOP('', (#22, #31, #43, #44));
#22 = ORIENTED_EDGE('', *, *, #23, .F.);
#23 = EDGE_CURVE('', #24, #26, #28, .T.);
#24 = VERTEX_POINT('', #25);
#25 = CARTESIAN_POINT('', (20., 0., 0.));
#26 = VERTEX_POINT('', #27);
#27 = CARTESIAN_POINT('', (20., 0., 10.));
#28 = B_SPLINE_CURVE_WITH_KNOTS('', 1, (#29, #30), .UNSPECIFIED., .F., .U., (2, 2), (0., 10.), .UNSPECIFIED.);
#29 = CARTESIAN_POINT('', (20., 0., 0.));
#30 = CARTESIAN_POINT('', (20., 0., 10.));
#31 = ORIENTED_EDGE('', *, *, #32, .T.);
#32 = EDGE_CURVE('', #24, #24, #33, .T.);
#33 = (
   BOUNDED_CURVE ()
   B_SPLINE_CURVE (2, (#34, #35, #36, #37, #38, #39, #40, #41, #42), .UNSPECIFIED., .T., .U.)
   B_SPLINE_CURVE_WITH_KNOTS ((3, 2, 2, 2, 3), (0., 31.4159265358979, 62.8318530717959, 94.2477796076938, 125.663706143592), .UNSPECIFIED.)
   CURVE ()
   GEOMETRIC_REPRESENTATION_ITEM ()
   RATIONAL_B_SPLINE_CURVE ((1., 0.707106781186548, 1., 0.707106781186548, 1., 0.707106781186548, 1., 0.707106781186548, 1.))
   REPRESENTATION_ITEM ('')
);
#34 = CARTESIAN_POINT('', (20., 0., 0.));
#35 = CARTESIAN_POINT('', (20., 20., 0.));
#36 = CARTESIAN_POINT('', (1.22464679914735E-15, 20., 0.));
#37 = CARTESIAN_POINT('', (-20., 20., 0.));
#38 = CARTESIAN_POINT('', (-20., 2.44929359829471E-15, 0.));
#39 = CARTESIAN_POINT('', (-20., -20., 0.));
#40 = CARTESIAN_POINT('', (-3.67394039744206E-15, -20., 0.));
#41 = CARTESIAN_POINT('', (20., -20., 0.));
#42 = CARTESIAN_POINT('', (20., 0., 0.));
#43 = ORIENTED_EDGE('', *, *, #23, .T.);
#44 = ORIENTED_EDGE('', *, *, #45, .F.);
#45 = EDGE_CURVE('', #26, #26, #46, .T.);
#46 = (
   BOUNDED_CURVE ()
   B_SPLINE_CURVE (2, (#47, #48, #49, #50, #51, #52, #53, #54, #55), .UNSPECIFIED., .T., .U.)
   B_SPLINE_CURVE_WITH_KNOTS ((3, 2, 2, 2, 3), (0., 31.4159265358979, 62.8318530717959, 94.2477796076938, 125.663706143592), .UNSPECIFIED.)
   CURVE ()
   GEOMETRIC_REPRESENTATION_ITEM ()
   RATIONAL_B_SPLINE_CURVE ((1., 0.707106781186548, 1., 0.707106781186548, 1., 0.707106781186548, 1., 0.707106781186548, 1.))
   REPRESENTATION_ITEM ('')
);
#47 = CARTESIAN_POINT('', (20., 0., 10.));
#48 = CARTESIAN_POINT('', (20., 20., 10.));
#49 = CARTESIAN_POINT('', (1.22464679914735E-15, 20., 10.));
#50 = CARTESIAN_POINT('', (-20., 20., 10.));
#51 = CARTESIAN_POINT('', (-20., 2.44929359829471E-15, 10.));
#52 = CARTESIAN_POINT('', (-20., -20., 10.));
#53 = CARTESIAN_POINT('', (-3.67394039744206E-15, -20., 10.));
#54 = CARTESIAN_POINT('', (20., -20., 10.));
#55 = CARTESIAN_POINT('', (20., 0., 10.));
#56 = (
   BOUNDED_SURFACE ()
   B_SPLINE_SURFACE (2, 1, ((#57, #58), (#59, #60), (#61, #62), (#63, #64), (#65, #66), (#67, #68), (#69, #70), (#71, #72), (#73, #74)), .UNSPECIFIED., .T., .F., .U.)
   B_SPLINE_SURFACE_WITH_KNOTS ((3, 2, 2, 2, 3), (2, 2), (0., 31.4159265358979, 62.8318530717959, 94.2477796076938, 125.663706143592), (0., 10.), .UNSPECIFIED.)
   GEOMETRIC_REPRESENTATION_ITEM ()
   RATIONAL_B_SPLINE_SURFACE (((1., 1.), (0.707106781186548, 0.707106781186548), (1., 1.), (0.707106781186548, 0.707106781186548), (1., 1.), (0.707106781186548, 0.707106781186548), (1., 1.), (0.707106781186548, 0.707106781186548), (1., 1.)))
   REPRESENTATION_ITEM ('')
   SURFACE ()
);
#57 = CARTESIAN_POINT('', (20., 0., 0.));
#58 = CARTESIAN_POINT('', (20., 0., 10.));
#59 = CARTESIAN_POINT('', (20., 20., 0.));
#60 = CARTESIAN_POINT('', (20., 20., 10.));
#61 = CARTESIAN_POINT('', (1.22464679914735E-15, 20., 0.));
#62 = CARTESIAN_POINT('', (1.22464679914735E-15, 20., 10.));
#63 = CARTESIAN_POINT('', (-20., 20., 0.));
#64 = CARTESIAN_POINT('', (-20., 20., 10.));
#65 = CARTESIAN_POINT('', (-20., 2.44929359829471E-15, 0.));
#66 = CARTESIAN_POINT('', (-20., 2.44929359829471E-15, 10.));
#67 = CARTESIAN_POINT('', (-20., -20., 0.));
#68 = CARTESIAN_POINT('', (-20., -20., 10.));
#69 = CARTESIAN_POINT('', (-3.67394039744206E-15, -20., 0.));
#70 = CARTESIAN_POINT('', (-3.67394039744206E-15, -20., 10.));
#71 = CARTESIAN_POINT('', (20., -20., 0.));
#72 = CARTESIAN_POINT('', (20., -20., 10.));
#73 = CARTESIAN_POINT('', (20., 0., 0.));
#74 = CARTESIAN_POINT('', (20., 0., 10.));
#75 = ADVANCED_FACE('', (#76), #79, .T.);
#76 = FACE_OUTER_BOUND('', #77, .T.);
#77 = EDGE_LOOP('', (#78));
#78 = ORIENTED_EDGE('', *, *, #32, .F.);
#79 = B_SPLINE_SURFACE_WITH_KNOTS('', 1, 1, ((#80, #81), (#82, #83)), .UNSPECIFIED., .F., .F., .U., (2, 2), (2, 2), (0., 1.), (0., 1.), .UNSPECIFIED.);
#80 = CARTESIAN_POINT('', (31.1126983722081, -31.1126983722081, 0.));
#81 = CARTESIAN_POINT('', (31.1126983722081, 31.1126983722081, 0.));
#82 = CARTESIAN_POINT('', (-31.1126983722081, -31.1126983722081, 0.));
#83 = CARTESIAN_POINT('', (-31.1126983722081, 31.1126983722081, 0.));
#84 = ADVANCED_FACE('', (#85), #88, .T.);
#85 = FACE_OUTER_BOUND('', #86, .T.);
#86 = EDGE_LOOP('', (#87));
#87 = ORIENTED_EDGE('', *, *, #45, .T.);
#88 = B_SPLINE_SURFACE_WITH_KNOTS('', 1, 1, ((#89, #90), (#91, #92)), .UNSPECIFIED., .F., .F., .U., (2, 2), (2, 2), (0., 1.), (0., 1.), .UNSPECIFIED.);
#89 = CARTESIAN_POINT('', (31.1126983722081, -31.1126983722081, 10.));
#90 = CARTESIAN_POINT('', (-31.1126983722081, -31.1126983722081, 10.));
#91 = CARTESIAN_POINT('', (31.1126983722081, 31.1126983722081, 9.99999999999999));
#92 = CARTESIAN_POINT('', (-31.1126983722081, 31.1126983722081, 10.));
#93 = DRAUGHTING_MODEL('', (#101), #106);
#94 = PRESENTATION_STYLE_ASSIGNMENT((#95));
#95 = SURFACE_STYLE_USAGE(.POSITIVE., #96);
#96 = SURFACE_SIDE_STYLE('', (#97));
#97 = SURFACE_STYLE_FILL_AREA(#98);
#98 = FILL_AREA_STYLE('', (#99));
#99 = FILL_AREA_STYLE_COLOUR('', #100);
#100 = COLOUR_RGB('', 0.50196078431373, 0.50196078431373, 0.50196078431373);
#101 = STYLED_ITEM('', (#94), #17);
#102 = AXIS2_PLACEMENT_3D('Axis', #103, #104, #105);
#103 = CARTESIAN_POINT('', (0., 0., 0.));
#104 = DIRECTION('', (0., 0., 1.));
#105 = DIRECTION('', (1., 0., 0.));
#106 = (
   GEOMETRIC_REPRESENTATION_CONTEXT (3)
   GLOBAL_UNCERTAINTY_ASSIGNED_CONTEXT ((#108))
   GLOBAL_UNIT_ASSIGNED_CONTEXT ((#107, #109, #110))
   REPRESENTATION_CONTEXT ('', '3D')
);
#107 = (
   LENGTH_UNIT ()
   NAMED_UNIT (*)
   SI_UNIT (.MILLI., .METRE.)
);
#108 = UNCERTAINTY_MEASURE_WITH_UNIT(LENGTH_MEASURE(1.E-6), #107, 'DISTANCE_ACCURACY_VALUE', '');
#109 = (
   NAMED_UNIT (*)
   SI_UNIT ($, .STERADIAN.)
   SOLID_ANGLE_UNIT ()
);
#110 = (
   NAMED_UNIT (*)
   PLANE_ANGLE_UNIT ()
   SI_UNIT ($, .RADIAN.)
);
#111 = SHAPE_REPRESENTATION('', (#132), #106);
#112 = PRODUCT_DEFINITION_SHAPE('', '', #113);
#113 = PRODUCT_DEFINITION('', '', #116, #120);
#114 = APPLICATION_CONTEXT('configuration controlled 3D designs of mechanical parts and assemblies');
#115 = APPLICATION_PROTOCOL_DEFINITION('International Standard', 'automotive_design', 2002, #114);
#116 = PRODUCT_DEFINITION_FORMATION_WITH_SPECIFIED_SOURCE('', '', #117, .NOT_KNOWN.);
#117 = PRODUCT('Wheel1', 'Wheel1', '', (#118));
#118 = PRODUCT_CONTEXT('', #114, 'mechanical');
#119 = PRODUCT_RELATED_PRODUCT_CATEGORY('detail', '', (#117));
#120 = PRODUCT_DEFINITION_CONTEXT('part definition', #114, 'design');
#121 = SHAPE_DEFINITION_REPRESENTATION(#112, #111);
#122 = CONSTRUCTIVE_GEOMETRY_REPRESENTATION('supplemental geometry', (#102), #106);
#123 = CONSTRUCTIVE_GEOMETRY_REPRESENTATION_RELATIONSHIP('', '', #111, #122);
#124 = SHAPE_REPRESENTATION_RELATIONSHIP('', '', #111, #125);
#125 = ADVANCED_BREP_SHAPE_REPRESENTATION('', (#17), #106);
#126 = NEXT_ASSEMBLY_USAGE_OCCURRENCE('', 'W1', 'W1', #8, #113, '');
#127 = PRODUCT_DEFINITION_SHAPE('', '', #126);
#128 = AXIS2_PLACEMENT_3D('', #129, #130, #131);
#129 = CARTESIAN_POINT('', (0., 0., 0.));
#130 = DIRECTION('', (0., 0., 1.));
#131 = DIRECTION('', (1., 0., 0.));
#132 = AXIS2_PLACEMENT_3D('', #133, #134, #135);
#133 = CARTESIAN_POINT('', (0., 0., 0.));
#134 = DIRECTION('', (0., 0., 1.));
#135 = DIRECTION('', (1., 0., 0.));
#136 = ITEM_DEFINED_TRANSFORMATION('', '', #128, #132);
#137 = (
   REPRESENTATION_RELATIONSHIP ('', '', #6, #111)
   REPRESENTATION_RELATIONSHIP_WITH_TRANSFORMATION (#136)
   SHAPE_REPRESENTATION_RELATIONSHIP ()
);
#138 = CONTEXT_DEPENDENT_SHAPE_REPRESENTATION(#137, #127);
#139 = MANIFOLD_SOLID_BREP('Cyl2_0', #140);
#140 = CLOSED_SHELL('', (#141, #197, #206));
#141 = ADVANCED_FACE('', (#142), #178, .T.);
#142 = FACE_OUTER_BOUND('', #143, .T.);
#143 = EDGE_LOOP('', (#144, #153, #165, #166));
#144 = ORIENTED_EDGE('', *, *, #145, .F.);
#145 = EDGE_CURVE('', #146, #148, #150, .T.);
#146 = VERTEX_POINT('', #147);
#147 = CARTESIAN_POINT('', (10., 0., 0.));
#148 = VERTEX_POINT('', #149);
#149 = CARTESIAN_POINT('', (10., 0., 10.));
#150 = B_SPLINE_CURVE_WITH_KNOTS('', 1, (#151, #152), .UNSPECIFIED., .F., .U., (2, 2), (0., 10.), .UNSPECIFIED.);
#151 = CARTESIAN_POINT('', (10., 0., 0.));
#152 = CARTESIAN_POINT('', (10., 0., 10.));
#153 = ORIENTED_EDGE('', *, *, #154, .T.);
#154 = EDGE_CURVE('', #146, #146, #155, .T.);
#155 = (
   BOUNDED_CURVE ()
   B_SPLINE_CURVE (2, (#156, #157, #158, #159, #160, #161, #162, #163, #164), .UNSPECIFIED., .T., .U.)
   B_SPLINE_CURVE_WITH_KNOTS ((3, 2, 2, 2, 3), (0., 15.707963267949, 31.4159265358979, 47.1238898038469, 62.8318530717959), .UNSPECIFIED.)
   CURVE ()
   GEOMETRIC_REPRESENTATION_ITEM ()
   RATIONAL_B_SPLINE_CURVE ((1., 0.707106781186548, 1., 0.707106781186548, 1., 0.707106781186548, 1., 0.707106781186548, 1.))
   REPRESENTATION_ITEM ('')
);
#156 = CARTESIAN_POINT('', (10., 0., 0.));
#157 = CARTESIAN_POINT('', (10., 10., 0.));
#158 = CARTESIAN_POINT('', (6.12323399573677E-16, 10., 0.));
#159 = CARTESIAN_POINT('', (-10., 10., 0.));
#160 = CARTESIAN_POINT('', (-10., 1.22464679914735E-15, 0.));
#161 = CARTESIAN_POINT('', (-10., -10., 0.));
#162 = CARTESIAN_POINT('', (-1.83697019872103E-15, -10., 0.));
#163 = CARTESIAN_POINT('', (10., -10., 0.));
#164 = CARTESIAN_POINT('', (10., 0., 0.));
#165 = ORIENTED_EDGE('', *, *, #145, .T.);
#166 = ORIENTED_EDGE('', *, *, #167, .F.);
#167 = EDGE_CURVE('', #148, #148, #168, .T.);
#168 = (
   BOUNDED_CURVE ()
   B_SPLINE_CURVE (2, (#169, #170, #171, #172, #173, #174, #175, #176, #177), .UNSPECIFIED., .T., .U.)
   B_SPLINE_CURVE_WITH_KNOTS ((3, 2, 2, 2, 3), (0., 15.707963267949, 31.4159265358979, 47.1238898038469, 62.8318530717959), .UNSPECIFIED.)
   CURVE ()
   GEOMETRIC_REPRESENTATION_ITEM ()
   RATIONAL_B_SPLINE_CURVE ((1., 0.707106781186548, 1., 0.707106781186548, 1., 0.707106781186548, 1., 0.707106781186548, 1.))
   REPRESENTATION_ITEM ('')
);
#169 = CARTESIAN_POINT('', (10., 0., 10.));
#170 = CARTESIAN_POINT('', (10., 10., 10.));
#171 = CARTESIAN_POINT('', (6.12323399573677E-16, 10., 10.));
#172 = CARTESIAN_POINT('', (-10., 10., 10.));
#173 = CARTESIAN_POINT('', (-10., 1.22464679914735E-15, 10.));
#174 = CARTESIAN_POINT('', (-10., -10., 10.));
#175 = CARTESIAN_POINT('', (-1.83697019872103E-15, -10., 10.));
#176 = CARTESIAN_POINT('', (10., -10., 10.));
#177 = CARTESIAN_POINT('', (10., 0., 10.));
#178 = (
   BOUNDED_SURFACE ()
   B_SPLINE_SURFACE (2, 1, ((#179, #180), (#181, #182), (#183, #184), (#185, #186), (#187, #188), (#189, #190), (#191, #192), (#193, #194), (#195, #196)), .UNSPECIFIED., .T., .F., .U.)
   B_SPLINE_SURFACE_WITH_KNOTS ((3, 2, 2, 2, 3), (2, 2), (0., 15.707963267949, 31.4159265358979, 47.1238898038469, 62.8318530717959), (0., 10.), .UNSPECIFIED.)
   GEOMETRIC_REPRESENTATION_ITEM ()
   RATIONAL_B_SPLINE_SURFACE (((1., 1.), (0.707106781186548, 0.707106781186548), (1., 1.), (0.707106781186548, 0.707106781186548), (1., 1.), (0.707106781186548, 0.707106781186548), (1., 1.), (0.707106781186548, 0.707106781186548), (1., 1.)))
   REPRESENTATION_ITEM ('')
   SURFACE ()
);
#179 = CARTESIAN_POINT('', (10., 0., 0.));
#180 = CARTESIAN_POINT('', (10., 0., 10.));
#181 = CARTESIAN_POINT('', (10., 10., 0.));
#182 = CARTESIAN_POINT('', (10., 10., 10.));
#183 = CARTESIAN_POINT('', (6.12323399573677E-16, 10., 0.));
#184 = CARTESIAN_POINT('', (6.12323399573677E-16, 10., 10.));
#185 = CARTESIAN_POINT('', (-10., 10., 0.));
#186 = CARTESIAN_POINT('', (-10., 10., 10.));
#187 = CARTESIAN_POINT('', (-10., 1.22464679914735E-15, 0.));
#188 = CARTESIAN_POINT('', (-10., 1.22464679914735E-15, 10.));
#189 = CARTESIAN_POINT('', (-10., -10., 0.));
#190 = CARTESIAN_POINT('', (-10., -10., 10.));
#191 = CARTESIAN_POINT('', (-1.83697019872103E-15, -10., 0.));
#192 = CARTESIAN_POINT('', (-1.83697019872103E-15, -10., 10.));
#193 = CARTESIAN_POINT('', (10., -10., 0.));
#194 = CARTESIAN_POINT('', (10., -10., 10.));
#195 = CARTESIAN_POINT('', (10., 0., 0.));
#196 = CARTESIAN_POINT('', (10., 0., 10.));
#197 = ADVANCED_FACE('', (#198), #201, .T.);
#198 = FACE_OUTER_BOUND('', #199, .T.);
#199 = EDGE_LOOP('', (#200));
#200 = ORIENTED_EDGE('', *, *, #154, .F.);
#201 = B_SPLINE_SURFACE_WITH_KNOTS('', 1, 1, ((#202, #203), (#204, #205)), .UNSPECIFIED., .F., .F., .U., (2, 2), (2, 2), (0., 1.), (0., 1.), .UNSPECIFIED.);
#202 = CARTESIAN_POINT('', (15.556349186104, -15.5563491861041, 0.));
#203 = CARTESIAN_POINT('', (15.556349186104, 15.556349186104, 0.));
#204 = CARTESIAN_POINT('', (-15.5563491861041, -15.5563491861041, 0.));
#205 = CARTESIAN_POINT('', (-15.5563491861041, 15.556349186104, 0.));
#206 = ADVANCED_FACE('', (#207), #210, .T.);
#207 = FACE_OUTER_BOUND('', #208, .T.);
#208 = EDGE_LOOP('', (#209));
#209 = ORIENTED_EDGE('', *, *, #167, .T.);
#210 = B_SPLINE_SURFACE_WITH_KNOTS('', 1, 1, ((#211, #212), (#213, #214)), .UNSPECIFIED., .F., .F., .U., (2, 2), (2, 2), (0., 1.), (0., 1.), .UNSPECIFIED.);
#211 = CARTESIAN_POINT('', (15.556349186104, -15.5563491861041, 10.));
#212 = CARTESIAN_POINT('', (-15.5563491861041, -15.5563491861041, 10.));
#213 = CARTESIAN_POINT('', (15.556349186104, 15.556349186104, 9.99999999999999));
#214 = CARTESIAN_POINT('', (-15.5563491861041, 15.556349186104, 10.));
#215 = DRAUGHTING_MODEL('', (#223), #228);
#216 = PRESENTATION_STYLE_ASSIGNMENT((#217));
#217 = SURFACE_STYLE_USAGE(.POSITIVE., #218);
#218 = SURFACE_SIDE_STYLE('', (#219));
#219 = SURFACE_STYLE_FILL_AREA(#220);
#220 = FILL_AREA_STYLE('', (#221));
#221 = FILL_AREA_STYLE_COLOUR('', #222);
#222 = COLOUR_RGB('', 0.50196078431373, 0.50196078431373, 0.50196078431373);
#223 = STYLED_ITEM('', (#216), #139);
#224 = AXIS2_PLACEMENT_3D('Axis', #225, #226, #227);
#225 = CARTESIAN_POINT('', (0., 0., 0.));
#226 = DIRECTION('', (0., 0., 1.));
#227 = DIRECTION('', (1., 0., 0.));
#228 = (
   GEOMETRIC_REPRESENTATION_CONTEXT (3)
   GLOBAL_UNCERTAINTY_ASSIGNED_CONTEXT ((#230))
   GLOBAL_UNIT_ASSIGNED_CONTEXT ((#229, #231, #232))
   REPRESENTATION_CONTEXT ('', '3D')
);
#229 = (
   LENGTH_UNIT ()
   NAMED_UNIT (*)
   SI_UNIT (.MILLI., .METRE.)
);
#230 = UNCERTAINTY_MEASURE_WITH_UNIT(LENGTH_MEASURE(1.E-6), #229, 'DISTANCE_ACCURACY_VALUE', '');
#231 = (
   NAMED_UNIT (*)
   SI_UNIT ($, .STERADIAN.)
   SOLID_ANGLE_UNIT ()
);
#232 = (
   NAMED_UNIT (*)
   PLANE_ANGLE_UNIT ()
   SI_UNIT ($, .RADIAN.)
);
#233 = SHAPE_REPRESENTATION('', (#254), #228);
#234 = PRODUCT_DEFINITION_SHAPE('', '', #235);
#235 = PRODUCT_DEFINITION('', '', #238, #242);
#236 = APPLICATION_CONTEXT('configuration controlled 3D designs of mechanical parts and assemblies');
#237 = APPLICATION_PROTOCOL_DEFINITION('International Standard', 'automotive_design', 2002, #236);
#238 = PRODUCT_DEFINITION_FORMATION_WITH_SPECIFIED_SOURCE('', '', #239, .NOT_KNOWN.);
#239 = PRODUCT('Wheel2', 'Wheel2', '', (#240));
#240 = PRODUCT_CONTEXT('', #236, 'mechanical');
#241 = PRODUCT_RELATED_PRODUCT_CATEGORY('detail', '', (#239));
#242 = PRODUCT_DEFINITION_CONTEXT('part definition', #236, 'design');
#243 = SHAPE_DEFINITION_REPRESENTATION(#234, #233);
#244 = CONSTRUCTIVE_GEOMETRY_REPRESENTATION('supplemental geometry', (#224), #228);
#245 = CONSTRUCTIVE_GEOMETRY_REPRESENTATION_RELATIONSHIP('', '', #233, #244);
#246 = SHAPE_REPRESENTATION_RELATIONSHIP('', '', #233, #247);
#247 = ADVANCED_BREP_SHAPE_REPRESENTATION('', (#139), #228);
#248 = NEXT_ASSEMBLY_USAGE_OCCURRENCE('', 'W2', 'W2', #8, #235, '');
#249 = PRODUCT_DEFINITION_SHAPE('', '', #248);
#250 = AXIS2_PLACEMENT_3D('', #251, #252, #253);
#251 = CARTESIAN_POINT('', (0., 0., 0.));
#252 = DIRECTION('', (0., 0., 1.));
#253 = DIRECTION('', (1., 0., 0.));
#254 = AXIS2_PLACEMENT_3D('', #255, #256, #257);
#255 = CARTESIAN_POINT('', (0., 0., 0.));
#256 = DIRECTION('', (0., 0., 1.));
#257 = DIRECTION('', (1., 0., 0.));
#258 = ITEM_DEFINED_TRANSFORMATION('', '', #250, #254);
#259 = (
   REPRESENTATION_RELATIONSHIP ('', '', #6, #233)
   REPRESENTATION_RELATIONSHIP_WITH_TRANSFORMATION (#258)
   SHAPE_REPRESENTATION_RELATIONSHIP ()
);
#260 = CONTEXT_DEPENDENT_SHAPE_REPRESENTATION(#259, #249);
#261 = MANIFOLD_SOLID_BREP('Cyl3_0', #262);
#262 = CLOSED_SHELL('', (#263, #319, #328));
#263 = ADVANCED_FACE('', (#264), #300, .T.);
#264 = FACE_OUTER_BOUND('', #265, .T.);
#265 = EDGE_LOOP('', (#266, #275, #287, #288));
#266 = ORIENTED_EDGE('', *, *, #267, .F.);
#267 = EDGE_CURVE('', #268, #270, #272, .T.);
#268 = VERTEX_POINT('', #269);
#269 = CARTESIAN_POINT('', (15., 0., 0.));
#270 = VERTEX_POINT('', #271);
#271 = CARTESIAN_POINT('', (15., 0., 10.));
#272 = B_SPLINE_CURVE_WITH_KNOTS('', 1, (#273, #274), .UNSPECIFIED., .F., .U., (2, 2), (0., 10.), .UNSPECIFIED.);
#273 = CARTESIAN_POINT('', (15., 0., 0.));
#274 = CARTESIAN_POINT('', (15., 0., 10.));
#275 = ORIENTED_EDGE('', *, *, #276, .T.);
#276 = EDGE_CURVE('', #268, #268, #277, .T.);
#277 = (
   BOUNDED_CURVE ()
   B_SPLINE_CURVE (2, (#278, #279, #280, #281, #282, #283, #284, #285, #286), .UNSPECIFIED., .T., .U.)
   B_SPLINE_CURVE_WITH_KNOTS ((3, 2, 2, 2, 3), (0., 23.5619449019235, 47.1238898038469, 70.6858347057703, 94.2477796076938), .UNSPECIFIED.)
   CURVE ()
   GEOMETRIC_REPRESENTATION_ITEM ()
   RATIONAL_B_SPLINE_CURVE ((1., 0.707106781186548, 1., 0.707106781186548, 1., 0.707106781186548, 1., 0.707106781186548, 1.))
   REPRESENTATION_ITEM ('')
);
#278 = CARTESIAN_POINT('', (15., 0., 0.));
#279 = CARTESIAN_POINT('', (15., 15., 0.));
#280 = CARTESIAN_POINT('', (9.18485099360515E-16, 15., 0.));
#281 = CARTESIAN_POINT('', (-15., 15., 0.));
#282 = CARTESIAN_POINT('', (-15., 1.83697019872103E-15, 0.));
#283 = CARTESIAN_POINT('', (-15., -15., 0.));
#284 = CARTESIAN_POINT('', (-2.75545529808154E-15, -15., 0.));
#285 = CARTESIAN_POINT('', (15., -15., 0.));
#286 = CARTESIAN_POINT('', (15., 0., 0.));
#287 = ORIENTED_EDGE('', *, *, #267, .T.);
#288 = ORIENTED_EDGE('', *, *, #289, .F.);
#289 = EDGE_CURVE('', #270, #270, #290, .T.);
#290 = (
   BOUNDED_CURVE ()
   B_SPLINE_CURVE (2, (#291, #292, #293, #294, #295, #296, #297, #298, #299), .UNSPECIFIED., .T., .U.)
   B_SPLINE_CURVE_WITH_KNOTS ((3, 2, 2, 2, 3), (0., 23.5619449019235, 47.1238898038469, 70.6858347057703, 94.2477796076938), .UNSPECIFIED.)
   CURVE ()
   GEOMETRIC_REPRESENTATION_ITEM ()
   RATIONAL_B_SPLINE_CURVE ((1., 0.707106781186548, 1., 0.707106781186548, 1., 0.707106781186548, 1., 0.707106781186548, 1.))
   REPRESENTATION_ITEM ('')
);
#291 = CARTESIAN_POINT('', (15., 0., 10.));
#292 = CARTESIAN_POINT('', (15., 15., 10.));
#293 = CARTESIAN_POINT('', (9.18485099360515E-16, 15., 10.));
#294 = CARTESIAN_POINT('', (-15., 15., 10.));
#295 = CARTESIAN_POINT('', (-15., 1.83697019872103E-15, 10.));
#296 = CARTESIAN_POINT('', (-15., -15., 10.));
#297 = CARTESIAN_POINT('', (-2.75545529808154E-15, -15., 10.));
#298 = CARTESIAN_POINT('', (15., -15., 10.));
#299 = CARTESIAN_POINT('', (15., 0., 10.));
#300 = (
   BOUNDED_SURFACE ()
   B_SPLINE_SURFACE (2, 1, ((#301, #302), (#303, #304), (#305, #306), (#307, #308), (#309, #310), (#311, #312), (#313, #314), (#315, #316), (#317, #318)), .UNSPECIFIED., .T., .F., .U.)
   B_SPLINE_SURFACE_WITH_KNOTS ((3, 2, 2, 2, 3), (2, 2), (0., 23.5619449019235, 47.1238898038469, 70.6858347057703, 94.2477796076938), (0., 10.), .UNSPECIFIED.)
   GEOMETRIC_REPRESENTATION_ITEM ()
   RATIONAL_B_SPLINE_SURFACE (((1., 1.), (0.707106781186548, 0.707106781186548), (1., 1.), (0.707106781186548, 0.707106781186548), (1., 1.), (0.707106781186548, 0.707106781186548), (1., 1.), (0.707106781186548, 0.707106781186548), (1., 1.)))
   REPRESENTATION_ITEM ('')
   SURFACE ()
);
#301 = CARTESIAN_POINT('', (15., 0., 0.));
#302 = CARTESIAN_POINT('', (15., 0., 10.));
#303 = CARTESIAN_POINT('', (15., 15., 0.));
#304 = CARTESIAN_POINT('', (15., 15., 10.));
#305 = CARTESIAN_POINT('', (9.18485099360515E-16, 15., 0.));
#306 = CARTESIAN_POINT('', (9.18485099360515E-16, 15., 10.));
#307 = CARTESIAN_POINT('', (-15., 15., 0.));
#308 = CARTESIAN_POINT('', (-15., 15., 10.));
#309 = CARTESIAN_POINT('', (-15., 1.83697019872103E-15, 0.));
#310 = CARTESIAN_POINT('', (-15., 1.83697019872103E-15, 10.));
#311 = CARTESIAN_POINT('', (-15., -15., 0.));
#312 = CARTESIAN_POINT('', (-15., -15., 10.));
#313 = CARTESIAN_POINT('', (-2.75545529808154E-15, -15., 0.));
#314 = CARTESIAN_POINT('', (-2.75545529808154E-15, -15., 10.));
#315 = CARTESIAN_POINT('', (15., -15., 0.));
#316 = CARTESIAN_POINT('', (15., -15., 10.));
#317 = CARTESIAN_POINT('', (15., 0., 0.));
#318 = CARTESIAN_POINT('', (15., 0., 10.));
#319 = ADVANCED_FACE('', (#320), #323, .T.);
#320 = FACE_OUTER_BOUND('', #321, .T.);
#321 = EDGE_LOOP('', (#322));
#322 = ORIENTED_EDGE('', *, *, #276, .F.);
#323 = B_SPLINE_SURFACE_WITH_KNOTS('', 1, 1, ((#324, #325), (#326, #327)), .UNSPECIFIED., .F., .F., .U., (2, 2), (2, 2), (0., 1.), (0., 1.), .UNSPECIFIED.);
#324 = CARTESIAN_POINT('', (23.3345237791561, -23.3345237791561, 0.));
#325 = CARTESIAN_POINT('', (23.3345237791561, 23.3345237791561, 0.));
#326 = CARTESIAN_POINT('', (-23.3345237791561, -23.3345237791561, 0.));
#327 = CARTESIAN_POINT('', (-23.3345237791561, 23.3345237791561, 0.));
#328 = ADVANCED_FACE('', (#329), #332, .T.);
#329 = FACE_OUTER_BOUND('', #330, .T.);
#330 = EDGE_LOOP('', (#331));
#331 = ORIENTED_EDGE('', *, *, #289, .T.);
#332 = B_SPLINE_SURFACE_WITH_KNOTS('', 1, 1, ((#333, #334), (#335, #336)), .UNSPECIFIED., .F., .F., .U., (2, 2), (2, 2), (0., 1.), (0., 1.), .UNSPECIFIED.);
#333 = CARTESIAN_POINT('', (23.3345237791561, -23.3345237791561, 10.));
#334 = CARTESIAN_POINT('', (-23.3345237791561, -23.3345237791561, 10.));
#335 = CARTESIAN_POINT('', (23.3345237791561, 23.3345237791561, 10.));
#336 = CARTESIAN_POINT('', (-23.3345237791561, 23.3345237791561, 10.));
#337 = DRAUGHTING_MODEL('', (#345), #350);
#338 = PRESENTATION_STYLE_ASSIGNMENT((#339));
#339 = SURFACE_STYLE_USAGE(.POSITIVE., #340);
#340 = SURFACE_SIDE_STYLE('', (#341));
#341 = SURFACE_STYLE_FILL_AREA(#342);
#342 = FILL_AREA_STYLE('', (#343));
#343 = FILL_AREA_STYLE_COLOUR('', #344);
#344 = COLOUR_RGB('', 0.50196078431373, 0.50196078431373, 0.50196078431373);
#345 = STYLED_ITEM('', (#338), #261);
#346 = AXIS2_PLACEMENT_3D('Axis', #347, #348, #349);
#347 = CARTESIAN_POINT('', (0., 0., 0.));
#348 = DIRECTION('', (0., 0., 1.));
#349 = DIRECTION('', (1., 0., 0.));
#350 = (
   GEOMETRIC_REPRESENTATION_CONTEXT (3)
   GLOBAL_UNCERTAINTY_ASSIGNED_CONTEXT ((#352))
   GLOBAL_UNIT_ASSIGNED_CONTEXT ((#351, #353, #354))
   REPRESENTATION_CONTEXT ('', '3D')
);
#351 = (
   LENGTH_UNIT ()
   NAMED_UNIT (*)
   SI_UNIT (.MILLI., .METRE.)
);
#352 = UNCERTAINTY_MEASURE_WITH_UNIT(LENGTH_MEASURE(1.E-6), #351, 'DISTANCE_ACCURACY_VALUE', '');
#353 = (
   NAMED_UNIT (*)
   SI_UNIT ($, .STERADIAN.)
   SOLID_ANGLE_UNIT ()
);
#354 = (
   NAMED_UNIT (*)
   PLANE_ANGLE_UNIT ()
   SI_UNIT ($, .RADIAN.)
);
#355 = SHAPE_REPRESENTATION('', (#376), #350);
#356 = PRODUCT_DEFINITION_SHAPE('', '', #357);
#357 = PRODUCT_DEFINITION('', '', #360, #364);
#358 = APPLICATION_CONTEXT('configuration controlled 3D designs of mechanical parts and assemblies');
#359 = APPLICATION_PROTOCOL_DEFINITION('International Standard', 'automotive_design', 2002, #358);
#360 = PRODUCT_DEFINITION_FORMATION_WITH_SPECIFIED_SOURCE('', '', #361, .NOT_KNOWN.);
#361 = PRODUCT('Wheel3', 'Wheel3', '', (#362));
#362 = PRODUCT_CONTEXT('', #358, 'mechanical');
#363 = PRODUCT_RELATED_PRODUCT_CATEGORY('detail', '', (#361));
#364 = PRODUCT_DEFINITION_CONTEXT('part definition', #358, 'design');
#365 = SHAPE_DEFINITION_REPRESENTATION(#356, #355);
#366 = CONSTRUCTIVE_GEOMETRY_REPRESENTATION('supplemental geometry', (#346), #350);
#367 = CONSTRUCTIVE_GEOMETRY_REPRESENTATION_RELATIONSHIP('', '', #355, #366);
#368 = SHAPE_REPRESENTATION_RELATIONSHIP('', '', #355, #369);
#369 = ADVANCED_BREP_SHAPE_REPRESENTATION('', (#261), #350);
#370 = NEXT_ASSEMBLY_USAGE_OCCURRENCE('', 'W3', 'W3', #8, #357, '');
#371 = PRODUCT_DEFINITION_SHAPE('', '', #370);
#372 = AXIS2_PLACEMENT_3D('', #373, #374, #375);
#373 = CARTESIAN_POINT('', (0., 0., 0.));
#374 = DIRECTION('', (0., 0., 1.));
#375 = DIRECTION('', (1., 0., 0.));
#376 = AXIS2_PLACEMENT_3D('', #377, #378, #379);
#377 = CARTESIAN_POINT('', (0., 0., 0.));
#378 = DIRECTION('', (0., 0., 1.));
#379 = DIRECTION('', (1., 0., 0.));
#380 = ITEM_DEFINED_TRANSFORMATION('', '', #372, #376);
#381 = (
   REPRESENTATION_RELATIONSHIP ('', '', #6, #355)
   REPRESENTATION_RELATIONSHIP_WITH_TRANSFORMATION (#380)
   SHAPE_REPRESENTATION_RELATIONSHIP ()
);
#382 = CONTEXT_DEPENDENT_SHAPE_REPRESENTATION(#381, #371);
#383 = DRAUGHTING_MODEL('', (), #1);
#384 = REPRESENTATION_RELATIONSHIP('', '', #93, #383);
#385 = REPRESENTATION_RELATIONSHIP('', '', #215, #383);
#386 = REPRESENTATION_RELATIONSHIP('', '', #337, #383);
ENDSEC;
END-ISO-10303-21;
