ISO-10303-21;
HEADER;
FILE_DESCRIPTION(('STEP'), '1');
FILE_NAME('TwistCustom', '2026-04-18T01:10:48', (''), (''), 'Express 3.1.2.0', 'Express Tool', 'Unknown');
FILE_SCHEMA(('AUTOMOTIVE_DESIGN'));
ENDSEC;

DATA;
#1 = MANIFOLD_SOLID_BREP('CustomTwist_0', #2);
#2 = CLOSED_SHELL('', (#3, #95, #165, #235, #283, #295));
#3 = ADVANCED_FACE('', (#4), #62, .T.);
#4 = FACE_OUTER_BOUND('', #5, .T.);
#5 = EDGE_LOOP('', (#6, #15, #36, #43));
#6 = ORIENTED_EDGE('', *, *, #7, .T.);
#7 = EDGE_CURVE('', #8, #10, #12, .T.);
#8 = VERTEX_POINT('', #9);
#9 = CARTESIAN_POINT('', (25., 15., 20.));
#10 = VERTEX_POINT('', #11);
#11 = CARTESIAN_POINT('', (-25., 15., 20.));
#12 = B_SPLINE_CURVE_WITH_KNOTS('', 1, (#13, #14), .UNSPECIFIED., .F., .U., (2, 2), (0., 1.), .UNSPECIFIED.);
#13 = CARTESIAN_POINT('', (25., 15., 20.));
#14 = CARTESIAN_POINT('', (-25., 15., 20.));
#15 = ORIENTED_EDGE('', *, *, #16, .T.);
#16 = EDGE_CURVE('', #10, #17, #19, .T.);
#17 = VERTEX_POINT('', #18);
#18 = CARTESIAN_POINT('', (-15., -25., 120.));
#19 = B_SPLINE_CURVE_WITH_KNOTS('', 3, (#20, #21, #22, #23, #24, #25, #26, #27, #28, #29, #30, #31, #32, #33, #34, #35), .UNSPECIFIED., .F., .U., (4, 1, 1, 1, 1, 1, 1, 1, 1, 1, 1, 1, 1, 4), (0., 13.3333333333333, 20., 26.6666666666667, 33.3333333333333, 40., 46.6666666666667, 53.3333333333333, 60., 66.6666666666667, 73.3333333333333, 80., 86.6666666666667, 100.), .UNSPECIFIED.);
#20 = CARTESIAN_POINT('', (-25., 15., 20.));
#21 = CARTESIAN_POINT('', (-26.0475773395552, 13.2548490475237, 24.4444444444444));
#22 = CARTESIAN_POINT('', (-27.3425599634704, 10.471558430002, 31.1111111111111));
#23 = CARTESIAN_POINT('', (-28.4636370895323, 6.55238482251135, 40.));
#24 = CARTESIAN_POINT('', (-28.9926293349034, 3.54123299214694, 46.6666666666667));
#25 = CARTESIAN_POINT('', (-29.2039620940663, 0.491277935364933, 53.3333333333333));
#26 = CARTESIAN_POINT('', (-29.0953328564973, -2.56405839300719, 60.));
#27 = CARTESIAN_POINT('', (-28.6679283425091, -5.59130271346188, 66.6666666666667));
#28 = CARTESIAN_POINT('', (-27.9264321673725, -8.55728741400852, 73.3333333333333));
#29 = CARTESIAN_POINT('', (-26.8789682347951, -11.4295168798159, 80.));
#30 = CARTESIAN_POINT('', (-25.5370122310632, -14.1765215166473, 86.6666666666667));
#31 = CARTESIAN_POINT('', (-23.9152691815515, -16.7682076212607, 93.3333333333333));
#32 = CARTESIAN_POINT('', (-22.0314986919349, -19.1761687678781, 100.));
#33 = CARTESIAN_POINT('', (-19.1979960007082, -22.1066974210467, 108.888888888889));
#34 = CARTESIAN_POINT('', (-16.745580453714, -23.953138495841, 115.555555555556));
#35 = CARTESIAN_POINT('', (-15., -25., 120.));
#36 = ORIENTED_EDGE('', *, *, #37, .F.);
#37 = EDGE_CURVE('', #38, #17, #40, .T.);
#38 = VERTEX_POINT('', #39);
#39 = CARTESIAN_POINT('', (-15., 25., 120.));
#40 = B_SPLINE_CURVE_WITH_KNOTS('', 1, (#41, #42), .UNSPECIFIED., .F., .U., (2, 2), (0., 1.), .UNSPECIFIED.);
#41 = CARTESIAN_POINT('', (-15., 25., 120.));
#42 = CARTESIAN_POINT('', (-15., -25., 120.));
#43 = ORIENTED_EDGE('', *, *, #44, .F.);
#44 = EDGE_CURVE('', #8, #38, #45, .T.);
#45 = B_SPLINE_CURVE_WITH_KNOTS('', 3, (#46, #47, #48, #49, #50, #51, #52, #53, #54, #55, #56, #57, #58, #59, #60, #61), .UNSPECIFIED., .F., .U., (4, 1, 1, 1, 1, 1, 1, 1, 1, 1, 1, 1, 1, 4), (0., 13.3333333333333, 20., 26.6666666666667, 33.3333333333333, 40., 46.6666666666667, 53.3333333333333, 60., 66.6666666666667, 73.3333333333333, 80., 86.6666666666667, 100.), .UNSPECIFIED.);
#46 = CARTESIAN_POINT('', (25., 15., 20.));
#47 = CARTESIAN_POINT('', (23.953138495841, 16.745580453714, 24.4444444444444));
#48 = CARTESIAN_POINT('', (22.1066974210467, 19.1979960007082, 31.1111111111111));
#49 = CARTESIAN_POINT('', (19.1761687678781, 22.0314986919349, 40.));
#50 = CARTESIAN_POINT('', (16.7682076212607, 23.9152691815515, 46.6666666666667));
#51 = CARTESIAN_POINT('', (14.1765215166473, 25.5370122310632, 53.3333333333333));
#52 = CARTESIAN_POINT('', (11.4295168798159, 26.8789682347951, 60.));
#53 = CARTESIAN_POINT('', (8.55728741400852, 27.9264321673725, 66.6666666666667));
#54 = CARTESIAN_POINT('', (5.59130271346189, 28.6679283425091, 73.3333333333333));
#55 = CARTESIAN_POINT('', (2.56405839300718, 29.0953328564973, 80.));
#56 = CARTESIAN_POINT('', (-0.491277935364924, 29.2039620940663, 86.6666666666667));
#57 = CARTESIAN_POINT('', (-3.54123299214693, 28.9926293349034, 93.3333333333333));
#58 = CARTESIAN_POINT('', (-6.55238482251135, 28.4636370895323, 100.));
#59 = CARTESIAN_POINT('', (-10.471558430002, 27.3425599634704, 108.888888888889));
#60 = CARTESIAN_POINT('', (-13.2548490475237, 26.0475773395552, 115.555555555556));
#61 = CARTESIAN_POINT('', (-15., 25., 120.));
#62 = B_SPLINE_SURFACE_WITH_KNOTS('', 1, 3, ((#63, #64, #65, #66, #67, #68, #69, #70, #71, #72, #73, #74, #75, #76, #77, #78), (#79, #80, #81, #82, #83, #84, #85, #86, #87, #88, #89, #90, #91, #92, #93, #94)), .UNSPECIFIED., .F., .F., .U., (2, 2), (4, 1, 1, 1, 1, 1, 1, 1, 1, 1, 1, 1, 1, 4), (0., 1.), (0., 13.3333333333333, 20., 26.6666666666667, 33.3333333333333, 40., 46.6666666666667, 53.3333333333333, 60., 66.6666666666667, 73.3333333333333, 80., 86.6666666666667, 100.), .UNSPECIFIED.);
#63 = CARTESIAN_POINT('', (25., 15., 20.));
#64 = CARTESIAN_POINT('', (23.953138495841, 16.745580453714, 24.4444444444444));
#65 = CARTESIAN_POINT('', (22.1066974210467, 19.1979960007082, 31.1111111111111));
#66 = CARTESIAN_POINT('', (19.1761687678781, 22.0314986919349, 40.));
#67 = CARTESIAN_POINT('', (16.7682076212607, 23.9152691815515, 46.6666666666667));
#68 = CARTESIAN_POINT('', (14.1765215166473, 25.5370122310632, 53.3333333333333));
#69 = CARTESIAN_POINT('', (11.4295168798159, 26.8789682347951, 60.));
#70 = CARTESIAN_POINT('', (8.55728741400852, 27.9264321673725, 66.6666666666667));
#71 = CARTESIAN_POINT('', (5.59130271346189, 28.6679283425091, 73.3333333333333));
#72 = CARTESIAN_POINT('', (2.56405839300718, 29.0953328564973, 80.));
#73 = CARTESIAN_POINT('', (-0.491277935364924, 29.2039620940663, 86.6666666666667));
#74 = CARTESIAN_POINT('', (-3.54123299214693, 28.9926293349034, 93.3333333333333));
#75 = CARTESIAN_POINT('', (-6.55238482251135, 28.4636370895323, 100.));
#76 = CARTESIAN_POINT('', (-10.471558430002, 27.3425599634704, 108.888888888889));
#77 = CARTESIAN_POINT('', (-13.2548490475237, 26.0475773395552, 115.555555555556));
#78 = CARTESIAN_POINT('', (-15., 25., 120.));
#79 = CARTESIAN_POINT('', (-25., 15., 20.));
#80 = CARTESIAN_POINT('', (-26.0475773395552, 13.2548490475237, 24.4444444444444));
#81 = CARTESIAN_POINT('', (-27.3425599634704, 10.471558430002, 31.1111111111111));
#82 = CARTESIAN_POINT('', (-28.4636370895323, 6.55238482251135, 40.));
#83 = CARTESIAN_POINT('', (-28.9926293349034, 3.54123299214694, 46.6666666666667));
#84 = CARTESIAN_POINT('', (-29.2039620940663, 0.491277935364933, 53.3333333333333));
#85 = CARTESIAN_POINT('', (-29.0953328564973, -2.56405839300719, 60.));
#86 = CARTESIAN_POINT('', (-28.6679283425091, -5.59130271346188, 66.6666666666667));
#87 = CARTESIAN_POINT('', (-27.9264321673725, -8.55728741400852, 73.3333333333333));
#88 = CARTESIAN_POINT('', (-26.8789682347951, -11.4295168798159, 80.));
#89 = CARTESIAN_POINT('', (-25.5370122310632, -14.1765215166473, 86.6666666666667));
#90 = CARTESIAN_POINT('', (-23.9152691815515, -16.7682076212607, 93.3333333333333));
#91 = CARTESIAN_POINT('', (-22.0314986919349, -19.1761687678781, 100.));
#92 = CARTESIAN_POINT('', (-19.1979960007082, -22.1066974210467, 108.888888888889));
#93 = CARTESIAN_POINT('', (-16.745580453714, -23.953138495841, 115.555555555556));
#94 = CARTESIAN_POINT('', (-15., -25., 120.));
#95 = ADVANCED_FACE('', (#96), #132, .T.);
#96 = FACE_OUTER_BOUND('', #97, .T.);
#97 = EDGE_LOOP('', (#98, #105, #126, #131));
#98 = ORIENTED_EDGE('', *, *, #99, .T.);
#99 = EDGE_CURVE('', #10, #100, #102, .T.);
#100 = VERTEX_POINT('', #101);
#101 = CARTESIAN_POINT('', (-25., -15., 20.));
#102 = B_SPLINE_CURVE_WITH_KNOTS('', 1, (#103, #104), .UNSPECIFIED., .F., .U., (2, 2), (0., 1.), .UNSPECIFIED.);
#103 = CARTESIAN_POINT('', (-25., 15., 20.));
#104 = CARTESIAN_POINT('', (-25., -15., 20.));
#105 = ORIENTED_EDGE('', *, *, #106, .T.);
#106 = EDGE_CURVE('', #100, #107, #109, .T.);
#107 = VERTEX_POINT('', #108);
#108 = CARTESIAN_POINT('', (15., -25., 120.));
#109 = B_SPLINE_CURVE_WITH_KNOTS('', 3, (#110, #111, #112, #113, #114, #115, #116, #117, #118, #119, #120, #121, #122, #123, #124, #125), .UNSPECIFIED., .F., .U., (4, 1, 1, 1, 1, 1, 1, 1, 1, 1, 1, 1, 1, 4), (0., 13.3333333333333, 20., 26.6666666666667, 33.3333333333333, 40., 46.6666666666667, 53.3333333333333, 60., 66.6666666666667, 73.3333333333333, 80., 86.6666666666667, 100.), .UNSPECIFIED.);
#110 = CARTESIAN_POINT('', (-25., -15., 20.));
#111 = CARTESIAN_POINT('', (-23.953138495841, -16.745580453714, 24.4444444444444));
#112 = CARTESIAN_POINT('', (-22.1066974210467, -19.1979960007082, 31.1111111111111));
#113 = CARTESIAN_POINT('', (-19.1761687678781, -22.0314986919349, 40.));
#114 = CARTESIAN_POINT('', (-16.7682076212607, -23.9152691815515, 46.6666666666667));
#115 = CARTESIAN_POINT('', (-14.1765215166473, -25.5370122310632, 53.3333333333333));
#116 = CARTESIAN_POINT('', (-11.4295168798159, -26.8789682347951, 60.));
#117 = CARTESIAN_POINT('', (-8.55728741400852, -27.9264321673725, 66.6666666666667));
#118 = CARTESIAN_POINT('', (-5.59130271346189, -28.6679283425091, 73.3333333333333));
#119 = CARTESIAN_POINT('', (-2.56405839300718, -29.0953328564973, 80.));
#120 = CARTESIAN_POINT('', (0.491277935364924, -29.2039620940663, 86.6666666666667));
#121 = CARTESIAN_POINT('', (3.54123299214693, -28.9926293349034, 93.3333333333333));
#122 = CARTESIAN_POINT('', (6.55238482251135, -28.4636370895323, 100.));
#123 = CARTESIAN_POINT('', (10.471558430002, -27.3425599634704, 108.888888888889));
#124 = CARTESIAN_POINT('', (13.2548490475237, -26.0475773395552, 115.555555555556));
#125 = CARTESIAN_POINT('', (15., -25., 120.));
#126 = ORIENTED_EDGE('', *, *, #127, .F.);
#127 = EDGE_CURVE('', #17, #107, #128, .T.);
#128 = B_SPLINE_CURVE_WITH_KNOTS('', 1, (#129, #130), .UNSPECIFIED., .F., .U., (2, 2), (0., 1.), .UNSPECIFIED.);
#129 = CARTESIAN_POINT('', (-15., -25., 120.));
#130 = CARTESIAN_POINT('', (15., -25., 120.));
#131 = ORIENTED_EDGE('', *, *, #16, .F.);
#132 = B_SPLINE_SURFACE_WITH_KNOTS('', 1, 3, ((#133, #134, #135, #136, #137, #138, #139, #140, #141, #142, #143, #144, #145, #146, #147, #148), (#149, #150, #151, #152, #153, #154, #155, #156, #157, #158, #159, #160, #161, #162, #163, #164)), .UNSPECIFIED., .F., .F., .U., (2, 2), (4, 1, 1, 1, 1, 1, 1, 1, 1, 1, 1, 1, 1, 4), (0., 1.), (0., 13.3333333333333, 20., 26.6666666666667, 33.3333333333333, 40., 46.6666666666667, 53.3333333333333, 60., 66.6666666666667, 73.3333333333333, 80., 86.6666666666667, 100.), .UNSPECIFIED.);
#133 = CARTESIAN_POINT('', (-25., 15., 20.));
#134 = CARTESIAN_POINT('', (-26.0475773395552, 13.2548490475237, 24.4444444444444));
#135 = CARTESIAN_POINT('', (-27.3425599634704, 10.471558430002, 31.1111111111111));
#136 = CARTESIAN_POINT('', (-28.4636370895323, 6.55238482251135, 40.));
#137 = CARTESIAN_POINT('', (-28.9926293349034, 3.54123299214694, 46.6666666666667));
#138 = CARTESIAN_POINT('', (-29.2039620940663, 0.491277935364933, 53.3333333333333));
#139 = CARTESIAN_POINT('', (-29.0953328564973, -2.56405839300719, 60.));
#140 = CARTESIAN_POINT('', (-28.6679283425091, -5.59130271346188, 66.6666666666667));
#141 = CARTESIAN_POINT('', (-27.9264321673725, -8.55728741400852, 73.3333333333333));
#142 = CARTESIAN_POINT('', (-26.8789682347951, -11.4295168798159, 80.));
#143 = CARTESIAN_POINT('', (-25.5370122310632, -14.1765215166473, 86.6666666666667));
#144 = CARTESIAN_POINT('', (-23.9152691815515, -16.7682076212607, 93.3333333333333));
#145 = CARTESIAN_POINT('', (-22.0314986919349, -19.1761687678781, 100.));
#146 = CARTESIAN_POINT('', (-19.1979960007082, -22.1066974210467, 108.888888888889));
#147 = CARTESIAN_POINT('', (-16.745580453714, -23.953138495841, 115.555555555556));
#148 = CARTESIAN_POINT('', (-15., -25., 120.));
#149 = CARTESIAN_POINT('', (-25., -15., 20.));
#150 = CARTESIAN_POINT('', (-23.953138495841, -16.745580453714, 24.4444444444444));
#151 = CARTESIAN_POINT('', (-22.1066974210467, -19.1979960007082, 31.1111111111111));
#152 = CARTESIAN_POINT('', (-19.1761687678781, -22.0314986919349, 40.));
#153 = CARTESIAN_POINT('', (-16.7682076212607, -23.9152691815515, 46.6666666666667));
#154 = CARTESIAN_POINT('', (-14.1765215166473, -25.5370122310632, 53.3333333333333));
#155 = CARTESIAN_POINT('', (-11.4295168798159, -26.8789682347951, 60.));
#156 = CARTESIAN_POINT('', (-8.55728741400852, -27.9264321673725, 66.6666666666667));
#157 = CARTESIAN_POINT('', (-5.59130271346189, -28.6679283425091, 73.3333333333333));
#158 = CARTESIAN_POINT('', (-2.56405839300718, -29.0953328564973, 80.));
#159 = CARTESIAN_POINT('', (0.491277935364924, -29.2039620940663, 86.6666666666667));
#160 = CARTESIAN_POINT('', (3.54123299214693, -28.9926293349034, 93.3333333333333));
#161 = CARTESIAN_POINT('', (6.55238482251135, -28.4636370895323, 100.));
#162 = CARTESIAN_POINT('', (10.471558430002, -27.3425599634704, 108.888888888889));
#163 = CARTESIAN_POINT('', (13.2548490475237, -26.0475773395552, 115.555555555556));
#164 = CARTESIAN_POINT('', (15., -25., 120.));
#165 = ADVANCED_FACE('', (#166), #202, .T.);
#166 = FACE_OUTER_BOUND('', #167, .T.);
#167 = EDGE_LOOP('', (#168, #175, #196, #201));
#168 = ORIENTED_EDGE('', *, *, #169, .T.);
#169 = EDGE_CURVE('', #100, #170, #172, .T.);
#170 = VERTEX_POINT('', #171);
#171 = CARTESIAN_POINT('', (25., -15., 20.));
#172 = B_SPLINE_CURVE_WITH_KNOTS('', 1, (#173, #174), .UNSPECIFIED., .F., .U., (2, 2), (0., 1.), .UNSPECIFIED.);
#173 = CARTESIAN_POINT('', (-25., -15., 20.));
#174 = CARTESIAN_POINT('', (25., -15., 20.));
#175 = ORIENTED_EDGE('', *, *, #176, .T.);
#176 = EDGE_CURVE('', #170, #177, #179, .T.);
#177 = VERTEX_POINT('', #178);
#178 = CARTESIAN_POINT('', (15., 25., 120.));
#179 = B_SPLINE_CURVE_WITH_KNOTS('', 3, (#180, #181, #182, #183, #184, #185, #186, #187, #188, #189, #190, #191, #192, #193, #194, #195), .UNSPECIFIED., .F., .U., (4, 1, 1, 1, 1, 1, 1, 1, 1, 1, 1, 1, 1, 4), (0., 13.3333333333333, 20., 26.6666666666667, 33.3333333333333, 40., 46.6666666666667, 53.3333333333333, 60., 66.6666666666667, 73.3333333333333, 80., 86.6666666666667, 100.), .UNSPECIFIED.);
#180 = CARTESIAN_POINT('', (25., -15., 20.));
#181 = CARTESIAN_POINT('', (26.0475773395552, -13.2548490475237, 24.4444444444444));
#182 = CARTESIAN_POINT('', (27.3425599634704, -10.471558430002, 31.1111111111111));
#183 = CARTESIAN_POINT('', (28.4636370895323, -6.55238482251135, 40.));
#184 = CARTESIAN_POINT('', (28.9926293349034, -3.54123299214694, 46.6666666666667));
#185 = CARTESIAN_POINT('', (29.2039620940663, -0.491277935364933, 53.3333333333333));
#186 = CARTESIAN_POINT('', (29.0953328564973, 2.56405839300719, 60.));
#187 = CARTESIAN_POINT('', (28.6679283425091, 5.59130271346188, 66.6666666666667));
#188 = CARTESIAN_POINT('', (27.9264321673725, 8.55728741400852, 73.3333333333333));
#189 = CARTESIAN_POINT('', (26.8789682347951, 11.4295168798159, 80.));
#190 = CARTESIAN_POINT('', (25.5370122310632, 14.1765215166473, 86.6666666666667));
#191 = CARTESIAN_POINT('', (23.9152691815515, 16.7682076212607, 93.3333333333333));
#192 = CARTESIAN_POINT('', (22.0314986919349, 19.1761687678781, 100.));
#193 = CARTESIAN_POINT('', (19.1979960007082, 22.1066974210467, 108.888888888889));
#194 = CARTESIAN_POINT('', (16.745580453714, 23.953138495841, 115.555555555556));
#195 = CARTESIAN_POINT('', (15., 25., 120.));
#196 = ORIENTED_EDGE('', *, *, #197, .F.);
#197 = EDGE_CURVE('', #107, #177, #198, .T.);
#198 = B_SPLINE_CURVE_WITH_KNOTS('', 1, (#199, #200), .UNSPECIFIED., .F., .U., (2, 2), (0., 1.), .UNSPECIFIED.);
#199 = CARTESIAN_POINT('', (15., -25., 120.));
#200 = CARTESIAN_POINT('', (15., 25., 120.));
#201 = ORIENTED_EDGE('', *, *, #106, .F.);
#202 = B_SPLINE_SURFACE_WITH_KNOTS('', 1, 3, ((#203, #204, #205, #206, #207, #208, #209, #210, #211, #212, #213, #214, #215, #216, #217, #218), (#219, #220, #221, #222, #223, #224, #225, #226, #227, #228, #229, #230, #231, #232, #233, #234)), .UNSPECIFIED., .F., .F., .U., (2, 2), (4, 1, 1, 1, 1, 1, 1, 1, 1, 1, 1, 1, 1, 4), (0., 1.), (0., 13.3333333333333, 20., 26.6666666666667, 33.3333333333333, 40., 46.6666666666667, 53.3333333333333, 60., 66.6666666666667, 73.3333333333333, 80., 86.6666666666667, 100.), .UNSPECIFIED.);
#203 = CARTESIAN_POINT('', (-25., -15., 20.));
#204 = CARTESIAN_POINT('', (-23.953138495841, -16.745580453714, 24.4444444444444));
#205 = CARTESIAN_POINT('', (-22.1066974210467, -19.1979960007082, 31.1111111111111));
#206 = CARTESIAN_POINT('', (-19.1761687678781, -22.0314986919349, 40.));
#207 = CARTESIAN_POINT('', (-16.7682076212607, -23.9152691815515, 46.6666666666667));
#208 = CARTESIAN_POINT('', (-14.1765215166473, -25.5370122310632, 53.3333333333333));
#209 = CARTESIAN_POINT('', (-11.4295168798159, -26.8789682347951, 60.));
#210 = CARTESIAN_POINT('', (-8.55728741400852, -27.9264321673725, 66.6666666666667));
#211 = CARTESIAN_POINT('', (-5.59130271346189, -28.6679283425091, 73.3333333333333));
#212 = CARTESIAN_POINT('', (-2.56405839300718, -29.0953328564973, 80.));
#213 = CARTESIAN_POINT('', (0.491277935364924, -29.2039620940663, 86.6666666666667));
#214 = CARTESIAN_POINT('', (3.54123299214693, -28.9926293349034, 93.3333333333333));
#215 = CARTESIAN_POINT('', (6.55238482251135, -28.4636370895323, 100.));
#216 = CARTESIAN_POINT('', (10.471558430002, -27.3425599634704, 108.888888888889));
#217 = CARTESIAN_POINT('', (13.2548490475237, -26.0475773395552, 115.555555555556));
#218 = CARTESIAN_POINT('', (15., -25., 120.));
#219 = CARTESIAN_POINT('', (25., -15., 20.));
#220 = CARTESIAN_POINT('', (26.0475773395552, -13.2548490475237, 24.4444444444444));
#221 = CARTESIAN_POINT('', (27.3425599634704, -10.471558430002, 31.1111111111111));
#222 = CARTESIAN_POINT('', (28.4636370895323, -6.55238482251135, 40.));
#223 = CARTESIAN_POINT('', (28.9926293349034, -3.54123299214694, 46.6666666666667));
#224 = CARTESIAN_POINT('', (29.2039620940663, -0.491277935364933, 53.3333333333333));
#225 = CARTESIAN_POINT('', (29.0953328564973, 2.56405839300719, 60.));
#226 = CARTESIAN_POINT('', (28.6679283425091, 5.59130271346188, 66.6666666666667));
#227 = CARTESIAN_POINT('', (27.9264321673725, 8.55728741400852, 73.3333333333333));
#228 = CARTESIAN_POINT('', (26.8789682347951, 11.4295168798159, 80.));
#229 = CARTESIAN_POINT('', (25.5370122310632, 14.1765215166473, 86.6666666666667));
#230 = CARTESIAN_POINT('', (23.9152691815515, 16.7682076212607, 93.3333333333333));
#231 = CARTESIAN_POINT('', (22.0314986919349, 19.1761687678781, 100.));
#232 = CARTESIAN_POINT('', (19.1979960007082, 22.1066974210467, 108.888888888889));
#233 = CARTESIAN_POINT('', (16.745580453714, 23.953138495841, 115.555555555556));
#234 = CARTESIAN_POINT('', (15., 25., 120.));
#235 = ADVANCED_FACE('', (#236), #250, .T.);
#236 = FACE_OUTER_BOUND('', #237, .T.);
#237 = EDGE_LOOP('', (#238, #243, #244, #249));
#238 = ORIENTED_EDGE('', *, *, #239, .T.);
#239 = EDGE_CURVE('', #170, #8, #240, .T.);
#240 = B_SPLINE_CURVE_WITH_KNOTS('', 1, (#241, #242), .UNSPECIFIED., .F., .U., (2, 2), (0., 1.), .UNSPECIFIED.);
#241 = CARTESIAN_POINT('', (25., -15., 20.));
#242 = CARTESIAN_POINT('', (25., 15., 20.));
#243 = ORIENTED_EDGE('', *, *, #44, .T.);
#244 = ORIENTED_EDGE('', *, *, #245, .F.);
#245 = EDGE_CURVE('', #177, #38, #246, .T.);
#246 = B_SPLINE_CURVE_WITH_KNOTS('', 1, (#247, #248), .UNSPECIFIED., .F., .U., (2, 2), (0., 1.), .UNSPECIFIED.);
#247 = CARTESIAN_POINT('', (15., 25., 120.));
#248 = CARTESIAN_POINT('', (-15., 25., 120.));
#249 = ORIENTED_EDGE('', *, *, #176, .F.);
#250 = B_SPLINE_SURFACE_WITH_KNOTS('', 1, 3, ((#251, #252, #253, #254, #255, #256, #257, #258, #259, #260, #261, #262, #263, #264, #265, #266), (#267, #268, #269, #270, #271, #272, #273, #274, #275, #276, #277, #278, #279, #280, #281, #282)), .UNSPECIFIED., .F., .F., .U., (2, 2), (4, 1, 1, 1, 1, 1, 1, 1, 1, 1, 1, 1, 1, 4), (0., 1.), (0., 13.3333333333333, 20., 26.6666666666667, 33.3333333333333, 40., 46.6666666666667, 53.3333333333333, 60., 66.6666666666667, 73.3333333333333, 80., 86.6666666666667, 100.), .UNSPECIFIED.);
#251 = CARTESIAN_POINT('', (25., -15., 20.));
#252 = CARTESIAN_POINT('', (26.0475773395552, -13.2548490475237, 24.4444444444444));
#253 = CARTESIAN_POINT('', (27.3425599634704, -10.471558430002, 31.1111111111111));
#254 = CARTESIAN_POINT('', (28.4636370895323, -6.55238482251135, 40.));
#255 = CARTESIAN_POINT('', (28.9926293349034, -3.54123299214694, 46.6666666666667));
#256 = CARTESIAN_POINT('', (29.2039620940663, -0.491277935364933, 53.3333333333333));
#257 = CARTESIAN_POINT('', (29.0953328564973, 2.56405839300719, 60.));
#258 = CARTESIAN_POINT('', (28.6679283425091, 5.59130271346188, 66.6666666666667));
#259 = CARTESIAN_POINT('', (27.9264321673725, 8.55728741400852, 73.3333333333333));
#260 = CARTESIAN_POINT('', (26.8789682347951, 11.4295168798159, 80.));
#261 = CARTESIAN_POINT('', (25.5370122310632, 14.1765215166473, 86.6666666666667));
#262 = CARTESIAN_POINT('', (23.9152691815515, 16.7682076212607, 93.3333333333333));
#263 = CARTESIAN_POINT('', (22.0314986919349, 19.1761687678781, 100.));
#264 = CARTESIAN_POINT('', (19.1979960007082, 22.1066974210467, 108.888888888889));
#265 = CARTESIAN_POINT('', (16.745580453714, 23.953138495841, 115.555555555556));
#266 = CARTESIAN_POINT('', (15., 25., 120.));
#267 = CARTESIAN_POINT('', (25., 15., 20.));
#268 = CARTESIAN_POINT('', (23.953138495841, 16.745580453714, 24.4444444444444));
#269 = CARTESIAN_POINT('', (22.1066974210467, 19.1979960007082, 31.1111111111111));
#270 = CARTESIAN_POINT('', (19.1761687678781, 22.0314986919349, 40.));
#271 = CARTESIAN_POINT('', (16.7682076212607, 23.9152691815515, 46.6666666666667));
#272 = CARTESIAN_POINT('', (14.1765215166473, 25.5370122310632, 53.3333333333333));
#273 = CARTESIAN_POINT('', (11.4295168798159, 26.8789682347951, 60.));
#274 = CARTESIAN_POINT('', (8.55728741400852, 27.9264321673725, 66.6666666666667));
#275 = CARTESIAN_POINT('', (5.59130271346189, 28.6679283425091, 73.3333333333333));
#276 = CARTESIAN_POINT('', (2.56405839300718, 29.0953328564973, 80.));
#277 = CARTESIAN_POINT('', (-0.491277935364924, 29.2039620940663, 86.6666666666667));
#278 = CARTESIAN_POINT('', (-3.54123299214693, 28.9926293349034, 93.3333333333333));
#279 = CARTESIAN_POINT('', (-6.55238482251135, 28.4636370895323, 100.));
#280 = CARTESIAN_POINT('', (-10.471558430002, 27.3425599634704, 108.888888888889));
#281 = CARTESIAN_POINT('', (-13.2548490475237, 26.0475773395552, 115.555555555556));
#282 = CARTESIAN_POINT('', (-15., 25., 120.));
#283 = ADVANCED_FACE('', (#284), #290, .T.);
#284 = FACE_OUTER_BOUND('', #285, .T.);
#285 = EDGE_LOOP('', (#286, #287, #288, #289));
#286 = ORIENTED_EDGE('', *, *, #197, .T.);
#287 = ORIENTED_EDGE('', *, *, #245, .T.);
#288 = ORIENTED_EDGE('', *, *, #37, .T.);
#289 = ORIENTED_EDGE('', *, *, #127, .T.);
#290 = B_SPLINE_SURFACE_WITH_KNOTS('', 1, 1, ((#291, #292), (#293, #294)), .UNSPECIFIED., .F., .F., .U., (2, 2), (2, 2), (0., 1.), (0., 1.), .UNSPECIFIED.);
#291 = CARTESIAN_POINT('', (32.0702354216492, -32.0702354216492, 120.));
#292 = CARTESIAN_POINT('', (-32.0702354216492, -32.0702354216492, 120.));
#293 = CARTESIAN_POINT('', (32.0702354216492, 32.0702354216492, 120.));
#294 = CARTESIAN_POINT('', (-32.0702354216492, 32.0702354216492, 120.));
#295 = ADVANCED_FACE('', (#296), #302, .T.);
#296 = FACE_OUTER_BOUND('', #297, .T.);
#297 = EDGE_LOOP('', (#298, #299, #300, #301));
#298 = ORIENTED_EDGE('', *, *, #169, .F.);
#299 = ORIENTED_EDGE('', *, *, #99, .F.);
#300 = ORIENTED_EDGE('', *, *, #7, .F.);
#301 = ORIENTED_EDGE('', *, *, #239, .F.);
#302 = B_SPLINE_SURFACE_WITH_KNOTS('', 1, 1, ((#303, #304), (#305, #306)), .UNSPECIFIED., .F., .F., .U., (2, 2), (2, 2), (0., 1.), (0., 1.), .UNSPECIFIED.);
#303 = CARTESIAN_POINT('', (32.0702354216492, -32.0702354216492, 20.));
#304 = CARTESIAN_POINT('', (32.0702354216492, 32.0702354216492, 20.));
#305 = CARTESIAN_POINT('', (-32.0702354216492, -32.0702354216492, 20.));
#306 = CARTESIAN_POINT('', (-32.0702354216492, 32.0702354216492, 20.));
#307 = DRAUGHTING_MODEL('', (#315), #318);
#308 = PRESENTATION_STYLE_ASSIGNMENT((#309));
#309 = SURFACE_STYLE_USAGE(.POSITIVE., #310);
#310 = SURFACE_SIDE_STYLE('', (#311));
#311 = SURFACE_STYLE_FILL_AREA(#312);
#312 = FILL_AREA_STYLE('', (#313));
#313 = FILL_AREA_STYLE_COLOUR('', #314);
#314 = COLOUR_RGB('', 0.50196078431373, 0.50196078431373, 0.50196078431373);
#315 = STYLED_ITEM('', (#308), #1);
#316 = CARTESIAN_POINT('Origin', (0., 0., 0.));
#317 = GEOMETRIC_SET('', (#316));
#318 = (
   GEOMETRIC_REPRESENTATION_CONTEXT (3)
   GLOBAL_UNCERTAINTY_ASSIGNED_CONTEXT ((#320))
   GLOBAL_UNIT_ASSIGNED_CONTEXT ((#319, #321, #322))
   REPRESENTATION_CONTEXT ('', '3D')
);
#319 = (
   LENGTH_UNIT ()
   NAMED_UNIT (*)
   SI_UNIT (.MILLI., .METRE.)
);
#320 = UNCERTAINTY_MEASURE_WITH_UNIT(LENGTH_MEASURE(1.E-6), #319, 'DISTANCE_ACCURACY_VALUE', '');
#321 = (
   NAMED_UNIT (*)
   SI_UNIT ($, .STERADIAN.)
   SOLID_ANGLE_UNIT ()
);
#322 = (
   NAMED_UNIT (*)
   PLANE_ANGLE_UNIT ()
   SI_UNIT ($, .RADIAN.)
);
#323 = SHAPE_REPRESENTATION('', (#338), #318);
#324 = PRODUCT_DEFINITION_SHAPE('', '', #325);
#325 = PRODUCT_DEFINITION('', '', #328, #332);
#326 = APPLICATION_CONTEXT('configuration controlled 3D designs of mechanical parts and assemblies');
#327 = APPLICATION_PROTOCOL_DEFINITION('International Standard', 'automotive_design', 2002, #326);
#328 = PRODUCT_DEFINITION_FORMATION_WITH_SPECIFIED_SOURCE('', '', #329, .NOT_KNOWN.);
#329 = PRODUCT('TwistCustom', 'TwistCustom', '', (#330));
#330 = PRODUCT_CONTEXT('', #326, 'mechanical');
#331 = PRODUCT_RELATED_PRODUCT_CATEGORY('detail', '', (#329));
#332 = PRODUCT_DEFINITION_CONTEXT('part definition', #326, 'design');
#333 = SHAPE_DEFINITION_REPRESENTATION(#324, #323);
#334 = SHAPE_REPRESENTATION_RELATIONSHIP('', '', #323, #335);
#335 = SHAPE_REPRESENTATION('', (#317), #318);
#336 = SHAPE_REPRESENTATION_RELATIONSHIP('', '', #323, #337);
#337 = ADVANCED_BREP_SHAPE_REPRESENTATION('', (#1), #318);
#338 = AXIS2_PLACEMENT_3D('', #339, #340, #341);
#339 = CARTESIAN_POINT('', (0., 0., 0.));
#340 = DIRECTION('', (0., 0., 1.));
#341 = DIRECTION('', (1., 0., 0.));
ENDSEC;
END-ISO-10303-21;
