ISO-10303-21;
HEADER;
FILE_DESCRIPTION(('STEP'), '1');
FILE_NAME('TwistCenter', '2026-04-18T01:13:30', (''), (''), 'Express 3.1.2.0', 'Express Tool', 'Unknown');
FILE_SCHEMA(('AUTOMOTIVE_DESIGN'));
ENDSEC;

DATA;
#1 = MANIFOLD_SOLID_BREP('CenterOrigin_0', #2);
#2 = CLOSED_SHELL('', (#3, #95, #165, #235, #283, #295));
#3 = ADVANCED_FACE('', (#4), #62, .T.);
#4 = FACE_OUTER_BOUND('', #5, .T.);
#5 = EDGE_LOOP('', (#6, #15, #36, #43));
#6 = ORIENTED_EDGE('', *, *, #7, .T.);
#7 = EDGE_CURVE('', #8, #10, #12, .T.);
#8 = VERTEX_POINT('', #9);
#9 = CARTESIAN_POINT('', (-35., 10., 0.));
#10 = VERTEX_POINT('', #11);
#11 = CARTESIAN_POINT('', (-65., 10., 0.));
#12 = B_SPLINE_CURVE_WITH_KNOTS('', 1, (#13, #14), .UNSPECIFIED., .F., .U., (2, 2), (0., 1.), .UNSPECIFIED.);
#13 = CARTESIAN_POINT('', (-35., 10., 0.));
#14 = CARTESIAN_POINT('', (-65., 10., 0.));
#15 = ORIENTED_EDGE('', *, *, #16, .T.);
#16 = EDGE_CURVE('', #10, #17, #19, .T.);
#17 = VERTEX_POINT('', #18);
#18 = CARTESIAN_POINT('', (-10., -65., 80.));
#19 = B_SPLINE_CURVE_WITH_KNOTS('', 3, (#20, #21, #22, #23, #24, #25, #26, #27, #28, #29, #30, #31, #32, #33, #34, #35), .UNSPECIFIED., .F., .U., (4, 1, 1, 1, 1, 1, 1, 1, 1, 1, 1, 1, 1, 4), (0., 10.6666666666667, 16., 21.3333333333333, 26.6666666666667, 32., 37.3333333333333, 42.6666666666667, 48., 53.3333333333333, 58.6666666666667, 64., 69.3333333333333, 80.), .UNSPECIFIED.);
#20 = CARTESIAN_POINT('', (-65., 10., 0.));
#21 = CARTESIAN_POINT('', (-65.6990768672532, 5.4621923390319, 3.55555555555555));
#22 = CARTESIAN_POINT('', (-66.0293221140134, -1.45451736501461, 8.88888888888889));
#23 = CARTESIAN_POINT('', (-65.0275703885182, -10.5948868587685, 16.));
#24 = CARTESIAN_POINT('', (-63.5638952808942, -17.3340796549931, 21.3333333333333));
#25 = CARTESIAN_POINT('', (-61.4037755530673, -23.8833578622651, 26.6666666666667));
#26 = CARTESIAN_POINT('', (-58.5709099827677, -30.1709646688804, 32.));
#27 = CARTESIAN_POINT('', (-55.0963274596398, -36.1280121937812, 37.3333333333333));
#28 = CARTESIAN_POINT('', (-51.0180984963882, -41.6892335073061, 42.6666666666667));
#29 = CARTESIAN_POINT('', (-46.3809045634057, -46.7936993316468, 48.));
#30 = CARTESIAN_POINT('', (-41.2355513065505, -51.385481834788, 53.3333333333333));
#31 = CARTESIAN_POINT('', (-35.6384144374587, -55.4142808051324, 58.6666666666667));
#32 = CARTESIAN_POINT('', (-29.6508092017327, -58.8359248407488, 64.));
#33 = CARTESIAN_POINT('', (-21.2342203188214, -62.5387470857309, 71.1111111111111));
#34 = CARTESIAN_POINT('', (-14.5380939951266, -64.3027843047771, 76.4444444444445));
#35 = CARTESIAN_POINT('', (-10., -65., 80.));
#36 = ORIENTED_EDGE('', *, *, #37, .F.);
#37 = EDGE_CURVE('', #38, #17, #40, .T.);
#38 = VERTEX_POINT('', #39);
#39 = CARTESIAN_POINT('', (-10., -35., 80.));
#40 = B_SPLINE_CURVE_WITH_KNOTS('', 1, (#41, #42), .UNSPECIFIED., .F., .U., (2, 2), (0., 1.), .UNSPECIFIED.);
#41 = CARTESIAN_POINT('', (-10., -35., 80.));
#42 = CARTESIAN_POINT('', (-10., -65., 80.));
#43 = ORIENTED_EDGE('', *, *, #44, .F.);
#44 = EDGE_CURVE('', #8, #38, #45, .T.);
#45 = B_SPLINE_CURVE_WITH_KNOTS('', 3, (#46, #47, #48, #49, #50, #51, #52, #53, #54, #55, #56, #57, #58, #59, #60, #61), .UNSPECIFIED., .F., .U., (4, 1, 1, 1, 1, 1, 1, 1, 1, 1, 1, 1, 1, 4), (0., 10.6666666666667, 16., 21.3333333333333, 26.6666666666667, 32., 37.3333333333333, 42.6666666666667, 48., 53.3333333333333, 58.6666666666667, 64., 69.3333333333333, 80.), .UNSPECIFIED.);
#46 = CARTESIAN_POINT('', (-35., 10., 0.));
#47 = CARTESIAN_POINT('', (-35.6986473660154, 7.55663118274606, 3.55555555555555));
#48 = CARTESIAN_POINT('', (-36.3597676833032, 3.78134517740909, 8.88888888888889));
#49 = CARTESIAN_POINT('', (-36.443686874072, -1.3074185371144, 16.));
#50 = CARTESIAN_POINT('', (-36.1073931071958, -5.10965794135038, 21.3333333333333));
#51 = CARTESIAN_POINT('', (-35.3754853866391, -8.85591728484608, 26.6666666666667));
#52 = CARTESIAN_POINT('', (-34.2560001409797, -12.505148692199, 32.));
#53 = CARTESIAN_POINT('', (-32.7611980057292, -16.0173712652805, 37.3333333333333));
#54 = CARTESIAN_POINT('', (-30.9074575678876, -19.3541040533955, 42.6666666666667));
#55 = CARTESIAN_POINT('', (-28.7150885867243, -22.4787894898588, 48.));
#56 = CARTESIAN_POINT('', (-26.2081107291315, -25.3571916683598, 53.3333333333333));
#57 = CARTESIAN_POINT('', (-23.413992723816, -27.9577786314339, 58.6666666666667));
#58 = CARTESIAN_POINT('', (-20.3633408800786, -30.2520413263026, 64.));
#59 = CARTESIAN_POINT('', (-15.9983577763977, -32.8691926550207, 71.1111111111111));
#60 = CARTESIAN_POINT('', (-12.4436551514124, -34.3023548035393, 76.4444444444445));
#61 = CARTESIAN_POINT('', (-10., -35., 80.));
#62 = B_SPLINE_SURFACE_WITH_KNOTS('', 1, 3, ((#63, #64, #65, #66, #67, #68, #69, #70, #71, #72, #73, #74, #75, #76, #77, #78), (#79, #80, #81, #82, #83, #84, #85, #86, #87, #88, #89, #90, #91, #92, #93, #94)), .UNSPECIFIED., .F., .F., .U., (2, 2), (4, 1, 1, 1, 1, 1, 1, 1, 1, 1, 1, 1, 1, 4), (0., 1.), (0., 10.6666666666667, 16., 21.3333333333333, 26.6666666666667, 32., 37.3333333333333, 42.6666666666667, 48., 53.3333333333333, 58.6666666666667, 64., 69.3333333333333, 80.), .UNSPECIFIED.);
#63 = CARTESIAN_POINT('', (-35., 10., 0.));
#64 = CARTESIAN_POINT('', (-35.6986473660154, 7.55663118274606, 3.55555555555555));
#65 = CARTESIAN_POINT('', (-36.3597676833032, 3.78134517740909, 8.88888888888889));
#66 = CARTESIAN_POINT('', (-36.443686874072, -1.3074185371144, 16.));
#67 = CARTESIAN_POINT('', (-36.1073931071958, -5.10965794135038, 21.3333333333333));
#68 = CARTESIAN_POINT('', (-35.3754853866391, -8.85591728484608, 26.6666666666667));
#69 = CARTESIAN_POINT('', (-34.2560001409797, -12.505148692199, 32.));
#70 = CARTESIAN_POINT('', (-32.7611980057292, -16.0173712652805, 37.3333333333333));
#71 = CARTESIAN_POINT('', (-30.9074575678876, -19.3541040533955, 42.6666666666667));
#72 = CARTESIAN_POINT('', (-28.7150885867243, -22.4787894898588, 48.));
#73 = CARTESIAN_POINT('', (-26.2081107291315, -25.3571916683598, 53.3333333333333));
#74 = CARTESIAN_POINT('', (-23.413992723816, -27.9577786314339, 58.6666666666667));
#75 = CARTESIAN_POINT('', (-20.3633408800786, -30.2520413263026, 64.));
#76 = CARTESIAN_POINT('', (-15.9983577763977, -32.8691926550207, 71.1111111111111));
#77 = CARTESIAN_POINT('', (-12.4436551514124, -34.3023548035393, 76.4444444444445));
#78 = CARTESIAN_POINT('', (-10., -35., 80.));
#79 = CARTESIAN_POINT('', (-65., 10., 0.));
#80 = CARTESIAN_POINT('', (-65.6990768672532, 5.4621923390319, 3.55555555555555));
#81 = CARTESIAN_POINT('', (-66.0293221140134, -1.45451736501461, 8.88888888888889));
#82 = CARTESIAN_POINT('', (-65.0275703885182, -10.5948868587685, 16.));
#83 = CARTESIAN_POINT('', (-63.5638952808942, -17.3340796549931, 21.3333333333333));
#84 = CARTESIAN_POINT('', (-61.4037755530673, -23.8833578622651, 26.6666666666667));
#85 = CARTESIAN_POINT('', (-58.5709099827677, -30.1709646688804, 32.));
#86 = CARTESIAN_POINT('', (-55.0963274596398, -36.1280121937812, 37.3333333333333));
#87 = CARTESIAN_POINT('', (-51.0180984963882, -41.6892335073061, 42.6666666666667));
#88 = CARTESIAN_POINT('', (-46.3809045634057, -46.7936993316468, 48.));
#89 = CARTESIAN_POINT('', (-41.2355513065505, -51.385481834788, 53.3333333333333));
#90 = CARTESIAN_POINT('', (-35.6384144374587, -55.4142808051324, 58.6666666666667));
#91 = CARTESIAN_POINT('', (-29.6508092017327, -58.8359248407488, 64.));
#92 = CARTESIAN_POINT('', (-21.2342203188214, -62.5387470857309, 71.1111111111111));
#93 = CARTESIAN_POINT('', (-14.5380939951266, -64.3027843047771, 76.4444444444445));
#94 = CARTESIAN_POINT('', (-10., -65., 80.));
#95 = ADVANCED_FACE('', (#96), #132, .T.);
#96 = FACE_OUTER_BOUND('', #97, .T.);
#97 = EDGE_LOOP('', (#98, #105, #126, #131));
#98 = ORIENTED_EDGE('', *, *, #99, .T.);
#99 = EDGE_CURVE('', #10, #100, #102, .T.);
#100 = VERTEX_POINT('', #101);
#101 = CARTESIAN_POINT('', (-65., -10., 0.));
#102 = B_SPLINE_CURVE_WITH_KNOTS('', 1, (#103, #104), .UNSPECIFIED., .F., .U., (2, 2), (0., 1.), .UNSPECIFIED.);
#103 = CARTESIAN_POINT('', (-65., 10., 0.));
#104 = CARTESIAN_POINT('', (-65., -10., 0.));
#105 = ORIENTED_EDGE('', *, *, #106, .T.);
#106 = EDGE_CURVE('', #100, #107, #109, .T.);
#107 = VERTEX_POINT('', #108);
#108 = CARTESIAN_POINT('', (10., -65., 80.));
#109 = B_SPLINE_CURVE_WITH_KNOTS('', 3, (#110, #111, #112, #113, #114, #115, #116, #117, #118, #119, #120, #121, #122, #123, #124, #125), .UNSPECIFIED., .F., .U., (4, 1, 1, 1, 1, 1, 1, 1, 1, 1, 1, 1, 1, 4), (0., 10.6666666666667, 16., 21.3333333333333, 26.6666666666667, 32., 37.3333333333333, 42.6666666666667, 48., 53.3333333333333, 58.6666666666667, 64., 69.3333333333333, 80.), .UNSPECIFIED.);
#110 = CARTESIAN_POINT('', (-65., -10., 0.));
#111 = CARTESIAN_POINT('', (-64.3027843047771, -14.5380939951266, 3.55555555555555));
#112 = CARTESIAN_POINT('', (-62.5387470857309, -21.2342203188214, 8.88888888888889));
#113 = CARTESIAN_POINT('', (-58.8359248407488, -29.6508092017327, 16.));
#114 = CARTESIAN_POINT('', (-55.4142808051324, -35.6384144374587, 21.3333333333333));
#115 = CARTESIAN_POINT('', (-51.385481834788, -41.2355513065505, 26.6666666666667));
#116 = CARTESIAN_POINT('', (-46.7936993316468, -46.3809045634057, 32.));
#117 = CARTESIAN_POINT('', (-41.6892335073061, -51.0180984963882, 37.3333333333333));
#118 = CARTESIAN_POINT('', (-36.1280121937811, -55.0963274596398, 42.6666666666667));
#119 = CARTESIAN_POINT('', (-30.1709646688804, -58.5709099827677, 48.));
#120 = CARTESIAN_POINT('', (-23.883357862265, -61.4037755530673, 53.3333333333333));
#121 = CARTESIAN_POINT('', (-17.3340796549931, -63.5638952808942, 58.6666666666667));
#122 = CARTESIAN_POINT('', (-10.5948868587685, -65.0275703885182, 64.));
#123 = CARTESIAN_POINT('', (-1.45451736501458, -66.0293221140134, 71.1111111111111));
#124 = CARTESIAN_POINT('', (5.4621923390319, -65.6990768672532, 76.4444444444445));
#125 = CARTESIAN_POINT('', (10., -65., 80.));
#126 = ORIENTED_EDGE('', *, *, #127, .F.);
#127 = EDGE_CURVE('', #17, #107, #128, .T.);
#128 = B_SPLINE_CURVE_WITH_KNOTS('', 1, (#129, #130), .UNSPECIFIED., .F., .U., (2, 2), (0., 1.), .UNSPECIFIED.);
#129 = CARTESIAN_POINT('', (-10., -65., 80.));
#130 = CARTESIAN_POINT('', (10., -65., 80.));
#131 = ORIENTED_EDGE('', *, *, #16, .F.);
#132 = B_SPLINE_SURFACE_WITH_KNOTS('', 1, 3, ((#133, #134, #135, #136, #137, #138, #139, #140, #141, #142, #143, #144, #145, #146, #147, #148), (#149, #150, #151, #152, #153, #154, #155, #156, #157, #158, #159, #160, #161, #162, #163, #164)), .UNSPECIFIED., .F., .F., .U., (2, 2), (4, 1, 1, 1, 1, 1, 1, 1, 1, 1, 1, 1, 1, 4), (0., 1.), (0., 10.6666666666667, 16., 21.3333333333333, 26.6666666666667, 32., 37.3333333333333, 42.6666666666667, 48., 53.3333333333333, 58.6666666666667, 64., 69.3333333333333, 80.), .UNSPECIFIED.);
#133 = CARTESIAN_POINT('', (-65., 10., 0.));
#134 = CARTESIAN_POINT('', (-65.6990768672532, 5.4621923390319, 3.55555555555555));
#135 = CARTESIAN_POINT('', (-66.0293221140134, -1.45451736501461, 8.88888888888889));
#136 = CARTESIAN_POINT('', (-65.0275703885182, -10.5948868587685, 16.));
#137 = CARTESIAN_POINT('', (-63.5638952808942, -17.3340796549931, 21.3333333333333));
#138 = CARTESIAN_POINT('', (-61.4037755530673, -23.8833578622651, 26.6666666666667));
#139 = CARTESIAN_POINT('', (-58.5709099827677, -30.1709646688804, 32.));
#140 = CARTESIAN_POINT('', (-55.0963274596398, -36.1280121937812, 37.3333333333333));
#141 = CARTESIAN_POINT('', (-51.0180984963882, -41.6892335073061, 42.6666666666667));
#142 = CARTESIAN_POINT('', (-46.3809045634057, -46.7936993316468, 48.));
#143 = CARTESIAN_POINT('', (-41.2355513065505, -51.385481834788, 53.3333333333333));
#144 = CARTESIAN_POINT('', (-35.6384144374587, -55.4142808051324, 58.6666666666667));
#145 = CARTESIAN_POINT('', (-29.6508092017327, -58.8359248407488, 64.));
#146 = CARTESIAN_POINT('', (-21.2342203188214, -62.5387470857309, 71.1111111111111));
#147 = CARTESIAN_POINT('', (-14.5380939951266, -64.3027843047771, 76.4444444444445));
#148 = CARTESIAN_POINT('', (-10., -65., 80.));
#149 = CARTESIAN_POINT('', (-65., -10., 0.));
#150 = CARTESIAN_POINT('', (-64.3027843047771, -14.5380939951266, 3.55555555555555));
#151 = CARTESIAN_POINT('', (-62.5387470857309, -21.2342203188214, 8.88888888888889));
#152 = CARTESIAN_POINT('', (-58.8359248407488, -29.6508092017327, 16.));
#153 = CARTESIAN_POINT('', (-55.4142808051324, -35.6384144374587, 21.3333333333333));
#154 = CARTESIAN_POINT('', (-51.385481834788, -41.2355513065505, 26.6666666666667));
#155 = CARTESIAN_POINT('', (-46.7936993316468, -46.3809045634057, 32.));
#156 = CARTESIAN_POINT('', (-41.6892335073061, -51.0180984963882, 37.3333333333333));
#157 = CARTESIAN_POINT('', (-36.1280121937811, -55.0963274596398, 42.6666666666667));
#158 = CARTESIAN_POINT('', (-30.1709646688804, -58.5709099827677, 48.));
#159 = CARTESIAN_POINT('', (-23.883357862265, -61.4037755530673, 53.3333333333333));
#160 = CARTESIAN_POINT('', (-17.3340796549931, -63.5638952808942, 58.6666666666667));
#161 = CARTESIAN_POINT('', (-10.5948868587685, -65.0275703885182, 64.));
#162 = CARTESIAN_POINT('', (-1.45451736501458, -66.0293221140134, 71.1111111111111));
#163 = CARTESIAN_POINT('', (5.4621923390319, -65.6990768672532, 76.4444444444445));
#164 = CARTESIAN_POINT('', (10., -65., 80.));
#165 = ADVANCED_FACE('', (#166), #202, .T.);
#166 = FACE_OUTER_BOUND('', #167, .T.);
#167 = EDGE_LOOP('', (#168, #175, #196, #201));
#168 = ORIENTED_EDGE('', *, *, #169, .T.);
#169 = EDGE_CURVE('', #100, #170, #172, .T.);
#170 = VERTEX_POINT('', #171);
#171 = CARTESIAN_POINT('', (-35., -10., 0.));
#172 = B_SPLINE_CURVE_WITH_KNOTS('', 1, (#173, #174), .UNSPECIFIED., .F., .U., (2, 2), (0., 1.), .UNSPECIFIED.);
#173 = CARTESIAN_POINT('', (-65., -10., 0.));
#174 = CARTESIAN_POINT('', (-35., -10., 0.));
#175 = ORIENTED_EDGE('', *, *, #176, .T.);
#176 = EDGE_CURVE('', #170, #177, #179, .T.);
#177 = VERTEX_POINT('', #178);
#178 = CARTESIAN_POINT('', (10., -35., 80.));
#179 = B_SPLINE_CURVE_WITH_KNOTS('', 3, (#180, #181, #182, #183, #184, #185, #186, #187, #188, #189, #190, #191, #192, #193, #194, #195), .UNSPECIFIED., .F., .U., (4, 1, 1, 1, 1, 1, 1, 1, 1, 1, 1, 1, 1, 4), (0., 10.6666666666667, 16., 21.3333333333333, 26.6666666666667, 32., 37.3333333333333, 42.6666666666667, 48., 53.3333333333333, 58.6666666666667, 64., 69.3333333333333, 80.), .UNSPECIFIED.);
#180 = CARTESIAN_POINT('', (-35., -10., 0.));
#181 = CARTESIAN_POINT('', (-34.3023548035393, -12.4436551514124, 3.55555555555555));
#182 = CARTESIAN_POINT('', (-32.8691926550207, -15.9983577763977, 8.88888888888889));
#183 = CARTESIAN_POINT('', (-30.2520413263026, -20.3633408800786, 16.));
#184 = CARTESIAN_POINT('', (-27.9577786314339, -23.413992723816, 21.3333333333333));
#185 = CARTESIAN_POINT('', (-25.3571916683598, -26.2081107291315, 26.6666666666667));
#186 = CARTESIAN_POINT('', (-22.4787894898588, -28.7150885867243, 32.));
#187 = CARTESIAN_POINT('', (-19.3541040533955, -30.9074575678876, 37.3333333333333));
#188 = CARTESIAN_POINT('', (-16.0173712652805, -32.7611980057292, 42.6666666666667));
#189 = CARTESIAN_POINT('', (-12.505148692199, -34.2560001409798, 48.));
#190 = CARTESIAN_POINT('', (-8.85591728484608, -35.3754853866391, 53.3333333333333));
#191 = CARTESIAN_POINT('', (-5.10965794135039, -36.1073931071958, 58.6666666666667));
#192 = CARTESIAN_POINT('', (-1.3074185371144, -36.443686874072, 64.));
#193 = CARTESIAN_POINT('', (3.7813451774091, -36.3597676833031, 71.1111111111111));
#194 = CARTESIAN_POINT('', (7.55663118274606, -35.6986473660154, 76.4444444444445));
#195 = CARTESIAN_POINT('', (10., -35., 80.));
#196 = ORIENTED_EDGE('', *, *, #197, .F.);
#197 = EDGE_CURVE('', #107, #177, #198, .T.);
#198 = B_SPLINE_CURVE_WITH_KNOTS('', 1, (#199, #200), .UNSPECIFIED., .F., .U., (2, 2), (0., 1.), .UNSPECIFIED.);
#199 = CARTESIAN_POINT('', (10., -65., 80.));
#200 = CARTESIAN_POINT('', (10., -35., 80.));
#201 = ORIENTED_EDGE('', *, *, #106, .F.);
#202 = B_SPLINE_SURFACE_WITH_KNOTS('', 1, 3, ((#203, #204, #205, #206, #207, #208, #209, #210, #211, #212, #213, #214, #215, #216, #217, #218), (#219, #220, #221, #222, #223, #224, #225, #226, #227, #228, #229, #230, #231, #232, #233, #234)), .UNSPECIFIED., .F., .F., .U., (2, 2), (4, 1, 1, 1, 1, 1, 1, 1, 1, 1, 1, 1, 1, 4), (0., 1.), (0., 10.6666666666667, 16., 21.3333333333333, 26.6666666666667, 32., 37.3333333333333, 42.6666666666667, 48., 53.3333333333333, 58.6666666666667, 64., 69.3333333333333, 80.), .UNSPECIFIED.);
#203 = CARTESIAN_POINT('', (-65., -10., 0.));
#204 = CARTESIAN_POINT('', (-64.3027843047771, -14.5380939951266, 3.55555555555555));
#205 = CARTESIAN_POINT('', (-62.5387470857309, -21.2342203188214, 8.88888888888889));
#206 = CARTESIAN_POINT('', (-58.8359248407488, -29.6508092017327, 16.));
#207 = CARTESIAN_POINT('', (-55.4142808051324, -35.6384144374587, 21.3333333333333));
#208 = CARTESIAN_POINT('', (-51.385481834788, -41.2355513065505, 26.6666666666667));
#209 = CARTESIAN_POINT('', (-46.7936993316468, -46.3809045634057, 32.));
#210 = CARTESIAN_POINT('', (-41.6892335073061, -51.0180984963882, 37.3333333333333));
#211 = CARTESIAN_POINT('', (-36.1280121937811, -55.0963274596398, 42.6666666666667));
#212 = CARTESIAN_POINT('', (-30.1709646688804, -58.5709099827677, 48.));
#213 = CARTESIAN_POINT('', (-23.883357862265, -61.4037755530673, 53.3333333333333));
#214 = CARTESIAN_POINT('', (-17.3340796549931, -63.5638952808942, 58.6666666666667));
#215 = CARTESIAN_POINT('', (-10.5948868587685, -65.0275703885182, 64.));
#216 = CARTESIAN_POINT('', (-1.45451736501458, -66.0293221140134, 71.1111111111111));
#217 = CARTESIAN_POINT('', (5.4621923390319, -65.6990768672532, 76.4444444444445));
#218 = CARTESIAN_POINT('', (10., -65., 80.));
#219 = CARTESIAN_POINT('', (-35., -10., 0.));
#220 = CARTESIAN_POINT('', (-34.3023548035393, -12.4436551514124, 3.55555555555555));
#221 = CARTESIAN_POINT('', (-32.8691926550207, -15.9983577763977, 8.88888888888889));
#222 = CARTESIAN_POINT('', (-30.2520413263026, -20.3633408800786, 16.));
#223 = CARTESIAN_POINT('', (-27.9577786314339, -23.413992723816, 21.3333333333333));
#224 = CARTESIAN_POINT('', (-25.3571916683598, -26.2081107291315, 26.6666666666667));
#225 = CARTESIAN_POINT('', (-22.4787894898588, -28.7150885867243, 32.));
#226 = CARTESIAN_POINT('', (-19.3541040533955, -30.9074575678876, 37.3333333333333));
#227 = CARTESIAN_POINT('', (-16.0173712652805, -32.7611980057292, 42.6666666666667));
#228 = CARTESIAN_POINT('', (-12.505148692199, -34.2560001409798, 48.));
#229 = CARTESIAN_POINT('', (-8.85591728484608, -35.3754853866391, 53.3333333333333));
#230 = CARTESIAN_POINT('', (-5.10965794135039, -36.1073931071958, 58.6666666666667));
#231 = CARTESIAN_POINT('', (-1.3074185371144, -36.443686874072, 64.));
#232 = CARTESIAN_POINT('', (3.7813451774091, -36.3597676833031, 71.1111111111111));
#233 = CARTESIAN_POINT('', (7.55663118274606, -35.6986473660154, 76.4444444444445));
#234 = CARTESIAN_POINT('', (10., -35., 80.));
#235 = ADVANCED_FACE('', (#236), #250, .T.);
#236 = FACE_OUTER_BOUND('', #237, .T.);
#237 = EDGE_LOOP('', (#238, #243, #244, #249));
#238 = ORIENTED_EDGE('', *, *, #239, .T.);
#239 = EDGE_CURVE('', #170, #8, #240, .T.);
#240 = B_SPLINE_CURVE_WITH_KNOTS('', 1, (#241, #242), .UNSPECIFIED., .F., .U., (2, 2), (0., 1.), .UNSPECIFIED.);
#241 = CARTESIAN_POINT('', (-35., -10., 0.));
#242 = CARTESIAN_POINT('', (-35., 10., 0.));
#243 = ORIENTED_EDGE('', *, *, #44, .T.);
#244 = ORIENTED_EDGE('', *, *, #245, .F.);
#245 = EDGE_CURVE('', #177, #38, #246, .T.);
#246 = B_SPLINE_CURVE_WITH_KNOTS('', 1, (#247, #248), .UNSPECIFIED., .F., .U., (2, 2), (0., 1.), .UNSPECIFIED.);
#247 = CARTESIAN_POINT('', (10., -35., 80.));
#248 = CARTESIAN_POINT('', (-10., -35., 80.));
#249 = ORIENTED_EDGE('', *, *, #176, .F.);
#250 = B_SPLINE_SURFACE_WITH_KNOTS('', 1, 3, ((#251, #252, #253, #254, #255, #256, #257, #258, #259, #260, #261, #262, #263, #264, #265, #266), (#267, #268, #269, #270, #271, #272, #273, #274, #275, #276, #277, #278, #279, #280, #281, #282)), .UNSPECIFIED., .F., .F., .U., (2, 2), (4, 1, 1, 1, 1, 1, 1, 1, 1, 1, 1, 1, 1, 4), (0., 1.), (0., 10.6666666666667, 16., 21.3333333333333, 26.6666666666667, 32., 37.3333333333333, 42.6666666666667, 48., 53.3333333333333, 58.6666666666667, 64., 69.3333333333333, 80.), .UNSPECIFIED.);
#251 = CARTESIAN_POINT('', (-35., -10., 0.));
#252 = CARTESIAN_POINT('', (-34.3023548035393, -12.4436551514124, 3.55555555555555));
#253 = CARTESIAN_POINT('', (-32.8691926550207, -15.9983577763977, 8.88888888888889));
#254 = CARTESIAN_POINT('', (-30.2520413263026, -20.3633408800786, 16.));
#255 = CARTESIAN_POINT('', (-27.9577786314339, -23.413992723816, 21.3333333333333));
#256 = CARTESIAN_POINT('', (-25.3571916683598, -26.2081107291315, 26.6666666666667));
#257 = CARTESIAN_POINT('', (-22.4787894898588, -28.7150885867243, 32.));
#258 = CARTESIAN_POINT('', (-19.3541040533955, -30.9074575678876, 37.3333333333333));
#259 = CARTESIAN_POINT('', (-16.0173712652805, -32.7611980057292, 42.6666666666667));
#260 = CARTESIAN_POINT('', (-12.505148692199, -34.2560001409798, 48.));
#261 = CARTESIAN_POINT('', (-8.85591728484608, -35.3754853866391, 53.3333333333333));
#262 = CARTESIAN_POINT('', (-5.10965794135039, -36.1073931071958, 58.6666666666667));
#263 = CARTESIAN_POINT('', (-1.3074185371144, -36.443686874072, 64.));
#264 = CARTESIAN_POINT('', (3.7813451774091, -36.3597676833031, 71.1111111111111));
#265 = CARTESIAN_POINT('', (7.55663118274606, -35.6986473660154, 76.4444444444445));
#266 = CARTESIAN_POINT('', (10., -35., 80.));
#267 = CARTESIAN_POINT('', (-35., 10., 0.));
#268 = CARTESIAN_POINT('', (-35.6986473660154, 7.55663118274606, 3.55555555555555));
#269 = CARTESIAN_POINT('', (-36.3597676833032, 3.78134517740909, 8.88888888888889));
#270 = CARTESIAN_POINT('', (-36.443686874072, -1.3074185371144, 16.));
#271 = CARTESIAN_POINT('', (-36.1073931071958, -5.10965794135038, 21.3333333333333));
#272 = CARTESIAN_POINT('', (-35.3754853866391, -8.85591728484608, 26.6666666666667));
#273 = CARTESIAN_POINT('', (-34.2560001409797, -12.505148692199, 32.));
#274 = CARTESIAN_POINT('', (-32.7611980057292, -16.0173712652805, 37.3333333333333));
#275 = CARTESIAN_POINT('', (-30.9074575678876, -19.3541040533955, 42.6666666666667));
#276 = CARTESIAN_POINT('', (-28.7150885867243, -22.4787894898588, 48.));
#277 = CARTESIAN_POINT('', (-26.2081107291315, -25.3571916683598, 53.3333333333333));
#278 = CARTESIAN_POINT('', (-23.413992723816, -27.9577786314339, 58.6666666666667));
#279 = CARTESIAN_POINT('', (-20.3633408800786, -30.2520413263026, 64.));
#280 = CARTESIAN_POINT('', (-15.9983577763977, -32.8691926550207, 71.1111111111111));
#281 = CARTESIAN_POINT('', (-12.4436551514124, -34.3023548035393, 76.4444444444445));
#282 = CARTESIAN_POINT('', (-10., -35., 80.));
#283 = ADVANCED_FACE('', (#284), #290, .T.);
#284 = FACE_OUTER_BOUND('', #285, .T.);
#285 = EDGE_LOOP('', (#286, #287, #288, #289));
#286 = ORIENTED_EDGE('', *, *, #197, .T.);
#287 = ORIENTED_EDGE('', *, *, #245, .T.);
#288 = ORIENTED_EDGE('', *, *, #37, .T.);
#289 = ORIENTED_EDGE('', *, *, #127, .T.);
#290 = B_SPLINE_SURFACE_WITH_KNOTS('', 1, 1, ((#291, #292), (#293, #294)), .UNSPECIFIED., .F., .F., .U., (2, 2), (2, 2), (0., 1.), (0., 1.), .UNSPECIFIED.);
#291 = CARTESIAN_POINT('', (19.8305320150519, -69.8305320150519, 80.));
#292 = CARTESIAN_POINT('', (-19.830532015052, -69.8305320150519, 80.));
#293 = CARTESIAN_POINT('', (19.8305320150519, -30.1694679849481, 80.));
#294 = CARTESIAN_POINT('', (-19.830532015052, -30.1694679849481, 80.));
#295 = ADVANCED_FACE('', (#296), #302, .T.);
#296 = FACE_OUTER_BOUND('', #297, .T.);
#297 = EDGE_LOOP('', (#298, #299, #300, #301));
#298 = ORIENTED_EDGE('', *, *, #169, .F.);
#299 = ORIENTED_EDGE('', *, *, #99, .F.);
#300 = ORIENTED_EDGE('', *, *, #7, .F.);
#301 = ORIENTED_EDGE('', *, *, #239, .F.);
#302 = B_SPLINE_SURFACE_WITH_KNOTS('', 1, 1, ((#303, #304), (#305, #306)), .UNSPECIFIED., .F., .F., .U., (2, 2), (2, 2), (0., 1.), (0., 1.), .UNSPECIFIED.);
#303 = CARTESIAN_POINT('', (-30.1694679849481, -19.8305320150519, 0.));
#304 = CARTESIAN_POINT('', (-30.1694679849481, 19.8305320150519, 0.));
#305 = CARTESIAN_POINT('', (-69.8305320150519, -19.8305320150519, 0.));
#306 = CARTESIAN_POINT('', (-69.8305320150519, 19.8305320150519, 0.));
#307 = DRAUGHTING_MODEL('', (#315, #629), #632);
#308 = PRESENTATION_STYLE_ASSIGNMENT((#309));
#309 = SURFACE_STYLE_USAGE(.POSITIVE., #310);
#310 = SURFACE_SIDE_STYLE('', (#311));
#311 = SURFACE_STYLE_FILL_AREA(#312);
#312 = FILL_AREA_STYLE('', (#313));
#313 = FILL_AREA_STYLE_COLOUR('', #314);
#314 = COLOUR_RGB('', 0.50196078431373, 0.50196078431373, 0.50196078431373);
#315 = STYLED_ITEM('', (#308), #1);
#316 = MANIFOLD_SOLID_BREP('CenterOffset_0', #317);
#317 = CLOSED_SHELL('', (#318, #410, #480, #550, #598, #610));
#318 = ADVANCED_FACE('', (#319), #377, .T.);
#319 = FACE_OUTER_BOUND('', #320, .T.);
#320 = EDGE_LOOP('', (#321, #330, #351, #358));
#321 = ORIENTED_EDGE('', *, *, #322, .T.);
#322 = EDGE_CURVE('', #323, #325, #327, .T.);
#323 = VERTEX_POINT('', #324);
#324 = CARTESIAN_POINT('', (65., 10., 0.));
#325 = VERTEX_POINT('', #326);
#326 = CARTESIAN_POINT('', (35., 10., 0.));
#327 = B_SPLINE_CURVE_WITH_KNOTS('', 1, (#328, #329), .UNSPECIFIED., .F., .U., (2, 2), (0., 1.), .UNSPECIFIED.);
#328 = CARTESIAN_POINT('', (65., 10., 0.));
#329 = CARTESIAN_POINT('', (35., 10., 0.));
#330 = ORIENTED_EDGE('', *, *, #331, .T.);
#331 = EDGE_CURVE('', #325, #332, #334, .T.);
#332 = VERTEX_POINT('', #333);
#333 = CARTESIAN_POINT('', (40., -15., 80.));
#334 = B_SPLINE_CURVE_WITH_KNOTS('', 3, (#335, #336, #337, #338, #339, #340, #341, #342, #343, #344, #345, #346, #347, #348, #349, #350), .UNSPECIFIED., .F., .U., (4, 1, 1, 1, 1, 1, 1, 1, 1, 1, 1, 1, 1, 4), (0., 10.6666666666667, 16., 21.3333333333333, 26.6666666666667, 32., 37.3333333333333, 42.6666666666667, 48., 53.3333333333333, 58.6666666666667, 64., 69.3333333333333, 80.), .UNSPECIFIED.);
#335 = CARTESIAN_POINT('', (35., 10., 0.));
#336 = CARTESIAN_POINT('', (34.3016389681431, 8.95292374522217, 3.55555555555555));
#337 = CARTESIAN_POINT('', (33.4199352705037, 7.27192020569156, 8.88888888888889));
#338 = CARTESIAN_POINT('', (32.6122354688922, 4.88422701065502, 16.));
#339 = CARTESIAN_POINT('', (32.1969416752699, 3.03995653441145, 21.3333333333333));
#340 = CARTESIAN_POINT('', (31.9767080576463, 1.16237643343323, 26.6666666666667));
#341 = CARTESIAN_POINT('', (31.9539397535456, -0.727938041078049, 32.));
#342 = CARTESIAN_POINT('', (32.1288882968778, -2.61027731294678, 37.3333333333333));
#343 = CARTESIAN_POINT('', (32.4996363844462, -4.46401775078843, 42.6666666666667));
#344 = CARTESIAN_POINT('', (33.0621220643967, -6.2688495953335, 48.));
#345 = CARTESIAN_POINT('', (33.8101829891478, -8.00499822407442, 53.3333333333333));
#346 = CARTESIAN_POINT('', (34.7356217519458, -9.65344384896832, 58.6666666666667));
#347 = CARTESIAN_POINT('', (35.8283046676909, -11.1961189833384, 64.));
#348 = CARTESIAN_POINT('', (37.4922172518847, -13.0894897012139, 71.1111111111111));
#349 = CARTESIAN_POINT('', (38.9526374110637, -14.3020684693808, 76.4444444444445));
#350 = CARTESIAN_POINT('', (40., -15., 80.));
#351 = ORIENTED_EDGE('', *, *, #352, .F.);
#352 = EDGE_CURVE('', #353, #332, #355, .T.);
#353 = VERTEX_POINT('', #354);
#354 = CARTESIAN_POINT('', (40., 15., 80.));
#355 = B_SPLINE_CURVE_WITH_KNOTS('', 1, (#356, #357), .UNSPECIFIED., .F., .U., (2, 2), (0., 1.), .UNSPECIFIED.);
#356 = CARTESIAN_POINT('', (40., 15., 80.));
#357 = CARTESIAN_POINT('', (40., -15., 80.));
#358 = ORIENTED_EDGE('', *, *, #359, .F.);
#359 = EDGE_CURVE('', #323, #353, #360, .T.);
#360 = B_SPLINE_CURVE_WITH_KNOTS('', 3, (#361, #362, #363, #364, #365, #366, #367, #368, #369, #370, #371, #372, #373, #374, #375, #376), .UNSPECIFIED., .F., .U., (4, 1, 1, 1, 1, 1, 1, 1, 1, 1, 1, 1, 1, 4), (0., 10.6666666666667, 16., 21.3333333333333, 26.6666666666667, 32., 37.3333333333333, 42.6666666666667, 48., 53.3333333333333, 58.6666666666667, 64., 69.3333333333333, 80.), .UNSPECIFIED.);
#361 = CARTESIAN_POINT('', (65., 10., 0.));
#362 = CARTESIAN_POINT('', (64.3020684693808, 11.0473625889363, 3.55555555555555));
#363 = CARTESIAN_POINT('', (63.0894897012139, 12.5077827481153, 8.88888888888889));
#364 = CARTESIAN_POINT('', (61.1961189833384, 14.1716953323091, 16.));
#365 = CARTESIAN_POINT('', (59.6534438489683, 15.2643782480542, 21.3333333333333));
#366 = CARTESIAN_POINT('', (58.0049982240744, 16.1898170108522, 26.6666666666667));
#367 = CARTESIAN_POINT('', (56.2688495953335, 16.9378779356033, 32.));
#368 = CARTESIAN_POINT('', (54.4640177507884, 17.5003636155538, 37.3333333333333));
#369 = CARTESIAN_POINT('', (52.6102773129468, 17.8711117031222, 42.6666666666667));
#370 = CARTESIAN_POINT('', (50.727938041078, 18.0460602464544, 48.));
#371 = CARTESIAN_POINT('', (48.8376235665668, 18.0232919423537, 53.3333333333333));
#372 = CARTESIAN_POINT('', (46.9600434655886, 17.8030583247301, 58.6666666666667));
#373 = CARTESIAN_POINT('', (45.115772989345, 17.3877645311078, 64.));
#374 = CARTESIAN_POINT('', (42.7280797943084, 16.5800647294963, 71.1111111111111));
#375 = CARTESIAN_POINT('', (41.0470762547778, 15.6983610318569, 76.4444444444445));
#376 = CARTESIAN_POINT('', (40., 15., 80.));
#377 = B_SPLINE_SURFACE_WITH_KNOTS('', 1, 3, ((#378, #379, #380, #381, #382, #383, #384, #385, #386, #387, #388, #389, #390, #391, #392, #393), (#394, #395, #396, #397, #398, #399, #400, #401, #402, #403, #404, #405, #406, #407, #408, #409)), .UNSPECIFIED., .F., .F., .U., (2, 2), (4, 1, 1, 1, 1, 1, 1, 1, 1, 1, 1, 1, 1, 4), (0., 1.), (0., 10.6666666666667, 16., 21.3333333333333, 26.6666666666667, 32., 37.3333333333333, 42.6666666666667, 48., 53.3333333333333, 58.6666666666667, 64., 69.3333333333333, 80.), .UNSPECIFIED.);
#378 = CARTESIAN_POINT('', (65., 10., 0.));
#379 = CARTESIAN_POINT('', (64.3020684693808, 11.0473625889363, 3.55555555555555));
#380 = CARTESIAN_POINT('', (63.0894897012139, 12.5077827481153, 8.88888888888889));
#381 = CARTESIAN_POINT('', (61.1961189833384, 14.1716953323091, 16.));
#382 = CARTESIAN_POINT('', (59.6534438489683, 15.2643782480542, 21.3333333333333));
#383 = CARTESIAN_POINT('', (58.0049982240744, 16.1898170108522, 26.6666666666667));
#384 = CARTESIAN_POINT('', (56.2688495953335, 16.9378779356033, 32.));
#385 = CARTESIAN_POINT('', (54.4640177507884, 17.5003636155538, 37.3333333333333));
#386 = CARTESIAN_POINT('', (52.6102773129468, 17.8711117031222, 42.6666666666667));
#387 = CARTESIAN_POINT('', (50.727938041078, 18.0460602464544, 48.));
#388 = CARTESIAN_POINT('', (48.8376235665668, 18.0232919423537, 53.3333333333333));
#389 = CARTESIAN_POINT('', (46.9600434655886, 17.8030583247301, 58.6666666666667));
#390 = CARTESIAN_POINT('', (45.115772989345, 17.3877645311078, 64.));
#391 = CARTESIAN_POINT('', (42.7280797943084, 16.5800647294963, 71.1111111111111));
#392 = CARTESIAN_POINT('', (41.0470762547778, 15.6983610318569, 76.4444444444445));
#393 = CARTESIAN_POINT('', (40., 15., 80.));
#394 = CARTESIAN_POINT('', (35., 10., 0.));
#395 = CARTESIAN_POINT('', (34.3016389681431, 8.95292374522217, 3.55555555555555));
#396 = CARTESIAN_POINT('', (33.4199352705037, 7.27192020569156, 8.88888888888889));
#397 = CARTESIAN_POINT('', (32.6122354688922, 4.88422701065502, 16.));
#398 = CARTESIAN_POINT('', (32.1969416752699, 3.03995653441145, 21.3333333333333));
#399 = CARTESIAN_POINT('', (31.9767080576463, 1.16237643343323, 26.6666666666667));
#400 = CARTESIAN_POINT('', (31.9539397535456, -0.727938041078049, 32.));
#401 = CARTESIAN_POINT('', (32.1288882968778, -2.61027731294678, 37.3333333333333));
#402 = CARTESIAN_POINT('', (32.4996363844462, -4.46401775078843, 42.6666666666667));
#403 = CARTESIAN_POINT('', (33.0621220643967, -6.2688495953335, 48.));
#404 = CARTESIAN_POINT('', (33.8101829891478, -8.00499822407442, 53.3333333333333));
#405 = CARTESIAN_POINT('', (34.7356217519458, -9.65344384896832, 58.6666666666667));
#406 = CARTESIAN_POINT('', (35.8283046676909, -11.1961189833384, 64.));
#407 = CARTESIAN_POINT('', (37.4922172518847, -13.0894897012139, 71.1111111111111));
#408 = CARTESIAN_POINT('', (38.9526374110637, -14.3020684693808, 76.4444444444445));
#409 = CARTESIAN_POINT('', (40., -15., 80.));
#410 = ADVANCED_FACE('', (#411), #447, .T.);
#411 = FACE_OUTER_BOUND('', #412, .T.);
#412 = EDGE_LOOP('', (#413, #420, #441, #446));
#413 = ORIENTED_EDGE('', *, *, #414, .T.);
#414 = EDGE_CURVE('', #325, #415, #417, .T.);
#415 = VERTEX_POINT('', #416);
#416 = CARTESIAN_POINT('', (35., -10., 0.));
#417 = B_SPLINE_CURVE_WITH_KNOTS('', 1, (#418, #419), .UNSPECIFIED., .F., .U., (2, 2), (0., 1.), .UNSPECIFIED.);
#418 = CARTESIAN_POINT('', (35., 10., 0.));
#419 = CARTESIAN_POINT('', (35., -10., 0.));
#420 = ORIENTED_EDGE('', *, *, #421, .T.);
#421 = EDGE_CURVE('', #415, #422, #424, .T.);
#422 = VERTEX_POINT('', #423);
#423 = CARTESIAN_POINT('', (60., -15., 80.));
#424 = B_SPLINE_CURVE_WITH_KNOTS('', 3, (#425, #426, #427, #428, #429, #430, #431, #432, #433, #434, #435, #436, #437, #438, #439, #440), .UNSPECIFIED., .F., .U., (4, 1, 1, 1, 1, 1, 1, 1, 1, 1, 1, 1, 1, 4), (0., 10.6666666666667, 16., 21.3333333333333, 26.6666666666667, 32., 37.3333333333333, 42.6666666666667, 48., 53.3333333333333, 58.6666666666667, 64., 69.3333333333333, 80.), .UNSPECIFIED.);
#425 = CARTESIAN_POINT('', (35., -10., 0.));
#426 = CARTESIAN_POINT('', (35.6979315306192, -11.0473625889363, 3.55555555555555));
#427 = CARTESIAN_POINT('', (36.9105102987861, -12.5077827481153, 8.88888888888889));
#428 = CARTESIAN_POINT('', (38.8038810166616, -14.1716953323091, 16.));
#429 = CARTESIAN_POINT('', (40.3465561510317, -15.2643782480542, 21.3333333333333));
#430 = CARTESIAN_POINT('', (41.9950017759256, -16.1898170108522, 26.6666666666667));
#431 = CARTESIAN_POINT('', (43.7311504046665, -16.9378779356033, 32.));
#432 = CARTESIAN_POINT('', (45.5359822492116, -17.5003636155538, 37.3333333333333));
#433 = CARTESIAN_POINT('', (47.3897226870532, -17.8711117031222, 42.6666666666667));
#434 = CARTESIAN_POINT('', (49.272061958922, -18.0460602464544, 48.));
#435 = CARTESIAN_POINT('', (51.1623764334332, -18.0232919423537, 53.3333333333333));
#436 = CARTESIAN_POINT('', (53.0399565344114, -17.8030583247301, 58.6666666666667));
#437 = CARTESIAN_POINT('', (54.884227010655, -17.3877645311078, 64.));
#438 = CARTESIAN_POINT('', (57.2719202056916, -16.5800647294963, 71.1111111111111));
#439 = CARTESIAN_POINT('', (58.9529237452222, -15.6983610318569, 76.4444444444445));
#440 = CARTESIAN_POINT('', (60., -15., 80.));
#441 = ORIENTED_EDGE('', *, *, #442, .F.);
#442 = EDGE_CURVE('', #332, #422, #443, .T.);
#443 = B_SPLINE_CURVE_WITH_KNOTS('', 1, (#444, #445), .UNSPECIFIED., .F., .U., (2, 2), (0., 1.), .UNSPECIFIED.);
#444 = CARTESIAN_POINT('', (40., -15., 80.));
#445 = CARTESIAN_POINT('', (60., -15., 80.));
#446 = ORIENTED_EDGE('', *, *, #331, .F.);
#447 = B_SPLINE_SURFACE_WITH_KNOTS('', 1, 3, ((#448, #449, #450, #451, #452, #453, #454, #455, #456, #457, #458, #459, #460, #461, #462, #463), (#464, #465, #466, #467, #468, #469, #470, #471, #472, #473, #474, #475, #476, #477, #478, #479)), .UNSPECIFIED., .F., .F., .U., (2, 2), (4, 1, 1, 1, 1, 1, 1, 1, 1, 1, 1, 1, 1, 4), (0., 1.), (0., 10.6666666666667, 16., 21.3333333333333, 26.6666666666667, 32., 37.3333333333333, 42.6666666666667, 48., 53.3333333333333, 58.6666666666667, 64., 69.3333333333333, 80.), .UNSPECIFIED.);
#448 = CARTESIAN_POINT('', (35., 10., 0.));
#449 = CARTESIAN_POINT('', (34.3016389681431, 8.95292374522217, 3.55555555555555));
#450 = CARTESIAN_POINT('', (33.4199352705037, 7.27192020569156, 8.88888888888889));
#451 = CARTESIAN_POINT('', (32.6122354688922, 4.88422701065502, 16.));
#452 = CARTESIAN_POINT('', (32.1969416752699, 3.03995653441145, 21.3333333333333));
#453 = CARTESIAN_POINT('', (31.9767080576463, 1.16237643343323, 26.6666666666667));
#454 = CARTESIAN_POINT('', (31.9539397535456, -0.727938041078049, 32.));
#455 = CARTESIAN_POINT('', (32.1288882968778, -2.61027731294678, 37.3333333333333));
#456 = CARTESIAN_POINT('', (32.4996363844462, -4.46401775078843, 42.6666666666667));
#457 = CARTESIAN_POINT('', (33.0621220643967, -6.2688495953335, 48.));
#458 = CARTESIAN_POINT('', (33.8101829891478, -8.00499822407442, 53.3333333333333));
#459 = CARTESIAN_POINT('', (34.7356217519458, -9.65344384896832, 58.6666666666667));
#460 = CARTESIAN_POINT('', (35.8283046676909, -11.1961189833384, 64.));
#461 = CARTESIAN_POINT('', (37.4922172518847, -13.0894897012139, 71.1111111111111));
#462 = CARTESIAN_POINT('', (38.9526374110637, -14.3020684693808, 76.4444444444445));
#463 = CARTESIAN_POINT('', (40., -15., 80.));
#464 = CARTESIAN_POINT('', (35., -10., 0.));
#465 = CARTESIAN_POINT('', (35.6979315306192, -11.0473625889363, 3.55555555555555));
#466 = CARTESIAN_POINT('', (36.9105102987861, -12.5077827481153, 8.88888888888889));
#467 = CARTESIAN_POINT('', (38.8038810166616, -14.1716953323091, 16.));
#468 = CARTESIAN_POINT('', (40.3465561510317, -15.2643782480542, 21.3333333333333));
#469 = CARTESIAN_POINT('', (41.9950017759256, -16.1898170108522, 26.6666666666667));
#470 = CARTESIAN_POINT('', (43.7311504046665, -16.9378779356033, 32.));
#471 = CARTESIAN_POINT('', (45.5359822492116, -17.5003636155538, 37.3333333333333));
#472 = CARTESIAN_POINT('', (47.3897226870532, -17.8711117031222, 42.6666666666667));
#473 = CARTESIAN_POINT('', (49.272061958922, -18.0460602464544, 48.));
#474 = CARTESIAN_POINT('', (51.1623764334332, -18.0232919423537, 53.3333333333333));
#475 = CARTESIAN_POINT('', (53.0399565344114, -17.8030583247301, 58.6666666666667));
#476 = CARTESIAN_POINT('', (54.884227010655, -17.3877645311078, 64.));
#477 = CARTESIAN_POINT('', (57.2719202056916, -16.5800647294963, 71.1111111111111));
#478 = CARTESIAN_POINT('', (58.9529237452222, -15.6983610318569, 76.4444444444445));
#479 = CARTESIAN_POINT('', (60., -15., 80.));
#480 = ADVANCED_FACE('', (#481), #517, .T.);
#481 = FACE_OUTER_BOUND('', #482, .T.);
#482 = EDGE_LOOP('', (#483, #490, #511, #516));
#483 = ORIENTED_EDGE('', *, *, #484, .T.);
#484 = EDGE_CURVE('', #415, #485, #487, .T.);
#485 = VERTEX_POINT('', #486);
#486 = CARTESIAN_POINT('', (65., -10., 0.));
#487 = B_SPLINE_CURVE_WITH_KNOTS('', 1, (#488, #489), .UNSPECIFIED., .F., .U., (2, 2), (0., 1.), .UNSPECIFIED.);
#488 = CARTESIAN_POINT('', (35., -10., 0.));
#489 = CARTESIAN_POINT('', (65., -10., 0.));
#490 = ORIENTED_EDGE('', *, *, #491, .T.);
#491 = EDGE_CURVE('', #485, #492, #494, .T.);
#492 = VERTEX_POINT('', #493);
#493 = CARTESIAN_POINT('', (60., 15., 80.));
#494 = B_SPLINE_CURVE_WITH_KNOTS('', 3, (#495, #496, #497, #498, #499, #500, #501, #502, #503, #504, #505, #506, #507, #508, #509, #510), .UNSPECIFIED., .F., .U., (4, 1, 1, 1, 1, 1, 1, 1, 1, 1, 1, 1, 1, 4), (0., 10.6666666666667, 16., 21.3333333333333, 26.6666666666667, 32., 37.3333333333333, 42.6666666666667, 48., 53.3333333333333, 58.6666666666667, 64., 69.3333333333333, 80.), .UNSPECIFIED.);
#495 = CARTESIAN_POINT('', (65., -10., 0.));
#496 = CARTESIAN_POINT('', (65.6983610318569, -8.95292374522217, 3.55555555555555));
#497 = CARTESIAN_POINT('', (66.5800647294963, -7.27192020569155, 8.88888888888889));
#498 = CARTESIAN_POINT('', (67.3877645311078, -4.88422701065502, 16.));
#499 = CARTESIAN_POINT('', (67.8030583247301, -3.03995653441144, 21.3333333333333));
#500 = CARTESIAN_POINT('', (68.0232919423537, -1.16237643343323, 26.6666666666667));
#501 = CARTESIAN_POINT('', (68.0460602464544, 0.727938041078044, 32.));
#502 = CARTESIAN_POINT('', (67.8711117031222, 2.61027731294678, 37.3333333333333));
#503 = CARTESIAN_POINT('', (67.5003636155538, 4.46401775078842, 42.6666666666667));
#504 = CARTESIAN_POINT('', (66.9378779356033, 6.26884959533351, 48.));
#505 = CARTESIAN_POINT('', (66.1898170108522, 8.00499822407442, 53.3333333333333));
#506 = CARTESIAN_POINT('', (65.2643782480542, 9.6534438489683, 58.6666666666667));
#507 = CARTESIAN_POINT('', (64.1716953323092, 11.1961189833384, 64.));
#508 = CARTESIAN_POINT('', (62.5077827481152, 13.0894897012139, 71.1111111111111));
#509 = CARTESIAN_POINT('', (61.0473625889363, 14.3020684693808, 76.4444444444445));
#510 = CARTESIAN_POINT('', (60., 15., 80.));
#511 = ORIENTED_EDGE('', *, *, #512, .F.);
#512 = EDGE_CURVE('', #422, #492, #513, .T.);
#513 = B_SPLINE_CURVE_WITH_KNOTS('', 1, (#514, #515), .UNSPECIFIED., .F., .U., (2, 2), (0., 1.), .UNSPECIFIED.);
#514 = CARTESIAN_POINT('', (60., -15., 80.));
#515 = CARTESIAN_POINT('', (60., 15., 80.));
#516 = ORIENTED_EDGE('', *, *, #421, .F.);
#517 = B_SPLINE_SURFACE_WITH_KNOTS('', 1, 3, ((#518, #519, #520, #521, #522, #523, #524, #525, #526, #527, #528, #529, #530, #531, #532, #533), (#534, #535, #536, #537, #538, #539, #540, #541, #542, #543, #544, #545, #546, #547, #548, #549)), .UNSPECIFIED., .F., .F., .U., (2, 2), (4, 1, 1, 1, 1, 1, 1, 1, 1, 1, 1, 1, 1, 4), (0., 1.), (0., 10.6666666666667, 16., 21.3333333333333, 26.6666666666667, 32., 37.3333333333333, 42.6666666666667, 48., 53.3333333333333, 58.6666666666667, 64., 69.3333333333333, 80.), .UNSPECIFIED.);
#518 = CARTESIAN_POINT('', (35., -10., 0.));
#519 = CARTESIAN_POINT('', (35.6979315306192, -11.0473625889363, 3.55555555555555));
#520 = CARTESIAN_POINT('', (36.9105102987861, -12.5077827481153, 8.88888888888889));
#521 = CARTESIAN_POINT('', (38.8038810166616, -14.1716953323091, 16.));
#522 = CARTESIAN_POINT('', (40.3465561510317, -15.2643782480542, 21.3333333333333));
#523 = CARTESIAN_POINT('', (41.9950017759256, -16.1898170108522, 26.6666666666667));
#524 = CARTESIAN_POINT('', (43.7311504046665, -16.9378779356033, 32.));
#525 = CARTESIAN_POINT('', (45.5359822492116, -17.5003636155538, 37.3333333333333));
#526 = CARTESIAN_POINT('', (47.3897226870532, -17.8711117031222, 42.6666666666667));
#527 = CARTESIAN_POINT('', (49.272061958922, -18.0460602464544, 48.));
#528 = CARTESIAN_POINT('', (51.1623764334332, -18.0232919423537, 53.3333333333333));
#529 = CARTESIAN_POINT('', (53.0399565344114, -17.8030583247301, 58.6666666666667));
#530 = CARTESIAN_POINT('', (54.884227010655, -17.3877645311078, 64.));
#531 = CARTESIAN_POINT('', (57.2719202056916, -16.5800647294963, 71.1111111111111));
#532 = CARTESIAN_POINT('', (58.9529237452222, -15.6983610318569, 76.4444444444445));
#533 = CARTESIAN_POINT('', (60., -15., 80.));
#534 = CARTESIAN_POINT('', (65., -10., 0.));
#535 = CARTESIAN_POINT('', (65.6983610318569, -8.95292374522217, 3.55555555555555));
#536 = CARTESIAN_POINT('', (66.5800647294963, -7.27192020569155, 8.88888888888889));
#537 = CARTESIAN_POINT('', (67.3877645311078, -4.88422701065502, 16.));
#538 = CARTESIAN_POINT('', (67.8030583247301, -3.03995653441144, 21.3333333333333));
#539 = CARTESIAN_POINT('', (68.0232919423537, -1.16237643343323, 26.6666666666667));
#540 = CARTESIAN_POINT('', (68.0460602464544, 0.727938041078044, 32.));
#541 = CARTESIAN_POINT('', (67.8711117031222, 2.61027731294678, 37.3333333333333));
#542 = CARTESIAN_POINT('', (67.5003636155538, 4.46401775078842, 42.6666666666667));
#543 = CARTESIAN_POINT('', (66.9378779356033, 6.26884959533351, 48.));
#544 = CARTESIAN_POINT('', (66.1898170108522, 8.00499822407442, 53.3333333333333));
#545 = CARTESIAN_POINT('', (65.2643782480542, 9.6534438489683, 58.6666666666667));
#546 = CARTESIAN_POINT('', (64.1716953323092, 11.1961189833384, 64.));
#547 = CARTESIAN_POINT('', (62.5077827481152, 13.0894897012139, 71.1111111111111));
#548 = CARTESIAN_POINT('', (61.0473625889363, 14.3020684693808, 76.4444444444445));
#549 = CARTESIAN_POINT('', (60., 15., 80.));
#550 = ADVANCED_FACE('', (#551), #565, .T.);
#551 = FACE_OUTER_BOUND('', #552, .T.);
#552 = EDGE_LOOP('', (#553, #558, #559, #564));
#553 = ORIENTED_EDGE('', *, *, #554, .T.);
#554 = EDGE_CURVE('', #485, #323, #555, .T.);
#555 = B_SPLINE_CURVE_WITH_KNOTS('', 1, (#556, #557), .UNSPECIFIED., .F., .U., (2, 2), (0., 1.), .UNSPECIFIED.);
#556 = CARTESIAN_POINT('', (65., -10., 0.));
#557 = CARTESIAN_POINT('', (65., 10., 0.));
#558 = ORIENTED_EDGE('', *, *, #359, .T.);
#559 = ORIENTED_EDGE('', *, *, #560, .F.);
#560 = EDGE_CURVE('', #492, #353, #561, .T.);
#561 = B_SPLINE_CURVE_WITH_KNOTS('', 1, (#562, #563), .UNSPECIFIED., .F., .U., (2, 2), (0., 1.), .UNSPECIFIED.);
#562 = CARTESIAN_POINT('', (60., 15., 80.));
#563 = CARTESIAN_POINT('', (40., 15., 80.));
#564 = ORIENTED_EDGE('', *, *, #491, .F.);
#565 = B_SPLINE_SURFACE_WITH_KNOTS('', 1, 3, ((#566, #567, #568, #569, #570, #571, #572, #573, #574, #575, #576, #577, #578, #579, #580, #581), (#582, #583, #584, #585, #586, #587, #588, #589, #590, #591, #592, #593, #594, #595, #596, #597)), .UNSPECIFIED., .F., .F., .U., (2, 2), (4, 1, 1, 1, 1, 1, 1, 1, 1, 1, 1, 1, 1, 4), (0., 1.), (0., 10.6666666666667, 16., 21.3333333333333, 26.6666666666667, 32., 37.3333333333333, 42.6666666666667, 48., 53.3333333333333, 58.6666666666667, 64., 69.3333333333333, 80.), .UNSPECIFIED.);
#566 = CARTESIAN_POINT('', (65., -10., 0.));
#567 = CARTESIAN_POINT('', (65.6983610318569, -8.95292374522217, 3.55555555555555));
#568 = CARTESIAN_POINT('', (66.5800647294963, -7.27192020569155, 8.88888888888889));
#569 = CARTESIAN_POINT('', (67.3877645311078, -4.88422701065502, 16.));
#570 = CARTESIAN_POINT('', (67.8030583247301, -3.03995653441144, 21.3333333333333));
#571 = CARTESIAN_POINT('', (68.0232919423537, -1.16237643343323, 26.6666666666667));
#572 = CARTESIAN_POINT('', (68.0460602464544, 0.727938041078044, 32.));
#573 = CARTESIAN_POINT('', (67.8711117031222, 2.61027731294678, 37.3333333333333));
#574 = CARTESIAN_POINT('', (67.5003636155538, 4.46401775078842, 42.6666666666667));
#575 = CARTESIAN_POINT('', (66.9378779356033, 6.26884959533351, 48.));
#576 = CARTESIAN_POINT('', (66.1898170108522, 8.00499822407442, 53.3333333333333));
#577 = CARTESIAN_POINT('', (65.2643782480542, 9.6534438489683, 58.6666666666667));
#578 = CARTESIAN_POINT('', (64.1716953323092, 11.1961189833384, 64.));
#579 = CARTESIAN_POINT('', (62.5077827481152, 13.0894897012139, 71.1111111111111));
#580 = CARTESIAN_POINT('', (61.0473625889363, 14.3020684693808, 76.4444444444445));
#581 = CARTESIAN_POINT('', (60., 15., 80.));
#582 = CARTESIAN_POINT('', (65., 10., 0.));
#583 = CARTESIAN_POINT('', (64.3020684693808, 11.0473625889363, 3.55555555555555));
#584 = CARTESIAN_POINT('', (63.0894897012139, 12.5077827481153, 8.88888888888889));
#585 = CARTESIAN_POINT('', (61.1961189833384, 14.1716953323091, 16.));
#586 = CARTESIAN_POINT('', (59.6534438489683, 15.2643782480542, 21.3333333333333));
#587 = CARTESIAN_POINT('', (58.0049982240744, 16.1898170108522, 26.6666666666667));
#588 = CARTESIAN_POINT('', (56.2688495953335, 16.9378779356033, 32.));
#589 = CARTESIAN_POINT('', (54.4640177507884, 17.5003636155538, 37.3333333333333));
#590 = CARTESIAN_POINT('', (52.6102773129468, 17.8711117031222, 42.6666666666667));
#591 = CARTESIAN_POINT('', (50.727938041078, 18.0460602464544, 48.));
#592 = CARTESIAN_POINT('', (48.8376235665668, 18.0232919423537, 53.3333333333333));
#593 = CARTESIAN_POINT('', (46.9600434655886, 17.8030583247301, 58.6666666666667));
#594 = CARTESIAN_POINT('', (45.115772989345, 17.3877645311078, 64.));
#595 = CARTESIAN_POINT('', (42.7280797943084, 16.5800647294963, 71.1111111111111));
#596 = CARTESIAN_POINT('', (41.0470762547778, 15.6983610318569, 76.4444444444445));
#597 = CARTESIAN_POINT('', (40., 15., 80.));
#598 = ADVANCED_FACE('', (#599), #605, .T.);
#599 = FACE_OUTER_BOUND('', #600, .T.);
#600 = EDGE_LOOP('', (#601, #602, #603, #604));
#601 = ORIENTED_EDGE('', *, *, #512, .T.);
#602 = ORIENTED_EDGE('', *, *, #560, .T.);
#603 = ORIENTED_EDGE('', *, *, #352, .T.);
#604 = ORIENTED_EDGE('', *, *, #442, .T.);
#605 = B_SPLINE_SURFACE_WITH_KNOTS('', 1, 1, ((#606, #607), (#608, #609)), .UNSPECIFIED., .F., .F., .U., (2, 2), (2, 2), (0., 1.), (0., 1.), .UNSPECIFIED.);
#606 = CARTESIAN_POINT('', (69.8305320150519, -19.8305320150519, 80.));
#607 = CARTESIAN_POINT('', (30.1694679849481, -19.8305320150519, 80.));
#608 = CARTESIAN_POINT('', (69.8305320150519, 19.8305320150519, 80.));
#609 = CARTESIAN_POINT('', (30.1694679849481, 19.8305320150519, 80.));
#610 = ADVANCED_FACE('', (#611), #617, .T.);
#611 = FACE_OUTER_BOUND('', #612, .T.);
#612 = EDGE_LOOP('', (#613, #614, #615, #616));
#613 = ORIENTED_EDGE('', *, *, #484, .F.);
#614 = ORIENTED_EDGE('', *, *, #414, .F.);
#615 = ORIENTED_EDGE('', *, *, #322, .F.);
#616 = ORIENTED_EDGE('', *, *, #554, .F.);
#617 = B_SPLINE_SURFACE_WITH_KNOTS('', 1, 1, ((#618, #619), (#620, #621)), .UNSPECIFIED., .F., .F., .U., (2, 2), (2, 2), (0., 1.), (0., 1.), .UNSPECIFIED.);
#618 = CARTESIAN_POINT('', (69.8305320150519, -19.8305320150519, 0.));
#619 = CARTESIAN_POINT('', (69.8305320150519, 19.8305320150519, 0.));
#620 = CARTESIAN_POINT('', (30.1694679849481, -19.8305320150519, 0.));
#621 = CARTESIAN_POINT('', (30.1694679849481, 19.8305320150519, 0.));
#622 = PRESENTATION_STYLE_ASSIGNMENT((#623));
#623 = SURFACE_STYLE_USAGE(.POSITIVE., #624);
#624 = SURFACE_SIDE_STYLE('', (#625));
#625 = SURFACE_STYLE_FILL_AREA(#626);
#626 = FILL_AREA_STYLE('', (#627));
#627 = FILL_AREA_STYLE_COLOUR('', #628);
#628 = COLOUR_RGB('', 0.50196078431373, 0.50196078431373, 0.50196078431373);
#629 = STYLED_ITEM('', (#622), #316);
#630 = CARTESIAN_POINT('Origin', (0., 0., 0.));
#631 = GEOMETRIC_SET('', (#630));
#632 = (
   GEOMETRIC_REPRESENTATION_CONTEXT (3)
   GLOBAL_UNCERTAINTY_ASSIGNED_CONTEXT ((#634))
   GLOBAL_UNIT_ASSIGNED_CONTEXT ((#633, #635, #636))
   REPRESENTATION_CONTEXT ('', '3D')
);
#633 = (
   LENGTH_UNIT ()
   NAMED_UNIT (*)
   SI_UNIT (.MILLI., .METRE.)
);
#634 = UNCERTAINTY_MEASURE_WITH_UNIT(LENGTH_MEASURE(1.E-6), #633, 'DISTANCE_ACCURACY_VALUE', '');
#635 = (
   NAMED_UNIT (*)
   SI_UNIT ($, .STERADIAN.)
   SOLID_ANGLE_UNIT ()
);
#636 = (
   NAMED_UNIT (*)
   PLANE_ANGLE_UNIT ()
   SI_UNIT ($, .RADIAN.)
);
#637 = SHAPE_REPRESENTATION('', (#652), #632);
#638 = PRODUCT_DEFINITION_SHAPE('', '', #639);
#639 = PRODUCT_DEFINITION('', '', #642, #646);
#640 = APPLICATION_CONTEXT('configuration controlled 3D designs of mechanical parts and assemblies');
#641 = APPLICATION_PROTOCOL_DEFINITION('International Standard', 'automotive_design', 2002, #640);
#642 = PRODUCT_DEFINITION_FORMATION_WITH_SPECIFIED_SOURCE('', '', #643, .NOT_KNOWN.);
#643 = PRODUCT('TwistCenter', 'TwistCenter', '', (#644));
#644 = PRODUCT_CONTEXT('', #640, 'mechanical');
#645 = PRODUCT_RELATED_PRODUCT_CATEGORY('detail', '', (#643));
#646 = PRODUCT_DEFINITION_CONTEXT('part definition', #640, 'design');
#647 = SHAPE_DEFINITION_REPRESENTATION(#638, #637);
#648 = SHAPE_REPRESENTATION_RELATIONSHIP('', '', #637, #649);
#649 = SHAPE_REPRESENTATION('', (#631), #632);
#650 = SHAPE_REPRESENTATION_RELATIONSHIP('', '', #637, #651);
#651 = ADVANCED_BREP_SHAPE_REPRESENTATION('', (#1, #316), #632);
#652 = AXIS2_PLACEMENT_3D('', #653, #654, #655);
#653 = CARTESIAN_POINT('', (0., 0., 0.));
#654 = DIRECTION('', (0., 0., 1.));
#655 = DIRECTION('', (1., 0., 0.));
ENDSEC;
END-ISO-10303-21;
