ISO-10303-21;
HEADER;
FILE_DESCRIPTION(('STEP'), '1');
FILE_NAME('DiagDir', '2026-04-18T01:14:29', (''), (''), 'Express 3.1.2.0', 'Express Tool', 'Unknown');
FILE_SCHEMA(('AUTOMOTIVE_DESIGN'));
ENDSEC;

DATA;
#1 = MANIFOLD_SOLID_BREP('DiagTwist_0', #2);
#2 = CLOSED_SHELL('', (#3, #95, #165, #235, #283, #295));
#3 = ADVANCED_FACE('', (#4), #62, .T.);
#4 = FACE_OUTER_BOUND('', #5, .T.);
#5 = EDGE_LOOP('', (#6, #15, #36, #43));
#6 = ORIENTED_EDGE('', *, *, #7, .T.);
#7 = EDGE_CURVE('', #8, #10, #12, .T.);
#8 = VERTEX_POINT('', #9);
#9 = CARTESIAN_POINT('', (-20., 15., 0.));
#10 = VERTEX_POINT('', #11);
#11 = CARTESIAN_POINT('', (-20., -15., 0.));
#12 = B_SPLINE_CURVE_WITH_KNOTS('', 1, (#13, #14), .UNSPECIFIED., .F., .U., (2, 2), (0., 1.), .UNSPECIFIED.);
#13 = CARTESIAN_POINT('', (-20., 15., 0.));
#14 = CARTESIAN_POINT('', (-20., -15., 0.));
#15 = ORIENTED_EDGE('', *, *, #16, .T.);
#16 = EDGE_CURVE('', #10, #17, #19, .T.);
#17 = VERTEX_POINT('', #18);
#18 = CARTESIAN_POINT('', (71.317279836453, -14.142135623731, 50.1040764008565));
#19 = B_SPLINE_CURVE_WITH_KNOTS('', 3, (#20, #21, #22, #23, #24, #25, #26, #27, #28, #29, #30, #31, #32, #33, #34, #35), .UNSPECIFIED., .F., .U., (4, 1, 1, 1, 1, 1, 1, 1, 1, 1, 1, 1, 1, 4), (0., 13.3333333333333, 20., 26.6666666666667, 33.3333333333333, 40., 46.6666666666667, 53.3333333333333, 60., 66.6666666666667, 73.3333333333333, 80., 86.6666666666667, 100.), .UNSPECIFIED.);
#20 = CARTESIAN_POINT('', (-20., -15., 0.));
#21 = CARTESIAN_POINT('', (-16.1169504072203, -15.9875426900661, 2.4023440177674));
#22 = CARTESIAN_POINT('', (-10.1819525091653, -17.3029864880941, 5.89543653553305));
#23 = CARTESIAN_POINT('', (-2.1022096326027, -18.6700963107544, 10.3864808800646));
#24 = CARTESIAN_POINT('', (4.02599918530888, -19.4908987467165, 13.6863624779737));
#25 = CARTESIAN_POINT('', (10.2071318854943, -20.098148507328, 16.9333201936089));
#26 = CARTESIAN_POINT('', (16.4251104363518, -20.485200435764, 20.143432058572));
#27 = CARTESIAN_POINT('', (22.6634585913439, -20.6478117766556, 23.3331743194005));
#28 = CARTESIAN_POINT('', (28.9054754348854, -20.5842014612767, 26.5192478916796));
#29 = CARTESIAN_POINT('', (35.1344203621663, -20.2950664103859, 29.7183933802194));
#30 = CARTESIAN_POINT('', (41.3336954596497, -19.7835739416245, 32.9472086985566));
#31 = CARTESIAN_POINT('', (47.4870294864752, -19.0553301066116, 36.2219650875517));
#32 = CARTESIAN_POINT('', (53.5786486538947, -18.1183060713013, 39.5584363359528));
#33 = CARTESIAN_POINT('', (61.5984201576989, -16.6042933597042, 44.1094520532428));
#34 = CARTESIAN_POINT('', (67.4765886015603, -15.1895575144132, 47.6593740252022));
#35 = CARTESIAN_POINT('', (71.317279836453, -14.142135623731, 50.1040764008565));
#36 = ORIENTED_EDGE('', *, *, #37, .F.);
#37 = EDGE_CURVE('', #38, #17, #40, .T.);
#38 = VERTEX_POINT('', #39);
#39 = CARTESIAN_POINT('', (50.1040764008565, -14.142135623731, 71.317279836453));
#40 = B_SPLINE_CURVE_WITH_KNOTS('', 1, (#41, #42), .UNSPECIFIED., .F., .U., (2, 2), (0., 1.), .UNSPECIFIED.);
#41 = CARTESIAN_POINT('', (50.1040764008565, -14.142135623731, 71.317279836453));
#42 = CARTESIAN_POINT('', (71.317279836453, -14.142135623731, 50.1040764008565));
#43 = ORIENTED_EDGE('', *, *, #44, .F.);
#44 = EDGE_CURVE('', #8, #38, #45, .T.);
#45 = B_SPLINE_CURVE_WITH_KNOTS('', 3, (#46, #47, #48, #49, #50, #51, #52, #53, #54, #55, #56, #57, #58, #59, #60, #61), .UNSPECIFIED., .F., .U., (4, 1, 1, 1, 1, 1, 1, 1, 1, 1, 1, 1, 1, 4), (0., 13.3333333333333, 20., 26.6666666666667, 33.3333333333333, 40., 46.6666666666667, 53.3333333333333, 60., 66.6666666666667, 73.3333333333333, 80., 86.6666666666667, 100.), .UNSPECIFIED.);
#46 = CARTESIAN_POINT('', (-20., 15., 0.));
#47 = CARTESIAN_POINT('', (-17.5979423163911, 14.0128868111717, 3.88333592693819));
#48 = CARTESIAN_POINT('', (-13.8842664182738, 12.3665679426161, 9.59775044464148));
#49 = CARTESIAN_POINT('', (-8.66944146289957, 9.91378720369187, 16.9537127103615));
#50 = CARTESIAN_POINT('', (-4.61797230449198, 7.96560342698199, 22.3303339677745));
#51 = CARTESIAN_POINT('', (-0.418873250676544, 5.93014165910017, 27.5593253297797));
#52 = CARTESIAN_POINT('', (3.93349216404671, 3.82970940602393, 32.6350503308771));
#53 = CARTESIAN_POINT('', (8.44308801679342, 1.68731767725496, 37.553544893951));
#54 = CARTESIAN_POINT('', (13.1121539393459, -0.473560532776074, 42.3125693872192));
#55 = CARTESIAN_POINT('', (17.9411827290985, -2.62925043370449, 46.9116310132872));
#56 = CARTESIAN_POINT('', (22.9289149802773, -4.7561333642055, 51.3519891779291));
#57 = CARTESIAN_POINT('', (28.0723506117899, -6.83090839296886, 55.6366439622371));
#58 = CARTESIAN_POINT('', (33.3667907881834, -8.83083774964715, 59.7702942016642));
#59 = CARTESIAN_POINT('', (40.6188770249604, -11.3684308172805, 65.0889951859814));
#60 = CARTESIAN_POINT('', (46.2630814627261, -13.095118670699, 68.8728811640364));
#61 = CARTESIAN_POINT('', (50.1040764008565, -14.142135623731, 71.317279836453));
#62 = B_SPLINE_SURFACE_WITH_KNOTS('', 1, 3, ((#63, #64, #65, #66, #67, #68, #69, #70, #71, #72, #73, #74, #75, #76, #77, #78), (#79, #80, #81, #82, #83, #84, #85, #86, #87, #88, #89, #90, #91, #92, #93, #94)), .UNSPECIFIED., .F., .F., .U., (2, 2), (4, 1, 1, 1, 1, 1, 1, 1, 1, 1, 1, 1, 1, 4), (0., 1.), (0., 13.3333333333333, 20., 26.6666666666667, 33.3333333333333, 40., 46.6666666666667, 53.3333333333333, 60., 66.6666666666667, 73.3333333333333, 80., 86.6666666666667, 100.), .UNSPECIFIED.);
#63 = CARTESIAN_POINT('', (-20., 15., 0.));
#64 = CARTESIAN_POINT('', (-17.5979423163911, 14.0128868111717, 3.88333592693819));
#65 = CARTESIAN_POINT('', (-13.8842664182738, 12.3665679426161, 9.59775044464148));
#66 = CARTESIAN_POINT('', (-8.66944146289957, 9.91378720369187, 16.9537127103615));
#67 = CARTESIAN_POINT('', (-4.61797230449198, 7.96560342698199, 22.3303339677745));
#68 = CARTESIAN_POINT('', (-0.418873250676544, 5.93014165910017, 27.5593253297797));
#69 = CARTESIAN_POINT('', (3.93349216404671, 3.82970940602393, 32.6350503308771));
#70 = CARTESIAN_POINT('', (8.44308801679342, 1.68731767725496, 37.553544893951));
#71 = CARTESIAN_POINT('', (13.1121539393459, -0.473560532776074, 42.3125693872192));
#72 = CARTESIAN_POINT('', (17.9411827290985, -2.62925043370449, 46.9116310132872));
#73 = CARTESIAN_POINT('', (22.9289149802773, -4.7561333642055, 51.3519891779291));
#74 = CARTESIAN_POINT('', (28.0723506117899, -6.83090839296886, 55.6366439622371));
#75 = CARTESIAN_POINT('', (33.3667907881834, -8.83083774964715, 59.7702942016642));
#76 = CARTESIAN_POINT('', (40.6188770249604, -11.3684308172805, 65.0889951859814));
#77 = CARTESIAN_POINT('', (46.2630814627261, -13.095118670699, 68.8728811640364));
#78 = CARTESIAN_POINT('', (50.1040764008565, -14.142135623731, 71.317279836453));
#79 = CARTESIAN_POINT('', (-20., -15., 0.));
#80 = CARTESIAN_POINT('', (-16.1169504072203, -15.9875426900661, 2.4023440177674));
#81 = CARTESIAN_POINT('', (-10.1819525091653, -17.3029864880941, 5.89543653553305));
#82 = CARTESIAN_POINT('', (-2.1022096326027, -18.6700963107544, 10.3864808800646));
#83 = CARTESIAN_POINT('', (4.02599918530888, -19.4908987467165, 13.6863624779737));
#84 = CARTESIAN_POINT('', (10.2071318854943, -20.098148507328, 16.9333201936089));
#85 = CARTESIAN_POINT('', (16.4251104363518, -20.485200435764, 20.143432058572));
#86 = CARTESIAN_POINT('', (22.6634585913439, -20.6478117766556, 23.3331743194005));
#87 = CARTESIAN_POINT('', (28.9054754348854, -20.5842014612767, 26.5192478916796));
#88 = CARTESIAN_POINT('', (35.1344203621663, -20.2950664103859, 29.7183933802194));
#89 = CARTESIAN_POINT('', (41.3336954596497, -19.7835739416245, 32.9472086985566));
#90 = CARTESIAN_POINT('', (47.4870294864752, -19.0553301066116, 36.2219650875517));
#91 = CARTESIAN_POINT('', (53.5786486538947, -18.1183060713013, 39.5584363359528));
#92 = CARTESIAN_POINT('', (61.5984201576989, -16.6042933597042, 44.1094520532428));
#93 = CARTESIAN_POINT('', (67.4765886015603, -15.1895575144132, 47.6593740252022));
#94 = CARTESIAN_POINT('', (71.317279836453, -14.142135623731, 50.1040764008565));
#95 = ADVANCED_FACE('', (#96), #132, .T.);
#96 = FACE_OUTER_BOUND('', #97, .T.);
#97 = EDGE_LOOP('', (#98, #105, #126, #131));
#98 = ORIENTED_EDGE('', *, *, #99, .T.);
#99 = EDGE_CURVE('', #10, #100, #102, .T.);
#100 = VERTEX_POINT('', #101);
#101 = CARTESIAN_POINT('', (20., -15., 0.));
#102 = B_SPLINE_CURVE_WITH_KNOTS('', 1, (#103, #104), .UNSPECIFIED., .F., .U., (2, 2), (0., 1.), .UNSPECIFIED.);
#103 = CARTESIAN_POINT('', (-20., -15., 0.));
#104 = CARTESIAN_POINT('', (20., -15., 0.));
#105 = ORIENTED_EDGE('', *, *, #106, .T.);
#106 = EDGE_CURVE('', #100, #107, #109, .T.);
#107 = VERTEX_POINT('', #108);
#108 = CARTESIAN_POINT('', (91.317279836453, 14.142135623731, 70.1040764008565));
#109 = B_SPLINE_CURVE_WITH_KNOTS('', 3, (#110, #111, #112, #113, #114, #115, #116, #117, #118, #119, #120, #121, #122, #123, #124, #125), .UNSPECIFIED., .F., .U., (4, 1, 1, 1, 1, 1, 1, 1, 1, 1, 1, 1, 1, 4), (0., 13.3333333333333, 20., 26.6666666666667, 33.3333333333333, 40., 46.6666666666667, 53.3333333333333, 60., 66.6666666666667, 73.3333333333333, 80., 86.6666666666667, 100.), .UNSPECIFIED.);
#110 = CARTESIAN_POINT('', (20., -15., 0.));
#111 = CARTESIAN_POINT('', (23.8833359269382, -14.0128868111717, 2.40205768360889));
#112 = CARTESIAN_POINT('', (29.5977504446415, -12.3665679426162, 6.11573358172624));
#113 = CARTESIAN_POINT('', (36.9537127103615, -9.91378720369187, 11.3305585371004));
#114 = CARTESIAN_POINT('', (42.3303339677745, -7.96560342698199, 15.382027695508));
#115 = CARTESIAN_POINT('', (47.5593253297797, -5.93014165910017, 19.5811267493235));
#116 = CARTESIAN_POINT('', (52.6350503308771, -3.82970940602393, 23.9334921640467));
#117 = CARTESIAN_POINT('', (57.553544893951, -1.68731767725495, 28.4430880167934));
#118 = CARTESIAN_POINT('', (62.3125693872192, 0.473560532776073, 33.1121539393459));
#119 = CARTESIAN_POINT('', (66.9116310132872, 2.62925043370449, 37.9411827290985));
#120 = CARTESIAN_POINT('', (71.3519891779291, 4.7561333642055, 42.9289149802773));
#121 = CARTESIAN_POINT('', (75.6366439622371, 6.83090839296886, 48.0723506117899));
#122 = CARTESIAN_POINT('', (79.7702942016641, 8.83083774964714, 53.3667907881834));
#123 = CARTESIAN_POINT('', (85.0889951859814, 11.3684308172805, 60.6188770249604));
#124 = CARTESIAN_POINT('', (88.8728811640363, 13.095118670699, 66.2630814627261));
#125 = CARTESIAN_POINT('', (91.317279836453, 14.142135623731, 70.1040764008565));
#126 = ORIENTED_EDGE('', *, *, #127, .F.);
#127 = EDGE_CURVE('', #17, #107, #128, .T.);
#128 = B_SPLINE_CURVE_WITH_KNOTS('', 1, (#129, #130), .UNSPECIFIED., .F., .U., (2, 2), (0., 1.), .UNSPECIFIED.);
#129 = CARTESIAN_POINT('', (71.317279836453, -14.142135623731, 50.1040764008565));
#130 = CARTESIAN_POINT('', (91.317279836453, 14.142135623731, 70.1040764008565));
#131 = ORIENTED_EDGE('', *, *, #16, .F.);
#132 = B_SPLINE_SURFACE_WITH_KNOTS('', 1, 3, ((#133, #134, #135, #136, #137, #138, #139, #140, #141, #142, #143, #144, #145, #146, #147, #148), (#149, #150, #151, #152, #153, #154, #155, #156, #157, #158, #159, #160, #161, #162, #163, #164)), .UNSPECIFIED., .F., .F., .U., (2, 2), (4, 1, 1, 1, 1, 1, 1, 1, 1, 1, 1, 1, 1, 4), (0., 1.), (0., 13.3333333333333, 20., 26.6666666666667, 33.3333333333333, 40., 46.6666666666667, 53.3333333333333, 60., 66.6666666666667, 73.3333333333333, 80., 86.6666666666667, 100.), .UNSPECIFIED.);
#133 = CARTESIAN_POINT('', (-20., -15., 0.));
#134 = CARTESIAN_POINT('', (-16.1169504072203, -15.9875426900661, 2.4023440177674));
#135 = CARTESIAN_POINT('', (-10.1819525091653, -17.3029864880941, 5.89543653553305));
#136 = CARTESIAN_POINT('', (-2.1022096326027, -18.6700963107544, 10.3864808800646));
#137 = CARTESIAN_POINT('', (4.02599918530888, -19.4908987467165, 13.6863624779737));
#138 = CARTESIAN_POINT('', (10.2071318854943, -20.098148507328, 16.9333201936089));
#139 = CARTESIAN_POINT('', (16.4251104363518, -20.485200435764, 20.143432058572));
#140 = CARTESIAN_POINT('', (22.6634585913439, -20.6478117766556, 23.3331743194005));
#141 = CARTESIAN_POINT('', (28.9054754348854, -20.5842014612767, 26.5192478916796));
#142 = CARTESIAN_POINT('', (35.1344203621663, -20.2950664103859, 29.7183933802194));
#143 = CARTESIAN_POINT('', (41.3336954596497, -19.7835739416245, 32.9472086985566));
#144 = CARTESIAN_POINT('', (47.4870294864752, -19.0553301066116, 36.2219650875517));
#145 = CARTESIAN_POINT('', (53.5786486538947, -18.1183060713013, 39.5584363359528));
#146 = CARTESIAN_POINT('', (61.5984201576989, -16.6042933597042, 44.1094520532428));
#147 = CARTESIAN_POINT('', (67.4765886015603, -15.1895575144132, 47.6593740252022));
#148 = CARTESIAN_POINT('', (71.317279836453, -14.142135623731, 50.1040764008565));
#149 = CARTESIAN_POINT('', (20., -15., 0.));
#150 = CARTESIAN_POINT('', (23.8833359269382, -14.0128868111717, 2.40205768360889));
#151 = CARTESIAN_POINT('', (29.5977504446415, -12.3665679426162, 6.11573358172624));
#152 = CARTESIAN_POINT('', (36.9537127103615, -9.91378720369187, 11.3305585371004));
#153 = CARTESIAN_POINT('', (42.3303339677745, -7.96560342698199, 15.382027695508));
#154 = CARTESIAN_POINT('', (47.5593253297797, -5.93014165910017, 19.5811267493235));
#155 = CARTESIAN_POINT('', (52.6350503308771, -3.82970940602393, 23.9334921640467));
#156 = CARTESIAN_POINT('', (57.553544893951, -1.68731767725495, 28.4430880167934));
#157 = CARTESIAN_POINT('', (62.3125693872192, 0.473560532776073, 33.1121539393459));
#158 = CARTESIAN_POINT('', (66.9116310132872, 2.62925043370449, 37.9411827290985));
#159 = CARTESIAN_POINT('', (71.3519891779291, 4.7561333642055, 42.9289149802773));
#160 = CARTESIAN_POINT('', (75.6366439622371, 6.83090839296886, 48.0723506117899));
#161 = CARTESIAN_POINT('', (79.7702942016641, 8.83083774964714, 53.3667907881834));
#162 = CARTESIAN_POINT('', (85.0889951859814, 11.3684308172805, 60.6188770249604));
#163 = CARTESIAN_POINT('', (88.8728811640363, 13.095118670699, 66.2630814627261));
#164 = CARTESIAN_POINT('', (91.317279836453, 14.142135623731, 70.1040764008565));
#165 = ADVANCED_FACE('', (#166), #202, .T.);
#166 = FACE_OUTER_BOUND('', #167, .T.);
#167 = EDGE_LOOP('', (#168, #175, #196, #201));
#168 = ORIENTED_EDGE('', *, *, #169, .T.);
#169 = EDGE_CURVE('', #100, #170, #172, .T.);
#170 = VERTEX_POINT('', #171);
#171 = CARTESIAN_POINT('', (20., 15., 0.));
#172 = B_SPLINE_CURVE_WITH_KNOTS('', 1, (#173, #174), .UNSPECIFIED., .F., .U., (2, 2), (0., 1.), .UNSPECIFIED.);
#173 = CARTESIAN_POINT('', (20., -15., 0.));
#174 = CARTESIAN_POINT('', (20., 15., 0.));
#175 = ORIENTED_EDGE('', *, *, #176, .T.);
#176 = EDGE_CURVE('', #170, #177, #179, .T.);
#177 = VERTEX_POINT('', #178);
#178 = CARTESIAN_POINT('', (70.1040764008565, 14.142135623731, 91.317279836453));
#179 = B_SPLINE_CURVE_WITH_KNOTS('', 3, (#180, #181, #182, #183, #184, #185, #186, #187, #188, #189, #190, #191, #192, #193, #194, #195), .UNSPECIFIED., .F., .U., (4, 1, 1, 1, 1, 1, 1, 1, 1, 1, 1, 1, 1, 4), (0., 13.3333333333333, 20., 26.6666666666667, 33.3333333333333, 40., 46.6666666666667, 53.3333333333333, 60., 66.6666666666667, 73.3333333333333, 80., 86.6666666666667, 100.), .UNSPECIFIED.);
#180 = CARTESIAN_POINT('', (20., 15., 0.));
#181 = CARTESIAN_POINT('', (22.4023440177674, 15.9875426900661, 3.88304959277969));
#182 = CARTESIAN_POINT('', (25.895436535533, 17.3029864880941, 9.81804749083468));
#183 = CARTESIAN_POINT('', (30.3864808800646, 18.6700963107544, 17.8977903673973));
#184 = CARTESIAN_POINT('', (33.6863624779737, 19.4908987467165, 24.0259991853089));
#185 = CARTESIAN_POINT('', (36.9333201936089, 20.098148507328, 30.2071318854943));
#186 = CARTESIAN_POINT('', (40.143432058572, 20.485200435764, 36.4251104363518));
#187 = CARTESIAN_POINT('', (43.3331743194005, 20.6478117766556, 42.6634585913439));
#188 = CARTESIAN_POINT('', (46.5192478916796, 20.5842014612767, 48.9054754348854));
#189 = CARTESIAN_POINT('', (49.7183933802194, 20.2950664103859, 55.1344203621663));
#190 = CARTESIAN_POINT('', (52.9472086985566, 19.7835739416245, 61.3336954596498));
#191 = CARTESIAN_POINT('', (56.2219650875517, 19.0553301066116, 67.4870294864753));
#192 = CARTESIAN_POINT('', (59.5584363359528, 18.1183060713013, 73.5786486538947));
#193 = CARTESIAN_POINT('', (64.1094520532428, 16.6042933597042, 81.5984201576989));
#194 = CARTESIAN_POINT('', (67.6593740252022, 15.1895575144132, 87.4765886015602));
#195 = CARTESIAN_POINT('', (70.1040764008565, 14.142135623731, 91.317279836453));
#196 = ORIENTED_EDGE('', *, *, #197, .F.);
#197 = EDGE_CURVE('', #107, #177, #198, .T.);
#198 = B_SPLINE_CURVE_WITH_KNOTS('', 1, (#199, #200), .UNSPECIFIED., .F., .U., (2, 2), (0., 1.), .UNSPECIFIED.);
#199 = CARTESIAN_POINT('', (91.317279836453, 14.142135623731, 70.1040764008565));
#200 = CARTESIAN_POINT('', (70.1040764008565, 14.142135623731, 91.317279836453));
#201 = ORIENTED_EDGE('', *, *, #106, .F.);
#202 = B_SPLINE_SURFACE_WITH_KNOTS('', 1, 3, ((#203, #204, #205, #206, #207, #208, #209, #210, #211, #212, #213, #214, #215, #216, #217, #218), (#219, #220, #221, #222, #223, #224, #225, #226, #227, #228, #229, #230, #231, #232, #233, #234)), .UNSPECIFIED., .F., .F., .U., (2, 2), (4, 1, 1, 1, 1, 1, 1, 1, 1, 1, 1, 1, 1, 4), (0., 1.), (0., 13.3333333333333, 20., 26.6666666666667, 33.3333333333333, 40., 46.6666666666667, 53.3333333333333, 60., 66.6666666666667, 73.3333333333333, 80., 86.6666666666667, 100.), .UNSPECIFIED.);
#203 = CARTESIAN_POINT('', (20., -15., 0.));
#204 = CARTESIAN_POINT('', (23.8833359269382, -14.0128868111717, 2.40205768360889));
#205 = CARTESIAN_POINT('', (29.5977504446415, -12.3665679426162, 6.11573358172624));
#206 = CARTESIAN_POINT('', (36.9537127103615, -9.91378720369187, 11.3305585371004));
#207 = CARTESIAN_POINT('', (42.3303339677745, -7.96560342698199, 15.382027695508));
#208 = CARTESIAN_POINT('', (47.5593253297797, -5.93014165910017, 19.5811267493235));
#209 = CARTESIAN_POINT('', (52.6350503308771, -3.82970940602393, 23.9334921640467));
#210 = CARTESIAN_POINT('', (57.553544893951, -1.68731767725495, 28.4430880167934));
#211 = CARTESIAN_POINT('', (62.3125693872192, 0.473560532776073, 33.1121539393459));
#212 = CARTESIAN_POINT('', (66.9116310132872, 2.62925043370449, 37.9411827290985));
#213 = CARTESIAN_POINT('', (71.3519891779291, 4.7561333642055, 42.9289149802773));
#214 = CARTESIAN_POINT('', (75.6366439622371, 6.83090839296886, 48.0723506117899));
#215 = CARTESIAN_POINT('', (79.7702942016641, 8.83083774964714, 53.3667907881834));
#216 = CARTESIAN_POINT('', (85.0889951859814, 11.3684308172805, 60.6188770249604));
#217 = CARTESIAN_POINT('', (88.8728811640363, 13.095118670699, 66.2630814627261));
#218 = CARTESIAN_POINT('', (91.317279836453, 14.142135623731, 70.1040764008565));
#219 = CARTESIAN_POINT('', (20., 15., 0.));
#220 = CARTESIAN_POINT('', (22.4023440177674, 15.9875426900661, 3.88304959277969));
#221 = CARTESIAN_POINT('', (25.895436535533, 17.3029864880941, 9.81804749083468));
#222 = CARTESIAN_POINT('', (30.3864808800646, 18.6700963107544, 17.8977903673973));
#223 = CARTESIAN_POINT('', (33.6863624779737, 19.4908987467165, 24.0259991853089));
#224 = CARTESIAN_POINT('', (36.9333201936089, 20.098148507328, 30.2071318854943));
#225 = CARTESIAN_POINT('', (40.143432058572, 20.485200435764, 36.4251104363518));
#226 = CARTESIAN_POINT('', (43.3331743194005, 20.6478117766556, 42.6634585913439));
#227 = CARTESIAN_POINT('', (46.5192478916796, 20.5842014612767, 48.9054754348854));
#228 = CARTESIAN_POINT('', (49.7183933802194, 20.2950664103859, 55.1344203621663));
#229 = CARTESIAN_POINT('', (52.9472086985566, 19.7835739416245, 61.3336954596498));
#230 = CARTESIAN_POINT('', (56.2219650875517, 19.0553301066116, 67.4870294864753));
#231 = CARTESIAN_POINT('', (59.5584363359528, 18.1183060713013, 73.5786486538947));
#232 = CARTESIAN_POINT('', (64.1094520532428, 16.6042933597042, 81.5984201576989));
#233 = CARTESIAN_POINT('', (67.6593740252022, 15.1895575144132, 87.4765886015602));
#234 = CARTESIAN_POINT('', (70.1040764008565, 14.142135623731, 91.317279836453));
#235 = ADVANCED_FACE('', (#236), #250, .T.);
#236 = FACE_OUTER_BOUND('', #237, .T.);
#237 = EDGE_LOOP('', (#238, #243, #244, #249));
#238 = ORIENTED_EDGE('', *, *, #239, .T.);
#239 = EDGE_CURVE('', #170, #8, #240, .T.);
#240 = B_SPLINE_CURVE_WITH_KNOTS('', 1, (#241, #242), .UNSPECIFIED., .F., .U., (2, 2), (0., 1.), .UNSPECIFIED.);
#241 = CARTESIAN_POINT('', (20., 15., 0.));
#242 = CARTESIAN_POINT('', (-20., 15., 0.));
#243 = ORIENTED_EDGE('', *, *, #44, .T.);
#244 = ORIENTED_EDGE('', *, *, #245, .F.);
#245 = EDGE_CURVE('', #177, #38, #246, .T.);
#246 = B_SPLINE_CURVE_WITH_KNOTS('', 1, (#247, #248), .UNSPECIFIED., .F., .U., (2, 2), (0., 1.), .UNSPECIFIED.);
#247 = CARTESIAN_POINT('', (70.1040764008565, 14.142135623731, 91.317279836453));
#248 = CARTESIAN_POINT('', (50.1040764008565, -14.142135623731, 71.317279836453));
#249 = ORIENTED_EDGE('', *, *, #176, .F.);
#250 = B_SPLINE_SURFACE_WITH_KNOTS('', 1, 3, ((#251, #252, #253, #254, #255, #256, #257, #258, #259, #260, #261, #262, #263, #264, #265, #266), (#267, #268, #269, #270, #271, #272, #273, #274, #275, #276, #277, #278, #279, #280, #281, #282)), .UNSPECIFIED., .F., .F., .U., (2, 2), (4, 1, 1, 1, 1, 1, 1, 1, 1, 1, 1, 1, 1, 4), (0., 1.), (0., 13.3333333333333, 20., 26.6666666666667, 33.3333333333333, 40., 46.6666666666667, 53.3333333333333, 60., 66.6666666666667, 73.3333333333333, 80., 86.6666666666667, 100.), .UNSPECIFIED.);
#251 = CARTESIAN_POINT('', (20., 15., 0.));
#252 = CARTESIAN_POINT('', (22.4023440177674, 15.9875426900661, 3.88304959277969));
#253 = CARTESIAN_POINT('', (25.895436535533, 17.3029864880941, 9.81804749083468));
#254 = CARTESIAN_POINT('', (30.3864808800646, 18.6700963107544, 17.8977903673973));
#255 = CARTESIAN_POINT('', (33.6863624779737, 19.4908987467165, 24.0259991853089));
#256 = CARTESIAN_POINT('', (36.9333201936089, 20.098148507328, 30.2071318854943));
#257 = CARTESIAN_POINT('', (40.143432058572, 20.485200435764, 36.4251104363518));
#258 = CARTESIAN_POINT('', (43.3331743194005, 20.6478117766556, 42.6634585913439));
#259 = CARTESIAN_POINT('', (46.5192478916796, 20.5842014612767, 48.9054754348854));
#260 = CARTESIAN_POINT('', (49.7183933802194, 20.2950664103859, 55.1344203621663));
#261 = CARTESIAN_POINT('', (52.9472086985566, 19.7835739416245, 61.3336954596498));
#262 = CARTESIAN_POINT('', (56.2219650875517, 19.0553301066116, 67.4870294864753));
#263 = CARTESIAN_POINT('', (59.5584363359528, 18.1183060713013, 73.5786486538947));
#264 = CARTESIAN_POINT('', (64.1094520532428, 16.6042933597042, 81.5984201576989));
#265 = CARTESIAN_POINT('', (67.6593740252022, 15.1895575144132, 87.4765886015602));
#266 = CARTESIAN_POINT('', (70.1040764008565, 14.142135623731, 91.317279836453));
#267 = CARTESIAN_POINT('', (-20., 15., 0.));
#268 = CARTESIAN_POINT('', (-17.5979423163911, 14.0128868111717, 3.88333592693819));
#269 = CARTESIAN_POINT('', (-13.8842664182738, 12.3665679426161, 9.59775044464148));
#270 = CARTESIAN_POINT('', (-8.66944146289957, 9.91378720369187, 16.9537127103615));
#271 = CARTESIAN_POINT('', (-4.61797230449198, 7.96560342698199, 22.3303339677745));
#272 = CARTESIAN_POINT('', (-0.418873250676544, 5.93014165910017, 27.5593253297797));
#273 = CARTESIAN_POINT('', (3.93349216404671, 3.82970940602393, 32.6350503308771));
#274 = CARTESIAN_POINT('', (8.44308801679342, 1.68731767725496, 37.553544893951));
#275 = CARTESIAN_POINT('', (13.1121539393459, -0.473560532776074, 42.3125693872192));
#276 = CARTESIAN_POINT('', (17.9411827290985, -2.62925043370449, 46.9116310132872));
#277 = CARTESIAN_POINT('', (22.9289149802773, -4.7561333642055, 51.3519891779291));
#278 = CARTESIAN_POINT('', (28.0723506117899, -6.83090839296886, 55.6366439622371));
#279 = CARTESIAN_POINT('', (33.3667907881834, -8.83083774964715, 59.7702942016642));
#280 = CARTESIAN_POINT('', (40.6188770249604, -11.3684308172805, 65.0889951859814));
#281 = CARTESIAN_POINT('', (46.2630814627261, -13.095118670699, 68.8728811640364));
#282 = CARTESIAN_POINT('', (50.1040764008565, -14.142135623731, 71.317279836453));
#283 = ADVANCED_FACE('', (#284), #290, .T.);
#284 = FACE_OUTER_BOUND('', #285, .T.);
#285 = EDGE_LOOP('', (#286, #287, #288, #289));
#286 = ORIENTED_EDGE('', *, *, #127, .T.);
#287 = ORIENTED_EDGE('', *, *, #197, .T.);
#288 = ORIENTED_EDGE('', *, *, #245, .T.);
#289 = ORIENTED_EDGE('', *, *, #37, .T.);
#290 = B_SPLINE_SURFACE_WITH_KNOTS('', 1, 1, ((#291, #292), (#293, #294)), .UNSPECIFIED., .F., .F., .U., (2, 2), (2, 2), (0., 1.), (0., 1.), .UNSPECIFIED.);
#291 = CARTESIAN_POINT('', (78.0902200477821, -25.1953321385275, 27.6995557707271));
#292 = CARTESIAN_POINT('', (27.6995557707271, -25.1953321385275, 78.0902200477821));
#293 = CARTESIAN_POINT('', (113.721800466582, 25.1953321385275, 63.3311361895274));
#294 = CARTESIAN_POINT('', (63.3311361895274, 25.1953321385275, 113.721800466582));
#295 = ADVANCED_FACE('', (#296), #302, .T.);
#296 = FACE_OUTER_BOUND('', #297, .T.);
#297 = EDGE_LOOP('', (#298, #299, #300, #301));
#298 = ORIENTED_EDGE('', *, *, #99, .F.);
#299 = ORIENTED_EDGE('', *, *, #7, .F.);
#300 = ORIENTED_EDGE('', *, *, #239, .F.);
#301 = ORIENTED_EDGE('', *, *, #169, .F.);
#302 = B_SPLINE_SURFACE_WITH_KNOTS('', 1, 1, ((#303, #304), (#305, #306)), .UNSPECIFIED., .F., .F., .U., (2, 2), (2, 2), (0., 1.), (0., 1.), .UNSPECIFIED.);
#303 = CARTESIAN_POINT('', (27.5, -27.5, 0.));
#304 = CARTESIAN_POINT('', (27.5, 27.5, 0.));
#305 = CARTESIAN_POINT('', (-27.5, -27.5, 0.));
#306 = CARTESIAN_POINT('', (-27.5, 27.5, 0.));
#307 = DRAUGHTING_MODEL('', (#315), #318);
#308 = PRESENTATION_STYLE_ASSIGNMENT((#309));
#309 = SURFACE_STYLE_USAGE(.POSITIVE., #310);
#310 = SURFACE_SIDE_STYLE('', (#311));
#311 = SURFACE_STYLE_FILL_AREA(#312);
#312 = FILL_AREA_STYLE('', (#313));
#313 = FILL_AREA_STYLE_COLOUR('', #314);
#314 = COLOUR_RGB('', 0.50196078431373, 0.50196078431373, 0.50196078431373);
#315 = STYLED_ITEM('', (#308), #1);
#316 = CARTESIAN_POINT('Origin', (0., 0., 0.));
#317 = GEOMETRIC_SET('', (#316));
#318 = (
   GEOMETRIC_REPRESENTATION_CONTEXT (3)
   GLOBAL_UNCERTAINTY_ASSIGNED_CONTEXT ((#320))
   GLOBAL_UNIT_ASSIGNED_CONTEXT ((#319, #321, #322))
   REPRESENTATION_CONTEXT ('', '3D')
);
#319 = (
   LENGTH_UNIT ()
   NAMED_UNIT (*)
   SI_UNIT (.MILLI., .METRE.)
);
#320 = UNCERTAINTY_MEASURE_WITH_UNIT(LENGTH_MEASURE(1.E-6), #319, 'DISTANCE_ACCURACY_VALUE', '');
#321 = (
   NAMED_UNIT (*)
   SI_UNIT ($, .STERADIAN.)
   SOLID_ANGLE_UNIT ()
);
#322 = (
   NAMED_UNIT (*)
   PLANE_ANGLE_UNIT ()
   SI_UNIT ($, .RADIAN.)
);
#323 = SHAPE_REPRESENTATION('', (#338), #318);
#324 = PRODUCT_DEFINITION_SHAPE('', '', #325);
#325 = PRODUCT_DEFINITION('', '', #328, #332);
#326 = APPLICATION_CONTEXT('configuration controlled 3D designs of mechanical parts and assemblies');
#327 = APPLICATION_PROTOCOL_DEFINITION('International Standard', 'automotive_design', 2002, #326);
#328 = PRODUCT_DEFINITION_FORMATION_WITH_SPECIFIED_SOURCE('', '', #329, .NOT_KNOWN.);
#329 = PRODUCT('DiagDir', 'DiagDir', '', (#330));
#330 = PRODUCT_CONTEXT('', #326, 'mechanical');
#331 = PRODUCT_RELATED_PRODUCT_CATEGORY('detail', '', (#329));
#332 = PRODUCT_DEFINITION_CONTEXT('part definition', #326, 'design');
#333 = SHAPE_DEFINITION_REPRESENTATION(#324, #323);
#334 = SHAPE_REPRESENTATION_RELATIONSHIP('', '', #323, #335);
#335 = SHAPE_REPRESENTATION('', (#317), #318);
#336 = SHAPE_REPRESENTATION_RELATIONSHIP('', '', #323, #337);
#337 = ADVANCED_BREP_SHAPE_REPRESENTATION('', (#1), #318);
#338 = AXIS2_PLACEMENT_3D('', #339, #340, #341);
#339 = CARTESIAN_POINT('', (0., 0., 0.));
#340 = DIRECTION('', (0., 0., 1.));
#341 = DIRECTION('', (1., 0., 0.));
ENDSEC;
END-ISO-10303-21;
