ISO-10303-21;
HEADER;
FILE_DESCRIPTION(('STEP'), '1');
FILE_NAME('UpdateType', '2026-04-18T01:18:16', (''), (''), 'Express 3.1.2.0', 'Express Tool', 'Unknown');
FILE_SCHEMA(('AUTOMOTIVE_DESIGN'));
ENDSEC;

DATA;
#1 = SHELL_BASED_SURFACE_MODEL('TypeTest_0', (#2));
#2 = OPEN_SHELL('', (#3, #95, #187, #235));
#3 = ADVANCED_FACE('', (#4), #62, .T.);
#4 = FACE_OUTER_BOUND('', #5, .T.);
#5 = EDGE_LOOP('', (#6, #15, #36, #43));
#6 = ORIENTED_EDGE('', *, *, #7, .F.);
#7 = EDGE_CURVE('', #8, #10, #12, .T.);
#8 = VERTEX_POINT('', #9);
#9 = CARTESIAN_POINT('', (25., -15., -40.));
#10 = VERTEX_POINT('', #11);
#11 = CARTESIAN_POINT('', (25., 15., -40.));
#12 = B_SPLINE_CURVE_WITH_KNOTS('', 1, (#13, #14), .UNSPECIFIED., .F., .U., (2, 2), (0., 1.), .UNSPECIFIED.);
#13 = CARTESIAN_POINT('', (25., -15., -40.));
#14 = CARTESIAN_POINT('', (25., 15., -40.));
#15 = ORIENTED_EDGE('', *, *, #16, .T.);
#16 = EDGE_CURVE('', #8, #17, #19, .T.);
#17 = VERTEX_POINT('', #18);
#18 = CARTESIAN_POINT('', (15., 25., 40.));
#19 = B_SPLINE_CURVE_WITH_KNOTS('', 3, (#20, #21, #22, #23, #24, #25, #26, #27, #28, #29, #30, #31, #32, #33, #34, #35), .UNSPECIFIED., .F., .U., (4, 1, 1, 1, 1, 1, 1, 1, 1, 1, 1, 1, 1, 4), (0., 10.6666666666667, 16., 21.3333333333333, 26.6666666666667, 32., 37.3333333333333, 42.6666666666667, 48., 53.3333333333333, 58.6666666666667, 64., 69.3333333333333, 80.), .UNSPECIFIED.);
#20 = CARTESIAN_POINT('', (25., -15., -40.));
#21 = CARTESIAN_POINT('', (26.0475773395552, -13.2548490475237, -36.4444444444444));
#22 = CARTESIAN_POINT('', (27.3425599634704, -10.471558430002, -31.1111111111111));
#23 = CARTESIAN_POINT('', (28.4636370895323, -6.55238482251135, -24.));
#24 = CARTESIAN_POINT('', (28.9926293349034, -3.54123299214694, -18.6666666666667));
#25 = CARTESIAN_POINT('', (29.2039620940663, -0.49127793536493, -13.3333333333333));
#26 = CARTESIAN_POINT('', (29.0953328564973, 2.56405839300718, -8.00000000000001));
#27 = CARTESIAN_POINT('', (28.6679283425091, 5.59130271346189, -2.66666666666666));
#28 = CARTESIAN_POINT('', (27.9264321673725, 8.55728741400852, 2.66666666666667));
#29 = CARTESIAN_POINT('', (26.8789682347951, 11.4295168798159, 8.00000000000001));
#30 = CARTESIAN_POINT('', (25.5370122310632, 14.1765215166473, 13.3333333333333));
#31 = CARTESIAN_POINT('', (23.9152691815515, 16.7682076212607, 18.6666666666667));
#32 = CARTESIAN_POINT('', (22.0314986919349, 19.1761687678781, 24.));
#33 = CARTESIAN_POINT('', (19.1979960007082, 22.1066974210467, 31.1111111111111));
#34 = CARTESIAN_POINT('', (16.745580453714, 23.953138495841, 36.4444444444445));
#35 = CARTESIAN_POINT('', (15., 25., 40.));
#36 = ORIENTED_EDGE('', *, *, #37, .T.);
#37 = EDGE_CURVE('', #17, #38, #40, .T.);
#38 = VERTEX_POINT('', #39);
#39 = CARTESIAN_POINT('', (-15., 25., 40.));
#40 = B_SPLINE_CURVE_WITH_KNOTS('', 1, (#41, #42), .UNSPECIFIED., .F., .U., (2, 2), (0., 1.), .UNSPECIFIED.);
#41 = CARTESIAN_POINT('', (15., 25., 40.));
#42 = CARTESIAN_POINT('', (-15., 25., 40.));
#43 = ORIENTED_EDGE('', *, *, #44, .F.);
#44 = EDGE_CURVE('', #10, #38, #45, .T.);
#45 = B_SPLINE_CURVE_WITH_KNOTS('', 3, (#46, #47, #48, #49, #50, #51, #52, #53, #54, #55, #56, #57, #58, #59, #60, #61), .UNSPECIFIED., .F., .U., (4, 1, 1, 1, 1, 1, 1, 1, 1, 1, 1, 1, 1, 4), (0., 10.6666666666667, 16., 21.3333333333333, 26.6666666666667, 32., 37.3333333333333, 42.6666666666667, 48., 53.3333333333333, 58.6666666666667, 64., 69.3333333333333, 80.), .UNSPECIFIED.);
#46 = CARTESIAN_POINT('', (25., 15., -40.));
#47 = CARTESIAN_POINT('', (23.953138495841, 16.745580453714, -36.4444444444444));
#48 = CARTESIAN_POINT('', (22.1066974210467, 19.1979960007082, -31.1111111111111));
#49 = CARTESIAN_POINT('', (19.1761687678781, 22.0314986919349, -24.));
#50 = CARTESIAN_POINT('', (16.7682076212607, 23.9152691815515, -18.6666666666667));
#51 = CARTESIAN_POINT('', (14.1765215166473, 25.5370122310632, -13.3333333333333));
#52 = CARTESIAN_POINT('', (11.4295168798159, 26.8789682347951, -8.00000000000001));
#53 = CARTESIAN_POINT('', (8.55728741400852, 27.9264321673725, -2.66666666666666));
#54 = CARTESIAN_POINT('', (5.59130271346188, 28.6679283425091, 2.66666666666667));
#55 = CARTESIAN_POINT('', (2.56405839300718, 29.0953328564973, 8.00000000000001));
#56 = CARTESIAN_POINT('', (-0.49127793536493, 29.2039620940663, 13.3333333333333));
#57 = CARTESIAN_POINT('', (-3.54123299214694, 28.9926293349034, 18.6666666666667));
#58 = CARTESIAN_POINT('', (-6.55238482251135, 28.4636370895323, 24.));
#59 = CARTESIAN_POINT('', (-10.471558430002, 27.3425599634703, 31.1111111111111));
#60 = CARTESIAN_POINT('', (-13.2548490475237, 26.0475773395552, 36.4444444444445));
#61 = CARTESIAN_POINT('', (-15., 25., 40.));
#62 = B_SPLINE_SURFACE_WITH_KNOTS('', 3, 1, ((#63, #64), (#65, #66), (#67, #68), (#69, #70), (#71, #72), (#73, #74), (#75, #76), (#77, #78), (#79, #80), (#81, #82), (#83, #84), (#85, #86), (#87, #88), (#89, #90), (#91, #92), (#93, #94)), .UNSPECIFIED., .F., .F., .U., (4, 1, 1, 1, 1, 1, 1, 1, 1, 1, 1, 1, 1, 4), (2, 2), (0., 10.6666666666667, 16., 21.3333333333333, 26.6666666666667, 32., 37.3333333333333, 42.6666666666667, 48., 53.3333333333333, 58.6666666666667, 64., 69.3333333333333, 80.), (0., 1.), .UNSPECIFIED.);
#63 = CARTESIAN_POINT('', (25., -15., -40.));
#64 = CARTESIAN_POINT('', (25., 15., -40.));
#65 = CARTESIAN_POINT('', (26.0475773395552, -13.2548490475237, -36.4444444444444));
#66 = CARTESIAN_POINT('', (23.953138495841, 16.745580453714, -36.4444444444444));
#67 = CARTESIAN_POINT('', (27.3425599634704, -10.471558430002, -31.1111111111111));
#68 = CARTESIAN_POINT('', (22.1066974210467, 19.1979960007082, -31.1111111111111));
#69 = CARTESIAN_POINT('', (28.4636370895323, -6.55238482251135, -24.));
#70 = CARTESIAN_POINT('', (19.1761687678781, 22.0314986919349, -24.));
#71 = CARTESIAN_POINT('', (28.9926293349034, -3.54123299214694, -18.6666666666667));
#72 = CARTESIAN_POINT('', (16.7682076212607, 23.9152691815515, -18.6666666666667));
#73 = CARTESIAN_POINT('', (29.2039620940663, -0.49127793536493, -13.3333333333333));
#74 = CARTESIAN_POINT('', (14.1765215166473, 25.5370122310632, -13.3333333333333));
#75 = CARTESIAN_POINT('', (29.0953328564973, 2.56405839300718, -8.00000000000001));
#76 = CARTESIAN_POINT('', (11.4295168798159, 26.8789682347951, -8.00000000000001));
#77 = CARTESIAN_POINT('', (28.6679283425091, 5.59130271346189, -2.66666666666666));
#78 = CARTESIAN_POINT('', (8.55728741400852, 27.9264321673725, -2.66666666666666));
#79 = CARTESIAN_POINT('', (27.9264321673725, 8.55728741400852, 2.66666666666667));
#80 = CARTESIAN_POINT('', (5.59130271346188, 28.6679283425091, 2.66666666666667));
#81 = CARTESIAN_POINT('', (26.8789682347951, 11.4295168798159, 8.00000000000001));
#82 = CARTESIAN_POINT('', (2.56405839300718, 29.0953328564973, 8.00000000000001));
#83 = CARTESIAN_POINT('', (25.5370122310632, 14.1765215166473, 13.3333333333333));
#84 = CARTESIAN_POINT('', (-0.49127793536493, 29.2039620940663, 13.3333333333333));
#85 = CARTESIAN_POINT('', (23.9152691815515, 16.7682076212607, 18.6666666666667));
#86 = CARTESIAN_POINT('', (-3.54123299214694, 28.9926293349034, 18.6666666666667));
#87 = CARTESIAN_POINT('', (22.0314986919349, 19.1761687678781, 24.));
#88 = CARTESIAN_POINT('', (-6.55238482251135, 28.4636370895323, 24.));
#89 = CARTESIAN_POINT('', (19.1979960007082, 22.1066974210467, 31.1111111111111));
#90 = CARTESIAN_POINT('', (-10.471558430002, 27.3425599634703, 31.1111111111111));
#91 = CARTESIAN_POINT('', (16.745580453714, 23.953138495841, 36.4444444444445));
#92 = CARTESIAN_POINT('', (-13.2548490475237, 26.0475773395552, 36.4444444444445));
#93 = CARTESIAN_POINT('', (15., 25., 40.));
#94 = CARTESIAN_POINT('', (-15., 25., 40.));
#95 = ADVANCED_FACE('', (#96), #154, .T.);
#96 = FACE_OUTER_BOUND('', #97, .T.);
#97 = EDGE_LOOP('', (#98, #107, #128, #135));
#98 = ORIENTED_EDGE('', *, *, #99, .F.);
#99 = EDGE_CURVE('', #100, #102, #104, .T.);
#100 = VERTEX_POINT('', #101);
#101 = CARTESIAN_POINT('', (-25., 15., -40.));
#102 = VERTEX_POINT('', #103);
#103 = CARTESIAN_POINT('', (-25., -15., -40.));
#104 = B_SPLINE_CURVE_WITH_KNOTS('', 1, (#105, #106), .UNSPECIFIED., .F., .U., (2, 2), (0., 1.), .UNSPECIFIED.);
#105 = CARTESIAN_POINT('', (-25., 15., -40.));
#106 = CARTESIAN_POINT('', (-25., -15., -40.));
#107 = ORIENTED_EDGE('', *, *, #108, .T.);
#108 = EDGE_CURVE('', #100, #109, #111, .T.);
#109 = VERTEX_POINT('', #110);
#110 = CARTESIAN_POINT('', (-15., -25., 40.));
#111 = B_SPLINE_CURVE_WITH_KNOTS('', 3, (#112, #113, #114, #115, #116, #117, #118, #119, #120, #121, #122, #123, #124, #125, #126, #127), .UNSPECIFIED., .F., .U., (4, 1, 1, 1, 1, 1, 1, 1, 1, 1, 1, 1, 1, 4), (0., 10.6666666666667, 16., 21.3333333333333, 26.6666666666667, 32., 37.3333333333333, 42.6666666666667, 48., 53.3333333333333, 58.6666666666667, 64., 69.3333333333333, 80.), .UNSPECIFIED.);
#112 = CARTESIAN_POINT('', (-25., 15., -40.));
#113 = CARTESIAN_POINT('', (-26.0475773395552, 13.2548490475237, -36.4444444444444));
#114 = CARTESIAN_POINT('', (-27.3425599634704, 10.471558430002, -31.1111111111111));
#115 = CARTESIAN_POINT('', (-28.4636370895323, 6.55238482251135, -24.));
#116 = CARTESIAN_POINT('', (-28.9926293349034, 3.54123299214694, -18.6666666666667));
#117 = CARTESIAN_POINT('', (-29.2039620940663, 0.491277935364931, -13.3333333333333));
#118 = CARTESIAN_POINT('', (-29.0953328564973, -2.56405839300718, -8.00000000000001));
#119 = CARTESIAN_POINT('', (-28.6679283425091, -5.59130271346189, -2.66666666666666));
#120 = CARTESIAN_POINT('', (-27.9264321673725, -8.55728741400852, 2.66666666666667));
#121 = CARTESIAN_POINT('', (-26.8789682347951, -11.4295168798159, 8.00000000000001));
#122 = CARTESIAN_POINT('', (-25.5370122310632, -14.1765215166473, 13.3333333333333));
#123 = CARTESIAN_POINT('', (-23.9152691815515, -16.7682076212607, 18.6666666666667));
#124 = CARTESIAN_POINT('', (-22.0314986919349, -19.1761687678781, 24.));
#125 = CARTESIAN_POINT('', (-19.1979960007082, -22.1066974210467, 31.1111111111111));
#126 = CARTESIAN_POINT('', (-16.745580453714, -23.953138495841, 36.4444444444445));
#127 = CARTESIAN_POINT('', (-15., -25., 40.));
#128 = ORIENTED_EDGE('', *, *, #129, .T.);
#129 = EDGE_CURVE('', #109, #130, #132, .T.);
#130 = VERTEX_POINT('', #131);
#131 = CARTESIAN_POINT('', (15., -25., 40.));
#132 = B_SPLINE_CURVE_WITH_KNOTS('', 1, (#133, #134), .UNSPECIFIED., .F., .U., (2, 2), (0., 1.), .UNSPECIFIED.);
#133 = CARTESIAN_POINT('', (-15., -25., 40.));
#134 = CARTESIAN_POINT('', (15., -25., 40.));
#135 = ORIENTED_EDGE('', *, *, #136, .F.);
#136 = EDGE_CURVE('', #102, #130, #137, .T.);
#137 = B_SPLINE_CURVE_WITH_KNOTS('', 3, (#138, #139, #140, #141, #142, #143, #144, #145, #146, #147, #148, #149, #150, #151, #152, #153), .UNSPECIFIED., .F., .U., (4, 1, 1, 1, 1, 1, 1, 1, 1, 1, 1, 1, 1, 4), (0., 10.6666666666667, 16., 21.3333333333333, 26.6666666666667, 32., 37.3333333333333, 42.6666666666667, 48., 53.3333333333333, 58.6666666666667, 64., 69.3333333333333, 80.), .UNSPECIFIED.);
#138 = CARTESIAN_POINT('', (-25., -15., -40.));
#139 = CARTESIAN_POINT('', (-23.953138495841, -16.745580453714, -36.4444444444444));
#140 = CARTESIAN_POINT('', (-22.1066974210467, -19.1979960007082, -31.1111111111111));
#141 = CARTESIAN_POINT('', (-19.1761687678781, -22.0314986919349, -24.));
#142 = CARTESIAN_POINT('', (-16.7682076212607, -23.9152691815515, -18.6666666666667));
#143 = CARTESIAN_POINT('', (-14.1765215166473, -25.5370122310632, -13.3333333333333));
#144 = CARTESIAN_POINT('', (-11.4295168798159, -26.8789682347951, -8.00000000000001));
#145 = CARTESIAN_POINT('', (-8.55728741400852, -27.9264321673725, -2.66666666666666));
#146 = CARTESIAN_POINT('', (-5.59130271346188, -28.6679283425091, 2.66666666666667));
#147 = CARTESIAN_POINT('', (-2.56405839300719, -29.0953328564973, 8.00000000000001));
#148 = CARTESIAN_POINT('', (0.491277935364929, -29.2039620940663, 13.3333333333333));
#149 = CARTESIAN_POINT('', (3.54123299214694, -28.9926293349034, 18.6666666666667));
#150 = CARTESIAN_POINT('', (6.55238482251135, -28.4636370895323, 24.));
#151 = CARTESIAN_POINT('', (10.471558430002, -27.3425599634703, 31.1111111111111));
#152 = CARTESIAN_POINT('', (13.2548490475237, -26.0475773395552, 36.4444444444445));
#153 = CARTESIAN_POINT('', (15., -25., 40.));
#154 = B_SPLINE_SURFACE_WITH_KNOTS('', 3, 1, ((#155, #156), (#157, #158), (#159, #160), (#161, #162), (#163, #164), (#165, #166), (#167, #168), (#169, #170), (#171, #172), (#173, #174), (#175, #176), (#177, #178), (#179, #180), (#181, #182), (#183, #184), (#185, #186)), .UNSPECIFIED., .F., .F., .U., (4, 1, 1, 1, 1, 1, 1, 1, 1, 1, 1, 1, 1, 4), (2, 2), (0., 10.6666666666667, 16., 21.3333333333333, 26.6666666666667, 32., 37.3333333333333, 42.6666666666667, 48., 53.3333333333333, 58.6666666666667, 64., 69.3333333333333, 80.), (0., 1.), .UNSPECIFIED.);
#155 = CARTESIAN_POINT('', (-25., 15., -40.));
#156 = CARTESIAN_POINT('', (-25., -15., -40.));
#157 = CARTESIAN_POINT('', (-26.0475773395552, 13.2548490475237, -36.4444444444444));
#158 = CARTESIAN_POINT('', (-23.953138495841, -16.745580453714, -36.4444444444444));
#159 = CARTESIAN_POINT('', (-27.3425599634704, 10.471558430002, -31.1111111111111));
#160 = CARTESIAN_POINT('', (-22.1066974210467, -19.1979960007082, -31.1111111111111));
#161 = CARTESIAN_POINT('', (-28.4636370895323, 6.55238482251135, -24.));
#162 = CARTESIAN_POINT('', (-19.1761687678781, -22.0314986919349, -24.));
#163 = CARTESIAN_POINT('', (-28.9926293349034, 3.54123299214694, -18.6666666666667));
#164 = CARTESIAN_POINT('', (-16.7682076212607, -23.9152691815515, -18.6666666666667));
#165 = CARTESIAN_POINT('', (-29.2039620940663, 0.491277935364931, -13.3333333333333));
#166 = CARTESIAN_POINT('', (-14.1765215166473, -25.5370122310632, -13.3333333333333));
#167 = CARTESIAN_POINT('', (-29.0953328564973, -2.56405839300718, -8.00000000000001));
#168 = CARTESIAN_POINT('', (-11.4295168798159, -26.8789682347951, -8.00000000000001));
#169 = CARTESIAN_POINT('', (-28.6679283425091, -5.59130271346189, -2.66666666666666));
#170 = CARTESIAN_POINT('', (-8.55728741400852, -27.9264321673725, -2.66666666666666));
#171 = CARTESIAN_POINT('', (-27.9264321673725, -8.55728741400852, 2.66666666666667));
#172 = CARTESIAN_POINT('', (-5.59130271346188, -28.6679283425091, 2.66666666666667));
#173 = CARTESIAN_POINT('', (-26.8789682347951, -11.4295168798159, 8.00000000000001));
#174 = CARTESIAN_POINT('', (-2.56405839300719, -29.0953328564973, 8.00000000000001));
#175 = CARTESIAN_POINT('', (-25.5370122310632, -14.1765215166473, 13.3333333333333));
#176 = CARTESIAN_POINT('', (0.491277935364929, -29.2039620940663, 13.3333333333333));
#177 = CARTESIAN_POINT('', (-23.9152691815515, -16.7682076212607, 18.6666666666667));
#178 = CARTESIAN_POINT('', (3.54123299214694, -28.9926293349034, 18.6666666666667));
#179 = CARTESIAN_POINT('', (-22.0314986919349, -19.1761687678781, 24.));
#180 = CARTESIAN_POINT('', (6.55238482251135, -28.4636370895323, 24.));
#181 = CARTESIAN_POINT('', (-19.1979960007082, -22.1066974210467, 31.1111111111111));
#182 = CARTESIAN_POINT('', (10.471558430002, -27.3425599634703, 31.1111111111111));
#183 = CARTESIAN_POINT('', (-16.745580453714, -23.953138495841, 36.4444444444445));
#184 = CARTESIAN_POINT('', (13.2548490475237, -26.0475773395552, 36.4444444444445));
#185 = CARTESIAN_POINT('', (-15., -25., 40.));
#186 = CARTESIAN_POINT('', (15., -25., 40.));
#187 = ADVANCED_FACE('', (#188), #202, .T.);
#188 = FACE_OUTER_BOUND('', #189, .T.);
#189 = EDGE_LOOP('', (#190, #195, #196, #201));
#190 = ORIENTED_EDGE('', *, *, #191, .F.);
#191 = EDGE_CURVE('', #102, #8, #192, .T.);
#192 = B_SPLINE_CURVE_WITH_KNOTS('', 1, (#193, #194), .UNSPECIFIED., .F., .U., (2, 2), (0., 1.), .UNSPECIFIED.);
#193 = CARTESIAN_POINT('', (-25., -15., -40.));
#194 = CARTESIAN_POINT('', (25., -15., -40.));
#195 = ORIENTED_EDGE('', *, *, #136, .T.);
#196 = ORIENTED_EDGE('', *, *, #197, .T.);
#197 = EDGE_CURVE('', #130, #17, #198, .T.);
#198 = B_SPLINE_CURVE_WITH_KNOTS('', 1, (#199, #200), .UNSPECIFIED., .F., .U., (2, 2), (0., 1.), .UNSPECIFIED.);
#199 = CARTESIAN_POINT('', (15., -25., 40.));
#200 = CARTESIAN_POINT('', (15., 25., 40.));
#201 = ORIENTED_EDGE('', *, *, #16, .F.);
#202 = B_SPLINE_SURFACE_WITH_KNOTS('', 3, 1, ((#203, #204), (#205, #206), (#207, #208), (#209, #210), (#211, #212), (#213, #214), (#215, #216), (#217, #218), (#219, #220), (#221, #222), (#223, #224), (#225, #226), (#227, #228), (#229, #230), (#231, #232), (#233, #234)), .UNSPECIFIED., .F., .F., .U., (4, 1, 1, 1, 1, 1, 1, 1, 1, 1, 1, 1, 1, 4), (2, 2), (0., 10.6666666666667, 16., 21.3333333333333, 26.6666666666667, 32., 37.3333333333333, 42.6666666666667, 48., 53.3333333333333, 58.6666666666667, 64., 69.3333333333333, 80.), (0., 1.), .UNSPECIFIED.);
#203 = CARTESIAN_POINT('', (-25., -15., -40.));
#204 = CARTESIAN_POINT('', (25., -15., -40.));
#205 = CARTESIAN_POINT('', (-23.953138495841, -16.745580453714, -36.4444444444444));
#206 = CARTESIAN_POINT('', (26.0475773395552, -13.2548490475237, -36.4444444444444));
#207 = CARTESIAN_POINT('', (-22.1066974210467, -19.1979960007082, -31.1111111111111));
#208 = CARTESIAN_POINT('', (27.3425599634704, -10.471558430002, -31.1111111111111));
#209 = CARTESIAN_POINT('', (-19.1761687678781, -22.0314986919349, -24.));
#210 = CARTESIAN_POINT('', (28.4636370895323, -6.55238482251135, -24.));
#211 = CARTESIAN_POINT('', (-16.7682076212607, -23.9152691815515, -18.6666666666667));
#212 = CARTESIAN_POINT('', (28.9926293349034, -3.54123299214694, -18.6666666666667));
#213 = CARTESIAN_POINT('', (-14.1765215166473, -25.5370122310632, -13.3333333333333));
#214 = CARTESIAN_POINT('', (29.2039620940663, -0.49127793536493, -13.3333333333333));
#215 = CARTESIAN_POINT('', (-11.4295168798159, -26.8789682347951, -8.00000000000001));
#216 = CARTESIAN_POINT('', (29.0953328564973, 2.56405839300718, -8.00000000000001));
#217 = CARTESIAN_POINT('', (-8.55728741400852, -27.9264321673725, -2.66666666666666));
#218 = CARTESIAN_POINT('', (28.6679283425091, 5.59130271346189, -2.66666666666666));
#219 = CARTESIAN_POINT('', (-5.59130271346188, -28.6679283425091, 2.66666666666667));
#220 = CARTESIAN_POINT('', (27.9264321673725, 8.55728741400852, 2.66666666666667));
#221 = CARTESIAN_POINT('', (-2.56405839300719, -29.0953328564973, 8.00000000000001));
#222 = CARTESIAN_POINT('', (26.8789682347951, 11.4295168798159, 8.00000000000001));
#223 = CARTESIAN_POINT('', (0.491277935364929, -29.2039620940663, 13.3333333333333));
#224 = CARTESIAN_POINT('', (25.5370122310632, 14.1765215166473, 13.3333333333333));
#225 = CARTESIAN_POINT('', (3.54123299214694, -28.9926293349034, 18.6666666666667));
#226 = CARTESIAN_POINT('', (23.9152691815515, 16.7682076212607, 18.6666666666667));
#227 = CARTESIAN_POINT('', (6.55238482251135, -28.4636370895323, 24.));
#228 = CARTESIAN_POINT('', (22.0314986919349, 19.1761687678781, 24.));
#229 = CARTESIAN_POINT('', (10.471558430002, -27.3425599634703, 31.1111111111111));
#230 = CARTESIAN_POINT('', (19.1979960007082, 22.1066974210467, 31.1111111111111));
#231 = CARTESIAN_POINT('', (13.2548490475237, -26.0475773395552, 36.4444444444445));
#232 = CARTESIAN_POINT('', (16.745580453714, 23.953138495841, 36.4444444444445));
#233 = CARTESIAN_POINT('', (15., -25., 40.));
#234 = CARTESIAN_POINT('', (15., 25., 40.));
#235 = ADVANCED_FACE('', (#236), #250, .T.);
#236 = FACE_OUTER_BOUND('', #237, .T.);
#237 = EDGE_LOOP('', (#238, #243, #244, #249));
#238 = ORIENTED_EDGE('', *, *, #239, .F.);
#239 = EDGE_CURVE('', #10, #100, #240, .T.);
#240 = B_SPLINE_CURVE_WITH_KNOTS('', 1, (#241, #242), .UNSPECIFIED., .F., .U., (2, 2), (0., 1.), .UNSPECIFIED.);
#241 = CARTESIAN_POINT('', (25., 15., -40.));
#242 = CARTESIAN_POINT('', (-25., 15., -40.));
#243 = ORIENTED_EDGE('', *, *, #44, .T.);
#244 = ORIENTED_EDGE('', *, *, #245, .T.);
#245 = EDGE_CURVE('', #38, #109, #246, .T.);
#246 = B_SPLINE_CURVE_WITH_KNOTS('', 1, (#247, #248), .UNSPECIFIED., .F., .U., (2, 2), (0., 1.), .UNSPECIFIED.);
#247 = CARTESIAN_POINT('', (-15., 25., 40.));
#248 = CARTESIAN_POINT('', (-15., -25., 40.));
#249 = ORIENTED_EDGE('', *, *, #108, .F.);
#250 = B_SPLINE_SURFACE_WITH_KNOTS('', 3, 1, ((#251, #252), (#253, #254), (#255, #256), (#257, #258), (#259, #260), (#261, #262), (#263, #264), (#265, #266), (#267, #268), (#269, #270), (#271, #272), (#273, #274), (#275, #276), (#277, #278), (#279, #280), (#281, #282)), .UNSPECIFIED., .F., .F., .U., (4, 1, 1, 1, 1, 1, 1, 1, 1, 1, 1, 1, 1, 4), (2, 2), (0., 10.6666666666667, 16., 21.3333333333333, 26.6666666666667, 32., 37.3333333333333, 42.6666666666667, 48., 53.3333333333333, 58.6666666666667, 64., 69.3333333333333, 80.), (0., 1.), .UNSPECIFIED.);
#251 = CARTESIAN_POINT('', (25., 15., -40.));
#252 = CARTESIAN_POINT('', (-25., 15., -40.));
#253 = CARTESIAN_POINT('', (23.953138495841, 16.745580453714, -36.4444444444444));
#254 = CARTESIAN_POINT('', (-26.0475773395552, 13.2548490475237, -36.4444444444444));
#255 = CARTESIAN_POINT('', (22.1066974210467, 19.1979960007082, -31.1111111111111));
#256 = CARTESIAN_POINT('', (-27.3425599634704, 10.471558430002, -31.1111111111111));
#257 = CARTESIAN_POINT('', (19.1761687678781, 22.0314986919349, -24.));
#258 = CARTESIAN_POINT('', (-28.4636370895323, 6.55238482251135, -24.));
#259 = CARTESIAN_POINT('', (16.7682076212607, 23.9152691815515, -18.6666666666667));
#260 = CARTESIAN_POINT('', (-28.9926293349034, 3.54123299214694, -18.6666666666667));
#261 = CARTESIAN_POINT('', (14.1765215166473, 25.5370122310632, -13.3333333333333));
#262 = CARTESIAN_POINT('', (-29.2039620940663, 0.491277935364931, -13.3333333333333));
#263 = CARTESIAN_POINT('', (11.4295168798159, 26.8789682347951, -8.00000000000001));
#264 = CARTESIAN_POINT('', (-29.0953328564973, -2.56405839300718, -8.00000000000001));
#265 = CARTESIAN_POINT('', (8.55728741400852, 27.9264321673725, -2.66666666666666));
#266 = CARTESIAN_POINT('', (-28.6679283425091, -5.59130271346189, -2.66666666666666));
#267 = CARTESIAN_POINT('', (5.59130271346188, 28.6679283425091, 2.66666666666667));
#268 = CARTESIAN_POINT('', (-27.9264321673725, -8.55728741400852, 2.66666666666667));
#269 = CARTESIAN_POINT('', (2.56405839300718, 29.0953328564973, 8.00000000000001));
#270 = CARTESIAN_POINT('', (-26.8789682347951, -11.4295168798159, 8.00000000000001));
#271 = CARTESIAN_POINT('', (-0.49127793536493, 29.2039620940663, 13.3333333333333));
#272 = CARTESIAN_POINT('', (-25.5370122310632, -14.1765215166473, 13.3333333333333));
#273 = CARTESIAN_POINT('', (-3.54123299214694, 28.9926293349034, 18.6666666666667));
#274 = CARTESIAN_POINT('', (-23.9152691815515, -16.7682076212607, 18.6666666666667));
#275 = CARTESIAN_POINT('', (-6.55238482251135, 28.4636370895323, 24.));
#276 = CARTESIAN_POINT('', (-22.0314986919349, -19.1761687678781, 24.));
#277 = CARTESIAN_POINT('', (-10.471558430002, 27.3425599634703, 31.1111111111111));
#278 = CARTESIAN_POINT('', (-19.1979960007082, -22.1066974210467, 31.1111111111111));
#279 = CARTESIAN_POINT('', (-13.2548490475237, 26.0475773395552, 36.4444444444445));
#280 = CARTESIAN_POINT('', (-16.745580453714, -23.953138495841, 36.4444444444445));
#281 = CARTESIAN_POINT('', (-15., 25., 40.));
#282 = CARTESIAN_POINT('', (-15., -25., 40.));
#283 = DRAUGHTING_MODEL('', (#291), #294);
#284 = PRESENTATION_STYLE_ASSIGNMENT((#285));
#285 = SURFACE_STYLE_USAGE(.POSITIVE., #286);
#286 = SURFACE_SIDE_STYLE('', (#287));
#287 = SURFACE_STYLE_FILL_AREA(#288);
#288 = FILL_AREA_STYLE('', (#289));
#289 = FILL_AREA_STYLE_COLOUR('', #290);
#290 = COLOUR_RGB('', 0.50196078431373, 0.50196078431373, 0.50196078431373);
#291 = STYLED_ITEM('', (#284), #1);
#292 = CARTESIAN_POINT('Origin', (0., 0., 0.));
#293 = GEOMETRIC_SET('', (#292));
#294 = (
   GEOMETRIC_REPRESENTATION_CONTEXT (3)
   GLOBAL_UNCERTAINTY_ASSIGNED_CONTEXT ((#296))
   GLOBAL_UNIT_ASSIGNED_CONTEXT ((#295, #297, #298))
   REPRESENTATION_CONTEXT ('', '3D')
);
#295 = (
   LENGTH_UNIT ()
   NAMED_UNIT (*)
   SI_UNIT (.MILLI., .METRE.)
);
#296 = UNCERTAINTY_MEASURE_WITH_UNIT(LENGTH_MEASURE(1.E-6), #295, 'DISTANCE_ACCURACY_VALUE', '');
#297 = (
   NAMED_UNIT (*)
   SI_UNIT ($, .STERADIAN.)
   SOLID_ANGLE_UNIT ()
);
#298 = (
   NAMED_UNIT (*)
   PLANE_ANGLE_UNIT ()
   SI_UNIT ($, .RADIAN.)
);
#299 = SHAPE_REPRESENTATION('', (#314), #294);
#300 = PRODUCT_DEFINITION_SHAPE('', '', #301);
#301 = PRODUCT_DEFINITION('', '', #304, #308);
#302 = APPLICATION_CONTEXT('configuration controlled 3D designs of mechanical parts and assemblies');
#303 = APPLICATION_PROTOCOL_DEFINITION('International Standard', 'automotive_design', 2002, #302);
#304 = PRODUCT_DEFINITION_FORMATION_WITH_SPECIFIED_SOURCE('', '', #305, .NOT_KNOWN.);
#305 = PRODUCT('UpdateType', 'UpdateType', '', (#306));
#306 = PRODUCT_CONTEXT('', #302, 'mechanical');
#307 = PRODUCT_RELATED_PRODUCT_CATEGORY('detail', '', (#305));
#308 = PRODUCT_DEFINITION_CONTEXT('part definition', #302, 'design');
#309 = SHAPE_DEFINITION_REPRESENTATION(#300, #299);
#310 = SHAPE_REPRESENTATION_RELATIONSHIP('', '', #299, #311);
#311 = SHAPE_REPRESENTATION('', (#293), #294);
#312 = SHAPE_REPRESENTATION_RELATIONSHIP('', '', #299, #313);
#313 = MANIFOLD_SURFACE_SHAPE_REPRESENTATION('', (#1), #294);
#314 = AXIS2_PLACEMENT_3D('', #315, #316, #317);
#315 = CARTESIAN_POINT('', (0., 0., 0.));
#316 = DIRECTION('', (0., 0., 1.));
#317 = DIRECTION('', (1., 0., 0.));
ENDSEC;
END-ISO-10303-21;
