ISO-10303-21;
HEADER;
FILE_DESCRIPTION(('STEP'), '1');
FILE_NAME('CenterUP', '2026-04-18T01:24:18', (''), (''), 'Express 3.1.2.0', 'Express Tool', 'Unknown');
FILE_SCHEMA(('AUTOMOTIVE_DESIGN'));
ENDSEC;

DATA;
#1 = MANIFOLD_SOLID_BREP('CenterWithUP_0', #2);
#2 = CLOSED_SHELL('', (#3, #95, #165, #235, #283, #295));
#3 = ADVANCED_FACE('', (#4), #62, .T.);
#4 = FACE_OUTER_BOUND('', #5, .T.);
#5 = EDGE_LOOP('', (#6, #15, #36, #43));
#6 = ORIENTED_EDGE('', *, *, #7, .T.);
#7 = EDGE_CURVE('', #8, #10, #12, .T.);
#8 = VERTEX_POINT('', #9);
#9 = CARTESIAN_POINT('', (70., 15., 0.));
#10 = VERTEX_POINT('', #11);
#11 = CARTESIAN_POINT('', (30., 15., 0.));
#12 = B_SPLINE_CURVE_WITH_KNOTS('', 1, (#13, #14), .UNSPECIFIED., .F., .U., (2, 2), (0., 1.), .UNSPECIFIED.);
#13 = CARTESIAN_POINT('', (70., 15., 0.));
#14 = CARTESIAN_POINT('', (30., 15., 0.));
#15 = ORIENTED_EDGE('', *, *, #16, .T.);
#16 = EDGE_CURVE('', #10, #17, #19, .T.);
#17 = VERTEX_POINT('', #18);
#18 = CARTESIAN_POINT('', (35., -20., 80.));
#19 = B_SPLINE_CURVE_WITH_KNOTS('', 3, (#20, #21, #22, #23, #24, #25, #26, #27, #28, #29, #30, #31, #32, #33, #34, #35), .UNSPECIFIED., .F., .U., (4, 1, 1, 1, 1, 1, 1, 1, 1, 1, 1, 1, 1, 4), (0., 10.6666666666667, 16., 21.3333333333333, 26.6666666666667, 32., 37.3333333333333, 42.6666666666667, 48., 53.3333333333333, 58.6666666666667, 64., 69.3333333333333, 80.), .UNSPECIFIED.);
#20 = CARTESIAN_POINT('', (30., 15., 0.));
#21 = CARTESIAN_POINT('', (28.9524942439844, 13.6039221881428, 3.55555555555555));
#22 = CARTESIAN_POINT('', (27.6023657749813, 11.3442021870726, 8.88888888888889));
#23 = CARTESIAN_POINT('', (26.3003434962088, 8.10029620945371, 16.));
#24 = CARTESIAN_POINT('', (25.583454360713, 5.5786366110874, 21.3333333333333));
#25 = CARTESIAN_POINT('', (25.1340862670051, 2.99585136493476, 26.6666666666667));
#26 = CARTESIAN_POINT('', (24.957152117134, 0.380244269773042, 32.));
#27 = CARTESIAN_POINT('', (25.0545932331426, -2.23952922537844, 37.3333333333333));
#28 = CARTESIAN_POINT('', (25.4253413207109, -4.83476583835676, 42.6666666666667));
#29 = CARTESIAN_POINT('', (26.0653344279851, -7.3770319061846, 48.));
#30 = CARTESIAN_POINT('', (26.9675611985066, -9.83847315557595, 53.3333333333333));
#31 = CARTESIAN_POINT('', (28.122134437389, -12.1921239256442, 58.6666666666667));
#32 = CARTESIAN_POINT('', (29.5164126950075, -14.4121881821371, 64.));
#33 = CARTESIAN_POINT('', (31.6746477563624, -17.161771682595, 71.1111111111111));
#34 = CARTESIAN_POINT('', (33.603492686905, -18.9530669123014, 76.4444444444445));
#35 = CARTESIAN_POINT('', (35., -20., 80.));
#36 = ORIENTED_EDGE('', *, *, #37, .F.);
#37 = EDGE_CURVE('', #38, #17, #40, .T.);
#38 = VERTEX_POINT('', #39);
#39 = CARTESIAN_POINT('', (35., 20., 80.));
#40 = B_SPLINE_CURVE_WITH_KNOTS('', 1, (#41, #42), .UNSPECIFIED., .F., .U., (2, 2), (0., 1.), .UNSPECIFIED.);
#41 = CARTESIAN_POINT('', (35., 20., 80.));
#42 = CARTESIAN_POINT('', (35., -20., 80.));
#43 = ORIENTED_EDGE('', *, *, #44, .F.);
#44 = EDGE_CURVE('', #8, #38, #45, .T.);
#45 = B_SPLINE_CURVE_WITH_KNOTS('', 3, (#46, #47, #48, #49, #50, #51, #52, #53, #54, #55, #56, #57, #58, #59, #60, #61), .UNSPECIFIED., .F., .U., (4, 1, 1, 1, 1, 1, 1, 1, 1, 1, 1, 1, 1, 4), (0., 10.6666666666667, 16., 21.3333333333333, 26.6666666666667, 32., 37.3333333333333, 42.6666666666667, 48., 53.3333333333333, 58.6666666666667, 64., 69.3333333333333, 80.), .UNSPECIFIED.);
#46 = CARTESIAN_POINT('', (70., 15., 0.));
#47 = CARTESIAN_POINT('', (68.9530669123014, 16.396507313095, 3.55555555555555));
#48 = CARTESIAN_POINT('', (67.161771682595, 18.3253522436376, 8.88888888888889));
#49 = CARTESIAN_POINT('', (64.4121881821371, 20.4835873049925, 16.));
#50 = CARTESIAN_POINT('', (62.1921239256443, 21.877865562611, 21.3333333333333));
#51 = CARTESIAN_POINT('', (59.8384731555759, 23.0324388014934, 26.6666666666667));
#52 = CARTESIAN_POINT('', (57.3770319061846, 23.9346655720149, 32.));
#53 = CARTESIAN_POINT('', (54.8347658383568, 24.5746586792891, 37.3333333333333));
#54 = CARTESIAN_POINT('', (52.2395292253785, 24.9454067668574, 42.6666666666667));
#55 = CARTESIAN_POINT('', (49.619755730227, 25.042847882866, 48.));
#56 = CARTESIAN_POINT('', (47.0041486350652, 24.8659137329949, 53.3333333333333));
#57 = CARTESIAN_POINT('', (44.4213633889126, 24.416545639287, 58.6666666666667));
#58 = CARTESIAN_POINT('', (41.8997037905463, 23.6996565037912, 64.));
#59 = CARTESIAN_POINT('', (38.6557978129273, 22.3976342250186, 71.1111111111111));
#60 = CARTESIAN_POINT('', (36.3960778118572, 21.0475057560156, 76.4444444444445));
#61 = CARTESIAN_POINT('', (35., 20., 80.));
#62 = B_SPLINE_SURFACE_WITH_KNOTS('', 1, 3, ((#63, #64, #65, #66, #67, #68, #69, #70, #71, #72, #73, #74, #75, #76, #77, #78), (#79, #80, #81, #82, #83, #84, #85, #86, #87, #88, #89, #90, #91, #92, #93, #94)), .UNSPECIFIED., .F., .F., .U., (2, 2), (4, 1, 1, 1, 1, 1, 1, 1, 1, 1, 1, 1, 1, 4), (0., 1.), (0., 10.6666666666667, 16., 21.3333333333333, 26.6666666666667, 32., 37.3333333333333, 42.6666666666667, 48., 53.3333333333333, 58.6666666666667, 64., 69.3333333333333, 80.), .UNSPECIFIED.);
#63 = CARTESIAN_POINT('', (70., 15., 0.));
#64 = CARTESIAN_POINT('', (68.9530669123014, 16.396507313095, 3.55555555555555));
#65 = CARTESIAN_POINT('', (67.161771682595, 18.3253522436376, 8.88888888888889));
#66 = CARTESIAN_POINT('', (64.4121881821371, 20.4835873049925, 16.));
#67 = CARTESIAN_POINT('', (62.1921239256443, 21.877865562611, 21.3333333333333));
#68 = CARTESIAN_POINT('', (59.8384731555759, 23.0324388014934, 26.6666666666667));
#69 = CARTESIAN_POINT('', (57.3770319061846, 23.9346655720149, 32.));
#70 = CARTESIAN_POINT('', (54.8347658383568, 24.5746586792891, 37.3333333333333));
#71 = CARTESIAN_POINT('', (52.2395292253785, 24.9454067668574, 42.6666666666667));
#72 = CARTESIAN_POINT('', (49.619755730227, 25.042847882866, 48.));
#73 = CARTESIAN_POINT('', (47.0041486350652, 24.8659137329949, 53.3333333333333));
#74 = CARTESIAN_POINT('', (44.4213633889126, 24.416545639287, 58.6666666666667));
#75 = CARTESIAN_POINT('', (41.8997037905463, 23.6996565037912, 64.));
#76 = CARTESIAN_POINT('', (38.6557978129273, 22.3976342250186, 71.1111111111111));
#77 = CARTESIAN_POINT('', (36.3960778118572, 21.0475057560156, 76.4444444444445));
#78 = CARTESIAN_POINT('', (35., 20., 80.));
#79 = CARTESIAN_POINT('', (30., 15., 0.));
#80 = CARTESIAN_POINT('', (28.9524942439844, 13.6039221881428, 3.55555555555555));
#81 = CARTESIAN_POINT('', (27.6023657749813, 11.3442021870726, 8.88888888888889));
#82 = CARTESIAN_POINT('', (26.3003434962088, 8.10029620945371, 16.));
#83 = CARTESIAN_POINT('', (25.583454360713, 5.5786366110874, 21.3333333333333));
#84 = CARTESIAN_POINT('', (25.1340862670051, 2.99585136493476, 26.6666666666667));
#85 = CARTESIAN_POINT('', (24.957152117134, 0.380244269773042, 32.));
#86 = CARTESIAN_POINT('', (25.0545932331426, -2.23952922537844, 37.3333333333333));
#87 = CARTESIAN_POINT('', (25.4253413207109, -4.83476583835676, 42.6666666666667));
#88 = CARTESIAN_POINT('', (26.0653344279851, -7.3770319061846, 48.));
#89 = CARTESIAN_POINT('', (26.9675611985066, -9.83847315557595, 53.3333333333333));
#90 = CARTESIAN_POINT('', (28.122134437389, -12.1921239256442, 58.6666666666667));
#91 = CARTESIAN_POINT('', (29.5164126950075, -14.4121881821371, 64.));
#92 = CARTESIAN_POINT('', (31.6746477563624, -17.161771682595, 71.1111111111111));
#93 = CARTESIAN_POINT('', (33.603492686905, -18.9530669123014, 76.4444444444445));
#94 = CARTESIAN_POINT('', (35., -20., 80.));
#95 = ADVANCED_FACE('', (#96), #132, .T.);
#96 = FACE_OUTER_BOUND('', #97, .T.);
#97 = EDGE_LOOP('', (#98, #105, #126, #131));
#98 = ORIENTED_EDGE('', *, *, #99, .T.);
#99 = EDGE_CURVE('', #10, #100, #102, .T.);
#100 = VERTEX_POINT('', #101);
#101 = CARTESIAN_POINT('', (30., -15., 0.));
#102 = B_SPLINE_CURVE_WITH_KNOTS('', 1, (#103, #104), .UNSPECIFIED., .F., .U., (2, 2), (0., 1.), .UNSPECIFIED.);
#103 = CARTESIAN_POINT('', (30., 15., 0.));
#104 = CARTESIAN_POINT('', (30., -15., 0.));
#105 = ORIENTED_EDGE('', *, *, #106, .T.);
#106 = EDGE_CURVE('', #100, #107, #109, .T.);
#107 = VERTEX_POINT('', #108);
#108 = CARTESIAN_POINT('', (65., -20., 80.));
#109 = B_SPLINE_CURVE_WITH_KNOTS('', 3, (#110, #111, #112, #113, #114, #115, #116, #117, #118, #119, #120, #121, #122, #123, #124, #125), .UNSPECIFIED., .F., .U., (4, 1, 1, 1, 1, 1, 1, 1, 1, 1, 1, 1, 1, 4), (0., 10.6666666666667, 16., 21.3333333333333, 26.6666666666667, 32., 37.3333333333333, 42.6666666666667, 48., 53.3333333333333, 58.6666666666667, 64., 69.3333333333333, 80.), .UNSPECIFIED.);
#110 = CARTESIAN_POINT('', (30., -15., 0.));
#111 = CARTESIAN_POINT('', (31.0469330876986, -16.396507313095, 3.55555555555555));
#112 = CARTESIAN_POINT('', (32.838228317405, -18.3253522436376, 8.88888888888889));
#113 = CARTESIAN_POINT('', (35.5878118178629, -20.4835873049925, 16.));
#114 = CARTESIAN_POINT('', (37.8078760743557, -21.8778655626111, 21.3333333333333));
#115 = CARTESIAN_POINT('', (40.1615268444241, -23.0324388014934, 26.6666666666667));
#116 = CARTESIAN_POINT('', (42.6229680938154, -23.9346655720149, 32.));
#117 = CARTESIAN_POINT('', (45.1652341616432, -24.574658679289, 37.3333333333333));
#118 = CARTESIAN_POINT('', (47.7604707746215, -24.9454067668574, 42.6666666666667));
#119 = CARTESIAN_POINT('', (50.3802442697731, -25.042847882866, 48.));
#120 = CARTESIAN_POINT('', (52.9958513649348, -24.8659137329949, 53.3333333333333));
#121 = CARTESIAN_POINT('', (55.5786366110874, -24.416545639287, 58.6666666666667));
#122 = CARTESIAN_POINT('', (58.1002962094537, -23.6996565037912, 64.));
#123 = CARTESIAN_POINT('', (61.3442021870726, -22.3976342250186, 71.1111111111111));
#124 = CARTESIAN_POINT('', (63.6039221881428, -21.0475057560156, 76.4444444444445));
#125 = CARTESIAN_POINT('', (65., -20., 80.));
#126 = ORIENTED_EDGE('', *, *, #127, .F.);
#127 = EDGE_CURVE('', #17, #107, #128, .T.);
#128 = B_SPLINE_CURVE_WITH_KNOTS('', 1, (#129, #130), .UNSPECIFIED., .F., .U., (2, 2), (0., 1.), .UNSPECIFIED.);
#129 = CARTESIAN_POINT('', (35., -20., 80.));
#130 = CARTESIAN_POINT('', (65., -20., 80.));
#131 = ORIENTED_EDGE('', *, *, #16, .F.);
#132 = B_SPLINE_SURFACE_WITH_KNOTS('', 1, 3, ((#133, #134, #135, #136, #137, #138, #139, #140, #141, #142, #143, #144, #145, #146, #147, #148), (#149, #150, #151, #152, #153, #154, #155, #156, #157, #158, #159, #160, #161, #162, #163, #164)), .UNSPECIFIED., .F., .F., .U., (2, 2), (4, 1, 1, 1, 1, 1, 1, 1, 1, 1, 1, 1, 1, 4), (0., 1.), (0., 10.6666666666667, 16., 21.3333333333333, 26.6666666666667, 32., 37.3333333333333, 42.6666666666667, 48., 53.3333333333333, 58.6666666666667, 64., 69.3333333333333, 80.), .UNSPECIFIED.);
#133 = CARTESIAN_POINT('', (30., 15., 0.));
#134 = CARTESIAN_POINT('', (28.9524942439844, 13.6039221881428, 3.55555555555555));
#135 = CARTESIAN_POINT('', (27.6023657749813, 11.3442021870726, 8.88888888888889));
#136 = CARTESIAN_POINT('', (26.3003434962088, 8.10029620945371, 16.));
#137 = CARTESIAN_POINT('', (25.583454360713, 5.5786366110874, 21.3333333333333));
#138 = CARTESIAN_POINT('', (25.1340862670051, 2.99585136493476, 26.6666666666667));
#139 = CARTESIAN_POINT('', (24.957152117134, 0.380244269773042, 32.));
#140 = CARTESIAN_POINT('', (25.0545932331426, -2.23952922537844, 37.3333333333333));
#141 = CARTESIAN_POINT('', (25.4253413207109, -4.83476583835676, 42.6666666666667));
#142 = CARTESIAN_POINT('', (26.0653344279851, -7.3770319061846, 48.));
#143 = CARTESIAN_POINT('', (26.9675611985066, -9.83847315557595, 53.3333333333333));
#144 = CARTESIAN_POINT('', (28.122134437389, -12.1921239256442, 58.6666666666667));
#145 = CARTESIAN_POINT('', (29.5164126950075, -14.4121881821371, 64.));
#146 = CARTESIAN_POINT('', (31.6746477563624, -17.161771682595, 71.1111111111111));
#147 = CARTESIAN_POINT('', (33.603492686905, -18.9530669123014, 76.4444444444445));
#148 = CARTESIAN_POINT('', (35., -20., 80.));
#149 = CARTESIAN_POINT('', (30., -15., 0.));
#150 = CARTESIAN_POINT('', (31.0469330876986, -16.396507313095, 3.55555555555555));
#151 = CARTESIAN_POINT('', (32.838228317405, -18.3253522436376, 8.88888888888889));
#152 = CARTESIAN_POINT('', (35.5878118178629, -20.4835873049925, 16.));
#153 = CARTESIAN_POINT('', (37.8078760743557, -21.8778655626111, 21.3333333333333));
#154 = CARTESIAN_POINT('', (40.1615268444241, -23.0324388014934, 26.6666666666667));
#155 = CARTESIAN_POINT('', (42.6229680938154, -23.9346655720149, 32.));
#156 = CARTESIAN_POINT('', (45.1652341616432, -24.574658679289, 37.3333333333333));
#157 = CARTESIAN_POINT('', (47.7604707746215, -24.9454067668574, 42.6666666666667));
#158 = CARTESIAN_POINT('', (50.3802442697731, -25.042847882866, 48.));
#159 = CARTESIAN_POINT('', (52.9958513649348, -24.8659137329949, 53.3333333333333));
#160 = CARTESIAN_POINT('', (55.5786366110874, -24.416545639287, 58.6666666666667));
#161 = CARTESIAN_POINT('', (58.1002962094537, -23.6996565037912, 64.));
#162 = CARTESIAN_POINT('', (61.3442021870726, -22.3976342250186, 71.1111111111111));
#163 = CARTESIAN_POINT('', (63.6039221881428, -21.0475057560156, 76.4444444444445));
#164 = CARTESIAN_POINT('', (65., -20., 80.));
#165 = ADVANCED_FACE('', (#166), #202, .T.);
#166 = FACE_OUTER_BOUND('', #167, .T.);
#167 = EDGE_LOOP('', (#168, #175, #196, #201));
#168 = ORIENTED_EDGE('', *, *, #169, .T.);
#169 = EDGE_CURVE('', #100, #170, #172, .T.);
#170 = VERTEX_POINT('', #171);
#171 = CARTESIAN_POINT('', (70., -15., 0.));
#172 = B_SPLINE_CURVE_WITH_KNOTS('', 1, (#173, #174), .UNSPECIFIED., .F., .U., (2, 2), (0., 1.), .UNSPECIFIED.);
#173 = CARTESIAN_POINT('', (30., -15., 0.));
#174 = CARTESIAN_POINT('', (70., -15., 0.));
#175 = ORIENTED_EDGE('', *, *, #176, .T.);
#176 = EDGE_CURVE('', #170, #177, #179, .T.);
#177 = VERTEX_POINT('', #178);
#178 = CARTESIAN_POINT('', (65., 20., 80.));
#179 = B_SPLINE_CURVE_WITH_KNOTS('', 3, (#180, #181, #182, #183, #184, #185, #186, #187, #188, #189, #190, #191, #192, #193, #194, #195), .UNSPECIFIED., .F., .U., (4, 1, 1, 1, 1, 1, 1, 1, 1, 1, 1, 1, 1, 4), (0., 10.6666666666667, 16., 21.3333333333333, 26.6666666666667, 32., 37.3333333333333, 42.6666666666667, 48., 53.3333333333333, 58.6666666666667, 64., 69.3333333333333, 80.), .UNSPECIFIED.);
#180 = CARTESIAN_POINT('', (70., -15., 0.));
#181 = CARTESIAN_POINT('', (71.0475057560156, -13.6039221881428, 3.55555555555555));
#182 = CARTESIAN_POINT('', (72.3976342250186, -11.3442021870726, 8.88888888888889));
#183 = CARTESIAN_POINT('', (73.6996565037912, -8.1002962094537, 16.));
#184 = CARTESIAN_POINT('', (74.416545639287, -5.5786366110874, 21.3333333333333));
#185 = CARTESIAN_POINT('', (74.8659137329949, -2.99585136493476, 26.6666666666667));
#186 = CARTESIAN_POINT('', (75.042847882866, -0.38024426977305, 32.));
#187 = CARTESIAN_POINT('', (74.9454067668574, 2.23952922537846, 37.3333333333333));
#188 = CARTESIAN_POINT('', (74.574658679289, 4.83476583835676, 42.6666666666667));
#189 = CARTESIAN_POINT('', (73.9346655720149, 7.37703190618461, 48.));
#190 = CARTESIAN_POINT('', (73.0324388014934, 9.83847315557594, 53.3333333333333));
#191 = CARTESIAN_POINT('', (71.877865562611, 12.1921239256443, 58.6666666666667));
#192 = CARTESIAN_POINT('', (70.4835873049926, 14.4121881821371, 64.));
#193 = CARTESIAN_POINT('', (68.3253522436375, 17.161771682595, 71.1111111111111));
#194 = CARTESIAN_POINT('', (66.396507313095, 18.9530669123014, 76.4444444444445));
#195 = CARTESIAN_POINT('', (65., 20., 80.));
#196 = ORIENTED_EDGE('', *, *, #197, .F.);
#197 = EDGE_CURVE('', #107, #177, #198, .T.);
#198 = B_SPLINE_CURVE_WITH_KNOTS('', 1, (#199, #200), .UNSPECIFIED., .F., .U., (2, 2), (0., 1.), .UNSPECIFIED.);
#199 = CARTESIAN_POINT('', (65., -20., 80.));
#200 = CARTESIAN_POINT('', (65., 20., 80.));
#201 = ORIENTED_EDGE('', *, *, #106, .F.);
#202 = B_SPLINE_SURFACE_WITH_KNOTS('', 1, 3, ((#203, #204, #205, #206, #207, #208, #209, #210, #211, #212, #213, #214, #215, #216, #217, #218), (#219, #220, #221, #222, #223, #224, #225, #226, #227, #228, #229, #230, #231, #232, #233, #234)), .UNSPECIFIED., .F., .F., .U., (2, 2), (4, 1, 1, 1, 1, 1, 1, 1, 1, 1, 1, 1, 1, 4), (0., 1.), (0., 10.6666666666667, 16., 21.3333333333333, 26.6666666666667, 32., 37.3333333333333, 42.6666666666667, 48., 53.3333333333333, 58.6666666666667, 64., 69.3333333333333, 80.), .UNSPECIFIED.);
#203 = CARTESIAN_POINT('', (30., -15., 0.));
#204 = CARTESIAN_POINT('', (31.0469330876986, -16.396507313095, 3.55555555555555));
#205 = CARTESIAN_POINT('', (32.838228317405, -18.3253522436376, 8.88888888888889));
#206 = CARTESIAN_POINT('', (35.5878118178629, -20.4835873049925, 16.));
#207 = CARTESIAN_POINT('', (37.8078760743557, -21.8778655626111, 21.3333333333333));
#208 = CARTESIAN_POINT('', (40.1615268444241, -23.0324388014934, 26.6666666666667));
#209 = CARTESIAN_POINT('', (42.6229680938154, -23.9346655720149, 32.));
#210 = CARTESIAN_POINT('', (45.1652341616432, -24.574658679289, 37.3333333333333));
#211 = CARTESIAN_POINT('', (47.7604707746215, -24.9454067668574, 42.6666666666667));
#212 = CARTESIAN_POINT('', (50.3802442697731, -25.042847882866, 48.));
#213 = CARTESIAN_POINT('', (52.9958513649348, -24.8659137329949, 53.3333333333333));
#214 = CARTESIAN_POINT('', (55.5786366110874, -24.416545639287, 58.6666666666667));
#215 = CARTESIAN_POINT('', (58.1002962094537, -23.6996565037912, 64.));
#216 = CARTESIAN_POINT('', (61.3442021870726, -22.3976342250186, 71.1111111111111));
#217 = CARTESIAN_POINT('', (63.6039221881428, -21.0475057560156, 76.4444444444445));
#218 = CARTESIAN_POINT('', (65., -20., 80.));
#219 = CARTESIAN_POINT('', (70., -15., 0.));
#220 = CARTESIAN_POINT('', (71.0475057560156, -13.6039221881428, 3.55555555555555));
#221 = CARTESIAN_POINT('', (72.3976342250186, -11.3442021870726, 8.88888888888889));
#222 = CARTESIAN_POINT('', (73.6996565037912, -8.1002962094537, 16.));
#223 = CARTESIAN_POINT('', (74.416545639287, -5.5786366110874, 21.3333333333333));
#224 = CARTESIAN_POINT('', (74.8659137329949, -2.99585136493476, 26.6666666666667));
#225 = CARTESIAN_POINT('', (75.042847882866, -0.38024426977305, 32.));
#226 = CARTESIAN_POINT('', (74.9454067668574, 2.23952922537846, 37.3333333333333));
#227 = CARTESIAN_POINT('', (74.574658679289, 4.83476583835676, 42.6666666666667));
#228 = CARTESIAN_POINT('', (73.9346655720149, 7.37703190618461, 48.));
#229 = CARTESIAN_POINT('', (73.0324388014934, 9.83847315557594, 53.3333333333333));
#230 = CARTESIAN_POINT('', (71.877865562611, 12.1921239256443, 58.6666666666667));
#231 = CARTESIAN_POINT('', (70.4835873049926, 14.4121881821371, 64.));
#232 = CARTESIAN_POINT('', (68.3253522436375, 17.161771682595, 71.1111111111111));
#233 = CARTESIAN_POINT('', (66.396507313095, 18.9530669123014, 76.4444444444445));
#234 = CARTESIAN_POINT('', (65., 20., 80.));
#235 = ADVANCED_FACE('', (#236), #250, .T.);
#236 = FACE_OUTER_BOUND('', #237, .T.);
#237 = EDGE_LOOP('', (#238, #243, #244, #249));
#238 = ORIENTED_EDGE('', *, *, #239, .T.);
#239 = EDGE_CURVE('', #170, #8, #240, .T.);
#240 = B_SPLINE_CURVE_WITH_KNOTS('', 1, (#241, #242), .UNSPECIFIED., .F., .U., (2, 2), (0., 1.), .UNSPECIFIED.);
#241 = CARTESIAN_POINT('', (70., -15., 0.));
#242 = CARTESIAN_POINT('', (70., 15., 0.));
#243 = ORIENTED_EDGE('', *, *, #44, .T.);
#244 = ORIENTED_EDGE('', *, *, #245, .F.);
#245 = EDGE_CURVE('', #177, #38, #246, .T.);
#246 = B_SPLINE_CURVE_WITH_KNOTS('', 1, (#247, #248), .UNSPECIFIED., .F., .U., (2, 2), (0., 1.), .UNSPECIFIED.);
#247 = CARTESIAN_POINT('', (65., 20., 80.));
#248 = CARTESIAN_POINT('', (35., 20., 80.));
#249 = ORIENTED_EDGE('', *, *, #176, .F.);
#250 = B_SPLINE_SURFACE_WITH_KNOTS('', 1, 3, ((#251, #252, #253, #254, #255, #256, #257, #258, #259, #260, #261, #262, #263, #264, #265, #266), (#267, #268, #269, #270, #271, #272, #273, #274, #275, #276, #277, #278, #279, #280, #281, #282)), .UNSPECIFIED., .F., .F., .U., (2, 2), (4, 1, 1, 1, 1, 1, 1, 1, 1, 1, 1, 1, 1, 4), (0., 1.), (0., 10.6666666666667, 16., 21.3333333333333, 26.6666666666667, 32., 37.3333333333333, 42.6666666666667, 48., 53.3333333333333, 58.6666666666667, 64., 69.3333333333333, 80.), .UNSPECIFIED.);
#251 = CARTESIAN_POINT('', (70., -15., 0.));
#252 = CARTESIAN_POINT('', (71.0475057560156, -13.6039221881428, 3.55555555555555));
#253 = CARTESIAN_POINT('', (72.3976342250186, -11.3442021870726, 8.88888888888889));
#254 = CARTESIAN_POINT('', (73.6996565037912, -8.1002962094537, 16.));
#255 = CARTESIAN_POINT('', (74.416545639287, -5.5786366110874, 21.3333333333333));
#256 = CARTESIAN_POINT('', (74.8659137329949, -2.99585136493476, 26.6666666666667));
#257 = CARTESIAN_POINT('', (75.042847882866, -0.38024426977305, 32.));
#258 = CARTESIAN_POINT('', (74.9454067668574, 2.23952922537846, 37.3333333333333));
#259 = CARTESIAN_POINT('', (74.574658679289, 4.83476583835676, 42.6666666666667));
#260 = CARTESIAN_POINT('', (73.9346655720149, 7.37703190618461, 48.));
#261 = CARTESIAN_POINT('', (73.0324388014934, 9.83847315557594, 53.3333333333333));
#262 = CARTESIAN_POINT('', (71.877865562611, 12.1921239256443, 58.6666666666667));
#263 = CARTESIAN_POINT('', (70.4835873049926, 14.4121881821371, 64.));
#264 = CARTESIAN_POINT('', (68.3253522436375, 17.161771682595, 71.1111111111111));
#265 = CARTESIAN_POINT('', (66.396507313095, 18.9530669123014, 76.4444444444445));
#266 = CARTESIAN_POINT('', (65., 20., 80.));
#267 = CARTESIAN_POINT('', (70., 15., 0.));
#268 = CARTESIAN_POINT('', (68.9530669123014, 16.396507313095, 3.55555555555555));
#269 = CARTESIAN_POINT('', (67.161771682595, 18.3253522436376, 8.88888888888889));
#270 = CARTESIAN_POINT('', (64.4121881821371, 20.4835873049925, 16.));
#271 = CARTESIAN_POINT('', (62.1921239256443, 21.877865562611, 21.3333333333333));
#272 = CARTESIAN_POINT('', (59.8384731555759, 23.0324388014934, 26.6666666666667));
#273 = CARTESIAN_POINT('', (57.3770319061846, 23.9346655720149, 32.));
#274 = CARTESIAN_POINT('', (54.8347658383568, 24.5746586792891, 37.3333333333333));
#275 = CARTESIAN_POINT('', (52.2395292253785, 24.9454067668574, 42.6666666666667));
#276 = CARTESIAN_POINT('', (49.619755730227, 25.042847882866, 48.));
#277 = CARTESIAN_POINT('', (47.0041486350652, 24.8659137329949, 53.3333333333333));
#278 = CARTESIAN_POINT('', (44.4213633889126, 24.416545639287, 58.6666666666667));
#279 = CARTESIAN_POINT('', (41.8997037905463, 23.6996565037912, 64.));
#280 = CARTESIAN_POINT('', (38.6557978129273, 22.3976342250186, 71.1111111111111));
#281 = CARTESIAN_POINT('', (36.3960778118572, 21.0475057560156, 76.4444444444445));
#282 = CARTESIAN_POINT('', (35., 20., 80.));
#283 = ADVANCED_FACE('', (#284), #290, .T.);
#284 = FACE_OUTER_BOUND('', #285, .T.);
#285 = EDGE_LOOP('', (#286, #287, #288, #289));
#286 = ORIENTED_EDGE('', *, *, #197, .T.);
#287 = ORIENTED_EDGE('', *, *, #245, .T.);
#288 = ORIENTED_EDGE('', *, *, #37, .T.);
#289 = ORIENTED_EDGE('', *, *, #127, .T.);
#290 = B_SPLINE_SURFACE_WITH_KNOTS('', 1, 1, ((#291, #292), (#293, #294)), .UNSPECIFIED., .F., .F., .U., (2, 2), (2, 2), (0., 1.), (0., 1.), .UNSPECIFIED.);
#291 = CARTESIAN_POINT('', (77.5, -27.5, 80.));
#292 = CARTESIAN_POINT('', (22.5, -27.5, 80.));
#293 = CARTESIAN_POINT('', (77.5, 27.5, 80.));
#294 = CARTESIAN_POINT('', (22.5, 27.5, 80.));
#295 = ADVANCED_FACE('', (#296), #302, .T.);
#296 = FACE_OUTER_BOUND('', #297, .T.);
#297 = EDGE_LOOP('', (#298, #299, #300, #301));
#298 = ORIENTED_EDGE('', *, *, #169, .F.);
#299 = ORIENTED_EDGE('', *, *, #99, .F.);
#300 = ORIENTED_EDGE('', *, *, #7, .F.);
#301 = ORIENTED_EDGE('', *, *, #239, .F.);
#302 = B_SPLINE_SURFACE_WITH_KNOTS('', 1, 1, ((#303, #304), (#305, #306)), .UNSPECIFIED., .F., .F., .U., (2, 2), (2, 2), (0., 1.), (0., 1.), .UNSPECIFIED.);
#303 = CARTESIAN_POINT('', (77.5, -27.5, 0.));
#304 = CARTESIAN_POINT('', (77.5, 27.5, 0.));
#305 = CARTESIAN_POINT('', (22.5, -27.5, 0.));
#306 = CARTESIAN_POINT('', (22.5, 27.5, 0.));
#307 = DRAUGHTING_MODEL('', (#315), #318);
#308 = PRESENTATION_STYLE_ASSIGNMENT((#309));
#309 = SURFACE_STYLE_USAGE(.POSITIVE., #310);
#310 = SURFACE_SIDE_STYLE('', (#311));
#311 = SURFACE_STYLE_FILL_AREA(#312);
#312 = FILL_AREA_STYLE('', (#313));
#313 = FILL_AREA_STYLE_COLOUR('', #314);
#314 = COLOUR_RGB('', 0.50196078431373, 0.50196078431373, 0.50196078431373);
#315 = STYLED_ITEM('', (#308), #1);
#316 = CARTESIAN_POINT('Origin', (0., 0., 0.));
#317 = GEOMETRIC_SET('', (#316));
#318 = (
   GEOMETRIC_REPRESENTATION_CONTEXT (3)
   GLOBAL_UNCERTAINTY_ASSIGNED_CONTEXT ((#320))
   GLOBAL_UNIT_ASSIGNED_CONTEXT ((#319, #321, #322))
   REPRESENTATION_CONTEXT ('', '3D')
);
#319 = (
   LENGTH_UNIT ()
   NAMED_UNIT (*)
   SI_UNIT (.MILLI., .METRE.)
);
#320 = UNCERTAINTY_MEASURE_WITH_UNIT(LENGTH_MEASURE(1.E-6), #319, 'DISTANCE_ACCURACY_VALUE', '');
#321 = (
   NAMED_UNIT (*)
   SI_UNIT ($, .STERADIAN.)
   SOLID_ANGLE_UNIT ()
);
#322 = (
   NAMED_UNIT (*)
   PLANE_ANGLE_UNIT ()
   SI_UNIT ($, .RADIAN.)
);
#323 = SHAPE_REPRESENTATION('', (#338), #318);
#324 = PRODUCT_DEFINITION_SHAPE('', '', #325);
#325 = PRODUCT_DEFINITION('', '', #328, #332);
#326 = APPLICATION_CONTEXT('configuration controlled 3D designs of mechanical parts and assemblies');
#327 = APPLICATION_PROTOCOL_DEFINITION('International Standard', 'automotive_design', 2002, #326);
#328 = PRODUCT_DEFINITION_FORMATION_WITH_SPECIFIED_SOURCE('', '', #329, .NOT_KNOWN.);
#329 = PRODUCT('CenterUP', 'CenterUP', '', (#330));
#330 = PRODUCT_CONTEXT('', #326, 'mechanical');
#331 = PRODUCT_RELATED_PRODUCT_CATEGORY('detail', '', (#329));
#332 = PRODUCT_DEFINITION_CONTEXT('part definition', #326, 'design');
#333 = SHAPE_DEFINITION_REPRESENTATION(#324, #323);
#334 = SHAPE_REPRESENTATION_RELATIONSHIP('', '', #323, #335);
#335 = SHAPE_REPRESENTATION('', (#317), #318);
#336 = SHAPE_REPRESENTATION_RELATIONSHIP('', '', #323, #337);
#337 = ADVANCED_BREP_SHAPE_REPRESENTATION('', (#1), #318);
#338 = AXIS2_PLACEMENT_3D('', #339, #340, #341);
#339 = CARTESIAN_POINT('', (0., 0., 0.));
#340 = DIRECTION('', (0., 0., 1.));
#341 = DIRECTION('', (1., 0., 0.));
ENDSEC;
END-ISO-10303-21;
