ISO-10303-21;
HEADER;
FILE_DESCRIPTION(('STEP'), '1');
FILE_NAME('DirNonCustom', '2026-04-17T21:23:33', (''), (''), 'Express 3.1.2.0', 'Express Tool', 'Unknown');
FILE_SCHEMA(('AUTOMOTIVE_DESIGN'));
ENDSEC;

DATA;
#1 = MANIFOLD_SOLID_BREP('UpWithDir_0', #2);
#2 = CLOSED_SHELL('', (#3, #39, #75, #95, #111, #127));
#3 = ADVANCED_FACE('', (#4), #34, .T.);
#4 = FACE_OUTER_BOUND('', #5, .T.);
#5 = EDGE_LOOP('', (#6, #15, #22, #29));
#6 = ORIENTED_EDGE('', *, *, #7, .T.);
#7 = EDGE_CURVE('', #8, #10, #12, .T.);
#8 = VERTEX_POINT('', #9);
#9 = CARTESIAN_POINT('', (0., 40., 50.));
#10 = VERTEX_POINT('', #11);
#11 = CARTESIAN_POINT('', (0., 0., 50.));
#12 = B_SPLINE_CURVE_WITH_KNOTS('', 1, (#13, #14), .UNSPECIFIED., .F., .U., (2, 2), (0., 1.), .UNSPECIFIED.);
#13 = CARTESIAN_POINT('', (0., 40., 50.));
#14 = CARTESIAN_POINT('', (0., 0., 50.));
#15 = ORIENTED_EDGE('', *, *, #16, .T.);
#16 = EDGE_CURVE('', #10, #17, #19, .T.);
#17 = VERTEX_POINT('', #18);
#18 = CARTESIAN_POINT('', (40., 0., 50.));
#19 = B_SPLINE_CURVE_WITH_KNOTS('', 1, (#20, #21), .UNSPECIFIED., .F., .U., (2, 2), (0., 1.), .UNSPECIFIED.);
#20 = CARTESIAN_POINT('', (0., 0., 50.));
#21 = CARTESIAN_POINT('', (40., 0., 50.));
#22 = ORIENTED_EDGE('', *, *, #23, .T.);
#23 = EDGE_CURVE('', #17, #24, #26, .T.);
#24 = VERTEX_POINT('', #25);
#25 = CARTESIAN_POINT('', (40., 40., 50.));
#26 = B_SPLINE_CURVE_WITH_KNOTS('', 1, (#27, #28), .UNSPECIFIED., .F., .U., (2, 2), (0., 1.), .UNSPECIFIED.);
#27 = CARTESIAN_POINT('', (40., 0., 50.));
#28 = CARTESIAN_POINT('', (40., 40., 50.));
#29 = ORIENTED_EDGE('', *, *, #30, .T.);
#30 = EDGE_CURVE('', #24, #8, #31, .T.);
#31 = B_SPLINE_CURVE_WITH_KNOTS('', 1, (#32, #33), .UNSPECIFIED., .F., .U., (2, 2), (0., 1.), .UNSPECIFIED.);
#32 = CARTESIAN_POINT('', (40., 40., 50.));
#33 = CARTESIAN_POINT('', (0., 40., 50.));
#34 = B_SPLINE_SURFACE_WITH_KNOTS('', 1, 1, ((#35, #36), (#37, #38)), .UNSPECIFIED., .F., .F., .U., (2, 2), (2, 2), (0., 1.), (0., 1.), .UNSPECIFIED.);
#35 = CARTESIAN_POINT('', (51.1126983722081, -11.1126983722081, 50.));
#36 = CARTESIAN_POINT('', (-11.1126983722081, -11.1126983722081, 50.));
#37 = CARTESIAN_POINT('', (51.1126983722081, 51.1126983722081, 50.));
#38 = CARTESIAN_POINT('', (-11.1126983722081, 51.1126983722081, 50.));
#39 = ADVANCED_FACE('', (#40), #70, .T.);
#40 = FACE_OUTER_BOUND('', #41, .T.);
#41 = EDGE_LOOP('', (#42, #51, #58, #65));
#42 = ORIENTED_EDGE('', *, *, #43, .F.);
#43 = EDGE_CURVE('', #44, #46, #48, .T.);
#44 = VERTEX_POINT('', #45);
#45 = CARTESIAN_POINT('', (0., 40., 0.));
#46 = VERTEX_POINT('', #47);
#47 = CARTESIAN_POINT('', (0., 0., 0.));
#48 = B_SPLINE_CURVE_WITH_KNOTS('', 1, (#49, #50), .UNSPECIFIED., .F., .U., (2, 2), (0., 1.), .UNSPECIFIED.);
#49 = CARTESIAN_POINT('', (0., 40., 0.));
#50 = CARTESIAN_POINT('', (0., 0., 0.));
#51 = ORIENTED_EDGE('', *, *, #52, .F.);
#52 = EDGE_CURVE('', #53, #44, #55, .T.);
#53 = VERTEX_POINT('', #54);
#54 = CARTESIAN_POINT('', (40., 40., 0.));
#55 = B_SPLINE_CURVE_WITH_KNOTS('', 1, (#56, #57), .UNSPECIFIED., .F., .U., (2, 2), (0., 1.), .UNSPECIFIED.);
#56 = CARTESIAN_POINT('', (40., 40., 0.));
#57 = CARTESIAN_POINT('', (0., 40., 0.));
#58 = ORIENTED_EDGE('', *, *, #59, .F.);
#59 = EDGE_CURVE('', #60, #53, #62, .T.);
#60 = VERTEX_POINT('', #61);
#61 = CARTESIAN_POINT('', (40., 0., 0.));
#62 = B_SPLINE_CURVE_WITH_KNOTS('', 1, (#63, #64), .UNSPECIFIED., .F., .U., (2, 2), (0., 1.), .UNSPECIFIED.);
#63 = CARTESIAN_POINT('', (40., 0., 0.));
#64 = CARTESIAN_POINT('', (40., 40., 0.));
#65 = ORIENTED_EDGE('', *, *, #66, .F.);
#66 = EDGE_CURVE('', #46, #60, #67, .T.);
#67 = B_SPLINE_CURVE_WITH_KNOTS('', 1, (#68, #69), .UNSPECIFIED., .F., .U., (2, 2), (0., 1.), .UNSPECIFIED.);
#68 = CARTESIAN_POINT('', (0., 0., 0.));
#69 = CARTESIAN_POINT('', (40., 0., 0.));
#70 = B_SPLINE_SURFACE_WITH_KNOTS('', 1, 1, ((#71, #72), (#73, #74)), .UNSPECIFIED., .F., .F., .U., (2, 2), (2, 2), (0., 1.), (0., 1.), .UNSPECIFIED.);
#71 = CARTESIAN_POINT('', (51.1126983722081, -11.1126983722081, 0.));
#72 = CARTESIAN_POINT('', (51.1126983722081, 51.1126983722081, 0.));
#73 = CARTESIAN_POINT('', (-11.1126983722081, -11.1126983722081, 0.));
#74 = CARTESIAN_POINT('', (-11.1126983722081, 51.1126983722081, 0.));
#75 = ADVANCED_FACE('', (#76), #90, .T.);
#76 = FACE_OUTER_BOUND('', #77, .T.);
#77 = EDGE_LOOP('', (#78, #83, #84, #89));
#78 = ORIENTED_EDGE('', *, *, #79, .F.);
#79 = EDGE_CURVE('', #44, #8, #80, .T.);
#80 = B_SPLINE_CURVE_WITH_KNOTS('', 1, (#81, #82), .UNSPECIFIED., .F., .U., (2, 2), (0., 1.), .UNSPECIFIED.);
#81 = CARTESIAN_POINT('', (0., 40., 0.));
#82 = CARTESIAN_POINT('', (0., 40., 50.));
#83 = ORIENTED_EDGE('', *, *, #43, .T.);
#84 = ORIENTED_EDGE('', *, *, #85, .T.);
#85 = EDGE_CURVE('', #46, #10, #86, .T.);
#86 = B_SPLINE_CURVE_WITH_KNOTS('', 1, (#87, #88), .UNSPECIFIED., .F., .U., (2, 2), (0., 1.), .UNSPECIFIED.);
#87 = CARTESIAN_POINT('', (0., 0., 0.));
#88 = CARTESIAN_POINT('', (0., 0., 50.));
#89 = ORIENTED_EDGE('', *, *, #7, .F.);
#90 = B_SPLINE_SURFACE_WITH_KNOTS('', 1, 1, ((#91, #92), (#93, #94)), .UNSPECIFIED., .F., .F., .U., (2, 2), (2, 2), (0., 1.), (0., 1.), .UNSPECIFIED.);
#91 = CARTESIAN_POINT('', (0., 40., 0.));
#92 = CARTESIAN_POINT('', (0., 40., 50.));
#93 = CARTESIAN_POINT('', (0., 0., 0.));
#94 = CARTESIAN_POINT('', (0., 0., 50.));
#95 = ADVANCED_FACE('', (#96), #106, .T.);
#96 = FACE_OUTER_BOUND('', #97, .T.);
#97 = EDGE_LOOP('', (#98, #99, #100, #105));
#98 = ORIENTED_EDGE('', *, *, #85, .F.);
#99 = ORIENTED_EDGE('', *, *, #66, .T.);
#100 = ORIENTED_EDGE('', *, *, #101, .T.);
#101 = EDGE_CURVE('', #60, #17, #102, .T.);
#102 = B_SPLINE_CURVE_WITH_KNOTS('', 1, (#103, #104), .UNSPECIFIED., .F., .U., (2, 2), (0., 1.), .UNSPECIFIED.);
#103 = CARTESIAN_POINT('', (40., 0., 0.));
#104 = CARTESIAN_POINT('', (40., 0., 50.));
#105 = ORIENTED_EDGE('', *, *, #16, .F.);
#106 = B_SPLINE_SURFACE_WITH_KNOTS('', 1, 1, ((#107, #108), (#109, #110)), .UNSPECIFIED., .F., .F., .U., (2, 2), (2, 2), (0., 1.), (0., 1.), .UNSPECIFIED.);
#107 = CARTESIAN_POINT('', (0., 0., 0.));
#108 = CARTESIAN_POINT('', (0., 0., 50.));
#109 = CARTESIAN_POINT('', (40., 0., 0.));
#110 = CARTESIAN_POINT('', (40., 0., 50.));
#111 = ADVANCED_FACE('', (#112), #122, .T.);
#112 = FACE_OUTER_BOUND('', #113, .T.);
#113 = EDGE_LOOP('', (#114, #119, #120, #121));
#114 = ORIENTED_EDGE('', *, *, #115, .F.);
#115 = EDGE_CURVE('', #53, #24, #116, .T.);
#116 = B_SPLINE_CURVE_WITH_KNOTS('', 1, (#117, #118), .UNSPECIFIED., .F., .U., (2, 2), (0., 1.), .UNSPECIFIED.);
#117 = CARTESIAN_POINT('', (40., 40., 0.));
#118 = CARTESIAN_POINT('', (40., 40., 50.));
#119 = ORIENTED_EDGE('', *, *, #52, .T.);
#120 = ORIENTED_EDGE('', *, *, #79, .T.);
#121 = ORIENTED_EDGE('', *, *, #30, .F.);
#122 = B_SPLINE_SURFACE_WITH_KNOTS('', 1, 1, ((#123, #124), (#125, #126)), .UNSPECIFIED., .F., .F., .U., (2, 2), (2, 2), (0., 1.), (0., 1.), .UNSPECIFIED.);
#123 = CARTESIAN_POINT('', (40., 40., 0.));
#124 = CARTESIAN_POINT('', (40., 40., 50.));
#125 = CARTESIAN_POINT('', (0., 40., 0.));
#126 = CARTESIAN_POINT('', (0., 40., 50.));
#127 = ADVANCED_FACE('', (#128), #134, .T.);
#128 = FACE_OUTER_BOUND('', #129, .T.);
#129 = EDGE_LOOP('', (#130, #131, #132, #133));
#130 = ORIENTED_EDGE('', *, *, #101, .F.);
#131 = ORIENTED_EDGE('', *, *, #59, .T.);
#132 = ORIENTED_EDGE('', *, *, #115, .T.);
#133 = ORIENTED_EDGE('', *, *, #23, .F.);
#134 = B_SPLINE_SURFACE_WITH_KNOTS('', 1, 1, ((#135, #136), (#137, #138)), .UNSPECIFIED., .F., .F., .U., (2, 2), (2, 2), (0., 1.), (0., 1.), .UNSPECIFIED.);
#135 = CARTESIAN_POINT('', (40., 0., 0.));
#136 = CARTESIAN_POINT('', (40., 0., 50.));
#137 = CARTESIAN_POINT('', (40., 40., 0.));
#138 = CARTESIAN_POINT('', (40., 40., 50.));
#139 = DRAUGHTING_MODEL('', (#147, #293, #439, #585), #588);
#140 = PRESENTATION_STYLE_ASSIGNMENT((#141));
#141 = SURFACE_STYLE_USAGE(.POSITIVE., #142);
#142 = SURFACE_SIDE_STYLE('', (#143));
#143 = SURFACE_STYLE_FILL_AREA(#144);
#144 = FILL_AREA_STYLE('', (#145));
#145 = FILL_AREA_STYLE_COLOUR('', #146);
#146 = COLOUR_RGB('', 0.50196078431373, 0.50196078431373, 0.50196078431373);
#147 = STYLED_ITEM('', (#140), #1);
#148 = MANIFOLD_SOLID_BREP('DownWithDir_0', #149);
#149 = CLOSED_SHELL('', (#150, #186, #214, #236, #258, #274));
#150 = ADVANCED_FACE('', (#151), #181, .T.);
#151 = FACE_OUTER_BOUND('', #152, .T.);
#152 = EDGE_LOOP('', (#153, #162, #169, #176));
#153 = ORIENTED_EDGE('', *, *, #154, .F.);
#154 = EDGE_CURVE('', #155, #157, #159, .T.);
#155 = VERTEX_POINT('', #156);
#156 = CARTESIAN_POINT('', (60., 40., -50.));
#157 = VERTEX_POINT('', #158);
#158 = CARTESIAN_POINT('', (60., 0., -50.));
#159 = B_SPLINE_CURVE_WITH_KNOTS('', 1, (#160, #161), .UNSPECIFIED., .F., .U., (2, 2), (0., 1.), .UNSPECIFIED.);
#160 = CARTESIAN_POINT('', (60., 40., -50.));
#161 = CARTESIAN_POINT('', (60., 0., -50.));
#162 = ORIENTED_EDGE('', *, *, #163, .F.);
#163 = EDGE_CURVE('', #164, #155, #166, .T.);
#164 = VERTEX_POINT('', #165);
#165 = CARTESIAN_POINT('', (100., 40., -50.));
#166 = B_SPLINE_CURVE_WITH_KNOTS('', 1, (#167, #168), .UNSPECIFIED., .F., .U., (2, 2), (0., 1.), .UNSPECIFIED.);
#167 = CARTESIAN_POINT('', (100., 40., -50.));
#168 = CARTESIAN_POINT('', (60., 40., -50.));
#169 = ORIENTED_EDGE('', *, *, #170, .F.);
#170 = EDGE_CURVE('', #171, #164, #173, .T.);
#171 = VERTEX_POINT('', #172);
#172 = CARTESIAN_POINT('', (100., 0., -50.));
#173 = B_SPLINE_CURVE_WITH_KNOTS('', 1, (#174, #175), .UNSPECIFIED., .F., .U., (2, 2), (0., 1.), .UNSPECIFIED.);
#174 = CARTESIAN_POINT('', (100., 0., -50.));
#175 = CARTESIAN_POINT('', (100., 40., -50.));
#176 = ORIENTED_EDGE('', *, *, #177, .F.);
#177 = EDGE_CURVE('', #157, #171, #178, .T.);
#178 = B_SPLINE_CURVE_WITH_KNOTS('', 1, (#179, #180), .UNSPECIFIED., .F., .U., (2, 2), (0., 1.), .UNSPECIFIED.);
#179 = CARTESIAN_POINT('', (60., 0., -50.));
#180 = CARTESIAN_POINT('', (100., 0., -50.));
#181 = B_SPLINE_SURFACE_WITH_KNOTS('', 1, 1, ((#182, #183), (#184, #185)), .UNSPECIFIED., .F., .F., .U., (2, 2), (2, 2), (0., 1.), (0., 1.), .UNSPECIFIED.);
#182 = CARTESIAN_POINT('', (111.112698372208, -11.1126983722081, -50.));
#183 = CARTESIAN_POINT('', (111.112698372208, 51.1126983722081, -50.));
#184 = CARTESIAN_POINT('', (48.8873016277919, -11.1126983722081, -50.));
#185 = CARTESIAN_POINT('', (48.8873016277919, 51.1126983722081, -50.));
#186 = ADVANCED_FACE('', (#187), #209, .T.);
#187 = FACE_OUTER_BOUND('', #188, .T.);
#188 = EDGE_LOOP('', (#189, #196, #197, #204));
#189 = ORIENTED_EDGE('', *, *, #190, .T.);
#190 = EDGE_CURVE('', #191, #164, #193, .T.);
#191 = VERTEX_POINT('', #192);
#192 = CARTESIAN_POINT('', (100., 40., 0.));
#193 = B_SPLINE_CURVE_WITH_KNOTS('', 1, (#194, #195), .UNSPECIFIED., .F., .U., (2, 2), (0., 1.), .UNSPECIFIED.);
#194 = CARTESIAN_POINT('', (100., 40., 0.));
#195 = CARTESIAN_POINT('', (100., 40., -50.));
#196 = ORIENTED_EDGE('', *, *, #163, .T.);
#197 = ORIENTED_EDGE('', *, *, #198, .F.);
#198 = EDGE_CURVE('', #199, #155, #201, .T.);
#199 = VERTEX_POINT('', #200);
#200 = CARTESIAN_POINT('', (60., 40., 0.));
#201 = B_SPLINE_CURVE_WITH_KNOTS('', 1, (#202, #203), .UNSPECIFIED., .F., .U., (2, 2), (0., 1.), .UNSPECIFIED.);
#202 = CARTESIAN_POINT('', (60., 40., 0.));
#203 = CARTESIAN_POINT('', (60., 40., -50.));
#204 = ORIENTED_EDGE('', *, *, #205, .F.);
#205 = EDGE_CURVE('', #191, #199, #206, .T.);
#206 = B_SPLINE_CURVE_WITH_KNOTS('', 1, (#207, #208), .UNSPECIFIED., .F., .U., (2, 2), (0., 1.), .UNSPECIFIED.);
#207 = CARTESIAN_POINT('', (100., 40., 0.));
#208 = CARTESIAN_POINT('', (60., 40., 0.));
#209 = B_SPLINE_SURFACE_WITH_KNOTS('', 1, 1, ((#210, #211), (#212, #213)), .UNSPECIFIED., .F., .F., .U., (2, 2), (2, 2), (0., 1.), (0., 1.), .UNSPECIFIED.);
#210 = CARTESIAN_POINT('', (100., 40., 0.));
#211 = CARTESIAN_POINT('', (60., 40., 0.));
#212 = CARTESIAN_POINT('', (100., 40., -50.));
#213 = CARTESIAN_POINT('', (60., 40., -50.));
#214 = ADVANCED_FACE('', (#215), #231, .T.);
#215 = FACE_OUTER_BOUND('', #216, .T.);
#216 = EDGE_LOOP('', (#217, #218, #219, #226));
#217 = ORIENTED_EDGE('', *, *, #198, .T.);
#218 = ORIENTED_EDGE('', *, *, #154, .T.);
#219 = ORIENTED_EDGE('', *, *, #220, .F.);
#220 = EDGE_CURVE('', #221, #157, #223, .T.);
#221 = VERTEX_POINT('', #222);
#222 = CARTESIAN_POINT('', (60., 0., 0.));
#223 = B_SPLINE_CURVE_WITH_KNOTS('', 1, (#224, #225), .UNSPECIFIED., .F., .U., (2, 2), (0., 1.), .UNSPECIFIED.);
#224 = CARTESIAN_POINT('', (60., 0., 0.));
#225 = CARTESIAN_POINT('', (60., 0., -50.));
#226 = ORIENTED_EDGE('', *, *, #227, .F.);
#227 = EDGE_CURVE('', #199, #221, #228, .T.);
#228 = B_SPLINE_CURVE_WITH_KNOTS('', 1, (#229, #230), .UNSPECIFIED., .F., .U., (2, 2), (0., 1.), .UNSPECIFIED.);
#229 = CARTESIAN_POINT('', (60., 40., 0.));
#230 = CARTESIAN_POINT('', (60., 0., 0.));
#231 = B_SPLINE_SURFACE_WITH_KNOTS('', 1, 1, ((#232, #233), (#234, #235)), .UNSPECIFIED., .F., .F., .U., (2, 2), (2, 2), (0., 1.), (0., 1.), .UNSPECIFIED.);
#232 = CARTESIAN_POINT('', (60., 40., 0.));
#233 = CARTESIAN_POINT('', (60., 0., 0.));
#234 = CARTESIAN_POINT('', (60., 40., -50.));
#235 = CARTESIAN_POINT('', (60., 0., -50.));
#236 = ADVANCED_FACE('', (#237), #253, .T.);
#237 = FACE_OUTER_BOUND('', #238, .T.);
#238 = EDGE_LOOP('', (#239, #240, #241, #248));
#239 = ORIENTED_EDGE('', *, *, #220, .T.);
#240 = ORIENTED_EDGE('', *, *, #177, .T.);
#241 = ORIENTED_EDGE('', *, *, #242, .F.);
#242 = EDGE_CURVE('', #243, #171, #245, .T.);
#243 = VERTEX_POINT('', #244);
#244 = CARTESIAN_POINT('', (100., 0., 0.));
#245 = B_SPLINE_CURVE_WITH_KNOTS('', 1, (#246, #247), .UNSPECIFIED., .F., .U., (2, 2), (0., 1.), .UNSPECIFIED.);
#246 = CARTESIAN_POINT('', (100., 0., 0.));
#247 = CARTESIAN_POINT('', (100., 0., -50.));
#248 = ORIENTED_EDGE('', *, *, #249, .F.);
#249 = EDGE_CURVE('', #221, #243, #250, .T.);
#250 = B_SPLINE_CURVE_WITH_KNOTS('', 1, (#251, #252), .UNSPECIFIED., .F., .U., (2, 2), (0., 1.), .UNSPECIFIED.);
#251 = CARTESIAN_POINT('', (60., 0., 0.));
#252 = CARTESIAN_POINT('', (100., 0., 0.));
#253 = B_SPLINE_SURFACE_WITH_KNOTS('', 1, 1, ((#254, #255), (#256, #257)), .UNSPECIFIED., .F., .F., .U., (2, 2), (2, 2), (0., 1.), (0., 1.), .UNSPECIFIED.);
#254 = CARTESIAN_POINT('', (60., 0., 0.));
#255 = CARTESIAN_POINT('', (100., 0., 0.));
#256 = CARTESIAN_POINT('', (60., 0., -50.));
#257 = CARTESIAN_POINT('', (100., 0., -50.));
#258 = ADVANCED_FACE('', (#259), #269, .T.);
#259 = FACE_OUTER_BOUND('', #260, .T.);
#260 = EDGE_LOOP('', (#261, #262, #263, #264));
#261 = ORIENTED_EDGE('', *, *, #242, .T.);
#262 = ORIENTED_EDGE('', *, *, #170, .T.);
#263 = ORIENTED_EDGE('', *, *, #190, .F.);
#264 = ORIENTED_EDGE('', *, *, #265, .F.);
#265 = EDGE_CURVE('', #243, #191, #266, .T.);
#266 = B_SPLINE_CURVE_WITH_KNOTS('', 1, (#267, #268), .UNSPECIFIED., .F., .U., (2, 2), (0., 1.), .UNSPECIFIED.);
#267 = CARTESIAN_POINT('', (100., 0., 0.));
#268 = CARTESIAN_POINT('', (100., 40., 0.));
#269 = B_SPLINE_SURFACE_WITH_KNOTS('', 1, 1, ((#270, #271), (#272, #273)), .UNSPECIFIED., .F., .F., .U., (2, 2), (2, 2), (0., 1.), (0., 1.), .UNSPECIFIED.);
#270 = CARTESIAN_POINT('', (100., 0., 0.));
#271 = CARTESIAN_POINT('', (100., 40., 0.));
#272 = CARTESIAN_POINT('', (100., 0., -50.));
#273 = CARTESIAN_POINT('', (100., 40., -50.));
#274 = ADVANCED_FACE('', (#275), #281, .T.);
#275 = FACE_OUTER_BOUND('', #276, .T.);
#276 = EDGE_LOOP('', (#277, #278, #279, #280));
#277 = ORIENTED_EDGE('', *, *, #227, .T.);
#278 = ORIENTED_EDGE('', *, *, #249, .T.);
#279 = ORIENTED_EDGE('', *, *, #265, .T.);
#280 = ORIENTED_EDGE('', *, *, #205, .T.);
#281 = B_SPLINE_SURFACE_WITH_KNOTS('', 1, 1, ((#282, #283), (#284, #285)), .UNSPECIFIED., .F., .F., .U., (2, 2), (2, 2), (0., 1.), (0., 1.), .UNSPECIFIED.);
#282 = CARTESIAN_POINT('', (111.112698372208, -11.1126983722081, 0.));
#283 = CARTESIAN_POINT('', (48.8873016277919, -11.1126983722081, 0.));
#284 = CARTESIAN_POINT('', (111.112698372208, 51.1126983722081, 0.));
#285 = CARTESIAN_POINT('', (48.8873016277919, 51.1126983722081, 0.));
#286 = PRESENTATION_STYLE_ASSIGNMENT((#287));
#287 = SURFACE_STYLE_USAGE(.POSITIVE., #288);
#288 = SURFACE_SIDE_STYLE('', (#289));
#289 = SURFACE_STYLE_FILL_AREA(#290);
#290 = FILL_AREA_STYLE('', (#291));
#291 = FILL_AREA_STYLE_COLOUR('', #292);
#292 = COLOUR_RGB('', 0.50196078431373, 0.50196078431373, 0.50196078431373);
#293 = STYLED_ITEM('', (#286), #148);
#294 = MANIFOLD_SOLID_BREP('UpNeg_0', #295);
#295 = CLOSED_SHELL('', (#296, #332, #360, #382, #404, #420));
#296 = ADVANCED_FACE('', (#297), #327, .T.);
#297 = FACE_OUTER_BOUND('', #298, .T.);
#298 = EDGE_LOOP('', (#299, #308, #315, #322));
#299 = ORIENTED_EDGE('', *, *, #300, .F.);
#300 = EDGE_CURVE('', #301, #303, #305, .T.);
#301 = VERTEX_POINT('', #302);
#302 = CARTESIAN_POINT('', (120., 40., -30.));
#303 = VERTEX_POINT('', #304);
#304 = CARTESIAN_POINT('', (120., 0., -30.));
#305 = B_SPLINE_CURVE_WITH_KNOTS('', 1, (#306, #307), .UNSPECIFIED., .F., .U., (2, 2), (0., 1.), .UNSPECIFIED.);
#306 = CARTESIAN_POINT('', (120., 40., -30.));
#307 = CARTESIAN_POINT('', (120., 0., -30.));
#308 = ORIENTED_EDGE('', *, *, #309, .F.);
#309 = EDGE_CURVE('', #310, #301, #312, .T.);
#310 = VERTEX_POINT('', #311);
#311 = CARTESIAN_POINT('', (160., 40., -30.));
#312 = B_SPLINE_CURVE_WITH_KNOTS('', 1, (#313, #314), .UNSPECIFIED., .F., .U., (2, 2), (0., 1.), .UNSPECIFIED.);
#313 = CARTESIAN_POINT('', (160., 40., -30.));
#314 = CARTESIAN_POINT('', (120., 40., -30.));
#315 = ORIENTED_EDGE('', *, *, #316, .F.);
#316 = EDGE_CURVE('', #317, #310, #319, .T.);
#317 = VERTEX_POINT('', #318);
#318 = CARTESIAN_POINT('', (160., 0., -30.));
#319 = B_SPLINE_CURVE_WITH_KNOTS('', 1, (#320, #321), .UNSPECIFIED., .F., .U., (2, 2), (0., 1.), .UNSPECIFIED.);
#320 = CARTESIAN_POINT('', (160., 0., -30.));
#321 = CARTESIAN_POINT('', (160., 40., -30.));
#322 = ORIENTED_EDGE('', *, *, #323, .F.);
#323 = EDGE_CURVE('', #303, #317, #324, .T.);
#324 = B_SPLINE_CURVE_WITH_KNOTS('', 1, (#325, #326), .UNSPECIFIED., .F., .U., (2, 2), (0., 1.), .UNSPECIFIED.);
#325 = CARTESIAN_POINT('', (120., 0., -30.));
#326 = CARTESIAN_POINT('', (160., 0., -30.));
#327 = B_SPLINE_SURFACE_WITH_KNOTS('', 1, 1, ((#328, #329), (#330, #331)), .UNSPECIFIED., .F., .F., .U., (2, 2), (2, 2), (0., 1.), (0., 1.), .UNSPECIFIED.);
#328 = CARTESIAN_POINT('', (171.112698372208, -11.1126983722081, -30.));
#329 = CARTESIAN_POINT('', (171.112698372208, 51.1126983722081, -30.));
#330 = CARTESIAN_POINT('', (108.887301627792, -11.1126983722081, -30.));
#331 = CARTESIAN_POINT('', (108.887301627792, 51.1126983722081, -30.));
#332 = ADVANCED_FACE('', (#333), #355, .T.);
#333 = FACE_OUTER_BOUND('', #334, .T.);
#334 = EDGE_LOOP('', (#335, #342, #343, #350));
#335 = ORIENTED_EDGE('', *, *, #336, .T.);
#336 = EDGE_CURVE('', #337, #310, #339, .T.);
#337 = VERTEX_POINT('', #338);
#338 = CARTESIAN_POINT('', (160., 40., 0.));
#339 = B_SPLINE_CURVE_WITH_KNOTS('', 1, (#340, #341), .UNSPECIFIED., .F., .U., (2, 2), (0., 1.), .UNSPECIFIED.);
#340 = CARTESIAN_POINT('', (160., 40., 0.));
#341 = CARTESIAN_POINT('', (160., 40., -30.));
#342 = ORIENTED_EDGE('', *, *, #309, .T.);
#343 = ORIENTED_EDGE('', *, *, #344, .F.);
#344 = EDGE_CURVE('', #345, #301, #347, .T.);
#345 = VERTEX_POINT('', #346);
#346 = CARTESIAN_POINT('', (120., 40., 0.));
#347 = B_SPLINE_CURVE_WITH_KNOTS('', 1, (#348, #349), .UNSPECIFIED., .F., .U., (2, 2), (0., 1.), .UNSPECIFIED.);
#348 = CARTESIAN_POINT('', (120., 40., 0.));
#349 = CARTESIAN_POINT('', (120., 40., -30.));
#350 = ORIENTED_EDGE('', *, *, #351, .F.);
#351 = EDGE_CURVE('', #337, #345, #352, .T.);
#352 = B_SPLINE_CURVE_WITH_KNOTS('', 1, (#353, #354), .UNSPECIFIED., .F., .U., (2, 2), (0., 1.), .UNSPECIFIED.);
#353 = CARTESIAN_POINT('', (160., 40., 0.));
#354 = CARTESIAN_POINT('', (120., 40., 0.));
#355 = B_SPLINE_SURFACE_WITH_KNOTS('', 1, 1, ((#356, #357), (#358, #359)), .UNSPECIFIED., .F., .F., .U., (2, 2), (2, 2), (0., 1.), (0., 1.), .UNSPECIFIED.);
#356 = CARTESIAN_POINT('', (160., 40., 0.));
#357 = CARTESIAN_POINT('', (120., 40., 0.));
#358 = CARTESIAN_POINT('', (160., 40., -30.));
#359 = CARTESIAN_POINT('', (120., 40., -30.));
#360 = ADVANCED_FACE('', (#361), #377, .T.);
#361 = FACE_OUTER_BOUND('', #362, .T.);
#362 = EDGE_LOOP('', (#363, #364, #365, #372));
#363 = ORIENTED_EDGE('', *, *, #344, .T.);
#364 = ORIENTED_EDGE('', *, *, #300, .T.);
#365 = ORIENTED_EDGE('', *, *, #366, .F.);
#366 = EDGE_CURVE('', #367, #303, #369, .T.);
#367 = VERTEX_POINT('', #368);
#368 = CARTESIAN_POINT('', (120., 0., 0.));
#369 = B_SPLINE_CURVE_WITH_KNOTS('', 1, (#370, #371), .UNSPECIFIED., .F., .U., (2, 2), (0., 1.), .UNSPECIFIED.);
#370 = CARTESIAN_POINT('', (120., 0., 0.));
#371 = CARTESIAN_POINT('', (120., 0., -30.));
#372 = ORIENTED_EDGE('', *, *, #373, .F.);
#373 = EDGE_CURVE('', #345, #367, #374, .T.);
#374 = B_SPLINE_CURVE_WITH_KNOTS('', 1, (#375, #376), .UNSPECIFIED., .F., .U., (2, 2), (0., 1.), .UNSPECIFIED.);
#375 = CARTESIAN_POINT('', (120., 40., 0.));
#376 = CARTESIAN_POINT('', (120., 0., 0.));
#377 = B_SPLINE_SURFACE_WITH_KNOTS('', 1, 1, ((#378, #379), (#380, #381)), .UNSPECIFIED., .F., .F., .U., (2, 2), (2, 2), (0., 1.), (0., 1.), .UNSPECIFIED.);
#378 = CARTESIAN_POINT('', (120., 40., 0.));
#379 = CARTESIAN_POINT('', (120., 0., 0.));
#380 = CARTESIAN_POINT('', (120., 40., -30.));
#381 = CARTESIAN_POINT('', (120., 0., -30.));
#382 = ADVANCED_FACE('', (#383), #399, .T.);
#383 = FACE_OUTER_BOUND('', #384, .T.);
#384 = EDGE_LOOP('', (#385, #386, #387, #394));
#385 = ORIENTED_EDGE('', *, *, #366, .T.);
#386 = ORIENTED_EDGE('', *, *, #323, .T.);
#387 = ORIENTED_EDGE('', *, *, #388, .F.);
#388 = EDGE_CURVE('', #389, #317, #391, .T.);
#389 = VERTEX_POINT('', #390);
#390 = CARTESIAN_POINT('', (160., 0., 0.));
#391 = B_SPLINE_CURVE_WITH_KNOTS('', 1, (#392, #393), .UNSPECIFIED., .F., .U., (2, 2), (0., 1.), .UNSPECIFIED.);
#392 = CARTESIAN_POINT('', (160., 0., 0.));
#393 = CARTESIAN_POINT('', (160., 0., -30.));
#394 = ORIENTED_EDGE('', *, *, #395, .F.);
#395 = EDGE_CURVE('', #367, #389, #396, .T.);
#396 = B_SPLINE_CURVE_WITH_KNOTS('', 1, (#397, #398), .UNSPECIFIED., .F., .U., (2, 2), (0., 1.), .UNSPECIFIED.);
#397 = CARTESIAN_POINT('', (120., 0., 0.));
#398 = CARTESIAN_POINT('', (160., 0., 0.));
#399 = B_SPLINE_SURFACE_WITH_KNOTS('', 1, 1, ((#400, #401), (#402, #403)), .UNSPECIFIED., .F., .F., .U., (2, 2), (2, 2), (0., 1.), (0., 1.), .UNSPECIFIED.);
#400 = CARTESIAN_POINT('', (120., 0., 0.));
#401 = CARTESIAN_POINT('', (160., 0., 0.));
#402 = CARTESIAN_POINT('', (120., 0., -30.));
#403 = CARTESIAN_POINT('', (160., 0., -30.));
#404 = ADVANCED_FACE('', (#405), #415, .T.);
#405 = FACE_OUTER_BOUND('', #406, .T.);
#406 = EDGE_LOOP('', (#407, #408, #409, #410));
#407 = ORIENTED_EDGE('', *, *, #388, .T.);
#408 = ORIENTED_EDGE('', *, *, #316, .T.);
#409 = ORIENTED_EDGE('', *, *, #336, .F.);
#410 = ORIENTED_EDGE('', *, *, #411, .F.);
#411 = EDGE_CURVE('', #389, #337, #412, .T.);
#412 = B_SPLINE_CURVE_WITH_KNOTS('', 1, (#413, #414), .UNSPECIFIED., .F., .U., (2, 2), (0., 1.), .UNSPECIFIED.);
#413 = CARTESIAN_POINT('', (160., 0., 0.));
#414 = CARTESIAN_POINT('', (160., 40., 0.));
#415 = B_SPLINE_SURFACE_WITH_KNOTS('', 1, 1, ((#416, #417), (#418, #419)), .UNSPECIFIED., .F., .F., .U., (2, 2), (2, 2), (0., 1.), (0., 1.), .UNSPECIFIED.);
#416 = CARTESIAN_POINT('', (160., 0., 0.));
#417 = CARTESIAN_POINT('', (160., 40., 0.));
#418 = CARTESIAN_POINT('', (160., 0., -30.));
#419 = CARTESIAN_POINT('', (160., 40., -30.));
#420 = ADVANCED_FACE('', (#421), #427, .T.);
#421 = FACE_OUTER_BOUND('', #422, .T.);
#422 = EDGE_LOOP('', (#423, #424, #425, #426));
#423 = ORIENTED_EDGE('', *, *, #373, .T.);
#424 = ORIENTED_EDGE('', *, *, #395, .T.);
#425 = ORIENTED_EDGE('', *, *, #411, .T.);
#426 = ORIENTED_EDGE('', *, *, #351, .T.);
#427 = B_SPLINE_SURFACE_WITH_KNOTS('', 1, 1, ((#428, #429), (#430, #431)), .UNSPECIFIED., .F., .F., .U., (2, 2), (2, 2), (0., 1.), (0., 1.), .UNSPECIFIED.);
#428 = CARTESIAN_POINT('', (171.112698372208, -11.1126983722081, 0.));
#429 = CARTESIAN_POINT('', (108.887301627792, -11.1126983722081, 0.));
#430 = CARTESIAN_POINT('', (171.112698372208, 51.1126983722081, 0.));
#431 = CARTESIAN_POINT('', (108.887301627792, 51.1126983722081, 0.));
#432 = PRESENTATION_STYLE_ASSIGNMENT((#433));
#433 = SURFACE_STYLE_USAGE(.POSITIVE., #434);
#434 = SURFACE_SIDE_STYLE('', (#435));
#435 = SURFACE_STYLE_FILL_AREA(#436);
#436 = FILL_AREA_STYLE('', (#437));
#437 = FILL_AREA_STYLE_COLOUR('', #438);
#438 = COLOUR_RGB('', 0.50196078431373, 0.50196078431373, 0.50196078431373);
#439 = STYLED_ITEM('', (#432), #294);
#440 = MANIFOLD_SOLID_BREP('DownNeg_0', #441);
#441 = CLOSED_SHELL('', (#442, #478, #514, #534, #550, #566));
#442 = ADVANCED_FACE('', (#443), #473, .T.);
#443 = FACE_OUTER_BOUND('', #444, .T.);
#444 = EDGE_LOOP('', (#445, #454, #461, #468));
#445 = ORIENTED_EDGE('', *, *, #446, .T.);
#446 = EDGE_CURVE('', #447, #449, #451, .T.);
#447 = VERTEX_POINT('', #448);
#448 = CARTESIAN_POINT('', (180., 40., 30.));
#449 = VERTEX_POINT('', #450);
#450 = CARTESIAN_POINT('', (180., 0., 30.));
#451 = B_SPLINE_CURVE_WITH_KNOTS('', 1, (#452, #453), .UNSPECIFIED., .F., .U., (2, 2), (0., 1.), .UNSPECIFIED.);
#452 = CARTESIAN_POINT('', (180., 40., 30.));
#453 = CARTESIAN_POINT('', (180., 0., 30.));
#454 = ORIENTED_EDGE('', *, *, #455, .T.);
#455 = EDGE_CURVE('', #449, #456, #458, .T.);
#456 = VERTEX_POINT('', #457);
#457 = CARTESIAN_POINT('', (220., 0., 30.));
#458 = B_SPLINE_CURVE_WITH_KNOTS('', 1, (#459, #460), .UNSPECIFIED., .F., .U., (2, 2), (0., 1.), .UNSPECIFIED.);
#459 = CARTESIAN_POINT('', (180., 0., 30.));
#460 = CARTESIAN_POINT('', (220., 0., 30.));
#461 = ORIENTED_EDGE('', *, *, #462, .T.);
#462 = EDGE_CURVE('', #456, #463, #465, .T.);
#463 = VERTEX_POINT('', #464);
#464 = CARTESIAN_POINT('', (220., 40., 30.));
#465 = B_SPLINE_CURVE_WITH_KNOTS('', 1, (#466, #467), .UNSPECIFIED., .F., .U., (2, 2), (0., 1.), .UNSPECIFIED.);
#466 = CARTESIAN_POINT('', (220., 0., 30.));
#467 = CARTESIAN_POINT('', (220., 40., 30.));
#468 = ORIENTED_EDGE('', *, *, #469, .T.);
#469 = EDGE_CURVE('', #463, #447, #470, .T.);
#470 = B_SPLINE_CURVE_WITH_KNOTS('', 1, (#471, #472), .UNSPECIFIED., .F., .U., (2, 2), (0., 1.), .UNSPECIFIED.);
#471 = CARTESIAN_POINT('', (220., 40., 30.));
#472 = CARTESIAN_POINT('', (180., 40., 30.));
#473 = B_SPLINE_SURFACE_WITH_KNOTS('', 1, 1, ((#474, #475), (#476, #477)), .UNSPECIFIED., .F., .F., .U., (2, 2), (2, 2), (0., 1.), (0., 1.), .UNSPECIFIED.);
#474 = CARTESIAN_POINT('', (231.112698372208, -11.1126983722081, 30.));
#475 = CARTESIAN_POINT('', (168.887301627792, -11.1126983722081, 30.));
#476 = CARTESIAN_POINT('', (231.112698372208, 51.1126983722081, 30.));
#477 = CARTESIAN_POINT('', (168.887301627792, 51.1126983722081, 30.));
#478 = ADVANCED_FACE('', (#479), #509, .T.);
#479 = FACE_OUTER_BOUND('', #480, .T.);
#480 = EDGE_LOOP('', (#481, #490, #497, #504));
#481 = ORIENTED_EDGE('', *, *, #482, .F.);
#482 = EDGE_CURVE('', #483, #485, #487, .T.);
#483 = VERTEX_POINT('', #484);
#484 = CARTESIAN_POINT('', (180., 40., 0.));
#485 = VERTEX_POINT('', #486);
#486 = CARTESIAN_POINT('', (180., 0., 0.));
#487 = B_SPLINE_CURVE_WITH_KNOTS('', 1, (#488, #489), .UNSPECIFIED., .F., .U., (2, 2), (0., 1.), .UNSPECIFIED.);
#488 = CARTESIAN_POINT('', (180., 40., 0.));
#489 = CARTESIAN_POINT('', (180., 0., 0.));
#490 = ORIENTED_EDGE('', *, *, #491, .F.);
#491 = EDGE_CURVE('', #492, #483, #494, .T.);
#492 = VERTEX_POINT('', #493);
#493 = CARTESIAN_POINT('', (220., 40., 0.));
#494 = B_SPLINE_CURVE_WITH_KNOTS('', 1, (#495, #496), .UNSPECIFIED., .F., .U., (2, 2), (0., 1.), .UNSPECIFIED.);
#495 = CARTESIAN_POINT('', (220., 40., 0.));
#496 = CARTESIAN_POINT('', (180., 40., 0.));
#497 = ORIENTED_EDGE('', *, *, #498, .F.);
#498 = EDGE_CURVE('', #499, #492, #501, .T.);
#499 = VERTEX_POINT('', #500);
#500 = CARTESIAN_POINT('', (220., 0., 0.));
#501 = B_SPLINE_CURVE_WITH_KNOTS('', 1, (#502, #503), .UNSPECIFIED., .F., .U., (2, 2), (0., 1.), .UNSPECIFIED.);
#502 = CARTESIAN_POINT('', (220., 0., 0.));
#503 = CARTESIAN_POINT('', (220., 40., 0.));
#504 = ORIENTED_EDGE('', *, *, #505, .F.);
#505 = EDGE_CURVE('', #485, #499, #506, .T.);
#506 = B_SPLINE_CURVE_WITH_KNOTS('', 1, (#507, #508), .UNSPECIFIED., .F., .U., (2, 2), (0., 1.), .UNSPECIFIED.);
#507 = CARTESIAN_POINT('', (180., 0., 0.));
#508 = CARTESIAN_POINT('', (220., 0., 0.));
#509 = B_SPLINE_SURFACE_WITH_KNOTS('', 1, 1, ((#510, #511), (#512, #513)), .UNSPECIFIED., .F., .F., .U., (2, 2), (2, 2), (0., 1.), (0., 1.), .UNSPECIFIED.);
#510 = CARTESIAN_POINT('', (231.112698372208, -11.1126983722081, 0.));
#511 = CARTESIAN_POINT('', (231.112698372208, 51.1126983722081, 0.));
#512 = CARTESIAN_POINT('', (168.887301627792, -11.1126983722081, 0.));
#513 = CARTESIAN_POINT('', (168.887301627792, 51.1126983722081, 0.));
#514 = ADVANCED_FACE('', (#515), #529, .T.);
#515 = FACE_OUTER_BOUND('', #516, .T.);
#516 = EDGE_LOOP('', (#517, #522, #523, #528));
#517 = ORIENTED_EDGE('', *, *, #518, .F.);
#518 = EDGE_CURVE('', #483, #447, #519, .T.);
#519 = B_SPLINE_CURVE_WITH_KNOTS('', 1, (#520, #521), .UNSPECIFIED., .F., .U., (2, 2), (0., 1.), .UNSPECIFIED.);
#520 = CARTESIAN_POINT('', (180., 40., 0.));
#521 = CARTESIAN_POINT('', (180., 40., 30.));
#522 = ORIENTED_EDGE('', *, *, #482, .T.);
#523 = ORIENTED_EDGE('', *, *, #524, .T.);
#524 = EDGE_CURVE('', #485, #449, #525, .T.);
#525 = B_SPLINE_CURVE_WITH_KNOTS('', 1, (#526, #527), .UNSPECIFIED., .F., .U., (2, 2), (0., 1.), .UNSPECIFIED.);
#526 = CARTESIAN_POINT('', (180., 0., 0.));
#527 = CARTESIAN_POINT('', (180., 0., 30.));
#528 = ORIENTED_EDGE('', *, *, #446, .F.);
#529 = B_SPLINE_SURFACE_WITH_KNOTS('', 1, 1, ((#530, #531), (#532, #533)), .UNSPECIFIED., .F., .F., .U., (2, 2), (2, 2), (0., 1.), (0., 1.), .UNSPECIFIED.);
#530 = CARTESIAN_POINT('', (180., 40., 0.));
#531 = CARTESIAN_POINT('', (180., 40., 30.));
#532 = CARTESIAN_POINT('', (180., 0., 0.));
#533 = CARTESIAN_POINT('', (180., 0., 30.));
#534 = ADVANCED_FACE('', (#535), #545, .T.);
#535 = FACE_OUTER_BOUND('', #536, .T.);
#536 = EDGE_LOOP('', (#537, #538, #539, #544));
#537 = ORIENTED_EDGE('', *, *, #524, .F.);
#538 = ORIENTED_EDGE('', *, *, #505, .T.);
#539 = ORIENTED_EDGE('', *, *, #540, .T.);
#540 = EDGE_CURVE('', #499, #456, #541, .T.);
#541 = B_SPLINE_CURVE_WITH_KNOTS('', 1, (#542, #543), .UNSPECIFIED., .F., .U., (2, 2), (0., 1.), .UNSPECIFIED.);
#542 = CARTESIAN_POINT('', (220., 0., 0.));
#543 = CARTESIAN_POINT('', (220., 0., 30.));
#544 = ORIENTED_EDGE('', *, *, #455, .F.);
#545 = B_SPLINE_SURFACE_WITH_KNOTS('', 1, 1, ((#546, #547), (#548, #549)), .UNSPECIFIED., .F., .F., .U., (2, 2), (2, 2), (0., 1.), (0., 1.), .UNSPECIFIED.);
#546 = CARTESIAN_POINT('', (180., 0., 0.));
#547 = CARTESIAN_POINT('', (180., 0., 30.));
#548 = CARTESIAN_POINT('', (220., 0., 0.));
#549 = CARTESIAN_POINT('', (220., 0., 30.));
#550 = ADVANCED_FACE('', (#551), #561, .T.);
#551 = FACE_OUTER_BOUND('', #552, .T.);
#552 = EDGE_LOOP('', (#553, #558, #559, #560));
#553 = ORIENTED_EDGE('', *, *, #554, .F.);
#554 = EDGE_CURVE('', #492, #463, #555, .T.);
#555 = B_SPLINE_CURVE_WITH_KNOTS('', 1, (#556, #557), .UNSPECIFIED., .F., .U., (2, 2), (0., 1.), .UNSPECIFIED.);
#556 = CARTESIAN_POINT('', (220., 40., 0.));
#557 = CARTESIAN_POINT('', (220., 40., 30.));
#558 = ORIENTED_EDGE('', *, *, #491, .T.);
#559 = ORIENTED_EDGE('', *, *, #518, .T.);
#560 = ORIENTED_EDGE('', *, *, #469, .F.);
#561 = B_SPLINE_SURFACE_WITH_KNOTS('', 1, 1, ((#562, #563), (#564, #565)), .UNSPECIFIED., .F., .F., .U., (2, 2), (2, 2), (0., 1.), (0., 1.), .UNSPECIFIED.);
#562 = CARTESIAN_POINT('', (220., 40., 0.));
#563 = CARTESIAN_POINT('', (220., 40., 30.));
#564 = CARTESIAN_POINT('', (180., 40., 0.));
#565 = CARTESIAN_POINT('', (180., 40., 30.));
#566 = ADVANCED_FACE('', (#567), #573, .T.);
#567 = FACE_OUTER_BOUND('', #568, .T.);
#568 = EDGE_LOOP('', (#569, #570, #571, #572));
#569 = ORIENTED_EDGE('', *, *, #540, .F.);
#570 = ORIENTED_EDGE('', *, *, #498, .T.);
#571 = ORIENTED_EDGE('', *, *, #554, .T.);
#572 = ORIENTED_EDGE('', *, *, #462, .F.);
#573 = B_SPLINE_SURFACE_WITH_KNOTS('', 1, 1, ((#574, #575), (#576, #577)), .UNSPECIFIED., .F., .F., .U., (2, 2), (2, 2), (0., 1.), (0., 1.), .UNSPECIFIED.);
#574 = CARTESIAN_POINT('', (220., 0., 0.));
#575 = CARTESIAN_POINT('', (220., 0., 30.));
#576 = CARTESIAN_POINT('', (220., 40., 0.));
#577 = CARTESIAN_POINT('', (220., 40., 30.));
#578 = PRESENTATION_STYLE_ASSIGNMENT((#579));
#579 = SURFACE_STYLE_USAGE(.POSITIVE., #580);
#580 = SURFACE_SIDE_STYLE('', (#581));
#581 = SURFACE_STYLE_FILL_AREA(#582);
#582 = FILL_AREA_STYLE('', (#583));
#583 = FILL_AREA_STYLE_COLOUR('', #584);
#584 = COLOUR_RGB('', 0.50196078431373, 0.50196078431373, 0.50196078431373);
#585 = STYLED_ITEM('', (#578), #440);
#586 = CARTESIAN_POINT('Origin', (0., 0., 0.));
#587 = GEOMETRIC_SET('', (#586));
#588 = (
   GEOMETRIC_REPRESENTATION_CONTEXT (3)
   GLOBAL_UNCERTAINTY_ASSIGNED_CONTEXT ((#590))
   GLOBAL_UNIT_ASSIGNED_CONTEXT ((#589, #591, #592))
   REPRESENTATION_CONTEXT ('', '3D')
);
#589 = (
   LENGTH_UNIT ()
   NAMED_UNIT (*)
   SI_UNIT (.MILLI., .METRE.)
);
#590 = UNCERTAINTY_MEASURE_WITH_UNIT(LENGTH_MEASURE(1.E-6), #589, 'DISTANCE_ACCURACY_VALUE', '');
#591 = (
   NAMED_UNIT (*)
   SI_UNIT ($, .STERADIAN.)
   SOLID_ANGLE_UNIT ()
);
#592 = (
   NAMED_UNIT (*)
   PLANE_ANGLE_UNIT ()
   SI_UNIT ($, .RADIAN.)
);
#593 = SHAPE_REPRESENTATION('', (#608), #588);
#594 = PRODUCT_DEFINITION_SHAPE('', '', #595);
#595 = PRODUCT_DEFINITION('', '', #598, #602);
#596 = APPLICATION_CONTEXT('configuration controlled 3D designs of mechanical parts and assemblies');
#597 = APPLICATION_PROTOCOL_DEFINITION('International Standard', 'automotive_design', 2002, #596);
#598 = PRODUCT_DEFINITION_FORMATION_WITH_SPECIFIED_SOURCE('', '', #599, .NOT_KNOWN.);
#599 = PRODUCT('DirNonCustom', 'DirNonCustom', '', (#600));
#600 = PRODUCT_CONTEXT('', #596, 'mechanical');
#601 = PRODUCT_RELATED_PRODUCT_CATEGORY('detail', '', (#599));
#602 = PRODUCT_DEFINITION_CONTEXT('part definition', #596, 'design');
#603 = SHAPE_DEFINITION_REPRESENTATION(#594, #593);
#604 = SHAPE_REPRESENTATION_RELATIONSHIP('', '', #593, #605);
#605 = SHAPE_REPRESENTATION('', (#587), #588);
#606 = SHAPE_REPRESENTATION_RELATIONSHIP('', '', #593, #607);
#607 = ADVANCED_BREP_SHAPE_REPRESENTATION('', (#1, #148, #294, #440), #588);
#608 = AXIS2_PLACEMENT_3D('', #609, #610, #611);
#609 = CARTESIAN_POINT('', (0., 0., 0.));
#610 = DIRECTION('', (0., 0., 1.));
#611 = DIRECTION('', (1., 0., 0.));
ENDSEC;
END-ISO-10303-21;
