ISO-10303-21;
HEADER;
FILE_DESCRIPTION(('STEP'), '1');
FILE_NAME('Machine', '2026-04-22T16:16:01', (''), (''), 'Express 3.1.2.0', 'Express Tool', 'Unknown');
FILE_SCHEMA(('AUTOMOTIVE_DESIGN'));
ENDSEC;

DATA;
#1 = (
   GEOMETRIC_REPRESENTATION_CONTEXT (3)
   GLOBAL_UNCERTAINTY_ASSIGNED_CONTEXT ((#3))
   GLOBAL_UNIT_ASSIGNED_CONTEXT ((#2, #4, #5))
   REPRESENTATION_CONTEXT ('', '3D')
);
#2 = (
   LENGTH_UNIT ()
   NAMED_UNIT (*)
   SI_UNIT (.MILLI., .METRE.)
);
#3 = UNCERTAINTY_MEASURE_WITH_UNIT(LENGTH_MEASURE(1.E-6), #2, 'DISTANCE_ACCURACY_VALUE', '');
#4 = (
   NAMED_UNIT (*)
   SI_UNIT ($, .STERADIAN.)
   SOLID_ANGLE_UNIT ()
);
#5 = (
   NAMED_UNIT (*)
   PLANE_ANGLE_UNIT ()
   SI_UNIT ($, .RADIAN.)
);
#6 = SHAPE_REPRESENTATION('', (#188, #308, #490), #1);
#7 = PRODUCT_DEFINITION_SHAPE('', '', #8);
#8 = PRODUCT_DEFINITION('', '', #11, #15);
#9 = APPLICATION_CONTEXT('configuration controlled 3D designs of mechanical parts and assemblies');
#10 = APPLICATION_PROTOCOL_DEFINITION('International Standard', 'automotive_design', 2002, #9);
#11 = PRODUCT_DEFINITION_FORMATION_WITH_SPECIFIED_SOURCE('', '', #12, .NOT_KNOWN.);
#12 = PRODUCT('Machine', 'Machine', '', (#13));
#13 = PRODUCT_CONTEXT('', #9, 'mechanical');
#14 = PRODUCT_RELATED_PRODUCT_CATEGORY('detail', '', (#12));
#15 = PRODUCT_DEFINITION_CONTEXT('part definition', #9, 'design');
#16 = SHAPE_DEFINITION_REPRESENTATION(#7, #6);
#17 = MANIFOLD_SOLID_BREP('BracketBox_0', #18);
#18 = CLOSED_SHELL('', (#19, #55, #83, #111, #131, #143));
#19 = ADVANCED_FACE('', (#20), #50, .T.);
#20 = FACE_OUTER_BOUND('', #21, .T.);
#21 = EDGE_LOOP('', (#22, #31, #38, #45));
#22 = ORIENTED_EDGE('', *, *, #23, .T.);
#23 = EDGE_CURVE('', #24, #26, #28, .T.);
#24 = VERTEX_POINT('', #25);
#25 = CARTESIAN_POINT('', (0., 40., 0.));
#26 = VERTEX_POINT('', #27);
#27 = CARTESIAN_POINT('', (0., 40., 10.));
#28 = B_SPLINE_CURVE_WITH_KNOTS('', 1, (#29, #30), .UNSPECIFIED., .F., .U., (2, 2), (0., 10.), .UNSPECIFIED.);
#29 = CARTESIAN_POINT('', (0., 40., 0.));
#30 = CARTESIAN_POINT('', (0., 40., 10.));
#31 = ORIENTED_EDGE('', *, *, #32, .T.);
#32 = EDGE_CURVE('', #26, #33, #35, .T.);
#33 = VERTEX_POINT('', #34);
#34 = CARTESIAN_POINT('', (80., 40., 10.));
#35 = B_SPLINE_CURVE_WITH_KNOTS('', 1, (#36, #37), .UNSPECIFIED., .F., .U., (2, 2), (0., 80.), .UNSPECIFIED.);
#36 = CARTESIAN_POINT('', (0., 40., 10.));
#37 = CARTESIAN_POINT('', (80., 40., 10.));
#38 = ORIENTED_EDGE('', *, *, #39, .F.);
#39 = EDGE_CURVE('', #40, #33, #42, .T.);
#40 = VERTEX_POINT('', #41);
#41 = CARTESIAN_POINT('', (80., 40., 0.));
#42 = B_SPLINE_CURVE_WITH_KNOTS('', 1, (#43, #44), .UNSPECIFIED., .F., .U., (2, 2), (0., 10.), .UNSPECIFIED.);
#43 = CARTESIAN_POINT('', (80., 40., 0.));
#44 = CARTESIAN_POINT('', (80., 40., 10.));
#45 = ORIENTED_EDGE('', *, *, #46, .F.);
#46 = EDGE_CURVE('', #24, #40, #47, .T.);
#47 = B_SPLINE_CURVE_WITH_KNOTS('', 1, (#48, #49), .UNSPECIFIED., .F., .U., (2, 2), (0., 80.), .UNSPECIFIED.);
#48 = CARTESIAN_POINT('', (0., 40., 0.));
#49 = CARTESIAN_POINT('', (80., 40., 0.));
#50 = B_SPLINE_SURFACE_WITH_KNOTS('', 1, 1, ((#51, #52), (#53, #54)), .UNSPECIFIED., .F., .F., .U., (2, 2), (2, 2), (0., 10.), (0., 80.), .UNSPECIFIED.);
#51 = CARTESIAN_POINT('', (0., 40., 0.));
#52 = CARTESIAN_POINT('', (80., 40., 0.));
#53 = CARTESIAN_POINT('', (0., 40., 10.));
#54 = CARTESIAN_POINT('', (80., 40., 10.));
#55 = ADVANCED_FACE('', (#56), #78, .T.);
#56 = FACE_OUTER_BOUND('', #57, .T.);
#57 = EDGE_LOOP('', (#58, #65, #72, #77));
#58 = ORIENTED_EDGE('', *, *, #59, .F.);
#59 = EDGE_CURVE('', #60, #26, #62, .T.);
#60 = VERTEX_POINT('', #61);
#61 = CARTESIAN_POINT('', (0., 0., 10.));
#62 = B_SPLINE_CURVE_WITH_KNOTS('', 1, (#63, #64), .UNSPECIFIED., .F., .U., (2, 2), (0., 40.), .UNSPECIFIED.);
#63 = CARTESIAN_POINT('', (0., 0., 10.));
#64 = CARTESIAN_POINT('', (0., 40., 10.));
#65 = ORIENTED_EDGE('', *, *, #66, .T.);
#66 = EDGE_CURVE('', #60, #67, #69, .T.);
#67 = VERTEX_POINT('', #68);
#68 = CARTESIAN_POINT('', (80., 0., 10.));
#69 = B_SPLINE_CURVE_WITH_KNOTS('', 1, (#70, #71), .UNSPECIFIED., .F., .U., (2, 2), (0., 80.), .UNSPECIFIED.);
#70 = CARTESIAN_POINT('', (0., 0., 10.));
#71 = CARTESIAN_POINT('', (80., 0., 10.));
#72 = ORIENTED_EDGE('', *, *, #73, .T.);
#73 = EDGE_CURVE('', #67, #33, #74, .T.);
#74 = B_SPLINE_CURVE_WITH_KNOTS('', 1, (#75, #76), .UNSPECIFIED., .F., .U., (2, 2), (0., 40.), .UNSPECIFIED.);
#75 = CARTESIAN_POINT('', (80., 0., 10.));
#76 = CARTESIAN_POINT('', (80., 40., 10.));
#77 = ORIENTED_EDGE('', *, *, #32, .F.);
#78 = B_SPLINE_SURFACE_WITH_KNOTS('', 1, 1, ((#79, #80), (#81, #82)), .UNSPECIFIED., .F., .F., .U., (2, 2), (2, 2), (0., 80.), (0., 40.), .UNSPECIFIED.);
#79 = CARTESIAN_POINT('', (0., 0., 10.));
#80 = CARTESIAN_POINT('', (0., 40., 10.));
#81 = CARTESIAN_POINT('', (80., 0., 10.));
#82 = CARTESIAN_POINT('', (80., 40., 10.));
#83 = ADVANCED_FACE('', (#84), #106, .T.);
#84 = FACE_OUTER_BOUND('', #85, .T.);
#85 = EDGE_LOOP('', (#86, #93, #100, #105));
#86 = ORIENTED_EDGE('', *, *, #87, .F.);
#87 = EDGE_CURVE('', #88, #60, #90, .T.);
#88 = VERTEX_POINT('', #89);
#89 = CARTESIAN_POINT('', (0., 0., 0.));
#90 = B_SPLINE_CURVE_WITH_KNOTS('', 1, (#91, #92), .UNSPECIFIED., .F., .U., (2, 2), (0., 10.), .UNSPECIFIED.);
#91 = CARTESIAN_POINT('', (0., 0., 0.));
#92 = CARTESIAN_POINT('', (0., 0., 10.));
#93 = ORIENTED_EDGE('', *, *, #94, .T.);
#94 = EDGE_CURVE('', #88, #95, #97, .T.);
#95 = VERTEX_POINT('', #96);
#96 = CARTESIAN_POINT('', (80., 0., 0.));
#97 = B_SPLINE_CURVE_WITH_KNOTS('', 1, (#98, #99), .UNSPECIFIED., .F., .U., (2, 2), (0., 80.), .UNSPECIFIED.);
#98 = CARTESIAN_POINT('', (0., 0., 0.));
#99 = CARTESIAN_POINT('', (80., 0., 0.));
#100 = ORIENTED_EDGE('', *, *, #101, .T.);
#101 = EDGE_CURVE('', #95, #67, #102, .T.);
#102 = B_SPLINE_CURVE_WITH_KNOTS('', 1, (#103, #104), .UNSPECIFIED., .F., .U., (2, 2), (0., 10.), .UNSPECIFIED.);
#103 = CARTESIAN_POINT('', (80., 0., 0.));
#104 = CARTESIAN_POINT('', (80., 0., 10.));
#105 = ORIENTED_EDGE('', *, *, #66, .F.);
#106 = B_SPLINE_SURFACE_WITH_KNOTS('', 1, 1, ((#107, #108), (#109, #110)), .UNSPECIFIED., .F., .F., .U., (2, 2), (2, 2), (0., 80.), (0., 10.), .UNSPECIFIED.);
#107 = CARTESIAN_POINT('', (0., 0., 0.));
#108 = CARTESIAN_POINT('', (0., 0., 10.));
#109 = CARTESIAN_POINT('', (80., 0., 0.));
#110 = CARTESIAN_POINT('', (80., 0., 10.));
#111 = ADVANCED_FACE('', (#112), #126, .T.);
#112 = FACE_OUTER_BOUND('', #113, .T.);
#113 = EDGE_LOOP('', (#114, #119, #120, #125));
#114 = ORIENTED_EDGE('', *, *, #115, .T.);
#115 = EDGE_CURVE('', #88, #24, #116, .T.);
#116 = B_SPLINE_CURVE_WITH_KNOTS('', 1, (#117, #118), .UNSPECIFIED., .F., .U., (2, 2), (0., 40.), .UNSPECIFIED.);
#117 = CARTESIAN_POINT('', (0., 0., 0.));
#118 = CARTESIAN_POINT('', (0., 40., 0.));
#119 = ORIENTED_EDGE('', *, *, #46, .T.);
#120 = ORIENTED_EDGE('', *, *, #121, .F.);
#121 = EDGE_CURVE('', #95, #40, #122, .T.);
#122 = B_SPLINE_CURVE_WITH_KNOTS('', 1, (#123, #124), .UNSPECIFIED., .F., .U., (2, 2), (0., 40.), .UNSPECIFIED.);
#123 = CARTESIAN_POINT('', (80., 0., 0.));
#124 = CARTESIAN_POINT('', (80., 40., 0.));
#125 = ORIENTED_EDGE('', *, *, #94, .F.);
#126 = B_SPLINE_SURFACE_WITH_KNOTS('', 1, 1, ((#127, #128), (#129, #130)), .UNSPECIFIED., .F., .F., .U., (2, 2), (2, 2), (0., 40.), (0., 80.), .UNSPECIFIED.);
#127 = CARTESIAN_POINT('', (0., 0., 0.));
#128 = CARTESIAN_POINT('', (80., 0., 0.));
#129 = CARTESIAN_POINT('', (0., 40., 0.));
#130 = CARTESIAN_POINT('', (80., 40., 0.));
#131 = ADVANCED_FACE('', (#132), #138, .T.);
#132 = FACE_OUTER_BOUND('', #133, .T.);
#133 = EDGE_LOOP('', (#134, #135, #136, #137));
#134 = ORIENTED_EDGE('', *, *, #101, .F.);
#135 = ORIENTED_EDGE('', *, *, #121, .T.);
#136 = ORIENTED_EDGE('', *, *, #39, .T.);
#137 = ORIENTED_EDGE('', *, *, #73, .F.);
#138 = B_SPLINE_SURFACE_WITH_KNOTS('', 1, 1, ((#139, #140), (#141, #142)), .UNSPECIFIED., .F., .F., .U., (2, 2), (2, 2), (0., 40.), (0., 10.), .UNSPECIFIED.);
#139 = CARTESIAN_POINT('', (80., 0., 0.));
#140 = CARTESIAN_POINT('', (80., 0., 10.));
#141 = CARTESIAN_POINT('', (80., 40., 0.));
#142 = CARTESIAN_POINT('', (80., 40., 10.));
#143 = ADVANCED_FACE('', (#144), #150, .T.);
#144 = FACE_OUTER_BOUND('', #145, .T.);
#145 = EDGE_LOOP('', (#146, #147, #148, #149));
#146 = ORIENTED_EDGE('', *, *, #87, .T.);
#147 = ORIENTED_EDGE('', *, *, #59, .T.);
#148 = ORIENTED_EDGE('', *, *, #23, .F.);
#149 = ORIENTED_EDGE('', *, *, #115, .F.);
#150 = B_SPLINE_SURFACE_WITH_KNOTS('', 1, 1, ((#151, #152), (#153, #154)), .UNSPECIFIED., .F., .F., .U., (2, 2), (2, 2), (0., 10.), (0., 40.), .UNSPECIFIED.);
#151 = CARTESIAN_POINT('', (0., 0., 0.));
#152 = CARTESIAN_POINT('', (0., 40., 0.));
#153 = CARTESIAN_POINT('', (0., 0., 10.));
#154 = CARTESIAN_POINT('', (0., 40., 10.));
#155 = DRAUGHTING_MODEL('', (#163), #166);
#156 = PRESENTATION_STYLE_ASSIGNMENT((#157));
#157 = SURFACE_STYLE_USAGE(.POSITIVE., #158);
#158 = SURFACE_SIDE_STYLE('', (#159));
#159 = SURFACE_STYLE_FILL_AREA(#160);
#160 = FILL_AREA_STYLE('', (#161));
#161 = FILL_AREA_STYLE_COLOUR('', #162);
#162 = COLOUR_RGB('', 0.50196078431373, 0.50196078431373, 0.50196078431373);
#163 = STYLED_ITEM('', (#156), #17);
#164 = CARTESIAN_POINT('Origin', (0., 0., 0.));
#165 = GEOMETRIC_SET('', (#164));
#166 = (
   GEOMETRIC_REPRESENTATION_CONTEXT (3)
   GLOBAL_UNCERTAINTY_ASSIGNED_CONTEXT ((#168))
   GLOBAL_UNIT_ASSIGNED_CONTEXT ((#167, #169, #170))
   REPRESENTATION_CONTEXT ('', '3D')
);
#167 = (
   LENGTH_UNIT ()
   NAMED_UNIT (*)
   SI_UNIT (.MILLI., .METRE.)
);
#168 = UNCERTAINTY_MEASURE_WITH_UNIT(LENGTH_MEASURE(1.E-6), #167, 'DISTANCE_ACCURACY_VALUE', '');
#169 = (
   NAMED_UNIT (*)
   SI_UNIT ($, .STERADIAN.)
   SOLID_ANGLE_UNIT ()
);
#170 = (
   NAMED_UNIT (*)
   PLANE_ANGLE_UNIT ()
   SI_UNIT ($, .RADIAN.)
);
#171 = SHAPE_REPRESENTATION('', (#192), #166);
#172 = PRODUCT_DEFINITION_SHAPE('', '', #173);
#173 = PRODUCT_DEFINITION('', '', #176, #180);
#174 = APPLICATION_CONTEXT('configuration controlled 3D designs of mechanical parts and assemblies');
#175 = APPLICATION_PROTOCOL_DEFINITION('International Standard', 'automotive_design', 2002, #174);
#176 = PRODUCT_DEFINITION_FORMATION_WITH_SPECIFIED_SOURCE('', '', #177, .NOT_KNOWN.);
#177 = PRODUCT('Bracket', 'Bracket', '', (#178));
#178 = PRODUCT_CONTEXT('', #174, 'mechanical');
#179 = PRODUCT_RELATED_PRODUCT_CATEGORY('detail', '', (#177));
#180 = PRODUCT_DEFINITION_CONTEXT('part definition', #174, 'design');
#181 = SHAPE_DEFINITION_REPRESENTATION(#172, #171);
#182 = SHAPE_REPRESENTATION_RELATIONSHIP('', '', #171, #183);
#183 = SHAPE_REPRESENTATION('', (#165), #166);
#184 = SHAPE_REPRESENTATION_RELATIONSHIP('', '', #171, #185);
#185 = ADVANCED_BREP_SHAPE_REPRESENTATION('', (#17), #166);
#186 = NEXT_ASSEMBLY_USAGE_OCCURRENCE('', 'Bracket_1', 'Bracket_1', #8, #173, '');
#187 = PRODUCT_DEFINITION_SHAPE('', '', #186);
#188 = AXIS2_PLACEMENT_3D('', #189, #190, #191);
#189 = CARTESIAN_POINT('', (0., 0., 0.));
#190 = DIRECTION('', (0., 0., 1.));
#191 = DIRECTION('', (1., 0., 0.));
#192 = AXIS2_PLACEMENT_3D('', #193, #194, #195);
#193 = CARTESIAN_POINT('', (0., 0., 0.));
#194 = DIRECTION('', (0., 0., 1.));
#195 = DIRECTION('', (1., 0., 0.));
#196 = ITEM_DEFINED_TRANSFORMATION('', '', #188, #192);
#197 = (
   REPRESENTATION_RELATIONSHIP ('', '', #6, #171)
   REPRESENTATION_RELATIONSHIP_WITH_TRANSFORMATION (#196)
   SHAPE_REPRESENTATION_RELATIONSHIP ()
);
#198 = CONTEXT_DEPENDENT_SHAPE_REPRESENTATION(#197, #187);
#199 = MANIFOLD_SOLID_BREP('ShaftCyl_0', #200);
#200 = CLOSED_SHELL('', (#201, #257, #266));
#201 = ADVANCED_FACE('', (#202), #238, .T.);
#202 = FACE_OUTER_BOUND('', #203, .T.);
#203 = EDGE_LOOP('', (#204, #213, #225, #226));
#204 = ORIENTED_EDGE('', *, *, #205, .F.);
#205 = EDGE_CURVE('', #206, #208, #210, .T.);
#206 = VERTEX_POINT('', #207);
#207 = CARTESIAN_POINT('', (50., 0., 0.));
#208 = VERTEX_POINT('', #209);
#209 = CARTESIAN_POINT('', (50., 0., 60.));
#210 = B_SPLINE_CURVE_WITH_KNOTS('', 1, (#211, #212), .UNSPECIFIED., .F., .U., (2, 2), (0., 60.), .UNSPECIFIED.);
#211 = CARTESIAN_POINT('', (50., 0., 0.));
#212 = CARTESIAN_POINT('', (50., 0., 60.));
#213 = ORIENTED_EDGE('', *, *, #214, .T.);
#214 = EDGE_CURVE('', #206, #206, #215, .T.);
#215 = (
   BOUNDED_CURVE ()
   B_SPLINE_CURVE (2, (#216, #217, #218, #219, #220, #221, #222, #223, #224), .UNSPECIFIED., .T., .U.)
   B_SPLINE_CURVE_WITH_KNOTS ((3, 2, 2, 2, 3), (0., 78.5398163397448, 157.07963267949, 235.619449019235, 314.159265358979), .UNSPECIFIED.)
   CURVE ()
   GEOMETRIC_REPRESENTATION_ITEM ()
   RATIONAL_B_SPLINE_CURVE ((1., 0.707106781186548, 1., 0.707106781186548, 1., 0.707106781186548, 1., 0.707106781186548, 1.))
   REPRESENTATION_ITEM ('')
);
#216 = CARTESIAN_POINT('', (50., 0., 0.));
#217 = CARTESIAN_POINT('', (50., 50., 0.));
#218 = CARTESIAN_POINT('', (3.06161699786838E-15, 50., 0.));
#219 = CARTESIAN_POINT('', (-50., 50., 0.));
#220 = CARTESIAN_POINT('', (-50., 6.12323399573677E-15, 0.));
#221 = CARTESIAN_POINT('', (-50., -50., 0.));
#222 = CARTESIAN_POINT('', (-9.18485099360515E-15, -50., 0.));
#223 = CARTESIAN_POINT('', (50., -50., 0.));
#224 = CARTESIAN_POINT('', (50., 0., 0.));
#225 = ORIENTED_EDGE('', *, *, #205, .T.);
#226 = ORIENTED_EDGE('', *, *, #227, .F.);
#227 = EDGE_CURVE('', #208, #208, #228, .T.);
#228 = (
   BOUNDED_CURVE ()
   B_SPLINE_CURVE (2, (#229, #230, #231, #232, #233, #234, #235, #236, #237), .UNSPECIFIED., .T., .U.)
   B_SPLINE_CURVE_WITH_KNOTS ((3, 2, 2, 2, 3), (0., 78.5398163397448, 157.07963267949, 235.619449019235, 314.159265358979), .UNSPECIFIED.)
   CURVE ()
   GEOMETRIC_REPRESENTATION_ITEM ()
   RATIONAL_B_SPLINE_CURVE ((1., 0.707106781186548, 1., 0.707106781186548, 1., 0.707106781186548, 1., 0.707106781186548, 1.))
   REPRESENTATION_ITEM ('')
);
#229 = CARTESIAN_POINT('', (50., 0., 60.));
#230 = CARTESIAN_POINT('', (50., 50., 60.));
#231 = CARTESIAN_POINT('', (3.06161699786838E-15, 50., 60.));
#232 = CARTESIAN_POINT('', (-50., 50., 60.));
#233 = CARTESIAN_POINT('', (-50., 6.12323399573677E-15, 60.));
#234 = CARTESIAN_POINT('', (-50., -50., 60.));
#235 = CARTESIAN_POINT('', (-9.18485099360515E-15, -50., 60.));
#236 = CARTESIAN_POINT('', (50., -50., 60.));
#237 = CARTESIAN_POINT('', (50., 0., 60.));
#238 = (
   BOUNDED_SURFACE ()
   B_SPLINE_SURFACE (2, 1, ((#239, #240), (#241, #242), (#243, #244), (#245, #246), (#247, #248), (#249, #250), (#251, #252), (#253, #254), (#255, #256)), .UNSPECIFIED., .T., .F., .U.)
   B_SPLINE_SURFACE_WITH_KNOTS ((3, 2, 2, 2, 3), (2, 2), (0., 78.5398163397448, 157.07963267949, 235.619449019235, 314.159265358979), (0., 60.), .UNSPECIFIED.)
   GEOMETRIC_REPRESENTATION_ITEM ()
   RATIONAL_B_SPLINE_SURFACE (((1., 1.), (0.707106781186548, 0.707106781186548), (1., 1.), (0.707106781186548, 0.707106781186548), (1., 1.), (0.707106781186548, 0.707106781186548), (1., 1.), (0.707106781186548, 0.707106781186548), (1., 1.)))
   REPRESENTATION_ITEM ('')
   SURFACE ()
);
#239 = CARTESIAN_POINT('', (50., 0., 0.));
#240 = CARTESIAN_POINT('', (50., 0., 60.));
#241 = CARTESIAN_POINT('', (50., 50., 0.));
#242 = CARTESIAN_POINT('', (50., 50., 60.));
#243 = CARTESIAN_POINT('', (3.06161699786838E-15, 50., 0.));
#244 = CARTESIAN_POINT('', (3.06161699786838E-15, 50., 60.));
#245 = CARTESIAN_POINT('', (-50., 50., 0.));
#246 = CARTESIAN_POINT('', (-50., 50., 60.));
#247 = CARTESIAN_POINT('', (-50., 6.12323399573677E-15, 0.));
#248 = CARTESIAN_POINT('', (-50., 6.12323399573677E-15, 60.));
#249 = CARTESIAN_POINT('', (-50., -50., 0.));
#250 = CARTESIAN_POINT('', (-50., -50., 60.));
#251 = CARTESIAN_POINT('', (-9.18485099360515E-15, -50., 0.));
#252 = CARTESIAN_POINT('', (-9.18485099360515E-15, -50., 60.));
#253 = CARTESIAN_POINT('', (50., -50., 0.));
#254 = CARTESIAN_POINT('', (50., -50., 60.));
#255 = CARTESIAN_POINT('', (50., 0., 0.));
#256 = CARTESIAN_POINT('', (50., 0., 60.));
#257 = ADVANCED_FACE('', (#258), #261, .T.);
#258 = FACE_OUTER_BOUND('', #259, .T.);
#259 = EDGE_LOOP('', (#260));
#260 = ORIENTED_EDGE('', *, *, #214, .F.);
#261 = B_SPLINE_SURFACE_WITH_KNOTS('', 1, 1, ((#262, #263), (#264, #265)), .UNSPECIFIED., .F., .F., .U., (2, 2), (2, 2), (0., 1.), (0., 1.), .UNSPECIFIED.);
#262 = CARTESIAN_POINT('', (77.7817459305203, -77.7817459305203, 0.));
#263 = CARTESIAN_POINT('', (77.7817459305203, 77.7817459305203, 0.));
#264 = CARTESIAN_POINT('', (-77.7817459305203, -77.7817459305203, 0.));
#265 = CARTESIAN_POINT('', (-77.7817459305203, 77.7817459305203, 0.));
#266 = ADVANCED_FACE('', (#267), #270, .T.);
#267 = FACE_OUTER_BOUND('', #268, .T.);
#268 = EDGE_LOOP('', (#269));
#269 = ORIENTED_EDGE('', *, *, #227, .T.);
#270 = B_SPLINE_SURFACE_WITH_KNOTS('', 1, 1, ((#271, #272), (#273, #274)), .UNSPECIFIED., .F., .F., .U., (2, 2), (2, 2), (0., 1.), (0., 1.), .UNSPECIFIED.);
#271 = CARTESIAN_POINT('', (77.7817459305203, -77.7817459305203, 60.));
#272 = CARTESIAN_POINT('', (-77.7817459305203, -77.7817459305203, 60.));
#273 = CARTESIAN_POINT('', (77.7817459305203, 77.7817459305203, 60.));
#274 = CARTESIAN_POINT('', (-77.7817459305203, 77.7817459305203, 60.));
#275 = DRAUGHTING_MODEL('', (#283), #286);
#276 = PRESENTATION_STYLE_ASSIGNMENT((#277));
#277 = SURFACE_STYLE_USAGE(.POSITIVE., #278);
#278 = SURFACE_SIDE_STYLE('', (#279));
#279 = SURFACE_STYLE_FILL_AREA(#280);
#280 = FILL_AREA_STYLE('', (#281));
#281 = FILL_AREA_STYLE_COLOUR('', #282);
#282 = COLOUR_RGB('', 0.50196078431373, 0.50196078431373, 0.50196078431373);
#283 = STYLED_ITEM('', (#276), #199);
#284 = CARTESIAN_POINT('Origin', (0., 0., 0.));
#285 = GEOMETRIC_SET('', (#284));
#286 = (
   GEOMETRIC_REPRESENTATION_CONTEXT (3)
   GLOBAL_UNCERTAINTY_ASSIGNED_CONTEXT ((#288))
   GLOBAL_UNIT_ASSIGNED_CONTEXT ((#287, #289, #290))
   REPRESENTATION_CONTEXT ('', '3D')
);
#287 = (
   LENGTH_UNIT ()
   NAMED_UNIT (*)
   SI_UNIT (.MILLI., .METRE.)
);
#288 = UNCERTAINTY_MEASURE_WITH_UNIT(LENGTH_MEASURE(1.E-6), #287, 'DISTANCE_ACCURACY_VALUE', '');
#289 = (
   NAMED_UNIT (*)
   SI_UNIT ($, .STERADIAN.)
   SOLID_ANGLE_UNIT ()
);
#290 = (
   NAMED_UNIT (*)
   PLANE_ANGLE_UNIT ()
   SI_UNIT ($, .RADIAN.)
);
#291 = SHAPE_REPRESENTATION('', (#312), #286);
#292 = PRODUCT_DEFINITION_SHAPE('', '', #293);
#293 = PRODUCT_DEFINITION('', '', #296, #300);
#294 = APPLICATION_CONTEXT('configuration controlled 3D designs of mechanical parts and assemblies');
#295 = APPLICATION_PROTOCOL_DEFINITION('International Standard', 'automotive_design', 2002, #294);
#296 = PRODUCT_DEFINITION_FORMATION_WITH_SPECIFIED_SOURCE('', '', #297, .NOT_KNOWN.);
#297 = PRODUCT('Shaft', 'Shaft', '', (#298));
#298 = PRODUCT_CONTEXT('', #294, 'mechanical');
#299 = PRODUCT_RELATED_PRODUCT_CATEGORY('detail', '', (#297));
#300 = PRODUCT_DEFINITION_CONTEXT('part definition', #294, 'design');
#301 = SHAPE_DEFINITION_REPRESENTATION(#292, #291);
#302 = SHAPE_REPRESENTATION_RELATIONSHIP('', '', #291, #303);
#303 = SHAPE_REPRESENTATION('', (#285), #286);
#304 = SHAPE_REPRESENTATION_RELATIONSHIP('', '', #291, #305);
#305 = ADVANCED_BREP_SHAPE_REPRESENTATION('', (#199), #286);
#306 = NEXT_ASSEMBLY_USAGE_OCCURRENCE('', 'Shaft_1', 'Shaft_1', #8, #293, '');
#307 = PRODUCT_DEFINITION_SHAPE('', '', #306);
#308 = AXIS2_PLACEMENT_3D('', #309, #310, #311);
#309 = CARTESIAN_POINT('', (0., 0., 30.));
#310 = DIRECTION('', (0., 0., 1.));
#311 = DIRECTION('', (1., 0., 0.));
#312 = AXIS2_PLACEMENT_3D('', #313, #314, #315);
#313 = CARTESIAN_POINT('', (0., 0., 0.));
#314 = DIRECTION('', (0., 0., 1.));
#315 = DIRECTION('', (1., 0., 0.));
#316 = ITEM_DEFINED_TRANSFORMATION('', '', #308, #312);
#317 = (
   REPRESENTATION_RELATIONSHIP ('', '', #6, #291)
   REPRESENTATION_RELATIONSHIP_WITH_TRANSFORMATION (#316)
   SHAPE_REPRESENTATION_RELATIONSHIP ()
);
#318 = CONTEXT_DEPENDENT_SHAPE_REPRESENTATION(#317, #307);
#319 = MANIFOLD_SOLID_BREP('HousingBox_0', #320);
#320 = CLOSED_SHELL('', (#321, #357, #385, #413, #433, #445));
#321 = ADVANCED_FACE('', (#322), #352, .T.);
#322 = FACE_OUTER_BOUND('', #323, .T.);
#323 = EDGE_LOOP('', (#324, #333, #340, #347));
#324 = ORIENTED_EDGE('', *, *, #325, .T.);
#325 = EDGE_CURVE('', #326, #328, #330, .T.);
#326 = VERTEX_POINT('', #327);
#327 = CARTESIAN_POINT('', (0., 100., 0.));
#328 = VERTEX_POINT('', #329);
#329 = CARTESIAN_POINT('', (0., 100., 50.));
#330 = B_SPLINE_CURVE_WITH_KNOTS('', 1, (#331, #332), .UNSPECIFIED., .F., .U., (2, 2), (0., 50.), .UNSPECIFIED.);
#331 = CARTESIAN_POINT('', (0., 100., 0.));
#332 = CARTESIAN_POINT('', (0., 100., 50.));
#333 = ORIENTED_EDGE('', *, *, #334, .T.);
#334 = EDGE_CURVE('', #328, #335, #337, .T.);
#335 = VERTEX_POINT('', #336);
#336 = CARTESIAN_POINT('', (100., 100., 50.));
#337 = B_SPLINE_CURVE_WITH_KNOTS('', 1, (#338, #339), .UNSPECIFIED., .F., .U., (2, 2), (0., 100.), .UNSPECIFIED.);
#338 = CARTESIAN_POINT('', (0., 100., 50.));
#339 = CARTESIAN_POINT('', (100., 100., 50.));
#340 = ORIENTED_EDGE('', *, *, #341, .F.);
#341 = EDGE_CURVE('', #342, #335, #344, .T.);
#342 = VERTEX_POINT('', #343);
#343 = CARTESIAN_POINT('', (100., 100., 0.));
#344 = B_SPLINE_CURVE_WITH_KNOTS('', 1, (#345, #346), .UNSPECIFIED., .F., .U., (2, 2), (0., 50.), .UNSPECIFIED.);
#345 = CARTESIAN_POINT('', (100., 100., 0.));
#346 = CARTESIAN_POINT('', (100., 100., 50.));
#347 = ORIENTED_EDGE('', *, *, #348, .F.);
#348 = EDGE_CURVE('', #326, #342, #349, .T.);
#349 = B_SPLINE_CURVE_WITH_KNOTS('', 1, (#350, #351), .UNSPECIFIED., .F., .U., (2, 2), (0., 100.), .UNSPECIFIED.);
#350 = CARTESIAN_POINT('', (0., 100., 0.));
#351 = CARTESIAN_POINT('', (100., 100., 0.));
#352 = B_SPLINE_SURFACE_WITH_KNOTS('', 1, 1, ((#353, #354), (#355, #356)), .UNSPECIFIED., .F., .F., .U., (2, 2), (2, 2), (0., 50.), (0., 100.), .UNSPECIFIED.);
#353 = CARTESIAN_POINT('', (0., 100., 0.));
#354 = CARTESIAN_POINT('', (100., 100., 0.));
#355 = CARTESIAN_POINT('', (0., 100., 50.));
#356 = CARTESIAN_POINT('', (100., 100., 50.));
#357 = ADVANCED_FACE('', (#358), #380, .T.);
#358 = FACE_OUTER_BOUND('', #359, .T.);
#359 = EDGE_LOOP('', (#360, #367, #374, #379));
#360 = ORIENTED_EDGE('', *, *, #361, .F.);
#361 = EDGE_CURVE('', #362, #328, #364, .T.);
#362 = VERTEX_POINT('', #363);
#363 = CARTESIAN_POINT('', (0., 0., 50.));
#364 = B_SPLINE_CURVE_WITH_KNOTS('', 1, (#365, #366), .UNSPECIFIED., .F., .U., (2, 2), (0., 100.), .UNSPECIFIED.);
#365 = CARTESIAN_POINT('', (0., 0., 50.));
#366 = CARTESIAN_POINT('', (0., 100., 50.));
#367 = ORIENTED_EDGE('', *, *, #368, .T.);
#368 = EDGE_CURVE('', #362, #369, #371, .T.);
#369 = VERTEX_POINT('', #370);
#370 = CARTESIAN_POINT('', (100., 0., 50.));
#371 = B_SPLINE_CURVE_WITH_KNOTS('', 1, (#372, #373), .UNSPECIFIED., .F., .U., (2, 2), (0., 100.), .UNSPECIFIED.);
#372 = CARTESIAN_POINT('', (0., 0., 50.));
#373 = CARTESIAN_POINT('', (100., 0., 50.));
#374 = ORIENTED_EDGE('', *, *, #375, .T.);
#375 = EDGE_CURVE('', #369, #335, #376, .T.);
#376 = B_SPLINE_CURVE_WITH_KNOTS('', 1, (#377, #378), .UNSPECIFIED., .F., .U., (2, 2), (0., 100.), .UNSPECIFIED.);
#377 = CARTESIAN_POINT('', (100., 0., 50.));
#378 = CARTESIAN_POINT('', (100., 100., 50.));
#379 = ORIENTED_EDGE('', *, *, #334, .F.);
#380 = B_SPLINE_SURFACE_WITH_KNOTS('', 1, 1, ((#381, #382), (#383, #384)), .UNSPECIFIED., .F., .F., .U., (2, 2), (2, 2), (0., 100.), (0., 100.), .UNSPECIFIED.);
#381 = CARTESIAN_POINT('', (0., 0., 50.));
#382 = CARTESIAN_POINT('', (0., 100., 50.));
#383 = CARTESIAN_POINT('', (100., 0., 50.));
#384 = CARTESIAN_POINT('', (100., 100., 50.));
#385 = ADVANCED_FACE('', (#386), #408, .T.);
#386 = FACE_OUTER_BOUND('', #387, .T.);
#387 = EDGE_LOOP('', (#388, #395, #402, #407));
#388 = ORIENTED_EDGE('', *, *, #389, .F.);
#389 = EDGE_CURVE('', #390, #362, #392, .T.);
#390 = VERTEX_POINT('', #391);
#391 = CARTESIAN_POINT('', (0., 0., 0.));
#392 = B_SPLINE_CURVE_WITH_KNOTS('', 1, (#393, #394), .UNSPECIFIED., .F., .U., (2, 2), (0., 50.), .UNSPECIFIED.);
#393 = CARTESIAN_POINT('', (0., 0., 0.));
#394 = CARTESIAN_POINT('', (0., 0., 50.));
#395 = ORIENTED_EDGE('', *, *, #396, .T.);
#396 = EDGE_CURVE('', #390, #397, #399, .T.);
#397 = VERTEX_POINT('', #398);
#398 = CARTESIAN_POINT('', (100., 0., 0.));
#399 = B_SPLINE_CURVE_WITH_KNOTS('', 1, (#400, #401), .UNSPECIFIED., .F., .U., (2, 2), (0., 100.), .UNSPECIFIED.);
#400 = CARTESIAN_POINT('', (0., 0., 0.));
#401 = CARTESIAN_POINT('', (100., 0., 0.));
#402 = ORIENTED_EDGE('', *, *, #403, .T.);
#403 = EDGE_CURVE('', #397, #369, #404, .T.);
#404 = B_SPLINE_CURVE_WITH_KNOTS('', 1, (#405, #406), .UNSPECIFIED., .F., .U., (2, 2), (0., 50.), .UNSPECIFIED.);
#405 = CARTESIAN_POINT('', (100., 0., 0.));
#406 = CARTESIAN_POINT('', (100., 0., 50.));
#407 = ORIENTED_EDGE('', *, *, #368, .F.);
#408 = B_SPLINE_SURFACE_WITH_KNOTS('', 1, 1, ((#409, #410), (#411, #412)), .UNSPECIFIED., .F., .F., .U., (2, 2), (2, 2), (0., 100.), (0., 50.), .UNSPECIFIED.);
#409 = CARTESIAN_POINT('', (0., 0., 0.));
#410 = CARTESIAN_POINT('', (0., 0., 50.));
#411 = CARTESIAN_POINT('', (100., 0., 0.));
#412 = CARTESIAN_POINT('', (100., 0., 50.));
#413 = ADVANCED_FACE('', (#414), #428, .T.);
#414 = FACE_OUTER_BOUND('', #415, .T.);
#415 = EDGE_LOOP('', (#416, #421, #422, #427));
#416 = ORIENTED_EDGE('', *, *, #417, .T.);
#417 = EDGE_CURVE('', #390, #326, #418, .T.);
#418 = B_SPLINE_CURVE_WITH_KNOTS('', 1, (#419, #420), .UNSPECIFIED., .F., .U., (2, 2), (0., 100.), .UNSPECIFIED.);
#419 = CARTESIAN_POINT('', (0., 0., 0.));
#420 = CARTESIAN_POINT('', (0., 100., 0.));
#421 = ORIENTED_EDGE('', *, *, #348, .T.);
#422 = ORIENTED_EDGE('', *, *, #423, .F.);
#423 = EDGE_CURVE('', #397, #342, #424, .T.);
#424 = B_SPLINE_CURVE_WITH_KNOTS('', 1, (#425, #426), .UNSPECIFIED., .F., .U., (2, 2), (0., 100.), .UNSPECIFIED.);
#425 = CARTESIAN_POINT('', (100., 0., 0.));
#426 = CARTESIAN_POINT('', (100., 100., 0.));
#427 = ORIENTED_EDGE('', *, *, #396, .F.);
#428 = B_SPLINE_SURFACE_WITH_KNOTS('', 1, 1, ((#429, #430), (#431, #432)), .UNSPECIFIED., .F., .F., .U., (2, 2), (2, 2), (0., 100.), (0., 100.), .UNSPECIFIED.);
#429 = CARTESIAN_POINT('', (0., 0., 0.));
#430 = CARTESIAN_POINT('', (100., 0., 0.));
#431 = CARTESIAN_POINT('', (0., 100., 0.));
#432 = CARTESIAN_POINT('', (100., 100., 0.));
#433 = ADVANCED_FACE('', (#434), #440, .T.);
#434 = FACE_OUTER_BOUND('', #435, .T.);
#435 = EDGE_LOOP('', (#436, #437, #438, #439));
#436 = ORIENTED_EDGE('', *, *, #403, .F.);
#437 = ORIENTED_EDGE('', *, *, #423, .T.);
#438 = ORIENTED_EDGE('', *, *, #341, .T.);
#439 = ORIENTED_EDGE('', *, *, #375, .F.);
#440 = B_SPLINE_SURFACE_WITH_KNOTS('', 1, 1, ((#441, #442), (#443, #444)), .UNSPECIFIED., .F., .F., .U., (2, 2), (2, 2), (0., 100.), (0., 50.), .UNSPECIFIED.);
#441 = CARTESIAN_POINT('', (100., 0., 0.));
#442 = CARTESIAN_POINT('', (100., 0., 50.));
#443 = CARTESIAN_POINT('', (100., 100., 0.));
#444 = CARTESIAN_POINT('', (100., 100., 50.));
#445 = ADVANCED_FACE('', (#446), #452, .T.);
#446 = FACE_OUTER_BOUND('', #447, .T.);
#447 = EDGE_LOOP('', (#448, #449, #450, #451));
#448 = ORIENTED_EDGE('', *, *, #389, .T.);
#449 = ORIENTED_EDGE('', *, *, #361, .T.);
#450 = ORIENTED_EDGE('', *, *, #325, .F.);
#451 = ORIENTED_EDGE('', *, *, #417, .F.);
#452 = B_SPLINE_SURFACE_WITH_KNOTS('', 1, 1, ((#453, #454), (#455, #456)), .UNSPECIFIED., .F., .F., .U., (2, 2), (2, 2), (0., 50.), (0., 100.), .UNSPECIFIED.);
#453 = CARTESIAN_POINT('', (0., 0., 0.));
#454 = CARTESIAN_POINT('', (0., 100., 0.));
#455 = CARTESIAN_POINT('', (0., 0., 50.));
#456 = CARTESIAN_POINT('', (0., 100., 50.));
#457 = DRAUGHTING_MODEL('', (#465), #468);
#458 = PRESENTATION_STYLE_ASSIGNMENT((#459));
#459 = SURFACE_STYLE_USAGE(.POSITIVE., #460);
#460 = SURFACE_SIDE_STYLE('', (#461));
#461 = SURFACE_STYLE_FILL_AREA(#462);
#462 = FILL_AREA_STYLE('', (#463));
#463 = FILL_AREA_STYLE_COLOUR('', #464);
#464 = COLOUR_RGB('', 0.50196078431373, 0.50196078431373, 0.50196078431373);
#465 = STYLED_ITEM('', (#458), #319);
#466 = CARTESIAN_POINT('Origin', (0., 0., 0.));
#467 = GEOMETRIC_SET('', (#466));
#468 = (
   GEOMETRIC_REPRESENTATION_CONTEXT (3)
   GLOBAL_UNCERTAINTY_ASSIGNED_CONTEXT ((#470))
   GLOBAL_UNIT_ASSIGNED_CONTEXT ((#469, #471, #472))
   REPRESENTATION_CONTEXT ('', '3D')
);
#469 = (
   LENGTH_UNIT ()
   NAMED_UNIT (*)
   SI_UNIT (.MILLI., .METRE.)
);
#470 = UNCERTAINTY_MEASURE_WITH_UNIT(LENGTH_MEASURE(1.E-6), #469, 'DISTANCE_ACCURACY_VALUE', '');
#471 = (
   NAMED_UNIT (*)
   SI_UNIT ($, .STERADIAN.)
   SOLID_ANGLE_UNIT ()
);
#472 = (
   NAMED_UNIT (*)
   PLANE_ANGLE_UNIT ()
   SI_UNIT ($, .RADIAN.)
);
#473 = SHAPE_REPRESENTATION('', (#494), #468);
#474 = PRODUCT_DEFINITION_SHAPE('', '', #475);
#475 = PRODUCT_DEFINITION('', '', #478, #482);
#476 = APPLICATION_CONTEXT('configuration controlled 3D designs of mechanical parts and assemblies');
#477 = APPLICATION_PROTOCOL_DEFINITION('International Standard', 'automotive_design', 2002, #476);
#478 = PRODUCT_DEFINITION_FORMATION_WITH_SPECIFIED_SOURCE('', '', #479, .NOT_KNOWN.);
#479 = PRODUCT('Housing', 'Housing', '', (#480));
#480 = PRODUCT_CONTEXT('', #476, 'mechanical');
#481 = PRODUCT_RELATED_PRODUCT_CATEGORY('detail', '', (#479));
#482 = PRODUCT_DEFINITION_CONTEXT('part definition', #476, 'design');
#483 = SHAPE_DEFINITION_REPRESENTATION(#474, #473);
#484 = SHAPE_REPRESENTATION_RELATIONSHIP('', '', #473, #485);
#485 = SHAPE_REPRESENTATION('', (#467), #468);
#486 = SHAPE_REPRESENTATION_RELATIONSHIP('', '', #473, #487);
#487 = ADVANCED_BREP_SHAPE_REPRESENTATION('', (#319), #468);
#488 = NEXT_ASSEMBLY_USAGE_OCCURRENCE('', 'Housing_1', 'Housing_1', #8, #475, '');
#489 = PRODUCT_DEFINITION_SHAPE('', '', #488);
#490 = AXIS2_PLACEMENT_3D('', #491, #492, #493);
#491 = CARTESIAN_POINT('', (-10., -30., 0.));
#492 = DIRECTION('', (0., 0., 1.));
#493 = DIRECTION('', (1., 0., 0.));
#494 = AXIS2_PLACEMENT_3D('', #495, #496, #497);
#495 = CARTESIAN_POINT('', (0., 0., 0.));
#496 = DIRECTION('', (0., 0., 1.));
#497 = DIRECTION('', (1., 0., 0.));
#498 = ITEM_DEFINED_TRANSFORMATION('', '', #490, #494);
#499 = (
   REPRESENTATION_RELATIONSHIP ('', '', #6, #473)
   REPRESENTATION_RELATIONSHIP_WITH_TRANSFORMATION (#498)
   SHAPE_REPRESENTATION_RELATIONSHIP ()
);
#500 = CONTEXT_DEPENDENT_SHAPE_REPRESENTATION(#499, #489);
#501 = DRAUGHTING_MODEL('', (), #1);
#502 = REPRESENTATION_RELATIONSHIP('', '', #155, #501);
#503 = REPRESENTATION_RELATIONSHIP('', '', #275, #501);
#504 = REPRESENTATION_RELATIONSHIP('', '', #457, #501);
ENDSEC;
END-ISO-10303-21;
