ISO-10303-21;
HEADER;
FILE_DESCRIPTION(('STEP'), '1');
FILE_NAME('LiquidMixerV2', '2026-06-10T00:49:55', (''), (''), 'Express 3.1.3.0', 'Express Tool', 'Unknown');
FILE_SCHEMA(('AUTOMOTIVE_DESIGN'));
ENDSEC;

DATA;
#1 = MANIFOLD_SOLID_BREP('Block_0', #2);
#2 = CLOSED_SHELL('', (#3, #43, #86, #108, #130, #161, #179, #195));
#3 = ADVANCED_FACE('', (#4), #36, .T.);
#4 = FACE_OUTER_BOUND('', #5, .T.);
#5 = EDGE_LOOP('', (#6, #15, #23, #30));
#6 = ORIENTED_EDGE('', *, *, #7, .F.);
#7 = EDGE_CURVE('', #8, #10, #12, .T.);
#8 = VERTEX_POINT('', #9);
#9 = CARTESIAN_POINT('', (0., 10., 0.));
#10 = VERTEX_POINT('', #11);
#11 = CARTESIAN_POINT('', (0., 10., 35.));
#12 = B_SPLINE_CURVE_WITH_KNOTS('', 1, (#13, #14), .UNSPECIFIED., .F., .U., (2, 2), (0., 35.), .UNSPECIFIED.);
#13 = CARTESIAN_POINT('', (0., 10., 0.));
#14 = CARTESIAN_POINT('', (0., 10., 35.));
#15 = ORIENTED_EDGE('', *, *, #16, .T.);
#16 = EDGE_CURVE('', #8, #17, #19, .T.);
#17 = VERTEX_POINT('', #18);
#18 = CARTESIAN_POINT('', (10., -5.32907051820075E-15, 0.));
#19 = (
   BOUNDED_CURVE ()
   B_SPLINE_CURVE (2, (#20, #21, #22), .UNSPECIFIED., .F., .U.)
   B_SPLINE_CURVE_WITH_KNOTS ((3, 3), (0., 1.), .UNSPECIFIED.)
   CURVE ()
   GEOMETRIC_REPRESENTATION_ITEM ()
   RATIONAL_B_SPLINE_CURVE ((1., 0.707106781186547, 1.))
   REPRESENTATION_ITEM ('')
);
#20 = CARTESIAN_POINT('', (0., 10., 0.));
#21 = CARTESIAN_POINT('', (-7.10542735760101E-15, -6.79926565781416E-15, 0.));
#22 = CARTESIAN_POINT('', (10., -5.32907051820075E-15, 0.));
#23 = ORIENTED_EDGE('', *, *, #24, .T.);
#24 = EDGE_CURVE('', #17, #25, #27, .T.);
#25 = VERTEX_POINT('', #26);
#26 = CARTESIAN_POINT('', (10., -5.32907051820075E-15, 35.));
#27 = B_SPLINE_CURVE_WITH_KNOTS('', 1, (#28, #29), .UNSPECIFIED., .F., .U., (2, 2), (0., 35.), .UNSPECIFIED.);
#28 = CARTESIAN_POINT('', (10., -5.32907051820075E-15, 0.));
#29 = CARTESIAN_POINT('', (10., -5.32907051820075E-15, 35.));
#30 = ORIENTED_EDGE('', *, *, #31, .F.);
#31 = EDGE_CURVE('', #10, #25, #32, .T.);
#32 = (
   BOUNDED_CURVE ()
   B_SPLINE_CURVE (2, (#33, #34, #35), .UNSPECIFIED., .F., .U.)
   B_SPLINE_CURVE_WITH_KNOTS ((3, 3), (0., 1.), .UNSPECIFIED.)
   CURVE ()
   GEOMETRIC_REPRESENTATION_ITEM ()
   RATIONAL_B_SPLINE_CURVE ((1., 0.707106781186547, 1.))
   REPRESENTATION_ITEM ('')
);
#33 = CARTESIAN_POINT('', (0., 10., 35.));
#34 = CARTESIAN_POINT('', (-7.10542735760101E-15, -6.79926565781416E-15, 35.));
#35 = CARTESIAN_POINT('', (10., -5.32907051820075E-15, 35.));
#36 = (
   BOUNDED_SURFACE ()
   B_SPLINE_SURFACE (2, 1, ((#37, #38), (#39, #40), (#41, #42)), .UNSPECIFIED., .F., .F., .U.)
   B_SPLINE_SURFACE_WITH_KNOTS ((3, 3), (2, 2), (0., 90.0000000000001), (0., 35.), .UNSPECIFIED.)
   GEOMETRIC_REPRESENTATION_ITEM ()
   RATIONAL_B_SPLINE_SURFACE (((1., 1.), (0.707106781186547, 0.707106781186547), (1., 1.)))
   REPRESENTATION_ITEM ('')
   SURFACE ()
);
#37 = CARTESIAN_POINT('', (0., 10., 0.));
#38 = CARTESIAN_POINT('', (0., 10., 35.));
#39 = CARTESIAN_POINT('', (-7.10542735760101E-15, -6.79926565781416E-15, 0.));
#40 = CARTESIAN_POINT('', (-7.10542735760101E-15, -6.79926565781416E-15, 35.));
#41 = CARTESIAN_POINT('', (10., -5.32907051820075E-15, 0.));
#42 = CARTESIAN_POINT('', (10., -5.32907051820075E-15, 35.));
#43 = ADVANCED_FACE('', (#44), #81, .T.);
#44 = FACE_OUTER_BOUND('', #45, .T.);
#45 = EDGE_LOOP('', (#46, #47, #54, #62, #69, #76));
#46 = ORIENTED_EDGE('', *, *, #16, .F.);
#47 = ORIENTED_EDGE('', *, *, #48, .F.);
#48 = EDGE_CURVE('', #49, #8, #51, .T.);
#49 = VERTEX_POINT('', #50);
#50 = CARTESIAN_POINT('', (0., 70., 0.));
#51 = B_SPLINE_CURVE_WITH_KNOTS('', 1, (#52, #53), .UNSPECIFIED., .F., .U., (2, 2), (0., 1.), .UNSPECIFIED.);
#52 = CARTESIAN_POINT('', (0., 70., 0.));
#53 = CARTESIAN_POINT('', (0., 10., 0.));
#54 = ORIENTED_EDGE('', *, *, #55, .F.);
#55 = EDGE_CURVE('', #56, #49, #58, .T.);
#56 = VERTEX_POINT('', #57);
#57 = CARTESIAN_POINT('', (10., 80., 0.));
#58 = (
   BOUNDED_CURVE ()
   B_SPLINE_CURVE (2, (#59, #60, #61), .UNSPECIFIED., .F., .U.)
   B_SPLINE_CURVE_WITH_KNOTS ((3, 3), (0., 90.), .UNSPECIFIED.)
   CURVE ()
   GEOMETRIC_REPRESENTATION_ITEM ()
   RATIONAL_B_SPLINE_CURVE ((1., 0.707106781186548, 1.))
   REPRESENTATION_ITEM ('')
);
#59 = CARTESIAN_POINT('', (10., 80., 0.));
#60 = CARTESIAN_POINT('', (3.06161699786838E-16, 80., 0.));
#61 = CARTESIAN_POINT('', (0., 70., 0.));
#62 = ORIENTED_EDGE('', *, *, #63, .F.);
#63 = EDGE_CURVE('', #64, #56, #66, .T.);
#64 = VERTEX_POINT('', #65);
#65 = CARTESIAN_POINT('', (120., 80., 0.));
#66 = B_SPLINE_CURVE_WITH_KNOTS('', 1, (#67, #68), .UNSPECIFIED., .F., .U., (2, 2), (0., 1.), .UNSPECIFIED.);
#67 = CARTESIAN_POINT('', (120., 80., 0.));
#68 = CARTESIAN_POINT('', (10., 80., 0.));
#69 = ORIENTED_EDGE('', *, *, #70, .F.);
#70 = EDGE_CURVE('', #71, #64, #73, .T.);
#71 = VERTEX_POINT('', #72);
#72 = CARTESIAN_POINT('', (120., 0., 0.));
#73 = B_SPLINE_CURVE_WITH_KNOTS('', 1, (#74, #75), .UNSPECIFIED., .F., .U., (2, 2), (0., 1.), .UNSPECIFIED.);
#74 = CARTESIAN_POINT('', (120., 0., 0.));
#75 = CARTESIAN_POINT('', (120., 80., 0.));
#76 = ORIENTED_EDGE('', *, *, #77, .F.);
#77 = EDGE_CURVE('', #17, #71, #78, .T.);
#78 = B_SPLINE_CURVE_WITH_KNOTS('', 1, (#79, #80), .UNSPECIFIED., .F., .U., (2, 2), (0., 1.), .UNSPECIFIED.);
#79 = CARTESIAN_POINT('', (10., 0., 0.));
#80 = CARTESIAN_POINT('', (120., 0., 0.));
#81 = B_SPLINE_SURFACE_WITH_KNOTS('', 1, 1, ((#82, #83), (#84, #85)), .UNSPECIFIED., .F., .F., .U., (2, 2), (2, 2), (0., 1.), (0., 1.), .UNSPECIFIED.);
#82 = CARTESIAN_POINT('', (139.322128060208, -39.3221280602078, 0.));
#83 = CARTESIAN_POINT('', (139.322128060208, 119.322128060208, 0.));
#84 = CARTESIAN_POINT('', (-19.3221280602078, -39.3221280602078, 0.));
#85 = CARTESIAN_POINT('', (-19.3221280602078, 119.322128060208, 0.));
#86 = ADVANCED_FACE('', (#87), #103, .T.);
#87 = FACE_OUTER_BOUND('', #88, .T.);
#88 = EDGE_LOOP('', (#89, #90, #91, #98));
#89 = ORIENTED_EDGE('', *, *, #24, .F.);
#90 = ORIENTED_EDGE('', *, *, #77, .T.);
#91 = ORIENTED_EDGE('', *, *, #92, .T.);
#92 = EDGE_CURVE('', #71, #93, #95, .T.);
#93 = VERTEX_POINT('', #94);
#94 = CARTESIAN_POINT('', (120., 0., 35.));
#95 = B_SPLINE_CURVE_WITH_KNOTS('', 1, (#96, #97), .UNSPECIFIED., .F., .U., (2, 2), (0., 1.), .UNSPECIFIED.);
#96 = CARTESIAN_POINT('', (120., 0., 0.));
#97 = CARTESIAN_POINT('', (120., 0., 35.));
#98 = ORIENTED_EDGE('', *, *, #99, .F.);
#99 = EDGE_CURVE('', #25, #93, #100, .T.);
#100 = B_SPLINE_CURVE_WITH_KNOTS('', 1, (#101, #102), .UNSPECIFIED., .F., .U., (2, 2), (0., 1.), .UNSPECIFIED.);
#101 = CARTESIAN_POINT('', (10., 0., 35.));
#102 = CARTESIAN_POINT('', (120., 0., 35.));
#103 = B_SPLINE_SURFACE_WITH_KNOTS('', 1, 1, ((#104, #105), (#106, #107)), .UNSPECIFIED., .F., .F., .U., (2, 2), (2, 2), (0., 1.), (0., 1.), .UNSPECIFIED.);
#104 = CARTESIAN_POINT('', (10., 0., 0.));
#105 = CARTESIAN_POINT('', (10., 0., 35.));
#106 = CARTESIAN_POINT('', (120., 0., 0.));
#107 = CARTESIAN_POINT('', (120., 0., 35.));
#108 = ADVANCED_FACE('', (#109), #125, .T.);
#109 = FACE_OUTER_BOUND('', #110, .T.);
#110 = EDGE_LOOP('', (#111, #118, #119, #120));
#111 = ORIENTED_EDGE('', *, *, #112, .F.);
#112 = EDGE_CURVE('', #49, #113, #115, .T.);
#113 = VERTEX_POINT('', #114);
#114 = CARTESIAN_POINT('', (0., 70., 35.));
#115 = B_SPLINE_CURVE_WITH_KNOTS('', 1, (#116, #117), .UNSPECIFIED., .F., .U., (2, 2), (0., 35.), .UNSPECIFIED.);
#116 = CARTESIAN_POINT('', (0., 70., 0.));
#117 = CARTESIAN_POINT('', (0., 70., 35.));
#118 = ORIENTED_EDGE('', *, *, #48, .T.);
#119 = ORIENTED_EDGE('', *, *, #7, .T.);
#120 = ORIENTED_EDGE('', *, *, #121, .F.);
#121 = EDGE_CURVE('', #113, #10, #122, .T.);
#122 = B_SPLINE_CURVE_WITH_KNOTS('', 1, (#123, #124), .UNSPECIFIED., .F., .U., (2, 2), (0., 1.), .UNSPECIFIED.);
#123 = CARTESIAN_POINT('', (0., 70., 35.));
#124 = CARTESIAN_POINT('', (0., 10., 35.));
#125 = B_SPLINE_SURFACE_WITH_KNOTS('', 1, 1, ((#126, #127), (#128, #129)), .UNSPECIFIED., .F., .F., .U., (2, 2), (2, 2), (0., 1.), (0., 1.), .UNSPECIFIED.);
#126 = CARTESIAN_POINT('', (0., 70., 0.));
#127 = CARTESIAN_POINT('', (0., 70., 35.));
#128 = CARTESIAN_POINT('', (0., 10., 0.));
#129 = CARTESIAN_POINT('', (0., 10., 35.));
#130 = ADVANCED_FACE('', (#131), #156, .T.);
#131 = FACE_OUTER_BOUND('', #132, .T.);
#132 = EDGE_LOOP('', (#133, #134, #135, #142, #149, #155));
#133 = ORIENTED_EDGE('', *, *, #31, .T.);
#134 = ORIENTED_EDGE('', *, *, #99, .T.);
#135 = ORIENTED_EDGE('', *, *, #136, .T.);
#136 = EDGE_CURVE('', #93, #137, #139, .T.);
#137 = VERTEX_POINT('', #138);
#138 = CARTESIAN_POINT('', (120., 80., 35.));
#139 = B_SPLINE_CURVE_WITH_KNOTS('', 1, (#140, #141), .UNSPECIFIED., .F., .U., (2, 2), (0., 1.), .UNSPECIFIED.);
#140 = CARTESIAN_POINT('', (120., 0., 35.));
#141 = CARTESIAN_POINT('', (120., 80., 35.));
#142 = ORIENTED_EDGE('', *, *, #143, .T.);
#143 = EDGE_CURVE('', #137, #144, #146, .T.);
#144 = VERTEX_POINT('', #145);
#145 = CARTESIAN_POINT('', (10., 80., 35.));
#146 = B_SPLINE_CURVE_WITH_KNOTS('', 1, (#147, #148), .UNSPECIFIED., .F., .U., (2, 2), (0., 1.), .UNSPECIFIED.);
#147 = CARTESIAN_POINT('', (120., 80., 35.));
#148 = CARTESIAN_POINT('', (10., 80., 35.));
#149 = ORIENTED_EDGE('', *, *, #150, .T.);
#150 = EDGE_CURVE('', #144, #113, #151, .T.);
#151 = (
   BOUNDED_CURVE ()
   B_SPLINE_CURVE (2, (#152, #153, #154), .UNSPECIFIED., .F., .U.)
   B_SPLINE_CURVE_WITH_KNOTS ((3, 3), (0., 90.), .UNSPECIFIED.)
   CURVE ()
   GEOMETRIC_REPRESENTATION_ITEM ()
   RATIONAL_B_SPLINE_CURVE ((1., 0.707106781186548, 1.))
   REPRESENTATION_ITEM ('')
);
#152 = CARTESIAN_POINT('', (10., 80., 35.));
#153 = CARTESIAN_POINT('', (3.06161699786838E-16, 80., 35.));
#154 = CARTESIAN_POINT('', (0., 70., 35.));
#155 = ORIENTED_EDGE('', *, *, #121, .T.);
#156 = B_SPLINE_SURFACE_WITH_KNOTS('', 1, 1, ((#157, #158), (#159, #160)), .UNSPECIFIED., .F., .F., .U., (2, 2), (2, 2), (0., 1.), (0., 1.), .UNSPECIFIED.);
#157 = CARTESIAN_POINT('', (139.322128060208, -39.3221280602078, 35.));
#158 = CARTESIAN_POINT('', (-19.3221280602078, -39.3221280602078, 35.));
#159 = CARTESIAN_POINT('', (139.322128060208, 119.322128060208, 35.));
#160 = CARTESIAN_POINT('', (-19.3221280602078, 119.322128060208, 35.));
#161 = ADVANCED_FACE('', (#162), #172, .T.);
#162 = FACE_OUTER_BOUND('', #163, .T.);
#163 = EDGE_LOOP('', (#164, #169, #170, #171));
#164 = ORIENTED_EDGE('', *, *, #165, .F.);
#165 = EDGE_CURVE('', #56, #144, #166, .T.);
#166 = B_SPLINE_CURVE_WITH_KNOTS('', 1, (#167, #168), .UNSPECIFIED., .F., .U., (2, 2), (0., 35.), .UNSPECIFIED.);
#167 = CARTESIAN_POINT('', (10., 80., 0.));
#168 = CARTESIAN_POINT('', (10., 80., 35.));
#169 = ORIENTED_EDGE('', *, *, #55, .T.);
#170 = ORIENTED_EDGE('', *, *, #112, .T.);
#171 = ORIENTED_EDGE('', *, *, #150, .F.);
#172 = (
   BOUNDED_SURFACE ()
   B_SPLINE_SURFACE (2, 1, ((#173, #174), (#175, #176), (#177, #178)), .UNSPECIFIED., .F., .F., .U.)
   B_SPLINE_SURFACE_WITH_KNOTS ((3, 3), (2, 2), (0., 90.), (0., 35.), .UNSPECIFIED.)
   GEOMETRIC_REPRESENTATION_ITEM ()
   RATIONAL_B_SPLINE_SURFACE (((1., 1.), (0.707106781186548, 0.707106781186548), (1., 1.)))
   REPRESENTATION_ITEM ('')
   SURFACE ()
);
#173 = CARTESIAN_POINT('', (10., 80., 0.));
#174 = CARTESIAN_POINT('', (10., 80., 35.));
#175 = CARTESIAN_POINT('', (3.06161699786838E-16, 80., 0.));
#176 = CARTESIAN_POINT('', (3.06161699786838E-16, 80., 35.));
#177 = CARTESIAN_POINT('', (0., 70., 0.));
#178 = CARTESIAN_POINT('', (0., 70., 35.));
#179 = ADVANCED_FACE('', (#180), #190, .T.);
#180 = FACE_OUTER_BOUND('', #181, .T.);
#181 = EDGE_LOOP('', (#182, #187, #188, #189));
#182 = ORIENTED_EDGE('', *, *, #183, .F.);
#183 = EDGE_CURVE('', #64, #137, #184, .T.);
#184 = B_SPLINE_CURVE_WITH_KNOTS('', 1, (#185, #186), .UNSPECIFIED., .F., .U., (2, 2), (0., 1.), .UNSPECIFIED.);
#185 = CARTESIAN_POINT('', (120., 80., 0.));
#186 = CARTESIAN_POINT('', (120., 80., 35.));
#187 = ORIENTED_EDGE('', *, *, #63, .T.);
#188 = ORIENTED_EDGE('', *, *, #165, .T.);
#189 = ORIENTED_EDGE('', *, *, #143, .F.);
#190 = B_SPLINE_SURFACE_WITH_KNOTS('', 1, 1, ((#191, #192), (#193, #194)), .UNSPECIFIED., .F., .F., .U., (2, 2), (2, 2), (0., 1.), (0., 1.), .UNSPECIFIED.);
#191 = CARTESIAN_POINT('', (120., 80., 0.));
#192 = CARTESIAN_POINT('', (120., 80., 35.));
#193 = CARTESIAN_POINT('', (10., 80., 0.));
#194 = CARTESIAN_POINT('', (10., 80., 35.));
#195 = ADVANCED_FACE('', (#196), #202, .T.);
#196 = FACE_OUTER_BOUND('', #197, .T.);
#197 = EDGE_LOOP('', (#198, #199, #200, #201));
#198 = ORIENTED_EDGE('', *, *, #92, .F.);
#199 = ORIENTED_EDGE('', *, *, #70, .T.);
#200 = ORIENTED_EDGE('', *, *, #183, .T.);
#201 = ORIENTED_EDGE('', *, *, #136, .F.);
#202 = B_SPLINE_SURFACE_WITH_KNOTS('', 1, 1, ((#203, #204), (#205, #206)), .UNSPECIFIED., .F., .F., .U., (2, 2), (2, 2), (0., 1.), (0., 1.), .UNSPECIFIED.);
#203 = CARTESIAN_POINT('', (120., 0., 0.));
#204 = CARTESIAN_POINT('', (120., 0., 35.));
#205 = CARTESIAN_POINT('', (120., 80., 0.));
#206 = CARTESIAN_POINT('', (120., 80., 35.));
#207 = DRAUGHTING_MODEL('', (#215), #216);
#208 = PRESENTATION_STYLE_ASSIGNMENT((#209));
#209 = SURFACE_STYLE_USAGE(.POSITIVE., #210);
#210 = SURFACE_SIDE_STYLE('', (#211));
#211 = SURFACE_STYLE_FILL_AREA(#212);
#212 = FILL_AREA_STYLE('', (#213));
#213 = FILL_AREA_STYLE_COLOUR('', #214);
#214 = COLOUR_RGB('', 0.50196078431373, 0.50196078431373, 0.50196078431373);
#215 = STYLED_ITEM('', (#208), #1);
#216 = (
   GEOMETRIC_REPRESENTATION_CONTEXT (3)
   GLOBAL_UNCERTAINTY_ASSIGNED_CONTEXT ((#218))
   GLOBAL_UNIT_ASSIGNED_CONTEXT ((#217, #219, #220))
   REPRESENTATION_CONTEXT ('', '3D')
);
#217 = (
   LENGTH_UNIT ()
   NAMED_UNIT (*)
   SI_UNIT (.MILLI., .METRE.)
);
#218 = UNCERTAINTY_MEASURE_WITH_UNIT(LENGTH_MEASURE(1.E-6), #217, 'DISTANCE_ACCURACY_VALUE', '');
#219 = (
   NAMED_UNIT (*)
   SI_UNIT ($, .STERADIAN.)
   SOLID_ANGLE_UNIT ()
);
#220 = (
   NAMED_UNIT (*)
   PLANE_ANGLE_UNIT ()
   SI_UNIT ($, .RADIAN.)
);
#221 = SHAPE_REPRESENTATION('', (#234), #216);
#222 = PRODUCT_DEFINITION_SHAPE('', '', #223);
#223 = PRODUCT_DEFINITION('', '', #226, #230);
#224 = APPLICATION_CONTEXT('configuration controlled 3D designs of mechanical parts and assemblies');
#225 = APPLICATION_PROTOCOL_DEFINITION('International Standard', 'automotive_design', 2002, #224);
#226 = PRODUCT_DEFINITION_FORMATION_WITH_SPECIFIED_SOURCE('', '', #227, .NOT_KNOWN.);
#227 = PRODUCT('LiquidMixerV2', 'LiquidMixerV2', '', (#228));
#228 = PRODUCT_CONTEXT('', #224, 'mechanical');
#229 = PRODUCT_RELATED_PRODUCT_CATEGORY('detail', '', (#227));
#230 = PRODUCT_DEFINITION_CONTEXT('part definition', #224, 'design');
#231 = SHAPE_DEFINITION_REPRESENTATION(#222, #221);
#232 = SHAPE_REPRESENTATION_RELATIONSHIP('', '', #221, #233);
#233 = ADVANCED_BREP_SHAPE_REPRESENTATION('', (#1), #216);
#234 = AXIS2_PLACEMENT_3D('', #235, #236, #237);
#235 = CARTESIAN_POINT('', (0., 0., 0.));
#236 = DIRECTION('', (0., 0., 1.));
#237 = DIRECTION('', (1., 0., 0.));
ENDSEC;
END-ISO-10303-21;
