ISO-10303-21;
HEADER;
FILE_DESCRIPTION(('STEP'), '1');
FILE_NAME('LiquidMixerV2', '2026-06-10T00:56:01', (''), (''), 'Express 3.1.3.0', 'Express Tool', 'Unknown');
FILE_SCHEMA(('AUTOMOTIVE_DESIGN'));
ENDSEC;

DATA;
#1 = MANIFOLD_SOLID_BREP('Subtraction_0', #2);
#2 = CLOSED_SHELL('', (#3, #43, #82, #119, #156, #175, #215, #308, #330, #352, #389, #407, #423, #435, #463, #511, #531, #553, #569, #581));
#3 = ADVANCED_FACE('', (#4), #36, .T.);
#4 = FACE_OUTER_BOUND('', #5, .T.);
#5 = EDGE_LOOP('', (#6, #15, #23, #30));
#6 = ORIENTED_EDGE('', *, *, #7, .T.);
#7 = EDGE_CURVE('', #8, #10, #12, .T.);
#8 = VERTEX_POINT('', #9);
#9 = CARTESIAN_POINT('', (54.1538461538462, 58.2544879786026, 35.));
#10 = VERTEX_POINT('', #11);
#11 = CARTESIAN_POINT('', (54.1538461538462, 58.2544879786026, 45.));
#12 = B_SPLINE_CURVE_WITH_KNOTS('', 1, (#13, #14), .UNSPECIFIED., .F., .U., (2, 2), (0., 10.), .UNSPECIFIED.);
#13 = CARTESIAN_POINT('', (54.1538461538462, 58.2544879786026, 35.));
#14 = CARTESIAN_POINT('', (54.1538461538462, 58.2544879786026, 45.));
#15 = ORIENTED_EDGE('', *, *, #16, .T.);
#16 = EDGE_CURVE('', #10, #17, #19, .T.);
#17 = VERTEX_POINT('', #18);
#18 = CARTESIAN_POINT('', (65.8461538461538, 58.2544879786026, 45.));
#19 = (
   BOUNDED_CURVE ()
   B_SPLINE_CURVE (2, (#20, #21, #22), .UNSPECIFIED., .F., .U.)
   B_SPLINE_CURVE_WITH_KNOTS ((3, 3), (0., 71.5516466891157), .UNSPECIFIED.)
   CURVE ()
   GEOMETRIC_REPRESENTATION_ITEM ()
   RATIONAL_B_SPLINE_CURVE ((1., 0.811310576826783, 1.))
   REPRESENTATION_ITEM ('')
);
#20 = CARTESIAN_POINT('', (54.1538461538462, 58.2544879786026, 45.));
#21 = CARTESIAN_POINT('', (60., 54.041857727118, 45.));
#22 = CARTESIAN_POINT('', (65.8461538461538, 58.2544879786026, 45.));
#23 = ORIENTED_EDGE('', *, *, #24, .F.);
#24 = EDGE_CURVE('', #25, #17, #27, .T.);
#25 = VERTEX_POINT('', #26);
#26 = CARTESIAN_POINT('', (65.8461538461538, 58.2544879786026, 35.));
#27 = B_SPLINE_CURVE_WITH_KNOTS('', 1, (#28, #29), .UNSPECIFIED., .F., .U., (2, 2), (0., 10.), .UNSPECIFIED.);
#28 = CARTESIAN_POINT('', (65.8461538461538, 58.2544879786026, 35.));
#29 = CARTESIAN_POINT('', (65.8461538461538, 58.2544879786026, 45.));
#30 = ORIENTED_EDGE('', *, *, #31, .F.);
#31 = EDGE_CURVE('', #8, #25, #32, .T.);
#32 = (
   BOUNDED_CURVE ()
   B_SPLINE_CURVE (2, (#33, #34, #35), .UNSPECIFIED., .F., .U.)
   B_SPLINE_CURVE_WITH_KNOTS ((3, 3), (0., 71.5516466891157), .UNSPECIFIED.)
   CURVE ()
   GEOMETRIC_REPRESENTATION_ITEM ()
   RATIONAL_B_SPLINE_CURVE ((1., 0.811310576826783, 1.))
   REPRESENTATION_ITEM ('')
);
#33 = CARTESIAN_POINT('', (54.1538461538462, 58.2544879786026, 35.));
#34 = CARTESIAN_POINT('', (60., 54.041857727118, 35.));
#35 = CARTESIAN_POINT('', (65.8461538461538, 58.2544879786026, 35.));
#36 = (
   BOUNDED_SURFACE ()
   B_SPLINE_SURFACE (1, 2, ((#37, #38, #39), (#40, #41, #42)), .UNSPECIFIED., .F., .F., .U.)
   B_SPLINE_SURFACE_WITH_KNOTS ((2, 2), (3, 3), (0., 10.), (0., 71.5516466891157), .UNSPECIFIED.)
   GEOMETRIC_REPRESENTATION_ITEM ()
   RATIONAL_B_SPLINE_SURFACE (((1., 0.811310576826783, 1.), (1., 0.811310576826783, 1.)))
   REPRESENTATION_ITEM ('')
   SURFACE ()
);
#37 = CARTESIAN_POINT('', (54.1538461538462, 58.2544879786026, 35.));
#38 = CARTESIAN_POINT('', (60., 54.041857727118, 35.));
#39 = CARTESIAN_POINT('', (65.8461538461538, 58.2544879786026, 35.));
#40 = CARTESIAN_POINT('', (54.1538461538462, 58.2544879786026, 45.));
#41 = CARTESIAN_POINT('', (60., 54.041857727118, 45.));
#42 = CARTESIAN_POINT('', (65.8461538461538, 58.2544879786026, 45.));
#43 = ADVANCED_FACE('', (#44), #77, .T.);
#44 = FACE_OUTER_BOUND('', #45, .T.);
#45 = EDGE_LOOP('', (#46, #47, #59, #67));
#46 = ORIENTED_EDGE('', *, *, #16, .F.);
#47 = ORIENTED_EDGE('', *, *, #48, .T.);
#48 = EDGE_CURVE('', #10, #49, #51, .T.);
#49 = VERTEX_POINT('', #50);
#50 = CARTESIAN_POINT('', (54.1538461538462, 21.7455120213974, 45.));
#51 = (
   BOUNDED_CURVE ()
   B_SPLINE_CURVE (2, (#52, #53, #54, #55, #56, #57, #58), .UNSPECIFIED., .F., .U.)
   B_SPLINE_CURVE_WITH_KNOTS ((3, 2, 2, 3), (0., 83.8505488963719, 167.701097792744, 251.551646689116), .UNSPECIFIED.)
   CURVE ()
   GEOMETRIC_REPRESENTATION_ITEM ()
   RATIONAL_B_SPLINE_CURVE ((1., 0.744016877965413, 1., 0.744016877965413, 1., 0.744016877965413, 1.))
   REPRESENTATION_ITEM ('')
);
#52 = CARTESIAN_POINT('', (54.1538461538462, 58.2544879786026, 45.));
#53 = CARTESIAN_POINT('', (37.7604899394566, 70.0672370319882, 45.));
#54 = CARTESIAN_POINT('', (24.2596202457782, 55.0336185159941, 45.));
#55 = CARTESIAN_POINT('', (10.7587505520998, 40., 45.));
#56 = CARTESIAN_POINT('', (24.2596202457782, 24.9663814840059, 45.));
#57 = CARTESIAN_POINT('', (37.7604899394566, 9.93276296801177, 45.));
#58 = CARTESIAN_POINT('', (54.1538461538462, 21.7455120213974, 45.));
#59 = ORIENTED_EDGE('', *, *, #60, .F.);
#60 = EDGE_CURVE('', #61, #49, #63, .T.);
#61 = VERTEX_POINT('', #62);
#62 = CARTESIAN_POINT('', (65.8461538461538, 21.7455120213974, 45.));
#63 = (
   BOUNDED_CURVE ()
   B_SPLINE_CURVE (2, (#64, #65, #66), .UNSPECIFIED., .F., .U.)
   B_SPLINE_CURVE_WITH_KNOTS ((3, 3), (0., 71.5516466891163), .UNSPECIFIED.)
   CURVE ()
   GEOMETRIC_REPRESENTATION_ITEM ()
   RATIONAL_B_SPLINE_CURVE ((1., 0.81131057682678, 1.))
   REPRESENTATION_ITEM ('')
);
#64 = CARTESIAN_POINT('', (65.8461538461538, 21.7455120213974, 45.));
#65 = CARTESIAN_POINT('', (60., 25.9581422728821, 45.));
#66 = CARTESIAN_POINT('', (54.1538461538461, 21.7455120213974, 45.));
#67 = ORIENTED_EDGE('', *, *, #68, .T.);
#68 = EDGE_CURVE('', #61, #17, #69, .T.);
#69 = (
   BOUNDED_CURVE ()
   B_SPLINE_CURVE (2, (#70, #71, #72, #73, #74, #75, #76), .UNSPECIFIED., .F., .U.)
   B_SPLINE_CURVE_WITH_KNOTS ((3, 2, 2, 3), (0., 83.8505488963719, 167.701097792744, 251.551646689116), .UNSPECIFIED.)
   CURVE ()
   GEOMETRIC_REPRESENTATION_ITEM ()
   RATIONAL_B_SPLINE_CURVE ((1., 0.744016877965413, 1., 0.744016877965413, 1., 0.744016877965413, 1.))
   REPRESENTATION_ITEM ('')
);
#70 = CARTESIAN_POINT('', (65.8461538461538, 21.7455120213974, 45.));
#71 = CARTESIAN_POINT('', (82.2395100605433, 9.93276296801176, 45.));
#72 = CARTESIAN_POINT('', (95.7403797542218, 24.9663814840059, 45.));
#73 = CARTESIAN_POINT('', (109.2412494479, 40., 45.));
#74 = CARTESIAN_POINT('', (95.7403797542218, 55.0336185159941, 45.));
#75 = CARTESIAN_POINT('', (82.2395100605434, 70.0672370319882, 45.));
#76 = CARTESIAN_POINT('', (65.8461538461538, 58.2544879786026, 45.));
#77 = B_SPLINE_SURFACE_WITH_KNOTS('', 1, 1, ((#78, #79), (#80, #81)), .UNSPECIFIED., .F., .F., .U., (2, 2), (2, 2), (0., 1.), (0., 1.), .UNSPECIFIED.);
#78 = CARTESIAN_POINT('', (123.464751333421, -23.4647513334213, 45.));
#79 = CARTESIAN_POINT('', (-3.4647513334213, -23.4647513334213, 45.));
#80 = CARTESIAN_POINT('', (123.464751333421, 103.464751333421, 45.));
#81 = CARTESIAN_POINT('', (-3.4647513334213, 103.464751333421, 45.));
#82 = ADVANCED_FACE('', (#83), #104, .T.);
#83 = FACE_OUTER_BOUND('', #84, .T.);
#84 = EDGE_LOOP('', (#85, #86, #98, #103));
#85 = ORIENTED_EDGE('', *, *, #7, .F.);
#86 = ORIENTED_EDGE('', *, *, #87, .T.);
#87 = EDGE_CURVE('', #8, #88, #90, .T.);
#88 = VERTEX_POINT('', #89);
#89 = CARTESIAN_POINT('', (54.1538461538462, 21.7455120213974, 35.));
#90 = (
   BOUNDED_CURVE ()
   B_SPLINE_CURVE (2, (#91, #92, #93, #94, #95, #96, #97), .UNSPECIFIED., .F., .U.)
   B_SPLINE_CURVE_WITH_KNOTS ((3, 2, 2, 3), (0., 83.8505488963719, 167.701097792744, 251.551646689116), .UNSPECIFIED.)
   CURVE ()
   GEOMETRIC_REPRESENTATION_ITEM ()
   RATIONAL_B_SPLINE_CURVE ((1., 0.744016877965413, 1., 0.744016877965413, 1., 0.744016877965413, 1.))
   REPRESENTATION_ITEM ('')
);
#91 = CARTESIAN_POINT('', (54.1538461538462, 58.2544879786026, 35.));
#92 = CARTESIAN_POINT('', (37.7604899394566, 70.0672370319882, 35.));
#93 = CARTESIAN_POINT('', (24.2596202457782, 55.0336185159941, 35.));
#94 = CARTESIAN_POINT('', (10.7587505520998, 40., 35.));
#95 = CARTESIAN_POINT('', (24.2596202457782, 24.9663814840059, 35.));
#96 = CARTESIAN_POINT('', (37.7604899394566, 9.93276296801177, 35.));
#97 = CARTESIAN_POINT('', (54.1538461538462, 21.7455120213974, 35.));
#98 = ORIENTED_EDGE('', *, *, #99, .T.);
#99 = EDGE_CURVE('', #88, #49, #100, .T.);
#100 = B_SPLINE_CURVE_WITH_KNOTS('', 1, (#101, #102), .UNSPECIFIED., .F., .U., (2, 2), (0., 10.), .UNSPECIFIED.);
#101 = CARTESIAN_POINT('', (54.1538461538462, 21.7455120213974, 35.));
#102 = CARTESIAN_POINT('', (54.1538461538462, 21.7455120213974, 45.));
#103 = ORIENTED_EDGE('', *, *, #48, .F.);
#104 = (
   BOUNDED_SURFACE ()
   B_SPLINE_SURFACE (2, 1, ((#105, #106), (#107, #108), (#109, #110), (#111, #112), (#113, #114), (#115, #116), (#117, #118)), .UNSPECIFIED., .F., .F., .U.)
   B_SPLINE_SURFACE_WITH_KNOTS ((3, 2, 2, 3), (2, 2), (0., 83.8505488963719, 167.701097792744, 251.551646689116), (0., 10.), .UNSPECIFIED.)
   GEOMETRIC_REPRESENTATION_ITEM ()
   RATIONAL_B_SPLINE_SURFACE (((1., 1.), (0.744016877965413, 0.744016877965413), (1., 1.), (0.744016877965413, 0.744016877965413), (1., 1.), (0.744016877965413, 0.744016877965413), (1., 1.)))
   REPRESENTATION_ITEM ('')
   SURFACE ()
);
#105 = CARTESIAN_POINT('', (54.1538461538462, 58.2544879786026, 35.));
#106 = CARTESIAN_POINT('', (54.1538461538462, 58.2544879786026, 45.));
#107 = CARTESIAN_POINT('', (37.7604899394566, 70.0672370319882, 35.));
#108 = CARTESIAN_POINT('', (37.7604899394566, 70.0672370319882, 45.));
#109 = CARTESIAN_POINT('', (24.2596202457782, 55.0336185159941, 35.));
#110 = CARTESIAN_POINT('', (24.2596202457782, 55.0336185159941, 45.));
#111 = CARTESIAN_POINT('', (10.7587505520998, 40., 35.));
#112 = CARTESIAN_POINT('', (10.7587505520998, 40., 45.));
#113 = CARTESIAN_POINT('', (24.2596202457782, 24.9663814840059, 35.));
#114 = CARTESIAN_POINT('', (24.2596202457782, 24.9663814840059, 45.));
#115 = CARTESIAN_POINT('', (37.7604899394566, 9.93276296801177, 35.));
#116 = CARTESIAN_POINT('', (37.7604899394566, 9.93276296801177, 45.));
#117 = CARTESIAN_POINT('', (54.1538461538462, 21.7455120213974, 35.));
#118 = CARTESIAN_POINT('', (54.1538461538462, 21.7455120213974, 45.));
#119 = ADVANCED_FACE('', (#120), #141, .T.);
#120 = FACE_OUTER_BOUND('', #121, .T.);
#121 = EDGE_LOOP('', (#122, #129, #139, #140));
#122 = ORIENTED_EDGE('', *, *, #123, .F.);
#123 = EDGE_CURVE('', #124, #61, #126, .T.);
#124 = VERTEX_POINT('', #125);
#125 = CARTESIAN_POINT('', (65.8461538461538, 21.7455120213974, 35.));
#126 = B_SPLINE_CURVE_WITH_KNOTS('', 1, (#127, #128), .UNSPECIFIED., .F., .U., (2, 2), (0., 10.), .UNSPECIFIED.);
#127 = CARTESIAN_POINT('', (65.8461538461538, 21.7455120213974, 35.));
#128 = CARTESIAN_POINT('', (65.8461538461538, 21.7455120213974, 45.));
#129 = ORIENTED_EDGE('', *, *, #130, .T.);
#130 = EDGE_CURVE('', #124, #25, #131, .T.);
#131 = (
   BOUNDED_CURVE ()
   B_SPLINE_CURVE (2, (#132, #133, #134, #135, #136, #137, #138), .UNSPECIFIED., .F., .U.)
   B_SPLINE_CURVE_WITH_KNOTS ((3, 2, 2, 3), (0., 83.8505488963719, 167.701097792744, 251.551646689116), .UNSPECIFIED.)
   CURVE ()
   GEOMETRIC_REPRESENTATION_ITEM ()
   RATIONAL_B_SPLINE_CURVE ((1., 0.744016877965413, 1., 0.744016877965413, 1., 0.744016877965413, 1.))
   REPRESENTATION_ITEM ('')
);
#132 = CARTESIAN_POINT('', (65.8461538461538, 21.7455120213974, 35.));
#133 = CARTESIAN_POINT('', (82.2395100605433, 9.93276296801176, 35.));
#134 = CARTESIAN_POINT('', (95.7403797542218, 24.9663814840059, 35.));
#135 = CARTESIAN_POINT('', (109.2412494479, 40., 35.));
#136 = CARTESIAN_POINT('', (95.7403797542218, 55.0336185159941, 35.));
#137 = CARTESIAN_POINT('', (82.2395100605434, 70.0672370319882, 35.));
#138 = CARTESIAN_POINT('', (65.8461538461538, 58.2544879786026, 35.));
#139 = ORIENTED_EDGE('', *, *, #24, .T.);
#140 = ORIENTED_EDGE('', *, *, #68, .F.);
#141 = (
   BOUNDED_SURFACE ()
   B_SPLINE_SURFACE (2, 1, ((#142, #143), (#144, #145), (#146, #147), (#148, #149), (#150, #151), (#152, #153), (#154, #155)), .UNSPECIFIED., .F., .F., .U.)
   B_SPLINE_SURFACE_WITH_KNOTS ((3, 2, 2, 3), (2, 2), (0., 83.8505488963719, 167.701097792744, 251.551646689116), (0., 10.), .UNSPECIFIED.)
   GEOMETRIC_REPRESENTATION_ITEM ()
   RATIONAL_B_SPLINE_SURFACE (((1., 1.), (0.744016877965413, 0.744016877965413), (1., 1.), (0.744016877965413, 0.744016877965413), (1., 1.), (0.744016877965413, 0.744016877965413), (1., 1.)))
   REPRESENTATION_ITEM ('')
   SURFACE ()
);
#142 = CARTESIAN_POINT('', (65.8461538461538, 21.7455120213974, 35.));
#143 = CARTESIAN_POINT('', (65.8461538461538, 21.7455120213974, 45.));
#144 = CARTESIAN_POINT('', (82.2395100605433, 9.93276296801176, 35.));
#145 = CARTESIAN_POINT('', (82.2395100605433, 9.93276296801176, 45.));
#146 = CARTESIAN_POINT('', (95.7403797542218, 24.9663814840059, 35.));
#147 = CARTESIAN_POINT('', (95.7403797542218, 24.9663814840059, 45.));
#148 = CARTESIAN_POINT('', (109.2412494479, 40., 35.));
#149 = CARTESIAN_POINT('', (109.2412494479, 40., 45.));
#150 = CARTESIAN_POINT('', (95.7403797542218, 55.0336185159941, 35.));
#151 = CARTESIAN_POINT('', (95.7403797542218, 55.0336185159941, 45.));
#152 = CARTESIAN_POINT('', (82.2395100605434, 70.0672370319882, 35.));
#153 = CARTESIAN_POINT('', (82.2395100605434, 70.0672370319882, 45.));
#154 = CARTESIAN_POINT('', (65.8461538461538, 58.2544879786026, 35.));
#155 = CARTESIAN_POINT('', (65.8461538461538, 58.2544879786026, 45.));
#156 = ADVANCED_FACE('', (#157), #168, .T.);
#157 = FACE_OUTER_BOUND('', #158, .T.);
#158 = EDGE_LOOP('', (#159, #160, #161, #162));
#159 = ORIENTED_EDGE('', *, *, #123, .T.);
#160 = ORIENTED_EDGE('', *, *, #60, .T.);
#161 = ORIENTED_EDGE('', *, *, #99, .F.);
#162 = ORIENTED_EDGE('', *, *, #163, .F.);
#163 = EDGE_CURVE('', #124, #88, #164, .T.);
#164 = (
   BOUNDED_CURVE ()
   B_SPLINE_CURVE (2, (#165, #166, #167), .UNSPECIFIED., .F., .U.)
   B_SPLINE_CURVE_WITH_KNOTS ((3, 3), (0., 71.5516466891163), .UNSPECIFIED.)
   CURVE ()
   GEOMETRIC_REPRESENTATION_ITEM ()
   RATIONAL_B_SPLINE_CURVE ((1., 0.81131057682678, 1.))
   REPRESENTATION_ITEM ('')
);
#165 = CARTESIAN_POINT('', (65.8461538461538, 21.7455120213974, 35.));
#166 = CARTESIAN_POINT('', (60., 25.9581422728821, 35.));
#167 = CARTESIAN_POINT('', (54.1538461538461, 21.7455120213974, 35.));
#168 = (
   BOUNDED_SURFACE ()
   B_SPLINE_SURFACE (1, 2, ((#169, #170, #171), (#172, #173, #174)), .UNSPECIFIED., .F., .F., .U.)
   B_SPLINE_SURFACE_WITH_KNOTS ((2, 2), (3, 3), (0., 10.), (0., 71.5516466891163), .UNSPECIFIED.)
   GEOMETRIC_REPRESENTATION_ITEM ()
   RATIONAL_B_SPLINE_SURFACE (((1., 0.81131057682678, 1.), (1., 0.81131057682678, 1.)))
   REPRESENTATION_ITEM ('')
   SURFACE ()
);
#169 = CARTESIAN_POINT('', (65.8461538461538, 21.7455120213974, 35.));
#170 = CARTESIAN_POINT('', (60., 25.9581422728821, 35.));
#171 = CARTESIAN_POINT('', (54.1538461538461, 21.7455120213974, 35.));
#172 = CARTESIAN_POINT('', (65.8461538461538, 21.7455120213974, 45.));
#173 = CARTESIAN_POINT('', (60., 25.9581422728821, 45.));
#174 = CARTESIAN_POINT('', (54.1538461538461, 21.7455120213974, 45.));
#175 = ADVANCED_FACE('', (#176), #208, .T.);
#176 = FACE_OUTER_BOUND('', #177, .T.);
#177 = EDGE_LOOP('', (#178, #187, #195, #202));
#178 = ORIENTED_EDGE('', *, *, #179, .F.);
#179 = EDGE_CURVE('', #180, #182, #184, .T.);
#180 = VERTEX_POINT('', #181);
#181 = CARTESIAN_POINT('', (0., 10., 0.));
#182 = VERTEX_POINT('', #183);
#183 = CARTESIAN_POINT('', (0., 10., 35.));
#184 = B_SPLINE_CURVE_WITH_KNOTS('', 1, (#185, #186), .UNSPECIFIED., .F., .U., (2, 2), (0., 35.), .UNSPECIFIED.);
#185 = CARTESIAN_POINT('', (0., 10., 0.));
#186 = CARTESIAN_POINT('', (0., 10., 35.));
#187 = ORIENTED_EDGE('', *, *, #188, .T.);
#188 = EDGE_CURVE('', #180, #189, #191, .T.);
#189 = VERTEX_POINT('', #190);
#190 = CARTESIAN_POINT('', (10., -5.32907051820075E-15, 0.));
#191 = (
   BOUNDED_CURVE ()
   B_SPLINE_CURVE (2, (#192, #193, #194), .UNSPECIFIED., .F., .U.)
   B_SPLINE_CURVE_WITH_KNOTS ((3, 3), (0., 1.), .UNSPECIFIED.)
   CURVE ()
   GEOMETRIC_REPRESENTATION_ITEM ()
   RATIONAL_B_SPLINE_CURVE ((1., 0.707106781186547, 1.))
   REPRESENTATION_ITEM ('')
);
#192 = CARTESIAN_POINT('', (0., 10., 0.));
#193 = CARTESIAN_POINT('', (-7.10542735760101E-15, -6.79926565781416E-15, 0.));
#194 = CARTESIAN_POINT('', (10., -5.32907051820075E-15, 0.));
#195 = ORIENTED_EDGE('', *, *, #196, .T.);
#196 = EDGE_CURVE('', #189, #197, #199, .T.);
#197 = VERTEX_POINT('', #198);
#198 = CARTESIAN_POINT('', (10., -5.32907051820075E-15, 35.));
#199 = B_SPLINE_CURVE_WITH_KNOTS('', 1, (#200, #201), .UNSPECIFIED., .F., .U., (2, 2), (0., 35.), .UNSPECIFIED.);
#200 = CARTESIAN_POINT('', (10., -5.32907051820075E-15, 0.));
#201 = CARTESIAN_POINT('', (10., -5.32907051820075E-15, 35.));
#202 = ORIENTED_EDGE('', *, *, #203, .F.);
#203 = EDGE_CURVE('', #182, #197, #204, .T.);
#204 = (
   BOUNDED_CURVE ()
   B_SPLINE_CURVE (2, (#205, #206, #207), .UNSPECIFIED., .F., .U.)
   B_SPLINE_CURVE_WITH_KNOTS ((3, 3), (0., 1.), .UNSPECIFIED.)
   CURVE ()
   GEOMETRIC_REPRESENTATION_ITEM ()
   RATIONAL_B_SPLINE_CURVE ((1., 0.707106781186547, 1.))
   REPRESENTATION_ITEM ('')
);
#205 = CARTESIAN_POINT('', (0., 10., 35.));
#206 = CARTESIAN_POINT('', (-7.10542735760101E-15, -6.79926565781416E-15, 35.));
#207 = CARTESIAN_POINT('', (10., -5.32907051820075E-15, 35.));
#208 = (
   BOUNDED_SURFACE ()
   B_SPLINE_SURFACE (2, 1, ((#209, #210), (#211, #212), (#213, #214)), .UNSPECIFIED., .F., .F., .U.)
   B_SPLINE_SURFACE_WITH_KNOTS ((3, 3), (2, 2), (0., 90.0000000000001), (0., 35.), .UNSPECIFIED.)
   GEOMETRIC_REPRESENTATION_ITEM ()
   RATIONAL_B_SPLINE_SURFACE (((1., 1.), (0.707106781186547, 0.707106781186547), (1., 1.)))
   REPRESENTATION_ITEM ('')
   SURFACE ()
);
#209 = CARTESIAN_POINT('', (0., 10., 0.));
#210 = CARTESIAN_POINT('', (0., 10., 35.));
#211 = CARTESIAN_POINT('', (-7.10542735760101E-15, -6.79926565781416E-15, 0.));
#212 = CARTESIAN_POINT('', (-7.10542735760101E-15, -6.79926565781416E-15, 35.));
#213 = CARTESIAN_POINT('', (10., -5.32907051820075E-15, 0.));
#214 = CARTESIAN_POINT('', (10., -5.32907051820075E-15, 35.));
#215 = ADVANCED_FACE('', (#216, #253), #303, .T.);
#216 = FACE_OUTER_BOUND('', #217, .T.);
#217 = EDGE_LOOP('', (#218, #219, #226, #234, #241, #248));
#218 = ORIENTED_EDGE('', *, *, #188, .F.);
#219 = ORIENTED_EDGE('', *, *, #220, .F.);
#220 = EDGE_CURVE('', #221, #180, #223, .T.);
#221 = VERTEX_POINT('', #222);
#222 = CARTESIAN_POINT('', (0., 70., 0.));
#223 = B_SPLINE_CURVE_WITH_KNOTS('', 1, (#224, #225), .UNSPECIFIED., .F., .U., (2, 2), (0., 1.), .UNSPECIFIED.);
#224 = CARTESIAN_POINT('', (0., 70., 0.));
#225 = CARTESIAN_POINT('', (0., 10., 0.));
#226 = ORIENTED_EDGE('', *, *, #227, .F.);
#227 = EDGE_CURVE('', #228, #221, #230, .T.);
#228 = VERTEX_POINT('', #229);
#229 = CARTESIAN_POINT('', (10., 80., 0.));
#230 = (
   BOUNDED_CURVE ()
   B_SPLINE_CURVE (2, (#231, #232, #233), .UNSPECIFIED., .F., .U.)
   B_SPLINE_CURVE_WITH_KNOTS ((3, 3), (0., 90.), .UNSPECIFIED.)
   CURVE ()
   GEOMETRIC_REPRESENTATION_ITEM ()
   RATIONAL_B_SPLINE_CURVE ((1., 0.707106781186548, 1.))
   REPRESENTATION_ITEM ('')
);
#231 = CARTESIAN_POINT('', (10., 80., 0.));
#232 = CARTESIAN_POINT('', (3.06161699786838E-16, 80., 0.));
#233 = CARTESIAN_POINT('', (0., 70., 0.));
#234 = ORIENTED_EDGE('', *, *, #235, .F.);
#235 = EDGE_CURVE('', #236, #228, #238, .T.);
#236 = VERTEX_POINT('', #237);
#237 = CARTESIAN_POINT('', (120., 80., 0.));
#238 = B_SPLINE_CURVE_WITH_KNOTS('', 1, (#239, #240), .UNSPECIFIED., .F., .U., (2, 2), (0., 1.), .UNSPECIFIED.);
#239 = CARTESIAN_POINT('', (120., 80., 0.));
#240 = CARTESIAN_POINT('', (10., 80., 0.));
#241 = ORIENTED_EDGE('', *, *, #242, .F.);
#242 = EDGE_CURVE('', #243, #236, #245, .T.);
#243 = VERTEX_POINT('', #244);
#244 = CARTESIAN_POINT('', (120., 0., 0.));
#245 = B_SPLINE_CURVE_WITH_KNOTS('', 1, (#246, #247), .UNSPECIFIED., .F., .U., (2, 2), (0., 1.), .UNSPECIFIED.);
#246 = CARTESIAN_POINT('', (120., 0., 0.));
#247 = CARTESIAN_POINT('', (120., 80., 0.));
#248 = ORIENTED_EDGE('', *, *, #249, .F.);
#249 = EDGE_CURVE('', #189, #243, #250, .T.);
#250 = B_SPLINE_CURVE_WITH_KNOTS('', 1, (#251, #252), .UNSPECIFIED., .F., .U., (2, 2), (0., 1.), .UNSPECIFIED.);
#251 = CARTESIAN_POINT('', (10., 0., 0.));
#252 = CARTESIAN_POINT('', (120., 0., 0.));
#253 = FACE_BOUND('', #254, .T.);
#254 = EDGE_LOOP('', (#255, #267, #274, #281, #288, #298));
#255 = ORIENTED_EDGE('', *, *, #256, .T.);
#256 = EDGE_CURVE('', #257, #259, #261, .T.);
#257 = VERTEX_POINT('', #258);
#258 = CARTESIAN_POINT('', (15., 28., 0.));
#259 = VERTEX_POINT('', #260);
#260 = CARTESIAN_POINT('', (15., 20., 0.));
#261 = (
   BOUNDED_CURVE ()
   B_SPLINE_CURVE (2, (#262, #263, #264, #265, #266), .UNSPECIFIED., .F., .U.)
   B_SPLINE_CURVE_WITH_KNOTS ((3, 2, 3), (0., 90., 180.), .UNSPECIFIED.)
   CURVE ()
   GEOMETRIC_REPRESENTATION_ITEM ()
   RATIONAL_B_SPLINE_CURVE ((1., 0.707106781186548, 1., 0.707106781186548, 1.))
   REPRESENTATION_ITEM ('')
);
#262 = CARTESIAN_POINT('', (15., 28., 0.));
#263 = CARTESIAN_POINT('', (11., 28., 0.));
#264 = CARTESIAN_POINT('', (11., 24., 0.));
#265 = CARTESIAN_POINT('', (11., 20., 0.));
#266 = CARTESIAN_POINT('', (15., 20., 0.));
#267 = ORIENTED_EDGE('', *, *, #268, .F.);
#268 = EDGE_CURVE('', #269, #259, #271, .T.);
#269 = VERTEX_POINT('', #270);
#270 = CARTESIAN_POINT('', (105., 20., 0.));
#271 = B_SPLINE_CURVE_WITH_KNOTS('', 1, (#272, #273), .UNSPECIFIED., .F., .U., (2, 2), (0., 1.), .UNSPECIFIED.);
#272 = CARTESIAN_POINT('', (105., 20., 0.));
#273 = CARTESIAN_POINT('', (15., 20., 0.));
#274 = ORIENTED_EDGE('', *, *, #275, .F.);
#275 = EDGE_CURVE('', #276, #269, #278, .T.);
#276 = VERTEX_POINT('', #277);
#277 = CARTESIAN_POINT('', (105., 60., 0.));
#278 = B_SPLINE_CURVE_WITH_KNOTS('', 1, (#279, #280), .UNSPECIFIED., .F., .U., (2, 2), (0., 1.), .UNSPECIFIED.);
#279 = CARTESIAN_POINT('', (105., 60., 0.));
#280 = CARTESIAN_POINT('', (105., 20., 0.));
#281 = ORIENTED_EDGE('', *, *, #282, .F.);
#282 = EDGE_CURVE('', #283, #276, #285, .T.);
#283 = VERTEX_POINT('', #284);
#284 = CARTESIAN_POINT('', (15., 60., 0.));
#285 = B_SPLINE_CURVE_WITH_KNOTS('', 1, (#286, #287), .UNSPECIFIED., .F., .U., (2, 2), (0., 1.), .UNSPECIFIED.);
#286 = CARTESIAN_POINT('', (15., 60., 0.));
#287 = CARTESIAN_POINT('', (105., 60., 0.));
#288 = ORIENTED_EDGE('', *, *, #289, .T.);
#289 = EDGE_CURVE('', #283, #290, #292, .T.);
#290 = VERTEX_POINT('', #291);
#291 = CARTESIAN_POINT('', (15., 52., 0.));
#292 = (
   BOUNDED_CURVE ()
   B_SPLINE_CURVE (2, (#293, #294, #295, #296, #297), .UNSPECIFIED., .F., .U.)
   B_SPLINE_CURVE_WITH_KNOTS ((3, 2, 3), (0., 90., 180.), .UNSPECIFIED.)
   CURVE ()
   GEOMETRIC_REPRESENTATION_ITEM ()
   RATIONAL_B_SPLINE_CURVE ((1., 0.707106781186548, 1., 0.707106781186548, 1.))
   REPRESENTATION_ITEM ('')
);
#293 = CARTESIAN_POINT('', (15., 60., 0.));
#294 = CARTESIAN_POINT('', (11., 60., 0.));
#295 = CARTESIAN_POINT('', (11., 56., 0.));
#296 = CARTESIAN_POINT('', (11., 52., 0.));
#297 = CARTESIAN_POINT('', (15., 52., 0.));
#298 = ORIENTED_EDGE('', *, *, #299, .F.);
#299 = EDGE_CURVE('', #257, #290, #300, .T.);
#300 = B_SPLINE_CURVE_WITH_KNOTS('', 1, (#301, #302), .UNSPECIFIED., .F., .U., (2, 2), (0., 1.), .UNSPECIFIED.);
#301 = CARTESIAN_POINT('', (15., 28., 0.));
#302 = CARTESIAN_POINT('', (15., 52., 0.));
#303 = B_SPLINE_SURFACE_WITH_KNOTS('', 1, 1, ((#304, #305), (#306, #307)), .UNSPECIFIED., .F., .F., .U., (2, 2), (2, 2), (0., 1.), (0., 1.), .UNSPECIFIED.);
#304 = CARTESIAN_POINT('', (139.322128060208, -39.3221280602078, 0.));
#305 = CARTESIAN_POINT('', (139.322128060208, 119.322128060208, 0.));
#306 = CARTESIAN_POINT('', (-19.3221280602078, -39.3221280602078, 0.));
#307 = CARTESIAN_POINT('', (-19.3221280602078, 119.322128060208, 0.));
#308 = ADVANCED_FACE('', (#309), #325, .T.);
#309 = FACE_OUTER_BOUND('', #310, .T.);
#310 = EDGE_LOOP('', (#311, #312, #313, #320));
#311 = ORIENTED_EDGE('', *, *, #196, .F.);
#312 = ORIENTED_EDGE('', *, *, #249, .T.);
#313 = ORIENTED_EDGE('', *, *, #314, .T.);
#314 = EDGE_CURVE('', #243, #315, #317, .T.);
#315 = VERTEX_POINT('', #316);
#316 = CARTESIAN_POINT('', (120., 0., 35.));
#317 = B_SPLINE_CURVE_WITH_KNOTS('', 1, (#318, #319), .UNSPECIFIED., .F., .U., (2, 2), (0., 1.), .UNSPECIFIED.);
#318 = CARTESIAN_POINT('', (120., 0., 0.));
#319 = CARTESIAN_POINT('', (120., 0., 35.));
#320 = ORIENTED_EDGE('', *, *, #321, .F.);
#321 = EDGE_CURVE('', #197, #315, #322, .T.);
#322 = B_SPLINE_CURVE_WITH_KNOTS('', 1, (#323, #324), .UNSPECIFIED., .F., .U., (2, 2), (0., 1.), .UNSPECIFIED.);
#323 = CARTESIAN_POINT('', (10., 0., 35.));
#324 = CARTESIAN_POINT('', (120., 0., 35.));
#325 = B_SPLINE_SURFACE_WITH_KNOTS('', 1, 1, ((#326, #327), (#328, #329)), .UNSPECIFIED., .F., .F., .U., (2, 2), (2, 2), (0., 1.), (0., 1.), .UNSPECIFIED.);
#326 = CARTESIAN_POINT('', (10., 0., 0.));
#327 = CARTESIAN_POINT('', (10., 0., 35.));
#328 = CARTESIAN_POINT('', (120., 0., 0.));
#329 = CARTESIAN_POINT('', (120., 0., 35.));
#330 = ADVANCED_FACE('', (#331), #347, .T.);
#331 = FACE_OUTER_BOUND('', #332, .T.);
#332 = EDGE_LOOP('', (#333, #340, #341, #342));
#333 = ORIENTED_EDGE('', *, *, #334, .F.);
#334 = EDGE_CURVE('', #221, #335, #337, .T.);
#335 = VERTEX_POINT('', #336);
#336 = CARTESIAN_POINT('', (0., 70., 35.));
#337 = B_SPLINE_CURVE_WITH_KNOTS('', 1, (#338, #339), .UNSPECIFIED., .F., .U., (2, 2), (0., 35.), .UNSPECIFIED.);
#338 = CARTESIAN_POINT('', (0., 70., 0.));
#339 = CARTESIAN_POINT('', (0., 70., 35.));
#340 = ORIENTED_EDGE('', *, *, #220, .T.);
#341 = ORIENTED_EDGE('', *, *, #179, .T.);
#342 = ORIENTED_EDGE('', *, *, #343, .F.);
#343 = EDGE_CURVE('', #335, #182, #344, .T.);
#344 = B_SPLINE_CURVE_WITH_KNOTS('', 1, (#345, #346), .UNSPECIFIED., .F., .U., (2, 2), (0., 1.), .UNSPECIFIED.);
#345 = CARTESIAN_POINT('', (0., 70., 35.));
#346 = CARTESIAN_POINT('', (0., 10., 35.));
#347 = B_SPLINE_SURFACE_WITH_KNOTS('', 1, 1, ((#348, #349), (#350, #351)), .UNSPECIFIED., .F., .F., .U., (2, 2), (2, 2), (0., 1.), (0., 1.), .UNSPECIFIED.);
#348 = CARTESIAN_POINT('', (0., 70., 0.));
#349 = CARTESIAN_POINT('', (0., 70., 35.));
#350 = CARTESIAN_POINT('', (0., 10., 0.));
#351 = CARTESIAN_POINT('', (0., 10., 35.));
#352 = ADVANCED_FACE('', (#353, #378), #384, .T.);
#353 = FACE_OUTER_BOUND('', #354, .T.);
#354 = EDGE_LOOP('', (#355, #356, #357, #364, #371, #377));
#355 = ORIENTED_EDGE('', *, *, #203, .T.);
#356 = ORIENTED_EDGE('', *, *, #321, .T.);
#357 = ORIENTED_EDGE('', *, *, #358, .T.);
#358 = EDGE_CURVE('', #315, #359, #361, .T.);
#359 = VERTEX_POINT('', #360);
#360 = CARTESIAN_POINT('', (120., 80., 35.));
#361 = B_SPLINE_CURVE_WITH_KNOTS('', 1, (#362, #363), .UNSPECIFIED., .F., .U., (2, 2), (0., 1.), .UNSPECIFIED.);
#362 = CARTESIAN_POINT('', (120., 0., 35.));
#363 = CARTESIAN_POINT('', (120., 80., 35.));
#364 = ORIENTED_EDGE('', *, *, #365, .T.);
#365 = EDGE_CURVE('', #359, #366, #368, .T.);
#366 = VERTEX_POINT('', #367);
#367 = CARTESIAN_POINT('', (10., 80., 35.));
#368 = B_SPLINE_CURVE_WITH_KNOTS('', 1, (#369, #370), .UNSPECIFIED., .F., .U., (2, 2), (0., 1.), .UNSPECIFIED.);
#369 = CARTESIAN_POINT('', (120., 80., 35.));
#370 = CARTESIAN_POINT('', (10., 80., 35.));
#371 = ORIENTED_EDGE('', *, *, #372, .T.);
#372 = EDGE_CURVE('', #366, #335, #373, .T.);
#373 = (
   BOUNDED_CURVE ()
   B_SPLINE_CURVE (2, (#374, #375, #376), .UNSPECIFIED., .F., .U.)
   B_SPLINE_CURVE_WITH_KNOTS ((3, 3), (0., 90.), .UNSPECIFIED.)
   CURVE ()
   GEOMETRIC_REPRESENTATION_ITEM ()
   RATIONAL_B_SPLINE_CURVE ((1., 0.707106781186548, 1.))
   REPRESENTATION_ITEM ('')
);
#374 = CARTESIAN_POINT('', (10., 80., 35.));
#375 = CARTESIAN_POINT('', (3.06161699786838E-16, 80., 35.));
#376 = CARTESIAN_POINT('', (0., 70., 35.));
#377 = ORIENTED_EDGE('', *, *, #343, .T.);
#378 = FACE_BOUND('', #379, .T.);
#379 = EDGE_LOOP('', (#380, #381, #382, #383));
#380 = ORIENTED_EDGE('', *, *, #31, .T.);
#381 = ORIENTED_EDGE('', *, *, #130, .F.);
#382 = ORIENTED_EDGE('', *, *, #163, .T.);
#383 = ORIENTED_EDGE('', *, *, #87, .F.);
#384 = B_SPLINE_SURFACE_WITH_KNOTS('', 1, 1, ((#385, #386), (#387, #388)), .UNSPECIFIED., .F., .F., .U., (2, 2), (2, 2), (0., 1.), (0., 1.), .UNSPECIFIED.);
#385 = CARTESIAN_POINT('', (139.322128060208, -39.3221280602078, 35.));
#386 = CARTESIAN_POINT('', (-19.3221280602078, -39.3221280602078, 35.));
#387 = CARTESIAN_POINT('', (139.322128060208, 119.322128060208, 35.));
#388 = CARTESIAN_POINT('', (-19.3221280602078, 119.322128060208, 35.));
#389 = ADVANCED_FACE('', (#390), #400, .T.);
#390 = FACE_OUTER_BOUND('', #391, .T.);
#391 = EDGE_LOOP('', (#392, #397, #398, #399));
#392 = ORIENTED_EDGE('', *, *, #393, .F.);
#393 = EDGE_CURVE('', #228, #366, #394, .T.);
#394 = B_SPLINE_CURVE_WITH_KNOTS('', 1, (#395, #396), .UNSPECIFIED., .F., .U., (2, 2), (0., 35.), .UNSPECIFIED.);
#395 = CARTESIAN_POINT('', (10., 80., 0.));
#396 = CARTESIAN_POINT('', (10., 80., 35.));
#397 = ORIENTED_EDGE('', *, *, #227, .T.);
#398 = ORIENTED_EDGE('', *, *, #334, .T.);
#399 = ORIENTED_EDGE('', *, *, #372, .F.);
#400 = (
   BOUNDED_SURFACE ()
   B_SPLINE_SURFACE (2, 1, ((#401, #402), (#403, #404), (#405, #406)), .UNSPECIFIED., .F., .F., .U.)
   B_SPLINE_SURFACE_WITH_KNOTS ((3, 3), (2, 2), (0., 90.), (0., 35.), .UNSPECIFIED.)
   GEOMETRIC_REPRESENTATION_ITEM ()
   RATIONAL_B_SPLINE_SURFACE (((1., 1.), (0.707106781186548, 0.707106781186548), (1., 1.)))
   REPRESENTATION_ITEM ('')
   SURFACE ()
);
#401 = CARTESIAN_POINT('', (10., 80., 0.));
#402 = CARTESIAN_POINT('', (10., 80., 35.));
#403 = CARTESIAN_POINT('', (3.06161699786838E-16, 80., 0.));
#404 = CARTESIAN_POINT('', (3.06161699786838E-16, 80., 35.));
#405 = CARTESIAN_POINT('', (0., 70., 0.));
#406 = CARTESIAN_POINT('', (0., 70., 35.));
#407 = ADVANCED_FACE('', (#408), #418, .T.);
#408 = FACE_OUTER_BOUND('', #409, .T.);
#409 = EDGE_LOOP('', (#410, #415, #416, #417));
#410 = ORIENTED_EDGE('', *, *, #411, .F.);
#411 = EDGE_CURVE('', #236, #359, #412, .T.);
#412 = B_SPLINE_CURVE_WITH_KNOTS('', 1, (#413, #414), .UNSPECIFIED., .F., .U., (2, 2), (0., 1.), .UNSPECIFIED.);
#413 = CARTESIAN_POINT('', (120., 80., 0.));
#414 = CARTESIAN_POINT('', (120., 80., 35.));
#415 = ORIENTED_EDGE('', *, *, #235, .T.);
#416 = ORIENTED_EDGE('', *, *, #393, .T.);
#417 = ORIENTED_EDGE('', *, *, #365, .F.);
#418 = B_SPLINE_SURFACE_WITH_KNOTS('', 1, 1, ((#419, #420), (#421, #422)), .UNSPECIFIED., .F., .F., .U., (2, 2), (2, 2), (0., 1.), (0., 1.), .UNSPECIFIED.);
#419 = CARTESIAN_POINT('', (120., 80., 0.));
#420 = CARTESIAN_POINT('', (120., 80., 35.));
#421 = CARTESIAN_POINT('', (10., 80., 0.));
#422 = CARTESIAN_POINT('', (10., 80., 35.));
#423 = ADVANCED_FACE('', (#424), #430, .T.);
#424 = FACE_OUTER_BOUND('', #425, .T.);
#425 = EDGE_LOOP('', (#426, #427, #428, #429));
#426 = ORIENTED_EDGE('', *, *, #314, .F.);
#427 = ORIENTED_EDGE('', *, *, #242, .T.);
#428 = ORIENTED_EDGE('', *, *, #411, .T.);
#429 = ORIENTED_EDGE('', *, *, #358, .F.);
#430 = B_SPLINE_SURFACE_WITH_KNOTS('', 1, 1, ((#431, #432), (#433, #434)), .UNSPECIFIED., .F., .F., .U., (2, 2), (2, 2), (0., 1.), (0., 1.), .UNSPECIFIED.);
#431 = CARTESIAN_POINT('', (120., 0., 0.));
#432 = CARTESIAN_POINT('', (120., 0., 35.));
#433 = CARTESIAN_POINT('', (120., 80., 0.));
#434 = CARTESIAN_POINT('', (120., 80., 35.));
#435 = ADVANCED_FACE('', (#436), #458, .F.);
#436 = FACE_OUTER_BOUND('', #437, .F.);
#437 = EDGE_LOOP('', (#438, #445, #446, #453));
#438 = ORIENTED_EDGE('', *, *, #439, .F.);
#439 = EDGE_CURVE('', #259, #440, #442, .T.);
#440 = VERTEX_POINT('', #441);
#441 = CARTESIAN_POINT('', (15., 20., 5.));
#442 = B_SPLINE_CURVE_WITH_KNOTS('', 1, (#443, #444), .UNSPECIFIED., .F., .U., (2, 2), (0., 5.), .UNSPECIFIED.);
#443 = CARTESIAN_POINT('', (15., 20., 0.));
#444 = CARTESIAN_POINT('', (15., 20., 5.));
#445 = ORIENTED_EDGE('', *, *, #268, .F.);
#446 = ORIENTED_EDGE('', *, *, #447, .T.);
#447 = EDGE_CURVE('', #269, #448, #450, .T.);
#448 = VERTEX_POINT('', #449);
#449 = CARTESIAN_POINT('', (105., 20., 5.));
#450 = B_SPLINE_CURVE_WITH_KNOTS('', 1, (#451, #452), .UNSPECIFIED., .F., .U., (2, 2), (0., 1.), .UNSPECIFIED.);
#451 = CARTESIAN_POINT('', (105., 20., 0.));
#452 = CARTESIAN_POINT('', (105., 20., 5.));
#453 = ORIENTED_EDGE('', *, *, #454, .F.);
#454 = EDGE_CURVE('', #440, #448, #455, .T.);
#455 = B_SPLINE_CURVE_WITH_KNOTS('', 1, (#456, #457), .UNSPECIFIED., .F., .U., (2, 2), (0., 1.), .UNSPECIFIED.);
#456 = CARTESIAN_POINT('', (15., 20., 5.));
#457 = CARTESIAN_POINT('', (105., 20., 5.));
#458 = B_SPLINE_SURFACE_WITH_KNOTS('', 1, 1, ((#459, #460), (#461, #462)), .UNSPECIFIED., .F., .F., .U., (2, 2), (2, 2), (0., 1.), (0., 1.), .UNSPECIFIED.);
#459 = CARTESIAN_POINT('', (15., 20., 0.));
#460 = CARTESIAN_POINT('', (15., 20., 5.));
#461 = CARTESIAN_POINT('', (105., 20., 0.));
#462 = CARTESIAN_POINT('', (105., 20., 5.));
#463 = ADVANCED_FACE('', (#464), #506, .F.);
#464 = FACE_OUTER_BOUND('', #465, .F.);
#465 = EDGE_LOOP('', (#466, #476, #477, #484, #491, #501));
#466 = ORIENTED_EDGE('', *, *, #467, .T.);
#467 = EDGE_CURVE('', #468, #440, #470, .T.);
#468 = VERTEX_POINT('', #469);
#469 = CARTESIAN_POINT('', (15., 28., 5.));
#470 = (
   BOUNDED_CURVE ()
   B_SPLINE_CURVE (2, (#471, #472, #473, #474, #475), .UNSPECIFIED., .F., .U.)
   B_SPLINE_CURVE_WITH_KNOTS ((3, 2, 3), (0., 0.5, 1.), .UNSPECIFIED.)
   CURVE ()
   GEOMETRIC_REPRESENTATION_ITEM ()
   RATIONAL_B_SPLINE_CURVE ((1., 0.707106781186548, 1., 0.707106781186548, 1.))
   REPRESENTATION_ITEM ('')
);
#471 = CARTESIAN_POINT('', (15., 28., 5.));
#472 = CARTESIAN_POINT('', (11., 28., 5.));
#473 = CARTESIAN_POINT('', (11., 24., 5.));
#474 = CARTESIAN_POINT('', (11., 20., 5.));
#475 = CARTESIAN_POINT('', (15., 20., 5.));
#476 = ORIENTED_EDGE('', *, *, #454, .T.);
#477 = ORIENTED_EDGE('', *, *, #478, .T.);
#478 = EDGE_CURVE('', #448, #479, #481, .T.);
#479 = VERTEX_POINT('', #480);
#480 = CARTESIAN_POINT('', (105., 60., 5.));
#481 = B_SPLINE_CURVE_WITH_KNOTS('', 1, (#482, #483), .UNSPECIFIED., .F., .U., (2, 2), (0., 1.), .UNSPECIFIED.);
#482 = CARTESIAN_POINT('', (105., 20., 5.));
#483 = CARTESIAN_POINT('', (105., 60., 5.));
#484 = ORIENTED_EDGE('', *, *, #485, .T.);
#485 = EDGE_CURVE('', #479, #486, #488, .T.);
#486 = VERTEX_POINT('', #487);
#487 = CARTESIAN_POINT('', (15., 60., 5.));
#488 = B_SPLINE_CURVE_WITH_KNOTS('', 1, (#489, #490), .UNSPECIFIED., .F., .U., (2, 2), (0., 1.), .UNSPECIFIED.);
#489 = CARTESIAN_POINT('', (105., 60., 5.));
#490 = CARTESIAN_POINT('', (15., 60., 5.));
#491 = ORIENTED_EDGE('', *, *, #492, .T.);
#492 = EDGE_CURVE('', #486, #493, #495, .T.);
#493 = VERTEX_POINT('', #494);
#494 = CARTESIAN_POINT('', (15., 52., 5.));
#495 = (
   BOUNDED_CURVE ()
   B_SPLINE_CURVE (2, (#496, #497, #498, #499, #500), .UNSPECIFIED., .F., .U.)
   B_SPLINE_CURVE_WITH_KNOTS ((3, 2, 3), (0., 90., 180.), .UNSPECIFIED.)
   CURVE ()
   GEOMETRIC_REPRESENTATION_ITEM ()
   RATIONAL_B_SPLINE_CURVE ((1., 0.707106781186548, 1., 0.707106781186548, 1.))
   REPRESENTATION_ITEM ('')
);
#496 = CARTESIAN_POINT('', (15., 60., 5.));
#497 = CARTESIAN_POINT('', (11., 60., 5.));
#498 = CARTESIAN_POINT('', (11., 56., 5.));
#499 = CARTESIAN_POINT('', (11., 52., 5.));
#500 = CARTESIAN_POINT('', (15., 52., 5.));
#501 = ORIENTED_EDGE('', *, *, #502, .T.);
#502 = EDGE_CURVE('', #493, #468, #503, .T.);
#503 = B_SPLINE_CURVE_WITH_KNOTS('', 1, (#504, #505), .UNSPECIFIED., .F., .U., (2, 2), (0., 1.), .UNSPECIFIED.);
#504 = CARTESIAN_POINT('', (15., 52., 5.));
#505 = CARTESIAN_POINT('', (15., 28., 5.));
#506 = B_SPLINE_SURFACE_WITH_KNOTS('', 1, 1, ((#507, #508), (#509, #510)), .UNSPECIFIED., .F., .F., .U., (2, 2), (2, 2), (0., 1.), (0., 1.), .UNSPECIFIED.);
#507 = CARTESIAN_POINT('', (114.186208272137, -16.1862082721374, 5.));
#508 = CARTESIAN_POINT('', (1.81379172786261, -16.1862082721374, 5.));
#509 = CARTESIAN_POINT('', (114.186208272137, 96.1862082721374, 5.));
#510 = CARTESIAN_POINT('', (1.81379172786261, 96.1862082721374, 5.));
#511 = ADVANCED_FACE('', (#512), #526, .F.);
#512 = FACE_OUTER_BOUND('', #513, .F.);
#513 = EDGE_LOOP('', (#514, #519, #520, #525));
#514 = ORIENTED_EDGE('', *, *, #515, .F.);
#515 = EDGE_CURVE('', #290, #493, #516, .T.);
#516 = B_SPLINE_CURVE_WITH_KNOTS('', 1, (#517, #518), .UNSPECIFIED., .F., .U., (2, 2), (0., 5.), .UNSPECIFIED.);
#517 = CARTESIAN_POINT('', (15., 52., 0.));
#518 = CARTESIAN_POINT('', (15., 52., 5.));
#519 = ORIENTED_EDGE('', *, *, #299, .F.);
#520 = ORIENTED_EDGE('', *, *, #521, .T.);
#521 = EDGE_CURVE('', #257, #468, #522, .T.);
#522 = B_SPLINE_CURVE_WITH_KNOTS('', 1, (#523, #524), .UNSPECIFIED., .F., .U., (2, 2), (0., 5.), .UNSPECIFIED.);
#523 = CARTESIAN_POINT('', (15., 28., 0.));
#524 = CARTESIAN_POINT('', (15., 28., 5.));
#525 = ORIENTED_EDGE('', *, *, #502, .F.);
#526 = B_SPLINE_SURFACE_WITH_KNOTS('', 1, 1, ((#527, #528), (#529, #530)), .UNSPECIFIED., .F., .F., .U., (2, 2), (2, 2), (0., 1.), (0., 1.), .UNSPECIFIED.);
#527 = CARTESIAN_POINT('', (15., 52., 0.));
#528 = CARTESIAN_POINT('', (15., 52., 5.));
#529 = CARTESIAN_POINT('', (15., 28., 0.));
#530 = CARTESIAN_POINT('', (15., 28., 5.));
#531 = ADVANCED_FACE('', (#532), #542, .F.);
#532 = FACE_OUTER_BOUND('', #533, .F.);
#533 = EDGE_LOOP('', (#534, #539, #540, #541));
#534 = ORIENTED_EDGE('', *, *, #535, .F.);
#535 = EDGE_CURVE('', #283, #486, #536, .T.);
#536 = B_SPLINE_CURVE_WITH_KNOTS('', 1, (#537, #538), .UNSPECIFIED., .F., .U., (2, 2), (0., 5.), .UNSPECIFIED.);
#537 = CARTESIAN_POINT('', (15., 60., 0.));
#538 = CARTESIAN_POINT('', (15., 60., 5.));
#539 = ORIENTED_EDGE('', *, *, #289, .T.);
#540 = ORIENTED_EDGE('', *, *, #515, .T.);
#541 = ORIENTED_EDGE('', *, *, #492, .F.);
#542 = (
   BOUNDED_SURFACE ()
   B_SPLINE_SURFACE (2, 1, ((#543, #544), (#545, #546), (#547, #548), (#549, #550), (#551, #552)), .UNSPECIFIED., .F., .F., .U.)
   B_SPLINE_SURFACE_WITH_KNOTS ((3, 2, 3), (2, 2), (0., 90., 180.), (0., 5.), .UNSPECIFIED.)
   GEOMETRIC_REPRESENTATION_ITEM ()
   RATIONAL_B_SPLINE_SURFACE (((1., 1.), (0.707106781186548, 0.707106781186548), (1., 1.), (0.707106781186548, 0.707106781186548), (1., 1.)))
   REPRESENTATION_ITEM ('')
   SURFACE ()
);
#543 = CARTESIAN_POINT('', (15., 60., 0.));
#544 = CARTESIAN_POINT('', (15., 60., 5.));
#545 = CARTESIAN_POINT('', (11., 60., 0.));
#546 = CARTESIAN_POINT('', (11., 60., 5.));
#547 = CARTESIAN_POINT('', (11., 56., 0.));
#548 = CARTESIAN_POINT('', (11., 56., 5.));
#549 = CARTESIAN_POINT('', (11., 52., 0.));
#550 = CARTESIAN_POINT('', (11., 52., 5.));
#551 = CARTESIAN_POINT('', (15., 52., 0.));
#552 = CARTESIAN_POINT('', (15., 52., 5.));
#553 = ADVANCED_FACE('', (#554), #564, .F.);
#554 = FACE_OUTER_BOUND('', #555, .F.);
#555 = EDGE_LOOP('', (#556, #561, #562, #563));
#556 = ORIENTED_EDGE('', *, *, #557, .F.);
#557 = EDGE_CURVE('', #276, #479, #558, .T.);
#558 = B_SPLINE_CURVE_WITH_KNOTS('', 1, (#559, #560), .UNSPECIFIED., .F., .U., (2, 2), (0., 1.), .UNSPECIFIED.);
#559 = CARTESIAN_POINT('', (105., 60., 0.));
#560 = CARTESIAN_POINT('', (105., 60., 5.));
#561 = ORIENTED_EDGE('', *, *, #282, .F.);
#562 = ORIENTED_EDGE('', *, *, #535, .T.);
#563 = ORIENTED_EDGE('', *, *, #485, .F.);
#564 = B_SPLINE_SURFACE_WITH_KNOTS('', 1, 1, ((#565, #566), (#567, #568)), .UNSPECIFIED., .F., .F., .U., (2, 2), (2, 2), (0., 1.), (0., 1.), .UNSPECIFIED.);
#565 = CARTESIAN_POINT('', (105., 60., 0.));
#566 = CARTESIAN_POINT('', (105., 60., 5.));
#567 = CARTESIAN_POINT('', (15., 60., 0.));
#568 = CARTESIAN_POINT('', (15., 60., 5.));
#569 = ADVANCED_FACE('', (#570), #576, .F.);
#570 = FACE_OUTER_BOUND('', #571, .F.);
#571 = EDGE_LOOP('', (#572, #573, #574, #575));
#572 = ORIENTED_EDGE('', *, *, #447, .F.);
#573 = ORIENTED_EDGE('', *, *, #275, .F.);
#574 = ORIENTED_EDGE('', *, *, #557, .T.);
#575 = ORIENTED_EDGE('', *, *, #478, .F.);
#576 = B_SPLINE_SURFACE_WITH_KNOTS('', 1, 1, ((#577, #578), (#579, #580)), .UNSPECIFIED., .F., .F., .U., (2, 2), (2, 2), (0., 1.), (0., 1.), .UNSPECIFIED.);
#577 = CARTESIAN_POINT('', (105., 20., 0.));
#578 = CARTESIAN_POINT('', (105., 20., 5.));
#579 = CARTESIAN_POINT('', (105., 60., 0.));
#580 = CARTESIAN_POINT('', (105., 60., 5.));
#581 = ADVANCED_FACE('', (#582), #588, .F.);
#582 = FACE_OUTER_BOUND('', #583, .F.);
#583 = EDGE_LOOP('', (#584, #585, #586, #587));
#584 = ORIENTED_EDGE('', *, *, #521, .F.);
#585 = ORIENTED_EDGE('', *, *, #256, .T.);
#586 = ORIENTED_EDGE('', *, *, #439, .T.);
#587 = ORIENTED_EDGE('', *, *, #467, .F.);
#588 = (
   BOUNDED_SURFACE ()
   B_SPLINE_SURFACE (2, 1, ((#589, #590), (#591, #592), (#593, #594), (#595, #596), (#597, #598)), .UNSPECIFIED., .F., .F., .U.)
   B_SPLINE_SURFACE_WITH_KNOTS ((3, 2, 3), (2, 2), (0., 90., 180.), (0., 5.), .UNSPECIFIED.)
   GEOMETRIC_REPRESENTATION_ITEM ()
   RATIONAL_B_SPLINE_SURFACE (((1., 1.), (0.707106781186548, 0.707106781186548), (1., 1.), (0.707106781186548, 0.707106781186548), (1., 1.)))
   REPRESENTATION_ITEM ('')
   SURFACE ()
);
#589 = CARTESIAN_POINT('', (15., 28., 0.));
#590 = CARTESIAN_POINT('', (15., 28., 5.));
#591 = CARTESIAN_POINT('', (11., 28., 0.));
#592 = CARTESIAN_POINT('', (11., 28., 5.));
#593 = CARTESIAN_POINT('', (11., 24., 0.));
#594 = CARTESIAN_POINT('', (11., 24., 5.));
#595 = CARTESIAN_POINT('', (11., 20., 0.));
#596 = CARTESIAN_POINT('', (11., 20., 5.));
#597 = CARTESIAN_POINT('', (15., 20., 0.));
#598 = CARTESIAN_POINT('', (15., 20., 5.));
#599 = DRAUGHTING_MODEL('', (#607), #608);
#600 = PRESENTATION_STYLE_ASSIGNMENT((#601));
#601 = SURFACE_STYLE_USAGE(.POSITIVE., #602);
#602 = SURFACE_SIDE_STYLE('', (#603));
#603 = SURFACE_STYLE_FILL_AREA(#604);
#604 = FILL_AREA_STYLE('', (#605));
#605 = FILL_AREA_STYLE_COLOUR('', #606);
#606 = COLOUR_RGB('', 0.50196078431373, 0.50196078431373, 0.50196078431373);
#607 = STYLED_ITEM('', (#600), #1);
#608 = (
   GEOMETRIC_REPRESENTATION_CONTEXT (3)
   GLOBAL_UNCERTAINTY_ASSIGNED_CONTEXT ((#610))
   GLOBAL_UNIT_ASSIGNED_CONTEXT ((#609, #611, #612))
   REPRESENTATION_CONTEXT ('', '3D')
);
#609 = (
   LENGTH_UNIT ()
   NAMED_UNIT (*)
   SI_UNIT (.MILLI., .METRE.)
);
#610 = UNCERTAINTY_MEASURE_WITH_UNIT(LENGTH_MEASURE(1.E-6), #609, 'DISTANCE_ACCURACY_VALUE', '');
#611 = (
   NAMED_UNIT (*)
   SI_UNIT ($, .STERADIAN.)
   SOLID_ANGLE_UNIT ()
);
#612 = (
   NAMED_UNIT (*)
   PLANE_ANGLE_UNIT ()
   SI_UNIT ($, .RADIAN.)
);
#613 = SHAPE_REPRESENTATION('', (#626), #608);
#614 = PRODUCT_DEFINITION_SHAPE('', '', #615);
#615 = PRODUCT_DEFINITION('', '', #618, #622);
#616 = APPLICATION_CONTEXT('configuration controlled 3D designs of mechanical parts and assemblies');
#617 = APPLICATION_PROTOCOL_DEFINITION('International Standard', 'automotive_design', 2002, #616);
#618 = PRODUCT_DEFINITION_FORMATION_WITH_SPECIFIED_SOURCE('', '', #619, .NOT_KNOWN.);
#619 = PRODUCT('LiquidMixerV2', 'LiquidMixerV2', '', (#620));
#620 = PRODUCT_CONTEXT('', #616, 'mechanical');
#621 = PRODUCT_RELATED_PRODUCT_CATEGORY('detail', '', (#619));
#622 = PRODUCT_DEFINITION_CONTEXT('part definition', #616, 'design');
#623 = SHAPE_DEFINITION_REPRESENTATION(#614, #613);
#624 = SHAPE_REPRESENTATION_RELATIONSHIP('', '', #613, #625);
#625 = ADVANCED_BREP_SHAPE_REPRESENTATION('', (#1), #608);
#626 = AXIS2_PLACEMENT_3D('', #627, #628, #629);
#627 = CARTESIAN_POINT('', (0., 0., 0.));
#628 = DIRECTION('', (0., 0., 1.));
#629 = DIRECTION('', (1., 0., 0.));
ENDSEC;
END-ISO-10303-21;
