ISO-10303-21;
HEADER;
FILE_DESCRIPTION(('STEP'), '1');
FILE_NAME('LiquidMixerV2', '2026-06-10T00:58:07', (''), (''), 'Express 3.1.3.0', 'Express Tool', 'Unknown');
FILE_SCHEMA(('AUTOMOTIVE_DESIGN'));
ENDSEC;

DATA;
#1 = MANIFOLD_SOLID_BREP('Subtraction_0', #2);
#2 = CLOSED_SHELL('', (#3, #43, #82, #119, #156, #175, #215, #340, #362, #384, #453, #471, #487, #515, #543, #591, #611, #633, #649, #661, #679, #722, #765, #777, #820, #863, #875, #918, #943, #986));
#3 = ADVANCED_FACE('', (#4), #36, .T.);
#4 = FACE_OUTER_BOUND('', #5, .T.);
#5 = EDGE_LOOP('', (#6, #15, #23, #30));
#6 = ORIENTED_EDGE('', *, *, #7, .T.);
#7 = EDGE_CURVE('', #8, #10, #12, .T.);
#8 = VERTEX_POINT('', #9);
#9 = CARTESIAN_POINT('', (54.1538461538462, 58.2544879786026, 35.));
#10 = VERTEX_POINT('', #11);
#11 = CARTESIAN_POINT('', (54.1538461538462, 58.2544879786026, 45.));
#12 = B_SPLINE_CURVE_WITH_KNOTS('', 1, (#13, #14), .UNSPECIFIED., .F., .U., (2, 2), (0., 10.), .UNSPECIFIED.);
#13 = CARTESIAN_POINT('', (54.1538461538462, 58.2544879786026, 35.));
#14 = CARTESIAN_POINT('', (54.1538461538462, 58.2544879786026, 45.));
#15 = ORIENTED_EDGE('', *, *, #16, .T.);
#16 = EDGE_CURVE('', #10, #17, #19, .T.);
#17 = VERTEX_POINT('', #18);
#18 = CARTESIAN_POINT('', (65.8461538461538, 58.2544879786026, 45.));
#19 = (
   BOUNDED_CURVE ()
   B_SPLINE_CURVE (2, (#20, #21, #22), .UNSPECIFIED., .F., .U.)
   B_SPLINE_CURVE_WITH_KNOTS ((3, 3), (0., 71.5516466891157), .UNSPECIFIED.)
   CURVE ()
   GEOMETRIC_REPRESENTATION_ITEM ()
   RATIONAL_B_SPLINE_CURVE ((1., 0.811310576826783, 1.))
   REPRESENTATION_ITEM ('')
);
#20 = CARTESIAN_POINT('', (54.1538461538462, 58.2544879786026, 45.));
#21 = CARTESIAN_POINT('', (60., 54.041857727118, 45.));
#22 = CARTESIAN_POINT('', (65.8461538461538, 58.2544879786026, 45.));
#23 = ORIENTED_EDGE('', *, *, #24, .F.);
#24 = EDGE_CURVE('', #25, #17, #27, .T.);
#25 = VERTEX_POINT('', #26);
#26 = CARTESIAN_POINT('', (65.8461538461538, 58.2544879786026, 35.));
#27 = B_SPLINE_CURVE_WITH_KNOTS('', 1, (#28, #29), .UNSPECIFIED., .F., .U., (2, 2), (0., 10.), .UNSPECIFIED.);
#28 = CARTESIAN_POINT('', (65.8461538461538, 58.2544879786026, 35.));
#29 = CARTESIAN_POINT('', (65.8461538461538, 58.2544879786026, 45.));
#30 = ORIENTED_EDGE('', *, *, #31, .F.);
#31 = EDGE_CURVE('', #8, #25, #32, .T.);
#32 = (
   BOUNDED_CURVE ()
   B_SPLINE_CURVE (2, (#33, #34, #35), .UNSPECIFIED., .F., .U.)
   B_SPLINE_CURVE_WITH_KNOTS ((3, 3), (0., 71.5516466891157), .UNSPECIFIED.)
   CURVE ()
   GEOMETRIC_REPRESENTATION_ITEM ()
   RATIONAL_B_SPLINE_CURVE ((1., 0.811310576826783, 1.))
   REPRESENTATION_ITEM ('')
);
#33 = CARTESIAN_POINT('', (54.1538461538462, 58.2544879786026, 35.));
#34 = CARTESIAN_POINT('', (60., 54.041857727118, 35.));
#35 = CARTESIAN_POINT('', (65.8461538461538, 58.2544879786026, 35.));
#36 = (
   BOUNDED_SURFACE ()
   B_SPLINE_SURFACE (1, 2, ((#37, #38, #39), (#40, #41, #42)), .UNSPECIFIED., .F., .F., .U.)
   B_SPLINE_SURFACE_WITH_KNOTS ((2, 2), (3, 3), (0., 10.), (0., 71.5516466891157), .UNSPECIFIED.)
   GEOMETRIC_REPRESENTATION_ITEM ()
   RATIONAL_B_SPLINE_SURFACE (((1., 0.811310576826783, 1.), (1., 0.811310576826783, 1.)))
   REPRESENTATION_ITEM ('')
   SURFACE ()
);
#37 = CARTESIAN_POINT('', (54.1538461538462, 58.2544879786026, 35.));
#38 = CARTESIAN_POINT('', (60., 54.041857727118, 35.));
#39 = CARTESIAN_POINT('', (65.8461538461538, 58.2544879786026, 35.));
#40 = CARTESIAN_POINT('', (54.1538461538462, 58.2544879786026, 45.));
#41 = CARTESIAN_POINT('', (60., 54.041857727118, 45.));
#42 = CARTESIAN_POINT('', (65.8461538461538, 58.2544879786026, 45.));
#43 = ADVANCED_FACE('', (#44), #77, .T.);
#44 = FACE_OUTER_BOUND('', #45, .T.);
#45 = EDGE_LOOP('', (#46, #47, #59, #67));
#46 = ORIENTED_EDGE('', *, *, #16, .F.);
#47 = ORIENTED_EDGE('', *, *, #48, .T.);
#48 = EDGE_CURVE('', #10, #49, #51, .T.);
#49 = VERTEX_POINT('', #50);
#50 = CARTESIAN_POINT('', (54.1538461538462, 21.7455120213974, 45.));
#51 = (
   BOUNDED_CURVE ()
   B_SPLINE_CURVE (2, (#52, #53, #54, #55, #56, #57, #58), .UNSPECIFIED., .F., .U.)
   B_SPLINE_CURVE_WITH_KNOTS ((3, 2, 2, 3), (0., 83.8505488963719, 167.701097792744, 251.551646689116), .UNSPECIFIED.)
   CURVE ()
   GEOMETRIC_REPRESENTATION_ITEM ()
   RATIONAL_B_SPLINE_CURVE ((1., 0.744016877965413, 1., 0.744016877965413, 1., 0.744016877965413, 1.))
   REPRESENTATION_ITEM ('')
);
#52 = CARTESIAN_POINT('', (54.1538461538462, 58.2544879786026, 45.));
#53 = CARTESIAN_POINT('', (37.7604899394566, 70.0672370319882, 45.));
#54 = CARTESIAN_POINT('', (24.2596202457782, 55.0336185159941, 45.));
#55 = CARTESIAN_POINT('', (10.7587505520998, 40., 45.));
#56 = CARTESIAN_POINT('', (24.2596202457782, 24.9663814840059, 45.));
#57 = CARTESIAN_POINT('', (37.7604899394566, 9.93276296801177, 45.));
#58 = CARTESIAN_POINT('', (54.1538461538462, 21.7455120213974, 45.));
#59 = ORIENTED_EDGE('', *, *, #60, .F.);
#60 = EDGE_CURVE('', #61, #49, #63, .T.);
#61 = VERTEX_POINT('', #62);
#62 = CARTESIAN_POINT('', (65.8461538461538, 21.7455120213974, 45.));
#63 = (
   BOUNDED_CURVE ()
   B_SPLINE_CURVE (2, (#64, #65, #66), .UNSPECIFIED., .F., .U.)
   B_SPLINE_CURVE_WITH_KNOTS ((3, 3), (0., 71.5516466891163), .UNSPECIFIED.)
   CURVE ()
   GEOMETRIC_REPRESENTATION_ITEM ()
   RATIONAL_B_SPLINE_CURVE ((1., 0.81131057682678, 1.))
   REPRESENTATION_ITEM ('')
);
#64 = CARTESIAN_POINT('', (65.8461538461538, 21.7455120213974, 45.));
#65 = CARTESIAN_POINT('', (60., 25.9581422728821, 45.));
#66 = CARTESIAN_POINT('', (54.1538461538461, 21.7455120213974, 45.));
#67 = ORIENTED_EDGE('', *, *, #68, .T.);
#68 = EDGE_CURVE('', #61, #17, #69, .T.);
#69 = (
   BOUNDED_CURVE ()
   B_SPLINE_CURVE (2, (#70, #71, #72, #73, #74, #75, #76), .UNSPECIFIED., .F., .U.)
   B_SPLINE_CURVE_WITH_KNOTS ((3, 2, 2, 3), (0., 83.8505488963719, 167.701097792744, 251.551646689116), .UNSPECIFIED.)
   CURVE ()
   GEOMETRIC_REPRESENTATION_ITEM ()
   RATIONAL_B_SPLINE_CURVE ((1., 0.744016877965413, 1., 0.744016877965413, 1., 0.744016877965413, 1.))
   REPRESENTATION_ITEM ('')
);
#70 = CARTESIAN_POINT('', (65.8461538461538, 21.7455120213974, 45.));
#71 = CARTESIAN_POINT('', (82.2395100605433, 9.93276296801176, 45.));
#72 = CARTESIAN_POINT('', (95.7403797542218, 24.9663814840059, 45.));
#73 = CARTESIAN_POINT('', (109.2412494479, 40., 45.));
#74 = CARTESIAN_POINT('', (95.7403797542218, 55.0336185159941, 45.));
#75 = CARTESIAN_POINT('', (82.2395100605434, 70.0672370319882, 45.));
#76 = CARTESIAN_POINT('', (65.8461538461538, 58.2544879786026, 45.));
#77 = B_SPLINE_SURFACE_WITH_KNOTS('', 1, 1, ((#78, #79), (#80, #81)), .UNSPECIFIED., .F., .F., .U., (2, 2), (2, 2), (0., 1.), (0., 1.), .UNSPECIFIED.);
#78 = CARTESIAN_POINT('', (123.464751333421, -23.4647513334213, 45.));
#79 = CARTESIAN_POINT('', (-3.4647513334213, -23.4647513334213, 45.));
#80 = CARTESIAN_POINT('', (123.464751333421, 103.464751333421, 45.));
#81 = CARTESIAN_POINT('', (-3.4647513334213, 103.464751333421, 45.));
#82 = ADVANCED_FACE('', (#83), #104, .T.);
#83 = FACE_OUTER_BOUND('', #84, .T.);
#84 = EDGE_LOOP('', (#85, #86, #98, #103));
#85 = ORIENTED_EDGE('', *, *, #7, .F.);
#86 = ORIENTED_EDGE('', *, *, #87, .T.);
#87 = EDGE_CURVE('', #8, #88, #90, .T.);
#88 = VERTEX_POINT('', #89);
#89 = CARTESIAN_POINT('', (54.1538461538462, 21.7455120213974, 35.));
#90 = (
   BOUNDED_CURVE ()
   B_SPLINE_CURVE (2, (#91, #92, #93, #94, #95, #96, #97), .UNSPECIFIED., .F., .U.)
   B_SPLINE_CURVE_WITH_KNOTS ((3, 2, 2, 3), (0., 83.8505488963719, 167.701097792744, 251.551646689116), .UNSPECIFIED.)
   CURVE ()
   GEOMETRIC_REPRESENTATION_ITEM ()
   RATIONAL_B_SPLINE_CURVE ((1., 0.744016877965413, 1., 0.744016877965413, 1., 0.744016877965413, 1.))
   REPRESENTATION_ITEM ('')
);
#91 = CARTESIAN_POINT('', (54.1538461538462, 58.2544879786026, 35.));
#92 = CARTESIAN_POINT('', (37.7604899394566, 70.0672370319882, 35.));
#93 = CARTESIAN_POINT('', (24.2596202457782, 55.0336185159941, 35.));
#94 = CARTESIAN_POINT('', (10.7587505520998, 40., 35.));
#95 = CARTESIAN_POINT('', (24.2596202457782, 24.9663814840059, 35.));
#96 = CARTESIAN_POINT('', (37.7604899394566, 9.93276296801177, 35.));
#97 = CARTESIAN_POINT('', (54.1538461538462, 21.7455120213974, 35.));
#98 = ORIENTED_EDGE('', *, *, #99, .T.);
#99 = EDGE_CURVE('', #88, #49, #100, .T.);
#100 = B_SPLINE_CURVE_WITH_KNOTS('', 1, (#101, #102), .UNSPECIFIED., .F., .U., (2, 2), (0., 10.), .UNSPECIFIED.);
#101 = CARTESIAN_POINT('', (54.1538461538462, 21.7455120213974, 35.));
#102 = CARTESIAN_POINT('', (54.1538461538462, 21.7455120213974, 45.));
#103 = ORIENTED_EDGE('', *, *, #48, .F.);
#104 = (
   BOUNDED_SURFACE ()
   B_SPLINE_SURFACE (2, 1, ((#105, #106), (#107, #108), (#109, #110), (#111, #112), (#113, #114), (#115, #116), (#117, #118)), .UNSPECIFIED., .F., .F., .U.)
   B_SPLINE_SURFACE_WITH_KNOTS ((3, 2, 2, 3), (2, 2), (0., 83.8505488963719, 167.701097792744, 251.551646689116), (0., 10.), .UNSPECIFIED.)
   GEOMETRIC_REPRESENTATION_ITEM ()
   RATIONAL_B_SPLINE_SURFACE (((1., 1.), (0.744016877965413, 0.744016877965413), (1., 1.), (0.744016877965413, 0.744016877965413), (1., 1.), (0.744016877965413, 0.744016877965413), (1., 1.)))
   REPRESENTATION_ITEM ('')
   SURFACE ()
);
#105 = CARTESIAN_POINT('', (54.1538461538462, 58.2544879786026, 35.));
#106 = CARTESIAN_POINT('', (54.1538461538462, 58.2544879786026, 45.));
#107 = CARTESIAN_POINT('', (37.7604899394566, 70.0672370319882, 35.));
#108 = CARTESIAN_POINT('', (37.7604899394566, 70.0672370319882, 45.));
#109 = CARTESIAN_POINT('', (24.2596202457782, 55.0336185159941, 35.));
#110 = CARTESIAN_POINT('', (24.2596202457782, 55.0336185159941, 45.));
#111 = CARTESIAN_POINT('', (10.7587505520998, 40., 35.));
#112 = CARTESIAN_POINT('', (10.7587505520998, 40., 45.));
#113 = CARTESIAN_POINT('', (24.2596202457782, 24.9663814840059, 35.));
#114 = CARTESIAN_POINT('', (24.2596202457782, 24.9663814840059, 45.));
#115 = CARTESIAN_POINT('', (37.7604899394566, 9.93276296801177, 35.));
#116 = CARTESIAN_POINT('', (37.7604899394566, 9.93276296801177, 45.));
#117 = CARTESIAN_POINT('', (54.1538461538462, 21.7455120213974, 35.));
#118 = CARTESIAN_POINT('', (54.1538461538462, 21.7455120213974, 45.));
#119 = ADVANCED_FACE('', (#120), #141, .T.);
#120 = FACE_OUTER_BOUND('', #121, .T.);
#121 = EDGE_LOOP('', (#122, #129, #139, #140));
#122 = ORIENTED_EDGE('', *, *, #123, .F.);
#123 = EDGE_CURVE('', #124, #61, #126, .T.);
#124 = VERTEX_POINT('', #125);
#125 = CARTESIAN_POINT('', (65.8461538461538, 21.7455120213974, 35.));
#126 = B_SPLINE_CURVE_WITH_KNOTS('', 1, (#127, #128), .UNSPECIFIED., .F., .U., (2, 2), (0., 10.), .UNSPECIFIED.);
#127 = CARTESIAN_POINT('', (65.8461538461538, 21.7455120213974, 35.));
#128 = CARTESIAN_POINT('', (65.8461538461538, 21.7455120213974, 45.));
#129 = ORIENTED_EDGE('', *, *, #130, .T.);
#130 = EDGE_CURVE('', #124, #25, #131, .T.);
#131 = (
   BOUNDED_CURVE ()
   B_SPLINE_CURVE (2, (#132, #133, #134, #135, #136, #137, #138), .UNSPECIFIED., .F., .U.)
   B_SPLINE_CURVE_WITH_KNOTS ((3, 2, 2, 3), (0., 83.8505488963719, 167.701097792744, 251.551646689116), .UNSPECIFIED.)
   CURVE ()
   GEOMETRIC_REPRESENTATION_ITEM ()
   RATIONAL_B_SPLINE_CURVE ((1., 0.744016877965413, 1., 0.744016877965413, 1., 0.744016877965413, 1.))
   REPRESENTATION_ITEM ('')
);
#132 = CARTESIAN_POINT('', (65.8461538461538, 21.7455120213974, 35.));
#133 = CARTESIAN_POINT('', (82.2395100605433, 9.93276296801176, 35.));
#134 = CARTESIAN_POINT('', (95.7403797542218, 24.9663814840059, 35.));
#135 = CARTESIAN_POINT('', (109.2412494479, 40., 35.));
#136 = CARTESIAN_POINT('', (95.7403797542218, 55.0336185159941, 35.));
#137 = CARTESIAN_POINT('', (82.2395100605434, 70.0672370319882, 35.));
#138 = CARTESIAN_POINT('', (65.8461538461538, 58.2544879786026, 35.));
#139 = ORIENTED_EDGE('', *, *, #24, .T.);
#140 = ORIENTED_EDGE('', *, *, #68, .F.);
#141 = (
   BOUNDED_SURFACE ()
   B_SPLINE_SURFACE (2, 1, ((#142, #143), (#144, #145), (#146, #147), (#148, #149), (#150, #151), (#152, #153), (#154, #155)), .UNSPECIFIED., .F., .F., .U.)
   B_SPLINE_SURFACE_WITH_KNOTS ((3, 2, 2, 3), (2, 2), (0., 83.8505488963719, 167.701097792744, 251.551646689116), (0., 10.), .UNSPECIFIED.)
   GEOMETRIC_REPRESENTATION_ITEM ()
   RATIONAL_B_SPLINE_SURFACE (((1., 1.), (0.744016877965413, 0.744016877965413), (1., 1.), (0.744016877965413, 0.744016877965413), (1., 1.), (0.744016877965413, 0.744016877965413), (1., 1.)))
   REPRESENTATION_ITEM ('')
   SURFACE ()
);
#142 = CARTESIAN_POINT('', (65.8461538461538, 21.7455120213974, 35.));
#143 = CARTESIAN_POINT('', (65.8461538461538, 21.7455120213974, 45.));
#144 = CARTESIAN_POINT('', (82.2395100605433, 9.93276296801176, 35.));
#145 = CARTESIAN_POINT('', (82.2395100605433, 9.93276296801176, 45.));
#146 = CARTESIAN_POINT('', (95.7403797542218, 24.9663814840059, 35.));
#147 = CARTESIAN_POINT('', (95.7403797542218, 24.9663814840059, 45.));
#148 = CARTESIAN_POINT('', (109.2412494479, 40., 35.));
#149 = CARTESIAN_POINT('', (109.2412494479, 40., 45.));
#150 = CARTESIAN_POINT('', (95.7403797542218, 55.0336185159941, 35.));
#151 = CARTESIAN_POINT('', (95.7403797542218, 55.0336185159941, 45.));
#152 = CARTESIAN_POINT('', (82.2395100605434, 70.0672370319882, 35.));
#153 = CARTESIAN_POINT('', (82.2395100605434, 70.0672370319882, 45.));
#154 = CARTESIAN_POINT('', (65.8461538461538, 58.2544879786026, 35.));
#155 = CARTESIAN_POINT('', (65.8461538461538, 58.2544879786026, 45.));
#156 = ADVANCED_FACE('', (#157), #168, .T.);
#157 = FACE_OUTER_BOUND('', #158, .T.);
#158 = EDGE_LOOP('', (#159, #160, #161, #162));
#159 = ORIENTED_EDGE('', *, *, #123, .T.);
#160 = ORIENTED_EDGE('', *, *, #60, .T.);
#161 = ORIENTED_EDGE('', *, *, #99, .F.);
#162 = ORIENTED_EDGE('', *, *, #163, .F.);
#163 = EDGE_CURVE('', #124, #88, #164, .T.);
#164 = (
   BOUNDED_CURVE ()
   B_SPLINE_CURVE (2, (#165, #166, #167), .UNSPECIFIED., .F., .U.)
   B_SPLINE_CURVE_WITH_KNOTS ((3, 3), (0., 71.5516466891163), .UNSPECIFIED.)
   CURVE ()
   GEOMETRIC_REPRESENTATION_ITEM ()
   RATIONAL_B_SPLINE_CURVE ((1., 0.81131057682678, 1.))
   REPRESENTATION_ITEM ('')
);
#165 = CARTESIAN_POINT('', (65.8461538461538, 21.7455120213974, 35.));
#166 = CARTESIAN_POINT('', (60., 25.9581422728821, 35.));
#167 = CARTESIAN_POINT('', (54.1538461538461, 21.7455120213974, 35.));
#168 = (
   BOUNDED_SURFACE ()
   B_SPLINE_SURFACE (1, 2, ((#169, #170, #171), (#172, #173, #174)), .UNSPECIFIED., .F., .F., .U.)
   B_SPLINE_SURFACE_WITH_KNOTS ((2, 2), (3, 3), (0., 10.), (0., 71.5516466891163), .UNSPECIFIED.)
   GEOMETRIC_REPRESENTATION_ITEM ()
   RATIONAL_B_SPLINE_SURFACE (((1., 0.81131057682678, 1.), (1., 0.81131057682678, 1.)))
   REPRESENTATION_ITEM ('')
   SURFACE ()
);
#169 = CARTESIAN_POINT('', (65.8461538461538, 21.7455120213974, 35.));
#170 = CARTESIAN_POINT('', (60., 25.9581422728821, 35.));
#171 = CARTESIAN_POINT('', (54.1538461538461, 21.7455120213974, 35.));
#172 = CARTESIAN_POINT('', (65.8461538461538, 21.7455120213974, 45.));
#173 = CARTESIAN_POINT('', (60., 25.9581422728821, 45.));
#174 = CARTESIAN_POINT('', (54.1538461538461, 21.7455120213974, 45.));
#175 = ADVANCED_FACE('', (#176), #208, .T.);
#176 = FACE_OUTER_BOUND('', #177, .T.);
#177 = EDGE_LOOP('', (#178, #187, #195, #202));
#178 = ORIENTED_EDGE('', *, *, #179, .F.);
#179 = EDGE_CURVE('', #180, #182, #184, .T.);
#180 = VERTEX_POINT('', #181);
#181 = CARTESIAN_POINT('', (0., 10., 0.));
#182 = VERTEX_POINT('', #183);
#183 = CARTESIAN_POINT('', (0., 10., 35.));
#184 = B_SPLINE_CURVE_WITH_KNOTS('', 1, (#185, #186), .UNSPECIFIED., .F., .U., (2, 2), (0., 35.), .UNSPECIFIED.);
#185 = CARTESIAN_POINT('', (0., 10., 0.));
#186 = CARTESIAN_POINT('', (0., 10., 35.));
#187 = ORIENTED_EDGE('', *, *, #188, .T.);
#188 = EDGE_CURVE('', #180, #189, #191, .T.);
#189 = VERTEX_POINT('', #190);
#190 = CARTESIAN_POINT('', (10., -5.32907051820075E-15, 0.));
#191 = (
   BOUNDED_CURVE ()
   B_SPLINE_CURVE (2, (#192, #193, #194), .UNSPECIFIED., .F., .U.)
   B_SPLINE_CURVE_WITH_KNOTS ((3, 3), (0., 1.), .UNSPECIFIED.)
   CURVE ()
   GEOMETRIC_REPRESENTATION_ITEM ()
   RATIONAL_B_SPLINE_CURVE ((1., 0.707106781186547, 1.))
   REPRESENTATION_ITEM ('')
);
#192 = CARTESIAN_POINT('', (0., 10., 0.));
#193 = CARTESIAN_POINT('', (-7.10542735760101E-15, -6.79926565781416E-15, 0.));
#194 = CARTESIAN_POINT('', (10., -5.32907051820075E-15, 0.));
#195 = ORIENTED_EDGE('', *, *, #196, .T.);
#196 = EDGE_CURVE('', #189, #197, #199, .T.);
#197 = VERTEX_POINT('', #198);
#198 = CARTESIAN_POINT('', (10., -5.32907051820075E-15, 35.));
#199 = B_SPLINE_CURVE_WITH_KNOTS('', 1, (#200, #201), .UNSPECIFIED., .F., .U., (2, 2), (0., 35.), .UNSPECIFIED.);
#200 = CARTESIAN_POINT('', (10., -5.32907051820075E-15, 0.));
#201 = CARTESIAN_POINT('', (10., -5.32907051820075E-15, 35.));
#202 = ORIENTED_EDGE('', *, *, #203, .F.);
#203 = EDGE_CURVE('', #182, #197, #204, .T.);
#204 = (
   BOUNDED_CURVE ()
   B_SPLINE_CURVE (2, (#205, #206, #207), .UNSPECIFIED., .F., .U.)
   B_SPLINE_CURVE_WITH_KNOTS ((3, 3), (0., 1.), .UNSPECIFIED.)
   CURVE ()
   GEOMETRIC_REPRESENTATION_ITEM ()
   RATIONAL_B_SPLINE_CURVE ((1., 0.707106781186547, 1.))
   REPRESENTATION_ITEM ('')
);
#205 = CARTESIAN_POINT('', (0., 10., 35.));
#206 = CARTESIAN_POINT('', (-7.10542735760101E-15, -6.79926565781416E-15, 35.));
#207 = CARTESIAN_POINT('', (10., -5.32907051820075E-15, 35.));
#208 = (
   BOUNDED_SURFACE ()
   B_SPLINE_SURFACE (2, 1, ((#209, #210), (#211, #212), (#213, #214)), .UNSPECIFIED., .F., .F., .U.)
   B_SPLINE_SURFACE_WITH_KNOTS ((3, 3), (2, 2), (0., 90.0000000000001), (0., 35.), .UNSPECIFIED.)
   GEOMETRIC_REPRESENTATION_ITEM ()
   RATIONAL_B_SPLINE_SURFACE (((1., 1.), (0.707106781186547, 0.707106781186547), (1., 1.)))
   REPRESENTATION_ITEM ('')
   SURFACE ()
);
#209 = CARTESIAN_POINT('', (0., 10., 0.));
#210 = CARTESIAN_POINT('', (0., 10., 35.));
#211 = CARTESIAN_POINT('', (-7.10542735760101E-15, -6.79926565781416E-15, 0.));
#212 = CARTESIAN_POINT('', (-7.10542735760101E-15, -6.79926565781416E-15, 35.));
#213 = CARTESIAN_POINT('', (10., -5.32907051820075E-15, 0.));
#214 = CARTESIAN_POINT('', (10., -5.32907051820075E-15, 35.));
#215 = ADVANCED_FACE('', (#216, #253, #303, #319), #335, .T.);
#216 = FACE_OUTER_BOUND('', #217, .T.);
#217 = EDGE_LOOP('', (#218, #219, #226, #234, #241, #248));
#218 = ORIENTED_EDGE('', *, *, #188, .F.);
#219 = ORIENTED_EDGE('', *, *, #220, .F.);
#220 = EDGE_CURVE('', #221, #180, #223, .T.);
#221 = VERTEX_POINT('', #222);
#222 = CARTESIAN_POINT('', (0., 70., 0.));
#223 = B_SPLINE_CURVE_WITH_KNOTS('', 1, (#224, #225), .UNSPECIFIED., .F., .U., (2, 2), (0., 1.), .UNSPECIFIED.);
#224 = CARTESIAN_POINT('', (0., 70., 0.));
#225 = CARTESIAN_POINT('', (0., 10., 0.));
#226 = ORIENTED_EDGE('', *, *, #227, .F.);
#227 = EDGE_CURVE('', #228, #221, #230, .T.);
#228 = VERTEX_POINT('', #229);
#229 = CARTESIAN_POINT('', (10., 80., 0.));
#230 = (
   BOUNDED_CURVE ()
   B_SPLINE_CURVE (2, (#231, #232, #233), .UNSPECIFIED., .F., .U.)
   B_SPLINE_CURVE_WITH_KNOTS ((3, 3), (0., 90.), .UNSPECIFIED.)
   CURVE ()
   GEOMETRIC_REPRESENTATION_ITEM ()
   RATIONAL_B_SPLINE_CURVE ((1., 0.707106781186548, 1.))
   REPRESENTATION_ITEM ('')
);
#231 = CARTESIAN_POINT('', (10., 80., 0.));
#232 = CARTESIAN_POINT('', (3.06161699786838E-16, 80., 0.));
#233 = CARTESIAN_POINT('', (0., 70., 0.));
#234 = ORIENTED_EDGE('', *, *, #235, .F.);
#235 = EDGE_CURVE('', #236, #228, #238, .T.);
#236 = VERTEX_POINT('', #237);
#237 = CARTESIAN_POINT('', (120., 80., 0.));
#238 = B_SPLINE_CURVE_WITH_KNOTS('', 1, (#239, #240), .UNSPECIFIED., .F., .U., (2, 2), (0., 1.), .UNSPECIFIED.);
#239 = CARTESIAN_POINT('', (120., 80., 0.));
#240 = CARTESIAN_POINT('', (10., 80., 0.));
#241 = ORIENTED_EDGE('', *, *, #242, .F.);
#242 = EDGE_CURVE('', #243, #236, #245, .T.);
#243 = VERTEX_POINT('', #244);
#244 = CARTESIAN_POINT('', (120., 0., 0.));
#245 = B_SPLINE_CURVE_WITH_KNOTS('', 1, (#246, #247), .UNSPECIFIED., .F., .U., (2, 2), (0., 1.), .UNSPECIFIED.);
#246 = CARTESIAN_POINT('', (120., 0., 0.));
#247 = CARTESIAN_POINT('', (120., 80., 0.));
#248 = ORIENTED_EDGE('', *, *, #249, .F.);
#249 = EDGE_CURVE('', #189, #243, #250, .T.);
#250 = B_SPLINE_CURVE_WITH_KNOTS('', 1, (#251, #252), .UNSPECIFIED., .F., .U., (2, 2), (0., 1.), .UNSPECIFIED.);
#251 = CARTESIAN_POINT('', (10., 0., 0.));
#252 = CARTESIAN_POINT('', (120., 0., 0.));
#253 = FACE_BOUND('', #254, .T.);
#254 = EDGE_LOOP('', (#255, #267, #274, #281, #288, #298));
#255 = ORIENTED_EDGE('', *, *, #256, .T.);
#256 = EDGE_CURVE('', #257, #259, #261, .T.);
#257 = VERTEX_POINT('', #258);
#258 = CARTESIAN_POINT('', (15., 28., 0.));
#259 = VERTEX_POINT('', #260);
#260 = CARTESIAN_POINT('', (15., 20., 0.));
#261 = (
   BOUNDED_CURVE ()
   B_SPLINE_CURVE (2, (#262, #263, #264, #265, #266), .UNSPECIFIED., .F., .U.)
   B_SPLINE_CURVE_WITH_KNOTS ((3, 2, 3), (0., 90., 180.), .UNSPECIFIED.)
   CURVE ()
   GEOMETRIC_REPRESENTATION_ITEM ()
   RATIONAL_B_SPLINE_CURVE ((1., 0.707106781186548, 1., 0.707106781186548, 1.))
   REPRESENTATION_ITEM ('')
);
#262 = CARTESIAN_POINT('', (15., 28., 0.));
#263 = CARTESIAN_POINT('', (11., 28., 0.));
#264 = CARTESIAN_POINT('', (11., 24., 0.));
#265 = CARTESIAN_POINT('', (11., 20., 0.));
#266 = CARTESIAN_POINT('', (15., 20., 0.));
#267 = ORIENTED_EDGE('', *, *, #268, .F.);
#268 = EDGE_CURVE('', #269, #259, #271, .T.);
#269 = VERTEX_POINT('', #270);
#270 = CARTESIAN_POINT('', (105., 20., 0.));
#271 = B_SPLINE_CURVE_WITH_KNOTS('', 1, (#272, #273), .UNSPECIFIED., .F., .U., (2, 2), (0., 1.), .UNSPECIFIED.);
#272 = CARTESIAN_POINT('', (105., 20., 0.));
#273 = CARTESIAN_POINT('', (15., 20., 0.));
#274 = ORIENTED_EDGE('', *, *, #275, .F.);
#275 = EDGE_CURVE('', #276, #269, #278, .T.);
#276 = VERTEX_POINT('', #277);
#277 = CARTESIAN_POINT('', (105., 60., 0.));
#278 = B_SPLINE_CURVE_WITH_KNOTS('', 1, (#279, #280), .UNSPECIFIED., .F., .U., (2, 2), (0., 1.), .UNSPECIFIED.);
#279 = CARTESIAN_POINT('', (105., 60., 0.));
#280 = CARTESIAN_POINT('', (105., 20., 0.));
#281 = ORIENTED_EDGE('', *, *, #282, .F.);
#282 = EDGE_CURVE('', #283, #276, #285, .T.);
#283 = VERTEX_POINT('', #284);
#284 = CARTESIAN_POINT('', (15., 60., 0.));
#285 = B_SPLINE_CURVE_WITH_KNOTS('', 1, (#286, #287), .UNSPECIFIED., .F., .U., (2, 2), (0., 1.), .UNSPECIFIED.);
#286 = CARTESIAN_POINT('', (15., 60., 0.));
#287 = CARTESIAN_POINT('', (105., 60., 0.));
#288 = ORIENTED_EDGE('', *, *, #289, .T.);
#289 = EDGE_CURVE('', #283, #290, #292, .T.);
#290 = VERTEX_POINT('', #291);
#291 = CARTESIAN_POINT('', (15., 52., 0.));
#292 = (
   BOUNDED_CURVE ()
   B_SPLINE_CURVE (2, (#293, #294, #295, #296, #297), .UNSPECIFIED., .F., .U.)
   B_SPLINE_CURVE_WITH_KNOTS ((3, 2, 3), (0., 90., 180.), .UNSPECIFIED.)
   CURVE ()
   GEOMETRIC_REPRESENTATION_ITEM ()
   RATIONAL_B_SPLINE_CURVE ((1., 0.707106781186548, 1., 0.707106781186548, 1.))
   REPRESENTATION_ITEM ('')
);
#293 = CARTESIAN_POINT('', (15., 60., 0.));
#294 = CARTESIAN_POINT('', (11., 60., 0.));
#295 = CARTESIAN_POINT('', (11., 56., 0.));
#296 = CARTESIAN_POINT('', (11., 52., 0.));
#297 = CARTESIAN_POINT('', (15., 52., 0.));
#298 = ORIENTED_EDGE('', *, *, #299, .F.);
#299 = EDGE_CURVE('', #257, #290, #300, .T.);
#300 = B_SPLINE_CURVE_WITH_KNOTS('', 1, (#301, #302), .UNSPECIFIED., .F., .U., (2, 2), (0., 1.), .UNSPECIFIED.);
#301 = CARTESIAN_POINT('', (15., 28., 0.));
#302 = CARTESIAN_POINT('', (15., 52., 0.));
#303 = FACE_BOUND('', #304, .T.);
#304 = EDGE_LOOP('', (#305));
#305 = ORIENTED_EDGE('', *, *, #306, .T.);
#306 = EDGE_CURVE('', #307, #307, #309, .T.);
#307 = VERTEX_POINT('', #308);
#308 = CARTESIAN_POINT('', (14., 70., 0.));
#309 = (
   BOUNDED_CURVE ()
   B_SPLINE_CURVE (2, (#310, #311, #312, #313, #314, #315, #316, #317, #318), .UNSPECIFIED., .T., .U.)
   B_SPLINE_CURVE_WITH_KNOTS ((3, 2, 2, 2, 3), (0., 0.25, 0.5, 0.75, 1.), .UNSPECIFIED.)
   CURVE ()
   GEOMETRIC_REPRESENTATION_ITEM ()
   RATIONAL_B_SPLINE_CURVE ((1., 0.707106781186548, 1., 0.707106781186548, 1., 0.707106781186548, 1., 0.707106781186548, 1.))
   REPRESENTATION_ITEM ('')
);
#310 = CARTESIAN_POINT('', (14., 70., 0.));
#311 = CARTESIAN_POINT('', (14., 74., 0.));
#312 = CARTESIAN_POINT('', (10., 74., 0.));
#313 = CARTESIAN_POINT('', (6., 74., 0.));
#314 = CARTESIAN_POINT('', (6., 70., 0.));
#315 = CARTESIAN_POINT('', (6., 66., 0.));
#316 = CARTESIAN_POINT('', (10., 66., 0.));
#317 = CARTESIAN_POINT('', (14., 66., 0.));
#318 = CARTESIAN_POINT('', (14., 70., 0.));
#319 = FACE_BOUND('', #320, .T.);
#320 = EDGE_LOOP('', (#321));
#321 = ORIENTED_EDGE('', *, *, #322, .T.);
#322 = EDGE_CURVE('', #323, #323, #325, .T.);
#323 = VERTEX_POINT('', #324);
#324 = CARTESIAN_POINT('', (114., 10., 0.));
#325 = (
   BOUNDED_CURVE ()
   B_SPLINE_CURVE (2, (#326, #327, #328, #329, #330, #331, #332, #333, #334), .UNSPECIFIED., .T., .U.)
   B_SPLINE_CURVE_WITH_KNOTS ((3, 2, 2, 2, 3), (0., 0.25, 0.5, 0.75, 1.), .UNSPECIFIED.)
   CURVE ()
   GEOMETRIC_REPRESENTATION_ITEM ()
   RATIONAL_B_SPLINE_CURVE ((1., 0.707106781186548, 1., 0.707106781186548, 1., 0.707106781186548, 1., 0.707106781186548, 1.))
   REPRESENTATION_ITEM ('')
);
#326 = CARTESIAN_POINT('', (114., 10., 0.));
#327 = CARTESIAN_POINT('', (114., 14., 0.));
#328 = CARTESIAN_POINT('', (110., 14., 0.));
#329 = CARTESIAN_POINT('', (106., 14., 0.));
#330 = CARTESIAN_POINT('', (106., 10., 0.));
#331 = CARTESIAN_POINT('', (106., 6., 0.));
#332 = CARTESIAN_POINT('', (110., 6., 0.));
#333 = CARTESIAN_POINT('', (114., 6., 0.));
#334 = CARTESIAN_POINT('', (114., 10., 0.));
#335 = B_SPLINE_SURFACE_WITH_KNOTS('', 1, 1, ((#336, #337), (#338, #339)), .UNSPECIFIED., .F., .F., .U., (2, 2), (2, 2), (0., 1.), (0., 1.), .UNSPECIFIED.);
#336 = CARTESIAN_POINT('', (139.322128060208, -39.3221280602078, 0.));
#337 = CARTESIAN_POINT('', (139.322128060208, 119.322128060208, 0.));
#338 = CARTESIAN_POINT('', (-19.3221280602078, -39.3221280602078, 0.));
#339 = CARTESIAN_POINT('', (-19.3221280602078, 119.322128060208, 0.));
#340 = ADVANCED_FACE('', (#341), #357, .T.);
#341 = FACE_OUTER_BOUND('', #342, .T.);
#342 = EDGE_LOOP('', (#343, #344, #345, #352));
#343 = ORIENTED_EDGE('', *, *, #196, .F.);
#344 = ORIENTED_EDGE('', *, *, #249, .T.);
#345 = ORIENTED_EDGE('', *, *, #346, .T.);
#346 = EDGE_CURVE('', #243, #347, #349, .T.);
#347 = VERTEX_POINT('', #348);
#348 = CARTESIAN_POINT('', (120., 0., 35.));
#349 = B_SPLINE_CURVE_WITH_KNOTS('', 1, (#350, #351), .UNSPECIFIED., .F., .U., (2, 2), (0., 1.), .UNSPECIFIED.);
#350 = CARTESIAN_POINT('', (120., 0., 0.));
#351 = CARTESIAN_POINT('', (120., 0., 35.));
#352 = ORIENTED_EDGE('', *, *, #353, .F.);
#353 = EDGE_CURVE('', #197, #347, #354, .T.);
#354 = B_SPLINE_CURVE_WITH_KNOTS('', 1, (#355, #356), .UNSPECIFIED., .F., .U., (2, 2), (0., 1.), .UNSPECIFIED.);
#355 = CARTESIAN_POINT('', (10., 0., 35.));
#356 = CARTESIAN_POINT('', (120., 0., 35.));
#357 = B_SPLINE_SURFACE_WITH_KNOTS('', 1, 1, ((#358, #359), (#360, #361)), .UNSPECIFIED., .F., .F., .U., (2, 2), (2, 2), (0., 1.), (0., 1.), .UNSPECIFIED.);
#358 = CARTESIAN_POINT('', (10., 0., 0.));
#359 = CARTESIAN_POINT('', (10., 0., 35.));
#360 = CARTESIAN_POINT('', (120., 0., 0.));
#361 = CARTESIAN_POINT('', (120., 0., 35.));
#362 = ADVANCED_FACE('', (#363), #379, .T.);
#363 = FACE_OUTER_BOUND('', #364, .T.);
#364 = EDGE_LOOP('', (#365, #372, #373, #374));
#365 = ORIENTED_EDGE('', *, *, #366, .F.);
#366 = EDGE_CURVE('', #221, #367, #369, .T.);
#367 = VERTEX_POINT('', #368);
#368 = CARTESIAN_POINT('', (0., 70., 35.));
#369 = B_SPLINE_CURVE_WITH_KNOTS('', 1, (#370, #371), .UNSPECIFIED., .F., .U., (2, 2), (0., 35.), .UNSPECIFIED.);
#370 = CARTESIAN_POINT('', (0., 70., 0.));
#371 = CARTESIAN_POINT('', (0., 70., 35.));
#372 = ORIENTED_EDGE('', *, *, #220, .T.);
#373 = ORIENTED_EDGE('', *, *, #179, .T.);
#374 = ORIENTED_EDGE('', *, *, #375, .F.);
#375 = EDGE_CURVE('', #367, #182, #376, .T.);
#376 = B_SPLINE_CURVE_WITH_KNOTS('', 1, (#377, #378), .UNSPECIFIED., .F., .U., (2, 2), (0., 1.), .UNSPECIFIED.);
#377 = CARTESIAN_POINT('', (0., 70., 35.));
#378 = CARTESIAN_POINT('', (0., 10., 35.));
#379 = B_SPLINE_SURFACE_WITH_KNOTS('', 1, 1, ((#380, #381), (#382, #383)), .UNSPECIFIED., .F., .F., .U., (2, 2), (2, 2), (0., 1.), (0., 1.), .UNSPECIFIED.);
#380 = CARTESIAN_POINT('', (0., 70., 0.));
#381 = CARTESIAN_POINT('', (0., 70., 35.));
#382 = CARTESIAN_POINT('', (0., 10., 0.));
#383 = CARTESIAN_POINT('', (0., 10., 35.));
#384 = ADVANCED_FACE('', (#385, #410, #416, #432), #448, .T.);
#385 = FACE_OUTER_BOUND('', #386, .T.);
#386 = EDGE_LOOP('', (#387, #388, #389, #396, #403, #409));
#387 = ORIENTED_EDGE('', *, *, #203, .T.);
#388 = ORIENTED_EDGE('', *, *, #353, .T.);
#389 = ORIENTED_EDGE('', *, *, #390, .T.);
#390 = EDGE_CURVE('', #347, #391, #393, .T.);
#391 = VERTEX_POINT('', #392);
#392 = CARTESIAN_POINT('', (120., 80., 35.));
#393 = B_SPLINE_CURVE_WITH_KNOTS('', 1, (#394, #395), .UNSPECIFIED., .F., .U., (2, 2), (0., 1.), .UNSPECIFIED.);
#394 = CARTESIAN_POINT('', (120., 0., 35.));
#395 = CARTESIAN_POINT('', (120., 80., 35.));
#396 = ORIENTED_EDGE('', *, *, #397, .T.);
#397 = EDGE_CURVE('', #391, #398, #400, .T.);
#398 = VERTEX_POINT('', #399);
#399 = CARTESIAN_POINT('', (10., 80., 35.));
#400 = B_SPLINE_CURVE_WITH_KNOTS('', 1, (#401, #402), .UNSPECIFIED., .F., .U., (2, 2), (0., 1.), .UNSPECIFIED.);
#401 = CARTESIAN_POINT('', (120., 80., 35.));
#402 = CARTESIAN_POINT('', (10., 80., 35.));
#403 = ORIENTED_EDGE('', *, *, #404, .T.);
#404 = EDGE_CURVE('', #398, #367, #405, .T.);
#405 = (
   BOUNDED_CURVE ()
   B_SPLINE_CURVE (2, (#406, #407, #408), .UNSPECIFIED., .F., .U.)
   B_SPLINE_CURVE_WITH_KNOTS ((3, 3), (0., 90.), .UNSPECIFIED.)
   CURVE ()
   GEOMETRIC_REPRESENTATION_ITEM ()
   RATIONAL_B_SPLINE_CURVE ((1., 0.707106781186548, 1.))
   REPRESENTATION_ITEM ('')
);
#406 = CARTESIAN_POINT('', (10., 80., 35.));
#407 = CARTESIAN_POINT('', (3.06161699786838E-16, 80., 35.));
#408 = CARTESIAN_POINT('', (0., 70., 35.));
#409 = ORIENTED_EDGE('', *, *, #375, .T.);
#410 = FACE_BOUND('', #411, .T.);
#411 = EDGE_LOOP('', (#412, #413, #414, #415));
#412 = ORIENTED_EDGE('', *, *, #31, .T.);
#413 = ORIENTED_EDGE('', *, *, #130, .F.);
#414 = ORIENTED_EDGE('', *, *, #163, .T.);
#415 = ORIENTED_EDGE('', *, *, #87, .F.);
#416 = FACE_BOUND('', #417, .T.);
#417 = EDGE_LOOP('', (#418));
#418 = ORIENTED_EDGE('', *, *, #419, .F.);
#419 = EDGE_CURVE('', #420, #420, #422, .T.);
#420 = VERTEX_POINT('', #421);
#421 = CARTESIAN_POINT('', (16.75, 70., 35.));
#422 = (
   BOUNDED_CURVE ()
   B_SPLINE_CURVE (2, (#423, #424, #425, #426, #427, #428, #429, #430, #431), .UNSPECIFIED., .T., .U.)
   B_SPLINE_CURVE_WITH_KNOTS ((3, 2, 2, 2, 3), (0., 0.25, 0.5, 0.75, 1.), .UNSPECIFIED.)
   CURVE ()
   GEOMETRIC_REPRESENTATION_ITEM ()
   RATIONAL_B_SPLINE_CURVE ((1., 0.707106781186548, 1., 0.707106781186548, 1., 0.707106781186548, 1., 0.707106781186548, 1.))
   REPRESENTATION_ITEM ('')
);
#423 = CARTESIAN_POINT('', (16.75, 70., 35.));
#424 = CARTESIAN_POINT('', (16.75, 76.75, 35.));
#425 = CARTESIAN_POINT('', (10., 76.75, 35.));
#426 = CARTESIAN_POINT('', (3.25, 76.75, 35.));
#427 = CARTESIAN_POINT('', (3.25, 70., 35.));
#428 = CARTESIAN_POINT('', (3.25, 63.25, 35.));
#429 = CARTESIAN_POINT('', (10., 63.25, 35.));
#430 = CARTESIAN_POINT('', (16.75, 63.25, 35.));
#431 = CARTESIAN_POINT('', (16.75, 70., 35.));
#432 = FACE_BOUND('', #433, .T.);
#433 = EDGE_LOOP('', (#434));
#434 = ORIENTED_EDGE('', *, *, #435, .F.);
#435 = EDGE_CURVE('', #436, #436, #438, .T.);
#436 = VERTEX_POINT('', #437);
#437 = CARTESIAN_POINT('', (116.75, 10., 35.));
#438 = (
   BOUNDED_CURVE ()
   B_SPLINE_CURVE (2, (#439, #440, #441, #442, #443, #444, #445, #446, #447), .UNSPECIFIED., .T., .U.)
   B_SPLINE_CURVE_WITH_KNOTS ((3, 2, 2, 2, 3), (0., 0.25, 0.5, 0.75, 1.), .UNSPECIFIED.)
   CURVE ()
   GEOMETRIC_REPRESENTATION_ITEM ()
   RATIONAL_B_SPLINE_CURVE ((1., 0.707106781186548, 1., 0.707106781186548, 1., 0.707106781186548, 1., 0.707106781186548, 1.))
   REPRESENTATION_ITEM ('')
);
#439 = CARTESIAN_POINT('', (116.75, 10., 35.));
#440 = CARTESIAN_POINT('', (116.75, 16.75, 35.));
#441 = CARTESIAN_POINT('', (110., 16.75, 35.));
#442 = CARTESIAN_POINT('', (103.25, 16.75, 35.));
#443 = CARTESIAN_POINT('', (103.25, 10., 35.));
#444 = CARTESIAN_POINT('', (103.25, 3.25, 35.));
#445 = CARTESIAN_POINT('', (110., 3.25, 35.));
#446 = CARTESIAN_POINT('', (116.75, 3.25, 35.));
#447 = CARTESIAN_POINT('', (116.75, 10., 35.));
#448 = B_SPLINE_SURFACE_WITH_KNOTS('', 1, 1, ((#449, #450), (#451, #452)), .UNSPECIFIED., .F., .F., .U., (2, 2), (2, 2), (0., 1.), (0., 1.), .UNSPECIFIED.);
#449 = CARTESIAN_POINT('', (139.322128060208, -39.3221280602078, 35.));
#450 = CARTESIAN_POINT('', (-19.3221280602078, -39.3221280602078, 35.));
#451 = CARTESIAN_POINT('', (139.322128060208, 119.322128060208, 35.));
#452 = CARTESIAN_POINT('', (-19.3221280602078, 119.322128060208, 35.));
#453 = ADVANCED_FACE('', (#454), #464, .T.);
#454 = FACE_OUTER_BOUND('', #455, .T.);
#455 = EDGE_LOOP('', (#456, #461, #462, #463));
#456 = ORIENTED_EDGE('', *, *, #457, .F.);
#457 = EDGE_CURVE('', #228, #398, #458, .T.);
#458 = B_SPLINE_CURVE_WITH_KNOTS('', 1, (#459, #460), .UNSPECIFIED., .F., .U., (2, 2), (0., 35.), .UNSPECIFIED.);
#459 = CARTESIAN_POINT('', (10., 80., 0.));
#460 = CARTESIAN_POINT('', (10., 80., 35.));
#461 = ORIENTED_EDGE('', *, *, #227, .T.);
#462 = ORIENTED_EDGE('', *, *, #366, .T.);
#463 = ORIENTED_EDGE('', *, *, #404, .F.);
#464 = (
   BOUNDED_SURFACE ()
   B_SPLINE_SURFACE (2, 1, ((#465, #466), (#467, #468), (#469, #470)), .UNSPECIFIED., .F., .F., .U.)
   B_SPLINE_SURFACE_WITH_KNOTS ((3, 3), (2, 2), (0., 90.), (0., 35.), .UNSPECIFIED.)
   GEOMETRIC_REPRESENTATION_ITEM ()
   RATIONAL_B_SPLINE_SURFACE (((1., 1.), (0.707106781186548, 0.707106781186548), (1., 1.)))
   REPRESENTATION_ITEM ('')
   SURFACE ()
);
#465 = CARTESIAN_POINT('', (10., 80., 0.));
#466 = CARTESIAN_POINT('', (10., 80., 35.));
#467 = CARTESIAN_POINT('', (3.06161699786838E-16, 80., 0.));
#468 = CARTESIAN_POINT('', (3.06161699786838E-16, 80., 35.));
#469 = CARTESIAN_POINT('', (0., 70., 0.));
#470 = CARTESIAN_POINT('', (0., 70., 35.));
#471 = ADVANCED_FACE('', (#472), #482, .T.);
#472 = FACE_OUTER_BOUND('', #473, .T.);
#473 = EDGE_LOOP('', (#474, #479, #480, #481));
#474 = ORIENTED_EDGE('', *, *, #475, .F.);
#475 = EDGE_CURVE('', #236, #391, #476, .T.);
#476 = B_SPLINE_CURVE_WITH_KNOTS('', 1, (#477, #478), .UNSPECIFIED., .F., .U., (2, 2), (0., 1.), .UNSPECIFIED.);
#477 = CARTESIAN_POINT('', (120., 80., 0.));
#478 = CARTESIAN_POINT('', (120., 80., 35.));
#479 = ORIENTED_EDGE('', *, *, #235, .T.);
#480 = ORIENTED_EDGE('', *, *, #457, .T.);
#481 = ORIENTED_EDGE('', *, *, #397, .F.);
#482 = B_SPLINE_SURFACE_WITH_KNOTS('', 1, 1, ((#483, #484), (#485, #486)), .UNSPECIFIED., .F., .F., .U., (2, 2), (2, 2), (0., 1.), (0., 1.), .UNSPECIFIED.);
#483 = CARTESIAN_POINT('', (120., 80., 0.));
#484 = CARTESIAN_POINT('', (120., 80., 35.));
#485 = CARTESIAN_POINT('', (10., 80., 0.));
#486 = CARTESIAN_POINT('', (10., 80., 35.));
#487 = ADVANCED_FACE('', (#488, #494), #510, .T.);
#488 = FACE_OUTER_BOUND('', #489, .T.);
#489 = EDGE_LOOP('', (#490, #491, #492, #493));
#490 = ORIENTED_EDGE('', *, *, #346, .F.);
#491 = ORIENTED_EDGE('', *, *, #242, .T.);
#492 = ORIENTED_EDGE('', *, *, #475, .T.);
#493 = ORIENTED_EDGE('', *, *, #390, .F.);
#494 = FACE_BOUND('', #495, .T.);
#495 = EDGE_LOOP('', (#496));
#496 = ORIENTED_EDGE('', *, *, #497, .F.);
#497 = EDGE_CURVE('', #498, #498, #500, .T.);
#498 = VERTEX_POINT('', #499);
#499 = CARTESIAN_POINT('', (120., 40., 10.685));
#500 = (
   BOUNDED_CURVE ()
   B_SPLINE_CURVE (2, (#501, #502, #503, #504, #505, #506, #507, #508, #509), .UNSPECIFIED., .T., .U.)
   B_SPLINE_CURVE_WITH_KNOTS ((3, 2, 2, 2, 3), (0., 0.25, 0.5, 0.75, 1.), .UNSPECIFIED.)
   CURVE ()
   GEOMETRIC_REPRESENTATION_ITEM ()
   RATIONAL_B_SPLINE_CURVE ((1., 0.707106781186548, 1., 0.707106781186548, 1., 0.707106781186548, 1., 0.707106781186548, 1.))
   REPRESENTATION_ITEM ('')
);
#501 = CARTESIAN_POINT('', (120., 40., 10.685));
#502 = CARTESIAN_POINT('', (120., 49.315, 10.685));
#503 = CARTESIAN_POINT('', (120., 49.315, 20.));
#504 = CARTESIAN_POINT('', (120., 49.315, 29.315));
#505 = CARTESIAN_POINT('', (120., 40., 29.315));
#506 = CARTESIAN_POINT('', (120., 30.685, 29.315));
#507 = CARTESIAN_POINT('', (120., 30.685, 20.));
#508 = CARTESIAN_POINT('', (120., 30.685, 10.685));
#509 = CARTESIAN_POINT('', (120., 40., 10.685));
#510 = B_SPLINE_SURFACE_WITH_KNOTS('', 1, 1, ((#511, #512), (#513, #514)), .UNSPECIFIED., .F., .F., .U., (2, 2), (2, 2), (0., 1.), (0., 1.), .UNSPECIFIED.);
#511 = CARTESIAN_POINT('', (120., 0., 0.));
#512 = CARTESIAN_POINT('', (120., 0., 35.));
#513 = CARTESIAN_POINT('', (120., 80., 0.));
#514 = CARTESIAN_POINT('', (120., 80., 35.));
#515 = ADVANCED_FACE('', (#516), #538, .F.);
#516 = FACE_OUTER_BOUND('', #517, .F.);
#517 = EDGE_LOOP('', (#518, #525, #526, #533));
#518 = ORIENTED_EDGE('', *, *, #519, .F.);
#519 = EDGE_CURVE('', #259, #520, #522, .T.);
#520 = VERTEX_POINT('', #521);
#521 = CARTESIAN_POINT('', (15., 20., 5.));
#522 = B_SPLINE_CURVE_WITH_KNOTS('', 1, (#523, #524), .UNSPECIFIED., .F., .U., (2, 2), (0., 5.), .UNSPECIFIED.);
#523 = CARTESIAN_POINT('', (15., 20., 0.));
#524 = CARTESIAN_POINT('', (15., 20., 5.));
#525 = ORIENTED_EDGE('', *, *, #268, .F.);
#526 = ORIENTED_EDGE('', *, *, #527, .T.);
#527 = EDGE_CURVE('', #269, #528, #530, .T.);
#528 = VERTEX_POINT('', #529);
#529 = CARTESIAN_POINT('', (105., 20., 5.));
#530 = B_SPLINE_CURVE_WITH_KNOTS('', 1, (#531, #532), .UNSPECIFIED., .F., .U., (2, 2), (0., 1.), .UNSPECIFIED.);
#531 = CARTESIAN_POINT('', (105., 20., 0.));
#532 = CARTESIAN_POINT('', (105., 20., 5.));
#533 = ORIENTED_EDGE('', *, *, #534, .F.);
#534 = EDGE_CURVE('', #520, #528, #535, .T.);
#535 = B_SPLINE_CURVE_WITH_KNOTS('', 1, (#536, #537), .UNSPECIFIED., .F., .U., (2, 2), (0., 1.), .UNSPECIFIED.);
#536 = CARTESIAN_POINT('', (15., 20., 5.));
#537 = CARTESIAN_POINT('', (105., 20., 5.));
#538 = B_SPLINE_SURFACE_WITH_KNOTS('', 1, 1, ((#539, #540), (#541, #542)), .UNSPECIFIED., .F., .F., .U., (2, 2), (2, 2), (0., 1.), (0., 1.), .UNSPECIFIED.);
#539 = CARTESIAN_POINT('', (15., 20., 0.));
#540 = CARTESIAN_POINT('', (15., 20., 5.));
#541 = CARTESIAN_POINT('', (105., 20., 0.));
#542 = CARTESIAN_POINT('', (105., 20., 5.));
#543 = ADVANCED_FACE('', (#544), #586, .F.);
#544 = FACE_OUTER_BOUND('', #545, .F.);
#545 = EDGE_LOOP('', (#546, #556, #557, #564, #571, #581));
#546 = ORIENTED_EDGE('', *, *, #547, .T.);
#547 = EDGE_CURVE('', #548, #520, #550, .T.);
#548 = VERTEX_POINT('', #549);
#549 = CARTESIAN_POINT('', (15., 28., 5.));
#550 = (
   BOUNDED_CURVE ()
   B_SPLINE_CURVE (2, (#551, #552, #553, #554, #555), .UNSPECIFIED., .F., .U.)
   B_SPLINE_CURVE_WITH_KNOTS ((3, 2, 3), (0., 0.5, 1.), .UNSPECIFIED.)
   CURVE ()
   GEOMETRIC_REPRESENTATION_ITEM ()
   RATIONAL_B_SPLINE_CURVE ((1., 0.707106781186548, 1., 0.707106781186548, 1.))
   REPRESENTATION_ITEM ('')
);
#551 = CARTESIAN_POINT('', (15., 28., 5.));
#552 = CARTESIAN_POINT('', (11., 28., 5.));
#553 = CARTESIAN_POINT('', (11., 24., 5.));
#554 = CARTESIAN_POINT('', (11., 20., 5.));
#555 = CARTESIAN_POINT('', (15., 20., 5.));
#556 = ORIENTED_EDGE('', *, *, #534, .T.);
#557 = ORIENTED_EDGE('', *, *, #558, .T.);
#558 = EDGE_CURVE('', #528, #559, #561, .T.);
#559 = VERTEX_POINT('', #560);
#560 = CARTESIAN_POINT('', (105., 60., 5.));
#561 = B_SPLINE_CURVE_WITH_KNOTS('', 1, (#562, #563), .UNSPECIFIED., .F., .U., (2, 2), (0., 1.), .UNSPECIFIED.);
#562 = CARTESIAN_POINT('', (105., 20., 5.));
#563 = CARTESIAN_POINT('', (105., 60., 5.));
#564 = ORIENTED_EDGE('', *, *, #565, .T.);
#565 = EDGE_CURVE('', #559, #566, #568, .T.);
#566 = VERTEX_POINT('', #567);
#567 = CARTESIAN_POINT('', (15., 60., 5.));
#568 = B_SPLINE_CURVE_WITH_KNOTS('', 1, (#569, #570), .UNSPECIFIED., .F., .U., (2, 2), (0., 1.), .UNSPECIFIED.);
#569 = CARTESIAN_POINT('', (105., 60., 5.));
#570 = CARTESIAN_POINT('', (15., 60., 5.));
#571 = ORIENTED_EDGE('', *, *, #572, .T.);
#572 = EDGE_CURVE('', #566, #573, #575, .T.);
#573 = VERTEX_POINT('', #574);
#574 = CARTESIAN_POINT('', (15., 52., 5.));
#575 = (
   BOUNDED_CURVE ()
   B_SPLINE_CURVE (2, (#576, #577, #578, #579, #580), .UNSPECIFIED., .F., .U.)
   B_SPLINE_CURVE_WITH_KNOTS ((3, 2, 3), (0., 90., 180.), .UNSPECIFIED.)
   CURVE ()
   GEOMETRIC_REPRESENTATION_ITEM ()
   RATIONAL_B_SPLINE_CURVE ((1., 0.707106781186548, 1., 0.707106781186548, 1.))
   REPRESENTATION_ITEM ('')
);
#576 = CARTESIAN_POINT('', (15., 60., 5.));
#577 = CARTESIAN_POINT('', (11., 60., 5.));
#578 = CARTESIAN_POINT('', (11., 56., 5.));
#579 = CARTESIAN_POINT('', (11., 52., 5.));
#580 = CARTESIAN_POINT('', (15., 52., 5.));
#581 = ORIENTED_EDGE('', *, *, #582, .T.);
#582 = EDGE_CURVE('', #573, #548, #583, .T.);
#583 = B_SPLINE_CURVE_WITH_KNOTS('', 1, (#584, #585), .UNSPECIFIED., .F., .U., (2, 2), (0., 1.), .UNSPECIFIED.);
#584 = CARTESIAN_POINT('', (15., 52., 5.));
#585 = CARTESIAN_POINT('', (15., 28., 5.));
#586 = B_SPLINE_SURFACE_WITH_KNOTS('', 1, 1, ((#587, #588), (#589, #590)), .UNSPECIFIED., .F., .F., .U., (2, 2), (2, 2), (0., 1.), (0., 1.), .UNSPECIFIED.);
#587 = CARTESIAN_POINT('', (114.186208272137, -16.1862082721374, 5.));
#588 = CARTESIAN_POINT('', (1.81379172786261, -16.1862082721374, 5.));
#589 = CARTESIAN_POINT('', (114.186208272137, 96.1862082721374, 5.));
#590 = CARTESIAN_POINT('', (1.81379172786261, 96.1862082721374, 5.));
#591 = ADVANCED_FACE('', (#592), #606, .F.);
#592 = FACE_OUTER_BOUND('', #593, .F.);
#593 = EDGE_LOOP('', (#594, #599, #600, #605));
#594 = ORIENTED_EDGE('', *, *, #595, .F.);
#595 = EDGE_CURVE('', #290, #573, #596, .T.);
#596 = B_SPLINE_CURVE_WITH_KNOTS('', 1, (#597, #598), .UNSPECIFIED., .F., .U., (2, 2), (0., 5.), .UNSPECIFIED.);
#597 = CARTESIAN_POINT('', (15., 52., 0.));
#598 = CARTESIAN_POINT('', (15., 52., 5.));
#599 = ORIENTED_EDGE('', *, *, #299, .F.);
#600 = ORIENTED_EDGE('', *, *, #601, .T.);
#601 = EDGE_CURVE('', #257, #548, #602, .T.);
#602 = B_SPLINE_CURVE_WITH_KNOTS('', 1, (#603, #604), .UNSPECIFIED., .F., .U., (2, 2), (0., 5.), .UNSPECIFIED.);
#603 = CARTESIAN_POINT('', (15., 28., 0.));
#604 = CARTESIAN_POINT('', (15., 28., 5.));
#605 = ORIENTED_EDGE('', *, *, #582, .F.);
#606 = B_SPLINE_SURFACE_WITH_KNOTS('', 1, 1, ((#607, #608), (#609, #610)), .UNSPECIFIED., .F., .F., .U., (2, 2), (2, 2), (0., 1.), (0., 1.), .UNSPECIFIED.);
#607 = CARTESIAN_POINT('', (15., 52., 0.));
#608 = CARTESIAN_POINT('', (15., 52., 5.));
#609 = CARTESIAN_POINT('', (15., 28., 0.));
#610 = CARTESIAN_POINT('', (15., 28., 5.));
#611 = ADVANCED_FACE('', (#612), #622, .F.);
#612 = FACE_OUTER_BOUND('', #613, .F.);
#613 = EDGE_LOOP('', (#614, #619, #620, #621));
#614 = ORIENTED_EDGE('', *, *, #615, .F.);
#615 = EDGE_CURVE('', #283, #566, #616, .T.);
#616 = B_SPLINE_CURVE_WITH_KNOTS('', 1, (#617, #618), .UNSPECIFIED., .F., .U., (2, 2), (0., 5.), .UNSPECIFIED.);
#617 = CARTESIAN_POINT('', (15., 60., 0.));
#618 = CARTESIAN_POINT('', (15., 60., 5.));
#619 = ORIENTED_EDGE('', *, *, #289, .T.);
#620 = ORIENTED_EDGE('', *, *, #595, .T.);
#621 = ORIENTED_EDGE('', *, *, #572, .F.);
#622 = (
   BOUNDED_SURFACE ()
   B_SPLINE_SURFACE (2, 1, ((#623, #624), (#625, #626), (#627, #628), (#629, #630), (#631, #632)), .UNSPECIFIED., .F., .F., .U.)
   B_SPLINE_SURFACE_WITH_KNOTS ((3, 2, 3), (2, 2), (0., 90., 180.), (0., 5.), .UNSPECIFIED.)
   GEOMETRIC_REPRESENTATION_ITEM ()
   RATIONAL_B_SPLINE_SURFACE (((1., 1.), (0.707106781186548, 0.707106781186548), (1., 1.), (0.707106781186548, 0.707106781186548), (1., 1.)))
   REPRESENTATION_ITEM ('')
   SURFACE ()
);
#623 = CARTESIAN_POINT('', (15., 60., 0.));
#624 = CARTESIAN_POINT('', (15., 60., 5.));
#625 = CARTESIAN_POINT('', (11., 60., 0.));
#626 = CARTESIAN_POINT('', (11., 60., 5.));
#627 = CARTESIAN_POINT('', (11., 56., 0.));
#628 = CARTESIAN_POINT('', (11., 56., 5.));
#629 = CARTESIAN_POINT('', (11., 52., 0.));
#630 = CARTESIAN_POINT('', (11., 52., 5.));
#631 = CARTESIAN_POINT('', (15., 52., 0.));
#632 = CARTESIAN_POINT('', (15., 52., 5.));
#633 = ADVANCED_FACE('', (#634), #644, .F.);
#634 = FACE_OUTER_BOUND('', #635, .F.);
#635 = EDGE_LOOP('', (#636, #641, #642, #643));
#636 = ORIENTED_EDGE('', *, *, #637, .F.);
#637 = EDGE_CURVE('', #276, #559, #638, .T.);
#638 = B_SPLINE_CURVE_WITH_KNOTS('', 1, (#639, #640), .UNSPECIFIED., .F., .U., (2, 2), (0., 1.), .UNSPECIFIED.);
#639 = CARTESIAN_POINT('', (105., 60., 0.));
#640 = CARTESIAN_POINT('', (105., 60., 5.));
#641 = ORIENTED_EDGE('', *, *, #282, .F.);
#642 = ORIENTED_EDGE('', *, *, #615, .T.);
#643 = ORIENTED_EDGE('', *, *, #565, .F.);
#644 = B_SPLINE_SURFACE_WITH_KNOTS('', 1, 1, ((#645, #646), (#647, #648)), .UNSPECIFIED., .F., .F., .U., (2, 2), (2, 2), (0., 1.), (0., 1.), .UNSPECIFIED.);
#645 = CARTESIAN_POINT('', (105., 60., 0.));
#646 = CARTESIAN_POINT('', (105., 60., 5.));
#647 = CARTESIAN_POINT('', (15., 60., 0.));
#648 = CARTESIAN_POINT('', (15., 60., 5.));
#649 = ADVANCED_FACE('', (#650), #656, .F.);
#650 = FACE_OUTER_BOUND('', #651, .F.);
#651 = EDGE_LOOP('', (#652, #653, #654, #655));
#652 = ORIENTED_EDGE('', *, *, #527, .F.);
#653 = ORIENTED_EDGE('', *, *, #275, .F.);
#654 = ORIENTED_EDGE('', *, *, #637, .T.);
#655 = ORIENTED_EDGE('', *, *, #558, .F.);
#656 = B_SPLINE_SURFACE_WITH_KNOTS('', 1, 1, ((#657, #658), (#659, #660)), .UNSPECIFIED., .F., .F., .U., (2, 2), (2, 2), (0., 1.), (0., 1.), .UNSPECIFIED.);
#657 = CARTESIAN_POINT('', (105., 20., 0.));
#658 = CARTESIAN_POINT('', (105., 20., 5.));
#659 = CARTESIAN_POINT('', (105., 60., 0.));
#660 = CARTESIAN_POINT('', (105., 60., 5.));
#661 = ADVANCED_FACE('', (#662), #668, .F.);
#662 = FACE_OUTER_BOUND('', #663, .F.);
#663 = EDGE_LOOP('', (#664, #665, #666, #667));
#664 = ORIENTED_EDGE('', *, *, #601, .F.);
#665 = ORIENTED_EDGE('', *, *, #256, .T.);
#666 = ORIENTED_EDGE('', *, *, #519, .T.);
#667 = ORIENTED_EDGE('', *, *, #547, .F.);
#668 = (
   BOUNDED_SURFACE ()
   B_SPLINE_SURFACE (2, 1, ((#669, #670), (#671, #672), (#673, #674), (#675, #676), (#677, #678)), .UNSPECIFIED., .F., .F., .U.)
   B_SPLINE_SURFACE_WITH_KNOTS ((3, 2, 3), (2, 2), (0., 90., 180.), (0., 5.), .UNSPECIFIED.)
   GEOMETRIC_REPRESENTATION_ITEM ()
   RATIONAL_B_SPLINE_SURFACE (((1., 1.), (0.707106781186548, 0.707106781186548), (1., 1.), (0.707106781186548, 0.707106781186548), (1., 1.)))
   REPRESENTATION_ITEM ('')
   SURFACE ()
);
#669 = CARTESIAN_POINT('', (15., 28., 0.));
#670 = CARTESIAN_POINT('', (15., 28., 5.));
#671 = CARTESIAN_POINT('', (11., 28., 0.));
#672 = CARTESIAN_POINT('', (11., 28., 5.));
#673 = CARTESIAN_POINT('', (11., 24., 0.));
#674 = CARTESIAN_POINT('', (11., 24., 5.));
#675 = CARTESIAN_POINT('', (11., 20., 0.));
#676 = CARTESIAN_POINT('', (11., 20., 5.));
#677 = CARTESIAN_POINT('', (15., 20., 0.));
#678 = CARTESIAN_POINT('', (15., 20., 5.));
#679 = ADVANCED_FACE('', (#680), #703, .F.);
#680 = FACE_OUTER_BOUND('', #681, .F.);
#681 = EDGE_LOOP('', (#682, #696, #701, #702));
#682 = ORIENTED_EDGE('', *, *, #683, .F.);
#683 = EDGE_CURVE('', #684, #684, #686, .T.);
#684 = VERTEX_POINT('', #685);
#685 = CARTESIAN_POINT('', (14., 70., 26.5));
#686 = (
   BOUNDED_CURVE ()
   B_SPLINE_CURVE (2, (#687, #688, #689, #690, #691, #692, #693, #694, #695), .UNSPECIFIED., .T., .U.)
   B_SPLINE_CURVE_WITH_KNOTS ((3, 2, 2, 2, 3), (0., 0.25, 0.5, 0.75, 1.), .UNSPECIFIED.)
   CURVE ()
   GEOMETRIC_REPRESENTATION_ITEM ()
   RATIONAL_B_SPLINE_CURVE ((1., 0.707106781186548, 1., 0.707106781186548, 1., 0.707106781186548, 1., 0.707106781186548, 1.))
   REPRESENTATION_ITEM ('')
);
#687 = CARTESIAN_POINT('', (14., 70., 26.5));
#688 = CARTESIAN_POINT('', (14., 74., 26.5));
#689 = CARTESIAN_POINT('', (10., 74., 26.5));
#690 = CARTESIAN_POINT('', (6., 74., 26.5));
#691 = CARTESIAN_POINT('', (6., 70., 26.5));
#692 = CARTESIAN_POINT('', (6., 66., 26.5));
#693 = CARTESIAN_POINT('', (10., 66., 26.5));
#694 = CARTESIAN_POINT('', (14., 66., 26.5));
#695 = CARTESIAN_POINT('', (14., 70., 26.5));
#696 = ORIENTED_EDGE('', *, *, #697, .F.);
#697 = EDGE_CURVE('', #307, #684, #698, .T.);
#698 = B_SPLINE_CURVE_WITH_KNOTS('', 1, (#699, #700), .UNSPECIFIED., .F., .U., (2, 2), (0.5, 27.), .UNSPECIFIED.);
#699 = CARTESIAN_POINT('', (14., 70., -5.20417042793042E-17));
#700 = CARTESIAN_POINT('', (14., 70., 26.5));
#701 = ORIENTED_EDGE('', *, *, #306, .T.);
#702 = ORIENTED_EDGE('', *, *, #697, .T.);
#703 = (
   BOUNDED_SURFACE ()
   B_SPLINE_SURFACE (2, 1, ((#704, #705), (#706, #707), (#708, #709), (#710, #711), (#712, #713), (#714, #715), (#716, #717), (#718, #719), (#720, #721)), .UNSPECIFIED., .T., .F., .U.)
   B_SPLINE_SURFACE_WITH_KNOTS ((3, 2, 2, 2, 3), (2, 2), (0., 6.28318530717959, 12.5663706143592, 18.8495559215388, 25.1327412287183), (0., 36.), .UNSPECIFIED.)
   GEOMETRIC_REPRESENTATION_ITEM ()
   RATIONAL_B_SPLINE_SURFACE (((1., 1.), (0.707106781186548, 0.707106781186548), (1., 1.), (0.707106781186548, 0.707106781186548), (1., 1.), (0.707106781186548, 0.707106781186548), (1., 1.), (0.707106781186548, 0.707106781186548), (1., 1.)))
   REPRESENTATION_ITEM ('')
   SURFACE ()
);
#704 = CARTESIAN_POINT('', (14., 70., -0.5));
#705 = CARTESIAN_POINT('', (14., 70., 35.5));
#706 = CARTESIAN_POINT('', (14., 74., -0.5));
#707 = CARTESIAN_POINT('', (14., 74., 35.5));
#708 = CARTESIAN_POINT('', (10., 74., -0.5));
#709 = CARTESIAN_POINT('', (10., 74., 35.5));
#710 = CARTESIAN_POINT('', (6., 74., -0.5));
#711 = CARTESIAN_POINT('', (6., 74., 35.5));
#712 = CARTESIAN_POINT('', (6., 70., -0.5));
#713 = CARTESIAN_POINT('', (6., 70., 35.5));
#714 = CARTESIAN_POINT('', (6., 66., -0.5));
#715 = CARTESIAN_POINT('', (6., 66., 35.5));
#716 = CARTESIAN_POINT('', (10., 66., -0.5));
#717 = CARTESIAN_POINT('', (10., 66., 35.5));
#718 = CARTESIAN_POINT('', (14., 66., -0.5));
#719 = CARTESIAN_POINT('', (14., 66., 35.5));
#720 = CARTESIAN_POINT('', (14., 70., -0.5));
#721 = CARTESIAN_POINT('', (14., 70., 35.5));
#722 = ADVANCED_FACE('', (#723), #746, .F.);
#723 = FACE_OUTER_BOUND('', #724, .F.);
#724 = EDGE_LOOP('', (#725, #726, #733, #745));
#725 = ORIENTED_EDGE('', *, *, #419, .F.);
#726 = ORIENTED_EDGE('', *, *, #727, .F.);
#727 = EDGE_CURVE('', #728, #420, #730, .T.);
#728 = VERTEX_POINT('', #729);
#729 = CARTESIAN_POINT('', (16.75, 70., 26.5));
#730 = B_SPLINE_CURVE_WITH_KNOTS('', 1, (#731, #732), .UNSPECIFIED., .F., .U., (2, 2), (0., 8.5), .UNSPECIFIED.);
#731 = CARTESIAN_POINT('', (16.75, 70., 26.5));
#732 = CARTESIAN_POINT('', (16.75, 70., 35.));
#733 = ORIENTED_EDGE('', *, *, #734, .T.);
#734 = EDGE_CURVE('', #728, #728, #735, .T.);
#735 = (
   BOUNDED_CURVE ()
   B_SPLINE_CURVE (2, (#736, #737, #738, #739, #740, #741, #742, #743, #744), .UNSPECIFIED., .T., .U.)
   B_SPLINE_CURVE_WITH_KNOTS ((3, 2, 2, 2, 3), (0., 10.6028752058656, 21.2057504117311, 31.8086256175967, 42.4115008234622), .UNSPECIFIED.)
   CURVE ()
   GEOMETRIC_REPRESENTATION_ITEM ()
   RATIONAL_B_SPLINE_CURVE ((1., 0.707106781186548, 1., 0.707106781186548, 1., 0.707106781186548, 1., 0.707106781186548, 1.))
   REPRESENTATION_ITEM ('')
);
#736 = CARTESIAN_POINT('', (16.75, 70., 26.5));
#737 = CARTESIAN_POINT('', (16.75, 76.75, 26.5));
#738 = CARTESIAN_POINT('', (10., 76.75, 26.5));
#739 = CARTESIAN_POINT('', (3.25, 76.75, 26.5));
#740 = CARTESIAN_POINT('', (3.25, 70., 26.5));
#741 = CARTESIAN_POINT('', (3.25, 63.25, 26.5));
#742 = CARTESIAN_POINT('', (10., 63.25, 26.5));
#743 = CARTESIAN_POINT('', (16.75, 63.25, 26.5));
#744 = CARTESIAN_POINT('', (16.75, 70., 26.5));
#745 = ORIENTED_EDGE('', *, *, #727, .T.);
#746 = (
   BOUNDED_SURFACE ()
   B_SPLINE_SURFACE (2, 1, ((#747, #748), (#749, #750), (#751, #752), (#753, #754), (#755, #756), (#757, #758), (#759, #760), (#761, #762), (#763, #764)), .UNSPECIFIED., .T., .F., .U.)
   B_SPLINE_SURFACE_WITH_KNOTS ((3, 2, 2, 2, 3), (2, 2), (0., 10.6028752058656, 21.2057504117311, 31.8086256175967, 42.4115008234622), (0., 10.), .UNSPECIFIED.)
   GEOMETRIC_REPRESENTATION_ITEM ()
   RATIONAL_B_SPLINE_SURFACE (((1., 1.), (0.707106781186548, 0.707106781186548), (1., 1.), (0.707106781186548, 0.707106781186548), (1., 1.), (0.707106781186548, 0.707106781186548), (1., 1.), (0.707106781186548, 0.707106781186548), (1., 1.)))
   REPRESENTATION_ITEM ('')
   SURFACE ()
);
#747 = CARTESIAN_POINT('', (16.75, 70., 26.5));
#748 = CARTESIAN_POINT('', (16.75, 70., 36.5));
#749 = CARTESIAN_POINT('', (16.75, 76.75, 26.5));
#750 = CARTESIAN_POINT('', (16.75, 76.75, 36.5));
#751 = CARTESIAN_POINT('', (10., 76.75, 26.5));
#752 = CARTESIAN_POINT('', (10., 76.75, 36.5));
#753 = CARTESIAN_POINT('', (3.25, 76.75, 26.5));
#754 = CARTESIAN_POINT('', (3.25, 76.75, 36.5));
#755 = CARTESIAN_POINT('', (3.25, 70., 26.5));
#756 = CARTESIAN_POINT('', (3.25, 70., 36.5));
#757 = CARTESIAN_POINT('', (3.25, 63.25, 26.5));
#758 = CARTESIAN_POINT('', (3.25, 63.25, 36.5));
#759 = CARTESIAN_POINT('', (10., 63.25, 26.5));
#760 = CARTESIAN_POINT('', (10., 63.25, 36.5));
#761 = CARTESIAN_POINT('', (16.75, 63.25, 26.5));
#762 = CARTESIAN_POINT('', (16.75, 63.25, 36.5));
#763 = CARTESIAN_POINT('', (16.75, 70., 26.5));
#764 = CARTESIAN_POINT('', (16.75, 70., 36.5));
#765 = ADVANCED_FACE('', (#766, #769), #772, .F.);
#766 = FACE_OUTER_BOUND('', #767, .F.);
#767 = EDGE_LOOP('', (#768));
#768 = ORIENTED_EDGE('', *, *, #734, .F.);
#769 = FACE_BOUND('', #770, .F.);
#770 = EDGE_LOOP('', (#771));
#771 = ORIENTED_EDGE('', *, *, #683, .T.);
#772 = B_SPLINE_SURFACE_WITH_KNOTS('', 1, 1, ((#773, #774), (#775, #776)), .UNSPECIFIED., .F., .F., .U., (2, 2), (2, 2), (0., 1.), (0., 1.), .UNSPECIFIED.);
#773 = CARTESIAN_POINT('', (20.5005357006202, 59.4994642993798, 26.5));
#774 = CARTESIAN_POINT('', (20.5005357006202, 80.5005357006202, 26.5));
#775 = CARTESIAN_POINT('', (-0.500535700620233, 59.4994642993798, 26.5));
#776 = CARTESIAN_POINT('', (-0.500535700620233, 80.5005357006202, 26.5));
#777 = ADVANCED_FACE('', (#778), #801, .F.);
#778 = FACE_OUTER_BOUND('', #779, .F.);
#779 = EDGE_LOOP('', (#780, #794, #799, #800));
#780 = ORIENTED_EDGE('', *, *, #781, .F.);
#781 = EDGE_CURVE('', #782, #782, #784, .T.);
#782 = VERTEX_POINT('', #783);
#783 = CARTESIAN_POINT('', (114., 10., 26.5));
#784 = (
   BOUNDED_CURVE ()
   B_SPLINE_CURVE (2, (#785, #786, #787, #788, #789, #790, #791, #792, #793), .UNSPECIFIED., .T., .U.)
   B_SPLINE_CURVE_WITH_KNOTS ((3, 2, 2, 2, 3), (0., 0.25, 0.5, 0.75, 1.), .UNSPECIFIED.)
   CURVE ()
   GEOMETRIC_REPRESENTATION_ITEM ()
   RATIONAL_B_SPLINE_CURVE ((1., 0.707106781186548, 1., 0.707106781186548, 1., 0.707106781186548, 1., 0.707106781186548, 1.))
   REPRESENTATION_ITEM ('')
);
#785 = CARTESIAN_POINT('', (114., 10., 26.5));
#786 = CARTESIAN_POINT('', (114., 14., 26.5));
#787 = CARTESIAN_POINT('', (110., 14., 26.5));
#788 = CARTESIAN_POINT('', (106., 14., 26.5));
#789 = CARTESIAN_POINT('', (106., 10., 26.5));
#790 = CARTESIAN_POINT('', (106., 6., 26.5));
#791 = CARTESIAN_POINT('', (110., 6., 26.5));
#792 = CARTESIAN_POINT('', (114., 6., 26.5));
#793 = CARTESIAN_POINT('', (114., 10., 26.5));
#794 = ORIENTED_EDGE('', *, *, #795, .F.);
#795 = EDGE_CURVE('', #323, #782, #796, .T.);
#796 = B_SPLINE_CURVE_WITH_KNOTS('', 1, (#797, #798), .UNSPECIFIED., .F., .U., (2, 2), (0.5, 27.), .UNSPECIFIED.);
#797 = CARTESIAN_POINT('', (114., 10., -5.20417042793042E-17));
#798 = CARTESIAN_POINT('', (114., 10., 26.5));
#799 = ORIENTED_EDGE('', *, *, #322, .T.);
#800 = ORIENTED_EDGE('', *, *, #795, .T.);
#801 = (
   BOUNDED_SURFACE ()
   B_SPLINE_SURFACE (2, 1, ((#802, #803), (#804, #805), (#806, #807), (#808, #809), (#810, #811), (#812, #813), (#814, #815), (#816, #817), (#818, #819)), .UNSPECIFIED., .T., .F., .U.)
   B_SPLINE_SURFACE_WITH_KNOTS ((3, 2, 2, 2, 3), (2, 2), (0., 6.2831853071796, 12.5663706143592, 18.8495559215388, 25.1327412287184), (0., 36.), .UNSPECIFIED.)
   GEOMETRIC_REPRESENTATION_ITEM ()
   RATIONAL_B_SPLINE_SURFACE (((1., 1.), (0.707106781186548, 0.707106781186548), (1., 1.), (0.707106781186548, 0.707106781186548), (1., 1.), (0.707106781186548, 0.707106781186548), (1., 1.), (0.707106781186548, 0.707106781186548), (1., 1.)))
   REPRESENTATION_ITEM ('')
   SURFACE ()
);
#802 = CARTESIAN_POINT('', (114., 10., -0.5));
#803 = CARTESIAN_POINT('', (114., 10., 35.5));
#804 = CARTESIAN_POINT('', (114., 14., -0.5));
#805 = CARTESIAN_POINT('', (114., 14., 35.5));
#806 = CARTESIAN_POINT('', (110., 14., -0.5));
#807 = CARTESIAN_POINT('', (110., 14., 35.5));
#808 = CARTESIAN_POINT('', (106., 14., -0.5));
#809 = CARTESIAN_POINT('', (106., 14., 35.5));
#810 = CARTESIAN_POINT('', (106., 10., -0.5));
#811 = CARTESIAN_POINT('', (106., 10., 35.5));
#812 = CARTESIAN_POINT('', (106., 6., -0.5));
#813 = CARTESIAN_POINT('', (106., 6., 35.5));
#814 = CARTESIAN_POINT('', (110., 6., -0.5));
#815 = CARTESIAN_POINT('', (110., 6., 35.5));
#816 = CARTESIAN_POINT('', (114., 6., -0.5));
#817 = CARTESIAN_POINT('', (114., 6., 35.5));
#818 = CARTESIAN_POINT('', (114., 10., -0.5));
#819 = CARTESIAN_POINT('', (114., 10., 35.5));
#820 = ADVANCED_FACE('', (#821), #844, .F.);
#821 = FACE_OUTER_BOUND('', #822, .F.);
#822 = EDGE_LOOP('', (#823, #824, #831, #843));
#823 = ORIENTED_EDGE('', *, *, #435, .F.);
#824 = ORIENTED_EDGE('', *, *, #825, .F.);
#825 = EDGE_CURVE('', #826, #436, #828, .T.);
#826 = VERTEX_POINT('', #827);
#827 = CARTESIAN_POINT('', (116.75, 10., 26.5));
#828 = B_SPLINE_CURVE_WITH_KNOTS('', 1, (#829, #830), .UNSPECIFIED., .F., .U., (2, 2), (0., 8.5), .UNSPECIFIED.);
#829 = CARTESIAN_POINT('', (116.75, 10., 26.5));
#830 = CARTESIAN_POINT('', (116.75, 10., 35.));
#831 = ORIENTED_EDGE('', *, *, #832, .T.);
#832 = EDGE_CURVE('', #826, #826, #833, .T.);
#833 = (
   BOUNDED_CURVE ()
   B_SPLINE_CURVE (2, (#834, #835, #836, #837, #838, #839, #840, #841, #842), .UNSPECIFIED., .T., .U.)
   B_SPLINE_CURVE_WITH_KNOTS ((3, 2, 2, 2, 3), (0., 10.6028752058656, 21.2057504117311, 31.8086256175966, 42.4115008234622), .UNSPECIFIED.)
   CURVE ()
   GEOMETRIC_REPRESENTATION_ITEM ()
   RATIONAL_B_SPLINE_CURVE ((1., 0.707106781186548, 1., 0.707106781186548, 1., 0.707106781186548, 1., 0.707106781186548, 1.))
   REPRESENTATION_ITEM ('')
);
#834 = CARTESIAN_POINT('', (116.75, 10., 26.5));
#835 = CARTESIAN_POINT('', (116.75, 16.75, 26.5));
#836 = CARTESIAN_POINT('', (110., 16.75, 26.5));
#837 = CARTESIAN_POINT('', (103.25, 16.75, 26.5));
#838 = CARTESIAN_POINT('', (103.25, 10., 26.5));
#839 = CARTESIAN_POINT('', (103.25, 3.25, 26.5));
#840 = CARTESIAN_POINT('', (110., 3.25, 26.5));
#841 = CARTESIAN_POINT('', (116.75, 3.25, 26.5));
#842 = CARTESIAN_POINT('', (116.75, 10., 26.5));
#843 = ORIENTED_EDGE('', *, *, #825, .T.);
#844 = (
   BOUNDED_SURFACE ()
   B_SPLINE_SURFACE (2, 1, ((#845, #846), (#847, #848), (#849, #850), (#851, #852), (#853, #854), (#855, #856), (#857, #858), (#859, #860), (#861, #862)), .UNSPECIFIED., .T., .F., .U.)
   B_SPLINE_SURFACE_WITH_KNOTS ((3, 2, 2, 2, 3), (2, 2), (0., 10.6028752058656, 21.2057504117311, 31.8086256175966, 42.4115008234622), (0., 10.), .UNSPECIFIED.)
   GEOMETRIC_REPRESENTATION_ITEM ()
   RATIONAL_B_SPLINE_SURFACE (((1., 1.), (0.707106781186548, 0.707106781186548), (1., 1.), (0.707106781186548, 0.707106781186548), (1., 1.), (0.707106781186548, 0.707106781186548), (1., 1.), (0.707106781186548, 0.707106781186548), (1., 1.)))
   REPRESENTATION_ITEM ('')
   SURFACE ()
);
#845 = CARTESIAN_POINT('', (116.75, 10., 26.5));
#846 = CARTESIAN_POINT('', (116.75, 10., 36.5));
#847 = CARTESIAN_POINT('', (116.75, 16.75, 26.5));
#848 = CARTESIAN_POINT('', (116.75, 16.75, 36.5));
#849 = CARTESIAN_POINT('', (110., 16.75, 26.5));
#850 = CARTESIAN_POINT('', (110., 16.75, 36.5));
#851 = CARTESIAN_POINT('', (103.25, 16.75, 26.5));
#852 = CARTESIAN_POINT('', (103.25, 16.75, 36.5));
#853 = CARTESIAN_POINT('', (103.25, 10., 26.5));
#854 = CARTESIAN_POINT('', (103.25, 10., 36.5));
#855 = CARTESIAN_POINT('', (103.25, 3.25, 26.5));
#856 = CARTESIAN_POINT('', (103.25, 3.25, 36.5));
#857 = CARTESIAN_POINT('', (110., 3.25, 26.5));
#858 = CARTESIAN_POINT('', (110., 3.25, 36.5));
#859 = CARTESIAN_POINT('', (116.75, 3.25, 26.5));
#860 = CARTESIAN_POINT('', (116.75, 3.25, 36.5));
#861 = CARTESIAN_POINT('', (116.75, 10., 26.5));
#862 = CARTESIAN_POINT('', (116.75, 10., 36.5));
#863 = ADVANCED_FACE('', (#864, #867), #870, .F.);
#864 = FACE_OUTER_BOUND('', #865, .F.);
#865 = EDGE_LOOP('', (#866));
#866 = ORIENTED_EDGE('', *, *, #832, .F.);
#867 = FACE_BOUND('', #868, .F.);
#868 = EDGE_LOOP('', (#869));
#869 = ORIENTED_EDGE('', *, *, #781, .T.);
#870 = B_SPLINE_SURFACE_WITH_KNOTS('', 1, 1, ((#871, #872), (#873, #874)), .UNSPECIFIED., .F., .F., .U., (2, 2), (2, 2), (0., 1.), (0., 1.), .UNSPECIFIED.);
#871 = CARTESIAN_POINT('', (120.50053570062, -0.500535700620233, 26.5));
#872 = CARTESIAN_POINT('', (120.50053570062, 20.5005357006202, 26.5));
#873 = CARTESIAN_POINT('', (99.4994642993798, -0.500535700620233, 26.5));
#874 = CARTESIAN_POINT('', (99.4994642993798, 20.5005357006202, 26.5));
#875 = ADVANCED_FACE('', (#876), #899, .F.);
#876 = FACE_OUTER_BOUND('', #877, .F.);
#877 = EDGE_LOOP('', (#878, #879, #886, #898));
#878 = ORIENTED_EDGE('', *, *, #497, .F.);
#879 = ORIENTED_EDGE('', *, *, #880, .F.);
#880 = EDGE_CURVE('', #881, #498, #883, .T.);
#881 = VERTEX_POINT('', #882);
#882 = CARTESIAN_POINT('', (102., 40., 10.685));
#883 = B_SPLINE_CURVE_WITH_KNOTS('', 1, (#884, #885), .UNSPECIFIED., .F., .U., (2, 2), (0., 18.), .UNSPECIFIED.);
#884 = CARTESIAN_POINT('', (102., 40., 10.685));
#885 = CARTESIAN_POINT('', (120., 40., 10.685));
#886 = ORIENTED_EDGE('', *, *, #887, .T.);
#887 = EDGE_CURVE('', #881, #881, #888, .T.);
#888 = (
   BOUNDED_CURVE ()
   B_SPLINE_CURVE (2, (#889, #890, #891, #892, #893, #894, #895, #896, #897), .UNSPECIFIED., .T., .U.)
   B_SPLINE_CURVE_WITH_KNOTS ((3, 2, 2, 2, 3), (0., 14.6319677840945, 29.2639355681889, 43.8959033522834, 58.5278711363779), .UNSPECIFIED.)
   CURVE ()
   GEOMETRIC_REPRESENTATION_ITEM ()
   RATIONAL_B_SPLINE_CURVE ((1., 0.707106781186548, 1., 0.707106781186548, 1., 0.707106781186548, 1., 0.707106781186548, 1.))
   REPRESENTATION_ITEM ('')
);
#889 = CARTESIAN_POINT('', (102., 40., 10.685));
#890 = CARTESIAN_POINT('', (102., 49.315, 10.685));
#891 = CARTESIAN_POINT('', (102., 49.315, 20.));
#892 = CARTESIAN_POINT('', (102., 49.315, 29.315));
#893 = CARTESIAN_POINT('', (102., 40., 29.315));
#894 = CARTESIAN_POINT('', (102., 30.685, 29.315));
#895 = CARTESIAN_POINT('', (102., 30.685, 20.));
#896 = CARTESIAN_POINT('', (102., 30.685, 10.685));
#897 = CARTESIAN_POINT('', (102., 40., 10.685));
#898 = ORIENTED_EDGE('', *, *, #880, .T.);
#899 = (
   BOUNDED_SURFACE ()
   B_SPLINE_SURFACE (2, 1, ((#900, #901), (#902, #903), (#904, #905), (#906, #907), (#908, #909), (#910, #911), (#912, #913), (#914, #915), (#916, #917)), .UNSPECIFIED., .T., .F., .U.)
   B_SPLINE_SURFACE_WITH_KNOTS ((3, 2, 2, 2, 3), (2, 2), (0., 14.6319677840945, 29.2639355681889, 43.8959033522834, 58.5278711363779), (0., 19.), .UNSPECIFIED.)
   GEOMETRIC_REPRESENTATION_ITEM ()
   RATIONAL_B_SPLINE_SURFACE (((1., 1.), (0.707106781186548, 0.707106781186548), (1., 1.), (0.707106781186548, 0.707106781186548), (1., 1.), (0.707106781186548, 0.707106781186548), (1., 1.), (0.707106781186548, 0.707106781186548), (1., 1.)))
   REPRESENTATION_ITEM ('')
   SURFACE ()
);
#900 = CARTESIAN_POINT('', (102., 40., 10.685));
#901 = CARTESIAN_POINT('', (121., 40., 10.685));
#902 = CARTESIAN_POINT('', (102., 49.315, 10.685));
#903 = CARTESIAN_POINT('', (121., 49.315, 10.685));
#904 = CARTESIAN_POINT('', (102., 49.315, 20.));
#905 = CARTESIAN_POINT('', (121., 49.315, 20.));
#906 = CARTESIAN_POINT('', (102., 49.315, 29.315));
#907 = CARTESIAN_POINT('', (121., 49.315, 29.315));
#908 = CARTESIAN_POINT('', (102., 40., 29.315));
#909 = CARTESIAN_POINT('', (121., 40., 29.315));
#910 = CARTESIAN_POINT('', (102., 30.685, 29.315));
#911 = CARTESIAN_POINT('', (121., 30.685, 29.315));
#912 = CARTESIAN_POINT('', (102., 30.685, 20.));
#913 = CARTESIAN_POINT('', (121., 30.685, 20.));
#914 = CARTESIAN_POINT('', (102., 30.685, 10.685));
#915 = CARTESIAN_POINT('', (121., 30.685, 10.685));
#916 = CARTESIAN_POINT('', (102., 40., 10.685));
#917 = CARTESIAN_POINT('', (121., 40., 10.685));
#918 = ADVANCED_FACE('', (#919, #922), #938, .F.);
#919 = FACE_OUTER_BOUND('', #920, .F.);
#920 = EDGE_LOOP('', (#921));
#921 = ORIENTED_EDGE('', *, *, #887, .F.);
#922 = FACE_BOUND('', #923, .F.);
#923 = EDGE_LOOP('', (#924));
#924 = ORIENTED_EDGE('', *, *, #925, .T.);
#925 = EDGE_CURVE('', #926, #926, #928, .T.);
#926 = VERTEX_POINT('', #927);
#927 = CARTESIAN_POINT('', (102., 40., 14.));
#928 = (
   BOUNDED_CURVE ()
   B_SPLINE_CURVE (2, (#929, #930, #931, #932, #933, #934, #935, #936, #937), .UNSPECIFIED., .T., .U.)
   B_SPLINE_CURVE_WITH_KNOTS ((3, 2, 2, 2, 3), (0., 0.25, 0.5, 0.75, 1.), .UNSPECIFIED.)
   CURVE ()
   GEOMETRIC_REPRESENTATION_ITEM ()
   RATIONAL_B_SPLINE_CURVE ((1., 0.707106781186548, 1., 0.707106781186548, 1., 0.707106781186548, 1., 0.707106781186548, 1.))
   REPRESENTATION_ITEM ('')
);
#929 = CARTESIAN_POINT('', (102., 40., 14.));
#930 = CARTESIAN_POINT('', (102., 46., 14.));
#931 = CARTESIAN_POINT('', (102., 46., 20.));
#932 = CARTESIAN_POINT('', (102., 46., 26.));
#933 = CARTESIAN_POINT('', (102., 40., 26.));
#934 = CARTESIAN_POINT('', (102., 34., 26.));
#935 = CARTESIAN_POINT('', (102., 34., 20.));
#936 = CARTESIAN_POINT('', (102., 34., 14.));
#937 = CARTESIAN_POINT('', (102., 40., 14.));
#938 = B_SPLINE_SURFACE_WITH_KNOTS('', 1, 1, ((#939, #940), (#941, #942)), .UNSPECIFIED., .F., .F., .U., (2, 2), (2, 2), (0., 1.), (0., 1.), .UNSPECIFIED.);
#939 = CARTESIAN_POINT('', (102., 25.5092607331441, 5.50926073314408));
#940 = CARTESIAN_POINT('', (102., 54.4907392668559, 5.50926073314408));
#941 = CARTESIAN_POINT('', (102., 25.5092607331441, 34.4907392668559));
#942 = CARTESIAN_POINT('', (102., 54.4907392668559, 34.4907392668559));
#943 = ADVANCED_FACE('', (#944), #967, .F.);
#944 = FACE_OUTER_BOUND('', #945, .F.);
#945 = EDGE_LOOP('', (#946, #947, #954, #966));
#946 = ORIENTED_EDGE('', *, *, #925, .F.);
#947 = ORIENTED_EDGE('', *, *, #948, .F.);
#948 = EDGE_CURVE('', #949, #926, #951, .T.);
#949 = VERTEX_POINT('', #950);
#950 = CARTESIAN_POINT('', (20., 40., 14.));
#951 = B_SPLINE_CURVE_WITH_KNOTS('', 1, (#952, #953), .UNSPECIFIED., .F., .U., (2, 2), (0., 82.), .UNSPECIFIED.);
#952 = CARTESIAN_POINT('', (20., 40., 14.));
#953 = CARTESIAN_POINT('', (102., 40., 14.));
#954 = ORIENTED_EDGE('', *, *, #955, .T.);
#955 = EDGE_CURVE('', #949, #949, #956, .T.);
#956 = (
   BOUNDED_CURVE ()
   B_SPLINE_CURVE (2, (#957, #958, #959, #960, #961, #962, #963, #964, #965), .UNSPECIFIED., .T., .U.)
   B_SPLINE_CURVE_WITH_KNOTS ((3, 2, 2, 2, 3), (0., 9.42477796076938, 18.8495559215388, 28.2743338823081, 37.6991118430775), .UNSPECIFIED.)
   CURVE ()
   GEOMETRIC_REPRESENTATION_ITEM ()
   RATIONAL_B_SPLINE_CURVE ((1., 0.707106781186548, 1., 0.707106781186548, 1., 0.707106781186548, 1., 0.707106781186548, 1.))
   REPRESENTATION_ITEM ('')
);
#957 = CARTESIAN_POINT('', (20., 40., 14.));
#958 = CARTESIAN_POINT('', (20., 46., 14.));
#959 = CARTESIAN_POINT('', (20., 46., 20.));
#960 = CARTESIAN_POINT('', (20., 46., 26.));
#961 = CARTESIAN_POINT('', (20., 40., 26.));
#962 = CARTESIAN_POINT('', (20., 34., 26.));
#963 = CARTESIAN_POINT('', (20., 34., 20.));
#964 = CARTESIAN_POINT('', (20., 34., 14.));
#965 = CARTESIAN_POINT('', (20., 40., 14.));
#966 = ORIENTED_EDGE('', *, *, #948, .T.);
#967 = (
   BOUNDED_SURFACE ()
   B_SPLINE_SURFACE (2, 1, ((#968, #969), (#970, #971), (#972, #973), (#974, #975), (#976, #977), (#978, #979), (#980, #981), (#982, #983), (#984, #985)), .UNSPECIFIED., .T., .F., .U.)
   B_SPLINE_SURFACE_WITH_KNOTS ((3, 2, 2, 2, 3), (2, 2), (0., 9.42477796076938, 18.8495559215388, 28.2743338823081, 37.6991118430775), (0., 101.), .UNSPECIFIED.)
   GEOMETRIC_REPRESENTATION_ITEM ()
   RATIONAL_B_SPLINE_SURFACE (((1., 1.), (0.707106781186548, 0.707106781186548), (1., 1.), (0.707106781186548, 0.707106781186548), (1., 1.), (0.707106781186548, 0.707106781186548), (1., 1.), (0.707106781186548, 0.707106781186548), (1., 1.)))
   REPRESENTATION_ITEM ('')
   SURFACE ()
);
#968 = CARTESIAN_POINT('', (20., 40., 14.));
#969 = CARTESIAN_POINT('', (121., 40., 14.));
#970 = CARTESIAN_POINT('', (20., 46., 14.));
#971 = CARTESIAN_POINT('', (121., 46., 14.));
#972 = CARTESIAN_POINT('', (20., 46., 20.));
#973 = CARTESIAN_POINT('', (121., 46., 20.));
#974 = CARTESIAN_POINT('', (20., 46., 26.));
#975 = CARTESIAN_POINT('', (121., 46., 26.));
#976 = CARTESIAN_POINT('', (20., 40., 26.));
#977 = CARTESIAN_POINT('', (121., 40., 26.));
#978 = CARTESIAN_POINT('', (20., 34., 26.));
#979 = CARTESIAN_POINT('', (121., 34., 26.));
#980 = CARTESIAN_POINT('', (20., 34., 20.));
#981 = CARTESIAN_POINT('', (121., 34., 20.));
#982 = CARTESIAN_POINT('', (20., 34., 14.));
#983 = CARTESIAN_POINT('', (121., 34., 14.));
#984 = CARTESIAN_POINT('', (20., 40., 14.));
#985 = CARTESIAN_POINT('', (121., 40., 14.));
#986 = ADVANCED_FACE('', (#987), #990, .F.);
#987 = FACE_OUTER_BOUND('', #988, .F.);
#988 = EDGE_LOOP('', (#989));
#989 = ORIENTED_EDGE('', *, *, #955, .F.);
#990 = B_SPLINE_SURFACE_WITH_KNOTS('', 1, 1, ((#991, #992), (#993, #994)), .UNSPECIFIED., .F., .F., .U., (2, 2), (2, 2), (0., 1.), (0., 1.), .UNSPECIFIED.);
#991 = CARTESIAN_POINT('', (20., 30.6661904883376, 10.6661904883376));
#992 = CARTESIAN_POINT('', (20., 49.3338095116624, 10.6661904883376));
#993 = CARTESIAN_POINT('', (20., 30.6661904883376, 29.3338095116624));
#994 = CARTESIAN_POINT('', (20., 49.3338095116624, 29.3338095116624));
#995 = DRAUGHTING_MODEL('', (#1003), #1028);
#996 = PRESENTATION_STYLE_ASSIGNMENT((#997));
#997 = SURFACE_STYLE_USAGE(.POSITIVE., #998);
#998 = SURFACE_SIDE_STYLE('', (#999));
#999 = SURFACE_STYLE_FILL_AREA(#1000);
#1000 = FILL_AREA_STYLE('', (#1001));
#1001 = FILL_AREA_STYLE_COLOUR('', #1002);
#1002 = COLOUR_RGB('', 0.50196078431373, 0.50196078431373, 0.50196078431373);
#1003 = STYLED_ITEM('', (#996), #1);
#1004 = AXIS2_PLACEMENT_3D('WCS_ThruTL', #1005, #1006, #1007);
#1005 = CARTESIAN_POINT('', (10., 70., -0.5));
#1006 = DIRECTION('', (0., 0., 1.));
#1007 = DIRECTION('', (1., 0., 0.));
#1008 = AXIS2_PLACEMENT_3D('WCS_ThruBR', #1009, #1010, #1011);
#1009 = CARTESIAN_POINT('', (110., 10., -0.5));
#1010 = DIRECTION('', (0., 0., 1.));
#1011 = DIRECTION('', (1., 0., 0.));
#1012 = AXIS2_PLACEMENT_3D('WCS_CboreTL', #1013, #1014, #1015);
#1013 = CARTESIAN_POINT('', (10., 70., 26.5));
#1014 = DIRECTION('', (0., 0., 1.));
#1015 = DIRECTION('', (1., 0., 0.));
#1016 = AXIS2_PLACEMENT_3D('WCS_CboreBR', #1017, #1018, #1019);
#1017 = CARTESIAN_POINT('', (110., 10., 26.5));
#1018 = DIRECTION('', (0., 0., 1.));
#1019 = DIRECTION('', (1., 0., 0.));
#1020 = AXIS2_PLACEMENT_3D('WCS_PortPilot', #1021, #1022, #1023);
#1021 = CARTESIAN_POINT('', (102., 40., 20.));
#1022 = DIRECTION('', (1., 0., 6.12323399573677E-17));
#1023 = DIRECTION('', (6.12323399573677E-17, 0., -1.));
#1024 = AXIS2_PLACEMENT_3D('WCS_ChamberBore', #1025, #1026, #1027);
#1025 = CARTESIAN_POINT('', (20., 40., 20.));
#1026 = DIRECTION('', (1., 0., 6.12323399573677E-17));
#1027 = DIRECTION('', (6.12323399573677E-17, 0., -1.));
#1028 = (
   GEOMETRIC_REPRESENTATION_CONTEXT (3)
   GLOBAL_UNCERTAINTY_ASSIGNED_CONTEXT ((#1030))
   GLOBAL_UNIT_ASSIGNED_CONTEXT ((#1029, #1031, #1032))
   REPRESENTATION_CONTEXT ('', '3D')
);
#1029 = (
   LENGTH_UNIT ()
   NAMED_UNIT (*)
   SI_UNIT (.MILLI., .METRE.)
);
#1030 = UNCERTAINTY_MEASURE_WITH_UNIT(LENGTH_MEASURE(1.E-6), #1029, 'DISTANCE_ACCURACY_VALUE', '');
#1031 = (
   NAMED_UNIT (*)
   SI_UNIT ($, .STERADIAN.)
   SOLID_ANGLE_UNIT ()
);
#1032 = (
   NAMED_UNIT (*)
   PLANE_ANGLE_UNIT ()
   SI_UNIT ($, .RADIAN.)
);
#1033 = SHAPE_REPRESENTATION('', (#1048), #1028);
#1034 = PRODUCT_DEFINITION_SHAPE('', '', #1035);
#1035 = PRODUCT_DEFINITION('', '', #1038, #1042);
#1036 = APPLICATION_CONTEXT('configuration controlled 3D designs of mechanical parts and assemblies');
#1037 = APPLICATION_PROTOCOL_DEFINITION('International Standard', 'automotive_design', 2002, #1036);
#1038 = PRODUCT_DEFINITION_FORMATION_WITH_SPECIFIED_SOURCE('', '', #1039, .NOT_KNOWN.);
#1039 = PRODUCT('LiquidMixerV2', 'LiquidMixerV2', '', (#1040));
#1040 = PRODUCT_CONTEXT('', #1036, 'mechanical');
#1041 = PRODUCT_RELATED_PRODUCT_CATEGORY('detail', '', (#1039));
#1042 = PRODUCT_DEFINITION_CONTEXT('part definition', #1036, 'design');
#1043 = SHAPE_DEFINITION_REPRESENTATION(#1034, #1033);
#1044 = CONSTRUCTIVE_GEOMETRY_REPRESENTATION('supplemental geometry', (#1004, #1008, #1012, #1016, #1020, #1024), #1028);
#1045 = CONSTRUCTIVE_GEOMETRY_REPRESENTATION_RELATIONSHIP('', '', #1033, #1044);
#1046 = SHAPE_REPRESENTATION_RELATIONSHIP('', '', #1033, #1047);
#1047 = ADVANCED_BREP_SHAPE_REPRESENTATION('', (#1), #1028);
#1048 = AXIS2_PLACEMENT_3D('', #1049, #1050, #1051);
#1049 = CARTESIAN_POINT('', (0., 0., 0.));
#1050 = DIRECTION('', (0., 0., 1.));
#1051 = DIRECTION('', (1., 0., 0.));
ENDSEC;
END-ISO-10303-21;
