ISO-10303-21;
HEADER;
FILE_DESCRIPTION(('STEP'), '1');
FILE_NAME('SimpleInsert', '2026-04-21T10:02:57', (''), (''), 'Express 3.1.2.0', 'Express Tool', 'Unknown');
FILE_SCHEMA(('AUTOMOTIVE_DESIGN'));
ENDSEC;

DATA;
#1 = MANIFOLD_SOLID_BREP('InsertedSphere_0', #2);
#2 = CLOSED_SHELL('', (#3));
#3 = ADVANCED_FACE('', (#4), #19, .T.);
#4 = FACE_OUTER_BOUND('', #5, .T.);
#5 = EDGE_LOOP('', (#6, #18));
#6 = ORIENTED_EDGE('', *, *, #7, .F.);
#7 = EDGE_CURVE('', #8, #10, #12, .T.);
#8 = VERTEX_POINT('', #9);
#9 = CARTESIAN_POINT('', (-2.20436423846524E-15, 0., -12.));
#10 = VERTEX_POINT('', #11);
#11 = CARTESIAN_POINT('', (3.67394039744206E-15, 0., 12.));
#12 = (
   BOUNDED_CURVE ()
   B_SPLINE_CURVE (2, (#13, #14, #15, #16, #17), .UNSPECIFIED., .F., .U.)
   B_SPLINE_CURVE_WITH_KNOTS ((3, 2, 3), (0., 0.5, 1.), .UNSPECIFIED.)
   CURVE ()
   GEOMETRIC_REPRESENTATION_ITEM ()
   RATIONAL_B_SPLINE_CURVE ((1., 0.707106781186548, 1., 0.707106781186548, 1.))
   REPRESENTATION_ITEM ('')
);
#13 = CARTESIAN_POINT('', (-2.20436423846524E-15, 0., -12.));
#14 = CARTESIAN_POINT('', (12., 0., -12.));
#15 = CARTESIAN_POINT('', (12., 0., -2.93915231795365E-15));
#16 = CARTESIAN_POINT('', (12., 0., 12.));
#17 = CARTESIAN_POINT('', (3.67394039744206E-15, 0., 12.));
#18 = ORIENTED_EDGE('', *, *, #7, .T.);
#19 = (
   BOUNDED_SURFACE ()
   B_SPLINE_SURFACE (2, 2, ((#20, #21, #22, #23, #24), (#25, #26, #27, #28, #29), (#30, #31, #32, #33, #34), (#35, #36, #37, #38, #39), (#40, #41, #42, #43, #44), (#45, #46, #47, #48, #49), (#50, #51, #52, #53, #54), (#55, #56, #57, #58, #59), (#60, #61, #62, #63, #64)), .UNSPECIFIED., .T., .F., .U.)
   B_SPLINE_SURFACE_WITH_KNOTS ((3, 2, 2, 2, 3), (3, 2, 3), (0., 0.25, 0.5, 0.75, 1.), (0., 0.5, 1.), .UNSPECIFIED.)
   GEOMETRIC_REPRESENTATION_ITEM ()
   RATIONAL_B_SPLINE_SURFACE (((1., 0.707106781186548, 1., 0.707106781186548, 1.), (0.707106781186548, 0.5, 0.707106781186548, 0.5, 0.707106781186548), (1., 0.707106781186548, 1., 0.707106781186548, 1.), (0.707106781186548, 0.5, 0.707106781186548, 0.5, 0.707106781186548), (1., 0.707106781186548, 1., 0.707106781186548, 1.), (0.707106781186548, 0.5, 0.707106781186548, 0.5, 0.707106781186548), (1., 0.707106781186548, 1., 0.707106781186548, 1.), (0.707106781186548, 0.5, 0.707106781186548, 0.5, 0.707106781186548), (1., 0.707106781186548, 1., 0.707106781186548, 1.)))
   REPRESENTATION_ITEM ('')
   SURFACE ()
);
#20 = CARTESIAN_POINT('', (-2.20436423846524E-15, 0., -12.));
#21 = CARTESIAN_POINT('', (12., 0., -12.));
#22 = CARTESIAN_POINT('', (12., 0., -2.93915231795365E-15));
#23 = CARTESIAN_POINT('', (12., 0., 12.));
#24 = CARTESIAN_POINT('', (3.67394039744206E-15, 0., 12.));
#25 = CARTESIAN_POINT('', (-2.20436423846524E-15, 0., -12.));
#26 = CARTESIAN_POINT('', (12., 12., -12.));
#27 = CARTESIAN_POINT('', (12., 12., -2.93915231795365E-15));
#28 = CARTESIAN_POINT('', (12., 12., 12.));
#29 = CARTESIAN_POINT('', (3.67394039744206E-15, 0., 12.));
#30 = CARTESIAN_POINT('', (-2.20436423846524E-15, 0., -12.));
#31 = CARTESIAN_POINT('', (7.34788079488412E-16, 12., -12.));
#32 = CARTESIAN_POINT('', (7.34788079488412E-16, 12., -2.93915231795365E-15));
#33 = CARTESIAN_POINT('', (7.34788079488412E-16, 12., 12.));
#34 = CARTESIAN_POINT('', (3.67394039744206E-15, 0., 12.));
#35 = CARTESIAN_POINT('', (-2.20436423846524E-15, 0., -12.));
#36 = CARTESIAN_POINT('', (-12., 12., -12.));
#37 = CARTESIAN_POINT('', (-12., 12., -2.93915231795365E-15));
#38 = CARTESIAN_POINT('', (-12., 12., 12.));
#39 = CARTESIAN_POINT('', (3.67394039744206E-15, 0., 12.));
#40 = CARTESIAN_POINT('', (-2.20436423846524E-15, 0., -12.));
#41 = CARTESIAN_POINT('', (-12., 1.46957615897682E-15, -12.));
#42 = CARTESIAN_POINT('', (-12., 1.46957615897682E-15, -2.93915231795365E-15));
#43 = CARTESIAN_POINT('', (-12., 1.46957615897682E-15, 12.));
#44 = CARTESIAN_POINT('', (3.67394039744206E-15, 0., 12.));
#45 = CARTESIAN_POINT('', (-2.20436423846524E-15, 0., -12.));
#46 = CARTESIAN_POINT('', (-12., -12., -12.));
#47 = CARTESIAN_POINT('', (-12., -12., -2.93915231795365E-15));
#48 = CARTESIAN_POINT('', (-12., -12., 12.));
#49 = CARTESIAN_POINT('', (3.67394039744206E-15, 0., 12.));
#50 = CARTESIAN_POINT('', (-2.20436423846524E-15, 0., -12.));
#51 = CARTESIAN_POINT('', (-2.20436423846524E-15, -12., -12.));
#52 = CARTESIAN_POINT('', (-2.20436423846524E-15, -12., -2.93915231795365E-15));
#53 = CARTESIAN_POINT('', (-2.20436423846524E-15, -12., 12.));
#54 = CARTESIAN_POINT('', (3.67394039744206E-15, 0., 12.));
#55 = CARTESIAN_POINT('', (-2.20436423846524E-15, 0., -12.));
#56 = CARTESIAN_POINT('', (12., -12., -12.));
#57 = CARTESIAN_POINT('', (12., -12., -2.93915231795365E-15));
#58 = CARTESIAN_POINT('', (12., -12., 12.));
#59 = CARTESIAN_POINT('', (3.67394039744206E-15, 0., 12.));
#60 = CARTESIAN_POINT('', (-2.20436423846524E-15, 0., -12.));
#61 = CARTESIAN_POINT('', (12., 0., -12.));
#62 = CARTESIAN_POINT('', (12., 0., -2.93915231795365E-15));
#63 = CARTESIAN_POINT('', (12., 0., 12.));
#64 = CARTESIAN_POINT('', (3.67394039744206E-15, 0., 12.));
#65 = DRAUGHTING_MODEL('', (#73, #265), #268);
#66 = PRESENTATION_STYLE_ASSIGNMENT((#67));
#67 = SURFACE_STYLE_USAGE(.POSITIVE., #68);
#68 = SURFACE_SIDE_STYLE('', (#69));
#69 = SURFACE_STYLE_FILL_AREA(#70);
#70 = FILL_AREA_STYLE('', (#71));
#71 = FILL_AREA_STYLE_COLOUR('', #72);
#72 = COLOUR_RGB('', 0.50196078431373, 0.50196078431373, 0.50196078431373);
#73 = STYLED_ITEM('', (#66), #1);
#74 = MANIFOLD_SOLID_BREP('Subtraction_0', #75);
#75 = CLOSED_SHELL('', (#76, #112, #148, #170, #192, #216, #232));
#76 = ADVANCED_FACE('', (#77), #107, .T.);
#77 = FACE_OUTER_BOUND('', #78, .T.);
#78 = EDGE_LOOP('', (#79, #88, #95, #102));
#79 = ORIENTED_EDGE('', *, *, #80, .T.);
#80 = EDGE_CURVE('', #81, #83, #85, .T.);
#81 = VERTEX_POINT('', #82);
#82 = CARTESIAN_POINT('', (0., 60., 0.));
#83 = VERTEX_POINT('', #84);
#84 = CARTESIAN_POINT('', (0., 60., 40.));
#85 = B_SPLINE_CURVE_WITH_KNOTS('', 1, (#86, #87), .UNSPECIFIED., .F., .U., (2, 2), (0., 40.), .UNSPECIFIED.);
#86 = CARTESIAN_POINT('', (0., 60., 0.));
#87 = CARTESIAN_POINT('', (0., 60., 40.));
#88 = ORIENTED_EDGE('', *, *, #89, .T.);
#89 = EDGE_CURVE('', #83, #90, #92, .T.);
#90 = VERTEX_POINT('', #91);
#91 = CARTESIAN_POINT('', (80., 60., 40.));
#92 = B_SPLINE_CURVE_WITH_KNOTS('', 1, (#93, #94), .UNSPECIFIED., .F., .U., (2, 2), (0., 80.), .UNSPECIFIED.);
#93 = CARTESIAN_POINT('', (0., 60., 40.));
#94 = CARTESIAN_POINT('', (80., 60., 40.));
#95 = ORIENTED_EDGE('', *, *, #96, .F.);
#96 = EDGE_CURVE('', #97, #90, #99, .T.);
#97 = VERTEX_POINT('', #98);
#98 = CARTESIAN_POINT('', (80., 60., 0.));
#99 = B_SPLINE_CURVE_WITH_KNOTS('', 1, (#100, #101), .UNSPECIFIED., .F., .U., (2, 2), (0., 40.), .UNSPECIFIED.);
#100 = CARTESIAN_POINT('', (80., 60., 0.));
#101 = CARTESIAN_POINT('', (80., 60., 40.));
#102 = ORIENTED_EDGE('', *, *, #103, .F.);
#103 = EDGE_CURVE('', #81, #97, #104, .T.);
#104 = B_SPLINE_CURVE_WITH_KNOTS('', 1, (#105, #106), .UNSPECIFIED., .F., .U., (2, 2), (0., 80.), .UNSPECIFIED.);
#105 = CARTESIAN_POINT('', (0., 60., 0.));
#106 = CARTESIAN_POINT('', (80., 60., 0.));
#107 = B_SPLINE_SURFACE_WITH_KNOTS('', 1, 1, ((#108, #109), (#110, #111)), .UNSPECIFIED., .F., .F., .U., (2, 2), (2, 2), (0., 40.), (0., 80.), .UNSPECIFIED.);
#108 = CARTESIAN_POINT('', (0., 60., 0.));
#109 = CARTESIAN_POINT('', (80., 60., 0.));
#110 = CARTESIAN_POINT('', (0., 60., 40.));
#111 = CARTESIAN_POINT('', (80., 60., 40.));
#112 = ADVANCED_FACE('', (#113), #143, .T.);
#113 = FACE_OUTER_BOUND('', #114, .T.);
#114 = EDGE_LOOP('', (#115, #125, #130, #131, #138));
#115 = ORIENTED_EDGE('', *, *, #116, .T.);
#116 = EDGE_CURVE('', #117, #119, #121, .T.);
#117 = VERTEX_POINT('', #118);
#118 = CARTESIAN_POINT('', (50., 0., 0.));
#119 = VERTEX_POINT('', #120);
#120 = CARTESIAN_POINT('', (0., 50., 0.));
#121 = (
   BOUNDED_CURVE ()
   B_SPLINE_CURVE (2, (#122, #123, #124), .UNSPECIFIED., .F., .U.)
   B_SPLINE_CURVE_WITH_KNOTS ((3, 3), (0., 1.), .UNSPECIFIED.)
   CURVE ()
   GEOMETRIC_REPRESENTATION_ITEM ()
   RATIONAL_B_SPLINE_CURVE ((1., 0.707106781186548, 1.))
   REPRESENTATION_ITEM ('')
);
#122 = CARTESIAN_POINT('', (50., 0., 0.));
#123 = CARTESIAN_POINT('', (50., 50., 0.));
#124 = CARTESIAN_POINT('', (3.06161699786838E-15, 50., 0.));
#125 = ORIENTED_EDGE('', *, *, #126, .T.);
#126 = EDGE_CURVE('', #119, #81, #127, .T.);
#127 = B_SPLINE_CURVE_WITH_KNOTS('', 1, (#128, #129), .UNSPECIFIED., .F., .U., (2, 2), (50., 60.), .UNSPECIFIED.);
#128 = CARTESIAN_POINT('', (0., 50., 0.));
#129 = CARTESIAN_POINT('', (0., 60., 0.));
#130 = ORIENTED_EDGE('', *, *, #103, .T.);
#131 = ORIENTED_EDGE('', *, *, #132, .F.);
#132 = EDGE_CURVE('', #133, #97, #135, .T.);
#133 = VERTEX_POINT('', #134);
#134 = CARTESIAN_POINT('', (80., 0., 0.));
#135 = B_SPLINE_CURVE_WITH_KNOTS('', 1, (#136, #137), .UNSPECIFIED., .F., .U., (2, 2), (0., 60.), .UNSPECIFIED.);
#136 = CARTESIAN_POINT('', (80., 0., 0.));
#137 = CARTESIAN_POINT('', (80., 60., 0.));
#138 = ORIENTED_EDGE('', *, *, #139, .F.);
#139 = EDGE_CURVE('', #117, #133, #140, .T.);
#140 = B_SPLINE_CURVE_WITH_KNOTS('', 1, (#141, #142), .UNSPECIFIED., .F., .U., (2, 2), (50., 80.), .UNSPECIFIED.);
#141 = CARTESIAN_POINT('', (50., 0., 0.));
#142 = CARTESIAN_POINT('', (80., 0., 0.));
#143 = B_SPLINE_SURFACE_WITH_KNOTS('', 1, 1, ((#144, #145), (#146, #147)), .UNSPECIFIED., .F., .F., .U., (2, 2), (2, 2), (0., 60.), (0., 80.), .UNSPECIFIED.);
#144 = CARTESIAN_POINT('', (0., 0., 0.));
#145 = CARTESIAN_POINT('', (80., 0., 0.));
#146 = CARTESIAN_POINT('', (0., 60., 0.));
#147 = CARTESIAN_POINT('', (80., 60., 0.));
#148 = ADVANCED_FACE('', (#149), #165, .T.);
#149 = FACE_OUTER_BOUND('', #150, .T.);
#150 = EDGE_LOOP('', (#151, #158, #159, #160));
#151 = ORIENTED_EDGE('', *, *, #152, .F.);
#152 = EDGE_CURVE('', #133, #153, #155, .T.);
#153 = VERTEX_POINT('', #154);
#154 = CARTESIAN_POINT('', (80., 0., 40.));
#155 = B_SPLINE_CURVE_WITH_KNOTS('', 1, (#156, #157), .UNSPECIFIED., .F., .U., (2, 2), (0., 40.), .UNSPECIFIED.);
#156 = CARTESIAN_POINT('', (80., 0., 0.));
#157 = CARTESIAN_POINT('', (80., 0., 40.));
#158 = ORIENTED_EDGE('', *, *, #132, .T.);
#159 = ORIENTED_EDGE('', *, *, #96, .T.);
#160 = ORIENTED_EDGE('', *, *, #161, .F.);
#161 = EDGE_CURVE('', #153, #90, #162, .T.);
#162 = B_SPLINE_CURVE_WITH_KNOTS('', 1, (#163, #164), .UNSPECIFIED., .F., .U., (2, 2), (0., 60.), .UNSPECIFIED.);
#163 = CARTESIAN_POINT('', (80., 0., 40.));
#164 = CARTESIAN_POINT('', (80., 60., 40.));
#165 = B_SPLINE_SURFACE_WITH_KNOTS('', 1, 1, ((#166, #167), (#168, #169)), .UNSPECIFIED., .F., .F., .U., (2, 2), (2, 2), (0., 60.), (0., 40.), .UNSPECIFIED.);
#166 = CARTESIAN_POINT('', (80., 0., 0.));
#167 = CARTESIAN_POINT('', (80., 0., 40.));
#168 = CARTESIAN_POINT('', (80., 60., 0.));
#169 = CARTESIAN_POINT('', (80., 60., 40.));
#170 = ADVANCED_FACE('', (#171), #187, .T.);
#171 = FACE_OUTER_BOUND('', #172, .T.);
#172 = EDGE_LOOP('', (#173, #180, #185, #186));
#173 = ORIENTED_EDGE('', *, *, #174, .T.);
#174 = EDGE_CURVE('', #119, #175, #177, .T.);
#175 = VERTEX_POINT('', #176);
#176 = CARTESIAN_POINT('', (0., 50., 40.));
#177 = B_SPLINE_CURVE_WITH_KNOTS('', 1, (#178, #179), .UNSPECIFIED., .F., .U., (2, 2), (0., 1.), .UNSPECIFIED.);
#178 = CARTESIAN_POINT('', (0., 50., 0.));
#179 = CARTESIAN_POINT('', (0., 50., 40.));
#180 = ORIENTED_EDGE('', *, *, #181, .T.);
#181 = EDGE_CURVE('', #175, #83, #182, .T.);
#182 = B_SPLINE_CURVE_WITH_KNOTS('', 1, (#183, #184), .UNSPECIFIED., .F., .U., (2, 2), (50., 60.), .UNSPECIFIED.);
#183 = CARTESIAN_POINT('', (0., 50., 40.));
#184 = CARTESIAN_POINT('', (0., 60., 40.));
#185 = ORIENTED_EDGE('', *, *, #80, .F.);
#186 = ORIENTED_EDGE('', *, *, #126, .F.);
#187 = B_SPLINE_SURFACE_WITH_KNOTS('', 1, 1, ((#188, #189), (#190, #191)), .UNSPECIFIED., .F., .F., .U., (2, 2), (2, 2), (0., 40.), (0., 60.), .UNSPECIFIED.);
#188 = CARTESIAN_POINT('', (0., 0., 0.));
#189 = CARTESIAN_POINT('', (0., 60., 0.));
#190 = CARTESIAN_POINT('', (0., 0., 40.));
#191 = CARTESIAN_POINT('', (0., 60., 40.));
#192 = ADVANCED_FACE('', (#193), #211, .T.);
#193 = FACE_OUTER_BOUND('', #194, .T.);
#194 = EDGE_LOOP('', (#195, #203, #208, #209, #210));
#195 = ORIENTED_EDGE('', *, *, #196, .F.);
#196 = EDGE_CURVE('', #197, #175, #199, .T.);
#197 = VERTEX_POINT('', #198);
#198 = CARTESIAN_POINT('', (50., 0., 40.));
#199 = (
   BOUNDED_CURVE ()
   B_SPLINE_CURVE (2, (#200, #201, #202), .UNSPECIFIED., .F., .U.)
   B_SPLINE_CURVE_WITH_KNOTS ((3, 3), (0., 1.), .UNSPECIFIED.)
   CURVE ()
   GEOMETRIC_REPRESENTATION_ITEM ()
   RATIONAL_B_SPLINE_CURVE ((1., 0.707106781186548, 1.))
   REPRESENTATION_ITEM ('')
);
#200 = CARTESIAN_POINT('', (50., 0., 40.));
#201 = CARTESIAN_POINT('', (50., 50., 40.));
#202 = CARTESIAN_POINT('', (3.06161699786838E-15, 50., 40.));
#203 = ORIENTED_EDGE('', *, *, #204, .T.);
#204 = EDGE_CURVE('', #197, #153, #205, .T.);
#205 = B_SPLINE_CURVE_WITH_KNOTS('', 1, (#206, #207), .UNSPECIFIED., .F., .U., (2, 2), (50., 80.), .UNSPECIFIED.);
#206 = CARTESIAN_POINT('', (50., 0., 40.));
#207 = CARTESIAN_POINT('', (80., 0., 40.));
#208 = ORIENTED_EDGE('', *, *, #161, .T.);
#209 = ORIENTED_EDGE('', *, *, #89, .F.);
#210 = ORIENTED_EDGE('', *, *, #181, .F.);
#211 = B_SPLINE_SURFACE_WITH_KNOTS('', 1, 1, ((#212, #213), (#214, #215)), .UNSPECIFIED., .F., .F., .U., (2, 2), (2, 2), (0., 80.), (0., 60.), .UNSPECIFIED.);
#212 = CARTESIAN_POINT('', (0., 0., 40.));
#213 = CARTESIAN_POINT('', (0., 60., 40.));
#214 = CARTESIAN_POINT('', (80., 0., 40.));
#215 = CARTESIAN_POINT('', (80., 60., 40.));
#216 = ADVANCED_FACE('', (#217), #227, .T.);
#217 = FACE_OUTER_BOUND('', #218, .T.);
#218 = EDGE_LOOP('', (#219, #224, #225, #226));
#219 = ORIENTED_EDGE('', *, *, #220, .F.);
#220 = EDGE_CURVE('', #117, #197, #221, .T.);
#221 = B_SPLINE_CURVE_WITH_KNOTS('', 1, (#222, #223), .UNSPECIFIED., .F., .U., (2, 2), (0., 1.), .UNSPECIFIED.);
#222 = CARTESIAN_POINT('', (50., 0., 0.));
#223 = CARTESIAN_POINT('', (50., 0., 40.));
#224 = ORIENTED_EDGE('', *, *, #139, .T.);
#225 = ORIENTED_EDGE('', *, *, #152, .T.);
#226 = ORIENTED_EDGE('', *, *, #204, .F.);
#227 = B_SPLINE_SURFACE_WITH_KNOTS('', 1, 1, ((#228, #229), (#230, #231)), .UNSPECIFIED., .F., .F., .U., (2, 2), (2, 2), (0., 80.), (0., 40.), .UNSPECIFIED.);
#228 = CARTESIAN_POINT('', (0., 0., 0.));
#229 = CARTESIAN_POINT('', (0., 0., 40.));
#230 = CARTESIAN_POINT('', (80., 0., 0.));
#231 = CARTESIAN_POINT('', (80., 0., 40.));
#232 = ADVANCED_FACE('', (#233), #239, .F.);
#233 = FACE_OUTER_BOUND('', #234, .F.);
#234 = EDGE_LOOP('', (#235, #236, #237, #238));
#235 = ORIENTED_EDGE('', *, *, #174, .T.);
#236 = ORIENTED_EDGE('', *, *, #196, .F.);
#237 = ORIENTED_EDGE('', *, *, #220, .F.);
#238 = ORIENTED_EDGE('', *, *, #116, .T.);
#239 = (
   BOUNDED_SURFACE ()
   B_SPLINE_SURFACE (2, 1, ((#240, #241), (#242, #243), (#244, #245), (#246, #247), (#248, #249), (#250, #251), (#252, #253), (#254, #255), (#256, #257)), .UNSPECIFIED., .T., .F., .U.)
   B_SPLINE_SURFACE_WITH_KNOTS ((3, 2, 2, 2, 3), (2, 2), (0., 78.5398163397448, 157.07963267949, 235.619449019235, 314.159265358979), (0., 60.), .UNSPECIFIED.)
   GEOMETRIC_REPRESENTATION_ITEM ()
   RATIONAL_B_SPLINE_SURFACE (((1., 1.), (0.707106781186548, 0.707106781186548), (1., 1.), (0.707106781186548, 0.707106781186548), (1., 1.), (0.707106781186548, 0.707106781186548), (1., 1.), (0.707106781186548, 0.707106781186548), (1., 1.)))
   REPRESENTATION_ITEM ('')
   SURFACE ()
);
#240 = CARTESIAN_POINT('', (50., 0., 0.));
#241 = CARTESIAN_POINT('', (50., 0., 60.));
#242 = CARTESIAN_POINT('', (50., 50., 0.));
#243 = CARTESIAN_POINT('', (50., 50., 60.));
#244 = CARTESIAN_POINT('', (3.06161699786838E-15, 50., 0.));
#245 = CARTESIAN_POINT('', (3.06161699786838E-15, 50., 60.));
#246 = CARTESIAN_POINT('', (-50., 50., 0.));
#247 = CARTESIAN_POINT('', (-50., 50., 60.));
#248 = CARTESIAN_POINT('', (-50., 6.12323399573677E-15, 0.));
#249 = CARTESIAN_POINT('', (-50., 6.12323399573677E-15, 60.));
#250 = CARTESIAN_POINT('', (-50., -50., 0.));
#251 = CARTESIAN_POINT('', (-50., -50., 60.));
#252 = CARTESIAN_POINT('', (-9.18485099360515E-15, -50., 0.));
#253 = CARTESIAN_POINT('', (-9.18485099360515E-15, -50., 60.));
#254 = CARTESIAN_POINT('', (50., -50., 0.));
#255 = CARTESIAN_POINT('', (50., -50., 60.));
#256 = CARTESIAN_POINT('', (50., 0., 0.));
#257 = CARTESIAN_POINT('', (50., 0., 60.));
#258 = PRESENTATION_STYLE_ASSIGNMENT((#259));
#259 = SURFACE_STYLE_USAGE(.POSITIVE., #260);
#260 = SURFACE_SIDE_STYLE('', (#261));
#261 = SURFACE_STYLE_FILL_AREA(#262);
#262 = FILL_AREA_STYLE('', (#263));
#263 = FILL_AREA_STYLE_COLOUR('', #264);
#264 = COLOUR_RGB('', 0.50196078431373, 0.50196078431373, 0.50196078431373);
#265 = STYLED_ITEM('', (#258), #74);
#266 = CARTESIAN_POINT('Origin', (0., 0., 0.));
#267 = GEOMETRIC_SET('', (#266));
#268 = (
   GEOMETRIC_REPRESENTATION_CONTEXT (3)
   GLOBAL_UNCERTAINTY_ASSIGNED_CONTEXT ((#270))
   GLOBAL_UNIT_ASSIGNED_CONTEXT ((#269, #271, #272))
   REPRESENTATION_CONTEXT ('', '3D')
);
#269 = (
   LENGTH_UNIT ()
   NAMED_UNIT (*)
   SI_UNIT (.MILLI., .METRE.)
);
#270 = UNCERTAINTY_MEASURE_WITH_UNIT(LENGTH_MEASURE(1.E-6), #269, 'DISTANCE_ACCURACY_VALUE', '');
#271 = (
   NAMED_UNIT (*)
   SI_UNIT ($, .STERADIAN.)
   SOLID_ANGLE_UNIT ()
);
#272 = (
   NAMED_UNIT (*)
   PLANE_ANGLE_UNIT ()
   SI_UNIT ($, .RADIAN.)
);
#273 = SHAPE_REPRESENTATION('', (#288), #268);
#274 = PRODUCT_DEFINITION_SHAPE('', '', #275);
#275 = PRODUCT_DEFINITION('', '', #278, #282);
#276 = APPLICATION_CONTEXT('configuration controlled 3D designs of mechanical parts and assemblies');
#277 = APPLICATION_PROTOCOL_DEFINITION('International Standard', 'automotive_design', 2002, #276);
#278 = PRODUCT_DEFINITION_FORMATION_WITH_SPECIFIED_SOURCE('', '', #279, .NOT_KNOWN.);
#279 = PRODUCT('SimpleInsert', 'SimpleInsert', '', (#280));
#280 = PRODUCT_CONTEXT('', #276, 'mechanical');
#281 = PRODUCT_RELATED_PRODUCT_CATEGORY('detail', '', (#279));
#282 = PRODUCT_DEFINITION_CONTEXT('part definition', #276, 'design');
#283 = SHAPE_DEFINITION_REPRESENTATION(#274, #273);
#284 = SHAPE_REPRESENTATION_RELATIONSHIP('', '', #273, #285);
#285 = SHAPE_REPRESENTATION('', (#267), #268);
#286 = SHAPE_REPRESENTATION_RELATIONSHIP('', '', #273, #287);
#287 = ADVANCED_BREP_SHAPE_REPRESENTATION('', (#1, #74), #268);
#288 = AXIS2_PLACEMENT_3D('', #289, #290, #291);
#289 = CARTESIAN_POINT('', (0., 0., 0.));
#290 = DIRECTION('', (0., 0., 1.));
#291 = DIRECTION('', (1., 0., 0.));
ENDSEC;
END-ISO-10303-21;
