ISO-10303-21;
HEADER;
FILE_DESCRIPTION(('STEP'), '1');
FILE_NAME('PropagateTest', '2026-04-21T10:11:30', (''), (''), 'Express 3.1.2.0', 'Express Tool', 'Unknown');
FILE_SCHEMA(('AUTOMOTIVE_DESIGN'));
ENDSEC;

DATA;
#1 = MANIFOLD_SOLID_BREP('Subtraction_0', #2);
#2 = CLOSED_SHELL('', (#3, #39, #67, #103, #119, #149, #173, #204));
#3 = ADVANCED_FACE('', (#4), #34, .T.);
#4 = FACE_OUTER_BOUND('', #5, .T.);
#5 = EDGE_LOOP('', (#6, #15, #22, #29));
#6 = ORIENTED_EDGE('', *, *, #7, .T.);
#7 = EDGE_CURVE('', #8, #10, #12, .T.);
#8 = VERTEX_POINT('', #9);
#9 = CARTESIAN_POINT('', (0., 60., 0.));
#10 = VERTEX_POINT('', #11);
#11 = CARTESIAN_POINT('', (0., 60., 100.));
#12 = B_SPLINE_CURVE_WITH_KNOTS('', 1, (#13, #14), .UNSPECIFIED., .F., .U., (2, 2), (0., 100.), .UNSPECIFIED.);
#13 = CARTESIAN_POINT('', (0., 60., 0.));
#14 = CARTESIAN_POINT('', (0., 60., 100.));
#15 = ORIENTED_EDGE('', *, *, #16, .T.);
#16 = EDGE_CURVE('', #10, #17, #19, .T.);
#17 = VERTEX_POINT('', #18);
#18 = CARTESIAN_POINT('', (80., 60., 100.));
#19 = B_SPLINE_CURVE_WITH_KNOTS('', 1, (#20, #21), .UNSPECIFIED., .F., .U., (2, 2), (0., 80.), .UNSPECIFIED.);
#20 = CARTESIAN_POINT('', (0., 60., 100.));
#21 = CARTESIAN_POINT('', (80., 60., 100.));
#22 = ORIENTED_EDGE('', *, *, #23, .F.);
#23 = EDGE_CURVE('', #24, #17, #26, .T.);
#24 = VERTEX_POINT('', #25);
#25 = CARTESIAN_POINT('', (80., 60., 0.));
#26 = B_SPLINE_CURVE_WITH_KNOTS('', 1, (#27, #28), .UNSPECIFIED., .F., .U., (2, 2), (0., 100.), .UNSPECIFIED.);
#27 = CARTESIAN_POINT('', (80., 60., 0.));
#28 = CARTESIAN_POINT('', (80., 60., 100.));
#29 = ORIENTED_EDGE('', *, *, #30, .F.);
#30 = EDGE_CURVE('', #8, #24, #31, .T.);
#31 = B_SPLINE_CURVE_WITH_KNOTS('', 1, (#32, #33), .UNSPECIFIED., .F., .U., (2, 2), (0., 80.), .UNSPECIFIED.);
#32 = CARTESIAN_POINT('', (0., 60., 0.));
#33 = CARTESIAN_POINT('', (80., 60., 0.));
#34 = B_SPLINE_SURFACE_WITH_KNOTS('', 1, 1, ((#35, #36), (#37, #38)), .UNSPECIFIED., .F., .F., .U., (2, 2), (2, 2), (0., 100.), (0., 80.), .UNSPECIFIED.);
#35 = CARTESIAN_POINT('', (0., 60., 0.));
#36 = CARTESIAN_POINT('', (80., 60., 0.));
#37 = CARTESIAN_POINT('', (0., 60., 100.));
#38 = CARTESIAN_POINT('', (80., 60., 100.));
#39 = ADVANCED_FACE('', (#40), #62, .T.);
#40 = FACE_OUTER_BOUND('', #41, .T.);
#41 = EDGE_LOOP('', (#42, #49, #56, #61));
#42 = ORIENTED_EDGE('', *, *, #43, .F.);
#43 = EDGE_CURVE('', #44, #10, #46, .T.);
#44 = VERTEX_POINT('', #45);
#45 = CARTESIAN_POINT('', (0., 0., 100.));
#46 = B_SPLINE_CURVE_WITH_KNOTS('', 1, (#47, #48), .UNSPECIFIED., .F., .U., (2, 2), (0., 60.), .UNSPECIFIED.);
#47 = CARTESIAN_POINT('', (0., 0., 100.));
#48 = CARTESIAN_POINT('', (0., 60., 100.));
#49 = ORIENTED_EDGE('', *, *, #50, .T.);
#50 = EDGE_CURVE('', #44, #51, #53, .T.);
#51 = VERTEX_POINT('', #52);
#52 = CARTESIAN_POINT('', (80., 0., 100.));
#53 = B_SPLINE_CURVE_WITH_KNOTS('', 1, (#54, #55), .UNSPECIFIED., .F., .U., (2, 2), (0., 80.), .UNSPECIFIED.);
#54 = CARTESIAN_POINT('', (0., 0., 100.));
#55 = CARTESIAN_POINT('', (80., 0., 100.));
#56 = ORIENTED_EDGE('', *, *, #57, .T.);
#57 = EDGE_CURVE('', #51, #17, #58, .T.);
#58 = B_SPLINE_CURVE_WITH_KNOTS('', 1, (#59, #60), .UNSPECIFIED., .F., .U., (2, 2), (0., 60.), .UNSPECIFIED.);
#59 = CARTESIAN_POINT('', (80., 0., 100.));
#60 = CARTESIAN_POINT('', (80., 60., 100.));
#61 = ORIENTED_EDGE('', *, *, #16, .F.);
#62 = B_SPLINE_SURFACE_WITH_KNOTS('', 1, 1, ((#63, #64), (#65, #66)), .UNSPECIFIED., .F., .F., .U., (2, 2), (2, 2), (0., 80.), (0., 60.), .UNSPECIFIED.);
#63 = CARTESIAN_POINT('', (0., 0., 100.));
#64 = CARTESIAN_POINT('', (0., 60., 100.));
#65 = CARTESIAN_POINT('', (80., 0., 100.));
#66 = CARTESIAN_POINT('', (80., 60., 100.));
#67 = ADVANCED_FACE('', (#68), #98, .T.);
#68 = FACE_OUTER_BOUND('', #69, .T.);
#69 = EDGE_LOOP('', (#70, #80, #85, #86, #93));
#70 = ORIENTED_EDGE('', *, *, #71, .T.);
#71 = EDGE_CURVE('', #72, #74, #76, .T.);
#72 = VERTEX_POINT('', #73);
#73 = CARTESIAN_POINT('', (50., 0., 0.));
#74 = VERTEX_POINT('', #75);
#75 = CARTESIAN_POINT('', (0., 50., 0.));
#76 = (
   BOUNDED_CURVE ()
   B_SPLINE_CURVE (2, (#77, #78, #79), .UNSPECIFIED., .F., .U.)
   B_SPLINE_CURVE_WITH_KNOTS ((3, 3), (0., 1.), .UNSPECIFIED.)
   CURVE ()
   GEOMETRIC_REPRESENTATION_ITEM ()
   RATIONAL_B_SPLINE_CURVE ((1., 0.707106781186548, 1.))
   REPRESENTATION_ITEM ('')
);
#77 = CARTESIAN_POINT('', (50., 0., 0.));
#78 = CARTESIAN_POINT('', (50., 50., 0.));
#79 = CARTESIAN_POINT('', (3.06161699786838E-15, 50., 0.));
#80 = ORIENTED_EDGE('', *, *, #81, .T.);
#81 = EDGE_CURVE('', #74, #8, #82, .T.);
#82 = B_SPLINE_CURVE_WITH_KNOTS('', 1, (#83, #84), .UNSPECIFIED., .F., .U., (2, 2), (50., 60.), .UNSPECIFIED.);
#83 = CARTESIAN_POINT('', (0., 50., 0.));
#84 = CARTESIAN_POINT('', (0., 60., 0.));
#85 = ORIENTED_EDGE('', *, *, #30, .T.);
#86 = ORIENTED_EDGE('', *, *, #87, .F.);
#87 = EDGE_CURVE('', #88, #24, #90, .T.);
#88 = VERTEX_POINT('', #89);
#89 = CARTESIAN_POINT('', (80., 0., 0.));
#90 = B_SPLINE_CURVE_WITH_KNOTS('', 1, (#91, #92), .UNSPECIFIED., .F., .U., (2, 2), (0., 60.), .UNSPECIFIED.);
#91 = CARTESIAN_POINT('', (80., 0., 0.));
#92 = CARTESIAN_POINT('', (80., 60., 0.));
#93 = ORIENTED_EDGE('', *, *, #94, .F.);
#94 = EDGE_CURVE('', #72, #88, #95, .T.);
#95 = B_SPLINE_CURVE_WITH_KNOTS('', 1, (#96, #97), .UNSPECIFIED., .F., .U., (2, 2), (50., 80.), .UNSPECIFIED.);
#96 = CARTESIAN_POINT('', (50., 0., 0.));
#97 = CARTESIAN_POINT('', (80., 0., 0.));
#98 = B_SPLINE_SURFACE_WITH_KNOTS('', 1, 1, ((#99, #100), (#101, #102)), .UNSPECIFIED., .F., .F., .U., (2, 2), (2, 2), (0., 60.), (0., 80.), .UNSPECIFIED.);
#99 = CARTESIAN_POINT('', (0., 0., 0.));
#100 = CARTESIAN_POINT('', (80., 0., 0.));
#101 = CARTESIAN_POINT('', (0., 60., 0.));
#102 = CARTESIAN_POINT('', (80., 60., 0.));
#103 = ADVANCED_FACE('', (#104), #114, .T.);
#104 = FACE_OUTER_BOUND('', #105, .T.);
#105 = EDGE_LOOP('', (#106, #111, #112, #113));
#106 = ORIENTED_EDGE('', *, *, #107, .F.);
#107 = EDGE_CURVE('', #88, #51, #108, .T.);
#108 = B_SPLINE_CURVE_WITH_KNOTS('', 1, (#109, #110), .UNSPECIFIED., .F., .U., (2, 2), (0., 100.), .UNSPECIFIED.);
#109 = CARTESIAN_POINT('', (80., 0., 0.));
#110 = CARTESIAN_POINT('', (80., 0., 100.));
#111 = ORIENTED_EDGE('', *, *, #87, .T.);
#112 = ORIENTED_EDGE('', *, *, #23, .T.);
#113 = ORIENTED_EDGE('', *, *, #57, .F.);
#114 = B_SPLINE_SURFACE_WITH_KNOTS('', 1, 1, ((#115, #116), (#117, #118)), .UNSPECIFIED., .F., .F., .U., (2, 2), (2, 2), (0., 60.), (0., 100.), .UNSPECIFIED.);
#115 = CARTESIAN_POINT('', (80., 0., 0.));
#116 = CARTESIAN_POINT('', (80., 0., 100.));
#117 = CARTESIAN_POINT('', (80., 60., 0.));
#118 = CARTESIAN_POINT('', (80., 60., 100.));
#119 = ADVANCED_FACE('', (#120), #144, .T.);
#120 = FACE_OUTER_BOUND('', #121, .T.);
#121 = EDGE_LOOP('', (#122, #131, #136, #137, #138, #139));
#122 = ORIENTED_EDGE('', *, *, #123, .F.);
#123 = EDGE_CURVE('', #124, #126, #128, .T.);
#124 = VERTEX_POINT('', #125);
#125 = CARTESIAN_POINT('', (0., 0., 60.));
#126 = VERTEX_POINT('', #127);
#127 = CARTESIAN_POINT('', (3.06161699786838E-15, 50., 60.));
#128 = B_SPLINE_CURVE_WITH_KNOTS('', 1, (#129, #130), .UNSPECIFIED., .F., .U., (2, 2), (0., 0.833333333333333), .UNSPECIFIED.);
#129 = CARTESIAN_POINT('', (0., 5.6843418860808E-14, 60.));
#130 = CARTESIAN_POINT('', (0., 50., 60.));
#131 = ORIENTED_EDGE('', *, *, #132, .T.);
#132 = EDGE_CURVE('', #124, #44, #133, .T.);
#133 = B_SPLINE_CURVE_WITH_KNOTS('', 1, (#134, #135), .UNSPECIFIED., .F., .U., (2, 2), (60., 100.), .UNSPECIFIED.);
#134 = CARTESIAN_POINT('', (0., 0., 60.));
#135 = CARTESIAN_POINT('', (0., 0., 100.));
#136 = ORIENTED_EDGE('', *, *, #43, .T.);
#137 = ORIENTED_EDGE('', *, *, #7, .F.);
#138 = ORIENTED_EDGE('', *, *, #81, .F.);
#139 = ORIENTED_EDGE('', *, *, #140, .T.);
#140 = EDGE_CURVE('', #74, #126, #141, .T.);
#141 = B_SPLINE_CURVE_WITH_KNOTS('', 1, (#142, #143), .UNSPECIFIED., .F., .U., (2, 2), (0., 1.), .UNSPECIFIED.);
#142 = CARTESIAN_POINT('', (0., 50., 0.));
#143 = CARTESIAN_POINT('', (0., 50., 60.));
#144 = B_SPLINE_SURFACE_WITH_KNOTS('', 1, 1, ((#145, #146), (#147, #148)), .UNSPECIFIED., .F., .F., .U., (2, 2), (2, 2), (0., 100.), (0., 60.), .UNSPECIFIED.);
#145 = CARTESIAN_POINT('', (0., 0., 0.));
#146 = CARTESIAN_POINT('', (0., 60., 0.));
#147 = CARTESIAN_POINT('', (0., 0., 100.));
#148 = CARTESIAN_POINT('', (0., 60., 100.));
#149 = ADVANCED_FACE('', (#150), #168, .T.);
#150 = FACE_OUTER_BOUND('', #151, .T.);
#151 = EDGE_LOOP('', (#152, #159, #164, #165, #166, #167));
#152 = ORIENTED_EDGE('', *, *, #153, .F.);
#153 = EDGE_CURVE('', #154, #124, #156, .T.);
#154 = VERTEX_POINT('', #155);
#155 = CARTESIAN_POINT('', (50., 0., 60.));
#156 = B_SPLINE_CURVE_WITH_KNOTS('', 1, (#157, #158), .UNSPECIFIED., .F., .U., (2, 2), (0.357175653466775, 1.), .UNSPECIFIED.);
#157 = CARTESIAN_POINT('', (50., 0., 60.));
#158 = CARTESIAN_POINT('', (-5.6843418860808E-14, 0., 60.));
#159 = ORIENTED_EDGE('', *, *, #160, .F.);
#160 = EDGE_CURVE('', #72, #154, #161, .T.);
#161 = B_SPLINE_CURVE_WITH_KNOTS('', 1, (#162, #163), .UNSPECIFIED., .F., .U., (2, 2), (0., 1.), .UNSPECIFIED.);
#162 = CARTESIAN_POINT('', (50., 0., 0.));
#163 = CARTESIAN_POINT('', (50., 0., 60.));
#164 = ORIENTED_EDGE('', *, *, #94, .T.);
#165 = ORIENTED_EDGE('', *, *, #107, .T.);
#166 = ORIENTED_EDGE('', *, *, #50, .F.);
#167 = ORIENTED_EDGE('', *, *, #132, .F.);
#168 = B_SPLINE_SURFACE_WITH_KNOTS('', 1, 1, ((#169, #170), (#171, #172)), .UNSPECIFIED., .F., .F., .U., (2, 2), (2, 2), (0., 80.), (0., 100.), .UNSPECIFIED.);
#169 = CARTESIAN_POINT('', (0., 0., 0.));
#170 = CARTESIAN_POINT('', (0., 0., 100.));
#171 = CARTESIAN_POINT('', (80., 0., 0.));
#172 = CARTESIAN_POINT('', (80., 0., 100.));
#173 = ADVANCED_FACE('', (#174), #185, .F.);
#174 = FACE_OUTER_BOUND('', #175, .F.);
#175 = EDGE_LOOP('', (#176, #177, #183, #184));
#176 = ORIENTED_EDGE('', *, *, #140, .T.);
#177 = ORIENTED_EDGE('', *, *, #178, .F.);
#178 = EDGE_CURVE('', #154, #126, #179, .T.);
#179 = (
   BOUNDED_CURVE ()
   B_SPLINE_CURVE (2, (#180, #181, #182), .UNSPECIFIED., .F., .U.)
   B_SPLINE_CURVE_WITH_KNOTS ((3, 3), (0., 78.5398163397448), .UNSPECIFIED.)
   CURVE ()
   GEOMETRIC_REPRESENTATION_ITEM ()
   RATIONAL_B_SPLINE_CURVE ((1., 0.707106781186548, 1.))
   REPRESENTATION_ITEM ('')
);
#180 = CARTESIAN_POINT('', (50., 0., 60.));
#181 = CARTESIAN_POINT('', (50., 50., 60.));
#182 = CARTESIAN_POINT('', (3.06161699786838E-15, 50., 60.));
#183 = ORIENTED_EDGE('', *, *, #160, .F.);
#184 = ORIENTED_EDGE('', *, *, #71, .T.);
#185 = (
   BOUNDED_SURFACE ()
   B_SPLINE_SURFACE (2, 1, ((#186, #187), (#188, #189), (#190, #191), (#192, #193), (#194, #195), (#196, #197), (#198, #199), (#200, #201), (#202, #203)), .UNSPECIFIED., .T., .F., .U.)
   B_SPLINE_SURFACE_WITH_KNOTS ((3, 2, 2, 2, 3), (2, 2), (0., 78.5398163397448, 157.07963267949, 235.619449019235, 314.159265358979), (0., 60.), .UNSPECIFIED.)
   GEOMETRIC_REPRESENTATION_ITEM ()
   RATIONAL_B_SPLINE_SURFACE (((1., 1.), (0.707106781186548, 0.707106781186548), (1., 1.), (0.707106781186548, 0.707106781186548), (1., 1.), (0.707106781186548, 0.707106781186548), (1., 1.), (0.707106781186548, 0.707106781186548), (1., 1.)))
   REPRESENTATION_ITEM ('')
   SURFACE ()
);
#186 = CARTESIAN_POINT('', (50., 0., 0.));
#187 = CARTESIAN_POINT('', (50., 0., 60.));
#188 = CARTESIAN_POINT('', (50., 50., 0.));
#189 = CARTESIAN_POINT('', (50., 50., 60.));
#190 = CARTESIAN_POINT('', (3.06161699786838E-15, 50., 0.));
#191 = CARTESIAN_POINT('', (3.06161699786838E-15, 50., 60.));
#192 = CARTESIAN_POINT('', (-50., 50., 0.));
#193 = CARTESIAN_POINT('', (-50., 50., 60.));
#194 = CARTESIAN_POINT('', (-50., 6.12323399573677E-15, 0.));
#195 = CARTESIAN_POINT('', (-50., 6.12323399573677E-15, 60.));
#196 = CARTESIAN_POINT('', (-50., -50., 0.));
#197 = CARTESIAN_POINT('', (-50., -50., 60.));
#198 = CARTESIAN_POINT('', (-9.18485099360515E-15, -50., 0.));
#199 = CARTESIAN_POINT('', (-9.18485099360515E-15, -50., 60.));
#200 = CARTESIAN_POINT('', (50., -50., 0.));
#201 = CARTESIAN_POINT('', (50., -50., 60.));
#202 = CARTESIAN_POINT('', (50., 0., 0.));
#203 = CARTESIAN_POINT('', (50., 0., 60.));
#204 = ADVANCED_FACE('', (#205), #210, .F.);
#205 = FACE_OUTER_BOUND('', #206, .F.);
#206 = EDGE_LOOP('', (#207, #208, #209));
#207 = ORIENTED_EDGE('', *, *, #153, .F.);
#208 = ORIENTED_EDGE('', *, *, #178, .T.);
#209 = ORIENTED_EDGE('', *, *, #123, .F.);
#210 = B_SPLINE_SURFACE_WITH_KNOTS('', 1, 1, ((#211, #212), (#213, #214)), .UNSPECIFIED., .F., .F., .U., (2, 2), (2, 2), (0., 1.), (0., 1.), .UNSPECIFIED.);
#211 = CARTESIAN_POINT('', (77.7817459305203, -77.7817459305203, 60.));
#212 = CARTESIAN_POINT('', (-77.7817459305203, -77.7817459305203, 60.));
#213 = CARTESIAN_POINT('', (77.7817459305203, 77.7817459305203, 60.));
#214 = CARTESIAN_POINT('', (-77.7817459305203, 77.7817459305203, 60.));
#215 = DRAUGHTING_MODEL('', (#223), #226);
#216 = PRESENTATION_STYLE_ASSIGNMENT((#217));
#217 = SURFACE_STYLE_USAGE(.POSITIVE., #218);
#218 = SURFACE_SIDE_STYLE('', (#219));
#219 = SURFACE_STYLE_FILL_AREA(#220);
#220 = FILL_AREA_STYLE('', (#221));
#221 = FILL_AREA_STYLE_COLOUR('', #222);
#222 = COLOUR_RGB('', 0.50196078431373, 0.50196078431373, 0.50196078431373);
#223 = STYLED_ITEM('', (#216), #1);
#224 = CARTESIAN_POINT('Origin', (0., 0., 0.));
#225 = GEOMETRIC_SET('', (#224));
#226 = (
   GEOMETRIC_REPRESENTATION_CONTEXT (3)
   GLOBAL_UNCERTAINTY_ASSIGNED_CONTEXT ((#228))
   GLOBAL_UNIT_ASSIGNED_CONTEXT ((#227, #229, #230))
   REPRESENTATION_CONTEXT ('', '3D')
);
#227 = (
   LENGTH_UNIT ()
   NAMED_UNIT (*)
   SI_UNIT (.MILLI., .METRE.)
);
#228 = UNCERTAINTY_MEASURE_WITH_UNIT(LENGTH_MEASURE(1.E-6), #227, 'DISTANCE_ACCURACY_VALUE', '');
#229 = (
   NAMED_UNIT (*)
   SI_UNIT ($, .STERADIAN.)
   SOLID_ANGLE_UNIT ()
);
#230 = (
   NAMED_UNIT (*)
   PLANE_ANGLE_UNIT ()
   SI_UNIT ($, .RADIAN.)
);
#231 = SHAPE_REPRESENTATION('', (#246), #226);
#232 = PRODUCT_DEFINITION_SHAPE('', '', #233);
#233 = PRODUCT_DEFINITION('', '', #236, #240);
#234 = APPLICATION_CONTEXT('configuration controlled 3D designs of mechanical parts and assemblies');
#235 = APPLICATION_PROTOCOL_DEFINITION('International Standard', 'automotive_design', 2002, #234);
#236 = PRODUCT_DEFINITION_FORMATION_WITH_SPECIFIED_SOURCE('', '', #237, .NOT_KNOWN.);
#237 = PRODUCT('PropagateTest', 'PropagateTest', '', (#238));
#238 = PRODUCT_CONTEXT('', #234, 'mechanical');
#239 = PRODUCT_RELATED_PRODUCT_CATEGORY('detail', '', (#237));
#240 = PRODUCT_DEFINITION_CONTEXT('part definition', #234, 'design');
#241 = SHAPE_DEFINITION_REPRESENTATION(#232, #231);
#242 = SHAPE_REPRESENTATION_RELATIONSHIP('', '', #231, #243);
#243 = SHAPE_REPRESENTATION('', (#225), #226);
#244 = SHAPE_REPRESENTATION_RELATIONSHIP('', '', #231, #245);
#245 = ADVANCED_BREP_SHAPE_REPRESENTATION('', (#1), #226);
#246 = AXIS2_PLACEMENT_3D('', #247, #248, #249);
#247 = CARTESIAN_POINT('', (0., 0., 0.));
#248 = DIRECTION('', (0., 0., 1.));
#249 = DIRECTION('', (1., 0., 0.));
ENDSEC;
END-ISO-10303-21;
