ISO-10303-21;
HEADER;
FILE_DESCRIPTION(('STEP'), '1');
FILE_NAME('MultiEdgeFix', '2026-04-15T15:13:16', (''), (''), 'Express 3.1.2.0', 'Express Tool', 'Unknown');
FILE_SCHEMA(('AUTOMOTIVE_DESIGN'));
ENDSEC;

DATA;
#1 = MANIFOLD_SOLID_BREP('Solid', #2);
#2 = CLOSED_SHELL('', (#3, #162, #257, #343, #365, #401, #421, #437, #453, #465));
#3 = ADVANCED_FACE('', (#4), #155, .T.);
#4 = FACE_OUTER_BOUND('', #5, .T.);
#5 = EDGE_LOOP('', (#6, #15, #78, #85));
#6 = ORIENTED_EDGE('', *, *, #7, .F.);
#7 = EDGE_CURVE('', #8, #10, #12, .T.);
#8 = VERTEX_POINT('', #9);
#9 = CARTESIAN_POINT('', (32., -22., 20.));
#10 = VERTEX_POINT('', #11);
#11 = CARTESIAN_POINT('', (32., 22., 20.));
#12 = B_SPLINE_CURVE_WITH_KNOTS('', 1, (#13, #14), .UNSPECIFIED., .F., .U., (2, 2), (0.316666666666667, 0.683333333333333), .UNSPECIFIED.);
#13 = CARTESIAN_POINT('', (32., -22., 20.));
#14 = CARTESIAN_POINT('', (32., 22., 20.));
#15 = ORIENTED_EDGE('', *, *, #16, .F.);
#16 = EDGE_CURVE('', #17, #8, #19, .T.);
#17 = VERTEX_POINT('', #18);
#18 = CARTESIAN_POINT('', (40., -30., 12.));
#19 = B_SPLINE_CURVE_WITH_KNOTS('', 3, (#20, #21, #22, #23, #24, #25, #26, #27, #28, #29, #30, #31, #32, #33, #34, #35, #36, #37, #38, #39, #40, #41, #42, #43, #44, #45, #46, #47, #48, #49, #50, #51, #52, #53, #54, #55, #56, #57, #58, #59, #60, #61, #62, #63, #64, #65, #66, #67, #68, #69, #70, #71, #72, #73, #74, #75, #76, #77), .UNSPECIFIED., .F., .U., (4, 3, 3, 3, 3, 3, 3, 3, 3, 3, 3, 3, 3, 3, 3, 3, 3, 3, 3, 4), (0., 0.442914798863035, 0.88541249315942, 1.32746774902231, 1.76906921263308, 2.21021905256177, 2.87337979215607, 3.53514128841251, 4.19566613608767, 4.85512809487877, 5.51369210049618, 6.1715037838913, 6.82868580845881, 7.81330287139901, 8.79647277093392, 9.77847488248477, 10.7594904250366, 11.7396274819737, 13.9239040839268, 15.2754395469537), .UNSPECIFIED.);
#20 = CARTESIAN_POINT('', (40., -30., 12.));
#21 = CARTESIAN_POINT('', (40., -30., 12.1476382662877));
#22 = CARTESIAN_POINT('', (39.9959037063418, -29.9959037063418, 12.2953886757851));
#23 = CARTESIAN_POINT('', (39.9877485362071, -29.9877485362071, 12.4425757814451));
#24 = CARTESIAN_POINT('', (39.9796010460115, -29.9796010460115, 12.5896242771195));
#25 = CARTESIAN_POINT('', (39.9673904373254, -29.9673904373254, 12.7363316806714));
#26 = CARTESIAN_POINT('', (39.9512257063365, -29.9512257063365, 12.8820486193476));
#27 = CARTESIAN_POINT('', (39.9350771379138, -29.9350771379138, 13.0276198606001));
#28 = CARTESIAN_POINT('', (39.9149594023414, -29.9149594023414, 13.1724155716304));
#29 = CARTESIAN_POINT('', (39.8910444386015, -29.8910444386015, 13.3158334499533));
#30 = CARTESIAN_POINT('', (39.8671540247909, -29.8671540247909, 13.459104102514));
#31 = CARTESIAN_POINT('', (39.8394416246313, -29.8394416246312, 13.6012003516969));
#32 = CARTESIAN_POINT('', (39.8081297841546, -29.8081297841546, 13.7415824051125));
#33 = CARTESIAN_POINT('', (39.7768499661459, -29.7768499661459, 13.8818208904806));
#34 = CARTESIAN_POINT('', (39.7419377870445, -29.7419377870445, 14.0205338927938));
#35 = CARTESIAN_POINT('', (39.7036523275021, -29.7036523275021, 14.1572530720736));
#36 = CARTESIAN_POINT('', (39.6460995158092, -29.6460995158092, 14.3627768733802));
#37 = CARTESIAN_POINT('', (39.580785870131, -29.5807858701311, 14.5642448254615));
#38 = CARTESIAN_POINT('', (39.5086835020235, -29.5086835020236, 14.7603753488321));
#39 = CARTESIAN_POINT('', (39.4367332671052, -29.4367332671052, 14.9560920444354));
#40 = CARTESIAN_POINT('', (39.3578534396469, -29.3578534396469, 15.146976001871));
#41 = CARTESIAN_POINT('', (39.2730389251327, -29.2730389251327, 15.3321021583237));
#42 = CARTESIAN_POINT('', (39.188382905408, -29.188382905408, 15.516882365367));
#43 = CARTESIAN_POINT('', (39.0976396975996, -29.0976396975996, 15.6963218901985));
#44 = CARTESIAN_POINT('', (39.0017636559399, -29.0017636559399, 15.8697940134276));
#45 = CARTESIAN_POINT('', (38.9060418939857, -28.9060418939857, 16.0429869925909));
#46 = CARTESIAN_POINT('', (38.8050327055799, -28.80503270558, 16.2105507839475));
#47 = CARTESIAN_POINT('', (38.699614058076, -28.699614058076, 16.372090057722));
#48 = CARTESIAN_POINT('', (38.5943389533614, -28.5943389533614, 16.5334093723289));
#49 = CARTESIAN_POINT('', (38.4845041645357, -28.4845041645357, 16.6889752202467));
#50 = CARTESIAN_POINT('', (38.3708963274721, -28.3708963274721, 16.8385617681913));
#51 = CARTESIAN_POINT('', (38.2574182723275, -28.2574182723275, 16.9879774333012));
#52 = CARTESIAN_POINT('', (38.1400250317768, -28.1400250317768, 17.1316297903778));
#53 = CARTESIAN_POINT('', (38.0194104280159, -28.0194104280159, 17.2694115515011));
#54 = CARTESIAN_POINT('', (37.8989112768259, -27.8989112768259, 17.4070614276118));
#55 = CARTESIAN_POINT('', (37.7750583960095, -27.7750583960095, 17.5390126054999));
#56 = CARTESIAN_POINT('', (37.6484587986079, -27.6484587986079, 17.6652372589706));
#57 = CARTESIAN_POINT('', (37.4587820894116, -27.4587820894116, 17.8543522117918));
#58 = CARTESIAN_POINT('', (37.2626040019042, -27.2626040019042, 18.0309482544747));
#59 = CARTESIAN_POINT('', (37.0616531512097, -27.0616531512097, 18.1951325552283));
#60 = CARTESIAN_POINT('', (36.8609976526153, -26.8609976526153, 18.3590755423579));
#61 = CARTESIAN_POINT('', (36.6552071419471, -26.6552071419471, 18.5109564407693));
#62 = CARTESIAN_POINT('', (36.4456952014035, -26.4456952014035, 18.6509994870108));
#63 = CARTESIAN_POINT('', (36.2364321146204, -26.2364321146204, 18.7908761931449));
#64 = CARTESIAN_POINT('', (36.0231251774145, -26.0231251774145, 18.9191674361369));
#65 = CARTESIAN_POINT('', (35.8069461556403, -25.8069461556403, 19.0361325291708));
#66 = CARTESIAN_POINT('', (35.5909843182475, -25.5909843182475, 19.1529801131552));
#67 = CARTESIAN_POINT('', (35.3718607283222, -25.3718607283222, 19.2586855655565));
#68 = CARTESIAN_POINT('', (35.1505657272878, -25.1505657272878, 19.3534981878042));
#69 = CARTESIAN_POINT('', (34.929468892813, -24.929468892813, 19.4482259066827));
#70 = CARTESIAN_POINT('', (34.7059367411976, -24.7059367411976, 19.5321957364728));
#71 = CARTESIAN_POINT('', (34.4808263210678, -24.4808263210679, 19.605622970191));
#72 = CARTESIAN_POINT('', (33.9791582940658, -23.9791582940658, 19.7692586448363));
#73 = CARTESIAN_POINT('', (33.4678130325415, -23.4678130325415, 19.8811474718634));
#74 = CARTESIAN_POINT('', (32.9548240649292, -22.9548240649292, 19.9428150554468));
#75 = CARTESIAN_POINT('', (32.6374087791317, -22.6374087791318, 19.9809722769533));
#76 = CARTESIAN_POINT('', (32.3185599636401, -22.3185599636401, 20.));
#77 = CARTESIAN_POINT('', (32., -22., 20.));
#78 = ORIENTED_EDGE('', *, *, #79, .T.);
#79 = EDGE_CURVE('', #17, #80, #82, .T.);
#80 = VERTEX_POINT('', #81);
#81 = CARTESIAN_POINT('', (40., 30., 12.));
#82 = B_SPLINE_CURVE_WITH_KNOTS('', 1, (#83, #84), .UNSPECIFIED., .F., .U., (2, 2), (0.25, 0.75), .UNSPECIFIED.);
#83 = CARTESIAN_POINT('', (40., -30., 12.));
#84 = CARTESIAN_POINT('', (40., 30., 12.));
#85 = ORIENTED_EDGE('', *, *, #86, .T.);
#86 = EDGE_CURVE('', #80, #10, #87, .T.);
#87 = B_SPLINE_CURVE_WITH_KNOTS('', 3, (#88, #89, #90, #91, #92, #93, #94, #95, #96, #97, #98, #99, #100, #101, #102, #103, #104, #105, #106, #107, #108, #109, #110, #111, #112, #113, #114, #115, #116, #117, #118, #119, #120, #121, #122, #123, #124, #125, #126, #127, #128, #129, #130, #131, #132, #133, #134, #135, #136, #137, #138, #139, #140, #141, #142, #143, #144, #145, #146, #147, #148, #149, #150, #151, #152, #153, #154), .UNSPECIFIED., .F., .U., (4, 3, 3, 3, 3, 3, 3, 3, 3, 3, 3, 3, 3, 3, 3, 3, 3, 3, 3, 3, 3, 3, 4), (0., 0.442914798863035, 0.885412493159416, 1.32746774902231, 1.76906921263308, 2.21021905256176, 2.87337979215607, 3.5351412884125, 4.19566613608767, 4.85512809487876, 5.51369210049619, 6.17150378389131, 6.82868580845881, 7.813302871399, 8.79647277093392, 9.77847488248476, 10.7594904250366, 11.7396274819737, 13.9239040839268, 14.9013384554243, 15.1925152184265, 15.2501500746677, 15.275686759415), .UNSPECIFIED.);
#88 = CARTESIAN_POINT('', (40., 30., 12.));
#89 = CARTESIAN_POINT('', (40., 30., 12.1476382662877));
#90 = CARTESIAN_POINT('', (39.9959037063418, 29.9959037063418, 12.2953886757851));
#91 = CARTESIAN_POINT('', (39.9877485362071, 29.9877485362071, 12.4425757814451));
#92 = CARTESIAN_POINT('', (39.9796010460115, 29.9796010460115, 12.5896242771195));
#93 = CARTESIAN_POINT('', (39.9673904373254, 29.9673904373254, 12.7363316806714));
#94 = CARTESIAN_POINT('', (39.9512257063365, 29.9512257063365, 12.8820486193476));
#95 = CARTESIAN_POINT('', (39.9350771379138, 29.9350771379138, 13.0276198606001));
#96 = CARTESIAN_POINT('', (39.9149594023414, 29.9149594023414, 13.1724155716304));
#97 = CARTESIAN_POINT('', (39.8910444386015, 29.8910444386015, 13.3158334499533));
#98 = CARTESIAN_POINT('', (39.8671540247909, 29.8671540247909, 13.459104102514));
#99 = CARTESIAN_POINT('', (39.8394416246313, 29.8394416246312, 13.6012003516969));
#100 = CARTESIAN_POINT('', (39.8081297841546, 29.8081297841546, 13.7415824051125));
#101 = CARTESIAN_POINT('', (39.7768499661459, 29.7768499661459, 13.8818208904806));
#102 = CARTESIAN_POINT('', (39.7419377870445, 29.7419377870445, 14.0205338927938));
#103 = CARTESIAN_POINT('', (39.7036523275021, 29.7036523275021, 14.1572530720736));
#104 = CARTESIAN_POINT('', (39.6460995158092, 29.6460995158092, 14.3627768733802));
#105 = CARTESIAN_POINT('', (39.580785870131, 29.5807858701311, 14.5642448254615));
#106 = CARTESIAN_POINT('', (39.5086835020235, 29.5086835020236, 14.7603753488321));
#107 = CARTESIAN_POINT('', (39.4367332671052, 29.4367332671052, 14.9560920444354));
#108 = CARTESIAN_POINT('', (39.3578534396469, 29.3578534396469, 15.146976001871));
#109 = CARTESIAN_POINT('', (39.2730389251327, 29.2730389251327, 15.3321021583237));
#110 = CARTESIAN_POINT('', (39.188382905408, 29.188382905408, 15.516882365367));
#111 = CARTESIAN_POINT('', (39.0976396975996, 29.0976396975996, 15.6963218901985));
#112 = CARTESIAN_POINT('', (39.0017636559399, 29.0017636559399, 15.8697940134275));
#113 = CARTESIAN_POINT('', (38.9060418939857, 28.9060418939856, 16.0429869925909));
#114 = CARTESIAN_POINT('', (38.8050327055799, 28.80503270558, 16.2105507839475));
#115 = CARTESIAN_POINT('', (38.699614058076, 28.699614058076, 16.372090057722));
#116 = CARTESIAN_POINT('', (38.5943389533614, 28.5943389533614, 16.5334093723289));
#117 = CARTESIAN_POINT('', (38.4845041645357, 28.4845041645357, 16.6889752202467));
#118 = CARTESIAN_POINT('', (38.3708963274721, 28.3708963274721, 16.8385617681913));
#119 = CARTESIAN_POINT('', (38.2574182723275, 28.2574182723275, 16.9879774333012));
#120 = CARTESIAN_POINT('', (38.1400250317768, 28.1400250317768, 17.1316297903778));
#121 = CARTESIAN_POINT('', (38.0194104280159, 28.0194104280159, 17.2694115515011));
#122 = CARTESIAN_POINT('', (37.8989112768259, 27.8989112768259, 17.4070614276118));
#123 = CARTESIAN_POINT('', (37.7750583960095, 27.7750583960095, 17.5390126054999));
#124 = CARTESIAN_POINT('', (37.6484587986079, 27.6484587986079, 17.6652372589706));
#125 = CARTESIAN_POINT('', (37.4587820894116, 27.4587820894116, 17.8543522117918));
#126 = CARTESIAN_POINT('', (37.2626040019042, 27.2626040019042, 18.0309482544747));
#127 = CARTESIAN_POINT('', (37.0616531512097, 27.0616531512097, 18.1951325552283));
#128 = CARTESIAN_POINT('', (36.8609976526153, 26.8609976526153, 18.3590755423579));
#129 = CARTESIAN_POINT('', (36.6552071419471, 26.6552071419471, 18.5109564407693));
#130 = CARTESIAN_POINT('', (36.4456952014035, 26.4456952014035, 18.6509994870108));
#131 = CARTESIAN_POINT('', (36.2364321146204, 26.2364321146204, 18.7908761931449));
#132 = CARTESIAN_POINT('', (36.0231251774145, 26.0231251774145, 18.9191674361369));
#133 = CARTESIAN_POINT('', (35.8069461556403, 25.8069461556403, 19.0361325291708));
#134 = CARTESIAN_POINT('', (35.5909843182475, 25.5909843182475, 19.1529801131552));
#135 = CARTESIAN_POINT('', (35.3718607283222, 25.3718607283222, 19.2586855655565));
#136 = CARTESIAN_POINT('', (35.1505657272878, 25.1505657272878, 19.3534981878042));
#137 = CARTESIAN_POINT('', (34.929468892813, 24.929468892813, 19.4482259066827));
#138 = CARTESIAN_POINT('', (34.7059367411976, 24.7059367411976, 19.5321957364728));
#139 = CARTESIAN_POINT('', (34.4808263210678, 24.4808263210678, 19.605622970191));
#140 = CARTESIAN_POINT('', (33.9791582940658, 23.9791582940658, 19.7692586448363));
#141 = CARTESIAN_POINT('', (33.4678130325415, 23.4678130325415, 19.8811474718634));
#142 = CARTESIAN_POINT('', (32.9548240649292, 22.9548240649292, 19.9428150554468));
#143 = CARTESIAN_POINT('', (32.7252684085187, 22.7252684085188, 19.9704104688426));
#144 = CARTESIAN_POINT('', (32.4950033338922, 22.4950033338922, 19.9879958261164));
#145 = CARTESIAN_POINT('', (32.2646829331379, 22.2646829331379, 19.9956202351603));
#146 = CARTESIAN_POINT('', (32.196070706373, 22.196070706373, 19.9978915393113));
#147 = CARTESIAN_POINT('', (32.1274410136544, 22.1274410136545, 19.9992792883104));
#148 = CARTESIAN_POINT('', (32.0588109197206, 22.0588109197207, 19.9997838268119));
#149 = CARTESIAN_POINT('', (32.0452264373707, 22.0452264373708, 19.9998836939981));
#150 = CARTESIAN_POINT('', (32.0316418057951, 22.0316418057952, 19.9999489585711));
#151 = CARTESIAN_POINT('', (32.018057157204, 22.0180571572041, 19.9999796211661));
#152 = CARTESIAN_POINT('', (32.0120381105524, 22.0120381105525, 19.9999932070597));
#153 = CARTESIAN_POINT('', (32.0060190543179, 22.0060190543179, 20.));
#154 = CARTESIAN_POINT('', (32., 22., 20.));
#155 = (
   BOUNDED_SURFACE ()
   B_SPLINE_SURFACE (2, 1, ((#156, #157), (#158, #159), (#160, #161)), .UNSPECIFIED., .F., .F., .U.)
   B_SPLINE_SURFACE_WITH_KNOTS ((3, 3), (2, 2), (0., 1.), (0.25, 0.75), .UNSPECIFIED.)
   GEOMETRIC_REPRESENTATION_ITEM ()
   RATIONAL_B_SPLINE_SURFACE (((1., 1.), (0.707106781186548, 0.707106781186548), (1., 1.)))
   REPRESENTATION_ITEM ('')
   SURFACE ()
);
#156 = CARTESIAN_POINT('', (32., -30., 20.));
#157 = CARTESIAN_POINT('', (32., 30., 20.));
#158 = CARTESIAN_POINT('', (40., -30., 20.));
#159 = CARTESIAN_POINT('', (40., 30., 20.));
#160 = CARTESIAN_POINT('', (40., -30., 12.));
#161 = CARTESIAN_POINT('', (40., 30., 12.));
#162 = ADVANCED_FACE('', (#163), #250, .T.);
#163 = FACE_OUTER_BOUND('', #164, .T.);
#164 = EDGE_LOOP('', (#165, #172, #244, #249));
#165 = ORIENTED_EDGE('', *, *, #166, .F.);
#166 = EDGE_CURVE('', #167, #80, #169, .T.);
#167 = VERTEX_POINT('', #168);
#168 = CARTESIAN_POINT('', (-40., 30., 12.));
#169 = B_SPLINE_CURVE_WITH_KNOTS('', 1, (#170, #171), .UNSPECIFIED., .F., .U., (2, 2), (0.25, 0.75), .UNSPECIFIED.);
#170 = CARTESIAN_POINT('', (-40., 30., 12.));
#171 = CARTESIAN_POINT('', (40., 30., 12.));
#172 = ORIENTED_EDGE('', *, *, #173, .T.);
#173 = EDGE_CURVE('', #167, #174, #176, .T.);
#174 = VERTEX_POINT('', #175);
#175 = CARTESIAN_POINT('', (-32., 22., 20.));
#176 = B_SPLINE_CURVE_WITH_KNOTS('', 3, (#177, #178, #179, #180, #181, #182, #183, #184, #185, #186, #187, #188, #189, #190, #191, #192, #193, #194, #195, #196, #197, #198, #199, #200, #201, #202, #203, #204, #205, #206, #207, #208, #209, #210, #211, #212, #213, #214, #215, #216, #217, #218, #219, #220, #221, #222, #223, #224, #225, #226, #227, #228, #229, #230, #231, #232, #233, #234, #235, #236, #237, #238, #239, #240, #241, #242, #243), .UNSPECIFIED., .F., .U., (4, 3, 3, 3, 3, 3, 3, 3, 3, 3, 3, 3, 3, 3, 3, 3, 3, 3, 3, 3, 3, 3, 4), (0., 0.442914798863035, 0.885412493159415, 1.32746774902231, 1.76906921263309, 2.21021905256177, 2.87337979215607, 3.5351412884125, 4.19566613608767, 4.85512809487877, 5.51369210049619, 6.1715037838913, 6.82868580845881, 7.81330287139901, 8.79647277093392, 9.77847488248476, 10.7594904250366, 11.7396274819737, 13.9239040839268, 14.9013384554243, 15.1925152184264, 15.2501500746677, 15.275686759415), .UNSPECIFIED.);
#177 = CARTESIAN_POINT('', (-40., 30., 12.));
#178 = CARTESIAN_POINT('', (-40., 30., 12.1476382662877));
#179 = CARTESIAN_POINT('', (-39.9959037063418, 29.9959037063418, 12.2953886757851));
#180 = CARTESIAN_POINT('', (-39.9877485362071, 29.9877485362071, 12.4425757814451));
#181 = CARTESIAN_POINT('', (-39.9796010460115, 29.9796010460115, 12.5896242771195));
#182 = CARTESIAN_POINT('', (-39.9673904373254, 29.9673904373254, 12.7363316806714));
#183 = CARTESIAN_POINT('', (-39.9512257063365, 29.9512257063365, 12.8820486193476));
#184 = CARTESIAN_POINT('', (-39.9350771379138, 29.9350771379138, 13.0276198606001));
#185 = CARTESIAN_POINT('', (-39.9149594023414, 29.9149594023414, 13.1724155716304));
#186 = CARTESIAN_POINT('', (-39.8910444386015, 29.8910444386015, 13.3158334499533));
#187 = CARTESIAN_POINT('', (-39.8671540247909, 29.8671540247909, 13.459104102514));
#188 = CARTESIAN_POINT('', (-39.8394416246312, 29.8394416246312, 13.6012003516969));
#189 = CARTESIAN_POINT('', (-39.8081297841546, 29.8081297841546, 13.7415824051125));
#190 = CARTESIAN_POINT('', (-39.7768499661459, 29.7768499661459, 13.8818208904806));
#191 = CARTESIAN_POINT('', (-39.7419377870444, 29.7419377870445, 14.0205338927938));
#192 = CARTESIAN_POINT('', (-39.7036523275021, 29.7036523275021, 14.1572530720736));
#193 = CARTESIAN_POINT('', (-39.6460995158092, 29.6460995158092, 14.3627768733802));
#194 = CARTESIAN_POINT('', (-39.5807858701311, 29.5807858701311, 14.5642448254615));
#195 = CARTESIAN_POINT('', (-39.5086835020236, 29.5086835020236, 14.7603753488321));
#196 = CARTESIAN_POINT('', (-39.4367332671052, 29.4367332671052, 14.9560920444354));
#197 = CARTESIAN_POINT('', (-39.3578534396469, 29.3578534396469, 15.146976001871));
#198 = CARTESIAN_POINT('', (-39.2730389251327, 29.2730389251327, 15.3321021583237));
#199 = CARTESIAN_POINT('', (-39.188382905408, 29.188382905408, 15.516882365367));
#200 = CARTESIAN_POINT('', (-39.0976396975996, 29.0976396975996, 15.6963218901985));
#201 = CARTESIAN_POINT('', (-39.0017636559399, 29.0017636559399, 15.8697940134275));
#202 = CARTESIAN_POINT('', (-38.9060418939857, 28.9060418939856, 16.0429869925909));
#203 = CARTESIAN_POINT('', (-38.8050327055799, 28.8050327055799, 16.2105507839475));
#204 = CARTESIAN_POINT('', (-38.699614058076, 28.699614058076, 16.372090057722));
#205 = CARTESIAN_POINT('', (-38.5943389533614, 28.5943389533614, 16.5334093723289));
#206 = CARTESIAN_POINT('', (-38.4845041645357, 28.4845041645357, 16.6889752202467));
#207 = CARTESIAN_POINT('', (-38.3708963274721, 28.3708963274721, 16.8385617681913));
#208 = CARTESIAN_POINT('', (-38.2574182723275, 28.2574182723275, 16.9879774333012));
#209 = CARTESIAN_POINT('', (-38.1400250317768, 28.1400250317768, 17.1316297903778));
#210 = CARTESIAN_POINT('', (-38.0194104280159, 28.0194104280159, 17.2694115515011));
#211 = CARTESIAN_POINT('', (-37.8989112768259, 27.8989112768259, 17.4070614276118));
#212 = CARTESIAN_POINT('', (-37.7750583960095, 27.7750583960095, 17.5390126054999));
#213 = CARTESIAN_POINT('', (-37.6484587986079, 27.6484587986079, 17.6652372589706));
#214 = CARTESIAN_POINT('', (-37.4587820894116, 27.4587820894116, 17.8543522117918));
#215 = CARTESIAN_POINT('', (-37.2626040019042, 27.2626040019042, 18.0309482544747));
#216 = CARTESIAN_POINT('', (-37.0616531512097, 27.0616531512097, 18.1951325552283));
#217 = CARTESIAN_POINT('', (-36.8609976526153, 26.8609976526153, 18.3590755423579));
#218 = CARTESIAN_POINT('', (-36.6552071419471, 26.6552071419471, 18.5109564407693));
#219 = CARTESIAN_POINT('', (-36.4456952014035, 26.4456952014035, 18.6509994870108));
#220 = CARTESIAN_POINT('', (-36.2364321146204, 26.2364321146204, 18.7908761931449));
#221 = CARTESIAN_POINT('', (-36.0231251774145, 26.0231251774145, 18.9191674361369));
#222 = CARTESIAN_POINT('', (-35.8069461556403, 25.8069461556403, 19.0361325291708));
#223 = CARTESIAN_POINT('', (-35.5909843182475, 25.5909843182475, 19.1529801131552));
#224 = CARTESIAN_POINT('', (-35.3718607283222, 25.3718607283222, 19.2586855655565));
#225 = CARTESIAN_POINT('', (-35.1505657272878, 25.1505657272878, 19.3534981878042));
#226 = CARTESIAN_POINT('', (-34.929468892813, 24.929468892813, 19.4482259066827));
#227 = CARTESIAN_POINT('', (-34.7059367411976, 24.7059367411976, 19.5321957364728));
#228 = CARTESIAN_POINT('', (-34.4808263210679, 24.4808263210678, 19.605622970191));
#229 = CARTESIAN_POINT('', (-33.9791582940658, 23.9791582940658, 19.7692586448363));
#230 = CARTESIAN_POINT('', (-33.4678130325415, 23.4678130325415, 19.8811474718634));
#231 = CARTESIAN_POINT('', (-32.9548240649292, 22.9548240649292, 19.9428150554468));
#232 = CARTESIAN_POINT('', (-32.7252684085187, 22.7252684085187, 19.9704104688426));
#233 = CARTESIAN_POINT('', (-32.4950033338922, 22.4950033338922, 19.9879958261164));
#234 = CARTESIAN_POINT('', (-32.2646829331379, 22.2646829331379, 19.9956202351603));
#235 = CARTESIAN_POINT('', (-32.196070706373, 22.196070706373, 19.9978915393113));
#236 = CARTESIAN_POINT('', (-32.1274410136545, 22.1274410136544, 19.9992792883104));
#237 = CARTESIAN_POINT('', (-32.0588109197204, 22.0588109197209, 19.9997838268119));
#238 = CARTESIAN_POINT('', (-32.0452264373705, 22.0452264373711, 19.9998836939981));
#239 = CARTESIAN_POINT('', (-32.0316418057951, 22.0316418057953, 19.9999489585711));
#240 = CARTESIAN_POINT('', (-32.0180571572036, 22.0180571572045, 19.9999796211661));
#241 = CARTESIAN_POINT('', (-32.0120381105519, 22.012038110553, 19.9999932070597));
#242 = CARTESIAN_POINT('', (-32.0060190543179, 22.0060190543179, 20.));
#243 = CARTESIAN_POINT('', (-32., 22., 20.));
#244 = ORIENTED_EDGE('', *, *, #245, .T.);
#245 = EDGE_CURVE('', #174, #10, #246, .T.);
#246 = B_SPLINE_CURVE_WITH_KNOTS('', 1, (#247, #248), .UNSPECIFIED., .F., .U., (2, 2), (0.3, 0.7), .UNSPECIFIED.);
#247 = CARTESIAN_POINT('', (-32., 22., 20.));
#248 = CARTESIAN_POINT('', (32., 22., 20.));
#249 = ORIENTED_EDGE('', *, *, #86, .F.);
#250 = (
   BOUNDED_SURFACE ()
   B_SPLINE_SURFACE (2, 1, ((#251, #252), (#253, #254), (#255, #256)), .UNSPECIFIED., .F., .F., .U.)
   B_SPLINE_SURFACE_WITH_KNOTS ((3, 3), (2, 2), (0., 1.), (0.25, 0.75), .UNSPECIFIED.)
   GEOMETRIC_REPRESENTATION_ITEM ()
   RATIONAL_B_SPLINE_SURFACE (((1., 1.), (0.707106781186547, 0.707106781186547), (1., 1.)))
   REPRESENTATION_ITEM ('')
   SURFACE ()
);
#251 = CARTESIAN_POINT('', (-40., 30., 12.));
#252 = CARTESIAN_POINT('', (40., 30., 12.));
#253 = CARTESIAN_POINT('', (-40., 30., 20.));
#254 = CARTESIAN_POINT('', (40., 30., 20.));
#255 = CARTESIAN_POINT('', (-40., 22., 20.));
#256 = CARTESIAN_POINT('', (40., 22., 20.));
#257 = ADVANCED_FACE('', (#258), #336, .T.);
#258 = FACE_OUTER_BOUND('', #259, .T.);
#259 = EDGE_LOOP('', (#260, #267, #330, #335));
#260 = ORIENTED_EDGE('', *, *, #261, .F.);
#261 = EDGE_CURVE('', #262, #167, #264, .T.);
#262 = VERTEX_POINT('', #263);
#263 = CARTESIAN_POINT('', (-40., -30., 12.));
#264 = B_SPLINE_CURVE_WITH_KNOTS('', 1, (#265, #266), .UNSPECIFIED., .F., .U., (2, 2), (0.25, 0.75), .UNSPECIFIED.);
#265 = CARTESIAN_POINT('', (-40., -30., 12.));
#266 = CARTESIAN_POINT('', (-40., 30., 12.));
#267 = ORIENTED_EDGE('', *, *, #268, .T.);
#268 = EDGE_CURVE('', #262, #269, #271, .T.);
#269 = VERTEX_POINT('', #270);
#270 = CARTESIAN_POINT('', (-32., -22., 20.));
#271 = B_SPLINE_CURVE_WITH_KNOTS('', 3, (#272, #273, #274, #275, #276, #277, #278, #279, #280, #281, #282, #283, #284, #285, #286, #287, #288, #289, #290, #291, #292, #293, #294, #295, #296, #297, #298, #299, #300, #301, #302, #303, #304, #305, #306, #307, #308, #309, #310, #311, #312, #313, #314, #315, #316, #317, #318, #319, #320, #321, #322, #323, #324, #325, #326, #327, #328, #329), .UNSPECIFIED., .F., .U., (4, 3, 3, 3, 3, 3, 3, 3, 3, 3, 3, 3, 3, 3, 3, 3, 3, 3, 3, 4), (0., 0.442914798863035, 0.885412493159419, 1.32746774902231, 1.76906921263309, 2.21021905256177, 2.87337979215607, 3.53514128841251, 4.19566613608767, 4.85512809487876, 5.51369210049618, 6.17150378389129, 6.82868580845879, 7.813302871399, 8.79647277093392, 9.77847488248475, 10.7594904250366, 11.7396274819737, 13.9239040839268, 15.2754395469537), .UNSPECIFIED.);
#272 = CARTESIAN_POINT('', (-40., -30., 12.));
#273 = CARTESIAN_POINT('', (-40., -30., 12.1476382662877));
#274 = CARTESIAN_POINT('', (-39.9959037063418, -29.9959037063418, 12.2953886757851));
#275 = CARTESIAN_POINT('', (-39.9877485362071, -29.9877485362071, 12.4425757814451));
#276 = CARTESIAN_POINT('', (-39.9796010460115, -29.9796010460115, 12.5896242771195));
#277 = CARTESIAN_POINT('', (-39.9673904373254, -29.9673904373254, 12.7363316806714));
#278 = CARTESIAN_POINT('', (-39.9512257063365, -29.9512257063365, 12.8820486193476));
#279 = CARTESIAN_POINT('', (-39.9350771379138, -29.9350771379138, 13.0276198606001));
#280 = CARTESIAN_POINT('', (-39.9149594023414, -29.9149594023414, 13.1724155716304));
#281 = CARTESIAN_POINT('', (-39.8910444386015, -29.8910444386015, 13.3158334499533));
#282 = CARTESIAN_POINT('', (-39.8671540247909, -29.8671540247909, 13.459104102514));
#283 = CARTESIAN_POINT('', (-39.8394416246312, -29.8394416246313, 13.6012003516969));
#284 = CARTESIAN_POINT('', (-39.8081297841546, -29.8081297841546, 13.7415824051125));
#285 = CARTESIAN_POINT('', (-39.7768499661459, -29.7768499661459, 13.8818208904806));
#286 = CARTESIAN_POINT('', (-39.7419377870444, -29.7419377870445, 14.0205338927938));
#287 = CARTESIAN_POINT('', (-39.7036523275021, -29.7036523275021, 14.1572530720736));
#288 = CARTESIAN_POINT('', (-39.6460995158092, -29.6460995158092, 14.3627768733802));
#289 = CARTESIAN_POINT('', (-39.5807858701311, -29.5807858701311, 14.5642448254615));
#290 = CARTESIAN_POINT('', (-39.5086835020236, -29.5086835020236, 14.7603753488321));
#291 = CARTESIAN_POINT('', (-39.4367332671052, -29.4367332671052, 14.9560920444354));
#292 = CARTESIAN_POINT('', (-39.3578534396469, -29.3578534396469, 15.146976001871));
#293 = CARTESIAN_POINT('', (-39.2730389251327, -29.2730389251327, 15.3321021583237));
#294 = CARTESIAN_POINT('', (-39.188382905408, -29.188382905408, 15.516882365367));
#295 = CARTESIAN_POINT('', (-39.0976396975996, -29.0976396975996, 15.6963218901985));
#296 = CARTESIAN_POINT('', (-39.0017636559399, -29.0017636559399, 15.8697940134276));
#297 = CARTESIAN_POINT('', (-38.9060418939857, -28.9060418939857, 16.0429869925909));
#298 = CARTESIAN_POINT('', (-38.80503270558, -28.80503270558, 16.2105507839475));
#299 = CARTESIAN_POINT('', (-38.699614058076, -28.699614058076, 16.372090057722));
#300 = CARTESIAN_POINT('', (-38.5943389533614, -28.5943389533614, 16.5334093723289));
#301 = CARTESIAN_POINT('', (-38.4845041645357, -28.4845041645357, 16.6889752202467));
#302 = CARTESIAN_POINT('', (-38.3708963274721, -28.3708963274721, 16.8385617681913));
#303 = CARTESIAN_POINT('', (-38.2574182723275, -28.2574182723275, 16.9879774333012));
#304 = CARTESIAN_POINT('', (-38.1400250317768, -28.1400250317768, 17.1316297903778));
#305 = CARTESIAN_POINT('', (-38.0194104280159, -28.0194104280159, 17.2694115515011));
#306 = CARTESIAN_POINT('', (-37.8989112768259, -27.8989112768259, 17.4070614276118));
#307 = CARTESIAN_POINT('', (-37.7750583960095, -27.7750583960095, 17.5390126054999));
#308 = CARTESIAN_POINT('', (-37.6484587986079, -27.6484587986079, 17.6652372589706));
#309 = CARTESIAN_POINT('', (-37.4587820894116, -27.4587820894116, 17.8543522117918));
#310 = CARTESIAN_POINT('', (-37.2626040019042, -27.2626040019042, 18.0309482544747));
#311 = CARTESIAN_POINT('', (-37.0616531512097, -27.0616531512097, 18.1951325552283));
#312 = CARTESIAN_POINT('', (-36.8609976526153, -26.8609976526153, 18.3590755423579));
#313 = CARTESIAN_POINT('', (-36.6552071419471, -26.6552071419471, 18.5109564407693));
#314 = CARTESIAN_POINT('', (-36.4456952014035, -26.4456952014035, 18.6509994870108));
#315 = CARTESIAN_POINT('', (-36.2364321146204, -26.2364321146204, 18.7908761931449));
#316 = CARTESIAN_POINT('', (-36.0231251774145, -26.0231251774145, 18.9191674361369));
#317 = CARTESIAN_POINT('', (-35.8069461556403, -25.8069461556403, 19.0361325291708));
#318 = CARTESIAN_POINT('', (-35.5909843182475, -25.5909843182475, 19.1529801131552));
#319 = CARTESIAN_POINT('', (-35.3718607283222, -25.3718607283222, 19.2586855655565));
#320 = CARTESIAN_POINT('', (-35.1505657272878, -25.1505657272878, 19.3534981878042));
#321 = CARTESIAN_POINT('', (-34.929468892813, -24.929468892813, 19.4482259066827));
#322 = CARTESIAN_POINT('', (-34.7059367411976, -24.7059367411976, 19.5321957364728));
#323 = CARTESIAN_POINT('', (-34.4808263210678, -24.4808263210678, 19.605622970191));
#324 = CARTESIAN_POINT('', (-33.9791582940658, -23.9791582940658, 19.7692586448363));
#325 = CARTESIAN_POINT('', (-33.4678130325415, -23.4678130325415, 19.8811474718634));
#326 = CARTESIAN_POINT('', (-32.9548240649292, -22.9548240649292, 19.9428150554468));
#327 = CARTESIAN_POINT('', (-32.6374087791317, -22.6374087791318, 19.9809722769533));
#328 = CARTESIAN_POINT('', (-32.3185599636401, -22.3185599636401, 20.));
#329 = CARTESIAN_POINT('', (-32., -22., 20.));
#330 = ORIENTED_EDGE('', *, *, #331, .T.);
#331 = EDGE_CURVE('', #269, #174, #332, .T.);
#332 = B_SPLINE_CURVE_WITH_KNOTS('', 1, (#333, #334), .UNSPECIFIED., .F., .U., (2, 2), (0.316666666666667, 0.683333333333333), .UNSPECIFIED.);
#333 = CARTESIAN_POINT('', (-32., -22., 20.));
#334 = CARTESIAN_POINT('', (-32., 22., 20.));
#335 = ORIENTED_EDGE('', *, *, #173, .F.);
#336 = (
   BOUNDED_SURFACE ()
   B_SPLINE_SURFACE (2, 1, ((#337, #338), (#339, #340), (#341, #342)), .UNSPECIFIED., .F., .F., .U.)
   B_SPLINE_SURFACE_WITH_KNOTS ((3, 3), (2, 2), (0., 1.), (0.25, 0.75), .UNSPECIFIED.)
   GEOMETRIC_REPRESENTATION_ITEM ()
   RATIONAL_B_SPLINE_SURFACE (((1., 1.), (0.707106781186546, 0.707106781186546), (1., 1.)))
   REPRESENTATION_ITEM ('')
   SURFACE ()
);
#337 = CARTESIAN_POINT('', (-40., -30., 12.));
#338 = CARTESIAN_POINT('', (-40., 30., 12.));
#339 = CARTESIAN_POINT('', (-40., -30., 20.));
#340 = CARTESIAN_POINT('', (-40., 30., 20.));
#341 = CARTESIAN_POINT('', (-32., -30., 20.));
#342 = CARTESIAN_POINT('', (-32., 30., 20.));
#343 = ADVANCED_FACE('', (#344), #358, .T.);
#344 = FACE_OUTER_BOUND('', #345, .T.);
#345 = EDGE_LOOP('', (#346, #351, #352, #357));
#346 = ORIENTED_EDGE('', *, *, #347, .F.);
#347 = EDGE_CURVE('', #269, #8, #348, .T.);
#348 = B_SPLINE_CURVE_WITH_KNOTS('', 1, (#349, #350), .UNSPECIFIED., .F., .U., (2, 2), (0.3, 0.7), .UNSPECIFIED.);
#349 = CARTESIAN_POINT('', (-32., -22., 20.));
#350 = CARTESIAN_POINT('', (32., -22., 20.));
#351 = ORIENTED_EDGE('', *, *, #268, .F.);
#352 = ORIENTED_EDGE('', *, *, #353, .T.);
#353 = EDGE_CURVE('', #262, #17, #354, .T.);
#354 = B_SPLINE_CURVE_WITH_KNOTS('', 1, (#355, #356), .UNSPECIFIED., .F., .U., (2, 2), (0.25, 0.75), .UNSPECIFIED.);
#355 = CARTESIAN_POINT('', (-40., -30., 12.));
#356 = CARTESIAN_POINT('', (40., -30., 12.));
#357 = ORIENTED_EDGE('', *, *, #16, .T.);
#358 = (
   BOUNDED_SURFACE ()
   B_SPLINE_SURFACE (2, 1, ((#359, #360), (#361, #362), (#363, #364)), .UNSPECIFIED., .F., .F., .U.)
   B_SPLINE_SURFACE_WITH_KNOTS ((3, 3), (2, 2), (0., 1.), (0.25, 0.75), .UNSPECIFIED.)
   GEOMETRIC_REPRESENTATION_ITEM ()
   RATIONAL_B_SPLINE_SURFACE (((1., 1.), (0.707106781186548, 0.707106781186548), (1., 1.)))
   REPRESENTATION_ITEM ('')
   SURFACE ()
);
#359 = CARTESIAN_POINT('', (-40., -22., 20.));
#360 = CARTESIAN_POINT('', (40., -22., 20.));
#361 = CARTESIAN_POINT('', (-40., -30., 20.));
#362 = CARTESIAN_POINT('', (40., -30., 20.));
#363 = CARTESIAN_POINT('', (-40., -30., 12.));
#364 = CARTESIAN_POINT('', (40., -30., 12.));
#365 = ADVANCED_FACE('', (#366), #396, .T.);
#366 = FACE_OUTER_BOUND('', #367, .T.);
#367 = EDGE_LOOP('', (#368, #377, #384, #391));
#368 = ORIENTED_EDGE('', *, *, #369, .T.);
#369 = EDGE_CURVE('', #370, #372, #374, .T.);
#370 = VERTEX_POINT('', #371);
#371 = CARTESIAN_POINT('', (-40., -30., -20.));
#372 = VERTEX_POINT('', #373);
#373 = CARTESIAN_POINT('', (-40., 30., -20.));
#374 = B_SPLINE_CURVE_WITH_KNOTS('', 1, (#375, #376), .UNSPECIFIED., .F., .U., (2, 2), (0., 60.), .UNSPECIFIED.);
#375 = CARTESIAN_POINT('', (-40., -30., -20.));
#376 = CARTESIAN_POINT('', (-40., 30., -20.));
#377 = ORIENTED_EDGE('', *, *, #378, .T.);
#378 = EDGE_CURVE('', #372, #379, #381, .T.);
#379 = VERTEX_POINT('', #380);
#380 = CARTESIAN_POINT('', (40., 30., -20.));
#381 = B_SPLINE_CURVE_WITH_KNOTS('', 1, (#382, #383), .UNSPECIFIED., .F., .U., (2, 2), (0., 80.), .UNSPECIFIED.);
#382 = CARTESIAN_POINT('', (-40., 30., -20.));
#383 = CARTESIAN_POINT('', (40., 30., -20.));
#384 = ORIENTED_EDGE('', *, *, #385, .F.);
#385 = EDGE_CURVE('', #386, #379, #388, .T.);
#386 = VERTEX_POINT('', #387);
#387 = CARTESIAN_POINT('', (40., -30., -20.));
#388 = B_SPLINE_CURVE_WITH_KNOTS('', 1, (#389, #390), .UNSPECIFIED., .F., .U., (2, 2), (0., 60.), .UNSPECIFIED.);
#389 = CARTESIAN_POINT('', (40., -30., -20.));
#390 = CARTESIAN_POINT('', (40., 30., -20.));
#391 = ORIENTED_EDGE('', *, *, #392, .F.);
#392 = EDGE_CURVE('', #370, #386, #393, .T.);
#393 = B_SPLINE_CURVE_WITH_KNOTS('', 1, (#394, #395), .UNSPECIFIED., .F., .U., (2, 2), (0., 80.), .UNSPECIFIED.);
#394 = CARTESIAN_POINT('', (-40., -30., -20.));
#395 = CARTESIAN_POINT('', (40., -30., -20.));
#396 = B_SPLINE_SURFACE_WITH_KNOTS('', 1, 1, ((#397, #398), (#399, #400)), .UNSPECIFIED., .F., .F., .U., (2, 2), (2, 2), (0., 60.), (0., 80.), .UNSPECIFIED.);
#397 = CARTESIAN_POINT('', (-40., -30., -20.));
#398 = CARTESIAN_POINT('', (40., -30., -20.));
#399 = CARTESIAN_POINT('', (-40., 30., -20.));
#400 = CARTESIAN_POINT('', (40., 30., -20.));
#401 = ADVANCED_FACE('', (#402), #416, .T.);
#402 = FACE_OUTER_BOUND('', #403, .T.);
#403 = EDGE_LOOP('', (#404, #405, #410, #411));
#404 = ORIENTED_EDGE('', *, *, #79, .F.);
#405 = ORIENTED_EDGE('', *, *, #406, .F.);
#406 = EDGE_CURVE('', #386, #17, #407, .T.);
#407 = B_SPLINE_CURVE_WITH_KNOTS('', 1, (#408, #409), .UNSPECIFIED., .F., .U., (2, 2), (0., 32.), .UNSPECIFIED.);
#408 = CARTESIAN_POINT('', (40., -30., -20.));
#409 = CARTESIAN_POINT('', (40., -30., 12.));
#410 = ORIENTED_EDGE('', *, *, #385, .T.);
#411 = ORIENTED_EDGE('', *, *, #412, .T.);
#412 = EDGE_CURVE('', #379, #80, #413, .T.);
#413 = B_SPLINE_CURVE_WITH_KNOTS('', 1, (#414, #415), .UNSPECIFIED., .F., .U., (2, 2), (0., 32.), .UNSPECIFIED.);
#414 = CARTESIAN_POINT('', (40., 30., -20.));
#415 = CARTESIAN_POINT('', (40., 30., 12.));
#416 = B_SPLINE_SURFACE_WITH_KNOTS('', 1, 1, ((#417, #418), (#419, #420)), .UNSPECIFIED., .F., .F., .U., (2, 2), (2, 2), (0., 60.), (0., 32.), .UNSPECIFIED.);
#417 = CARTESIAN_POINT('', (40., -30., -20.));
#418 = CARTESIAN_POINT('', (40., -30., 12.));
#419 = CARTESIAN_POINT('', (40., 30., -20.));
#420 = CARTESIAN_POINT('', (40., 30., 12.));
#421 = ADVANCED_FACE('', (#422), #432, .T.);
#422 = FACE_OUTER_BOUND('', #423, .T.);
#423 = EDGE_LOOP('', (#424, #425, #430, #431));
#424 = ORIENTED_EDGE('', *, *, #353, .F.);
#425 = ORIENTED_EDGE('', *, *, #426, .F.);
#426 = EDGE_CURVE('', #370, #262, #427, .T.);
#427 = B_SPLINE_CURVE_WITH_KNOTS('', 1, (#428, #429), .UNSPECIFIED., .F., .U., (2, 2), (0., 32.), .UNSPECIFIED.);
#428 = CARTESIAN_POINT('', (-40., -30., -20.));
#429 = CARTESIAN_POINT('', (-40., -30., 12.));
#430 = ORIENTED_EDGE('', *, *, #392, .T.);
#431 = ORIENTED_EDGE('', *, *, #406, .T.);
#432 = B_SPLINE_SURFACE_WITH_KNOTS('', 1, 1, ((#433, #434), (#435, #436)), .UNSPECIFIED., .F., .F., .U., (2, 2), (2, 2), (0., 80.), (0., 32.), .UNSPECIFIED.);
#433 = CARTESIAN_POINT('', (-40., -30., -20.));
#434 = CARTESIAN_POINT('', (-40., -30., 12.));
#435 = CARTESIAN_POINT('', (40., -30., -20.));
#436 = CARTESIAN_POINT('', (40., -30., 12.));
#437 = ADVANCED_FACE('', (#438), #448, .T.);
#438 = FACE_OUTER_BOUND('', #439, .T.);
#439 = EDGE_LOOP('', (#440, #441, #442, #443));
#440 = ORIENTED_EDGE('', *, *, #166, .T.);
#441 = ORIENTED_EDGE('', *, *, #412, .F.);
#442 = ORIENTED_EDGE('', *, *, #378, .F.);
#443 = ORIENTED_EDGE('', *, *, #444, .T.);
#444 = EDGE_CURVE('', #372, #167, #445, .T.);
#445 = B_SPLINE_CURVE_WITH_KNOTS('', 1, (#446, #447), .UNSPECIFIED., .F., .U., (2, 2), (0., 32.), .UNSPECIFIED.);
#446 = CARTESIAN_POINT('', (-40., 30., -20.));
#447 = CARTESIAN_POINT('', (-40., 30., 12.));
#448 = B_SPLINE_SURFACE_WITH_KNOTS('', 1, 1, ((#449, #450), (#451, #452)), .UNSPECIFIED., .F., .F., .U., (2, 2), (2, 2), (0., 32.), (0., 80.), .UNSPECIFIED.);
#449 = CARTESIAN_POINT('', (-40., 30., -20.));
#450 = CARTESIAN_POINT('', (40., 30., -20.));
#451 = CARTESIAN_POINT('', (-40., 30., 12.));
#452 = CARTESIAN_POINT('', (40., 30., 12.));
#453 = ADVANCED_FACE('', (#454), #460, .T.);
#454 = FACE_OUTER_BOUND('', #455, .T.);
#455 = EDGE_LOOP('', (#456, #457, #458, #459));
#456 = ORIENTED_EDGE('', *, *, #261, .T.);
#457 = ORIENTED_EDGE('', *, *, #444, .F.);
#458 = ORIENTED_EDGE('', *, *, #369, .F.);
#459 = ORIENTED_EDGE('', *, *, #426, .T.);
#460 = B_SPLINE_SURFACE_WITH_KNOTS('', 1, 1, ((#461, #462), (#463, #464)), .UNSPECIFIED., .F., .F., .U., (2, 2), (2, 2), (0., 32.), (0., 60.), .UNSPECIFIED.);
#461 = CARTESIAN_POINT('', (-40., -30., -20.));
#462 = CARTESIAN_POINT('', (-40., 30., -20.));
#463 = CARTESIAN_POINT('', (-40., -30., 12.));
#464 = CARTESIAN_POINT('', (-40., 30., 12.));
#465 = ADVANCED_FACE('', (#466), #472, .T.);
#466 = FACE_OUTER_BOUND('', #467, .T.);
#467 = EDGE_LOOP('', (#468, #469, #470, #471));
#468 = ORIENTED_EDGE('', *, *, #245, .F.);
#469 = ORIENTED_EDGE('', *, *, #331, .F.);
#470 = ORIENTED_EDGE('', *, *, #347, .T.);
#471 = ORIENTED_EDGE('', *, *, #7, .T.);
#472 = B_SPLINE_SURFACE_WITH_KNOTS('', 1, 1, ((#473, #474), (#475, #476)), .UNSPECIFIED., .F., .F., .U., (2, 2), (2, 2), (8., 72.), (8., 52.), .UNSPECIFIED.);
#473 = CARTESIAN_POINT('', (-32., -22., 20.));
#474 = CARTESIAN_POINT('', (-32., 22., 20.));
#475 = CARTESIAN_POINT('', (32., -22., 20.));
#476 = CARTESIAN_POINT('', (32., 22., 20.));
#477 = DRAUGHTING_MODEL('', (#485), #488);
#478 = PRESENTATION_STYLE_ASSIGNMENT((#479));
#479 = SURFACE_STYLE_USAGE(.POSITIVE., #480);
#480 = SURFACE_SIDE_STYLE('', (#481));
#481 = SURFACE_STYLE_FILL_AREA(#482);
#482 = FILL_AREA_STYLE('', (#483));
#483 = FILL_AREA_STYLE_COLOUR('', #484);
#484 = COLOUR_RGB('', 0.50196078431373, 0.50196078431373, 0.50196078431373);
#485 = STYLED_ITEM('', (#478), #1);
#486 = CARTESIAN_POINT('Origin', (0., 0., 0.));
#487 = GEOMETRIC_SET('', (#486));
#488 = (
   GEOMETRIC_REPRESENTATION_CONTEXT (3)
   GLOBAL_UNCERTAINTY_ASSIGNED_CONTEXT ((#490))
   GLOBAL_UNIT_ASSIGNED_CONTEXT ((#489, #491, #492))
   REPRESENTATION_CONTEXT ('', '3D')
);
#489 = (
   LENGTH_UNIT ()
   NAMED_UNIT (*)
   SI_UNIT (.MILLI., .METRE.)
);
#490 = UNCERTAINTY_MEASURE_WITH_UNIT(LENGTH_MEASURE(1.E-6), #489, 'DISTANCE_ACCURACY_VALUE', '');
#491 = (
   NAMED_UNIT (*)
   SI_UNIT ($, .STERADIAN.)
   SOLID_ANGLE_UNIT ()
);
#492 = (
   NAMED_UNIT (*)
   PLANE_ANGLE_UNIT ()
   SI_UNIT ($, .RADIAN.)
);
#493 = SHAPE_REPRESENTATION('', (#508), #488);
#494 = PRODUCT_DEFINITION_SHAPE('', '', #495);
#495 = PRODUCT_DEFINITION('', '', #498, #502);
#496 = APPLICATION_CONTEXT('configuration controlled 3D designs of mechanical parts and assemblies');
#497 = APPLICATION_PROTOCOL_DEFINITION('International Standard', 'automotive_design', 2002, #496);
#498 = PRODUCT_DEFINITION_FORMATION_WITH_SPECIFIED_SOURCE('', '', #499, .NOT_KNOWN.);
#499 = PRODUCT('MultiEdgeFix', 'MultiEdgeFix', '', (#500));
#500 = PRODUCT_CONTEXT('', #496, 'mechanical');
#501 = PRODUCT_RELATED_PRODUCT_CATEGORY('detail', '', (#499));
#502 = PRODUCT_DEFINITION_CONTEXT('part definition', #496, 'design');
#503 = SHAPE_DEFINITION_REPRESENTATION(#494, #493);
#504 = SHAPE_REPRESENTATION_RELATIONSHIP('', '', #493, #505);
#505 = SHAPE_REPRESENTATION('', (#487), #488);
#506 = SHAPE_REPRESENTATION_RELATIONSHIP('', '', #493, #507);
#507 = ADVANCED_BREP_SHAPE_REPRESENTATION('', (#1), #488);
#508 = AXIS2_PLACEMENT_3D('', #509, #510, #511);
#509 = CARTESIAN_POINT('', (0., 0., 0.));
#510 = DIRECTION('', (0., 0., 1.));
#511 = DIRECTION('', (1., 0., 0.));
ENDSEC;
END-ISO-10303-21;
