ISO-10303-21;
HEADER;
FILE_DESCRIPTION(('STEP'), '1');
FILE_NAME('CylFillet', '2026-04-15T15:13:47', (''), (''), 'Express 3.1.2.0', 'Express Tool', 'Unknown');
FILE_SCHEMA(('AUTOMOTIVE_DESIGN'));
ENDSEC;

DATA;
#1 = MANIFOLD_SOLID_BREP('Solid', #2);
#2 = CLOSED_SHELL('', (#3, #69, #78, #121, #174));
#3 = ADVANCED_FACE('', (#4), #41, .T.);
#4 = FACE_OUTER_BOUND('', #5, .T.);
#5 = EDGE_LOOP('', (#6, #20, #28, #40));
#6 = ORIENTED_EDGE('', *, *, #7, .T.);
#7 = EDGE_CURVE('', #8, #8, #10, .T.);
#8 = VERTEX_POINT('', #9);
#9 = CARTESIAN_POINT('', (20., 0., 22.));
#10 = (
   BOUNDED_CURVE ()
   B_SPLINE_CURVE (2, (#11, #12, #13, #14, #15, #16, #17, #18, #19), .UNSPECIFIED., .T., .U.)
   B_SPLINE_CURVE_WITH_KNOTS ((3, 2, 2, 2, 3), (0., 0.25, 0.5, 0.75, 1.), .UNSPECIFIED.)
   CURVE ()
   GEOMETRIC_REPRESENTATION_ITEM ()
   RATIONAL_B_SPLINE_CURVE ((1., 0.707106781186548, 1., 0.707106781186548, 1., 0.707106781186548, 1., 0.707106781186548, 1.))
   REPRESENTATION_ITEM ('')
);
#11 = CARTESIAN_POINT('', (20., 0., 22.));
#12 = CARTESIAN_POINT('', (20., 20., 22.));
#13 = CARTESIAN_POINT('', (1.22464679914735E-15, 20., 22.));
#14 = CARTESIAN_POINT('', (-20., 20., 22.));
#15 = CARTESIAN_POINT('', (-20., 2.44929359829471E-15, 22.));
#16 = CARTESIAN_POINT('', (-20., -20., 22.));
#17 = CARTESIAN_POINT('', (-3.67394039744206E-15, -20., 22.));
#18 = CARTESIAN_POINT('', (20., -20., 22.));
#19 = CARTESIAN_POINT('', (20., 0., 22.));
#20 = ORIENTED_EDGE('', *, *, #21, .T.);
#21 = EDGE_CURVE('', #8, #22, #24, .T.);
#22 = VERTEX_POINT('', #23);
#23 = CARTESIAN_POINT('', (12., -3.5527136788005E-15, 30.));
#24 = (
   BOUNDED_CURVE ()
   B_SPLINE_CURVE (2, (#25, #26, #27), .UNSPECIFIED., .F., .U.)
   B_SPLINE_CURVE_WITH_KNOTS ((3, 3), (0., 1.), .UNSPECIFIED.)
   CURVE ()
   GEOMETRIC_REPRESENTATION_ITEM ()
   RATIONAL_B_SPLINE_CURVE ((1., 0.707106781186548, 1.))
   REPRESENTATION_ITEM ('')
);
#25 = CARTESIAN_POINT('', (20., 0., 22.));
#26 = CARTESIAN_POINT('', (20., -2.81282503875185E-15, 30.));
#27 = CARTESIAN_POINT('', (12., -3.5527136788005E-15, 30.));
#28 = ORIENTED_EDGE('', *, *, #29, .F.);
#29 = EDGE_CURVE('', #22, #22, #30, .T.);
#30 = (
   BOUNDED_CURVE ()
   B_SPLINE_CURVE (2, (#31, #32, #33, #34, #35, #36, #37, #38, #39), .UNSPECIFIED., .T., .U.)
   B_SPLINE_CURVE_WITH_KNOTS ((3, 2, 2, 2, 3), (0., 0.25, 0.5, 0.75, 1.), .UNSPECIFIED.)
   CURVE ()
   GEOMETRIC_REPRESENTATION_ITEM ()
   RATIONAL_B_SPLINE_CURVE ((1., 0.707106781186548, 1., 0.707106781186548, 1., 0.707106781186548, 1., 0.707106781186548, 1.))
   REPRESENTATION_ITEM ('')
);
#31 = CARTESIAN_POINT('', (12., -3.5527136788005E-15, 30.));
#32 = CARTESIAN_POINT('', (12., 12., 30.));
#33 = CARTESIAN_POINT('', (4.28750175828891E-15, 12., 30.));
#34 = CARTESIAN_POINT('', (-12., 12., 30.));
#35 = CARTESIAN_POINT('', (-12., 5.02228983777733E-15, 30.));
#36 = CARTESIAN_POINT('', (-12., -12., 30.));
#37 = CARTESIAN_POINT('', (-5.75707791726574E-15, -12., 30.));
#38 = CARTESIAN_POINT('', (12., -12., 30.));
#39 = CARTESIAN_POINT('', (12., -3.5527136788005E-15, 30.));
#40 = ORIENTED_EDGE('', *, *, #21, .F.);
#41 = (
   BOUNDED_SURFACE ()
   B_SPLINE_SURFACE (2, 2, ((#42, #43, #44), (#45, #46, #47), (#48, #49, #50), (#51, #52, #53), (#54, #55, #56), (#57, #58, #59), (#60, #61, #62), (#63, #64, #65), (#66, #67, #68)), .UNSPECIFIED., .T., .F., .U.)
   B_SPLINE_SURFACE_WITH_KNOTS ((3, 2, 2, 2, 3), (3, 3), (0., 0.25, 0.5, 0.75, 1.), (0., 1.), .UNSPECIFIED.)
   GEOMETRIC_REPRESENTATION_ITEM ()
   RATIONAL_B_SPLINE_SURFACE (((1., 0.707106781186548, 1.), (0.707106781186548, 0.5, 0.707106781186548), (1., 0.707106781186548, 1.), (0.707106781186548, 0.5, 0.707106781186548), (1., 0.707106781186548, 1.), (0.707106781186548, 0.5, 0.707106781186548), (1., 0.707106781186548, 1.), (0.707106781186548, 0.5, 0.707106781186548), (1., 0.707106781186548, 1.)))
   REPRESENTATION_ITEM ('')
   SURFACE ()
);
#42 = CARTESIAN_POINT('', (20., 0., 22.));
#43 = CARTESIAN_POINT('', (20., -2.81282503875185E-15, 30.));
#44 = CARTESIAN_POINT('', (12., -3.5527136788005E-15, 30.));
#45 = CARTESIAN_POINT('', (20., 20., 22.));
#46 = CARTESIAN_POINT('', (20., 20., 30.));
#47 = CARTESIAN_POINT('', (12., 12., 30.));
#48 = CARTESIAN_POINT('', (1.22464679914735E-15, 20., 22.));
#49 = CARTESIAN_POINT('', (4.0374718378992E-15, 20., 30.));
#50 = CARTESIAN_POINT('', (4.28750175828891E-15, 12., 30.));
#51 = CARTESIAN_POINT('', (-20., 20., 22.));
#52 = CARTESIAN_POINT('', (-20., 20., 30.));
#53 = CARTESIAN_POINT('', (-12., 12., 30.));
#54 = CARTESIAN_POINT('', (-20., 2.44929359829471E-15, 22.));
#55 = CARTESIAN_POINT('', (-20., 5.26211863704656E-15, 30.));
#56 = CARTESIAN_POINT('', (-12., 5.02228983777733E-15, 30.));
#57 = CARTESIAN_POINT('', (-20., -20., 22.));
#58 = CARTESIAN_POINT('', (-20., -20., 30.));
#59 = CARTESIAN_POINT('', (-12., -12., 30.));
#60 = CARTESIAN_POINT('', (-3.67394039744206E-15, -20., 22.));
#61 = CARTESIAN_POINT('', (-6.48676543619391E-15, -20., 30.));
#62 = CARTESIAN_POINT('', (-5.75707791726574E-15, -12., 30.));
#63 = CARTESIAN_POINT('', (20., -20., 22.));
#64 = CARTESIAN_POINT('', (20., -20., 30.));
#65 = CARTESIAN_POINT('', (12., -12., 30.));
#66 = CARTESIAN_POINT('', (20., 0., 22.));
#67 = CARTESIAN_POINT('', (20., -2.81282503875185E-15, 30.));
#68 = CARTESIAN_POINT('', (12., -3.5527136788005E-15, 30.));
#69 = ADVANCED_FACE('', (#70), #73, .T.);
#70 = FACE_OUTER_BOUND('', #71, .T.);
#71 = EDGE_LOOP('', (#72));
#72 = ORIENTED_EDGE('', *, *, #29, .T.);
#73 = B_SPLINE_SURFACE_WITH_KNOTS('', 1, 1, ((#74, #75), (#76, #77)), .UNSPECIFIED., .F., .F., .U., (2, 2), (2, 2), (0.307152696040032, 0.692847303959968), (0.307152696040032, 0.692847303959968), .UNSPECIFIED.);
#74 = CARTESIAN_POINT('', (12., -12., 30.));
#75 = CARTESIAN_POINT('', (-12., -12., 30.));
#76 = CARTESIAN_POINT('', (12., 12., 30.));
#77 = CARTESIAN_POINT('', (-12., 12., 30.));
#78 = ADVANCED_FACE('', (#79), #102, .T.);
#79 = FACE_OUTER_BOUND('', #80, .T.);
#80 = EDGE_LOOP('', (#81, #82, #89, #101));
#81 = ORIENTED_EDGE('', *, *, #7, .F.);
#82 = ORIENTED_EDGE('', *, *, #83, .F.);
#83 = EDGE_CURVE('', #84, #8, #86, .T.);
#84 = VERTEX_POINT('', #85);
#85 = CARTESIAN_POINT('', (20., 0., -22.));
#86 = B_SPLINE_CURVE_WITH_KNOTS('', 1, (#87, #88), .UNSPECIFIED., .F., .U., (2, 2), (8., 52.), .UNSPECIFIED.);
#87 = CARTESIAN_POINT('', (20., 0., -22.));
#88 = CARTESIAN_POINT('', (20., 0., 22.));
#89 = ORIENTED_EDGE('', *, *, #90, .T.);
#90 = EDGE_CURVE('', #84, #84, #91, .T.);
#91 = (
   BOUNDED_CURVE ()
   B_SPLINE_CURVE (2, (#92, #93, #94, #95, #96, #97, #98, #99, #100), .UNSPECIFIED., .T., .U.)
   B_SPLINE_CURVE_WITH_KNOTS ((3, 2, 2, 2, 3), (0., 0.25, 0.5, 0.75, 1.), .UNSPECIFIED.)
   CURVE ()
   GEOMETRIC_REPRESENTATION_ITEM ()
   RATIONAL_B_SPLINE_CURVE ((1., 0.707106781186548, 1., 0.707106781186548, 1., 0.707106781186548, 1., 0.707106781186548, 1.))
   REPRESENTATION_ITEM ('')
);
#92 = CARTESIAN_POINT('', (20., 0., -22.));
#93 = CARTESIAN_POINT('', (20., 20., -22.));
#94 = CARTESIAN_POINT('', (1.22464679914735E-15, 20., -22.));
#95 = CARTESIAN_POINT('', (-20., 20., -22.));
#96 = CARTESIAN_POINT('', (-20., 2.44929359829471E-15, -22.));
#97 = CARTESIAN_POINT('', (-20., -20., -22.));
#98 = CARTESIAN_POINT('', (-3.67394039744206E-15, -20., -22.));
#99 = CARTESIAN_POINT('', (20., -20., -22.));
#100 = CARTESIAN_POINT('', (20., 0., -22.));
#101 = ORIENTED_EDGE('', *, *, #83, .T.);
#102 = (
   BOUNDED_SURFACE ()
   B_SPLINE_SURFACE (2, 1, ((#103, #104), (#105, #106), (#107, #108), (#109, #110), (#111, #112), (#113, #114), (#115, #116), (#117, #118), (#119, #120)), .UNSPECIFIED., .T., .F., .U.)
   B_SPLINE_SURFACE_WITH_KNOTS ((3, 2, 2, 2, 3), (2, 2), (0., 31.4159265358979, 62.8318530717959, 94.2477796076938, 125.663706143592), (8., 52.), .UNSPECIFIED.)
   GEOMETRIC_REPRESENTATION_ITEM ()
   RATIONAL_B_SPLINE_SURFACE (((1., 1.), (0.707106781186548, 0.707106781186548), (1., 1.), (0.707106781186548, 0.707106781186548), (1., 1.), (0.707106781186548, 0.707106781186548), (1., 1.), (0.707106781186548, 0.707106781186548), (1., 1.)))
   REPRESENTATION_ITEM ('')
   SURFACE ()
);
#103 = CARTESIAN_POINT('', (20., 0., -22.));
#104 = CARTESIAN_POINT('', (20., 0., 22.));
#105 = CARTESIAN_POINT('', (20., 20., -22.));
#106 = CARTESIAN_POINT('', (20., 20., 22.));
#107 = CARTESIAN_POINT('', (1.22464679914735E-15, 20., -22.));
#108 = CARTESIAN_POINT('', (1.22464679914735E-15, 20., 22.));
#109 = CARTESIAN_POINT('', (-20., 20., -22.));
#110 = CARTESIAN_POINT('', (-20., 20., 22.));
#111 = CARTESIAN_POINT('', (-20., 2.44929359829471E-15, -22.));
#112 = CARTESIAN_POINT('', (-20., 2.44929359829471E-15, 22.));
#113 = CARTESIAN_POINT('', (-20., -20., -22.));
#114 = CARTESIAN_POINT('', (-20., -20., 22.));
#115 = CARTESIAN_POINT('', (-3.67394039744206E-15, -20., -22.));
#116 = CARTESIAN_POINT('', (-3.67394039744206E-15, -20., 22.));
#117 = CARTESIAN_POINT('', (20., -20., -22.));
#118 = CARTESIAN_POINT('', (20., -20., 22.));
#119 = CARTESIAN_POINT('', (20., 0., -22.));
#120 = CARTESIAN_POINT('', (20., 0., 22.));
#121 = ADVANCED_FACE('', (#122), #146, .T.);
#122 = FACE_OUTER_BOUND('', #123, .T.);
#123 = EDGE_LOOP('', (#124, #138, #144, #145));
#124 = ORIENTED_EDGE('', *, *, #125, .T.);
#125 = EDGE_CURVE('', #126, #126, #128, .T.);
#126 = VERTEX_POINT('', #127);
#127 = CARTESIAN_POINT('', (12., -3.5527136788005E-15, -30.));
#128 = (
   BOUNDED_CURVE ()
   B_SPLINE_CURVE (2, (#129, #130, #131, #132, #133, #134, #135, #136, #137), .UNSPECIFIED., .T., .U.)
   B_SPLINE_CURVE_WITH_KNOTS ((3, 2, 2, 2, 3), (0., 0.25, 0.5, 0.75, 1.), .UNSPECIFIED.)
   CURVE ()
   GEOMETRIC_REPRESENTATION_ITEM ()
   RATIONAL_B_SPLINE_CURVE ((1., 0.707106781186548, 1., 0.707106781186548, 1., 0.707106781186548, 1., 0.707106781186548, 1.))
   REPRESENTATION_ITEM ('')
);
#129 = CARTESIAN_POINT('', (12., -3.5527136788005E-15, -30.));
#130 = CARTESIAN_POINT('', (12., 12., -30.));
#131 = CARTESIAN_POINT('', (4.28750175828891E-15, 12., -30.));
#132 = CARTESIAN_POINT('', (-12., 12., -30.));
#133 = CARTESIAN_POINT('', (-12., 5.02228983777732E-15, -30.));
#134 = CARTESIAN_POINT('', (-12., -12., -30.));
#135 = CARTESIAN_POINT('', (-5.75707791726574E-15, -12., -30.));
#136 = CARTESIAN_POINT('', (12., -12., -30.));
#137 = CARTESIAN_POINT('', (12., -3.5527136788005E-15, -30.));
#138 = ORIENTED_EDGE('', *, *, #139, .F.);
#139 = EDGE_CURVE('', #84, #126, #140, .T.);
#140 = (
   BOUNDED_CURVE ()
   B_SPLINE_CURVE (2, (#141, #142, #143), .UNSPECIFIED., .F., .U.)
   B_SPLINE_CURVE_WITH_KNOTS ((3, 3), (0., 1.), .UNSPECIFIED.)
   CURVE ()
   GEOMETRIC_REPRESENTATION_ITEM ()
   RATIONAL_B_SPLINE_CURVE ((1., 0.707106781186548, 1.))
   REPRESENTATION_ITEM ('')
);
#141 = CARTESIAN_POINT('', (20., 0., -22.));
#142 = CARTESIAN_POINT('', (20., -3.05985712181004E-31, -30.));
#143 = CARTESIAN_POINT('', (12., -3.5527136788005E-15, -30.));
#144 = ORIENTED_EDGE('', *, *, #90, .F.);
#145 = ORIENTED_EDGE('', *, *, #139, .T.);
#146 = (
   BOUNDED_SURFACE ()
   B_SPLINE_SURFACE (2, 2, ((#147, #148, #149), (#150, #151, #152), (#153, #154, #155), (#156, #157, #158), (#159, #160, #161), (#162, #163, #164), (#165, #166, #167), (#168, #169, #170), (#171, #172, #173)), .UNSPECIFIED., .T., .F., .U.)
   B_SPLINE_SURFACE_WITH_KNOTS ((3, 2, 2, 2, 3), (3, 3), (0., 0.25, 0.5, 0.75, 1.), (0., 1.), .UNSPECIFIED.)
   GEOMETRIC_REPRESENTATION_ITEM ()
   RATIONAL_B_SPLINE_SURFACE (((1., 0.707106781186548, 1.), (0.707106781186548, 0.5, 0.707106781186548), (1., 0.707106781186548, 1.), (0.707106781186548, 0.5, 0.707106781186548), (1., 0.707106781186548, 1.), (0.707106781186548, 0.5, 0.707106781186548), (1., 0.707106781186548, 1.), (0.707106781186548, 0.5, 0.707106781186548), (1., 0.707106781186548, 1.)))
   REPRESENTATION_ITEM ('')
   SURFACE ()
);
#147 = CARTESIAN_POINT('', (12., -3.5527136788005E-15, -30.));
#148 = CARTESIAN_POINT('', (20., -3.05985712181004E-31, -30.));
#149 = CARTESIAN_POINT('', (20., 0., -22.));
#150 = CARTESIAN_POINT('', (12., 12., -30.));
#151 = CARTESIAN_POINT('', (20., 20., -30.));
#152 = CARTESIAN_POINT('', (20., 20., -22.));
#153 = CARTESIAN_POINT('', (4.28750175828891E-15, 12., -30.));
#154 = CARTESIAN_POINT('', (1.22464679914735E-15, 20., -30.));
#155 = CARTESIAN_POINT('', (1.22464679914735E-15, 20., -22.));
#156 = CARTESIAN_POINT('', (-12., 12., -30.));
#157 = CARTESIAN_POINT('', (-20., 20., -30.));
#158 = CARTESIAN_POINT('', (-20., 20., -22.));
#159 = CARTESIAN_POINT('', (-12., 5.02228983777732E-15, -30.));
#160 = CARTESIAN_POINT('', (-20., 2.44929359829471E-15, -30.));
#161 = CARTESIAN_POINT('', (-20., 2.44929359829471E-15, -22.));
#162 = CARTESIAN_POINT('', (-12., -12., -30.));
#163 = CARTESIAN_POINT('', (-20., -20., -30.));
#164 = CARTESIAN_POINT('', (-20., -20., -22.));
#165 = CARTESIAN_POINT('', (-5.75707791726574E-15, -12., -30.));
#166 = CARTESIAN_POINT('', (-3.67394039744206E-15, -20., -30.));
#167 = CARTESIAN_POINT('', (-3.67394039744206E-15, -20., -22.));
#168 = CARTESIAN_POINT('', (12., -12., -30.));
#169 = CARTESIAN_POINT('', (20., -20., -30.));
#170 = CARTESIAN_POINT('', (20., -20., -22.));
#171 = CARTESIAN_POINT('', (12., -3.5527136788005E-15, -30.));
#172 = CARTESIAN_POINT('', (20., -3.05985712181004E-31, -30.));
#173 = CARTESIAN_POINT('', (20., 0., -22.));
#174 = ADVANCED_FACE('', (#175), #178, .T.);
#175 = FACE_OUTER_BOUND('', #176, .T.);
#176 = EDGE_LOOP('', (#177));
#177 = ORIENTED_EDGE('', *, *, #125, .F.);
#178 = B_SPLINE_SURFACE_WITH_KNOTS('', 1, 1, ((#179, #180), (#181, #182)), .UNSPECIFIED., .F., .F., .U., (2, 2), (2, 2), (0.307152696040032, 0.692847303959968), (0.307152696040032, 0.692847303959968), .UNSPECIFIED.);
#179 = CARTESIAN_POINT('', (12., -12., -30.));
#180 = CARTESIAN_POINT('', (12., 12., -30.));
#181 = CARTESIAN_POINT('', (-12., -12., -30.));
#182 = CARTESIAN_POINT('', (-12., 12., -30.));
#183 = DRAUGHTING_MODEL('', (#191), #194);
#184 = PRESENTATION_STYLE_ASSIGNMENT((#185));
#185 = SURFACE_STYLE_USAGE(.POSITIVE., #186);
#186 = SURFACE_SIDE_STYLE('', (#187));
#187 = SURFACE_STYLE_FILL_AREA(#188);
#188 = FILL_AREA_STYLE('', (#189));
#189 = FILL_AREA_STYLE_COLOUR('', #190);
#190 = COLOUR_RGB('', 0.50196078431373, 0.50196078431373, 0.50196078431373);
#191 = STYLED_ITEM('', (#184), #1);
#192 = CARTESIAN_POINT('Origin', (0., 0., 0.));
#193 = GEOMETRIC_SET('', (#192));
#194 = (
   GEOMETRIC_REPRESENTATION_CONTEXT (3)
   GLOBAL_UNCERTAINTY_ASSIGNED_CONTEXT ((#196))
   GLOBAL_UNIT_ASSIGNED_CONTEXT ((#195, #197, #198))
   REPRESENTATION_CONTEXT ('', '3D')
);
#195 = (
   LENGTH_UNIT ()
   NAMED_UNIT (*)
   SI_UNIT (.MILLI., .METRE.)
);
#196 = UNCERTAINTY_MEASURE_WITH_UNIT(LENGTH_MEASURE(1.E-6), #195, 'DISTANCE_ACCURACY_VALUE', '');
#197 = (
   NAMED_UNIT (*)
   SI_UNIT ($, .STERADIAN.)
   SOLID_ANGLE_UNIT ()
);
#198 = (
   NAMED_UNIT (*)
   PLANE_ANGLE_UNIT ()
   SI_UNIT ($, .RADIAN.)
);
#199 = SHAPE_REPRESENTATION('', (#214), #194);
#200 = PRODUCT_DEFINITION_SHAPE('', '', #201);
#201 = PRODUCT_DEFINITION('', '', #204, #208);
#202 = APPLICATION_CONTEXT('configuration controlled 3D designs of mechanical parts and assemblies');
#203 = APPLICATION_PROTOCOL_DEFINITION('International Standard', 'automotive_design', 2002, #202);
#204 = PRODUCT_DEFINITION_FORMATION_WITH_SPECIFIED_SOURCE('', '', #205, .NOT_KNOWN.);
#205 = PRODUCT('CylFillet', 'CylFillet', '', (#206));
#206 = PRODUCT_CONTEXT('', #202, 'mechanical');
#207 = PRODUCT_RELATED_PRODUCT_CATEGORY('detail', '', (#205));
#208 = PRODUCT_DEFINITION_CONTEXT('part definition', #202, 'design');
#209 = SHAPE_DEFINITION_REPRESENTATION(#200, #199);
#210 = SHAPE_REPRESENTATION_RELATIONSHIP('', '', #199, #211);
#211 = SHAPE_REPRESENTATION('', (#193), #194);
#212 = SHAPE_REPRESENTATION_RELATIONSHIP('', '', #199, #213);
#213 = ADVANCED_BREP_SHAPE_REPRESENTATION('', (#1), #194);
#214 = AXIS2_PLACEMENT_3D('', #215, #216, #217);
#215 = CARTESIAN_POINT('', (0., 0., 0.));
#216 = DIRECTION('', (0., 0., 1.));
#217 = DIRECTION('', (1., 0., 0.));
ENDSEC;
END-ISO-10303-21;
