ISO-10303-21;
HEADER;
FILE_DESCRIPTION(('STEP'), '1');
FILE_NAME('AllEdgeFillet', '2026-04-15T15:15:50', (''), (''), 'Express 3.1.2.0', 'Express Tool', 'Unknown');
FILE_SCHEMA(('AUTOMOTIVE_DESIGN'));
ENDSEC;

DATA;
#1 = MANIFOLD_SOLID_BREP('Solid', #2);
#2 = CLOSED_SHELL('', (#3, #43, #71, #102, #130, #161, #177, #209, #230, #261, #289, #320, #336, #366, #387, #418, #446, #468, #480, #502, #527, #555, #577, #589, #605, #619));
#3 = ADVANCED_FACE('', (#4), #36, .T.);
#4 = FACE_OUTER_BOUND('', #5, .T.);
#5 = EDGE_LOOP('', (#6, #15, #23, #30));
#6 = ORIENTED_EDGE('', *, *, #7, .F.);
#7 = EDGE_CURVE('', #8, #10, #12, .T.);
#8 = VERTEX_POINT('', #9);
#9 = CARTESIAN_POINT('', (30., -20., 20.));
#10 = VERTEX_POINT('', #11);
#11 = CARTESIAN_POINT('', (30., 20., 20.));
#12 = B_SPLINE_CURVE_WITH_KNOTS('', 1, (#13, #14), .UNSPECIFIED., .F., .U., (2, 2), (0., 1.), .UNSPECIFIED.);
#13 = CARTESIAN_POINT('', (30., -20., 20.));
#14 = CARTESIAN_POINT('', (30., 20., 20.));
#15 = ORIENTED_EDGE('', *, *, #16, .T.);
#16 = EDGE_CURVE('', #8, #17, #19, .T.);
#17 = VERTEX_POINT('', #18);
#18 = CARTESIAN_POINT('', (40., -20., 10.));
#19 = (
   BOUNDED_CURVE ()
   B_SPLINE_CURVE (2, (#20, #21, #22), .UNSPECIFIED., .F., .U.)
   B_SPLINE_CURVE_WITH_KNOTS ((3, 3), (0., 1.), .UNSPECIFIED.)
   CURVE ()
   GEOMETRIC_REPRESENTATION_ITEM ()
   RATIONAL_B_SPLINE_CURVE ((1., 0.707106781186547, 1.))
   REPRESENTATION_ITEM ('')
);
#20 = CARTESIAN_POINT('', (30., -20., 20.));
#21 = CARTESIAN_POINT('', (40., -20., 20.));
#22 = CARTESIAN_POINT('', (40., -20., 10.));
#23 = ORIENTED_EDGE('', *, *, #24, .T.);
#24 = EDGE_CURVE('', #17, #25, #27, .T.);
#25 = VERTEX_POINT('', #26);
#26 = CARTESIAN_POINT('', (40., 20., 10.));
#27 = B_SPLINE_CURVE_WITH_KNOTS('', 1, (#28, #29), .UNSPECIFIED., .F., .U., (2, 2), (0., 1.), .UNSPECIFIED.);
#28 = CARTESIAN_POINT('', (40., -20., 10.));
#29 = CARTESIAN_POINT('', (40., 20., 10.));
#30 = ORIENTED_EDGE('', *, *, #31, .T.);
#31 = EDGE_CURVE('', #25, #10, #32, .T.);
#32 = (
   BOUNDED_CURVE ()
   B_SPLINE_CURVE (2, (#33, #34, #35), .UNSPECIFIED., .F., .U.)
   B_SPLINE_CURVE_WITH_KNOTS ((3, 3), (0., 1.), .UNSPECIFIED.)
   CURVE ()
   GEOMETRIC_REPRESENTATION_ITEM ()
   RATIONAL_B_SPLINE_CURVE ((1., 0.707106781186547, 1.))
   REPRESENTATION_ITEM ('')
);
#33 = CARTESIAN_POINT('', (40., 20., 10.));
#34 = CARTESIAN_POINT('', (40., 20., 20.));
#35 = CARTESIAN_POINT('', (30., 20., 20.));
#36 = (
   BOUNDED_SURFACE ()
   B_SPLINE_SURFACE (2, 1, ((#37, #38), (#39, #40), (#41, #42)), .UNSPECIFIED., .F., .F., .U.)
   B_SPLINE_SURFACE_WITH_KNOTS ((3, 3), (2, 2), (0., 1.), (0., 1.), .UNSPECIFIED.)
   GEOMETRIC_REPRESENTATION_ITEM ()
   RATIONAL_B_SPLINE_SURFACE (((1., 1.), (0.707106781186547, 0.707106781186547), (1., 1.)))
   REPRESENTATION_ITEM ('')
   SURFACE ()
);
#37 = CARTESIAN_POINT('', (30., -20., 20.));
#38 = CARTESIAN_POINT('', (30., 20., 20.));
#39 = CARTESIAN_POINT('', (40., -20., 20.));
#40 = CARTESIAN_POINT('', (40., 20., 20.));
#41 = CARTESIAN_POINT('', (40., -20., 10.));
#42 = CARTESIAN_POINT('', (40., 20., 10.));
#43 = ADVANCED_FACE('', (#44), #61, .T.);
#44 = FACE_OUTER_BOUND('', #45, .T.);
#45 = EDGE_LOOP('', (#46, #54, #55));
#46 = ORIENTED_EDGE('', *, *, #47, .F.);
#47 = EDGE_CURVE('', #17, #48, #50, .T.);
#48 = VERTEX_POINT('', #49);
#49 = CARTESIAN_POINT('', (30., -30., 10.));
#50 = (
   BOUNDED_CURVE ()
   B_SPLINE_CURVE (2, (#51, #52, #53), .UNSPECIFIED., .F., .U.)
   B_SPLINE_CURVE_WITH_KNOTS ((3, 3), (0., 1.), .UNSPECIFIED.)
   CURVE ()
   GEOMETRIC_REPRESENTATION_ITEM ()
   RATIONAL_B_SPLINE_CURVE ((1., 0.707106781186547, 1.))
   REPRESENTATION_ITEM ('')
);
#51 = CARTESIAN_POINT('', (40., -20., 10.));
#52 = CARTESIAN_POINT('', (40., -30., 10.));
#53 = CARTESIAN_POINT('', (30., -30., 10.));
#54 = ORIENTED_EDGE('', *, *, #16, .F.);
#55 = ORIENTED_EDGE('', *, *, #56, .F.);
#56 = EDGE_CURVE('', #48, #8, #57, .T.);
#57 = (
   BOUNDED_CURVE ()
   B_SPLINE_CURVE (2, (#58, #59, #60), .UNSPECIFIED., .F., .U.)
   B_SPLINE_CURVE_WITH_KNOTS ((3, 3), (0., 1.), .UNSPECIFIED.)
   CURVE ()
   GEOMETRIC_REPRESENTATION_ITEM ()
   RATIONAL_B_SPLINE_CURVE ((1., 0.707106781186547, 1.))
   REPRESENTATION_ITEM ('')
);
#58 = CARTESIAN_POINT('', (30., -30., 10.));
#59 = CARTESIAN_POINT('', (30., -30., 20.));
#60 = CARTESIAN_POINT('', (30., -20., 20.));
#61 = (
   BOUNDED_SURFACE ()
   B_SPLINE_SURFACE (2, 2, ((#62, #63, #64), (#65, #66, #67), (#68, #69, #70)), .UNSPECIFIED., .F., .F., .U.)
   B_SPLINE_SURFACE_WITH_KNOTS ((3, 3), (3, 3), (0., 0.907603035157019), (0., 1.), .UNSPECIFIED.)
   GEOMETRIC_REPRESENTATION_ITEM ()
   RATIONAL_B_SPLINE_SURFACE (((1., 0.707106781186547, 1.), (0.707106781186547, 0.499999999999999, 0.707106781186547), (1., 0.707106781186547, 1.)))
   REPRESENTATION_ITEM ('')
   SURFACE ()
);
#62 = CARTESIAN_POINT('', (30., -20., 20.));
#63 = CARTESIAN_POINT('', (40., -20., 20.));
#64 = CARTESIAN_POINT('', (40., -20., 10.));
#65 = CARTESIAN_POINT('', (30., -20., 20.));
#66 = CARTESIAN_POINT('', (40., -30., 20.));
#67 = CARTESIAN_POINT('', (40., -30., 10.));
#68 = CARTESIAN_POINT('', (30., -20., 20.));
#69 = CARTESIAN_POINT('', (30., -30., 20.));
#70 = CARTESIAN_POINT('', (30., -30., 10.));
#71 = ADVANCED_FACE('', (#72), #95, .T.);
#72 = FACE_OUTER_BOUND('', #73, .T.);
#73 = EDGE_LOOP('', (#74, #81, #89, #94));
#74 = ORIENTED_EDGE('', *, *, #75, .F.);
#75 = EDGE_CURVE('', #76, #8, #78, .T.);
#76 = VERTEX_POINT('', #77);
#77 = CARTESIAN_POINT('', (-30., -20., 20.));
#78 = B_SPLINE_CURVE_WITH_KNOTS('', 1, (#79, #80), .UNSPECIFIED., .F., .U., (2, 2), (0., 1.), .UNSPECIFIED.);
#79 = CARTESIAN_POINT('', (-30., -20., 20.));
#80 = CARTESIAN_POINT('', (30., -20., 20.));
#81 = ORIENTED_EDGE('', *, *, #82, .T.);
#82 = EDGE_CURVE('', #76, #83, #85, .T.);
#83 = VERTEX_POINT('', #84);
#84 = CARTESIAN_POINT('', (-30., -30., 10.));
#85 = (
   BOUNDED_CURVE ()
   B_SPLINE_CURVE (2, (#86, #87, #88), .UNSPECIFIED., .F., .U.)
   B_SPLINE_CURVE_WITH_KNOTS ((3, 3), (0., 1.), .UNSPECIFIED.)
   CURVE ()
   GEOMETRIC_REPRESENTATION_ITEM ()
   RATIONAL_B_SPLINE_CURVE ((1., 0.707106781186547, 1.))
   REPRESENTATION_ITEM ('')
);
#86 = CARTESIAN_POINT('', (-30., -20., 20.));
#87 = CARTESIAN_POINT('', (-30., -30., 20.));
#88 = CARTESIAN_POINT('', (-30., -30., 10.));
#89 = ORIENTED_EDGE('', *, *, #90, .T.);
#90 = EDGE_CURVE('', #83, #48, #91, .T.);
#91 = B_SPLINE_CURVE_WITH_KNOTS('', 1, (#92, #93), .UNSPECIFIED., .F., .U., (2, 2), (0., 1.), .UNSPECIFIED.);
#92 = CARTESIAN_POINT('', (-30., -30., 10.));
#93 = CARTESIAN_POINT('', (30., -30., 10.));
#94 = ORIENTED_EDGE('', *, *, #56, .T.);
#95 = (
   BOUNDED_SURFACE ()
   B_SPLINE_SURFACE (2, 1, ((#96, #97), (#98, #99), (#100, #101)), .UNSPECIFIED., .F., .F., .U.)
   B_SPLINE_SURFACE_WITH_KNOTS ((3, 3), (2, 2), (0., 1.), (0., 1.), .UNSPECIFIED.)
   GEOMETRIC_REPRESENTATION_ITEM ()
   RATIONAL_B_SPLINE_SURFACE (((1., 1.), (0.707106781186547, 0.707106781186547), (1., 1.)))
   REPRESENTATION_ITEM ('')
   SURFACE ()
);
#96 = CARTESIAN_POINT('', (-30., -20., 20.));
#97 = CARTESIAN_POINT('', (30., -20., 20.));
#98 = CARTESIAN_POINT('', (-30., -30., 20.));
#99 = CARTESIAN_POINT('', (30., -30., 20.));
#100 = CARTESIAN_POINT('', (-30., -30., 10.));
#101 = CARTESIAN_POINT('', (30., -30., 10.));
#102 = ADVANCED_FACE('', (#103), #120, .T.);
#103 = FACE_OUTER_BOUND('', #104, .T.);
#104 = EDGE_LOOP('', (#105, #113, #114));
#105 = ORIENTED_EDGE('', *, *, #106, .F.);
#106 = EDGE_CURVE('', #83, #107, #109, .T.);
#107 = VERTEX_POINT('', #108);
#108 = CARTESIAN_POINT('', (-40., -20., 10.));
#109 = (
   BOUNDED_CURVE ()
   B_SPLINE_CURVE (2, (#110, #111, #112), .UNSPECIFIED., .F., .U.)
   B_SPLINE_CURVE_WITH_KNOTS ((3, 3), (0., 1.), .UNSPECIFIED.)
   CURVE ()
   GEOMETRIC_REPRESENTATION_ITEM ()
   RATIONAL_B_SPLINE_CURVE ((1., 0.707106781186547, 1.))
   REPRESENTATION_ITEM ('')
);
#110 = CARTESIAN_POINT('', (-30., -30., 10.));
#111 = CARTESIAN_POINT('', (-40., -30., 10.));
#112 = CARTESIAN_POINT('', (-40., -20., 10.));
#113 = ORIENTED_EDGE('', *, *, #82, .F.);
#114 = ORIENTED_EDGE('', *, *, #115, .F.);
#115 = EDGE_CURVE('', #107, #76, #116, .T.);
#116 = (
   BOUNDED_CURVE ()
   B_SPLINE_CURVE (2, (#117, #118, #119), .UNSPECIFIED., .F., .U.)
   B_SPLINE_CURVE_WITH_KNOTS ((3, 3), (0., 1.), .UNSPECIFIED.)
   CURVE ()
   GEOMETRIC_REPRESENTATION_ITEM ()
   RATIONAL_B_SPLINE_CURVE ((1., 0.707106781186547, 1.))
   REPRESENTATION_ITEM ('')
);
#117 = CARTESIAN_POINT('', (-40., -20., 10.));
#118 = CARTESIAN_POINT('', (-40., -20., 20.));
#119 = CARTESIAN_POINT('', (-30., -20., 20.));
#120 = (
   BOUNDED_SURFACE ()
   B_SPLINE_SURFACE (2, 2, ((#121, #122, #123), (#124, #125, #126), (#127, #128, #129)), .UNSPECIFIED., .F., .F., .U.)
   B_SPLINE_SURFACE_WITH_KNOTS ((3, 3), (3, 3), (0., 0.907603035157016), (0., 1.), .UNSPECIFIED.)
   GEOMETRIC_REPRESENTATION_ITEM ()
   RATIONAL_B_SPLINE_SURFACE (((1., 0.707106781186547, 1.), (0.70710678118655, 0.500000000000001, 0.70710678118655), (1., 0.707106781186547, 1.)))
   REPRESENTATION_ITEM ('')
   SURFACE ()
);
#121 = CARTESIAN_POINT('', (-40., -20., 10.));
#122 = CARTESIAN_POINT('', (-40., -20., 20.));
#123 = CARTESIAN_POINT('', (-30., -20., 20.));
#124 = CARTESIAN_POINT('', (-40., -29.9999999999999, 10.));
#125 = CARTESIAN_POINT('', (-40., -29.9999999999999, 20.));
#126 = CARTESIAN_POINT('', (-30., -20., 20.));
#127 = CARTESIAN_POINT('', (-30.0000000000001, -30., 9.99999999999999));
#128 = CARTESIAN_POINT('', (-30.0000000000001, -30., 20.));
#129 = CARTESIAN_POINT('', (-30., -20., 20.));
#130 = ADVANCED_FACE('', (#131), #154, .T.);
#131 = FACE_OUTER_BOUND('', #132, .T.);
#132 = EDGE_LOOP('', (#133, #140, #141, #148));
#133 = ORIENTED_EDGE('', *, *, #134, .F.);
#134 = EDGE_CURVE('', #107, #135, #137, .T.);
#135 = VERTEX_POINT('', #136);
#136 = CARTESIAN_POINT('', (-40., 20., 10.));
#137 = B_SPLINE_CURVE_WITH_KNOTS('', 1, (#138, #139), .UNSPECIFIED., .F., .U., (2, 2), (0., 1.), .UNSPECIFIED.);
#138 = CARTESIAN_POINT('', (-40., -20., 10.));
#139 = CARTESIAN_POINT('', (-40., 20., 10.));
#140 = ORIENTED_EDGE('', *, *, #115, .T.);
#141 = ORIENTED_EDGE('', *, *, #142, .T.);
#142 = EDGE_CURVE('', #76, #143, #145, .T.);
#143 = VERTEX_POINT('', #144);
#144 = CARTESIAN_POINT('', (-30., 20., 20.));
#145 = B_SPLINE_CURVE_WITH_KNOTS('', 1, (#146, #147), .UNSPECIFIED., .F., .U., (2, 2), (0., 1.), .UNSPECIFIED.);
#146 = CARTESIAN_POINT('', (-30., -20., 20.));
#147 = CARTESIAN_POINT('', (-30., 20., 20.));
#148 = ORIENTED_EDGE('', *, *, #149, .T.);
#149 = EDGE_CURVE('', #143, #135, #150, .T.);
#150 = (
   BOUNDED_CURVE ()
   B_SPLINE_CURVE (2, (#151, #152, #153), .UNSPECIFIED., .F., .U.)
   B_SPLINE_CURVE_WITH_KNOTS ((3, 3), (0., 1.), .UNSPECIFIED.)
   CURVE ()
   GEOMETRIC_REPRESENTATION_ITEM ()
   RATIONAL_B_SPLINE_CURVE ((1., 0.707106781186547, 1.))
   REPRESENTATION_ITEM ('')
);
#151 = CARTESIAN_POINT('', (-30., 20., 20.));
#152 = CARTESIAN_POINT('', (-40., 20., 20.));
#153 = CARTESIAN_POINT('', (-40., 20., 10.));
#154 = (
   BOUNDED_SURFACE ()
   B_SPLINE_SURFACE (2, 1, ((#155, #156), (#157, #158), (#159, #160)), .UNSPECIFIED., .F., .F., .U.)
   B_SPLINE_SURFACE_WITH_KNOTS ((3, 3), (2, 2), (0., 1.), (0., 1.), .UNSPECIFIED.)
   GEOMETRIC_REPRESENTATION_ITEM ()
   RATIONAL_B_SPLINE_SURFACE (((1., 1.), (0.707106781186547, 0.707106781186547), (1., 1.)))
   REPRESENTATION_ITEM ('')
   SURFACE ()
);
#155 = CARTESIAN_POINT('', (-40., -20., 10.));
#156 = CARTESIAN_POINT('', (-40., 20., 10.));
#157 = CARTESIAN_POINT('', (-40., -20., 20.));
#158 = CARTESIAN_POINT('', (-40., 20., 20.));
#159 = CARTESIAN_POINT('', (-30., -20., 20.));
#160 = CARTESIAN_POINT('', (-30., 20., 20.));
#161 = ADVANCED_FACE('', (#162), #172, .T.);
#162 = FACE_OUTER_BOUND('', #163, .T.);
#163 = EDGE_LOOP('', (#164, #169, #170, #171));
#164 = ORIENTED_EDGE('', *, *, #165, .F.);
#165 = EDGE_CURVE('', #143, #10, #166, .T.);
#166 = B_SPLINE_CURVE_WITH_KNOTS('', 1, (#167, #168), .UNSPECIFIED., .F., .U., (2, 2), (0., 1.), .UNSPECIFIED.);
#167 = CARTESIAN_POINT('', (-30., 20., 20.));
#168 = CARTESIAN_POINT('', (30., 20., 20.));
#169 = ORIENTED_EDGE('', *, *, #142, .F.);
#170 = ORIENTED_EDGE('', *, *, #75, .T.);
#171 = ORIENTED_EDGE('', *, *, #7, .T.);
#172 = B_SPLINE_SURFACE_WITH_KNOTS('', 1, 1, ((#173, #174), (#175, #176)), .UNSPECIFIED., .F., .F., .U., (2, 2), (2, 2), (10., 70.), (10., 50.), .UNSPECIFIED.);
#173 = CARTESIAN_POINT('', (-30., -20., 20.));
#174 = CARTESIAN_POINT('', (-30., 20., 20.));
#175 = CARTESIAN_POINT('', (30., -20., 20.));
#176 = CARTESIAN_POINT('', (30., 20., 20.));
#177 = ADVANCED_FACE('', (#178), #202, .T.);
#178 = FACE_OUTER_BOUND('', #179, .T.);
#179 = EDGE_LOOP('', (#180, #189, #195, #196));
#180 = ORIENTED_EDGE('', *, *, #181, .F.);
#181 = EDGE_CURVE('', #182, #184, #186, .T.);
#182 = VERTEX_POINT('', #183);
#183 = CARTESIAN_POINT('', (-30., 30., 10.));
#184 = VERTEX_POINT('', #185);
#185 = CARTESIAN_POINT('', (30., 30., 10.));
#186 = B_SPLINE_CURVE_WITH_KNOTS('', 1, (#187, #188), .UNSPECIFIED., .F., .U., (2, 2), (0., 1.), .UNSPECIFIED.);
#187 = CARTESIAN_POINT('', (-30., 30., 10.));
#188 = CARTESIAN_POINT('', (30., 30., 10.));
#189 = ORIENTED_EDGE('', *, *, #190, .T.);
#190 = EDGE_CURVE('', #182, #143, #191, .T.);
#191 = (
   BOUNDED_CURVE ()
   B_SPLINE_CURVE (2, (#192, #193, #194), .UNSPECIFIED., .F., .U.)
   B_SPLINE_CURVE_WITH_KNOTS ((3, 3), (0., 1.), .UNSPECIFIED.)
   CURVE ()
   GEOMETRIC_REPRESENTATION_ITEM ()
   RATIONAL_B_SPLINE_CURVE ((1., 0.707106781186547, 1.))
   REPRESENTATION_ITEM ('')
);
#192 = CARTESIAN_POINT('', (-30., 30., 10.));
#193 = CARTESIAN_POINT('', (-30., 30., 20.));
#194 = CARTESIAN_POINT('', (-30., 20., 20.));
#195 = ORIENTED_EDGE('', *, *, #165, .T.);
#196 = ORIENTED_EDGE('', *, *, #197, .T.);
#197 = EDGE_CURVE('', #10, #184, #198, .T.);
#198 = (
   BOUNDED_CURVE ()
   B_SPLINE_CURVE (2, (#199, #200, #201), .UNSPECIFIED., .F., .U.)
   B_SPLINE_CURVE_WITH_KNOTS ((3, 3), (0., 1.), .UNSPECIFIED.)
   CURVE ()
   GEOMETRIC_REPRESENTATION_ITEM ()
   RATIONAL_B_SPLINE_CURVE ((1., 0.707106781186547, 1.))
   REPRESENTATION_ITEM ('')
);
#199 = CARTESIAN_POINT('', (30., 20., 20.));
#200 = CARTESIAN_POINT('', (30., 30., 20.));
#201 = CARTESIAN_POINT('', (30., 30., 10.));
#202 = (
   BOUNDED_SURFACE ()
   B_SPLINE_SURFACE (2, 1, ((#203, #204), (#205, #206), (#207, #208)), .UNSPECIFIED., .F., .F., .U.)
   B_SPLINE_SURFACE_WITH_KNOTS ((3, 3), (2, 2), (0., 1.), (0., 1.), .UNSPECIFIED.)
   GEOMETRIC_REPRESENTATION_ITEM ()
   RATIONAL_B_SPLINE_SURFACE (((1., 1.), (0.707106781186547, 0.707106781186547), (1., 1.)))
   REPRESENTATION_ITEM ('')
   SURFACE ()
);
#203 = CARTESIAN_POINT('', (-30., 30., 10.));
#204 = CARTESIAN_POINT('', (30., 30., 10.));
#205 = CARTESIAN_POINT('', (-30., 30., 20.));
#206 = CARTESIAN_POINT('', (30., 30., 20.));
#207 = CARTESIAN_POINT('', (-30., 20., 20.));
#208 = CARTESIAN_POINT('', (30., 20., 20.));
#209 = ADVANCED_FACE('', (#210), #220, .T.);
#210 = FACE_OUTER_BOUND('', #211, .T.);
#211 = EDGE_LOOP('', (#212, #218, #219));
#212 = ORIENTED_EDGE('', *, *, #213, .F.);
#213 = EDGE_CURVE('', #135, #182, #214, .T.);
#214 = (
   BOUNDED_CURVE ()
   B_SPLINE_CURVE (2, (#215, #216, #217), .UNSPECIFIED., .F., .U.)
   B_SPLINE_CURVE_WITH_KNOTS ((3, 3), (0., 1.), .UNSPECIFIED.)
   CURVE ()
   GEOMETRIC_REPRESENTATION_ITEM ()
   RATIONAL_B_SPLINE_CURVE ((1., 0.707106781186547, 1.))
   REPRESENTATION_ITEM ('')
);
#215 = CARTESIAN_POINT('', (-40., 20., 10.));
#216 = CARTESIAN_POINT('', (-40., 30., 10.));
#217 = CARTESIAN_POINT('', (-30., 30., 10.));
#218 = ORIENTED_EDGE('', *, *, #149, .F.);
#219 = ORIENTED_EDGE('', *, *, #190, .F.);
#220 = (
   BOUNDED_SURFACE ()
   B_SPLINE_SURFACE (2, 2, ((#221, #222, #223), (#224, #225, #226), (#227, #228, #229)), .UNSPECIFIED., .F., .F., .U.)
   B_SPLINE_SURFACE_WITH_KNOTS ((3, 3), (3, 3), (0., 0.907603035157015), (0., 1.), .UNSPECIFIED.)
   GEOMETRIC_REPRESENTATION_ITEM ()
   RATIONAL_B_SPLINE_SURFACE (((1., 0.707106781186547, 1.), (0.707106781186549, 0.500000000000001, 0.707106781186549), (1., 0.707106781186547, 1.)))
   REPRESENTATION_ITEM ('')
   SURFACE ()
);
#221 = CARTESIAN_POINT('', (-40., 20., 10.));
#222 = CARTESIAN_POINT('', (-40., 30., 10.));
#223 = CARTESIAN_POINT('', (-30., 30., 10.));
#224 = CARTESIAN_POINT('', (-40., 20., 19.9999999999999));
#225 = CARTESIAN_POINT('', (-40., 30., 20.));
#226 = CARTESIAN_POINT('', (-30., 30., 10.));
#227 = CARTESIAN_POINT('', (-30.0000000000001, 20., 20.));
#228 = CARTESIAN_POINT('', (-30., 30., 20.));
#229 = CARTESIAN_POINT('', (-30., 30., 10.));
#230 = ADVANCED_FACE('', (#231), #254, .T.);
#231 = FACE_OUTER_BOUND('', #232, .T.);
#232 = EDGE_LOOP('', (#233, #240, #248, #253));
#233 = ORIENTED_EDGE('', *, *, #234, .F.);
#234 = EDGE_CURVE('', #235, #182, #237, .T.);
#235 = VERTEX_POINT('', #236);
#236 = CARTESIAN_POINT('', (-30., 30., -10.));
#237 = B_SPLINE_CURVE_WITH_KNOTS('', 1, (#238, #239), .UNSPECIFIED., .F., .U., (2, 2), (0., 1.), .UNSPECIFIED.);
#238 = CARTESIAN_POINT('', (-30., 30., -10.));
#239 = CARTESIAN_POINT('', (-30., 30., 10.));
#240 = ORIENTED_EDGE('', *, *, #241, .T.);
#241 = EDGE_CURVE('', #235, #242, #244, .T.);
#242 = VERTEX_POINT('', #243);
#243 = CARTESIAN_POINT('', (-40., 20., -10.));
#244 = (
   BOUNDED_CURVE ()
   B_SPLINE_CURVE (2, (#245, #246, #247), .UNSPECIFIED., .F., .U.)
   B_SPLINE_CURVE_WITH_KNOTS ((3, 3), (0., 1.), .UNSPECIFIED.)
   CURVE ()
   GEOMETRIC_REPRESENTATION_ITEM ()
   RATIONAL_B_SPLINE_CURVE ((1., 0.707106781186547, 1.))
   REPRESENTATION_ITEM ('')
);
#245 = CARTESIAN_POINT('', (-30., 30., -10.));
#246 = CARTESIAN_POINT('', (-40., 30., -10.));
#247 = CARTESIAN_POINT('', (-40., 20., -10.));
#248 = ORIENTED_EDGE('', *, *, #249, .T.);
#249 = EDGE_CURVE('', #242, #135, #250, .T.);
#250 = B_SPLINE_CURVE_WITH_KNOTS('', 1, (#251, #252), .UNSPECIFIED., .F., .U., (2, 2), (0., 1.), .UNSPECIFIED.);
#251 = CARTESIAN_POINT('', (-40., 20., -10.));
#252 = CARTESIAN_POINT('', (-40., 20., 10.));
#253 = ORIENTED_EDGE('', *, *, #213, .T.);
#254 = (
   BOUNDED_SURFACE ()
   B_SPLINE_SURFACE (2, 1, ((#255, #256), (#257, #258), (#259, #260)), .UNSPECIFIED., .F., .F., .U.)
   B_SPLINE_SURFACE_WITH_KNOTS ((3, 3), (2, 2), (0., 1.), (0., 1.), .UNSPECIFIED.)
   GEOMETRIC_REPRESENTATION_ITEM ()
   RATIONAL_B_SPLINE_SURFACE (((1., 1.), (0.707106781186547, 0.707106781186547), (1., 1.)))
   REPRESENTATION_ITEM ('')
   SURFACE ()
);
#255 = CARTESIAN_POINT('', (-30., 30., -10.));
#256 = CARTESIAN_POINT('', (-30., 30., 10.));
#257 = CARTESIAN_POINT('', (-40., 30., -10.));
#258 = CARTESIAN_POINT('', (-40., 30., 10.));
#259 = CARTESIAN_POINT('', (-40., 20., -10.));
#260 = CARTESIAN_POINT('', (-40., 20., 10.));
#261 = ADVANCED_FACE('', (#262), #279, .T.);
#262 = FACE_OUTER_BOUND('', #263, .T.);
#263 = EDGE_LOOP('', (#264, #272, #273));
#264 = ORIENTED_EDGE('', *, *, #265, .F.);
#265 = EDGE_CURVE('', #242, #266, #268, .T.);
#266 = VERTEX_POINT('', #267);
#267 = CARTESIAN_POINT('', (-30., 20., -20.));
#268 = (
   BOUNDED_CURVE ()
   B_SPLINE_CURVE (2, (#269, #270, #271), .UNSPECIFIED., .F., .U.)
   B_SPLINE_CURVE_WITH_KNOTS ((3, 3), (0., 1.), .UNSPECIFIED.)
   CURVE ()
   GEOMETRIC_REPRESENTATION_ITEM ()
   RATIONAL_B_SPLINE_CURVE ((1., 0.707106781186547, 1.))
   REPRESENTATION_ITEM ('')
);
#269 = CARTESIAN_POINT('', (-40., 20., -10.));
#270 = CARTESIAN_POINT('', (-40., 20., -20.));
#271 = CARTESIAN_POINT('', (-30., 20., -20.));
#272 = ORIENTED_EDGE('', *, *, #241, .F.);
#273 = ORIENTED_EDGE('', *, *, #274, .F.);
#274 = EDGE_CURVE('', #266, #235, #275, .T.);
#275 = (
   BOUNDED_CURVE ()
   B_SPLINE_CURVE (2, (#276, #277, #278), .UNSPECIFIED., .F., .U.)
   B_SPLINE_CURVE_WITH_KNOTS ((3, 3), (0., 1.), .UNSPECIFIED.)
   CURVE ()
   GEOMETRIC_REPRESENTATION_ITEM ()
   RATIONAL_B_SPLINE_CURVE ((1., 0.707106781186547, 1.))
   REPRESENTATION_ITEM ('')
);
#276 = CARTESIAN_POINT('', (-30., 20., -20.));
#277 = CARTESIAN_POINT('', (-30., 30., -20.));
#278 = CARTESIAN_POINT('', (-30., 30., -10.));
#279 = (
   BOUNDED_SURFACE ()
   B_SPLINE_SURFACE (2, 2, ((#280, #281, #282), (#283, #284, #285), (#286, #287, #288)), .UNSPECIFIED., .F., .F., .U.)
   B_SPLINE_SURFACE_WITH_KNOTS ((3, 3), (3, 3), (0., 0.907603035157019), (0., 1.), .UNSPECIFIED.)
   GEOMETRIC_REPRESENTATION_ITEM ()
   RATIONAL_B_SPLINE_SURFACE (((1., 0.707106781186547, 1.), (0.707106781186546, 0.499999999999999, 0.707106781186546), (1., 0.707106781186547, 1.)))
   REPRESENTATION_ITEM ('')
   SURFACE ()
);
#280 = CARTESIAN_POINT('', (-30., 30., -10.));
#281 = CARTESIAN_POINT('', (-40., 30., -10.));
#282 = CARTESIAN_POINT('', (-40., 20., -10.));
#283 = CARTESIAN_POINT('', (-30., 30., -10.));
#284 = CARTESIAN_POINT('', (-40., 30., -20.));
#285 = CARTESIAN_POINT('', (-40., 20., -20.));
#286 = CARTESIAN_POINT('', (-30., 30., -10.));
#287 = CARTESIAN_POINT('', (-30., 30., -20.));
#288 = CARTESIAN_POINT('', (-30., 20., -20.));
#289 = ADVANCED_FACE('', (#290), #313, .T.);
#290 = FACE_OUTER_BOUND('', #291, .T.);
#291 = EDGE_LOOP('', (#292, #299, #300, #307));
#292 = ORIENTED_EDGE('', *, *, #293, .F.);
#293 = EDGE_CURVE('', #266, #294, #296, .T.);
#294 = VERTEX_POINT('', #295);
#295 = CARTESIAN_POINT('', (30., 20., -20.));
#296 = B_SPLINE_CURVE_WITH_KNOTS('', 1, (#297, #298), .UNSPECIFIED., .F., .U., (2, 2), (0., 1.), .UNSPECIFIED.);
#297 = CARTESIAN_POINT('', (-30., 20., -20.));
#298 = CARTESIAN_POINT('', (30., 20., -20.));
#299 = ORIENTED_EDGE('', *, *, #274, .T.);
#300 = ORIENTED_EDGE('', *, *, #301, .T.);
#301 = EDGE_CURVE('', #235, #302, #304, .T.);
#302 = VERTEX_POINT('', #303);
#303 = CARTESIAN_POINT('', (30., 30., -10.));
#304 = B_SPLINE_CURVE_WITH_KNOTS('', 1, (#305, #306), .UNSPECIFIED., .F., .U., (2, 2), (0., 1.), .UNSPECIFIED.);
#305 = CARTESIAN_POINT('', (-30., 30., -10.));
#306 = CARTESIAN_POINT('', (30., 30., -10.));
#307 = ORIENTED_EDGE('', *, *, #308, .T.);
#308 = EDGE_CURVE('', #302, #294, #309, .T.);
#309 = (
   BOUNDED_CURVE ()
   B_SPLINE_CURVE (2, (#310, #311, #312), .UNSPECIFIED., .F., .U.)
   B_SPLINE_CURVE_WITH_KNOTS ((3, 3), (0., 1.), .UNSPECIFIED.)
   CURVE ()
   GEOMETRIC_REPRESENTATION_ITEM ()
   RATIONAL_B_SPLINE_CURVE ((1., 0.707106781186547, 1.))
   REPRESENTATION_ITEM ('')
);
#310 = CARTESIAN_POINT('', (30., 30., -10.));
#311 = CARTESIAN_POINT('', (30., 30., -20.));
#312 = CARTESIAN_POINT('', (30., 20., -20.));
#313 = (
   BOUNDED_SURFACE ()
   B_SPLINE_SURFACE (2, 1, ((#314, #315), (#316, #317), (#318, #319)), .UNSPECIFIED., .F., .F., .U.)
   B_SPLINE_SURFACE_WITH_KNOTS ((3, 3), (2, 2), (0., 1.), (0., 1.), .UNSPECIFIED.)
   GEOMETRIC_REPRESENTATION_ITEM ()
   RATIONAL_B_SPLINE_SURFACE (((1., 1.), (0.707106781186547, 0.707106781186547), (1., 1.)))
   REPRESENTATION_ITEM ('')
   SURFACE ()
);
#314 = CARTESIAN_POINT('', (-30., 20., -20.));
#315 = CARTESIAN_POINT('', (30., 20., -20.));
#316 = CARTESIAN_POINT('', (-30., 30., -20.));
#317 = CARTESIAN_POINT('', (30., 30., -20.));
#318 = CARTESIAN_POINT('', (-30., 30., -10.));
#319 = CARTESIAN_POINT('', (30., 30., -10.));
#320 = ADVANCED_FACE('', (#321), #331, .T.);
#321 = FACE_OUTER_BOUND('', #322, .T.);
#322 = EDGE_LOOP('', (#323, #324, #329, #330));
#323 = ORIENTED_EDGE('', *, *, #181, .T.);
#324 = ORIENTED_EDGE('', *, *, #325, .F.);
#325 = EDGE_CURVE('', #302, #184, #326, .T.);
#326 = B_SPLINE_CURVE_WITH_KNOTS('', 1, (#327, #328), .UNSPECIFIED., .F., .U., (2, 2), (0., 1.), .UNSPECIFIED.);
#327 = CARTESIAN_POINT('', (30., 30., -10.));
#328 = CARTESIAN_POINT('', (30., 30., 10.));
#329 = ORIENTED_EDGE('', *, *, #301, .F.);
#330 = ORIENTED_EDGE('', *, *, #234, .T.);
#331 = B_SPLINE_SURFACE_WITH_KNOTS('', 1, 1, ((#332, #333), (#334, #335)), .UNSPECIFIED., .F., .F., .U., (2, 2), (2, 2), (9.99999999999999, 30.), (10., 70.), .UNSPECIFIED.);
#332 = CARTESIAN_POINT('', (-30., 30., -10.));
#333 = CARTESIAN_POINT('', (30., 30., -10.));
#334 = CARTESIAN_POINT('', (-30., 30., 10.));
#335 = CARTESIAN_POINT('', (30., 30., 10.));
#336 = ADVANCED_FACE('', (#337), #359, .T.);
#337 = FACE_OUTER_BOUND('', #338, .T.);
#338 = EDGE_LOOP('', (#339, #346, #352, #353));
#339 = ORIENTED_EDGE('', *, *, #340, .F.);
#340 = EDGE_CURVE('', #341, #25, #343, .T.);
#341 = VERTEX_POINT('', #342);
#342 = CARTESIAN_POINT('', (40., 20., -10.));
#343 = B_SPLINE_CURVE_WITH_KNOTS('', 1, (#344, #345), .UNSPECIFIED., .F., .U., (2, 2), (0., 1.), .UNSPECIFIED.);
#344 = CARTESIAN_POINT('', (40., 20., -10.));
#345 = CARTESIAN_POINT('', (40., 20., 10.));
#346 = ORIENTED_EDGE('', *, *, #347, .T.);
#347 = EDGE_CURVE('', #341, #302, #348, .T.);
#348 = (
   BOUNDED_CURVE ()
   B_SPLINE_CURVE (2, (#349, #350, #351), .UNSPECIFIED., .F., .U.)
   B_SPLINE_CURVE_WITH_KNOTS ((3, 3), (0., 1.), .UNSPECIFIED.)
   CURVE ()
   GEOMETRIC_REPRESENTATION_ITEM ()
   RATIONAL_B_SPLINE_CURVE ((1., 0.707106781186547, 1.))
   REPRESENTATION_ITEM ('')
);
#349 = CARTESIAN_POINT('', (40., 20., -10.));
#350 = CARTESIAN_POINT('', (40., 30., -10.));
#351 = CARTESIAN_POINT('', (30., 30., -10.));
#352 = ORIENTED_EDGE('', *, *, #325, .T.);
#353 = ORIENTED_EDGE('', *, *, #354, .T.);
#354 = EDGE_CURVE('', #184, #25, #355, .T.);
#355 = (
   BOUNDED_CURVE ()
   B_SPLINE_CURVE (2, (#356, #357, #358), .UNSPECIFIED., .F., .U.)
   B_SPLINE_CURVE_WITH_KNOTS ((3, 3), (0., 1.), .UNSPECIFIED.)
   CURVE ()
   GEOMETRIC_REPRESENTATION_ITEM ()
   RATIONAL_B_SPLINE_CURVE ((1., 0.707106781186547, 1.))
   REPRESENTATION_ITEM ('')
);
#356 = CARTESIAN_POINT('', (30., 30., 10.));
#357 = CARTESIAN_POINT('', (40., 30., 10.));
#358 = CARTESIAN_POINT('', (40., 20., 10.));
#359 = (
   BOUNDED_SURFACE ()
   B_SPLINE_SURFACE (2, 1, ((#360, #361), (#362, #363), (#364, #365)), .UNSPECIFIED., .F., .F., .U.)
   B_SPLINE_SURFACE_WITH_KNOTS ((3, 3), (2, 2), (0., 1.), (0., 1.), .UNSPECIFIED.)
   GEOMETRIC_REPRESENTATION_ITEM ()
   RATIONAL_B_SPLINE_SURFACE (((1., 1.), (0.707106781186547, 0.707106781186547), (1., 1.)))
   REPRESENTATION_ITEM ('')
   SURFACE ()
);
#360 = CARTESIAN_POINT('', (40., 20., -10.));
#361 = CARTESIAN_POINT('', (40., 20., 10.));
#362 = CARTESIAN_POINT('', (40., 30., -10.));
#363 = CARTESIAN_POINT('', (40., 30., 10.));
#364 = CARTESIAN_POINT('', (30., 30., -10.));
#365 = CARTESIAN_POINT('', (30., 30., 10.));
#366 = ADVANCED_FACE('', (#367), #377, .T.);
#367 = FACE_OUTER_BOUND('', #368, .T.);
#368 = EDGE_LOOP('', (#369, #375, #376));
#369 = ORIENTED_EDGE('', *, *, #370, .F.);
#370 = EDGE_CURVE('', #294, #341, #371, .T.);
#371 = (
   BOUNDED_CURVE ()
   B_SPLINE_CURVE (2, (#372, #373, #374), .UNSPECIFIED., .F., .U.)
   B_SPLINE_CURVE_WITH_KNOTS ((3, 3), (0., 1.), .UNSPECIFIED.)
   CURVE ()
   GEOMETRIC_REPRESENTATION_ITEM ()
   RATIONAL_B_SPLINE_CURVE ((1., 0.707106781186547, 1.))
   REPRESENTATION_ITEM ('')
);
#372 = CARTESIAN_POINT('', (30., 20., -20.));
#373 = CARTESIAN_POINT('', (40., 20., -20.));
#374 = CARTESIAN_POINT('', (40., 20., -10.));
#375 = ORIENTED_EDGE('', *, *, #308, .F.);
#376 = ORIENTED_EDGE('', *, *, #347, .F.);
#377 = (
   BOUNDED_SURFACE ()
   B_SPLINE_SURFACE (2, 2, ((#378, #379, #380), (#381, #382, #383), (#384, #385, #386)), .UNSPECIFIED., .F., .F., .U.)
   B_SPLINE_SURFACE_WITH_KNOTS ((3, 3), (3, 3), (0., 0.907603035157016), (0., 1.), .UNSPECIFIED.)
   GEOMETRIC_REPRESENTATION_ITEM ()
   RATIONAL_B_SPLINE_SURFACE (((1., 0.707106781186547, 1.), (0.707106781186549, 0.500000000000001, 0.707106781186549), (1., 0.707106781186547, 1.)))
   REPRESENTATION_ITEM ('')
   SURFACE ()
);
#378 = CARTESIAN_POINT('', (40., 20., -10.));
#379 = CARTESIAN_POINT('', (40., 30., -10.));
#380 = CARTESIAN_POINT('', (30., 30., -10.));
#381 = CARTESIAN_POINT('', (40., 20., -19.9999999999999));
#382 = CARTESIAN_POINT('', (40., 30., -20.));
#383 = CARTESIAN_POINT('', (30., 30., -10.));
#384 = CARTESIAN_POINT('', (30.0000000000001, 20., -20.));
#385 = CARTESIAN_POINT('', (30., 30., -20.));
#386 = CARTESIAN_POINT('', (30., 30., -10.));
#387 = ADVANCED_FACE('', (#388), #411, .T.);
#388 = FACE_OUTER_BOUND('', #389, .T.);
#389 = EDGE_LOOP('', (#390, #397, #405, #410));
#390 = ORIENTED_EDGE('', *, *, #391, .F.);
#391 = EDGE_CURVE('', #392, #341, #394, .T.);
#392 = VERTEX_POINT('', #393);
#393 = CARTESIAN_POINT('', (40., -20., -10.));
#394 = B_SPLINE_CURVE_WITH_KNOTS('', 1, (#395, #396), .UNSPECIFIED., .F., .U., (2, 2), (0., 1.), .UNSPECIFIED.);
#395 = CARTESIAN_POINT('', (40., -20., -10.));
#396 = CARTESIAN_POINT('', (40., 20., -10.));
#397 = ORIENTED_EDGE('', *, *, #398, .T.);
#398 = EDGE_CURVE('', #392, #399, #401, .T.);
#399 = VERTEX_POINT('', #400);
#400 = CARTESIAN_POINT('', (30., -20., -20.));
#401 = (
   BOUNDED_CURVE ()
   B_SPLINE_CURVE (2, (#402, #403, #404), .UNSPECIFIED., .F., .U.)
   B_SPLINE_CURVE_WITH_KNOTS ((3, 3), (0., 1.), .UNSPECIFIED.)
   CURVE ()
   GEOMETRIC_REPRESENTATION_ITEM ()
   RATIONAL_B_SPLINE_CURVE ((1., 0.707106781186547, 1.))
   REPRESENTATION_ITEM ('')
);
#402 = CARTESIAN_POINT('', (40., -20., -10.));
#403 = CARTESIAN_POINT('', (40., -20., -20.));
#404 = CARTESIAN_POINT('', (30., -20., -20.));
#405 = ORIENTED_EDGE('', *, *, #406, .T.);
#406 = EDGE_CURVE('', #399, #294, #407, .T.);
#407 = B_SPLINE_CURVE_WITH_KNOTS('', 1, (#408, #409), .UNSPECIFIED., .F., .U., (2, 2), (0., 1.), .UNSPECIFIED.);
#408 = CARTESIAN_POINT('', (30., -20., -20.));
#409 = CARTESIAN_POINT('', (30., 20., -20.));
#410 = ORIENTED_EDGE('', *, *, #370, .T.);
#411 = (
   BOUNDED_SURFACE ()
   B_SPLINE_SURFACE (2, 1, ((#412, #413), (#414, #415), (#416, #417)), .UNSPECIFIED., .F., .F., .U.)
   B_SPLINE_SURFACE_WITH_KNOTS ((3, 3), (2, 2), (0., 1.), (0., 1.), .UNSPECIFIED.)
   GEOMETRIC_REPRESENTATION_ITEM ()
   RATIONAL_B_SPLINE_SURFACE (((1., 1.), (0.707106781186547, 0.707106781186547), (1., 1.)))
   REPRESENTATION_ITEM ('')
   SURFACE ()
);
#412 = CARTESIAN_POINT('', (40., -20., -10.));
#413 = CARTESIAN_POINT('', (40., 20., -10.));
#414 = CARTESIAN_POINT('', (40., -20., -20.));
#415 = CARTESIAN_POINT('', (40., 20., -20.));
#416 = CARTESIAN_POINT('', (30., -20., -20.));
#417 = CARTESIAN_POINT('', (30., 20., -20.));
#418 = ADVANCED_FACE('', (#419), #436, .T.);
#419 = FACE_OUTER_BOUND('', #420, .T.);
#420 = EDGE_LOOP('', (#421, #429, #430));
#421 = ORIENTED_EDGE('', *, *, #422, .F.);
#422 = EDGE_CURVE('', #399, #423, #425, .T.);
#423 = VERTEX_POINT('', #424);
#424 = CARTESIAN_POINT('', (30., -30., -10.));
#425 = (
   BOUNDED_CURVE ()
   B_SPLINE_CURVE (2, (#426, #427, #428), .UNSPECIFIED., .F., .U.)
   B_SPLINE_CURVE_WITH_KNOTS ((3, 3), (0., 1.), .UNSPECIFIED.)
   CURVE ()
   GEOMETRIC_REPRESENTATION_ITEM ()
   RATIONAL_B_SPLINE_CURVE ((1., 0.707106781186547, 1.))
   REPRESENTATION_ITEM ('')
);
#426 = CARTESIAN_POINT('', (30., -20., -20.));
#427 = CARTESIAN_POINT('', (30., -30., -20.));
#428 = CARTESIAN_POINT('', (30., -30., -10.));
#429 = ORIENTED_EDGE('', *, *, #398, .F.);
#430 = ORIENTED_EDGE('', *, *, #431, .F.);
#431 = EDGE_CURVE('', #423, #392, #432, .T.);
#432 = (
   BOUNDED_CURVE ()
   B_SPLINE_CURVE (2, (#433, #434, #435), .UNSPECIFIED., .F., .U.)
   B_SPLINE_CURVE_WITH_KNOTS ((3, 3), (0., 1.), .UNSPECIFIED.)
   CURVE ()
   GEOMETRIC_REPRESENTATION_ITEM ()
   RATIONAL_B_SPLINE_CURVE ((1., 0.707106781186547, 1.))
   REPRESENTATION_ITEM ('')
);
#433 = CARTESIAN_POINT('', (30., -30., -10.));
#434 = CARTESIAN_POINT('', (40., -30., -10.));
#435 = CARTESIAN_POINT('', (40., -20., -10.));
#436 = (
   BOUNDED_SURFACE ()
   B_SPLINE_SURFACE (2, 2, ((#437, #438, #439), (#440, #441, #442), (#443, #444, #445)), .UNSPECIFIED., .F., .F., .U.)
   B_SPLINE_SURFACE_WITH_KNOTS ((3, 3), (3, 3), (0., 0.907603035157019), (0., 1.), .UNSPECIFIED.)
   GEOMETRIC_REPRESENTATION_ITEM ()
   RATIONAL_B_SPLINE_SURFACE (((1., 0.707106781186547, 1.), (0.707106781186546, 0.499999999999998, 0.707106781186546), (1., 0.707106781186547, 1.)))
   REPRESENTATION_ITEM ('')
   SURFACE ()
);
#437 = CARTESIAN_POINT('', (30., -30., -10.));
#438 = CARTESIAN_POINT('', (40., -30., -10.));
#439 = CARTESIAN_POINT('', (40., -20., -10.));
#440 = CARTESIAN_POINT('', (30., -30., -10.));
#441 = CARTESIAN_POINT('', (40., -30., -20.));
#442 = CARTESIAN_POINT('', (40., -20., -20.));
#443 = CARTESIAN_POINT('', (30., -30., -10.));
#444 = CARTESIAN_POINT('', (30., -30., -20.));
#445 = CARTESIAN_POINT('', (30., -20., -20.));
#446 = ADVANCED_FACE('', (#447), #461, .T.);
#447 = FACE_OUTER_BOUND('', #448, .T.);
#448 = EDGE_LOOP('', (#449, #454, #455, #460));
#449 = ORIENTED_EDGE('', *, *, #450, .F.);
#450 = EDGE_CURVE('', #423, #48, #451, .T.);
#451 = B_SPLINE_CURVE_WITH_KNOTS('', 1, (#452, #453), .UNSPECIFIED., .F., .U., (2, 2), (0., 1.), .UNSPECIFIED.);
#452 = CARTESIAN_POINT('', (30., -30., -10.));
#453 = CARTESIAN_POINT('', (30., -30., 10.));
#454 = ORIENTED_EDGE('', *, *, #431, .T.);
#455 = ORIENTED_EDGE('', *, *, #456, .T.);
#456 = EDGE_CURVE('', #392, #17, #457, .T.);
#457 = B_SPLINE_CURVE_WITH_KNOTS('', 1, (#458, #459), .UNSPECIFIED., .F., .U., (2, 2), (0., 1.), .UNSPECIFIED.);
#458 = CARTESIAN_POINT('', (40., -20., -10.));
#459 = CARTESIAN_POINT('', (40., -20., 10.));
#460 = ORIENTED_EDGE('', *, *, #47, .T.);
#461 = (
   BOUNDED_SURFACE ()
   B_SPLINE_SURFACE (2, 1, ((#462, #463), (#464, #465), (#466, #467)), .UNSPECIFIED., .F., .F., .U.)
   B_SPLINE_SURFACE_WITH_KNOTS ((3, 3), (2, 2), (0., 1.), (0., 1.), .UNSPECIFIED.)
   GEOMETRIC_REPRESENTATION_ITEM ()
   RATIONAL_B_SPLINE_SURFACE (((1., 1.), (0.707106781186547, 0.707106781186547), (1., 1.)))
   REPRESENTATION_ITEM ('')
   SURFACE ()
);
#462 = CARTESIAN_POINT('', (30., -30., -10.));
#463 = CARTESIAN_POINT('', (30., -30., 10.));
#464 = CARTESIAN_POINT('', (40., -30., -10.));
#465 = CARTESIAN_POINT('', (40., -30., 10.));
#466 = CARTESIAN_POINT('', (40., -20., -10.));
#467 = CARTESIAN_POINT('', (40., -20., 10.));
#468 = ADVANCED_FACE('', (#469), #475, .T.);
#469 = FACE_OUTER_BOUND('', #470, .T.);
#470 = EDGE_LOOP('', (#471, #472, #473, #474));
#471 = ORIENTED_EDGE('', *, *, #24, .F.);
#472 = ORIENTED_EDGE('', *, *, #456, .F.);
#473 = ORIENTED_EDGE('', *, *, #391, .T.);
#474 = ORIENTED_EDGE('', *, *, #340, .T.);
#475 = B_SPLINE_SURFACE_WITH_KNOTS('', 1, 1, ((#476, #477), (#478, #479)), .UNSPECIFIED., .F., .F., .U., (2, 2), (2, 2), (10., 50.), (10., 30.), .UNSPECIFIED.);
#476 = CARTESIAN_POINT('', (40., -20., -10.));
#477 = CARTESIAN_POINT('', (40., -20., 10.));
#478 = CARTESIAN_POINT('', (40., 20., -10.));
#479 = CARTESIAN_POINT('', (40., 20., 10.));
#480 = ADVANCED_FACE('', (#481), #497, .T.);
#481 = FACE_OUTER_BOUND('', #482, .T.);
#482 = EDGE_LOOP('', (#483, #484, #491, #496));
#483 = ORIENTED_EDGE('', *, *, #90, .F.);
#484 = ORIENTED_EDGE('', *, *, #485, .F.);
#485 = EDGE_CURVE('', #486, #83, #488, .T.);
#486 = VERTEX_POINT('', #487);
#487 = CARTESIAN_POINT('', (-30., -30., -10.));
#488 = B_SPLINE_CURVE_WITH_KNOTS('', 1, (#489, #490), .UNSPECIFIED., .F., .U., (2, 2), (0., 1.), .UNSPECIFIED.);
#489 = CARTESIAN_POINT('', (-30., -30., -10.));
#490 = CARTESIAN_POINT('', (-30., -30., 10.));
#491 = ORIENTED_EDGE('', *, *, #492, .T.);
#492 = EDGE_CURVE('', #486, #423, #493, .T.);
#493 = B_SPLINE_CURVE_WITH_KNOTS('', 1, (#494, #495), .UNSPECIFIED., .F., .U., (2, 2), (0., 1.), .UNSPECIFIED.);
#494 = CARTESIAN_POINT('', (-30., -30., -10.));
#495 = CARTESIAN_POINT('', (30., -30., -10.));
#496 = ORIENTED_EDGE('', *, *, #450, .T.);
#497 = B_SPLINE_SURFACE_WITH_KNOTS('', 1, 1, ((#498, #499), (#500, #501)), .UNSPECIFIED., .F., .F., .U., (2, 2), (2, 2), (10., 70.), (10., 30.), .UNSPECIFIED.);
#498 = CARTESIAN_POINT('', (-30., -30., -10.));
#499 = CARTESIAN_POINT('', (-30., -30., 10.));
#500 = CARTESIAN_POINT('', (30., -30., -10.));
#501 = CARTESIAN_POINT('', (30., -30., 10.));
#502 = ADVANCED_FACE('', (#503), #520, .T.);
#503 = FACE_OUTER_BOUND('', #504, .T.);
#504 = EDGE_LOOP('', (#505, #512, #518, #519));
#505 = ORIENTED_EDGE('', *, *, #506, .F.);
#506 = EDGE_CURVE('', #507, #107, #509, .T.);
#507 = VERTEX_POINT('', #508);
#508 = CARTESIAN_POINT('', (-40., -20., -10.));
#509 = B_SPLINE_CURVE_WITH_KNOTS('', 1, (#510, #511), .UNSPECIFIED., .F., .U., (2, 2), (0., 1.), .UNSPECIFIED.);
#510 = CARTESIAN_POINT('', (-40., -20., -10.));
#511 = CARTESIAN_POINT('', (-40., -20., 10.));
#512 = ORIENTED_EDGE('', *, *, #513, .T.);
#513 = EDGE_CURVE('', #507, #486, #514, .T.);
#514 = (
   BOUNDED_CURVE ()
   B_SPLINE_CURVE (2, (#515, #516, #517), .UNSPECIFIED., .F., .U.)
   B_SPLINE_CURVE_WITH_KNOTS ((3, 3), (0., 1.), .UNSPECIFIED.)
   CURVE ()
   GEOMETRIC_REPRESENTATION_ITEM ()
   RATIONAL_B_SPLINE_CURVE ((1., 0.707106781186547, 1.))
   REPRESENTATION_ITEM ('')
);
#515 = CARTESIAN_POINT('', (-40., -20., -10.));
#516 = CARTESIAN_POINT('', (-40., -30., -10.));
#517 = CARTESIAN_POINT('', (-30., -30., -10.));
#518 = ORIENTED_EDGE('', *, *, #485, .T.);
#519 = ORIENTED_EDGE('', *, *, #106, .T.);
#520 = (
   BOUNDED_SURFACE ()
   B_SPLINE_SURFACE (2, 1, ((#521, #522), (#523, #524), (#525, #526)), .UNSPECIFIED., .F., .F., .U.)
   B_SPLINE_SURFACE_WITH_KNOTS ((3, 3), (2, 2), (0., 1.), (0., 1.), .UNSPECIFIED.)
   GEOMETRIC_REPRESENTATION_ITEM ()
   RATIONAL_B_SPLINE_SURFACE (((1., 1.), (0.707106781186547, 0.707106781186547), (1., 1.)))
   REPRESENTATION_ITEM ('')
   SURFACE ()
);
#521 = CARTESIAN_POINT('', (-40., -20., -10.));
#522 = CARTESIAN_POINT('', (-40., -20., 10.));
#523 = CARTESIAN_POINT('', (-40., -30., -10.));
#524 = CARTESIAN_POINT('', (-40., -30., 10.));
#525 = CARTESIAN_POINT('', (-30., -30., -10.));
#526 = CARTESIAN_POINT('', (-30., -30., 10.));
#527 = ADVANCED_FACE('', (#528), #545, .T.);
#528 = FACE_OUTER_BOUND('', #529, .T.);
#529 = EDGE_LOOP('', (#530, #538, #539));
#530 = ORIENTED_EDGE('', *, *, #531, .F.);
#531 = EDGE_CURVE('', #486, #532, #534, .T.);
#532 = VERTEX_POINT('', #533);
#533 = CARTESIAN_POINT('', (-30., -20., -20.));
#534 = (
   BOUNDED_CURVE ()
   B_SPLINE_CURVE (2, (#535, #536, #537), .UNSPECIFIED., .F., .U.)
   B_SPLINE_CURVE_WITH_KNOTS ((3, 3), (0., 1.), .UNSPECIFIED.)
   CURVE ()
   GEOMETRIC_REPRESENTATION_ITEM ()
   RATIONAL_B_SPLINE_CURVE ((1., 0.707106781186547, 1.))
   REPRESENTATION_ITEM ('')
);
#535 = CARTESIAN_POINT('', (-30., -30., -10.));
#536 = CARTESIAN_POINT('', (-30., -30., -20.));
#537 = CARTESIAN_POINT('', (-30., -20., -20.));
#538 = ORIENTED_EDGE('', *, *, #513, .F.);
#539 = ORIENTED_EDGE('', *, *, #540, .F.);
#540 = EDGE_CURVE('', #532, #507, #541, .T.);
#541 = (
   BOUNDED_CURVE ()
   B_SPLINE_CURVE (2, (#542, #543, #544), .UNSPECIFIED., .F., .U.)
   B_SPLINE_CURVE_WITH_KNOTS ((3, 3), (0., 1.), .UNSPECIFIED.)
   CURVE ()
   GEOMETRIC_REPRESENTATION_ITEM ()
   RATIONAL_B_SPLINE_CURVE ((1., 0.707106781186547, 1.))
   REPRESENTATION_ITEM ('')
);
#542 = CARTESIAN_POINT('', (-30., -20., -20.));
#543 = CARTESIAN_POINT('', (-40., -20., -20.));
#544 = CARTESIAN_POINT('', (-40., -20., -10.));
#545 = (
   BOUNDED_SURFACE ()
   B_SPLINE_SURFACE (2, 2, ((#546, #547, #548), (#549, #550, #551), (#552, #553, #554)), .UNSPECIFIED., .F., .F., .U.)
   B_SPLINE_SURFACE_WITH_KNOTS ((3, 3), (3, 3), (0., 0.907603035157019), (0., 1.), .UNSPECIFIED.)
   GEOMETRIC_REPRESENTATION_ITEM ()
   RATIONAL_B_SPLINE_SURFACE (((1., 0.707106781186547, 1.), (0.707106781186546, 0.499999999999999, 0.707106781186546), (1., 0.707106781186547, 1.)))
   REPRESENTATION_ITEM ('')
   SURFACE ()
);
#546 = CARTESIAN_POINT('', (-30., -20., -20.));
#547 = CARTESIAN_POINT('', (-40., -20., -20.));
#548 = CARTESIAN_POINT('', (-40., -20., -10.));
#549 = CARTESIAN_POINT('', (-30., -20., -20.));
#550 = CARTESIAN_POINT('', (-40., -30., -20.));
#551 = CARTESIAN_POINT('', (-40., -30., -10.));
#552 = CARTESIAN_POINT('', (-30., -20., -20.));
#553 = CARTESIAN_POINT('', (-29.9999999999999, -30., -20.));
#554 = CARTESIAN_POINT('', (-30., -30., -10.));
#555 = ADVANCED_FACE('', (#556), #570, .T.);
#556 = FACE_OUTER_BOUND('', #557, .T.);
#557 = EDGE_LOOP('', (#558, #563, #564, #569));
#558 = ORIENTED_EDGE('', *, *, #559, .F.);
#559 = EDGE_CURVE('', #532, #266, #560, .T.);
#560 = B_SPLINE_CURVE_WITH_KNOTS('', 1, (#561, #562), .UNSPECIFIED., .F., .U., (2, 2), (0., 1.), .UNSPECIFIED.);
#561 = CARTESIAN_POINT('', (-30., -20., -20.));
#562 = CARTESIAN_POINT('', (-30., 20., -20.));
#563 = ORIENTED_EDGE('', *, *, #540, .T.);
#564 = ORIENTED_EDGE('', *, *, #565, .T.);
#565 = EDGE_CURVE('', #507, #242, #566, .T.);
#566 = B_SPLINE_CURVE_WITH_KNOTS('', 1, (#567, #568), .UNSPECIFIED., .F., .U., (2, 2), (0., 1.), .UNSPECIFIED.);
#567 = CARTESIAN_POINT('', (-40., -20., -10.));
#568 = CARTESIAN_POINT('', (-40., 20., -10.));
#569 = ORIENTED_EDGE('', *, *, #265, .T.);
#570 = (
   BOUNDED_SURFACE ()
   B_SPLINE_SURFACE (2, 1, ((#571, #572), (#573, #574), (#575, #576)), .UNSPECIFIED., .F., .F., .U.)
   B_SPLINE_SURFACE_WITH_KNOTS ((3, 3), (2, 2), (0., 1.), (0., 1.), .UNSPECIFIED.)
   GEOMETRIC_REPRESENTATION_ITEM ()
   RATIONAL_B_SPLINE_SURFACE (((1., 1.), (0.707106781186547, 0.707106781186547), (1., 1.)))
   REPRESENTATION_ITEM ('')
   SURFACE ()
);
#571 = CARTESIAN_POINT('', (-30., -20., -20.));
#572 = CARTESIAN_POINT('', (-30., 20., -20.));
#573 = CARTESIAN_POINT('', (-40., -20., -20.));
#574 = CARTESIAN_POINT('', (-40., 20., -20.));
#575 = CARTESIAN_POINT('', (-40., -20., -10.));
#576 = CARTESIAN_POINT('', (-40., 20., -10.));
#577 = ADVANCED_FACE('', (#578), #584, .T.);
#578 = FACE_OUTER_BOUND('', #579, .T.);
#579 = EDGE_LOOP('', (#580, #581, #582, #583));
#580 = ORIENTED_EDGE('', *, *, #134, .T.);
#581 = ORIENTED_EDGE('', *, *, #249, .F.);
#582 = ORIENTED_EDGE('', *, *, #565, .F.);
#583 = ORIENTED_EDGE('', *, *, #506, .T.);
#584 = B_SPLINE_SURFACE_WITH_KNOTS('', 1, 1, ((#585, #586), (#587, #588)), .UNSPECIFIED., .F., .F., .U., (2, 2), (2, 2), (10., 30.), (10., 50.), .UNSPECIFIED.);
#585 = CARTESIAN_POINT('', (-40., -20., -10.));
#586 = CARTESIAN_POINT('', (-40., 20., -10.));
#587 = CARTESIAN_POINT('', (-40., -20., 10.));
#588 = CARTESIAN_POINT('', (-40., 20., 10.));
#589 = ADVANCED_FACE('', (#590), #600, .T.);
#590 = FACE_OUTER_BOUND('', #591, .T.);
#591 = EDGE_LOOP('', (#592, #593, #594, #599));
#592 = ORIENTED_EDGE('', *, *, #293, .T.);
#593 = ORIENTED_EDGE('', *, *, #406, .F.);
#594 = ORIENTED_EDGE('', *, *, #595, .F.);
#595 = EDGE_CURVE('', #532, #399, #596, .T.);
#596 = B_SPLINE_CURVE_WITH_KNOTS('', 1, (#597, #598), .UNSPECIFIED., .F., .U., (2, 2), (0., 1.), .UNSPECIFIED.);
#597 = CARTESIAN_POINT('', (-30., -20., -20.));
#598 = CARTESIAN_POINT('', (30., -20., -20.));
#599 = ORIENTED_EDGE('', *, *, #559, .T.);
#600 = B_SPLINE_SURFACE_WITH_KNOTS('', 1, 1, ((#601, #602), (#603, #604)), .UNSPECIFIED., .F., .F., .U., (2, 2), (2, 2), (10., 50.), (10., 70.), .UNSPECIFIED.);
#601 = CARTESIAN_POINT('', (-30., -20., -20.));
#602 = CARTESIAN_POINT('', (30., -20., -20.));
#603 = CARTESIAN_POINT('', (-30., 20., -20.));
#604 = CARTESIAN_POINT('', (30., 20., -20.));
#605 = ADVANCED_FACE('', (#606), #612, .T.);
#606 = FACE_OUTER_BOUND('', #607, .T.);
#607 = EDGE_LOOP('', (#608, #609, #610, #611));
#608 = ORIENTED_EDGE('', *, *, #492, .F.);
#609 = ORIENTED_EDGE('', *, *, #531, .T.);
#610 = ORIENTED_EDGE('', *, *, #595, .T.);
#611 = ORIENTED_EDGE('', *, *, #422, .T.);
#612 = (
   BOUNDED_SURFACE ()
   B_SPLINE_SURFACE (2, 1, ((#613, #614), (#615, #616), (#617, #618)), .UNSPECIFIED., .F., .F., .U.)
   B_SPLINE_SURFACE_WITH_KNOTS ((3, 3), (2, 2), (0., 1.), (0., 1.), .UNSPECIFIED.)
   GEOMETRIC_REPRESENTATION_ITEM ()
   RATIONAL_B_SPLINE_SURFACE (((1., 1.), (0.707106781186547, 0.707106781186547), (1., 1.)))
   REPRESENTATION_ITEM ('')
   SURFACE ()
);
#613 = CARTESIAN_POINT('', (-30., -30., -10.));
#614 = CARTESIAN_POINT('', (30., -30., -10.));
#615 = CARTESIAN_POINT('', (-30., -30., -20.));
#616 = CARTESIAN_POINT('', (30., -30., -20.));
#617 = CARTESIAN_POINT('', (-30., -20., -20.));
#618 = CARTESIAN_POINT('', (30., -20., -20.));
#619 = ADVANCED_FACE('', (#620), #625, .T.);
#620 = FACE_OUTER_BOUND('', #621, .T.);
#621 = EDGE_LOOP('', (#622, #623, #624));
#622 = ORIENTED_EDGE('', *, *, #354, .F.);
#623 = ORIENTED_EDGE('', *, *, #197, .F.);
#624 = ORIENTED_EDGE('', *, *, #31, .F.);
#625 = (
   BOUNDED_SURFACE ()
   B_SPLINE_SURFACE (2, 2, ((#626, #627, #628), (#629, #630, #631), (#632, #633, #634)), .UNSPECIFIED., .F., .F., .U.)
   B_SPLINE_SURFACE_WITH_KNOTS ((3, 3), (3, 3), (0., 0.907603035157019), (0., 1.), .UNSPECIFIED.)
   GEOMETRIC_REPRESENTATION_ITEM ()
   RATIONAL_B_SPLINE_SURFACE (((1., 0.707106781186547, 1.), (0.707106781186546, 0.499999999999998, 0.707106781186546), (1., 0.707106781186547, 1.)))
   REPRESENTATION_ITEM ('')
   SURFACE ()
);
#626 = CARTESIAN_POINT('', (30., 30., 10.));
#627 = CARTESIAN_POINT('', (40., 30., 10.));
#628 = CARTESIAN_POINT('', (40., 20., 10.));
#629 = CARTESIAN_POINT('', (30., 30., 10.));
#630 = CARTESIAN_POINT('', (40., 30., 20.));
#631 = CARTESIAN_POINT('', (40., 20., 20.));
#632 = CARTESIAN_POINT('', (30., 30., 10.));
#633 = CARTESIAN_POINT('', (30., 30., 20.));
#634 = CARTESIAN_POINT('', (30., 20., 20.));
#635 = DRAUGHTING_MODEL('', (#643), #646);
#636 = PRESENTATION_STYLE_ASSIGNMENT((#637));
#637 = SURFACE_STYLE_USAGE(.POSITIVE., #638);
#638 = SURFACE_SIDE_STYLE('', (#639));
#639 = SURFACE_STYLE_FILL_AREA(#640);
#640 = FILL_AREA_STYLE('', (#641));
#641 = FILL_AREA_STYLE_COLOUR('', #642);
#642 = COLOUR_RGB('', 0.50196078431373, 0.50196078431373, 0.50196078431373);
#643 = STYLED_ITEM('', (#636), #1);
#644 = CARTESIAN_POINT('Origin', (0., 0., 0.));
#645 = GEOMETRIC_SET('', (#644));
#646 = (
   GEOMETRIC_REPRESENTATION_CONTEXT (3)
   GLOBAL_UNCERTAINTY_ASSIGNED_CONTEXT ((#648))
   GLOBAL_UNIT_ASSIGNED_CONTEXT ((#647, #649, #650))
   REPRESENTATION_CONTEXT ('', '3D')
);
#647 = (
   LENGTH_UNIT ()
   NAMED_UNIT (*)
   SI_UNIT (.MILLI., .METRE.)
);
#648 = UNCERTAINTY_MEASURE_WITH_UNIT(LENGTH_MEASURE(1.E-6), #647, 'DISTANCE_ACCURACY_VALUE', '');
#649 = (
   NAMED_UNIT (*)
   SI_UNIT ($, .STERADIAN.)
   SOLID_ANGLE_UNIT ()
);
#650 = (
   NAMED_UNIT (*)
   PLANE_ANGLE_UNIT ()
   SI_UNIT ($, .RADIAN.)
);
#651 = SHAPE_REPRESENTATION('', (#666), #646);
#652 = PRODUCT_DEFINITION_SHAPE('', '', #653);
#653 = PRODUCT_DEFINITION('', '', #656, #660);
#654 = APPLICATION_CONTEXT('configuration controlled 3D designs of mechanical parts and assemblies');
#655 = APPLICATION_PROTOCOL_DEFINITION('International Standard', 'automotive_design', 2002, #654);
#656 = PRODUCT_DEFINITION_FORMATION_WITH_SPECIFIED_SOURCE('', '', #657, .NOT_KNOWN.);
#657 = PRODUCT('AllEdgeFillet', 'AllEdgeFillet', '', (#658));
#658 = PRODUCT_CONTEXT('', #654, 'mechanical');
#659 = PRODUCT_RELATED_PRODUCT_CATEGORY('detail', '', (#657));
#660 = PRODUCT_DEFINITION_CONTEXT('part definition', #654, 'design');
#661 = SHAPE_DEFINITION_REPRESENTATION(#652, #651);
#662 = SHAPE_REPRESENTATION_RELATIONSHIP('', '', #651, #663);
#663 = SHAPE_REPRESENTATION('', (#645), #646);
#664 = SHAPE_REPRESENTATION_RELATIONSHIP('', '', #651, #665);
#665 = ADVANCED_BREP_SHAPE_REPRESENTATION('', (#1), #646);
#666 = AXIS2_PLACEMENT_3D('', #667, #668, #669);
#667 = CARTESIAN_POINT('', (0., 0., 0.));
#668 = DIRECTION('', (0., 0., 1.));
#669 = DIRECTION('', (1., 0., 0.));
ENDSEC;
END-ISO-10303-21;
