ISO-10303-21;
HEADER;
FILE_DESCRIPTION(('STEP'), '1');
FILE_NAME('BoolFillet', '2026-04-15T15:16:50', (''), (''), 'Express 3.1.2.0', 'Express Tool', 'Unknown');
FILE_SCHEMA(('AUTOMOTIVE_DESIGN'));
ENDSEC;

DATA;
#1 = MANIFOLD_SOLID_BREP('Solid', #2);
#2 = CLOSED_SHELL('', (#3, #39, #83, #111, #147, #159, #171));
#3 = ADVANCED_FACE('', (#4), #34, .T.);
#4 = FACE_OUTER_BOUND('', #5, .T.);
#5 = EDGE_LOOP('', (#6, #15, #22, #29));
#6 = ORIENTED_EDGE('', *, *, #7, .T.);
#7 = EDGE_CURVE('', #8, #10, #12, .T.);
#8 = VERTEX_POINT('', #9);
#9 = CARTESIAN_POINT('', (-40., 30., -20.));
#10 = VERTEX_POINT('', #11);
#11 = CARTESIAN_POINT('', (-40., 30., 20.));
#12 = B_SPLINE_CURVE_WITH_KNOTS('', 1, (#13, #14), .UNSPECIFIED., .F., .U., (2, 2), (0., 40.), .UNSPECIFIED.);
#13 = CARTESIAN_POINT('', (-40., 30., -20.));
#14 = CARTESIAN_POINT('', (-40., 30., 20.));
#15 = ORIENTED_EDGE('', *, *, #16, .T.);
#16 = EDGE_CURVE('', #10, #17, #19, .T.);
#17 = VERTEX_POINT('', #18);
#18 = CARTESIAN_POINT('', (40., 30., 20.));
#19 = B_SPLINE_CURVE_WITH_KNOTS('', 1, (#20, #21), .UNSPECIFIED., .F., .U., (2, 2), (0., 80.), .UNSPECIFIED.);
#20 = CARTESIAN_POINT('', (-40., 30., 20.));
#21 = CARTESIAN_POINT('', (40., 30., 20.));
#22 = ORIENTED_EDGE('', *, *, #23, .F.);
#23 = EDGE_CURVE('', #24, #17, #26, .T.);
#24 = VERTEX_POINT('', #25);
#25 = CARTESIAN_POINT('', (40., 30., -20.));
#26 = B_SPLINE_CURVE_WITH_KNOTS('', 1, (#27, #28), .UNSPECIFIED., .F., .U., (2, 2), (0., 40.), .UNSPECIFIED.);
#27 = CARTESIAN_POINT('', (40., 30., -20.));
#28 = CARTESIAN_POINT('', (40., 30., 20.));
#29 = ORIENTED_EDGE('', *, *, #30, .F.);
#30 = EDGE_CURVE('', #8, #24, #31, .T.);
#31 = B_SPLINE_CURVE_WITH_KNOTS('', 1, (#32, #33), .UNSPECIFIED., .F., .U., (2, 2), (0., 80.), .UNSPECIFIED.);
#32 = CARTESIAN_POINT('', (-40., 30., -20.));
#33 = CARTESIAN_POINT('', (40., 30., -20.));
#34 = B_SPLINE_SURFACE_WITH_KNOTS('', 1, 1, ((#35, #36), (#37, #38)), .UNSPECIFIED., .F., .F., .U., (2, 2), (2, 2), (0., 40.), (0., 80.), .UNSPECIFIED.);
#35 = CARTESIAN_POINT('', (-40., 30., -20.));
#36 = CARTESIAN_POINT('', (40., 30., -20.));
#37 = CARTESIAN_POINT('', (-40., 30., 20.));
#38 = CARTESIAN_POINT('', (40., 30., 20.));
#39 = ADVANCED_FACE('', (#40, #62), #78, .T.);
#40 = FACE_OUTER_BOUND('', #41, .T.);
#41 = EDGE_LOOP('', (#42, #49, #56, #61));
#42 = ORIENTED_EDGE('', *, *, #43, .F.);
#43 = EDGE_CURVE('', #44, #10, #46, .T.);
#44 = VERTEX_POINT('', #45);
#45 = CARTESIAN_POINT('', (-40., -30., 20.));
#46 = B_SPLINE_CURVE_WITH_KNOTS('', 1, (#47, #48), .UNSPECIFIED., .F., .U., (2, 2), (0., 60.), .UNSPECIFIED.);
#47 = CARTESIAN_POINT('', (-40., -30., 20.));
#48 = CARTESIAN_POINT('', (-40., 30., 20.));
#49 = ORIENTED_EDGE('', *, *, #50, .T.);
#50 = EDGE_CURVE('', #44, #51, #53, .T.);
#51 = VERTEX_POINT('', #52);
#52 = CARTESIAN_POINT('', (40., -30., 20.));
#53 = B_SPLINE_CURVE_WITH_KNOTS('', 1, (#54, #55), .UNSPECIFIED., .F., .U., (2, 2), (0., 80.), .UNSPECIFIED.);
#54 = CARTESIAN_POINT('', (-40., -30., 20.));
#55 = CARTESIAN_POINT('', (40., -30., 20.));
#56 = ORIENTED_EDGE('', *, *, #57, .T.);
#57 = EDGE_CURVE('', #51, #17, #58, .T.);
#58 = B_SPLINE_CURVE_WITH_KNOTS('', 1, (#59, #60), .UNSPECIFIED., .F., .U., (2, 2), (0., 60.), .UNSPECIFIED.);
#59 = CARTESIAN_POINT('', (40., -30., 20.));
#60 = CARTESIAN_POINT('', (40., 30., 20.));
#61 = ORIENTED_EDGE('', *, *, #16, .F.);
#62 = FACE_BOUND('', #63, .T.);
#63 = EDGE_LOOP('', (#64));
#64 = ORIENTED_EDGE('', *, *, #65, .F.);
#65 = EDGE_CURVE('', #66, #66, #68, .T.);
#66 = VERTEX_POINT('', #67);
#67 = CARTESIAN_POINT('', (25., 10., 20.));
#68 = (
   BOUNDED_CURVE ()
   B_SPLINE_CURVE (2, (#69, #70, #71, #72, #73, #74, #75, #76, #77), .UNSPECIFIED., .T., .U.)
   B_SPLINE_CURVE_WITH_KNOTS ((3, 2, 2, 2, 3), (0., 0.25, 0.5, 0.75, 1.), .UNSPECIFIED.)
   CURVE ()
   GEOMETRIC_REPRESENTATION_ITEM ()
   RATIONAL_B_SPLINE_CURVE ((1., 0.707106781186548, 1., 0.707106781186548, 1., 0.707106781186548, 1., 0.707106781186548, 1.))
   REPRESENTATION_ITEM ('')
);
#69 = CARTESIAN_POINT('', (25., 10., 20.));
#70 = CARTESIAN_POINT('', (25., 20., 20.));
#71 = CARTESIAN_POINT('', (15., 20., 20.));
#72 = CARTESIAN_POINT('', (5., 20., 20.));
#73 = CARTESIAN_POINT('', (5., 10., 20.));
#74 = CARTESIAN_POINT('', (5., 1.80666351906064E-15, 20.));
#75 = CARTESIAN_POINT('', (15., 0., 20.));
#76 = CARTESIAN_POINT('', (25., -1.80666351906064E-15, 20.));
#77 = CARTESIAN_POINT('', (25., 10., 20.));
#78 = B_SPLINE_SURFACE_WITH_KNOTS('', 1, 1, ((#79, #80), (#81, #82)), .UNSPECIFIED., .F., .F., .U., (2, 2), (2, 2), (0., 80.), (0., 60.), .UNSPECIFIED.);
#79 = CARTESIAN_POINT('', (-40., -30., 20.));
#80 = CARTESIAN_POINT('', (-40., 30., 20.));
#81 = CARTESIAN_POINT('', (40., -30., 20.));
#82 = CARTESIAN_POINT('', (40., 30., 20.));
#83 = ADVANCED_FACE('', (#84), #106, .T.);
#84 = FACE_OUTER_BOUND('', #85, .T.);
#85 = EDGE_LOOP('', (#86, #93, #100, #105));
#86 = ORIENTED_EDGE('', *, *, #87, .F.);
#87 = EDGE_CURVE('', #88, #44, #90, .T.);
#88 = VERTEX_POINT('', #89);
#89 = CARTESIAN_POINT('', (-40., -30., -20.));
#90 = B_SPLINE_CURVE_WITH_KNOTS('', 1, (#91, #92), .UNSPECIFIED., .F., .U., (2, 2), (0., 40.), .UNSPECIFIED.);
#91 = CARTESIAN_POINT('', (-40., -30., -20.));
#92 = CARTESIAN_POINT('', (-40., -30., 20.));
#93 = ORIENTED_EDGE('', *, *, #94, .T.);
#94 = EDGE_CURVE('', #88, #95, #97, .T.);
#95 = VERTEX_POINT('', #96);
#96 = CARTESIAN_POINT('', (40., -30., -20.));
#97 = B_SPLINE_CURVE_WITH_KNOTS('', 1, (#98, #99), .UNSPECIFIED., .F., .U., (2, 2), (0., 80.), .UNSPECIFIED.);
#98 = CARTESIAN_POINT('', (-40., -30., -20.));
#99 = CARTESIAN_POINT('', (40., -30., -20.));
#100 = ORIENTED_EDGE('', *, *, #101, .T.);
#101 = EDGE_CURVE('', #95, #51, #102, .T.);
#102 = B_SPLINE_CURVE_WITH_KNOTS('', 1, (#103, #104), .UNSPECIFIED., .F., .U., (2, 2), (0., 40.), .UNSPECIFIED.);
#103 = CARTESIAN_POINT('', (40., -30., -20.));
#104 = CARTESIAN_POINT('', (40., -30., 20.));
#105 = ORIENTED_EDGE('', *, *, #50, .F.);
#106 = B_SPLINE_SURFACE_WITH_KNOTS('', 1, 1, ((#107, #108), (#109, #110)), .UNSPECIFIED., .F., .F., .U., (2, 2), (2, 2), (0., 80.), (0., 40.), .UNSPECIFIED.);
#107 = CARTESIAN_POINT('', (-40., -30., -20.));
#108 = CARTESIAN_POINT('', (-40., -30., 20.));
#109 = CARTESIAN_POINT('', (40., -30., -20.));
#110 = CARTESIAN_POINT('', (40., -30., 20.));
#111 = ADVANCED_FACE('', (#112, #126), #142, .T.);
#112 = FACE_OUTER_BOUND('', #113, .T.);
#113 = EDGE_LOOP('', (#114, #119, #120, #125));
#114 = ORIENTED_EDGE('', *, *, #115, .T.);
#115 = EDGE_CURVE('', #88, #8, #116, .T.);
#116 = B_SPLINE_CURVE_WITH_KNOTS('', 1, (#117, #118), .UNSPECIFIED., .F., .U., (2, 2), (0., 60.), .UNSPECIFIED.);
#117 = CARTESIAN_POINT('', (-40., -30., -20.));
#118 = CARTESIAN_POINT('', (-40., 30., -20.));
#119 = ORIENTED_EDGE('', *, *, #30, .T.);
#120 = ORIENTED_EDGE('', *, *, #121, .F.);
#121 = EDGE_CURVE('', #95, #24, #122, .T.);
#122 = B_SPLINE_CURVE_WITH_KNOTS('', 1, (#123, #124), .UNSPECIFIED., .F., .U., (2, 2), (0., 60.), .UNSPECIFIED.);
#123 = CARTESIAN_POINT('', (40., -30., -20.));
#124 = CARTESIAN_POINT('', (40., 30., -20.));
#125 = ORIENTED_EDGE('', *, *, #94, .F.);
#126 = FACE_BOUND('', #127, .T.);
#127 = EDGE_LOOP('', (#128));
#128 = ORIENTED_EDGE('', *, *, #129, .T.);
#129 = EDGE_CURVE('', #130, #130, #132, .T.);
#130 = VERTEX_POINT('', #131);
#131 = CARTESIAN_POINT('', (25., 10., -20.));
#132 = (
   BOUNDED_CURVE ()
   B_SPLINE_CURVE (2, (#133, #134, #135, #136, #137, #138, #139, #140, #141), .UNSPECIFIED., .T., .U.)
   B_SPLINE_CURVE_WITH_KNOTS ((3, 2, 2, 2, 3), (0., 0.25, 0.5, 0.75, 1.), .UNSPECIFIED.)
   CURVE ()
   GEOMETRIC_REPRESENTATION_ITEM ()
   RATIONAL_B_SPLINE_CURVE ((1., 0.707106781186548, 1., 0.707106781186548, 1., 0.707106781186548, 1., 0.707106781186548, 1.))
   REPRESENTATION_ITEM ('')
);
#133 = CARTESIAN_POINT('', (25., 10., -20.));
#134 = CARTESIAN_POINT('', (25., 20., -20.));
#135 = CARTESIAN_POINT('', (15., 20., -20.));
#136 = CARTESIAN_POINT('', (5., 20., -20.));
#137 = CARTESIAN_POINT('', (5., 10., -20.));
#138 = CARTESIAN_POINT('', (5., 1.80666351906064E-15, -20.));
#139 = CARTESIAN_POINT('', (15., 0., -20.));
#140 = CARTESIAN_POINT('', (25., -1.80666351906064E-15, -20.));
#141 = CARTESIAN_POINT('', (25., 10., -20.));
#142 = B_SPLINE_SURFACE_WITH_KNOTS('', 1, 1, ((#143, #144), (#145, #146)), .UNSPECIFIED., .F., .F., .U., (2, 2), (2, 2), (0., 60.), (0., 80.), .UNSPECIFIED.);
#143 = CARTESIAN_POINT('', (-40., -30., -20.));
#144 = CARTESIAN_POINT('', (40., -30., -20.));
#145 = CARTESIAN_POINT('', (-40., 30., -20.));
#146 = CARTESIAN_POINT('', (40., 30., -20.));
#147 = ADVANCED_FACE('', (#148), #154, .T.);
#148 = FACE_OUTER_BOUND('', #149, .T.);
#149 = EDGE_LOOP('', (#150, #151, #152, #153));
#150 = ORIENTED_EDGE('', *, *, #101, .F.);
#151 = ORIENTED_EDGE('', *, *, #121, .T.);
#152 = ORIENTED_EDGE('', *, *, #23, .T.);
#153 = ORIENTED_EDGE('', *, *, #57, .F.);
#154 = B_SPLINE_SURFACE_WITH_KNOTS('', 1, 1, ((#155, #156), (#157, #158)), .UNSPECIFIED., .F., .F., .U., (2, 2), (2, 2), (0., 60.), (0., 40.), .UNSPECIFIED.);
#155 = CARTESIAN_POINT('', (40., -30., -20.));
#156 = CARTESIAN_POINT('', (40., -30., 20.));
#157 = CARTESIAN_POINT('', (40., 30., -20.));
#158 = CARTESIAN_POINT('', (40., 30., 20.));
#159 = ADVANCED_FACE('', (#160), #166, .T.);
#160 = FACE_OUTER_BOUND('', #161, .T.);
#161 = EDGE_LOOP('', (#162, #163, #164, #165));
#162 = ORIENTED_EDGE('', *, *, #87, .T.);
#163 = ORIENTED_EDGE('', *, *, #43, .T.);
#164 = ORIENTED_EDGE('', *, *, #7, .F.);
#165 = ORIENTED_EDGE('', *, *, #115, .F.);
#166 = B_SPLINE_SURFACE_WITH_KNOTS('', 1, 1, ((#167, #168), (#169, #170)), .UNSPECIFIED., .F., .F., .U., (2, 2), (2, 2), (0., 40.), (0., 60.), .UNSPECIFIED.);
#167 = CARTESIAN_POINT('', (-40., -30., -20.));
#168 = CARTESIAN_POINT('', (-40., 30., -20.));
#169 = CARTESIAN_POINT('', (-40., -30., 20.));
#170 = CARTESIAN_POINT('', (-40., 30., 20.));
#171 = ADVANCED_FACE('', (#172), #182, .F.);
#172 = FACE_OUTER_BOUND('', #173, .F.);
#173 = EDGE_LOOP('', (#174, #175, #180, #181));
#174 = ORIENTED_EDGE('', *, *, #65, .F.);
#175 = ORIENTED_EDGE('', *, *, #176, .F.);
#176 = EDGE_CURVE('', #130, #66, #177, .T.);
#177 = B_SPLINE_CURVE_WITH_KNOTS('', 1, (#178, #179), .UNSPECIFIED., .F., .U., (2, 2), (10., 50.), .UNSPECIFIED.);
#178 = CARTESIAN_POINT('', (25., 10., -20.));
#179 = CARTESIAN_POINT('', (25., 10., 20.));
#180 = ORIENTED_EDGE('', *, *, #129, .T.);
#181 = ORIENTED_EDGE('', *, *, #176, .T.);
#182 = (
   BOUNDED_SURFACE ()
   B_SPLINE_SURFACE (2, 1, ((#183, #184), (#185, #186), (#187, #188), (#189, #190), (#191, #192), (#193, #194), (#195, #196), (#197, #198), (#199, #200)), .UNSPECIFIED., .T., .F., .U.)
   B_SPLINE_SURFACE_WITH_KNOTS ((3, 2, 2, 2, 3), (2, 2), (0., 15.707963267949, 31.4159265358979, 47.1238898038469, 62.8318530717959), (0., 60.), .UNSPECIFIED.)
   GEOMETRIC_REPRESENTATION_ITEM ()
   RATIONAL_B_SPLINE_SURFACE (((1., 1.), (0.707106781186548, 0.707106781186548), (1., 1.), (0.707106781186548, 0.707106781186548), (1., 1.), (0.707106781186548, 0.707106781186548), (1., 1.), (0.707106781186548, 0.707106781186548), (1., 1.)))
   REPRESENTATION_ITEM ('')
   SURFACE ()
);
#183 = CARTESIAN_POINT('', (25., 10., -30.));
#184 = CARTESIAN_POINT('', (25., 10., 30.));
#185 = CARTESIAN_POINT('', (25., 20., -30.));
#186 = CARTESIAN_POINT('', (25., 20., 30.));
#187 = CARTESIAN_POINT('', (15., 20., -30.));
#188 = CARTESIAN_POINT('', (15., 20., 30.));
#189 = CARTESIAN_POINT('', (5., 20., -30.));
#190 = CARTESIAN_POINT('', (5., 20., 30.));
#191 = CARTESIAN_POINT('', (5., 10., -30.));
#192 = CARTESIAN_POINT('', (5., 10., 30.));
#193 = CARTESIAN_POINT('', (5., 1.77635683940025E-15, -30.));
#194 = CARTESIAN_POINT('', (5., 1.77635683940025E-15, 30.));
#195 = CARTESIAN_POINT('', (15., 0., -30.));
#196 = CARTESIAN_POINT('', (15., 0., 30.));
#197 = CARTESIAN_POINT('', (25., -1.77635683940025E-15, -30.));
#198 = CARTESIAN_POINT('', (25., -1.77635683940025E-15, 30.));
#199 = CARTESIAN_POINT('', (25., 10., -30.));
#200 = CARTESIAN_POINT('', (25., 10., 30.));
#201 = DRAUGHTING_MODEL('', (#209), #212);
#202 = PRESENTATION_STYLE_ASSIGNMENT((#203));
#203 = SURFACE_STYLE_USAGE(.POSITIVE., #204);
#204 = SURFACE_SIDE_STYLE('', (#205));
#205 = SURFACE_STYLE_FILL_AREA(#206);
#206 = FILL_AREA_STYLE('', (#207));
#207 = FILL_AREA_STYLE_COLOUR('', #208);
#208 = COLOUR_RGB('', 0.50196078431373, 0.50196078431373, 0.50196078431373);
#209 = STYLED_ITEM('', (#202), #1);
#210 = CARTESIAN_POINT('Origin', (0., 0., 0.));
#211 = GEOMETRIC_SET('', (#210));
#212 = (
   GEOMETRIC_REPRESENTATION_CONTEXT (3)
   GLOBAL_UNCERTAINTY_ASSIGNED_CONTEXT ((#214))
   GLOBAL_UNIT_ASSIGNED_CONTEXT ((#213, #215, #216))
   REPRESENTATION_CONTEXT ('', '3D')
);
#213 = (
   LENGTH_UNIT ()
   NAMED_UNIT (*)
   SI_UNIT (.MILLI., .METRE.)
);
#214 = UNCERTAINTY_MEASURE_WITH_UNIT(LENGTH_MEASURE(1.E-6), #213, 'DISTANCE_ACCURACY_VALUE', '');
#215 = (
   NAMED_UNIT (*)
   SI_UNIT ($, .STERADIAN.)
   SOLID_ANGLE_UNIT ()
);
#216 = (
   NAMED_UNIT (*)
   PLANE_ANGLE_UNIT ()
   SI_UNIT ($, .RADIAN.)
);
#217 = SHAPE_REPRESENTATION('', (#232), #212);
#218 = PRODUCT_DEFINITION_SHAPE('', '', #219);
#219 = PRODUCT_DEFINITION('', '', #222, #226);
#220 = APPLICATION_CONTEXT('configuration controlled 3D designs of mechanical parts and assemblies');
#221 = APPLICATION_PROTOCOL_DEFINITION('International Standard', 'automotive_design', 2002, #220);
#222 = PRODUCT_DEFINITION_FORMATION_WITH_SPECIFIED_SOURCE('', '', #223, .NOT_KNOWN.);
#223 = PRODUCT('BoolFillet', 'BoolFillet', '', (#224));
#224 = PRODUCT_CONTEXT('', #220, 'mechanical');
#225 = PRODUCT_RELATED_PRODUCT_CATEGORY('detail', '', (#223));
#226 = PRODUCT_DEFINITION_CONTEXT('part definition', #220, 'design');
#227 = SHAPE_DEFINITION_REPRESENTATION(#218, #217);
#228 = SHAPE_REPRESENTATION_RELATIONSHIP('', '', #217, #229);
#229 = SHAPE_REPRESENTATION('', (#211), #212);
#230 = SHAPE_REPRESENTATION_RELATIONSHIP('', '', #217, #231);
#231 = ADVANCED_BREP_SHAPE_REPRESENTATION('', (#1), #212);
#232 = AXIS2_PLACEMENT_3D('', #233, #234, #235);
#233 = CARTESIAN_POINT('', (0., 0., 0.));
#234 = DIRECTION('', (0., 0., 1.));
#235 = DIRECTION('', (1., 0., 0.));
ENDSEC;
END-ISO-10303-21;
