ISO-10303-21;
HEADER;
FILE_DESCRIPTION(('STEP'), '1');
FILE_NAME('BoolFillet', '2026-04-15T15:16:50', (''), (''), 'Express 3.1.2.0', 'Express Tool', 'Unknown');
FILE_SCHEMA(('AUTOMOTIVE_DESIGN'));
ENDSEC;

DATA;
#1 = MANIFOLD_SOLID_BREP('Solid', #2);
#2 = CLOSED_SHELL('', (#3, #69, #135, #174, #202, #233, #253, #265, #277));
#3 = ADVANCED_FACE('', (#4), #41, .T.);
#4 = FACE_OUTER_BOUND('', #5, .T.);
#5 = EDGE_LOOP('', (#6, #20, #28, #40));
#6 = ORIENTED_EDGE('', *, *, #7, .T.);
#7 = EDGE_CURVE('', #8, #8, #10, .T.);
#8 = VERTEX_POINT('', #9);
#9 = CARTESIAN_POINT('', (28., 10., 20.));
#10 = (
   BOUNDED_CURVE ()
   B_SPLINE_CURVE (2, (#11, #12, #13, #14, #15, #16, #17, #18, #19), .UNSPECIFIED., .T., .U.)
   B_SPLINE_CURVE_WITH_KNOTS ((3, 2, 2, 2, 3), (0., 0.25, 0.5, 0.75, 1.), .UNSPECIFIED.)
   CURVE ()
   GEOMETRIC_REPRESENTATION_ITEM ()
   RATIONAL_B_SPLINE_CURVE ((1., 0.707106781186548, 1., 0.707106781186548, 1., 0.707106781186548, 1., 0.707106781186548, 1.))
   REPRESENTATION_ITEM ('')
);
#11 = CARTESIAN_POINT('', (28., 10., 20.));
#12 = CARTESIAN_POINT('', (28., 23., 20.));
#13 = CARTESIAN_POINT('', (15., 23., 20.));
#14 = CARTESIAN_POINT('', (2., 23., 20.));
#15 = CARTESIAN_POINT('', (2., 10., 20.));
#16 = CARTESIAN_POINT('', (2., -3., 20.));
#17 = CARTESIAN_POINT('', (15., -3., 20.));
#18 = CARTESIAN_POINT('', (28., -3., 20.));
#19 = CARTESIAN_POINT('', (28., 10., 20.));
#20 = ORIENTED_EDGE('', *, *, #21, .F.);
#21 = EDGE_CURVE('', #22, #8, #24, .T.);
#22 = VERTEX_POINT('', #23);
#23 = CARTESIAN_POINT('', (25., 10., 17.));
#24 = (
   BOUNDED_CURVE ()
   B_SPLINE_CURVE (2, (#25, #26, #27), .UNSPECIFIED., .F., .U.)
   B_SPLINE_CURVE_WITH_KNOTS ((3, 3), (0., 1.), .UNSPECIFIED.)
   CURVE ()
   GEOMETRIC_REPRESENTATION_ITEM ()
   RATIONAL_B_SPLINE_CURVE ((1., 0.707106781186548, 1.))
   REPRESENTATION_ITEM ('')
);
#25 = CARTESIAN_POINT('', (25., 10., 17.));
#26 = CARTESIAN_POINT('', (25., 10., 20.));
#27 = CARTESIAN_POINT('', (28., 10., 20.));
#28 = ORIENTED_EDGE('', *, *, #29, .F.);
#29 = EDGE_CURVE('', #22, #22, #30, .T.);
#30 = (
   BOUNDED_CURVE ()
   B_SPLINE_CURVE (2, (#31, #32, #33, #34, #35, #36, #37, #38, #39), .UNSPECIFIED., .T., .U.)
   B_SPLINE_CURVE_WITH_KNOTS ((3, 2, 2, 2, 3), (0., 0.25, 0.5, 0.75, 1.), .UNSPECIFIED.)
   CURVE ()
   GEOMETRIC_REPRESENTATION_ITEM ()
   RATIONAL_B_SPLINE_CURVE ((1., 0.707106781186548, 1., 0.707106781186548, 1., 0.707106781186548, 1., 0.707106781186548, 1.))
   REPRESENTATION_ITEM ('')
);
#31 = CARTESIAN_POINT('', (25., 10., 17.));
#32 = CARTESIAN_POINT('', (25., 20., 17.));
#33 = CARTESIAN_POINT('', (15., 20., 17.));
#34 = CARTESIAN_POINT('', (5., 20., 17.));
#35 = CARTESIAN_POINT('', (5., 10., 17.));
#36 = CARTESIAN_POINT('', (5., 1.80666351906064E-15, 17.));
#37 = CARTESIAN_POINT('', (15., 0., 17.));
#38 = CARTESIAN_POINT('', (25., -1.80666351906064E-15, 17.));
#39 = CARTESIAN_POINT('', (25., 10., 17.));
#40 = ORIENTED_EDGE('', *, *, #21, .T.);
#41 = (
   BOUNDED_SURFACE ()
   B_SPLINE_SURFACE (2, 2, ((#42, #43, #44), (#45, #46, #47), (#48, #49, #50), (#51, #52, #53), (#54, #55, #56), (#57, #58, #59), (#60, #61, #62), (#63, #64, #65), (#66, #67, #68)), .UNSPECIFIED., .T., .F., .U.)
   B_SPLINE_SURFACE_WITH_KNOTS ((3, 2, 2, 2, 3), (3, 3), (0., 0.25, 0.5, 0.75, 1.), (0., 1.), .UNSPECIFIED.)
   GEOMETRIC_REPRESENTATION_ITEM ()
   RATIONAL_B_SPLINE_SURFACE (((1., 0.707106781186548, 1.), (0.707106781186548, 0.5, 0.707106781186548), (1., 0.707106781186548, 1.), (0.707106781186548, 0.5, 0.707106781186548), (1., 0.707106781186548, 1.), (0.707106781186548, 0.5, 0.707106781186548), (1., 0.707106781186548, 1.), (0.707106781186548, 0.5, 0.707106781186548), (1., 0.707106781186548, 1.)))
   REPRESENTATION_ITEM ('')
   SURFACE ()
);
#42 = CARTESIAN_POINT('', (28., 10., 20.));
#43 = CARTESIAN_POINT('', (25., 10., 20.));
#44 = CARTESIAN_POINT('', (25., 10., 17.));
#45 = CARTESIAN_POINT('', (28., 23., 20.));
#46 = CARTESIAN_POINT('', (25., 20., 20.));
#47 = CARTESIAN_POINT('', (25., 20., 17.));
#48 = CARTESIAN_POINT('', (15., 23., 20.));
#49 = CARTESIAN_POINT('', (15., 20., 20.));
#50 = CARTESIAN_POINT('', (15., 20., 17.));
#51 = CARTESIAN_POINT('', (2., 23., 20.));
#52 = CARTESIAN_POINT('', (5., 20., 20.));
#53 = CARTESIAN_POINT('', (5., 20., 17.));
#54 = CARTESIAN_POINT('', (2., 10., 20.));
#55 = CARTESIAN_POINT('', (5., 10., 20.));
#56 = CARTESIAN_POINT('', (5., 10., 17.));
#57 = CARTESIAN_POINT('', (2., -3., 20.));
#58 = CARTESIAN_POINT('', (5., 1.80666351906064E-15, 20.));
#59 = CARTESIAN_POINT('', (5., 1.80666351906064E-15, 17.));
#60 = CARTESIAN_POINT('', (15., -3., 20.));
#61 = CARTESIAN_POINT('', (15., 0., 20.));
#62 = CARTESIAN_POINT('', (15., 0., 17.));
#63 = CARTESIAN_POINT('', (28., -3., 20.));
#64 = CARTESIAN_POINT('', (25., -1.80666351906064E-15, 20.));
#65 = CARTESIAN_POINT('', (25., -1.80666351906064E-15, 17.));
#66 = CARTESIAN_POINT('', (28., 10., 20.));
#67 = CARTESIAN_POINT('', (25., 10., 20.));
#68 = CARTESIAN_POINT('', (25., 10., 17.));
#69 = ADVANCED_FACE('', (#70), #107, .T.);
#70 = FACE_OUTER_BOUND('', #71, .T.);
#71 = EDGE_LOOP('', (#72, #86, #94, #106));
#72 = ORIENTED_EDGE('', *, *, #73, .T.);
#73 = EDGE_CURVE('', #74, #74, #76, .T.);
#74 = VERTEX_POINT('', #75);
#75 = CARTESIAN_POINT('', (25., 10., -17.));
#76 = (
   BOUNDED_CURVE ()
   B_SPLINE_CURVE (2, (#77, #78, #79, #80, #81, #82, #83, #84, #85), .UNSPECIFIED., .T., .U.)
   B_SPLINE_CURVE_WITH_KNOTS ((3, 2, 2, 2, 3), (0., 0.25, 0.5, 0.75, 1.), .UNSPECIFIED.)
   CURVE ()
   GEOMETRIC_REPRESENTATION_ITEM ()
   RATIONAL_B_SPLINE_CURVE ((1., 0.707106781186548, 1., 0.707106781186548, 1., 0.707106781186548, 1., 0.707106781186548, 1.))
   REPRESENTATION_ITEM ('')
);
#77 = CARTESIAN_POINT('', (25., 10., -17.));
#78 = CARTESIAN_POINT('', (25., 20., -17.));
#79 = CARTESIAN_POINT('', (15., 20., -17.));
#80 = CARTESIAN_POINT('', (5., 20., -17.));
#81 = CARTESIAN_POINT('', (5., 10., -17.));
#82 = CARTESIAN_POINT('', (5., 1.80666351906064E-15, -17.));
#83 = CARTESIAN_POINT('', (15., 0., -17.));
#84 = CARTESIAN_POINT('', (25., -1.80666351906064E-15, -17.));
#85 = CARTESIAN_POINT('', (25., 10., -17.));
#86 = ORIENTED_EDGE('', *, *, #87, .T.);
#87 = EDGE_CURVE('', #74, #88, #90, .T.);
#88 = VERTEX_POINT('', #89);
#89 = CARTESIAN_POINT('', (28., 10., -20.));
#90 = (
   BOUNDED_CURVE ()
   B_SPLINE_CURVE (2, (#91, #92, #93), .UNSPECIFIED., .F., .U.)
   B_SPLINE_CURVE_WITH_KNOTS ((3, 3), (0., 1.), .UNSPECIFIED.)
   CURVE ()
   GEOMETRIC_REPRESENTATION_ITEM ()
   RATIONAL_B_SPLINE_CURVE ((1., 0.707106781186548, 1.))
   REPRESENTATION_ITEM ('')
);
#91 = CARTESIAN_POINT('', (25., 10., -17.));
#92 = CARTESIAN_POINT('', (25., 10., -20.));
#93 = CARTESIAN_POINT('', (28., 10., -20.));
#94 = ORIENTED_EDGE('', *, *, #95, .F.);
#95 = EDGE_CURVE('', #88, #88, #96, .T.);
#96 = (
   BOUNDED_CURVE ()
   B_SPLINE_CURVE (2, (#97, #98, #99, #100, #101, #102, #103, #104, #105), .UNSPECIFIED., .T., .U.)
   B_SPLINE_CURVE_WITH_KNOTS ((3, 2, 2, 2, 3), (0., 0.25, 0.5, 0.75, 1.), .UNSPECIFIED.)
   CURVE ()
   GEOMETRIC_REPRESENTATION_ITEM ()
   RATIONAL_B_SPLINE_CURVE ((1., 0.707106781186548, 1., 0.707106781186548, 1., 0.707106781186548, 1., 0.707106781186548, 1.))
   REPRESENTATION_ITEM ('')
);
#97 = CARTESIAN_POINT('', (28., 10., -20.));
#98 = CARTESIAN_POINT('', (28., 23., -20.));
#99 = CARTESIAN_POINT('', (15., 23., -20.));
#100 = CARTESIAN_POINT('', (2., 23., -20.));
#101 = CARTESIAN_POINT('', (2., 10., -20.));
#102 = CARTESIAN_POINT('', (2., -3., -20.));
#103 = CARTESIAN_POINT('', (15., -3., -20.));
#104 = CARTESIAN_POINT('', (28., -3., -20.));
#105 = CARTESIAN_POINT('', (28., 10., -20.));
#106 = ORIENTED_EDGE('', *, *, #87, .F.);
#107 = (
   BOUNDED_SURFACE ()
   B_SPLINE_SURFACE (2, 2, ((#108, #109, #110), (#111, #112, #113), (#114, #115, #116), (#117, #118, #119), (#120, #121, #122), (#123, #124, #125), (#126, #127, #128), (#129, #130, #131), (#132, #133, #134)), .UNSPECIFIED., .T., .F., .U.)
   B_SPLINE_SURFACE_WITH_KNOTS ((3, 2, 2, 2, 3), (3, 3), (0., 0.25, 0.5, 0.75, 1.), (0., 1.), .UNSPECIFIED.)
   GEOMETRIC_REPRESENTATION_ITEM ()
   RATIONAL_B_SPLINE_SURFACE (((1., 0.707106781186548, 1.), (0.707106781186548, 0.5, 0.707106781186548), (1., 0.707106781186548, 1.), (0.707106781186548, 0.5, 0.707106781186548), (1., 0.707106781186548, 1.), (0.707106781186548, 0.5, 0.707106781186548), (1., 0.707106781186548, 1.), (0.707106781186548, 0.5, 0.707106781186548), (1., 0.707106781186548, 1.)))
   REPRESENTATION_ITEM ('')
   SURFACE ()
);
#108 = CARTESIAN_POINT('', (25., 10., -17.));
#109 = CARTESIAN_POINT('', (25., 10., -20.));
#110 = CARTESIAN_POINT('', (28., 10., -20.));
#111 = CARTESIAN_POINT('', (25., 20., -17.));
#112 = CARTESIAN_POINT('', (25., 20., -20.));
#113 = CARTESIAN_POINT('', (28., 23., -20.));
#114 = CARTESIAN_POINT('', (15., 20., -17.));
#115 = CARTESIAN_POINT('', (15., 20., -20.));
#116 = CARTESIAN_POINT('', (15., 23., -20.));
#117 = CARTESIAN_POINT('', (5., 20., -17.));
#118 = CARTESIAN_POINT('', (5., 20., -20.));
#119 = CARTESIAN_POINT('', (2., 23., -20.));
#120 = CARTESIAN_POINT('', (5., 10., -17.));
#121 = CARTESIAN_POINT('', (5., 10., -20.));
#122 = CARTESIAN_POINT('', (2., 10., -20.));
#123 = CARTESIAN_POINT('', (5., 1.80666351906064E-15, -17.));
#124 = CARTESIAN_POINT('', (5., 3.58302035846089E-15, -20.));
#125 = CARTESIAN_POINT('', (2., -3., -20.));
#126 = CARTESIAN_POINT('', (15., 0., -17.));
#127 = CARTESIAN_POINT('', (15., 0., -20.));
#128 = CARTESIAN_POINT('', (15., -3., -20.));
#129 = CARTESIAN_POINT('', (25., -1.80666351906064E-15, -17.));
#130 = CARTESIAN_POINT('', (25., -3.58302035846089E-15, -20.));
#131 = CARTESIAN_POINT('', (28., -3., -20.));
#132 = CARTESIAN_POINT('', (25., 10., -17.));
#133 = CARTESIAN_POINT('', (25., 10., -20.));
#134 = CARTESIAN_POINT('', (28., 10., -20.));
#135 = ADVANCED_FACE('', (#136, #166), #169, .T.);
#136 = FACE_OUTER_BOUND('', #137, .T.);
#137 = EDGE_LOOP('', (#138, #147, #154, #161));
#138 = ORIENTED_EDGE('', *, *, #139, .F.);
#139 = EDGE_CURVE('', #140, #142, #144, .T.);
#140 = VERTEX_POINT('', #141);
#141 = CARTESIAN_POINT('', (-40., -30., 20.));
#142 = VERTEX_POINT('', #143);
#143 = CARTESIAN_POINT('', (-40., 30., 20.));
#144 = B_SPLINE_CURVE_WITH_KNOTS('', 1, (#145, #146), .UNSPECIFIED., .F., .U., (2, 2), (0., 60.), .UNSPECIFIED.);
#145 = CARTESIAN_POINT('', (-40., -30., 20.));
#146 = CARTESIAN_POINT('', (-40., 30., 20.));
#147 = ORIENTED_EDGE('', *, *, #148, .T.);
#148 = EDGE_CURVE('', #140, #149, #151, .T.);
#149 = VERTEX_POINT('', #150);
#150 = CARTESIAN_POINT('', (40., -30., 20.));
#151 = B_SPLINE_CURVE_WITH_KNOTS('', 1, (#152, #153), .UNSPECIFIED., .F., .U., (2, 2), (0., 80.), .UNSPECIFIED.);
#152 = CARTESIAN_POINT('', (-40., -30., 20.));
#153 = CARTESIAN_POINT('', (40., -30., 20.));
#154 = ORIENTED_EDGE('', *, *, #155, .T.);
#155 = EDGE_CURVE('', #149, #156, #158, .T.);
#156 = VERTEX_POINT('', #157);
#157 = CARTESIAN_POINT('', (40., 30., 20.));
#158 = B_SPLINE_CURVE_WITH_KNOTS('', 1, (#159, #160), .UNSPECIFIED., .F., .U., (2, 2), (0., 60.), .UNSPECIFIED.);
#159 = CARTESIAN_POINT('', (40., -30., 20.));
#160 = CARTESIAN_POINT('', (40., 30., 20.));
#161 = ORIENTED_EDGE('', *, *, #162, .F.);
#162 = EDGE_CURVE('', #142, #156, #163, .T.);
#163 = B_SPLINE_CURVE_WITH_KNOTS('', 1, (#164, #165), .UNSPECIFIED., .F., .U., (2, 2), (0., 80.), .UNSPECIFIED.);
#164 = CARTESIAN_POINT('', (-40., 30., 20.));
#165 = CARTESIAN_POINT('', (40., 30., 20.));
#166 = FACE_BOUND('', #167, .T.);
#167 = EDGE_LOOP('', (#168));
#168 = ORIENTED_EDGE('', *, *, #7, .F.);
#169 = B_SPLINE_SURFACE_WITH_KNOTS('', 1, 1, ((#170, #171), (#172, #173)), .UNSPECIFIED., .F., .F., .U., (2, 2), (2, 2), (0., 80.), (0., 60.), .UNSPECIFIED.);
#170 = CARTESIAN_POINT('', (-40., -30., 20.));
#171 = CARTESIAN_POINT('', (-40., 30., 20.));
#172 = CARTESIAN_POINT('', (40., -30., 20.));
#173 = CARTESIAN_POINT('', (40., 30., 20.));
#174 = ADVANCED_FACE('', (#175), #197, .T.);
#175 = FACE_OUTER_BOUND('', #176, .T.);
#176 = EDGE_LOOP('', (#177, #184, #191, #196));
#177 = ORIENTED_EDGE('', *, *, #178, .F.);
#178 = EDGE_CURVE('', #179, #149, #181, .T.);
#179 = VERTEX_POINT('', #180);
#180 = CARTESIAN_POINT('', (40., -30., -20.));
#181 = B_SPLINE_CURVE_WITH_KNOTS('', 1, (#182, #183), .UNSPECIFIED., .F., .U., (2, 2), (0., 40.), .UNSPECIFIED.);
#182 = CARTESIAN_POINT('', (40., -30., -20.));
#183 = CARTESIAN_POINT('', (40., -30., 20.));
#184 = ORIENTED_EDGE('', *, *, #185, .T.);
#185 = EDGE_CURVE('', #179, #186, #188, .T.);
#186 = VERTEX_POINT('', #187);
#187 = CARTESIAN_POINT('', (40., 30., -20.));
#188 = B_SPLINE_CURVE_WITH_KNOTS('', 1, (#189, #190), .UNSPECIFIED., .F., .U., (2, 2), (0., 60.), .UNSPECIFIED.);
#189 = CARTESIAN_POINT('', (40., -30., -20.));
#190 = CARTESIAN_POINT('', (40., 30., -20.));
#191 = ORIENTED_EDGE('', *, *, #192, .T.);
#192 = EDGE_CURVE('', #186, #156, #193, .T.);
#193 = B_SPLINE_CURVE_WITH_KNOTS('', 1, (#194, #195), .UNSPECIFIED., .F., .U., (2, 2), (0., 40.), .UNSPECIFIED.);
#194 = CARTESIAN_POINT('', (40., 30., -20.));
#195 = CARTESIAN_POINT('', (40., 30., 20.));
#196 = ORIENTED_EDGE('', *, *, #155, .F.);
#197 = B_SPLINE_SURFACE_WITH_KNOTS('', 1, 1, ((#198, #199), (#200, #201)), .UNSPECIFIED., .F., .F., .U., (2, 2), (2, 2), (0., 60.), (0., 40.), .UNSPECIFIED.);
#198 = CARTESIAN_POINT('', (40., -30., -20.));
#199 = CARTESIAN_POINT('', (40., -30., 20.));
#200 = CARTESIAN_POINT('', (40., 30., -20.));
#201 = CARTESIAN_POINT('', (40., 30., 20.));
#202 = ADVANCED_FACE('', (#203, #225), #228, .T.);
#203 = FACE_OUTER_BOUND('', #204, .T.);
#204 = EDGE_LOOP('', (#205, #214, #219, #220));
#205 = ORIENTED_EDGE('', *, *, #206, .T.);
#206 = EDGE_CURVE('', #207, #209, #211, .T.);
#207 = VERTEX_POINT('', #208);
#208 = CARTESIAN_POINT('', (-40., -30., -20.));
#209 = VERTEX_POINT('', #210);
#210 = CARTESIAN_POINT('', (-40., 30., -20.));
#211 = B_SPLINE_CURVE_WITH_KNOTS('', 1, (#212, #213), .UNSPECIFIED., .F., .U., (2, 2), (0., 60.), .UNSPECIFIED.);
#212 = CARTESIAN_POINT('', (-40., -30., -20.));
#213 = CARTESIAN_POINT('', (-40., 30., -20.));
#214 = ORIENTED_EDGE('', *, *, #215, .T.);
#215 = EDGE_CURVE('', #209, #186, #216, .T.);
#216 = B_SPLINE_CURVE_WITH_KNOTS('', 1, (#217, #218), .UNSPECIFIED., .F., .U., (2, 2), (0., 80.), .UNSPECIFIED.);
#217 = CARTESIAN_POINT('', (-40., 30., -20.));
#218 = CARTESIAN_POINT('', (40., 30., -20.));
#219 = ORIENTED_EDGE('', *, *, #185, .F.);
#220 = ORIENTED_EDGE('', *, *, #221, .F.);
#221 = EDGE_CURVE('', #207, #179, #222, .T.);
#222 = B_SPLINE_CURVE_WITH_KNOTS('', 1, (#223, #224), .UNSPECIFIED., .F., .U., (2, 2), (0., 80.), .UNSPECIFIED.);
#223 = CARTESIAN_POINT('', (-40., -30., -20.));
#224 = CARTESIAN_POINT('', (40., -30., -20.));
#225 = FACE_BOUND('', #226, .T.);
#226 = EDGE_LOOP('', (#227));
#227 = ORIENTED_EDGE('', *, *, #95, .T.);
#228 = B_SPLINE_SURFACE_WITH_KNOTS('', 1, 1, ((#229, #230), (#231, #232)), .UNSPECIFIED., .F., .F., .U., (2, 2), (2, 2), (0., 60.), (0., 80.), .UNSPECIFIED.);
#229 = CARTESIAN_POINT('', (-40., -30., -20.));
#230 = CARTESIAN_POINT('', (40., -30., -20.));
#231 = CARTESIAN_POINT('', (-40., 30., -20.));
#232 = CARTESIAN_POINT('', (40., 30., -20.));
#233 = ADVANCED_FACE('', (#234), #248, .T.);
#234 = FACE_OUTER_BOUND('', #235, .T.);
#235 = EDGE_LOOP('', (#236, #241, #242, #247));
#236 = ORIENTED_EDGE('', *, *, #237, .T.);
#237 = EDGE_CURVE('', #207, #140, #238, .T.);
#238 = B_SPLINE_CURVE_WITH_KNOTS('', 1, (#239, #240), .UNSPECIFIED., .F., .U., (2, 2), (0., 40.), .UNSPECIFIED.);
#239 = CARTESIAN_POINT('', (-40., -30., -20.));
#240 = CARTESIAN_POINT('', (-40., -30., 20.));
#241 = ORIENTED_EDGE('', *, *, #139, .T.);
#242 = ORIENTED_EDGE('', *, *, #243, .F.);
#243 = EDGE_CURVE('', #209, #142, #244, .T.);
#244 = B_SPLINE_CURVE_WITH_KNOTS('', 1, (#245, #246), .UNSPECIFIED., .F., .U., (2, 2), (0., 40.), .UNSPECIFIED.);
#245 = CARTESIAN_POINT('', (-40., 30., -20.));
#246 = CARTESIAN_POINT('', (-40., 30., 20.));
#247 = ORIENTED_EDGE('', *, *, #206, .F.);
#248 = B_SPLINE_SURFACE_WITH_KNOTS('', 1, 1, ((#249, #250), (#251, #252)), .UNSPECIFIED., .F., .F., .U., (2, 2), (2, 2), (0., 40.), (0., 60.), .UNSPECIFIED.);
#249 = CARTESIAN_POINT('', (-40., -30., -20.));
#250 = CARTESIAN_POINT('', (-40., 30., -20.));
#251 = CARTESIAN_POINT('', (-40., -30., 20.));
#252 = CARTESIAN_POINT('', (-40., 30., 20.));
#253 = ADVANCED_FACE('', (#254), #260, .T.);
#254 = FACE_OUTER_BOUND('', #255, .T.);
#255 = EDGE_LOOP('', (#256, #257, #258, #259));
#256 = ORIENTED_EDGE('', *, *, #243, .T.);
#257 = ORIENTED_EDGE('', *, *, #162, .T.);
#258 = ORIENTED_EDGE('', *, *, #192, .F.);
#259 = ORIENTED_EDGE('', *, *, #215, .F.);
#260 = B_SPLINE_SURFACE_WITH_KNOTS('', 1, 1, ((#261, #262), (#263, #264)), .UNSPECIFIED., .F., .F., .U., (2, 2), (2, 2), (0., 40.), (0., 80.), .UNSPECIFIED.);
#261 = CARTESIAN_POINT('', (-40., 30., -20.));
#262 = CARTESIAN_POINT('', (40., 30., -20.));
#263 = CARTESIAN_POINT('', (-40., 30., 20.));
#264 = CARTESIAN_POINT('', (40., 30., 20.));
#265 = ADVANCED_FACE('', (#266), #272, .T.);
#266 = FACE_OUTER_BOUND('', #267, .T.);
#267 = EDGE_LOOP('', (#268, #269, #270, #271));
#268 = ORIENTED_EDGE('', *, *, #237, .F.);
#269 = ORIENTED_EDGE('', *, *, #221, .T.);
#270 = ORIENTED_EDGE('', *, *, #178, .T.);
#271 = ORIENTED_EDGE('', *, *, #148, .F.);
#272 = B_SPLINE_SURFACE_WITH_KNOTS('', 1, 1, ((#273, #274), (#275, #276)), .UNSPECIFIED., .F., .F., .U., (2, 2), (2, 2), (0., 80.), (0., 40.), .UNSPECIFIED.);
#273 = CARTESIAN_POINT('', (-40., -30., -20.));
#274 = CARTESIAN_POINT('', (-40., -30., 20.));
#275 = CARTESIAN_POINT('', (40., -30., -20.));
#276 = CARTESIAN_POINT('', (40., -30., 20.));
#277 = ADVANCED_FACE('', (#278), #288, .T.);
#278 = FACE_OUTER_BOUND('', #279, .T.);
#279 = EDGE_LOOP('', (#280, #281, #286, #287));
#280 = ORIENTED_EDGE('', *, *, #29, .T.);
#281 = ORIENTED_EDGE('', *, *, #282, .F.);
#282 = EDGE_CURVE('', #74, #22, #283, .T.);
#283 = B_SPLINE_CURVE_WITH_KNOTS('', 1, (#284, #285), .UNSPECIFIED., .F., .U., (2, 2), (13., 47.), .UNSPECIFIED.);
#284 = CARTESIAN_POINT('', (25., 10., -17.));
#285 = CARTESIAN_POINT('', (25., 10., 17.));
#286 = ORIENTED_EDGE('', *, *, #73, .F.);
#287 = ORIENTED_EDGE('', *, *, #282, .T.);
#288 = (
   BOUNDED_SURFACE ()
   B_SPLINE_SURFACE (1, 2, ((#289, #290, #291, #292, #293, #294, #295, #296, #297), (#298, #299, #300, #301, #302, #303, #304, #305, #306)), .UNSPECIFIED., .F., .T., .U.)
   B_SPLINE_SURFACE_WITH_KNOTS ((2, 2), (3, 2, 2, 2, 3), (13., 47.), (0., 15.707963267949, 31.4159265358979, 47.1238898038469, 62.8318530717959), .UNSPECIFIED.)
   GEOMETRIC_REPRESENTATION_ITEM ()
   RATIONAL_B_SPLINE_SURFACE (((1., 0.707106781186548, 1., 0.707106781186548, 1., 0.707106781186548, 1., 0.707106781186548, 1.), (1., 0.707106781186548, 1., 0.707106781186548, 1., 0.707106781186548, 1., 0.707106781186548, 1.)))
   REPRESENTATION_ITEM ('')
   SURFACE ()
);
#289 = CARTESIAN_POINT('', (25., 10., -17.));
#290 = CARTESIAN_POINT('', (25., 20., -17.));
#291 = CARTESIAN_POINT('', (15., 20., -17.));
#292 = CARTESIAN_POINT('', (5., 20., -17.));
#293 = CARTESIAN_POINT('', (5., 10., -17.));
#294 = CARTESIAN_POINT('', (5., 3.58302035846089E-15, -17.));
#295 = CARTESIAN_POINT('', (15., 1.77635683940025E-15, -17.));
#296 = CARTESIAN_POINT('', (25., -3.03066796603895E-17, -17.));
#297 = CARTESIAN_POINT('', (25., 10., -17.));
#298 = CARTESIAN_POINT('', (25., 10., 17.));
#299 = CARTESIAN_POINT('', (25., 20., 17.));
#300 = CARTESIAN_POINT('', (15., 20., 17.));
#301 = CARTESIAN_POINT('', (5., 20., 17.));
#302 = CARTESIAN_POINT('', (5., 10., 17.));
#303 = CARTESIAN_POINT('', (5., 3.58302035846089E-15, 17.));
#304 = CARTESIAN_POINT('', (15., 1.77635683940025E-15, 17.));
#305 = CARTESIAN_POINT('', (25., -3.03066796603895E-17, 17.));
#306 = CARTESIAN_POINT('', (25., 10., 17.));
#307 = DRAUGHTING_MODEL('', (#315), #318);
#308 = PRESENTATION_STYLE_ASSIGNMENT((#309));
#309 = SURFACE_STYLE_USAGE(.POSITIVE., #310);
#310 = SURFACE_SIDE_STYLE('', (#311));
#311 = SURFACE_STYLE_FILL_AREA(#312);
#312 = FILL_AREA_STYLE('', (#313));
#313 = FILL_AREA_STYLE_COLOUR('', #314);
#314 = COLOUR_RGB('', 0.50196078431373, 0.50196078431373, 0.50196078431373);
#315 = STYLED_ITEM('', (#308), #1);
#316 = CARTESIAN_POINT('Origin', (0., 0., 0.));
#317 = GEOMETRIC_SET('', (#316));
#318 = (
   GEOMETRIC_REPRESENTATION_CONTEXT (3)
   GLOBAL_UNCERTAINTY_ASSIGNED_CONTEXT ((#320))
   GLOBAL_UNIT_ASSIGNED_CONTEXT ((#319, #321, #322))
   REPRESENTATION_CONTEXT ('', '3D')
);
#319 = (
   LENGTH_UNIT ()
   NAMED_UNIT (*)
   SI_UNIT (.MILLI., .METRE.)
);
#320 = UNCERTAINTY_MEASURE_WITH_UNIT(LENGTH_MEASURE(1.E-6), #319, 'DISTANCE_ACCURACY_VALUE', '');
#321 = (
   NAMED_UNIT (*)
   SI_UNIT ($, .STERADIAN.)
   SOLID_ANGLE_UNIT ()
);
#322 = (
   NAMED_UNIT (*)
   PLANE_ANGLE_UNIT ()
   SI_UNIT ($, .RADIAN.)
);
#323 = SHAPE_REPRESENTATION('', (#338), #318);
#324 = PRODUCT_DEFINITION_SHAPE('', '', #325);
#325 = PRODUCT_DEFINITION('', '', #328, #332);
#326 = APPLICATION_CONTEXT('configuration controlled 3D designs of mechanical parts and assemblies');
#327 = APPLICATION_PROTOCOL_DEFINITION('International Standard', 'automotive_design', 2002, #326);
#328 = PRODUCT_DEFINITION_FORMATION_WITH_SPECIFIED_SOURCE('', '', #329, .NOT_KNOWN.);
#329 = PRODUCT('BoolFillet', 'BoolFillet', '', (#330));
#330 = PRODUCT_CONTEXT('', #326, 'mechanical');
#331 = PRODUCT_RELATED_PRODUCT_CATEGORY('detail', '', (#329));
#332 = PRODUCT_DEFINITION_CONTEXT('part definition', #326, 'design');
#333 = SHAPE_DEFINITION_REPRESENTATION(#324, #323);
#334 = SHAPE_REPRESENTATION_RELATIONSHIP('', '', #323, #335);
#335 = SHAPE_REPRESENTATION('', (#317), #318);
#336 = SHAPE_REPRESENTATION_RELATIONSHIP('', '', #323, #337);
#337 = ADVANCED_BREP_SHAPE_REPRESENTATION('', (#1), #318);
#338 = AXIS2_PLACEMENT_3D('', #339, #340, #341);
#339 = CARTESIAN_POINT('', (0., 0., 0.));
#340 = DIRECTION('', (0., 0., 1.));
#341 = DIRECTION('', (1., 0., 0.));
ENDSEC;
END-ISO-10303-21;
