ISO-10303-21;
HEADER;
FILE_DESCRIPTION(('STEP'), '1');
FILE_NAME('ConeFillet', '2026-04-15T15:21:03', (''), (''), 'Express 3.1.2.0', 'Express Tool', 'Unknown');
FILE_SCHEMA(('AUTOMOTIVE_DESIGN'));
ENDSEC;

DATA;
#1 = MANIFOLD_SOLID_BREP('Solid', #2);
#2 = CLOSED_SHELL('', (#3, #59, #68, #141));
#3 = ADVANCED_FACE('', (#4), #40, .T.);
#4 = FACE_OUTER_BOUND('', #5, .T.);
#5 = EDGE_LOOP('', (#6, #20, #27, #39));
#6 = ORIENTED_EDGE('', *, *, #7, .T.);
#7 = EDGE_CURVE('', #8, #8, #10, .T.);
#8 = VERTEX_POINT('', #9);
#9 = CARTESIAN_POINT('', (18.7458809853, 2.44961035003363E-30, -23.98022872944));
#10 = (
   BOUNDED_CURVE ()
   B_SPLINE_CURVE (2, (#11, #12, #13, #14, #15, #16, #17, #18, #19), .UNSPECIFIED., .T., .U.)
   B_SPLINE_CURVE_WITH_KNOTS ((3, 2, 2, 2, 3), (0., 0.25, 0.5, 0.75, 1.), .UNSPECIFIED.)
   CURVE ()
   GEOMETRIC_REPRESENTATION_ITEM ()
   RATIONAL_B_SPLINE_CURVE ((1., 0.707106781186548, 1., 0.707106781186548, 1., 0.707106781186548, 1., 0.707106781186548, 1.))
   REPRESENTATION_ITEM ('')
);
#11 = CARTESIAN_POINT('', (18.7458809853, 2.44961035003363E-30, -23.98022872944));
#12 = CARTESIAN_POINT('', (18.7458809853, 18.7458809853, -23.98022872944));
#13 = CARTESIAN_POINT('', (1.14785415729224E-15, 18.7458809853, -23.98022872944));
#14 = CARTESIAN_POINT('', (-18.7458809853, 18.7458809853, -23.98022872944));
#15 = CARTESIAN_POINT('', (-18.7458809853, 2.29570831458449E-15, -23.98022872944));
#16 = CARTESIAN_POINT('', (-18.7458809853, -18.7458809853, -23.98022872944));
#17 = CARTESIAN_POINT('', (-3.44356247187673E-15, -18.7458809853, -23.98022872944));
#18 = CARTESIAN_POINT('', (18.7458809853, -18.7458809853, -23.98022872944));
#19 = CARTESIAN_POINT('', (18.7458809853, 2.44961035003363E-30, -23.98022872944));
#20 = ORIENTED_EDGE('', *, *, #21, .T.);
#21 = EDGE_CURVE('', #8, #22, #24, .T.);
#22 = VERTEX_POINT('', #23);
#23 = CARTESIAN_POINT('', (7.5, 0., 30.));
#24 = B_SPLINE_CURVE_WITH_KNOTS('', 1, (#25, #26), .UNSPECIFIED., .F., .U., (2, 2), (6.01977127056001, 60.), .UNSPECIFIED.);
#25 = CARTESIAN_POINT('', (18.7458809853, 0., -23.98022872944));
#26 = CARTESIAN_POINT('', (7.50000000000007, 0., 30.));
#27 = ORIENTED_EDGE('', *, *, #28, .F.);
#28 = EDGE_CURVE('', #22, #22, #29, .T.);
#29 = (
   BOUNDED_CURVE ()
   B_SPLINE_CURVE (2, (#30, #31, #32, #33, #34, #35, #36, #37, #38), .UNSPECIFIED., .T., .U.)
   B_SPLINE_CURVE_WITH_KNOTS ((3, 2, 2, 2, 3), (0., 0.25, 0.5, 0.75, 1.), .UNSPECIFIED.)
   CURVE ()
   GEOMETRIC_REPRESENTATION_ITEM ()
   RATIONAL_B_SPLINE_CURVE ((1., 0.707106781186548, 1., 0.707106781186548, 1., 0.707106781186548, 1., 0.707106781186548, 1.))
   REPRESENTATION_ITEM ('')
);
#30 = CARTESIAN_POINT('', (7.5, 0., 30.));
#31 = CARTESIAN_POINT('', (7.5, 7.5, 30.));
#32 = CARTESIAN_POINT('', (4.59242549680257E-16, 7.5, 30.));
#33 = CARTESIAN_POINT('', (-7.5, 7.5, 30.));
#34 = CARTESIAN_POINT('', (-7.5, 9.18485099360515E-16, 30.));
#35 = CARTESIAN_POINT('', (-7.5, -7.5, 30.));
#36 = CARTESIAN_POINT('', (-1.37772764904077E-15, -7.5, 30.));
#37 = CARTESIAN_POINT('', (7.5, -7.5, 30.));
#38 = CARTESIAN_POINT('', (7.5, 0., 30.));
#39 = ORIENTED_EDGE('', *, *, #21, .F.);
#40 = (
   BOUNDED_SURFACE ()
   B_SPLINE_SURFACE (2, 1, ((#41, #42), (#43, #44), (#45, #46), (#47, #48), (#49, #50), (#51, #52), (#53, #54), (#55, #56), (#57, #58)), .UNSPECIFIED., .T., .F., .U.)
   B_SPLINE_SURFACE_WITH_KNOTS ((3, 2, 2, 2, 3), (2, 2), (0., 0.25, 0.5, 0.75, 1.), (6.01977127056001, 60.), .UNSPECIFIED.)
   GEOMETRIC_REPRESENTATION_ITEM ()
   RATIONAL_B_SPLINE_SURFACE (((1., 1.), (0.707106781186548, 0.707106781186548), (1., 1.), (0.707106781186548, 0.707106781186548), (1., 1.), (0.707106781186548, 0.707106781186548), (1., 1.), (0.707106781186548, 0.707106781186548), (1., 1.)))
   REPRESENTATION_ITEM ('')
   SURFACE ()
);
#41 = CARTESIAN_POINT('', (18.7458809853, 0., -23.98022872944));
#42 = CARTESIAN_POINT('', (7.50000000000007, 0., 30.));
#43 = CARTESIAN_POINT('', (18.7458809853, 18.7458809853, -23.98022872944));
#44 = CARTESIAN_POINT('', (7.50000000000007, 7.50000000000007, 30.));
#45 = CARTESIAN_POINT('', (1.14785415729224E-15, 18.7458809853, -23.98022872944));
#46 = CARTESIAN_POINT('', (4.59242549680262E-16, 7.50000000000007, 30.));
#47 = CARTESIAN_POINT('', (-18.7458809853, 18.7458809853, -23.98022872944));
#48 = CARTESIAN_POINT('', (-7.50000000000007, 7.50000000000007, 30.));
#49 = CARTESIAN_POINT('', (-18.7458809853, 2.29570831458449E-15, -23.98022872944));
#50 = CARTESIAN_POINT('', (-7.50000000000007, 9.18485099360524E-16, 30.));
#51 = CARTESIAN_POINT('', (-18.7458809853, -18.7458809853, -23.98022872944));
#52 = CARTESIAN_POINT('', (-7.50000000000007, -7.50000000000007, 30.));
#53 = CARTESIAN_POINT('', (-3.44356247187673E-15, -18.7458809853, -23.98022872944));
#54 = CARTESIAN_POINT('', (-1.37772764904079E-15, -7.50000000000007, 30.));
#55 = CARTESIAN_POINT('', (18.7458809853, -18.7458809853, -23.98022872944));
#56 = CARTESIAN_POINT('', (7.50000000000007, -7.50000000000007, 30.));
#57 = CARTESIAN_POINT('', (18.7458809853, 0., -23.98022872944));
#58 = CARTESIAN_POINT('', (7.50000000000007, 0., 30.));
#59 = ADVANCED_FACE('', (#60), #63, .T.);
#60 = FACE_OUTER_BOUND('', #61, .T.);
#61 = EDGE_LOOP('', (#62));
#62 = ORIENTED_EDGE('', *, *, #28, .T.);
#63 = B_SPLINE_SURFACE_WITH_KNOTS('', 1, 1, ((#64, #65), (#66, #67)), .UNSPECIFIED., .F., .F., .U., (2, 2), (2, 2), (0.178587826733387, 0.821412173266612), (0.178587826733388, 0.821412173266612), .UNSPECIFIED.);
#64 = CARTESIAN_POINT('', (7.5, -7.5, 30.));
#65 = CARTESIAN_POINT('', (-7.5, -7.5, 30.));
#66 = CARTESIAN_POINT('', (7.5, 7.5, 30.));
#67 = CARTESIAN_POINT('', (-7.5, 7.5, 30.));
#68 = ADVANCED_FACE('', (#69), #95, .T.);
#69 = FACE_OUTER_BOUND('', #70, .T.);
#70 = EDGE_LOOP('', (#71, #85, #93, #94));
#71 = ORIENTED_EDGE('', *, *, #72, .T.);
#72 = EDGE_CURVE('', #73, #73, #75, .T.);
#73 = VERTEX_POINT('', #74);
#74 = CARTESIAN_POINT('', (13.850978886612, -3.5527136788005E-15, -30.));
#75 = (
   BOUNDED_CURVE ()
   B_SPLINE_CURVE (2, (#76, #77, #78, #79, #80, #81, #82, #83, #84), .UNSPECIFIED., .T., .U.)
   B_SPLINE_CURVE_WITH_KNOTS ((3, 2, 2, 2, 3), (0., 0.25, 0.5, 0.75, 1.), .UNSPECIFIED.)
   CURVE ()
   GEOMETRIC_REPRESENTATION_ITEM ()
   RATIONAL_B_SPLINE_CURVE ((1., 0.707106781186548, 1., 0.707106781186548, 1., 0.707106781186548, 1., 0.707106781186548, 1.))
   REPRESENTATION_ITEM ('')
);
#76 = CARTESIAN_POINT('', (13.850978886612, -3.5527136788005E-15, -30.));
#77 = CARTESIAN_POINT('', (13.850978886612, 13.850978886612, -30.));
#78 = CARTESIAN_POINT('', (4.40084152672785E-15, 13.850978886612, -30.));
#79 = CARTESIAN_POINT('', (-13.850978886612, 13.850978886612, -30.));
#80 = CARTESIAN_POINT('', (-13.850978886612, 5.24896937465519E-15, -30.));
#81 = CARTESIAN_POINT('', (-13.850978886612, -13.850978886612, -30.));
#82 = CARTESIAN_POINT('', (-6.09709722258254E-15, -13.850978886612, -30.));
#83 = CARTESIAN_POINT('', (13.850978886612, -13.850978886612, -30.));
#84 = CARTESIAN_POINT('', (13.850978886612, -3.5527136788005E-15, -30.));
#85 = ORIENTED_EDGE('', *, *, #86, .F.);
#86 = EDGE_CURVE('', #8, #73, #87, .T.);
#87 = (
   BOUNDED_CURVE ()
   B_SPLINE_CURVE (2, (#88, #89, #90, #91, #92), .UNSPECIFIED., .F., .U.)
   B_SPLINE_CURVE_WITH_KNOTS ((3, 2, 3), (0., 0.5, 1.), .UNSPECIFIED.)
   CURVE ()
   GEOMETRIC_REPRESENTATION_ITEM ()
   RATIONAL_B_SPLINE_CURVE ((1., 0.903020082719612, 1., 0.903020082719612, 1.))
   REPRESENTATION_ITEM ('')
);
#88 = CARTESIAN_POINT('', (18.7458809853, 2.44961035003363E-30, -23.98022872944));
#89 = CARTESIAN_POINT('', (19.2310219574789, 3.52114696730818E-16, -26.3089053958987));
#90 = CARTESIAN_POINT('', (17.7303381347869, -7.37079701224892E-16, -28.1544526979494));
#91 = CARTESIAN_POINT('', (16.2296543120948, -1.8262740991806E-15, -30.));
#92 = CARTESIAN_POINT('', (13.850978886612, -3.5527136788005E-15, -30.));
#93 = ORIENTED_EDGE('', *, *, #7, .F.);
#94 = ORIENTED_EDGE('', *, *, #86, .T.);
#95 = (
   BOUNDED_SURFACE ()
   B_SPLINE_SURFACE (2, 2, ((#96, #97, #98, #99, #100), (#101, #102, #103, #104, #105), (#106, #107, #108, #109, #110), (#111, #112, #113, #114, #115), (#116, #117, #118, #119, #120), (#121, #122, #123, #124, #125), (#126, #127, #128, #129, #130), (#131, #132, #133, #134, #135), (#136, #137, #138, #139, #140)), .UNSPECIFIED., .T., .F., .U.)
   B_SPLINE_SURFACE_WITH_KNOTS ((3, 2, 2, 2, 3), (3, 2, 3), (0., 0.25, 0.5, 0.75, 1.), (0., 0.5, 1.), .UNSPECIFIED.)
   GEOMETRIC_REPRESENTATION_ITEM ()
   RATIONAL_B_SPLINE_SURFACE (((1., 0.903020082719612, 1., 0.903020082719612, 1.), (0.707106781186548, 0.638531624038675, 0.707106781186548, 0.638531624038675, 0.707106781186548), (1., 0.903020082719612, 1., 0.903020082719612, 1.), (0.707106781186548, 0.638531624038675, 0.707106781186548, 0.638531624038675, 0.707106781186548), (1., 0.903020082719612, 1., 0.903020082719612, 1.), (0.707106781186548, 0.638531624038675, 0.707106781186548, 0.638531624038675, 0.707106781186548), (1., 0.903020082719612, 1., 0.903020082719612, 1.), (0.707106781186548, 0.638531624038675, 0.707106781186548, 0.638531624038675, 0.707106781186548), (1., 0.903020082719612, 1., 0.903020082719612, 1.)))
   REPRESENTATION_ITEM ('')
   SURFACE ()
);
#96 = CARTESIAN_POINT('', (13.850978886612, -3.5527136788005E-15, -30.));
#97 = CARTESIAN_POINT('', (16.2296543120948, -1.8262740991806E-15, -30.));
#98 = CARTESIAN_POINT('', (17.7303381347869, -7.37079701224892E-16, -28.1544526979494));
#99 = CARTESIAN_POINT('', (19.2310219574789, 3.52114696730818E-16, -26.3089053958987));
#100 = CARTESIAN_POINT('', (18.7458809853, 2.44961035003363E-30, -23.98022872944));
#101 = CARTESIAN_POINT('', (13.850978886612, 13.850978886612, -30.));
#102 = CARTESIAN_POINT('', (16.2296543120948, 16.2296543120948, -30.));
#103 = CARTESIAN_POINT('', (17.7303381347869, 17.7303381347869, -28.1544526979494));
#104 = CARTESIAN_POINT('', (19.2310219574789, 19.2310219574789, -26.3089053958987));
#105 = CARTESIAN_POINT('', (18.7458809853, 18.7458809853, -23.98022872944));
#106 = CARTESIAN_POINT('', (4.40084152672785E-15, 13.850978886612, -30.));
#107 = CARTESIAN_POINT('', (2.82005380940935E-15, 16.2296543120948, -30.));
#108 = CARTESIAN_POINT('', (1.82274979345324E-15, 17.7303381347869, -28.1544526979494));
#109 = CARTESIAN_POINT('', (8.25445777497132E-16, 19.2310219574789, -26.3089053958987));
#110 = CARTESIAN_POINT('', (1.14785415729224E-15, 18.7458809853, -23.98022872944));
#111 = CARTESIAN_POINT('', (-13.850978886612, 13.850978886612, -30.));
#112 = CARTESIAN_POINT('', (-16.2296543120948, 16.2296543120948, -30.));
#113 = CARTESIAN_POINT('', (-17.7303381347869, 17.7303381347869, -28.1544526979494));
#114 = CARTESIAN_POINT('', (-19.2310219574789, 19.2310219574789, -26.3089053958987));
#115 = CARTESIAN_POINT('', (-18.7458809853, 18.7458809853, -23.98022872944));
#116 = CARTESIAN_POINT('', (-13.850978886612, 5.24896937465519E-15, -30.));
#117 = CARTESIAN_POINT('', (-16.2296543120948, 3.8138335196381E-15, -30.));
#118 = CARTESIAN_POINT('', (-17.7303381347869, 2.90841988568159E-15, -28.1544526979494));
#119 = CARTESIAN_POINT('', (-19.2310219574789, 2.00300625172508E-15, -26.3089053958987));
#120 = CARTESIAN_POINT('', (-18.7458809853, 2.29570831458449E-15, -23.98022872944));
#121 = CARTESIAN_POINT('', (-13.850978886612, -13.850978886612, -30.));
#122 = CARTESIAN_POINT('', (-16.2296543120948, -16.2296543120948, -30.));
#123 = CARTESIAN_POINT('', (-17.7303381347869, -17.7303381347869, -28.1544526979494));
#124 = CARTESIAN_POINT('', (-19.2310219574789, -19.2310219574789, -26.3089053958987));
#125 = CARTESIAN_POINT('', (-18.7458809853, -18.7458809853, -23.98022872944));
#126 = CARTESIAN_POINT('', (-6.09709722258254E-15, -13.850978886612, -30.));
#127 = CARTESIAN_POINT('', (-4.80761322986685E-15, -16.2296543120948, -30.));
#128 = CARTESIAN_POINT('', (-3.99408997790994E-15, -17.7303381347869, -28.1544526979494));
#129 = CARTESIAN_POINT('', (-3.18056672595303E-15, -19.2310219574789, -26.3089053958987));
#130 = CARTESIAN_POINT('', (-3.44356247187673E-15, -18.7458809853, -23.98022872944));
#131 = CARTESIAN_POINT('', (13.850978886612, -13.850978886612, -30.));
#132 = CARTESIAN_POINT('', (16.2296543120948, -16.2296543120948, -30.));
#133 = CARTESIAN_POINT('', (17.7303381347869, -17.7303381347869, -28.1544526979494));
#134 = CARTESIAN_POINT('', (19.2310219574789, -19.2310219574789, -26.3089053958987));
#135 = CARTESIAN_POINT('', (18.7458809853, -18.7458809853, -23.98022872944));
#136 = CARTESIAN_POINT('', (13.850978886612, -3.5527136788005E-15, -30.));
#137 = CARTESIAN_POINT('', (16.2296543120948, -1.8262740991806E-15, -30.));
#138 = CARTESIAN_POINT('', (17.7303381347869, -7.37079701224892E-16, -28.1544526979494));
#139 = CARTESIAN_POINT('', (19.2310219574789, 3.52114696730818E-16, -26.3089053958987));
#140 = CARTESIAN_POINT('', (18.7458809853, 2.44961035003363E-30, -23.98022872944));
#141 = ADVANCED_FACE('', (#142), #145, .T.);
#142 = FACE_OUTER_BOUND('', #143, .T.);
#143 = EDGE_LOOP('', (#144));
#144 = ORIENTED_EDGE('', *, *, #72, .F.);
#145 = B_SPLINE_SURFACE_WITH_KNOTS('', 1, 1, ((#146, #147), (#148, #149)), .UNSPECIFIED., .F., .F., .U., (2, 2), (2, 2), (0.277406338709204, 0.722593661290796), (0.277406338709204, 0.722593661290796), .UNSPECIFIED.);
#146 = CARTESIAN_POINT('', (13.850978886612, -13.850978886612, -30.));
#147 = CARTESIAN_POINT('', (13.850978886612, 13.850978886612, -30.));
#148 = CARTESIAN_POINT('', (-13.850978886612, -13.850978886612, -30.));
#149 = CARTESIAN_POINT('', (-13.850978886612, 13.850978886612, -30.));
#150 = DRAUGHTING_MODEL('', (#158), #161);
#151 = PRESENTATION_STYLE_ASSIGNMENT((#152));
#152 = SURFACE_STYLE_USAGE(.POSITIVE., #153);
#153 = SURFACE_SIDE_STYLE('', (#154));
#154 = SURFACE_STYLE_FILL_AREA(#155);
#155 = FILL_AREA_STYLE('', (#156));
#156 = FILL_AREA_STYLE_COLOUR('', #157);
#157 = COLOUR_RGB('', 0.50196078431373, 0.50196078431373, 0.50196078431373);
#158 = STYLED_ITEM('', (#151), #1);
#159 = CARTESIAN_POINT('Origin', (0., 0., 0.));
#160 = GEOMETRIC_SET('', (#159));
#161 = (
   GEOMETRIC_REPRESENTATION_CONTEXT (3)
   GLOBAL_UNCERTAINTY_ASSIGNED_CONTEXT ((#163))
   GLOBAL_UNIT_ASSIGNED_CONTEXT ((#162, #164, #165))
   REPRESENTATION_CONTEXT ('', '3D')
);
#162 = (
   LENGTH_UNIT ()
   NAMED_UNIT (*)
   SI_UNIT (.MILLI., .METRE.)
);
#163 = UNCERTAINTY_MEASURE_WITH_UNIT(LENGTH_MEASURE(1.E-6), #162, 'DISTANCE_ACCURACY_VALUE', '');
#164 = (
   NAMED_UNIT (*)
   SI_UNIT ($, .STERADIAN.)
   SOLID_ANGLE_UNIT ()
);
#165 = (
   NAMED_UNIT (*)
   PLANE_ANGLE_UNIT ()
   SI_UNIT ($, .RADIAN.)
);
#166 = SHAPE_REPRESENTATION('', (#181), #161);
#167 = PRODUCT_DEFINITION_SHAPE('', '', #168);
#168 = PRODUCT_DEFINITION('', '', #171, #175);
#169 = APPLICATION_CONTEXT('configuration controlled 3D designs of mechanical parts and assemblies');
#170 = APPLICATION_PROTOCOL_DEFINITION('International Standard', 'automotive_design', 2002, #169);
#171 = PRODUCT_DEFINITION_FORMATION_WITH_SPECIFIED_SOURCE('', '', #172, .NOT_KNOWN.);
#172 = PRODUCT('ConeFillet', 'ConeFillet', '', (#173));
#173 = PRODUCT_CONTEXT('', #169, 'mechanical');
#174 = PRODUCT_RELATED_PRODUCT_CATEGORY('detail', '', (#172));
#175 = PRODUCT_DEFINITION_CONTEXT('part definition', #169, 'design');
#176 = SHAPE_DEFINITION_REPRESENTATION(#167, #166);
#177 = SHAPE_REPRESENTATION_RELATIONSHIP('', '', #166, #178);
#178 = SHAPE_REPRESENTATION('', (#160), #161);
#179 = SHAPE_REPRESENTATION_RELATIONSHIP('', '', #166, #180);
#180 = ADVANCED_BREP_SHAPE_REPRESENTATION('', (#1), #161);
#181 = AXIS2_PLACEMENT_3D('', #182, #183, #184);
#182 = CARTESIAN_POINT('', (0., 0., 0.));
#183 = DIRECTION('', (0., 0., 1.));
#184 = DIRECTION('', (1., 0., 0.));
ENDSEC;
END-ISO-10303-21;
