ISO-10303-21;
HEADER;
FILE_DESCRIPTION(('STEP'), '1');
FILE_NAME('SphereTest', '2026-04-17T19:08:48', (''), (''), 'Express 3.1.2.0', 'Express Tool', 'Unknown');
FILE_SCHEMA(('AUTOMOTIVE_DESIGN'));
ENDSEC;

DATA;
#1 = MANIFOLD_SOLID_BREP('Sphere_0', #2);
#2 = CLOSED_SHELL('', (#3));
#3 = ADVANCED_FACE('', (#4), #19, .T.);
#4 = FACE_OUTER_BOUND('', #5, .T.);
#5 = EDGE_LOOP('', (#6, #18));
#6 = ORIENTED_EDGE('', *, *, #7, .F.);
#7 = EDGE_CURVE('', #8, #10, #12, .T.);
#8 = VERTEX_POINT('', #9);
#9 = CARTESIAN_POINT('', (-1.83697019872103E-14, 0., -100.));
#10 = VERTEX_POINT('', #11);
#11 = CARTESIAN_POINT('', (3.06161699786838E-14, 0., 100.));
#12 = (
   BOUNDED_CURVE ()
   B_SPLINE_CURVE (2, (#13, #14, #15, #16, #17), .UNSPECIFIED., .F., .U.)
   B_SPLINE_CURVE_WITH_KNOTS ((3, 2, 3), (0., 0.5, 1.), .UNSPECIFIED.)
   CURVE ()
   GEOMETRIC_REPRESENTATION_ITEM ()
   RATIONAL_B_SPLINE_CURVE ((1., 0.707106781186548, 1., 0.707106781186548, 1.))
   REPRESENTATION_ITEM ('')
);
#13 = CARTESIAN_POINT('', (-1.83697019872103E-14, 0., -100.));
#14 = CARTESIAN_POINT('', (100., 0., -100.));
#15 = CARTESIAN_POINT('', (100., 0., -2.44929359829471E-14));
#16 = CARTESIAN_POINT('', (100., 0., 100.));
#17 = CARTESIAN_POINT('', (3.06161699786838E-14, 0., 100.));
#18 = ORIENTED_EDGE('', *, *, #7, .T.);
#19 = (
   BOUNDED_SURFACE ()
   B_SPLINE_SURFACE (2, 2, ((#20, #21, #22, #23, #24), (#25, #26, #27, #28, #29), (#30, #31, #32, #33, #34), (#35, #36, #37, #38, #39), (#40, #41, #42, #43, #44), (#45, #46, #47, #48, #49), (#50, #51, #52, #53, #54), (#55, #56, #57, #58, #59), (#60, #61, #62, #63, #64)), .UNSPECIFIED., .T., .F., .U.)
   B_SPLINE_SURFACE_WITH_KNOTS ((3, 2, 2, 2, 3), (3, 2, 3), (0., 0.25, 0.5, 0.75, 1.), (0., 0.5, 1.), .UNSPECIFIED.)
   GEOMETRIC_REPRESENTATION_ITEM ()
   RATIONAL_B_SPLINE_SURFACE (((1., 0.707106781186548, 1., 0.707106781186548, 1.), (0.707106781186548, 0.5, 0.707106781186548, 0.5, 0.707106781186548), (1., 0.707106781186548, 1., 0.707106781186548, 1.), (0.707106781186548, 0.5, 0.707106781186548, 0.5, 0.707106781186548), (1., 0.707106781186548, 1., 0.707106781186548, 1.), (0.707106781186548, 0.5, 0.707106781186548, 0.5, 0.707106781186548), (1., 0.707106781186548, 1., 0.707106781186548, 1.), (0.707106781186548, 0.5, 0.707106781186548, 0.5, 0.707106781186548), (1., 0.707106781186548, 1., 0.707106781186548, 1.)))
   REPRESENTATION_ITEM ('')
   SURFACE ()
);
#20 = CARTESIAN_POINT('', (-1.83697019872103E-14, 0., -100.));
#21 = CARTESIAN_POINT('', (100., 0., -100.));
#22 = CARTESIAN_POINT('', (100., 0., -2.44929359829471E-14));
#23 = CARTESIAN_POINT('', (100., 0., 100.));
#24 = CARTESIAN_POINT('', (3.06161699786838E-14, 0., 100.));
#25 = CARTESIAN_POINT('', (-1.83697019872103E-14, 0., -100.));
#26 = CARTESIAN_POINT('', (100., 100., -100.));
#27 = CARTESIAN_POINT('', (100., 100., -2.44929359829471E-14));
#28 = CARTESIAN_POINT('', (100., 100., 100.));
#29 = CARTESIAN_POINT('', (3.06161699786838E-14, 0., 100.));
#30 = CARTESIAN_POINT('', (-1.83697019872103E-14, 0., -100.));
#31 = CARTESIAN_POINT('', (6.12323399573676E-15, 100., -100.));
#32 = CARTESIAN_POINT('', (6.12323399573677E-15, 100., -2.44929359829471E-14));
#33 = CARTESIAN_POINT('', (6.12323399573677E-15, 100., 100.));
#34 = CARTESIAN_POINT('', (3.06161699786838E-14, 0., 100.));
#35 = CARTESIAN_POINT('', (-1.83697019872103E-14, 0., -100.));
#36 = CARTESIAN_POINT('', (-100., 100., -100.));
#37 = CARTESIAN_POINT('', (-100., 100., -2.44929359829471E-14));
#38 = CARTESIAN_POINT('', (-100., 100., 100.));
#39 = CARTESIAN_POINT('', (3.06161699786838E-14, 0., 100.));
#40 = CARTESIAN_POINT('', (-1.83697019872103E-14, 0., -100.));
#41 = CARTESIAN_POINT('', (-100., 1.22464679914735E-14, -100.));
#42 = CARTESIAN_POINT('', (-100., 1.22464679914735E-14, -2.44929359829471E-14));
#43 = CARTESIAN_POINT('', (-100., 1.22464679914735E-14, 100.));
#44 = CARTESIAN_POINT('', (3.06161699786838E-14, 0., 100.));
#45 = CARTESIAN_POINT('', (-1.83697019872103E-14, 0., -100.));
#46 = CARTESIAN_POINT('', (-100., -100., -100.));
#47 = CARTESIAN_POINT('', (-100., -100., -2.44929359829471E-14));
#48 = CARTESIAN_POINT('', (-100., -100., 100.));
#49 = CARTESIAN_POINT('', (3.06161699786838E-14, 0., 100.));
#50 = CARTESIAN_POINT('', (-1.83697019872103E-14, 0., -100.));
#51 = CARTESIAN_POINT('', (-1.83697019872103E-14, -100., -100.));
#52 = CARTESIAN_POINT('', (-1.83697019872103E-14, -100., -2.44929359829471E-14));
#53 = CARTESIAN_POINT('', (-1.83697019872103E-14, -100., 100.));
#54 = CARTESIAN_POINT('', (3.06161699786838E-14, 0., 100.));
#55 = CARTESIAN_POINT('', (-1.83697019872103E-14, 0., -100.));
#56 = CARTESIAN_POINT('', (99.9999999999999, -100., -100.));
#57 = CARTESIAN_POINT('', (100., -100., -2.44929359829471E-14));
#58 = CARTESIAN_POINT('', (100., -100., 100.));
#59 = CARTESIAN_POINT('', (3.06161699786838E-14, 0., 100.));
#60 = CARTESIAN_POINT('', (-1.83697019872103E-14, 0., -100.));
#61 = CARTESIAN_POINT('', (100., 0., -100.));
#62 = CARTESIAN_POINT('', (100., 0., -2.44929359829471E-14));
#63 = CARTESIAN_POINT('', (100., 0., 100.));
#64 = CARTESIAN_POINT('', (3.06161699786838E-14, 0., 100.));
#65 = DRAUGHTING_MODEL('', (#73), #76);
#66 = PRESENTATION_STYLE_ASSIGNMENT((#67));
#67 = SURFACE_STYLE_USAGE(.POSITIVE., #68);
#68 = SURFACE_SIDE_STYLE('', (#69));
#69 = SURFACE_STYLE_FILL_AREA(#70);
#70 = FILL_AREA_STYLE('', (#71));
#71 = FILL_AREA_STYLE_COLOUR('', #72);
#72 = COLOUR_RGB('', 0.50196078431373, 0.50196078431373, 0.50196078431373);
#73 = STYLED_ITEM('', (#66), #1);
#74 = CARTESIAN_POINT('Origin', (0., 0., 0.));
#75 = GEOMETRIC_SET('', (#74));
#76 = (
   GEOMETRIC_REPRESENTATION_CONTEXT (3)
   GLOBAL_UNCERTAINTY_ASSIGNED_CONTEXT ((#78))
   GLOBAL_UNIT_ASSIGNED_CONTEXT ((#77, #79, #80))
   REPRESENTATION_CONTEXT ('', '3D')
);
#77 = (
   LENGTH_UNIT ()
   NAMED_UNIT (*)
   SI_UNIT (.MILLI., .METRE.)
);
#78 = UNCERTAINTY_MEASURE_WITH_UNIT(LENGTH_MEASURE(1.E-6), #77, 'DISTANCE_ACCURACY_VALUE', '');
#79 = (
   NAMED_UNIT (*)
   SI_UNIT ($, .STERADIAN.)
   SOLID_ANGLE_UNIT ()
);
#80 = (
   NAMED_UNIT (*)
   PLANE_ANGLE_UNIT ()
   SI_UNIT ($, .RADIAN.)
);
#81 = SHAPE_REPRESENTATION('', (#96), #76);
#82 = PRODUCT_DEFINITION_SHAPE('', '', #83);
#83 = PRODUCT_DEFINITION('', '', #86, #90);
#84 = APPLICATION_CONTEXT('configuration controlled 3D designs of mechanical parts and assemblies');
#85 = APPLICATION_PROTOCOL_DEFINITION('International Standard', 'automotive_design', 2002, #84);
#86 = PRODUCT_DEFINITION_FORMATION_WITH_SPECIFIED_SOURCE('', '', #87, .NOT_KNOWN.);
#87 = PRODUCT('SphereTest', 'SphereTest', '', (#88));
#88 = PRODUCT_CONTEXT('', #84, 'mechanical');
#89 = PRODUCT_RELATED_PRODUCT_CATEGORY('detail', '', (#87));
#90 = PRODUCT_DEFINITION_CONTEXT('part definition', #84, 'design');
#91 = SHAPE_DEFINITION_REPRESENTATION(#82, #81);
#92 = SHAPE_REPRESENTATION_RELATIONSHIP('', '', #81, #93);
#93 = SHAPE_REPRESENTATION('', (#75), #76);
#94 = SHAPE_REPRESENTATION_RELATIONSHIP('', '', #81, #95);
#95 = ADVANCED_BREP_SHAPE_REPRESENTATION('', (#1), #76);
#96 = AXIS2_PLACEMENT_3D('', #97, #98, #99);
#97 = CARTESIAN_POINT('', (0., 0., 0.));
#98 = DIRECTION('', (0., 0., 1.));
#99 = DIRECTION('', (1., 0., 0.));
ENDSEC;
END-ISO-10303-21;
