ISO-10303-21;
HEADER;
FILE_DESCRIPTION(('STEP'), '1');
FILE_NAME('Asm', '2026-04-27T16:17:15', (''), (''), 'Express 3.1.3.0', 'Express Tool', 'Unknown');
FILE_SCHEMA(('AUTOMOTIVE_DESIGN'));
ENDSEC;

DATA;
#1 = (
   GEOMETRIC_REPRESENTATION_CONTEXT (3)
   GLOBAL_UNCERTAINTY_ASSIGNED_CONTEXT ((#3))
   GLOBAL_UNIT_ASSIGNED_CONTEXT ((#2, #4, #5))
   REPRESENTATION_CONTEXT ('', '3D')
);
#2 = (
   LENGTH_UNIT ()
   NAMED_UNIT (*)
   SI_UNIT (.MILLI., .METRE.)
);
#3 = UNCERTAINTY_MEASURE_WITH_UNIT(LENGTH_MEASURE(1.E-6), #2, 'DISTANCE_ACCURACY_VALUE', '');
#4 = (
   NAMED_UNIT (*)
   SI_UNIT ($, .STERADIAN.)
   SOLID_ANGLE_UNIT ()
);
#5 = (
   NAMED_UNIT (*)
   PLANE_ANGLE_UNIT ()
   SI_UNIT ($, .RADIAN.)
);
#6 = SHAPE_REPRESENTATION('', (#184, #300), #1);
#7 = PRODUCT_DEFINITION_SHAPE('', '', #8);
#8 = PRODUCT_DEFINITION('', '', #11, #15);
#9 = APPLICATION_CONTEXT('configuration controlled 3D designs of mechanical parts and assemblies');
#10 = APPLICATION_PROTOCOL_DEFINITION('International Standard', 'automotive_design', 2002, #9);
#11 = PRODUCT_DEFINITION_FORMATION_WITH_SPECIFIED_SOURCE('', '', #12, .NOT_KNOWN.);
#12 = PRODUCT('Asm', 'Asm', '', (#13));
#13 = PRODUCT_CONTEXT('', #9, 'mechanical');
#14 = PRODUCT_RELATED_PRODUCT_CATEGORY('detail', '', (#12));
#15 = PRODUCT_DEFINITION_CONTEXT('part definition', #9, 'design');
#16 = SHAPE_DEFINITION_REPRESENTATION(#7, #6);
#17 = MANIFOLD_SOLID_BREP('B1_0', #18);
#18 = CLOSED_SHELL('', (#19, #55, #83, #111, #131, #143));
#19 = ADVANCED_FACE('', (#20), #50, .T.);
#20 = FACE_OUTER_BOUND('', #21, .T.);
#21 = EDGE_LOOP('', (#22, #31, #38, #45));
#22 = ORIENTED_EDGE('', *, *, #23, .T.);
#23 = EDGE_CURVE('', #24, #26, #28, .T.);
#24 = VERTEX_POINT('', #25);
#25 = CARTESIAN_POINT('', (0., 40., 0.));
#26 = VERTEX_POINT('', #27);
#27 = CARTESIAN_POINT('', (0., 40., 30.));
#28 = B_SPLINE_CURVE_WITH_KNOTS('', 1, (#29, #30), .UNSPECIFIED., .F., .U., (2, 2), (0., 30.), .UNSPECIFIED.);
#29 = CARTESIAN_POINT('', (0., 40., 0.));
#30 = CARTESIAN_POINT('', (0., 40., 30.));
#31 = ORIENTED_EDGE('', *, *, #32, .T.);
#32 = EDGE_CURVE('', #26, #33, #35, .T.);
#33 = VERTEX_POINT('', #34);
#34 = CARTESIAN_POINT('', (60., 40., 30.));
#35 = B_SPLINE_CURVE_WITH_KNOTS('', 1, (#36, #37), .UNSPECIFIED., .F., .U., (2, 2), (0., 60.), .UNSPECIFIED.);
#36 = CARTESIAN_POINT('', (0., 40., 30.));
#37 = CARTESIAN_POINT('', (60., 40., 30.));
#38 = ORIENTED_EDGE('', *, *, #39, .F.);
#39 = EDGE_CURVE('', #40, #33, #42, .T.);
#40 = VERTEX_POINT('', #41);
#41 = CARTESIAN_POINT('', (60., 40., 0.));
#42 = B_SPLINE_CURVE_WITH_KNOTS('', 1, (#43, #44), .UNSPECIFIED., .F., .U., (2, 2), (0., 30.), .UNSPECIFIED.);
#43 = CARTESIAN_POINT('', (60., 40., 0.));
#44 = CARTESIAN_POINT('', (60., 40., 30.));
#45 = ORIENTED_EDGE('', *, *, #46, .F.);
#46 = EDGE_CURVE('', #24, #40, #47, .T.);
#47 = B_SPLINE_CURVE_WITH_KNOTS('', 1, (#48, #49), .UNSPECIFIED., .F., .U., (2, 2), (0., 60.), .UNSPECIFIED.);
#48 = CARTESIAN_POINT('', (0., 40., 0.));
#49 = CARTESIAN_POINT('', (60., 40., 0.));
#50 = B_SPLINE_SURFACE_WITH_KNOTS('', 1, 1, ((#51, #52), (#53, #54)), .UNSPECIFIED., .F., .F., .U., (2, 2), (2, 2), (0., 30.), (0., 60.), .UNSPECIFIED.);
#51 = CARTESIAN_POINT('', (0., 40., 0.));
#52 = CARTESIAN_POINT('', (60., 40., 0.));
#53 = CARTESIAN_POINT('', (0., 40., 30.));
#54 = CARTESIAN_POINT('', (60., 40., 30.));
#55 = ADVANCED_FACE('', (#56), #78, .T.);
#56 = FACE_OUTER_BOUND('', #57, .T.);
#57 = EDGE_LOOP('', (#58, #65, #72, #77));
#58 = ORIENTED_EDGE('', *, *, #59, .F.);
#59 = EDGE_CURVE('', #60, #26, #62, .T.);
#60 = VERTEX_POINT('', #61);
#61 = CARTESIAN_POINT('', (0., 0., 30.));
#62 = B_SPLINE_CURVE_WITH_KNOTS('', 1, (#63, #64), .UNSPECIFIED., .F., .U., (2, 2), (0., 40.), .UNSPECIFIED.);
#63 = CARTESIAN_POINT('', (0., 0., 30.));
#64 = CARTESIAN_POINT('', (0., 40., 30.));
#65 = ORIENTED_EDGE('', *, *, #66, .T.);
#66 = EDGE_CURVE('', #60, #67, #69, .T.);
#67 = VERTEX_POINT('', #68);
#68 = CARTESIAN_POINT('', (60., 0., 30.));
#69 = B_SPLINE_CURVE_WITH_KNOTS('', 1, (#70, #71), .UNSPECIFIED., .F., .U., (2, 2), (0., 60.), .UNSPECIFIED.);
#70 = CARTESIAN_POINT('', (0., 0., 30.));
#71 = CARTESIAN_POINT('', (60., 0., 30.));
#72 = ORIENTED_EDGE('', *, *, #73, .T.);
#73 = EDGE_CURVE('', #67, #33, #74, .T.);
#74 = B_SPLINE_CURVE_WITH_KNOTS('', 1, (#75, #76), .UNSPECIFIED., .F., .U., (2, 2), (0., 40.), .UNSPECIFIED.);
#75 = CARTESIAN_POINT('', (60., 0., 30.));
#76 = CARTESIAN_POINT('', (60., 40., 30.));
#77 = ORIENTED_EDGE('', *, *, #32, .F.);
#78 = B_SPLINE_SURFACE_WITH_KNOTS('', 1, 1, ((#79, #80), (#81, #82)), .UNSPECIFIED., .F., .F., .U., (2, 2), (2, 2), (0., 60.), (0., 40.), .UNSPECIFIED.);
#79 = CARTESIAN_POINT('', (0., 0., 30.));
#80 = CARTESIAN_POINT('', (0., 40., 30.));
#81 = CARTESIAN_POINT('', (60., 0., 30.));
#82 = CARTESIAN_POINT('', (60., 40., 30.));
#83 = ADVANCED_FACE('', (#84), #106, .T.);
#84 = FACE_OUTER_BOUND('', #85, .T.);
#85 = EDGE_LOOP('', (#86, #93, #100, #105));
#86 = ORIENTED_EDGE('', *, *, #87, .F.);
#87 = EDGE_CURVE('', #88, #60, #90, .T.);
#88 = VERTEX_POINT('', #89);
#89 = CARTESIAN_POINT('', (0., 0., 0.));
#90 = B_SPLINE_CURVE_WITH_KNOTS('', 1, (#91, #92), .UNSPECIFIED., .F., .U., (2, 2), (0., 30.), .UNSPECIFIED.);
#91 = CARTESIAN_POINT('', (0., 0., 0.));
#92 = CARTESIAN_POINT('', (0., 0., 30.));
#93 = ORIENTED_EDGE('', *, *, #94, .T.);
#94 = EDGE_CURVE('', #88, #95, #97, .T.);
#95 = VERTEX_POINT('', #96);
#96 = CARTESIAN_POINT('', (60., 0., 0.));
#97 = B_SPLINE_CURVE_WITH_KNOTS('', 1, (#98, #99), .UNSPECIFIED., .F., .U., (2, 2), (0., 60.), .UNSPECIFIED.);
#98 = CARTESIAN_POINT('', (0., 0., 0.));
#99 = CARTESIAN_POINT('', (60., 0., 0.));
#100 = ORIENTED_EDGE('', *, *, #101, .T.);
#101 = EDGE_CURVE('', #95, #67, #102, .T.);
#102 = B_SPLINE_CURVE_WITH_KNOTS('', 1, (#103, #104), .UNSPECIFIED., .F., .U., (2, 2), (0., 30.), .UNSPECIFIED.);
#103 = CARTESIAN_POINT('', (60., 0., 0.));
#104 = CARTESIAN_POINT('', (60., 0., 30.));
#105 = ORIENTED_EDGE('', *, *, #66, .F.);
#106 = B_SPLINE_SURFACE_WITH_KNOTS('', 1, 1, ((#107, #108), (#109, #110)), .UNSPECIFIED., .F., .F., .U., (2, 2), (2, 2), (0., 60.), (0., 30.), .UNSPECIFIED.);
#107 = CARTESIAN_POINT('', (0., 0., 0.));
#108 = CARTESIAN_POINT('', (0., 0., 30.));
#109 = CARTESIAN_POINT('', (60., 0., 0.));
#110 = CARTESIAN_POINT('', (60., 0., 30.));
#111 = ADVANCED_FACE('', (#112), #126, .T.);
#112 = FACE_OUTER_BOUND('', #113, .T.);
#113 = EDGE_LOOP('', (#114, #119, #120, #125));
#114 = ORIENTED_EDGE('', *, *, #115, .T.);
#115 = EDGE_CURVE('', #88, #24, #116, .T.);
#116 = B_SPLINE_CURVE_WITH_KNOTS('', 1, (#117, #118), .UNSPECIFIED., .F., .U., (2, 2), (0., 40.), .UNSPECIFIED.);
#117 = CARTESIAN_POINT('', (0., 0., 0.));
#118 = CARTESIAN_POINT('', (0., 40., 0.));
#119 = ORIENTED_EDGE('', *, *, #46, .T.);
#120 = ORIENTED_EDGE('', *, *, #121, .F.);
#121 = EDGE_CURVE('', #95, #40, #122, .T.);
#122 = B_SPLINE_CURVE_WITH_KNOTS('', 1, (#123, #124), .UNSPECIFIED., .F., .U., (2, 2), (0., 40.), .UNSPECIFIED.);
#123 = CARTESIAN_POINT('', (60., 0., 0.));
#124 = CARTESIAN_POINT('', (60., 40., 0.));
#125 = ORIENTED_EDGE('', *, *, #94, .F.);
#126 = B_SPLINE_SURFACE_WITH_KNOTS('', 1, 1, ((#127, #128), (#129, #130)), .UNSPECIFIED., .F., .F., .U., (2, 2), (2, 2), (0., 40.), (0., 60.), .UNSPECIFIED.);
#127 = CARTESIAN_POINT('', (0., 0., 0.));
#128 = CARTESIAN_POINT('', (60., 0., 0.));
#129 = CARTESIAN_POINT('', (0., 40., 0.));
#130 = CARTESIAN_POINT('', (60., 40., 0.));
#131 = ADVANCED_FACE('', (#132), #138, .T.);
#132 = FACE_OUTER_BOUND('', #133, .T.);
#133 = EDGE_LOOP('', (#134, #135, #136, #137));
#134 = ORIENTED_EDGE('', *, *, #101, .F.);
#135 = ORIENTED_EDGE('', *, *, #121, .T.);
#136 = ORIENTED_EDGE('', *, *, #39, .T.);
#137 = ORIENTED_EDGE('', *, *, #73, .F.);
#138 = B_SPLINE_SURFACE_WITH_KNOTS('', 1, 1, ((#139, #140), (#141, #142)), .UNSPECIFIED., .F., .F., .U., (2, 2), (2, 2), (0., 40.), (0., 30.), .UNSPECIFIED.);
#139 = CARTESIAN_POINT('', (60., 0., 0.));
#140 = CARTESIAN_POINT('', (60., 0., 30.));
#141 = CARTESIAN_POINT('', (60., 40., 0.));
#142 = CARTESIAN_POINT('', (60., 40., 30.));
#143 = ADVANCED_FACE('', (#144), #150, .T.);
#144 = FACE_OUTER_BOUND('', #145, .T.);
#145 = EDGE_LOOP('', (#146, #147, #148, #149));
#146 = ORIENTED_EDGE('', *, *, #87, .T.);
#147 = ORIENTED_EDGE('', *, *, #59, .T.);
#148 = ORIENTED_EDGE('', *, *, #23, .F.);
#149 = ORIENTED_EDGE('', *, *, #115, .F.);
#150 = B_SPLINE_SURFACE_WITH_KNOTS('', 1, 1, ((#151, #152), (#153, #154)), .UNSPECIFIED., .F., .F., .U., (2, 2), (2, 2), (0., 30.), (0., 40.), .UNSPECIFIED.);
#151 = CARTESIAN_POINT('', (0., 0., 0.));
#152 = CARTESIAN_POINT('', (0., 40., 0.));
#153 = CARTESIAN_POINT('', (0., 0., 30.));
#154 = CARTESIAN_POINT('', (0., 40., 30.));
#155 = DRAUGHTING_MODEL('', (#163), #164);
#156 = PRESENTATION_STYLE_ASSIGNMENT((#157));
#157 = SURFACE_STYLE_USAGE(.POSITIVE., #158);
#158 = SURFACE_SIDE_STYLE('', (#159));
#159 = SURFACE_STYLE_FILL_AREA(#160);
#160 = FILL_AREA_STYLE('', (#161));
#161 = FILL_AREA_STYLE_COLOUR('', #162);
#162 = COLOUR_RGB('', 0.50196078431373, 0.50196078431373, 0.50196078431373);
#163 = STYLED_ITEM('', (#156), #17);
#164 = (
   GEOMETRIC_REPRESENTATION_CONTEXT (3)
   GLOBAL_UNCERTAINTY_ASSIGNED_CONTEXT ((#166))
   GLOBAL_UNIT_ASSIGNED_CONTEXT ((#165, #167, #168))
   REPRESENTATION_CONTEXT ('', '3D')
);
#165 = (
   LENGTH_UNIT ()
   NAMED_UNIT (*)
   SI_UNIT (.MILLI., .METRE.)
);
#166 = UNCERTAINTY_MEASURE_WITH_UNIT(LENGTH_MEASURE(1.E-6), #165, 'DISTANCE_ACCURACY_VALUE', '');
#167 = (
   NAMED_UNIT (*)
   SI_UNIT ($, .STERADIAN.)
   SOLID_ANGLE_UNIT ()
);
#168 = (
   NAMED_UNIT (*)
   PLANE_ANGLE_UNIT ()
   SI_UNIT ($, .RADIAN.)
);
#169 = SHAPE_REPRESENTATION('', (#188), #164);
#170 = PRODUCT_DEFINITION_SHAPE('', '', #171);
#171 = PRODUCT_DEFINITION('', '', #174, #178);
#172 = APPLICATION_CONTEXT('configuration controlled 3D designs of mechanical parts and assemblies');
#173 = APPLICATION_PROTOCOL_DEFINITION('International Standard', 'automotive_design', 2002, #172);
#174 = PRODUCT_DEFINITION_FORMATION_WITH_SPECIFIED_SOURCE('', '', #175, .NOT_KNOWN.);
#175 = PRODUCT('Box', 'Box', '', (#176));
#176 = PRODUCT_CONTEXT('', #172, 'mechanical');
#177 = PRODUCT_RELATED_PRODUCT_CATEGORY('detail', '', (#175));
#178 = PRODUCT_DEFINITION_CONTEXT('part definition', #172, 'design');
#179 = SHAPE_DEFINITION_REPRESENTATION(#170, #169);
#180 = SHAPE_REPRESENTATION_RELATIONSHIP('', '', #169, #181);
#181 = ADVANCED_BREP_SHAPE_REPRESENTATION('', (#17), #164);
#182 = NEXT_ASSEMBLY_USAGE_OCCURRENCE('', 'BoxInst', 'BoxInst', #8, #171, '');
#183 = PRODUCT_DEFINITION_SHAPE('', '', #182);
#184 = AXIS2_PLACEMENT_3D('', #185, #186, #187);
#185 = CARTESIAN_POINT('', (0., 0., 0.));
#186 = DIRECTION('', (0., 0., 1.));
#187 = DIRECTION('', (1., 0., 0.));
#188 = AXIS2_PLACEMENT_3D('', #189, #190, #191);
#189 = CARTESIAN_POINT('', (0., 0., 0.));
#190 = DIRECTION('', (0., 0., 1.));
#191 = DIRECTION('', (1., 0., 0.));
#192 = ITEM_DEFINED_TRANSFORMATION('', '', #184, #188);
#193 = (
   REPRESENTATION_RELATIONSHIP ('', '', #6, #169)
   REPRESENTATION_RELATIONSHIP_WITH_TRANSFORMATION (#192)
   SHAPE_REPRESENTATION_RELATIONSHIP ()
);
#194 = CONTEXT_DEPENDENT_SHAPE_REPRESENTATION(#193, #183);
#195 = MANIFOLD_SOLID_BREP('C1_0', #196);
#196 = CLOSED_SHELL('', (#197, #253, #262));
#197 = ADVANCED_FACE('', (#198), #234, .T.);
#198 = FACE_OUTER_BOUND('', #199, .T.);
#199 = EDGE_LOOP('', (#200, #209, #221, #222));
#200 = ORIENTED_EDGE('', *, *, #201, .F.);
#201 = EDGE_CURVE('', #202, #204, #206, .T.);
#202 = VERTEX_POINT('', #203);
#203 = CARTESIAN_POINT('', (50., 0., 0.));
#204 = VERTEX_POINT('', #205);
#205 = CARTESIAN_POINT('', (50., 0., 50.));
#206 = B_SPLINE_CURVE_WITH_KNOTS('', 1, (#207, #208), .UNSPECIFIED., .F., .U., (2, 2), (0., 50.), .UNSPECIFIED.);
#207 = CARTESIAN_POINT('', (50., 0., 0.));
#208 = CARTESIAN_POINT('', (50., 0., 50.));
#209 = ORIENTED_EDGE('', *, *, #210, .T.);
#210 = EDGE_CURVE('', #202, #202, #211, .T.);
#211 = (
   BOUNDED_CURVE ()
   B_SPLINE_CURVE (2, (#212, #213, #214, #215, #216, #217, #218, #219, #220), .UNSPECIFIED., .T., .U.)
   B_SPLINE_CURVE_WITH_KNOTS ((3, 2, 2, 2, 3), (0., 78.5398163397448, 157.07963267949, 235.619449019235, 314.159265358979), .UNSPECIFIED.)
   CURVE ()
   GEOMETRIC_REPRESENTATION_ITEM ()
   RATIONAL_B_SPLINE_CURVE ((1., 0.707106781186548, 1., 0.707106781186548, 1., 0.707106781186548, 1., 0.707106781186548, 1.))
   REPRESENTATION_ITEM ('')
);
#212 = CARTESIAN_POINT('', (50., 0., 0.));
#213 = CARTESIAN_POINT('', (50., 50., 0.));
#214 = CARTESIAN_POINT('', (3.06161699786838E-15, 50., 0.));
#215 = CARTESIAN_POINT('', (-50., 50., 0.));
#216 = CARTESIAN_POINT('', (-50., 6.12323399573677E-15, 0.));
#217 = CARTESIAN_POINT('', (-50., -50., 0.));
#218 = CARTESIAN_POINT('', (-9.18485099360515E-15, -50., 0.));
#219 = CARTESIAN_POINT('', (50., -50., 0.));
#220 = CARTESIAN_POINT('', (50., 0., 0.));
#221 = ORIENTED_EDGE('', *, *, #201, .T.);
#222 = ORIENTED_EDGE('', *, *, #223, .F.);
#223 = EDGE_CURVE('', #204, #204, #224, .T.);
#224 = (
   BOUNDED_CURVE ()
   B_SPLINE_CURVE (2, (#225, #226, #227, #228, #229, #230, #231, #232, #233), .UNSPECIFIED., .T., .U.)
   B_SPLINE_CURVE_WITH_KNOTS ((3, 2, 2, 2, 3), (0., 78.5398163397448, 157.07963267949, 235.619449019235, 314.159265358979), .UNSPECIFIED.)
   CURVE ()
   GEOMETRIC_REPRESENTATION_ITEM ()
   RATIONAL_B_SPLINE_CURVE ((1., 0.707106781186548, 1., 0.707106781186548, 1., 0.707106781186548, 1., 0.707106781186548, 1.))
   REPRESENTATION_ITEM ('')
);
#225 = CARTESIAN_POINT('', (50., 0., 50.));
#226 = CARTESIAN_POINT('', (50., 50., 50.));
#227 = CARTESIAN_POINT('', (3.06161699786838E-15, 50., 50.));
#228 = CARTESIAN_POINT('', (-50., 50., 50.));
#229 = CARTESIAN_POINT('', (-50., 6.12323399573677E-15, 50.));
#230 = CARTESIAN_POINT('', (-50., -50., 50.));
#231 = CARTESIAN_POINT('', (-9.18485099360515E-15, -50., 50.));
#232 = CARTESIAN_POINT('', (50., -50., 50.));
#233 = CARTESIAN_POINT('', (50., 0., 50.));
#234 = (
   BOUNDED_SURFACE ()
   B_SPLINE_SURFACE (2, 1, ((#235, #236), (#237, #238), (#239, #240), (#241, #242), (#243, #244), (#245, #246), (#247, #248), (#249, #250), (#251, #252)), .UNSPECIFIED., .T., .F., .U.)
   B_SPLINE_SURFACE_WITH_KNOTS ((3, 2, 2, 2, 3), (2, 2), (0., 78.5398163397448, 157.07963267949, 235.619449019235, 314.159265358979), (0., 50.), .UNSPECIFIED.)
   GEOMETRIC_REPRESENTATION_ITEM ()
   RATIONAL_B_SPLINE_SURFACE (((1., 1.), (0.707106781186548, 0.707106781186548), (1., 1.), (0.707106781186548, 0.707106781186548), (1., 1.), (0.707106781186548, 0.707106781186548), (1., 1.), (0.707106781186548, 0.707106781186548), (1., 1.)))
   REPRESENTATION_ITEM ('')
   SURFACE ()
);
#235 = CARTESIAN_POINT('', (50., 0., 0.));
#236 = CARTESIAN_POINT('', (50., 0., 50.));
#237 = CARTESIAN_POINT('', (50., 50., 0.));
#238 = CARTESIAN_POINT('', (50., 50., 50.));
#239 = CARTESIAN_POINT('', (3.06161699786838E-15, 50., 0.));
#240 = CARTESIAN_POINT('', (3.06161699786838E-15, 50., 50.));
#241 = CARTESIAN_POINT('', (-50., 50., 0.));
#242 = CARTESIAN_POINT('', (-50., 50., 50.));
#243 = CARTESIAN_POINT('', (-50., 6.12323399573677E-15, 0.));
#244 = CARTESIAN_POINT('', (-50., 6.12323399573677E-15, 50.));
#245 = CARTESIAN_POINT('', (-50., -50., 0.));
#246 = CARTESIAN_POINT('', (-50., -50., 50.));
#247 = CARTESIAN_POINT('', (-9.18485099360515E-15, -50., 0.));
#248 = CARTESIAN_POINT('', (-9.18485099360515E-15, -50., 50.));
#249 = CARTESIAN_POINT('', (50., -50., 0.));
#250 = CARTESIAN_POINT('', (50., -50., 50.));
#251 = CARTESIAN_POINT('', (50., 0., 0.));
#252 = CARTESIAN_POINT('', (50., 0., 50.));
#253 = ADVANCED_FACE('', (#254), #257, .T.);
#254 = FACE_OUTER_BOUND('', #255, .T.);
#255 = EDGE_LOOP('', (#256));
#256 = ORIENTED_EDGE('', *, *, #210, .F.);
#257 = B_SPLINE_SURFACE_WITH_KNOTS('', 1, 1, ((#258, #259), (#260, #261)), .UNSPECIFIED., .F., .F., .U., (2, 2), (2, 2), (0., 1.), (0., 1.), .UNSPECIFIED.);
#258 = CARTESIAN_POINT('', (77.7817459305203, -77.7817459305203, 0.));
#259 = CARTESIAN_POINT('', (77.7817459305203, 77.7817459305203, 0.));
#260 = CARTESIAN_POINT('', (-77.7817459305203, -77.7817459305203, 0.));
#261 = CARTESIAN_POINT('', (-77.7817459305203, 77.7817459305203, 0.));
#262 = ADVANCED_FACE('', (#263), #266, .T.);
#263 = FACE_OUTER_BOUND('', #264, .T.);
#264 = EDGE_LOOP('', (#265));
#265 = ORIENTED_EDGE('', *, *, #223, .T.);
#266 = B_SPLINE_SURFACE_WITH_KNOTS('', 1, 1, ((#267, #268), (#269, #270)), .UNSPECIFIED., .F., .F., .U., (2, 2), (2, 2), (0., 1.), (0., 1.), .UNSPECIFIED.);
#267 = CARTESIAN_POINT('', (77.7817459305203, -77.7817459305203, 50.));
#268 = CARTESIAN_POINT('', (-77.7817459305203, -77.7817459305203, 50.));
#269 = CARTESIAN_POINT('', (77.7817459305203, 77.7817459305203, 50.));
#270 = CARTESIAN_POINT('', (-77.7817459305203, 77.7817459305203, 50.));
#271 = DRAUGHTING_MODEL('', (#279), #280);
#272 = PRESENTATION_STYLE_ASSIGNMENT((#273));
#273 = SURFACE_STYLE_USAGE(.POSITIVE., #274);
#274 = SURFACE_SIDE_STYLE('', (#275));
#275 = SURFACE_STYLE_FILL_AREA(#276);
#276 = FILL_AREA_STYLE('', (#277));
#277 = FILL_AREA_STYLE_COLOUR('', #278);
#278 = COLOUR_RGB('', 0.50196078431373, 0.50196078431373, 0.50196078431373);
#279 = STYLED_ITEM('', (#272), #195);
#280 = (
   GEOMETRIC_REPRESENTATION_CONTEXT (3)
   GLOBAL_UNCERTAINTY_ASSIGNED_CONTEXT ((#282))
   GLOBAL_UNIT_ASSIGNED_CONTEXT ((#281, #283, #284))
   REPRESENTATION_CONTEXT ('', '3D')
);
#281 = (
   LENGTH_UNIT ()
   NAMED_UNIT (*)
   SI_UNIT (.MILLI., .METRE.)
);
#282 = UNCERTAINTY_MEASURE_WITH_UNIT(LENGTH_MEASURE(1.E-6), #281, 'DISTANCE_ACCURACY_VALUE', '');
#283 = (
   NAMED_UNIT (*)
   SI_UNIT ($, .STERADIAN.)
   SOLID_ANGLE_UNIT ()
);
#284 = (
   NAMED_UNIT (*)
   PLANE_ANGLE_UNIT ()
   SI_UNIT ($, .RADIAN.)
);
#285 = SHAPE_REPRESENTATION('', (#304), #280);
#286 = PRODUCT_DEFINITION_SHAPE('', '', #287);
#287 = PRODUCT_DEFINITION('', '', #290, #294);
#288 = APPLICATION_CONTEXT('configuration controlled 3D designs of mechanical parts and assemblies');
#289 = APPLICATION_PROTOCOL_DEFINITION('International Standard', 'automotive_design', 2002, #288);
#290 = PRODUCT_DEFINITION_FORMATION_WITH_SPECIFIED_SOURCE('', '', #291, .NOT_KNOWN.);
#291 = PRODUCT('Cyl', 'Cyl', '', (#292));
#292 = PRODUCT_CONTEXT('', #288, 'mechanical');
#293 = PRODUCT_RELATED_PRODUCT_CATEGORY('detail', '', (#291));
#294 = PRODUCT_DEFINITION_CONTEXT('part definition', #288, 'design');
#295 = SHAPE_DEFINITION_REPRESENTATION(#286, #285);
#296 = SHAPE_REPRESENTATION_RELATIONSHIP('', '', #285, #297);
#297 = ADVANCED_BREP_SHAPE_REPRESENTATION('', (#195), #280);
#298 = NEXT_ASSEMBLY_USAGE_OCCURRENCE('', 'CylInst', 'CylInst', #8, #287, '');
#299 = PRODUCT_DEFINITION_SHAPE('', '', #298);
#300 = AXIS2_PLACEMENT_3D('', #301, #302, #303);
#301 = CARTESIAN_POINT('', (80., 0., 0.));
#302 = DIRECTION('', (0., 0., 1.));
#303 = DIRECTION('', (1., 0., 0.));
#304 = AXIS2_PLACEMENT_3D('', #305, #306, #307);
#305 = CARTESIAN_POINT('', (0., 0., 0.));
#306 = DIRECTION('', (0., 0., 1.));
#307 = DIRECTION('', (1., 0., 0.));
#308 = ITEM_DEFINED_TRANSFORMATION('', '', #300, #304);
#309 = (
   REPRESENTATION_RELATIONSHIP ('', '', #6, #285)
   REPRESENTATION_RELATIONSHIP_WITH_TRANSFORMATION (#308)
   SHAPE_REPRESENTATION_RELATIONSHIP ()
);
#310 = CONTEXT_DEPENDENT_SHAPE_REPRESENTATION(#309, #299);
#311 = DRAUGHTING_MODEL('', (), #1);
#312 = REPRESENTATION_RELATIONSHIP('', '', #155, #311);
#313 = REPRESENTATION_RELATIONSHIP('', '', #271, #311);
ENDSEC;
END-ISO-10303-21;
