ISO-10303-21;
HEADER;
FILE_DESCRIPTION(('STEP'), '1');
FILE_NAME('SectionSphere', '2026-04-15T14:10:12', (''), (''), 'Express 3.1.2.0', 'Express Tool', 'Unknown');
FILE_SCHEMA(('AUTOMOTIVE_DESIGN'));
ENDSEC;

DATA;
#1 = MANIFOLD_SOLID_BREP('Solid', #2);
#2 = CLOSED_SHELL('', (#3));
#3 = ADVANCED_FACE('', (#4), #19, .T.);
#4 = FACE_OUTER_BOUND('', #5, .T.);
#5 = EDGE_LOOP('', (#6, #18));
#6 = ORIENTED_EDGE('', *, *, #7, .F.);
#7 = EDGE_CURVE('', #8, #10, #12, .T.);
#8 = VERTEX_POINT('', #9);
#9 = CARTESIAN_POINT('', (-5.51091059616309E-15, 0., -30.));
#10 = VERTEX_POINT('', #11);
#11 = CARTESIAN_POINT('', (9.18485099360515E-15, 0., 30.));
#12 = (
   BOUNDED_CURVE ()
   B_SPLINE_CURVE (2, (#13, #14, #15, #16, #17), .UNSPECIFIED., .F., .U.)
   B_SPLINE_CURVE_WITH_KNOTS ((3, 2, 3), (0., 0.5, 1.), .UNSPECIFIED.)
   CURVE ()
   GEOMETRIC_REPRESENTATION_ITEM ()
   RATIONAL_B_SPLINE_CURVE ((1., 0.707106781186548, 1., 0.707106781186548, 1.))
   REPRESENTATION_ITEM ('')
);
#13 = CARTESIAN_POINT('', (-5.51091059616309E-15, 0., -30.));
#14 = CARTESIAN_POINT('', (30., 0., -30.));
#15 = CARTESIAN_POINT('', (30., 0., -7.34788079488412E-15));
#16 = CARTESIAN_POINT('', (30., 0., 30.));
#17 = CARTESIAN_POINT('', (9.18485099360515E-15, 0., 30.));
#18 = ORIENTED_EDGE('', *, *, #7, .T.);
#19 = (
   BOUNDED_SURFACE ()
   B_SPLINE_SURFACE (2, 2, ((#20, #21, #22, #23, #24), (#25, #26, #27, #28, #29), (#30, #31, #32, #33, #34), (#35, #36, #37, #38, #39), (#40, #41, #42, #43, #44), (#45, #46, #47, #48, #49), (#50, #51, #52, #53, #54), (#55, #56, #57, #58, #59), (#60, #61, #62, #63, #64)), .UNSPECIFIED., .T., .F., .U.)
   B_SPLINE_SURFACE_WITH_KNOTS ((3, 2, 2, 2, 3), (3, 2, 3), (0., 0.25, 0.5, 0.75, 1.), (0., 0.5, 1.), .UNSPECIFIED.)
   GEOMETRIC_REPRESENTATION_ITEM ()
   RATIONAL_B_SPLINE_SURFACE (((1., 0.707106781186548, 1., 0.707106781186548, 1.), (0.707106781186548, 0.5, 0.707106781186548, 0.5, 0.707106781186548), (1., 0.707106781186548, 1., 0.707106781186548, 1.), (0.707106781186548, 0.5, 0.707106781186548, 0.5, 0.707106781186548), (1., 0.707106781186548, 1., 0.707106781186548, 1.), (0.707106781186548, 0.5, 0.707106781186548, 0.5, 0.707106781186548), (1., 0.707106781186548, 1., 0.707106781186548, 1.), (0.707106781186548, 0.5, 0.707106781186548, 0.5, 0.707106781186548), (1., 0.707106781186548, 1., 0.707106781186548, 1.)))
   REPRESENTATION_ITEM ('')
   SURFACE ()
);
#20 = CARTESIAN_POINT('', (-5.51091059616309E-15, 0., -30.));
#21 = CARTESIAN_POINT('', (30., 0., -30.));
#22 = CARTESIAN_POINT('', (30., 0., -7.34788079488412E-15));
#23 = CARTESIAN_POINT('', (30., 0., 30.));
#24 = CARTESIAN_POINT('', (9.18485099360515E-15, 0., 30.));
#25 = CARTESIAN_POINT('', (-5.51091059616309E-15, 0., -30.));
#26 = CARTESIAN_POINT('', (30., 30., -30.));
#27 = CARTESIAN_POINT('', (30., 30., -7.34788079488412E-15));
#28 = CARTESIAN_POINT('', (30., 30., 30.));
#29 = CARTESIAN_POINT('', (9.18485099360515E-15, 0., 30.));
#30 = CARTESIAN_POINT('', (-5.51091059616309E-15, 0., -30.));
#31 = CARTESIAN_POINT('', (1.83697019872103E-15, 30., -30.));
#32 = CARTESIAN_POINT('', (1.83697019872103E-15, 30., -7.34788079488412E-15));
#33 = CARTESIAN_POINT('', (1.83697019872103E-15, 30., 30.));
#34 = CARTESIAN_POINT('', (9.18485099360515E-15, 0., 30.));
#35 = CARTESIAN_POINT('', (-5.51091059616309E-15, 0., -30.));
#36 = CARTESIAN_POINT('', (-30., 30., -30.));
#37 = CARTESIAN_POINT('', (-30., 30., -7.34788079488412E-15));
#38 = CARTESIAN_POINT('', (-30., 30., 30.));
#39 = CARTESIAN_POINT('', (9.18485099360515E-15, 0., 30.));
#40 = CARTESIAN_POINT('', (-5.51091059616309E-15, 0., -30.));
#41 = CARTESIAN_POINT('', (-30., 3.67394039744206E-15, -30.));
#42 = CARTESIAN_POINT('', (-30., 3.67394039744206E-15, -7.34788079488412E-15));
#43 = CARTESIAN_POINT('', (-30., 3.67394039744206E-15, 30.));
#44 = CARTESIAN_POINT('', (9.18485099360515E-15, 0., 30.));
#45 = CARTESIAN_POINT('', (-5.51091059616309E-15, 0., -30.));
#46 = CARTESIAN_POINT('', (-30., -30., -30.));
#47 = CARTESIAN_POINT('', (-30., -30., -7.34788079488412E-15));
#48 = CARTESIAN_POINT('', (-30., -30., 30.));
#49 = CARTESIAN_POINT('', (9.18485099360515E-15, 0., 30.));
#50 = CARTESIAN_POINT('', (-5.51091059616309E-15, 0., -30.));
#51 = CARTESIAN_POINT('', (-5.51091059616309E-15, -30., -30.));
#52 = CARTESIAN_POINT('', (-5.51091059616309E-15, -30., -7.34788079488412E-15));
#53 = CARTESIAN_POINT('', (-5.51091059616309E-15, -30., 30.));
#54 = CARTESIAN_POINT('', (9.18485099360515E-15, 0., 30.));
#55 = CARTESIAN_POINT('', (-5.51091059616309E-15, 0., -30.));
#56 = CARTESIAN_POINT('', (30., -30., -30.));
#57 = CARTESIAN_POINT('', (30., -30., -7.34788079488412E-15));
#58 = CARTESIAN_POINT('', (30., -30., 30.));
#59 = CARTESIAN_POINT('', (9.18485099360515E-15, 0., 30.));
#60 = CARTESIAN_POINT('', (-5.51091059616309E-15, 0., -30.));
#61 = CARTESIAN_POINT('', (30., 0., -30.));
#62 = CARTESIAN_POINT('', (30., 0., -7.34788079488412E-15));
#63 = CARTESIAN_POINT('', (30., 0., 30.));
#64 = CARTESIAN_POINT('', (9.18485099360515E-15, 0., 30.));
#65 = DRAUGHTING_MODEL('', (#73), #92);
#66 = PRESENTATION_STYLE_ASSIGNMENT((#67));
#67 = SURFACE_STYLE_USAGE(.POSITIVE., #68);
#68 = SURFACE_SIDE_STYLE('', (#69));
#69 = SURFACE_STYLE_FILL_AREA(#70);
#70 = FILL_AREA_STYLE('', (#71));
#71 = FILL_AREA_STYLE_COLOUR('', #72);
#72 = COLOUR_RGB('', 0.50196078431373, 0.50196078431373, 0.50196078431373);
#73 = STYLED_ITEM('', (#66), #1);
#74 = (
   BOUNDED_CURVE ()
   B_SPLINE_CURVE (2, (#75, #76, #77, #78, #79, #80, #81), .UNSPECIFIED., .F., .U.)
   B_SPLINE_CURVE_WITH_KNOTS ((3, 2, 2, 3), (0., 0.25, 0.5, 0.75), .UNSPECIFIED.)
   CURVE ()
   GEOMETRIC_REPRESENTATION_ITEM ()
   RATIONAL_B_SPLINE_CURVE ((1., 0.707106781186548, 1., 0.707106781186548, 1., 0.707106781186548, 1.))
   REPRESENTATION_ITEM ('Curve')
);
#75 = CARTESIAN_POINT('', (28.2842712474619, -5.19573633741296E-15, 10.));
#76 = CARTESIAN_POINT('', (28.2842712474619, -28.2842712474619, 10.));
#77 = CARTESIAN_POINT('', (-3.46382422494197E-15, -28.2842712474619, 10.));
#78 = CARTESIAN_POINT('', (-28.2842712474619, -28.2842712474619, 10.));
#79 = CARTESIAN_POINT('', (-28.2842712474619, 1.73191211247099E-15, 10.));
#80 = CARTESIAN_POINT('', (-28.2842712474619, 28.2842712474619, 10.));
#81 = CARTESIAN_POINT('', (0., 28.2842712474619, 10.));
#82 = (
   BOUNDED_CURVE ()
   B_SPLINE_CURVE (2, (#83, #84, #85), .UNSPECIFIED., .F., .U.)
   B_SPLINE_CURVE_WITH_KNOTS ((3, 3), (0.75, 1.), .UNSPECIFIED.)
   CURVE ()
   GEOMETRIC_REPRESENTATION_ITEM ()
   RATIONAL_B_SPLINE_CURVE ((1., 0.707106781186548, 1.))
   REPRESENTATION_ITEM ('Curve')
);
#83 = CARTESIAN_POINT('', (0., 28.2842712474619, 10.));
#84 = CARTESIAN_POINT('', (28.2842712474619, 28.2842712474619, 10.));
#85 = CARTESIAN_POINT('', (28.2842712474619, -5.19573633741296E-15, 10.));
#86 = COMPOSITE_CURVE('Curve', (#87, #88), .U.);
#87 = COMPOSITE_CURVE_SEGMENT(.CONTINUOUS., .T., #74);
#88 = COMPOSITE_CURVE_SEGMENT(.CONTINUOUS., .T., #82);
#89 = GEOMETRIC_CURVE_SET('', (#86));
#90 = CARTESIAN_POINT('Origin', (0., 0., 0.));
#91 = GEOMETRIC_SET('', (#90));
#92 = (
   GEOMETRIC_REPRESENTATION_CONTEXT (3)
   GLOBAL_UNCERTAINTY_ASSIGNED_CONTEXT ((#94))
   GLOBAL_UNIT_ASSIGNED_CONTEXT ((#93, #95, #96))
   REPRESENTATION_CONTEXT ('', '3D')
);
#93 = (
   LENGTH_UNIT ()
   NAMED_UNIT (*)
   SI_UNIT (.MILLI., .METRE.)
);
#94 = UNCERTAINTY_MEASURE_WITH_UNIT(LENGTH_MEASURE(1.E-6), #93, 'DISTANCE_ACCURACY_VALUE', '');
#95 = (
   NAMED_UNIT (*)
   SI_UNIT ($, .STERADIAN.)
   SOLID_ANGLE_UNIT ()
);
#96 = (
   NAMED_UNIT (*)
   PLANE_ANGLE_UNIT ()
   SI_UNIT ($, .RADIAN.)
);
#97 = SHAPE_REPRESENTATION('', (#114), #92);
#98 = PRODUCT_DEFINITION_SHAPE('', '', #99);
#99 = PRODUCT_DEFINITION('', '', #102, #106);
#100 = APPLICATION_CONTEXT('configuration controlled 3D designs of mechanical parts and assemblies');
#101 = APPLICATION_PROTOCOL_DEFINITION('International Standard', 'automotive_design', 2002, #100);
#102 = PRODUCT_DEFINITION_FORMATION_WITH_SPECIFIED_SOURCE('', '', #103, .NOT_KNOWN.);
#103 = PRODUCT('SectionSphere', 'SectionSphere', '', (#104));
#104 = PRODUCT_CONTEXT('', #100, 'mechanical');
#105 = PRODUCT_RELATED_PRODUCT_CATEGORY('detail', '', (#103));
#106 = PRODUCT_DEFINITION_CONTEXT('part definition', #100, 'design');
#107 = SHAPE_DEFINITION_REPRESENTATION(#98, #97);
#108 = SHAPE_REPRESENTATION_RELATIONSHIP('', '', #97, #109);
#109 = SHAPE_REPRESENTATION('', (#91), #92);
#110 = SHAPE_REPRESENTATION_RELATIONSHIP('', '', #97, #111);
#111 = GEOMETRICALLY_BOUNDED_WIREFRAME_SHAPE_REPRESENTATION('', (#89), #92);
#112 = SHAPE_REPRESENTATION_RELATIONSHIP('', '', #97, #113);
#113 = ADVANCED_BREP_SHAPE_REPRESENTATION('', (#1), #92);
#114 = AXIS2_PLACEMENT_3D('', #115, #116, #117);
#115 = CARTESIAN_POINT('', (0., 0., 0.));
#116 = DIRECTION('', (0., 0., 1.));
#117 = DIRECTION('', (1., 0., 0.));
ENDSEC;
END-ISO-10303-21;
