ISO-10303-21;
HEADER;
FILE_DESCRIPTION(('STEP'), '1');
FILE_NAME('PeanutE2E', '2026-06-10T08:02:38', (''), (''), 'Express 3.1.3.0', 'Express Tool', 'Unknown');
FILE_SCHEMA(('AUTOMOTIVE_DESIGN'));
ENDSEC;

DATA;
#1 = MANIFOLD_SOLID_BREP('Boss_0', #2);
#2 = CLOSED_SHELL('', (#3, #51, #94, #129, #159, #173));
#3 = ADVANCED_FACE('', (#4), #46, .T.);
#4 = FACE_OUTER_BOUND('', #5, .T.);
#5 = EDGE_LOOP('', (#6, #16, #28, #36));
#6 = ORIENTED_EDGE('', *, *, #7, .F.);
#7 = EDGE_CURVE('', #8, #10, #12, .T.);
#8 = VERTEX_POINT('', #9);
#9 = CARTESIAN_POINT('', (54.4117647058823, 59.9028783715836, 10.));
#10 = VERTEX_POINT('', #11);
#11 = CARTESIAN_POINT('', (65.5882352941177, 59.9028783715836, 10.));
#12 = (
   BOUNDED_CURVE ()
   B_SPLINE_CURVE (2, (#13, #14, #15), .UNSPECIFIED., .F., .U.)
   B_SPLINE_CURVE_WITH_KNOTS ((3, 3), (0., 1.), .UNSPECIFIED.)
   CURVE ()
   GEOMETRIC_REPRESENTATION_ITEM ()
   RATIONAL_B_SPLINE_CURVE ((1., 0.829286598815983, 1.))
   REPRESENTATION_ITEM ('')
);
#13 = CARTESIAN_POINT('', (54.4117647058823, 59.9028783715836, 10.));
#14 = CARTESIAN_POINT('', (60., 56.1371870235009, 10.));
#15 = CARTESIAN_POINT('', (65.5882352941177, 59.9028783715836, 10.));
#16 = ORIENTED_EDGE('', *, *, #17, .T.);
#17 = EDGE_CURVE('', #8, #18, #20, .T.);
#18 = VERTEX_POINT('', #19);
#19 = CARTESIAN_POINT('', (54.4117647058823, 20.0971216284164, 10.));
#20 = (
   BOUNDED_CURVE ()
   B_SPLINE_CURVE (2, (#21, #22, #23, #24, #25, #26, #27), .UNSPECIFIED., .F., .U.)
   B_SPLINE_CURVE_WITH_KNOTS ((3, 2, 2, 3), (0., 82.6496506335277, 165.299301267055, 247.948951900583), .UNSPECIFIED.)
   CURVE ()
   GEOMETRIC_REPRESENTATION_ITEM ()
   RATIONAL_B_SPLINE_CURVE ((1., 0.750978095150472, 1., 0.750978095150472, 1., 0.750978095150472, 1.))
   REPRESENTATION_ITEM ('')
);
#21 = CARTESIAN_POINT('', (54.4117647058823, 59.9028783715836, 10.));
#22 = CARTESIAN_POINT('', (36.911373726041, 71.6957015854201, 10.));
#23 = CARTESIAN_POINT('', (22.9765257163887, 55.8478507927101, 10.));
#24 = CARTESIAN_POINT('', (9.04167770673635, 40., 10.));
#25 = CARTESIAN_POINT('', (22.9765257163887, 24.1521492072899, 10.));
#26 = CARTESIAN_POINT('', (36.911373726041, 8.30429841457986, 10.));
#27 = CARTESIAN_POINT('', (54.4117647058823, 20.0971216284164, 10.));
#28 = ORIENTED_EDGE('', *, *, #29, .F.);
#29 = EDGE_CURVE('', #30, #18, #32, .T.);
#30 = VERTEX_POINT('', #31);
#31 = CARTESIAN_POINT('', (65.5882352941177, 20.0971216284164, 10.));
#32 = (
   BOUNDED_CURVE ()
   B_SPLINE_CURVE (2, (#33, #34, #35), .UNSPECIFIED., .F., .U.)
   B_SPLINE_CURVE_WITH_KNOTS ((3, 3), (0., 1.), .UNSPECIFIED.)
   CURVE ()
   GEOMETRIC_REPRESENTATION_ITEM ()
   RATIONAL_B_SPLINE_CURVE ((1., 0.829286598815983, 1.))
   REPRESENTATION_ITEM ('')
);
#33 = CARTESIAN_POINT('', (65.5882352941177, 20.0971216284164, 10.));
#34 = CARTESIAN_POINT('', (60., 23.8628129764991, 10.));
#35 = CARTESIAN_POINT('', (54.4117647058823, 20.0971216284164, 10.));
#36 = ORIENTED_EDGE('', *, *, #37, .T.);
#37 = EDGE_CURVE('', #30, #10, #38, .T.);
#38 = (
   BOUNDED_CURVE ()
   B_SPLINE_CURVE (2, (#39, #40, #41, #42, #43, #44, #45), .UNSPECIFIED., .F., .U.)
   B_SPLINE_CURVE_WITH_KNOTS ((3, 2, 2, 3), (0., 82.6496506335277, 165.299301267055, 247.948951900583), .UNSPECIFIED.)
   CURVE ()
   GEOMETRIC_REPRESENTATION_ITEM ()
   RATIONAL_B_SPLINE_CURVE ((1., 0.750978095150472, 1., 0.750978095150472, 1., 0.750978095150472, 1.))
   REPRESENTATION_ITEM ('')
);
#39 = CARTESIAN_POINT('', (65.5882352941177, 20.0971216284164, 10.));
#40 = CARTESIAN_POINT('', (83.088626273959, 8.30429841457986, 10.));
#41 = CARTESIAN_POINT('', (97.0234742836113, 24.1521492072899, 10.));
#42 = CARTESIAN_POINT('', (110.958322293264, 40., 10.));
#43 = CARTESIAN_POINT('', (97.0234742836113, 55.8478507927101, 10.));
#44 = CARTESIAN_POINT('', (83.088626273959, 71.6957015854201, 10.));
#45 = CARTESIAN_POINT('', (65.5882352941177, 59.9028783715836, 10.));
#46 = B_SPLINE_SURFACE_WITH_KNOTS('', 1, 1, ((#47, #48), (#49, #50)), .UNSPECIFIED., .F., .F., .U., (2, 2), (2, 2), (0., 1.), (0., 1.), .UNSPECIFIED.);
#47 = CARTESIAN_POINT('', (126.012539816483, -26.0125398164828, 10.));
#48 = CARTESIAN_POINT('', (-6.0125398164828, -26.0125398164828, 10.));
#49 = CARTESIAN_POINT('', (126.012539816483, 106.012539816483, 10.));
#50 = CARTESIAN_POINT('', (-6.0125398164828, 106.012539816483, 10.));
#51 = ADVANCED_FACE('', (#52), #79, .T.);
#52 = FACE_OUTER_BOUND('', #53, .T.);
#53 = EDGE_LOOP('', (#54, #61, #73, #78));
#54 = ORIENTED_EDGE('', *, *, #55, .F.);
#55 = EDGE_CURVE('', #56, #8, #58, .T.);
#56 = VERTEX_POINT('', #57);
#57 = CARTESIAN_POINT('', (54.4117647058823, 59.9028783715836, 0.));
#58 = B_SPLINE_CURVE_WITH_KNOTS('', 1, (#59, #60), .UNSPECIFIED., .F., .U., (2, 2), (0., 10.), .UNSPECIFIED.);
#59 = CARTESIAN_POINT('', (54.4117647058823, 59.9028783715836, 0.));
#60 = CARTESIAN_POINT('', (54.4117647058823, 59.9028783715836, 10.));
#61 = ORIENTED_EDGE('', *, *, #62, .T.);
#62 = EDGE_CURVE('', #56, #63, #65, .T.);
#63 = VERTEX_POINT('', #64);
#64 = CARTESIAN_POINT('', (54.4117647058823, 20.0971216284164, 0.));
#65 = (
   BOUNDED_CURVE ()
   B_SPLINE_CURVE (2, (#66, #67, #68, #69, #70, #71, #72), .UNSPECIFIED., .F., .U.)
   B_SPLINE_CURVE_WITH_KNOTS ((3, 2, 2, 3), (0., 82.6496506335277, 165.299301267055, 247.948951900583), .UNSPECIFIED.)
   CURVE ()
   GEOMETRIC_REPRESENTATION_ITEM ()
   RATIONAL_B_SPLINE_CURVE ((1., 0.750978095150472, 1., 0.750978095150472, 1., 0.750978095150472, 1.))
   REPRESENTATION_ITEM ('')
);
#66 = CARTESIAN_POINT('', (54.4117647058823, 59.9028783715836, 0.));
#67 = CARTESIAN_POINT('', (36.911373726041, 71.6957015854201, 0.));
#68 = CARTESIAN_POINT('', (22.9765257163887, 55.8478507927101, 0.));
#69 = CARTESIAN_POINT('', (9.04167770673635, 40., 0.));
#70 = CARTESIAN_POINT('', (22.9765257163887, 24.1521492072899, 0.));
#71 = CARTESIAN_POINT('', (36.911373726041, 8.30429841457986, 0.));
#72 = CARTESIAN_POINT('', (54.4117647058823, 20.0971216284164, 0.));
#73 = ORIENTED_EDGE('', *, *, #74, .T.);
#74 = EDGE_CURVE('', #63, #18, #75, .T.);
#75 = B_SPLINE_CURVE_WITH_KNOTS('', 1, (#76, #77), .UNSPECIFIED., .F., .U., (2, 2), (0., 10.), .UNSPECIFIED.);
#76 = CARTESIAN_POINT('', (54.4117647058823, 20.0971216284164, 0.));
#77 = CARTESIAN_POINT('', (54.4117647058823, 20.0971216284164, 10.));
#78 = ORIENTED_EDGE('', *, *, #17, .F.);
#79 = (
   BOUNDED_SURFACE ()
   B_SPLINE_SURFACE (2, 1, ((#80, #81), (#82, #83), (#84, #85), (#86, #87), (#88, #89), (#90, #91), (#92, #93)), .UNSPECIFIED., .F., .F., .U.)
   B_SPLINE_SURFACE_WITH_KNOTS ((3, 2, 2, 3), (2, 2), (0., 82.6496506335277, 165.299301267055, 247.948951900583), (0., 10.), .UNSPECIFIED.)
   GEOMETRIC_REPRESENTATION_ITEM ()
   RATIONAL_B_SPLINE_SURFACE (((1., 1.), (0.750978095150472, 0.750978095150472), (1., 1.), (0.750978095150472, 0.750978095150472), (1., 1.), (0.750978095150472, 0.750978095150472), (1., 1.)))
   REPRESENTATION_ITEM ('')
   SURFACE ()
);
#80 = CARTESIAN_POINT('', (54.4117647058823, 59.9028783715836, 0.));
#81 = CARTESIAN_POINT('', (54.4117647058823, 59.9028783715836, 10.));
#82 = CARTESIAN_POINT('', (36.911373726041, 71.6957015854201, 0.));
#83 = CARTESIAN_POINT('', (36.911373726041, 71.6957015854201, 10.));
#84 = CARTESIAN_POINT('', (22.9765257163887, 55.8478507927101, 0.));
#85 = CARTESIAN_POINT('', (22.9765257163887, 55.8478507927101, 10.));
#86 = CARTESIAN_POINT('', (9.04167770673635, 40., 0.));
#87 = CARTESIAN_POINT('', (9.04167770673635, 40., 10.));
#88 = CARTESIAN_POINT('', (22.9765257163887, 24.1521492072899, 0.));
#89 = CARTESIAN_POINT('', (22.9765257163887, 24.1521492072899, 10.));
#90 = CARTESIAN_POINT('', (36.911373726041, 8.30429841457986, 0.));
#91 = CARTESIAN_POINT('', (36.911373726041, 8.30429841457986, 10.));
#92 = CARTESIAN_POINT('', (54.4117647058823, 20.0971216284164, 0.));
#93 = CARTESIAN_POINT('', (54.4117647058823, 20.0971216284164, 10.));
#94 = ADVANCED_FACE('', (#95), #124, .T.);
#95 = FACE_OUTER_BOUND('', #96, .T.);
#96 = EDGE_LOOP('', (#97, #105, #117, #123));
#97 = ORIENTED_EDGE('', *, *, #98, .T.);
#98 = EDGE_CURVE('', #56, #99, #101, .T.);
#99 = VERTEX_POINT('', #100);
#100 = CARTESIAN_POINT('', (65.5882352941177, 59.9028783715836, 0.));
#101 = (
   BOUNDED_CURVE ()
   B_SPLINE_CURVE (2, (#102, #103, #104), .UNSPECIFIED., .F., .U.)
   B_SPLINE_CURVE_WITH_KNOTS ((3, 3), (0., 1.), .UNSPECIFIED.)
   CURVE ()
   GEOMETRIC_REPRESENTATION_ITEM ()
   RATIONAL_B_SPLINE_CURVE ((1., 0.829286598815983, 1.))
   REPRESENTATION_ITEM ('')
);
#102 = CARTESIAN_POINT('', (54.4117647058823, 59.9028783715836, 0.));
#103 = CARTESIAN_POINT('', (60., 56.1371870235009, 0.));
#104 = CARTESIAN_POINT('', (65.5882352941177, 59.9028783715836, 0.));
#105 = ORIENTED_EDGE('', *, *, #106, .F.);
#106 = EDGE_CURVE('', #107, #99, #109, .T.);
#107 = VERTEX_POINT('', #108);
#108 = CARTESIAN_POINT('', (65.5882352941177, 20.0971216284164, 0.));
#109 = (
   BOUNDED_CURVE ()
   B_SPLINE_CURVE (2, (#110, #111, #112, #113, #114, #115, #116), .UNSPECIFIED., .F., .U.)
   B_SPLINE_CURVE_WITH_KNOTS ((3, 2, 2, 3), (0., 82.6496506335277, 165.299301267055, 247.948951900583), .UNSPECIFIED.)
   CURVE ()
   GEOMETRIC_REPRESENTATION_ITEM ()
   RATIONAL_B_SPLINE_CURVE ((1., 0.750978095150472, 1., 0.750978095150472, 1., 0.750978095150472, 1.))
   REPRESENTATION_ITEM ('')
);
#110 = CARTESIAN_POINT('', (65.5882352941177, 20.0971216284164, 0.));
#111 = CARTESIAN_POINT('', (83.088626273959, 8.30429841457986, 0.));
#112 = CARTESIAN_POINT('', (97.0234742836113, 24.1521492072899, 0.));
#113 = CARTESIAN_POINT('', (110.958322293264, 40., 0.));
#114 = CARTESIAN_POINT('', (97.0234742836113, 55.8478507927101, 0.));
#115 = CARTESIAN_POINT('', (83.088626273959, 71.6957015854201, 0.));
#116 = CARTESIAN_POINT('', (65.5882352941177, 59.9028783715836, 0.));
#117 = ORIENTED_EDGE('', *, *, #118, .T.);
#118 = EDGE_CURVE('', #107, #63, #119, .T.);
#119 = (
   BOUNDED_CURVE ()
   B_SPLINE_CURVE (2, (#120, #121, #122), .UNSPECIFIED., .F., .U.)
   B_SPLINE_CURVE_WITH_KNOTS ((3, 3), (0., 1.), .UNSPECIFIED.)
   CURVE ()
   GEOMETRIC_REPRESENTATION_ITEM ()
   RATIONAL_B_SPLINE_CURVE ((1., 0.829286598815983, 1.))
   REPRESENTATION_ITEM ('')
);
#120 = CARTESIAN_POINT('', (65.5882352941177, 20.0971216284164, 0.));
#121 = CARTESIAN_POINT('', (60., 23.8628129764991, 0.));
#122 = CARTESIAN_POINT('', (54.4117647058823, 20.0971216284164, 0.));
#123 = ORIENTED_EDGE('', *, *, #62, .F.);
#124 = B_SPLINE_SURFACE_WITH_KNOTS('', 1, 1, ((#125, #126), (#127, #128)), .UNSPECIFIED., .F., .F., .U., (2, 2), (2, 2), (0., 1.), (0., 1.), .UNSPECIFIED.);
#125 = CARTESIAN_POINT('', (126.012539816483, -26.0125398164828, 0.));
#126 = CARTESIAN_POINT('', (126.012539816483, 106.012539816483, 0.));
#127 = CARTESIAN_POINT('', (-6.0125398164828, -26.0125398164828, 0.));
#128 = CARTESIAN_POINT('', (-6.0125398164828, 106.012539816483, 0.));
#129 = ADVANCED_FACE('', (#130), #144, .T.);
#130 = FACE_OUTER_BOUND('', #131, .T.);
#131 = EDGE_LOOP('', (#132, #137, #138, #143));
#132 = ORIENTED_EDGE('', *, *, #133, .F.);
#133 = EDGE_CURVE('', #107, #30, #134, .T.);
#134 = B_SPLINE_CURVE_WITH_KNOTS('', 1, (#135, #136), .UNSPECIFIED., .F., .U., (2, 2), (0., 10.), .UNSPECIFIED.);
#135 = CARTESIAN_POINT('', (65.5882352941177, 20.0971216284164, 0.));
#136 = CARTESIAN_POINT('', (65.5882352941177, 20.0971216284164, 10.));
#137 = ORIENTED_EDGE('', *, *, #106, .T.);
#138 = ORIENTED_EDGE('', *, *, #139, .T.);
#139 = EDGE_CURVE('', #99, #10, #140, .T.);
#140 = B_SPLINE_CURVE_WITH_KNOTS('', 1, (#141, #142), .UNSPECIFIED., .F., .U., (2, 2), (0., 10.), .UNSPECIFIED.);
#141 = CARTESIAN_POINT('', (65.5882352941177, 59.9028783715836, 0.));
#142 = CARTESIAN_POINT('', (65.5882352941177, 59.9028783715836, 10.));
#143 = ORIENTED_EDGE('', *, *, #37, .F.);
#144 = (
   BOUNDED_SURFACE ()
   B_SPLINE_SURFACE (2, 1, ((#145, #146), (#147, #148), (#149, #150), (#151, #152), (#153, #154), (#155, #156), (#157, #158)), .UNSPECIFIED., .F., .F., .U.)
   B_SPLINE_SURFACE_WITH_KNOTS ((3, 2, 2, 3), (2, 2), (0., 82.6496506335277, 165.299301267055, 247.948951900583), (0., 10.), .UNSPECIFIED.)
   GEOMETRIC_REPRESENTATION_ITEM ()
   RATIONAL_B_SPLINE_SURFACE (((1., 1.), (0.750978095150472, 0.750978095150472), (1., 1.), (0.750978095150472, 0.750978095150472), (1., 1.), (0.750978095150472, 0.750978095150472), (1., 1.)))
   REPRESENTATION_ITEM ('')
   SURFACE ()
);
#145 = CARTESIAN_POINT('', (65.5882352941177, 20.0971216284164, 0.));
#146 = CARTESIAN_POINT('', (65.5882352941177, 20.0971216284164, 10.));
#147 = CARTESIAN_POINT('', (83.088626273959, 8.30429841457986, 0.));
#148 = CARTESIAN_POINT('', (83.088626273959, 8.30429841457986, 10.));
#149 = CARTESIAN_POINT('', (97.0234742836113, 24.1521492072899, 0.));
#150 = CARTESIAN_POINT('', (97.0234742836113, 24.1521492072899, 10.));
#151 = CARTESIAN_POINT('', (110.958322293264, 40., 0.));
#152 = CARTESIAN_POINT('', (110.958322293264, 40., 10.));
#153 = CARTESIAN_POINT('', (97.0234742836113, 55.8478507927101, 0.));
#154 = CARTESIAN_POINT('', (97.0234742836113, 55.8478507927101, 10.));
#155 = CARTESIAN_POINT('', (83.088626273959, 71.6957015854201, 0.));
#156 = CARTESIAN_POINT('', (83.088626273959, 71.6957015854201, 10.));
#157 = CARTESIAN_POINT('', (65.5882352941177, 59.9028783715836, 0.));
#158 = CARTESIAN_POINT('', (65.5882352941177, 59.9028783715836, 10.));
#159 = ADVANCED_FACE('', (#160), #166, .T.);
#160 = FACE_OUTER_BOUND('', #161, .T.);
#161 = EDGE_LOOP('', (#162, #163, #164, #165));
#162 = ORIENTED_EDGE('', *, *, #55, .T.);
#163 = ORIENTED_EDGE('', *, *, #7, .T.);
#164 = ORIENTED_EDGE('', *, *, #139, .F.);
#165 = ORIENTED_EDGE('', *, *, #98, .F.);
#166 = (
   BOUNDED_SURFACE ()
   B_SPLINE_SURFACE (1, 2, ((#167, #168, #169), (#170, #171, #172)), .UNSPECIFIED., .F., .F., .U.)
   B_SPLINE_SURFACE_WITH_KNOTS ((2, 2), (3, 3), (0., 10.), (0., 67.9489519005829), .UNSPECIFIED.)
   GEOMETRIC_REPRESENTATION_ITEM ()
   RATIONAL_B_SPLINE_SURFACE (((1., 0.829286598815983, 1.), (1., 0.829286598815983, 1.)))
   REPRESENTATION_ITEM ('')
   SURFACE ()
);
#167 = CARTESIAN_POINT('', (54.4117647058823, 59.9028783715836, 0.));
#168 = CARTESIAN_POINT('', (60., 56.1371870235009, 0.));
#169 = CARTESIAN_POINT('', (65.5882352941177, 59.9028783715836, 0.));
#170 = CARTESIAN_POINT('', (54.4117647058823, 59.9028783715836, 10.));
#171 = CARTESIAN_POINT('', (60., 56.1371870235009, 10.));
#172 = CARTESIAN_POINT('', (65.5882352941177, 59.9028783715836, 10.));
#173 = ADVANCED_FACE('', (#174), #180, .T.);
#174 = FACE_OUTER_BOUND('', #175, .T.);
#175 = EDGE_LOOP('', (#176, #177, #178, #179));
#176 = ORIENTED_EDGE('', *, *, #133, .T.);
#177 = ORIENTED_EDGE('', *, *, #29, .T.);
#178 = ORIENTED_EDGE('', *, *, #74, .F.);
#179 = ORIENTED_EDGE('', *, *, #118, .F.);
#180 = (
   BOUNDED_SURFACE ()
   B_SPLINE_SURFACE (1, 2, ((#181, #182, #183), (#184, #185, #186)), .UNSPECIFIED., .F., .F., .U.)
   B_SPLINE_SURFACE_WITH_KNOTS ((2, 2), (3, 3), (0., 10.), (0., 67.9489519005829), .UNSPECIFIED.)
   GEOMETRIC_REPRESENTATION_ITEM ()
   RATIONAL_B_SPLINE_SURFACE (((1., 0.829286598815983, 1.), (1., 0.829286598815983, 1.)))
   REPRESENTATION_ITEM ('')
   SURFACE ()
);
#181 = CARTESIAN_POINT('', (65.5882352941177, 20.0971216284164, 0.));
#182 = CARTESIAN_POINT('', (60., 23.8628129764991, 0.));
#183 = CARTESIAN_POINT('', (54.4117647058823, 20.0971216284164, 0.));
#184 = CARTESIAN_POINT('', (65.5882352941177, 20.0971216284164, 10.));
#185 = CARTESIAN_POINT('', (60., 23.8628129764991, 10.));
#186 = CARTESIAN_POINT('', (54.4117647058823, 20.0971216284164, 10.));
#187 = DRAUGHTING_MODEL('', (#195), #196);
#188 = PRESENTATION_STYLE_ASSIGNMENT((#189));
#189 = SURFACE_STYLE_USAGE(.POSITIVE., #190);
#190 = SURFACE_SIDE_STYLE('', (#191));
#191 = SURFACE_STYLE_FILL_AREA(#192);
#192 = FILL_AREA_STYLE('', (#193));
#193 = FILL_AREA_STYLE_COLOUR('', #194);
#194 = COLOUR_RGB('', 0.50196078431373, 0.50196078431373, 0.50196078431373);
#195 = STYLED_ITEM('', (#188), #1);
#196 = (
   GEOMETRIC_REPRESENTATION_CONTEXT (3)
   GLOBAL_UNCERTAINTY_ASSIGNED_CONTEXT ((#198))
   GLOBAL_UNIT_ASSIGNED_CONTEXT ((#197, #199, #200))
   REPRESENTATION_CONTEXT ('', '3D')
);
#197 = (
   LENGTH_UNIT ()
   NAMED_UNIT (*)
   SI_UNIT (.MILLI., .METRE.)
);
#198 = UNCERTAINTY_MEASURE_WITH_UNIT(LENGTH_MEASURE(1.E-6), #197, 'DISTANCE_ACCURACY_VALUE', '');
#199 = (
   NAMED_UNIT (*)
   SI_UNIT ($, .STERADIAN.)
   SOLID_ANGLE_UNIT ()
);
#200 = (
   NAMED_UNIT (*)
   PLANE_ANGLE_UNIT ()
   SI_UNIT ($, .RADIAN.)
);
#201 = SHAPE_REPRESENTATION('', (#214), #196);
#202 = PRODUCT_DEFINITION_SHAPE('', '', #203);
#203 = PRODUCT_DEFINITION('', '', #206, #210);
#204 = APPLICATION_CONTEXT('configuration controlled 3D designs of mechanical parts and assemblies');
#205 = APPLICATION_PROTOCOL_DEFINITION('International Standard', 'automotive_design', 2002, #204);
#206 = PRODUCT_DEFINITION_FORMATION_WITH_SPECIFIED_SOURCE('', '', #207, .NOT_KNOWN.);
#207 = PRODUCT('PeanutE2E', 'PeanutE2E', '', (#208));
#208 = PRODUCT_CONTEXT('', #204, 'mechanical');
#209 = PRODUCT_RELATED_PRODUCT_CATEGORY('detail', '', (#207));
#210 = PRODUCT_DEFINITION_CONTEXT('part definition', #204, 'design');
#211 = SHAPE_DEFINITION_REPRESENTATION(#202, #201);
#212 = SHAPE_REPRESENTATION_RELATIONSHIP('', '', #201, #213);
#213 = ADVANCED_BREP_SHAPE_REPRESENTATION('', (#1), #196);
#214 = AXIS2_PLACEMENT_3D('', #215, #216, #217);
#215 = CARTESIAN_POINT('', (0., 0., 0.));
#216 = DIRECTION('', (0., 0., 1.));
#217 = DIRECTION('', (1., 0., 0.));
ENDSEC;
END-ISO-10303-21;
