ISO-10303-21;
HEADER;
FILE_DESCRIPTION(('STEP'), '1');
FILE_NAME('GroupTest', '2026-05-01T11:07:24', (''), (''), 'Express 3.1.3.0', 'Express Tool', 'Unknown');
FILE_SCHEMA(('AUTOMOTIVE_DESIGN'));
ENDSEC;

DATA;
#1 = (
   GEOMETRIC_REPRESENTATION_CONTEXT (3)
   GLOBAL_UNCERTAINTY_ASSIGNED_CONTEXT ((#3))
   GLOBAL_UNIT_ASSIGNED_CONTEXT ((#2, #4, #5))
   REPRESENTATION_CONTEXT ('', '3D')
);
#2 = (
   LENGTH_UNIT ()
   NAMED_UNIT (*)
   SI_UNIT (.MILLI., .METRE.)
);
#3 = UNCERTAINTY_MEASURE_WITH_UNIT(LENGTH_MEASURE(1.E-6), #2, 'DISTANCE_ACCURACY_VALUE', '');
#4 = (
   NAMED_UNIT (*)
   SI_UNIT ($, .STERADIAN.)
   SOLID_ANGLE_UNIT ()
);
#5 = (
   NAMED_UNIT (*)
   PLANE_ANGLE_UNIT ()
   SI_UNIT ($, .RADIAN.)
);
#6 = SHAPE_REPRESENTATION('', (#190, #312, #422), #1);
#7 = PRODUCT_DEFINITION_SHAPE('', '', #8);
#8 = PRODUCT_DEFINITION('', '', #11, #15);
#9 = APPLICATION_CONTEXT('configuration controlled 3D designs of mechanical parts and assemblies');
#10 = APPLICATION_PROTOCOL_DEFINITION('International Standard', 'automotive_design', 2002, #9);
#11 = PRODUCT_DEFINITION_FORMATION_WITH_SPECIFIED_SOURCE('', '', #12, .NOT_KNOWN.);
#12 = PRODUCT('GroupTest', 'GroupTest', '', (#13));
#13 = PRODUCT_CONTEXT('', #9, 'mechanical');
#14 = PRODUCT_RELATED_PRODUCT_CATEGORY('detail', '', (#12));
#15 = PRODUCT_DEFINITION_CONTEXT('part definition', #9, 'design');
#16 = SHAPE_DEFINITION_REPRESENTATION(#7, #6);
#17 = MANIFOLD_SOLID_BREP('Box1_0', #18);
#18 = CLOSED_SHELL('', (#19, #55, #83, #111, #131, #143));
#19 = ADVANCED_FACE('', (#20), #50, .T.);
#20 = FACE_OUTER_BOUND('', #21, .T.);
#21 = EDGE_LOOP('', (#22, #31, #38, #45));
#22 = ORIENTED_EDGE('', *, *, #23, .T.);
#23 = EDGE_CURVE('', #24, #26, #28, .T.);
#24 = VERTEX_POINT('', #25);
#25 = CARTESIAN_POINT('', (0., 20., 0.));
#26 = VERTEX_POINT('', #27);
#27 = CARTESIAN_POINT('', (0., 20., 15.));
#28 = B_SPLINE_CURVE_WITH_KNOTS('', 1, (#29, #30), .UNSPECIFIED., .F., .U., (2, 2), (0., 15.), .UNSPECIFIED.);
#29 = CARTESIAN_POINT('', (0., 20., 0.));
#30 = CARTESIAN_POINT('', (0., 20., 15.));
#31 = ORIENTED_EDGE('', *, *, #32, .T.);
#32 = EDGE_CURVE('', #26, #33, #35, .T.);
#33 = VERTEX_POINT('', #34);
#34 = CARTESIAN_POINT('', (30., 20., 15.));
#35 = B_SPLINE_CURVE_WITH_KNOTS('', 1, (#36, #37), .UNSPECIFIED., .F., .U., (2, 2), (0., 30.), .UNSPECIFIED.);
#36 = CARTESIAN_POINT('', (0., 20., 15.));
#37 = CARTESIAN_POINT('', (30., 20., 15.));
#38 = ORIENTED_EDGE('', *, *, #39, .F.);
#39 = EDGE_CURVE('', #40, #33, #42, .T.);
#40 = VERTEX_POINT('', #41);
#41 = CARTESIAN_POINT('', (30., 20., 0.));
#42 = B_SPLINE_CURVE_WITH_KNOTS('', 1, (#43, #44), .UNSPECIFIED., .F., .U., (2, 2), (0., 15.), .UNSPECIFIED.);
#43 = CARTESIAN_POINT('', (30., 20., 0.));
#44 = CARTESIAN_POINT('', (30., 20., 15.));
#45 = ORIENTED_EDGE('', *, *, #46, .F.);
#46 = EDGE_CURVE('', #24, #40, #47, .T.);
#47 = B_SPLINE_CURVE_WITH_KNOTS('', 1, (#48, #49), .UNSPECIFIED., .F., .U., (2, 2), (0., 30.), .UNSPECIFIED.);
#48 = CARTESIAN_POINT('', (0., 20., 0.));
#49 = CARTESIAN_POINT('', (30., 20., 0.));
#50 = B_SPLINE_SURFACE_WITH_KNOTS('', 1, 1, ((#51, #52), (#53, #54)), .UNSPECIFIED., .F., .F., .U., (2, 2), (2, 2), (0., 15.), (0., 30.), .UNSPECIFIED.);
#51 = CARTESIAN_POINT('', (0., 20., 0.));
#52 = CARTESIAN_POINT('', (30., 20., 0.));
#53 = CARTESIAN_POINT('', (0., 20., 15.));
#54 = CARTESIAN_POINT('', (30., 20., 15.));
#55 = ADVANCED_FACE('', (#56), #78, .T.);
#56 = FACE_OUTER_BOUND('', #57, .T.);
#57 = EDGE_LOOP('', (#58, #65, #72, #77));
#58 = ORIENTED_EDGE('', *, *, #59, .F.);
#59 = EDGE_CURVE('', #60, #26, #62, .T.);
#60 = VERTEX_POINT('', #61);
#61 = CARTESIAN_POINT('', (0., 0., 15.));
#62 = B_SPLINE_CURVE_WITH_KNOTS('', 1, (#63, #64), .UNSPECIFIED., .F., .U., (2, 2), (0., 20.), .UNSPECIFIED.);
#63 = CARTESIAN_POINT('', (0., 0., 15.));
#64 = CARTESIAN_POINT('', (0., 20., 15.));
#65 = ORIENTED_EDGE('', *, *, #66, .T.);
#66 = EDGE_CURVE('', #60, #67, #69, .T.);
#67 = VERTEX_POINT('', #68);
#68 = CARTESIAN_POINT('', (30., 0., 15.));
#69 = B_SPLINE_CURVE_WITH_KNOTS('', 1, (#70, #71), .UNSPECIFIED., .F., .U., (2, 2), (0., 30.), .UNSPECIFIED.);
#70 = CARTESIAN_POINT('', (0., 0., 15.));
#71 = CARTESIAN_POINT('', (30., 0., 15.));
#72 = ORIENTED_EDGE('', *, *, #73, .T.);
#73 = EDGE_CURVE('', #67, #33, #74, .T.);
#74 = B_SPLINE_CURVE_WITH_KNOTS('', 1, (#75, #76), .UNSPECIFIED., .F., .U., (2, 2), (0., 20.), .UNSPECIFIED.);
#75 = CARTESIAN_POINT('', (30., 0., 15.));
#76 = CARTESIAN_POINT('', (30., 20., 15.));
#77 = ORIENTED_EDGE('', *, *, #32, .F.);
#78 = B_SPLINE_SURFACE_WITH_KNOTS('', 1, 1, ((#79, #80), (#81, #82)), .UNSPECIFIED., .F., .F., .U., (2, 2), (2, 2), (0., 30.), (0., 20.), .UNSPECIFIED.);
#79 = CARTESIAN_POINT('', (0., 0., 15.));
#80 = CARTESIAN_POINT('', (0., 20., 15.));
#81 = CARTESIAN_POINT('', (30., 0., 15.));
#82 = CARTESIAN_POINT('', (30., 20., 15.));
#83 = ADVANCED_FACE('', (#84), #106, .T.);
#84 = FACE_OUTER_BOUND('', #85, .T.);
#85 = EDGE_LOOP('', (#86, #93, #100, #105));
#86 = ORIENTED_EDGE('', *, *, #87, .F.);
#87 = EDGE_CURVE('', #88, #60, #90, .T.);
#88 = VERTEX_POINT('', #89);
#89 = CARTESIAN_POINT('', (0., 0., 0.));
#90 = B_SPLINE_CURVE_WITH_KNOTS('', 1, (#91, #92), .UNSPECIFIED., .F., .U., (2, 2), (0., 15.), .UNSPECIFIED.);
#91 = CARTESIAN_POINT('', (0., 0., 0.));
#92 = CARTESIAN_POINT('', (0., 0., 15.));
#93 = ORIENTED_EDGE('', *, *, #94, .T.);
#94 = EDGE_CURVE('', #88, #95, #97, .T.);
#95 = VERTEX_POINT('', #96);
#96 = CARTESIAN_POINT('', (30., 0., 0.));
#97 = B_SPLINE_CURVE_WITH_KNOTS('', 1, (#98, #99), .UNSPECIFIED., .F., .U., (2, 2), (0., 30.), .UNSPECIFIED.);
#98 = CARTESIAN_POINT('', (0., 0., 0.));
#99 = CARTESIAN_POINT('', (30., 0., 0.));
#100 = ORIENTED_EDGE('', *, *, #101, .T.);
#101 = EDGE_CURVE('', #95, #67, #102, .T.);
#102 = B_SPLINE_CURVE_WITH_KNOTS('', 1, (#103, #104), .UNSPECIFIED., .F., .U., (2, 2), (0., 15.), .UNSPECIFIED.);
#103 = CARTESIAN_POINT('', (30., 0., 0.));
#104 = CARTESIAN_POINT('', (30., 0., 15.));
#105 = ORIENTED_EDGE('', *, *, #66, .F.);
#106 = B_SPLINE_SURFACE_WITH_KNOTS('', 1, 1, ((#107, #108), (#109, #110)), .UNSPECIFIED., .F., .F., .U., (2, 2), (2, 2), (0., 30.), (0., 15.), .UNSPECIFIED.);
#107 = CARTESIAN_POINT('', (0., 0., 0.));
#108 = CARTESIAN_POINT('', (0., 0., 15.));
#109 = CARTESIAN_POINT('', (30., 0., 0.));
#110 = CARTESIAN_POINT('', (30., 0., 15.));
#111 = ADVANCED_FACE('', (#112), #126, .T.);
#112 = FACE_OUTER_BOUND('', #113, .T.);
#113 = EDGE_LOOP('', (#114, #119, #120, #125));
#114 = ORIENTED_EDGE('', *, *, #115, .T.);
#115 = EDGE_CURVE('', #88, #24, #116, .T.);
#116 = B_SPLINE_CURVE_WITH_KNOTS('', 1, (#117, #118), .UNSPECIFIED., .F., .U., (2, 2), (0., 20.), .UNSPECIFIED.);
#117 = CARTESIAN_POINT('', (0., 0., 0.));
#118 = CARTESIAN_POINT('', (0., 20., 0.));
#119 = ORIENTED_EDGE('', *, *, #46, .T.);
#120 = ORIENTED_EDGE('', *, *, #121, .F.);
#121 = EDGE_CURVE('', #95, #40, #122, .T.);
#122 = B_SPLINE_CURVE_WITH_KNOTS('', 1, (#123, #124), .UNSPECIFIED., .F., .U., (2, 2), (0., 20.), .UNSPECIFIED.);
#123 = CARTESIAN_POINT('', (30., 0., 0.));
#124 = CARTESIAN_POINT('', (30., 20., 0.));
#125 = ORIENTED_EDGE('', *, *, #94, .F.);
#126 = B_SPLINE_SURFACE_WITH_KNOTS('', 1, 1, ((#127, #128), (#129, #130)), .UNSPECIFIED., .F., .F., .U., (2, 2), (2, 2), (0., 20.), (0., 30.), .UNSPECIFIED.);
#127 = CARTESIAN_POINT('', (0., 0., 0.));
#128 = CARTESIAN_POINT('', (30., 0., 0.));
#129 = CARTESIAN_POINT('', (0., 20., 0.));
#130 = CARTESIAN_POINT('', (30., 20., 0.));
#131 = ADVANCED_FACE('', (#132), #138, .T.);
#132 = FACE_OUTER_BOUND('', #133, .T.);
#133 = EDGE_LOOP('', (#134, #135, #136, #137));
#134 = ORIENTED_EDGE('', *, *, #101, .F.);
#135 = ORIENTED_EDGE('', *, *, #121, .T.);
#136 = ORIENTED_EDGE('', *, *, #39, .T.);
#137 = ORIENTED_EDGE('', *, *, #73, .F.);
#138 = B_SPLINE_SURFACE_WITH_KNOTS('', 1, 1, ((#139, #140), (#141, #142)), .UNSPECIFIED., .F., .F., .U., (2, 2), (2, 2), (0., 20.), (0., 15.), .UNSPECIFIED.);
#139 = CARTESIAN_POINT('', (30., 0., 0.));
#140 = CARTESIAN_POINT('', (30., 0., 15.));
#141 = CARTESIAN_POINT('', (30., 20., 0.));
#142 = CARTESIAN_POINT('', (30., 20., 15.));
#143 = ADVANCED_FACE('', (#144), #150, .T.);
#144 = FACE_OUTER_BOUND('', #145, .T.);
#145 = EDGE_LOOP('', (#146, #147, #148, #149));
#146 = ORIENTED_EDGE('', *, *, #87, .T.);
#147 = ORIENTED_EDGE('', *, *, #59, .T.);
#148 = ORIENTED_EDGE('', *, *, #23, .F.);
#149 = ORIENTED_EDGE('', *, *, #115, .F.);
#150 = B_SPLINE_SURFACE_WITH_KNOTS('', 1, 1, ((#151, #152), (#153, #154)), .UNSPECIFIED., .F., .F., .U., (2, 2), (2, 2), (0., 15.), (0., 20.), .UNSPECIFIED.);
#151 = CARTESIAN_POINT('', (0., 0., 0.));
#152 = CARTESIAN_POINT('', (0., 20., 0.));
#153 = CARTESIAN_POINT('', (0., 0., 15.));
#154 = CARTESIAN_POINT('', (0., 20., 15.));
#155 = DRAUGHTING_MODEL('', (#163), #168);
#156 = PRESENTATION_STYLE_ASSIGNMENT((#157));
#157 = SURFACE_STYLE_USAGE(.POSITIVE., #158);
#158 = SURFACE_SIDE_STYLE('', (#159));
#159 = SURFACE_STYLE_FILL_AREA(#160);
#160 = FILL_AREA_STYLE('', (#161));
#161 = FILL_AREA_STYLE_COLOUR('', #162);
#162 = COLOUR_RGB('', 0.50196078431373, 0.50196078431373, 0.50196078431373);
#163 = STYLED_ITEM('', (#156), #17);
#164 = AXIS2_PLACEMENT_3D('WCS', #165, #166, #167);
#165 = CARTESIAN_POINT('', (0., 0., 0.));
#166 = DIRECTION('', (0., 0., 1.));
#167 = DIRECTION('', (1., 0., 0.));
#168 = (
   GEOMETRIC_REPRESENTATION_CONTEXT (3)
   GLOBAL_UNCERTAINTY_ASSIGNED_CONTEXT ((#170))
   GLOBAL_UNIT_ASSIGNED_CONTEXT ((#169, #171, #172))
   REPRESENTATION_CONTEXT ('', '3D')
);
#169 = (
   LENGTH_UNIT ()
   NAMED_UNIT (*)
   SI_UNIT (.MILLI., .METRE.)
);
#170 = UNCERTAINTY_MEASURE_WITH_UNIT(LENGTH_MEASURE(1.E-6), #169, 'DISTANCE_ACCURACY_VALUE', '');
#171 = (
   NAMED_UNIT (*)
   SI_UNIT ($, .STERADIAN.)
   SOLID_ANGLE_UNIT ()
);
#172 = (
   NAMED_UNIT (*)
   PLANE_ANGLE_UNIT ()
   SI_UNIT ($, .RADIAN.)
);
#173 = SHAPE_REPRESENTATION('', (#194), #168);
#174 = PRODUCT_DEFINITION_SHAPE('', '', #175);
#175 = PRODUCT_DEFINITION('', '', #178, #182);
#176 = APPLICATION_CONTEXT('configuration controlled 3D designs of mechanical parts and assemblies');
#177 = APPLICATION_PROTOCOL_DEFINITION('International Standard', 'automotive_design', 2002, #176);
#178 = PRODUCT_DEFINITION_FORMATION_WITH_SPECIFIED_SOURCE('', '', #179, .NOT_KNOWN.);
#179 = PRODUCT('Part1', 'Part1', '', (#180));
#180 = PRODUCT_CONTEXT('', #176, 'mechanical');
#181 = PRODUCT_RELATED_PRODUCT_CATEGORY('detail', '', (#179));
#182 = PRODUCT_DEFINITION_CONTEXT('part definition', #176, 'design');
#183 = SHAPE_DEFINITION_REPRESENTATION(#174, #173);
#184 = CONSTRUCTIVE_GEOMETRY_REPRESENTATION('supplemental geometry', (#164), #168);
#185 = CONSTRUCTIVE_GEOMETRY_REPRESENTATION_RELATIONSHIP('', '', #173, #184);
#186 = SHAPE_REPRESENTATION_RELATIONSHIP('', '', #173, #187);
#187 = ADVANCED_BREP_SHAPE_REPRESENTATION('', (#17), #168);
#188 = NEXT_ASSEMBLY_USAGE_OCCURRENCE('', 'I1', 'I1', #8, #175, '');
#189 = PRODUCT_DEFINITION_SHAPE('', '', #188);
#190 = AXIS2_PLACEMENT_3D('', #191, #192, #193);
#191 = CARTESIAN_POINT('', (0., 0., 0.));
#192 = DIRECTION('', (0., 0., 1.));
#193 = DIRECTION('', (1., 0., 0.));
#194 = AXIS2_PLACEMENT_3D('', #195, #196, #197);
#195 = CARTESIAN_POINT('', (0., 0., 0.));
#196 = DIRECTION('', (0., 0., 1.));
#197 = DIRECTION('', (1., 0., 0.));
#198 = ITEM_DEFINED_TRANSFORMATION('', '', #190, #194);
#199 = (
   REPRESENTATION_RELATIONSHIP ('', '', #6, #173)
   REPRESENTATION_RELATIONSHIP_WITH_TRANSFORMATION (#198)
   SHAPE_REPRESENTATION_RELATIONSHIP ()
);
#200 = CONTEXT_DEPENDENT_SHAPE_REPRESENTATION(#199, #189);
#201 = MANIFOLD_SOLID_BREP('Cyl_0', #202);
#202 = CLOSED_SHELL('', (#203, #259, #268));
#203 = ADVANCED_FACE('', (#204), #240, .T.);
#204 = FACE_OUTER_BOUND('', #205, .T.);
#205 = EDGE_LOOP('', (#206, #215, #227, #228));
#206 = ORIENTED_EDGE('', *, *, #207, .F.);
#207 = EDGE_CURVE('', #208, #210, #212, .T.);
#208 = VERTEX_POINT('', #209);
#209 = CARTESIAN_POINT('', (7.5, 0., 0.));
#210 = VERTEX_POINT('', #211);
#211 = CARTESIAN_POINT('', (7.5, 0., 20.));
#212 = B_SPLINE_CURVE_WITH_KNOTS('', 1, (#213, #214), .UNSPECIFIED., .F., .U., (2, 2), (0., 20.), .UNSPECIFIED.);
#213 = CARTESIAN_POINT('', (7.5, 0., 0.));
#214 = CARTESIAN_POINT('', (7.5, 0., 20.));
#215 = ORIENTED_EDGE('', *, *, #216, .T.);
#216 = EDGE_CURVE('', #208, #208, #217, .T.);
#217 = (
   BOUNDED_CURVE ()
   B_SPLINE_CURVE (2, (#218, #219, #220, #221, #222, #223, #224, #225, #226), .UNSPECIFIED., .T., .U.)
   B_SPLINE_CURVE_WITH_KNOTS ((3, 2, 2, 2, 3), (0., 11.7809724509617, 23.5619449019234, 35.3429173528852, 47.1238898038469), .UNSPECIFIED.)
   CURVE ()
   GEOMETRIC_REPRESENTATION_ITEM ()
   RATIONAL_B_SPLINE_CURVE ((1., 0.707106781186548, 1., 0.707106781186548, 1., 0.707106781186548, 1., 0.707106781186548, 1.))
   REPRESENTATION_ITEM ('')
);
#218 = CARTESIAN_POINT('', (7.5, 0., 0.));
#219 = CARTESIAN_POINT('', (7.5, 7.5, 0.));
#220 = CARTESIAN_POINT('', (4.59242549680257E-16, 7.5, 0.));
#221 = CARTESIAN_POINT('', (-7.5, 7.5, 0.));
#222 = CARTESIAN_POINT('', (-7.5, 9.18485099360515E-16, 0.));
#223 = CARTESIAN_POINT('', (-7.5, -7.5, 0.));
#224 = CARTESIAN_POINT('', (-1.37772764904077E-15, -7.5, 0.));
#225 = CARTESIAN_POINT('', (7.5, -7.5, 0.));
#226 = CARTESIAN_POINT('', (7.5, 0., 0.));
#227 = ORIENTED_EDGE('', *, *, #207, .T.);
#228 = ORIENTED_EDGE('', *, *, #229, .F.);
#229 = EDGE_CURVE('', #210, #210, #230, .T.);
#230 = (
   BOUNDED_CURVE ()
   B_SPLINE_CURVE (2, (#231, #232, #233, #234, #235, #236, #237, #238, #239), .UNSPECIFIED., .T., .U.)
   B_SPLINE_CURVE_WITH_KNOTS ((3, 2, 2, 2, 3), (0., 11.7809724509617, 23.5619449019234, 35.3429173528852, 47.1238898038469), .UNSPECIFIED.)
   CURVE ()
   GEOMETRIC_REPRESENTATION_ITEM ()
   RATIONAL_B_SPLINE_CURVE ((1., 0.707106781186548, 1., 0.707106781186548, 1., 0.707106781186548, 1., 0.707106781186548, 1.))
   REPRESENTATION_ITEM ('')
);
#231 = CARTESIAN_POINT('', (7.5, 0., 20.));
#232 = CARTESIAN_POINT('', (7.5, 7.5, 20.));
#233 = CARTESIAN_POINT('', (4.59242549680257E-16, 7.5, 20.));
#234 = CARTESIAN_POINT('', (-7.5, 7.5, 20.));
#235 = CARTESIAN_POINT('', (-7.5, 9.18485099360515E-16, 20.));
#236 = CARTESIAN_POINT('', (-7.5, -7.5, 20.));
#237 = CARTESIAN_POINT('', (-1.37772764904077E-15, -7.5, 20.));
#238 = CARTESIAN_POINT('', (7.5, -7.5, 20.));
#239 = CARTESIAN_POINT('', (7.5, 0., 20.));
#240 = (
   BOUNDED_SURFACE ()
   B_SPLINE_SURFACE (2, 1, ((#241, #242), (#243, #244), (#245, #246), (#247, #248), (#249, #250), (#251, #252), (#253, #254), (#255, #256), (#257, #258)), .UNSPECIFIED., .T., .F., .U.)
   B_SPLINE_SURFACE_WITH_KNOTS ((3, 2, 2, 2, 3), (2, 2), (0., 11.7809724509617, 23.5619449019234, 35.3429173528852, 47.1238898038469), (0., 20.), .UNSPECIFIED.)
   GEOMETRIC_REPRESENTATION_ITEM ()
   RATIONAL_B_SPLINE_SURFACE (((1., 1.), (0.707106781186548, 0.707106781186548), (1., 1.), (0.707106781186548, 0.707106781186548), (1., 1.), (0.707106781186548, 0.707106781186548), (1., 1.), (0.707106781186548, 0.707106781186548), (1., 1.)))
   REPRESENTATION_ITEM ('')
   SURFACE ()
);
#241 = CARTESIAN_POINT('', (7.5, 0., 0.));
#242 = CARTESIAN_POINT('', (7.5, 0., 20.));
#243 = CARTESIAN_POINT('', (7.5, 7.5, 0.));
#244 = CARTESIAN_POINT('', (7.5, 7.5, 20.));
#245 = CARTESIAN_POINT('', (4.59242549680257E-16, 7.5, 0.));
#246 = CARTESIAN_POINT('', (4.59242549680257E-16, 7.5, 20.));
#247 = CARTESIAN_POINT('', (-7.5, 7.5, 0.));
#248 = CARTESIAN_POINT('', (-7.5, 7.5, 20.));
#249 = CARTESIAN_POINT('', (-7.5, 9.18485099360515E-16, 0.));
#250 = CARTESIAN_POINT('', (-7.5, 9.18485099360515E-16, 20.));
#251 = CARTESIAN_POINT('', (-7.5, -7.5, 0.));
#252 = CARTESIAN_POINT('', (-7.5, -7.5, 20.));
#253 = CARTESIAN_POINT('', (-1.37772764904077E-15, -7.5, 0.));
#254 = CARTESIAN_POINT('', (-1.37772764904077E-15, -7.5, 20.));
#255 = CARTESIAN_POINT('', (7.5, -7.5, 0.));
#256 = CARTESIAN_POINT('', (7.5, -7.5, 20.));
#257 = CARTESIAN_POINT('', (7.5, 0., 0.));
#258 = CARTESIAN_POINT('', (7.5, 0., 20.));
#259 = ADVANCED_FACE('', (#260), #263, .T.);
#260 = FACE_OUTER_BOUND('', #261, .T.);
#261 = EDGE_LOOP('', (#262));
#262 = ORIENTED_EDGE('', *, *, #216, .F.);
#263 = B_SPLINE_SURFACE_WITH_KNOTS('', 1, 1, ((#264, #265), (#266, #267)), .UNSPECIFIED., .F., .F., .U., (2, 2), (2, 2), (0., 1.), (0., 1.), .UNSPECIFIED.);
#264 = CARTESIAN_POINT('', (11.667261889578, -11.667261889578, 0.));
#265 = CARTESIAN_POINT('', (11.667261889578, 11.667261889578, 0.));
#266 = CARTESIAN_POINT('', (-11.667261889578, -11.667261889578, 0.));
#267 = CARTESIAN_POINT('', (-11.667261889578, 11.667261889578, 0.));
#268 = ADVANCED_FACE('', (#269), #272, .T.);
#269 = FACE_OUTER_BOUND('', #270, .T.);
#270 = EDGE_LOOP('', (#271));
#271 = ORIENTED_EDGE('', *, *, #229, .T.);
#272 = B_SPLINE_SURFACE_WITH_KNOTS('', 1, 1, ((#273, #274), (#275, #276)), .UNSPECIFIED., .F., .F., .U., (2, 2), (2, 2), (0., 1.), (0., 1.), .UNSPECIFIED.);
#273 = CARTESIAN_POINT('', (11.667261889578, -11.667261889578, 20.));
#274 = CARTESIAN_POINT('', (-11.667261889578, -11.667261889578, 20.));
#275 = CARTESIAN_POINT('', (11.667261889578, 11.667261889578, 20.));
#276 = CARTESIAN_POINT('', (-11.667261889578, 11.667261889578, 20.));
#277 = DRAUGHTING_MODEL('', (#285), #290);
#278 = PRESENTATION_STYLE_ASSIGNMENT((#279));
#279 = SURFACE_STYLE_USAGE(.POSITIVE., #280);
#280 = SURFACE_SIDE_STYLE('', (#281));
#281 = SURFACE_STYLE_FILL_AREA(#282);
#282 = FILL_AREA_STYLE('', (#283));
#283 = FILL_AREA_STYLE_COLOUR('', #284);
#284 = COLOUR_RGB('', 0.50196078431373, 0.50196078431373, 0.50196078431373);
#285 = STYLED_ITEM('', (#278), #201);
#286 = AXIS2_PLACEMENT_3D('WCS', #287, #288, #289);
#287 = CARTESIAN_POINT('', (0., 0., 0.));
#288 = DIRECTION('', (0., 0., 1.));
#289 = DIRECTION('', (1., 0., 0.));
#290 = (
   GEOMETRIC_REPRESENTATION_CONTEXT (3)
   GLOBAL_UNCERTAINTY_ASSIGNED_CONTEXT ((#292))
   GLOBAL_UNIT_ASSIGNED_CONTEXT ((#291, #293, #294))
   REPRESENTATION_CONTEXT ('', '3D')
);
#291 = (
   LENGTH_UNIT ()
   NAMED_UNIT (*)
   SI_UNIT (.MILLI., .METRE.)
);
#292 = UNCERTAINTY_MEASURE_WITH_UNIT(LENGTH_MEASURE(1.E-6), #291, 'DISTANCE_ACCURACY_VALUE', '');
#293 = (
   NAMED_UNIT (*)
   SI_UNIT ($, .STERADIAN.)
   SOLID_ANGLE_UNIT ()
);
#294 = (
   NAMED_UNIT (*)
   PLANE_ANGLE_UNIT ()
   SI_UNIT ($, .RADIAN.)
);
#295 = SHAPE_REPRESENTATION('', (#316), #290);
#296 = PRODUCT_DEFINITION_SHAPE('', '', #297);
#297 = PRODUCT_DEFINITION('', '', #300, #304);
#298 = APPLICATION_CONTEXT('configuration controlled 3D designs of mechanical parts and assemblies');
#299 = APPLICATION_PROTOCOL_DEFINITION('International Standard', 'automotive_design', 2002, #298);
#300 = PRODUCT_DEFINITION_FORMATION_WITH_SPECIFIED_SOURCE('', '', #301, .NOT_KNOWN.);
#301 = PRODUCT('Part2', 'Part2', '', (#302));
#302 = PRODUCT_CONTEXT('', #298, 'mechanical');
#303 = PRODUCT_RELATED_PRODUCT_CATEGORY('detail', '', (#301));
#304 = PRODUCT_DEFINITION_CONTEXT('part definition', #298, 'design');
#305 = SHAPE_DEFINITION_REPRESENTATION(#296, #295);
#306 = CONSTRUCTIVE_GEOMETRY_REPRESENTATION('supplemental geometry', (#286), #290);
#307 = CONSTRUCTIVE_GEOMETRY_REPRESENTATION_RELATIONSHIP('', '', #295, #306);
#308 = SHAPE_REPRESENTATION_RELATIONSHIP('', '', #295, #309);
#309 = ADVANCED_BREP_SHAPE_REPRESENTATION('', (#201), #290);
#310 = NEXT_ASSEMBLY_USAGE_OCCURRENCE('', 'I2', 'I2', #8, #297, '');
#311 = PRODUCT_DEFINITION_SHAPE('', '', #310);
#312 = AXIS2_PLACEMENT_3D('', #313, #314, #315);
#313 = CARTESIAN_POINT('', (50., 0., 0.));
#314 = DIRECTION('', (0., 0., 1.));
#315 = DIRECTION('', (1., 0., 0.));
#316 = AXIS2_PLACEMENT_3D('', #317, #318, #319);
#317 = CARTESIAN_POINT('', (0., 0., 0.));
#318 = DIRECTION('', (0., 0., 1.));
#319 = DIRECTION('', (1., 0., 0.));
#320 = ITEM_DEFINED_TRANSFORMATION('', '', #312, #316);
#321 = (
   REPRESENTATION_RELATIONSHIP ('', '', #6, #295)
   REPRESENTATION_RELATIONSHIP_WITH_TRANSFORMATION (#320)
   SHAPE_REPRESENTATION_RELATIONSHIP ()
);
#322 = CONTEXT_DEPENDENT_SHAPE_REPRESENTATION(#321, #311);
#323 = MANIFOLD_SOLID_BREP('Sph_0', #324);
#324 = CLOSED_SHELL('', (#325));
#325 = ADVANCED_FACE('', (#326), #341, .T.);
#326 = FACE_OUTER_BOUND('', #327, .T.);
#327 = EDGE_LOOP('', (#328, #340));
#328 = ORIENTED_EDGE('', *, *, #329, .F.);
#329 = EDGE_CURVE('', #330, #332, #334, .T.);
#330 = VERTEX_POINT('', #331);
#331 = CARTESIAN_POINT('', (-1.83697019872103E-15, 0., -10.));
#332 = VERTEX_POINT('', #333);
#333 = CARTESIAN_POINT('', (3.06161699786838E-15, 0., 10.));
#334 = (
   BOUNDED_CURVE ()
   B_SPLINE_CURVE (2, (#335, #336, #337, #338, #339), .UNSPECIFIED., .F., .U.)
   B_SPLINE_CURVE_WITH_KNOTS ((3, 2, 3), (0., 0.5, 1.), .UNSPECIFIED.)
   CURVE ()
   GEOMETRIC_REPRESENTATION_ITEM ()
   RATIONAL_B_SPLINE_CURVE ((1., 0.707106781186548, 1., 0.707106781186548, 1.))
   REPRESENTATION_ITEM ('')
);
#335 = CARTESIAN_POINT('', (-1.83697019872103E-15, 0., -10.));
#336 = CARTESIAN_POINT('', (10., 0., -10.));
#337 = CARTESIAN_POINT('', (10., 0., -2.44929359829471E-15));
#338 = CARTESIAN_POINT('', (10., 0., 10.));
#339 = CARTESIAN_POINT('', (3.06161699786838E-15, 0., 10.));
#340 = ORIENTED_EDGE('', *, *, #329, .T.);
#341 = (
   BOUNDED_SURFACE ()
   B_SPLINE_SURFACE (2, 2, ((#342, #343, #344, #345, #346), (#347, #348, #349, #350, #351), (#352, #353, #354, #355, #356), (#357, #358, #359, #360, #361), (#362, #363, #364, #365, #366), (#367, #368, #369, #370, #371), (#372, #373, #374, #375, #376), (#377, #378, #379, #380, #381), (#382, #383, #384, #385, #386)), .UNSPECIFIED., .T., .F., .U.)
   B_SPLINE_SURFACE_WITH_KNOTS ((3, 2, 2, 2, 3), (3, 2, 3), (0., 0.25, 0.5, 0.75, 1.), (0., 0.5, 1.), .UNSPECIFIED.)
   GEOMETRIC_REPRESENTATION_ITEM ()
   RATIONAL_B_SPLINE_SURFACE (((1., 0.707106781186548, 1., 0.707106781186548, 1.), (0.707106781186548, 0.5, 0.707106781186548, 0.5, 0.707106781186548), (1., 0.707106781186548, 1., 0.707106781186548, 1.), (0.707106781186548, 0.5, 0.707106781186548, 0.5, 0.707106781186548), (1., 0.707106781186548, 1., 0.707106781186548, 1.), (0.707106781186548, 0.5, 0.707106781186548, 0.5, 0.707106781186548), (1., 0.707106781186548, 1., 0.707106781186548, 1.), (0.707106781186548, 0.5, 0.707106781186548, 0.5, 0.707106781186548), (1., 0.707106781186548, 1., 0.707106781186548, 1.)))
   REPRESENTATION_ITEM ('')
   SURFACE ()
);
#342 = CARTESIAN_POINT('', (-1.83697019872103E-15, 0., -10.));
#343 = CARTESIAN_POINT('', (10., 0., -10.));
#344 = CARTESIAN_POINT('', (10., 0., -2.44929359829471E-15));
#345 = CARTESIAN_POINT('', (10., 0., 10.));
#346 = CARTESIAN_POINT('', (3.06161699786838E-15, 0., 10.));
#347 = CARTESIAN_POINT('', (-1.83697019872103E-15, 0., -10.));
#348 = CARTESIAN_POINT('', (10., 10., -10.));
#349 = CARTESIAN_POINT('', (10., 10., -2.44929359829471E-15));
#350 = CARTESIAN_POINT('', (10., 10., 10.));
#351 = CARTESIAN_POINT('', (3.06161699786838E-15, 0., 10.));
#352 = CARTESIAN_POINT('', (-1.83697019872103E-15, 0., -10.));
#353 = CARTESIAN_POINT('', (6.12323399573677E-16, 10., -10.));
#354 = CARTESIAN_POINT('', (6.12323399573677E-16, 10., -2.44929359829471E-15));
#355 = CARTESIAN_POINT('', (6.12323399573677E-16, 10., 10.));
#356 = CARTESIAN_POINT('', (3.06161699786838E-15, 0., 10.));
#357 = CARTESIAN_POINT('', (-1.83697019872103E-15, 0., -10.));
#358 = CARTESIAN_POINT('', (-10., 10., -10.));
#359 = CARTESIAN_POINT('', (-10., 10., -2.44929359829471E-15));
#360 = CARTESIAN_POINT('', (-10., 10., 10.));
#361 = CARTESIAN_POINT('', (3.06161699786838E-15, 0., 10.));
#362 = CARTESIAN_POINT('', (-1.83697019872103E-15, 0., -10.));
#363 = CARTESIAN_POINT('', (-10., 1.22464679914735E-15, -10.));
#364 = CARTESIAN_POINT('', (-10., 1.22464679914735E-15, -2.44929359829471E-15));
#365 = CARTESIAN_POINT('', (-10., 1.22464679914735E-15, 10.));
#366 = CARTESIAN_POINT('', (3.06161699786838E-15, 0., 10.));
#367 = CARTESIAN_POINT('', (-1.83697019872103E-15, 0., -10.));
#368 = CARTESIAN_POINT('', (-10., -10., -10.));
#369 = CARTESIAN_POINT('', (-10., -10., -2.44929359829471E-15));
#370 = CARTESIAN_POINT('', (-10., -10., 10.));
#371 = CARTESIAN_POINT('', (3.06161699786838E-15, 0., 10.));
#372 = CARTESIAN_POINT('', (-1.83697019872103E-15, 0., -10.));
#373 = CARTESIAN_POINT('', (-1.83697019872103E-15, -10., -10.));
#374 = CARTESIAN_POINT('', (-1.83697019872103E-15, -10., -2.44929359829471E-15));
#375 = CARTESIAN_POINT('', (-1.83697019872103E-15, -10., 10.));
#376 = CARTESIAN_POINT('', (3.06161699786838E-15, 0., 10.));
#377 = CARTESIAN_POINT('', (-1.83697019872103E-15, 0., -10.));
#378 = CARTESIAN_POINT('', (10., -10., -10.));
#379 = CARTESIAN_POINT('', (10., -10., -2.44929359829471E-15));
#380 = CARTESIAN_POINT('', (10., -10., 10.));
#381 = CARTESIAN_POINT('', (3.06161699786838E-15, 0., 10.));
#382 = CARTESIAN_POINT('', (-1.83697019872103E-15, 0., -10.));
#383 = CARTESIAN_POINT('', (10., 0., -10.));
#384 = CARTESIAN_POINT('', (10., 0., -2.44929359829471E-15));
#385 = CARTESIAN_POINT('', (10., 0., 10.));
#386 = CARTESIAN_POINT('', (3.06161699786838E-15, 0., 10.));
#387 = DRAUGHTING_MODEL('', (#395), #400);
#388 = PRESENTATION_STYLE_ASSIGNMENT((#389));
#389 = SURFACE_STYLE_USAGE(.POSITIVE., #390);
#390 = SURFACE_SIDE_STYLE('', (#391));
#391 = SURFACE_STYLE_FILL_AREA(#392);
#392 = FILL_AREA_STYLE('', (#393));
#393 = FILL_AREA_STYLE_COLOUR('', #394);
#394 = COLOUR_RGB('', 0.50196078431373, 0.50196078431373, 0.50196078431373);
#395 = STYLED_ITEM('', (#388), #323);
#396 = AXIS2_PLACEMENT_3D('WCS', #397, #398, #399);
#397 = CARTESIAN_POINT('', (0., 0., 0.));
#398 = DIRECTION('', (0., 0., 1.));
#399 = DIRECTION('', (1., 0., 0.));
#400 = (
   GEOMETRIC_REPRESENTATION_CONTEXT (3)
   GLOBAL_UNCERTAINTY_ASSIGNED_CONTEXT ((#402))
   GLOBAL_UNIT_ASSIGNED_CONTEXT ((#401, #403, #404))
   REPRESENTATION_CONTEXT ('', '3D')
);
#401 = (
   LENGTH_UNIT ()
   NAMED_UNIT (*)
   SI_UNIT (.MILLI., .METRE.)
);
#402 = UNCERTAINTY_MEASURE_WITH_UNIT(LENGTH_MEASURE(1.E-6), #401, 'DISTANCE_ACCURACY_VALUE', '');
#403 = (
   NAMED_UNIT (*)
   SI_UNIT ($, .STERADIAN.)
   SOLID_ANGLE_UNIT ()
);
#404 = (
   NAMED_UNIT (*)
   PLANE_ANGLE_UNIT ()
   SI_UNIT ($, .RADIAN.)
);
#405 = SHAPE_REPRESENTATION('', (#426), #400);
#406 = PRODUCT_DEFINITION_SHAPE('', '', #407);
#407 = PRODUCT_DEFINITION('', '', #410, #414);
#408 = APPLICATION_CONTEXT('configuration controlled 3D designs of mechanical parts and assemblies');
#409 = APPLICATION_PROTOCOL_DEFINITION('International Standard', 'automotive_design', 2002, #408);
#410 = PRODUCT_DEFINITION_FORMATION_WITH_SPECIFIED_SOURCE('', '', #411, .NOT_KNOWN.);
#411 = PRODUCT('Part3', 'Part3', '', (#412));
#412 = PRODUCT_CONTEXT('', #408, 'mechanical');
#413 = PRODUCT_RELATED_PRODUCT_CATEGORY('detail', '', (#411));
#414 = PRODUCT_DEFINITION_CONTEXT('part definition', #408, 'design');
#415 = SHAPE_DEFINITION_REPRESENTATION(#406, #405);
#416 = CONSTRUCTIVE_GEOMETRY_REPRESENTATION('supplemental geometry', (#396), #400);
#417 = CONSTRUCTIVE_GEOMETRY_REPRESENTATION_RELATIONSHIP('', '', #405, #416);
#418 = SHAPE_REPRESENTATION_RELATIONSHIP('', '', #405, #419);
#419 = ADVANCED_BREP_SHAPE_REPRESENTATION('', (#323), #400);
#420 = NEXT_ASSEMBLY_USAGE_OCCURRENCE('', 'I3', 'I3', #8, #407, '');
#421 = PRODUCT_DEFINITION_SHAPE('', '', #420);
#422 = AXIS2_PLACEMENT_3D('', #423, #424, #425);
#423 = CARTESIAN_POINT('', (100., 0., 0.));
#424 = DIRECTION('', (0., 0., 1.));
#425 = DIRECTION('', (1., 0., 0.));
#426 = AXIS2_PLACEMENT_3D('', #427, #428, #429);
#427 = CARTESIAN_POINT('', (0., 0., 0.));
#428 = DIRECTION('', (0., 0., 1.));
#429 = DIRECTION('', (1., 0., 0.));
#430 = ITEM_DEFINED_TRANSFORMATION('', '', #422, #426);
#431 = (
   REPRESENTATION_RELATIONSHIP ('', '', #6, #405)
   REPRESENTATION_RELATIONSHIP_WITH_TRANSFORMATION (#430)
   SHAPE_REPRESENTATION_RELATIONSHIP ()
);
#432 = CONTEXT_DEPENDENT_SHAPE_REPRESENTATION(#431, #421);
#433 = DRAUGHTING_MODEL('', (), #1);
#434 = REPRESENTATION_RELATIONSHIP('', '', #155, #433);
#435 = REPRESENTATION_RELATIONSHIP('', '', #277, #433);
#436 = REPRESENTATION_RELATIONSHIP('', '', #387, #433);
ENDSEC;
END-ISO-10303-21;
