ISO-10303-21;
HEADER;
FILE_DESCRIPTION(('STEP'), '1');
FILE_NAME('ChamferMulti', '2026-04-20T10:09:40', (''), (''), 'Express 3.1.2.0', 'Express Tool', 'Unknown');
FILE_SCHEMA(('AUTOMOTIVE_DESIGN'));
ENDSEC;

DATA;
#1 = MANIFOLD_SOLID_BREP('ChamferMulti_0', #2);
#2 = CLOSED_SHELL('', (#3, #53, #96, #140, #162, #184, #212, #224, #245));
#3 = ADVANCED_FACE('', (#4), #48, .T.);
#4 = FACE_OUTER_BOUND('', #5, .T.);
#5 = EDGE_LOOP('', (#6, #23, #32, #41));
#6 = ORIENTED_EDGE('', *, *, #7, .T.);
#7 = EDGE_CURVE('', #8, #10, #12, .T.);
#8 = VERTEX_POINT('', #9);
#9 = CARTESIAN_POINT('', (80., 0., 25.));
#10 = VERTEX_POINT('', #11);
#11 = CARTESIAN_POINT('', (80., 60., 25.));
#12 = B_SPLINE_CURVE_WITH_KNOTS('', 3, (#13, #14, #15, #16, #17, #18, #19, #20, #21, #22), .UNSPECIFIED., .F., .U., (4, 3, 3, 4), (30., 45., 75., 90.), .UNSPECIFIED.);
#13 = CARTESIAN_POINT('', (80., 0., 25.));
#14 = CARTESIAN_POINT('', (80., 5., 25.));
#15 = CARTESIAN_POINT('', (80., 10., 25.));
#16 = CARTESIAN_POINT('', (80., 15., 25.));
#17 = CARTESIAN_POINT('', (80., 25., 25.));
#18 = CARTESIAN_POINT('', (80., 35., 25.));
#19 = CARTESIAN_POINT('', (80., 45., 25.));
#20 = CARTESIAN_POINT('', (80., 50., 25.));
#21 = CARTESIAN_POINT('', (80., 55., 25.));
#22 = CARTESIAN_POINT('', (80., 60., 25.));
#23 = ORIENTED_EDGE('', *, *, #24, .T.);
#24 = EDGE_CURVE('', #10, #25, #27, .T.);
#25 = VERTEX_POINT('', #26);
#26 = CARTESIAN_POINT('', (65., 45., 40.));
#27 = B_SPLINE_CURVE_WITH_KNOTS('', 3, (#28, #29, #30, #31), .UNSPECIFIED., .F., .U., (4, 4), (0., 25.9807621135332), .UNSPECIFIED.);
#28 = CARTESIAN_POINT('', (80., 60., 25.));
#29 = CARTESIAN_POINT('', (75., 55., 30.));
#30 = CARTESIAN_POINT('', (70., 50., 35.));
#31 = CARTESIAN_POINT('', (65., 45., 40.));
#32 = ORIENTED_EDGE('', *, *, #33, .F.);
#33 = EDGE_CURVE('', #34, #25, #36, .T.);
#34 = VERTEX_POINT('', #35);
#35 = CARTESIAN_POINT('', (65., 15., 40.));
#36 = B_SPLINE_CURVE_WITH_KNOTS('', 3, (#37, #38, #39, #40), .UNSPECIFIED., .F., .U., (4, 4), (45., 75.), .UNSPECIFIED.);
#37 = CARTESIAN_POINT('', (65., 15., 40.));
#38 = CARTESIAN_POINT('', (65., 25., 40.));
#39 = CARTESIAN_POINT('', (65., 35., 40.));
#40 = CARTESIAN_POINT('', (65., 45., 40.));
#41 = ORIENTED_EDGE('', *, *, #42, .F.);
#42 = EDGE_CURVE('', #8, #34, #43, .T.);
#43 = B_SPLINE_CURVE_WITH_KNOTS('', 3, (#44, #45, #46, #47), .UNSPECIFIED., .F., .U., (4, 4), (0., 25.9807621135332), .UNSPECIFIED.);
#44 = CARTESIAN_POINT('', (80., 0., 25.));
#45 = CARTESIAN_POINT('', (75., 5., 30.));
#46 = CARTESIAN_POINT('', (70., 10., 35.));
#47 = CARTESIAN_POINT('', (65., 15., 40.));
#48 = B_SPLINE_SURFACE_WITH_KNOTS('', 1, 1, ((#49, #50), (#51, #52)), .UNSPECIFIED., .F., .F., .U., (2, 2), (2, 2), (30., 90.), (0., 1.), .UNSPECIFIED.);
#49 = CARTESIAN_POINT('', (80., 0., 25.));
#50 = CARTESIAN_POINT('', (65., 0., 40.));
#51 = CARTESIAN_POINT('', (80.0000000000001, 60., 25.));
#52 = CARTESIAN_POINT('', (65.0000000000001, 60., 40.));
#53 = ADVANCED_FACE('', (#54), #91, .T.);
#54 = FACE_OUTER_BOUND('', #55, .T.);
#55 = EDGE_LOOP('', (#56, #71, #80, #90));
#56 = ORIENTED_EDGE('', *, *, #57, .T.);
#57 = EDGE_CURVE('', #10, #58, #60, .T.);
#58 = VERTEX_POINT('', #59);
#59 = CARTESIAN_POINT('', (0., 60., 25.));
#60 = B_SPLINE_CURVE_WITH_KNOTS('', 3, (#61, #62, #63, #64, #65, #66, #67, #68, #69, #70), .UNSPECIFIED., .F., .U., (4, 3, 3, 4), (40., 55., 87.5, 120.), .UNSPECIFIED.);
#61 = CARTESIAN_POINT('', (80., 60., 25.));
#62 = CARTESIAN_POINT('', (75., 60., 25.));
#63 = CARTESIAN_POINT('', (70., 60., 25.));
#64 = CARTESIAN_POINT('', (65., 60., 25.));
#65 = CARTESIAN_POINT('', (54.1666666666667, 60., 25.));
#66 = CARTESIAN_POINT('', (43.3333333333333, 60., 25.));
#67 = CARTESIAN_POINT('', (32.5, 60., 25.));
#68 = CARTESIAN_POINT('', (21.6666666666667, 60., 25.));
#69 = CARTESIAN_POINT('', (10.8333333333333, 60., 25.));
#70 = CARTESIAN_POINT('', (0., 60., 25.));
#71 = ORIENTED_EDGE('', *, *, #72, .T.);
#72 = EDGE_CURVE('', #58, #73, #75, .T.);
#73 = VERTEX_POINT('', #74);
#74 = CARTESIAN_POINT('', (0., 45., 40.));
#75 = B_SPLINE_CURVE_WITH_KNOTS('', 3, (#76, #77, #78, #79), .UNSPECIFIED., .F., .U., (4, 4), (0., 21.2132034355964), .UNSPECIFIED.);
#76 = CARTESIAN_POINT('', (0., 60., 25.));
#77 = CARTESIAN_POINT('', (0., 55., 30.));
#78 = CARTESIAN_POINT('', (0., 50., 35.));
#79 = CARTESIAN_POINT('', (0., 45., 40.));
#80 = ORIENTED_EDGE('', *, *, #81, .F.);
#81 = EDGE_CURVE('', #25, #73, #82, .T.);
#82 = B_SPLINE_CURVE_WITH_KNOTS('', 3, (#83, #84, #85, #86, #87, #88, #89), .UNSPECIFIED., .F., .U., (4, 3, 4), (55., 87.5, 120.), .UNSPECIFIED.);
#83 = CARTESIAN_POINT('', (65., 45., 40.));
#84 = CARTESIAN_POINT('', (54.1666666666667, 45., 40.));
#85 = CARTESIAN_POINT('', (43.3333333333333, 45., 40.));
#86 = CARTESIAN_POINT('', (32.5, 45., 40.));
#87 = CARTESIAN_POINT('', (21.6666666666667, 45., 40.));
#88 = CARTESIAN_POINT('', (10.8333333333333, 45., 40.));
#89 = CARTESIAN_POINT('', (0., 45., 40.));
#90 = ORIENTED_EDGE('', *, *, #24, .F.);
#91 = B_SPLINE_SURFACE_WITH_KNOTS('', 1, 1, ((#92, #93), (#94, #95)), .UNSPECIFIED., .F., .F., .U., (2, 2), (2, 2), (40., 120.), (0., 1.), .UNSPECIFIED.);
#92 = CARTESIAN_POINT('', (80., 60., 25.));
#93 = CARTESIAN_POINT('', (80., 45., 40.));
#94 = CARTESIAN_POINT('', (7.105427357601E-14, 60., 25.));
#95 = CARTESIAN_POINT('', (7.105427357601E-14, 45., 40.));
#96 = ADVANCED_FACE('', (#97), #135, .T.);
#97 = FACE_OUTER_BOUND('', #98, .T.);
#98 = EDGE_LOOP('', (#99, #100, #107, #114, #121, #130));
#99 = ORIENTED_EDGE('', *, *, #72, .F.);
#100 = ORIENTED_EDGE('', *, *, #101, .F.);
#101 = EDGE_CURVE('', #102, #58, #104, .T.);
#102 = VERTEX_POINT('', #103);
#103 = CARTESIAN_POINT('', (0., 60., 0.));
#104 = B_SPLINE_CURVE_WITH_KNOTS('', 1, (#105, #106), .UNSPECIFIED., .F., .U., (2, 2), (0., 25.), .UNSPECIFIED.);
#105 = CARTESIAN_POINT('', (0., 60., 0.));
#106 = CARTESIAN_POINT('', (0., 60., 25.));
#107 = ORIENTED_EDGE('', *, *, #108, .F.);
#108 = EDGE_CURVE('', #109, #102, #111, .T.);
#109 = VERTEX_POINT('', #110);
#110 = CARTESIAN_POINT('', (0., 0., 0.));
#111 = B_SPLINE_CURVE_WITH_KNOTS('', 1, (#112, #113), .UNSPECIFIED., .F., .U., (2, 2), (0., 60.), .UNSPECIFIED.);
#112 = CARTESIAN_POINT('', (0., 0., 0.));
#113 = CARTESIAN_POINT('', (0., 60., 0.));
#114 = ORIENTED_EDGE('', *, *, #115, .T.);
#115 = EDGE_CURVE('', #109, #116, #118, .T.);
#116 = VERTEX_POINT('', #117);
#117 = CARTESIAN_POINT('', (0., 0., 25.));
#118 = B_SPLINE_CURVE_WITH_KNOTS('', 1, (#119, #120), .UNSPECIFIED., .F., .U., (2, 2), (0., 25.), .UNSPECIFIED.);
#119 = CARTESIAN_POINT('', (0., 0., 0.));
#120 = CARTESIAN_POINT('', (0., 0., 25.));
#121 = ORIENTED_EDGE('', *, *, #122, .F.);
#122 = EDGE_CURVE('', #123, #116, #125, .T.);
#123 = VERTEX_POINT('', #124);
#124 = CARTESIAN_POINT('', (0., 15., 40.));
#125 = B_SPLINE_CURVE_WITH_KNOTS('', 3, (#126, #127, #128, #129), .UNSPECIFIED., .F., .U., (4, 4), (0., 21.2132034355964), .UNSPECIFIED.);
#126 = CARTESIAN_POINT('', (0., 15., 40.));
#127 = CARTESIAN_POINT('', (0., 10., 35.));
#128 = CARTESIAN_POINT('', (0., 5., 30.));
#129 = CARTESIAN_POINT('', (0., 0., 25.));
#130 = ORIENTED_EDGE('', *, *, #131, .T.);
#131 = EDGE_CURVE('', #123, #73, #132, .T.);
#132 = B_SPLINE_CURVE_WITH_KNOTS('', 1, (#133, #134), .UNSPECIFIED., .F., .U., (2, 2), (15., 45.), .UNSPECIFIED.);
#133 = CARTESIAN_POINT('', (0., 15., 40.));
#134 = CARTESIAN_POINT('', (0., 45., 40.));
#135 = B_SPLINE_SURFACE_WITH_KNOTS('', 1, 1, ((#136, #137), (#138, #139)), .UNSPECIFIED., .F., .F., .U., (2, 2), (2, 2), (0., 40.), (0., 60.), .UNSPECIFIED.);
#136 = CARTESIAN_POINT('', (0., 0., 0.));
#137 = CARTESIAN_POINT('', (0., 60., 0.));
#138 = CARTESIAN_POINT('', (0., 0., 40.));
#139 = CARTESIAN_POINT('', (0., 60., 40.));
#140 = ADVANCED_FACE('', (#141), #157, .T.);
#141 = FACE_OUTER_BOUND('', #142, .T.);
#142 = EDGE_LOOP('', (#143, #144, #151, #156));
#143 = ORIENTED_EDGE('', *, *, #57, .F.);
#144 = ORIENTED_EDGE('', *, *, #145, .F.);
#145 = EDGE_CURVE('', #146, #10, #148, .T.);
#146 = VERTEX_POINT('', #147);
#147 = CARTESIAN_POINT('', (80., 60., 0.));
#148 = B_SPLINE_CURVE_WITH_KNOTS('', 1, (#149, #150), .UNSPECIFIED., .F., .U., (2, 2), (0., 25.), .UNSPECIFIED.);
#149 = CARTESIAN_POINT('', (80., 60., 0.));
#150 = CARTESIAN_POINT('', (80., 60., 25.));
#151 = ORIENTED_EDGE('', *, *, #152, .F.);
#152 = EDGE_CURVE('', #102, #146, #153, .T.);
#153 = B_SPLINE_CURVE_WITH_KNOTS('', 1, (#154, #155), .UNSPECIFIED., .F., .U., (2, 2), (0., 80.), .UNSPECIFIED.);
#154 = CARTESIAN_POINT('', (0., 60., 0.));
#155 = CARTESIAN_POINT('', (80., 60., 0.));
#156 = ORIENTED_EDGE('', *, *, #101, .T.);
#157 = B_SPLINE_SURFACE_WITH_KNOTS('', 1, 1, ((#158, #159), (#160, #161)), .UNSPECIFIED., .F., .F., .U., (2, 2), (2, 2), (0., 25.), (0., 80.), .UNSPECIFIED.);
#158 = CARTESIAN_POINT('', (0., 60., 0.));
#159 = CARTESIAN_POINT('', (80., 60., 0.));
#160 = CARTESIAN_POINT('', (0., 60., 25.));
#161 = CARTESIAN_POINT('', (80., 60., 25.));
#162 = ADVANCED_FACE('', (#163), #179, .T.);
#163 = FACE_OUTER_BOUND('', #164, .T.);
#164 = EDGE_LOOP('', (#165, #166, #173, #178));
#165 = ORIENTED_EDGE('', *, *, #7, .F.);
#166 = ORIENTED_EDGE('', *, *, #167, .F.);
#167 = EDGE_CURVE('', #168, #8, #170, .T.);
#168 = VERTEX_POINT('', #169);
#169 = CARTESIAN_POINT('', (80., 0., 0.));
#170 = B_SPLINE_CURVE_WITH_KNOTS('', 1, (#171, #172), .UNSPECIFIED., .F., .U., (2, 2), (0., 25.), .UNSPECIFIED.);
#171 = CARTESIAN_POINT('', (80., 0., 0.));
#172 = CARTESIAN_POINT('', (80., 0., 25.));
#173 = ORIENTED_EDGE('', *, *, #174, .T.);
#174 = EDGE_CURVE('', #168, #146, #175, .T.);
#175 = B_SPLINE_CURVE_WITH_KNOTS('', 1, (#176, #177), .UNSPECIFIED., .F., .U., (2, 2), (0., 60.), .UNSPECIFIED.);
#176 = CARTESIAN_POINT('', (80., 0., 0.));
#177 = CARTESIAN_POINT('', (80., 60., 0.));
#178 = ORIENTED_EDGE('', *, *, #145, .T.);
#179 = B_SPLINE_SURFACE_WITH_KNOTS('', 1, 1, ((#180, #181), (#182, #183)), .UNSPECIFIED., .F., .F., .U., (2, 2), (2, 2), (0., 60.), (0., 25.), .UNSPECIFIED.);
#180 = CARTESIAN_POINT('', (80., 0., 0.));
#181 = CARTESIAN_POINT('', (80., 0., 25.));
#182 = CARTESIAN_POINT('', (80., 60., 0.));
#183 = CARTESIAN_POINT('', (80., 60., 25.));
#184 = ADVANCED_FACE('', (#185), #207, .T.);
#185 = FACE_OUTER_BOUND('', #186, .T.);
#186 = EDGE_LOOP('', (#187, #200, #201, #206));
#187 = ORIENTED_EDGE('', *, *, #188, .F.);
#188 = EDGE_CURVE('', #116, #8, #189, .T.);
#189 = B_SPLINE_CURVE_WITH_KNOTS('', 3, (#190, #191, #192, #193, #194, #195, #196, #197, #198, #199), .UNSPECIFIED., .F., .U., (4, 3, 3, 4), (40., 72.5, 105., 120.), .UNSPECIFIED.);
#190 = CARTESIAN_POINT('', (0., 0., 25.));
#191 = CARTESIAN_POINT('', (10.8333333333333, 0., 25.));
#192 = CARTESIAN_POINT('', (21.6666666666667, 0., 25.));
#193 = CARTESIAN_POINT('', (32.5, 0., 25.));
#194 = CARTESIAN_POINT('', (43.3333333333333, 0., 25.));
#195 = CARTESIAN_POINT('', (54.1666666666667, 0., 25.));
#196 = CARTESIAN_POINT('', (65., 0., 25.));
#197 = CARTESIAN_POINT('', (70., 0., 25.));
#198 = CARTESIAN_POINT('', (75., 0., 25.));
#199 = CARTESIAN_POINT('', (80., 0., 25.));
#200 = ORIENTED_EDGE('', *, *, #115, .F.);
#201 = ORIENTED_EDGE('', *, *, #202, .T.);
#202 = EDGE_CURVE('', #109, #168, #203, .T.);
#203 = B_SPLINE_CURVE_WITH_KNOTS('', 1, (#204, #205), .UNSPECIFIED., .F., .U., (2, 2), (0., 80.), .UNSPECIFIED.);
#204 = CARTESIAN_POINT('', (0., 0., 0.));
#205 = CARTESIAN_POINT('', (80., 0., 0.));
#206 = ORIENTED_EDGE('', *, *, #167, .T.);
#207 = B_SPLINE_SURFACE_WITH_KNOTS('', 1, 1, ((#208, #209), (#210, #211)), .UNSPECIFIED., .F., .F., .U., (2, 2), (2, 2), (0., 80.), (0., 25.), .UNSPECIFIED.);
#208 = CARTESIAN_POINT('', (0., 0., 0.));
#209 = CARTESIAN_POINT('', (0., 0., 25.));
#210 = CARTESIAN_POINT('', (80., 0., 0.));
#211 = CARTESIAN_POINT('', (80., 0., 25.));
#212 = ADVANCED_FACE('', (#213), #219, .T.);
#213 = FACE_OUTER_BOUND('', #214, .T.);
#214 = EDGE_LOOP('', (#215, #216, #217, #218));
#215 = ORIENTED_EDGE('', *, *, #108, .T.);
#216 = ORIENTED_EDGE('', *, *, #152, .T.);
#217 = ORIENTED_EDGE('', *, *, #174, .F.);
#218 = ORIENTED_EDGE('', *, *, #202, .F.);
#219 = B_SPLINE_SURFACE_WITH_KNOTS('', 1, 1, ((#220, #221), (#222, #223)), .UNSPECIFIED., .F., .F., .U., (2, 2), (2, 2), (0., 60.), (0., 80.), .UNSPECIFIED.);
#220 = CARTESIAN_POINT('', (0., 0., 0.));
#221 = CARTESIAN_POINT('', (80., 0., 0.));
#222 = CARTESIAN_POINT('', (0., 60., 0.));
#223 = CARTESIAN_POINT('', (80., 60., 0.));
#224 = ADVANCED_FACE('', (#225), #240, .T.);
#225 = FACE_OUTER_BOUND('', #226, .T.);
#226 = EDGE_LOOP('', (#227, #228, #229, #239));
#227 = ORIENTED_EDGE('', *, *, #188, .T.);
#228 = ORIENTED_EDGE('', *, *, #42, .T.);
#229 = ORIENTED_EDGE('', *, *, #230, .F.);
#230 = EDGE_CURVE('', #123, #34, #231, .T.);
#231 = B_SPLINE_CURVE_WITH_KNOTS('', 3, (#232, #233, #234, #235, #236, #237, #238), .UNSPECIFIED., .F., .U., (4, 3, 4), (40., 72.5, 105.), .UNSPECIFIED.);
#232 = CARTESIAN_POINT('', (0., 15., 40.));
#233 = CARTESIAN_POINT('', (10.8333333333333, 15., 40.));
#234 = CARTESIAN_POINT('', (21.6666666666667, 15., 40.));
#235 = CARTESIAN_POINT('', (32.5, 15., 40.));
#236 = CARTESIAN_POINT('', (43.3333333333333, 15., 40.));
#237 = CARTESIAN_POINT('', (54.1666666666667, 15., 40.));
#238 = CARTESIAN_POINT('', (65., 15., 40.));
#239 = ORIENTED_EDGE('', *, *, #122, .T.);
#240 = B_SPLINE_SURFACE_WITH_KNOTS('', 1, 1, ((#241, #242), (#243, #244)), .UNSPECIFIED., .F., .F., .U., (2, 2), (2, 2), (40., 120.), (0., 1.), .UNSPECIFIED.);
#241 = CARTESIAN_POINT('', (0., 0., 25.));
#242 = CARTESIAN_POINT('', (0., 15., 40.));
#243 = CARTESIAN_POINT('', (80., 0., 25.));
#244 = CARTESIAN_POINT('', (80., 15., 40.));
#245 = ADVANCED_FACE('', (#246), #252, .T.);
#246 = FACE_OUTER_BOUND('', #247, .T.);
#247 = EDGE_LOOP('', (#248, #249, #250, #251));
#248 = ORIENTED_EDGE('', *, *, #81, .T.);
#249 = ORIENTED_EDGE('', *, *, #131, .F.);
#250 = ORIENTED_EDGE('', *, *, #230, .T.);
#251 = ORIENTED_EDGE('', *, *, #33, .T.);
#252 = B_SPLINE_SURFACE_WITH_KNOTS('', 1, 1, ((#253, #254), (#255, #256)), .UNSPECIFIED., .F., .F., .U., (2, 2), (2, 2), (0., 65.), (15., 45.), .UNSPECIFIED.);
#253 = CARTESIAN_POINT('', (0., 15., 40.));
#254 = CARTESIAN_POINT('', (0., 45., 40.));
#255 = CARTESIAN_POINT('', (65., 15., 40.));
#256 = CARTESIAN_POINT('', (65., 45., 40.));
#257 = DRAUGHTING_MODEL('', (#265), #268);
#258 = PRESENTATION_STYLE_ASSIGNMENT((#259));
#259 = SURFACE_STYLE_USAGE(.POSITIVE., #260);
#260 = SURFACE_SIDE_STYLE('', (#261));
#261 = SURFACE_STYLE_FILL_AREA(#262);
#262 = FILL_AREA_STYLE('', (#263));
#263 = FILL_AREA_STYLE_COLOUR('', #264);
#264 = COLOUR_RGB('', 0.50196078431373, 0.50196078431373, 0.50196078431373);
#265 = STYLED_ITEM('', (#258), #1);
#266 = CARTESIAN_POINT('Origin', (0., 0., 0.));
#267 = GEOMETRIC_SET('', (#266));
#268 = (
   GEOMETRIC_REPRESENTATION_CONTEXT (3)
   GLOBAL_UNCERTAINTY_ASSIGNED_CONTEXT ((#270))
   GLOBAL_UNIT_ASSIGNED_CONTEXT ((#269, #271, #272))
   REPRESENTATION_CONTEXT ('', '3D')
);
#269 = (
   LENGTH_UNIT ()
   NAMED_UNIT (*)
   SI_UNIT (.MILLI., .METRE.)
);
#270 = UNCERTAINTY_MEASURE_WITH_UNIT(LENGTH_MEASURE(1.E-6), #269, 'DISTANCE_ACCURACY_VALUE', '');
#271 = (
   NAMED_UNIT (*)
   SI_UNIT ($, .STERADIAN.)
   SOLID_ANGLE_UNIT ()
);
#272 = (
   NAMED_UNIT (*)
   PLANE_ANGLE_UNIT ()
   SI_UNIT ($, .RADIAN.)
);
#273 = SHAPE_REPRESENTATION('', (#288), #268);
#274 = PRODUCT_DEFINITION_SHAPE('', '', #275);
#275 = PRODUCT_DEFINITION('', '', #278, #282);
#276 = APPLICATION_CONTEXT('configuration controlled 3D designs of mechanical parts and assemblies');
#277 = APPLICATION_PROTOCOL_DEFINITION('International Standard', 'automotive_design', 2002, #276);
#278 = PRODUCT_DEFINITION_FORMATION_WITH_SPECIFIED_SOURCE('', '', #279, .NOT_KNOWN.);
#279 = PRODUCT('ChamferMulti', 'ChamferMulti', '', (#280));
#280 = PRODUCT_CONTEXT('', #276, 'mechanical');
#281 = PRODUCT_RELATED_PRODUCT_CATEGORY('detail', '', (#279));
#282 = PRODUCT_DEFINITION_CONTEXT('part definition', #276, 'design');
#283 = SHAPE_DEFINITION_REPRESENTATION(#274, #273);
#284 = SHAPE_REPRESENTATION_RELATIONSHIP('', '', #273, #285);
#285 = SHAPE_REPRESENTATION('', (#267), #268);
#286 = SHAPE_REPRESENTATION_RELATIONSHIP('', '', #273, #287);
#287 = ADVANCED_BREP_SHAPE_REPRESENTATION('', (#1), #268);
#288 = AXIS2_PLACEMENT_3D('', #289, #290, #291);
#289 = CARTESIAN_POINT('', (0., 0., 0.));
#290 = DIRECTION('', (0., 0., 1.));
#291 = DIRECTION('', (1., 0., 0.));
ENDSEC;
END-ISO-10303-21;
