ISO-10303-21;
HEADER;
FILE_DESCRIPTION(('STEP'), '1');
FILE_NAME('Test', '2026-04-17T22:11:34', (''), (''), 'Express 3.1.2.0', 'Express Tool', 'Unknown');
FILE_SCHEMA(('AUTOMOTIVE_DESIGN'));
ENDSEC;

DATA;
#1 = MANIFOLD_SOLID_BREP('Extrusion_0', #2);
#2 = CLOSED_SHELL('', (#3, #39, #67, #95, #115, #127));
#3 = ADVANCED_FACE('', (#4), #34, .T.);
#4 = FACE_OUTER_BOUND('', #5, .T.);
#5 = EDGE_LOOP('', (#6, #15, #22, #29));
#6 = ORIENTED_EDGE('', *, *, #7, .F.);
#7 = EDGE_CURVE('', #8, #10, #12, .T.);
#8 = VERTEX_POINT('', #9);
#9 = CARTESIAN_POINT('', (-9.0681130834977, 69.0681130834977, 60.));
#10 = VERTEX_POINT('', #11);
#11 = CARTESIAN_POINT('', (0., 60., 0.));
#12 = B_SPLINE_CURVE_WITH_KNOTS('', 1, (#13, #14), .UNSPECIFIED., .F., .U., (2, 2), (0., 1.), .UNSPECIFIED.);
#13 = CARTESIAN_POINT('', (-9.0681130834977, 69.0681130834977, 60.));
#14 = CARTESIAN_POINT('', (0., 60., 0.));
#15 = ORIENTED_EDGE('', *, *, #16, .F.);
#16 = EDGE_CURVE('', #17, #8, #19, .T.);
#17 = VERTEX_POINT('', #18);
#18 = CARTESIAN_POINT('', (89.0681130834977, 69.0681130834977, 60.));
#19 = B_SPLINE_CURVE_WITH_KNOTS('', 1, (#20, #21), .UNSPECIFIED., .F., .U., (2, 2), (0., 1.10181099351456), .UNSPECIFIED.);
#20 = CARTESIAN_POINT('', (89.0681130834977, 69.0681130834977, 60.));
#21 = CARTESIAN_POINT('', (-9.06811308349769, 69.0681130834977, 60.));
#22 = ORIENTED_EDGE('', *, *, #23, .T.);
#23 = EDGE_CURVE('', #17, #24, #26, .T.);
#24 = VERTEX_POINT('', #25);
#25 = CARTESIAN_POINT('', (80., 60., 0.));
#26 = B_SPLINE_CURVE_WITH_KNOTS('', 1, (#27, #28), .UNSPECIFIED., .F., .U., (2, 2), (0., 1.), .UNSPECIFIED.);
#27 = CARTESIAN_POINT('', (89.0681130834977, 69.0681130834977, 60.));
#28 = CARTESIAN_POINT('', (80., 60., 0.));
#29 = ORIENTED_EDGE('', *, *, #30, .T.);
#30 = EDGE_CURVE('', #24, #10, #31, .T.);
#31 = B_SPLINE_CURVE_WITH_KNOTS('', 1, (#32, #33), .UNSPECIFIED., .F., .U., (2, 2), (0., 1.), .UNSPECIFIED.);
#32 = CARTESIAN_POINT('', (80., 60., 0.));
#33 = CARTESIAN_POINT('', (0., 60., 0.));
#34 = B_SPLINE_SURFACE_WITH_KNOTS('', 1, 1, ((#35, #36), (#37, #38)), .UNSPECIFIED., .F., .F., .U., (2, 2), (2, 2), (0., 1.), (-0.113351413543721, 1.11335141354372), .UNSPECIFIED.);
#35 = CARTESIAN_POINT('', (89.0681130834977, 69.0681130834977, 60.));
#36 = CARTESIAN_POINT('', (-9.06811308349771, 69.0681130834977, 60.));
#37 = CARTESIAN_POINT('', (89.0681130834977, 60., 0.));
#38 = CARTESIAN_POINT('', (-9.06811308349771, 60., 0.));
#39 = ADVANCED_FACE('', (#40), #62, .T.);
#40 = FACE_OUTER_BOUND('', #41, .T.);
#41 = EDGE_LOOP('', (#42, #43, #50, #57));
#42 = ORIENTED_EDGE('', *, *, #23, .F.);
#43 = ORIENTED_EDGE('', *, *, #44, .F.);
#44 = EDGE_CURVE('', #45, #17, #47, .T.);
#45 = VERTEX_POINT('', #46);
#46 = CARTESIAN_POINT('', (89.0681130834977, -9.0681130834977, 60.));
#47 = B_SPLINE_CURVE_WITH_KNOTS('', 1, (#48, #49), .UNSPECIFIED., .F., .U., (2, 2), (0., 1.13129232403577), .UNSPECIFIED.);
#48 = CARTESIAN_POINT('', (89.0681130834977, -9.0681130834977, 60.));
#49 = CARTESIAN_POINT('', (89.0681130834977, 69.0681130834977, 60.));
#50 = ORIENTED_EDGE('', *, *, #51, .T.);
#51 = EDGE_CURVE('', #45, #52, #54, .T.);
#52 = VERTEX_POINT('', #53);
#53 = CARTESIAN_POINT('', (80., 0., 0.));
#54 = B_SPLINE_CURVE_WITH_KNOTS('', 1, (#55, #56), .UNSPECIFIED., .F., .U., (2, 2), (0., 1.), .UNSPECIFIED.);
#55 = CARTESIAN_POINT('', (89.0681130834977, -9.0681130834977, 60.));
#56 = CARTESIAN_POINT('', (80., 0., 0.));
#57 = ORIENTED_EDGE('', *, *, #58, .T.);
#58 = EDGE_CURVE('', #52, #24, #59, .T.);
#59 = B_SPLINE_CURVE_WITH_KNOTS('', 1, (#60, #61), .UNSPECIFIED., .F., .U., (2, 2), (0., 1.), .UNSPECIFIED.);
#60 = CARTESIAN_POINT('', (80., 0., 0.));
#61 = CARTESIAN_POINT('', (80., 60., 0.));
#62 = B_SPLINE_SURFACE_WITH_KNOTS('', 1, 1, ((#63, #64), (#65, #66)), .UNSPECIFIED., .F., .F., .U., (2, 2), (2, 2), (0., 1.), (-0.151135218058295, 1.1511352180583), .UNSPECIFIED.);
#63 = CARTESIAN_POINT('', (89.0681130834977, -9.0681130834977, 60.));
#64 = CARTESIAN_POINT('', (89.0681130834977, 69.0681130834977, 60.));
#65 = CARTESIAN_POINT('', (80., -9.0681130834977, 0.));
#66 = CARTESIAN_POINT('', (80., 69.0681130834977, 0.));
#67 = ADVANCED_FACE('', (#68), #90, .T.);
#68 = FACE_OUTER_BOUND('', #69, .T.);
#69 = EDGE_LOOP('', (#70, #71, #78, #85));
#70 = ORIENTED_EDGE('', *, *, #51, .F.);
#71 = ORIENTED_EDGE('', *, *, #72, .F.);
#72 = EDGE_CURVE('', #73, #45, #75, .T.);
#73 = VERTEX_POINT('', #74);
#74 = CARTESIAN_POINT('', (-9.0681130834977, -9.0681130834977, 60.));
#75 = B_SPLINE_CURVE_WITH_KNOTS('', 1, (#76, #77), .UNSPECIFIED., .F., .U., (2, 2), (0., 1.10181099351456), .UNSPECIFIED.);
#76 = CARTESIAN_POINT('', (-9.0681130834977, -9.0681130834977, 60.));
#77 = CARTESIAN_POINT('', (89.0681130834977, -9.0681130834977, 60.));
#78 = ORIENTED_EDGE('', *, *, #79, .T.);
#79 = EDGE_CURVE('', #73, #80, #82, .T.);
#80 = VERTEX_POINT('', #81);
#81 = CARTESIAN_POINT('', (0., 0., 0.));
#82 = B_SPLINE_CURVE_WITH_KNOTS('', 1, (#83, #84), .UNSPECIFIED., .F., .U., (2, 2), (0., 1.), .UNSPECIFIED.);
#83 = CARTESIAN_POINT('', (-9.0681130834977, -9.0681130834977, 60.));
#84 = CARTESIAN_POINT('', (0., 0., 0.));
#85 = ORIENTED_EDGE('', *, *, #86, .T.);
#86 = EDGE_CURVE('', #80, #52, #87, .T.);
#87 = B_SPLINE_CURVE_WITH_KNOTS('', 1, (#88, #89), .UNSPECIFIED., .F., .U., (2, 2), (0., 1.), .UNSPECIFIED.);
#88 = CARTESIAN_POINT('', (0., 0., 0.));
#89 = CARTESIAN_POINT('', (80., 0., 0.));
#90 = B_SPLINE_SURFACE_WITH_KNOTS('', 1, 1, ((#91, #92), (#93, #94)), .UNSPECIFIED., .F., .F., .U., (2, 2), (2, 2), (0., 1.), (-0.113351413543721, 1.11335141354372), .UNSPECIFIED.);
#91 = CARTESIAN_POINT('', (-9.0681130834977, -9.0681130834977, 60.));
#92 = CARTESIAN_POINT('', (89.0681130834977, -9.0681130834977, 60.));
#93 = CARTESIAN_POINT('', (-9.0681130834977, 0., 0.));
#94 = CARTESIAN_POINT('', (89.0681130834977, 0., 0.));
#95 = ADVANCED_FACE('', (#96), #110, .T.);
#96 = FACE_OUTER_BOUND('', #97, .T.);
#97 = EDGE_LOOP('', (#98, #99, #104, #105));
#98 = ORIENTED_EDGE('', *, *, #7, .T.);
#99 = ORIENTED_EDGE('', *, *, #100, .T.);
#100 = EDGE_CURVE('', #10, #80, #101, .T.);
#101 = B_SPLINE_CURVE_WITH_KNOTS('', 1, (#102, #103), .UNSPECIFIED., .F., .U., (2, 2), (0., 1.), .UNSPECIFIED.);
#102 = CARTESIAN_POINT('', (0., 60., 0.));
#103 = CARTESIAN_POINT('', (0., 0., 0.));
#104 = ORIENTED_EDGE('', *, *, #79, .F.);
#105 = ORIENTED_EDGE('', *, *, #106, .F.);
#106 = EDGE_CURVE('', #8, #73, #107, .T.);
#107 = B_SPLINE_CURVE_WITH_KNOTS('', 1, (#108, #109), .UNSPECIFIED., .F., .U., (2, 2), (0., 1.13129232403577), .UNSPECIFIED.);
#108 = CARTESIAN_POINT('', (-9.0681130834977, 69.0681130834977, 60.));
#109 = CARTESIAN_POINT('', (-9.0681130834977, -9.06811308349771, 60.));
#110 = B_SPLINE_SURFACE_WITH_KNOTS('', 1, 1, ((#111, #112), (#113, #114)), .UNSPECIFIED., .F., .F., .U., (2, 2), (2, 2), (0., 1.), (-0.151135218058295, 1.1511352180583), .UNSPECIFIED.);
#111 = CARTESIAN_POINT('', (-9.0681130834977, 69.0681130834977, 60.));
#112 = CARTESIAN_POINT('', (-9.0681130834977, -9.06811308349771, 60.));
#113 = CARTESIAN_POINT('', (0., 69.0681130834977, 0.));
#114 = CARTESIAN_POINT('', (0., -9.06811308349771, 0.));
#115 = ADVANCED_FACE('', (#116), #122, .T.);
#116 = FACE_OUTER_BOUND('', #117, .T.);
#117 = EDGE_LOOP('', (#118, #119, #120, #121));
#118 = ORIENTED_EDGE('', *, *, #106, .T.);
#119 = ORIENTED_EDGE('', *, *, #72, .T.);
#120 = ORIENTED_EDGE('', *, *, #44, .T.);
#121 = ORIENTED_EDGE('', *, *, #16, .T.);
#122 = B_SPLINE_SURFACE_WITH_KNOTS('', 1, 1, ((#123, #124), (#125, #126)), .UNSPECIFIED., .F., .F., .U., (2, 2), (2, 2), (0.216872057397794, 0.783127942602207), (0.144401717712563, 0.855598282287437), .UNSPECIFIED.);
#123 = CARTESIAN_POINT('', (89.0681130834977, -9.0681130834977, 60.));
#124 = CARTESIAN_POINT('', (-9.06811308349771, -9.0681130834977, 60.));
#125 = CARTESIAN_POINT('', (89.0681130834977, 69.0681130834977, 60.));
#126 = CARTESIAN_POINT('', (-9.06811308349771, 69.0681130834977, 60.));
#127 = ADVANCED_FACE('', (#128), #134, .T.);
#128 = FACE_OUTER_BOUND('', #129, .T.);
#129 = EDGE_LOOP('', (#130, #131, #132, #133));
#130 = ORIENTED_EDGE('', *, *, #86, .F.);
#131 = ORIENTED_EDGE('', *, *, #100, .F.);
#132 = ORIENTED_EDGE('', *, *, #30, .F.);
#133 = ORIENTED_EDGE('', *, *, #58, .F.);
#134 = B_SPLINE_SURFACE_WITH_KNOTS('', 1, 1, ((#135, #136), (#137, #138)), .UNSPECIFIED., .F., .F., .U., (2, 2), (2, 2), (0.136363636363636, 0.863636363636364), (0.227272727272727, 0.772727272727273), .UNSPECIFIED.);
#135 = CARTESIAN_POINT('', (80., -3.5527136788005E-15, 0.));
#136 = CARTESIAN_POINT('', (80., 60., 0.));
#137 = CARTESIAN_POINT('', (0., -3.5527136788005E-15, 0.));
#138 = CARTESIAN_POINT('', (0., 60., 0.));
#139 = DRAUGHTING_MODEL('', (#147, #293), #296);
#140 = PRESENTATION_STYLE_ASSIGNMENT((#141));
#141 = SURFACE_STYLE_USAGE(.POSITIVE., #142);
#142 = SURFACE_SIDE_STYLE('', (#143));
#143 = SURFACE_STYLE_FILL_AREA(#144);
#144 = FILL_AREA_STYLE('', (#145));
#145 = FILL_AREA_STYLE_COLOUR('', #146);
#146 = COLOUR_RGB('', 0.50196078431373, 0.50196078431373, 0.50196078431373);
#147 = STYLED_ITEM('', (#140), #1);
#148 = MANIFOLD_SOLID_BREP('Ref_0', #149);
#149 = CLOSED_SHELL('', (#150, #186, #214, #242, #262, #274));
#150 = ADVANCED_FACE('', (#151), #181, .T.);
#151 = FACE_OUTER_BOUND('', #152, .T.);
#152 = EDGE_LOOP('', (#153, #162, #169, #176));
#153 = ORIENTED_EDGE('', *, *, #154, .T.);
#154 = EDGE_CURVE('', #155, #157, #159, .T.);
#155 = VERTEX_POINT('', #156);
#156 = CARTESIAN_POINT('', (0., 10., 0.));
#157 = VERTEX_POINT('', #158);
#158 = CARTESIAN_POINT('', (0., 10., 10.));
#159 = B_SPLINE_CURVE_WITH_KNOTS('', 1, (#160, #161), .UNSPECIFIED., .F., .U., (2, 2), (0., 10.), .UNSPECIFIED.);
#160 = CARTESIAN_POINT('', (0., 10., 0.));
#161 = CARTESIAN_POINT('', (0., 10., 10.));
#162 = ORIENTED_EDGE('', *, *, #163, .T.);
#163 = EDGE_CURVE('', #157, #164, #166, .T.);
#164 = VERTEX_POINT('', #165);
#165 = CARTESIAN_POINT('', (10., 10., 10.));
#166 = B_SPLINE_CURVE_WITH_KNOTS('', 1, (#167, #168), .UNSPECIFIED., .F., .U., (2, 2), (0., 10.), .UNSPECIFIED.);
#167 = CARTESIAN_POINT('', (0., 10., 10.));
#168 = CARTESIAN_POINT('', (10., 10., 10.));
#169 = ORIENTED_EDGE('', *, *, #170, .F.);
#170 = EDGE_CURVE('', #171, #164, #173, .T.);
#171 = VERTEX_POINT('', #172);
#172 = CARTESIAN_POINT('', (10., 10., 0.));
#173 = B_SPLINE_CURVE_WITH_KNOTS('', 1, (#174, #175), .UNSPECIFIED., .F., .U., (2, 2), (0., 10.), .UNSPECIFIED.);
#174 = CARTESIAN_POINT('', (10., 10., 0.));
#175 = CARTESIAN_POINT('', (10., 10., 10.));
#176 = ORIENTED_EDGE('', *, *, #177, .F.);
#177 = EDGE_CURVE('', #155, #171, #178, .T.);
#178 = B_SPLINE_CURVE_WITH_KNOTS('', 1, (#179, #180), .UNSPECIFIED., .F., .U., (2, 2), (0., 10.), .UNSPECIFIED.);
#179 = CARTESIAN_POINT('', (0., 10., 0.));
#180 = CARTESIAN_POINT('', (10., 10., 0.));
#181 = B_SPLINE_SURFACE_WITH_KNOTS('', 1, 1, ((#182, #183), (#184, #185)), .UNSPECIFIED., .F., .F., .U., (2, 2), (2, 2), (0., 10.), (0., 10.), .UNSPECIFIED.);
#182 = CARTESIAN_POINT('', (0., 10., 0.));
#183 = CARTESIAN_POINT('', (10., 10., 0.));
#184 = CARTESIAN_POINT('', (0., 10., 10.));
#185 = CARTESIAN_POINT('', (10., 10., 10.));
#186 = ADVANCED_FACE('', (#187), #209, .T.);
#187 = FACE_OUTER_BOUND('', #188, .T.);
#188 = EDGE_LOOP('', (#189, #196, #203, #208));
#189 = ORIENTED_EDGE('', *, *, #190, .F.);
#190 = EDGE_CURVE('', #191, #157, #193, .T.);
#191 = VERTEX_POINT('', #192);
#192 = CARTESIAN_POINT('', (0., 0., 10.));
#193 = B_SPLINE_CURVE_WITH_KNOTS('', 1, (#194, #195), .UNSPECIFIED., .F., .U., (2, 2), (0., 10.), .UNSPECIFIED.);
#194 = CARTESIAN_POINT('', (0., 0., 10.));
#195 = CARTESIAN_POINT('', (0., 10., 10.));
#196 = ORIENTED_EDGE('', *, *, #197, .T.);
#197 = EDGE_CURVE('', #191, #198, #200, .T.);
#198 = VERTEX_POINT('', #199);
#199 = CARTESIAN_POINT('', (10., 0., 10.));
#200 = B_SPLINE_CURVE_WITH_KNOTS('', 1, (#201, #202), .UNSPECIFIED., .F., .U., (2, 2), (0., 10.), .UNSPECIFIED.);
#201 = CARTESIAN_POINT('', (0., 0., 10.));
#202 = CARTESIAN_POINT('', (10., 0., 10.));
#203 = ORIENTED_EDGE('', *, *, #204, .T.);
#204 = EDGE_CURVE('', #198, #164, #205, .T.);
#205 = B_SPLINE_CURVE_WITH_KNOTS('', 1, (#206, #207), .UNSPECIFIED., .F., .U., (2, 2), (0., 10.), .UNSPECIFIED.);
#206 = CARTESIAN_POINT('', (10., 0., 10.));
#207 = CARTESIAN_POINT('', (10., 10., 10.));
#208 = ORIENTED_EDGE('', *, *, #163, .F.);
#209 = B_SPLINE_SURFACE_WITH_KNOTS('', 1, 1, ((#210, #211), (#212, #213)), .UNSPECIFIED., .F., .F., .U., (2, 2), (2, 2), (0., 10.), (0., 10.), .UNSPECIFIED.);
#210 = CARTESIAN_POINT('', (0., 0., 10.));
#211 = CARTESIAN_POINT('', (0., 10., 10.));
#212 = CARTESIAN_POINT('', (10., 0., 10.));
#213 = CARTESIAN_POINT('', (10., 10., 10.));
#214 = ADVANCED_FACE('', (#215), #237, .T.);
#215 = FACE_OUTER_BOUND('', #216, .T.);
#216 = EDGE_LOOP('', (#217, #224, #231, #236));
#217 = ORIENTED_EDGE('', *, *, #218, .F.);
#218 = EDGE_CURVE('', #219, #191, #221, .T.);
#219 = VERTEX_POINT('', #220);
#220 = CARTESIAN_POINT('', (0., 0., 0.));
#221 = B_SPLINE_CURVE_WITH_KNOTS('', 1, (#222, #223), .UNSPECIFIED., .F., .U., (2, 2), (0., 10.), .UNSPECIFIED.);
#222 = CARTESIAN_POINT('', (0., 0., 0.));
#223 = CARTESIAN_POINT('', (0., 0., 10.));
#224 = ORIENTED_EDGE('', *, *, #225, .T.);
#225 = EDGE_CURVE('', #219, #226, #228, .T.);
#226 = VERTEX_POINT('', #227);
#227 = CARTESIAN_POINT('', (10., 0., 0.));
#228 = B_SPLINE_CURVE_WITH_KNOTS('', 1, (#229, #230), .UNSPECIFIED., .F., .U., (2, 2), (0., 10.), .UNSPECIFIED.);
#229 = CARTESIAN_POINT('', (0., 0., 0.));
#230 = CARTESIAN_POINT('', (10., 0., 0.));
#231 = ORIENTED_EDGE('', *, *, #232, .T.);
#232 = EDGE_CURVE('', #226, #198, #233, .T.);
#233 = B_SPLINE_CURVE_WITH_KNOTS('', 1, (#234, #235), .UNSPECIFIED., .F., .U., (2, 2), (0., 10.), .UNSPECIFIED.);
#234 = CARTESIAN_POINT('', (10., 0., 0.));
#235 = CARTESIAN_POINT('', (10., 0., 10.));
#236 = ORIENTED_EDGE('', *, *, #197, .F.);
#237 = B_SPLINE_SURFACE_WITH_KNOTS('', 1, 1, ((#238, #239), (#240, #241)), .UNSPECIFIED., .F., .F., .U., (2, 2), (2, 2), (0., 10.), (0., 10.), .UNSPECIFIED.);
#238 = CARTESIAN_POINT('', (0., 0., 0.));
#239 = CARTESIAN_POINT('', (0., 0., 10.));
#240 = CARTESIAN_POINT('', (10., 0., 0.));
#241 = CARTESIAN_POINT('', (10., 0., 10.));
#242 = ADVANCED_FACE('', (#243), #257, .T.);
#243 = FACE_OUTER_BOUND('', #244, .T.);
#244 = EDGE_LOOP('', (#245, #250, #251, #256));
#245 = ORIENTED_EDGE('', *, *, #246, .T.);
#246 = EDGE_CURVE('', #219, #155, #247, .T.);
#247 = B_SPLINE_CURVE_WITH_KNOTS('', 1, (#248, #249), .UNSPECIFIED., .F., .U., (2, 2), (0., 10.), .UNSPECIFIED.);
#248 = CARTESIAN_POINT('', (0., 0., 0.));
#249 = CARTESIAN_POINT('', (0., 10., 0.));
#250 = ORIENTED_EDGE('', *, *, #177, .T.);
#251 = ORIENTED_EDGE('', *, *, #252, .F.);
#252 = EDGE_CURVE('', #226, #171, #253, .T.);
#253 = B_SPLINE_CURVE_WITH_KNOTS('', 1, (#254, #255), .UNSPECIFIED., .F., .U., (2, 2), (0., 10.), .UNSPECIFIED.);
#254 = CARTESIAN_POINT('', (10., 0., 0.));
#255 = CARTESIAN_POINT('', (10., 10., 0.));
#256 = ORIENTED_EDGE('', *, *, #225, .F.);
#257 = B_SPLINE_SURFACE_WITH_KNOTS('', 1, 1, ((#258, #259), (#260, #261)), .UNSPECIFIED., .F., .F., .U., (2, 2), (2, 2), (0., 10.), (0., 10.), .UNSPECIFIED.);
#258 = CARTESIAN_POINT('', (0., 0., 0.));
#259 = CARTESIAN_POINT('', (10., 0., 0.));
#260 = CARTESIAN_POINT('', (0., 10., 0.));
#261 = CARTESIAN_POINT('', (10., 10., 0.));
#262 = ADVANCED_FACE('', (#263), #269, .T.);
#263 = FACE_OUTER_BOUND('', #264, .T.);
#264 = EDGE_LOOP('', (#265, #266, #267, #268));
#265 = ORIENTED_EDGE('', *, *, #232, .F.);
#266 = ORIENTED_EDGE('', *, *, #252, .T.);
#267 = ORIENTED_EDGE('', *, *, #170, .T.);
#268 = ORIENTED_EDGE('', *, *, #204, .F.);
#269 = B_SPLINE_SURFACE_WITH_KNOTS('', 1, 1, ((#270, #271), (#272, #273)), .UNSPECIFIED., .F., .F., .U., (2, 2), (2, 2), (0., 10.), (0., 10.), .UNSPECIFIED.);
#270 = CARTESIAN_POINT('', (10., 0., 0.));
#271 = CARTESIAN_POINT('', (10., 0., 10.));
#272 = CARTESIAN_POINT('', (10., 10., 0.));
#273 = CARTESIAN_POINT('', (10., 10., 10.));
#274 = ADVANCED_FACE('', (#275), #281, .T.);
#275 = FACE_OUTER_BOUND('', #276, .T.);
#276 = EDGE_LOOP('', (#277, #278, #279, #280));
#277 = ORIENTED_EDGE('', *, *, #218, .T.);
#278 = ORIENTED_EDGE('', *, *, #190, .T.);
#279 = ORIENTED_EDGE('', *, *, #154, .F.);
#280 = ORIENTED_EDGE('', *, *, #246, .F.);
#281 = B_SPLINE_SURFACE_WITH_KNOTS('', 1, 1, ((#282, #283), (#284, #285)), .UNSPECIFIED., .F., .F., .U., (2, 2), (2, 2), (0., 10.), (0., 10.), .UNSPECIFIED.);
#282 = CARTESIAN_POINT('', (0., 0., 0.));
#283 = CARTESIAN_POINT('', (0., 10., 0.));
#284 = CARTESIAN_POINT('', (0., 0., 10.));
#285 = CARTESIAN_POINT('', (0., 10., 10.));
#286 = PRESENTATION_STYLE_ASSIGNMENT((#287));
#287 = SURFACE_STYLE_USAGE(.POSITIVE., #288);
#288 = SURFACE_SIDE_STYLE('', (#289));
#289 = SURFACE_STYLE_FILL_AREA(#290);
#290 = FILL_AREA_STYLE('', (#291));
#291 = FILL_AREA_STYLE_COLOUR('', #292);
#292 = COLOUR_RGB('', 0.50196078431373, 0.50196078431373, 0.50196078431373);
#293 = STYLED_ITEM('', (#286), #148);
#294 = CARTESIAN_POINT('Origin', (0., 0., 0.));
#295 = GEOMETRIC_SET('', (#294));
#296 = (
   GEOMETRIC_REPRESENTATION_CONTEXT (3)
   GLOBAL_UNCERTAINTY_ASSIGNED_CONTEXT ((#298))
   GLOBAL_UNIT_ASSIGNED_CONTEXT ((#297, #299, #300))
   REPRESENTATION_CONTEXT ('', '3D')
);
#297 = (
   LENGTH_UNIT ()
   NAMED_UNIT (*)
   SI_UNIT (.MILLI., .METRE.)
);
#298 = UNCERTAINTY_MEASURE_WITH_UNIT(LENGTH_MEASURE(1.E-6), #297, 'DISTANCE_ACCURACY_VALUE', '');
#299 = (
   NAMED_UNIT (*)
   SI_UNIT ($, .STERADIAN.)
   SOLID_ANGLE_UNIT ()
);
#300 = (
   NAMED_UNIT (*)
   PLANE_ANGLE_UNIT ()
   SI_UNIT ($, .RADIAN.)
);
#301 = SHAPE_REPRESENTATION('', (#316), #296);
#302 = PRODUCT_DEFINITION_SHAPE('', '', #303);
#303 = PRODUCT_DEFINITION('', '', #306, #310);
#304 = APPLICATION_CONTEXT('configuration controlled 3D designs of mechanical parts and assemblies');
#305 = APPLICATION_PROTOCOL_DEFINITION('International Standard', 'automotive_design', 2002, #304);
#306 = PRODUCT_DEFINITION_FORMATION_WITH_SPECIFIED_SOURCE('', '', #307, .NOT_KNOWN.);
#307 = PRODUCT('Test', 'Test', '', (#308));
#308 = PRODUCT_CONTEXT('', #304, 'mechanical');
#309 = PRODUCT_RELATED_PRODUCT_CATEGORY('detail', '', (#307));
#310 = PRODUCT_DEFINITION_CONTEXT('part definition', #304, 'design');
#311 = SHAPE_DEFINITION_REPRESENTATION(#302, #301);
#312 = SHAPE_REPRESENTATION_RELATIONSHIP('', '', #301, #313);
#313 = SHAPE_REPRESENTATION('', (#295), #296);
#314 = SHAPE_REPRESENTATION_RELATIONSHIP('', '', #301, #315);
#315 = ADVANCED_BREP_SHAPE_REPRESENTATION('', (#1, #148), #296);
#316 = AXIS2_PLACEMENT_3D('', #317, #318, #319);
#317 = CARTESIAN_POINT('', (0., 0., 0.));
#318 = DIRECTION('', (0., 0., 1.));
#319 = DIRECTION('', (1., 0., 0.));
ENDSEC;
END-ISO-10303-21;
