ISO-10303-21;
HEADER;
FILE_DESCRIPTION(('STEP'), '1');
FILE_NAME('Test', '2026-04-17T22:15:26', (''), (''), 'Express 3.1.2.0', 'Express Tool', 'Unknown');
FILE_SCHEMA(('AUTOMOTIVE_DESIGN'));
ENDSEC;

DATA;
#1 = SHELL_BASED_SURFACE_MODEL('Extrusion_0', (#2, #139));
#2 = CLOSED_SHELL('', (#3, #39, #75, #95, #111, #127));
#3 = ADVANCED_FACE('', (#4), #34, .F.);
#4 = FACE_OUTER_BOUND('', #5, .F.);
#5 = EDGE_LOOP('', (#6, #15, #22, #29));
#6 = ORIENTED_EDGE('', *, *, #7, .T.);
#7 = EDGE_CURVE('', #8, #10, #12, .T.);
#8 = VERTEX_POINT('', #9);
#9 = CARTESIAN_POINT('', (0., 50., 50.));
#10 = VERTEX_POINT('', #11);
#11 = CARTESIAN_POINT('', (0., 0., 50.));
#12 = B_SPLINE_CURVE_WITH_KNOTS('', 1, (#13, #14), .UNSPECIFIED., .F., .U., (2, 2), (0., 1.), .UNSPECIFIED.);
#13 = CARTESIAN_POINT('', (0., 50., 50.));
#14 = CARTESIAN_POINT('', (0., 0., 50.));
#15 = ORIENTED_EDGE('', *, *, #16, .T.);
#16 = EDGE_CURVE('', #10, #17, #19, .T.);
#17 = VERTEX_POINT('', #18);
#18 = CARTESIAN_POINT('', (80., 0., 50.));
#19 = B_SPLINE_CURVE_WITH_KNOTS('', 1, (#20, #21), .UNSPECIFIED., .F., .U., (2, 2), (0., 1.), .UNSPECIFIED.);
#20 = CARTESIAN_POINT('', (0., 0., 50.));
#21 = CARTESIAN_POINT('', (80., 0., 50.));
#22 = ORIENTED_EDGE('', *, *, #23, .T.);
#23 = EDGE_CURVE('', #17, #24, #26, .T.);
#24 = VERTEX_POINT('', #25);
#25 = CARTESIAN_POINT('', (80., 50., 50.));
#26 = B_SPLINE_CURVE_WITH_KNOTS('', 1, (#27, #28), .UNSPECIFIED., .F., .U., (2, 2), (0., 1.), .UNSPECIFIED.);
#27 = CARTESIAN_POINT('', (80., 0., 50.));
#28 = CARTESIAN_POINT('', (80., 50., 50.));
#29 = ORIENTED_EDGE('', *, *, #30, .T.);
#30 = EDGE_CURVE('', #24, #8, #31, .T.);
#31 = B_SPLINE_CURVE_WITH_KNOTS('', 1, (#32, #33), .UNSPECIFIED., .F., .U., (2, 2), (0., 1.), .UNSPECIFIED.);
#32 = CARTESIAN_POINT('', (80., 50., 50.));
#33 = CARTESIAN_POINT('', (0., 50., 50.));
#34 = B_SPLINE_SURFACE_WITH_KNOTS('', 1, 1, ((#35, #36), (#37, #38)), .UNSPECIFIED., .F., .F., .U., (2, 2), (2, 2), (0., 1.), (0., 1.), .UNSPECIFIED.);
#35 = CARTESIAN_POINT('', (151.763378110252, -56.7633781102518, 50.));
#36 = CARTESIAN_POINT('', (-11.7633781102518, -56.7633781102518, 50.));
#37 = CARTESIAN_POINT('', (151.763378110252, 106.763378110252, 50.));
#38 = CARTESIAN_POINT('', (-11.7633781102518, 106.763378110252, 50.));
#39 = ADVANCED_FACE('', (#40), #70, .F.);
#40 = FACE_OUTER_BOUND('', #41, .F.);
#41 = EDGE_LOOP('', (#42, #51, #58, #65));
#42 = ORIENTED_EDGE('', *, *, #43, .F.);
#43 = EDGE_CURVE('', #44, #46, #48, .T.);
#44 = VERTEX_POINT('', #45);
#45 = CARTESIAN_POINT('', (0., 50., 0.));
#46 = VERTEX_POINT('', #47);
#47 = CARTESIAN_POINT('', (0., 0., 0.));
#48 = B_SPLINE_CURVE_WITH_KNOTS('', 1, (#49, #50), .UNSPECIFIED., .F., .U., (2, 2), (0., 1.), .UNSPECIFIED.);
#49 = CARTESIAN_POINT('', (0., 50., 0.));
#50 = CARTESIAN_POINT('', (0., 0., 0.));
#51 = ORIENTED_EDGE('', *, *, #52, .F.);
#52 = EDGE_CURVE('', #53, #44, #55, .T.);
#53 = VERTEX_POINT('', #54);
#54 = CARTESIAN_POINT('', (80., 50., 0.));
#55 = B_SPLINE_CURVE_WITH_KNOTS('', 1, (#56, #57), .UNSPECIFIED., .F., .U., (2, 2), (0., 1.), .UNSPECIFIED.);
#56 = CARTESIAN_POINT('', (80., 50., 0.));
#57 = CARTESIAN_POINT('', (0., 50., 0.));
#58 = ORIENTED_EDGE('', *, *, #59, .F.);
#59 = EDGE_CURVE('', #60, #53, #62, .T.);
#60 = VERTEX_POINT('', #61);
#61 = CARTESIAN_POINT('', (80., 0., 0.));
#62 = B_SPLINE_CURVE_WITH_KNOTS('', 1, (#63, #64), .UNSPECIFIED., .F., .U., (2, 2), (0., 1.), .UNSPECIFIED.);
#63 = CARTESIAN_POINT('', (80., 0., 0.));
#64 = CARTESIAN_POINT('', (80., 50., 0.));
#65 = ORIENTED_EDGE('', *, *, #66, .F.);
#66 = EDGE_CURVE('', #46, #60, #67, .T.);
#67 = B_SPLINE_CURVE_WITH_KNOTS('', 1, (#68, #69), .UNSPECIFIED., .F., .U., (2, 2), (0., 1.), .UNSPECIFIED.);
#68 = CARTESIAN_POINT('', (0., 0., 0.));
#69 = CARTESIAN_POINT('', (80., 0., 0.));
#70 = B_SPLINE_SURFACE_WITH_KNOTS('', 1, 1, ((#71, #72), (#73, #74)), .UNSPECIFIED., .F., .F., .U., (2, 2), (2, 2), (0., 1.), (0., 1.), .UNSPECIFIED.);
#71 = CARTESIAN_POINT('', (151.763378110252, -56.7633781102518, 0.));
#72 = CARTESIAN_POINT('', (151.763378110252, 106.763378110252, 0.));
#73 = CARTESIAN_POINT('', (-11.7633781102518, -56.7633781102518, 0.));
#74 = CARTESIAN_POINT('', (-11.7633781102518, 106.763378110252, 0.));
#75 = ADVANCED_FACE('', (#76), #90, .F.);
#76 = FACE_OUTER_BOUND('', #77, .F.);
#77 = EDGE_LOOP('', (#78, #83, #84, #89));
#78 = ORIENTED_EDGE('', *, *, #79, .F.);
#79 = EDGE_CURVE('', #44, #8, #80, .T.);
#80 = B_SPLINE_CURVE_WITH_KNOTS('', 1, (#81, #82), .UNSPECIFIED., .F., .U., (2, 2), (0., 1.), .UNSPECIFIED.);
#81 = CARTESIAN_POINT('', (0., 50., 0.));
#82 = CARTESIAN_POINT('', (0., 50., 50.));
#83 = ORIENTED_EDGE('', *, *, #43, .T.);
#84 = ORIENTED_EDGE('', *, *, #85, .T.);
#85 = EDGE_CURVE('', #46, #10, #86, .T.);
#86 = B_SPLINE_CURVE_WITH_KNOTS('', 1, (#87, #88), .UNSPECIFIED., .F., .U., (2, 2), (0., 1.), .UNSPECIFIED.);
#87 = CARTESIAN_POINT('', (0., 0., 0.));
#88 = CARTESIAN_POINT('', (0., 0., 50.));
#89 = ORIENTED_EDGE('', *, *, #7, .F.);
#90 = B_SPLINE_SURFACE_WITH_KNOTS('', 1, 1, ((#91, #92), (#93, #94)), .UNSPECIFIED., .F., .F., .U., (2, 2), (2, 2), (0., 1.), (0., 1.), .UNSPECIFIED.);
#91 = CARTESIAN_POINT('', (0., 50., 0.));
#92 = CARTESIAN_POINT('', (0., 50., 50.));
#93 = CARTESIAN_POINT('', (0., 0., 0.));
#94 = CARTESIAN_POINT('', (0., 0., 50.));
#95 = ADVANCED_FACE('', (#96), #106, .F.);
#96 = FACE_OUTER_BOUND('', #97, .F.);
#97 = EDGE_LOOP('', (#98, #99, #100, #105));
#98 = ORIENTED_EDGE('', *, *, #85, .F.);
#99 = ORIENTED_EDGE('', *, *, #66, .T.);
#100 = ORIENTED_EDGE('', *, *, #101, .T.);
#101 = EDGE_CURVE('', #60, #17, #102, .T.);
#102 = B_SPLINE_CURVE_WITH_KNOTS('', 1, (#103, #104), .UNSPECIFIED., .F., .U., (2, 2), (0., 1.), .UNSPECIFIED.);
#103 = CARTESIAN_POINT('', (80., 0., 0.));
#104 = CARTESIAN_POINT('', (80., 0., 50.));
#105 = ORIENTED_EDGE('', *, *, #16, .F.);
#106 = B_SPLINE_SURFACE_WITH_KNOTS('', 1, 1, ((#107, #108), (#109, #110)), .UNSPECIFIED., .F., .F., .U., (2, 2), (2, 2), (0., 1.), (0., 1.), .UNSPECIFIED.);
#107 = CARTESIAN_POINT('', (0., 0., 0.));
#108 = CARTESIAN_POINT('', (0., 0., 50.));
#109 = CARTESIAN_POINT('', (80., 0., 0.));
#110 = CARTESIAN_POINT('', (80., 0., 50.));
#111 = ADVANCED_FACE('', (#112), #122, .F.);
#112 = FACE_OUTER_BOUND('', #113, .F.);
#113 = EDGE_LOOP('', (#114, #119, #120, #121));
#114 = ORIENTED_EDGE('', *, *, #115, .F.);
#115 = EDGE_CURVE('', #53, #24, #116, .T.);
#116 = B_SPLINE_CURVE_WITH_KNOTS('', 1, (#117, #118), .UNSPECIFIED., .F., .U., (2, 2), (0., 1.), .UNSPECIFIED.);
#117 = CARTESIAN_POINT('', (80., 50., 0.));
#118 = CARTESIAN_POINT('', (80., 50., 50.));
#119 = ORIENTED_EDGE('', *, *, #52, .T.);
#120 = ORIENTED_EDGE('', *, *, #79, .T.);
#121 = ORIENTED_EDGE('', *, *, #30, .F.);
#122 = B_SPLINE_SURFACE_WITH_KNOTS('', 1, 1, ((#123, #124), (#125, #126)), .UNSPECIFIED., .F., .F., .U., (2, 2), (2, 2), (0., 1.), (0., 1.), .UNSPECIFIED.);
#123 = CARTESIAN_POINT('', (80., 50., 0.));
#124 = CARTESIAN_POINT('', (80., 50., 50.));
#125 = CARTESIAN_POINT('', (0., 50., 0.));
#126 = CARTESIAN_POINT('', (0., 50., 50.));
#127 = ADVANCED_FACE('', (#128), #134, .F.);
#128 = FACE_OUTER_BOUND('', #129, .F.);
#129 = EDGE_LOOP('', (#130, #131, #132, #133));
#130 = ORIENTED_EDGE('', *, *, #101, .F.);
#131 = ORIENTED_EDGE('', *, *, #59, .T.);
#132 = ORIENTED_EDGE('', *, *, #115, .T.);
#133 = ORIENTED_EDGE('', *, *, #23, .F.);
#134 = B_SPLINE_SURFACE_WITH_KNOTS('', 1, 1, ((#135, #136), (#137, #138)), .UNSPECIFIED., .F., .F., .U., (2, 2), (2, 2), (0., 1.), (0., 1.), .UNSPECIFIED.);
#135 = CARTESIAN_POINT('', (80., 0., 0.));
#136 = CARTESIAN_POINT('', (80., 0., 50.));
#137 = CARTESIAN_POINT('', (80., 50., 0.));
#138 = CARTESIAN_POINT('', (80., 50., 50.));
#139 = CLOSED_SHELL('', (#140, #196, #205));
#140 = ADVANCED_FACE('', (#141), #177, .F.);
#141 = FACE_OUTER_BOUND('', #142, .F.);
#142 = EDGE_LOOP('', (#143, #152, #164, #165));
#143 = ORIENTED_EDGE('', *, *, #144, .F.);
#144 = EDGE_CURVE('', #145, #147, #149, .T.);
#145 = VERTEX_POINT('', #146);
#146 = CARTESIAN_POINT('', (120., 45., 0.));
#147 = VERTEX_POINT('', #148);
#148 = CARTESIAN_POINT('', (120., 45., 50.));
#149 = B_SPLINE_CURVE_WITH_KNOTS('', 1, (#150, #151), .UNSPECIFIED., .F., .U., (2, 2), (0., 50.), .UNSPECIFIED.);
#150 = CARTESIAN_POINT('', (120., 45., 0.));
#151 = CARTESIAN_POINT('', (120., 45., 50.));
#152 = ORIENTED_EDGE('', *, *, #153, .T.);
#153 = EDGE_CURVE('', #145, #145, #154, .T.);
#154 = (
   BOUNDED_CURVE ()
   B_SPLINE_CURVE (2, (#155, #156, #157, #158, #159, #160, #161, #162, #163), .UNSPECIFIED., .T., .U.)
   B_SPLINE_CURVE_WITH_KNOTS ((3, 2, 2, 2, 3), (0., 31.4159265358979, 62.8318530717959, 94.2477796076938, 125.663706143592), .UNSPECIFIED.)
   CURVE ()
   GEOMETRIC_REPRESENTATION_ITEM ()
   RATIONAL_B_SPLINE_CURVE ((1., 0.707106781186548, 1., 0.707106781186548, 1., 0.707106781186548, 1., 0.707106781186548, 1.))
   REPRESENTATION_ITEM ('')
);
#155 = CARTESIAN_POINT('', (120., 45., 0.));
#156 = CARTESIAN_POINT('', (100., 45., 0.));
#157 = CARTESIAN_POINT('', (100., 25., 0.));
#158 = CARTESIAN_POINT('', (100., 5., 0.));
#159 = CARTESIAN_POINT('', (120., 5., 0.));
#160 = CARTESIAN_POINT('', (140., 5., 0.));
#161 = CARTESIAN_POINT('', (140., 25., 0.));
#162 = CARTESIAN_POINT('', (140., 45., 0.));
#163 = CARTESIAN_POINT('', (120., 45., 0.));
#164 = ORIENTED_EDGE('', *, *, #144, .T.);
#165 = ORIENTED_EDGE('', *, *, #166, .F.);
#166 = EDGE_CURVE('', #147, #147, #167, .T.);
#167 = (
   BOUNDED_CURVE ()
   B_SPLINE_CURVE (2, (#168, #169, #170, #171, #172, #173, #174, #175, #176), .UNSPECIFIED., .T., .U.)
   B_SPLINE_CURVE_WITH_KNOTS ((3, 2, 2, 2, 3), (0., 31.4159265358979, 62.8318530717959, 94.2477796076938, 125.663706143592), .UNSPECIFIED.)
   CURVE ()
   GEOMETRIC_REPRESENTATION_ITEM ()
   RATIONAL_B_SPLINE_CURVE ((1., 0.707106781186548, 1., 0.707106781186548, 1., 0.707106781186548, 1., 0.707106781186548, 1.))
   REPRESENTATION_ITEM ('')
);
#168 = CARTESIAN_POINT('', (120., 45., 50.));
#169 = CARTESIAN_POINT('', (100., 45., 50.));
#170 = CARTESIAN_POINT('', (100., 25., 50.));
#171 = CARTESIAN_POINT('', (100., 5., 50.));
#172 = CARTESIAN_POINT('', (120., 5., 50.));
#173 = CARTESIAN_POINT('', (140., 5., 50.));
#174 = CARTESIAN_POINT('', (140., 25., 50.));
#175 = CARTESIAN_POINT('', (140., 45., 50.));
#176 = CARTESIAN_POINT('', (120., 45., 50.));
#177 = (
   BOUNDED_SURFACE ()
   B_SPLINE_SURFACE (2, 1, ((#178, #179), (#180, #181), (#182, #183), (#184, #185), (#186, #187), (#188, #189), (#190, #191), (#192, #193), (#194, #195)), .UNSPECIFIED., .T., .F., .U.)
   B_SPLINE_SURFACE_WITH_KNOTS ((3, 2, 2, 2, 3), (2, 2), (0., 31.4159265358979, 62.8318530717959, 94.2477796076938, 125.663706143592), (0., 50.), .UNSPECIFIED.)
   GEOMETRIC_REPRESENTATION_ITEM ()
   RATIONAL_B_SPLINE_SURFACE (((1., 1.), (0.707106781186548, 0.707106781186548), (1., 1.), (0.707106781186548, 0.707106781186548), (1., 1.), (0.707106781186548, 0.707106781186548), (1., 1.), (0.707106781186548, 0.707106781186548), (1., 1.)))
   REPRESENTATION_ITEM ('')
   SURFACE ()
);
#178 = CARTESIAN_POINT('', (120., 45., 0.));
#179 = CARTESIAN_POINT('', (120., 45., 50.));
#180 = CARTESIAN_POINT('', (100., 45., 0.));
#181 = CARTESIAN_POINT('', (100., 45., 50.));
#182 = CARTESIAN_POINT('', (100., 25., 0.));
#183 = CARTESIAN_POINT('', (100., 25., 50.));
#184 = CARTESIAN_POINT('', (100., 5., 0.));
#185 = CARTESIAN_POINT('', (100., 5., 50.));
#186 = CARTESIAN_POINT('', (120., 5., 0.));
#187 = CARTESIAN_POINT('', (120., 5., 50.));
#188 = CARTESIAN_POINT('', (140., 5., 0.));
#189 = CARTESIAN_POINT('', (140., 5., 50.));
#190 = CARTESIAN_POINT('', (140., 25., 0.));
#191 = CARTESIAN_POINT('', (140., 25., 50.));
#192 = CARTESIAN_POINT('', (140., 45., 0.));
#193 = CARTESIAN_POINT('', (140., 45., 50.));
#194 = CARTESIAN_POINT('', (120., 45., 0.));
#195 = CARTESIAN_POINT('', (120., 45., 50.));
#196 = ADVANCED_FACE('', (#197), #200, .F.);
#197 = FACE_OUTER_BOUND('', #198, .F.);
#198 = EDGE_LOOP('', (#199));
#199 = ORIENTED_EDGE('', *, *, #153, .F.);
#200 = B_SPLINE_SURFACE_WITH_KNOTS('', 1, 1, ((#201, #202), (#203, #204)), .UNSPECIFIED., .F., .F., .U., (2, 2), (2, 2), (0., 1.), (0., 1.), .UNSPECIFIED.);
#201 = CARTESIAN_POINT('', (151.763378110252, -56.7633781102518, 0.));
#202 = CARTESIAN_POINT('', (151.763378110252, 106.763378110252, 0.));
#203 = CARTESIAN_POINT('', (-11.7633781102518, -56.7633781102518, 0.));
#204 = CARTESIAN_POINT('', (-11.7633781102518, 106.763378110252, 0.));
#205 = ADVANCED_FACE('', (#206), #209, .F.);
#206 = FACE_OUTER_BOUND('', #207, .F.);
#207 = EDGE_LOOP('', (#208));
#208 = ORIENTED_EDGE('', *, *, #166, .T.);
#209 = B_SPLINE_SURFACE_WITH_KNOTS('', 1, 1, ((#210, #211), (#212, #213)), .UNSPECIFIED., .F., .F., .U., (2, 2), (2, 2), (0., 1.), (0., 1.), .UNSPECIFIED.);
#210 = CARTESIAN_POINT('', (151.763378110252, -56.7633781102518, 50.));
#211 = CARTESIAN_POINT('', (-11.7633781102518, -56.7633781102518, 50.));
#212 = CARTESIAN_POINT('', (151.763378110252, 106.763378110252, 50.));
#213 = CARTESIAN_POINT('', (-11.7633781102518, 106.763378110252, 50.));
#214 = DRAUGHTING_MODEL('', (#222), #225);
#215 = PRESENTATION_STYLE_ASSIGNMENT((#216));
#216 = SURFACE_STYLE_USAGE(.POSITIVE., #217);
#217 = SURFACE_SIDE_STYLE('', (#218));
#218 = SURFACE_STYLE_FILL_AREA(#219);
#219 = FILL_AREA_STYLE('', (#220));
#220 = FILL_AREA_STYLE_COLOUR('', #221);
#221 = COLOUR_RGB('', 0.50196078431373, 0.50196078431373, 0.50196078431373);
#222 = STYLED_ITEM('', (#215), #1);
#223 = CARTESIAN_POINT('Origin', (0., 0., 0.));
#224 = GEOMETRIC_SET('', (#223));
#225 = (
   GEOMETRIC_REPRESENTATION_CONTEXT (3)
   GLOBAL_UNCERTAINTY_ASSIGNED_CONTEXT ((#227))
   GLOBAL_UNIT_ASSIGNED_CONTEXT ((#226, #228, #229))
   REPRESENTATION_CONTEXT ('', '3D')
);
#226 = (
   LENGTH_UNIT ()
   NAMED_UNIT (*)
   SI_UNIT (.MILLI., .METRE.)
);
#227 = UNCERTAINTY_MEASURE_WITH_UNIT(LENGTH_MEASURE(1.E-6), #226, 'DISTANCE_ACCURACY_VALUE', '');
#228 = (
   NAMED_UNIT (*)
   SI_UNIT ($, .STERADIAN.)
   SOLID_ANGLE_UNIT ()
);
#229 = (
   NAMED_UNIT (*)
   PLANE_ANGLE_UNIT ()
   SI_UNIT ($, .RADIAN.)
);
#230 = SHAPE_REPRESENTATION('', (#245), #225);
#231 = PRODUCT_DEFINITION_SHAPE('', '', #232);
#232 = PRODUCT_DEFINITION('', '', #235, #239);
#233 = APPLICATION_CONTEXT('configuration controlled 3D designs of mechanical parts and assemblies');
#234 = APPLICATION_PROTOCOL_DEFINITION('International Standard', 'automotive_design', 2002, #233);
#235 = PRODUCT_DEFINITION_FORMATION_WITH_SPECIFIED_SOURCE('', '', #236, .NOT_KNOWN.);
#236 = PRODUCT('Test', 'Test', '', (#237));
#237 = PRODUCT_CONTEXT('', #233, 'mechanical');
#238 = PRODUCT_RELATED_PRODUCT_CATEGORY('detail', '', (#236));
#239 = PRODUCT_DEFINITION_CONTEXT('part definition', #233, 'design');
#240 = SHAPE_DEFINITION_REPRESENTATION(#231, #230);
#241 = SHAPE_REPRESENTATION_RELATIONSHIP('', '', #230, #242);
#242 = SHAPE_REPRESENTATION('', (#224), #225);
#243 = SHAPE_REPRESENTATION_RELATIONSHIP('', '', #230, #244);
#244 = MANIFOLD_SURFACE_SHAPE_REPRESENTATION('', (#1), #225);
#245 = AXIS2_PLACEMENT_3D('', #246, #247, #248);
#246 = CARTESIAN_POINT('', (0., 0., 0.));
#247 = DIRECTION('', (0., 0., 1.));
#248 = DIRECTION('', (1., 0., 0.));
ENDSEC;
END-ISO-10303-21;
