ISO-10303-21;
HEADER;
FILE_DESCRIPTION(('STEP'), '1');
FILE_NAME('ToggleInverted', '2026-04-18T00:09:16', (''), (''), 'Express 3.1.2.0', 'Express Tool', 'Unknown');
FILE_SCHEMA(('AUTOMOTIVE_DESIGN'));
ENDSEC;

DATA;
#1 = MANIFOLD_SOLID_BREP('Revolve_0', #2);
#2 = CLOSED_SHELL('', (#3, #43, #71, #99, #116, #135));
#3 = ADVANCED_FACE('', (#4), #36, .T.);
#4 = FACE_OUTER_BOUND('', #5, .T.);
#5 = EDGE_LOOP('', (#6, #15, #23, #30));
#6 = ORIENTED_EDGE('', *, *, #7, .T.);
#7 = EDGE_CURVE('', #8, #10, #12, .T.);
#8 = VERTEX_POINT('', #9);
#9 = CARTESIAN_POINT('', (40., 0., 0.));
#10 = VERTEX_POINT('', #11);
#11 = CARTESIAN_POINT('', (40., 30., 0.));
#12 = B_SPLINE_CURVE_WITH_KNOTS('', 1, (#13, #14), .UNSPECIFIED., .F., .U., (2, 2), (0., 1.), .UNSPECIFIED.);
#13 = CARTESIAN_POINT('', (40., 0., 0.));
#14 = CARTESIAN_POINT('', (40., 30., 0.));
#15 = ORIENTED_EDGE('', *, *, #16, .T.);
#16 = EDGE_CURVE('', #10, #17, #19, .T.);
#17 = VERTEX_POINT('', #18);
#18 = CARTESIAN_POINT('', (2.44929359829471E-15, 30., 40.));
#19 = (
   BOUNDED_CURVE ()
   B_SPLINE_CURVE (2, (#20, #21, #22), .UNSPECIFIED., .F., .U.)
   B_SPLINE_CURVE_WITH_KNOTS ((3, 3), (0., 62.8318530717959), .UNSPECIFIED.)
   CURVE ()
   GEOMETRIC_REPRESENTATION_ITEM ()
   RATIONAL_B_SPLINE_CURVE ((1., 0.707106781186548, 1.))
   REPRESENTATION_ITEM ('')
);
#20 = CARTESIAN_POINT('', (40., 30., -3.94430452610515E-32));
#21 = CARTESIAN_POINT('', (40., 30., 40.));
#22 = CARTESIAN_POINT('', (7.77836411649547E-15, 30., 40.));
#23 = ORIENTED_EDGE('', *, *, #24, .F.);
#24 = EDGE_CURVE('', #25, #17, #27, .T.);
#25 = VERTEX_POINT('', #26);
#26 = CARTESIAN_POINT('', (2.44929359829471E-15, 0., 40.));
#27 = B_SPLINE_CURVE_WITH_KNOTS('', 1, (#28, #29), .UNSPECIFIED., .F., .U., (2, 2), (0., 1.), .UNSPECIFIED.);
#28 = CARTESIAN_POINT('', (2.44929359829471E-15, 0., 40.));
#29 = CARTESIAN_POINT('', (2.44929359829471E-15, 30., 40.));
#30 = ORIENTED_EDGE('', *, *, #31, .F.);
#31 = EDGE_CURVE('', #8, #25, #32, .T.);
#32 = (
   BOUNDED_CURVE ()
   B_SPLINE_CURVE (2, (#33, #34, #35), .UNSPECIFIED., .F., .U.)
   B_SPLINE_CURVE_WITH_KNOTS ((3, 3), (0., 1.), .UNSPECIFIED.)
   CURVE ()
   GEOMETRIC_REPRESENTATION_ITEM ()
   RATIONAL_B_SPLINE_CURVE ((1., 0.707106781186548, 1.))
   REPRESENTATION_ITEM ('')
);
#33 = CARTESIAN_POINT('', (40., 0., 0.));
#34 = CARTESIAN_POINT('', (40., 0., 40.));
#35 = CARTESIAN_POINT('', (2.44929359829471E-15, 0., 40.));
#36 = (
   BOUNDED_SURFACE ()
   B_SPLINE_SURFACE (1, 2, ((#37, #38, #39), (#40, #41, #42)), .UNSPECIFIED., .F., .F., .U.)
   B_SPLINE_SURFACE_WITH_KNOTS ((2, 2), (3, 3), (0., 1.), (0., 62.8318530717959), .UNSPECIFIED.)
   GEOMETRIC_REPRESENTATION_ITEM ()
   RATIONAL_B_SPLINE_SURFACE (((1., 0.707106781186548, 1.), (1., 0.707106781186548, 1.)))
   REPRESENTATION_ITEM ('')
   SURFACE ()
);
#37 = CARTESIAN_POINT('', (40., 0., -3.94430452610515E-32));
#38 = CARTESIAN_POINT('', (40., 0., 40.));
#39 = CARTESIAN_POINT('', (7.77836411649547E-15, 0., 40.));
#40 = CARTESIAN_POINT('', (40., 30., -3.94430452610515E-32));
#41 = CARTESIAN_POINT('', (40., 30., 40.));
#42 = CARTESIAN_POINT('', (7.77836411649547E-15, 30., 40.));
#43 = ADVANCED_FACE('', (#44), #66, .T.);
#44 = FACE_OUTER_BOUND('', #45, .T.);
#45 = EDGE_LOOP('', (#46, #55, #60, #61));
#46 = ORIENTED_EDGE('', *, *, #47, .T.);
#47 = EDGE_CURVE('', #48, #50, #52, .T.);
#48 = VERTEX_POINT('', #49);
#49 = CARTESIAN_POINT('', (1.22464679914735E-15, 30., 20.));
#50 = VERTEX_POINT('', #51);
#51 = CARTESIAN_POINT('', (1.22464679914735E-15, 0., 20.));
#52 = B_SPLINE_CURVE_WITH_KNOTS('', 1, (#53, #54), .UNSPECIFIED., .F., .U., (2, 2), (0., 1.), .UNSPECIFIED.);
#53 = CARTESIAN_POINT('', (1.22464679914735E-15, 30., 20.));
#54 = CARTESIAN_POINT('', (1.22464679914735E-15, 0., 20.));
#55 = ORIENTED_EDGE('', *, *, #56, .T.);
#56 = EDGE_CURVE('', #50, #25, #57, .T.);
#57 = B_SPLINE_CURVE_WITH_KNOTS('', 1, (#58, #59), .UNSPECIFIED., .F., .U., (2, 2), (0., 1.), .UNSPECIFIED.);
#58 = CARTESIAN_POINT('', (1.22464679914735E-15, 0., 20.));
#59 = CARTESIAN_POINT('', (2.44929359829471E-15, 0., 40.));
#60 = ORIENTED_EDGE('', *, *, #24, .T.);
#61 = ORIENTED_EDGE('', *, *, #62, .T.);
#62 = EDGE_CURVE('', #17, #48, #63, .T.);
#63 = B_SPLINE_CURVE_WITH_KNOTS('', 1, (#64, #65), .UNSPECIFIED., .F., .U., (2, 2), (0., 1.), .UNSPECIFIED.);
#64 = CARTESIAN_POINT('', (2.44929359829471E-15, 30., 40.));
#65 = CARTESIAN_POINT('', (1.22464679914735E-15, 30., 20.));
#66 = B_SPLINE_SURFACE_WITH_KNOTS('', 1, 1, ((#67, #68), (#69, #70)), .UNSPECIFIED., .F., .F., .U., (2, 2), (2, 2), (0., 1.), (0., 1.), .UNSPECIFIED.);
#67 = CARTESIAN_POINT('', (3.05124007660215E-15, -4.83053201505194, 49.8305320150519));
#68 = CARTESIAN_POINT('', (6.22700320839906E-16, -4.83053201505194, 10.1694679849481));
#69 = CARTESIAN_POINT('', (3.05124007660215E-15, 34.8305320150519, 49.8305320150519));
#70 = CARTESIAN_POINT('', (6.22700320839906E-16, 34.8305320150519, 10.1694679849481));
#71 = ADVANCED_FACE('', (#72), #94, .T.);
#72 = FACE_OUTER_BOUND('', #73, .T.);
#73 = EDGE_LOOP('', (#74, #83, #88, #89));
#74 = ORIENTED_EDGE('', *, *, #75, .F.);
#75 = EDGE_CURVE('', #76, #78, #80, .T.);
#76 = VERTEX_POINT('', #77);
#77 = CARTESIAN_POINT('', (20., 30., 0.));
#78 = VERTEX_POINT('', #79);
#79 = CARTESIAN_POINT('', (20., 0., 0.));
#80 = B_SPLINE_CURVE_WITH_KNOTS('', 1, (#81, #82), .UNSPECIFIED., .F., .U., (2, 2), (0., 1.), .UNSPECIFIED.);
#81 = CARTESIAN_POINT('', (20., 30., 0.));
#82 = CARTESIAN_POINT('', (20., 0., 0.));
#83 = ORIENTED_EDGE('', *, *, #84, .F.);
#84 = EDGE_CURVE('', #10, #76, #85, .T.);
#85 = B_SPLINE_CURVE_WITH_KNOTS('', 1, (#86, #87), .UNSPECIFIED., .F., .U., (2, 2), (0., 1.), .UNSPECIFIED.);
#86 = CARTESIAN_POINT('', (40., 30., 0.));
#87 = CARTESIAN_POINT('', (20., 30., 0.));
#88 = ORIENTED_EDGE('', *, *, #7, .F.);
#89 = ORIENTED_EDGE('', *, *, #90, .F.);
#90 = EDGE_CURVE('', #78, #8, #91, .T.);
#91 = B_SPLINE_CURVE_WITH_KNOTS('', 1, (#92, #93), .UNSPECIFIED., .F., .U., (2, 2), (0., 1.), .UNSPECIFIED.);
#92 = CARTESIAN_POINT('', (20., 0., 0.));
#93 = CARTESIAN_POINT('', (40., 0., 0.));
#94 = B_SPLINE_SURFACE_WITH_KNOTS('', 1, 1, ((#95, #96), (#97, #98)), .UNSPECIFIED., .F., .F., .U., (2, 2), (2, 2), (0., 1.), (0., 1.), .UNSPECIFIED.);
#95 = CARTESIAN_POINT('', (49.8305320150519, -4.83053201505194, 0.));
#96 = CARTESIAN_POINT('', (49.8305320150519, 34.8305320150519, 0.));
#97 = CARTESIAN_POINT('', (10.1694679849481, -4.83053201505194, 0.));
#98 = CARTESIAN_POINT('', (10.1694679849481, 34.8305320150519, 0.));
#99 = ADVANCED_FACE('', (#100), #111, .T.);
#100 = FACE_OUTER_BOUND('', #101, .T.);
#101 = EDGE_LOOP('', (#102, #103, #104, #105));
#102 = ORIENTED_EDGE('', *, *, #90, .T.);
#103 = ORIENTED_EDGE('', *, *, #31, .T.);
#104 = ORIENTED_EDGE('', *, *, #56, .F.);
#105 = ORIENTED_EDGE('', *, *, #106, .F.);
#106 = EDGE_CURVE('', #78, #50, #107, .T.);
#107 = (
   BOUNDED_CURVE ()
   B_SPLINE_CURVE (2, (#108, #109, #110), .UNSPECIFIED., .F., .U.)
   B_SPLINE_CURVE_WITH_KNOTS ((3, 3), (0., 31.4159265358979), .UNSPECIFIED.)
   CURVE ()
   GEOMETRIC_REPRESENTATION_ITEM ()
   RATIONAL_B_SPLINE_CURVE ((1., 0.707106781186548, 1.))
   REPRESENTATION_ITEM ('')
);
#108 = CARTESIAN_POINT('', (20., 0., -1.97215226305258E-32));
#109 = CARTESIAN_POINT('', (20., 0., 20.));
#110 = CARTESIAN_POINT('', (3.88918205824773E-15, 0., 20.));
#111 = B_SPLINE_SURFACE_WITH_KNOTS('', 1, 1, ((#112, #113), (#114, #115)), .UNSPECIFIED., .F., .F., .U., (2, 2), (2, 2), (0., 1.), (0., 1.), .UNSPECIFIED.);
#112 = CARTESIAN_POINT('', (-44., 0., -44.));
#113 = CARTESIAN_POINT('', (-44., 0., 44.));
#114 = CARTESIAN_POINT('', (44., 0., -44.));
#115 = CARTESIAN_POINT('', (44., 0., 44.));
#116 = ADVANCED_FACE('', (#117), #128, .T.);
#117 = FACE_OUTER_BOUND('', #118, .T.);
#118 = EDGE_LOOP('', (#119, #120, #121, #122));
#119 = ORIENTED_EDGE('', *, *, #75, .T.);
#120 = ORIENTED_EDGE('', *, *, #106, .T.);
#121 = ORIENTED_EDGE('', *, *, #47, .F.);
#122 = ORIENTED_EDGE('', *, *, #123, .F.);
#123 = EDGE_CURVE('', #76, #48, #124, .T.);
#124 = (
   BOUNDED_CURVE ()
   B_SPLINE_CURVE (2, (#125, #126, #127), .UNSPECIFIED., .F., .U.)
   B_SPLINE_CURVE_WITH_KNOTS ((3, 3), (0., 31.4159265358979), .UNSPECIFIED.)
   CURVE ()
   GEOMETRIC_REPRESENTATION_ITEM ()
   RATIONAL_B_SPLINE_CURVE ((1., 0.707106781186548, 1.))
   REPRESENTATION_ITEM ('')
);
#125 = CARTESIAN_POINT('', (20., 30., -1.97215226305258E-32));
#126 = CARTESIAN_POINT('', (20., 30., 20.));
#127 = CARTESIAN_POINT('', (3.88918205824773E-15, 30., 20.));
#128 = (
   BOUNDED_SURFACE ()
   B_SPLINE_SURFACE (1, 2, ((#129, #130, #131), (#132, #133, #134)), .UNSPECIFIED., .F., .F., .U.)
   B_SPLINE_SURFACE_WITH_KNOTS ((2, 2), (3, 3), (0., 1.), (0., 31.4159265358979), .UNSPECIFIED.)
   GEOMETRIC_REPRESENTATION_ITEM ()
   RATIONAL_B_SPLINE_SURFACE (((1., 0.707106781186548, 1.), (1., 0.707106781186548, 1.)))
   REPRESENTATION_ITEM ('')
   SURFACE ()
);
#129 = CARTESIAN_POINT('', (20., 30., -1.97215226305258E-32));
#130 = CARTESIAN_POINT('', (20., 30., 20.));
#131 = CARTESIAN_POINT('', (3.88918205824773E-15, 30., 20.));
#132 = CARTESIAN_POINT('', (20., 0., -1.97215226305258E-32));
#133 = CARTESIAN_POINT('', (20., 0., 20.));
#134 = CARTESIAN_POINT('', (3.88918205824773E-15, 0., 20.));
#135 = ADVANCED_FACE('', (#136), #142, .T.);
#136 = FACE_OUTER_BOUND('', #137, .T.);
#137 = EDGE_LOOP('', (#138, #139, #140, #141));
#138 = ORIENTED_EDGE('', *, *, #84, .T.);
#139 = ORIENTED_EDGE('', *, *, #123, .T.);
#140 = ORIENTED_EDGE('', *, *, #62, .F.);
#141 = ORIENTED_EDGE('', *, *, #16, .F.);
#142 = B_SPLINE_SURFACE_WITH_KNOTS('', 1, 1, ((#143, #144), (#145, #146)), .UNSPECIFIED., .F., .F., .U., (2, 2), (2, 2), (0., 1.), (0., 1.), .UNSPECIFIED.);
#143 = CARTESIAN_POINT('', (-44., 30., -44.));
#144 = CARTESIAN_POINT('', (44., 30., -44.));
#145 = CARTESIAN_POINT('', (-44., 30., 44.));
#146 = CARTESIAN_POINT('', (44., 30., 44.));
#147 = DRAUGHTING_MODEL('', (#155), #158);
#148 = PRESENTATION_STYLE_ASSIGNMENT((#149));
#149 = SURFACE_STYLE_USAGE(.POSITIVE., #150);
#150 = SURFACE_SIDE_STYLE('', (#151));
#151 = SURFACE_STYLE_FILL_AREA(#152);
#152 = FILL_AREA_STYLE('', (#153));
#153 = FILL_AREA_STYLE_COLOUR('', #154);
#154 = COLOUR_RGB('', 0.50196078431373, 0.50196078431373, 0.50196078431373);
#155 = STYLED_ITEM('', (#148), #1);
#156 = CARTESIAN_POINT('Origin', (0., 0., 0.));
#157 = GEOMETRIC_SET('', (#156));
#158 = (
   GEOMETRIC_REPRESENTATION_CONTEXT (3)
   GLOBAL_UNCERTAINTY_ASSIGNED_CONTEXT ((#160))
   GLOBAL_UNIT_ASSIGNED_CONTEXT ((#159, #161, #162))
   REPRESENTATION_CONTEXT ('', '3D')
);
#159 = (
   LENGTH_UNIT ()
   NAMED_UNIT (*)
   SI_UNIT (.MILLI., .METRE.)
);
#160 = UNCERTAINTY_MEASURE_WITH_UNIT(LENGTH_MEASURE(1.E-6), #159, 'DISTANCE_ACCURACY_VALUE', '');
#161 = (
   NAMED_UNIT (*)
   SI_UNIT ($, .STERADIAN.)
   SOLID_ANGLE_UNIT ()
);
#162 = (
   NAMED_UNIT (*)
   PLANE_ANGLE_UNIT ()
   SI_UNIT ($, .RADIAN.)
);
#163 = SHAPE_REPRESENTATION('', (#178), #158);
#164 = PRODUCT_DEFINITION_SHAPE('', '', #165);
#165 = PRODUCT_DEFINITION('', '', #168, #172);
#166 = APPLICATION_CONTEXT('configuration controlled 3D designs of mechanical parts and assemblies');
#167 = APPLICATION_PROTOCOL_DEFINITION('International Standard', 'automotive_design', 2002, #166);
#168 = PRODUCT_DEFINITION_FORMATION_WITH_SPECIFIED_SOURCE('', '', #169, .NOT_KNOWN.);
#169 = PRODUCT('ToggleInverted', 'ToggleInverted', '', (#170));
#170 = PRODUCT_CONTEXT('', #166, 'mechanical');
#171 = PRODUCT_RELATED_PRODUCT_CATEGORY('detail', '', (#169));
#172 = PRODUCT_DEFINITION_CONTEXT('part definition', #166, 'design');
#173 = SHAPE_DEFINITION_REPRESENTATION(#164, #163);
#174 = SHAPE_REPRESENTATION_RELATIONSHIP('', '', #163, #175);
#175 = SHAPE_REPRESENTATION('', (#157), #158);
#176 = SHAPE_REPRESENTATION_RELATIONSHIP('', '', #163, #177);
#177 = ADVANCED_BREP_SHAPE_REPRESENTATION('', (#1), #158);
#178 = AXIS2_PLACEMENT_3D('', #179, #180, #181);
#179 = CARTESIAN_POINT('', (0., 0., 0.));
#180 = DIRECTION('', (0., 0., 1.));
#181 = DIRECTION('', (1., 0., 0.));
ENDSEC;
END-ISO-10303-21;
