ISO-10303-21;
HEADER;
FILE_DESCRIPTION(('STEP'), '1');
FILE_NAME('MultiUpdate', '2026-04-18T00:13:20', (''), (''), 'Express 3.1.2.0', 'Express Tool', 'Unknown');
FILE_SCHEMA(('AUTOMOTIVE_DESIGN'));
ENDSEC;

DATA;
#1 = MANIFOLD_SOLID_BREP('Revolve_0', #2);
#2 = CLOSED_SHELL('', (#3, #39, #79, #107, #139, #151));
#3 = ADVANCED_FACE('', (#4), #34, .T.);
#4 = FACE_OUTER_BOUND('', #5, .T.);
#5 = EDGE_LOOP('', (#6, #15, #22, #29));
#6 = ORIENTED_EDGE('', *, *, #7, .F.);
#7 = EDGE_CURVE('', #8, #10, #12, .T.);
#8 = VERTEX_POINT('', #9);
#9 = CARTESIAN_POINT('', (14.142135623731, 30., 14.1421356237309));
#10 = VERTEX_POINT('', #11);
#11 = CARTESIAN_POINT('', (14.142135623731, 0., 14.1421356237309));
#12 = B_SPLINE_CURVE_WITH_KNOTS('', 1, (#13, #14), .UNSPECIFIED., .F., .U., (2, 2), (0., 1.), .UNSPECIFIED.);
#13 = CARTESIAN_POINT('', (14.142135623731, 30., 14.1421356237309));
#14 = CARTESIAN_POINT('', (14.142135623731, 0., 14.1421356237309));
#15 = ORIENTED_EDGE('', *, *, #16, .F.);
#16 = EDGE_CURVE('', #17, #8, #19, .T.);
#17 = VERTEX_POINT('', #18);
#18 = CARTESIAN_POINT('', (28.2842712474619, 30., 28.2842712474619));
#19 = B_SPLINE_CURVE_WITH_KNOTS('', 1, (#20, #21), .UNSPECIFIED., .F., .U., (2, 2), (0., 1.), .UNSPECIFIED.);
#20 = CARTESIAN_POINT('', (28.2842712474619, 30., 28.2842712474619));
#21 = CARTESIAN_POINT('', (14.142135623731, 30., 14.1421356237309));
#22 = ORIENTED_EDGE('', *, *, #23, .F.);
#23 = EDGE_CURVE('', #24, #17, #26, .T.);
#24 = VERTEX_POINT('', #25);
#25 = CARTESIAN_POINT('', (28.2842712474619, 0., 28.2842712474619));
#26 = B_SPLINE_CURVE_WITH_KNOTS('', 1, (#27, #28), .UNSPECIFIED., .F., .U., (2, 2), (0., 1.), .UNSPECIFIED.);
#27 = CARTESIAN_POINT('', (28.2842712474619, 0., 28.2842712474619));
#28 = CARTESIAN_POINT('', (28.2842712474619, 30., 28.2842712474619));
#29 = ORIENTED_EDGE('', *, *, #30, .F.);
#30 = EDGE_CURVE('', #10, #24, #31, .T.);
#31 = B_SPLINE_CURVE_WITH_KNOTS('', 1, (#32, #33), .UNSPECIFIED., .F., .U., (2, 2), (0., 1.), .UNSPECIFIED.);
#32 = CARTESIAN_POINT('', (14.142135623731, 0., 14.1421356237309));
#33 = CARTESIAN_POINT('', (28.2842712474619, 0., 28.2842712474619));
#34 = B_SPLINE_SURFACE_WITH_KNOTS('', 1, 1, ((#35, #36), (#37, #38)), .UNSPECIFIED., .F., .F., .U., (2, 2), (2, 2), (0., 1.), (0., 1.), .UNSPECIFIED.);
#35 = CARTESIAN_POINT('', (35.2355070979766, -4.83053201505194, 35.2355070979766));
#36 = CARTESIAN_POINT('', (35.2355070979766, 34.8305320150519, 35.2355070979766));
#37 = CARTESIAN_POINT('', (7.19089977321627, -4.83053201505194, 7.19089977321627));
#38 = CARTESIAN_POINT('', (7.19089977321627, 34.8305320150519, 7.19089977321627));
#39 = ADVANCED_FACE('', (#40), #68, .T.);
#40 = FACE_OUTER_BOUND('', #41, .T.);
#41 = EDGE_LOOP('', (#42, #43, #53, #60));
#42 = ORIENTED_EDGE('', *, *, #7, .T.);
#43 = ORIENTED_EDGE('', *, *, #44, .T.);
#44 = EDGE_CURVE('', #10, #45, #47, .T.);
#45 = VERTEX_POINT('', #46);
#46 = CARTESIAN_POINT('', (-20., 0., 2.82950007919588E-15));
#47 = (
   BOUNDED_CURVE ()
   B_SPLINE_CURVE (2, (#48, #49, #50, #51, #52), .UNSPECIFIED., .F., .U.)
   B_SPLINE_CURVE_WITH_KNOTS ((3, 2, 3), (0., 23.5619449019234, 47.1238898038469), .UNSPECIFIED.)
   CURVE ()
   GEOMETRIC_REPRESENTATION_ITEM ()
   RATIONAL_B_SPLINE_CURVE ((1., 0.831469612302545, 1., 0.831469612302545, 1.))
   REPRESENTATION_ITEM ('')
);
#48 = CARTESIAN_POINT('', (14.142135623731, 3.5527136788005E-15, 14.142135623731));
#49 = CARTESIAN_POINT('', (4.69266270539642, 3.5527136788005E-15, 23.5916085420655));
#50 = CARTESIAN_POINT('', (-7.65366864730179, 1.35956466481378E-15, 18.4775906502257));
#51 = CARTESIAN_POINT('', (-20., -8.33584349172941E-16, 13.363572758386));
#52 = CARTESIAN_POINT('', (-20., -2.51214793389404E-15, 1.57342611224886E-15));
#53 = ORIENTED_EDGE('', *, *, #54, .F.);
#54 = EDGE_CURVE('', #55, #45, #57, .T.);
#55 = VERTEX_POINT('', #56);
#56 = CARTESIAN_POINT('', (-20., 30., 2.82950007919588E-15));
#57 = B_SPLINE_CURVE_WITH_KNOTS('', 1, (#58, #59), .UNSPECIFIED., .F., .U., (2, 2), (0., 1.), .UNSPECIFIED.);
#58 = CARTESIAN_POINT('', (-20., 30., 2.82950007919588E-15));
#59 = CARTESIAN_POINT('', (-20., 0., 2.82950007919588E-15));
#60 = ORIENTED_EDGE('', *, *, #61, .F.);
#61 = EDGE_CURVE('', #8, #55, #62, .T.);
#62 = (
   BOUNDED_CURVE ()
   B_SPLINE_CURVE (2, (#63, #64, #65, #66, #67), .UNSPECIFIED., .F., .U.)
   B_SPLINE_CURVE_WITH_KNOTS ((3, 2, 3), (0., 23.5619449019234, 47.1238898038469), .UNSPECIFIED.)
   CURVE ()
   GEOMETRIC_REPRESENTATION_ITEM ()
   RATIONAL_B_SPLINE_CURVE ((1., 0.831469612302545, 1., 0.831469612302545, 1.))
   REPRESENTATION_ITEM ('')
);
#63 = CARTESIAN_POINT('', (14.142135623731, 30., 14.1421356237309));
#64 = CARTESIAN_POINT('', (4.69266270539641, 30., 23.5916085420655));
#65 = CARTESIAN_POINT('', (-7.6536686473018, 30., 18.4775906502257));
#66 = CARTESIAN_POINT('', (-20., 30., 13.363572758386));
#67 = CARTESIAN_POINT('', (-20., 30., -1.97928756655164E-15));
#68 = (
   BOUNDED_SURFACE ()
   B_SPLINE_SURFACE (1, 2, ((#69, #70, #71, #72, #73), (#74, #75, #76, #77, #78)), .UNSPECIFIED., .F., .F., .U.)
   B_SPLINE_SURFACE_WITH_KNOTS ((2, 2), (3, 2, 3), (0., 1.), (0., 23.5619449019234, 47.1238898038469), .UNSPECIFIED.)
   GEOMETRIC_REPRESENTATION_ITEM ()
   RATIONAL_B_SPLINE_SURFACE (((1., 0.831469612302545, 1., 0.831469612302545, 1.), (1., 0.831469612302545, 1., 0.831469612302545, 1.)))
   REPRESENTATION_ITEM ('')
   SURFACE ()
);
#69 = CARTESIAN_POINT('', (14.142135623731, 30., 14.1421356237309));
#70 = CARTESIAN_POINT('', (4.69266270539641, 30., 23.5916085420655));
#71 = CARTESIAN_POINT('', (-7.6536686473018, 30., 18.4775906502257));
#72 = CARTESIAN_POINT('', (-20., 30., 13.363572758386));
#73 = CARTESIAN_POINT('', (-20., 30., -1.97928756655164E-15));
#74 = CARTESIAN_POINT('', (14.142135623731, 3.5527136788005E-15, 14.142135623731));
#75 = CARTESIAN_POINT('', (4.69266270539642, 3.5527136788005E-15, 23.5916085420655));
#76 = CARTESIAN_POINT('', (-7.65366864730179, 1.35956466481378E-15, 18.4775906502257));
#77 = CARTESIAN_POINT('', (-20., -8.33584349172941E-16, 13.363572758386));
#78 = CARTESIAN_POINT('', (-20., -2.51214793389404E-15, 1.57342611224886E-15));
#79 = ADVANCED_FACE('', (#80), #102, .T.);
#80 = FACE_OUTER_BOUND('', #81, .T.);
#81 = EDGE_LOOP('', (#82, #83, #90, #97));
#82 = ORIENTED_EDGE('', *, *, #54, .T.);
#83 = ORIENTED_EDGE('', *, *, #84, .T.);
#84 = EDGE_CURVE('', #45, #85, #87, .T.);
#85 = VERTEX_POINT('', #86);
#86 = CARTESIAN_POINT('', (-40., 0., 5.65900015839176E-15));
#87 = B_SPLINE_CURVE_WITH_KNOTS('', 1, (#88, #89), .UNSPECIFIED., .F., .U., (2, 2), (0., 1.), .UNSPECIFIED.);
#88 = CARTESIAN_POINT('', (-20., 0., 2.82950007919588E-15));
#89 = CARTESIAN_POINT('', (-40., 0., 5.65900015839176E-15));
#90 = ORIENTED_EDGE('', *, *, #91, .T.);
#91 = EDGE_CURVE('', #85, #92, #94, .T.);
#92 = VERTEX_POINT('', #93);
#93 = CARTESIAN_POINT('', (-40., 30., 5.65900015839176E-15));
#94 = B_SPLINE_CURVE_WITH_KNOTS('', 1, (#95, #96), .UNSPECIFIED., .F., .U., (2, 2), (0., 1.), .UNSPECIFIED.);
#95 = CARTESIAN_POINT('', (-40., 0., 5.65900015839176E-15));
#96 = CARTESIAN_POINT('', (-40., 30., 5.65900015839176E-15));
#97 = ORIENTED_EDGE('', *, *, #98, .T.);
#98 = EDGE_CURVE('', #92, #55, #99, .T.);
#99 = B_SPLINE_CURVE_WITH_KNOTS('', 1, (#100, #101), .UNSPECIFIED., .F., .U., (2, 2), (0., 1.), .UNSPECIFIED.);
#100 = CARTESIAN_POINT('', (-40., 30., 5.65900015839176E-15));
#101 = CARTESIAN_POINT('', (-20., 30., 2.82950007919588E-15));
#102 = B_SPLINE_SURFACE_WITH_KNOTS('', 1, 1, ((#103, #104), (#105, #106)), .UNSPECIFIED., .F., .F., .U., (2, 2), (2, 2), (0., 1.), (0., 1.), .UNSPECIFIED.);
#103 = CARTESIAN_POINT('', (-49.8305320150519, -4.83053201505194, 9.70036700832574E-15));
#104 = CARTESIAN_POINT('', (-10.1694679849481, -4.83053201505194, 1.45266848836227E-15));
#105 = CARTESIAN_POINT('', (-49.8305320150519, 34.8305320150519, 9.70036700832574E-15));
#106 = CARTESIAN_POINT('', (-10.1694679849481, 34.8305320150519, 1.45266848836227E-15));
#107 = ADVANCED_FACE('', (#108), #128, .T.);
#108 = FACE_OUTER_BOUND('', #109, .T.);
#109 = EDGE_LOOP('', (#110, #111, #119, #120));
#110 = ORIENTED_EDGE('', *, *, #23, .T.);
#111 = ORIENTED_EDGE('', *, *, #112, .T.);
#112 = EDGE_CURVE('', #17, #92, #113, .T.);
#113 = (
   BOUNDED_CURVE ()
   B_SPLINE_CURVE (2, (#114, #115, #116, #117, #118), .UNSPECIFIED., .F., .U.)
   B_SPLINE_CURVE_WITH_KNOTS ((3, 2, 3), (0., 47.1238898038469, 94.2477796076938), .UNSPECIFIED.)
   CURVE ()
   GEOMETRIC_REPRESENTATION_ITEM ()
   RATIONAL_B_SPLINE_CURVE ((1., 0.831469612302545, 1., 0.831469612302545, 1.))
   REPRESENTATION_ITEM ('')
);
#114 = CARTESIAN_POINT('', (28.2842712474619, 30., 28.2842712474619));
#115 = CARTESIAN_POINT('', (9.38532541079282, 30., 47.183217084131));
#116 = CARTESIAN_POINT('', (-15.3073372946036, 30., 36.9551813004515));
#117 = CARTESIAN_POINT('', (-40., 30., 26.727145516772));
#118 = CARTESIAN_POINT('', (-40., 30., -3.95857513310328E-15));
#119 = ORIENTED_EDGE('', *, *, #91, .F.);
#120 = ORIENTED_EDGE('', *, *, #121, .F.);
#121 = EDGE_CURVE('', #24, #85, #122, .T.);
#122 = (
   BOUNDED_CURVE ()
   B_SPLINE_CURVE (2, (#123, #124, #125, #126, #127), .UNSPECIFIED., .F., .U.)
   B_SPLINE_CURVE_WITH_KNOTS ((3, 2, 3), (0., 0.5, 1.), .UNSPECIFIED.)
   CURVE ()
   GEOMETRIC_REPRESENTATION_ITEM ()
   RATIONAL_B_SPLINE_CURVE ((1., 0.831469612302545, 1., 0.831469612302545, 1.))
   REPRESENTATION_ITEM ('')
);
#123 = CARTESIAN_POINT('', (28.2842712474619, 0., 28.2842712474619));
#124 = CARTESIAN_POINT('', (9.38532541079282, 0., 47.183217084131));
#125 = CARTESIAN_POINT('', (-15.3073372946036, 0., 36.9551813004515));
#126 = CARTESIAN_POINT('', (-40., 0., 26.727145516772));
#127 = CARTESIAN_POINT('', (-40., 0., 5.65900015839176E-15));
#128 = (
   BOUNDED_SURFACE ()
   B_SPLINE_SURFACE (1, 2, ((#129, #130, #131, #132, #133), (#134, #135, #136, #137, #138)), .UNSPECIFIED., .F., .F., .U.)
   B_SPLINE_SURFACE_WITH_KNOTS ((2, 2), (3, 2, 3), (0., 1.), (0., 47.1238898038469, 94.2477796076938), .UNSPECIFIED.)
   GEOMETRIC_REPRESENTATION_ITEM ()
   RATIONAL_B_SPLINE_SURFACE (((1., 0.831469612302545, 1., 0.831469612302545, 1.), (1., 0.831469612302545, 1., 0.831469612302545, 1.)))
   REPRESENTATION_ITEM ('')
   SURFACE ()
);
#129 = CARTESIAN_POINT('', (28.2842712474619, 3.5527136788005E-15, 28.2842712474619));
#130 = CARTESIAN_POINT('', (9.38532541079282, 3.5527136788005E-15, 47.183217084131));
#131 = CARTESIAN_POINT('', (-15.3073372946036, 1.35956466481378E-15, 36.9551813004515));
#132 = CARTESIAN_POINT('', (-40., -8.33584349172941E-16, 26.727145516772));
#133 = CARTESIAN_POINT('', (-40., -2.51214793389404E-15, -4.05861454302781E-16));
#134 = CARTESIAN_POINT('', (28.2842712474619, 30., 28.2842712474619));
#135 = CARTESIAN_POINT('', (9.38532541079282, 30., 47.183217084131));
#136 = CARTESIAN_POINT('', (-15.3073372946036, 30., 36.9551813004515));
#137 = CARTESIAN_POINT('', (-40., 30., 26.727145516772));
#138 = CARTESIAN_POINT('', (-40., 30., -3.95857513310328E-15));
#139 = ADVANCED_FACE('', (#140), #146, .T.);
#140 = FACE_OUTER_BOUND('', #141, .T.);
#141 = EDGE_LOOP('', (#142, #143, #144, #145));
#142 = ORIENTED_EDGE('', *, *, #30, .T.);
#143 = ORIENTED_EDGE('', *, *, #121, .T.);
#144 = ORIENTED_EDGE('', *, *, #84, .F.);
#145 = ORIENTED_EDGE('', *, *, #44, .F.);
#146 = B_SPLINE_SURFACE_WITH_KNOTS('', 1, 1, ((#147, #148), (#149, #150)), .UNSPECIFIED., .F., .F., .U., (2, 2), (2, 2), (0., 1.), (0., 1.), .UNSPECIFIED.);
#147 = CARTESIAN_POINT('', (-5.32907051820075E-15, 0., -62.2253967444162));
#148 = CARTESIAN_POINT('', (-62.2253967444162, 0., 6.66133814775094E-15));
#149 = CARTESIAN_POINT('', (62.2253967444162, 0., -6.66133814775094E-15));
#150 = CARTESIAN_POINT('', (5.32907051820075E-15, 0., 62.2253967444162));
#151 = ADVANCED_FACE('', (#152), #158, .T.);
#152 = FACE_OUTER_BOUND('', #153, .T.);
#153 = EDGE_LOOP('', (#154, #155, #156, #157));
#154 = ORIENTED_EDGE('', *, *, #16, .T.);
#155 = ORIENTED_EDGE('', *, *, #61, .T.);
#156 = ORIENTED_EDGE('', *, *, #98, .F.);
#157 = ORIENTED_EDGE('', *, *, #112, .F.);
#158 = B_SPLINE_SURFACE_WITH_KNOTS('', 1, 1, ((#159, #160), (#161, #162)), .UNSPECIFIED., .F., .F., .U., (2, 2), (2, 2), (0., 1.), (0., 1.), .UNSPECIFIED.);
#159 = CARTESIAN_POINT('', (-5.32907051820075E-15, 30., -62.2253967444162));
#160 = CARTESIAN_POINT('', (62.2253967444162, 30., -6.66133814775094E-15));
#161 = CARTESIAN_POINT('', (-62.2253967444162, 30., 6.66133814775094E-15));
#162 = CARTESIAN_POINT('', (5.32907051820075E-15, 30., 62.2253967444162));
#163 = DRAUGHTING_MODEL('', (#171), #174);
#164 = PRESENTATION_STYLE_ASSIGNMENT((#165));
#165 = SURFACE_STYLE_USAGE(.POSITIVE., #166);
#166 = SURFACE_SIDE_STYLE('', (#167));
#167 = SURFACE_STYLE_FILL_AREA(#168);
#168 = FILL_AREA_STYLE('', (#169));
#169 = FILL_AREA_STYLE_COLOUR('', #170);
#170 = COLOUR_RGB('', 0.50196078431373, 0.50196078431373, 0.50196078431373);
#171 = STYLED_ITEM('', (#164), #1);
#172 = CARTESIAN_POINT('Origin', (0., 0., 0.));
#173 = GEOMETRIC_SET('', (#172));
#174 = (
   GEOMETRIC_REPRESENTATION_CONTEXT (3)
   GLOBAL_UNCERTAINTY_ASSIGNED_CONTEXT ((#176))
   GLOBAL_UNIT_ASSIGNED_CONTEXT ((#175, #177, #178))
   REPRESENTATION_CONTEXT ('', '3D')
);
#175 = (
   LENGTH_UNIT ()
   NAMED_UNIT (*)
   SI_UNIT (.MILLI., .METRE.)
);
#176 = UNCERTAINTY_MEASURE_WITH_UNIT(LENGTH_MEASURE(1.E-6), #175, 'DISTANCE_ACCURACY_VALUE', '');
#177 = (
   NAMED_UNIT (*)
   SI_UNIT ($, .STERADIAN.)
   SOLID_ANGLE_UNIT ()
);
#178 = (
   NAMED_UNIT (*)
   PLANE_ANGLE_UNIT ()
   SI_UNIT ($, .RADIAN.)
);
#179 = SHAPE_REPRESENTATION('', (#194), #174);
#180 = PRODUCT_DEFINITION_SHAPE('', '', #181);
#181 = PRODUCT_DEFINITION('', '', #184, #188);
#182 = APPLICATION_CONTEXT('configuration controlled 3D designs of mechanical parts and assemblies');
#183 = APPLICATION_PROTOCOL_DEFINITION('International Standard', 'automotive_design', 2002, #182);
#184 = PRODUCT_DEFINITION_FORMATION_WITH_SPECIFIED_SOURCE('', '', #185, .NOT_KNOWN.);
#185 = PRODUCT('MultiUpdate', 'MultiUpdate', '', (#186));
#186 = PRODUCT_CONTEXT('', #182, 'mechanical');
#187 = PRODUCT_RELATED_PRODUCT_CATEGORY('detail', '', (#185));
#188 = PRODUCT_DEFINITION_CONTEXT('part definition', #182, 'design');
#189 = SHAPE_DEFINITION_REPRESENTATION(#180, #179);
#190 = SHAPE_REPRESENTATION_RELATIONSHIP('', '', #179, #191);
#191 = SHAPE_REPRESENTATION('', (#173), #174);
#192 = SHAPE_REPRESENTATION_RELATIONSHIP('', '', #179, #193);
#193 = ADVANCED_BREP_SHAPE_REPRESENTATION('', (#1), #174);
#194 = AXIS2_PLACEMENT_3D('', #195, #196, #197);
#195 = CARTESIAN_POINT('', (0., 0., 0.));
#196 = DIRECTION('', (0., 0., 1.));
#197 = DIRECTION('', (1., 0., 0.));
ENDSEC;
END-ISO-10303-21;
