ISO-10303-21;
HEADER;
FILE_DESCRIPTION(('STEP'), '1');
FILE_NAME('ExprAutoRecalc', '2026-04-18T00:16:55', (''), (''), 'Express 3.1.2.0', 'Express Tool', 'Unknown');
FILE_SCHEMA(('AUTOMOTIVE_DESIGN'));
ENDSEC;

DATA;
#1 = MANIFOLD_SOLID_BREP('Revolve_0', #2);
#2 = CLOSED_SHELL('', (#3, #39, #73, #104, #129, #151));
#3 = ADVANCED_FACE('', (#4), #34, .T.);
#4 = FACE_OUTER_BOUND('', #5, .T.);
#5 = EDGE_LOOP('', (#6, #15, #22, #29));
#6 = ORIENTED_EDGE('', *, *, #7, .F.);
#7 = EDGE_CURVE('', #8, #10, #12, .T.);
#8 = VERTEX_POINT('', #9);
#9 = CARTESIAN_POINT('', (-19.9999999999296, 30., -5.30717958581728E-5));
#10 = VERTEX_POINT('', #11);
#11 = CARTESIAN_POINT('', (-19.9999999999296, 0., -5.30717958581728E-5));
#12 = B_SPLINE_CURVE_WITH_KNOTS('', 1, (#13, #14), .UNSPECIFIED., .F., .U., (2, 2), (0., 1.), .UNSPECIFIED.);
#13 = CARTESIAN_POINT('', (-19.9999999999296, 30., -5.30717958581728E-5));
#14 = CARTESIAN_POINT('', (-19.9999999999296, 0., -5.30717958581728E-5));
#15 = ORIENTED_EDGE('', *, *, #16, .F.);
#16 = EDGE_CURVE('', #17, #8, #19, .T.);
#17 = VERTEX_POINT('', #18);
#18 = CARTESIAN_POINT('', (-39.9999999998592, 30., -0.000106143591716346));
#19 = B_SPLINE_CURVE_WITH_KNOTS('', 1, (#20, #21), .UNSPECIFIED., .F., .U., (2, 2), (0., 1.), .UNSPECIFIED.);
#20 = CARTESIAN_POINT('', (-39.9999999998592, 30., -0.000106143591716346));
#21 = CARTESIAN_POINT('', (-19.9999999999296, 30., -5.30717958581728E-5));
#22 = ORIENTED_EDGE('', *, *, #23, .F.);
#23 = EDGE_CURVE('', #24, #17, #26, .T.);
#24 = VERTEX_POINT('', #25);
#25 = CARTESIAN_POINT('', (-39.9999999998592, 0., -0.000106143591716346));
#26 = B_SPLINE_CURVE_WITH_KNOTS('', 1, (#27, #28), .UNSPECIFIED., .F., .U., (2, 2), (0., 1.), .UNSPECIFIED.);
#27 = CARTESIAN_POINT('', (-39.9999999998592, 0., -0.000106143591716346));
#28 = CARTESIAN_POINT('', (-39.9999999998592, 30., -0.000106143591716346));
#29 = ORIENTED_EDGE('', *, *, #30, .F.);
#30 = EDGE_CURVE('', #10, #24, #31, .T.);
#31 = B_SPLINE_CURVE_WITH_KNOTS('', 1, (#32, #33), .UNSPECIFIED., .F., .U., (2, 2), (0., 1.), .UNSPECIFIED.);
#32 = CARTESIAN_POINT('', (-19.9999999999296, 0., -5.30717958581728E-5));
#33 = CARTESIAN_POINT('', (-39.9999999998592, 0., -0.000106143591716346));
#34 = B_SPLINE_SURFACE_WITH_KNOTS('', 1, 1, ((#35, #36), (#37, #38)), .UNSPECIFIED., .F., .F., .U., (2, 2), (2, 2), (0., 1.), (0., 1.), .UNSPECIFIED.);
#35 = CARTESIAN_POINT('', (-49.8305320148765, -4.83053201505194, -0.000132229791130349));
#36 = CARTESIAN_POINT('', (-49.8305320148765, 34.8305320150519, -0.000132229791130349));
#37 = CARTESIAN_POINT('', (-10.1694679849123, -4.83053201505194, -2.69855964441694E-5));
#38 = CARTESIAN_POINT('', (-10.1694679849123, 34.8305320150519, -2.69855964441694E-5));
#39 = ADVANCED_FACE('', (#40), #68, .T.);
#40 = FACE_OUTER_BOUND('', #41, .T.);
#41 = EDGE_LOOP('', (#42, #51, #59, #60));
#42 = ORIENTED_EDGE('', *, *, #43, .F.);
#43 = EDGE_CURVE('', #44, #46, #48, .T.);
#44 = VERTEX_POINT('', #45);
#45 = CARTESIAN_POINT('', (40., 30., 0.));
#46 = VERTEX_POINT('', #47);
#47 = CARTESIAN_POINT('', (20., 30., 0.));
#48 = B_SPLINE_CURVE_WITH_KNOTS('', 1, (#49, #50), .UNSPECIFIED., .F., .U., (2, 2), (0., 1.), .UNSPECIFIED.);
#49 = CARTESIAN_POINT('', (40., 30., 0.));
#50 = CARTESIAN_POINT('', (20., 30., 0.));
#51 = ORIENTED_EDGE('', *, *, #52, .T.);
#52 = EDGE_CURVE('', #44, #17, #53, .T.);
#53 = (
   BOUNDED_CURVE ()
   B_SPLINE_CURVE (2, (#54, #55, #56, #57, #58), .UNSPECIFIED., .F., .U.)
   B_SPLINE_CURVE_WITH_KNOTS ((3, 2, 3), (0., 62.8318, 125.663600000454), .UNSPECIFIED.)
   CURVE ()
   GEOMETRIC_REPRESENTATION_ITEM ()
   RATIONAL_B_SPLINE_CURVE ((1., 0.707107250279226, 1., 0.707107250279226, 1.))
   REPRESENTATION_ITEM ('')
);
#54 = CARTESIAN_POINT('', (40., 30., 2.56379794196829E-30));
#55 = CARTESIAN_POINT('', (40., 30., -39.9999469282393));
#56 = CARTESIAN_POINT('', (5.3071795845785E-5, 30., -39.9999999999648));
#57 = CARTESIAN_POINT('', (-39.9998938564083, 30., -40.0000530716902));
#58 = CARTESIAN_POINT('', (-39.9999999998592, 30., -0.000106143591719898));
#59 = ORIENTED_EDGE('', *, *, #16, .T.);
#60 = ORIENTED_EDGE('', *, *, #61, .F.);
#61 = EDGE_CURVE('', #46, #8, #62, .T.);
#62 = (
   BOUNDED_CURVE ()
   B_SPLINE_CURVE (2, (#63, #64, #65, #66, #67), .UNSPECIFIED., .F., .U.)
   B_SPLINE_CURVE_WITH_KNOTS ((3, 2, 3), (0., 31.4159, 62.8318000002272), .UNSPECIFIED.)
   CURVE ()
   GEOMETRIC_REPRESENTATION_ITEM ()
   RATIONAL_B_SPLINE_CURVE ((1., 0.707107250279226, 1., 0.707107250279226, 1.))
   REPRESENTATION_ITEM ('')
);
#63 = CARTESIAN_POINT('', (20., 30., 1.28189897098414E-30));
#64 = CARTESIAN_POINT('', (20., 30., -19.9999734641197));
#65 = CARTESIAN_POINT('', (2.65358979228925E-5, 30., -19.9999999999824));
#66 = CARTESIAN_POINT('', (-19.9999469282041, 30., -20.0000265358451));
#67 = CARTESIAN_POINT('', (-19.9999999999296, 30., -5.30717958599492E-5));
#68 = B_SPLINE_SURFACE_WITH_KNOTS('', 1, 1, ((#69, #70), (#71, #72)), .UNSPECIFIED., .F., .F., .U., (2, 2), (2, 2), (0., 1.), (0., 1.), .UNSPECIFIED.);
#69 = CARTESIAN_POINT('', (-44., 30., 44.));
#70 = CARTESIAN_POINT('', (-44., 30., -44.));
#71 = CARTESIAN_POINT('', (44., 30., 44.));
#72 = CARTESIAN_POINT('', (44., 30., -44.));
#73 = ADVANCED_FACE('', (#74), #93, .T.);
#74 = FACE_OUTER_BOUND('', #75, .T.);
#75 = EDGE_LOOP('', (#76, #83, #91, #92));
#76 = ORIENTED_EDGE('', *, *, #77, .F.);
#77 = EDGE_CURVE('', #78, #44, #80, .T.);
#78 = VERTEX_POINT('', #79);
#79 = CARTESIAN_POINT('', (40., 0., 0.));
#80 = B_SPLINE_CURVE_WITH_KNOTS('', 1, (#81, #82), .UNSPECIFIED., .F., .U., (2, 2), (0., 1.), .UNSPECIFIED.);
#81 = CARTESIAN_POINT('', (40., 0., 0.));
#82 = CARTESIAN_POINT('', (40., 30., 0.));
#83 = ORIENTED_EDGE('', *, *, #84, .T.);
#84 = EDGE_CURVE('', #78, #24, #85, .T.);
#85 = (
   BOUNDED_CURVE ()
   B_SPLINE_CURVE (2, (#86, #87, #88, #89, #90), .UNSPECIFIED., .F., .U.)
   B_SPLINE_CURVE_WITH_KNOTS ((3, 2, 3), (0., 0.5, 1.), .UNSPECIFIED.)
   CURVE ()
   GEOMETRIC_REPRESENTATION_ITEM ()
   RATIONAL_B_SPLINE_CURVE ((1., 0.707107250279226, 1., 0.707107250279226, 1.))
   REPRESENTATION_ITEM ('')
);
#86 = CARTESIAN_POINT('', (40., 0., 0.));
#87 = CARTESIAN_POINT('', (40., 0., -39.9999469282393));
#88 = CARTESIAN_POINT('', (5.30717958582195E-5, 0., -39.9999999999648));
#89 = CARTESIAN_POINT('', (-39.9998938564083, 0., -40.0000530716902));
#90 = CARTESIAN_POINT('', (-39.9999999998592, 0., -0.000106143591716346));
#91 = ORIENTED_EDGE('', *, *, #23, .T.);
#92 = ORIENTED_EDGE('', *, *, #52, .F.);
#93 = (
   BOUNDED_SURFACE ()
   B_SPLINE_SURFACE (2, 1, ((#94, #95), (#96, #97), (#98, #99), (#100, #101), (#102, #103)), .UNSPECIFIED., .F., .F., .U.)
   B_SPLINE_SURFACE_WITH_KNOTS ((3, 2, 3), (2, 2), (0., 62.8318, 125.663600000454), (0., 1.), .UNSPECIFIED.)
   GEOMETRIC_REPRESENTATION_ITEM ()
   RATIONAL_B_SPLINE_SURFACE (((1., 1.), (0.707107250279226, 0.707107250279226), (1., 1.), (0.707107250279226, 0.707107250279226), (1., 1.)))
   REPRESENTATION_ITEM ('')
   SURFACE ()
);
#94 = CARTESIAN_POINT('', (40., 0., 2.56379794196829E-30));
#95 = CARTESIAN_POINT('', (40., 30., 2.56379794196829E-30));
#96 = CARTESIAN_POINT('', (40., 0., -39.9999469282393));
#97 = CARTESIAN_POINT('', (40., 30., -39.9999469282393));
#98 = CARTESIAN_POINT('', (5.3071795845785E-5, 0., -39.9999999999648));
#99 = CARTESIAN_POINT('', (5.3071795845785E-5, 30., -39.9999999999648));
#100 = CARTESIAN_POINT('', (-39.9998938564083, 0., -40.0000530716902));
#101 = CARTESIAN_POINT('', (-39.9998938564083, 30., -40.0000530716902));
#102 = CARTESIAN_POINT('', (-39.9999999998592, 0., -0.000106143591719898));
#103 = CARTESIAN_POINT('', (-39.9999999998592, 30., -0.000106143591719898));
#104 = ADVANCED_FACE('', (#105), #124, .T.);
#105 = FACE_OUTER_BOUND('', #106, .T.);
#106 = EDGE_LOOP('', (#107, #114, #122, #123));
#107 = ORIENTED_EDGE('', *, *, #108, .F.);
#108 = EDGE_CURVE('', #109, #78, #111, .T.);
#109 = VERTEX_POINT('', #110);
#110 = CARTESIAN_POINT('', (20., 0., 0.));
#111 = B_SPLINE_CURVE_WITH_KNOTS('', 1, (#112, #113), .UNSPECIFIED., .F., .U., (2, 2), (0., 1.), .UNSPECIFIED.);
#112 = CARTESIAN_POINT('', (20., 0., 0.));
#113 = CARTESIAN_POINT('', (40., 0., 0.));
#114 = ORIENTED_EDGE('', *, *, #115, .T.);
#115 = EDGE_CURVE('', #109, #10, #116, .T.);
#116 = (
   BOUNDED_CURVE ()
   B_SPLINE_CURVE (2, (#117, #118, #119, #120, #121), .UNSPECIFIED., .F., .U.)
   B_SPLINE_CURVE_WITH_KNOTS ((3, 2, 3), (0., 31.4159, 62.8318000002272), .UNSPECIFIED.)
   CURVE ()
   GEOMETRIC_REPRESENTATION_ITEM ()
   RATIONAL_B_SPLINE_CURVE ((1., 0.707107250279226, 1., 0.707107250279226, 1.))
   REPRESENTATION_ITEM ('')
);
#117 = CARTESIAN_POINT('', (20., 0., 1.28189897098414E-30));
#118 = CARTESIAN_POINT('', (20., 0., -19.9999734641197));
#119 = CARTESIAN_POINT('', (2.65358979228925E-5, 0., -19.9999999999824));
#120 = CARTESIAN_POINT('', (-19.9999469282041, 0., -20.0000265358451));
#121 = CARTESIAN_POINT('', (-19.9999999999296, 0., -5.30717958599492E-5));
#122 = ORIENTED_EDGE('', *, *, #30, .T.);
#123 = ORIENTED_EDGE('', *, *, #84, .F.);
#124 = B_SPLINE_SURFACE_WITH_KNOTS('', 1, 1, ((#125, #126), (#127, #128)), .UNSPECIFIED., .F., .F., .U., (2, 2), (2, 2), (0., 1.), (0., 1.), .UNSPECIFIED.);
#125 = CARTESIAN_POINT('', (-44., 0., 44.));
#126 = CARTESIAN_POINT('', (44., 0., 44.));
#127 = CARTESIAN_POINT('', (-44., 0., -44.));
#128 = CARTESIAN_POINT('', (44., 0., -44.));
#129 = ADVANCED_FACE('', (#130), #140, .T.);
#130 = FACE_OUTER_BOUND('', #131, .T.);
#131 = EDGE_LOOP('', (#132, #137, #138, #139));
#132 = ORIENTED_EDGE('', *, *, #133, .F.);
#133 = EDGE_CURVE('', #46, #109, #134, .T.);
#134 = B_SPLINE_CURVE_WITH_KNOTS('', 1, (#135, #136), .UNSPECIFIED., .F., .U., (2, 2), (0., 1.), .UNSPECIFIED.);
#135 = CARTESIAN_POINT('', (20., 30., 0.));
#136 = CARTESIAN_POINT('', (20., 0., 0.));
#137 = ORIENTED_EDGE('', *, *, #61, .T.);
#138 = ORIENTED_EDGE('', *, *, #7, .T.);
#139 = ORIENTED_EDGE('', *, *, #115, .F.);
#140 = (
   BOUNDED_SURFACE ()
   B_SPLINE_SURFACE (2, 1, ((#141, #142), (#143, #144), (#145, #146), (#147, #148), (#149, #150)), .UNSPECIFIED., .F., .F., .U.)
   B_SPLINE_SURFACE_WITH_KNOTS ((3, 2, 3), (2, 2), (0., 31.4159, 62.8318000002272), (0., 1.), .UNSPECIFIED.)
   GEOMETRIC_REPRESENTATION_ITEM ()
   RATIONAL_B_SPLINE_SURFACE (((1., 1.), (0.707107250279226, 0.707107250279226), (1., 1.), (0.707107250279226, 0.707107250279226), (1., 1.)))
   REPRESENTATION_ITEM ('')
   SURFACE ()
);
#141 = CARTESIAN_POINT('', (20., 30., 1.28189897098414E-30));
#142 = CARTESIAN_POINT('', (20., 0., 1.28189897098414E-30));
#143 = CARTESIAN_POINT('', (20., 30., -19.9999734641197));
#144 = CARTESIAN_POINT('', (20., 0., -19.9999734641197));
#145 = CARTESIAN_POINT('', (2.65358979228925E-5, 30., -19.9999999999824));
#146 = CARTESIAN_POINT('', (2.65358979228925E-5, 0., -19.9999999999824));
#147 = CARTESIAN_POINT('', (-19.9999469282041, 30., -20.0000265358451));
#148 = CARTESIAN_POINT('', (-19.9999469282041, 0., -20.0000265358451));
#149 = CARTESIAN_POINT('', (-19.9999999999296, 30., -5.30717958599492E-5));
#150 = CARTESIAN_POINT('', (-19.9999999999296, 0., -5.30717958599492E-5));
#151 = ADVANCED_FACE('', (#152), #158, .T.);
#152 = FACE_OUTER_BOUND('', #153, .T.);
#153 = EDGE_LOOP('', (#154, #155, #156, #157));
#154 = ORIENTED_EDGE('', *, *, #133, .T.);
#155 = ORIENTED_EDGE('', *, *, #108, .T.);
#156 = ORIENTED_EDGE('', *, *, #77, .T.);
#157 = ORIENTED_EDGE('', *, *, #43, .T.);
#158 = B_SPLINE_SURFACE_WITH_KNOTS('', 1, 1, ((#159, #160), (#161, #162)), .UNSPECIFIED., .F., .F., .U., (2, 2), (2, 2), (0., 1.), (0., 1.), .UNSPECIFIED.);
#159 = CARTESIAN_POINT('', (49.8305320150519, -4.83053201505194, 0.));
#160 = CARTESIAN_POINT('', (10.1694679849481, -4.83053201505194, 0.));
#161 = CARTESIAN_POINT('', (49.8305320150519, 34.8305320150519, 0.));
#162 = CARTESIAN_POINT('', (10.1694679849481, 34.8305320150519, 0.));
#163 = DRAUGHTING_MODEL('', (#171), #174);
#164 = PRESENTATION_STYLE_ASSIGNMENT((#165));
#165 = SURFACE_STYLE_USAGE(.POSITIVE., #166);
#166 = SURFACE_SIDE_STYLE('', (#167));
#167 = SURFACE_STYLE_FILL_AREA(#168);
#168 = FILL_AREA_STYLE('', (#169));
#169 = FILL_AREA_STYLE_COLOUR('', #170);
#170 = COLOUR_RGB('', 0.50196078431373, 0.50196078431373, 0.50196078431373);
#171 = STYLED_ITEM('', (#164), #1);
#172 = CARTESIAN_POINT('Origin', (0., 0., 0.));
#173 = GEOMETRIC_SET('', (#172));
#174 = (
   GEOMETRIC_REPRESENTATION_CONTEXT (3)
   GLOBAL_UNCERTAINTY_ASSIGNED_CONTEXT ((#176))
   GLOBAL_UNIT_ASSIGNED_CONTEXT ((#175, #177, #178))
   REPRESENTATION_CONTEXT ('', '3D')
);
#175 = (
   LENGTH_UNIT ()
   NAMED_UNIT (*)
   SI_UNIT (.MILLI., .METRE.)
);
#176 = UNCERTAINTY_MEASURE_WITH_UNIT(LENGTH_MEASURE(1.E-6), #175, 'DISTANCE_ACCURACY_VALUE', '');
#177 = (
   NAMED_UNIT (*)
   SI_UNIT ($, .STERADIAN.)
   SOLID_ANGLE_UNIT ()
);
#178 = (
   NAMED_UNIT (*)
   PLANE_ANGLE_UNIT ()
   SI_UNIT ($, .RADIAN.)
);
#179 = SHAPE_REPRESENTATION('', (#194), #174);
#180 = PRODUCT_DEFINITION_SHAPE('', '', #181);
#181 = PRODUCT_DEFINITION('', '', #184, #188);
#182 = APPLICATION_CONTEXT('configuration controlled 3D designs of mechanical parts and assemblies');
#183 = APPLICATION_PROTOCOL_DEFINITION('International Standard', 'automotive_design', 2002, #182);
#184 = PRODUCT_DEFINITION_FORMATION_WITH_SPECIFIED_SOURCE('', '', #185, .NOT_KNOWN.);
#185 = PRODUCT('ExprAutoRecalc', 'ExprAutoRecalc', '', (#186));
#186 = PRODUCT_CONTEXT('', #182, 'mechanical');
#187 = PRODUCT_RELATED_PRODUCT_CATEGORY('detail', '', (#185));
#188 = PRODUCT_DEFINITION_CONTEXT('part definition', #182, 'design');
#189 = SHAPE_DEFINITION_REPRESENTATION(#180, #179);
#190 = SHAPE_REPRESENTATION_RELATIONSHIP('', '', #179, #191);
#191 = SHAPE_REPRESENTATION('', (#173), #174);
#192 = SHAPE_REPRESENTATION_RELATIONSHIP('', '', #179, #193);
#193 = ADVANCED_BREP_SHAPE_REPRESENTATION('', (#1), #174);
#194 = AXIS2_PLACEMENT_3D('', #195, #196, #197);
#195 = CARTESIAN_POINT('', (0., 0., 0.));
#196 = DIRECTION('', (0., 0., 1.));
#197 = DIRECTION('', (1., 0., 0.));
ENDSEC;
END-ISO-10303-21;
