ISO-10303-21;
HEADER;
FILE_DESCRIPTION(('STEP'), '1');
FILE_NAME('AllParams', '2026-04-18T00:17:25', (''), (''), 'Express 3.1.2.0', 'Express Tool', 'Unknown');
FILE_SCHEMA(('AUTOMOTIVE_DESIGN'));
ENDSEC;

DATA;
#1 = MANIFOLD_SOLID_BREP('Original_0', #2);
#2 = CLOSED_SHELL('', (#3, #25, #98));
#3 = ADVANCED_FACE('', (#4), #20, .T.);
#4 = FACE_OUTER_BOUND('', #5, .T.);
#5 = EDGE_LOOP('', (#6));
#6 = ORIENTED_EDGE('', *, *, #7, .F.);
#7 = EDGE_CURVE('', #8, #8, #10, .T.);
#8 = VERTEX_POINT('', #9);
#9 = CARTESIAN_POINT('', (30., -23., -7.14532365996257E-17));
#10 = (
   BOUNDED_CURVE ()
   B_SPLINE_CURVE (2, (#11, #12, #13, #14, #15, #16, #17, #18, #19), .UNSPECIFIED., .T., .U.)
   B_SPLINE_CURVE_WITH_KNOTS ((3, 2, 2, 2, 3), (0., 0.25, 0.5, 0.75, 1.), .UNSPECIFIED.)
   CURVE ()
   GEOMETRIC_REPRESENTATION_ITEM ()
   RATIONAL_B_SPLINE_CURVE ((1., 0.707106781186548, 1., 0.707106781186548, 1., 0.707106781186548, 1., 0.707106781186548, 1.))
   REPRESENTATION_ITEM ('')
);
#11 = CARTESIAN_POINT('', (30., -23., -7.14532365996257E-17));
#12 = CARTESIAN_POINT('', (22., -23., -1.60982338570648E-15));
#13 = CARTESIAN_POINT('', (22., -15., -3.96549101302989E-16));
#14 = CARTESIAN_POINT('', (22., -7., -2.18059083582939E-16));
#15 = CARTESIAN_POINT('', (30., -7., 1.07036781120424E-16));
#16 = CARTESIAN_POINT('', (38., -7., 4.75401085470739E-17));
#17 = CARTESIAN_POINT('', (38., -15., -5.15542446449688E-16));
#18 = CARTESIAN_POINT('', (38., -23., -1.60982338570648E-15));
#19 = CARTESIAN_POINT('', (30., -23., -7.14532365996257E-17));
#20 = B_SPLINE_SURFACE_WITH_KNOTS('', 1, 1, ((#21, #22), (#23, #24)), .UNSPECIFIED., .F., .F., .U., (2, 2), (2, 2), (0., 1.), (0., 1.), .UNSPECIFIED.);
#21 = CARTESIAN_POINT('', (42.4450793488832, -2.55492065111676, -1.02778152974111E-17));
#22 = CARTESIAN_POINT('', (42.4450793488832, -27.4450793488832, -2.74415636734478E-17));
#23 = CARTESIAN_POINT('', (17.5549206511168, -2.55492065111676, -1.02778152974111E-17));
#24 = CARTESIAN_POINT('', (17.5549206511168, -27.4450793488832, -2.74415636734478E-17));
#25 = ADVANCED_FACE('', (#26), #52, .T.);
#26 = FACE_OUTER_BOUND('', #27, .T.);
#27 = EDGE_LOOP('', (#28, #42, #50, #51));
#28 = ORIENTED_EDGE('', *, *, #29, .F.);
#29 = EDGE_CURVE('', #30, #30, #32, .T.);
#30 = VERTEX_POINT('', #31);
#31 = CARTESIAN_POINT('', (30., 19.9185842870421, -11.5));
#32 = (
   BOUNDED_CURVE ()
   B_SPLINE_CURVE (2, (#33, #34, #35, #36, #37, #38, #39, #40, #41), .UNSPECIFIED., .T., .U.)
   B_SPLINE_CURVE_WITH_KNOTS ((3, 2, 2, 2, 3), (0., 0.25, 0.5, 0.75, 1.), .UNSPECIFIED.)
   CURVE ()
   GEOMETRIC_REPRESENTATION_ITEM ()
   RATIONAL_B_SPLINE_CURVE ((1., 0.707106781186548, 1., 0.707106781186548, 1., 0.707106781186548, 1., 0.707106781186548, 1.))
   REPRESENTATION_ITEM ('')
);
#33 = CARTESIAN_POINT('', (30., 19.9185842870421, -11.5));
#34 = CARTESIAN_POINT('', (22., 19.9185842870421, -11.5));
#35 = CARTESIAN_POINT('', (22., 12.9903810567666, -7.5));
#36 = CARTESIAN_POINT('', (22., 6.06217782649107, -3.5));
#37 = CARTESIAN_POINT('', (30., 6.06217782649107, -3.5));
#38 = CARTESIAN_POINT('', (38., 6.06217782649107, -3.5));
#39 = CARTESIAN_POINT('', (38., 12.9903810567666, -7.5));
#40 = CARTESIAN_POINT('', (38., 19.9185842870421, -11.5));
#41 = CARTESIAN_POINT('', (30., 19.9185842870421, -11.5));
#42 = ORIENTED_EDGE('', *, *, #43, .T.);
#43 = EDGE_CURVE('', #30, #8, #44, .T.);
#44 = (
   BOUNDED_CURVE ()
   B_SPLINE_CURVE (2, (#45, #46, #47, #48, #49), .UNSPECIFIED., .F., .U.)
   B_SPLINE_CURVE_WITH_KNOTS ((3, 2, 3), (0., 0.5, 1.), .UNSPECIFIED.)
   CURVE ()
   GEOMETRIC_REPRESENTATION_ITEM ()
   RATIONAL_B_SPLINE_CURVE ((1., 0.793353340291235, 1., 0.793353340291235, 1.))
   REPRESENTATION_ITEM ('')
);
#45 = CARTESIAN_POINT('', (30., 19.9185842870421, -11.5));
#46 = CARTESIAN_POINT('', (30., 11.0943239252841, -26.784067285781));
#47 = CARTESIAN_POINT('', (30., -5.95283803735797, -22.2162940046486));
#48 = CARTESIAN_POINT('', (30., -23., -17.6485207235161));
#49 = CARTESIAN_POINT('', (30., -23., -6.46292052332043E-15));
#50 = ORIENTED_EDGE('', *, *, #7, .T.);
#51 = ORIENTED_EDGE('', *, *, #43, .F.);
#52 = (
   BOUNDED_SURFACE ()
   B_SPLINE_SURFACE (2, 2, ((#53, #54, #55, #56, #57, #58, #59, #60, #61), (#62, #63, #64, #65, #66, #67, #68, #69, #70), (#71, #72, #73, #74, #75, #76, #77, #78, #79), (#80, #81, #82, #83, #84, #85, #86, #87, #88), (#89, #90, #91, #92, #93, #94, #95, #96, #97)), .UNSPECIFIED., .F., .T., .U.)
   B_SPLINE_SURFACE_WITH_KNOTS ((3, 2, 3), (3, 2, 2, 2, 3), (0., 0.5, 1.), (0., 0.25, 0.5, 0.75, 1.), .UNSPECIFIED.)
   GEOMETRIC_REPRESENTATION_ITEM ()
   RATIONAL_B_SPLINE_SURFACE (((1., 0.707106781186548, 1., 0.707106781186548, 1., 0.707106781186548, 1., 0.707106781186548, 1.), (0.793353340291235, 0.560985526796931, 0.793353340291235, 0.560985526796931, 0.793353340291235, 0.560985526796931, 0.793353340291235, 0.560985526796931, 0.793353340291235), (1., 0.707106781186548, 1., 0.707106781186548, 1., 0.707106781186548, 1., 0.707106781186548, 1.), (0.793353340291235, 0.560985526796931, 0.793353340291235, 0.560985526796931, 0.793353340291235, 0.560985526796931, 0.793353340291235, 0.560985526796931, 0.793353340291235), (1., 0.707106781186548, 1., 0.707106781186548, 1., 0.707106781186548, 1., 0.707106781186548, 1.)))
   REPRESENTATION_ITEM ('')
   SURFACE ()
);
#53 = CARTESIAN_POINT('', (30., 19.9185842870421, -11.5));
#54 = CARTESIAN_POINT('', (22., 19.9185842870421, -11.5));
#55 = CARTESIAN_POINT('', (22., 12.9903810567666, -7.5));
#56 = CARTESIAN_POINT('', (22., 6.06217782649107, -3.5));
#57 = CARTESIAN_POINT('', (30., 6.06217782649107, -3.5));
#58 = CARTESIAN_POINT('', (38., 6.06217782649107, -3.5));
#59 = CARTESIAN_POINT('', (38., 12.9903810567666, -7.5));
#60 = CARTESIAN_POINT('', (38., 19.9185842870421, -11.5));
#61 = CARTESIAN_POINT('', (30., 19.9185842870421, -11.5));
#62 = CARTESIAN_POINT('', (30., 11.0943239252841, -26.784067285781));
#63 = CARTESIAN_POINT('', (22., 11.0943239252841, -26.784067285781));
#64 = CARTESIAN_POINT('', (22., 7.23542864692438, -17.4678699689876));
#65 = CARTESIAN_POINT('', (22., 3.37653336856471, -8.15167265219423));
#66 = CARTESIAN_POINT('', (30., 3.37653336856471, -8.15167265219423));
#67 = CARTESIAN_POINT('', (38., 3.37653336856471, -8.15167265219423));
#68 = CARTESIAN_POINT('', (38., 7.23542864692438, -17.4678699689876));
#69 = CARTESIAN_POINT('', (38., 11.0943239252841, -26.784067285781));
#70 = CARTESIAN_POINT('', (30., 11.0943239252841, -26.784067285781));
#71 = CARTESIAN_POINT('', (30., -5.95283803735797, -22.2162940046486));
#72 = CARTESIAN_POINT('', (22., -5.95283803735797, -22.2162940046486));
#73 = CARTESIAN_POINT('', (22., -3.88228567653781, -14.488887394336));
#74 = CARTESIAN_POINT('', (22., -1.81173331571765, -6.76148078402348));
#75 = CARTESIAN_POINT('', (30., -1.81173331571765, -6.76148078402348));
#76 = CARTESIAN_POINT('', (38., -1.81173331571765, -6.76148078402348));
#77 = CARTESIAN_POINT('', (38., -3.88228567653781, -14.488887394336));
#78 = CARTESIAN_POINT('', (38., -5.95283803735797, -22.2162940046486));
#79 = CARTESIAN_POINT('', (30., -5.95283803735797, -22.2162940046486));
#80 = CARTESIAN_POINT('', (30., -23., -17.6485207235161));
#81 = CARTESIAN_POINT('', (22., -23., -17.6485207235161));
#82 = CARTESIAN_POINT('', (22., -15., -11.5099048196844));
#83 = CARTESIAN_POINT('', (22., -7., -5.37128891585272));
#84 = CARTESIAN_POINT('', (30., -7., -5.37128891585272));
#85 = CARTESIAN_POINT('', (38., -7., -5.37128891585272));
#86 = CARTESIAN_POINT('', (38., -15., -11.5099048196844));
#87 = CARTESIAN_POINT('', (38., -23., -17.6485207235161));
#88 = CARTESIAN_POINT('', (30., -23., -17.6485207235161));
#89 = CARTESIAN_POINT('', (30., -23., -6.46292052332043E-15));
#90 = CARTESIAN_POINT('', (22., -23., -6.46292052332043E-15));
#91 = CARTESIAN_POINT('', (22., -15., -2.58511097981657E-15));
#92 = CARTESIAN_POINT('', (22., -7., 2.85526798840473E-16));
#93 = CARTESIAN_POINT('', (30., -7., 1.0547118733939E-15));
#94 = CARTESIAN_POINT('', (38., -7., 9.95215200820549E-16));
#95 = CARTESIAN_POINT('', (38., -15., -2.70410432496327E-15));
#96 = CARTESIAN_POINT('', (38., -23., -6.46292052332043E-15));
#97 = CARTESIAN_POINT('', (30., -23., -6.46292052332043E-15));
#98 = ADVANCED_FACE('', (#99), #102, .T.);
#99 = FACE_OUTER_BOUND('', #100, .T.);
#100 = EDGE_LOOP('', (#101));
#101 = ORIENTED_EDGE('', *, *, #29, .T.);
#102 = B_SPLINE_SURFACE_WITH_KNOTS('', 1, 1, ((#103, #104), (#105, #106)), .UNSPECIFIED., .F., .F., .U., (2, 2), (2, 2), (0., 1.), (0., 1.), .UNSPECIFIED.);
#103 = CARTESIAN_POINT('', (42.4450793488832, 2.21262618852059, -1.27746032555838));
#104 = CARTESIAN_POINT('', (17.5549206511168, 2.21262618852059, -1.27746032555838));
#105 = CARTESIAN_POINT('', (42.4450793488832, 23.7681359250126, -13.7225396744416));
#106 = CARTESIAN_POINT('', (17.5549206511168, 23.7681359250126, -13.7225396744416));
#107 = DRAUGHTING_MODEL('', (#115), #118);
#108 = PRESENTATION_STYLE_ASSIGNMENT((#109));
#109 = SURFACE_STYLE_USAGE(.POSITIVE., #110);
#110 = SURFACE_SIDE_STYLE('', (#111));
#111 = SURFACE_STYLE_FILL_AREA(#112);
#112 = FILL_AREA_STYLE('', (#113));
#113 = FILL_AREA_STYLE_COLOUR('', #114);
#114 = COLOUR_RGB('', 0.50196078431373, 0.50196078431373, 0.50196078431373);
#115 = STYLED_ITEM('', (#108), #1);
#116 = CARTESIAN_POINT('Origin', (0., 0., 0.));
#117 = GEOMETRIC_SET('', (#116));
#118 = (
   GEOMETRIC_REPRESENTATION_CONTEXT (3)
   GLOBAL_UNCERTAINTY_ASSIGNED_CONTEXT ((#120))
   GLOBAL_UNIT_ASSIGNED_CONTEXT ((#119, #121, #122))
   REPRESENTATION_CONTEXT ('', '3D')
);
#119 = (
   LENGTH_UNIT ()
   NAMED_UNIT (*)
   SI_UNIT (.MILLI., .METRE.)
);
#120 = UNCERTAINTY_MEASURE_WITH_UNIT(LENGTH_MEASURE(1.E-6), #119, 'DISTANCE_ACCURACY_VALUE', '');
#121 = (
   NAMED_UNIT (*)
   SI_UNIT ($, .STERADIAN.)
   SOLID_ANGLE_UNIT ()
);
#122 = (
   NAMED_UNIT (*)
   PLANE_ANGLE_UNIT ()
   SI_UNIT ($, .RADIAN.)
);
#123 = SHAPE_REPRESENTATION('', (#138), #118);
#124 = PRODUCT_DEFINITION_SHAPE('', '', #125);
#125 = PRODUCT_DEFINITION('', '', #128, #132);
#126 = APPLICATION_CONTEXT('configuration controlled 3D designs of mechanical parts and assemblies');
#127 = APPLICATION_PROTOCOL_DEFINITION('International Standard', 'automotive_design', 2002, #126);
#128 = PRODUCT_DEFINITION_FORMATION_WITH_SPECIFIED_SOURCE('', '', #129, .NOT_KNOWN.);
#129 = PRODUCT('AllParams', 'AllParams', '', (#130));
#130 = PRODUCT_CONTEXT('', #126, 'mechanical');
#131 = PRODUCT_RELATED_PRODUCT_CATEGORY('detail', '', (#129));
#132 = PRODUCT_DEFINITION_CONTEXT('part definition', #126, 'design');
#133 = SHAPE_DEFINITION_REPRESENTATION(#124, #123);
#134 = SHAPE_REPRESENTATION_RELATIONSHIP('', '', #123, #135);
#135 = SHAPE_REPRESENTATION('', (#117), #118);
#136 = SHAPE_REPRESENTATION_RELATIONSHIP('', '', #123, #137);
#137 = ADVANCED_BREP_SHAPE_REPRESENTATION('', (#1), #118);
#138 = AXIS2_PLACEMENT_3D('', #139, #140, #141);
#139 = CARTESIAN_POINT('', (0., 0., 0.));
#140 = DIRECTION('', (0., 0., 1.));
#141 = DIRECTION('', (1., 0., 0.));
ENDSEC;
END-ISO-10303-21;
