ISO-10303-21;
HEADER;
FILE_DESCRIPTION(('STEP'), '1');
FILE_NAME('ParamPersist', '2026-04-18T00:17:56', (''), (''), 'Express 3.1.2.0', 'Express Tool', 'Unknown');
FILE_SCHEMA(('AUTOMOTIVE_DESIGN'));
ENDSEC;

DATA;
#1 = MANIFOLD_SOLID_BREP('Revolve_0', #2);
#2 = CLOSED_SHELL('', (#3, #39, #77, #114, #141, #167));
#3 = ADVANCED_FACE('', (#4), #34, .T.);
#4 = FACE_OUTER_BOUND('', #5, .T.);
#5 = EDGE_LOOP('', (#6, #15, #22, #29));
#6 = ORIENTED_EDGE('', *, *, #7, .F.);
#7 = EDGE_CURVE('', #8, #10, #12, .T.);
#8 = VERTEX_POINT('', #9);
#9 = CARTESIAN_POINT('', (-5.32573686463567E-15, 30., 20.));
#10 = VERTEX_POINT('', #11);
#11 = CARTESIAN_POINT('', (-5.32573686463567E-15, 0., 20.));
#12 = B_SPLINE_CURVE_WITH_KNOTS('', 1, (#13, #14), .UNSPECIFIED., .F., .U., (2, 2), (0., 1.), .UNSPECIFIED.);
#13 = CARTESIAN_POINT('', (-5.32573686463567E-15, 30., 20.));
#14 = CARTESIAN_POINT('', (-5.32573686463567E-15, 0., 20.));
#15 = ORIENTED_EDGE('', *, *, #16, .F.);
#16 = EDGE_CURVE('', #17, #8, #19, .T.);
#17 = VERTEX_POINT('', #18);
#18 = CARTESIAN_POINT('', (-1.06514737292713E-14, 30., 40.));
#19 = B_SPLINE_CURVE_WITH_KNOTS('', 1, (#20, #21), .UNSPECIFIED., .F., .U., (2, 2), (0., 1.), .UNSPECIFIED.);
#20 = CARTESIAN_POINT('', (-1.06514737292713E-14, 30., 40.));
#21 = CARTESIAN_POINT('', (-5.32573686463567E-15, 30., 20.));
#22 = ORIENTED_EDGE('', *, *, #23, .F.);
#23 = EDGE_CURVE('', #24, #17, #26, .T.);
#24 = VERTEX_POINT('', #25);
#25 = CARTESIAN_POINT('', (-1.06514737292713E-14, 0., 40.));
#26 = B_SPLINE_CURVE_WITH_KNOTS('', 1, (#27, #28), .UNSPECIFIED., .F., .U., (2, 2), (0., 1.), .UNSPECIFIED.);
#27 = CARTESIAN_POINT('', (-1.06514737292713E-14, 0., 40.));
#28 = CARTESIAN_POINT('', (-1.06514737292713E-14, 30., 40.));
#29 = ORIENTED_EDGE('', *, *, #30, .F.);
#30 = EDGE_CURVE('', #10, #24, #31, .T.);
#31 = B_SPLINE_CURVE_WITH_KNOTS('', 1, (#32, #33), .UNSPECIFIED., .F., .U., (2, 2), (0., 1.), .UNSPECIFIED.);
#32 = CARTESIAN_POINT('', (-5.32573686463567E-15, 0., 20.));
#33 = CARTESIAN_POINT('', (-1.06514737292713E-14, 0., 40.));
#34 = B_SPLINE_SURFACE_WITH_KNOTS('', 1, 1, ((#35, #36), (#37, #38)), .UNSPECIFIED., .F., .F., .U., (2, 2), (2, 2), (0., 1.), (0., 1.), .UNSPECIFIED.);
#35 = CARTESIAN_POINT('', (-1.3446710701116E-14, -4.83053201505194, 49.8305320150519));
#36 = CARTESIAN_POINT('', (-1.3446710701116E-14, 34.8305320150519, 49.8305320150519));
#37 = CARTESIAN_POINT('', (-1.75007558411114E-15, -4.83053201505194, 10.1694679849481));
#38 = CARTESIAN_POINT('', (-1.75007558411114E-15, 34.8305320150519, 10.1694679849481));
#39 = ADVANCED_FACE('', (#40), #72, .T.);
#40 = FACE_OUTER_BOUND('', #41, .T.);
#41 = EDGE_LOOP('', (#42, #51, #61, #62));
#42 = ORIENTED_EDGE('', *, *, #43, .F.);
#43 = EDGE_CURVE('', #44, #46, #48, .T.);
#44 = VERTEX_POINT('', #45);
#45 = CARTESIAN_POINT('', (28.2842712474619, 30., -28.2842712474619));
#46 = VERTEX_POINT('', #47);
#47 = CARTESIAN_POINT('', (14.142135623731, 30., -14.1421356237309));
#48 = B_SPLINE_CURVE_WITH_KNOTS('', 1, (#49, #50), .UNSPECIFIED., .F., .U., (2, 2), (0., 1.), .UNSPECIFIED.);
#49 = CARTESIAN_POINT('', (28.2842712474619, 30., -28.2842712474619));
#50 = CARTESIAN_POINT('', (14.142135623731, 30., -14.1421356237309));
#51 = ORIENTED_EDGE('', *, *, #52, .T.);
#52 = EDGE_CURVE('', #44, #17, #53, .T.);
#53 = (
   BOUNDED_CURVE ()
   B_SPLINE_CURVE (2, (#54, #55, #56, #57, #58, #59, #60), .UNSPECIFIED., .F., .U.)
   B_SPLINE_CURVE_WITH_KNOTS ((3, 2, 2, 3), (0., 52.3598775598299, 104.71975511966, 157.07963267949), .UNSPECIFIED.)
   CURVE ()
   GEOMETRIC_REPRESENTATION_ITEM ()
   RATIONAL_B_SPLINE_CURVE ((1., 0.793353340291235, 1., 0.793353340291235, 1., 0.793353340291235, 1.))
   REPRESENTATION_ITEM ('')
);
#54 = CARTESIAN_POINT('', (28.2842712474619, 30., -28.2842712474619));
#55 = CARTESIAN_POINT('', (6.58098658396706, 30., -49.9875559109567));
#56 = CARTESIAN_POINT('', (-20., 30., -34.6410161513775));
#57 = CARTESIAN_POINT('', (-46.580986583967, 30., -19.2944763917983));
#58 = CARTESIAN_POINT('', (-38.6370330515627, 30., 10.3527618041008));
#59 = CARTESIAN_POINT('', (-30.6930795191584, 30., 40.));
#60 = CARTESIAN_POINT('', (-1.92284832758599E-14, 30., 40.));
#61 = ORIENTED_EDGE('', *, *, #16, .T.);
#62 = ORIENTED_EDGE('', *, *, #63, .F.);
#63 = EDGE_CURVE('', #46, #8, #64, .T.);
#64 = (
   BOUNDED_CURVE ()
   B_SPLINE_CURVE (2, (#65, #66, #67, #68, #69, #70, #71), .UNSPECIFIED., .F., .U.)
   B_SPLINE_CURVE_WITH_KNOTS ((3, 2, 2, 3), (0., 26.1799387799149, 52.3598775598299, 78.5398163397448), .UNSPECIFIED.)
   CURVE ()
   GEOMETRIC_REPRESENTATION_ITEM ()
   RATIONAL_B_SPLINE_CURVE ((1., 0.793353340291235, 1., 0.793353340291235, 1., 0.793353340291235, 1.))
   REPRESENTATION_ITEM ('')
);
#65 = CARTESIAN_POINT('', (14.142135623731, 30., -14.1421356237309));
#66 = CARTESIAN_POINT('', (3.29049329198353, 30., -24.9937779554784));
#67 = CARTESIAN_POINT('', (-10., 30., -17.3205080756888));
#68 = CARTESIAN_POINT('', (-23.2904932919835, 30., -9.64723819589917));
#69 = CARTESIAN_POINT('', (-19.3185165257814, 30., 5.17638090205041));
#70 = CARTESIAN_POINT('', (-15.3465397595792, 30., 20.));
#71 = CARTESIAN_POINT('', (-9.61424163792996E-15, 30., 20.));
#72 = B_SPLINE_SURFACE_WITH_KNOTS('', 1, 1, ((#73, #74), (#75, #76)), .UNSPECIFIED., .F., .F., .U., (2, 2), (2, 2), (0., 1.), (0., 1.), .UNSPECIFIED.);
#73 = CARTESIAN_POINT('', (-5.32907051820075E-15, 30., 62.2253967444162));
#74 = CARTESIAN_POINT('', (-62.2253967444162, 30., -6.66133814775094E-15));
#75 = CARTESIAN_POINT('', (62.2253967444162, 30., 6.66133814775094E-15));
#76 = CARTESIAN_POINT('', (5.32907051820075E-15, 30., -62.2253967444162));
#77 = ADVANCED_FACE('', (#78), #99, .T.);
#78 = FACE_OUTER_BOUND('', #79, .T.);
#79 = EDGE_LOOP('', (#80, #87, #97, #98));
#80 = ORIENTED_EDGE('', *, *, #81, .F.);
#81 = EDGE_CURVE('', #82, #44, #84, .T.);
#82 = VERTEX_POINT('', #83);
#83 = CARTESIAN_POINT('', (28.2842712474619, 0., -28.2842712474619));
#84 = B_SPLINE_CURVE_WITH_KNOTS('', 1, (#85, #86), .UNSPECIFIED., .F., .U., (2, 2), (0., 1.), .UNSPECIFIED.);
#85 = CARTESIAN_POINT('', (28.2842712474619, 0., -28.2842712474619));
#86 = CARTESIAN_POINT('', (28.2842712474619, 30., -28.2842712474619));
#87 = ORIENTED_EDGE('', *, *, #88, .T.);
#88 = EDGE_CURVE('', #82, #24, #89, .T.);
#89 = (
   BOUNDED_CURVE ()
   B_SPLINE_CURVE (2, (#90, #91, #92, #93, #94, #95, #96), .UNSPECIFIED., .F., .U.)
   B_SPLINE_CURVE_WITH_KNOTS ((3, 2, 2, 3), (0., 0.333333333333333, 0.666666666666667, 1.), .UNSPECIFIED.)
   CURVE ()
   GEOMETRIC_REPRESENTATION_ITEM ()
   RATIONAL_B_SPLINE_CURVE ((1., 0.793353340291235, 1., 0.793353340291235, 1., 0.793353340291235, 1.))
   REPRESENTATION_ITEM ('')
);
#90 = CARTESIAN_POINT('', (28.2842712474619, 0., -28.2842712474619));
#91 = CARTESIAN_POINT('', (6.58098658396705, 0., -49.9875559109568));
#92 = CARTESIAN_POINT('', (-20., 0., -34.6410161513775));
#93 = CARTESIAN_POINT('', (-46.5809865839671, 0., -19.2944763917983));
#94 = CARTESIAN_POINT('', (-38.6370330515627, 0., 10.3527618041008));
#95 = CARTESIAN_POINT('', (-30.6930795191584, 0., 40.));
#96 = CARTESIAN_POINT('', (-1.06514737292713E-14, 0., 40.));
#97 = ORIENTED_EDGE('', *, *, #23, .T.);
#98 = ORIENTED_EDGE('', *, *, #52, .F.);
#99 = (
   BOUNDED_SURFACE ()
   B_SPLINE_SURFACE (2, 1, ((#100, #101), (#102, #103), (#104, #105), (#106, #107), (#108, #109), (#110, #111), (#112, #113)), .UNSPECIFIED., .F., .F., .U.)
   B_SPLINE_SURFACE_WITH_KNOTS ((3, 2, 2, 3), (2, 2), (0., 52.3598775598299, 104.71975511966, 157.07963267949), (0., 1.), .UNSPECIFIED.)
   GEOMETRIC_REPRESENTATION_ITEM ()
   RATIONAL_B_SPLINE_SURFACE (((1., 1.), (0.793353340291235, 0.793353340291235), (1., 1.), (0.793353340291235, 0.793353340291235), (1., 1.), (0.793353340291235, 0.793353340291235), (1., 1.)))
   REPRESENTATION_ITEM ('')
   SURFACE ()
);
#100 = CARTESIAN_POINT('', (28.2842712474619, 0., -28.2842712474619));
#101 = CARTESIAN_POINT('', (28.2842712474619, 30., -28.2842712474619));
#102 = CARTESIAN_POINT('', (6.58098658396706, 0., -49.9875559109567));
#103 = CARTESIAN_POINT('', (6.58098658396706, 30., -49.9875559109567));
#104 = CARTESIAN_POINT('', (-20., 0., -34.6410161513775));
#105 = CARTESIAN_POINT('', (-20., 30., -34.6410161513775));
#106 = CARTESIAN_POINT('', (-46.580986583967, 0., -19.2944763917983));
#107 = CARTESIAN_POINT('', (-46.580986583967, 30., -19.2944763917983));
#108 = CARTESIAN_POINT('', (-38.6370330515627, 0., 10.3527618041008));
#109 = CARTESIAN_POINT('', (-38.6370330515627, 30., 10.3527618041008));
#110 = CARTESIAN_POINT('', (-30.6930795191584, 0., 40.));
#111 = CARTESIAN_POINT('', (-30.6930795191584, 30., 40.));
#112 = CARTESIAN_POINT('', (-1.92284832758599E-14, 0., 40.));
#113 = CARTESIAN_POINT('', (-1.92284832758599E-14, 30., 40.));
#114 = ADVANCED_FACE('', (#115), #136, .T.);
#115 = FACE_OUTER_BOUND('', #116, .T.);
#116 = EDGE_LOOP('', (#117, #124, #134, #135));
#117 = ORIENTED_EDGE('', *, *, #118, .F.);
#118 = EDGE_CURVE('', #119, #82, #121, .T.);
#119 = VERTEX_POINT('', #120);
#120 = CARTESIAN_POINT('', (14.142135623731, 0., -14.1421356237309));
#121 = B_SPLINE_CURVE_WITH_KNOTS('', 1, (#122, #123), .UNSPECIFIED., .F., .U., (2, 2), (0., 1.), .UNSPECIFIED.);
#122 = CARTESIAN_POINT('', (14.142135623731, 0., -14.1421356237309));
#123 = CARTESIAN_POINT('', (28.2842712474619, 0., -28.2842712474619));
#124 = ORIENTED_EDGE('', *, *, #125, .T.);
#125 = EDGE_CURVE('', #119, #10, #126, .T.);
#126 = (
   BOUNDED_CURVE ()
   B_SPLINE_CURVE (2, (#127, #128, #129, #130, #131, #132, #133), .UNSPECIFIED., .F., .U.)
   B_SPLINE_CURVE_WITH_KNOTS ((3, 2, 2, 3), (0., 26.1799387799149, 52.3598775598299, 78.5398163397448), .UNSPECIFIED.)
   CURVE ()
   GEOMETRIC_REPRESENTATION_ITEM ()
   RATIONAL_B_SPLINE_CURVE ((1., 0.793353340291235, 1., 0.793353340291235, 1., 0.793353340291235, 1.))
   REPRESENTATION_ITEM ('')
);
#127 = CARTESIAN_POINT('', (14.142135623731, 0., -14.1421356237309));
#128 = CARTESIAN_POINT('', (3.29049329198353, 0., -24.9937779554784));
#129 = CARTESIAN_POINT('', (-10., 0., -17.3205080756888));
#130 = CARTESIAN_POINT('', (-23.2904932919835, 0., -9.64723819589917));
#131 = CARTESIAN_POINT('', (-19.3185165257814, 0., 5.17638090205041));
#132 = CARTESIAN_POINT('', (-15.3465397595792, 0., 20.));
#133 = CARTESIAN_POINT('', (-9.61424163792996E-15, 0., 20.));
#134 = ORIENTED_EDGE('', *, *, #30, .T.);
#135 = ORIENTED_EDGE('', *, *, #88, .F.);
#136 = B_SPLINE_SURFACE_WITH_KNOTS('', 1, 1, ((#137, #138), (#139, #140)), .UNSPECIFIED., .F., .F., .U., (2, 2), (2, 2), (0., 1.), (0., 1.), .UNSPECIFIED.);
#137 = CARTESIAN_POINT('', (-5.32907051820075E-15, 0., 62.2253967444162));
#138 = CARTESIAN_POINT('', (62.2253967444162, 0., 6.66133814775094E-15));
#139 = CARTESIAN_POINT('', (-62.2253967444162, 0., -6.66133814775094E-15));
#140 = CARTESIAN_POINT('', (5.32907051820075E-15, 0., -62.2253967444162));
#141 = ADVANCED_FACE('', (#142), #152, .T.);
#142 = FACE_OUTER_BOUND('', #143, .T.);
#143 = EDGE_LOOP('', (#144, #149, #150, #151));
#144 = ORIENTED_EDGE('', *, *, #145, .F.);
#145 = EDGE_CURVE('', #46, #119, #146, .T.);
#146 = B_SPLINE_CURVE_WITH_KNOTS('', 1, (#147, #148), .UNSPECIFIED., .F., .U., (2, 2), (0., 1.), .UNSPECIFIED.);
#147 = CARTESIAN_POINT('', (14.142135623731, 30., -14.1421356237309));
#148 = CARTESIAN_POINT('', (14.142135623731, 0., -14.1421356237309));
#149 = ORIENTED_EDGE('', *, *, #63, .T.);
#150 = ORIENTED_EDGE('', *, *, #7, .T.);
#151 = ORIENTED_EDGE('', *, *, #125, .F.);
#152 = (
   BOUNDED_SURFACE ()
   B_SPLINE_SURFACE (2, 1, ((#153, #154), (#155, #156), (#157, #158), (#159, #160), (#161, #162), (#163, #164), (#165, #166)), .UNSPECIFIED., .F., .F., .U.)
   B_SPLINE_SURFACE_WITH_KNOTS ((3, 2, 2, 3), (2, 2), (0., 26.1799387799149, 52.3598775598299, 78.5398163397448), (0., 1.), .UNSPECIFIED.)
   GEOMETRIC_REPRESENTATION_ITEM ()
   RATIONAL_B_SPLINE_SURFACE (((1., 1.), (0.793353340291235, 0.793353340291235), (1., 1.), (0.793353340291235, 0.793353340291235), (1., 1.), (0.793353340291235, 0.793353340291235), (1., 1.)))
   REPRESENTATION_ITEM ('')
   SURFACE ()
);
#153 = CARTESIAN_POINT('', (14.142135623731, 30., -14.1421356237309));
#154 = CARTESIAN_POINT('', (14.142135623731, 0., -14.1421356237309));
#155 = CARTESIAN_POINT('', (3.29049329198353, 30., -24.9937779554784));
#156 = CARTESIAN_POINT('', (3.29049329198353, 0., -24.9937779554784));
#157 = CARTESIAN_POINT('', (-10., 30., -17.3205080756888));
#158 = CARTESIAN_POINT('', (-10., 0., -17.3205080756888));
#159 = CARTESIAN_POINT('', (-23.2904932919835, 30., -9.64723819589917));
#160 = CARTESIAN_POINT('', (-23.2904932919835, 0., -9.64723819589917));
#161 = CARTESIAN_POINT('', (-19.3185165257814, 30., 5.17638090205041));
#162 = CARTESIAN_POINT('', (-19.3185165257814, 0., 5.17638090205041));
#163 = CARTESIAN_POINT('', (-15.3465397595792, 30., 20.));
#164 = CARTESIAN_POINT('', (-15.3465397595792, 0., 20.));
#165 = CARTESIAN_POINT('', (-9.61424163792996E-15, 30., 20.));
#166 = CARTESIAN_POINT('', (-9.61424163792996E-15, 0., 20.));
#167 = ADVANCED_FACE('', (#168), #174, .T.);
#168 = FACE_OUTER_BOUND('', #169, .T.);
#169 = EDGE_LOOP('', (#170, #171, #172, #173));
#170 = ORIENTED_EDGE('', *, *, #145, .T.);
#171 = ORIENTED_EDGE('', *, *, #118, .T.);
#172 = ORIENTED_EDGE('', *, *, #81, .T.);
#173 = ORIENTED_EDGE('', *, *, #43, .T.);
#174 = B_SPLINE_SURFACE_WITH_KNOTS('', 1, 1, ((#175, #176), (#177, #178)), .UNSPECIFIED., .F., .F., .U., (2, 2), (2, 2), (0., 1.), (0., 1.), .UNSPECIFIED.);
#175 = CARTESIAN_POINT('', (35.2355070979766, -4.83053201505194, -35.2355070979766));
#176 = CARTESIAN_POINT('', (7.19089977321627, -4.83053201505194, -7.19089977321627));
#177 = CARTESIAN_POINT('', (35.2355070979766, 34.8305320150519, -35.2355070979766));
#178 = CARTESIAN_POINT('', (7.19089977321627, 34.8305320150519, -7.19089977321627));
#179 = DRAUGHTING_MODEL('', (#187), #190);
#180 = PRESENTATION_STYLE_ASSIGNMENT((#181));
#181 = SURFACE_STYLE_USAGE(.POSITIVE., #182);
#182 = SURFACE_SIDE_STYLE('', (#183));
#183 = SURFACE_STYLE_FILL_AREA(#184);
#184 = FILL_AREA_STYLE('', (#185));
#185 = FILL_AREA_STYLE_COLOUR('', #186);
#186 = COLOUR_RGB('', 0.50196078431373, 0.50196078431373, 0.50196078431373);
#187 = STYLED_ITEM('', (#180), #1);
#188 = CARTESIAN_POINT('Origin', (0., 0., 0.));
#189 = GEOMETRIC_SET('', (#188));
#190 = (
   GEOMETRIC_REPRESENTATION_CONTEXT (3)
   GLOBAL_UNCERTAINTY_ASSIGNED_CONTEXT ((#192))
   GLOBAL_UNIT_ASSIGNED_CONTEXT ((#191, #193, #194))
   REPRESENTATION_CONTEXT ('', '3D')
);
#191 = (
   LENGTH_UNIT ()
   NAMED_UNIT (*)
   SI_UNIT (.MILLI., .METRE.)
);
#192 = UNCERTAINTY_MEASURE_WITH_UNIT(LENGTH_MEASURE(1.E-6), #191, 'DISTANCE_ACCURACY_VALUE', '');
#193 = (
   NAMED_UNIT (*)
   SI_UNIT ($, .STERADIAN.)
   SOLID_ANGLE_UNIT ()
);
#194 = (
   NAMED_UNIT (*)
   PLANE_ANGLE_UNIT ()
   SI_UNIT ($, .RADIAN.)
);
#195 = SHAPE_REPRESENTATION('', (#210), #190);
#196 = PRODUCT_DEFINITION_SHAPE('', '', #197);
#197 = PRODUCT_DEFINITION('', '', #200, #204);
#198 = APPLICATION_CONTEXT('configuration controlled 3D designs of mechanical parts and assemblies');
#199 = APPLICATION_PROTOCOL_DEFINITION('International Standard', 'automotive_design', 2002, #198);
#200 = PRODUCT_DEFINITION_FORMATION_WITH_SPECIFIED_SOURCE('', '', #201, .NOT_KNOWN.);
#201 = PRODUCT('ParamPersist', 'ParamPersist', '', (#202));
#202 = PRODUCT_CONTEXT('', #198, 'mechanical');
#203 = PRODUCT_RELATED_PRODUCT_CATEGORY('detail', '', (#201));
#204 = PRODUCT_DEFINITION_CONTEXT('part definition', #198, 'design');
#205 = SHAPE_DEFINITION_REPRESENTATION(#196, #195);
#206 = SHAPE_REPRESENTATION_RELATIONSHIP('', '', #195, #207);
#207 = SHAPE_REPRESENTATION('', (#189), #190);
#208 = SHAPE_REPRESENTATION_RELATIONSHIP('', '', #195, #209);
#209 = ADVANCED_BREP_SHAPE_REPRESENTATION('', (#1), #190);
#210 = AXIS2_PLACEMENT_3D('', #211, #212, #213);
#211 = CARTESIAN_POINT('', (0., 0., 0.));
#212 = DIRECTION('', (0., 0., 1.));
#213 = DIRECTION('', (1., 0., 0.));
ENDSEC;
END-ISO-10303-21;
