ISO-10303-21;
HEADER;
FILE_DESCRIPTION(('STEP'), '1');
FILE_NAME('ParamPersist', '2026-04-18T00:17:55', (''), (''), 'Express 3.1.2.0', 'Express Tool', 'Unknown');
FILE_SCHEMA(('AUTOMOTIVE_DESIGN'));
ENDSEC;

DATA;
#1 = MANIFOLD_SOLID_BREP('Revolve_0', #2);
#2 = CLOSED_SHELL('', (#3, #39, #77, #105, #136, #157));
#3 = ADVANCED_FACE('', (#4), #34, .T.);
#4 = FACE_OUTER_BOUND('', #5, .T.);
#5 = EDGE_LOOP('', (#6, #15, #22, #29));
#6 = ORIENTED_EDGE('', *, *, #7, .F.);
#7 = EDGE_CURVE('', #8, #10, #12, .T.);
#8 = VERTEX_POINT('', #9);
#9 = CARTESIAN_POINT('', (14.142135623731, 30., 14.1421356237309));
#10 = VERTEX_POINT('', #11);
#11 = CARTESIAN_POINT('', (14.142135623731, 0., 14.1421356237309));
#12 = B_SPLINE_CURVE_WITH_KNOTS('', 1, (#13, #14), .UNSPECIFIED., .F., .U., (2, 2), (0., 1.), .UNSPECIFIED.);
#13 = CARTESIAN_POINT('', (14.142135623731, 30., 14.1421356237309));
#14 = CARTESIAN_POINT('', (14.142135623731, 0., 14.1421356237309));
#15 = ORIENTED_EDGE('', *, *, #16, .F.);
#16 = EDGE_CURVE('', #17, #8, #19, .T.);
#17 = VERTEX_POINT('', #18);
#18 = CARTESIAN_POINT('', (28.2842712474619, 30., 28.2842712474619));
#19 = B_SPLINE_CURVE_WITH_KNOTS('', 1, (#20, #21), .UNSPECIFIED., .F., .U., (2, 2), (0., 1.), .UNSPECIFIED.);
#20 = CARTESIAN_POINT('', (28.2842712474619, 30., 28.2842712474619));
#21 = CARTESIAN_POINT('', (14.142135623731, 30., 14.1421356237309));
#22 = ORIENTED_EDGE('', *, *, #23, .F.);
#23 = EDGE_CURVE('', #24, #17, #26, .T.);
#24 = VERTEX_POINT('', #25);
#25 = CARTESIAN_POINT('', (28.2842712474619, 0., 28.2842712474619));
#26 = B_SPLINE_CURVE_WITH_KNOTS('', 1, (#27, #28), .UNSPECIFIED., .F., .U., (2, 2), (0., 1.), .UNSPECIFIED.);
#27 = CARTESIAN_POINT('', (28.2842712474619, 0., 28.2842712474619));
#28 = CARTESIAN_POINT('', (28.2842712474619, 30., 28.2842712474619));
#29 = ORIENTED_EDGE('', *, *, #30, .F.);
#30 = EDGE_CURVE('', #10, #24, #31, .T.);
#31 = B_SPLINE_CURVE_WITH_KNOTS('', 1, (#32, #33), .UNSPECIFIED., .F., .U., (2, 2), (0., 1.), .UNSPECIFIED.);
#32 = CARTESIAN_POINT('', (14.142135623731, 0., 14.1421356237309));
#33 = CARTESIAN_POINT('', (28.2842712474619, 0., 28.2842712474619));
#34 = B_SPLINE_SURFACE_WITH_KNOTS('', 1, 1, ((#35, #36), (#37, #38)), .UNSPECIFIED., .F., .F., .U., (2, 2), (2, 2), (0., 1.), (0., 1.), .UNSPECIFIED.);
#35 = CARTESIAN_POINT('', (35.2355070979766, -4.83053201505194, 35.2355070979766));
#36 = CARTESIAN_POINT('', (35.2355070979766, 34.8305320150519, 35.2355070979766));
#37 = CARTESIAN_POINT('', (7.19089977321627, -4.83053201505194, 7.19089977321627));
#38 = CARTESIAN_POINT('', (7.19089977321627, 34.8305320150519, 7.19089977321627));
#39 = ADVANCED_FACE('', (#40), #72, .T.);
#40 = FACE_OUTER_BOUND('', #41, .T.);
#41 = EDGE_LOOP('', (#42, #43, #55, #62));
#42 = ORIENTED_EDGE('', *, *, #16, .T.);
#43 = ORIENTED_EDGE('', *, *, #44, .T.);
#44 = EDGE_CURVE('', #8, #45, #47, .T.);
#45 = VERTEX_POINT('', #46);
#46 = CARTESIAN_POINT('', (-5.32573686463567E-15, 30., -20.));
#47 = (
   BOUNDED_CURVE ()
   B_SPLINE_CURVE (2, (#48, #49, #50, #51, #52, #53, #54), .UNSPECIFIED., .F., .U.)
   B_SPLINE_CURVE_WITH_KNOTS ((3, 2, 2, 3), (0., 26.1799387799149, 52.3598775598299, 78.5398163397448), .UNSPECIFIED.)
   CURVE ()
   GEOMETRIC_REPRESENTATION_ITEM ()
   RATIONAL_B_SPLINE_CURVE ((1., 0.793353340291235, 1., 0.793353340291235, 1., 0.793353340291235, 1.))
   REPRESENTATION_ITEM ('')
);
#48 = CARTESIAN_POINT('', (14.142135623731, 30., 14.1421356237309));
#49 = CARTESIAN_POINT('', (3.29049329198353, 30., 24.9937779554784));
#50 = CARTESIAN_POINT('', (-10., 30., 17.3205080756888));
#51 = CARTESIAN_POINT('', (-23.2904932919835, 30., 9.64723819589917));
#52 = CARTESIAN_POINT('', (-19.3185165257814, 30., -5.17638090205041));
#53 = CARTESIAN_POINT('', (-15.3465397595792, 30., -20.));
#54 = CARTESIAN_POINT('', (-9.61424163792996E-15, 30., -20.));
#55 = ORIENTED_EDGE('', *, *, #56, .F.);
#56 = EDGE_CURVE('', #57, #45, #59, .T.);
#57 = VERTEX_POINT('', #58);
#58 = CARTESIAN_POINT('', (-1.06514737292713E-14, 30., -40.));
#59 = B_SPLINE_CURVE_WITH_KNOTS('', 1, (#60, #61), .UNSPECIFIED., .F., .U., (2, 2), (0., 1.), .UNSPECIFIED.);
#60 = CARTESIAN_POINT('', (-1.06514737292713E-14, 30., -40.));
#61 = CARTESIAN_POINT('', (-5.32573686463567E-15, 30., -20.));
#62 = ORIENTED_EDGE('', *, *, #63, .F.);
#63 = EDGE_CURVE('', #17, #57, #64, .T.);
#64 = (
   BOUNDED_CURVE ()
   B_SPLINE_CURVE (2, (#65, #66, #67, #68, #69, #70, #71), .UNSPECIFIED., .F., .U.)
   B_SPLINE_CURVE_WITH_KNOTS ((3, 2, 2, 3), (0., 52.3598775598299, 104.71975511966, 157.07963267949), .UNSPECIFIED.)
   CURVE ()
   GEOMETRIC_REPRESENTATION_ITEM ()
   RATIONAL_B_SPLINE_CURVE ((1., 0.793353340291235, 1., 0.793353340291235, 1., 0.793353340291235, 1.))
   REPRESENTATION_ITEM ('')
);
#65 = CARTESIAN_POINT('', (28.2842712474619, 30., 28.2842712474619));
#66 = CARTESIAN_POINT('', (6.58098658396706, 30., 49.9875559109567));
#67 = CARTESIAN_POINT('', (-20., 30., 34.6410161513775));
#68 = CARTESIAN_POINT('', (-46.580986583967, 30., 19.2944763917983));
#69 = CARTESIAN_POINT('', (-38.6370330515627, 30., -10.3527618041008));
#70 = CARTESIAN_POINT('', (-30.6930795191584, 30., -40.));
#71 = CARTESIAN_POINT('', (-1.92284832758599E-14, 30., -40.));
#72 = B_SPLINE_SURFACE_WITH_KNOTS('', 1, 1, ((#73, #74), (#75, #76)), .UNSPECIFIED., .F., .F., .U., (2, 2), (2, 2), (0., 1.), (0., 1.), .UNSPECIFIED.);
#73 = CARTESIAN_POINT('', (-5.32907051820075E-15, 30., -62.2253967444162));
#74 = CARTESIAN_POINT('', (62.2253967444162, 30., -6.66133814775094E-15));
#75 = CARTESIAN_POINT('', (-62.2253967444162, 30., 6.66133814775094E-15));
#76 = CARTESIAN_POINT('', (5.32907051820075E-15, 30., 62.2253967444162));
#77 = ADVANCED_FACE('', (#78), #100, .T.);
#78 = FACE_OUTER_BOUND('', #79, .T.);
#79 = EDGE_LOOP('', (#80, #87, #94, #99));
#80 = ORIENTED_EDGE('', *, *, #81, .T.);
#81 = EDGE_CURVE('', #45, #82, #84, .T.);
#82 = VERTEX_POINT('', #83);
#83 = CARTESIAN_POINT('', (-5.32573686463567E-15, 0., -20.));
#84 = B_SPLINE_CURVE_WITH_KNOTS('', 1, (#85, #86), .UNSPECIFIED., .F., .U., (2, 2), (0., 1.), .UNSPECIFIED.);
#85 = CARTESIAN_POINT('', (-5.32573686463567E-15, 30., -20.));
#86 = CARTESIAN_POINT('', (-5.32573686463567E-15, 0., -20.));
#87 = ORIENTED_EDGE('', *, *, #88, .T.);
#88 = EDGE_CURVE('', #82, #89, #91, .T.);
#89 = VERTEX_POINT('', #90);
#90 = CARTESIAN_POINT('', (-1.06514737292713E-14, 0., -40.));
#91 = B_SPLINE_CURVE_WITH_KNOTS('', 1, (#92, #93), .UNSPECIFIED., .F., .U., (2, 2), (0., 1.), .UNSPECIFIED.);
#92 = CARTESIAN_POINT('', (-5.32573686463567E-15, 0., -20.));
#93 = CARTESIAN_POINT('', (-1.06514737292713E-14, 0., -40.));
#94 = ORIENTED_EDGE('', *, *, #95, .T.);
#95 = EDGE_CURVE('', #89, #57, #96, .T.);
#96 = B_SPLINE_CURVE_WITH_KNOTS('', 1, (#97, #98), .UNSPECIFIED., .F., .U., (2, 2), (0., 1.), .UNSPECIFIED.);
#97 = CARTESIAN_POINT('', (-1.06514737292713E-14, 0., -40.));
#98 = CARTESIAN_POINT('', (-1.06514737292713E-14, 30., -40.));
#99 = ORIENTED_EDGE('', *, *, #56, .T.);
#100 = B_SPLINE_SURFACE_WITH_KNOTS('', 1, 1, ((#101, #102), (#103, #104)), .UNSPECIFIED., .F., .F., .U., (2, 2), (2, 2), (0., 1.), (0., 1.), .UNSPECIFIED.);
#101 = CARTESIAN_POINT('', (-1.3446710701116E-14, -4.83053201505194, -49.8305320150519));
#102 = CARTESIAN_POINT('', (-1.75007558411114E-15, -4.83053201505194, -10.1694679849481));
#103 = CARTESIAN_POINT('', (-1.3446710701116E-14, 34.8305320150519, -49.8305320150519));
#104 = CARTESIAN_POINT('', (-1.75007558411114E-15, 34.8305320150519, -10.1694679849481));
#105 = ADVANCED_FACE('', (#106), #121, .T.);
#106 = FACE_OUTER_BOUND('', #107, .T.);
#107 = EDGE_LOOP('', (#108, #109, #110, #111));
#108 = ORIENTED_EDGE('', *, *, #23, .T.);
#109 = ORIENTED_EDGE('', *, *, #63, .T.);
#110 = ORIENTED_EDGE('', *, *, #95, .F.);
#111 = ORIENTED_EDGE('', *, *, #112, .F.);
#112 = EDGE_CURVE('', #24, #89, #113, .T.);
#113 = (
   BOUNDED_CURVE ()
   B_SPLINE_CURVE (2, (#114, #115, #116, #117, #118, #119, #120), .UNSPECIFIED., .F., .U.)
   B_SPLINE_CURVE_WITH_KNOTS ((3, 2, 2, 3), (0., 0.333333333333333, 0.666666666666667, 1.), .UNSPECIFIED.)
   CURVE ()
   GEOMETRIC_REPRESENTATION_ITEM ()
   RATIONAL_B_SPLINE_CURVE ((1., 0.793353340291235, 1., 0.793353340291235, 1., 0.793353340291235, 1.))
   REPRESENTATION_ITEM ('')
);
#114 = CARTESIAN_POINT('', (28.2842712474619, 0., 28.2842712474619));
#115 = CARTESIAN_POINT('', (6.58098658396705, 0., 49.9875559109568));
#116 = CARTESIAN_POINT('', (-20., 0., 34.6410161513775));
#117 = CARTESIAN_POINT('', (-46.5809865839671, 0., 19.2944763917983));
#118 = CARTESIAN_POINT('', (-38.6370330515627, 0., -10.3527618041008));
#119 = CARTESIAN_POINT('', (-30.6930795191584, 0., -40.));
#120 = CARTESIAN_POINT('', (-1.06514737292713E-14, 0., -40.));
#121 = (
   BOUNDED_SURFACE ()
   B_SPLINE_SURFACE (1, 2, ((#122, #123, #124, #125, #126, #127, #128), (#129, #130, #131, #132, #133, #134, #135)), .UNSPECIFIED., .F., .F., .U.)
   B_SPLINE_SURFACE_WITH_KNOTS ((2, 2), (3, 2, 2, 3), (0., 1.), (0., 52.3598775598299, 104.71975511966, 157.07963267949), .UNSPECIFIED.)
   GEOMETRIC_REPRESENTATION_ITEM ()
   RATIONAL_B_SPLINE_SURFACE (((1., 0.793353340291235, 1., 0.793353340291235, 1., 0.793353340291235, 1.), (1., 0.793353340291235, 1., 0.793353340291235, 1., 0.793353340291235, 1.)))
   REPRESENTATION_ITEM ('')
   SURFACE ()
);
#122 = CARTESIAN_POINT('', (28.2842712474619, 0., 28.2842712474619));
#123 = CARTESIAN_POINT('', (6.58098658396706, 0., 49.9875559109567));
#124 = CARTESIAN_POINT('', (-20., 0., 34.6410161513775));
#125 = CARTESIAN_POINT('', (-46.580986583967, 0., 19.2944763917983));
#126 = CARTESIAN_POINT('', (-38.6370330515627, 0., -10.3527618041008));
#127 = CARTESIAN_POINT('', (-30.6930795191584, 0., -40.));
#128 = CARTESIAN_POINT('', (-1.92284832758599E-14, 0., -40.));
#129 = CARTESIAN_POINT('', (28.2842712474619, 30., 28.2842712474619));
#130 = CARTESIAN_POINT('', (6.58098658396706, 30., 49.9875559109567));
#131 = CARTESIAN_POINT('', (-20., 30., 34.6410161513775));
#132 = CARTESIAN_POINT('', (-46.580986583967, 30., 19.2944763917983));
#133 = CARTESIAN_POINT('', (-38.6370330515627, 30., -10.3527618041008));
#134 = CARTESIAN_POINT('', (-30.6930795191584, 30., -40.));
#135 = CARTESIAN_POINT('', (-1.92284832758599E-14, 30., -40.));
#136 = ADVANCED_FACE('', (#137), #152, .T.);
#137 = FACE_OUTER_BOUND('', #138, .T.);
#138 = EDGE_LOOP('', (#139, #140, #141, #142));
#139 = ORIENTED_EDGE('', *, *, #30, .T.);
#140 = ORIENTED_EDGE('', *, *, #112, .T.);
#141 = ORIENTED_EDGE('', *, *, #88, .F.);
#142 = ORIENTED_EDGE('', *, *, #143, .F.);
#143 = EDGE_CURVE('', #10, #82, #144, .T.);
#144 = (
   BOUNDED_CURVE ()
   B_SPLINE_CURVE (2, (#145, #146, #147, #148, #149, #150, #151), .UNSPECIFIED., .F., .U.)
   B_SPLINE_CURVE_WITH_KNOTS ((3, 2, 2, 3), (0., 26.1799387799149, 52.3598775598299, 78.5398163397448), .UNSPECIFIED.)
   CURVE ()
   GEOMETRIC_REPRESENTATION_ITEM ()
   RATIONAL_B_SPLINE_CURVE ((1., 0.793353340291235, 1., 0.793353340291235, 1., 0.793353340291235, 1.))
   REPRESENTATION_ITEM ('')
);
#145 = CARTESIAN_POINT('', (14.142135623731, 0., 14.1421356237309));
#146 = CARTESIAN_POINT('', (3.29049329198353, 0., 24.9937779554784));
#147 = CARTESIAN_POINT('', (-10., 0., 17.3205080756888));
#148 = CARTESIAN_POINT('', (-23.2904932919835, 0., 9.64723819589917));
#149 = CARTESIAN_POINT('', (-19.3185165257814, 0., -5.17638090205041));
#150 = CARTESIAN_POINT('', (-15.3465397595792, 0., -20.));
#151 = CARTESIAN_POINT('', (-9.61424163792996E-15, 0., -20.));
#152 = B_SPLINE_SURFACE_WITH_KNOTS('', 1, 1, ((#153, #154), (#155, #156)), .UNSPECIFIED., .F., .F., .U., (2, 2), (2, 2), (0., 1.), (0., 1.), .UNSPECIFIED.);
#153 = CARTESIAN_POINT('', (-5.32907051820075E-15, 0., -62.2253967444162));
#154 = CARTESIAN_POINT('', (-62.2253967444162, 0., 6.66133814775094E-15));
#155 = CARTESIAN_POINT('', (62.2253967444162, 0., -6.66133814775094E-15));
#156 = CARTESIAN_POINT('', (5.32907051820075E-15, 0., 62.2253967444162));
#157 = ADVANCED_FACE('', (#158), #164, .T.);
#158 = FACE_OUTER_BOUND('', #159, .T.);
#159 = EDGE_LOOP('', (#160, #161, #162, #163));
#160 = ORIENTED_EDGE('', *, *, #7, .T.);
#161 = ORIENTED_EDGE('', *, *, #143, .T.);
#162 = ORIENTED_EDGE('', *, *, #81, .F.);
#163 = ORIENTED_EDGE('', *, *, #44, .F.);
#164 = (
   BOUNDED_SURFACE ()
   B_SPLINE_SURFACE (1, 2, ((#165, #166, #167, #168, #169, #170, #171), (#172, #173, #174, #175, #176, #177, #178)), .UNSPECIFIED., .F., .F., .U.)
   B_SPLINE_SURFACE_WITH_KNOTS ((2, 2), (3, 2, 2, 3), (0., 1.), (0., 26.1799387799149, 52.3598775598299, 78.5398163397448), .UNSPECIFIED.)
   GEOMETRIC_REPRESENTATION_ITEM ()
   RATIONAL_B_SPLINE_SURFACE (((1., 0.793353340291235, 1., 0.793353340291235, 1., 0.793353340291235, 1.), (1., 0.793353340291235, 1., 0.793353340291235, 1., 0.793353340291235, 1.)))
   REPRESENTATION_ITEM ('')
   SURFACE ()
);
#165 = CARTESIAN_POINT('', (14.142135623731, 30., 14.1421356237309));
#166 = CARTESIAN_POINT('', (3.29049329198353, 30., 24.9937779554784));
#167 = CARTESIAN_POINT('', (-10., 30., 17.3205080756888));
#168 = CARTESIAN_POINT('', (-23.2904932919835, 30., 9.64723819589917));
#169 = CARTESIAN_POINT('', (-19.3185165257814, 30., -5.17638090205041));
#170 = CARTESIAN_POINT('', (-15.3465397595792, 30., -20.));
#171 = CARTESIAN_POINT('', (-9.61424163792996E-15, 30., -20.));
#172 = CARTESIAN_POINT('', (14.142135623731, 0., 14.1421356237309));
#173 = CARTESIAN_POINT('', (3.29049329198353, 0., 24.9937779554784));
#174 = CARTESIAN_POINT('', (-10., 0., 17.3205080756888));
#175 = CARTESIAN_POINT('', (-23.2904932919835, 0., 9.64723819589917));
#176 = CARTESIAN_POINT('', (-19.3185165257814, 0., -5.17638090205041));
#177 = CARTESIAN_POINT('', (-15.3465397595792, 0., -20.));
#178 = CARTESIAN_POINT('', (-9.61424163792996E-15, 0., -20.));
#179 = DRAUGHTING_MODEL('', (#187), #190);
#180 = PRESENTATION_STYLE_ASSIGNMENT((#181));
#181 = SURFACE_STYLE_USAGE(.POSITIVE., #182);
#182 = SURFACE_SIDE_STYLE('', (#183));
#183 = SURFACE_STYLE_FILL_AREA(#184);
#184 = FILL_AREA_STYLE('', (#185));
#185 = FILL_AREA_STYLE_COLOUR('', #186);
#186 = COLOUR_RGB('', 0.50196078431373, 0.50196078431373, 0.50196078431373);
#187 = STYLED_ITEM('', (#180), #1);
#188 = CARTESIAN_POINT('Origin', (0., 0., 0.));
#189 = GEOMETRIC_SET('', (#188));
#190 = (
   GEOMETRIC_REPRESENTATION_CONTEXT (3)
   GLOBAL_UNCERTAINTY_ASSIGNED_CONTEXT ((#192))
   GLOBAL_UNIT_ASSIGNED_CONTEXT ((#191, #193, #194))
   REPRESENTATION_CONTEXT ('', '3D')
);
#191 = (
   LENGTH_UNIT ()
   NAMED_UNIT (*)
   SI_UNIT (.MILLI., .METRE.)
);
#192 = UNCERTAINTY_MEASURE_WITH_UNIT(LENGTH_MEASURE(1.E-6), #191, 'DISTANCE_ACCURACY_VALUE', '');
#193 = (
   NAMED_UNIT (*)
   SI_UNIT ($, .STERADIAN.)
   SOLID_ANGLE_UNIT ()
);
#194 = (
   NAMED_UNIT (*)
   PLANE_ANGLE_UNIT ()
   SI_UNIT ($, .RADIAN.)
);
#195 = SHAPE_REPRESENTATION('', (#210), #190);
#196 = PRODUCT_DEFINITION_SHAPE('', '', #197);
#197 = PRODUCT_DEFINITION('', '', #200, #204);
#198 = APPLICATION_CONTEXT('configuration controlled 3D designs of mechanical parts and assemblies');
#199 = APPLICATION_PROTOCOL_DEFINITION('International Standard', 'automotive_design', 2002, #198);
#200 = PRODUCT_DEFINITION_FORMATION_WITH_SPECIFIED_SOURCE('', '', #201, .NOT_KNOWN.);
#201 = PRODUCT('ParamPersist', 'ParamPersist', '', (#202));
#202 = PRODUCT_CONTEXT('', #198, 'mechanical');
#203 = PRODUCT_RELATED_PRODUCT_CATEGORY('detail', '', (#201));
#204 = PRODUCT_DEFINITION_CONTEXT('part definition', #198, 'design');
#205 = SHAPE_DEFINITION_REPRESENTATION(#196, #195);
#206 = SHAPE_REPRESENTATION_RELATIONSHIP('', '', #195, #207);
#207 = SHAPE_REPRESENTATION('', (#189), #190);
#208 = SHAPE_REPRESENTATION_RELATIONSHIP('', '', #195, #209);
#209 = ADVANCED_BREP_SHAPE_REPRESENTATION('', (#1), #190);
#210 = AXIS2_PLACEMENT_3D('', #211, #212, #213);
#211 = CARTESIAN_POINT('', (0., 0., 0.));
#212 = DIRECTION('', (0., 0., 1.));
#213 = DIRECTION('', (1., 0., 0.));
ENDSEC;
END-ISO-10303-21;
