ISO-10303-21;
HEADER;
FILE_DESCRIPTION(('STEP'), '1');
FILE_NAME('ConeRefTest', '2026-04-17T16:33:18', (''), (''), 'Express 3.1.2.0', 'Express Tool', 'Unknown');
FILE_SCHEMA(('AUTOMOTIVE_DESIGN'));
ENDSEC;

DATA;
#1 = MANIFOLD_SOLID_BREP('AtOrigin_0', #2);
#2 = CLOSED_SHELL('', (#3, #59, #68));
#3 = ADVANCED_FACE('', (#4), #40, .T.);
#4 = FACE_OUTER_BOUND('', #5, .T.);
#5 = EDGE_LOOP('', (#6, #15, #27, #28));
#6 = ORIENTED_EDGE('', *, *, #7, .F.);
#7 = EDGE_CURVE('', #8, #10, #12, .T.);
#8 = VERTEX_POINT('', #9);
#9 = CARTESIAN_POINT('', (20., 0., 0.));
#10 = VERTEX_POINT('', #11);
#11 = CARTESIAN_POINT('', (5., 0., 60.));
#12 = B_SPLINE_CURVE_WITH_KNOTS('', 1, (#13, #14), .UNSPECIFIED., .F., .U., (2, 2), (0., 60.), .UNSPECIFIED.);
#13 = CARTESIAN_POINT('', (20., 0., 0.));
#14 = CARTESIAN_POINT('', (5., 0., 60.));
#15 = ORIENTED_EDGE('', *, *, #16, .T.);
#16 = EDGE_CURVE('', #8, #8, #17, .T.);
#17 = (
   BOUNDED_CURVE ()
   B_SPLINE_CURVE (2, (#18, #19, #20, #21, #22, #23, #24, #25, #26), .UNSPECIFIED., .T., .U.)
   B_SPLINE_CURVE_WITH_KNOTS ((3, 2, 2, 2, 3), (0., 0.25, 0.5, 0.75, 1.), .UNSPECIFIED.)
   CURVE ()
   GEOMETRIC_REPRESENTATION_ITEM ()
   RATIONAL_B_SPLINE_CURVE ((1., 0.707106781186548, 1., 0.707106781186548, 1., 0.707106781186548, 1., 0.707106781186548, 1.))
   REPRESENTATION_ITEM ('')
);
#18 = CARTESIAN_POINT('', (20., 0., 0.));
#19 = CARTESIAN_POINT('', (20., 20., 0.));
#20 = CARTESIAN_POINT('', (1.22464679914735E-15, 20., 0.));
#21 = CARTESIAN_POINT('', (-20., 20., 0.));
#22 = CARTESIAN_POINT('', (-20., 2.44929359829471E-15, 0.));
#23 = CARTESIAN_POINT('', (-20., -20., 0.));
#24 = CARTESIAN_POINT('', (-3.67394039744206E-15, -20., 0.));
#25 = CARTESIAN_POINT('', (20., -20., 0.));
#26 = CARTESIAN_POINT('', (20., 0., 0.));
#27 = ORIENTED_EDGE('', *, *, #7, .T.);
#28 = ORIENTED_EDGE('', *, *, #29, .F.);
#29 = EDGE_CURVE('', #10, #10, #30, .T.);
#30 = (
   BOUNDED_CURVE ()
   B_SPLINE_CURVE (2, (#31, #32, #33, #34, #35, #36, #37, #38, #39), .UNSPECIFIED., .T., .U.)
   B_SPLINE_CURVE_WITH_KNOTS ((3, 2, 2, 2, 3), (0., 0.25, 0.5, 0.75, 1.), .UNSPECIFIED.)
   CURVE ()
   GEOMETRIC_REPRESENTATION_ITEM ()
   RATIONAL_B_SPLINE_CURVE ((1., 0.707106781186548, 1., 0.707106781186548, 1., 0.707106781186548, 1., 0.707106781186548, 1.))
   REPRESENTATION_ITEM ('')
);
#31 = CARTESIAN_POINT('', (5., 0., 60.));
#32 = CARTESIAN_POINT('', (5., 5., 60.));
#33 = CARTESIAN_POINT('', (3.06161699786838E-16, 5., 60.));
#34 = CARTESIAN_POINT('', (-5., 5., 60.));
#35 = CARTESIAN_POINT('', (-5., 6.12323399573677E-16, 60.));
#36 = CARTESIAN_POINT('', (-5., -5., 60.));
#37 = CARTESIAN_POINT('', (-9.18485099360515E-16, -5., 60.));
#38 = CARTESIAN_POINT('', (5., -5., 60.));
#39 = CARTESIAN_POINT('', (5., 0., 60.));
#40 = (
   BOUNDED_SURFACE ()
   B_SPLINE_SURFACE (2, 1, ((#41, #42), (#43, #44), (#45, #46), (#47, #48), (#49, #50), (#51, #52), (#53, #54), (#55, #56), (#57, #58)), .UNSPECIFIED., .T., .F., .U.)
   B_SPLINE_SURFACE_WITH_KNOTS ((3, 2, 2, 2, 3), (2, 2), (0., 0.25, 0.5, 0.75, 1.), (0., 60.), .UNSPECIFIED.)
   GEOMETRIC_REPRESENTATION_ITEM ()
   RATIONAL_B_SPLINE_SURFACE (((1., 1.), (0.707106781186548, 0.707106781186548), (1., 1.), (0.707106781186548, 0.707106781186548), (1., 1.), (0.707106781186548, 0.707106781186548), (1., 1.), (0.707106781186548, 0.707106781186548), (1., 1.)))
   REPRESENTATION_ITEM ('')
   SURFACE ()
);
#41 = CARTESIAN_POINT('', (20., 0., 0.));
#42 = CARTESIAN_POINT('', (5., 0., 60.));
#43 = CARTESIAN_POINT('', (20., 20., 0.));
#44 = CARTESIAN_POINT('', (5., 5., 60.));
#45 = CARTESIAN_POINT('', (1.22464679914735E-15, 20., 0.));
#46 = CARTESIAN_POINT('', (3.06161699786838E-16, 5., 60.));
#47 = CARTESIAN_POINT('', (-20., 20., 0.));
#48 = CARTESIAN_POINT('', (-5., 5., 60.));
#49 = CARTESIAN_POINT('', (-20., 2.44929359829471E-15, 0.));
#50 = CARTESIAN_POINT('', (-5., 6.12323399573677E-16, 60.));
#51 = CARTESIAN_POINT('', (-20., -20., 0.));
#52 = CARTESIAN_POINT('', (-5., -5., 60.));
#53 = CARTESIAN_POINT('', (-3.67394039744206E-15, -20., 0.));
#54 = CARTESIAN_POINT('', (-9.18485099360515E-16, -5., 60.));
#55 = CARTESIAN_POINT('', (20., -20., 0.));
#56 = CARTESIAN_POINT('', (5., -5., 60.));
#57 = CARTESIAN_POINT('', (20., 0., 0.));
#58 = CARTESIAN_POINT('', (5., 0., 60.));
#59 = ADVANCED_FACE('', (#60), #63, .T.);
#60 = FACE_OUTER_BOUND('', #61, .T.);
#61 = EDGE_LOOP('', (#62));
#62 = ORIENTED_EDGE('', *, *, #16, .F.);
#63 = B_SPLINE_SURFACE_WITH_KNOTS('', 1, 1, ((#64, #65), (#66, #67)), .UNSPECIFIED., .F., .F., .U., (2, 2), (2, 2), (0., 1.), (0., 1.), .UNSPECIFIED.);
#64 = CARTESIAN_POINT('', (31.1126983722081, -31.1126983722081, 0.));
#65 = CARTESIAN_POINT('', (31.1126983722081, 31.1126983722081, 0.));
#66 = CARTESIAN_POINT('', (-31.1126983722081, -31.1126983722081, 0.));
#67 = CARTESIAN_POINT('', (-31.1126983722081, 31.1126983722081, 0.));
#68 = ADVANCED_FACE('', (#69), #72, .T.);
#69 = FACE_OUTER_BOUND('', #70, .T.);
#70 = EDGE_LOOP('', (#71));
#71 = ORIENTED_EDGE('', *, *, #29, .T.);
#72 = B_SPLINE_SURFACE_WITH_KNOTS('', 1, 1, ((#73, #74), (#75, #76)), .UNSPECIFIED., .F., .F., .U., (2, 2), (2, 2), (0., 1.), (0., 1.), .UNSPECIFIED.);
#73 = CARTESIAN_POINT('', (7.77817459305202, -7.77817459305203, 60.));
#74 = CARTESIAN_POINT('', (-7.77817459305203, -7.77817459305203, 60.));
#75 = CARTESIAN_POINT('', (7.77817459305202, 7.77817459305202, 60.));
#76 = CARTESIAN_POINT('', (-7.77817459305203, 7.77817459305202, 60.));
#77 = DRAUGHTING_MODEL('', (#85, #169), #176);
#78 = PRESENTATION_STYLE_ASSIGNMENT((#79));
#79 = SURFACE_STYLE_USAGE(.POSITIVE., #80);
#80 = SURFACE_SIDE_STYLE('', (#81));
#81 = SURFACE_STYLE_FILL_AREA(#82);
#82 = FILL_AREA_STYLE('', (#83));
#83 = FILL_AREA_STYLE_COLOUR('', #84);
#84 = COLOUR_RGB('', 0.50196078431373, 0.50196078431373, 0.50196078431373);
#85 = STYLED_ITEM('', (#78), #1);
#86 = MANIFOLD_SOLID_BREP('AtWCS_0', #87);
#87 = CLOSED_SHELL('', (#88, #144, #153));
#88 = ADVANCED_FACE('', (#89), #125, .T.);
#89 = FACE_OUTER_BOUND('', #90, .T.);
#90 = EDGE_LOOP('', (#91, #100, #112, #113));
#91 = ORIENTED_EDGE('', *, *, #92, .F.);
#92 = EDGE_CURVE('', #93, #95, #97, .T.);
#93 = VERTEX_POINT('', #94);
#94 = CARTESIAN_POINT('', (20., 0., 0.));
#95 = VERTEX_POINT('', #96);
#96 = CARTESIAN_POINT('', (5., 0., 60.));
#97 = B_SPLINE_CURVE_WITH_KNOTS('', 1, (#98, #99), .UNSPECIFIED., .F., .U., (2, 2), (0., 60.), .UNSPECIFIED.);
#98 = CARTESIAN_POINT('', (20., 0., 0.));
#99 = CARTESIAN_POINT('', (5., 0., 60.));
#100 = ORIENTED_EDGE('', *, *, #101, .T.);
#101 = EDGE_CURVE('', #93, #93, #102, .T.);
#102 = (
   BOUNDED_CURVE ()
   B_SPLINE_CURVE (2, (#103, #104, #105, #106, #107, #108, #109, #110, #111), .UNSPECIFIED., .T., .U.)
   B_SPLINE_CURVE_WITH_KNOTS ((3, 2, 2, 2, 3), (0., 0.25, 0.5, 0.75, 1.), .UNSPECIFIED.)
   CURVE ()
   GEOMETRIC_REPRESENTATION_ITEM ()
   RATIONAL_B_SPLINE_CURVE ((1., 0.707106781186548, 1., 0.707106781186548, 1., 0.707106781186548, 1., 0.707106781186548, 1.))
   REPRESENTATION_ITEM ('')
);
#103 = CARTESIAN_POINT('', (20., 0., 0.));
#104 = CARTESIAN_POINT('', (20., 20., 0.));
#105 = CARTESIAN_POINT('', (1.22464679914735E-15, 20., 0.));
#106 = CARTESIAN_POINT('', (-20., 20., 0.));
#107 = CARTESIAN_POINT('', (-20., 2.44929359829471E-15, 0.));
#108 = CARTESIAN_POINT('', (-20., -20., 0.));
#109 = CARTESIAN_POINT('', (-3.67394039744206E-15, -20., 0.));
#110 = CARTESIAN_POINT('', (20., -20., 0.));
#111 = CARTESIAN_POINT('', (20., 0., 0.));
#112 = ORIENTED_EDGE('', *, *, #92, .T.);
#113 = ORIENTED_EDGE('', *, *, #114, .F.);
#114 = EDGE_CURVE('', #95, #95, #115, .T.);
#115 = (
   BOUNDED_CURVE ()
   B_SPLINE_CURVE (2, (#116, #117, #118, #119, #120, #121, #122, #123, #124), .UNSPECIFIED., .T., .U.)
   B_SPLINE_CURVE_WITH_KNOTS ((3, 2, 2, 2, 3), (0., 0.25, 0.5, 0.75, 1.), .UNSPECIFIED.)
   CURVE ()
   GEOMETRIC_REPRESENTATION_ITEM ()
   RATIONAL_B_SPLINE_CURVE ((1., 0.707106781186548, 1., 0.707106781186548, 1., 0.707106781186548, 1., 0.707106781186548, 1.))
   REPRESENTATION_ITEM ('')
);
#116 = CARTESIAN_POINT('', (5., 0., 60.));
#117 = CARTESIAN_POINT('', (5., 5., 60.));
#118 = CARTESIAN_POINT('', (3.06161699786838E-16, 5., 60.));
#119 = CARTESIAN_POINT('', (-5., 5., 60.));
#120 = CARTESIAN_POINT('', (-5., 6.12323399573677E-16, 60.));
#121 = CARTESIAN_POINT('', (-5., -5., 60.));
#122 = CARTESIAN_POINT('', (-9.18485099360515E-16, -5., 60.));
#123 = CARTESIAN_POINT('', (5., -5., 60.));
#124 = CARTESIAN_POINT('', (5., 0., 60.));
#125 = (
   BOUNDED_SURFACE ()
   B_SPLINE_SURFACE (2, 1, ((#126, #127), (#128, #129), (#130, #131), (#132, #133), (#134, #135), (#136, #137), (#138, #139), (#140, #141), (#142, #143)), .UNSPECIFIED., .T., .F., .U.)
   B_SPLINE_SURFACE_WITH_KNOTS ((3, 2, 2, 2, 3), (2, 2), (0., 0.25, 0.5, 0.75, 1.), (0., 60.), .UNSPECIFIED.)
   GEOMETRIC_REPRESENTATION_ITEM ()
   RATIONAL_B_SPLINE_SURFACE (((1., 1.), (0.707106781186548, 0.707106781186548), (1., 1.), (0.707106781186548, 0.707106781186548), (1., 1.), (0.707106781186548, 0.707106781186548), (1., 1.), (0.707106781186548, 0.707106781186548), (1., 1.)))
   REPRESENTATION_ITEM ('')
   SURFACE ()
);
#126 = CARTESIAN_POINT('', (20., 0., 0.));
#127 = CARTESIAN_POINT('', (5., 0., 60.));
#128 = CARTESIAN_POINT('', (20., 20., 0.));
#129 = CARTESIAN_POINT('', (5., 5., 60.));
#130 = CARTESIAN_POINT('', (1.22464679914735E-15, 20., 0.));
#131 = CARTESIAN_POINT('', (3.06161699786838E-16, 5., 60.));
#132 = CARTESIAN_POINT('', (-20., 20., 0.));
#133 = CARTESIAN_POINT('', (-5., 5., 60.));
#134 = CARTESIAN_POINT('', (-20., 2.44929359829471E-15, 0.));
#135 = CARTESIAN_POINT('', (-5., 6.12323399573677E-16, 60.));
#136 = CARTESIAN_POINT('', (-20., -20., 0.));
#137 = CARTESIAN_POINT('', (-5., -5., 60.));
#138 = CARTESIAN_POINT('', (-3.67394039744206E-15, -20., 0.));
#139 = CARTESIAN_POINT('', (-9.18485099360515E-16, -5., 60.));
#140 = CARTESIAN_POINT('', (20., -20., 0.));
#141 = CARTESIAN_POINT('', (5., -5., 60.));
#142 = CARTESIAN_POINT('', (20., 0., 0.));
#143 = CARTESIAN_POINT('', (5., 0., 60.));
#144 = ADVANCED_FACE('', (#145), #148, .T.);
#145 = FACE_OUTER_BOUND('', #146, .T.);
#146 = EDGE_LOOP('', (#147));
#147 = ORIENTED_EDGE('', *, *, #101, .F.);
#148 = B_SPLINE_SURFACE_WITH_KNOTS('', 1, 1, ((#149, #150), (#151, #152)), .UNSPECIFIED., .F., .F., .U., (2, 2), (2, 2), (0., 1.), (0., 1.), .UNSPECIFIED.);
#149 = CARTESIAN_POINT('', (31.1126983722081, -31.1126983722081, 0.));
#150 = CARTESIAN_POINT('', (31.1126983722081, 31.1126983722081, 0.));
#151 = CARTESIAN_POINT('', (-31.1126983722081, -31.1126983722081, 0.));
#152 = CARTESIAN_POINT('', (-31.1126983722081, 31.1126983722081, 0.));
#153 = ADVANCED_FACE('', (#154), #157, .T.);
#154 = FACE_OUTER_BOUND('', #155, .T.);
#155 = EDGE_LOOP('', (#156));
#156 = ORIENTED_EDGE('', *, *, #114, .T.);
#157 = B_SPLINE_SURFACE_WITH_KNOTS('', 1, 1, ((#158, #159), (#160, #161)), .UNSPECIFIED., .F., .F., .U., (2, 2), (2, 2), (0., 1.), (0., 1.), .UNSPECIFIED.);
#158 = CARTESIAN_POINT('', (7.77817459305202, -7.77817459305203, 60.));
#159 = CARTESIAN_POINT('', (-7.77817459305203, -7.77817459305203, 60.));
#160 = CARTESIAN_POINT('', (7.77817459305202, 7.77817459305202, 60.));
#161 = CARTESIAN_POINT('', (-7.77817459305203, 7.77817459305202, 60.));
#162 = PRESENTATION_STYLE_ASSIGNMENT((#163));
#163 = SURFACE_STYLE_USAGE(.POSITIVE., #164);
#164 = SURFACE_SIDE_STYLE('', (#165));
#165 = SURFACE_STYLE_FILL_AREA(#166);
#166 = FILL_AREA_STYLE('', (#167));
#167 = FILL_AREA_STYLE_COLOUR('', #168);
#168 = COLOUR_RGB('', 0.50196078431373, 0.50196078431373, 0.50196078431373);
#169 = STYLED_ITEM('', (#162), #86);
#170 = CARTESIAN_POINT('Origin', (0., 0., 0.));
#171 = GEOMETRIC_SET('', (#170));
#172 = AXIS2_PLACEMENT_3D('WCS1', #173, #174, #175);
#173 = CARTESIAN_POINT('', (0., 0., 0.));
#174 = DIRECTION('', (0., 0., 1.));
#175 = DIRECTION('', (1., 0., 0.));
#176 = (
   GEOMETRIC_REPRESENTATION_CONTEXT (3)
   GLOBAL_UNCERTAINTY_ASSIGNED_CONTEXT ((#178))
   GLOBAL_UNIT_ASSIGNED_CONTEXT ((#177, #179, #180))
   REPRESENTATION_CONTEXT ('', '3D')
);
#177 = (
   LENGTH_UNIT ()
   NAMED_UNIT (*)
   SI_UNIT (.MILLI., .METRE.)
);
#178 = UNCERTAINTY_MEASURE_WITH_UNIT(LENGTH_MEASURE(1.E-6), #177, 'DISTANCE_ACCURACY_VALUE', '');
#179 = (
   NAMED_UNIT (*)
   SI_UNIT ($, .STERADIAN.)
   SOLID_ANGLE_UNIT ()
);
#180 = (
   NAMED_UNIT (*)
   PLANE_ANGLE_UNIT ()
   SI_UNIT ($, .RADIAN.)
);
#181 = SHAPE_REPRESENTATION('', (#198), #176);
#182 = PRODUCT_DEFINITION_SHAPE('', '', #183);
#183 = PRODUCT_DEFINITION('', '', #186, #190);
#184 = APPLICATION_CONTEXT('configuration controlled 3D designs of mechanical parts and assemblies');
#185 = APPLICATION_PROTOCOL_DEFINITION('International Standard', 'automotive_design', 2002, #184);
#186 = PRODUCT_DEFINITION_FORMATION_WITH_SPECIFIED_SOURCE('', '', #187, .NOT_KNOWN.);
#187 = PRODUCT('ConeRefTest', 'ConeRefTest', '', (#188));
#188 = PRODUCT_CONTEXT('', #184, 'mechanical');
#189 = PRODUCT_RELATED_PRODUCT_CATEGORY('detail', '', (#187));
#190 = PRODUCT_DEFINITION_CONTEXT('part definition', #184, 'design');
#191 = SHAPE_DEFINITION_REPRESENTATION(#182, #181);
#192 = CONSTRUCTIVE_GEOMETRY_REPRESENTATION('supplemental geometry', (#172), #176);
#193 = CONSTRUCTIVE_GEOMETRY_REPRESENTATION_RELATIONSHIP('', '', #181, #192);
#194 = SHAPE_REPRESENTATION_RELATIONSHIP('', '', #181, #195);
#195 = SHAPE_REPRESENTATION('', (#171), #176);
#196 = SHAPE_REPRESENTATION_RELATIONSHIP('', '', #181, #197);
#197 = ADVANCED_BREP_SHAPE_REPRESENTATION('', (#1, #86), #176);
#198 = AXIS2_PLACEMENT_3D('', #199, #200, #201);
#199 = CARTESIAN_POINT('', (0., 0., 0.));
#200 = DIRECTION('', (0., 0., 1.));
#201 = DIRECTION('', (1., 0., 0.));
ENDSEC;
END-ISO-10303-21;
