ISO-10303-21;
HEADER;
FILE_DESCRIPTION(('STEP'), '1');
FILE_NAME('MultiCones', '2026-04-17T16:41:09', (''), (''), 'Express 3.1.2.0', 'Express Tool', 'Unknown');
FILE_SCHEMA(('AUTOMOTIVE_DESIGN'));
ENDSEC;

DATA;
#1 = MANIFOLD_SOLID_BREP('Standard_0', #2);
#2 = CLOSED_SHELL('', (#3, #59, #68));
#3 = ADVANCED_FACE('', (#4), #40, .T.);
#4 = FACE_OUTER_BOUND('', #5, .T.);
#5 = EDGE_LOOP('', (#6, #15, #27, #28));
#6 = ORIENTED_EDGE('', *, *, #7, .F.);
#7 = EDGE_CURVE('', #8, #10, #12, .T.);
#8 = VERTEX_POINT('', #9);
#9 = CARTESIAN_POINT('', (25., 0., 0.));
#10 = VERTEX_POINT('', #11);
#11 = CARTESIAN_POINT('', (2.5, 0., 70.));
#12 = B_SPLINE_CURVE_WITH_KNOTS('', 1, (#13, #14), .UNSPECIFIED., .F., .U., (2, 2), (0., 70.), .UNSPECIFIED.);
#13 = CARTESIAN_POINT('', (25., 0., 0.));
#14 = CARTESIAN_POINT('', (2.5, 0., 70.));
#15 = ORIENTED_EDGE('', *, *, #16, .T.);
#16 = EDGE_CURVE('', #8, #8, #17, .T.);
#17 = (
   BOUNDED_CURVE ()
   B_SPLINE_CURVE (2, (#18, #19, #20, #21, #22, #23, #24, #25, #26), .UNSPECIFIED., .T., .U.)
   B_SPLINE_CURVE_WITH_KNOTS ((3, 2, 2, 2, 3), (0., 0.25, 0.5, 0.75, 1.), .UNSPECIFIED.)
   CURVE ()
   GEOMETRIC_REPRESENTATION_ITEM ()
   RATIONAL_B_SPLINE_CURVE ((1., 0.707106781186548, 1., 0.707106781186548, 1., 0.707106781186548, 1., 0.707106781186548, 1.))
   REPRESENTATION_ITEM ('')
);
#18 = CARTESIAN_POINT('', (25., 0., 0.));
#19 = CARTESIAN_POINT('', (25., 25., 0.));
#20 = CARTESIAN_POINT('', (1.53080849893419E-15, 25., 0.));
#21 = CARTESIAN_POINT('', (-25., 25., 0.));
#22 = CARTESIAN_POINT('', (-25., 3.06161699786838E-15, 0.));
#23 = CARTESIAN_POINT('', (-25., -25., 0.));
#24 = CARTESIAN_POINT('', (-4.59242549680257E-15, -25., 0.));
#25 = CARTESIAN_POINT('', (25., -25., 0.));
#26 = CARTESIAN_POINT('', (25., 0., 0.));
#27 = ORIENTED_EDGE('', *, *, #7, .T.);
#28 = ORIENTED_EDGE('', *, *, #29, .F.);
#29 = EDGE_CURVE('', #10, #10, #30, .T.);
#30 = (
   BOUNDED_CURVE ()
   B_SPLINE_CURVE (2, (#31, #32, #33, #34, #35, #36, #37, #38, #39), .UNSPECIFIED., .T., .U.)
   B_SPLINE_CURVE_WITH_KNOTS ((3, 2, 2, 2, 3), (0., 0.25, 0.5, 0.75, 1.), .UNSPECIFIED.)
   CURVE ()
   GEOMETRIC_REPRESENTATION_ITEM ()
   RATIONAL_B_SPLINE_CURVE ((1., 0.707106781186548, 1., 0.707106781186548, 1., 0.707106781186548, 1., 0.707106781186548, 1.))
   REPRESENTATION_ITEM ('')
);
#31 = CARTESIAN_POINT('', (2.5, 0., 70.));
#32 = CARTESIAN_POINT('', (2.5, 2.5, 70.));
#33 = CARTESIAN_POINT('', (1.53080849893419E-16, 2.5, 70.));
#34 = CARTESIAN_POINT('', (-2.5, 2.5, 70.));
#35 = CARTESIAN_POINT('', (-2.5, 3.06161699786838E-16, 70.));
#36 = CARTESIAN_POINT('', (-2.5, -2.5, 70.));
#37 = CARTESIAN_POINT('', (-4.59242549680257E-16, -2.5, 70.));
#38 = CARTESIAN_POINT('', (2.5, -2.5, 70.));
#39 = CARTESIAN_POINT('', (2.5, 0., 70.));
#40 = (
   BOUNDED_SURFACE ()
   B_SPLINE_SURFACE (2, 1, ((#41, #42), (#43, #44), (#45, #46), (#47, #48), (#49, #50), (#51, #52), (#53, #54), (#55, #56), (#57, #58)), .UNSPECIFIED., .T., .F., .U.)
   B_SPLINE_SURFACE_WITH_KNOTS ((3, 2, 2, 2, 3), (2, 2), (0., 0.25, 0.5, 0.75, 1.), (0., 70.), .UNSPECIFIED.)
   GEOMETRIC_REPRESENTATION_ITEM ()
   RATIONAL_B_SPLINE_SURFACE (((1., 1.), (0.707106781186548, 0.707106781186548), (1., 1.), (0.707106781186548, 0.707106781186548), (1., 1.), (0.707106781186548, 0.707106781186548), (1., 1.), (0.707106781186548, 0.707106781186548), (1., 1.)))
   REPRESENTATION_ITEM ('')
   SURFACE ()
);
#41 = CARTESIAN_POINT('', (25., 0., 0.));
#42 = CARTESIAN_POINT('', (2.5, 0., 70.));
#43 = CARTESIAN_POINT('', (25., 25., 0.));
#44 = CARTESIAN_POINT('', (2.5, 2.5, 70.));
#45 = CARTESIAN_POINT('', (1.53080849893419E-15, 25., 0.));
#46 = CARTESIAN_POINT('', (1.53080849893419E-16, 2.5, 70.));
#47 = CARTESIAN_POINT('', (-25., 25., 0.));
#48 = CARTESIAN_POINT('', (-2.5, 2.5, 70.));
#49 = CARTESIAN_POINT('', (-25., 3.06161699786838E-15, 0.));
#50 = CARTESIAN_POINT('', (-2.5, 3.06161699786838E-16, 70.));
#51 = CARTESIAN_POINT('', (-25., -25., 0.));
#52 = CARTESIAN_POINT('', (-2.5, -2.5, 70.));
#53 = CARTESIAN_POINT('', (-4.59242549680257E-15, -25., 0.));
#54 = CARTESIAN_POINT('', (-4.59242549680257E-16, -2.5, 70.));
#55 = CARTESIAN_POINT('', (25., -25., 0.));
#56 = CARTESIAN_POINT('', (2.5, -2.5, 70.));
#57 = CARTESIAN_POINT('', (25., 0., 0.));
#58 = CARTESIAN_POINT('', (2.5, 0., 70.));
#59 = ADVANCED_FACE('', (#60), #63, .T.);
#60 = FACE_OUTER_BOUND('', #61, .T.);
#61 = EDGE_LOOP('', (#62));
#62 = ORIENTED_EDGE('', *, *, #16, .F.);
#63 = B_SPLINE_SURFACE_WITH_KNOTS('', 1, 1, ((#64, #65), (#66, #67)), .UNSPECIFIED., .F., .F., .U., (2, 2), (2, 2), (0., 1.), (0., 1.), .UNSPECIFIED.);
#64 = CARTESIAN_POINT('', (38.8908729652601, -38.8908729652601, 0.));
#65 = CARTESIAN_POINT('', (38.8908729652601, 38.8908729652601, 0.));
#66 = CARTESIAN_POINT('', (-38.8908729652601, -38.8908729652601, 0.));
#67 = CARTESIAN_POINT('', (-38.8908729652601, 38.8908729652601, 0.));
#68 = ADVANCED_FACE('', (#69), #72, .T.);
#69 = FACE_OUTER_BOUND('', #70, .T.);
#70 = EDGE_LOOP('', (#71));
#71 = ORIENTED_EDGE('', *, *, #29, .T.);
#72 = B_SPLINE_SURFACE_WITH_KNOTS('', 1, 1, ((#73, #74), (#75, #76)), .UNSPECIFIED., .F., .F., .U., (2, 2), (2, 2), (0., 1.), (0., 1.), .UNSPECIFIED.);
#73 = CARTESIAN_POINT('', (3.88908729652601, -3.88908729652601, 70.));
#74 = CARTESIAN_POINT('', (-3.88908729652601, -3.88908729652601, 70.));
#75 = CARTESIAN_POINT('', (3.88908729652601, 3.88908729652601, 70.));
#76 = CARTESIAN_POINT('', (-3.88908729652601, 3.88908729652601, 70.));
#77 = DRAUGHTING_MODEL('', (#85, #169, #253), #268);
#78 = PRESENTATION_STYLE_ASSIGNMENT((#79));
#79 = SURFACE_STYLE_USAGE(.POSITIVE., #80);
#80 = SURFACE_SIDE_STYLE('', (#81));
#81 = SURFACE_STYLE_FILL_AREA(#82);
#82 = FILL_AREA_STYLE('', (#83));
#83 = FILL_AREA_STYLE_COLOUR('', #84);
#84 = COLOUR_RGB('', 0.50196078431373, 0.50196078431373, 0.50196078431373);
#85 = STYLED_ITEM('', (#78), #1);
#86 = MANIFOLD_SOLID_BREP('FatCone_0', #87);
#87 = CLOSED_SHELL('', (#88, #144, #153));
#88 = ADVANCED_FACE('', (#89), #125, .T.);
#89 = FACE_OUTER_BOUND('', #90, .T.);
#90 = EDGE_LOOP('', (#91, #100, #112, #113));
#91 = ORIENTED_EDGE('', *, *, #92, .F.);
#92 = EDGE_CURVE('', #93, #95, #97, .T.);
#93 = VERTEX_POINT('', #94);
#94 = CARTESIAN_POINT('', (30., 0., 0.));
#95 = VERTEX_POINT('', #96);
#96 = CARTESIAN_POINT('', (20., 0., 40.));
#97 = B_SPLINE_CURVE_WITH_KNOTS('', 1, (#98, #99), .UNSPECIFIED., .F., .U., (2, 2), (0., 40.), .UNSPECIFIED.);
#98 = CARTESIAN_POINT('', (30., 0., 0.));
#99 = CARTESIAN_POINT('', (20., 0., 40.));
#100 = ORIENTED_EDGE('', *, *, #101, .T.);
#101 = EDGE_CURVE('', #93, #93, #102, .T.);
#102 = (
   BOUNDED_CURVE ()
   B_SPLINE_CURVE (2, (#103, #104, #105, #106, #107, #108, #109, #110, #111), .UNSPECIFIED., .T., .U.)
   B_SPLINE_CURVE_WITH_KNOTS ((3, 2, 2, 2, 3), (0., 0.25, 0.5, 0.75, 1.), .UNSPECIFIED.)
   CURVE ()
   GEOMETRIC_REPRESENTATION_ITEM ()
   RATIONAL_B_SPLINE_CURVE ((1., 0.707106781186548, 1., 0.707106781186548, 1., 0.707106781186548, 1., 0.707106781186548, 1.))
   REPRESENTATION_ITEM ('')
);
#103 = CARTESIAN_POINT('', (30., 0., 0.));
#104 = CARTESIAN_POINT('', (30., 30., 0.));
#105 = CARTESIAN_POINT('', (1.83697019872103E-15, 30., 0.));
#106 = CARTESIAN_POINT('', (-30., 30., 0.));
#107 = CARTESIAN_POINT('', (-30., 3.67394039744206E-15, 0.));
#108 = CARTESIAN_POINT('', (-30., -30., 0.));
#109 = CARTESIAN_POINT('', (-5.51091059616309E-15, -30., 0.));
#110 = CARTESIAN_POINT('', (30., -30., 0.));
#111 = CARTESIAN_POINT('', (30., 0., 0.));
#112 = ORIENTED_EDGE('', *, *, #92, .T.);
#113 = ORIENTED_EDGE('', *, *, #114, .F.);
#114 = EDGE_CURVE('', #95, #95, #115, .T.);
#115 = (
   BOUNDED_CURVE ()
   B_SPLINE_CURVE (2, (#116, #117, #118, #119, #120, #121, #122, #123, #124), .UNSPECIFIED., .T., .U.)
   B_SPLINE_CURVE_WITH_KNOTS ((3, 2, 2, 2, 3), (0., 0.25, 0.5, 0.75, 1.), .UNSPECIFIED.)
   CURVE ()
   GEOMETRIC_REPRESENTATION_ITEM ()
   RATIONAL_B_SPLINE_CURVE ((1., 0.707106781186548, 1., 0.707106781186548, 1., 0.707106781186548, 1., 0.707106781186548, 1.))
   REPRESENTATION_ITEM ('')
);
#116 = CARTESIAN_POINT('', (20., 0., 40.));
#117 = CARTESIAN_POINT('', (20., 20., 40.));
#118 = CARTESIAN_POINT('', (1.22464679914735E-15, 20., 40.));
#119 = CARTESIAN_POINT('', (-20., 20., 40.));
#120 = CARTESIAN_POINT('', (-20., 2.44929359829471E-15, 40.));
#121 = CARTESIAN_POINT('', (-20., -20., 40.));
#122 = CARTESIAN_POINT('', (-3.67394039744206E-15, -20., 40.));
#123 = CARTESIAN_POINT('', (20., -20., 40.));
#124 = CARTESIAN_POINT('', (20., 0., 40.));
#125 = (
   BOUNDED_SURFACE ()
   B_SPLINE_SURFACE (2, 1, ((#126, #127), (#128, #129), (#130, #131), (#132, #133), (#134, #135), (#136, #137), (#138, #139), (#140, #141), (#142, #143)), .UNSPECIFIED., .T., .F., .U.)
   B_SPLINE_SURFACE_WITH_KNOTS ((3, 2, 2, 2, 3), (2, 2), (0., 0.25, 0.5, 0.75, 1.), (0., 40.), .UNSPECIFIED.)
   GEOMETRIC_REPRESENTATION_ITEM ()
   RATIONAL_B_SPLINE_SURFACE (((1., 1.), (0.707106781186548, 0.707106781186548), (1., 1.), (0.707106781186548, 0.707106781186548), (1., 1.), (0.707106781186548, 0.707106781186548), (1., 1.), (0.707106781186548, 0.707106781186548), (1., 1.)))
   REPRESENTATION_ITEM ('')
   SURFACE ()
);
#126 = CARTESIAN_POINT('', (30., 0., 0.));
#127 = CARTESIAN_POINT('', (20., 0., 40.));
#128 = CARTESIAN_POINT('', (30., 30., 0.));
#129 = CARTESIAN_POINT('', (20., 20., 40.));
#130 = CARTESIAN_POINT('', (1.83697019872103E-15, 30., 0.));
#131 = CARTESIAN_POINT('', (1.22464679914735E-15, 20., 40.));
#132 = CARTESIAN_POINT('', (-30., 30., 0.));
#133 = CARTESIAN_POINT('', (-20., 20., 40.));
#134 = CARTESIAN_POINT('', (-30., 3.67394039744206E-15, 0.));
#135 = CARTESIAN_POINT('', (-20., 2.44929359829471E-15, 40.));
#136 = CARTESIAN_POINT('', (-30., -30., 0.));
#137 = CARTESIAN_POINT('', (-20., -20., 40.));
#138 = CARTESIAN_POINT('', (-5.51091059616309E-15, -30., 0.));
#139 = CARTESIAN_POINT('', (-3.67394039744206E-15, -20., 40.));
#140 = CARTESIAN_POINT('', (30., -30., 0.));
#141 = CARTESIAN_POINT('', (20., -20., 40.));
#142 = CARTESIAN_POINT('', (30., 0., 0.));
#143 = CARTESIAN_POINT('', (20., 0., 40.));
#144 = ADVANCED_FACE('', (#145), #148, .T.);
#145 = FACE_OUTER_BOUND('', #146, .T.);
#146 = EDGE_LOOP('', (#147));
#147 = ORIENTED_EDGE('', *, *, #101, .F.);
#148 = B_SPLINE_SURFACE_WITH_KNOTS('', 1, 1, ((#149, #150), (#151, #152)), .UNSPECIFIED., .F., .F., .U., (2, 2), (2, 2), (0., 1.), (0., 1.), .UNSPECIFIED.);
#149 = CARTESIAN_POINT('', (46.6690475583121, -46.6690475583122, 0.));
#150 = CARTESIAN_POINT('', (46.6690475583121, 46.6690475583121, 0.));
#151 = CARTESIAN_POINT('', (-46.6690475583122, -46.6690475583122, 0.));
#152 = CARTESIAN_POINT('', (-46.6690475583122, 46.6690475583121, 0.));
#153 = ADVANCED_FACE('', (#154), #157, .T.);
#154 = FACE_OUTER_BOUND('', #155, .T.);
#155 = EDGE_LOOP('', (#156));
#156 = ORIENTED_EDGE('', *, *, #114, .T.);
#157 = B_SPLINE_SURFACE_WITH_KNOTS('', 1, 1, ((#158, #159), (#160, #161)), .UNSPECIFIED., .F., .F., .U., (2, 2), (2, 2), (0., 1.), (0., 1.), .UNSPECIFIED.);
#158 = CARTESIAN_POINT('', (31.1126983722081, -31.1126983722081, 40.));
#159 = CARTESIAN_POINT('', (-31.1126983722081, -31.1126983722081, 40.));
#160 = CARTESIAN_POINT('', (31.1126983722081, 31.1126983722081, 40.));
#161 = CARTESIAN_POINT('', (-31.1126983722081, 31.1126983722081, 40.));
#162 = PRESENTATION_STYLE_ASSIGNMENT((#163));
#163 = SURFACE_STYLE_USAGE(.POSITIVE., #164);
#164 = SURFACE_SIDE_STYLE('', (#165));
#165 = SURFACE_STYLE_FILL_AREA(#166);
#166 = FILL_AREA_STYLE('', (#167));
#167 = FILL_AREA_STYLE_COLOUR('', #168);
#168 = COLOUR_RGB('', 0.50196078431373, 0.50196078431373, 0.50196078431373);
#169 = STYLED_ITEM('', (#162), #86);
#170 = MANIFOLD_SOLID_BREP('InvCone_0', #171);
#171 = CLOSED_SHELL('', (#172, #228, #237));
#172 = ADVANCED_FACE('', (#173), #209, .T.);
#173 = FACE_OUTER_BOUND('', #174, .T.);
#174 = EDGE_LOOP('', (#175, #184, #196, #197));
#175 = ORIENTED_EDGE('', *, *, #176, .F.);
#176 = EDGE_CURVE('', #177, #179, #181, .T.);
#177 = VERTEX_POINT('', #178);
#178 = CARTESIAN_POINT('', (10., 0., 0.));
#179 = VERTEX_POINT('', #180);
#180 = CARTESIAN_POINT('', (25., 0., 70.));
#181 = B_SPLINE_CURVE_WITH_KNOTS('', 1, (#182, #183), .UNSPECIFIED., .F., .U., (2, 2), (0., 70.), .UNSPECIFIED.);
#182 = CARTESIAN_POINT('', (10., 0., 0.));
#183 = CARTESIAN_POINT('', (25., 0., 70.));
#184 = ORIENTED_EDGE('', *, *, #185, .T.);
#185 = EDGE_CURVE('', #177, #177, #186, .T.);
#186 = (
   BOUNDED_CURVE ()
   B_SPLINE_CURVE (2, (#187, #188, #189, #190, #191, #192, #193, #194, #195), .UNSPECIFIED., .T., .U.)
   B_SPLINE_CURVE_WITH_KNOTS ((3, 2, 2, 2, 3), (0., 0.25, 0.5, 0.75, 1.), .UNSPECIFIED.)
   CURVE ()
   GEOMETRIC_REPRESENTATION_ITEM ()
   RATIONAL_B_SPLINE_CURVE ((1., 0.707106781186548, 1., 0.707106781186548, 1., 0.707106781186548, 1., 0.707106781186548, 1.))
   REPRESENTATION_ITEM ('')
);
#187 = CARTESIAN_POINT('', (10., 0., 0.));
#188 = CARTESIAN_POINT('', (10., 10., 0.));
#189 = CARTESIAN_POINT('', (6.12323399573677E-16, 10., 0.));
#190 = CARTESIAN_POINT('', (-10., 10., 0.));
#191 = CARTESIAN_POINT('', (-10., 1.22464679914735E-15, 0.));
#192 = CARTESIAN_POINT('', (-10., -10., 0.));
#193 = CARTESIAN_POINT('', (-1.83697019872103E-15, -10., 0.));
#194 = CARTESIAN_POINT('', (10., -10., 0.));
#195 = CARTESIAN_POINT('', (10., 0., 0.));
#196 = ORIENTED_EDGE('', *, *, #176, .T.);
#197 = ORIENTED_EDGE('', *, *, #198, .F.);
#198 = EDGE_CURVE('', #179, #179, #199, .T.);
#199 = (
   BOUNDED_CURVE ()
   B_SPLINE_CURVE (2, (#200, #201, #202, #203, #204, #205, #206, #207, #208), .UNSPECIFIED., .T., .U.)
   B_SPLINE_CURVE_WITH_KNOTS ((3, 2, 2, 2, 3), (0., 0.25, 0.5, 0.75, 1.), .UNSPECIFIED.)
   CURVE ()
   GEOMETRIC_REPRESENTATION_ITEM ()
   RATIONAL_B_SPLINE_CURVE ((1., 0.707106781186548, 1., 0.707106781186548, 1., 0.707106781186548, 1., 0.707106781186548, 1.))
   REPRESENTATION_ITEM ('')
);
#200 = CARTESIAN_POINT('', (25., 0., 70.));
#201 = CARTESIAN_POINT('', (25., 25., 70.));
#202 = CARTESIAN_POINT('', (1.53080849893419E-15, 25., 70.));
#203 = CARTESIAN_POINT('', (-25., 25., 70.));
#204 = CARTESIAN_POINT('', (-25., 3.06161699786838E-15, 70.));
#205 = CARTESIAN_POINT('', (-25., -25., 70.));
#206 = CARTESIAN_POINT('', (-4.59242549680257E-15, -25., 70.));
#207 = CARTESIAN_POINT('', (25., -25., 70.));
#208 = CARTESIAN_POINT('', (25., 0., 70.));
#209 = (
   BOUNDED_SURFACE ()
   B_SPLINE_SURFACE (2, 1, ((#210, #211), (#212, #213), (#214, #215), (#216, #217), (#218, #219), (#220, #221), (#222, #223), (#224, #225), (#226, #227)), .UNSPECIFIED., .T., .F., .U.)
   B_SPLINE_SURFACE_WITH_KNOTS ((3, 2, 2, 2, 3), (2, 2), (0., 0.25, 0.5, 0.75, 1.), (0., 70.), .UNSPECIFIED.)
   GEOMETRIC_REPRESENTATION_ITEM ()
   RATIONAL_B_SPLINE_SURFACE (((1., 1.), (0.707106781186548, 0.707106781186548), (1., 1.), (0.707106781186548, 0.707106781186548), (1., 1.), (0.707106781186548, 0.707106781186548), (1., 1.), (0.707106781186548, 0.707106781186548), (1., 1.)))
   REPRESENTATION_ITEM ('')
   SURFACE ()
);
#210 = CARTESIAN_POINT('', (10., 0., 0.));
#211 = CARTESIAN_POINT('', (25., 0., 70.));
#212 = CARTESIAN_POINT('', (10., 10., 0.));
#213 = CARTESIAN_POINT('', (25., 25., 70.));
#214 = CARTESIAN_POINT('', (6.12323399573677E-16, 10., 0.));
#215 = CARTESIAN_POINT('', (1.53080849893419E-15, 25., 70.));
#216 = CARTESIAN_POINT('', (-10., 10., 0.));
#217 = CARTESIAN_POINT('', (-25., 25., 70.));
#218 = CARTESIAN_POINT('', (-10., 1.22464679914735E-15, 0.));
#219 = CARTESIAN_POINT('', (-25., 3.06161699786838E-15, 70.));
#220 = CARTESIAN_POINT('', (-10., -10., 0.));
#221 = CARTESIAN_POINT('', (-25., -25., 70.));
#222 = CARTESIAN_POINT('', (-1.83697019872103E-15, -10., 0.));
#223 = CARTESIAN_POINT('', (-4.59242549680257E-15, -25., 70.));
#224 = CARTESIAN_POINT('', (10., -10., 0.));
#225 = CARTESIAN_POINT('', (25., -25., 70.));
#226 = CARTESIAN_POINT('', (10., 0., 0.));
#227 = CARTESIAN_POINT('', (25., 0., 70.));
#228 = ADVANCED_FACE('', (#229), #232, .T.);
#229 = FACE_OUTER_BOUND('', #230, .T.);
#230 = EDGE_LOOP('', (#231));
#231 = ORIENTED_EDGE('', *, *, #185, .F.);
#232 = B_SPLINE_SURFACE_WITH_KNOTS('', 1, 1, ((#233, #234), (#235, #236)), .UNSPECIFIED., .F., .F., .U., (2, 2), (2, 2), (0., 1.), (0., 1.), .UNSPECIFIED.);
#233 = CARTESIAN_POINT('', (15.556349186104, -15.5563491861041, 0.));
#234 = CARTESIAN_POINT('', (15.556349186104, 15.556349186104, 0.));
#235 = CARTESIAN_POINT('', (-15.5563491861041, -15.5563491861041, 0.));
#236 = CARTESIAN_POINT('', (-15.5563491861041, 15.556349186104, 0.));
#237 = ADVANCED_FACE('', (#238), #241, .T.);
#238 = FACE_OUTER_BOUND('', #239, .T.);
#239 = EDGE_LOOP('', (#240));
#240 = ORIENTED_EDGE('', *, *, #198, .T.);
#241 = B_SPLINE_SURFACE_WITH_KNOTS('', 1, 1, ((#242, #243), (#244, #245)), .UNSPECIFIED., .F., .F., .U., (2, 2), (2, 2), (0., 1.), (0., 1.), .UNSPECIFIED.);
#242 = CARTESIAN_POINT('', (38.8908729652601, -38.8908729652601, 70.));
#243 = CARTESIAN_POINT('', (-38.8908729652601, -38.8908729652601, 70.));
#244 = CARTESIAN_POINT('', (38.8908729652601, 38.8908729652601, 70.));
#245 = CARTESIAN_POINT('', (-38.8908729652601, 38.8908729652601, 70.));
#246 = PRESENTATION_STYLE_ASSIGNMENT((#247));
#247 = SURFACE_STYLE_USAGE(.POSITIVE., #248);
#248 = SURFACE_SIDE_STYLE('', (#249));
#249 = SURFACE_STYLE_FILL_AREA(#250);
#250 = FILL_AREA_STYLE('', (#251));
#251 = FILL_AREA_STYLE_COLOUR('', #252);
#252 = COLOUR_RGB('', 0.50196078431373, 0.50196078431373, 0.50196078431373);
#253 = STYLED_ITEM('', (#246), #170);
#254 = CARTESIAN_POINT('Origin', (0., 0., 0.));
#255 = GEOMETRIC_SET('', (#254));
#256 = AXIS2_PLACEMENT_3D('WCS1', #257, #258, #259);
#257 = CARTESIAN_POINT('', (0., 0., 0.));
#258 = DIRECTION('', (0., 0., 1.));
#259 = DIRECTION('', (1., 0., 0.));
#260 = AXIS2_PLACEMENT_3D('WCS2', #261, #262, #263);
#261 = CARTESIAN_POINT('', (0., 0., 0.));
#262 = DIRECTION('', (0., 0., 1.));
#263 = DIRECTION('', (1., 0., 0.));
#264 = AXIS2_PLACEMENT_3D('WCS3', #265, #266, #267);
#265 = CARTESIAN_POINT('', (0., 0., 0.));
#266 = DIRECTION('', (0., 0., 1.));
#267 = DIRECTION('', (1., 0., 0.));
#268 = (
   GEOMETRIC_REPRESENTATION_CONTEXT (3)
   GLOBAL_UNCERTAINTY_ASSIGNED_CONTEXT ((#270))
   GLOBAL_UNIT_ASSIGNED_CONTEXT ((#269, #271, #272))
   REPRESENTATION_CONTEXT ('', '3D')
);
#269 = (
   LENGTH_UNIT ()
   NAMED_UNIT (*)
   SI_UNIT (.MILLI., .METRE.)
);
#270 = UNCERTAINTY_MEASURE_WITH_UNIT(LENGTH_MEASURE(1.E-6), #269, 'DISTANCE_ACCURACY_VALUE', '');
#271 = (
   NAMED_UNIT (*)
   SI_UNIT ($, .STERADIAN.)
   SOLID_ANGLE_UNIT ()
);
#272 = (
   NAMED_UNIT (*)
   PLANE_ANGLE_UNIT ()
   SI_UNIT ($, .RADIAN.)
);
#273 = SHAPE_REPRESENTATION('', (#290), #268);
#274 = PRODUCT_DEFINITION_SHAPE('', '', #275);
#275 = PRODUCT_DEFINITION('', '', #278, #282);
#276 = APPLICATION_CONTEXT('configuration controlled 3D designs of mechanical parts and assemblies');
#277 = APPLICATION_PROTOCOL_DEFINITION('International Standard', 'automotive_design', 2002, #276);
#278 = PRODUCT_DEFINITION_FORMATION_WITH_SPECIFIED_SOURCE('', '', #279, .NOT_KNOWN.);
#279 = PRODUCT('MultiCones', 'MultiCones', '', (#280));
#280 = PRODUCT_CONTEXT('', #276, 'mechanical');
#281 = PRODUCT_RELATED_PRODUCT_CATEGORY('detail', '', (#279));
#282 = PRODUCT_DEFINITION_CONTEXT('part definition', #276, 'design');
#283 = SHAPE_DEFINITION_REPRESENTATION(#274, #273);
#284 = CONSTRUCTIVE_GEOMETRY_REPRESENTATION('supplemental geometry', (#256, #260, #264), #268);
#285 = CONSTRUCTIVE_GEOMETRY_REPRESENTATION_RELATIONSHIP('', '', #273, #284);
#286 = SHAPE_REPRESENTATION_RELATIONSHIP('', '', #273, #287);
#287 = SHAPE_REPRESENTATION('', (#255), #268);
#288 = SHAPE_REPRESENTATION_RELATIONSHIP('', '', #273, #289);
#289 = ADVANCED_BREP_SHAPE_REPRESENTATION('', (#1, #86, #170), #268);
#290 = AXIS2_PLACEMENT_3D('', #291, #292, #293);
#291 = CARTESIAN_POINT('', (0., 0., 0.));
#292 = DIRECTION('', (0., 0., 1.));
#293 = DIRECTION('', (1., 0., 0.));
ENDSEC;
END-ISO-10303-21;
