ISO-10303-21;
HEADER;
FILE_DESCRIPTION(('STEP'), '1');
FILE_NAME('E2E', '2026-04-21T21:07:43', (''), (''), 'Express 3.1.2.0', 'Express Tool', 'Unknown');
FILE_SCHEMA(('AUTOMOTIVE_DESIGN'));
ENDSEC;

DATA;
#1 = MANIFOLD_SOLID_BREP('Fillet_0', #2);
#2 = CLOSED_SHELL('', (#3, #107, #142, #164, #192, #220, #236, #250));
#3 = ADVANCED_FACE('', (#4), #100, .T.);
#4 = FACE_OUTER_BOUND('', #5, .T.);
#5 = EDGE_LOOP('', (#6, #15, #23, #30));
#6 = ORIENTED_EDGE('', *, *, #7, .F.);
#7 = EDGE_CURVE('', #8, #10, #12, .T.);
#8 = VERTEX_POINT('', #9);
#9 = CARTESIAN_POINT('', (0., 8., 0.));
#10 = VERTEX_POINT('', #11);
#11 = CARTESIAN_POINT('', (0., 8., 40.));
#12 = B_SPLINE_CURVE_WITH_KNOTS('', 1, (#13, #14), .UNSPECIFIED., .F., .U., (2, 2), (0.25, 0.75), .UNSPECIFIED.);
#13 = CARTESIAN_POINT('', (0., 8., 0.));
#14 = CARTESIAN_POINT('', (0., 8., 40.));
#15 = ORIENTED_EDGE('', *, *, #16, .T.);
#16 = EDGE_CURVE('', #8, #17, #19, .T.);
#17 = VERTEX_POINT('', #18);
#18 = CARTESIAN_POINT('', (8., 0., 0.));
#19 = (
   BOUNDED_CURVE ()
   B_SPLINE_CURVE (2, (#20, #21, #22), .UNSPECIFIED., .F., .U.)
   B_SPLINE_CURVE_WITH_KNOTS ((3, 3), (0., 1.), .UNSPECIFIED.)
   CURVE ()
   GEOMETRIC_REPRESENTATION_ITEM ()
   RATIONAL_B_SPLINE_CURVE ((1., 0.707106781186548, 1.))
   REPRESENTATION_ITEM ('')
);
#20 = CARTESIAN_POINT('', (-8.88178419700125E-16, 8., 0.));
#21 = CARTESIAN_POINT('', (-8.88178419700125E-16, 6.89018569679533E-16, 0.));
#22 = CARTESIAN_POINT('', (8., 0., 0.));
#23 = ORIENTED_EDGE('', *, *, #24, .T.);
#24 = EDGE_CURVE('', #17, #25, #27, .T.);
#25 = VERTEX_POINT('', #26);
#26 = CARTESIAN_POINT('', (8., 1.77635683940025E-15, 32.));
#27 = B_SPLINE_CURVE_WITH_KNOTS('', 1, (#28, #29), .UNSPECIFIED., .F., .U., (2, 2), (0.25, 0.65), .UNSPECIFIED.);
#28 = CARTESIAN_POINT('', (8., 0., 0.));
#29 = CARTESIAN_POINT('', (8., 0., 32.));
#30 = ORIENTED_EDGE('', *, *, #31, .F.);
#31 = EDGE_CURVE('', #10, #25, #32, .T.);
#32 = B_SPLINE_CURVE_WITH_KNOTS('', 3, (#33, #34, #35, #36, #37, #38, #39, #40, #41, #42, #43, #44, #45, #46, #47, #48, #49, #50, #51, #52, #53, #54, #55, #56, #57, #58, #59, #60, #61, #62, #63, #64, #65, #66, #67, #68, #69, #70, #71, #72, #73, #74, #75, #76, #77, #78, #79, #80, #81, #82, #83, #84, #85, #86, #87, #88, #89, #90, #91, #92, #93, #94, #95, #96, #97, #98, #99), .UNSPECIFIED., .F., .U., (4, 3, 3, 3, 3, 3, 3, 3, 3, 3, 3, 3, 3, 3, 3, 3, 3, 3, 3, 3, 3, 3, 4), (0., 0.442914798863033, 0.885412493159416, 1.32746774902231, 1.76906921263308, 2.21021905256177, 2.87337979215606, 3.5351412884125, 4.19566613608766, 4.85512809487876, 5.51369210049618, 6.1715037838913, 6.82868580845881, 7.813302871399, 8.79647277093393, 9.77847488248477, 10.7594904250366, 11.7396274819737, 13.9239040839268, 14.9013384554243, 15.1925152184264, 15.2501500746677, 15.275686759415), .UNSPECIFIED.);
#33 = CARTESIAN_POINT('', (-4.44089209850063E-16, 8., 40.));
#34 = CARTESIAN_POINT('', (-4.44089209850063E-16, 7.85236173371232, 40.));
#35 = CARTESIAN_POINT('', (0.00409629365820266, 7.70461132421493, 39.9959037063418));
#36 = CARTESIAN_POINT('', (0.0122514637929232, 7.5574242185549, 39.9877485362071));
#37 = CARTESIAN_POINT('', (0.0203989539884912, 7.41037572288053, 39.9796010460115));
#38 = CARTESIAN_POINT('', (0.0326095626745635, 7.26366831932862, 39.9673904373254));
#39 = CARTESIAN_POINT('', (0.0487742936634641, 7.11795138065236, 39.9512257063365));
#40 = CARTESIAN_POINT('', (0.0649228620862119, 6.97238013939986, 39.9350771379138));
#41 = CARTESIAN_POINT('', (0.0850405976586463, 6.82758442836957, 39.9149594023414));
#42 = CARTESIAN_POINT('', (0.108955561398487, 6.68416655004666, 39.8910444386015));
#43 = CARTESIAN_POINT('', (0.13284597520908, 6.54089589748599, 39.8671540247909));
#44 = CARTESIAN_POINT('', (0.160558375368751, 6.39879964830312, 39.8394416246312));
#45 = CARTESIAN_POINT('', (0.191870215845364, 6.25841759488753, 39.8081297841546));
#46 = CARTESIAN_POINT('', (0.223150033854087, 6.11817910951935, 39.7768499661459));
#47 = CARTESIAN_POINT('', (0.258062212955551, 5.97946610720616, 39.7419377870445));
#48 = CARTESIAN_POINT('', (0.29634767249788, 5.84274692792636, 39.7036523275021));
#49 = CARTESIAN_POINT('', (0.353900484190847, 5.6372231266198, 39.6460995158092));
#50 = CARTESIAN_POINT('', (0.419214129868944, 5.43575517453849, 39.5807858701311));
#51 = CARTESIAN_POINT('', (0.491316497976445, 5.23962465116793, 39.5086835020236));
#52 = CARTESIAN_POINT('', (0.56326673289482, 5.04390795556459, 39.4367332671052));
#53 = CARTESIAN_POINT('', (0.642146560353069, 4.85302399812902, 39.3578534396469));
#54 = CARTESIAN_POINT('', (0.726961074867288, 4.66789784167634, 39.2730389251327));
#55 = CARTESIAN_POINT('', (0.811617094592008, 4.48311763463297, 39.188382905408));
#56 = CARTESIAN_POINT('', (0.902360302400369, 4.30367810980149, 39.0976396975996));
#57 = CARTESIAN_POINT('', (0.99823634406007, 4.13020598657246, 39.0017636559399));
#58 = CARTESIAN_POINT('', (1.09395810601434, 3.95701300740912, 38.9060418939857));
#59 = CARTESIAN_POINT('', (1.19496729442005, 3.78944921605247, 38.80503270558));
#60 = CARTESIAN_POINT('', (1.30038594192404, 3.62790994227798, 38.699614058076));
#61 = CARTESIAN_POINT('', (1.4056610466386, 3.46659062767115, 38.5943389533614));
#62 = CARTESIAN_POINT('', (1.51549583546427, 3.3110247797533, 38.4845041645357));
#63 = CARTESIAN_POINT('', (1.62910367252789, 3.16143823180866, 38.3708963274721));
#64 = CARTESIAN_POINT('', (1.74258172767248, 3.01202256669882, 38.2574182723275));
#65 = CARTESIAN_POINT('', (1.85997496822321, 2.86837020962216, 38.1400250317768));
#66 = CARTESIAN_POINT('', (1.98058957198407, 2.73058844849888, 38.0194104280159));
#67 = CARTESIAN_POINT('', (2.10108872317407, 2.59293857238824, 37.8989112768259));
#68 = CARTESIAN_POINT('', (2.22494160399051, 2.46098739450013, 37.7750583960095));
#69 = CARTESIAN_POINT('', (2.35154120139208, 2.33476274102938, 37.6484587986079));
#70 = CARTESIAN_POINT('', (2.54121791058842, 2.1456477882082, 37.4587820894116));
#71 = CARTESIAN_POINT('', (2.7373959980958, 1.96905174552531, 37.2626040019042));
#72 = CARTESIAN_POINT('', (2.93834684879033, 1.80486744477169, 37.0616531512097));
#73 = CARTESIAN_POINT('', (3.1390023473847, 1.64092445764212, 36.8609976526153));
#74 = CARTESIAN_POINT('', (3.34479285805286, 1.48904355923069, 36.6552071419471));
#75 = CARTESIAN_POINT('', (3.55430479859646, 1.34900051298923, 36.4456952014035));
#76 = CARTESIAN_POINT('', (3.76356788537958, 1.20912380685513, 36.2364321146204));
#77 = CARTESIAN_POINT('', (3.9768748225855, 1.0808325638631, 36.0231251774145));
#78 = CARTESIAN_POINT('', (4.19305384435969, 0.963867470829197, 35.8069461556403));
#79 = CARTESIAN_POINT('', (4.4090156817525, 0.847019886844808, 35.5909843182475));
#80 = CARTESIAN_POINT('', (4.62813927167778, 0.74131443444347, 35.3718607283222));
#81 = CARTESIAN_POINT('', (4.84943427271222, 0.646501812195797, 35.1505657272878));
#82 = CARTESIAN_POINT('', (5.07053110718701, 0.55177409331727, 34.929468892813));
#83 = CARTESIAN_POINT('', (5.29406325880243, 0.467804263527166, 34.7059367411976));
#84 = CARTESIAN_POINT('', (5.51917367893216, 0.394377029808998, 34.4808263210678));
#85 = CARTESIAN_POINT('', (6.0208417059342, 0.230741355163719, 33.9791582940658));
#86 = CARTESIAN_POINT('', (6.53218696745854, 0.118852528136631, 33.4678130325415));
#87 = CARTESIAN_POINT('', (7.04517593507082, 0.0571849445532147, 32.9548240649292));
#88 = CARTESIAN_POINT('', (7.27473159148125, 0.0295895311574333, 32.7252684085187));
#89 = CARTESIAN_POINT('', (7.50499666610775, 0.0120041738836368, 32.4950033338922));
#90 = CARTESIAN_POINT('', (7.73531706686204, 0.00437976483966063, 32.2646829331379));
#91 = CARTESIAN_POINT('', (7.80392929362693, 0.00210846068874595, 32.196070706373));
#92 = CARTESIAN_POINT('', (7.87255898634559, 0.000720711689636202, 32.1274410136545));
#93 = CARTESIAN_POINT('', (7.94118908027909, 0.000216173188078983, 32.0588109197204));
#94 = CARTESIAN_POINT('', (7.95477356262892, 0.000116306001887255, 32.0452264373705));
#95 = CARTESIAN_POINT('', (7.96835819420468, 5.10414288560285E-5, 32.031641805795));
#96 = CARTESIAN_POINT('', (7.98194284279535, 2.03788338510869E-5, 32.0180571572034));
#97 = CARTESIAN_POINT('', (7.98796188944673, 6.79294029223627E-6, 32.0120381105516));
#98 = CARTESIAN_POINT('', (7.99398094568207, 1.77624465045827E-15, 32.0060190543179));
#99 = CARTESIAN_POINT('', (8., 1.77635683940025E-15, 32.));
#100 = (
   BOUNDED_SURFACE ()
   B_SPLINE_SURFACE (2, 1, ((#101, #102), (#103, #104), (#105, #106)), .UNSPECIFIED., .F., .F., .U.)
   B_SPLINE_SURFACE_WITH_KNOTS ((3, 3), (2, 2), (0., 1.), (0.25, 0.75), .UNSPECIFIED.)
   GEOMETRIC_REPRESENTATION_ITEM ()
   RATIONAL_B_SPLINE_SURFACE (((1., 1.), (0.707106781186548, 0.707106781186548), (1., 1.)))
   REPRESENTATION_ITEM ('')
   SURFACE ()
);
#101 = CARTESIAN_POINT('', (-8.88178419700125E-16, 8., 0.));
#102 = CARTESIAN_POINT('', (-8.88178419700125E-16, 8., 40.));
#103 = CARTESIAN_POINT('', (-8.88178419700125E-16, 6.89018569679533E-16, 0.));
#104 = CARTESIAN_POINT('', (-8.88178419700125E-16, 6.89018569679533E-16, 40.));
#105 = CARTESIAN_POINT('', (8., 0., 0.));
#106 = CARTESIAN_POINT('', (8., 0., 40.));
#107 = ADVANCED_FACE('', (#108), #137, .T.);
#108 = FACE_OUTER_BOUND('', #109, .T.);
#109 = EDGE_LOOP('', (#110, #111, #118, #125, #132));
#110 = ORIENTED_EDGE('', *, *, #16, .F.);
#111 = ORIENTED_EDGE('', *, *, #112, .T.);
#112 = EDGE_CURVE('', #8, #113, #115, .T.);
#113 = VERTEX_POINT('', #114);
#114 = CARTESIAN_POINT('', (0., 60., 0.));
#115 = B_SPLINE_CURVE_WITH_KNOTS('', 1, (#116, #117), .UNSPECIFIED., .F., .U., (2, 2), (8., 60.), .UNSPECIFIED.);
#116 = CARTESIAN_POINT('', (0., 8., 0.));
#117 = CARTESIAN_POINT('', (0., 60., 0.));
#118 = ORIENTED_EDGE('', *, *, #119, .T.);
#119 = EDGE_CURVE('', #113, #120, #122, .T.);
#120 = VERTEX_POINT('', #121);
#121 = CARTESIAN_POINT('', (80., 60., 0.));
#122 = B_SPLINE_CURVE_WITH_KNOTS('', 1, (#123, #124), .UNSPECIFIED., .F., .U., (2, 2), (0., 80.), .UNSPECIFIED.);
#123 = CARTESIAN_POINT('', (0., 60., 0.));
#124 = CARTESIAN_POINT('', (80., 60., 0.));
#125 = ORIENTED_EDGE('', *, *, #126, .F.);
#126 = EDGE_CURVE('', #127, #120, #129, .T.);
#127 = VERTEX_POINT('', #128);
#128 = CARTESIAN_POINT('', (80., 0., 0.));
#129 = B_SPLINE_CURVE_WITH_KNOTS('', 1, (#130, #131), .UNSPECIFIED., .F., .U., (2, 2), (0., 60.), .UNSPECIFIED.);
#130 = CARTESIAN_POINT('', (80., 0., 0.));
#131 = CARTESIAN_POINT('', (80., 60., 0.));
#132 = ORIENTED_EDGE('', *, *, #133, .F.);
#133 = EDGE_CURVE('', #17, #127, #134, .T.);
#134 = B_SPLINE_CURVE_WITH_KNOTS('', 1, (#135, #136), .UNSPECIFIED., .F., .U., (2, 2), (8., 80.), .UNSPECIFIED.);
#135 = CARTESIAN_POINT('', (8., 0., 0.));
#136 = CARTESIAN_POINT('', (80., 0., 0.));
#137 = B_SPLINE_SURFACE_WITH_KNOTS('', 1, 1, ((#138, #139), (#140, #141)), .UNSPECIFIED., .F., .F., .U., (2, 2), (2, 2), (0., 60.), (0., 80.), .UNSPECIFIED.);
#138 = CARTESIAN_POINT('', (0., 0., 0.));
#139 = CARTESIAN_POINT('', (80., 0., 0.));
#140 = CARTESIAN_POINT('', (0., 60., 0.));
#141 = CARTESIAN_POINT('', (80., 60., 0.));
#142 = ADVANCED_FACE('', (#143), #159, .T.);
#143 = FACE_OUTER_BOUND('', #144, .T.);
#144 = EDGE_LOOP('', (#145, #146, #153, #158));
#145 = ORIENTED_EDGE('', *, *, #7, .T.);
#146 = ORIENTED_EDGE('', *, *, #147, .T.);
#147 = EDGE_CURVE('', #10, #148, #150, .T.);
#148 = VERTEX_POINT('', #149);
#149 = CARTESIAN_POINT('', (0., 60., 40.));
#150 = B_SPLINE_CURVE_WITH_KNOTS('', 1, (#151, #152), .UNSPECIFIED., .F., .U., (2, 2), (8., 60.), .UNSPECIFIED.);
#151 = CARTESIAN_POINT('', (0., 8., 40.));
#152 = CARTESIAN_POINT('', (0., 60., 40.));
#153 = ORIENTED_EDGE('', *, *, #154, .F.);
#154 = EDGE_CURVE('', #113, #148, #155, .T.);
#155 = B_SPLINE_CURVE_WITH_KNOTS('', 1, (#156, #157), .UNSPECIFIED., .F., .U., (2, 2), (0., 40.), .UNSPECIFIED.);
#156 = CARTESIAN_POINT('', (0., 60., 0.));
#157 = CARTESIAN_POINT('', (0., 60., 40.));
#158 = ORIENTED_EDGE('', *, *, #112, .F.);
#159 = B_SPLINE_SURFACE_WITH_KNOTS('', 1, 1, ((#160, #161), (#162, #163)), .UNSPECIFIED., .F., .F., .U., (2, 2), (2, 2), (0., 40.), (8., 60.), .UNSPECIFIED.);
#160 = CARTESIAN_POINT('', (0., 8., 0.));
#161 = CARTESIAN_POINT('', (0., 60., 0.));
#162 = CARTESIAN_POINT('', (0., 8., 40.));
#163 = CARTESIAN_POINT('', (0., 60., 40.));
#164 = ADVANCED_FACE('', (#165), #187, .T.);
#165 = FACE_OUTER_BOUND('', #166, .T.);
#166 = EDGE_LOOP('', (#167, #174, #181, #186));
#167 = ORIENTED_EDGE('', *, *, #168, .T.);
#168 = EDGE_CURVE('', #10, #169, #171, .T.);
#169 = VERTEX_POINT('', #170);
#170 = CARTESIAN_POINT('', (80., 8., 40.));
#171 = B_SPLINE_CURVE_WITH_KNOTS('', 1, (#172, #173), .UNSPECIFIED., .F., .U., (2, 2), (0.25, 0.75), .UNSPECIFIED.);
#172 = CARTESIAN_POINT('', (0., 8., 40.));
#173 = CARTESIAN_POINT('', (80., 8., 40.));
#174 = ORIENTED_EDGE('', *, *, #175, .T.);
#175 = EDGE_CURVE('', #169, #176, #178, .T.);
#176 = VERTEX_POINT('', #177);
#177 = CARTESIAN_POINT('', (80., 60., 40.));
#178 = B_SPLINE_CURVE_WITH_KNOTS('', 1, (#179, #180), .UNSPECIFIED., .F., .U., (2, 2), (8., 60.), .UNSPECIFIED.);
#179 = CARTESIAN_POINT('', (80., 8., 40.));
#180 = CARTESIAN_POINT('', (80., 60., 40.));
#181 = ORIENTED_EDGE('', *, *, #182, .F.);
#182 = EDGE_CURVE('', #148, #176, #183, .T.);
#183 = B_SPLINE_CURVE_WITH_KNOTS('', 1, (#184, #185), .UNSPECIFIED., .F., .U., (2, 2), (0., 80.), .UNSPECIFIED.);
#184 = CARTESIAN_POINT('', (0., 60., 40.));
#185 = CARTESIAN_POINT('', (80., 60., 40.));
#186 = ORIENTED_EDGE('', *, *, #147, .F.);
#187 = B_SPLINE_SURFACE_WITH_KNOTS('', 1, 1, ((#188, #189), (#190, #191)), .UNSPECIFIED., .F., .F., .U., (2, 2), (2, 2), (0., 80.), (8., 60.), .UNSPECIFIED.);
#188 = CARTESIAN_POINT('', (0., 8., 40.));
#189 = CARTESIAN_POINT('', (0., 60., 40.));
#190 = CARTESIAN_POINT('', (80., 8., 40.));
#191 = CARTESIAN_POINT('', (80., 60., 40.));
#192 = ADVANCED_FACE('', (#193), #215, .T.);
#193 = FACE_OUTER_BOUND('', #194, .T.);
#194 = EDGE_LOOP('', (#195, #203, #208, #209, #214));
#195 = ORIENTED_EDGE('', *, *, #196, .F.);
#196 = EDGE_CURVE('', #197, #169, #199, .T.);
#197 = VERTEX_POINT('', #198);
#198 = CARTESIAN_POINT('', (80., 3.5527136788005E-15, 32.));
#199 = (
   BOUNDED_CURVE ()
   B_SPLINE_CURVE (2, (#200, #201, #202), .UNSPECIFIED., .F., .U.)
   B_SPLINE_CURVE_WITH_KNOTS ((3, 3), (0., 1.), .UNSPECIFIED.)
   CURVE ()
   GEOMETRIC_REPRESENTATION_ITEM ()
   RATIONAL_B_SPLINE_CURVE ((1., 0.707106781186546, 1.))
   REPRESENTATION_ITEM ('')
);
#200 = CARTESIAN_POINT('', (80., 3.5527136788005E-15, 32.));
#201 = CARTESIAN_POINT('', (80., -1.0413211676572E-14, 40.));
#202 = CARTESIAN_POINT('', (80., 8., 40.));
#203 = ORIENTED_EDGE('', *, *, #204, .F.);
#204 = EDGE_CURVE('', #127, #197, #205, .T.);
#205 = B_SPLINE_CURVE_WITH_KNOTS('', 1, (#206, #207), .UNSPECIFIED., .F., .U., (2, 2), (0., 32.), .UNSPECIFIED.);
#206 = CARTESIAN_POINT('', (80., 0., 0.));
#207 = CARTESIAN_POINT('', (80., 0., 32.));
#208 = ORIENTED_EDGE('', *, *, #126, .T.);
#209 = ORIENTED_EDGE('', *, *, #210, .T.);
#210 = EDGE_CURVE('', #120, #176, #211, .T.);
#211 = B_SPLINE_CURVE_WITH_KNOTS('', 1, (#212, #213), .UNSPECIFIED., .F., .U., (2, 2), (0., 40.), .UNSPECIFIED.);
#212 = CARTESIAN_POINT('', (80., 60., 0.));
#213 = CARTESIAN_POINT('', (80., 60., 40.));
#214 = ORIENTED_EDGE('', *, *, #175, .F.);
#215 = B_SPLINE_SURFACE_WITH_KNOTS('', 1, 1, ((#216, #217), (#218, #219)), .UNSPECIFIED., .F., .F., .U., (2, 2), (2, 2), (0., 60.), (0., 40.), .UNSPECIFIED.);
#216 = CARTESIAN_POINT('', (80., 0., 0.));
#217 = CARTESIAN_POINT('', (80., 0., 40.));
#218 = CARTESIAN_POINT('', (80., 60., 0.));
#219 = CARTESIAN_POINT('', (80., 60., 40.));
#220 = ADVANCED_FACE('', (#221), #231, .T.);
#221 = FACE_OUTER_BOUND('', #222, .T.);
#222 = EDGE_LOOP('', (#223, #224, #225, #226));
#223 = ORIENTED_EDGE('', *, *, #24, .F.);
#224 = ORIENTED_EDGE('', *, *, #133, .T.);
#225 = ORIENTED_EDGE('', *, *, #204, .T.);
#226 = ORIENTED_EDGE('', *, *, #227, .F.);
#227 = EDGE_CURVE('', #25, #197, #228, .T.);
#228 = B_SPLINE_CURVE_WITH_KNOTS('', 1, (#229, #230), .UNSPECIFIED., .F., .U., (2, 2), (0.3, 0.75), .UNSPECIFIED.);
#229 = CARTESIAN_POINT('', (8.00000000000001, 0., 32.));
#230 = CARTESIAN_POINT('', (80., 0., 32.));
#231 = B_SPLINE_SURFACE_WITH_KNOTS('', 1, 1, ((#232, #233), (#234, #235)), .UNSPECIFIED., .F., .F., .U., (2, 2), (2, 2), (8., 80.), (0., 32.), .UNSPECIFIED.);
#232 = CARTESIAN_POINT('', (8., 0., 0.));
#233 = CARTESIAN_POINT('', (8., 0., 32.));
#234 = CARTESIAN_POINT('', (80., 0., 0.));
#235 = CARTESIAN_POINT('', (80., 0., 32.));
#236 = ADVANCED_FACE('', (#237), #243, .T.);
#237 = FACE_OUTER_BOUND('', #238, .T.);
#238 = EDGE_LOOP('', (#239, #240, #241, #242));
#239 = ORIENTED_EDGE('', *, *, #168, .F.);
#240 = ORIENTED_EDGE('', *, *, #31, .T.);
#241 = ORIENTED_EDGE('', *, *, #227, .T.);
#242 = ORIENTED_EDGE('', *, *, #196, .T.);
#243 = (
   BOUNDED_SURFACE ()
   B_SPLINE_SURFACE (2, 1, ((#244, #245), (#246, #247), (#248, #249)), .UNSPECIFIED., .F., .F., .U.)
   B_SPLINE_SURFACE_WITH_KNOTS ((3, 3), (2, 2), (0., 1.), (0.25, 0.75), .UNSPECIFIED.)
   GEOMETRIC_REPRESENTATION_ITEM ()
   RATIONAL_B_SPLINE_SURFACE (((1., 1.), (0.707106781186546, 0.707106781186546), (1., 1.)))
   REPRESENTATION_ITEM ('')
   SURFACE ()
);
#244 = CARTESIAN_POINT('', (0., 8., 40.));
#245 = CARTESIAN_POINT('', (80., 8., 40.));
#246 = CARTESIAN_POINT('', (0., -1.0413211676572E-14, 40.));
#247 = CARTESIAN_POINT('', (80., -1.0413211676572E-14, 40.));
#248 = CARTESIAN_POINT('', (0., 3.5527136788005E-15, 32.));
#249 = CARTESIAN_POINT('', (80., 3.5527136788005E-15, 32.));
#250 = ADVANCED_FACE('', (#251), #257, .T.);
#251 = FACE_OUTER_BOUND('', #252, .T.);
#252 = EDGE_LOOP('', (#253, #254, #255, #256));
#253 = ORIENTED_EDGE('', *, *, #154, .T.);
#254 = ORIENTED_EDGE('', *, *, #182, .T.);
#255 = ORIENTED_EDGE('', *, *, #210, .F.);
#256 = ORIENTED_EDGE('', *, *, #119, .F.);
#257 = B_SPLINE_SURFACE_WITH_KNOTS('', 1, 1, ((#258, #259), (#260, #261)), .UNSPECIFIED., .F., .F., .U., (2, 2), (2, 2), (0., 40.), (0., 80.), .UNSPECIFIED.);
#258 = CARTESIAN_POINT('', (0., 60., 0.));
#259 = CARTESIAN_POINT('', (80., 60., 0.));
#260 = CARTESIAN_POINT('', (0., 60., 40.));
#261 = CARTESIAN_POINT('', (80., 60., 40.));
#262 = DRAUGHTING_MODEL('', (#270), #273);
#263 = PRESENTATION_STYLE_ASSIGNMENT((#264));
#264 = SURFACE_STYLE_USAGE(.POSITIVE., #265);
#265 = SURFACE_SIDE_STYLE('', (#266));
#266 = SURFACE_STYLE_FILL_AREA(#267);
#267 = FILL_AREA_STYLE('', (#268));
#268 = FILL_AREA_STYLE_COLOUR('', #269);
#269 = COLOUR_RGB('', 0.50196078431373, 0.50196078431373, 0.50196078431373);
#270 = STYLED_ITEM('', (#263), #1);
#271 = CARTESIAN_POINT('Origin', (0., 0., 0.));
#272 = GEOMETRIC_SET('', (#271));
#273 = (
   GEOMETRIC_REPRESENTATION_CONTEXT (3)
   GLOBAL_UNCERTAINTY_ASSIGNED_CONTEXT ((#275))
   GLOBAL_UNIT_ASSIGNED_CONTEXT ((#274, #276, #277))
   REPRESENTATION_CONTEXT ('', '3D')
);
#274 = (
   LENGTH_UNIT ()
   NAMED_UNIT (*)
   SI_UNIT (.MILLI., .METRE.)
);
#275 = UNCERTAINTY_MEASURE_WITH_UNIT(LENGTH_MEASURE(1.E-6), #274, 'DISTANCE_ACCURACY_VALUE', '');
#276 = (
   NAMED_UNIT (*)
   SI_UNIT ($, .STERADIAN.)
   SOLID_ANGLE_UNIT ()
);
#277 = (
   NAMED_UNIT (*)
   PLANE_ANGLE_UNIT ()
   SI_UNIT ($, .RADIAN.)
);
#278 = SHAPE_REPRESENTATION('', (#293), #273);
#279 = PRODUCT_DEFINITION_SHAPE('', '', #280);
#280 = PRODUCT_DEFINITION('', '', #283, #287);
#281 = APPLICATION_CONTEXT('configuration controlled 3D designs of mechanical parts and assemblies');
#282 = APPLICATION_PROTOCOL_DEFINITION('International Standard', 'automotive_design', 2002, #281);
#283 = PRODUCT_DEFINITION_FORMATION_WITH_SPECIFIED_SOURCE('', '', #284, .NOT_KNOWN.);
#284 = PRODUCT('E2E', 'E2E', '', (#285));
#285 = PRODUCT_CONTEXT('', #281, 'mechanical');
#286 = PRODUCT_RELATED_PRODUCT_CATEGORY('detail', '', (#284));
#287 = PRODUCT_DEFINITION_CONTEXT('part definition', #281, 'design');
#288 = SHAPE_DEFINITION_REPRESENTATION(#279, #278);
#289 = SHAPE_REPRESENTATION_RELATIONSHIP('', '', #278, #290);
#290 = SHAPE_REPRESENTATION('', (#272), #273);
#291 = SHAPE_REPRESENTATION_RELATIONSHIP('', '', #278, #292);
#292 = ADVANCED_BREP_SHAPE_REPRESENTATION('', (#1), #273);
#293 = AXIS2_PLACEMENT_3D('', #294, #295, #296);
#294 = CARTESIAN_POINT('', (0., 0., 0.));
#295 = DIRECTION('', (0., 0., 1.));
#296 = DIRECTION('', (1., 0., 0.));
ENDSEC;
END-ISO-10303-21;
