ISO-10303-21;
HEADER;
FILE_DESCRIPTION(('STEP'), '1');
FILE_NAME('PostFillet', '2026-04-21T21:09:05', (''), (''), 'Express 3.1.2.0', 'Express Tool', 'Unknown');
FILE_SCHEMA(('AUTOMOTIVE_DESIGN'));
ENDSEC;

DATA;
#1 = MANIFOLD_SOLID_BREP('Chamfer_0', #2);
#2 = CLOSED_SHELL('', (#3, #104, #139, #169, #201, #217, #240, #256));
#3 = ADVANCED_FACE('', (#4), #99, .T.);
#4 = FACE_OUTER_BOUND('', #5, .T.);
#5 = EDGE_LOOP('', (#6, #26, #35, #50));
#6 = ORIENTED_EDGE('', *, *, #7, .T.);
#7 = EDGE_CURVE('', #8, #10, #12, .T.);
#8 = VERTEX_POINT('', #9);
#9 = CARTESIAN_POINT('', (80., 0.583801512904339, 35.));
#10 = VERTEX_POINT('', #11);
#11 = CARTESIAN_POINT('', (80., 60., 35.));
#12 = B_SPLINE_CURVE_WITH_KNOTS('', 3, (#13, #14, #15, #16, #17, #18, #19, #20, #21, #22, #23, #24, #25), .UNSPECIFIED., .F., .U., (4, 3, 3, 3, 4), (18.5838015129043, 26., 39., 52., 78.), .UNSPECIFIED.);
#13 = CARTESIAN_POINT('', (80., 0.583801512904339, 35.));
#14 = CARTESIAN_POINT('', (80., 3.05586767526956, 35.));
#15 = CARTESIAN_POINT('', (80., 5.52793383763478, 35.));
#16 = CARTESIAN_POINT('', (80., 8., 35.));
#17 = CARTESIAN_POINT('', (80., 12.3333333333333, 35.));
#18 = CARTESIAN_POINT('', (80., 16.6666666666667, 35.));
#19 = CARTESIAN_POINT('', (80., 21., 35.));
#20 = CARTESIAN_POINT('', (80., 25.3333333333333, 35.));
#21 = CARTESIAN_POINT('', (80., 29.6666666666667, 35.));
#22 = CARTESIAN_POINT('', (80., 34., 35.));
#23 = CARTESIAN_POINT('', (80., 42.6666666666667, 35.));
#24 = CARTESIAN_POINT('', (80., 51.3333333333333, 35.));
#25 = CARTESIAN_POINT('', (80., 60., 35.));
#26 = ORIENTED_EDGE('', *, *, #27, .T.);
#27 = EDGE_CURVE('', #10, #28, #30, .T.);
#28 = VERTEX_POINT('', #29);
#29 = CARTESIAN_POINT('', (75., 60., 40.));
#30 = B_SPLINE_CURVE_WITH_KNOTS('', 3, (#31, #32, #33, #34), .UNSPECIFIED., .F., .U., (4, 4), (0., 7.07106781186548), .UNSPECIFIED.);
#31 = CARTESIAN_POINT('', (80., 60., 35.));
#32 = CARTESIAN_POINT('', (78.3333333333333, 60., 36.6666666666667));
#33 = CARTESIAN_POINT('', (76.6666666666667, 60., 38.3333333333333));
#34 = CARTESIAN_POINT('', (75., 60., 40.));
#35 = ORIENTED_EDGE('', *, *, #36, .F.);
#36 = EDGE_CURVE('', #37, #28, #39, .T.);
#37 = VERTEX_POINT('', #38);
#38 = CARTESIAN_POINT('', (75., 8., 40.));
#39 = B_SPLINE_CURVE_WITH_KNOTS('', 3, (#40, #41, #42, #43, #44, #45, #46, #47, #48, #49), .UNSPECIFIED., .F., .U., (4, 3, 3, 4), (26., 39., 52., 78.), .UNSPECIFIED.);
#40 = CARTESIAN_POINT('', (75., 8., 40.));
#41 = CARTESIAN_POINT('', (75., 12.3333333333333, 40.));
#42 = CARTESIAN_POINT('', (75., 16.6666666666667, 40.));
#43 = CARTESIAN_POINT('', (75., 21., 40.));
#44 = CARTESIAN_POINT('', (75., 25.3333333333333, 40.));
#45 = CARTESIAN_POINT('', (75., 29.6666666666667, 40.));
#46 = CARTESIAN_POINT('', (75., 34., 40.));
#47 = CARTESIAN_POINT('', (75., 42.6666666666667, 40.));
#48 = CARTESIAN_POINT('', (75., 51.3333333333333, 40.));
#49 = CARTESIAN_POINT('', (75., 60., 40.));
#50 = ORIENTED_EDGE('', *, *, #51, .T.);
#51 = EDGE_CURVE('', #37, #8, #52, .T.);
#52 = B_SPLINE_CURVE_WITH_KNOTS('', 3, (#53, #54, #55, #56, #57, #58, #59, #60, #61, #62, #63, #64, #65, #66, #67, #68, #69, #70, #71, #72, #73, #74, #75, #76, #77, #78, #79, #80, #81, #82, #83, #84, #85, #86, #87, #88, #89, #90, #91, #92, #93, #94, #95, #96, #97, #98), .UNSPECIFIED., .F., .U., (4, 3, 3, 3, 3, 3, 3, 3, 3, 3, 3, 3, 3, 3, 3, 4), (0., 0.65795062681147, 1.32028693215257, 1.98181183919456, 2.64251904265256, 3.30245215841347, 3.96168685379139, 4.62031282209829, 5.27842021005985, 5.93609151079823, 6.59339789608567, 7.25039842170214, 8.23548507604275, 9.21983815012973, 10.2035948305053, 10.980918885265), .UNSPECIFIED.);
#53 = CARTESIAN_POINT('', (75., 8., 40.));
#54 = CARTESIAN_POINT('', (75., 7.78068312439618, 40.));
#55 = CARTESIAN_POINT('', (75.0090639457675, 7.56100252048432, 39.9909360542324));
#56 = CARTESIAN_POINT('', (75.0270105909559, 7.34315916442868, 39.972989409044));
#57 = CARTESIAN_POINT('', (75.0450768624708, 7.12386373751766, 39.9549231375291));
#58 = CARTESIAN_POINT('', (75.0722008901799, 6.90570885304262, 39.92779910982));
#59 = CARTESIAN_POINT('', (75.1078579319081, 6.69076603425728, 39.8921420680919));
#60 = CARTESIAN_POINT('', (75.1434712918045, 6.47608653221325, 39.8565287081955));
#61 = CARTESIAN_POINT('', (75.1877013824814, 6.26394028007807, 39.8122986175185));
#62 = CARTESIAN_POINT('', (75.2397674077585, 6.05608896440316, 39.7602325922414));
#63 = CARTESIAN_POINT('', (75.2917690748005, 5.84849457142905, 39.7082309251994));
#64 = CARTESIAN_POINT('', (75.3517283341785, 5.64458978511887, 39.6482716658214));
#65 = CARTESIAN_POINT('', (75.4187135875793, 5.44576893511003, 39.5812864124206));
#66 = CARTESIAN_POINT('', (75.4856203607392, 5.24718102455321, 39.5143796392607));
#67 = CARTESIAN_POINT('', (75.5596999464495, 5.05315719741133, 39.4403000535504));
#68 = CARTESIAN_POINT('', (75.6399670055752, 4.86473058239294, 39.3600329944247));
#69 = CARTESIAN_POINT('', (75.7201491164707, 4.6765033830206, 39.2798508835291));
#70 = CARTESIAN_POINT('', (75.8066782505423, 4.4934400553902, 39.1933217494575));
#71 = CARTESIAN_POINT('', (75.8985879020497, 4.31625920902557, 39.1014120979502));
#72 = CARTESIAN_POINT('', (75.9904126856134, 4.13924196870051, 39.0095873143865));
#73 = CARTESIAN_POINT('', (76.0877801865556, 3.96775367678381, 38.9122198134443));
#74 = CARTESIAN_POINT('', (76.1897876601264, 3.80226157486725, 38.8102123398735));
#75 = CARTESIAN_POINT('', (76.2917148163799, 3.63689977596862, 38.70828518362));
#76 = CARTESIAN_POINT('', (76.3984398063295, 3.47724972489386, 38.6015601936705));
#77 = CARTESIAN_POINT('', (76.5091456023521, 3.32359013894875, 38.4908543976478));
#78 = CARTESIAN_POINT('', (76.6197780404638, 3.17003237374502, 38.3802219595361));
#79 = CARTESIAN_POINT('', (76.7345406869378, 3.02223794593986, 38.2654593130622));
#80 = CARTESIAN_POINT('', (76.8527083199922, 2.88035108616738, 38.1472916800078));
#81 = CARTESIAN_POINT('', (76.9708103865621, 2.73854295372778, 38.0291896134379));
#82 = CARTESIAN_POINT('', (77.0924564600883, 2.60246152926161, 37.9075435399117));
#83 = CARTESIAN_POINT('', (77.2170097564301, 2.4721592060936, 37.7829902435699));
#84 = CARTESIAN_POINT('', (77.3415050952788, 2.34191751557207, 37.6584949047211));
#85 = CARTESIAN_POINT('', (77.4690358413138, 2.21731082921489, 37.5309641586862));
#86 = CARTESIAN_POINT('', (77.5990454800094, 2.09833156870076, 37.4009545199905));
#87 = CARTESIAN_POINT('', (77.7939779877035, 1.91993767538414, 37.2060220122965));
#88 = CARTESIAN_POINT('', (77.9948014204775, 1.75390261137429, 37.0051985795225));
#89 = CARTESIAN_POINT('', (78.1999265960027, 1.60005505365568, 36.8000734039973));
#90 = CARTESIAN_POINT('', (78.4048990176786, 1.44632206406153, 36.5951009823214));
#91 = CARTESIAN_POINT('', (78.6145242757559, 1.30448600670471, 36.385475724244));
#92 = CARTESIAN_POINT('', (78.8274943605994, 1.17429881336942, 36.1725056394006));
#93 = CARTESIAN_POINT('', (79.0403354124538, 1.04419049704022, 35.9596645875461));
#94 = CARTESIAN_POINT('', (79.2568339939682, 0.92552116269381, 35.7431660060318));
#95 = CARTESIAN_POINT('', (79.4758961597606, 0.818030066673208, 35.5241038402394));
#96 = CARTESIAN_POINT('', (79.6489900704349, 0.733095025035275, 35.351009929565));
#97 = CARTESIAN_POINT('', (79.8238475383005, 0.655058692174545, 35.1761524616995));
#98 = CARTESIAN_POINT('', (80., 0.58380151290434, 35.));
#99 = B_SPLINE_SURFACE_WITH_KNOTS('', 1, 1, ((#100, #101), (#102, #103)), .UNSPECIFIED., .F., .F., .U., (2, 2), (2, 2), (18.5838015129043, 78.), (0., 1.), .UNSPECIFIED.);
#100 = CARTESIAN_POINT('', (80., 0.583801512904341, 35.));
#101 = CARTESIAN_POINT('', (75., 0.583801512904348, 40.));
#102 = CARTESIAN_POINT('', (80., 60., 35.));
#103 = CARTESIAN_POINT('', (75., 60., 40.));
#104 = ADVANCED_FACE('', (#105), #134, .T.);
#105 = FACE_OUTER_BOUND('', #106, .T.);
#106 = EDGE_LOOP('', (#107, #108, #115, #122, #129));
#107 = ORIENTED_EDGE('', *, *, #27, .F.);
#108 = ORIENTED_EDGE('', *, *, #109, .F.);
#109 = EDGE_CURVE('', #110, #10, #112, .T.);
#110 = VERTEX_POINT('', #111);
#111 = CARTESIAN_POINT('', (80., 60., 0.));
#112 = B_SPLINE_CURVE_WITH_KNOTS('', 1, (#113, #114), .UNSPECIFIED., .F., .U., (2, 2), (0., 35.), .UNSPECIFIED.);
#113 = CARTESIAN_POINT('', (80., 60., 0.));
#114 = CARTESIAN_POINT('', (80., 60., 35.));
#115 = ORIENTED_EDGE('', *, *, #116, .F.);
#116 = EDGE_CURVE('', #117, #110, #119, .T.);
#117 = VERTEX_POINT('', #118);
#118 = CARTESIAN_POINT('', (0., 60., 0.));
#119 = B_SPLINE_CURVE_WITH_KNOTS('', 1, (#120, #121), .UNSPECIFIED., .F., .U., (2, 2), (0., 80.), .UNSPECIFIED.);
#120 = CARTESIAN_POINT('', (0., 60., 0.));
#121 = CARTESIAN_POINT('', (80., 60., 0.));
#122 = ORIENTED_EDGE('', *, *, #123, .T.);
#123 = EDGE_CURVE('', #117, #124, #126, .T.);
#124 = VERTEX_POINT('', #125);
#125 = CARTESIAN_POINT('', (0., 60., 40.));
#126 = B_SPLINE_CURVE_WITH_KNOTS('', 1, (#127, #128), .UNSPECIFIED., .F., .U., (2, 2), (0., 40.), .UNSPECIFIED.);
#127 = CARTESIAN_POINT('', (0., 60., 0.));
#128 = CARTESIAN_POINT('', (0., 60., 40.));
#129 = ORIENTED_EDGE('', *, *, #130, .T.);
#130 = EDGE_CURVE('', #124, #28, #131, .T.);
#131 = B_SPLINE_CURVE_WITH_KNOTS('', 1, (#132, #133), .UNSPECIFIED., .F., .U., (2, 2), (0., 75.), .UNSPECIFIED.);
#132 = CARTESIAN_POINT('', (0., 60., 40.));
#133 = CARTESIAN_POINT('', (75., 60., 40.));
#134 = B_SPLINE_SURFACE_WITH_KNOTS('', 1, 1, ((#135, #136), (#137, #138)), .UNSPECIFIED., .F., .F., .U., (2, 2), (2, 2), (0., 40.), (0., 80.), .UNSPECIFIED.);
#135 = CARTESIAN_POINT('', (0., 60., 0.));
#136 = CARTESIAN_POINT('', (80., 60., 0.));
#137 = CARTESIAN_POINT('', (0., 60., 40.));
#138 = CARTESIAN_POINT('', (80., 60., 40.));
#139 = ADVANCED_FACE('', (#140), #164, .T.);
#140 = FACE_OUTER_BOUND('', #141, .T.);
#141 = EDGE_LOOP('', (#142, #143, #151, #158, #163));
#142 = ORIENTED_EDGE('', *, *, #7, .F.);
#143 = ORIENTED_EDGE('', *, *, #144, .F.);
#144 = EDGE_CURVE('', #145, #8, #147, .T.);
#145 = VERTEX_POINT('', #146);
#146 = CARTESIAN_POINT('', (80., 3.5527136788005E-15, 32.));
#147 = (
   BOUNDED_CURVE ()
   B_SPLINE_CURVE (2, (#148, #149, #150), .UNSPECIFIED., .F., .U.)
   B_SPLINE_CURVE_WITH_KNOTS ((3, 3), (0., 0.254678050658305), .UNSPECIFIED.)
   CURVE ()
   GEOMETRIC_REPRESENTATION_ITEM ()
   RATIONAL_B_SPLINE_CURVE ((1., 0.981586677498976, 1.))
   REPRESENTATION_ITEM ('')
);
#148 = CARTESIAN_POINT('', (80., 3.5527136788005E-15, 32.));
#149 = CARTESIAN_POINT('', (80., 1.25109516464784E-15, 33.5568040344116));
#150 = CARTESIAN_POINT('', (80., 0.583801512904334, 35.));
#151 = ORIENTED_EDGE('', *, *, #152, .F.);
#152 = EDGE_CURVE('', #153, #145, #155, .T.);
#153 = VERTEX_POINT('', #154);
#154 = CARTESIAN_POINT('', (80., 0., 0.));
#155 = B_SPLINE_CURVE_WITH_KNOTS('', 1, (#156, #157), .UNSPECIFIED., .F., .U., (2, 2), (0., 32.), .UNSPECIFIED.);
#156 = CARTESIAN_POINT('', (80., 0., 0.));
#157 = CARTESIAN_POINT('', (80., 0., 32.));
#158 = ORIENTED_EDGE('', *, *, #159, .T.);
#159 = EDGE_CURVE('', #153, #110, #160, .T.);
#160 = B_SPLINE_CURVE_WITH_KNOTS('', 1, (#161, #162), .UNSPECIFIED., .F., .U., (2, 2), (0., 60.), .UNSPECIFIED.);
#161 = CARTESIAN_POINT('', (80., 0., 0.));
#162 = CARTESIAN_POINT('', (80., 60., 0.));
#163 = ORIENTED_EDGE('', *, *, #109, .T.);
#164 = B_SPLINE_SURFACE_WITH_KNOTS('', 1, 1, ((#165, #166), (#167, #168)), .UNSPECIFIED., .F., .F., .U., (2, 2), (2, 2), (0., 60.), (0., 35.), .UNSPECIFIED.);
#165 = CARTESIAN_POINT('', (80., 0., 0.));
#166 = CARTESIAN_POINT('', (80., 0., 35.));
#167 = CARTESIAN_POINT('', (80., 60., 0.));
#168 = CARTESIAN_POINT('', (80., 60., 35.));
#169 = ADVANCED_FACE('', (#170), #194, .T.);
#170 = FACE_OUTER_BOUND('', #171, .T.);
#171 = EDGE_LOOP('', (#172, #173, #180, #188, #193));
#172 = ORIENTED_EDGE('', *, *, #51, .F.);
#173 = ORIENTED_EDGE('', *, *, #174, .F.);
#174 = EDGE_CURVE('', #175, #37, #177, .T.);
#175 = VERTEX_POINT('', #176);
#176 = CARTESIAN_POINT('', (0., 8., 40.));
#177 = B_SPLINE_CURVE_WITH_KNOTS('', 1, (#178, #179), .UNSPECIFIED., .F., .U., (2, 2), (0.25, 0.71875), .UNSPECIFIED.);
#178 = CARTESIAN_POINT('', (0., 8., 40.));
#179 = CARTESIAN_POINT('', (75., 8., 40.));
#180 = ORIENTED_EDGE('', *, *, #181, .T.);
#181 = EDGE_CURVE('', #175, #182, #184, .T.);
#182 = VERTEX_POINT('', #183);
#183 = CARTESIAN_POINT('', (0., 0., 32.));
#184 = (
   BOUNDED_CURVE ()
   B_SPLINE_CURVE (2, (#185, #186, #187), .UNSPECIFIED., .F., .U.)
   B_SPLINE_CURVE_WITH_KNOTS ((3, 3), (0., 1.), .UNSPECIFIED.)
   CURVE ()
   GEOMETRIC_REPRESENTATION_ITEM ()
   RATIONAL_B_SPLINE_CURVE ((1., 0.707106781186546, 1.))
   REPRESENTATION_ITEM ('')
);
#185 = CARTESIAN_POINT('', (0., 8., 40.));
#186 = CARTESIAN_POINT('', (0., -1.0413211676572E-14, 40.));
#187 = CARTESIAN_POINT('', (0., 3.5527136788005E-15, 32.));
#188 = ORIENTED_EDGE('', *, *, #189, .T.);
#189 = EDGE_CURVE('', #182, #145, #190, .T.);
#190 = B_SPLINE_CURVE_WITH_KNOTS('', 1, (#191, #192), .UNSPECIFIED., .F., .U., (2, 2), (0.25, 0.75), .UNSPECIFIED.);
#191 = CARTESIAN_POINT('', (0., 0., 32.));
#192 = CARTESIAN_POINT('', (80., 0., 32.));
#193 = ORIENTED_EDGE('', *, *, #144, .T.);
#194 = (
   BOUNDED_SURFACE ()
   B_SPLINE_SURFACE (2, 1, ((#195, #196), (#197, #198), (#199, #200)), .UNSPECIFIED., .F., .F., .U.)
   B_SPLINE_SURFACE_WITH_KNOTS ((3, 3), (2, 2), (0., 1.), (0.25, 0.75), .UNSPECIFIED.)
   GEOMETRIC_REPRESENTATION_ITEM ()
   RATIONAL_B_SPLINE_SURFACE (((1., 1.), (0.707106781186546, 0.707106781186546), (1., 1.)))
   REPRESENTATION_ITEM ('')
   SURFACE ()
);
#195 = CARTESIAN_POINT('', (0., 8., 40.));
#196 = CARTESIAN_POINT('', (80., 8., 40.));
#197 = CARTESIAN_POINT('', (0., -1.0413211676572E-14, 40.));
#198 = CARTESIAN_POINT('', (80., -1.0413211676572E-14, 40.));
#199 = CARTESIAN_POINT('', (0., 3.5527136788005E-15, 32.));
#200 = CARTESIAN_POINT('', (80., 3.5527136788005E-15, 32.));
#201 = ADVANCED_FACE('', (#202), #212, .T.);
#202 = FACE_OUTER_BOUND('', #203, .T.);
#203 = EDGE_LOOP('', (#204, #205, #206, #211));
#204 = ORIENTED_EDGE('', *, *, #36, .T.);
#205 = ORIENTED_EDGE('', *, *, #130, .F.);
#206 = ORIENTED_EDGE('', *, *, #207, .F.);
#207 = EDGE_CURVE('', #175, #124, #208, .T.);
#208 = B_SPLINE_CURVE_WITH_KNOTS('', 1, (#209, #210), .UNSPECIFIED., .F., .U., (2, 2), (8., 60.), .UNSPECIFIED.);
#209 = CARTESIAN_POINT('', (0., 8., 40.));
#210 = CARTESIAN_POINT('', (0., 60., 40.));
#211 = ORIENTED_EDGE('', *, *, #174, .T.);
#212 = B_SPLINE_SURFACE_WITH_KNOTS('', 1, 1, ((#213, #214), (#215, #216)), .UNSPECIFIED., .F., .F., .U., (2, 2), (2, 2), (0., 75.), (8., 60.), .UNSPECIFIED.);
#213 = CARTESIAN_POINT('', (0., 8., 40.));
#214 = CARTESIAN_POINT('', (0., 60., 40.));
#215 = CARTESIAN_POINT('', (75., 8., 40.));
#216 = CARTESIAN_POINT('', (75., 60., 40.));
#217 = ADVANCED_FACE('', (#218), #235, .T.);
#218 = FACE_OUTER_BOUND('', #219, .T.);
#219 = EDGE_LOOP('', (#220, #221, #222, #223, #230));
#220 = ORIENTED_EDGE('', *, *, #181, .F.);
#221 = ORIENTED_EDGE('', *, *, #207, .T.);
#222 = ORIENTED_EDGE('', *, *, #123, .F.);
#223 = ORIENTED_EDGE('', *, *, #224, .F.);
#224 = EDGE_CURVE('', #225, #117, #227, .T.);
#225 = VERTEX_POINT('', #226);
#226 = CARTESIAN_POINT('', (0., 0., 0.));
#227 = B_SPLINE_CURVE_WITH_KNOTS('', 1, (#228, #229), .UNSPECIFIED., .F., .U., (2, 2), (0., 60.), .UNSPECIFIED.);
#228 = CARTESIAN_POINT('', (0., 0., 0.));
#229 = CARTESIAN_POINT('', (0., 60., 0.));
#230 = ORIENTED_EDGE('', *, *, #231, .T.);
#231 = EDGE_CURVE('', #225, #182, #232, .T.);
#232 = B_SPLINE_CURVE_WITH_KNOTS('', 1, (#233, #234), .UNSPECIFIED., .F., .U., (2, 2), (0., 32.), .UNSPECIFIED.);
#233 = CARTESIAN_POINT('', (0., 0., 0.));
#234 = CARTESIAN_POINT('', (0., 0., 32.));
#235 = B_SPLINE_SURFACE_WITH_KNOTS('', 1, 1, ((#236, #237), (#238, #239)), .UNSPECIFIED., .F., .F., .U., (2, 2), (2, 2), (0., 40.), (0., 60.), .UNSPECIFIED.);
#236 = CARTESIAN_POINT('', (0., 0., 0.));
#237 = CARTESIAN_POINT('', (0., 60., 0.));
#238 = CARTESIAN_POINT('', (0., 0., 40.));
#239 = CARTESIAN_POINT('', (0., 60., 40.));
#240 = ADVANCED_FACE('', (#241), #251, .T.);
#241 = FACE_OUTER_BOUND('', #242, .T.);
#242 = EDGE_LOOP('', (#243, #244, #245, #246));
#243 = ORIENTED_EDGE('', *, *, #224, .T.);
#244 = ORIENTED_EDGE('', *, *, #116, .T.);
#245 = ORIENTED_EDGE('', *, *, #159, .F.);
#246 = ORIENTED_EDGE('', *, *, #247, .F.);
#247 = EDGE_CURVE('', #225, #153, #248, .T.);
#248 = B_SPLINE_CURVE_WITH_KNOTS('', 1, (#249, #250), .UNSPECIFIED., .F., .U., (2, 2), (0., 80.), .UNSPECIFIED.);
#249 = CARTESIAN_POINT('', (0., 0., 0.));
#250 = CARTESIAN_POINT('', (80., 0., 0.));
#251 = B_SPLINE_SURFACE_WITH_KNOTS('', 1, 1, ((#252, #253), (#254, #255)), .UNSPECIFIED., .F., .F., .U., (2, 2), (2, 2), (0., 60.), (0., 80.), .UNSPECIFIED.);
#252 = CARTESIAN_POINT('', (0., 0., 0.));
#253 = CARTESIAN_POINT('', (80., 0., 0.));
#254 = CARTESIAN_POINT('', (0., 60., 0.));
#255 = CARTESIAN_POINT('', (80., 60., 0.));
#256 = ADVANCED_FACE('', (#257), #263, .T.);
#257 = FACE_OUTER_BOUND('', #258, .T.);
#258 = EDGE_LOOP('', (#259, #260, #261, #262));
#259 = ORIENTED_EDGE('', *, *, #189, .F.);
#260 = ORIENTED_EDGE('', *, *, #231, .F.);
#261 = ORIENTED_EDGE('', *, *, #247, .T.);
#262 = ORIENTED_EDGE('', *, *, #152, .T.);
#263 = B_SPLINE_SURFACE_WITH_KNOTS('', 1, 1, ((#264, #265), (#266, #267)), .UNSPECIFIED., .F., .F., .U., (2, 2), (2, 2), (0., 80.), (0., 32.), .UNSPECIFIED.);
#264 = CARTESIAN_POINT('', (0., 0., 0.));
#265 = CARTESIAN_POINT('', (0., 0., 32.));
#266 = CARTESIAN_POINT('', (80., 0., 0.));
#267 = CARTESIAN_POINT('', (80., 0., 32.));
#268 = DRAUGHTING_MODEL('', (#276), #279);
#269 = PRESENTATION_STYLE_ASSIGNMENT((#270));
#270 = SURFACE_STYLE_USAGE(.POSITIVE., #271);
#271 = SURFACE_SIDE_STYLE('', (#272));
#272 = SURFACE_STYLE_FILL_AREA(#273);
#273 = FILL_AREA_STYLE('', (#274));
#274 = FILL_AREA_STYLE_COLOUR('', #275);
#275 = COLOUR_RGB('', 0.50196078431373, 0.50196078431373, 0.50196078431373);
#276 = STYLED_ITEM('', (#269), #1);
#277 = CARTESIAN_POINT('Origin', (0., 0., 0.));
#278 = GEOMETRIC_SET('', (#277));
#279 = (
   GEOMETRIC_REPRESENTATION_CONTEXT (3)
   GLOBAL_UNCERTAINTY_ASSIGNED_CONTEXT ((#281))
   GLOBAL_UNIT_ASSIGNED_CONTEXT ((#280, #282, #283))
   REPRESENTATION_CONTEXT ('', '3D')
);
#280 = (
   LENGTH_UNIT ()
   NAMED_UNIT (*)
   SI_UNIT (.MILLI., .METRE.)
);
#281 = UNCERTAINTY_MEASURE_WITH_UNIT(LENGTH_MEASURE(1.E-6), #280, 'DISTANCE_ACCURACY_VALUE', '');
#282 = (
   NAMED_UNIT (*)
   SI_UNIT ($, .STERADIAN.)
   SOLID_ANGLE_UNIT ()
);
#283 = (
   NAMED_UNIT (*)
   PLANE_ANGLE_UNIT ()
   SI_UNIT ($, .RADIAN.)
);
#284 = SHAPE_REPRESENTATION('', (#299), #279);
#285 = PRODUCT_DEFINITION_SHAPE('', '', #286);
#286 = PRODUCT_DEFINITION('', '', #289, #293);
#287 = APPLICATION_CONTEXT('configuration controlled 3D designs of mechanical parts and assemblies');
#288 = APPLICATION_PROTOCOL_DEFINITION('International Standard', 'automotive_design', 2002, #287);
#289 = PRODUCT_DEFINITION_FORMATION_WITH_SPECIFIED_SOURCE('', '', #290, .NOT_KNOWN.);
#290 = PRODUCT('PostFillet', 'PostFillet', '', (#291));
#291 = PRODUCT_CONTEXT('', #287, 'mechanical');
#292 = PRODUCT_RELATED_PRODUCT_CATEGORY('detail', '', (#290));
#293 = PRODUCT_DEFINITION_CONTEXT('part definition', #287, 'design');
#294 = SHAPE_DEFINITION_REPRESENTATION(#285, #284);
#295 = SHAPE_REPRESENTATION_RELATIONSHIP('', '', #284, #296);
#296 = SHAPE_REPRESENTATION('', (#278), #279);
#297 = SHAPE_REPRESENTATION_RELATIONSHIP('', '', #284, #298);
#298 = ADVANCED_BREP_SHAPE_REPRESENTATION('', (#1), #279);
#299 = AXIS2_PLACEMENT_3D('', #300, #301, #302);
#300 = CARTESIAN_POINT('', (0., 0., 0.));
#301 = DIRECTION('', (0., 0., 1.));
#302 = DIRECTION('', (1., 0., 0.));
ENDSEC;
END-ISO-10303-21;
