ISO-10303-21;
HEADER;
FILE_DESCRIPTION(('STEP'), '1');
FILE_NAME('IndexVsPos', '2026-04-21T21:10:56', (''), (''), 'Express 3.1.2.0', 'Express Tool', 'Unknown');
FILE_SCHEMA(('AUTOMOTIVE_DESIGN'));
ENDSEC;

DATA;
#1 = MANIFOLD_SOLID_BREP('Chamfer_0', #2);
#2 = CLOSED_SHELL('', (#3, #155, #194, #231, #263, #279, #309, #325, #341));
#3 = ADVANCED_FACE('', (#4), #150, .T.);
#4 = FACE_OUTER_BOUND('', #5, .T.);
#5 = EDGE_LOOP('', (#6, #32, #83, #101));
#6 = ORIENTED_EDGE('', *, *, #7, .T.);
#7 = EDGE_CURVE('', #8, #10, #12, .T.);
#8 = VERTEX_POINT('', #9);
#9 = CARTESIAN_POINT('', (0.583801512904337, 5., 0.));
#10 = VERTEX_POINT('', #11);
#11 = CARTESIAN_POINT('', (79.4161984870957, 5., 0.));
#12 = B_SPLINE_CURVE_WITH_KNOTS('', 3, (#13, #14, #15, #16, #17, #18, #19, #20, #21, #22, #23, #24, #25, #26, #27, #28, #29, #30, #31), .UNSPECIFIED., .F., .U., (4, 3, 3, 3, 3, 3, 4), (24.5838015129043, 32., 48., 64., 80., 96., 103.416198487096), .UNSPECIFIED.);
#13 = CARTESIAN_POINT('', (0.583801512904337, 5., 0.));
#14 = CARTESIAN_POINT('', (3.05586767526956, 5., 0.));
#15 = CARTESIAN_POINT('', (5.52793383763478, 5., 0.));
#16 = CARTESIAN_POINT('', (8., 5., 0.));
#17 = CARTESIAN_POINT('', (13.3333333333333, 5., 0.));
#18 = CARTESIAN_POINT('', (18.6666666666667, 5., 0.));
#19 = CARTESIAN_POINT('', (24., 5., 0.));
#20 = CARTESIAN_POINT('', (29.3333333333333, 5., 0.));
#21 = CARTESIAN_POINT('', (34.6666666666667, 5., 0.));
#22 = CARTESIAN_POINT('', (40., 5., 0.));
#23 = CARTESIAN_POINT('', (45.3333333333333, 5., 0.));
#24 = CARTESIAN_POINT('', (50.6666666666667, 5., 0.));
#25 = CARTESIAN_POINT('', (56., 5., 0.));
#26 = CARTESIAN_POINT('', (61.3333333333333, 5., 0.));
#27 = CARTESIAN_POINT('', (66.6666666666667, 5., 0.));
#28 = CARTESIAN_POINT('', (72., 5., 0.));
#29 = CARTESIAN_POINT('', (74.4720661623652, 5., 0.));
#30 = CARTESIAN_POINT('', (76.9441323247304, 5., 0.));
#31 = CARTESIAN_POINT('', (79.4161984870957, 5., 0.));
#32 = ORIENTED_EDGE('', *, *, #33, .T.);
#33 = EDGE_CURVE('', #10, #34, #36, .T.);
#34 = VERTEX_POINT('', #35);
#35 = CARTESIAN_POINT('', (72., 0., 5.));
#36 = B_SPLINE_CURVE_WITH_KNOTS('', 3, (#37, #38, #39, #40, #41, #42, #43, #44, #45, #46, #47, #48, #49, #50, #51, #52, #53, #54, #55, #56, #57, #58, #59, #60, #61, #62, #63, #64, #65, #66, #67, #68, #69, #70, #71, #72, #73, #74, #75, #76, #77, #78, #79, #80, #81, #82), .UNSPECIFIED., .F., .U., (4, 3, 3, 3, 3, 3, 3, 3, 3, 3, 3, 3, 3, 3, 3, 4), (0., 0.987768385656056, 1.97511117767552, 2.9619980633188, 3.94837230811976, 4.93414393296425, 5.91918042083321, 6.57539195666371, 7.23124014043391, 7.88666213427763, 8.54158899806523, 9.19595078685875, 9.84968523082582, 10.2858102023733, 10.5768343000528, 10.9807577280921), .UNSPECIFIED.);
#37 = CARTESIAN_POINT('', (79.4161984870957, 5., 0.));
#38 = CARTESIAN_POINT('', (79.3256499076414, 4.77615792068081, 0.223842079319186));
#39 = CARTESIAN_POINT('', (79.2241407219429, 4.55437257766181, 0.445627422338194));
#40 = CARTESIAN_POINT('', (79.1114224456267, 4.33562136238132, 0.664378637618683));
#41 = CARTESIAN_POINT('', (78.9987527355351, 4.11696439907991, 0.883035600920093));
#42 = CARTESIAN_POINT('', (78.8747306096968, 3.90104450892999, 1.09895549107002));
#43 = CARTESIAN_POINT('', (78.7390915718921, 3.6890088395298, 1.3109911604702));
#44 = CARTESIAN_POINT('', (78.6035151655289, 3.47707107778077, 1.52292892221923));
#45 = CARTESIAN_POINT('', (78.4561203629904, 3.26868616682764, 1.73131383317239));
#46 = CARTESIAN_POINT('', (78.2966673382443, 3.06522741846317, 1.93477258153686));
#47 = CARTESIAN_POINT('', (78.1372971417678, 2.86187435725055, 2.13812564274948));
#48 = CARTESIAN_POINT('', (77.9655864654092, 2.66307264928064, 2.33692735071958));
#49 = CARTESIAN_POINT('', (77.7813934912874, 2.47048923512171, 2.52951076487852));
#50 = CARTESIAN_POINT('', (77.5973130488569, 2.2780234787476, 2.72197652125262));
#51 = CARTESIAN_POINT('', (77.4003537972013, 2.09134844507071, 2.90865155492929));
#52 = CARTESIAN_POINT('', (77.1905993669945, 1.91249819619282, 3.08750180380718));
#53 = CARTESIAN_POINT('', (76.9810013606831, 1.7337813244864, 3.2662186755136));
#54 = CARTESIAN_POINT('', (76.7580493095991, 1.56240186328898, 3.43759813671102));
#55 = CARTESIAN_POINT('', (76.5222628807933, 1.40082289698182, 3.59917710301818));
#56 = CARTESIAN_POINT('', (76.365186694804, 1.29318223296164, 3.70681776703836));
#57 = CARTESIAN_POINT('', (76.2021457605208, 1.18970488537758, 3.81029511462266));
#58 = CARTESIAN_POINT('', (76.0334711373197, 1.09122944479898, 3.90877055520127));
#59 = CARTESIAN_POINT('', (75.8648899112452, 0.992808531232267, 4.00719146876797));
#60 = CARTESIAN_POINT('', (75.6903888209463, 0.899217900930747, 4.10078209906964));
#61 = CARTESIAN_POINT('', (75.5105023172728, 0.811371933363872, 4.18862806663652));
#62 = CARTESIAN_POINT('', (75.3307327092737, 0.723583050755658, 4.27641694924473));
#63 = CARTESIAN_POINT('', (75.1452235671209, 0.641360864577612, 4.35863913542239));
#64 = CARTESIAN_POINT('', (74.9547726881361, 0.565666246297173, 4.43433375370283));
#65 = CARTESIAN_POINT('', (74.764465682801, 0.490028810535706, 4.5099711894643));
#66 = CARTESIAN_POINT('', (74.5687855489904, 0.420741607168537, 4.57925839283146));
#67 = CARTESIAN_POINT('', (74.3688476477321, 0.358759209275372, 4.64124079072463));
#68 = CARTESIAN_POINT('', (74.1690822541455, 0.296830290182755, 4.70316970981724));
#69 = CARTESIAN_POINT('', (73.9645455920134, 0.242039658608836, 4.75796034139116));
#70 = CARTESIAN_POINT('', (73.7567007246719, 0.195257687537842, 4.80474231246215));
#71 = CARTESIAN_POINT('', (73.5490551208028, 0.148520566927289, 4.85147943307271));
#72 = CARTESIAN_POINT('', (73.3375087612576, 0.109649137727898, 4.89035086227254));
#73 = CARTESIAN_POINT('', (73.1238561958796, 0.0793341661833913, 4.92066583381704));
#74 = CARTESIAN_POINT('', (72.9813224501722, 0.0591101803978455, 4.94088981960259));
#75 = CARTESIAN_POINT('', (72.8376122240656, 0.0426523201426856, 4.95734767985732));
#76 = CARTESIAN_POINT('', (72.6933250652412, 0.0301003548408236, 4.96989964515918));
#77 = CARTESIAN_POINT('', (72.5970429375415, 0.021724488714385, 4.97827551128562));
#78 = CARTESIAN_POINT('', (72.5004276049852, 0.0150792820618981, 4.9849207179381));
#79 = CARTESIAN_POINT('', (72.4036662449515, 0.0101906429072589, 4.98980935709274));
#80 = CARTESIAN_POINT('', (72.2693674684647, 0.00340551445386347, 4.99659448554614));
#81 = CARTESIAN_POINT('', (72.1346411426798, -2.3470008464483E-33, 5.));
#82 = CARTESIAN_POINT('', (72., 0., 5.));
#83 = ORIENTED_EDGE('', *, *, #84, .F.);
#84 = EDGE_CURVE('', #85, #34, #87, .T.);
#85 = VERTEX_POINT('', #86);
#86 = CARTESIAN_POINT('', (8., 0., 5.));
#87 = B_SPLINE_CURVE_WITH_KNOTS('', 3, (#88, #89, #90, #91, #92, #93, #94, #95, #96, #97, #98, #99, #100), .UNSPECIFIED., .F., .U., (4, 3, 3, 3, 4), (32., 48., 64., 80., 96.), .UNSPECIFIED.);
#88 = CARTESIAN_POINT('', (8., 0., 5.));
#89 = CARTESIAN_POINT('', (13.3333333333333, 0., 5.));
#90 = CARTESIAN_POINT('', (18.6666666666667, 0., 5.));
#91 = CARTESIAN_POINT('', (24., 0., 5.));
#92 = CARTESIAN_POINT('', (29.3333333333333, 0., 5.));
#93 = CARTESIAN_POINT('', (34.6666666666667, 0., 5.));
#94 = CARTESIAN_POINT('', (40., 0., 5.));
#95 = CARTESIAN_POINT('', (45.3333333333333, 0., 5.));
#96 = CARTESIAN_POINT('', (50.6666666666667, 0., 5.));
#97 = CARTESIAN_POINT('', (56., 0., 5.));
#98 = CARTESIAN_POINT('', (61.3333333333333, 0., 5.));
#99 = CARTESIAN_POINT('', (66.6666666666667, 0., 5.));
#100 = CARTESIAN_POINT('', (72., 0., 5.));
#101 = ORIENTED_EDGE('', *, *, #102, .T.);
#102 = EDGE_CURVE('', #85, #8, #103, .T.);
#103 = B_SPLINE_CURVE_WITH_KNOTS('', 3, (#104, #105, #106, #107, #108, #109, #110, #111, #112, #113, #114, #115, #116, #117, #118, #119, #120, #121, #122, #123, #124, #125, #126, #127, #128, #129, #130, #131, #132, #133, #134, #135, #136, #137, #138, #139, #140, #141, #142, #143, #144, #145, #146, #147, #148, #149), .UNSPECIFIED., .F., .U., (4, 3, 3, 3, 3, 3, 3, 3, 3, 3, 3, 3, 3, 3, 3, 4), (0., 0.657950626811468, 1.32028693215256, 1.98181183919456, 2.64251904265255, 3.30245215841347, 3.9616868537914, 4.6203128220983, 5.27842021005985, 5.93609151079824, 6.59339789608567, 7.25039842170214, 8.23548507604275, 9.21983815012971, 10.2035948305053, 10.980918885265), .UNSPECIFIED.);
#104 = CARTESIAN_POINT('', (8., 0., 5.));
#105 = CARTESIAN_POINT('', (7.78068312439618, 1.88891749918913E-17, 5.));
#106 = CARTESIAN_POINT('', (7.56100252048432, 0.00906394576757248, 4.99093605423254));
#107 = CARTESIAN_POINT('', (7.34315916442868, 0.0270105909560063, 4.97298940904411));
#108 = CARTESIAN_POINT('', (7.12386373751766, 0.0450768624709066, 4.9549231375292));
#109 = CARTESIAN_POINT('', (6.90570885304262, 0.0722008901799682, 4.92779910982006));
#110 = CARTESIAN_POINT('', (6.69076603425729, 0.107857931908093, 4.89214206809193));
#111 = CARTESIAN_POINT('', (6.47608653221325, 0.143471291804532, 4.85652870819549));
#112 = CARTESIAN_POINT('', (6.26394028007807, 0.187701382481497, 4.81229861751857));
#113 = CARTESIAN_POINT('', (6.05608896440316, 0.239767407758593, 4.76023259224147));
#114 = CARTESIAN_POINT('', (5.84849457142905, 0.291769074800617, 4.70823092519945));
#115 = CARTESIAN_POINT('', (5.64458978511887, 0.351728334178582, 4.64827166582153));
#116 = CARTESIAN_POINT('', (5.44576893511003, 0.41871358757943, 4.58128641242068));
#117 = CARTESIAN_POINT('', (5.24718102455321, 0.4856203607393, 4.51437963926081));
#118 = CARTESIAN_POINT('', (5.05315719741133, 0.559699946449641, 4.44030005355049));
#119 = CARTESIAN_POINT('', (4.86473058239294, 0.639967005575313, 4.36003299442482));
#120 = CARTESIAN_POINT('', (4.67650338302059, 0.720149116470874, 4.27985088352926));
#121 = CARTESIAN_POINT('', (4.49344005539019, 0.806678250542457, 4.19332174945767));
#122 = CARTESIAN_POINT('', (4.31625920902557, 0.898587902049816, 4.10141209795031));
#123 = CARTESIAN_POINT('', (4.13924196870051, 0.990412685613551, 4.00958731438658));
#124 = CARTESIAN_POINT('', (3.9677536767838, 1.08778018655568, 3.91221981344442));
#125 = CARTESIAN_POINT('', (3.80226157486723, 1.18978766012648, 3.81021233987362));
#126 = CARTESIAN_POINT('', (3.63689977596861, 1.29171481637998, 3.70828518362012));
#127 = CARTESIAN_POINT('', (3.47724972489386, 1.39843980632954, 3.60156019367052));
#128 = CARTESIAN_POINT('', (3.32359013894875, 1.5091456023522, 3.49085439764787));
#129 = CARTESIAN_POINT('', (3.17003237374502, 1.61977804046388, 3.38022195953618));
#130 = CARTESIAN_POINT('', (3.02223794593986, 1.73454068693784, 3.2654593130622));
#131 = CARTESIAN_POINT('', (2.88035108616738, 1.8527083199922, 3.14729168000783));
#132 = CARTESIAN_POINT('', (2.73854295372778, 1.97081038656213, 3.02918961343791));
#133 = CARTESIAN_POINT('', (2.6024615292616, 2.09245646008834, 2.90754353991167));
#134 = CARTESIAN_POINT('', (2.47215920609359, 2.21700975643011, 2.7829902435699));
#135 = CARTESIAN_POINT('', (2.34191751557206, 2.34150509527886, 2.65849490472115));
#136 = CARTESIAN_POINT('', (2.2173108292149, 2.46903584131382, 2.53096415868619));
#137 = CARTESIAN_POINT('', (2.09833156870076, 2.59904548000947, 2.40095451999054));
#138 = CARTESIAN_POINT('', (1.91993767538414, 2.79397798770351, 2.20602201229649));
#139 = CARTESIAN_POINT('', (1.75390261137429, 2.99480142047752, 2.0051985795225));
#140 = CARTESIAN_POINT('', (1.60005505365568, 3.19992659600269, 1.80007340399733));
#141 = CARTESIAN_POINT('', (1.44632206406153, 3.40489901767861, 1.59510098232141));
#142 = CARTESIAN_POINT('', (1.30448600670472, 3.61452427575595, 1.38547572424405));
#143 = CARTESIAN_POINT('', (1.17429881336943, 3.82749436059937, 1.17250563940063));
#144 = CARTESIAN_POINT('', (1.04419049704022, 4.04033541245384, 0.959664587546156));
#145 = CARTESIAN_POINT('', (0.925521162693815, 4.25683399396816, 0.743166006031837));
#146 = CARTESIAN_POINT('', (0.818030066673213, 4.47589615976061, 0.524103840239394));
#147 = CARTESIAN_POINT('', (0.733095025035278, 4.64899007043495, 0.35100992956505));
#148 = CARTESIAN_POINT('', (0.655058692174543, 4.82384753830053, 0.176152461699471));
#149 = CARTESIAN_POINT('', (0.583801512904336, 5., 0.));
#150 = B_SPLINE_SURFACE_WITH_KNOTS('', 1, 1, ((#151, #152), (#153, #154)), .UNSPECIFIED., .F., .F., .U., (2, 2), (2, 2), (24.5838015129043, 103.416198487096), (0., 1.), .UNSPECIFIED.);
#151 = CARTESIAN_POINT('', (0.583801512904337, 5., 0.));
#152 = CARTESIAN_POINT('', (0.583801512904343, 0., 5.));
#153 = CARTESIAN_POINT('', (79.4161984870957, 4.99999999999999, 0.));
#154 = CARTESIAN_POINT('', (79.4161984870957, -1.24344978758018E-14, 5.));
#155 = ADVANCED_FACE('', (#156), #187, .T.);
#156 = FACE_OUTER_BOUND('', #157, .T.);
#157 = EDGE_LOOP('', (#158, #159, #167, #174, #182));
#158 = ORIENTED_EDGE('', *, *, #33, .F.);
#159 = ORIENTED_EDGE('', *, *, #160, .T.);
#160 = EDGE_CURVE('', #10, #161, #163, .T.);
#161 = VERTEX_POINT('', #162);
#162 = CARTESIAN_POINT('', (80., 8., 0.));
#163 = (
   BOUNDED_CURVE ()
   B_SPLINE_CURVE (2, (#164, #165, #166), .UNSPECIFIED., .F., .U.)
   B_SPLINE_CURVE_WITH_KNOTS ((3, 3), (0.745321949341694, 1.), .UNSPECIFIED.)
   CURVE ()
   GEOMETRIC_REPRESENTATION_ITEM ()
   RATIONAL_B_SPLINE_CURVE ((1., 0.981586677498976, 1.))
   REPRESENTATION_ITEM ('')
);
#164 = CARTESIAN_POINT('', (79.4161984870957, 5., 0.));
#165 = CARTESIAN_POINT('', (80., 6.44319596558845, 0.));
#166 = CARTESIAN_POINT('', (80., 8., 0.));
#167 = ORIENTED_EDGE('', *, *, #168, .T.);
#168 = EDGE_CURVE('', #161, #169, #171, .T.);
#169 = VERTEX_POINT('', #170);
#170 = CARTESIAN_POINT('', (80., 8., 40.));
#171 = B_SPLINE_CURVE_WITH_KNOTS('', 1, (#172, #173), .UNSPECIFIED., .F., .U., (2, 2), (0.25, 0.75), .UNSPECIFIED.);
#172 = CARTESIAN_POINT('', (80., 8., 0.));
#173 = CARTESIAN_POINT('', (80., 8., 40.));
#174 = ORIENTED_EDGE('', *, *, #175, .T.);
#175 = EDGE_CURVE('', #169, #176, #178, .T.);
#176 = VERTEX_POINT('', #177);
#177 = CARTESIAN_POINT('', (72., 0., 40.));
#178 = (
   BOUNDED_CURVE ()
   B_SPLINE_CURVE (2, (#179, #180, #181), .UNSPECIFIED., .F., .U.)
   B_SPLINE_CURVE_WITH_KNOTS ((3, 3), (0., 1.), .UNSPECIFIED.)
   CURVE ()
   GEOMETRIC_REPRESENTATION_ITEM ()
   RATIONAL_B_SPLINE_CURVE ((1., 0.707106781186547, 1.))
   REPRESENTATION_ITEM ('')
);
#179 = CARTESIAN_POINT('', (80., 8., 40.));
#180 = CARTESIAN_POINT('', (80., -3.5527136788005E-15, 40.));
#181 = CARTESIAN_POINT('', (72., -3.5527136788005E-15, 40.));
#182 = ORIENTED_EDGE('', *, *, #183, .F.);
#183 = EDGE_CURVE('', #34, #176, #184, .T.);
#184 = B_SPLINE_CURVE_WITH_KNOTS('', 1, (#185, #186), .UNSPECIFIED., .F., .U., (2, 2), (0.3125, 0.75), .UNSPECIFIED.);
#185 = CARTESIAN_POINT('', (72., 0., 5.));
#186 = CARTESIAN_POINT('', (72., 0., 40.));
#187 = (
   BOUNDED_SURFACE ()
   B_SPLINE_SURFACE (2, 1, ((#188, #189), (#190, #191), (#192, #193)), .UNSPECIFIED., .F., .F., .U.)
   B_SPLINE_SURFACE_WITH_KNOTS ((3, 3), (2, 2), (0., 1.), (0.25, 0.75), .UNSPECIFIED.)
   GEOMETRIC_REPRESENTATION_ITEM ()
   RATIONAL_B_SPLINE_SURFACE (((1., 1.), (0.707106781186547, 0.707106781186547), (1., 1.)))
   REPRESENTATION_ITEM ('')
   SURFACE ()
);
#188 = CARTESIAN_POINT('', (72., -3.5527136788005E-15, 0.));
#189 = CARTESIAN_POINT('', (72., -3.5527136788005E-15, 40.));
#190 = CARTESIAN_POINT('', (80., -3.5527136788005E-15, 0.));
#191 = CARTESIAN_POINT('', (80., -3.5527136788005E-15, 40.));
#192 = CARTESIAN_POINT('', (80., 8., 0.));
#193 = CARTESIAN_POINT('', (80., 8., 40.));
#194 = ADVANCED_FACE('', (#195), #226, .T.);
#195 = FACE_OUTER_BOUND('', #196, .T.);
#196 = EDGE_LOOP('', (#197, #198, #206, #213, #220, #225));
#197 = ORIENTED_EDGE('', *, *, #7, .F.);
#198 = ORIENTED_EDGE('', *, *, #199, .F.);
#199 = EDGE_CURVE('', #200, #8, #202, .T.);
#200 = VERTEX_POINT('', #201);
#201 = CARTESIAN_POINT('', (0., 8., 0.));
#202 = (
   BOUNDED_CURVE ()
   B_SPLINE_CURVE (2, (#203, #204, #205), .UNSPECIFIED., .F., .U.)
   B_SPLINE_CURVE_WITH_KNOTS ((3, 3), (0., 0.254678050658306), .UNSPECIFIED.)
   CURVE ()
   GEOMETRIC_REPRESENTATION_ITEM ()
   RATIONAL_B_SPLINE_CURVE ((1., 0.981586677498976, 1.))
   REPRESENTATION_ITEM ('')
);
#203 = CARTESIAN_POINT('', (-8.88178419700125E-16, 8., 0.));
#204 = CARTESIAN_POINT('', (-1.03010955512304E-15, 6.44319596558843, 0.));
#205 = CARTESIAN_POINT('', (0.583801512904336, 5., 0.));
#206 = ORIENTED_EDGE('', *, *, #207, .T.);
#207 = EDGE_CURVE('', #200, #208, #210, .T.);
#208 = VERTEX_POINT('', #209);
#209 = CARTESIAN_POINT('', (0., 60., 0.));
#210 = B_SPLINE_CURVE_WITH_KNOTS('', 1, (#211, #212), .UNSPECIFIED., .F., .U., (2, 2), (8., 60.), .UNSPECIFIED.);
#211 = CARTESIAN_POINT('', (0., 8., 0.));
#212 = CARTESIAN_POINT('', (0., 60., 0.));
#213 = ORIENTED_EDGE('', *, *, #214, .T.);
#214 = EDGE_CURVE('', #208, #215, #217, .T.);
#215 = VERTEX_POINT('', #216);
#216 = CARTESIAN_POINT('', (80., 60., 0.));
#217 = B_SPLINE_CURVE_WITH_KNOTS('', 1, (#218, #219), .UNSPECIFIED., .F., .U., (2, 2), (0., 80.), .UNSPECIFIED.);
#218 = CARTESIAN_POINT('', (0., 60., 0.));
#219 = CARTESIAN_POINT('', (80., 60., 0.));
#220 = ORIENTED_EDGE('', *, *, #221, .F.);
#221 = EDGE_CURVE('', #161, #215, #222, .T.);
#222 = B_SPLINE_CURVE_WITH_KNOTS('', 1, (#223, #224), .UNSPECIFIED., .F., .U., (2, 2), (8., 60.), .UNSPECIFIED.);
#223 = CARTESIAN_POINT('', (80., 8., 0.));
#224 = CARTESIAN_POINT('', (80., 60., 0.));
#225 = ORIENTED_EDGE('', *, *, #160, .F.);
#226 = B_SPLINE_SURFACE_WITH_KNOTS('', 1, 1, ((#227, #228), (#229, #230)), .UNSPECIFIED., .F., .F., .U., (2, 2), (2, 2), (4.99999999999999, 60.), (0., 80.), .UNSPECIFIED.);
#227 = CARTESIAN_POINT('', (0., 4.99999999999999, 0.));
#228 = CARTESIAN_POINT('', (80., 4.99999999999999, 0.));
#229 = CARTESIAN_POINT('', (0., 60., 0.));
#230 = CARTESIAN_POINT('', (80., 60., 0.));
#231 = ADVANCED_FACE('', (#232), #256, .T.);
#232 = FACE_OUTER_BOUND('', #233, .T.);
#233 = EDGE_LOOP('', (#234, #235, #242, #250, #255));
#234 = ORIENTED_EDGE('', *, *, #102, .F.);
#235 = ORIENTED_EDGE('', *, *, #236, .T.);
#236 = EDGE_CURVE('', #85, #237, #239, .T.);
#237 = VERTEX_POINT('', #238);
#238 = CARTESIAN_POINT('', (8., 0., 40.));
#239 = B_SPLINE_CURVE_WITH_KNOTS('', 1, (#240, #241), .UNSPECIFIED., .F., .U., (2, 2), (0.3125, 0.75), .UNSPECIFIED.);
#240 = CARTESIAN_POINT('', (8., 0., 5.));
#241 = CARTESIAN_POINT('', (8., 0., 40.));
#242 = ORIENTED_EDGE('', *, *, #243, .T.);
#243 = EDGE_CURVE('', #237, #244, #246, .T.);
#244 = VERTEX_POINT('', #245);
#245 = CARTESIAN_POINT('', (0., 8., 40.));
#246 = (
   BOUNDED_CURVE ()
   B_SPLINE_CURVE (2, (#247, #248, #249), .UNSPECIFIED., .F., .U.)
   B_SPLINE_CURVE_WITH_KNOTS ((3, 3), (0., 1.), .UNSPECIFIED.)
   CURVE ()
   GEOMETRIC_REPRESENTATION_ITEM ()
   RATIONAL_B_SPLINE_CURVE ((1., 0.707106781186548, 1.))
   REPRESENTATION_ITEM ('')
);
#247 = CARTESIAN_POINT('', (8., 0., 40.));
#248 = CARTESIAN_POINT('', (-8.88178419700125E-16, 6.89018569679533E-16, 40.));
#249 = CARTESIAN_POINT('', (-8.88178419700125E-16, 8., 40.));
#250 = ORIENTED_EDGE('', *, *, #251, .F.);
#251 = EDGE_CURVE('', #200, #244, #252, .T.);
#252 = B_SPLINE_CURVE_WITH_KNOTS('', 1, (#253, #254), .UNSPECIFIED., .F., .U., (2, 2), (0.25, 0.75), .UNSPECIFIED.);
#253 = CARTESIAN_POINT('', (0., 8., 0.));
#254 = CARTESIAN_POINT('', (0., 8., 40.));
#255 = ORIENTED_EDGE('', *, *, #199, .T.);
#256 = (
   BOUNDED_SURFACE ()
   B_SPLINE_SURFACE (2, 1, ((#257, #258), (#259, #260), (#261, #262)), .UNSPECIFIED., .F., .F., .U.)
   B_SPLINE_SURFACE_WITH_KNOTS ((3, 3), (2, 2), (0., 1.), (0.25, 0.75), .UNSPECIFIED.)
   GEOMETRIC_REPRESENTATION_ITEM ()
   RATIONAL_B_SPLINE_SURFACE (((1., 1.), (0.707106781186548, 0.707106781186548), (1., 1.)))
   REPRESENTATION_ITEM ('')
   SURFACE ()
);
#257 = CARTESIAN_POINT('', (-8.88178419700125E-16, 8., 0.));
#258 = CARTESIAN_POINT('', (-8.88178419700125E-16, 8., 40.));
#259 = CARTESIAN_POINT('', (-8.88178419700125E-16, 6.89018569679533E-16, 0.));
#260 = CARTESIAN_POINT('', (-8.88178419700125E-16, 6.89018569679533E-16, 40.));
#261 = CARTESIAN_POINT('', (8., 0., 0.));
#262 = CARTESIAN_POINT('', (8., 0., 40.));
#263 = ADVANCED_FACE('', (#264), #274, .T.);
#264 = FACE_OUTER_BOUND('', #265, .T.);
#265 = EDGE_LOOP('', (#266, #267, #268, #273));
#266 = ORIENTED_EDGE('', *, *, #84, .T.);
#267 = ORIENTED_EDGE('', *, *, #183, .T.);
#268 = ORIENTED_EDGE('', *, *, #269, .F.);
#269 = EDGE_CURVE('', #237, #176, #270, .T.);
#270 = B_SPLINE_CURVE_WITH_KNOTS('', 1, (#271, #272), .UNSPECIFIED., .F., .U., (2, 2), (8., 72.), .UNSPECIFIED.);
#271 = CARTESIAN_POINT('', (8., 0., 40.));
#272 = CARTESIAN_POINT('', (72., 0., 40.));
#273 = ORIENTED_EDGE('', *, *, #236, .F.);
#274 = B_SPLINE_SURFACE_WITH_KNOTS('', 1, 1, ((#275, #276), (#277, #278)), .UNSPECIFIED., .F., .F., .U., (2, 2), (2, 2), (8., 72.), (5., 40.), .UNSPECIFIED.);
#275 = CARTESIAN_POINT('', (8., 0., 5.));
#276 = CARTESIAN_POINT('', (8., 0., 40.));
#277 = CARTESIAN_POINT('', (72., 0., 5.));
#278 = CARTESIAN_POINT('', (72., 0., 40.));
#279 = ADVANCED_FACE('', (#280), #304, .T.);
#280 = FACE_OUTER_BOUND('', #281, .T.);
#281 = EDGE_LOOP('', (#282, #283, #290, #297, #302, #303));
#282 = ORIENTED_EDGE('', *, *, #175, .F.);
#283 = ORIENTED_EDGE('', *, *, #284, .T.);
#284 = EDGE_CURVE('', #169, #285, #287, .T.);
#285 = VERTEX_POINT('', #286);
#286 = CARTESIAN_POINT('', (80., 60., 40.));
#287 = B_SPLINE_CURVE_WITH_KNOTS('', 1, (#288, #289), .UNSPECIFIED., .F., .U., (2, 2), (8., 60.), .UNSPECIFIED.);
#288 = CARTESIAN_POINT('', (80., 8., 40.));
#289 = CARTESIAN_POINT('', (80., 60., 40.));
#290 = ORIENTED_EDGE('', *, *, #291, .F.);
#291 = EDGE_CURVE('', #292, #285, #294, .T.);
#292 = VERTEX_POINT('', #293);
#293 = CARTESIAN_POINT('', (0., 60., 40.));
#294 = B_SPLINE_CURVE_WITH_KNOTS('', 1, (#295, #296), .UNSPECIFIED., .F., .U., (2, 2), (0., 80.), .UNSPECIFIED.);
#295 = CARTESIAN_POINT('', (0., 60., 40.));
#296 = CARTESIAN_POINT('', (80., 60., 40.));
#297 = ORIENTED_EDGE('', *, *, #298, .F.);
#298 = EDGE_CURVE('', #244, #292, #299, .T.);
#299 = B_SPLINE_CURVE_WITH_KNOTS('', 1, (#300, #301), .UNSPECIFIED., .F., .U., (2, 2), (8., 60.), .UNSPECIFIED.);
#300 = CARTESIAN_POINT('', (0., 8., 40.));
#301 = CARTESIAN_POINT('', (0., 60., 40.));
#302 = ORIENTED_EDGE('', *, *, #243, .F.);
#303 = ORIENTED_EDGE('', *, *, #269, .T.);
#304 = B_SPLINE_SURFACE_WITH_KNOTS('', 1, 1, ((#305, #306), (#307, #308)), .UNSPECIFIED., .F., .F., .U., (2, 2), (2, 2), (0., 80.), (0., 60.), .UNSPECIFIED.);
#305 = CARTESIAN_POINT('', (0., 0., 40.));
#306 = CARTESIAN_POINT('', (0., 60., 40.));
#307 = CARTESIAN_POINT('', (80., 0., 40.));
#308 = CARTESIAN_POINT('', (80., 60., 40.));
#309 = ADVANCED_FACE('', (#310), #320, .T.);
#310 = FACE_OUTER_BOUND('', #311, .T.);
#311 = EDGE_LOOP('', (#312, #313, #314, #319));
#312 = ORIENTED_EDGE('', *, *, #168, .F.);
#313 = ORIENTED_EDGE('', *, *, #221, .T.);
#314 = ORIENTED_EDGE('', *, *, #315, .T.);
#315 = EDGE_CURVE('', #215, #285, #316, .T.);
#316 = B_SPLINE_CURVE_WITH_KNOTS('', 1, (#317, #318), .UNSPECIFIED., .F., .U., (2, 2), (0., 40.), .UNSPECIFIED.);
#317 = CARTESIAN_POINT('', (80., 60., 0.));
#318 = CARTESIAN_POINT('', (80., 60., 40.));
#319 = ORIENTED_EDGE('', *, *, #284, .F.);
#320 = B_SPLINE_SURFACE_WITH_KNOTS('', 1, 1, ((#321, #322), (#323, #324)), .UNSPECIFIED., .F., .F., .U., (2, 2), (2, 2), (8., 60.), (0., 40.), .UNSPECIFIED.);
#321 = CARTESIAN_POINT('', (80., 8., 0.));
#322 = CARTESIAN_POINT('', (80., 8., 40.));
#323 = CARTESIAN_POINT('', (80., 60., 0.));
#324 = CARTESIAN_POINT('', (80., 60., 40.));
#325 = ADVANCED_FACE('', (#326), #336, .T.);
#326 = FACE_OUTER_BOUND('', #327, .T.);
#327 = EDGE_LOOP('', (#328, #333, #334, #335));
#328 = ORIENTED_EDGE('', *, *, #329, .T.);
#329 = EDGE_CURVE('', #208, #292, #330, .T.);
#330 = B_SPLINE_CURVE_WITH_KNOTS('', 1, (#331, #332), .UNSPECIFIED., .F., .U., (2, 2), (0., 40.), .UNSPECIFIED.);
#331 = CARTESIAN_POINT('', (0., 60., 0.));
#332 = CARTESIAN_POINT('', (0., 60., 40.));
#333 = ORIENTED_EDGE('', *, *, #291, .T.);
#334 = ORIENTED_EDGE('', *, *, #315, .F.);
#335 = ORIENTED_EDGE('', *, *, #214, .F.);
#336 = B_SPLINE_SURFACE_WITH_KNOTS('', 1, 1, ((#337, #338), (#339, #340)), .UNSPECIFIED., .F., .F., .U., (2, 2), (2, 2), (0., 40.), (0., 80.), .UNSPECIFIED.);
#337 = CARTESIAN_POINT('', (0., 60., 0.));
#338 = CARTESIAN_POINT('', (80., 60., 0.));
#339 = CARTESIAN_POINT('', (0., 60., 40.));
#340 = CARTESIAN_POINT('', (80., 60., 40.));
#341 = ADVANCED_FACE('', (#342), #348, .T.);
#342 = FACE_OUTER_BOUND('', #343, .T.);
#343 = EDGE_LOOP('', (#344, #345, #346, #347));
#344 = ORIENTED_EDGE('', *, *, #251, .T.);
#345 = ORIENTED_EDGE('', *, *, #298, .T.);
#346 = ORIENTED_EDGE('', *, *, #329, .F.);
#347 = ORIENTED_EDGE('', *, *, #207, .F.);
#348 = B_SPLINE_SURFACE_WITH_KNOTS('', 1, 1, ((#349, #350), (#351, #352)), .UNSPECIFIED., .F., .F., .U., (2, 2), (2, 2), (0., 40.), (8., 60.), .UNSPECIFIED.);
#349 = CARTESIAN_POINT('', (0., 8., 0.));
#350 = CARTESIAN_POINT('', (0., 60., 0.));
#351 = CARTESIAN_POINT('', (0., 8., 40.));
#352 = CARTESIAN_POINT('', (0., 60., 40.));
#353 = DRAUGHTING_MODEL('', (#361), #364);
#354 = PRESENTATION_STYLE_ASSIGNMENT((#355));
#355 = SURFACE_STYLE_USAGE(.POSITIVE., #356);
#356 = SURFACE_SIDE_STYLE('', (#357));
#357 = SURFACE_STYLE_FILL_AREA(#358);
#358 = FILL_AREA_STYLE('', (#359));
#359 = FILL_AREA_STYLE_COLOUR('', #360);
#360 = COLOUR_RGB('', 0.50196078431373, 0.50196078431373, 0.50196078431373);
#361 = STYLED_ITEM('', (#354), #1);
#362 = CARTESIAN_POINT('Origin', (0., 0., 0.));
#363 = GEOMETRIC_SET('', (#362));
#364 = (
   GEOMETRIC_REPRESENTATION_CONTEXT (3)
   GLOBAL_UNCERTAINTY_ASSIGNED_CONTEXT ((#366))
   GLOBAL_UNIT_ASSIGNED_CONTEXT ((#365, #367, #368))
   REPRESENTATION_CONTEXT ('', '3D')
);
#365 = (
   LENGTH_UNIT ()
   NAMED_UNIT (*)
   SI_UNIT (.MILLI., .METRE.)
);
#366 = UNCERTAINTY_MEASURE_WITH_UNIT(LENGTH_MEASURE(1.E-6), #365, 'DISTANCE_ACCURACY_VALUE', '');
#367 = (
   NAMED_UNIT (*)
   SI_UNIT ($, .STERADIAN.)
   SOLID_ANGLE_UNIT ()
);
#368 = (
   NAMED_UNIT (*)
   PLANE_ANGLE_UNIT ()
   SI_UNIT ($, .RADIAN.)
);
#369 = SHAPE_REPRESENTATION('', (#384), #364);
#370 = PRODUCT_DEFINITION_SHAPE('', '', #371);
#371 = PRODUCT_DEFINITION('', '', #374, #378);
#372 = APPLICATION_CONTEXT('configuration controlled 3D designs of mechanical parts and assemblies');
#373 = APPLICATION_PROTOCOL_DEFINITION('International Standard', 'automotive_design', 2002, #372);
#374 = PRODUCT_DEFINITION_FORMATION_WITH_SPECIFIED_SOURCE('', '', #375, .NOT_KNOWN.);
#375 = PRODUCT('IndexVsPos', 'IndexVsPos', '', (#376));
#376 = PRODUCT_CONTEXT('', #372, 'mechanical');
#377 = PRODUCT_RELATED_PRODUCT_CATEGORY('detail', '', (#375));
#378 = PRODUCT_DEFINITION_CONTEXT('part definition', #372, 'design');
#379 = SHAPE_DEFINITION_REPRESENTATION(#370, #369);
#380 = SHAPE_REPRESENTATION_RELATIONSHIP('', '', #369, #381);
#381 = SHAPE_REPRESENTATION('', (#363), #364);
#382 = SHAPE_REPRESENTATION_RELATIONSHIP('', '', #369, #383);
#383 = ADVANCED_BREP_SHAPE_REPRESENTATION('', (#1), #364);
#384 = AXIS2_PLACEMENT_3D('', #385, #386, #387);
#385 = CARTESIAN_POINT('', (0., 0., 0.));
#386 = DIRECTION('', (0., 0., 1.));
#387 = DIRECTION('', (1., 0., 0.));
ENDSEC;
END-ISO-10303-21;
