ISO-10303-21;
HEADER;
FILE_DESCRIPTION(('STEP'), '1');
FILE_NAME('EnumSelect', '2026-04-21T21:12:03', (''), (''), 'Express 3.1.2.0', 'Express Tool', 'Unknown');
FILE_SCHEMA(('AUTOMOTIVE_DESIGN'));
ENDSEC;

DATA;
#1 = MANIFOLD_SOLID_BREP('Chamfer_0', #2);
#2 = CLOSED_SHELL('', (#3, #83, #153, #181, #203, #254, #297, #439, #519, #541, #615, #629, #670, #703));
#3 = ADVANCED_FACE('', (#4), #78, .T.);
#4 = FACE_OUTER_BOUND('', #5, .T.);
#5 = EDGE_LOOP('', (#6, #38, #47, #71));
#6 = ORIENTED_EDGE('', *, *, #7, .T.);
#7 = EDGE_CURVE('', #8, #10, #12, .T.);
#8 = VERTEX_POINT('', #9);
#9 = CARTESIAN_POINT('', (0., 60., 4.));
#10 = VERTEX_POINT('', #11);
#11 = CARTESIAN_POINT('', (80., 60., 4.));
#12 = B_SPLINE_CURVE_WITH_KNOTS('', 3, (#13, #14, #15, #16, #17, #18, #19, #20, #21, #22, #23, #24, #25, #26, #27, #28, #29, #30, #31, #32, #33, #34, #35, #36, #37), .UNSPECIFIED., .F., .U., (4, 3, 3, 3, 3, 3, 3, 3, 4), (40., 44., 53., 62., 80., 98., 107., 116., 120.), .UNSPECIFIED.);
#13 = CARTESIAN_POINT('', (0., 60., 4.));
#14 = CARTESIAN_POINT('', (1.33333333333333, 60., 4.));
#15 = CARTESIAN_POINT('', (2.66666666666667, 60., 4.));
#16 = CARTESIAN_POINT('', (4., 60., 4.));
#17 = CARTESIAN_POINT('', (7., 60., 4.));
#18 = CARTESIAN_POINT('', (10., 60., 4.));
#19 = CARTESIAN_POINT('', (13., 60., 4.));
#20 = CARTESIAN_POINT('', (16., 60., 4.));
#21 = CARTESIAN_POINT('', (19., 60., 4.));
#22 = CARTESIAN_POINT('', (22., 60., 4.));
#23 = CARTESIAN_POINT('', (28., 60., 4.));
#24 = CARTESIAN_POINT('', (34., 60., 4.));
#25 = CARTESIAN_POINT('', (40., 60., 4.));
#26 = CARTESIAN_POINT('', (46., 60., 4.));
#27 = CARTESIAN_POINT('', (52., 60., 4.));
#28 = CARTESIAN_POINT('', (58., 60., 4.));
#29 = CARTESIAN_POINT('', (61., 60., 4.));
#30 = CARTESIAN_POINT('', (64., 60., 4.));
#31 = CARTESIAN_POINT('', (67., 60., 4.));
#32 = CARTESIAN_POINT('', (70., 60., 4.));
#33 = CARTESIAN_POINT('', (73., 60., 4.));
#34 = CARTESIAN_POINT('', (76., 60., 4.));
#35 = CARTESIAN_POINT('', (77.3333333333333, 60., 4.));
#36 = CARTESIAN_POINT('', (78.6666666666667, 60., 4.));
#37 = CARTESIAN_POINT('', (80., 60., 4.));
#38 = ORIENTED_EDGE('', *, *, #39, .T.);
#39 = EDGE_CURVE('', #10, #40, #42, .T.);
#40 = VERTEX_POINT('', #41);
#41 = CARTESIAN_POINT('', (76., 56., 0.));
#42 = B_SPLINE_CURVE_WITH_KNOTS('', 3, (#43, #44, #45, #46), .UNSPECIFIED., .F., .U., (4, 4), (0., 6.92820323027551), .UNSPECIFIED.);
#43 = CARTESIAN_POINT('', (80., 60., 4.));
#44 = CARTESIAN_POINT('', (78.6666666666667, 58.6666666666667, 2.66666666666667));
#45 = CARTESIAN_POINT('', (77.3333333333333, 57.3333333333333, 1.33333333333333));
#46 = CARTESIAN_POINT('', (76., 56., 0.));
#47 = ORIENTED_EDGE('', *, *, #48, .F.);
#48 = EDGE_CURVE('', #49, #40, #51, .T.);
#49 = VERTEX_POINT('', #50);
#50 = CARTESIAN_POINT('', (4., 56., 0.));
#51 = B_SPLINE_CURVE_WITH_KNOTS('', 3, (#52, #53, #54, #55, #56, #57, #58, #59, #60, #61, #62, #63, #64, #65, #66, #67, #68, #69, #70), .UNSPECIFIED., .F., .U., (4, 3, 3, 3, 3, 3, 4), (44., 53., 62., 80., 98., 107., 116.), .UNSPECIFIED.);
#52 = CARTESIAN_POINT('', (4., 56., 0.));
#53 = CARTESIAN_POINT('', (7., 56., 0.));
#54 = CARTESIAN_POINT('', (10., 56., 0.));
#55 = CARTESIAN_POINT('', (13., 56., 0.));
#56 = CARTESIAN_POINT('', (16., 56., 0.));
#57 = CARTESIAN_POINT('', (19., 56., 0.));
#58 = CARTESIAN_POINT('', (22., 56., 0.));
#59 = CARTESIAN_POINT('', (28., 56., 0.));
#60 = CARTESIAN_POINT('', (34., 56., 0.));
#61 = CARTESIAN_POINT('', (40., 56., 0.));
#62 = CARTESIAN_POINT('', (46., 56., 0.));
#63 = CARTESIAN_POINT('', (52., 56., 0.));
#64 = CARTESIAN_POINT('', (58., 56., 0.));
#65 = CARTESIAN_POINT('', (61., 56., 0.));
#66 = CARTESIAN_POINT('', (64., 56., 0.));
#67 = CARTESIAN_POINT('', (67., 56., 0.));
#68 = CARTESIAN_POINT('', (70., 56., 0.));
#69 = CARTESIAN_POINT('', (73., 56., 0.));
#70 = CARTESIAN_POINT('', (76., 56., 0.));
#71 = ORIENTED_EDGE('', *, *, #72, .F.);
#72 = EDGE_CURVE('', #8, #49, #73, .T.);
#73 = B_SPLINE_CURVE_WITH_KNOTS('', 3, (#74, #75, #76, #77), .UNSPECIFIED., .F., .U., (4, 4), (0., 6.92820323027551), .UNSPECIFIED.);
#74 = CARTESIAN_POINT('', (0., 60., 4.));
#75 = CARTESIAN_POINT('', (1.33333333333333, 58.6666666666667, 2.66666666666667));
#76 = CARTESIAN_POINT('', (2.66666666666667, 57.3333333333333, 1.33333333333333));
#77 = CARTESIAN_POINT('', (4., 56., 0.));
#78 = B_SPLINE_SURFACE_WITH_KNOTS('', 1, 1, ((#79, #80), (#81, #82)), .UNSPECIFIED., .F., .F., .U., (2, 2), (2, 2), (40., 120.), (0., 1.), .UNSPECIFIED.);
#79 = CARTESIAN_POINT('', (0., 60., 4.));
#80 = CARTESIAN_POINT('', (0., 56., 0.));
#81 = CARTESIAN_POINT('', (80., 60., 4.));
#82 = CARTESIAN_POINT('', (80., 56., 0.));
#83 = ADVANCED_FACE('', (#84), #148, .T.);
#84 = FACE_OUTER_BOUND('', #85, .T.);
#85 = EDGE_LOOP('', (#86, #110, #111, #141));
#86 = ORIENTED_EDGE('', *, *, #87, .T.);
#87 = EDGE_CURVE('', #88, #40, #90, .T.);
#88 = VERTEX_POINT('', #89);
#89 = CARTESIAN_POINT('', (76., 4., 0.));
#90 = B_SPLINE_CURVE_WITH_KNOTS('', 3, (#91, #92, #93, #94, #95, #96, #97, #98, #99, #100, #101, #102, #103, #104, #105, #106, #107, #108, #109), .UNSPECIFIED., .F., .U., (4, 3, 3, 3, 3, 3, 4), (34., 40.5, 47., 60., 73., 79.5, 86.), .UNSPECIFIED.);
#91 = CARTESIAN_POINT('', (76., 4., 0.));
#92 = CARTESIAN_POINT('', (76., 6.16666666666667, 0.));
#93 = CARTESIAN_POINT('', (76., 8.33333333333333, 0.));
#94 = CARTESIAN_POINT('', (76., 10.5, 0.));
#95 = CARTESIAN_POINT('', (76., 12.6666666666667, 0.));
#96 = CARTESIAN_POINT('', (76., 14.8333333333333, 0.));
#97 = CARTESIAN_POINT('', (76., 17., 0.));
#98 = CARTESIAN_POINT('', (76., 21.3333333333333, 0.));
#99 = CARTESIAN_POINT('', (76., 25.6666666666667, 0.));
#100 = CARTESIAN_POINT('', (76., 30., 0.));
#101 = CARTESIAN_POINT('', (76., 34.3333333333333, 0.));
#102 = CARTESIAN_POINT('', (76., 38.6666666666667, 0.));
#103 = CARTESIAN_POINT('', (76., 43., 0.));
#104 = CARTESIAN_POINT('', (76., 45.1666666666667, 0.));
#105 = CARTESIAN_POINT('', (76., 47.3333333333333, 0.));
#106 = CARTESIAN_POINT('', (76., 49.5, 0.));
#107 = CARTESIAN_POINT('', (76., 51.6666666666667, 0.));
#108 = CARTESIAN_POINT('', (76., 53.8333333333333, 0.));
#109 = CARTESIAN_POINT('', (76., 56., 0.));
#110 = ORIENTED_EDGE('', *, *, #39, .F.);
#111 = ORIENTED_EDGE('', *, *, #112, .F.);
#112 = EDGE_CURVE('', #113, #10, #115, .T.);
#113 = VERTEX_POINT('', #114);
#114 = CARTESIAN_POINT('', (80., 0., 4.));
#115 = B_SPLINE_CURVE_WITH_KNOTS('', 3, (#116, #117, #118, #119, #120, #121, #122, #123, #124, #125, #126, #127, #128, #129, #130, #131, #132, #133, #134, #135, #136, #137, #138, #139, #140), .UNSPECIFIED., .F., .U., (4, 3, 3, 3, 3, 3, 3, 3, 4), (30., 34., 40.5, 47., 60., 73., 79.5, 86., 90.), .UNSPECIFIED.);
#116 = CARTESIAN_POINT('', (80., 0., 4.));
#117 = CARTESIAN_POINT('', (80., 1.33333333333333, 4.));
#118 = CARTESIAN_POINT('', (80., 2.66666666666667, 4.));
#119 = CARTESIAN_POINT('', (80., 4., 4.));
#120 = CARTESIAN_POINT('', (80., 6.16666666666667, 4.));
#121 = CARTESIAN_POINT('', (80., 8.33333333333333, 4.));
#122 = CARTESIAN_POINT('', (80., 10.5, 4.));
#123 = CARTESIAN_POINT('', (80., 12.6666666666667, 4.));
#124 = CARTESIAN_POINT('', (80., 14.8333333333333, 4.));
#125 = CARTESIAN_POINT('', (80., 17., 4.));
#126 = CARTESIAN_POINT('', (80., 21.3333333333333, 4.));
#127 = CARTESIAN_POINT('', (80., 25.6666666666667, 4.));
#128 = CARTESIAN_POINT('', (80., 30., 4.));
#129 = CARTESIAN_POINT('', (80., 34.3333333333333, 4.));
#130 = CARTESIAN_POINT('', (80., 38.6666666666667, 4.));
#131 = CARTESIAN_POINT('', (80., 43., 4.));
#132 = CARTESIAN_POINT('', (80., 45.1666666666667, 4.));
#133 = CARTESIAN_POINT('', (80., 47.3333333333333, 4.));
#134 = CARTESIAN_POINT('', (80., 49.5, 4.));
#135 = CARTESIAN_POINT('', (80., 51.6666666666667, 4.));
#136 = CARTESIAN_POINT('', (80., 53.8333333333333, 4.));
#137 = CARTESIAN_POINT('', (80., 56., 4.));
#138 = CARTESIAN_POINT('', (80., 57.3333333333333, 4.));
#139 = CARTESIAN_POINT('', (80., 58.6666666666667, 4.));
#140 = CARTESIAN_POINT('', (80., 60., 4.));
#141 = ORIENTED_EDGE('', *, *, #142, .T.);
#142 = EDGE_CURVE('', #113, #88, #143, .T.);
#143 = B_SPLINE_CURVE_WITH_KNOTS('', 3, (#144, #145, #146, #147), .UNSPECIFIED., .F., .U., (4, 4), (0., 6.92820323027553), .UNSPECIFIED.);
#144 = CARTESIAN_POINT('', (80., 0., 4.));
#145 = CARTESIAN_POINT('', (78.6666666666667, 1.33333333333334, 2.66666666666666));
#146 = CARTESIAN_POINT('', (77.3333333333333, 2.66666666666666, 1.33333333333334));
#147 = CARTESIAN_POINT('', (76., 4., 0.));
#148 = B_SPLINE_SURFACE_WITH_KNOTS('', 1, 1, ((#149, #150), (#151, #152)), .UNSPECIFIED., .F., .F., .U., (2, 2), (2, 2), (30., 90.), (0., 1.), .UNSPECIFIED.);
#149 = CARTESIAN_POINT('', (76., 0., 0.));
#150 = CARTESIAN_POINT('', (80., 0., 4.));
#151 = CARTESIAN_POINT('', (76., 60., 0.));
#152 = CARTESIAN_POINT('', (80., 60., 4.));
#153 = ADVANCED_FACE('', (#154), #176, .T.);
#154 = FACE_OUTER_BOUND('', #155, .T.);
#155 = EDGE_LOOP('', (#156, #157, #164, #171));
#156 = ORIENTED_EDGE('', *, *, #112, .T.);
#157 = ORIENTED_EDGE('', *, *, #158, .T.);
#158 = EDGE_CURVE('', #10, #159, #161, .T.);
#159 = VERTEX_POINT('', #160);
#160 = CARTESIAN_POINT('', (80., 60., 34.));
#161 = B_SPLINE_CURVE_WITH_KNOTS('', 1, (#162, #163), .UNSPECIFIED., .F., .U., (2, 2), (4., 34.), .UNSPECIFIED.);
#162 = CARTESIAN_POINT('', (80., 60., 4.));
#163 = CARTESIAN_POINT('', (80., 60., 34.));
#164 = ORIENTED_EDGE('', *, *, #165, .F.);
#165 = EDGE_CURVE('', #166, #159, #168, .T.);
#166 = VERTEX_POINT('', #167);
#167 = CARTESIAN_POINT('', (80., 0., 34.));
#168 = B_SPLINE_CURVE_WITH_KNOTS('', 1, (#169, #170), .UNSPECIFIED., .F., .U., (2, 2), (0.25, 0.75), .UNSPECIFIED.);
#169 = CARTESIAN_POINT('', (80., 0., 34.));
#170 = CARTESIAN_POINT('', (80., 60., 34.));
#171 = ORIENTED_EDGE('', *, *, #172, .F.);
#172 = EDGE_CURVE('', #113, #166, #173, .T.);
#173 = B_SPLINE_CURVE_WITH_KNOTS('', 1, (#174, #175), .UNSPECIFIED., .F., .U., (2, 2), (4., 34.), .UNSPECIFIED.);
#174 = CARTESIAN_POINT('', (80., 0., 4.));
#175 = CARTESIAN_POINT('', (80., 0., 34.));
#176 = B_SPLINE_SURFACE_WITH_KNOTS('', 1, 1, ((#177, #178), (#179, #180)), .UNSPECIFIED., .F., .F., .U., (2, 2), (2, 2), (0., 60.), (4., 34.), .UNSPECIFIED.);
#177 = CARTESIAN_POINT('', (80., 0., 4.));
#178 = CARTESIAN_POINT('', (80., 0., 34.));
#179 = CARTESIAN_POINT('', (80., 60., 4.));
#180 = CARTESIAN_POINT('', (80., 60., 34.));
#181 = ADVANCED_FACE('', (#182), #198, .T.);
#182 = FACE_OUTER_BOUND('', #183, .T.);
#183 = EDGE_LOOP('', (#184, #185, #192, #197));
#184 = ORIENTED_EDGE('', *, *, #7, .F.);
#185 = ORIENTED_EDGE('', *, *, #186, .T.);
#186 = EDGE_CURVE('', #8, #187, #189, .T.);
#187 = VERTEX_POINT('', #188);
#188 = CARTESIAN_POINT('', (0., 60., 34.));
#189 = B_SPLINE_CURVE_WITH_KNOTS('', 1, (#190, #191), .UNSPECIFIED., .F., .U., (2, 2), (4., 34.), .UNSPECIFIED.);
#190 = CARTESIAN_POINT('', (0., 60., 4.));
#191 = CARTESIAN_POINT('', (0., 60., 34.));
#192 = ORIENTED_EDGE('', *, *, #193, .T.);
#193 = EDGE_CURVE('', #187, #159, #194, .T.);
#194 = B_SPLINE_CURVE_WITH_KNOTS('', 1, (#195, #196), .UNSPECIFIED., .F., .U., (2, 2), (0.25, 0.75), .UNSPECIFIED.);
#195 = CARTESIAN_POINT('', (0., 60., 34.));
#196 = CARTESIAN_POINT('', (80., 60., 34.));
#197 = ORIENTED_EDGE('', *, *, #158, .F.);
#198 = B_SPLINE_SURFACE_WITH_KNOTS('', 1, 1, ((#199, #200), (#201, #202)), .UNSPECIFIED., .F., .F., .U., (2, 2), (2, 2), (4., 34.), (0., 80.), .UNSPECIFIED.);
#199 = CARTESIAN_POINT('', (0., 60., 4.));
#200 = CARTESIAN_POINT('', (80., 60., 4.));
#201 = CARTESIAN_POINT('', (0., 60., 34.));
#202 = CARTESIAN_POINT('', (80., 60., 34.));
#203 = ADVANCED_FACE('', (#204), #249, .T.);
#204 = FACE_OUTER_BOUND('', #205, .T.);
#205 = EDGE_LOOP('', (#206, #236, #243, #248));
#206 = ORIENTED_EDGE('', *, *, #207, .F.);
#207 = EDGE_CURVE('', #208, #8, #210, .T.);
#208 = VERTEX_POINT('', #209);
#209 = CARTESIAN_POINT('', (0., 0., 4.));
#210 = B_SPLINE_CURVE_WITH_KNOTS('', 3, (#211, #212, #213, #214, #215, #216, #217, #218, #219, #220, #221, #222, #223, #224, #225, #226, #227, #228, #229, #230, #231, #232, #233, #234, #235), .UNSPECIFIED., .F., .U., (4, 3, 3, 3, 3, 3, 3, 3, 4), (30., 34., 40.5, 47., 60., 73., 79.5, 86., 90.), .UNSPECIFIED.);
#211 = CARTESIAN_POINT('', (0., 0., 4.));
#212 = CARTESIAN_POINT('', (0., 1.33333333333333, 4.));
#213 = CARTESIAN_POINT('', (0., 2.66666666666667, 4.));
#214 = CARTESIAN_POINT('', (0., 4., 4.));
#215 = CARTESIAN_POINT('', (0., 6.16666666666667, 4.));
#216 = CARTESIAN_POINT('', (0., 8.33333333333333, 4.));
#217 = CARTESIAN_POINT('', (0., 10.5, 4.));
#218 = CARTESIAN_POINT('', (0., 12.6666666666667, 4.));
#219 = CARTESIAN_POINT('', (0., 14.8333333333333, 4.));
#220 = CARTESIAN_POINT('', (0., 17., 4.));
#221 = CARTESIAN_POINT('', (0., 21.3333333333333, 4.));
#222 = CARTESIAN_POINT('', (0., 25.6666666666667, 4.));
#223 = CARTESIAN_POINT('', (0., 30., 4.));
#224 = CARTESIAN_POINT('', (0., 34.3333333333333, 4.));
#225 = CARTESIAN_POINT('', (0., 38.6666666666667, 4.));
#226 = CARTESIAN_POINT('', (0., 43., 4.));
#227 = CARTESIAN_POINT('', (0., 45.1666666666667, 4.));
#228 = CARTESIAN_POINT('', (0., 47.3333333333333, 4.));
#229 = CARTESIAN_POINT('', (0., 49.5, 4.));
#230 = CARTESIAN_POINT('', (0., 51.6666666666667, 4.));
#231 = CARTESIAN_POINT('', (0., 53.8333333333333, 4.));
#232 = CARTESIAN_POINT('', (0., 56., 4.));
#233 = CARTESIAN_POINT('', (0., 57.3333333333333, 4.));
#234 = CARTESIAN_POINT('', (0., 58.6666666666667, 4.));
#235 = CARTESIAN_POINT('', (0., 60., 4.));
#236 = ORIENTED_EDGE('', *, *, #237, .T.);
#237 = EDGE_CURVE('', #208, #238, #240, .T.);
#238 = VERTEX_POINT('', #239);
#239 = CARTESIAN_POINT('', (0., 0., 34.));
#240 = B_SPLINE_CURVE_WITH_KNOTS('', 1, (#241, #242), .UNSPECIFIED., .F., .U., (2, 2), (4., 34.), .UNSPECIFIED.);
#241 = CARTESIAN_POINT('', (0., 0., 4.));
#242 = CARTESIAN_POINT('', (0., 0., 34.));
#243 = ORIENTED_EDGE('', *, *, #244, .T.);
#244 = EDGE_CURVE('', #238, #187, #245, .T.);
#245 = B_SPLINE_CURVE_WITH_KNOTS('', 1, (#246, #247), .UNSPECIFIED., .F., .U., (2, 2), (0.25, 0.75), .UNSPECIFIED.);
#246 = CARTESIAN_POINT('', (0., 0., 34.));
#247 = CARTESIAN_POINT('', (0., 60., 34.));
#248 = ORIENTED_EDGE('', *, *, #186, .F.);
#249 = B_SPLINE_SURFACE_WITH_KNOTS('', 1, 1, ((#250, #251), (#252, #253)), .UNSPECIFIED., .F., .F., .U., (2, 2), (2, 2), (4., 34.), (0., 60.), .UNSPECIFIED.);
#250 = CARTESIAN_POINT('', (0., 0., 4.));
#251 = CARTESIAN_POINT('', (0., 60., 4.));
#252 = CARTESIAN_POINT('', (0., 0., 34.));
#253 = CARTESIAN_POINT('', (0., 60., 34.));
#254 = ADVANCED_FACE('', (#255), #292, .T.);
#255 = FACE_OUTER_BOUND('', #256, .T.);
#256 = EDGE_LOOP('', (#257, #285, #286, #291));
#257 = ORIENTED_EDGE('', *, *, #258, .F.);
#258 = EDGE_CURVE('', #113, #208, #259, .T.);
#259 = B_SPLINE_CURVE_WITH_KNOTS('', 3, (#260, #261, #262, #263, #264, #265, #266, #267, #268, #269, #270, #271, #272, #273, #274, #275, #276, #277, #278, #279, #280, #281, #282, #283, #284), .UNSPECIFIED., .F., .U., (4, 3, 3, 3, 3, 3, 3, 3, 4), (40., 44., 53., 62., 80., 98., 107., 116., 120.), .UNSPECIFIED.);
#260 = CARTESIAN_POINT('', (80., 0., 4.));
#261 = CARTESIAN_POINT('', (78.6666666666667, 0., 4.));
#262 = CARTESIAN_POINT('', (77.3333333333333, 0., 4.));
#263 = CARTESIAN_POINT('', (76., 0., 4.));
#264 = CARTESIAN_POINT('', (73., 0., 4.));
#265 = CARTESIAN_POINT('', (70., 0., 4.));
#266 = CARTESIAN_POINT('', (67., 0., 4.));
#267 = CARTESIAN_POINT('', (64., 0., 4.));
#268 = CARTESIAN_POINT('', (61., 0., 4.));
#269 = CARTESIAN_POINT('', (58., 0., 4.));
#270 = CARTESIAN_POINT('', (52., 0., 4.));
#271 = CARTESIAN_POINT('', (46., 0., 4.));
#272 = CARTESIAN_POINT('', (40., 0., 4.));
#273 = CARTESIAN_POINT('', (34., 0., 4.));
#274 = CARTESIAN_POINT('', (28., 0., 4.));
#275 = CARTESIAN_POINT('', (22., 0., 4.));
#276 = CARTESIAN_POINT('', (19., 0., 4.));
#277 = CARTESIAN_POINT('', (16., 0., 4.));
#278 = CARTESIAN_POINT('', (13., 0., 4.));
#279 = CARTESIAN_POINT('', (10., 0., 4.));
#280 = CARTESIAN_POINT('', (7., 0., 4.));
#281 = CARTESIAN_POINT('', (4., 0., 4.));
#282 = CARTESIAN_POINT('', (2.66666666666667, 0., 4.));
#283 = CARTESIAN_POINT('', (1.33333333333333, 0., 4.));
#284 = CARTESIAN_POINT('', (0., 0., 4.));
#285 = ORIENTED_EDGE('', *, *, #172, .T.);
#286 = ORIENTED_EDGE('', *, *, #287, .F.);
#287 = EDGE_CURVE('', #238, #166, #288, .T.);
#288 = B_SPLINE_CURVE_WITH_KNOTS('', 1, (#289, #290), .UNSPECIFIED., .F., .U., (2, 2), (0.25, 0.75), .UNSPECIFIED.);
#289 = CARTESIAN_POINT('', (0., 0., 34.));
#290 = CARTESIAN_POINT('', (80., 0., 34.));
#291 = ORIENTED_EDGE('', *, *, #237, .F.);
#292 = B_SPLINE_SURFACE_WITH_KNOTS('', 1, 1, ((#293, #294), (#295, #296)), .UNSPECIFIED., .F., .F., .U., (2, 2), (2, 2), (0., 80.), (4., 34.), .UNSPECIFIED.);
#293 = CARTESIAN_POINT('', (0., 0., 4.));
#294 = CARTESIAN_POINT('', (0., 0., 34.));
#295 = CARTESIAN_POINT('', (80., 0., 4.));
#296 = CARTESIAN_POINT('', (80., 0., 34.));
#297 = ADVANCED_FACE('', (#298), #432, .T.);
#298 = FACE_OUTER_BOUND('', #299, .T.);
#299 = EDGE_LOOP('', (#300, #309, #370, #371));
#300 = ORIENTED_EDGE('', *, *, #301, .F.);
#301 = EDGE_CURVE('', #302, #304, #306, .T.);
#302 = VERTEX_POINT('', #303);
#303 = CARTESIAN_POINT('', (6., 6., 40.));
#304 = VERTEX_POINT('', #305);
#305 = CARTESIAN_POINT('', (74., 6., 40.));
#306 = B_SPLINE_CURVE_WITH_KNOTS('', 1, (#307, #308), .UNSPECIFIED., .F., .U., (2, 2), (0.2875, 0.7125), .UNSPECIFIED.);
#307 = CARTESIAN_POINT('', (6., 6., 40.));
#308 = CARTESIAN_POINT('', (74., 6., 40.));
#309 = ORIENTED_EDGE('', *, *, #310, .F.);
#310 = EDGE_CURVE('', #238, #302, #311, .T.);
#311 = B_SPLINE_CURVE_WITH_KNOTS('', 3, (#312, #313, #314, #315, #316, #317, #318, #319, #320, #321, #322, #323, #324, #325, #326, #327, #328, #329, #330, #331, #332, #333, #334, #335, #336, #337, #338, #339, #340, #341, #342, #343, #344, #345, #346, #347, #348, #349, #350, #351, #352, #353, #354, #355, #356, #357, #358, #359, #360, #361, #362, #363, #364, #365, #366, #367, #368, #369), .UNSPECIFIED., .F., .U., (4, 3, 3, 3, 3, 3, 3, 3, 3, 3, 3, 3, 3, 3, 3, 3, 3, 3, 3, 4), (0., 0.444613876484291, 0.888465507049955, 1.3315055462502, 1.77372981267161, 2.21517297408136, 2.65589690463861, 3.09597806327803, 3.7563609725821, 4.41515722404901, 5.07270684885472, 5.7292739453317, 6.38505413456106, 7.04018731733825, 7.69476999434416, 8.67356884319459, 9.65090727735791, 11.1071214514555, 11.3980550447364, 11.4564977123628), .UNSPECIFIED.);
#312 = CARTESIAN_POINT('', (4.44089209850063E-16, 4.44089209850063E-16, 34.));
#313 = CARTESIAN_POINT('', (9.30701430122274E-17, 4.26687976178473E-16, 34.1482046254948));
#314 = CARTESIAN_POINT('', (0.00551355172816281, 0.00551355172816138, 34.2966095190553));
#315 = CARTESIAN_POINT('', (0.0164509055723543, 0.016450905572353, 34.4440047686389));
#316 = CARTESIAN_POINT('', (0.0273695084198512, 0.02736950841985, 34.5911473238435));
#317 = CARTESIAN_POINT('', (0.0437207761017624, 0.0437207761017665, 34.7376745194804));
#318 = CARTESIAN_POINT('', (0.0652492130155422, 0.0652492130155466, 34.8824585522207));
#319 = CARTESIAN_POINT('', (0.0867382847624355, 0.0867382847624402, 35.0269778445325));
#320 = CARTESIAN_POINT('', (0.113437360719944, 0.113437360719948, 35.1701264957322));
#321 = CARTESIAN_POINT('', (0.144959798398638, 0.144959798398643, 35.3109173267723));
#322 = CARTESIAN_POINT('', (0.17642419358838, 0.176424193588385, 35.4514489186528));
#323 = CARTESIAN_POINT('', (0.212764951083854, 0.212764951083859, 35.5899621265655));
#324 = CARTESIAN_POINT('', (0.253508899465745, 0.25350889946575, 35.7256419186728));
#325 = CARTESIAN_POINT('', (0.294180881416365, 0.29418088141637, 35.8610820582471));
#326 = CARTESIAN_POINT('', (0.339324046213469, 0.339324046213475, 35.9939883459885));
#327 = CARTESIAN_POINT('', (0.388422660497268, 0.388422660497274, 36.1237230899483));
#328 = CARTESIAN_POINT('', (0.437441279798033, 0.437441279798039, 36.2532464607606));
#329 = CARTESIAN_POINT('', (0.490492834523938, 0.490492834523938, 36.3798557631637));
#330 = CARTESIAN_POINT('', (0.54705513440175, 0.54705513440175, 36.5030765654981));
#331 = CARTESIAN_POINT('', (0.60353494123698, 0.60353494123698, 36.6261176569842));
#332 = CARTESIAN_POINT('', (0.663607532160665, 0.663607532160678, 36.7459870747038));
#333 = CARTESIAN_POINT('', (0.72676972102236, 0.726769721022372, 36.8623491095381));
#334 = CARTESIAN_POINT('', (0.821550488659531, 0.821550488659543, 37.0369612182092));
#335 = CARTESIAN_POINT('', (0.923535610743347, 0.923535610743356, 37.2041193686416));
#336 = CARTESIAN_POINT('', (1.03116716945345, 1.03116716945346, 37.363138460142));
#337 = CARTESIAN_POINT('', (1.13854012901789, 1.1385401290179, 37.5217754871094));
#338 = CARTESIAN_POINT('', (1.25181630175364, 1.25181630175364, 37.6727493832887));
#339 = CARTESIAN_POINT('', (1.36966003929819, 1.3696600392982, 37.8157504960793));
#340 = CARTESIAN_POINT('', (1.48728078355043, 1.48728078355044, 37.9584810107915));
#341 = CARTESIAN_POINT('', (1.60970826399554, 1.60970826399555, 38.0935895037846));
#342 = CARTESIAN_POINT('', (1.73582220479228, 1.73582220479229, 38.2209936899808));
#343 = CARTESIAN_POINT('', (1.8617477027479, 1.86174770274791, 38.3482075054166));
#344 = CARTESIAN_POINT('', (1.99157679139797, 1.99157679139798, 38.4679755477902));
#345 = CARTESIAN_POINT('', (2.12437627181338, 2.12437627181339, 38.5803428602581));
#346 = CARTESIAN_POINT('', (2.2570165897088, 2.25701658970881, 38.6925754985197));
#347 = CARTESIAN_POINT('', (2.39282256034095, 2.39282256034096, 38.7975990819282));
#348 = CARTESIAN_POINT('', (2.53101460371038, 2.53101460371039, 38.8955224767464));
#349 = CARTESIAN_POINT('', (2.66907030391916, 2.66907030391916, 38.993349258295));
#350 = CARTESIAN_POINT('', (2.80968775472404, 2.80968775472404, 39.0842191272386));
#351 = CARTESIAN_POINT('', (2.95220959786406, 2.95220959786407, 39.1682660210798));
#352 = CARTESIAN_POINT('', (3.0946116804741, 3.09461168047411, 39.2522422906551));
#353 = CARTESIAN_POINT('', (3.23907725218569, 3.23907725218569, 39.3295035351276));
#354 = CARTESIAN_POINT('', (3.38504426824969, 3.38504426824969, 39.4001857857842));
#355 = CARTESIAN_POINT('', (3.6033090532988, 3.6033090532988, 39.5058771033322));
#356 = CARTESIAN_POINT('', (3.82532547445084, 3.82532547445084, 39.5970514394472));
#357 = CARTESIAN_POINT('', (4.04950303688603, 4.04950303688602, 39.6741132872796));
#358 = CARTESIAN_POINT('', (4.27334611567824, 4.27334611567823, 39.7510601551501));
#359 = CARTESIAN_POINT('', (4.4997901560422, 4.49979015604219, 39.8140912861756));
#360 = CARTESIAN_POINT('', (4.72748558513588, 4.72748558513587, 39.8635063796301));
#361 = CARTESIAN_POINT('', (5.0667470933639, 5.06674709336388, 39.9371338529673));
#362 = CARTESIAN_POINT('', (5.40989613280971, 5.40989613280983, 39.980776389595));
#363 = CARTESIAN_POINT('', (5.75298351286158, 5.75298351286137, 39.9949130815285));
#364 = CARTESIAN_POINT('', (5.82152813086027, 5.82152813086, 39.9977374178483));
#365 = CARTESIAN_POINT('', (5.89010202364671, 5.890102023647, 39.9993853768053));
#366 = CARTESIAN_POINT('', (5.95867491593695, 5.95867491593657, 39.9998576847645));
#367 = CARTESIAN_POINT('', (5.97244982143036, 5.97244982142984, 39.9999525618695));
#368 = CARTESIAN_POINT('', (5.9862249311369, 5.98622493113691, 40.));
#369 = CARTESIAN_POINT('', (5.99999999999999, 6., 40.));
#370 = ORIENTED_EDGE('', *, *, #287, .T.);
#371 = ORIENTED_EDGE('', *, *, #372, .T.);
#372 = EDGE_CURVE('', #166, #304, #373, .T.);
#373 = B_SPLINE_CURVE_WITH_KNOTS('', 3, (#374, #375, #376, #377, #378, #379, #380, #381, #382, #383, #384, #385, #386, #387, #388, #389, #390, #391, #392, #393, #394, #395, #396, #397, #398, #399, #400, #401, #402, #403, #404, #405, #406, #407, #408, #409, #410, #411, #412, #413, #414, #415, #416, #417, #418, #419, #420, #421, #422, #423, #424, #425, #426, #427, #428, #429, #430, #431), .UNSPECIFIED., .F., .U., (4, 3, 3, 3, 3, 3, 3, 3, 3, 3, 3, 3, 3, 3, 3, 3, 3, 3, 3, 4), (0., 0.444613876484291, 0.888465507049963, 1.33150554625022, 1.77372981267162, 2.21517297408136, 2.65589690463861, 3.09597806327802, 3.7563609725821, 4.41515722404902, 5.07270684885475, 5.72927394533171, 6.38505413456106, 7.04018731733824, 7.69476999434415, 8.67356884319458, 9.6509072773579, 11.1071214514555, 11.3980550447364, 11.4564977123628), .UNSPECIFIED.);
#374 = CARTESIAN_POINT('', (80., 4.44089209850063E-16, 34.));
#375 = CARTESIAN_POINT('', (80., 4.26687976178473E-16, 34.1482046254948));
#376 = CARTESIAN_POINT('', (79.9944864482718, 0.00551355172816138, 34.2966095190553));
#377 = CARTESIAN_POINT('', (79.9835490944276, 0.016450905572353, 34.4440047686389));
#378 = CARTESIAN_POINT('', (79.9726304915801, 0.0273695084198501, 34.5911473238435));
#379 = CARTESIAN_POINT('', (79.9562792238982, 0.0437207761017665, 34.7376745194804));
#380 = CARTESIAN_POINT('', (79.9347507869845, 0.0652492130155471, 34.8824585522207));
#381 = CARTESIAN_POINT('', (79.9132617152376, 0.0867382847624411, 35.0269778445325));
#382 = CARTESIAN_POINT('', (79.88656263928, 0.113437360719948, 35.1701264957322));
#383 = CARTESIAN_POINT('', (79.8550402016014, 0.144959798398644, 35.3109173267724));
#384 = CARTESIAN_POINT('', (79.8235758064116, 0.176424193588386, 35.4514489186528));
#385 = CARTESIAN_POINT('', (79.7872350489161, 0.212764951083861, 35.5899621265655));
#386 = CARTESIAN_POINT('', (79.7464911005343, 0.253508899465751, 35.7256419186728));
#387 = CARTESIAN_POINT('', (79.7058191185836, 0.294180881416371, 35.8610820582471));
#388 = CARTESIAN_POINT('', (79.6606759537865, 0.339324046213472, 35.9939883459885));
#389 = CARTESIAN_POINT('', (79.6115773395027, 0.38842266049727, 36.1237230899483));
#390 = CARTESIAN_POINT('', (79.562558720202, 0.437441279798035, 36.2532464607606));
#391 = CARTESIAN_POINT('', (79.5095071654761, 0.490492834523939, 36.3798557631637));
#392 = CARTESIAN_POINT('', (79.4529448655982, 0.547055134401751, 36.5030765654981));
#393 = CARTESIAN_POINT('', (79.396465058763, 0.603534941236981, 36.6261176569842));
#394 = CARTESIAN_POINT('', (79.3363924678393, 0.663607532160675, 36.7459870747038));
#395 = CARTESIAN_POINT('', (79.2732302789776, 0.726769721022369, 36.8623491095381));
#396 = CARTESIAN_POINT('', (79.1784495113404, 0.82155048865954, 37.0369612182091));
#397 = CARTESIAN_POINT('', (79.0764643892567, 0.923535610743356, 37.2041193686416));
#398 = CARTESIAN_POINT('', (78.9688328305466, 1.03116716945346, 37.363138460142));
#399 = CARTESIAN_POINT('', (78.8614598709821, 1.1385401290179, 37.5217754871094));
#400 = CARTESIAN_POINT('', (78.7481836982464, 1.25181630175365, 37.6727493832887));
#401 = CARTESIAN_POINT('', (78.6303399607018, 1.36966003929821, 37.8157504960794));
#402 = CARTESIAN_POINT('', (78.5127192164496, 1.48728078355045, 37.9584810107915));
#403 = CARTESIAN_POINT('', (78.3902917360044, 1.60970826399555, 38.0935895037846));
#404 = CARTESIAN_POINT('', (78.2641777952077, 1.7358222047923, 38.2209936899809));
#405 = CARTESIAN_POINT('', (78.1382522972521, 1.86174770274791, 38.3482075054166));
#406 = CARTESIAN_POINT('', (78.008423208602, 1.99157679139799, 38.4679755477902));
#407 = CARTESIAN_POINT('', (77.8756237281866, 2.1243762718134, 38.5803428602581));
#408 = CARTESIAN_POINT('', (77.7429834102912, 2.25701658970881, 38.6925754985197));
#409 = CARTESIAN_POINT('', (77.607177439659, 2.39282256034096, 38.7975990819282));
#410 = CARTESIAN_POINT('', (77.4689853962896, 2.53101460371039, 38.8955224767464));
#411 = CARTESIAN_POINT('', (77.3309296960808, 2.66907030391916, 38.993349258295));
#412 = CARTESIAN_POINT('', (77.190312245276, 2.80968775472404, 39.0842191272386));
#413 = CARTESIAN_POINT('', (77.0477904021359, 2.95220959786406, 39.1682660210798));
#414 = CARTESIAN_POINT('', (76.9053883195259, 3.0946116804741, 39.2522422906551));
#415 = CARTESIAN_POINT('', (76.7609227478143, 3.23907725218569, 39.3295035351276));
#416 = CARTESIAN_POINT('', (76.6149557317503, 3.38504426824969, 39.4001857857842));
#417 = CARTESIAN_POINT('', (76.3966909467012, 3.6033090532988, 39.5058771033322));
#418 = CARTESIAN_POINT('', (76.1746745255492, 3.82532547445084, 39.5970514394472));
#419 = CARTESIAN_POINT('', (75.950496963114, 4.04950303688602, 39.6741132872796));
#420 = CARTESIAN_POINT('', (75.7266538843218, 4.27334611567823, 39.7510601551501));
#421 = CARTESIAN_POINT('', (75.5002098439578, 4.4997901560422, 39.8140912861756));
#422 = CARTESIAN_POINT('', (75.2725144148641, 4.72748558513588, 39.8635063796301));
#423 = CARTESIAN_POINT('', (74.9332529066361, 5.06674709336389, 39.9371338529673));
#424 = CARTESIAN_POINT('', (74.5901038671902, 5.40989613280971, 39.980776389595));
#425 = CARTESIAN_POINT('', (74.2470164871386, 5.75298351286158, 39.9949130815285));
#426 = CARTESIAN_POINT('', (74.17847186914, 5.82152813086027, 39.9977374178483));
#427 = CARTESIAN_POINT('', (74.109897976353, 5.89010202364672, 39.9993853768053));
#428 = CARTESIAN_POINT('', (74.0413250840635, 5.95867491593695, 39.9998576847645));
#429 = CARTESIAN_POINT('', (74.0275501785702, 5.97244982143037, 39.9999525618695));
#430 = CARTESIAN_POINT('', (74.0137750688631, 5.9862249311369, 40.));
#431 = CARTESIAN_POINT('', (74., 6., 40.));
#432 = (
   BOUNDED_SURFACE ()
   B_SPLINE_SURFACE (2, 1, ((#433, #434), (#435, #436), (#437, #438)), .UNSPECIFIED., .F., .F., .U.)
   B_SPLINE_SURFACE_WITH_KNOTS ((3, 3), (2, 2), (0., 1.), (0.25, 0.75), .UNSPECIFIED.)
   GEOMETRIC_REPRESENTATION_ITEM ()
   RATIONAL_B_SPLINE_SURFACE (((1., 1.), (0.707106781186548, 0.707106781186548), (1., 1.)))
   REPRESENTATION_ITEM ('')
   SURFACE ()
);
#433 = CARTESIAN_POINT('', (0., 6., 40.));
#434 = CARTESIAN_POINT('', (80., 6., 40.));
#435 = CARTESIAN_POINT('', (0., 1.83697019872103E-16, 40.));
#436 = CARTESIAN_POINT('', (80., 1.83697019872103E-16, 40.));
#437 = CARTESIAN_POINT('', (0., 8.88178419700125E-16, 34.));
#438 = CARTESIAN_POINT('', (80., 8.88178419700125E-16, 34.));
#439 = ADVANCED_FACE('', (#440), #512, .T.);
#440 = FACE_OUTER_BOUND('', #441, .T.);
#441 = EDGE_LOOP('', (#442, #443, #444, #451));
#442 = ORIENTED_EDGE('', *, *, #244, .F.);
#443 = ORIENTED_EDGE('', *, *, #310, .T.);
#444 = ORIENTED_EDGE('', *, *, #445, .T.);
#445 = EDGE_CURVE('', #302, #446, #448, .T.);
#446 = VERTEX_POINT('', #447);
#447 = CARTESIAN_POINT('', (6., 54., 40.));
#448 = B_SPLINE_CURVE_WITH_KNOTS('', 1, (#449, #450), .UNSPECIFIED., .F., .U., (2, 2), (0.3, 0.7), .UNSPECIFIED.);
#449 = CARTESIAN_POINT('', (6., 6.00000000000001, 40.));
#450 = CARTESIAN_POINT('', (6., 54., 40.));
#451 = ORIENTED_EDGE('', *, *, #452, .F.);
#452 = EDGE_CURVE('', #187, #446, #453, .T.);
#453 = B_SPLINE_CURVE_WITH_KNOTS('', 3, (#454, #455, #456, #457, #458, #459, #460, #461, #462, #463, #464, #465, #466, #467, #468, #469, #470, #471, #472, #473, #474, #475, #476, #477, #478, #479, #480, #481, #482, #483, #484, #485, #486, #487, #488, #489, #490, #491, #492, #493, #494, #495, #496, #497, #498, #499, #500, #501, #502, #503, #504, #505, #506, #507, #508, #509, #510, #511), .UNSPECIFIED., .F., .U., (4, 3, 3, 3, 3, 3, 3, 3, 3, 3, 3, 3, 3, 3, 3, 3, 3, 3, 3, 4), (0., 0.444613876484284, 0.888465507049963, 1.33150554625022, 1.77372981267162, 2.21517297408136, 2.6558969046386, 3.09597806327802, 3.75636097258209, 4.41515722404901, 5.07270684885473, 5.72927394533169, 6.38505413456105, 7.04018731733824, 7.69476999434415, 8.67356884319459, 9.65090727735789, 11.1071214514555, 11.3980550447364, 11.4564977123628), .UNSPECIFIED.);
#454 = CARTESIAN_POINT('', (4.44089209850063E-16, 60., 34.));
#455 = CARTESIAN_POINT('', (9.30701430122331E-17, 60., 34.1482046254948));
#456 = CARTESIAN_POINT('', (0.00551355172816272, 59.9944864482719, 34.2966095190553));
#457 = CARTESIAN_POINT('', (0.0164509055723538, 59.9835490944277, 34.4440047686389));
#458 = CARTESIAN_POINT('', (0.027369508419851, 59.9726304915802, 34.5911473238435));
#459 = CARTESIAN_POINT('', (0.0437207761017618, 59.9562792238982, 34.7376745194804));
#460 = CARTESIAN_POINT('', (0.0652492130155427, 59.9347507869845, 34.8824585522207));
#461 = CARTESIAN_POINT('', (0.0867382847624365, 59.9132617152376, 35.0269778445325));
#462 = CARTESIAN_POINT('', (0.113437360719949, 59.8865626392801, 35.1701264957322));
#463 = CARTESIAN_POINT('', (0.144959798398645, 59.8550402016014, 35.3109173267724));
#464 = CARTESIAN_POINT('', (0.176424193588386, 59.8235758064116, 35.4514489186528));
#465 = CARTESIAN_POINT('', (0.212764951083858, 59.7872350489162, 35.5899621265655));
#466 = CARTESIAN_POINT('', (0.25350889946575, 59.7464911005343, 35.7256419186728));
#467 = CARTESIAN_POINT('', (0.294180881416369, 59.7058191185836, 35.8610820582471));
#468 = CARTESIAN_POINT('', (0.339324046213475, 59.6606759537865, 35.9939883459885));
#469 = CARTESIAN_POINT('', (0.388422660497273, 59.6115773395027, 36.1237230899483));
#470 = CARTESIAN_POINT('', (0.437441279798036, 59.562558720202, 36.2532464607605));
#471 = CARTESIAN_POINT('', (0.490492834523934, 59.5095071654761, 36.3798557631637));
#472 = CARTESIAN_POINT('', (0.547055134401744, 59.4529448655983, 36.5030765654981));
#473 = CARTESIAN_POINT('', (0.603534941236975, 59.396465058763, 36.6261176569842));
#474 = CARTESIAN_POINT('', (0.663607532160663, 59.3363924678393, 36.7459870747038));
#475 = CARTESIAN_POINT('', (0.726769721022359, 59.2732302789776, 36.8623491095381));
#476 = CARTESIAN_POINT('', (0.821550488659529, 59.1784495113405, 37.0369612182092));
#477 = CARTESIAN_POINT('', (0.923535610743347, 59.0764643892567, 37.2041193686416));
#478 = CARTESIAN_POINT('', (1.03116716945345, 58.9688328305466, 37.3631384601419));
#479 = CARTESIAN_POINT('', (1.13854012901789, 58.8614598709821, 37.5217754871094));
#480 = CARTESIAN_POINT('', (1.25181630175364, 58.7481836982464, 37.6727493832887));
#481 = CARTESIAN_POINT('', (1.36966003929819, 58.6303399607018, 37.8157504960793));
#482 = CARTESIAN_POINT('', (1.48728078355044, 58.5127192164496, 37.9584810107915));
#483 = CARTESIAN_POINT('', (1.60970826399553, 58.3902917360045, 38.0935895037846));
#484 = CARTESIAN_POINT('', (1.73582220479228, 58.2641777952077, 38.2209936899809));
#485 = CARTESIAN_POINT('', (1.86174770274789, 58.1382522972521, 38.3482075054166));
#486 = CARTESIAN_POINT('', (1.99157679139798, 58.008423208602, 38.4679755477902));
#487 = CARTESIAN_POINT('', (2.12437627181338, 57.8756237281866, 38.5803428602581));
#488 = CARTESIAN_POINT('', (2.2570165897088, 57.7429834102912, 38.6925754985197));
#489 = CARTESIAN_POINT('', (2.39282256034095, 57.6071774396591, 38.7975990819282));
#490 = CARTESIAN_POINT('', (2.53101460371038, 57.4689853962896, 38.8955224767464));
#491 = CARTESIAN_POINT('', (2.66907030391915, 57.3309296960809, 38.993349258295));
#492 = CARTESIAN_POINT('', (2.80968775472403, 57.190312245276, 39.0842191272386));
#493 = CARTESIAN_POINT('', (2.95220959786406, 57.0477904021359, 39.1682660210798));
#494 = CARTESIAN_POINT('', (3.09461168047409, 56.9053883195259, 39.2522422906551));
#495 = CARTESIAN_POINT('', (3.23907725218569, 56.7609227478143, 39.3295035351276));
#496 = CARTESIAN_POINT('', (3.38504426824968, 56.6149557317503, 39.4001857857842));
#497 = CARTESIAN_POINT('', (3.6033090532988, 56.3966909467012, 39.5058771033322));
#498 = CARTESIAN_POINT('', (3.82532547445083, 56.1746745255492, 39.5970514394472));
#499 = CARTESIAN_POINT('', (4.04950303688601, 55.950496963114, 39.6741132872796));
#500 = CARTESIAN_POINT('', (4.27334611567822, 55.7266538843218, 39.7510601551501));
#501 = CARTESIAN_POINT('', (4.49979015604219, 55.5002098439578, 39.8140912861756));
#502 = CARTESIAN_POINT('', (4.72748558513586, 55.2725144148641, 39.8635063796301));
#503 = CARTESIAN_POINT('', (5.06674709336387, 54.9332529066361, 39.9371338529673));
#504 = CARTESIAN_POINT('', (5.40989613280976, 54.5901038671903, 39.980776389595));
#505 = CARTESIAN_POINT('', (5.75298351286145, 54.2470164871385, 39.9949130815285));
#506 = CARTESIAN_POINT('', (5.82152813086011, 54.1784718691399, 39.9977374178483));
#507 = CARTESIAN_POINT('', (5.89010202364686, 54.1098979763532, 39.9993853768053));
#508 = CARTESIAN_POINT('', (5.95867491593672, 54.0413250840632, 39.9998576847645));
#509 = CARTESIAN_POINT('', (5.97244982143005, 54.0275501785699, 39.9999525618694));
#510 = CARTESIAN_POINT('', (5.9862249311369, 54.0137750688631, 40.));
#511 = CARTESIAN_POINT('', (6., 54., 40.));
#512 = (
   BOUNDED_SURFACE ()
   B_SPLINE_SURFACE (2, 1, ((#513, #514), (#515, #516), (#517, #518)), .UNSPECIFIED., .F., .F., .U.)
   B_SPLINE_SURFACE_WITH_KNOTS ((3, 3), (2, 2), (0., 1.), (0.25, 0.75), .UNSPECIFIED.)
   GEOMETRIC_REPRESENTATION_ITEM ()
   RATIONAL_B_SPLINE_SURFACE (((1., 1.), (0.707106781186545, 0.707106781186545), (1., 1.)))
   REPRESENTATION_ITEM ('')
   SURFACE ()
);
#513 = CARTESIAN_POINT('', (8.88178419700125E-16, 0., 34.));
#514 = CARTESIAN_POINT('', (8.88178419700125E-16, 60., 34.));
#515 = CARTESIAN_POINT('', (-1.33226762955019E-14, 0., 40.));
#516 = CARTESIAN_POINT('', (-1.33226762955019E-14, 60., 40.));
#517 = CARTESIAN_POINT('', (6., 0., 40.));
#518 = CARTESIAN_POINT('', (6., 60., 40.));
#519 = ADVANCED_FACE('', (#520), #536, .T.);
#520 = FACE_OUTER_BOUND('', #521, .T.);
#521 = EDGE_LOOP('', (#522, #529, #530, #531));
#522 = ORIENTED_EDGE('', *, *, #523, .F.);
#523 = EDGE_CURVE('', #446, #524, #526, .T.);
#524 = VERTEX_POINT('', #525);
#525 = CARTESIAN_POINT('', (74., 54., 40.));
#526 = B_SPLINE_CURVE_WITH_KNOTS('', 1, (#527, #528), .UNSPECIFIED., .F., .U., (2, 2), (0.2875, 0.7125), .UNSPECIFIED.);
#527 = CARTESIAN_POINT('', (6., 54., 40.));
#528 = CARTESIAN_POINT('', (74., 54., 40.));
#529 = ORIENTED_EDGE('', *, *, #445, .F.);
#530 = ORIENTED_EDGE('', *, *, #301, .T.);
#531 = ORIENTED_EDGE('', *, *, #532, .T.);
#532 = EDGE_CURVE('', #304, #524, #533, .T.);
#533 = B_SPLINE_CURVE_WITH_KNOTS('', 1, (#534, #535), .UNSPECIFIED., .F., .U., (2, 2), (0.3, 0.7), .UNSPECIFIED.);
#534 = CARTESIAN_POINT('', (74., 6.00000000000001, 40.));
#535 = CARTESIAN_POINT('', (74., 54., 40.));
#536 = B_SPLINE_SURFACE_WITH_KNOTS('', 1, 1, ((#537, #538), (#539, #540)), .UNSPECIFIED., .F., .F., .U., (2, 2), (2, 2), (6., 74.), (6., 54.), .UNSPECIFIED.);
#537 = CARTESIAN_POINT('', (6., 6., 40.));
#538 = CARTESIAN_POINT('', (6., 54., 40.));
#539 = CARTESIAN_POINT('', (74., 6., 40.));
#540 = CARTESIAN_POINT('', (74., 54., 40.));
#541 = ADVANCED_FACE('', (#542), #608, .T.);
#542 = FACE_OUTER_BOUND('', #543, .T.);
#543 = EDGE_LOOP('', (#544, #545, #546, #547));
#544 = ORIENTED_EDGE('', *, *, #532, .F.);
#545 = ORIENTED_EDGE('', *, *, #372, .F.);
#546 = ORIENTED_EDGE('', *, *, #165, .T.);
#547 = ORIENTED_EDGE('', *, *, #548, .T.);
#548 = EDGE_CURVE('', #159, #524, #549, .T.);
#549 = B_SPLINE_CURVE_WITH_KNOTS('', 3, (#550, #551, #552, #553, #554, #555, #556, #557, #558, #559, #560, #561, #562, #563, #564, #565, #566, #567, #568, #569, #570, #571, #572, #573, #574, #575, #576, #577, #578, #579, #580, #581, #582, #583, #584, #585, #586, #587, #588, #589, #590, #591, #592, #593, #594, #595, #596, #597, #598, #599, #600, #601, #602, #603, #604, #605, #606, #607), .UNSPECIFIED., .F., .U., (4, 3, 3, 3, 3, 3, 3, 3, 3, 3, 3, 3, 3, 3, 3, 3, 3, 3, 3, 4), (0., 0.444613876484284, 0.888465507049956, 1.33150554625021, 1.77372981267162, 2.21517297408136, 2.6558969046386, 3.09597806327802, 3.7563609725821, 4.41515722404901, 5.07270684885473, 5.72927394533168, 6.38505413456103, 7.04018731733823, 7.69476999434411, 8.67356884319455, 9.65090727735787, 11.1071214514555, 11.3980550447364, 11.4564977123628), .UNSPECIFIED.);
#550 = CARTESIAN_POINT('', (80., 60., 34.));
#551 = CARTESIAN_POINT('', (80., 60., 34.1482046254948));
#552 = CARTESIAN_POINT('', (79.9944864482718, 59.9944864482719, 34.2966095190553));
#553 = CARTESIAN_POINT('', (79.9835490944276, 59.9835490944277, 34.4440047686389));
#554 = CARTESIAN_POINT('', (79.9726304915801, 59.9726304915802, 34.5911473238435));
#555 = CARTESIAN_POINT('', (79.9562792238982, 59.9562792238982, 34.7376745194804));
#556 = CARTESIAN_POINT('', (79.9347507869845, 59.9347507869845, 34.8824585522207));
#557 = CARTESIAN_POINT('', (79.9132617152376, 59.9132617152376, 35.0269778445325));
#558 = CARTESIAN_POINT('', (79.88656263928, 59.8865626392801, 35.1701264957322));
#559 = CARTESIAN_POINT('', (79.8550402016014, 59.8550402016014, 35.3109173267723));
#560 = CARTESIAN_POINT('', (79.8235758064116, 59.8235758064116, 35.4514489186528));
#561 = CARTESIAN_POINT('', (79.7872350489161, 59.7872350489162, 35.5899621265655));
#562 = CARTESIAN_POINT('', (79.7464911005343, 59.7464911005343, 35.7256419186728));
#563 = CARTESIAN_POINT('', (79.7058191185836, 59.7058191185836, 35.8610820582471));
#564 = CARTESIAN_POINT('', (79.6606759537865, 59.6606759537865, 35.9939883459885));
#565 = CARTESIAN_POINT('', (79.6115773395027, 59.6115773395027, 36.1237230899483));
#566 = CARTESIAN_POINT('', (79.562558720202, 59.562558720202, 36.2532464607605));
#567 = CARTESIAN_POINT('', (79.5095071654761, 59.5095071654761, 36.3798557631637));
#568 = CARTESIAN_POINT('', (79.4529448655983, 59.4529448655983, 36.5030765654981));
#569 = CARTESIAN_POINT('', (79.396465058763, 59.396465058763, 36.6261176569842));
#570 = CARTESIAN_POINT('', (79.3363924678393, 59.3363924678393, 36.7459870747038));
#571 = CARTESIAN_POINT('', (79.2732302789776, 59.2732302789776, 36.8623491095381));
#572 = CARTESIAN_POINT('', (79.1784495113404, 59.1784495113405, 37.0369612182091));
#573 = CARTESIAN_POINT('', (79.0764643892566, 59.0764643892567, 37.2041193686416));
#574 = CARTESIAN_POINT('', (78.9688328305465, 58.9688328305466, 37.363138460142));
#575 = CARTESIAN_POINT('', (78.8614598709821, 58.8614598709821, 37.5217754871094));
#576 = CARTESIAN_POINT('', (78.7481836982464, 58.7481836982464, 37.6727493832887));
#577 = CARTESIAN_POINT('', (78.6303399607018, 58.6303399607018, 37.8157504960793));
#578 = CARTESIAN_POINT('', (78.5127192164496, 58.5127192164496, 37.9584810107915));
#579 = CARTESIAN_POINT('', (78.3902917360044, 58.3902917360045, 38.0935895037846));
#580 = CARTESIAN_POINT('', (78.2641777952077, 58.2641777952077, 38.2209936899809));
#581 = CARTESIAN_POINT('', (78.1382522972521, 58.1382522972521, 38.3482075054166));
#582 = CARTESIAN_POINT('', (78.008423208602, 58.008423208602, 38.4679755477901));
#583 = CARTESIAN_POINT('', (77.8756237281866, 57.8756237281866, 38.5803428602581));
#584 = CARTESIAN_POINT('', (77.7429834102912, 57.7429834102912, 38.6925754985197));
#585 = CARTESIAN_POINT('', (77.6071774396591, 57.6071774396591, 38.7975990819282));
#586 = CARTESIAN_POINT('', (77.4689853962896, 57.4689853962896, 38.8955224767464));
#587 = CARTESIAN_POINT('', (77.3309296960809, 57.3309296960809, 38.993349258295));
#588 = CARTESIAN_POINT('', (77.190312245276, 57.190312245276, 39.0842191272386));
#589 = CARTESIAN_POINT('', (77.047790402136, 57.0477904021359, 39.1682660210798));
#590 = CARTESIAN_POINT('', (76.9053883195259, 56.9053883195259, 39.2522422906551));
#591 = CARTESIAN_POINT('', (76.7609227478143, 56.7609227478143, 39.3295035351276));
#592 = CARTESIAN_POINT('', (76.6149557317504, 56.6149557317503, 39.4001857857842));
#593 = CARTESIAN_POINT('', (76.3966909467012, 56.3966909467012, 39.5058771033322));
#594 = CARTESIAN_POINT('', (76.1746745255492, 56.1746745255492, 39.5970514394472));
#595 = CARTESIAN_POINT('', (75.950496963114, 55.950496963114, 39.6741132872796));
#596 = CARTESIAN_POINT('', (75.7266538843218, 55.7266538843218, 39.7510601551501));
#597 = CARTESIAN_POINT('', (75.5002098439578, 55.5002098439578, 39.8140912861756));
#598 = CARTESIAN_POINT('', (75.2725144148642, 55.2725144148641, 39.8635063796301));
#599 = CARTESIAN_POINT('', (74.9332529066362, 54.9332529066361, 39.9371338529673));
#600 = CARTESIAN_POINT('', (74.5901038671902, 54.5901038671904, 39.980776389595));
#601 = CARTESIAN_POINT('', (74.2470164871388, 54.2470164871383, 39.9949130815285));
#602 = CARTESIAN_POINT('', (74.1784718691402, 54.1784718691396, 39.9977374178483));
#603 = CARTESIAN_POINT('', (74.1098979763522, 54.1098979763541, 39.9993853768053));
#604 = CARTESIAN_POINT('', (74.0413250840647, 54.0413250840619, 39.9998576847645));
#605 = CARTESIAN_POINT('', (74.0275501785718, 54.027550178568, 39.9999525618695));
#606 = CARTESIAN_POINT('', (74.0137750688631, 54.0137750688631, 40.));
#607 = CARTESIAN_POINT('', (74., 54., 40.));
#608 = (
   BOUNDED_SURFACE ()
   B_SPLINE_SURFACE (2, 1, ((#609, #610), (#611, #612), (#613, #614)), .UNSPECIFIED., .F., .F., .U.)
   B_SPLINE_SURFACE_WITH_KNOTS ((3, 3), (2, 2), (0., 1.), (0.25, 0.75), .UNSPECIFIED.)
   GEOMETRIC_REPRESENTATION_ITEM ()
   RATIONAL_B_SPLINE_SURFACE (((1., 1.), (0.707106781186547, 0.707106781186547), (1., 1.)))
   REPRESENTATION_ITEM ('')
   SURFACE ()
);
#609 = CARTESIAN_POINT('', (74., 0., 40.));
#610 = CARTESIAN_POINT('', (74., 60., 40.));
#611 = CARTESIAN_POINT('', (80., 0., 40.));
#612 = CARTESIAN_POINT('', (80., 60., 40.));
#613 = CARTESIAN_POINT('', (80., 0., 34.));
#614 = CARTESIAN_POINT('', (80., 60., 34.));
#615 = ADVANCED_FACE('', (#616), #622, .T.);
#616 = FACE_OUTER_BOUND('', #617, .T.);
#617 = EDGE_LOOP('', (#618, #619, #620, #621));
#618 = ORIENTED_EDGE('', *, *, #193, .F.);
#619 = ORIENTED_EDGE('', *, *, #452, .T.);
#620 = ORIENTED_EDGE('', *, *, #523, .T.);
#621 = ORIENTED_EDGE('', *, *, #548, .F.);
#622 = (
   BOUNDED_SURFACE ()
   B_SPLINE_SURFACE (2, 1, ((#623, #624), (#625, #626), (#627, #628)), .UNSPECIFIED., .F., .F., .U.)
   B_SPLINE_SURFACE_WITH_KNOTS ((3, 3), (2, 2), (0., 1.), (0.25, 0.75), .UNSPECIFIED.)
   GEOMETRIC_REPRESENTATION_ITEM ()
   RATIONAL_B_SPLINE_SURFACE (((1., 1.), (0.707106781186545, 0.707106781186545), (1., 1.)))
   REPRESENTATION_ITEM ('')
   SURFACE ()
);
#623 = CARTESIAN_POINT('', (0., 60., 34.));
#624 = CARTESIAN_POINT('', (80., 60., 34.));
#625 = CARTESIAN_POINT('', (0., 60., 40.));
#626 = CARTESIAN_POINT('', (80., 60., 40.));
#627 = CARTESIAN_POINT('', (0., 54., 40.));
#628 = CARTESIAN_POINT('', (80., 54., 40.));
#629 = ADVANCED_FACE('', (#630), #665, .T.);
#630 = FACE_OUTER_BOUND('', #631, .T.);
#631 = EDGE_LOOP('', (#632, #633, #642, #664));
#632 = ORIENTED_EDGE('', *, *, #258, .T.);
#633 = ORIENTED_EDGE('', *, *, #634, .T.);
#634 = EDGE_CURVE('', #208, #635, #637, .T.);
#635 = VERTEX_POINT('', #636);
#636 = CARTESIAN_POINT('', (4., 4., 0.));
#637 = B_SPLINE_CURVE_WITH_KNOTS('', 3, (#638, #639, #640, #641), .UNSPECIFIED., .F., .U., (4, 4), (0., 6.92820323027551), .UNSPECIFIED.);
#638 = CARTESIAN_POINT('', (0., 2.22044604925031E-16, 4.));
#639 = CARTESIAN_POINT('', (1.33333333333333, 1.33333333333333, 2.66666666666667));
#640 = CARTESIAN_POINT('', (2.66666666666667, 2.66666666666667, 1.33333333333333));
#641 = CARTESIAN_POINT('', (4., 4., 0.));
#642 = ORIENTED_EDGE('', *, *, #643, .F.);
#643 = EDGE_CURVE('', #88, #635, #644, .T.);
#644 = B_SPLINE_CURVE_WITH_KNOTS('', 3, (#645, #646, #647, #648, #649, #650, #651, #652, #653, #654, #655, #656, #657, #658, #659, #660, #661, #662, #663), .UNSPECIFIED., .F., .U., (4, 3, 3, 3, 3, 3, 4), (44., 53., 62., 80., 98., 107., 116.), .UNSPECIFIED.);
#645 = CARTESIAN_POINT('', (76., 4., 0.));
#646 = CARTESIAN_POINT('', (73., 4., 0.));
#647 = CARTESIAN_POINT('', (70., 4., 0.));
#648 = CARTESIAN_POINT('', (67., 4., 0.));
#649 = CARTESIAN_POINT('', (64., 4., 0.));
#650 = CARTESIAN_POINT('', (61., 4., 0.));
#651 = CARTESIAN_POINT('', (58., 4., 0.));
#652 = CARTESIAN_POINT('', (52., 4., 0.));
#653 = CARTESIAN_POINT('', (46., 4., 0.));
#654 = CARTESIAN_POINT('', (40., 4., 0.));
#655 = CARTESIAN_POINT('', (34., 4., 0.));
#656 = CARTESIAN_POINT('', (28., 4., 0.));
#657 = CARTESIAN_POINT('', (22., 4., 0.));
#658 = CARTESIAN_POINT('', (19., 4., 0.));
#659 = CARTESIAN_POINT('', (16., 4., 0.));
#660 = CARTESIAN_POINT('', (13., 4., 0.));
#661 = CARTESIAN_POINT('', (10., 4., 0.));
#662 = CARTESIAN_POINT('', (7., 4., 0.));
#663 = CARTESIAN_POINT('', (4., 4., 0.));
#664 = ORIENTED_EDGE('', *, *, #142, .F.);
#665 = B_SPLINE_SURFACE_WITH_KNOTS('', 1, 1, ((#666, #667), (#668, #669)), .UNSPECIFIED., .F., .F., .U., (2, 2), (2, 2), (40., 120.), (0., 1.), .UNSPECIFIED.);
#666 = CARTESIAN_POINT('', (80., 0., 4.));
#667 = CARTESIAN_POINT('', (80., 4., 0.));
#668 = CARTESIAN_POINT('', (2.98427949019242E-13, 0., 4.));
#669 = CARTESIAN_POINT('', (2.98427949019242E-13, 4., 0.));
#670 = ADVANCED_FACE('', (#671), #698, .T.);
#671 = FACE_OUTER_BOUND('', #672, .T.);
#672 = EDGE_LOOP('', (#673, #674, #675, #697));
#673 = ORIENTED_EDGE('', *, *, #207, .T.);
#674 = ORIENTED_EDGE('', *, *, #72, .T.);
#675 = ORIENTED_EDGE('', *, *, #676, .F.);
#676 = EDGE_CURVE('', #635, #49, #677, .T.);
#677 = B_SPLINE_CURVE_WITH_KNOTS('', 3, (#678, #679, #680, #681, #682, #683, #684, #685, #686, #687, #688, #689, #690, #691, #692, #693, #694, #695, #696), .UNSPECIFIED., .F., .U., (4, 3, 3, 3, 3, 3, 4), (34., 40.5, 47., 60., 73., 79.5, 86.), .UNSPECIFIED.);
#678 = CARTESIAN_POINT('', (4., 4., 0.));
#679 = CARTESIAN_POINT('', (4., 6.16666666666667, 0.));
#680 = CARTESIAN_POINT('', (4., 8.33333333333333, 0.));
#681 = CARTESIAN_POINT('', (4., 10.5, 0.));
#682 = CARTESIAN_POINT('', (4., 12.6666666666667, 0.));
#683 = CARTESIAN_POINT('', (4., 14.8333333333333, 0.));
#684 = CARTESIAN_POINT('', (4., 17., 0.));
#685 = CARTESIAN_POINT('', (4., 21.3333333333333, 0.));
#686 = CARTESIAN_POINT('', (4., 25.6666666666667, 0.));
#687 = CARTESIAN_POINT('', (4., 30., 0.));
#688 = CARTESIAN_POINT('', (4., 34.3333333333333, 0.));
#689 = CARTESIAN_POINT('', (4., 38.6666666666667, 0.));
#690 = CARTESIAN_POINT('', (4., 43., 0.));
#691 = CARTESIAN_POINT('', (4., 45.1666666666667, 0.));
#692 = CARTESIAN_POINT('', (4., 47.3333333333333, 0.));
#693 = CARTESIAN_POINT('', (4., 49.5, 0.));
#694 = CARTESIAN_POINT('', (4., 51.6666666666667, 0.));
#695 = CARTESIAN_POINT('', (4., 53.8333333333333, 0.));
#696 = CARTESIAN_POINT('', (4., 56., 0.));
#697 = ORIENTED_EDGE('', *, *, #634, .F.);
#698 = B_SPLINE_SURFACE_WITH_KNOTS('', 1, 1, ((#699, #700), (#701, #702)), .UNSPECIFIED., .F., .F., .U., (2, 2), (2, 2), (30., 90.), (0., 1.), .UNSPECIFIED.);
#699 = CARTESIAN_POINT('', (0., 0., 4.));
#700 = CARTESIAN_POINT('', (4., 0., 0.));
#701 = CARTESIAN_POINT('', (0., 60., 4.));
#702 = CARTESIAN_POINT('', (4., 60., 0.));
#703 = ADVANCED_FACE('', (#704), #710, .T.);
#704 = FACE_OUTER_BOUND('', #705, .T.);
#705 = EDGE_LOOP('', (#706, #707, #708, #709));
#706 = ORIENTED_EDGE('', *, *, #48, .T.);
#707 = ORIENTED_EDGE('', *, *, #87, .F.);
#708 = ORIENTED_EDGE('', *, *, #643, .T.);
#709 = ORIENTED_EDGE('', *, *, #676, .T.);
#710 = B_SPLINE_SURFACE_WITH_KNOTS('', 1, 1, ((#711, #712), (#713, #714)), .UNSPECIFIED., .F., .F., .U., (2, 2), (2, 2), (4., 56.), (4., 76.), .UNSPECIFIED.);
#711 = CARTESIAN_POINT('', (4., 4., 0.));
#712 = CARTESIAN_POINT('', (76., 4., 0.));
#713 = CARTESIAN_POINT('', (4., 56., 0.));
#714 = CARTESIAN_POINT('', (76., 56., 0.));
#715 = DRAUGHTING_MODEL('', (#723), #726);
#716 = PRESENTATION_STYLE_ASSIGNMENT((#717));
#717 = SURFACE_STYLE_USAGE(.POSITIVE., #718);
#718 = SURFACE_SIDE_STYLE('', (#719));
#719 = SURFACE_STYLE_FILL_AREA(#720);
#720 = FILL_AREA_STYLE('', (#721));
#721 = FILL_AREA_STYLE_COLOUR('', #722);
#722 = COLOUR_RGB('', 0.50196078431373, 0.50196078431373, 0.50196078431373);
#723 = STYLED_ITEM('', (#716), #1);
#724 = CARTESIAN_POINT('Origin', (0., 0., 0.));
#725 = GEOMETRIC_SET('', (#724));
#726 = (
   GEOMETRIC_REPRESENTATION_CONTEXT (3)
   GLOBAL_UNCERTAINTY_ASSIGNED_CONTEXT ((#728))
   GLOBAL_UNIT_ASSIGNED_CONTEXT ((#727, #729, #730))
   REPRESENTATION_CONTEXT ('', '3D')
);
#727 = (
   LENGTH_UNIT ()
   NAMED_UNIT (*)
   SI_UNIT (.MILLI., .METRE.)
);
#728 = UNCERTAINTY_MEASURE_WITH_UNIT(LENGTH_MEASURE(1.E-6), #727, 'DISTANCE_ACCURACY_VALUE', '');
#729 = (
   NAMED_UNIT (*)
   SI_UNIT ($, .STERADIAN.)
   SOLID_ANGLE_UNIT ()
);
#730 = (
   NAMED_UNIT (*)
   PLANE_ANGLE_UNIT ()
   SI_UNIT ($, .RADIAN.)
);
#731 = SHAPE_REPRESENTATION('', (#746), #726);
#732 = PRODUCT_DEFINITION_SHAPE('', '', #733);
#733 = PRODUCT_DEFINITION('', '', #736, #740);
#734 = APPLICATION_CONTEXT('configuration controlled 3D designs of mechanical parts and assemblies');
#735 = APPLICATION_PROTOCOL_DEFINITION('International Standard', 'automotive_design', 2002, #734);
#736 = PRODUCT_DEFINITION_FORMATION_WITH_SPECIFIED_SOURCE('', '', #737, .NOT_KNOWN.);
#737 = PRODUCT('EnumSelect', 'EnumSelect', '', (#738));
#738 = PRODUCT_CONTEXT('', #734, 'mechanical');
#739 = PRODUCT_RELATED_PRODUCT_CATEGORY('detail', '', (#737));
#740 = PRODUCT_DEFINITION_CONTEXT('part definition', #734, 'design');
#741 = SHAPE_DEFINITION_REPRESENTATION(#732, #731);
#742 = SHAPE_REPRESENTATION_RELATIONSHIP('', '', #731, #743);
#743 = SHAPE_REPRESENTATION('', (#725), #726);
#744 = SHAPE_REPRESENTATION_RELATIONSHIP('', '', #731, #745);
#745 = ADVANCED_BREP_SHAPE_REPRESENTATION('', (#1), #726);
#746 = AXIS2_PLACEMENT_3D('', #747, #748, #749);
#747 = CARTESIAN_POINT('', (0., 0., 0.));
#748 = DIRECTION('', (0., 0., 1.));
#749 = DIRECTION('', (1., 0., 0.));
ENDSEC;
END-ISO-10303-21;
