ISO-10303-21;
HEADER;
FILE_DESCRIPTION(('STEP'), '1');
FILE_NAME('BoolEdges', '2026-04-21T21:13:26', (''), (''), 'Express 3.1.2.0', 'Express Tool', 'Unknown');
FILE_SCHEMA(('AUTOMOTIVE_DESIGN'));
ENDSEC;

DATA;
#1 = MANIFOLD_SOLID_BREP('Fillet_0', #2);
#2 = CLOSED_SHELL('', (#3, #48, #83, #108, #137, #160, #182, #199));
#3 = ADVANCED_FACE('', (#4), #38, .T.);
#4 = FACE_OUTER_BOUND('', #5, .T.);
#5 = EDGE_LOOP('', (#6, #16, #24, #32));
#6 = ORIENTED_EDGE('', *, *, #7, .T.);
#7 = EDGE_CURVE('', #8, #10, #12, .T.);
#8 = VERTEX_POINT('', #9);
#9 = CARTESIAN_POINT('', (15., -2.30363391205421E-16, 3.));
#10 = VERTEX_POINT('', #11);
#11 = CARTESIAN_POINT('', (-5.8833408115451E-15, 15., 3.));
#12 = (
   BOUNDED_CURVE ()
   B_SPLINE_CURVE (2, (#13, #14, #15), .UNSPECIFIED., .F., .U.)
   B_SPLINE_CURVE_WITH_KNOTS ((3, 3), (0.298225477824474, 0.701774522175526), .UNSPECIFIED.)
   CURVE ()
   GEOMETRIC_REPRESENTATION_ITEM ()
   RATIONAL_B_SPLINE_CURVE ((1., 0.707106781186547, 1.))
   REPRESENTATION_ITEM ('')
);
#13 = CARTESIAN_POINT('', (15., -2.30363391205421E-16, 3.));
#14 = CARTESIAN_POINT('', (15., 15., 3.));
#15 = CARTESIAN_POINT('', (-5.8833408115451E-15, 15., 3.));
#16 = ORIENTED_EDGE('', *, *, #17, .T.);
#17 = EDGE_CURVE('', #10, #18, #20, .T.);
#18 = VERTEX_POINT('', #19);
#19 = CARTESIAN_POINT('', (2.77249250568192E-16, 18., 0.));
#20 = (
   BOUNDED_CURVE ()
   B_SPLINE_CURVE (2, (#21, #22, #23), .UNSPECIFIED., .F., .U.)
   B_SPLINE_CURVE_WITH_KNOTS ((3, 3), (0., 1.), .UNSPECIFIED.)
   CURVE ()
   GEOMETRIC_REPRESENTATION_ITEM ()
   RATIONAL_B_SPLINE_CURVE ((1., 0.707106781186548, 1.))
   REPRESENTATION_ITEM ('')
);
#21 = CARTESIAN_POINT('', (9.59921632470104E-16, 15., 3.));
#22 = CARTESIAN_POINT('', (1.84810005217023E-15, 15., 9.18485099360515E-17));
#23 = CARTESIAN_POINT('', (2.77249250568192E-16, 18., 0.));
#24 = ORIENTED_EDGE('', *, *, #25, .F.);
#25 = EDGE_CURVE('', #26, #18, #28, .T.);
#26 = VERTEX_POINT('', #27);
#27 = CARTESIAN_POINT('', (18., -3.09192511762817E-16, 0.));
#28 = (
   BOUNDED_CURVE ()
   B_SPLINE_CURVE (2, (#29, #30, #31), .UNSPECIFIED., .F., .U.)
   B_SPLINE_CURVE_WITH_KNOTS ((3, 3), (0.298225477824474, 0.701774522175526), .UNSPECIFIED.)
   CURVE ()
   GEOMETRIC_REPRESENTATION_ITEM ()
   RATIONAL_B_SPLINE_CURVE ((1., 0.707106781186547, 1.))
   REPRESENTATION_ITEM ('')
);
#29 = CARTESIAN_POINT('', (18., -3.09192511762817E-16, 0.));
#30 = CARTESIAN_POINT('', (18., 18., 0.));
#31 = CARTESIAN_POINT('', (-6.84180815600151E-15, 18., 0.));
#32 = ORIENTED_EDGE('', *, *, #33, .T.);
#33 = EDGE_CURVE('', #26, #8, #34, .T.);
#34 = (
   BOUNDED_CURVE ()
   B_SPLINE_CURVE (2, (#35, #36, #37), .UNSPECIFIED., .F., .U.)
   B_SPLINE_CURVE_WITH_KNOTS ((3, 3), (0., 1.), .UNSPECIFIED.)
   CURVE ()
   GEOMETRIC_REPRESENTATION_ITEM ()
   RATIONAL_B_SPLINE_CURVE ((1., 0.707106781186548, 1.))
   REPRESENTATION_ITEM ('')
);
#35 = CARTESIAN_POINT('', (18., 6.10929169131933E-16, 0.));
#36 = CARTESIAN_POINT('', (15., -9.59921632470104E-16, 9.18485099360515E-17));
#37 = CARTESIAN_POINT('', (15., -7.1743212769979E-17, 3.));
#38 = (
   BOUNDED_SURFACE ()
   B_SPLINE_SURFACE (2, 2, ((#39, #40, #41), (#42, #43, #44), (#45, #46, #47)), .UNSPECIFIED., .F., .F., .U.)
   B_SPLINE_SURFACE_WITH_KNOTS ((3, 3), (3, 3), (0.298225477824474, 0.701774522175526), (0., 1.), .UNSPECIFIED.)
   GEOMETRIC_REPRESENTATION_ITEM ()
   RATIONAL_B_SPLINE_SURFACE (((1., 0.707106781186548, 1.), (0.707106781186547, 0.5, 0.707106781186547), (1., 0.707106781186548, 1.)))
   REPRESENTATION_ITEM ('')
   SURFACE ()
);
#39 = CARTESIAN_POINT('', (15., -7.1743212769979E-17, 3.));
#40 = CARTESIAN_POINT('', (15., -9.59921632470104E-16, 9.18485099360515E-17));
#41 = CARTESIAN_POINT('', (18., 6.10929169131933E-16, 0.));
#42 = CARTESIAN_POINT('', (15., 15., 3.));
#43 = CARTESIAN_POINT('', (15., 15., 9.18485099360515E-17));
#44 = CARTESIAN_POINT('', (18., 18., 0.));
#45 = CARTESIAN_POINT('', (-5.67110983562045E-15, 15., 3.));
#46 = CARTESIAN_POINT('', (-4.78293141592032E-15, 15., -3.51648330184248E-32));
#47 = CARTESIAN_POINT('', (-7.50235282720044E-15, 18., 0.));
#48 = ADVANCED_FACE('', (#49), #78, .T.);
#49 = FACE_OUTER_BOUND('', #50, .T.);
#50 = EDGE_LOOP('', (#51, #52, #59, #66, #73));
#51 = ORIENTED_EDGE('', *, *, #17, .F.);
#52 = ORIENTED_EDGE('', *, *, #53, .T.);
#53 = EDGE_CURVE('', #10, #54, #56, .T.);
#54 = VERTEX_POINT('', #55);
#55 = CARTESIAN_POINT('', (0., 15., 40.));
#56 = B_SPLINE_CURVE_WITH_KNOTS('', 1, (#57, #58), .UNSPECIFIED., .F., .U., (2, 2), (0.075, 1.), .UNSPECIFIED.);
#57 = CARTESIAN_POINT('', (0., 15., 3.));
#58 = CARTESIAN_POINT('', (0., 15., 40.));
#59 = ORIENTED_EDGE('', *, *, #60, .T.);
#60 = EDGE_CURVE('', #54, #61, #63, .T.);
#61 = VERTEX_POINT('', #62);
#62 = CARTESIAN_POINT('', (0., 60., 40.));
#63 = B_SPLINE_CURVE_WITH_KNOTS('', 1, (#64, #65), .UNSPECIFIED., .F., .U., (2, 2), (15., 60.), .UNSPECIFIED.);
#64 = CARTESIAN_POINT('', (0., 15., 40.));
#65 = CARTESIAN_POINT('', (0., 60., 40.));
#66 = ORIENTED_EDGE('', *, *, #67, .F.);
#67 = EDGE_CURVE('', #68, #61, #70, .T.);
#68 = VERTEX_POINT('', #69);
#69 = CARTESIAN_POINT('', (0., 60., 0.));
#70 = B_SPLINE_CURVE_WITH_KNOTS('', 1, (#71, #72), .UNSPECIFIED., .F., .U., (2, 2), (0., 40.), .UNSPECIFIED.);
#71 = CARTESIAN_POINT('', (0., 60., 0.));
#72 = CARTESIAN_POINT('', (0., 60., 40.));
#73 = ORIENTED_EDGE('', *, *, #74, .F.);
#74 = EDGE_CURVE('', #18, #68, #75, .T.);
#75 = B_SPLINE_CURVE_WITH_KNOTS('', 1, (#76, #77), .UNSPECIFIED., .F., .U., (2, 2), (18., 60.), .UNSPECIFIED.);
#76 = CARTESIAN_POINT('', (0., 18., 0.));
#77 = CARTESIAN_POINT('', (0., 60., 0.));
#78 = B_SPLINE_SURFACE_WITH_KNOTS('', 1, 1, ((#79, #80), (#81, #82)), .UNSPECIFIED., .F., .F., .U., (2, 2), (2, 2), (0., 40.), (15., 60.), .UNSPECIFIED.);
#79 = CARTESIAN_POINT('', (0., 15., 0.));
#80 = CARTESIAN_POINT('', (0., 60., 0.));
#81 = CARTESIAN_POINT('', (0., 15., 40.));
#82 = CARTESIAN_POINT('', (0., 60., 40.));
#83 = ADVANCED_FACE('', (#84), #101, .T.);
#84 = FACE_OUTER_BOUND('', #85, .T.);
#85 = EDGE_LOOP('', (#86, #87, #94, #100));
#86 = ORIENTED_EDGE('', *, *, #7, .F.);
#87 = ORIENTED_EDGE('', *, *, #88, .T.);
#88 = EDGE_CURVE('', #8, #89, #91, .T.);
#89 = VERTEX_POINT('', #90);
#90 = CARTESIAN_POINT('', (15., 0., 40.));
#91 = B_SPLINE_CURVE_WITH_KNOTS('', 1, (#92, #93), .UNSPECIFIED., .F., .U., (2, 2), (0.075, 1.), .UNSPECIFIED.);
#92 = CARTESIAN_POINT('', (15., 0., 3.));
#93 = CARTESIAN_POINT('', (15., 0., 40.));
#94 = ORIENTED_EDGE('', *, *, #95, .T.);
#95 = EDGE_CURVE('', #89, #54, #96, .T.);
#96 = (
   BOUNDED_CURVE ()
   B_SPLINE_CURVE (2, (#97, #98, #99), .UNSPECIFIED., .F., .U.)
   B_SPLINE_CURVE_WITH_KNOTS ((3, 3), (0., 1.), .UNSPECIFIED.)
   CURVE ()
   GEOMETRIC_REPRESENTATION_ITEM ()
   RATIONAL_B_SPLINE_CURVE ((1., 0.707106781186548, 1.))
   REPRESENTATION_ITEM ('')
);
#97 = CARTESIAN_POINT('', (15., 0., 40.));
#98 = CARTESIAN_POINT('', (15., 15., 40.));
#99 = CARTESIAN_POINT('', (9.18485099360515E-16, 15., 40.));
#100 = ORIENTED_EDGE('', *, *, #53, .F.);
#101 = (
   BOUNDED_SURFACE ()
   B_SPLINE_SURFACE (1, 2, ((#102, #103, #104), (#105, #106, #107)), .UNSPECIFIED., .F., .F., .U.)
   B_SPLINE_SURFACE_WITH_KNOTS ((2, 2), (3, 3), (3., 40.), (0., 23.5619449019235), .UNSPECIFIED.)
   GEOMETRIC_REPRESENTATION_ITEM ()
   RATIONAL_B_SPLINE_SURFACE (((1., 0.707106781186547, 1.), (1., 0.707106781186547, 1.)))
   REPRESENTATION_ITEM ('')
   SURFACE ()
);
#102 = CARTESIAN_POINT('', (15., -9.86076131526265E-32, 3.));
#103 = CARTESIAN_POINT('', (15., 15., 3.));
#104 = CARTESIAN_POINT('', (-3.24485124298382E-15, 15., 3.));
#105 = CARTESIAN_POINT('', (15., -9.86076131526265E-32, 40.));
#106 = CARTESIAN_POINT('', (15., 15., 40.));
#107 = CARTESIAN_POINT('', (-3.24485124298382E-15, 15., 40.));
#108 = ADVANCED_FACE('', (#109), #132, .T.);
#109 = FACE_OUTER_BOUND('', #110, .T.);
#110 = EDGE_LOOP('', (#111, #112, #119, #126, #131));
#111 = ORIENTED_EDGE('', *, *, #33, .F.);
#112 = ORIENTED_EDGE('', *, *, #113, .T.);
#113 = EDGE_CURVE('', #26, #114, #116, .T.);
#114 = VERTEX_POINT('', #115);
#115 = CARTESIAN_POINT('', (80., 0., 0.));
#116 = B_SPLINE_CURVE_WITH_KNOTS('', 1, (#117, #118), .UNSPECIFIED., .F., .U., (2, 2), (18., 80.), .UNSPECIFIED.);
#117 = CARTESIAN_POINT('', (18., 0., 0.));
#118 = CARTESIAN_POINT('', (80., 0., 0.));
#119 = ORIENTED_EDGE('', *, *, #120, .T.);
#120 = EDGE_CURVE('', #114, #121, #123, .T.);
#121 = VERTEX_POINT('', #122);
#122 = CARTESIAN_POINT('', (80., 0., 40.));
#123 = B_SPLINE_CURVE_WITH_KNOTS('', 1, (#124, #125), .UNSPECIFIED., .F., .U., (2, 2), (0., 40.), .UNSPECIFIED.);
#124 = CARTESIAN_POINT('', (80., 0., 0.));
#125 = CARTESIAN_POINT('', (80., 0., 40.));
#126 = ORIENTED_EDGE('', *, *, #127, .F.);
#127 = EDGE_CURVE('', #89, #121, #128, .T.);
#128 = B_SPLINE_CURVE_WITH_KNOTS('', 1, (#129, #130), .UNSPECIFIED., .F., .U., (2, 2), (15., 80.), .UNSPECIFIED.);
#129 = CARTESIAN_POINT('', (15., 0., 40.));
#130 = CARTESIAN_POINT('', (80., 0., 40.));
#131 = ORIENTED_EDGE('', *, *, #88, .F.);
#132 = B_SPLINE_SURFACE_WITH_KNOTS('', 1, 1, ((#133, #134), (#135, #136)), .UNSPECIFIED., .F., .F., .U., (2, 2), (2, 2), (15., 80.), (0., 40.), .UNSPECIFIED.);
#133 = CARTESIAN_POINT('', (15., 0., 0.));
#134 = CARTESIAN_POINT('', (15., 0., 40.));
#135 = CARTESIAN_POINT('', (80., 0., 0.));
#136 = CARTESIAN_POINT('', (80., 0., 40.));
#137 = ADVANCED_FACE('', (#138), #155, .T.);
#138 = FACE_OUTER_BOUND('', #139, .T.);
#139 = EDGE_LOOP('', (#140, #141, #142, #149, #154));
#140 = ORIENTED_EDGE('', *, *, #25, .T.);
#141 = ORIENTED_EDGE('', *, *, #74, .T.);
#142 = ORIENTED_EDGE('', *, *, #143, .T.);
#143 = EDGE_CURVE('', #68, #144, #146, .T.);
#144 = VERTEX_POINT('', #145);
#145 = CARTESIAN_POINT('', (80., 60., 0.));
#146 = B_SPLINE_CURVE_WITH_KNOTS('', 1, (#147, #148), .UNSPECIFIED., .F., .U., (2, 2), (0., 80.), .UNSPECIFIED.);
#147 = CARTESIAN_POINT('', (0., 60., 0.));
#148 = CARTESIAN_POINT('', (80., 60., 0.));
#149 = ORIENTED_EDGE('', *, *, #150, .F.);
#150 = EDGE_CURVE('', #114, #144, #151, .T.);
#151 = B_SPLINE_CURVE_WITH_KNOTS('', 1, (#152, #153), .UNSPECIFIED., .F., .U., (2, 2), (0., 60.), .UNSPECIFIED.);
#152 = CARTESIAN_POINT('', (80., 0., 0.));
#153 = CARTESIAN_POINT('', (80., 60., 0.));
#154 = ORIENTED_EDGE('', *, *, #113, .F.);
#155 = B_SPLINE_SURFACE_WITH_KNOTS('', 1, 1, ((#156, #157), (#158, #159)), .UNSPECIFIED., .F., .F., .U., (2, 2), (2, 2), (0., 60.), (0., 80.), .UNSPECIFIED.);
#156 = CARTESIAN_POINT('', (0., 0., 0.));
#157 = CARTESIAN_POINT('', (80., 0., 0.));
#158 = CARTESIAN_POINT('', (0., 60., 0.));
#159 = CARTESIAN_POINT('', (80., 60., 0.));
#160 = ADVANCED_FACE('', (#161), #177, .T.);
#161 = FACE_OUTER_BOUND('', #162, .T.);
#162 = EDGE_LOOP('', (#163, #164, #171, #176));
#163 = ORIENTED_EDGE('', *, *, #67, .T.);
#164 = ORIENTED_EDGE('', *, *, #165, .T.);
#165 = EDGE_CURVE('', #61, #166, #168, .T.);
#166 = VERTEX_POINT('', #167);
#167 = CARTESIAN_POINT('', (80., 60., 40.));
#168 = B_SPLINE_CURVE_WITH_KNOTS('', 1, (#169, #170), .UNSPECIFIED., .F., .U., (2, 2), (0., 80.), .UNSPECIFIED.);
#169 = CARTESIAN_POINT('', (0., 60., 40.));
#170 = CARTESIAN_POINT('', (80., 60., 40.));
#171 = ORIENTED_EDGE('', *, *, #172, .F.);
#172 = EDGE_CURVE('', #144, #166, #173, .T.);
#173 = B_SPLINE_CURVE_WITH_KNOTS('', 1, (#174, #175), .UNSPECIFIED., .F., .U., (2, 2), (0., 40.), .UNSPECIFIED.);
#174 = CARTESIAN_POINT('', (80., 60., 0.));
#175 = CARTESIAN_POINT('', (80., 60., 40.));
#176 = ORIENTED_EDGE('', *, *, #143, .F.);
#177 = B_SPLINE_SURFACE_WITH_KNOTS('', 1, 1, ((#178, #179), (#180, #181)), .UNSPECIFIED., .F., .F., .U., (2, 2), (2, 2), (0., 40.), (0., 80.), .UNSPECIFIED.);
#178 = CARTESIAN_POINT('', (0., 60., 0.));
#179 = CARTESIAN_POINT('', (80., 60., 0.));
#180 = CARTESIAN_POINT('', (0., 60., 40.));
#181 = CARTESIAN_POINT('', (80., 60., 40.));
#182 = ADVANCED_FACE('', (#183), #194, .T.);
#183 = FACE_OUTER_BOUND('', #184, .T.);
#184 = EDGE_LOOP('', (#185, #186, #187, #192, #193));
#185 = ORIENTED_EDGE('', *, *, #95, .F.);
#186 = ORIENTED_EDGE('', *, *, #127, .T.);
#187 = ORIENTED_EDGE('', *, *, #188, .T.);
#188 = EDGE_CURVE('', #121, #166, #189, .T.);
#189 = B_SPLINE_CURVE_WITH_KNOTS('', 1, (#190, #191), .UNSPECIFIED., .F., .U., (2, 2), (0., 60.), .UNSPECIFIED.);
#190 = CARTESIAN_POINT('', (80., 0., 40.));
#191 = CARTESIAN_POINT('', (80., 60., 40.));
#192 = ORIENTED_EDGE('', *, *, #165, .F.);
#193 = ORIENTED_EDGE('', *, *, #60, .F.);
#194 = B_SPLINE_SURFACE_WITH_KNOTS('', 1, 1, ((#195, #196), (#197, #198)), .UNSPECIFIED., .F., .F., .U., (2, 2), (2, 2), (0., 80.), (0., 60.), .UNSPECIFIED.);
#195 = CARTESIAN_POINT('', (0., 0., 40.));
#196 = CARTESIAN_POINT('', (0., 60., 40.));
#197 = CARTESIAN_POINT('', (80., 0., 40.));
#198 = CARTESIAN_POINT('', (80., 60., 40.));
#199 = ADVANCED_FACE('', (#200), #206, .T.);
#200 = FACE_OUTER_BOUND('', #201, .T.);
#201 = EDGE_LOOP('', (#202, #203, #204, #205));
#202 = ORIENTED_EDGE('', *, *, #120, .F.);
#203 = ORIENTED_EDGE('', *, *, #150, .T.);
#204 = ORIENTED_EDGE('', *, *, #172, .T.);
#205 = ORIENTED_EDGE('', *, *, #188, .F.);
#206 = B_SPLINE_SURFACE_WITH_KNOTS('', 1, 1, ((#207, #208), (#209, #210)), .UNSPECIFIED., .F., .F., .U., (2, 2), (2, 2), (0., 60.), (0., 40.), .UNSPECIFIED.);
#207 = CARTESIAN_POINT('', (80., 0., 0.));
#208 = CARTESIAN_POINT('', (80., 0., 40.));
#209 = CARTESIAN_POINT('', (80., 60., 0.));
#210 = CARTESIAN_POINT('', (80., 60., 40.));
#211 = DRAUGHTING_MODEL('', (#219), #222);
#212 = PRESENTATION_STYLE_ASSIGNMENT((#213));
#213 = SURFACE_STYLE_USAGE(.POSITIVE., #214);
#214 = SURFACE_SIDE_STYLE('', (#215));
#215 = SURFACE_STYLE_FILL_AREA(#216);
#216 = FILL_AREA_STYLE('', (#217));
#217 = FILL_AREA_STYLE_COLOUR('', #218);
#218 = COLOUR_RGB('', 0.50196078431373, 0.50196078431373, 0.50196078431373);
#219 = STYLED_ITEM('', (#212), #1);
#220 = CARTESIAN_POINT('Origin', (0., 0., 0.));
#221 = GEOMETRIC_SET('', (#220));
#222 = (
   GEOMETRIC_REPRESENTATION_CONTEXT (3)
   GLOBAL_UNCERTAINTY_ASSIGNED_CONTEXT ((#224))
   GLOBAL_UNIT_ASSIGNED_CONTEXT ((#223, #225, #226))
   REPRESENTATION_CONTEXT ('', '3D')
);
#223 = (
   LENGTH_UNIT ()
   NAMED_UNIT (*)
   SI_UNIT (.MILLI., .METRE.)
);
#224 = UNCERTAINTY_MEASURE_WITH_UNIT(LENGTH_MEASURE(1.E-6), #223, 'DISTANCE_ACCURACY_VALUE', '');
#225 = (
   NAMED_UNIT (*)
   SI_UNIT ($, .STERADIAN.)
   SOLID_ANGLE_UNIT ()
);
#226 = (
   NAMED_UNIT (*)
   PLANE_ANGLE_UNIT ()
   SI_UNIT ($, .RADIAN.)
);
#227 = SHAPE_REPRESENTATION('', (#242), #222);
#228 = PRODUCT_DEFINITION_SHAPE('', '', #229);
#229 = PRODUCT_DEFINITION('', '', #232, #236);
#230 = APPLICATION_CONTEXT('configuration controlled 3D designs of mechanical parts and assemblies');
#231 = APPLICATION_PROTOCOL_DEFINITION('International Standard', 'automotive_design', 2002, #230);
#232 = PRODUCT_DEFINITION_FORMATION_WITH_SPECIFIED_SOURCE('', '', #233, .NOT_KNOWN.);
#233 = PRODUCT('BoolEdges', 'BoolEdges', '', (#234));
#234 = PRODUCT_CONTEXT('', #230, 'mechanical');
#235 = PRODUCT_RELATED_PRODUCT_CATEGORY('detail', '', (#233));
#236 = PRODUCT_DEFINITION_CONTEXT('part definition', #230, 'design');
#237 = SHAPE_DEFINITION_REPRESENTATION(#228, #227);
#238 = SHAPE_REPRESENTATION_RELATIONSHIP('', '', #227, #239);
#239 = SHAPE_REPRESENTATION('', (#221), #222);
#240 = SHAPE_REPRESENTATION_RELATIONSHIP('', '', #227, #241);
#241 = ADVANCED_BREP_SHAPE_REPRESENTATION('', (#1), #222);
#242 = AXIS2_PLACEMENT_3D('', #243, #244, #245);
#243 = CARTESIAN_POINT('', (0., 0., 0.));
#244 = DIRECTION('', (0., 0., 1.));
#245 = DIRECTION('', (1., 0., 0.));
ENDSEC;
END-ISO-10303-21;
