ISO-10303-21;
HEADER;
FILE_DESCRIPTION(('STEP'), '1');
FILE_NAME('Roundtrip', '2026-04-21T21:16:45', (''), (''), 'Express 3.1.2.0', 'Express Tool', 'Unknown');
FILE_SCHEMA(('AUTOMOTIVE_DESIGN'));
ENDSEC;

DATA;
#1 = MANIFOLD_SOLID_BREP('Chamfer_0', #2);
#2 = CLOSED_SHELL('', (#3, #180, #320, #352, #416, #440, #503, #611, #627, #738, #757, #775, #794, #806));
#3 = ADVANCED_FACE('', (#4), #173, .T.);
#4 = FACE_OUTER_BOUND('', #5, .T.);
#5 = EDGE_LOOP('', (#6, #53, #89, #96, #123, #168));
#6 = ORIENTED_EDGE('', *, *, #7, .F.);
#7 = EDGE_CURVE('', #8, #10, #12, .T.);
#8 = VERTEX_POINT('', #9);
#9 = CARTESIAN_POINT('', (2.50000012048776, 57.4999998795123, 37.8094744546377));
#10 = VERTEX_POINT('', #11);
#11 = CARTESIAN_POINT('', (5., 60., 32.));
#12 = B_SPLINE_CURVE_WITH_KNOTS('', 3, (#13, #14, #15, #16, #17, #18, #19, #20, #21, #22, #23, #24, #25, #26, #27, #28, #29, #30, #31, #32, #33, #34, #35, #36, #37, #38, #39, #40, #41, #42, #43, #44, #45, #46, #47, #48, #49, #50, #51, #52), .UNSPECIFIED., .F., .U., (4, 3, 3, 3, 3, 3, 3, 3, 3, 3, 3, 3, 3, 4), (3.89835172249548, 4.07060488550112, 4.80973330022921, 5.54853329548458, 6.28694309328702, 7.02488555836175, 7.51675314590289, 8.00841734322311, 8.49985540348596, 8.9910451974991, 9.48196701474127, 9.97260577326183, 10.4629533736026, 10.9817257999795), .UNSPECIFIED.);
#13 = CARTESIAN_POINT('', (2.5000001204882, 57.5000001204882, 37.8094747091741));
#14 = CARTESIAN_POINT('', (2.53374524097268, 57.5337452409726, 37.7775273082313));
#15 = CARTESIAN_POINT('', (2.56730566492593, 57.5673056649259, 37.7451972212537));
#16 = CARTESIAN_POINT('', (2.60067206821056, 57.6006720682105, 37.7124839067053));
#17 = CARTESIAN_POINT('', (2.74384538552225, 57.7438453855222, 37.572112955596));
#18 = CARTESIAN_POINT('', (2.88362523320072, 57.8836252332006, 37.4245079938256));
#19 = CARTESIAN_POINT('', (3.01915508845144, 58.0191550884513, 37.2697032194586));
#20 = CARTESIAN_POINT('', (3.15462472325506, 58.154624723255, 37.1149672300298));
#21 = CARTESIAN_POINT('', (3.28604505713813, 58.2860450571379, 36.952808580313));
#22 = CARTESIAN_POINT('', (3.41242534336451, 58.4124253433643, 36.7833880477945));
#23 = CARTESIAN_POINT('', (3.53873888180244, 58.5387388818022, 36.6140569947844));
#24 = CARTESIAN_POINT('', (3.66023280888997, 58.66023280889, 36.437176152257));
#25 = CARTESIAN_POINT('', (3.77577479574706, 58.7757747957471, 36.2531019171093));
#26 = CARTESIAN_POINT('', (3.89124365714992, 58.8912436571499, 36.0691441808417));
#27 = CARTESIAN_POINT('', (4.000999115699, 59.000999115699, 35.8776222954696));
#28 = CARTESIAN_POINT('', (4.10377693577278, 59.1037769357728, 35.6791783385401));
#29 = CARTESIAN_POINT('', (4.17228238274866, 59.1722823827486, 35.5469076603008));
#30 = CARTESIAN_POINT('', (4.23777592082281, 59.2377759208228, 35.41139663845));
#31 = CARTESIAN_POINT('', (4.29985828533777, 59.2998582853377, 35.2729297294606));
#32 = CARTESIAN_POINT('', (4.3619149784197, 59.3619149784197, 35.1345200773751));
#33 = CARTESIAN_POINT('', (4.42063602336278, 59.4206360233627, 34.9929914466814));
#34 = CARTESIAN_POINT('', (4.4756133547564, 59.4756133547563, 34.8487198827174));
#35 = CARTESIAN_POINT('', (4.53056539976144, 59.5305653997614, 34.7045146753177));
#36 = CARTESIAN_POINT('', (4.58184831327919, 59.5818483132791, 34.5573779230266));
#37 = CARTESIAN_POINT('', (4.62905964227192, 59.6290596422719, 34.4077892297));
#38 = CARTESIAN_POINT('', (4.67624712089461, 59.6762471208946, 34.2582761060676));
#39 = CARTESIAN_POINT('', (4.71943403284194, 59.7194340328419, 34.1060958212465));
#40 = CARTESIAN_POINT('', (4.75824246939073, 59.7582424693907, 33.951838565595));
#41 = CARTESIAN_POINT('', (4.79702973335075, 59.7970297333507, 33.7976654675579));
#42 = CARTESIAN_POINT('', (4.83150283268307, 59.831502832683, 33.6411739463157));
#43 = CARTESIAN_POINT('', (4.8613307971154, 59.8613307971154, 33.4830637539655));
#44 = CARTESIAN_POINT('', (4.89114156315649, 59.8911415631564, 33.3250447257628));
#45 = CARTESIAN_POINT('', (4.91636137882094, 59.9163613788209, 33.1651416340957));
#46 = CARTESIAN_POINT('', (4.93672971769036, 59.9367297176903, 33.0041520743054));
#47 = CARTESIAN_POINT('', (4.95708596944198, 59.9570859694419, 32.8432580500316));
#48 = CARTESIAN_POINT('', (4.97263149668292, 59.9726314966829, 32.6809926739658));
#49 = CARTESIAN_POINT('', (4.9831973436807, 59.9831973436807, 32.5182279149661));
#50 = CARTESIAN_POINT('', (4.99437567937552, 59.9943756793755, 32.3460278901343));
#51 = CARTESIAN_POINT('', (5., 60., 32.1729241421256));
#52 = CARTESIAN_POINT('', (5., 60., 32.));
#53 = ORIENTED_EDGE('', *, *, #54, .T.);
#54 = EDGE_CURVE('', #8, #55, #57, .T.);
#55 = VERTEX_POINT('', #56);
#56 = CARTESIAN_POINT('', (8., 52., 40.));
#57 = B_SPLINE_CURVE_WITH_KNOTS('', 3, (#58, #59, #60, #61, #62, #63, #64, #65, #66, #67, #68, #69, #70, #71, #72, #73, #74, #75, #76, #77, #78, #79, #80, #81, #82, #83, #84, #85, #86, #87, #88), .UNSPECIFIED., .F., .U., (4, 3, 3, 3, 3, 3, 3, 3, 3, 3, 4), (7.08336443718724, 7.81330287139901, 8.79647277093393, 9.77847488248478, 10.7594904250366, 11.7396274819737, 13.9239040839268, 14.9013384554243, 15.1925152184265, 15.2501500746677, 15.275686759415), .UNSPECIFIED.);
#58 = CARTESIAN_POINT('', (2.50000012048776, 57.4999998795123, 37.8094744546377));
#59 = CARTESIAN_POINT('', (2.64302310980366, 57.3569768901963, 37.9448776164843));
#60 = CARTESIAN_POINT('', (2.78937345108029, 57.2106265489197, 38.0734157620454));
#61 = CARTESIAN_POINT('', (2.93834684879033, 57.0616531512097, 38.1951325552283));
#62 = CARTESIAN_POINT('', (3.13900234738471, 56.8609976526153, 38.3590755423579));
#63 = CARTESIAN_POINT('', (3.34479285805286, 56.6552071419471, 38.5109564407693));
#64 = CARTESIAN_POINT('', (3.55430479859646, 56.4456952014035, 38.6509994870108));
#65 = CARTESIAN_POINT('', (3.76356788537958, 56.2364321146204, 38.7908761931449));
#66 = CARTESIAN_POINT('', (3.9768748225855, 56.0231251774145, 38.9191674361369));
#67 = CARTESIAN_POINT('', (4.19305384435969, 55.8069461556403, 39.0361325291708));
#68 = CARTESIAN_POINT('', (4.4090156817525, 55.5909843182475, 39.1529801131552));
#69 = CARTESIAN_POINT('', (4.6281392716778, 55.3718607283222, 39.2586855655565));
#70 = CARTESIAN_POINT('', (4.84943427271224, 55.1505657272878, 39.3534981878042));
#71 = CARTESIAN_POINT('', (5.07053110718703, 54.929468892813, 39.4482259066827));
#72 = CARTESIAN_POINT('', (5.29406325880243, 54.7059367411976, 39.5321957364728));
#73 = CARTESIAN_POINT('', (5.51917367893216, 54.4808263210678, 39.605622970191));
#74 = CARTESIAN_POINT('', (6.0208417059342, 53.9791582940658, 39.7692586448363));
#75 = CARTESIAN_POINT('', (6.53218696745854, 53.4678130325415, 39.8811474718634));
#76 = CARTESIAN_POINT('', (7.04517593507082, 52.9548240649292, 39.9428150554468));
#77 = CARTESIAN_POINT('', (7.27473159148125, 52.7252684085187, 39.9704104688426));
#78 = CARTESIAN_POINT('', (7.50499666610776, 52.4950033338922, 39.9879958261164));
#79 = CARTESIAN_POINT('', (7.73531706686206, 52.2646829331379, 39.9956202351603));
#80 = CARTESIAN_POINT('', (7.80392929362695, 52.196070706373, 39.9978915393113));
#81 = CARTESIAN_POINT('', (7.87255898634556, 52.1274410136545, 39.9992792883104));
#82 = CARTESIAN_POINT('', (7.9411890802793, 52.0588109197206, 39.9997838268119));
#83 = CARTESIAN_POINT('', (7.95477356262918, 52.0452264373707, 39.9998836939981));
#84 = CARTESIAN_POINT('', (7.96835819420482, 52.0316418057952, 39.9999489585712));
#85 = CARTESIAN_POINT('', (7.98194284279589, 52.018057157204, 39.9999796211662));
#86 = CARTESIAN_POINT('', (7.98796188944746, 52.0120381105524, 39.9999932070597));
#87 = CARTESIAN_POINT('', (7.99398094568207, 52.0060190543179, 40.));
#88 = CARTESIAN_POINT('', (8., 52., 40.));
#89 = ORIENTED_EDGE('', *, *, #90, .T.);
#90 = EDGE_CURVE('', #55, #91, #93, .T.);
#91 = VERTEX_POINT('', #92);
#92 = CARTESIAN_POINT('', (72., 52., 40.));
#93 = B_SPLINE_CURVE_WITH_KNOTS('', 1, (#94, #95), .UNSPECIFIED., .F., .U., (2, 2), (0.3, 0.7), .UNSPECIFIED.);
#94 = CARTESIAN_POINT('', (8.00000000000001, 52., 40.));
#95 = CARTESIAN_POINT('', (72., 52., 40.));
#96 = ORIENTED_EDGE('', *, *, #97, .F.);
#97 = EDGE_CURVE('', #98, #91, #100, .T.);
#98 = VERTEX_POINT('', #99);
#99 = CARTESIAN_POINT('', (77.4999998795122, 57.4999998795122, 37.8094744546377));
#100 = B_SPLINE_CURVE_WITH_KNOTS('', 3, (#101, #102, #103, #104, #105, #106, #107, #108, #109, #110, #111, #112, #113, #114, #115, #116, #117, #118, #119, #120, #121, #122), .UNSPECIFIED., .F., .U., (4, 3, 3, 3, 3, 3, 3, 4), (7.08336443718725, 7.81330287139898, 8.7964727709339, 9.77847488248472, 10.7594904250366, 11.7396274819737, 13.9239040839268, 15.2754395469537), .UNSPECIFIED.);
#101 = CARTESIAN_POINT('', (77.4999998795123, 57.4999998795122, 37.8094744546377));
#102 = CARTESIAN_POINT('', (77.3569768901963, 57.3569768901963, 37.9448776164842));
#103 = CARTESIAN_POINT('', (77.2106265489197, 57.2106265489197, 38.0734157620454));
#104 = CARTESIAN_POINT('', (77.0616531512097, 57.0616531512097, 38.1951325552283));
#105 = CARTESIAN_POINT('', (76.8609976526153, 56.8609976526153, 38.3590755423579));
#106 = CARTESIAN_POINT('', (76.6552071419472, 56.6552071419471, 38.5109564407693));
#107 = CARTESIAN_POINT('', (76.4456952014036, 56.4456952014035, 38.6509994870108));
#108 = CARTESIAN_POINT('', (76.2364321146205, 56.2364321146204, 38.7908761931449));
#109 = CARTESIAN_POINT('', (76.0231251774145, 56.0231251774145, 38.9191674361369));
#110 = CARTESIAN_POINT('', (75.8069461556404, 55.8069461556403, 39.0361325291708));
#111 = CARTESIAN_POINT('', (75.5909843182475, 55.5909843182475, 39.1529801131552));
#112 = CARTESIAN_POINT('', (75.3718607283223, 55.3718607283222, 39.2586855655565));
#113 = CARTESIAN_POINT('', (75.1505657272878, 55.1505657272878, 39.3534981878042));
#114 = CARTESIAN_POINT('', (74.929468892813, 54.929468892813, 39.4482259066827));
#115 = CARTESIAN_POINT('', (74.7059367411976, 54.7059367411976, 39.5321957364728));
#116 = CARTESIAN_POINT('', (74.4808263210679, 54.4808263210679, 39.605622970191));
#117 = CARTESIAN_POINT('', (73.9791582940658, 53.9791582940658, 39.7692586448363));
#118 = CARTESIAN_POINT('', (73.4678130325415, 53.4678130325415, 39.8811474718634));
#119 = CARTESIAN_POINT('', (72.9548240649292, 52.9548240649292, 39.9428150554468));
#120 = CARTESIAN_POINT('', (72.6374087791318, 52.6374087791318, 39.9809722769533));
#121 = CARTESIAN_POINT('', (72.3185599636401, 52.3185599636401, 40.));
#122 = CARTESIAN_POINT('', (72., 52., 40.));
#123 = ORIENTED_EDGE('', *, *, #124, .T.);
#124 = EDGE_CURVE('', #98, #125, #127, .T.);
#125 = VERTEX_POINT('', #126);
#126 = CARTESIAN_POINT('', (75., 60., 32.));
#127 = B_SPLINE_CURVE_WITH_KNOTS('', 3, (#128, #129, #130, #131, #132, #133, #134, #135, #136, #137, #138, #139, #140, #141, #142, #143, #144, #145, #146, #147, #148, #149, #150, #151, #152, #153, #154, #155, #156, #157, #158, #159, #160, #161, #162, #163, #164, #165, #166, #167), .UNSPECIFIED., .F., .U., (4, 3, 3, 3, 3, 3, 3, 3, 3, 3, 3, 3, 3, 4), (3.89835172249545, 4.07060488550112, 4.80973330022922, 5.54853329548457, 6.28694309328702, 7.02488555836173, 7.51675314590285, 8.00841734322307, 8.49985540348592, 8.99104519749904, 9.4819670147412, 9.97260577326176, 10.4629533736026, 10.9817257999794), .UNSPECIFIED.);
#128 = CARTESIAN_POINT('', (77.4999998795118, 57.5000001204882, 37.8094747091741));
#129 = CARTESIAN_POINT('', (77.4662547590273, 57.5337452409726, 37.7775273082313));
#130 = CARTESIAN_POINT('', (77.4326943350741, 57.5673056649259, 37.7451972212537));
#131 = CARTESIAN_POINT('', (77.3993279317894, 57.6006720682105, 37.7124839067053));
#132 = CARTESIAN_POINT('', (77.2561546144777, 57.7438453855222, 37.572112955596));
#133 = CARTESIAN_POINT('', (77.1163747667993, 57.8836252332006, 37.4245079938256));
#134 = CARTESIAN_POINT('', (76.9808449115486, 58.0191550884514, 37.2697032194586));
#135 = CARTESIAN_POINT('', (76.8453752767449, 58.154624723255, 37.1149672300298));
#136 = CARTESIAN_POINT('', (76.7139549428618, 58.2860450571379, 36.952808580313));
#137 = CARTESIAN_POINT('', (76.5875746566355, 58.4124253433643, 36.7833880477946));
#138 = CARTESIAN_POINT('', (76.4612611181975, 58.5387388818022, 36.6140569947844));
#139 = CARTESIAN_POINT('', (76.33976719111, 58.66023280889, 36.437176152257));
#140 = CARTESIAN_POINT('', (76.2242252042529, 58.7757747957471, 36.2531019171093));
#141 = CARTESIAN_POINT('', (76.1087563428501, 58.8912436571499, 36.0691441808417));
#142 = CARTESIAN_POINT('', (75.999000884301, 59.000999115699, 35.8776222954696));
#143 = CARTESIAN_POINT('', (75.8962230642272, 59.1037769357728, 35.6791783385401));
#144 = CARTESIAN_POINT('', (75.8277176172514, 59.1722823827486, 35.5469076603008));
#145 = CARTESIAN_POINT('', (75.7622240791772, 59.2377759208228, 35.41139663845));
#146 = CARTESIAN_POINT('', (75.7001417146622, 59.2998582853377, 35.2729297294606));
#147 = CARTESIAN_POINT('', (75.6380850215803, 59.3619149784197, 35.1345200773751));
#148 = CARTESIAN_POINT('', (75.5793639766372, 59.4206360233627, 34.9929914466814));
#149 = CARTESIAN_POINT('', (75.5243866452436, 59.4756133547563, 34.8487198827174));
#150 = CARTESIAN_POINT('', (75.4694346002386, 59.5305653997614, 34.7045146753178));
#151 = CARTESIAN_POINT('', (75.4181516867208, 59.5818483132791, 34.5573779230266));
#152 = CARTESIAN_POINT('', (75.3709403577281, 59.6290596422719, 34.4077892297001));
#153 = CARTESIAN_POINT('', (75.3237528791054, 59.6762471208945, 34.2582761060677));
#154 = CARTESIAN_POINT('', (75.2805659671581, 59.7194340328419, 34.1060958212465));
#155 = CARTESIAN_POINT('', (75.2417575306093, 59.7582424693907, 33.951838565595));
#156 = CARTESIAN_POINT('', (75.2029702666493, 59.7970297333507, 33.7976654675579));
#157 = CARTESIAN_POINT('', (75.1684971673169, 59.831502832683, 33.6411739463158));
#158 = CARTESIAN_POINT('', (75.1386692028846, 59.8613307971154, 33.4830637539656));
#159 = CARTESIAN_POINT('', (75.1088584368435, 59.8911415631564, 33.3250447257628));
#160 = CARTESIAN_POINT('', (75.0836386211791, 59.9163613788209, 33.1651416340958));
#161 = CARTESIAN_POINT('', (75.0632702823097, 59.9367297176903, 33.0041520743055));
#162 = CARTESIAN_POINT('', (75.042914030558, 59.9570859694419, 32.8432580500317));
#163 = CARTESIAN_POINT('', (75.0273685033171, 59.9726314966829, 32.6809926739658));
#164 = CARTESIAN_POINT('', (75.0168026563193, 59.9831973436807, 32.5182279149662));
#165 = CARTESIAN_POINT('', (75.0056243206245, 59.9943756793755, 32.3460278901344));
#166 = CARTESIAN_POINT('', (75., 60., 32.1729241421256));
#167 = CARTESIAN_POINT('', (75., 60., 32.));
#168 = ORIENTED_EDGE('', *, *, #169, .F.);
#169 = EDGE_CURVE('', #10, #125, #170, .T.);
#170 = B_SPLINE_CURVE_WITH_KNOTS('', 1, (#171, #172), .UNSPECIFIED., .F., .U., (2, 2), (0.28125, 0.71875), .UNSPECIFIED.);
#171 = CARTESIAN_POINT('', (5., 60., 32.));
#172 = CARTESIAN_POINT('', (75., 60., 32.));
#173 = (
   BOUNDED_SURFACE ()
   B_SPLINE_SURFACE (2, 1, ((#174, #175), (#176, #177), (#178, #179)), .UNSPECIFIED., .F., .F., .U.)
   B_SPLINE_SURFACE_WITH_KNOTS ((3, 3), (2, 2), (0., 1.), (0.265625000753048, 0.734374999246952), .UNSPECIFIED.)
   GEOMETRIC_REPRESENTATION_ITEM ()
   RATIONAL_B_SPLINE_SURFACE (((1., 1.), (0.707106781186546, 0.707106781186546), (1., 1.)))
   REPRESENTATION_ITEM ('')
   SURFACE ()
);
#174 = CARTESIAN_POINT('', (2.50000012048775, 60., 32.));
#175 = CARTESIAN_POINT('', (77.4999998795122, 60., 32.));
#176 = CARTESIAN_POINT('', (2.50000012048775, 60., 40.));
#177 = CARTESIAN_POINT('', (77.4999998795122, 60., 40.));
#178 = CARTESIAN_POINT('', (2.50000012048775, 52., 40.));
#179 = CARTESIAN_POINT('', (77.4999998795122, 52., 40.));
#180 = ADVANCED_FACE('', (#181), #313, .T.);
#181 = FACE_OUTER_BOUND('', #182, .T.);
#182 = EDGE_LOOP('', (#183, #228, #235, #280, #307, #312));
#183 = ORIENTED_EDGE('', *, *, #184, .T.);
#184 = EDGE_CURVE('', #8, #185, #187, .T.);
#185 = VERTEX_POINT('', #186);
#186 = CARTESIAN_POINT('', (0., 55., 32.));
#187 = B_SPLINE_CURVE_WITH_KNOTS('', 3, (#188, #189, #190, #191, #192, #193, #194, #195, #196, #197, #198, #199, #200, #201, #202, #203, #204, #205, #206, #207, #208, #209, #210, #211, #212, #213, #214, #215, #216, #217, #218, #219, #220, #221, #222, #223, #224, #225, #226, #227), .UNSPECIFIED., .F., .U., (4, 3, 3, 3, 3, 3, 3, 3, 3, 3, 3, 3, 3, 4), (3.89835172249548, 4.07060488550113, 4.80973330022921, 5.54853329548456, 6.28694309328701, 7.02488555836173, 7.51675314590287, 8.0084173432231, 8.49985540348596, 8.99104519749909, 9.48196701474125, 9.97260577326181, 10.4629533736026, 10.9817257999794), .UNSPECIFIED.);
#188 = CARTESIAN_POINT('', (2.49999987951184, 57.4999998795118, 37.8094747091741));
#189 = CARTESIAN_POINT('', (2.46625475902736, 57.4662547590273, 37.7775273082313));
#190 = CARTESIAN_POINT('', (2.43269433507411, 57.4326943350741, 37.7451972212537));
#191 = CARTESIAN_POINT('', (2.39932793178947, 57.3993279317894, 37.7124839067053));
#192 = CARTESIAN_POINT('', (2.25615461447779, 57.2561546144778, 37.572112955596));
#193 = CARTESIAN_POINT('', (2.11637476679938, 57.1163747667993, 37.4245079938256));
#194 = CARTESIAN_POINT('', (1.98084491154866, 56.9808449115486, 37.2697032194586));
#195 = CARTESIAN_POINT('', (1.84537527674505, 56.845375276745, 37.1149672300298));
#196 = CARTESIAN_POINT('', (1.7139549428621, 56.7139549428619, 36.952808580313));
#197 = CARTESIAN_POINT('', (1.58757465663573, 56.5875746566355, 36.7833880477945));
#198 = CARTESIAN_POINT('', (1.4612611181978, 56.4612611181976, 36.6140569947844));
#199 = CARTESIAN_POINT('', (1.33976719111005, 56.3397671911101, 36.437176152257));
#200 = CARTESIAN_POINT('', (1.22422520425295, 56.224225204253, 36.2531019171093));
#201 = CARTESIAN_POINT('', (1.1087563428501, 56.1087563428501, 36.0691441808417));
#202 = CARTESIAN_POINT('', (0.999000884301021, 55.999000884301, 35.8776222954696));
#203 = CARTESIAN_POINT('', (0.896223064227243, 55.8962230642272, 35.6791783385401));
#204 = CARTESIAN_POINT('', (0.827717617251362, 55.8277176172514, 35.5469076603008));
#205 = CARTESIAN_POINT('', (0.76222407917724, 55.7622240791772, 35.41139663845));
#206 = CARTESIAN_POINT('', (0.700141714662276, 55.7001417146622, 35.2729297294606));
#207 = CARTESIAN_POINT('', (0.638085021580343, 55.6380850215803, 35.1345200773751));
#208 = CARTESIAN_POINT('', (0.579363976637282, 55.5793639766372, 34.9929914466814));
#209 = CARTESIAN_POINT('', (0.524386645243661, 55.5243866452436, 34.8487198827174));
#210 = CARTESIAN_POINT('', (0.469434600238619, 55.4694346002386, 34.7045146753177));
#211 = CARTESIAN_POINT('', (0.418151686720871, 55.4181516867208, 34.5573779230266));
#212 = CARTESIAN_POINT('', (0.370940357728134, 55.3709403577281, 34.4077892297));
#213 = CARTESIAN_POINT('', (0.323752879105447, 55.3237528791054, 34.2582761060676));
#214 = CARTESIAN_POINT('', (0.280565967158121, 55.2805659671581, 34.1060958212464));
#215 = CARTESIAN_POINT('', (0.241757530609338, 55.2417575306093, 33.951838565595));
#216 = CARTESIAN_POINT('', (0.202970266649317, 55.2029702666493, 33.7976654675578));
#217 = CARTESIAN_POINT('', (0.168497167316979, 55.1684971673169, 33.6411739463157));
#218 = CARTESIAN_POINT('', (0.138669202884653, 55.1386692028846, 33.4830637539655));
#219 = CARTESIAN_POINT('', (0.108858436843564, 55.1088584368435, 33.3250447257628));
#220 = CARTESIAN_POINT('', (0.0836386211791138, 55.0836386211791, 33.1651416340957));
#221 = CARTESIAN_POINT('', (0.063270282309692, 55.0632702823097, 33.0041520743054));
#222 = CARTESIAN_POINT('', (0.0429140305580667, 55.042914030558, 32.8432580500316));
#223 = CARTESIAN_POINT('', (0.027368503317105, 55.0273685033171, 32.6809926739658));
#224 = CARTESIAN_POINT('', (0.0168026563193323, 55.0168026563193, 32.5182279149661));
#225 = CARTESIAN_POINT('', (0.00562432062450875, 55.0056243206245, 32.3460278901343));
#226 = CARTESIAN_POINT('', (3.55271369203539E-15, 55., 32.1729241421256));
#227 = CARTESIAN_POINT('', (3.55271369203539E-15, 55., 32.));
#228 = ORIENTED_EDGE('', *, *, #229, .F.);
#229 = EDGE_CURVE('', #230, #185, #232, .T.);
#230 = VERTEX_POINT('', #231);
#231 = CARTESIAN_POINT('', (0., 5., 32.));
#232 = B_SPLINE_CURVE_WITH_KNOTS('', 1, (#233, #234), .UNSPECIFIED., .F., .U., (2, 2), (0.291666666666667, 0.708333333333333), .UNSPECIFIED.);
#233 = CARTESIAN_POINT('', (0., 4.99999999999999, 32.));
#234 = CARTESIAN_POINT('', (0., 55., 32.));
#235 = ORIENTED_EDGE('', *, *, #236, .F.);
#236 = EDGE_CURVE('', #237, #230, #239, .T.);
#237 = VERTEX_POINT('', #238);
#238 = CARTESIAN_POINT('', (2.50000012265335, 2.50000012265335, 37.8094744566879));
#239 = B_SPLINE_CURVE_WITH_KNOTS('', 3, (#240, #241, #242, #243, #244, #245, #246, #247, #248, #249, #250, #251, #252, #253, #254, #255, #256, #257, #258, #259, #260, #261, #262, #263, #264, #265, #266, #267, #268, #269, #270, #271, #272, #273, #274, #275, #276, #277, #278, #279), .UNSPECIFIED., .F., .U., (4, 3, 3, 3, 3, 3, 3, 3, 3, 3, 3, 3, 3, 4), (3.89835172249547, 4.07060488550114, 4.80973330022923, 5.54853329548458, 6.28694309328703, 7.02488555836176, 7.5167531459029, 8.00841734322313, 8.49985540348598, 8.99104519749911, 9.48196701474127, 9.97260577326185, 10.4629533736026, 10.9817257999794), .UNSPECIFIED.);
#240 = CARTESIAN_POINT('', (2.49999987951184, 2.50000012048818, 37.8094747091741));
#241 = CARTESIAN_POINT('', (2.46625475902735, 2.53374524097267, 37.7775273082312));
#242 = CARTESIAN_POINT('', (2.43269433507409, 2.56730566492593, 37.7451972212537));
#243 = CARTESIAN_POINT('', (2.39932793178946, 2.60067206821057, 37.7124839067053));
#244 = CARTESIAN_POINT('', (2.25615461447777, 2.74384538552225, 37.572112955596));
#245 = CARTESIAN_POINT('', (2.11637476679937, 2.88362523320072, 37.4245079938256));
#246 = CARTESIAN_POINT('', (1.98084491154865, 3.01915508845144, 37.2697032194586));
#247 = CARTESIAN_POINT('', (1.84537527674503, 3.15462472325505, 37.1149672300298));
#248 = CARTESIAN_POINT('', (1.71395494286208, 3.28604505713815, 36.952808580313));
#249 = CARTESIAN_POINT('', (1.58757465663571, 3.41242534336452, 36.7833880477945));
#250 = CARTESIAN_POINT('', (1.46126111819777, 3.53873888180245, 36.6140569947843));
#251 = CARTESIAN_POINT('', (1.33976719111004, 3.66023280888996, 36.4371761522569));
#252 = CARTESIAN_POINT('', (1.22422520425294, 3.77577479574706, 36.2531019171093));
#253 = CARTESIAN_POINT('', (1.10875634285009, 3.89124365714991, 36.0691441808416));
#254 = CARTESIAN_POINT('', (0.999000884301005, 4.00099911569899, 35.8776222954696));
#255 = CARTESIAN_POINT('', (0.896223064227226, 4.10377693577277, 35.6791783385401));
#256 = CARTESIAN_POINT('', (0.827717617251347, 4.17228238274865, 35.5469076603008));
#257 = CARTESIAN_POINT('', (0.762224079177227, 4.23777592082282, 35.4113966384499));
#258 = CARTESIAN_POINT('', (0.700141714662265, 4.29985828533778, 35.2729297294605));
#259 = CARTESIAN_POINT('', (0.638085021580332, 4.36191497841971, 35.1345200773751));
#260 = CARTESIAN_POINT('', (0.579363976637272, 4.42063602336278, 34.9929914466814));
#261 = CARTESIAN_POINT('', (0.524386645243652, 4.4756133547564, 34.8487198827174));
#262 = CARTESIAN_POINT('', (0.469434600238611, 4.53056539976144, 34.7045146753177));
#263 = CARTESIAN_POINT('', (0.418151686720863, 4.58184831327919, 34.5573779230265));
#264 = CARTESIAN_POINT('', (0.370940357728128, 4.62905964227193, 34.4077892297));
#265 = CARTESIAN_POINT('', (0.323752879105441, 4.67624712089461, 34.2582761060676));
#266 = CARTESIAN_POINT('', (0.280565967158115, 4.71943403284194, 34.1060958212464));
#267 = CARTESIAN_POINT('', (0.241757530609332, 4.75824246939072, 33.9518385655949));
#268 = CARTESIAN_POINT('', (0.202970266649312, 4.79702973335074, 33.7976654675578));
#269 = CARTESIAN_POINT('', (0.168497167316975, 4.83150283268307, 33.6411739463157));
#270 = CARTESIAN_POINT('', (0.138669202884649, 4.86133079711539, 33.4830637539655));
#271 = CARTESIAN_POINT('', (0.10885843684356, 4.89114156315648, 33.3250447257627));
#272 = CARTESIAN_POINT('', (0.0836386211791098, 4.91636137882092, 33.1651416340957));
#273 = CARTESIAN_POINT('', (0.0632702823096881, 4.93672971769034, 33.0041520743054));
#274 = CARTESIAN_POINT('', (0.0429140305580639, 4.95708596944197, 32.8432580500316));
#275 = CARTESIAN_POINT('', (0.0273685033171014, 4.97263149668291, 32.6809926739657));
#276 = CARTESIAN_POINT('', (0.0168026563193297, 4.98319734368069, 32.5182279149661));
#277 = CARTESIAN_POINT('', (0.00562432062450742, 4.99437567937551, 32.3460278901343));
#278 = CARTESIAN_POINT('', (3.49720252756924E-15, 5., 32.1729241421256));
#279 = CARTESIAN_POINT('', (3.49720252756924E-15, 5., 32.));
#280 = ORIENTED_EDGE('', *, *, #281, .T.);
#281 = EDGE_CURVE('', #237, #282, #284, .T.);
#282 = VERTEX_POINT('', #283);
#283 = CARTESIAN_POINT('', (8., 8., 40.));
#284 = B_SPLINE_CURVE_WITH_KNOTS('', 3, (#285, #286, #287, #288, #289, #290, #291, #292, #293, #294, #295, #296, #297, #298, #299, #300, #301, #302, #303, #304, #305, #306), .UNSPECIFIED., .F., .U., (4, 3, 3, 3, 3, 3, 3, 4), (7.08336444087138, 7.813302871399, 8.79647277093391, 9.77847488248476, 10.7594904250366, 11.7396274819737, 13.9239040839268, 15.2754395469537), .UNSPECIFIED.);
#285 = CARTESIAN_POINT('', (2.50000012265335, 2.50000012265335, 37.8094744566879));
#286 = CARTESIAN_POINT('', (2.64302311128098, 2.64302311128097, 37.9448776177818));
#287 = CARTESIAN_POINT('', (2.78937345183218, 2.78937345183218, 38.0734157626597));
#288 = CARTESIAN_POINT('', (2.93834684879033, 2.93834684879032, 38.1951325552283));
#289 = CARTESIAN_POINT('', (3.1390023473847, 3.13900234738469, 38.3590755423579));
#290 = CARTESIAN_POINT('', (3.34479285805286, 3.34479285805285, 38.5109564407693));
#291 = CARTESIAN_POINT('', (3.55430479859646, 3.55430479859645, 38.6509994870108));
#292 = CARTESIAN_POINT('', (3.76356788537958, 3.76356788537957, 38.7908761931449));
#293 = CARTESIAN_POINT('', (3.9768748225855, 3.97687482258549, 38.9191674361369));
#294 = CARTESIAN_POINT('', (4.19305384435969, 4.19305384435969, 39.0361325291708));
#295 = CARTESIAN_POINT('', (4.4090156817525, 4.4090156817525, 39.1529801131552));
#296 = CARTESIAN_POINT('', (4.62813927167778, 4.62813927167778, 39.2586855655565));
#297 = CARTESIAN_POINT('', (4.84943427271223, 4.84943427271222, 39.3534981878042));
#298 = CARTESIAN_POINT('', (5.07053110718701, 5.070531107187, 39.4482259066827));
#299 = CARTESIAN_POINT('', (5.29406325880243, 5.29406325880241, 39.5321957364728));
#300 = CARTESIAN_POINT('', (5.51917367893216, 5.51917367893215, 39.605622970191));
#301 = CARTESIAN_POINT('', (6.0208417059342, 6.02084170593419, 39.7692586448363));
#302 = CARTESIAN_POINT('', (6.53218696745852, 6.53218696745854, 39.8811474718634));
#303 = CARTESIAN_POINT('', (7.04517593507079, 7.04517593507085, 39.9428150554468));
#304 = CARTESIAN_POINT('', (7.3625912208682, 7.36259122086828, 39.9809722769533));
#305 = CARTESIAN_POINT('', (7.68144003635986, 7.68144003635986, 40.));
#306 = CARTESIAN_POINT('', (8., 8., 40.));
#307 = ORIENTED_EDGE('', *, *, #308, .T.);
#308 = EDGE_CURVE('', #282, #55, #309, .T.);
#309 = B_SPLINE_CURVE_WITH_KNOTS('', 1, (#310, #311), .UNSPECIFIED., .F., .U., (2, 2), (0.316666666666667, 0.683333333333333), .UNSPECIFIED.);
#310 = CARTESIAN_POINT('', (8., 8., 40.));
#311 = CARTESIAN_POINT('', (8., 52., 40.));
#312 = ORIENTED_EDGE('', *, *, #54, .F.);
#313 = (
   BOUNDED_SURFACE ()
   B_SPLINE_SURFACE (2, 1, ((#314, #315), (#316, #317), (#318, #319)), .UNSPECIFIED., .F., .F., .U.)
   B_SPLINE_SURFACE_WITH_KNOTS ((3, 3), (2, 2), (0., 1.), (0.270833334355445, 0.729166665662602), .UNSPECIFIED.)
   GEOMETRIC_REPRESENTATION_ITEM ()
   RATIONAL_B_SPLINE_SURFACE (((1., 1.), (0.707106781186548, 0.707106781186548), (1., 1.)))
   REPRESENTATION_ITEM ('')
   SURFACE ()
);
#314 = CARTESIAN_POINT('', (5.32907051820075E-15, 2.50000012265335, 32.));
#315 = CARTESIAN_POINT('', (5.32907051820075E-15, 57.4999998795123, 32.));
#316 = CARTESIAN_POINT('', (5.32907051820075E-15, 2.50000012265335, 40.));
#317 = CARTESIAN_POINT('', (5.32907051820075E-15, 57.4999998795123, 40.));
#318 = CARTESIAN_POINT('', (8., 2.50000012265335, 40.));
#319 = CARTESIAN_POINT('', (8., 57.4999998795123, 40.));
#320 = ADVANCED_FACE('', (#321), #347, .T.);
#321 = FACE_OUTER_BOUND('', #322, .T.);
#322 = EDGE_LOOP('', (#323, #332, #339, #346));
#323 = ORIENTED_EDGE('', *, *, #324, .F.);
#324 = EDGE_CURVE('', #325, #185, #327, .T.);
#325 = VERTEX_POINT('', #326);
#326 = CARTESIAN_POINT('', (0., 55., 0.));
#327 = B_SPLINE_CURVE_WITH_KNOTS('', 3, (#328, #329, #330, #331), .UNSPECIFIED., .F., .U., (4, 4), (16., 48.), .UNSPECIFIED.);
#328 = CARTESIAN_POINT('', (0., 55., 0.));
#329 = CARTESIAN_POINT('', (0., 55., 10.6666666666667));
#330 = CARTESIAN_POINT('', (0., 55., 21.3333333333333));
#331 = CARTESIAN_POINT('', (0., 55., 32.));
#332 = ORIENTED_EDGE('', *, *, #333, .F.);
#333 = EDGE_CURVE('', #334, #325, #336, .T.);
#334 = VERTEX_POINT('', #335);
#335 = CARTESIAN_POINT('', (0., 5., 0.));
#336 = B_SPLINE_CURVE_WITH_KNOTS('', 1, (#337, #338), .UNSPECIFIED., .F., .U., (2, 2), (5., 55.), .UNSPECIFIED.);
#337 = CARTESIAN_POINT('', (0., 5., 0.));
#338 = CARTESIAN_POINT('', (0., 55., 0.));
#339 = ORIENTED_EDGE('', *, *, #340, .T.);
#340 = EDGE_CURVE('', #334, #230, #341, .T.);
#341 = B_SPLINE_CURVE_WITH_KNOTS('', 3, (#342, #343, #344, #345), .UNSPECIFIED., .F., .U., (4, 4), (16., 48.), .UNSPECIFIED.);
#342 = CARTESIAN_POINT('', (0., 5., 0.));
#343 = CARTESIAN_POINT('', (0., 5., 10.6666666666667));
#344 = CARTESIAN_POINT('', (0., 5., 21.3333333333333));
#345 = CARTESIAN_POINT('', (0., 5., 32.));
#346 = ORIENTED_EDGE('', *, *, #229, .T.);
#347 = B_SPLINE_SURFACE_WITH_KNOTS('', 1, 1, ((#348, #349), (#350, #351)), .UNSPECIFIED., .F., .F., .U., (2, 2), (2, 2), (0., 32.), (4.99999999999999, 55.), .UNSPECIFIED.);
#348 = CARTESIAN_POINT('', (0., 4.99999999999999, 0.));
#349 = CARTESIAN_POINT('', (0., 55., 0.));
#350 = CARTESIAN_POINT('', (0., 4.99999999999999, 32.));
#351 = CARTESIAN_POINT('', (0., 55., 32.));
#352 = ADVANCED_FACE('', (#353), #411, .T.);
#353 = FACE_OUTER_BOUND('', #354, .T.);
#354 = EDGE_LOOP('', (#355, #364, #371, #380, #387, #396, #403, #410));
#355 = ORIENTED_EDGE('', *, *, #356, .F.);
#356 = EDGE_CURVE('', #357, #325, #359, .T.);
#357 = VERTEX_POINT('', #358);
#358 = CARTESIAN_POINT('', (5., 60., 0.));
#359 = B_SPLINE_CURVE_WITH_KNOTS('', 3, (#360, #361, #362, #363), .UNSPECIFIED., .F., .U., (4, 4), (0., 7.07106781186548), .UNSPECIFIED.);
#360 = CARTESIAN_POINT('', (5., 60., 0.));
#361 = CARTESIAN_POINT('', (3.33333333333333, 58.3333333333333, 0.));
#362 = CARTESIAN_POINT('', (1.66666666666667, 56.6666666666667, 0.));
#363 = CARTESIAN_POINT('', (0., 55., 0.));
#364 = ORIENTED_EDGE('', *, *, #365, .T.);
#365 = EDGE_CURVE('', #357, #366, #368, .T.);
#366 = VERTEX_POINT('', #367);
#367 = CARTESIAN_POINT('', (75., 60., 0.));
#368 = B_SPLINE_CURVE_WITH_KNOTS('', 1, (#369, #370), .UNSPECIFIED., .F., .U., (2, 2), (5., 75.), .UNSPECIFIED.);
#369 = CARTESIAN_POINT('', (5., 60., 0.));
#370 = CARTESIAN_POINT('', (75., 60., 0.));
#371 = ORIENTED_EDGE('', *, *, #372, .F.);
#372 = EDGE_CURVE('', #373, #366, #375, .T.);
#373 = VERTEX_POINT('', #374);
#374 = CARTESIAN_POINT('', (80., 55., 0.));
#375 = B_SPLINE_CURVE_WITH_KNOTS('', 3, (#376, #377, #378, #379), .UNSPECIFIED., .F., .U., (4, 4), (0., 7.07106781186548), .UNSPECIFIED.);
#376 = CARTESIAN_POINT('', (80., 55., 0.));
#377 = CARTESIAN_POINT('', (78.3333333333333, 56.6666666666667, 0.));
#378 = CARTESIAN_POINT('', (76.6666666666667, 58.3333333333333, 0.));
#379 = CARTESIAN_POINT('', (75., 60., 0.));
#380 = ORIENTED_EDGE('', *, *, #381, .F.);
#381 = EDGE_CURVE('', #382, #373, #384, .T.);
#382 = VERTEX_POINT('', #383);
#383 = CARTESIAN_POINT('', (80., 5., 0.));
#384 = B_SPLINE_CURVE_WITH_KNOTS('', 1, (#385, #386), .UNSPECIFIED., .F., .U., (2, 2), (5., 55.), .UNSPECIFIED.);
#385 = CARTESIAN_POINT('', (80., 5., 0.));
#386 = CARTESIAN_POINT('', (80., 55., 0.));
#387 = ORIENTED_EDGE('', *, *, #388, .F.);
#388 = EDGE_CURVE('', #389, #382, #391, .T.);
#389 = VERTEX_POINT('', #390);
#390 = CARTESIAN_POINT('', (75., 0., 0.));
#391 = B_SPLINE_CURVE_WITH_KNOTS('', 3, (#392, #393, #394, #395), .UNSPECIFIED., .F., .U., (4, 4), (0., 7.07106781186548), .UNSPECIFIED.);
#392 = CARTESIAN_POINT('', (75., 0., 0.));
#393 = CARTESIAN_POINT('', (76.6666666666667, 1.66666666666667, 0.));
#394 = CARTESIAN_POINT('', (78.3333333333333, 3.33333333333333, 0.));
#395 = CARTESIAN_POINT('', (80., 5., 0.));
#396 = ORIENTED_EDGE('', *, *, #397, .F.);
#397 = EDGE_CURVE('', #398, #389, #400, .T.);
#398 = VERTEX_POINT('', #399);
#399 = CARTESIAN_POINT('', (5., 0., 0.));
#400 = B_SPLINE_CURVE_WITH_KNOTS('', 1, (#401, #402), .UNSPECIFIED., .F., .U., (2, 2), (5., 75.), .UNSPECIFIED.);
#401 = CARTESIAN_POINT('', (5., 0., 0.));
#402 = CARTESIAN_POINT('', (75., 0., 0.));
#403 = ORIENTED_EDGE('', *, *, #404, .F.);
#404 = EDGE_CURVE('', #334, #398, #405, .T.);
#405 = B_SPLINE_CURVE_WITH_KNOTS('', 3, (#406, #407, #408, #409), .UNSPECIFIED., .F., .U., (4, 4), (0., 7.07106781186548), .UNSPECIFIED.);
#406 = CARTESIAN_POINT('', (0., 5., 0.));
#407 = CARTESIAN_POINT('', (1.66666666666667, 3.33333333333333, 0.));
#408 = CARTESIAN_POINT('', (3.33333333333333, 1.66666666666667, 0.));
#409 = CARTESIAN_POINT('', (5., 0., 0.));
#410 = ORIENTED_EDGE('', *, *, #333, .T.);
#411 = B_SPLINE_SURFACE_WITH_KNOTS('', 1, 1, ((#412, #413), (#414, #415)), .UNSPECIFIED., .F., .F., .U., (2, 2), (2, 2), (0., 60.), (0., 80.), .UNSPECIFIED.);
#412 = CARTESIAN_POINT('', (0., 0., 0.));
#413 = CARTESIAN_POINT('', (80., 0., 0.));
#414 = CARTESIAN_POINT('', (0., 60., 0.));
#415 = CARTESIAN_POINT('', (80., 60., 0.));
#416 = ADVANCED_FACE('', (#417), #435, .T.);
#417 = FACE_OUTER_BOUND('', #418, .T.);
#418 = EDGE_LOOP('', (#419, #426, #427, #434));
#419 = ORIENTED_EDGE('', *, *, #420, .T.);
#420 = EDGE_CURVE('', #357, #10, #421, .T.);
#421 = B_SPLINE_CURVE_WITH_KNOTS('', 3, (#422, #423, #424, #425), .UNSPECIFIED., .F., .U., (4, 4), (16., 48.), .UNSPECIFIED.);
#422 = CARTESIAN_POINT('', (5., 60., 0.));
#423 = CARTESIAN_POINT('', (5., 60., 10.6666666666667));
#424 = CARTESIAN_POINT('', (5., 60., 21.3333333333333));
#425 = CARTESIAN_POINT('', (5., 60., 32.));
#426 = ORIENTED_EDGE('', *, *, #169, .T.);
#427 = ORIENTED_EDGE('', *, *, #428, .F.);
#428 = EDGE_CURVE('', #366, #125, #429, .T.);
#429 = B_SPLINE_CURVE_WITH_KNOTS('', 3, (#430, #431, #432, #433), .UNSPECIFIED., .F., .U., (4, 4), (16., 48.), .UNSPECIFIED.);
#430 = CARTESIAN_POINT('', (75., 60., 0.));
#431 = CARTESIAN_POINT('', (75., 60., 10.6666666666667));
#432 = CARTESIAN_POINT('', (75., 60., 21.3333333333333));
#433 = CARTESIAN_POINT('', (75., 60., 32.));
#434 = ORIENTED_EDGE('', *, *, #365, .F.);
#435 = B_SPLINE_SURFACE_WITH_KNOTS('', 1, 1, ((#436, #437), (#438, #439)), .UNSPECIFIED., .F., .F., .U., (2, 2), (2, 2), (0., 32.), (5., 75.), .UNSPECIFIED.);
#436 = CARTESIAN_POINT('', (5., 60., 0.));
#437 = CARTESIAN_POINT('', (75., 60., 0.));
#438 = CARTESIAN_POINT('', (5., 60., 32.));
#439 = CARTESIAN_POINT('', (75., 60., 32.));
#440 = ADVANCED_FACE('', (#441), #498, .T.);
#441 = FACE_OUTER_BOUND('', #442, .T.);
#442 = EDGE_LOOP('', (#443, #444, #489, #496, #497));
#443 = ORIENTED_EDGE('', *, *, #124, .F.);
#444 = ORIENTED_EDGE('', *, *, #445, .T.);
#445 = EDGE_CURVE('', #98, #446, #448, .T.);
#446 = VERTEX_POINT('', #447);
#447 = CARTESIAN_POINT('', (80., 55., 32.));
#448 = B_SPLINE_CURVE_WITH_KNOTS('', 3, (#449, #450, #451, #452, #453, #454, #455, #456, #457, #458, #459, #460, #461, #462, #463, #464, #465, #466, #467, #468, #469, #470, #471, #472, #473, #474, #475, #476, #477, #478, #479, #480, #481, #482, #483, #484, #485, #486, #487, #488), .UNSPECIFIED., .F., .U., (4, 3, 3, 3, 3, 3, 3, 3, 3, 3, 3, 3, 3, 4), (3.89835172249549, 4.07060488550111, 4.8097333002292, 5.54853329548455, 6.28694309328702, 7.02488555836175, 7.51675314590287, 8.00841734322309, 8.49985540348595, 8.99104519749907, 9.48196701474124, 9.97260577326178, 10.4629533736026, 10.9817257999795), .UNSPECIFIED.);
#449 = CARTESIAN_POINT('', (77.5000001204882, 57.4999998795118, 37.8094747091741));
#450 = CARTESIAN_POINT('', (77.5337452409726, 57.4662547590273, 37.7775273082313));
#451 = CARTESIAN_POINT('', (77.5673056649259, 57.4326943350741, 37.7451972212537));
#452 = CARTESIAN_POINT('', (77.6006720682105, 57.3993279317894, 37.7124839067053));
#453 = CARTESIAN_POINT('', (77.7438453855222, 57.2561546144778, 37.572112955596));
#454 = CARTESIAN_POINT('', (77.8836252332006, 57.1163747667993, 37.4245079938256));
#455 = CARTESIAN_POINT('', (78.0191550884513, 56.9808449115486, 37.2697032194586));
#456 = CARTESIAN_POINT('', (78.1546247232549, 56.845375276745, 37.1149672300299));
#457 = CARTESIAN_POINT('', (78.2860450571379, 56.7139549428619, 36.952808580313));
#458 = CARTESIAN_POINT('', (78.4124253433643, 56.5875746566355, 36.7833880477946));
#459 = CARTESIAN_POINT('', (78.5387388818022, 56.4612611181976, 36.6140569947844));
#460 = CARTESIAN_POINT('', (78.66023280889, 56.3397671911101, 36.437176152257));
#461 = CARTESIAN_POINT('', (78.7757747957471, 56.224225204253, 36.2531019171093));
#462 = CARTESIAN_POINT('', (78.8912436571499, 56.1087563428501, 36.0691441808417));
#463 = CARTESIAN_POINT('', (79.000999115699, 55.999000884301, 35.8776222954696));
#464 = CARTESIAN_POINT('', (79.1037769357728, 55.8962230642272, 35.6791783385401));
#465 = CARTESIAN_POINT('', (79.1722823827486, 55.8277176172514, 35.5469076603008));
#466 = CARTESIAN_POINT('', (79.2377759208228, 55.7622240791772, 35.41139663845));
#467 = CARTESIAN_POINT('', (79.2998582853377, 55.7001417146623, 35.2729297294606));
#468 = CARTESIAN_POINT('', (79.3619149784196, 55.6380850215803, 35.1345200773751));
#469 = CARTESIAN_POINT('', (79.4206360233627, 55.5793639766372, 34.9929914466814));
#470 = CARTESIAN_POINT('', (79.4756133547563, 55.5243866452436, 34.8487198827174));
#471 = CARTESIAN_POINT('', (79.5305653997614, 55.4694346002386, 34.7045146753177));
#472 = CARTESIAN_POINT('', (79.5818483132791, 55.4181516867208, 34.5573779230266));
#473 = CARTESIAN_POINT('', (79.6290596422719, 55.3709403577281, 34.4077892297001));
#474 = CARTESIAN_POINT('', (79.6762471208946, 55.3237528791054, 34.2582761060677));
#475 = CARTESIAN_POINT('', (79.7194340328419, 55.2805659671581, 34.1060958212465));
#476 = CARTESIAN_POINT('', (79.7582424693907, 55.2417575306093, 33.951838565595));
#477 = CARTESIAN_POINT('', (79.7970297333507, 55.2029702666493, 33.7976654675579));
#478 = CARTESIAN_POINT('', (79.831502832683, 55.1684971673169, 33.6411739463158));
#479 = CARTESIAN_POINT('', (79.8613307971154, 55.1386692028846, 33.4830637539656));
#480 = CARTESIAN_POINT('', (79.8911415631565, 55.1088584368435, 33.3250447257628));
#481 = CARTESIAN_POINT('', (79.9163613788209, 55.0836386211791, 33.1651416340958));
#482 = CARTESIAN_POINT('', (79.9367297176903, 55.0632702823097, 33.0041520743055));
#483 = CARTESIAN_POINT('', (79.9570859694419, 55.042914030558, 32.8432580500317));
#484 = CARTESIAN_POINT('', (79.9726314966829, 55.0273685033171, 32.6809926739658));
#485 = CARTESIAN_POINT('', (79.9831973436807, 55.0168026563193, 32.5182279149662));
#486 = CARTESIAN_POINT('', (79.9943756793755, 55.0056243206245, 32.3460278901344));
#487 = CARTESIAN_POINT('', (80., 55., 32.1729241421256));
#488 = CARTESIAN_POINT('', (80., 55., 32.));
#489 = ORIENTED_EDGE('', *, *, #490, .F.);
#490 = EDGE_CURVE('', #373, #446, #491, .T.);
#491 = B_SPLINE_CURVE_WITH_KNOTS('', 3, (#492, #493, #494, #495), .UNSPECIFIED., .F., .U., (4, 4), (16., 48.), .UNSPECIFIED.);
#492 = CARTESIAN_POINT('', (80., 55., 0.));
#493 = CARTESIAN_POINT('', (80., 55., 10.6666666666667));
#494 = CARTESIAN_POINT('', (80., 55., 21.3333333333333));
#495 = CARTESIAN_POINT('', (80., 55., 32.));
#496 = ORIENTED_EDGE('', *, *, #372, .T.);
#497 = ORIENTED_EDGE('', *, *, #428, .T.);
#498 = B_SPLINE_SURFACE_WITH_KNOTS('', 1, 1, ((#499, #500), (#501, #502)), .UNSPECIFIED., .F., .F., .U., (2, 2), (2, 2), (16., 53.8094744546377), (0., 1.), .UNSPECIFIED.);
#499 = CARTESIAN_POINT('', (75., 60., 0.));
#500 = CARTESIAN_POINT('', (80., 55., 0.));
#501 = CARTESIAN_POINT('', (75., 60., 37.8094744546377));
#502 = CARTESIAN_POINT('', (80., 55., 37.8094744546377));
#503 = ADVANCED_FACE('', (#504), #604, .T.);
#504 = FACE_OUTER_BOUND('', #505, .T.);
#505 = EDGE_LOOP('', (#506, #507, #508, #515, #551, #599));
#506 = ORIENTED_EDGE('', *, *, #445, .F.);
#507 = ORIENTED_EDGE('', *, *, #97, .T.);
#508 = ORIENTED_EDGE('', *, *, #509, .F.);
#509 = EDGE_CURVE('', #510, #91, #512, .T.);
#510 = VERTEX_POINT('', #511);
#511 = CARTESIAN_POINT('', (72., 8., 40.));
#512 = B_SPLINE_CURVE_WITH_KNOTS('', 1, (#513, #514), .UNSPECIFIED., .F., .U., (2, 2), (0.316666666666667, 0.683333333333333), .UNSPECIFIED.);
#513 = CARTESIAN_POINT('', (72., 8., 40.));
#514 = CARTESIAN_POINT('', (72., 52., 40.));
#515 = ORIENTED_EDGE('', *, *, #516, .F.);
#516 = EDGE_CURVE('', #517, #510, #519, .T.);
#517 = VERTEX_POINT('', #518);
#518 = CARTESIAN_POINT('', (77.4999998795123, 2.50000012048777, 37.8094744546377));
#519 = B_SPLINE_CURVE_WITH_KNOTS('', 3, (#520, #521, #522, #523, #524, #525, #526, #527, #528, #529, #530, #531, #532, #533, #534, #535, #536, #537, #538, #539, #540, #541, #542, #543, #544, #545, #546, #547, #548, #549, #550), .UNSPECIFIED., .F., .U., (4, 3, 3, 3, 3, 3, 3, 3, 3, 3, 4), (7.08336443718726, 7.813302871399, 8.79647277093393, 9.77847488248478, 10.7594904250366, 11.7396274819737, 13.9239040839268, 14.9013384554243, 15.1925152184264, 15.2501500746677, 15.275686759415), .UNSPECIFIED.);
#520 = CARTESIAN_POINT('', (77.4999998795122, 2.50000012048777, 37.8094744546377));
#521 = CARTESIAN_POINT('', (77.3569768901963, 2.64302310980366, 37.9448776164843));
#522 = CARTESIAN_POINT('', (77.2106265489197, 2.78937345108028, 38.0734157620454));
#523 = CARTESIAN_POINT('', (77.0616531512097, 2.93834684879032, 38.1951325552283));
#524 = CARTESIAN_POINT('', (76.8609976526153, 3.13900234738469, 38.3590755423579));
#525 = CARTESIAN_POINT('', (76.6552071419471, 3.34479285805286, 38.5109564407693));
#526 = CARTESIAN_POINT('', (76.4456952014035, 3.55430479859646, 38.6509994870108));
#527 = CARTESIAN_POINT('', (76.2364321146204, 3.76356788537958, 38.7908761931449));
#528 = CARTESIAN_POINT('', (76.0231251774145, 3.9768748225855, 38.9191674361369));
#529 = CARTESIAN_POINT('', (75.8069461556403, 4.1930538443597, 39.0361325291708));
#530 = CARTESIAN_POINT('', (75.5909843182475, 4.40901568175251, 39.1529801131552));
#531 = CARTESIAN_POINT('', (75.3718607283222, 4.6281392716778, 39.2586855655565));
#532 = CARTESIAN_POINT('', (75.1505657272878, 4.84943427271224, 39.3534981878042));
#533 = CARTESIAN_POINT('', (74.929468892813, 5.07053110718702, 39.4482259066827));
#534 = CARTESIAN_POINT('', (74.7059367411976, 5.29406325880243, 39.5321957364728));
#535 = CARTESIAN_POINT('', (74.4808263210678, 5.51917367893216, 39.605622970191));
#536 = CARTESIAN_POINT('', (73.9791582940658, 6.0208417059342, 39.7692586448363));
#537 = CARTESIAN_POINT('', (73.4678130325415, 6.53218696745854, 39.8811474718634));
#538 = CARTESIAN_POINT('', (72.9548240649292, 7.04517593507083, 39.9428150554468));
#539 = CARTESIAN_POINT('', (72.7252684085187, 7.27473159148126, 39.9704104688426));
#540 = CARTESIAN_POINT('', (72.4950033338922, 7.50499666610776, 39.9879958261164));
#541 = CARTESIAN_POINT('', (72.2646829331379, 7.73531706686208, 39.9956202351603));
#542 = CARTESIAN_POINT('', (72.196070706373, 7.80392929362697, 39.9978915393113));
#543 = CARTESIAN_POINT('', (72.1274410136544, 7.87255898634546, 39.9992792883104));
#544 = CARTESIAN_POINT('', (72.0588109197211, 7.94118908027981, 39.9997838268119));
#545 = CARTESIAN_POINT('', (72.0452264373714, 7.9547735626298, 39.9998836939981));
#546 = CARTESIAN_POINT('', (72.0316418057954, 7.96835819420503, 39.9999489585711));
#547 = CARTESIAN_POINT('', (72.0180571572049, 7.98194284279676, 39.9999796211661));
#548 = CARTESIAN_POINT('', (72.0120381105535, 7.98796188944861, 39.9999932070597));
#549 = CARTESIAN_POINT('', (72.0060190543179, 7.99398094568207, 40.));
#550 = CARTESIAN_POINT('', (72., 8., 40.));
#551 = ORIENTED_EDGE('', *, *, #552, .F.);
#552 = EDGE_CURVE('', #553, #517, #555, .T.);
#553 = VERTEX_POINT('', #554);
#554 = CARTESIAN_POINT('', (80., 5., 32.));
#555 = B_SPLINE_CURVE_WITH_KNOTS('', 3, (#556, #557, #558, #559, #560, #561, #562, #563, #564, #565, #566, #567, #568, #569, #570, #571, #572, #573, #574, #575, #576, #577, #578, #579, #580, #581, #582, #583, #584, #585, #586, #587, #588, #589, #590, #591, #592, #593, #594, #595, #596, #597, #598), .UNSPECIFIED., .F., .U., (4, 3, 3, 3, 3, 3, 3, 3, 3, 3, 3, 3, 3, 3, 4), (0., 0.493098300162755, 0.988843825713848, 1.48426304980382, 1.97934561265985, 2.47409415648226, 2.96852214771275, 3.46265082518087, 3.95650603828937, 4.45011550787472, 4.94350675718399, 5.43670573602525, 6.17660043215601, 6.91599802266984, 7.08365393175694), .UNSPECIFIED.);
#556 = CARTESIAN_POINT('', (80., 5., 32.));
#557 = CARTESIAN_POINT('', (80., 5., 32.1643661000543));
#558 = CARTESIAN_POINT('', (79.9949201215712, 4.99492012157118, 32.3288866177687));
#559 = CARTESIAN_POINT('', (79.9848177853761, 4.98481778537614, 32.4926306266785));
#560 = CARTESIAN_POINT('', (79.9746612142327, 4.9746612142327, 32.6572537043205));
#561 = CARTESIAN_POINT('', (79.959409614736, 4.95940961473597, 32.8214003573508));
#562 = CARTESIAN_POINT('', (79.9392327130902, 4.93923271309023, 32.9841666156694));
#563 = CARTESIAN_POINT('', (79.9190690919526, 4.91906909195264, 33.1468257406603));
#564 = CARTESIAN_POINT('', (79.8939512667247, 4.89395126672466, 33.3084021102869));
#565 = CARTESIAN_POINT('', (79.864144379082, 4.86414437908204, 33.4680712465521));
#566 = CARTESIAN_POINT('', (79.8343577466558, 4.83435774665577, 33.6276318799457));
#567 = CARTESIAN_POINT('', (79.7998387099479, 4.7998387099479, 33.7855631914584));
#568 = CARTESIAN_POINT('', (79.7609250776403, 4.76092507764035, 33.9411444921112));
#569 = CARTESIAN_POINT('', (79.7220376993252, 4.72203769932523, 34.0966208261997));
#570 = CARTESIAN_POINT('', (79.6787009708217, 4.67870097082175, 34.2500004291132));
#571 = CARTESIAN_POINT('', (79.6313003744302, 4.63130037443022, 34.4006779449193));
#572 = CARTESIAN_POINT('', (79.5839304893651, 4.58393048936512, 34.551257835237));
#573 = CARTESIAN_POINT('', (79.5324338826931, 4.53243388269313, 34.6993616595381));
#574 = CARTESIAN_POINT('', (79.4772202135267, 4.47722021352673, 34.8444995831302));
#575 = CARTESIAN_POINT('', (79.4220399692702, 4.42203996927021, 34.9895496440228));
#576 = CARTESIAN_POINT('', (79.3630748883748, 4.36307488837479, 35.1318320024972));
#577 = CARTESIAN_POINT('', (79.3007392228425, 4.30073922284254, 35.2709642003619));
#578 = CARTESIAN_POINT('', (79.2384380555769, 4.2384380555769, 35.4100193986533));
#579 = CARTESIAN_POINT('', (79.1726963575527, 4.17269635755274, 35.5460958474542));
#580 = CARTESIAN_POINT('', (79.1039182936399, 4.10391829363988, 35.6789053911849));
#581 = CARTESIAN_POINT('', (79.0351744538544, 4.03517445385444, 35.8116488485722));
#582 = CARTESIAN_POINT('', (78.963324302092, 3.96332430209202, 35.941272116738));
#583 = CARTESIAN_POINT('', (78.8887520403924, 3.88875204039242, 36.0675662657159));
#584 = CARTESIAN_POINT('', (78.8142127464143, 3.81421274641435, 36.1938045811943));
#585 = CARTESIAN_POINT('', (78.7368829720257, 3.73688297202574, 36.3168384495896));
#586 = CARTESIAN_POINT('', (78.6571211618441, 3.65712116184413, 36.43652316984));
#587 = CARTESIAN_POINT('', (78.5773904341768, 3.57739043417683, 36.55616124995));
#588 = CARTESIAN_POINT('', (78.4951619170279, 3.49516191702794, 36.672555637666));
#589 = CARTESIAN_POINT('', (78.4107656340132, 3.41076563401321, 36.7856121850559));
#590 = CARTESIAN_POINT('', (78.2841547429638, 3.28415474296382, 36.9552190645615));
#591 = CARTESIAN_POINT('', (78.1524924924257, 3.15249249242577, 37.1175427272157));
#592 = CARTESIAN_POINT('', (78.0167733161499, 3.01677331614994, 37.2724224851645));
#593 = CARTESIAN_POINT('', (77.8811453241536, 2.88114532415372, 37.4271981856062));
#594 = CARTESIAN_POINT('', (77.7412685177906, 2.74126851779066, 37.5747695235014));
#595 = CARTESIAN_POINT('', (77.5979995806825, 2.59799958068249, 37.7151028595013));
#596 = CARTESIAN_POINT('', (77.5655138325505, 2.56551383255052, 37.746922969986));
#597 = CARTESIAN_POINT('', (77.5328444833281, 2.53284448332812, 37.7783800876451));
#598 = CARTESIAN_POINT('', (77.5000001226538, 2.5000001226538, 37.8094747157992));
#599 = ORIENTED_EDGE('', *, *, #600, .T.);
#600 = EDGE_CURVE('', #553, #446, #601, .T.);
#601 = B_SPLINE_CURVE_WITH_KNOTS('', 1, (#602, #603), .UNSPECIFIED., .F., .U., (2, 2), (0.291666666666667, 0.708333333333333), .UNSPECIFIED.);
#602 = CARTESIAN_POINT('', (80., 4.99999999999999, 32.));
#603 = CARTESIAN_POINT('', (80., 55., 32.));
#604 = (
   BOUNDED_SURFACE ()
   B_SPLINE_SURFACE (2, 1, ((#605, #606), (#607, #608), (#609, #610)), .UNSPECIFIED., .F., .F., .U.)
   B_SPLINE_SURFACE_WITH_KNOTS ((3, 3), (2, 2), (0., 1.), (0.270833334337398, 0.729166665662602), .UNSPECIFIED.)
   GEOMETRIC_REPRESENTATION_ITEM ()
   RATIONAL_B_SPLINE_SURFACE (((1., 1.), (0.707106781186547, 0.707106781186547), (1., 1.)))
   REPRESENTATION_ITEM ('')
   SURFACE ()
);
#605 = CARTESIAN_POINT('', (72., 2.50000012048776, 40.));
#606 = CARTESIAN_POINT('', (72., 57.4999998795122, 40.));
#607 = CARTESIAN_POINT('', (80., 2.50000012048776, 40.));
#608 = CARTESIAN_POINT('', (80., 57.4999998795122, 40.));
#609 = CARTESIAN_POINT('', (80., 2.50000012048776, 32.));
#610 = CARTESIAN_POINT('', (80., 57.4999998795122, 32.));
#611 = ADVANCED_FACE('', (#612), #622, .T.);
#612 = FACE_OUTER_BOUND('', #613, .T.);
#613 = EDGE_LOOP('', (#614, #615, #620, #621));
#614 = ORIENTED_EDGE('', *, *, #308, .F.);
#615 = ORIENTED_EDGE('', *, *, #616, .T.);
#616 = EDGE_CURVE('', #282, #510, #617, .T.);
#617 = B_SPLINE_CURVE_WITH_KNOTS('', 1, (#618, #619), .UNSPECIFIED., .F., .U., (2, 2), (0.3, 0.7), .UNSPECIFIED.);
#618 = CARTESIAN_POINT('', (8.00000000000001, 8., 40.));
#619 = CARTESIAN_POINT('', (72., 8., 40.));
#620 = ORIENTED_EDGE('', *, *, #509, .T.);
#621 = ORIENTED_EDGE('', *, *, #90, .F.);
#622 = B_SPLINE_SURFACE_WITH_KNOTS('', 1, 1, ((#623, #624), (#625, #626)), .UNSPECIFIED., .F., .F., .U., (2, 2), (2, 2), (8., 72.), (8., 52.), .UNSPECIFIED.);
#623 = CARTESIAN_POINT('', (8., 8., 40.));
#624 = CARTESIAN_POINT('', (8., 52., 40.));
#625 = CARTESIAN_POINT('', (72., 8., 40.));
#626 = CARTESIAN_POINT('', (72., 52., 40.));
#627 = ADVANCED_FACE('', (#628), #731, .T.);
#628 = FACE_OUTER_BOUND('', #629, .T.);
#629 = EDGE_LOOP('', (#630, #675, #676, #677, #678, #726));
#630 = ORIENTED_EDGE('', *, *, #631, .F.);
#631 = EDGE_CURVE('', #517, #632, #634, .T.);
#632 = VERTEX_POINT('', #633);
#633 = CARTESIAN_POINT('', (75., 0., 32.));
#634 = B_SPLINE_CURVE_WITH_KNOTS('', 3, (#635, #636, #637, #638, #639, #640, #641, #642, #643, #644, #645, #646, #647, #648, #649, #650, #651, #652, #653, #654, #655, #656, #657, #658, #659, #660, #661, #662, #663, #664, #665, #666, #667, #668, #669, #670, #671, #672, #673, #674), .UNSPECIFIED., .F., .U., (4, 3, 3, 3, 3, 3, 3, 3, 3, 3, 3, 3, 3, 4), (3.89835172249546, 4.07060488550118, 4.80973330022925, 5.54853329548461, 6.28694309328705, 7.02488555836179, 7.51675314590292, 8.00841734322315, 8.49985540348599, 8.99104519749913, 9.4819670147413, 9.97260577326186, 10.4629533736027, 10.9817257999794), .UNSPECIFIED.);
#635 = CARTESIAN_POINT('', (77.4999998795118, 2.49999987951185, 37.8094747091741));
#636 = CARTESIAN_POINT('', (77.4662547590273, 2.46625475902735, 37.7775273082313));
#637 = CARTESIAN_POINT('', (77.432694335074, 2.43269433507409, 37.7451972212537));
#638 = CARTESIAN_POINT('', (77.3993279317894, 2.39932793178944, 37.7124839067053));
#639 = CARTESIAN_POINT('', (77.2561546144777, 2.25615461447776, 37.572112955596));
#640 = CARTESIAN_POINT('', (77.1163747667993, 2.11637476679935, 37.4245079938256));
#641 = CARTESIAN_POINT('', (76.9808449115486, 1.98084491154863, 37.2697032194586));
#642 = CARTESIAN_POINT('', (76.8453752767449, 1.84537527674502, 37.1149672300298));
#643 = CARTESIAN_POINT('', (76.7139549428618, 1.71395494286207, 36.9528085803129));
#644 = CARTESIAN_POINT('', (76.5875746566355, 1.58757465663569, 36.7833880477945));
#645 = CARTESIAN_POINT('', (76.4612611181975, 1.46126111819776, 36.6140569947843));
#646 = CARTESIAN_POINT('', (76.33976719111, 1.33976719111003, 36.4371761522569));
#647 = CARTESIAN_POINT('', (76.2242252042529, 1.22422520425294, 36.2531019171093));
#648 = CARTESIAN_POINT('', (76.1087563428501, 1.10875634285008, 36.0691441808416));
#649 = CARTESIAN_POINT('', (75.999000884301, 0.999000884300992, 35.8776222954696));
#650 = CARTESIAN_POINT('', (75.8962230642272, 0.896223064227213, 35.6791783385401));
#651 = CARTESIAN_POINT('', (75.8277176172514, 0.827717617251335, 35.5469076603008));
#652 = CARTESIAN_POINT('', (75.7622240791772, 0.762224079177214, 35.4113966384499));
#653 = CARTESIAN_POINT('', (75.7001417146622, 0.700141714662253, 35.2729297294605));
#654 = CARTESIAN_POINT('', (75.6380850215803, 0.638085021580321, 35.1345200773751));
#655 = CARTESIAN_POINT('', (75.5793639766372, 0.579363976637265, 34.9929914466814));
#656 = CARTESIAN_POINT('', (75.5243866452436, 0.524386645243646, 34.8487198827174));
#657 = CARTESIAN_POINT('', (75.4694346002386, 0.469434600238606, 34.7045146753177));
#658 = CARTESIAN_POINT('', (75.4181516867208, 0.418151686720859, 34.5573779230265));
#659 = CARTESIAN_POINT('', (75.3709403577281, 0.370940357728124, 34.4077892297));
#660 = CARTESIAN_POINT('', (75.3237528791054, 0.323752879105436, 34.2582761060676));
#661 = CARTESIAN_POINT('', (75.2805659671581, 0.28056596715811, 34.1060958212464));
#662 = CARTESIAN_POINT('', (75.2417575306093, 0.241757530609327, 33.9518385655949));
#663 = CARTESIAN_POINT('', (75.2029702666493, 0.202970266649306, 33.7976654675578));
#664 = CARTESIAN_POINT('', (75.1684971673169, 0.168497167316969, 33.6411739463157));
#665 = CARTESIAN_POINT('', (75.1386692028846, 0.138669202884643, 33.4830637539655));
#666 = CARTESIAN_POINT('', (75.1088584368435, 0.108858436843555, 33.3250447257627));
#667 = CARTESIAN_POINT('', (75.0836386211791, 0.083638621179107, 33.1651416340957));
#668 = CARTESIAN_POINT('', (75.0632702823096, 0.0632702823096863, 33.0041520743054));
#669 = CARTESIAN_POINT('', (75.042914030558, 0.0429140305580616, 32.8432580500316));
#670 = CARTESIAN_POINT('', (75.0273685033171, 0.0273685033171004, 32.6809926739657));
#671 = CARTESIAN_POINT('', (75.0168026563193, 0.016802656319329, 32.5182279149661));
#672 = CARTESIAN_POINT('', (75.0056243206245, 0.00562432062450818, 32.3460278901343));
#673 = CARTESIAN_POINT('', (75., 4.91616750810476E-15, 32.1729241421256));
#674 = CARTESIAN_POINT('', (75., 5.21804821573824E-15, 32.));
#675 = ORIENTED_EDGE('', *, *, #516, .T.);
#676 = ORIENTED_EDGE('', *, *, #616, .F.);
#677 = ORIENTED_EDGE('', *, *, #281, .F.);
#678 = ORIENTED_EDGE('', *, *, #679, .F.);
#679 = EDGE_CURVE('', #680, #237, #682, .T.);
#680 = VERTEX_POINT('', #681);
#681 = CARTESIAN_POINT('', (5., 0., 32.));
#682 = B_SPLINE_CURVE_WITH_KNOTS('', 3, (#683, #684, #685, #686, #687, #688, #689, #690, #691, #692, #693, #694, #695, #696, #697, #698, #699, #700, #701, #702, #703, #704, #705, #706, #707, #708, #709, #710, #711, #712, #713, #714, #715, #716, #717, #718, #719, #720, #721, #722, #723, #724, #725), .UNSPECIFIED., .F., .U., (4, 3, 3, 3, 3, 3, 3, 3, 3, 3, 3, 3, 3, 3, 4), (0., 0.493098300162764, 0.988843825713842, 1.48426304980381, 1.97934561265984, 2.47409415648223, 2.96852214771273, 3.46265082518086, 3.95650603828936, 4.45011550787472, 4.94350675718398, 5.43670573602525, 6.176600432156, 6.91599802266983, 7.08365393175691), .UNSPECIFIED.);
#683 = CARTESIAN_POINT('', (4.99999999999999, 5.32907051158331E-15, 32.));
#684 = CARTESIAN_POINT('', (4.99999999999999, 5.04212992604438E-15, 32.1643661000543));
#685 = CARTESIAN_POINT('', (4.99492012157116, 0.00507987842884931, 32.3288866177687));
#686 = CARTESIAN_POINT('', (4.98481778537611, 0.0151822146238981, 32.4926306266785));
#687 = CARTESIAN_POINT('', (4.97466121423268, 0.0253387857673295, 32.6572537043205));
#688 = CARTESIAN_POINT('', (4.95940961473595, 0.0405903852640496, 32.8214003573508));
#689 = CARTESIAN_POINT('', (4.93923271309021, 0.0607672869097883, 32.9841666156694));
#690 = CARTESIAN_POINT('', (4.91906909195261, 0.0809309080473865, 33.1468257406602));
#691 = CARTESIAN_POINT('', (4.89395126672464, 0.106048733275365, 33.3084021102869));
#692 = CARTESIAN_POINT('', (4.86414437908201, 0.135855620917991, 33.468071246552));
#693 = CARTESIAN_POINT('', (4.83435774665575, 0.165642253344256, 33.6276318799457));
#694 = CARTESIAN_POINT('', (4.79983870994788, 0.200161290052124, 33.7855631914584));
#695 = CARTESIAN_POINT('', (4.76092507764033, 0.239074922359677, 33.9411444921112));
#696 = CARTESIAN_POINT('', (4.72203769932521, 0.277962300674798, 34.0966208261997));
#697 = CARTESIAN_POINT('', (4.67870097082172, 0.32129902917829, 34.2500004291132));
#698 = CARTESIAN_POINT('', (4.63130037443019, 0.368699625569824, 34.4006779449193));
#699 = CARTESIAN_POINT('', (4.58393048936509, 0.416069510634926, 34.551257835237));
#700 = CARTESIAN_POINT('', (4.53243388269314, 0.467566117306877, 34.6993616595381));
#701 = CARTESIAN_POINT('', (4.47722021352674, 0.522779786473278, 34.8444995831302));
#702 = CARTESIAN_POINT('', (4.42203996927023, 0.577960030729791, 34.9895496440228));
#703 = CARTESIAN_POINT('', (4.36307488837477, 0.636925111625243, 35.1318320024972));
#704 = CARTESIAN_POINT('', (4.30073922284252, 0.699260777157497, 35.2709642003619));
#705 = CARTESIAN_POINT('', (4.23843805557688, 0.761561944423137, 35.4100193986532));
#706 = CARTESIAN_POINT('', (4.17269635755273, 0.827303642447283, 35.5460958474542));
#707 = CARTESIAN_POINT('', (4.10391829363987, 0.896081706360141, 35.6789053911849));
#708 = CARTESIAN_POINT('', (4.03517445385443, 0.964825546145579, 35.8116488485722));
#709 = CARTESIAN_POINT('', (3.96332430209199, 1.03667569790802, 35.941272116738));
#710 = CARTESIAN_POINT('', (3.88875204039239, 1.11124795960762, 36.0675662657159));
#711 = CARTESIAN_POINT('', (3.81421274641432, 1.18578725358569, 36.1938045811943));
#712 = CARTESIAN_POINT('', (3.73688297202573, 1.26311702797428, 36.3168384495896));
#713 = CARTESIAN_POINT('', (3.65712116184412, 1.34287883815589, 36.43652316984));
#714 = CARTESIAN_POINT('', (3.57739043417682, 1.42260956582319, 36.55616124995));
#715 = CARTESIAN_POINT('', (3.49516191702793, 1.50483808297207, 36.672555637666));
#716 = CARTESIAN_POINT('', (3.41076563401321, 1.5892343659868, 36.7856121850559));
#717 = CARTESIAN_POINT('', (3.28415474296381, 1.7158452570362, 36.9552190645615));
#718 = CARTESIAN_POINT('', (3.15249249242576, 1.8475075075743, 37.1175427272157));
#719 = CARTESIAN_POINT('', (3.01677331614993, 1.98322668385013, 37.2724224851645));
#720 = CARTESIAN_POINT('', (2.88114532415371, 2.11885467584636, 37.4271981856062));
#721 = CARTESIAN_POINT('', (2.74126851779065, 2.25873148220937, 37.5747695235014));
#722 = CARTESIAN_POINT('', (2.59799958068247, 2.40200041931755, 37.7151028595013));
#723 = CARTESIAN_POINT('', (2.56551383255051, 2.43448616744951, 37.746922969986));
#724 = CARTESIAN_POINT('', (2.53284448332812, 2.4671555166719, 37.7783800876452));
#725 = CARTESIAN_POINT('', (2.5000001226538, 2.49999987734622, 37.8094747157993));
#726 = ORIENTED_EDGE('', *, *, #727, .T.);
#727 = EDGE_CURVE('', #680, #632, #728, .T.);
#728 = B_SPLINE_CURVE_WITH_KNOTS('', 1, (#729, #730), .UNSPECIFIED., .F., .U., (2, 2), (0.28125, 0.71875), .UNSPECIFIED.);
#729 = CARTESIAN_POINT('', (5., 0., 32.));
#730 = CARTESIAN_POINT('', (75., 0., 32.));
#731 = (
   BOUNDED_SURFACE ()
   B_SPLINE_SURFACE (2, 1, ((#732, #733), (#734, #735), (#736, #737)), .UNSPECIFIED., .F., .F., .U.)
   B_SPLINE_SURFACE_WITH_KNOTS ((3, 3), (2, 2), (0., 1.), (0.265625000766583, 0.734374999246952), .UNSPECIFIED.)
   GEOMETRIC_REPRESENTATION_ITEM ()
   RATIONAL_B_SPLINE_SURFACE (((1., 1.), (0.707106781186546, 0.707106781186546), (1., 1.)))
   REPRESENTATION_ITEM ('')
   SURFACE ()
);
#732 = CARTESIAN_POINT('', (2.50000012265335, 8., 40.));
#733 = CARTESIAN_POINT('', (77.4999998795123, 8., 40.));
#734 = CARTESIAN_POINT('', (2.50000012265335, -1.7518639034173E-14, 40.));
#735 = CARTESIAN_POINT('', (77.4999998795123, -1.7518639034173E-14, 40.));
#736 = CARTESIAN_POINT('', (2.50000012265335, 5.32907051820075E-15, 32.));
#737 = CARTESIAN_POINT('', (77.4999998795123, 5.32907051820075E-15, 32.));
#738 = ADVANCED_FACE('', (#739), #752, .T.);
#739 = FACE_OUTER_BOUND('', #740, .T.);
#740 = EDGE_LOOP('', (#741, #742, #743, #744, #751));
#741 = ORIENTED_EDGE('', *, *, #236, .T.);
#742 = ORIENTED_EDGE('', *, *, #340, .F.);
#743 = ORIENTED_EDGE('', *, *, #404, .T.);
#744 = ORIENTED_EDGE('', *, *, #745, .T.);
#745 = EDGE_CURVE('', #398, #680, #746, .T.);
#746 = B_SPLINE_CURVE_WITH_KNOTS('', 3, (#747, #748, #749, #750), .UNSPECIFIED., .F., .U., (4, 4), (16., 48.), .UNSPECIFIED.);
#747 = CARTESIAN_POINT('', (5., 0., 0.));
#748 = CARTESIAN_POINT('', (5., 0., 10.6666666666667));
#749 = CARTESIAN_POINT('', (5., 0., 21.3333333333333));
#750 = CARTESIAN_POINT('', (5., 0., 32.));
#751 = ORIENTED_EDGE('', *, *, #679, .T.);
#752 = B_SPLINE_SURFACE_WITH_KNOTS('', 1, 1, ((#753, #754), (#755, #756)), .UNSPECIFIED., .F., .F., .U., (2, 2), (2, 2), (16., 53.8094744566879), (0., 1.), .UNSPECIFIED.);
#753 = CARTESIAN_POINT('', (5., 0., 0.));
#754 = CARTESIAN_POINT('', (0., 5., 0.));
#755 = CARTESIAN_POINT('', (5., 0., 37.8094744566879));
#756 = CARTESIAN_POINT('', (-1.77635683940025E-15, 5., 37.8094744566879));
#757 = ADVANCED_FACE('', (#758), #770, .T.);
#758 = FACE_OUTER_BOUND('', #759, .T.);
#759 = EDGE_LOOP('', (#760, #767, #768, #769));
#760 = ORIENTED_EDGE('', *, *, #761, .T.);
#761 = EDGE_CURVE('', #389, #632, #762, .T.);
#762 = B_SPLINE_CURVE_WITH_KNOTS('', 3, (#763, #764, #765, #766), .UNSPECIFIED., .F., .U., (4, 4), (16., 48.), .UNSPECIFIED.);
#763 = CARTESIAN_POINT('', (75., 0., 0.));
#764 = CARTESIAN_POINT('', (75., 0., 10.6666666666667));
#765 = CARTESIAN_POINT('', (75., 0., 21.3333333333333));
#766 = CARTESIAN_POINT('', (75., 0., 32.));
#767 = ORIENTED_EDGE('', *, *, #727, .F.);
#768 = ORIENTED_EDGE('', *, *, #745, .F.);
#769 = ORIENTED_EDGE('', *, *, #397, .T.);
#770 = B_SPLINE_SURFACE_WITH_KNOTS('', 1, 1, ((#771, #772), (#773, #774)), .UNSPECIFIED., .F., .F., .U., (2, 2), (2, 2), (5., 75.), (0., 32.), .UNSPECIFIED.);
#771 = CARTESIAN_POINT('', (5., 0., 0.));
#772 = CARTESIAN_POINT('', (5., 0., 32.));
#773 = CARTESIAN_POINT('', (75., 0., 0.));
#774 = CARTESIAN_POINT('', (75., 0., 32.));
#775 = ADVANCED_FACE('', (#776), #789, .T.);
#776 = FACE_OUTER_BOUND('', #777, .T.);
#777 = EDGE_LOOP('', (#778, #779, #780, #781, #782));
#778 = ORIENTED_EDGE('', *, *, #552, .T.);
#779 = ORIENTED_EDGE('', *, *, #631, .T.);
#780 = ORIENTED_EDGE('', *, *, #761, .F.);
#781 = ORIENTED_EDGE('', *, *, #388, .T.);
#782 = ORIENTED_EDGE('', *, *, #783, .T.);
#783 = EDGE_CURVE('', #382, #553, #784, .T.);
#784 = B_SPLINE_CURVE_WITH_KNOTS('', 3, (#785, #786, #787, #788), .UNSPECIFIED., .F., .U., (4, 4), (16., 48.), .UNSPECIFIED.);
#785 = CARTESIAN_POINT('', (80., 5., 0.));
#786 = CARTESIAN_POINT('', (80., 5., 10.6666666666667));
#787 = CARTESIAN_POINT('', (80., 5., 21.3333333333333));
#788 = CARTESIAN_POINT('', (80., 5., 32.));
#789 = B_SPLINE_SURFACE_WITH_KNOTS('', 1, 1, ((#790, #791), (#792, #793)), .UNSPECIFIED., .F., .F., .U., (2, 2), (2, 2), (16., 53.8094744546377), (0., 1.), .UNSPECIFIED.);
#790 = CARTESIAN_POINT('', (80., 5., 0.));
#791 = CARTESIAN_POINT('', (75., 0., 0.));
#792 = CARTESIAN_POINT('', (80., 5., 37.8094744546377));
#793 = CARTESIAN_POINT('', (75., 0., 37.8094744546377));
#794 = ADVANCED_FACE('', (#795), #801, .T.);
#795 = FACE_OUTER_BOUND('', #796, .T.);
#796 = EDGE_LOOP('', (#797, #798, #799, #800));
#797 = ORIENTED_EDGE('', *, *, #490, .T.);
#798 = ORIENTED_EDGE('', *, *, #600, .F.);
#799 = ORIENTED_EDGE('', *, *, #783, .F.);
#800 = ORIENTED_EDGE('', *, *, #381, .T.);
#801 = B_SPLINE_SURFACE_WITH_KNOTS('', 1, 1, ((#802, #803), (#804, #805)), .UNSPECIFIED., .F., .F., .U., (2, 2), (2, 2), (4.99999999999999, 55.), (0., 32.), .UNSPECIFIED.);
#802 = CARTESIAN_POINT('', (80., 4.99999999999999, 0.));
#803 = CARTESIAN_POINT('', (80., 4.99999999999999, 32.));
#804 = CARTESIAN_POINT('', (80., 55., 0.));
#805 = CARTESIAN_POINT('', (80., 55., 32.));
#806 = ADVANCED_FACE('', (#807), #814, .T.);
#807 = FACE_OUTER_BOUND('', #808, .T.);
#808 = EDGE_LOOP('', (#809, #810, #811, #812, #813));
#809 = ORIENTED_EDGE('', *, *, #184, .F.);
#810 = ORIENTED_EDGE('', *, *, #7, .T.);
#811 = ORIENTED_EDGE('', *, *, #420, .F.);
#812 = ORIENTED_EDGE('', *, *, #356, .T.);
#813 = ORIENTED_EDGE('', *, *, #324, .T.);
#814 = B_SPLINE_SURFACE_WITH_KNOTS('', 1, 1, ((#815, #816), (#817, #818)), .UNSPECIFIED., .F., .F., .U., (2, 2), (2, 2), (16., 53.8094744546377), (0., 1.), .UNSPECIFIED.);
#815 = CARTESIAN_POINT('', (0., 55., 0.));
#816 = CARTESIAN_POINT('', (5., 60., 0.));
#817 = CARTESIAN_POINT('', (0., 55., 37.8094744546377));
#818 = CARTESIAN_POINT('', (5., 60., 37.8094744546377));
#819 = DRAUGHTING_MODEL('', (#827), #830);
#820 = PRESENTATION_STYLE_ASSIGNMENT((#821));
#821 = SURFACE_STYLE_USAGE(.POSITIVE., #822);
#822 = SURFACE_SIDE_STYLE('', (#823));
#823 = SURFACE_STYLE_FILL_AREA(#824);
#824 = FILL_AREA_STYLE('', (#825));
#825 = FILL_AREA_STYLE_COLOUR('', #826);
#826 = COLOUR_RGB('', 0.50196078431373, 0.50196078431373, 0.50196078431373);
#827 = STYLED_ITEM('', (#820), #1);
#828 = CARTESIAN_POINT('Origin', (0., 0., 0.));
#829 = GEOMETRIC_SET('', (#828));
#830 = (
   GEOMETRIC_REPRESENTATION_CONTEXT (3)
   GLOBAL_UNCERTAINTY_ASSIGNED_CONTEXT ((#832))
   GLOBAL_UNIT_ASSIGNED_CONTEXT ((#831, #833, #834))
   REPRESENTATION_CONTEXT ('', '3D')
);
#831 = (
   LENGTH_UNIT ()
   NAMED_UNIT (*)
   SI_UNIT (.MILLI., .METRE.)
);
#832 = UNCERTAINTY_MEASURE_WITH_UNIT(LENGTH_MEASURE(1.E-6), #831, 'DISTANCE_ACCURACY_VALUE', '');
#833 = (
   NAMED_UNIT (*)
   SI_UNIT ($, .STERADIAN.)
   SOLID_ANGLE_UNIT ()
);
#834 = (
   NAMED_UNIT (*)
   PLANE_ANGLE_UNIT ()
   SI_UNIT ($, .RADIAN.)
);
#835 = SHAPE_REPRESENTATION('', (#850), #830);
#836 = PRODUCT_DEFINITION_SHAPE('', '', #837);
#837 = PRODUCT_DEFINITION('', '', #840, #844);
#838 = APPLICATION_CONTEXT('configuration controlled 3D designs of mechanical parts and assemblies');
#839 = APPLICATION_PROTOCOL_DEFINITION('International Standard', 'automotive_design', 2002, #838);
#840 = PRODUCT_DEFINITION_FORMATION_WITH_SPECIFIED_SOURCE('', '', #841, .NOT_KNOWN.);
#841 = PRODUCT('Roundtrip', 'Roundtrip', '', (#842));
#842 = PRODUCT_CONTEXT('', #838, 'mechanical');
#843 = PRODUCT_RELATED_PRODUCT_CATEGORY('detail', '', (#841));
#844 = PRODUCT_DEFINITION_CONTEXT('part definition', #838, 'design');
#845 = SHAPE_DEFINITION_REPRESENTATION(#836, #835);
#846 = SHAPE_REPRESENTATION_RELATIONSHIP('', '', #835, #847);
#847 = SHAPE_REPRESENTATION('', (#829), #830);
#848 = SHAPE_REPRESENTATION_RELATIONSHIP('', '', #835, #849);
#849 = ADVANCED_BREP_SHAPE_REPRESENTATION('', (#1), #830);
#850 = AXIS2_PLACEMENT_3D('', #851, #852, #853);
#851 = CARTESIAN_POINT('', (0., 0., 0.));
#852 = DIRECTION('', (0., 0., 1.));
#853 = DIRECTION('', (1., 0., 0.));
ENDSEC;
END-ISO-10303-21;
