ISO-10303-21;
HEADER;
FILE_DESCRIPTION(('STEP'), '1');
FILE_NAME('FindArcs', '2026-04-21T21:20:45', (''), (''), 'Express 3.1.2.0', 'Express Tool', 'Unknown');
FILE_SCHEMA(('AUTOMOTIVE_DESIGN'));
ENDSEC;

DATA;
#1 = MANIFOLD_SOLID_BREP('Fillet0_0', #2);
#2 = CLOSED_SHELL('', (#3, #101, #137, #169, #200, #225, #256, #272, #291));
#3 = ADVANCED_FACE('', (#4), #94, .T.);
#4 = FACE_OUTER_BOUND('', #5, .T.);
#5 = EDGE_LOOP('', (#6, #74, #81, #89));
#6 = ORIENTED_EDGE('', *, *, #7, .F.);
#7 = EDGE_CURVE('', #8, #10, #12, .T.);
#8 = VERTEX_POINT('', #9);
#9 = CARTESIAN_POINT('', (0., 5., 39.4161984870957));
#10 = VERTEX_POINT('', #11);
#11 = CARTESIAN_POINT('', (5.00000000000007, 0., 32.));
#12 = B_SPLINE_CURVE_WITH_KNOTS('', 3, (#13, #14, #15, #16, #17, #18, #19, #20, #21, #22, #23, #24, #25, #26, #27, #28, #29, #30, #31, #32, #33, #34, #35, #36, #37, #38, #39, #40, #41, #42, #43, #44, #45, #46, #47, #48, #49, #50, #51, #52, #53, #54, #55, #56, #57, #58, #59, #60, #61, #62, #63, #64, #65, #66, #67, #68, #69, #70, #71, #72, #73), .UNSPECIFIED., .F., .U., (4, 3, 3, 3, 3, 3, 3, 3, 3, 3, 3, 3, 3, 3, 3, 3, 3, 3, 3, 3, 4), (0., 0.329854266511538, 0.660440592676137, 0.990725824682713, 1.32073160955881, 1.81632835793365, 2.31115116498685, 2.80531722678586, 3.29893064540834, 3.79208007899796, 4.284838855711, 4.77726635708635, 5.26940988561304, 5.76130657117163, 6.49799290055781, 7.23404070194691, 7.96951800388885, 8.70446014847925, 9.80242648093139, 10.5360239124719, 10.9173190923508), .UNSPECIFIED.);
#13 = CARTESIAN_POINT('', (4.20103402594261E-14, 5., 39.4161984870957));
#14 = CARTESIAN_POINT('', (4.20048724315932E-14, 4.89807230365563, 39.3749667037817));
#15 = CARTESIAN_POINT('', (0.00312092014767121, 4.79693798398034, 39.3316059750359));
#16 = CARTESIAN_POINT('', (0.00919245933089225, 4.69694869741272, 39.2862783430553));
#17 = CARTESIAN_POINT('', (0.0152774733401782, 4.59673750035352, 39.2408501135263));
#18 = CARTESIAN_POINT('', (0.0243324553024259, 4.49756141697592, 39.1933946802384));
#19 = CARTESIAN_POINT('', (0.0361638505094764, 4.39972449574354, 39.1440896056426));
#20 = CARTESIAN_POINT('', (0.0479844698201993, 4.30197668323432, 39.094829437532));
#21 = CARTESIAN_POINT('', (0.0625882695452815, 4.20546184130699, 39.0436713372909));
#22 = CARTESIAN_POINT('', (0.0797690874195811, 4.11043394461833, 38.9907993749515));
#23 = CARTESIAN_POINT('', (0.0969353689786327, 4.01548644896027, 38.9379721464262));
#24 = CARTESIAN_POINT('', (0.116690352423184, 3.92193104919747, 38.8833831943902));
#25 = CARTESIAN_POINT('', (0.138823041251938, 3.82997496790189, 38.8272169462875));
#26 = CARTESIAN_POINT('', (0.172061514996999, 3.69187698001209, 38.7428674857513));
#27 = CARTESIAN_POINT('', (0.210717348748303, 3.5571704068627, 38.6548234655117));
#28 = CARTESIAN_POINT('', (0.254082439647635, 3.4263842558177, 38.563690960471));
#29 = CARTESIAN_POINT('', (0.297379810095059, 3.29580234502836, 38.4727007711571));
#30 = CARTESIAN_POINT('', (0.345443784791497, 3.16890115732335, 38.3784769784031));
#31 = CARTESIAN_POINT('', (0.397606228527975, 3.04603695728026, 38.2815802288412));
#32 = CARTESIAN_POINT('', (0.449699440537697, 2.9233358266817, 38.1848120838616));
#33 = CARTESIAN_POINT('', (0.505955807958585, 2.80447709009903, 38.0852360688064));
#34 = CARTESIAN_POINT('', (0.565764032012205, 2.68968586979988, 37.9833572380896));
#35 = CARTESIAN_POINT('', (0.625505370438748, 2.575023024534, 37.8815923420295));
#36 = CARTESIAN_POINT('', (0.688865835264813, 2.46427076278935, 37.7774009217568));
#37 = CARTESIAN_POINT('', (0.7552969367787, 2.35755872249187, 37.6712305921972));
#38 = CARTESIAN_POINT('', (0.821665594615702, 2.25094698900871, 37.5651600602566));
#39 = CARTESIAN_POINT('', (0.891171700615852, 2.14824921526994, 37.4569980693866));
#40 = CARTESIAN_POINT('', (0.963328767685791, 2.04952794248004, 37.3471377663826));
#41 = CARTESIAN_POINT('', (1.03542867428362, 1.95088487345853, 37.2373644911229));
#42 = CARTESIAN_POINT('', (1.11024412953372, 1.85611665189086, 37.1257908373354));
#43 = CARTESIAN_POINT('', (1.18734614166919, 1.76524026293227, 37.0127608182557));
#44 = CARTESIAN_POINT('', (1.26439631912141, 1.67442496899189, 36.8998067877926));
#45 = CARTESIAN_POINT('', (1.34379452443487, 1.58741944904418, 36.7853038142876));
#46 = CARTESIAN_POINT('', (1.42516308670012, 1.50421095554837, 36.669552943268));
#47 = CARTESIAN_POINT('', (1.50648472538302, 1.42105044668556, 36.5538688234036));
#48 = CARTESIAN_POINT('', (1.58983474179409, 1.34162047453144, 36.4368526080569));
#49 = CARTESIAN_POINT('', (1.67488016460651, 1.26588992124331, 36.3187685104886));
#50 = CARTESIAN_POINT('', (1.75988293143877, 1.19019735190389, 36.2007436400104));
#51 = CARTESIAN_POINT('', (1.84663567913461, 1.11815010356688, 36.0815739669506));
#52 = CARTESIAN_POINT('', (1.93484373289354, 1.04970671237976, 35.9614925490351));
#53 = CARTESIAN_POINT('', (2.0669480329503, 0.947202849059104, 35.7816532828055));
#54 = CARTESIAN_POINT('', (2.20245619660491, 0.852672338081386, 35.5995762702273));
#55 = CARTESIAN_POINT('', (2.34050951150447, 0.765958155426059, 35.4159389032814));
#56 = CARTESIAN_POINT('', (2.47844316773367, 0.679319132891344, 35.2324607052999));
#57 = CARTESIAN_POINT('', (2.61907996079987, 0.600380282794099, 35.0472097744909));
#58 = CARTESIAN_POINT('', (2.76168744259762, 0.528987039229793, 34.8607630695328));
#59 = CARTESIAN_POINT('', (2.90418439150691, 0.457649131481865, 34.6744608765777));
#60 = CARTESIAN_POINT('', (3.04879821252701, 0.393770144356594, 34.4867704315615));
#61 = CARTESIAN_POINT('', (3.19489129402059, 0.337213005122665, 34.298193958555));
#62 = CARTESIAN_POINT('', (3.34087807340754, 0.280697018713934, 34.1097546999609));
#63 = CARTESIAN_POINT('', (3.48848094887138, 0.231438296862149, 33.9202519504127));
#64 = CARTESIAN_POINT('', (3.6371317548933, 0.189325395905521, 33.7301335870254));
#65 = CARTESIAN_POINT('', (3.8592085285622, 0.126410855281322, 33.4461063833651));
#66 = CARTESIAN_POINT('', (4.08397996712237, 0.0793431224807895, 33.1602481736985));
#67 = CARTESIAN_POINT('', (4.30973777823772, 0.0478753988607399, 32.8739075053769));
#68 = CARTESIAN_POINT('', (4.46057605577812, 0.0268504907722207, 32.6825912758918));
#69 = CARTESIAN_POINT('', (4.61201353691824, 0.0127675222582341, 32.4908601333214));
#70 = CARTESIAN_POINT('', (4.76357147441613, 0.00559297290557215, 32.2990924357839));
#71 = CARTESIAN_POINT('', (4.8423453476002, 0.00186392347279488, 32.1994191059932));
#72 = CARTESIAN_POINT('', (4.92117692260604, 3.55085529604183E-15, 32.0997041826995));
#73 = CARTESIAN_POINT('', (5.00000000000007, 3.5527136788005E-15, 32.));
#74 = ORIENTED_EDGE('', *, *, #75, .F.);
#75 = EDGE_CURVE('', #76, #8, #78, .T.);
#76 = VERTEX_POINT('', #77);
#77 = CARTESIAN_POINT('', (0., 5., 0.));
#78 = B_SPLINE_CURVE_WITH_KNOTS('', 1, (#79, #80), .UNSPECIFIED., .F., .U., (2, 2), (0.25, 0.75), .UNSPECIFIED.);
#79 = CARTESIAN_POINT('', (0., 5., 0.));
#80 = CARTESIAN_POINT('', (0., 5., 39.4161984870957));
#81 = ORIENTED_EDGE('', *, *, #82, .T.);
#82 = EDGE_CURVE('', #76, #83, #85, .T.);
#83 = VERTEX_POINT('', #84);
#84 = CARTESIAN_POINT('', (5., 0., 0.));
#85 = (
   BOUNDED_CURVE ()
   B_SPLINE_CURVE (2, (#86, #87, #88), .UNSPECIFIED., .F., .U.)
   B_SPLINE_CURVE_WITH_KNOTS ((3, 3), (0., 1.), .UNSPECIFIED.)
   CURVE ()
   GEOMETRIC_REPRESENTATION_ITEM ()
   RATIONAL_B_SPLINE_CURVE ((1., 0.707106781186548, 1.))
   REPRESENTATION_ITEM ('')
);
#86 = CARTESIAN_POINT('', (2.8421709430404E-14, 5., 7.105427357601E-15));
#87 = CARTESIAN_POINT('', (2.8421709430404E-14, 1.59637078190612E-15, 7.105427357601E-15));
#88 = CARTESIAN_POINT('', (5.00000000000003, 0., 2.01280375394503E-30));
#89 = ORIENTED_EDGE('', *, *, #90, .T.);
#90 = EDGE_CURVE('', #83, #10, #91, .T.);
#91 = B_SPLINE_CURVE_WITH_KNOTS('', 1, (#92, #93), .UNSPECIFIED., .F., .U., (2, 2), (0.25, 0.655924483185211), .UNSPECIFIED.);
#92 = CARTESIAN_POINT('', (5., 0., 0.));
#93 = CARTESIAN_POINT('', (5., 0., 32.));
#94 = (
   BOUNDED_SURFACE ()
   B_SPLINE_SURFACE (2, 1, ((#95, #96), (#97, #98), (#99, #100)), .UNSPECIFIED., .F., .F., .U.)
   B_SPLINE_SURFACE_WITH_KNOTS ((3, 3), (2, 2), (0., 1.), (0.25, 0.75), .UNSPECIFIED.)
   GEOMETRIC_REPRESENTATION_ITEM ()
   RATIONAL_B_SPLINE_SURFACE (((1., 1.), (0.707106781186548, 0.707106781186548), (1., 1.)))
   REPRESENTATION_ITEM ('')
   SURFACE ()
);
#95 = CARTESIAN_POINT('', (2.8421709430404E-14, 5., 3.5527136788005E-15));
#96 = CARTESIAN_POINT('', (8.43769498715119E-14, 5., 39.4161984870957));
#97 = CARTESIAN_POINT('', (2.75335310107039E-14, 5.37112906563165E-15, 3.5527136788005E-15));
#98 = CARTESIAN_POINT('', (8.34887714518118E-14, 5.37112906563165E-15, 39.4161984870957));
#99 = CARTESIAN_POINT('', (5.00000000000002, 8.88178419700125E-16, -3.55271367880049E-15));
#100 = CARTESIAN_POINT('', (5.00000000000008, 8.88178419700125E-16, 39.4161984870957));
#101 = ADVANCED_FACE('', (#102), #132, .T.);
#102 = FACE_OUTER_BOUND('', #103, .T.);
#103 = EDGE_LOOP('', (#104, #105, #113, #120, #127));
#104 = ORIENTED_EDGE('', *, *, #75, .T.);
#105 = ORIENTED_EDGE('', *, *, #106, .F.);
#106 = EDGE_CURVE('', #107, #8, #109, .T.);
#107 = VERTEX_POINT('', #108);
#108 = CARTESIAN_POINT('', (0., 8., 40.));
#109 = (
   BOUNDED_CURVE ()
   B_SPLINE_CURVE (2, (#110, #111, #112), .UNSPECIFIED., .F., .U.)
   B_SPLINE_CURVE_WITH_KNOTS ((3, 3), (0., 0.254678050658306), .UNSPECIFIED.)
   CURVE ()
   GEOMETRIC_REPRESENTATION_ITEM ()
   RATIONAL_B_SPLINE_CURVE ((1., 0.981586677498976, 1.))
   REPRESENTATION_ITEM ('')
);
#110 = CARTESIAN_POINT('', (0., 8., 40.));
#111 = CARTESIAN_POINT('', (0., 6.44319596558842, 40.));
#112 = CARTESIAN_POINT('', (0., 5., 39.4161984870957));
#113 = ORIENTED_EDGE('', *, *, #114, .T.);
#114 = EDGE_CURVE('', #107, #115, #117, .T.);
#115 = VERTEX_POINT('', #116);
#116 = CARTESIAN_POINT('', (0., 60., 40.));
#117 = B_SPLINE_CURVE_WITH_KNOTS('', 1, (#118, #119), .UNSPECIFIED., .F., .U., (2, 2), (8., 60.), .UNSPECIFIED.);
#118 = CARTESIAN_POINT('', (0., 8., 40.));
#119 = CARTESIAN_POINT('', (0., 60., 40.));
#120 = ORIENTED_EDGE('', *, *, #121, .F.);
#121 = EDGE_CURVE('', #122, #115, #124, .T.);
#122 = VERTEX_POINT('', #123);
#123 = CARTESIAN_POINT('', (0., 60., 0.));
#124 = B_SPLINE_CURVE_WITH_KNOTS('', 1, (#125, #126), .UNSPECIFIED., .F., .U., (2, 2), (0., 40.), .UNSPECIFIED.);
#125 = CARTESIAN_POINT('', (0., 60., 0.));
#126 = CARTESIAN_POINT('', (0., 60., 40.));
#127 = ORIENTED_EDGE('', *, *, #128, .F.);
#128 = EDGE_CURVE('', #76, #122, #129, .T.);
#129 = B_SPLINE_CURVE_WITH_KNOTS('', 1, (#130, #131), .UNSPECIFIED., .F., .U., (2, 2), (5., 60.), .UNSPECIFIED.);
#130 = CARTESIAN_POINT('', (0., 5., 0.));
#131 = CARTESIAN_POINT('', (0., 60., 0.));
#132 = B_SPLINE_SURFACE_WITH_KNOTS('', 1, 1, ((#133, #134), (#135, #136)), .UNSPECIFIED., .F., .F., .U., (2, 2), (2, 2), (0., 40.), (5., 60.), .UNSPECIFIED.);
#133 = CARTESIAN_POINT('', (0., 5., 0.));
#134 = CARTESIAN_POINT('', (0., 60., 0.));
#135 = CARTESIAN_POINT('', (0., 5., 40.));
#136 = CARTESIAN_POINT('', (0., 60., 40.));
#137 = ADVANCED_FACE('', (#138), #162, .T.);
#138 = FACE_OUTER_BOUND('', #139, .T.);
#139 = EDGE_LOOP('', (#140, #141, #148, #156, #161));
#140 = ORIENTED_EDGE('', *, *, #7, .T.);
#141 = ORIENTED_EDGE('', *, *, #142, .T.);
#142 = EDGE_CURVE('', #10, #143, #145, .T.);
#143 = VERTEX_POINT('', #144);
#144 = CARTESIAN_POINT('', (80., 3.5527136788005E-15, 32.));
#145 = B_SPLINE_CURVE_WITH_KNOTS('', 1, (#146, #147), .UNSPECIFIED., .F., .U., (2, 2), (0.28125, 0.75), .UNSPECIFIED.);
#146 = CARTESIAN_POINT('', (5., 0., 32.));
#147 = CARTESIAN_POINT('', (80., 0., 32.));
#148 = ORIENTED_EDGE('', *, *, #149, .T.);
#149 = EDGE_CURVE('', #143, #150, #152, .T.);
#150 = VERTEX_POINT('', #151);
#151 = CARTESIAN_POINT('', (80., 8., 40.));
#152 = (
   BOUNDED_CURVE ()
   B_SPLINE_CURVE (2, (#153, #154, #155), .UNSPECIFIED., .F., .U.)
   B_SPLINE_CURVE_WITH_KNOTS ((3, 3), (0., 1.), .UNSPECIFIED.)
   CURVE ()
   GEOMETRIC_REPRESENTATION_ITEM ()
   RATIONAL_B_SPLINE_CURVE ((1., 0.707106781186546, 1.))
   REPRESENTATION_ITEM ('')
);
#153 = CARTESIAN_POINT('', (80., 3.5527136788005E-15, 32.));
#154 = CARTESIAN_POINT('', (80., -1.0413211676572E-14, 40.));
#155 = CARTESIAN_POINT('', (80., 8., 40.));
#156 = ORIENTED_EDGE('', *, *, #157, .F.);
#157 = EDGE_CURVE('', #107, #150, #158, .T.);
#158 = B_SPLINE_CURVE_WITH_KNOTS('', 1, (#159, #160), .UNSPECIFIED., .F., .U., (2, 2), (0.25, 0.75), .UNSPECIFIED.);
#159 = CARTESIAN_POINT('', (0., 8., 40.));
#160 = CARTESIAN_POINT('', (80., 8., 40.));
#161 = ORIENTED_EDGE('', *, *, #106, .T.);
#162 = (
   BOUNDED_SURFACE ()
   B_SPLINE_SURFACE (2, 1, ((#163, #164), (#165, #166), (#167, #168)), .UNSPECIFIED., .F., .F., .U.)
   B_SPLINE_SURFACE_WITH_KNOTS ((3, 3), (2, 2), (0., 1.), (0.25, 0.75), .UNSPECIFIED.)
   GEOMETRIC_REPRESENTATION_ITEM ()
   RATIONAL_B_SPLINE_SURFACE (((1., 1.), (0.707106781186546, 0.707106781186546), (1., 1.)))
   REPRESENTATION_ITEM ('')
   SURFACE ()
);
#163 = CARTESIAN_POINT('', (0., 8., 40.));
#164 = CARTESIAN_POINT('', (80., 8., 40.));
#165 = CARTESIAN_POINT('', (0., -1.0413211676572E-14, 40.));
#166 = CARTESIAN_POINT('', (80., -1.0413211676572E-14, 40.));
#167 = CARTESIAN_POINT('', (0., 3.5527136788005E-15, 32.));
#168 = CARTESIAN_POINT('', (80., 3.5527136788005E-15, 32.));
#169 = ADVANCED_FACE('', (#170), #195, .T.);
#170 = FACE_OUTER_BOUND('', #171, .T.);
#171 = EDGE_LOOP('', (#172, #173, #180, #189, #194));
#172 = ORIENTED_EDGE('', *, *, #90, .F.);
#173 = ORIENTED_EDGE('', *, *, #174, .T.);
#174 = EDGE_CURVE('', #83, #175, #177, .T.);
#175 = VERTEX_POINT('', #176);
#176 = CARTESIAN_POINT('', (75., 0., 0.));
#177 = B_SPLINE_CURVE_WITH_KNOTS('', 1, (#178, #179), .UNSPECIFIED., .F., .U., (2, 2), (5., 75.), .UNSPECIFIED.);
#178 = CARTESIAN_POINT('', (5., 0., 0.));
#179 = CARTESIAN_POINT('', (75., 0., 0.));
#180 = ORIENTED_EDGE('', *, *, #181, .F.);
#181 = EDGE_CURVE('', #182, #175, #184, .T.);
#182 = VERTEX_POINT('', #183);
#183 = CARTESIAN_POINT('', (80., 0., 5.));
#184 = B_SPLINE_CURVE_WITH_KNOTS('', 3, (#185, #186, #187, #188), .UNSPECIFIED., .F., .U., (4, 4), (0., 7.07106781186547), .UNSPECIFIED.);
#185 = CARTESIAN_POINT('', (80., 0., 5.));
#186 = CARTESIAN_POINT('', (78.3333333333333, 0., 3.33333333333333));
#187 = CARTESIAN_POINT('', (76.6666666666667, 0., 1.66666666666667));
#188 = CARTESIAN_POINT('', (75., 0., 3.5527136788005E-15));
#189 = ORIENTED_EDGE('', *, *, #190, .T.);
#190 = EDGE_CURVE('', #182, #143, #191, .T.);
#191 = B_SPLINE_CURVE_WITH_KNOTS('', 1, (#192, #193), .UNSPECIFIED., .F., .U., (2, 2), (5., 32.), .UNSPECIFIED.);
#192 = CARTESIAN_POINT('', (80., 0., 5.));
#193 = CARTESIAN_POINT('', (80., 0., 32.));
#194 = ORIENTED_EDGE('', *, *, #142, .F.);
#195 = B_SPLINE_SURFACE_WITH_KNOTS('', 1, 1, ((#196, #197), (#198, #199)), .UNSPECIFIED., .F., .F., .U., (2, 2), (2, 2), (5., 80.), (0., 32.), .UNSPECIFIED.);
#196 = CARTESIAN_POINT('', (5., 0., 0.));
#197 = CARTESIAN_POINT('', (5., 0., 32.));
#198 = CARTESIAN_POINT('', (80., 0., 0.));
#199 = CARTESIAN_POINT('', (80., 0., 32.));
#200 = ADVANCED_FACE('', (#201), #220, .T.);
#201 = FACE_OUTER_BOUND('', #202, .T.);
#202 = EDGE_LOOP('', (#203, #204, #205, #212, #219));
#203 = ORIENTED_EDGE('', *, *, #82, .F.);
#204 = ORIENTED_EDGE('', *, *, #128, .T.);
#205 = ORIENTED_EDGE('', *, *, #206, .T.);
#206 = EDGE_CURVE('', #122, #207, #209, .T.);
#207 = VERTEX_POINT('', #208);
#208 = CARTESIAN_POINT('', (75., 60., 0.));
#209 = B_SPLINE_CURVE_WITH_KNOTS('', 1, (#210, #211), .UNSPECIFIED., .F., .U., (2, 2), (0., 75.), .UNSPECIFIED.);
#210 = CARTESIAN_POINT('', (0., 60., 0.));
#211 = CARTESIAN_POINT('', (75., 60., 0.));
#212 = ORIENTED_EDGE('', *, *, #213, .F.);
#213 = EDGE_CURVE('', #175, #207, #214, .T.);
#214 = B_SPLINE_CURVE_WITH_KNOTS('', 3, (#215, #216, #217, #218), .UNSPECIFIED., .F., .U., (4, 4), (30., 90.), .UNSPECIFIED.);
#215 = CARTESIAN_POINT('', (75., 0., 0.));
#216 = CARTESIAN_POINT('', (75., 20., 0.));
#217 = CARTESIAN_POINT('', (75., 40., 0.));
#218 = CARTESIAN_POINT('', (75., 60., 0.));
#219 = ORIENTED_EDGE('', *, *, #174, .F.);
#220 = B_SPLINE_SURFACE_WITH_KNOTS('', 1, 1, ((#221, #222), (#223, #224)), .UNSPECIFIED., .F., .F., .U., (2, 2), (2, 2), (0., 60.), (0., 75.), .UNSPECIFIED.);
#221 = CARTESIAN_POINT('', (0., 0., 0.));
#222 = CARTESIAN_POINT('', (75., 0., 0.));
#223 = CARTESIAN_POINT('', (0., 60., 0.));
#224 = CARTESIAN_POINT('', (75., 60., 0.));
#225 = ADVANCED_FACE('', (#226), #251, .T.);
#226 = FACE_OUTER_BOUND('', #227, .T.);
#227 = EDGE_LOOP('', (#228, #237, #238, #239, #246));
#228 = ORIENTED_EDGE('', *, *, #229, .F.);
#229 = EDGE_CURVE('', #207, #230, #232, .T.);
#230 = VERTEX_POINT('', #231);
#231 = CARTESIAN_POINT('', (80., 60., 5.));
#232 = B_SPLINE_CURVE_WITH_KNOTS('', 3, (#233, #234, #235, #236), .UNSPECIFIED., .F., .U., (4, 4), (0., 7.07106781186548), .UNSPECIFIED.);
#233 = CARTESIAN_POINT('', (75., 60., 0.));
#234 = CARTESIAN_POINT('', (76.6666666666667, 60., 1.66666666666667));
#235 = CARTESIAN_POINT('', (78.3333333333333, 60., 3.33333333333333));
#236 = CARTESIAN_POINT('', (80., 60., 5.));
#237 = ORIENTED_EDGE('', *, *, #206, .F.);
#238 = ORIENTED_EDGE('', *, *, #121, .T.);
#239 = ORIENTED_EDGE('', *, *, #240, .T.);
#240 = EDGE_CURVE('', #115, #241, #243, .T.);
#241 = VERTEX_POINT('', #242);
#242 = CARTESIAN_POINT('', (80., 60., 40.));
#243 = B_SPLINE_CURVE_WITH_KNOTS('', 1, (#244, #245), .UNSPECIFIED., .F., .U., (2, 2), (0., 80.), .UNSPECIFIED.);
#244 = CARTESIAN_POINT('', (0., 60., 40.));
#245 = CARTESIAN_POINT('', (80., 60., 40.));
#246 = ORIENTED_EDGE('', *, *, #247, .F.);
#247 = EDGE_CURVE('', #230, #241, #248, .T.);
#248 = B_SPLINE_CURVE_WITH_KNOTS('', 1, (#249, #250), .UNSPECIFIED., .F., .U., (2, 2), (5., 40.), .UNSPECIFIED.);
#249 = CARTESIAN_POINT('', (80., 60., 5.));
#250 = CARTESIAN_POINT('', (80., 60., 40.));
#251 = B_SPLINE_SURFACE_WITH_KNOTS('', 1, 1, ((#252, #253), (#254, #255)), .UNSPECIFIED., .F., .F., .U., (2, 2), (2, 2), (0., 40.), (0., 80.), .UNSPECIFIED.);
#252 = CARTESIAN_POINT('', (0., 60., 0.));
#253 = CARTESIAN_POINT('', (80., 60., 0.));
#254 = CARTESIAN_POINT('', (0., 60., 40.));
#255 = CARTESIAN_POINT('', (80., 60., 40.));
#256 = ADVANCED_FACE('', (#257), #267, .T.);
#257 = FACE_OUTER_BOUND('', #258, .T.);
#258 = EDGE_LOOP('', (#259, #260, #265, #266));
#259 = ORIENTED_EDGE('', *, *, #157, .T.);
#260 = ORIENTED_EDGE('', *, *, #261, .T.);
#261 = EDGE_CURVE('', #150, #241, #262, .T.);
#262 = B_SPLINE_CURVE_WITH_KNOTS('', 1, (#263, #264), .UNSPECIFIED., .F., .U., (2, 2), (8., 60.), .UNSPECIFIED.);
#263 = CARTESIAN_POINT('', (80., 8., 40.));
#264 = CARTESIAN_POINT('', (80., 60., 40.));
#265 = ORIENTED_EDGE('', *, *, #240, .F.);
#266 = ORIENTED_EDGE('', *, *, #114, .F.);
#267 = B_SPLINE_SURFACE_WITH_KNOTS('', 1, 1, ((#268, #269), (#270, #271)), .UNSPECIFIED., .F., .F., .U., (2, 2), (2, 2), (0., 80.), (8., 60.), .UNSPECIFIED.);
#268 = CARTESIAN_POINT('', (0., 8., 40.));
#269 = CARTESIAN_POINT('', (0., 60., 40.));
#270 = CARTESIAN_POINT('', (80., 8., 40.));
#271 = CARTESIAN_POINT('', (80., 60., 40.));
#272 = ADVANCED_FACE('', (#273), #286, .T.);
#273 = FACE_OUTER_BOUND('', #274, .T.);
#274 = EDGE_LOOP('', (#275, #282, #283, #284, #285));
#275 = ORIENTED_EDGE('', *, *, #276, .T.);
#276 = EDGE_CURVE('', #182, #230, #277, .T.);
#277 = B_SPLINE_CURVE_WITH_KNOTS('', 3, (#278, #279, #280, #281), .UNSPECIFIED., .F., .U., (4, 4), (30., 90.), .UNSPECIFIED.);
#278 = CARTESIAN_POINT('', (80., 0., 5.));
#279 = CARTESIAN_POINT('', (80., 20., 5.));
#280 = CARTESIAN_POINT('', (80., 40., 5.));
#281 = CARTESIAN_POINT('', (80., 60., 5.));
#282 = ORIENTED_EDGE('', *, *, #247, .T.);
#283 = ORIENTED_EDGE('', *, *, #261, .F.);
#284 = ORIENTED_EDGE('', *, *, #149, .F.);
#285 = ORIENTED_EDGE('', *, *, #190, .F.);
#286 = B_SPLINE_SURFACE_WITH_KNOTS('', 1, 1, ((#287, #288), (#289, #290)), .UNSPECIFIED., .F., .F., .U., (2, 2), (2, 2), (0., 60.), (5., 40.), .UNSPECIFIED.);
#287 = CARTESIAN_POINT('', (80., 0., 5.));
#288 = CARTESIAN_POINT('', (80., 0., 40.));
#289 = CARTESIAN_POINT('', (80., 60., 5.));
#290 = CARTESIAN_POINT('', (80., 60., 40.));
#291 = ADVANCED_FACE('', (#292), #298, .T.);
#292 = FACE_OUTER_BOUND('', #293, .T.);
#293 = EDGE_LOOP('', (#294, #295, #296, #297));
#294 = ORIENTED_EDGE('', *, *, #213, .T.);
#295 = ORIENTED_EDGE('', *, *, #229, .T.);
#296 = ORIENTED_EDGE('', *, *, #276, .F.);
#297 = ORIENTED_EDGE('', *, *, #181, .T.);
#298 = B_SPLINE_SURFACE_WITH_KNOTS('', 1, 1, ((#299, #300), (#301, #302)), .UNSPECIFIED., .F., .F., .U., (2, 2), (2, 2), (30., 90.00091), (0., 1.), .UNSPECIFIED.);
#299 = CARTESIAN_POINT('', (75., 0., 0.));
#300 = CARTESIAN_POINT('', (80., 0., 5.));
#301 = CARTESIAN_POINT('', (75., 60.00091, 0.));
#302 = CARTESIAN_POINT('', (80., 60.00091, 5.));
#303 = DRAUGHTING_MODEL('', (#311), #314);
#304 = PRESENTATION_STYLE_ASSIGNMENT((#305));
#305 = SURFACE_STYLE_USAGE(.POSITIVE., #306);
#306 = SURFACE_SIDE_STYLE('', (#307));
#307 = SURFACE_STYLE_FILL_AREA(#308);
#308 = FILL_AREA_STYLE('', (#309));
#309 = FILL_AREA_STYLE_COLOUR('', #310);
#310 = COLOUR_RGB('', 0.50196078431373, 0.50196078431373, 0.50196078431373);
#311 = STYLED_ITEM('', (#304), #1);
#312 = CARTESIAN_POINT('Origin', (0., 0., 0.));
#313 = GEOMETRIC_SET('', (#312));
#314 = (
   GEOMETRIC_REPRESENTATION_CONTEXT (3)
   GLOBAL_UNCERTAINTY_ASSIGNED_CONTEXT ((#316))
   GLOBAL_UNIT_ASSIGNED_CONTEXT ((#315, #317, #318))
   REPRESENTATION_CONTEXT ('', '3D')
);
#315 = (
   LENGTH_UNIT ()
   NAMED_UNIT (*)
   SI_UNIT (.MILLI., .METRE.)
);
#316 = UNCERTAINTY_MEASURE_WITH_UNIT(LENGTH_MEASURE(1.E-6), #315, 'DISTANCE_ACCURACY_VALUE', '');
#317 = (
   NAMED_UNIT (*)
   SI_UNIT ($, .STERADIAN.)
   SOLID_ANGLE_UNIT ()
);
#318 = (
   NAMED_UNIT (*)
   PLANE_ANGLE_UNIT ()
   SI_UNIT ($, .RADIAN.)
);
#319 = SHAPE_REPRESENTATION('', (#334), #314);
#320 = PRODUCT_DEFINITION_SHAPE('', '', #321);
#321 = PRODUCT_DEFINITION('', '', #324, #328);
#322 = APPLICATION_CONTEXT('configuration controlled 3D designs of mechanical parts and assemblies');
#323 = APPLICATION_PROTOCOL_DEFINITION('International Standard', 'automotive_design', 2002, #322);
#324 = PRODUCT_DEFINITION_FORMATION_WITH_SPECIFIED_SOURCE('', '', #325, .NOT_KNOWN.);
#325 = PRODUCT('FindArcs', 'FindArcs', '', (#326));
#326 = PRODUCT_CONTEXT('', #322, 'mechanical');
#327 = PRODUCT_RELATED_PRODUCT_CATEGORY('detail', '', (#325));
#328 = PRODUCT_DEFINITION_CONTEXT('part definition', #322, 'design');
#329 = SHAPE_DEFINITION_REPRESENTATION(#320, #319);
#330 = SHAPE_REPRESENTATION_RELATIONSHIP('', '', #319, #331);
#331 = SHAPE_REPRESENTATION('', (#313), #314);
#332 = SHAPE_REPRESENTATION_RELATIONSHIP('', '', #319, #333);
#333 = ADVANCED_BREP_SHAPE_REPRESENTATION('', (#1), #314);
#334 = AXIS2_PLACEMENT_3D('', #335, #336, #337);
#335 = CARTESIAN_POINT('', (0., 0., 0.));
#336 = DIRECTION('', (0., 0., 1.));
#337 = DIRECTION('', (1., 0., 0.));
ENDSEC;
END-ISO-10303-21;
