ISO-10303-21;
HEADER;
FILE_DESCRIPTION(('STEP'), '1');
FILE_NAME('LShape', '2026-04-21T21:23:10', (''), (''), 'Express 3.1.2.0', 'Express Tool', 'Unknown');
FILE_SCHEMA(('AUTOMOTIVE_DESIGN'));
ENDSEC;

DATA;
#1 = MANIFOLD_SOLID_BREP('Fillet_0', #2);
#2 = CLOSED_SHELL('', (#3, #43, #132, #154, #182, #207, #229, #254, #276, #301, #323, #348, #364, #383));
#3 = ADVANCED_FACE('', (#4), #36, .T.);
#4 = FACE_OUTER_BOUND('', #5, .T.);
#5 = EDGE_LOOP('', (#6, #15, #23, #30));
#6 = ORIENTED_EDGE('', *, *, #7, .T.);
#7 = EDGE_CURVE('', #8, #10, #12, .T.);
#8 = VERTEX_POINT('', #9);
#9 = CARTESIAN_POINT('', (45., 30., 40.));
#10 = VERTEX_POINT('', #11);
#11 = CARTESIAN_POINT('', (45., 30., 0.));
#12 = B_SPLINE_CURVE_WITH_KNOTS('', 1, (#13, #14), .UNSPECIFIED., .F., .U., (2, 2), (0.25, 0.75), .UNSPECIFIED.);
#13 = CARTESIAN_POINT('', (45., 30., 40.));
#14 = CARTESIAN_POINT('', (45., 30., 0.));
#15 = ORIENTED_EDGE('', *, *, #16, .T.);
#16 = EDGE_CURVE('', #10, #17, #19, .T.);
#17 = VERTEX_POINT('', #18);
#18 = CARTESIAN_POINT('', (40., 35., 0.));
#19 = (
   BOUNDED_CURVE ()
   B_SPLINE_CURVE (2, (#20, #21, #22), .UNSPECIFIED., .F., .U.)
   B_SPLINE_CURVE_WITH_KNOTS ((3, 3), (0., 1.), .UNSPECIFIED.)
   CURVE ()
   GEOMETRIC_REPRESENTATION_ITEM ()
   RATIONAL_B_SPLINE_CURVE ((1., 0.707106781186551, 1.))
   REPRESENTATION_ITEM ('')
);
#20 = CARTESIAN_POINT('', (45., 30., 0.));
#21 = CARTESIAN_POINT('', (40., 30., 0.));
#22 = CARTESIAN_POINT('', (40., 35., 0.));
#23 = ORIENTED_EDGE('', *, *, #24, .F.);
#24 = EDGE_CURVE('', #25, #17, #27, .T.);
#25 = VERTEX_POINT('', #26);
#26 = CARTESIAN_POINT('', (40., 35., 40.));
#27 = B_SPLINE_CURVE_WITH_KNOTS('', 1, (#28, #29), .UNSPECIFIED., .F., .U., (2, 2), (0.25, 0.75), .UNSPECIFIED.);
#28 = CARTESIAN_POINT('', (40., 35., 40.));
#29 = CARTESIAN_POINT('', (40., 35., 0.));
#30 = ORIENTED_EDGE('', *, *, #31, .T.);
#31 = EDGE_CURVE('', #25, #8, #32, .T.);
#32 = (
   BOUNDED_CURVE ()
   B_SPLINE_CURVE (2, (#33, #34, #35), .UNSPECIFIED., .F., .U.)
   B_SPLINE_CURVE_WITH_KNOTS ((3, 3), (0., 1.), .UNSPECIFIED.)
   CURVE ()
   GEOMETRIC_REPRESENTATION_ITEM ()
   RATIONAL_B_SPLINE_CURVE ((1., 0.707106781186551, 1.))
   REPRESENTATION_ITEM ('')
);
#33 = CARTESIAN_POINT('', (40., 35., 40.));
#34 = CARTESIAN_POINT('', (40., 30., 40.));
#35 = CARTESIAN_POINT('', (45., 30., 40.));
#36 = (
   BOUNDED_SURFACE ()
   B_SPLINE_SURFACE (1, 2, ((#37, #38, #39), (#40, #41, #42)), .UNSPECIFIED., .F., .F., .U.)
   B_SPLINE_SURFACE_WITH_KNOTS ((2, 2), (3, 3), (0.25, 0.75), (0., 1.), .UNSPECIFIED.)
   GEOMETRIC_REPRESENTATION_ITEM ()
   RATIONAL_B_SPLINE_SURFACE (((1., 0.707106781186551, 1.), (1., 0.707106781186551, 1.)))
   REPRESENTATION_ITEM ('')
   SURFACE ()
);
#37 = CARTESIAN_POINT('', (45., 30., 40.));
#38 = CARTESIAN_POINT('', (40., 30., 40.));
#39 = CARTESIAN_POINT('', (40., 35., 40.));
#40 = CARTESIAN_POINT('', (45., 30., 0.));
#41 = CARTESIAN_POINT('', (40., 30., 0.));
#42 = CARTESIAN_POINT('', (40., 35., 0.));
#43 = ADVANCED_FACE('', (#44), #127, .T.);
#44 = FACE_OUTER_BOUND('', #45, .T.);
#45 = EDGE_LOOP('', (#46, #47, #54, #62, #69, #77, #84, #92, #99, #107, #114, #122));
#46 = ORIENTED_EDGE('', *, *, #16, .F.);
#47 = ORIENTED_EDGE('', *, *, #48, .T.);
#48 = EDGE_CURVE('', #10, #49, #51, .T.);
#49 = VERTEX_POINT('', #50);
#50 = CARTESIAN_POINT('', (75., 30., 0.));
#51 = B_SPLINE_CURVE_WITH_KNOTS('', 1, (#52, #53), .UNSPECIFIED., .F., .U., (2, 2), (45., 75.), .UNSPECIFIED.);
#52 = CARTESIAN_POINT('', (45., 30., 0.));
#53 = CARTESIAN_POINT('', (75., 30., 0.));
#54 = ORIENTED_EDGE('', *, *, #55, .F.);
#55 = EDGE_CURVE('', #56, #49, #58, .T.);
#56 = VERTEX_POINT('', #57);
#57 = CARTESIAN_POINT('', (80., 25., 0.));
#58 = (
   BOUNDED_CURVE ()
   B_SPLINE_CURVE (2, (#59, #60, #61), .UNSPECIFIED., .F., .U.)
   B_SPLINE_CURVE_WITH_KNOTS ((3, 3), (0., 1.), .UNSPECIFIED.)
   CURVE ()
   GEOMETRIC_REPRESENTATION_ITEM ()
   RATIONAL_B_SPLINE_CURVE ((1., 0.707106781186549, 1.))
   REPRESENTATION_ITEM ('')
);
#59 = CARTESIAN_POINT('', (80., 25., 0.));
#60 = CARTESIAN_POINT('', (80., 30., 0.));
#61 = CARTESIAN_POINT('', (75., 30., 0.));
#62 = ORIENTED_EDGE('', *, *, #63, .F.);
#63 = EDGE_CURVE('', #64, #56, #66, .T.);
#64 = VERTEX_POINT('', #65);
#65 = CARTESIAN_POINT('', (80., 5., 0.));
#66 = B_SPLINE_CURVE_WITH_KNOTS('', 1, (#67, #68), .UNSPECIFIED., .F., .U., (2, 2), (5., 25.), .UNSPECIFIED.);
#67 = CARTESIAN_POINT('', (80., 5., 0.));
#68 = CARTESIAN_POINT('', (80., 25., 0.));
#69 = ORIENTED_EDGE('', *, *, #70, .F.);
#70 = EDGE_CURVE('', #71, #64, #73, .T.);
#71 = VERTEX_POINT('', #72);
#72 = CARTESIAN_POINT('', (75., 0., 0.));
#73 = (
   BOUNDED_CURVE ()
   B_SPLINE_CURVE (2, (#74, #75, #76), .UNSPECIFIED., .F., .U.)
   B_SPLINE_CURVE_WITH_KNOTS ((3, 3), (0., 1.), .UNSPECIFIED.)
   CURVE ()
   GEOMETRIC_REPRESENTATION_ITEM ()
   RATIONAL_B_SPLINE_CURVE ((1., 0.707106781186548, 1.))
   REPRESENTATION_ITEM ('')
);
#74 = CARTESIAN_POINT('', (75., 3.5527136788005E-15, 0.));
#75 = CARTESIAN_POINT('', (80., 3.5527136788005E-15, 0.));
#76 = CARTESIAN_POINT('', (80., 5., 0.));
#77 = ORIENTED_EDGE('', *, *, #78, .F.);
#78 = EDGE_CURVE('', #79, #71, #81, .T.);
#79 = VERTEX_POINT('', #80);
#80 = CARTESIAN_POINT('', (5., 0., 0.));
#81 = B_SPLINE_CURVE_WITH_KNOTS('', 1, (#82, #83), .UNSPECIFIED., .F., .U., (2, 2), (5., 75.), .UNSPECIFIED.);
#82 = CARTESIAN_POINT('', (5., 0., 0.));
#83 = CARTESIAN_POINT('', (75., 0., 0.));
#84 = ORIENTED_EDGE('', *, *, #85, .F.);
#85 = EDGE_CURVE('', #86, #79, #88, .T.);
#86 = VERTEX_POINT('', #87);
#87 = CARTESIAN_POINT('', (0., 5., 0.));
#88 = (
   BOUNDED_CURVE ()
   B_SPLINE_CURVE (2, (#89, #90, #91), .UNSPECIFIED., .F., .U.)
   B_SPLINE_CURVE_WITH_KNOTS ((3, 3), (0., 1.), .UNSPECIFIED.)
   CURVE ()
   GEOMETRIC_REPRESENTATION_ITEM ()
   RATIONAL_B_SPLINE_CURVE ((1., 0.707106781186548, 1.))
   REPRESENTATION_ITEM ('')
);
#89 = CARTESIAN_POINT('', (0., 5., 0.));
#90 = CARTESIAN_POINT('', (0., 1.53080849893419E-16, 0.));
#91 = CARTESIAN_POINT('', (5., 0., 0.));
#92 = ORIENTED_EDGE('', *, *, #93, .T.);
#93 = EDGE_CURVE('', #86, #94, #96, .T.);
#94 = VERTEX_POINT('', #95);
#95 = CARTESIAN_POINT('', (0., 55., 0.));
#96 = B_SPLINE_CURVE_WITH_KNOTS('', 1, (#97, #98), .UNSPECIFIED., .F., .U., (2, 2), (5., 55.), .UNSPECIFIED.);
#97 = CARTESIAN_POINT('', (0., 5., 0.));
#98 = CARTESIAN_POINT('', (0., 55., 0.));
#99 = ORIENTED_EDGE('', *, *, #100, .F.);
#100 = EDGE_CURVE('', #101, #94, #103, .T.);
#101 = VERTEX_POINT('', #102);
#102 = CARTESIAN_POINT('', (5., 60., 0.));
#103 = (
   BOUNDED_CURVE ()
   B_SPLINE_CURVE (2, (#104, #105, #106), .UNSPECIFIED., .F., .U.)
   B_SPLINE_CURVE_WITH_KNOTS ((3, 3), (0., 1.), .UNSPECIFIED.)
   CURVE ()
   GEOMETRIC_REPRESENTATION_ITEM ()
   RATIONAL_B_SPLINE_CURVE ((1., 0.707106781186547, 1.))
   REPRESENTATION_ITEM ('')
);
#104 = CARTESIAN_POINT('', (5., 60., 0.));
#105 = CARTESIAN_POINT('', (-1.06816447719425E-15, 60., 0.));
#106 = CARTESIAN_POINT('', (-1.77635683940025E-15, 55., 0.));
#107 = ORIENTED_EDGE('', *, *, #108, .T.);
#108 = EDGE_CURVE('', #101, #109, #111, .T.);
#109 = VERTEX_POINT('', #110);
#110 = CARTESIAN_POINT('', (35., 60., 0.));
#111 = B_SPLINE_CURVE_WITH_KNOTS('', 1, (#112, #113), .UNSPECIFIED., .F., .U., (2, 2), (5., 35.), .UNSPECIFIED.);
#112 = CARTESIAN_POINT('', (5., 60., 0.));
#113 = CARTESIAN_POINT('', (35., 60., 0.));
#114 = ORIENTED_EDGE('', *, *, #115, .F.);
#115 = EDGE_CURVE('', #116, #109, #118, .T.);
#116 = VERTEX_POINT('', #117);
#117 = CARTESIAN_POINT('', (40., 55., 0.));
#118 = (
   BOUNDED_CURVE ()
   B_SPLINE_CURVE (2, (#119, #120, #121), .UNSPECIFIED., .F., .U.)
   B_SPLINE_CURVE_WITH_KNOTS ((3, 3), (0., 1.), .UNSPECIFIED.)
   CURVE ()
   GEOMETRIC_REPRESENTATION_ITEM ()
   RATIONAL_B_SPLINE_CURVE ((1., 0.70710678118655, 1.))
   REPRESENTATION_ITEM ('')
);
#119 = CARTESIAN_POINT('', (40., 55., 0.));
#120 = CARTESIAN_POINT('', (40., 60., 0.));
#121 = CARTESIAN_POINT('', (35., 60., 0.));
#122 = ORIENTED_EDGE('', *, *, #123, .F.);
#123 = EDGE_CURVE('', #17, #116, #124, .T.);
#124 = B_SPLINE_CURVE_WITH_KNOTS('', 1, (#125, #126), .UNSPECIFIED., .F., .U., (2, 2), (35., 55.), .UNSPECIFIED.);
#125 = CARTESIAN_POINT('', (40., 35., 0.));
#126 = CARTESIAN_POINT('', (40., 55., 0.));
#127 = B_SPLINE_SURFACE_WITH_KNOTS('', 1, 1, ((#128, #129), (#130, #131)), .UNSPECIFIED., .F., .F., .U., (2, 2), (2, 2), (7.04731412115578E-18, 60.), (-1.75250439160557E-15, 80.), .UNSPECIFIED.);
#128 = CARTESIAN_POINT('', (-1.75250439160557E-15, 8.67361737988404E-18, 0.));
#129 = CARTESIAN_POINT('', (80., 4.33680868994202E-17, 0.));
#130 = CARTESIAN_POINT('', (-1.64842098304696E-15, 60., 0.));
#131 = CARTESIAN_POINT('', (80., 60., 0.));
#132 = ADVANCED_FACE('', (#133), #149, .T.);
#133 = FACE_OUTER_BOUND('', #134, .T.);
#134 = EDGE_LOOP('', (#135, #142, #147, #148));
#135 = ORIENTED_EDGE('', *, *, #136, .T.);
#136 = EDGE_CURVE('', #116, #137, #139, .T.);
#137 = VERTEX_POINT('', #138);
#138 = CARTESIAN_POINT('', (40., 55., 40.));
#139 = B_SPLINE_CURVE_WITH_KNOTS('', 1, (#140, #141), .UNSPECIFIED., .F., .U., (2, 2), (0.25, 0.75), .UNSPECIFIED.);
#140 = CARTESIAN_POINT('', (40., 55., 0.));
#141 = CARTESIAN_POINT('', (40., 55., 40.));
#142 = ORIENTED_EDGE('', *, *, #143, .F.);
#143 = EDGE_CURVE('', #25, #137, #144, .T.);
#144 = B_SPLINE_CURVE_WITH_KNOTS('', 1, (#145, #146), .UNSPECIFIED., .F., .U., (2, 2), (35., 55.), .UNSPECIFIED.);
#145 = CARTESIAN_POINT('', (40., 35., 40.));
#146 = CARTESIAN_POINT('', (40., 55., 40.));
#147 = ORIENTED_EDGE('', *, *, #24, .T.);
#148 = ORIENTED_EDGE('', *, *, #123, .T.);
#149 = B_SPLINE_SURFACE_WITH_KNOTS('', 1, 1, ((#150, #151), (#152, #153)), .UNSPECIFIED., .F., .F., .U., (2, 2), (2, 2), (35., 55.), (0., 40.), .UNSPECIFIED.);
#150 = CARTESIAN_POINT('', (40., 35., 0.));
#151 = CARTESIAN_POINT('', (40., 35., 40.));
#152 = CARTESIAN_POINT('', (40., 55., 0.));
#153 = CARTESIAN_POINT('', (40., 55., 40.));
#154 = ADVANCED_FACE('', (#155), #177, .T.);
#155 = FACE_OUTER_BOUND('', #156, .T.);
#156 = EDGE_LOOP('', (#157, #164, #165, #172));
#157 = ORIENTED_EDGE('', *, *, #158, .F.);
#158 = EDGE_CURVE('', #109, #159, #161, .T.);
#159 = VERTEX_POINT('', #160);
#160 = CARTESIAN_POINT('', (35., 60., 40.));
#161 = B_SPLINE_CURVE_WITH_KNOTS('', 1, (#162, #163), .UNSPECIFIED., .F., .U., (2, 2), (0.25, 0.75), .UNSPECIFIED.);
#162 = CARTESIAN_POINT('', (35., 60., 0.));
#163 = CARTESIAN_POINT('', (35., 60., 40.));
#164 = ORIENTED_EDGE('', *, *, #108, .F.);
#165 = ORIENTED_EDGE('', *, *, #166, .T.);
#166 = EDGE_CURVE('', #101, #167, #169, .T.);
#167 = VERTEX_POINT('', #168);
#168 = CARTESIAN_POINT('', (5., 60., 40.));
#169 = B_SPLINE_CURVE_WITH_KNOTS('', 1, (#170, #171), .UNSPECIFIED., .F., .U., (2, 2), (0.25, 0.75), .UNSPECIFIED.);
#170 = CARTESIAN_POINT('', (5., 60., 0.));
#171 = CARTESIAN_POINT('', (5., 60., 40.));
#172 = ORIENTED_EDGE('', *, *, #173, .T.);
#173 = EDGE_CURVE('', #167, #159, #174, .T.);
#174 = B_SPLINE_CURVE_WITH_KNOTS('', 1, (#175, #176), .UNSPECIFIED., .F., .U., (2, 2), (5., 35.), .UNSPECIFIED.);
#175 = CARTESIAN_POINT('', (5., 60., 40.));
#176 = CARTESIAN_POINT('', (35., 60., 40.));
#177 = B_SPLINE_SURFACE_WITH_KNOTS('', 1, 1, ((#178, #179), (#180, #181)), .UNSPECIFIED., .F., .F., .U., (2, 2), (2, 2), (0., 40.), (5., 35.), .UNSPECIFIED.);
#178 = CARTESIAN_POINT('', (5., 60., 0.));
#179 = CARTESIAN_POINT('', (35., 60., 0.));
#180 = CARTESIAN_POINT('', (5., 60., 40.));
#181 = CARTESIAN_POINT('', (35., 60., 40.));
#182 = ADVANCED_FACE('', (#183), #200, .T.);
#183 = FACE_OUTER_BOUND('', #184, .T.);
#184 = EDGE_LOOP('', (#185, #186, #187, #194));
#185 = ORIENTED_EDGE('', *, *, #166, .F.);
#186 = ORIENTED_EDGE('', *, *, #100, .T.);
#187 = ORIENTED_EDGE('', *, *, #188, .T.);
#188 = EDGE_CURVE('', #94, #189, #191, .T.);
#189 = VERTEX_POINT('', #190);
#190 = CARTESIAN_POINT('', (-1.77635683940025E-15, 55., 40.));
#191 = B_SPLINE_CURVE_WITH_KNOTS('', 1, (#192, #193), .UNSPECIFIED., .F., .U., (2, 2), (0.25, 0.75), .UNSPECIFIED.);
#192 = CARTESIAN_POINT('', (0., 55., 0.));
#193 = CARTESIAN_POINT('', (0., 55., 40.));
#194 = ORIENTED_EDGE('', *, *, #195, .T.);
#195 = EDGE_CURVE('', #189, #167, #196, .T.);
#196 = (
   BOUNDED_CURVE ()
   B_SPLINE_CURVE (2, (#197, #198, #199), .UNSPECIFIED., .F., .U.)
   B_SPLINE_CURVE_WITH_KNOTS ((3, 3), (0., 1.), .UNSPECIFIED.)
   CURVE ()
   GEOMETRIC_REPRESENTATION_ITEM ()
   RATIONAL_B_SPLINE_CURVE ((1., 0.707106781186547, 1.))
   REPRESENTATION_ITEM ('')
);
#197 = CARTESIAN_POINT('', (-1.77635683940025E-15, 55., 40.));
#198 = CARTESIAN_POINT('', (-1.06816447719425E-15, 60., 40.));
#199 = CARTESIAN_POINT('', (5., 60., 40.));
#200 = (
   BOUNDED_SURFACE ()
   B_SPLINE_SURFACE (2, 1, ((#201, #202), (#203, #204), (#205, #206)), .UNSPECIFIED., .F., .F., .U.)
   B_SPLINE_SURFACE_WITH_KNOTS ((3, 3), (2, 2), (0., 1.), (0.25, 0.75), .UNSPECIFIED.)
   GEOMETRIC_REPRESENTATION_ITEM ()
   RATIONAL_B_SPLINE_SURFACE (((1., 1.), (0.707106781186547, 0.707106781186547), (1., 1.)))
   REPRESENTATION_ITEM ('')
   SURFACE ()
);
#201 = CARTESIAN_POINT('', (5., 60., 0.));
#202 = CARTESIAN_POINT('', (5., 60., 40.));
#203 = CARTESIAN_POINT('', (-2.8445213165945E-15, 60., 0.));
#204 = CARTESIAN_POINT('', (-2.8445213165945E-15, 60., 40.));
#205 = CARTESIAN_POINT('', (-3.5527136788005E-15, 55., 0.));
#206 = CARTESIAN_POINT('', (-3.5527136788005E-15, 55., 40.));
#207 = ADVANCED_FACE('', (#208), #224, .T.);
#208 = FACE_OUTER_BOUND('', #209, .T.);
#209 = EDGE_LOOP('', (#210, #211, #212, #219));
#210 = ORIENTED_EDGE('', *, *, #188, .F.);
#211 = ORIENTED_EDGE('', *, *, #93, .F.);
#212 = ORIENTED_EDGE('', *, *, #213, .T.);
#213 = EDGE_CURVE('', #86, #214, #216, .T.);
#214 = VERTEX_POINT('', #215);
#215 = CARTESIAN_POINT('', (0., 5., 40.));
#216 = B_SPLINE_CURVE_WITH_KNOTS('', 1, (#217, #218), .UNSPECIFIED., .F., .U., (2, 2), (0.25, 0.75), .UNSPECIFIED.);
#217 = CARTESIAN_POINT('', (0., 5., 0.));
#218 = CARTESIAN_POINT('', (0., 5., 40.));
#219 = ORIENTED_EDGE('', *, *, #220, .T.);
#220 = EDGE_CURVE('', #214, #189, #221, .T.);
#221 = B_SPLINE_CURVE_WITH_KNOTS('', 1, (#222, #223), .UNSPECIFIED., .F., .U., (2, 2), (5., 55.), .UNSPECIFIED.);
#222 = CARTESIAN_POINT('', (0., 5., 40.));
#223 = CARTESIAN_POINT('', (0., 55., 40.));
#224 = B_SPLINE_SURFACE_WITH_KNOTS('', 1, 1, ((#225, #226), (#227, #228)), .UNSPECIFIED., .F., .F., .U., (2, 2), (2, 2), (0., 40.), (5., 55.), .UNSPECIFIED.);
#225 = CARTESIAN_POINT('', (0., 5., 0.));
#226 = CARTESIAN_POINT('', (0., 55., 0.));
#227 = CARTESIAN_POINT('', (0., 5., 40.));
#228 = CARTESIAN_POINT('', (0., 55., 40.));
#229 = ADVANCED_FACE('', (#230), #247, .T.);
#230 = FACE_OUTER_BOUND('', #231, .T.);
#231 = EDGE_LOOP('', (#232, #233, #234, #241));
#232 = ORIENTED_EDGE('', *, *, #213, .F.);
#233 = ORIENTED_EDGE('', *, *, #85, .T.);
#234 = ORIENTED_EDGE('', *, *, #235, .T.);
#235 = EDGE_CURVE('', #79, #236, #238, .T.);
#236 = VERTEX_POINT('', #237);
#237 = CARTESIAN_POINT('', (5., 0., 40.));
#238 = B_SPLINE_CURVE_WITH_KNOTS('', 1, (#239, #240), .UNSPECIFIED., .F., .U., (2, 2), (0.25, 0.75), .UNSPECIFIED.);
#239 = CARTESIAN_POINT('', (5., 0., 0.));
#240 = CARTESIAN_POINT('', (5., 0., 40.));
#241 = ORIENTED_EDGE('', *, *, #242, .T.);
#242 = EDGE_CURVE('', #236, #214, #243, .T.);
#243 = (
   BOUNDED_CURVE ()
   B_SPLINE_CURVE (2, (#244, #245, #246), .UNSPECIFIED., .F., .U.)
   B_SPLINE_CURVE_WITH_KNOTS ((3, 3), (0., 1.), .UNSPECIFIED.)
   CURVE ()
   GEOMETRIC_REPRESENTATION_ITEM ()
   RATIONAL_B_SPLINE_CURVE ((1., 0.707106781186548, 1.))
   REPRESENTATION_ITEM ('')
);
#244 = CARTESIAN_POINT('', (5., 0., 40.));
#245 = CARTESIAN_POINT('', (0., 1.53080849893419E-16, 40.));
#246 = CARTESIAN_POINT('', (0., 5., 40.));
#247 = (
   BOUNDED_SURFACE ()
   B_SPLINE_SURFACE (2, 1, ((#248, #249), (#250, #251), (#252, #253)), .UNSPECIFIED., .F., .F., .U.)
   B_SPLINE_SURFACE_WITH_KNOTS ((3, 3), (2, 2), (0., 1.), (0.25, 0.75), .UNSPECIFIED.)
   GEOMETRIC_REPRESENTATION_ITEM ()
   RATIONAL_B_SPLINE_SURFACE (((1., 1.), (0.707106781186548, 0.707106781186548), (1., 1.)))
   REPRESENTATION_ITEM ('')
   SURFACE ()
);
#248 = CARTESIAN_POINT('', (0., 5., 0.));
#249 = CARTESIAN_POINT('', (0., 5., 40.));
#250 = CARTESIAN_POINT('', (0., 1.53080849893419E-16, 0.));
#251 = CARTESIAN_POINT('', (0., 1.53080849893419E-16, 40.));
#252 = CARTESIAN_POINT('', (5., 0., 0.));
#253 = CARTESIAN_POINT('', (5., 0., 40.));
#254 = ADVANCED_FACE('', (#255), #271, .T.);
#255 = FACE_OUTER_BOUND('', #256, .T.);
#256 = EDGE_LOOP('', (#257, #264, #269, #270));
#257 = ORIENTED_EDGE('', *, *, #258, .T.);
#258 = EDGE_CURVE('', #71, #259, #261, .T.);
#259 = VERTEX_POINT('', #260);
#260 = CARTESIAN_POINT('', (75., 0., 40.));
#261 = B_SPLINE_CURVE_WITH_KNOTS('', 1, (#262, #263), .UNSPECIFIED., .F., .U., (2, 2), (0.25, 0.75), .UNSPECIFIED.);
#262 = CARTESIAN_POINT('', (75., 0., 0.));
#263 = CARTESIAN_POINT('', (75., 0., 40.));
#264 = ORIENTED_EDGE('', *, *, #265, .F.);
#265 = EDGE_CURVE('', #236, #259, #266, .T.);
#266 = B_SPLINE_CURVE_WITH_KNOTS('', 1, (#267, #268), .UNSPECIFIED., .F., .U., (2, 2), (5., 75.), .UNSPECIFIED.);
#267 = CARTESIAN_POINT('', (5., 0., 40.));
#268 = CARTESIAN_POINT('', (75., 0., 40.));
#269 = ORIENTED_EDGE('', *, *, #235, .F.);
#270 = ORIENTED_EDGE('', *, *, #78, .T.);
#271 = B_SPLINE_SURFACE_WITH_KNOTS('', 1, 1, ((#272, #273), (#274, #275)), .UNSPECIFIED., .F., .F., .U., (2, 2), (2, 2), (5., 75.), (0., 40.), .UNSPECIFIED.);
#272 = CARTESIAN_POINT('', (5., 0., 0.));
#273 = CARTESIAN_POINT('', (5., 0., 40.));
#274 = CARTESIAN_POINT('', (75., 0., 0.));
#275 = CARTESIAN_POINT('', (75., 0., 40.));
#276 = ADVANCED_FACE('', (#277), #294, .T.);
#277 = FACE_OUTER_BOUND('', #278, .T.);
#278 = EDGE_LOOP('', (#279, #280, #281, #288));
#279 = ORIENTED_EDGE('', *, *, #258, .F.);
#280 = ORIENTED_EDGE('', *, *, #70, .T.);
#281 = ORIENTED_EDGE('', *, *, #282, .T.);
#282 = EDGE_CURVE('', #64, #283, #285, .T.);
#283 = VERTEX_POINT('', #284);
#284 = CARTESIAN_POINT('', (80., 5., 40.));
#285 = B_SPLINE_CURVE_WITH_KNOTS('', 1, (#286, #287), .UNSPECIFIED., .F., .U., (2, 2), (0.25, 0.75), .UNSPECIFIED.);
#286 = CARTESIAN_POINT('', (80., 5., 0.));
#287 = CARTESIAN_POINT('', (80., 5., 40.));
#288 = ORIENTED_EDGE('', *, *, #289, .T.);
#289 = EDGE_CURVE('', #283, #259, #290, .T.);
#290 = (
   BOUNDED_CURVE ()
   B_SPLINE_CURVE (2, (#291, #292, #293), .UNSPECIFIED., .F., .U.)
   B_SPLINE_CURVE_WITH_KNOTS ((3, 3), (0., 1.), .UNSPECIFIED.)
   CURVE ()
   GEOMETRIC_REPRESENTATION_ITEM ()
   RATIONAL_B_SPLINE_CURVE ((1., 0.707106781186548, 1.))
   REPRESENTATION_ITEM ('')
);
#291 = CARTESIAN_POINT('', (80., 5., 40.));
#292 = CARTESIAN_POINT('', (80., 3.5527136788005E-15, 40.));
#293 = CARTESIAN_POINT('', (75., 3.5527136788005E-15, 40.));
#294 = (
   BOUNDED_SURFACE ()
   B_SPLINE_SURFACE (2, 1, ((#295, #296), (#297, #298), (#299, #300)), .UNSPECIFIED., .F., .F., .U.)
   B_SPLINE_SURFACE_WITH_KNOTS ((3, 3), (2, 2), (0., 1.), (0.25, 0.75), .UNSPECIFIED.)
   GEOMETRIC_REPRESENTATION_ITEM ()
   RATIONAL_B_SPLINE_SURFACE (((1., 1.), (0.707106781186548, 0.707106781186548), (1., 1.)))
   REPRESENTATION_ITEM ('')
   SURFACE ()
);
#295 = CARTESIAN_POINT('', (75., 3.5527136788005E-15, 0.));
#296 = CARTESIAN_POINT('', (75., 3.5527136788005E-15, 40.));
#297 = CARTESIAN_POINT('', (80., 3.5527136788005E-15, 0.));
#298 = CARTESIAN_POINT('', (80., 3.5527136788005E-15, 40.));
#299 = CARTESIAN_POINT('', (80., 5., 0.));
#300 = CARTESIAN_POINT('', (80., 5., 40.));
#301 = ADVANCED_FACE('', (#302), #318, .T.);
#302 = FACE_OUTER_BOUND('', #303, .T.);
#303 = EDGE_LOOP('', (#304, #311, #316, #317));
#304 = ORIENTED_EDGE('', *, *, #305, .T.);
#305 = EDGE_CURVE('', #56, #306, #308, .T.);
#306 = VERTEX_POINT('', #307);
#307 = CARTESIAN_POINT('', (80., 25., 40.));
#308 = B_SPLINE_CURVE_WITH_KNOTS('', 1, (#309, #310), .UNSPECIFIED., .F., .U., (2, 2), (0.25, 0.75), .UNSPECIFIED.);
#309 = CARTESIAN_POINT('', (80., 25., 0.));
#310 = CARTESIAN_POINT('', (80., 25., 40.));
#311 = ORIENTED_EDGE('', *, *, #312, .F.);
#312 = EDGE_CURVE('', #283, #306, #313, .T.);
#313 = B_SPLINE_CURVE_WITH_KNOTS('', 1, (#314, #315), .UNSPECIFIED., .F., .U., (2, 2), (5., 25.), .UNSPECIFIED.);
#314 = CARTESIAN_POINT('', (80., 5., 40.));
#315 = CARTESIAN_POINT('', (80., 25., 40.));
#316 = ORIENTED_EDGE('', *, *, #282, .F.);
#317 = ORIENTED_EDGE('', *, *, #63, .T.);
#318 = B_SPLINE_SURFACE_WITH_KNOTS('', 1, 1, ((#319, #320), (#321, #322)), .UNSPECIFIED., .F., .F., .U., (2, 2), (2, 2), (5., 25.), (0., 40.), .UNSPECIFIED.);
#319 = CARTESIAN_POINT('', (80., 5., 0.));
#320 = CARTESIAN_POINT('', (80., 5., 40.));
#321 = CARTESIAN_POINT('', (80., 25., 0.));
#322 = CARTESIAN_POINT('', (80., 25., 40.));
#323 = ADVANCED_FACE('', (#324), #341, .T.);
#324 = FACE_OUTER_BOUND('', #325, .T.);
#325 = EDGE_LOOP('', (#326, #327, #328, #335));
#326 = ORIENTED_EDGE('', *, *, #305, .F.);
#327 = ORIENTED_EDGE('', *, *, #55, .T.);
#328 = ORIENTED_EDGE('', *, *, #329, .T.);
#329 = EDGE_CURVE('', #49, #330, #332, .T.);
#330 = VERTEX_POINT('', #331);
#331 = CARTESIAN_POINT('', (75., 30., 40.));
#332 = B_SPLINE_CURVE_WITH_KNOTS('', 1, (#333, #334), .UNSPECIFIED., .F., .U., (2, 2), (0.25, 0.75), .UNSPECIFIED.);
#333 = CARTESIAN_POINT('', (75., 30., 0.));
#334 = CARTESIAN_POINT('', (75., 30., 40.));
#335 = ORIENTED_EDGE('', *, *, #336, .T.);
#336 = EDGE_CURVE('', #330, #306, #337, .T.);
#337 = (
   BOUNDED_CURVE ()
   B_SPLINE_CURVE (2, (#338, #339, #340), .UNSPECIFIED., .F., .U.)
   B_SPLINE_CURVE_WITH_KNOTS ((3, 3), (0., 1.), .UNSPECIFIED.)
   CURVE ()
   GEOMETRIC_REPRESENTATION_ITEM ()
   RATIONAL_B_SPLINE_CURVE ((1., 0.707106781186549, 1.))
   REPRESENTATION_ITEM ('')
);
#338 = CARTESIAN_POINT('', (75., 30., 40.));
#339 = CARTESIAN_POINT('', (80., 30., 40.));
#340 = CARTESIAN_POINT('', (80., 25., 40.));
#341 = (
   BOUNDED_SURFACE ()
   B_SPLINE_SURFACE (2, 1, ((#342, #343), (#344, #345), (#346, #347)), .UNSPECIFIED., .F., .F., .U.)
   B_SPLINE_SURFACE_WITH_KNOTS ((3, 3), (2, 2), (0., 1.), (0.25, 0.75), .UNSPECIFIED.)
   GEOMETRIC_REPRESENTATION_ITEM ()
   RATIONAL_B_SPLINE_SURFACE (((1., 1.), (0.707106781186549, 0.707106781186549), (1., 1.)))
   REPRESENTATION_ITEM ('')
   SURFACE ()
);
#342 = CARTESIAN_POINT('', (80., 25., 0.));
#343 = CARTESIAN_POINT('', (80., 25., 40.));
#344 = CARTESIAN_POINT('', (80., 30., 0.));
#345 = CARTESIAN_POINT('', (80., 30., 40.));
#346 = CARTESIAN_POINT('', (75., 30., 0.));
#347 = CARTESIAN_POINT('', (75., 30., 40.));
#348 = ADVANCED_FACE('', (#349), #359, .T.);
#349 = FACE_OUTER_BOUND('', #350, .T.);
#350 = EDGE_LOOP('', (#351, #352, #353, #354));
#351 = ORIENTED_EDGE('', *, *, #329, .F.);
#352 = ORIENTED_EDGE('', *, *, #48, .F.);
#353 = ORIENTED_EDGE('', *, *, #7, .F.);
#354 = ORIENTED_EDGE('', *, *, #355, .T.);
#355 = EDGE_CURVE('', #8, #330, #356, .T.);
#356 = B_SPLINE_CURVE_WITH_KNOTS('', 1, (#357, #358), .UNSPECIFIED., .F., .U., (2, 2), (45., 75.), .UNSPECIFIED.);
#357 = CARTESIAN_POINT('', (45., 30., 40.));
#358 = CARTESIAN_POINT('', (75., 30., 40.));
#359 = B_SPLINE_SURFACE_WITH_KNOTS('', 1, 1, ((#360, #361), (#362, #363)), .UNSPECIFIED., .F., .F., .U., (2, 2), (2, 2), (0., 40.), (45., 75.), .UNSPECIFIED.);
#360 = CARTESIAN_POINT('', (45., 30., 0.));
#361 = CARTESIAN_POINT('', (75., 30., 0.));
#362 = CARTESIAN_POINT('', (45., 30., 40.));
#363 = CARTESIAN_POINT('', (75., 30., 40.));
#364 = ADVANCED_FACE('', (#365), #376, .T.);
#365 = FACE_OUTER_BOUND('', #366, .T.);
#366 = EDGE_LOOP('', (#367, #368, #369, #370));
#367 = ORIENTED_EDGE('', *, *, #136, .F.);
#368 = ORIENTED_EDGE('', *, *, #115, .T.);
#369 = ORIENTED_EDGE('', *, *, #158, .T.);
#370 = ORIENTED_EDGE('', *, *, #371, .T.);
#371 = EDGE_CURVE('', #159, #137, #372, .T.);
#372 = (
   BOUNDED_CURVE ()
   B_SPLINE_CURVE (2, (#373, #374, #375), .UNSPECIFIED., .F., .U.)
   B_SPLINE_CURVE_WITH_KNOTS ((3, 3), (0., 1.), .UNSPECIFIED.)
   CURVE ()
   GEOMETRIC_REPRESENTATION_ITEM ()
   RATIONAL_B_SPLINE_CURVE ((1., 0.70710678118655, 1.))
   REPRESENTATION_ITEM ('')
);
#373 = CARTESIAN_POINT('', (35., 60., 40.));
#374 = CARTESIAN_POINT('', (40., 60., 40.));
#375 = CARTESIAN_POINT('', (40., 55., 40.));
#376 = (
   BOUNDED_SURFACE ()
   B_SPLINE_SURFACE (2, 1, ((#377, #378), (#379, #380), (#381, #382)), .UNSPECIFIED., .F., .F., .U.)
   B_SPLINE_SURFACE_WITH_KNOTS ((3, 3), (2, 2), (0., 1.), (0.25, 0.75), .UNSPECIFIED.)
   GEOMETRIC_REPRESENTATION_ITEM ()
   RATIONAL_B_SPLINE_SURFACE (((1., 1.), (0.70710678118655, 0.70710678118655), (1., 1.)))
   REPRESENTATION_ITEM ('')
   SURFACE ()
);
#377 = CARTESIAN_POINT('', (40., 55., 0.));
#378 = CARTESIAN_POINT('', (40., 55., 40.));
#379 = CARTESIAN_POINT('', (40., 60., 0.));
#380 = CARTESIAN_POINT('', (40., 60., 40.));
#381 = CARTESIAN_POINT('', (35., 60., 0.));
#382 = CARTESIAN_POINT('', (35., 60., 40.));
#383 = ADVANCED_FACE('', (#384), #398, .T.);
#384 = FACE_OUTER_BOUND('', #385, .T.);
#385 = EDGE_LOOP('', (#386, #387, #388, #389, #390, #391, #392, #393, #394, #395, #396, #397));
#386 = ORIENTED_EDGE('', *, *, #31, .F.);
#387 = ORIENTED_EDGE('', *, *, #143, .T.);
#388 = ORIENTED_EDGE('', *, *, #371, .F.);
#389 = ORIENTED_EDGE('', *, *, #173, .F.);
#390 = ORIENTED_EDGE('', *, *, #195, .F.);
#391 = ORIENTED_EDGE('', *, *, #220, .F.);
#392 = ORIENTED_EDGE('', *, *, #242, .F.);
#393 = ORIENTED_EDGE('', *, *, #265, .T.);
#394 = ORIENTED_EDGE('', *, *, #289, .F.);
#395 = ORIENTED_EDGE('', *, *, #312, .T.);
#396 = ORIENTED_EDGE('', *, *, #336, .F.);
#397 = ORIENTED_EDGE('', *, *, #355, .F.);
#398 = B_SPLINE_SURFACE_WITH_KNOTS('', 1, 1, ((#399, #400), (#401, #402)), .UNSPECIFIED., .F., .F., .U., (2, 2), (2, 2), (-1.75900960464048E-15, 80.), (8.67361737988404E-18, 60.), .UNSPECIFIED.);
#399 = CARTESIAN_POINT('', (-1.75250439160557E-15, 8.67361737988404E-18, 40.));
#400 = CARTESIAN_POINT('', (-1.64842098304696E-15, 60., 40.));
#401 = CARTESIAN_POINT('', (80., 4.33680868994202E-17, 40.));
#402 = CARTESIAN_POINT('', (80., 60., 40.));
#403 = DRAUGHTING_MODEL('', (#411), #414);
#404 = PRESENTATION_STYLE_ASSIGNMENT((#405));
#405 = SURFACE_STYLE_USAGE(.POSITIVE., #406);
#406 = SURFACE_SIDE_STYLE('', (#407));
#407 = SURFACE_STYLE_FILL_AREA(#408);
#408 = FILL_AREA_STYLE('', (#409));
#409 = FILL_AREA_STYLE_COLOUR('', #410);
#410 = COLOUR_RGB('', 0.50196078431373, 0.50196078431373, 0.50196078431373);
#411 = STYLED_ITEM('', (#404), #1);
#412 = CARTESIAN_POINT('Origin', (0., 0., 0.));
#413 = GEOMETRIC_SET('', (#412));
#414 = (
   GEOMETRIC_REPRESENTATION_CONTEXT (3)
   GLOBAL_UNCERTAINTY_ASSIGNED_CONTEXT ((#416))
   GLOBAL_UNIT_ASSIGNED_CONTEXT ((#415, #417, #418))
   REPRESENTATION_CONTEXT ('', '3D')
);
#415 = (
   LENGTH_UNIT ()
   NAMED_UNIT (*)
   SI_UNIT (.MILLI., .METRE.)
);
#416 = UNCERTAINTY_MEASURE_WITH_UNIT(LENGTH_MEASURE(1.E-6), #415, 'DISTANCE_ACCURACY_VALUE', '');
#417 = (
   NAMED_UNIT (*)
   SI_UNIT ($, .STERADIAN.)
   SOLID_ANGLE_UNIT ()
);
#418 = (
   NAMED_UNIT (*)
   PLANE_ANGLE_UNIT ()
   SI_UNIT ($, .RADIAN.)
);
#419 = SHAPE_REPRESENTATION('', (#434), #414);
#420 = PRODUCT_DEFINITION_SHAPE('', '', #421);
#421 = PRODUCT_DEFINITION('', '', #424, #428);
#422 = APPLICATION_CONTEXT('configuration controlled 3D designs of mechanical parts and assemblies');
#423 = APPLICATION_PROTOCOL_DEFINITION('International Standard', 'automotive_design', 2002, #422);
#424 = PRODUCT_DEFINITION_FORMATION_WITH_SPECIFIED_SOURCE('', '', #425, .NOT_KNOWN.);
#425 = PRODUCT('LShape', 'LShape', '', (#426));
#426 = PRODUCT_CONTEXT('', #422, 'mechanical');
#427 = PRODUCT_RELATED_PRODUCT_CATEGORY('detail', '', (#425));
#428 = PRODUCT_DEFINITION_CONTEXT('part definition', #422, 'design');
#429 = SHAPE_DEFINITION_REPRESENTATION(#420, #419);
#430 = SHAPE_REPRESENTATION_RELATIONSHIP('', '', #419, #431);
#431 = SHAPE_REPRESENTATION('', (#413), #414);
#432 = SHAPE_REPRESENTATION_RELATIONSHIP('', '', #419, #433);
#433 = ADVANCED_BREP_SHAPE_REPRESENTATION('', (#1), #414);
#434 = AXIS2_PLACEMENT_3D('', #435, #436, #437);
#435 = CARTESIAN_POINT('', (0., 0., 0.));
#436 = DIRECTION('', (0., 0., 1.));
#437 = DIRECTION('', (1., 0., 0.));
ENDSEC;
END-ISO-10303-21;
