ISO-10303-21;
HEADER;
FILE_DESCRIPTION(('STEP'), '1');
FILE_NAME('UpdateCPCount', '2026-04-20T17:23:45', (''), (''), 'Express 3.1.2.0', 'Express Tool', 'Unknown');
FILE_SCHEMA(('AUTOMOTIVE_DESIGN'));
ENDSEC;

DATA;
#1 = MANIFOLD_SOLID_BREP('CP1_0', #2);
#2 = CLOSED_SHELL('', (#3, #39, #67, #95, #115, #127));
#3 = ADVANCED_FACE('', (#4), #34, .T.);
#4 = FACE_OUTER_BOUND('', #5, .T.);
#5 = EDGE_LOOP('', (#6, #15, #22, #29));
#6 = ORIENTED_EDGE('', *, *, #7, .T.);
#7 = EDGE_CURVE('', #8, #10, #12, .T.);
#8 = VERTEX_POINT('', #9);
#9 = CARTESIAN_POINT('', (0., 15., 0.));
#10 = VERTEX_POINT('', #11);
#11 = CARTESIAN_POINT('', (0., 15., 30.));
#12 = B_SPLINE_CURVE_WITH_KNOTS('', 1, (#13, #14), .UNSPECIFIED., .F., .U., (2, 2), (0., 30.), .UNSPECIFIED.);
#13 = CARTESIAN_POINT('', (0., 15., 0.));
#14 = CARTESIAN_POINT('', (0., 15., 30.));
#15 = ORIENTED_EDGE('', *, *, #16, .T.);
#16 = EDGE_CURVE('', #10, #17, #19, .T.);
#17 = VERTEX_POINT('', #18);
#18 = CARTESIAN_POINT('', (20., 15., 30.));
#19 = B_SPLINE_CURVE_WITH_KNOTS('', 1, (#20, #21), .UNSPECIFIED., .F., .U., (2, 2), (0., 20.), .UNSPECIFIED.);
#20 = CARTESIAN_POINT('', (0., 15., 30.));
#21 = CARTESIAN_POINT('', (20., 15., 30.));
#22 = ORIENTED_EDGE('', *, *, #23, .F.);
#23 = EDGE_CURVE('', #24, #17, #26, .T.);
#24 = VERTEX_POINT('', #25);
#25 = CARTESIAN_POINT('', (20., 15., 0.));
#26 = B_SPLINE_CURVE_WITH_KNOTS('', 1, (#27, #28), .UNSPECIFIED., .F., .U., (2, 2), (0., 30.), .UNSPECIFIED.);
#27 = CARTESIAN_POINT('', (20., 15., 0.));
#28 = CARTESIAN_POINT('', (20., 15., 30.));
#29 = ORIENTED_EDGE('', *, *, #30, .F.);
#30 = EDGE_CURVE('', #8, #24, #31, .T.);
#31 = B_SPLINE_CURVE_WITH_KNOTS('', 1, (#32, #33), .UNSPECIFIED., .F., .U., (2, 2), (0., 20.), .UNSPECIFIED.);
#32 = CARTESIAN_POINT('', (0., 15., 0.));
#33 = CARTESIAN_POINT('', (20., 15., 0.));
#34 = B_SPLINE_SURFACE_WITH_KNOTS('', 1, 1, ((#35, #36), (#37, #38)), .UNSPECIFIED., .F., .F., .U., (2, 2), (2, 2), (0., 30.), (0., 20.), .UNSPECIFIED.);
#35 = CARTESIAN_POINT('', (0., 15., 0.));
#36 = CARTESIAN_POINT('', (20., 15., 0.));
#37 = CARTESIAN_POINT('', (0., 15., 30.));
#38 = CARTESIAN_POINT('', (20., 15., 30.));
#39 = ADVANCED_FACE('', (#40), #62, .T.);
#40 = FACE_OUTER_BOUND('', #41, .T.);
#41 = EDGE_LOOP('', (#42, #49, #56, #61));
#42 = ORIENTED_EDGE('', *, *, #43, .F.);
#43 = EDGE_CURVE('', #44, #10, #46, .T.);
#44 = VERTEX_POINT('', #45);
#45 = CARTESIAN_POINT('', (0., 0., 30.));
#46 = B_SPLINE_CURVE_WITH_KNOTS('', 1, (#47, #48), .UNSPECIFIED., .F., .U., (2, 2), (0., 15.), .UNSPECIFIED.);
#47 = CARTESIAN_POINT('', (0., 0., 30.));
#48 = CARTESIAN_POINT('', (0., 15., 30.));
#49 = ORIENTED_EDGE('', *, *, #50, .T.);
#50 = EDGE_CURVE('', #44, #51, #53, .T.);
#51 = VERTEX_POINT('', #52);
#52 = CARTESIAN_POINT('', (20., 0., 30.));
#53 = B_SPLINE_CURVE_WITH_KNOTS('', 1, (#54, #55), .UNSPECIFIED., .F., .U., (2, 2), (0., 20.), .UNSPECIFIED.);
#54 = CARTESIAN_POINT('', (0., 0., 30.));
#55 = CARTESIAN_POINT('', (20., 0., 30.));
#56 = ORIENTED_EDGE('', *, *, #57, .T.);
#57 = EDGE_CURVE('', #51, #17, #58, .T.);
#58 = B_SPLINE_CURVE_WITH_KNOTS('', 1, (#59, #60), .UNSPECIFIED., .F., .U., (2, 2), (0., 15.), .UNSPECIFIED.);
#59 = CARTESIAN_POINT('', (20., 0., 30.));
#60 = CARTESIAN_POINT('', (20., 15., 30.));
#61 = ORIENTED_EDGE('', *, *, #16, .F.);
#62 = B_SPLINE_SURFACE_WITH_KNOTS('', 1, 1, ((#63, #64), (#65, #66)), .UNSPECIFIED., .F., .F., .U., (2, 2), (2, 2), (0., 20.), (0., 15.), .UNSPECIFIED.);
#63 = CARTESIAN_POINT('', (0., 0., 30.));
#64 = CARTESIAN_POINT('', (0., 15., 30.));
#65 = CARTESIAN_POINT('', (20., 0., 30.));
#66 = CARTESIAN_POINT('', (20., 15., 30.));
#67 = ADVANCED_FACE('', (#68), #90, .T.);
#68 = FACE_OUTER_BOUND('', #69, .T.);
#69 = EDGE_LOOP('', (#70, #77, #84, #89));
#70 = ORIENTED_EDGE('', *, *, #71, .F.);
#71 = EDGE_CURVE('', #72, #44, #74, .T.);
#72 = VERTEX_POINT('', #73);
#73 = CARTESIAN_POINT('', (0., 0., 0.));
#74 = B_SPLINE_CURVE_WITH_KNOTS('', 1, (#75, #76), .UNSPECIFIED., .F., .U., (2, 2), (0., 30.), .UNSPECIFIED.);
#75 = CARTESIAN_POINT('', (0., 0., 0.));
#76 = CARTESIAN_POINT('', (0., 0., 30.));
#77 = ORIENTED_EDGE('', *, *, #78, .T.);
#78 = EDGE_CURVE('', #72, #79, #81, .T.);
#79 = VERTEX_POINT('', #80);
#80 = CARTESIAN_POINT('', (20., 0., 0.));
#81 = B_SPLINE_CURVE_WITH_KNOTS('', 1, (#82, #83), .UNSPECIFIED., .F., .U., (2, 2), (0., 20.), .UNSPECIFIED.);
#82 = CARTESIAN_POINT('', (0., 0., 0.));
#83 = CARTESIAN_POINT('', (20., 0., 0.));
#84 = ORIENTED_EDGE('', *, *, #85, .T.);
#85 = EDGE_CURVE('', #79, #51, #86, .T.);
#86 = B_SPLINE_CURVE_WITH_KNOTS('', 1, (#87, #88), .UNSPECIFIED., .F., .U., (2, 2), (0., 30.), .UNSPECIFIED.);
#87 = CARTESIAN_POINT('', (20., 0., 0.));
#88 = CARTESIAN_POINT('', (20., 0., 30.));
#89 = ORIENTED_EDGE('', *, *, #50, .F.);
#90 = B_SPLINE_SURFACE_WITH_KNOTS('', 1, 1, ((#91, #92), (#93, #94)), .UNSPECIFIED., .F., .F., .U., (2, 2), (2, 2), (0., 20.), (0., 30.), .UNSPECIFIED.);
#91 = CARTESIAN_POINT('', (0., 0., 0.));
#92 = CARTESIAN_POINT('', (0., 0., 30.));
#93 = CARTESIAN_POINT('', (20., 0., 0.));
#94 = CARTESIAN_POINT('', (20., 0., 30.));
#95 = ADVANCED_FACE('', (#96), #110, .T.);
#96 = FACE_OUTER_BOUND('', #97, .T.);
#97 = EDGE_LOOP('', (#98, #103, #104, #109));
#98 = ORIENTED_EDGE('', *, *, #99, .T.);
#99 = EDGE_CURVE('', #72, #8, #100, .T.);
#100 = B_SPLINE_CURVE_WITH_KNOTS('', 1, (#101, #102), .UNSPECIFIED., .F., .U., (2, 2), (0., 15.), .UNSPECIFIED.);
#101 = CARTESIAN_POINT('', (0., 0., 0.));
#102 = CARTESIAN_POINT('', (0., 15., 0.));
#103 = ORIENTED_EDGE('', *, *, #30, .T.);
#104 = ORIENTED_EDGE('', *, *, #105, .F.);
#105 = EDGE_CURVE('', #79, #24, #106, .T.);
#106 = B_SPLINE_CURVE_WITH_KNOTS('', 1, (#107, #108), .UNSPECIFIED., .F., .U., (2, 2), (0., 15.), .UNSPECIFIED.);
#107 = CARTESIAN_POINT('', (20., 0., 0.));
#108 = CARTESIAN_POINT('', (20., 15., 0.));
#109 = ORIENTED_EDGE('', *, *, #78, .F.);
#110 = B_SPLINE_SURFACE_WITH_KNOTS('', 1, 1, ((#111, #112), (#113, #114)), .UNSPECIFIED., .F., .F., .U., (2, 2), (2, 2), (0., 15.), (0., 20.), .UNSPECIFIED.);
#111 = CARTESIAN_POINT('', (0., 0., 0.));
#112 = CARTESIAN_POINT('', (20., 0., 0.));
#113 = CARTESIAN_POINT('', (0., 15., 0.));
#114 = CARTESIAN_POINT('', (20., 15., 0.));
#115 = ADVANCED_FACE('', (#116), #122, .T.);
#116 = FACE_OUTER_BOUND('', #117, .T.);
#117 = EDGE_LOOP('', (#118, #119, #120, #121));
#118 = ORIENTED_EDGE('', *, *, #85, .F.);
#119 = ORIENTED_EDGE('', *, *, #105, .T.);
#120 = ORIENTED_EDGE('', *, *, #23, .T.);
#121 = ORIENTED_EDGE('', *, *, #57, .F.);
#122 = B_SPLINE_SURFACE_WITH_KNOTS('', 1, 1, ((#123, #124), (#125, #126)), .UNSPECIFIED., .F., .F., .U., (2, 2), (2, 2), (0., 15.), (0., 30.), .UNSPECIFIED.);
#123 = CARTESIAN_POINT('', (20., 0., 0.));
#124 = CARTESIAN_POINT('', (20., 0., 30.));
#125 = CARTESIAN_POINT('', (20., 15., 0.));
#126 = CARTESIAN_POINT('', (20., 15., 30.));
#127 = ADVANCED_FACE('', (#128), #134, .T.);
#128 = FACE_OUTER_BOUND('', #129, .T.);
#129 = EDGE_LOOP('', (#130, #131, #132, #133));
#130 = ORIENTED_EDGE('', *, *, #71, .T.);
#131 = ORIENTED_EDGE('', *, *, #43, .T.);
#132 = ORIENTED_EDGE('', *, *, #7, .F.);
#133 = ORIENTED_EDGE('', *, *, #99, .F.);
#134 = B_SPLINE_SURFACE_WITH_KNOTS('', 1, 1, ((#135, #136), (#137, #138)), .UNSPECIFIED., .F., .F., .U., (2, 2), (2, 2), (0., 30.), (0., 15.), .UNSPECIFIED.);
#135 = CARTESIAN_POINT('', (0., 0., 0.));
#136 = CARTESIAN_POINT('', (0., 15., 0.));
#137 = CARTESIAN_POINT('', (0., 0., 30.));
#138 = CARTESIAN_POINT('', (0., 15., 30.));
#139 = DRAUGHTING_MODEL('', (#147, #293, #439, #585, #731, #877), #880);
#140 = PRESENTATION_STYLE_ASSIGNMENT((#141));
#141 = SURFACE_STYLE_USAGE(.POSITIVE., #142);
#142 = SURFACE_SIDE_STYLE('', (#143));
#143 = SURFACE_STYLE_FILL_AREA(#144);
#144 = FILL_AREA_STYLE('', (#145));
#145 = FILL_AREA_STYLE_COLOUR('', #146);
#146 = COLOUR_RGB('', 0.50196078431373, 0.50196078431373, 0.50196078431373);
#147 = STYLED_ITEM('', (#140), #1);
#148 = MANIFOLD_SOLID_BREP('CP1_1', #149);
#149 = CLOSED_SHELL('', (#150, #186, #214, #242, #262, #274));
#150 = ADVANCED_FACE('', (#151), #181, .T.);
#151 = FACE_OUTER_BOUND('', #152, .T.);
#152 = EDGE_LOOP('', (#153, #162, #169, #176));
#153 = ORIENTED_EDGE('', *, *, #154, .T.);
#154 = EDGE_CURVE('', #155, #157, #159, .T.);
#155 = VERTEX_POINT('', #156);
#156 = CARTESIAN_POINT('', (-14.9999999998988, -5.50980765501986E-5, 0.));
#157 = VERTEX_POINT('', #158);
#158 = CARTESIAN_POINT('', (-14.9999999998988, -5.50980765501986E-5, 30.));
#159 = B_SPLINE_CURVE_WITH_KNOTS('', 1, (#160, #161), .UNSPECIFIED., .F., .U., (2, 2), (0., 30.), .UNSPECIFIED.);
#160 = CARTESIAN_POINT('', (-14.9999999998988, -5.50980765501986E-5, 0.));
#161 = CARTESIAN_POINT('', (-14.9999999998988, -5.50980765501986E-5, 30.));
#162 = ORIENTED_EDGE('', *, *, #163, .T.);
#163 = EDGE_CURVE('', #157, #164, #166, .T.);
#164 = VERTEX_POINT('', #165);
#165 = CARTESIAN_POINT('', (-15.0000734640009, 19.9999449017885, 30.));
#166 = B_SPLINE_CURVE_WITH_KNOTS('', 1, (#167, #168), .UNSPECIFIED., .F., .U., (2, 2), (0., 20.), .UNSPECIFIED.);
#167 = CARTESIAN_POINT('', (-14.9999999998988, -5.50980765501986E-5, 30.));
#168 = CARTESIAN_POINT('', (-15.0000734640009, 19.9999449017885, 30.));
#169 = ORIENTED_EDGE('', *, *, #170, .F.);
#170 = EDGE_CURVE('', #171, #164, #173, .T.);
#171 = VERTEX_POINT('', #172);
#172 = CARTESIAN_POINT('', (-15.0000734640009, 19.9999449017885, 0.));
#173 = B_SPLINE_CURVE_WITH_KNOTS('', 1, (#174, #175), .UNSPECIFIED., .F., .U., (2, 2), (0., 30.), .UNSPECIFIED.);
#174 = CARTESIAN_POINT('', (-15.0000734640009, 19.9999449017885, 0.));
#175 = CARTESIAN_POINT('', (-15.0000734640009, 19.9999449017885, 30.));
#176 = ORIENTED_EDGE('', *, *, #177, .F.);
#177 = EDGE_CURVE('', #155, #171, #178, .T.);
#178 = B_SPLINE_CURVE_WITH_KNOTS('', 1, (#179, #180), .UNSPECIFIED., .F., .U., (2, 2), (0., 20.), .UNSPECIFIED.);
#179 = CARTESIAN_POINT('', (-14.9999999998988, -5.50980765501986E-5, 0.));
#180 = CARTESIAN_POINT('', (-15.0000734640009, 19.9999449017885, 0.));
#181 = B_SPLINE_SURFACE_WITH_KNOTS('', 1, 1, ((#182, #183), (#184, #185)), .UNSPECIFIED., .F., .F., .U., (2, 2), (2, 2), (0., 30.), (0., 20.), .UNSPECIFIED.);
#182 = CARTESIAN_POINT('', (-14.9999999998988, -5.50980765501986E-5, 0.));
#183 = CARTESIAN_POINT('', (-15.0000734640009, 19.9999449017885, 0.));
#184 = CARTESIAN_POINT('', (-14.9999999998988, -5.50980765501986E-5, 30.));
#185 = CARTESIAN_POINT('', (-15.0000734640009, 19.9999449017885, 30.));
#186 = ADVANCED_FACE('', (#187), #209, .T.);
#187 = FACE_OUTER_BOUND('', #188, .T.);
#188 = EDGE_LOOP('', (#189, #196, #203, #208));
#189 = ORIENTED_EDGE('', *, *, #190, .F.);
#190 = EDGE_CURVE('', #191, #157, #193, .T.);
#191 = VERTEX_POINT('', #192);
#192 = CARTESIAN_POINT('', (0., 0., 30.));
#193 = B_SPLINE_CURVE_WITH_KNOTS('', 1, (#194, #195), .UNSPECIFIED., .F., .U., (2, 2), (0., 15.), .UNSPECIFIED.);
#194 = CARTESIAN_POINT('', (0., 0., 30.));
#195 = CARTESIAN_POINT('', (-14.9999999998988, -5.50980765501986E-5, 30.));
#196 = ORIENTED_EDGE('', *, *, #197, .T.);
#197 = EDGE_CURVE('', #191, #198, #200, .T.);
#198 = VERTEX_POINT('', #199);
#199 = CARTESIAN_POINT('', (-7.34641020669315E-5, 19.9999999998651, 30.));
#200 = B_SPLINE_CURVE_WITH_KNOTS('', 1, (#201, #202), .UNSPECIFIED., .F., .U., (2, 2), (0., 20.), .UNSPECIFIED.);
#201 = CARTESIAN_POINT('', (0., 0., 30.));
#202 = CARTESIAN_POINT('', (-7.34641020669315E-5, 19.9999999998651, 30.));
#203 = ORIENTED_EDGE('', *, *, #204, .T.);
#204 = EDGE_CURVE('', #198, #164, #205, .T.);
#205 = B_SPLINE_CURVE_WITH_KNOTS('', 1, (#206, #207), .UNSPECIFIED., .F., .U., (2, 2), (0., 15.), .UNSPECIFIED.);
#206 = CARTESIAN_POINT('', (-7.34641020669315E-5, 19.9999999998651, 30.));
#207 = CARTESIAN_POINT('', (-15.0000734640009, 19.9999449017885, 30.));
#208 = ORIENTED_EDGE('', *, *, #163, .F.);
#209 = B_SPLINE_SURFACE_WITH_KNOTS('', 1, 1, ((#210, #211), (#212, #213)), .UNSPECIFIED., .F., .F., .U., (2, 2), (2, 2), (0., 20.), (0., 15.), .UNSPECIFIED.);
#210 = CARTESIAN_POINT('', (0., 0., 30.));
#211 = CARTESIAN_POINT('', (-14.9999999998988, -5.50980765501986E-5, 30.));
#212 = CARTESIAN_POINT('', (-7.34641020669315E-5, 19.9999999998651, 30.));
#213 = CARTESIAN_POINT('', (-15.0000734640009, 19.9999449017885, 30.));
#214 = ADVANCED_FACE('', (#215), #237, .T.);
#215 = FACE_OUTER_BOUND('', #216, .T.);
#216 = EDGE_LOOP('', (#217, #224, #231, #236));
#217 = ORIENTED_EDGE('', *, *, #218, .F.);
#218 = EDGE_CURVE('', #219, #191, #221, .T.);
#219 = VERTEX_POINT('', #220);
#220 = CARTESIAN_POINT('', (0., 0., 0.));
#221 = B_SPLINE_CURVE_WITH_KNOTS('', 1, (#222, #223), .UNSPECIFIED., .F., .U., (2, 2), (0., 30.), .UNSPECIFIED.);
#222 = CARTESIAN_POINT('', (0., 0., 0.));
#223 = CARTESIAN_POINT('', (0., 0., 30.));
#224 = ORIENTED_EDGE('', *, *, #225, .T.);
#225 = EDGE_CURVE('', #219, #226, #228, .T.);
#226 = VERTEX_POINT('', #227);
#227 = CARTESIAN_POINT('', (-7.34641020669315E-5, 19.9999999998651, 0.));
#228 = B_SPLINE_CURVE_WITH_KNOTS('', 1, (#229, #230), .UNSPECIFIED., .F., .U., (2, 2), (0., 20.), .UNSPECIFIED.);
#229 = CARTESIAN_POINT('', (0., 0., 0.));
#230 = CARTESIAN_POINT('', (-7.34641020669315E-5, 19.9999999998651, 0.));
#231 = ORIENTED_EDGE('', *, *, #232, .T.);
#232 = EDGE_CURVE('', #226, #198, #233, .T.);
#233 = B_SPLINE_CURVE_WITH_KNOTS('', 1, (#234, #235), .UNSPECIFIED., .F., .U., (2, 2), (0., 30.), .UNSPECIFIED.);
#234 = CARTESIAN_POINT('', (-7.34641020669315E-5, 19.9999999998651, 0.));
#235 = CARTESIAN_POINT('', (-7.34641020669315E-5, 19.9999999998651, 30.));
#236 = ORIENTED_EDGE('', *, *, #197, .F.);
#237 = B_SPLINE_SURFACE_WITH_KNOTS('', 1, 1, ((#238, #239), (#240, #241)), .UNSPECIFIED., .F., .F., .U., (2, 2), (2, 2), (0., 20.), (0., 30.), .UNSPECIFIED.);
#238 = CARTESIAN_POINT('', (0., 0., 0.));
#239 = CARTESIAN_POINT('', (0., 0., 30.));
#240 = CARTESIAN_POINT('', (-7.34641020669315E-5, 19.9999999998651, 0.));
#241 = CARTESIAN_POINT('', (-7.34641020669315E-5, 19.9999999998651, 30.));
#242 = ADVANCED_FACE('', (#243), #257, .T.);
#243 = FACE_OUTER_BOUND('', #244, .T.);
#244 = EDGE_LOOP('', (#245, #250, #251, #256));
#245 = ORIENTED_EDGE('', *, *, #246, .T.);
#246 = EDGE_CURVE('', #219, #155, #247, .T.);
#247 = B_SPLINE_CURVE_WITH_KNOTS('', 1, (#248, #249), .UNSPECIFIED., .F., .U., (2, 2), (0., 15.), .UNSPECIFIED.);
#248 = CARTESIAN_POINT('', (0., 0., 0.));
#249 = CARTESIAN_POINT('', (-14.9999999998988, -5.50980765501986E-5, 0.));
#250 = ORIENTED_EDGE('', *, *, #177, .T.);
#251 = ORIENTED_EDGE('', *, *, #252, .F.);
#252 = EDGE_CURVE('', #226, #171, #253, .T.);
#253 = B_SPLINE_CURVE_WITH_KNOTS('', 1, (#254, #255), .UNSPECIFIED., .F., .U., (2, 2), (0., 15.), .UNSPECIFIED.);
#254 = CARTESIAN_POINT('', (-7.34641020669315E-5, 19.9999999998651, 0.));
#255 = CARTESIAN_POINT('', (-15.0000734640009, 19.9999449017885, 0.));
#256 = ORIENTED_EDGE('', *, *, #225, .F.);
#257 = B_SPLINE_SURFACE_WITH_KNOTS('', 1, 1, ((#258, #259), (#260, #261)), .UNSPECIFIED., .F., .F., .U., (2, 2), (2, 2), (0., 15.), (0., 20.), .UNSPECIFIED.);
#258 = CARTESIAN_POINT('', (0., 0., 0.));
#259 = CARTESIAN_POINT('', (-7.34641020669315E-5, 19.9999999998651, 0.));
#260 = CARTESIAN_POINT('', (-14.9999999998988, -5.50980765501986E-5, 0.));
#261 = CARTESIAN_POINT('', (-15.0000734640009, 19.9999449017885, 0.));
#262 = ADVANCED_FACE('', (#263), #269, .T.);
#263 = FACE_OUTER_BOUND('', #264, .T.);
#264 = EDGE_LOOP('', (#265, #266, #267, #268));
#265 = ORIENTED_EDGE('', *, *, #232, .F.);
#266 = ORIENTED_EDGE('', *, *, #252, .T.);
#267 = ORIENTED_EDGE('', *, *, #170, .T.);
#268 = ORIENTED_EDGE('', *, *, #204, .F.);
#269 = B_SPLINE_SURFACE_WITH_KNOTS('', 1, 1, ((#270, #271), (#272, #273)), .UNSPECIFIED., .F., .F., .U., (2, 2), (2, 2), (0., 15.), (0., 30.), .UNSPECIFIED.);
#270 = CARTESIAN_POINT('', (-7.34641020669315E-5, 19.9999999998651, 0.));
#271 = CARTESIAN_POINT('', (-7.34641020669315E-5, 19.9999999998651, 30.));
#272 = CARTESIAN_POINT('', (-15.0000734640009, 19.9999449017885, 0.));
#273 = CARTESIAN_POINT('', (-15.0000734640009, 19.9999449017885, 30.));
#274 = ADVANCED_FACE('', (#275), #281, .T.);
#275 = FACE_OUTER_BOUND('', #276, .T.);
#276 = EDGE_LOOP('', (#277, #278, #279, #280));
#277 = ORIENTED_EDGE('', *, *, #218, .T.);
#278 = ORIENTED_EDGE('', *, *, #190, .T.);
#279 = ORIENTED_EDGE('', *, *, #154, .F.);
#280 = ORIENTED_EDGE('', *, *, #246, .F.);
#281 = B_SPLINE_SURFACE_WITH_KNOTS('', 1, 1, ((#282, #283), (#284, #285)), .UNSPECIFIED., .F., .F., .U., (2, 2), (2, 2), (0., 30.), (0., 15.), .UNSPECIFIED.);
#282 = CARTESIAN_POINT('', (0., 0., 0.));
#283 = CARTESIAN_POINT('', (-14.9999999998988, -5.50980765501986E-5, 0.));
#284 = CARTESIAN_POINT('', (0., 0., 30.));
#285 = CARTESIAN_POINT('', (-14.9999999998988, -5.50980765501986E-5, 30.));
#286 = PRESENTATION_STYLE_ASSIGNMENT((#287));
#287 = SURFACE_STYLE_USAGE(.POSITIVE., #288);
#288 = SURFACE_SIDE_STYLE('', (#289));
#289 = SURFACE_STYLE_FILL_AREA(#290);
#290 = FILL_AREA_STYLE('', (#291));
#291 = FILL_AREA_STYLE_COLOUR('', #292);
#292 = COLOUR_RGB('', 0.50196078431373, 0.50196078431373, 0.50196078431373);
#293 = STYLED_ITEM('', (#286), #148);
#294 = MANIFOLD_SOLID_BREP('CP1_2', #295);
#295 = CLOSED_SHELL('', (#296, #332, #360, #388, #408, #420));
#296 = ADVANCED_FACE('', (#297), #327, .T.);
#297 = FACE_OUTER_BOUND('', #298, .T.);
#298 = EDGE_LOOP('', (#299, #308, #315, #322));
#299 = ORIENTED_EDGE('', *, *, #300, .T.);
#300 = EDGE_CURVE('', #301, #303, #305, .T.);
#301 = VERTEX_POINT('', #302);
#302 = CARTESIAN_POINT('', (0.000110196153099654, -14.9999999995952, 0.));
#303 = VERTEX_POINT('', #304);
#304 = CARTESIAN_POINT('', (0.000110196153099654, -14.9999999995952, 30.));
#305 = B_SPLINE_CURVE_WITH_KNOTS('', 1, (#306, #307), .UNSPECIFIED., .F., .U., (2, 2), (0., 30.), .UNSPECIFIED.);
#306 = CARTESIAN_POINT('', (0.000110196153099654, -14.9999999995952, 0.));
#307 = CARTESIAN_POINT('', (0.000110196153099654, -14.9999999995952, 30.));
#308 = ORIENTED_EDGE('', *, *, #309, .T.);
#309 = EDGE_CURVE('', #303, #310, #312, .T.);
#310 = VERTEX_POINT('', #311);
#311 = CARTESIAN_POINT('', (-19.9998898033072, -15.0001469277994, 30.));
#312 = B_SPLINE_CURVE_WITH_KNOTS('', 1, (#313, #314), .UNSPECIFIED., .F., .U., (2, 2), (0., 20.), .UNSPECIFIED.);
#313 = CARTESIAN_POINT('', (0.000110196153099654, -14.9999999995952, 30.));
#314 = CARTESIAN_POINT('', (-19.9998898033072, -15.0001469277994, 30.));
#315 = ORIENTED_EDGE('', *, *, #316, .F.);
#316 = EDGE_CURVE('', #317, #310, #319, .T.);
#317 = VERTEX_POINT('', #318);
#318 = CARTESIAN_POINT('', (-19.9998898033072, -15.0001469277994, 0.));
#319 = B_SPLINE_CURVE_WITH_KNOTS('', 1, (#320, #321), .UNSPECIFIED., .F., .U., (2, 2), (0., 30.), .UNSPECIFIED.);
#320 = CARTESIAN_POINT('', (-19.9998898033072, -15.0001469277994, 0.));
#321 = CARTESIAN_POINT('', (-19.9998898033072, -15.0001469277994, 30.));
#322 = ORIENTED_EDGE('', *, *, #323, .F.);
#323 = EDGE_CURVE('', #301, #317, #324, .T.);
#324 = B_SPLINE_CURVE_WITH_KNOTS('', 1, (#325, #326), .UNSPECIFIED., .F., .U., (2, 2), (0., 20.), .UNSPECIFIED.);
#325 = CARTESIAN_POINT('', (0.000110196153099654, -14.9999999995952, 0.));
#326 = CARTESIAN_POINT('', (-19.9998898033072, -15.0001469277994, 0.));
#327 = B_SPLINE_SURFACE_WITH_KNOTS('', 1, 1, ((#328, #329), (#330, #331)), .UNSPECIFIED., .F., .F., .U., (2, 2), (2, 2), (0., 30.), (0., 20.), .UNSPECIFIED.);
#328 = CARTESIAN_POINT('', (0.000110196153099654, -14.9999999995952, 0.));
#329 = CARTESIAN_POINT('', (-19.9998898033072, -15.0001469277994, 0.));
#330 = CARTESIAN_POINT('', (0.000110196153099654, -14.9999999995952, 30.));
#331 = CARTESIAN_POINT('', (-19.9998898033072, -15.0001469277994, 30.));
#332 = ADVANCED_FACE('', (#333), #355, .T.);
#333 = FACE_OUTER_BOUND('', #334, .T.);
#334 = EDGE_LOOP('', (#335, #342, #349, #354));
#335 = ORIENTED_EDGE('', *, *, #336, .F.);
#336 = EDGE_CURVE('', #337, #303, #339, .T.);
#337 = VERTEX_POINT('', #338);
#338 = CARTESIAN_POINT('', (0., 0., 30.));
#339 = B_SPLINE_CURVE_WITH_KNOTS('', 1, (#340, #341), .UNSPECIFIED., .F., .U., (2, 2), (0., 15.), .UNSPECIFIED.);
#340 = CARTESIAN_POINT('', (0., 0., 30.));
#341 = CARTESIAN_POINT('', (0.000110196153099654, -14.9999999995952, 30.));
#342 = ORIENTED_EDGE('', *, *, #343, .T.);
#343 = EDGE_CURVE('', #337, #344, #346, .T.);
#344 = VERTEX_POINT('', #345);
#345 = CARTESIAN_POINT('', (-19.9999999994603, -0.000146928204132872, 30.));
#346 = B_SPLINE_CURVE_WITH_KNOTS('', 1, (#347, #348), .UNSPECIFIED., .F., .U., (2, 2), (0., 20.), .UNSPECIFIED.);
#347 = CARTESIAN_POINT('', (0., 0., 30.));
#348 = CARTESIAN_POINT('', (-19.9999999994603, -0.000146928204132872, 30.));
#349 = ORIENTED_EDGE('', *, *, #350, .T.);
#350 = EDGE_CURVE('', #344, #310, #351, .T.);
#351 = B_SPLINE_CURVE_WITH_KNOTS('', 1, (#352, #353), .UNSPECIFIED., .F., .U., (2, 2), (0., 15.), .UNSPECIFIED.);
#352 = CARTESIAN_POINT('', (-19.9999999994603, -0.000146928204132872, 30.));
#353 = CARTESIAN_POINT('', (-19.9998898033072, -15.0001469277994, 30.));
#354 = ORIENTED_EDGE('', *, *, #309, .F.);
#355 = B_SPLINE_SURFACE_WITH_KNOTS('', 1, 1, ((#356, #357), (#358, #359)), .UNSPECIFIED., .F., .F., .U., (2, 2), (2, 2), (0., 20.), (0., 15.), .UNSPECIFIED.);
#356 = CARTESIAN_POINT('', (0., 0., 30.));
#357 = CARTESIAN_POINT('', (0.000110196153099654, -14.9999999995952, 30.));
#358 = CARTESIAN_POINT('', (-19.9999999994603, -0.000146928204132872, 30.));
#359 = CARTESIAN_POINT('', (-19.9998898033072, -15.0001469277994, 30.));
#360 = ADVANCED_FACE('', (#361), #383, .T.);
#361 = FACE_OUTER_BOUND('', #362, .T.);
#362 = EDGE_LOOP('', (#363, #370, #377, #382));
#363 = ORIENTED_EDGE('', *, *, #364, .F.);
#364 = EDGE_CURVE('', #365, #337, #367, .T.);
#365 = VERTEX_POINT('', #366);
#366 = CARTESIAN_POINT('', (0., 0., 0.));
#367 = B_SPLINE_CURVE_WITH_KNOTS('', 1, (#368, #369), .UNSPECIFIED., .F., .U., (2, 2), (0., 30.), .UNSPECIFIED.);
#368 = CARTESIAN_POINT('', (0., 0., 0.));
#369 = CARTESIAN_POINT('', (0., 0., 30.));
#370 = ORIENTED_EDGE('', *, *, #371, .T.);
#371 = EDGE_CURVE('', #365, #372, #374, .T.);
#372 = VERTEX_POINT('', #373);
#373 = CARTESIAN_POINT('', (-19.9999999994603, -0.000146928204132872, 0.));
#374 = B_SPLINE_CURVE_WITH_KNOTS('', 1, (#375, #376), .UNSPECIFIED., .F., .U., (2, 2), (0., 20.), .UNSPECIFIED.);
#375 = CARTESIAN_POINT('', (0., 0., 0.));
#376 = CARTESIAN_POINT('', (-19.9999999994603, -0.000146928204132872, 0.));
#377 = ORIENTED_EDGE('', *, *, #378, .T.);
#378 = EDGE_CURVE('', #372, #344, #379, .T.);
#379 = B_SPLINE_CURVE_WITH_KNOTS('', 1, (#380, #381), .UNSPECIFIED., .F., .U., (2, 2), (0., 30.), .UNSPECIFIED.);
#380 = CARTESIAN_POINT('', (-19.9999999994603, -0.000146928204132872, 0.));
#381 = CARTESIAN_POINT('', (-19.9999999994603, -0.000146928204132872, 30.));
#382 = ORIENTED_EDGE('', *, *, #343, .F.);
#383 = B_SPLINE_SURFACE_WITH_KNOTS('', 1, 1, ((#384, #385), (#386, #387)), .UNSPECIFIED., .F., .F., .U., (2, 2), (2, 2), (0., 20.), (0., 30.), .UNSPECIFIED.);
#384 = CARTESIAN_POINT('', (0., 0., 0.));
#385 = CARTESIAN_POINT('', (0., 0., 30.));
#386 = CARTESIAN_POINT('', (-19.9999999994603, -0.000146928204132872, 0.));
#387 = CARTESIAN_POINT('', (-19.9999999994603, -0.000146928204132872, 30.));
#388 = ADVANCED_FACE('', (#389), #403, .T.);
#389 = FACE_OUTER_BOUND('', #390, .T.);
#390 = EDGE_LOOP('', (#391, #396, #397, #402));
#391 = ORIENTED_EDGE('', *, *, #392, .T.);
#392 = EDGE_CURVE('', #365, #301, #393, .T.);
#393 = B_SPLINE_CURVE_WITH_KNOTS('', 1, (#394, #395), .UNSPECIFIED., .F., .U., (2, 2), (0., 15.), .UNSPECIFIED.);
#394 = CARTESIAN_POINT('', (0., 0., 0.));
#395 = CARTESIAN_POINT('', (0.000110196153099654, -14.9999999995952, 0.));
#396 = ORIENTED_EDGE('', *, *, #323, .T.);
#397 = ORIENTED_EDGE('', *, *, #398, .F.);
#398 = EDGE_CURVE('', #372, #317, #399, .T.);
#399 = B_SPLINE_CURVE_WITH_KNOTS('', 1, (#400, #401), .UNSPECIFIED., .F., .U., (2, 2), (0., 15.), .UNSPECIFIED.);
#400 = CARTESIAN_POINT('', (-19.9999999994603, -0.000146928204132872, 0.));
#401 = CARTESIAN_POINT('', (-19.9998898033072, -15.0001469277994, 0.));
#402 = ORIENTED_EDGE('', *, *, #371, .F.);
#403 = B_SPLINE_SURFACE_WITH_KNOTS('', 1, 1, ((#404, #405), (#406, #407)), .UNSPECIFIED., .F., .F., .U., (2, 2), (2, 2), (0., 15.), (0., 20.), .UNSPECIFIED.);
#404 = CARTESIAN_POINT('', (0., 0., 0.));
#405 = CARTESIAN_POINT('', (-19.9999999994603, -0.000146928204132872, 0.));
#406 = CARTESIAN_POINT('', (0.000110196153099654, -14.9999999995952, 0.));
#407 = CARTESIAN_POINT('', (-19.9998898033072, -15.0001469277994, 0.));
#408 = ADVANCED_FACE('', (#409), #415, .T.);
#409 = FACE_OUTER_BOUND('', #410, .T.);
#410 = EDGE_LOOP('', (#411, #412, #413, #414));
#411 = ORIENTED_EDGE('', *, *, #378, .F.);
#412 = ORIENTED_EDGE('', *, *, #398, .T.);
#413 = ORIENTED_EDGE('', *, *, #316, .T.);
#414 = ORIENTED_EDGE('', *, *, #350, .F.);
#415 = B_SPLINE_SURFACE_WITH_KNOTS('', 1, 1, ((#416, #417), (#418, #419)), .UNSPECIFIED., .F., .F., .U., (2, 2), (2, 2), (0., 15.), (0., 30.), .UNSPECIFIED.);
#416 = CARTESIAN_POINT('', (-19.9999999994603, -0.000146928204132872, 0.));
#417 = CARTESIAN_POINT('', (-19.9999999994603, -0.000146928204132872, 30.));
#418 = CARTESIAN_POINT('', (-19.9998898033072, -15.0001469277994, 0.));
#419 = CARTESIAN_POINT('', (-19.9998898033072, -15.0001469277994, 30.));
#420 = ADVANCED_FACE('', (#421), #427, .T.);
#421 = FACE_OUTER_BOUND('', #422, .T.);
#422 = EDGE_LOOP('', (#423, #424, #425, #426));
#423 = ORIENTED_EDGE('', *, *, #364, .T.);
#424 = ORIENTED_EDGE('', *, *, #336, .T.);
#425 = ORIENTED_EDGE('', *, *, #300, .F.);
#426 = ORIENTED_EDGE('', *, *, #392, .F.);
#427 = B_SPLINE_SURFACE_WITH_KNOTS('', 1, 1, ((#428, #429), (#430, #431)), .UNSPECIFIED., .F., .F., .U., (2, 2), (2, 2), (0., 30.), (0., 15.), .UNSPECIFIED.);
#428 = CARTESIAN_POINT('', (0., 0., 0.));
#429 = CARTESIAN_POINT('', (0.000110196153099654, -14.9999999995952, 0.));
#430 = CARTESIAN_POINT('', (0., 0., 30.));
#431 = CARTESIAN_POINT('', (0.000110196153099654, -14.9999999995952, 30.));
#432 = PRESENTATION_STYLE_ASSIGNMENT((#433));
#433 = SURFACE_STYLE_USAGE(.POSITIVE., #434);
#434 = SURFACE_SIDE_STYLE('', (#435));
#435 = SURFACE_STYLE_FILL_AREA(#436);
#436 = FILL_AREA_STYLE('', (#437));
#437 = FILL_AREA_STYLE_COLOUR('', #438);
#438 = COLOUR_RGB('', 0.50196078431373, 0.50196078431373, 0.50196078431373);
#439 = STYLED_ITEM('', (#432), #294);
#440 = MANIFOLD_SOLID_BREP('CP1_3', #441);
#441 = CLOSED_SHELL('', (#442, #478, #506, #534, #554, #566));
#442 = ADVANCED_FACE('', (#443), #473, .T.);
#443 = FACE_OUTER_BOUND('', #444, .T.);
#444 = EDGE_LOOP('', (#445, #454, #461, #468));
#445 = ORIENTED_EDGE('', *, *, #446, .T.);
#446 = EDGE_CURVE('', #447, #449, #451, .T.);
#447 = VERTEX_POINT('', #448);
#448 = CARTESIAN_POINT('', (14.9999999990893, 0.000165294229644292, 0.));
#449 = VERTEX_POINT('', #450);
#450 = CARTESIAN_POINT('', (14.9999999990893, 0.000165294229644292, 30.));
#451 = B_SPLINE_CURVE_WITH_KNOTS('', 1, (#452, #453), .UNSPECIFIED., .F., .U., (2, 2), (0., 30.), .UNSPECIFIED.);
#452 = CARTESIAN_POINT('', (14.9999999990893, 0.000165294229644292, 0.));
#453 = CARTESIAN_POINT('', (14.9999999990893, 0.000165294229644292, 30.));
#454 = ORIENTED_EDGE('', *, *, #455, .T.);
#455 = EDGE_CURVE('', #449, #456, #458, .T.);
#456 = VERTEX_POINT('', #457);
#457 = CARTESIAN_POINT('', (15.0002203913955, -19.999834704556, 30.));
#458 = B_SPLINE_CURVE_WITH_KNOTS('', 1, (#459, #460), .UNSPECIFIED., .F., .U., (2, 2), (0., 20.), .UNSPECIFIED.);
#459 = CARTESIAN_POINT('', (14.9999999990893, 0.000165294229644292, 30.));
#460 = CARTESIAN_POINT('', (15.0002203913955, -19.999834704556, 30.));
#461 = ORIENTED_EDGE('', *, *, #462, .F.);
#462 = EDGE_CURVE('', #463, #456, #465, .T.);
#463 = VERTEX_POINT('', #464);
#464 = CARTESIAN_POINT('', (15.0002203913955, -19.999834704556, 0.));
#465 = B_SPLINE_CURVE_WITH_KNOTS('', 1, (#466, #467), .UNSPECIFIED., .F., .U., (2, 2), (0., 30.), .UNSPECIFIED.);
#466 = CARTESIAN_POINT('', (15.0002203913955, -19.999834704556, 0.));
#467 = CARTESIAN_POINT('', (15.0002203913955, -19.999834704556, 30.));
#468 = ORIENTED_EDGE('', *, *, #469, .F.);
#469 = EDGE_CURVE('', #447, #463, #470, .T.);
#470 = B_SPLINE_CURVE_WITH_KNOTS('', 1, (#471, #472), .UNSPECIFIED., .F., .U., (2, 2), (0., 20.), .UNSPECIFIED.);
#471 = CARTESIAN_POINT('', (14.9999999990893, 0.000165294229644292, 0.));
#472 = CARTESIAN_POINT('', (15.0002203913955, -19.999834704556, 0.));
#473 = B_SPLINE_SURFACE_WITH_KNOTS('', 1, 1, ((#474, #475), (#476, #477)), .UNSPECIFIED., .F., .F., .U., (2, 2), (2, 2), (0., 30.), (0., 20.), .UNSPECIFIED.);
#474 = CARTESIAN_POINT('', (14.9999999990893, 0.000165294229644292, 0.));
#475 = CARTESIAN_POINT('', (15.0002203913955, -19.999834704556, 0.));
#476 = CARTESIAN_POINT('', (14.9999999990893, 0.000165294229644292, 30.));
#477 = CARTESIAN_POINT('', (15.0002203913955, -19.999834704556, 30.));
#478 = ADVANCED_FACE('', (#479), #501, .T.);
#479 = FACE_OUTER_BOUND('', #480, .T.);
#480 = EDGE_LOOP('', (#481, #488, #495, #500));
#481 = ORIENTED_EDGE('', *, *, #482, .F.);
#482 = EDGE_CURVE('', #483, #449, #485, .T.);
#483 = VERTEX_POINT('', #484);
#484 = CARTESIAN_POINT('', (0., 0., 30.));
#485 = B_SPLINE_CURVE_WITH_KNOTS('', 1, (#486, #487), .UNSPECIFIED., .F., .U., (2, 2), (0., 15.), .UNSPECIFIED.);
#486 = CARTESIAN_POINT('', (0., 0., 30.));
#487 = CARTESIAN_POINT('', (14.9999999990893, 0.000165294229644292, 30.));
#488 = ORIENTED_EDGE('', *, *, #489, .T.);
#489 = EDGE_CURVE('', #483, #490, #492, .T.);
#490 = VERTEX_POINT('', #491);
#491 = CARTESIAN_POINT('', (0.000220392306192389, -19.9999999987857, 30.));
#492 = B_SPLINE_CURVE_WITH_KNOTS('', 1, (#493, #494), .UNSPECIFIED., .F., .U., (2, 2), (0., 20.), .UNSPECIFIED.);
#493 = CARTESIAN_POINT('', (0., 0., 30.));
#494 = CARTESIAN_POINT('', (0.000220392306192389, -19.9999999987857, 30.));
#495 = ORIENTED_EDGE('', *, *, #496, .T.);
#496 = EDGE_CURVE('', #490, #456, #497, .T.);
#497 = B_SPLINE_CURVE_WITH_KNOTS('', 1, (#498, #499), .UNSPECIFIED., .F., .U., (2, 2), (0., 15.), .UNSPECIFIED.);
#498 = CARTESIAN_POINT('', (0.000220392306192389, -19.9999999987857, 30.));
#499 = CARTESIAN_POINT('', (15.0002203913955, -19.999834704556, 30.));
#500 = ORIENTED_EDGE('', *, *, #455, .F.);
#501 = B_SPLINE_SURFACE_WITH_KNOTS('', 1, 1, ((#502, #503), (#504, #505)), .UNSPECIFIED., .F., .F., .U., (2, 2), (2, 2), (0., 20.), (0., 15.), .UNSPECIFIED.);
#502 = CARTESIAN_POINT('', (0., 0., 30.));
#503 = CARTESIAN_POINT('', (14.9999999990893, 0.000165294229644292, 30.));
#504 = CARTESIAN_POINT('', (0.000220392306192389, -19.9999999987857, 30.));
#505 = CARTESIAN_POINT('', (15.0002203913955, -19.999834704556, 30.));
#506 = ADVANCED_FACE('', (#507), #529, .T.);
#507 = FACE_OUTER_BOUND('', #508, .T.);
#508 = EDGE_LOOP('', (#509, #516, #523, #528));
#509 = ORIENTED_EDGE('', *, *, #510, .F.);
#510 = EDGE_CURVE('', #511, #483, #513, .T.);
#511 = VERTEX_POINT('', #512);
#512 = CARTESIAN_POINT('', (0., 0., 0.));
#513 = B_SPLINE_CURVE_WITH_KNOTS('', 1, (#514, #515), .UNSPECIFIED., .F., .U., (2, 2), (0., 30.), .UNSPECIFIED.);
#514 = CARTESIAN_POINT('', (0., 0., 0.));
#515 = CARTESIAN_POINT('', (0., 0., 30.));
#516 = ORIENTED_EDGE('', *, *, #517, .T.);
#517 = EDGE_CURVE('', #511, #518, #520, .T.);
#518 = VERTEX_POINT('', #519);
#519 = CARTESIAN_POINT('', (0.000220392306192389, -19.9999999987857, 0.));
#520 = B_SPLINE_CURVE_WITH_KNOTS('', 1, (#521, #522), .UNSPECIFIED., .F., .U., (2, 2), (0., 20.), .UNSPECIFIED.);
#521 = CARTESIAN_POINT('', (0., 0., 0.));
#522 = CARTESIAN_POINT('', (0.000220392306192389, -19.9999999987857, 0.));
#523 = ORIENTED_EDGE('', *, *, #524, .T.);
#524 = EDGE_CURVE('', #518, #490, #525, .T.);
#525 = B_SPLINE_CURVE_WITH_KNOTS('', 1, (#526, #527), .UNSPECIFIED., .F., .U., (2, 2), (0., 30.), .UNSPECIFIED.);
#526 = CARTESIAN_POINT('', (0.000220392306192389, -19.9999999987857, 0.));
#527 = CARTESIAN_POINT('', (0.000220392306192389, -19.9999999987857, 30.));
#528 = ORIENTED_EDGE('', *, *, #489, .F.);
#529 = B_SPLINE_SURFACE_WITH_KNOTS('', 1, 1, ((#530, #531), (#532, #533)), .UNSPECIFIED., .F., .F., .U., (2, 2), (2, 2), (0., 20.), (0., 30.), .UNSPECIFIED.);
#530 = CARTESIAN_POINT('', (0., 0., 0.));
#531 = CARTESIAN_POINT('', (0., 0., 30.));
#532 = CARTESIAN_POINT('', (0.000220392306192389, -19.9999999987857, 0.));
#533 = CARTESIAN_POINT('', (0.000220392306192389, -19.9999999987857, 30.));
#534 = ADVANCED_FACE('', (#535), #549, .T.);
#535 = FACE_OUTER_BOUND('', #536, .T.);
#536 = EDGE_LOOP('', (#537, #542, #543, #548));
#537 = ORIENTED_EDGE('', *, *, #538, .T.);
#538 = EDGE_CURVE('', #511, #447, #539, .T.);
#539 = B_SPLINE_CURVE_WITH_KNOTS('', 1, (#540, #541), .UNSPECIFIED., .F., .U., (2, 2), (0., 15.), .UNSPECIFIED.);
#540 = CARTESIAN_POINT('', (0., 0., 0.));
#541 = CARTESIAN_POINT('', (14.9999999990893, 0.000165294229644292, 0.));
#542 = ORIENTED_EDGE('', *, *, #469, .T.);
#543 = ORIENTED_EDGE('', *, *, #544, .F.);
#544 = EDGE_CURVE('', #518, #463, #545, .T.);
#545 = B_SPLINE_CURVE_WITH_KNOTS('', 1, (#546, #547), .UNSPECIFIED., .F., .U., (2, 2), (0., 15.), .UNSPECIFIED.);
#546 = CARTESIAN_POINT('', (0.000220392306192389, -19.9999999987857, 0.));
#547 = CARTESIAN_POINT('', (15.0002203913955, -19.999834704556, 0.));
#548 = ORIENTED_EDGE('', *, *, #517, .F.);
#549 = B_SPLINE_SURFACE_WITH_KNOTS('', 1, 1, ((#550, #551), (#552, #553)), .UNSPECIFIED., .F., .F., .U., (2, 2), (2, 2), (0., 15.), (0., 20.), .UNSPECIFIED.);
#550 = CARTESIAN_POINT('', (0., 0., 0.));
#551 = CARTESIAN_POINT('', (0.000220392306192389, -19.9999999987857, 0.));
#552 = CARTESIAN_POINT('', (14.9999999990893, 0.000165294229644292, 0.));
#553 = CARTESIAN_POINT('', (15.0002203913955, -19.999834704556, 0.));
#554 = ADVANCED_FACE('', (#555), #561, .T.);
#555 = FACE_OUTER_BOUND('', #556, .T.);
#556 = EDGE_LOOP('', (#557, #558, #559, #560));
#557 = ORIENTED_EDGE('', *, *, #524, .F.);
#558 = ORIENTED_EDGE('', *, *, #544, .T.);
#559 = ORIENTED_EDGE('', *, *, #462, .T.);
#560 = ORIENTED_EDGE('', *, *, #496, .F.);
#561 = B_SPLINE_SURFACE_WITH_KNOTS('', 1, 1, ((#562, #563), (#564, #565)), .UNSPECIFIED., .F., .F., .U., (2, 2), (2, 2), (0., 15.), (0., 30.), .UNSPECIFIED.);
#562 = CARTESIAN_POINT('', (0.000220392306192389, -19.9999999987857, 0.));
#563 = CARTESIAN_POINT('', (0.000220392306192389, -19.9999999987857, 30.));
#564 = CARTESIAN_POINT('', (15.0002203913955, -19.999834704556, 0.));
#565 = CARTESIAN_POINT('', (15.0002203913955, -19.999834704556, 30.));
#566 = ADVANCED_FACE('', (#567), #573, .T.);
#567 = FACE_OUTER_BOUND('', #568, .T.);
#568 = EDGE_LOOP('', (#569, #570, #571, #572));
#569 = ORIENTED_EDGE('', *, *, #510, .T.);
#570 = ORIENTED_EDGE('', *, *, #482, .T.);
#571 = ORIENTED_EDGE('', *, *, #446, .F.);
#572 = ORIENTED_EDGE('', *, *, #538, .F.);
#573 = B_SPLINE_SURFACE_WITH_KNOTS('', 1, 1, ((#574, #575), (#576, #577)), .UNSPECIFIED., .F., .F., .U., (2, 2), (2, 2), (0., 30.), (0., 15.), .UNSPECIFIED.);
#574 = CARTESIAN_POINT('', (0., 0., 0.));
#575 = CARTESIAN_POINT('', (14.9999999990893, 0.000165294229644292, 0.));
#576 = CARTESIAN_POINT('', (0., 0., 30.));
#577 = CARTESIAN_POINT('', (14.9999999990893, 0.000165294229644292, 30.));
#578 = PRESENTATION_STYLE_ASSIGNMENT((#579));
#579 = SURFACE_STYLE_USAGE(.POSITIVE., #580);
#580 = SURFACE_SIDE_STYLE('', (#581));
#581 = SURFACE_STYLE_FILL_AREA(#582);
#582 = FILL_AREA_STYLE('', (#583));
#583 = FILL_AREA_STYLE_COLOUR('', #584);
#584 = COLOUR_RGB('', 0.50196078431373, 0.50196078431373, 0.50196078431373);
#585 = STYLED_ITEM('', (#578), #440);
#586 = MANIFOLD_SOLID_BREP('CP1_4', #587);
#587 = CLOSED_SHELL('', (#588, #624, #652, #680, #700, #712));
#588 = ADVANCED_FACE('', (#589), #619, .T.);
#589 = FACE_OUTER_BOUND('', #590, .T.);
#590 = EDGE_LOOP('', (#591, #600, #607, #614));
#591 = ORIENTED_EDGE('', *, *, #592, .T.);
#592 = EDGE_CURVE('', #593, #595, #597, .T.);
#593 = VERTEX_POINT('', #594);
#594 = CARTESIAN_POINT('', (-0.00022039230619336, 14.9999999983809, 0.));
#595 = VERTEX_POINT('', #596);
#596 = CARTESIAN_POINT('', (-0.00022039230619336, 14.9999999983809, 30.));
#597 = B_SPLINE_CURVE_WITH_KNOTS('', 1, (#598, #599), .UNSPECIFIED., .F., .U., (2, 2), (0., 30.), .UNSPECIFIED.);
#598 = CARTESIAN_POINT('', (-0.00022039230619336, 14.9999999983809, 0.));
#599 = CARTESIAN_POINT('', (-0.00022039230619336, 14.9999999983809, 30.));
#600 = ORIENTED_EDGE('', *, *, #601, .T.);
#601 = EDGE_CURVE('', #595, #602, #604, .T.);
#602 = VERTEX_POINT('', #603);
#603 = CARTESIAN_POINT('', (19.999779605535, 15.0002938547892, 30.));
#604 = B_SPLINE_CURVE_WITH_KNOTS('', 1, (#605, #606), .UNSPECIFIED., .F., .U., (2, 2), (0., 20.), .UNSPECIFIED.);
#605 = CARTESIAN_POINT('', (-0.00022039230619336, 14.9999999983809, 30.));
#606 = CARTESIAN_POINT('', (19.999779605535, 15.0002938547892, 30.));
#607 = ORIENTED_EDGE('', *, *, #608, .F.);
#608 = EDGE_CURVE('', #609, #602, #611, .T.);
#609 = VERTEX_POINT('', #610);
#610 = CARTESIAN_POINT('', (19.999779605535, 15.0002938547892, 0.));
#611 = B_SPLINE_CURVE_WITH_KNOTS('', 1, (#612, #613), .UNSPECIFIED., .F., .U., (2, 2), (0., 30.), .UNSPECIFIED.);
#612 = CARTESIAN_POINT('', (19.999779605535, 15.0002938547892, 0.));
#613 = CARTESIAN_POINT('', (19.999779605535, 15.0002938547892, 30.));
#614 = ORIENTED_EDGE('', *, *, #615, .F.);
#615 = EDGE_CURVE('', #593, #609, #616, .T.);
#616 = B_SPLINE_CURVE_WITH_KNOTS('', 1, (#617, #618), .UNSPECIFIED., .F., .U., (2, 2), (0., 20.), .UNSPECIFIED.);
#617 = CARTESIAN_POINT('', (-0.00022039230619336, 14.9999999983809, 0.));
#618 = CARTESIAN_POINT('', (19.999779605535, 15.0002938547892, 0.));
#619 = B_SPLINE_SURFACE_WITH_KNOTS('', 1, 1, ((#620, #621), (#622, #623)), .UNSPECIFIED., .F., .F., .U., (2, 2), (2, 2), (0., 30.), (0., 20.), .UNSPECIFIED.);
#620 = CARTESIAN_POINT('', (-0.00022039230619336, 14.9999999983809, 0.));
#621 = CARTESIAN_POINT('', (19.999779605535, 15.0002938547892, 0.));
#622 = CARTESIAN_POINT('', (-0.00022039230619336, 14.9999999983809, 30.));
#623 = CARTESIAN_POINT('', (19.999779605535, 15.0002938547892, 30.));
#624 = ADVANCED_FACE('', (#625), #647, .T.);
#625 = FACE_OUTER_BOUND('', #626, .T.);
#626 = EDGE_LOOP('', (#627, #634, #641, #646));
#627 = ORIENTED_EDGE('', *, *, #628, .F.);
#628 = EDGE_CURVE('', #629, #595, #631, .T.);
#629 = VERTEX_POINT('', #630);
#630 = CARTESIAN_POINT('', (0., 0., 30.));
#631 = B_SPLINE_CURVE_WITH_KNOTS('', 1, (#632, #633), .UNSPECIFIED., .F., .U., (2, 2), (0., 15.), .UNSPECIFIED.);
#632 = CARTESIAN_POINT('', (0., 0., 30.));
#633 = CARTESIAN_POINT('', (-0.00022039230619336, 14.9999999983809, 30.));
#634 = ORIENTED_EDGE('', *, *, #635, .T.);
#635 = EDGE_CURVE('', #629, #636, #638, .T.);
#636 = VERTEX_POINT('', #637);
#637 = CARTESIAN_POINT('', (19.9999999978412, 0.000293856408257814, 30.));
#638 = B_SPLINE_CURVE_WITH_KNOTS('', 1, (#639, #640), .UNSPECIFIED., .F., .U., (2, 2), (0., 20.), .UNSPECIFIED.);
#639 = CARTESIAN_POINT('', (0., 0., 30.));
#640 = CARTESIAN_POINT('', (19.9999999978412, 0.000293856408257814, 30.));
#641 = ORIENTED_EDGE('', *, *, #642, .T.);
#642 = EDGE_CURVE('', #636, #602, #643, .T.);
#643 = B_SPLINE_CURVE_WITH_KNOTS('', 1, (#644, #645), .UNSPECIFIED., .F., .U., (2, 2), (0., 15.), .UNSPECIFIED.);
#644 = CARTESIAN_POINT('', (19.9999999978412, 0.000293856408257814, 30.));
#645 = CARTESIAN_POINT('', (19.999779605535, 15.0002938547892, 30.));
#646 = ORIENTED_EDGE('', *, *, #601, .F.);
#647 = B_SPLINE_SURFACE_WITH_KNOTS('', 1, 1, ((#648, #649), (#650, #651)), .UNSPECIFIED., .F., .F., .U., (2, 2), (2, 2), (0., 20.), (0., 15.), .UNSPECIFIED.);
#648 = CARTESIAN_POINT('', (0., 0., 30.));
#649 = CARTESIAN_POINT('', (-0.00022039230619336, 14.9999999983809, 30.));
#650 = CARTESIAN_POINT('', (19.9999999978412, 0.000293856408257814, 30.));
#651 = CARTESIAN_POINT('', (19.999779605535, 15.0002938547892, 30.));
#652 = ADVANCED_FACE('', (#653), #675, .T.);
#653 = FACE_OUTER_BOUND('', #654, .T.);
#654 = EDGE_LOOP('', (#655, #662, #669, #674));
#655 = ORIENTED_EDGE('', *, *, #656, .F.);
#656 = EDGE_CURVE('', #657, #629, #659, .T.);
#657 = VERTEX_POINT('', #658);
#658 = CARTESIAN_POINT('', (0., 0., 0.));
#659 = B_SPLINE_CURVE_WITH_KNOTS('', 1, (#660, #661), .UNSPECIFIED., .F., .U., (2, 2), (0., 30.), .UNSPECIFIED.);
#660 = CARTESIAN_POINT('', (0., 0., 0.));
#661 = CARTESIAN_POINT('', (0., 0., 30.));
#662 = ORIENTED_EDGE('', *, *, #663, .T.);
#663 = EDGE_CURVE('', #657, #664, #666, .T.);
#664 = VERTEX_POINT('', #665);
#665 = CARTESIAN_POINT('', (19.9999999978412, 0.000293856408257814, 0.));
#666 = B_SPLINE_CURVE_WITH_KNOTS('', 1, (#667, #668), .UNSPECIFIED., .F., .U., (2, 2), (0., 20.), .UNSPECIFIED.);
#667 = CARTESIAN_POINT('', (0., 0., 0.));
#668 = CARTESIAN_POINT('', (19.9999999978412, 0.000293856408257814, 0.));
#669 = ORIENTED_EDGE('', *, *, #670, .T.);
#670 = EDGE_CURVE('', #664, #636, #671, .T.);
#671 = B_SPLINE_CURVE_WITH_KNOTS('', 1, (#672, #673), .UNSPECIFIED., .F., .U., (2, 2), (0., 30.), .UNSPECIFIED.);
#672 = CARTESIAN_POINT('', (19.9999999978412, 0.000293856408257814, 0.));
#673 = CARTESIAN_POINT('', (19.9999999978412, 0.000293856408257814, 30.));
#674 = ORIENTED_EDGE('', *, *, #635, .F.);
#675 = B_SPLINE_SURFACE_WITH_KNOTS('', 1, 1, ((#676, #677), (#678, #679)), .UNSPECIFIED., .F., .F., .U., (2, 2), (2, 2), (0., 20.), (0., 30.), .UNSPECIFIED.);
#676 = CARTESIAN_POINT('', (0., 0., 0.));
#677 = CARTESIAN_POINT('', (0., 0., 30.));
#678 = CARTESIAN_POINT('', (19.9999999978412, 0.000293856408257814, 0.));
#679 = CARTESIAN_POINT('', (19.9999999978412, 0.000293856408257814, 30.));
#680 = ADVANCED_FACE('', (#681), #695, .T.);
#681 = FACE_OUTER_BOUND('', #682, .T.);
#682 = EDGE_LOOP('', (#683, #688, #689, #694));
#683 = ORIENTED_EDGE('', *, *, #684, .T.);
#684 = EDGE_CURVE('', #657, #593, #685, .T.);
#685 = B_SPLINE_CURVE_WITH_KNOTS('', 1, (#686, #687), .UNSPECIFIED., .F., .U., (2, 2), (0., 15.), .UNSPECIFIED.);
#686 = CARTESIAN_POINT('', (0., 0., 0.));
#687 = CARTESIAN_POINT('', (-0.00022039230619336, 14.9999999983809, 0.));
#688 = ORIENTED_EDGE('', *, *, #615, .T.);
#689 = ORIENTED_EDGE('', *, *, #690, .F.);
#690 = EDGE_CURVE('', #664, #609, #691, .T.);
#691 = B_SPLINE_CURVE_WITH_KNOTS('', 1, (#692, #693), .UNSPECIFIED., .F., .U., (2, 2), (0., 15.), .UNSPECIFIED.);
#692 = CARTESIAN_POINT('', (19.9999999978412, 0.000293856408257814, 0.));
#693 = CARTESIAN_POINT('', (19.999779605535, 15.0002938547892, 0.));
#694 = ORIENTED_EDGE('', *, *, #663, .F.);
#695 = B_SPLINE_SURFACE_WITH_KNOTS('', 1, 1, ((#696, #697), (#698, #699)), .UNSPECIFIED., .F., .F., .U., (2, 2), (2, 2), (0., 15.), (0., 20.), .UNSPECIFIED.);
#696 = CARTESIAN_POINT('', (0., 0., 0.));
#697 = CARTESIAN_POINT('', (19.9999999978412, 0.000293856408257814, 0.));
#698 = CARTESIAN_POINT('', (-0.00022039230619336, 14.9999999983809, 0.));
#699 = CARTESIAN_POINT('', (19.999779605535, 15.0002938547892, 0.));
#700 = ADVANCED_FACE('', (#701), #707, .T.);
#701 = FACE_OUTER_BOUND('', #702, .T.);
#702 = EDGE_LOOP('', (#703, #704, #705, #706));
#703 = ORIENTED_EDGE('', *, *, #670, .F.);
#704 = ORIENTED_EDGE('', *, *, #690, .T.);
#705 = ORIENTED_EDGE('', *, *, #608, .T.);
#706 = ORIENTED_EDGE('', *, *, #642, .F.);
#707 = B_SPLINE_SURFACE_WITH_KNOTS('', 1, 1, ((#708, #709), (#710, #711)), .UNSPECIFIED., .F., .F., .U., (2, 2), (2, 2), (0., 15.), (0., 30.), .UNSPECIFIED.);
#708 = CARTESIAN_POINT('', (19.9999999978412, 0.000293856408257814, 0.));
#709 = CARTESIAN_POINT('', (19.9999999978412, 0.000293856408257814, 30.));
#710 = CARTESIAN_POINT('', (19.999779605535, 15.0002938547892, 0.));
#711 = CARTESIAN_POINT('', (19.999779605535, 15.0002938547892, 30.));
#712 = ADVANCED_FACE('', (#713), #719, .T.);
#713 = FACE_OUTER_BOUND('', #714, .T.);
#714 = EDGE_LOOP('', (#715, #716, #717, #718));
#715 = ORIENTED_EDGE('', *, *, #656, .T.);
#716 = ORIENTED_EDGE('', *, *, #628, .T.);
#717 = ORIENTED_EDGE('', *, *, #592, .F.);
#718 = ORIENTED_EDGE('', *, *, #684, .F.);
#719 = B_SPLINE_SURFACE_WITH_KNOTS('', 1, 1, ((#720, #721), (#722, #723)), .UNSPECIFIED., .F., .F., .U., (2, 2), (2, 2), (0., 30.), (0., 15.), .UNSPECIFIED.);
#720 = CARTESIAN_POINT('', (0., 0., 0.));
#721 = CARTESIAN_POINT('', (-0.00022039230619336, 14.9999999983809, 0.));
#722 = CARTESIAN_POINT('', (0., 0., 30.));
#723 = CARTESIAN_POINT('', (-0.00022039230619336, 14.9999999983809, 30.));
#724 = PRESENTATION_STYLE_ASSIGNMENT((#725));
#725 = SURFACE_STYLE_USAGE(.POSITIVE., #726);
#726 = SURFACE_SIDE_STYLE('', (#727));
#727 = SURFACE_STYLE_FILL_AREA(#728);
#728 = FILL_AREA_STYLE('', (#729));
#729 = FILL_AREA_STYLE_COLOUR('', #730);
#730 = COLOUR_RGB('', 0.50196078431373, 0.50196078431373, 0.50196078431373);
#731 = STYLED_ITEM('', (#724), #586);
#732 = MANIFOLD_SOLID_BREP('CP1_5', #733);
#733 = CLOSED_SHELL('', (#734, #770, #798, #826, #846, #858));
#734 = ADVANCED_FACE('', (#735), #765, .T.);
#735 = FACE_OUTER_BOUND('', #736, .T.);
#736 = EDGE_LOOP('', (#737, #746, #753, #760));
#737 = ORIENTED_EDGE('', *, *, #738, .T.);
#738 = EDGE_CURVE('', #739, #741, #743, .T.);
#739 = VERTEX_POINT('', #740);
#740 = CARTESIAN_POINT('', (-14.9999999974702, -0.000275490382739456, 0.));
#741 = VERTEX_POINT('', #742);
#742 = CARTESIAN_POINT('', (-14.9999999974702, -0.000275490382739456, 30.));
#743 = B_SPLINE_CURVE_WITH_KNOTS('', 1, (#744, #745), .UNSPECIFIED., .F., .U., (2, 2), (0., 30.), .UNSPECIFIED.);
#744 = CARTESIAN_POINT('', (-14.9999999974702, -0.000275490382739456, 0.));
#745 = CARTESIAN_POINT('', (-14.9999999974702, -0.000275490382739456, 30.));
#746 = ORIENTED_EDGE('', *, *, #747, .T.);
#747 = EDGE_CURVE('', #741, #748, #750, .T.);
#748 = VERTEX_POINT('', #749);
#749 = CARTESIAN_POINT('', (-15.0003673179805, 19.9997245062441, 30.));
#750 = B_SPLINE_CURVE_WITH_KNOTS('', 1, (#751, #752), .UNSPECIFIED., .F., .U., (2, 2), (0., 20.), .UNSPECIFIED.);
#751 = CARTESIAN_POINT('', (-14.9999999974702, -0.000275490382739456, 30.));
#752 = CARTESIAN_POINT('', (-15.0003673179805, 19.9997245062442, 30.));
#753 = ORIENTED_EDGE('', *, *, #754, .F.);
#754 = EDGE_CURVE('', #755, #748, #757, .T.);
#755 = VERTEX_POINT('', #756);
#756 = CARTESIAN_POINT('', (-15.0003673179805, 19.9997245062441, 0.));
#757 = B_SPLINE_CURVE_WITH_KNOTS('', 1, (#758, #759), .UNSPECIFIED., .F., .U., (2, 2), (0., 30.), .UNSPECIFIED.);
#758 = CARTESIAN_POINT('', (-15.0003673179805, 19.9997245062442, 0.));
#759 = CARTESIAN_POINT('', (-15.0003673179805, 19.9997245062442, 30.));
#760 = ORIENTED_EDGE('', *, *, #761, .F.);
#761 = EDGE_CURVE('', #739, #755, #762, .T.);
#762 = B_SPLINE_CURVE_WITH_KNOTS('', 1, (#763, #764), .UNSPECIFIED., .F., .U., (2, 2), (0., 20.), .UNSPECIFIED.);
#763 = CARTESIAN_POINT('', (-14.9999999974702, -0.000275490382739456, 0.));
#764 = CARTESIAN_POINT('', (-15.0003673179805, 19.9997245062442, 0.));
#765 = B_SPLINE_SURFACE_WITH_KNOTS('', 1, 1, ((#766, #767), (#768, #769)), .UNSPECIFIED., .F., .F., .U., (2, 2), (2, 2), (0., 30.), (0., 20.), .UNSPECIFIED.);
#766 = CARTESIAN_POINT('', (-14.9999999974702, -0.000275490382739456, 0.));
#767 = CARTESIAN_POINT('', (-15.0003673179805, 19.9997245062442, 0.));
#768 = CARTESIAN_POINT('', (-14.9999999974702, -0.000275490382739456, 30.));
#769 = CARTESIAN_POINT('', (-15.0003673179805, 19.9997245062442, 30.));
#770 = ADVANCED_FACE('', (#771), #793, .T.);
#771 = FACE_OUTER_BOUND('', #772, .T.);
#772 = EDGE_LOOP('', (#773, #780, #787, #792));
#773 = ORIENTED_EDGE('', *, *, #774, .F.);
#774 = EDGE_CURVE('', #775, #741, #777, .T.);
#775 = VERTEX_POINT('', #776);
#776 = CARTESIAN_POINT('', (0., 0., 30.));
#777 = B_SPLINE_CURVE_WITH_KNOTS('', 1, (#778, #779), .UNSPECIFIED., .F., .U., (2, 2), (0., 15.), .UNSPECIFIED.);
#778 = CARTESIAN_POINT('', (0., 0., 30.));
#779 = CARTESIAN_POINT('', (-14.9999999974702, -0.000275490382739456, 30.));
#780 = ORIENTED_EDGE('', *, *, #781, .T.);
#781 = EDGE_CURVE('', #775, #782, #784, .T.);
#782 = VERTEX_POINT('', #783);
#783 = CARTESIAN_POINT('', (-0.000367320510319274, 19.9999999966269, 30.));
#784 = B_SPLINE_CURVE_WITH_KNOTS('', 1, (#785, #786), .UNSPECIFIED., .F., .U., (2, 2), (0., 20.), .UNSPECIFIED.);
#785 = CARTESIAN_POINT('', (0., 0., 30.));
#786 = CARTESIAN_POINT('', (-0.000367320510319274, 19.9999999966269, 30.));
#787 = ORIENTED_EDGE('', *, *, #788, .T.);
#788 = EDGE_CURVE('', #782, #748, #789, .T.);
#789 = B_SPLINE_CURVE_WITH_KNOTS('', 1, (#790, #791), .UNSPECIFIED., .F., .U., (2, 2), (0., 15.), .UNSPECIFIED.);
#790 = CARTESIAN_POINT('', (-0.000367320510319274, 19.9999999966269, 30.));
#791 = CARTESIAN_POINT('', (-15.0003673179805, 19.9997245062442, 30.));
#792 = ORIENTED_EDGE('', *, *, #747, .F.);
#793 = B_SPLINE_SURFACE_WITH_KNOTS('', 1, 1, ((#794, #795), (#796, #797)), .UNSPECIFIED., .F., .F., .U., (2, 2), (2, 2), (0., 20.), (0., 15.), .UNSPECIFIED.);
#794 = CARTESIAN_POINT('', (0., 0., 30.));
#795 = CARTESIAN_POINT('', (-14.9999999974702, -0.000275490382739456, 30.));
#796 = CARTESIAN_POINT('', (-0.000367320510319274, 19.9999999966269, 30.));
#797 = CARTESIAN_POINT('', (-15.0003673179805, 19.9997245062442, 30.));
#798 = ADVANCED_FACE('', (#799), #821, .T.);
#799 = FACE_OUTER_BOUND('', #800, .T.);
#800 = EDGE_LOOP('', (#801, #808, #815, #820));
#801 = ORIENTED_EDGE('', *, *, #802, .F.);
#802 = EDGE_CURVE('', #803, #775, #805, .T.);
#803 = VERTEX_POINT('', #804);
#804 = CARTESIAN_POINT('', (0., 0., 0.));
#805 = B_SPLINE_CURVE_WITH_KNOTS('', 1, (#806, #807), .UNSPECIFIED., .F., .U., (2, 2), (0., 30.), .UNSPECIFIED.);
#806 = CARTESIAN_POINT('', (0., 0., 0.));
#807 = CARTESIAN_POINT('', (0., 0., 30.));
#808 = ORIENTED_EDGE('', *, *, #809, .T.);
#809 = EDGE_CURVE('', #803, #810, #812, .T.);
#810 = VERTEX_POINT('', #811);
#811 = CARTESIAN_POINT('', (-0.000367320510319274, 19.9999999966269, 0.));
#812 = B_SPLINE_CURVE_WITH_KNOTS('', 1, (#813, #814), .UNSPECIFIED., .F., .U., (2, 2), (0., 20.), .UNSPECIFIED.);
#813 = CARTESIAN_POINT('', (0., 0., 0.));
#814 = CARTESIAN_POINT('', (-0.000367320510319274, 19.9999999966269, 0.));
#815 = ORIENTED_EDGE('', *, *, #816, .T.);
#816 = EDGE_CURVE('', #810, #782, #817, .T.);
#817 = B_SPLINE_CURVE_WITH_KNOTS('', 1, (#818, #819), .UNSPECIFIED., .F., .U., (2, 2), (0., 30.), .UNSPECIFIED.);
#818 = CARTESIAN_POINT('', (-0.000367320510319274, 19.9999999966269, 0.));
#819 = CARTESIAN_POINT('', (-0.000367320510319274, 19.9999999966269, 30.));
#820 = ORIENTED_EDGE('', *, *, #781, .F.);
#821 = B_SPLINE_SURFACE_WITH_KNOTS('', 1, 1, ((#822, #823), (#824, #825)), .UNSPECIFIED., .F., .F., .U., (2, 2), (2, 2), (0., 20.), (0., 30.), .UNSPECIFIED.);
#822 = CARTESIAN_POINT('', (0., 0., 0.));
#823 = CARTESIAN_POINT('', (0., 0., 30.));
#824 = CARTESIAN_POINT('', (-0.000367320510319274, 19.9999999966269, 0.));
#825 = CARTESIAN_POINT('', (-0.000367320510319274, 19.9999999966269, 30.));
#826 = ADVANCED_FACE('', (#827), #841, .T.);
#827 = FACE_OUTER_BOUND('', #828, .T.);
#828 = EDGE_LOOP('', (#829, #834, #835, #840));
#829 = ORIENTED_EDGE('', *, *, #830, .T.);
#830 = EDGE_CURVE('', #803, #739, #831, .T.);
#831 = B_SPLINE_CURVE_WITH_KNOTS('', 1, (#832, #833), .UNSPECIFIED., .F., .U., (2, 2), (0., 15.), .UNSPECIFIED.);
#832 = CARTESIAN_POINT('', (0., 0., 0.));
#833 = CARTESIAN_POINT('', (-14.9999999974702, -0.000275490382739456, 0.));
#834 = ORIENTED_EDGE('', *, *, #761, .T.);
#835 = ORIENTED_EDGE('', *, *, #836, .F.);
#836 = EDGE_CURVE('', #810, #755, #837, .T.);
#837 = B_SPLINE_CURVE_WITH_KNOTS('', 1, (#838, #839), .UNSPECIFIED., .F., .U., (2, 2), (0., 15.), .UNSPECIFIED.);
#838 = CARTESIAN_POINT('', (-0.000367320510319274, 19.9999999966269, 0.));
#839 = CARTESIAN_POINT('', (-15.0003673179805, 19.9997245062442, 0.));
#840 = ORIENTED_EDGE('', *, *, #809, .F.);
#841 = B_SPLINE_SURFACE_WITH_KNOTS('', 1, 1, ((#842, #843), (#844, #845)), .UNSPECIFIED., .F., .F., .U., (2, 2), (2, 2), (0., 15.), (0., 20.), .UNSPECIFIED.);
#842 = CARTESIAN_POINT('', (0., 0., 0.));
#843 = CARTESIAN_POINT('', (-0.000367320510319274, 19.9999999966269, 0.));
#844 = CARTESIAN_POINT('', (-14.9999999974702, -0.000275490382739456, 0.));
#845 = CARTESIAN_POINT('', (-15.0003673179805, 19.9997245062442, 0.));
#846 = ADVANCED_FACE('', (#847), #853, .T.);
#847 = FACE_OUTER_BOUND('', #848, .T.);
#848 = EDGE_LOOP('', (#849, #850, #851, #852));
#849 = ORIENTED_EDGE('', *, *, #816, .F.);
#850 = ORIENTED_EDGE('', *, *, #836, .T.);
#851 = ORIENTED_EDGE('', *, *, #754, .T.);
#852 = ORIENTED_EDGE('', *, *, #788, .F.);
#853 = B_SPLINE_SURFACE_WITH_KNOTS('', 1, 1, ((#854, #855), (#856, #857)), .UNSPECIFIED., .F., .F., .U., (2, 2), (2, 2), (0., 15.), (0., 30.), .UNSPECIFIED.);
#854 = CARTESIAN_POINT('', (-0.000367320510319274, 19.9999999966269, 0.));
#855 = CARTESIAN_POINT('', (-0.000367320510319274, 19.9999999966269, 30.));
#856 = CARTESIAN_POINT('', (-15.0003673179805, 19.9997245062442, 0.));
#857 = CARTESIAN_POINT('', (-15.0003673179805, 19.9997245062442, 30.));
#858 = ADVANCED_FACE('', (#859), #865, .T.);
#859 = FACE_OUTER_BOUND('', #860, .T.);
#860 = EDGE_LOOP('', (#861, #862, #863, #864));
#861 = ORIENTED_EDGE('', *, *, #802, .T.);
#862 = ORIENTED_EDGE('', *, *, #774, .T.);
#863 = ORIENTED_EDGE('', *, *, #738, .F.);
#864 = ORIENTED_EDGE('', *, *, #830, .F.);
#865 = B_SPLINE_SURFACE_WITH_KNOTS('', 1, 1, ((#866, #867), (#868, #869)), .UNSPECIFIED., .F., .F., .U., (2, 2), (2, 2), (0., 30.), (0., 15.), .UNSPECIFIED.);
#866 = CARTESIAN_POINT('', (0., 0., 0.));
#867 = CARTESIAN_POINT('', (-14.9999999974702, -0.000275490382739456, 0.));
#868 = CARTESIAN_POINT('', (0., 0., 30.));
#869 = CARTESIAN_POINT('', (-14.9999999974702, -0.000275490382739456, 30.));
#870 = PRESENTATION_STYLE_ASSIGNMENT((#871));
#871 = SURFACE_STYLE_USAGE(.POSITIVE., #872);
#872 = SURFACE_SIDE_STYLE('', (#873));
#873 = SURFACE_STYLE_FILL_AREA(#874);
#874 = FILL_AREA_STYLE('', (#875));
#875 = FILL_AREA_STYLE_COLOUR('', #876);
#876 = COLOUR_RGB('', 0.50196078431373, 0.50196078431373, 0.50196078431373);
#877 = STYLED_ITEM('', (#870), #732);
#878 = CARTESIAN_POINT('Origin', (0., 0., 0.));
#879 = GEOMETRIC_SET('', (#878));
#880 = (
   GEOMETRIC_REPRESENTATION_CONTEXT (3)
   GLOBAL_UNCERTAINTY_ASSIGNED_CONTEXT ((#882))
   GLOBAL_UNIT_ASSIGNED_CONTEXT ((#881, #883, #884))
   REPRESENTATION_CONTEXT ('', '3D')
);
#881 = (
   LENGTH_UNIT ()
   NAMED_UNIT (*)
   SI_UNIT (.MILLI., .METRE.)
);
#882 = UNCERTAINTY_MEASURE_WITH_UNIT(LENGTH_MEASURE(1.E-6), #881, 'DISTANCE_ACCURACY_VALUE', '');
#883 = (
   NAMED_UNIT (*)
   SI_UNIT ($, .STERADIAN.)
   SOLID_ANGLE_UNIT ()
);
#884 = (
   NAMED_UNIT (*)
   PLANE_ANGLE_UNIT ()
   SI_UNIT ($, .RADIAN.)
);
#885 = SHAPE_REPRESENTATION('', (#900), #880);
#886 = PRODUCT_DEFINITION_SHAPE('', '', #887);
#887 = PRODUCT_DEFINITION('', '', #890, #894);
#888 = APPLICATION_CONTEXT('configuration controlled 3D designs of mechanical parts and assemblies');
#889 = APPLICATION_PROTOCOL_DEFINITION('International Standard', 'automotive_design', 2002, #888);
#890 = PRODUCT_DEFINITION_FORMATION_WITH_SPECIFIED_SOURCE('', '', #891, .NOT_KNOWN.);
#891 = PRODUCT('UpdateCPCount', 'UpdateCPCount', '', (#892));
#892 = PRODUCT_CONTEXT('', #888, 'mechanical');
#893 = PRODUCT_RELATED_PRODUCT_CATEGORY('detail', '', (#891));
#894 = PRODUCT_DEFINITION_CONTEXT('part definition', #888, 'design');
#895 = SHAPE_DEFINITION_REPRESENTATION(#886, #885);
#896 = SHAPE_REPRESENTATION_RELATIONSHIP('', '', #885, #897);
#897 = SHAPE_REPRESENTATION('', (#879), #880);
#898 = SHAPE_REPRESENTATION_RELATIONSHIP('', '', #885, #899);
#899 = ADVANCED_BREP_SHAPE_REPRESENTATION('', (#1, #148, #294, #440, #586, #732), #880);
#900 = AXIS2_PLACEMENT_3D('', #901, #902, #903);
#901 = CARTESIAN_POINT('', (0., 0., 0.));
#902 = DIRECTION('', (0., 0., 1.));
#903 = DIRECTION('', (1., 0., 0.));
ENDSEC;
END-ISO-10303-21;
