ISO-10303-21;
HEADER;
FILE_DESCRIPTION(('STEP'), '1');
FILE_NAME('SubKeepSafe', '2026-04-14T17:48:42', (''), (''), 'Express 3.1.2.0', 'Express Tool', 'Unknown');
FILE_SCHEMA(('AUTOMOTIVE_DESIGN'));
ENDSEC;

DATA;
#1 = MANIFOLD_SOLID_BREP('Solid', #2);
#2 = CLOSED_SHELL('', (#3, #39, #75, #97, #119, #143, #159));
#3 = ADVANCED_FACE('', (#4), #34, .T.);
#4 = FACE_OUTER_BOUND('', #5, .T.);
#5 = EDGE_LOOP('', (#6, #15, #22, #29));
#6 = ORIENTED_EDGE('', *, *, #7, .F.);
#7 = EDGE_CURVE('', #8, #10, #12, .T.);
#8 = VERTEX_POINT('', #9);
#9 = CARTESIAN_POINT('', (-50., -40., -30.));
#10 = VERTEX_POINT('', #11);
#11 = CARTESIAN_POINT('', (-50., -40., 30.));
#12 = B_SPLINE_CURVE_WITH_KNOTS('', 1, (#13, #14), .UNSPECIFIED., .F., .U., (2, 2), (0., 60.), .UNSPECIFIED.);
#13 = CARTESIAN_POINT('', (-50., -40., -30.));
#14 = CARTESIAN_POINT('', (-50., -40., 30.));
#15 = ORIENTED_EDGE('', *, *, #16, .T.);
#16 = EDGE_CURVE('', #8, #17, #19, .T.);
#17 = VERTEX_POINT('', #18);
#18 = CARTESIAN_POINT('', (50., -40., -30.));
#19 = B_SPLINE_CURVE_WITH_KNOTS('', 1, (#20, #21), .UNSPECIFIED., .F., .U., (2, 2), (0., 100.), .UNSPECIFIED.);
#20 = CARTESIAN_POINT('', (-50., -40., -30.));
#21 = CARTESIAN_POINT('', (50., -40., -30.));
#22 = ORIENTED_EDGE('', *, *, #23, .T.);
#23 = EDGE_CURVE('', #17, #24, #26, .T.);
#24 = VERTEX_POINT('', #25);
#25 = CARTESIAN_POINT('', (50., -40., 30.));
#26 = B_SPLINE_CURVE_WITH_KNOTS('', 1, (#27, #28), .UNSPECIFIED., .F., .U., (2, 2), (0., 60.), .UNSPECIFIED.);
#27 = CARTESIAN_POINT('', (50., -40., -30.));
#28 = CARTESIAN_POINT('', (50., -40., 30.));
#29 = ORIENTED_EDGE('', *, *, #30, .F.);
#30 = EDGE_CURVE('', #10, #24, #31, .T.);
#31 = B_SPLINE_CURVE_WITH_KNOTS('', 1, (#32, #33), .UNSPECIFIED., .F., .U., (2, 2), (0., 100.), .UNSPECIFIED.);
#32 = CARTESIAN_POINT('', (-50., -40., 30.));
#33 = CARTESIAN_POINT('', (50., -40., 30.));
#34 = B_SPLINE_SURFACE_WITH_KNOTS('', 1, 1, ((#35, #36), (#37, #38)), .UNSPECIFIED., .F., .F., .U., (2, 2), (2, 2), (0., 100.), (0., 60.), .UNSPECIFIED.);
#35 = CARTESIAN_POINT('', (-50., -40., -30.));
#36 = CARTESIAN_POINT('', (-50., -40., 30.));
#37 = CARTESIAN_POINT('', (50., -40., -30.));
#38 = CARTESIAN_POINT('', (50., -40., 30.));
#39 = ADVANCED_FACE('', (#40), #70, .T.);
#40 = FACE_OUTER_BOUND('', #41, .T.);
#41 = EDGE_LOOP('', (#42, #52, #57, #58, #65));
#42 = ORIENTED_EDGE('', *, *, #43, .T.);
#43 = EDGE_CURVE('', #44, #46, #48, .T.);
#44 = VERTEX_POINT('', #45);
#45 = CARTESIAN_POINT('', (37.5, 40., -30.));
#46 = VERTEX_POINT('', #47);
#47 = CARTESIAN_POINT('', (50., 27.5, -30.));
#48 = (
   BOUNDED_CURVE ()
   B_SPLINE_CURVE (2, (#49, #50, #51), .UNSPECIFIED., .F., .U.)
   B_SPLINE_CURVE_WITH_KNOTS ((3, 3), (0., 1.), .UNSPECIFIED.)
   CURVE ()
   GEOMETRIC_REPRESENTATION_ITEM ()
   RATIONAL_B_SPLINE_CURVE ((1., 0.707106781186548, 1.))
   REPRESENTATION_ITEM ('')
);
#49 = CARTESIAN_POINT('', (37.5, 40., -30.));
#50 = CARTESIAN_POINT('', (37.5, 27.5, -30.));
#51 = CARTESIAN_POINT('', (50., 27.5, -30.));
#52 = ORIENTED_EDGE('', *, *, #53, .F.);
#53 = EDGE_CURVE('', #17, #46, #54, .T.);
#54 = B_SPLINE_CURVE_WITH_KNOTS('', 1, (#55, #56), .UNSPECIFIED., .F., .U., (2, 2), (0., 67.5), .UNSPECIFIED.);
#55 = CARTESIAN_POINT('', (50., -40., -30.));
#56 = CARTESIAN_POINT('', (50., 27.5, -30.));
#57 = ORIENTED_EDGE('', *, *, #16, .F.);
#58 = ORIENTED_EDGE('', *, *, #59, .T.);
#59 = EDGE_CURVE('', #8, #60, #62, .T.);
#60 = VERTEX_POINT('', #61);
#61 = CARTESIAN_POINT('', (-50., 40., -30.));
#62 = B_SPLINE_CURVE_WITH_KNOTS('', 1, (#63, #64), .UNSPECIFIED., .F., .U., (2, 2), (0., 80.), .UNSPECIFIED.);
#63 = CARTESIAN_POINT('', (-50., -40., -30.));
#64 = CARTESIAN_POINT('', (-50., 40., -30.));
#65 = ORIENTED_EDGE('', *, *, #66, .T.);
#66 = EDGE_CURVE('', #60, #44, #67, .T.);
#67 = B_SPLINE_CURVE_WITH_KNOTS('', 1, (#68, #69), .UNSPECIFIED., .F., .U., (2, 2), (0., 87.5), .UNSPECIFIED.);
#68 = CARTESIAN_POINT('', (-50., 40., -30.));
#69 = CARTESIAN_POINT('', (37.5, 40., -30.));
#70 = B_SPLINE_SURFACE_WITH_KNOTS('', 1, 1, ((#71, #72), (#73, #74)), .UNSPECIFIED., .F., .F., .U., (2, 2), (2, 2), (0., 80.), (0., 100.), .UNSPECIFIED.);
#71 = CARTESIAN_POINT('', (-50., -40., -30.));
#72 = CARTESIAN_POINT('', (50., -40., -30.));
#73 = CARTESIAN_POINT('', (-50., 40., -30.));
#74 = CARTESIAN_POINT('', (50., 40., -30.));
#75 = ADVANCED_FACE('', (#76), #92, .T.);
#76 = FACE_OUTER_BOUND('', #77, .T.);
#77 = EDGE_LOOP('', (#78, #85, #90, #91));
#78 = ORIENTED_EDGE('', *, *, #79, .T.);
#79 = EDGE_CURVE('', #46, #80, #82, .T.);
#80 = VERTEX_POINT('', #81);
#81 = CARTESIAN_POINT('', (50., 27.5, 30.));
#82 = B_SPLINE_CURVE_WITH_KNOTS('', 1, (#83, #84), .UNSPECIFIED., .F., .U., (2, 2), (0., 1.), .UNSPECIFIED.);
#83 = CARTESIAN_POINT('', (50., 27.5, -30.));
#84 = CARTESIAN_POINT('', (50., 27.5, 30.));
#85 = ORIENTED_EDGE('', *, *, #86, .F.);
#86 = EDGE_CURVE('', #24, #80, #87, .T.);
#87 = B_SPLINE_CURVE_WITH_KNOTS('', 1, (#88, #89), .UNSPECIFIED., .F., .U., (2, 2), (0., 67.5), .UNSPECIFIED.);
#88 = CARTESIAN_POINT('', (50., -40., 30.));
#89 = CARTESIAN_POINT('', (50., 27.5, 30.));
#90 = ORIENTED_EDGE('', *, *, #23, .F.);
#91 = ORIENTED_EDGE('', *, *, #53, .T.);
#92 = B_SPLINE_SURFACE_WITH_KNOTS('', 1, 1, ((#93, #94), (#95, #96)), .UNSPECIFIED., .F., .F., .U., (2, 2), (2, 2), (0., 80.), (0., 60.), .UNSPECIFIED.);
#93 = CARTESIAN_POINT('', (50., -40., -30.));
#94 = CARTESIAN_POINT('', (50., -40., 30.));
#95 = CARTESIAN_POINT('', (50., 40., -30.));
#96 = CARTESIAN_POINT('', (50., 40., 30.));
#97 = ADVANCED_FACE('', (#98), #114, .T.);
#98 = FACE_OUTER_BOUND('', #99, .T.);
#99 = EDGE_LOOP('', (#100, #101, #108, #113));
#100 = ORIENTED_EDGE('', *, *, #7, .T.);
#101 = ORIENTED_EDGE('', *, *, #102, .T.);
#102 = EDGE_CURVE('', #10, #103, #105, .T.);
#103 = VERTEX_POINT('', #104);
#104 = CARTESIAN_POINT('', (-50., 40., 30.));
#105 = B_SPLINE_CURVE_WITH_KNOTS('', 1, (#106, #107), .UNSPECIFIED., .F., .U., (2, 2), (0., 80.), .UNSPECIFIED.);
#106 = CARTESIAN_POINT('', (-50., -40., 30.));
#107 = CARTESIAN_POINT('', (-50., 40., 30.));
#108 = ORIENTED_EDGE('', *, *, #109, .F.);
#109 = EDGE_CURVE('', #60, #103, #110, .T.);
#110 = B_SPLINE_CURVE_WITH_KNOTS('', 1, (#111, #112), .UNSPECIFIED., .F., .U., (2, 2), (0., 60.), .UNSPECIFIED.);
#111 = CARTESIAN_POINT('', (-50., 40., -30.));
#112 = CARTESIAN_POINT('', (-50., 40., 30.));
#113 = ORIENTED_EDGE('', *, *, #59, .F.);
#114 = B_SPLINE_SURFACE_WITH_KNOTS('', 1, 1, ((#115, #116), (#117, #118)), .UNSPECIFIED., .F., .F., .U., (2, 2), (2, 2), (0., 60.), (0., 80.), .UNSPECIFIED.);
#115 = CARTESIAN_POINT('', (-50., -40., -30.));
#116 = CARTESIAN_POINT('', (-50., 40., -30.));
#117 = CARTESIAN_POINT('', (-50., -40., 30.));
#118 = CARTESIAN_POINT('', (-50., 40., 30.));
#119 = ADVANCED_FACE('', (#120), #138, .T.);
#120 = FACE_OUTER_BOUND('', #121, .T.);
#121 = EDGE_LOOP('', (#122, #130, #135, #136, #137));
#122 = ORIENTED_EDGE('', *, *, #123, .F.);
#123 = EDGE_CURVE('', #124, #80, #126, .T.);
#124 = VERTEX_POINT('', #125);
#125 = CARTESIAN_POINT('', (37.5, 40., 30.));
#126 = (
   BOUNDED_CURVE ()
   B_SPLINE_CURVE (2, (#127, #128, #129), .UNSPECIFIED., .F., .U.)
   B_SPLINE_CURVE_WITH_KNOTS ((3, 3), (0., 1.), .UNSPECIFIED.)
   CURVE ()
   GEOMETRIC_REPRESENTATION_ITEM ()
   RATIONAL_B_SPLINE_CURVE ((1., 0.707106781186548, 1.))
   REPRESENTATION_ITEM ('')
);
#127 = CARTESIAN_POINT('', (37.5, 40., 30.));
#128 = CARTESIAN_POINT('', (37.5, 27.5, 30.));
#129 = CARTESIAN_POINT('', (50., 27.5, 30.));
#130 = ORIENTED_EDGE('', *, *, #131, .F.);
#131 = EDGE_CURVE('', #103, #124, #132, .T.);
#132 = B_SPLINE_CURVE_WITH_KNOTS('', 1, (#133, #134), .UNSPECIFIED., .F., .U., (2, 2), (0., 87.5), .UNSPECIFIED.);
#133 = CARTESIAN_POINT('', (-50., 40., 30.));
#134 = CARTESIAN_POINT('', (37.5, 40., 30.));
#135 = ORIENTED_EDGE('', *, *, #102, .F.);
#136 = ORIENTED_EDGE('', *, *, #30, .T.);
#137 = ORIENTED_EDGE('', *, *, #86, .T.);
#138 = B_SPLINE_SURFACE_WITH_KNOTS('', 1, 1, ((#139, #140), (#141, #142)), .UNSPECIFIED., .F., .F., .U., (2, 2), (2, 2), (0., 100.), (0., 80.), .UNSPECIFIED.);
#139 = CARTESIAN_POINT('', (-50., -40., 30.));
#140 = CARTESIAN_POINT('', (-50., 40., 30.));
#141 = CARTESIAN_POINT('', (50., -40., 30.));
#142 = CARTESIAN_POINT('', (50., 40., 30.));
#143 = ADVANCED_FACE('', (#144), #154, .T.);
#144 = FACE_OUTER_BOUND('', #145, .T.);
#145 = EDGE_LOOP('', (#146, #151, #152, #153));
#146 = ORIENTED_EDGE('', *, *, #147, .F.);
#147 = EDGE_CURVE('', #44, #124, #148, .T.);
#148 = B_SPLINE_CURVE_WITH_KNOTS('', 1, (#149, #150), .UNSPECIFIED., .F., .U., (2, 2), (0., 1.), .UNSPECIFIED.);
#149 = CARTESIAN_POINT('', (37.5, 40., -30.));
#150 = CARTESIAN_POINT('', (37.5, 40., 30.));
#151 = ORIENTED_EDGE('', *, *, #66, .F.);
#152 = ORIENTED_EDGE('', *, *, #109, .T.);
#153 = ORIENTED_EDGE('', *, *, #131, .T.);
#154 = B_SPLINE_SURFACE_WITH_KNOTS('', 1, 1, ((#155, #156), (#157, #158)), .UNSPECIFIED., .F., .F., .U., (2, 2), (2, 2), (0., 60.), (0., 100.), .UNSPECIFIED.);
#155 = CARTESIAN_POINT('', (-50., 40., -30.));
#156 = CARTESIAN_POINT('', (50., 40., -30.));
#157 = CARTESIAN_POINT('', (-50., 40., 30.));
#158 = CARTESIAN_POINT('', (50., 40., 30.));
#159 = ADVANCED_FACE('', (#160), #166, .F.);
#160 = FACE_OUTER_BOUND('', #161, .F.);
#161 = EDGE_LOOP('', (#162, #163, #164, #165));
#162 = ORIENTED_EDGE('', *, *, #147, .F.);
#163 = ORIENTED_EDGE('', *, *, #43, .T.);
#164 = ORIENTED_EDGE('', *, *, #79, .T.);
#165 = ORIENTED_EDGE('', *, *, #123, .F.);
#166 = (
   BOUNDED_SURFACE ()
   B_SPLINE_SURFACE (2, 1, ((#167, #168), (#169, #170), (#171, #172), (#173, #174), (#175, #176), (#177, #178), (#179, #180), (#181, #182), (#183, #184)), .UNSPECIFIED., .T., .F., .U.)
   B_SPLINE_SURFACE_WITH_KNOTS ((3, 2, 2, 2, 3), (2, 2), (0., 19.6349540849362, 39.2699081698724, 58.9048622548086, 78.5398163397448), (0., 120.), .UNSPECIFIED.)
   GEOMETRIC_REPRESENTATION_ITEM ()
   RATIONAL_B_SPLINE_SURFACE (((1., 1.), (0.707106781186548, 0.707106781186548), (1., 1.), (0.707106781186548, 0.707106781186548), (1., 1.), (0.707106781186548, 0.707106781186548), (1., 1.), (0.707106781186548, 0.707106781186548), (1., 1.)))
   REPRESENTATION_ITEM ('')
   SURFACE ()
);
#167 = CARTESIAN_POINT('', (62.5, 40., -70.));
#168 = CARTESIAN_POINT('', (62.5, 40., 50.));
#169 = CARTESIAN_POINT('', (62.5, 52.5, -70.));
#170 = CARTESIAN_POINT('', (62.5, 52.5, 50.));
#171 = CARTESIAN_POINT('', (50., 52.5, -70.));
#172 = CARTESIAN_POINT('', (50., 52.5, 50.));
#173 = CARTESIAN_POINT('', (37.5, 52.5, -70.));
#174 = CARTESIAN_POINT('', (37.5, 52.5, 50.));
#175 = CARTESIAN_POINT('', (37.5, 40., -70.));
#176 = CARTESIAN_POINT('', (37.5, 40., 50.));
#177 = CARTESIAN_POINT('', (37.5, 27.5, -70.));
#178 = CARTESIAN_POINT('', (37.5, 27.5, 50.));
#179 = CARTESIAN_POINT('', (50., 27.5, -70.));
#180 = CARTESIAN_POINT('', (50., 27.5, 50.));
#181 = CARTESIAN_POINT('', (62.5, 27.5, -70.));
#182 = CARTESIAN_POINT('', (62.5, 27.5, 50.));
#183 = CARTESIAN_POINT('', (62.5, 40., -70.));
#184 = CARTESIAN_POINT('', (62.5, 40., 50.));
#185 = DRAUGHTING_MODEL('', (#193, #415), #418);
#186 = PRESENTATION_STYLE_ASSIGNMENT((#187));
#187 = SURFACE_STYLE_USAGE(.POSITIVE., #188);
#188 = SURFACE_SIDE_STYLE('', (#189));
#189 = SURFACE_STYLE_FILL_AREA(#190);
#190 = FILL_AREA_STYLE('', (#191));
#191 = FILL_AREA_STYLE_COLOUR('', #192);
#192 = COLOUR_RGB('', 0.50196078431373, 0.50196078431373, 0.50196078431373);
#193 = STYLED_ITEM('', (#186), #1);
#194 = MANIFOLD_SOLID_BREP('Solid0', #195);
#195 = CLOSED_SHELL('', (#196, #232, #260, #296, #312, #342, #366, #397));
#196 = ADVANCED_FACE('', (#197), #227, .T.);
#197 = FACE_OUTER_BOUND('', #198, .T.);
#198 = EDGE_LOOP('', (#199, #208, #215, #222));
#199 = ORIENTED_EDGE('', *, *, #200, .F.);
#200 = EDGE_CURVE('', #201, #203, #205, .T.);
#201 = VERTEX_POINT('', #202);
#202 = CARTESIAN_POINT('', (-50., -40., 60.));
#203 = VERTEX_POINT('', #204);
#204 = CARTESIAN_POINT('', (-50., 40., 60.));
#205 = B_SPLINE_CURVE_WITH_KNOTS('', 1, (#206, #207), .UNSPECIFIED., .F., .U., (2, 2), (0., 80.), .UNSPECIFIED.);
#206 = CARTESIAN_POINT('', (-50., -40., 60.));
#207 = CARTESIAN_POINT('', (-50., 40., 60.));
#208 = ORIENTED_EDGE('', *, *, #209, .T.);
#209 = EDGE_CURVE('', #201, #210, #212, .T.);
#210 = VERTEX_POINT('', #211);
#211 = CARTESIAN_POINT('', (50., -40., 60.));
#212 = B_SPLINE_CURVE_WITH_KNOTS('', 1, (#213, #214), .UNSPECIFIED., .F., .U., (2, 2), (0., 100.), .UNSPECIFIED.);
#213 = CARTESIAN_POINT('', (-50., -40., 60.));
#214 = CARTESIAN_POINT('', (50., -40., 60.));
#215 = ORIENTED_EDGE('', *, *, #216, .T.);
#216 = EDGE_CURVE('', #210, #217, #219, .T.);
#217 = VERTEX_POINT('', #218);
#218 = CARTESIAN_POINT('', (50., 40., 60.));
#219 = B_SPLINE_CURVE_WITH_KNOTS('', 1, (#220, #221), .UNSPECIFIED., .F., .U., (2, 2), (0., 80.), .UNSPECIFIED.);
#220 = CARTESIAN_POINT('', (50., -40., 60.));
#221 = CARTESIAN_POINT('', (50., 40., 60.));
#222 = ORIENTED_EDGE('', *, *, #223, .F.);
#223 = EDGE_CURVE('', #203, #217, #224, .T.);
#224 = B_SPLINE_CURVE_WITH_KNOTS('', 1, (#225, #226), .UNSPECIFIED., .F., .U., (2, 2), (0., 100.), .UNSPECIFIED.);
#225 = CARTESIAN_POINT('', (-50., 40., 60.));
#226 = CARTESIAN_POINT('', (50., 40., 60.));
#227 = B_SPLINE_SURFACE_WITH_KNOTS('', 1, 1, ((#228, #229), (#230, #231)), .UNSPECIFIED., .F., .F., .U., (2, 2), (2, 2), (0., 100.), (0., 80.), .UNSPECIFIED.);
#228 = CARTESIAN_POINT('', (-50., -40., 60.));
#229 = CARTESIAN_POINT('', (-50., 40., 60.));
#230 = CARTESIAN_POINT('', (50., -40., 60.));
#231 = CARTESIAN_POINT('', (50., 40., 60.));
#232 = ADVANCED_FACE('', (#233), #255, .T.);
#233 = FACE_OUTER_BOUND('', #234, .T.);
#234 = EDGE_LOOP('', (#235, #242, #249, #254));
#235 = ORIENTED_EDGE('', *, *, #236, .F.);
#236 = EDGE_CURVE('', #237, #201, #239, .T.);
#237 = VERTEX_POINT('', #238);
#238 = CARTESIAN_POINT('', (-50., -40., 0.));
#239 = B_SPLINE_CURVE_WITH_KNOTS('', 1, (#240, #241), .UNSPECIFIED., .F., .U., (2, 2), (0., 60.), .UNSPECIFIED.);
#240 = CARTESIAN_POINT('', (-50., -40., 0.));
#241 = CARTESIAN_POINT('', (-50., -40., 60.));
#242 = ORIENTED_EDGE('', *, *, #243, .T.);
#243 = EDGE_CURVE('', #237, #244, #246, .T.);
#244 = VERTEX_POINT('', #245);
#245 = CARTESIAN_POINT('', (50., -40., 0.));
#246 = B_SPLINE_CURVE_WITH_KNOTS('', 1, (#247, #248), .UNSPECIFIED., .F., .U., (2, 2), (0., 100.), .UNSPECIFIED.);
#247 = CARTESIAN_POINT('', (-50., -40., 0.));
#248 = CARTESIAN_POINT('', (50., -40., 0.));
#249 = ORIENTED_EDGE('', *, *, #250, .T.);
#250 = EDGE_CURVE('', #244, #210, #251, .T.);
#251 = B_SPLINE_CURVE_WITH_KNOTS('', 1, (#252, #253), .UNSPECIFIED., .F., .U., (2, 2), (0., 60.), .UNSPECIFIED.);
#252 = CARTESIAN_POINT('', (50., -40., 0.));
#253 = CARTESIAN_POINT('', (50., -40., 60.));
#254 = ORIENTED_EDGE('', *, *, #209, .F.);
#255 = B_SPLINE_SURFACE_WITH_KNOTS('', 1, 1, ((#256, #257), (#258, #259)), .UNSPECIFIED., .F., .F., .U., (2, 2), (2, 2), (0., 100.), (0., 60.), .UNSPECIFIED.);
#256 = CARTESIAN_POINT('', (-50., -40., 0.));
#257 = CARTESIAN_POINT('', (-50., -40., 60.));
#258 = CARTESIAN_POINT('', (50., -40., 0.));
#259 = CARTESIAN_POINT('', (50., -40., 60.));
#260 = ADVANCED_FACE('', (#261), #291, .T.);
#261 = FACE_OUTER_BOUND('', #262, .T.);
#262 = EDGE_LOOP('', (#263, #273, #278, #279, #286));
#263 = ORIENTED_EDGE('', *, *, #264, .T.);
#264 = EDGE_CURVE('', #265, #267, #269, .T.);
#265 = VERTEX_POINT('', #266);
#266 = CARTESIAN_POINT('', (37.5, 40., 0.));
#267 = VERTEX_POINT('', #268);
#268 = CARTESIAN_POINT('', (50., 27.5, 0.));
#269 = (
   BOUNDED_CURVE ()
   B_SPLINE_CURVE (2, (#270, #271, #272), .UNSPECIFIED., .F., .U.)
   B_SPLINE_CURVE_WITH_KNOTS ((3, 3), (0., 1.), .UNSPECIFIED.)
   CURVE ()
   GEOMETRIC_REPRESENTATION_ITEM ()
   RATIONAL_B_SPLINE_CURVE ((1., 0.707106781186548, 1.))
   REPRESENTATION_ITEM ('')
);
#270 = CARTESIAN_POINT('', (37.5, 40., 0.));
#271 = CARTESIAN_POINT('', (37.5, 27.5, 0.));
#272 = CARTESIAN_POINT('', (50., 27.5, 0.));
#273 = ORIENTED_EDGE('', *, *, #274, .F.);
#274 = EDGE_CURVE('', #244, #267, #275, .T.);
#275 = B_SPLINE_CURVE_WITH_KNOTS('', 1, (#276, #277), .UNSPECIFIED., .F., .U., (2, 2), (0., 67.5), .UNSPECIFIED.);
#276 = CARTESIAN_POINT('', (50., -40., 0.));
#277 = CARTESIAN_POINT('', (50., 27.5, 0.));
#278 = ORIENTED_EDGE('', *, *, #243, .F.);
#279 = ORIENTED_EDGE('', *, *, #280, .T.);
#280 = EDGE_CURVE('', #237, #281, #283, .T.);
#281 = VERTEX_POINT('', #282);
#282 = CARTESIAN_POINT('', (-50., 40., 0.));
#283 = B_SPLINE_CURVE_WITH_KNOTS('', 1, (#284, #285), .UNSPECIFIED., .F., .U., (2, 2), (0., 80.), .UNSPECIFIED.);
#284 = CARTESIAN_POINT('', (-50., -40., 0.));
#285 = CARTESIAN_POINT('', (-50., 40., 0.));
#286 = ORIENTED_EDGE('', *, *, #287, .T.);
#287 = EDGE_CURVE('', #281, #265, #288, .T.);
#288 = B_SPLINE_CURVE_WITH_KNOTS('', 1, (#289, #290), .UNSPECIFIED., .F., .U., (2, 2), (0., 87.5), .UNSPECIFIED.);
#289 = CARTESIAN_POINT('', (-50., 40., 0.));
#290 = CARTESIAN_POINT('', (37.5, 40., 0.));
#291 = B_SPLINE_SURFACE_WITH_KNOTS('', 1, 1, ((#292, #293), (#294, #295)), .UNSPECIFIED., .F., .F., .U., (2, 2), (2, 2), (0., 80.), (0., 100.), .UNSPECIFIED.);
#292 = CARTESIAN_POINT('', (-50., -40., 0.));
#293 = CARTESIAN_POINT('', (50., -40., 0.));
#294 = CARTESIAN_POINT('', (-50., 40., 0.));
#295 = CARTESIAN_POINT('', (50., 40., 0.));
#296 = ADVANCED_FACE('', (#297), #307, .T.);
#297 = FACE_OUTER_BOUND('', #298, .T.);
#298 = EDGE_LOOP('', (#299, #300, #301, #306));
#299 = ORIENTED_EDGE('', *, *, #236, .T.);
#300 = ORIENTED_EDGE('', *, *, #200, .T.);
#301 = ORIENTED_EDGE('', *, *, #302, .F.);
#302 = EDGE_CURVE('', #281, #203, #303, .T.);
#303 = B_SPLINE_CURVE_WITH_KNOTS('', 1, (#304, #305), .UNSPECIFIED., .F., .U., (2, 2), (0., 60.), .UNSPECIFIED.);
#304 = CARTESIAN_POINT('', (-50., 40., 0.));
#305 = CARTESIAN_POINT('', (-50., 40., 60.));
#306 = ORIENTED_EDGE('', *, *, #280, .F.);
#307 = B_SPLINE_SURFACE_WITH_KNOTS('', 1, 1, ((#308, #309), (#310, #311)), .UNSPECIFIED., .F., .F., .U., (2, 2), (2, 2), (0., 60.), (0., 80.), .UNSPECIFIED.);
#308 = CARTESIAN_POINT('', (-50., -40., 0.));
#309 = CARTESIAN_POINT('', (-50., 40., 0.));
#310 = CARTESIAN_POINT('', (-50., -40., 60.));
#311 = CARTESIAN_POINT('', (-50., 40., 60.));
#312 = ADVANCED_FACE('', (#313), #337, .T.);
#313 = FACE_OUTER_BOUND('', #314, .T.);
#314 = EDGE_LOOP('', (#315, #324, #329, #330, #331, #332));
#315 = ORIENTED_EDGE('', *, *, #316, .F.);
#316 = EDGE_CURVE('', #317, #319, #321, .T.);
#317 = VERTEX_POINT('', #318);
#318 = CARTESIAN_POINT('', (50., 40., 50.));
#319 = VERTEX_POINT('', #320);
#320 = CARTESIAN_POINT('', (50., 27.5, 50.));
#321 = B_SPLINE_CURVE_WITH_KNOTS('', 1, (#322, #323), .UNSPECIFIED., .F., .U., (2, 2), (0., 0.642824346533225), .UNSPECIFIED.);
#322 = CARTESIAN_POINT('', (50., 40., 50.));
#323 = CARTESIAN_POINT('', (50., 27.5, 50.));
#324 = ORIENTED_EDGE('', *, *, #325, .T.);
#325 = EDGE_CURVE('', #317, #217, #326, .T.);
#326 = B_SPLINE_CURVE_WITH_KNOTS('', 1, (#327, #328), .UNSPECIFIED., .F., .U., (2, 2), (50., 60.), .UNSPECIFIED.);
#327 = CARTESIAN_POINT('', (50., 40., 50.));
#328 = CARTESIAN_POINT('', (50., 40., 60.));
#329 = ORIENTED_EDGE('', *, *, #216, .F.);
#330 = ORIENTED_EDGE('', *, *, #250, .F.);
#331 = ORIENTED_EDGE('', *, *, #274, .T.);
#332 = ORIENTED_EDGE('', *, *, #333, .T.);
#333 = EDGE_CURVE('', #267, #319, #334, .T.);
#334 = B_SPLINE_CURVE_WITH_KNOTS('', 1, (#335, #336), .UNSPECIFIED., .F., .U., (2, 2), (0., 1.), .UNSPECIFIED.);
#335 = CARTESIAN_POINT('', (50., 27.5, 3.5527136788005E-15));
#336 = CARTESIAN_POINT('', (50., 27.5, 50.));
#337 = B_SPLINE_SURFACE_WITH_KNOTS('', 1, 1, ((#338, #339), (#340, #341)), .UNSPECIFIED., .F., .F., .U., (2, 2), (2, 2), (0., 80.), (0., 60.), .UNSPECIFIED.);
#338 = CARTESIAN_POINT('', (50., -40., 0.));
#339 = CARTESIAN_POINT('', (50., -40., 60.));
#340 = CARTESIAN_POINT('', (50., 40., 0.));
#341 = CARTESIAN_POINT('', (50., 40., 60.));
#342 = ADVANCED_FACE('', (#343), #361, .T.);
#343 = FACE_OUTER_BOUND('', #344, .T.);
#344 = EDGE_LOOP('', (#345, #352, #357, #358, #359, #360));
#345 = ORIENTED_EDGE('', *, *, #346, .F.);
#346 = EDGE_CURVE('', #347, #317, #349, .T.);
#347 = VERTEX_POINT('', #348);
#348 = CARTESIAN_POINT('', (37.5, 40., 50.));
#349 = B_SPLINE_CURVE_WITH_KNOTS('', 1, (#350, #351), .UNSPECIFIED., .F., .U., (2, 2), (0.357175653466775, 1.), .UNSPECIFIED.);
#350 = CARTESIAN_POINT('', (37.5, 40., 50.));
#351 = CARTESIAN_POINT('', (50., 40., 50.));
#352 = ORIENTED_EDGE('', *, *, #353, .F.);
#353 = EDGE_CURVE('', #265, #347, #354, .T.);
#354 = B_SPLINE_CURVE_WITH_KNOTS('', 1, (#355, #356), .UNSPECIFIED., .F., .U., (2, 2), (0., 1.), .UNSPECIFIED.);
#355 = CARTESIAN_POINT('', (37.5, 40., 3.5527136788005E-15));
#356 = CARTESIAN_POINT('', (37.5, 40., 50.));
#357 = ORIENTED_EDGE('', *, *, #287, .F.);
#358 = ORIENTED_EDGE('', *, *, #302, .T.);
#359 = ORIENTED_EDGE('', *, *, #223, .T.);
#360 = ORIENTED_EDGE('', *, *, #325, .F.);
#361 = B_SPLINE_SURFACE_WITH_KNOTS('', 1, 1, ((#362, #363), (#364, #365)), .UNSPECIFIED., .F., .F., .U., (2, 2), (2, 2), (0., 60.), (0., 100.), .UNSPECIFIED.);
#362 = CARTESIAN_POINT('', (-50., 40., 0.));
#363 = CARTESIAN_POINT('', (50., 40., 0.));
#364 = CARTESIAN_POINT('', (-50., 40., 60.));
#365 = CARTESIAN_POINT('', (50., 40., 60.));
#366 = ADVANCED_FACE('', (#367), #378, .F.);
#367 = FACE_OUTER_BOUND('', #368, .F.);
#368 = EDGE_LOOP('', (#369, #370, #371, #372));
#369 = ORIENTED_EDGE('', *, *, #353, .F.);
#370 = ORIENTED_EDGE('', *, *, #264, .T.);
#371 = ORIENTED_EDGE('', *, *, #333, .T.);
#372 = ORIENTED_EDGE('', *, *, #373, .F.);
#373 = EDGE_CURVE('', #347, #319, #374, .T.);
#374 = (
   BOUNDED_CURVE ()
   B_SPLINE_CURVE (2, (#375, #376, #377), .UNSPECIFIED., .F., .U.)
   B_SPLINE_CURVE_WITH_KNOTS ((3, 3), (39.2699081698724, 58.9048622548086), .UNSPECIFIED.)
   CURVE ()
   GEOMETRIC_REPRESENTATION_ITEM ()
   RATIONAL_B_SPLINE_CURVE ((1., 0.707106781186548, 1.))
   REPRESENTATION_ITEM ('')
);
#375 = CARTESIAN_POINT('', (37.5, 40., 50.));
#376 = CARTESIAN_POINT('', (37.5, 27.5, 50.));
#377 = CARTESIAN_POINT('', (50., 27.5, 50.));
#378 = (
   BOUNDED_SURFACE ()
   B_SPLINE_SURFACE (2, 1, ((#379, #380), (#381, #382), (#383, #384), (#385, #386), (#387, #388), (#389, #390), (#391, #392), (#393, #394), (#395, #396)), .UNSPECIFIED., .T., .F., .U.)
   B_SPLINE_SURFACE_WITH_KNOTS ((3, 2, 2, 2, 3), (2, 2), (0., 19.6349540849362, 39.2699081698724, 58.9048622548086, 78.5398163397448), (0., 120.), .UNSPECIFIED.)
   GEOMETRIC_REPRESENTATION_ITEM ()
   RATIONAL_B_SPLINE_SURFACE (((1., 1.), (0.707106781186548, 0.707106781186548), (1., 1.), (0.707106781186548, 0.707106781186548), (1., 1.), (0.707106781186548, 0.707106781186548), (1., 1.), (0.707106781186548, 0.707106781186548), (1., 1.)))
   REPRESENTATION_ITEM ('')
   SURFACE ()
);
#379 = CARTESIAN_POINT('', (62.5, 40., -70.));
#380 = CARTESIAN_POINT('', (62.5, 40., 50.));
#381 = CARTESIAN_POINT('', (62.5, 52.5, -70.));
#382 = CARTESIAN_POINT('', (62.5, 52.5, 50.));
#383 = CARTESIAN_POINT('', (50., 52.5, -70.));
#384 = CARTESIAN_POINT('', (50., 52.5, 50.));
#385 = CARTESIAN_POINT('', (37.5, 52.5, -70.));
#386 = CARTESIAN_POINT('', (37.5, 52.5, 50.));
#387 = CARTESIAN_POINT('', (37.5, 40., -70.));
#388 = CARTESIAN_POINT('', (37.5, 40., 50.));
#389 = CARTESIAN_POINT('', (37.5, 27.5, -70.));
#390 = CARTESIAN_POINT('', (37.5, 27.5, 50.));
#391 = CARTESIAN_POINT('', (50., 27.5, -70.));
#392 = CARTESIAN_POINT('', (50., 27.5, 50.));
#393 = CARTESIAN_POINT('', (62.5, 27.5, -70.));
#394 = CARTESIAN_POINT('', (62.5, 27.5, 50.));
#395 = CARTESIAN_POINT('', (62.5, 40., -70.));
#396 = CARTESIAN_POINT('', (62.5, 40., 50.));
#397 = ADVANCED_FACE('', (#398), #403, .F.);
#398 = FACE_OUTER_BOUND('', #399, .F.);
#399 = EDGE_LOOP('', (#400, #401, #402));
#400 = ORIENTED_EDGE('', *, *, #346, .F.);
#401 = ORIENTED_EDGE('', *, *, #373, .T.);
#402 = ORIENTED_EDGE('', *, *, #316, .F.);
#403 = B_SPLINE_SURFACE_WITH_KNOTS('', 1, 1, ((#404, #405), (#406, #407)), .UNSPECIFIED., .F., .F., .U., (2, 2), (2, 2), (0., 1.), (0., 1.), .UNSPECIFIED.);
#404 = CARTESIAN_POINT('', (69.4454364826301, 20.5545635173699, 50.));
#405 = CARTESIAN_POINT('', (30.5545635173699, 20.5545635173699, 50.));
#406 = CARTESIAN_POINT('', (69.4454364826301, 59.4454364826301, 50.));
#407 = CARTESIAN_POINT('', (30.5545635173699, 59.4454364826301, 50.));
#408 = PRESENTATION_STYLE_ASSIGNMENT((#409));
#409 = SURFACE_STYLE_USAGE(.POSITIVE., #410);
#410 = SURFACE_SIDE_STYLE('', (#411));
#411 = SURFACE_STYLE_FILL_AREA(#412);
#412 = FILL_AREA_STYLE('', (#413));
#413 = FILL_AREA_STYLE_COLOUR('', #414);
#414 = COLOUR_RGB('', 0.50196078431373, 0.50196078431373, 0.50196078431373);
#415 = STYLED_ITEM('', (#408), #194);
#416 = CARTESIAN_POINT('Origin', (0., 0., 0.));
#417 = GEOMETRIC_SET('', (#416));
#418 = (
   GEOMETRIC_REPRESENTATION_CONTEXT (3)
   GLOBAL_UNCERTAINTY_ASSIGNED_CONTEXT ((#420))
   GLOBAL_UNIT_ASSIGNED_CONTEXT ((#419, #421, #422))
   REPRESENTATION_CONTEXT ('', '3D')
);
#419 = (
   LENGTH_UNIT ()
   NAMED_UNIT (*)
   SI_UNIT (.MILLI., .METRE.)
);
#420 = UNCERTAINTY_MEASURE_WITH_UNIT(LENGTH_MEASURE(1.E-6), #419, 'DISTANCE_ACCURACY_VALUE', '');
#421 = (
   NAMED_UNIT (*)
   SI_UNIT ($, .STERADIAN.)
   SOLID_ANGLE_UNIT ()
);
#422 = (
   NAMED_UNIT (*)
   PLANE_ANGLE_UNIT ()
   SI_UNIT ($, .RADIAN.)
);
#423 = SHAPE_REPRESENTATION('', (#438), #418);
#424 = PRODUCT_DEFINITION_SHAPE('', '', #425);
#425 = PRODUCT_DEFINITION('', '', #428, #432);
#426 = APPLICATION_CONTEXT('configuration controlled 3D designs of mechanical parts and assemblies');
#427 = APPLICATION_PROTOCOL_DEFINITION('International Standard', 'automotive_design', 2002, #426);
#428 = PRODUCT_DEFINITION_FORMATION_WITH_SPECIFIED_SOURCE('', '', #429, .NOT_KNOWN.);
#429 = PRODUCT('SubKeepSafe', 'SubKeepSafe', '', (#430));
#430 = PRODUCT_CONTEXT('', #426, 'mechanical');
#431 = PRODUCT_RELATED_PRODUCT_CATEGORY('detail', '', (#429));
#432 = PRODUCT_DEFINITION_CONTEXT('part definition', #426, 'design');
#433 = SHAPE_DEFINITION_REPRESENTATION(#424, #423);
#434 = SHAPE_REPRESENTATION_RELATIONSHIP('', '', #423, #435);
#435 = SHAPE_REPRESENTATION('', (#417), #418);
#436 = SHAPE_REPRESENTATION_RELATIONSHIP('', '', #423, #437);
#437 = ADVANCED_BREP_SHAPE_REPRESENTATION('', (#1, #194), #418);
#438 = AXIS2_PLACEMENT_3D('', #439, #440, #441);
#439 = CARTESIAN_POINT('', (0., 0., 0.));
#440 = DIRECTION('', (0., 0., 1.));
#441 = DIRECTION('', (1., 0., 0.));
ENDSEC;
END-ISO-10303-21;
