ISO-10303-21;
HEADER;
FILE_DESCRIPTION(('STEP'), '1');
FILE_NAME('MixedForm', '2026-04-15T18:17:21', (''), (''), 'Express 3.1.2.0', 'Express Tool', 'Unknown');
FILE_SCHEMA(('AUTOMOTIVE_DESIGN'));
ENDSEC;

DATA;
#1 = MANIFOLD_SOLID_BREP('Box1_0', #2);
#2 = CLOSED_SHELL('', (#3, #39, #67, #95, #115, #127));
#3 = ADVANCED_FACE('', (#4), #34, .T.);
#4 = FACE_OUTER_BOUND('', #5, .T.);
#5 = EDGE_LOOP('', (#6, #15, #22, #29));
#6 = ORIENTED_EDGE('', *, *, #7, .T.);
#7 = EDGE_CURVE('', #8, #10, #12, .T.);
#8 = VERTEX_POINT('', #9);
#9 = CARTESIAN_POINT('', (0., 40., 0.));
#10 = VERTEX_POINT('', #11);
#11 = CARTESIAN_POINT('', (0., 40., 30.));
#12 = B_SPLINE_CURVE_WITH_KNOTS('', 1, (#13, #14), .UNSPECIFIED., .F., .U., (2, 2), (0., 30.), .UNSPECIFIED.);
#13 = CARTESIAN_POINT('', (0., 40., 0.));
#14 = CARTESIAN_POINT('', (0., 40., 30.));
#15 = ORIENTED_EDGE('', *, *, #16, .T.);
#16 = EDGE_CURVE('', #10, #17, #19, .T.);
#17 = VERTEX_POINT('', #18);
#18 = CARTESIAN_POINT('', (60., 40., 30.));
#19 = B_SPLINE_CURVE_WITH_KNOTS('', 1, (#20, #21), .UNSPECIFIED., .F., .U., (2, 2), (0., 60.), .UNSPECIFIED.);
#20 = CARTESIAN_POINT('', (0., 40., 30.));
#21 = CARTESIAN_POINT('', (60., 40., 30.));
#22 = ORIENTED_EDGE('', *, *, #23, .F.);
#23 = EDGE_CURVE('', #24, #17, #26, .T.);
#24 = VERTEX_POINT('', #25);
#25 = CARTESIAN_POINT('', (60., 40., 0.));
#26 = B_SPLINE_CURVE_WITH_KNOTS('', 1, (#27, #28), .UNSPECIFIED., .F., .U., (2, 2), (0., 30.), .UNSPECIFIED.);
#27 = CARTESIAN_POINT('', (60., 40., 0.));
#28 = CARTESIAN_POINT('', (60., 40., 30.));
#29 = ORIENTED_EDGE('', *, *, #30, .F.);
#30 = EDGE_CURVE('', #8, #24, #31, .T.);
#31 = B_SPLINE_CURVE_WITH_KNOTS('', 1, (#32, #33), .UNSPECIFIED., .F., .U., (2, 2), (0., 60.), .UNSPECIFIED.);
#32 = CARTESIAN_POINT('', (0., 40., 0.));
#33 = CARTESIAN_POINT('', (60., 40., 0.));
#34 = B_SPLINE_SURFACE_WITH_KNOTS('', 1, 1, ((#35, #36), (#37, #38)), .UNSPECIFIED., .F., .F., .U., (2, 2), (2, 2), (0., 30.), (0., 60.), .UNSPECIFIED.);
#35 = CARTESIAN_POINT('', (0., 40., 0.));
#36 = CARTESIAN_POINT('', (60., 40., 0.));
#37 = CARTESIAN_POINT('', (0., 40., 30.));
#38 = CARTESIAN_POINT('', (60., 40., 30.));
#39 = ADVANCED_FACE('', (#40), #62, .T.);
#40 = FACE_OUTER_BOUND('', #41, .T.);
#41 = EDGE_LOOP('', (#42, #49, #56, #61));
#42 = ORIENTED_EDGE('', *, *, #43, .F.);
#43 = EDGE_CURVE('', #44, #10, #46, .T.);
#44 = VERTEX_POINT('', #45);
#45 = CARTESIAN_POINT('', (0., 0., 30.));
#46 = B_SPLINE_CURVE_WITH_KNOTS('', 1, (#47, #48), .UNSPECIFIED., .F., .U., (2, 2), (0., 40.), .UNSPECIFIED.);
#47 = CARTESIAN_POINT('', (0., 0., 30.));
#48 = CARTESIAN_POINT('', (0., 40., 30.));
#49 = ORIENTED_EDGE('', *, *, #50, .T.);
#50 = EDGE_CURVE('', #44, #51, #53, .T.);
#51 = VERTEX_POINT('', #52);
#52 = CARTESIAN_POINT('', (60., 0., 30.));
#53 = B_SPLINE_CURVE_WITH_KNOTS('', 1, (#54, #55), .UNSPECIFIED., .F., .U., (2, 2), (0., 60.), .UNSPECIFIED.);
#54 = CARTESIAN_POINT('', (0., 0., 30.));
#55 = CARTESIAN_POINT('', (60., 0., 30.));
#56 = ORIENTED_EDGE('', *, *, #57, .T.);
#57 = EDGE_CURVE('', #51, #17, #58, .T.);
#58 = B_SPLINE_CURVE_WITH_KNOTS('', 1, (#59, #60), .UNSPECIFIED., .F., .U., (2, 2), (0., 40.), .UNSPECIFIED.);
#59 = CARTESIAN_POINT('', (60., 0., 30.));
#60 = CARTESIAN_POINT('', (60., 40., 30.));
#61 = ORIENTED_EDGE('', *, *, #16, .F.);
#62 = B_SPLINE_SURFACE_WITH_KNOTS('', 1, 1, ((#63, #64), (#65, #66)), .UNSPECIFIED., .F., .F., .U., (2, 2), (2, 2), (0., 60.), (0., 40.), .UNSPECIFIED.);
#63 = CARTESIAN_POINT('', (0., 0., 30.));
#64 = CARTESIAN_POINT('', (0., 40., 30.));
#65 = CARTESIAN_POINT('', (60., 0., 30.));
#66 = CARTESIAN_POINT('', (60., 40., 30.));
#67 = ADVANCED_FACE('', (#68), #90, .T.);
#68 = FACE_OUTER_BOUND('', #69, .T.);
#69 = EDGE_LOOP('', (#70, #77, #84, #89));
#70 = ORIENTED_EDGE('', *, *, #71, .F.);
#71 = EDGE_CURVE('', #72, #44, #74, .T.);
#72 = VERTEX_POINT('', #73);
#73 = CARTESIAN_POINT('', (0., 0., 0.));
#74 = B_SPLINE_CURVE_WITH_KNOTS('', 1, (#75, #76), .UNSPECIFIED., .F., .U., (2, 2), (0., 30.), .UNSPECIFIED.);
#75 = CARTESIAN_POINT('', (0., 0., 0.));
#76 = CARTESIAN_POINT('', (0., 0., 30.));
#77 = ORIENTED_EDGE('', *, *, #78, .T.);
#78 = EDGE_CURVE('', #72, #79, #81, .T.);
#79 = VERTEX_POINT('', #80);
#80 = CARTESIAN_POINT('', (60., 0., 0.));
#81 = B_SPLINE_CURVE_WITH_KNOTS('', 1, (#82, #83), .UNSPECIFIED., .F., .U., (2, 2), (0., 60.), .UNSPECIFIED.);
#82 = CARTESIAN_POINT('', (0., 0., 0.));
#83 = CARTESIAN_POINT('', (60., 0., 0.));
#84 = ORIENTED_EDGE('', *, *, #85, .T.);
#85 = EDGE_CURVE('', #79, #51, #86, .T.);
#86 = B_SPLINE_CURVE_WITH_KNOTS('', 1, (#87, #88), .UNSPECIFIED., .F., .U., (2, 2), (0., 30.), .UNSPECIFIED.);
#87 = CARTESIAN_POINT('', (60., 0., 0.));
#88 = CARTESIAN_POINT('', (60., 0., 30.));
#89 = ORIENTED_EDGE('', *, *, #50, .F.);
#90 = B_SPLINE_SURFACE_WITH_KNOTS('', 1, 1, ((#91, #92), (#93, #94)), .UNSPECIFIED., .F., .F., .U., (2, 2), (2, 2), (0., 60.), (0., 30.), .UNSPECIFIED.);
#91 = CARTESIAN_POINT('', (0., 0., 0.));
#92 = CARTESIAN_POINT('', (0., 0., 30.));
#93 = CARTESIAN_POINT('', (60., 0., 0.));
#94 = CARTESIAN_POINT('', (60., 0., 30.));
#95 = ADVANCED_FACE('', (#96), #110, .T.);
#96 = FACE_OUTER_BOUND('', #97, .T.);
#97 = EDGE_LOOP('', (#98, #103, #104, #109));
#98 = ORIENTED_EDGE('', *, *, #99, .T.);
#99 = EDGE_CURVE('', #72, #8, #100, .T.);
#100 = B_SPLINE_CURVE_WITH_KNOTS('', 1, (#101, #102), .UNSPECIFIED., .F., .U., (2, 2), (0., 40.), .UNSPECIFIED.);
#101 = CARTESIAN_POINT('', (0., 0., 0.));
#102 = CARTESIAN_POINT('', (0., 40., 0.));
#103 = ORIENTED_EDGE('', *, *, #30, .T.);
#104 = ORIENTED_EDGE('', *, *, #105, .F.);
#105 = EDGE_CURVE('', #79, #24, #106, .T.);
#106 = B_SPLINE_CURVE_WITH_KNOTS('', 1, (#107, #108), .UNSPECIFIED., .F., .U., (2, 2), (0., 40.), .UNSPECIFIED.);
#107 = CARTESIAN_POINT('', (60., 0., 0.));
#108 = CARTESIAN_POINT('', (60., 40., 0.));
#109 = ORIENTED_EDGE('', *, *, #78, .F.);
#110 = B_SPLINE_SURFACE_WITH_KNOTS('', 1, 1, ((#111, #112), (#113, #114)), .UNSPECIFIED., .F., .F., .U., (2, 2), (2, 2), (0., 40.), (0., 60.), .UNSPECIFIED.);
#111 = CARTESIAN_POINT('', (0., 0., 0.));
#112 = CARTESIAN_POINT('', (60., 0., 0.));
#113 = CARTESIAN_POINT('', (0., 40., 0.));
#114 = CARTESIAN_POINT('', (60., 40., 0.));
#115 = ADVANCED_FACE('', (#116), #122, .T.);
#116 = FACE_OUTER_BOUND('', #117, .T.);
#117 = EDGE_LOOP('', (#118, #119, #120, #121));
#118 = ORIENTED_EDGE('', *, *, #85, .F.);
#119 = ORIENTED_EDGE('', *, *, #105, .T.);
#120 = ORIENTED_EDGE('', *, *, #23, .T.);
#121 = ORIENTED_EDGE('', *, *, #57, .F.);
#122 = B_SPLINE_SURFACE_WITH_KNOTS('', 1, 1, ((#123, #124), (#125, #126)), .UNSPECIFIED., .F., .F., .U., (2, 2), (2, 2), (0., 40.), (0., 30.), .UNSPECIFIED.);
#123 = CARTESIAN_POINT('', (60., 0., 0.));
#124 = CARTESIAN_POINT('', (60., 0., 30.));
#125 = CARTESIAN_POINT('', (60., 40., 0.));
#126 = CARTESIAN_POINT('', (60., 40., 30.));
#127 = ADVANCED_FACE('', (#128), #134, .T.);
#128 = FACE_OUTER_BOUND('', #129, .T.);
#129 = EDGE_LOOP('', (#130, #131, #132, #133));
#130 = ORIENTED_EDGE('', *, *, #71, .T.);
#131 = ORIENTED_EDGE('', *, *, #43, .T.);
#132 = ORIENTED_EDGE('', *, *, #7, .F.);
#133 = ORIENTED_EDGE('', *, *, #99, .F.);
#134 = B_SPLINE_SURFACE_WITH_KNOTS('', 1, 1, ((#135, #136), (#137, #138)), .UNSPECIFIED., .F., .F., .U., (2, 2), (2, 2), (0., 30.), (0., 40.), .UNSPECIFIED.);
#135 = CARTESIAN_POINT('', (0., 0., 0.));
#136 = CARTESIAN_POINT('', (0., 40., 0.));
#137 = CARTESIAN_POINT('', (0., 0., 30.));
#138 = CARTESIAN_POINT('', (0., 40., 30.));
#139 = DRAUGHTING_MODEL('', (#147, #231, #303), #306);
#140 = PRESENTATION_STYLE_ASSIGNMENT((#141));
#141 = SURFACE_STYLE_USAGE(.POSITIVE., #142);
#142 = SURFACE_SIDE_STYLE('', (#143));
#143 = SURFACE_STYLE_FILL_AREA(#144);
#144 = FILL_AREA_STYLE('', (#145));
#145 = FILL_AREA_STYLE_COLOUR('', #146);
#146 = COLOUR_RGB('', 0.50196078431373, 0.50196078431373, 0.50196078431373);
#147 = STYLED_ITEM('', (#140), #1);
#148 = MANIFOLD_SOLID_BREP('Solid', #149);
#149 = CLOSED_SHELL('', (#150, #206, #215));
#150 = ADVANCED_FACE('', (#151), #187, .T.);
#151 = FACE_OUTER_BOUND('', #152, .T.);
#152 = EDGE_LOOP('', (#153, #162, #174, #175));
#153 = ORIENTED_EDGE('', *, *, #154, .F.);
#154 = EDGE_CURVE('', #155, #157, #159, .T.);
#155 = VERTEX_POINT('', #156);
#156 = CARTESIAN_POINT('', (112.5, 0., -20.));
#157 = VERTEX_POINT('', #158);
#158 = CARTESIAN_POINT('', (112.5, 0., 20.));
#159 = B_SPLINE_CURVE_WITH_KNOTS('', 1, (#160, #161), .UNSPECIFIED., .F., .U., (2, 2), (0., 40.), .UNSPECIFIED.);
#160 = CARTESIAN_POINT('', (112.5, 0., -20.));
#161 = CARTESIAN_POINT('', (112.5, 0., 20.));
#162 = ORIENTED_EDGE('', *, *, #163, .T.);
#163 = EDGE_CURVE('', #155, #155, #164, .T.);
#164 = (
   BOUNDED_CURVE ()
   B_SPLINE_CURVE (2, (#165, #166, #167, #168, #169, #170, #171, #172, #173), .UNSPECIFIED., .T., .U.)
   B_SPLINE_CURVE_WITH_KNOTS ((3, 2, 2, 2, 3), (0., 19.6349540849362, 39.2699081698724, 58.9048622548086, 78.5398163397448), .UNSPECIFIED.)
   CURVE ()
   GEOMETRIC_REPRESENTATION_ITEM ()
   RATIONAL_B_SPLINE_CURVE ((1., 0.707106781186548, 1., 0.707106781186548, 1., 0.707106781186548, 1., 0.707106781186548, 1.))
   REPRESENTATION_ITEM ('')
);
#165 = CARTESIAN_POINT('', (112.5, 0., -20.));
#166 = CARTESIAN_POINT('', (112.5, 12.5, -20.));
#167 = CARTESIAN_POINT('', (100., 12.5, -20.));
#168 = CARTESIAN_POINT('', (87.5, 12.5, -20.));
#169 = CARTESIAN_POINT('', (87.5, 1.53080849893419E-15, -20.));
#170 = CARTESIAN_POINT('', (87.5, -12.5, -20.));
#171 = CARTESIAN_POINT('', (100., -12.5, -20.));
#172 = CARTESIAN_POINT('', (112.5, -12.5, -20.));
#173 = CARTESIAN_POINT('', (112.5, 0., -20.));
#174 = ORIENTED_EDGE('', *, *, #154, .T.);
#175 = ORIENTED_EDGE('', *, *, #176, .F.);
#176 = EDGE_CURVE('', #157, #157, #177, .T.);
#177 = (
   BOUNDED_CURVE ()
   B_SPLINE_CURVE (2, (#178, #179, #180, #181, #182, #183, #184, #185, #186), .UNSPECIFIED., .T., .U.)
   B_SPLINE_CURVE_WITH_KNOTS ((3, 2, 2, 2, 3), (0., 19.6349540849362, 39.2699081698724, 58.9048622548086, 78.5398163397448), .UNSPECIFIED.)
   CURVE ()
   GEOMETRIC_REPRESENTATION_ITEM ()
   RATIONAL_B_SPLINE_CURVE ((1., 0.707106781186548, 1., 0.707106781186548, 1., 0.707106781186548, 1., 0.707106781186548, 1.))
   REPRESENTATION_ITEM ('')
);
#178 = CARTESIAN_POINT('', (112.5, 0., 20.));
#179 = CARTESIAN_POINT('', (112.5, 12.5, 20.));
#180 = CARTESIAN_POINT('', (100., 12.5, 20.));
#181 = CARTESIAN_POINT('', (87.5, 12.5, 20.));
#182 = CARTESIAN_POINT('', (87.5, 1.53080849893419E-15, 20.));
#183 = CARTESIAN_POINT('', (87.5, -12.5, 20.));
#184 = CARTESIAN_POINT('', (100., -12.5, 20.));
#185 = CARTESIAN_POINT('', (112.5, -12.5, 20.));
#186 = CARTESIAN_POINT('', (112.5, 0., 20.));
#187 = (
   BOUNDED_SURFACE ()
   B_SPLINE_SURFACE (2, 1, ((#188, #189), (#190, #191), (#192, #193), (#194, #195), (#196, #197), (#198, #199), (#200, #201), (#202, #203), (#204, #205)), .UNSPECIFIED., .T., .F., .U.)
   B_SPLINE_SURFACE_WITH_KNOTS ((3, 2, 2, 2, 3), (2, 2), (0., 19.6349540849362, 39.2699081698724, 58.9048622548086, 78.5398163397448), (0., 40.), .UNSPECIFIED.)
   GEOMETRIC_REPRESENTATION_ITEM ()
   RATIONAL_B_SPLINE_SURFACE (((1., 1.), (0.707106781186548, 0.707106781186548), (1., 1.), (0.707106781186548, 0.707106781186548), (1., 1.), (0.707106781186548, 0.707106781186548), (1., 1.), (0.707106781186548, 0.707106781186548), (1., 1.)))
   REPRESENTATION_ITEM ('')
   SURFACE ()
);
#188 = CARTESIAN_POINT('', (112.5, 0., -20.));
#189 = CARTESIAN_POINT('', (112.5, 0., 20.));
#190 = CARTESIAN_POINT('', (112.5, 12.5, -20.));
#191 = CARTESIAN_POINT('', (112.5, 12.5, 20.));
#192 = CARTESIAN_POINT('', (100., 12.5, -20.));
#193 = CARTESIAN_POINT('', (100., 12.5, 20.));
#194 = CARTESIAN_POINT('', (87.5, 12.5, -20.));
#195 = CARTESIAN_POINT('', (87.5, 12.5, 20.));
#196 = CARTESIAN_POINT('', (87.5, 1.53080849893419E-15, -20.));
#197 = CARTESIAN_POINT('', (87.5, 1.53080849893419E-15, 20.));
#198 = CARTESIAN_POINT('', (87.5, -12.5, -20.));
#199 = CARTESIAN_POINT('', (87.5, -12.5, 20.));
#200 = CARTESIAN_POINT('', (100., -12.5, -20.));
#201 = CARTESIAN_POINT('', (100., -12.5, 20.));
#202 = CARTESIAN_POINT('', (112.5, -12.5, -20.));
#203 = CARTESIAN_POINT('', (112.5, -12.5, 20.));
#204 = CARTESIAN_POINT('', (112.5, 0., -20.));
#205 = CARTESIAN_POINT('', (112.5, 0., 20.));
#206 = ADVANCED_FACE('', (#207), #210, .T.);
#207 = FACE_OUTER_BOUND('', #208, .T.);
#208 = EDGE_LOOP('', (#209));
#209 = ORIENTED_EDGE('', *, *, #163, .F.);
#210 = B_SPLINE_SURFACE_WITH_KNOTS('', 1, 1, ((#211, #212), (#213, #214)), .UNSPECIFIED., .F., .F., .U., (2, 2), (2, 2), (0., 1.), (0., 1.), .UNSPECIFIED.);
#211 = CARTESIAN_POINT('', (119.44543648263, -19.4454364826301, -20.));
#212 = CARTESIAN_POINT('', (119.44543648263, 19.4454364826301, -20.));
#213 = CARTESIAN_POINT('', (80.5545635173699, -19.4454364826301, -20.));
#214 = CARTESIAN_POINT('', (80.5545635173699, 19.4454364826301, -20.));
#215 = ADVANCED_FACE('', (#216), #219, .T.);
#216 = FACE_OUTER_BOUND('', #217, .T.);
#217 = EDGE_LOOP('', (#218));
#218 = ORIENTED_EDGE('', *, *, #176, .T.);
#219 = B_SPLINE_SURFACE_WITH_KNOTS('', 1, 1, ((#220, #221), (#222, #223)), .UNSPECIFIED., .F., .F., .U., (2, 2), (2, 2), (0., 1.), (0., 1.), .UNSPECIFIED.);
#220 = CARTESIAN_POINT('', (119.44543648263, -19.4454364826301, 20.));
#221 = CARTESIAN_POINT('', (80.5545635173699, -19.4454364826301, 20.));
#222 = CARTESIAN_POINT('', (119.44543648263, 19.4454364826301, 20.));
#223 = CARTESIAN_POINT('', (80.5545635173699, 19.4454364826301, 20.));
#224 = PRESENTATION_STYLE_ASSIGNMENT((#225));
#225 = SURFACE_STYLE_USAGE(.POSITIVE., #226);
#226 = SURFACE_SIDE_STYLE('', (#227));
#227 = SURFACE_STYLE_FILL_AREA(#228);
#228 = FILL_AREA_STYLE('', (#229));
#229 = FILL_AREA_STYLE_COLOUR('', #230);
#230 = COLOUR_RGB('', 0.50196078431373, 0.50196078431373, 0.50196078431373);
#231 = STYLED_ITEM('', (#224), #148);
#232 = MANIFOLD_SOLID_BREP('Solid0', #233);
#233 = CLOSED_SHELL('', (#234));
#234 = ADVANCED_FACE('', (#235), #250, .T.);
#235 = FACE_OUTER_BOUND('', #236, .T.);
#236 = EDGE_LOOP('', (#237, #249));
#237 = ORIENTED_EDGE('', *, *, #238, .F.);
#238 = EDGE_CURVE('', #239, #241, #243, .T.);
#239 = VERTEX_POINT('', #240);
#240 = CARTESIAN_POINT('', (100., 60., -15.));
#241 = VERTEX_POINT('', #242);
#242 = CARTESIAN_POINT('', (100., 60., 15.));
#243 = (
   BOUNDED_CURVE ()
   B_SPLINE_CURVE (2, (#244, #245, #246, #247, #248), .UNSPECIFIED., .F., .U.)
   B_SPLINE_CURVE_WITH_KNOTS ((3, 2, 3), (0., 0.5, 1.), .UNSPECIFIED.)
   CURVE ()
   GEOMETRIC_REPRESENTATION_ITEM ()
   RATIONAL_B_SPLINE_CURVE ((1., 0.707106781186548, 1., 0.707106781186548, 1.))
   REPRESENTATION_ITEM ('')
);
#244 = CARTESIAN_POINT('', (100., 60., -15.));
#245 = CARTESIAN_POINT('', (115., 60., -15.));
#246 = CARTESIAN_POINT('', (115., 60., -3.67394039744206E-15));
#247 = CARTESIAN_POINT('', (115., 60., 15.));
#248 = CARTESIAN_POINT('', (100., 60., 15.));
#249 = ORIENTED_EDGE('', *, *, #238, .T.);
#250 = (
   BOUNDED_SURFACE ()
   B_SPLINE_SURFACE (2, 2, ((#251, #252, #253, #254, #255), (#256, #257, #258, #259, #260), (#261, #262, #263, #264, #265), (#266, #267, #268, #269, #270), (#271, #272, #273, #274, #275), (#276, #277, #278, #279, #280), (#281, #282, #283, #284, #285), (#286, #287, #288, #289, #290), (#291, #292, #293, #294, #295)), .UNSPECIFIED., .T., .F., .U.)
   B_SPLINE_SURFACE_WITH_KNOTS ((3, 2, 2, 2, 3), (3, 2, 3), (0., 0.25, 0.5, 0.75, 1.), (0., 0.5, 1.), .UNSPECIFIED.)
   GEOMETRIC_REPRESENTATION_ITEM ()
   RATIONAL_B_SPLINE_SURFACE (((1., 0.707106781186548, 1., 0.707106781186548, 1.), (0.707106781186548, 0.5, 0.707106781186548, 0.5, 0.707106781186548), (1., 0.707106781186548, 1., 0.707106781186548, 1.), (0.707106781186548, 0.5, 0.707106781186548, 0.5, 0.707106781186548), (1., 0.707106781186548, 1., 0.707106781186548, 1.), (0.707106781186548, 0.5, 0.707106781186548, 0.5, 0.707106781186548), (1., 0.707106781186548, 1., 0.707106781186548, 1.), (0.707106781186548, 0.5, 0.707106781186548, 0.5, 0.707106781186548), (1., 0.707106781186548, 1., 0.707106781186548, 1.)))
   REPRESENTATION_ITEM ('')
   SURFACE ()
);
#251 = CARTESIAN_POINT('', (100., 60., -15.));
#252 = CARTESIAN_POINT('', (115., 60., -15.));
#253 = CARTESIAN_POINT('', (115., 60., -3.67394039744206E-15));
#254 = CARTESIAN_POINT('', (115., 60., 15.));
#255 = CARTESIAN_POINT('', (100., 60., 15.));
#256 = CARTESIAN_POINT('', (100., 60., -15.));
#257 = CARTESIAN_POINT('', (115., 75., -15.));
#258 = CARTESIAN_POINT('', (115., 75., -3.67394039744206E-15));
#259 = CARTESIAN_POINT('', (115., 75., 15.));
#260 = CARTESIAN_POINT('', (100., 60., 15.));
#261 = CARTESIAN_POINT('', (100., 60., -15.));
#262 = CARTESIAN_POINT('', (100., 75., -15.));
#263 = CARTESIAN_POINT('', (100., 75., -3.67394039744206E-15));
#264 = CARTESIAN_POINT('', (100., 75., 15.));
#265 = CARTESIAN_POINT('', (100., 60., 15.));
#266 = CARTESIAN_POINT('', (100., 60., -15.));
#267 = CARTESIAN_POINT('', (85., 75., -15.));
#268 = CARTESIAN_POINT('', (85., 75., -3.67394039744206E-15));
#269 = CARTESIAN_POINT('', (85., 75., 15.));
#270 = CARTESIAN_POINT('', (100., 60., 15.));
#271 = CARTESIAN_POINT('', (100., 60., -15.));
#272 = CARTESIAN_POINT('', (85., 60., -15.));
#273 = CARTESIAN_POINT('', (85., 60., -3.67394039744206E-15));
#274 = CARTESIAN_POINT('', (85., 60., 15.));
#275 = CARTESIAN_POINT('', (100., 60., 15.));
#276 = CARTESIAN_POINT('', (100., 60., -15.));
#277 = CARTESIAN_POINT('', (85., 45., -15.));
#278 = CARTESIAN_POINT('', (85., 45., -3.67394039744206E-15));
#279 = CARTESIAN_POINT('', (85., 45., 15.));
#280 = CARTESIAN_POINT('', (100., 60., 15.));
#281 = CARTESIAN_POINT('', (100., 60., -15.));
#282 = CARTESIAN_POINT('', (100., 45., -15.));
#283 = CARTESIAN_POINT('', (100., 45., -3.67394039744206E-15));
#284 = CARTESIAN_POINT('', (100., 45., 15.));
#285 = CARTESIAN_POINT('', (100., 60., 15.));
#286 = CARTESIAN_POINT('', (100., 60., -15.));
#287 = CARTESIAN_POINT('', (115., 45., -15.));
#288 = CARTESIAN_POINT('', (115., 45., -3.67394039744206E-15));
#289 = CARTESIAN_POINT('', (115., 45., 15.));
#290 = CARTESIAN_POINT('', (100., 60., 15.));
#291 = CARTESIAN_POINT('', (100., 60., -15.));
#292 = CARTESIAN_POINT('', (115., 60., -15.));
#293 = CARTESIAN_POINT('', (115., 60., -3.67394039744206E-15));
#294 = CARTESIAN_POINT('', (115., 60., 15.));
#295 = CARTESIAN_POINT('', (100., 60., 15.));
#296 = PRESENTATION_STYLE_ASSIGNMENT((#297));
#297 = SURFACE_STYLE_USAGE(.POSITIVE., #298);
#298 = SURFACE_SIDE_STYLE('', (#299));
#299 = SURFACE_STYLE_FILL_AREA(#300);
#300 = FILL_AREA_STYLE('', (#301));
#301 = FILL_AREA_STYLE_COLOUR('', #302);
#302 = COLOUR_RGB('', 0.50196078431373, 0.50196078431373, 0.50196078431373);
#303 = STYLED_ITEM('', (#296), #232);
#304 = CARTESIAN_POINT('Origin', (0., 0., 0.));
#305 = GEOMETRIC_SET('', (#304));
#306 = (
   GEOMETRIC_REPRESENTATION_CONTEXT (3)
   GLOBAL_UNCERTAINTY_ASSIGNED_CONTEXT ((#308))
   GLOBAL_UNIT_ASSIGNED_CONTEXT ((#307, #309, #310))
   REPRESENTATION_CONTEXT ('', '3D')
);
#307 = (
   LENGTH_UNIT ()
   NAMED_UNIT (*)
   SI_UNIT (.MILLI., .METRE.)
);
#308 = UNCERTAINTY_MEASURE_WITH_UNIT(LENGTH_MEASURE(1.E-6), #307, 'DISTANCE_ACCURACY_VALUE', '');
#309 = (
   NAMED_UNIT (*)
   SI_UNIT ($, .STERADIAN.)
   SOLID_ANGLE_UNIT ()
);
#310 = (
   NAMED_UNIT (*)
   PLANE_ANGLE_UNIT ()
   SI_UNIT ($, .RADIAN.)
);
#311 = SHAPE_REPRESENTATION('', (#326), #306);
#312 = PRODUCT_DEFINITION_SHAPE('', '', #313);
#313 = PRODUCT_DEFINITION('', '', #316, #320);
#314 = APPLICATION_CONTEXT('configuration controlled 3D designs of mechanical parts and assemblies');
#315 = APPLICATION_PROTOCOL_DEFINITION('International Standard', 'automotive_design', 2002, #314);
#316 = PRODUCT_DEFINITION_FORMATION_WITH_SPECIFIED_SOURCE('', '', #317, .NOT_KNOWN.);
#317 = PRODUCT('MixedForm', 'MixedForm', '', (#318));
#318 = PRODUCT_CONTEXT('', #314, 'mechanical');
#319 = PRODUCT_RELATED_PRODUCT_CATEGORY('detail', '', (#317));
#320 = PRODUCT_DEFINITION_CONTEXT('part definition', #314, 'design');
#321 = SHAPE_DEFINITION_REPRESENTATION(#312, #311);
#322 = SHAPE_REPRESENTATION_RELATIONSHIP('', '', #311, #323);
#323 = SHAPE_REPRESENTATION('', (#305), #306);
#324 = SHAPE_REPRESENTATION_RELATIONSHIP('', '', #311, #325);
#325 = ADVANCED_BREP_SHAPE_REPRESENTATION('', (#1, #148, #232), #306);
#326 = AXIS2_PLACEMENT_3D('', #327, #328, #329);
#327 = CARTESIAN_POINT('', (0., 0., 0.));
#328 = DIRECTION('', (0., 0., 1.));
#329 = DIRECTION('', (1., 0., 0.));
ENDSEC;
END-ISO-10303-21;
