ISO-10303-21;
HEADER;
FILE_DESCRIPTION(('STEP'), '1');
FILE_NAME('MergeOverlap', '2026-08-12T09:17:05', (''), (''), 'Express 3.1.3.0', 'Express Tool', 'Unknown');
FILE_SCHEMA(('AUTOMOTIVE_DESIGN'));
ENDSEC;

DATA;
#1 = MANIFOLD_SOLID_BREP('CP_0', #2);
#2 = CLOSED_SHELL('', (#3, #39, #75, #103, #123, #159, #187, #223, #251, #287, #315, #351, #379, #438, #497, #517, #529, #541, #553, #565, #577));
#3 = ADVANCED_FACE('', (#4), #34, .T.);
#4 = FACE_OUTER_BOUND('', #5, .T.);
#5 = EDGE_LOOP('', (#6, #15, #22, #29));
#6 = ORIENTED_EDGE('', *, *, #7, .T.);
#7 = EDGE_CURVE('', #8, #10, #12, .T.);
#8 = VERTEX_POINT('', #9);
#9 = CARTESIAN_POINT('', (-27.712812921102, 16., 10.));
#10 = VERTEX_POINT('', #11);
#11 = CARTESIAN_POINT('', (-27.712812921102, 16., 0.));
#12 = B_SPLINE_CURVE_WITH_KNOTS('', 1, (#13, #14), .UNSPECIFIED., .F., .U., (2, 2), (0., 1.), .UNSPECIFIED.);
#13 = CARTESIAN_POINT('', (-27.712812921102, 16., 10.));
#14 = CARTESIAN_POINT('', (-27.712812921102, 16., 0.));
#15 = ORIENTED_EDGE('', *, *, #16, .T.);
#16 = EDGE_CURVE('', #10, #17, #19, .T.);
#17 = VERTEX_POINT('', #18);
#18 = CARTESIAN_POINT('', (-43.3012701892219, 25., 0.));
#19 = B_SPLINE_CURVE_WITH_KNOTS('', 1, (#20, #21), .UNSPECIFIED., .F., .U., (2, 2), (32., 50.), .UNSPECIFIED.);
#20 = CARTESIAN_POINT('', (-27.712812921102, 16., 0.));
#21 = CARTESIAN_POINT('', (-43.3012701892219, 25., 0.));
#22 = ORIENTED_EDGE('', *, *, #23, .T.);
#23 = EDGE_CURVE('', #17, #24, #26, .T.);
#24 = VERTEX_POINT('', #25);
#25 = CARTESIAN_POINT('', (-43.3012701892219, 25., 10.));
#26 = B_SPLINE_CURVE_WITH_KNOTS('', 1, (#27, #28), .UNSPECIFIED., .F., .U., (2, 2), (0., 10.), .UNSPECIFIED.);
#27 = CARTESIAN_POINT('', (-43.3012701892219, 25., 0.));
#28 = CARTESIAN_POINT('', (-43.3012701892219, 25., 10.));
#29 = ORIENTED_EDGE('', *, *, #30, .F.);
#30 = EDGE_CURVE('', #8, #24, #31, .T.);
#31 = B_SPLINE_CURVE_WITH_KNOTS('', 1, (#32, #33), .UNSPECIFIED., .F., .U., (2, 2), (32., 50.), .UNSPECIFIED.);
#32 = CARTESIAN_POINT('', (-27.712812921102, 16., 10.));
#33 = CARTESIAN_POINT('', (-43.3012701892219, 25., 10.));
#34 = B_SPLINE_SURFACE_WITH_KNOTS('', 1, 1, ((#35, #36), (#37, #38)), .UNSPECIFIED., .F., .F., .U., (2, 2), (2, 2), (0., 50.), (0., 10.), .UNSPECIFIED.);
#35 = CARTESIAN_POINT('', (0., 0., 0.));
#36 = CARTESIAN_POINT('', (0., 0., 10.));
#37 = CARTESIAN_POINT('', (-43.3012701892219, 25., 0.));
#38 = CARTESIAN_POINT('', (-43.3012701892219, 25., 10.));
#39 = ADVANCED_FACE('', (#40), #70, .T.);
#40 = FACE_OUTER_BOUND('', #41, .T.);
#41 = EDGE_LOOP('', (#42, #51, #58, #65));
#42 = ORIENTED_EDGE('', *, *, #43, .T.);
#43 = EDGE_CURVE('', #44, #46, #48, .T.);
#44 = VERTEX_POINT('', #45);
#45 = CARTESIAN_POINT('', (8.64628234329289E-16, 0., 0.));
#46 = VERTEX_POINT('', #47);
#47 = CARTESIAN_POINT('', (8.64628234329289E-16, 0., 10.));
#48 = B_SPLINE_CURVE_WITH_KNOTS('', 1, (#49, #50), .UNSPECIFIED., .F., .U., (2, 2), (0., 1.), .UNSPECIFIED.);
#49 = CARTESIAN_POINT('', (-2.37986690293399E-16, 0., -7.88860905221012E-31));
#50 = CARTESIAN_POINT('', (-2.37986690293399E-16, 0., 10.));
#51 = ORIENTED_EDGE('', *, *, #52, .T.);
#52 = EDGE_CURVE('', #46, #53, #55, .T.);
#53 = VERTEX_POINT('', #54);
#54 = CARTESIAN_POINT('', (-8.00000000000001, -13.856406460551, 10.));
#55 = B_SPLINE_CURVE_WITH_KNOTS('', 1, (#56, #57), .UNSPECIFIED., .F., .U., (2, 2), (0., 16.), .UNSPECIFIED.);
#56 = CARTESIAN_POINT('', (0., 0., 10.));
#57 = CARTESIAN_POINT('', (-8.00000000000001, -13.856406460551, 10.));
#58 = ORIENTED_EDGE('', *, *, #59, .F.);
#59 = EDGE_CURVE('', #60, #53, #62, .T.);
#60 = VERTEX_POINT('', #61);
#61 = CARTESIAN_POINT('', (-8.00000000000001, -13.856406460551, 0.));
#62 = B_SPLINE_CURVE_WITH_KNOTS('', 1, (#63, #64), .UNSPECIFIED., .F., .U., (2, 2), (0., 10.), .UNSPECIFIED.);
#63 = CARTESIAN_POINT('', (-8.00000000000001, -13.856406460551, 0.));
#64 = CARTESIAN_POINT('', (-8.00000000000001, -13.856406460551, 10.));
#65 = ORIENTED_EDGE('', *, *, #66, .F.);
#66 = EDGE_CURVE('', #44, #60, #67, .T.);
#67 = B_SPLINE_CURVE_WITH_KNOTS('', 1, (#68, #69), .UNSPECIFIED., .F., .U., (2, 2), (0., 16.), .UNSPECIFIED.);
#68 = CARTESIAN_POINT('', (0., 0., 0.));
#69 = CARTESIAN_POINT('', (-8.00000000000001, -13.856406460551, 0.));
#70 = B_SPLINE_SURFACE_WITH_KNOTS('', 1, 1, ((#71, #72), (#73, #74)), .UNSPECIFIED., .F., .F., .U., (2, 2), (2, 2), (0., 10.), (0., 16.), .UNSPECIFIED.);
#71 = CARTESIAN_POINT('', (0., 0., 0.));
#72 = CARTESIAN_POINT('', (-8.00000000000001, -13.856406460551, 0.));
#73 = CARTESIAN_POINT('', (0., 0., 10.));
#74 = CARTESIAN_POINT('', (-8.00000000000001, -13.856406460551, 10.));
#75 = ADVANCED_FACE('', (#76), #98, .T.);
#76 = FACE_OUTER_BOUND('', #77, .T.);
#77 = EDGE_LOOP('', (#78, #79, #86, #93));
#78 = ORIENTED_EDGE('', *, *, #59, .T.);
#79 = ORIENTED_EDGE('', *, *, #80, .T.);
#80 = EDGE_CURVE('', #53, #81, #83, .T.);
#81 = VERTEX_POINT('', #82);
#82 = CARTESIAN_POINT('', (-51.3012701892219, 11.143593539449, 10.));
#83 = B_SPLINE_CURVE_WITH_KNOTS('', 1, (#84, #85), .UNSPECIFIED., .F., .U., (2, 2), (0., 50.), .UNSPECIFIED.);
#84 = CARTESIAN_POINT('', (-8.00000000000001, -13.856406460551, 10.));
#85 = CARTESIAN_POINT('', (-51.3012701892219, 11.143593539449, 10.));
#86 = ORIENTED_EDGE('', *, *, #87, .F.);
#87 = EDGE_CURVE('', #88, #81, #90, .T.);
#88 = VERTEX_POINT('', #89);
#89 = CARTESIAN_POINT('', (-51.3012701892219, 11.143593539449, 0.));
#90 = B_SPLINE_CURVE_WITH_KNOTS('', 1, (#91, #92), .UNSPECIFIED., .F., .U., (2, 2), (0., 10.), .UNSPECIFIED.);
#91 = CARTESIAN_POINT('', (-51.3012701892219, 11.143593539449, 0.));
#92 = CARTESIAN_POINT('', (-51.3012701892219, 11.143593539449, 10.));
#93 = ORIENTED_EDGE('', *, *, #94, .F.);
#94 = EDGE_CURVE('', #60, #88, #95, .T.);
#95 = B_SPLINE_CURVE_WITH_KNOTS('', 1, (#96, #97), .UNSPECIFIED., .F., .U., (2, 2), (0., 50.), .UNSPECIFIED.);
#96 = CARTESIAN_POINT('', (-8.00000000000001, -13.856406460551, 0.));
#97 = CARTESIAN_POINT('', (-51.3012701892219, 11.143593539449, 0.));
#98 = B_SPLINE_SURFACE_WITH_KNOTS('', 1, 1, ((#99, #100), (#101, #102)), .UNSPECIFIED., .F., .F., .U., (2, 2), (2, 2), (0., 10.), (0., 50.), .UNSPECIFIED.);
#99 = CARTESIAN_POINT('', (-8.00000000000001, -13.856406460551, 0.));
#100 = CARTESIAN_POINT('', (-51.3012701892219, 11.143593539449, 0.));
#101 = CARTESIAN_POINT('', (-8.00000000000001, -13.856406460551, 10.));
#102 = CARTESIAN_POINT('', (-51.3012701892219, 11.143593539449, 10.));
#103 = ADVANCED_FACE('', (#104), #118, .T.);
#104 = FACE_OUTER_BOUND('', #105, .T.);
#105 = EDGE_LOOP('', (#106, #107, #112, #113));
#106 = ORIENTED_EDGE('', *, *, #23, .F.);
#107 = ORIENTED_EDGE('', *, *, #108, .T.);
#108 = EDGE_CURVE('', #17, #88, #109, .T.);
#109 = B_SPLINE_CURVE_WITH_KNOTS('', 1, (#110, #111), .UNSPECIFIED., .F., .U., (2, 2), (0., 16.), .UNSPECIFIED.);
#110 = CARTESIAN_POINT('', (-43.3012701892219, 25., 0.));
#111 = CARTESIAN_POINT('', (-51.3012701892219, 11.143593539449, 0.));
#112 = ORIENTED_EDGE('', *, *, #87, .T.);
#113 = ORIENTED_EDGE('', *, *, #114, .F.);
#114 = EDGE_CURVE('', #24, #81, #115, .T.);
#115 = B_SPLINE_CURVE_WITH_KNOTS('', 1, (#116, #117), .UNSPECIFIED., .F., .U., (2, 2), (0., 16.), .UNSPECIFIED.);
#116 = CARTESIAN_POINT('', (-43.3012701892219, 25., 10.));
#117 = CARTESIAN_POINT('', (-51.3012701892219, 11.143593539449, 10.));
#118 = B_SPLINE_SURFACE_WITH_KNOTS('', 1, 1, ((#119, #120), (#121, #122)), .UNSPECIFIED., .F., .F., .U., (2, 2), (2, 2), (0., 16.), (0., 10.), .UNSPECIFIED.);
#119 = CARTESIAN_POINT('', (-43.3012701892219, 25., 0.));
#120 = CARTESIAN_POINT('', (-43.3012701892219, 25., 10.));
#121 = CARTESIAN_POINT('', (-51.3012701892219, 11.143593539449, 0.));
#122 = CARTESIAN_POINT('', (-51.3012701892219, 11.143593539449, 10.));
#123 = ADVANCED_FACE('', (#124), #154, .T.);
#124 = FACE_OUTER_BOUND('', #125, .T.);
#125 = EDGE_LOOP('', (#126, #135, #142, #149));
#126 = ORIENTED_EDGE('', *, *, #127, .F.);
#127 = EDGE_CURVE('', #128, #130, #132, .T.);
#128 = VERTEX_POINT('', #129);
#129 = CARTESIAN_POINT('', (-25., 43.3012701892219, 0.));
#130 = VERTEX_POINT('', #131);
#131 = CARTESIAN_POINT('', (-25., 43.3012701892219, 10.));
#132 = B_SPLINE_CURVE_WITH_KNOTS('', 1, (#133, #134), .UNSPECIFIED., .F., .U., (2, 2), (0., 10.), .UNSPECIFIED.);
#133 = CARTESIAN_POINT('', (-25., 43.3012701892219, 0.));
#134 = CARTESIAN_POINT('', (-25., 43.3012701892219, 10.));
#135 = ORIENTED_EDGE('', *, *, #136, .T.);
#136 = EDGE_CURVE('', #128, #137, #139, .T.);
#137 = VERTEX_POINT('', #138);
#138 = CARTESIAN_POINT('', (-38.856406460551, 35.3012701892219, 0.));
#139 = B_SPLINE_CURVE_WITH_KNOTS('', 1, (#140, #141), .UNSPECIFIED., .F., .U., (2, 2), (0., 16.), .UNSPECIFIED.);
#140 = CARTESIAN_POINT('', (-25., 43.3012701892219, 0.));
#141 = CARTESIAN_POINT('', (-38.856406460551, 35.3012701892219, 0.));
#142 = ORIENTED_EDGE('', *, *, #143, .T.);
#143 = EDGE_CURVE('', #137, #144, #146, .T.);
#144 = VERTEX_POINT('', #145);
#145 = CARTESIAN_POINT('', (-38.856406460551, 35.3012701892219, 10.));
#146 = B_SPLINE_CURVE_WITH_KNOTS('', 1, (#147, #148), .UNSPECIFIED., .F., .U., (2, 2), (0., 10.), .UNSPECIFIED.);
#147 = CARTESIAN_POINT('', (-38.856406460551, 35.3012701892219, 0.));
#148 = CARTESIAN_POINT('', (-38.856406460551, 35.3012701892219, 10.));
#149 = ORIENTED_EDGE('', *, *, #150, .F.);
#150 = EDGE_CURVE('', #130, #144, #151, .T.);
#151 = B_SPLINE_CURVE_WITH_KNOTS('', 1, (#152, #153), .UNSPECIFIED., .F., .U., (2, 2), (0., 16.), .UNSPECIFIED.);
#152 = CARTESIAN_POINT('', (-25., 43.3012701892219, 10.));
#153 = CARTESIAN_POINT('', (-38.856406460551, 35.3012701892219, 10.));
#154 = B_SPLINE_SURFACE_WITH_KNOTS('', 1, 1, ((#155, #156), (#157, #158)), .UNSPECIFIED., .F., .F., .U., (2, 2), (2, 2), (0., 16.), (0., 10.), .UNSPECIFIED.);
#155 = CARTESIAN_POINT('', (-25., 43.3012701892219, 0.));
#156 = CARTESIAN_POINT('', (-25., 43.3012701892219, 10.));
#157 = CARTESIAN_POINT('', (-38.856406460551, 35.3012701892219, 0.));
#158 = CARTESIAN_POINT('', (-38.856406460551, 35.3012701892219, 10.));
#159 = ADVANCED_FACE('', (#160), #182, .T.);
#160 = FACE_OUTER_BOUND('', #161, .T.);
#161 = EDGE_LOOP('', (#162, #171, #176, #177));
#162 = ORIENTED_EDGE('', *, *, #163, .T.);
#163 = EDGE_CURVE('', #164, #166, #168, .T.);
#164 = VERTEX_POINT('', #165);
#165 = CARTESIAN_POINT('', (-16., 27.712812921102, 10.));
#166 = VERTEX_POINT('', #167);
#167 = CARTESIAN_POINT('', (-16., 27.712812921102, 0.));
#168 = B_SPLINE_CURVE_WITH_KNOTS('', 1, (#169, #170), .UNSPECIFIED., .F., .U., (2, 2), (0., 1.), .UNSPECIFIED.);
#169 = CARTESIAN_POINT('', (-16., 27.712812921102, 10.));
#170 = CARTESIAN_POINT('', (-16., 27.712812921102, 0.));
#171 = ORIENTED_EDGE('', *, *, #172, .T.);
#172 = EDGE_CURVE('', #166, #128, #173, .T.);
#173 = B_SPLINE_CURVE_WITH_KNOTS('', 1, (#174, #175), .UNSPECIFIED., .F., .U., (2, 2), (32., 50.), .UNSPECIFIED.);
#174 = CARTESIAN_POINT('', (-16., 27.712812921102, 0.));
#175 = CARTESIAN_POINT('', (-25., 43.3012701892219, 0.));
#176 = ORIENTED_EDGE('', *, *, #127, .T.);
#177 = ORIENTED_EDGE('', *, *, #178, .F.);
#178 = EDGE_CURVE('', #164, #130, #179, .T.);
#179 = B_SPLINE_CURVE_WITH_KNOTS('', 1, (#180, #181), .UNSPECIFIED., .F., .U., (2, 2), (32., 50.), .UNSPECIFIED.);
#180 = CARTESIAN_POINT('', (-16., 27.712812921102, 10.));
#181 = CARTESIAN_POINT('', (-25., 43.3012701892219, 10.));
#182 = B_SPLINE_SURFACE_WITH_KNOTS('', 1, 1, ((#183, #184), (#185, #186)), .UNSPECIFIED., .F., .F., .U., (2, 2), (2, 2), (0., 50.), (0., 10.), .UNSPECIFIED.);
#183 = CARTESIAN_POINT('', (0., 0., 0.));
#184 = CARTESIAN_POINT('', (0., 0., 10.));
#185 = CARTESIAN_POINT('', (-25., 43.3012701892219, 0.));
#186 = CARTESIAN_POINT('', (-25., 43.3012701892219, 10.));
#187 = ADVANCED_FACE('', (#188), #218, .T.);
#188 = FACE_OUTER_BOUND('', #189, .T.);
#189 = EDGE_LOOP('', (#190, #199, #206, #213));
#190 = ORIENTED_EDGE('', *, *, #191, .T.);
#191 = EDGE_CURVE('', #192, #194, #196, .T.);
#192 = VERTEX_POINT('', #193);
#193 = CARTESIAN_POINT('', (3.5527136788005E-15, 32., 10.));
#194 = VERTEX_POINT('', #195);
#195 = CARTESIAN_POINT('', (3.5527136788005E-15, 32., 0.));
#196 = B_SPLINE_CURVE_WITH_KNOTS('', 1, (#197, #198), .UNSPECIFIED., .F., .U., (2, 2), (0., 1.), .UNSPECIFIED.);
#197 = CARTESIAN_POINT('', (1.95943487863576E-15, 32., 10.));
#198 = CARTESIAN_POINT('', (1.95943487863576E-15, 32., 0.));
#199 = ORIENTED_EDGE('', *, *, #200, .T.);
#200 = EDGE_CURVE('', #194, #201, #203, .T.);
#201 = VERTEX_POINT('', #202);
#202 = CARTESIAN_POINT('', (3.06161699786838E-15, 50., 0.));
#203 = B_SPLINE_CURVE_WITH_KNOTS('', 1, (#204, #205), .UNSPECIFIED., .F., .U., (2, 2), (32., 50.), .UNSPECIFIED.);
#204 = CARTESIAN_POINT('', (1.95943487863576E-15, 32., 0.));
#205 = CARTESIAN_POINT('', (3.06161699786838E-15, 50., 0.));
#206 = ORIENTED_EDGE('', *, *, #207, .T.);
#207 = EDGE_CURVE('', #201, #208, #210, .T.);
#208 = VERTEX_POINT('', #209);
#209 = CARTESIAN_POINT('', (3.06161699786838E-15, 50., 10.));
#210 = B_SPLINE_CURVE_WITH_KNOTS('', 1, (#211, #212), .UNSPECIFIED., .F., .U., (2, 2), (0., 10.), .UNSPECIFIED.);
#211 = CARTESIAN_POINT('', (3.06161699786838E-15, 50., 0.));
#212 = CARTESIAN_POINT('', (3.06161699786838E-15, 50., 10.));
#213 = ORIENTED_EDGE('', *, *, #214, .F.);
#214 = EDGE_CURVE('', #192, #208, #215, .T.);
#215 = B_SPLINE_CURVE_WITH_KNOTS('', 1, (#216, #217), .UNSPECIFIED., .F., .U., (2, 2), (32., 50.), .UNSPECIFIED.);
#216 = CARTESIAN_POINT('', (1.95943487863576E-15, 32., 10.));
#217 = CARTESIAN_POINT('', (3.06161699786838E-15, 50., 10.));
#218 = B_SPLINE_SURFACE_WITH_KNOTS('', 1, 1, ((#219, #220), (#221, #222)), .UNSPECIFIED., .F., .F., .U., (2, 2), (2, 2), (0., 50.), (0., 10.), .UNSPECIFIED.);
#219 = CARTESIAN_POINT('', (0., 0., 0.));
#220 = CARTESIAN_POINT('', (0., 0., 10.));
#221 = CARTESIAN_POINT('', (3.06161699786838E-15, 50., 0.));
#222 = CARTESIAN_POINT('', (3.06161699786838E-15, 50., 10.));
#223 = ADVANCED_FACE('', (#224), #246, .T.);
#224 = FACE_OUTER_BOUND('', #225, .T.);
#225 = EDGE_LOOP('', (#226, #227, #234, #241));
#226 = ORIENTED_EDGE('', *, *, #207, .F.);
#227 = ORIENTED_EDGE('', *, *, #228, .T.);
#228 = EDGE_CURVE('', #201, #229, #231, .T.);
#229 = VERTEX_POINT('', #230);
#230 = CARTESIAN_POINT('', (-16., 50., 0.));
#231 = B_SPLINE_CURVE_WITH_KNOTS('', 1, (#232, #233), .UNSPECIFIED., .F., .U., (2, 2), (0., 16.), .UNSPECIFIED.);
#232 = CARTESIAN_POINT('', (3.06161699786838E-15, 50., 0.));
#233 = CARTESIAN_POINT('', (-16., 50., 0.));
#234 = ORIENTED_EDGE('', *, *, #235, .T.);
#235 = EDGE_CURVE('', #229, #236, #238, .T.);
#236 = VERTEX_POINT('', #237);
#237 = CARTESIAN_POINT('', (-16., 50., 10.));
#238 = B_SPLINE_CURVE_WITH_KNOTS('', 1, (#239, #240), .UNSPECIFIED., .F., .U., (2, 2), (0., 10.), .UNSPECIFIED.);
#239 = CARTESIAN_POINT('', (-16., 50., 0.));
#240 = CARTESIAN_POINT('', (-16., 50., 10.));
#241 = ORIENTED_EDGE('', *, *, #242, .F.);
#242 = EDGE_CURVE('', #208, #236, #243, .T.);
#243 = B_SPLINE_CURVE_WITH_KNOTS('', 1, (#244, #245), .UNSPECIFIED., .F., .U., (2, 2), (0., 16.), .UNSPECIFIED.);
#244 = CARTESIAN_POINT('', (3.06161699786838E-15, 50., 10.));
#245 = CARTESIAN_POINT('', (-16., 50., 10.));
#246 = B_SPLINE_SURFACE_WITH_KNOTS('', 1, 1, ((#247, #248), (#249, #250)), .UNSPECIFIED., .F., .F., .U., (2, 2), (2, 2), (0., 16.), (0., 10.), .UNSPECIFIED.);
#247 = CARTESIAN_POINT('', (3.06161699786838E-15, 50., 0.));
#248 = CARTESIAN_POINT('', (3.06161699786838E-15, 50., 10.));
#249 = CARTESIAN_POINT('', (-16., 50., 0.));
#250 = CARTESIAN_POINT('', (-16., 50., 10.));
#251 = ADVANCED_FACE('', (#252), #282, .T.);
#252 = FACE_OUTER_BOUND('', #253, .T.);
#253 = EDGE_LOOP('', (#254, #263, #270, #277));
#254 = ORIENTED_EDGE('', *, *, #255, .T.);
#255 = EDGE_CURVE('', #256, #258, #260, .T.);
#256 = VERTEX_POINT('', #257);
#257 = CARTESIAN_POINT('', (16., 27.712812921102, 10.));
#258 = VERTEX_POINT('', #259);
#259 = CARTESIAN_POINT('', (16., 27.712812921102, 0.));
#260 = B_SPLINE_CURVE_WITH_KNOTS('', 1, (#261, #262), .UNSPECIFIED., .F., .U., (2, 2), (0., 1.), .UNSPECIFIED.);
#261 = CARTESIAN_POINT('', (16., 27.712812921102, 10.));
#262 = CARTESIAN_POINT('', (16., 27.712812921102, 0.));
#263 = ORIENTED_EDGE('', *, *, #264, .T.);
#264 = EDGE_CURVE('', #258, #265, #267, .T.);
#265 = VERTEX_POINT('', #266);
#266 = CARTESIAN_POINT('', (25., 43.3012701892219, 0.));
#267 = B_SPLINE_CURVE_WITH_KNOTS('', 1, (#268, #269), .UNSPECIFIED., .F., .U., (2, 2), (32., 50.), .UNSPECIFIED.);
#268 = CARTESIAN_POINT('', (16., 27.712812921102, 0.));
#269 = CARTESIAN_POINT('', (25., 43.3012701892219, 0.));
#270 = ORIENTED_EDGE('', *, *, #271, .T.);
#271 = EDGE_CURVE('', #265, #272, #274, .T.);
#272 = VERTEX_POINT('', #273);
#273 = CARTESIAN_POINT('', (25., 43.3012701892219, 10.));
#274 = B_SPLINE_CURVE_WITH_KNOTS('', 1, (#275, #276), .UNSPECIFIED., .F., .U., (2, 2), (0., 10.), .UNSPECIFIED.);
#275 = CARTESIAN_POINT('', (25., 43.3012701892219, 0.));
#276 = CARTESIAN_POINT('', (25., 43.3012701892219, 10.));
#277 = ORIENTED_EDGE('', *, *, #278, .F.);
#278 = EDGE_CURVE('', #256, #272, #279, .T.);
#279 = B_SPLINE_CURVE_WITH_KNOTS('', 1, (#280, #281), .UNSPECIFIED., .F., .U., (2, 2), (32., 50.), .UNSPECIFIED.);
#280 = CARTESIAN_POINT('', (16., 27.712812921102, 10.));
#281 = CARTESIAN_POINT('', (25., 43.3012701892219, 10.));
#282 = B_SPLINE_SURFACE_WITH_KNOTS('', 1, 1, ((#283, #284), (#285, #286)), .UNSPECIFIED., .F., .F., .U., (2, 2), (2, 2), (0., 50.), (0., 10.), .UNSPECIFIED.);
#283 = CARTESIAN_POINT('', (0., 0., 0.));
#284 = CARTESIAN_POINT('', (0., 0., 10.));
#285 = CARTESIAN_POINT('', (25., 43.3012701892219, 0.));
#286 = CARTESIAN_POINT('', (25., 43.3012701892219, 10.));
#287 = ADVANCED_FACE('', (#288), #310, .T.);
#288 = FACE_OUTER_BOUND('', #289, .T.);
#289 = EDGE_LOOP('', (#290, #291, #298, #305));
#290 = ORIENTED_EDGE('', *, *, #271, .F.);
#291 = ORIENTED_EDGE('', *, *, #292, .T.);
#292 = EDGE_CURVE('', #265, #293, #295, .T.);
#293 = VERTEX_POINT('', #294);
#294 = CARTESIAN_POINT('', (11.143593539449, 51.3012701892219, 0.));
#295 = B_SPLINE_CURVE_WITH_KNOTS('', 1, (#296, #297), .UNSPECIFIED., .F., .U., (2, 2), (0., 16.), .UNSPECIFIED.);
#296 = CARTESIAN_POINT('', (25., 43.3012701892219, 0.));
#297 = CARTESIAN_POINT('', (11.143593539449, 51.3012701892219, 0.));
#298 = ORIENTED_EDGE('', *, *, #299, .T.);
#299 = EDGE_CURVE('', #293, #300, #302, .T.);
#300 = VERTEX_POINT('', #301);
#301 = CARTESIAN_POINT('', (11.143593539449, 51.3012701892219, 10.));
#302 = B_SPLINE_CURVE_WITH_KNOTS('', 1, (#303, #304), .UNSPECIFIED., .F., .U., (2, 2), (0., 10.), .UNSPECIFIED.);
#303 = CARTESIAN_POINT('', (11.143593539449, 51.3012701892219, 0.));
#304 = CARTESIAN_POINT('', (11.143593539449, 51.3012701892219, 10.));
#305 = ORIENTED_EDGE('', *, *, #306, .F.);
#306 = EDGE_CURVE('', #272, #300, #307, .T.);
#307 = B_SPLINE_CURVE_WITH_KNOTS('', 1, (#308, #309), .UNSPECIFIED., .F., .U., (2, 2), (0., 16.), .UNSPECIFIED.);
#308 = CARTESIAN_POINT('', (25., 43.3012701892219, 10.));
#309 = CARTESIAN_POINT('', (11.143593539449, 51.3012701892219, 10.));
#310 = B_SPLINE_SURFACE_WITH_KNOTS('', 1, 1, ((#311, #312), (#313, #314)), .UNSPECIFIED., .F., .F., .U., (2, 2), (2, 2), (0., 16.), (0., 10.), .UNSPECIFIED.);
#311 = CARTESIAN_POINT('', (25., 43.3012701892219, 0.));
#312 = CARTESIAN_POINT('', (25., 43.3012701892219, 10.));
#313 = CARTESIAN_POINT('', (11.143593539449, 51.3012701892219, 0.));
#314 = CARTESIAN_POINT('', (11.143593539449, 51.3012701892219, 10.));
#315 = ADVANCED_FACE('', (#316), #346, .T.);
#316 = FACE_OUTER_BOUND('', #317, .T.);
#317 = EDGE_LOOP('', (#318, #327, #334, #341));
#318 = ORIENTED_EDGE('', *, *, #319, .T.);
#319 = EDGE_CURVE('', #320, #322, #324, .T.);
#320 = VERTEX_POINT('', #321);
#321 = CARTESIAN_POINT('', (27.712812921102, 16., 10.));
#322 = VERTEX_POINT('', #323);
#323 = CARTESIAN_POINT('', (27.712812921102, 16., 0.));
#324 = B_SPLINE_CURVE_WITH_KNOTS('', 1, (#325, #326), .UNSPECIFIED., .F., .U., (2, 2), (0., 1.), .UNSPECIFIED.);
#325 = CARTESIAN_POINT('', (27.712812921102, 16., 10.));
#326 = CARTESIAN_POINT('', (27.712812921102, 16., 0.));
#327 = ORIENTED_EDGE('', *, *, #328, .T.);
#328 = EDGE_CURVE('', #322, #329, #331, .T.);
#329 = VERTEX_POINT('', #330);
#330 = CARTESIAN_POINT('', (43.3012701892219, 25., 0.));
#331 = B_SPLINE_CURVE_WITH_KNOTS('', 1, (#332, #333), .UNSPECIFIED., .F., .U., (2, 2), (32., 50.), .UNSPECIFIED.);
#332 = CARTESIAN_POINT('', (27.712812921102, 16., 0.));
#333 = CARTESIAN_POINT('', (43.3012701892219, 25., 0.));
#334 = ORIENTED_EDGE('', *, *, #335, .T.);
#335 = EDGE_CURVE('', #329, #336, #338, .T.);
#336 = VERTEX_POINT('', #337);
#337 = CARTESIAN_POINT('', (43.3012701892219, 25., 10.));
#338 = B_SPLINE_CURVE_WITH_KNOTS('', 1, (#339, #340), .UNSPECIFIED., .F., .U., (2, 2), (0., 10.), .UNSPECIFIED.);
#339 = CARTESIAN_POINT('', (43.3012701892219, 25., 0.));
#340 = CARTESIAN_POINT('', (43.3012701892219, 25., 10.));
#341 = ORIENTED_EDGE('', *, *, #342, .F.);
#342 = EDGE_CURVE('', #320, #336, #343, .T.);
#343 = B_SPLINE_CURVE_WITH_KNOTS('', 1, (#344, #345), .UNSPECIFIED., .F., .U., (2, 2), (32., 50.), .UNSPECIFIED.);
#344 = CARTESIAN_POINT('', (27.712812921102, 16., 10.));
#345 = CARTESIAN_POINT('', (43.3012701892219, 25., 10.));
#346 = B_SPLINE_SURFACE_WITH_KNOTS('', 1, 1, ((#347, #348), (#349, #350)), .UNSPECIFIED., .F., .F., .U., (2, 2), (2, 2), (0., 50.), (0., 10.), .UNSPECIFIED.);
#347 = CARTESIAN_POINT('', (0., 0., 0.));
#348 = CARTESIAN_POINT('', (0., 0., 10.));
#349 = CARTESIAN_POINT('', (43.3012701892219, 25., 0.));
#350 = CARTESIAN_POINT('', (43.3012701892219, 25., 10.));
#351 = ADVANCED_FACE('', (#352), #374, .T.);
#352 = FACE_OUTER_BOUND('', #353, .T.);
#353 = EDGE_LOOP('', (#354, #355, #362, #369));
#354 = ORIENTED_EDGE('', *, *, #335, .F.);
#355 = ORIENTED_EDGE('', *, *, #356, .T.);
#356 = EDGE_CURVE('', #329, #357, #359, .T.);
#357 = VERTEX_POINT('', #358);
#358 = CARTESIAN_POINT('', (35.3012701892219, 38.856406460551, 0.));
#359 = B_SPLINE_CURVE_WITH_KNOTS('', 1, (#360, #361), .UNSPECIFIED., .F., .U., (2, 2), (0., 16.), .UNSPECIFIED.);
#360 = CARTESIAN_POINT('', (43.3012701892219, 25., 0.));
#361 = CARTESIAN_POINT('', (35.3012701892219, 38.856406460551, 0.));
#362 = ORIENTED_EDGE('', *, *, #363, .T.);
#363 = EDGE_CURVE('', #357, #364, #366, .T.);
#364 = VERTEX_POINT('', #365);
#365 = CARTESIAN_POINT('', (35.3012701892219, 38.856406460551, 10.));
#366 = B_SPLINE_CURVE_WITH_KNOTS('', 1, (#367, #368), .UNSPECIFIED., .F., .U., (2, 2), (0., 10.), .UNSPECIFIED.);
#367 = CARTESIAN_POINT('', (35.3012701892219, 38.856406460551, 0.));
#368 = CARTESIAN_POINT('', (35.3012701892219, 38.856406460551, 10.));
#369 = ORIENTED_EDGE('', *, *, #370, .F.);
#370 = EDGE_CURVE('', #336, #364, #371, .T.);
#371 = B_SPLINE_CURVE_WITH_KNOTS('', 1, (#372, #373), .UNSPECIFIED., .F., .U., (2, 2), (0., 16.), .UNSPECIFIED.);
#372 = CARTESIAN_POINT('', (43.3012701892219, 25., 10.));
#373 = CARTESIAN_POINT('', (35.3012701892219, 38.856406460551, 10.));
#374 = B_SPLINE_SURFACE_WITH_KNOTS('', 1, 1, ((#375, #376), (#377, #378)), .UNSPECIFIED., .F., .F., .U., (2, 2), (2, 2), (0., 16.), (0., 10.), .UNSPECIFIED.);
#375 = CARTESIAN_POINT('', (43.3012701892219, 25., 0.));
#376 = CARTESIAN_POINT('', (43.3012701892219, 25., 10.));
#377 = CARTESIAN_POINT('', (35.3012701892219, 38.856406460551, 0.));
#378 = CARTESIAN_POINT('', (35.3012701892219, 38.856406460551, 10.));
#379 = ADVANCED_FACE('', (#380), #433, .T.);
#380 = FACE_OUTER_BOUND('', #381, .T.);
#381 = EDGE_LOOP('', (#382, #383, #390, #397, #402, #403, #404, #409, #410, #411, #416, #417, #418, #423, #424, #425, #430, #431, #432));
#382 = ORIENTED_EDGE('', *, *, #52, .F.);
#383 = ORIENTED_EDGE('', *, *, #384, .T.);
#384 = EDGE_CURVE('', #46, #385, #387, .T.);
#385 = VERTEX_POINT('', #386);
#386 = CARTESIAN_POINT('', (50., 0., 10.));
#387 = B_SPLINE_CURVE_WITH_KNOTS('', 1, (#388, #389), .UNSPECIFIED., .F., .U., (2, 2), (1.72925646865858E-17, 1.), .UNSPECIFIED.);
#388 = CARTESIAN_POINT('', (4.44089209850063E-16, 0., 10.));
#389 = CARTESIAN_POINT('', (50., 0., 10.));
#390 = ORIENTED_EDGE('', *, *, #391, .T.);
#391 = EDGE_CURVE('', #385, #392, #394, .T.);
#392 = VERTEX_POINT('', #393);
#393 = CARTESIAN_POINT('', (50., 16., 10.));
#394 = B_SPLINE_CURVE_WITH_KNOTS('', 1, (#395, #396), .UNSPECIFIED., .F., .U., (2, 2), (0., 16.), .UNSPECIFIED.);
#395 = CARTESIAN_POINT('', (50., 0., 10.));
#396 = CARTESIAN_POINT('', (50., 16., 10.));
#397 = ORIENTED_EDGE('', *, *, #398, .F.);
#398 = EDGE_CURVE('', #320, #392, #399, .T.);
#399 = B_SPLINE_CURVE_WITH_KNOTS('', 1, (#400, #401), .UNSPECIFIED., .F., .U., (2, 2), (27.712812921102, 50.), .UNSPECIFIED.);
#400 = CARTESIAN_POINT('', (27.712812921102, 16., 10.));
#401 = CARTESIAN_POINT('', (50., 16., 10.));
#402 = ORIENTED_EDGE('', *, *, #342, .T.);
#403 = ORIENTED_EDGE('', *, *, #370, .T.);
#404 = ORIENTED_EDGE('', *, *, #405, .F.);
#405 = EDGE_CURVE('', #256, #364, #406, .T.);
#406 = B_SPLINE_CURVE_WITH_KNOTS('', 1, (#407, #408), .UNSPECIFIED., .F., .U., (2, 2), (27.712812921102, 50.), .UNSPECIFIED.);
#407 = CARTESIAN_POINT('', (16., 27.712812921102, 10.));
#408 = CARTESIAN_POINT('', (35.3012701892219, 38.856406460551, 10.));
#409 = ORIENTED_EDGE('', *, *, #278, .T.);
#410 = ORIENTED_EDGE('', *, *, #306, .T.);
#411 = ORIENTED_EDGE('', *, *, #412, .F.);
#412 = EDGE_CURVE('', #192, #300, #413, .T.);
#413 = B_SPLINE_CURVE_WITH_KNOTS('', 1, (#414, #415), .UNSPECIFIED., .F., .U., (2, 2), (27.712812921102, 50.), .UNSPECIFIED.);
#414 = CARTESIAN_POINT('', (9.41730629507356E-16, 32., 10.));
#415 = CARTESIAN_POINT('', (11.143593539449, 51.3012701892219, 10.));
#416 = ORIENTED_EDGE('', *, *, #214, .T.);
#417 = ORIENTED_EDGE('', *, *, #242, .T.);
#418 = ORIENTED_EDGE('', *, *, #419, .F.);
#419 = EDGE_CURVE('', #164, #236, #420, .T.);
#420 = B_SPLINE_CURVE_WITH_KNOTS('', 1, (#421, #422), .UNSPECIFIED., .F., .U., (2, 2), (27.712812921102, 50.), .UNSPECIFIED.);
#421 = CARTESIAN_POINT('', (-16., 27.712812921102, 10.));
#422 = CARTESIAN_POINT('', (-16., 50., 10.));
#423 = ORIENTED_EDGE('', *, *, #178, .T.);
#424 = ORIENTED_EDGE('', *, *, #150, .T.);
#425 = ORIENTED_EDGE('', *, *, #426, .F.);
#426 = EDGE_CURVE('', #8, #144, #427, .T.);
#427 = B_SPLINE_CURVE_WITH_KNOTS('', 1, (#428, #429), .UNSPECIFIED., .F., .U., (2, 2), (27.712812921102, 50.), .UNSPECIFIED.);
#428 = CARTESIAN_POINT('', (-27.712812921102, 16., 10.));
#429 = CARTESIAN_POINT('', (-38.856406460551, 35.3012701892219, 10.));
#430 = ORIENTED_EDGE('', *, *, #30, .T.);
#431 = ORIENTED_EDGE('', *, *, #114, .T.);
#432 = ORIENTED_EDGE('', *, *, #80, .F.);
#433 = B_SPLINE_SURFACE_WITH_KNOTS('', 1, 1, ((#434, #435), (#436, #437)), .UNSPECIFIED., .F., .F., .U., (2, 2), (2, 2), (-51.3012701892219, 50.), (-13.856406460551, 51.3012701892219), .UNSPECIFIED.);
#434 = CARTESIAN_POINT('', (-51.3012701892219, -13.856406460551, 10.));
#435 = CARTESIAN_POINT('', (-51.3012701892219, 51.3012701892219, 10.));
#436 = CARTESIAN_POINT('', (50., -13.856406460551, 10.));
#437 = CARTESIAN_POINT('', (50., 51.3012701892219, 10.));
#438 = ADVANCED_FACE('', (#439), #492, .T.);
#439 = FACE_OUTER_BOUND('', #440, .T.);
#440 = EDGE_LOOP('', (#441, #448, #449, #450, #451, #452, #457, #458, #459, #464, #465, #466, #471, #472, #473, #478, #479, #480, #487));
#441 = ORIENTED_EDGE('', *, *, #442, .F.);
#442 = EDGE_CURVE('', #44, #443, #445, .T.);
#443 = VERTEX_POINT('', #444);
#444 = CARTESIAN_POINT('', (50., 0., 0.));
#445 = B_SPLINE_CURVE_WITH_KNOTS('', 1, (#446, #447), .UNSPECIFIED., .F., .U., (2, 2), (1.72925646865858E-17, 1.), .UNSPECIFIED.);
#446 = CARTESIAN_POINT('', (4.44089209850063E-16, 0., 0.));
#447 = CARTESIAN_POINT('', (50., 0., 0.));
#448 = ORIENTED_EDGE('', *, *, #66, .T.);
#449 = ORIENTED_EDGE('', *, *, #94, .T.);
#450 = ORIENTED_EDGE('', *, *, #108, .F.);
#451 = ORIENTED_EDGE('', *, *, #16, .F.);
#452 = ORIENTED_EDGE('', *, *, #453, .T.);
#453 = EDGE_CURVE('', #10, #137, #454, .T.);
#454 = B_SPLINE_CURVE_WITH_KNOTS('', 1, (#455, #456), .UNSPECIFIED., .F., .U., (2, 2), (27.712812921102, 50.), .UNSPECIFIED.);
#455 = CARTESIAN_POINT('', (-27.712812921102, 16., 0.));
#456 = CARTESIAN_POINT('', (-38.856406460551, 35.3012701892219, 0.));
#457 = ORIENTED_EDGE('', *, *, #136, .F.);
#458 = ORIENTED_EDGE('', *, *, #172, .F.);
#459 = ORIENTED_EDGE('', *, *, #460, .T.);
#460 = EDGE_CURVE('', #166, #229, #461, .T.);
#461 = B_SPLINE_CURVE_WITH_KNOTS('', 1, (#462, #463), .UNSPECIFIED., .F., .U., (2, 2), (27.712812921102, 50.), .UNSPECIFIED.);
#462 = CARTESIAN_POINT('', (-16., 27.712812921102, 0.));
#463 = CARTESIAN_POINT('', (-16., 50., 0.));
#464 = ORIENTED_EDGE('', *, *, #228, .F.);
#465 = ORIENTED_EDGE('', *, *, #200, .F.);
#466 = ORIENTED_EDGE('', *, *, #467, .T.);
#467 = EDGE_CURVE('', #194, #293, #468, .T.);
#468 = B_SPLINE_CURVE_WITH_KNOTS('', 1, (#469, #470), .UNSPECIFIED., .F., .U., (2, 2), (27.712812921102, 50.), .UNSPECIFIED.);
#469 = CARTESIAN_POINT('', (9.41730629507356E-16, 32., 0.));
#470 = CARTESIAN_POINT('', (11.143593539449, 51.3012701892219, 0.));
#471 = ORIENTED_EDGE('', *, *, #292, .F.);
#472 = ORIENTED_EDGE('', *, *, #264, .F.);
#473 = ORIENTED_EDGE('', *, *, #474, .T.);
#474 = EDGE_CURVE('', #258, #357, #475, .T.);
#475 = B_SPLINE_CURVE_WITH_KNOTS('', 1, (#476, #477), .UNSPECIFIED., .F., .U., (2, 2), (27.712812921102, 50.), .UNSPECIFIED.);
#476 = CARTESIAN_POINT('', (16., 27.712812921102, 0.));
#477 = CARTESIAN_POINT('', (35.3012701892219, 38.856406460551, 0.));
#478 = ORIENTED_EDGE('', *, *, #356, .F.);
#479 = ORIENTED_EDGE('', *, *, #328, .F.);
#480 = ORIENTED_EDGE('', *, *, #481, .T.);
#481 = EDGE_CURVE('', #322, #482, #484, .T.);
#482 = VERTEX_POINT('', #483);
#483 = CARTESIAN_POINT('', (50., 16., 0.));
#484 = B_SPLINE_CURVE_WITH_KNOTS('', 1, (#485, #486), .UNSPECIFIED., .F., .U., (2, 2), (27.712812921102, 50.), .UNSPECIFIED.);
#485 = CARTESIAN_POINT('', (27.712812921102, 16., 0.));
#486 = CARTESIAN_POINT('', (50., 16., 0.));
#487 = ORIENTED_EDGE('', *, *, #488, .F.);
#488 = EDGE_CURVE('', #443, #482, #489, .T.);
#489 = B_SPLINE_CURVE_WITH_KNOTS('', 1, (#490, #491), .UNSPECIFIED., .F., .U., (2, 2), (0., 16.), .UNSPECIFIED.);
#490 = CARTESIAN_POINT('', (50., 0., 0.));
#491 = CARTESIAN_POINT('', (50., 16., 0.));
#492 = B_SPLINE_SURFACE_WITH_KNOTS('', 1, 1, ((#493, #494), (#495, #496)), .UNSPECIFIED., .F., .F., .U., (2, 2), (2, 2), (-21.650635094611, 51.3012701892219), (-51.3012701892219, 56.9282032302755), .UNSPECIFIED.);
#493 = CARTESIAN_POINT('', (-51.3012701892219, -21.650635094611, 0.));
#494 = CARTESIAN_POINT('', (56.9282032302755, -21.650635094611, 0.));
#495 = CARTESIAN_POINT('', (-51.3012701892219, 51.3012701892219, 0.));
#496 = CARTESIAN_POINT('', (56.9282032302755, 51.3012701892219, 0.));
#497 = ADVANCED_FACE('', (#498), #512, .T.);
#498 = FACE_OUTER_BOUND('', #499, .T.);
#499 = EDGE_LOOP('', (#500, #505, #506, #511));
#500 = ORIENTED_EDGE('', *, *, #501, .F.);
#501 = EDGE_CURVE('', #443, #385, #502, .T.);
#502 = B_SPLINE_CURVE_WITH_KNOTS('', 1, (#503, #504), .UNSPECIFIED., .F., .U., (2, 2), (0., 10.), .UNSPECIFIED.);
#503 = CARTESIAN_POINT('', (50., 0., 0.));
#504 = CARTESIAN_POINT('', (50., 0., 10.));
#505 = ORIENTED_EDGE('', *, *, #488, .T.);
#506 = ORIENTED_EDGE('', *, *, #507, .T.);
#507 = EDGE_CURVE('', #482, #392, #508, .T.);
#508 = B_SPLINE_CURVE_WITH_KNOTS('', 1, (#509, #510), .UNSPECIFIED., .F., .U., (2, 2), (0., 10.), .UNSPECIFIED.);
#509 = CARTESIAN_POINT('', (50., 16., 0.));
#510 = CARTESIAN_POINT('', (50., 16., 10.));
#511 = ORIENTED_EDGE('', *, *, #391, .F.);
#512 = B_SPLINE_SURFACE_WITH_KNOTS('', 1, 1, ((#513, #514), (#515, #516)), .UNSPECIFIED., .F., .F., .U., (2, 2), (2, 2), (0., 16.), (0., 10.), .UNSPECIFIED.);
#513 = CARTESIAN_POINT('', (50., 0., 0.));
#514 = CARTESIAN_POINT('', (50., 0., 10.));
#515 = CARTESIAN_POINT('', (50., 16., 0.));
#516 = CARTESIAN_POINT('', (50., 16., 10.));
#517 = ADVANCED_FACE('', (#518), #524, .T.);
#518 = FACE_OUTER_BOUND('', #519, .T.);
#519 = EDGE_LOOP('', (#520, #521, #522, #523));
#520 = ORIENTED_EDGE('', *, *, #319, .F.);
#521 = ORIENTED_EDGE('', *, *, #398, .T.);
#522 = ORIENTED_EDGE('', *, *, #507, .F.);
#523 = ORIENTED_EDGE('', *, *, #481, .F.);
#524 = B_SPLINE_SURFACE_WITH_KNOTS('', 1, 1, ((#525, #526), (#527, #528)), .UNSPECIFIED., .F., .F., .U., (2, 2), (2, 2), (0., 10.), (0., 50.), .UNSPECIFIED.);
#525 = CARTESIAN_POINT('', (0., 16., 0.));
#526 = CARTESIAN_POINT('', (50., 16., 0.));
#527 = CARTESIAN_POINT('', (0., 16., 10.));
#528 = CARTESIAN_POINT('', (50., 16., 10.));
#529 = ADVANCED_FACE('', (#530), #536, .T.);
#530 = FACE_OUTER_BOUND('', #531, .T.);
#531 = EDGE_LOOP('', (#532, #533, #534, #535));
#532 = ORIENTED_EDGE('', *, *, #255, .F.);
#533 = ORIENTED_EDGE('', *, *, #405, .T.);
#534 = ORIENTED_EDGE('', *, *, #363, .F.);
#535 = ORIENTED_EDGE('', *, *, #474, .F.);
#536 = B_SPLINE_SURFACE_WITH_KNOTS('', 1, 1, ((#537, #538), (#539, #540)), .UNSPECIFIED., .F., .F., .U., (2, 2), (2, 2), (0., 10.), (0., 50.), .UNSPECIFIED.);
#537 = CARTESIAN_POINT('', (-8., 13.856406460551, 0.));
#538 = CARTESIAN_POINT('', (35.3012701892219, 38.856406460551, 0.));
#539 = CARTESIAN_POINT('', (-8., 13.856406460551, 10.));
#540 = CARTESIAN_POINT('', (35.3012701892219, 38.856406460551, 10.));
#541 = ADVANCED_FACE('', (#542), #548, .T.);
#542 = FACE_OUTER_BOUND('', #543, .T.);
#543 = EDGE_LOOP('', (#544, #545, #546, #547));
#544 = ORIENTED_EDGE('', *, *, #191, .F.);
#545 = ORIENTED_EDGE('', *, *, #412, .T.);
#546 = ORIENTED_EDGE('', *, *, #299, .F.);
#547 = ORIENTED_EDGE('', *, *, #467, .F.);
#548 = B_SPLINE_SURFACE_WITH_KNOTS('', 1, 1, ((#549, #550), (#551, #552)), .UNSPECIFIED., .F., .F., .U., (2, 2), (2, 2), (0., 10.), (0., 50.), .UNSPECIFIED.);
#549 = CARTESIAN_POINT('', (-13.856406460551, 8., 0.));
#550 = CARTESIAN_POINT('', (11.143593539449, 51.3012701892219, 0.));
#551 = CARTESIAN_POINT('', (-13.856406460551, 8., 10.));
#552 = CARTESIAN_POINT('', (11.143593539449, 51.3012701892219, 10.));
#553 = ADVANCED_FACE('', (#554), #560, .T.);
#554 = FACE_OUTER_BOUND('', #555, .T.);
#555 = EDGE_LOOP('', (#556, #557, #558, #559));
#556 = ORIENTED_EDGE('', *, *, #43, .F.);
#557 = ORIENTED_EDGE('', *, *, #442, .T.);
#558 = ORIENTED_EDGE('', *, *, #501, .T.);
#559 = ORIENTED_EDGE('', *, *, #384, .F.);
#560 = B_SPLINE_SURFACE_WITH_KNOTS('', 1, 1, ((#561, #562), (#563, #564)), .UNSPECIFIED., .F., .F., .U., (2, 2), (2, 2), (-16., 50.), (0., 10.), .UNSPECIFIED.);
#561 = CARTESIAN_POINT('', (-16., 0., 0.));
#562 = CARTESIAN_POINT('', (-16., 0., 10.));
#563 = CARTESIAN_POINT('', (50., 0., 0.));
#564 = CARTESIAN_POINT('', (50., 0., 10.));
#565 = ADVANCED_FACE('', (#566), #572, .T.);
#566 = FACE_OUTER_BOUND('', #567, .T.);
#567 = EDGE_LOOP('', (#568, #569, #570, #571));
#568 = ORIENTED_EDGE('', *, *, #163, .F.);
#569 = ORIENTED_EDGE('', *, *, #419, .T.);
#570 = ORIENTED_EDGE('', *, *, #235, .F.);
#571 = ORIENTED_EDGE('', *, *, #460, .F.);
#572 = B_SPLINE_SURFACE_WITH_KNOTS('', 1, 1, ((#573, #574), (#575, #576)), .UNSPECIFIED., .F., .F., .U., (2, 2), (2, 2), (0., 10.), (0., 50.), .UNSPECIFIED.);
#573 = CARTESIAN_POINT('', (-16., 9.79717439317883E-16, 0.));
#574 = CARTESIAN_POINT('', (-16., 50., 0.));
#575 = CARTESIAN_POINT('', (-16., 9.79717439317883E-16, 10.));
#576 = CARTESIAN_POINT('', (-16., 50., 10.));
#577 = ADVANCED_FACE('', (#578), #584, .T.);
#578 = FACE_OUTER_BOUND('', #579, .T.);
#579 = EDGE_LOOP('', (#580, #581, #582, #583));
#580 = ORIENTED_EDGE('', *, *, #7, .F.);
#581 = ORIENTED_EDGE('', *, *, #426, .T.);
#582 = ORIENTED_EDGE('', *, *, #143, .F.);
#583 = ORIENTED_EDGE('', *, *, #453, .F.);
#584 = B_SPLINE_SURFACE_WITH_KNOTS('', 1, 1, ((#585, #586), (#587, #588)), .UNSPECIFIED., .F., .F., .U., (2, 2), (2, 2), (0., 10.), (0., 50.), .UNSPECIFIED.);
#585 = CARTESIAN_POINT('', (-13.856406460551, -8., 0.));
#586 = CARTESIAN_POINT('', (-38.856406460551, 35.3012701892219, 0.));
#587 = CARTESIAN_POINT('', (-13.856406460551, -8., 10.));
#588 = CARTESIAN_POINT('', (-38.856406460551, 35.3012701892219, 10.));
#589 = DRAUGHTING_MODEL('', (#597), #598);
#590 = PRESENTATION_STYLE_ASSIGNMENT((#591));
#591 = SURFACE_STYLE_USAGE(.POSITIVE., #592);
#592 = SURFACE_SIDE_STYLE('', (#593));
#593 = SURFACE_STYLE_FILL_AREA(#594);
#594 = FILL_AREA_STYLE('', (#595));
#595 = FILL_AREA_STYLE_COLOUR('', #596);
#596 = COLOUR_RGB('', 0.50196078431373, 0.50196078431373, 0.50196078431373);
#597 = STYLED_ITEM('', (#590), #1);
#598 = (
   GEOMETRIC_REPRESENTATION_CONTEXT (3)
   GLOBAL_UNCERTAINTY_ASSIGNED_CONTEXT ((#600))
   GLOBAL_UNIT_ASSIGNED_CONTEXT ((#599, #601, #602))
   REPRESENTATION_CONTEXT ('', '3D')
);
#599 = (
   LENGTH_UNIT ()
   NAMED_UNIT (*)
   SI_UNIT (.MILLI., .METRE.)
);
#600 = UNCERTAINTY_MEASURE_WITH_UNIT(LENGTH_MEASURE(1.E-6), #599, 'DISTANCE_ACCURACY_VALUE', '');
#601 = (
   NAMED_UNIT (*)
   SI_UNIT ($, .STERADIAN.)
   SOLID_ANGLE_UNIT ()
);
#602 = (
   NAMED_UNIT (*)
   PLANE_ANGLE_UNIT ()
   SI_UNIT ($, .RADIAN.)
);
#603 = SHAPE_REPRESENTATION('', (#616), #598);
#604 = PRODUCT_DEFINITION_SHAPE('', '', #605);
#605 = PRODUCT_DEFINITION('', '', #608, #612);
#606 = APPLICATION_CONTEXT('configuration controlled 3D designs of mechanical parts and assemblies');
#607 = APPLICATION_PROTOCOL_DEFINITION('International Standard', 'automotive_design', 2002, #606);
#608 = PRODUCT_DEFINITION_FORMATION_WITH_SPECIFIED_SOURCE('', '', #609, .NOT_KNOWN.);
#609 = PRODUCT('MergeOverlap', 'MergeOverlap', '', (#610));
#610 = PRODUCT_CONTEXT('', #606, 'mechanical');
#611 = PRODUCT_RELATED_PRODUCT_CATEGORY('detail', '', (#609));
#612 = PRODUCT_DEFINITION_CONTEXT('part definition', #606, 'design');
#613 = SHAPE_DEFINITION_REPRESENTATION(#604, #603);
#614 = SHAPE_REPRESENTATION_RELATIONSHIP('', '', #603, #615);
#615 = ADVANCED_BREP_SHAPE_REPRESENTATION('', (#1), #598);
#616 = AXIS2_PLACEMENT_3D('', #617, #618, #619);
#617 = CARTESIAN_POINT('', (0., 0., 0.));
#618 = DIRECTION('', (0., 0., 1.));
#619 = DIRECTION('', (1., 0., 0.));
ENDSEC;
END-ISO-10303-21;
