ISO-10303-21;
HEADER;
FILE_DESCRIPTION(('STEP'), '1');
FILE_NAME('MergeRegen', '2026-08-12T09:17:05', (''), (''), 'Express 3.1.3.0', 'Express Tool', 'Unknown');
FILE_SCHEMA(('AUTOMOTIVE_DESIGN'));
ENDSEC;

DATA;
#1 = MANIFOLD_SOLID_BREP('Subtraction_0', #2);
#2 = CLOSED_SHELL('', (#3, #59, #259, #459, #479, #495, #511, #527, #543, #559, #575, #591, #607, #623, #639, #655, #671, #687, #703, #719, #735, #751, #767, #783, #799, #815, #831, #847, #863, #879));
#3 = ADVANCED_FACE('', (#4), #40, .T.);
#4 = FACE_OUTER_BOUND('', #5, .T.);
#5 = EDGE_LOOP('', (#6, #15, #27, #28));
#6 = ORIENTED_EDGE('', *, *, #7, .F.);
#7 = EDGE_CURVE('', #8, #10, #12, .T.);
#8 = VERTEX_POINT('', #9);
#9 = CARTESIAN_POINT('', (50., 0., 0.));
#10 = VERTEX_POINT('', #11);
#11 = CARTESIAN_POINT('', (50., 0., 10.));
#12 = B_SPLINE_CURVE_WITH_KNOTS('', 1, (#13, #14), .UNSPECIFIED., .F., .U., (2, 2), (0., 10.), .UNSPECIFIED.);
#13 = CARTESIAN_POINT('', (50., 0., 0.));
#14 = CARTESIAN_POINT('', (50., 0., 10.));
#15 = ORIENTED_EDGE('', *, *, #16, .T.);
#16 = EDGE_CURVE('', #8, #8, #17, .T.);
#17 = (
   BOUNDED_CURVE ()
   B_SPLINE_CURVE (2, (#18, #19, #20, #21, #22, #23, #24, #25, #26), .UNSPECIFIED., .T., .U.)
   B_SPLINE_CURVE_WITH_KNOTS ((3, 2, 2, 2, 3), (0., 78.5398163397448, 157.07963267949, 235.619449019235, 314.159265358979), .UNSPECIFIED.)
   CURVE ()
   GEOMETRIC_REPRESENTATION_ITEM ()
   RATIONAL_B_SPLINE_CURVE ((1., 0.707106781186548, 1., 0.707106781186548, 1., 0.707106781186548, 1., 0.707106781186548, 1.))
   REPRESENTATION_ITEM ('')
);
#18 = CARTESIAN_POINT('', (50., 0., 0.));
#19 = CARTESIAN_POINT('', (50., 50., 0.));
#20 = CARTESIAN_POINT('', (3.06161699786838E-15, 50., 0.));
#21 = CARTESIAN_POINT('', (-50., 50., 0.));
#22 = CARTESIAN_POINT('', (-50., 6.12323399573677E-15, 0.));
#23 = CARTESIAN_POINT('', (-50., -50., 0.));
#24 = CARTESIAN_POINT('', (-9.18485099360515E-15, -50., 0.));
#25 = CARTESIAN_POINT('', (50., -50., 0.));
#26 = CARTESIAN_POINT('', (50., 0., 0.));
#27 = ORIENTED_EDGE('', *, *, #7, .T.);
#28 = ORIENTED_EDGE('', *, *, #29, .F.);
#29 = EDGE_CURVE('', #10, #10, #30, .T.);
#30 = (
   BOUNDED_CURVE ()
   B_SPLINE_CURVE (2, (#31, #32, #33, #34, #35, #36, #37, #38, #39), .UNSPECIFIED., .T., .U.)
   B_SPLINE_CURVE_WITH_KNOTS ((3, 2, 2, 2, 3), (0., 78.5398163397448, 157.07963267949, 235.619449019235, 314.159265358979), .UNSPECIFIED.)
   CURVE ()
   GEOMETRIC_REPRESENTATION_ITEM ()
   RATIONAL_B_SPLINE_CURVE ((1., 0.707106781186548, 1., 0.707106781186548, 1., 0.707106781186548, 1., 0.707106781186548, 1.))
   REPRESENTATION_ITEM ('')
);
#31 = CARTESIAN_POINT('', (50., 0., 10.));
#32 = CARTESIAN_POINT('', (50., 50., 10.));
#33 = CARTESIAN_POINT('', (3.06161699786838E-15, 50., 10.));
#34 = CARTESIAN_POINT('', (-50., 50., 10.));
#35 = CARTESIAN_POINT('', (-50., 6.12323399573677E-15, 10.));
#36 = CARTESIAN_POINT('', (-50., -50., 10.));
#37 = CARTESIAN_POINT('', (-9.18485099360515E-15, -50., 10.));
#38 = CARTESIAN_POINT('', (50., -50., 10.));
#39 = CARTESIAN_POINT('', (50., 0., 10.));
#40 = (
   BOUNDED_SURFACE ()
   B_SPLINE_SURFACE (2, 1, ((#41, #42), (#43, #44), (#45, #46), (#47, #48), (#49, #50), (#51, #52), (#53, #54), (#55, #56), (#57, #58)), .UNSPECIFIED., .T., .F., .U.)
   B_SPLINE_SURFACE_WITH_KNOTS ((3, 2, 2, 2, 3), (2, 2), (0., 78.5398163397448, 157.07963267949, 235.619449019235, 314.159265358979), (0., 10.), .UNSPECIFIED.)
   GEOMETRIC_REPRESENTATION_ITEM ()
   RATIONAL_B_SPLINE_SURFACE (((1., 1.), (0.707106781186548, 0.707106781186548), (1., 1.), (0.707106781186548, 0.707106781186548), (1., 1.), (0.707106781186548, 0.707106781186548), (1., 1.), (0.707106781186548, 0.707106781186548), (1., 1.)))
   REPRESENTATION_ITEM ('')
   SURFACE ()
);
#41 = CARTESIAN_POINT('', (50., 0., 0.));
#42 = CARTESIAN_POINT('', (50., 0., 10.));
#43 = CARTESIAN_POINT('', (50., 50., 0.));
#44 = CARTESIAN_POINT('', (50., 50., 10.));
#45 = CARTESIAN_POINT('', (3.06161699786838E-15, 50., 0.));
#46 = CARTESIAN_POINT('', (3.06161699786838E-15, 50., 10.));
#47 = CARTESIAN_POINT('', (-50., 50., 0.));
#48 = CARTESIAN_POINT('', (-50., 50., 10.));
#49 = CARTESIAN_POINT('', (-50., 6.12323399573677E-15, 0.));
#50 = CARTESIAN_POINT('', (-50., 6.12323399573677E-15, 10.));
#51 = CARTESIAN_POINT('', (-50., -50., 0.));
#52 = CARTESIAN_POINT('', (-50., -50., 10.));
#53 = CARTESIAN_POINT('', (-9.18485099360515E-15, -50., 0.));
#54 = CARTESIAN_POINT('', (-9.18485099360515E-15, -50., 10.));
#55 = CARTESIAN_POINT('', (50., -50., 0.));
#56 = CARTESIAN_POINT('', (50., -50., 10.));
#57 = CARTESIAN_POINT('', (50., 0., 0.));
#58 = CARTESIAN_POINT('', (50., 0., 10.));
#59 = ADVANCED_FACE('', (#60, #63), #254, .T.);
#60 = FACE_OUTER_BOUND('', #61, .T.);
#61 = EDGE_LOOP('', (#62));
#62 = ORIENTED_EDGE('', *, *, #16, .F.);
#63 = FACE_BOUND('', #64, .T.);
#64 = EDGE_LOOP('', (#65, #74, #81, #88, #95, #102, #109, #116, #123, #130, #137, #144, #151, #158, #165, #172, #179, #186, #193, #200, #207, #214, #221, #228, #235, #242, #249));
#65 = ORIENTED_EDGE('', *, *, #66, .T.);
#66 = EDGE_CURVE('', #67, #69, #71, .T.);
#67 = VERTEX_POINT('', #68);
#68 = CARTESIAN_POINT('', (11.4906666467847, -9.64181414529809, 0.));
#69 = VERTEX_POINT('', #70);
#70 = CARTESIAN_POINT('', (16.632967524277, -3.51345860034627, 0.));
#71 = B_SPLINE_CURVE_WITH_KNOTS('', 1, (#72, #73), .UNSPECIFIED., .F., .U., (2, 2), (0., 8.), .UNSPECIFIED.);
#72 = CARTESIAN_POINT('', (11.4906666467847, -9.64181414529809, 0.));
#73 = CARTESIAN_POINT('', (16.632967524277, -3.51345860034627, 0.));
#74 = ORIENTED_EDGE('', *, *, #75, .F.);
#75 = EDGE_CURVE('', #76, #69, #78, .T.);
#76 = VERTEX_POINT('', #77);
#77 = CARTESIAN_POINT('', (12.4457906148833, 0., 0.));
#78 = B_SPLINE_CURVE_WITH_KNOTS('', 1, (#79, #80), .UNSPECIFIED., .F., .U., (2, 2), (9.53402874075367, 15.), .UNSPECIFIED.);
#79 = CARTESIAN_POINT('', (12.4457906148833, 0., 0.));
#80 = CARTESIAN_POINT('', (16.632967524277, -3.51345860034627, 0.));
#81 = ORIENTED_EDGE('', *, *, #82, .T.);
#82 = EDGE_CURVE('', #76, #83, #85, .T.);
#83 = VERTEX_POINT('', #84);
#84 = CARTESIAN_POINT('', (15., 0., 0.));
#85 = B_SPLINE_CURVE_WITH_KNOTS('', 1, (#86, #87), .UNSPECIFIED., .F., .U., (2, 2), (12.4457906148833, 15.), .UNSPECIFIED.);
#86 = CARTESIAN_POINT('', (12.4457906148833, 0., 0.));
#87 = CARTESIAN_POINT('', (15., 0., 0.));
#88 = ORIENTED_EDGE('', *, *, #89, .F.);
#89 = EDGE_CURVE('', #90, #83, #92, .T.);
#90 = VERTEX_POINT('', #91);
#91 = CARTESIAN_POINT('', (15., 8., 0.));
#92 = B_SPLINE_CURVE_WITH_KNOTS('', 1, (#93, #94), .UNSPECIFIED., .F., .U., (2, 2), (0., 1.), .UNSPECIFIED.);
#93 = CARTESIAN_POINT('', (15., 8.00000000000001, 0.));
#94 = CARTESIAN_POINT('', (15., 7.105427357601E-15, 0.));
#95 = ORIENTED_EDGE('', *, *, #96, .F.);
#96 = EDGE_CURVE('', #97, #90, #99, .T.);
#97 = VERTEX_POINT('', #98);
#98 = CARTESIAN_POINT('', (9.53402874075368, 8., 0.));
#99 = B_SPLINE_CURVE_WITH_KNOTS('', 1, (#100, #101), .UNSPECIFIED., .F., .U., (2, 2), (0., 1.), .UNSPECIFIED.);
#100 = CARTESIAN_POINT('', (9.53402874075369, 8., 0.));
#101 = CARTESIAN_POINT('', (15., 8., 0.));
#102 = ORIENTED_EDGE('', *, *, #103, .F.);
#103 = EDGE_CURVE('', #104, #97, #106, .T.);
#104 = VERTEX_POINT('', #105);
#105 = CARTESIAN_POINT('', (11.4906666467847, 9.64181414529809, 0.));
#106 = B_SPLINE_CURVE_WITH_KNOTS('', 1, (#107, #108), .UNSPECIFIED., .F., .U., (2, 2), (0., 1.), .UNSPECIFIED.);
#107 = CARTESIAN_POINT('', (11.4906666467847, 9.64181414529809, 0.));
#108 = CARTESIAN_POINT('', (9.53402874075369, 8., 0.));
#109 = ORIENTED_EDGE('', *, *, #110, .F.);
#110 = EDGE_CURVE('', #111, #104, #113, .T.);
#111 = VERTEX_POINT('', #112);
#112 = CARTESIAN_POINT('', (6.34836576929236, 15.7701696902499, 0.));
#113 = B_SPLINE_CURVE_WITH_KNOTS('', 1, (#114, #115), .UNSPECIFIED., .F., .U., (2, 2), (0., 1.), .UNSPECIFIED.);
#114 = CARTESIAN_POINT('', (6.34836576929237, 15.7701696902499, 0.));
#115 = CARTESIAN_POINT('', (11.4906666467847, 9.64181414529807, 0.));
#116 = ORIENTED_EDGE('', *, *, #117, .F.);
#117 = EDGE_CURVE('', #118, #111, #120, .T.);
#118 = VERTEX_POINT('', #119);
#119 = CARTESIAN_POINT('', (2.16118885989867, 12.2567110899036, 0.));
#120 = B_SPLINE_CURVE_WITH_KNOTS('', 1, (#121, #122), .UNSPECIFIED., .F., .U., (2, 2), (0., 1.), .UNSPECIFIED.);
#121 = CARTESIAN_POINT('', (2.16118885989869, 12.2567110899036, 0.));
#122 = CARTESIAN_POINT('', (6.34836576929237, 15.7701696902499, 0.));
#123 = ORIENTED_EDGE('', *, *, #124, .F.);
#124 = EDGE_CURVE('', #125, #118, #127, .T.);
#125 = VERTEX_POINT('', #126);
#126 = CARTESIAN_POINT('', (2.60472266500396, 14.7721162951831, 0.));
#127 = B_SPLINE_CURVE_WITH_KNOTS('', 1, (#128, #129), .UNSPECIFIED., .F., .U., (2, 2), (0., 1.), .UNSPECIFIED.);
#128 = CARTESIAN_POINT('', (2.60472266500396, 14.7721162951831, 0.));
#129 = CARTESIAN_POINT('', (2.16118885989867, 12.2567110899036, 0.));
#130 = ORIENTED_EDGE('', *, *, #131, .F.);
#131 = EDGE_CURVE('', #132, #125, #134, .T.);
#132 = VERTEX_POINT('', #133);
#133 = CARTESIAN_POINT('', (-5.27373935909371, 16.1613017165186, 0.));
#134 = B_SPLINE_CURVE_WITH_KNOTS('', 1, (#135, #136), .UNSPECIFIED., .F., .U., (2, 2), (0., 1.), .UNSPECIFIED.);
#135 = CARTESIAN_POINT('', (-5.27373935909371, 16.1613017165186, 0.));
#136 = CARTESIAN_POINT('', (2.60472266500395, 14.7721162951831, 0.));
#137 = ORIENTED_EDGE('', *, *, #138, .F.);
#138 = EDGE_CURVE('', #139, #132, #141, .T.);
#139 = VERTEX_POINT('', #140);
#140 = CARTESIAN_POINT('', (-6.22289530744165, 10.7783708426709, 0.));
#141 = B_SPLINE_CURVE_WITH_KNOTS('', 1, (#142, #143), .UNSPECIFIED., .F., .U., (2, 2), (0., 1.), .UNSPECIFIED.);
#142 = CARTESIAN_POINT('', (-6.22289530744165, 10.7783708426709, 0.));
#143 = CARTESIAN_POINT('', (-5.27373935909371, 16.1613017165186, 0.));
#144 = ORIENTED_EDGE('', *, *, #145, .F.);
#145 = EDGE_CURVE('', #146, #139, #148, .T.);
#146 = VERTEX_POINT('', #147);
#147 = CARTESIAN_POINT('', (-7.5, 12.9903810567666, 0.));
#148 = B_SPLINE_CURVE_WITH_KNOTS('', 1, (#149, #150), .UNSPECIFIED., .F., .U., (2, 2), (0., 1.), .UNSPECIFIED.);
#149 = CARTESIAN_POINT('', (-7.5, 12.9903810567666, 0.));
#150 = CARTESIAN_POINT('', (-6.22289530744165, 10.7783708426709, 0.));
#151 = ORIENTED_EDGE('', *, *, #152, .F.);
#152 = EDGE_CURVE('', #153, #146, #155, .T.);
#153 = VERTEX_POINT('', #154);
#154 = CARTESIAN_POINT('', (-14.4282032302755, 8.99038105676658, 0.));
#155 = B_SPLINE_CURVE_WITH_KNOTS('', 1, (#156, #157), .UNSPECIFIED., .F., .U., (2, 2), (0., 1.), .UNSPECIFIED.);
#156 = CARTESIAN_POINT('', (-14.4282032302755, 8.99038105676658, 0.));
#157 = CARTESIAN_POINT('', (-7.5, 12.9903810567666, 0.));
#158 = ORIENTED_EDGE('', *, *, #159, .F.);
#159 = EDGE_CURVE('', #160, #153, #162, .T.);
#160 = VERTEX_POINT('', #161);
#161 = CARTESIAN_POINT('', (-11.6952176006523, 4.25671108990365, 0.));
#162 = B_SPLINE_CURVE_WITH_KNOTS('', 1, (#163, #164), .UNSPECIFIED., .F., .U., (2, 2), (0., 1.), .UNSPECIFIED.);
#163 = CARTESIAN_POINT('', (-11.6952176006524, 4.25671108990365, 0.));
#164 = CARTESIAN_POINT('', (-14.4282032302755, 8.99038105676659, 0.));
#165 = ORIENTED_EDGE('', *, *, #166, .F.);
#166 = EDGE_CURVE('', #167, #160, #169, .T.);
#167 = VERTEX_POINT('', #168);
#168 = CARTESIAN_POINT('', (-14.0953893117886, 5.13030214988503, 0.));
#169 = B_SPLINE_CURVE_WITH_KNOTS('', 1, (#170, #171), .UNSPECIFIED., .F., .U., (2, 2), (0., 1.), .UNSPECIFIED.);
#170 = CARTESIAN_POINT('', (-14.0953893117886, 5.13030214988504, 0.));
#171 = CARTESIAN_POINT('', (-11.6952176006523, 4.25671108990366, 0.));
#172 = ORIENTED_EDGE('', *, *, #173, .F.);
#173 = EDGE_CURVE('', #174, #167, #176, .T.);
#174 = VERTEX_POINT('', #175);
#175 = CARTESIAN_POINT('', (-16.831550458394, -2.38723881640223, 0.));
#176 = B_SPLINE_CURVE_WITH_KNOTS('', 1, (#177, #178), .UNSPECIFIED., .F., .U., (2, 2), (0., 1.), .UNSPECIFIED.);
#177 = CARTESIAN_POINT('', (-16.831550458394, -2.38723881640224, 0.));
#178 = CARTESIAN_POINT('', (-14.0953893117886, 5.13030214988503, 0.));
#179 = ORIENTED_EDGE('', *, *, #180, .F.);
#180 = EDGE_CURVE('', #181, #174, #183, .T.);
#181 = VERTEX_POINT('', #182);
#182 = CARTESIAN_POINT('', (-11.6952176006524, -4.25671108990365, 0.));
#183 = B_SPLINE_CURVE_WITH_KNOTS('', 1, (#184, #185), .UNSPECIFIED., .F., .U., (2, 2), (0., 1.), .UNSPECIFIED.);
#184 = CARTESIAN_POINT('', (-11.6952176006523, -4.25671108990364, 0.));
#185 = CARTESIAN_POINT('', (-16.831550458394, -2.38723881640223, 0.));
#186 = ORIENTED_EDGE('', *, *, #187, .F.);
#187 = EDGE_CURVE('', #188, #181, #190, .T.);
#188 = VERTEX_POINT('', #189);
#189 = CARTESIAN_POINT('', (-14.0953893117886, -5.13030214988503, 0.));
#190 = B_SPLINE_CURVE_WITH_KNOTS('', 1, (#191, #192), .UNSPECIFIED., .F., .U., (2, 2), (0., 1.), .UNSPECIFIED.);
#191 = CARTESIAN_POINT('', (-14.0953893117886, -5.13030214988504, 0.));
#192 = CARTESIAN_POINT('', (-11.6952176006523, -4.25671108990366, 0.));
#193 = ORIENTED_EDGE('', *, *, #194, .F.);
#194 = EDGE_CURVE('', #195, #188, #197, .T.);
#195 = VERTEX_POINT('', #196);
#196 = CARTESIAN_POINT('', (-11.3592281651833, -12.6478431161723, 0.));
#197 = B_SPLINE_CURVE_WITH_KNOTS('', 1, (#198, #199), .UNSPECIFIED., .F., .U., (2, 2), (0., 1.), .UNSPECIFIED.);
#198 = CARTESIAN_POINT('', (-11.3592281651833, -12.6478431161723, 0.));
#199 = CARTESIAN_POINT('', (-14.0953893117886, -5.13030214988502, 0.));
#200 = ORIENTED_EDGE('', *, *, #201, .F.);
#201 = EDGE_CURVE('', #202, #195, #204, .T.);
#202 = VERTEX_POINT('', #203);
#203 = CARTESIAN_POINT('', (-6.22289530744166, -10.7783708426709, 0.));
#204 = B_SPLINE_CURVE_WITH_KNOTS('', 1, (#205, #206), .UNSPECIFIED., .F., .U., (2, 2), (0., 1.), .UNSPECIFIED.);
#205 = CARTESIAN_POINT('', (-6.22289530744164, -10.7783708426709, 0.));
#206 = CARTESIAN_POINT('', (-11.3592281651833, -12.6478431161723, 0.));
#207 = ORIENTED_EDGE('', *, *, #208, .F.);
#208 = EDGE_CURVE('', #209, #202, #211, .T.);
#209 = VERTEX_POINT('', #210);
#210 = CARTESIAN_POINT('', (-7.50000000000001, -12.9903810567666, 0.));
#211 = B_SPLINE_CURVE_WITH_KNOTS('', 1, (#212, #213), .UNSPECIFIED., .F., .U., (2, 2), (0., 1.), .UNSPECIFIED.);
#212 = CARTESIAN_POINT('', (-7.5, -12.9903810567666, 0.));
#213 = CARTESIAN_POINT('', (-6.22289530744166, -10.7783708426709, 0.));
#214 = ORIENTED_EDGE('', *, *, #215, .F.);
#215 = EDGE_CURVE('', #216, #209, #218, .T.);
#216 = VERTEX_POINT('', #217);
#217 = CARTESIAN_POINT('', (-0.5717967697245, -16.9903810567666, 0.));
#218 = B_SPLINE_CURVE_WITH_KNOTS('', 1, (#219, #220), .UNSPECIFIED., .F., .U., (2, 2), (0., 1.), .UNSPECIFIED.);
#219 = CARTESIAN_POINT('', (-0.5717967697245, -16.9903810567666, 0.));
#220 = CARTESIAN_POINT('', (-7.5, -12.9903810567666, 0.));
#221 = ORIENTED_EDGE('', *, *, #222, .F.);
#222 = EDGE_CURVE('', #223, #216, #225, .T.);
#223 = VERTEX_POINT('', #224);
#224 = CARTESIAN_POINT('', (2.16118885989866, -12.2567110899036, 0.));
#225 = B_SPLINE_CURVE_WITH_KNOTS('', 1, (#226, #227), .UNSPECIFIED., .F., .U., (2, 2), (0., 1.), .UNSPECIFIED.);
#226 = CARTESIAN_POINT('', (2.16118885989866, -12.2567110899036, 0.));
#227 = CARTESIAN_POINT('', (-0.571796769724505, -16.9903810567666, 0.));
#228 = ORIENTED_EDGE('', *, *, #229, .F.);
#229 = EDGE_CURVE('', #230, #223, #232, .T.);
#230 = VERTEX_POINT('', #231);
#231 = CARTESIAN_POINT('', (2.60472266500395, -14.7721162951831, 0.));
#232 = B_SPLINE_CURVE_WITH_KNOTS('', 1, (#233, #234), .UNSPECIFIED., .F., .U., (2, 2), (0., 1.), .UNSPECIFIED.);
#233 = CARTESIAN_POINT('', (2.60472266500395, -14.7721162951831, 0.));
#234 = CARTESIAN_POINT('', (2.16118885989866, -12.2567110899036, 0.));
#235 = ORIENTED_EDGE('', *, *, #236, .F.);
#236 = EDGE_CURVE('', #237, #230, #239, .T.);
#237 = VERTEX_POINT('', #238);
#238 = CARTESIAN_POINT('', (10.4831846891016, -13.3829308738477, 0.));
#239 = B_SPLINE_CURVE_WITH_KNOTS('', 1, (#240, #241), .UNSPECIFIED., .F., .U., (2, 2), (0., 1.), .UNSPECIFIED.);
#240 = CARTESIAN_POINT('', (10.4831846891016, -13.3829308738477, 0.));
#241 = CARTESIAN_POINT('', (2.60472266500396, -14.7721162951831, 0.));
#242 = ORIENTED_EDGE('', *, *, #243, .F.);
#243 = EDGE_CURVE('', #244, #237, #246, .T.);
#244 = VERTEX_POINT('', #245);
#245 = CARTESIAN_POINT('', (9.53402874075368, -8., 0.));
#246 = B_SPLINE_CURVE_WITH_KNOTS('', 1, (#247, #248), .UNSPECIFIED., .F., .U., (2, 2), (9.53402874075368, 15.), .UNSPECIFIED.);
#247 = CARTESIAN_POINT('', (9.53402874075368, -8., 0.));
#248 = CARTESIAN_POINT('', (10.4831846891016, -13.3829308738477, 0.));
#249 = ORIENTED_EDGE('', *, *, #250, .T.);
#250 = EDGE_CURVE('', #244, #67, #251, .T.);
#251 = B_SPLINE_CURVE_WITH_KNOTS('', 1, (#252, #253), .UNSPECIFIED., .F., .U., (2, 2), (12.4457906148833, 15.), .UNSPECIFIED.);
#252 = CARTESIAN_POINT('', (9.53402874075368, -8., 0.));
#253 = CARTESIAN_POINT('', (11.4906666467847, -9.64181414529809, 0.));
#254 = B_SPLINE_SURFACE_WITH_KNOTS('', 1, 1, ((#255, #256), (#257, #258)), .UNSPECIFIED., .F., .F., .U., (2, 2), (2, 2), (0., 1.), (0., 1.), .UNSPECIFIED.);
#255 = CARTESIAN_POINT('', (77.7817459305203, -77.7817459305203, 0.));
#256 = CARTESIAN_POINT('', (77.7817459305203, 77.7817459305203, 0.));
#257 = CARTESIAN_POINT('', (-77.7817459305203, -77.7817459305203, 0.));
#258 = CARTESIAN_POINT('', (-77.7817459305203, 77.7817459305203, 0.));
#259 = ADVANCED_FACE('', (#260, #263), #454, .T.);
#260 = FACE_OUTER_BOUND('', #261, .T.);
#261 = EDGE_LOOP('', (#262));
#262 = ORIENTED_EDGE('', *, *, #29, .T.);
#263 = FACE_BOUND('', #264, .T.);
#264 = EDGE_LOOP('', (#265, #274, #281, #288, #295, #302, #309, #316, #323, #330, #337, #344, #351, #358, #365, #372, #379, #386, #393, #400, #407, #414, #421, #428, #435, #442, #449));
#265 = ORIENTED_EDGE('', *, *, #266, .F.);
#266 = EDGE_CURVE('', #267, #269, #271, .T.);
#267 = VERTEX_POINT('', #268);
#268 = CARTESIAN_POINT('', (16.632967524277, -3.51345860034627, 10.));
#269 = VERTEX_POINT('', #270);
#270 = CARTESIAN_POINT('', (12.4457906148833, 0., 10.));
#271 = B_SPLINE_CURVE_WITH_KNOTS('', 1, (#272, #273), .UNSPECIFIED., .F., .U., (2, 2), (0., 1.), .UNSPECIFIED.);
#272 = CARTESIAN_POINT('', (16.632967524277, -3.51345860034628, 10.));
#273 = CARTESIAN_POINT('', (12.4457906148833, -5.77315972805081E-15, 10.));
#274 = ORIENTED_EDGE('', *, *, #275, .F.);
#275 = EDGE_CURVE('', #276, #267, #278, .T.);
#276 = VERTEX_POINT('', #277);
#277 = CARTESIAN_POINT('', (11.4906666467847, -9.64181414529809, 10.));
#278 = B_SPLINE_CURVE_WITH_KNOTS('', 1, (#279, #280), .UNSPECIFIED., .F., .U., (2, 2), (0., 1.), .UNSPECIFIED.);
#279 = CARTESIAN_POINT('', (11.4906666467846, -9.64181414529809, 10.));
#280 = CARTESIAN_POINT('', (16.632967524277, -3.51345860034626, 10.));
#281 = ORIENTED_EDGE('', *, *, #282, .F.);
#282 = EDGE_CURVE('', #283, #276, #285, .T.);
#283 = VERTEX_POINT('', #284);
#284 = CARTESIAN_POINT('', (9.53402874075367, -8., 10.));
#285 = B_SPLINE_CURVE_WITH_KNOTS('', 1, (#286, #287), .UNSPECIFIED., .F., .U., (2, 2), (0., 1.), .UNSPECIFIED.);
#286 = CARTESIAN_POINT('', (9.53402874075368, -8., 10.));
#287 = CARTESIAN_POINT('', (11.4906666467847, -9.6418141452981, 10.));
#288 = ORIENTED_EDGE('', *, *, #289, .F.);
#289 = EDGE_CURVE('', #290, #283, #292, .T.);
#290 = VERTEX_POINT('', #291);
#291 = CARTESIAN_POINT('', (10.4831846891016, -13.3829308738477, 10.));
#292 = B_SPLINE_CURVE_WITH_KNOTS('', 1, (#293, #294), .UNSPECIFIED., .F., .U., (2, 2), (0., 1.), .UNSPECIFIED.);
#293 = CARTESIAN_POINT('', (10.4831846891016, -13.3829308738477, 10.));
#294 = CARTESIAN_POINT('', (9.53402874075367, -7.99999999999999, 10.));
#295 = ORIENTED_EDGE('', *, *, #296, .F.);
#296 = EDGE_CURVE('', #297, #290, #299, .T.);
#297 = VERTEX_POINT('', #298);
#298 = CARTESIAN_POINT('', (2.60472266500395, -14.7721162951831, 10.));
#299 = B_SPLINE_CURVE_WITH_KNOTS('', 1, (#300, #301), .UNSPECIFIED., .F., .U., (2, 2), (0., 1.), .UNSPECIFIED.);
#300 = CARTESIAN_POINT('', (2.60472266500393, -14.7721162951831, 10.));
#301 = CARTESIAN_POINT('', (10.4831846891016, -13.3829308738477, 10.));
#302 = ORIENTED_EDGE('', *, *, #303, .F.);
#303 = EDGE_CURVE('', #304, #297, #306, .T.);
#304 = VERTEX_POINT('', #305);
#305 = CARTESIAN_POINT('', (2.16118885989866, -12.2567110899036, 10.));
#306 = B_SPLINE_CURVE_WITH_KNOTS('', 1, (#307, #308), .UNSPECIFIED., .F., .U., (2, 2), (0., 1.), .UNSPECIFIED.);
#307 = CARTESIAN_POINT('', (2.16118885989866, -12.2567110899036, 10.));
#308 = CARTESIAN_POINT('', (2.60472266500395, -14.7721162951831, 10.));
#309 = ORIENTED_EDGE('', *, *, #310, .F.);
#310 = EDGE_CURVE('', #311, #304, #313, .T.);
#311 = VERTEX_POINT('', #312);
#312 = CARTESIAN_POINT('', (-0.5717967697245, -16.9903810567666, 10.));
#313 = B_SPLINE_CURVE_WITH_KNOTS('', 1, (#314, #315), .UNSPECIFIED., .F., .U., (2, 2), (0., 1.), .UNSPECIFIED.);
#314 = CARTESIAN_POINT('', (-0.571796769724507, -16.9903810567666, 10.));
#315 = CARTESIAN_POINT('', (2.16118885989866, -12.2567110899036, 10.));
#316 = ORIENTED_EDGE('', *, *, #317, .F.);
#317 = EDGE_CURVE('', #318, #311, #320, .T.);
#318 = VERTEX_POINT('', #319);
#319 = CARTESIAN_POINT('', (-7.50000000000001, -12.9903810567666, 10.));
#320 = B_SPLINE_CURVE_WITH_KNOTS('', 1, (#321, #322), .UNSPECIFIED., .F., .U., (2, 2), (0., 1.), .UNSPECIFIED.);
#321 = CARTESIAN_POINT('', (-7.50000000000001, -12.9903810567666, 10.));
#322 = CARTESIAN_POINT('', (-0.571796769724499, -16.9903810567666, 10.));
#323 = ORIENTED_EDGE('', *, *, #324, .F.);
#324 = EDGE_CURVE('', #325, #318, #327, .T.);
#325 = VERTEX_POINT('', #326);
#326 = CARTESIAN_POINT('', (-6.22289530744166, -10.7783708426709, 10.));
#327 = B_SPLINE_CURVE_WITH_KNOTS('', 1, (#328, #329), .UNSPECIFIED., .F., .U., (2, 2), (0., 1.), .UNSPECIFIED.);
#328 = CARTESIAN_POINT('', (-6.22289530744165, -10.7783708426709, 10.));
#329 = CARTESIAN_POINT('', (-7.5, -12.9903810567666, 10.));
#330 = ORIENTED_EDGE('', *, *, #331, .F.);
#331 = EDGE_CURVE('', #332, #325, #334, .T.);
#332 = VERTEX_POINT('', #333);
#333 = CARTESIAN_POINT('', (-11.3592281651833, -12.6478431161723, 10.));
#334 = B_SPLINE_CURVE_WITH_KNOTS('', 1, (#335, #336), .UNSPECIFIED., .F., .U., (2, 2), (0., 1.), .UNSPECIFIED.);
#335 = CARTESIAN_POINT('', (-11.3592281651833, -12.6478431161723, 10.));
#336 = CARTESIAN_POINT('', (-6.22289530744165, -10.7783708426709, 10.));
#337 = ORIENTED_EDGE('', *, *, #338, .F.);
#338 = EDGE_CURVE('', #339, #332, #341, .T.);
#339 = VERTEX_POINT('', #340);
#340 = CARTESIAN_POINT('', (-14.0953893117886, -5.13030214988503, 10.));
#341 = B_SPLINE_CURVE_WITH_KNOTS('', 1, (#342, #343), .UNSPECIFIED., .F., .U., (2, 2), (0., 1.), .UNSPECIFIED.);
#342 = CARTESIAN_POINT('', (-14.0953893117886, -5.13030214988503, 10.));
#343 = CARTESIAN_POINT('', (-11.3592281651833, -12.6478431161723, 10.));
#344 = ORIENTED_EDGE('', *, *, #345, .F.);
#345 = EDGE_CURVE('', #346, #339, #348, .T.);
#346 = VERTEX_POINT('', #347);
#347 = CARTESIAN_POINT('', (-11.6952176006523, -4.25671108990365, 10.));
#348 = B_SPLINE_CURVE_WITH_KNOTS('', 1, (#349, #350), .UNSPECIFIED., .F., .U., (2, 2), (0., 1.), .UNSPECIFIED.);
#349 = CARTESIAN_POINT('', (-11.6952176006523, -4.25671108990365, 10.));
#350 = CARTESIAN_POINT('', (-14.0953893117886, -5.13030214988504, 10.));
#351 = ORIENTED_EDGE('', *, *, #352, .F.);
#352 = EDGE_CURVE('', #353, #346, #355, .T.);
#353 = VERTEX_POINT('', #354);
#354 = CARTESIAN_POINT('', (-16.831550458394, -2.38723881640223, 10.));
#355 = B_SPLINE_CURVE_WITH_KNOTS('', 1, (#356, #357), .UNSPECIFIED., .F., .U., (2, 2), (0., 1.), .UNSPECIFIED.);
#356 = CARTESIAN_POINT('', (-16.831550458394, -2.38723881640223, 10.));
#357 = CARTESIAN_POINT('', (-11.6952176006523, -4.25671108990365, 10.));
#358 = ORIENTED_EDGE('', *, *, #359, .F.);
#359 = EDGE_CURVE('', #360, #353, #362, .T.);
#360 = VERTEX_POINT('', #361);
#361 = CARTESIAN_POINT('', (-14.0953893117886, 5.13030214988503, 10.));
#362 = B_SPLINE_CURVE_WITH_KNOTS('', 1, (#363, #364), .UNSPECIFIED., .F., .U., (2, 2), (0., 1.), .UNSPECIFIED.);
#363 = CARTESIAN_POINT('', (-14.0953893117886, 5.13030214988503, 10.));
#364 = CARTESIAN_POINT('', (-16.831550458394, -2.38723881640222, 10.));
#365 = ORIENTED_EDGE('', *, *, #366, .F.);
#366 = EDGE_CURVE('', #367, #360, #369, .T.);
#367 = VERTEX_POINT('', #368);
#368 = CARTESIAN_POINT('', (-11.6952176006523, 4.25671108990365, 10.));
#369 = B_SPLINE_CURVE_WITH_KNOTS('', 1, (#370, #371), .UNSPECIFIED., .F., .U., (2, 2), (0., 1.), .UNSPECIFIED.);
#370 = CARTESIAN_POINT('', (-11.6952176006523, 4.25671108990366, 10.));
#371 = CARTESIAN_POINT('', (-14.0953893117886, 5.13030214988504, 10.));
#372 = ORIENTED_EDGE('', *, *, #373, .F.);
#373 = EDGE_CURVE('', #374, #367, #376, .T.);
#374 = VERTEX_POINT('', #375);
#375 = CARTESIAN_POINT('', (-14.4282032302755, 8.99038105676658, 10.));
#376 = B_SPLINE_CURVE_WITH_KNOTS('', 1, (#377, #378), .UNSPECIFIED., .F., .U., (2, 2), (0., 1.), .UNSPECIFIED.);
#377 = CARTESIAN_POINT('', (-14.4282032302755, 8.99038105676657, 10.));
#378 = CARTESIAN_POINT('', (-11.6952176006524, 4.25671108990365, 10.));
#379 = ORIENTED_EDGE('', *, *, #380, .F.);
#380 = EDGE_CURVE('', #381, #374, #383, .T.);
#381 = VERTEX_POINT('', #382);
#382 = CARTESIAN_POINT('', (-7.5, 12.9903810567666, 10.));
#383 = B_SPLINE_CURVE_WITH_KNOTS('', 1, (#384, #385), .UNSPECIFIED., .F., .U., (2, 2), (0., 1.), .UNSPECIFIED.);
#384 = CARTESIAN_POINT('', (-7.50000000000001, 12.9903810567666, 10.));
#385 = CARTESIAN_POINT('', (-14.4282032302755, 8.99038105676658, 10.));
#386 = ORIENTED_EDGE('', *, *, #387, .F.);
#387 = EDGE_CURVE('', #388, #381, #390, .T.);
#388 = VERTEX_POINT('', #389);
#389 = CARTESIAN_POINT('', (-6.22289530744165, 10.7783708426709, 10.));
#390 = B_SPLINE_CURVE_WITH_KNOTS('', 1, (#391, #392), .UNSPECIFIED., .F., .U., (2, 2), (0., 1.), .UNSPECIFIED.);
#391 = CARTESIAN_POINT('', (-6.22289530744165, 10.7783708426709, 10.));
#392 = CARTESIAN_POINT('', (-7.5, 12.9903810567666, 10.));
#393 = ORIENTED_EDGE('', *, *, #394, .F.);
#394 = EDGE_CURVE('', #395, #388, #397, .T.);
#395 = VERTEX_POINT('', #396);
#396 = CARTESIAN_POINT('', (-5.27373935909371, 16.1613017165186, 10.));
#397 = B_SPLINE_CURVE_WITH_KNOTS('', 1, (#398, #399), .UNSPECIFIED., .F., .U., (2, 2), (0., 1.), .UNSPECIFIED.);
#398 = CARTESIAN_POINT('', (-5.27373935909371, 16.1613017165186, 10.));
#399 = CARTESIAN_POINT('', (-6.22289530744165, 10.7783708426709, 10.));
#400 = ORIENTED_EDGE('', *, *, #401, .F.);
#401 = EDGE_CURVE('', #402, #395, #404, .T.);
#402 = VERTEX_POINT('', #403);
#403 = CARTESIAN_POINT('', (2.60472266500396, 14.7721162951831, 10.));
#404 = B_SPLINE_CURVE_WITH_KNOTS('', 1, (#405, #406), .UNSPECIFIED., .F., .U., (2, 2), (0., 1.), .UNSPECIFIED.);
#405 = CARTESIAN_POINT('', (2.60472266500397, 14.7721162951831, 10.));
#406 = CARTESIAN_POINT('', (-5.2737393590937, 16.1613017165186, 10.));
#407 = ORIENTED_EDGE('', *, *, #408, .F.);
#408 = EDGE_CURVE('', #409, #402, #411, .T.);
#409 = VERTEX_POINT('', #410);
#410 = CARTESIAN_POINT('', (2.16118885989867, 12.2567110899037, 10.));
#411 = B_SPLINE_CURVE_WITH_KNOTS('', 1, (#412, #413), .UNSPECIFIED., .F., .U., (2, 2), (0., 1.), .UNSPECIFIED.);
#412 = CARTESIAN_POINT('', (2.16118885989868, 12.2567110899037, 10.));
#413 = CARTESIAN_POINT('', (2.60472266500396, 14.7721162951831, 10.));
#414 = ORIENTED_EDGE('', *, *, #415, .F.);
#415 = EDGE_CURVE('', #416, #409, #418, .T.);
#416 = VERTEX_POINT('', #417);
#417 = CARTESIAN_POINT('', (6.34836576929236, 15.7701696902499, 10.));
#418 = B_SPLINE_CURVE_WITH_KNOTS('', 1, (#419, #420), .UNSPECIFIED., .F., .U., (2, 2), (0., 1.), .UNSPECIFIED.);
#419 = CARTESIAN_POINT('', (6.34836576929236, 15.7701696902499, 10.));
#420 = CARTESIAN_POINT('', (2.16118885989868, 12.2567110899036, 10.));
#421 = ORIENTED_EDGE('', *, *, #422, .F.);
#422 = EDGE_CURVE('', #423, #416, #425, .T.);
#423 = VERTEX_POINT('', #424);
#424 = CARTESIAN_POINT('', (11.4906666467847, 9.64181414529809, 10.));
#425 = B_SPLINE_CURVE_WITH_KNOTS('', 1, (#426, #427), .UNSPECIFIED., .F., .U., (2, 2), (0., 1.), .UNSPECIFIED.);
#426 = CARTESIAN_POINT('', (11.4906666467847, 9.64181414529808, 10.));
#427 = CARTESIAN_POINT('', (6.34836576929237, 15.7701696902499, 10.));
#428 = ORIENTED_EDGE('', *, *, #429, .F.);
#429 = EDGE_CURVE('', #430, #423, #432, .T.);
#430 = VERTEX_POINT('', #431);
#431 = CARTESIAN_POINT('', (9.53402874075368, 8., 10.));
#432 = B_SPLINE_CURVE_WITH_KNOTS('', 1, (#433, #434), .UNSPECIFIED., .F., .U., (2, 2), (0., 1.), .UNSPECIFIED.);
#433 = CARTESIAN_POINT('', (9.53402874075368, 8., 10.));
#434 = CARTESIAN_POINT('', (11.4906666467847, 9.64181414529809, 10.));
#435 = ORIENTED_EDGE('', *, *, #436, .F.);
#436 = EDGE_CURVE('', #437, #430, #439, .T.);
#437 = VERTEX_POINT('', #438);
#438 = CARTESIAN_POINT('', (15., 8., 10.));
#439 = B_SPLINE_CURVE_WITH_KNOTS('', 1, (#440, #441), .UNSPECIFIED., .F., .U., (2, 2), (0., 1.), .UNSPECIFIED.);
#440 = CARTESIAN_POINT('', (15., 8., 10.));
#441 = CARTESIAN_POINT('', (9.53402874075368, 8., 10.));
#442 = ORIENTED_EDGE('', *, *, #443, .F.);
#443 = EDGE_CURVE('', #444, #437, #446, .T.);
#444 = VERTEX_POINT('', #445);
#445 = CARTESIAN_POINT('', (15., 0., 10.));
#446 = B_SPLINE_CURVE_WITH_KNOTS('', 1, (#447, #448), .UNSPECIFIED., .F., .U., (2, 2), (0., 1.), .UNSPECIFIED.);
#447 = CARTESIAN_POINT('', (15., 0., 10.));
#448 = CARTESIAN_POINT('', (15., 8., 10.));
#449 = ORIENTED_EDGE('', *, *, #450, .F.);
#450 = EDGE_CURVE('', #269, #444, #451, .T.);
#451 = B_SPLINE_CURVE_WITH_KNOTS('', 1, (#452, #453), .UNSPECIFIED., .F., .U., (2, 2), (0., 1.), .UNSPECIFIED.);
#452 = CARTESIAN_POINT('', (12.4457906148833, 0., 10.));
#453 = CARTESIAN_POINT('', (15., 0., 10.));
#454 = B_SPLINE_SURFACE_WITH_KNOTS('', 1, 1, ((#455, #456), (#457, #458)), .UNSPECIFIED., .F., .F., .U., (2, 2), (2, 2), (0., 1.), (0., 1.), .UNSPECIFIED.);
#455 = CARTESIAN_POINT('', (77.7817459305203, -77.7817459305203, 10.));
#456 = CARTESIAN_POINT('', (-77.7817459305203, -77.7817459305203, 10.));
#457 = CARTESIAN_POINT('', (77.7817459305203, 77.7817459305203, 10.));
#458 = CARTESIAN_POINT('', (-77.7817459305203, 77.7817459305203, 10.));
#459 = ADVANCED_FACE('', (#460), #474, .F.);
#460 = FACE_OUTER_BOUND('', #461, .F.);
#461 = EDGE_LOOP('', (#462, #463, #468, #469));
#462 = ORIENTED_EDGE('', *, *, #443, .F.);
#463 = ORIENTED_EDGE('', *, *, #464, .F.);
#464 = EDGE_CURVE('', #83, #444, #465, .T.);
#465 = B_SPLINE_CURVE_WITH_KNOTS('', 1, (#466, #467), .UNSPECIFIED., .F., .U., (2, 2), (0., 10.), .UNSPECIFIED.);
#466 = CARTESIAN_POINT('', (15., 0., 0.));
#467 = CARTESIAN_POINT('', (15., 0., 10.));
#468 = ORIENTED_EDGE('', *, *, #89, .F.);
#469 = ORIENTED_EDGE('', *, *, #470, .T.);
#470 = EDGE_CURVE('', #90, #437, #471, .T.);
#471 = B_SPLINE_CURVE_WITH_KNOTS('', 1, (#472, #473), .UNSPECIFIED., .F., .U., (2, 2), (0., 10.), .UNSPECIFIED.);
#472 = CARTESIAN_POINT('', (15., 8., 0.));
#473 = CARTESIAN_POINT('', (15., 8., 10.));
#474 = B_SPLINE_SURFACE_WITH_KNOTS('', 1, 1, ((#475, #476), (#477, #478)), .UNSPECIFIED., .F., .F., .U., (2, 2), (2, 2), (0., 8.), (0., 14.), .UNSPECIFIED.);
#475 = CARTESIAN_POINT('', (15., 0., 0.));
#476 = CARTESIAN_POINT('', (15., 0., 14.));
#477 = CARTESIAN_POINT('', (15., 8., 0.));
#478 = CARTESIAN_POINT('', (15., 8., 14.));
#479 = ADVANCED_FACE('', (#480), #490, .F.);
#480 = FACE_OUTER_BOUND('', #481, .F.);
#481 = EDGE_LOOP('', (#482, #483, #484, #485));
#482 = ORIENTED_EDGE('', *, *, #436, .F.);
#483 = ORIENTED_EDGE('', *, *, #470, .F.);
#484 = ORIENTED_EDGE('', *, *, #96, .F.);
#485 = ORIENTED_EDGE('', *, *, #486, .F.);
#486 = EDGE_CURVE('', #430, #97, #487, .T.);
#487 = B_SPLINE_CURVE_WITH_KNOTS('', 1, (#488, #489), .UNSPECIFIED., .F., .U., (2, 2), (0.285714285714286, 1.), .UNSPECIFIED.);
#488 = CARTESIAN_POINT('', (9.53402874075368, 8., 10.));
#489 = CARTESIAN_POINT('', (9.53402874075368, 8., 0.));
#490 = B_SPLINE_SURFACE_WITH_KNOTS('', 1, 1, ((#491, #492), (#493, #494)), .UNSPECIFIED., .F., .F., .U., (2, 2), (2, 2), (0., 14.), (0., 15.), .UNSPECIFIED.);
#491 = CARTESIAN_POINT('', (0., 8., 0.));
#492 = CARTESIAN_POINT('', (15., 8., 0.));
#493 = CARTESIAN_POINT('', (0., 8., 14.));
#494 = CARTESIAN_POINT('', (15., 8., 14.));
#495 = ADVANCED_FACE('', (#496), #506, .F.);
#496 = FACE_OUTER_BOUND('', #497, .F.);
#497 = EDGE_LOOP('', (#498, #499, #500, #501));
#498 = ORIENTED_EDGE('', *, *, #429, .F.);
#499 = ORIENTED_EDGE('', *, *, #486, .T.);
#500 = ORIENTED_EDGE('', *, *, #103, .F.);
#501 = ORIENTED_EDGE('', *, *, #502, .T.);
#502 = EDGE_CURVE('', #104, #423, #503, .T.);
#503 = B_SPLINE_CURVE_WITH_KNOTS('', 1, (#504, #505), .UNSPECIFIED., .F., .U., (2, 2), (0., 10.), .UNSPECIFIED.);
#504 = CARTESIAN_POINT('', (11.4906666467847, 9.64181414529809, 0.));
#505 = CARTESIAN_POINT('', (11.4906666467847, 9.64181414529809, 10.));
#506 = B_SPLINE_SURFACE_WITH_KNOTS('', 1, 1, ((#507, #508), (#509, #510)), .UNSPECIFIED., .F., .F., .U., (2, 2), (2, 2), (0., 15.), (0., 14.), .UNSPECIFIED.);
#507 = CARTESIAN_POINT('', (0., 0., 0.));
#508 = CARTESIAN_POINT('', (0., 0., 14.));
#509 = CARTESIAN_POINT('', (11.4906666467847, 9.64181414529809, 0.));
#510 = CARTESIAN_POINT('', (11.4906666467847, 9.64181414529809, 14.));
#511 = ADVANCED_FACE('', (#512), #522, .F.);
#512 = FACE_OUTER_BOUND('', #513, .F.);
#513 = EDGE_LOOP('', (#514, #515, #516, #517));
#514 = ORIENTED_EDGE('', *, *, #422, .F.);
#515 = ORIENTED_EDGE('', *, *, #502, .F.);
#516 = ORIENTED_EDGE('', *, *, #110, .F.);
#517 = ORIENTED_EDGE('', *, *, #518, .T.);
#518 = EDGE_CURVE('', #111, #416, #519, .T.);
#519 = B_SPLINE_CURVE_WITH_KNOTS('', 1, (#520, #521), .UNSPECIFIED., .F., .U., (2, 2), (0., 10.), .UNSPECIFIED.);
#520 = CARTESIAN_POINT('', (6.34836576929236, 15.7701696902499, 0.));
#521 = CARTESIAN_POINT('', (6.34836576929236, 15.7701696902499, 10.));
#522 = B_SPLINE_SURFACE_WITH_KNOTS('', 1, 1, ((#523, #524), (#525, #526)), .UNSPECIFIED., .F., .F., .U., (2, 2), (2, 2), (0., 8.), (0., 14.), .UNSPECIFIED.);
#523 = CARTESIAN_POINT('', (11.4906666467847, 9.64181414529809, 0.));
#524 = CARTESIAN_POINT('', (11.4906666467847, 9.64181414529809, 14.));
#525 = CARTESIAN_POINT('', (6.34836576929236, 15.7701696902499, 0.));
#526 = CARTESIAN_POINT('', (6.34836576929236, 15.7701696902499, 14.));
#527 = ADVANCED_FACE('', (#528), #538, .F.);
#528 = FACE_OUTER_BOUND('', #529, .F.);
#529 = EDGE_LOOP('', (#530, #531, #532, #533));
#530 = ORIENTED_EDGE('', *, *, #415, .F.);
#531 = ORIENTED_EDGE('', *, *, #518, .F.);
#532 = ORIENTED_EDGE('', *, *, #117, .F.);
#533 = ORIENTED_EDGE('', *, *, #534, .F.);
#534 = EDGE_CURVE('', #409, #118, #535, .T.);
#535 = B_SPLINE_CURVE_WITH_KNOTS('', 1, (#536, #537), .UNSPECIFIED., .F., .U., (2, 2), (0.285714285714286, 1.), .UNSPECIFIED.);
#536 = CARTESIAN_POINT('', (2.16118885989867, 12.2567110899037, 10.));
#537 = CARTESIAN_POINT('', (2.16118885989867, 12.2567110899037, 0.));
#538 = B_SPLINE_SURFACE_WITH_KNOTS('', 1, 1, ((#539, #540), (#541, #542)), .UNSPECIFIED., .F., .F., .U., (2, 2), (2, 2), (0., 14.), (0., 15.), .UNSPECIFIED.);
#539 = CARTESIAN_POINT('', (-5.14230087749231, 6.12835554495182, 0.));
#540 = CARTESIAN_POINT('', (6.34836576929236, 15.7701696902499, 0.));
#541 = CARTESIAN_POINT('', (-5.14230087749231, 6.12835554495182, 14.));
#542 = CARTESIAN_POINT('', (6.34836576929236, 15.7701696902499, 14.));
#543 = ADVANCED_FACE('', (#544), #554, .F.);
#544 = FACE_OUTER_BOUND('', #545, .F.);
#545 = EDGE_LOOP('', (#546, #547, #548, #549));
#546 = ORIENTED_EDGE('', *, *, #408, .F.);
#547 = ORIENTED_EDGE('', *, *, #534, .T.);
#548 = ORIENTED_EDGE('', *, *, #124, .F.);
#549 = ORIENTED_EDGE('', *, *, #550, .T.);
#550 = EDGE_CURVE('', #125, #402, #551, .T.);
#551 = B_SPLINE_CURVE_WITH_KNOTS('', 1, (#552, #553), .UNSPECIFIED., .F., .U., (2, 2), (0., 10.), .UNSPECIFIED.);
#552 = CARTESIAN_POINT('', (2.60472266500396, 14.7721162951831, 0.));
#553 = CARTESIAN_POINT('', (2.60472266500396, 14.7721162951831, 10.));
#554 = B_SPLINE_SURFACE_WITH_KNOTS('', 1, 1, ((#555, #556), (#557, #558)), .UNSPECIFIED., .F., .F., .U., (2, 2), (2, 2), (0., 15.), (0., 14.), .UNSPECIFIED.);
#555 = CARTESIAN_POINT('', (0., 0., 0.));
#556 = CARTESIAN_POINT('', (0., 0., 14.));
#557 = CARTESIAN_POINT('', (2.60472266500396, 14.7721162951831, 0.));
#558 = CARTESIAN_POINT('', (2.60472266500396, 14.7721162951831, 14.));
#559 = ADVANCED_FACE('', (#560), #570, .F.);
#560 = FACE_OUTER_BOUND('', #561, .F.);
#561 = EDGE_LOOP('', (#562, #563, #564, #565));
#562 = ORIENTED_EDGE('', *, *, #401, .F.);
#563 = ORIENTED_EDGE('', *, *, #550, .F.);
#564 = ORIENTED_EDGE('', *, *, #131, .F.);
#565 = ORIENTED_EDGE('', *, *, #566, .T.);
#566 = EDGE_CURVE('', #132, #395, #567, .T.);
#567 = B_SPLINE_CURVE_WITH_KNOTS('', 1, (#568, #569), .UNSPECIFIED., .F., .U., (2, 2), (0., 10.), .UNSPECIFIED.);
#568 = CARTESIAN_POINT('', (-5.27373935909371, 16.1613017165186, 0.));
#569 = CARTESIAN_POINT('', (-5.27373935909371, 16.1613017165186, 10.));
#570 = B_SPLINE_SURFACE_WITH_KNOTS('', 1, 1, ((#571, #572), (#573, #574)), .UNSPECIFIED., .F., .F., .U., (2, 2), (2, 2), (0., 8.), (0., 14.), .UNSPECIFIED.);
#571 = CARTESIAN_POINT('', (2.60472266500396, 14.7721162951831, 0.));
#572 = CARTESIAN_POINT('', (2.60472266500396, 14.7721162951831, 14.));
#573 = CARTESIAN_POINT('', (-5.27373935909371, 16.1613017165186, 0.));
#574 = CARTESIAN_POINT('', (-5.27373935909371, 16.1613017165186, 14.));
#575 = ADVANCED_FACE('', (#576), #586, .F.);
#576 = FACE_OUTER_BOUND('', #577, .F.);
#577 = EDGE_LOOP('', (#578, #579, #580, #581));
#578 = ORIENTED_EDGE('', *, *, #394, .F.);
#579 = ORIENTED_EDGE('', *, *, #566, .F.);
#580 = ORIENTED_EDGE('', *, *, #138, .F.);
#581 = ORIENTED_EDGE('', *, *, #582, .F.);
#582 = EDGE_CURVE('', #388, #139, #583, .T.);
#583 = B_SPLINE_CURVE_WITH_KNOTS('', 1, (#584, #585), .UNSPECIFIED., .F., .U., (2, 2), (0.285714285714285, 1.), .UNSPECIFIED.);
#584 = CARTESIAN_POINT('', (-6.22289530744165, 10.7783708426709, 10.));
#585 = CARTESIAN_POINT('', (-6.22289530744165, 10.7783708426709, 0.));
#586 = B_SPLINE_SURFACE_WITH_KNOTS('', 1, 1, ((#587, #588), (#589, #590)), .UNSPECIFIED., .F., .F., .U., (2, 2), (2, 2), (0., 14.), (0., 15.), .UNSPECIFIED.);
#587 = CARTESIAN_POINT('', (-7.87846202409766, 1.38918542133544, 0.));
#588 = CARTESIAN_POINT('', (-5.27373935909371, 16.1613017165186, 0.));
#589 = CARTESIAN_POINT('', (-7.87846202409766, 1.38918542133544, 14.));
#590 = CARTESIAN_POINT('', (-5.27373935909371, 16.1613017165186, 14.));
#591 = ADVANCED_FACE('', (#592), #602, .F.);
#592 = FACE_OUTER_BOUND('', #593, .F.);
#593 = EDGE_LOOP('', (#594, #595, #596, #597));
#594 = ORIENTED_EDGE('', *, *, #387, .F.);
#595 = ORIENTED_EDGE('', *, *, #582, .T.);
#596 = ORIENTED_EDGE('', *, *, #145, .F.);
#597 = ORIENTED_EDGE('', *, *, #598, .T.);
#598 = EDGE_CURVE('', #146, #381, #599, .T.);
#599 = B_SPLINE_CURVE_WITH_KNOTS('', 1, (#600, #601), .UNSPECIFIED., .F., .U., (2, 2), (0., 10.), .UNSPECIFIED.);
#600 = CARTESIAN_POINT('', (-7.5, 12.9903810567666, 0.));
#601 = CARTESIAN_POINT('', (-7.5, 12.9903810567666, 10.));
#602 = B_SPLINE_SURFACE_WITH_KNOTS('', 1, 1, ((#603, #604), (#605, #606)), .UNSPECIFIED., .F., .F., .U., (2, 2), (2, 2), (0., 15.), (0., 14.), .UNSPECIFIED.);
#603 = CARTESIAN_POINT('', (0., 0., 0.));
#604 = CARTESIAN_POINT('', (0., 0., 14.));
#605 = CARTESIAN_POINT('', (-7.5, 12.9903810567666, 0.));
#606 = CARTESIAN_POINT('', (-7.5, 12.9903810567666, 14.));
#607 = ADVANCED_FACE('', (#608), #618, .F.);
#608 = FACE_OUTER_BOUND('', #609, .F.);
#609 = EDGE_LOOP('', (#610, #611, #612, #613));
#610 = ORIENTED_EDGE('', *, *, #380, .F.);
#611 = ORIENTED_EDGE('', *, *, #598, .F.);
#612 = ORIENTED_EDGE('', *, *, #152, .F.);
#613 = ORIENTED_EDGE('', *, *, #614, .T.);
#614 = EDGE_CURVE('', #153, #374, #615, .T.);
#615 = B_SPLINE_CURVE_WITH_KNOTS('', 1, (#616, #617), .UNSPECIFIED., .F., .U., (2, 2), (0., 10.), .UNSPECIFIED.);
#616 = CARTESIAN_POINT('', (-14.4282032302755, 8.99038105676658, 0.));
#617 = CARTESIAN_POINT('', (-14.4282032302755, 8.99038105676658, 10.));
#618 = B_SPLINE_SURFACE_WITH_KNOTS('', 1, 1, ((#619, #620), (#621, #622)), .UNSPECIFIED., .F., .F., .U., (2, 2), (2, 2), (0., 8.), (0., 14.), .UNSPECIFIED.);
#619 = CARTESIAN_POINT('', (-7.5, 12.9903810567666, 0.));
#620 = CARTESIAN_POINT('', (-7.5, 12.9903810567666, 14.));
#621 = CARTESIAN_POINT('', (-14.4282032302755, 8.99038105676658, 0.));
#622 = CARTESIAN_POINT('', (-14.4282032302755, 8.99038105676658, 14.));
#623 = ADVANCED_FACE('', (#624), #634, .F.);
#624 = FACE_OUTER_BOUND('', #625, .F.);
#625 = EDGE_LOOP('', (#626, #627, #628, #629));
#626 = ORIENTED_EDGE('', *, *, #373, .F.);
#627 = ORIENTED_EDGE('', *, *, #614, .F.);
#628 = ORIENTED_EDGE('', *, *, #159, .F.);
#629 = ORIENTED_EDGE('', *, *, #630, .F.);
#630 = EDGE_CURVE('', #367, #160, #631, .T.);
#631 = B_SPLINE_CURVE_WITH_KNOTS('', 1, (#632, #633), .UNSPECIFIED., .F., .U., (2, 2), (0.285714285714286, 1.), .UNSPECIFIED.);
#632 = CARTESIAN_POINT('', (-11.6952176006523, 4.25671108990365, 10.));
#633 = CARTESIAN_POINT('', (-11.6952176006523, 4.25671108990365, 0.));
#634 = B_SPLINE_SURFACE_WITH_KNOTS('', 1, 1, ((#635, #636), (#637, #638)), .UNSPECIFIED., .F., .F., .U., (2, 2), (2, 2), (0., 14.), (0., 15.), .UNSPECIFIED.);
#635 = CARTESIAN_POINT('', (-6.92820323027551, -4., 0.));
#636 = CARTESIAN_POINT('', (-14.4282032302755, 8.99038105676658, 0.));
#637 = CARTESIAN_POINT('', (-6.92820323027551, -4., 14.));
#638 = CARTESIAN_POINT('', (-14.4282032302755, 8.99038105676658, 14.));
#639 = ADVANCED_FACE('', (#640), #650, .F.);
#640 = FACE_OUTER_BOUND('', #641, .F.);
#641 = EDGE_LOOP('', (#642, #643, #644, #645));
#642 = ORIENTED_EDGE('', *, *, #366, .F.);
#643 = ORIENTED_EDGE('', *, *, #630, .T.);
#644 = ORIENTED_EDGE('', *, *, #166, .F.);
#645 = ORIENTED_EDGE('', *, *, #646, .T.);
#646 = EDGE_CURVE('', #167, #360, #647, .T.);
#647 = B_SPLINE_CURVE_WITH_KNOTS('', 1, (#648, #649), .UNSPECIFIED., .F., .U., (2, 2), (0., 10.), .UNSPECIFIED.);
#648 = CARTESIAN_POINT('', (-14.0953893117886, 5.13030214988503, 0.));
#649 = CARTESIAN_POINT('', (-14.0953893117886, 5.13030214988503, 10.));
#650 = B_SPLINE_SURFACE_WITH_KNOTS('', 1, 1, ((#651, #652), (#653, #654)), .UNSPECIFIED., .F., .F., .U., (2, 2), (2, 2), (0., 15.), (0., 14.), .UNSPECIFIED.);
#651 = CARTESIAN_POINT('', (0., 0., 0.));
#652 = CARTESIAN_POINT('', (0., 0., 14.));
#653 = CARTESIAN_POINT('', (-14.0953893117886, 5.13030214988503, 0.));
#654 = CARTESIAN_POINT('', (-14.0953893117886, 5.13030214988503, 14.));
#655 = ADVANCED_FACE('', (#656), #666, .F.);
#656 = FACE_OUTER_BOUND('', #657, .F.);
#657 = EDGE_LOOP('', (#658, #659, #660, #661));
#658 = ORIENTED_EDGE('', *, *, #359, .F.);
#659 = ORIENTED_EDGE('', *, *, #646, .F.);
#660 = ORIENTED_EDGE('', *, *, #173, .F.);
#661 = ORIENTED_EDGE('', *, *, #662, .T.);
#662 = EDGE_CURVE('', #174, #353, #663, .T.);
#663 = B_SPLINE_CURVE_WITH_KNOTS('', 1, (#664, #665), .UNSPECIFIED., .F., .U., (2, 2), (0., 10.), .UNSPECIFIED.);
#664 = CARTESIAN_POINT('', (-16.831550458394, -2.38723881640223, 0.));
#665 = CARTESIAN_POINT('', (-16.831550458394, -2.38723881640223, 10.));
#666 = B_SPLINE_SURFACE_WITH_KNOTS('', 1, 1, ((#667, #668), (#669, #670)), .UNSPECIFIED., .F., .F., .U., (2, 2), (2, 2), (0., 8.), (0., 14.), .UNSPECIFIED.);
#667 = CARTESIAN_POINT('', (-14.0953893117886, 5.13030214988503, 0.));
#668 = CARTESIAN_POINT('', (-14.0953893117886, 5.13030214988503, 14.));
#669 = CARTESIAN_POINT('', (-16.831550458394, -2.38723881640223, 0.));
#670 = CARTESIAN_POINT('', (-16.831550458394, -2.38723881640223, 14.));
#671 = ADVANCED_FACE('', (#672), #682, .F.);
#672 = FACE_OUTER_BOUND('', #673, .F.);
#673 = EDGE_LOOP('', (#674, #675, #676, #677));
#674 = ORIENTED_EDGE('', *, *, #352, .F.);
#675 = ORIENTED_EDGE('', *, *, #662, .F.);
#676 = ORIENTED_EDGE('', *, *, #180, .F.);
#677 = ORIENTED_EDGE('', *, *, #678, .F.);
#678 = EDGE_CURVE('', #346, #181, #679, .T.);
#679 = B_SPLINE_CURVE_WITH_KNOTS('', 1, (#680, #681), .UNSPECIFIED., .F., .U., (2, 2), (0.285714285714285, 1.), .UNSPECIFIED.);
#680 = CARTESIAN_POINT('', (-11.6952176006523, -4.25671108990365, 10.));
#681 = CARTESIAN_POINT('', (-11.6952176006523, -4.25671108990365, 0.));
#682 = B_SPLINE_SURFACE_WITH_KNOTS('', 1, 1, ((#683, #684), (#685, #686)), .UNSPECIFIED., .F., .F., .U., (2, 2), (2, 2), (0., 14.), (0., 15.), .UNSPECIFIED.);
#683 = CARTESIAN_POINT('', (-2.73616114660535, -7.51754096628727, 0.));
#684 = CARTESIAN_POINT('', (-16.831550458394, -2.38723881640223, 0.));
#685 = CARTESIAN_POINT('', (-2.73616114660535, -7.51754096628727, 14.));
#686 = CARTESIAN_POINT('', (-16.831550458394, -2.38723881640223, 14.));
#687 = ADVANCED_FACE('', (#688), #698, .F.);
#688 = FACE_OUTER_BOUND('', #689, .F.);
#689 = EDGE_LOOP('', (#690, #691, #692, #693));
#690 = ORIENTED_EDGE('', *, *, #345, .F.);
#691 = ORIENTED_EDGE('', *, *, #678, .T.);
#692 = ORIENTED_EDGE('', *, *, #187, .F.);
#693 = ORIENTED_EDGE('', *, *, #694, .T.);
#694 = EDGE_CURVE('', #188, #339, #695, .T.);
#695 = B_SPLINE_CURVE_WITH_KNOTS('', 1, (#696, #697), .UNSPECIFIED., .F., .U., (2, 2), (0., 10.), .UNSPECIFIED.);
#696 = CARTESIAN_POINT('', (-14.0953893117886, -5.13030214988503, 0.));
#697 = CARTESIAN_POINT('', (-14.0953893117886, -5.13030214988503, 10.));
#698 = B_SPLINE_SURFACE_WITH_KNOTS('', 1, 1, ((#699, #700), (#701, #702)), .UNSPECIFIED., .F., .F., .U., (2, 2), (2, 2), (0., 15.), (0., 14.), .UNSPECIFIED.);
#699 = CARTESIAN_POINT('', (0., 0., 0.));
#700 = CARTESIAN_POINT('', (0., 0., 14.));
#701 = CARTESIAN_POINT('', (-14.0953893117886, -5.13030214988503, 0.));
#702 = CARTESIAN_POINT('', (-14.0953893117886, -5.13030214988503, 14.));
#703 = ADVANCED_FACE('', (#704), #714, .F.);
#704 = FACE_OUTER_BOUND('', #705, .F.);
#705 = EDGE_LOOP('', (#706, #707, #708, #709));
#706 = ORIENTED_EDGE('', *, *, #338, .F.);
#707 = ORIENTED_EDGE('', *, *, #694, .F.);
#708 = ORIENTED_EDGE('', *, *, #194, .F.);
#709 = ORIENTED_EDGE('', *, *, #710, .T.);
#710 = EDGE_CURVE('', #195, #332, #711, .T.);
#711 = B_SPLINE_CURVE_WITH_KNOTS('', 1, (#712, #713), .UNSPECIFIED., .F., .U., (2, 2), (0., 10.), .UNSPECIFIED.);
#712 = CARTESIAN_POINT('', (-11.3592281651833, -12.6478431161723, 0.));
#713 = CARTESIAN_POINT('', (-11.3592281651833, -12.6478431161723, 10.));
#714 = B_SPLINE_SURFACE_WITH_KNOTS('', 1, 1, ((#715, #716), (#717, #718)), .UNSPECIFIED., .F., .F., .U., (2, 2), (2, 2), (0., 8.), (0., 14.), .UNSPECIFIED.);
#715 = CARTESIAN_POINT('', (-14.0953893117886, -5.13030214988503, 0.));
#716 = CARTESIAN_POINT('', (-14.0953893117886, -5.13030214988503, 14.));
#717 = CARTESIAN_POINT('', (-11.3592281651833, -12.6478431161723, 0.));
#718 = CARTESIAN_POINT('', (-11.3592281651833, -12.6478431161723, 14.));
#719 = ADVANCED_FACE('', (#720), #730, .F.);
#720 = FACE_OUTER_BOUND('', #721, .F.);
#721 = EDGE_LOOP('', (#722, #723, #724, #725));
#722 = ORIENTED_EDGE('', *, *, #331, .F.);
#723 = ORIENTED_EDGE('', *, *, #710, .F.);
#724 = ORIENTED_EDGE('', *, *, #201, .F.);
#725 = ORIENTED_EDGE('', *, *, #726, .F.);
#726 = EDGE_CURVE('', #325, #202, #727, .T.);
#727 = B_SPLINE_CURVE_WITH_KNOTS('', 1, (#728, #729), .UNSPECIFIED., .F., .U., (2, 2), (0.285714285714285, 1.), .UNSPECIFIED.);
#728 = CARTESIAN_POINT('', (-6.22289530744166, -10.7783708426709, 10.));
#729 = CARTESIAN_POINT('', (-6.22289530744166, -10.7783708426709, 0.));
#730 = B_SPLINE_SURFACE_WITH_KNOTS('', 1, 1, ((#731, #732), (#733, #734)), .UNSPECIFIED., .F., .F., .U., (2, 2), (2, 2), (0., 14.), (0., 15.), .UNSPECIFIED.);
#731 = CARTESIAN_POINT('', (2.73616114660535, -7.51754096628727, 0.));
#732 = CARTESIAN_POINT('', (-11.3592281651833, -12.6478431161723, 0.));
#733 = CARTESIAN_POINT('', (2.73616114660535, -7.51754096628727, 14.));
#734 = CARTESIAN_POINT('', (-11.3592281651833, -12.6478431161723, 14.));
#735 = ADVANCED_FACE('', (#736), #746, .F.);
#736 = FACE_OUTER_BOUND('', #737, .F.);
#737 = EDGE_LOOP('', (#738, #739, #740, #741));
#738 = ORIENTED_EDGE('', *, *, #324, .F.);
#739 = ORIENTED_EDGE('', *, *, #726, .T.);
#740 = ORIENTED_EDGE('', *, *, #208, .F.);
#741 = ORIENTED_EDGE('', *, *, #742, .T.);
#742 = EDGE_CURVE('', #209, #318, #743, .T.);
#743 = B_SPLINE_CURVE_WITH_KNOTS('', 1, (#744, #745), .UNSPECIFIED., .F., .U., (2, 2), (0., 10.), .UNSPECIFIED.);
#744 = CARTESIAN_POINT('', (-7.50000000000001, -12.9903810567666, 0.));
#745 = CARTESIAN_POINT('', (-7.50000000000001, -12.9903810567666, 10.));
#746 = B_SPLINE_SURFACE_WITH_KNOTS('', 1, 1, ((#747, #748), (#749, #750)), .UNSPECIFIED., .F., .F., .U., (2, 2), (2, 2), (0., 15.), (0., 14.), .UNSPECIFIED.);
#747 = CARTESIAN_POINT('', (0., 0., 0.));
#748 = CARTESIAN_POINT('', (0., 0., 14.));
#749 = CARTESIAN_POINT('', (-7.50000000000001, -12.9903810567666, 0.));
#750 = CARTESIAN_POINT('', (-7.50000000000001, -12.9903810567666, 14.));
#751 = ADVANCED_FACE('', (#752), #762, .F.);
#752 = FACE_OUTER_BOUND('', #753, .F.);
#753 = EDGE_LOOP('', (#754, #755, #756, #757));
#754 = ORIENTED_EDGE('', *, *, #317, .F.);
#755 = ORIENTED_EDGE('', *, *, #742, .F.);
#756 = ORIENTED_EDGE('', *, *, #215, .F.);
#757 = ORIENTED_EDGE('', *, *, #758, .T.);
#758 = EDGE_CURVE('', #216, #311, #759, .T.);
#759 = B_SPLINE_CURVE_WITH_KNOTS('', 1, (#760, #761), .UNSPECIFIED., .F., .U., (2, 2), (0., 10.), .UNSPECIFIED.);
#760 = CARTESIAN_POINT('', (-0.5717967697245, -16.9903810567666, 0.));
#761 = CARTESIAN_POINT('', (-0.5717967697245, -16.9903810567666, 10.));
#762 = B_SPLINE_SURFACE_WITH_KNOTS('', 1, 1, ((#763, #764), (#765, #766)), .UNSPECIFIED., .F., .F., .U., (2, 2), (2, 2), (0., 8.), (0., 14.), .UNSPECIFIED.);
#763 = CARTESIAN_POINT('', (-7.50000000000001, -12.9903810567666, 0.));
#764 = CARTESIAN_POINT('', (-7.50000000000001, -12.9903810567666, 14.));
#765 = CARTESIAN_POINT('', (-0.5717967697245, -16.9903810567666, 0.));
#766 = CARTESIAN_POINT('', (-0.5717967697245, -16.9903810567666, 14.));
#767 = ADVANCED_FACE('', (#768), #778, .F.);
#768 = FACE_OUTER_BOUND('', #769, .F.);
#769 = EDGE_LOOP('', (#770, #771, #772, #773));
#770 = ORIENTED_EDGE('', *, *, #310, .F.);
#771 = ORIENTED_EDGE('', *, *, #758, .F.);
#772 = ORIENTED_EDGE('', *, *, #222, .F.);
#773 = ORIENTED_EDGE('', *, *, #774, .F.);
#774 = EDGE_CURVE('', #304, #223, #775, .T.);
#775 = B_SPLINE_CURVE_WITH_KNOTS('', 1, (#776, #777), .UNSPECIFIED., .F., .U., (2, 2), (0.285714285714285, 1.), .UNSPECIFIED.);
#776 = CARTESIAN_POINT('', (2.16118885989866, -12.2567110899036, 10.));
#777 = CARTESIAN_POINT('', (2.16118885989866, -12.2567110899036, 0.));
#778 = B_SPLINE_SURFACE_WITH_KNOTS('', 1, 1, ((#779, #780), (#781, #782)), .UNSPECIFIED., .F., .F., .U., (2, 2), (2, 2), (0., 14.), (0., 15.), .UNSPECIFIED.);
#779 = CARTESIAN_POINT('', (6.92820323027551, -4., 0.));
#780 = CARTESIAN_POINT('', (-0.5717967697245, -16.9903810567666, 0.));
#781 = CARTESIAN_POINT('', (6.92820323027551, -4., 14.));
#782 = CARTESIAN_POINT('', (-0.5717967697245, -16.9903810567666, 14.));
#783 = ADVANCED_FACE('', (#784), #794, .F.);
#784 = FACE_OUTER_BOUND('', #785, .F.);
#785 = EDGE_LOOP('', (#786, #787, #788, #789));
#786 = ORIENTED_EDGE('', *, *, #303, .F.);
#787 = ORIENTED_EDGE('', *, *, #774, .T.);
#788 = ORIENTED_EDGE('', *, *, #229, .F.);
#789 = ORIENTED_EDGE('', *, *, #790, .T.);
#790 = EDGE_CURVE('', #230, #297, #791, .T.);
#791 = B_SPLINE_CURVE_WITH_KNOTS('', 1, (#792, #793), .UNSPECIFIED., .F., .U., (2, 2), (0., 10.), .UNSPECIFIED.);
#792 = CARTESIAN_POINT('', (2.60472266500395, -14.7721162951831, 0.));
#793 = CARTESIAN_POINT('', (2.60472266500395, -14.7721162951831, 10.));
#794 = B_SPLINE_SURFACE_WITH_KNOTS('', 1, 1, ((#795, #796), (#797, #798)), .UNSPECIFIED., .F., .F., .U., (2, 2), (2, 2), (0., 15.), (0., 14.), .UNSPECIFIED.);
#795 = CARTESIAN_POINT('', (0., 0., 0.));
#796 = CARTESIAN_POINT('', (0., 0., 14.));
#797 = CARTESIAN_POINT('', (2.60472266500395, -14.7721162951831, 0.));
#798 = CARTESIAN_POINT('', (2.60472266500395, -14.7721162951831, 14.));
#799 = ADVANCED_FACE('', (#800), #810, .F.);
#800 = FACE_OUTER_BOUND('', #801, .F.);
#801 = EDGE_LOOP('', (#802, #803, #804, #805));
#802 = ORIENTED_EDGE('', *, *, #296, .F.);
#803 = ORIENTED_EDGE('', *, *, #790, .F.);
#804 = ORIENTED_EDGE('', *, *, #236, .F.);
#805 = ORIENTED_EDGE('', *, *, #806, .T.);
#806 = EDGE_CURVE('', #237, #290, #807, .T.);
#807 = B_SPLINE_CURVE_WITH_KNOTS('', 1, (#808, #809), .UNSPECIFIED., .F., .U., (2, 2), (0., 10.), .UNSPECIFIED.);
#808 = CARTESIAN_POINT('', (10.4831846891016, -13.3829308738477, 0.));
#809 = CARTESIAN_POINT('', (10.4831846891016, -13.3829308738477, 10.));
#810 = B_SPLINE_SURFACE_WITH_KNOTS('', 1, 1, ((#811, #812), (#813, #814)), .UNSPECIFIED., .F., .F., .U., (2, 2), (2, 2), (0., 8.), (0., 14.), .UNSPECIFIED.);
#811 = CARTESIAN_POINT('', (2.60472266500395, -14.7721162951831, 0.));
#812 = CARTESIAN_POINT('', (2.60472266500395, -14.7721162951831, 14.));
#813 = CARTESIAN_POINT('', (10.4831846891016, -13.3829308738477, 0.));
#814 = CARTESIAN_POINT('', (10.4831846891016, -13.3829308738477, 14.));
#815 = ADVANCED_FACE('', (#816), #826, .F.);
#816 = FACE_OUTER_BOUND('', #817, .F.);
#817 = EDGE_LOOP('', (#818, #819, #820, #821));
#818 = ORIENTED_EDGE('', *, *, #289, .F.);
#819 = ORIENTED_EDGE('', *, *, #806, .F.);
#820 = ORIENTED_EDGE('', *, *, #243, .F.);
#821 = ORIENTED_EDGE('', *, *, #822, .F.);
#822 = EDGE_CURVE('', #283, #244, #823, .T.);
#823 = B_SPLINE_CURVE_WITH_KNOTS('', 1, (#824, #825), .UNSPECIFIED., .F., .U., (2, 2), (0.285714285714285, 1.), .UNSPECIFIED.);
#824 = CARTESIAN_POINT('', (9.53402874075367, -8., 10.));
#825 = CARTESIAN_POINT('', (9.53402874075367, -8., 0.));
#826 = B_SPLINE_SURFACE_WITH_KNOTS('', 1, 1, ((#827, #828), (#829, #830)), .UNSPECIFIED., .F., .F., .U., (2, 2), (2, 2), (0., 14.), (0., 15.), .UNSPECIFIED.);
#827 = CARTESIAN_POINT('', (7.87846202409767, 1.38918542133544, 0.));
#828 = CARTESIAN_POINT('', (10.4831846891016, -13.3829308738477, 0.));
#829 = CARTESIAN_POINT('', (7.87846202409767, 1.38918542133544, 14.));
#830 = CARTESIAN_POINT('', (10.4831846891016, -13.3829308738477, 14.));
#831 = ADVANCED_FACE('', (#832), #842, .F.);
#832 = FACE_OUTER_BOUND('', #833, .F.);
#833 = EDGE_LOOP('', (#834, #835, #836, #837));
#834 = ORIENTED_EDGE('', *, *, #282, .F.);
#835 = ORIENTED_EDGE('', *, *, #822, .T.);
#836 = ORIENTED_EDGE('', *, *, #250, .T.);
#837 = ORIENTED_EDGE('', *, *, #838, .T.);
#838 = EDGE_CURVE('', #67, #276, #839, .T.);
#839 = B_SPLINE_CURVE_WITH_KNOTS('', 1, (#840, #841), .UNSPECIFIED., .F., .U., (2, 2), (0., 10.), .UNSPECIFIED.);
#840 = CARTESIAN_POINT('', (11.4906666467847, -9.64181414529809, 0.));
#841 = CARTESIAN_POINT('', (11.4906666467847, -9.64181414529809, 10.));
#842 = B_SPLINE_SURFACE_WITH_KNOTS('', 1, 1, ((#843, #844), (#845, #846)), .UNSPECIFIED., .F., .F., .U., (2, 2), (2, 2), (0., 15.), (0., 14.), .UNSPECIFIED.);
#843 = CARTESIAN_POINT('', (0., 0., 0.));
#844 = CARTESIAN_POINT('', (0., 0., 14.));
#845 = CARTESIAN_POINT('', (11.4906666467847, -9.64181414529809, 0.));
#846 = CARTESIAN_POINT('', (11.4906666467847, -9.64181414529809, 14.));
#847 = ADVANCED_FACE('', (#848), #858, .F.);
#848 = FACE_OUTER_BOUND('', #849, .F.);
#849 = EDGE_LOOP('', (#850, #851, #852, #853));
#850 = ORIENTED_EDGE('', *, *, #275, .F.);
#851 = ORIENTED_EDGE('', *, *, #838, .F.);
#852 = ORIENTED_EDGE('', *, *, #66, .T.);
#853 = ORIENTED_EDGE('', *, *, #854, .T.);
#854 = EDGE_CURVE('', #69, #267, #855, .T.);
#855 = B_SPLINE_CURVE_WITH_KNOTS('', 1, (#856, #857), .UNSPECIFIED., .F., .U., (2, 2), (0., 10.), .UNSPECIFIED.);
#856 = CARTESIAN_POINT('', (16.632967524277, -3.51345860034627, 0.));
#857 = CARTESIAN_POINT('', (16.632967524277, -3.51345860034627, 10.));
#858 = B_SPLINE_SURFACE_WITH_KNOTS('', 1, 1, ((#859, #860), (#861, #862)), .UNSPECIFIED., .F., .F., .U., (2, 2), (2, 2), (0., 8.), (0., 14.), .UNSPECIFIED.);
#859 = CARTESIAN_POINT('', (11.4906666467847, -9.64181414529809, 0.));
#860 = CARTESIAN_POINT('', (11.4906666467847, -9.64181414529809, 14.));
#861 = CARTESIAN_POINT('', (16.632967524277, -3.51345860034627, 0.));
#862 = CARTESIAN_POINT('', (16.632967524277, -3.51345860034627, 14.));
#863 = ADVANCED_FACE('', (#864), #874, .F.);
#864 = FACE_OUTER_BOUND('', #865, .F.);
#865 = EDGE_LOOP('', (#866, #867, #868, #869));
#866 = ORIENTED_EDGE('', *, *, #266, .F.);
#867 = ORIENTED_EDGE('', *, *, #854, .F.);
#868 = ORIENTED_EDGE('', *, *, #75, .F.);
#869 = ORIENTED_EDGE('', *, *, #870, .T.);
#870 = EDGE_CURVE('', #76, #269, #871, .T.);
#871 = B_SPLINE_CURVE_WITH_KNOTS('', 1, (#872, #873), .UNSPECIFIED., .F., .U., (2, 2), (0., 0.714285714285714), .UNSPECIFIED.);
#872 = CARTESIAN_POINT('', (12.4457906148833, 0., 3.5527136788005E-15));
#873 = CARTESIAN_POINT('', (12.4457906148833, 0., 10.));
#874 = B_SPLINE_SURFACE_WITH_KNOTS('', 1, 1, ((#875, #876), (#877, #878)), .UNSPECIFIED., .F., .F., .U., (2, 2), (2, 2), (0., 14.), (0., 15.), .UNSPECIFIED.);
#875 = CARTESIAN_POINT('', (5.14230087749232, 6.12835554495182, 0.));
#876 = CARTESIAN_POINT('', (16.632967524277, -3.51345860034627, 0.));
#877 = CARTESIAN_POINT('', (5.14230087749232, 6.12835554495182, 14.));
#878 = CARTESIAN_POINT('', (16.632967524277, -3.51345860034627, 14.));
#879 = ADVANCED_FACE('', (#880), #886, .F.);
#880 = FACE_OUTER_BOUND('', #881, .F.);
#881 = EDGE_LOOP('', (#882, #883, #884, #885));
#882 = ORIENTED_EDGE('', *, *, #450, .F.);
#883 = ORIENTED_EDGE('', *, *, #870, .F.);
#884 = ORIENTED_EDGE('', *, *, #82, .T.);
#885 = ORIENTED_EDGE('', *, *, #464, .T.);
#886 = B_SPLINE_SURFACE_WITH_KNOTS('', 1, 1, ((#887, #888), (#889, #890)), .UNSPECIFIED., .F., .F., .U., (2, 2), (2, 2), (0., 15.), (0., 14.), .UNSPECIFIED.);
#887 = CARTESIAN_POINT('', (0., 0., 0.));
#888 = CARTESIAN_POINT('', (0., 0., 14.));
#889 = CARTESIAN_POINT('', (15., 0., 0.));
#890 = CARTESIAN_POINT('', (15., 0., 14.));
#891 = DRAUGHTING_MODEL('', (#899), #900);
#892 = PRESENTATION_STYLE_ASSIGNMENT((#893));
#893 = SURFACE_STYLE_USAGE(.POSITIVE., #894);
#894 = SURFACE_SIDE_STYLE('', (#895));
#895 = SURFACE_STYLE_FILL_AREA(#896);
#896 = FILL_AREA_STYLE('', (#897));
#897 = FILL_AREA_STYLE_COLOUR('', #898);
#898 = COLOUR_RGB('', 0.50196078431373, 0.50196078431373, 0.50196078431373);
#899 = STYLED_ITEM('', (#892), #1);
#900 = (
   GEOMETRIC_REPRESENTATION_CONTEXT (3)
   GLOBAL_UNCERTAINTY_ASSIGNED_CONTEXT ((#902))
   GLOBAL_UNIT_ASSIGNED_CONTEXT ((#901, #903, #904))
   REPRESENTATION_CONTEXT ('', '3D')
);
#901 = (
   LENGTH_UNIT ()
   NAMED_UNIT (*)
   SI_UNIT (.MILLI., .METRE.)
);
#902 = UNCERTAINTY_MEASURE_WITH_UNIT(LENGTH_MEASURE(1.E-6), #901, 'DISTANCE_ACCURACY_VALUE', '');
#903 = (
   NAMED_UNIT (*)
   SI_UNIT ($, .STERADIAN.)
   SOLID_ANGLE_UNIT ()
);
#904 = (
   NAMED_UNIT (*)
   PLANE_ANGLE_UNIT ()
   SI_UNIT ($, .RADIAN.)
);
#905 = SHAPE_REPRESENTATION('', (#918), #900);
#906 = PRODUCT_DEFINITION_SHAPE('', '', #907);
#907 = PRODUCT_DEFINITION('', '', #910, #914);
#908 = APPLICATION_CONTEXT('configuration controlled 3D designs of mechanical parts and assemblies');
#909 = APPLICATION_PROTOCOL_DEFINITION('International Standard', 'automotive_design', 2002, #908);
#910 = PRODUCT_DEFINITION_FORMATION_WITH_SPECIFIED_SOURCE('', '', #911, .NOT_KNOWN.);
#911 = PRODUCT('MergeRegen', 'MergeRegen', '', (#912));
#912 = PRODUCT_CONTEXT('', #908, 'mechanical');
#913 = PRODUCT_RELATED_PRODUCT_CATEGORY('detail', '', (#911));
#914 = PRODUCT_DEFINITION_CONTEXT('part definition', #908, 'design');
#915 = SHAPE_DEFINITION_REPRESENTATION(#906, #905);
#916 = SHAPE_REPRESENTATION_RELATIONSHIP('', '', #905, #917);
#917 = ADVANCED_BREP_SHAPE_REPRESENTATION('', (#1), #900);
#918 = AXIS2_PLACEMENT_3D('', #919, #920, #921);
#919 = CARTESIAN_POINT('', (0., 0., 0.));
#920 = DIRECTION('', (0., 0., 1.));
#921 = DIRECTION('', (1., 0., 0.));
ENDSEC;
END-ISO-10303-21;
