ISO-10303-21;
HEADER;
FILE_DESCRIPTION(('STEP'), '1');
FILE_NAME('DirTest', '2026-04-14T12:39:03', (''), (''), 'Express 3.1.2.0', 'Express Tool', 'Unknown');
FILE_SCHEMA(('AUTOMOTIVE_DESIGN'));
ENDSEC;

DATA;
#1 = MANIFOLD_SOLID_BREP('Solid', #2);
#2 = CLOSED_SHELL('', (#3));
#3 = ADVANCED_FACE('', (), #4, .T.);
#4 = B_SPLINE_SURFACE_WITH_KNOTS('', 1, 1, ((#5, #6), (#7, #8)), .UNSPECIFIED., .F., .F., .U., (2, 2), (2, 2), (0., 1.), (-1.5128187169779, 1.), .UNSPECIFIED.);
#5 = CARTESIAN_POINT('', (94.8305320150519, -9.83053201505194, 0.));
#6 = CARTESIAN_POINT('', (-4.83053201505194, -9.83053201505194, 0.));
#7 = CARTESIAN_POINT('', (94.8305320150519, 29.8305320150519, 0.));
#8 = CARTESIAN_POINT('', (-4.83053201505194, 29.8305320150519, 0.));
#9 = DRAUGHTING_MODEL('', (#17, #33, #179, #325), #328);
#10 = PRESENTATION_STYLE_ASSIGNMENT((#11));
#11 = SURFACE_STYLE_USAGE(.POSITIVE., #12);
#12 = SURFACE_SIDE_STYLE('', (#13));
#13 = SURFACE_STYLE_FILL_AREA(#14);
#14 = FILL_AREA_STYLE('', (#15));
#15 = FILL_AREA_STYLE_COLOUR('', #16);
#16 = COLOUR_RGB('', 0.50196078431373, 0.50196078431373, 0.50196078431373);
#17 = STYLED_ITEM('', (#10), #1);
#18 = MANIFOLD_SOLID_BREP('Solid0', #19);
#19 = CLOSED_SHELL('', (#20));
#20 = ADVANCED_FACE('', (), #21, .T.);
#21 = B_SPLINE_SURFACE_WITH_KNOTS('', 1, 1, ((#22, #23), (#24, #25)), .UNSPECIFIED., .F., .F., .U., (2, 2), (2, 2), (0., 2.5128187169779), (0., 1.), .UNSPECIFIED.);
#22 = CARTESIAN_POINT('', (34.8305320150519, -9.83053201505194, 50.));
#23 = CARTESIAN_POINT('', (-4.83053201505194, -9.83053201505194, 50.));
#24 = CARTESIAN_POINT('', (34.8305320150519, 89.8305320150519, 50.));
#25 = CARTESIAN_POINT('', (-4.83053201505194, 89.8305320150519, 50.));
#26 = PRESENTATION_STYLE_ASSIGNMENT((#27));
#27 = SURFACE_STYLE_USAGE(.POSITIVE., #28);
#28 = SURFACE_SIDE_STYLE('', (#29));
#29 = SURFACE_STYLE_FILL_AREA(#30);
#30 = FILL_AREA_STYLE('', (#31));
#31 = FILL_AREA_STYLE_COLOUR('', #32);
#32 = COLOUR_RGB('', 0.50196078431373, 0.50196078431373, 0.50196078431373);
#33 = STYLED_ITEM('', (#26), #18);
#34 = MANIFOLD_SOLID_BREP('Solid1', #35);
#35 = CLOSED_SHELL('', (#36, #72, #100, #122, #144, #160));
#36 = ADVANCED_FACE('', (#37), #67, .T.);
#37 = FACE_OUTER_BOUND('', #38, .T.);
#38 = EDGE_LOOP('', (#39, #48, #55, #62));
#39 = ORIENTED_EDGE('', *, *, #40, .F.);
#40 = EDGE_CURVE('', #41, #43, #45, .T.);
#41 = VERTEX_POINT('', #42);
#42 = CARTESIAN_POINT('', (50., 20., 0.));
#43 = VERTEX_POINT('', #44);
#44 = CARTESIAN_POINT('', (80., 50., 30.));
#45 = B_SPLINE_CURVE_WITH_KNOTS('', 1, (#46, #47), .UNSPECIFIED., .F., .U., (2, 2), (0., 51.9615242270663), .UNSPECIFIED.);
#46 = CARTESIAN_POINT('', (50., 20., 0.));
#47 = CARTESIAN_POINT('', (80., 50., 30.));
#48 = ORIENTED_EDGE('', *, *, #49, .T.);
#49 = EDGE_CURVE('', #41, #50, #52, .T.);
#50 = VERTEX_POINT('', #51);
#51 = CARTESIAN_POINT('', (50., 0., 0.));
#52 = B_SPLINE_CURVE_WITH_KNOTS('', 1, (#53, #54), .UNSPECIFIED., .F., .U., (2, 2), (0., 1.), .UNSPECIFIED.);
#53 = CARTESIAN_POINT('', (50., 20., 0.));
#54 = CARTESIAN_POINT('', (50., 0., 0.));
#55 = ORIENTED_EDGE('', *, *, #56, .T.);
#56 = EDGE_CURVE('', #50, #57, #59, .T.);
#57 = VERTEX_POINT('', #58);
#58 = CARTESIAN_POINT('', (80., 30., 30.));
#59 = B_SPLINE_CURVE_WITH_KNOTS('', 1, (#60, #61), .UNSPECIFIED., .F., .U., (2, 2), (0., 51.9615242270663), .UNSPECIFIED.);
#60 = CARTESIAN_POINT('', (50., 0., 0.));
#61 = CARTESIAN_POINT('', (80., 30., 30.));
#62 = ORIENTED_EDGE('', *, *, #63, .F.);
#63 = EDGE_CURVE('', #43, #57, #64, .T.);
#64 = B_SPLINE_CURVE_WITH_KNOTS('', 1, (#65, #66), .UNSPECIFIED., .F., .U., (2, 2), (0., 1.), .UNSPECIFIED.);
#65 = CARTESIAN_POINT('', (80., 50., 30.));
#66 = CARTESIAN_POINT('', (80., 30., 30.));
#67 = B_SPLINE_SURFACE_WITH_KNOTS('', 1, 1, ((#68, #69), (#70, #71)), .UNSPECIFIED., .F., .F., .U., (2, 2), (2, 2), (0., 1.), (0., 51.9615242270663), .UNSPECIFIED.);
#68 = CARTESIAN_POINT('', (50., 20., 0.));
#69 = CARTESIAN_POINT('', (80., 50., 30.));
#70 = CARTESIAN_POINT('', (50., 0., 0.));
#71 = CARTESIAN_POINT('', (80., 30., 30.));
#72 = ADVANCED_FACE('', (#73), #95, .T.);
#73 = FACE_OUTER_BOUND('', #74, .T.);
#74 = EDGE_LOOP('', (#75, #76, #83, #90));
#75 = ORIENTED_EDGE('', *, *, #49, .F.);
#76 = ORIENTED_EDGE('', *, *, #77, .F.);
#77 = EDGE_CURVE('', #78, #41, #80, .T.);
#78 = VERTEX_POINT('', #79);
#79 = CARTESIAN_POINT('', (80., 20., 0.));
#80 = B_SPLINE_CURVE_WITH_KNOTS('', 1, (#81, #82), .UNSPECIFIED., .F., .U., (2, 2), (0., 1.), .UNSPECIFIED.);
#81 = CARTESIAN_POINT('', (80., 20., 0.));
#82 = CARTESIAN_POINT('', (50., 20., 0.));
#83 = ORIENTED_EDGE('', *, *, #84, .F.);
#84 = EDGE_CURVE('', #85, #78, #87, .T.);
#85 = VERTEX_POINT('', #86);
#86 = CARTESIAN_POINT('', (80., 0., 0.));
#87 = B_SPLINE_CURVE_WITH_KNOTS('', 1, (#88, #89), .UNSPECIFIED., .F., .U., (2, 2), (0., 1.), .UNSPECIFIED.);
#88 = CARTESIAN_POINT('', (80., 0., 0.));
#89 = CARTESIAN_POINT('', (80., 20., 0.));
#90 = ORIENTED_EDGE('', *, *, #91, .F.);
#91 = EDGE_CURVE('', #50, #85, #92, .T.);
#92 = B_SPLINE_CURVE_WITH_KNOTS('', 1, (#93, #94), .UNSPECIFIED., .F., .U., (2, 2), (0., 1.), .UNSPECIFIED.);
#93 = CARTESIAN_POINT('', (50., 0., 0.));
#94 = CARTESIAN_POINT('', (80., 0., 0.));
#95 = B_SPLINE_SURFACE_WITH_KNOTS('', 1, 1, ((#96, #97), (#98, #99)), .UNSPECIFIED., .F., .F., .U., (2, 2), (2, 2), (0., 1.), (0., 1.), .UNSPECIFIED.);
#96 = CARTESIAN_POINT('', (84.8305320150519, -9.83053201505194, 0.));
#97 = CARTESIAN_POINT('', (84.8305320150519, 29.8305320150519, 0.));
#98 = CARTESIAN_POINT('', (45.1694679849481, -9.83053201505194, 0.));
#99 = CARTESIAN_POINT('', (45.1694679849481, 29.8305320150519, 0.));
#100 = ADVANCED_FACE('', (#101), #117, .T.);
#101 = FACE_OUTER_BOUND('', #102, .T.);
#102 = EDGE_LOOP('', (#103, #110, #111, #112));
#103 = ORIENTED_EDGE('', *, *, #104, .F.);
#104 = EDGE_CURVE('', #78, #105, #107, .T.);
#105 = VERTEX_POINT('', #106);
#106 = CARTESIAN_POINT('', (110., 50., 30.));
#107 = B_SPLINE_CURVE_WITH_KNOTS('', 1, (#108, #109), .UNSPECIFIED., .F., .U., (2, 2), (0., 51.9615242270663), .UNSPECIFIED.);
#108 = CARTESIAN_POINT('', (80., 20., 0.));
#109 = CARTESIAN_POINT('', (110., 50., 30.));
#110 = ORIENTED_EDGE('', *, *, #77, .T.);
#111 = ORIENTED_EDGE('', *, *, #40, .T.);
#112 = ORIENTED_EDGE('', *, *, #113, .F.);
#113 = EDGE_CURVE('', #105, #43, #114, .T.);
#114 = B_SPLINE_CURVE_WITH_KNOTS('', 1, (#115, #116), .UNSPECIFIED., .F., .U., (2, 2), (0., 1.), .UNSPECIFIED.);
#115 = CARTESIAN_POINT('', (110., 50., 30.));
#116 = CARTESIAN_POINT('', (80., 50., 30.));
#117 = B_SPLINE_SURFACE_WITH_KNOTS('', 1, 1, ((#118, #119), (#120, #121)), .UNSPECIFIED., .F., .F., .U., (2, 2), (2, 2), (0., 1.), (0., 51.9615242270663), .UNSPECIFIED.);
#118 = CARTESIAN_POINT('', (80., 20., 0.));
#119 = CARTESIAN_POINT('', (110., 50., 30.));
#120 = CARTESIAN_POINT('', (50., 20., 0.));
#121 = CARTESIAN_POINT('', (80., 50., 30.));
#122 = ADVANCED_FACE('', (#123), #139, .T.);
#123 = FACE_OUTER_BOUND('', #124, .T.);
#124 = EDGE_LOOP('', (#125, #126, #133, #138));
#125 = ORIENTED_EDGE('', *, *, #63, .T.);
#126 = ORIENTED_EDGE('', *, *, #127, .T.);
#127 = EDGE_CURVE('', #57, #128, #130, .T.);
#128 = VERTEX_POINT('', #129);
#129 = CARTESIAN_POINT('', (110., 30., 30.));
#130 = B_SPLINE_CURVE_WITH_KNOTS('', 1, (#131, #132), .UNSPECIFIED., .F., .U., (2, 2), (0., 1.), .UNSPECIFIED.);
#131 = CARTESIAN_POINT('', (80., 30., 30.));
#132 = CARTESIAN_POINT('', (110., 30., 30.));
#133 = ORIENTED_EDGE('', *, *, #134, .T.);
#134 = EDGE_CURVE('', #128, #105, #135, .T.);
#135 = B_SPLINE_CURVE_WITH_KNOTS('', 1, (#136, #137), .UNSPECIFIED., .F., .U., (2, 2), (0., 1.), .UNSPECIFIED.);
#136 = CARTESIAN_POINT('', (110., 30., 30.));
#137 = CARTESIAN_POINT('', (110., 50., 30.));
#138 = ORIENTED_EDGE('', *, *, #113, .T.);
#139 = B_SPLINE_SURFACE_WITH_KNOTS('', 1, 1, ((#140, #141), (#142, #143)), .UNSPECIFIED., .F., .F., .U., (2, 2), (2, 2), (0., 1.), (0., 1.), .UNSPECIFIED.);
#140 = CARTESIAN_POINT('', (114.830532015052, 20.1694679849481, 30.));
#141 = CARTESIAN_POINT('', (75.1694679849481, 20.1694679849481, 30.));
#142 = CARTESIAN_POINT('', (114.830532015052, 59.8305320150519, 30.));
#143 = CARTESIAN_POINT('', (75.1694679849481, 59.8305320150519, 30.));
#144 = ADVANCED_FACE('', (#145), #155, .T.);
#145 = FACE_OUTER_BOUND('', #146, .T.);
#146 = EDGE_LOOP('', (#147, #148, #149, #154));
#147 = ORIENTED_EDGE('', *, *, #56, .F.);
#148 = ORIENTED_EDGE('', *, *, #91, .T.);
#149 = ORIENTED_EDGE('', *, *, #150, .T.);
#150 = EDGE_CURVE('', #85, #128, #151, .T.);
#151 = B_SPLINE_CURVE_WITH_KNOTS('', 1, (#152, #153), .UNSPECIFIED., .F., .U., (2, 2), (0., 51.9615242270663), .UNSPECIFIED.);
#152 = CARTESIAN_POINT('', (80., 0., 0.));
#153 = CARTESIAN_POINT('', (110., 30., 30.));
#154 = ORIENTED_EDGE('', *, *, #127, .F.);
#155 = B_SPLINE_SURFACE_WITH_KNOTS('', 1, 1, ((#156, #157), (#158, #159)), .UNSPECIFIED., .F., .F., .U., (2, 2), (2, 2), (0., 1.), (0., 51.9615242270663), .UNSPECIFIED.);
#156 = CARTESIAN_POINT('', (50., 0., 0.));
#157 = CARTESIAN_POINT('', (80., 30., 30.));
#158 = CARTESIAN_POINT('', (80., 0., 0.));
#159 = CARTESIAN_POINT('', (110., 30., 30.));
#160 = ADVANCED_FACE('', (#161), #167, .T.);
#161 = FACE_OUTER_BOUND('', #162, .T.);
#162 = EDGE_LOOP('', (#163, #164, #165, #166));
#163 = ORIENTED_EDGE('', *, *, #150, .F.);
#164 = ORIENTED_EDGE('', *, *, #84, .T.);
#165 = ORIENTED_EDGE('', *, *, #104, .T.);
#166 = ORIENTED_EDGE('', *, *, #134, .F.);
#167 = B_SPLINE_SURFACE_WITH_KNOTS('', 1, 1, ((#168, #169), (#170, #171)), .UNSPECIFIED., .F., .F., .U., (2, 2), (2, 2), (0., 1.), (0., 51.9615242270663), .UNSPECIFIED.);
#168 = CARTESIAN_POINT('', (80., 0., 0.));
#169 = CARTESIAN_POINT('', (110., 30., 30.));
#170 = CARTESIAN_POINT('', (80., 20., 0.));
#171 = CARTESIAN_POINT('', (110., 50., 30.));
#172 = PRESENTATION_STYLE_ASSIGNMENT((#173));
#173 = SURFACE_STYLE_USAGE(.POSITIVE., #174);
#174 = SURFACE_SIDE_STYLE('', (#175));
#175 = SURFACE_STYLE_FILL_AREA(#176);
#176 = FILL_AREA_STYLE('', (#177));
#177 = FILL_AREA_STYLE_COLOUR('', #178);
#178 = COLOUR_RGB('', 0.50196078431373, 0.50196078431373, 0.50196078431373);
#179 = STYLED_ITEM('', (#172), #34);
#180 = MANIFOLD_SOLID_BREP('Solid2', #181);
#181 = CLOSED_SHELL('', (#182, #218, #246, #268, #290, #306));
#182 = ADVANCED_FACE('', (#183), #213, .T.);
#183 = FACE_OUTER_BOUND('', #184, .T.);
#184 = EDGE_LOOP('', (#185, #194, #201, #208));
#185 = ORIENTED_EDGE('', *, *, #186, .F.);
#186 = EDGE_CURVE('', #187, #189, #191, .T.);
#187 = VERTEX_POINT('', #188);
#188 = CARTESIAN_POINT('', (0., 70., -40.));
#189 = VERTEX_POINT('', #190);
#190 = CARTESIAN_POINT('', (0., 50., -40.));
#191 = B_SPLINE_CURVE_WITH_KNOTS('', 1, (#192, #193), .UNSPECIFIED., .F., .U., (2, 2), (0., 1.), .UNSPECIFIED.);
#192 = CARTESIAN_POINT('', (0., 70., -40.));
#193 = CARTESIAN_POINT('', (0., 50., -40.));
#194 = ORIENTED_EDGE('', *, *, #195, .F.);
#195 = EDGE_CURVE('', #196, #187, #198, .T.);
#196 = VERTEX_POINT('', #197);
#197 = CARTESIAN_POINT('', (30., 70., -40.));
#198 = B_SPLINE_CURVE_WITH_KNOTS('', 1, (#199, #200), .UNSPECIFIED., .F., .U., (2, 2), (0., 1.), .UNSPECIFIED.);
#199 = CARTESIAN_POINT('', (30., 70., -40.));
#200 = CARTESIAN_POINT('', (0., 70., -40.));
#201 = ORIENTED_EDGE('', *, *, #202, .F.);
#202 = EDGE_CURVE('', #203, #196, #205, .T.);
#203 = VERTEX_POINT('', #204);
#204 = CARTESIAN_POINT('', (30., 50., -40.));
#205 = B_SPLINE_CURVE_WITH_KNOTS('', 1, (#206, #207), .UNSPECIFIED., .F., .U., (2, 2), (0., 1.), .UNSPECIFIED.);
#206 = CARTESIAN_POINT('', (30., 50., -40.));
#207 = CARTESIAN_POINT('', (30., 70., -40.));
#208 = ORIENTED_EDGE('', *, *, #209, .F.);
#209 = EDGE_CURVE('', #189, #203, #210, .T.);
#210 = B_SPLINE_CURVE_WITH_KNOTS('', 1, (#211, #212), .UNSPECIFIED., .F., .U., (2, 2), (0., 1.), .UNSPECIFIED.);
#211 = CARTESIAN_POINT('', (0., 50., -40.));
#212 = CARTESIAN_POINT('', (30., 50., -40.));
#213 = B_SPLINE_SURFACE_WITH_KNOTS('', 1, 1, ((#214, #215), (#216, #217)), .UNSPECIFIED., .F., .F., .U., (2, 2), (2, 2), (0., 1.), (0., 1.), .UNSPECIFIED.);
#214 = CARTESIAN_POINT('', (34.8305320150519, 40.1694679849481, -40.));
#215 = CARTESIAN_POINT('', (34.8305320150519, 79.8305320150519, -40.));
#216 = CARTESIAN_POINT('', (-4.83053201505194, 40.1694679849481, -40.));
#217 = CARTESIAN_POINT('', (-4.83053201505194, 79.8305320150519, -40.));
#218 = ADVANCED_FACE('', (#219), #241, .T.);
#219 = FACE_OUTER_BOUND('', #220, .T.);
#220 = EDGE_LOOP('', (#221, #228, #229, #236));
#221 = ORIENTED_EDGE('', *, *, #222, .T.);
#222 = EDGE_CURVE('', #223, #196, #225, .T.);
#223 = VERTEX_POINT('', #224);
#224 = CARTESIAN_POINT('', (30., 70., 0.));
#225 = B_SPLINE_CURVE_WITH_KNOTS('', 1, (#226, #227), .UNSPECIFIED., .F., .U., (2, 2), (0., 1.), .UNSPECIFIED.);
#226 = CARTESIAN_POINT('', (30., 70., 0.));
#227 = CARTESIAN_POINT('', (30., 70., -40.));
#228 = ORIENTED_EDGE('', *, *, #195, .T.);
#229 = ORIENTED_EDGE('', *, *, #230, .F.);
#230 = EDGE_CURVE('', #231, #187, #233, .T.);
#231 = VERTEX_POINT('', #232);
#232 = CARTESIAN_POINT('', (0., 70., 0.));
#233 = B_SPLINE_CURVE_WITH_KNOTS('', 1, (#234, #235), .UNSPECIFIED., .F., .U., (2, 2), (0., 1.), .UNSPECIFIED.);
#234 = CARTESIAN_POINT('', (0., 70., 0.));
#235 = CARTESIAN_POINT('', (0., 70., -40.));
#236 = ORIENTED_EDGE('', *, *, #237, .F.);
#237 = EDGE_CURVE('', #223, #231, #238, .T.);
#238 = B_SPLINE_CURVE_WITH_KNOTS('', 1, (#239, #240), .UNSPECIFIED., .F., .U., (2, 2), (0., 1.), .UNSPECIFIED.);
#239 = CARTESIAN_POINT('', (30., 70., 0.));
#240 = CARTESIAN_POINT('', (0., 70., 0.));
#241 = B_SPLINE_SURFACE_WITH_KNOTS('', 1, 1, ((#242, #243), (#244, #245)), .UNSPECIFIED., .F., .F., .U., (2, 2), (2, 2), (0., 1.), (0., 1.), .UNSPECIFIED.);
#242 = CARTESIAN_POINT('', (30., 70., 0.));
#243 = CARTESIAN_POINT('', (0., 70., 0.));
#244 = CARTESIAN_POINT('', (30., 70., -40.));
#245 = CARTESIAN_POINT('', (0., 70., -40.));
#246 = ADVANCED_FACE('', (#247), #263, .T.);
#247 = FACE_OUTER_BOUND('', #248, .T.);
#248 = EDGE_LOOP('', (#249, #250, #251, #258));
#249 = ORIENTED_EDGE('', *, *, #230, .T.);
#250 = ORIENTED_EDGE('', *, *, #186, .T.);
#251 = ORIENTED_EDGE('', *, *, #252, .F.);
#252 = EDGE_CURVE('', #253, #189, #255, .T.);
#253 = VERTEX_POINT('', #254);
#254 = CARTESIAN_POINT('', (0., 50., 0.));
#255 = B_SPLINE_CURVE_WITH_KNOTS('', 1, (#256, #257), .UNSPECIFIED., .F., .U., (2, 2), (0., 1.), .UNSPECIFIED.);
#256 = CARTESIAN_POINT('', (0., 50., 0.));
#257 = CARTESIAN_POINT('', (0., 50., -40.));
#258 = ORIENTED_EDGE('', *, *, #259, .F.);
#259 = EDGE_CURVE('', #231, #253, #260, .T.);
#260 = B_SPLINE_CURVE_WITH_KNOTS('', 1, (#261, #262), .UNSPECIFIED., .F., .U., (2, 2), (0., 1.), .UNSPECIFIED.);
#261 = CARTESIAN_POINT('', (0., 70., 0.));
#262 = CARTESIAN_POINT('', (0., 50., 0.));
#263 = B_SPLINE_SURFACE_WITH_KNOTS('', 1, 1, ((#264, #265), (#266, #267)), .UNSPECIFIED., .F., .F., .U., (2, 2), (2, 2), (0., 1.), (0., 1.), .UNSPECIFIED.);
#264 = CARTESIAN_POINT('', (0., 70., 0.));
#265 = CARTESIAN_POINT('', (0., 50., 0.));
#266 = CARTESIAN_POINT('', (0., 70., -40.));
#267 = CARTESIAN_POINT('', (0., 50., -40.));
#268 = ADVANCED_FACE('', (#269), #285, .T.);
#269 = FACE_OUTER_BOUND('', #270, .T.);
#270 = EDGE_LOOP('', (#271, #272, #273, #280));
#271 = ORIENTED_EDGE('', *, *, #252, .T.);
#272 = ORIENTED_EDGE('', *, *, #209, .T.);
#273 = ORIENTED_EDGE('', *, *, #274, .F.);
#274 = EDGE_CURVE('', #275, #203, #277, .T.);
#275 = VERTEX_POINT('', #276);
#276 = CARTESIAN_POINT('', (30., 50., 0.));
#277 = B_SPLINE_CURVE_WITH_KNOTS('', 1, (#278, #279), .UNSPECIFIED., .F., .U., (2, 2), (0., 1.), .UNSPECIFIED.);
#278 = CARTESIAN_POINT('', (30., 50., 0.));
#279 = CARTESIAN_POINT('', (30., 50., -40.));
#280 = ORIENTED_EDGE('', *, *, #281, .F.);
#281 = EDGE_CURVE('', #253, #275, #282, .T.);
#282 = B_SPLINE_CURVE_WITH_KNOTS('', 1, (#283, #284), .UNSPECIFIED., .F., .U., (2, 2), (0., 1.), .UNSPECIFIED.);
#283 = CARTESIAN_POINT('', (0., 50., 0.));
#284 = CARTESIAN_POINT('', (30., 50., 0.));
#285 = B_SPLINE_SURFACE_WITH_KNOTS('', 1, 1, ((#286, #287), (#288, #289)), .UNSPECIFIED., .F., .F., .U., (2, 2), (2, 2), (0., 1.), (0., 1.), .UNSPECIFIED.);
#286 = CARTESIAN_POINT('', (0., 50., 0.));
#287 = CARTESIAN_POINT('', (30., 50., 0.));
#288 = CARTESIAN_POINT('', (0., 50., -40.));
#289 = CARTESIAN_POINT('', (30., 50., -40.));
#290 = ADVANCED_FACE('', (#291), #301, .T.);
#291 = FACE_OUTER_BOUND('', #292, .T.);
#292 = EDGE_LOOP('', (#293, #294, #295, #296));
#293 = ORIENTED_EDGE('', *, *, #274, .T.);
#294 = ORIENTED_EDGE('', *, *, #202, .T.);
#295 = ORIENTED_EDGE('', *, *, #222, .F.);
#296 = ORIENTED_EDGE('', *, *, #297, .F.);
#297 = EDGE_CURVE('', #275, #223, #298, .T.);
#298 = B_SPLINE_CURVE_WITH_KNOTS('', 1, (#299, #300), .UNSPECIFIED., .F., .U., (2, 2), (0., 1.), .UNSPECIFIED.);
#299 = CARTESIAN_POINT('', (30., 50., 0.));
#300 = CARTESIAN_POINT('', (30., 70., 0.));
#301 = B_SPLINE_SURFACE_WITH_KNOTS('', 1, 1, ((#302, #303), (#304, #305)), .UNSPECIFIED., .F., .F., .U., (2, 2), (2, 2), (0., 1.), (0., 1.), .UNSPECIFIED.);
#302 = CARTESIAN_POINT('', (30., 50., 0.));
#303 = CARTESIAN_POINT('', (30., 70., 0.));
#304 = CARTESIAN_POINT('', (30., 50., -40.));
#305 = CARTESIAN_POINT('', (30., 70., -40.));
#306 = ADVANCED_FACE('', (#307), #313, .T.);
#307 = FACE_OUTER_BOUND('', #308, .T.);
#308 = EDGE_LOOP('', (#309, #310, #311, #312));
#309 = ORIENTED_EDGE('', *, *, #259, .T.);
#310 = ORIENTED_EDGE('', *, *, #281, .T.);
#311 = ORIENTED_EDGE('', *, *, #297, .T.);
#312 = ORIENTED_EDGE('', *, *, #237, .T.);
#313 = B_SPLINE_SURFACE_WITH_KNOTS('', 1, 1, ((#314, #315), (#316, #317)), .UNSPECIFIED., .F., .F., .U., (2, 2), (2, 2), (0., 1.), (0., 1.), .UNSPECIFIED.);
#314 = CARTESIAN_POINT('', (34.8305320150519, 40.1694679849481, 0.));
#315 = CARTESIAN_POINT('', (-4.83053201505194, 40.1694679849481, 0.));
#316 = CARTESIAN_POINT('', (34.8305320150519, 79.8305320150519, 0.));
#317 = CARTESIAN_POINT('', (-4.83053201505194, 79.8305320150519, 0.));
#318 = PRESENTATION_STYLE_ASSIGNMENT((#319));
#319 = SURFACE_STYLE_USAGE(.POSITIVE., #320);
#320 = SURFACE_SIDE_STYLE('', (#321));
#321 = SURFACE_STYLE_FILL_AREA(#322);
#322 = FILL_AREA_STYLE('', (#323));
#323 = FILL_AREA_STYLE_COLOUR('', #324);
#324 = COLOUR_RGB('', 0.50196078431373, 0.50196078431373, 0.50196078431373);
#325 = STYLED_ITEM('', (#318), #180);
#326 = CARTESIAN_POINT('Origin', (0., 0., 0.));
#327 = GEOMETRIC_SET('', (#326));
#328 = (
   GEOMETRIC_REPRESENTATION_CONTEXT (3)
   GLOBAL_UNCERTAINTY_ASSIGNED_CONTEXT ((#330))
   GLOBAL_UNIT_ASSIGNED_CONTEXT ((#329, #331, #332))
   REPRESENTATION_CONTEXT ('', '3D')
);
#329 = (
   LENGTH_UNIT ()
   NAMED_UNIT (*)
   SI_UNIT (.MILLI., .METRE.)
);
#330 = UNCERTAINTY_MEASURE_WITH_UNIT(LENGTH_MEASURE(1.E-6), #329, 'DISTANCE_ACCURACY_VALUE', '');
#331 = (
   NAMED_UNIT (*)
   SI_UNIT ($, .STERADIAN.)
   SOLID_ANGLE_UNIT ()
);
#332 = (
   NAMED_UNIT (*)
   PLANE_ANGLE_UNIT ()
   SI_UNIT ($, .RADIAN.)
);
#333 = SHAPE_REPRESENTATION('', (#348), #328);
#334 = PRODUCT_DEFINITION_SHAPE('', '', #335);
#335 = PRODUCT_DEFINITION('', '', #338, #342);
#336 = APPLICATION_CONTEXT('configuration controlled 3D designs of mechanical parts and assemblies');
#337 = APPLICATION_PROTOCOL_DEFINITION('International Standard', 'automotive_design', 2002, #336);
#338 = PRODUCT_DEFINITION_FORMATION_WITH_SPECIFIED_SOURCE('', '', #339, .NOT_KNOWN.);
#339 = PRODUCT('DirTest', 'DirTest', '', (#340));
#340 = PRODUCT_CONTEXT('', #336, 'mechanical');
#341 = PRODUCT_RELATED_PRODUCT_CATEGORY('detail', '', (#339));
#342 = PRODUCT_DEFINITION_CONTEXT('part definition', #336, 'design');
#343 = SHAPE_DEFINITION_REPRESENTATION(#334, #333);
#344 = SHAPE_REPRESENTATION_RELATIONSHIP('', '', #333, #345);
#345 = SHAPE_REPRESENTATION('', (#327), #328);
#346 = SHAPE_REPRESENTATION_RELATIONSHIP('', '', #333, #347);
#347 = ADVANCED_BREP_SHAPE_REPRESENTATION('', (#1, #18, #34, #180), #328);
#348 = AXIS2_PLACEMENT_3D('', #349, #350, #351);
#349 = CARTESIAN_POINT('', (0., 0., 0.));
#350 = DIRECTION('', (0., 0., 1.));
#351 = DIRECTION('', (1., 0., 0.));
ENDSEC;
END-ISO-10303-21;
