ISO-10303-21;
HEADER;
FILE_DESCRIPTION(('STEP'), '1');
FILE_NAME('DirLenTest', '2026-04-14T12:43:15', (''), (''), 'Express 3.1.2.0', 'Express Tool', 'Unknown');
FILE_SCHEMA(('AUTOMOTIVE_DESIGN'));
ENDSEC;

DATA;
#1 = MANIFOLD_SOLID_BREP('Solid', #2);
#2 = CLOSED_SHELL('', (#3, #39, #67, #95, #115, #127));
#3 = ADVANCED_FACE('', (#4), #34, .T.);
#4 = FACE_OUTER_BOUND('', #5, .T.);
#5 = EDGE_LOOP('', (#6, #15, #22, #29));
#6 = ORIENTED_EDGE('', *, *, #7, .T.);
#7 = EDGE_CURVE('', #8, #10, #12, .T.);
#8 = VERTEX_POINT('', #9);
#9 = CARTESIAN_POINT('', (-17.5, 2.5, -2.5));
#10 = VERTEX_POINT('', #11);
#11 = CARTESIAN_POINT('', (-17.5, 2.5, 2.5));
#12 = B_SPLINE_CURVE_WITH_KNOTS('', 1, (#13, #14), .UNSPECIFIED., .F., .U., (2, 2), (0., 5.), .UNSPECIFIED.);
#13 = CARTESIAN_POINT('', (-17.5, 2.5, -2.5));
#14 = CARTESIAN_POINT('', (-17.5, 2.5, 2.5));
#15 = ORIENTED_EDGE('', *, *, #16, .T.);
#16 = EDGE_CURVE('', #10, #17, #19, .T.);
#17 = VERTEX_POINT('', #18);
#18 = CARTESIAN_POINT('', (-12.5, 2.5, 2.5));
#19 = B_SPLINE_CURVE_WITH_KNOTS('', 1, (#20, #21), .UNSPECIFIED., .F., .U., (2, 2), (0., 5.), .UNSPECIFIED.);
#20 = CARTESIAN_POINT('', (-17.5, 2.5, 2.5));
#21 = CARTESIAN_POINT('', (-12.5, 2.5, 2.5));
#22 = ORIENTED_EDGE('', *, *, #23, .F.);
#23 = EDGE_CURVE('', #24, #17, #26, .T.);
#24 = VERTEX_POINT('', #25);
#25 = CARTESIAN_POINT('', (-12.5, 2.5, -2.5));
#26 = B_SPLINE_CURVE_WITH_KNOTS('', 1, (#27, #28), .UNSPECIFIED., .F., .U., (2, 2), (0., 5.), .UNSPECIFIED.);
#27 = CARTESIAN_POINT('', (-12.5, 2.5, -2.5));
#28 = CARTESIAN_POINT('', (-12.5, 2.5, 2.5));
#29 = ORIENTED_EDGE('', *, *, #30, .F.);
#30 = EDGE_CURVE('', #8, #24, #31, .T.);
#31 = B_SPLINE_CURVE_WITH_KNOTS('', 1, (#32, #33), .UNSPECIFIED., .F., .U., (2, 2), (0., 5.), .UNSPECIFIED.);
#32 = CARTESIAN_POINT('', (-17.5, 2.5, -2.5));
#33 = CARTESIAN_POINT('', (-12.5, 2.5, -2.5));
#34 = B_SPLINE_SURFACE_WITH_KNOTS('', 1, 1, ((#35, #36), (#37, #38)), .UNSPECIFIED., .F., .F., .U., (2, 2), (2, 2), (0., 5.), (0., 5.), .UNSPECIFIED.);
#35 = CARTESIAN_POINT('', (-17.5, 2.5, -2.5));
#36 = CARTESIAN_POINT('', (-12.5, 2.5, -2.5));
#37 = CARTESIAN_POINT('', (-17.5, 2.5, 2.5));
#38 = CARTESIAN_POINT('', (-12.5, 2.5, 2.5));
#39 = ADVANCED_FACE('', (#40), #62, .T.);
#40 = FACE_OUTER_BOUND('', #41, .T.);
#41 = EDGE_LOOP('', (#42, #49, #56, #61));
#42 = ORIENTED_EDGE('', *, *, #43, .F.);
#43 = EDGE_CURVE('', #44, #10, #46, .T.);
#44 = VERTEX_POINT('', #45);
#45 = CARTESIAN_POINT('', (-17.5, -2.5, 2.5));
#46 = B_SPLINE_CURVE_WITH_KNOTS('', 1, (#47, #48), .UNSPECIFIED., .F., .U., (2, 2), (0., 5.), .UNSPECIFIED.);
#47 = CARTESIAN_POINT('', (-17.5, -2.5, 2.5));
#48 = CARTESIAN_POINT('', (-17.5, 2.5, 2.5));
#49 = ORIENTED_EDGE('', *, *, #50, .T.);
#50 = EDGE_CURVE('', #44, #51, #53, .T.);
#51 = VERTEX_POINT('', #52);
#52 = CARTESIAN_POINT('', (-12.5, -2.5, 2.5));
#53 = B_SPLINE_CURVE_WITH_KNOTS('', 1, (#54, #55), .UNSPECIFIED., .F., .U., (2, 2), (0., 5.), .UNSPECIFIED.);
#54 = CARTESIAN_POINT('', (-17.5, -2.5, 2.5));
#55 = CARTESIAN_POINT('', (-12.5, -2.5, 2.5));
#56 = ORIENTED_EDGE('', *, *, #57, .T.);
#57 = EDGE_CURVE('', #51, #17, #58, .T.);
#58 = B_SPLINE_CURVE_WITH_KNOTS('', 1, (#59, #60), .UNSPECIFIED., .F., .U., (2, 2), (0., 5.), .UNSPECIFIED.);
#59 = CARTESIAN_POINT('', (-12.5, -2.5, 2.5));
#60 = CARTESIAN_POINT('', (-12.5, 2.5, 2.5));
#61 = ORIENTED_EDGE('', *, *, #16, .F.);
#62 = B_SPLINE_SURFACE_WITH_KNOTS('', 1, 1, ((#63, #64), (#65, #66)), .UNSPECIFIED., .F., .F., .U., (2, 2), (2, 2), (0., 5.), (0., 5.), .UNSPECIFIED.);
#63 = CARTESIAN_POINT('', (-17.5, -2.5, 2.5));
#64 = CARTESIAN_POINT('', (-17.5, 2.5, 2.5));
#65 = CARTESIAN_POINT('', (-12.5, -2.5, 2.5));
#66 = CARTESIAN_POINT('', (-12.5, 2.5, 2.5));
#67 = ADVANCED_FACE('', (#68), #90, .T.);
#68 = FACE_OUTER_BOUND('', #69, .T.);
#69 = EDGE_LOOP('', (#70, #77, #84, #89));
#70 = ORIENTED_EDGE('', *, *, #71, .F.);
#71 = EDGE_CURVE('', #72, #44, #74, .T.);
#72 = VERTEX_POINT('', #73);
#73 = CARTESIAN_POINT('', (-17.5, -2.5, -2.5));
#74 = B_SPLINE_CURVE_WITH_KNOTS('', 1, (#75, #76), .UNSPECIFIED., .F., .U., (2, 2), (0., 5.), .UNSPECIFIED.);
#75 = CARTESIAN_POINT('', (-17.5, -2.5, -2.5));
#76 = CARTESIAN_POINT('', (-17.5, -2.5, 2.5));
#77 = ORIENTED_EDGE('', *, *, #78, .T.);
#78 = EDGE_CURVE('', #72, #79, #81, .T.);
#79 = VERTEX_POINT('', #80);
#80 = CARTESIAN_POINT('', (-12.5, -2.5, -2.5));
#81 = B_SPLINE_CURVE_WITH_KNOTS('', 1, (#82, #83), .UNSPECIFIED., .F., .U., (2, 2), (0., 5.), .UNSPECIFIED.);
#82 = CARTESIAN_POINT('', (-17.5, -2.5, -2.5));
#83 = CARTESIAN_POINT('', (-12.5, -2.5, -2.5));
#84 = ORIENTED_EDGE('', *, *, #85, .T.);
#85 = EDGE_CURVE('', #79, #51, #86, .T.);
#86 = B_SPLINE_CURVE_WITH_KNOTS('', 1, (#87, #88), .UNSPECIFIED., .F., .U., (2, 2), (0., 5.), .UNSPECIFIED.);
#87 = CARTESIAN_POINT('', (-12.5, -2.5, -2.5));
#88 = CARTESIAN_POINT('', (-12.5, -2.5, 2.5));
#89 = ORIENTED_EDGE('', *, *, #50, .F.);
#90 = B_SPLINE_SURFACE_WITH_KNOTS('', 1, 1, ((#91, #92), (#93, #94)), .UNSPECIFIED., .F., .F., .U., (2, 2), (2, 2), (0., 5.), (0., 5.), .UNSPECIFIED.);
#91 = CARTESIAN_POINT('', (-17.5, -2.5, -2.5));
#92 = CARTESIAN_POINT('', (-17.5, -2.5, 2.5));
#93 = CARTESIAN_POINT('', (-12.5, -2.5, -2.5));
#94 = CARTESIAN_POINT('', (-12.5, -2.5, 2.5));
#95 = ADVANCED_FACE('', (#96), #110, .T.);
#96 = FACE_OUTER_BOUND('', #97, .T.);
#97 = EDGE_LOOP('', (#98, #103, #104, #109));
#98 = ORIENTED_EDGE('', *, *, #99, .T.);
#99 = EDGE_CURVE('', #72, #8, #100, .T.);
#100 = B_SPLINE_CURVE_WITH_KNOTS('', 1, (#101, #102), .UNSPECIFIED., .F., .U., (2, 2), (0., 5.), .UNSPECIFIED.);
#101 = CARTESIAN_POINT('', (-17.5, -2.5, -2.5));
#102 = CARTESIAN_POINT('', (-17.5, 2.5, -2.5));
#103 = ORIENTED_EDGE('', *, *, #30, .T.);
#104 = ORIENTED_EDGE('', *, *, #105, .F.);
#105 = EDGE_CURVE('', #79, #24, #106, .T.);
#106 = B_SPLINE_CURVE_WITH_KNOTS('', 1, (#107, #108), .UNSPECIFIED., .F., .U., (2, 2), (0., 5.), .UNSPECIFIED.);
#107 = CARTESIAN_POINT('', (-12.5, -2.5, -2.5));
#108 = CARTESIAN_POINT('', (-12.5, 2.5, -2.5));
#109 = ORIENTED_EDGE('', *, *, #78, .F.);
#110 = B_SPLINE_SURFACE_WITH_KNOTS('', 1, 1, ((#111, #112), (#113, #114)), .UNSPECIFIED., .F., .F., .U., (2, 2), (2, 2), (0., 5.), (0., 5.), .UNSPECIFIED.);
#111 = CARTESIAN_POINT('', (-17.5, -2.5, -2.5));
#112 = CARTESIAN_POINT('', (-12.5, -2.5, -2.5));
#113 = CARTESIAN_POINT('', (-17.5, 2.5, -2.5));
#114 = CARTESIAN_POINT('', (-12.5, 2.5, -2.5));
#115 = ADVANCED_FACE('', (#116), #122, .T.);
#116 = FACE_OUTER_BOUND('', #117, .T.);
#117 = EDGE_LOOP('', (#118, #119, #120, #121));
#118 = ORIENTED_EDGE('', *, *, #85, .F.);
#119 = ORIENTED_EDGE('', *, *, #105, .T.);
#120 = ORIENTED_EDGE('', *, *, #23, .T.);
#121 = ORIENTED_EDGE('', *, *, #57, .F.);
#122 = B_SPLINE_SURFACE_WITH_KNOTS('', 1, 1, ((#123, #124), (#125, #126)), .UNSPECIFIED., .F., .F., .U., (2, 2), (2, 2), (0., 5.), (0., 5.), .UNSPECIFIED.);
#123 = CARTESIAN_POINT('', (-12.5, -2.5, -2.5));
#124 = CARTESIAN_POINT('', (-12.5, -2.5, 2.5));
#125 = CARTESIAN_POINT('', (-12.5, 2.5, -2.5));
#126 = CARTESIAN_POINT('', (-12.5, 2.5, 2.5));
#127 = ADVANCED_FACE('', (#128), #134, .T.);
#128 = FACE_OUTER_BOUND('', #129, .T.);
#129 = EDGE_LOOP('', (#130, #131, #132, #133));
#130 = ORIENTED_EDGE('', *, *, #71, .T.);
#131 = ORIENTED_EDGE('', *, *, #43, .T.);
#132 = ORIENTED_EDGE('', *, *, #7, .F.);
#133 = ORIENTED_EDGE('', *, *, #99, .F.);
#134 = B_SPLINE_SURFACE_WITH_KNOTS('', 1, 1, ((#135, #136), (#137, #138)), .UNSPECIFIED., .F., .F., .U., (2, 2), (2, 2), (0., 5.), (0., 5.), .UNSPECIFIED.);
#135 = CARTESIAN_POINT('', (-17.5, -2.5, -2.5));
#136 = CARTESIAN_POINT('', (-17.5, 2.5, -2.5));
#137 = CARTESIAN_POINT('', (-17.5, -2.5, 2.5));
#138 = CARTESIAN_POINT('', (-17.5, 2.5, 2.5));
#139 = DRAUGHTING_MODEL('', (#147, #293, #439, #585), #588);
#140 = PRESENTATION_STYLE_ASSIGNMENT((#141));
#141 = SURFACE_STYLE_USAGE(.POSITIVE., #142);
#142 = SURFACE_SIDE_STYLE('', (#143));
#143 = SURFACE_STYLE_FILL_AREA(#144);
#144 = FILL_AREA_STYLE('', (#145));
#145 = FILL_AREA_STYLE_COLOUR('', #146);
#146 = COLOUR_RGB('', 0.50196078431373, 0.50196078431373, 0.50196078431373);
#147 = STYLED_ITEM('', (#140), #1);
#148 = MANIFOLD_SOLID_BREP('Solid0', #149);
#149 = CLOSED_SHELL('', (#150, #186, #222, #242, #258, #274));
#150 = ADVANCED_FACE('', (#151), #181, .T.);
#151 = FACE_OUTER_BOUND('', #152, .T.);
#152 = EDGE_LOOP('', (#153, #162, #169, #176));
#153 = ORIENTED_EDGE('', *, *, #154, .T.);
#154 = EDGE_CURVE('', #155, #157, #159, .T.);
#155 = VERTEX_POINT('', #156);
#156 = CARTESIAN_POINT('', (0., 20., 40.));
#157 = VERTEX_POINT('', #158);
#158 = CARTESIAN_POINT('', (0., 0., 40.));
#159 = B_SPLINE_CURVE_WITH_KNOTS('', 1, (#160, #161), .UNSPECIFIED., .F., .U., (2, 2), (0., 1.), .UNSPECIFIED.);
#160 = CARTESIAN_POINT('', (0., 20., 40.));
#161 = CARTESIAN_POINT('', (0., 0., 40.));
#162 = ORIENTED_EDGE('', *, *, #163, .T.);
#163 = EDGE_CURVE('', #157, #164, #166, .T.);
#164 = VERTEX_POINT('', #165);
#165 = CARTESIAN_POINT('', (20., 0., 40.));
#166 = B_SPLINE_CURVE_WITH_KNOTS('', 1, (#167, #168), .UNSPECIFIED., .F., .U., (2, 2), (0., 1.), .UNSPECIFIED.);
#167 = CARTESIAN_POINT('', (0., 0., 40.));
#168 = CARTESIAN_POINT('', (20., 0., 40.));
#169 = ORIENTED_EDGE('', *, *, #170, .T.);
#170 = EDGE_CURVE('', #164, #171, #173, .T.);
#171 = VERTEX_POINT('', #172);
#172 = CARTESIAN_POINT('', (20., 20., 40.));
#173 = B_SPLINE_CURVE_WITH_KNOTS('', 1, (#174, #175), .UNSPECIFIED., .F., .U., (2, 2), (0., 1.), .UNSPECIFIED.);
#174 = CARTESIAN_POINT('', (20., 0., 40.));
#175 = CARTESIAN_POINT('', (20., 20., 40.));
#176 = ORIENTED_EDGE('', *, *, #177, .T.);
#177 = EDGE_CURVE('', #171, #155, #178, .T.);
#178 = B_SPLINE_CURVE_WITH_KNOTS('', 1, (#179, #180), .UNSPECIFIED., .F., .U., (2, 2), (0., 1.), .UNSPECIFIED.);
#179 = CARTESIAN_POINT('', (20., 20., 40.));
#180 = CARTESIAN_POINT('', (0., 20., 40.));
#181 = B_SPLINE_SURFACE_WITH_KNOTS('', 1, 1, ((#182, #183), (#184, #185)), .UNSPECIFIED., .F., .F., .U., (2, 2), (2, 2), (0., 1.), (0., 1.), .UNSPECIFIED.);
#182 = CARTESIAN_POINT('', (25.556349186104, -5.55634918610405, 40.));
#183 = CARTESIAN_POINT('', (-5.55634918610405, -5.55634918610405, 40.));
#184 = CARTESIAN_POINT('', (25.556349186104, 25.556349186104, 40.));
#185 = CARTESIAN_POINT('', (-5.55634918610405, 25.556349186104, 40.));
#186 = ADVANCED_FACE('', (#187), #217, .T.);
#187 = FACE_OUTER_BOUND('', #188, .T.);
#188 = EDGE_LOOP('', (#189, #198, #205, #212));
#189 = ORIENTED_EDGE('', *, *, #190, .F.);
#190 = EDGE_CURVE('', #191, #193, #195, .T.);
#191 = VERTEX_POINT('', #192);
#192 = CARTESIAN_POINT('', (0., 20., 0.));
#193 = VERTEX_POINT('', #194);
#194 = CARTESIAN_POINT('', (0., 0., 0.));
#195 = B_SPLINE_CURVE_WITH_KNOTS('', 1, (#196, #197), .UNSPECIFIED., .F., .U., (2, 2), (0., 1.), .UNSPECIFIED.);
#196 = CARTESIAN_POINT('', (0., 20., 0.));
#197 = CARTESIAN_POINT('', (0., 0., 0.));
#198 = ORIENTED_EDGE('', *, *, #199, .F.);
#199 = EDGE_CURVE('', #200, #191, #202, .T.);
#200 = VERTEX_POINT('', #201);
#201 = CARTESIAN_POINT('', (20., 20., 0.));
#202 = B_SPLINE_CURVE_WITH_KNOTS('', 1, (#203, #204), .UNSPECIFIED., .F., .U., (2, 2), (0., 1.), .UNSPECIFIED.);
#203 = CARTESIAN_POINT('', (20., 20., 0.));
#204 = CARTESIAN_POINT('', (0., 20., 0.));
#205 = ORIENTED_EDGE('', *, *, #206, .F.);
#206 = EDGE_CURVE('', #207, #200, #209, .T.);
#207 = VERTEX_POINT('', #208);
#208 = CARTESIAN_POINT('', (20., 0., 0.));
#209 = B_SPLINE_CURVE_WITH_KNOTS('', 1, (#210, #211), .UNSPECIFIED., .F., .U., (2, 2), (0., 1.), .UNSPECIFIED.);
#210 = CARTESIAN_POINT('', (20., 0., 0.));
#211 = CARTESIAN_POINT('', (20., 20., 0.));
#212 = ORIENTED_EDGE('', *, *, #213, .F.);
#213 = EDGE_CURVE('', #193, #207, #214, .T.);
#214 = B_SPLINE_CURVE_WITH_KNOTS('', 1, (#215, #216), .UNSPECIFIED., .F., .U., (2, 2), (0., 1.), .UNSPECIFIED.);
#215 = CARTESIAN_POINT('', (0., 0., 0.));
#216 = CARTESIAN_POINT('', (20., 0., 0.));
#217 = B_SPLINE_SURFACE_WITH_KNOTS('', 1, 1, ((#218, #219), (#220, #221)), .UNSPECIFIED., .F., .F., .U., (2, 2), (2, 2), (0., 1.), (0., 1.), .UNSPECIFIED.);
#218 = CARTESIAN_POINT('', (25.556349186104, -5.55634918610405, 0.));
#219 = CARTESIAN_POINT('', (25.556349186104, 25.556349186104, 0.));
#220 = CARTESIAN_POINT('', (-5.55634918610405, -5.55634918610405, 0.));
#221 = CARTESIAN_POINT('', (-5.55634918610405, 25.556349186104, 0.));
#222 = ADVANCED_FACE('', (#223), #237, .T.);
#223 = FACE_OUTER_BOUND('', #224, .T.);
#224 = EDGE_LOOP('', (#225, #230, #231, #236));
#225 = ORIENTED_EDGE('', *, *, #226, .F.);
#226 = EDGE_CURVE('', #191, #155, #227, .T.);
#227 = B_SPLINE_CURVE_WITH_KNOTS('', 1, (#228, #229), .UNSPECIFIED., .F., .U., (2, 2), (0., 1.), .UNSPECIFIED.);
#228 = CARTESIAN_POINT('', (0., 20., 0.));
#229 = CARTESIAN_POINT('', (0., 20., 40.));
#230 = ORIENTED_EDGE('', *, *, #190, .T.);
#231 = ORIENTED_EDGE('', *, *, #232, .T.);
#232 = EDGE_CURVE('', #193, #157, #233, .T.);
#233 = B_SPLINE_CURVE_WITH_KNOTS('', 1, (#234, #235), .UNSPECIFIED., .F., .U., (2, 2), (0., 1.), .UNSPECIFIED.);
#234 = CARTESIAN_POINT('', (0., 0., 0.));
#235 = CARTESIAN_POINT('', (0., 0., 40.));
#236 = ORIENTED_EDGE('', *, *, #154, .F.);
#237 = B_SPLINE_SURFACE_WITH_KNOTS('', 1, 1, ((#238, #239), (#240, #241)), .UNSPECIFIED., .F., .F., .U., (2, 2), (2, 2), (0., 1.), (0., 1.), .UNSPECIFIED.);
#238 = CARTESIAN_POINT('', (0., 20., 0.));
#239 = CARTESIAN_POINT('', (0., 20., 40.));
#240 = CARTESIAN_POINT('', (0., 0., 0.));
#241 = CARTESIAN_POINT('', (0., 0., 40.));
#242 = ADVANCED_FACE('', (#243), #253, .T.);
#243 = FACE_OUTER_BOUND('', #244, .T.);
#244 = EDGE_LOOP('', (#245, #246, #247, #252));
#245 = ORIENTED_EDGE('', *, *, #232, .F.);
#246 = ORIENTED_EDGE('', *, *, #213, .T.);
#247 = ORIENTED_EDGE('', *, *, #248, .T.);
#248 = EDGE_CURVE('', #207, #164, #249, .T.);
#249 = B_SPLINE_CURVE_WITH_KNOTS('', 1, (#250, #251), .UNSPECIFIED., .F., .U., (2, 2), (0., 1.), .UNSPECIFIED.);
#250 = CARTESIAN_POINT('', (20., 0., 0.));
#251 = CARTESIAN_POINT('', (20., 0., 40.));
#252 = ORIENTED_EDGE('', *, *, #163, .F.);
#253 = B_SPLINE_SURFACE_WITH_KNOTS('', 1, 1, ((#254, #255), (#256, #257)), .UNSPECIFIED., .F., .F., .U., (2, 2), (2, 2), (0., 1.), (0., 1.), .UNSPECIFIED.);
#254 = CARTESIAN_POINT('', (0., 0., 0.));
#255 = CARTESIAN_POINT('', (0., 0., 40.));
#256 = CARTESIAN_POINT('', (20., 0., 0.));
#257 = CARTESIAN_POINT('', (20., 0., 40.));
#258 = ADVANCED_FACE('', (#259), #269, .T.);
#259 = FACE_OUTER_BOUND('', #260, .T.);
#260 = EDGE_LOOP('', (#261, #266, #267, #268));
#261 = ORIENTED_EDGE('', *, *, #262, .F.);
#262 = EDGE_CURVE('', #200, #171, #263, .T.);
#263 = B_SPLINE_CURVE_WITH_KNOTS('', 1, (#264, #265), .UNSPECIFIED., .F., .U., (2, 2), (0., 1.), .UNSPECIFIED.);
#264 = CARTESIAN_POINT('', (20., 20., 0.));
#265 = CARTESIAN_POINT('', (20., 20., 40.));
#266 = ORIENTED_EDGE('', *, *, #199, .T.);
#267 = ORIENTED_EDGE('', *, *, #226, .T.);
#268 = ORIENTED_EDGE('', *, *, #177, .F.);
#269 = B_SPLINE_SURFACE_WITH_KNOTS('', 1, 1, ((#270, #271), (#272, #273)), .UNSPECIFIED., .F., .F., .U., (2, 2), (2, 2), (0., 1.), (0., 1.), .UNSPECIFIED.);
#270 = CARTESIAN_POINT('', (20., 20., 0.));
#271 = CARTESIAN_POINT('', (20., 20., 40.));
#272 = CARTESIAN_POINT('', (0., 20., 0.));
#273 = CARTESIAN_POINT('', (0., 20., 40.));
#274 = ADVANCED_FACE('', (#275), #281, .T.);
#275 = FACE_OUTER_BOUND('', #276, .T.);
#276 = EDGE_LOOP('', (#277, #278, #279, #280));
#277 = ORIENTED_EDGE('', *, *, #248, .F.);
#278 = ORIENTED_EDGE('', *, *, #206, .T.);
#279 = ORIENTED_EDGE('', *, *, #262, .T.);
#280 = ORIENTED_EDGE('', *, *, #170, .F.);
#281 = B_SPLINE_SURFACE_WITH_KNOTS('', 1, 1, ((#282, #283), (#284, #285)), .UNSPECIFIED., .F., .F., .U., (2, 2), (2, 2), (0., 1.), (0., 1.), .UNSPECIFIED.);
#282 = CARTESIAN_POINT('', (20., 0., 0.));
#283 = CARTESIAN_POINT('', (20., 0., 40.));
#284 = CARTESIAN_POINT('', (20., 20., 0.));
#285 = CARTESIAN_POINT('', (20., 20., 40.));
#286 = PRESENTATION_STYLE_ASSIGNMENT((#287));
#287 = SURFACE_STYLE_USAGE(.POSITIVE., #288);
#288 = SURFACE_SIDE_STYLE('', (#289));
#289 = SURFACE_STYLE_FILL_AREA(#290);
#290 = FILL_AREA_STYLE('', (#291));
#291 = FILL_AREA_STYLE_COLOUR('', #292);
#292 = COLOUR_RGB('', 0.50196078431373, 0.50196078431373, 0.50196078431373);
#293 = STYLED_ITEM('', (#286), #148);
#294 = MANIFOLD_SOLID_BREP('Solid1', #295);
#295 = CLOSED_SHELL('', (#296, #332, #368, #388, #404, #420));
#296 = ADVANCED_FACE('', (#297), #327, .T.);
#297 = FACE_OUTER_BOUND('', #298, .T.);
#298 = EDGE_LOOP('', (#299, #308, #315, #322));
#299 = ORIENTED_EDGE('', *, *, #300, .T.);
#300 = EDGE_CURVE('', #301, #303, #305, .T.);
#301 = VERTEX_POINT('', #302);
#302 = CARTESIAN_POINT('', (40., 20., 120.));
#303 = VERTEX_POINT('', #304);
#304 = CARTESIAN_POINT('', (40., 0., 120.));
#305 = B_SPLINE_CURVE_WITH_KNOTS('', 1, (#306, #307), .UNSPECIFIED., .F., .U., (2, 2), (0., 1.), .UNSPECIFIED.);
#306 = CARTESIAN_POINT('', (40., 20., 120.));
#307 = CARTESIAN_POINT('', (40., 0., 120.));
#308 = ORIENTED_EDGE('', *, *, #309, .T.);
#309 = EDGE_CURVE('', #303, #310, #312, .T.);
#310 = VERTEX_POINT('', #311);
#311 = CARTESIAN_POINT('', (60., 0., 120.));
#312 = B_SPLINE_CURVE_WITH_KNOTS('', 1, (#313, #314), .UNSPECIFIED., .F., .U., (2, 2), (0., 1.), .UNSPECIFIED.);
#313 = CARTESIAN_POINT('', (40., 0., 120.));
#314 = CARTESIAN_POINT('', (60., 0., 120.));
#315 = ORIENTED_EDGE('', *, *, #316, .T.);
#316 = EDGE_CURVE('', #310, #317, #319, .T.);
#317 = VERTEX_POINT('', #318);
#318 = CARTESIAN_POINT('', (60., 20., 120.));
#319 = B_SPLINE_CURVE_WITH_KNOTS('', 1, (#320, #321), .UNSPECIFIED., .F., .U., (2, 2), (0., 1.), .UNSPECIFIED.);
#320 = CARTESIAN_POINT('', (60., 0., 120.));
#321 = CARTESIAN_POINT('', (60., 20., 120.));
#322 = ORIENTED_EDGE('', *, *, #323, .T.);
#323 = EDGE_CURVE('', #317, #301, #324, .T.);
#324 = B_SPLINE_CURVE_WITH_KNOTS('', 1, (#325, #326), .UNSPECIFIED., .F., .U., (2, 2), (0., 1.), .UNSPECIFIED.);
#325 = CARTESIAN_POINT('', (60., 20., 120.));
#326 = CARTESIAN_POINT('', (40., 20., 120.));
#327 = B_SPLINE_SURFACE_WITH_KNOTS('', 1, 1, ((#328, #329), (#330, #331)), .UNSPECIFIED., .F., .F., .U., (2, 2), (2, 2), (0., 1.), (0., 1.), .UNSPECIFIED.);
#328 = CARTESIAN_POINT('', (65.556349186104, -5.55634918610405, 120.));
#329 = CARTESIAN_POINT('', (34.443650813896, -5.55634918610405, 120.));
#330 = CARTESIAN_POINT('', (65.556349186104, 25.556349186104, 120.));
#331 = CARTESIAN_POINT('', (34.443650813896, 25.556349186104, 120.));
#332 = ADVANCED_FACE('', (#333), #363, .T.);
#333 = FACE_OUTER_BOUND('', #334, .T.);
#334 = EDGE_LOOP('', (#335, #344, #351, #358));
#335 = ORIENTED_EDGE('', *, *, #336, .F.);
#336 = EDGE_CURVE('', #337, #339, #341, .T.);
#337 = VERTEX_POINT('', #338);
#338 = CARTESIAN_POINT('', (40., 20., 0.));
#339 = VERTEX_POINT('', #340);
#340 = CARTESIAN_POINT('', (40., 0., 0.));
#341 = B_SPLINE_CURVE_WITH_KNOTS('', 1, (#342, #343), .UNSPECIFIED., .F., .U., (2, 2), (0., 1.), .UNSPECIFIED.);
#342 = CARTESIAN_POINT('', (40., 20., 0.));
#343 = CARTESIAN_POINT('', (40., 0., 0.));
#344 = ORIENTED_EDGE('', *, *, #345, .F.);
#345 = EDGE_CURVE('', #346, #337, #348, .T.);
#346 = VERTEX_POINT('', #347);
#347 = CARTESIAN_POINT('', (60., 20., 0.));
#348 = B_SPLINE_CURVE_WITH_KNOTS('', 1, (#349, #350), .UNSPECIFIED., .F., .U., (2, 2), (0., 1.), .UNSPECIFIED.);
#349 = CARTESIAN_POINT('', (60., 20., 0.));
#350 = CARTESIAN_POINT('', (40., 20., 0.));
#351 = ORIENTED_EDGE('', *, *, #352, .F.);
#352 = EDGE_CURVE('', #353, #346, #355, .T.);
#353 = VERTEX_POINT('', #354);
#354 = CARTESIAN_POINT('', (60., 0., 0.));
#355 = B_SPLINE_CURVE_WITH_KNOTS('', 1, (#356, #357), .UNSPECIFIED., .F., .U., (2, 2), (0., 1.), .UNSPECIFIED.);
#356 = CARTESIAN_POINT('', (60., 0., 0.));
#357 = CARTESIAN_POINT('', (60., 20., 0.));
#358 = ORIENTED_EDGE('', *, *, #359, .F.);
#359 = EDGE_CURVE('', #339, #353, #360, .T.);
#360 = B_SPLINE_CURVE_WITH_KNOTS('', 1, (#361, #362), .UNSPECIFIED., .F., .U., (2, 2), (0., 1.), .UNSPECIFIED.);
#361 = CARTESIAN_POINT('', (40., 0., 0.));
#362 = CARTESIAN_POINT('', (60., 0., 0.));
#363 = B_SPLINE_SURFACE_WITH_KNOTS('', 1, 1, ((#364, #365), (#366, #367)), .UNSPECIFIED., .F., .F., .U., (2, 2), (2, 2), (0., 1.), (0., 1.), .UNSPECIFIED.);
#364 = CARTESIAN_POINT('', (65.556349186104, -5.55634918610405, 0.));
#365 = CARTESIAN_POINT('', (65.556349186104, 25.556349186104, 0.));
#366 = CARTESIAN_POINT('', (34.443650813896, -5.55634918610405, 0.));
#367 = CARTESIAN_POINT('', (34.443650813896, 25.556349186104, 0.));
#368 = ADVANCED_FACE('', (#369), #383, .T.);
#369 = FACE_OUTER_BOUND('', #370, .T.);
#370 = EDGE_LOOP('', (#371, #376, #377, #382));
#371 = ORIENTED_EDGE('', *, *, #372, .F.);
#372 = EDGE_CURVE('', #337, #301, #373, .T.);
#373 = B_SPLINE_CURVE_WITH_KNOTS('', 1, (#374, #375), .UNSPECIFIED., .F., .U., (2, 2), (0., 1.), .UNSPECIFIED.);
#374 = CARTESIAN_POINT('', (40., 20., 0.));
#375 = CARTESIAN_POINT('', (40., 20., 120.));
#376 = ORIENTED_EDGE('', *, *, #336, .T.);
#377 = ORIENTED_EDGE('', *, *, #378, .T.);
#378 = EDGE_CURVE('', #339, #303, #379, .T.);
#379 = B_SPLINE_CURVE_WITH_KNOTS('', 1, (#380, #381), .UNSPECIFIED., .F., .U., (2, 2), (0., 1.), .UNSPECIFIED.);
#380 = CARTESIAN_POINT('', (40., 0., 0.));
#381 = CARTESIAN_POINT('', (40., 0., 120.));
#382 = ORIENTED_EDGE('', *, *, #300, .F.);
#383 = B_SPLINE_SURFACE_WITH_KNOTS('', 1, 1, ((#384, #385), (#386, #387)), .UNSPECIFIED., .F., .F., .U., (2, 2), (2, 2), (0., 1.), (0., 1.), .UNSPECIFIED.);
#384 = CARTESIAN_POINT('', (40., 20., 0.));
#385 = CARTESIAN_POINT('', (40., 20., 120.));
#386 = CARTESIAN_POINT('', (40., 0., 0.));
#387 = CARTESIAN_POINT('', (40., 0., 120.));
#388 = ADVANCED_FACE('', (#389), #399, .T.);
#389 = FACE_OUTER_BOUND('', #390, .T.);
#390 = EDGE_LOOP('', (#391, #392, #393, #398));
#391 = ORIENTED_EDGE('', *, *, #378, .F.);
#392 = ORIENTED_EDGE('', *, *, #359, .T.);
#393 = ORIENTED_EDGE('', *, *, #394, .T.);
#394 = EDGE_CURVE('', #353, #310, #395, .T.);
#395 = B_SPLINE_CURVE_WITH_KNOTS('', 1, (#396, #397), .UNSPECIFIED., .F., .U., (2, 2), (0., 1.), .UNSPECIFIED.);
#396 = CARTESIAN_POINT('', (60., 0., 0.));
#397 = CARTESIAN_POINT('', (60., 0., 120.));
#398 = ORIENTED_EDGE('', *, *, #309, .F.);
#399 = B_SPLINE_SURFACE_WITH_KNOTS('', 1, 1, ((#400, #401), (#402, #403)), .UNSPECIFIED., .F., .F., .U., (2, 2), (2, 2), (0., 1.), (0., 1.), .UNSPECIFIED.);
#400 = CARTESIAN_POINT('', (40., 0., 0.));
#401 = CARTESIAN_POINT('', (40., 0., 120.));
#402 = CARTESIAN_POINT('', (60., 0., 0.));
#403 = CARTESIAN_POINT('', (60., 0., 120.));
#404 = ADVANCED_FACE('', (#405), #415, .T.);
#405 = FACE_OUTER_BOUND('', #406, .T.);
#406 = EDGE_LOOP('', (#407, #412, #413, #414));
#407 = ORIENTED_EDGE('', *, *, #408, .F.);
#408 = EDGE_CURVE('', #346, #317, #409, .T.);
#409 = B_SPLINE_CURVE_WITH_KNOTS('', 1, (#410, #411), .UNSPECIFIED., .F., .U., (2, 2), (0., 1.), .UNSPECIFIED.);
#410 = CARTESIAN_POINT('', (60., 20., 0.));
#411 = CARTESIAN_POINT('', (60., 20., 120.));
#412 = ORIENTED_EDGE('', *, *, #345, .T.);
#413 = ORIENTED_EDGE('', *, *, #372, .T.);
#414 = ORIENTED_EDGE('', *, *, #323, .F.);
#415 = B_SPLINE_SURFACE_WITH_KNOTS('', 1, 1, ((#416, #417), (#418, #419)), .UNSPECIFIED., .F., .F., .U., (2, 2), (2, 2), (0., 1.), (0., 1.), .UNSPECIFIED.);
#416 = CARTESIAN_POINT('', (60., 20., 0.));
#417 = CARTESIAN_POINT('', (60., 20., 120.));
#418 = CARTESIAN_POINT('', (40., 20., 0.));
#419 = CARTESIAN_POINT('', (40., 20., 120.));
#420 = ADVANCED_FACE('', (#421), #427, .T.);
#421 = FACE_OUTER_BOUND('', #422, .T.);
#422 = EDGE_LOOP('', (#423, #424, #425, #426));
#423 = ORIENTED_EDGE('', *, *, #394, .F.);
#424 = ORIENTED_EDGE('', *, *, #352, .T.);
#425 = ORIENTED_EDGE('', *, *, #408, .T.);
#426 = ORIENTED_EDGE('', *, *, #316, .F.);
#427 = B_SPLINE_SURFACE_WITH_KNOTS('', 1, 1, ((#428, #429), (#430, #431)), .UNSPECIFIED., .F., .F., .U., (2, 2), (2, 2), (0., 1.), (0., 1.), .UNSPECIFIED.);
#428 = CARTESIAN_POINT('', (60., 0., 0.));
#429 = CARTESIAN_POINT('', (60., 0., 120.));
#430 = CARTESIAN_POINT('', (60., 20., 0.));
#431 = CARTESIAN_POINT('', (60., 20., 120.));
#432 = PRESENTATION_STYLE_ASSIGNMENT((#433));
#433 = SURFACE_STYLE_USAGE(.POSITIVE., #434);
#434 = SURFACE_SIDE_STYLE('', (#435));
#435 = SURFACE_STYLE_FILL_AREA(#436);
#436 = FILL_AREA_STYLE('', (#437));
#437 = FILL_AREA_STYLE_COLOUR('', #438);
#438 = COLOUR_RGB('', 0.50196078431373, 0.50196078431373, 0.50196078431373);
#439 = STYLED_ITEM('', (#432), #294);
#440 = MANIFOLD_SOLID_BREP('Solid2', #441);
#441 = CLOSED_SHELL('', (#442, #478, #514, #534, #550, #566));
#442 = ADVANCED_FACE('', (#443), #473, .T.);
#443 = FACE_OUTER_BOUND('', #444, .T.);
#444 = EDGE_LOOP('', (#445, #454, #461, #468));
#445 = ORIENTED_EDGE('', *, *, #446, .T.);
#446 = EDGE_CURVE('', #447, #449, #451, .T.);
#447 = VERTEX_POINT('', #448);
#448 = CARTESIAN_POINT('', (80., 20., 1.));
#449 = VERTEX_POINT('', #450);
#450 = CARTESIAN_POINT('', (80., 0., 1.));
#451 = B_SPLINE_CURVE_WITH_KNOTS('', 1, (#452, #453), .UNSPECIFIED., .F., .U., (2, 2), (0., 1.), .UNSPECIFIED.);
#452 = CARTESIAN_POINT('', (80., 20., 1.));
#453 = CARTESIAN_POINT('', (80., 0., 1.));
#454 = ORIENTED_EDGE('', *, *, #455, .T.);
#455 = EDGE_CURVE('', #449, #456, #458, .T.);
#456 = VERTEX_POINT('', #457);
#457 = CARTESIAN_POINT('', (100., 0., 1.));
#458 = B_SPLINE_CURVE_WITH_KNOTS('', 1, (#459, #460), .UNSPECIFIED., .F., .U., (2, 2), (0., 1.), .UNSPECIFIED.);
#459 = CARTESIAN_POINT('', (80., 0., 1.));
#460 = CARTESIAN_POINT('', (100., 0., 1.));
#461 = ORIENTED_EDGE('', *, *, #462, .T.);
#462 = EDGE_CURVE('', #456, #463, #465, .T.);
#463 = VERTEX_POINT('', #464);
#464 = CARTESIAN_POINT('', (100., 20., 1.));
#465 = B_SPLINE_CURVE_WITH_KNOTS('', 1, (#466, #467), .UNSPECIFIED., .F., .U., (2, 2), (0., 1.), .UNSPECIFIED.);
#466 = CARTESIAN_POINT('', (100., 0., 1.));
#467 = CARTESIAN_POINT('', (100., 20., 1.));
#468 = ORIENTED_EDGE('', *, *, #469, .T.);
#469 = EDGE_CURVE('', #463, #447, #470, .T.);
#470 = B_SPLINE_CURVE_WITH_KNOTS('', 1, (#471, #472), .UNSPECIFIED., .F., .U., (2, 2), (0., 1.), .UNSPECIFIED.);
#471 = CARTESIAN_POINT('', (100., 20., 1.));
#472 = CARTESIAN_POINT('', (80., 20., 1.));
#473 = B_SPLINE_SURFACE_WITH_KNOTS('', 1, 1, ((#474, #475), (#476, #477)), .UNSPECIFIED., .F., .F., .U., (2, 2), (2, 2), (0., 1.), (0., 1.), .UNSPECIFIED.);
#474 = CARTESIAN_POINT('', (105.556349186104, -5.55634918610405, 1.));
#475 = CARTESIAN_POINT('', (74.443650813896, -5.55634918610405, 1.));
#476 = CARTESIAN_POINT('', (105.556349186104, 25.556349186104, 1.));
#477 = CARTESIAN_POINT('', (74.443650813896, 25.556349186104, 1.));
#478 = ADVANCED_FACE('', (#479), #509, .T.);
#479 = FACE_OUTER_BOUND('', #480, .T.);
#480 = EDGE_LOOP('', (#481, #490, #497, #504));
#481 = ORIENTED_EDGE('', *, *, #482, .F.);
#482 = EDGE_CURVE('', #483, #485, #487, .T.);
#483 = VERTEX_POINT('', #484);
#484 = CARTESIAN_POINT('', (80., 20., 0.));
#485 = VERTEX_POINT('', #486);
#486 = CARTESIAN_POINT('', (80., 0., 0.));
#487 = B_SPLINE_CURVE_WITH_KNOTS('', 1, (#488, #489), .UNSPECIFIED., .F., .U., (2, 2), (0., 1.), .UNSPECIFIED.);
#488 = CARTESIAN_POINT('', (80., 20., 0.));
#489 = CARTESIAN_POINT('', (80., 0., 0.));
#490 = ORIENTED_EDGE('', *, *, #491, .F.);
#491 = EDGE_CURVE('', #492, #483, #494, .T.);
#492 = VERTEX_POINT('', #493);
#493 = CARTESIAN_POINT('', (100., 20., 0.));
#494 = B_SPLINE_CURVE_WITH_KNOTS('', 1, (#495, #496), .UNSPECIFIED., .F., .U., (2, 2), (0., 1.), .UNSPECIFIED.);
#495 = CARTESIAN_POINT('', (100., 20., 0.));
#496 = CARTESIAN_POINT('', (80., 20., 0.));
#497 = ORIENTED_EDGE('', *, *, #498, .F.);
#498 = EDGE_CURVE('', #499, #492, #501, .T.);
#499 = VERTEX_POINT('', #500);
#500 = CARTESIAN_POINT('', (100., 0., 0.));
#501 = B_SPLINE_CURVE_WITH_KNOTS('', 1, (#502, #503), .UNSPECIFIED., .F., .U., (2, 2), (0., 1.), .UNSPECIFIED.);
#502 = CARTESIAN_POINT('', (100., 0., 0.));
#503 = CARTESIAN_POINT('', (100., 20., 0.));
#504 = ORIENTED_EDGE('', *, *, #505, .F.);
#505 = EDGE_CURVE('', #485, #499, #506, .T.);
#506 = B_SPLINE_CURVE_WITH_KNOTS('', 1, (#507, #508), .UNSPECIFIED., .F., .U., (2, 2), (0., 1.), .UNSPECIFIED.);
#507 = CARTESIAN_POINT('', (80., 0., 0.));
#508 = CARTESIAN_POINT('', (100., 0., 0.));
#509 = B_SPLINE_SURFACE_WITH_KNOTS('', 1, 1, ((#510, #511), (#512, #513)), .UNSPECIFIED., .F., .F., .U., (2, 2), (2, 2), (0., 1.), (0., 1.), .UNSPECIFIED.);
#510 = CARTESIAN_POINT('', (105.556349186104, -5.55634918610405, 0.));
#511 = CARTESIAN_POINT('', (105.556349186104, 25.556349186104, 0.));
#512 = CARTESIAN_POINT('', (74.443650813896, -5.55634918610405, 0.));
#513 = CARTESIAN_POINT('', (74.443650813896, 25.556349186104, 0.));
#514 = ADVANCED_FACE('', (#515), #529, .T.);
#515 = FACE_OUTER_BOUND('', #516, .T.);
#516 = EDGE_LOOP('', (#517, #522, #523, #528));
#517 = ORIENTED_EDGE('', *, *, #518, .F.);
#518 = EDGE_CURVE('', #483, #447, #519, .T.);
#519 = B_SPLINE_CURVE_WITH_KNOTS('', 1, (#520, #521), .UNSPECIFIED., .F., .U., (2, 2), (0., 1.), .UNSPECIFIED.);
#520 = CARTESIAN_POINT('', (80., 20., 0.));
#521 = CARTESIAN_POINT('', (80., 20., 1.));
#522 = ORIENTED_EDGE('', *, *, #482, .T.);
#523 = ORIENTED_EDGE('', *, *, #524, .T.);
#524 = EDGE_CURVE('', #485, #449, #525, .T.);
#525 = B_SPLINE_CURVE_WITH_KNOTS('', 1, (#526, #527), .UNSPECIFIED., .F., .U., (2, 2), (0., 1.), .UNSPECIFIED.);
#526 = CARTESIAN_POINT('', (80., 0., 0.));
#527 = CARTESIAN_POINT('', (80., 0., 1.));
#528 = ORIENTED_EDGE('', *, *, #446, .F.);
#529 = B_SPLINE_SURFACE_WITH_KNOTS('', 1, 1, ((#530, #531), (#532, #533)), .UNSPECIFIED., .F., .F., .U., (2, 2), (2, 2), (0., 1.), (0., 1.), .UNSPECIFIED.);
#530 = CARTESIAN_POINT('', (80., 20., 0.));
#531 = CARTESIAN_POINT('', (80., 20., 1.));
#532 = CARTESIAN_POINT('', (80., 0., 0.));
#533 = CARTESIAN_POINT('', (80., 0., 1.));
#534 = ADVANCED_FACE('', (#535), #545, .T.);
#535 = FACE_OUTER_BOUND('', #536, .T.);
#536 = EDGE_LOOP('', (#537, #538, #539, #544));
#537 = ORIENTED_EDGE('', *, *, #524, .F.);
#538 = ORIENTED_EDGE('', *, *, #505, .T.);
#539 = ORIENTED_EDGE('', *, *, #540, .T.);
#540 = EDGE_CURVE('', #499, #456, #541, .T.);
#541 = B_SPLINE_CURVE_WITH_KNOTS('', 1, (#542, #543), .UNSPECIFIED., .F., .U., (2, 2), (0., 1.), .UNSPECIFIED.);
#542 = CARTESIAN_POINT('', (100., 0., 0.));
#543 = CARTESIAN_POINT('', (100., 0., 1.));
#544 = ORIENTED_EDGE('', *, *, #455, .F.);
#545 = B_SPLINE_SURFACE_WITH_KNOTS('', 1, 1, ((#546, #547), (#548, #549)), .UNSPECIFIED., .F., .F., .U., (2, 2), (2, 2), (0., 1.), (0., 1.), .UNSPECIFIED.);
#546 = CARTESIAN_POINT('', (80., 0., 0.));
#547 = CARTESIAN_POINT('', (80., 0., 1.));
#548 = CARTESIAN_POINT('', (100., 0., 0.));
#549 = CARTESIAN_POINT('', (100., 0., 1.));
#550 = ADVANCED_FACE('', (#551), #561, .T.);
#551 = FACE_OUTER_BOUND('', #552, .T.);
#552 = EDGE_LOOP('', (#553, #558, #559, #560));
#553 = ORIENTED_EDGE('', *, *, #554, .F.);
#554 = EDGE_CURVE('', #492, #463, #555, .T.);
#555 = B_SPLINE_CURVE_WITH_KNOTS('', 1, (#556, #557), .UNSPECIFIED., .F., .U., (2, 2), (0., 1.), .UNSPECIFIED.);
#556 = CARTESIAN_POINT('', (100., 20., 0.));
#557 = CARTESIAN_POINT('', (100., 20., 1.));
#558 = ORIENTED_EDGE('', *, *, #491, .T.);
#559 = ORIENTED_EDGE('', *, *, #518, .T.);
#560 = ORIENTED_EDGE('', *, *, #469, .F.);
#561 = B_SPLINE_SURFACE_WITH_KNOTS('', 1, 1, ((#562, #563), (#564, #565)), .UNSPECIFIED., .F., .F., .U., (2, 2), (2, 2), (0., 1.), (0., 1.), .UNSPECIFIED.);
#562 = CARTESIAN_POINT('', (100., 20., 0.));
#563 = CARTESIAN_POINT('', (100., 20., 1.));
#564 = CARTESIAN_POINT('', (80., 20., 0.));
#565 = CARTESIAN_POINT('', (80., 20., 1.));
#566 = ADVANCED_FACE('', (#567), #573, .T.);
#567 = FACE_OUTER_BOUND('', #568, .T.);
#568 = EDGE_LOOP('', (#569, #570, #571, #572));
#569 = ORIENTED_EDGE('', *, *, #540, .F.);
#570 = ORIENTED_EDGE('', *, *, #498, .T.);
#571 = ORIENTED_EDGE('', *, *, #554, .T.);
#572 = ORIENTED_EDGE('', *, *, #462, .F.);
#573 = B_SPLINE_SURFACE_WITH_KNOTS('', 1, 1, ((#574, #575), (#576, #577)), .UNSPECIFIED., .F., .F., .U., (2, 2), (2, 2), (0., 1.), (0., 1.), .UNSPECIFIED.);
#574 = CARTESIAN_POINT('', (100., 0., 0.));
#575 = CARTESIAN_POINT('', (100., 0., 1.));
#576 = CARTESIAN_POINT('', (100., 20., 0.));
#577 = CARTESIAN_POINT('', (100., 20., 1.));
#578 = PRESENTATION_STYLE_ASSIGNMENT((#579));
#579 = SURFACE_STYLE_USAGE(.POSITIVE., #580);
#580 = SURFACE_SIDE_STYLE('', (#581));
#581 = SURFACE_STYLE_FILL_AREA(#582);
#582 = FILL_AREA_STYLE('', (#583));
#583 = FILL_AREA_STYLE_COLOUR('', #584);
#584 = COLOUR_RGB('', 0.50196078431373, 0.50196078431373, 0.50196078431373);
#585 = STYLED_ITEM('', (#578), #440);
#586 = CARTESIAN_POINT('Origin', (0., 0., 0.));
#587 = GEOMETRIC_SET('', (#586));
#588 = (
   GEOMETRIC_REPRESENTATION_CONTEXT (3)
   GLOBAL_UNCERTAINTY_ASSIGNED_CONTEXT ((#590))
   GLOBAL_UNIT_ASSIGNED_CONTEXT ((#589, #591, #592))
   REPRESENTATION_CONTEXT ('', '3D')
);
#589 = (
   LENGTH_UNIT ()
   NAMED_UNIT (*)
   SI_UNIT (.MILLI., .METRE.)
);
#590 = UNCERTAINTY_MEASURE_WITH_UNIT(LENGTH_MEASURE(1.E-6), #589, 'DISTANCE_ACCURACY_VALUE', '');
#591 = (
   NAMED_UNIT (*)
   SI_UNIT ($, .STERADIAN.)
   SOLID_ANGLE_UNIT ()
);
#592 = (
   NAMED_UNIT (*)
   PLANE_ANGLE_UNIT ()
   SI_UNIT ($, .RADIAN.)
);
#593 = SHAPE_REPRESENTATION('', (#608), #588);
#594 = PRODUCT_DEFINITION_SHAPE('', '', #595);
#595 = PRODUCT_DEFINITION('', '', #598, #602);
#596 = APPLICATION_CONTEXT('configuration controlled 3D designs of mechanical parts and assemblies');
#597 = APPLICATION_PROTOCOL_DEFINITION('International Standard', 'automotive_design', 2002, #596);
#598 = PRODUCT_DEFINITION_FORMATION_WITH_SPECIFIED_SOURCE('', '', #599, .NOT_KNOWN.);
#599 = PRODUCT('DirLenTest', 'DirLenTest', '', (#600));
#600 = PRODUCT_CONTEXT('', #596, 'mechanical');
#601 = PRODUCT_RELATED_PRODUCT_CATEGORY('detail', '', (#599));
#602 = PRODUCT_DEFINITION_CONTEXT('part definition', #596, 'design');
#603 = SHAPE_DEFINITION_REPRESENTATION(#594, #593);
#604 = SHAPE_REPRESENTATION_RELATIONSHIP('', '', #593, #605);
#605 = SHAPE_REPRESENTATION('', (#587), #588);
#606 = SHAPE_REPRESENTATION_RELATIONSHIP('', '', #593, #607);
#607 = ADVANCED_BREP_SHAPE_REPRESENTATION('', (#1, #148, #294, #440), #588);
#608 = AXIS2_PLACEMENT_3D('', #609, #610, #611);
#609 = CARTESIAN_POINT('', (0., 0., 0.));
#610 = DIRECTION('', (0., 0., 1.));
#611 = DIRECTION('', (1., 0., 0.));
ENDSEC;
END-ISO-10303-21;
