ISO-10303-21;
HEADER;
FILE_DESCRIPTION(('STEP'), '1');
FILE_NAME('FilletMulti', '2026-04-20T12:10:01', (''), (''), 'Express 3.1.2.0', 'Express Tool', 'Unknown');
FILE_SCHEMA(('AUTOMOTIVE_DESIGN'));
ENDSEC;

DATA;
#1 = MANIFOLD_SOLID_BREP('MultiFillet_0', #2);
#2 = CLOSED_SHELL('', (#3, #39, #75, #111, #139, #163, #185, #199, #279));
#3 = ADVANCED_FACE('', (#4), #34, .T.);
#4 = FACE_OUTER_BOUND('', #5, .T.);
#5 = EDGE_LOOP('', (#6, #15, #22, #29));
#6 = ORIENTED_EDGE('', *, *, #7, .T.);
#7 = EDGE_CURVE('', #8, #10, #12, .T.);
#8 = VERTEX_POINT('', #9);
#9 = CARTESIAN_POINT('', (70., 10., 40.));
#10 = VERTEX_POINT('', #11);
#11 = CARTESIAN_POINT('', (70., 60., 40.));
#12 = B_SPLINE_CURVE_WITH_KNOTS('', 1, (#13, #14), .UNSPECIFIED., .F., .U., (2, 2), (0.333333333333333, 0.75), .UNSPECIFIED.);
#13 = CARTESIAN_POINT('', (70., 10., 40.));
#14 = CARTESIAN_POINT('', (70., 60., 40.));
#15 = ORIENTED_EDGE('', *, *, #16, .F.);
#16 = EDGE_CURVE('', #17, #10, #19, .T.);
#17 = VERTEX_POINT('', #18);
#18 = CARTESIAN_POINT('', (0., 60., 40.));
#19 = B_SPLINE_CURVE_WITH_KNOTS('', 1, (#20, #21), .UNSPECIFIED., .F., .U., (2, 2), (0., 70.), .UNSPECIFIED.);
#20 = CARTESIAN_POINT('', (0., 60., 40.));
#21 = CARTESIAN_POINT('', (70., 60., 40.));
#22 = ORIENTED_EDGE('', *, *, #23, .F.);
#23 = EDGE_CURVE('', #24, #17, #26, .T.);
#24 = VERTEX_POINT('', #25);
#25 = CARTESIAN_POINT('', (0., 10., 40.));
#26 = B_SPLINE_CURVE_WITH_KNOTS('', 1, (#27, #28), .UNSPECIFIED., .F., .U., (2, 2), (10., 60.), .UNSPECIFIED.);
#27 = CARTESIAN_POINT('', (0., 10., 40.));
#28 = CARTESIAN_POINT('', (0., 60., 40.));
#29 = ORIENTED_EDGE('', *, *, #30, .T.);
#30 = EDGE_CURVE('', #24, #8, #31, .T.);
#31 = B_SPLINE_CURVE_WITH_KNOTS('', 1, (#32, #33), .UNSPECIFIED., .F., .U., (2, 2), (0.25, 0.6875), .UNSPECIFIED.);
#32 = CARTESIAN_POINT('', (0., 10., 40.));
#33 = CARTESIAN_POINT('', (70., 10., 40.));
#34 = B_SPLINE_SURFACE_WITH_KNOTS('', 1, 1, ((#35, #36), (#37, #38)), .UNSPECIFIED., .F., .F., .U., (2, 2), (2, 2), (0., 70.), (10., 60.), .UNSPECIFIED.);
#35 = CARTESIAN_POINT('', (0., 10., 40.));
#36 = CARTESIAN_POINT('', (0., 60., 40.));
#37 = CARTESIAN_POINT('', (70., 10., 40.));
#38 = CARTESIAN_POINT('', (70., 60., 40.));
#39 = ADVANCED_FACE('', (#40), #70, .T.);
#40 = FACE_OUTER_BOUND('', #41, .T.);
#41 = EDGE_LOOP('', (#42, #51, #58, #65));
#42 = ORIENTED_EDGE('', *, *, #43, .T.);
#43 = EDGE_CURVE('', #44, #46, #48, .T.);
#44 = VERTEX_POINT('', #45);
#45 = CARTESIAN_POINT('', (0., 0., 10.));
#46 = VERTEX_POINT('', #47);
#47 = CARTESIAN_POINT('', (80., 0., 10.));
#48 = B_SPLINE_CURVE_WITH_KNOTS('', 1, (#49, #50), .UNSPECIFIED., .F., .U., (2, 2), (0.25, 0.75), .UNSPECIFIED.);
#49 = CARTESIAN_POINT('', (0., 0., 10.));
#50 = CARTESIAN_POINT('', (80., 0., 10.));
#51 = ORIENTED_EDGE('', *, *, #52, .T.);
#52 = EDGE_CURVE('', #46, #53, #55, .T.);
#53 = VERTEX_POINT('', #54);
#54 = CARTESIAN_POINT('', (80., 0., 30.));
#55 = B_SPLINE_CURVE_WITH_KNOTS('', 1, (#56, #57), .UNSPECIFIED., .F., .U., (2, 2), (10., 30.), .UNSPECIFIED.);
#56 = CARTESIAN_POINT('', (80., 0., 10.));
#57 = CARTESIAN_POINT('', (80., 0., 30.));
#58 = ORIENTED_EDGE('', *, *, #59, .F.);
#59 = EDGE_CURVE('', #60, #53, #62, .T.);
#60 = VERTEX_POINT('', #61);
#61 = CARTESIAN_POINT('', (0., 0., 30.));
#62 = B_SPLINE_CURVE_WITH_KNOTS('', 1, (#63, #64), .UNSPECIFIED., .F., .U., (2, 2), (0.25, 0.75), .UNSPECIFIED.);
#63 = CARTESIAN_POINT('', (0., 0., 30.));
#64 = CARTESIAN_POINT('', (80., 0., 30.));
#65 = ORIENTED_EDGE('', *, *, #66, .F.);
#66 = EDGE_CURVE('', #44, #60, #67, .T.);
#67 = B_SPLINE_CURVE_WITH_KNOTS('', 1, (#68, #69), .UNSPECIFIED., .F., .U., (2, 2), (10., 30.), .UNSPECIFIED.);
#68 = CARTESIAN_POINT('', (0., 0., 10.));
#69 = CARTESIAN_POINT('', (0., 0., 30.));
#70 = B_SPLINE_SURFACE_WITH_KNOTS('', 1, 1, ((#71, #72), (#73, #74)), .UNSPECIFIED., .F., .F., .U., (2, 2), (2, 2), (0., 80.), (10., 30.), .UNSPECIFIED.);
#71 = CARTESIAN_POINT('', (0., 0., 10.));
#72 = CARTESIAN_POINT('', (0., 0., 30.));
#73 = CARTESIAN_POINT('', (80., 0., 10.));
#74 = CARTESIAN_POINT('', (80., 0., 30.));
#75 = ADVANCED_FACE('', (#76), #106, .T.);
#76 = FACE_OUTER_BOUND('', #77, .T.);
#77 = EDGE_LOOP('', (#78, #86, #93, #100, #105));
#78 = ORIENTED_EDGE('', *, *, #79, .F.);
#79 = EDGE_CURVE('', #80, #10, #82, .T.);
#80 = VERTEX_POINT('', #81);
#81 = CARTESIAN_POINT('', (80., 60., 30.));
#82 = (
   BOUNDED_CURVE ()
   B_SPLINE_CURVE (2, (#83, #84, #85), .UNSPECIFIED., .F., .U.)
   B_SPLINE_CURVE_WITH_KNOTS ((3, 3), (0., 1.), .UNSPECIFIED.)
   CURVE ()
   GEOMETRIC_REPRESENTATION_ITEM ()
   RATIONAL_B_SPLINE_CURVE ((1., 0.707106781186548, 1.))
   REPRESENTATION_ITEM ('')
);
#83 = CARTESIAN_POINT('', (80., 60., 30.));
#84 = CARTESIAN_POINT('', (80., 60., 40.));
#85 = CARTESIAN_POINT('', (70., 60., 40.));
#86 = ORIENTED_EDGE('', *, *, #87, .F.);
#87 = EDGE_CURVE('', #88, #80, #90, .T.);
#88 = VERTEX_POINT('', #89);
#89 = CARTESIAN_POINT('', (80., 60., 0.));
#90 = B_SPLINE_CURVE_WITH_KNOTS('', 1, (#91, #92), .UNSPECIFIED., .F., .U., (2, 2), (0., 30.), .UNSPECIFIED.);
#91 = CARTESIAN_POINT('', (80., 60., 0.));
#92 = CARTESIAN_POINT('', (80., 60., 30.));
#93 = ORIENTED_EDGE('', *, *, #94, .F.);
#94 = EDGE_CURVE('', #95, #88, #97, .T.);
#95 = VERTEX_POINT('', #96);
#96 = CARTESIAN_POINT('', (0., 60., 0.));
#97 = B_SPLINE_CURVE_WITH_KNOTS('', 1, (#98, #99), .UNSPECIFIED., .F., .U., (2, 2), (0., 80.), .UNSPECIFIED.);
#98 = CARTESIAN_POINT('', (0., 60., 0.));
#99 = CARTESIAN_POINT('', (80., 60., 0.));
#100 = ORIENTED_EDGE('', *, *, #101, .T.);
#101 = EDGE_CURVE('', #95, #17, #102, .T.);
#102 = B_SPLINE_CURVE_WITH_KNOTS('', 1, (#103, #104), .UNSPECIFIED., .F., .U., (2, 2), (0., 40.), .UNSPECIFIED.);
#103 = CARTESIAN_POINT('', (0., 60., 0.));
#104 = CARTESIAN_POINT('', (0., 60., 40.));
#105 = ORIENTED_EDGE('', *, *, #16, .T.);
#106 = B_SPLINE_SURFACE_WITH_KNOTS('', 1, 1, ((#107, #108), (#109, #110)), .UNSPECIFIED., .F., .F., .U., (2, 2), (2, 2), (0., 40.), (0., 80.), .UNSPECIFIED.);
#107 = CARTESIAN_POINT('', (0., 60., 0.));
#108 = CARTESIAN_POINT('', (80., 60., 0.));
#109 = CARTESIAN_POINT('', (0., 60., 40.));
#110 = CARTESIAN_POINT('', (80., 60., 40.));
#111 = ADVANCED_FACE('', (#112), #134, .T.);
#112 = FACE_OUTER_BOUND('', #113, .T.);
#113 = EDGE_LOOP('', (#114, #123, #128, #129));
#114 = ORIENTED_EDGE('', *, *, #115, .F.);
#115 = EDGE_CURVE('', #116, #118, #120, .T.);
#116 = VERTEX_POINT('', #117);
#117 = CARTESIAN_POINT('', (0., 10., 0.));
#118 = VERTEX_POINT('', #119);
#119 = CARTESIAN_POINT('', (80., 10., -1.77635683940025E-15));
#120 = B_SPLINE_CURVE_WITH_KNOTS('', 1, (#121, #122), .UNSPECIFIED., .F., .U., (2, 2), (0.25, 0.75), .UNSPECIFIED.);
#121 = CARTESIAN_POINT('', (0., 10., 0.));
#122 = CARTESIAN_POINT('', (80., 10., 0.));
#123 = ORIENTED_EDGE('', *, *, #124, .T.);
#124 = EDGE_CURVE('', #116, #95, #125, .T.);
#125 = B_SPLINE_CURVE_WITH_KNOTS('', 1, (#126, #127), .UNSPECIFIED., .F., .U., (2, 2), (10., 60.), .UNSPECIFIED.);
#126 = CARTESIAN_POINT('', (0., 10., 0.));
#127 = CARTESIAN_POINT('', (0., 60., 0.));
#128 = ORIENTED_EDGE('', *, *, #94, .T.);
#129 = ORIENTED_EDGE('', *, *, #130, .F.);
#130 = EDGE_CURVE('', #118, #88, #131, .T.);
#131 = B_SPLINE_CURVE_WITH_KNOTS('', 1, (#132, #133), .UNSPECIFIED., .F., .U., (2, 2), (10., 60.), .UNSPECIFIED.);
#132 = CARTESIAN_POINT('', (80., 10., 0.));
#133 = CARTESIAN_POINT('', (80., 60., 0.));
#134 = B_SPLINE_SURFACE_WITH_KNOTS('', 1, 1, ((#135, #136), (#137, #138)), .UNSPECIFIED., .F., .F., .U., (2, 2), (2, 2), (10., 60.), (0., 80.), .UNSPECIFIED.);
#135 = CARTESIAN_POINT('', (0., 10., 0.));
#136 = CARTESIAN_POINT('', (80., 10., 0.));
#137 = CARTESIAN_POINT('', (0., 60., 0.));
#138 = CARTESIAN_POINT('', (80., 60., 0.));
#139 = ADVANCED_FACE('', (#140), #158, .T.);
#140 = FACE_OUTER_BOUND('', #141, .T.);
#141 = EDGE_LOOP('', (#142, #148, #149, #155, #156, #157));
#142 = ORIENTED_EDGE('', *, *, #143, .F.);
#143 = EDGE_CURVE('', #44, #116, #144, .T.);
#144 = (
   BOUNDED_CURVE ()
   B_SPLINE_CURVE (2, (#145, #146, #147), .UNSPECIFIED., .F., .U.)
   B_SPLINE_CURVE_WITH_KNOTS ((3, 3), (0., 1.), .UNSPECIFIED.)
   CURVE ()
   GEOMETRIC_REPRESENTATION_ITEM ()
   RATIONAL_B_SPLINE_CURVE ((1., 0.707106781186548, 1.))
   REPRESENTATION_ITEM ('')
);
#145 = CARTESIAN_POINT('', (0., 0., 10.));
#146 = CARTESIAN_POINT('', (0., 0., 1.41638472441199E-15));
#147 = CARTESIAN_POINT('', (0., 10., -1.77635683940025E-15));
#148 = ORIENTED_EDGE('', *, *, #66, .T.);
#149 = ORIENTED_EDGE('', *, *, #150, .F.);
#150 = EDGE_CURVE('', #24, #60, #151, .T.);
#151 = (
   BOUNDED_CURVE ()
   B_SPLINE_CURVE (2, (#152, #153, #154), .UNSPECIFIED., .F., .U.)
   B_SPLINE_CURVE_WITH_KNOTS ((3, 3), (0., 1.), .UNSPECIFIED.)
   CURVE ()
   GEOMETRIC_REPRESENTATION_ITEM ()
   RATIONAL_B_SPLINE_CURVE ((1., 0.707106781186547, 1.))
   REPRESENTATION_ITEM ('')
);
#152 = CARTESIAN_POINT('', (0., 10., 40.));
#153 = CARTESIAN_POINT('', (0., -3.24655197901366E-15, 40.));
#154 = CARTESIAN_POINT('', (0., 0., 30.));
#155 = ORIENTED_EDGE('', *, *, #23, .T.);
#156 = ORIENTED_EDGE('', *, *, #101, .F.);
#157 = ORIENTED_EDGE('', *, *, #124, .F.);
#158 = B_SPLINE_SURFACE_WITH_KNOTS('', 1, 1, ((#159, #160), (#161, #162)), .UNSPECIFIED., .F., .F., .U., (2, 2), (2, 2), (0., 40.), (0., 60.), .UNSPECIFIED.);
#159 = CARTESIAN_POINT('', (0., 0., 0.));
#160 = CARTESIAN_POINT('', (0., 60., 0.));
#161 = CARTESIAN_POINT('', (0., 0., 40.));
#162 = CARTESIAN_POINT('', (0., 60., 40.));
#163 = ADVANCED_FACE('', (#164), #180, .T.);
#164 = FACE_OUTER_BOUND('', #165, .T.);
#165 = EDGE_LOOP('', (#166, #172, #173, #174, #179));
#166 = ORIENTED_EDGE('', *, *, #167, .F.);
#167 = EDGE_CURVE('', #118, #46, #168, .T.);
#168 = (
   BOUNDED_CURVE ()
   B_SPLINE_CURVE (2, (#169, #170, #171), .UNSPECIFIED., .F., .U.)
   B_SPLINE_CURVE_WITH_KNOTS ((3, 3), (0., 1.), .UNSPECIFIED.)
   CURVE ()
   GEOMETRIC_REPRESENTATION_ITEM ()
   RATIONAL_B_SPLINE_CURVE ((1., 0.707106781186548, 1.))
   REPRESENTATION_ITEM ('')
);
#169 = CARTESIAN_POINT('', (80., 10., -1.77635683940025E-15));
#170 = CARTESIAN_POINT('', (80., 0., 1.41638472441199E-15));
#171 = CARTESIAN_POINT('', (80., 0., 10.));
#172 = ORIENTED_EDGE('', *, *, #130, .T.);
#173 = ORIENTED_EDGE('', *, *, #87, .T.);
#174 = ORIENTED_EDGE('', *, *, #175, .F.);
#175 = EDGE_CURVE('', #53, #80, #176, .T.);
#176 = B_SPLINE_CURVE_WITH_KNOTS('', 1, (#177, #178), .UNSPECIFIED., .F., .U., (2, 2), (0.25, 0.75), .UNSPECIFIED.);
#177 = CARTESIAN_POINT('', (80., 0., 30.));
#178 = CARTESIAN_POINT('', (80., 60., 30.));
#179 = ORIENTED_EDGE('', *, *, #52, .F.);
#180 = B_SPLINE_SURFACE_WITH_KNOTS('', 1, 1, ((#181, #182), (#183, #184)), .UNSPECIFIED., .F., .F., .U., (2, 2), (2, 2), (0., 60.), (0., 30.), .UNSPECIFIED.);
#181 = CARTESIAN_POINT('', (80., 0., 0.));
#182 = CARTESIAN_POINT('', (80., 0., 30.));
#183 = CARTESIAN_POINT('', (80., 60., 0.));
#184 = CARTESIAN_POINT('', (80., 60., 30.));
#185 = ADVANCED_FACE('', (#186), #192, .T.);
#186 = FACE_OUTER_BOUND('', #187, .T.);
#187 = EDGE_LOOP('', (#188, #189, #190, #191));
#188 = ORIENTED_EDGE('', *, *, #43, .F.);
#189 = ORIENTED_EDGE('', *, *, #143, .T.);
#190 = ORIENTED_EDGE('', *, *, #115, .T.);
#191 = ORIENTED_EDGE('', *, *, #167, .T.);
#192 = (
   BOUNDED_SURFACE ()
   B_SPLINE_SURFACE (2, 1, ((#193, #194), (#195, #196), (#197, #198)), .UNSPECIFIED., .F., .F., .U.)
   B_SPLINE_SURFACE_WITH_KNOTS ((3, 3), (2, 2), (0., 1.), (0.25, 0.75), .UNSPECIFIED.)
   GEOMETRIC_REPRESENTATION_ITEM ()
   RATIONAL_B_SPLINE_SURFACE (((1., 1.), (0.707106781186548, 0.707106781186548), (1., 1.)))
   REPRESENTATION_ITEM ('')
   SURFACE ()
);
#193 = CARTESIAN_POINT('', (0., 0., 10.));
#194 = CARTESIAN_POINT('', (80., 0., 10.));
#195 = CARTESIAN_POINT('', (0., 0., 1.41638472441199E-15));
#196 = CARTESIAN_POINT('', (80., 0., 1.41638472441199E-15));
#197 = CARTESIAN_POINT('', (0., 10., -1.77635683940025E-15));
#198 = CARTESIAN_POINT('', (80., 10., -1.77635683940025E-15));
#199 = ADVANCED_FACE('', (#200), #272, .T.);
#200 = FACE_OUTER_BOUND('', #201, .T.);
#201 = EDGE_LOOP('', (#202, #203, #270, #271));
#202 = ORIENTED_EDGE('', *, *, #7, .F.);
#203 = ORIENTED_EDGE('', *, *, #204, .F.);
#204 = EDGE_CURVE('', #53, #8, #205, .T.);
#205 = B_SPLINE_CURVE_WITH_KNOTS('', 3, (#206, #207, #208, #209, #210, #211, #212, #213, #214, #215, #216, #217, #218, #219, #220, #221, #222, #223, #224, #225, #226, #227, #228, #229, #230, #231, #232, #233, #234, #235, #236, #237, #238, #239, #240, #241, #242, #243, #244, #245, #246, #247, #248, #249, #250, #251, #252, #253, #254, #255, #256, #257, #258, #259, #260, #261, #262, #263, #264, #265, #266, #267, #268, #269), .UNSPECIFIED., .F., .U., (4, 3, 3, 3, 3, 3, 3, 3, 3, 3, 3, 3, 3, 3, 3, 3, 3, 3, 3, 3, 3, 4), (0., 0.665899070194089, 1.33088216060356, 1.99489048075606, 2.65790948275991, 3.31996475450646, 3.9811128208792, 4.64143000911012, 5.30100203466806, 5.95991581076834, 6.94840430245234, 7.93525578413842, 8.92078754334094, 9.90524607615052, 10.8888168865806, 11.8716357938551, 12.8537991013826, 14.323045972198, 15.7904990548065, 17.9790946978134, 18.9577970237245, 19.0957371843644), .UNSPECIFIED.);
#206 = CARTESIAN_POINT('', (80., 0., 30.));
#207 = CARTESIAN_POINT('', (80., -7.20625314720659E-17, 30.2219663567314));
#208 = CARTESIAN_POINT('', (79.992585252136, 0.00741474786400734, 30.444175659138));
#209 = CARTESIAN_POINT('', (79.9778534449109, 0.0221465550891526, 30.6651621094746));
#210 = CARTESIAN_POINT('', (79.9631419020744, 0.0368580979255744, 30.88584458113));
#211 = CARTESIAN_POINT('', (79.9411030491623, 0.058896950837656, 31.1057838057011));
#212 = CARTESIAN_POINT('', (79.9120177734132, 0.0879822265868011, 31.3235949756405));
#213 = CARTESIAN_POINT('', (79.8829751325252, 0.117024867474812, 31.5410868655062));
#214 = CARTESIAN_POINT('', (79.846848875555, 0.153151124445009, 31.7569083671844));
#215 = CARTESIAN_POINT('', (79.8040717387209, 0.195928261279109, 31.9698165757284));
#216 = CARTESIAN_POINT('', (79.7613583363259, 0.238641663674148, 32.1824075684359));
#217 = CARTESIAN_POINT('', (79.7119335675851, 0.288066432414907, 32.3925090402778));
#218 = CARTESIAN_POINT('', (79.6563397669253, 0.343660233074668, 32.5990579650513));
#219 = CARTESIAN_POINT('', (79.6008267745496, 0.399173225450424, 32.8053066609508));
#220 = CARTESIAN_POINT('', (79.5390660149686, 0.460933985031385, 33.0083847135982));
#221 = CARTESIAN_POINT('', (79.4716650782906, 0.528334921709409, 33.2074227418117));
#222 = CARTESIAN_POINT('', (79.4043565002034, 0.595643499796598, 33.4061880309103));
#223 = CARTESIAN_POINT('', (79.3313163233514, 0.668683676648653, 33.6012495870733));
#224 = CARTESIAN_POINT('', (79.2531778905556, 0.746822109444434, 33.7919254905304));
#225 = CARTESIAN_POINT('', (79.1751376559081, 0.82486234409195, 33.9823617677245));
#226 = CARTESIAN_POINT('', (79.0919003410938, 0.908099658906156, 34.1687030108145));
#227 = CARTESIAN_POINT('', (79.0040941490362, 0.99590585096383, 34.3504354443312));
#228 = CARTESIAN_POINT('', (78.9163870455649, 1.08361295443507, 34.5319627942481));
#229 = CARTESIAN_POINT('', (78.8240093058961, 1.17599069410386, 34.709128905556));
#230 = CARTESIAN_POINT('', (78.7275625792446, 1.27243742075535, 34.8815623959311));
#231 = CARTESIAN_POINT('', (78.6312121059257, 1.3687878940743, 35.0538237985779));
#232 = CARTESIAN_POINT('', (78.5306913688672, 1.46930863113277, 35.2215613343916));
#233 = CARTESIAN_POINT('', (78.4265625132083, 1.57343748679169, 35.3845189396076));
#234 = CARTESIAN_POINT('', (78.2703506093075, 1.72964939069246, 35.6289844876521));
#235 = CARTESIAN_POINT('', (78.1057350162069, 1.89426498379313, 35.8631288911787));
#236 = CARTESIAN_POINT('', (77.9344248457909, 2.06557515420907, 36.0864523629532));
#237 = CARTESIAN_POINT('', (77.7633983776781, 2.23660162232187, 36.3094059945534));
#238 = CARTESIAN_POINT('', (77.5853752394411, 2.41462476055886, 36.5220088552395));
#239 = CARTESIAN_POINT('', (77.4018230765927, 2.59817692340731, 36.72406239879));
#240 = CARTESIAN_POINT('', (77.218516379167, 2.78148362083294, 36.9258457349088));
#241 = CARTESIAN_POINT('', (77.0294026090746, 2.97059739092539, 37.1174369575589));
#242 = CARTESIAN_POINT('', (76.8357293788968, 3.16427062110316, 37.2988220870554));
#243 = CARTESIAN_POINT('', (76.6422670553898, 3.3577329446102, 37.4800096914021));
#244 = CARTESIAN_POINT('', (76.4439923086438, 3.55600769135622, 37.6512634279263));
#245 = CARTESIAN_POINT('', (76.2419641625378, 3.75803583746221, 37.8126745352404));
#246 = CARTESIAN_POINT('', (76.0401181926237, 3.9598818073763, 37.9739400922367));
#247 = CARTESIAN_POINT('', (75.8342893328701, 4.16571066712988, 38.1255716890581));
#248 = CARTESIAN_POINT('', (75.6253805552892, 4.37461944471084, 38.2677139287819));
#249 = CARTESIAN_POINT('', (75.4166314806675, 4.5833685193325, 38.4097475060715));
#250 = CARTESIAN_POINT('', (75.2045937018993, 4.79540629810068, 38.5424527297937));
#251 = CARTESIAN_POINT('', (74.9900438317559, 5.00995616824405, 38.6659946086502));
#252 = CARTESIAN_POINT('', (74.7756370793726, 5.22436292062734, 38.7894540775898));
#253 = CARTESIAN_POINT('', (74.5585270556371, 5.44147294436288, 38.9038751454294));
#254 = CARTESIAN_POINT('', (74.3393895895688, 5.66061041043124, 39.0094227334465));
#255 = CARTESIAN_POINT('', (74.0115754329701, 5.98842456702993, 39.1673144630882));
#256 = CARTESIAN_POINT('', (73.6787440080361, 6.32125599196394, 39.3055825592448));
#257 = CARTESIAN_POINT('', (73.3428425384958, 6.65715746150417, 39.42472300722));
#258 = CARTESIAN_POINT('', (73.0073511675624, 6.99264883243763, 39.5437179978628));
#259 = CARTESIAN_POINT('', (72.6682512293194, 7.33174877068061, 39.6438270190431));
#260 = CARTESIAN_POINT('', (72.3272167270339, 7.67278327296608, 39.7254337849483));
#261 = CARTESIAN_POINT('', (71.8185894770981, 8.1814105229019, 39.8471441240498));
#262 = CARTESIAN_POINT('', (71.3042943747733, 8.69570562522669, 39.9280288052807));
#263 = CARTESIAN_POINT('', (70.7892439006929, 9.21075609930706, 39.9688060501355));
#264 = CARTESIAN_POINT('', (70.5589221879751, 9.44107781202486, 39.9870409326325));
#265 = CARTESIAN_POINT('', (70.3282146737248, 9.67178532627622, 39.9972742288185));
#266 = CARTESIAN_POINT('', (70.0975378101417, 9.90246218985761, 39.9995243074655));
#267 = CARTESIAN_POINT('', (70.065025775812, 9.93497422418704, 39.9998414378143));
#268 = CARTESIAN_POINT('', (70.0325128076621, 9.96748719233786, 40.));
#269 = CARTESIAN_POINT('', (70., 10., 40.));
#270 = ORIENTED_EDGE('', *, *, #175, .T.);
#271 = ORIENTED_EDGE('', *, *, #79, .T.);
#272 = (
   BOUNDED_SURFACE ()
   B_SPLINE_SURFACE (2, 1, ((#273, #274), (#275, #276), (#277, #278)), .UNSPECIFIED., .F., .F., .U.)
   B_SPLINE_SURFACE_WITH_KNOTS ((3, 3), (2, 2), (0., 1.), (0.25, 0.75), .UNSPECIFIED.)
   GEOMETRIC_REPRESENTATION_ITEM ()
   RATIONAL_B_SPLINE_SURFACE (((1., 1.), (0.707106781186548, 0.707106781186548), (1., 1.)))
   REPRESENTATION_ITEM ('')
   SURFACE ()
);
#273 = CARTESIAN_POINT('', (70., -7.105427357601E-15, 40.));
#274 = CARTESIAN_POINT('', (70., 60., 40.));
#275 = CARTESIAN_POINT('', (80., -7.105427357601E-15, 40.));
#276 = CARTESIAN_POINT('', (80., 60., 40.));
#277 = CARTESIAN_POINT('', (80., -7.105427357601E-15, 30.));
#278 = CARTESIAN_POINT('', (80., 60., 30.));
#279 = ADVANCED_FACE('', (#280), #286, .T.);
#280 = FACE_OUTER_BOUND('', #281, .T.);
#281 = EDGE_LOOP('', (#282, #283, #284, #285));
#282 = ORIENTED_EDGE('', *, *, #30, .F.);
#283 = ORIENTED_EDGE('', *, *, #150, .T.);
#284 = ORIENTED_EDGE('', *, *, #59, .T.);
#285 = ORIENTED_EDGE('', *, *, #204, .T.);
#286 = (
   BOUNDED_SURFACE ()
   B_SPLINE_SURFACE (2, 1, ((#287, #288), (#289, #290), (#291, #292)), .UNSPECIFIED., .F., .F., .U.)
   B_SPLINE_SURFACE_WITH_KNOTS ((3, 3), (2, 2), (0., 1.), (0.25, 0.75), .UNSPECIFIED.)
   GEOMETRIC_REPRESENTATION_ITEM ()
   RATIONAL_B_SPLINE_SURFACE (((1., 1.), (0.707106781186547, 0.707106781186547), (1., 1.)))
   REPRESENTATION_ITEM ('')
   SURFACE ()
);
#287 = CARTESIAN_POINT('', (0., 10., 40.));
#288 = CARTESIAN_POINT('', (80., 10., 40.));
#289 = CARTESIAN_POINT('', (0., -5.02290881841391E-15, 40.));
#290 = CARTESIAN_POINT('', (80., -5.02290881841391E-15, 40.));
#291 = CARTESIAN_POINT('', (0., -1.77635683940025E-15, 30.));
#292 = CARTESIAN_POINT('', (80., -1.77635683940025E-15, 30.));
#293 = DRAUGHTING_MODEL('', (#301), #304);
#294 = PRESENTATION_STYLE_ASSIGNMENT((#295));
#295 = SURFACE_STYLE_USAGE(.POSITIVE., #296);
#296 = SURFACE_SIDE_STYLE('', (#297));
#297 = SURFACE_STYLE_FILL_AREA(#298);
#298 = FILL_AREA_STYLE('', (#299));
#299 = FILL_AREA_STYLE_COLOUR('', #300);
#300 = COLOUR_RGB('', 0.50196078431373, 0.50196078431373, 0.50196078431373);
#301 = STYLED_ITEM('', (#294), #1);
#302 = CARTESIAN_POINT('Origin', (0., 0., 0.));
#303 = GEOMETRIC_SET('', (#302));
#304 = (
   GEOMETRIC_REPRESENTATION_CONTEXT (3)
   GLOBAL_UNCERTAINTY_ASSIGNED_CONTEXT ((#306))
   GLOBAL_UNIT_ASSIGNED_CONTEXT ((#305, #307, #308))
   REPRESENTATION_CONTEXT ('', '3D')
);
#305 = (
   LENGTH_UNIT ()
   NAMED_UNIT (*)
   SI_UNIT (.MILLI., .METRE.)
);
#306 = UNCERTAINTY_MEASURE_WITH_UNIT(LENGTH_MEASURE(1.E-6), #305, 'DISTANCE_ACCURACY_VALUE', '');
#307 = (
   NAMED_UNIT (*)
   SI_UNIT ($, .STERADIAN.)
   SOLID_ANGLE_UNIT ()
);
#308 = (
   NAMED_UNIT (*)
   PLANE_ANGLE_UNIT ()
   SI_UNIT ($, .RADIAN.)
);
#309 = SHAPE_REPRESENTATION('', (#324), #304);
#310 = PRODUCT_DEFINITION_SHAPE('', '', #311);
#311 = PRODUCT_DEFINITION('', '', #314, #318);
#312 = APPLICATION_CONTEXT('configuration controlled 3D designs of mechanical parts and assemblies');
#313 = APPLICATION_PROTOCOL_DEFINITION('International Standard', 'automotive_design', 2002, #312);
#314 = PRODUCT_DEFINITION_FORMATION_WITH_SPECIFIED_SOURCE('', '', #315, .NOT_KNOWN.);
#315 = PRODUCT('FilletMulti', 'FilletMulti', '', (#316));
#316 = PRODUCT_CONTEXT('', #312, 'mechanical');
#317 = PRODUCT_RELATED_PRODUCT_CATEGORY('detail', '', (#315));
#318 = PRODUCT_DEFINITION_CONTEXT('part definition', #312, 'design');
#319 = SHAPE_DEFINITION_REPRESENTATION(#310, #309);
#320 = SHAPE_REPRESENTATION_RELATIONSHIP('', '', #309, #321);
#321 = SHAPE_REPRESENTATION('', (#303), #304);
#322 = SHAPE_REPRESENTATION_RELATIONSHIP('', '', #309, #323);
#323 = ADVANCED_BREP_SHAPE_REPRESENTATION('', (#1), #304);
#324 = AXIS2_PLACEMENT_3D('', #325, #326, #327);
#325 = CARTESIAN_POINT('', (0., 0., 0.));
#326 = DIRECTION('', (0., 0., 1.));
#327 = DIRECTION('', (1., 0., 0.));
ENDSEC;
END-ISO-10303-21;
