ISO-10303-21;
HEADER;
FILE_DESCRIPTION(('STEP'), '1');
FILE_NAME('FilletAllTop', '2026-04-20T12:17:15', (''), (''), 'Express 3.1.2.0', 'Express Tool', 'Unknown');
FILE_SCHEMA(('AUTOMOTIVE_DESIGN'));
ENDSEC;

DATA;
#1 = MANIFOLD_SOLID_BREP('TopFillet_0', #2);
#2 = CLOSED_SHELL('', (#3, #171, #339, #361, #383, #419, #439, #455, #471, #483));
#3 = ADVANCED_FACE('', (#4), #164, .T.);
#4 = FACE_OUTER_BOUND('', #5, .T.);
#5 = EDGE_LOOP('', (#6, #15, #90, #97));
#6 = ORIENTED_EDGE('', *, *, #7, .F.);
#7 = EDGE_CURVE('', #8, #10, #12, .T.);
#8 = VERTEX_POINT('', #9);
#9 = CARTESIAN_POINT('', (68., 12., 40.));
#10 = VERTEX_POINT('', #11);
#11 = CARTESIAN_POINT('', (68., 48., 40.));
#12 = B_SPLINE_CURVE_WITH_KNOTS('', 1, (#13, #14), .UNSPECIFIED., .F., .U., (2, 2), (0.35, 0.65), .UNSPECIFIED.);
#13 = CARTESIAN_POINT('', (68., 12., 40.));
#14 = CARTESIAN_POINT('', (68., 48., 40.));
#15 = ORIENTED_EDGE('', *, *, #16, .F.);
#16 = EDGE_CURVE('', #17, #8, #19, .T.);
#17 = VERTEX_POINT('', #18);
#18 = CARTESIAN_POINT('', (80., 0., 28.));
#19 = B_SPLINE_CURVE_WITH_KNOTS('', 3, (#20, #21, #22, #23, #24, #25, #26, #27, #28, #29, #30, #31, #32, #33, #34, #35, #36, #37, #38, #39, #40, #41, #42, #43, #44, #45, #46, #47, #48, #49, #50, #51, #52, #53, #54, #55, #56, #57, #58, #59, #60, #61, #62, #63, #64, #65, #66, #67, #68, #69, #70, #71, #72, #73, #74, #75, #76, #77, #78, #79, #80, #81, #82, #83, #84, #85, #86, #87, #88, #89), .UNSPECIFIED., .F., .U., (4, 3, 3, 3, 3, 3, 3, 3, 3, 3, 3, 3, 3, 3, 3, 3, 3, 3, 3, 3, 3, 3, 3, 4), (0., 0.664372198294548, 1.32811873973912, 1.99120162353345, 2.65360381894961, 3.31532857884263, 3.9763966823747, 4.63684241462793, 5.62884650296754, 6.61908121870182, 7.60780539855018, 8.59525807051896, 9.58164659303782, 10.5671435586664, 11.5518885389179, 12.5359919610319, 13.5195395328773, 14.9921983842834, 16.4634213603947, 17.9333503085689, 21.2085189388443, 22.6743728653376, 22.8687647685645, 22.9143847863768), .UNSPECIFIED.);
#20 = CARTESIAN_POINT('', (80., 8.88178419700125E-16, 28.));
#21 = CARTESIAN_POINT('', (80., 8.62176316574494E-16, 28.2214573994315));
#22 = CARTESIAN_POINT('', (79.9938555595127, 0.00614444048731121, 28.4430830136776));
#23 = CARTESIAN_POINT('', (79.9816228043106, 0.0183771956893919, 28.6638636721677));
#24 = CARTESIAN_POINT('', (79.9694015690173, 0.0305984309827438, 28.8844364156792));
#25 = CARTESIAN_POINT('', (79.9510856559881, 0.0489143440118486, 29.1044975210071));
#26 = CARTESIAN_POINT('', (79.9268385595048, 0.0731614404951992, 29.3230729290215));
#27 = CARTESIAN_POINT('', (79.9026157068706, 0.0973842931293205, 29.5414297909002));
#28 = CARTESIAN_POINT('', (79.872439103512, 0.12756089648797, 29.7586233574456));
#29 = CARTESIAN_POINT('', (79.8365666579023, 0.16343334209773, 29.97375017493));
#30 = CARTESIAN_POINT('', (79.8007310371864, 0.199268962813619, 30.188656153771));
#31 = CARTESIAN_POINT('', (79.7591624369469, 0.240837563053129, 30.4018005275453));
#32 = CARTESIAN_POINT('', (79.7121946762319, 0.287805323768048, 30.6123736076687));
#33 = CARTESIAN_POINT('', (79.6652749492189, 0.334725050781131, 30.822731335721));
#34 = CARTESIAN_POINT('', (79.6129066805667, 0.387093319433326, 31.0308008391907));
#35 = CARTESIAN_POINT('', (79.5554784912532, 0.444521508746818, 31.2358796081105));
#36 = CARTESIAN_POINT('', (79.4981072902649, 0.501892709735109, 31.4407548690367));
#37 = CARTESIAN_POINT('', (79.4356172502202, 0.564382749779815, 31.6428973191115));
#38 = CARTESIAN_POINT('', (79.3684308615517, 0.631569138448276, 31.841715729478));
#39 = CARTESIAN_POINT('', (79.3013077263944, 0.698692273605619, 32.0403469596316));
#40 = CARTESIAN_POINT('', (79.2294225610896, 0.770577438910379, 32.2358855568189));
#41 = CARTESIAN_POINT('', (79.1532130461774, 0.846786953822609, 32.4278480943432));
#42 = CARTESIAN_POINT('', (79.0387446702438, 0.96125532975622, 32.7161800688453));
#43 = CARTESIAN_POINT('', (78.9143001146353, 1.08569988536468, 32.9969712122532));
#44 = CARTESIAN_POINT('', (78.7813600631663, 1.21863993683372, 33.2689918569272));
#45 = CARTESIAN_POINT('', (78.6486571281446, 1.35134287185537, 33.540527316225));
#46 = CARTESIAN_POINT('', (78.5072275612194, 1.49277243878057, 33.8038772927575));
#47 = CARTESIAN_POINT('', (78.3584693985895, 1.64153060141049, 34.0582267800477));
#48 = CARTESIAN_POINT('', (78.2099381564456, 1.79006184355439, 34.3121882744488));
#49 = CARTESIAN_POINT('', (78.0538477333565, 1.94615226664352, 34.5576214558194));
#50 = CARTESIAN_POINT('', (77.8914713277857, 2.10852867221428, 34.7940264182291));
#51 = CARTESIAN_POINT('', (77.7293037396823, 2.27069626031768, 35.0301273618046));
#52 = CARTESIAN_POINT('', (77.5606283755002, 2.43937162449982, 35.2575775697292));
#53 = CARTESIAN_POINT('', (77.3865789751416, 2.61342102485843, 35.4761042758532));
#54 = CARTESIAN_POINT('', (77.2127171428345, 2.78728285716552, 35.6943954820078));
#55 = CARTESIAN_POINT('', (77.0332727245557, 2.96672727544437, 35.9040637406459));
#56 = CARTESIAN_POINT('', (76.8492423146861, 3.15075768531389, 36.1049929337396));
#57 = CARTESIAN_POINT('', (76.6653782424982, 3.33462175750186, 36.3057405150217));
#58 = CARTESIAN_POINT('', (76.4767346316342, 3.52326536836576, 36.4979882984056));
#59 = CARTESIAN_POINT('', (76.2841821699811, 3.71581783001894, 36.681723663799));
#60 = CARTESIAN_POINT('', (76.0917766358584, 3.90822336414162, 36.8653188295645));
#61 = CARTESIAN_POINT('', (75.8952837648202, 4.10471623517976, 37.0405925149754));
#62 = CARTESIAN_POINT('', (75.6954633075329, 4.30453669246716, 37.2075971068686));
#63 = CARTESIAN_POINT('', (75.4957730326206, 4.50422696737945, 37.3744928958158));
#64 = CARTESIAN_POINT('', (75.2925908444774, 4.70740915552259, 37.5332725460316));
#65 = CARTESIAN_POINT('', (75.0865812469281, 4.91341875307186, 37.684026343969));
#66 = CARTESIAN_POINT('', (74.8806880095983, 5.1193119904017, 37.8346949917717));
#67 = CARTESIAN_POINT('', (74.6718158243616, 5.32818417563838, 37.9774608466081));
#68 = CARTESIAN_POINT('', (74.4605488085091, 5.53945119149095, 38.11243339127));
#69 = CARTESIAN_POINT('', (74.1442201937968, 5.85577980620318, 38.3145268316719));
#70 = CARTESIAN_POINT('', (73.8221404837578, 6.1778595162422, 38.4993943724588));
#71 = CARTESIAN_POINT('', (73.4960004178448, 6.5039995821552, 38.6674260910048));
#72 = CARTESIAN_POINT('', (73.1701783457855, 6.8298216542145, 38.8352939748696));
#73 = CARTESIAN_POINT('', (72.8398707806779, 7.16012921932211, 38.9865837972431));
#74 = CARTESIAN_POINT('', (72.5065136685438, 7.49348633145625, 39.1216606024113));
#75 = CARTESIAN_POINT('', (72.1734497637773, 7.82655023622273, 39.2566185995114));
#76 = CARTESIAN_POINT('', (71.836947639247, 8.16305236075302, 39.37555265843));
#77 = CARTESIAN_POINT('', (71.4982570440699, 8.50174295593011, 39.4787716090885));
#78 = CARTESIAN_POINT('', (70.7436159343271, 9.25638406567291, 39.7087551533043));
#79 = CARTESIAN_POINT('', (69.975377916882, 10.024622083118, 39.8615695899804));
#80 = CARTESIAN_POINT('', (69.205372860285, 10.794627139715, 39.9393080313596));
#81 = CARTESIAN_POINT('', (68.8607448233655, 11.1392551766345, 39.9741011099455));
#82 = CARTESIAN_POINT('', (68.5151994138029, 11.4848005861972, 39.9939132590835));
#83 = CARTESIAN_POINT('', (68.1697116085506, 11.8302883914493, 39.998799855399));
#84 = CARTESIAN_POINT('', (68.1238952889359, 11.876104711064, 39.9994478836513));
#85 = CARTESIAN_POINT('', (68.0780767376013, 11.9219232623988, 39.9998334728339));
#86 = CARTESIAN_POINT('', (68.0322582093835, 11.9677417906163, 39.9999566419186));
#87 = CARTESIAN_POINT('', (68.0215054874916, 11.9784945125081, 39.9999855473193));
#88 = CARTESIAN_POINT('', (68.0107527413177, 11.9892472586824, 40.));
#89 = CARTESIAN_POINT('', (68., 12., 40.));
#90 = ORIENTED_EDGE('', *, *, #91, .T.);
#91 = EDGE_CURVE('', #17, #92, #94, .T.);
#92 = VERTEX_POINT('', #93);
#93 = CARTESIAN_POINT('', (80., 60., 28.));
#94 = B_SPLINE_CURVE_WITH_KNOTS('', 1, (#95, #96), .UNSPECIFIED., .F., .U., (2, 2), (0.25, 0.75), .UNSPECIFIED.);
#95 = CARTESIAN_POINT('', (80., 0., 28.));
#96 = CARTESIAN_POINT('', (80., 60., 28.));
#97 = ORIENTED_EDGE('', *, *, #98, .T.);
#98 = EDGE_CURVE('', #92, #10, #99, .T.);
#99 = B_SPLINE_CURVE_WITH_KNOTS('', 3, (#100, #101, #102, #103, #104, #105, #106, #107, #108, #109, #110, #111, #112, #113, #114, #115, #116, #117, #118, #119, #120, #121, #122, #123, #124, #125, #126, #127, #128, #129, #130, #131, #132, #133, #134, #135, #136, #137, #138, #139, #140, #141, #142, #143, #144, #145, #146, #147, #148, #149, #150, #151, #152, #153, #154, #155, #156, #157, #158, #159, #160, #161, #162, #163), .UNSPECIFIED., .F., .U., (4, 3, 3, 3, 3, 3, 3, 3, 3, 3, 3, 3, 3, 3, 3, 3, 3, 3, 3, 3, 3, 4), (0., 0.664372198294548, 1.32811873973912, 1.99120162353346, 2.65360381894962, 3.31532857884265, 3.97639668237471, 4.63684241462795, 5.62884650296755, 6.61908121870183, 7.60780539855016, 8.59525807051896, 9.58164659303783, 10.5671435586664, 11.5518885389179, 12.5359919610319, 13.5195395328773, 14.9921983842834, 16.4634213603947, 17.933350308569, 21.2085189388444, 22.9142536719376), .UNSPECIFIED.);
#100 = CARTESIAN_POINT('', (80., 60., 28.));
#101 = CARTESIAN_POINT('', (80., 60., 28.2214573994315));
#102 = CARTESIAN_POINT('', (79.9938555595127, 59.9938555595127, 28.4430830136776));
#103 = CARTESIAN_POINT('', (79.9816228043106, 59.9816228043106, 28.6638636721677));
#104 = CARTESIAN_POINT('', (79.9694015690173, 59.9694015690173, 28.8844364156792));
#105 = CARTESIAN_POINT('', (79.9510856559881, 59.9510856559882, 29.1044975210071));
#106 = CARTESIAN_POINT('', (79.9268385595048, 59.9268385595048, 29.3230729290215));
#107 = CARTESIAN_POINT('', (79.9026157068706, 59.9026157068707, 29.5414297909002));
#108 = CARTESIAN_POINT('', (79.872439103512, 59.872439103512, 29.7586233574456));
#109 = CARTESIAN_POINT('', (79.8365666579023, 59.8365666579023, 29.97375017493));
#110 = CARTESIAN_POINT('', (79.8007310371864, 59.8007310371864, 30.188656153771));
#111 = CARTESIAN_POINT('', (79.7591624369469, 59.7591624369469, 30.4018005275453));
#112 = CARTESIAN_POINT('', (79.7121946762319, 59.712194676232, 30.6123736076687));
#113 = CARTESIAN_POINT('', (79.6652749492189, 59.6652749492189, 30.822731335721));
#114 = CARTESIAN_POINT('', (79.6129066805667, 59.6129066805667, 31.0308008391908));
#115 = CARTESIAN_POINT('', (79.5554784912532, 59.5554784912532, 31.2358796081105));
#116 = CARTESIAN_POINT('', (79.4981072902649, 59.4981072902649, 31.4407548690367));
#117 = CARTESIAN_POINT('', (79.4356172502202, 59.4356172502202, 31.6428973191115));
#118 = CARTESIAN_POINT('', (79.3684308615517, 59.3684308615517, 31.841715729478));
#119 = CARTESIAN_POINT('', (79.3013077263944, 59.3013077263944, 32.0403469596316));
#120 = CARTESIAN_POINT('', (79.2294225610896, 59.2294225610896, 32.235885556819));
#121 = CARTESIAN_POINT('', (79.1532130461774, 59.1532130461774, 32.4278480943432));
#122 = CARTESIAN_POINT('', (79.0387446702438, 59.0387446702438, 32.7161800688453));
#123 = CARTESIAN_POINT('', (78.9143001146353, 58.9143001146353, 32.9969712122532));
#124 = CARTESIAN_POINT('', (78.7813600631663, 58.7813600631663, 33.2689918569272));
#125 = CARTESIAN_POINT('', (78.6486571281446, 58.6486571281446, 33.540527316225));
#126 = CARTESIAN_POINT('', (78.5072275612194, 58.5072275612194, 33.8038772927575));
#127 = CARTESIAN_POINT('', (78.3584693985895, 58.3584693985895, 34.0582267800477));
#128 = CARTESIAN_POINT('', (78.2099381564456, 58.2099381564456, 34.3121882744488));
#129 = CARTESIAN_POINT('', (78.0538477333565, 58.0538477333565, 34.5576214558194));
#130 = CARTESIAN_POINT('', (77.8914713277857, 57.8914713277857, 34.7940264182291));
#131 = CARTESIAN_POINT('', (77.7293037396823, 57.7293037396823, 35.0301273618046));
#132 = CARTESIAN_POINT('', (77.5606283755002, 57.5606283755002, 35.2575775697292));
#133 = CARTESIAN_POINT('', (77.3865789751416, 57.3865789751416, 35.4761042758532));
#134 = CARTESIAN_POINT('', (77.2127171428345, 57.2127171428345, 35.6943954820078));
#135 = CARTESIAN_POINT('', (77.0332727245557, 57.0332727245556, 35.9040637406459));
#136 = CARTESIAN_POINT('', (76.8492423146861, 56.8492423146861, 36.1049929337396));
#137 = CARTESIAN_POINT('', (76.6653782424982, 56.6653782424981, 36.3057405150217));
#138 = CARTESIAN_POINT('', (76.4767346316342, 56.4767346316342, 36.4979882984056));
#139 = CARTESIAN_POINT('', (76.2841821699811, 56.2841821699811, 36.681723663799));
#140 = CARTESIAN_POINT('', (76.0917766358584, 56.0917766358584, 36.8653188295645));
#141 = CARTESIAN_POINT('', (75.8952837648202, 55.8952837648202, 37.0405925149755));
#142 = CARTESIAN_POINT('', (75.6954633075328, 55.6954633075328, 37.2075971068686));
#143 = CARTESIAN_POINT('', (75.4957730326206, 55.4957730326205, 37.3744928958158));
#144 = CARTESIAN_POINT('', (75.2925908444774, 55.2925908444774, 37.5332725460316));
#145 = CARTESIAN_POINT('', (75.0865812469281, 55.0865812469281, 37.6840263439691));
#146 = CARTESIAN_POINT('', (74.8806880095983, 54.8806880095983, 37.8346949917717));
#147 = CARTESIAN_POINT('', (74.6718158243616, 54.6718158243616, 37.9774608466081));
#148 = CARTESIAN_POINT('', (74.4605488085091, 54.4605488085091, 38.11243339127));
#149 = CARTESIAN_POINT('', (74.1442201937968, 54.1442201937968, 38.3145268316719));
#150 = CARTESIAN_POINT('', (73.8221404837578, 53.8221404837578, 38.4993943724588));
#151 = CARTESIAN_POINT('', (73.4960004178448, 53.4960004178448, 38.6674260910048));
#152 = CARTESIAN_POINT('', (73.1701783457855, 53.1701783457855, 38.8352939748696));
#153 = CARTESIAN_POINT('', (72.8398707806779, 52.8398707806779, 38.9865837972431));
#154 = CARTESIAN_POINT('', (72.5065136685438, 52.5065136685437, 39.1216606024113));
#155 = CARTESIAN_POINT('', (72.1734497637773, 52.1734497637773, 39.2566185995114));
#156 = CARTESIAN_POINT('', (71.836947639247, 51.836947639247, 39.37555265843));
#157 = CARTESIAN_POINT('', (71.4982570440699, 51.4982570440699, 39.4787716090885));
#158 = CARTESIAN_POINT('', (70.7436159343271, 50.7436159343271, 39.7087551533043));
#159 = CARTESIAN_POINT('', (69.975377916882, 49.9753779168819, 39.8615695899804));
#160 = CARTESIAN_POINT('', (69.205372860285, 49.205372860285, 39.9393080313596));
#161 = CARTESIAN_POINT('', (68.8043479000574, 48.8043479000574, 39.9797948503684));
#162 = CARTESIAN_POINT('', (68.4020455322252, 48.4020455322252, 40.));
#163 = CARTESIAN_POINT('', (68., 48., 40.));
#164 = (
   BOUNDED_SURFACE ()
   B_SPLINE_SURFACE (2, 1, ((#165, #166), (#167, #168), (#169, #170)), .UNSPECIFIED., .F., .F., .U.)
   B_SPLINE_SURFACE_WITH_KNOTS ((3, 3), (2, 2), (0., 1.), (0.25, 0.75), .UNSPECIFIED.)
   GEOMETRIC_REPRESENTATION_ITEM ()
   RATIONAL_B_SPLINE_SURFACE (((1., 1.), (0.707106781186545, 0.707106781186545), (1., 1.)))
   REPRESENTATION_ITEM ('')
   SURFACE ()
);
#165 = CARTESIAN_POINT('', (68., 0., 40.));
#166 = CARTESIAN_POINT('', (68., 60., 40.));
#167 = CARTESIAN_POINT('', (80., 0., 40.));
#168 = CARTESIAN_POINT('', (80., 60., 40.));
#169 = CARTESIAN_POINT('', (80., 0., 28.));
#170 = CARTESIAN_POINT('', (80., 60., 28.));
#171 = ADVANCED_FACE('', (#172), #332, .T.);
#172 = FACE_OUTER_BOUND('', #173, .T.);
#173 = EDGE_LOOP('', (#174, #183, #252, #259));
#174 = ORIENTED_EDGE('', *, *, #175, .F.);
#175 = EDGE_CURVE('', #176, #178, #180, .T.);
#176 = VERTEX_POINT('', #177);
#177 = CARTESIAN_POINT('', (0., 0., 28.));
#178 = VERTEX_POINT('', #179);
#179 = CARTESIAN_POINT('', (0., 60., 28.));
#180 = B_SPLINE_CURVE_WITH_KNOTS('', 1, (#181, #182), .UNSPECIFIED., .F., .U., (2, 2), (0.25, 0.75), .UNSPECIFIED.);
#181 = CARTESIAN_POINT('', (0., 0., 28.));
#182 = CARTESIAN_POINT('', (0., 60., 28.));
#183 = ORIENTED_EDGE('', *, *, #184, .T.);
#184 = EDGE_CURVE('', #176, #185, #187, .T.);
#185 = VERTEX_POINT('', #186);
#186 = CARTESIAN_POINT('', (12., 12., 40.));
#187 = B_SPLINE_CURVE_WITH_KNOTS('', 3, (#188, #189, #190, #191, #192, #193, #194, #195, #196, #197, #198, #199, #200, #201, #202, #203, #204, #205, #206, #207, #208, #209, #210, #211, #212, #213, #214, #215, #216, #217, #218, #219, #220, #221, #222, #223, #224, #225, #226, #227, #228, #229, #230, #231, #232, #233, #234, #235, #236, #237, #238, #239, #240, #241, #242, #243, #244, #245, #246, #247, #248, #249, #250, #251), .UNSPECIFIED., .F., .U., (4, 3, 3, 3, 3, 3, 3, 3, 3, 3, 3, 3, 3, 3, 3, 3, 3, 3, 3, 3, 3, 4), (0., 0.664372198294555, 1.32811873973912, 1.99120162353345, 2.65360381894961, 3.31532857884264, 3.97639668237471, 4.63684241462793, 5.62884650296754, 6.61908121870181, 7.60780539855015, 8.59525807051894, 9.58164659303782, 10.5671435586664, 11.5518885389179, 12.5359919610319, 13.5195395328773, 14.9921983842834, 16.4634213603946, 17.9333503085689, 21.2085189388443, 22.9142536719376), .UNSPECIFIED.);
#188 = CARTESIAN_POINT('', (0., 8.88178419700125E-16, 28.));
#189 = CARTESIAN_POINT('', (-6.55645610193285E-17, 8.62176316574494E-16, 28.2214573994315));
#190 = CARTESIAN_POINT('', (0.00614444048730838, 0.00614444048731102, 28.4430830136776));
#191 = CARTESIAN_POINT('', (0.0183771956893892, 0.0183771956893919, 28.6638636721677));
#192 = CARTESIAN_POINT('', (0.0305984309827411, 0.0305984309827438, 28.8844364156792));
#193 = CARTESIAN_POINT('', (0.0489143440118479, 0.0489143440118488, 29.1044975210071));
#194 = CARTESIAN_POINT('', (0.0731614404951983, 0.0731614404951992, 29.3230729290215));
#195 = CARTESIAN_POINT('', (0.0973842931293196, 0.0973842931293205, 29.5414297909002));
#196 = CARTESIAN_POINT('', (0.127560896487967, 0.127560896487971, 29.7586233574456));
#197 = CARTESIAN_POINT('', (0.163433342097727, 0.163433342097731, 29.97375017493));
#198 = CARTESIAN_POINT('', (0.199268962813616, 0.19926896281362, 30.188656153771));
#199 = CARTESIAN_POINT('', (0.240837563053125, 0.240837563053129, 30.4018005275453));
#200 = CARTESIAN_POINT('', (0.287805323768044, 0.287805323768048, 30.6123736076687));
#201 = CARTESIAN_POINT('', (0.334725050781128, 0.334725050781132, 30.822731335721));
#202 = CARTESIAN_POINT('', (0.387093319433324, 0.387093319433324, 31.0308008391907));
#203 = CARTESIAN_POINT('', (0.444521508746817, 0.444521508746818, 31.2358796081105));
#204 = CARTESIAN_POINT('', (0.501892709735108, 0.501892709735109, 31.4407548690367));
#205 = CARTESIAN_POINT('', (0.564382749779816, 0.564382749779817, 31.6428973191115));
#206 = CARTESIAN_POINT('', (0.631569138448277, 0.631569138448278, 31.841715729478));
#207 = CARTESIAN_POINT('', (0.698692273605619, 0.69869227360562, 32.0403469596316));
#208 = CARTESIAN_POINT('', (0.770577438910377, 0.77057743891038, 32.2358855568189));
#209 = CARTESIAN_POINT('', (0.846786953822606, 0.846786953822609, 32.4278480943432));
#210 = CARTESIAN_POINT('', (0.961255329756217, 0.961255329756219, 32.7161800688453));
#211 = CARTESIAN_POINT('', (1.08569988536468, 1.08569988536468, 32.9969712122532));
#212 = CARTESIAN_POINT('', (1.21863993683371, 1.21863993683372, 33.2689918569272));
#213 = CARTESIAN_POINT('', (1.35134287185536, 1.35134287185536, 33.540527316225));
#214 = CARTESIAN_POINT('', (1.49277243878056, 1.49277243878056, 33.8038772927575));
#215 = CARTESIAN_POINT('', (1.64153060141048, 1.64153060141049, 34.0582267800476));
#216 = CARTESIAN_POINT('', (1.79006184355438, 1.79006184355438, 34.3121882744488));
#217 = CARTESIAN_POINT('', (1.94615226664351, 1.94615226664352, 34.5576214558193));
#218 = CARTESIAN_POINT('', (2.10852867221426, 2.10852867221427, 34.794026418229));
#219 = CARTESIAN_POINT('', (2.27069626031767, 2.27069626031768, 35.0301273618046));
#220 = CARTESIAN_POINT('', (2.43937162449981, 2.43937162449981, 35.2575775697292));
#221 = CARTESIAN_POINT('', (2.61342102485842, 2.61342102485842, 35.4761042758532));
#222 = CARTESIAN_POINT('', (2.78728285716551, 2.78728285716551, 35.6943954820078));
#223 = CARTESIAN_POINT('', (2.96672727544435, 2.96672727544435, 35.9040637406459));
#224 = CARTESIAN_POINT('', (3.15075768531387, 3.15075768531387, 36.1049929337396));
#225 = CARTESIAN_POINT('', (3.33462175750184, 3.33462175750184, 36.3057405150216));
#226 = CARTESIAN_POINT('', (3.52326536836575, 3.52326536836575, 36.4979882984055));
#227 = CARTESIAN_POINT('', (3.71581783001893, 3.71581783001893, 36.681723663799));
#228 = CARTESIAN_POINT('', (3.90822336414161, 3.90822336414161, 36.8653188295644));
#229 = CARTESIAN_POINT('', (4.10471623517974, 4.10471623517975, 37.0405925149754));
#230 = CARTESIAN_POINT('', (4.30453669246714, 4.30453669246714, 37.2075971068686));
#231 = CARTESIAN_POINT('', (4.50422696737943, 4.50422696737943, 37.3744928958158));
#232 = CARTESIAN_POINT('', (4.70740915552258, 4.70740915552258, 37.5332725460316));
#233 = CARTESIAN_POINT('', (4.91341875307185, 4.91341875307185, 37.684026343969));
#234 = CARTESIAN_POINT('', (5.11931199040169, 5.11931199040169, 37.8346949917717));
#235 = CARTESIAN_POINT('', (5.32818417563836, 5.32818417563838, 37.9774608466081));
#236 = CARTESIAN_POINT('', (5.53945119149093, 5.53945119149094, 38.11243339127));
#237 = CARTESIAN_POINT('', (5.85577980620316, 5.85577980620317, 38.3145268316718));
#238 = CARTESIAN_POINT('', (6.17785951624216, 6.17785951624218, 38.4993943724588));
#239 = CARTESIAN_POINT('', (6.50399958215516, 6.50399958215518, 38.6674260910048));
#240 = CARTESIAN_POINT('', (6.82982165421446, 6.82982165421449, 38.8352939748696));
#241 = CARTESIAN_POINT('', (7.16012921932209, 7.1601292193221, 38.9865837972431));
#242 = CARTESIAN_POINT('', (7.49348633145623, 7.49348633145624, 39.1216606024113));
#243 = CARTESIAN_POINT('', (7.82655023622271, 7.82655023622272, 39.2566185995114));
#244 = CARTESIAN_POINT('', (8.16305236075299, 8.16305236075299, 39.37555265843));
#245 = CARTESIAN_POINT('', (8.50174295593008, 8.50174295593008, 39.4787716090885));
#246 = CARTESIAN_POINT('', (9.25638406567288, 9.25638406567288, 39.7087551533043));
#247 = CARTESIAN_POINT('', (10.024622083118, 10.024622083118, 39.8615695899804));
#248 = CARTESIAN_POINT('', (10.794627139715, 10.794627139715, 39.9393080313596));
#249 = CARTESIAN_POINT('', (11.1956520999426, 11.1956520999426, 39.9797948503684));
#250 = CARTESIAN_POINT('', (11.5979544677748, 11.5979544677748, 40.));
#251 = CARTESIAN_POINT('', (12., 12., 40.));
#252 = ORIENTED_EDGE('', *, *, #253, .T.);
#253 = EDGE_CURVE('', #185, #254, #256, .T.);
#254 = VERTEX_POINT('', #255);
#255 = CARTESIAN_POINT('', (12., 48., 40.));
#256 = B_SPLINE_CURVE_WITH_KNOTS('', 1, (#257, #258), .UNSPECIFIED., .F., .U., (2, 2), (0.35, 0.65), .UNSPECIFIED.);
#257 = CARTESIAN_POINT('', (12., 12., 40.));
#258 = CARTESIAN_POINT('', (12., 48., 40.));
#259 = ORIENTED_EDGE('', *, *, #260, .F.);
#260 = EDGE_CURVE('', #178, #254, #261, .T.);
#261 = B_SPLINE_CURVE_WITH_KNOTS('', 3, (#262, #263, #264, #265, #266, #267, #268, #269, #270, #271, #272, #273, #274, #275, #276, #277, #278, #279, #280, #281, #282, #283, #284, #285, #286, #287, #288, #289, #290, #291, #292, #293, #294, #295, #296, #297, #298, #299, #300, #301, #302, #303, #304, #305, #306, #307, #308, #309, #310, #311, #312, #313, #314, #315, #316, #317, #318, #319, #320, #321, #322, #323, #324, #325, #326, #327, #328, #329, #330, #331), .UNSPECIFIED., .F., .U., (4, 3, 3, 3, 3, 3, 3, 3, 3, 3, 3, 3, 3, 3, 3, 3, 3, 3, 3, 3, 3, 3, 3, 4), (0., 0.664372198294555, 1.32811873973912, 1.99120162353345, 2.65360381894961, 3.31532857884263, 3.9763966823747, 4.63684241462791, 5.62884650296752, 6.61908121870179, 7.60780539855014, 8.59525807051892, 9.58164659303779, 10.5671435586663, 11.5518885389178, 12.5359919610319, 13.5195395328773, 14.9921983842834, 16.4634213603946, 17.9333503085689, 21.2085189388443, 22.6743728653375, 22.8687647685644, 22.9143847863768), .UNSPECIFIED.);
#262 = CARTESIAN_POINT('', (0., 60., 28.));
#263 = CARTESIAN_POINT('', (-6.55645610193284E-17, 60., 28.2214573994315));
#264 = CARTESIAN_POINT('', (0.0061444404873084, 59.9938555595127, 28.4430830136776));
#265 = CARTESIAN_POINT('', (0.0183771956893892, 59.9816228043106, 28.6638636721677));
#266 = CARTESIAN_POINT('', (0.0305984309827411, 59.9694015690173, 28.8844364156792));
#267 = CARTESIAN_POINT('', (0.0489143440118478, 59.9510856559882, 29.1044975210071));
#268 = CARTESIAN_POINT('', (0.0731614404951983, 59.9268385595048, 29.3230729290215));
#269 = CARTESIAN_POINT('', (0.0973842931293197, 59.9026157068707, 29.5414297909002));
#270 = CARTESIAN_POINT('', (0.127560896487967, 59.872439103512, 29.7586233574456));
#271 = CARTESIAN_POINT('', (0.163433342097727, 59.8365666579023, 29.97375017493));
#272 = CARTESIAN_POINT('', (0.199268962813616, 59.8007310371864, 30.188656153771));
#273 = CARTESIAN_POINT('', (0.240837563053125, 59.7591624369469, 30.4018005275453));
#274 = CARTESIAN_POINT('', (0.287805323768044, 59.712194676232, 30.6123736076687));
#275 = CARTESIAN_POINT('', (0.334725050781127, 59.6652749492189, 30.822731335721));
#276 = CARTESIAN_POINT('', (0.387093319433323, 59.6129066805667, 31.0308008391907));
#277 = CARTESIAN_POINT('', (0.444521508746815, 59.5554784912532, 31.2358796081104));
#278 = CARTESIAN_POINT('', (0.501892709735106, 59.4981072902649, 31.4407548690367));
#279 = CARTESIAN_POINT('', (0.564382749779811, 59.4356172502202, 31.6428973191115));
#280 = CARTESIAN_POINT('', (0.631569138448272, 59.3684308615517, 31.841715729478));
#281 = CARTESIAN_POINT('', (0.698692273605614, 59.3013077263944, 32.0403469596316));
#282 = CARTESIAN_POINT('', (0.770577438910371, 59.2294225610896, 32.2358855568189));
#283 = CARTESIAN_POINT('', (0.846786953822599, 59.1532130461774, 32.4278480943432));
#284 = CARTESIAN_POINT('', (0.961255329756209, 59.0387446702438, 32.7161800688453));
#285 = CARTESIAN_POINT('', (1.08569988536467, 58.9143001146353, 32.9969712122531));
#286 = CARTESIAN_POINT('', (1.21863993683371, 58.7813600631663, 33.2689918569272));
#287 = CARTESIAN_POINT('', (1.35134287185536, 58.6486571281446, 33.540527316225));
#288 = CARTESIAN_POINT('', (1.49277243878055, 58.5072275612194, 33.8038772927575));
#289 = CARTESIAN_POINT('', (1.64153060141048, 58.3584693985895, 34.0582267800476));
#290 = CARTESIAN_POINT('', (1.79006184355437, 58.2099381564456, 34.3121882744488));
#291 = CARTESIAN_POINT('', (1.9461522666435, 58.0538477333565, 34.5576214558193));
#292 = CARTESIAN_POINT('', (2.10852867221425, 57.8914713277857, 34.794026418229));
#293 = CARTESIAN_POINT('', (2.27069626031766, 57.7293037396823, 35.0301273618046));
#294 = CARTESIAN_POINT('', (2.43937162449979, 57.5606283755002, 35.2575775697292));
#295 = CARTESIAN_POINT('', (2.6134210248584, 57.3865789751416, 35.4761042758532));
#296 = CARTESIAN_POINT('', (2.78728285716549, 57.2127171428345, 35.6943954820078));
#297 = CARTESIAN_POINT('', (2.96672727544433, 57.0332727245557, 35.9040637406459));
#298 = CARTESIAN_POINT('', (3.15075768531386, 56.8492423146861, 36.1049929337396));
#299 = CARTESIAN_POINT('', (3.33462175750182, 56.6653782424982, 36.3057405150216));
#300 = CARTESIAN_POINT('', (3.52326536836574, 56.4767346316343, 36.4979882984055));
#301 = CARTESIAN_POINT('', (3.71581783001892, 56.2841821699811, 36.681723663799));
#302 = CARTESIAN_POINT('', (3.9082233641416, 56.0917766358584, 36.8653188295644));
#303 = CARTESIAN_POINT('', (4.10471623517972, 55.8952837648203, 37.0405925149754));
#304 = CARTESIAN_POINT('', (4.30453669246712, 55.6954633075329, 37.2075971068686));
#305 = CARTESIAN_POINT('', (4.50422696737941, 55.4957730326206, 37.3744928958158));
#306 = CARTESIAN_POINT('', (4.70740915552257, 55.2925908444774, 37.5332725460316));
#307 = CARTESIAN_POINT('', (4.91341875307184, 55.0865812469282, 37.684026343969));
#308 = CARTESIAN_POINT('', (5.11931199040168, 54.8806880095983, 37.8346949917717));
#309 = CARTESIAN_POINT('', (5.32818417563835, 54.6718158243617, 37.9774608466081));
#310 = CARTESIAN_POINT('', (5.53945119149091, 54.4605488085091, 38.11243339127));
#311 = CARTESIAN_POINT('', (5.85577980620314, 54.1442201937969, 38.3145268316718));
#312 = CARTESIAN_POINT('', (6.17785951624215, 53.8221404837578, 38.4993943724588));
#313 = CARTESIAN_POINT('', (6.50399958215515, 53.4960004178449, 38.6674260910048));
#314 = CARTESIAN_POINT('', (6.82982165421446, 53.1701783457856, 38.8352939748696));
#315 = CARTESIAN_POINT('', (7.16012921932207, 52.8398707806779, 38.9865837972431));
#316 = CARTESIAN_POINT('', (7.49348633145622, 52.5065136685438, 39.1216606024113));
#317 = CARTESIAN_POINT('', (7.8265502362227, 52.1734497637773, 39.2566185995114));
#318 = CARTESIAN_POINT('', (8.16305236075299, 51.836947639247, 39.37555265843));
#319 = CARTESIAN_POINT('', (8.50174295593008, 51.4982570440699, 39.4787716090885));
#320 = CARTESIAN_POINT('', (9.25638406567288, 50.7436159343271, 39.7087551533043));
#321 = CARTESIAN_POINT('', (10.024622083118, 49.975377916882, 39.8615695899804));
#322 = CARTESIAN_POINT('', (10.794627139715, 49.2053728602851, 39.9393080313596));
#323 = CARTESIAN_POINT('', (11.1392551766345, 48.8607448233655, 39.9741011099455));
#324 = CARTESIAN_POINT('', (11.4848005861974, 48.5151994138031, 39.9939132590835));
#325 = CARTESIAN_POINT('', (11.8302883914491, 48.1697116085505, 39.998799855399));
#326 = CARTESIAN_POINT('', (11.8761047110637, 48.1238952889357, 39.9994478836513));
#327 = CARTESIAN_POINT('', (11.9219232623983, 48.0780767376009, 39.9998334728339));
#328 = CARTESIAN_POINT('', (11.9677417906173, 48.0322582093846, 39.9999566419186));
#329 = CARTESIAN_POINT('', (11.9784945125094, 48.021505487493, 39.9999855473193));
#330 = CARTESIAN_POINT('', (11.9892472586823, 48.0107527413177, 40.));
#331 = CARTESIAN_POINT('', (12., 48., 40.));
#332 = (
   BOUNDED_SURFACE ()
   B_SPLINE_SURFACE (2, 1, ((#333, #334), (#335, #336), (#337, #338)), .UNSPECIFIED., .F., .F., .U.)
   B_SPLINE_SURFACE_WITH_KNOTS ((3, 3), (2, 2), (0., 1.), (0.25, 0.75), .UNSPECIFIED.)
   GEOMETRIC_REPRESENTATION_ITEM ()
   RATIONAL_B_SPLINE_SURFACE (((1., 1.), (0.707106781186547, 0.707106781186547), (1., 1.)))
   REPRESENTATION_ITEM ('')
   SURFACE ()
);
#333 = CARTESIAN_POINT('', (0., 0., 28.));
#334 = CARTESIAN_POINT('', (0., 60., 28.));
#335 = CARTESIAN_POINT('', (-3.5527136788005E-15, 0., 40.));
#336 = CARTESIAN_POINT('', (-3.5527136788005E-15, 60., 40.));
#337 = CARTESIAN_POINT('', (12., 0., 40.));
#338 = CARTESIAN_POINT('', (12., 60., 40.));
#339 = ADVANCED_FACE('', (#340), #354, .T.);
#340 = FACE_OUTER_BOUND('', #341, .T.);
#341 = EDGE_LOOP('', (#342, #347, #348, #353));
#342 = ORIENTED_EDGE('', *, *, #343, .F.);
#343 = EDGE_CURVE('', #185, #8, #344, .T.);
#344 = B_SPLINE_CURVE_WITH_KNOTS('', 1, (#345, #346), .UNSPECIFIED., .F., .U., (2, 2), (0.325, 0.675), .UNSPECIFIED.);
#345 = CARTESIAN_POINT('', (12., 12., 40.));
#346 = CARTESIAN_POINT('', (68., 12., 40.));
#347 = ORIENTED_EDGE('', *, *, #184, .F.);
#348 = ORIENTED_EDGE('', *, *, #349, .T.);
#349 = EDGE_CURVE('', #176, #17, #350, .T.);
#350 = B_SPLINE_CURVE_WITH_KNOTS('', 1, (#351, #352), .UNSPECIFIED., .F., .U., (2, 2), (0.25, 0.75), .UNSPECIFIED.);
#351 = CARTESIAN_POINT('', (0., 0., 28.));
#352 = CARTESIAN_POINT('', (80., 0., 28.));
#353 = ORIENTED_EDGE('', *, *, #16, .T.);
#354 = (
   BOUNDED_SURFACE ()
   B_SPLINE_SURFACE (2, 1, ((#355, #356), (#357, #358), (#359, #360)), .UNSPECIFIED., .F., .F., .U.)
   B_SPLINE_SURFACE_WITH_KNOTS ((3, 3), (2, 2), (0., 1.), (0.25, 0.75), .UNSPECIFIED.)
   GEOMETRIC_REPRESENTATION_ITEM ()
   RATIONAL_B_SPLINE_SURFACE (((1., 1.), (0.707106781186548, 0.707106781186548), (1., 1.)))
   REPRESENTATION_ITEM ('')
   SURFACE ()
);
#355 = CARTESIAN_POINT('', (0., 12., 40.));
#356 = CARTESIAN_POINT('', (80., 12., 40.));
#357 = CARTESIAN_POINT('', (0., 3.67394039744206E-16, 40.));
#358 = CARTESIAN_POINT('', (80., 3.67394039744206E-16, 40.));
#359 = CARTESIAN_POINT('', (0., 1.77635683940025E-15, 28.));
#360 = CARTESIAN_POINT('', (80., 1.77635683940025E-15, 28.));
#361 = ADVANCED_FACE('', (#362), #376, .T.);
#362 = FACE_OUTER_BOUND('', #363, .T.);
#363 = EDGE_LOOP('', (#364, #369, #370, #375));
#364 = ORIENTED_EDGE('', *, *, #365, .F.);
#365 = EDGE_CURVE('', #178, #92, #366, .T.);
#366 = B_SPLINE_CURVE_WITH_KNOTS('', 1, (#367, #368), .UNSPECIFIED., .F., .U., (2, 2), (0.25, 0.75), .UNSPECIFIED.);
#367 = CARTESIAN_POINT('', (0., 60., 28.));
#368 = CARTESIAN_POINT('', (80., 60., 28.));
#369 = ORIENTED_EDGE('', *, *, #260, .T.);
#370 = ORIENTED_EDGE('', *, *, #371, .T.);
#371 = EDGE_CURVE('', #254, #10, #372, .T.);
#372 = B_SPLINE_CURVE_WITH_KNOTS('', 1, (#373, #374), .UNSPECIFIED., .F., .U., (2, 2), (0.325, 0.675), .UNSPECIFIED.);
#373 = CARTESIAN_POINT('', (12., 48., 40.));
#374 = CARTESIAN_POINT('', (68., 48., 40.));
#375 = ORIENTED_EDGE('', *, *, #98, .F.);
#376 = (
   BOUNDED_SURFACE ()
   B_SPLINE_SURFACE (2, 1, ((#377, #378), (#379, #380), (#381, #382)), .UNSPECIFIED., .F., .F., .U.)
   B_SPLINE_SURFACE_WITH_KNOTS ((3, 3), (2, 2), (0., 1.), (0.25, 0.75), .UNSPECIFIED.)
   GEOMETRIC_REPRESENTATION_ITEM ()
   RATIONAL_B_SPLINE_SURFACE (((1., 1.), (0.707106781186547, 0.707106781186547), (1., 1.)))
   REPRESENTATION_ITEM ('')
   SURFACE ()
);
#377 = CARTESIAN_POINT('', (0., 60., 28.));
#378 = CARTESIAN_POINT('', (80., 60., 28.));
#379 = CARTESIAN_POINT('', (0., 60., 40.));
#380 = CARTESIAN_POINT('', (80., 60., 40.));
#381 = CARTESIAN_POINT('', (0., 48., 40.));
#382 = CARTESIAN_POINT('', (80., 48., 40.));
#383 = ADVANCED_FACE('', (#384), #414, .T.);
#384 = FACE_OUTER_BOUND('', #385, .T.);
#385 = EDGE_LOOP('', (#386, #395, #402, #409));
#386 = ORIENTED_EDGE('', *, *, #387, .T.);
#387 = EDGE_CURVE('', #388, #390, #392, .T.);
#388 = VERTEX_POINT('', #389);
#389 = CARTESIAN_POINT('', (0., 0., 0.));
#390 = VERTEX_POINT('', #391);
#391 = CARTESIAN_POINT('', (0., 60., 0.));
#392 = B_SPLINE_CURVE_WITH_KNOTS('', 1, (#393, #394), .UNSPECIFIED., .F., .U., (2, 2), (0., 60.), .UNSPECIFIED.);
#393 = CARTESIAN_POINT('', (0., 0., 0.));
#394 = CARTESIAN_POINT('', (0., 60., 0.));
#395 = ORIENTED_EDGE('', *, *, #396, .T.);
#396 = EDGE_CURVE('', #390, #397, #399, .T.);
#397 = VERTEX_POINT('', #398);
#398 = CARTESIAN_POINT('', (80., 60., 0.));
#399 = B_SPLINE_CURVE_WITH_KNOTS('', 1, (#400, #401), .UNSPECIFIED., .F., .U., (2, 2), (0., 80.), .UNSPECIFIED.);
#400 = CARTESIAN_POINT('', (0., 60., 0.));
#401 = CARTESIAN_POINT('', (80., 60., 0.));
#402 = ORIENTED_EDGE('', *, *, #403, .F.);
#403 = EDGE_CURVE('', #404, #397, #406, .T.);
#404 = VERTEX_POINT('', #405);
#405 = CARTESIAN_POINT('', (80., 0., 0.));
#406 = B_SPLINE_CURVE_WITH_KNOTS('', 1, (#407, #408), .UNSPECIFIED., .F., .U., (2, 2), (0., 60.), .UNSPECIFIED.);
#407 = CARTESIAN_POINT('', (80., 0., 0.));
#408 = CARTESIAN_POINT('', (80., 60., 0.));
#409 = ORIENTED_EDGE('', *, *, #410, .F.);
#410 = EDGE_CURVE('', #388, #404, #411, .T.);
#411 = B_SPLINE_CURVE_WITH_KNOTS('', 1, (#412, #413), .UNSPECIFIED., .F., .U., (2, 2), (0., 80.), .UNSPECIFIED.);
#412 = CARTESIAN_POINT('', (0., 0., 0.));
#413 = CARTESIAN_POINT('', (80., 0., 0.));
#414 = B_SPLINE_SURFACE_WITH_KNOTS('', 1, 1, ((#415, #416), (#417, #418)), .UNSPECIFIED., .F., .F., .U., (2, 2), (2, 2), (0., 60.), (0., 80.), .UNSPECIFIED.);
#415 = CARTESIAN_POINT('', (0., 0., 0.));
#416 = CARTESIAN_POINT('', (80., 0., 0.));
#417 = CARTESIAN_POINT('', (0., 60., 0.));
#418 = CARTESIAN_POINT('', (80., 60., 0.));
#419 = ADVANCED_FACE('', (#420), #434, .T.);
#420 = FACE_OUTER_BOUND('', #421, .T.);
#421 = EDGE_LOOP('', (#422, #423, #428, #429));
#422 = ORIENTED_EDGE('', *, *, #91, .F.);
#423 = ORIENTED_EDGE('', *, *, #424, .F.);
#424 = EDGE_CURVE('', #404, #17, #425, .T.);
#425 = B_SPLINE_CURVE_WITH_KNOTS('', 1, (#426, #427), .UNSPECIFIED., .F., .U., (2, 2), (0., 28.), .UNSPECIFIED.);
#426 = CARTESIAN_POINT('', (80., 0., 0.));
#427 = CARTESIAN_POINT('', (80., 0., 28.));
#428 = ORIENTED_EDGE('', *, *, #403, .T.);
#429 = ORIENTED_EDGE('', *, *, #430, .T.);
#430 = EDGE_CURVE('', #397, #92, #431, .T.);
#431 = B_SPLINE_CURVE_WITH_KNOTS('', 1, (#432, #433), .UNSPECIFIED., .F., .U., (2, 2), (0., 28.), .UNSPECIFIED.);
#432 = CARTESIAN_POINT('', (80., 60., 0.));
#433 = CARTESIAN_POINT('', (80., 60., 28.));
#434 = B_SPLINE_SURFACE_WITH_KNOTS('', 1, 1, ((#435, #436), (#437, #438)), .UNSPECIFIED., .F., .F., .U., (2, 2), (2, 2), (0., 60.), (0., 28.), .UNSPECIFIED.);
#435 = CARTESIAN_POINT('', (80., 0., 0.));
#436 = CARTESIAN_POINT('', (80., 0., 28.));
#437 = CARTESIAN_POINT('', (80., 60., 0.));
#438 = CARTESIAN_POINT('', (80., 60., 28.));
#439 = ADVANCED_FACE('', (#440), #450, .T.);
#440 = FACE_OUTER_BOUND('', #441, .T.);
#441 = EDGE_LOOP('', (#442, #443, #448, #449));
#442 = ORIENTED_EDGE('', *, *, #349, .F.);
#443 = ORIENTED_EDGE('', *, *, #444, .F.);
#444 = EDGE_CURVE('', #388, #176, #445, .T.);
#445 = B_SPLINE_CURVE_WITH_KNOTS('', 1, (#446, #447), .UNSPECIFIED., .F., .U., (2, 2), (0., 28.), .UNSPECIFIED.);
#446 = CARTESIAN_POINT('', (0., 0., 0.));
#447 = CARTESIAN_POINT('', (0., 0., 28.));
#448 = ORIENTED_EDGE('', *, *, #410, .T.);
#449 = ORIENTED_EDGE('', *, *, #424, .T.);
#450 = B_SPLINE_SURFACE_WITH_KNOTS('', 1, 1, ((#451, #452), (#453, #454)), .UNSPECIFIED., .F., .F., .U., (2, 2), (2, 2), (0., 80.), (0., 28.), .UNSPECIFIED.);
#451 = CARTESIAN_POINT('', (0., 0., 0.));
#452 = CARTESIAN_POINT('', (0., 0., 28.));
#453 = CARTESIAN_POINT('', (80., 0., 0.));
#454 = CARTESIAN_POINT('', (80., 0., 28.));
#455 = ADVANCED_FACE('', (#456), #466, .T.);
#456 = FACE_OUTER_BOUND('', #457, .T.);
#457 = EDGE_LOOP('', (#458, #459, #460, #461));
#458 = ORIENTED_EDGE('', *, *, #365, .T.);
#459 = ORIENTED_EDGE('', *, *, #430, .F.);
#460 = ORIENTED_EDGE('', *, *, #396, .F.);
#461 = ORIENTED_EDGE('', *, *, #462, .T.);
#462 = EDGE_CURVE('', #390, #178, #463, .T.);
#463 = B_SPLINE_CURVE_WITH_KNOTS('', 1, (#464, #465), .UNSPECIFIED., .F., .U., (2, 2), (0., 28.), .UNSPECIFIED.);
#464 = CARTESIAN_POINT('', (0., 60., 0.));
#465 = CARTESIAN_POINT('', (0., 60., 28.));
#466 = B_SPLINE_SURFACE_WITH_KNOTS('', 1, 1, ((#467, #468), (#469, #470)), .UNSPECIFIED., .F., .F., .U., (2, 2), (2, 2), (0., 28.), (0., 80.), .UNSPECIFIED.);
#467 = CARTESIAN_POINT('', (0., 60., 0.));
#468 = CARTESIAN_POINT('', (80., 60., 0.));
#469 = CARTESIAN_POINT('', (0., 60., 28.));
#470 = CARTESIAN_POINT('', (80., 60., 28.));
#471 = ADVANCED_FACE('', (#472), #478, .T.);
#472 = FACE_OUTER_BOUND('', #473, .T.);
#473 = EDGE_LOOP('', (#474, #475, #476, #477));
#474 = ORIENTED_EDGE('', *, *, #175, .T.);
#475 = ORIENTED_EDGE('', *, *, #462, .F.);
#476 = ORIENTED_EDGE('', *, *, #387, .F.);
#477 = ORIENTED_EDGE('', *, *, #444, .T.);
#478 = B_SPLINE_SURFACE_WITH_KNOTS('', 1, 1, ((#479, #480), (#481, #482)), .UNSPECIFIED., .F., .F., .U., (2, 2), (2, 2), (0., 28.), (0., 60.), .UNSPECIFIED.);
#479 = CARTESIAN_POINT('', (0., 0., 0.));
#480 = CARTESIAN_POINT('', (0., 60., 0.));
#481 = CARTESIAN_POINT('', (0., 0., 28.));
#482 = CARTESIAN_POINT('', (0., 60., 28.));
#483 = ADVANCED_FACE('', (#484), #490, .T.);
#484 = FACE_OUTER_BOUND('', #485, .T.);
#485 = EDGE_LOOP('', (#486, #487, #488, #489));
#486 = ORIENTED_EDGE('', *, *, #253, .F.);
#487 = ORIENTED_EDGE('', *, *, #343, .T.);
#488 = ORIENTED_EDGE('', *, *, #7, .T.);
#489 = ORIENTED_EDGE('', *, *, #371, .F.);
#490 = B_SPLINE_SURFACE_WITH_KNOTS('', 1, 1, ((#491, #492), (#493, #494)), .UNSPECIFIED., .F., .F., .U., (2, 2), (2, 2), (12., 68.), (12., 48.), .UNSPECIFIED.);
#491 = CARTESIAN_POINT('', (12., 12., 40.));
#492 = CARTESIAN_POINT('', (12., 48., 40.));
#493 = CARTESIAN_POINT('', (68., 12., 40.));
#494 = CARTESIAN_POINT('', (68., 48., 40.));
#495 = DRAUGHTING_MODEL('', (#503), #506);
#496 = PRESENTATION_STYLE_ASSIGNMENT((#497));
#497 = SURFACE_STYLE_USAGE(.POSITIVE., #498);
#498 = SURFACE_SIDE_STYLE('', (#499));
#499 = SURFACE_STYLE_FILL_AREA(#500);
#500 = FILL_AREA_STYLE('', (#501));
#501 = FILL_AREA_STYLE_COLOUR('', #502);
#502 = COLOUR_RGB('', 0.50196078431373, 0.50196078431373, 0.50196078431373);
#503 = STYLED_ITEM('', (#496), #1);
#504 = CARTESIAN_POINT('Origin', (0., 0., 0.));
#505 = GEOMETRIC_SET('', (#504));
#506 = (
   GEOMETRIC_REPRESENTATION_CONTEXT (3)
   GLOBAL_UNCERTAINTY_ASSIGNED_CONTEXT ((#508))
   GLOBAL_UNIT_ASSIGNED_CONTEXT ((#507, #509, #510))
   REPRESENTATION_CONTEXT ('', '3D')
);
#507 = (
   LENGTH_UNIT ()
   NAMED_UNIT (*)
   SI_UNIT (.MILLI., .METRE.)
);
#508 = UNCERTAINTY_MEASURE_WITH_UNIT(LENGTH_MEASURE(1.E-6), #507, 'DISTANCE_ACCURACY_VALUE', '');
#509 = (
   NAMED_UNIT (*)
   SI_UNIT ($, .STERADIAN.)
   SOLID_ANGLE_UNIT ()
);
#510 = (
   NAMED_UNIT (*)
   PLANE_ANGLE_UNIT ()
   SI_UNIT ($, .RADIAN.)
);
#511 = SHAPE_REPRESENTATION('', (#526), #506);
#512 = PRODUCT_DEFINITION_SHAPE('', '', #513);
#513 = PRODUCT_DEFINITION('', '', #516, #520);
#514 = APPLICATION_CONTEXT('configuration controlled 3D designs of mechanical parts and assemblies');
#515 = APPLICATION_PROTOCOL_DEFINITION('International Standard', 'automotive_design', 2002, #514);
#516 = PRODUCT_DEFINITION_FORMATION_WITH_SPECIFIED_SOURCE('', '', #517, .NOT_KNOWN.);
#517 = PRODUCT('FilletAllTop', 'FilletAllTop', '', (#518));
#518 = PRODUCT_CONTEXT('', #514, 'mechanical');
#519 = PRODUCT_RELATED_PRODUCT_CATEGORY('detail', '', (#517));
#520 = PRODUCT_DEFINITION_CONTEXT('part definition', #514, 'design');
#521 = SHAPE_DEFINITION_REPRESENTATION(#512, #511);
#522 = SHAPE_REPRESENTATION_RELATIONSHIP('', '', #511, #523);
#523 = SHAPE_REPRESENTATION('', (#505), #506);
#524 = SHAPE_REPRESENTATION_RELATIONSHIP('', '', #511, #525);
#525 = ADVANCED_BREP_SHAPE_REPRESENTATION('', (#1), #506);
#526 = AXIS2_PLACEMENT_3D('', #527, #528, #529);
#527 = CARTESIAN_POINT('', (0., 0., 0.));
#528 = DIRECTION('', (0., 0., 1.));
#529 = DIRECTION('', (1., 0., 0.));
ENDSEC;
END-ISO-10303-21;
