ISO-10303-21;
HEADER;
FILE_DESCRIPTION(('STEP'), '1');
FILE_NAME('FilletCorner', '2026-04-20T12:17:45', (''), (''), 'Express 3.1.2.0', 'Express Tool', 'Unknown');
FILE_SCHEMA(('AUTOMOTIVE_DESIGN'));
ENDSEC;

DATA;
#1 = MANIFOLD_SOLID_BREP('CornerFillet_0', #2);
#2 = CLOSED_SHELL('', (#3, #39, #75, #111, #133, #161, #179, #198, #217, #236));
#3 = ADVANCED_FACE('', (#4), #34, .T.);
#4 = FACE_OUTER_BOUND('', #5, .T.);
#5 = EDGE_LOOP('', (#6, #15, #22, #29));
#6 = ORIENTED_EDGE('', *, *, #7, .T.);
#7 = EDGE_CURVE('', #8, #10, #12, .T.);
#8 = VERTEX_POINT('', #9);
#9 = CARTESIAN_POINT('', (65., 0., 15.));
#10 = VERTEX_POINT('', #11);
#11 = CARTESIAN_POINT('', (65., 0., 40.));
#12 = B_SPLINE_CURVE_WITH_KNOTS('', 1, (#13, #14), .UNSPECIFIED., .F., .U., (2, 2), (0., 0.666666666666667), .UNSPECIFIED.);
#13 = CARTESIAN_POINT('', (65., 0., 15.));
#14 = CARTESIAN_POINT('', (65., 0., 40.));
#15 = ORIENTED_EDGE('', *, *, #16, .F.);
#16 = EDGE_CURVE('', #17, #10, #19, .T.);
#17 = VERTEX_POINT('', #18);
#18 = CARTESIAN_POINT('', (0., 0., 40.));
#19 = B_SPLINE_CURVE_WITH_KNOTS('', 1, (#20, #21), .UNSPECIFIED., .F., .U., (2, 2), (0., 65.), .UNSPECIFIED.);
#20 = CARTESIAN_POINT('', (0., 0., 40.));
#21 = CARTESIAN_POINT('', (65., 0., 40.));
#22 = ORIENTED_EDGE('', *, *, #23, .F.);
#23 = EDGE_CURVE('', #24, #17, #26, .T.);
#24 = VERTEX_POINT('', #25);
#25 = CARTESIAN_POINT('', (0., 0., 15.));
#26 = B_SPLINE_CURVE_WITH_KNOTS('', 1, (#27, #28), .UNSPECIFIED., .F., .U., (2, 2), (15., 40.), .UNSPECIFIED.);
#27 = CARTESIAN_POINT('', (0., 0., 15.));
#28 = CARTESIAN_POINT('', (0., 0., 40.));
#29 = ORIENTED_EDGE('', *, *, #30, .T.);
#30 = EDGE_CURVE('', #24, #8, #31, .T.);
#31 = B_SPLINE_CURVE_WITH_KNOTS('', 1, (#32, #33), .UNSPECIFIED., .F., .U., (2, 2), (0.333333333333333, 1.), .UNSPECIFIED.);
#32 = CARTESIAN_POINT('', (0., 0., 15.));
#33 = CARTESIAN_POINT('', (65., 0., 15.));
#34 = B_SPLINE_SURFACE_WITH_KNOTS('', 1, 1, ((#35, #36), (#37, #38)), .UNSPECIFIED., .F., .F., .U., (2, 2), (2, 2), (0., 65.), (15., 40.), .UNSPECIFIED.);
#35 = CARTESIAN_POINT('', (0., 0., 15.));
#36 = CARTESIAN_POINT('', (0., 0., 40.));
#37 = CARTESIAN_POINT('', (65., 0., 15.));
#38 = CARTESIAN_POINT('', (65., 0., 40.));
#39 = ADVANCED_FACE('', (#40), #70, .T.);
#40 = FACE_OUTER_BOUND('', #41, .T.);
#41 = EDGE_LOOP('', (#42, #51, #58, #65));
#42 = ORIENTED_EDGE('', *, *, #43, .T.);
#43 = EDGE_CURVE('', #44, #46, #48, .T.);
#44 = VERTEX_POINT('', #45);
#45 = CARTESIAN_POINT('', (80., 15., 15.));
#46 = VERTEX_POINT('', #47);
#47 = CARTESIAN_POINT('', (80., 60., 15.));
#48 = B_SPLINE_CURVE_WITH_KNOTS('', 1, (#49, #50), .UNSPECIFIED., .F., .U., (2, 2), (0., 0.666666666666667), .UNSPECIFIED.);
#49 = CARTESIAN_POINT('', (80., 15., 15.));
#50 = CARTESIAN_POINT('', (80., 60., 15.));
#51 = ORIENTED_EDGE('', *, *, #52, .T.);
#52 = EDGE_CURVE('', #46, #53, #55, .T.);
#53 = VERTEX_POINT('', #54);
#54 = CARTESIAN_POINT('', (80., 60., 40.));
#55 = B_SPLINE_CURVE_WITH_KNOTS('', 1, (#56, #57), .UNSPECIFIED., .F., .U., (2, 2), (15., 40.), .UNSPECIFIED.);
#56 = CARTESIAN_POINT('', (80., 60., 15.));
#57 = CARTESIAN_POINT('', (80., 60., 40.));
#58 = ORIENTED_EDGE('', *, *, #59, .F.);
#59 = EDGE_CURVE('', #60, #53, #62, .T.);
#60 = VERTEX_POINT('', #61);
#61 = CARTESIAN_POINT('', (80., 15., 40.));
#62 = B_SPLINE_CURVE_WITH_KNOTS('', 1, (#63, #64), .UNSPECIFIED., .F., .U., (2, 2), (15., 60.), .UNSPECIFIED.);
#63 = CARTESIAN_POINT('', (80., 15., 40.));
#64 = CARTESIAN_POINT('', (80., 60., 40.));
#65 = ORIENTED_EDGE('', *, *, #66, .F.);
#66 = EDGE_CURVE('', #44, #60, #67, .T.);
#67 = B_SPLINE_CURVE_WITH_KNOTS('', 1, (#68, #69), .UNSPECIFIED., .F., .U., (2, 2), (0., 0.666666666666667), .UNSPECIFIED.);
#68 = CARTESIAN_POINT('', (80., 15., 15.));
#69 = CARTESIAN_POINT('', (80., 15., 40.));
#70 = B_SPLINE_SURFACE_WITH_KNOTS('', 1, 1, ((#71, #72), (#73, #74)), .UNSPECIFIED., .F., .F., .U., (2, 2), (2, 2), (15., 60.), (15., 40.), .UNSPECIFIED.);
#71 = CARTESIAN_POINT('', (80., 15., 15.));
#72 = CARTESIAN_POINT('', (80., 15., 40.));
#73 = CARTESIAN_POINT('', (80., 60., 15.));
#74 = CARTESIAN_POINT('', (80., 60., 40.));
#75 = ADVANCED_FACE('', (#76), #106, .T.);
#76 = FACE_OUTER_BOUND('', #77, .T.);
#77 = EDGE_LOOP('', (#78, #86, #87, #94, #101));
#78 = ORIENTED_EDGE('', *, *, #79, .F.);
#79 = EDGE_CURVE('', #24, #80, #82, .T.);
#80 = VERTEX_POINT('', #81);
#81 = CARTESIAN_POINT('', (0., 15., 0.));
#82 = (
   BOUNDED_CURVE ()
   B_SPLINE_CURVE (2, (#83, #84, #85), .UNSPECIFIED., .F., .U.)
   B_SPLINE_CURVE_WITH_KNOTS ((3, 3), (0., 1.), .UNSPECIFIED.)
   CURVE ()
   GEOMETRIC_REPRESENTATION_ITEM ()
   RATIONAL_B_SPLINE_CURVE ((1., 0.707106781186548, 1.))
   REPRESENTATION_ITEM ('')
);
#83 = CARTESIAN_POINT('', (0., 0., 15.));
#84 = CARTESIAN_POINT('', (0., 0., 7.23160299989371E-15));
#85 = CARTESIAN_POINT('', (0., 15., -3.5527136788005E-15));
#86 = ORIENTED_EDGE('', *, *, #23, .T.);
#87 = ORIENTED_EDGE('', *, *, #88, .T.);
#88 = EDGE_CURVE('', #17, #89, #91, .T.);
#89 = VERTEX_POINT('', #90);
#90 = CARTESIAN_POINT('', (0., 60., 40.));
#91 = B_SPLINE_CURVE_WITH_KNOTS('', 1, (#92, #93), .UNSPECIFIED., .F., .U., (2, 2), (0., 60.), .UNSPECIFIED.);
#92 = CARTESIAN_POINT('', (0., 0., 40.));
#93 = CARTESIAN_POINT('', (0., 60., 40.));
#94 = ORIENTED_EDGE('', *, *, #95, .F.);
#95 = EDGE_CURVE('', #96, #89, #98, .T.);
#96 = VERTEX_POINT('', #97);
#97 = CARTESIAN_POINT('', (0., 60., 0.));
#98 = B_SPLINE_CURVE_WITH_KNOTS('', 1, (#99, #100), .UNSPECIFIED., .F., .U., (2, 2), (0., 40.), .UNSPECIFIED.);
#99 = CARTESIAN_POINT('', (0., 60., 0.));
#100 = CARTESIAN_POINT('', (0., 60., 40.));
#101 = ORIENTED_EDGE('', *, *, #102, .F.);
#102 = EDGE_CURVE('', #80, #96, #103, .T.);
#103 = B_SPLINE_CURVE_WITH_KNOTS('', 1, (#104, #105), .UNSPECIFIED., .F., .U., (2, 2), (15., 60.), .UNSPECIFIED.);
#104 = CARTESIAN_POINT('', (0., 15., 0.));
#105 = CARTESIAN_POINT('', (0., 60., 0.));
#106 = B_SPLINE_SURFACE_WITH_KNOTS('', 1, 1, ((#107, #108), (#109, #110)), .UNSPECIFIED., .F., .F., .U., (2, 2), (2, 2), (0., 40.), (0., 60.), .UNSPECIFIED.);
#107 = CARTESIAN_POINT('', (0., 0., 0.));
#108 = CARTESIAN_POINT('', (0., 60., 0.));
#109 = CARTESIAN_POINT('', (0., 0., 40.));
#110 = CARTESIAN_POINT('', (0., 60., 40.));
#111 = ADVANCED_FACE('', (#112), #128, .T.);
#112 = FACE_OUTER_BOUND('', #113, .T.);
#113 = EDGE_LOOP('', (#114, #120, #121, #126, #127));
#114 = ORIENTED_EDGE('', *, *, #115, .F.);
#115 = EDGE_CURVE('', #60, #10, #116, .T.);
#116 = (
   BOUNDED_CURVE ()
   B_SPLINE_CURVE (2, (#117, #118, #119), .UNSPECIFIED., .F., .U.)
   B_SPLINE_CURVE_WITH_KNOTS ((3, 3), (0., 1.), .UNSPECIFIED.)
   CURVE ()
   GEOMETRIC_REPRESENTATION_ITEM ()
   RATIONAL_B_SPLINE_CURVE ((1., 0.707106781186546, 1.))
   REPRESENTATION_ITEM ('')
);
#117 = CARTESIAN_POINT('', (80., 15., 40.));
#118 = CARTESIAN_POINT('', (80., -2.48689957516036E-14, 40.));
#119 = CARTESIAN_POINT('', (65., 3.5527136788005E-15, 40.));
#120 = ORIENTED_EDGE('', *, *, #59, .T.);
#121 = ORIENTED_EDGE('', *, *, #122, .F.);
#122 = EDGE_CURVE('', #89, #53, #123, .T.);
#123 = B_SPLINE_CURVE_WITH_KNOTS('', 1, (#124, #125), .UNSPECIFIED., .F., .U., (2, 2), (0., 80.), .UNSPECIFIED.);
#124 = CARTESIAN_POINT('', (0., 60., 40.));
#125 = CARTESIAN_POINT('', (80., 60., 40.));
#126 = ORIENTED_EDGE('', *, *, #88, .F.);
#127 = ORIENTED_EDGE('', *, *, #16, .T.);
#128 = B_SPLINE_SURFACE_WITH_KNOTS('', 1, 1, ((#129, #130), (#131, #132)), .UNSPECIFIED., .F., .F., .U., (2, 2), (2, 2), (0., 80.), (0., 60.), .UNSPECIFIED.);
#129 = CARTESIAN_POINT('', (0., 0., 40.));
#130 = CARTESIAN_POINT('', (0., 60., 40.));
#131 = CARTESIAN_POINT('', (80., 0., 40.));
#132 = CARTESIAN_POINT('', (80., 60., 40.));
#133 = ADVANCED_FACE('', (#134), #156, .T.);
#134 = FACE_OUTER_BOUND('', #135, .T.);
#135 = EDGE_LOOP('', (#136, #145, #150, #151));
#136 = ORIENTED_EDGE('', *, *, #137, .F.);
#137 = EDGE_CURVE('', #138, #140, #142, .T.);
#138 = VERTEX_POINT('', #139);
#139 = CARTESIAN_POINT('', (65., 15., 0.));
#140 = VERTEX_POINT('', #141);
#141 = CARTESIAN_POINT('', (65., 60., -3.5527136788005E-15));
#142 = B_SPLINE_CURVE_WITH_KNOTS('', 1, (#143, #144), .UNSPECIFIED., .F., .U., (2, 2), (0., 0.666666666666666), .UNSPECIFIED.);
#143 = CARTESIAN_POINT('', (65., 15., 0.));
#144 = CARTESIAN_POINT('', (65., 60., 0.));
#145 = ORIENTED_EDGE('', *, *, #146, .F.);
#146 = EDGE_CURVE('', #80, #138, #147, .T.);
#147 = B_SPLINE_CURVE_WITH_KNOTS('', 1, (#148, #149), .UNSPECIFIED., .F., .U., (2, 2), (0.333333333333333, 1.), .UNSPECIFIED.);
#148 = CARTESIAN_POINT('', (0., 15., 0.));
#149 = CARTESIAN_POINT('', (65., 15., 0.));
#150 = ORIENTED_EDGE('', *, *, #102, .T.);
#151 = ORIENTED_EDGE('', *, *, #152, .T.);
#152 = EDGE_CURVE('', #96, #140, #153, .T.);
#153 = B_SPLINE_CURVE_WITH_KNOTS('', 1, (#154, #155), .UNSPECIFIED., .F., .U., (2, 2), (0., 65.), .UNSPECIFIED.);
#154 = CARTESIAN_POINT('', (0., 60., 0.));
#155 = CARTESIAN_POINT('', (65., 60., 0.));
#156 = B_SPLINE_SURFACE_WITH_KNOTS('', 1, 1, ((#157, #158), (#159, #160)), .UNSPECIFIED., .F., .F., .U., (2, 2), (2, 2), (15., 60.), (0., 65.), .UNSPECIFIED.);
#157 = CARTESIAN_POINT('', (0., 15., 0.));
#158 = CARTESIAN_POINT('', (65., 15., 0.));
#159 = CARTESIAN_POINT('', (0., 60., 0.));
#160 = CARTESIAN_POINT('', (65., 60., 0.));
#161 = ADVANCED_FACE('', (#162), #174, .T.);
#162 = FACE_OUTER_BOUND('', #163, .T.);
#163 = EDGE_LOOP('', (#164, #170, #171, #172, #173));
#164 = ORIENTED_EDGE('', *, *, #165, .F.);
#165 = EDGE_CURVE('', #140, #46, #166, .T.);
#166 = (
   BOUNDED_CURVE ()
   B_SPLINE_CURVE (2, (#167, #168, #169), .UNSPECIFIED., .F., .U.)
   B_SPLINE_CURVE_WITH_KNOTS ((3, 3), (0., 1.), .UNSPECIFIED.)
   CURVE ()
   GEOMETRIC_REPRESENTATION_ITEM ()
   RATIONAL_B_SPLINE_CURVE ((1., 0.707106781186548, 1.))
   REPRESENTATION_ITEM ('')
);
#167 = CARTESIAN_POINT('', (65., 60., -3.5527136788005E-15));
#168 = CARTESIAN_POINT('', (80., 60., 1.04512497713067E-14));
#169 = CARTESIAN_POINT('', (80., 60., 15.));
#170 = ORIENTED_EDGE('', *, *, #152, .F.);
#171 = ORIENTED_EDGE('', *, *, #95, .T.);
#172 = ORIENTED_EDGE('', *, *, #122, .T.);
#173 = ORIENTED_EDGE('', *, *, #52, .F.);
#174 = B_SPLINE_SURFACE_WITH_KNOTS('', 1, 1, ((#175, #176), (#177, #178)), .UNSPECIFIED., .F., .F., .U., (2, 2), (2, 2), (0., 40.), (0., 80.), .UNSPECIFIED.);
#175 = CARTESIAN_POINT('', (0., 60., 0.));
#176 = CARTESIAN_POINT('', (80., 60., 0.));
#177 = CARTESIAN_POINT('', (0., 60., 40.));
#178 = CARTESIAN_POINT('', (80., 60., 40.));
#179 = ADVANCED_FACE('', (#180), #191, .T.);
#180 = FACE_OUTER_BOUND('', #181, .T.);
#181 = EDGE_LOOP('', (#182, #183, #189, #190));
#182 = ORIENTED_EDGE('', *, *, #7, .F.);
#183 = ORIENTED_EDGE('', *, *, #184, .T.);
#184 = EDGE_CURVE('', #8, #44, #185, .T.);
#185 = (
   BOUNDED_CURVE ()
   B_SPLINE_CURVE (2, (#186, #187, #188), .UNSPECIFIED., .F., .U.)
   B_SPLINE_CURVE_WITH_KNOTS ((3, 3), (0., 1.), .UNSPECIFIED.)
   CURVE ()
   GEOMETRIC_REPRESENTATION_ITEM ()
   RATIONAL_B_SPLINE_CURVE ((1., 0.707106781186546, 1.))
   REPRESENTATION_ITEM ('')
);
#186 = CARTESIAN_POINT('', (65., 3.5527136788005E-15, 15.));
#187 = CARTESIAN_POINT('', (80., -2.48689957516036E-14, 15.));
#188 = CARTESIAN_POINT('', (80., 15., 15.));
#189 = ORIENTED_EDGE('', *, *, #66, .T.);
#190 = ORIENTED_EDGE('', *, *, #115, .T.);
#191 = (
   BOUNDED_SURFACE ()
   B_SPLINE_SURFACE (2, 1, ((#192, #193), (#194, #195), (#196, #197)), .UNSPECIFIED., .F., .F., .U.)
   B_SPLINE_SURFACE_WITH_KNOTS ((3, 3), (2, 2), (0., 1.), (0., 0.666666666666667), .UNSPECIFIED.)
   GEOMETRIC_REPRESENTATION_ITEM ()
   RATIONAL_B_SPLINE_SURFACE (((1., 1.), (0.707106781186546, 0.707106781186546), (1., 1.)))
   REPRESENTATION_ITEM ('')
   SURFACE ()
);
#192 = CARTESIAN_POINT('', (65., 3.5527136788005E-15, 15.));
#193 = CARTESIAN_POINT('', (65., 3.5527136788005E-15, 40.));
#194 = CARTESIAN_POINT('', (80., -2.48689957516036E-14, 15.));
#195 = CARTESIAN_POINT('', (80., -2.48689957516036E-14, 40.));
#196 = CARTESIAN_POINT('', (80., 15., 15.));
#197 = CARTESIAN_POINT('', (80., 15., 40.));
#198 = ADVANCED_FACE('', (#199), #210, .T.);
#199 = FACE_OUTER_BOUND('', #200, .T.);
#200 = EDGE_LOOP('', (#201, #202, #208, #209));
#201 = ORIENTED_EDGE('', *, *, #43, .F.);
#202 = ORIENTED_EDGE('', *, *, #203, .T.);
#203 = EDGE_CURVE('', #44, #138, #204, .T.);
#204 = (
   BOUNDED_CURVE ()
   B_SPLINE_CURVE (2, (#205, #206, #207), .UNSPECIFIED., .F., .U.)
   B_SPLINE_CURVE_WITH_KNOTS ((3, 3), (0., 1.), .UNSPECIFIED.)
   CURVE ()
   GEOMETRIC_REPRESENTATION_ITEM ()
   RATIONAL_B_SPLINE_CURVE ((1., 0.707106781186548, 1.))
   REPRESENTATION_ITEM ('')
);
#205 = CARTESIAN_POINT('', (80., 15., 15.));
#206 = CARTESIAN_POINT('', (80., 15., 6.89853609250617E-15));
#207 = CARTESIAN_POINT('', (65., 15., -7.105427357601E-15));
#208 = ORIENTED_EDGE('', *, *, #137, .T.);
#209 = ORIENTED_EDGE('', *, *, #165, .T.);
#210 = (
   BOUNDED_SURFACE ()
   B_SPLINE_SURFACE (2, 1, ((#211, #212), (#213, #214), (#215, #216)), .UNSPECIFIED., .F., .F., .U.)
   B_SPLINE_SURFACE_WITH_KNOTS ((3, 3), (2, 2), (0., 1.), (0., 0.666666666666667), .UNSPECIFIED.)
   GEOMETRIC_REPRESENTATION_ITEM ()
   RATIONAL_B_SPLINE_SURFACE (((1., 1.), (0.707106781186548, 0.707106781186548), (1., 1.)))
   REPRESENTATION_ITEM ('')
   SURFACE ()
);
#211 = CARTESIAN_POINT('', (80., 15., 15.));
#212 = CARTESIAN_POINT('', (80., 60., 15.));
#213 = CARTESIAN_POINT('', (80., 15., 6.89853609250617E-15));
#214 = CARTESIAN_POINT('', (80., 60., 6.89853609250617E-15));
#215 = CARTESIAN_POINT('', (65., 15., -7.105427357601E-15));
#216 = CARTESIAN_POINT('', (65., 60., -7.105427357601E-15));
#217 = ADVANCED_FACE('', (#218), #229, .T.);
#218 = FACE_OUTER_BOUND('', #219, .T.);
#219 = EDGE_LOOP('', (#220, #221, #222, #223));
#220 = ORIENTED_EDGE('', *, *, #30, .F.);
#221 = ORIENTED_EDGE('', *, *, #79, .T.);
#222 = ORIENTED_EDGE('', *, *, #146, .T.);
#223 = ORIENTED_EDGE('', *, *, #224, .T.);
#224 = EDGE_CURVE('', #138, #8, #225, .T.);
#225 = (
   BOUNDED_CURVE ()
   B_SPLINE_CURVE (2, (#226, #227, #228), .UNSPECIFIED., .F., .U.)
   B_SPLINE_CURVE_WITH_KNOTS ((3, 3), (0., 1.), .UNSPECIFIED.)
   CURVE ()
   GEOMETRIC_REPRESENTATION_ITEM ()
   RATIONAL_B_SPLINE_CURVE ((1., 0.707106781186548, 1.))
   REPRESENTATION_ITEM ('')
);
#226 = CARTESIAN_POINT('', (65., 15., -3.5527136788005E-15));
#227 = CARTESIAN_POINT('', (65., 0., 7.23160299989371E-15));
#228 = CARTESIAN_POINT('', (65., 0., 15.));
#229 = (
   BOUNDED_SURFACE ()
   B_SPLINE_SURFACE (2, 1, ((#230, #231), (#232, #233), (#234, #235)), .UNSPECIFIED., .F., .F., .U.)
   B_SPLINE_SURFACE_WITH_KNOTS ((3, 3), (2, 2), (0., 1.), (0.333333333333333, 1.), .UNSPECIFIED.)
   GEOMETRIC_REPRESENTATION_ITEM ()
   RATIONAL_B_SPLINE_SURFACE (((1., 1.), (0.707106781186548, 0.707106781186548), (1., 1.)))
   REPRESENTATION_ITEM ('')
   SURFACE ()
);
#230 = CARTESIAN_POINT('', (0., 0., 15.));
#231 = CARTESIAN_POINT('', (65., 0., 15.));
#232 = CARTESIAN_POINT('', (0., 0., 7.23160299989371E-15));
#233 = CARTESIAN_POINT('', (65., 0., 7.23160299989371E-15));
#234 = CARTESIAN_POINT('', (0., 15., -3.5527136788005E-15));
#235 = CARTESIAN_POINT('', (65., 15., -3.5527136788005E-15));
#236 = ADVANCED_FACE('', (#237), #242, .T.);
#237 = FACE_OUTER_BOUND('', #238, .T.);
#238 = EDGE_LOOP('', (#239, #240, #241));
#239 = ORIENTED_EDGE('', *, *, #224, .F.);
#240 = ORIENTED_EDGE('', *, *, #203, .F.);
#241 = ORIENTED_EDGE('', *, *, #184, .F.);
#242 = (
   BOUNDED_SURFACE ()
   B_SPLINE_SURFACE (2, 2, ((#243, #244, #245), (#246, #247, #248), (#249, #250, #251)), .UNSPECIFIED., .F., .F., .U.)
   B_SPLINE_SURFACE_WITH_KNOTS ((3, 3), (3, 3), (0., 0.907603035157017), (0., 1.), .UNSPECIFIED.)
   GEOMETRIC_REPRESENTATION_ITEM ()
   RATIONAL_B_SPLINE_SURFACE (((1., 0.707106781186546, 1.), (0.707106781186549, 0.5, 0.707106781186549), (1., 0.707106781186546, 1.)))
   REPRESENTATION_ITEM ('')
   SURFACE ()
);
#243 = CARTESIAN_POINT('', (65., 3.5527136788005E-15, 15.));
#244 = CARTESIAN_POINT('', (80., -2.48689957516035E-14, 15.));
#245 = CARTESIAN_POINT('', (80., 15., 15.));
#246 = CARTESIAN_POINT('', (65., 1.4210854715202E-14, 8.12834787423915E-14));
#247 = CARTESIAN_POINT('', (80., -1.4210854715202E-14, 5.28617693119875E-14));
#248 = CARTESIAN_POINT('', (80., 15., 15.));
#249 = CARTESIAN_POINT('', (65., 14.9999999999999, 1.06581410364015E-14));
#250 = CARTESIAN_POINT('', (80., 14.9999999999999, -1.77635683940025E-14));
#251 = CARTESIAN_POINT('', (80., 15., 15.));
#252 = DRAUGHTING_MODEL('', (#260), #263);
#253 = PRESENTATION_STYLE_ASSIGNMENT((#254));
#254 = SURFACE_STYLE_USAGE(.POSITIVE., #255);
#255 = SURFACE_SIDE_STYLE('', (#256));
#256 = SURFACE_STYLE_FILL_AREA(#257);
#257 = FILL_AREA_STYLE('', (#258));
#258 = FILL_AREA_STYLE_COLOUR('', #259);
#259 = COLOUR_RGB('', 0.50196078431373, 0.50196078431373, 0.50196078431373);
#260 = STYLED_ITEM('', (#253), #1);
#261 = CARTESIAN_POINT('Origin', (0., 0., 0.));
#262 = GEOMETRIC_SET('', (#261));
#263 = (
   GEOMETRIC_REPRESENTATION_CONTEXT (3)
   GLOBAL_UNCERTAINTY_ASSIGNED_CONTEXT ((#265))
   GLOBAL_UNIT_ASSIGNED_CONTEXT ((#264, #266, #267))
   REPRESENTATION_CONTEXT ('', '3D')
);
#264 = (
   LENGTH_UNIT ()
   NAMED_UNIT (*)
   SI_UNIT (.MILLI., .METRE.)
);
#265 = UNCERTAINTY_MEASURE_WITH_UNIT(LENGTH_MEASURE(1.E-6), #264, 'DISTANCE_ACCURACY_VALUE', '');
#266 = (
   NAMED_UNIT (*)
   SI_UNIT ($, .STERADIAN.)
   SOLID_ANGLE_UNIT ()
);
#267 = (
   NAMED_UNIT (*)
   PLANE_ANGLE_UNIT ()
   SI_UNIT ($, .RADIAN.)
);
#268 = SHAPE_REPRESENTATION('', (#283), #263);
#269 = PRODUCT_DEFINITION_SHAPE('', '', #270);
#270 = PRODUCT_DEFINITION('', '', #273, #277);
#271 = APPLICATION_CONTEXT('configuration controlled 3D designs of mechanical parts and assemblies');
#272 = APPLICATION_PROTOCOL_DEFINITION('International Standard', 'automotive_design', 2002, #271);
#273 = PRODUCT_DEFINITION_FORMATION_WITH_SPECIFIED_SOURCE('', '', #274, .NOT_KNOWN.);
#274 = PRODUCT('FilletCorner', 'FilletCorner', '', (#275));
#275 = PRODUCT_CONTEXT('', #271, 'mechanical');
#276 = PRODUCT_RELATED_PRODUCT_CATEGORY('detail', '', (#274));
#277 = PRODUCT_DEFINITION_CONTEXT('part definition', #271, 'design');
#278 = SHAPE_DEFINITION_REPRESENTATION(#269, #268);
#279 = SHAPE_REPRESENTATION_RELATIONSHIP('', '', #268, #280);
#280 = SHAPE_REPRESENTATION('', (#262), #263);
#281 = SHAPE_REPRESENTATION_RELATIONSHIP('', '', #268, #282);
#282 = ADVANCED_BREP_SHAPE_REPRESENTATION('', (#1), #263);
#283 = AXIS2_PLACEMENT_3D('', #284, #285, #286);
#284 = CARTESIAN_POINT('', (0., 0., 0.));
#285 = DIRECTION('', (0., 0., 1.));
#286 = DIRECTION('', (1., 0., 0.));
ENDSEC;
END-ISO-10303-21;
