DBRep_DrawableShape

CASCADE Topology V1, (c) Matra-Datavision
Locations 2
1
              1               0               0               0 
              0               1               0               0 
              0               0               1            32.4 
2  1 -1 0
Curve2ds 112
1 0 0 0 -1 
1 0.70710678118654757 0 0 -1 
1 -4.4408920985006262e-16 -0.50000000000000044 1 0 
1 0 -0.35355339059327662 1 0 
1 -4.4408920985006262e-16 -31.899999999999999 1 0 
1 0 -0.35355339059327662 1 0 
1 52.600000000000001 0 0 -1 
1 0 0 0 -1 
1 0 0 0 -1 
1 38.399999999999999 0 0 -1 
1 0 -0.50000000000000044 1 0 
1 0 -0.35355339059327484 1 0 
1 0 -31.899999999999999 1 0 
1 0 -0.35355339059327662 1 0 
1 0.12330553398309219 0.067438035847454642 0.28108463771481951 0.95968298226066762 
1 0.58380124720345794 0.067438035847454655 -0.28108463771482106 0.95968298226066706 
1 0 0.35355339059327129 1 0 
1 -26.300000000000011 -19.199999999999996 1 0 
1 50.426702730475817 7.066547622084447 -0.28108463771482289 0.95968298226066651 
1 2.173297269524102 7.0665476220844701 0.28108463771481812 0.95968298226066795 
1 0.12330553398309174 0.067438035847454017 0.28108463771481923 0.95968298226066773 
1 0.58380124720345761 0.067438035847453753 -0.28108463771482112 0.95968298226066717 
1 0 0.35355339059326951 1 0 
1 -26.300000000000011 -19.199999999999996 1 0 
1 50.426702730475824 7.0665476220844576 -0.28108463771482306 0.95968298226066651 
1 2.1732972695241113 7.0665476220844754 0.28108463771481779 0.95968298226066806 
1 0 -0.50000000000000044 1 0 
1 7.1054273576010019e-15 -0.35355339059327662 1 0 
1 0 -31.899999999999999 1 0 
1 0 -0.35355339059327395 1 0 
1 0.70710678118654757 0 0 -1 
1 0 0 0 -1 
1 0 0 0 -1 
1 0.70710678118654757 0 0 -1 
1 0 -0.50000000000000044 1 0 
1 0 -0.35355339059327362 1 0 
1 0 -31.899999999999999 1 0 
1 0 -0.35355339059327662 1 0 
1 1.61233639725329 5.1513074040166753 0.28108463771482073 0.95968298226066717 
1 36.787663602746711 5.1513074040166753 -0.28108463771481973 0.95968298226066751 
1 3.5527136788005009e-15 0.35355339059327129 1 0 
1 -26.446446609406742 -18.846446609406723 0.70710678118654757 -0.70710678118654757 
1 1.6123363972532943 5.1513074040166744 0.28108463771482078 0.95968298226066706 
1 36.787663602746719 5.1513074040166771 -0.28108463771481956 0.95968298226066762 
1 0 0.35355339059326951 1 0 
1 -26.446446609406742 -18.846446609406723 0.70710678118654757 -0.70710678118654757 
1 25.946446609406713 -19.346446609406723 0.70710678118654757 0.70710678118654757 
1 0 0.35355339059327306 1 0 
1 -26.300000000000011 19.200000000000003 0 -1 
1 0 0.35355339059327351 1 0 
1 26.29999999999999 -19.199999999999996 0 1 
1 0 0.35355339059327662 1 0 
1 -25.946446609406745 19.346446609406733 -0.70710678118654757 -0.70710678118654757 
1 0 0.35355339059327306 1 0 
1 26.446446609406713 18.846446609406726 -0.70710678118654757 0.70710678118654757 
1 8.8817841970012523e-16 0.35355339059326951 1 0 
1 26.29999999999999 19.200000000000003 -1 0 
1 0 0.35355339059327662 1 0 
1 0.58380124720345661 0.067438035847452796 -0.28108463771481812 0.95968298226066795 
1 0.12330553398309263 0.067438035847453698 0.28108463771482289 0.95968298226066651 
1 25.946446609406713 -19.346446609406723 0.70710678118654757 0.70710678118654757 
1 0 0.35355339059327306 1 0 
1 -26.300000000000011 19.200000000000003 0 -1 
1 0 0.35355339059327306 1 0 
1 26.29999999999999 -19.199999999999996 0 1 
1 0 0.35355339059327662 1 0 
1 -25.946446609406745 19.346446609406733 -0.70710678118654757 -0.70710678118654757 
1 0 0.35355339059327839 1 0 
1 26.446446609406713 18.846446609406726 -0.70710678118654757 0.70710678118654757 
1 0 0.35355339059327662 1 0 
1 26.29999999999999 19.200000000000003 -1 0 
1 0 0.35355339059327662 1 0 
1 0.58380124720345672 0.06743803584745317 -0.2810846377148179 0.95968298226066806 
1 0.12330553398309263 0.067438035847454017 0.28108463771482306 0.95968298226066651 
1 0 -0.50000000000000044 1 0 
1 0 -0.35355339059326951 1 0 
1 0 -31.899999999999999 1 0 
1 0 -0.35355339059326774 1 0 
1 38.399999999999999 0 0 -1 
1 0 0 0 -1 
1 0 0 0 -1 
1 52.600000000000001 0 0 -1 
1 7.1054273576010019e-15 -0.50000000000000044 1 0 
1 0 -0.35355339059327662 1 0 
1 7.1054273576010019e-15 -31.899999999999999 1 0 
1 0 -0.35355339059327484 1 0 
1 0.12330553398307842 0.06743803584745324 0.2810846377148245 0.95968298226066617 
1 0.58380124720344539 0.067438035847453545 -0.28108463771481662 0.95968298226066828 
1 0.12330553398307842 0.067438035847453698 0.28108463771482439 0.95968298226066617 
1 0.58380124720344539 0.067438035847453962 -0.28108463771481662 0.95968298226066839 
1 36.787663602746633 5.1513074040168041 -0.28108463771482745 0.95968298226066517 
1 1.6123363972532967 5.1513074040168227 0.28108463771481418 0.95968298226066906 
1 2.1732972695241415 7.0665476220844967 0.28108463771481706 0.95968298226066828 
1 50.426702730475846 7.0665476220844861 -0.28108463771482411 0.95968298226066617 
1 0 -0.35355339059327662 1 0 
1 0 -0.50000000000000044 1 0 
1 0.58380124720346682 0.067438035847451241 -0.28108463771481451 0.95968298226066906 
1 0.12330553398309974 0.067438035847447106 0.28108463771482717 0.95968298226066528 
1 0 -0.35355339059327662 1 0 
1 0 -0.50000000000000044 1 0 
1 36.787663602746626 5.1513074040168032 -0.28108463771482761 0.95968298226066517 
1 1.6123363972532918 5.1513074040168254 0.28108463771481401 0.95968298226066917 
1 2.1732972695241082 7.0665476220845012 0.28108463771481712 0.95968298226066828 
1 50.426702730475817 7.0665476220844727 -0.28108463771482406 0.95968298226066628 
1 -8.8817841970012523e-16 -0.35355339059327662 1 0 
1 0 -31.899999999999999 1 0 
1 0.58380124720345672 0.067438035847453129 -0.2810846377148144 0.95968298226066906 
1 0.12330553398309263 0.067438035847454017 0.28108463771482722 0.9596829822606654 
1 0 -0.35355339059327306 1 0 
1 0 -31.899999999999999 1 0 
1 0.70710678118654757 0 0 -1 
1 0 -0 0 -1 
Curves 56
1 2.1000000000000001 23 1.6000000000000001 0 0 1 
1 2.0999999999999996 23 2.1000000000000005 1 0 0 
1 2.0999999999999996 23 33.5 1 0 0 
1 54.700000000000003 23 1.6000000000000001 0 0 1 
1 1.6000000000000001 23.5 1.6000000000000001 0 0 1 
1 1.5999999999999988 23.5 2.1000000000000005 0.70710678118654746 -0.70710678118654746 0 
1 1.5999999999999988 23.5 33.5 0.70710678118654746 -0.70710678118654746 0 
8 -0.4386775989806832 0.29813528012326845
1 2.2233055339830918 23.297685892457636 1.8023141075423634 0.28108463771481945 0.67859834454584733 -0.678598344545847 
1 2.0999999999999996 23.5 1.6000000000000008 1 0 0 
8 -7.7318251441727694 -6.9950122650688149
1 52.526702730475819 28.246803743153585 -3.1468037431535842 -0.28108463771482289 0.67859834454584667 -0.67859834454584633 
8 -0.43867759898068187 0.29813528012326812
1 2.2233055339830914 23.297685892457636 33.797685892457636 0.28108463771481923 0.67859834454584733 0.67859834454584733 
1 2.0999999999999996 23.5 34 1 0 0 
8 -7.7318251441727739 -6.9950122650688238
1 52.526702730475826 28.246803743153592 38.746803743153592 -0.28108463771482306 0.67859834454584644 0.67859834454584644 
1 54.700000000000003 23 2.1000000000000005 0.70710678118654746 0.70710678118654746 0 
1 54.700000000000003 23 33.5 0.70710678118654746 0.70710678118654746 0 
1 55.200000000000003 23.5 1.6000000000000001 0 0 1 
1 1.6000000000000001 61.899999999999999 1.6000000000000001 0 0 1 
1 1.6000000000000008 61.899999999999999 2.1000000000000005 0 -1 0 
1 1.6000000000000008 61.899999999999999 33.5 0 -1 0 
8 -5.736124216397462 -4.9993113372935118
1 5.4925243973566618 25.112336397253287 -1.7925243973566607 0.67859834454584711 0.28108463771481973 -0.67859834454584711 
1 1.9535533905932725 23.853553390593273 1.6000000000000008 0.70710678118654746 -0.70710678118654746 0 
8 -5.7361242163974637 -4.9993113372935145
1 5.49252439735666 25.11233639725328 37.392524397356667 0.67859834454584711 0.28108463771481956 0.67859834454584744 
1 1.9535533905932725 23.853553390593273 34 0.70710678118654746 -0.70710678118654746 0 
1 54.346446609406726 23.353553390593273 1.6000000000000008 0.70710678118654746 0.70710678118654746 0 
1 2.1000000000000005 61.899999999999999 1.6000000000000008 0 -1 0 
1 54.700000000000003 23.5 1.6000000000000008 0 1 0 
1 2.4535533905932665 62.046446609406729 1.6000000000000008 -0.70710678118654746 -0.70710678118654746 0 
1 54.846446609406726 61.546446609406722 1.6000000000000008 -0.70710678118654746 0.70710678118654746 0 
1 54.700000000000003 61.899999999999999 1.6000000000000008 -1 0 0 
8 -0.43867759898068009 0.29813528012327251
1 54.902314107542367 23.623305533983093 1.8023141075423648 -0.67859834454584667 0.28108463771482289 -0.67859834454584633 
1 54.346446609406726 23.353553390593273 34 0.70710678118654746 0.70710678118654746 0 
1 2.1000000000000005 61.899999999999999 34 0 -1 0 
1 54.700000000000003 23.5 34 0 1 0 
1 2.4535533905932665 62.046446609406729 34 -0.70710678118654746 -0.70710678118654746 0 
1 54.846446609406726 61.546446609406722 34 -0.70710678118654746 0.70710678118654746 0 
1 54.700000000000003 61.899999999999999 34 -1 0 0 
8 -0.43867759898067721 0.2981352801232719
1 54.902314107542367 23.623305533983093 33.797685892457636 -0.67859834454584644 0.28108463771482306 0.67859834454584644 
1 55.200000000000003 23.5 2.1000000000000005 0 1 0 
1 55.200000000000003 23.5 33.5 0 1 0 
1 55.200000000000003 61.899999999999999 1.6000000000000001 0 0 1 
1 2.1000000000000001 62.399999999999999 1.6000000000000001 0 0 1 
1 2.0999999999999925 62.400000000000006 2.1000000000000005 -0.70710678118654746 -0.70710678118654746 0 
1 2.0999999999999925 62.400000000000006 33.5 -0.70710678118654746 -0.70710678118654746 0 
8 -0.43867759898068193 0.29813528012327023
1 1.8976858924576363 61.77669446601692 1.802314107542365 0.67859834454584622 -0.2810846377148245 -0.67859834454584622 
8 -0.43867759898068109 0.29813528012327078
1 1.8976858924576363 61.77669446601692 33.797685892457636 0.678598344545846 -0.28108463771482434 0.67859834454584633 
8 -5.7361242163976067 -4.9993113372936557
1 51.307475602643251 60.287663602746633 -1.7925243973567531 -0.67859834454584567 -0.28108463771482745 -0.67859834454584533 
8 -7.7318251441728005 -6.9950122650688487
1 4.2732972695241553 57.153196256846385 -3.1468037431536109 0.28108463771482411 -0.67859834454584633 -0.67859834454584611 
1 55.200000000000003 61.899999999999999 2.1000000000000005 -0.70710678118654746 0.70710678118654746 0 
8 -0.4386775989806766 0.29813528012327578
1 54.576694466016903 62.102314107542369 1.802314107542367 -0.28108463771482717 -0.67859834454584578 -0.67859834454584544 
1 54.700000000000003 62.399999999999999 2.1000000000000005 -1 0 0 
8 -5.7361242163976041 -4.9993113372936557
1 51.307475602643251 60.287663602746626 37.392524397356752 -0.67859834454584544 -0.28108463771482756 0.67859834454584544 
8 -7.7318251441727961 -6.9950122650688424
1 4.2732972695241882 57.1531962568464 38.746803743153606 0.281084637714824 -0.67859834454584622 0.67859834454584622 
1 55.200000000000003 61.899999999999999 33.5 -0.70710678118654746 0.70710678118654746 0 
8 -0.43867759898068004 0.29813528012327195
1 54.57669446601691 62.102314107542362 33.797685892457636 -0.28108463771482722 -0.67859834454584567 0.67859834454584567 
1 54.700000000000003 62.399999999999999 33.5 -1 0 0 
1 54.700000000000003 62.399999999999999 1.6000000000000001 0 0 1 
Polygon3D 0
PolygonOnTriangulations 0
Surfaces 26
1 2.1000000000000001 23 1.6000000000000001 0 1 0 1 0 0 0 0 -1 
1 1.6000000000000001 23.5 1.6000000000000001 0.70710678118654757 0.70710678118654757 -0 0.70710678118654757 -0.70710678118654757 0 0 -0 -1 
1 2.0999999999999996 23.25 1.8500000000000005 -5.1915936174418339e-18 -0.70710678118654735 -0.70710678118654768 1 -3.6710110520579187e-18 -3.6710110520579203e-18 1.479953415041637e-34 0.70710678118654768 -0.70710678118654735 
1 2.0999999999999996 23.25 33.75 1.8895138205226177e-18 0.70710678118654746 -0.70710678118654746 1 -1.3360880356372444e-18 1.3360880356372444e-18 2.908827630390279e-35 0.70710678118654757 0.70710678118654757 
1 54.700000000000003 23 1.6000000000000001 -0.70710678118654757 0.70710678118654757 0 0.70710678118654757 0.70710678118654757 0 0 0 -1 
1 1.6000000000000001 61.899999999999999 1.6000000000000001 1 0 -0 0 -1 0 0 -0 -1 
1 1.7767766952966357 23.676776695296638 1.8500000000000005 -0.50000000000000022 -0.50000000000000011 -0.70710678118654735 0.70710678118654746 -0.70710678118654757 -5.551115123125779e-17 0.49999999999999989 0.49999999999999983 -0.70710678118654768 
1 1.7767766952966357 23.676776695296638 33.75 0.50000000000000033 0.50000000000000033 -0.70710678118654713 0.70710678118654757 -0.70710678118654746 -1.1093356479670479e-31 0.49999999999999967 0.49999999999999978 0.70710678118654802 
1 28.400000000000013 42.699999999999996 1.6000000000000008 0 0 1 1 0 -0 -0 1 0 
1 54.523223304703365 23.176776695296638 1.8500000000000005 0.49999999999999917 -0.49999999999999911 -0.70710678118654868 0.70710678118654746 0.70710678118654746 2.7755575615628273e-17 -0.50000000000000089 0.50000000000000089 -0.70710678118654635 
1 28.400000000000013 42.699999999999996 1.6000000000000008 0 0 1 1 0 -0 -0 1 0 
1 54.523223304703365 23.176776695296638 33.75 -0.49999999999999922 0.49999999999999922 -0.70710678118654868 0.70710678118654757 0.70710678118654746 6.0397163055983716e-31 -0.50000000000000078 0.50000000000000089 0.70710678118654646 
1 55.200000000000003 23.5 1.6000000000000001 -1 0 0 0 1 0 0 0 -1 
1 2.1000000000000001 62.399999999999999 1.6000000000000001 0.70710678118654757 -0.70710678118654757 0 -0.70710678118654757 -0.70710678118654757 0 0 -0 -1 
1 1.8500000000000005 61.899999999999999 1.8500000000000005 -0.70710678118654746 -1.0455828798551125e-18 -0.70710678118654746 7.3933874463810939e-19 -1 7.3933874463810939e-19 0.70710678118654757 2.9157360980644382e-35 -0.70710678118654757 
1 1.8500000000000005 61.899999999999999 33.75 0.70710678118654768 5.1915936174418339e-18 -0.70710678118654735 3.6710110520579203e-18 -1 -3.6710110520579187e-18 0.70710678118654735 -1.479953415041637e-34 0.70710678118654768 
1 54.950000000000003 23.5 1.8500000000000005 0.70710678118654735 -3.6616013026031661e-18 -0.70710678118654768 2.5891431110721938e-18 1 -2.5891431110721949e-18 -0.70710678118654768 6.4729025345973476e-36 -0.70710678118654735 
1 2.2767766952966295 62.223223304703367 1.8500000000000005 -0.49999999999999883 0.49999999999999883 -0.70710678118654924 -0.70710678118654757 -0.70710678118654757 2.775557561562749e-17 0.50000000000000122 -0.50000000000000122 -0.70710678118654591 
1 55.023223304703365 61.72322330470336 1.8500000000000005 0.49999999999999767 0.49999999999999817 -0.70710678118655057 -0.70710678118654768 0.70710678118654735 2.2204460492503624e-16 -0.50000000000000211 -0.50000000000000211 -0.70710678118654458 
1 54.700000000000003 62.149999999999999 1.8500000000000005 5.1915936174418339e-18 0.70710678118654735 -0.70710678118654768 -1 3.6710110520579187e-18 -3.6710110520579203e-18 -1.479953415041637e-34 -0.70710678118654768 -0.70710678118654735 
1 54.950000000000003 23.5 33.75 -0.70710678118654746 -1.8895138205226177e-18 -0.70710678118654746 -1.3360880356372444e-18 1 -1.3360880356372444e-18 -0.70710678118654757 2.908827630390279e-35 0.70710678118654757 
1 2.2767766952966295 62.223223304703367 33.75 0.49999999999999895 -0.49999999999999889 -0.70710678118654902 -0.70710678118654746 -0.70710678118654757 -2.7755575615627866e-17 0.50000000000000111 -0.500000000000001 0.70710678118654602 
1 55.023223304703365 61.72322330470336 33.75 -0.49999999999999778 -0.49999999999999822 -0.70710678118655035 -0.70710678118654768 0.70710678118654735 -2.2204460492503575e-16 -0.500000000000002 -0.500000000000002 0.70710678118654469 
1 54.700000000000003 62.149999999999999 33.75 -1.8895138205226177e-18 -0.70710678118654746 -0.70710678118654746 -1 1.3360880356372444e-18 1.3360880356372444e-18 -2.908827630390279e-35 -0.70710678118654757 0.70710678118654757 
1 55.200000000000003 61.899999999999999 1.6000000000000001 -0.70710678118654757 -0.70710678118654757 0 -0.70710678118654757 0.70710678118654757 0 -0 0 -1 
1 54.700000000000003 62.399999999999999 1.6000000000000001 0 -1 0 -1 0 0 -0 -0 -1 
Triangulations 0

TShapes 143
Ve
1e-07
2.1 23 2.1
0 0

0101101
*
Ve
1e-07
2.1 23 33.5
0 0

0101101
*
Ed
 1e-07 1 1 0
1  1 0 0.5 31.9
2  1 1 0 0.5 31.9
2  2 2 0 0.5 31.9
0

0101000
+143 0 -142 0 *
Ve
1e-07
54.7 23 2.1
0 0

0101101
*
Ed
 1e-07 1 1 0
1  2 0 4.44089209850063e-16 52.6
2  3 1 0 4.44089209850063e-16 52.6
2  4 3 0 4.44089209850063e-16 52.6
0

0101000
+143 0 -140 0 *
Ve
1e-07
54.7 23 33.5
0 0

0101101
*
Ed
 1e-07 1 1 0
1  3 0 4.44089209850063e-16 52.6
2  5 1 0 4.44089209850063e-16 52.6
2  6 4 0 4.44089209850063e-16 52.6
0

0101000
+142 0 -138 0 *
Ed
 1e-07 1 1 0
1  4 0 0.5 31.9
2  7 1 0 0.5 31.9
2  8 5 0 0.5 31.9
0

0101000
+140 0 -138 0 *
Wi

0101100
+141 0 -139 0 +137 0 -136 0 *
Fa
0  1e-07 1 0

0101000
+135 0 *
Ve
1e-07
1.6 23.5 2.1
0 0

0101101
*
Ve
1e-07
1.6 23.5 33.5
0 0

0101101
*
Ed
 1e-07 1 1 0
1  5 0 0.5 31.9
2  9 2 0 0.5 31.9
2  10 6 0 0.5 31.9
0

0101000
+133 0 -132 0 *
Ed
 1e-07 1 1 0
1  6 0 0 0.707106781186548
2  11 2 0 0 0.707106781186548
2  12 7 0 0 0.707106781186548
0

0101000
+133 0 -143 0 *
Ed
 1e-07 1 1 0
1  7 0 0 0.707106781186548
2  13 2 0 0 0.707106781186548
2  14 8 0 0 0.707106781186548
0

0101000
+132 0 -142 0 *
Wi

0101100
+131 0 -130 0 +129 0 -141 0 *
Fa
0  1e-07 2 0

0101000
+128 0 *
Ve
1e-07
2.30710678118655 23.5 1.6
0 0

0101101
*
Ed
 1e-07 1 1 0
1  8 0 -0.438677598980683 0.298135280123268
2  15 3 0 -0.438677598980683 0.298135280123268
2  16 7 0 -0.438677598980683 0.298135280123268
0

0101000
+143 0 -126 0 *
Ve
1e-07
54.4928932188134 23.5 1.6
0 0

0101101
*
Ed
 1e-07 1 1 0
1  9 0 0.207106781186547 52.3928932188134
2  17 3 0 0.207106781186547 52.3928932188134
2  18 9 0 0.207106781186547 52.3928932188134
0

0101000
+126 0 -124 0 *
Ed
 1e-07 1 1 0
1  10 0 -7.73182514417277 -6.99501226506881
2  19 3 0 -7.73182514417277 -6.99501226506881
2  20 10 0 -7.73182514417277 -6.99501226506881
0

0101000
+140 0 -124 0 *
Wi

0101100
-125 0 +139 0 -123 0 +122 0 *
Fa
0  1e-07 3 0

0101000
+121 0 *
Ve
1e-07
2.30710678118655 23.5 34
0 0

0101101
*
Ed
 1e-07 1 1 0
1  11 0 -0.438677598980682 0.298135280123268
2  21 4 0 -0.438677598980682 0.298135280123268
2  22 8 0 -0.438677598980682 0.298135280123268
0

0101000
+142 0 -119 0 *
Ve
1e-07
54.4928932188134 23.5 34
0 0

0101101
*
Ed
 1e-07 1 1 0
1  12 0 0.207106781186547 52.3928932188134
2  23 4 0 0.207106781186547 52.3928932188134
2  24 11 1 0.207106781186547 52.3928932188134
0

0101000
+119 0 -117 0 *
Ed
 1e-07 1 1 0
1  13 0 -7.73182514417277 -6.99501226506882
2  25 4 0 -7.73182514417277 -6.99501226506882
2  26 12 0 -7.73182514417277 -6.99501226506882
0

0101000
+138 0 -117 0 *
Wi

0101100
-118 0 +137 0 -116 0 +115 0 *
Fa
0  1e-07 4 0

0101000
+114 0 *
Ve
1e-07
55.2 23.5 2.1
0 0

0101101
*
Ed
 1e-07 1 1 0
1  14 0 0 0.707106781186548
2  27 5 0 0 0.707106781186548
2  28 10 0 0 0.707106781186548
0

0101000
+140 0 -112 0 *
Ve
1e-07
55.2 23.5 33.5
0 0

0101101
*
Ed
 1e-07 1 1 0
1  15 0 0 0.707106781186548
2  29 5 0 0 0.707106781186548
2  30 12 0 0 0.707106781186548
0

0101000
+138 0 -110 0 *
Ed
 1e-07 1 1 0
1  16 0 0.5 31.9
2  31 5 0 0.5 31.9
2  32 13 0 0.5 31.9
0

0101000
+112 0 -110 0 *
Wi

0101100
+136 0 -111 0 +109 0 -108 0 *
Fa
0  1e-07 5 0

0101000
+107 0 *
Ve
1e-07
1.6 61.9 2.1
0 0

0101101
*
Ve
1e-07
1.6 61.9 33.5
0 0

0101101
*
Ed
 1e-07 1 1 0
1  17 0 0.5 31.9
2  33 6 0 0.5 31.9
2  34 14 0 0.5 31.9
0

0101000
+105 0 -104 0 *
Ed
 1e-07 1 1 0
1  18 0 0 38.4
2  35 6 0 0 38.4
2  36 15 0 0 38.4
0

0101000
+105 0 -133 0 *
Ed
 1e-07 1 1 0
1  19 0 0 38.4
2  37 6 0 0 38.4
2  38 16 0 0 38.4
0

0101000
+104 0 -132 0 *
Wi

0101100
+103 0 -102 0 +101 0 -131 0 *
Fa
0  1e-07 6 0

0101000
+100 0 *
Ve
1e-07
2.1 23.7071067811865 1.6
0 0

0101101
*
Ed
 1e-07 1 1 0
1  20 0 -5.73612421639746 -4.99931133729351
2  39 7 0 -5.73612421639746 -4.99931133729351
2  40 15 0 -5.73612421639746 -4.99931133729351
0

0101000
+133 0 -98 0 *
Ed
 1e-07 1 1 0
1  21 0 0.207106781186548 0.499999999999999
2  41 7 0 0.207106781186548 0.499999999999999
2  42 9 0 0.207106781186548 0.499999999999999
0

0101000
+98 0 -126 0 *
Wi

0101100
-97 0 +130 0 -96 0 +125 0 *
Fa
0  1e-07 7 0

0101000
+95 0 *
Ve
1e-07
2.1 23.7071067811865 34
0 0

0101101
*
Ed
 1e-07 1 1 0
1  22 0 -5.73612421639746 -4.99931133729351
2  43 8 0 -5.73612421639746 -4.99931133729351
2  44 16 0 -5.73612421639746 -4.99931133729351
0

0101000
+132 0 -93 0 *
Ed
 1e-07 1 1 0
1  23 0 0.207106781186554 0.500000000000004
2  45 8 0 0.207106781186554 0.500000000000004
2  46 11 1 0.207106781186554 0.500000000000004
0

0101000
+93 0 -119 0 *
Wi

0101100
-92 0 +129 0 -91 0 +118 0 *
Fa
0  1e-07 8 0

0101000
+90 0 *
Ve
1e-07
54.7 23.7071067811866 1.6
0 0

0101101
*
Ed
 1e-07 1 1 0
1  24 0 0.207106781186543 0.500000000000004
2  47 9 0 0.207106781186543 0.500000000000004
2  48 10 0 0.207106781186543 0.500000000000004
0

0101000
+124 0 -88 0 *
Ve
1e-07
2.1 61.6928932188135 1.6
0 0

0101101
*
Ed
 1e-07 1 1 0
1  25 0 0.207106781186535 38.1928932188135
2  49 9 0 0.207106781186535 38.1928932188135
2  50 15 0 0.207106781186535 38.1928932188135
0

0101000
+86 0 -98 0 *
Ve
1e-07
54.7 61.6928932188134 1.6
0 0

0101101
*
Ed
 1e-07 1 1 0
1  26 0 0.207106781186553 38.1928932188134
2  51 9 0 0.207106781186553 38.1928932188134
2  52 17 0 0.207106781186553 38.1928932188134
0

0101000
+88 0 -84 0 *
Ve
1e-07
2.30710678118653 61.9 1.6
0 0

0101101
*
Ed
 1e-07 1 1 0
1  27 0 0.207106781186554 0.499999999999989
2  53 9 0 0.207106781186554 0.499999999999989
2  54 18 0 0.207106781186554 0.499999999999989
0

0101000
+82 0 -86 0 *
Ve
1e-07
54.4928932188134 61.9 1.6
0 0

0101101
*
Ed
 1e-07 1 1 0
1  28 0 0.207106781186543 0.500000000000004
2  55 9 0 0.207106781186543 0.500000000000004
2  56 19 0 0.207106781186543 0.500000000000004
0

0101000
+84 0 -80 0 *
Ed
 1e-07 1 1 0
1  29 0 0.207106781186553 52.3928932188135
2  57 9 0 0.207106781186553 52.3928932188135
2  58 20 0 0.207106781186553 52.3928932188135
0

0101000
+80 0 -82 0 *
Wi

0101100
+123 0 +96 0 +87 0 +85 0 +83 0 +81 0 +79 0 +78 0 *
Fa
0  1e-07 9 0

0101000
+77 0 *
Ed
 1e-07 1 1 0
1  30 0 -0.43867759898068 0.298135280123273
2  59 10 0 -0.43867759898068 0.298135280123273
2  60 17 0 -0.43867759898068 0.298135280123273
0

0101000
+112 0 -88 0 *
Wi

0101100
-122 0 +111 0 -87 0 +75 0 *
Fa
0  1e-07 10 0

0101000
+74 0 *
Ve
1e-07
54.7 23.7071067811866 34
0 0

0101101
*
Ed
 1e-07 1 1 0
1  31 0 0.207106781186538 0.500000000000004
2  61 11 1 0.207106781186538 0.500000000000004
2  62 12 0 0.207106781186538 0.500000000000004
0

0101000
+117 0 -72 0 *
Ve
1e-07
2.1 61.6928932188135 34
0 0

0101101
*
Ed
 1e-07 1 1 0
1  32 0 0.207106781186535 38.1928932188135
2  63 11 1 0.207106781186535 38.1928932188135
2  64 16 0 0.207106781186535 38.1928932188135
0

0101000
+70 0 -93 0 *
Ve
1e-07
54.7 61.6928932188134 34
0 0

0101101
*
Ed
 1e-07 1 1 0
1  33 0 0.207106781186553 38.1928932188134
2  65 11 1 0.207106781186553 38.1928932188134
2  66 21 0 0.207106781186553 38.1928932188134
0

0101000
+72 0 -68 0 *
Ve
1e-07
2.30710678118654 61.9 34
0 0

0101101
*
Ed
 1e-07 1 1 0
1  34 0 0.207106781186554 0.499999999999989
2  67 11 1 0.207106781186554 0.499999999999989
2  68 22 0 0.207106781186554 0.499999999999989
0

0101000
+66 0 -70 0 *
Ve
1e-07
54.4928932188134 61.9 34
0 0

0101101
*
Ed
 1e-07 1 1 0
1  35 0 0.207106781186543 0.500000000000004
2  69 11 1 0.207106781186543 0.500000000000004
2  70 23 0 0.207106781186543 0.500000000000004
0

0101000
+68 0 -64 0 *
Ed
 1e-07 1 1 0
1  36 0 0.207106781186553 52.3928932188135
2  71 11 1 0.207106781186553 52.3928932188135
2  72 24 0 0.207106781186553 52.3928932188135
0

0101000
+64 0 -66 0 *
Wi

0101100
+116 0 +91 0 +71 0 +69 0 +67 0 +65 0 +63 0 +62 0 *
Fa
0  1e-07 11 0

0101000
+61 2 *
Ed
 1e-07 1 1 0
1  37 0 -0.438677598980677 0.298135280123272
2  73 12 0 -0.438677598980677 0.298135280123272
2  74 21 0 -0.438677598980677 0.298135280123272
0

0101000
+110 0 -72 0 *
Wi

0101100
-115 0 +109 0 -71 0 +59 0 *
Fa
0  1e-07 12 0

0101000
+58 0 *
Ve
1e-07
55.2 61.9 2.1
0 0

0101101
*
Ed
 1e-07 1 1 0
1  38 0 0 38.4
2  75 13 0 0 38.4
2  76 17 0 0 38.4
0

0101000
+112 0 -56 0 *
Ve
1e-07
55.2 61.9 33.5
0 0

0101101
*
Ed
 1e-07 1 1 0
1  39 0 0 38.4
2  77 13 0 0 38.4
2  78 21 0 0 38.4
0

0101000
+110 0 -54 0 *
Ed
 1e-07 1 1 0
1  40 0 0.5 31.9
2  79 13 0 0.5 31.9
2  80 25 0 0.5 31.9
0

0101000
+56 0 -54 0 *
Wi

0101100
+108 0 -55 0 +53 0 -52 0 *
Fa
0  1e-07 13 0

0101000
+51 0 *
Ve
1e-07
2.1 62.4 2.1
0 0

0101101
*
Ve
1e-07
2.1 62.4 33.5
0 0

0101101
*
Ed
 1e-07 1 1 0
1  41 0 0.5 31.9
2  81 14 0 0.5 31.9
2  82 26 0 0.5 31.9
0

0101000
+49 0 -48 0 *
Ed
 1e-07 1 1 0
1  42 0 -7.105427357601e-15 0.70710678118654
2  83 14 0 -7.105427357601e-15 0.70710678118654
2  84 18 0 -7.105427357601e-15 0.70710678118654
0

0101000
+49 0 -105 0 *
Ed
 1e-07 1 1 0
1  43 0 -7.105427357601e-15 0.70710678118654
2  85 14 0 -7.105427357601e-15 0.70710678118654
2  86 22 0 -7.105427357601e-15 0.70710678118654
0

0101000
+48 0 -104 0 *
Wi

0101100
+47 0 -46 0 +45 0 -103 0 *
Fa
0  1e-07 14 0

0101000
+44 0 *
Ed
 1e-07 1 1 0
1  44 0 -0.438677598980682 0.29813528012327
2  87 15 0 -0.438677598980682 0.29813528012327
2  88 18 0 -0.438677598980682 0.29813528012327
0

0101000
+105 0 -86 0 *
Wi

0101100
-42 0 +102 0 -85 0 +97 0 *
Fa
0  1e-07 15 0

0101000
+41 0 *
Ed
 1e-07 1 1 0
1  45 0 -0.438677598980681 0.298135280123271
2  89 16 0 -0.438677598980681 0.298135280123271
2  90 22 0 -0.438677598980681 0.298135280123271
0

0101000
+104 0 -70 0 *
Wi

0101100
-39 0 +101 0 -69 0 +92 0 *
Fa
0  1e-07 16 0

0101000
+38 0 *
Ed
 1e-07 1 1 0
1  46 0 -5.73612421639761 -4.99931133729366
2  91 17 0 -5.73612421639761 -4.99931133729366
2  92 19 0 -5.73612421639761 -4.99931133729366
0

0101000
+56 0 -84 0 *
Wi

0101100
-75 0 +55 0 -83 0 +36 0 *
Fa
0  1e-07 17 0

0101000
+35 0 *
Ed
 1e-07 1 1 0
1  47 0 -7.7318251441728 -6.99501226506885
2  93 18 0 -7.7318251441728 -6.99501226506885
2  94 20 0 -7.7318251441728 -6.99501226506885
0

0101000
+49 0 -82 0 *
Wi

0101100
-33 0 +46 0 -81 0 +42 0 *
Fa
0  1e-07 18 0

0101000
+32 0 *
Ve
1e-07
54.7 62.4 2.1
0 0

0101101
*
Ed
 1e-07 1 1 0
1  48 0 0 0.707106781186548
2  95 19 0 0 0.707106781186548
2  96 25 0 0 0.707106781186548
0

0101000
+56 0 -30 0 *
Ed
 1e-07 1 1 0
1  49 0 -0.438677598980677 0.298135280123276
2  97 19 0 -0.438677598980677 0.298135280123276
2  98 20 0 -0.438677598980677 0.298135280123276
0

0101000
+30 0 -80 0 *
Wi

0101100
-36 0 +29 0 -79 0 +28 0 *
Fa
0  1e-07 19 0

0101000
+27 0 *
Ed
 1e-07 1 1 0
1  50 0 0 52.6
2  99 20 0 0 52.6
2  100 26 0 0 52.6
0

0101000
+30 0 -49 0 *
Wi

0101100
-28 0 +25 0 -78 0 +33 0 *
Fa
0  1e-07 20 0

0101000
+24 0 *
Ed
 1e-07 1 1 0
1  51 0 -5.7361242163976 -4.99931133729366
2  101 21 0 -5.7361242163976 -4.99931133729366
2  102 23 0 -5.7361242163976 -4.99931133729366
0

0101000
+54 0 -68 0 *
Wi

0101100
-59 0 +53 0 -67 0 +22 0 *
Fa
0  1e-07 21 0

0101000
+21 0 *
Ed
 1e-07 1 1 0
1  52 0 -7.7318251441728 -6.99501226506884
2  103 22 0 -7.7318251441728 -6.99501226506884
2  104 24 0 -7.7318251441728 -6.99501226506884
0

0101000
+48 0 -66 0 *
Wi

0101100
-19 0 +45 0 -65 0 +39 0 *
Fa
0  1e-07 22 0

0101000
+18 0 *
Ve
1e-07
54.7 62.4 33.5
0 0

0101101
*
Ed
 1e-07 1 1 0
1  53 0 0 0.707106781186548
2  105 23 0 0 0.707106781186548
2  106 25 0 0 0.707106781186548
0

0101000
+54 0 -16 0 *
Ed
 1e-07 1 1 0
1  54 0 -0.43867759898068 0.298135280123272
2  107 23 0 -0.43867759898068 0.298135280123272
2  108 24 0 -0.43867759898068 0.298135280123272
0

0101000
+16 0 -64 0 *
Wi

0101100
-22 0 +15 0 -63 0 +14 0 *
Fa
0  1e-07 23 0

0101000
+13 0 *
Ed
 1e-07 1 1 0
1  55 0 0 52.6
2  109 24 0 0 52.6
2  110 26 0 0 52.6
0

0101000
+16 0 -48 0 *
Wi

0101100
-14 0 +11 0 -62 0 +19 0 *
Fa
0  1e-07 24 0

0101000
+10 0 *
Ed
 1e-07 1 1 0
1  56 0 0.5 31.9
2  111 25 0 0.5 31.9
2  112 26 0 0.5 31.9
0

0101000
+30 0 -16 0 *
Wi

0101100
+52 0 -29 0 +15 0 -8 0 *
Fa
0  1e-07 25 0

0101000
+7 0 *
Wi

0101100
+8 0 -25 0 +11 0 -47 0 *
Fa
0  1e-07 26 0

0101000
+5 0 *
Sh

0101100
-134 0 -127 0 -120 0 +113 0 -106 0 -99 0 -94 0 +89 0 -76 0 -73 0 
+60 1 +57 0 -50 0 -43 0 -40 0 +37 0 -34 0 -31 0 -26 0 -23 0 
+20 0 +17 0 +12 0 +9 0 -6 0 -4 0 *
So

0100000
+3 0 *
Co

1100000
+2 0 *

+1 0 