DBRep_DrawableShape

CASCADE Topology V1, (c) Matra-Datavision
Locations 2
1
              1               0               0               0 
              0               1               0               0 
              0               0               1            23.4 
2  1 -1 0
Curve2ds 112
1 0 0 0 -1 
1 0.70710678118654757 0 0 -1 
1 -4.4408920985006262e-16 -0.49999999999999956 1 0 
1 0 -0.35355339059327368 1 0 
1 -4.4408920985006262e-16 -22.899999999999999 1 0 
1 0 -0.35355339059327306 1 0 
1 50.899999999999999 0 0 -1 
1 0 0 0 -1 
1 0 0 0 -1 
1 23 0 0 -1 
1 1.1102230246251565e-16 -0.49999999999999956 1 0 
1 1.6653345369377348e-16 -0.35355339059327362 1 0 
1 1.1102230246251565e-16 -22.899999999999999 1 0 
1 1.6653345369377348e-16 -0.35355339059327306 1 0 
1 0.1233055339830873 0.067438035847454642 0.28108463771482078 0.95968298226066717 
1 0.58380124720345261 0.067438035847454586 -0.28108463771481967 0.95968298226066751 
1 0 0.35355339059327368 1 0 
1 -25.449999999999989 -11.499999999999996 1 0 
1 48.793860018001205 6.8372583002031391 -0.28108463771482434 0.95968298226066617 
1 2.1061399819987456 6.8372583002031533 0.28108463771481668 0.95968298226066839 
1 0.12330553398308819 0.06743803584745385 0.28108463771482078 0.95968298226066717 
1 0.58380124720345372 0.067438035847454392 -0.28108463771481967 0.95968298226066751 
1 0 0.35355339059327662 1 0 
1 -25.449999999999989 -11.499999999999996 1 0 
1 48.793860018001197 6.8372583002031364 -0.28108463771482434 0.95968298226066617 
1 2.1061399819987399 6.8372583002031551 0.28108463771481668 0.95968298226066839 
1 0 -0.49999999999999956 1 0 
1 0 -0.35355339059327662 1 0 
1 0 -22.899999999999999 1 0 
1 0 -0.35355339059327484 1 0 
1 0.70710678118654757 0 0 -1 
1 0 0 0 -1 
1 0 0 0 -1 
1 0.70710678118654757 0 0 -1 
1 0 -0.49999999999999956 1 0 
1 0 -0.35355339059327368 1 0 
1 0 -22.899999999999999 1 0 
1 0 -0.35355339059327662 1 0 
1 1.0039703808468987 3.0742158999150941 0.28108463771481984 0.95968298226066751 
1 21.996029619153102 3.0742158999150906 -0.28108463771482067 0.95968298226066717 
1 -1.1102230246251565e-16 0.35355339059327395 1 0 
1 -25.596446609406716 -11.146446609406725 0.70710678118654757 -0.70710678118654757 
1 1.0039703808468983 3.0742158999150933 0.28108463771481984 0.95968298226066751 
1 21.996029619153102 3.0742158999150893 -0.28108463771482067 0.95968298226066717 
1 -1.1102230246251565e-16 0.35355339059327662 1 0 
1 -25.596446609406716 -11.146446609406725 0.70710678118654757 -0.70710678118654757 
1 25.096446609406737 -11.646446609406722 0.70710678118654757 0.70710678118654757 
1 0 0.35355339059327306 1 0 
1 -25.449999999999985 11.500000000000005 0 -1 
1 0 0.35355339059327368 1 0 
1 25.450000000000014 -11.499999999999996 0 1 
1 0 0.35355339059327662 1 0 
1 -25.096446609406716 11.646446609406736 -0.70710678118654757 -0.70710678118654757 
1 0 0.35355339059327662 1 0 
1 25.596446609406744 11.146446609406736 -0.70710678118654757 0.70710678118654757 
1 0 0.35355339059327662 1 0 
1 25.450000000000014 11.500000000000005 -1 0 
1 0 0.35355339059327306 1 0 
1 0.58380124720345861 0.067438035847454156 -0.28108463771481712 0.95968298226066817 
1 0.12330553398309441 0.067438035847453698 0.28108463771482389 0.95968298226066617 
1 25.096446609406737 -11.646446609406722 0.70710678118654757 0.70710678118654757 
1 0 0.35355339059327484 1 0 
1 -25.449999999999985 11.500000000000005 0 -1 
1 0 0.35355339059327306 1 0 
1 25.450000000000014 -11.499999999999996 0 1 
1 0 0.35355339059327306 1 0 
1 -25.096446609406716 11.646446609406736 -0.70710678118654757 -0.70710678118654757 
1 0 0.35355339059327573 1 0 
1 25.596446609406744 11.146446609406736 -0.70710678118654757 0.70710678118654757 
1 0 0.35355339059327306 1 0 
1 25.450000000000014 11.500000000000005 -1 0 
1 0 0.35355339059327517 1 0 
1 0.58380124720345861 0.067438035847454461 -0.28108463771481712 0.95968298226066817 
1 0.12330553398309441 0.067438035847454017 0.28108463771482389 0.95968298226066617 
1 -4.4408920985006262e-16 -0.49999999999999956 1 0 
1 0 -0.35355339059326951 1 0 
1 -4.4408920985006262e-16 -22.899999999999999 1 0 
1 0 -0.35355339059326951 1 0 
1 23 0 0 -1 
1 0 0 0 -1 
1 0 0 0 -1 
1 50.899999999999999 0 0 -1 
1 3.5527136788005009e-15 -0.49999999999999956 1 0 
1 3.5527136788005009e-15 -0.35355339059327129 1 0 
1 3.5527136788005009e-15 -22.899999999999999 1 0 
1 3.5527136788005009e-15 -0.35355339059327129 1 0 
1 0.12330553398308552 0.067438035847454961 0.2810846377148199 0.95968298226066751 
1 0.58380124720345328 0.067438035847456154 -0.28108463771482045 0.95968298226066728 
1 0.12330553398308552 0.067438035847453698 0.2810846377148199 0.95968298226066751 
1 0.58380124720345394 0.067438035847455086 -0.28108463771482045 0.95968298226066728 
1 21.996029619153084 3.0742158999151119 -0.281084637714823 0.95968298226066651 
1 1.0039703808468967 3.074215899915123 0.2810846377148179 0.95968298226066806 
1 2.1061399819987345 6.8372583002030316 0.28108463771482095 0.95968298226066706 
1 48.793860018001268 6.8372583002030272 -0.28108463771481951 0.95968298226066762 
1 0 -0.35355339059327662 1 0 
1 0 -0.49999999999999956 1 0 
1 0.58380124720345161 0.067438035847456404 -0.28108463771481801 0.95968298226066795 
1 0.12330553398308552 0.067438035847453698 0.28108463771482284 0.95968298226066662 
1 0 -0.35355339059327662 1 0 
1 0 -0.49999999999999956 1 0 
1 21.996029619153084 3.0742158999151092 -0.281084637714823 0.95968298226066651 
1 1.0039703808468943 3.0742158999151226 0.2810846377148179 0.95968298226066806 
1 2.1061399819987305 6.8372583002030298 0.28108463771482095 0.95968298226066706 
1 48.793860018001261 6.8372583002030236 -0.28108463771481951 0.95968298226066762 
1 0 -0.35355339059327662 1 0 
1 0 -22.899999999999999 1 0 
1 0.58380124720345161 0.067438035847456709 -0.28108463771481801 0.95968298226066795 
1 0.12330553398308552 0.067438035847454017 0.28108463771482284 0.95968298226066662 
1 0 -0.35355339059327529 1 0 
1 0 -22.899999999999999 1 0 
1 0.70710678118654757 0 0 -1 
1 0 -0 0 -1 
Curves 56
1 2.1000000000000001 1.6000000000000001 1.6000000000000001 0 0 1 
1 2.0999999999999996 1.5999999999999999 2.0999999999999996 1 0 0 
1 2.0999999999999996 1.5999999999999999 24.5 1 0 0 
1 53 1.6000000000000001 1.6000000000000001 0 0 1 
1 1.6000000000000001 2.1000000000000001 1.6000000000000001 0 0 1 
1 1.5999999999999974 2.0999999999999974 2.0999999999999996 0.70710678118654746 -0.70710678118654746 0 
1 1.5999999999999974 2.0999999999999974 24.5 0.70710678118654746 -0.70710678118654746 0 
8 -0.43867759898068037 0.29813528012327001
1 2.2233055339830869 1.8976858924576363 1.802314107542363 0.28108463771482078 0.67859834454584678 -0.67859834454584711 
1 2.0999999999999996 2.0999999999999996 1.5999999999999996 1 0 0 
8 -7.4929032021152029 -6.756090323011251
1 50.893860018001206 6.6846717087976453 -2.9846717087976482 -0.28108463771482434 0.67859834454584611 -0.67859834454584644 
8 -0.43867759898067948 0.29813528012327439
1 2.2233055339830878 1.8976858924576356 24.797685892457636 0.28108463771482078 0.67859834454584678 0.67859834454584711 
1 2.0999999999999996 2.0999999999999996 25 1 0 0 
8 -7.492903202115202 -6.7560903230112492
1 50.893860018001199 6.6846717087976435 29.584671708797647 -0.28108463771482434 0.67859834454584611 0.67859834454584644 
1 53 1.6000000000000001 2.0999999999999996 0.70710678118654746 0.70710678118654746 0 
1 53 1.6000000000000001 24.5 0.70710678118654746 0.70710678118654746 0 
1 53.5 2.1000000000000001 1.6000000000000001 0 0 1 
1 1.6000000000000001 25.100000000000001 1.6000000000000001 0 0 1 
1 1.6000000000000008 25.100000000000001 2.0999999999999996 0 -1 0 
1 1.6000000000000008 25.100000000000001 24.5 0 -1 0 
8 -3.571772505993362 -2.8349596268894111
1 4.0237989096614655 3.1039703808469001 -0.32379890966146618 0.67859834454584689 0.28108463771482067 -0.67859834454584711 
1 1.9535533905932712 2.4535533905932714 1.5999999999999996 0.70710678118654746 -0.70710678118654746 0 
8 -3.5717725059933612 -2.8349596268894097
1 4.0237989096614655 3.1039703808469006 26.923798909661464 0.67859834454584689 0.28108463771482067 0.67859834454584711 
1 1.9535533905932712 2.4535533905932714 25 0.70710678118654746 -0.70710678118654746 0 
1 52.646446609406723 1.9535533905932738 1.5999999999999996 0.70710678118654746 0.70710678118654746 0 
1 2.1000000000000005 25.100000000000001 1.5999999999999996 0 -1 0 
1 53 2.0999999999999996 1.5999999999999996 0 1 0 
1 2.4535533905932714 25.246446609406732 1.5999999999999996 -0.70710678118654746 -0.70710678118654746 0 
1 53.14644660940673 24.746446609406732 1.5999999999999996 -0.70710678118654746 0.70710678118654746 0 
1 53 25.100000000000001 1.5999999999999996 -1 0 0 
8 -0.43867759898068004 0.2981352801232714
1 53.202314107542364 2.2233055339830941 1.8023141075423639 -0.67859834454584633 0.28108463771482395 -0.67859834454584633 
1 52.646446609406723 1.9535533905932738 25 0.70710678118654746 0.70710678118654746 0 
1 2.1000000000000005 25.100000000000001 25 0 -1 0 
1 53 2.0999999999999996 25 0 1 0 
1 2.4535533905932714 25.246446609406732 25 -0.70710678118654746 -0.70710678118654746 0 
1 53.14644660940673 24.746446609406732 25 -0.70710678118654746 0.70710678118654746 0 
1 53 25.100000000000001 25 -1 0 0 
8 -0.43867759898068071 0.29813528012327101
1 53.202314107542364 2.2233055339830941 24.797685892457636 -0.67859834454584633 0.28108463771482395 0.67859834454584633 
1 53.5 2.0999999999999996 2.0999999999999996 0 1 0 
1 53.5 2.0999999999999996 24.5 0 1 0 
1 53.5 25.100000000000001 1.6000000000000001 0 0 1 
1 2.1000000000000001 25.600000000000001 1.6000000000000001 0 0 1 
1 2.0999999999999974 25.600000000000005 2.0999999999999996 -0.70710678118654746 -0.70710678118654746 0 
1 2.0999999999999974 25.600000000000005 24.5 -0.70710678118654746 -0.70710678118654746 0 
8 -0.43867759898068032 0.29813528012327073
1 1.8976858924576372 24.976694466016916 1.8023141075423625 0.678598344545847 -0.28108463771481984 -0.67859834454584733 
8 -0.43867759898068093 0.2981352801232709
1 1.8976858924576363 24.976694466016916 24.797685892457636 0.678598344545847 -0.28108463771481984 0.67859834454584733 
8 -3.5717725059933874 -2.834959626889435
1 51.076201090338522 24.096029619153086 -0.32379890966148239 -0.67859834454584644 -0.281084637714823 -0.67859834454584644 
8 -7.4929032021150794 -6.7560903230111293
1 4.2061399819987351 20.515328291202433 -2.9846717087975674 0.28108463771481951 -0.67859834454584722 -0.67859834454584722 
1 53.500000000000007 25.100000000000005 2.0999999999999996 -0.70710678118654746 0.70710678118654746 0 
8 -0.4386775989806837 0.29813528012327045
1 52.876694466016914 25.302314107542365 1.8023141075423639 -0.28108463771482278 -0.67859834454584644 -0.67859834454584644 
1 53 25.600000000000001 2.0999999999999996 -1 0 0 
8 -3.5717725059933865 -2.834959626889435
1 51.076201090338522 24.096029619153082 26.923798909661478 -0.67859834454584644 -0.281084637714823 0.67859834454584644 
8 -7.4929032021150777 -6.7560903230111267
1 4.2061399819987377 20.515328291202437 29.584671708797565 0.28108463771481951 -0.67859834454584722 0.67859834454584722 
1 53.500000000000007 25.100000000000005 24.5 -0.70710678118654746 0.70710678118654746 0 
8 -0.43867759898068198 0.29813528012326984
1 52.876694466016914 25.302314107542365 24.797685892457636 -0.28108463771482278 -0.67859834454584644 0.67859834454584644 
1 53 25.600000000000001 24.5 -1 0 0 
1 53 25.600000000000001 1.6000000000000001 0 0 1 
Polygon3D 0
PolygonOnTriangulations 0
Surfaces 26
1 2.1000000000000001 1.6000000000000001 1.6000000000000001 0 1 0 1 0 0 0 0 -1 
1 1.6000000000000001 2.1000000000000001 1.6000000000000001 0.70710678118654757 0.70710678118654757 -0 0.70710678118654757 -0.70710678118654757 0 0 -0 -1 
1 2.0999999999999996 1.8499999999999996 1.8499999999999996 3.6616013026031653e-18 -0.70710678118654768 -0.70710678118654735 1 2.5891431110721945e-18 2.589143111072193e-18 -1.5307635809453353e-34 0.70710678118654735 -0.70710678118654768 
1 2.0999999999999996 1.8499999999999996 24.75 -3.6616013026031653e-18 0.70710678118654768 -0.70710678118654735 1 2.5891431110721945e-18 -2.589143111072193e-18 -1.5307635809453353e-34 0.70710678118654735 0.70710678118654768 
1 53 1.6000000000000001 1.6000000000000001 -0.70710678118654757 0.70710678118654757 0 0.70710678118654757 0.70710678118654757 0 0 0 -1 
1 1.6000000000000001 25.100000000000001 1.6000000000000001 1 0 -0 0 -1 0 0 -0 -1 
1 1.7767766952966344 2.2767766952966344 1.8499999999999996 -0.5 -0.49999999999999989 -0.70710678118654757 0.70710678118654746 -0.70710678118654757 -5.5511151231257839e-17 0.50000000000000011 0.5 -0.70710678118654746 
1 1.7767766952966344 2.2767766952966344 24.75 0.5 0.49999999999999989 -0.70710678118654757 0.70710678118654746 -0.70710678118654757 5.5511151231257839e-17 0.50000000000000011 0.5 0.70710678118654746 
1 27.549999999999986 13.599999999999996 1.5999999999999996 0 0 1 1 0 -0 -0 1 0 
1 52.823223304703362 1.7767766952966371 1.8499999999999996 0.49999999999999895 -0.49999999999999895 -0.70710678118654902 0.70710678118654757 0.70710678118654757 -1.0538688655686956e-30 -0.50000000000000111 0.50000000000000111 -0.70710678118654613 
1 27.549999999999986 13.599999999999996 1.5999999999999996 0 0 1 1 0 -0 -0 1 0 
1 52.823223304703362 1.7767766952966371 24.75 -0.49999999999999895 0.49999999999999895 -0.70710678118654902 0.70710678118654757 0.70710678118654757 1.0538688655686956e-30 -0.50000000000000111 0.50000000000000111 0.70710678118654613 
1 53.5 2.1000000000000001 1.6000000000000001 -1 0 0 0 1 0 0 0 -1 
1 2.1000000000000001 25.600000000000001 1.6000000000000001 0.70710678118654757 -0.70710678118654757 0 -0.70710678118654757 -0.70710678118654757 0 0 -0 -1 
1 1.8500000000000005 25.100000000000001 1.8499999999999996 -0.70710678118654768 -5.1915936174418339e-18 -0.70710678118654735 3.6710110520579203e-18 -1 3.6710110520579187e-18 0.70710678118654735 -1.479953415041637e-34 -0.70710678118654768 
1 1.8500000000000005 25.100000000000001 24.75 0.70710678118654768 5.1915936174418339e-18 -0.70710678118654735 3.6710110520579203e-18 -1 -3.6710110520579187e-18 0.70710678118654735 -1.479953415041637e-34 0.70710678118654768 
1 53.25 2.0999999999999996 1.8499999999999996 0.70710678118654746 1.8895138205226177e-18 -0.70710678118654746 -1.3360880356372444e-18 1 1.3360880356372444e-18 -0.70710678118654757 2.908827630390279e-35 -0.70710678118654757 
1 2.2767766952966344 25.42322330470337 1.8499999999999996 -0.50000000000000022 0.50000000000000022 -0.70710678118654724 -0.70710678118654746 -0.70710678118654757 -4.9303806576313238e-32 0.49999999999999983 -0.49999999999999978 -0.70710678118654779 
1 53.323223304703369 24.92322330470337 1.8499999999999996 0.49999999999999906 0.49999999999999939 -0.70710678118654857 -0.70710678118654757 0.70710678118654735 1.3877787807814523e-16 -0.50000000000000089 -0.50000000000000078 -0.70710678118654646 
1 53 25.350000000000001 1.8499999999999996 1.8895138205226177e-18 0.70710678118654746 -0.70710678118654746 -1 1.3360880356372444e-18 -1.3360880356372444e-18 -2.908827630390279e-35 -0.70710678118654757 -0.70710678118654757 
1 53.25 2.0999999999999996 24.75 -0.70710678118654746 -1.8895138205226177e-18 -0.70710678118654746 -1.3360880356372444e-18 1 -1.3360880356372444e-18 -0.70710678118654757 2.908827630390279e-35 0.70710678118654757 
1 2.2767766952966344 25.42322330470337 24.75 0.50000000000000022 -0.50000000000000022 -0.70710678118654724 -0.70710678118654746 -0.70710678118654757 4.9303806576313238e-32 0.49999999999999983 -0.49999999999999978 0.70710678118654779 
1 53.323223304703369 24.92322330470337 24.75 -0.49999999999999906 -0.49999999999999939 -0.70710678118654857 -0.70710678118654757 0.70710678118654735 -1.3877787807814523e-16 -0.50000000000000089 -0.50000000000000078 0.70710678118654646 
1 53 25.350000000000001 24.75 -1.8895138205226177e-18 -0.70710678118654746 -0.70710678118654746 -1 1.3360880356372444e-18 1.3360880356372444e-18 -2.908827630390279e-35 -0.70710678118654757 0.70710678118654757 
1 53.5 25.100000000000001 1.6000000000000001 -0.70710678118654757 -0.70710678118654757 0 -0.70710678118654757 0.70710678118654757 0 -0 0 -1 
1 53 25.600000000000001 1.6000000000000001 0 -1 0 -1 0 0 -0 -0 -1 
Triangulations 0

TShapes 143
Ve
1e-07
2.1 1.6 2.1
0 0

0101101
*
Ve
1e-07
2.1 1.6 24.5
0 0

0101101
*
Ed
 1e-07 1 1 0
1  1 0 0.5 22.9
2  1 1 0 0.5 22.9
2  2 2 0 0.5 22.9
0

0101000
+143 0 -142 0 *
Ve
1e-07
53 1.6 2.1
0 0

0101101
*
Ed
 1e-07 1 1 0
1  2 0 4.44089209850063e-16 50.9
2  3 1 0 4.44089209850063e-16 50.9
2  4 3 0 4.44089209850063e-16 50.9
0

0101000
+143 0 -140 0 *
Ve
1e-07
53 1.6 24.5
0 0

0101101
*
Ed
 1e-07 1 1 0
1  3 0 4.44089209850063e-16 50.9
2  5 1 0 4.44089209850063e-16 50.9
2  6 4 0 4.44089209850063e-16 50.9
0

0101000
+142 0 -138 0 *
Ed
 1e-07 1 1 0
1  4 0 0.5 22.9
2  7 1 0 0.5 22.9
2  8 5 0 0.5 22.9
0

0101000
+140 0 -138 0 *
Wi

0101100
+141 0 -139 0 +137 0 -136 0 *
Fa
0  1e-07 1 0

0101000
+135 0 *
Ve
1e-07
1.6 2.1 2.1
0 0

0101101
*
Ve
1e-07
1.6 2.1 24.5
0 0

0101101
*
Ed
 1e-07 1 1 0
1  5 0 0.5 22.9
2  9 2 0 0.5 22.9
2  10 6 0 0.5 22.9
0

0101000
+133 0 -132 0 *
Ed
 1e-07 1 1 0
1  6 0 -1.11022302462516e-16 0.707106781186547
2  11 2 0 -1.11022302462516e-16 0.707106781186547
2  12 7 0 -1.11022302462516e-16 0.707106781186547
0

0101000
+133 0 -143 0 *
Ed
 1e-07 1 1 0
1  7 0 -1.11022302462516e-16 0.707106781186547
2  13 2 0 -1.11022302462516e-16 0.707106781186547
2  14 8 0 -1.11022302462516e-16 0.707106781186547
0

0101000
+132 0 -142 0 *
Wi

0101100
+131 0 -130 0 +129 0 -141 0 *
Fa
0  1e-07 2 0

0101000
+128 0 *
Ve
1e-07
2.30710678118654 2.1 1.6
0 0

0101101
*
Ed
 1e-07 1 1 0
1  8 0 -0.43867759898068 0.29813528012327
2  15 3 0 -0.43867759898068 0.29813528012327
2  16 7 0 -0.43867759898068 0.29813528012327
0

0101000
+143 0 -126 0 *
Ve
1e-07
52.7928932188134 2.1 1.6
0 0

0101101
*
Ed
 1e-07 1 1 0
1  9 0 0.207106781186543 50.6928932188134
2  17 3 0 0.207106781186543 50.6928932188134
2  18 9 0 0.207106781186543 50.6928932188134
0

0101000
+126 0 -124 0 *
Ed
 1e-07 1 1 0
1  10 0 -7.4929032021152 -6.75609032301125
2  19 3 0 -7.4929032021152 -6.75609032301125
2  20 10 0 -7.4929032021152 -6.75609032301125
0

0101000
+140 0 -124 0 *
Wi

0101100
-125 0 +139 0 -123 0 +122 0 *
Fa
0  1e-07 3 0

0101000
+121 0 *
Ve
1e-07
2.30710678118654 2.1 25
0 0

0101101
*
Ed
 1e-07 1 1 0
1  11 0 -0.438677598980679 0.298135280123274
2  21 4 0 -0.438677598980679 0.298135280123274
2  22 8 0 -0.438677598980679 0.298135280123274
0

0101000
+142 0 -119 0 *
Ve
1e-07
52.7928932188134 2.1 25
0 0

0101101
*
Ed
 1e-07 1 1 0
1  12 0 0.207106781186544 50.6928932188134
2  23 4 0 0.207106781186544 50.6928932188134
2  24 11 1 0.207106781186544 50.6928932188134
0

0101000
+119 0 -117 0 *
Ed
 1e-07 1 1 0
1  13 0 -7.4929032021152 -6.75609032301125
2  25 4 0 -7.4929032021152 -6.75609032301125
2  26 12 0 -7.4929032021152 -6.75609032301125
0

0101000
+138 0 -117 0 *
Wi

0101100
-118 0 +137 0 -116 0 +115 0 *
Fa
0  1e-07 4 0

0101000
+114 0 *
Ve
1e-07
53.5 2.1 2.1
0 0

0101101
*
Ed
 1e-07 1 1 0
1  14 0 0 0.707106781186548
2  27 5 0 0 0.707106781186548
2  28 10 0 0 0.707106781186548
0

0101000
+140 0 -112 0 *
Ve
1e-07
53.5 2.1 24.5
0 0

0101101
*
Ed
 1e-07 1 1 0
1  15 0 0 0.707106781186548
2  29 5 0 0 0.707106781186548
2  30 12 0 0 0.707106781186548
0

0101000
+138 0 -110 0 *
Ed
 1e-07 1 1 0
1  16 0 0.5 22.9
2  31 5 0 0.5 22.9
2  32 13 0 0.5 22.9
0

0101000
+112 0 -110 0 *
Wi

0101100
+136 0 -111 0 +109 0 -108 0 *
Fa
0  1e-07 5 0

0101000
+107 0 *
Ve
1e-07
1.6 25.1 2.1
0 0

0101101
*
Ve
1e-07
1.6 25.1 24.5
0 0

0101101
*
Ed
 1e-07 1 1 0
1  17 0 0.5 22.9
2  33 6 0 0.5 22.9
2  34 14 0 0.5 22.9
0

0101000
+105 0 -104 0 *
Ed
 1e-07 1 1 0
1  18 0 0 23
2  35 6 0 0 23
2  36 15 0 0 23
0

0101000
+105 0 -133 0 *
Ed
 1e-07 1 1 0
1  19 0 0 23
2  37 6 0 0 23
2  38 16 0 0 23
0

0101000
+104 0 -132 0 *
Wi

0101100
+103 0 -102 0 +101 0 -131 0 *
Fa
0  1e-07 6 0

0101000
+100 0 *
Ve
1e-07
2.1 2.30710678118654 1.6
0 0

0101101
*
Ed
 1e-07 1 1 0
1  20 0 -3.57177250599336 -2.83495962688941
2  39 7 0 -3.57177250599336 -2.83495962688941
2  40 15 0 -3.57177250599336 -2.83495962688941
0

0101000
+133 0 -98 0 *
Ed
 1e-07 1 1 0
1  21 0 0.207106781186554 0.499999999999997
2  41 7 0 0.207106781186554 0.499999999999997
2  42 9 0 0.207106781186554 0.499999999999997
0

0101000
+98 0 -126 0 *
Wi

0101100
-97 0 +130 0 -96 0 +125 0 *
Fa
0  1e-07 7 0

0101000
+95 0 *
Ve
1e-07
2.1 2.30710678118654 25
0 0

0101101
*
Ed
 1e-07 1 1 0
1  22 0 -3.57177250599336 -2.83495962688941
2  43 8 0 -3.57177250599336 -2.83495962688941
2  44 16 0 -3.57177250599336 -2.83495962688941
0

0101000
+132 0 -93 0 *
Ed
 1e-07 1 1 0
1  23 0 0.207106781186549 0.499999999999996
2  45 8 0 0.207106781186549 0.499999999999996
2  46 11 1 0.207106781186549 0.499999999999996
0

0101000
+93 0 -119 0 *
Wi

0101100
-92 0 +129 0 -91 0 +118 0 *
Fa
0  1e-07 8 0

0101000
+90 0 *
Ve
1e-07
53 2.30710678118655 1.6
0 0

0101101
*
Ed
 1e-07 1 1 0
1  24 0 0.207106781186547 0.500000000000004
2  47 9 0 0.207106781186547 0.500000000000004
2  48 10 0 0.207106781186547 0.500000000000004
0

0101000
+124 0 -88 0 *
Ve
1e-07
2.1 24.8928932188135 1.6
0 0

0101101
*
Ed
 1e-07 1 1 0
1  25 0 0.207106781186542 22.7928932188135
2  49 9 0 0.207106781186542 22.7928932188135
2  50 15 0 0.207106781186542 22.7928932188135
0

0101000
+86 0 -98 0 *
Ve
1e-07
53 24.8928932188135 1.6
0 0

0101101
*
Ed
 1e-07 1 1 0
1  26 0 0.207106781186551 22.7928932188135
2  51 9 0 0.207106781186551 22.7928932188135
2  52 17 0 0.207106781186551 22.7928932188135
0

0101000
+88 0 -84 0 *
Ve
1e-07
2.30710678118654 25.1 1.6
0 0

0101101
*
Ed
 1e-07 1 1 0
1  27 0 0.207106781186554 0.499999999999998
2  53 9 0 0.207106781186554 0.499999999999998
2  54 18 0 0.207106781186554 0.499999999999998
0

0101000
+82 0 -86 0 *
Ve
1e-07
52.7928932188135 25.1 1.6
0 0

0101101
*
Ed
 1e-07 1 1 0
1  28 0 0.207106781186554 0.499999999999994
2  55 9 0 0.207106781186554 0.499999999999994
2  56 19 0 0.207106781186554 0.499999999999994
0

0101000
+84 0 -80 0 *
Ed
 1e-07 1 1 0
1  29 0 0.207106781186539 50.6928932188135
2  57 9 0 0.207106781186539 50.6928932188135
2  58 20 0 0.207106781186539 50.6928932188135
0

0101000
+80 0 -82 0 *
Wi

0101100
+123 0 +96 0 +87 0 +85 0 +83 0 +81 0 +79 0 +78 0 *
Fa
0  1e-07 9 0

0101000
+77 0 *
Ed
 1e-07 1 1 0
1  30 0 -0.43867759898068 0.298135280123271
2  59 10 0 -0.43867759898068 0.298135280123271
2  60 17 0 -0.43867759898068 0.298135280123271
0

0101000
+112 0 -88 0 *
Wi

0101100
-122 0 +111 0 -87 0 +75 0 *
Fa
0  1e-07 10 0

0101000
+74 0 *
Ve
1e-07
53 2.30710678118655 25
0 0

0101101
*
Ed
 1e-07 1 1 0
1  31 0 0.207106781186548 0.500000000000004
2  61 11 1 0.207106781186548 0.500000000000004
2  62 12 0 0.207106781186548 0.500000000000004
0

0101000
+117 0 -72 0 *
Ve
1e-07
2.1 24.8928932188135 25
0 0

0101101
*
Ed
 1e-07 1 1 0
1  32 0 0.207106781186542 22.7928932188135
2  63 11 1 0.207106781186542 22.7928932188135
2  64 16 0 0.207106781186542 22.7928932188135
0

0101000
+70 0 -93 0 *
Ve
1e-07
53 24.8928932188135 25
0 0

0101101
*
Ed
 1e-07 1 1 0
1  33 0 0.207106781186552 22.7928932188135
2  65 11 1 0.207106781186552 22.7928932188135
2  66 21 0 0.207106781186552 22.7928932188135
0

0101000
+72 0 -68 0 *
Ve
1e-07
2.30710678118654 25.1 25
0 0

0101101
*
Ed
 1e-07 1 1 0
1  34 0 0.207106781186554 0.499999999999998
2  67 11 1 0.207106781186554 0.499999999999998
2  68 22 0 0.207106781186554 0.499999999999998
0

0101000
+66 0 -70 0 *
Ve
1e-07
52.7928932188135 25.1 25
0 0

0101101
*
Ed
 1e-07 1 1 0
1  35 0 0.207106781186554 0.499999999999994
2  69 11 1 0.207106781186554 0.499999999999994
2  70 23 0 0.207106781186554 0.499999999999994
0

0101000
+68 0 -64 0 *
Ed
 1e-07 1 1 0
1  36 0 0.207106781186539 50.6928932188135
2  71 11 1 0.207106781186539 50.6928932188135
2  72 24 0 0.207106781186539 50.6928932188135
0

0101000
+64 0 -66 0 *
Wi

0101100
+116 0 +91 0 +71 0 +69 0 +67 0 +65 0 +63 0 +62 0 *
Fa
0  1e-07 11 0

0101000
+61 2 *
Ed
 1e-07 1 1 0
1  37 0 -0.438677598980681 0.298135280123271
2  73 12 0 -0.438677598980681 0.298135280123271
2  74 21 0 -0.438677598980681 0.298135280123271
0

0101000
+110 0 -72 0 *
Wi

0101100
-115 0 +109 0 -71 0 +59 0 *
Fa
0  1e-07 12 0

0101000
+58 0 *
Ve
1e-07
53.5 25.1 2.1
0 0

0101101
*
Ed
 1e-07 1 1 0
1  38 0 4.44089209850063e-16 23
2  75 13 0 4.44089209850063e-16 23
2  76 17 0 4.44089209850063e-16 23
0

0101000
+112 0 -56 0 *
Ve
1e-07
53.5 25.1 24.5
0 0

0101101
*
Ed
 1e-07 1 1 0
1  39 0 4.44089209850063e-16 23
2  77 13 0 4.44089209850063e-16 23
2  78 21 0 4.44089209850063e-16 23
0

0101000
+110 0 -54 0 *
Ed
 1e-07 1 1 0
1  40 0 0.5 22.9
2  79 13 0 0.5 22.9
2  80 25 0 0.5 22.9
0

0101000
+56 0 -54 0 *
Wi

0101100
+108 0 -55 0 +53 0 -52 0 *
Fa
0  1e-07 13 0

0101000
+51 0 *
Ve
1e-07
2.1 25.6 2.1
0 0

0101101
*
Ve
1e-07
2.1 25.6 24.5
0 0

0101101
*
Ed
 1e-07 1 1 0
1  41 0 0.5 22.9
2  81 14 0 0.5 22.9
2  82 26 0 0.5 22.9
0

0101000
+49 0 -48 0 *
Ed
 1e-07 1 1 0
1  42 0 -3.5527136788005e-15 0.707106781186544
2  83 14 0 -3.5527136788005e-15 0.707106781186544
2  84 18 0 -3.5527136788005e-15 0.707106781186544
0

0101000
+49 0 -105 0 *
Ed
 1e-07 1 1 0
1  43 0 -3.5527136788005e-15 0.707106781186544
2  85 14 0 -3.5527136788005e-15 0.707106781186544
2  86 22 0 -3.5527136788005e-15 0.707106781186544
0

0101000
+48 0 -104 0 *
Wi

0101100
+47 0 -46 0 +45 0 -103 0 *
Fa
0  1e-07 14 0

0101000
+44 0 *
Ed
 1e-07 1 1 0
1  44 0 -0.43867759898068 0.298135280123271
2  87 15 0 -0.43867759898068 0.298135280123271
2  88 18 0 -0.43867759898068 0.298135280123271
0

0101000
+105 0 -86 0 *
Wi

0101100
-42 0 +102 0 -85 0 +97 0 *
Fa
0  1e-07 15 0

0101000
+41 0 *
Ed
 1e-07 1 1 0
1  45 0 -0.438677598980681 0.298135280123271
2  89 16 0 -0.438677598980681 0.298135280123271
2  90 22 0 -0.438677598980681 0.298135280123271
0

0101000
+104 0 -70 0 *
Wi

0101100
-39 0 +101 0 -69 0 +92 0 *
Fa
0  1e-07 16 0

0101000
+38 0 *
Ed
 1e-07 1 1 0
1  46 0 -3.57177250599339 -2.83495962688944
2  91 17 0 -3.57177250599339 -2.83495962688944
2  92 19 0 -3.57177250599339 -2.83495962688944
0

0101000
+56 0 -84 0 *
Wi

0101100
-75 0 +55 0 -83 0 +36 0 *
Fa
0  1e-07 17 0

0101000
+35 0 *
Ed
 1e-07 1 1 0
1  47 0 -7.49290320211508 -6.75609032301113
2  93 18 0 -7.49290320211508 -6.75609032301113
2  94 20 0 -7.49290320211508 -6.75609032301113
0

0101000
+49 0 -82 0 *
Wi

0101100
-33 0 +46 0 -81 0 +42 0 *
Fa
0  1e-07 18 0

0101000
+32 0 *
Ve
1e-07
53 25.6 2.1
0 0

0101101
*
Ed
 1e-07 1 1 0
1  48 0 0 0.707106781186548
2  95 19 0 0 0.707106781186548
2  96 25 0 0 0.707106781186548
0

0101000
+56 0 -30 0 *
Ed
 1e-07 1 1 0
1  49 0 -0.438677598980684 0.29813528012327
2  97 19 0 -0.438677598980684 0.29813528012327
2  98 20 0 -0.438677598980684 0.29813528012327
0

0101000
+30 0 -80 0 *
Wi

0101100
-36 0 +29 0 -79 0 +28 0 *
Fa
0  1e-07 19 0

0101000
+27 0 *
Ed
 1e-07 1 1 0
1  50 0 0 50.9
2  99 20 0 0 50.9
2  100 26 0 0 50.9
0

0101000
+30 0 -49 0 *
Wi

0101100
-28 0 +25 0 -78 0 +33 0 *
Fa
0  1e-07 20 0

0101000
+24 0 *
Ed
 1e-07 1 1 0
1  51 0 -3.57177250599339 -2.83495962688944
2  101 21 0 -3.57177250599339 -2.83495962688944
2  102 23 0 -3.57177250599339 -2.83495962688944
0

0101000
+54 0 -68 0 *
Wi

0101100
-59 0 +53 0 -67 0 +22 0 *
Fa
0  1e-07 21 0

0101000
+21 0 *
Ed
 1e-07 1 1 0
1  52 0 -7.49290320211508 -6.75609032301113
2  103 22 0 -7.49290320211508 -6.75609032301113
2  104 24 0 -7.49290320211508 -6.75609032301113
0

0101000
+48 0 -66 0 *
Wi

0101100
-19 0 +45 0 -65 0 +39 0 *
Fa
0  1e-07 22 0

0101000
+18 0 *
Ve
1e-07
53 25.6 24.5
0 0

0101101
*
Ed
 1e-07 1 1 0
1  53 0 0 0.707106781186548
2  105 23 0 0 0.707106781186548
2  106 25 0 0 0.707106781186548
0

0101000
+54 0 -16 0 *
Ed
 1e-07 1 1 0
1  54 0 -0.438677598980682 0.29813528012327
2  107 23 0 -0.438677598980682 0.29813528012327
2  108 24 0 -0.438677598980682 0.29813528012327
0

0101000
+16 0 -64 0 *
Wi

0101100
-22 0 +15 0 -63 0 +14 0 *
Fa
0  1e-07 23 0

0101000
+13 0 *
Ed
 1e-07 1 1 0
1  55 0 0 50.9
2  109 24 0 0 50.9
2  110 26 0 0 50.9
0

0101000
+16 0 -48 0 *
Wi

0101100
-14 0 +11 0 -62 0 +19 0 *
Fa
0  1e-07 24 0

0101000
+10 0 *
Ed
 1e-07 1 1 0
1  56 0 0.5 22.9
2  111 25 0 0.5 22.9
2  112 26 0 0.5 22.9
0

0101000
+30 0 -16 0 *
Wi

0101100
+52 0 -29 0 +15 0 -8 0 *
Fa
0  1e-07 25 0

0101000
+7 0 *
Wi

0101100
+8 0 -25 0 +11 0 -47 0 *
Fa
0  1e-07 26 0

0101000
+5 0 *
Sh

0101100
-134 0 -127 0 -120 0 +113 0 -106 0 -99 0 -94 0 +89 0 -76 0 -73 0 
+60 1 +57 0 -50 0 -43 0 -40 0 +37 0 -34 0 -31 0 -26 0 -23 0 
+20 0 +17 0 +12 0 +9 0 -6 0 -4 0 *
So

0100000
+3 0 *
Co

1100000
+2 0 *

+1 0 