DBRep_DrawableShape

CASCADE Topology V1, (c) Matra-Datavision
Locations 0
Curve2ds 256
1 17.450348027842232 -47.199651972157788 -1 0 
1 4.7123889803846897 0 0 1 
1 15.780348027842232 -47.199651972157788 0 1 
1 0 -1.1808683245815343 1 0 
1 -11.749651972157771 -47.199651972157788 0 1 
1 -25.500000000000004 -14.300000000000002 1 0 
1 17.450348027842232 36.750348027842207 -1 0 
1 1.5707963267948966 0.10000000000000009 0 1 
1 17.450348027842232 0.20034802784221739 -1 0 
1 4.7123889803846897 0 0 1 
1 -7.6496519721577698 36.750348027842207 0 1 
1 -4.4598626589611001 -0.24899272034538722 1 0 
1 -19.079651972157802 0.20034802784221739 0 1 
1 0 -1.1808683245815352 1 0 
1 17.450348027842232 43.900348027842213 -1 0 
1 -18.676700680272113 19.723299319727889 1 0 
1 3.1415926535897931 1.6699999999999999 1 0 
1 0 0 1 0 
1 0 29.200000000000003 1 0 
2 -25.500000000000004 -11.600000000000001 1 0 -0 1 2.7000000000000002
1 3.1415926535897931 0 0 1 
1 18.137 31.863 -1 0 
8 0 2.3617366491630687
1 0 -1.1808683245815343 0 1 
8 0 2.3617366491630687
1 1.5707963267948966 0 0 1 
1 0 1.1808683245815343 1 0 
1 43.701667397828864 -28.161507161371816 -1 0 
8 -1.1808683245815343 1.1808683245815343
1 83.949999999999989 0 0 1 
8 -1.1808683245815343 1.1808683245815343
1 0 1.1808683245815343 0 1 
1 -28.200000000000003 -11.600000000000001 0 1 
1 -11.063000000000002 31.863 0 -1 
2 -25.500000000000004 9.7999999999999954 1 0 -0 1 2.7000000000000002
1 0 29.200000000000003 1 0 
8 -40.950000000000003 12.75
1 -12.750000000000002 7.0999999999999961 -1 0 
8 -40.950000000000003 12.75
1 29.200000000000003 12.75 0 -1 
2 15.199999999999999 3.0999999999999996 1 0 -0 1 4
1 0 29.300000000000001 1 0 
8 -5.8000000000000007 20.100000000000001
1 19.199999999999999 -5.8000000000000007 0 1 
8 -5.8000000000000007 20.100000000000001
1 29.200000000000003 -5.8000000000000007 0 -1 
2 21.900000000000002 -11.600000000000001 1 0 -0 1 2.7000000000000002
1 0 29.200000000000003 1 0 
1 1.5707963267948966 1.77 -1 -0 
1 0 0 1 0 
1 0 25.199999999999999 1 0 
2 -4.4598626589611001 -2.9489927203453874 1 0 -0 1 2.7000000000000028
8 0 25.100000000000001
1 0 0.10000000000000009 0 1 
1 0 -3 1 0 
1 3.1415926535897931 36.530000000000001 1 0 
1 0 0 1 0 
1 3.1415926535897931 0 0 1 
1 0 0 1 0 
1 -1.7598626589610973 -5.9489927203453874 0 1 
1 25.100000000000001 0 0 -1 
1 2.6901373410389056 -5.9489927203453874 0 1 
1 6.4232993197278887 25.423299319727889 0 -1 
1 -1.7598626589610973 -5.9489927203453874 1 0 
1 25.100000000000001 0 0 1 
8 0 2.3617366491630687
1 0 -1.1808683245815352 0 1 
8 0 2.3617366491630687
1 1.5707963267948966 0 0 1 
1 0 1.1808683245815352 1 0 
1 1.9681783929059407 -32.585158679128327 1 0 
1 35.859999999999992 9.906566004423528 -0.57735026918962606 0.81649658092772592 
1 7.8399999999999954 -9.9065660044235297 0.57735026918962529 -0.81649658092772637 
1 17.85329931972792 19.723299319727889 0 -1 
1 0 1.1808683245815459 1 0 
1 -18.676700680272113 -24.576700680272111 1 0 
1 0 5.7000000000000028 1 0 
1 -18.676700680272113 25.423299319727889 1 0 
1 0 4.4500000000000028 1 0 
1 -17.006700680272111 25.423299319727889 0 -1 
1 0 1.1808683245815388 1 0 
8 -1.1808683245815343 1.1808683245815346
1 0 1.1808683245815343 0 1 
8 -1.1808683245815343 1.1808683245815346
1 61.800000000000004 0 0 1 
1 0 2.3617366491630687 1 0 
2 43.701667397828864 -27.131507161371815 1 0 0 -1 1.0300000000000002
1 16.466999999999999 -29.937000000000005 0 1 
1 0 -1.1808683245815343 1 0 
1 18.137 -29.937000000000005 -1 0 
1 3.1415926535897931 0 0 1 
1 18.137 10.463000000000001 -1 0 
1 3.1415926535897931 0 0 1 
1 -18.393000000000033 -29.937000000000005 0 1 
1 0 -1.1808683245815352 1 0 
1 -37.619116991297034 10.598492838628189 1 -0 
1 0 1.1808683245815352 1 0 
2 -41.698332602171135 10.368492838628185 -0.41216082202199616 0.91111111111112708 0.91111111111112708 0.41216082202199616 2.8300000000000001
1 0 2.3617366491630687 1 0 
2 -17.998332602171139 16.268492838628184 0 -1 1 0 5.6699999999999999
1 0 2.3617366491630687 1 0 
1 -43.553056301270104 12.798492838628185 -1 0 
1 0 1.1808683245815352 1 0 
1 -12.328332602171137 16.268492838628184 0 1 
1 0 1.1808683245815388 1 0 
1 -45.728332602171136 -35.531507161371813 0 1 
1 0 -1.1808683245815388 1 0 
2 -11.298332602171136 34.66849283862819 -1 0 0 1 1.0300000000000002
1 0 2.3617366491630687 1 0 
1 -42.948332602171135 -33.861507161371811 -1 0 
1 0 1.1808683245815348 1 0 
1 -11.298332602171143 35.698492838628191 1 -0 
1 0 1.1808683245815317 1 0 
1 -44.618332602171137 -32.531507161371813 -0 -1 
1 0 1.1808683245815388 1 0 
2 43.701667397828864 34.66849283862819 0 1 1 -0 1.0300000000000002
1 0 2.3617366491630687 1 0 
2 -40.248332602171132 -32.531507161371813 0 1 -1 0 4.3700000000000001
1 0 2.3617366491630687 1 0 
1 44.731667397828858 34.66849283862819 -0 -1 
1 0 1.1808683245815346 1 0 
8 0 2.3617366491630687
1 1.5707963267948966 0 0 1 
8 0 2.3617366491630687
1 0 -1.1808683245815388 0 1 
1 4.7123889803846897 0 0 1 
1 0 0 1 0 
1 3.1415926535897931 36.530000000000001 1 0 
1 0 0 1 0 
1 0 40.700000000000003 1 0 
1 1.5707963267948966 0.10000000000000009 0 1 
1 36.53000000000003 -1.5543122344752192e-15 0 1 
1 0 -1.1808683245815317 1 0 
1 1.5707963267948966 36.629999999999995 -1 -0 
1 0 0 1 0 
8 0 38.199999999999996
1 0 0.10000000000000009 0 1 
1 0 -14.700000000000001 1 0 
1 36.53000000000003 -14.700000000000001 0 1 
1 0 -1.1808683245815388 1 0 
1 1.6700000000000004 -3 0 1 
1 0 -1.1808683245815388 1 0 
1 0 0 1 0 
1 0 0 1 0 
8 -1.1808683245815388 1.1808683245815317
1 0 1.1808683245815388 0 1 
8 -1.1808683245815388 1.1808683245815317
1 14.700000000000001 0 0 1 
1 0 2.3617366491630687 1 0 
2 1.9681783929059407 -31.555158679128326 -1 0 -0 -1 1.0300000000000002
1 1.6700000000000004 0 0 1 
1 0 -1.1808683245815335 1 0 
1 35.888962782031832 6.1748413208716784 -1 0 
1 0 1.180868324581537 1 0 
2 39.968178392905934 5.9448413208716744 0.41216082202199616 0.91111111111112708 -0.91111111111112708 0.41216082202199616 2.8300000000000001
1 0 2.3617366491630687 1 0 
2 16.268178392905938 11.844841320871673 0 -1 -1 -0 5.6699999999999999
1 0 2.3617366491630687 1 0 
1 41.822902092004902 8.3748413208716741 1 0 
1 0 1.180868324581537 1 0 
1 10.598178392905936 11.844841320871673 0 1 
1 0 1.1808683245815388 1 0 
1 43.998178392905935 -34.255158679128328 0 1 
1 -2.2204460492503131e-16 -1.1808683245815246 1 0 
2 9.568178392905935 30.244841320871679 1 0 -0 1 1.0300000000000002
1 0 2.3617366491630687 1 0 
1 9.568178392905935 31.27484132087168 -1 0 
1 0 1.1808683245815317 1 0 
2 -45.431821607094065 30.244841320871679 0 1 -1 0 1.0300000000000002
1 0 2.3617366491630687 1 0 
1 0.93817839290593952 -16.855158679128323 0 -1 
1 0 1.1808683245815317 1 0 
1 -46.461821607094066 30.244841320871679 0 -1 
1 0 1.1808683245815352 1 0 
2 -4.7318216070940622 -16.855158679128323 0 1 1 -0 5.6699999999999999
1 0 2.3617366491630687 1 0 
2 -45.431821607094065 -10.155158679128327 -1 0 -0 -1 1.0300000000000002
1 0 2.3617366491630687 1 0 
1 -45.431821607094065 -11.185158679128328 1 0 
1 0 1.1808683245815388 1 0 
1 35.719120616516506 -10.954327676628527 -0.57735026918962584 -0.81649658092772615 
1 -4.735603082582486 10.954327676628512 -0.57735026918962584 0.81649658092772615 
1 1.6700000000000004 1.8547236990989688 0 1 
1 0 -1.1808683245815352 1 0 
1 36.53000000000003 1.8547236990989688 0 1 
1 0 -1.1808683245815335 1 0 
8 -5.999999999062311e-07 38.200000599999996
1 0 1.8547236990991394 1 0 
8 -5.999999999062311e-07 38.200000599999996
1 1.1459718993160084 0 0 1 
1 1.2983333333333356 -0.65525228389952905 0.57735026918962562 -0.81649658092772626 
1 3.1516666666666708 0.65525228389953771 -0.57735026918962629 0.81649658092772581 
1 40.469120616516484 -12.297830560882966 -0.57735026918962606 -0.81649658092772592 
1 -5.6856030825824888 12.297830560882966 -0.57735026918962606 0.81649658092772592 
8 0 2.3617366491630687
1 0 -1.1808683245815343 0 1 
8 0 2.3617366491630687
1 1.5707963267948966 0 0 1 
1 1.5707963267948966 1.6699999999999999 1 0 
1 0 0 1 0 
1 1.5707963267948966 36.530000000000001 1 0 
1 0 0 1 0 
1 1.5707963267948966 0 0 1 
1 0 0 1 0 
8 0 2.3617366491630687
1 0 -1.1808683245815352 0 1 
8 0 2.3617366491630687
1 1.5707963267948966 0 0 1 
8 -1.1808683245815352 1.1808683245815352
1 40.400000000000006 0 0 1 
8 -1.1808683245815352 1.1808683245815352
1 0 1.1808683245815352 0 1 
7 0 0  7 8 2  1.2256862191861728e-13 -1.1808683245815317  -0.15602951784197483 -0.83466990792577378  -0.31809768246275438 -0.49052135115749307  -0.48707312833259508 -0.14865382264225424  -0.66398388555201937 0.19044918941277378  -0.85017111649076349 0.52597183428056993  -1.0473278200114866 0.85676397394113346  -1.2585773852237452 1.1808683245815352 
 0 8 1 8
7 0 0  7 8 2  1.5597253780365219 4.2188474935755949e-15  1.5943986042236551 0.34619841665576689  1.6326139196017579 0.69034603116087345  1.6750916133794895 1.0322178311844568  1.7227663567201459 1.371312538815638  1.7769954079563672 1.7068436152649047  1.8396124439371726 2.0376322985226683  1.9142589334114719 2.3617366491630687 
 0 8 1 8
1 0 -1.1808683245815317 1 0 
1 -17.430000000000007 12.070784389125876 0 -1 
8 -1.1808683245815317 1.1808683245815352
1 19.620784389125895 0 0 1 
8 -1.1808683245815317 1.1808683245815352
1 0 1.1808683245815317 0 1 
7 0 0  6 7 2  -3.8191672047105385e-14 2.2204460492503131e-16  -0.014970612960838925 0.44175993372705269  -0.031187463242936767 0.86426553951688756  -0.048846090824871805 1.2675141920019766  -0.068182994647643366 1.6515110630838066  -0.089522897709480007 2.0162510331690728  -0.1133277593079276 2.3617366491630074 
 -1.8547236990991394 7 -1.4505171491575055 7
8 -1.8547236990991394 -1.4505171491575055
4 -1.8547236990989688 4.9002499936227739 1.5362039773581258e-17 -1 -1 -1.5362039773581258e-17 0.1414213562373105
1 0 0 1 0 
1 1.1459718993160466 1.6699999999999999 1 0 
1 0 0 1 0 
1 4.7123889803846897 1.77 -1 -0 
8 0 2.3617366491630687
1 1.5707963267948966 0 0 1 
8 0 2.3617366491630687
1 0 -1.1808683245815317 0 1 
1 0 -1.1808683245815317 1 0 
1 1.6700000000000004 -22 0 -1 
8 -1.1808683245815317 1.1808683245815388
1 18.400000000000006 0 0 1 
8 -1.1808683245815317 1.1808683245815388
1 0 1.1808683245815317 0 1 
1 0 0 1 0 
1 0 1.6699999999999999 1 0 
8 0 2.3617366491630687
1 1.5707963267948966 0 0 1 
8 0 2.3617366491630687
1 7.1054273576010019e-15 -1.1808683245815459 0 1 
1 1.0566666666666578 0.31348400632603718 0.57735026918962629 0.81649658092772581 
1 1.9433333333333325 0.31348400632603468 -0.57735026918962562 0.81649658092772626 
1 0 -1.1808683245815459 1 0 
1 1.6700000000000004 55.000000000000007 0 -1 
8 -1.1808683245815459 1.1808683245815317
1 55.000000000000007 0 0 1 
8 -1.1808683245815459 1.1808683245815317
1 0 1.1808683245815459 0 1 
8 0 2.3617366491630687
1 1.5707963267948966 0 0 1 
8 0 2.3617366491630687
1 1.5543122344752192e-15 -1.1808683245815317 0 1 
8 -1.1808683245815317 1.1808683245815388
1 40.700000000000003 0 0 1 
8 -1.1808683245815317 1.1808683245815388
1 0 1.1808683245815317 0 1 
8 0 2.3617366491630687
1 1.5707963267948966 0 0 1 
8 0 2.3617366491630687
1 0 -1.1808683245815388 0 1 
7 0 0  7 8 2  1.2123635428906709e-13 -1.1808683245815339  -0.15602951784196262 -0.83466990792580587  -0.31809768246262293 -0.49052135115748063  -0.48707312833334393 -0.14865382264172844  -0.66398388554990051 0.19044918941037547  -0.85017111649466925 0.52597183428603023  -1.0473278200070486 0.85676397393432691  -1.2585773852237452 1.180868324581537 
 0 8 1 8
7 0 0  7 8 2  1.5597253780365228 0  1.5943986042236562 0.34619841665572637  1.6326139196017007 0.69034603116073534  1.6750916133797695 1.032217831185545  1.7227663567193643 1.3713125388123844  1.776995407957793 1.7068436152709976  1.8396124439356043 2.0376322985158621  1.9142589334114728 2.3617366491630687 
 0 8 1 8
1 0 -1.1808683245815339 1 0 
1 17.430000000000025 12.070784389125876 0 -1 
8 -1.1808683245815339 1.180868324581537
1 19.620784389125895 0 0 1 
8 -1.1808683245815339 1.180868324581537
1 0 1.1808683245815339 0 1 
7 0 0  6 7 2  -3.8184733153201478e-14 0  -0.01497061296083946 0.4417599337271027  -0.031187463242890279 0.86426553951576957  -0.04884609082493041 1.2675141920032393  -0.06818299464757957 1.6515110630827701  -0.089522897709480492 2.0162510331691412  -0.11332775930792671 2.3617366491630749 
 -1.8547236990991394 7 -1.4505171491575055 7
8 -1.8547236990991394 -1.4505171491575055
4 -1.8547236990989688 4.9002499936227748 -5.1573427381630248e-18 -1 -1 5.1573427381630248e-18 0.14142135623730651
1 0 0 1 0 
1 1.1459718993160466 36.529999999999994 1 0 
1 0 0 1 0 
1 4.7123889803846897 36.629999999999995 -1 -0 
8 0 2.3617366491630687
1 1.5707963267948966 0 0 1 
8 0 2.3617366491630687
1 0 -1.1808683245815352 0 1 
1 0 -1.1808683245815352 1 0 
1 36.53000000000003 -22 0 -1 
8 -1.1808683245815352 1.1808683245815388
1 18.400000000000006 0 0 1 
8 -1.1808683245815352 1.1808683245815388
1 0 1.1808683245815352 0 1 
1 0 0 1 0 
1 0 36.530000000000001 1 0 
8 0 2.3617366491630687
1 1.5707963267948966 0 0 1 
8 0 2.3617366491630687
1 0 -1.1808683245815352 0 1 
1 0 -1.1808683245815352 1 0 
1 36.53000000000003 55 0 -1 
8 -1.1808683245815352 1.1808683245815317
1 55 0 0 1 
8 -1.1808683245815352 1.1808683245815317
1 0 1.1808683245815352 0 1 
8 -6.0000000701165845e-07 38.200000600000003
1 2.7056972773525696 0 0 1 
8 -6.0000000701165845e-07 38.200000600000003
1 -19.100000000000009 12.070784389125748 1 0 
1 0 55 1 0 
1 1.5707963267948966 0 0 1 
1 -19.100000000000009 -7.5500000000000185 1 0 
1 4.7123889803846897 0.10000000000000009 0 1 
1 3.1415926535897931 0.10000000000000009 0 1 
1 0 -22 1 0 
1 0 -40.400000000000006 1 0 
8 0 38.200000000000003
1 0 0 0 1 
Curves 128
1 1.4000000000000001 -1.3 -1.3 0 0 1 
1 1.3999999999999986 -1.3000000000000007 0.36999999999999966 1 0 -0 
1 1.4000000000000001 -1.3 27.900000000000002 1 0 -0 
1 85.349999999999994 -1.2999999999999998 -1.3 0 0 1 
1 48.800000000000004 -1.3 -1.3 0 0 1 
1 85.349999999999994 -1.2999999999999998 23.800000000000001 1 0 -0 
1 48.800000000000004 -1.2999999999999989 35.230000000000032 1 0 -0 
1 92.5 -1.3 -1.3 0 0 1 
2 1.3999999999999986 1.3999999999999986 0.37000000000000033 0 -0 1 -1 6.5790994051861164e-16 0 -6.5790994051861164e-16 -1 0 2.7000000000000002
2 1.4000000000000001 1.4000000000000001 27.900000000000002 0 0 1 1 0 -0 -0 1 0 2.7000000000000002
1 -1.3 1.4000000000000001 -1.3 0 0 1 
1 1.3999999999999966 -1.3000000000000016 0.37000000000000033 5.0851038316252304e-16 0.70710678118654757 -0.70710678118654746 
1 1.3999999999999986 0.36999999999999922 -1.3000000000000003 1 0 -0 
1 85.349999999999994 -0.46500000000000097 -0.46500000000000052 1.5431135127484003e-34 0.70710678118654757 -0.70710678118654757 
1 -1.3 1.4000000000000001 27.900000000000002 -0 1 0 
2 1.4000000000000001 22.799999999999997 27.900000000000002 0 0 1 1 0 -0 -0 1 0 2.7000000000000002
1 14.15 20.099999999999998 27.900000000000002 -1 -0 0 
2 42.100000000000001 16.100000000000001 27.900000000000002 0 0 1 1 0 -0 -0 1 0 4
1 46.100000000000001 7.2000000000000011 27.900000000000002 -0 1 0 
2 48.800000000000004 1.4000000000000001 27.900000000000002 0 0 1 1 0 -0 -0 1 0 2.7000000000000002
2 85.349999999999994 -4 0.37000000000000033 -0 0 -1 0 1 0 1 0 -0 2.7000000000000002
2 85.349999999999994 -4 23.800000000000001 0 0 1 1 0 -0 -0 1 0 2.7000000000000002
1 88.049999999999997 -4 -1.3 0 0 1 
2 48.800000000000004 1.3999999999999986 35.230000000000032 0 0 1 -1 6.5790994051861056e-16 0 -6.5790994051861056e-16 -1 0 2.7000000000000002
1 46.100000000000001 1.4000000000000001 -1.3 0 0 1 
1 88.049999999999997 -7 23.800000000000001 -0 1 0 
1 92.5 -7 23.800000000000001 -0 1 0 
1 88.049999999999997 -7 23.800000000000001 1 0 -0 
1 48.800000000000004 -1.3000000000000016 35.230000000000032 5.0851038316252235e-16 0.70710678118654757 0.70710678118654746 
1 48.800000000000004 0.37000000000000099 36.900000000000034 1 0 -0 
8 -13.579278331339998 -10.68675348269997
1 84.659999999999997 6.5399999999999947 43.070000000000036 -0.57735026918962595 0.57735026918962529 0.57735026918962595 
1 92.5 -1.3000000000000007 35.230000000000032 -0 1 0 
1 92.5 43 -1.3 0 0 1 
1 92.5 -7 -1.3 0 0 1 
1 92.5 -7 0.36999999999999966 -0 1 0 
1 -0.4649999999999988 1.3999999999999986 -0.46500000000000014 0.70710678118654757 -1.5431135127484003e-34 -0.70710678118654757 
2 1.3999999999999986 1.3999999999999986 -1.2999999999999996 0 -0 1 -1 6.5790994051861164e-16 0 -6.5790994051861164e-16 -1 0 1.0300000000000002
1 -1.2999999999999989 63.200000000000003 0.36999999999999966 0 -1 -0 
1 -1.3 63.200000000000003 -1.3 0 0 1 
1 -1.3 22.799999999999997 -1.3 0 0 1 
1 -1.2999999999999989 63.200000000000003 35.230000000000032 0 -1 -0 
1 82.720784389125896 39.130000000000003 -1.3000000000000003 -1 -0 0 
2 86.799999999999997 38.899999999999999 -1.2999999999999996 0 -0 1 0.41216082202199616 0.91111111111112708 0 -0.91111111111112708 0.41216082202199616 0 2.8300000000000001
2 63.100000000000001 44.799999999999997 -1.2999999999999996 -0 0 -1 0 -1 -0 -1 -0 0 5.6699999999999999
1 88.654723699098966 41.329999999999998 -1.2999999999999996 1 0 -0 
1 57.43 44.799999999999997 -1.2999999999999996 -0 1 0 
1 90.829999999999998 -7 -1.3000000000000003 -0 1 0 
2 56.399999999999999 63.200000000000003 -1.2999999999999996 0 -0 1 1 0 0 -0 1 0 1.0300000000000002
1 88.049999999999997 -5.3300000000000001 -1.2999999999999996 1 0 -0 
1 56.400000000000006 64.230000000000004 -1.2999999999999996 -1 -0 0 
1 89.719999999999999 -4 -1.2999999999999996 0 -1 -0 
2 1.3999999999999986 63.200000000000003 -1.2999999999999996 0 -0 1 6.5790994051861056e-16 1 0 -1 6.5790994051861056e-16 0 1.0300000000000002
2 85.349999999999994 -4 -1.2999999999999996 -0 0 -1 0 1 0 1 0 -0 4.3700000000000001
1 0.37000000000000099 63.200000000000003 -1.3000000000000003 0 -1 -0 
1 88.049999999999997 -4 0.37000000000000033 0.70710678118654791 4.3297802811774689e-17 -0.70710678118654713 
1 1.4000000000000001 20.099999999999998 -1.3 0 0 1 
2 1.3999999999999986 22.799999999999997 35.230000000000032 0 0 1 -1 0 0 0 -1 0 2.7000000000000002
1 42.100000000000001 20.100000000000001 -1.3 0 0 1 
1 1.3999999999999986 20.099999999999998 35.230000000000032 1 0 -0 
2 42.100000000000001 16.100000000000001 35.230000000000032 -0 -0 -1 0 1 -0 1 -0 0 4
1 46.100000000000001 16.100000000000001 -1.3 0 0 1 
1 46.100000000000001 16.100000000000001 35.230000000000032 0 -1 -0 
1 88.049999999999997 -4 0.37000000000000033 0 -1 -0 
1 88.049999999999997 -7 -1.3 0 0 1 
1 46.935000000000002 1.4000000000000004 36.065000000000033 0.70710678118654757 -1.2585717651317117e-34 0.70710678118654757 
2 48.800000000000004 1.3999999999999986 36.900000000000034 0 0 1 -1 6.5790994051861056e-16 0 -6.5790994051861056e-16 -1 0 1.0300000000000002
1 88.049999999999997 -7 0.37000000000000033 1 0 -0 
1 82.720784389125896 39.130000000000003 36.900000000000034 -1 -0 0 
2 86.799999999999997 38.899999999999999 36.900000000000034 0 0 1 0.41216082202199616 0.91111111111112708 -0 -0.91111111111112708 0.41216082202199616 0 2.8300000000000001
2 63.100000000000001 44.799999999999997 36.900000000000034 -0 -0 -1 0 -1 0 -1 0 0 5.6699999999999999
1 88.654723699098966 41.329999999999998 36.900000000000034 1 0 -0 
1 57.43 44.799999999999997 36.900000000000034 -0 1 0 
1 90.829999999999998 -1.3000000000000007 36.900000000000034 -0 1 0 
2 56.399999999999999 63.200000000000003 36.900000000000034 0 0 1 1 0 -0 -0 1 0 1.0300000000000002
1 56.399999999999999 64.230000000000004 36.900000000000034 -1 -0 0 
2 1.3999999999999986 63.200000000000003 36.900000000000034 0 0 1 6.5790994051861056e-16 1 -0 -1 6.5790994051861056e-16 0 1.0300000000000002
1 47.770000000000003 16.100000000000001 36.900000000000034 0 -1 -0 
1 0.37000000000000099 63.200000000000003 36.900000000000034 0 -1 -0 
2 42.100000000000001 16.100000000000001 36.900000000000034 -0 -0 -1 0 1 -0 1 -0 0 5.6699999999999999
2 1.3999999999999986 22.799999999999997 36.900000000000034 0 0 1 -1 0 0 0 -1 0 1.0300000000000002
1 1.3999999999999986 21.769999999999996 36.900000000000034 1 0 -0 
8 -14.862519065813736 -11.969994217173706
1 83.91912061651648 34.419120616516508 43.810879383483538 -0.57735026918962573 -0.57735026918962573 0.57735026918962573 
1 88.654723699098966 43 0.37000000000000033 1 0 -0 
1 88.654723699098966 43 35.230000000000032 1 0 -0 
1 88.654723699099137 43 -1.3 0 0 1 
8 -2.2487792984935941 0.64374555014644086
1 91.201666666666668 -5.7016666666666644 -0.92833333333333579 -0.57735026918962618 0.57735026918962551 -0.57735026918962551 
8 -16.507967333004181 -13.615442484364145
1 82.969120616516477 33.469120616516484 -9.1608793834835023 -0.57735026918962595 -0.57735026918962595 -0.57735026918962529 
1 -1.3000000000000016 63.200000000000003 0.37000000000000033 0.70710678118654757 -5.0851038316252235e-16 -0.70710678118654746 
2 1.3999999999999986 63.200000000000003 0.37000000000000033 0 -0 1 6.5790994051861056e-16 1 0 -1 6.5790994051861056e-16 0 2.7000000000000002
2 1.3999999999999986 63.200000000000003 35.230000000000032 0 0 1 6.5790994051861056e-16 1 -0 -1 6.5790994051861056e-16 0 2.7000000000000002
1 1.4000000000000001 65.900000000000006 -1.3 0 0 1 
1 -1.3000000000000016 63.200000000000003 35.230000000000032 0.70710678118654713 -5.0851038316252205e-16 0.70710678118654791 
1 -0.46499999999999941 22.799999999999997 36.065000000000033 0.70710678118654713 -3.8003946107358386e-34 0.70710678118654791 
7 0 0  7 8 2  82.720784389125782 40.800000000000004 0.36999999999999722  82.876813906967882 40.555200751946671 0.12520075194666513  83.038882071588546 40.311850973720198 -0.11814902627971269  83.207857517458805 40.070114126039861 -0.35988587396050797  83.384768274677413 39.830332086694355 -0.59966791330499669  83.57095550561705 39.593081749267419 -0.83691825073312642  83.768112209137385 39.35917638414989 -1.0708236158501092  83.979361774349641 39.130000000000003 -1.2999999999999996 
 0 8 1 8
1 82.720784389125896 40.800000000000004 0.36999999999999966 -1 -0 0 
1 63.100000000000001 39.965000000000003 -0.46500000000000052 3.8003946107358386e-34 -0.70710678118654791 -0.70710678118654713 
8 -1.8547236990991394 -1.4505171491575055
4 86.799999999999997 38.699999999999996 -3.9299999999999953 -1.5362039773581239e-17 -0.70710678118654713 0.70710678118654791 1.5362039773581258e-17 0.70710678118654791 0.70710678118654713 -1 2.1725204993513512e-17 7.5789254242956359e-34 0.1414213562373105
2 86.799999999999997 38.899999999999999 0.37000000000000033 0 -0 1 0.41216082202199616 0.91111111111112708 0 -0.91111111111112708 0.41216082202199616 0 4.5
2 63.100000000000001 44.799999999999997 0.37000000000000033 -0 0 -1 0 -1 -0 -1 -0 0 4
1 59.100000000000001 44.799999999999997 0.37000000000000033 -0.70710678118654791 -4.3297802811774689e-17 -0.70710678118654713 
1 59.100000000000001 44.799999999999997 0.37000000000000033 -0 1 0 
1 58.265000000000001 63.200000000000003 -0.46499999999999975 -0.70710678118654791 4.0776668755857768e-35 -0.70710678118654713 
2 56.399999999999999 63.200000000000003 0.37000000000000033 0 -0 1 1 0 0 -0 1 0 2.7000000000000002
1 56.399999999999999 65.900000000000006 0.37000000000000033 -4.3297802811774689e-17 -0.70710678118654791 -0.70710678118654713 
8 -1.8302003533311177 1.0623244953089175
1 89.106666666666655 -5.9433333333333325 -0.68666666666666698 0.57735026918962618 0.57735026918962551 -0.57735026918962551 
1 56.400000000000006 65.900000000000006 0.37000000000000033 -1 -0 0 
1 1.3999999999999986 65.064999999999998 -0.46500000000000025 3.8003946107358386e-34 -0.70710678118654791 -0.70710678118654713 
1 1.3999999999999984 20.099999999999998 35.230000000000032 4.329780281177464e-17 0.70710678118654713 0.70710678118654791 
1 42.100000000000001 20.934999999999995 36.065000000000033 3.7587603694347437e-35 0.7071067811865468 0.70710678118654824 
1 46.100000000000001 16.100000000000001 35.230000000000032 0.70710678118654757 4.329780281177467e-17 0.70710678118654746 
7 0 0  7 8 2  82.720784389125768 40.800000000000004 35.230000000000032  82.876813906967854 40.555200751946693 35.474799248053344  83.038882071588546 40.311850973720347 35.718149026279804  83.207857517459217 40.070114126038888 35.959885873960744  83.384768274675736 39.830332086697119 36.199667913303614  83.570955505620688 39.593081749262673 36.436918250736802  83.768112209132951 39.359176384154708 36.670823615845329  83.979361774349641 39.130000000000003 36.900000000000034 
 0 8 1 8
1 82.720784389125896 40.800000000000004 35.230000000000032 -1 -0 0 
1 63.100000000000001 39.965000000000003 36.065000000000033 1.2585717651317117e-34 -0.70710678118654757 0.70710678118654757 
8 -1.8547236990991394 -1.4505171491575055
4 86.799999999999997 38.700000000000003 39.530000000000037 -5.1573427381630272e-18 0.70710678118654757 0.70710678118654757 -5.1573427381630256e-18 0.70710678118654757 -0.70710678118654757 -1 -7.2935840461165446e-18 -1.446936353380089e-33 0.14142135623730651
2 86.799999999999997 38.899999999999999 35.230000000000032 0 0 1 0.41216082202199616 0.91111111111112708 -0 -0.91111111111112708 0.41216082202199616 0 4.5
2 63.100000000000001 44.799999999999997 35.230000000000032 -0 -0 -1 0 -1 0 -1 0 0 4
1 59.100000000000001 44.799999999999997 35.230000000000032 -0.70710678118654602 -4.3297802811774572e-17 0.70710678118654902 
1 59.100000000000001 44.799999999999997 35.230000000000032 -0 1 0 
1 58.265000000000001 63.200000000000003 36.065000000000033 -0.70710678118654757 -1.2585717651317117e-34 0.70710678118654757 
2 56.399999999999999 63.200000000000003 35.230000000000032 0 0 1 1 0 -0 -0 1 0 2.7000000000000002
1 56.399999999999999 65.900000000000006 35.230000000000032 -4.329780281177467e-17 -0.70710678118654757 0.70710678118654746 
1 56.399999999999999 65.900000000000006 35.230000000000032 -1 -0 0 
1 1.3999999999999986 65.064999999999998 36.065000000000033 -1.3274369984006827e-34 -0.70710678118654757 0.70710678118654757 
1 82.720784389125768 40.800000000000004 -1.3 0 0 1 
1 56.399999999999999 65.900000000000006 -1.3 0 0 1 
1 63.100000000000001 40.799999999999997 -1.3 0 0 1 
1 59.100000000000001 44.799999999999997 -1.3 0 0 1 
1 59.100000000000001 63.200000000000003 -1.3 0 0 1 
Polygon3D 0
PolygonOnTriangulations 0
Surfaces 55
1 48.599651972157787 -1.3000000000000005 16.150348027842231 -0 -1 -0 0 0 -1 1 -0 0 
2 1.4000000000000001 1.4000000000000001 -1.3 0 0 1 1 0 -0 -0 1 0 2.7000000000000002
1 1.3999999999999986 -0.46500000000000075 -0.4650000000000003 -4.1439460262628757e-18 -0.70710678118654757 -0.70710678118654757 1 -2.930212336041526e-18 -2.930212336041526e-18 1.5431135127484003e-34 0.70710678118654757 -0.70710678118654757 
1 26.900000000000002 13.000000000000002 27.900000000000002 0 0 1 1 0 -0 -0 1 0 
2 85.349999999999994 -4 -1.4000000000000001 0 0 1 1 0 -0 -0 1 0 2.7000000000000002
2 48.800000000000004 1.4000000000000001 -1.3 0 0 1 1 0 -0 -0 1 0 2.7000000000000002
1 89.809862658961094 -1.0510072796546126 23.800000000000001 0 0 1 1 0 -0 -0 1 0 
1 48.800000000000004 -0.46499999999999897 36.065000000000033 -7.6861092351514206e-18 -0.70710678118654791 0.70710678118654713 1 -5.434899961116121e-18 5.4348999611161149e-18 -4.0776668755857768e-35 0.70710678118654713 0.70710678118654791 
1 92.5 18.423299319727889 17.376700680272112 1 0 0 -0 0 1 0 -1 0 
3 1.3999999999999986 1.3999999999999986 0.37000000000000033 -0 0 -1 -1 6.5790994051861164e-16 0 -6.5790994051861164e-16 -1 0 2.7000000000000002
-0.78539816339744839
1 -1.3000000000000005 33.262999999999998 16.837 -1 -0 -0 0 0 -1 0 -1 0 
1 45.101667397828862 28.531507161371813 -1.2999999999999996 -0 -0 -1 -1 0 0 0 1 -0 
3 85.349999999999994 -4 0.37000000000000033 -0 0 -1 0 1 0 1 0 -0 2.7000000000000002
0.78539816339744883
2 1.4000000000000001 22.799999999999997 -1.3 0 0 1 1 0 -0 -0 1 0 2.7000000000000002
1 1.4000000000000001 20.099999999999998 -1.3 -0 1 0 0 0 1 1 0 -0 
2 42.100000000000001 16.100000000000001 -1.4000000000000001 0 0 1 1 0 -0 -0 1 0 4
1 46.100000000000001 1.4000000000000001 -1.3 1 0 -0 0 0 1 0 -1 0 
1 88.049999999999997 -7 -1.3 1 0 -0 0 0 1 0 -1 0 
3 48.800000000000004 1.3999999999999986 35.230000000000032 0 0 1 -1 6.5790994051861056e-16 0 -6.5790994051861056e-16 -1 0 2.7000000000000002
-0.78539816339744839
1 88.049999999999997 -7 -1.3 -0 1 0 0 0 1 1 0 -0 
1 46.831821607094064 32.955158679128324 36.900000000000034 0 0 1 1 0 -0 -0 1 0 
1 91.664999999999992 -1.3000000000000007 36.065000000000033 0.70710678118654757 -5.1573427381630272e-18 0.70710678118654757 3.6467920230582731e-18 1 3.6467920230582731e-18 0.70710678118654757 1.2585717651317117e-34 -0.70710678118654757 
1 86.799999999999997 43 -1.3 -0 1 0 0 0 1 1 0 -0 
1 91.664999999999992 -7 -0.4650000000000003 0.70710678118654713 -1.0132665321085109e-17 -0.70710678118654791 7.1648763600330423e-18 1 -7.16487636003305e-18 0.70710678118654791 5.4501046490499035e-35 0.70710678118654713 
1 -0.46499999999999897 63.200000000000003 -0.4650000000000003 -0.70710678118654757 -4.1439460262628757e-18 -0.70710678118654757 2.930212336041526e-18 -1 2.930212336041526e-18 0.70710678118654757 -1.5431135127484003e-34 -0.70710678118654757 
2 1.4000000000000001 63.200000000000003 -1.3 0 0 1 1 0 -0 -0 1 0 2.7000000000000002
1 -0.46499999999999897 63.200000000000003 36.065000000000033 -0.70710678118654791 1.5362039773581239e-17 0.70710678118654713 -1.0862602496756756e-17 -1 1.0862602496756744e-17 0.70710678118654713 -3.8003946107358386e-34 0.70710678118654791 
1 82.720784389125896 39.965000000000003 -0.4650000000000003 1.5362039773581239e-17 0.70710678118654713 -0.70710678118654791 -1 1.0862602496756744e-17 -1.0862602496756756e-17 3.8003946107358386e-34 -0.70710678118654791 -0.70710678118654713 
3 86.799999999999997 38.899999999999999 0.37000000000000033 -0 0 -1 0.41216082202199616 0.91111111111112708 0 -0.91111111111112708 0.41216082202199616 0 4.5
-0.78539816339744883
3 63.100000000000001 44.799999999999997 0.37000000000000033 -0 0 -1 0 -1 -0 -1 -0 0 4
0.78539816339744883
1 88.654723699098966 42.164999999999999 -0.46499999999999964 1.5362039773581239e-17 0.70710678118654713 -0.70710678118654791 1 -1.0862602496756744e-17 1.0862602496756756e-17 3.8003946107358386e-34 -0.70710678118654791 -0.70710678118654713 
1 58.265000000000001 44.799999999999997 -0.46499999999999964 0.70710678118654713 -7.6861092351514206e-18 -0.70710678118654791 5.4348999611161149e-18 1 -5.434899961116121e-18 -0.70710678118654791 4.0776668755857768e-35 -0.70710678118654713 
3 56.399999999999999 63.200000000000003 0.37000000000000033 -0 0 -1 1 0 0 -0 1 0 2.7000000000000002
-0.78539816339744883
1 88.049999999999997 -6.165 -0.46499999999999964 -4.1439460262628757e-18 0.70710678118654757 0.70710678118654757 1 2.930212336041526e-18 2.930212336041526e-18 -1.5431135127484003e-34 0.70710678118654757 -0.70710678118654757 
1 56.400000000000006 65.064999999999998 -0.46499999999999964 1.5362039773581239e-17 0.70710678118654713 -0.70710678118654791 -1 1.0862602496756744e-17 -1.0862602496756756e-17 3.8003946107358386e-34 -0.70710678118654791 -0.70710678118654713 
1 88.884999999999991 -4 -0.46499999999999964 0.70710678118654713 7.6861092351514206e-18 0.70710678118654791 5.4348999611161149e-18 -1 5.434899961116121e-18 0.70710678118654791 4.0776668755857768e-35 -0.70710678118654713 
3 1.3999999999999986 63.200000000000003 0.37000000000000033 -0 0 -1 6.5790994051861056e-16 1 0 -1 6.5790994051861056e-16 0 2.7000000000000002
-0.78539816339744839
3 1.3999999999999986 22.799999999999997 35.230000000000032 0 0 1 -1 0 0 -0 -1 0 2.7000000000000002
-0.78539816339744772
1 1.3999999999999986 20.934999999999995 36.065000000000033 7.9895864984714317e-18 0.70710678118654824 -0.7071067811865468 1 -5.6494907919456388e-18 5.6494907919456273e-18 3.7587603694347437e-35 0.7071067811865468 0.70710678118654824 
3 42.100000000000001 16.100000000000001 35.230000000000032 0 0 1 0 1 -0 1 -0 -0 4
0.78539816339744839
1 46.935000000000002 16.100000000000001 36.065000000000033 0.70710678118654757 5.1573427381630272e-18 -0.70710678118654757 3.6467920230582731e-18 -1 -3.6467920230582731e-18 0.70710678118654757 -1.2585717651317117e-34 0.70710678118654757 
1 82.720784389125896 39.965000000000003 36.065000000000033 -5.1573427381630272e-18 0.70710678118654757 0.70710678118654757 -1 -3.6467920230582731e-18 -3.6467920230582731e-18 1.2585717651317117e-34 -0.70710678118654757 0.70710678118654757 
3 86.799999999999997 38.899999999999999 35.230000000000032 0 0 1 0.41216082202199616 0.91111111111112708 -0 -0.91111111111112708 0.41216082202199616 -0 4.5
-0.78539816339744839
3 63.100000000000001 44.799999999999997 35.230000000000032 0 0 1 0 -1 0 -1 -0 0 4
0.78539816339744617
1 88.654723699098966 42.164999999999999 36.065000000000033 -5.1573427381630272e-18 0.70710678118654757 0.70710678118654757 1 3.6467920230582731e-18 3.6467920230582731e-18 1.2585717651317117e-34 -0.70710678118654757 0.70710678118654757 
1 58.265000000000001 44.799999999999997 36.065000000000033 0.70710678118654757 -5.1573427381630272e-18 0.70710678118654757 3.6467920230582731e-18 1 3.6467920230582731e-18 -0.70710678118654757 -1.2585717651317117e-34 0.70710678118654757 
3 56.399999999999999 63.200000000000003 35.230000000000032 0 0 1 1 0 -0 -0 1 -0 2.7000000000000002
-0.78539816339744839
1 56.399999999999999 65.064999999999998 36.065000000000033 4.2091189434382835e-18 0.70710678118654757 0.70710678118654757 -1 2.976296547725966e-18 2.976296547725966e-18 -1.3274369984006827e-34 -0.70710678118654757 0.70710678118654757 
3 1.3999999999999986 63.200000000000003 35.230000000000032 0 0 1 6.5790994051861056e-16 1 -0 -1 6.5790994051861056e-16 -0 2.7000000000000002
-0.78539816339744772
2 86.799999999999997 38.899999999999999 -1.3 0 0 1 1 0 -0 -0 1 0 4.5
1 1.4000000000000001 65.900000000000006 -1.3 -0 1 0 0 0 1 1 0 -0 
1 70.65000000000002 40.800000000000004 17.800000000000008 0 1 0 0 -0 1 1 0 -0 
2 63.100000000000001 44.799999999999997 -1.4000000000000001 0 0 1 1 0 -0 -0 1 0 4
1 59.100000000000001 22.799999999999997 -1.3 1 0 -0 0 0 1 0 -1 0 
2 56.399999999999999 63.200000000000003 -1.3 0 0 1 1 0 -0 -0 1 0 2.7000000000000002
Triangulations 0

TShapes 316
Ve
1.00000003552714e-07
1.4 -1.3 0.37
0 0

0101101
*
Ve
1.00000003552714e-07
1.4 -1.3 27.9
0 0

0101101
*
Ed
 1.00000003552714e-07 1 1 0
1  1 0 1.67 29.2
2  1 1 0 1.67 29.2
2  2 2 0 1.67 29.2
0

0101000
+316 0 -315 0 *
Ve
1.00000004218847e-07
85.35 -1.3 0.37
0 0

0101101
*
Ed
 1e-07 1 1 0
1  2 0 0 83.95
2  3 1 0 0 83.95
2  4 3 0 0 83.95
0

0101000
+316 0 -313 0 *
Ve
1.00000003774758e-07
48.8 -1.3 27.9
0 0

0101101
*
Ed
 1.00000003552714e-07 1 1 0
1  3 0 0 47.4
2  5 1 0 0 47.4
2  6 4 0 0 47.4
0

0101000
+315 0 -311 0 *
Ve
1.00000008274037e-07
85.35 -1.3 23.8
0 0

0101101
*
Ed
 1.00000004218847e-07 1 1 0
1  4 0 1.67 25.1
2  7 1 0 1.67 25.1
2  8 5 0 1.67 25.1
0

0101000
+313 0 -309 0 *
Ve
1.00000003552714e-07
48.8 -1.3 35.23
0 0

0101101
*
Ed
 1.00000003552714e-07 1 1 0
1  5 0 29.2 36.53
2  9 1 0 29.2 36.53
2  10 6 0 29.2 36.53
0

0101000
-307 0 +311 0 *
Ve
1.50000004218847e-07
92.5 -1.3 23.8
0 0

0101101
*
Ed
 1e-07 1 1 0
1  6 0 0 7.15000000000001
2  11 1 0 0 7.15000000000001
2  12 7 0 0 7.15000000000001
0

0101000
+309 0 -305 0 *
Ve
1.00000007105427e-07
92.5 -1.3 35.23
0 0

0101101
*
Ed
 1e-07 1 1 0
1  7 0 0 43.7
2  13 1 0 0 43.7
2  14 8 0 0 43.7
0

0101000
+307 0 -303 0 *
Ed
 1.00000007105427e-07 1 1 0
1  8 0 25.1 36.53
2  15 1 0 25.1 36.53
2  16 9 0 25.1 36.53
0

0101000
-303 0 +305 0 *
Wi

0101100
-314 0 +312 0 -310 0 +308 0 -306 0 +304 0 -302 0 +301 0 *
Fa
0  1.00000003552714e-07 1 0

0101000
+300 0 *
Ve
1.00000003552714e-07
-1.3 1.4 0.37
0 0

0101101
*
Ed
 1e-07 1 1 0
1  9 0 0 1.5707963267949
2  17 2 0 0 1.5707963267949
2  18 10 0 0 1.5707963267949
0

0101000
+298 0 -316 0 *
Ve
1.00000003552714e-07
-1.3 1.4 27.9
0 0

0101101
*
Ed
 1e-07 1 1 0
1  10 0 3.14159265358979 4.71238898038469
2  19 2 0 3.14159265358979 4.71238898038469
2  20 4 0 3.14159265358979 4.71238898038469
0

0101000
+296 0 -315 0 *
Ed
 1.00000003552714e-07 1 1 0
1  11 0 1.67 29.2
2  21 2 0 1.67 29.2
2  22 11 0 1.67 29.2
0

0101000
+298 0 -296 0 *
Wi

0101100
+314 0 +297 0 -295 0 -294 0 *
Fa
0  1e-07 2 0

0101000
+293 0 *
Ve
1e-07
1.4 0.369999999999999 -1.3
0 0

0101101
*
Ed
 1e-07 1 1 0
1  12 0 0 2.36173664916307
2  23 3 0 0 2.36173664916307
2  24 10 0 0 2.36173664916307
4 G1 3 0 10 0
0

0101000
+316 0 -291 0 *
Ve
1e-07
85.35 0.369999999999999 -1.3
0 0

0101101
*
Ed
 1e-07 1 1 0
1  13 0 0 83.95
2  25 3 0 0 83.95
2  26 12 0 0 83.95
0

0101000
+291 0 -289 0 *
Ed
 1e-07 1 1 0
1  14 0 -1.18086832458153 1.18086832458153
2  27 3 0 -1.18086832458153 1.18086832458153
2  28 13 0 -1.18086832458153 1.18086832458153
4 G1 3 0 13 0
0

0101000
+313 0 -289 0 *
Wi

0101100
-290 0 +312 0 -288 0 +287 0 *
Fa
0  1e-07 3 0

0101000
+286 0 *
Ve
1.00000003552714e-07
-1.3 22.8 27.9
0 0

0101101
*
Ed
 1.00000003552714e-07 1 1 0
1  15 0 0 21.4
2  29 4 0 0 21.4
2  30 11 0 0 21.4
0

0101000
+296 0 -284 0 *
Ve
1.50000000222045e-07
1.4 20.1 27.9
0 0

0101101
*
Ed
 1e-07 1 1 0
1  16 0 3.14159265358979 4.71238898038469
2  31 4 0 3.14159265358979 4.71238898038469
2  32 14 0 3.14159265358979 4.71238898038469
0

0101000
+284 0 -282 0 *
Ve
1.50001e-07
42.1 20.1 27.9
0 0

0101101
*
Ed
 1.5e-07 1 1 0
1  17 0 -27.95 12.75
2  33 4 0 -27.95 12.75
2  34 15 0 -27.95 12.75
0

0101000
+280 0 -282 0 *
Ve
1.50001e-07
46.1 16.1 27.9
0 0

0101101
*
Ed
 1e-07 1 1 0
1  18 0 0 1.5707963267949
2  35 4 0 0 1.5707963267949
2  36 16 0 0 1.5707963267949
0

0101000
+278 0 -280 0 *
Ve
1.50000000222045e-07
46.1 1.4 27.9
0 0

0101101
*
Ed
 1.5e-07 1 1 0
1  19 0 -5.8 8.9
2  37 4 0 -5.8 8.9
2  38 17 0 -5.8 8.9
0

0101000
+276 0 -278 0 *
Ed
 1e-07 1 1 0
1  20 0 3.14159265358979 4.71238898038469
2  39 4 0 3.14159265358979 4.71238898038469
2  40 6 0 3.14159265358979 4.71238898038469
0

0101000
+276 0 -311 0 *
Wi

0101100
-283 0 -281 0 +279 0 +277 0 +275 0 -274 0 +310 0 +295 0 *
Fa
0  1e-07 4 0

0101000
+273 0 *
Ve
1.00000001776357e-07
88.05 -4 0.37
0 0

0101101
*
Ed
 1e-07 1 1 0
1  21 0 -0 1.5707963267949
2  41 5 0 -0 1.5707963267949
2  42 13 0 -0 1.5707963267949
0

0101000
+313 0 -271 0 *
Ve
1.50001e-07
88.05 -4 23.8
0 0

0101101
*
Ed
 1e-07 1 1 0
1  22 0 0 1.5707963267949
2  43 5 0 0 1.5707963267949
2  44 7 0 0 1.5707963267949
0

0101000
+269 0 -309 0 *
Ed
 1.00000001776357e-07 1 1 0
1  23 0 1.67 25.1
2  45 5 0 1.67 25.1
2  46 18 0 1.67 25.1
0

0101000
+271 0 -269 0 *
Wi

0101100
+308 0 -270 0 -268 0 -267 0 *
Fa
0  1e-07 5 0

0101000
+266 0 *
Ve
1.00000002664535e-07
46.1 1.4 35.23
0 0

0101101
*
Ed
 1e-07 1 1 0
1  24 0 0 1.5707963267949
2  47 6 0 0 1.5707963267949
2  48 19 0 0 1.5707963267949
0

0101000
+264 0 -307 0 *
Ed
 1.00000002664535e-07 1 1 0
1  25 0 29.2 36.53
2  49 6 0 29.2 36.53
2  50 17 0 29.2 36.53
0

0101000
-264 0 +276 0 *
Wi

0101100
+306 0 -263 0 +274 0 -262 0 *
Fa
0  1e-07 6 0

0101000
+261 0 *
Ve
1e-07
88.05 -7 23.8
0 0

0101101
*
Ed
 1e-07 1 1 0
1  26 0 0 3
2  51 7 0 0 3
2  52 18 0 0 3
0

0101000
+259 0 -269 0 *
Ve
1.00000007105427e-07
92.5 -7 23.8
0 0

0101101
*
Ed
 1.00000007105427e-07 1 1 0
1  27 0 0 5.7
2  53 7 0 0 5.7
2  54 9 0 0 5.7
0

0101000
+257 0 -305 0 *
Ed
 1e-07 1 1 0
1  28 0 0 4.45
2  55 7 0 0 4.45
2  56 20 0 0 4.45
0

0101000
-257 0 +259 0 *
Wi

0101000
-258 0 -268 0 -304 0 +256 0 +255 0 *
Fa
0  1e-07 7 0

0101000
+254 0 *
Ve
1e-07
48.8 0.369999999999999 36.9
0 0

0101101
*
Ed
 1e-07 1 1 0
1  29 0 0 2.36173664916307
2  57 8 0 0 2.36173664916307
2  58 19 0 0 2.36173664916307
4 G1 8 0 19 0
0

0101000
+307 0 -252 0 *
Ve
1e-07
90.83 0.370000000000001 36.9
0 0

0101101
*
Ed
 1e-07 1 1 0
1  30 0 0 42.03
2  59 8 0 0 42.03
2  60 21 0 0 42.03
0

0101000
+252 0 -250 0 *
Ed
 1e-07 1 1 0
1  31 0 -13.57927833134 -10.6867534827
2  61 8 0 -13.57927833134 -10.6867534827
2  62 22 0 -13.57927833134 -10.6867534827
0

0101000
+303 0 -250 0 *
Wi

0101100
-251 0 +302 0 -249 0 +248 0 *
Fa
0  1e-07 8 0

0101000
+247 0 *
Ve
1.00000007105427e-07
92.5 43 35.23
0 0

0101101
*
Ed
 1e-07 1 1 0
1  32 0 -0 44.3
2  63 9 0 -0 44.3
2  64 22 0 -0 44.3
0

0101000
+303 0 -245 0 *
Ve
1.00000007105427e-07
92.5 43 0.370000000000001
0 0

0101101
*
Ed
 1.00000007105427e-07 1 1 0
1  33 0 1.67 36.53
2  65 9 0 1.67 36.53
2  66 23 0 1.67 36.53
0

0101000
+243 0 -245 0 *
Ve
1.00000007105427e-07
92.5 -7 0.37
0 0

0101101
*
Ed
 1.00000007105427e-07 1 1 0
1  34 0 1.67 25.1
2  67 9 0 1.67 25.1
2  68 20 0 1.67 25.1
0

0101000
+241 0 -257 0 *
Ed
 1e-07 1 1 0
1  35 0 -0 50
2  69 9 0 -0 50
2  70 24 0 -0 50
0

0101000
+241 0 -243 0 *
Wi

0101100
-301 0 -244 0 -256 0 +242 0 -240 0 +239 0 *
Fa
0  1.00000007105427e-07 9 0

0101000
+238 0 *
Ve
1e-07
0.370000000000001 1.4 -1.3
0 0

0101101
*
Ed
 1e-07 1 1 0
1  36 0 -1.18086832458153 1.18086832458153
2  71 10 0 -1.18086832458153 1.18086832458153
2  72 25 0 -1.18086832458153 1.18086832458153
4 G1 10 0 25 0
0

0101000
+298 0 -236 0 *
Ed
 1e-07 1 1 0
1  37 0 0 1.5707963267949
2  73 10 0 0 1.5707963267949
2  74 12 0 0 1.5707963267949
0

0101000
+236 0 -291 0 *
Wi

0101100
-235 0 +297 0 -234 0 +290 0 *
Fa
0  1e-07 10 0

0101000
+233 0 *
Ve
1.00000003552714e-07
-1.3 63.2 0.37
0 0

0101101
*
Ed
 1e-07 1 1 0
1  38 0 0 61.8
2  75 11 0 0 61.8
2  76 25 0 0 61.8
0

0101000
+231 0 -298 0 *
Ve
1.00000003552714e-07
-1.3 63.2 35.23
0 0

0101101
*
Ed
 1.00000003552714e-07 1 1 0
1  39 0 1.67 36.53
2  77 11 0 1.67 36.53
2  78 26 0 1.67 36.53
0

0101000
+231 0 -229 0 *
Ve
1.00000003552714e-07
-1.3 22.8 35.23
0 0

0101101
*
Ed
 1.00000003552714e-07 1 1 0
1  40 0 29.2 36.53
2  79 11 0 29.2 36.53
2  80 14 0 29.2 36.53
0

0101000
-227 0 +284 0 *
Ed
 1e-07 1 1 0
1  41 0 0 40.4
2  81 11 0 0 40.4
2  82 27 0 0 40.4
0

0101000
+229 0 -227 0 *
Wi

0101100
+294 0 +230 0 +283 0 -228 0 +226 0 -225 0 *
Fa
0  1.00000003552714e-07 11 0

0101000
+224 0 *
Ve
2.8805052190499e-06
83.9793617743496 39.13 -1.3
0 0

0101101
*
Ve
1e-07
63.1 39.13 -1.3
0 0

0101101
*
Ed
 1e-07 1 1 0
1  42 0 -1.25857738522375 19.6207843891259
2  83 12 0 -1.25857738522375 19.6207843891259
2  84 28 0 -1.25857738522375 19.6207843891259
0

0101000
+222 0 -221 0 *
Ve
6.41747777672182e-07
88.2505171491575 41.33 -1.3
0 0

0101101
*
Ed
 1e-07 1 1 0
1  43 0 -0.113327759307931 1.91425893341147
2  85 12 0 -0.113327759307931 1.91425893341147
2  86 29 0 -0.113327759307931 1.91425893341147
0

0101000
+219 0 -222 0 *
Ve
1e-07
57.43 44.8 -1.3
0 0

0101101
*
Ed
 1e-07 1 1 0
1  44 0 -0 1.5707963267949
2  87 12 0 -0 1.5707963267949
2  88 30 0 -0 1.5707963267949
0

0101000
+221 0 -217 0 *
Ve
1e-07
90.83 41.33 -1.3
0 0

0101101
*
Ed
 1e-07 1 1 0
1  45 0 -0.40420654994147 2.17527630090102
2  89 12 0 -0.40420654994147 2.17527630090102
2  90 31 0 -0.40420654994147 2.17527630090102
0

0101000
+219 0 -215 0 *
Ve
1e-07
57.43 63.2 -1.3
0 0

0101101
*
Ed
 1e-07 1 1 0
1  46 0 -0 18.4
2  91 12 0 -0 18.4
2  92 32 0 -0 18.4
0

0101000
+217 0 -213 0 *
Ve
1e-07
90.83 -5.33 -1.3
0 0

0101101
*
Ed
 1e-07 1 1 0
1  47 0 1.67 48.33
2  93 12 0 1.67 48.33
2  94 24 0 1.67 48.33
0

0101000
+211 0 -215 0 *
Ve
1e-07
56.4 64.23 -1.3
0 0

0101101
*
Ed
 1e-07 1 1 0
1  48 0 0 1.5707963267949
2  95 12 0 0 1.5707963267949
2  96 33 0 0 1.5707963267949
0

0101000
+213 0 -209 0 *
Ve
1e-07
89.72 -5.33 -1.3
0 0

0101101
*
Ed
 1e-07 1 1 0
1  49 0 1.67 2.77999999999999
2  97 12 0 1.67 2.77999999999999
2  98 34 0 1.67 2.77999999999999
0

0101000
+207 0 -211 0 *
Ve
1e-07
1.4 64.23 -1.3
0 0

0101101
*
Ed
 1e-07 1 1 0
1  50 0 7.105427357601e-15 55
2  99 12 0 7.105427357601e-15 55
2  100 35 0 7.105427357601e-15 55
0

0101000
+209 0 -205 0 *
Ve
1e-07
89.72 -4 -1.3
0 0

0101101
*
Ed
 1e-07 1 1 0
1  51 0 0 1.33
2  101 12 0 0 1.33
2  102 36 0 0 1.33
0

0101000
+203 0 -207 0 *
Ve
1e-07
0.369999999999999 63.2 -1.3
0 0

0101101
*
Ed
 1e-07 1 1 0
1  52 0 0 1.5707963267949
2  103 12 0 0 1.5707963267949
2  104 37 0 0 1.5707963267949
0

0101000
+205 0 -201 0 *
Ed
 1e-07 1 1 0
1  53 0 -0 1.5707963267949
2  105 12 0 -0 1.5707963267949
2  106 13 0 -0 1.5707963267949
0

0101000
+289 0 -203 0 *
Ed
 1e-07 1 1 0
1  54 0 0 61.8
2  107 12 0 0 61.8
2  108 25 0 0 61.8
0

0101000
+201 0 -236 0 *
Wi

0101100
-220 0 -218 0 -216 0 +214 0 -212 0 -210 0 -208 0 -206 0 -204 0 -202 0 
-200 0 -199 0 -198 0 -288 0 -234 0 *
Fa
0  1.00000003552714e-07 12 0

0101000
+197 0 *
Ed
 1e-07 1 1 0
1  55 0 0 2.36173664916307
2  109 13 0 0 2.36173664916307
2  110 36 0 0 2.36173664916307
4 G1 13 0 36 0
0

0101000
+271 0 -203 0 *
Wi

0101100
-287 0 +270 0 -199 0 +195 0 *
Fa
0  1e-07 13 0

0101000
+194 0 *
Ve
1.00000000444089e-07
1.4 20.1 35.23
0 0

0101101
*
Ed
 1.00000000444089e-07 1 1 0
1  56 0 29.2 36.53
2  111 14 0 29.2 36.53
2  112 15 0 29.2 36.53
0

0101000
-192 0 +282 0 *
Ed
 1e-07 1 1 0
1  57 0 0 1.5707963267949
2  113 14 0 0 1.5707963267949
2  114 38 0 0 1.5707963267949
0

0101000
+227 0 -192 0 *
Wi

0101100
+191 0 -190 0 +281 0 -226 0 *
Fa
0  1e-07 14 0

0101000
+189 0 *
Ve
1.00000003552714e-07
42.1 20.1 35.23
0 0

0101101
*
Ed
 1.00000003552714e-07 1 1 0
1  58 0 29.2 36.53
2  115 15 0 29.2 36.53
2  116 16 0 29.2 36.53
0

0101000
-187 0 +280 0 *
Ed
 1e-07 1 1 0
1  59 0 1.55431223447522e-15 40.7
2  117 15 0 1.55431223447522e-15 40.7
2  118 39 0 1.55431223447522e-15 40.7
0

0101000
+192 0 -187 0 *
Wi

0101100
-186 0 +185 0 +279 0 +191 0 *
Fa
0  1e-07 15 0

0101000
+184 0 *
Ve
1e-07
46.1 16.1 35.23
0 0

0101101
*
Ed
 1e-07 1 1 0
1  60 0 -0 1.5707963267949
2  119 16 0 -0 1.5707963267949
2  120 40 0 -0 1.5707963267949
0

0101000
+187 0 -182 0 *
Ed
 1e-07 1 1 0
1  61 0 29.2 36.53
2  121 16 0 29.2 36.53
2  122 17 0 29.2 36.53
0

0101000
-182 0 +278 0 *
Wi

0101100
+186 0 +181 0 +277 0 -180 0 *
Fa
0  1e-07 16 0

0101000
+179 0 *
Ed
 1e-07 1 1 0
1  62 0 0 14.7
2  123 17 0 0 14.7
2  124 41 0 0 14.7
0

0101000
+182 0 -264 0 *
Wi

0101100
-262 0 +177 0 +275 0 +180 0 *
Fa
0  1e-07 17 0

0101000
+176 0 *
Ve
1e-07
88.05 -7 0.370000000000003
0 0

0101101
*
Ed
 1e-07 1 1 0
1  63 0 0 3
2  125 18 0 0 3
2  126 36 0 0 3
0

0101000
+271 0 -174 0 *
Ed
 1e-07 1 1 0
1  64 0 1.67 25.1
2  127 18 0 1.67 25.1
2  128 20 0 1.67 25.1
0

0101000
+174 0 -259 0 *
Wi

0101100
+267 0 -173 0 -258 0 -172 0 *
Fa
0  1e-07 18 0

0101000
+171 0 *
Ve
1e-07
47.77 1.4 36.9
0 0

0101101
*
Ed
 1e-07 1 1 0
1  65 0 -1.18086832458154 1.18086832458153
2  129 19 0 -1.18086832458154 1.18086832458153
2  130 41 0 -1.18086832458154 1.18086832458153
4 G1 19 0 41 0
0

0101000
+264 0 -169 0 *
Ed
 1e-07 1 1 0
1  66 0 0 1.5707963267949
2  131 19 0 0 1.5707963267949
2  132 21 0 0 1.5707963267949
0

0101000
+169 0 -252 0 *
Wi

0101100
-168 0 +263 0 -167 0 +251 0 *
Fa
0  1e-07 19 0

0101000
+166 0 *
Ed
 1e-07 1 1 0
1  67 0 0 4.45
2  133 20 0 0 4.45
2  134 34 0 0 4.45
0

0101000
+174 0 -241 0 *
Wi

0101100
-240 0 -164 0 +255 0 +172 0 *
Fa
0  1e-07 20 0

0101000
+163 0 *
Ve
2.88050550500618e-06
83.9793617743496 39.13 36.9
0 0

0101101
*
Ve
1e-07
63.1 39.13 36.9
0 0

0101101
*
Ed
 1e-07 1 1 0
1  68 0 -1.25857738522375 19.6207843891259
2  135 21 0 -1.25857738522375 19.6207843891259
2  136 42 0 -1.25857738522375 19.6207843891259
0

0101000
+161 0 -160 0 *
Ve
6.41747836697069e-07
88.2505171491575 41.33 36.9
0 0

0101101
*
Ed
 1e-07 1 1 0
1  69 0 -0.113327759307931 1.91425893341147
2  137 21 0 -0.113327759307931 1.91425893341147
2  138 43 0 -0.113327759307931 1.91425893341147
0

0101000
+158 0 -161 0 *
Ve
1e-07
57.43 44.8 36.9
0 0

0101101
*
Ed
 1e-07 1 1 0
1  70 0 -0 1.5707963267949
2  139 21 0 -0 1.5707963267949
2  140 44 0 -0 1.5707963267949
0

0101000
+160 0 -156 0 *
Ve
1e-07
90.83 41.33 36.9
0 0

0101101
*
Ed
 1e-07 1 1 0
1  71 0 -0.40420654994147 2.17527630090103
2  141 21 0 -0.40420654994147 2.17527630090103
2  142 45 0 -0.40420654994147 2.17527630090103
0

0101000
+158 0 -154 0 *
Ve
1e-07
57.43 63.2 36.9
0 0

0101101
*
Ed
 1e-07 1 1 0
1  72 0 -0 18.4
2  143 21 0 -0 18.4
2  144 46 0 -0 18.4
0

0101000
+156 0 -152 0 *
Ed
 1e-07 1 1 0
1  73 0 1.67 42.63
2  145 21 0 1.67 42.63
2  146 22 0 1.67 42.63
0

0101000
+250 0 -154 0 *
Ve
1e-07
56.4 64.23 36.9
0 0

0101101
*
Ed
 1e-07 1 1 0
1  74 0 0 1.5707963267949
2  147 21 0 0 1.5707963267949
2  148 47 0 0 1.5707963267949
0

0101000
+152 0 -149 0 *
Ve
1e-07
1.4 64.23 36.9
0 0

0101101
*
Ed
 1e-07 1 1 0
1  75 0 -0 55
2  149 21 0 -0 55
2  150 48 0 -0 55
0

0101000
+149 0 -147 0 *
Ve
1e-07
0.369999999999997 63.2 36.9
0 0

0101101
*
Ed
 1e-07 1 1 0
1  76 0 0 1.5707963267949
2  151 21 0 0 1.5707963267949
2  152 49 0 0 1.5707963267949
0

0101000
+147 0 -145 0 *
Ve
1e-07
47.77 16.1 36.9
0 0

0101101
*
Ed
 1e-07 1 1 0
1  77 0 0 14.7
2  153 21 0 0 14.7
2  154 41 0 0 14.7
0

0101000
+143 0 -169 0 *
Ve
1e-07
0.370000000000001 22.8 36.9
0 0

0101101
*
Ed
 1e-07 1 1 0
1  78 0 0 40.4
2  155 21 0 0 40.4
2  156 27 0 0 40.4
0

0101000
+145 0 -141 0 *
Ve
1e-07
42.1 21.77 36.9
0 0

0101101
*
Ed
 1e-07 1 1 0
1  79 0 -0 1.5707963267949
2  157 21 0 -0 1.5707963267949
2  158 40 0 -0 1.5707963267949
0

0101000
+139 0 -143 0 *
Ve
1e-07
1.4 21.77 36.9
0 0

0101101
*
Ed
 1e-07 1 1 0
1  80 0 0 1.5707963267949
2  159 21 0 0 1.5707963267949
2  160 38 0 0 1.5707963267949
0

0101000
+141 0 -137 0 *
Ed
 1e-07 1 1 0
1  81 0 1.55431223447522e-15 40.7
2  161 21 0 1.55431223447522e-15 40.7
2  162 39 0 1.55431223447522e-15 40.7
0

0101000
+137 0 -139 0 *
Wi

0101100
+159 0 +157 0 +155 0 -153 0 +151 0 +150 0 +148 0 +249 0 +146 0 +167 0 
+144 0 +142 0 +140 0 +138 0 +136 0 +135 0 *
Fa
0  1.00000007105427e-07 21 0

0101000
+134 0 *
Ed
 1e-07 1 1 0
1  82 0 -14.8625190658137 -11.9699942171737
2  163 22 0 -14.8625190658137 -11.9699942171737
2  164 45 0 -14.8625190658137 -11.9699942171737
0

0101000
+245 0 -154 0 *
Wi

0101100
+248 0 -244 0 +150 0 -132 0 *
Fa
0  1e-07 22 0

0101000
+131 0 *
Ve
6.41747777672182e-07
88.6547236990991 43 0.37
0 0

0101101
*
Ed
 1e-07 1 1 0
1  83 0 1.70530256582424e-13 3.84527630090103
2  165 23 0 1.70530256582424e-13 3.84527630090103
2  166 31 0 1.70530256582424e-13 3.84527630090103
0

0101000
+129 0 -243 0 *
Ve
6.41747836697069e-07
88.6547236990991 43 35.23
0 0

0101101
*
Ed
 1e-07 1 1 0
1  84 0 1.70530256582424e-13 3.84527630090103
2  167 23 0 1.70530256582424e-13 3.84527630090103
2  168 45 0 1.70530256582424e-13 3.84527630090103
0

0101000
+127 0 -245 0 *
Ed
 1e-07 1 1 0
1  85 0 1.67 36.53
2  169 23 0 1.67 36.53
2  170 50 0 1.67 36.53
0

0101000
+129 0 -127 0 *
Wi

0101100
-242 0 -128 0 +126 0 +125 0 *
Fa
0  1e-07 23 0

0101000
+124 0 *
Ed
 1e-07 1 1 0
1  86 0 -2.24877929849359 0.643745550146441
2  171 24 0 -2.24877929849359 0.643745550146441
2  172 34 0 -2.24877929849359 0.643745550146441
0

0101000
+241 0 -211 0 *
Ed
 1e-07 1 1 0
1  87 0 -16.5079673330042 -13.6154424843641
2  173 24 0 -16.5079673330042 -13.6154424843641
2  174 31 0 -16.5079673330042 -13.6154424843641
0

0101000
+243 0 -215 0 *
Wi

0101100
+122 0 -239 0 +210 0 -121 0 *
Fa
0  1e-07 24 0

0101000
+120 0 *
Ed
 1e-07 1 1 0
1  88 0 0 2.36173664916307
2  175 25 0 0 2.36173664916307
2  176 37 0 0 2.36173664916307
4 G1 25 0 37 0
0

0101000
+231 0 -201 0 *
Wi

0101100
-118 0 +230 0 -198 0 +235 0 *
Fa
0  1e-07 25 0

0101000
+117 0 *
Ve
1.00000000222045e-07
1.4 65.9 0.370000000000008
0 0

0101101
*
Ed
 1e-07 1 1 0
1  89 0 0 1.5707963267949
2  177 26 0 0 1.5707963267949
2  178 37 0 0 1.5707963267949
0

0101000
+115 0 -231 0 *
Ve
1.00000000222045e-07
1.4 65.9 35.23
0 0

0101101
*
Ed
 1e-07 1 1 0
1  90 0 0 1.5707963267949
2  179 26 0 0 1.5707963267949
2  180 49 0 0 1.5707963267949
0

0101000
+113 0 -229 0 *
Ed
 1.00000000222045e-07 1 1 0
1  91 0 1.67 36.53
2  181 26 0 1.67 36.53
2  182 51 0 1.67 36.53
0

0101000
+115 0 -113 0 *
Wi

0101100
+228 0 +114 0 -112 0 -111 0 *
Fa
0  1e-07 26 0

0101000
+110 0 *
Ed
 1e-07 1 1 0
1  92 0 0 2.36173664916307
2  183 27 0 0 2.36173664916307
2  184 49 0 0 2.36173664916307
4 G1 27 0 49 0
0

0101000
+229 0 -145 0 *
Ed
 1e-07 1 1 0
1  93 0 -1.18086832458154 1.18086832458154
2  185 27 0 -1.18086832458154 1.18086832458154
2  186 38 0 -1.18086832458154 1.18086832458154
4 G1 27 0 38 0
0

0101000
+227 0 -141 0 *
Wi

0101100
-108 0 +225 0 -140 0 +107 0 *
Fa
0  1e-07 27 0

0101000
+106 0 *
Ve
2.8805052190499e-06
82.7207843891258 40.8 0.369999999999997
0 0

0101101
*
Ed
 1.92409646120518e-06 1 1 0
1  94 0 0 1
2  187 28 0 0 1
2  188 29 0 0 1
0

0101000
+104 0 -222 0 *
Ve
1.00000010658141e-07
63.1 40.8 0.369999999999997
0 0

0101101
*
Ed
 1e-07 1 1 0
1  95 0 1.27897692436818e-13 19.6207843891259
2  189 28 0 1.27897692436818e-13 19.6207843891259
2  190 52 0 1.27897692436818e-13 19.6207843891259
0

0101000
+104 0 -102 0 *
Ed
 1e-07 1 1 0
1  96 0 -1.18086832458153 1.18086832458154
2  191 28 0 -1.18086832458153 1.18086832458154
2  192 30 0 -1.18086832458153 1.18086832458154
4 G1 28 0 30 0
0

0101000
+102 0 -221 0 *
Wi

0101100
-103 0 +101 0 -220 0 +100 0 *
Fa
0  1e-07 28 0

0101000
+99 0 *
Ed
 4.42691621014285e-07 1 1 0
1  97 0 -1.85472369909914 -1.45051714915751
2  193 29 0 -1.85472369909914 -1.45051714915751
2  194 31 0 -1.85472369909914 -1.45051714915751
0

0101000
+129 0 -219 0 *
Ed
 1e-07 1 1 0
1  98 0 -3.81916720471054e-14 1.55972537803652
2  195 29 0 -3.81916720471054e-14 1.55972537803652
2  196 50 0 -3.81916720471054e-14 1.55972537803652
0

0101000
+129 0 -104 0 *
Wi

0101100
-97 0 +96 0 -218 0 +103 0 *
Fa
0  1e-07 29 0

0101000
+95 0 *
Ve
1e-07
59.1 44.8 0.37
0 0

0101101
*
Ed
 1e-07 1 1 0
1  99 0 -0 1.5707963267949
2  197 30 0 -0 1.5707963267949
2  198 53 0 -0 1.5707963267949
0

0101000
+102 0 -93 0 *
Ed
 1e-07 1 1 0
1  100 0 0 2.36173664916307
2  199 30 0 0 2.36173664916307
2  200 32 0 0 2.36173664916307
4 G1 30 0 32 0
0

0101000
+93 0 -217 0 *
Wi

0101100
-100 0 +92 0 -216 0 +91 0 *
Fa
0  1e-07 30 0

0101000
+90 0 *
Wi

0101100
-97 0 +128 0 -214 0 +121 0 *
Fa
0  1e-07 31 0

0101000
+88 0 *
Ve
1e-07
59.1 63.2 0.369999999999998
0 0

0101101
*
Ed
 1e-07 1 1 0
1  101 0 -0 18.4
2  201 32 0 -0 18.4
2  202 54 0 -0 18.4
0

0101000
+93 0 -86 0 *
Ed
 1e-07 1 1 0
1  102 0 -1.18086832458153 1.18086832458154
2  203 32 0 -1.18086832458153 1.18086832458154
2  204 33 0 -1.18086832458153 1.18086832458154
4 G1 32 0 33 0
0

0101000
+86 0 -213 0 *
Wi

0101100
-91 0 +85 0 -212 0 +84 0 *
Fa
0  1e-07 32 0

0101000
+83 0 *
Ve
1e-07
56.4 65.9 0.37
0 0

0101101
*
Ed
 1e-07 1 1 0
1  103 0 0 1.5707963267949
2  205 33 0 0 1.5707963267949
2  206 55 0 0 1.5707963267949
0

0101000
+86 0 -81 0 *
Ed
 1e-07 1 1 0
1  104 0 0 2.36173664916307
2  207 33 0 0 2.36173664916307
2  208 35 0 0 2.36173664916307
4 G1 33 0 35 0
0

0101000
+81 0 -209 0 *
Wi

0101100
-84 0 +80 0 -208 0 +79 0 *
Fa
0  1e-07 33 0

0101000
+78 0 *
Ed
 1e-07 1 1 0
1  105 0 -1.83020035333112 1.06232449530892
2  209 34 0 -1.83020035333112 1.06232449530892
2  210 36 0 -1.83020035333112 1.06232449530892
0

0101000
+174 0 -207 0 *
Wi

0101100
-76 0 +164 0 -206 0 +122 0 *
Fa
0  1e-07 34 0

0101000
+75 0 *
Ed
 1e-07 1 1 0
1  106 0 7.105427357601e-15 55
2  211 35 0 7.105427357601e-15 55
2  212 51 0 7.105427357601e-15 55
0

0101000
+81 0 -115 0 *
Ed
 1e-07 1 1 0
1  107 0 -1.18086832458155 1.18086832458153
2  213 35 0 -1.18086832458155 1.18086832458153
2  214 37 0 -1.18086832458155 1.18086832458153
4 G1 35 0 37 0
0

0101000
+115 0 -205 0 *
Wi

0101100
-79 0 +73 0 -204 0 +72 0 *
Fa
0  1e-07 35 0

0101000
+71 0 *
Wi

0101100
-195 0 +173 0 -202 0 +76 0 *
Fa
0  1e-07 36 0

0101000
+69 0 *
Wi

0101100
-72 0 +114 0 -200 0 +118 0 *
Fa
0  1e-07 37 0

0101000
+67 0 *
Ed
 1e-07 1 1 0
1  108 0 0 2.36173664916307
2  215 38 0 0 2.36173664916307
2  216 39 0 0 2.36173664916307
4 G1 38 0 39 0
0

0101000
+192 0 -137 0 *
Wi

0101100
-107 0 +190 0 -136 0 +65 0 *
Fa
0  1e-07 38 0

0101000
+64 0 *
Ed
 1e-07 1 1 0
1  109 0 -1.18086832458153 1.18086832458154
2  217 39 0 -1.18086832458153 1.18086832458154
2  218 40 0 -1.18086832458153 1.18086832458154
4 G1 39 0 40 0
0

0101000
+187 0 -139 0 *
Wi

0101100
-65 0 +185 0 -135 0 +62 0 *
Fa
0  1e-07 39 0

0101000
+61 0 *
Ed
 1e-07 1 1 0
1  110 0 0 2.36173664916307
2  219 40 0 0 2.36173664916307
2  220 41 0 0 2.36173664916307
4 G1 40 0 41 0
0

0101000
+182 0 -143 0 *
Wi

0101100
-62 0 +181 0 -138 0 +59 0 *
Fa
0  1e-07 40 0

0101000
+58 0 *
Wi

0101100
-59 0 +177 0 -142 0 +168 0 *
Fa
0  1e-07 41 0

0101000
+56 0 *
Ve
2.88050550500618e-06
82.7207843891258 40.8 35.23
0 0

0101101
*
Ed
 1.92409674807516e-06 1 1 0
1  111 0 0 1
2  221 42 0 0 1
2  222 43 0 0 1
0

0101000
+54 0 -161 0 *
Ve
1.00000010658141e-07
63.1 40.8 35.23
0 0

0101101
*
Ed
 1e-07 1 1 0
1  112 0 1.27897692436818e-13 19.6207843891259
2  223 42 0 1.27897692436818e-13 19.6207843891259
2  224 52 0 1.27897692436818e-13 19.6207843891259
0

0101000
+54 0 -52 0 *
Ed
 1e-07 1 1 0
1  113 0 -1.18086832458153 1.18086832458154
2  225 42 0 -1.18086832458153 1.18086832458154
2  226 44 0 -1.18086832458153 1.18086832458154
4 G1 42 0 44 0
0

0101000
+52 0 -160 0 *
Wi

0101100
-53 0 +51 0 -159 0 +50 0 *
Fa
0  1e-07 42 0

0101000
+49 0 *
Ed
 4.42691641709981e-07 1 1 0
1  114 0 -1.85472369909914 -1.45051714915751
2  227 43 0 -1.85472369909914 -1.45051714915751
2  228 45 0 -1.85472369909914 -1.45051714915751
0

0101000
+127 0 -158 0 *
Ed
 1e-07 1 1 0
1  115 0 -3.81916720471054e-14 1.55972537803652
2  229 43 0 -3.81916720471054e-14 1.55972537803652
2  230 50 0 -3.81916720471054e-14 1.55972537803652
0

0101000
+127 0 -54 0 *
Wi

0101100
-47 0 +46 0 -157 0 +53 0 *
Fa
0  1e-07 43 0

0101000
+45 0 *
Ve
1e-07
59.1 44.8 35.23
0 0

0101101
*
Ed
 1e-07 1 1 0
1  116 0 -0 1.5707963267949
2  231 44 0 -0 1.5707963267949
2  232 53 0 -0 1.5707963267949
0

0101000
+52 0 -43 0 *
Ed
 1e-07 1 1 0
1  117 0 0 2.36173664916307
2  233 44 0 0 2.36173664916307
2  234 46 0 0 2.36173664916307
4 G1 44 0 46 0
0

0101000
+43 0 -156 0 *
Wi

0101100
-50 0 +42 0 -155 0 +41 0 *
Fa
0  1e-07 44 0

0101000
+40 0 *
Wi

0101100
-47 0 +126 0 -153 0 +132 0 *
Fa
0  1e-07 45 0

0101000
+38 0 *
Ve
1e-07
59.1 63.2 35.23
0 0

0101101
*
Ed
 1e-07 1 1 0
1  118 0 -0 18.4
2  235 46 0 -0 18.4
2  236 54 0 -0 18.4
0

0101000
+43 0 -36 0 *
Ed
 1e-07 1 1 0
1  119 0 -1.18086832458154 1.18086832458154
2  237 46 0 -1.18086832458154 1.18086832458154
2  238 47 0 -1.18086832458154 1.18086832458154
4 G1 46 0 47 0
0

0101000
+36 0 -152 0 *
Wi

0101100
-41 0 +35 0 -151 0 +34 0 *
Fa
0  1e-07 46 0

0101000
+33 0 *
Ve
1e-07
56.4 65.9 35.23
0 0

0101101
*
Ed
 1e-07 1 1 0
1  120 0 0 1.5707963267949
2  239 47 0 0 1.5707963267949
2  240 55 0 0 1.5707963267949
0

0101000
+36 0 -31 0 *
Ed
 1e-07 1 1 0
1  121 0 0 2.36173664916307
2  241 47 0 0 2.36173664916307
2  242 48 0 0 2.36173664916307
4 G1 47 0 48 0
0

0101000
+31 0 -149 0 *
Wi

0101100
-34 0 +30 0 -148 0 +29 0 *
Fa
0  1e-07 47 0

0101000
+28 0 *
Ed
 1e-07 1 1 0
1  122 0 -0 55
2  243 48 0 -0 55
2  244 51 0 -0 55
0

0101000
+31 0 -113 0 *
Ed
 1e-07 1 1 0
1  123 0 -1.18086832458154 1.18086832458153
2  245 48 0 -1.18086832458154 1.18086832458153
2  246 49 0 -1.18086832458154 1.18086832458153
4 G1 48 0 49 0
0

0101000
+113 0 -147 0 *
Wi

0101100
-29 0 +26 0 -146 0 +25 0 *
Fa
0  1e-07 48 0

0101000
+24 0 *
Wi

0101100
-25 0 +112 0 -144 0 +108 0 *
Fa
0  1e-07 49 0

0101000
+22 0 *
Ed
 1.00000003552714e-07 1 1 0
1  124 0 1.67 36.53
2  247 50 0 1.67 36.53
2  248 52 0 1.67 36.53
0

0101000
+104 0 -54 0 *
Wi

0101100
+20 0 +96 0 -46 0 -125 0 *
Fa
0  1e-07 50 0

0101000
+19 0 *
Ed
 1e-07 1 1 0
1  125 0 1.67 36.53
2  249 51 0 1.67 36.53
2  250 55 0 1.67 36.53
0

0101000
+81 0 -31 0 *
Wi

0101100
-17 0 +73 0 -26 0 +111 0 *
Fa
0  1e-07 51 0

0101000
+16 0 *
Ed
 1.00000010658141e-07 1 1 0
1  126 0 1.67 36.53
2  251 52 0 1.67 36.53
2  252 53 0 1.67 36.53
0

0101000
+102 0 -52 0 *
Wi

0101100
-20 0 +101 0 -51 0 +14 0 *
Fa
0  1.00000003552714e-07 52 0

0101000
+13 0 *
Ed
 1e-07 1 1 0
1  127 0 1.67 36.53
2  253 53 0 1.67 36.53
2  254 54 0 1.67 36.53
0

0101000
+93 0 -43 0 *
Wi

0101100
-11 0 -92 0 +42 0 +14 0 *
Fa
0  1e-07 53 0

0101000
+10 0 *
Ed
 1e-07 1 1 0
1  128 0 1.67 36.53
2  255 54 0 1.67 36.53
2  256 55 0 1.67 36.53
0

0101000
+86 0 -36 0 *
Wi

0101100
-11 0 +85 0 -35 0 +8 0 *
Fa
0  1e-07 54 0

0101000
+7 0 *
Wi

0101100
+17 0 +80 0 -30 0 -8 0 *
Fa
0  1e-07 55 0

0101000
+5 0 *
Sh

0101100
+299 0 +292 0 -285 0 +272 0 -265 0 +260 0 +253 0 +246 0 +237 0 -232 0 
+223 0 +196 0 -193 0 +188 0 -183 0 -178 0 -175 0 -170 0 +165 0 -162 0 
+133 0 -130 0 +123 0 +119 0 -116 0 +109 0 +105 0 -98 0 -94 0 -89 0 
+87 0 -82 0 -77 0 -74 0 -70 0 -68 0 -66 0 +63 0 +60 0 +57 0 
+55 0 +48 0 +44 0 +39 0 -37 0 +32 0 +27 0 +23 0 +21 0 +18 0 
+15 0 +12 0 -9 0 +6 0 +4 0 *
So

0100000
+3 0 *
Co

1100000
+2 0 *

+1 0 