DBRep_DrawableShape

CASCADE Topology V1, (c) Matra-Datavision
Locations 3
1
              1               0               0               0 
              0               1               0               0 
              0               0               1            23.4 
1
              1               0               0               0 
              0               1               0               0 
              0               0               1            32.4 
2  2 -1 0
Curve2ds 192
1 0 0 0 -1 
1 0.70710678118654757 0 0 -1 
1 -4.4408920985006262e-16 -0.49999999999999956 1 0 
1 0 -0.35355339059327368 1 0 
1 -4.4408920985006262e-16 -22.899999999999999 1 0 
1 0 -0.35355339059327306 1 0 
1 50.899999999999999 0 0 -1 
1 0 0 0 -1 
1 0 0 0 -1 
1 23 0 0 -1 
1 1.1102230246251565e-16 -0.49999999999999956 1 0 
1 1.6653345369377348e-16 -0.35355339059327362 1 0 
1 1.1102230246251565e-16 -22.899999999999999 1 0 
1 1.6653345369377348e-16 -0.35355339059327306 1 0 
1 0.1233055339830873 0.067438035847454642 0.28108463771482078 0.95968298226066717 
1 0.58380124720345261 0.067438035847454586 -0.28108463771481967 0.95968298226066751 
1 0 0.35355339059327368 1 0 
1 -25.449999999999989 -11.499999999999996 1 0 
1 48.793860018001205 6.8372583002031391 -0.28108463771482434 0.95968298226066617 
1 2.1061399819987456 6.8372583002031533 0.28108463771481668 0.95968298226066839 
1 0.12330553398308819 0.06743803584745385 0.28108463771482078 0.95968298226066717 
1 0.58380124720345372 0.067438035847454392 -0.28108463771481967 0.95968298226066751 
1 0 0.35355339059327662 1 0 
1 -25.449999999999989 -11.499999999999996 1 0 
1 48.793860018001197 6.8372583002031364 -0.28108463771482434 0.95968298226066617 
1 2.1061399819987399 6.8372583002031551 0.28108463771481668 0.95968298226066839 
1 0 -0.49999999999999956 1 0 
1 0 -0.35355339059327662 1 0 
1 0 -22.899999999999999 1 0 
1 0 -0.35355339059327484 1 0 
1 0.70710678118654757 0 0 -1 
1 0 0 0 -1 
1 0 -0.49999999999999956 1 0 
1 0 -0.35355339059327368 1 0 
1 0 -22.899999999999999 1 0 
1 0 -0.35355339059327662 1 0 
1 0 0 0 -1 
1 38.399999999999999 0 0 -1 
1 1.0039703808468987 3.0742158999150941 0.28108463771481984 0.95968298226066751 
1 21.996029619153102 3.0742158999150906 -0.28108463771482067 0.95968298226066717 
1 -1.1102230246251565e-16 0.35355339059327395 1 0 
1 -25.596446609406716 -11.146446609406725 0.70710678118654757 -0.70710678118654757 
1 1.0039703808468983 3.0742158999150933 0.28108463771481984 0.95968298226066751 
1 21.996029619153102 3.0742158999150893 -0.28108463771482067 0.95968298226066717 
1 -1.1102230246251565e-16 0.35355339059327662 1 0 
1 -25.596446609406716 -11.146446609406725 0.70710678118654757 -0.70710678118654757 
1 -25.449999999999985 11.500000000000005 0 -1 
1 0 0.35355339059327368 1 0 
1 3.5527136788005009e-15 0.35355339059327129 1 0 
1 -26.446446609406742 -18.846446609406723 0.70710678118654757 -0.70710678118654757 
1 0 0.35355339059327129 1 0 
1 -26.300000000000011 -19.199999999999996 1 0 
1 25.450000000000014 -11.499999999999996 0 1 
1 0 0.35355339059327662 1 0 
1 25.096446609406737 -11.646446609406722 0.70710678118654757 0.70710678118654757 
1 0 0.35355339059327306 1 0 
1 0.58380124720345861 0.067438035847454156 -0.28108463771481712 0.95968298226066817 
1 0.12330553398309441 0.067438035847453698 0.28108463771482389 0.95968298226066617 
1 -25.449999999999985 11.500000000000005 0 -1 
1 0 0.35355339059327306 1 0 
8 -38.175000000000004 12.724999999999994
1 -12.724999999999993 9.4000000000000039 -1 0 
8 -38.175000000000004 12.724999999999994
1 12.724999999999994 -23.399999999999999 -1 0 
1 25.450000000000014 -11.499999999999996 0 1 
1 0 0.35355339059327306 1 0 
1 25.096446609406737 -11.646446609406722 0.70710678118654757 0.70710678118654757 
1 0 0.35355339059327484 1 0 
1 0.58380124720345861 0.067438035847454461 -0.28108463771481712 0.95968298226066817 
1 0.12330553398309441 0.067438035847454017 0.28108463771482389 0.95968298226066617 
1 -4.4408920985006262e-16 -0.49999999999999956 1 0 
1 0 -0.35355339059326951 1 0 
8 -22.899999999999999 -0.50000000000000044
1 20.899999999999999 0 0 1 
8 -22.899999999999999 -0.50000000000000044
1 51.399999999999999 0 0 1 
1 -4.4408920985006262e-16 -22.899999999999999 1 0 
1 0 -0.35355339059326951 1 0 
1 1.61233639725329 5.1513074040166753 0.28108463771482073 0.95968298226066717 
1 36.787663602746711 5.1513074040166753 -0.28108463771481973 0.95968298226066751 
8 -7.794228634059948 -6.9282032302755088
1 -2.3999999999999986 -6.0104076400856536 -0.57735026918962573 -0.81649658092772615 
8 -7.794228634059948 -6.9282032302755088
1 -5.6568542494923797 -18.899999999999999 -0.81649658092772592 0.57735026918962595 
1 0 0 0 -1 
1 0.70710678118654757 0 0 -1 
1 -25.096446609406716 11.646446609406736 -0.70710678118654757 -0.70710678118654757 
1 0 0.35355339059327662 1 0 
1 25.450000000000014 11.500000000000005 -1 0 
1 0 0.35355339059327306 1 0 
1 25.596446609406744 11.146446609406736 -0.70710678118654757 0.70710678118654757 
1 0 0.35355339059327662 1 0 
8 -9.0932667397366096 -8.2272413359521632
1 26.149999999999991 7.0710678118654737 0.57735026918962595 0.81649658092772603 
8 -9.0932667397366096 -8.2272413359521632
1 46.149999999999999 7.0710678118654684 -0.57735026918962573 0.81649658092772615 
8 -10.253048327204942 -9.5459415460183905
1 20.899999999999999 9.8994949366116636 7.3345700733559805e-35 1 
8 -10.253048327204942 -9.5459415460183905
1 44.149999999999999 -30.149999999999995 -0.70710678118654757 -0.70710678118654757 
1 -4.4408920985006262e-16 -0.50000000000000044 1 0 
1 0 -0.35355339059327662 1 0 
1 52.600000000000001 0 0 -1 
1 0 0 0 -1 
1 -4.4408920985006262e-16 -31.899999999999999 1 0 
1 0 -0.35355339059327662 1 0 
1 0 0 0 -1 
1 0.70710678118654757 0 0 -1 
1 0.12330553398308552 0.067438035847454961 0.2810846377148199 0.95968298226066751 
1 0.58380124720345328 0.067438035847456154 -0.28108463771482045 0.95968298226066728 
1 0 -31.899999999999999 1 0 
1 0 -0.35355339059327662 1 0 
1 0 -0.50000000000000044 1 0 
1 0 -0.35355339059327362 1 0 
1 0 -31.899999999999999 1 0 
1 0 -0.35355339059327662 1 0 
1 0 0 0 -1 
1 0.70710678118654757 0 0 -1 
1 -26.300000000000011 19.200000000000003 0 -1 
1 0 0.35355339059327351 1 0 
1 -25.946446609406745 19.346446609406733 -0.70710678118654757 -0.70710678118654757 
1 0 0.35355339059327306 1 0 
1 26.29999999999999 19.200000000000003 -1 0 
1 0 0.35355339059327662 1 0 
1 26.446446609406713 18.846446609406726 -0.70710678118654757 0.70710678118654757 
1 8.8817841970012523e-16 0.35355339059326951 1 0 
1 26.29999999999999 -19.199999999999996 0 1 
1 0 0.35355339059327662 1 0 
1 25.946446609406713 -19.346446609406723 0.70710678118654757 0.70710678118654757 
1 0 0.35355339059327306 1 0 
1 50.426702730475817 7.066547622084447 -0.28108463771482289 0.95968298226066651 
1 2.173297269524102 7.0665476220844701 0.28108463771481812 0.95968298226066795 
1 0 -0.50000000000000044 1 0 
1 7.1054273576010019e-15 -0.35355339059327662 1 0 
1 0 -31.899999999999999 1 0 
1 0 -0.35355339059327395 1 0 
1 0.70710678118654757 0 0 -1 
1 0 0 0 -1 
1 0.12330553398309174 0.067438035847454017 0.28108463771481923 0.95968298226066773 
1 0.58380124720345761 0.067438035847453753 -0.28108463771482112 0.95968298226066717 
1 0 0.35355339059326951 1 0 
1 -26.300000000000011 -19.199999999999996 1 0 
1 50.426702730475824 7.0665476220844576 -0.28108463771482306 0.95968298226066651 
1 2.1732972695241113 7.0665476220844754 0.28108463771481779 0.95968298226066806 
1 0.12330553398307842 0.06743803584745324 0.2810846377148245 0.95968298226066617 
1 0.58380124720344539 0.067438035847453545 -0.28108463771481662 0.95968298226066828 
1 1.6123363972532943 5.1513074040166744 0.28108463771482078 0.95968298226066706 
1 36.787663602746719 5.1513074040166771 -0.28108463771481956 0.95968298226066762 
1 0 0.35355339059326951 1 0 
1 -26.446446609406742 -18.846446609406723 0.70710678118654757 -0.70710678118654757 
1 0.12330553398307842 0.067438035847453698 0.28108463771482439 0.95968298226066617 
1 0.58380124720344539 0.067438035847453962 -0.28108463771481662 0.95968298226066839 
1 -26.300000000000011 19.200000000000003 0 -1 
1 0 0.35355339059327306 1 0 
1 0 0 0 -1 
1 52.600000000000001 0 0 -1 
1 7.1054273576010019e-15 -0.50000000000000044 1 0 
1 0 -0.35355339059327662 1 0 
1 7.1054273576010019e-15 -31.899999999999999 1 0 
1 0 -0.35355339059327484 1 0 
1 2.1732972695241415 7.0665476220844967 0.28108463771481706 0.95968298226066828 
1 50.426702730475846 7.0665476220844861 -0.28108463771482411 0.95968298226066617 
1 0.58380124720346682 0.067438035847451241 -0.28108463771481451 0.95968298226066906 
1 0.12330553398309974 0.067438035847447106 0.28108463771482717 0.95968298226066528 
1 0 -0.35355339059327662 1 0 
1 0 -0.50000000000000044 1 0 
1 36.787663602746633 5.1513074040168041 -0.28108463771482745 0.95968298226066517 
1 1.6123363972532967 5.1513074040168227 0.28108463771481418 0.95968298226066906 
1 0 -0.35355339059327662 1 0 
1 0 -0.50000000000000044 1 0 
1 0.58380124720345661 0.067438035847452796 -0.28108463771481812 0.95968298226066795 
1 0.12330553398309263 0.067438035847453698 0.28108463771482289 0.95968298226066651 
1 0 -0.50000000000000044 1 0 
1 0 -0.35355339059326951 1 0 
1 25.946446609406713 -19.346446609406723 0.70710678118654757 0.70710678118654757 
1 0 0.35355339059327306 1 0 
1 0.58380124720345672 0.06743803584745317 -0.2810846377148179 0.95968298226066806 
1 0.12330553398309263 0.067438035847454017 0.28108463771482306 0.95968298226066651 
1 0 -31.899999999999999 1 0 
1 0 -0.35355339059326774 1 0 
1 38.399999999999999 0 0 -1 
1 0 0 0 -1 
1 26.29999999999999 -19.199999999999996 0 1 
1 0 0.35355339059327662 1 0 
1 -25.946446609406745 19.346446609406733 -0.70710678118654757 -0.70710678118654757 
1 0 0.35355339059327839 1 0 
1 26.446446609406713 18.846446609406726 -0.70710678118654757 0.70710678118654757 
1 0 0.35355339059327662 1 0 
1 26.29999999999999 19.200000000000003 -1 0 
1 0 0.35355339059327662 1 0 
1 2.1732972695241082 7.0665476220845012 0.28108463771481712 0.95968298226066828 
1 50.426702730475817 7.0665476220844727 -0.28108463771482406 0.95968298226066628 
1 0.70710678118654757 0 0 -1 
1 0 -0 0 -1 
1 0 -0.35355339059327306 1 0 
1 0 -31.899999999999999 1 0 
1 -8.8817841970012523e-16 -0.35355339059327662 1 0 
1 0 -31.899999999999999 1 0 
1 36.787663602746626 5.1513074040168032 -0.28108463771482761 0.95968298226066517 
1 1.6123363972532918 5.1513074040168254 0.28108463771481401 0.95968298226066917 
1 0.58380124720345672 0.067438035847453129 -0.2810846377148144 0.95968298226066906 
1 0.12330553398309263 0.067438035847454017 0.28108463771482722 0.9596829822606654 
Curves 96
1 2.1000000000000001 1.6000000000000001 1.6000000000000001 0 0 1 
1 2.0999999999999996 1.5999999999999999 2.0999999999999996 1 0 0 
1 2.0999999999999996 1.5999999999999999 24.5 1 0 0 
1 53 1.6000000000000001 1.6000000000000001 0 0 1 
1 1.6000000000000001 2.1000000000000001 1.6000000000000001 0 0 1 
1 1.5999999999999974 2.0999999999999974 2.0999999999999996 0.70710678118654746 -0.70710678118654746 0 
1 1.5999999999999974 2.0999999999999974 24.5 0.70710678118654746 -0.70710678118654746 0 
8 -0.43867759898068037 0.29813528012327001
1 2.2233055339830869 1.8976858924576363 1.802314107542363 0.28108463771482078 0.67859834454584678 -0.67859834454584711 
1 2.0999999999999996 2.0999999999999996 1.5999999999999996 1 0 0 
8 -7.4929032021152029 -6.756090323011251
1 50.893860018001206 6.6846717087976453 -2.9846717087976482 -0.28108463771482434 0.67859834454584611 -0.67859834454584644 
8 -0.43867759898067948 0.29813528012327439
1 2.2233055339830878 1.8976858924576356 24.797685892457636 0.28108463771482078 0.67859834454584678 0.67859834454584711 
1 2.0999999999999996 2.0999999999999996 25 1 0 0 
8 -7.492903202115202 -6.7560903230112492
1 50.893860018001199 6.6846717087976435 29.584671708797647 -0.28108463771482434 0.67859834454584611 0.67859834454584644 
1 53 1.6000000000000001 2.0999999999999996 0.70710678118654746 0.70710678118654746 0 
1 53 1.6000000000000001 24.5 0.70710678118654746 0.70710678118654746 0 
1 53.5 2.1000000000000001 1.6000000000000001 0 0 1 
1 1.6000000000000008 25.100000000000001 2.0999999999999996 0 -1 0 
1 1.6000000000000008 25.100000000000001 24.5 0 -1 0 
1 1.6000000000000001 23.5 1.6000000000000001 0 0 1 
8 -3.571772505993362 -2.8349596268894111
1 4.0237989096614655 3.1039703808469001 -0.32379890966146618 0.67859834454584689 0.28108463771482067 -0.67859834454584711 
1 1.9535533905932712 2.4535533905932714 1.5999999999999996 0.70710678118654746 -0.70710678118654746 0 
8 -3.5717725059933612 -2.8349596268894097
1 4.0237989096614655 3.1039703808469006 26.923798909661464 0.67859834454584689 0.28108463771482067 0.67859834454584711 
1 1.9535533905932712 2.4535533905932714 25 0.70710678118654746 -0.70710678118654746 0 
1 2.1000000000000005 25.100000000000001 1.5999999999999996 0 -1 0 
1 1.9535533905932725 23.853553390593273 1.6000000000000008 0.70710678118654746 -0.70710678118654746 0 
1 2.0999999999999996 23.5 1.6000000000000008 1 0 0 
1 53 2.0999999999999996 1.5999999999999996 0 1 0 
1 52.646446609406723 1.9535533905932738 1.5999999999999996 0.70710678118654746 0.70710678118654746 0 
8 -0.43867759898068004 0.2981352801232714
1 53.202314107542364 2.2233055339830941 1.8023141075423639 -0.67859834454584633 0.28108463771482395 -0.67859834454584633 
1 2.1000000000000005 25.100000000000001 25 0 -1 0 
1 14.824999999999994 23 25 -1 0 0 
1 53 2.0999999999999996 25 0 1 0 
1 52.646446609406723 1.9535533905932738 25 0.70710678118654746 0.70710678118654746 0 
8 -0.43867759898068071 0.29813528012327101
1 53.202314107542364 2.2233055339830941 24.797685892457636 -0.67859834454584633 0.28108463771482395 0.67859834454584633 
1 53.5 2.0999999999999996 2.0999999999999996 0 1 0 
1 53.5 23 1.6000000000000001 0 0 -1 
1 53.5 2.0999999999999996 24.5 0 1 0 
8 -5.736124216397462 -4.9993113372935118
1 5.4925243973566618 25.112336397253287 -1.7925243973566607 0.67859834454584711 0.28108463771481973 -0.67859834454584711 
1 -2.399999999999999 27.5 20.5 -0.57735026918962562 0.57735026918962562 -0.57735026918962595 
1 1.6000000000000001 25.100000000000001 1.6000000000000001 0 0 1 
1 2.4535533905932714 25.246446609406732 1.5999999999999996 -0.70710678118654746 -0.70710678118654746 0 
1 53 25.100000000000001 1.5999999999999996 -1 0 0 
1 53.14644660940673 24.746446609406732 1.5999999999999996 -0.70710678118654746 0.70710678118654746 0 
1 48.25 28.249999999999993 -3.1499999999999977 -0.57735026918962573 0.57735026918962595 -0.57735026918962573 
1 46.25 22.999999999999996 31.749999999999996 -0.70710678118654757 0 0.70710678118654757 
1 2.0999999999999996 23 2.1000000000000005 1 0 0 
1 54.700000000000003 23 1.6000000000000001 0 0 1 
1 2.0999999999999996 23 33.5 1 0 0 
1 2.1000000000000001 23 1.6000000000000001 0 0 1 
8 -0.43867759898068032 0.29813528012327073
1 1.8976858924576372 24.976694466016916 1.8023141075423625 0.678598344545847 -0.28108463771481984 -0.67859834454584733 
1 1.5999999999999988 23.5 33.5 0.70710678118654746 -0.70710678118654746 0 
1 1.6000000000000008 61.899999999999999 2.1000000000000005 0 -1 0 
1 1.6000000000000008 61.899999999999999 33.5 0 -1 0 
1 1.6000000000000001 61.899999999999999 1.6000000000000001 0 0 1 
1 2.1000000000000005 61.899999999999999 1.6000000000000008 0 -1 0 
1 2.4535533905932665 62.046446609406729 1.6000000000000008 -0.70710678118654746 -0.70710678118654746 0 
1 54.700000000000003 61.899999999999999 1.6000000000000008 -1 0 0 
1 54.846446609406726 61.546446609406722 1.6000000000000008 -0.70710678118654746 0.70710678118654746 0 
1 54.700000000000003 23.5 1.6000000000000008 0 1 0 
1 54.346446609406726 23.353553390593273 1.6000000000000008 0.70710678118654746 0.70710678118654746 0 
8 -7.7318251441727694 -6.9950122650688149
1 52.526702730475819 28.246803743153585 -3.1468037431535842 -0.28108463771482289 0.67859834454584667 -0.67859834454584633 
1 54.700000000000003 23 2.1000000000000005 0.70710678118654746 0.70710678118654746 0 
1 54.700000000000003 23 33.5 0.70710678118654746 0.70710678118654746 0 
1 55.200000000000003 23.5 1.6000000000000001 0 0 1 
8 -0.43867759898068187 0.29813528012326812
1 2.2233055339830914 23.297685892457636 33.797685892457636 0.28108463771481923 0.67859834454584733 0.67859834454584733 
1 2.0999999999999996 23.5 34 1 0 0 
8 -7.7318251441727739 -6.9950122650688238
1 52.526702730475826 28.246803743153592 38.746803743153592 -0.28108463771482306 0.67859834454584644 0.67859834454584644 
8 -0.43867759898068193 0.29813528012327023
1 1.8976858924576363 61.77669446601692 1.802314107542365 0.67859834454584622 -0.2810846377148245 -0.67859834454584622 
8 -5.7361242163974637 -4.9993113372935145
1 5.49252439735666 25.11233639725328 37.392524397356667 0.67859834454584711 0.28108463771481956 0.67859834454584744 
1 1.9535533905932725 23.853553390593273 34 0.70710678118654746 -0.70710678118654746 0 
8 -0.43867759898068109 0.29813528012327078
1 1.8976858924576363 61.77669446601692 33.797685892457636 0.678598344545846 -0.28108463771482434 0.67859834454584633 
1 2.1000000000000005 61.899999999999999 34 0 -1 0 
1 2.1000000000000001 62.399999999999999 1.6000000000000001 0 0 1 
1 2.0999999999999925 62.400000000000006 2.1000000000000005 -0.70710678118654746 -0.70710678118654746 0 
1 2.0999999999999925 62.400000000000006 33.5 -0.70710678118654746 -0.70710678118654746 0 
8 -7.7318251441728005 -6.9950122650688487
1 4.2732972695241553 57.153196256846385 -3.1468037431536109 0.28108463771482411 -0.67859834454584633 -0.67859834454584611 
8 -0.4386775989806766 0.29813528012327578
1 54.576694466016903 62.102314107542369 1.802314107542367 -0.28108463771482717 -0.67859834454584578 -0.67859834454584544 
1 54.700000000000003 62.399999999999999 2.1000000000000005 -1 0 0 
8 -5.7361242163976067 -4.9993113372936557
1 51.307475602643251 60.287663602746633 -1.7925243973567531 -0.67859834454584567 -0.28108463771482745 -0.67859834454584533 
1 55.200000000000003 61.899999999999999 2.1000000000000005 -0.70710678118654746 0.70710678118654746 0 
8 -0.43867759898068009 0.29813528012327251
1 54.902314107542367 23.623305533983093 1.8023141075423648 -0.67859834454584667 0.28108463771482289 -0.67859834454584633 
1 55.200000000000003 23.5 2.1000000000000005 0 1 0 
1 54.346446609406726 23.353553390593273 34 0.70710678118654746 0.70710678118654746 0 
8 -0.43867759898067721 0.2981352801232719
1 54.902314107542367 23.623305533983093 33.797685892457636 -0.67859834454584644 0.28108463771482306 0.67859834454584644 
1 55.200000000000003 23.5 33.5 0 1 0 
1 55.200000000000003 61.899999999999999 1.6000000000000001 0 0 1 
1 54.700000000000003 23.5 34 0 1 0 
1 2.4535533905932665 62.046446609406729 34 -0.70710678118654746 -0.70710678118654746 0 
1 54.846446609406726 61.546446609406722 34 -0.70710678118654746 0.70710678118654746 0 
1 54.700000000000003 61.899999999999999 34 -1 0 0 
8 -7.7318251441727961 -6.9950122650688424
1 4.2732972695241882 57.1531962568464 38.746803743153606 0.281084637714824 -0.67859834454584622 0.67859834454584622 
1 54.700000000000003 62.399999999999999 1.6000000000000001 0 0 1 
1 54.700000000000003 62.399999999999999 33.5 -1 0 0 
1 55.200000000000003 61.899999999999999 33.5 -0.70710678118654746 0.70710678118654746 0 
8 -5.7361242163976041 -4.9993113372936557
1 51.307475602643251 60.287663602746626 37.392524397356752 -0.67859834454584544 -0.28108463771482756 0.67859834454584544 
8 -0.43867759898068004 0.29813528012327195
1 54.57669446601691 62.102314107542362 33.797685892457636 -0.28108463771482722 -0.67859834454584567 0.67859834454584567 
Polygon3D 0
PolygonOnTriangulations 0
Surfaces 47
1 2.1000000000000001 1.6000000000000001 1.6000000000000001 0 1 0 1 0 0 0 0 -1 
1 1.6000000000000001 2.1000000000000001 1.6000000000000001 0.70710678118654757 0.70710678118654757 -0 0.70710678118654757 -0.70710678118654757 0 0 -0 -1 
1 2.0999999999999996 1.8499999999999996 1.8499999999999996 3.6616013026031653e-18 -0.70710678118654768 -0.70710678118654735 1 2.5891431110721945e-18 2.589143111072193e-18 -1.5307635809453353e-34 0.70710678118654735 -0.70710678118654768 
1 2.0999999999999996 1.8499999999999996 24.75 -3.6616013026031653e-18 0.70710678118654768 -0.70710678118654735 1 2.5891431110721945e-18 -2.589143111072193e-18 -1.5307635809453353e-34 0.70710678118654735 0.70710678118654768 
1 53 1.6000000000000001 1.6000000000000001 -0.70710678118654757 0.70710678118654757 0 0.70710678118654757 0.70710678118654757 0 0 0 -1 
1 1.6000000000000001 25.100000000000001 1.6000000000000001 1 0 -0 0 -1 0 0 -0 -1 
1 1.7767766952966344 2.2767766952966344 1.8499999999999996 -0.5 -0.49999999999999989 -0.70710678118654757 0.70710678118654746 -0.70710678118654757 -5.5511151231257839e-17 0.50000000000000011 0.5 -0.70710678118654746 
1 1.7767766952966344 2.2767766952966344 24.75 0.5 0.49999999999999989 -0.70710678118654757 0.70710678118654746 -0.70710678118654757 5.5511151231257839e-17 0.50000000000000011 0.5 0.70710678118654746 
1 27.549999999999986 13.599999999999996 1.5999999999999996 0 0 1 1 0 -0 -0 1 0 
1 52.823223304703362 1.7767766952966371 1.8499999999999996 0.49999999999999895 -0.49999999999999895 -0.70710678118654902 0.70710678118654757 0.70710678118654757 -1.0538688655686956e-30 -0.50000000000000111 0.50000000000000111 -0.70710678118654613 
1 27.549999999999986 13.599999999999996 1.5999999999999996 0 0 1 1 0 -0 -0 1 0 
1 52.823223304703362 1.7767766952966371 24.75 -0.49999999999999895 0.49999999999999895 -0.70710678118654902 0.70710678118654757 0.70710678118654757 1.0538688655686956e-30 -0.50000000000000111 0.50000000000000111 0.70710678118654613 
1 53.5 2.1000000000000001 1.6000000000000001 -1 0 0 0 1 0 0 0 -1 
1 1.8500000000000005 25.100000000000001 1.8499999999999996 -0.70710678118654768 -5.1915936174418339e-18 -0.70710678118654735 3.6710110520579203e-18 -1 3.6710110520579187e-18 0.70710678118654735 -1.479953415041637e-34 -0.70710678118654768 
1 1.8500000000000005 25.100000000000001 24.75 0.70710678118654768 5.1915936174418339e-18 -0.70710678118654735 3.6710110520579203e-18 -1 -3.6710110520579187e-18 0.70710678118654735 -1.479953415041637e-34 0.70710678118654768 
1 1.6000000000000001 23.5 1.6000000000000001 0.70710678118654757 0.70710678118654757 -0 0.70710678118654757 -0.70710678118654757 0 0 -0 -1 
1 1.6000000000000001 61.899999999999999 1.6000000000000001 1 0 -0 0 -1 0 0 -0 -1 
1 1.7767766952966357 23.676776695296638 1.8500000000000005 -0.50000000000000022 -0.50000000000000011 -0.70710678118654735 0.70710678118654746 -0.70710678118654757 -5.551115123125779e-17 0.49999999999999989 0.49999999999999983 -0.70710678118654768 
1 28.400000000000013 42.699999999999996 1.6000000000000008 0 0 1 1 0 -0 -0 1 0 
1 2.0999999999999996 23.25 1.8500000000000005 -5.1915936174418339e-18 -0.70710678118654735 -0.70710678118654768 1 -3.6710110520579187e-18 -3.6710110520579203e-18 1.479953415041637e-34 0.70710678118654768 -0.70710678118654735 
1 53.25 2.0999999999999996 1.8499999999999996 0.70710678118654746 1.8895138205226177e-18 -0.70710678118654746 -1.3360880356372444e-18 1 1.3360880356372444e-18 -0.70710678118654757 2.908827630390279e-35 -0.70710678118654757 
1 2.1000000000000001 23 1.6000000000000001 0 1 0 1 0 0 0 0 -1 
1 53.25 2.0999999999999996 24.75 -0.70710678118654746 -1.8895138205226177e-18 -0.70710678118654746 -1.3360880356372444e-18 1 -1.3360880356372444e-18 -0.70710678118654757 2.908827630390279e-35 0.70710678118654757 
1 1.8500000000000005 61.899999999999999 1.8500000000000005 -0.70710678118654746 -1.0455828798551125e-18 -0.70710678118654746 7.3933874463810939e-19 -1 7.3933874463810939e-19 0.70710678118654757 2.9157360980644382e-35 -0.70710678118654757 
1 2.1000000000000001 25.600000000000001 1.6000000000000001 0.70710678118654757 -0.70710678118654757 0 -0.70710678118654757 -0.70710678118654757 0 0 -0 -1 
1 2.2767766952966344 25.42322330470337 1.8499999999999996 -0.50000000000000022 0.50000000000000022 -0.70710678118654724 -0.70710678118654746 -0.70710678118654757 -4.9303806576313238e-32 0.49999999999999983 -0.49999999999999978 -0.70710678118654779 
1 53 25.350000000000001 1.8499999999999996 1.8895138205226177e-18 0.70710678118654746 -0.70710678118654746 -1 1.3360880356372444e-18 -1.3360880356372444e-18 -2.908827630390279e-35 -0.70710678118654757 -0.70710678118654757 
1 53.323223304703369 24.92322330470337 1.8499999999999996 0.49999999999999906 0.49999999999999939 -0.70710678118654857 -0.70710678118654757 0.70710678118654735 1.3877787807814523e-16 -0.50000000000000089 -0.50000000000000078 -0.70710678118654646 
1 54.700000000000003 23 1.6000000000000001 -0.70710678118654757 0.70710678118654757 0 0.70710678118654757 0.70710678118654757 0 0 0 -1 
1 2.0999999999999996 23.25 33.75 1.8895138205226177e-18 0.70710678118654746 -0.70710678118654746 1 -1.3360880356372444e-18 1.3360880356372444e-18 2.908827630390279e-35 0.70710678118654757 0.70710678118654757 
1 1.7767766952966357 23.676776695296638 33.75 0.50000000000000033 0.50000000000000033 -0.70710678118654713 0.70710678118654757 -0.70710678118654746 -1.1093356479670479e-31 0.49999999999999967 0.49999999999999978 0.70710678118654802 
1 1.8500000000000005 61.899999999999999 33.75 0.70710678118654768 5.1915936174418339e-18 -0.70710678118654735 3.6710110520579203e-18 -1 -3.6710110520579187e-18 0.70710678118654735 -1.479953415041637e-34 0.70710678118654768 
1 2.1000000000000001 62.399999999999999 1.6000000000000001 0.70710678118654757 -0.70710678118654757 0 -0.70710678118654757 -0.70710678118654757 0 0 -0 -1 
1 2.2767766952966295 62.223223304703367 1.8500000000000005 -0.49999999999999883 0.49999999999999883 -0.70710678118654924 -0.70710678118654757 -0.70710678118654757 2.775557561562749e-17 0.50000000000000122 -0.50000000000000122 -0.70710678118654591 
1 54.700000000000003 62.149999999999999 1.8500000000000005 5.1915936174418339e-18 0.70710678118654735 -0.70710678118654768 -1 3.6710110520579187e-18 -3.6710110520579203e-18 -1.479953415041637e-34 -0.70710678118654768 -0.70710678118654735 
1 55.023223304703365 61.72322330470336 1.8500000000000005 0.49999999999999767 0.49999999999999817 -0.70710678118655057 -0.70710678118654768 0.70710678118654735 2.2204460492503624e-16 -0.50000000000000211 -0.50000000000000211 -0.70710678118654458 
1 54.950000000000003 23.5 1.8500000000000005 0.70710678118654735 -3.6616013026031661e-18 -0.70710678118654768 2.5891431110721938e-18 1 -2.5891431110721949e-18 -0.70710678118654768 6.4729025345973476e-36 -0.70710678118654735 
1 54.523223304703365 23.176776695296638 1.8500000000000005 0.49999999999999917 -0.49999999999999911 -0.70710678118654868 0.70710678118654746 0.70710678118654746 2.7755575615628273e-17 -0.50000000000000089 0.50000000000000089 -0.70710678118654635 
1 54.523223304703365 23.176776695296638 33.75 -0.49999999999999922 0.49999999999999922 -0.70710678118654868 0.70710678118654757 0.70710678118654746 6.0397163055983716e-31 -0.50000000000000078 0.50000000000000089 0.70710678118654646 
1 55.200000000000003 23.5 1.6000000000000001 -1 0 0 0 1 0 0 0 -1 
1 28.400000000000013 42.699999999999996 1.6000000000000008 0 0 1 1 0 -0 -0 1 0 
1 2.2767766952966295 62.223223304703367 33.75 0.49999999999999895 -0.49999999999999889 -0.70710678118654902 -0.70710678118654746 -0.70710678118654757 -2.7755575615627866e-17 0.50000000000000111 -0.500000000000001 0.70710678118654602 
1 54.700000000000003 62.399999999999999 1.6000000000000001 0 -1 0 -1 0 0 -0 -0 -1 
1 55.200000000000003 61.899999999999999 1.6000000000000001 -0.70710678118654757 -0.70710678118654757 0 -0.70710678118654757 0.70710678118654757 0 -0 0 -1 
1 54.950000000000003 23.5 33.75 -0.70710678118654746 -1.8895138205226177e-18 -0.70710678118654746 -1.3360880356372444e-18 1 -1.3360880356372444e-18 -0.70710678118654757 2.908827630390279e-35 0.70710678118654757 
1 55.023223304703365 61.72322330470336 33.75 -0.49999999999999778 -0.49999999999999822 -0.70710678118655035 -0.70710678118654768 0.70710678118654735 -2.2204460492503575e-16 -0.500000000000002 -0.500000000000002 0.70710678118654469 
1 54.700000000000003 62.149999999999999 33.75 -1.8895138205226177e-18 -0.70710678118654746 -0.70710678118654746 -1 1.3360880356372444e-18 1.3360880356372444e-18 -2.908827630390279e-35 -0.70710678118654757 0.70710678118654757 
Triangulations 0

TShapes 254
Ve
1e-07
2.1 1.6 2.1
0 0

0101101
*
Ve
1e-07
2.1 1.6 24.5
0 0

0101101
*
Ed
 1e-07 1 1 0
1  1 0 0.5 22.9
2  1 1 0 0.5 22.9
2  2 2 0 0.5 22.9
0

0101000
+254 0 -253 0 *
Ve
1e-07
53 1.6 2.1
0 0

0101101
*
Ed
 1e-07 1 1 0
1  2 0 4.44089209850063e-16 50.9
2  3 1 0 4.44089209850063e-16 50.9
2  4 3 0 4.44089209850063e-16 50.9
0

0101000
+254 0 -251 0 *
Ve
1e-07
53 1.6 24.5
0 0

0101101
*
Ed
 1e-07 1 1 0
1  3 0 4.44089209850063e-16 50.9
2  5 1 0 4.44089209850063e-16 50.9
2  6 4 0 4.44089209850063e-16 50.9
0

0101000
+253 0 -249 0 *
Ed
 1e-07 1 1 0
1  4 0 0.5 22.9
2  7 1 0 0.5 22.9
2  8 5 0 0.5 22.9
0

0101000
+251 0 -249 0 *
Wi

0101100
+252 0 -250 0 +248 0 -247 0 *
Fa
0  1e-07 1 0

0101000
+246 0 *
Ve
1e-07
1.6 2.1 2.1
0 0

0101101
*
Ve
1e-07
1.6 2.1 24.5
0 0

0101101
*
Ed
 1e-07 1 1 0
1  5 0 0.5 22.9
2  9 2 0 0.5 22.9
2  10 6 0 0.5 22.9
0

0101000
+244 0 -243 0 *
Ed
 1e-07 1 1 0
1  6 0 -1.11022302462516e-16 0.707106781186547
2  11 2 0 -1.11022302462516e-16 0.707106781186547
2  12 7 0 -1.11022302462516e-16 0.707106781186547
0

0101000
+244 0 -254 0 *
Ed
 1e-07 1 1 0
1  7 0 -1.11022302462516e-16 0.707106781186547
2  13 2 0 -1.11022302462516e-16 0.707106781186547
2  14 8 0 -1.11022302462516e-16 0.707106781186547
0

0101000
+243 0 -253 0 *
Wi

0101100
+242 0 -241 0 +240 0 -252 0 *
Fa
0  1e-07 2 0

0101000
+239 0 *
Ve
1e-07
2.30710678118654 2.1 1.6
0 0

0101101
*
Ed
 1e-07 1 1 0
1  8 0 -0.43867759898068 0.29813528012327
2  15 3 0 -0.43867759898068 0.29813528012327
2  16 7 0 -0.43867759898068 0.29813528012327
0

0101000
+254 0 -237 0 *
Ve
1e-07
52.7928932188134 2.1 1.6
0 0

0101101
*
Ed
 1e-07 1 1 0
1  9 0 0.207106781186543 50.6928932188134
2  17 3 0 0.207106781186543 50.6928932188134
2  18 9 0 0.207106781186543 50.6928932188134
0

0101000
+237 0 -235 0 *
Ed
 1e-07 1 1 0
1  10 0 -7.4929032021152 -6.75609032301125
2  19 3 0 -7.4929032021152 -6.75609032301125
2  20 10 0 -7.4929032021152 -6.75609032301125
0

0101000
+251 0 -235 0 *
Wi

0101100
-236 0 +250 0 -234 0 +233 0 *
Fa
0  1e-07 3 0

0101000
+232 0 *
Ve
1e-07
2.30710678118654 2.1 25
0 0

0101101
*
Ed
 1e-07 1 1 0
1  11 0 -0.438677598980679 0.298135280123274
2  21 4 0 -0.438677598980679 0.298135280123274
2  22 8 0 -0.438677598980679 0.298135280123274
0

0101000
+253 0 -230 0 *
Ve
1e-07
52.7928932188134 2.1 25
0 0

0101101
*
Ed
 1e-07 1 1 0
1  12 0 0.207106781186544 50.6928932188134
2  23 4 0 0.207106781186544 50.6928932188134
2  24 11 1 0.207106781186544 50.6928932188134
0

0101000
+230 0 -228 0 *
Ed
 1e-07 1 1 0
1  13 0 -7.4929032021152 -6.75609032301125
2  25 4 0 -7.4929032021152 -6.75609032301125
2  26 12 0 -7.4929032021152 -6.75609032301125
0

0101000
+249 0 -228 0 *
Wi

0101100
-229 0 +248 0 -227 0 +226 0 *
Fa
0  1e-07 4 0

0101000
+225 0 *
Ve
1e-07
53.5 2.1 2.1
0 0

0101101
*
Ed
 1e-07 1 1 0
1  14 0 0 0.707106781186548
2  27 5 0 0 0.707106781186548
2  28 10 0 0 0.707106781186548
0

0101000
+251 0 -223 0 *
Ve
1e-07
53.5 2.1 24.5
0 0

0101101
*
Ed
 1e-07 1 1 0
1  15 0 0 0.707106781186548
2  29 5 0 0 0.707106781186548
2  30 12 0 0 0.707106781186548
0

0101000
+249 0 -221 0 *
Ed
 1e-07 1 1 0
1  16 0 0.5 22.9
2  31 5 0 0.5 22.9
2  32 13 0 0.5 22.9
0

0101000
+223 0 -221 0 *
Wi

0101100
+247 0 -222 0 +220 0 -219 0 *
Fa
0  1e-07 5 0

0101000
+218 0 *
Ve
1.00000003662053e-07
1.6 23.5 2.1
0 0

0101101
*
Ed
 1e-07 1 1 0
1  17 0 1.6 23
2  33 6 0 1.6 23
2  34 14 0 1.6 23
0

0101000
+216 0 -244 0 *
Ve
1.50000000888178e-07
1.6 23.5 24.5
0 0

0101101
*
Ed
 1e-07 1 1 0
1  18 0 1.6 23
2  35 6 0 1.6 23
2  36 15 0 1.6 23
0

0101000
+214 0 -243 0 *
Ed
 1e-07 1 1 0
1  19 0 0.5 22.9
2  37 16 0 0.5 22.9
2  38 17 0 0.5 22.9
0

0101000
+216 0 -214 0 *
Wi

0101100
-215 0 -242 0 +213 0 +212 0 *
Fa
0  1e-07 6 0

0101000
+211 0 *
Ve
1e-07
2.1 2.30710678118654 1.6
0 0

0101101
*
Ed
 1e-07 1 1 0
1  20 0 -3.57177250599336 -2.83495962688941
2  39 7 0 -3.57177250599336 -2.83495962688941
2  40 14 0 -3.57177250599336 -2.83495962688941
0

0101000
+244 0 -209 0 *
Ed
 1e-07 1 1 0
1  21 0 0.207106781186554 0.499999999999997
2  41 7 0 0.207106781186554 0.499999999999997
2  42 9 0 0.207106781186554 0.499999999999997
0

0101000
+209 0 -237 0 *
Wi

0101100
-208 0 +241 0 -207 0 +236 0 *
Fa
0  1e-07 7 0

0101000
+206 0 *
Ve
1e-07
2.1 2.30710678118654 25
0 0

0101101
*
Ed
 1e-07 1 1 0
1  22 0 -3.57177250599336 -2.83495962688941
2  43 8 0 -3.57177250599336 -2.83495962688941
2  44 15 0 -3.57177250599336 -2.83495962688941
0

0101000
+243 0 -204 0 *
Ed
 1e-07 1 1 0
1  23 0 0.207106781186549 0.499999999999996
2  45 8 0 0.207106781186549 0.499999999999996
2  46 11 1 0.207106781186549 0.499999999999996
0

0101000
+204 0 -230 0 *
Wi

0101100
-203 0 +240 0 -202 0 +229 0 *
Fa
0  1e-07 8 0

0101000
+201 0 *
Ve
1.00000003722146e-07
2.1 23.7071067811865 1.6
0 0

0101101
*
Ed
 1e-07 1 1 0
1  24 0 1.39289321881346 22.7928932188135
2  47 9 0 1.39289321881346 22.7928932188135
2  48 14 0 1.39289321881346 22.7928932188135
0

0101000
+199 0 -209 0 *
Ve
1.00000002664535e-07
2.30710678118655 23.5 1.6
0 0

0101101
*
Ed
 1.00000001110223e-07 1 1 0
1  25 0 0.207106781186548 0.499999999999999
2  49 18 0 0.207106781186548 0.499999999999999
2  50 19 0 0.207106781186548 0.499999999999999
0

0101000
+199 0 -197 0 *
Ve
1.50000007108896e-07
53 23.5 1.6
0 0

0101101
*
Ed
 1.00000001110223e-07 1 1 0
1  26 0 0.207106781186547 50.9
2  51 20 0 0.207106781186547 50.9
2  52 19 0 0.207106781186547 50.9
0

0101000
+197 0 -195 0 *
Ve
1e-07
53 2.30710678118655 1.6
0 0

0101101
*
Ed
 1e-07 1 1 0
1  27 0 0.207106781186551 21.4
2  53 9 0 0.207106781186551 21.4
2  54 21 0 0.207106781186551 21.4
0

0101000
+193 0 -195 0 *
Ed
 1e-07 1 1 0
1  28 0 0.207106781186547 0.500000000000004
2  55 9 0 0.207106781186547 0.500000000000004
2  56 10 0 0.207106781186547 0.500000000000004
0

0101000
+235 0 -193 0 *
Wi

0101100
+207 0 +198 0 -196 0 -194 0 +192 0 +191 0 +234 0 *
Fa
0  1e-07 9 0

0101000
+190 0 *
Ed
 1e-07 1 1 0
1  29 0 -0.43867759898068 0.298135280123271
2  57 10 0 -0.43867759898068 0.298135280123271
2  58 21 0 -0.43867759898068 0.298135280123271
0

0101000
+223 0 -193 0 *
Wi

0101100
-233 0 +222 0 -191 0 +188 0 *
Fa
0  1e-07 10 0

0101000
+187 0 *
Ve
1.50000000888178e-07
2.1 23 25
0 0

0101101
*
Ed
 1e-07 1 1 0
1  30 0 2.1 22.7928932188135
2  59 11 1 2.1 22.7928932188135
2  60 15 0 2.1 22.7928932188135
0

0101000
+185 0 -204 0 *
Ve
1.50000005024296e-07
53 23 25
0 0

0101101
*
Ed
 1.5e-07 1 1 0
1  31 0 -38.175 12.725
2  61 11 1 -38.175 12.725
2  62 22 0 -38.175 12.725
0

0101000
+183 0 -185 0 *
Ve
1e-07
53 2.30710678118655 25
0 0

0101101
*
Ed
 1e-07 1 1 0
1  32 0 0.207106781186552 20.9
2  63 11 1 0.207106781186552 20.9
2  64 23 0 0.207106781186552 20.9
0

0101000
+181 0 -183 0 *
Ed
 1e-07 1 1 0
1  33 0 0.207106781186548 0.500000000000004
2  65 11 1 0.207106781186548 0.500000000000004
2  66 12 0 0.207106781186548 0.500000000000004
0

0101000
+228 0 -181 0 *
Wi

0101100
+202 0 +184 0 +182 0 +180 0 +179 0 +227 0 *
Fa
0  1e-07 11 1

0101000
+178 0 *
Ed
 1e-07 1 1 0
1  34 0 -0.438677598980681 0.298135280123271
2  67 12 0 -0.438677598980681 0.298135280123271
2  68 23 0 -0.438677598980681 0.298135280123271
0

0101000
+221 0 -181 0 *
Wi

0101100
-226 0 +220 0 -179 0 +176 0 *
Fa
0  1e-07 12 0

0101000
+175 0 *
Ve
1.500000113829e-07
53.5 23 2.1
0 0

0101101
*
Ed
 1e-07 1 1 0
1  35 0 4.44089209850063e-16 20.9
2  69 13 0 4.44089209850063e-16 20.9
2  70 21 0 4.44089209850063e-16 20.9
0

0101000
+223 0 -173 0 *
Ve
1.50000007944109e-07
53.5 23 24.5
0 0

0101101
*
Ed
 1.5e-07 1 1 0
1  36 0 -22.9 -0.5
2  71 13 0 -22.9 -0.5
2  72 22 0 -22.9 -0.5
0

0101000
+171 0 -173 0 *
Ed
 1e-07 1 1 0
1  37 0 4.44089209850063e-16 20.9
2  73 13 0 4.44089209850063e-16 20.9
2  74 23 0 4.44089209850063e-16 20.9
0

0101000
+221 0 -171 0 *
Wi

0101100
-172 0 +170 0 +169 0 +219 0 *
Fa
0  1e-07 13 0

0101000
+168 0 *
Ed
 1.00000000800593e-07 1 1 0
1  38 0 -5.73612421639746 -4.99931133729351
2  75 18 0 -5.73612421639746 -4.99931133729351
2  76 24 0 -5.73612421639746 -4.99931133729351
0

0101000
+216 0 -199 0 *
Wi

0101100
-166 0 -198 0 +208 0 +215 0 *
Fa
0  1e-07 14 0

0101000
+165 0 *
Ed
 1.5e-07 1 1 0
1  39 0 -7.79422863405995 -6.92820323027551
2  77 15 0 -7.79422863405995 -6.92820323027551
2  78 16 0 -7.79422863405995 -6.92820323027551
0

0101000
+185 0 -214 0 *
Wi

0101100
+163 0 -184 0 +203 0 +213 0 *
Fa
0  1e-07 15 0

0101000
+162 0 *
Ve
1.00000004869818e-07
1.6 25.1 2.1
0 0

0101101
*
Ed
 1.00000003662053e-07 1 1 0
1  17 0 0 1.6
2  33 6 0 0 1.6
2  34 14 0 0 1.6
0

0101000
+160 0 -216 0 *
Ve
1.00000001332268e-07
1.6 25.1 24.5
0 0

0101101
*
Ed
 1.00000000666134e-07 1 1 0
1  18 0 0 1.6
2  35 6 0 0 1.6
2  36 15 0 0 1.6
0

0101000
+158 0 -214 0 *
Ed
 1e-07 1 1 0
1  40 0 0.5 22.9
2  79 6 0 0.5 22.9
2  80 25 0 0.5 22.9
0

0101000
+160 0 -158 0 *
Wi

0101100
-159 0 -212 0 +157 0 +156 0 *
Fa
0  1e-07 6 0

0101000
+155 0 *
Ve
1.00000004869818e-07
2.1 24.8928932188135 1.6
0 0

0101101
*
Ed
 1.00000003722146e-07 1 1 0
1  24 0 0.207106781186542 1.39289321881346
2  47 9 0 0.207106781186542 1.39289321881346
2  48 14 0 0.207106781186542 1.39289321881346
0

0101000
+153 0 -199 0 *
Ve
1.00000001110223e-07
2.30710678118654 25.1 1.6
0 0

0101101
*
Ed
 1.00000001110223e-07 1 1 0
1  41 0 0.207106781186554 0.499999999999998
2  81 9 0 0.207106781186554 0.499999999999998
2  82 26 0 0.207106781186554 0.499999999999998
0

0101000
+151 0 -153 0 *
Ve
1.00000002664535e-07
52.7928932188135 25.1 1.6
0 0

0101101
*
Ed
 1.00000001110223e-07 1 1 0
1  42 0 0.207106781186539 50.6928932188135
2  83 9 0 0.207106781186539 50.6928932188135
2  84 27 0 0.207106781186539 50.6928932188135
0

0101000
+149 0 -151 0 *
Ve
1.00000003108624e-07
53 24.8928932188135 1.6
0 0

0101101
*
Ed
 1.00000001110223e-07 1 1 0
1  43 0 0.207106781186554 0.499999999999994
2  85 9 0 0.207106781186554 0.499999999999994
2  86 28 0 0.207106781186554 0.499999999999994
0

0101000
+147 0 -149 0 *
Ed
 1.00000001110223e-07 1 1 0
1  27 0 21.4 22.7928932188135
2  53 9 0 21.4 22.7928932188135
2  54 21 0 21.4 22.7928932188135
0

0101000
+195 0 -147 0 *
Wi

0101100
+152 0 +150 0 +148 0 +146 0 +145 0 +194 0 +196 0 *
Fa
0  1e-07 9 0

0101000
+144 0 *
Ed
 1.5e-07 1 1 0
1  44 0 -9.09326673973661 -8.22724133595216
2  87 21 0 -9.09326673973661 -8.22724133595216
2  88 20 0 -9.09326673973661 -8.22724133595216
0

0101000
+173 0 -195 0 *
Wi

0101100
-188 0 -192 0 +142 0 +172 0 *
Fa
0  1e-07 21 0

0101000
+141 0 *
Ed
 1.5e-07 1 1 0
1  45 0 -10.2530483272049 -9.54594154601839
2  89 23 0 -10.2530483272049 -9.54594154601839
2  90 22 0 -10.2530483272049 -9.54594154601839
0

0101000
+171 0 -183 0 *
Ve
1e-07
54.7 23 2.1
0 0

0101101
*
Ed
 1e-07 1 1 0
1  46 0 51.4 52.6
2  91 22 0 51.4 52.6
2  92 20 0 51.4 52.6
0

0101000
+173 0 -138 0 *
Ve
1e-07
54.7 23 33.5
0 0

0101101
*
Ed
 1e-07 1 1 0
1  47 0 0.5 31.9
2  93 22 0 0.5 31.9
2  94 29 0 0.5 31.9
0

0101000
+138 0 -136 0 *
Ve
1e-07
2.1 23 33.5
0 0

0101101
*
Ed
 1e-07 1 1 0
1  48 0 4.44089209850063e-16 52.6
2  95 22 0 4.44089209850063e-16 52.6
2  96 30 0 4.44089209850063e-16 52.6
0

0101000
+134 0 -136 0 *
Ed
 1e-07 1 1 0
1  49 0 23.4 31.9
2  97 22 0 23.4 31.9
2  98 16 0 23.4 31.9
0

0101000
+185 0 -134 0 *
Wi

0101100
+182 0 +139 0 -170 0 -137 0 -135 0 +133 0 +132 0 *
Fa
0  1e-07 22 0

0101000
+131 0 *
Wi

0101100
-176 0 -180 0 +139 0 +169 0 *
Fa
0  1e-07 23 0

0101000
+129 0 *
Ed
 1.00000001256074e-07 1 1 0
1  50 0 -0.43867759898068 0.298135280123271
2  99 14 0 -0.43867759898068 0.298135280123271
2  100 26 0 -0.43867759898068 0.298135280123271
0

0101000
+160 0 -153 0 *
Wi

0101100
-127 0 -152 0 +166 0 +159 0 *
Fa
0  1e-07 14 0

0101000
+126 0 *
Ve
1e-07
1.6 23.5 33.5
0 0

0101101
*
Ed
 1e-07 1 1 0
1  51 0 0 0.707106781186548
2  101 16 0 0 0.707106781186548
2  102 31 0 0 0.707106781186548
0

0101000
+124 0 -134 0 *
Ed
 1e-07 1 1 0
1  19 0 22.9 31.9
2  37 16 0 22.9 31.9
2  38 17 0 22.9 31.9
0

0101000
+214 0 -124 0 *
Wi

0101100
+163 0 -132 0 +123 0 +122 0 *
Fa
0  1e-07 16 0

0101000
+121 0 *
Ve
1e-07
1.6 61.9 2.1
0 0

0101101
*
Ed
 1e-07 1 1 0
1  52 0 0 36.8
2  103 17 0 0 36.8
2  104 24 0 0 36.8
0

0101000
+119 0 -160 0 *
Ve
1e-07
1.6 61.9 33.5
0 0

0101101
*
Ed
 1e-07 1 1 0
1  53 0 0 38.4
2  105 17 0 0 38.4
2  106 32 0 0 38.4
0

0101000
+117 0 -124 0 *
Ed
 1e-07 1 1 0
1  54 0 0.5 31.9
2  107 17 0 0.5 31.9
2  108 33 0 0.5 31.9
0

0101000
+119 0 -117 0 *
Wi

0101100
-118 0 -156 0 -157 0 -122 0 +116 0 +115 0 *
Fa
0  1e-07 17 0

0101000
+114 0 *
Ve
1e-07
2.1 61.6928932188135 1.6
0 0

0101101
*
Ed
 1e-07 1 1 0
1  55 0 0.207106781186535 37.0071067811865
2  109 19 0 0.207106781186535 37.0071067811865
2  110 24 0 0.207106781186535 37.0071067811865
0

0101000
+112 0 -153 0 *
Ve
1e-07
2.30710678118653 61.9 1.6
0 0

0101101
*
Ed
 1e-07 1 1 0
1  56 0 0.207106781186554 0.499999999999989
2  111 19 0 0.207106781186554 0.499999999999989
2  112 34 0 0.207106781186554 0.499999999999989
0

0101000
+110 0 -112 0 *
Ve
1e-07
54.4928932188134 61.9 1.6
0 0

0101101
*
Ed
 1e-07 1 1 0
1  57 0 0.207106781186553 52.3928932188135
2  113 19 0 0.207106781186553 52.3928932188135
2  114 35 0 0.207106781186553 52.3928932188135
0

0101000
+108 0 -110 0 *
Ve
1e-07
54.7 61.6928932188134 1.6
0 0

0101101
*
Ed
 1e-07 1 1 0
1  58 0 0.207106781186543 0.500000000000004
2  115 19 0 0.207106781186543 0.500000000000004
2  116 36 0 0.207106781186543 0.500000000000004
0

0101000
+106 0 -108 0 *
Ve
1e-07
54.7 23.7071067811866 1.6
0 0

0101101
*
Ed
 1e-07 1 1 0
1  59 0 0.207106781186553 38.1928932188134
2  117 19 0 0.207106781186553 38.1928932188134
2  118 37 0 0.207106781186553 38.1928932188134
0

0101000
+104 0 -106 0 *
Ve
1e-07
54.4928932188134 23.5 1.6
0 0

0101101
*
Ed
 1e-07 1 1 0
1  60 0 0.207106781186543 0.500000000000004
2  119 19 0 0.207106781186543 0.500000000000004
2  120 38 0 0.207106781186543 0.500000000000004
0

0101000
+102 0 -104 0 *
Ed
 1e-07 1 1 0
1  26 0 50.9 52.3928932188134
2  51 20 0 50.9 52.3928932188134
2  52 19 0 50.9 52.3928932188134
0

0101000
+195 0 -102 0 *
Wi

0101100
-145 0 -146 0 -148 0 -150 0 +111 0 +109 0 +107 0 +105 0 +103 0 +101 0 
+100 0 *
Fa
0  1e-07 19 0

0101000
+99 0 *
Ed
 1e-07 1 1 0
1  61 0 -7.73182514417277 -6.99501226506881
2  121 20 0 -7.73182514417277 -6.99501226506881
2  122 38 0 -7.73182514417277 -6.99501226506881
0

0101000
+138 0 -102 0 *
Wi

0101100
-142 0 -100 0 +97 0 +137 0 *
Fa
0  1e-07 20 0

0101000
+96 0 *
Ve
1e-07
55.2 23.5 2.1
0 0

0101101
*
Ed
 1e-07 1 1 0
1  62 0 0 0.707106781186548
2  123 29 0 0 0.707106781186548
2  124 38 0 0 0.707106781186548
0

0101000
+138 0 -94 0 *
Ve
1e-07
55.2 23.5 33.5
0 0

0101101
*
Ed
 1e-07 1 1 0
1  63 0 0 0.707106781186548
2  125 29 0 0 0.707106781186548
2  126 39 0 0 0.707106781186548
0

0101000
+136 0 -92 0 *
Ed
 1e-07 1 1 0
1  64 0 0.5 31.9
2  127 29 0 0.5 31.9
2  128 40 0 0.5 31.9
0

0101000
+94 0 -92 0 *
Wi

0101100
+135 0 -93 0 +91 0 -90 0 *
Fa
0  1e-07 29 0

0101000
+89 0 *
Ve
1e-07
2.30710678118655 23.5 34
0 0

0101101
*
Ed
 1e-07 1 1 0
1  65 0 -0.438677598980682 0.298135280123268
2  129 30 0 -0.438677598980682 0.298135280123268
2  130 31 0 -0.438677598980682 0.298135280123268
0

0101000
+134 0 -87 0 *
Ve
1e-07
54.4928932188134 23.5 34
0 0

0101101
*
Ed
 1e-07 1 1 0
1  66 0 0.207106781186547 52.3928932188134
2  131 30 0 0.207106781186547 52.3928932188134
2  132 41 2 0.207106781186547 52.3928932188134
0

0101000
+87 0 -85 0 *
Ed
 1e-07 1 1 0
1  67 0 -7.73182514417277 -6.99501226506882
2  133 30 0 -7.73182514417277 -6.99501226506882
2  134 39 0 -7.73182514417277 -6.99501226506882
0

0101000
+136 0 -85 0 *
Wi

0101100
-86 0 +133 0 -84 0 +83 0 *
Fa
0  1e-07 30 0

0101000
+82 0 *
Ed
 1e-07 1 1 0
1  68 0 -0.438677598980682 0.29813528012327
2  135 24 0 -0.438677598980682 0.29813528012327
2  136 34 0 -0.438677598980682 0.29813528012327
0

0101000
+119 0 -112 0 *
Wi

0101100
-80 0 -111 0 +127 0 +118 0 *
Fa
0  1e-07 24 0

0101000
+79 0 *
Ve
1e-07
2.1 23.7071067811865 34
0 0

0101101
*
Ed
 1e-07 1 1 0
1  69 0 -5.73612421639746 -4.99931133729351
2  137 31 0 -5.73612421639746 -4.99931133729351
2  138 32 0 -5.73612421639746 -4.99931133729351
0

0101000
+124 0 -77 0 *
Ed
 1e-07 1 1 0
1  70 0 0.207106781186554 0.500000000000004
2  139 31 0 0.207106781186554 0.500000000000004
2  140 41 2 0.207106781186554 0.500000000000004
0

0101000
+77 0 -87 0 *
Wi

0101100
-76 0 +123 0 -75 0 +86 0 *
Fa
0  1e-07 31 0

0101000
+74 0 *
Ve
1e-07
2.1 61.6928932188135 34
0 0

0101101
*
Ed
 1e-07 1 1 0
1  71 0 -0.438677598980681 0.298135280123271
2  141 32 0 -0.438677598980681 0.298135280123271
2  142 42 0 -0.438677598980681 0.298135280123271
0

0101000
+117 0 -72 0 *
Ed
 1e-07 1 1 0
1  72 0 0.207106781186535 38.1928932188135
2  143 41 2 0.207106781186535 38.1928932188135
2  144 32 0 0.207106781186535 38.1928932188135
0

0101000
+72 0 -77 0 *
Wi

0101100
-71 0 +116 0 -70 0 +76 0 *
Fa
0  1e-07 32 0

0101000
+69 0 *
Ve
1e-07
2.1 62.4 2.1
0 0

0101101
*
Ve
1e-07
2.1 62.4 33.5
0 0

0101101
*
Ed
 1e-07 1 1 0
1  73 0 0.5 31.9
2  145 33 0 0.5 31.9
2  146 43 0 0.5 31.9
0

0101000
+67 0 -66 0 *
Ed
 1e-07 1 1 0
1  74 0 -7.105427357601e-15 0.70710678118654
2  147 33 0 -7.105427357601e-15 0.70710678118654
2  148 34 0 -7.105427357601e-15 0.70710678118654
0

0101000
+67 0 -119 0 *
Ed
 1e-07 1 1 0
1  75 0 -7.105427357601e-15 0.70710678118654
2  149 33 0 -7.105427357601e-15 0.70710678118654
2  150 42 0 -7.105427357601e-15 0.70710678118654
0

0101000
+66 0 -117 0 *
Wi

0101100
+65 0 -64 0 +63 0 -115 0 *
Fa
0  1e-07 33 0

0101000
+62 0 *
Ed
 1e-07 1 1 0
1  76 0 -7.7318251441728 -6.99501226506885
2  151 34 0 -7.7318251441728 -6.99501226506885
2  152 35 0 -7.7318251441728 -6.99501226506885
0

0101000
+67 0 -110 0 *
Wi

0101100
-60 0 +64 0 -109 0 +80 0 *
Fa
0  1e-07 34 0

0101000
+59 0 *
Ve
1e-07
54.7 62.4 2.1
0 0

0101101
*
Ed
 1e-07 1 1 0
1  77 0 -0.438677598980677 0.298135280123276
2  153 36 0 -0.438677598980677 0.298135280123276
2  154 35 0 -0.438677598980677 0.298135280123276
0

0101000
+57 0 -108 0 *
Ed
 1e-07 1 1 0
1  78 0 0 52.6
2  155 35 0 0 52.6
2  156 43 0 0 52.6
0

0101000
+57 0 -67 0 *
Wi

0101100
-56 0 +55 0 -107 0 +60 0 *
Fa
0  1e-07 35 0

0101000
+54 0 *
Ve
1e-07
55.2 61.9 2.1
0 0

0101101
*
Ed
 1e-07 1 1 0
1  79 0 -5.73612421639761 -4.99931133729366
2  157 37 0 -5.73612421639761 -4.99931133729366
2  158 36 0 -5.73612421639761 -4.99931133729366
0

0101000
+52 0 -106 0 *
Ed
 1e-07 1 1 0
1  80 0 0 0.707106781186548
2  159 36 0 0 0.707106781186548
2  160 44 0 0 0.707106781186548
0

0101000
+52 0 -57 0 *
Wi

0101100
-51 0 +50 0 -105 0 +56 0 *
Fa
0  1e-07 36 0

0101000
+49 0 *
Ed
 1e-07 1 1 0
1  81 0 -0.43867759898068 0.298135280123273
2  161 38 0 -0.43867759898068 0.298135280123273
2  162 37 0 -0.43867759898068 0.298135280123273
0

0101000
+94 0 -104 0 *
Ed
 1e-07 1 1 0
1  82 0 0 38.4
2  163 40 0 0 38.4
2  164 37 0 0 38.4
0

0101000
+94 0 -52 0 *
Wi

0101100
-47 0 +46 0 -103 0 +51 0 *
Fa
0  1e-07 37 0

0101000
+45 0 *
Wi

0101100
-97 0 +93 0 -101 0 +47 0 *
Fa
0  1e-07 38 0

0101000
+43 0 *
Ve
1e-07
54.7 23.7071067811866 34
0 0

0101101
*
Ed
 1e-07 1 1 0
1  83 0 0.207106781186538 0.500000000000004
2  165 41 2 0.207106781186538 0.500000000000004
2  166 39 0 0.207106781186538 0.500000000000004
0

0101000
+85 0 -41 0 *
Ed
 1e-07 1 1 0
1  84 0 -0.438677598980677 0.298135280123272
2  167 39 0 -0.438677598980677 0.298135280123272
2  168 45 0 -0.438677598980677 0.298135280123272
0

0101000
+92 0 -41 0 *
Wi

0101100
-83 0 +91 0 -40 0 +39 0 *
Fa
0  1e-07 39 0

0101000
+38 0 *
Ve
1e-07
55.2 61.9 33.5
0 0

0101101
*
Ed
 1e-07 1 1 0
1  85 0 0 38.4
2  169 40 0 0 38.4
2  170 45 0 0 38.4
0

0101000
+92 0 -36 0 *
Ed
 1e-07 1 1 0
1  86 0 0.5 31.9
2  171 40 0 0.5 31.9
2  172 44 0 0.5 31.9
0

0101000
+52 0 -36 0 *
Wi

0101100
+90 0 -46 0 +35 0 -34 0 *
Fa
0  1e-07 40 0

0101000
+33 0 *
Ve
1e-07
54.7 61.6928932188134 34
0 0

0101101
*
Ed
 1e-07 1 1 0
1  87 0 0.207106781186553 38.1928932188134
2  173 41 2 0.207106781186553 38.1928932188134
2  174 45 0 0.207106781186553 38.1928932188134
0

0101000
+41 0 -31 0 *
Ve
1e-07
2.30710678118654 61.9 34
0 0

0101101
*
Ed
 1e-07 1 1 0
1  88 0 0.207106781186554 0.499999999999989
2  175 41 2 0.207106781186554 0.499999999999989
2  176 42 0 0.207106781186554 0.499999999999989
0

0101000
+29 0 -72 0 *
Ve
1e-07
54.4928932188134 61.9 34
0 0

0101101
*
Ed
 1e-07 1 1 0
1  89 0 0.207106781186543 0.500000000000004
2  177 41 2 0.207106781186543 0.500000000000004
2  178 46 0 0.207106781186543 0.500000000000004
0

0101000
+31 0 -27 0 *
Ed
 1e-07 1 1 0
1  90 0 0.207106781186553 52.3928932188135
2  179 41 2 0.207106781186553 52.3928932188135
2  180 47 0 0.207106781186553 52.3928932188135
0

0101000
+27 0 -29 0 *
Wi

0101100
+84 0 +75 0 +40 0 +70 0 +30 0 +28 0 +26 0 +25 0 *
Fa
0  1e-07 41 0

0101000
+24 3 *
Ed
 1e-07 1 1 0
1  91 0 -7.7318251441728 -6.99501226506884
2  181 42 0 -7.7318251441728 -6.99501226506884
2  182 47 0 -7.7318251441728 -6.99501226506884
0

0101000
+66 0 -29 0 *
Wi

0101100
-22 0 +63 0 -28 0 +71 0 *
Fa
0  1e-07 42 0

0101000
+21 0 *
Ve
1e-07
54.7 62.4 33.5
0 0

0101101
*
Ed
 1e-07 1 1 0
1  92 0 0.5 31.9
2  183 44 0 0.5 31.9
2  184 43 0 0.5 31.9
0

0101000
+57 0 -19 0 *
Ed
 1e-07 1 1 0
1  93 0 0 52.6
2  185 47 0 0 52.6
2  186 43 0 0 52.6
0

0101000
+19 0 -66 0 *
Wi

0101100
+18 0 -55 0 +17 0 -65 0 *
Fa
0  1e-07 43 0

0101000
+16 0 *
Ed
 1e-07 1 1 0
1  94 0 0 0.707106781186548
2  187 46 0 0 0.707106781186548
2  188 44 0 0 0.707106781186548
0

0101000
+36 0 -19 0 *
Wi

0101100
+34 0 -50 0 +14 0 -18 0 *
Fa
0  1e-07 44 0

0101000
+13 0 *
Ed
 1e-07 1 1 0
1  95 0 -5.7361242163976 -4.99931133729366
2  189 45 0 -5.7361242163976 -4.99931133729366
2  190 46 0 -5.7361242163976 -4.99931133729366
0

0101000
+36 0 -31 0 *
Wi

0101100
-39 0 +35 0 -30 0 +11 0 *
Fa
0  1e-07 45 0

0101000
+10 0 *
Ed
 1e-07 1 1 0
1  96 0 -0.43867759898068 0.298135280123272
2  191 46 0 -0.43867759898068 0.298135280123272
2  192 47 0 -0.43867759898068 0.298135280123272
0

0101000
+19 0 -27 0 *
Wi

0101100
-11 0 +14 0 -26 0 +8 0 *
Fa
0  1e-07 46 0

0101000
+7 0 *
Wi

0101100
-8 0 +17 0 -25 0 +22 0 *
Fa
0  1e-07 47 0

0101000
+5 0 *
Sh

0101100
-245 0 -238 0 -231 0 +224 0 -217 0 -210 0 -205 0 +200 0 -189 0 -186 0 
+177 0 +174 0 -167 0 -164 0 +161 0 -154 0 -143 0 -140 0 -130 0 +128 0 
-125 0 -120 0 -113 0 -98 0 -95 0 -88 0 +81 0 -78 0 +73 0 +68 0 
-61 0 -58 0 -53 0 -48 0 -44 0 -42 0 +37 0 -32 0 +23 2 +20 0 
-15 0 -12 0 +9 0 +6 0 +4 0 *
So

0100000
+3 0 *
Co

1100000
+2 0 *

+1 0 