ISO-10303-21;
HEADER;
FILE_DESCRIPTION(('STEP'), '1');
FILE_NAME('Test', '2026-03-24T18:39:40', (''), (''), 'Express 3.1.2.0', 'Express Tool', 'Unknown');
FILE_SCHEMA(('AUTOMOTIVE_DESIGN'));
ENDSEC;

DATA;
#1 = MANIFOLD_SOLID_BREP('Box1_0', #2);
#2 = CLOSED_SHELL('', (#3, #39, #67, #95, #115, #127));
#3 = ADVANCED_FACE('', (#4), #34, .T.);
#4 = FACE_OUTER_BOUND('', #5, .T.);
#5 = EDGE_LOOP('', (#6, #15, #22, #29));
#6 = ORIENTED_EDGE('', *, *, #7, .T.);
#7 = EDGE_CURVE('', #8, #10, #12, .T.);
#8 = VERTEX_POINT('', #9);
#9 = CARTESIAN_POINT('', (0., 60., 0.));
#10 = VERTEX_POINT('', #11);
#11 = CARTESIAN_POINT('', (0., 60., 40.));
#12 = B_SPLINE_CURVE_WITH_KNOTS('', 1, (#13, #14), .UNSPECIFIED., .F., .U., (2, 2), (0., 40.), .UNSPECIFIED.);
#13 = CARTESIAN_POINT('', (0., 60., 0.));
#14 = CARTESIAN_POINT('', (0., 60., 40.));
#15 = ORIENTED_EDGE('', *, *, #16, .T.);
#16 = EDGE_CURVE('', #10, #17, #19, .T.);
#17 = VERTEX_POINT('', #18);
#18 = CARTESIAN_POINT('', (100., 60., 40.));
#19 = B_SPLINE_CURVE_WITH_KNOTS('', 1, (#20, #21), .UNSPECIFIED., .F., .U., (2, 2), (0., 100.), .UNSPECIFIED.);
#20 = CARTESIAN_POINT('', (0., 60., 40.));
#21 = CARTESIAN_POINT('', (100., 60., 40.));
#22 = ORIENTED_EDGE('', *, *, #23, .F.);
#23 = EDGE_CURVE('', #24, #17, #26, .T.);
#24 = VERTEX_POINT('', #25);
#25 = CARTESIAN_POINT('', (100., 60., 0.));
#26 = B_SPLINE_CURVE_WITH_KNOTS('', 1, (#27, #28), .UNSPECIFIED., .F., .U., (2, 2), (0., 40.), .UNSPECIFIED.);
#27 = CARTESIAN_POINT('', (100., 60., 0.));
#28 = CARTESIAN_POINT('', (100., 60., 40.));
#29 = ORIENTED_EDGE('', *, *, #30, .F.);
#30 = EDGE_CURVE('', #8, #24, #31, .T.);
#31 = B_SPLINE_CURVE_WITH_KNOTS('', 1, (#32, #33), .UNSPECIFIED., .F., .U., (2, 2), (0., 100.), .UNSPECIFIED.);
#32 = CARTESIAN_POINT('', (0., 60., 0.));
#33 = CARTESIAN_POINT('', (100., 60., 0.));
#34 = B_SPLINE_SURFACE_WITH_KNOTS('', 1, 1, ((#35, #36), (#37, #38)), .UNSPECIFIED., .F., .F., .U., (2, 2), (2, 2), (0., 40.), (0., 100.), .UNSPECIFIED.);
#35 = CARTESIAN_POINT('', (0., 60., 0.));
#36 = CARTESIAN_POINT('', (100., 60., 0.));
#37 = CARTESIAN_POINT('', (0., 60., 40.));
#38 = CARTESIAN_POINT('', (100., 60., 40.));
#39 = ADVANCED_FACE('', (#40), #62, .T.);
#40 = FACE_OUTER_BOUND('', #41, .T.);
#41 = EDGE_LOOP('', (#42, #49, #56, #61));
#42 = ORIENTED_EDGE('', *, *, #43, .F.);
#43 = EDGE_CURVE('', #44, #10, #46, .T.);
#44 = VERTEX_POINT('', #45);
#45 = CARTESIAN_POINT('', (0., 0., 40.));
#46 = B_SPLINE_CURVE_WITH_KNOTS('', 1, (#47, #48), .UNSPECIFIED., .F., .U., (2, 2), (0., 60.), .UNSPECIFIED.);
#47 = CARTESIAN_POINT('', (0., 0., 40.));
#48 = CARTESIAN_POINT('', (0., 60., 40.));
#49 = ORIENTED_EDGE('', *, *, #50, .T.);
#50 = EDGE_CURVE('', #44, #51, #53, .T.);
#51 = VERTEX_POINT('', #52);
#52 = CARTESIAN_POINT('', (100., 0., 40.));
#53 = B_SPLINE_CURVE_WITH_KNOTS('', 1, (#54, #55), .UNSPECIFIED., .F., .U., (2, 2), (0., 100.), .UNSPECIFIED.);
#54 = CARTESIAN_POINT('', (0., 0., 40.));
#55 = CARTESIAN_POINT('', (100., 0., 40.));
#56 = ORIENTED_EDGE('', *, *, #57, .T.);
#57 = EDGE_CURVE('', #51, #17, #58, .T.);
#58 = B_SPLINE_CURVE_WITH_KNOTS('', 1, (#59, #60), .UNSPECIFIED., .F., .U., (2, 2), (0., 60.), .UNSPECIFIED.);
#59 = CARTESIAN_POINT('', (100., 0., 40.));
#60 = CARTESIAN_POINT('', (100., 60., 40.));
#61 = ORIENTED_EDGE('', *, *, #16, .F.);
#62 = B_SPLINE_SURFACE_WITH_KNOTS('', 1, 1, ((#63, #64), (#65, #66)), .UNSPECIFIED., .F., .F., .U., (2, 2), (2, 2), (0., 100.), (0., 60.), .UNSPECIFIED.);
#63 = CARTESIAN_POINT('', (0., 0., 40.));
#64 = CARTESIAN_POINT('', (0., 60., 40.));
#65 = CARTESIAN_POINT('', (100., 0., 40.));
#66 = CARTESIAN_POINT('', (100., 60., 40.));
#67 = ADVANCED_FACE('', (#68), #90, .T.);
#68 = FACE_OUTER_BOUND('', #69, .T.);
#69 = EDGE_LOOP('', (#70, #77, #84, #89));
#70 = ORIENTED_EDGE('', *, *, #71, .F.);
#71 = EDGE_CURVE('', #72, #44, #74, .T.);
#72 = VERTEX_POINT('', #73);
#73 = CARTESIAN_POINT('', (0., 0., 0.));
#74 = B_SPLINE_CURVE_WITH_KNOTS('', 1, (#75, #76), .UNSPECIFIED., .F., .U., (2, 2), (0., 40.), .UNSPECIFIED.);
#75 = CARTESIAN_POINT('', (0., 0., 0.));
#76 = CARTESIAN_POINT('', (0., 0., 40.));
#77 = ORIENTED_EDGE('', *, *, #78, .T.);
#78 = EDGE_CURVE('', #72, #79, #81, .T.);
#79 = VERTEX_POINT('', #80);
#80 = CARTESIAN_POINT('', (100., 0., 0.));
#81 = B_SPLINE_CURVE_WITH_KNOTS('', 1, (#82, #83), .UNSPECIFIED., .F., .U., (2, 2), (0., 100.), .UNSPECIFIED.);
#82 = CARTESIAN_POINT('', (0., 0., 0.));
#83 = CARTESIAN_POINT('', (100., 0., 0.));
#84 = ORIENTED_EDGE('', *, *, #85, .T.);
#85 = EDGE_CURVE('', #79, #51, #86, .T.);
#86 = B_SPLINE_CURVE_WITH_KNOTS('', 1, (#87, #88), .UNSPECIFIED., .F., .U., (2, 2), (0., 40.), .UNSPECIFIED.);
#87 = CARTESIAN_POINT('', (100., 0., 0.));
#88 = CARTESIAN_POINT('', (100., 0., 40.));
#89 = ORIENTED_EDGE('', *, *, #50, .F.);
#90 = B_SPLINE_SURFACE_WITH_KNOTS('', 1, 1, ((#91, #92), (#93, #94)), .UNSPECIFIED., .F., .F., .U., (2, 2), (2, 2), (0., 100.), (0., 40.), .UNSPECIFIED.);
#91 = CARTESIAN_POINT('', (0., 0., 0.));
#92 = CARTESIAN_POINT('', (0., 0., 40.));
#93 = CARTESIAN_POINT('', (100., 0., 0.));
#94 = CARTESIAN_POINT('', (100., 0., 40.));
#95 = ADVANCED_FACE('', (#96), #110, .T.);
#96 = FACE_OUTER_BOUND('', #97, .T.);
#97 = EDGE_LOOP('', (#98, #103, #104, #109));
#98 = ORIENTED_EDGE('', *, *, #99, .T.);
#99 = EDGE_CURVE('', #72, #8, #100, .T.);
#100 = B_SPLINE_CURVE_WITH_KNOTS('', 1, (#101, #102), .UNSPECIFIED., .F., .U., (2, 2), (0., 60.), .UNSPECIFIED.);
#101 = CARTESIAN_POINT('', (0., 0., 0.));
#102 = CARTESIAN_POINT('', (0., 60., 0.));
#103 = ORIENTED_EDGE('', *, *, #30, .T.);
#104 = ORIENTED_EDGE('', *, *, #105, .F.);
#105 = EDGE_CURVE('', #79, #24, #106, .T.);
#106 = B_SPLINE_CURVE_WITH_KNOTS('', 1, (#107, #108), .UNSPECIFIED., .F., .U., (2, 2), (0., 60.), .UNSPECIFIED.);
#107 = CARTESIAN_POINT('', (100., 0., 0.));
#108 = CARTESIAN_POINT('', (100., 60., 0.));
#109 = ORIENTED_EDGE('', *, *, #78, .F.);
#110 = B_SPLINE_SURFACE_WITH_KNOTS('', 1, 1, ((#111, #112), (#113, #114)), .UNSPECIFIED., .F., .F., .U., (2, 2), (2, 2), (0., 60.), (0., 100.), .UNSPECIFIED.);
#111 = CARTESIAN_POINT('', (0., 0., 0.));
#112 = CARTESIAN_POINT('', (100., 0., 0.));
#113 = CARTESIAN_POINT('', (0., 60., 0.));
#114 = CARTESIAN_POINT('', (100., 60., 0.));
#115 = ADVANCED_FACE('', (#116), #122, .T.);
#116 = FACE_OUTER_BOUND('', #117, .T.);
#117 = EDGE_LOOP('', (#118, #119, #120, #121));
#118 = ORIENTED_EDGE('', *, *, #85, .F.);
#119 = ORIENTED_EDGE('', *, *, #105, .T.);
#120 = ORIENTED_EDGE('', *, *, #23, .T.);
#121 = ORIENTED_EDGE('', *, *, #57, .F.);
#122 = B_SPLINE_SURFACE_WITH_KNOTS('', 1, 1, ((#123, #124), (#125, #126)), .UNSPECIFIED., .F., .F., .U., (2, 2), (2, 2), (0., 60.), (0., 40.), .UNSPECIFIED.);
#123 = CARTESIAN_POINT('', (100., 0., 0.));
#124 = CARTESIAN_POINT('', (100., 0., 40.));
#125 = CARTESIAN_POINT('', (100., 60., 0.));
#126 = CARTESIAN_POINT('', (100., 60., 40.));
#127 = ADVANCED_FACE('', (#128), #134, .T.);
#128 = FACE_OUTER_BOUND('', #129, .T.);
#129 = EDGE_LOOP('', (#130, #131, #132, #133));
#130 = ORIENTED_EDGE('', *, *, #71, .T.);
#131 = ORIENTED_EDGE('', *, *, #43, .T.);
#132 = ORIENTED_EDGE('', *, *, #7, .F.);
#133 = ORIENTED_EDGE('', *, *, #99, .F.);
#134 = B_SPLINE_SURFACE_WITH_KNOTS('', 1, 1, ((#135, #136), (#137, #138)), .UNSPECIFIED., .F., .F., .U., (2, 2), (2, 2), (0., 40.), (0., 60.), .UNSPECIFIED.);
#135 = CARTESIAN_POINT('', (0., 0., 0.));
#136 = CARTESIAN_POINT('', (0., 60., 0.));
#137 = CARTESIAN_POINT('', (0., 0., 40.));
#138 = CARTESIAN_POINT('', (0., 60., 40.));
#139 = DRAUGHTING_MODEL('', (#147, #231, #377), #380);
#140 = PRESENTATION_STYLE_ASSIGNMENT((#141));
#141 = SURFACE_STYLE_USAGE(.POSITIVE., #142);
#142 = SURFACE_SIDE_STYLE('', (#143));
#143 = SURFACE_STYLE_FILL_AREA(#144);
#144 = FILL_AREA_STYLE('', (#145));
#145 = FILL_AREA_STYLE_COLOUR('', #146);
#146 = COLOUR_RGB('', 0.50196078431373, 0.50196078431373, 0.50196078431373);
#147 = STYLED_ITEM('', (#140), #1);
#148 = MANIFOLD_SOLID_BREP('Cyl1_0', #149);
#149 = CLOSED_SHELL('', (#150, #206, #215));
#150 = ADVANCED_FACE('', (#151), #187, .T.);
#151 = FACE_OUTER_BOUND('', #152, .T.);
#152 = EDGE_LOOP('', (#153, #162, #174, #175));
#153 = ORIENTED_EDGE('', *, *, #154, .F.);
#154 = EDGE_CURVE('', #155, #157, #159, .T.);
#155 = VERTEX_POINT('', #156);
#156 = CARTESIAN_POINT('', (30., 0., 0.));
#157 = VERTEX_POINT('', #158);
#158 = CARTESIAN_POINT('', (30., 0., 90.));
#159 = B_SPLINE_CURVE_WITH_KNOTS('', 1, (#160, #161), .UNSPECIFIED., .F., .U., (2, 2), (0., 90.), .UNSPECIFIED.);
#160 = CARTESIAN_POINT('', (30., 0., 0.));
#161 = CARTESIAN_POINT('', (30., 0., 90.));
#162 = ORIENTED_EDGE('', *, *, #163, .T.);
#163 = EDGE_CURVE('', #155, #155, #164, .T.);
#164 = (
   BOUNDED_CURVE ()
   B_SPLINE_CURVE (2, (#165, #166, #167, #168, #169, #170, #171, #172, #173), .UNSPECIFIED., .T., .U.)
   B_SPLINE_CURVE_WITH_KNOTS ((3, 2, 2, 2, 3), (0., 47.1238898038469, 94.2477796076938, 141.371669411541, 188.495559215388), .UNSPECIFIED.)
   CURVE ()
   GEOMETRIC_REPRESENTATION_ITEM ()
   RATIONAL_B_SPLINE_CURVE ((1., 0.707106781186548, 1., 0.707106781186548, 1., 0.707106781186548, 1., 0.707106781186548, 1.))
   REPRESENTATION_ITEM ('')
);
#165 = CARTESIAN_POINT('', (30., 0., 0.));
#166 = CARTESIAN_POINT('', (30., 30., 0.));
#167 = CARTESIAN_POINT('', (1.83697019872103E-15, 30., 0.));
#168 = CARTESIAN_POINT('', (-30., 30., 0.));
#169 = CARTESIAN_POINT('', (-30., 3.67394039744206E-15, 0.));
#170 = CARTESIAN_POINT('', (-30., -30., 0.));
#171 = CARTESIAN_POINT('', (-5.51091059616309E-15, -30., 0.));
#172 = CARTESIAN_POINT('', (30., -30., 0.));
#173 = CARTESIAN_POINT('', (30., 0., 0.));
#174 = ORIENTED_EDGE('', *, *, #154, .T.);
#175 = ORIENTED_EDGE('', *, *, #176, .F.);
#176 = EDGE_CURVE('', #157, #157, #177, .T.);
#177 = (
   BOUNDED_CURVE ()
   B_SPLINE_CURVE (2, (#178, #179, #180, #181, #182, #183, #184, #185, #186), .UNSPECIFIED., .T., .U.)
   B_SPLINE_CURVE_WITH_KNOTS ((3, 2, 2, 2, 3), (0., 47.1238898038469, 94.2477796076938, 141.371669411541, 188.495559215388), .UNSPECIFIED.)
   CURVE ()
   GEOMETRIC_REPRESENTATION_ITEM ()
   RATIONAL_B_SPLINE_CURVE ((1., 0.707106781186548, 1., 0.707106781186548, 1., 0.707106781186548, 1., 0.707106781186548, 1.))
   REPRESENTATION_ITEM ('')
);
#178 = CARTESIAN_POINT('', (30., 0., 90.));
#179 = CARTESIAN_POINT('', (30., 30., 90.));
#180 = CARTESIAN_POINT('', (1.83697019872103E-15, 30., 90.));
#181 = CARTESIAN_POINT('', (-30., 30., 90.));
#182 = CARTESIAN_POINT('', (-30., 3.67394039744206E-15, 90.));
#183 = CARTESIAN_POINT('', (-30., -30., 90.));
#184 = CARTESIAN_POINT('', (-5.51091059616309E-15, -30., 90.));
#185 = CARTESIAN_POINT('', (30., -30., 90.));
#186 = CARTESIAN_POINT('', (30., 0., 90.));
#187 = (
   BOUNDED_SURFACE ()
   B_SPLINE_SURFACE (2, 1, ((#188, #189), (#190, #191), (#192, #193), (#194, #195), (#196, #197), (#198, #199), (#200, #201), (#202, #203), (#204, #205)), .UNSPECIFIED., .T., .F., .U.)
   B_SPLINE_SURFACE_WITH_KNOTS ((3, 2, 2, 2, 3), (2, 2), (0., 47.1238898038469, 94.2477796076938, 141.371669411541, 188.495559215388), (0., 90.), .UNSPECIFIED.)
   GEOMETRIC_REPRESENTATION_ITEM ()
   RATIONAL_B_SPLINE_SURFACE (((1., 1.), (0.707106781186548, 0.707106781186548), (1., 1.), (0.707106781186548, 0.707106781186548), (1., 1.), (0.707106781186548, 0.707106781186548), (1., 1.), (0.707106781186548, 0.707106781186548), (1., 1.)))
   REPRESENTATION_ITEM ('')
   SURFACE ()
);
#188 = CARTESIAN_POINT('', (30., 0., 0.));
#189 = CARTESIAN_POINT('', (30., 0., 90.));
#190 = CARTESIAN_POINT('', (30., 30., 0.));
#191 = CARTESIAN_POINT('', (30., 30., 90.));
#192 = CARTESIAN_POINT('', (1.83697019872103E-15, 30., 0.));
#193 = CARTESIAN_POINT('', (1.83697019872103E-15, 30., 90.));
#194 = CARTESIAN_POINT('', (-30., 30., 0.));
#195 = CARTESIAN_POINT('', (-30., 30., 90.));
#196 = CARTESIAN_POINT('', (-30., 3.67394039744206E-15, 0.));
#197 = CARTESIAN_POINT('', (-30., 3.67394039744206E-15, 90.));
#198 = CARTESIAN_POINT('', (-30., -30., 0.));
#199 = CARTESIAN_POINT('', (-30., -30., 90.));
#200 = CARTESIAN_POINT('', (-5.51091059616309E-15, -30., 0.));
#201 = CARTESIAN_POINT('', (-5.51091059616309E-15, -30., 90.));
#202 = CARTESIAN_POINT('', (30., -30., 0.));
#203 = CARTESIAN_POINT('', (30., -30., 90.));
#204 = CARTESIAN_POINT('', (30., 0., 0.));
#205 = CARTESIAN_POINT('', (30., 0., 90.));
#206 = ADVANCED_FACE('', (#207), #210, .T.);
#207 = FACE_OUTER_BOUND('', #208, .T.);
#208 = EDGE_LOOP('', (#209));
#209 = ORIENTED_EDGE('', *, *, #163, .F.);
#210 = B_SPLINE_SURFACE_WITH_KNOTS('', 1, 1, ((#211, #212), (#213, #214)), .UNSPECIFIED., .F., .F., .U., (2, 2), (2, 2), (0., 1.), (0., 1.), .UNSPECIFIED.);
#211 = CARTESIAN_POINT('', (46.6690475583121, -46.6690475583122, 0.));
#212 = CARTESIAN_POINT('', (46.6690475583121, 46.6690475583121, 0.));
#213 = CARTESIAN_POINT('', (-46.6690475583122, -46.6690475583122, 0.));
#214 = CARTESIAN_POINT('', (-46.6690475583122, 46.6690475583121, 0.));
#215 = ADVANCED_FACE('', (#216), #219, .T.);
#216 = FACE_OUTER_BOUND('', #217, .T.);
#217 = EDGE_LOOP('', (#218));
#218 = ORIENTED_EDGE('', *, *, #176, .T.);
#219 = B_SPLINE_SURFACE_WITH_KNOTS('', 1, 1, ((#220, #221), (#222, #223)), .UNSPECIFIED., .F., .F., .U., (2, 2), (2, 2), (0., 1.), (0., 1.), .UNSPECIFIED.);
#220 = CARTESIAN_POINT('', (46.6690475583121, -46.6690475583122, 90.));
#221 = CARTESIAN_POINT('', (-46.6690475583122, -46.6690475583122, 90.));
#222 = CARTESIAN_POINT('', (46.6690475583122, 46.6690475583122, 90.));
#223 = CARTESIAN_POINT('', (-46.6690475583122, 46.6690475583122, 90.));
#224 = PRESENTATION_STYLE_ASSIGNMENT((#225));
#225 = SURFACE_STYLE_USAGE(.POSITIVE., #226);
#226 = SURFACE_SIDE_STYLE('', (#227));
#227 = SURFACE_STYLE_FILL_AREA(#228);
#228 = FILL_AREA_STYLE('', (#229));
#229 = FILL_AREA_STYLE_COLOUR('', #230);
#230 = COLOUR_RGB('', 0.50196078431373, 0.50196078431373, 0.50196078431373);
#231 = STYLED_ITEM('', (#224), #148);
#232 = MANIFOLD_SOLID_BREP('Box2_0', #233);
#233 = CLOSED_SHELL('', (#234, #270, #298, #326, #346, #358));
#234 = ADVANCED_FACE('', (#235), #265, .T.);
#235 = FACE_OUTER_BOUND('', #236, .T.);
#236 = EDGE_LOOP('', (#237, #246, #253, #260));
#237 = ORIENTED_EDGE('', *, *, #238, .T.);
#238 = EDGE_CURVE('', #239, #241, #243, .T.);
#239 = VERTEX_POINT('', #240);
#240 = CARTESIAN_POINT('', (0., 80., 0.));
#241 = VERTEX_POINT('', #242);
#242 = CARTESIAN_POINT('', (0., 80., 40.));
#243 = B_SPLINE_CURVE_WITH_KNOTS('', 1, (#244, #245), .UNSPECIFIED., .F., .U., (2, 2), (0., 40.), .UNSPECIFIED.);
#244 = CARTESIAN_POINT('', (0., 80., 0.));
#245 = CARTESIAN_POINT('', (0., 80., 40.));
#246 = ORIENTED_EDGE('', *, *, #247, .T.);
#247 = EDGE_CURVE('', #241, #248, #250, .T.);
#248 = VERTEX_POINT('', #249);
#249 = CARTESIAN_POINT('', (8.94427190999916, 80., 40.));
#250 = B_SPLINE_CURVE_WITH_KNOTS('', 1, (#251, #252), .UNSPECIFIED., .F., .U., (2, 2), (0., 8.94427190999916), .UNSPECIFIED.);
#251 = CARTESIAN_POINT('', (0., 80., 40.));
#252 = CARTESIAN_POINT('', (8.94427190999916, 80., 40.));
#253 = ORIENTED_EDGE('', *, *, #254, .F.);
#254 = EDGE_CURVE('', #255, #248, #257, .T.);
#255 = VERTEX_POINT('', #256);
#256 = CARTESIAN_POINT('', (8.94427190999916, 80., 0.));
#257 = B_SPLINE_CURVE_WITH_KNOTS('', 1, (#258, #259), .UNSPECIFIED., .F., .U., (2, 2), (0., 40.), .UNSPECIFIED.);
#258 = CARTESIAN_POINT('', (8.94427190999916, 80., 0.));
#259 = CARTESIAN_POINT('', (8.94427190999916, 80., 40.));
#260 = ORIENTED_EDGE('', *, *, #261, .F.);
#261 = EDGE_CURVE('', #239, #255, #262, .T.);
#262 = B_SPLINE_CURVE_WITH_KNOTS('', 1, (#263, #264), .UNSPECIFIED., .F., .U., (2, 2), (0., 8.94427190999916), .UNSPECIFIED.);
#263 = CARTESIAN_POINT('', (0., 80., 0.));
#264 = CARTESIAN_POINT('', (8.94427190999916, 80., 0.));
#265 = B_SPLINE_SURFACE_WITH_KNOTS('', 1, 1, ((#266, #267), (#268, #269)), .UNSPECIFIED., .F., .F., .U., (2, 2), (2, 2), (0., 40.), (0., 8.94427190999916), .UNSPECIFIED.);
#266 = CARTESIAN_POINT('', (0., 80., 0.));
#267 = CARTESIAN_POINT('', (8.94427190999916, 80., 0.));
#268 = CARTESIAN_POINT('', (0., 80., 40.));
#269 = CARTESIAN_POINT('', (8.94427190999916, 80., 40.));
#270 = ADVANCED_FACE('', (#271), #293, .T.);
#271 = FACE_OUTER_BOUND('', #272, .T.);
#272 = EDGE_LOOP('', (#273, #280, #287, #292));
#273 = ORIENTED_EDGE('', *, *, #274, .F.);
#274 = EDGE_CURVE('', #275, #241, #277, .T.);
#275 = VERTEX_POINT('', #276);
#276 = CARTESIAN_POINT('', (0., 0., 40.));
#277 = B_SPLINE_CURVE_WITH_KNOTS('', 1, (#278, #279), .UNSPECIFIED., .F., .U., (2, 2), (0., 80.), .UNSPECIFIED.);
#278 = CARTESIAN_POINT('', (0., 0., 40.));
#279 = CARTESIAN_POINT('', (0., 80., 40.));
#280 = ORIENTED_EDGE('', *, *, #281, .T.);
#281 = EDGE_CURVE('', #275, #282, #284, .T.);
#282 = VERTEX_POINT('', #283);
#283 = CARTESIAN_POINT('', (8.94427190999916, 0., 40.));
#284 = B_SPLINE_CURVE_WITH_KNOTS('', 1, (#285, #286), .UNSPECIFIED., .F., .U., (2, 2), (0., 8.94427190999916), .UNSPECIFIED.);
#285 = CARTESIAN_POINT('', (0., 0., 40.));
#286 = CARTESIAN_POINT('', (8.94427190999916, 0., 40.));
#287 = ORIENTED_EDGE('', *, *, #288, .T.);
#288 = EDGE_CURVE('', #282, #248, #289, .T.);
#289 = B_SPLINE_CURVE_WITH_KNOTS('', 1, (#290, #291), .UNSPECIFIED., .F., .U., (2, 2), (0., 80.), .UNSPECIFIED.);
#290 = CARTESIAN_POINT('', (8.94427190999916, 0., 40.));
#291 = CARTESIAN_POINT('', (8.94427190999916, 80., 40.));
#292 = ORIENTED_EDGE('', *, *, #247, .F.);
#293 = B_SPLINE_SURFACE_WITH_KNOTS('', 1, 1, ((#294, #295), (#296, #297)), .UNSPECIFIED., .F., .F., .U., (2, 2), (2, 2), (0., 8.94427190999916), (0., 80.), .UNSPECIFIED.);
#294 = CARTESIAN_POINT('', (0., 0., 40.));
#295 = CARTESIAN_POINT('', (0., 80., 40.));
#296 = CARTESIAN_POINT('', (8.94427190999916, 0., 40.));
#297 = CARTESIAN_POINT('', (8.94427190999916, 80., 40.));
#298 = ADVANCED_FACE('', (#299), #321, .T.);
#299 = FACE_OUTER_BOUND('', #300, .T.);
#300 = EDGE_LOOP('', (#301, #308, #315, #320));
#301 = ORIENTED_EDGE('', *, *, #302, .F.);
#302 = EDGE_CURVE('', #303, #275, #305, .T.);
#303 = VERTEX_POINT('', #304);
#304 = CARTESIAN_POINT('', (0., 0., 0.));
#305 = B_SPLINE_CURVE_WITH_KNOTS('', 1, (#306, #307), .UNSPECIFIED., .F., .U., (2, 2), (0., 40.), .UNSPECIFIED.);
#306 = CARTESIAN_POINT('', (0., 0., 0.));
#307 = CARTESIAN_POINT('', (0., 0., 40.));
#308 = ORIENTED_EDGE('', *, *, #309, .T.);
#309 = EDGE_CURVE('', #303, #310, #312, .T.);
#310 = VERTEX_POINT('', #311);
#311 = CARTESIAN_POINT('', (8.94427190999916, 0., 0.));
#312 = B_SPLINE_CURVE_WITH_KNOTS('', 1, (#313, #314), .UNSPECIFIED., .F., .U., (2, 2), (0., 8.94427190999916), .UNSPECIFIED.);
#313 = CARTESIAN_POINT('', (0., 0., 0.));
#314 = CARTESIAN_POINT('', (8.94427190999916, 0., 0.));
#315 = ORIENTED_EDGE('', *, *, #316, .T.);
#316 = EDGE_CURVE('', #310, #282, #317, .T.);
#317 = B_SPLINE_CURVE_WITH_KNOTS('', 1, (#318, #319), .UNSPECIFIED., .F., .U., (2, 2), (0., 40.), .UNSPECIFIED.);
#318 = CARTESIAN_POINT('', (8.94427190999916, 0., 0.));
#319 = CARTESIAN_POINT('', (8.94427190999916, 0., 40.));
#320 = ORIENTED_EDGE('', *, *, #281, .F.);
#321 = B_SPLINE_SURFACE_WITH_KNOTS('', 1, 1, ((#322, #323), (#324, #325)), .UNSPECIFIED., .F., .F., .U., (2, 2), (2, 2), (0., 8.94427190999916), (0., 40.), .UNSPECIFIED.);
#322 = CARTESIAN_POINT('', (0., 0., 0.));
#323 = CARTESIAN_POINT('', (0., 0., 40.));
#324 = CARTESIAN_POINT('', (8.94427190999916, 0., 0.));
#325 = CARTESIAN_POINT('', (8.94427190999916, 0., 40.));
#326 = ADVANCED_FACE('', (#327), #341, .T.);
#327 = FACE_OUTER_BOUND('', #328, .T.);
#328 = EDGE_LOOP('', (#329, #334, #335, #340));
#329 = ORIENTED_EDGE('', *, *, #330, .T.);
#330 = EDGE_CURVE('', #303, #239, #331, .T.);
#331 = B_SPLINE_CURVE_WITH_KNOTS('', 1, (#332, #333), .UNSPECIFIED., .F., .U., (2, 2), (0., 80.), .UNSPECIFIED.);
#332 = CARTESIAN_POINT('', (0., 0., 0.));
#333 = CARTESIAN_POINT('', (0., 80., 0.));
#334 = ORIENTED_EDGE('', *, *, #261, .T.);
#335 = ORIENTED_EDGE('', *, *, #336, .F.);
#336 = EDGE_CURVE('', #310, #255, #337, .T.);
#337 = B_SPLINE_CURVE_WITH_KNOTS('', 1, (#338, #339), .UNSPECIFIED., .F., .U., (2, 2), (0., 80.), .UNSPECIFIED.);
#338 = CARTESIAN_POINT('', (8.94427190999916, 0., 0.));
#339 = CARTESIAN_POINT('', (8.94427190999916, 80., 0.));
#340 = ORIENTED_EDGE('', *, *, #309, .F.);
#341 = B_SPLINE_SURFACE_WITH_KNOTS('', 1, 1, ((#342, #343), (#344, #345)), .UNSPECIFIED., .F., .F., .U., (2, 2), (2, 2), (0., 80.), (0., 8.94427190999916), .UNSPECIFIED.);
#342 = CARTESIAN_POINT('', (0., 0., 0.));
#343 = CARTESIAN_POINT('', (8.94427190999916, 0., 0.));
#344 = CARTESIAN_POINT('', (0., 80., 0.));
#345 = CARTESIAN_POINT('', (8.94427190999916, 80., 0.));
#346 = ADVANCED_FACE('', (#347), #353, .T.);
#347 = FACE_OUTER_BOUND('', #348, .T.);
#348 = EDGE_LOOP('', (#349, #350, #351, #352));
#349 = ORIENTED_EDGE('', *, *, #316, .F.);
#350 = ORIENTED_EDGE('', *, *, #336, .T.);
#351 = ORIENTED_EDGE('', *, *, #254, .T.);
#352 = ORIENTED_EDGE('', *, *, #288, .F.);
#353 = B_SPLINE_SURFACE_WITH_KNOTS('', 1, 1, ((#354, #355), (#356, #357)), .UNSPECIFIED., .F., .F., .U., (2, 2), (2, 2), (0., 80.), (0., 40.), .UNSPECIFIED.);
#354 = CARTESIAN_POINT('', (8.94427190999916, 0., 0.));
#355 = CARTESIAN_POINT('', (8.94427190999916, 0., 40.));
#356 = CARTESIAN_POINT('', (8.94427190999916, 80., 0.));
#357 = CARTESIAN_POINT('', (8.94427190999916, 80., 40.));
#358 = ADVANCED_FACE('', (#359), #365, .T.);
#359 = FACE_OUTER_BOUND('', #360, .T.);
#360 = EDGE_LOOP('', (#361, #362, #363, #364));
#361 = ORIENTED_EDGE('', *, *, #302, .T.);
#362 = ORIENTED_EDGE('', *, *, #274, .T.);
#363 = ORIENTED_EDGE('', *, *, #238, .F.);
#364 = ORIENTED_EDGE('', *, *, #330, .F.);
#365 = B_SPLINE_SURFACE_WITH_KNOTS('', 1, 1, ((#366, #367), (#368, #369)), .UNSPECIFIED., .F., .F., .U., (2, 2), (2, 2), (0., 40.), (0., 80.), .UNSPECIFIED.);
#366 = CARTESIAN_POINT('', (0., 0., 0.));
#367 = CARTESIAN_POINT('', (0., 80., 0.));
#368 = CARTESIAN_POINT('', (0., 0., 40.));
#369 = CARTESIAN_POINT('', (0., 80., 40.));
#370 = PRESENTATION_STYLE_ASSIGNMENT((#371));
#371 = SURFACE_STYLE_USAGE(.POSITIVE., #372);
#372 = SURFACE_SIDE_STYLE('', (#373));
#373 = SURFACE_STYLE_FILL_AREA(#374);
#374 = FILL_AREA_STYLE('', (#375));
#375 = FILL_AREA_STYLE_COLOUR('', #376);
#376 = COLOUR_RGB('', 0.50196078431373, 0.50196078431373, 0.50196078431373);
#377 = STYLED_ITEM('', (#370), #232);
#378 = CARTESIAN_POINT('Origin', (0., 0., 0.));
#379 = GEOMETRIC_SET('', (#378));
#380 = (
   GEOMETRIC_REPRESENTATION_CONTEXT (3)
   GLOBAL_UNCERTAINTY_ASSIGNED_CONTEXT ((#382))
   GLOBAL_UNIT_ASSIGNED_CONTEXT ((#381, #383, #384))
   REPRESENTATION_CONTEXT ('', '3D')
);
#381 = (
   LENGTH_UNIT ()
   NAMED_UNIT (*)
   SI_UNIT (.MILLI., .METRE.)
);
#382 = UNCERTAINTY_MEASURE_WITH_UNIT(LENGTH_MEASURE(1.E-6), #381, 'DISTANCE_ACCURACY_VALUE', '');
#383 = (
   NAMED_UNIT (*)
   SI_UNIT ($, .STERADIAN.)
   SOLID_ANGLE_UNIT ()
);
#384 = (
   NAMED_UNIT (*)
   PLANE_ANGLE_UNIT ()
   SI_UNIT ($, .RADIAN.)
);
#385 = SHAPE_REPRESENTATION('', (#400), #380);
#386 = PRODUCT_DEFINITION_SHAPE('', '', #387);
#387 = PRODUCT_DEFINITION('', '', #390, #394);
#388 = APPLICATION_CONTEXT('configuration controlled 3D designs of mechanical parts and assemblies');
#389 = APPLICATION_PROTOCOL_DEFINITION('International Standard', 'automotive_design', 2002, #388);
#390 = PRODUCT_DEFINITION_FORMATION_WITH_SPECIFIED_SOURCE('', '', #391, .NOT_KNOWN.);
#391 = PRODUCT('Test', 'Test', '', (#392));
#392 = PRODUCT_CONTEXT('', #388, 'mechanical');
#393 = PRODUCT_RELATED_PRODUCT_CATEGORY('detail', '', (#391));
#394 = PRODUCT_DEFINITION_CONTEXT('part definition', #388, 'design');
#395 = SHAPE_DEFINITION_REPRESENTATION(#386, #385);
#396 = SHAPE_REPRESENTATION_RELATIONSHIP('', '', #385, #397);
#397 = SHAPE_REPRESENTATION('', (#379), #380);
#398 = SHAPE_REPRESENTATION_RELATIONSHIP('', '', #385, #399);
#399 = ADVANCED_BREP_SHAPE_REPRESENTATION('', (#1, #148, #232), #380);
#400 = AXIS2_PLACEMENT_3D('', #401, #402, #403);
#401 = CARTESIAN_POINT('', (0., 0., 0.));
#402 = DIRECTION('', (0., 0., 1.));
#403 = DIRECTION('', (1., 0., 0.));
ENDSEC;
END-ISO-10303-21;
