ISO-10303-21;
HEADER;
FILE_DESCRIPTION(('STEP'), '1');
FILE_NAME('FlangedBlock', '2026-03-24T18:53:29', (''), (''), 'Express 3.1.2.0', 'Express Tool', 'Unknown');
FILE_SCHEMA(('AUTOMOTIVE_DESIGN'));
ENDSEC;

DATA;
#1 = MANIFOLD_SOLID_BREP('BasePlate_0', #2);
#2 = CLOSED_SHELL('', (#3, #39, #67, #95, #115, #127));
#3 = ADVANCED_FACE('', (#4), #34, .T.);
#4 = FACE_OUTER_BOUND('', #5, .T.);
#5 = EDGE_LOOP('', (#6, #15, #22, #29));
#6 = ORIENTED_EDGE('', *, *, #7, .T.);
#7 = EDGE_CURVE('', #8, #10, #12, .T.);
#8 = VERTEX_POINT('', #9);
#9 = CARTESIAN_POINT('', (0., 80., 0.));
#10 = VERTEX_POINT('', #11);
#11 = CARTESIAN_POINT('', (0., 80., 30.));
#12 = B_SPLINE_CURVE_WITH_KNOTS('', 1, (#13, #14), .UNSPECIFIED., .F., .U., (2, 2), (0., 30.), .UNSPECIFIED.);
#13 = CARTESIAN_POINT('', (0., 80., 0.));
#14 = CARTESIAN_POINT('', (0., 80., 30.));
#15 = ORIENTED_EDGE('', *, *, #16, .T.);
#16 = EDGE_CURVE('', #10, #17, #19, .T.);
#17 = VERTEX_POINT('', #18);
#18 = CARTESIAN_POINT('', (200., 80., 30.));
#19 = B_SPLINE_CURVE_WITH_KNOTS('', 1, (#20, #21), .UNSPECIFIED., .F., .U., (2, 2), (0., 200.), .UNSPECIFIED.);
#20 = CARTESIAN_POINT('', (0., 80., 30.));
#21 = CARTESIAN_POINT('', (200., 80., 30.));
#22 = ORIENTED_EDGE('', *, *, #23, .F.);
#23 = EDGE_CURVE('', #24, #17, #26, .T.);
#24 = VERTEX_POINT('', #25);
#25 = CARTESIAN_POINT('', (200., 80., 0.));
#26 = B_SPLINE_CURVE_WITH_KNOTS('', 1, (#27, #28), .UNSPECIFIED., .F., .U., (2, 2), (0., 30.), .UNSPECIFIED.);
#27 = CARTESIAN_POINT('', (200., 80., 0.));
#28 = CARTESIAN_POINT('', (200., 80., 30.));
#29 = ORIENTED_EDGE('', *, *, #30, .F.);
#30 = EDGE_CURVE('', #8, #24, #31, .T.);
#31 = B_SPLINE_CURVE_WITH_KNOTS('', 1, (#32, #33), .UNSPECIFIED., .F., .U., (2, 2), (0., 200.), .UNSPECIFIED.);
#32 = CARTESIAN_POINT('', (0., 80., 0.));
#33 = CARTESIAN_POINT('', (200., 80., 0.));
#34 = B_SPLINE_SURFACE_WITH_KNOTS('', 1, 1, ((#35, #36), (#37, #38)), .UNSPECIFIED., .F., .F., .U., (2, 2), (2, 2), (0., 30.), (0., 200.), .UNSPECIFIED.);
#35 = CARTESIAN_POINT('', (0., 80., 0.));
#36 = CARTESIAN_POINT('', (200., 80., 0.));
#37 = CARTESIAN_POINT('', (0., 80., 30.));
#38 = CARTESIAN_POINT('', (200., 80., 30.));
#39 = ADVANCED_FACE('', (#40), #62, .T.);
#40 = FACE_OUTER_BOUND('', #41, .T.);
#41 = EDGE_LOOP('', (#42, #49, #56, #61));
#42 = ORIENTED_EDGE('', *, *, #43, .F.);
#43 = EDGE_CURVE('', #44, #10, #46, .T.);
#44 = VERTEX_POINT('', #45);
#45 = CARTESIAN_POINT('', (0., 0., 30.));
#46 = B_SPLINE_CURVE_WITH_KNOTS('', 1, (#47, #48), .UNSPECIFIED., .F., .U., (2, 2), (0., 80.), .UNSPECIFIED.);
#47 = CARTESIAN_POINT('', (0., 0., 30.));
#48 = CARTESIAN_POINT('', (0., 80., 30.));
#49 = ORIENTED_EDGE('', *, *, #50, .T.);
#50 = EDGE_CURVE('', #44, #51, #53, .T.);
#51 = VERTEX_POINT('', #52);
#52 = CARTESIAN_POINT('', (200., 0., 30.));
#53 = B_SPLINE_CURVE_WITH_KNOTS('', 1, (#54, #55), .UNSPECIFIED., .F., .U., (2, 2), (0., 200.), .UNSPECIFIED.);
#54 = CARTESIAN_POINT('', (0., 0., 30.));
#55 = CARTESIAN_POINT('', (200., 0., 30.));
#56 = ORIENTED_EDGE('', *, *, #57, .T.);
#57 = EDGE_CURVE('', #51, #17, #58, .T.);
#58 = B_SPLINE_CURVE_WITH_KNOTS('', 1, (#59, #60), .UNSPECIFIED., .F., .U., (2, 2), (0., 80.), .UNSPECIFIED.);
#59 = CARTESIAN_POINT('', (200., 0., 30.));
#60 = CARTESIAN_POINT('', (200., 80., 30.));
#61 = ORIENTED_EDGE('', *, *, #16, .F.);
#62 = B_SPLINE_SURFACE_WITH_KNOTS('', 1, 1, ((#63, #64), (#65, #66)), .UNSPECIFIED., .F., .F., .U., (2, 2), (2, 2), (0., 200.), (0., 80.), .UNSPECIFIED.);
#63 = CARTESIAN_POINT('', (0., 0., 30.));
#64 = CARTESIAN_POINT('', (0., 80., 30.));
#65 = CARTESIAN_POINT('', (200., 0., 30.));
#66 = CARTESIAN_POINT('', (200., 80., 30.));
#67 = ADVANCED_FACE('', (#68), #90, .T.);
#68 = FACE_OUTER_BOUND('', #69, .T.);
#69 = EDGE_LOOP('', (#70, #77, #84, #89));
#70 = ORIENTED_EDGE('', *, *, #71, .F.);
#71 = EDGE_CURVE('', #72, #44, #74, .T.);
#72 = VERTEX_POINT('', #73);
#73 = CARTESIAN_POINT('', (0., 0., 0.));
#74 = B_SPLINE_CURVE_WITH_KNOTS('', 1, (#75, #76), .UNSPECIFIED., .F., .U., (2, 2), (0., 30.), .UNSPECIFIED.);
#75 = CARTESIAN_POINT('', (0., 0., 0.));
#76 = CARTESIAN_POINT('', (0., 0., 30.));
#77 = ORIENTED_EDGE('', *, *, #78, .T.);
#78 = EDGE_CURVE('', #72, #79, #81, .T.);
#79 = VERTEX_POINT('', #80);
#80 = CARTESIAN_POINT('', (200., 0., 0.));
#81 = B_SPLINE_CURVE_WITH_KNOTS('', 1, (#82, #83), .UNSPECIFIED., .F., .U., (2, 2), (0., 200.), .UNSPECIFIED.);
#82 = CARTESIAN_POINT('', (0., 0., 0.));
#83 = CARTESIAN_POINT('', (200., 0., 0.));
#84 = ORIENTED_EDGE('', *, *, #85, .T.);
#85 = EDGE_CURVE('', #79, #51, #86, .T.);
#86 = B_SPLINE_CURVE_WITH_KNOTS('', 1, (#87, #88), .UNSPECIFIED., .F., .U., (2, 2), (0., 30.), .UNSPECIFIED.);
#87 = CARTESIAN_POINT('', (200., 0., 0.));
#88 = CARTESIAN_POINT('', (200., 0., 30.));
#89 = ORIENTED_EDGE('', *, *, #50, .F.);
#90 = B_SPLINE_SURFACE_WITH_KNOTS('', 1, 1, ((#91, #92), (#93, #94)), .UNSPECIFIED., .F., .F., .U., (2, 2), (2, 2), (0., 200.), (0., 30.), .UNSPECIFIED.);
#91 = CARTESIAN_POINT('', (0., 0., 0.));
#92 = CARTESIAN_POINT('', (0., 0., 30.));
#93 = CARTESIAN_POINT('', (200., 0., 0.));
#94 = CARTESIAN_POINT('', (200., 0., 30.));
#95 = ADVANCED_FACE('', (#96), #110, .T.);
#96 = FACE_OUTER_BOUND('', #97, .T.);
#97 = EDGE_LOOP('', (#98, #103, #104, #109));
#98 = ORIENTED_EDGE('', *, *, #99, .T.);
#99 = EDGE_CURVE('', #72, #8, #100, .T.);
#100 = B_SPLINE_CURVE_WITH_KNOTS('', 1, (#101, #102), .UNSPECIFIED., .F., .U., (2, 2), (0., 80.), .UNSPECIFIED.);
#101 = CARTESIAN_POINT('', (0., 0., 0.));
#102 = CARTESIAN_POINT('', (0., 80., 0.));
#103 = ORIENTED_EDGE('', *, *, #30, .T.);
#104 = ORIENTED_EDGE('', *, *, #105, .F.);
#105 = EDGE_CURVE('', #79, #24, #106, .T.);
#106 = B_SPLINE_CURVE_WITH_KNOTS('', 1, (#107, #108), .UNSPECIFIED., .F., .U., (2, 2), (0., 80.), .UNSPECIFIED.);
#107 = CARTESIAN_POINT('', (200., 0., 0.));
#108 = CARTESIAN_POINT('', (200., 80., 0.));
#109 = ORIENTED_EDGE('', *, *, #78, .F.);
#110 = B_SPLINE_SURFACE_WITH_KNOTS('', 1, 1, ((#111, #112), (#113, #114)), .UNSPECIFIED., .F., .F., .U., (2, 2), (2, 2), (0., 80.), (0., 200.), .UNSPECIFIED.);
#111 = CARTESIAN_POINT('', (0., 0., 0.));
#112 = CARTESIAN_POINT('', (200., 0., 0.));
#113 = CARTESIAN_POINT('', (0., 80., 0.));
#114 = CARTESIAN_POINT('', (200., 80., 0.));
#115 = ADVANCED_FACE('', (#116), #122, .T.);
#116 = FACE_OUTER_BOUND('', #117, .T.);
#117 = EDGE_LOOP('', (#118, #119, #120, #121));
#118 = ORIENTED_EDGE('', *, *, #85, .F.);
#119 = ORIENTED_EDGE('', *, *, #105, .T.);
#120 = ORIENTED_EDGE('', *, *, #23, .T.);
#121 = ORIENTED_EDGE('', *, *, #57, .F.);
#122 = B_SPLINE_SURFACE_WITH_KNOTS('', 1, 1, ((#123, #124), (#125, #126)), .UNSPECIFIED., .F., .F., .U., (2, 2), (2, 2), (0., 80.), (0., 30.), .UNSPECIFIED.);
#123 = CARTESIAN_POINT('', (200., 0., 0.));
#124 = CARTESIAN_POINT('', (200., 0., 30.));
#125 = CARTESIAN_POINT('', (200., 80., 0.));
#126 = CARTESIAN_POINT('', (200., 80., 30.));
#127 = ADVANCED_FACE('', (#128), #134, .T.);
#128 = FACE_OUTER_BOUND('', #129, .T.);
#129 = EDGE_LOOP('', (#130, #131, #132, #133));
#130 = ORIENTED_EDGE('', *, *, #71, .T.);
#131 = ORIENTED_EDGE('', *, *, #43, .T.);
#132 = ORIENTED_EDGE('', *, *, #7, .F.);
#133 = ORIENTED_EDGE('', *, *, #99, .F.);
#134 = B_SPLINE_SURFACE_WITH_KNOTS('', 1, 1, ((#135, #136), (#137, #138)), .UNSPECIFIED., .F., .F., .U., (2, 2), (2, 2), (0., 30.), (0., 80.), .UNSPECIFIED.);
#135 = CARTESIAN_POINT('', (0., 0., 0.));
#136 = CARTESIAN_POINT('', (0., 80., 0.));
#137 = CARTESIAN_POINT('', (0., 0., 30.));
#138 = CARTESIAN_POINT('', (0., 80., 30.));
#139 = DRAUGHTING_MODEL('', (#147, #293, #377), #384);
#140 = PRESENTATION_STYLE_ASSIGNMENT((#141));
#141 = SURFACE_STYLE_USAGE(.POSITIVE., #142);
#142 = SURFACE_SIDE_STYLE('', (#143));
#143 = SURFACE_STYLE_FILL_AREA(#144);
#144 = FILL_AREA_STYLE('', (#145));
#145 = FILL_AREA_STYLE_COLOUR('', #146);
#146 = COLOUR_RGB('', 0.50196078431373, 0.50196078431373, 0.50196078431373);
#147 = STYLED_ITEM('', (#140), #1);
#148 = MANIFOLD_SOLID_BREP('Tower_0', #149);
#149 = CLOSED_SHELL('', (#150, #186, #214, #242, #262, #274));
#150 = ADVANCED_FACE('', (#151), #181, .T.);
#151 = FACE_OUTER_BOUND('', #152, .T.);
#152 = EDGE_LOOP('', (#153, #162, #169, #176));
#153 = ORIENTED_EDGE('', *, *, #154, .T.);
#154 = EDGE_CURVE('', #155, #157, #159, .T.);
#155 = VERTEX_POINT('', #156);
#156 = CARTESIAN_POINT('', (50., 60., 30.));
#157 = VERTEX_POINT('', #158);
#158 = CARTESIAN_POINT('', (50., 60., 190.));
#159 = B_SPLINE_CURVE_WITH_KNOTS('', 1, (#160, #161), .UNSPECIFIED., .F., .U., (2, 2), (0., 160.), .UNSPECIFIED.);
#160 = CARTESIAN_POINT('', (50., 60., 30.));
#161 = CARTESIAN_POINT('', (50., 60., 190.));
#162 = ORIENTED_EDGE('', *, *, #163, .T.);
#163 = EDGE_CURVE('', #157, #164, #166, .T.);
#164 = VERTEX_POINT('', #165);
#165 = CARTESIAN_POINT('', (150., 60., 190.));
#166 = B_SPLINE_CURVE_WITH_KNOTS('', 1, (#167, #168), .UNSPECIFIED., .F., .U., (2, 2), (0., 100.), .UNSPECIFIED.);
#167 = CARTESIAN_POINT('', (50., 60., 190.));
#168 = CARTESIAN_POINT('', (150., 60., 190.));
#169 = ORIENTED_EDGE('', *, *, #170, .F.);
#170 = EDGE_CURVE('', #171, #164, #173, .T.);
#171 = VERTEX_POINT('', #172);
#172 = CARTESIAN_POINT('', (150., 60., 30.));
#173 = B_SPLINE_CURVE_WITH_KNOTS('', 1, (#174, #175), .UNSPECIFIED., .F., .U., (2, 2), (0., 160.), .UNSPECIFIED.);
#174 = CARTESIAN_POINT('', (150., 60., 30.));
#175 = CARTESIAN_POINT('', (150., 60., 190.));
#176 = ORIENTED_EDGE('', *, *, #177, .F.);
#177 = EDGE_CURVE('', #155, #171, #178, .T.);
#178 = B_SPLINE_CURVE_WITH_KNOTS('', 1, (#179, #180), .UNSPECIFIED., .F., .U., (2, 2), (0., 100.), .UNSPECIFIED.);
#179 = CARTESIAN_POINT('', (50., 60., 30.));
#180 = CARTESIAN_POINT('', (150., 60., 30.));
#181 = B_SPLINE_SURFACE_WITH_KNOTS('', 1, 1, ((#182, #183), (#184, #185)), .UNSPECIFIED., .F., .F., .U., (2, 2), (2, 2), (0., 160.), (0., 100.), .UNSPECIFIED.);
#182 = CARTESIAN_POINT('', (50., 60., 30.));
#183 = CARTESIAN_POINT('', (150., 60., 30.));
#184 = CARTESIAN_POINT('', (50., 60., 190.));
#185 = CARTESIAN_POINT('', (150., 60., 190.));
#186 = ADVANCED_FACE('', (#187), #209, .T.);
#187 = FACE_OUTER_BOUND('', #188, .T.);
#188 = EDGE_LOOP('', (#189, #196, #203, #208));
#189 = ORIENTED_EDGE('', *, *, #190, .F.);
#190 = EDGE_CURVE('', #191, #157, #193, .T.);
#191 = VERTEX_POINT('', #192);
#192 = CARTESIAN_POINT('', (50., 20., 190.));
#193 = B_SPLINE_CURVE_WITH_KNOTS('', 1, (#194, #195), .UNSPECIFIED., .F., .U., (2, 2), (0., 40.), .UNSPECIFIED.);
#194 = CARTESIAN_POINT('', (50., 20., 190.));
#195 = CARTESIAN_POINT('', (50., 60., 190.));
#196 = ORIENTED_EDGE('', *, *, #197, .T.);
#197 = EDGE_CURVE('', #191, #198, #200, .T.);
#198 = VERTEX_POINT('', #199);
#199 = CARTESIAN_POINT('', (150., 20., 190.));
#200 = B_SPLINE_CURVE_WITH_KNOTS('', 1, (#201, #202), .UNSPECIFIED., .F., .U., (2, 2), (0., 100.), .UNSPECIFIED.);
#201 = CARTESIAN_POINT('', (50., 20., 190.));
#202 = CARTESIAN_POINT('', (150., 20., 190.));
#203 = ORIENTED_EDGE('', *, *, #204, .T.);
#204 = EDGE_CURVE('', #198, #164, #205, .T.);
#205 = B_SPLINE_CURVE_WITH_KNOTS('', 1, (#206, #207), .UNSPECIFIED., .F., .U., (2, 2), (0., 40.), .UNSPECIFIED.);
#206 = CARTESIAN_POINT('', (150., 20., 190.));
#207 = CARTESIAN_POINT('', (150., 60., 190.));
#208 = ORIENTED_EDGE('', *, *, #163, .F.);
#209 = B_SPLINE_SURFACE_WITH_KNOTS('', 1, 1, ((#210, #211), (#212, #213)), .UNSPECIFIED., .F., .F., .U., (2, 2), (2, 2), (0., 100.), (0., 40.), .UNSPECIFIED.);
#210 = CARTESIAN_POINT('', (50., 20., 190.));
#211 = CARTESIAN_POINT('', (50., 60., 190.));
#212 = CARTESIAN_POINT('', (150., 20., 190.));
#213 = CARTESIAN_POINT('', (150., 60., 190.));
#214 = ADVANCED_FACE('', (#215), #237, .T.);
#215 = FACE_OUTER_BOUND('', #216, .T.);
#216 = EDGE_LOOP('', (#217, #224, #231, #236));
#217 = ORIENTED_EDGE('', *, *, #218, .F.);
#218 = EDGE_CURVE('', #219, #191, #221, .T.);
#219 = VERTEX_POINT('', #220);
#220 = CARTESIAN_POINT('', (50., 20., 30.));
#221 = B_SPLINE_CURVE_WITH_KNOTS('', 1, (#222, #223), .UNSPECIFIED., .F., .U., (2, 2), (0., 160.), .UNSPECIFIED.);
#222 = CARTESIAN_POINT('', (50., 20., 30.));
#223 = CARTESIAN_POINT('', (50., 20., 190.));
#224 = ORIENTED_EDGE('', *, *, #225, .T.);
#225 = EDGE_CURVE('', #219, #226, #228, .T.);
#226 = VERTEX_POINT('', #227);
#227 = CARTESIAN_POINT('', (150., 20., 30.));
#228 = B_SPLINE_CURVE_WITH_KNOTS('', 1, (#229, #230), .UNSPECIFIED., .F., .U., (2, 2), (0., 100.), .UNSPECIFIED.);
#229 = CARTESIAN_POINT('', (50., 20., 30.));
#230 = CARTESIAN_POINT('', (150., 20., 30.));
#231 = ORIENTED_EDGE('', *, *, #232, .T.);
#232 = EDGE_CURVE('', #226, #198, #233, .T.);
#233 = B_SPLINE_CURVE_WITH_KNOTS('', 1, (#234, #235), .UNSPECIFIED., .F., .U., (2, 2), (0., 160.), .UNSPECIFIED.);
#234 = CARTESIAN_POINT('', (150., 20., 30.));
#235 = CARTESIAN_POINT('', (150., 20., 190.));
#236 = ORIENTED_EDGE('', *, *, #197, .F.);
#237 = B_SPLINE_SURFACE_WITH_KNOTS('', 1, 1, ((#238, #239), (#240, #241)), .UNSPECIFIED., .F., .F., .U., (2, 2), (2, 2), (0., 100.), (0., 160.), .UNSPECIFIED.);
#238 = CARTESIAN_POINT('', (50., 20., 30.));
#239 = CARTESIAN_POINT('', (50., 20., 190.));
#240 = CARTESIAN_POINT('', (150., 20., 30.));
#241 = CARTESIAN_POINT('', (150., 20., 190.));
#242 = ADVANCED_FACE('', (#243), #257, .T.);
#243 = FACE_OUTER_BOUND('', #244, .T.);
#244 = EDGE_LOOP('', (#245, #250, #251, #256));
#245 = ORIENTED_EDGE('', *, *, #246, .T.);
#246 = EDGE_CURVE('', #219, #155, #247, .T.);
#247 = B_SPLINE_CURVE_WITH_KNOTS('', 1, (#248, #249), .UNSPECIFIED., .F., .U., (2, 2), (0., 40.), .UNSPECIFIED.);
#248 = CARTESIAN_POINT('', (50., 20., 30.));
#249 = CARTESIAN_POINT('', (50., 60., 30.));
#250 = ORIENTED_EDGE('', *, *, #177, .T.);
#251 = ORIENTED_EDGE('', *, *, #252, .F.);
#252 = EDGE_CURVE('', #226, #171, #253, .T.);
#253 = B_SPLINE_CURVE_WITH_KNOTS('', 1, (#254, #255), .UNSPECIFIED., .F., .U., (2, 2), (0., 40.), .UNSPECIFIED.);
#254 = CARTESIAN_POINT('', (150., 20., 30.));
#255 = CARTESIAN_POINT('', (150., 60., 30.));
#256 = ORIENTED_EDGE('', *, *, #225, .F.);
#257 = B_SPLINE_SURFACE_WITH_KNOTS('', 1, 1, ((#258, #259), (#260, #261)), .UNSPECIFIED., .F., .F., .U., (2, 2), (2, 2), (0., 40.), (0., 100.), .UNSPECIFIED.);
#258 = CARTESIAN_POINT('', (50., 20., 30.));
#259 = CARTESIAN_POINT('', (150., 20., 30.));
#260 = CARTESIAN_POINT('', (50., 60., 30.));
#261 = CARTESIAN_POINT('', (150., 60., 30.));
#262 = ADVANCED_FACE('', (#263), #269, .T.);
#263 = FACE_OUTER_BOUND('', #264, .T.);
#264 = EDGE_LOOP('', (#265, #266, #267, #268));
#265 = ORIENTED_EDGE('', *, *, #232, .F.);
#266 = ORIENTED_EDGE('', *, *, #252, .T.);
#267 = ORIENTED_EDGE('', *, *, #170, .T.);
#268 = ORIENTED_EDGE('', *, *, #204, .F.);
#269 = B_SPLINE_SURFACE_WITH_KNOTS('', 1, 1, ((#270, #271), (#272, #273)), .UNSPECIFIED., .F., .F., .U., (2, 2), (2, 2), (0., 40.), (0., 160.), .UNSPECIFIED.);
#270 = CARTESIAN_POINT('', (150., 20., 30.));
#271 = CARTESIAN_POINT('', (150., 20., 190.));
#272 = CARTESIAN_POINT('', (150., 60., 30.));
#273 = CARTESIAN_POINT('', (150., 60., 190.));
#274 = ADVANCED_FACE('', (#275), #281, .T.);
#275 = FACE_OUTER_BOUND('', #276, .T.);
#276 = EDGE_LOOP('', (#277, #278, #279, #280));
#277 = ORIENTED_EDGE('', *, *, #218, .T.);
#278 = ORIENTED_EDGE('', *, *, #190, .T.);
#279 = ORIENTED_EDGE('', *, *, #154, .F.);
#280 = ORIENTED_EDGE('', *, *, #246, .F.);
#281 = B_SPLINE_SURFACE_WITH_KNOTS('', 1, 1, ((#282, #283), (#284, #285)), .UNSPECIFIED., .F., .F., .U., (2, 2), (2, 2), (0., 160.), (0., 40.), .UNSPECIFIED.);
#282 = CARTESIAN_POINT('', (50., 20., 30.));
#283 = CARTESIAN_POINT('', (50., 60., 30.));
#284 = CARTESIAN_POINT('', (50., 20., 190.));
#285 = CARTESIAN_POINT('', (50., 60., 190.));
#286 = PRESENTATION_STYLE_ASSIGNMENT((#287));
#287 = SURFACE_STYLE_USAGE(.POSITIVE., #288);
#288 = SURFACE_SIDE_STYLE('', (#289));
#289 = SURFACE_STYLE_FILL_AREA(#290);
#290 = FILL_AREA_STYLE('', (#291));
#291 = FILL_AREA_STYLE_COLOUR('', #292);
#292 = COLOUR_RGB('', 0.50196078431373, 0.50196078431373, 0.50196078431373);
#293 = STYLED_ITEM('', (#286), #148);
#294 = MANIFOLD_SOLID_BREP('Hole_0', #295);
#295 = CLOSED_SHELL('', (#296, #352, #361));
#296 = ADVANCED_FACE('', (#297), #333, .T.);
#297 = FACE_OUTER_BOUND('', #298, .T.);
#298 = EDGE_LOOP('', (#299, #308, #320, #321));
#299 = ORIENTED_EDGE('', *, *, #300, .F.);
#300 = EDGE_CURVE('', #301, #303, #305, .T.);
#301 = VERTEX_POINT('', #302);
#302 = CARTESIAN_POINT('', (62., 20., 30.));
#303 = VERTEX_POINT('', #304);
#304 = CARTESIAN_POINT('', (62., 20., 190.));
#305 = B_SPLINE_CURVE_WITH_KNOTS('', 1, (#306, #307), .UNSPECIFIED., .F., .U., (2, 2), (0., 160.), .UNSPECIFIED.);
#306 = CARTESIAN_POINT('', (62., 20., 30.));
#307 = CARTESIAN_POINT('', (62., 20., 190.));
#308 = ORIENTED_EDGE('', *, *, #309, .T.);
#309 = EDGE_CURVE('', #301, #301, #310, .T.);
#310 = (
   BOUNDED_CURVE ()
   B_SPLINE_CURVE (2, (#311, #312, #313, #314, #315, #316, #317, #318, #319), .UNSPECIFIED., .T., .U.)
   B_SPLINE_CURVE_WITH_KNOTS ((3, 2, 2, 2, 3), (0., 18.8495559215388, 37.6991118430775, 56.5486677646163, 75.398223686155), .UNSPECIFIED.)
   CURVE ()
   GEOMETRIC_REPRESENTATION_ITEM ()
   RATIONAL_B_SPLINE_CURVE ((1., 0.707106781186548, 1., 0.707106781186548, 1., 0.707106781186548, 1., 0.707106781186548, 1.))
   REPRESENTATION_ITEM ('')
);
#311 = CARTESIAN_POINT('', (62., 20., 30.));
#312 = CARTESIAN_POINT('', (62., 32., 30.));
#313 = CARTESIAN_POINT('', (50., 32., 30.));
#314 = CARTESIAN_POINT('', (38., 32., 30.));
#315 = CARTESIAN_POINT('', (38., 20., 30.));
#316 = CARTESIAN_POINT('', (38., 8., 30.));
#317 = CARTESIAN_POINT('', (50., 8., 30.));
#318 = CARTESIAN_POINT('', (62., 8., 30.));
#319 = CARTESIAN_POINT('', (62., 20., 30.));
#320 = ORIENTED_EDGE('', *, *, #300, .T.);
#321 = ORIENTED_EDGE('', *, *, #322, .F.);
#322 = EDGE_CURVE('', #303, #303, #323, .T.);
#323 = (
   BOUNDED_CURVE ()
   B_SPLINE_CURVE (2, (#324, #325, #326, #327, #328, #329, #330, #331, #332), .UNSPECIFIED., .T., .U.)
   B_SPLINE_CURVE_WITH_KNOTS ((3, 2, 2, 2, 3), (0., 18.8495559215388, 37.6991118430775, 56.5486677646163, 75.398223686155), .UNSPECIFIED.)
   CURVE ()
   GEOMETRIC_REPRESENTATION_ITEM ()
   RATIONAL_B_SPLINE_CURVE ((1., 0.707106781186548, 1., 0.707106781186548, 1., 0.707106781186548, 1., 0.707106781186548, 1.))
   REPRESENTATION_ITEM ('')
);
#324 = CARTESIAN_POINT('', (62., 20., 190.));
#325 = CARTESIAN_POINT('', (62., 32., 190.));
#326 = CARTESIAN_POINT('', (50., 32., 190.));
#327 = CARTESIAN_POINT('', (38., 32., 190.));
#328 = CARTESIAN_POINT('', (38., 20., 190.));
#329 = CARTESIAN_POINT('', (38., 8., 190.));
#330 = CARTESIAN_POINT('', (50., 8., 190.));
#331 = CARTESIAN_POINT('', (62., 8., 190.));
#332 = CARTESIAN_POINT('', (62., 20., 190.));
#333 = (
   BOUNDED_SURFACE ()
   B_SPLINE_SURFACE (2, 1, ((#334, #335), (#336, #337), (#338, #339), (#340, #341), (#342, #343), (#344, #345), (#346, #347), (#348, #349), (#350, #351)), .UNSPECIFIED., .T., .F., .U.)
   B_SPLINE_SURFACE_WITH_KNOTS ((3, 2, 2, 2, 3), (2, 2), (0., 18.8495559215388, 37.6991118430775, 56.5486677646163, 75.398223686155), (0., 160.), .UNSPECIFIED.)
   GEOMETRIC_REPRESENTATION_ITEM ()
   RATIONAL_B_SPLINE_SURFACE (((1., 1.), (0.707106781186548, 0.707106781186548), (1., 1.), (0.707106781186548, 0.707106781186548), (1., 1.), (0.707106781186548, 0.707106781186548), (1., 1.), (0.707106781186548, 0.707106781186548), (1., 1.)))
   REPRESENTATION_ITEM ('')
   SURFACE ()
);
#334 = CARTESIAN_POINT('', (62., 20., 30.));
#335 = CARTESIAN_POINT('', (62., 20., 190.));
#336 = CARTESIAN_POINT('', (62., 32., 30.));
#337 = CARTESIAN_POINT('', (62., 32., 190.));
#338 = CARTESIAN_POINT('', (50., 32., 30.));
#339 = CARTESIAN_POINT('', (50., 32., 190.));
#340 = CARTESIAN_POINT('', (38., 32., 30.));
#341 = CARTESIAN_POINT('', (38., 32., 190.));
#342 = CARTESIAN_POINT('', (38., 20., 30.));
#343 = CARTESIAN_POINT('', (38., 20., 190.));
#344 = CARTESIAN_POINT('', (38., 8., 30.));
#345 = CARTESIAN_POINT('', (38., 8., 190.));
#346 = CARTESIAN_POINT('', (50., 8., 30.));
#347 = CARTESIAN_POINT('', (50., 8., 190.));
#348 = CARTESIAN_POINT('', (62., 8., 30.));
#349 = CARTESIAN_POINT('', (62., 8., 190.));
#350 = CARTESIAN_POINT('', (62., 20., 30.));
#351 = CARTESIAN_POINT('', (62., 20., 190.));
#352 = ADVANCED_FACE('', (#353), #356, .T.);
#353 = FACE_OUTER_BOUND('', #354, .T.);
#354 = EDGE_LOOP('', (#355));
#355 = ORIENTED_EDGE('', *, *, #309, .F.);
#356 = B_SPLINE_SURFACE_WITH_KNOTS('', 1, 1, ((#357, #358), (#359, #360)), .UNSPECIFIED., .F., .F., .U., (2, 2), (2, 2), (0., 1.), (0., 1.), .UNSPECIFIED.);
#357 = CARTESIAN_POINT('', (68.6676190233249, 1.33238097667514, 30.));
#358 = CARTESIAN_POINT('', (68.6676190233249, 38.6676190233249, 30.));
#359 = CARTESIAN_POINT('', (31.3323809766751, 1.33238097667514, 30.));
#360 = CARTESIAN_POINT('', (31.3323809766751, 38.6676190233249, 30.));
#361 = ADVANCED_FACE('', (#362), #365, .T.);
#362 = FACE_OUTER_BOUND('', #363, .T.);
#363 = EDGE_LOOP('', (#364));
#364 = ORIENTED_EDGE('', *, *, #322, .T.);
#365 = B_SPLINE_SURFACE_WITH_KNOTS('', 1, 1, ((#366, #367), (#368, #369)), .UNSPECIFIED., .F., .F., .U., (2, 2), (2, 2), (0., 1.), (0., 1.), .UNSPECIFIED.);
#366 = CARTESIAN_POINT('', (68.6676190233249, 1.33238097667514, 190.));
#367 = CARTESIAN_POINT('', (31.3323809766751, 1.33238097667514, 190.));
#368 = CARTESIAN_POINT('', (68.6676190233249, 38.6676190233249, 190.));
#369 = CARTESIAN_POINT('', (31.3323809766751, 38.6676190233249, 190.));
#370 = PRESENTATION_STYLE_ASSIGNMENT((#371));
#371 = SURFACE_STYLE_USAGE(.POSITIVE., #372);
#372 = SURFACE_SIDE_STYLE('', (#373));
#373 = SURFACE_STYLE_FILL_AREA(#374);
#374 = FILL_AREA_STYLE('', (#375));
#375 = FILL_AREA_STYLE_COLOUR('', #376);
#376 = COLOUR_RGB('', 0.50196078431373, 0.50196078431373, 0.50196078431373);
#377 = STYLED_ITEM('', (#370), #294);
#378 = CARTESIAN_POINT('Origin', (0., 0., 0.));
#379 = GEOMETRIC_SET('', (#378));
#380 = AXIS2_PLACEMENT_3D('TowerOrigin', #381, #382, #383);
#381 = CARTESIAN_POINT('', (50., 20., 30.));
#382 = DIRECTION('', (0., 0., 1.));
#383 = DIRECTION('', (1., 0., 0.));
#384 = (
   GEOMETRIC_REPRESENTATION_CONTEXT (3)
   GLOBAL_UNCERTAINTY_ASSIGNED_CONTEXT ((#386))
   GLOBAL_UNIT_ASSIGNED_CONTEXT ((#385, #387, #388))
   REPRESENTATION_CONTEXT ('', '3D')
);
#385 = (
   LENGTH_UNIT ()
   NAMED_UNIT (*)
   SI_UNIT (.MILLI., .METRE.)
);
#386 = UNCERTAINTY_MEASURE_WITH_UNIT(LENGTH_MEASURE(1.E-6), #385, 'DISTANCE_ACCURACY_VALUE', '');
#387 = (
   NAMED_UNIT (*)
   SI_UNIT ($, .STERADIAN.)
   SOLID_ANGLE_UNIT ()
);
#388 = (
   NAMED_UNIT (*)
   PLANE_ANGLE_UNIT ()
   SI_UNIT ($, .RADIAN.)
);
#389 = SHAPE_REPRESENTATION('', (#406), #384);
#390 = PRODUCT_DEFINITION_SHAPE('', '', #391);
#391 = PRODUCT_DEFINITION('', '', #394, #398);
#392 = APPLICATION_CONTEXT('configuration controlled 3D designs of mechanical parts and assemblies');
#393 = APPLICATION_PROTOCOL_DEFINITION('International Standard', 'automotive_design', 2002, #392);
#394 = PRODUCT_DEFINITION_FORMATION_WITH_SPECIFIED_SOURCE('', '', #395, .NOT_KNOWN.);
#395 = PRODUCT('FlangedBlock', 'FlangedBlock', '', (#396));
#396 = PRODUCT_CONTEXT('', #392, 'mechanical');
#397 = PRODUCT_RELATED_PRODUCT_CATEGORY('detail', '', (#395));
#398 = PRODUCT_DEFINITION_CONTEXT('part definition', #392, 'design');
#399 = SHAPE_DEFINITION_REPRESENTATION(#390, #389);
#400 = CONSTRUCTIVE_GEOMETRY_REPRESENTATION('supplemental geometry', (#380), #384);
#401 = CONSTRUCTIVE_GEOMETRY_REPRESENTATION_RELATIONSHIP('', '', #389, #400);
#402 = SHAPE_REPRESENTATION_RELATIONSHIP('', '', #389, #403);
#403 = SHAPE_REPRESENTATION('', (#379), #384);
#404 = SHAPE_REPRESENTATION_RELATIONSHIP('', '', #389, #405);
#405 = ADVANCED_BREP_SHAPE_REPRESENTATION('', (#1, #148, #294), #384);
#406 = AXIS2_PLACEMENT_3D('', #407, #408, #409);
#407 = CARTESIAN_POINT('', (0., 0., 0.));
#408 = DIRECTION('', (0., 0., 1.));
#409 = DIRECTION('', (1., 0., 0.));
ENDSEC;
END-ISO-10303-21;
