ISO-10303-21;
HEADER;
FILE_DESCRIPTION(('STEP'), '1');
FILE_NAME('MultiSphere', '2026-04-13T13:17:04', (''), (''), 'Express 3.1.2.0', 'Express Tool', 'Unknown');
FILE_SCHEMA(('AUTOMOTIVE_DESIGN'));
ENDSEC;

DATA;
#1 = MANIFOLD_SOLID_BREP('Solid', #2);
#2 = CLOSED_SHELL('', (#3));
#3 = ADVANCED_FACE('', (#4), #19, .T.);
#4 = FACE_OUTER_BOUND('', #5, .T.);
#5 = EDGE_LOOP('', (#6, #18));
#6 = ORIENTED_EDGE('', *, *, #7, .F.);
#7 = EDGE_CURVE('', #8, #10, #12, .T.);
#8 = VERTEX_POINT('', #9);
#9 = CARTESIAN_POINT('', (-4.59242549680257E-15, 0., -25.));
#10 = VERTEX_POINT('', #11);
#11 = CARTESIAN_POINT('', (7.65404249467096E-15, 0., 25.));
#12 = (
   BOUNDED_CURVE ()
   B_SPLINE_CURVE (2, (#13, #14, #15, #16, #17), .UNSPECIFIED., .F., .U.)
   B_SPLINE_CURVE_WITH_KNOTS ((3, 2, 3), (0., 0.5, 1.), .UNSPECIFIED.)
   CURVE ()
   GEOMETRIC_REPRESENTATION_ITEM ()
   RATIONAL_B_SPLINE_CURVE ((1., 0.707106781186548, 1., 0.707106781186548, 1.))
   REPRESENTATION_ITEM ('')
);
#13 = CARTESIAN_POINT('', (-4.59242549680257E-15, 0., -25.));
#14 = CARTESIAN_POINT('', (25., 0., -25.));
#15 = CARTESIAN_POINT('', (25., 0., -6.12323399573677E-15));
#16 = CARTESIAN_POINT('', (25., 0., 25.));
#17 = CARTESIAN_POINT('', (7.65404249467096E-15, 0., 25.));
#18 = ORIENTED_EDGE('', *, *, #7, .T.);
#19 = (
   BOUNDED_SURFACE ()
   B_SPLINE_SURFACE (2, 2, ((#20, #21, #22, #23, #24), (#25, #26, #27, #28, #29), (#30, #31, #32, #33, #34), (#35, #36, #37, #38, #39), (#40, #41, #42, #43, #44), (#45, #46, #47, #48, #49), (#50, #51, #52, #53, #54), (#55, #56, #57, #58, #59), (#60, #61, #62, #63, #64)), .UNSPECIFIED., .T., .F., .U.)
   B_SPLINE_SURFACE_WITH_KNOTS ((3, 2, 2, 2, 3), (3, 2, 3), (0., 0.25, 0.5, 0.75, 1.), (0., 0.5, 1.), .UNSPECIFIED.)
   GEOMETRIC_REPRESENTATION_ITEM ()
   RATIONAL_B_SPLINE_SURFACE (((1., 0.707106781186548, 1., 0.707106781186548, 1.), (0.707106781186548, 0.5, 0.707106781186548, 0.5, 0.707106781186548), (1., 0.707106781186548, 1., 0.707106781186548, 1.), (0.707106781186548, 0.5, 0.707106781186548, 0.5, 0.707106781186548), (1., 0.707106781186548, 1., 0.707106781186548, 1.), (0.707106781186548, 0.5, 0.707106781186548, 0.5, 0.707106781186548), (1., 0.707106781186548, 1., 0.707106781186548, 1.), (0.707106781186548, 0.5, 0.707106781186548, 0.5, 0.707106781186548), (1., 0.707106781186548, 1., 0.707106781186548, 1.)))
   REPRESENTATION_ITEM ('')
   SURFACE ()
);
#20 = CARTESIAN_POINT('', (-4.59242549680257E-15, 0., -25.));
#21 = CARTESIAN_POINT('', (25., 0., -25.));
#22 = CARTESIAN_POINT('', (25., 0., -6.12323399573677E-15));
#23 = CARTESIAN_POINT('', (25., 0., 25.));
#24 = CARTESIAN_POINT('', (7.65404249467096E-15, 0., 25.));
#25 = CARTESIAN_POINT('', (-4.59242549680257E-15, 0., -25.));
#26 = CARTESIAN_POINT('', (25., 25., -25.));
#27 = CARTESIAN_POINT('', (25., 25., -6.12323399573677E-15));
#28 = CARTESIAN_POINT('', (25., 25., 25.));
#29 = CARTESIAN_POINT('', (7.65404249467096E-15, 0., 25.));
#30 = CARTESIAN_POINT('', (-4.59242549680257E-15, 0., -25.));
#31 = CARTESIAN_POINT('', (1.53080849893419E-15, 25., -25.));
#32 = CARTESIAN_POINT('', (1.53080849893419E-15, 25., -6.12323399573677E-15));
#33 = CARTESIAN_POINT('', (1.53080849893419E-15, 25., 25.));
#34 = CARTESIAN_POINT('', (7.65404249467096E-15, 0., 25.));
#35 = CARTESIAN_POINT('', (-4.59242549680257E-15, 0., -25.));
#36 = CARTESIAN_POINT('', (-25., 25., -25.));
#37 = CARTESIAN_POINT('', (-25., 25., -6.12323399573677E-15));
#38 = CARTESIAN_POINT('', (-25., 25., 25.));
#39 = CARTESIAN_POINT('', (7.65404249467096E-15, 0., 25.));
#40 = CARTESIAN_POINT('', (-4.59242549680257E-15, 0., -25.));
#41 = CARTESIAN_POINT('', (-25., 3.06161699786838E-15, -25.));
#42 = CARTESIAN_POINT('', (-25., 3.06161699786838E-15, -6.12323399573677E-15));
#43 = CARTESIAN_POINT('', (-25., 3.06161699786838E-15, 25.));
#44 = CARTESIAN_POINT('', (7.65404249467096E-15, 0., 25.));
#45 = CARTESIAN_POINT('', (-4.59242549680257E-15, 0., -25.));
#46 = CARTESIAN_POINT('', (-25., -25., -25.));
#47 = CARTESIAN_POINT('', (-25., -25., -6.12323399573677E-15));
#48 = CARTESIAN_POINT('', (-25., -25., 25.));
#49 = CARTESIAN_POINT('', (7.65404249467096E-15, 0., 25.));
#50 = CARTESIAN_POINT('', (-4.59242549680257E-15, 0., -25.));
#51 = CARTESIAN_POINT('', (-4.59242549680257E-15, -25., -25.));
#52 = CARTESIAN_POINT('', (-4.59242549680257E-15, -25., -6.12323399573677E-15));
#53 = CARTESIAN_POINT('', (-4.59242549680258E-15, -25., 25.));
#54 = CARTESIAN_POINT('', (7.65404249467096E-15, 0., 25.));
#55 = CARTESIAN_POINT('', (-4.59242549680257E-15, 0., -25.));
#56 = CARTESIAN_POINT('', (25., -25., -25.));
#57 = CARTESIAN_POINT('', (25., -25., -6.12323399573677E-15));
#58 = CARTESIAN_POINT('', (25., -25., 25.));
#59 = CARTESIAN_POINT('', (7.65404249467096E-15, 0., 25.));
#60 = CARTESIAN_POINT('', (-4.59242549680257E-15, 0., -25.));
#61 = CARTESIAN_POINT('', (25., 0., -25.));
#62 = CARTESIAN_POINT('', (25., 0., -6.12323399573677E-15));
#63 = CARTESIAN_POINT('', (25., 0., 25.));
#64 = CARTESIAN_POINT('', (7.65404249467096E-15, 0., 25.));
#65 = DRAUGHTING_MODEL('', (#73, #145), #148);
#66 = PRESENTATION_STYLE_ASSIGNMENT((#67));
#67 = SURFACE_STYLE_USAGE(.POSITIVE., #68);
#68 = SURFACE_SIDE_STYLE('', (#69));
#69 = SURFACE_STYLE_FILL_AREA(#70);
#70 = FILL_AREA_STYLE('', (#71));
#71 = FILL_AREA_STYLE_COLOUR('', #72);
#72 = COLOUR_RGB('', 0.50196078431373, 0.50196078431373, 0.50196078431373);
#73 = STYLED_ITEM('', (#66), #1);
#74 = MANIFOLD_SOLID_BREP('Solid1', #75);
#75 = CLOSED_SHELL('', (#76));
#76 = ADVANCED_FACE('', (#77), #92, .T.);
#77 = FACE_OUTER_BOUND('', #78, .T.);
#78 = EDGE_LOOP('', (#79, #91));
#79 = ORIENTED_EDGE('', *, *, #80, .F.);
#80 = EDGE_CURVE('', #81, #83, #85, .T.);
#81 = VERTEX_POINT('', #82);
#82 = CARTESIAN_POINT('', (-2.75545529808154E-15, 60., -15.));
#83 = VERTEX_POINT('', #84);
#84 = CARTESIAN_POINT('', (4.59242549680257E-15, 60., 15.));
#85 = (
   BOUNDED_CURVE ()
   B_SPLINE_CURVE (2, (#86, #87, #88, #89, #90), .UNSPECIFIED., .F., .U.)
   B_SPLINE_CURVE_WITH_KNOTS ((3, 2, 3), (0., 0.5, 1.), .UNSPECIFIED.)
   CURVE ()
   GEOMETRIC_REPRESENTATION_ITEM ()
   RATIONAL_B_SPLINE_CURVE ((1., 0.707106781186548, 1., 0.707106781186548, 1.))
   REPRESENTATION_ITEM ('')
);
#86 = CARTESIAN_POINT('', (-2.75545529808154E-15, 60., -15.));
#87 = CARTESIAN_POINT('', (15., 60., -15.));
#88 = CARTESIAN_POINT('', (15., 60., -3.67394039744206E-15));
#89 = CARTESIAN_POINT('', (15., 60., 15.));
#90 = CARTESIAN_POINT('', (4.59242549680257E-15, 60., 15.));
#91 = ORIENTED_EDGE('', *, *, #80, .T.);
#92 = (
   BOUNDED_SURFACE ()
   B_SPLINE_SURFACE (2, 2, ((#93, #94, #95, #96, #97), (#98, #99, #100, #101, #102), (#103, #104, #105, #106, #107), (#108, #109, #110, #111, #112), (#113, #114, #115, #116, #117), (#118, #119, #120, #121, #122), (#123, #124, #125, #126, #127), (#128, #129, #130, #131, #132), (#133, #134, #135, #136, #137)), .UNSPECIFIED., .T., .F., .U.)
   B_SPLINE_SURFACE_WITH_KNOTS ((3, 2, 2, 2, 3), (3, 2, 3), (0., 0.25, 0.5, 0.75, 1.), (0., 0.5, 1.), .UNSPECIFIED.)
   GEOMETRIC_REPRESENTATION_ITEM ()
   RATIONAL_B_SPLINE_SURFACE (((1., 0.707106781186548, 1., 0.707106781186548, 1.), (0.707106781186548, 0.5, 0.707106781186548, 0.5, 0.707106781186548), (1., 0.707106781186548, 1., 0.707106781186548, 1.), (0.707106781186548, 0.5, 0.707106781186548, 0.5, 0.707106781186548), (1., 0.707106781186548, 1., 0.707106781186548, 1.), (0.707106781186548, 0.5, 0.707106781186548, 0.5, 0.707106781186548), (1., 0.707106781186548, 1., 0.707106781186548, 1.), (0.707106781186548, 0.5, 0.707106781186548, 0.5, 0.707106781186548), (1., 0.707106781186548, 1., 0.707106781186548, 1.)))
   REPRESENTATION_ITEM ('')
   SURFACE ()
);
#93 = CARTESIAN_POINT('', (-2.75545529808154E-15, 60., -15.));
#94 = CARTESIAN_POINT('', (15., 60., -15.));
#95 = CARTESIAN_POINT('', (15., 60., -3.67394039744206E-15));
#96 = CARTESIAN_POINT('', (15., 60., 15.));
#97 = CARTESIAN_POINT('', (4.59242549680257E-15, 60., 15.));
#98 = CARTESIAN_POINT('', (-2.75545529808154E-15, 60., -15.));
#99 = CARTESIAN_POINT('', (15., 75., -15.));
#100 = CARTESIAN_POINT('', (15., 75., -3.67394039744206E-15));
#101 = CARTESIAN_POINT('', (15., 75., 15.));
#102 = CARTESIAN_POINT('', (4.59242549680257E-15, 60., 15.));
#103 = CARTESIAN_POINT('', (-2.75545529808154E-15, 60., -15.));
#104 = CARTESIAN_POINT('', (9.18485099360515E-16, 75., -15.));
#105 = CARTESIAN_POINT('', (9.18485099360515E-16, 75., -3.67394039744206E-15));
#106 = CARTESIAN_POINT('', (9.18485099360515E-16, 75., 15.));
#107 = CARTESIAN_POINT('', (4.59242549680257E-15, 60., 15.));
#108 = CARTESIAN_POINT('', (-2.75545529808154E-15, 60., -15.));
#109 = CARTESIAN_POINT('', (-15., 75., -15.));
#110 = CARTESIAN_POINT('', (-15., 75., -3.67394039744206E-15));
#111 = CARTESIAN_POINT('', (-15., 75., 15.));
#112 = CARTESIAN_POINT('', (4.59242549680257E-15, 60., 15.));
#113 = CARTESIAN_POINT('', (-2.75545529808154E-15, 60., -15.));
#114 = CARTESIAN_POINT('', (-15., 60., -15.));
#115 = CARTESIAN_POINT('', (-15., 60., -3.67394039744206E-15));
#116 = CARTESIAN_POINT('', (-15., 60., 15.));
#117 = CARTESIAN_POINT('', (4.59242549680257E-15, 60., 15.));
#118 = CARTESIAN_POINT('', (-2.75545529808154E-15, 60., -15.));
#119 = CARTESIAN_POINT('', (-15., 45., -15.));
#120 = CARTESIAN_POINT('', (-15., 45., -3.67394039744206E-15));
#121 = CARTESIAN_POINT('', (-15., 45., 15.));
#122 = CARTESIAN_POINT('', (4.59242549680257E-15, 60., 15.));
#123 = CARTESIAN_POINT('', (-2.75545529808154E-15, 60., -15.));
#124 = CARTESIAN_POINT('', (-2.75545529808154E-15, 45., -15.));
#125 = CARTESIAN_POINT('', (-2.75545529808154E-15, 45., -3.67394039744206E-15));
#126 = CARTESIAN_POINT('', (-2.75545529808155E-15, 45., 15.));
#127 = CARTESIAN_POINT('', (4.59242549680257E-15, 60., 15.));
#128 = CARTESIAN_POINT('', (-2.75545529808154E-15, 60., -15.));
#129 = CARTESIAN_POINT('', (15., 45., -15.));
#130 = CARTESIAN_POINT('', (15., 45., -3.67394039744206E-15));
#131 = CARTESIAN_POINT('', (15., 45., 15.));
#132 = CARTESIAN_POINT('', (4.59242549680257E-15, 60., 15.));
#133 = CARTESIAN_POINT('', (-2.75545529808154E-15, 60., -15.));
#134 = CARTESIAN_POINT('', (15., 60., -15.));
#135 = CARTESIAN_POINT('', (15., 60., -3.67394039744206E-15));
#136 = CARTESIAN_POINT('', (15., 60., 15.));
#137 = CARTESIAN_POINT('', (4.59242549680257E-15, 60., 15.));
#138 = PRESENTATION_STYLE_ASSIGNMENT((#139));
#139 = SURFACE_STYLE_USAGE(.POSITIVE., #140);
#140 = SURFACE_SIDE_STYLE('', (#141));
#141 = SURFACE_STYLE_FILL_AREA(#142);
#142 = FILL_AREA_STYLE('', (#143));
#143 = FILL_AREA_STYLE_COLOUR('', #144);
#144 = COLOUR_RGB('', 0.50196078431373, 0.50196078431373, 0.50196078431373);
#145 = STYLED_ITEM('', (#138), #74);
#146 = CARTESIAN_POINT('Origin', (0., 0., 0.));
#147 = GEOMETRIC_SET('', (#146));
#148 = (
   GEOMETRIC_REPRESENTATION_CONTEXT (3)
   GLOBAL_UNCERTAINTY_ASSIGNED_CONTEXT ((#150))
   GLOBAL_UNIT_ASSIGNED_CONTEXT ((#149, #151, #152))
   REPRESENTATION_CONTEXT ('', '3D')
);
#149 = (
   LENGTH_UNIT ()
   NAMED_UNIT (*)
   SI_UNIT (.MILLI., .METRE.)
);
#150 = UNCERTAINTY_MEASURE_WITH_UNIT(LENGTH_MEASURE(1.E-6), #149, 'DISTANCE_ACCURACY_VALUE', '');
#151 = (
   NAMED_UNIT (*)
   SI_UNIT ($, .STERADIAN.)
   SOLID_ANGLE_UNIT ()
);
#152 = (
   NAMED_UNIT (*)
   PLANE_ANGLE_UNIT ()
   SI_UNIT ($, .RADIAN.)
);
#153 = SHAPE_REPRESENTATION('', (#168), #148);
#154 = PRODUCT_DEFINITION_SHAPE('', '', #155);
#155 = PRODUCT_DEFINITION('', '', #158, #162);
#156 = APPLICATION_CONTEXT('configuration controlled 3D designs of mechanical parts and assemblies');
#157 = APPLICATION_PROTOCOL_DEFINITION('International Standard', 'automotive_design', 2002, #156);
#158 = PRODUCT_DEFINITION_FORMATION_WITH_SPECIFIED_SOURCE('', '', #159, .NOT_KNOWN.);
#159 = PRODUCT('MultiSphere', 'MultiSphere', '', (#160));
#160 = PRODUCT_CONTEXT('', #156, 'mechanical');
#161 = PRODUCT_RELATED_PRODUCT_CATEGORY('detail', '', (#159));
#162 = PRODUCT_DEFINITION_CONTEXT('part definition', #156, 'design');
#163 = SHAPE_DEFINITION_REPRESENTATION(#154, #153);
#164 = SHAPE_REPRESENTATION_RELATIONSHIP('', '', #153, #165);
#165 = SHAPE_REPRESENTATION('', (#147), #148);
#166 = SHAPE_REPRESENTATION_RELATIONSHIP('', '', #153, #167);
#167 = ADVANCED_BREP_SHAPE_REPRESENTATION('', (#1, #74), #148);
#168 = AXIS2_PLACEMENT_3D('', #169, #170, #171);
#169 = CARTESIAN_POINT('', (0., 0., 0.));
#170 = DIRECTION('', (0., 0., 1.));
#171 = DIRECTION('', (1., 0., 0.));
ENDSEC;
END-ISO-10303-21;
