ISO-10303-21;
HEADER;
FILE_DESCRIPTION(('STEP'), '1');
FILE_NAME('PlateHoles', '2026-08-19T23:46:22', (''), (''), 'Express 3.1.3.0', 'Express Tool', 'Unknown');
FILE_SCHEMA(('AUTOMOTIVE_DESIGN'));
ENDSEC;

DATA;
#1 = MANIFOLD_SOLID_BREP('Plate_0', #2);
#2 = CLOSED_SHELL('', (#3, #59, #115, #157, #199, #219, #235, #251));
#3 = ADVANCED_FACE('', (#4), #40, .T.);
#4 = FACE_OUTER_BOUND('', #5, .T.);
#5 = EDGE_LOOP('', (#6, #15, #27, #28));
#6 = ORIENTED_EDGE('', *, *, #7, .T.);
#7 = EDGE_CURVE('', #8, #10, #12, .T.);
#8 = VERTEX_POINT('', #9);
#9 = CARTESIAN_POINT('', (33., 0., 0.));
#10 = VERTEX_POINT('', #11);
#11 = CARTESIAN_POINT('', (33., 0., 10.));
#12 = B_SPLINE_CURVE_WITH_KNOTS('', 1, (#13, #14), .UNSPECIFIED., .F., .U., (2, 2), (0., 10.), .UNSPECIFIED.);
#13 = CARTESIAN_POINT('', (33., 0., 0.));
#14 = CARTESIAN_POINT('', (33., 0., 10.));
#15 = ORIENTED_EDGE('', *, *, #16, .T.);
#16 = EDGE_CURVE('', #10, #10, #17, .T.);
#17 = (
   BOUNDED_CURVE ()
   B_SPLINE_CURVE (2, (#18, #19, #20, #21, #22, #23, #24, #25, #26), .UNSPECIFIED., .T., .U.)
   B_SPLINE_CURVE_WITH_KNOTS ((3, 2, 2, 2, 3), (0., 12.5663706143592, 25.1327412287183, 37.6991118430775, 50.2654824574367), .UNSPECIFIED.)
   CURVE ()
   GEOMETRIC_REPRESENTATION_ITEM ()
   RATIONAL_B_SPLINE_CURVE ((1., 0.707106781186548, 1., 0.707106781186548, 1., 0.707106781186548, 1., 0.707106781186548, 1.))
   REPRESENTATION_ITEM ('')
);
#18 = CARTESIAN_POINT('', (33., 0., 10.));
#19 = CARTESIAN_POINT('', (33., 8., 10.));
#20 = CARTESIAN_POINT('', (25., 8., 10.));
#21 = CARTESIAN_POINT('', (17., 8., 10.));
#22 = CARTESIAN_POINT('', (17., 9.79717439317883E-16, 10.));
#23 = CARTESIAN_POINT('', (17., -8., 10.));
#24 = CARTESIAN_POINT('', (25., -8., 10.));
#25 = CARTESIAN_POINT('', (33., -8., 10.));
#26 = CARTESIAN_POINT('', (33., 0., 10.));
#27 = ORIENTED_EDGE('', *, *, #7, .F.);
#28 = ORIENTED_EDGE('', *, *, #29, .F.);
#29 = EDGE_CURVE('', #8, #8, #30, .T.);
#30 = (
   BOUNDED_CURVE ()
   B_SPLINE_CURVE (2, (#31, #32, #33, #34, #35, #36, #37, #38, #39), .UNSPECIFIED., .T., .U.)
   B_SPLINE_CURVE_WITH_KNOTS ((3, 2, 2, 2, 3), (0., 12.5663706143592, 25.1327412287183, 37.6991118430775, 50.2654824574367), .UNSPECIFIED.)
   CURVE ()
   GEOMETRIC_REPRESENTATION_ITEM ()
   RATIONAL_B_SPLINE_CURVE ((1., 0.707106781186548, 1., 0.707106781186548, 1., 0.707106781186548, 1., 0.707106781186548, 1.))
   REPRESENTATION_ITEM ('')
);
#31 = CARTESIAN_POINT('', (33., 0., 0.));
#32 = CARTESIAN_POINT('', (33., 8., 0.));
#33 = CARTESIAN_POINT('', (25., 8., 0.));
#34 = CARTESIAN_POINT('', (17., 8., 0.));
#35 = CARTESIAN_POINT('', (17., 9.79717439317883E-16, 0.));
#36 = CARTESIAN_POINT('', (17., -8., 0.));
#37 = CARTESIAN_POINT('', (25., -8., 0.));
#38 = CARTESIAN_POINT('', (33., -8., 0.));
#39 = CARTESIAN_POINT('', (33., 0., 0.));
#40 = (
   BOUNDED_SURFACE ()
   B_SPLINE_SURFACE (1, 2, ((#41, #42, #43, #44, #45, #46, #47, #48, #49), (#50, #51, #52, #53, #54, #55, #56, #57, #58)), .UNSPECIFIED., .F., .T., .U.)
   B_SPLINE_SURFACE_WITH_KNOTS ((2, 2), (3, 2, 2, 2, 3), (0., 10.), (0., 12.5663706143592, 25.1327412287183, 37.6991118430775, 50.2654824574367), .UNSPECIFIED.)
   GEOMETRIC_REPRESENTATION_ITEM ()
   RATIONAL_B_SPLINE_SURFACE (((1., 0.707106781186548, 1., 0.707106781186548, 1., 0.707106781186548, 1., 0.707106781186548, 1.), (1., 0.707106781186548, 1., 0.707106781186548, 1., 0.707106781186548, 1., 0.707106781186548, 1.)))
   REPRESENTATION_ITEM ('')
   SURFACE ()
);
#41 = CARTESIAN_POINT('', (33., 0., 0.));
#42 = CARTESIAN_POINT('', (33., 8., 0.));
#43 = CARTESIAN_POINT('', (25., 8., 0.));
#44 = CARTESIAN_POINT('', (17., 8., 0.));
#45 = CARTESIAN_POINT('', (17., 9.79717439317883E-16, 0.));
#46 = CARTESIAN_POINT('', (17., -8., 0.));
#47 = CARTESIAN_POINT('', (25., -8., 0.));
#48 = CARTESIAN_POINT('', (33., -8., 0.));
#49 = CARTESIAN_POINT('', (33., 0., 0.));
#50 = CARTESIAN_POINT('', (33., 0., 10.));
#51 = CARTESIAN_POINT('', (33., 8., 10.));
#52 = CARTESIAN_POINT('', (25., 8., 10.));
#53 = CARTESIAN_POINT('', (17., 8., 10.));
#54 = CARTESIAN_POINT('', (17., 9.79717439317883E-16, 10.));
#55 = CARTESIAN_POINT('', (17., -8., 10.));
#56 = CARTESIAN_POINT('', (25., -8., 10.));
#57 = CARTESIAN_POINT('', (33., -8., 10.));
#58 = CARTESIAN_POINT('', (33., 0., 10.));
#59 = ADVANCED_FACE('', (#60), #96, .T.);
#60 = FACE_OUTER_BOUND('', #61, .T.);
#61 = EDGE_LOOP('', (#62, #71, #83, #84));
#62 = ORIENTED_EDGE('', *, *, #63, .T.);
#63 = EDGE_CURVE('', #64, #66, #68, .T.);
#64 = VERTEX_POINT('', #65);
#65 = CARTESIAN_POINT('', (-17., 0., 0.));
#66 = VERTEX_POINT('', #67);
#67 = CARTESIAN_POINT('', (-17., 0., 10.));
#68 = B_SPLINE_CURVE_WITH_KNOTS('', 1, (#69, #70), .UNSPECIFIED., .F., .U., (2, 2), (0., 10.), .UNSPECIFIED.);
#69 = CARTESIAN_POINT('', (-17., 0., 0.));
#70 = CARTESIAN_POINT('', (-17., 0., 10.));
#71 = ORIENTED_EDGE('', *, *, #72, .T.);
#72 = EDGE_CURVE('', #66, #66, #73, .T.);
#73 = (
   BOUNDED_CURVE ()
   B_SPLINE_CURVE (2, (#74, #75, #76, #77, #78, #79, #80, #81, #82), .UNSPECIFIED., .T., .U.)
   B_SPLINE_CURVE_WITH_KNOTS ((3, 2, 2, 2, 3), (0., 12.5663706143592, 25.1327412287183, 37.6991118430775, 50.2654824574367), .UNSPECIFIED.)
   CURVE ()
   GEOMETRIC_REPRESENTATION_ITEM ()
   RATIONAL_B_SPLINE_CURVE ((1., 0.707106781186548, 1., 0.707106781186548, 1., 0.707106781186548, 1., 0.707106781186548, 1.))
   REPRESENTATION_ITEM ('')
);
#74 = CARTESIAN_POINT('', (-17., 0., 10.));
#75 = CARTESIAN_POINT('', (-17., 8., 10.));
#76 = CARTESIAN_POINT('', (-25., 8., 10.));
#77 = CARTESIAN_POINT('', (-33., 8., 10.));
#78 = CARTESIAN_POINT('', (-33., 9.79717439317883E-16, 10.));
#79 = CARTESIAN_POINT('', (-33., -8., 10.));
#80 = CARTESIAN_POINT('', (-25., -8., 10.));
#81 = CARTESIAN_POINT('', (-17., -8., 10.));
#82 = CARTESIAN_POINT('', (-17., 0., 10.));
#83 = ORIENTED_EDGE('', *, *, #63, .F.);
#84 = ORIENTED_EDGE('', *, *, #85, .F.);
#85 = EDGE_CURVE('', #64, #64, #86, .T.);
#86 = (
   BOUNDED_CURVE ()
   B_SPLINE_CURVE (2, (#87, #88, #89, #90, #91, #92, #93, #94, #95), .UNSPECIFIED., .T., .U.)
   B_SPLINE_CURVE_WITH_KNOTS ((3, 2, 2, 2, 3), (0., 12.5663706143592, 25.1327412287183, 37.6991118430775, 50.2654824574367), .UNSPECIFIED.)
   CURVE ()
   GEOMETRIC_REPRESENTATION_ITEM ()
   RATIONAL_B_SPLINE_CURVE ((1., 0.707106781186548, 1., 0.707106781186548, 1., 0.707106781186548, 1., 0.707106781186548, 1.))
   REPRESENTATION_ITEM ('')
);
#87 = CARTESIAN_POINT('', (-17., 0., 0.));
#88 = CARTESIAN_POINT('', (-17., 8., 0.));
#89 = CARTESIAN_POINT('', (-25., 8., 0.));
#90 = CARTESIAN_POINT('', (-33., 8., 0.));
#91 = CARTESIAN_POINT('', (-33., 9.79717439317883E-16, 0.));
#92 = CARTESIAN_POINT('', (-33., -8., 0.));
#93 = CARTESIAN_POINT('', (-25., -8., 0.));
#94 = CARTESIAN_POINT('', (-17., -8., 0.));
#95 = CARTESIAN_POINT('', (-17., 0., 0.));
#96 = (
   BOUNDED_SURFACE ()
   B_SPLINE_SURFACE (1, 2, ((#97, #98, #99, #100, #101, #102, #103, #104, #105), (#106, #107, #108, #109, #110, #111, #112, #113, #114)), .UNSPECIFIED., .F., .T., .U.)
   B_SPLINE_SURFACE_WITH_KNOTS ((2, 2), (3, 2, 2, 2, 3), (0., 10.), (0., 12.5663706143592, 25.1327412287183, 37.6991118430775, 50.2654824574367), .UNSPECIFIED.)
   GEOMETRIC_REPRESENTATION_ITEM ()
   RATIONAL_B_SPLINE_SURFACE (((1., 0.707106781186548, 1., 0.707106781186548, 1., 0.707106781186548, 1., 0.707106781186548, 1.), (1., 0.707106781186548, 1., 0.707106781186548, 1., 0.707106781186548, 1., 0.707106781186548, 1.)))
   REPRESENTATION_ITEM ('')
   SURFACE ()
);
#97 = CARTESIAN_POINT('', (-17., 0., 0.));
#98 = CARTESIAN_POINT('', (-17., 8., 0.));
#99 = CARTESIAN_POINT('', (-25., 8., 0.));
#100 = CARTESIAN_POINT('', (-33., 8., 0.));
#101 = CARTESIAN_POINT('', (-33., 9.79717439317883E-16, 0.));
#102 = CARTESIAN_POINT('', (-33., -8., 0.));
#103 = CARTESIAN_POINT('', (-25., -8., 0.));
#104 = CARTESIAN_POINT('', (-17., -8., 0.));
#105 = CARTESIAN_POINT('', (-17., 0., 0.));
#106 = CARTESIAN_POINT('', (-17., 0., 10.));
#107 = CARTESIAN_POINT('', (-17., 8., 10.));
#108 = CARTESIAN_POINT('', (-25., 8., 10.));
#109 = CARTESIAN_POINT('', (-33., 8., 10.));
#110 = CARTESIAN_POINT('', (-33., 9.79717439317883E-16, 10.));
#111 = CARTESIAN_POINT('', (-33., -8., 10.));
#112 = CARTESIAN_POINT('', (-25., -8., 10.));
#113 = CARTESIAN_POINT('', (-17., -8., 10.));
#114 = CARTESIAN_POINT('', (-17., 0., 10.));
#115 = ADVANCED_FACE('', (#116, #146, #149), #152, .T.);
#116 = FACE_OUTER_BOUND('', #117, .T.);
#117 = EDGE_LOOP('', (#118, #127, #134, #141));
#118 = ORIENTED_EDGE('', *, *, #119, .T.);
#119 = EDGE_CURVE('', #120, #122, #124, .T.);
#120 = VERTEX_POINT('', #121);
#121 = CARTESIAN_POINT('', (-50., 30., 10.));
#122 = VERTEX_POINT('', #123);
#123 = CARTESIAN_POINT('', (-50., -30., 10.));
#124 = B_SPLINE_CURVE_WITH_KNOTS('', 1, (#125, #126), .UNSPECIFIED., .F., .U., (2, 2), (0., 1.), .UNSPECIFIED.);
#125 = CARTESIAN_POINT('', (-50., 30., 10.));
#126 = CARTESIAN_POINT('', (-50., -30., 10.));
#127 = ORIENTED_EDGE('', *, *, #128, .T.);
#128 = EDGE_CURVE('', #122, #129, #131, .T.);
#129 = VERTEX_POINT('', #130);
#130 = CARTESIAN_POINT('', (50., -30., 10.));
#131 = B_SPLINE_CURVE_WITH_KNOTS('', 1, (#132, #133), .UNSPECIFIED., .F., .U., (2, 2), (0., 1.), .UNSPECIFIED.);
#132 = CARTESIAN_POINT('', (-50., -30., 10.));
#133 = CARTESIAN_POINT('', (50., -30., 10.));
#134 = ORIENTED_EDGE('', *, *, #135, .T.);
#135 = EDGE_CURVE('', #129, #136, #138, .T.);
#136 = VERTEX_POINT('', #137);
#137 = CARTESIAN_POINT('', (50., 30., 10.));
#138 = B_SPLINE_CURVE_WITH_KNOTS('', 1, (#139, #140), .UNSPECIFIED., .F., .U., (2, 2), (0., 1.), .UNSPECIFIED.);
#139 = CARTESIAN_POINT('', (50., -30., 10.));
#140 = CARTESIAN_POINT('', (50., 30., 10.));
#141 = ORIENTED_EDGE('', *, *, #142, .T.);
#142 = EDGE_CURVE('', #136, #120, #143, .T.);
#143 = B_SPLINE_CURVE_WITH_KNOTS('', 1, (#144, #145), .UNSPECIFIED., .F., .U., (2, 2), (0., 1.), .UNSPECIFIED.);
#144 = CARTESIAN_POINT('', (50., 30., 10.));
#145 = CARTESIAN_POINT('', (-50., 30., 10.));
#146 = FACE_BOUND('', #147, .T.);
#147 = EDGE_LOOP('', (#148));
#148 = ORIENTED_EDGE('', *, *, #72, .F.);
#149 = FACE_BOUND('', #150, .T.);
#150 = EDGE_LOOP('', (#151));
#151 = ORIENTED_EDGE('', *, *, #16, .F.);
#152 = B_SPLINE_SURFACE_WITH_KNOTS('', 1, 1, ((#153, #154), (#155, #156)), .UNSPECIFIED., .F., .F., .U., (2, 2), (2, 2), (0., 1.), (0., 1.), .UNSPECIFIED.);
#153 = CARTESIAN_POINT('', (64.1404708432983, -64.1404708432983, 9.99999999999999));
#154 = CARTESIAN_POINT('', (-64.1404708432983, -64.1404708432983, 9.99999999999999));
#155 = CARTESIAN_POINT('', (64.1404708432983, 64.1404708432983, 10.));
#156 = CARTESIAN_POINT('', (-64.1404708432983, 64.1404708432983, 10.));
#157 = ADVANCED_FACE('', (#158, #188, #191), #194, .T.);
#158 = FACE_OUTER_BOUND('', #159, .T.);
#159 = EDGE_LOOP('', (#160, #169, #176, #183));
#160 = ORIENTED_EDGE('', *, *, #161, .F.);
#161 = EDGE_CURVE('', #162, #164, #166, .T.);
#162 = VERTEX_POINT('', #163);
#163 = CARTESIAN_POINT('', (-50., 30., 0.));
#164 = VERTEX_POINT('', #165);
#165 = CARTESIAN_POINT('', (-50., -30., 0.));
#166 = B_SPLINE_CURVE_WITH_KNOTS('', 1, (#167, #168), .UNSPECIFIED., .F., .U., (2, 2), (0., 1.), .UNSPECIFIED.);
#167 = CARTESIAN_POINT('', (-50., 30., 0.));
#168 = CARTESIAN_POINT('', (-50., -30., 0.));
#169 = ORIENTED_EDGE('', *, *, #170, .F.);
#170 = EDGE_CURVE('', #171, #162, #173, .T.);
#171 = VERTEX_POINT('', #172);
#172 = CARTESIAN_POINT('', (50., 30., 0.));
#173 = B_SPLINE_CURVE_WITH_KNOTS('', 1, (#174, #175), .UNSPECIFIED., .F., .U., (2, 2), (0., 1.), .UNSPECIFIED.);
#174 = CARTESIAN_POINT('', (50., 30., 0.));
#175 = CARTESIAN_POINT('', (-50., 30., 0.));
#176 = ORIENTED_EDGE('', *, *, #177, .F.);
#177 = EDGE_CURVE('', #178, #171, #180, .T.);
#178 = VERTEX_POINT('', #179);
#179 = CARTESIAN_POINT('', (50., -30., 0.));
#180 = B_SPLINE_CURVE_WITH_KNOTS('', 1, (#181, #182), .UNSPECIFIED., .F., .U., (2, 2), (0., 1.), .UNSPECIFIED.);
#181 = CARTESIAN_POINT('', (50., -30., 0.));
#182 = CARTESIAN_POINT('', (50., 30., 0.));
#183 = ORIENTED_EDGE('', *, *, #184, .F.);
#184 = EDGE_CURVE('', #164, #178, #185, .T.);
#185 = B_SPLINE_CURVE_WITH_KNOTS('', 1, (#186, #187), .UNSPECIFIED., .F., .U., (2, 2), (0., 1.), .UNSPECIFIED.);
#186 = CARTESIAN_POINT('', (-50., -30., 0.));
#187 = CARTESIAN_POINT('', (50., -30., 0.));
#188 = FACE_BOUND('', #189, .T.);
#189 = EDGE_LOOP('', (#190));
#190 = ORIENTED_EDGE('', *, *, #85, .T.);
#191 = FACE_BOUND('', #192, .T.);
#192 = EDGE_LOOP('', (#193));
#193 = ORIENTED_EDGE('', *, *, #29, .T.);
#194 = B_SPLINE_SURFACE_WITH_KNOTS('', 1, 1, ((#195, #196), (#197, #198)), .UNSPECIFIED., .F., .F., .U., (2, 2), (2, 2), (0., 1.), (0., 1.), .UNSPECIFIED.);
#195 = CARTESIAN_POINT('', (64.1404708432983, -64.1404708432983, 0.));
#196 = CARTESIAN_POINT('', (64.1404708432983, 64.1404708432983, 0.));
#197 = CARTESIAN_POINT('', (-64.1404708432983, -64.1404708432983, 0.));
#198 = CARTESIAN_POINT('', (-64.1404708432983, 64.1404708432983, 0.));
#199 = ADVANCED_FACE('', (#200), #214, .T.);
#200 = FACE_OUTER_BOUND('', #201, .T.);
#201 = EDGE_LOOP('', (#202, #207, #208, #213));
#202 = ORIENTED_EDGE('', *, *, #203, .F.);
#203 = EDGE_CURVE('', #162, #120, #204, .T.);
#204 = B_SPLINE_CURVE_WITH_KNOTS('', 1, (#205, #206), .UNSPECIFIED., .F., .U., (2, 2), (0., 1.), .UNSPECIFIED.);
#205 = CARTESIAN_POINT('', (-50., 30., 0.));
#206 = CARTESIAN_POINT('', (-50., 30., 10.));
#207 = ORIENTED_EDGE('', *, *, #161, .T.);
#208 = ORIENTED_EDGE('', *, *, #209, .T.);
#209 = EDGE_CURVE('', #164, #122, #210, .T.);
#210 = B_SPLINE_CURVE_WITH_KNOTS('', 1, (#211, #212), .UNSPECIFIED., .F., .U., (2, 2), (0., 1.), .UNSPECIFIED.);
#211 = CARTESIAN_POINT('', (-50., -30., 0.));
#212 = CARTESIAN_POINT('', (-50., -30., 10.));
#213 = ORIENTED_EDGE('', *, *, #119, .F.);
#214 = B_SPLINE_SURFACE_WITH_KNOTS('', 1, 1, ((#215, #216), (#217, #218)), .UNSPECIFIED., .F., .F., .U., (2, 2), (2, 2), (0., 1.), (0., 1.), .UNSPECIFIED.);
#215 = CARTESIAN_POINT('', (-50., 30., 0.));
#216 = CARTESIAN_POINT('', (-50., 30., 10.));
#217 = CARTESIAN_POINT('', (-50., -30., 0.));
#218 = CARTESIAN_POINT('', (-50., -30., 10.));
#219 = ADVANCED_FACE('', (#220), #230, .T.);
#220 = FACE_OUTER_BOUND('', #221, .T.);
#221 = EDGE_LOOP('', (#222, #223, #224, #229));
#222 = ORIENTED_EDGE('', *, *, #209, .F.);
#223 = ORIENTED_EDGE('', *, *, #184, .T.);
#224 = ORIENTED_EDGE('', *, *, #225, .T.);
#225 = EDGE_CURVE('', #178, #129, #226, .T.);
#226 = B_SPLINE_CURVE_WITH_KNOTS('', 1, (#227, #228), .UNSPECIFIED., .F., .U., (2, 2), (0., 1.), .UNSPECIFIED.);
#227 = CARTESIAN_POINT('', (50., -30., 0.));
#228 = CARTESIAN_POINT('', (50., -30., 10.));
#229 = ORIENTED_EDGE('', *, *, #128, .F.);
#230 = B_SPLINE_SURFACE_WITH_KNOTS('', 1, 1, ((#231, #232), (#233, #234)), .UNSPECIFIED., .F., .F., .U., (2, 2), (2, 2), (0., 1.), (0., 1.), .UNSPECIFIED.);
#231 = CARTESIAN_POINT('', (-50., -30., 0.));
#232 = CARTESIAN_POINT('', (-50., -30., 10.));
#233 = CARTESIAN_POINT('', (50., -30., 0.));
#234 = CARTESIAN_POINT('', (50., -30., 10.));
#235 = ADVANCED_FACE('', (#236), #246, .T.);
#236 = FACE_OUTER_BOUND('', #237, .T.);
#237 = EDGE_LOOP('', (#238, #243, #244, #245));
#238 = ORIENTED_EDGE('', *, *, #239, .F.);
#239 = EDGE_CURVE('', #171, #136, #240, .T.);
#240 = B_SPLINE_CURVE_WITH_KNOTS('', 1, (#241, #242), .UNSPECIFIED., .F., .U., (2, 2), (0., 1.), .UNSPECIFIED.);
#241 = CARTESIAN_POINT('', (50., 30., 0.));
#242 = CARTESIAN_POINT('', (50., 30., 10.));
#243 = ORIENTED_EDGE('', *, *, #170, .T.);
#244 = ORIENTED_EDGE('', *, *, #203, .T.);
#245 = ORIENTED_EDGE('', *, *, #142, .F.);
#246 = B_SPLINE_SURFACE_WITH_KNOTS('', 1, 1, ((#247, #248), (#249, #250)), .UNSPECIFIED., .F., .F., .U., (2, 2), (2, 2), (0., 1.), (0., 1.), .UNSPECIFIED.);
#247 = CARTESIAN_POINT('', (50., 30., 0.));
#248 = CARTESIAN_POINT('', (50., 30., 10.));
#249 = CARTESIAN_POINT('', (-50., 30., 0.));
#250 = CARTESIAN_POINT('', (-50., 30., 10.));
#251 = ADVANCED_FACE('', (#252), #258, .T.);
#252 = FACE_OUTER_BOUND('', #253, .T.);
#253 = EDGE_LOOP('', (#254, #255, #256, #257));
#254 = ORIENTED_EDGE('', *, *, #225, .F.);
#255 = ORIENTED_EDGE('', *, *, #177, .T.);
#256 = ORIENTED_EDGE('', *, *, #239, .T.);
#257 = ORIENTED_EDGE('', *, *, #135, .F.);
#258 = B_SPLINE_SURFACE_WITH_KNOTS('', 1, 1, ((#259, #260), (#261, #262)), .UNSPECIFIED., .F., .F., .U., (2, 2), (2, 2), (0., 1.), (0., 1.), .UNSPECIFIED.);
#259 = CARTESIAN_POINT('', (50., -30., 0.));
#260 = CARTESIAN_POINT('', (50., -30., 10.));
#261 = CARTESIAN_POINT('', (50., 30., 0.));
#262 = CARTESIAN_POINT('', (50., 30., 10.));
#263 = DRAUGHTING_MODEL('', (#271), #272);
#264 = PRESENTATION_STYLE_ASSIGNMENT((#265));
#265 = SURFACE_STYLE_USAGE(.POSITIVE., #266);
#266 = SURFACE_SIDE_STYLE('', (#267));
#267 = SURFACE_STYLE_FILL_AREA(#268);
#268 = FILL_AREA_STYLE('', (#269));
#269 = FILL_AREA_STYLE_COLOUR('', #270);
#270 = COLOUR_RGB('', 0.50196078431373, 0.50196078431373, 0.50196078431373);
#271 = STYLED_ITEM('', (#264), #1);
#272 = (
   GEOMETRIC_REPRESENTATION_CONTEXT (3)
   GLOBAL_UNCERTAINTY_ASSIGNED_CONTEXT ((#274))
   GLOBAL_UNIT_ASSIGNED_CONTEXT ((#273, #275, #276))
   REPRESENTATION_CONTEXT ('', '3D')
);
#273 = (
   LENGTH_UNIT ()
   NAMED_UNIT (*)
   SI_UNIT (.MILLI., .METRE.)
);
#274 = UNCERTAINTY_MEASURE_WITH_UNIT(LENGTH_MEASURE(1.E-6), #273, 'DISTANCE_ACCURACY_VALUE', '');
#275 = (
   NAMED_UNIT (*)
   SI_UNIT ($, .STERADIAN.)
   SOLID_ANGLE_UNIT ()
);
#276 = (
   NAMED_UNIT (*)
   PLANE_ANGLE_UNIT ()
   SI_UNIT ($, .RADIAN.)
);
#277 = SHAPE_REPRESENTATION('', (#290), #272);
#278 = PRODUCT_DEFINITION_SHAPE('', '', #279);
#279 = PRODUCT_DEFINITION('', '', #282, #286);
#280 = APPLICATION_CONTEXT('configuration controlled 3D designs of mechanical parts and assemblies');
#281 = APPLICATION_PROTOCOL_DEFINITION('International Standard', 'automotive_design', 2002, #280);
#282 = PRODUCT_DEFINITION_FORMATION_WITH_SPECIFIED_SOURCE('', '', #283, .NOT_KNOWN.);
#283 = PRODUCT('PlateHoles', 'PlateHoles', '', (#284));
#284 = PRODUCT_CONTEXT('', #280, 'mechanical');
#285 = PRODUCT_RELATED_PRODUCT_CATEGORY('detail', '', (#283));
#286 = PRODUCT_DEFINITION_CONTEXT('part definition', #280, 'design');
#287 = SHAPE_DEFINITION_REPRESENTATION(#278, #277);
#288 = SHAPE_REPRESENTATION_RELATIONSHIP('', '', #277, #289);
#289 = ADVANCED_BREP_SHAPE_REPRESENTATION('', (#1), #272);
#290 = AXIS2_PLACEMENT_3D('', #291, #292, #293);
#291 = CARTESIAN_POINT('', (0., 0., 0.));
#292 = DIRECTION('', (0., 0., 1.));
#293 = DIRECTION('', (1., 0., 0.));
ENDSEC;
END-ISO-10303-21;
