ISO-10303-21;
HEADER;
FILE_DESCRIPTION(('STEP'), '1');
FILE_NAME('Islands', '2026-08-19T23:47:58', (''), (''), 'Express 3.1.3.0', 'Express Tool', 'Unknown');
FILE_SCHEMA(('AUTOMOTIVE_DESIGN'));
ENDSEC;

DATA;
#1 = SHELL_BASED_SURFACE_MODEL('Island_0', (#2, #77));
#2 = CLOSED_SHELL('', (#3, #59, #68));
#3 = ADVANCED_FACE('', (#4), #40, .F.);
#4 = FACE_OUTER_BOUND('', #5, .F.);
#5 = EDGE_LOOP('', (#6, #15, #27, #28));
#6 = ORIENTED_EDGE('', *, *, #7, .F.);
#7 = EDGE_CURVE('', #8, #10, #12, .T.);
#8 = VERTEX_POINT('', #9);
#9 = CARTESIAN_POINT('', (8., 0., 0.));
#10 = VERTEX_POINT('', #11);
#11 = CARTESIAN_POINT('', (8., 0., 10.));
#12 = B_SPLINE_CURVE_WITH_KNOTS('', 1, (#13, #14), .UNSPECIFIED., .F., .U., (2, 2), (0., 10.), .UNSPECIFIED.);
#13 = CARTESIAN_POINT('', (8., 0., 0.));
#14 = CARTESIAN_POINT('', (8., 0., 10.));
#15 = ORIENTED_EDGE('', *, *, #16, .T.);
#16 = EDGE_CURVE('', #8, #8, #17, .T.);
#17 = (
   BOUNDED_CURVE ()
   B_SPLINE_CURVE (2, (#18, #19, #20, #21, #22, #23, #24, #25, #26), .UNSPECIFIED., .T., .U.)
   B_SPLINE_CURVE_WITH_KNOTS ((3, 2, 2, 2, 3), (0., 12.5663706143592, 25.1327412287183, 37.6991118430775, 50.2654824574367), .UNSPECIFIED.)
   CURVE ()
   GEOMETRIC_REPRESENTATION_ITEM ()
   RATIONAL_B_SPLINE_CURVE ((1., 0.707106781186548, 1., 0.707106781186548, 1., 0.707106781186548, 1., 0.707106781186548, 1.))
   REPRESENTATION_ITEM ('')
);
#18 = CARTESIAN_POINT('', (8., 0., 0.));
#19 = CARTESIAN_POINT('', (8., 8., 0.));
#20 = CARTESIAN_POINT('', (4.89858719658941E-16, 8., 0.));
#21 = CARTESIAN_POINT('', (-8., 8., 0.));
#22 = CARTESIAN_POINT('', (-8., 9.79717439317883E-16, 0.));
#23 = CARTESIAN_POINT('', (-8., -8., 0.));
#24 = CARTESIAN_POINT('', (-1.46957615897682E-15, -8., 0.));
#25 = CARTESIAN_POINT('', (8., -8., 0.));
#26 = CARTESIAN_POINT('', (8., 0., 0.));
#27 = ORIENTED_EDGE('', *, *, #7, .T.);
#28 = ORIENTED_EDGE('', *, *, #29, .F.);
#29 = EDGE_CURVE('', #10, #10, #30, .T.);
#30 = (
   BOUNDED_CURVE ()
   B_SPLINE_CURVE (2, (#31, #32, #33, #34, #35, #36, #37, #38, #39), .UNSPECIFIED., .T., .U.)
   B_SPLINE_CURVE_WITH_KNOTS ((3, 2, 2, 2, 3), (0., 12.5663706143592, 25.1327412287183, 37.6991118430775, 50.2654824574367), .UNSPECIFIED.)
   CURVE ()
   GEOMETRIC_REPRESENTATION_ITEM ()
   RATIONAL_B_SPLINE_CURVE ((1., 0.707106781186548, 1., 0.707106781186548, 1., 0.707106781186548, 1., 0.707106781186548, 1.))
   REPRESENTATION_ITEM ('')
);
#31 = CARTESIAN_POINT('', (8., 0., 10.));
#32 = CARTESIAN_POINT('', (8., 8., 10.));
#33 = CARTESIAN_POINT('', (4.89858719658941E-16, 8., 10.));
#34 = CARTESIAN_POINT('', (-8., 8., 10.));
#35 = CARTESIAN_POINT('', (-8., 9.79717439317883E-16, 10.));
#36 = CARTESIAN_POINT('', (-8., -8., 10.));
#37 = CARTESIAN_POINT('', (-1.46957615897682E-15, -8., 10.));
#38 = CARTESIAN_POINT('', (8., -8., 10.));
#39 = CARTESIAN_POINT('', (8., 0., 10.));
#40 = (
   BOUNDED_SURFACE ()
   B_SPLINE_SURFACE (2, 1, ((#41, #42), (#43, #44), (#45, #46), (#47, #48), (#49, #50), (#51, #52), (#53, #54), (#55, #56), (#57, #58)), .UNSPECIFIED., .T., .F., .U.)
   B_SPLINE_SURFACE_WITH_KNOTS ((3, 2, 2, 2, 3), (2, 2), (0., 12.5663706143592, 25.1327412287183, 37.6991118430775, 50.2654824574367), (0., 10.), .UNSPECIFIED.)
   GEOMETRIC_REPRESENTATION_ITEM ()
   RATIONAL_B_SPLINE_SURFACE (((1., 1.), (0.707106781186548, 0.707106781186548), (1., 1.), (0.707106781186548, 0.707106781186548), (1., 1.), (0.707106781186548, 0.707106781186548), (1., 1.), (0.707106781186548, 0.707106781186548), (1., 1.)))
   REPRESENTATION_ITEM ('')
   SURFACE ()
);
#41 = CARTESIAN_POINT('', (8., 0., 0.));
#42 = CARTESIAN_POINT('', (8., 0., 10.));
#43 = CARTESIAN_POINT('', (8., 8., 0.));
#44 = CARTESIAN_POINT('', (8., 8., 10.));
#45 = CARTESIAN_POINT('', (4.89858719658941E-16, 8., 0.));
#46 = CARTESIAN_POINT('', (4.89858719658941E-16, 8., 10.));
#47 = CARTESIAN_POINT('', (-8., 8., 0.));
#48 = CARTESIAN_POINT('', (-8., 8., 10.));
#49 = CARTESIAN_POINT('', (-8., 9.79717439317883E-16, 0.));
#50 = CARTESIAN_POINT('', (-8., 9.79717439317883E-16, 10.));
#51 = CARTESIAN_POINT('', (-8., -8., 0.));
#52 = CARTESIAN_POINT('', (-8., -8., 10.));
#53 = CARTESIAN_POINT('', (-1.46957615897682E-15, -8., 0.));
#54 = CARTESIAN_POINT('', (-1.46957615897682E-15, -8., 10.));
#55 = CARTESIAN_POINT('', (8., -8., 0.));
#56 = CARTESIAN_POINT('', (8., -8., 10.));
#57 = CARTESIAN_POINT('', (8., 0., 0.));
#58 = CARTESIAN_POINT('', (8., 0., 10.));
#59 = ADVANCED_FACE('', (#60), #63, .F.);
#60 = FACE_OUTER_BOUND('', #61, .F.);
#61 = EDGE_LOOP('', (#62));
#62 = ORIENTED_EDGE('', *, *, #16, .F.);
#63 = B_SPLINE_SURFACE_WITH_KNOTS('', 1, 1, ((#64, #65), (#66, #67)), .UNSPECIFIED., .F., .F., .U., (2, 2), (2, 2), (0., 1.), (0., 1.), .UNSPECIFIED.);
#64 = CARTESIAN_POINT('', (62.2253967444162, -62.2253967444162, 0.));
#65 = CARTESIAN_POINT('', (62.2253967444162, 62.2253967444162, 0.));
#66 = CARTESIAN_POINT('', (-62.2253967444162, -62.2253967444162, 0.));
#67 = CARTESIAN_POINT('', (-62.2253967444162, 62.2253967444162, 0.));
#68 = ADVANCED_FACE('', (#69), #72, .F.);
#69 = FACE_OUTER_BOUND('', #70, .F.);
#70 = EDGE_LOOP('', (#71));
#71 = ORIENTED_EDGE('', *, *, #29, .T.);
#72 = B_SPLINE_SURFACE_WITH_KNOTS('', 1, 1, ((#73, #74), (#75, #76)), .UNSPECIFIED., .F., .F., .U., (2, 2), (2, 2), (0., 1.), (0., 1.), .UNSPECIFIED.);
#73 = CARTESIAN_POINT('', (62.2253967444162, -62.2253967444162, 9.99999999999999));
#74 = CARTESIAN_POINT('', (-62.2253967444162, -62.2253967444162, 9.99999999999999));
#75 = CARTESIAN_POINT('', (62.2253967444162, 62.2253967444162, 10.));
#76 = CARTESIAN_POINT('', (-62.2253967444162, 62.2253967444162, 10.));
#77 = CLOSED_SHELL('', (#78, #134, #159, #202));
#78 = ADVANCED_FACE('', (#79), #115, .F.);
#79 = FACE_OUTER_BOUND('', #80, .F.);
#80 = EDGE_LOOP('', (#81, #90, #102, #103));
#81 = ORIENTED_EDGE('', *, *, #82, .T.);
#82 = EDGE_CURVE('', #83, #85, #87, .T.);
#83 = VERTEX_POINT('', #84);
#84 = CARTESIAN_POINT('', (20., 0., 0.));
#85 = VERTEX_POINT('', #86);
#86 = CARTESIAN_POINT('', (20., 0., 10.));
#87 = B_SPLINE_CURVE_WITH_KNOTS('', 1, (#88, #89), .UNSPECIFIED., .F., .U., (2, 2), (0., 10.), .UNSPECIFIED.);
#88 = CARTESIAN_POINT('', (20., 0., 0.));
#89 = CARTESIAN_POINT('', (20., 0., 10.));
#90 = ORIENTED_EDGE('', *, *, #91, .T.);
#91 = EDGE_CURVE('', #85, #85, #92, .T.);
#92 = (
   BOUNDED_CURVE ()
   B_SPLINE_CURVE (2, (#93, #94, #95, #96, #97, #98, #99, #100, #101), .UNSPECIFIED., .T., .U.)
   B_SPLINE_CURVE_WITH_KNOTS ((3, 2, 2, 2, 3), (0., 31.4159265358979, 62.8318530717959, 94.2477796076938, 125.663706143592), .UNSPECIFIED.)
   CURVE ()
   GEOMETRIC_REPRESENTATION_ITEM ()
   RATIONAL_B_SPLINE_CURVE ((1., 0.707106781186548, 1., 0.707106781186548, 1., 0.707106781186548, 1., 0.707106781186548, 1.))
   REPRESENTATION_ITEM ('')
);
#93 = CARTESIAN_POINT('', (20., 0., 10.));
#94 = CARTESIAN_POINT('', (20., 20., 10.));
#95 = CARTESIAN_POINT('', (1.22464679914735E-15, 20., 10.));
#96 = CARTESIAN_POINT('', (-20., 20., 10.));
#97 = CARTESIAN_POINT('', (-20., 2.44929359829471E-15, 10.));
#98 = CARTESIAN_POINT('', (-20., -20., 10.));
#99 = CARTESIAN_POINT('', (-3.67394039744206E-15, -20., 10.));
#100 = CARTESIAN_POINT('', (20., -20., 10.));
#101 = CARTESIAN_POINT('', (20., 0., 10.));
#102 = ORIENTED_EDGE('', *, *, #82, .F.);
#103 = ORIENTED_EDGE('', *, *, #104, .F.);
#104 = EDGE_CURVE('', #83, #83, #105, .T.);
#105 = (
   BOUNDED_CURVE ()
   B_SPLINE_CURVE (2, (#106, #107, #108, #109, #110, #111, #112, #113, #114), .UNSPECIFIED., .T., .U.)
   B_SPLINE_CURVE_WITH_KNOTS ((3, 2, 2, 2, 3), (0., 31.4159265358979, 62.8318530717959, 94.2477796076938, 125.663706143592), .UNSPECIFIED.)
   CURVE ()
   GEOMETRIC_REPRESENTATION_ITEM ()
   RATIONAL_B_SPLINE_CURVE ((1., 0.707106781186548, 1., 0.707106781186548, 1., 0.707106781186548, 1., 0.707106781186548, 1.))
   REPRESENTATION_ITEM ('')
);
#106 = CARTESIAN_POINT('', (20., 0., 0.));
#107 = CARTESIAN_POINT('', (20., 20., 0.));
#108 = CARTESIAN_POINT('', (1.22464679914735E-15, 20., 0.));
#109 = CARTESIAN_POINT('', (-20., 20., 0.));
#110 = CARTESIAN_POINT('', (-20., 2.44929359829471E-15, 0.));
#111 = CARTESIAN_POINT('', (-20., -20., 0.));
#112 = CARTESIAN_POINT('', (-3.67394039744206E-15, -20., 0.));
#113 = CARTESIAN_POINT('', (20., -20., 0.));
#114 = CARTESIAN_POINT('', (20., 0., 0.));
#115 = (
   BOUNDED_SURFACE ()
   B_SPLINE_SURFACE (1, 2, ((#116, #117, #118, #119, #120, #121, #122, #123, #124), (#125, #126, #127, #128, #129, #130, #131, #132, #133)), .UNSPECIFIED., .F., .T., .U.)
   B_SPLINE_SURFACE_WITH_KNOTS ((2, 2), (3, 2, 2, 2, 3), (0., 10.), (0., 31.4159265358979, 62.8318530717959, 94.2477796076938, 125.663706143592), .UNSPECIFIED.)
   GEOMETRIC_REPRESENTATION_ITEM ()
   RATIONAL_B_SPLINE_SURFACE (((1., 0.707106781186548, 1., 0.707106781186548, 1., 0.707106781186548, 1., 0.707106781186548, 1.), (1., 0.707106781186548, 1., 0.707106781186548, 1., 0.707106781186548, 1., 0.707106781186548, 1.)))
   REPRESENTATION_ITEM ('')
   SURFACE ()
);
#116 = CARTESIAN_POINT('', (20., 0., 0.));
#117 = CARTESIAN_POINT('', (20., 20., 0.));
#118 = CARTESIAN_POINT('', (1.22464679914735E-15, 20., 0.));
#119 = CARTESIAN_POINT('', (-20., 20., 0.));
#120 = CARTESIAN_POINT('', (-20., 2.44929359829471E-15, 0.));
#121 = CARTESIAN_POINT('', (-20., -20., 0.));
#122 = CARTESIAN_POINT('', (-3.67394039744206E-15, -20., 0.));
#123 = CARTESIAN_POINT('', (20., -20., 0.));
#124 = CARTESIAN_POINT('', (20., 0., 0.));
#125 = CARTESIAN_POINT('', (20., 0., 10.));
#126 = CARTESIAN_POINT('', (20., 20., 10.));
#127 = CARTESIAN_POINT('', (1.22464679914735E-15, 20., 10.));
#128 = CARTESIAN_POINT('', (-20., 20., 10.));
#129 = CARTESIAN_POINT('', (-20., 2.44929359829471E-15, 10.));
#130 = CARTESIAN_POINT('', (-20., -20., 10.));
#131 = CARTESIAN_POINT('', (-3.67394039744206E-15, -20., 10.));
#132 = CARTESIAN_POINT('', (20., -20., 10.));
#133 = CARTESIAN_POINT('', (20., 0., 10.));
#134 = ADVANCED_FACE('', (#135, #151), #154, .F.);
#135 = FACE_OUTER_BOUND('', #136, .F.);
#136 = EDGE_LOOP('', (#137));
#137 = ORIENTED_EDGE('', *, *, #138, .T.);
#138 = EDGE_CURVE('', #139, #139, #141, .T.);
#139 = VERTEX_POINT('', #140);
#140 = CARTESIAN_POINT('', (40., 0., 10.));
#141 = (
   BOUNDED_CURVE ()
   B_SPLINE_CURVE (2, (#142, #143, #144, #145, #146, #147, #148, #149, #150), .UNSPECIFIED., .T., .U.)
   B_SPLINE_CURVE_WITH_KNOTS ((3, 2, 2, 2, 3), (0., 62.8318530717959, 125.663706143592, 188.495559215388, 251.327412287183), .UNSPECIFIED.)
   CURVE ()
   GEOMETRIC_REPRESENTATION_ITEM ()
   RATIONAL_B_SPLINE_CURVE ((1., 0.707106781186548, 1., 0.707106781186548, 1., 0.707106781186548, 1., 0.707106781186548, 1.))
   REPRESENTATION_ITEM ('')
);
#142 = CARTESIAN_POINT('', (40., 0., 10.));
#143 = CARTESIAN_POINT('', (40., 40., 10.));
#144 = CARTESIAN_POINT('', (2.44929359829471E-15, 40., 10.));
#145 = CARTESIAN_POINT('', (-40., 40., 10.));
#146 = CARTESIAN_POINT('', (-40., 4.89858719658941E-15, 10.));
#147 = CARTESIAN_POINT('', (-40., -40., 10.));
#148 = CARTESIAN_POINT('', (-7.34788079488412E-15, -40., 10.));
#149 = CARTESIAN_POINT('', (40., -40., 10.));
#150 = CARTESIAN_POINT('', (40., 0., 10.));
#151 = FACE_BOUND('', #152, .F.);
#152 = EDGE_LOOP('', (#153));
#153 = ORIENTED_EDGE('', *, *, #91, .F.);
#154 = B_SPLINE_SURFACE_WITH_KNOTS('', 1, 1, ((#155, #156), (#157, #158)), .UNSPECIFIED., .F., .F., .U., (2, 2), (2, 2), (0., 1.), (0., 1.), .UNSPECIFIED.);
#155 = CARTESIAN_POINT('', (62.2253967444162, -62.2253967444162, 9.99999999999999));
#156 = CARTESIAN_POINT('', (-62.2253967444162, -62.2253967444162, 9.99999999999999));
#157 = CARTESIAN_POINT('', (62.2253967444162, 62.2253967444162, 10.));
#158 = CARTESIAN_POINT('', (-62.2253967444162, 62.2253967444162, 10.));
#159 = ADVANCED_FACE('', (#160), #183, .F.);
#160 = FACE_OUTER_BOUND('', #161, .F.);
#161 = EDGE_LOOP('', (#162, #169, #181, #182));
#162 = ORIENTED_EDGE('', *, *, #163, .F.);
#163 = EDGE_CURVE('', #164, #139, #166, .T.);
#164 = VERTEX_POINT('', #165);
#165 = CARTESIAN_POINT('', (40., 0., 0.));
#166 = B_SPLINE_CURVE_WITH_KNOTS('', 1, (#167, #168), .UNSPECIFIED., .F., .U., (2, 2), (0., 10.), .UNSPECIFIED.);
#167 = CARTESIAN_POINT('', (40., 0., 0.));
#168 = CARTESIAN_POINT('', (40., 0., 10.));
#169 = ORIENTED_EDGE('', *, *, #170, .T.);
#170 = EDGE_CURVE('', #164, #164, #171, .T.);
#171 = (
   BOUNDED_CURVE ()
   B_SPLINE_CURVE (2, (#172, #173, #174, #175, #176, #177, #178, #179, #180), .UNSPECIFIED., .T., .U.)
   B_SPLINE_CURVE_WITH_KNOTS ((3, 2, 2, 2, 3), (0., 62.8318530717959, 125.663706143592, 188.495559215388, 251.327412287183), .UNSPECIFIED.)
   CURVE ()
   GEOMETRIC_REPRESENTATION_ITEM ()
   RATIONAL_B_SPLINE_CURVE ((1., 0.707106781186548, 1., 0.707106781186548, 1., 0.707106781186548, 1., 0.707106781186548, 1.))
   REPRESENTATION_ITEM ('')
);
#172 = CARTESIAN_POINT('', (40., 0., 0.));
#173 = CARTESIAN_POINT('', (40., 40., 0.));
#174 = CARTESIAN_POINT('', (2.44929359829471E-15, 40., 0.));
#175 = CARTESIAN_POINT('', (-40., 40., 0.));
#176 = CARTESIAN_POINT('', (-40., 4.89858719658941E-15, 0.));
#177 = CARTESIAN_POINT('', (-40., -40., 0.));
#178 = CARTESIAN_POINT('', (-7.34788079488412E-15, -40., 0.));
#179 = CARTESIAN_POINT('', (40., -40., 0.));
#180 = CARTESIAN_POINT('', (40., 0., 0.));
#181 = ORIENTED_EDGE('', *, *, #163, .T.);
#182 = ORIENTED_EDGE('', *, *, #138, .F.);
#183 = (
   BOUNDED_SURFACE ()
   B_SPLINE_SURFACE (2, 1, ((#184, #185), (#186, #187), (#188, #189), (#190, #191), (#192, #193), (#194, #195), (#196, #197), (#198, #199), (#200, #201)), .UNSPECIFIED., .T., .F., .U.)
   B_SPLINE_SURFACE_WITH_KNOTS ((3, 2, 2, 2, 3), (2, 2), (0., 62.8318530717959, 125.663706143592, 188.495559215388, 251.327412287183), (0., 10.), .UNSPECIFIED.)
   GEOMETRIC_REPRESENTATION_ITEM ()
   RATIONAL_B_SPLINE_SURFACE (((1., 1.), (0.707106781186548, 0.707106781186548), (1., 1.), (0.707106781186548, 0.707106781186548), (1., 1.), (0.707106781186548, 0.707106781186548), (1., 1.), (0.707106781186548, 0.707106781186548), (1., 1.)))
   REPRESENTATION_ITEM ('')
   SURFACE ()
);
#184 = CARTESIAN_POINT('', (40., 0., 0.));
#185 = CARTESIAN_POINT('', (40., 0., 10.));
#186 = CARTESIAN_POINT('', (40., 40., 0.));
#187 = CARTESIAN_POINT('', (40., 40., 10.));
#188 = CARTESIAN_POINT('', (2.44929359829471E-15, 40., 0.));
#189 = CARTESIAN_POINT('', (2.44929359829471E-15, 40., 10.));
#190 = CARTESIAN_POINT('', (-40., 40., 0.));
#191 = CARTESIAN_POINT('', (-40., 40., 10.));
#192 = CARTESIAN_POINT('', (-40., 4.89858719658941E-15, 0.));
#193 = CARTESIAN_POINT('', (-40., 4.89858719658941E-15, 10.));
#194 = CARTESIAN_POINT('', (-40., -40., 0.));
#195 = CARTESIAN_POINT('', (-40., -40., 10.));
#196 = CARTESIAN_POINT('', (-7.34788079488412E-15, -40., 0.));
#197 = CARTESIAN_POINT('', (-7.34788079488412E-15, -40., 10.));
#198 = CARTESIAN_POINT('', (40., -40., 0.));
#199 = CARTESIAN_POINT('', (40., -40., 10.));
#200 = CARTESIAN_POINT('', (40., 0., 0.));
#201 = CARTESIAN_POINT('', (40., 0., 10.));
#202 = ADVANCED_FACE('', (#203, #206), #209, .F.);
#203 = FACE_OUTER_BOUND('', #204, .F.);
#204 = EDGE_LOOP('', (#205));
#205 = ORIENTED_EDGE('', *, *, #170, .F.);
#206 = FACE_BOUND('', #207, .F.);
#207 = EDGE_LOOP('', (#208));
#208 = ORIENTED_EDGE('', *, *, #104, .T.);
#209 = B_SPLINE_SURFACE_WITH_KNOTS('', 1, 1, ((#210, #211), (#212, #213)), .UNSPECIFIED., .F., .F., .U., (2, 2), (2, 2), (0., 1.), (0., 1.), .UNSPECIFIED.);
#210 = CARTESIAN_POINT('', (62.2253967444162, -62.2253967444162, 0.));
#211 = CARTESIAN_POINT('', (62.2253967444162, 62.2253967444162, 0.));
#212 = CARTESIAN_POINT('', (-62.2253967444162, -62.2253967444162, 0.));
#213 = CARTESIAN_POINT('', (-62.2253967444162, 62.2253967444162, 0.));
#214 = DRAUGHTING_MODEL('', (#222), #223);
#215 = PRESENTATION_STYLE_ASSIGNMENT((#216));
#216 = SURFACE_STYLE_USAGE(.POSITIVE., #217);
#217 = SURFACE_SIDE_STYLE('', (#218));
#218 = SURFACE_STYLE_FILL_AREA(#219);
#219 = FILL_AREA_STYLE('', (#220));
#220 = FILL_AREA_STYLE_COLOUR('', #221);
#221 = COLOUR_RGB('', 0.50196078431373, 0.50196078431373, 0.50196078431373);
#222 = STYLED_ITEM('', (#215), #1);
#223 = (
   GEOMETRIC_REPRESENTATION_CONTEXT (3)
   GLOBAL_UNCERTAINTY_ASSIGNED_CONTEXT ((#225))
   GLOBAL_UNIT_ASSIGNED_CONTEXT ((#224, #226, #227))
   REPRESENTATION_CONTEXT ('', '3D')
);
#224 = (
   LENGTH_UNIT ()
   NAMED_UNIT (*)
   SI_UNIT (.MILLI., .METRE.)
);
#225 = UNCERTAINTY_MEASURE_WITH_UNIT(LENGTH_MEASURE(1.E-6), #224, 'DISTANCE_ACCURACY_VALUE', '');
#226 = (
   NAMED_UNIT (*)
   SI_UNIT ($, .STERADIAN.)
   SOLID_ANGLE_UNIT ()
);
#227 = (
   NAMED_UNIT (*)
   PLANE_ANGLE_UNIT ()
   SI_UNIT ($, .RADIAN.)
);
#228 = SHAPE_REPRESENTATION('', (#241), #223);
#229 = PRODUCT_DEFINITION_SHAPE('', '', #230);
#230 = PRODUCT_DEFINITION('', '', #233, #237);
#231 = APPLICATION_CONTEXT('configuration controlled 3D designs of mechanical parts and assemblies');
#232 = APPLICATION_PROTOCOL_DEFINITION('International Standard', 'automotive_design', 2002, #231);
#233 = PRODUCT_DEFINITION_FORMATION_WITH_SPECIFIED_SOURCE('', '', #234, .NOT_KNOWN.);
#234 = PRODUCT('Islands', 'Islands', '', (#235));
#235 = PRODUCT_CONTEXT('', #231, 'mechanical');
#236 = PRODUCT_RELATED_PRODUCT_CATEGORY('detail', '', (#234));
#237 = PRODUCT_DEFINITION_CONTEXT('part definition', #231, 'design');
#238 = SHAPE_DEFINITION_REPRESENTATION(#229, #228);
#239 = SHAPE_REPRESENTATION_RELATIONSHIP('', '', #228, #240);
#240 = MANIFOLD_SURFACE_SHAPE_REPRESENTATION('', (#1), #223);
#241 = AXIS2_PLACEMENT_3D('', #242, #243, #244);
#242 = CARTESIAN_POINT('', (0., 0., 0.));
#243 = DIRECTION('', (0., 0., 1.));
#244 = DIRECTION('', (1., 0., 0.));
ENDSEC;
END-ISO-10303-21;
