ISO-10303-21;
HEADER;
FILE_DESCRIPTION(('STEP'), '1');
FILE_NAME('CylExpr', '2026-04-17T18:13:31', (''), (''), 'Express 3.1.2.0', 'Express Tool', 'Unknown');
FILE_SCHEMA(('AUTOMOTIVE_DESIGN'));
ENDSEC;

DATA;
#1 = MANIFOLD_SOLID_BREP('ExprCyl_0', #2);
#2 = CLOSED_SHELL('', (#3, #59, #68));
#3 = ADVANCED_FACE('', (#4), #40, .T.);
#4 = FACE_OUTER_BOUND('', #5, .T.);
#5 = EDGE_LOOP('', (#6, #15, #27, #28));
#6 = ORIENTED_EDGE('', *, *, #7, .F.);
#7 = EDGE_CURVE('', #8, #10, #12, .T.);
#8 = VERTEX_POINT('', #9);
#9 = CARTESIAN_POINT('', (40., 0., 0.));
#10 = VERTEX_POINT('', #11);
#11 = CARTESIAN_POINT('', (40., 0., 150.));
#12 = B_SPLINE_CURVE_WITH_KNOTS('', 1, (#13, #14), .UNSPECIFIED., .F., .U., (2, 2), (0., 150.), .UNSPECIFIED.);
#13 = CARTESIAN_POINT('', (40., 0., 0.));
#14 = CARTESIAN_POINT('', (40., 0., 150.));
#15 = ORIENTED_EDGE('', *, *, #16, .T.);
#16 = EDGE_CURVE('', #8, #8, #17, .T.);
#17 = (
   BOUNDED_CURVE ()
   B_SPLINE_CURVE (2, (#18, #19, #20, #21, #22, #23, #24, #25, #26), .UNSPECIFIED., .T., .U.)
   B_SPLINE_CURVE_WITH_KNOTS ((3, 2, 2, 2, 3), (0., 62.8318530717959, 125.663706143592, 188.495559215388, 251.327412287183), .UNSPECIFIED.)
   CURVE ()
   GEOMETRIC_REPRESENTATION_ITEM ()
   RATIONAL_B_SPLINE_CURVE ((1., 0.707106781186548, 1., 0.707106781186548, 1., 0.707106781186548, 1., 0.707106781186548, 1.))
   REPRESENTATION_ITEM ('')
);
#18 = CARTESIAN_POINT('', (40., 0., 0.));
#19 = CARTESIAN_POINT('', (40., 40., 0.));
#20 = CARTESIAN_POINT('', (2.44929359829471E-15, 40., 0.));
#21 = CARTESIAN_POINT('', (-40., 40., 0.));
#22 = CARTESIAN_POINT('', (-40., 4.89858719658941E-15, 0.));
#23 = CARTESIAN_POINT('', (-40., -40., 0.));
#24 = CARTESIAN_POINT('', (-7.34788079488412E-15, -40., 0.));
#25 = CARTESIAN_POINT('', (40., -40., 0.));
#26 = CARTESIAN_POINT('', (40., 0., 0.));
#27 = ORIENTED_EDGE('', *, *, #7, .T.);
#28 = ORIENTED_EDGE('', *, *, #29, .F.);
#29 = EDGE_CURVE('', #10, #10, #30, .T.);
#30 = (
   BOUNDED_CURVE ()
   B_SPLINE_CURVE (2, (#31, #32, #33, #34, #35, #36, #37, #38, #39), .UNSPECIFIED., .T., .U.)
   B_SPLINE_CURVE_WITH_KNOTS ((3, 2, 2, 2, 3), (0., 62.8318530717959, 125.663706143592, 188.495559215388, 251.327412287183), .UNSPECIFIED.)
   CURVE ()
   GEOMETRIC_REPRESENTATION_ITEM ()
   RATIONAL_B_SPLINE_CURVE ((1., 0.707106781186548, 1., 0.707106781186548, 1., 0.707106781186548, 1., 0.707106781186548, 1.))
   REPRESENTATION_ITEM ('')
);
#31 = CARTESIAN_POINT('', (40., 0., 150.));
#32 = CARTESIAN_POINT('', (40., 40., 150.));
#33 = CARTESIAN_POINT('', (2.44929359829471E-15, 40., 150.));
#34 = CARTESIAN_POINT('', (-40., 40., 150.));
#35 = CARTESIAN_POINT('', (-40., 4.89858719658941E-15, 150.));
#36 = CARTESIAN_POINT('', (-40., -40., 150.));
#37 = CARTESIAN_POINT('', (-7.34788079488412E-15, -40., 150.));
#38 = CARTESIAN_POINT('', (40., -40., 150.));
#39 = CARTESIAN_POINT('', (40., 0., 150.));
#40 = (
   BOUNDED_SURFACE ()
   B_SPLINE_SURFACE (2, 1, ((#41, #42), (#43, #44), (#45, #46), (#47, #48), (#49, #50), (#51, #52), (#53, #54), (#55, #56), (#57, #58)), .UNSPECIFIED., .T., .F., .U.)
   B_SPLINE_SURFACE_WITH_KNOTS ((3, 2, 2, 2, 3), (2, 2), (0., 62.8318530717959, 125.663706143592, 188.495559215388, 251.327412287183), (0., 150.), .UNSPECIFIED.)
   GEOMETRIC_REPRESENTATION_ITEM ()
   RATIONAL_B_SPLINE_SURFACE (((1., 1.), (0.707106781186548, 0.707106781186548), (1., 1.), (0.707106781186548, 0.707106781186548), (1., 1.), (0.707106781186548, 0.707106781186548), (1., 1.), (0.707106781186548, 0.707106781186548), (1., 1.)))
   REPRESENTATION_ITEM ('')
   SURFACE ()
);
#41 = CARTESIAN_POINT('', (40., 0., 0.));
#42 = CARTESIAN_POINT('', (40., 0., 150.));
#43 = CARTESIAN_POINT('', (40., 40., 0.));
#44 = CARTESIAN_POINT('', (40., 40., 150.));
#45 = CARTESIAN_POINT('', (2.44929359829471E-15, 40., 0.));
#46 = CARTESIAN_POINT('', (2.44929359829471E-15, 40., 150.));
#47 = CARTESIAN_POINT('', (-40., 40., 0.));
#48 = CARTESIAN_POINT('', (-40., 40., 150.));
#49 = CARTESIAN_POINT('', (-40., 4.89858719658941E-15, 0.));
#50 = CARTESIAN_POINT('', (-40., 4.89858719658941E-15, 150.));
#51 = CARTESIAN_POINT('', (-40., -40., 0.));
#52 = CARTESIAN_POINT('', (-40., -40., 150.));
#53 = CARTESIAN_POINT('', (-7.34788079488412E-15, -40., 0.));
#54 = CARTESIAN_POINT('', (-7.34788079488412E-15, -40., 150.));
#55 = CARTESIAN_POINT('', (40., -40., 0.));
#56 = CARTESIAN_POINT('', (40., -40., 150.));
#57 = CARTESIAN_POINT('', (40., 0., 0.));
#58 = CARTESIAN_POINT('', (40., 0., 150.));
#59 = ADVANCED_FACE('', (#60), #63, .T.);
#60 = FACE_OUTER_BOUND('', #61, .T.);
#61 = EDGE_LOOP('', (#62));
#62 = ORIENTED_EDGE('', *, *, #16, .F.);
#63 = B_SPLINE_SURFACE_WITH_KNOTS('', 1, 1, ((#64, #65), (#66, #67)), .UNSPECIFIED., .F., .F., .U., (2, 2), (2, 2), (0., 1.), (0., 1.), .UNSPECIFIED.);
#64 = CARTESIAN_POINT('', (62.2253967444162, -62.2253967444162, 0.));
#65 = CARTESIAN_POINT('', (62.2253967444162, 62.2253967444162, 0.));
#66 = CARTESIAN_POINT('', (-62.2253967444162, -62.2253967444162, 0.));
#67 = CARTESIAN_POINT('', (-62.2253967444162, 62.2253967444162, 0.));
#68 = ADVANCED_FACE('', (#69), #72, .T.);
#69 = FACE_OUTER_BOUND('', #70, .T.);
#70 = EDGE_LOOP('', (#71));
#71 = ORIENTED_EDGE('', *, *, #29, .T.);
#72 = B_SPLINE_SURFACE_WITH_KNOTS('', 1, 1, ((#73, #74), (#75, #76)), .UNSPECIFIED., .F., .F., .U., (2, 2), (2, 2), (0., 1.), (0., 1.), .UNSPECIFIED.);
#73 = CARTESIAN_POINT('', (62.2253967444162, -62.2253967444162, 150.));
#74 = CARTESIAN_POINT('', (-62.2253967444162, -62.2253967444162, 150.));
#75 = CARTESIAN_POINT('', (62.2253967444162, 62.2253967444162, 150.));
#76 = CARTESIAN_POINT('', (-62.2253967444162, 62.2253967444162, 150.));
#77 = DRAUGHTING_MODEL('', (#85, #169, #315), #318);
#78 = PRESENTATION_STYLE_ASSIGNMENT((#79));
#79 = SURFACE_STYLE_USAGE(.POSITIVE., #80);
#80 = SURFACE_SIDE_STYLE('', (#81));
#81 = SURFACE_STYLE_FILL_AREA(#82);
#82 = FILL_AREA_STYLE('', (#83));
#83 = FILL_AREA_STYLE_COLOUR('', #84);
#84 = COLOUR_RGB('', 0.50196078431373, 0.50196078431373, 0.50196078431373);
#85 = STYLED_ITEM('', (#78), #1);
#86 = MANIFOLD_SOLID_BREP('MathCyl_0', #87);
#87 = CLOSED_SHELL('', (#88, #144, #153));
#88 = ADVANCED_FACE('', (#89), #125, .T.);
#89 = FACE_OUTER_BOUND('', #90, .T.);
#90 = EDGE_LOOP('', (#91, #100, #112, #113));
#91 = ORIENTED_EDGE('', *, *, #92, .F.);
#92 = EDGE_CURVE('', #93, #95, #97, .T.);
#93 = VERTEX_POINT('', #94);
#94 = CARTESIAN_POINT('', (40., 0., 0.));
#95 = VERTEX_POINT('', #96);
#96 = CARTESIAN_POINT('', (40., 0., 100.));
#97 = B_SPLINE_CURVE_WITH_KNOTS('', 1, (#98, #99), .UNSPECIFIED., .F., .U., (2, 2), (0., 100.), .UNSPECIFIED.);
#98 = CARTESIAN_POINT('', (40., 0., 0.));
#99 = CARTESIAN_POINT('', (40., 0., 100.));
#100 = ORIENTED_EDGE('', *, *, #101, .T.);
#101 = EDGE_CURVE('', #93, #93, #102, .T.);
#102 = (
   BOUNDED_CURVE ()
   B_SPLINE_CURVE (2, (#103, #104, #105, #106, #107, #108, #109, #110, #111), .UNSPECIFIED., .T., .U.)
   B_SPLINE_CURVE_WITH_KNOTS ((3, 2, 2, 2, 3), (0., 62.8318530717959, 125.663706143592, 188.495559215388, 251.327412287183), .UNSPECIFIED.)
   CURVE ()
   GEOMETRIC_REPRESENTATION_ITEM ()
   RATIONAL_B_SPLINE_CURVE ((1., 0.707106781186548, 1., 0.707106781186548, 1., 0.707106781186548, 1., 0.707106781186548, 1.))
   REPRESENTATION_ITEM ('')
);
#103 = CARTESIAN_POINT('', (40., 0., 0.));
#104 = CARTESIAN_POINT('', (40., 40., 0.));
#105 = CARTESIAN_POINT('', (2.44929359829471E-15, 40., 0.));
#106 = CARTESIAN_POINT('', (-40., 40., 0.));
#107 = CARTESIAN_POINT('', (-40., 4.89858719658941E-15, 0.));
#108 = CARTESIAN_POINT('', (-40., -40., 0.));
#109 = CARTESIAN_POINT('', (-7.34788079488412E-15, -40., 0.));
#110 = CARTESIAN_POINT('', (40., -40., 0.));
#111 = CARTESIAN_POINT('', (40., 0., 0.));
#112 = ORIENTED_EDGE('', *, *, #92, .T.);
#113 = ORIENTED_EDGE('', *, *, #114, .F.);
#114 = EDGE_CURVE('', #95, #95, #115, .T.);
#115 = (
   BOUNDED_CURVE ()
   B_SPLINE_CURVE (2, (#116, #117, #118, #119, #120, #121, #122, #123, #124), .UNSPECIFIED., .T., .U.)
   B_SPLINE_CURVE_WITH_KNOTS ((3, 2, 2, 2, 3), (0., 62.8318530717959, 125.663706143592, 188.495559215388, 251.327412287183), .UNSPECIFIED.)
   CURVE ()
   GEOMETRIC_REPRESENTATION_ITEM ()
   RATIONAL_B_SPLINE_CURVE ((1., 0.707106781186548, 1., 0.707106781186548, 1., 0.707106781186548, 1., 0.707106781186548, 1.))
   REPRESENTATION_ITEM ('')
);
#116 = CARTESIAN_POINT('', (40., 0., 100.));
#117 = CARTESIAN_POINT('', (40., 40., 100.));
#118 = CARTESIAN_POINT('', (2.44929359829471E-15, 40., 100.));
#119 = CARTESIAN_POINT('', (-40., 40., 100.));
#120 = CARTESIAN_POINT('', (-40., 4.89858719658941E-15, 100.));
#121 = CARTESIAN_POINT('', (-40., -40., 100.));
#122 = CARTESIAN_POINT('', (-7.34788079488412E-15, -40., 100.));
#123 = CARTESIAN_POINT('', (40., -40., 100.));
#124 = CARTESIAN_POINT('', (40., 0., 100.));
#125 = (
   BOUNDED_SURFACE ()
   B_SPLINE_SURFACE (2, 1, ((#126, #127), (#128, #129), (#130, #131), (#132, #133), (#134, #135), (#136, #137), (#138, #139), (#140, #141), (#142, #143)), .UNSPECIFIED., .T., .F., .U.)
   B_SPLINE_SURFACE_WITH_KNOTS ((3, 2, 2, 2, 3), (2, 2), (0., 62.8318530717959, 125.663706143592, 188.495559215388, 251.327412287183), (0., 100.), .UNSPECIFIED.)
   GEOMETRIC_REPRESENTATION_ITEM ()
   RATIONAL_B_SPLINE_SURFACE (((1., 1.), (0.707106781186548, 0.707106781186548), (1., 1.), (0.707106781186548, 0.707106781186548), (1., 1.), (0.707106781186548, 0.707106781186548), (1., 1.), (0.707106781186548, 0.707106781186548), (1., 1.)))
   REPRESENTATION_ITEM ('')
   SURFACE ()
);
#126 = CARTESIAN_POINT('', (40., 0., 0.));
#127 = CARTESIAN_POINT('', (40., 0., 100.));
#128 = CARTESIAN_POINT('', (40., 40., 0.));
#129 = CARTESIAN_POINT('', (40., 40., 100.));
#130 = CARTESIAN_POINT('', (2.44929359829471E-15, 40., 0.));
#131 = CARTESIAN_POINT('', (2.44929359829471E-15, 40., 100.));
#132 = CARTESIAN_POINT('', (-40., 40., 0.));
#133 = CARTESIAN_POINT('', (-40., 40., 100.));
#134 = CARTESIAN_POINT('', (-40., 4.89858719658941E-15, 0.));
#135 = CARTESIAN_POINT('', (-40., 4.89858719658941E-15, 100.));
#136 = CARTESIAN_POINT('', (-40., -40., 0.));
#137 = CARTESIAN_POINT('', (-40., -40., 100.));
#138 = CARTESIAN_POINT('', (-7.34788079488412E-15, -40., 0.));
#139 = CARTESIAN_POINT('', (-7.34788079488412E-15, -40., 100.));
#140 = CARTESIAN_POINT('', (40., -40., 0.));
#141 = CARTESIAN_POINT('', (40., -40., 100.));
#142 = CARTESIAN_POINT('', (40., 0., 0.));
#143 = CARTESIAN_POINT('', (40., 0., 100.));
#144 = ADVANCED_FACE('', (#145), #148, .T.);
#145 = FACE_OUTER_BOUND('', #146, .T.);
#146 = EDGE_LOOP('', (#147));
#147 = ORIENTED_EDGE('', *, *, #101, .F.);
#148 = B_SPLINE_SURFACE_WITH_KNOTS('', 1, 1, ((#149, #150), (#151, #152)), .UNSPECIFIED., .F., .F., .U., (2, 2), (2, 2), (0., 1.), (0., 1.), .UNSPECIFIED.);
#149 = CARTESIAN_POINT('', (62.2253967444162, -62.2253967444162, 0.));
#150 = CARTESIAN_POINT('', (62.2253967444162, 62.2253967444162, 0.));
#151 = CARTESIAN_POINT('', (-62.2253967444162, -62.2253967444162, 0.));
#152 = CARTESIAN_POINT('', (-62.2253967444162, 62.2253967444162, 0.));
#153 = ADVANCED_FACE('', (#154), #157, .T.);
#154 = FACE_OUTER_BOUND('', #155, .T.);
#155 = EDGE_LOOP('', (#156));
#156 = ORIENTED_EDGE('', *, *, #114, .T.);
#157 = B_SPLINE_SURFACE_WITH_KNOTS('', 1, 1, ((#158, #159), (#160, #161)), .UNSPECIFIED., .F., .F., .U., (2, 2), (2, 2), (0., 1.), (0., 1.), .UNSPECIFIED.);
#158 = CARTESIAN_POINT('', (62.2253967444162, -62.2253967444162, 100.));
#159 = CARTESIAN_POINT('', (-62.2253967444162, -62.2253967444162, 100.));
#160 = CARTESIAN_POINT('', (62.2253967444162, 62.2253967444162, 100.));
#161 = CARTESIAN_POINT('', (-62.2253967444162, 62.2253967444162, 100.));
#162 = PRESENTATION_STYLE_ASSIGNMENT((#163));
#163 = SURFACE_STYLE_USAGE(.POSITIVE., #164);
#164 = SURFACE_SIDE_STYLE('', (#165));
#165 = SURFACE_STYLE_FILL_AREA(#166);
#166 = FILL_AREA_STYLE('', (#167));
#167 = FILL_AREA_STYLE_COLOUR('', #168);
#168 = COLOUR_RGB('', 0.50196078431373, 0.50196078431373, 0.50196078431373);
#169 = STYLED_ITEM('', (#162), #86);
#170 = MANIFOLD_SOLID_BREP('RefBox_0', #171);
#171 = CLOSED_SHELL('', (#172, #208, #236, #264, #284, #296));
#172 = ADVANCED_FACE('', (#173), #203, .T.);
#173 = FACE_OUTER_BOUND('', #174, .T.);
#174 = EDGE_LOOP('', (#175, #184, #191, #198));
#175 = ORIENTED_EDGE('', *, *, #176, .T.);
#176 = EDGE_CURVE('', #177, #179, #181, .T.);
#177 = VERTEX_POINT('', #178);
#178 = CARTESIAN_POINT('', (0., 30., 0.));
#179 = VERTEX_POINT('', #180);
#180 = CARTESIAN_POINT('', (0., 30., 30.));
#181 = B_SPLINE_CURVE_WITH_KNOTS('', 1, (#182, #183), .UNSPECIFIED., .F., .U., (2, 2), (0., 30.), .UNSPECIFIED.);
#182 = CARTESIAN_POINT('', (0., 30., 0.));
#183 = CARTESIAN_POINT('', (0., 30., 30.));
#184 = ORIENTED_EDGE('', *, *, #185, .T.);
#185 = EDGE_CURVE('', #179, #186, #188, .T.);
#186 = VERTEX_POINT('', #187);
#187 = CARTESIAN_POINT('', (30., 30., 30.));
#188 = B_SPLINE_CURVE_WITH_KNOTS('', 1, (#189, #190), .UNSPECIFIED., .F., .U., (2, 2), (0., 30.), .UNSPECIFIED.);
#189 = CARTESIAN_POINT('', (0., 30., 30.));
#190 = CARTESIAN_POINT('', (30., 30., 30.));
#191 = ORIENTED_EDGE('', *, *, #192, .F.);
#192 = EDGE_CURVE('', #193, #186, #195, .T.);
#193 = VERTEX_POINT('', #194);
#194 = CARTESIAN_POINT('', (30., 30., 0.));
#195 = B_SPLINE_CURVE_WITH_KNOTS('', 1, (#196, #197), .UNSPECIFIED., .F., .U., (2, 2), (0., 30.), .UNSPECIFIED.);
#196 = CARTESIAN_POINT('', (30., 30., 0.));
#197 = CARTESIAN_POINT('', (30., 30., 30.));
#198 = ORIENTED_EDGE('', *, *, #199, .F.);
#199 = EDGE_CURVE('', #177, #193, #200, .T.);
#200 = B_SPLINE_CURVE_WITH_KNOTS('', 1, (#201, #202), .UNSPECIFIED., .F., .U., (2, 2), (0., 30.), .UNSPECIFIED.);
#201 = CARTESIAN_POINT('', (0., 30., 0.));
#202 = CARTESIAN_POINT('', (30., 30., 0.));
#203 = B_SPLINE_SURFACE_WITH_KNOTS('', 1, 1, ((#204, #205), (#206, #207)), .UNSPECIFIED., .F., .F., .U., (2, 2), (2, 2), (0., 30.), (0., 30.), .UNSPECIFIED.);
#204 = CARTESIAN_POINT('', (0., 30., 0.));
#205 = CARTESIAN_POINT('', (30., 30., 0.));
#206 = CARTESIAN_POINT('', (0., 30., 30.));
#207 = CARTESIAN_POINT('', (30., 30., 30.));
#208 = ADVANCED_FACE('', (#209), #231, .T.);
#209 = FACE_OUTER_BOUND('', #210, .T.);
#210 = EDGE_LOOP('', (#211, #218, #225, #230));
#211 = ORIENTED_EDGE('', *, *, #212, .F.);
#212 = EDGE_CURVE('', #213, #179, #215, .T.);
#213 = VERTEX_POINT('', #214);
#214 = CARTESIAN_POINT('', (0., 0., 30.));
#215 = B_SPLINE_CURVE_WITH_KNOTS('', 1, (#216, #217), .UNSPECIFIED., .F., .U., (2, 2), (0., 30.), .UNSPECIFIED.);
#216 = CARTESIAN_POINT('', (0., 0., 30.));
#217 = CARTESIAN_POINT('', (0., 30., 30.));
#218 = ORIENTED_EDGE('', *, *, #219, .T.);
#219 = EDGE_CURVE('', #213, #220, #222, .T.);
#220 = VERTEX_POINT('', #221);
#221 = CARTESIAN_POINT('', (30., 0., 30.));
#222 = B_SPLINE_CURVE_WITH_KNOTS('', 1, (#223, #224), .UNSPECIFIED., .F., .U., (2, 2), (0., 30.), .UNSPECIFIED.);
#223 = CARTESIAN_POINT('', (0., 0., 30.));
#224 = CARTESIAN_POINT('', (30., 0., 30.));
#225 = ORIENTED_EDGE('', *, *, #226, .T.);
#226 = EDGE_CURVE('', #220, #186, #227, .T.);
#227 = B_SPLINE_CURVE_WITH_KNOTS('', 1, (#228, #229), .UNSPECIFIED., .F., .U., (2, 2), (0., 30.), .UNSPECIFIED.);
#228 = CARTESIAN_POINT('', (30., 0., 30.));
#229 = CARTESIAN_POINT('', (30., 30., 30.));
#230 = ORIENTED_EDGE('', *, *, #185, .F.);
#231 = B_SPLINE_SURFACE_WITH_KNOTS('', 1, 1, ((#232, #233), (#234, #235)), .UNSPECIFIED., .F., .F., .U., (2, 2), (2, 2), (0., 30.), (0., 30.), .UNSPECIFIED.);
#232 = CARTESIAN_POINT('', (0., 0., 30.));
#233 = CARTESIAN_POINT('', (0., 30., 30.));
#234 = CARTESIAN_POINT('', (30., 0., 30.));
#235 = CARTESIAN_POINT('', (30., 30., 30.));
#236 = ADVANCED_FACE('', (#237), #259, .T.);
#237 = FACE_OUTER_BOUND('', #238, .T.);
#238 = EDGE_LOOP('', (#239, #246, #253, #258));
#239 = ORIENTED_EDGE('', *, *, #240, .F.);
#240 = EDGE_CURVE('', #241, #213, #243, .T.);
#241 = VERTEX_POINT('', #242);
#242 = CARTESIAN_POINT('', (0., 0., 0.));
#243 = B_SPLINE_CURVE_WITH_KNOTS('', 1, (#244, #245), .UNSPECIFIED., .F., .U., (2, 2), (0., 30.), .UNSPECIFIED.);
#244 = CARTESIAN_POINT('', (0., 0., 0.));
#245 = CARTESIAN_POINT('', (0., 0., 30.));
#246 = ORIENTED_EDGE('', *, *, #247, .T.);
#247 = EDGE_CURVE('', #241, #248, #250, .T.);
#248 = VERTEX_POINT('', #249);
#249 = CARTESIAN_POINT('', (30., 0., 0.));
#250 = B_SPLINE_CURVE_WITH_KNOTS('', 1, (#251, #252), .UNSPECIFIED., .F., .U., (2, 2), (0., 30.), .UNSPECIFIED.);
#251 = CARTESIAN_POINT('', (0., 0., 0.));
#252 = CARTESIAN_POINT('', (30., 0., 0.));
#253 = ORIENTED_EDGE('', *, *, #254, .T.);
#254 = EDGE_CURVE('', #248, #220, #255, .T.);
#255 = B_SPLINE_CURVE_WITH_KNOTS('', 1, (#256, #257), .UNSPECIFIED., .F., .U., (2, 2), (0., 30.), .UNSPECIFIED.);
#256 = CARTESIAN_POINT('', (30., 0., 0.));
#257 = CARTESIAN_POINT('', (30., 0., 30.));
#258 = ORIENTED_EDGE('', *, *, #219, .F.);
#259 = B_SPLINE_SURFACE_WITH_KNOTS('', 1, 1, ((#260, #261), (#262, #263)), .UNSPECIFIED., .F., .F., .U., (2, 2), (2, 2), (0., 30.), (0., 30.), .UNSPECIFIED.);
#260 = CARTESIAN_POINT('', (0., 0., 0.));
#261 = CARTESIAN_POINT('', (0., 0., 30.));
#262 = CARTESIAN_POINT('', (30., 0., 0.));
#263 = CARTESIAN_POINT('', (30., 0., 30.));
#264 = ADVANCED_FACE('', (#265), #279, .T.);
#265 = FACE_OUTER_BOUND('', #266, .T.);
#266 = EDGE_LOOP('', (#267, #272, #273, #278));
#267 = ORIENTED_EDGE('', *, *, #268, .T.);
#268 = EDGE_CURVE('', #241, #177, #269, .T.);
#269 = B_SPLINE_CURVE_WITH_KNOTS('', 1, (#270, #271), .UNSPECIFIED., .F., .U., (2, 2), (0., 30.), .UNSPECIFIED.);
#270 = CARTESIAN_POINT('', (0., 0., 0.));
#271 = CARTESIAN_POINT('', (0., 30., 0.));
#272 = ORIENTED_EDGE('', *, *, #199, .T.);
#273 = ORIENTED_EDGE('', *, *, #274, .F.);
#274 = EDGE_CURVE('', #248, #193, #275, .T.);
#275 = B_SPLINE_CURVE_WITH_KNOTS('', 1, (#276, #277), .UNSPECIFIED., .F., .U., (2, 2), (0., 30.), .UNSPECIFIED.);
#276 = CARTESIAN_POINT('', (30., 0., 0.));
#277 = CARTESIAN_POINT('', (30., 30., 0.));
#278 = ORIENTED_EDGE('', *, *, #247, .F.);
#279 = B_SPLINE_SURFACE_WITH_KNOTS('', 1, 1, ((#280, #281), (#282, #283)), .UNSPECIFIED., .F., .F., .U., (2, 2), (2, 2), (0., 30.), (0., 30.), .UNSPECIFIED.);
#280 = CARTESIAN_POINT('', (0., 0., 0.));
#281 = CARTESIAN_POINT('', (30., 0., 0.));
#282 = CARTESIAN_POINT('', (0., 30., 0.));
#283 = CARTESIAN_POINT('', (30., 30., 0.));
#284 = ADVANCED_FACE('', (#285), #291, .T.);
#285 = FACE_OUTER_BOUND('', #286, .T.);
#286 = EDGE_LOOP('', (#287, #288, #289, #290));
#287 = ORIENTED_EDGE('', *, *, #254, .F.);
#288 = ORIENTED_EDGE('', *, *, #274, .T.);
#289 = ORIENTED_EDGE('', *, *, #192, .T.);
#290 = ORIENTED_EDGE('', *, *, #226, .F.);
#291 = B_SPLINE_SURFACE_WITH_KNOTS('', 1, 1, ((#292, #293), (#294, #295)), .UNSPECIFIED., .F., .F., .U., (2, 2), (2, 2), (0., 30.), (0., 30.), .UNSPECIFIED.);
#292 = CARTESIAN_POINT('', (30., 0., 0.));
#293 = CARTESIAN_POINT('', (30., 0., 30.));
#294 = CARTESIAN_POINT('', (30., 30., 0.));
#295 = CARTESIAN_POINT('', (30., 30., 30.));
#296 = ADVANCED_FACE('', (#297), #303, .T.);
#297 = FACE_OUTER_BOUND('', #298, .T.);
#298 = EDGE_LOOP('', (#299, #300, #301, #302));
#299 = ORIENTED_EDGE('', *, *, #240, .T.);
#300 = ORIENTED_EDGE('', *, *, #212, .T.);
#301 = ORIENTED_EDGE('', *, *, #176, .F.);
#302 = ORIENTED_EDGE('', *, *, #268, .F.);
#303 = B_SPLINE_SURFACE_WITH_KNOTS('', 1, 1, ((#304, #305), (#306, #307)), .UNSPECIFIED., .F., .F., .U., (2, 2), (2, 2), (0., 30.), (0., 30.), .UNSPECIFIED.);
#304 = CARTESIAN_POINT('', (0., 0., 0.));
#305 = CARTESIAN_POINT('', (0., 30., 0.));
#306 = CARTESIAN_POINT('', (0., 0., 30.));
#307 = CARTESIAN_POINT('', (0., 30., 30.));
#308 = PRESENTATION_STYLE_ASSIGNMENT((#309));
#309 = SURFACE_STYLE_USAGE(.POSITIVE., #310);
#310 = SURFACE_SIDE_STYLE('', (#311));
#311 = SURFACE_STYLE_FILL_AREA(#312);
#312 = FILL_AREA_STYLE('', (#313));
#313 = FILL_AREA_STYLE_COLOUR('', #314);
#314 = COLOUR_RGB('', 0.50196078431373, 0.50196078431373, 0.50196078431373);
#315 = STYLED_ITEM('', (#308), #170);
#316 = CARTESIAN_POINT('Origin', (0., 0., 0.));
#317 = GEOMETRIC_SET('', (#316));
#318 = (
   GEOMETRIC_REPRESENTATION_CONTEXT (3)
   GLOBAL_UNCERTAINTY_ASSIGNED_CONTEXT ((#320))
   GLOBAL_UNIT_ASSIGNED_CONTEXT ((#319, #321, #322))
   REPRESENTATION_CONTEXT ('', '3D')
);
#319 = (
   LENGTH_UNIT ()
   NAMED_UNIT (*)
   SI_UNIT (.MILLI., .METRE.)
);
#320 = UNCERTAINTY_MEASURE_WITH_UNIT(LENGTH_MEASURE(1.E-6), #319, 'DISTANCE_ACCURACY_VALUE', '');
#321 = (
   NAMED_UNIT (*)
   SI_UNIT ($, .STERADIAN.)
   SOLID_ANGLE_UNIT ()
);
#322 = (
   NAMED_UNIT (*)
   PLANE_ANGLE_UNIT ()
   SI_UNIT ($, .RADIAN.)
);
#323 = SHAPE_REPRESENTATION('', (#338), #318);
#324 = PRODUCT_DEFINITION_SHAPE('', '', #325);
#325 = PRODUCT_DEFINITION('', '', #328, #332);
#326 = APPLICATION_CONTEXT('configuration controlled 3D designs of mechanical parts and assemblies');
#327 = APPLICATION_PROTOCOL_DEFINITION('International Standard', 'automotive_design', 2002, #326);
#328 = PRODUCT_DEFINITION_FORMATION_WITH_SPECIFIED_SOURCE('', '', #329, .NOT_KNOWN.);
#329 = PRODUCT('CylExpr', 'CylExpr', '', (#330));
#330 = PRODUCT_CONTEXT('', #326, 'mechanical');
#331 = PRODUCT_RELATED_PRODUCT_CATEGORY('detail', '', (#329));
#332 = PRODUCT_DEFINITION_CONTEXT('part definition', #326, 'design');
#333 = SHAPE_DEFINITION_REPRESENTATION(#324, #323);
#334 = SHAPE_REPRESENTATION_RELATIONSHIP('', '', #323, #335);
#335 = SHAPE_REPRESENTATION('', (#317), #318);
#336 = SHAPE_REPRESENTATION_RELATIONSHIP('', '', #323, #337);
#337 = ADVANCED_BREP_SHAPE_REPRESENTATION('', (#1, #86, #170), #318);
#338 = AXIS2_PLACEMENT_3D('', #339, #340, #341);
#339 = CARTESIAN_POINT('', (0., 0., 0.));
#340 = DIRECTION('', (0., 0., 1.));
#341 = DIRECTION('', (1., 0., 0.));
ENDSEC;
END-ISO-10303-21;
