ISO-10303-21;
HEADER;
FILE_DESCRIPTION(('STEP'), '1');
FILE_NAME('CylUpdExpr', '2026-04-17T18:17:25', (''), (''), 'Express 3.1.2.0', 'Express Tool', 'Unknown');
FILE_SCHEMA(('AUTOMOTIVE_DESIGN'));
ENDSEC;

DATA;
#1 = MANIFOLD_SOLID_BREP('Cyl1_0', #2);
#2 = CLOSED_SHELL('', (#3, #59, #68));
#3 = ADVANCED_FACE('', (#4), #40, .T.);
#4 = FACE_OUTER_BOUND('', #5, .T.);
#5 = EDGE_LOOP('', (#6, #15, #27, #28));
#6 = ORIENTED_EDGE('', *, *, #7, .F.);
#7 = EDGE_CURVE('', #8, #10, #12, .T.);
#8 = VERTEX_POINT('', #9);
#9 = CARTESIAN_POINT('', (30., 0., 0.));
#10 = VERTEX_POINT('', #11);
#11 = CARTESIAN_POINT('', (30., 0., 80.));
#12 = B_SPLINE_CURVE_WITH_KNOTS('', 1, (#13, #14), .UNSPECIFIED., .F., .U., (2, 2), (0., 80.), .UNSPECIFIED.);
#13 = CARTESIAN_POINT('', (30., 0., 0.));
#14 = CARTESIAN_POINT('', (30., 0., 80.));
#15 = ORIENTED_EDGE('', *, *, #16, .T.);
#16 = EDGE_CURVE('', #8, #8, #17, .T.);
#17 = (
   BOUNDED_CURVE ()
   B_SPLINE_CURVE (2, (#18, #19, #20, #21, #22, #23, #24, #25, #26), .UNSPECIFIED., .T., .U.)
   B_SPLINE_CURVE_WITH_KNOTS ((3, 2, 2, 2, 3), (0., 47.1238898038469, 94.2477796076938, 141.371669411541, 188.495559215388), .UNSPECIFIED.)
   CURVE ()
   GEOMETRIC_REPRESENTATION_ITEM ()
   RATIONAL_B_SPLINE_CURVE ((1., 0.707106781186548, 1., 0.707106781186548, 1., 0.707106781186548, 1., 0.707106781186548, 1.))
   REPRESENTATION_ITEM ('')
);
#18 = CARTESIAN_POINT('', (30., 0., 0.));
#19 = CARTESIAN_POINT('', (30., 30., 0.));
#20 = CARTESIAN_POINT('', (1.83697019872103E-15, 30., 0.));
#21 = CARTESIAN_POINT('', (-30., 30., 0.));
#22 = CARTESIAN_POINT('', (-30., 3.67394039744206E-15, 0.));
#23 = CARTESIAN_POINT('', (-30., -30., 0.));
#24 = CARTESIAN_POINT('', (-5.51091059616309E-15, -30., 0.));
#25 = CARTESIAN_POINT('', (30., -30., 0.));
#26 = CARTESIAN_POINT('', (30., 0., 0.));
#27 = ORIENTED_EDGE('', *, *, #7, .T.);
#28 = ORIENTED_EDGE('', *, *, #29, .F.);
#29 = EDGE_CURVE('', #10, #10, #30, .T.);
#30 = (
   BOUNDED_CURVE ()
   B_SPLINE_CURVE (2, (#31, #32, #33, #34, #35, #36, #37, #38, #39), .UNSPECIFIED., .T., .U.)
   B_SPLINE_CURVE_WITH_KNOTS ((3, 2, 2, 2, 3), (0., 47.1238898038469, 94.2477796076938, 141.371669411541, 188.495559215388), .UNSPECIFIED.)
   CURVE ()
   GEOMETRIC_REPRESENTATION_ITEM ()
   RATIONAL_B_SPLINE_CURVE ((1., 0.707106781186548, 1., 0.707106781186548, 1., 0.707106781186548, 1., 0.707106781186548, 1.))
   REPRESENTATION_ITEM ('')
);
#31 = CARTESIAN_POINT('', (30., 0., 80.));
#32 = CARTESIAN_POINT('', (30., 30., 80.));
#33 = CARTESIAN_POINT('', (1.83697019872103E-15, 30., 80.));
#34 = CARTESIAN_POINT('', (-30., 30., 80.));
#35 = CARTESIAN_POINT('', (-30., 3.67394039744206E-15, 80.));
#36 = CARTESIAN_POINT('', (-30., -30., 80.));
#37 = CARTESIAN_POINT('', (-5.51091059616309E-15, -30., 80.));
#38 = CARTESIAN_POINT('', (30., -30., 80.));
#39 = CARTESIAN_POINT('', (30., 0., 80.));
#40 = (
   BOUNDED_SURFACE ()
   B_SPLINE_SURFACE (2, 1, ((#41, #42), (#43, #44), (#45, #46), (#47, #48), (#49, #50), (#51, #52), (#53, #54), (#55, #56), (#57, #58)), .UNSPECIFIED., .T., .F., .U.)
   B_SPLINE_SURFACE_WITH_KNOTS ((3, 2, 2, 2, 3), (2, 2), (0., 47.1238898038469, 94.2477796076938, 141.371669411541, 188.495559215388), (0., 80.), .UNSPECIFIED.)
   GEOMETRIC_REPRESENTATION_ITEM ()
   RATIONAL_B_SPLINE_SURFACE (((1., 1.), (0.707106781186548, 0.707106781186548), (1., 1.), (0.707106781186548, 0.707106781186548), (1., 1.), (0.707106781186548, 0.707106781186548), (1., 1.), (0.707106781186548, 0.707106781186548), (1., 1.)))
   REPRESENTATION_ITEM ('')
   SURFACE ()
);
#41 = CARTESIAN_POINT('', (30., 0., 0.));
#42 = CARTESIAN_POINT('', (30., 0., 80.));
#43 = CARTESIAN_POINT('', (30., 30., 0.));
#44 = CARTESIAN_POINT('', (30., 30., 80.));
#45 = CARTESIAN_POINT('', (1.83697019872103E-15, 30., 0.));
#46 = CARTESIAN_POINT('', (1.83697019872103E-15, 30., 80.));
#47 = CARTESIAN_POINT('', (-30., 30., 0.));
#48 = CARTESIAN_POINT('', (-30., 30., 80.));
#49 = CARTESIAN_POINT('', (-30., 3.67394039744206E-15, 0.));
#50 = CARTESIAN_POINT('', (-30., 3.67394039744206E-15, 80.));
#51 = CARTESIAN_POINT('', (-30., -30., 0.));
#52 = CARTESIAN_POINT('', (-30., -30., 80.));
#53 = CARTESIAN_POINT('', (-5.51091059616309E-15, -30., 0.));
#54 = CARTESIAN_POINT('', (-5.51091059616309E-15, -30., 80.));
#55 = CARTESIAN_POINT('', (30., -30., 0.));
#56 = CARTESIAN_POINT('', (30., -30., 80.));
#57 = CARTESIAN_POINT('', (30., 0., 0.));
#58 = CARTESIAN_POINT('', (30., 0., 80.));
#59 = ADVANCED_FACE('', (#60), #63, .T.);
#60 = FACE_OUTER_BOUND('', #61, .T.);
#61 = EDGE_LOOP('', (#62));
#62 = ORIENTED_EDGE('', *, *, #16, .F.);
#63 = B_SPLINE_SURFACE_WITH_KNOTS('', 1, 1, ((#64, #65), (#66, #67)), .UNSPECIFIED., .F., .F., .U., (2, 2), (2, 2), (0., 1.), (0., 1.), .UNSPECIFIED.);
#64 = CARTESIAN_POINT('', (46.6690475583121, -46.6690475583122, 0.));
#65 = CARTESIAN_POINT('', (46.6690475583121, 46.6690475583121, 0.));
#66 = CARTESIAN_POINT('', (-46.6690475583122, -46.6690475583122, 0.));
#67 = CARTESIAN_POINT('', (-46.6690475583122, 46.6690475583121, 0.));
#68 = ADVANCED_FACE('', (#69), #72, .T.);
#69 = FACE_OUTER_BOUND('', #70, .T.);
#70 = EDGE_LOOP('', (#71));
#71 = ORIENTED_EDGE('', *, *, #29, .T.);
#72 = B_SPLINE_SURFACE_WITH_KNOTS('', 1, 1, ((#73, #74), (#75, #76)), .UNSPECIFIED., .F., .F., .U., (2, 2), (2, 2), (0., 1.), (0., 1.), .UNSPECIFIED.);
#73 = CARTESIAN_POINT('', (46.6690475583121, -46.6690475583122, 80.));
#74 = CARTESIAN_POINT('', (-46.6690475583122, -46.6690475583122, 80.));
#75 = CARTESIAN_POINT('', (46.6690475583121, 46.6690475583121, 80.));
#76 = CARTESIAN_POINT('', (-46.6690475583122, 46.6690475583121, 80.));
#77 = DRAUGHTING_MODEL('', (#85, #231), #234);
#78 = PRESENTATION_STYLE_ASSIGNMENT((#79));
#79 = SURFACE_STYLE_USAGE(.POSITIVE., #80);
#80 = SURFACE_SIDE_STYLE('', (#81));
#81 = SURFACE_STYLE_FILL_AREA(#82);
#82 = FILL_AREA_STYLE('', (#83));
#83 = FILL_AREA_STYLE_COLOUR('', #84);
#84 = COLOUR_RGB('', 0.50196078431373, 0.50196078431373, 0.50196078431373);
#85 = STYLED_ITEM('', (#78), #1);
#86 = MANIFOLD_SOLID_BREP('RefBox_0', #87);
#87 = CLOSED_SHELL('', (#88, #124, #152, #180, #200, #212));
#88 = ADVANCED_FACE('', (#89), #119, .T.);
#89 = FACE_OUTER_BOUND('', #90, .T.);
#90 = EDGE_LOOP('', (#91, #100, #107, #114));
#91 = ORIENTED_EDGE('', *, *, #92, .T.);
#92 = EDGE_CURVE('', #93, #95, #97, .T.);
#93 = VERTEX_POINT('', #94);
#94 = CARTESIAN_POINT('', (0., 30., 0.));
#95 = VERTEX_POINT('', #96);
#96 = CARTESIAN_POINT('', (0., 30., 30.));
#97 = B_SPLINE_CURVE_WITH_KNOTS('', 1, (#98, #99), .UNSPECIFIED., .F., .U., (2, 2), (0., 30.), .UNSPECIFIED.);
#98 = CARTESIAN_POINT('', (0., 30., 0.));
#99 = CARTESIAN_POINT('', (0., 30., 30.));
#100 = ORIENTED_EDGE('', *, *, #101, .T.);
#101 = EDGE_CURVE('', #95, #102, #104, .T.);
#102 = VERTEX_POINT('', #103);
#103 = CARTESIAN_POINT('', (30., 30., 30.));
#104 = B_SPLINE_CURVE_WITH_KNOTS('', 1, (#105, #106), .UNSPECIFIED., .F., .U., (2, 2), (0., 30.), .UNSPECIFIED.);
#105 = CARTESIAN_POINT('', (0., 30., 30.));
#106 = CARTESIAN_POINT('', (30., 30., 30.));
#107 = ORIENTED_EDGE('', *, *, #108, .F.);
#108 = EDGE_CURVE('', #109, #102, #111, .T.);
#109 = VERTEX_POINT('', #110);
#110 = CARTESIAN_POINT('', (30., 30., 0.));
#111 = B_SPLINE_CURVE_WITH_KNOTS('', 1, (#112, #113), .UNSPECIFIED., .F., .U., (2, 2), (0., 30.), .UNSPECIFIED.);
#112 = CARTESIAN_POINT('', (30., 30., 0.));
#113 = CARTESIAN_POINT('', (30., 30., 30.));
#114 = ORIENTED_EDGE('', *, *, #115, .F.);
#115 = EDGE_CURVE('', #93, #109, #116, .T.);
#116 = B_SPLINE_CURVE_WITH_KNOTS('', 1, (#117, #118), .UNSPECIFIED., .F., .U., (2, 2), (0., 30.), .UNSPECIFIED.);
#117 = CARTESIAN_POINT('', (0., 30., 0.));
#118 = CARTESIAN_POINT('', (30., 30., 0.));
#119 = B_SPLINE_SURFACE_WITH_KNOTS('', 1, 1, ((#120, #121), (#122, #123)), .UNSPECIFIED., .F., .F., .U., (2, 2), (2, 2), (0., 30.), (0., 30.), .UNSPECIFIED.);
#120 = CARTESIAN_POINT('', (0., 30., 0.));
#121 = CARTESIAN_POINT('', (30., 30., 0.));
#122 = CARTESIAN_POINT('', (0., 30., 30.));
#123 = CARTESIAN_POINT('', (30., 30., 30.));
#124 = ADVANCED_FACE('', (#125), #147, .T.);
#125 = FACE_OUTER_BOUND('', #126, .T.);
#126 = EDGE_LOOP('', (#127, #134, #141, #146));
#127 = ORIENTED_EDGE('', *, *, #128, .F.);
#128 = EDGE_CURVE('', #129, #95, #131, .T.);
#129 = VERTEX_POINT('', #130);
#130 = CARTESIAN_POINT('', (0., 0., 30.));
#131 = B_SPLINE_CURVE_WITH_KNOTS('', 1, (#132, #133), .UNSPECIFIED., .F., .U., (2, 2), (0., 30.), .UNSPECIFIED.);
#132 = CARTESIAN_POINT('', (0., 0., 30.));
#133 = CARTESIAN_POINT('', (0., 30., 30.));
#134 = ORIENTED_EDGE('', *, *, #135, .T.);
#135 = EDGE_CURVE('', #129, #136, #138, .T.);
#136 = VERTEX_POINT('', #137);
#137 = CARTESIAN_POINT('', (30., 0., 30.));
#138 = B_SPLINE_CURVE_WITH_KNOTS('', 1, (#139, #140), .UNSPECIFIED., .F., .U., (2, 2), (0., 30.), .UNSPECIFIED.);
#139 = CARTESIAN_POINT('', (0., 0., 30.));
#140 = CARTESIAN_POINT('', (30., 0., 30.));
#141 = ORIENTED_EDGE('', *, *, #142, .T.);
#142 = EDGE_CURVE('', #136, #102, #143, .T.);
#143 = B_SPLINE_CURVE_WITH_KNOTS('', 1, (#144, #145), .UNSPECIFIED., .F., .U., (2, 2), (0., 30.), .UNSPECIFIED.);
#144 = CARTESIAN_POINT('', (30., 0., 30.));
#145 = CARTESIAN_POINT('', (30., 30., 30.));
#146 = ORIENTED_EDGE('', *, *, #101, .F.);
#147 = B_SPLINE_SURFACE_WITH_KNOTS('', 1, 1, ((#148, #149), (#150, #151)), .UNSPECIFIED., .F., .F., .U., (2, 2), (2, 2), (0., 30.), (0., 30.), .UNSPECIFIED.);
#148 = CARTESIAN_POINT('', (0., 0., 30.));
#149 = CARTESIAN_POINT('', (0., 30., 30.));
#150 = CARTESIAN_POINT('', (30., 0., 30.));
#151 = CARTESIAN_POINT('', (30., 30., 30.));
#152 = ADVANCED_FACE('', (#153), #175, .T.);
#153 = FACE_OUTER_BOUND('', #154, .T.);
#154 = EDGE_LOOP('', (#155, #162, #169, #174));
#155 = ORIENTED_EDGE('', *, *, #156, .F.);
#156 = EDGE_CURVE('', #157, #129, #159, .T.);
#157 = VERTEX_POINT('', #158);
#158 = CARTESIAN_POINT('', (0., 0., 0.));
#159 = B_SPLINE_CURVE_WITH_KNOTS('', 1, (#160, #161), .UNSPECIFIED., .F., .U., (2, 2), (0., 30.), .UNSPECIFIED.);
#160 = CARTESIAN_POINT('', (0., 0., 0.));
#161 = CARTESIAN_POINT('', (0., 0., 30.));
#162 = ORIENTED_EDGE('', *, *, #163, .T.);
#163 = EDGE_CURVE('', #157, #164, #166, .T.);
#164 = VERTEX_POINT('', #165);
#165 = CARTESIAN_POINT('', (30., 0., 0.));
#166 = B_SPLINE_CURVE_WITH_KNOTS('', 1, (#167, #168), .UNSPECIFIED., .F., .U., (2, 2), (0., 30.), .UNSPECIFIED.);
#167 = CARTESIAN_POINT('', (0., 0., 0.));
#168 = CARTESIAN_POINT('', (30., 0., 0.));
#169 = ORIENTED_EDGE('', *, *, #170, .T.);
#170 = EDGE_CURVE('', #164, #136, #171, .T.);
#171 = B_SPLINE_CURVE_WITH_KNOTS('', 1, (#172, #173), .UNSPECIFIED., .F., .U., (2, 2), (0., 30.), .UNSPECIFIED.);
#172 = CARTESIAN_POINT('', (30., 0., 0.));
#173 = CARTESIAN_POINT('', (30., 0., 30.));
#174 = ORIENTED_EDGE('', *, *, #135, .F.);
#175 = B_SPLINE_SURFACE_WITH_KNOTS('', 1, 1, ((#176, #177), (#178, #179)), .UNSPECIFIED., .F., .F., .U., (2, 2), (2, 2), (0., 30.), (0., 30.), .UNSPECIFIED.);
#176 = CARTESIAN_POINT('', (0., 0., 0.));
#177 = CARTESIAN_POINT('', (0., 0., 30.));
#178 = CARTESIAN_POINT('', (30., 0., 0.));
#179 = CARTESIAN_POINT('', (30., 0., 30.));
#180 = ADVANCED_FACE('', (#181), #195, .T.);
#181 = FACE_OUTER_BOUND('', #182, .T.);
#182 = EDGE_LOOP('', (#183, #188, #189, #194));
#183 = ORIENTED_EDGE('', *, *, #184, .T.);
#184 = EDGE_CURVE('', #157, #93, #185, .T.);
#185 = B_SPLINE_CURVE_WITH_KNOTS('', 1, (#186, #187), .UNSPECIFIED., .F., .U., (2, 2), (0., 30.), .UNSPECIFIED.);
#186 = CARTESIAN_POINT('', (0., 0., 0.));
#187 = CARTESIAN_POINT('', (0., 30., 0.));
#188 = ORIENTED_EDGE('', *, *, #115, .T.);
#189 = ORIENTED_EDGE('', *, *, #190, .F.);
#190 = EDGE_CURVE('', #164, #109, #191, .T.);
#191 = B_SPLINE_CURVE_WITH_KNOTS('', 1, (#192, #193), .UNSPECIFIED., .F., .U., (2, 2), (0., 30.), .UNSPECIFIED.);
#192 = CARTESIAN_POINT('', (30., 0., 0.));
#193 = CARTESIAN_POINT('', (30., 30., 0.));
#194 = ORIENTED_EDGE('', *, *, #163, .F.);
#195 = B_SPLINE_SURFACE_WITH_KNOTS('', 1, 1, ((#196, #197), (#198, #199)), .UNSPECIFIED., .F., .F., .U., (2, 2), (2, 2), (0., 30.), (0., 30.), .UNSPECIFIED.);
#196 = CARTESIAN_POINT('', (0., 0., 0.));
#197 = CARTESIAN_POINT('', (30., 0., 0.));
#198 = CARTESIAN_POINT('', (0., 30., 0.));
#199 = CARTESIAN_POINT('', (30., 30., 0.));
#200 = ADVANCED_FACE('', (#201), #207, .T.);
#201 = FACE_OUTER_BOUND('', #202, .T.);
#202 = EDGE_LOOP('', (#203, #204, #205, #206));
#203 = ORIENTED_EDGE('', *, *, #170, .F.);
#204 = ORIENTED_EDGE('', *, *, #190, .T.);
#205 = ORIENTED_EDGE('', *, *, #108, .T.);
#206 = ORIENTED_EDGE('', *, *, #142, .F.);
#207 = B_SPLINE_SURFACE_WITH_KNOTS('', 1, 1, ((#208, #209), (#210, #211)), .UNSPECIFIED., .F., .F., .U., (2, 2), (2, 2), (0., 30.), (0., 30.), .UNSPECIFIED.);
#208 = CARTESIAN_POINT('', (30., 0., 0.));
#209 = CARTESIAN_POINT('', (30., 0., 30.));
#210 = CARTESIAN_POINT('', (30., 30., 0.));
#211 = CARTESIAN_POINT('', (30., 30., 30.));
#212 = ADVANCED_FACE('', (#213), #219, .T.);
#213 = FACE_OUTER_BOUND('', #214, .T.);
#214 = EDGE_LOOP('', (#215, #216, #217, #218));
#215 = ORIENTED_EDGE('', *, *, #156, .T.);
#216 = ORIENTED_EDGE('', *, *, #128, .T.);
#217 = ORIENTED_EDGE('', *, *, #92, .F.);
#218 = ORIENTED_EDGE('', *, *, #184, .F.);
#219 = B_SPLINE_SURFACE_WITH_KNOTS('', 1, 1, ((#220, #221), (#222, #223)), .UNSPECIFIED., .F., .F., .U., (2, 2), (2, 2), (0., 30.), (0., 30.), .UNSPECIFIED.);
#220 = CARTESIAN_POINT('', (0., 0., 0.));
#221 = CARTESIAN_POINT('', (0., 30., 0.));
#222 = CARTESIAN_POINT('', (0., 0., 30.));
#223 = CARTESIAN_POINT('', (0., 30., 30.));
#224 = PRESENTATION_STYLE_ASSIGNMENT((#225));
#225 = SURFACE_STYLE_USAGE(.POSITIVE., #226);
#226 = SURFACE_SIDE_STYLE('', (#227));
#227 = SURFACE_STYLE_FILL_AREA(#228);
#228 = FILL_AREA_STYLE('', (#229));
#229 = FILL_AREA_STYLE_COLOUR('', #230);
#230 = COLOUR_RGB('', 0.50196078431373, 0.50196078431373, 0.50196078431373);
#231 = STYLED_ITEM('', (#224), #86);
#232 = CARTESIAN_POINT('Origin', (0., 0., 0.));
#233 = GEOMETRIC_SET('', (#232));
#234 = (
   GEOMETRIC_REPRESENTATION_CONTEXT (3)
   GLOBAL_UNCERTAINTY_ASSIGNED_CONTEXT ((#236))
   GLOBAL_UNIT_ASSIGNED_CONTEXT ((#235, #237, #238))
   REPRESENTATION_CONTEXT ('', '3D')
);
#235 = (
   LENGTH_UNIT ()
   NAMED_UNIT (*)
   SI_UNIT (.MILLI., .METRE.)
);
#236 = UNCERTAINTY_MEASURE_WITH_UNIT(LENGTH_MEASURE(1.E-6), #235, 'DISTANCE_ACCURACY_VALUE', '');
#237 = (
   NAMED_UNIT (*)
   SI_UNIT ($, .STERADIAN.)
   SOLID_ANGLE_UNIT ()
);
#238 = (
   NAMED_UNIT (*)
   PLANE_ANGLE_UNIT ()
   SI_UNIT ($, .RADIAN.)
);
#239 = SHAPE_REPRESENTATION('', (#254), #234);
#240 = PRODUCT_DEFINITION_SHAPE('', '', #241);
#241 = PRODUCT_DEFINITION('', '', #244, #248);
#242 = APPLICATION_CONTEXT('configuration controlled 3D designs of mechanical parts and assemblies');
#243 = APPLICATION_PROTOCOL_DEFINITION('International Standard', 'automotive_design', 2002, #242);
#244 = PRODUCT_DEFINITION_FORMATION_WITH_SPECIFIED_SOURCE('', '', #245, .NOT_KNOWN.);
#245 = PRODUCT('CylUpdExpr', 'CylUpdExpr', '', (#246));
#246 = PRODUCT_CONTEXT('', #242, 'mechanical');
#247 = PRODUCT_RELATED_PRODUCT_CATEGORY('detail', '', (#245));
#248 = PRODUCT_DEFINITION_CONTEXT('part definition', #242, 'design');
#249 = SHAPE_DEFINITION_REPRESENTATION(#240, #239);
#250 = SHAPE_REPRESENTATION_RELATIONSHIP('', '', #239, #251);
#251 = SHAPE_REPRESENTATION('', (#233), #234);
#252 = SHAPE_REPRESENTATION_RELATIONSHIP('', '', #239, #253);
#253 = ADVANCED_BREP_SHAPE_REPRESENTATION('', (#1, #86), #234);
#254 = AXIS2_PLACEMENT_3D('', #255, #256, #257);
#255 = CARTESIAN_POINT('', (0., 0., 0.));
#256 = DIRECTION('', (0., 0., 1.));
#257 = DIRECTION('', (1., 0., 0.));
ENDSEC;
END-ISO-10303-21;
