ISO-10303-21;
HEADER;
FILE_DESCRIPTION(('STEP'), '1');
FILE_NAME('SliceMulti', '2026-04-18T08:16:08', (''), (''), 'Express 3.1.2.0', 'Express Tool', 'Unknown');
FILE_SCHEMA(('AUTOMOTIVE_DESIGN'));
ENDSEC;

DATA;
#1 = MANIFOLD_SOLID_BREP('Ref_0', #2);
#2 = CLOSED_SHELL('', (#3, #59, #68));
#3 = ADVANCED_FACE('', (#4), #40, .T.);
#4 = FACE_OUTER_BOUND('', #5, .T.);
#5 = EDGE_LOOP('', (#6, #15, #27, #28));
#6 = ORIENTED_EDGE('', *, *, #7, .F.);
#7 = EDGE_CURVE('', #8, #10, #12, .T.);
#8 = VERTEX_POINT('', #9);
#9 = CARTESIAN_POINT('', (4., 0., 0.));
#10 = VERTEX_POINT('', #11);
#11 = CARTESIAN_POINT('', (4., 0., 10.));
#12 = B_SPLINE_CURVE_WITH_KNOTS('', 1, (#13, #14), .UNSPECIFIED., .F., .U., (2, 2), (0., 10.), .UNSPECIFIED.);
#13 = CARTESIAN_POINT('', (4., 0., 0.));
#14 = CARTESIAN_POINT('', (4., 0., 10.));
#15 = ORIENTED_EDGE('', *, *, #16, .T.);
#16 = EDGE_CURVE('', #8, #8, #17, .T.);
#17 = (
   BOUNDED_CURVE ()
   B_SPLINE_CURVE (2, (#18, #19, #20, #21, #22, #23, #24, #25, #26), .UNSPECIFIED., .T., .U.)
   B_SPLINE_CURVE_WITH_KNOTS ((3, 2, 2, 2, 3), (0., 6.28318530717959, 12.5663706143592, 18.8495559215388, 25.1327412287183), .UNSPECIFIED.)
   CURVE ()
   GEOMETRIC_REPRESENTATION_ITEM ()
   RATIONAL_B_SPLINE_CURVE ((1., 0.707106781186548, 1., 0.707106781186548, 1., 0.707106781186548, 1., 0.707106781186548, 1.))
   REPRESENTATION_ITEM ('')
);
#18 = CARTESIAN_POINT('', (4., 0., 0.));
#19 = CARTESIAN_POINT('', (4., 4., 0.));
#20 = CARTESIAN_POINT('', (2.44929359829471E-16, 4., 0.));
#21 = CARTESIAN_POINT('', (-4., 4., 0.));
#22 = CARTESIAN_POINT('', (-4., 4.89858719658941E-16, 0.));
#23 = CARTESIAN_POINT('', (-4., -4., 0.));
#24 = CARTESIAN_POINT('', (-7.34788079488412E-16, -4., 0.));
#25 = CARTESIAN_POINT('', (4., -4., 0.));
#26 = CARTESIAN_POINT('', (4., 0., 0.));
#27 = ORIENTED_EDGE('', *, *, #7, .T.);
#28 = ORIENTED_EDGE('', *, *, #29, .F.);
#29 = EDGE_CURVE('', #10, #10, #30, .T.);
#30 = (
   BOUNDED_CURVE ()
   B_SPLINE_CURVE (2, (#31, #32, #33, #34, #35, #36, #37, #38, #39), .UNSPECIFIED., .T., .U.)
   B_SPLINE_CURVE_WITH_KNOTS ((3, 2, 2, 2, 3), (0., 6.28318530717959, 12.5663706143592, 18.8495559215388, 25.1327412287183), .UNSPECIFIED.)
   CURVE ()
   GEOMETRIC_REPRESENTATION_ITEM ()
   RATIONAL_B_SPLINE_CURVE ((1., 0.707106781186548, 1., 0.707106781186548, 1., 0.707106781186548, 1., 0.707106781186548, 1.))
   REPRESENTATION_ITEM ('')
);
#31 = CARTESIAN_POINT('', (4., 0., 10.));
#32 = CARTESIAN_POINT('', (4., 4., 10.));
#33 = CARTESIAN_POINT('', (2.44929359829471E-16, 4., 10.));
#34 = CARTESIAN_POINT('', (-4., 4., 10.));
#35 = CARTESIAN_POINT('', (-4., 4.89858719658941E-16, 10.));
#36 = CARTESIAN_POINT('', (-4., -4., 10.));
#37 = CARTESIAN_POINT('', (-7.34788079488412E-16, -4., 10.));
#38 = CARTESIAN_POINT('', (4., -4., 10.));
#39 = CARTESIAN_POINT('', (4., 0., 10.));
#40 = (
   BOUNDED_SURFACE ()
   B_SPLINE_SURFACE (2, 1, ((#41, #42), (#43, #44), (#45, #46), (#47, #48), (#49, #50), (#51, #52), (#53, #54), (#55, #56), (#57, #58)), .UNSPECIFIED., .T., .F., .U.)
   B_SPLINE_SURFACE_WITH_KNOTS ((3, 2, 2, 2, 3), (2, 2), (0., 6.28318530717959, 12.5663706143592, 18.8495559215388, 25.1327412287183), (0., 10.), .UNSPECIFIED.)
   GEOMETRIC_REPRESENTATION_ITEM ()
   RATIONAL_B_SPLINE_SURFACE (((1., 1.), (0.707106781186548, 0.707106781186548), (1., 1.), (0.707106781186548, 0.707106781186548), (1., 1.), (0.707106781186548, 0.707106781186548), (1., 1.), (0.707106781186548, 0.707106781186548), (1., 1.)))
   REPRESENTATION_ITEM ('')
   SURFACE ()
);
#41 = CARTESIAN_POINT('', (4., 0., 0.));
#42 = CARTESIAN_POINT('', (4., 0., 10.));
#43 = CARTESIAN_POINT('', (4., 4., 0.));
#44 = CARTESIAN_POINT('', (4., 4., 10.));
#45 = CARTESIAN_POINT('', (2.44929359829471E-16, 4., 0.));
#46 = CARTESIAN_POINT('', (2.44929359829471E-16, 4., 10.));
#47 = CARTESIAN_POINT('', (-4., 4., 0.));
#48 = CARTESIAN_POINT('', (-4., 4., 10.));
#49 = CARTESIAN_POINT('', (-4., 4.89858719658941E-16, 0.));
#50 = CARTESIAN_POINT('', (-4., 4.89858719658941E-16, 10.));
#51 = CARTESIAN_POINT('', (-4., -4., 0.));
#52 = CARTESIAN_POINT('', (-4., -4., 10.));
#53 = CARTESIAN_POINT('', (-7.34788079488412E-16, -4., 0.));
#54 = CARTESIAN_POINT('', (-7.34788079488412E-16, -4., 10.));
#55 = CARTESIAN_POINT('', (4., -4., 0.));
#56 = CARTESIAN_POINT('', (4., -4., 10.));
#57 = CARTESIAN_POINT('', (4., 0., 0.));
#58 = CARTESIAN_POINT('', (4., 0., 10.));
#59 = ADVANCED_FACE('', (#60), #63, .T.);
#60 = FACE_OUTER_BOUND('', #61, .T.);
#61 = EDGE_LOOP('', (#62));
#62 = ORIENTED_EDGE('', *, *, #16, .F.);
#63 = B_SPLINE_SURFACE_WITH_KNOTS('', 1, 1, ((#64, #65), (#66, #67)), .UNSPECIFIED., .F., .F., .U., (2, 2), (2, 2), (0., 1.), (0., 1.), .UNSPECIFIED.);
#64 = CARTESIAN_POINT('', (6.22253967444162, -6.22253967444162, 0.));
#65 = CARTESIAN_POINT('', (6.22253967444162, 6.22253967444162, 0.));
#66 = CARTESIAN_POINT('', (-6.22253967444162, -6.22253967444162, 0.));
#67 = CARTESIAN_POINT('', (-6.22253967444162, 6.22253967444162, 0.));
#68 = ADVANCED_FACE('', (#69), #72, .T.);
#69 = FACE_OUTER_BOUND('', #70, .T.);
#70 = EDGE_LOOP('', (#71));
#71 = ORIENTED_EDGE('', *, *, #29, .T.);
#72 = B_SPLINE_SURFACE_WITH_KNOTS('', 1, 1, ((#73, #74), (#75, #76)), .UNSPECIFIED., .F., .F., .U., (2, 2), (2, 2), (0., 1.), (0., 1.), .UNSPECIFIED.);
#73 = CARTESIAN_POINT('', (6.22253967444162, -6.22253967444162, 10.));
#74 = CARTESIAN_POINT('', (-6.22253967444162, -6.22253967444162, 10.));
#75 = CARTESIAN_POINT('', (6.22253967444162, 6.22253967444162, 10.));
#76 = CARTESIAN_POINT('', (-6.22253967444162, 6.22253967444162, 10.));
#77 = DRAUGHTING_MODEL('', (#85, #231, #377), #380);
#78 = PRESENTATION_STYLE_ASSIGNMENT((#79));
#79 = SURFACE_STYLE_USAGE(.POSITIVE., #80);
#80 = SURFACE_SIDE_STYLE('', (#81));
#81 = SURFACE_STYLE_FILL_AREA(#82);
#82 = FILL_AREA_STYLE('', (#83));
#83 = FILL_AREA_STYLE_COLOUR('', #84);
#84 = COLOUR_RGB('', 0.50196078431373, 0.50196078431373, 0.50196078431373);
#85 = STYLED_ITEM('', (#78), #1);
#86 = MANIFOLD_SOLID_BREP('Slice_0', #87);
#87 = CLOSED_SHELL('', (#88, #124, #152, #180, #200, #212));
#88 = ADVANCED_FACE('', (#89), #119, .T.);
#89 = FACE_OUTER_BOUND('', #90, .T.);
#90 = EDGE_LOOP('', (#91, #100, #107, #114));
#91 = ORIENTED_EDGE('', *, *, #92, .T.);
#92 = EDGE_CURVE('', #93, #95, #97, .T.);
#93 = VERTEX_POINT('', #94);
#94 = CARTESIAN_POINT('', (0., 30., 0.));
#95 = VERTEX_POINT('', #96);
#96 = CARTESIAN_POINT('', (0., 30., 40.));
#97 = B_SPLINE_CURVE_WITH_KNOTS('', 1, (#98, #99), .UNSPECIFIED., .F., .U., (2, 2), (0., 40.), .UNSPECIFIED.);
#98 = CARTESIAN_POINT('', (0., 30., 0.));
#99 = CARTESIAN_POINT('', (0., 30., 40.));
#100 = ORIENTED_EDGE('', *, *, #101, .T.);
#101 = EDGE_CURVE('', #95, #102, #104, .T.);
#102 = VERTEX_POINT('', #103);
#103 = CARTESIAN_POINT('', (50., 30., 40.));
#104 = B_SPLINE_CURVE_WITH_KNOTS('', 1, (#105, #106), .UNSPECIFIED., .F., .U., (2, 2), (0., 50.), .UNSPECIFIED.);
#105 = CARTESIAN_POINT('', (0., 30., 40.));
#106 = CARTESIAN_POINT('', (50., 30., 40.));
#107 = ORIENTED_EDGE('', *, *, #108, .F.);
#108 = EDGE_CURVE('', #109, #102, #111, .T.);
#109 = VERTEX_POINT('', #110);
#110 = CARTESIAN_POINT('', (50., 30., 0.));
#111 = B_SPLINE_CURVE_WITH_KNOTS('', 1, (#112, #113), .UNSPECIFIED., .F., .U., (2, 2), (0., 40.), .UNSPECIFIED.);
#112 = CARTESIAN_POINT('', (50., 30., 0.));
#113 = CARTESIAN_POINT('', (50., 30., 40.));
#114 = ORIENTED_EDGE('', *, *, #115, .F.);
#115 = EDGE_CURVE('', #93, #109, #116, .T.);
#116 = B_SPLINE_CURVE_WITH_KNOTS('', 1, (#117, #118), .UNSPECIFIED., .F., .U., (2, 2), (0., 50.), .UNSPECIFIED.);
#117 = CARTESIAN_POINT('', (0., 30., 0.));
#118 = CARTESIAN_POINT('', (50., 30., 0.));
#119 = B_SPLINE_SURFACE_WITH_KNOTS('', 1, 1, ((#120, #121), (#122, #123)), .UNSPECIFIED., .F., .F., .U., (2, 2), (2, 2), (0., 40.), (0., 50.), .UNSPECIFIED.);
#120 = CARTESIAN_POINT('', (0., 30., 0.));
#121 = CARTESIAN_POINT('', (50., 30., 0.));
#122 = CARTESIAN_POINT('', (0., 30., 40.));
#123 = CARTESIAN_POINT('', (50., 30., 40.));
#124 = ADVANCED_FACE('', (#125), #147, .T.);
#125 = FACE_OUTER_BOUND('', #126, .T.);
#126 = EDGE_LOOP('', (#127, #134, #141, #146));
#127 = ORIENTED_EDGE('', *, *, #128, .F.);
#128 = EDGE_CURVE('', #129, #95, #131, .T.);
#129 = VERTEX_POINT('', #130);
#130 = CARTESIAN_POINT('', (0., 0., 40.));
#131 = B_SPLINE_CURVE_WITH_KNOTS('', 1, (#132, #133), .UNSPECIFIED., .F., .U., (2, 2), (0., 30.), .UNSPECIFIED.);
#132 = CARTESIAN_POINT('', (0., 0., 40.));
#133 = CARTESIAN_POINT('', (0., 30., 40.));
#134 = ORIENTED_EDGE('', *, *, #135, .T.);
#135 = EDGE_CURVE('', #129, #136, #138, .T.);
#136 = VERTEX_POINT('', #137);
#137 = CARTESIAN_POINT('', (50., 0., 40.));
#138 = B_SPLINE_CURVE_WITH_KNOTS('', 1, (#139, #140), .UNSPECIFIED., .F., .U., (2, 2), (0., 50.), .UNSPECIFIED.);
#139 = CARTESIAN_POINT('', (0., 0., 40.));
#140 = CARTESIAN_POINT('', (50., 0., 40.));
#141 = ORIENTED_EDGE('', *, *, #142, .T.);
#142 = EDGE_CURVE('', #136, #102, #143, .T.);
#143 = B_SPLINE_CURVE_WITH_KNOTS('', 1, (#144, #145), .UNSPECIFIED., .F., .U., (2, 2), (0., 30.), .UNSPECIFIED.);
#144 = CARTESIAN_POINT('', (50., 0., 40.));
#145 = CARTESIAN_POINT('', (50., 30., 40.));
#146 = ORIENTED_EDGE('', *, *, #101, .F.);
#147 = B_SPLINE_SURFACE_WITH_KNOTS('', 1, 1, ((#148, #149), (#150, #151)), .UNSPECIFIED., .F., .F., .U., (2, 2), (2, 2), (0., 50.), (0., 30.), .UNSPECIFIED.);
#148 = CARTESIAN_POINT('', (0., 0., 40.));
#149 = CARTESIAN_POINT('', (0., 30., 40.));
#150 = CARTESIAN_POINT('', (50., 0., 40.));
#151 = CARTESIAN_POINT('', (50., 30., 40.));
#152 = ADVANCED_FACE('', (#153), #175, .T.);
#153 = FACE_OUTER_BOUND('', #154, .T.);
#154 = EDGE_LOOP('', (#155, #162, #169, #174));
#155 = ORIENTED_EDGE('', *, *, #156, .F.);
#156 = EDGE_CURVE('', #157, #129, #159, .T.);
#157 = VERTEX_POINT('', #158);
#158 = CARTESIAN_POINT('', (0., 0., 0.));
#159 = B_SPLINE_CURVE_WITH_KNOTS('', 1, (#160, #161), .UNSPECIFIED., .F., .U., (2, 2), (0., 40.), .UNSPECIFIED.);
#160 = CARTESIAN_POINT('', (0., 0., 0.));
#161 = CARTESIAN_POINT('', (0., 0., 40.));
#162 = ORIENTED_EDGE('', *, *, #163, .T.);
#163 = EDGE_CURVE('', #157, #164, #166, .T.);
#164 = VERTEX_POINT('', #165);
#165 = CARTESIAN_POINT('', (50., 0., 0.));
#166 = B_SPLINE_CURVE_WITH_KNOTS('', 1, (#167, #168), .UNSPECIFIED., .F., .U., (2, 2), (0., 50.), .UNSPECIFIED.);
#167 = CARTESIAN_POINT('', (0., 0., 0.));
#168 = CARTESIAN_POINT('', (50., 0., 0.));
#169 = ORIENTED_EDGE('', *, *, #170, .T.);
#170 = EDGE_CURVE('', #164, #136, #171, .T.);
#171 = B_SPLINE_CURVE_WITH_KNOTS('', 1, (#172, #173), .UNSPECIFIED., .F., .U., (2, 2), (0., 40.), .UNSPECIFIED.);
#172 = CARTESIAN_POINT('', (50., 0., 0.));
#173 = CARTESIAN_POINT('', (50., 0., 40.));
#174 = ORIENTED_EDGE('', *, *, #135, .F.);
#175 = B_SPLINE_SURFACE_WITH_KNOTS('', 1, 1, ((#176, #177), (#178, #179)), .UNSPECIFIED., .F., .F., .U., (2, 2), (2, 2), (0., 50.), (0., 40.), .UNSPECIFIED.);
#176 = CARTESIAN_POINT('', (0., 0., 0.));
#177 = CARTESIAN_POINT('', (0., 0., 40.));
#178 = CARTESIAN_POINT('', (50., 0., 0.));
#179 = CARTESIAN_POINT('', (50., 0., 40.));
#180 = ADVANCED_FACE('', (#181), #195, .T.);
#181 = FACE_OUTER_BOUND('', #182, .T.);
#182 = EDGE_LOOP('', (#183, #188, #189, #194));
#183 = ORIENTED_EDGE('', *, *, #184, .T.);
#184 = EDGE_CURVE('', #157, #93, #185, .T.);
#185 = B_SPLINE_CURVE_WITH_KNOTS('', 1, (#186, #187), .UNSPECIFIED., .F., .U., (2, 2), (0., 30.), .UNSPECIFIED.);
#186 = CARTESIAN_POINT('', (0., 0., 0.));
#187 = CARTESIAN_POINT('', (0., 30., 0.));
#188 = ORIENTED_EDGE('', *, *, #115, .T.);
#189 = ORIENTED_EDGE('', *, *, #190, .F.);
#190 = EDGE_CURVE('', #164, #109, #191, .T.);
#191 = B_SPLINE_CURVE_WITH_KNOTS('', 1, (#192, #193), .UNSPECIFIED., .F., .U., (2, 2), (0., 30.), .UNSPECIFIED.);
#192 = CARTESIAN_POINT('', (50., 0., 0.));
#193 = CARTESIAN_POINT('', (50., 30., 0.));
#194 = ORIENTED_EDGE('', *, *, #163, .F.);
#195 = B_SPLINE_SURFACE_WITH_KNOTS('', 1, 1, ((#196, #197), (#198, #199)), .UNSPECIFIED., .F., .F., .U., (2, 2), (2, 2), (0., 30.), (0., 50.), .UNSPECIFIED.);
#196 = CARTESIAN_POINT('', (0., 0., 0.));
#197 = CARTESIAN_POINT('', (50., 0., 0.));
#198 = CARTESIAN_POINT('', (0., 30., 0.));
#199 = CARTESIAN_POINT('', (50., 30., 0.));
#200 = ADVANCED_FACE('', (#201), #207, .T.);
#201 = FACE_OUTER_BOUND('', #202, .T.);
#202 = EDGE_LOOP('', (#203, #204, #205, #206));
#203 = ORIENTED_EDGE('', *, *, #170, .F.);
#204 = ORIENTED_EDGE('', *, *, #190, .T.);
#205 = ORIENTED_EDGE('', *, *, #108, .T.);
#206 = ORIENTED_EDGE('', *, *, #142, .F.);
#207 = B_SPLINE_SURFACE_WITH_KNOTS('', 1, 1, ((#208, #209), (#210, #211)), .UNSPECIFIED., .F., .F., .U., (2, 2), (2, 2), (0., 30.), (0., 40.), .UNSPECIFIED.);
#208 = CARTESIAN_POINT('', (50., 0., 0.));
#209 = CARTESIAN_POINT('', (50., 0., 40.));
#210 = CARTESIAN_POINT('', (50., 30., 0.));
#211 = CARTESIAN_POINT('', (50., 30., 40.));
#212 = ADVANCED_FACE('', (#213), #219, .T.);
#213 = FACE_OUTER_BOUND('', #214, .T.);
#214 = EDGE_LOOP('', (#215, #216, #217, #218));
#215 = ORIENTED_EDGE('', *, *, #156, .T.);
#216 = ORIENTED_EDGE('', *, *, #128, .T.);
#217 = ORIENTED_EDGE('', *, *, #92, .F.);
#218 = ORIENTED_EDGE('', *, *, #184, .F.);
#219 = B_SPLINE_SURFACE_WITH_KNOTS('', 1, 1, ((#220, #221), (#222, #223)), .UNSPECIFIED., .F., .F., .U., (2, 2), (2, 2), (0., 40.), (0., 30.), .UNSPECIFIED.);
#220 = CARTESIAN_POINT('', (0., 0., 0.));
#221 = CARTESIAN_POINT('', (0., 30., 0.));
#222 = CARTESIAN_POINT('', (0., 0., 40.));
#223 = CARTESIAN_POINT('', (0., 30., 40.));
#224 = PRESENTATION_STYLE_ASSIGNMENT((#225));
#225 = SURFACE_STYLE_USAGE(.POSITIVE., #226);
#226 = SURFACE_SIDE_STYLE('', (#227));
#227 = SURFACE_STYLE_FILL_AREA(#228);
#228 = FILL_AREA_STYLE('', (#229));
#229 = FILL_AREA_STYLE_COLOUR('', #230);
#230 = COLOUR_RGB('', 0.50196078431373, 0.50196078431373, 0.50196078431373);
#231 = STYLED_ITEM('', (#224), #86);
#232 = MANIFOLD_SOLID_BREP('Slice_1', #233);
#233 = CLOSED_SHELL('', (#234, #270, #298, #326, #346, #358));
#234 = ADVANCED_FACE('', (#235), #265, .T.);
#235 = FACE_OUTER_BOUND('', #236, .T.);
#236 = EDGE_LOOP('', (#237, #246, #253, #260));
#237 = ORIENTED_EDGE('', *, *, #238, .T.);
#238 = EDGE_CURVE('', #239, #241, #243, .T.);
#239 = VERTEX_POINT('', #240);
#240 = CARTESIAN_POINT('', (0., 50., 0.));
#241 = VERTEX_POINT('', #242);
#242 = CARTESIAN_POINT('', (0., 50., 60.));
#243 = B_SPLINE_CURVE_WITH_KNOTS('', 1, (#244, #245), .UNSPECIFIED., .F., .U., (2, 2), (0., 60.), .UNSPECIFIED.);
#244 = CARTESIAN_POINT('', (0., 50., 0.));
#245 = CARTESIAN_POINT('', (0., 50., 60.));
#246 = ORIENTED_EDGE('', *, *, #247, .T.);
#247 = EDGE_CURVE('', #241, #248, #250, .T.);
#248 = VERTEX_POINT('', #249);
#249 = CARTESIAN_POINT('', (30., 50., 60.));
#250 = B_SPLINE_CURVE_WITH_KNOTS('', 1, (#251, #252), .UNSPECIFIED., .F., .U., (2, 2), (0., 30.), .UNSPECIFIED.);
#251 = CARTESIAN_POINT('', (0., 50., 60.));
#252 = CARTESIAN_POINT('', (30., 50., 60.));
#253 = ORIENTED_EDGE('', *, *, #254, .F.);
#254 = EDGE_CURVE('', #255, #248, #257, .T.);
#255 = VERTEX_POINT('', #256);
#256 = CARTESIAN_POINT('', (30., 50., 0.));
#257 = B_SPLINE_CURVE_WITH_KNOTS('', 1, (#258, #259), .UNSPECIFIED., .F., .U., (2, 2), (0., 60.), .UNSPECIFIED.);
#258 = CARTESIAN_POINT('', (30., 50., 0.));
#259 = CARTESIAN_POINT('', (30., 50., 60.));
#260 = ORIENTED_EDGE('', *, *, #261, .F.);
#261 = EDGE_CURVE('', #239, #255, #262, .T.);
#262 = B_SPLINE_CURVE_WITH_KNOTS('', 1, (#263, #264), .UNSPECIFIED., .F., .U., (2, 2), (0., 30.), .UNSPECIFIED.);
#263 = CARTESIAN_POINT('', (0., 50., 0.));
#264 = CARTESIAN_POINT('', (30., 50., 0.));
#265 = B_SPLINE_SURFACE_WITH_KNOTS('', 1, 1, ((#266, #267), (#268, #269)), .UNSPECIFIED., .F., .F., .U., (2, 2), (2, 2), (0., 60.), (0., 30.), .UNSPECIFIED.);
#266 = CARTESIAN_POINT('', (0., 50., 0.));
#267 = CARTESIAN_POINT('', (30., 50., 0.));
#268 = CARTESIAN_POINT('', (0., 50., 60.));
#269 = CARTESIAN_POINT('', (30., 50., 60.));
#270 = ADVANCED_FACE('', (#271), #293, .T.);
#271 = FACE_OUTER_BOUND('', #272, .T.);
#272 = EDGE_LOOP('', (#273, #280, #287, #292));
#273 = ORIENTED_EDGE('', *, *, #274, .F.);
#274 = EDGE_CURVE('', #275, #241, #277, .T.);
#275 = VERTEX_POINT('', #276);
#276 = CARTESIAN_POINT('', (0., 0., 60.));
#277 = B_SPLINE_CURVE_WITH_KNOTS('', 1, (#278, #279), .UNSPECIFIED., .F., .U., (2, 2), (0., 50.), .UNSPECIFIED.);
#278 = CARTESIAN_POINT('', (0., 0., 60.));
#279 = CARTESIAN_POINT('', (0., 50., 60.));
#280 = ORIENTED_EDGE('', *, *, #281, .T.);
#281 = EDGE_CURVE('', #275, #282, #284, .T.);
#282 = VERTEX_POINT('', #283);
#283 = CARTESIAN_POINT('', (30., 0., 60.));
#284 = B_SPLINE_CURVE_WITH_KNOTS('', 1, (#285, #286), .UNSPECIFIED., .F., .U., (2, 2), (0., 30.), .UNSPECIFIED.);
#285 = CARTESIAN_POINT('', (0., 0., 60.));
#286 = CARTESIAN_POINT('', (30., 0., 60.));
#287 = ORIENTED_EDGE('', *, *, #288, .T.);
#288 = EDGE_CURVE('', #282, #248, #289, .T.);
#289 = B_SPLINE_CURVE_WITH_KNOTS('', 1, (#290, #291), .UNSPECIFIED., .F., .U., (2, 2), (0., 50.), .UNSPECIFIED.);
#290 = CARTESIAN_POINT('', (30., 0., 60.));
#291 = CARTESIAN_POINT('', (30., 50., 60.));
#292 = ORIENTED_EDGE('', *, *, #247, .F.);
#293 = B_SPLINE_SURFACE_WITH_KNOTS('', 1, 1, ((#294, #295), (#296, #297)), .UNSPECIFIED., .F., .F., .U., (2, 2), (2, 2), (0., 30.), (0., 50.), .UNSPECIFIED.);
#294 = CARTESIAN_POINT('', (0., 0., 60.));
#295 = CARTESIAN_POINT('', (0., 50., 60.));
#296 = CARTESIAN_POINT('', (30., 0., 60.));
#297 = CARTESIAN_POINT('', (30., 50., 60.));
#298 = ADVANCED_FACE('', (#299), #321, .T.);
#299 = FACE_OUTER_BOUND('', #300, .T.);
#300 = EDGE_LOOP('', (#301, #308, #315, #320));
#301 = ORIENTED_EDGE('', *, *, #302, .F.);
#302 = EDGE_CURVE('', #303, #275, #305, .T.);
#303 = VERTEX_POINT('', #304);
#304 = CARTESIAN_POINT('', (0., 0., 0.));
#305 = B_SPLINE_CURVE_WITH_KNOTS('', 1, (#306, #307), .UNSPECIFIED., .F., .U., (2, 2), (0., 60.), .UNSPECIFIED.);
#306 = CARTESIAN_POINT('', (0., 0., 0.));
#307 = CARTESIAN_POINT('', (0., 0., 60.));
#308 = ORIENTED_EDGE('', *, *, #309, .T.);
#309 = EDGE_CURVE('', #303, #310, #312, .T.);
#310 = VERTEX_POINT('', #311);
#311 = CARTESIAN_POINT('', (30., 0., 0.));
#312 = B_SPLINE_CURVE_WITH_KNOTS('', 1, (#313, #314), .UNSPECIFIED., .F., .U., (2, 2), (0., 30.), .UNSPECIFIED.);
#313 = CARTESIAN_POINT('', (0., 0., 0.));
#314 = CARTESIAN_POINT('', (30., 0., 0.));
#315 = ORIENTED_EDGE('', *, *, #316, .T.);
#316 = EDGE_CURVE('', #310, #282, #317, .T.);
#317 = B_SPLINE_CURVE_WITH_KNOTS('', 1, (#318, #319), .UNSPECIFIED., .F., .U., (2, 2), (0., 60.), .UNSPECIFIED.);
#318 = CARTESIAN_POINT('', (30., 0., 0.));
#319 = CARTESIAN_POINT('', (30., 0., 60.));
#320 = ORIENTED_EDGE('', *, *, #281, .F.);
#321 = B_SPLINE_SURFACE_WITH_KNOTS('', 1, 1, ((#322, #323), (#324, #325)), .UNSPECIFIED., .F., .F., .U., (2, 2), (2, 2), (0., 30.), (0., 60.), .UNSPECIFIED.);
#322 = CARTESIAN_POINT('', (0., 0., 0.));
#323 = CARTESIAN_POINT('', (0., 0., 60.));
#324 = CARTESIAN_POINT('', (30., 0., 0.));
#325 = CARTESIAN_POINT('', (30., 0., 60.));
#326 = ADVANCED_FACE('', (#327), #341, .T.);
#327 = FACE_OUTER_BOUND('', #328, .T.);
#328 = EDGE_LOOP('', (#329, #334, #335, #340));
#329 = ORIENTED_EDGE('', *, *, #330, .T.);
#330 = EDGE_CURVE('', #303, #239, #331, .T.);
#331 = B_SPLINE_CURVE_WITH_KNOTS('', 1, (#332, #333), .UNSPECIFIED., .F., .U., (2, 2), (0., 50.), .UNSPECIFIED.);
#332 = CARTESIAN_POINT('', (0., 0., 0.));
#333 = CARTESIAN_POINT('', (0., 50., 0.));
#334 = ORIENTED_EDGE('', *, *, #261, .T.);
#335 = ORIENTED_EDGE('', *, *, #336, .F.);
#336 = EDGE_CURVE('', #310, #255, #337, .T.);
#337 = B_SPLINE_CURVE_WITH_KNOTS('', 1, (#338, #339), .UNSPECIFIED., .F., .U., (2, 2), (0., 50.), .UNSPECIFIED.);
#338 = CARTESIAN_POINT('', (30., 0., 0.));
#339 = CARTESIAN_POINT('', (30., 50., 0.));
#340 = ORIENTED_EDGE('', *, *, #309, .F.);
#341 = B_SPLINE_SURFACE_WITH_KNOTS('', 1, 1, ((#342, #343), (#344, #345)), .UNSPECIFIED., .F., .F., .U., (2, 2), (2, 2), (0., 50.), (0., 30.), .UNSPECIFIED.);
#342 = CARTESIAN_POINT('', (0., 0., 0.));
#343 = CARTESIAN_POINT('', (30., 0., 0.));
#344 = CARTESIAN_POINT('', (0., 50., 0.));
#345 = CARTESIAN_POINT('', (30., 50., 0.));
#346 = ADVANCED_FACE('', (#347), #353, .T.);
#347 = FACE_OUTER_BOUND('', #348, .T.);
#348 = EDGE_LOOP('', (#349, #350, #351, #352));
#349 = ORIENTED_EDGE('', *, *, #316, .F.);
#350 = ORIENTED_EDGE('', *, *, #336, .T.);
#351 = ORIENTED_EDGE('', *, *, #254, .T.);
#352 = ORIENTED_EDGE('', *, *, #288, .F.);
#353 = B_SPLINE_SURFACE_WITH_KNOTS('', 1, 1, ((#354, #355), (#356, #357)), .UNSPECIFIED., .F., .F., .U., (2, 2), (2, 2), (0., 50.), (0., 60.), .UNSPECIFIED.);
#354 = CARTESIAN_POINT('', (30., 0., 0.));
#355 = CARTESIAN_POINT('', (30., 0., 60.));
#356 = CARTESIAN_POINT('', (30., 50., 0.));
#357 = CARTESIAN_POINT('', (30., 50., 60.));
#358 = ADVANCED_FACE('', (#359), #365, .T.);
#359 = FACE_OUTER_BOUND('', #360, .T.);
#360 = EDGE_LOOP('', (#361, #362, #363, #364));
#361 = ORIENTED_EDGE('', *, *, #302, .T.);
#362 = ORIENTED_EDGE('', *, *, #274, .T.);
#363 = ORIENTED_EDGE('', *, *, #238, .F.);
#364 = ORIENTED_EDGE('', *, *, #330, .F.);
#365 = B_SPLINE_SURFACE_WITH_KNOTS('', 1, 1, ((#366, #367), (#368, #369)), .UNSPECIFIED., .F., .F., .U., (2, 2), (2, 2), (0., 60.), (0., 50.), .UNSPECIFIED.);
#366 = CARTESIAN_POINT('', (0., 0., 0.));
#367 = CARTESIAN_POINT('', (0., 50., 0.));
#368 = CARTESIAN_POINT('', (0., 0., 60.));
#369 = CARTESIAN_POINT('', (0., 50., 60.));
#370 = PRESENTATION_STYLE_ASSIGNMENT((#371));
#371 = SURFACE_STYLE_USAGE(.POSITIVE., #372);
#372 = SURFACE_SIDE_STYLE('', (#373));
#373 = SURFACE_STYLE_FILL_AREA(#374);
#374 = FILL_AREA_STYLE('', (#375));
#375 = FILL_AREA_STYLE_COLOUR('', #376);
#376 = COLOUR_RGB('', 0.50196078431373, 0.50196078431373, 0.50196078431373);
#377 = STYLED_ITEM('', (#370), #232);
#378 = CARTESIAN_POINT('Origin', (0., 0., 0.));
#379 = GEOMETRIC_SET('', (#378));
#380 = (
   GEOMETRIC_REPRESENTATION_CONTEXT (3)
   GLOBAL_UNCERTAINTY_ASSIGNED_CONTEXT ((#382))
   GLOBAL_UNIT_ASSIGNED_CONTEXT ((#381, #383, #384))
   REPRESENTATION_CONTEXT ('', '3D')
);
#381 = (
   LENGTH_UNIT ()
   NAMED_UNIT (*)
   SI_UNIT (.MILLI., .METRE.)
);
#382 = UNCERTAINTY_MEASURE_WITH_UNIT(LENGTH_MEASURE(1.E-6), #381, 'DISTANCE_ACCURACY_VALUE', '');
#383 = (
   NAMED_UNIT (*)
   SI_UNIT ($, .STERADIAN.)
   SOLID_ANGLE_UNIT ()
);
#384 = (
   NAMED_UNIT (*)
   PLANE_ANGLE_UNIT ()
   SI_UNIT ($, .RADIAN.)
);
#385 = SHAPE_REPRESENTATION('', (#400), #380);
#386 = PRODUCT_DEFINITION_SHAPE('', '', #387);
#387 = PRODUCT_DEFINITION('', '', #390, #394);
#388 = APPLICATION_CONTEXT('configuration controlled 3D designs of mechanical parts and assemblies');
#389 = APPLICATION_PROTOCOL_DEFINITION('International Standard', 'automotive_design', 2002, #388);
#390 = PRODUCT_DEFINITION_FORMATION_WITH_SPECIFIED_SOURCE('', '', #391, .NOT_KNOWN.);
#391 = PRODUCT('SliceMulti', 'SliceMulti', '', (#392));
#392 = PRODUCT_CONTEXT('', #388, 'mechanical');
#393 = PRODUCT_RELATED_PRODUCT_CATEGORY('detail', '', (#391));
#394 = PRODUCT_DEFINITION_CONTEXT('part definition', #388, 'design');
#395 = SHAPE_DEFINITION_REPRESENTATION(#386, #385);
#396 = SHAPE_REPRESENTATION_RELATIONSHIP('', '', #385, #397);
#397 = SHAPE_REPRESENTATION('', (#379), #380);
#398 = SHAPE_REPRESENTATION_RELATIONSHIP('', '', #385, #399);
#399 = ADVANCED_BREP_SHAPE_REPRESENTATION('', (#1, #86, #232), #380);
#400 = AXIS2_PLACEMENT_3D('', #401, #402, #403);
#401 = CARTESIAN_POINT('', (0., 0., 0.));
#402 = DIRECTION('', (0., 0., 1.));
#403 = DIRECTION('', (1., 0., 0.));
ENDSEC;
END-ISO-10303-21;
