ISO-10303-21;
HEADER;
FILE_DESCRIPTION(('STEP'), '1');
FILE_NAME('UpdateTargets', '2026-04-20T14:15:57', (''), (''), 'Express 3.1.2.0', 'Express Tool', 'Unknown');
FILE_SCHEMA(('AUTOMOTIVE_DESIGN'));
ENDSEC;

DATA;
#1 = MANIFOLD_SOLID_BREP('Mirror1_0', #2);
#2 = CLOSED_SHELL('', (#3, #39, #67, #95, #115, #127));
#3 = ADVANCED_FACE('', (#4), #34, .T.);
#4 = FACE_OUTER_BOUND('', #5, .T.);
#5 = EDGE_LOOP('', (#6, #15, #22, #29));
#6 = ORIENTED_EDGE('', *, *, #7, .T.);
#7 = EDGE_CURVE('', #8, #10, #12, .T.);
#8 = VERTEX_POINT('', #9);
#9 = CARTESIAN_POINT('', (0., 25., 0.));
#10 = VERTEX_POINT('', #11);
#11 = CARTESIAN_POINT('', (0., 25., 40.));
#12 = B_SPLINE_CURVE_WITH_KNOTS('', 1, (#13, #14), .UNSPECIFIED., .F., .U., (2, 2), (0., 40.), .UNSPECIFIED.);
#13 = CARTESIAN_POINT('', (0., 25., 0.));
#14 = CARTESIAN_POINT('', (0., 25., 40.));
#15 = ORIENTED_EDGE('', *, *, #16, .T.);
#16 = EDGE_CURVE('', #10, #17, #19, .T.);
#17 = VERTEX_POINT('', #18);
#18 = CARTESIAN_POINT('', (30., 25., 40.));
#19 = B_SPLINE_CURVE_WITH_KNOTS('', 1, (#20, #21), .UNSPECIFIED., .F., .U., (2, 2), (0., 30.), .UNSPECIFIED.);
#20 = CARTESIAN_POINT('', (0., 25., 40.));
#21 = CARTESIAN_POINT('', (30., 25., 40.));
#22 = ORIENTED_EDGE('', *, *, #23, .F.);
#23 = EDGE_CURVE('', #24, #17, #26, .T.);
#24 = VERTEX_POINT('', #25);
#25 = CARTESIAN_POINT('', (30., 25., 0.));
#26 = B_SPLINE_CURVE_WITH_KNOTS('', 1, (#27, #28), .UNSPECIFIED., .F., .U., (2, 2), (0., 40.), .UNSPECIFIED.);
#27 = CARTESIAN_POINT('', (30., 25., 0.));
#28 = CARTESIAN_POINT('', (30., 25., 40.));
#29 = ORIENTED_EDGE('', *, *, #30, .F.);
#30 = EDGE_CURVE('', #8, #24, #31, .T.);
#31 = B_SPLINE_CURVE_WITH_KNOTS('', 1, (#32, #33), .UNSPECIFIED., .F., .U., (2, 2), (0., 30.), .UNSPECIFIED.);
#32 = CARTESIAN_POINT('', (0., 25., 0.));
#33 = CARTESIAN_POINT('', (30., 25., 0.));
#34 = B_SPLINE_SURFACE_WITH_KNOTS('', 1, 1, ((#35, #36), (#37, #38)), .UNSPECIFIED., .F., .F., .U., (2, 2), (2, 2), (0., 40.), (0., 30.), .UNSPECIFIED.);
#35 = CARTESIAN_POINT('', (0., 25., 0.));
#36 = CARTESIAN_POINT('', (30., 25., 0.));
#37 = CARTESIAN_POINT('', (0., 25., 40.));
#38 = CARTESIAN_POINT('', (30., 25., 40.));
#39 = ADVANCED_FACE('', (#40), #62, .T.);
#40 = FACE_OUTER_BOUND('', #41, .T.);
#41 = EDGE_LOOP('', (#42, #49, #56, #61));
#42 = ORIENTED_EDGE('', *, *, #43, .F.);
#43 = EDGE_CURVE('', #44, #10, #46, .T.);
#44 = VERTEX_POINT('', #45);
#45 = CARTESIAN_POINT('', (0., 0., 40.));
#46 = B_SPLINE_CURVE_WITH_KNOTS('', 1, (#47, #48), .UNSPECIFIED., .F., .U., (2, 2), (0., 25.), .UNSPECIFIED.);
#47 = CARTESIAN_POINT('', (0., 0., 40.));
#48 = CARTESIAN_POINT('', (0., 25., 40.));
#49 = ORIENTED_EDGE('', *, *, #50, .T.);
#50 = EDGE_CURVE('', #44, #51, #53, .T.);
#51 = VERTEX_POINT('', #52);
#52 = CARTESIAN_POINT('', (30., 0., 40.));
#53 = B_SPLINE_CURVE_WITH_KNOTS('', 1, (#54, #55), .UNSPECIFIED., .F., .U., (2, 2), (0., 30.), .UNSPECIFIED.);
#54 = CARTESIAN_POINT('', (0., 0., 40.));
#55 = CARTESIAN_POINT('', (30., 0., 40.));
#56 = ORIENTED_EDGE('', *, *, #57, .T.);
#57 = EDGE_CURVE('', #51, #17, #58, .T.);
#58 = B_SPLINE_CURVE_WITH_KNOTS('', 1, (#59, #60), .UNSPECIFIED., .F., .U., (2, 2), (0., 25.), .UNSPECIFIED.);
#59 = CARTESIAN_POINT('', (30., 0., 40.));
#60 = CARTESIAN_POINT('', (30., 25., 40.));
#61 = ORIENTED_EDGE('', *, *, #16, .F.);
#62 = B_SPLINE_SURFACE_WITH_KNOTS('', 1, 1, ((#63, #64), (#65, #66)), .UNSPECIFIED., .F., .F., .U., (2, 2), (2, 2), (0., 30.), (0., 25.), .UNSPECIFIED.);
#63 = CARTESIAN_POINT('', (0., 0., 40.));
#64 = CARTESIAN_POINT('', (0., 25., 40.));
#65 = CARTESIAN_POINT('', (30., 0., 40.));
#66 = CARTESIAN_POINT('', (30., 25., 40.));
#67 = ADVANCED_FACE('', (#68), #90, .T.);
#68 = FACE_OUTER_BOUND('', #69, .T.);
#69 = EDGE_LOOP('', (#70, #77, #84, #89));
#70 = ORIENTED_EDGE('', *, *, #71, .F.);
#71 = EDGE_CURVE('', #72, #44, #74, .T.);
#72 = VERTEX_POINT('', #73);
#73 = CARTESIAN_POINT('', (0., 0., 0.));
#74 = B_SPLINE_CURVE_WITH_KNOTS('', 1, (#75, #76), .UNSPECIFIED., .F., .U., (2, 2), (0., 40.), .UNSPECIFIED.);
#75 = CARTESIAN_POINT('', (0., 0., 0.));
#76 = CARTESIAN_POINT('', (0., 0., 40.));
#77 = ORIENTED_EDGE('', *, *, #78, .T.);
#78 = EDGE_CURVE('', #72, #79, #81, .T.);
#79 = VERTEX_POINT('', #80);
#80 = CARTESIAN_POINT('', (30., 0., 0.));
#81 = B_SPLINE_CURVE_WITH_KNOTS('', 1, (#82, #83), .UNSPECIFIED., .F., .U., (2, 2), (0., 30.), .UNSPECIFIED.);
#82 = CARTESIAN_POINT('', (0., 0., 0.));
#83 = CARTESIAN_POINT('', (30., 0., 0.));
#84 = ORIENTED_EDGE('', *, *, #85, .T.);
#85 = EDGE_CURVE('', #79, #51, #86, .T.);
#86 = B_SPLINE_CURVE_WITH_KNOTS('', 1, (#87, #88), .UNSPECIFIED., .F., .U., (2, 2), (0., 40.), .UNSPECIFIED.);
#87 = CARTESIAN_POINT('', (30., 0., 0.));
#88 = CARTESIAN_POINT('', (30., 0., 40.));
#89 = ORIENTED_EDGE('', *, *, #50, .F.);
#90 = B_SPLINE_SURFACE_WITH_KNOTS('', 1, 1, ((#91, #92), (#93, #94)), .UNSPECIFIED., .F., .F., .U., (2, 2), (2, 2), (0., 30.), (0., 40.), .UNSPECIFIED.);
#91 = CARTESIAN_POINT('', (0., 0., 0.));
#92 = CARTESIAN_POINT('', (0., 0., 40.));
#93 = CARTESIAN_POINT('', (30., 0., 0.));
#94 = CARTESIAN_POINT('', (30., 0., 40.));
#95 = ADVANCED_FACE('', (#96), #110, .T.);
#96 = FACE_OUTER_BOUND('', #97, .T.);
#97 = EDGE_LOOP('', (#98, #103, #104, #109));
#98 = ORIENTED_EDGE('', *, *, #99, .T.);
#99 = EDGE_CURVE('', #72, #8, #100, .T.);
#100 = B_SPLINE_CURVE_WITH_KNOTS('', 1, (#101, #102), .UNSPECIFIED., .F., .U., (2, 2), (0., 25.), .UNSPECIFIED.);
#101 = CARTESIAN_POINT('', (0., 0., 0.));
#102 = CARTESIAN_POINT('', (0., 25., 0.));
#103 = ORIENTED_EDGE('', *, *, #30, .T.);
#104 = ORIENTED_EDGE('', *, *, #105, .F.);
#105 = EDGE_CURVE('', #79, #24, #106, .T.);
#106 = B_SPLINE_CURVE_WITH_KNOTS('', 1, (#107, #108), .UNSPECIFIED., .F., .U., (2, 2), (0., 25.), .UNSPECIFIED.);
#107 = CARTESIAN_POINT('', (30., 0., 0.));
#108 = CARTESIAN_POINT('', (30., 25., 0.));
#109 = ORIENTED_EDGE('', *, *, #78, .F.);
#110 = B_SPLINE_SURFACE_WITH_KNOTS('', 1, 1, ((#111, #112), (#113, #114)), .UNSPECIFIED., .F., .F., .U., (2, 2), (2, 2), (0., 25.), (0., 30.), .UNSPECIFIED.);
#111 = CARTESIAN_POINT('', (0., 0., 0.));
#112 = CARTESIAN_POINT('', (30., 0., 0.));
#113 = CARTESIAN_POINT('', (0., 25., 0.));
#114 = CARTESIAN_POINT('', (30., 25., 0.));
#115 = ADVANCED_FACE('', (#116), #122, .T.);
#116 = FACE_OUTER_BOUND('', #117, .T.);
#117 = EDGE_LOOP('', (#118, #119, #120, #121));
#118 = ORIENTED_EDGE('', *, *, #85, .F.);
#119 = ORIENTED_EDGE('', *, *, #105, .T.);
#120 = ORIENTED_EDGE('', *, *, #23, .T.);
#121 = ORIENTED_EDGE('', *, *, #57, .F.);
#122 = B_SPLINE_SURFACE_WITH_KNOTS('', 1, 1, ((#123, #124), (#125, #126)), .UNSPECIFIED., .F., .F., .U., (2, 2), (2, 2), (0., 25.), (0., 40.), .UNSPECIFIED.);
#123 = CARTESIAN_POINT('', (30., 0., 0.));
#124 = CARTESIAN_POINT('', (30., 0., 40.));
#125 = CARTESIAN_POINT('', (30., 25., 0.));
#126 = CARTESIAN_POINT('', (30., 25., 40.));
#127 = ADVANCED_FACE('', (#128), #134, .T.);
#128 = FACE_OUTER_BOUND('', #129, .T.);
#129 = EDGE_LOOP('', (#130, #131, #132, #133));
#130 = ORIENTED_EDGE('', *, *, #71, .T.);
#131 = ORIENTED_EDGE('', *, *, #43, .T.);
#132 = ORIENTED_EDGE('', *, *, #7, .F.);
#133 = ORIENTED_EDGE('', *, *, #99, .F.);
#134 = B_SPLINE_SURFACE_WITH_KNOTS('', 1, 1, ((#135, #136), (#137, #138)), .UNSPECIFIED., .F., .F., .U., (2, 2), (2, 2), (0., 40.), (0., 25.), .UNSPECIFIED.);
#135 = CARTESIAN_POINT('', (0., 0., 0.));
#136 = CARTESIAN_POINT('', (0., 25., 0.));
#137 = CARTESIAN_POINT('', (0., 0., 40.));
#138 = CARTESIAN_POINT('', (0., 25., 40.));
#139 = DRAUGHTING_MODEL('', (#147, #293, #377, #461), #472);
#140 = PRESENTATION_STYLE_ASSIGNMENT((#141));
#141 = SURFACE_STYLE_USAGE(.POSITIVE., #142);
#142 = SURFACE_SIDE_STYLE('', (#143));
#143 = SURFACE_STYLE_FILL_AREA(#144);
#144 = FILL_AREA_STYLE('', (#145));
#145 = FILL_AREA_STYLE_COLOUR('', #146);
#146 = COLOUR_RGB('', 0.50196078431373, 0.50196078431373, 0.50196078431373);
#147 = STYLED_ITEM('', (#140), #1);
#148 = MANIFOLD_SOLID_BREP('Mirror1_1', #149);
#149 = CLOSED_SHELL('', (#150, #186, #222, #242, #262, #274));
#150 = ADVANCED_FACE('', (#151), #181, .F.);
#151 = FACE_OUTER_BOUND('', #152, .F.);
#152 = EDGE_LOOP('', (#153, #162, #169, #176));
#153 = ORIENTED_EDGE('', *, *, #154, .T.);
#154 = EDGE_CURVE('', #155, #157, #159, .T.);
#155 = VERTEX_POINT('', #156);
#156 = CARTESIAN_POINT('', (0., 0., 0.));
#157 = VERTEX_POINT('', #158);
#158 = CARTESIAN_POINT('', (0., 25., 0.));
#159 = B_SPLINE_CURVE_WITH_KNOTS('', 1, (#160, #161), .UNSPECIFIED., .F., .U., (2, 2), (0., 25.), .UNSPECIFIED.);
#160 = CARTESIAN_POINT('', (0., 0., 0.));
#161 = CARTESIAN_POINT('', (0., 25., 0.));
#162 = ORIENTED_EDGE('', *, *, #163, .T.);
#163 = EDGE_CURVE('', #157, #164, #166, .T.);
#164 = VERTEX_POINT('', #165);
#165 = CARTESIAN_POINT('', (-30., 25., 0.));
#166 = B_SPLINE_CURVE_WITH_KNOTS('', 1, (#167, #168), .UNSPECIFIED., .F., .U., (2, 2), (0., 30.), .UNSPECIFIED.);
#167 = CARTESIAN_POINT('', (0., 25., 0.));
#168 = CARTESIAN_POINT('', (-30., 25., 0.));
#169 = ORIENTED_EDGE('', *, *, #170, .F.);
#170 = EDGE_CURVE('', #171, #164, #173, .T.);
#171 = VERTEX_POINT('', #172);
#172 = CARTESIAN_POINT('', (-30., 0., 0.));
#173 = B_SPLINE_CURVE_WITH_KNOTS('', 1, (#174, #175), .UNSPECIFIED., .F., .U., (2, 2), (0., 25.), .UNSPECIFIED.);
#174 = CARTESIAN_POINT('', (-30., 0., 0.));
#175 = CARTESIAN_POINT('', (-30., 25., 0.));
#176 = ORIENTED_EDGE('', *, *, #177, .F.);
#177 = EDGE_CURVE('', #155, #171, #178, .T.);
#178 = B_SPLINE_CURVE_WITH_KNOTS('', 1, (#179, #180), .UNSPECIFIED., .F., .U., (2, 2), (0., 30.), .UNSPECIFIED.);
#179 = CARTESIAN_POINT('', (0., 0., 0.));
#180 = CARTESIAN_POINT('', (-30., 0., 0.));
#181 = B_SPLINE_SURFACE_WITH_KNOTS('', 1, 1, ((#182, #183), (#184, #185)), .UNSPECIFIED., .F., .F., .U., (2, 2), (2, 2), (0., 25.), (0., 30.), .UNSPECIFIED.);
#182 = CARTESIAN_POINT('', (0., 0., 0.));
#183 = CARTESIAN_POINT('', (-30., 0., 0.));
#184 = CARTESIAN_POINT('', (0., 25., 0.));
#185 = CARTESIAN_POINT('', (-30., 25., 0.));
#186 = ADVANCED_FACE('', (#187), #217, .F.);
#187 = FACE_OUTER_BOUND('', #188, .F.);
#188 = EDGE_LOOP('', (#189, #198, #205, #212));
#189 = ORIENTED_EDGE('', *, *, #190, .F.);
#190 = EDGE_CURVE('', #191, #193, #195, .T.);
#191 = VERTEX_POINT('', #192);
#192 = CARTESIAN_POINT('', (0., 0., 40.));
#193 = VERTEX_POINT('', #194);
#194 = CARTESIAN_POINT('', (0., 25., 40.));
#195 = B_SPLINE_CURVE_WITH_KNOTS('', 1, (#196, #197), .UNSPECIFIED., .F., .U., (2, 2), (0., 25.), .UNSPECIFIED.);
#196 = CARTESIAN_POINT('', (0., 0., 40.));
#197 = CARTESIAN_POINT('', (0., 25., 40.));
#198 = ORIENTED_EDGE('', *, *, #199, .T.);
#199 = EDGE_CURVE('', #191, #200, #202, .T.);
#200 = VERTEX_POINT('', #201);
#201 = CARTESIAN_POINT('', (-30., 0., 40.));
#202 = B_SPLINE_CURVE_WITH_KNOTS('', 1, (#203, #204), .UNSPECIFIED., .F., .U., (2, 2), (0., 30.), .UNSPECIFIED.);
#203 = CARTESIAN_POINT('', (0., 0., 40.));
#204 = CARTESIAN_POINT('', (-30., 0., 40.));
#205 = ORIENTED_EDGE('', *, *, #206, .T.);
#206 = EDGE_CURVE('', #200, #207, #209, .T.);
#207 = VERTEX_POINT('', #208);
#208 = CARTESIAN_POINT('', (-30., 25., 40.));
#209 = B_SPLINE_CURVE_WITH_KNOTS('', 1, (#210, #211), .UNSPECIFIED., .F., .U., (2, 2), (0., 25.), .UNSPECIFIED.);
#210 = CARTESIAN_POINT('', (-30., 0., 40.));
#211 = CARTESIAN_POINT('', (-30., 25., 40.));
#212 = ORIENTED_EDGE('', *, *, #213, .F.);
#213 = EDGE_CURVE('', #193, #207, #214, .T.);
#214 = B_SPLINE_CURVE_WITH_KNOTS('', 1, (#215, #216), .UNSPECIFIED., .F., .U., (2, 2), (0., 30.), .UNSPECIFIED.);
#215 = CARTESIAN_POINT('', (0., 25., 40.));
#216 = CARTESIAN_POINT('', (-30., 25., 40.));
#217 = B_SPLINE_SURFACE_WITH_KNOTS('', 1, 1, ((#218, #219), (#220, #221)), .UNSPECIFIED., .F., .F., .U., (2, 2), (2, 2), (0., 30.), (0., 25.), .UNSPECIFIED.);
#218 = CARTESIAN_POINT('', (0., 0., 40.));
#219 = CARTESIAN_POINT('', (0., 25., 40.));
#220 = CARTESIAN_POINT('', (-30., 0., 40.));
#221 = CARTESIAN_POINT('', (-30., 25., 40.));
#222 = ADVANCED_FACE('', (#223), #237, .F.);
#223 = FACE_OUTER_BOUND('', #224, .F.);
#224 = EDGE_LOOP('', (#225, #230, #231, #236));
#225 = ORIENTED_EDGE('', *, *, #226, .T.);
#226 = EDGE_CURVE('', #155, #191, #227, .T.);
#227 = B_SPLINE_CURVE_WITH_KNOTS('', 1, (#228, #229), .UNSPECIFIED., .F., .U., (2, 2), (0., 40.), .UNSPECIFIED.);
#228 = CARTESIAN_POINT('', (0., 0., 0.));
#229 = CARTESIAN_POINT('', (0., 0., 40.));
#230 = ORIENTED_EDGE('', *, *, #190, .T.);
#231 = ORIENTED_EDGE('', *, *, #232, .F.);
#232 = EDGE_CURVE('', #157, #193, #233, .T.);
#233 = B_SPLINE_CURVE_WITH_KNOTS('', 1, (#234, #235), .UNSPECIFIED., .F., .U., (2, 2), (0., 40.), .UNSPECIFIED.);
#234 = CARTESIAN_POINT('', (0., 25., 0.));
#235 = CARTESIAN_POINT('', (0., 25., 40.));
#236 = ORIENTED_EDGE('', *, *, #154, .F.);
#237 = B_SPLINE_SURFACE_WITH_KNOTS('', 1, 1, ((#238, #239), (#240, #241)), .UNSPECIFIED., .F., .F., .U., (2, 2), (2, 2), (0., 40.), (0., 25.), .UNSPECIFIED.);
#238 = CARTESIAN_POINT('', (0., 0., 0.));
#239 = CARTESIAN_POINT('', (0., 25., 0.));
#240 = CARTESIAN_POINT('', (0., 0., 40.));
#241 = CARTESIAN_POINT('', (0., 25., 40.));
#242 = ADVANCED_FACE('', (#243), #257, .F.);
#243 = FACE_OUTER_BOUND('', #244, .F.);
#244 = EDGE_LOOP('', (#245, #250, #251, #256));
#245 = ORIENTED_EDGE('', *, *, #246, .F.);
#246 = EDGE_CURVE('', #171, #200, #247, .T.);
#247 = B_SPLINE_CURVE_WITH_KNOTS('', 1, (#248, #249), .UNSPECIFIED., .F., .U., (2, 2), (0., 40.), .UNSPECIFIED.);
#248 = CARTESIAN_POINT('', (-30., 0., 0.));
#249 = CARTESIAN_POINT('', (-30., 0., 40.));
#250 = ORIENTED_EDGE('', *, *, #170, .T.);
#251 = ORIENTED_EDGE('', *, *, #252, .T.);
#252 = EDGE_CURVE('', #164, #207, #253, .T.);
#253 = B_SPLINE_CURVE_WITH_KNOTS('', 1, (#254, #255), .UNSPECIFIED., .F., .U., (2, 2), (0., 40.), .UNSPECIFIED.);
#254 = CARTESIAN_POINT('', (-30., 25., 0.));
#255 = CARTESIAN_POINT('', (-30., 25., 40.));
#256 = ORIENTED_EDGE('', *, *, #206, .F.);
#257 = B_SPLINE_SURFACE_WITH_KNOTS('', 1, 1, ((#258, #259), (#260, #261)), .UNSPECIFIED., .F., .F., .U., (2, 2), (2, 2), (0., 25.), (0., 40.), .UNSPECIFIED.);
#258 = CARTESIAN_POINT('', (-30., 0., 0.));
#259 = CARTESIAN_POINT('', (-30., 0., 40.));
#260 = CARTESIAN_POINT('', (-30., 25., 0.));
#261 = CARTESIAN_POINT('', (-30., 25., 40.));
#262 = ADVANCED_FACE('', (#263), #269, .F.);
#263 = FACE_OUTER_BOUND('', #264, .F.);
#264 = EDGE_LOOP('', (#265, #266, #267, #268));
#265 = ORIENTED_EDGE('', *, *, #226, .F.);
#266 = ORIENTED_EDGE('', *, *, #177, .T.);
#267 = ORIENTED_EDGE('', *, *, #246, .T.);
#268 = ORIENTED_EDGE('', *, *, #199, .F.);
#269 = B_SPLINE_SURFACE_WITH_KNOTS('', 1, 1, ((#270, #271), (#272, #273)), .UNSPECIFIED., .F., .F., .U., (2, 2), (2, 2), (0., 30.), (0., 40.), .UNSPECIFIED.);
#270 = CARTESIAN_POINT('', (0., 0., 0.));
#271 = CARTESIAN_POINT('', (0., 0., 40.));
#272 = CARTESIAN_POINT('', (-30., 0., 0.));
#273 = CARTESIAN_POINT('', (-30., 0., 40.));
#274 = ADVANCED_FACE('', (#275), #281, .F.);
#275 = FACE_OUTER_BOUND('', #276, .F.);
#276 = EDGE_LOOP('', (#277, #278, #279, #280));
#277 = ORIENTED_EDGE('', *, *, #232, .T.);
#278 = ORIENTED_EDGE('', *, *, #213, .T.);
#279 = ORIENTED_EDGE('', *, *, #252, .F.);
#280 = ORIENTED_EDGE('', *, *, #163, .F.);
#281 = B_SPLINE_SURFACE_WITH_KNOTS('', 1, 1, ((#282, #283), (#284, #285)), .UNSPECIFIED., .F., .F., .U., (2, 2), (2, 2), (0., 40.), (0., 30.), .UNSPECIFIED.);
#282 = CARTESIAN_POINT('', (0., 25., 0.));
#283 = CARTESIAN_POINT('', (-30., 25., 0.));
#284 = CARTESIAN_POINT('', (0., 25., 40.));
#285 = CARTESIAN_POINT('', (-30., 25., 40.));
#286 = PRESENTATION_STYLE_ASSIGNMENT((#287));
#287 = SURFACE_STYLE_USAGE(.POSITIVE., #288);
#288 = SURFACE_SIDE_STYLE('', (#289));
#289 = SURFACE_STYLE_FILL_AREA(#290);
#290 = FILL_AREA_STYLE('', (#291));
#291 = FILL_AREA_STYLE_COLOUR('', #292);
#292 = COLOUR_RGB('', 0.50196078431373, 0.50196078431373, 0.50196078431373);
#293 = STYLED_ITEM('', (#286), #148);
#294 = MANIFOLD_SOLID_BREP('MirrorBoth_2', #295);
#295 = CLOSED_SHELL('', (#296, #352, #361));
#296 = ADVANCED_FACE('', (#297), #333, .T.);
#297 = FACE_OUTER_BOUND('', #298, .T.);
#298 = EDGE_LOOP('', (#299, #308, #320, #321));
#299 = ORIENTED_EDGE('', *, *, #300, .F.);
#300 = EDGE_CURVE('', #301, #303, #305, .T.);
#301 = VERTEX_POINT('', #302);
#302 = CARTESIAN_POINT('', (50., 0., 0.));
#303 = VERTEX_POINT('', #304);
#304 = CARTESIAN_POINT('', (50., 0., 35.));
#305 = B_SPLINE_CURVE_WITH_KNOTS('', 1, (#306, #307), .UNSPECIFIED., .F., .U., (2, 2), (0., 35.), .UNSPECIFIED.);
#306 = CARTESIAN_POINT('', (50., 0., 0.));
#307 = CARTESIAN_POINT('', (50., 0., 35.));
#308 = ORIENTED_EDGE('', *, *, #309, .T.);
#309 = EDGE_CURVE('', #301, #301, #310, .T.);
#310 = (
   BOUNDED_CURVE ()
   B_SPLINE_CURVE (2, (#311, #312, #313, #314, #315, #316, #317, #318, #319), .UNSPECIFIED., .T., .U.)
   B_SPLINE_CURVE_WITH_KNOTS ((3, 2, 2, 2, 3), (0., 78.5398163397448, 157.07963267949, 235.619449019235, 314.159265358979), .UNSPECIFIED.)
   CURVE ()
   GEOMETRIC_REPRESENTATION_ITEM ()
   RATIONAL_B_SPLINE_CURVE ((1., 0.707106781186548, 1., 0.707106781186548, 1., 0.707106781186548, 1., 0.707106781186548, 1.))
   REPRESENTATION_ITEM ('')
);
#311 = CARTESIAN_POINT('', (50., 0., 0.));
#312 = CARTESIAN_POINT('', (50., 50., 0.));
#313 = CARTESIAN_POINT('', (3.06161699786838E-15, 50., 0.));
#314 = CARTESIAN_POINT('', (-50., 50., 0.));
#315 = CARTESIAN_POINT('', (-50., 6.12323399573677E-15, 0.));
#316 = CARTESIAN_POINT('', (-50., -50., 0.));
#317 = CARTESIAN_POINT('', (-9.18485099360515E-15, -50., 0.));
#318 = CARTESIAN_POINT('', (50., -50., 0.));
#319 = CARTESIAN_POINT('', (50., 0., 0.));
#320 = ORIENTED_EDGE('', *, *, #300, .T.);
#321 = ORIENTED_EDGE('', *, *, #322, .F.);
#322 = EDGE_CURVE('', #303, #303, #323, .T.);
#323 = (
   BOUNDED_CURVE ()
   B_SPLINE_CURVE (2, (#324, #325, #326, #327, #328, #329, #330, #331, #332), .UNSPECIFIED., .T., .U.)
   B_SPLINE_CURVE_WITH_KNOTS ((3, 2, 2, 2, 3), (0., 78.5398163397448, 157.07963267949, 235.619449019235, 314.159265358979), .UNSPECIFIED.)
   CURVE ()
   GEOMETRIC_REPRESENTATION_ITEM ()
   RATIONAL_B_SPLINE_CURVE ((1., 0.707106781186548, 1., 0.707106781186548, 1., 0.707106781186548, 1., 0.707106781186548, 1.))
   REPRESENTATION_ITEM ('')
);
#324 = CARTESIAN_POINT('', (50., 0., 35.));
#325 = CARTESIAN_POINT('', (50., 50., 35.));
#326 = CARTESIAN_POINT('', (3.06161699786838E-15, 50., 35.));
#327 = CARTESIAN_POINT('', (-50., 50., 35.));
#328 = CARTESIAN_POINT('', (-50., 6.12323399573677E-15, 35.));
#329 = CARTESIAN_POINT('', (-50., -50., 35.));
#330 = CARTESIAN_POINT('', (-9.18485099360515E-15, -50., 35.));
#331 = CARTESIAN_POINT('', (50., -50., 35.));
#332 = CARTESIAN_POINT('', (50., 0., 35.));
#333 = (
   BOUNDED_SURFACE ()
   B_SPLINE_SURFACE (2, 1, ((#334, #335), (#336, #337), (#338, #339), (#340, #341), (#342, #343), (#344, #345), (#346, #347), (#348, #349), (#350, #351)), .UNSPECIFIED., .T., .F., .U.)
   B_SPLINE_SURFACE_WITH_KNOTS ((3, 2, 2, 2, 3), (2, 2), (0., 78.5398163397448, 157.07963267949, 235.619449019235, 314.159265358979), (0., 35.), .UNSPECIFIED.)
   GEOMETRIC_REPRESENTATION_ITEM ()
   RATIONAL_B_SPLINE_SURFACE (((1., 1.), (0.707106781186548, 0.707106781186548), (1., 1.), (0.707106781186548, 0.707106781186548), (1., 1.), (0.707106781186548, 0.707106781186548), (1., 1.), (0.707106781186548, 0.707106781186548), (1., 1.)))
   REPRESENTATION_ITEM ('')
   SURFACE ()
);
#334 = CARTESIAN_POINT('', (50., 0., 0.));
#335 = CARTESIAN_POINT('', (50., 0., 35.));
#336 = CARTESIAN_POINT('', (50., 50., 0.));
#337 = CARTESIAN_POINT('', (50., 50., 35.));
#338 = CARTESIAN_POINT('', (3.06161699786838E-15, 50., 0.));
#339 = CARTESIAN_POINT('', (3.06161699786838E-15, 50., 35.));
#340 = CARTESIAN_POINT('', (-50., 50., 0.));
#341 = CARTESIAN_POINT('', (-50., 50., 35.));
#342 = CARTESIAN_POINT('', (-50., 6.12323399573677E-15, 0.));
#343 = CARTESIAN_POINT('', (-50., 6.12323399573677E-15, 35.));
#344 = CARTESIAN_POINT('', (-50., -50., 0.));
#345 = CARTESIAN_POINT('', (-50., -50., 35.));
#346 = CARTESIAN_POINT('', (-9.18485099360515E-15, -50., 0.));
#347 = CARTESIAN_POINT('', (-9.18485099360515E-15, -50., 35.));
#348 = CARTESIAN_POINT('', (50., -50., 0.));
#349 = CARTESIAN_POINT('', (50., -50., 35.));
#350 = CARTESIAN_POINT('', (50., 0., 0.));
#351 = CARTESIAN_POINT('', (50., 0., 35.));
#352 = ADVANCED_FACE('', (#353), #356, .T.);
#353 = FACE_OUTER_BOUND('', #354, .T.);
#354 = EDGE_LOOP('', (#355));
#355 = ORIENTED_EDGE('', *, *, #309, .F.);
#356 = B_SPLINE_SURFACE_WITH_KNOTS('', 1, 1, ((#357, #358), (#359, #360)), .UNSPECIFIED., .F., .F., .U., (2, 2), (2, 2), (0., 1.), (0., 1.), .UNSPECIFIED.);
#357 = CARTESIAN_POINT('', (77.7817459305203, -77.7817459305203, 0.));
#358 = CARTESIAN_POINT('', (77.7817459305203, 77.7817459305203, 0.));
#359 = CARTESIAN_POINT('', (-77.7817459305203, -77.7817459305203, 0.));
#360 = CARTESIAN_POINT('', (-77.7817459305203, 77.7817459305203, 0.));
#361 = ADVANCED_FACE('', (#362), #365, .T.);
#362 = FACE_OUTER_BOUND('', #363, .T.);
#363 = EDGE_LOOP('', (#364));
#364 = ORIENTED_EDGE('', *, *, #322, .T.);
#365 = B_SPLINE_SURFACE_WITH_KNOTS('', 1, 1, ((#366, #367), (#368, #369)), .UNSPECIFIED., .F., .F., .U., (2, 2), (2, 2), (0., 1.), (0., 1.), .UNSPECIFIED.);
#366 = CARTESIAN_POINT('', (77.7817459305203, -77.7817459305203, 35.));
#367 = CARTESIAN_POINT('', (-77.7817459305203, -77.7817459305203, 35.));
#368 = CARTESIAN_POINT('', (77.7817459305203, 77.7817459305203, 35.));
#369 = CARTESIAN_POINT('', (-77.7817459305203, 77.7817459305203, 35.));
#370 = PRESENTATION_STYLE_ASSIGNMENT((#371));
#371 = SURFACE_STYLE_USAGE(.POSITIVE., #372);
#372 = SURFACE_SIDE_STYLE('', (#373));
#373 = SURFACE_STYLE_FILL_AREA(#374);
#374 = FILL_AREA_STYLE('', (#375));
#375 = FILL_AREA_STYLE_COLOUR('', #376);
#376 = COLOUR_RGB('', 0.50196078431373, 0.50196078431373, 0.50196078431373);
#377 = STYLED_ITEM('', (#370), #294);
#378 = MANIFOLD_SOLID_BREP('MirrorBoth_3', #379);
#379 = CLOSED_SHELL('', (#380, #436, #445));
#380 = ADVANCED_FACE('', (#381), #417, .F.);
#381 = FACE_OUTER_BOUND('', #382, .F.);
#382 = EDGE_LOOP('', (#383, #392, #404, #405));
#383 = ORIENTED_EDGE('', *, *, #384, .F.);
#384 = EDGE_CURVE('', #385, #387, #389, .T.);
#385 = VERTEX_POINT('', #386);
#386 = CARTESIAN_POINT('', (-50., 0., 0.));
#387 = VERTEX_POINT('', #388);
#388 = CARTESIAN_POINT('', (-50., 0., 35.));
#389 = B_SPLINE_CURVE_WITH_KNOTS('', 1, (#390, #391), .UNSPECIFIED., .F., .U., (2, 2), (0., 35.), .UNSPECIFIED.);
#390 = CARTESIAN_POINT('', (-50., 0., 0.));
#391 = CARTESIAN_POINT('', (-50., 0., 35.));
#392 = ORIENTED_EDGE('', *, *, #393, .T.);
#393 = EDGE_CURVE('', #385, #385, #394, .T.);
#394 = (
   BOUNDED_CURVE ()
   B_SPLINE_CURVE (2, (#395, #396, #397, #398, #399, #400, #401, #402, #403), .UNSPECIFIED., .T., .U.)
   B_SPLINE_CURVE_WITH_KNOTS ((3, 2, 2, 2, 3), (0., 78.5398163397448, 157.07963267949, 235.619449019235, 314.159265358979), .UNSPECIFIED.)
   CURVE ()
   GEOMETRIC_REPRESENTATION_ITEM ()
   RATIONAL_B_SPLINE_CURVE ((1., 0.707106781186548, 1., 0.707106781186548, 1., 0.707106781186548, 1., 0.707106781186548, 1.))
   REPRESENTATION_ITEM ('')
);
#395 = CARTESIAN_POINT('', (-50., 0., 0.));
#396 = CARTESIAN_POINT('', (-50., 50., 0.));
#397 = CARTESIAN_POINT('', (-3.06161699786838E-15, 50., 0.));
#398 = CARTESIAN_POINT('', (50., 50., 0.));
#399 = CARTESIAN_POINT('', (50., 6.12323399573677E-15, 0.));
#400 = CARTESIAN_POINT('', (50., -50., 0.));
#401 = CARTESIAN_POINT('', (9.18485099360515E-15, -50., 0.));
#402 = CARTESIAN_POINT('', (-50., -50., 0.));
#403 = CARTESIAN_POINT('', (-50., 0., 0.));
#404 = ORIENTED_EDGE('', *, *, #384, .T.);
#405 = ORIENTED_EDGE('', *, *, #406, .F.);
#406 = EDGE_CURVE('', #387, #387, #407, .T.);
#407 = (
   BOUNDED_CURVE ()
   B_SPLINE_CURVE (2, (#408, #409, #410, #411, #412, #413, #414, #415, #416), .UNSPECIFIED., .T., .U.)
   B_SPLINE_CURVE_WITH_KNOTS ((3, 2, 2, 2, 3), (0., 78.5398163397448, 157.07963267949, 235.619449019235, 314.159265358979), .UNSPECIFIED.)
   CURVE ()
   GEOMETRIC_REPRESENTATION_ITEM ()
   RATIONAL_B_SPLINE_CURVE ((1., 0.707106781186548, 1., 0.707106781186548, 1., 0.707106781186548, 1., 0.707106781186548, 1.))
   REPRESENTATION_ITEM ('')
);
#408 = CARTESIAN_POINT('', (-50., 0., 35.));
#409 = CARTESIAN_POINT('', (-50., 50., 35.));
#410 = CARTESIAN_POINT('', (-3.06161699786838E-15, 50., 35.));
#411 = CARTESIAN_POINT('', (50., 50., 35.));
#412 = CARTESIAN_POINT('', (50., 6.12323399573677E-15, 35.));
#413 = CARTESIAN_POINT('', (50., -50., 35.));
#414 = CARTESIAN_POINT('', (9.18485099360515E-15, -50., 35.));
#415 = CARTESIAN_POINT('', (-50., -50., 35.));
#416 = CARTESIAN_POINT('', (-50., 0., 35.));
#417 = (
   BOUNDED_SURFACE ()
   B_SPLINE_SURFACE (2, 1, ((#418, #419), (#420, #421), (#422, #423), (#424, #425), (#426, #427), (#428, #429), (#430, #431), (#432, #433), (#434, #435)), .UNSPECIFIED., .T., .F., .U.)
   B_SPLINE_SURFACE_WITH_KNOTS ((3, 2, 2, 2, 3), (2, 2), (0., 78.5398163397448, 157.07963267949, 235.619449019234, 314.159265358979), (0., 35.), .UNSPECIFIED.)
   GEOMETRIC_REPRESENTATION_ITEM ()
   RATIONAL_B_SPLINE_SURFACE (((1., 1.), (0.707106781186548, 0.707106781186548), (1., 1.), (0.707106781186548, 0.707106781186548), (1., 1.), (0.707106781186548, 0.707106781186548), (1., 1.), (0.707106781186548, 0.707106781186548), (1., 1.)))
   REPRESENTATION_ITEM ('')
   SURFACE ()
);
#418 = CARTESIAN_POINT('', (-50., 4.16518557956694E-30, 0.));
#419 = CARTESIAN_POINT('', (-50., 4.16518557956694E-30, 35.));
#420 = CARTESIAN_POINT('', (-50., 50., 0.));
#421 = CARTESIAN_POINT('', (-50., 50., 35.));
#422 = CARTESIAN_POINT('', (9.35185890782183E-16, 50., 0.));
#423 = CARTESIAN_POINT('', (9.35185890782183E-16, 50., 35.));
#424 = CARTESIAN_POINT('', (50., 50., 0.));
#425 = CARTESIAN_POINT('', (50., 50., 35.));
#426 = CARTESIAN_POINT('', (50., 3.6321300265541E-14, 0.));
#427 = CARTESIAN_POINT('', (50., 3.6321300265541E-14, 35.));
#428 = CARTESIAN_POINT('', (50., -50., 0.));
#429 = CARTESIAN_POINT('', (50., -50., 35.));
#430 = CARTESIAN_POINT('', (4.337972015206E-14, -50., 0.));
#431 = CARTESIAN_POINT('', (4.337972015206E-14, -50., 35.));
#432 = CARTESIAN_POINT('', (-50., -50., 0.));
#433 = CARTESIAN_POINT('', (-50., -50., 35.));
#434 = CARTESIAN_POINT('', (-50., 4.16518557956694E-30, 0.));
#435 = CARTESIAN_POINT('', (-50., 4.16518557956694E-30, 35.));
#436 = ADVANCED_FACE('', (#437), #440, .F.);
#437 = FACE_OUTER_BOUND('', #438, .F.);
#438 = EDGE_LOOP('', (#439));
#439 = ORIENTED_EDGE('', *, *, #393, .F.);
#440 = B_SPLINE_SURFACE_WITH_KNOTS('', 1, 1, ((#441, #442), (#443, #444)), .UNSPECIFIED., .F., .F., .U., (2, 2), (2, 2), (0., 1.), (0., 1.), .UNSPECIFIED.);
#441 = CARTESIAN_POINT('', (-77.7817459305203, -77.7817459305203, 0.));
#442 = CARTESIAN_POINT('', (-77.7817459305203, 77.7817459305203, 0.));
#443 = CARTESIAN_POINT('', (77.7817459305203, -77.7817459305203, 0.));
#444 = CARTESIAN_POINT('', (77.7817459305203, 77.7817459305203, 0.));
#445 = ADVANCED_FACE('', (#446), #449, .F.);
#446 = FACE_OUTER_BOUND('', #447, .F.);
#447 = EDGE_LOOP('', (#448));
#448 = ORIENTED_EDGE('', *, *, #406, .T.);
#449 = B_SPLINE_SURFACE_WITH_KNOTS('', 1, 1, ((#450, #451), (#452, #453)), .UNSPECIFIED., .F., .F., .U., (2, 2), (2, 2), (0., 1.), (0., 1.), .UNSPECIFIED.);
#450 = CARTESIAN_POINT('', (-77.7817459305203, -77.7817459305203, 35.));
#451 = CARTESIAN_POINT('', (77.7817459305203, -77.7817459305203, 35.));
#452 = CARTESIAN_POINT('', (-77.7817459305203, 77.7817459305203, 35.));
#453 = CARTESIAN_POINT('', (77.7817459305203, 77.7817459305203, 35.));
#454 = PRESENTATION_STYLE_ASSIGNMENT((#455));
#455 = SURFACE_STYLE_USAGE(.POSITIVE., #456);
#456 = SURFACE_SIDE_STYLE('', (#457));
#457 = SURFACE_STYLE_FILL_AREA(#458);
#458 = FILL_AREA_STYLE('', (#459));
#459 = FILL_AREA_STYLE_COLOUR('', #460);
#460 = COLOUR_RGB('', 0.50196078431373, 0.50196078431373, 0.50196078431373);
#461 = STYLED_ITEM('', (#454), #378);
#462 = CARTESIAN_POINT('Origin', (0., 0., 0.));
#463 = GEOMETRIC_SET('', (#462));
#464 = AXIS2_PLACEMENT_3D('WCS1', #465, #466, #467);
#465 = CARTESIAN_POINT('', (0., 0., 0.));
#466 = DIRECTION('', (0., 0., 1.));
#467 = DIRECTION('', (1., 0., 0.));
#468 = AXIS2_PLACEMENT_3D('WCS2', #469, #470, #471);
#469 = CARTESIAN_POINT('', (0., 0., 0.));
#470 = DIRECTION('', (0., 0., 1.));
#471 = DIRECTION('', (1., 0., 0.));
#472 = (
   GEOMETRIC_REPRESENTATION_CONTEXT (3)
   GLOBAL_UNCERTAINTY_ASSIGNED_CONTEXT ((#474))
   GLOBAL_UNIT_ASSIGNED_CONTEXT ((#473, #475, #476))
   REPRESENTATION_CONTEXT ('', '3D')
);
#473 = (
   LENGTH_UNIT ()
   NAMED_UNIT (*)
   SI_UNIT (.MILLI., .METRE.)
);
#474 = UNCERTAINTY_MEASURE_WITH_UNIT(LENGTH_MEASURE(1.E-6), #473, 'DISTANCE_ACCURACY_VALUE', '');
#475 = (
   NAMED_UNIT (*)
   SI_UNIT ($, .STERADIAN.)
   SOLID_ANGLE_UNIT ()
);
#476 = (
   NAMED_UNIT (*)
   PLANE_ANGLE_UNIT ()
   SI_UNIT ($, .RADIAN.)
);
#477 = SHAPE_REPRESENTATION('', (#494), #472);
#478 = PRODUCT_DEFINITION_SHAPE('', '', #479);
#479 = PRODUCT_DEFINITION('', '', #482, #486);
#480 = APPLICATION_CONTEXT('configuration controlled 3D designs of mechanical parts and assemblies');
#481 = APPLICATION_PROTOCOL_DEFINITION('International Standard', 'automotive_design', 2002, #480);
#482 = PRODUCT_DEFINITION_FORMATION_WITH_SPECIFIED_SOURCE('', '', #483, .NOT_KNOWN.);
#483 = PRODUCT('UpdateTargets', 'UpdateTargets', '', (#484));
#484 = PRODUCT_CONTEXT('', #480, 'mechanical');
#485 = PRODUCT_RELATED_PRODUCT_CATEGORY('detail', '', (#483));
#486 = PRODUCT_DEFINITION_CONTEXT('part definition', #480, 'design');
#487 = SHAPE_DEFINITION_REPRESENTATION(#478, #477);
#488 = CONSTRUCTIVE_GEOMETRY_REPRESENTATION('supplemental geometry', (#464, #468), #472);
#489 = CONSTRUCTIVE_GEOMETRY_REPRESENTATION_RELATIONSHIP('', '', #477, #488);
#490 = SHAPE_REPRESENTATION_RELATIONSHIP('', '', #477, #491);
#491 = SHAPE_REPRESENTATION('', (#463), #472);
#492 = SHAPE_REPRESENTATION_RELATIONSHIP('', '', #477, #493);
#493 = ADVANCED_BREP_SHAPE_REPRESENTATION('', (#1, #148, #294, #378), #472);
#494 = AXIS2_PLACEMENT_3D('', #495, #496, #497);
#495 = CARTESIAN_POINT('', (0., 0., 0.));
#496 = DIRECTION('', (0., 0., 1.));
#497 = DIRECTION('', (1., 0., 0.));
ENDSEC;
END-ISO-10303-21;
