ISO-10303-21;
HEADER;
FILE_DESCRIPTION(('STEP'), '1');
FILE_NAME('PicatinnyRail', '2026-03-20T18:16:24', (''), (''), 'Express 3.1.2.0', 'Express Tool', 'Unknown');
FILE_SCHEMA(('AUTOMOTIVE_DESIGN'));
ENDSEC;

DATA;
#1 = MANIFOLD_SOLID_BREP('RailBody_0', #2);
#2 = CLOSED_SHELL('', (#3, #67, #131, #151, #167, #183, #199, #215, #231, #247));
#3 = ADVANCED_FACE('', (#4), #62, .T.);
#4 = FACE_OUTER_BOUND('', #5, .T.);
#5 = EDGE_LOOP('', (#6, #15, #22, #29, #36, #43, #50, #57));
#6 = ORIENTED_EDGE('', *, *, #7, .T.);
#7 = EDGE_CURVE('', #8, #10, #12, .T.);
#8 = VERTEX_POINT('', #9);
#9 = CARTESIAN_POINT('', (-7.835, 5., 100.));
#10 = VERTEX_POINT('', #11);
#11 = CARTESIAN_POINT('', (-7.835, 0., 100.));
#12 = B_SPLINE_CURVE_WITH_KNOTS('', 1, (#13, #14), .UNSPECIFIED., .F., .U., (2, 2), (0., 1.), .UNSPECIFIED.);
#13 = CARTESIAN_POINT('', (-7.835, 5., 100.));
#14 = CARTESIAN_POINT('', (-7.835, 0., 100.));
#15 = ORIENTED_EDGE('', *, *, #16, .T.);
#16 = EDGE_CURVE('', #10, #17, #19, .T.);
#17 = VERTEX_POINT('', #18);
#18 = CARTESIAN_POINT('', (7.835, 0., 100.));
#19 = B_SPLINE_CURVE_WITH_KNOTS('', 1, (#20, #21), .UNSPECIFIED., .F., .U., (2, 2), (0., 1.), .UNSPECIFIED.);
#20 = CARTESIAN_POINT('', (-7.835, 0., 100.));
#21 = CARTESIAN_POINT('', (7.835, 0., 100.));
#22 = ORIENTED_EDGE('', *, *, #23, .T.);
#23 = EDGE_CURVE('', #17, #24, #26, .T.);
#24 = VERTEX_POINT('', #25);
#25 = CARTESIAN_POINT('', (7.835, 5., 100.));
#26 = B_SPLINE_CURVE_WITH_KNOTS('', 1, (#27, #28), .UNSPECIFIED., .F., .U., (2, 2), (0., 1.), .UNSPECIFIED.);
#27 = CARTESIAN_POINT('', (7.835, 0., 100.));
#28 = CARTESIAN_POINT('', (7.835, 5., 100.));
#29 = ORIENTED_EDGE('', *, *, #30, .T.);
#30 = EDGE_CURVE('', #24, #31, #33, .T.);
#31 = VERTEX_POINT('', #32);
#32 = CARTESIAN_POINT('', (10.605, 7.77, 100.));
#33 = B_SPLINE_CURVE_WITH_KNOTS('', 1, (#34, #35), .UNSPECIFIED., .F., .U., (2, 2), (0., 1.), .UNSPECIFIED.);
#34 = CARTESIAN_POINT('', (7.835, 5., 100.));
#35 = CARTESIAN_POINT('', (10.605, 7.77, 100.));
#36 = ORIENTED_EDGE('', *, *, #37, .T.);
#37 = EDGE_CURVE('', #31, #38, #40, .T.);
#38 = VERTEX_POINT('', #39);
#39 = CARTESIAN_POINT('', (10.605, 9.16, 100.));
#40 = B_SPLINE_CURVE_WITH_KNOTS('', 1, (#41, #42), .UNSPECIFIED., .F., .U., (2, 2), (0., 1.), .UNSPECIFIED.);
#41 = CARTESIAN_POINT('', (10.605, 7.77, 100.));
#42 = CARTESIAN_POINT('', (10.605, 9.16, 100.));
#43 = ORIENTED_EDGE('', *, *, #44, .T.);
#44 = EDGE_CURVE('', #38, #45, #47, .T.);
#45 = VERTEX_POINT('', #46);
#46 = CARTESIAN_POINT('', (-10.605, 9.16, 100.));
#47 = B_SPLINE_CURVE_WITH_KNOTS('', 1, (#48, #49), .UNSPECIFIED., .F., .U., (2, 2), (0., 1.), .UNSPECIFIED.);
#48 = CARTESIAN_POINT('', (10.605, 9.16, 100.));
#49 = CARTESIAN_POINT('', (-10.605, 9.16, 100.));
#50 = ORIENTED_EDGE('', *, *, #51, .T.);
#51 = EDGE_CURVE('', #45, #52, #54, .T.);
#52 = VERTEX_POINT('', #53);
#53 = CARTESIAN_POINT('', (-10.605, 7.77, 100.));
#54 = B_SPLINE_CURVE_WITH_KNOTS('', 1, (#55, #56), .UNSPECIFIED., .F., .U., (2, 2), (0., 1.), .UNSPECIFIED.);
#55 = CARTESIAN_POINT('', (-10.605, 9.16, 100.));
#56 = CARTESIAN_POINT('', (-10.605, 7.77, 100.));
#57 = ORIENTED_EDGE('', *, *, #58, .T.);
#58 = EDGE_CURVE('', #52, #8, #59, .T.);
#59 = B_SPLINE_CURVE_WITH_KNOTS('', 1, (#60, #61), .UNSPECIFIED., .F., .U., (2, 2), (0., 1.), .UNSPECIFIED.);
#60 = CARTESIAN_POINT('', (-10.605, 7.77, 100.));
#61 = CARTESIAN_POINT('', (-7.835, 5., 100.));
#62 = B_SPLINE_SURFACE_WITH_KNOTS('', 1, 1, ((#63, #64), (#65, #66)), .UNSPECIFIED., .F., .F., .U., (2, 2), (2, 2), (0., 1.), (0., 1.), .UNSPECIFIED.);
#63 = CARTESIAN_POINT('', (12.7069010482493, -8.12690104824934, 100.));
#64 = CARTESIAN_POINT('', (-12.7069010482493, -8.12690104824934, 100.));
#65 = CARTESIAN_POINT('', (12.7069010482493, 17.2869010482493, 100.));
#66 = CARTESIAN_POINT('', (-12.7069010482493, 17.2869010482493, 100.));
#67 = ADVANCED_FACE('', (#68), #126, .T.);
#68 = FACE_OUTER_BOUND('', #69, .T.);
#69 = EDGE_LOOP('', (#70, #79, #86, #93, #100, #107, #114, #121));
#70 = ORIENTED_EDGE('', *, *, #71, .F.);
#71 = EDGE_CURVE('', #72, #74, #76, .T.);
#72 = VERTEX_POINT('', #73);
#73 = CARTESIAN_POINT('', (-7.835, 5., 0.));
#74 = VERTEX_POINT('', #75);
#75 = CARTESIAN_POINT('', (-7.835, 0., 0.));
#76 = B_SPLINE_CURVE_WITH_KNOTS('', 1, (#77, #78), .UNSPECIFIED., .F., .U., (2, 2), (0., 1.), .UNSPECIFIED.);
#77 = CARTESIAN_POINT('', (-7.835, 5., 0.));
#78 = CARTESIAN_POINT('', (-7.835, 0., 0.));
#79 = ORIENTED_EDGE('', *, *, #80, .F.);
#80 = EDGE_CURVE('', #81, #72, #83, .T.);
#81 = VERTEX_POINT('', #82);
#82 = CARTESIAN_POINT('', (-10.605, 7.77, 0.));
#83 = B_SPLINE_CURVE_WITH_KNOTS('', 1, (#84, #85), .UNSPECIFIED., .F., .U., (2, 2), (0., 1.), .UNSPECIFIED.);
#84 = CARTESIAN_POINT('', (-10.605, 7.77, 0.));
#85 = CARTESIAN_POINT('', (-7.835, 5., 0.));
#86 = ORIENTED_EDGE('', *, *, #87, .F.);
#87 = EDGE_CURVE('', #88, #81, #90, .T.);
#88 = VERTEX_POINT('', #89);
#89 = CARTESIAN_POINT('', (-10.605, 9.16, 0.));
#90 = B_SPLINE_CURVE_WITH_KNOTS('', 1, (#91, #92), .UNSPECIFIED., .F., .U., (2, 2), (0., 1.), .UNSPECIFIED.);
#91 = CARTESIAN_POINT('', (-10.605, 9.16, 0.));
#92 = CARTESIAN_POINT('', (-10.605, 7.77, 0.));
#93 = ORIENTED_EDGE('', *, *, #94, .F.);
#94 = EDGE_CURVE('', #95, #88, #97, .T.);
#95 = VERTEX_POINT('', #96);
#96 = CARTESIAN_POINT('', (10.605, 9.16, 0.));
#97 = B_SPLINE_CURVE_WITH_KNOTS('', 1, (#98, #99), .UNSPECIFIED., .F., .U., (2, 2), (0., 1.), .UNSPECIFIED.);
#98 = CARTESIAN_POINT('', (10.605, 9.16, 0.));
#99 = CARTESIAN_POINT('', (-10.605, 9.16, 0.));
#100 = ORIENTED_EDGE('', *, *, #101, .F.);
#101 = EDGE_CURVE('', #102, #95, #104, .T.);
#102 = VERTEX_POINT('', #103);
#103 = CARTESIAN_POINT('', (10.605, 7.77, 0.));
#104 = B_SPLINE_CURVE_WITH_KNOTS('', 1, (#105, #106), .UNSPECIFIED., .F., .U., (2, 2), (0., 1.), .UNSPECIFIED.);
#105 = CARTESIAN_POINT('', (10.605, 7.77, 0.));
#106 = CARTESIAN_POINT('', (10.605, 9.16, 0.));
#107 = ORIENTED_EDGE('', *, *, #108, .F.);
#108 = EDGE_CURVE('', #109, #102, #111, .T.);
#109 = VERTEX_POINT('', #110);
#110 = CARTESIAN_POINT('', (7.835, 5., 0.));
#111 = B_SPLINE_CURVE_WITH_KNOTS('', 1, (#112, #113), .UNSPECIFIED., .F., .U., (2, 2), (0., 1.), .UNSPECIFIED.);
#112 = CARTESIAN_POINT('', (7.835, 5., 0.));
#113 = CARTESIAN_POINT('', (10.605, 7.77, 0.));
#114 = ORIENTED_EDGE('', *, *, #115, .F.);
#115 = EDGE_CURVE('', #116, #109, #118, .T.);
#116 = VERTEX_POINT('', #117);
#117 = CARTESIAN_POINT('', (7.835, 0., 0.));
#118 = B_SPLINE_CURVE_WITH_KNOTS('', 1, (#119, #120), .UNSPECIFIED., .F., .U., (2, 2), (0., 1.), .UNSPECIFIED.);
#119 = CARTESIAN_POINT('', (7.835, 0., 0.));
#120 = CARTESIAN_POINT('', (7.835, 5., 0.));
#121 = ORIENTED_EDGE('', *, *, #122, .F.);
#122 = EDGE_CURVE('', #74, #116, #123, .T.);
#123 = B_SPLINE_CURVE_WITH_KNOTS('', 1, (#124, #125), .UNSPECIFIED., .F., .U., (2, 2), (0., 1.), .UNSPECIFIED.);
#124 = CARTESIAN_POINT('', (-7.835, 0., 0.));
#125 = CARTESIAN_POINT('', (7.835, 0., 0.));
#126 = B_SPLINE_SURFACE_WITH_KNOTS('', 1, 1, ((#127, #128), (#129, #130)), .UNSPECIFIED., .F., .F., .U., (2, 2), (2, 2), (0., 1.), (0., 1.), .UNSPECIFIED.);
#127 = CARTESIAN_POINT('', (12.7069010482493, -8.12690104824934, 0.));
#128 = CARTESIAN_POINT('', (12.7069010482493, 17.2869010482493, 0.));
#129 = CARTESIAN_POINT('', (-12.7069010482493, -8.12690104824934, 0.));
#130 = CARTESIAN_POINT('', (-12.7069010482493, 17.2869010482493, 0.));
#131 = ADVANCED_FACE('', (#132), #146, .T.);
#132 = FACE_OUTER_BOUND('', #133, .T.);
#133 = EDGE_LOOP('', (#134, #139, #140, #145));
#134 = ORIENTED_EDGE('', *, *, #135, .F.);
#135 = EDGE_CURVE('', #72, #8, #136, .T.);
#136 = B_SPLINE_CURVE_WITH_KNOTS('', 1, (#137, #138), .UNSPECIFIED., .F., .U., (2, 2), (0., 1.), .UNSPECIFIED.);
#137 = CARTESIAN_POINT('', (-7.835, 5., 0.));
#138 = CARTESIAN_POINT('', (-7.835, 5., 100.));
#139 = ORIENTED_EDGE('', *, *, #71, .T.);
#140 = ORIENTED_EDGE('', *, *, #141, .T.);
#141 = EDGE_CURVE('', #74, #10, #142, .T.);
#142 = B_SPLINE_CURVE_WITH_KNOTS('', 1, (#143, #144), .UNSPECIFIED., .F., .U., (2, 2), (0., 1.), .UNSPECIFIED.);
#143 = CARTESIAN_POINT('', (-7.835, 0., 0.));
#144 = CARTESIAN_POINT('', (-7.835, 0., 100.));
#145 = ORIENTED_EDGE('', *, *, #7, .F.);
#146 = B_SPLINE_SURFACE_WITH_KNOTS('', 1, 1, ((#147, #148), (#149, #150)), .UNSPECIFIED., .F., .F., .U., (2, 2), (2, 2), (0., 1.), (0., 1.), .UNSPECIFIED.);
#147 = CARTESIAN_POINT('', (-7.835, 5., 0.));
#148 = CARTESIAN_POINT('', (-7.835, 5., 100.));
#149 = CARTESIAN_POINT('', (-7.835, 0., 0.));
#150 = CARTESIAN_POINT('', (-7.835, 0., 100.));
#151 = ADVANCED_FACE('', (#152), #162, .T.);
#152 = FACE_OUTER_BOUND('', #153, .T.);
#153 = EDGE_LOOP('', (#154, #155, #156, #161));
#154 = ORIENTED_EDGE('', *, *, #141, .F.);
#155 = ORIENTED_EDGE('', *, *, #122, .T.);
#156 = ORIENTED_EDGE('', *, *, #157, .T.);
#157 = EDGE_CURVE('', #116, #17, #158, .T.);
#158 = B_SPLINE_CURVE_WITH_KNOTS('', 1, (#159, #160), .UNSPECIFIED., .F., .U., (2, 2), (0., 1.), .UNSPECIFIED.);
#159 = CARTESIAN_POINT('', (7.835, 0., 0.));
#160 = CARTESIAN_POINT('', (7.835, 0., 100.));
#161 = ORIENTED_EDGE('', *, *, #16, .F.);
#162 = B_SPLINE_SURFACE_WITH_KNOTS('', 1, 1, ((#163, #164), (#165, #166)), .UNSPECIFIED., .F., .F., .U., (2, 2), (2, 2), (0., 1.), (0., 1.), .UNSPECIFIED.);
#163 = CARTESIAN_POINT('', (-7.835, 0., 0.));
#164 = CARTESIAN_POINT('', (-7.835, 0., 100.));
#165 = CARTESIAN_POINT('', (7.835, 0., 0.));
#166 = CARTESIAN_POINT('', (7.835, 0., 100.));
#167 = ADVANCED_FACE('', (#168), #178, .T.);
#168 = FACE_OUTER_BOUND('', #169, .T.);
#169 = EDGE_LOOP('', (#170, #175, #176, #177));
#170 = ORIENTED_EDGE('', *, *, #171, .F.);
#171 = EDGE_CURVE('', #81, #52, #172, .T.);
#172 = B_SPLINE_CURVE_WITH_KNOTS('', 1, (#173, #174), .UNSPECIFIED., .F., .U., (2, 2), (0., 1.), .UNSPECIFIED.);
#173 = CARTESIAN_POINT('', (-10.605, 7.77, 0.));
#174 = CARTESIAN_POINT('', (-10.605, 7.77, 100.));
#175 = ORIENTED_EDGE('', *, *, #80, .T.);
#176 = ORIENTED_EDGE('', *, *, #135, .T.);
#177 = ORIENTED_EDGE('', *, *, #58, .F.);
#178 = B_SPLINE_SURFACE_WITH_KNOTS('', 1, 1, ((#179, #180), (#181, #182)), .UNSPECIFIED., .F., .F., .U., (2, 2), (2, 2), (0., 1.), (0., 1.), .UNSPECIFIED.);
#179 = CARTESIAN_POINT('', (-10.605, 7.77, 0.));
#180 = CARTESIAN_POINT('', (-10.605, 7.77, 100.));
#181 = CARTESIAN_POINT('', (-7.835, 5., 0.));
#182 = CARTESIAN_POINT('', (-7.835, 5., 100.));
#183 = ADVANCED_FACE('', (#184), #194, .T.);
#184 = FACE_OUTER_BOUND('', #185, .T.);
#185 = EDGE_LOOP('', (#186, #191, #192, #193));
#186 = ORIENTED_EDGE('', *, *, #187, .F.);
#187 = EDGE_CURVE('', #88, #45, #188, .T.);
#188 = B_SPLINE_CURVE_WITH_KNOTS('', 1, (#189, #190), .UNSPECIFIED., .F., .U., (2, 2), (0., 1.), .UNSPECIFIED.);
#189 = CARTESIAN_POINT('', (-10.605, 9.16, 0.));
#190 = CARTESIAN_POINT('', (-10.605, 9.16, 100.));
#191 = ORIENTED_EDGE('', *, *, #87, .T.);
#192 = ORIENTED_EDGE('', *, *, #171, .T.);
#193 = ORIENTED_EDGE('', *, *, #51, .F.);
#194 = B_SPLINE_SURFACE_WITH_KNOTS('', 1, 1, ((#195, #196), (#197, #198)), .UNSPECIFIED., .F., .F., .U., (2, 2), (2, 2), (0., 1.), (0., 1.), .UNSPECIFIED.);
#195 = CARTESIAN_POINT('', (-10.605, 9.16, 0.));
#196 = CARTESIAN_POINT('', (-10.605, 9.16, 100.));
#197 = CARTESIAN_POINT('', (-10.605, 7.77, 0.));
#198 = CARTESIAN_POINT('', (-10.605, 7.77, 100.));
#199 = ADVANCED_FACE('', (#200), #210, .T.);
#200 = FACE_OUTER_BOUND('', #201, .T.);
#201 = EDGE_LOOP('', (#202, #207, #208, #209));
#202 = ORIENTED_EDGE('', *, *, #203, .F.);
#203 = EDGE_CURVE('', #95, #38, #204, .T.);
#204 = B_SPLINE_CURVE_WITH_KNOTS('', 1, (#205, #206), .UNSPECIFIED., .F., .U., (2, 2), (0., 1.), .UNSPECIFIED.);
#205 = CARTESIAN_POINT('', (10.605, 9.16, 0.));
#206 = CARTESIAN_POINT('', (10.605, 9.16, 100.));
#207 = ORIENTED_EDGE('', *, *, #94, .T.);
#208 = ORIENTED_EDGE('', *, *, #187, .T.);
#209 = ORIENTED_EDGE('', *, *, #44, .F.);
#210 = B_SPLINE_SURFACE_WITH_KNOTS('', 1, 1, ((#211, #212), (#213, #214)), .UNSPECIFIED., .F., .F., .U., (2, 2), (2, 2), (0., 1.), (0., 1.), .UNSPECIFIED.);
#211 = CARTESIAN_POINT('', (10.605, 9.16, 0.));
#212 = CARTESIAN_POINT('', (10.605, 9.16, 100.));
#213 = CARTESIAN_POINT('', (-10.605, 9.16, 0.));
#214 = CARTESIAN_POINT('', (-10.605, 9.16, 100.));
#215 = ADVANCED_FACE('', (#216), #226, .T.);
#216 = FACE_OUTER_BOUND('', #217, .T.);
#217 = EDGE_LOOP('', (#218, #219, #220, #225));
#218 = ORIENTED_EDGE('', *, *, #157, .F.);
#219 = ORIENTED_EDGE('', *, *, #115, .T.);
#220 = ORIENTED_EDGE('', *, *, #221, .T.);
#221 = EDGE_CURVE('', #109, #24, #222, .T.);
#222 = B_SPLINE_CURVE_WITH_KNOTS('', 1, (#223, #224), .UNSPECIFIED., .F., .U., (2, 2), (0., 1.), .UNSPECIFIED.);
#223 = CARTESIAN_POINT('', (7.835, 5., 0.));
#224 = CARTESIAN_POINT('', (7.835, 5., 100.));
#225 = ORIENTED_EDGE('', *, *, #23, .F.);
#226 = B_SPLINE_SURFACE_WITH_KNOTS('', 1, 1, ((#227, #228), (#229, #230)), .UNSPECIFIED., .F., .F., .U., (2, 2), (2, 2), (0., 1.), (0., 1.), .UNSPECIFIED.);
#227 = CARTESIAN_POINT('', (7.835, 0., 0.));
#228 = CARTESIAN_POINT('', (7.835, 0., 100.));
#229 = CARTESIAN_POINT('', (7.835, 5., 0.));
#230 = CARTESIAN_POINT('', (7.835, 5., 100.));
#231 = ADVANCED_FACE('', (#232), #242, .T.);
#232 = FACE_OUTER_BOUND('', #233, .T.);
#233 = EDGE_LOOP('', (#234, #235, #236, #241));
#234 = ORIENTED_EDGE('', *, *, #221, .F.);
#235 = ORIENTED_EDGE('', *, *, #108, .T.);
#236 = ORIENTED_EDGE('', *, *, #237, .T.);
#237 = EDGE_CURVE('', #102, #31, #238, .T.);
#238 = B_SPLINE_CURVE_WITH_KNOTS('', 1, (#239, #240), .UNSPECIFIED., .F., .U., (2, 2), (0., 1.), .UNSPECIFIED.);
#239 = CARTESIAN_POINT('', (10.605, 7.77, 0.));
#240 = CARTESIAN_POINT('', (10.605, 7.77, 100.));
#241 = ORIENTED_EDGE('', *, *, #30, .F.);
#242 = B_SPLINE_SURFACE_WITH_KNOTS('', 1, 1, ((#243, #244), (#245, #246)), .UNSPECIFIED., .F., .F., .U., (2, 2), (2, 2), (0., 1.), (0., 1.), .UNSPECIFIED.);
#243 = CARTESIAN_POINT('', (7.835, 5., 0.));
#244 = CARTESIAN_POINT('', (7.835, 5., 100.));
#245 = CARTESIAN_POINT('', (10.605, 7.77, 0.));
#246 = CARTESIAN_POINT('', (10.605, 7.77, 100.));
#247 = ADVANCED_FACE('', (#248), #254, .T.);
#248 = FACE_OUTER_BOUND('', #249, .T.);
#249 = EDGE_LOOP('', (#250, #251, #252, #253));
#250 = ORIENTED_EDGE('', *, *, #237, .F.);
#251 = ORIENTED_EDGE('', *, *, #101, .T.);
#252 = ORIENTED_EDGE('', *, *, #203, .T.);
#253 = ORIENTED_EDGE('', *, *, #37, .F.);
#254 = B_SPLINE_SURFACE_WITH_KNOTS('', 1, 1, ((#255, #256), (#257, #258)), .UNSPECIFIED., .F., .F., .U., (2, 2), (2, 2), (0., 1.), (0., 1.), .UNSPECIFIED.);
#255 = CARTESIAN_POINT('', (10.605, 7.77, 0.));
#256 = CARTESIAN_POINT('', (10.605, 7.77, 100.));
#257 = CARTESIAN_POINT('', (10.605, 9.16, 0.));
#258 = CARTESIAN_POINT('', (10.605, 9.16, 100.));
#259 = DRAUGHTING_MODEL('', (#267), #270);
#260 = PRESENTATION_STYLE_ASSIGNMENT((#261));
#261 = SURFACE_STYLE_USAGE(.POSITIVE., #262);
#262 = SURFACE_SIDE_STYLE('', (#263));
#263 = SURFACE_STYLE_FILL_AREA(#264);
#264 = FILL_AREA_STYLE('', (#265));
#265 = FILL_AREA_STYLE_COLOUR('', #266);
#266 = COLOUR_RGB('', 0.50196078431373, 0.50196078431373, 0.50196078431373);
#267 = STYLED_ITEM('', (#260), #1);
#268 = CARTESIAN_POINT('Origin', (0., 0., 0.));
#269 = GEOMETRIC_SET('', (#268));
#270 = (
   GEOMETRIC_REPRESENTATION_CONTEXT (3)
   GLOBAL_UNCERTAINTY_ASSIGNED_CONTEXT ((#272))
   GLOBAL_UNIT_ASSIGNED_CONTEXT ((#271, #273, #274))
   REPRESENTATION_CONTEXT ('', '3D')
);
#271 = (
   LENGTH_UNIT ()
   NAMED_UNIT (*)
   SI_UNIT (.MILLI., .METRE.)
);
#272 = UNCERTAINTY_MEASURE_WITH_UNIT(LENGTH_MEASURE(1.E-6), #271, 'DISTANCE_ACCURACY_VALUE', '');
#273 = (
   NAMED_UNIT (*)
   SI_UNIT ($, .STERADIAN.)
   SOLID_ANGLE_UNIT ()
);
#274 = (
   NAMED_UNIT (*)
   PLANE_ANGLE_UNIT ()
   SI_UNIT ($, .RADIAN.)
);
#275 = SHAPE_REPRESENTATION('', (#290), #270);
#276 = PRODUCT_DEFINITION_SHAPE('', '', #277);
#277 = PRODUCT_DEFINITION('', '', #280, #284);
#278 = APPLICATION_CONTEXT('configuration controlled 3D designs of mechanical parts and assemblies');
#279 = APPLICATION_PROTOCOL_DEFINITION('International Standard', 'automotive_design', 2002, #278);
#280 = PRODUCT_DEFINITION_FORMATION_WITH_SPECIFIED_SOURCE('', '', #281, .NOT_KNOWN.);
#281 = PRODUCT('PicatinnyRail', 'PicatinnyRail', '', (#282));
#282 = PRODUCT_CONTEXT('', #278, 'mechanical');
#283 = PRODUCT_RELATED_PRODUCT_CATEGORY('detail', '', (#281));
#284 = PRODUCT_DEFINITION_CONTEXT('part definition', #278, 'design');
#285 = SHAPE_DEFINITION_REPRESENTATION(#276, #275);
#286 = SHAPE_REPRESENTATION_RELATIONSHIP('', '', #275, #287);
#287 = SHAPE_REPRESENTATION('', (#269), #270);
#288 = SHAPE_REPRESENTATION_RELATIONSHIP('', '', #275, #289);
#289 = ADVANCED_BREP_SHAPE_REPRESENTATION('', (#1), #270);
#290 = AXIS2_PLACEMENT_3D('', #291, #292, #293);
#291 = CARTESIAN_POINT('', (0., 0., 0.));
#292 = DIRECTION('', (0., 0., 1.));
#293 = DIRECTION('', (1., 0., 0.));
ENDSEC;
END-ISO-10303-21;
