ISO-10303-21;
HEADER;
FILE_DESCRIPTION(('STEP'), '1');
FILE_NAME('PicatinnyRail', '2026-03-20T18:16:24', (''), (''), 'Express 3.1.2.0', 'Express Tool', 'Unknown');
FILE_SCHEMA(('AUTOMOTIVE_DESIGN'));
ENDSEC;

DATA;
#1 = MANIFOLD_SOLID_BREP('RailBody_0', #2);
#2 = CLOSED_SHELL('', (#3, #67, #131, #151, #167, #183, #199, #215, #231, #247));
#3 = ADVANCED_FACE('', (#4), #62, .T.);
#4 = FACE_OUTER_BOUND('', #5, .T.);
#5 = EDGE_LOOP('', (#6, #15, #22, #29, #36, #43, #50, #57));
#6 = ORIENTED_EDGE('', *, *, #7, .T.);
#7 = EDGE_CURVE('', #8, #10, #12, .T.);
#8 = VERTEX_POINT('', #9);
#9 = CARTESIAN_POINT('', (-7.835, 5., 100.));
#10 = VERTEX_POINT('', #11);
#11 = CARTESIAN_POINT('', (-7.835, 0., 100.));
#12 = B_SPLINE_CURVE_WITH_KNOTS('', 1, (#13, #14), .UNSPECIFIED., .F., .U., (2, 2), (0., 1.), .UNSPECIFIED.);
#13 = CARTESIAN_POINT('', (-7.835, 5., 100.));
#14 = CARTESIAN_POINT('', (-7.835, 0., 100.));
#15 = ORIENTED_EDGE('', *, *, #16, .T.);
#16 = EDGE_CURVE('', #10, #17, #19, .T.);
#17 = VERTEX_POINT('', #18);
#18 = CARTESIAN_POINT('', (7.835, 0., 100.));
#19 = B_SPLINE_CURVE_WITH_KNOTS('', 1, (#20, #21), .UNSPECIFIED., .F., .U., (2, 2), (0., 1.), .UNSPECIFIED.);
#20 = CARTESIAN_POINT('', (-7.835, 0., 100.));
#21 = CARTESIAN_POINT('', (7.835, 0., 100.));
#22 = ORIENTED_EDGE('', *, *, #23, .T.);
#23 = EDGE_CURVE('', #17, #24, #26, .T.);
#24 = VERTEX_POINT('', #25);
#25 = CARTESIAN_POINT('', (7.835, 5., 100.));
#26 = B_SPLINE_CURVE_WITH_KNOTS('', 1, (#27, #28), .UNSPECIFIED., .F., .U., (2, 2), (0., 1.), .UNSPECIFIED.);
#27 = CARTESIAN_POINT('', (7.835, 0., 100.));
#28 = CARTESIAN_POINT('', (7.835, 5., 100.));
#29 = ORIENTED_EDGE('', *, *, #30, .T.);
#30 = EDGE_CURVE('', #24, #31, #33, .T.);
#31 = VERTEX_POINT('', #32);
#32 = CARTESIAN_POINT('', (10.605, 7.77, 100.));
#33 = B_SPLINE_CURVE_WITH_KNOTS('', 1, (#34, #35), .UNSPECIFIED., .F., .U., (2, 2), (0., 1.), .UNSPECIFIED.);
#34 = CARTESIAN_POINT('', (7.835, 5., 100.));
#35 = CARTESIAN_POINT('', (10.605, 7.77, 100.));
#36 = ORIENTED_EDGE('', *, *, #37, .T.);
#37 = EDGE_CURVE('', #31, #38, #40, .T.);
#38 = VERTEX_POINT('', #39);
#39 = CARTESIAN_POINT('', (10.605, 9.16, 100.));
#40 = B_SPLINE_CURVE_WITH_KNOTS('', 1, (#41, #42), .UNSPECIFIED., .F., .U., (2, 2), (0., 1.), .UNSPECIFIED.);
#41 = CARTESIAN_POINT('', (10.605, 7.77, 100.));
#42 = CARTESIAN_POINT('', (10.605, 9.16, 100.));
#43 = ORIENTED_EDGE('', *, *, #44, .T.);
#44 = EDGE_CURVE('', #38, #45, #47, .T.);
#45 = VERTEX_POINT('', #46);
#46 = CARTESIAN_POINT('', (-10.605, 9.16, 100.));
#47 = B_SPLINE_CURVE_WITH_KNOTS('', 1, (#48, #49), .UNSPECIFIED., .F., .U., (2, 2), (0., 1.), .UNSPECIFIED.);
#48 = CARTESIAN_POINT('', (10.605, 9.16, 100.));
#49 = CARTESIAN_POINT('', (-10.605, 9.16, 100.));
#50 = ORIENTED_EDGE('', *, *, #51, .T.);
#51 = EDGE_CURVE('', #45, #52, #54, .T.);
#52 = VERTEX_POINT('', #53);
#53 = CARTESIAN_POINT('', (-10.605, 7.77, 100.));
#54 = B_SPLINE_CURVE_WITH_KNOTS('', 1, (#55, #56), .UNSPECIFIED., .F., .U., (2, 2), (0., 1.), .UNSPECIFIED.);
#55 = CARTESIAN_POINT('', (-10.605, 9.16, 100.));
#56 = CARTESIAN_POINT('', (-10.605, 7.77, 100.));
#57 = ORIENTED_EDGE('', *, *, #58, .T.);
#58 = EDGE_CURVE('', #52, #8, #59, .T.);
#59 = B_SPLINE_CURVE_WITH_KNOTS('', 1, (#60, #61), .UNSPECIFIED., .F., .U., (2, 2), (0., 1.), .UNSPECIFIED.);
#60 = CARTESIAN_POINT('', (-10.605, 7.77, 100.));
#61 = CARTESIAN_POINT('', (-7.835, 5., 100.));
#62 = B_SPLINE_SURFACE_WITH_KNOTS('', 1, 1, ((#63, #64), (#65, #66)), .UNSPECIFIED., .F., .F., .U., (2, 2), (2, 2), (0., 1.), (0., 1.), .UNSPECIFIED.);
#63 = CARTESIAN_POINT('', (12.7069010482493, -8.12690104824934, 100.));
#64 = CARTESIAN_POINT('', (-12.7069010482493, -8.12690104824934, 100.));
#65 = CARTESIAN_POINT('', (12.7069010482493, 17.2869010482493, 100.));
#66 = CARTESIAN_POINT('', (-12.7069010482493, 17.2869010482493, 100.));
#67 = ADVANCED_FACE('', (#68), #126, .T.);
#68 = FACE_OUTER_BOUND('', #69, .T.);
#69 = EDGE_LOOP('', (#70, #79, #86, #93, #100, #107, #114, #121));
#70 = ORIENTED_EDGE('', *, *, #71, .F.);
#71 = EDGE_CURVE('', #72, #74, #76, .T.);
#72 = VERTEX_POINT('', #73);
#73 = CARTESIAN_POINT('', (-7.835, 5., 0.));
#74 = VERTEX_POINT('', #75);
#75 = CARTESIAN_POINT('', (-7.835, 0., 0.));
#76 = B_SPLINE_CURVE_WITH_KNOTS('', 1, (#77, #78), .UNSPECIFIED., .F., .U., (2, 2), (0., 1.), .UNSPECIFIED.);
#77 = CARTESIAN_POINT('', (-7.835, 5., 0.));
#78 = CARTESIAN_POINT('', (-7.835, 0., 0.));
#79 = ORIENTED_EDGE('', *, *, #80, .F.);
#80 = EDGE_CURVE('', #81, #72, #83, .T.);
#81 = VERTEX_POINT('', #82);
#82 = CARTESIAN_POINT('', (-10.605, 7.77, 0.));
#83 = B_SPLINE_CURVE_WITH_KNOTS('', 1, (#84, #85), .UNSPECIFIED., .F., .U., (2, 2), (0., 1.), .UNSPECIFIED.);
#84 = CARTESIAN_POINT('', (-10.605, 7.77, 0.));
#85 = CARTESIAN_POINT('', (-7.835, 5., 0.));
#86 = ORIENTED_EDGE('', *, *, #87, .F.);
#87 = EDGE_CURVE('', #88, #81, #90, .T.);
#88 = VERTEX_POINT('', #89);
#89 = CARTESIAN_POINT('', (-10.605, 9.16, 0.));
#90 = B_SPLINE_CURVE_WITH_KNOTS('', 1, (#91, #92), .UNSPECIFIED., .F., .U., (2, 2), (0., 1.), .UNSPECIFIED.);
#91 = CARTESIAN_POINT('', (-10.605, 9.16, 0.));
#92 = CARTESIAN_POINT('', (-10.605, 7.77, 0.));
#93 = ORIENTED_EDGE('', *, *, #94, .F.);
#94 = EDGE_CURVE('', #95, #88, #97, .T.);
#95 = VERTEX_POINT('', #96);
#96 = CARTESIAN_POINT('', (10.605, 9.16, 0.));
#97 = B_SPLINE_CURVE_WITH_KNOTS('', 1, (#98, #99), .UNSPECIFIED., .F., .U., (2, 2), (0., 1.), .UNSPECIFIED.);
#98 = CARTESIAN_POINT('', (10.605, 9.16, 0.));
#99 = CARTESIAN_POINT('', (-10.605, 9.16, 0.));
#100 = ORIENTED_EDGE('', *, *, #101, .F.);
#101 = EDGE_CURVE('', #102, #95, #104, .T.);
#102 = VERTEX_POINT('', #103);
#103 = CARTESIAN_POINT('', (10.605, 7.77, 0.));
#104 = B_SPLINE_CURVE_WITH_KNOTS('', 1, (#105, #106), .UNSPECIFIED., .F., .U., (2, 2), (0., 1.), .UNSPECIFIED.);
#105 = CARTESIAN_POINT('', (10.605, 7.77, 0.));
#106 = CARTESIAN_POINT('', (10.605, 9.16, 0.));
#107 = ORIENTED_EDGE('', *, *, #108, .F.);
#108 = EDGE_CURVE('', #109, #102, #111, .T.);
#109 = VERTEX_POINT('', #110);
#110 = CARTESIAN_POINT('', (7.835, 5., 0.));
#111 = B_SPLINE_CURVE_WITH_KNOTS('', 1, (#112, #113), .UNSPECIFIED., .F., .U., (2, 2), (0., 1.), .UNSPECIFIED.);
#112 = CARTESIAN_POINT('', (7.835, 5., 0.));
#113 = CARTESIAN_POINT('', (10.605, 7.77, 0.));
#114 = ORIENTED_EDGE('', *, *, #115, .F.);
#115 = EDGE_CURVE('', #116, #109, #118, .T.);
#116 = VERTEX_POINT('', #117);
#117 = CARTESIAN_POINT('', (7.835, 0., 0.));
#118 = B_SPLINE_CURVE_WITH_KNOTS('', 1, (#119, #120), .UNSPECIFIED., .F., .U., (2, 2), (0., 1.), .UNSPECIFIED.);
#119 = CARTESIAN_POINT('', (7.835, 0., 0.));
#120 = CARTESIAN_POINT('', (7.835, 5., 0.));
#121 = ORIENTED_EDGE('', *, *, #122, .F.);
#122 = EDGE_CURVE('', #74, #116, #123, .T.);
#123 = B_SPLINE_CURVE_WITH_KNOTS('', 1, (#124, #125), .UNSPECIFIED., .F., .U., (2, 2), (0., 1.), .UNSPECIFIED.);
#124 = CARTESIAN_POINT('', (-7.835, 0., 0.));
#125 = CARTESIAN_POINT('', (7.835, 0., 0.));
#126 = B_SPLINE_SURFACE_WITH_KNOTS('', 1, 1, ((#127, #128), (#129, #130)), .UNSPECIFIED., .F., .F., .U., (2, 2), (2, 2), (0., 1.), (0., 1.), .UNSPECIFIED.);
#127 = CARTESIAN_POINT('', (12.7069010482493, -8.12690104824934, 0.));
#128 = CARTESIAN_POINT('', (12.7069010482493, 17.2869010482493, 0.));
#129 = CARTESIAN_POINT('', (-12.7069010482493, -8.12690104824934, 0.));
#130 = CARTESIAN_POINT('', (-12.7069010482493, 17.2869010482493, 0.));
#131 = ADVANCED_FACE('', (#132), #146, .T.);
#132 = FACE_OUTER_BOUND('', #133, .T.);
#133 = EDGE_LOOP('', (#134, #139, #140, #145));
#134 = ORIENTED_EDGE('', *, *, #135, .F.);
#135 = EDGE_CURVE('', #72, #8, #136, .T.);
#136 = B_SPLINE_CURVE_WITH_KNOTS('', 1, (#137, #138), .UNSPECIFIED., .F., .U., (2, 2), (0., 1.), .UNSPECIFIED.);
#137 = CARTESIAN_POINT('', (-7.835, 5., 0.));
#138 = CARTESIAN_POINT('', (-7.835, 5., 100.));
#139 = ORIENTED_EDGE('', *, *, #71, .T.);
#140 = ORIENTED_EDGE('', *, *, #141, .T.);
#141 = EDGE_CURVE('', #74, #10, #142, .T.);
#142 = B_SPLINE_CURVE_WITH_KNOTS('', 1, (#143, #144), .UNSPECIFIED., .F., .U., (2, 2), (0., 1.), .UNSPECIFIED.);
#143 = CARTESIAN_POINT('', (-7.835, 0., 0.));
#144 = CARTESIAN_POINT('', (-7.835, 0., 100.));
#145 = ORIENTED_EDGE('', *, *, #7, .F.);
#146 = B_SPLINE_SURFACE_WITH_KNOTS('', 1, 1, ((#147, #148), (#149, #150)), .UNSPECIFIED., .F., .F., .U., (2, 2), (2, 2), (0., 1.), (0., 1.), .UNSPECIFIED.);
#147 = CARTESIAN_POINT('', (-7.835, 5., 0.));
#148 = CARTESIAN_POINT('', (-7.835, 5., 100.));
#149 = CARTESIAN_POINT('', (-7.835, 0., 0.));
#150 = CARTESIAN_POINT('', (-7.835, 0., 100.));
#151 = ADVANCED_FACE('', (#152), #162, .T.);
#152 = FACE_OUTER_BOUND('', #153, .T.);
#153 = EDGE_LOOP('', (#154, #155, #156, #161));
#154 = ORIENTED_EDGE('', *, *, #141, .F.);
#155 = ORIENTED_EDGE('', *, *, #122, .T.);
#156 = ORIENTED_EDGE('', *, *, #157, .T.);
#157 = EDGE_CURVE('', #116, #17, #158, .T.);
#158 = B_SPLINE_CURVE_WITH_KNOTS('', 1, (#159, #160), .UNSPECIFIED., .F., .U., (2, 2), (0., 1.), .UNSPECIFIED.);
#159 = CARTESIAN_POINT('', (7.835, 0., 0.));
#160 = CARTESIAN_POINT('', (7.835, 0., 100.));
#161 = ORIENTED_EDGE('', *, *, #16, .F.);
#162 = B_SPLINE_SURFACE_WITH_KNOTS('', 1, 1, ((#163, #164), (#165, #166)), .UNSPECIFIED., .F., .F., .U., (2, 2), (2, 2), (0., 1.), (0., 1.), .UNSPECIFIED.);
#163 = CARTESIAN_POINT('', (-7.835, 0., 0.));
#164 = CARTESIAN_POINT('', (-7.835, 0., 100.));
#165 = CARTESIAN_POINT('', (7.835, 0., 0.));
#166 = CARTESIAN_POINT('', (7.835, 0., 100.));
#167 = ADVANCED_FACE('', (#168), #178, .T.);
#168 = FACE_OUTER_BOUND('', #169, .T.);
#169 = EDGE_LOOP('', (#170, #175, #176, #177));
#170 = ORIENTED_EDGE('', *, *, #171, .F.);
#171 = EDGE_CURVE('', #81, #52, #172, .T.);
#172 = B_SPLINE_CURVE_WITH_KNOTS('', 1, (#173, #174), .UNSPECIFIED., .F., .U., (2, 2), (0., 1.), .UNSPECIFIED.);
#173 = CARTESIAN_POINT('', (-10.605, 7.77, 0.));
#174 = CARTESIAN_POINT('', (-10.605, 7.77, 100.));
#175 = ORIENTED_EDGE('', *, *, #80, .T.);
#176 = ORIENTED_EDGE('', *, *, #135, .T.);
#177 = ORIENTED_EDGE('', *, *, #58, .F.);
#178 = B_SPLINE_SURFACE_WITH_KNOTS('', 1, 1, ((#179, #180), (#181, #182)), .UNSPECIFIED., .F., .F., .U., (2, 2), (2, 2), (0., 1.), (0., 1.), .UNSPECIFIED.);
#179 = CARTESIAN_POINT('', (-10.605, 7.77, 0.));
#180 = CARTESIAN_POINT('', (-10.605, 7.77, 100.));
#181 = CARTESIAN_POINT('', (-7.835, 5., 0.));
#182 = CARTESIAN_POINT('', (-7.835, 5., 100.));
#183 = ADVANCED_FACE('', (#184), #194, .T.);
#184 = FACE_OUTER_BOUND('', #185, .T.);
#185 = EDGE_LOOP('', (#186, #191, #192, #193));
#186 = ORIENTED_EDGE('', *, *, #187, .F.);
#187 = EDGE_CURVE('', #88, #45, #188, .T.);
#188 = B_SPLINE_CURVE_WITH_KNOTS('', 1, (#189, #190), .UNSPECIFIED., .F., .U., (2, 2), (0., 1.), .UNSPECIFIED.);
#189 = CARTESIAN_POINT('', (-10.605, 9.16, 0.));
#190 = CARTESIAN_POINT('', (-10.605, 9.16, 100.));
#191 = ORIENTED_EDGE('', *, *, #87, .T.);
#192 = ORIENTED_EDGE('', *, *, #171, .T.);
#193 = ORIENTED_EDGE('', *, *, #51, .F.);
#194 = B_SPLINE_SURFACE_WITH_KNOTS('', 1, 1, ((#195, #196), (#197, #198)), .UNSPECIFIED., .F., .F., .U., (2, 2), (2, 2), (0., 1.), (0., 1.), .UNSPECIFIED.);
#195 = CARTESIAN_POINT('', (-10.605, 9.16, 0.));
#196 = CARTESIAN_POINT('', (-10.605, 9.16, 100.));
#197 = CARTESIAN_POINT('', (-10.605, 7.77, 0.));
#198 = CARTESIAN_POINT('', (-10.605, 7.77, 100.));
#199 = ADVANCED_FACE('', (#200), #210, .T.);
#200 = FACE_OUTER_BOUND('', #201, .T.);
#201 = EDGE_LOOP('', (#202, #207, #208, #209));
#202 = ORIENTED_EDGE('', *, *, #203, .F.);
#203 = EDGE_CURVE('', #95, #38, #204, .T.);
#204 = B_SPLINE_CURVE_WITH_KNOTS('', 1, (#205, #206), .UNSPECIFIED., .F., .U., (2, 2), (0., 1.), .UNSPECIFIED.);
#205 = CARTESIAN_POINT('', (10.605, 9.16, 0.));
#206 = CARTESIAN_POINT('', (10.605, 9.16, 100.));
#207 = ORIENTED_EDGE('', *, *, #94, .T.);
#208 = ORIENTED_EDGE('', *, *, #187, .T.);
#209 = ORIENTED_EDGE('', *, *, #44, .F.);
#210 = B_SPLINE_SURFACE_WITH_KNOTS('', 1, 1, ((#211, #212), (#213, #214)), .UNSPECIFIED., .F., .F., .U., (2, 2), (2, 2), (0., 1.), (0., 1.), .UNSPECIFIED.);
#211 = CARTESIAN_POINT('', (10.605, 9.16, 0.));
#212 = CARTESIAN_POINT('', (10.605, 9.16, 100.));
#213 = CARTESIAN_POINT('', (-10.605, 9.16, 0.));
#214 = CARTESIAN_POINT('', (-10.605, 9.16, 100.));
#215 = ADVANCED_FACE('', (#216), #226, .T.);
#216 = FACE_OUTER_BOUND('', #217, .T.);
#217 = EDGE_LOOP('', (#218, #219, #220, #225));
#218 = ORIENTED_EDGE('', *, *, #157, .F.);
#219 = ORIENTED_EDGE('', *, *, #115, .T.);
#220 = ORIENTED_EDGE('', *, *, #221, .T.);
#221 = EDGE_CURVE('', #109, #24, #222, .T.);
#222 = B_SPLINE_CURVE_WITH_KNOTS('', 1, (#223, #224), .UNSPECIFIED., .F., .U., (2, 2), (0., 1.), .UNSPECIFIED.);
#223 = CARTESIAN_POINT('', (7.835, 5., 0.));
#224 = CARTESIAN_POINT('', (7.835, 5., 100.));
#225 = ORIENTED_EDGE('', *, *, #23, .F.);
#226 = B_SPLINE_SURFACE_WITH_KNOTS('', 1, 1, ((#227, #228), (#229, #230)), .UNSPECIFIED., .F., .F., .U., (2, 2), (2, 2), (0., 1.), (0., 1.), .UNSPECIFIED.);
#227 = CARTESIAN_POINT('', (7.835, 0., 0.));
#228 = CARTESIAN_POINT('', (7.835, 0., 100.));
#229 = CARTESIAN_POINT('', (7.835, 5., 0.));
#230 = CARTESIAN_POINT('', (7.835, 5., 100.));
#231 = ADVANCED_FACE('', (#232), #242, .T.);
#232 = FACE_OUTER_BOUND('', #233, .T.);
#233 = EDGE_LOOP('', (#234, #235, #236, #241));
#234 = ORIENTED_EDGE('', *, *, #221, .F.);
#235 = ORIENTED_EDGE('', *, *, #108, .T.);
#236 = ORIENTED_EDGE('', *, *, #237, .T.);
#237 = EDGE_CURVE('', #102, #31, #238, .T.);
#238 = B_SPLINE_CURVE_WITH_KNOTS('', 1, (#239, #240), .UNSPECIFIED., .F., .U., (2, 2), (0., 1.), .UNSPECIFIED.);
#239 = CARTESIAN_POINT('', (10.605, 7.77, 0.));
#240 = CARTESIAN_POINT('', (10.605, 7.77, 100.));
#241 = ORIENTED_EDGE('', *, *, #30, .F.);
#242 = B_SPLINE_SURFACE_WITH_KNOTS('', 1, 1, ((#243, #244), (#245, #246)), .UNSPECIFIED., .F., .F., .U., (2, 2), (2, 2), (0., 1.), (0., 1.), .UNSPECIFIED.);
#243 = CARTESIAN_POINT('', (7.835, 5., 0.));
#244 = CARTESIAN_POINT('', (7.835, 5., 100.));
#245 = CARTESIAN_POINT('', (10.605, 7.77, 0.));
#246 = CARTESIAN_POINT('', (10.605, 7.77, 100.));
#247 = ADVANCED_FACE('', (#248), #254, .T.);
#248 = FACE_OUTER_BOUND('', #249, .T.);
#249 = EDGE_LOOP('', (#250, #251, #252, #253));
#250 = ORIENTED_EDGE('', *, *, #237, .F.);
#251 = ORIENTED_EDGE('', *, *, #101, .T.);
#252 = ORIENTED_EDGE('', *, *, #203, .T.);
#253 = ORIENTED_EDGE('', *, *, #37, .F.);
#254 = B_SPLINE_SURFACE_WITH_KNOTS('', 1, 1, ((#255, #256), (#257, #258)), .UNSPECIFIED., .F., .F., .U., (2, 2), (2, 2), (0., 1.), (0., 1.), .UNSPECIFIED.);
#255 = CARTESIAN_POINT('', (10.605, 7.77, 0.));
#256 = CARTESIAN_POINT('', (10.605, 7.77, 100.));
#257 = CARTESIAN_POINT('', (10.605, 9.16, 0.));
#258 = CARTESIAN_POINT('', (10.605, 9.16, 100.));
#259 = DRAUGHTING_MODEL('', (#267, #1509), #1516);
#260 = PRESENTATION_STYLE_ASSIGNMENT((#261));
#261 = SURFACE_STYLE_USAGE(.POSITIVE., #262);
#262 = SURFACE_SIDE_STYLE('', (#263));
#263 = SURFACE_STYLE_FILL_AREA(#264);
#264 = FILL_AREA_STYLE('', (#265));
#265 = FILL_AREA_STYLE_COLOUR('', #266);
#266 = COLOUR_RGB('', 0.50196078431373, 0.50196078431373, 0.50196078431373);
#267 = STYLED_ITEM('', (#260), #1);
#268 = SHELL_BASED_SURFACE_MODEL('SlotPattern_0', (#269, #406, #543, #680, #817, #954, #1091, #1228, #1365));
#269 = CLOSED_SHELL('', (#270, #306, #334, #362, #382, #394));
#270 = ADVANCED_FACE('', (#271), #301, .F.);
#271 = FACE_OUTER_BOUND('', #272, .F.);
#272 = EDGE_LOOP('', (#273, #282, #289, #296));
#273 = ORIENTED_EDGE('', *, *, #274, .T.);
#274 = EDGE_CURVE('', #275, #277, #279, .T.);
#275 = VERTEX_POINT('', #276);
#276 = CARTESIAN_POINT('', (-12.605, 9.16, 2.39));
#277 = VERTEX_POINT('', #278);
#278 = CARTESIAN_POINT('', (-12.605, 9.16, 7.62));
#279 = B_SPLINE_CURVE_WITH_KNOTS('', 1, (#280, #281), .UNSPECIFIED., .F., .U., (2, 2), (0., 5.23), .UNSPECIFIED.);
#280 = CARTESIAN_POINT('', (-12.605, 9.16, 2.39));
#281 = CARTESIAN_POINT('', (-12.605, 9.16, 7.62));
#282 = ORIENTED_EDGE('', *, *, #283, .T.);
#283 = EDGE_CURVE('', #277, #284, #286, .T.);
#284 = VERTEX_POINT('', #285);
#285 = CARTESIAN_POINT('', (12.605, 9.16, 7.62));
#286 = B_SPLINE_CURVE_WITH_KNOTS('', 1, (#287, #288), .UNSPECIFIED., .F., .U., (2, 2), (0., 25.21), .UNSPECIFIED.);
#287 = CARTESIAN_POINT('', (-12.605, 9.16, 7.62));
#288 = CARTESIAN_POINT('', (12.605, 9.16, 7.62));
#289 = ORIENTED_EDGE('', *, *, #290, .F.);
#290 = EDGE_CURVE('', #291, #284, #293, .T.);
#291 = VERTEX_POINT('', #292);
#292 = CARTESIAN_POINT('', (12.605, 9.16, 2.39));
#293 = B_SPLINE_CURVE_WITH_KNOTS('', 1, (#294, #295), .UNSPECIFIED., .F., .U., (2, 2), (0., 5.23), .UNSPECIFIED.);
#294 = CARTESIAN_POINT('', (12.605, 9.16, 2.39));
#295 = CARTESIAN_POINT('', (12.605, 9.16, 7.62));
#296 = ORIENTED_EDGE('', *, *, #297, .F.);
#297 = EDGE_CURVE('', #275, #291, #298, .T.);
#298 = B_SPLINE_CURVE_WITH_KNOTS('', 1, (#299, #300), .UNSPECIFIED., .F., .U., (2, 2), (0., 25.21), .UNSPECIFIED.);
#299 = CARTESIAN_POINT('', (-12.605, 9.16, 2.39));
#300 = CARTESIAN_POINT('', (12.605, 9.16, 2.39));
#301 = B_SPLINE_SURFACE_WITH_KNOTS('', 1, 1, ((#302, #303), (#304, #305)), .UNSPECIFIED., .F., .F., .U., (2, 2), (2, 2), (0., 5.23), (0., 25.21), .UNSPECIFIED.);
#302 = CARTESIAN_POINT('', (-12.605, 9.16, 2.39));
#303 = CARTESIAN_POINT('', (12.605, 9.16, 2.39));
#304 = CARTESIAN_POINT('', (-12.605, 9.16, 7.62));
#305 = CARTESIAN_POINT('', (12.605, 9.16, 7.62));
#306 = ADVANCED_FACE('', (#307), #329, .F.);
#307 = FACE_OUTER_BOUND('', #308, .F.);
#308 = EDGE_LOOP('', (#309, #316, #323, #328));
#309 = ORIENTED_EDGE('', *, *, #310, .F.);
#310 = EDGE_CURVE('', #311, #277, #313, .T.);
#311 = VERTEX_POINT('', #312);
#312 = CARTESIAN_POINT('', (-12.605, 6.16, 7.62));
#313 = B_SPLINE_CURVE_WITH_KNOTS('', 1, (#314, #315), .UNSPECIFIED., .F., .U., (2, 2), (0., 3.), .UNSPECIFIED.);
#314 = CARTESIAN_POINT('', (-12.605, 6.16, 7.62));
#315 = CARTESIAN_POINT('', (-12.605, 9.16, 7.62));
#316 = ORIENTED_EDGE('', *, *, #317, .T.);
#317 = EDGE_CURVE('', #311, #318, #320, .T.);
#318 = VERTEX_POINT('', #319);
#319 = CARTESIAN_POINT('', (12.605, 6.16, 7.62));
#320 = B_SPLINE_CURVE_WITH_KNOTS('', 1, (#321, #322), .UNSPECIFIED., .F., .U., (2, 2), (0., 25.21), .UNSPECIFIED.);
#321 = CARTESIAN_POINT('', (-12.605, 6.16, 7.62));
#322 = CARTESIAN_POINT('', (12.605, 6.16, 7.62));
#323 = ORIENTED_EDGE('', *, *, #324, .T.);
#324 = EDGE_CURVE('', #318, #284, #325, .T.);
#325 = B_SPLINE_CURVE_WITH_KNOTS('', 1, (#326, #327), .UNSPECIFIED., .F., .U., (2, 2), (0., 3.), .UNSPECIFIED.);
#326 = CARTESIAN_POINT('', (12.605, 6.16, 7.62));
#327 = CARTESIAN_POINT('', (12.605, 9.16, 7.62));
#328 = ORIENTED_EDGE('', *, *, #283, .F.);
#329 = B_SPLINE_SURFACE_WITH_KNOTS('', 1, 1, ((#330, #331), (#332, #333)), .UNSPECIFIED., .F., .F., .U., (2, 2), (2, 2), (0., 25.21), (0., 3.), .UNSPECIFIED.);
#330 = CARTESIAN_POINT('', (-12.605, 6.16, 7.62));
#331 = CARTESIAN_POINT('', (-12.605, 9.16, 7.62));
#332 = CARTESIAN_POINT('', (12.605, 6.16, 7.62));
#333 = CARTESIAN_POINT('', (12.605, 9.16, 7.62));
#334 = ADVANCED_FACE('', (#335), #357, .F.);
#335 = FACE_OUTER_BOUND('', #336, .F.);
#336 = EDGE_LOOP('', (#337, #344, #351, #356));
#337 = ORIENTED_EDGE('', *, *, #338, .F.);
#338 = EDGE_CURVE('', #339, #311, #341, .T.);
#339 = VERTEX_POINT('', #340);
#340 = CARTESIAN_POINT('', (-12.605, 6.16, 2.39));
#341 = B_SPLINE_CURVE_WITH_KNOTS('', 1, (#342, #343), .UNSPECIFIED., .F., .U., (2, 2), (0., 5.23), .UNSPECIFIED.);
#342 = CARTESIAN_POINT('', (-12.605, 6.16, 2.39));
#343 = CARTESIAN_POINT('', (-12.605, 6.16, 7.62));
#344 = ORIENTED_EDGE('', *, *, #345, .T.);
#345 = EDGE_CURVE('', #339, #346, #348, .T.);
#346 = VERTEX_POINT('', #347);
#347 = CARTESIAN_POINT('', (12.605, 6.16, 2.39));
#348 = B_SPLINE_CURVE_WITH_KNOTS('', 1, (#349, #350), .UNSPECIFIED., .F., .U., (2, 2), (0., 25.21), .UNSPECIFIED.);
#349 = CARTESIAN_POINT('', (-12.605, 6.16, 2.39));
#350 = CARTESIAN_POINT('', (12.605, 6.16, 2.39));
#351 = ORIENTED_EDGE('', *, *, #352, .T.);
#352 = EDGE_CURVE('', #346, #318, #353, .T.);
#353 = B_SPLINE_CURVE_WITH_KNOTS('', 1, (#354, #355), .UNSPECIFIED., .F., .U., (2, 2), (0., 5.23), .UNSPECIFIED.);
#354 = CARTESIAN_POINT('', (12.605, 6.16, 2.39));
#355 = CARTESIAN_POINT('', (12.605, 6.16, 7.62));
#356 = ORIENTED_EDGE('', *, *, #317, .F.);
#357 = B_SPLINE_SURFACE_WITH_KNOTS('', 1, 1, ((#358, #359), (#360, #361)), .UNSPECIFIED., .F., .F., .U., (2, 2), (2, 2), (0., 25.21), (0., 5.23), .UNSPECIFIED.);
#358 = CARTESIAN_POINT('', (-12.605, 6.16, 2.39));
#359 = CARTESIAN_POINT('', (-12.605, 6.16, 7.62));
#360 = CARTESIAN_POINT('', (12.605, 6.16, 2.39));
#361 = CARTESIAN_POINT('', (12.605, 6.16, 7.62));
#362 = ADVANCED_FACE('', (#363), #377, .F.);
#363 = FACE_OUTER_BOUND('', #364, .F.);
#364 = EDGE_LOOP('', (#365, #370, #371, #376));
#365 = ORIENTED_EDGE('', *, *, #366, .T.);
#366 = EDGE_CURVE('', #339, #275, #367, .T.);
#367 = B_SPLINE_CURVE_WITH_KNOTS('', 1, (#368, #369), .UNSPECIFIED., .F., .U., (2, 2), (0., 3.), .UNSPECIFIED.);
#368 = CARTESIAN_POINT('', (-12.605, 6.16, 2.39));
#369 = CARTESIAN_POINT('', (-12.605, 9.16, 2.39));
#370 = ORIENTED_EDGE('', *, *, #297, .T.);
#371 = ORIENTED_EDGE('', *, *, #372, .F.);
#372 = EDGE_CURVE('', #346, #291, #373, .T.);
#373 = B_SPLINE_CURVE_WITH_KNOTS('', 1, (#374, #375), .UNSPECIFIED., .F., .U., (2, 2), (0., 3.), .UNSPECIFIED.);
#374 = CARTESIAN_POINT('', (12.605, 6.16, 2.39));
#375 = CARTESIAN_POINT('', (12.605, 9.16, 2.39));
#376 = ORIENTED_EDGE('', *, *, #345, .F.);
#377 = B_SPLINE_SURFACE_WITH_KNOTS('', 1, 1, ((#378, #379), (#380, #381)), .UNSPECIFIED., .F., .F., .U., (2, 2), (2, 2), (0., 3.), (0., 25.21), .UNSPECIFIED.);
#378 = CARTESIAN_POINT('', (-12.605, 6.16, 2.39));
#379 = CARTESIAN_POINT('', (12.605, 6.16, 2.39));
#380 = CARTESIAN_POINT('', (-12.605, 9.16, 2.39));
#381 = CARTESIAN_POINT('', (12.605, 9.16, 2.39));
#382 = ADVANCED_FACE('', (#383), #389, .F.);
#383 = FACE_OUTER_BOUND('', #384, .F.);
#384 = EDGE_LOOP('', (#385, #386, #387, #388));
#385 = ORIENTED_EDGE('', *, *, #352, .F.);
#386 = ORIENTED_EDGE('', *, *, #372, .T.);
#387 = ORIENTED_EDGE('', *, *, #290, .T.);
#388 = ORIENTED_EDGE('', *, *, #324, .F.);
#389 = B_SPLINE_SURFACE_WITH_KNOTS('', 1, 1, ((#390, #391), (#392, #393)), .UNSPECIFIED., .F., .F., .U., (2, 2), (2, 2), (0., 3.), (0., 5.23), .UNSPECIFIED.);
#390 = CARTESIAN_POINT('', (12.605, 6.16, 2.39));
#391 = CARTESIAN_POINT('', (12.605, 6.16, 7.62));
#392 = CARTESIAN_POINT('', (12.605, 9.16, 2.39));
#393 = CARTESIAN_POINT('', (12.605, 9.16, 7.62));
#394 = ADVANCED_FACE('', (#395), #401, .F.);
#395 = FACE_OUTER_BOUND('', #396, .F.);
#396 = EDGE_LOOP('', (#397, #398, #399, #400));
#397 = ORIENTED_EDGE('', *, *, #338, .T.);
#398 = ORIENTED_EDGE('', *, *, #310, .T.);
#399 = ORIENTED_EDGE('', *, *, #274, .F.);
#400 = ORIENTED_EDGE('', *, *, #366, .F.);
#401 = B_SPLINE_SURFACE_WITH_KNOTS('', 1, 1, ((#402, #403), (#404, #405)), .UNSPECIFIED., .F., .F., .U., (2, 2), (2, 2), (0., 5.23), (0., 3.), .UNSPECIFIED.);
#402 = CARTESIAN_POINT('', (-12.605, 6.16, 2.39));
#403 = CARTESIAN_POINT('', (-12.605, 9.16, 2.39));
#404 = CARTESIAN_POINT('', (-12.605, 6.16, 7.62));
#405 = CARTESIAN_POINT('', (-12.605, 9.16, 7.62));
#406 = CLOSED_SHELL('', (#407, #443, #471, #499, #519, #531));
#407 = ADVANCED_FACE('', (#408), #438, .F.);
#408 = FACE_OUTER_BOUND('', #409, .F.);
#409 = EDGE_LOOP('', (#410, #419, #426, #433));
#410 = ORIENTED_EDGE('', *, *, #411, .T.);
#411 = EDGE_CURVE('', #412, #414, #416, .T.);
#412 = VERTEX_POINT('', #413);
#413 = CARTESIAN_POINT('', (-12.605, 9.16, 12.4));
#414 = VERTEX_POINT('', #415);
#415 = CARTESIAN_POINT('', (-12.605, 9.16, 17.63));
#416 = B_SPLINE_CURVE_WITH_KNOTS('', 1, (#417, #418), .UNSPECIFIED., .F., .U., (2, 2), (0., 5.23), .UNSPECIFIED.);
#417 = CARTESIAN_POINT('', (-12.605, 9.16, 12.4));
#418 = CARTESIAN_POINT('', (-12.605, 9.16, 17.63));
#419 = ORIENTED_EDGE('', *, *, #420, .T.);
#420 = EDGE_CURVE('', #414, #421, #423, .T.);
#421 = VERTEX_POINT('', #422);
#422 = CARTESIAN_POINT('', (12.605, 9.16, 17.63));
#423 = B_SPLINE_CURVE_WITH_KNOTS('', 1, (#424, #425), .UNSPECIFIED., .F., .U., (2, 2), (0., 25.21), .UNSPECIFIED.);
#424 = CARTESIAN_POINT('', (-12.605, 9.16, 17.63));
#425 = CARTESIAN_POINT('', (12.605, 9.16, 17.63));
#426 = ORIENTED_EDGE('', *, *, #427, .F.);
#427 = EDGE_CURVE('', #428, #421, #430, .T.);
#428 = VERTEX_POINT('', #429);
#429 = CARTESIAN_POINT('', (12.605, 9.16, 12.4));
#430 = B_SPLINE_CURVE_WITH_KNOTS('', 1, (#431, #432), .UNSPECIFIED., .F., .U., (2, 2), (0., 5.23), .UNSPECIFIED.);
#431 = CARTESIAN_POINT('', (12.605, 9.16, 12.4));
#432 = CARTESIAN_POINT('', (12.605, 9.16, 17.63));
#433 = ORIENTED_EDGE('', *, *, #434, .F.);
#434 = EDGE_CURVE('', #412, #428, #435, .T.);
#435 = B_SPLINE_CURVE_WITH_KNOTS('', 1, (#436, #437), .UNSPECIFIED., .F., .U., (2, 2), (0., 25.21), .UNSPECIFIED.);
#436 = CARTESIAN_POINT('', (-12.605, 9.16, 12.4));
#437 = CARTESIAN_POINT('', (12.605, 9.16, 12.4));
#438 = B_SPLINE_SURFACE_WITH_KNOTS('', 1, 1, ((#439, #440), (#441, #442)), .UNSPECIFIED., .F., .F., .U., (2, 2), (2, 2), (0., 5.23), (0., 25.21), .UNSPECIFIED.);
#439 = CARTESIAN_POINT('', (-12.605, 9.16, 12.4));
#440 = CARTESIAN_POINT('', (12.605, 9.16, 12.4));
#441 = CARTESIAN_POINT('', (-12.605, 9.16, 17.63));
#442 = CARTESIAN_POINT('', (12.605, 9.16, 17.63));
#443 = ADVANCED_FACE('', (#444), #466, .F.);
#444 = FACE_OUTER_BOUND('', #445, .F.);
#445 = EDGE_LOOP('', (#446, #453, #460, #465));
#446 = ORIENTED_EDGE('', *, *, #447, .F.);
#447 = EDGE_CURVE('', #448, #414, #450, .T.);
#448 = VERTEX_POINT('', #449);
#449 = CARTESIAN_POINT('', (-12.605, 6.16, 17.63));
#450 = B_SPLINE_CURVE_WITH_KNOTS('', 1, (#451, #452), .UNSPECIFIED., .F., .U., (2, 2), (0., 3.), .UNSPECIFIED.);
#451 = CARTESIAN_POINT('', (-12.605, 6.16, 17.63));
#452 = CARTESIAN_POINT('', (-12.605, 9.16, 17.63));
#453 = ORIENTED_EDGE('', *, *, #454, .T.);
#454 = EDGE_CURVE('', #448, #455, #457, .T.);
#455 = VERTEX_POINT('', #456);
#456 = CARTESIAN_POINT('', (12.605, 6.16, 17.63));
#457 = B_SPLINE_CURVE_WITH_KNOTS('', 1, (#458, #459), .UNSPECIFIED., .F., .U., (2, 2), (0., 25.21), .UNSPECIFIED.);
#458 = CARTESIAN_POINT('', (-12.605, 6.16, 17.63));
#459 = CARTESIAN_POINT('', (12.605, 6.16, 17.63));
#460 = ORIENTED_EDGE('', *, *, #461, .T.);
#461 = EDGE_CURVE('', #455, #421, #462, .T.);
#462 = B_SPLINE_CURVE_WITH_KNOTS('', 1, (#463, #464), .UNSPECIFIED., .F., .U., (2, 2), (0., 3.), .UNSPECIFIED.);
#463 = CARTESIAN_POINT('', (12.605, 6.16, 17.63));
#464 = CARTESIAN_POINT('', (12.605, 9.16, 17.63));
#465 = ORIENTED_EDGE('', *, *, #420, .F.);
#466 = B_SPLINE_SURFACE_WITH_KNOTS('', 1, 1, ((#467, #468), (#469, #470)), .UNSPECIFIED., .F., .F., .U., (2, 2), (2, 2), (0., 25.21), (0., 3.), .UNSPECIFIED.);
#467 = CARTESIAN_POINT('', (-12.605, 6.16, 17.63));
#468 = CARTESIAN_POINT('', (-12.605, 9.16, 17.63));
#469 = CARTESIAN_POINT('', (12.605, 6.16, 17.63));
#470 = CARTESIAN_POINT('', (12.605, 9.16, 17.63));
#471 = ADVANCED_FACE('', (#472), #494, .F.);
#472 = FACE_OUTER_BOUND('', #473, .F.);
#473 = EDGE_LOOP('', (#474, #481, #488, #493));
#474 = ORIENTED_EDGE('', *, *, #475, .F.);
#475 = EDGE_CURVE('', #476, #448, #478, .T.);
#476 = VERTEX_POINT('', #477);
#477 = CARTESIAN_POINT('', (-12.605, 6.16, 12.4));
#478 = B_SPLINE_CURVE_WITH_KNOTS('', 1, (#479, #480), .UNSPECIFIED., .F., .U., (2, 2), (0., 5.23), .UNSPECIFIED.);
#479 = CARTESIAN_POINT('', (-12.605, 6.16, 12.4));
#480 = CARTESIAN_POINT('', (-12.605, 6.16, 17.63));
#481 = ORIENTED_EDGE('', *, *, #482, .T.);
#482 = EDGE_CURVE('', #476, #483, #485, .T.);
#483 = VERTEX_POINT('', #484);
#484 = CARTESIAN_POINT('', (12.605, 6.16, 12.4));
#485 = B_SPLINE_CURVE_WITH_KNOTS('', 1, (#486, #487), .UNSPECIFIED., .F., .U., (2, 2), (0., 25.21), .UNSPECIFIED.);
#486 = CARTESIAN_POINT('', (-12.605, 6.16, 12.4));
#487 = CARTESIAN_POINT('', (12.605, 6.16, 12.4));
#488 = ORIENTED_EDGE('', *, *, #489, .T.);
#489 = EDGE_CURVE('', #483, #455, #490, .T.);
#490 = B_SPLINE_CURVE_WITH_KNOTS('', 1, (#491, #492), .UNSPECIFIED., .F., .U., (2, 2), (0., 5.23), .UNSPECIFIED.);
#491 = CARTESIAN_POINT('', (12.605, 6.16, 12.4));
#492 = CARTESIAN_POINT('', (12.605, 6.16, 17.63));
#493 = ORIENTED_EDGE('', *, *, #454, .F.);
#494 = B_SPLINE_SURFACE_WITH_KNOTS('', 1, 1, ((#495, #496), (#497, #498)), .UNSPECIFIED., .F., .F., .U., (2, 2), (2, 2), (0., 25.21), (0., 5.23), .UNSPECIFIED.);
#495 = CARTESIAN_POINT('', (-12.605, 6.16, 12.4));
#496 = CARTESIAN_POINT('', (-12.605, 6.16, 17.63));
#497 = CARTESIAN_POINT('', (12.605, 6.16, 12.4));
#498 = CARTESIAN_POINT('', (12.605, 6.16, 17.63));
#499 = ADVANCED_FACE('', (#500), #514, .F.);
#500 = FACE_OUTER_BOUND('', #501, .F.);
#501 = EDGE_LOOP('', (#502, #507, #508, #513));
#502 = ORIENTED_EDGE('', *, *, #503, .T.);
#503 = EDGE_CURVE('', #476, #412, #504, .T.);
#504 = B_SPLINE_CURVE_WITH_KNOTS('', 1, (#505, #506), .UNSPECIFIED., .F., .U., (2, 2), (0., 3.), .UNSPECIFIED.);
#505 = CARTESIAN_POINT('', (-12.605, 6.16, 12.4));
#506 = CARTESIAN_POINT('', (-12.605, 9.16, 12.4));
#507 = ORIENTED_EDGE('', *, *, #434, .T.);
#508 = ORIENTED_EDGE('', *, *, #509, .F.);
#509 = EDGE_CURVE('', #483, #428, #510, .T.);
#510 = B_SPLINE_CURVE_WITH_KNOTS('', 1, (#511, #512), .UNSPECIFIED., .F., .U., (2, 2), (0., 3.), .UNSPECIFIED.);
#511 = CARTESIAN_POINT('', (12.605, 6.16, 12.4));
#512 = CARTESIAN_POINT('', (12.605, 9.16, 12.4));
#513 = ORIENTED_EDGE('', *, *, #482, .F.);
#514 = B_SPLINE_SURFACE_WITH_KNOTS('', 1, 1, ((#515, #516), (#517, #518)), .UNSPECIFIED., .F., .F., .U., (2, 2), (2, 2), (0., 3.), (0., 25.21), .UNSPECIFIED.);
#515 = CARTESIAN_POINT('', (-12.605, 6.16, 12.4));
#516 = CARTESIAN_POINT('', (12.605, 6.16, 12.4));
#517 = CARTESIAN_POINT('', (-12.605, 9.16, 12.4));
#518 = CARTESIAN_POINT('', (12.605, 9.16, 12.4));
#519 = ADVANCED_FACE('', (#520), #526, .F.);
#520 = FACE_OUTER_BOUND('', #521, .F.);
#521 = EDGE_LOOP('', (#522, #523, #524, #525));
#522 = ORIENTED_EDGE('', *, *, #489, .F.);
#523 = ORIENTED_EDGE('', *, *, #509, .T.);
#524 = ORIENTED_EDGE('', *, *, #427, .T.);
#525 = ORIENTED_EDGE('', *, *, #461, .F.);
#526 = B_SPLINE_SURFACE_WITH_KNOTS('', 1, 1, ((#527, #528), (#529, #530)), .UNSPECIFIED., .F., .F., .U., (2, 2), (2, 2), (0., 3.), (0., 5.23), .UNSPECIFIED.);
#527 = CARTESIAN_POINT('', (12.605, 6.16, 12.4));
#528 = CARTESIAN_POINT('', (12.605, 6.16, 17.63));
#529 = CARTESIAN_POINT('', (12.605, 9.16, 12.4));
#530 = CARTESIAN_POINT('', (12.605, 9.16, 17.63));
#531 = ADVANCED_FACE('', (#532), #538, .F.);
#532 = FACE_OUTER_BOUND('', #533, .F.);
#533 = EDGE_LOOP('', (#534, #535, #536, #537));
#534 = ORIENTED_EDGE('', *, *, #475, .T.);
#535 = ORIENTED_EDGE('', *, *, #447, .T.);
#536 = ORIENTED_EDGE('', *, *, #411, .F.);
#537 = ORIENTED_EDGE('', *, *, #503, .F.);
#538 = B_SPLINE_SURFACE_WITH_KNOTS('', 1, 1, ((#539, #540), (#541, #542)), .UNSPECIFIED., .F., .F., .U., (2, 2), (2, 2), (0., 5.23), (0., 3.), .UNSPECIFIED.);
#539 = CARTESIAN_POINT('', (-12.605, 6.16, 12.4));
#540 = CARTESIAN_POINT('', (-12.605, 9.16, 12.4));
#541 = CARTESIAN_POINT('', (-12.605, 6.16, 17.63));
#542 = CARTESIAN_POINT('', (-12.605, 9.16, 17.63));
#543 = CLOSED_SHELL('', (#544, #580, #608, #636, #656, #668));
#544 = ADVANCED_FACE('', (#545), #575, .F.);
#545 = FACE_OUTER_BOUND('', #546, .F.);
#546 = EDGE_LOOP('', (#547, #556, #563, #570));
#547 = ORIENTED_EDGE('', *, *, #548, .T.);
#548 = EDGE_CURVE('', #549, #551, #553, .T.);
#549 = VERTEX_POINT('', #550);
#550 = CARTESIAN_POINT('', (-12.605, 9.16, 22.41));
#551 = VERTEX_POINT('', #552);
#552 = CARTESIAN_POINT('', (-12.605, 9.16, 27.64));
#553 = B_SPLINE_CURVE_WITH_KNOTS('', 1, (#554, #555), .UNSPECIFIED., .F., .U., (2, 2), (0., 5.23), .UNSPECIFIED.);
#554 = CARTESIAN_POINT('', (-12.605, 9.16, 22.41));
#555 = CARTESIAN_POINT('', (-12.605, 9.16, 27.64));
#556 = ORIENTED_EDGE('', *, *, #557, .T.);
#557 = EDGE_CURVE('', #551, #558, #560, .T.);
#558 = VERTEX_POINT('', #559);
#559 = CARTESIAN_POINT('', (12.605, 9.16, 27.64));
#560 = B_SPLINE_CURVE_WITH_KNOTS('', 1, (#561, #562), .UNSPECIFIED., .F., .U., (2, 2), (0., 25.21), .UNSPECIFIED.);
#561 = CARTESIAN_POINT('', (-12.605, 9.16, 27.64));
#562 = CARTESIAN_POINT('', (12.605, 9.16, 27.64));
#563 = ORIENTED_EDGE('', *, *, #564, .F.);
#564 = EDGE_CURVE('', #565, #558, #567, .T.);
#565 = VERTEX_POINT('', #566);
#566 = CARTESIAN_POINT('', (12.605, 9.16, 22.41));
#567 = B_SPLINE_CURVE_WITH_KNOTS('', 1, (#568, #569), .UNSPECIFIED., .F., .U., (2, 2), (0., 5.23), .UNSPECIFIED.);
#568 = CARTESIAN_POINT('', (12.605, 9.16, 22.41));
#569 = CARTESIAN_POINT('', (12.605, 9.16, 27.64));
#570 = ORIENTED_EDGE('', *, *, #571, .F.);
#571 = EDGE_CURVE('', #549, #565, #572, .T.);
#572 = B_SPLINE_CURVE_WITH_KNOTS('', 1, (#573, #574), .UNSPECIFIED., .F., .U., (2, 2), (0., 25.21), .UNSPECIFIED.);
#573 = CARTESIAN_POINT('', (-12.605, 9.16, 22.41));
#574 = CARTESIAN_POINT('', (12.605, 9.16, 22.41));
#575 = B_SPLINE_SURFACE_WITH_KNOTS('', 1, 1, ((#576, #577), (#578, #579)), .UNSPECIFIED., .F., .F., .U., (2, 2), (2, 2), (0., 5.23), (0., 25.21), .UNSPECIFIED.);
#576 = CARTESIAN_POINT('', (-12.605, 9.16, 22.41));
#577 = CARTESIAN_POINT('', (12.605, 9.16, 22.41));
#578 = CARTESIAN_POINT('', (-12.605, 9.16, 27.64));
#579 = CARTESIAN_POINT('', (12.605, 9.16, 27.64));
#580 = ADVANCED_FACE('', (#581), #603, .F.);
#581 = FACE_OUTER_BOUND('', #582, .F.);
#582 = EDGE_LOOP('', (#583, #590, #597, #602));
#583 = ORIENTED_EDGE('', *, *, #584, .F.);
#584 = EDGE_CURVE('', #585, #551, #587, .T.);
#585 = VERTEX_POINT('', #586);
#586 = CARTESIAN_POINT('', (-12.605, 6.16, 27.64));
#587 = B_SPLINE_CURVE_WITH_KNOTS('', 1, (#588, #589), .UNSPECIFIED., .F., .U., (2, 2), (0., 3.), .UNSPECIFIED.);
#588 = CARTESIAN_POINT('', (-12.605, 6.16, 27.64));
#589 = CARTESIAN_POINT('', (-12.605, 9.16, 27.64));
#590 = ORIENTED_EDGE('', *, *, #591, .T.);
#591 = EDGE_CURVE('', #585, #592, #594, .T.);
#592 = VERTEX_POINT('', #593);
#593 = CARTESIAN_POINT('', (12.605, 6.16, 27.64));
#594 = B_SPLINE_CURVE_WITH_KNOTS('', 1, (#595, #596), .UNSPECIFIED., .F., .U., (2, 2), (0., 25.21), .UNSPECIFIED.);
#595 = CARTESIAN_POINT('', (-12.605, 6.16, 27.64));
#596 = CARTESIAN_POINT('', (12.605, 6.16, 27.64));
#597 = ORIENTED_EDGE('', *, *, #598, .T.);
#598 = EDGE_CURVE('', #592, #558, #599, .T.);
#599 = B_SPLINE_CURVE_WITH_KNOTS('', 1, (#600, #601), .UNSPECIFIED., .F., .U., (2, 2), (0., 3.), .UNSPECIFIED.);
#600 = CARTESIAN_POINT('', (12.605, 6.16, 27.64));
#601 = CARTESIAN_POINT('', (12.605, 9.16, 27.64));
#602 = ORIENTED_EDGE('', *, *, #557, .F.);
#603 = B_SPLINE_SURFACE_WITH_KNOTS('', 1, 1, ((#604, #605), (#606, #607)), .UNSPECIFIED., .F., .F., .U., (2, 2), (2, 2), (0., 25.21), (0., 3.), .UNSPECIFIED.);
#604 = CARTESIAN_POINT('', (-12.605, 6.16, 27.64));
#605 = CARTESIAN_POINT('', (-12.605, 9.16, 27.64));
#606 = CARTESIAN_POINT('', (12.605, 6.16, 27.64));
#607 = CARTESIAN_POINT('', (12.605, 9.16, 27.64));
#608 = ADVANCED_FACE('', (#609), #631, .F.);
#609 = FACE_OUTER_BOUND('', #610, .F.);
#610 = EDGE_LOOP('', (#611, #618, #625, #630));
#611 = ORIENTED_EDGE('', *, *, #612, .F.);
#612 = EDGE_CURVE('', #613, #585, #615, .T.);
#613 = VERTEX_POINT('', #614);
#614 = CARTESIAN_POINT('', (-12.605, 6.16, 22.41));
#615 = B_SPLINE_CURVE_WITH_KNOTS('', 1, (#616, #617), .UNSPECIFIED., .F., .U., (2, 2), (0., 5.23), .UNSPECIFIED.);
#616 = CARTESIAN_POINT('', (-12.605, 6.16, 22.41));
#617 = CARTESIAN_POINT('', (-12.605, 6.16, 27.64));
#618 = ORIENTED_EDGE('', *, *, #619, .T.);
#619 = EDGE_CURVE('', #613, #620, #622, .T.);
#620 = VERTEX_POINT('', #621);
#621 = CARTESIAN_POINT('', (12.605, 6.16, 22.41));
#622 = B_SPLINE_CURVE_WITH_KNOTS('', 1, (#623, #624), .UNSPECIFIED., .F., .U., (2, 2), (0., 25.21), .UNSPECIFIED.);
#623 = CARTESIAN_POINT('', (-12.605, 6.16, 22.41));
#624 = CARTESIAN_POINT('', (12.605, 6.16, 22.41));
#625 = ORIENTED_EDGE('', *, *, #626, .T.);
#626 = EDGE_CURVE('', #620, #592, #627, .T.);
#627 = B_SPLINE_CURVE_WITH_KNOTS('', 1, (#628, #629), .UNSPECIFIED., .F., .U., (2, 2), (0., 5.23), .UNSPECIFIED.);
#628 = CARTESIAN_POINT('', (12.605, 6.16, 22.41));
#629 = CARTESIAN_POINT('', (12.605, 6.16, 27.64));
#630 = ORIENTED_EDGE('', *, *, #591, .F.);
#631 = B_SPLINE_SURFACE_WITH_KNOTS('', 1, 1, ((#632, #633), (#634, #635)), .UNSPECIFIED., .F., .F., .U., (2, 2), (2, 2), (0., 25.21), (0., 5.23), .UNSPECIFIED.);
#632 = CARTESIAN_POINT('', (-12.605, 6.16, 22.41));
#633 = CARTESIAN_POINT('', (-12.605, 6.16, 27.64));
#634 = CARTESIAN_POINT('', (12.605, 6.16, 22.41));
#635 = CARTESIAN_POINT('', (12.605, 6.16, 27.64));
#636 = ADVANCED_FACE('', (#637), #651, .F.);
#637 = FACE_OUTER_BOUND('', #638, .F.);
#638 = EDGE_LOOP('', (#639, #644, #645, #650));
#639 = ORIENTED_EDGE('', *, *, #640, .T.);
#640 = EDGE_CURVE('', #613, #549, #641, .T.);
#641 = B_SPLINE_CURVE_WITH_KNOTS('', 1, (#642, #643), .UNSPECIFIED., .F., .U., (2, 2), (0., 3.), .UNSPECIFIED.);
#642 = CARTESIAN_POINT('', (-12.605, 6.16, 22.41));
#643 = CARTESIAN_POINT('', (-12.605, 9.16, 22.41));
#644 = ORIENTED_EDGE('', *, *, #571, .T.);
#645 = ORIENTED_EDGE('', *, *, #646, .F.);
#646 = EDGE_CURVE('', #620, #565, #647, .T.);
#647 = B_SPLINE_CURVE_WITH_KNOTS('', 1, (#648, #649), .UNSPECIFIED., .F., .U., (2, 2), (0., 3.), .UNSPECIFIED.);
#648 = CARTESIAN_POINT('', (12.605, 6.16, 22.41));
#649 = CARTESIAN_POINT('', (12.605, 9.16, 22.41));
#650 = ORIENTED_EDGE('', *, *, #619, .F.);
#651 = B_SPLINE_SURFACE_WITH_KNOTS('', 1, 1, ((#652, #653), (#654, #655)), .UNSPECIFIED., .F., .F., .U., (2, 2), (2, 2), (0., 3.), (0., 25.21), .UNSPECIFIED.);
#652 = CARTESIAN_POINT('', (-12.605, 6.16, 22.41));
#653 = CARTESIAN_POINT('', (12.605, 6.16, 22.41));
#654 = CARTESIAN_POINT('', (-12.605, 9.16, 22.41));
#655 = CARTESIAN_POINT('', (12.605, 9.16, 22.41));
#656 = ADVANCED_FACE('', (#657), #663, .F.);
#657 = FACE_OUTER_BOUND('', #658, .F.);
#658 = EDGE_LOOP('', (#659, #660, #661, #662));
#659 = ORIENTED_EDGE('', *, *, #626, .F.);
#660 = ORIENTED_EDGE('', *, *, #646, .T.);
#661 = ORIENTED_EDGE('', *, *, #564, .T.);
#662 = ORIENTED_EDGE('', *, *, #598, .F.);
#663 = B_SPLINE_SURFACE_WITH_KNOTS('', 1, 1, ((#664, #665), (#666, #667)), .UNSPECIFIED., .F., .F., .U., (2, 2), (2, 2), (0., 3.), (0., 5.23), .UNSPECIFIED.);
#664 = CARTESIAN_POINT('', (12.605, 6.16, 22.41));
#665 = CARTESIAN_POINT('', (12.605, 6.16, 27.64));
#666 = CARTESIAN_POINT('', (12.605, 9.16, 22.41));
#667 = CARTESIAN_POINT('', (12.605, 9.16, 27.64));
#668 = ADVANCED_FACE('', (#669), #675, .F.);
#669 = FACE_OUTER_BOUND('', #670, .F.);
#670 = EDGE_LOOP('', (#671, #672, #673, #674));
#671 = ORIENTED_EDGE('', *, *, #612, .T.);
#672 = ORIENTED_EDGE('', *, *, #584, .T.);
#673 = ORIENTED_EDGE('', *, *, #548, .F.);
#674 = ORIENTED_EDGE('', *, *, #640, .F.);
#675 = B_SPLINE_SURFACE_WITH_KNOTS('', 1, 1, ((#676, #677), (#678, #679)), .UNSPECIFIED., .F., .F., .U., (2, 2), (2, 2), (0., 5.23), (0., 3.), .UNSPECIFIED.);
#676 = CARTESIAN_POINT('', (-12.605, 6.16, 22.41));
#677 = CARTESIAN_POINT('', (-12.605, 9.16, 22.41));
#678 = CARTESIAN_POINT('', (-12.605, 6.16, 27.64));
#679 = CARTESIAN_POINT('', (-12.605, 9.16, 27.64));
#680 = CLOSED_SHELL('', (#681, #717, #745, #773, #793, #805));
#681 = ADVANCED_FACE('', (#682), #712, .F.);
#682 = FACE_OUTER_BOUND('', #683, .F.);
#683 = EDGE_LOOP('', (#684, #693, #700, #707));
#684 = ORIENTED_EDGE('', *, *, #685, .T.);
#685 = EDGE_CURVE('', #686, #688, #690, .T.);
#686 = VERTEX_POINT('', #687);
#687 = CARTESIAN_POINT('', (-12.605, 9.16, 32.42));
#688 = VERTEX_POINT('', #689);
#689 = CARTESIAN_POINT('', (-12.605, 9.16, 37.65));
#690 = B_SPLINE_CURVE_WITH_KNOTS('', 1, (#691, #692), .UNSPECIFIED., .F., .U., (2, 2), (0., 5.23), .UNSPECIFIED.);
#691 = CARTESIAN_POINT('', (-12.605, 9.16, 32.42));
#692 = CARTESIAN_POINT('', (-12.605, 9.16, 37.65));
#693 = ORIENTED_EDGE('', *, *, #694, .T.);
#694 = EDGE_CURVE('', #688, #695, #697, .T.);
#695 = VERTEX_POINT('', #696);
#696 = CARTESIAN_POINT('', (12.605, 9.16, 37.65));
#697 = B_SPLINE_CURVE_WITH_KNOTS('', 1, (#698, #699), .UNSPECIFIED., .F., .U., (2, 2), (0., 25.21), .UNSPECIFIED.);
#698 = CARTESIAN_POINT('', (-12.605, 9.16, 37.65));
#699 = CARTESIAN_POINT('', (12.605, 9.16, 37.65));
#700 = ORIENTED_EDGE('', *, *, #701, .F.);
#701 = EDGE_CURVE('', #702, #695, #704, .T.);
#702 = VERTEX_POINT('', #703);
#703 = CARTESIAN_POINT('', (12.605, 9.16, 32.42));
#704 = B_SPLINE_CURVE_WITH_KNOTS('', 1, (#705, #706), .UNSPECIFIED., .F., .U., (2, 2), (0., 5.23), .UNSPECIFIED.);
#705 = CARTESIAN_POINT('', (12.605, 9.16, 32.42));
#706 = CARTESIAN_POINT('', (12.605, 9.16, 37.65));
#707 = ORIENTED_EDGE('', *, *, #708, .F.);
#708 = EDGE_CURVE('', #686, #702, #709, .T.);
#709 = B_SPLINE_CURVE_WITH_KNOTS('', 1, (#710, #711), .UNSPECIFIED., .F., .U., (2, 2), (0., 25.21), .UNSPECIFIED.);
#710 = CARTESIAN_POINT('', (-12.605, 9.16, 32.42));
#711 = CARTESIAN_POINT('', (12.605, 9.16, 32.42));
#712 = B_SPLINE_SURFACE_WITH_KNOTS('', 1, 1, ((#713, #714), (#715, #716)), .UNSPECIFIED., .F., .F., .U., (2, 2), (2, 2), (0., 5.23), (0., 25.21), .UNSPECIFIED.);
#713 = CARTESIAN_POINT('', (-12.605, 9.16, 32.42));
#714 = CARTESIAN_POINT('', (12.605, 9.16, 32.42));
#715 = CARTESIAN_POINT('', (-12.605, 9.16, 37.65));
#716 = CARTESIAN_POINT('', (12.605, 9.16, 37.65));
#717 = ADVANCED_FACE('', (#718), #740, .F.);
#718 = FACE_OUTER_BOUND('', #719, .F.);
#719 = EDGE_LOOP('', (#720, #727, #734, #739));
#720 = ORIENTED_EDGE('', *, *, #721, .F.);
#721 = EDGE_CURVE('', #722, #688, #724, .T.);
#722 = VERTEX_POINT('', #723);
#723 = CARTESIAN_POINT('', (-12.605, 6.16, 37.65));
#724 = B_SPLINE_CURVE_WITH_KNOTS('', 1, (#725, #726), .UNSPECIFIED., .F., .U., (2, 2), (0., 3.), .UNSPECIFIED.);
#725 = CARTESIAN_POINT('', (-12.605, 6.16, 37.65));
#726 = CARTESIAN_POINT('', (-12.605, 9.16, 37.65));
#727 = ORIENTED_EDGE('', *, *, #728, .T.);
#728 = EDGE_CURVE('', #722, #729, #731, .T.);
#729 = VERTEX_POINT('', #730);
#730 = CARTESIAN_POINT('', (12.605, 6.16, 37.65));
#731 = B_SPLINE_CURVE_WITH_KNOTS('', 1, (#732, #733), .UNSPECIFIED., .F., .U., (2, 2), (0., 25.21), .UNSPECIFIED.);
#732 = CARTESIAN_POINT('', (-12.605, 6.16, 37.65));
#733 = CARTESIAN_POINT('', (12.605, 6.16, 37.65));
#734 = ORIENTED_EDGE('', *, *, #735, .T.);
#735 = EDGE_CURVE('', #729, #695, #736, .T.);
#736 = B_SPLINE_CURVE_WITH_KNOTS('', 1, (#737, #738), .UNSPECIFIED., .F., .U., (2, 2), (0., 3.), .UNSPECIFIED.);
#737 = CARTESIAN_POINT('', (12.605, 6.16, 37.65));
#738 = CARTESIAN_POINT('', (12.605, 9.16, 37.65));
#739 = ORIENTED_EDGE('', *, *, #694, .F.);
#740 = B_SPLINE_SURFACE_WITH_KNOTS('', 1, 1, ((#741, #742), (#743, #744)), .UNSPECIFIED., .F., .F., .U., (2, 2), (2, 2), (0., 25.21), (0., 3.), .UNSPECIFIED.);
#741 = CARTESIAN_POINT('', (-12.605, 6.16, 37.65));
#742 = CARTESIAN_POINT('', (-12.605, 9.16, 37.65));
#743 = CARTESIAN_POINT('', (12.605, 6.16, 37.65));
#744 = CARTESIAN_POINT('', (12.605, 9.16, 37.65));
#745 = ADVANCED_FACE('', (#746), #768, .F.);
#746 = FACE_OUTER_BOUND('', #747, .F.);
#747 = EDGE_LOOP('', (#748, #755, #762, #767));
#748 = ORIENTED_EDGE('', *, *, #749, .F.);
#749 = EDGE_CURVE('', #750, #722, #752, .T.);
#750 = VERTEX_POINT('', #751);
#751 = CARTESIAN_POINT('', (-12.605, 6.16, 32.42));
#752 = B_SPLINE_CURVE_WITH_KNOTS('', 1, (#753, #754), .UNSPECIFIED., .F., .U., (2, 2), (0., 5.23), .UNSPECIFIED.);
#753 = CARTESIAN_POINT('', (-12.605, 6.16, 32.42));
#754 = CARTESIAN_POINT('', (-12.605, 6.16, 37.65));
#755 = ORIENTED_EDGE('', *, *, #756, .T.);
#756 = EDGE_CURVE('', #750, #757, #759, .T.);
#757 = VERTEX_POINT('', #758);
#758 = CARTESIAN_POINT('', (12.605, 6.16, 32.42));
#759 = B_SPLINE_CURVE_WITH_KNOTS('', 1, (#760, #761), .UNSPECIFIED., .F., .U., (2, 2), (0., 25.21), .UNSPECIFIED.);
#760 = CARTESIAN_POINT('', (-12.605, 6.16, 32.42));
#761 = CARTESIAN_POINT('', (12.605, 6.16, 32.42));
#762 = ORIENTED_EDGE('', *, *, #763, .T.);
#763 = EDGE_CURVE('', #757, #729, #764, .T.);
#764 = B_SPLINE_CURVE_WITH_KNOTS('', 1, (#765, #766), .UNSPECIFIED., .F., .U., (2, 2), (0., 5.23), .UNSPECIFIED.);
#765 = CARTESIAN_POINT('', (12.605, 6.16, 32.42));
#766 = CARTESIAN_POINT('', (12.605, 6.16, 37.65));
#767 = ORIENTED_EDGE('', *, *, #728, .F.);
#768 = B_SPLINE_SURFACE_WITH_KNOTS('', 1, 1, ((#769, #770), (#771, #772)), .UNSPECIFIED., .F., .F., .U., (2, 2), (2, 2), (0., 25.21), (0., 5.23), .UNSPECIFIED.);
#769 = CARTESIAN_POINT('', (-12.605, 6.16, 32.42));
#770 = CARTESIAN_POINT('', (-12.605, 6.16, 37.65));
#771 = CARTESIAN_POINT('', (12.605, 6.16, 32.42));
#772 = CARTESIAN_POINT('', (12.605, 6.16, 37.65));
#773 = ADVANCED_FACE('', (#774), #788, .F.);
#774 = FACE_OUTER_BOUND('', #775, .F.);
#775 = EDGE_LOOP('', (#776, #781, #782, #787));
#776 = ORIENTED_EDGE('', *, *, #777, .T.);
#777 = EDGE_CURVE('', #750, #686, #778, .T.);
#778 = B_SPLINE_CURVE_WITH_KNOTS('', 1, (#779, #780), .UNSPECIFIED., .F., .U., (2, 2), (0., 3.), .UNSPECIFIED.);
#779 = CARTESIAN_POINT('', (-12.605, 6.16, 32.42));
#780 = CARTESIAN_POINT('', (-12.605, 9.16, 32.42));
#781 = ORIENTED_EDGE('', *, *, #708, .T.);
#782 = ORIENTED_EDGE('', *, *, #783, .F.);
#783 = EDGE_CURVE('', #757, #702, #784, .T.);
#784 = B_SPLINE_CURVE_WITH_KNOTS('', 1, (#785, #786), .UNSPECIFIED., .F., .U., (2, 2), (0., 3.), .UNSPECIFIED.);
#785 = CARTESIAN_POINT('', (12.605, 6.16, 32.42));
#786 = CARTESIAN_POINT('', (12.605, 9.16, 32.42));
#787 = ORIENTED_EDGE('', *, *, #756, .F.);
#788 = B_SPLINE_SURFACE_WITH_KNOTS('', 1, 1, ((#789, #790), (#791, #792)), .UNSPECIFIED., .F., .F., .U., (2, 2), (2, 2), (0., 3.), (0., 25.21), .UNSPECIFIED.);
#789 = CARTESIAN_POINT('', (-12.605, 6.16, 32.42));
#790 = CARTESIAN_POINT('', (12.605, 6.16, 32.42));
#791 = CARTESIAN_POINT('', (-12.605, 9.16, 32.42));
#792 = CARTESIAN_POINT('', (12.605, 9.16, 32.42));
#793 = ADVANCED_FACE('', (#794), #800, .F.);
#794 = FACE_OUTER_BOUND('', #795, .F.);
#795 = EDGE_LOOP('', (#796, #797, #798, #799));
#796 = ORIENTED_EDGE('', *, *, #763, .F.);
#797 = ORIENTED_EDGE('', *, *, #783, .T.);
#798 = ORIENTED_EDGE('', *, *, #701, .T.);
#799 = ORIENTED_EDGE('', *, *, #735, .F.);
#800 = B_SPLINE_SURFACE_WITH_KNOTS('', 1, 1, ((#801, #802), (#803, #804)), .UNSPECIFIED., .F., .F., .U., (2, 2), (2, 2), (0., 3.), (0., 5.23), .UNSPECIFIED.);
#801 = CARTESIAN_POINT('', (12.605, 6.16, 32.42));
#802 = CARTESIAN_POINT('', (12.605, 6.16, 37.65));
#803 = CARTESIAN_POINT('', (12.605, 9.16, 32.42));
#804 = CARTESIAN_POINT('', (12.605, 9.16, 37.65));
#805 = ADVANCED_FACE('', (#806), #812, .F.);
#806 = FACE_OUTER_BOUND('', #807, .F.);
#807 = EDGE_LOOP('', (#808, #809, #810, #811));
#808 = ORIENTED_EDGE('', *, *, #749, .T.);
#809 = ORIENTED_EDGE('', *, *, #721, .T.);
#810 = ORIENTED_EDGE('', *, *, #685, .F.);
#811 = ORIENTED_EDGE('', *, *, #777, .F.);
#812 = B_SPLINE_SURFACE_WITH_KNOTS('', 1, 1, ((#813, #814), (#815, #816)), .UNSPECIFIED., .F., .F., .U., (2, 2), (2, 2), (0., 5.23), (0., 3.), .UNSPECIFIED.);
#813 = CARTESIAN_POINT('', (-12.605, 6.16, 32.42));
#814 = CARTESIAN_POINT('', (-12.605, 9.16, 32.42));
#815 = CARTESIAN_POINT('', (-12.605, 6.16, 37.65));
#816 = CARTESIAN_POINT('', (-12.605, 9.16, 37.65));
#817 = CLOSED_SHELL('', (#818, #854, #882, #910, #930, #942));
#818 = ADVANCED_FACE('', (#819), #849, .F.);
#819 = FACE_OUTER_BOUND('', #820, .F.);
#820 = EDGE_LOOP('', (#821, #830, #837, #844));
#821 = ORIENTED_EDGE('', *, *, #822, .T.);
#822 = EDGE_CURVE('', #823, #825, #827, .T.);
#823 = VERTEX_POINT('', #824);
#824 = CARTESIAN_POINT('', (-12.605, 9.16, 42.43));
#825 = VERTEX_POINT('', #826);
#826 = CARTESIAN_POINT('', (-12.605, 9.16, 47.66));
#827 = B_SPLINE_CURVE_WITH_KNOTS('', 1, (#828, #829), .UNSPECIFIED., .F., .U., (2, 2), (0., 5.23), .UNSPECIFIED.);
#828 = CARTESIAN_POINT('', (-12.605, 9.16, 42.43));
#829 = CARTESIAN_POINT('', (-12.605, 9.16, 47.66));
#830 = ORIENTED_EDGE('', *, *, #831, .T.);
#831 = EDGE_CURVE('', #825, #832, #834, .T.);
#832 = VERTEX_POINT('', #833);
#833 = CARTESIAN_POINT('', (12.605, 9.16, 47.66));
#834 = B_SPLINE_CURVE_WITH_KNOTS('', 1, (#835, #836), .UNSPECIFIED., .F., .U., (2, 2), (0., 25.21), .UNSPECIFIED.);
#835 = CARTESIAN_POINT('', (-12.605, 9.16, 47.66));
#836 = CARTESIAN_POINT('', (12.605, 9.16, 47.66));
#837 = ORIENTED_EDGE('', *, *, #838, .F.);
#838 = EDGE_CURVE('', #839, #832, #841, .T.);
#839 = VERTEX_POINT('', #840);
#840 = CARTESIAN_POINT('', (12.605, 9.16, 42.43));
#841 = B_SPLINE_CURVE_WITH_KNOTS('', 1, (#842, #843), .UNSPECIFIED., .F., .U., (2, 2), (0., 5.23), .UNSPECIFIED.);
#842 = CARTESIAN_POINT('', (12.605, 9.16, 42.43));
#843 = CARTESIAN_POINT('', (12.605, 9.16, 47.66));
#844 = ORIENTED_EDGE('', *, *, #845, .F.);
#845 = EDGE_CURVE('', #823, #839, #846, .T.);
#846 = B_SPLINE_CURVE_WITH_KNOTS('', 1, (#847, #848), .UNSPECIFIED., .F., .U., (2, 2), (0., 25.21), .UNSPECIFIED.);
#847 = CARTESIAN_POINT('', (-12.605, 9.16, 42.43));
#848 = CARTESIAN_POINT('', (12.605, 9.16, 42.43));
#849 = B_SPLINE_SURFACE_WITH_KNOTS('', 1, 1, ((#850, #851), (#852, #853)), .UNSPECIFIED., .F., .F., .U., (2, 2), (2, 2), (0., 5.23), (0., 25.21), .UNSPECIFIED.);
#850 = CARTESIAN_POINT('', (-12.605, 9.16, 42.43));
#851 = CARTESIAN_POINT('', (12.605, 9.16, 42.43));
#852 = CARTESIAN_POINT('', (-12.605, 9.16, 47.66));
#853 = CARTESIAN_POINT('', (12.605, 9.16, 47.66));
#854 = ADVANCED_FACE('', (#855), #877, .F.);
#855 = FACE_OUTER_BOUND('', #856, .F.);
#856 = EDGE_LOOP('', (#857, #864, #871, #876));
#857 = ORIENTED_EDGE('', *, *, #858, .F.);
#858 = EDGE_CURVE('', #859, #825, #861, .T.);
#859 = VERTEX_POINT('', #860);
#860 = CARTESIAN_POINT('', (-12.605, 6.16, 47.66));
#861 = B_SPLINE_CURVE_WITH_KNOTS('', 1, (#862, #863), .UNSPECIFIED., .F., .U., (2, 2), (0., 3.), .UNSPECIFIED.);
#862 = CARTESIAN_POINT('', (-12.605, 6.16, 47.66));
#863 = CARTESIAN_POINT('', (-12.605, 9.16, 47.66));
#864 = ORIENTED_EDGE('', *, *, #865, .T.);
#865 = EDGE_CURVE('', #859, #866, #868, .T.);
#866 = VERTEX_POINT('', #867);
#867 = CARTESIAN_POINT('', (12.605, 6.16, 47.66));
#868 = B_SPLINE_CURVE_WITH_KNOTS('', 1, (#869, #870), .UNSPECIFIED., .F., .U., (2, 2), (0., 25.21), .UNSPECIFIED.);
#869 = CARTESIAN_POINT('', (-12.605, 6.16, 47.66));
#870 = CARTESIAN_POINT('', (12.605, 6.16, 47.66));
#871 = ORIENTED_EDGE('', *, *, #872, .T.);
#872 = EDGE_CURVE('', #866, #832, #873, .T.);
#873 = B_SPLINE_CURVE_WITH_KNOTS('', 1, (#874, #875), .UNSPECIFIED., .F., .U., (2, 2), (0., 3.), .UNSPECIFIED.);
#874 = CARTESIAN_POINT('', (12.605, 6.16, 47.66));
#875 = CARTESIAN_POINT('', (12.605, 9.16, 47.66));
#876 = ORIENTED_EDGE('', *, *, #831, .F.);
#877 = B_SPLINE_SURFACE_WITH_KNOTS('', 1, 1, ((#878, #879), (#880, #881)), .UNSPECIFIED., .F., .F., .U., (2, 2), (2, 2), (0., 25.21), (0., 3.), .UNSPECIFIED.);
#878 = CARTESIAN_POINT('', (-12.605, 6.16, 47.66));
#879 = CARTESIAN_POINT('', (-12.605, 9.16, 47.66));
#880 = CARTESIAN_POINT('', (12.605, 6.16, 47.66));
#881 = CARTESIAN_POINT('', (12.605, 9.16, 47.66));
#882 = ADVANCED_FACE('', (#883), #905, .F.);
#883 = FACE_OUTER_BOUND('', #884, .F.);
#884 = EDGE_LOOP('', (#885, #892, #899, #904));
#885 = ORIENTED_EDGE('', *, *, #886, .F.);
#886 = EDGE_CURVE('', #887, #859, #889, .T.);
#887 = VERTEX_POINT('', #888);
#888 = CARTESIAN_POINT('', (-12.605, 6.16, 42.43));
#889 = B_SPLINE_CURVE_WITH_KNOTS('', 1, (#890, #891), .UNSPECIFIED., .F., .U., (2, 2), (0., 5.23), .UNSPECIFIED.);
#890 = CARTESIAN_POINT('', (-12.605, 6.16, 42.43));
#891 = CARTESIAN_POINT('', (-12.605, 6.16, 47.66));
#892 = ORIENTED_EDGE('', *, *, #893, .T.);
#893 = EDGE_CURVE('', #887, #894, #896, .T.);
#894 = VERTEX_POINT('', #895);
#895 = CARTESIAN_POINT('', (12.605, 6.16, 42.43));
#896 = B_SPLINE_CURVE_WITH_KNOTS('', 1, (#897, #898), .UNSPECIFIED., .F., .U., (2, 2), (0., 25.21), .UNSPECIFIED.);
#897 = CARTESIAN_POINT('', (-12.605, 6.16, 42.43));
#898 = CARTESIAN_POINT('', (12.605, 6.16, 42.43));
#899 = ORIENTED_EDGE('', *, *, #900, .T.);
#900 = EDGE_CURVE('', #894, #866, #901, .T.);
#901 = B_SPLINE_CURVE_WITH_KNOTS('', 1, (#902, #903), .UNSPECIFIED., .F., .U., (2, 2), (0., 5.23), .UNSPECIFIED.);
#902 = CARTESIAN_POINT('', (12.605, 6.16, 42.43));
#903 = CARTESIAN_POINT('', (12.605, 6.16, 47.66));
#904 = ORIENTED_EDGE('', *, *, #865, .F.);
#905 = B_SPLINE_SURFACE_WITH_KNOTS('', 1, 1, ((#906, #907), (#908, #909)), .UNSPECIFIED., .F., .F., .U., (2, 2), (2, 2), (0., 25.21), (0., 5.23), .UNSPECIFIED.);
#906 = CARTESIAN_POINT('', (-12.605, 6.16, 42.43));
#907 = CARTESIAN_POINT('', (-12.605, 6.16, 47.66));
#908 = CARTESIAN_POINT('', (12.605, 6.16, 42.43));
#909 = CARTESIAN_POINT('', (12.605, 6.16, 47.66));
#910 = ADVANCED_FACE('', (#911), #925, .F.);
#911 = FACE_OUTER_BOUND('', #912, .F.);
#912 = EDGE_LOOP('', (#913, #918, #919, #924));
#913 = ORIENTED_EDGE('', *, *, #914, .T.);
#914 = EDGE_CURVE('', #887, #823, #915, .T.);
#915 = B_SPLINE_CURVE_WITH_KNOTS('', 1, (#916, #917), .UNSPECIFIED., .F., .U., (2, 2), (0., 3.), .UNSPECIFIED.);
#916 = CARTESIAN_POINT('', (-12.605, 6.16, 42.43));
#917 = CARTESIAN_POINT('', (-12.605, 9.16, 42.43));
#918 = ORIENTED_EDGE('', *, *, #845, .T.);
#919 = ORIENTED_EDGE('', *, *, #920, .F.);
#920 = EDGE_CURVE('', #894, #839, #921, .T.);
#921 = B_SPLINE_CURVE_WITH_KNOTS('', 1, (#922, #923), .UNSPECIFIED., .F., .U., (2, 2), (0., 3.), .UNSPECIFIED.);
#922 = CARTESIAN_POINT('', (12.605, 6.16, 42.43));
#923 = CARTESIAN_POINT('', (12.605, 9.16, 42.43));
#924 = ORIENTED_EDGE('', *, *, #893, .F.);
#925 = B_SPLINE_SURFACE_WITH_KNOTS('', 1, 1, ((#926, #927), (#928, #929)), .UNSPECIFIED., .F., .F., .U., (2, 2), (2, 2), (0., 3.), (0., 25.21), .UNSPECIFIED.);
#926 = CARTESIAN_POINT('', (-12.605, 6.16, 42.43));
#927 = CARTESIAN_POINT('', (12.605, 6.16, 42.43));
#928 = CARTESIAN_POINT('', (-12.605, 9.16, 42.43));
#929 = CARTESIAN_POINT('', (12.605, 9.16, 42.43));
#930 = ADVANCED_FACE('', (#931), #937, .F.);
#931 = FACE_OUTER_BOUND('', #932, .F.);
#932 = EDGE_LOOP('', (#933, #934, #935, #936));
#933 = ORIENTED_EDGE('', *, *, #900, .F.);
#934 = ORIENTED_EDGE('', *, *, #920, .T.);
#935 = ORIENTED_EDGE('', *, *, #838, .T.);
#936 = ORIENTED_EDGE('', *, *, #872, .F.);
#937 = B_SPLINE_SURFACE_WITH_KNOTS('', 1, 1, ((#938, #939), (#940, #941)), .UNSPECIFIED., .F., .F., .U., (2, 2), (2, 2), (0., 3.), (0., 5.23), .UNSPECIFIED.);
#938 = CARTESIAN_POINT('', (12.605, 6.16, 42.43));
#939 = CARTESIAN_POINT('', (12.605, 6.16, 47.66));
#940 = CARTESIAN_POINT('', (12.605, 9.16, 42.43));
#941 = CARTESIAN_POINT('', (12.605, 9.16, 47.66));
#942 = ADVANCED_FACE('', (#943), #949, .F.);
#943 = FACE_OUTER_BOUND('', #944, .F.);
#944 = EDGE_LOOP('', (#945, #946, #947, #948));
#945 = ORIENTED_EDGE('', *, *, #886, .T.);
#946 = ORIENTED_EDGE('', *, *, #858, .T.);
#947 = ORIENTED_EDGE('', *, *, #822, .F.);
#948 = ORIENTED_EDGE('', *, *, #914, .F.);
#949 = B_SPLINE_SURFACE_WITH_KNOTS('', 1, 1, ((#950, #951), (#952, #953)), .UNSPECIFIED., .F., .F., .U., (2, 2), (2, 2), (0., 5.23), (0., 3.), .UNSPECIFIED.);
#950 = CARTESIAN_POINT('', (-12.605, 6.16, 42.43));
#951 = CARTESIAN_POINT('', (-12.605, 9.16, 42.43));
#952 = CARTESIAN_POINT('', (-12.605, 6.16, 47.66));
#953 = CARTESIAN_POINT('', (-12.605, 9.16, 47.66));
#954 = CLOSED_SHELL('', (#955, #991, #1019, #1047, #1067, #1079));
#955 = ADVANCED_FACE('', (#956), #986, .F.);
#956 = FACE_OUTER_BOUND('', #957, .F.);
#957 = EDGE_LOOP('', (#958, #967, #974, #981));
#958 = ORIENTED_EDGE('', *, *, #959, .T.);
#959 = EDGE_CURVE('', #960, #962, #964, .T.);
#960 = VERTEX_POINT('', #961);
#961 = CARTESIAN_POINT('', (-12.605, 9.16, 52.44));
#962 = VERTEX_POINT('', #963);
#963 = CARTESIAN_POINT('', (-12.605, 9.16, 57.67));
#964 = B_SPLINE_CURVE_WITH_KNOTS('', 1, (#965, #966), .UNSPECIFIED., .F., .U., (2, 2), (0., 5.23), .UNSPECIFIED.);
#965 = CARTESIAN_POINT('', (-12.605, 9.16, 52.44));
#966 = CARTESIAN_POINT('', (-12.605, 9.16, 57.67));
#967 = ORIENTED_EDGE('', *, *, #968, .T.);
#968 = EDGE_CURVE('', #962, #969, #971, .T.);
#969 = VERTEX_POINT('', #970);
#970 = CARTESIAN_POINT('', (12.605, 9.16, 57.67));
#971 = B_SPLINE_CURVE_WITH_KNOTS('', 1, (#972, #973), .UNSPECIFIED., .F., .U., (2, 2), (0., 25.21), .UNSPECIFIED.);
#972 = CARTESIAN_POINT('', (-12.605, 9.16, 57.67));
#973 = CARTESIAN_POINT('', (12.605, 9.16, 57.67));
#974 = ORIENTED_EDGE('', *, *, #975, .F.);
#975 = EDGE_CURVE('', #976, #969, #978, .T.);
#976 = VERTEX_POINT('', #977);
#977 = CARTESIAN_POINT('', (12.605, 9.16, 52.44));
#978 = B_SPLINE_CURVE_WITH_KNOTS('', 1, (#979, #980), .UNSPECIFIED., .F., .U., (2, 2), (0., 5.23), .UNSPECIFIED.);
#979 = CARTESIAN_POINT('', (12.605, 9.16, 52.44));
#980 = CARTESIAN_POINT('', (12.605, 9.16, 57.67));
#981 = ORIENTED_EDGE('', *, *, #982, .F.);
#982 = EDGE_CURVE('', #960, #976, #983, .T.);
#983 = B_SPLINE_CURVE_WITH_KNOTS('', 1, (#984, #985), .UNSPECIFIED., .F., .U., (2, 2), (0., 25.21), .UNSPECIFIED.);
#984 = CARTESIAN_POINT('', (-12.605, 9.16, 52.44));
#985 = CARTESIAN_POINT('', (12.605, 9.16, 52.44));
#986 = B_SPLINE_SURFACE_WITH_KNOTS('', 1, 1, ((#987, #988), (#989, #990)), .UNSPECIFIED., .F., .F., .U., (2, 2), (2, 2), (0., 5.23), (0., 25.21), .UNSPECIFIED.);
#987 = CARTESIAN_POINT('', (-12.605, 9.16, 52.44));
#988 = CARTESIAN_POINT('', (12.605, 9.16, 52.44));
#989 = CARTESIAN_POINT('', (-12.605, 9.16, 57.67));
#990 = CARTESIAN_POINT('', (12.605, 9.16, 57.67));
#991 = ADVANCED_FACE('', (#992), #1014, .F.);
#992 = FACE_OUTER_BOUND('', #993, .F.);
#993 = EDGE_LOOP('', (#994, #1001, #1008, #1013));
#994 = ORIENTED_EDGE('', *, *, #995, .F.);
#995 = EDGE_CURVE('', #996, #962, #998, .T.);
#996 = VERTEX_POINT('', #997);
#997 = CARTESIAN_POINT('', (-12.605, 6.16, 57.67));
#998 = B_SPLINE_CURVE_WITH_KNOTS('', 1, (#999, #1000), .UNSPECIFIED., .F., .U., (2, 2), (0., 3.), .UNSPECIFIED.);
#999 = CARTESIAN_POINT('', (-12.605, 6.16, 57.67));
#1000 = CARTESIAN_POINT('', (-12.605, 9.16, 57.67));
#1001 = ORIENTED_EDGE('', *, *, #1002, .T.);
#1002 = EDGE_CURVE('', #996, #1003, #1005, .T.);
#1003 = VERTEX_POINT('', #1004);
#1004 = CARTESIAN_POINT('', (12.605, 6.16, 57.67));
#1005 = B_SPLINE_CURVE_WITH_KNOTS('', 1, (#1006, #1007), .UNSPECIFIED., .F., .U., (2, 2), (0., 25.21), .UNSPECIFIED.);
#1006 = CARTESIAN_POINT('', (-12.605, 6.16, 57.67));
#1007 = CARTESIAN_POINT('', (12.605, 6.16, 57.67));
#1008 = ORIENTED_EDGE('', *, *, #1009, .T.);
#1009 = EDGE_CURVE('', #1003, #969, #1010, .T.);
#1010 = B_SPLINE_CURVE_WITH_KNOTS('', 1, (#1011, #1012), .UNSPECIFIED., .F., .U., (2, 2), (0., 3.), .UNSPECIFIED.);
#1011 = CARTESIAN_POINT('', (12.605, 6.16, 57.67));
#1012 = CARTESIAN_POINT('', (12.605, 9.16, 57.67));
#1013 = ORIENTED_EDGE('', *, *, #968, .F.);
#1014 = B_SPLINE_SURFACE_WITH_KNOTS('', 1, 1, ((#1015, #1016), (#1017, #1018)), .UNSPECIFIED., .F., .F., .U., (2, 2), (2, 2), (0., 25.21), (0., 3.), .UNSPECIFIED.);
#1015 = CARTESIAN_POINT('', (-12.605, 6.16, 57.67));
#1016 = CARTESIAN_POINT('', (-12.605, 9.16, 57.67));
#1017 = CARTESIAN_POINT('', (12.605, 6.16, 57.67));
#1018 = CARTESIAN_POINT('', (12.605, 9.16, 57.67));
#1019 = ADVANCED_FACE('', (#1020), #1042, .F.);
#1020 = FACE_OUTER_BOUND('', #1021, .F.);
#1021 = EDGE_LOOP('', (#1022, #1029, #1036, #1041));
#1022 = ORIENTED_EDGE('', *, *, #1023, .F.);
#1023 = EDGE_CURVE('', #1024, #996, #1026, .T.);
#1024 = VERTEX_POINT('', #1025);
#1025 = CARTESIAN_POINT('', (-12.605, 6.16, 52.44));
#1026 = B_SPLINE_CURVE_WITH_KNOTS('', 1, (#1027, #1028), .UNSPECIFIED., .F., .U., (2, 2), (0., 5.23), .UNSPECIFIED.);
#1027 = CARTESIAN_POINT('', (-12.605, 6.16, 52.44));
#1028 = CARTESIAN_POINT('', (-12.605, 6.16, 57.67));
#1029 = ORIENTED_EDGE('', *, *, #1030, .T.);
#1030 = EDGE_CURVE('', #1024, #1031, #1033, .T.);
#1031 = VERTEX_POINT('', #1032);
#1032 = CARTESIAN_POINT('', (12.605, 6.16, 52.44));
#1033 = B_SPLINE_CURVE_WITH_KNOTS('', 1, (#1034, #1035), .UNSPECIFIED., .F., .U., (2, 2), (0., 25.21), .UNSPECIFIED.);
#1034 = CARTESIAN_POINT('', (-12.605, 6.16, 52.44));
#1035 = CARTESIAN_POINT('', (12.605, 6.16, 52.44));
#1036 = ORIENTED_EDGE('', *, *, #1037, .T.);
#1037 = EDGE_CURVE('', #1031, #1003, #1038, .T.);
#1038 = B_SPLINE_CURVE_WITH_KNOTS('', 1, (#1039, #1040), .UNSPECIFIED., .F., .U., (2, 2), (0., 5.23), .UNSPECIFIED.);
#1039 = CARTESIAN_POINT('', (12.605, 6.16, 52.44));
#1040 = CARTESIAN_POINT('', (12.605, 6.16, 57.67));
#1041 = ORIENTED_EDGE('', *, *, #1002, .F.);
#1042 = B_SPLINE_SURFACE_WITH_KNOTS('', 1, 1, ((#1043, #1044), (#1045, #1046)), .UNSPECIFIED., .F., .F., .U., (2, 2), (2, 2), (0., 25.21), (0., 5.23), .UNSPECIFIED.);
#1043 = CARTESIAN_POINT('', (-12.605, 6.16, 52.44));
#1044 = CARTESIAN_POINT('', (-12.605, 6.16, 57.67));
#1045 = CARTESIAN_POINT('', (12.605, 6.16, 52.44));
#1046 = CARTESIAN_POINT('', (12.605, 6.16, 57.67));
#1047 = ADVANCED_FACE('', (#1048), #1062, .F.);
#1048 = FACE_OUTER_BOUND('', #1049, .F.);
#1049 = EDGE_LOOP('', (#1050, #1055, #1056, #1061));
#1050 = ORIENTED_EDGE('', *, *, #1051, .T.);
#1051 = EDGE_CURVE('', #1024, #960, #1052, .T.);
#1052 = B_SPLINE_CURVE_WITH_KNOTS('', 1, (#1053, #1054), .UNSPECIFIED., .F., .U., (2, 2), (0., 3.), .UNSPECIFIED.);
#1053 = CARTESIAN_POINT('', (-12.605, 6.16, 52.44));
#1054 = CARTESIAN_POINT('', (-12.605, 9.16, 52.44));
#1055 = ORIENTED_EDGE('', *, *, #982, .T.);
#1056 = ORIENTED_EDGE('', *, *, #1057, .F.);
#1057 = EDGE_CURVE('', #1031, #976, #1058, .T.);
#1058 = B_SPLINE_CURVE_WITH_KNOTS('', 1, (#1059, #1060), .UNSPECIFIED., .F., .U., (2, 2), (0., 3.), .UNSPECIFIED.);
#1059 = CARTESIAN_POINT('', (12.605, 6.16, 52.44));
#1060 = CARTESIAN_POINT('', (12.605, 9.16, 52.44));
#1061 = ORIENTED_EDGE('', *, *, #1030, .F.);
#1062 = B_SPLINE_SURFACE_WITH_KNOTS('', 1, 1, ((#1063, #1064), (#1065, #1066)), .UNSPECIFIED., .F., .F., .U., (2, 2), (2, 2), (0., 3.), (0., 25.21), .UNSPECIFIED.);
#1063 = CARTESIAN_POINT('', (-12.605, 6.16, 52.44));
#1064 = CARTESIAN_POINT('', (12.605, 6.16, 52.44));
#1065 = CARTESIAN_POINT('', (-12.605, 9.16, 52.44));
#1066 = CARTESIAN_POINT('', (12.605, 9.16, 52.44));
#1067 = ADVANCED_FACE('', (#1068), #1074, .F.);
#1068 = FACE_OUTER_BOUND('', #1069, .F.);
#1069 = EDGE_LOOP('', (#1070, #1071, #1072, #1073));
#1070 = ORIENTED_EDGE('', *, *, #1037, .F.);
#1071 = ORIENTED_EDGE('', *, *, #1057, .T.);
#1072 = ORIENTED_EDGE('', *, *, #975, .T.);
#1073 = ORIENTED_EDGE('', *, *, #1009, .F.);
#1074 = B_SPLINE_SURFACE_WITH_KNOTS('', 1, 1, ((#1075, #1076), (#1077, #1078)), .UNSPECIFIED., .F., .F., .U., (2, 2), (2, 2), (0., 3.), (0., 5.23), .UNSPECIFIED.);
#1075 = CARTESIAN_POINT('', (12.605, 6.16, 52.44));
#1076 = CARTESIAN_POINT('', (12.605, 6.16, 57.67));
#1077 = CARTESIAN_POINT('', (12.605, 9.16, 52.44));
#1078 = CARTESIAN_POINT('', (12.605, 9.16, 57.67));
#1079 = ADVANCED_FACE('', (#1080), #1086, .F.);
#1080 = FACE_OUTER_BOUND('', #1081, .F.);
#1081 = EDGE_LOOP('', (#1082, #1083, #1084, #1085));
#1082 = ORIENTED_EDGE('', *, *, #1023, .T.);
#1083 = ORIENTED_EDGE('', *, *, #995, .T.);
#1084 = ORIENTED_EDGE('', *, *, #959, .F.);
#1085 = ORIENTED_EDGE('', *, *, #1051, .F.);
#1086 = B_SPLINE_SURFACE_WITH_KNOTS('', 1, 1, ((#1087, #1088), (#1089, #1090)), .UNSPECIFIED., .F., .F., .U., (2, 2), (2, 2), (0., 5.23), (0., 3.), .UNSPECIFIED.);
#1087 = CARTESIAN_POINT('', (-12.605, 6.16, 52.44));
#1088 = CARTESIAN_POINT('', (-12.605, 9.16, 52.44));
#1089 = CARTESIAN_POINT('', (-12.605, 6.16, 57.67));
#1090 = CARTESIAN_POINT('', (-12.605, 9.16, 57.67));
#1091 = CLOSED_SHELL('', (#1092, #1128, #1156, #1184, #1204, #1216));
#1092 = ADVANCED_FACE('', (#1093), #1123, .F.);
#1093 = FACE_OUTER_BOUND('', #1094, .F.);
#1094 = EDGE_LOOP('', (#1095, #1104, #1111, #1118));
#1095 = ORIENTED_EDGE('', *, *, #1096, .T.);
#1096 = EDGE_CURVE('', #1097, #1099, #1101, .T.);
#1097 = VERTEX_POINT('', #1098);
#1098 = CARTESIAN_POINT('', (-12.605, 9.16, 62.45));
#1099 = VERTEX_POINT('', #1100);
#1100 = CARTESIAN_POINT('', (-12.605, 9.16, 67.68));
#1101 = B_SPLINE_CURVE_WITH_KNOTS('', 1, (#1102, #1103), .UNSPECIFIED., .F., .U., (2, 2), (0., 5.23), .UNSPECIFIED.);
#1102 = CARTESIAN_POINT('', (-12.605, 9.16, 62.45));
#1103 = CARTESIAN_POINT('', (-12.605, 9.16, 67.68));
#1104 = ORIENTED_EDGE('', *, *, #1105, .T.);
#1105 = EDGE_CURVE('', #1099, #1106, #1108, .T.);
#1106 = VERTEX_POINT('', #1107);
#1107 = CARTESIAN_POINT('', (12.605, 9.16, 67.68));
#1108 = B_SPLINE_CURVE_WITH_KNOTS('', 1, (#1109, #1110), .UNSPECIFIED., .F., .U., (2, 2), (0., 25.21), .UNSPECIFIED.);
#1109 = CARTESIAN_POINT('', (-12.605, 9.16, 67.68));
#1110 = CARTESIAN_POINT('', (12.605, 9.16, 67.68));
#1111 = ORIENTED_EDGE('', *, *, #1112, .F.);
#1112 = EDGE_CURVE('', #1113, #1106, #1115, .T.);
#1113 = VERTEX_POINT('', #1114);
#1114 = CARTESIAN_POINT('', (12.605, 9.16, 62.45));
#1115 = B_SPLINE_CURVE_WITH_KNOTS('', 1, (#1116, #1117), .UNSPECIFIED., .F., .U., (2, 2), (0., 5.23), .UNSPECIFIED.);
#1116 = CARTESIAN_POINT('', (12.605, 9.16, 62.45));
#1117 = CARTESIAN_POINT('', (12.605, 9.16, 67.68));
#1118 = ORIENTED_EDGE('', *, *, #1119, .F.);
#1119 = EDGE_CURVE('', #1097, #1113, #1120, .T.);
#1120 = B_SPLINE_CURVE_WITH_KNOTS('', 1, (#1121, #1122), .UNSPECIFIED., .F., .U., (2, 2), (0., 25.21), .UNSPECIFIED.);
#1121 = CARTESIAN_POINT('', (-12.605, 9.16, 62.45));
#1122 = CARTESIAN_POINT('', (12.605, 9.16, 62.45));
#1123 = B_SPLINE_SURFACE_WITH_KNOTS('', 1, 1, ((#1124, #1125), (#1126, #1127)), .UNSPECIFIED., .F., .F., .U., (2, 2), (2, 2), (0., 5.23), (0., 25.21), .UNSPECIFIED.);
#1124 = CARTESIAN_POINT('', (-12.605, 9.16, 62.45));
#1125 = CARTESIAN_POINT('', (12.605, 9.16, 62.45));
#1126 = CARTESIAN_POINT('', (-12.605, 9.16, 67.68));
#1127 = CARTESIAN_POINT('', (12.605, 9.16, 67.68));
#1128 = ADVANCED_FACE('', (#1129), #1151, .F.);
#1129 = FACE_OUTER_BOUND('', #1130, .F.);
#1130 = EDGE_LOOP('', (#1131, #1138, #1145, #1150));
#1131 = ORIENTED_EDGE('', *, *, #1132, .F.);
#1132 = EDGE_CURVE('', #1133, #1099, #1135, .T.);
#1133 = VERTEX_POINT('', #1134);
#1134 = CARTESIAN_POINT('', (-12.605, 6.16, 67.68));
#1135 = B_SPLINE_CURVE_WITH_KNOTS('', 1, (#1136, #1137), .UNSPECIFIED., .F., .U., (2, 2), (0., 3.), .UNSPECIFIED.);
#1136 = CARTESIAN_POINT('', (-12.605, 6.16, 67.68));
#1137 = CARTESIAN_POINT('', (-12.605, 9.16, 67.68));
#1138 = ORIENTED_EDGE('', *, *, #1139, .T.);
#1139 = EDGE_CURVE('', #1133, #1140, #1142, .T.);
#1140 = VERTEX_POINT('', #1141);
#1141 = CARTESIAN_POINT('', (12.605, 6.16, 67.68));
#1142 = B_SPLINE_CURVE_WITH_KNOTS('', 1, (#1143, #1144), .UNSPECIFIED., .F., .U., (2, 2), (0., 25.21), .UNSPECIFIED.);
#1143 = CARTESIAN_POINT('', (-12.605, 6.16, 67.68));
#1144 = CARTESIAN_POINT('', (12.605, 6.16, 67.68));
#1145 = ORIENTED_EDGE('', *, *, #1146, .T.);
#1146 = EDGE_CURVE('', #1140, #1106, #1147, .T.);
#1147 = B_SPLINE_CURVE_WITH_KNOTS('', 1, (#1148, #1149), .UNSPECIFIED., .F., .U., (2, 2), (0., 3.), .UNSPECIFIED.);
#1148 = CARTESIAN_POINT('', (12.605, 6.16, 67.68));
#1149 = CARTESIAN_POINT('', (12.605, 9.16, 67.68));
#1150 = ORIENTED_EDGE('', *, *, #1105, .F.);
#1151 = B_SPLINE_SURFACE_WITH_KNOTS('', 1, 1, ((#1152, #1153), (#1154, #1155)), .UNSPECIFIED., .F., .F., .U., (2, 2), (2, 2), (0., 25.21), (0., 3.), .UNSPECIFIED.);
#1152 = CARTESIAN_POINT('', (-12.605, 6.16, 67.68));
#1153 = CARTESIAN_POINT('', (-12.605, 9.16, 67.68));
#1154 = CARTESIAN_POINT('', (12.605, 6.16, 67.68));
#1155 = CARTESIAN_POINT('', (12.605, 9.16, 67.68));
#1156 = ADVANCED_FACE('', (#1157), #1179, .F.);
#1157 = FACE_OUTER_BOUND('', #1158, .F.);
#1158 = EDGE_LOOP('', (#1159, #1166, #1173, #1178));
#1159 = ORIENTED_EDGE('', *, *, #1160, .F.);
#1160 = EDGE_CURVE('', #1161, #1133, #1163, .T.);
#1161 = VERTEX_POINT('', #1162);
#1162 = CARTESIAN_POINT('', (-12.605, 6.16, 62.45));
#1163 = B_SPLINE_CURVE_WITH_KNOTS('', 1, (#1164, #1165), .UNSPECIFIED., .F., .U., (2, 2), (0., 5.23), .UNSPECIFIED.);
#1164 = CARTESIAN_POINT('', (-12.605, 6.16, 62.45));
#1165 = CARTESIAN_POINT('', (-12.605, 6.16, 67.68));
#1166 = ORIENTED_EDGE('', *, *, #1167, .T.);
#1167 = EDGE_CURVE('', #1161, #1168, #1170, .T.);
#1168 = VERTEX_POINT('', #1169);
#1169 = CARTESIAN_POINT('', (12.605, 6.16, 62.45));
#1170 = B_SPLINE_CURVE_WITH_KNOTS('', 1, (#1171, #1172), .UNSPECIFIED., .F., .U., (2, 2), (0., 25.21), .UNSPECIFIED.);
#1171 = CARTESIAN_POINT('', (-12.605, 6.16, 62.45));
#1172 = CARTESIAN_POINT('', (12.605, 6.16, 62.45));
#1173 = ORIENTED_EDGE('', *, *, #1174, .T.);
#1174 = EDGE_CURVE('', #1168, #1140, #1175, .T.);
#1175 = B_SPLINE_CURVE_WITH_KNOTS('', 1, (#1176, #1177), .UNSPECIFIED., .F., .U., (2, 2), (0., 5.23), .UNSPECIFIED.);
#1176 = CARTESIAN_POINT('', (12.605, 6.16, 62.45));
#1177 = CARTESIAN_POINT('', (12.605, 6.16, 67.68));
#1178 = ORIENTED_EDGE('', *, *, #1139, .F.);
#1179 = B_SPLINE_SURFACE_WITH_KNOTS('', 1, 1, ((#1180, #1181), (#1182, #1183)), .UNSPECIFIED., .F., .F., .U., (2, 2), (2, 2), (0., 25.21), (0., 5.23), .UNSPECIFIED.);
#1180 = CARTESIAN_POINT('', (-12.605, 6.16, 62.45));
#1181 = CARTESIAN_POINT('', (-12.605, 6.16, 67.68));
#1182 = CARTESIAN_POINT('', (12.605, 6.16, 62.45));
#1183 = CARTESIAN_POINT('', (12.605, 6.16, 67.68));
#1184 = ADVANCED_FACE('', (#1185), #1199, .F.);
#1185 = FACE_OUTER_BOUND('', #1186, .F.);
#1186 = EDGE_LOOP('', (#1187, #1192, #1193, #1198));
#1187 = ORIENTED_EDGE('', *, *, #1188, .T.);
#1188 = EDGE_CURVE('', #1161, #1097, #1189, .T.);
#1189 = B_SPLINE_CURVE_WITH_KNOTS('', 1, (#1190, #1191), .UNSPECIFIED., .F., .U., (2, 2), (0., 3.), .UNSPECIFIED.);
#1190 = CARTESIAN_POINT('', (-12.605, 6.16, 62.45));
#1191 = CARTESIAN_POINT('', (-12.605, 9.16, 62.45));
#1192 = ORIENTED_EDGE('', *, *, #1119, .T.);
#1193 = ORIENTED_EDGE('', *, *, #1194, .F.);
#1194 = EDGE_CURVE('', #1168, #1113, #1195, .T.);
#1195 = B_SPLINE_CURVE_WITH_KNOTS('', 1, (#1196, #1197), .UNSPECIFIED., .F., .U., (2, 2), (0., 3.), .UNSPECIFIED.);
#1196 = CARTESIAN_POINT('', (12.605, 6.16, 62.45));
#1197 = CARTESIAN_POINT('', (12.605, 9.16, 62.45));
#1198 = ORIENTED_EDGE('', *, *, #1167, .F.);
#1199 = B_SPLINE_SURFACE_WITH_KNOTS('', 1, 1, ((#1200, #1201), (#1202, #1203)), .UNSPECIFIED., .F., .F., .U., (2, 2), (2, 2), (0., 3.), (0., 25.21), .UNSPECIFIED.);
#1200 = CARTESIAN_POINT('', (-12.605, 6.16, 62.45));
#1201 = CARTESIAN_POINT('', (12.605, 6.16, 62.45));
#1202 = CARTESIAN_POINT('', (-12.605, 9.16, 62.45));
#1203 = CARTESIAN_POINT('', (12.605, 9.16, 62.45));
#1204 = ADVANCED_FACE('', (#1205), #1211, .F.);
#1205 = FACE_OUTER_BOUND('', #1206, .F.);
#1206 = EDGE_LOOP('', (#1207, #1208, #1209, #1210));
#1207 = ORIENTED_EDGE('', *, *, #1174, .F.);
#1208 = ORIENTED_EDGE('', *, *, #1194, .T.);
#1209 = ORIENTED_EDGE('', *, *, #1112, .T.);
#1210 = ORIENTED_EDGE('', *, *, #1146, .F.);
#1211 = B_SPLINE_SURFACE_WITH_KNOTS('', 1, 1, ((#1212, #1213), (#1214, #1215)), .UNSPECIFIED., .F., .F., .U., (2, 2), (2, 2), (0., 3.), (0., 5.23), .UNSPECIFIED.);
#1212 = CARTESIAN_POINT('', (12.605, 6.16, 62.45));
#1213 = CARTESIAN_POINT('', (12.605, 6.16, 67.68));
#1214 = CARTESIAN_POINT('', (12.605, 9.16, 62.45));
#1215 = CARTESIAN_POINT('', (12.605, 9.16, 67.68));
#1216 = ADVANCED_FACE('', (#1217), #1223, .F.);
#1217 = FACE_OUTER_BOUND('', #1218, .F.);
#1218 = EDGE_LOOP('', (#1219, #1220, #1221, #1222));
#1219 = ORIENTED_EDGE('', *, *, #1160, .T.);
#1220 = ORIENTED_EDGE('', *, *, #1132, .T.);
#1221 = ORIENTED_EDGE('', *, *, #1096, .F.);
#1222 = ORIENTED_EDGE('', *, *, #1188, .F.);
#1223 = B_SPLINE_SURFACE_WITH_KNOTS('', 1, 1, ((#1224, #1225), (#1226, #1227)), .UNSPECIFIED., .F., .F., .U., (2, 2), (2, 2), (0., 5.23), (0., 3.), .UNSPECIFIED.);
#1224 = CARTESIAN_POINT('', (-12.605, 6.16, 62.45));
#1225 = CARTESIAN_POINT('', (-12.605, 9.16, 62.45));
#1226 = CARTESIAN_POINT('', (-12.605, 6.16, 67.68));
#1227 = CARTESIAN_POINT('', (-12.605, 9.16, 67.68));
#1228 = CLOSED_SHELL('', (#1229, #1265, #1293, #1321, #1341, #1353));
#1229 = ADVANCED_FACE('', (#1230), #1260, .F.);
#1230 = FACE_OUTER_BOUND('', #1231, .F.);
#1231 = EDGE_LOOP('', (#1232, #1241, #1248, #1255));
#1232 = ORIENTED_EDGE('', *, *, #1233, .T.);
#1233 = EDGE_CURVE('', #1234, #1236, #1238, .T.);
#1234 = VERTEX_POINT('', #1235);
#1235 = CARTESIAN_POINT('', (-12.605, 9.16, 72.46));
#1236 = VERTEX_POINT('', #1237);
#1237 = CARTESIAN_POINT('', (-12.605, 9.16, 77.69));
#1238 = B_SPLINE_CURVE_WITH_KNOTS('', 1, (#1239, #1240), .UNSPECIFIED., .F., .U., (2, 2), (0., 5.23), .UNSPECIFIED.);
#1239 = CARTESIAN_POINT('', (-12.605, 9.16, 72.46));
#1240 = CARTESIAN_POINT('', (-12.605, 9.16, 77.69));
#1241 = ORIENTED_EDGE('', *, *, #1242, .T.);
#1242 = EDGE_CURVE('', #1236, #1243, #1245, .T.);
#1243 = VERTEX_POINT('', #1244);
#1244 = CARTESIAN_POINT('', (12.605, 9.16, 77.69));
#1245 = B_SPLINE_CURVE_WITH_KNOTS('', 1, (#1246, #1247), .UNSPECIFIED., .F., .U., (2, 2), (0., 25.21), .UNSPECIFIED.);
#1246 = CARTESIAN_POINT('', (-12.605, 9.16, 77.69));
#1247 = CARTESIAN_POINT('', (12.605, 9.16, 77.69));
#1248 = ORIENTED_EDGE('', *, *, #1249, .F.);
#1249 = EDGE_CURVE('', #1250, #1243, #1252, .T.);
#1250 = VERTEX_POINT('', #1251);
#1251 = CARTESIAN_POINT('', (12.605, 9.16, 72.46));
#1252 = B_SPLINE_CURVE_WITH_KNOTS('', 1, (#1253, #1254), .UNSPECIFIED., .F., .U., (2, 2), (0., 5.23), .UNSPECIFIED.);
#1253 = CARTESIAN_POINT('', (12.605, 9.16, 72.46));
#1254 = CARTESIAN_POINT('', (12.605, 9.16, 77.69));
#1255 = ORIENTED_EDGE('', *, *, #1256, .F.);
#1256 = EDGE_CURVE('', #1234, #1250, #1257, .T.);
#1257 = B_SPLINE_CURVE_WITH_KNOTS('', 1, (#1258, #1259), .UNSPECIFIED., .F., .U., (2, 2), (0., 25.21), .UNSPECIFIED.);
#1258 = CARTESIAN_POINT('', (-12.605, 9.16, 72.46));
#1259 = CARTESIAN_POINT('', (12.605, 9.16, 72.46));
#1260 = B_SPLINE_SURFACE_WITH_KNOTS('', 1, 1, ((#1261, #1262), (#1263, #1264)), .UNSPECIFIED., .F., .F., .U., (2, 2), (2, 2), (0., 5.23), (0., 25.21), .UNSPECIFIED.);
#1261 = CARTESIAN_POINT('', (-12.605, 9.16, 72.46));
#1262 = CARTESIAN_POINT('', (12.605, 9.16, 72.46));
#1263 = CARTESIAN_POINT('', (-12.605, 9.16, 77.69));
#1264 = CARTESIAN_POINT('', (12.605, 9.16, 77.69));
#1265 = ADVANCED_FACE('', (#1266), #1288, .F.);
#1266 = FACE_OUTER_BOUND('', #1267, .F.);
#1267 = EDGE_LOOP('', (#1268, #1275, #1282, #1287));
#1268 = ORIENTED_EDGE('', *, *, #1269, .F.);
#1269 = EDGE_CURVE('', #1270, #1236, #1272, .T.);
#1270 = VERTEX_POINT('', #1271);
#1271 = CARTESIAN_POINT('', (-12.605, 6.16, 77.69));
#1272 = B_SPLINE_CURVE_WITH_KNOTS('', 1, (#1273, #1274), .UNSPECIFIED., .F., .U., (2, 2), (0., 3.), .UNSPECIFIED.);
#1273 = CARTESIAN_POINT('', (-12.605, 6.16, 77.69));
#1274 = CARTESIAN_POINT('', (-12.605, 9.16, 77.69));
#1275 = ORIENTED_EDGE('', *, *, #1276, .T.);
#1276 = EDGE_CURVE('', #1270, #1277, #1279, .T.);
#1277 = VERTEX_POINT('', #1278);
#1278 = CARTESIAN_POINT('', (12.605, 6.16, 77.69));
#1279 = B_SPLINE_CURVE_WITH_KNOTS('', 1, (#1280, #1281), .UNSPECIFIED., .F., .U., (2, 2), (0., 25.21), .UNSPECIFIED.);
#1280 = CARTESIAN_POINT('', (-12.605, 6.16, 77.69));
#1281 = CARTESIAN_POINT('', (12.605, 6.16, 77.69));
#1282 = ORIENTED_EDGE('', *, *, #1283, .T.);
#1283 = EDGE_CURVE('', #1277, #1243, #1284, .T.);
#1284 = B_SPLINE_CURVE_WITH_KNOTS('', 1, (#1285, #1286), .UNSPECIFIED., .F., .U., (2, 2), (0., 3.), .UNSPECIFIED.);
#1285 = CARTESIAN_POINT('', (12.605, 6.16, 77.69));
#1286 = CARTESIAN_POINT('', (12.605, 9.16, 77.69));
#1287 = ORIENTED_EDGE('', *, *, #1242, .F.);
#1288 = B_SPLINE_SURFACE_WITH_KNOTS('', 1, 1, ((#1289, #1290), (#1291, #1292)), .UNSPECIFIED., .F., .F., .U., (2, 2), (2, 2), (0., 25.21), (0., 3.), .UNSPECIFIED.);
#1289 = CARTESIAN_POINT('', (-12.605, 6.16, 77.69));
#1290 = CARTESIAN_POINT('', (-12.605, 9.16, 77.69));
#1291 = CARTESIAN_POINT('', (12.605, 6.16, 77.69));
#1292 = CARTESIAN_POINT('', (12.605, 9.16, 77.69));
#1293 = ADVANCED_FACE('', (#1294), #1316, .F.);
#1294 = FACE_OUTER_BOUND('', #1295, .F.);
#1295 = EDGE_LOOP('', (#1296, #1303, #1310, #1315));
#1296 = ORIENTED_EDGE('', *, *, #1297, .F.);
#1297 = EDGE_CURVE('', #1298, #1270, #1300, .T.);
#1298 = VERTEX_POINT('', #1299);
#1299 = CARTESIAN_POINT('', (-12.605, 6.16, 72.46));
#1300 = B_SPLINE_CURVE_WITH_KNOTS('', 1, (#1301, #1302), .UNSPECIFIED., .F., .U., (2, 2), (0., 5.23), .UNSPECIFIED.);
#1301 = CARTESIAN_POINT('', (-12.605, 6.16, 72.46));
#1302 = CARTESIAN_POINT('', (-12.605, 6.16, 77.69));
#1303 = ORIENTED_EDGE('', *, *, #1304, .T.);
#1304 = EDGE_CURVE('', #1298, #1305, #1307, .T.);
#1305 = VERTEX_POINT('', #1306);
#1306 = CARTESIAN_POINT('', (12.605, 6.16, 72.46));
#1307 = B_SPLINE_CURVE_WITH_KNOTS('', 1, (#1308, #1309), .UNSPECIFIED., .F., .U., (2, 2), (0., 25.21), .UNSPECIFIED.);
#1308 = CARTESIAN_POINT('', (-12.605, 6.16, 72.46));
#1309 = CARTESIAN_POINT('', (12.605, 6.16, 72.46));
#1310 = ORIENTED_EDGE('', *, *, #1311, .T.);
#1311 = EDGE_CURVE('', #1305, #1277, #1312, .T.);
#1312 = B_SPLINE_CURVE_WITH_KNOTS('', 1, (#1313, #1314), .UNSPECIFIED., .F., .U., (2, 2), (0., 5.23), .UNSPECIFIED.);
#1313 = CARTESIAN_POINT('', (12.605, 6.16, 72.46));
#1314 = CARTESIAN_POINT('', (12.605, 6.16, 77.69));
#1315 = ORIENTED_EDGE('', *, *, #1276, .F.);
#1316 = B_SPLINE_SURFACE_WITH_KNOTS('', 1, 1, ((#1317, #1318), (#1319, #1320)), .UNSPECIFIED., .F., .F., .U., (2, 2), (2, 2), (0., 25.21), (0., 5.23), .UNSPECIFIED.);
#1317 = CARTESIAN_POINT('', (-12.605, 6.16, 72.46));
#1318 = CARTESIAN_POINT('', (-12.605, 6.16, 77.69));
#1319 = CARTESIAN_POINT('', (12.605, 6.16, 72.46));
#1320 = CARTESIAN_POINT('', (12.605, 6.16, 77.69));
#1321 = ADVANCED_FACE('', (#1322), #1336, .F.);
#1322 = FACE_OUTER_BOUND('', #1323, .F.);
#1323 = EDGE_LOOP('', (#1324, #1329, #1330, #1335));
#1324 = ORIENTED_EDGE('', *, *, #1325, .T.);
#1325 = EDGE_CURVE('', #1298, #1234, #1326, .T.);
#1326 = B_SPLINE_CURVE_WITH_KNOTS('', 1, (#1327, #1328), .UNSPECIFIED., .F., .U., (2, 2), (0., 3.), .UNSPECIFIED.);
#1327 = CARTESIAN_POINT('', (-12.605, 6.16, 72.46));
#1328 = CARTESIAN_POINT('', (-12.605, 9.16, 72.46));
#1329 = ORIENTED_EDGE('', *, *, #1256, .T.);
#1330 = ORIENTED_EDGE('', *, *, #1331, .F.);
#1331 = EDGE_CURVE('', #1305, #1250, #1332, .T.);
#1332 = B_SPLINE_CURVE_WITH_KNOTS('', 1, (#1333, #1334), .UNSPECIFIED., .F., .U., (2, 2), (0., 3.), .UNSPECIFIED.);
#1333 = CARTESIAN_POINT('', (12.605, 6.16, 72.46));
#1334 = CARTESIAN_POINT('', (12.605, 9.16, 72.46));
#1335 = ORIENTED_EDGE('', *, *, #1304, .F.);
#1336 = B_SPLINE_SURFACE_WITH_KNOTS('', 1, 1, ((#1337, #1338), (#1339, #1340)), .UNSPECIFIED., .F., .F., .U., (2, 2), (2, 2), (0., 3.), (0., 25.21), .UNSPECIFIED.);
#1337 = CARTESIAN_POINT('', (-12.605, 6.16, 72.46));
#1338 = CARTESIAN_POINT('', (12.605, 6.16, 72.46));
#1339 = CARTESIAN_POINT('', (-12.605, 9.16, 72.46));
#1340 = CARTESIAN_POINT('', (12.605, 9.16, 72.46));
#1341 = ADVANCED_FACE('', (#1342), #1348, .F.);
#1342 = FACE_OUTER_BOUND('', #1343, .F.);
#1343 = EDGE_LOOP('', (#1344, #1345, #1346, #1347));
#1344 = ORIENTED_EDGE('', *, *, #1311, .F.);
#1345 = ORIENTED_EDGE('', *, *, #1331, .T.);
#1346 = ORIENTED_EDGE('', *, *, #1249, .T.);
#1347 = ORIENTED_EDGE('', *, *, #1283, .F.);
#1348 = B_SPLINE_SURFACE_WITH_KNOTS('', 1, 1, ((#1349, #1350), (#1351, #1352)), .UNSPECIFIED., .F., .F., .U., (2, 2), (2, 2), (0., 3.), (0., 5.23), .UNSPECIFIED.);
#1349 = CARTESIAN_POINT('', (12.605, 6.16, 72.46));
#1350 = CARTESIAN_POINT('', (12.605, 6.16, 77.69));
#1351 = CARTESIAN_POINT('', (12.605, 9.16, 72.46));
#1352 = CARTESIAN_POINT('', (12.605, 9.16, 77.69));
#1353 = ADVANCED_FACE('', (#1354), #1360, .F.);
#1354 = FACE_OUTER_BOUND('', #1355, .F.);
#1355 = EDGE_LOOP('', (#1356, #1357, #1358, #1359));
#1356 = ORIENTED_EDGE('', *, *, #1297, .T.);
#1357 = ORIENTED_EDGE('', *, *, #1269, .T.);
#1358 = ORIENTED_EDGE('', *, *, #1233, .F.);
#1359 = ORIENTED_EDGE('', *, *, #1325, .F.);
#1360 = B_SPLINE_SURFACE_WITH_KNOTS('', 1, 1, ((#1361, #1362), (#1363, #1364)), .UNSPECIFIED., .F., .F., .U., (2, 2), (2, 2), (0., 5.23), (0., 3.), .UNSPECIFIED.);
#1361 = CARTESIAN_POINT('', (-12.605, 6.16, 72.46));
#1362 = CARTESIAN_POINT('', (-12.605, 9.16, 72.46));
#1363 = CARTESIAN_POINT('', (-12.605, 6.16, 77.69));
#1364 = CARTESIAN_POINT('', (-12.605, 9.16, 77.69));
#1365 = CLOSED_SHELL('', (#1366, #1402, #1430, #1458, #1478, #1490));
#1366 = ADVANCED_FACE('', (#1367), #1397, .F.);
#1367 = FACE_OUTER_BOUND('', #1368, .F.);
#1368 = EDGE_LOOP('', (#1369, #1378, #1385, #1392));
#1369 = ORIENTED_EDGE('', *, *, #1370, .T.);
#1370 = EDGE_CURVE('', #1371, #1373, #1375, .T.);
#1371 = VERTEX_POINT('', #1372);
#1372 = CARTESIAN_POINT('', (-12.605, 9.16, 82.47));
#1373 = VERTEX_POINT('', #1374);
#1374 = CARTESIAN_POINT('', (-12.605, 9.16, 87.7));
#1375 = B_SPLINE_CURVE_WITH_KNOTS('', 1, (#1376, #1377), .UNSPECIFIED., .F., .U., (2, 2), (0., 5.23), .UNSPECIFIED.);
#1376 = CARTESIAN_POINT('', (-12.605, 9.16, 82.47));
#1377 = CARTESIAN_POINT('', (-12.605, 9.16, 87.7));
#1378 = ORIENTED_EDGE('', *, *, #1379, .T.);
#1379 = EDGE_CURVE('', #1373, #1380, #1382, .T.);
#1380 = VERTEX_POINT('', #1381);
#1381 = CARTESIAN_POINT('', (12.605, 9.16, 87.7));
#1382 = B_SPLINE_CURVE_WITH_KNOTS('', 1, (#1383, #1384), .UNSPECIFIED., .F., .U., (2, 2), (0., 25.21), .UNSPECIFIED.);
#1383 = CARTESIAN_POINT('', (-12.605, 9.16, 87.7));
#1384 = CARTESIAN_POINT('', (12.605, 9.16, 87.7));
#1385 = ORIENTED_EDGE('', *, *, #1386, .F.);
#1386 = EDGE_CURVE('', #1387, #1380, #1389, .T.);
#1387 = VERTEX_POINT('', #1388);
#1388 = CARTESIAN_POINT('', (12.605, 9.16, 82.47));
#1389 = B_SPLINE_CURVE_WITH_KNOTS('', 1, (#1390, #1391), .UNSPECIFIED., .F., .U., (2, 2), (0., 5.23), .UNSPECIFIED.);
#1390 = CARTESIAN_POINT('', (12.605, 9.16, 82.47));
#1391 = CARTESIAN_POINT('', (12.605, 9.16, 87.7));
#1392 = ORIENTED_EDGE('', *, *, #1393, .F.);
#1393 = EDGE_CURVE('', #1371, #1387, #1394, .T.);
#1394 = B_SPLINE_CURVE_WITH_KNOTS('', 1, (#1395, #1396), .UNSPECIFIED., .F., .U., (2, 2), (0., 25.21), .UNSPECIFIED.);
#1395 = CARTESIAN_POINT('', (-12.605, 9.16, 82.47));
#1396 = CARTESIAN_POINT('', (12.605, 9.16, 82.47));
#1397 = B_SPLINE_SURFACE_WITH_KNOTS('', 1, 1, ((#1398, #1399), (#1400, #1401)), .UNSPECIFIED., .F., .F., .U., (2, 2), (2, 2), (0., 5.23), (0., 25.21), .UNSPECIFIED.);
#1398 = CARTESIAN_POINT('', (-12.605, 9.16, 82.47));
#1399 = CARTESIAN_POINT('', (12.605, 9.16, 82.47));
#1400 = CARTESIAN_POINT('', (-12.605, 9.16, 87.7));
#1401 = CARTESIAN_POINT('', (12.605, 9.16, 87.7));
#1402 = ADVANCED_FACE('', (#1403), #1425, .F.);
#1403 = FACE_OUTER_BOUND('', #1404, .F.);
#1404 = EDGE_LOOP('', (#1405, #1412, #1419, #1424));
#1405 = ORIENTED_EDGE('', *, *, #1406, .F.);
#1406 = EDGE_CURVE('', #1407, #1373, #1409, .T.);
#1407 = VERTEX_POINT('', #1408);
#1408 = CARTESIAN_POINT('', (-12.605, 6.16, 87.7));
#1409 = B_SPLINE_CURVE_WITH_KNOTS('', 1, (#1410, #1411), .UNSPECIFIED., .F., .U., (2, 2), (0., 3.), .UNSPECIFIED.);
#1410 = CARTESIAN_POINT('', (-12.605, 6.16, 87.7));
#1411 = CARTESIAN_POINT('', (-12.605, 9.16, 87.7));
#1412 = ORIENTED_EDGE('', *, *, #1413, .T.);
#1413 = EDGE_CURVE('', #1407, #1414, #1416, .T.);
#1414 = VERTEX_POINT('', #1415);
#1415 = CARTESIAN_POINT('', (12.605, 6.16, 87.7));
#1416 = B_SPLINE_CURVE_WITH_KNOTS('', 1, (#1417, #1418), .UNSPECIFIED., .F., .U., (2, 2), (0., 25.21), .UNSPECIFIED.);
#1417 = CARTESIAN_POINT('', (-12.605, 6.16, 87.7));
#1418 = CARTESIAN_POINT('', (12.605, 6.16, 87.7));
#1419 = ORIENTED_EDGE('', *, *, #1420, .T.);
#1420 = EDGE_CURVE('', #1414, #1380, #1421, .T.);
#1421 = B_SPLINE_CURVE_WITH_KNOTS('', 1, (#1422, #1423), .UNSPECIFIED., .F., .U., (2, 2), (0., 3.), .UNSPECIFIED.);
#1422 = CARTESIAN_POINT('', (12.605, 6.16, 87.7));
#1423 = CARTESIAN_POINT('', (12.605, 9.16, 87.7));
#1424 = ORIENTED_EDGE('', *, *, #1379, .F.);
#1425 = B_SPLINE_SURFACE_WITH_KNOTS('', 1, 1, ((#1426, #1427), (#1428, #1429)), .UNSPECIFIED., .F., .F., .U., (2, 2), (2, 2), (0., 25.21), (0., 3.), .UNSPECIFIED.);
#1426 = CARTESIAN_POINT('', (-12.605, 6.16, 87.7));
#1427 = CARTESIAN_POINT('', (-12.605, 9.16, 87.7));
#1428 = CARTESIAN_POINT('', (12.605, 6.16, 87.7));
#1429 = CARTESIAN_POINT('', (12.605, 9.16, 87.7));
#1430 = ADVANCED_FACE('', (#1431), #1453, .F.);
#1431 = FACE_OUTER_BOUND('', #1432, .F.);
#1432 = EDGE_LOOP('', (#1433, #1440, #1447, #1452));
#1433 = ORIENTED_EDGE('', *, *, #1434, .F.);
#1434 = EDGE_CURVE('', #1435, #1407, #1437, .T.);
#1435 = VERTEX_POINT('', #1436);
#1436 = CARTESIAN_POINT('', (-12.605, 6.16, 82.47));
#1437 = B_SPLINE_CURVE_WITH_KNOTS('', 1, (#1438, #1439), .UNSPECIFIED., .F., .U., (2, 2), (0., 5.23), .UNSPECIFIED.);
#1438 = CARTESIAN_POINT('', (-12.605, 6.16, 82.47));
#1439 = CARTESIAN_POINT('', (-12.605, 6.16, 87.7));
#1440 = ORIENTED_EDGE('', *, *, #1441, .T.);
#1441 = EDGE_CURVE('', #1435, #1442, #1444, .T.);
#1442 = VERTEX_POINT('', #1443);
#1443 = CARTESIAN_POINT('', (12.605, 6.16, 82.47));
#1444 = B_SPLINE_CURVE_WITH_KNOTS('', 1, (#1445, #1446), .UNSPECIFIED., .F., .U., (2, 2), (0., 25.21), .UNSPECIFIED.);
#1445 = CARTESIAN_POINT('', (-12.605, 6.16, 82.47));
#1446 = CARTESIAN_POINT('', (12.605, 6.16, 82.47));
#1447 = ORIENTED_EDGE('', *, *, #1448, .T.);
#1448 = EDGE_CURVE('', #1442, #1414, #1449, .T.);
#1449 = B_SPLINE_CURVE_WITH_KNOTS('', 1, (#1450, #1451), .UNSPECIFIED., .F., .U., (2, 2), (0., 5.23), .UNSPECIFIED.);
#1450 = CARTESIAN_POINT('', (12.605, 6.16, 82.47));
#1451 = CARTESIAN_POINT('', (12.605, 6.16, 87.7));
#1452 = ORIENTED_EDGE('', *, *, #1413, .F.);
#1453 = B_SPLINE_SURFACE_WITH_KNOTS('', 1, 1, ((#1454, #1455), (#1456, #1457)), .UNSPECIFIED., .F., .F., .U., (2, 2), (2, 2), (0., 25.21), (0., 5.23), .UNSPECIFIED.);
#1454 = CARTESIAN_POINT('', (-12.605, 6.16, 82.47));
#1455 = CARTESIAN_POINT('', (-12.605, 6.16, 87.7));
#1456 = CARTESIAN_POINT('', (12.605, 6.16, 82.47));
#1457 = CARTESIAN_POINT('', (12.605, 6.16, 87.7));
#1458 = ADVANCED_FACE('', (#1459), #1473, .F.);
#1459 = FACE_OUTER_BOUND('', #1460, .F.);
#1460 = EDGE_LOOP('', (#1461, #1466, #1467, #1472));
#1461 = ORIENTED_EDGE('', *, *, #1462, .T.);
#1462 = EDGE_CURVE('', #1435, #1371, #1463, .T.);
#1463 = B_SPLINE_CURVE_WITH_KNOTS('', 1, (#1464, #1465), .UNSPECIFIED., .F., .U., (2, 2), (0., 3.), .UNSPECIFIED.);
#1464 = CARTESIAN_POINT('', (-12.605, 6.16, 82.47));
#1465 = CARTESIAN_POINT('', (-12.605, 9.16, 82.47));
#1466 = ORIENTED_EDGE('', *, *, #1393, .T.);
#1467 = ORIENTED_EDGE('', *, *, #1468, .F.);
#1468 = EDGE_CURVE('', #1442, #1387, #1469, .T.);
#1469 = B_SPLINE_CURVE_WITH_KNOTS('', 1, (#1470, #1471), .UNSPECIFIED., .F., .U., (2, 2), (0., 3.), .UNSPECIFIED.);
#1470 = CARTESIAN_POINT('', (12.605, 6.16, 82.47));
#1471 = CARTESIAN_POINT('', (12.605, 9.16, 82.47));
#1472 = ORIENTED_EDGE('', *, *, #1441, .F.);
#1473 = B_SPLINE_SURFACE_WITH_KNOTS('', 1, 1, ((#1474, #1475), (#1476, #1477)), .UNSPECIFIED., .F., .F., .U., (2, 2), (2, 2), (0., 3.), (0., 25.21), .UNSPECIFIED.);
#1474 = CARTESIAN_POINT('', (-12.605, 6.16, 82.47));
#1475 = CARTESIAN_POINT('', (12.605, 6.16, 82.47));
#1476 = CARTESIAN_POINT('', (-12.605, 9.16, 82.47));
#1477 = CARTESIAN_POINT('', (12.605, 9.16, 82.47));
#1478 = ADVANCED_FACE('', (#1479), #1485, .F.);
#1479 = FACE_OUTER_BOUND('', #1480, .F.);
#1480 = EDGE_LOOP('', (#1481, #1482, #1483, #1484));
#1481 = ORIENTED_EDGE('', *, *, #1448, .F.);
#1482 = ORIENTED_EDGE('', *, *, #1468, .T.);
#1483 = ORIENTED_EDGE('', *, *, #1386, .T.);
#1484 = ORIENTED_EDGE('', *, *, #1420, .F.);
#1485 = B_SPLINE_SURFACE_WITH_KNOTS('', 1, 1, ((#1486, #1487), (#1488, #1489)), .UNSPECIFIED., .F., .F., .U., (2, 2), (2, 2), (0., 3.), (0., 5.23), .UNSPECIFIED.);
#1486 = CARTESIAN_POINT('', (12.605, 6.16, 82.47));
#1487 = CARTESIAN_POINT('', (12.605, 6.16, 87.7));
#1488 = CARTESIAN_POINT('', (12.605, 9.16, 82.47));
#1489 = CARTESIAN_POINT('', (12.605, 9.16, 87.7));
#1490 = ADVANCED_FACE('', (#1491), #1497, .F.);
#1491 = FACE_OUTER_BOUND('', #1492, .F.);
#1492 = EDGE_LOOP('', (#1493, #1494, #1495, #1496));
#1493 = ORIENTED_EDGE('', *, *, #1434, .T.);
#1494 = ORIENTED_EDGE('', *, *, #1406, .T.);
#1495 = ORIENTED_EDGE('', *, *, #1370, .F.);
#1496 = ORIENTED_EDGE('', *, *, #1462, .F.);
#1497 = B_SPLINE_SURFACE_WITH_KNOTS('', 1, 1, ((#1498, #1499), (#1500, #1501)), .UNSPECIFIED., .F., .F., .U., (2, 2), (2, 2), (0., 5.23), (0., 3.), .UNSPECIFIED.);
#1498 = CARTESIAN_POINT('', (-12.605, 6.16, 82.47));
#1499 = CARTESIAN_POINT('', (-12.605, 9.16, 82.47));
#1500 = CARTESIAN_POINT('', (-12.605, 6.16, 87.7));
#1501 = CARTESIAN_POINT('', (-12.605, 9.16, 87.7));
#1502 = PRESENTATION_STYLE_ASSIGNMENT((#1503));
#1503 = SURFACE_STYLE_USAGE(.POSITIVE., #1504);
#1504 = SURFACE_SIDE_STYLE('', (#1505));
#1505 = SURFACE_STYLE_FILL_AREA(#1506);
#1506 = FILL_AREA_STYLE('', (#1507));
#1507 = FILL_AREA_STYLE_COLOUR('', #1508);
#1508 = COLOUR_RGB('', 0.50196078431373, 0.50196078431373, 0.50196078431373);
#1509 = STYLED_ITEM('', (#1502), #268);
#1510 = CARTESIAN_POINT('Origin', (0., 0., 0.));
#1511 = GEOMETRIC_SET('', (#1510));
#1512 = AXIS2_PLACEMENT_3D('SlotOrigin', #1513, #1514, #1515);
#1513 = CARTESIAN_POINT('', (-12.605, 6.16, 2.39));
#1514 = DIRECTION('', (0., 0., 1.));
#1515 = DIRECTION('', (1., 0., 0.));
#1516 = (
   GEOMETRIC_REPRESENTATION_CONTEXT (3)
   GLOBAL_UNCERTAINTY_ASSIGNED_CONTEXT ((#1518))
   GLOBAL_UNIT_ASSIGNED_CONTEXT ((#1517, #1519, #1520))
   REPRESENTATION_CONTEXT ('', '3D')
);
#1517 = (
   LENGTH_UNIT ()
   NAMED_UNIT (*)
   SI_UNIT (.MILLI., .METRE.)
);
#1518 = UNCERTAINTY_MEASURE_WITH_UNIT(LENGTH_MEASURE(1.E-6), #1517, 'DISTANCE_ACCURACY_VALUE', '');
#1519 = (
   NAMED_UNIT (*)
   SI_UNIT ($, .STERADIAN.)
   SOLID_ANGLE_UNIT ()
);
#1520 = (
   NAMED_UNIT (*)
   PLANE_ANGLE_UNIT ()
   SI_UNIT ($, .RADIAN.)
);
#1521 = SHAPE_REPRESENTATION('', (#1540), #1516);
#1522 = PRODUCT_DEFINITION_SHAPE('', '', #1523);
#1523 = PRODUCT_DEFINITION('', '', #1526, #1530);
#1524 = APPLICATION_CONTEXT('configuration controlled 3D designs of mechanical parts and assemblies');
#1525 = APPLICATION_PROTOCOL_DEFINITION('International Standard', 'automotive_design', 2002, #1524);
#1526 = PRODUCT_DEFINITION_FORMATION_WITH_SPECIFIED_SOURCE('', '', #1527, .NOT_KNOWN.);
#1527 = PRODUCT('PicatinnyRail', 'PicatinnyRail', '', (#1528));
#1528 = PRODUCT_CONTEXT('', #1524, 'mechanical');
#1529 = PRODUCT_RELATED_PRODUCT_CATEGORY('detail', '', (#1527));
#1530 = PRODUCT_DEFINITION_CONTEXT('part definition', #1524, 'design');
#1531 = SHAPE_DEFINITION_REPRESENTATION(#1522, #1521);
#1532 = CONSTRUCTIVE_GEOMETRY_REPRESENTATION('supplemental geometry', (#1512), #1516);
#1533 = CONSTRUCTIVE_GEOMETRY_REPRESENTATION_RELATIONSHIP('', '', #1521, #1532);
#1534 = SHAPE_REPRESENTATION_RELATIONSHIP('', '', #1521, #1535);
#1535 = SHAPE_REPRESENTATION('', (#1511), #1516);
#1536 = SHAPE_REPRESENTATION_RELATIONSHIP('', '', #1521, #1537);
#1537 = ADVANCED_BREP_SHAPE_REPRESENTATION('', (#1), #1516);
#1538 = SHAPE_REPRESENTATION_RELATIONSHIP('', '', #1521, #1539);
#1539 = MANIFOLD_SURFACE_SHAPE_REPRESENTATION('', (#268), #1516);
#1540 = AXIS2_PLACEMENT_3D('', #1541, #1542, #1543);
#1541 = CARTESIAN_POINT('', (0., 0., 0.));
#1542 = DIRECTION('', (0., 0., 1.));
#1543 = DIRECTION('', (1., 0., 0.));
ENDSEC;
END-ISO-10303-21;
