ISO-10303-21;
HEADER;
FILE_DESCRIPTION(('STEP'), '1');
FILE_NAME('Test', '2026-04-21T20:19:34', (''), (''), 'Express 3.1.2.0', 'Express Tool', 'Unknown');
FILE_SCHEMA(('AUTOMOTIVE_DESIGN'));
ENDSEC;

DATA;
#1 = MANIFOLD_SOLID_BREP('CylFillet_0', #2);
#2 = CLOSED_SHELL('', (#3, #59, #68, #121));
#3 = ADVANCED_FACE('', (#4), #40, .T.);
#4 = FACE_OUTER_BOUND('', #5, .T.);
#5 = EDGE_LOOP('', (#6, #20, #27, #39));
#6 = ORIENTED_EDGE('', *, *, #7, .T.);
#7 = EDGE_CURVE('', #8, #8, #10, .T.);
#8 = VERTEX_POINT('', #9);
#9 = CARTESIAN_POINT('', (30., -1.57772181044202E-30, 10.));
#10 = (
   BOUNDED_CURVE ()
   B_SPLINE_CURVE (2, (#11, #12, #13, #14, #15, #16, #17, #18, #19), .UNSPECIFIED., .T., .U.)
   B_SPLINE_CURVE_WITH_KNOTS ((3, 2, 2, 2, 3), (0., 0.25, 0.5, 0.75, 1.), .UNSPECIFIED.)
   CURVE ()
   GEOMETRIC_REPRESENTATION_ITEM ()
   RATIONAL_B_SPLINE_CURVE ((1., 0.707106781186548, 1., 0.707106781186548, 1., 0.707106781186548, 1., 0.707106781186548, 1.))
   REPRESENTATION_ITEM ('')
);
#11 = CARTESIAN_POINT('', (30., -1.57772181044202E-30, 10.));
#12 = CARTESIAN_POINT('', (30., 30., 10.));
#13 = CARTESIAN_POINT('', (1.83697019872103E-15, 30., 10.));
#14 = CARTESIAN_POINT('', (-30., 30., 10.));
#15 = CARTESIAN_POINT('', (-30., 3.67394039744206E-15, 10.));
#16 = CARTESIAN_POINT('', (-30., -30., 10.));
#17 = CARTESIAN_POINT('', (-5.51091059616309E-15, -30., 10.));
#18 = CARTESIAN_POINT('', (30., -30., 10.));
#19 = CARTESIAN_POINT('', (30., -1.57772181044202E-30, 10.));
#20 = ORIENTED_EDGE('', *, *, #21, .T.);
#21 = EDGE_CURVE('', #8, #22, #24, .T.);
#22 = VERTEX_POINT('', #23);
#23 = CARTESIAN_POINT('', (30., 0., 80.));
#24 = B_SPLINE_CURVE_WITH_KNOTS('', 1, (#25, #26), .UNSPECIFIED., .F., .U., (2, 2), (10., 80.), .UNSPECIFIED.);
#25 = CARTESIAN_POINT('', (30., 0., 10.));
#26 = CARTESIAN_POINT('', (30., 0., 80.));
#27 = ORIENTED_EDGE('', *, *, #28, .F.);
#28 = EDGE_CURVE('', #22, #22, #29, .T.);
#29 = (
   BOUNDED_CURVE ()
   B_SPLINE_CURVE (2, (#30, #31, #32, #33, #34, #35, #36, #37, #38), .UNSPECIFIED., .T., .U.)
   B_SPLINE_CURVE_WITH_KNOTS ((3, 2, 2, 2, 3), (0., 47.1238898038469, 94.2477796076938, 141.371669411541, 188.495559215388), .UNSPECIFIED.)
   CURVE ()
   GEOMETRIC_REPRESENTATION_ITEM ()
   RATIONAL_B_SPLINE_CURVE ((1., 0.707106781186548, 1., 0.707106781186548, 1., 0.707106781186548, 1., 0.707106781186548, 1.))
   REPRESENTATION_ITEM ('')
);
#30 = CARTESIAN_POINT('', (30., 0., 80.));
#31 = CARTESIAN_POINT('', (30., 30., 80.));
#32 = CARTESIAN_POINT('', (1.83697019872103E-15, 30., 80.));
#33 = CARTESIAN_POINT('', (-30., 30., 80.));
#34 = CARTESIAN_POINT('', (-30., 3.67394039744206E-15, 80.));
#35 = CARTESIAN_POINT('', (-30., -30., 80.));
#36 = CARTESIAN_POINT('', (-5.51091059616309E-15, -30., 80.));
#37 = CARTESIAN_POINT('', (30., -30., 80.));
#38 = CARTESIAN_POINT('', (30., 0., 80.));
#39 = ORIENTED_EDGE('', *, *, #21, .F.);
#40 = (
   BOUNDED_SURFACE ()
   B_SPLINE_SURFACE (2, 1, ((#41, #42), (#43, #44), (#45, #46), (#47, #48), (#49, #50), (#51, #52), (#53, #54), (#55, #56), (#57, #58)), .UNSPECIFIED., .T., .F., .U.)
   B_SPLINE_SURFACE_WITH_KNOTS ((3, 2, 2, 2, 3), (2, 2), (0., 47.1238898038469, 94.2477796076938, 141.371669411541, 188.495559215388), (10., 80.), .UNSPECIFIED.)
   GEOMETRIC_REPRESENTATION_ITEM ()
   RATIONAL_B_SPLINE_SURFACE (((1., 1.), (0.707106781186548, 0.707106781186548), (1., 1.), (0.707106781186548, 0.707106781186548), (1., 1.), (0.707106781186548, 0.707106781186548), (1., 1.), (0.707106781186548, 0.707106781186548), (1., 1.)))
   REPRESENTATION_ITEM ('')
   SURFACE ()
);
#41 = CARTESIAN_POINT('', (30., 0., 10.));
#42 = CARTESIAN_POINT('', (30., 0., 80.));
#43 = CARTESIAN_POINT('', (30., 30., 10.));
#44 = CARTESIAN_POINT('', (30., 30., 80.));
#45 = CARTESIAN_POINT('', (1.83697019872103E-15, 30., 10.));
#46 = CARTESIAN_POINT('', (1.83697019872103E-15, 30., 80.));
#47 = CARTESIAN_POINT('', (-30., 30., 10.));
#48 = CARTESIAN_POINT('', (-30., 30., 80.));
#49 = CARTESIAN_POINT('', (-30., 3.67394039744206E-15, 10.));
#50 = CARTESIAN_POINT('', (-30., 3.67394039744206E-15, 80.));
#51 = CARTESIAN_POINT('', (-30., -30., 10.));
#52 = CARTESIAN_POINT('', (-30., -30., 80.));
#53 = CARTESIAN_POINT('', (-5.51091059616309E-15, -30., 10.));
#54 = CARTESIAN_POINT('', (-5.51091059616309E-15, -30., 80.));
#55 = CARTESIAN_POINT('', (30., -30., 10.));
#56 = CARTESIAN_POINT('', (30., -30., 80.));
#57 = CARTESIAN_POINT('', (30., 0., 10.));
#58 = CARTESIAN_POINT('', (30., 0., 80.));
#59 = ADVANCED_FACE('', (#60), #63, .T.);
#60 = FACE_OUTER_BOUND('', #61, .T.);
#61 = EDGE_LOOP('', (#62));
#62 = ORIENTED_EDGE('', *, *, #28, .T.);
#63 = B_SPLINE_SURFACE_WITH_KNOTS('', 1, 1, ((#64, #65), (#66, #67)), .UNSPECIFIED., .F., .F., .U., (2, 2), (2, 2), (0.178587826733388, 0.821412173266613), (0.178587826733388, 0.821412173266612), .UNSPECIFIED.);
#64 = CARTESIAN_POINT('', (30., -30., 80.));
#65 = CARTESIAN_POINT('', (-30., -30., 80.));
#66 = CARTESIAN_POINT('', (30., 30., 80.));
#67 = CARTESIAN_POINT('', (-30., 30., 80.));
#68 = ADVANCED_FACE('', (#69), #93, .T.);
#69 = FACE_OUTER_BOUND('', #70, .T.);
#70 = EDGE_LOOP('', (#71, #85, #91, #92));
#71 = ORIENTED_EDGE('', *, *, #72, .T.);
#72 = EDGE_CURVE('', #73, #73, #75, .T.);
#73 = VERTEX_POINT('', #74);
#74 = CARTESIAN_POINT('', (20., -7.105427357601E-15, 0.));
#75 = (
   BOUNDED_CURVE ()
   B_SPLINE_CURVE (2, (#76, #77, #78, #79, #80, #81, #82, #83, #84), .UNSPECIFIED., .T., .U.)
   B_SPLINE_CURVE_WITH_KNOTS ((3, 2, 2, 2, 3), (0., 0.25, 0.5, 0.75, 1.), .UNSPECIFIED.)
   CURVE ()
   GEOMETRIC_REPRESENTATION_ITEM ()
   RATIONAL_B_SPLINE_CURVE ((1., 0.707106781186548, 1., 0.707106781186548, 1., 0.707106781186548, 1., 0.707106781186548, 1.))
   REPRESENTATION_ITEM ('')
);
#76 = CARTESIAN_POINT('', (20., -7.105427357601E-15, 0.));
#77 = CARTESIAN_POINT('', (20., 20., 0.));
#78 = CARTESIAN_POINT('', (8.33007415674835E-15, 20., 0.));
#79 = CARTESIAN_POINT('', (-20., 20., 0.));
#80 = CARTESIAN_POINT('', (-20., 9.55472095589571E-15, 0.));
#81 = CARTESIAN_POINT('', (-20., -20., 0.));
#82 = CARTESIAN_POINT('', (-1.07793677550431E-14, -20., 0.));
#83 = CARTESIAN_POINT('', (20., -20., 0.));
#84 = CARTESIAN_POINT('', (20., -7.105427357601E-15, 0.));
#85 = ORIENTED_EDGE('', *, *, #86, .F.);
#86 = EDGE_CURVE('', #8, #73, #87, .T.);
#87 = (
   BOUNDED_CURVE ()
   B_SPLINE_CURVE (2, (#88, #89, #90), .UNSPECIFIED., .F., .U.)
   B_SPLINE_CURVE_WITH_KNOTS ((3, 3), (0., 1.), .UNSPECIFIED.)
   CURVE ()
   GEOMETRIC_REPRESENTATION_ITEM ()
   RATIONAL_B_SPLINE_CURVE ((1., 0.707106781186548, 1.))
   REPRESENTATION_ITEM ('')
);
#88 = CARTESIAN_POINT('', (30., -1.57772181044202E-30, 10.));
#89 = CARTESIAN_POINT('', (30., -1.79526278219353E-30, 0.));
#90 = CARTESIAN_POINT('', (20., -7.105427357601E-15, 0.));
#91 = ORIENTED_EDGE('', *, *, #7, .F.);
#92 = ORIENTED_EDGE('', *, *, #86, .T.);
#93 = (
   BOUNDED_SURFACE ()
   B_SPLINE_SURFACE (2, 2, ((#94, #95, #96), (#97, #98, #99), (#100, #101, #102), (#103, #104, #105), (#106, #107, #108), (#109, #110, #111), (#112, #113, #114), (#115, #116, #117), (#118, #119, #120)), .UNSPECIFIED., .T., .F., .U.)
   B_SPLINE_SURFACE_WITH_KNOTS ((3, 2, 2, 2, 3), (3, 3), (0., 0.25, 0.5, 0.75, 1.), (0., 1.), .UNSPECIFIED.)
   GEOMETRIC_REPRESENTATION_ITEM ()
   RATIONAL_B_SPLINE_SURFACE (((1., 0.707106781186548, 1.), (0.707106781186548, 0.5, 0.707106781186548), (1., 0.707106781186548, 1.), (0.707106781186548, 0.5, 0.707106781186548), (1., 0.707106781186548, 1.), (0.707106781186548, 0.5, 0.707106781186548), (1., 0.707106781186548, 1.), (0.707106781186548, 0.5, 0.707106781186548), (1., 0.707106781186548, 1.)))
   REPRESENTATION_ITEM ('')
   SURFACE ()
);
#94 = CARTESIAN_POINT('', (20., -7.105427357601E-15, 0.));
#95 = CARTESIAN_POINT('', (30., -1.79526278219353E-30, 0.));
#96 = CARTESIAN_POINT('', (30., -1.57772181044202E-30, 10.));
#97 = CARTESIAN_POINT('', (20., 20., 0.));
#98 = CARTESIAN_POINT('', (30., 30., 0.));
#99 = CARTESIAN_POINT('', (30., 30., 10.));
#100 = CARTESIAN_POINT('', (8.33007415674835E-15, 20., 0.));
#101 = CARTESIAN_POINT('', (1.83697019872103E-15, 30., 0.));
#102 = CARTESIAN_POINT('', (1.83697019872103E-15, 30., 10.));
#103 = CARTESIAN_POINT('', (-20., 20., 0.));
#104 = CARTESIAN_POINT('', (-30., 30., 0.));
#105 = CARTESIAN_POINT('', (-30., 30., 10.));
#106 = CARTESIAN_POINT('', (-20., 9.55472095589571E-15, 0.));
#107 = CARTESIAN_POINT('', (-30., 3.67394039744206E-15, 0.));
#108 = CARTESIAN_POINT('', (-30., 3.67394039744206E-15, 10.));
#109 = CARTESIAN_POINT('', (-20., -20., 0.));
#110 = CARTESIAN_POINT('', (-30., -30., 0.));
#111 = CARTESIAN_POINT('', (-30., -30., 10.));
#112 = CARTESIAN_POINT('', (-1.07793677550431E-14, -20., 0.));
#113 = CARTESIAN_POINT('', (-5.51091059616309E-15, -30., 0.));
#114 = CARTESIAN_POINT('', (-5.51091059616309E-15, -30., 10.));
#115 = CARTESIAN_POINT('', (20., -20., 0.));
#116 = CARTESIAN_POINT('', (30., -30., 0.));
#117 = CARTESIAN_POINT('', (30., -30., 10.));
#118 = CARTESIAN_POINT('', (20., -7.105427357601E-15, 0.));
#119 = CARTESIAN_POINT('', (30., -1.79526278219353E-30, 0.));
#120 = CARTESIAN_POINT('', (30., -1.57772181044202E-30, 10.));
#121 = ADVANCED_FACE('', (#122), #125, .T.);
#122 = FACE_OUTER_BOUND('', #123, .T.);
#123 = EDGE_LOOP('', (#124));
#124 = ORIENTED_EDGE('', *, *, #72, .F.);
#125 = B_SPLINE_SURFACE_WITH_KNOTS('', 1, 1, ((#126, #127), (#128, #129)), .UNSPECIFIED., .F., .F., .U., (2, 2), (2, 2), (0.285725217822258, 0.714274782177742), (0.285725217822258, 0.714274782177742), .UNSPECIFIED.);
#126 = CARTESIAN_POINT('', (20., -20., 0.));
#127 = CARTESIAN_POINT('', (20., 20., 0.));
#128 = CARTESIAN_POINT('', (-20., -20., 0.));
#129 = CARTESIAN_POINT('', (-20., 20., 0.));
#130 = DRAUGHTING_MODEL('', (#138), #141);
#131 = PRESENTATION_STYLE_ASSIGNMENT((#132));
#132 = SURFACE_STYLE_USAGE(.POSITIVE., #133);
#133 = SURFACE_SIDE_STYLE('', (#134));
#134 = SURFACE_STYLE_FILL_AREA(#135);
#135 = FILL_AREA_STYLE('', (#136));
#136 = FILL_AREA_STYLE_COLOUR('', #137);
#137 = COLOUR_RGB('', 0.50196078431373, 0.50196078431373, 0.50196078431373);
#138 = STYLED_ITEM('', (#131), #1);
#139 = CARTESIAN_POINT('Origin', (0., 0., 0.));
#140 = GEOMETRIC_SET('', (#139));
#141 = (
   GEOMETRIC_REPRESENTATION_CONTEXT (3)
   GLOBAL_UNCERTAINTY_ASSIGNED_CONTEXT ((#143))
   GLOBAL_UNIT_ASSIGNED_CONTEXT ((#142, #144, #145))
   REPRESENTATION_CONTEXT ('', '3D')
);
#142 = (
   LENGTH_UNIT ()
   NAMED_UNIT (*)
   SI_UNIT (.MILLI., .METRE.)
);
#143 = UNCERTAINTY_MEASURE_WITH_UNIT(LENGTH_MEASURE(1.E-6), #142, 'DISTANCE_ACCURACY_VALUE', '');
#144 = (
   NAMED_UNIT (*)
   SI_UNIT ($, .STERADIAN.)
   SOLID_ANGLE_UNIT ()
);
#145 = (
   NAMED_UNIT (*)
   PLANE_ANGLE_UNIT ()
   SI_UNIT ($, .RADIAN.)
);
#146 = SHAPE_REPRESENTATION('', (#161), #141);
#147 = PRODUCT_DEFINITION_SHAPE('', '', #148);
#148 = PRODUCT_DEFINITION('', '', #151, #155);
#149 = APPLICATION_CONTEXT('configuration controlled 3D designs of mechanical parts and assemblies');
#150 = APPLICATION_PROTOCOL_DEFINITION('International Standard', 'automotive_design', 2002, #149);
#151 = PRODUCT_DEFINITION_FORMATION_WITH_SPECIFIED_SOURCE('', '', #152, .NOT_KNOWN.);
#152 = PRODUCT('Test', 'Test', '', (#153));
#153 = PRODUCT_CONTEXT('', #149, 'mechanical');
#154 = PRODUCT_RELATED_PRODUCT_CATEGORY('detail', '', (#152));
#155 = PRODUCT_DEFINITION_CONTEXT('part definition', #149, 'design');
#156 = SHAPE_DEFINITION_REPRESENTATION(#147, #146);
#157 = SHAPE_REPRESENTATION_RELATIONSHIP('', '', #146, #158);
#158 = SHAPE_REPRESENTATION('', (#140), #141);
#159 = SHAPE_REPRESENTATION_RELATIONSHIP('', '', #146, #160);
#160 = ADVANCED_BREP_SHAPE_REPRESENTATION('', (#1), #141);
#161 = AXIS2_PLACEMENT_3D('', #162, #163, #164);
#162 = CARTESIAN_POINT('', (0., 0., 0.));
#163 = DIRECTION('', (0., 0., 1.));
#164 = DIRECTION('', (1., 0., 0.));
ENDSEC;
END-ISO-10303-21;
