ISO-10303-21;
HEADER;
FILE_DESCRIPTION(('STEP'), '1');
FILE_NAME('Test', '2026-04-21T20:21:21', (''), (''), 'Express 3.1.2.0', 'Express Tool', 'Unknown');
FILE_SCHEMA(('AUTOMOTIVE_DESIGN'));
ENDSEC;

DATA;
#1 = MANIFOLD_SOLID_BREP('Subtraction_0', #2);
#2 = CLOSED_SHELL('', (#3, #39, #67, #89, #119, #143, #161));
#3 = ADVANCED_FACE('', (#4), #34, .T.);
#4 = FACE_OUTER_BOUND('', #5, .T.);
#5 = EDGE_LOOP('', (#6, #15, #22, #29));
#6 = ORIENTED_EDGE('', *, *, #7, .T.);
#7 = EDGE_CURVE('', #8, #10, #12, .T.);
#8 = VERTEX_POINT('', #9);
#9 = CARTESIAN_POINT('', (0., 60., 0.));
#10 = VERTEX_POINT('', #11);
#11 = CARTESIAN_POINT('', (0., 60., 40.));
#12 = B_SPLINE_CURVE_WITH_KNOTS('', 1, (#13, #14), .UNSPECIFIED., .F., .U., (2, 2), (0., 40.), .UNSPECIFIED.);
#13 = CARTESIAN_POINT('', (0., 60., 0.));
#14 = CARTESIAN_POINT('', (0., 60., 40.));
#15 = ORIENTED_EDGE('', *, *, #16, .T.);
#16 = EDGE_CURVE('', #10, #17, #19, .T.);
#17 = VERTEX_POINT('', #18);
#18 = CARTESIAN_POINT('', (80., 60., 40.));
#19 = B_SPLINE_CURVE_WITH_KNOTS('', 1, (#20, #21), .UNSPECIFIED., .F., .U., (2, 2), (0., 80.), .UNSPECIFIED.);
#20 = CARTESIAN_POINT('', (0., 60., 40.));
#21 = CARTESIAN_POINT('', (80., 60., 40.));
#22 = ORIENTED_EDGE('', *, *, #23, .F.);
#23 = EDGE_CURVE('', #24, #17, #26, .T.);
#24 = VERTEX_POINT('', #25);
#25 = CARTESIAN_POINT('', (80., 60., 0.));
#26 = B_SPLINE_CURVE_WITH_KNOTS('', 1, (#27, #28), .UNSPECIFIED., .F., .U., (2, 2), (0., 40.), .UNSPECIFIED.);
#27 = CARTESIAN_POINT('', (80., 60., 0.));
#28 = CARTESIAN_POINT('', (80., 60., 40.));
#29 = ORIENTED_EDGE('', *, *, #30, .F.);
#30 = EDGE_CURVE('', #8, #24, #31, .T.);
#31 = B_SPLINE_CURVE_WITH_KNOTS('', 1, (#32, #33), .UNSPECIFIED., .F., .U., (2, 2), (0., 80.), .UNSPECIFIED.);
#32 = CARTESIAN_POINT('', (0., 60., 0.));
#33 = CARTESIAN_POINT('', (80., 60., 0.));
#34 = B_SPLINE_SURFACE_WITH_KNOTS('', 1, 1, ((#35, #36), (#37, #38)), .UNSPECIFIED., .F., .F., .U., (2, 2), (2, 2), (0., 40.), (0., 80.), .UNSPECIFIED.);
#35 = CARTESIAN_POINT('', (0., 60., 0.));
#36 = CARTESIAN_POINT('', (80., 60., 0.));
#37 = CARTESIAN_POINT('', (0., 60., 40.));
#38 = CARTESIAN_POINT('', (80., 60., 40.));
#39 = ADVANCED_FACE('', (#40), #62, .T.);
#40 = FACE_OUTER_BOUND('', #41, .T.);
#41 = EDGE_LOOP('', (#42, #49, #56, #61));
#42 = ORIENTED_EDGE('', *, *, #43, .F.);
#43 = EDGE_CURVE('', #44, #10, #46, .T.);
#44 = VERTEX_POINT('', #45);
#45 = CARTESIAN_POINT('', (0., 0., 40.));
#46 = B_SPLINE_CURVE_WITH_KNOTS('', 1, (#47, #48), .UNSPECIFIED., .F., .U., (2, 2), (0., 60.), .UNSPECIFIED.);
#47 = CARTESIAN_POINT('', (0., 0., 40.));
#48 = CARTESIAN_POINT('', (0., 60., 40.));
#49 = ORIENTED_EDGE('', *, *, #50, .T.);
#50 = EDGE_CURVE('', #44, #51, #53, .T.);
#51 = VERTEX_POINT('', #52);
#52 = CARTESIAN_POINT('', (80., 0., 40.));
#53 = B_SPLINE_CURVE_WITH_KNOTS('', 1, (#54, #55), .UNSPECIFIED., .F., .U., (2, 2), (0., 80.), .UNSPECIFIED.);
#54 = CARTESIAN_POINT('', (0., 0., 40.));
#55 = CARTESIAN_POINT('', (80., 0., 40.));
#56 = ORIENTED_EDGE('', *, *, #57, .T.);
#57 = EDGE_CURVE('', #51, #17, #58, .T.);
#58 = B_SPLINE_CURVE_WITH_KNOTS('', 1, (#59, #60), .UNSPECIFIED., .F., .U., (2, 2), (0., 60.), .UNSPECIFIED.);
#59 = CARTESIAN_POINT('', (80., 0., 40.));
#60 = CARTESIAN_POINT('', (80., 60., 40.));
#61 = ORIENTED_EDGE('', *, *, #16, .F.);
#62 = B_SPLINE_SURFACE_WITH_KNOTS('', 1, 1, ((#63, #64), (#65, #66)), .UNSPECIFIED., .F., .F., .U., (2, 2), (2, 2), (0., 80.), (0., 60.), .UNSPECIFIED.);
#63 = CARTESIAN_POINT('', (0., 0., 40.));
#64 = CARTESIAN_POINT('', (0., 60., 40.));
#65 = CARTESIAN_POINT('', (80., 0., 40.));
#66 = CARTESIAN_POINT('', (80., 60., 40.));
#67 = ADVANCED_FACE('', (#68), #84, .T.);
#68 = FACE_OUTER_BOUND('', #69, .T.);
#69 = EDGE_LOOP('', (#70, #77, #82, #83));
#70 = ORIENTED_EDGE('', *, *, #71, .F.);
#71 = EDGE_CURVE('', #72, #51, #74, .T.);
#72 = VERTEX_POINT('', #73);
#73 = CARTESIAN_POINT('', (80., 0., 0.));
#74 = B_SPLINE_CURVE_WITH_KNOTS('', 1, (#75, #76), .UNSPECIFIED., .F., .U., (2, 2), (0., 40.), .UNSPECIFIED.);
#75 = CARTESIAN_POINT('', (80., 0., 0.));
#76 = CARTESIAN_POINT('', (80., 0., 40.));
#77 = ORIENTED_EDGE('', *, *, #78, .T.);
#78 = EDGE_CURVE('', #72, #24, #79, .T.);
#79 = B_SPLINE_CURVE_WITH_KNOTS('', 1, (#80, #81), .UNSPECIFIED., .F., .U., (2, 2), (0., 60.), .UNSPECIFIED.);
#80 = CARTESIAN_POINT('', (80., 0., 0.));
#81 = CARTESIAN_POINT('', (80., 60., 0.));
#82 = ORIENTED_EDGE('', *, *, #23, .T.);
#83 = ORIENTED_EDGE('', *, *, #57, .F.);
#84 = B_SPLINE_SURFACE_WITH_KNOTS('', 1, 1, ((#85, #86), (#87, #88)), .UNSPECIFIED., .F., .F., .U., (2, 2), (2, 2), (0., 60.), (0., 40.), .UNSPECIFIED.);
#85 = CARTESIAN_POINT('', (80., 0., 0.));
#86 = CARTESIAN_POINT('', (80., 0., 40.));
#87 = CARTESIAN_POINT('', (80., 60., 0.));
#88 = CARTESIAN_POINT('', (80., 60., 40.));
#89 = ADVANCED_FACE('', (#90), #114, .T.);
#90 = FACE_OUTER_BOUND('', #91, .T.);
#91 = EDGE_LOOP('', (#92, #102, #107, #108, #109));
#92 = ORIENTED_EDGE('', *, *, #93, .F.);
#93 = EDGE_CURVE('', #94, #96, #98, .T.);
#94 = VERTEX_POINT('', #95);
#95 = CARTESIAN_POINT('', (0., 30., 0.));
#96 = VERTEX_POINT('', #97);
#97 = CARTESIAN_POINT('', (30., 0., 0.));
#98 = (
   BOUNDED_CURVE ()
   B_SPLINE_CURVE (2, (#99, #100, #101), .UNSPECIFIED., .F., .U.)
   B_SPLINE_CURVE_WITH_KNOTS ((3, 3), (0., 0.25), .UNSPECIFIED.)
   CURVE ()
   GEOMETRIC_REPRESENTATION_ITEM ()
   RATIONAL_B_SPLINE_CURVE ((1., 0.707106781186548, 1.))
   REPRESENTATION_ITEM ('')
);
#99 = CARTESIAN_POINT('', (0., 30., 0.));
#100 = CARTESIAN_POINT('', (30., 30., 0.));
#101 = CARTESIAN_POINT('', (30., 1.83697019872103E-15, 0.));
#102 = ORIENTED_EDGE('', *, *, #103, .T.);
#103 = EDGE_CURVE('', #94, #8, #104, .T.);
#104 = B_SPLINE_CURVE_WITH_KNOTS('', 1, (#105, #106), .UNSPECIFIED., .F., .U., (2, 2), (30., 60.), .UNSPECIFIED.);
#105 = CARTESIAN_POINT('', (0., 30., 0.));
#106 = CARTESIAN_POINT('', (0., 60., 0.));
#107 = ORIENTED_EDGE('', *, *, #30, .T.);
#108 = ORIENTED_EDGE('', *, *, #78, .F.);
#109 = ORIENTED_EDGE('', *, *, #110, .F.);
#110 = EDGE_CURVE('', #96, #72, #111, .T.);
#111 = B_SPLINE_CURVE_WITH_KNOTS('', 1, (#112, #113), .UNSPECIFIED., .F., .U., (2, 2), (30., 80.), .UNSPECIFIED.);
#112 = CARTESIAN_POINT('', (30., 0., 0.));
#113 = CARTESIAN_POINT('', (80., 0., 0.));
#114 = B_SPLINE_SURFACE_WITH_KNOTS('', 1, 1, ((#115, #116), (#117, #118)), .UNSPECIFIED., .F., .F., .U., (2, 2), (2, 2), (0., 60.), (0., 80.), .UNSPECIFIED.);
#115 = CARTESIAN_POINT('', (0., 0., 0.));
#116 = CARTESIAN_POINT('', (80., 0., 0.));
#117 = CARTESIAN_POINT('', (0., 60., 0.));
#118 = CARTESIAN_POINT('', (80., 60., 0.));
#119 = ADVANCED_FACE('', (#120), #138, .T.);
#120 = FACE_OUTER_BOUND('', #121, .T.);
#121 = EDGE_LOOP('', (#122, #130, #135, #136, #137));
#122 = ORIENTED_EDGE('', *, *, #123, .F.);
#123 = EDGE_CURVE('', #124, #94, #126, .T.);
#124 = VERTEX_POINT('', #125);
#125 = CARTESIAN_POINT('', (0., 0., 30.));
#126 = (
   BOUNDED_CURVE ()
   B_SPLINE_CURVE (2, (#127, #128, #129), .UNSPECIFIED., .F., .U.)
   B_SPLINE_CURVE_WITH_KNOTS ((3, 3), (0., 0.25), .UNSPECIFIED.)
   CURVE ()
   GEOMETRIC_REPRESENTATION_ITEM ()
   RATIONAL_B_SPLINE_CURVE ((1., 0.707106781186548, 1.))
   REPRESENTATION_ITEM ('')
);
#127 = CARTESIAN_POINT('', (0., 0., 30.));
#128 = CARTESIAN_POINT('', (0., 30., 30.));
#129 = CARTESIAN_POINT('', (0., 30., 1.83697019872103E-15));
#130 = ORIENTED_EDGE('', *, *, #131, .T.);
#131 = EDGE_CURVE('', #124, #44, #132, .T.);
#132 = B_SPLINE_CURVE_WITH_KNOTS('', 1, (#133, #134), .UNSPECIFIED., .F., .U., (2, 2), (30., 40.), .UNSPECIFIED.);
#133 = CARTESIAN_POINT('', (0., 0., 30.));
#134 = CARTESIAN_POINT('', (0., 0., 40.));
#135 = ORIENTED_EDGE('', *, *, #43, .T.);
#136 = ORIENTED_EDGE('', *, *, #7, .F.);
#137 = ORIENTED_EDGE('', *, *, #103, .F.);
#138 = B_SPLINE_SURFACE_WITH_KNOTS('', 1, 1, ((#139, #140), (#141, #142)), .UNSPECIFIED., .F., .F., .U., (2, 2), (2, 2), (0., 40.), (0., 60.), .UNSPECIFIED.);
#139 = CARTESIAN_POINT('', (0., 0., 0.));
#140 = CARTESIAN_POINT('', (0., 60., 0.));
#141 = CARTESIAN_POINT('', (0., 0., 40.));
#142 = CARTESIAN_POINT('', (0., 60., 40.));
#143 = ADVANCED_FACE('', (#144), #156, .T.);
#144 = FACE_OUTER_BOUND('', #145, .T.);
#145 = EDGE_LOOP('', (#146, #152, #153, #154, #155));
#146 = ORIENTED_EDGE('', *, *, #147, .F.);
#147 = EDGE_CURVE('', #96, #124, #148, .T.);
#148 = (
   BOUNDED_CURVE ()
   B_SPLINE_CURVE (2, (#149, #150, #151), .UNSPECIFIED., .F., .U.)
   B_SPLINE_CURVE_WITH_KNOTS ((3, 3), (0., 0.25), .UNSPECIFIED.)
   CURVE ()
   GEOMETRIC_REPRESENTATION_ITEM ()
   RATIONAL_B_SPLINE_CURVE ((1., 0.707106781186548, 1.))
   REPRESENTATION_ITEM ('')
);
#149 = CARTESIAN_POINT('', (30., 0., 0.));
#150 = CARTESIAN_POINT('', (30., 0., 30.));
#151 = CARTESIAN_POINT('', (1.83697019872103E-15, 0., 30.));
#152 = ORIENTED_EDGE('', *, *, #110, .T.);
#153 = ORIENTED_EDGE('', *, *, #71, .T.);
#154 = ORIENTED_EDGE('', *, *, #50, .F.);
#155 = ORIENTED_EDGE('', *, *, #131, .F.);
#156 = B_SPLINE_SURFACE_WITH_KNOTS('', 1, 1, ((#157, #158), (#159, #160)), .UNSPECIFIED., .F., .F., .U., (2, 2), (2, 2), (0., 80.), (0., 40.), .UNSPECIFIED.);
#157 = CARTESIAN_POINT('', (0., 0., 0.));
#158 = CARTESIAN_POINT('', (0., 0., 40.));
#159 = CARTESIAN_POINT('', (80., 0., 0.));
#160 = CARTESIAN_POINT('', (80., 0., 40.));
#161 = ADVANCED_FACE('', (#162), #167, .F.);
#162 = FACE_OUTER_BOUND('', #163, .F.);
#163 = EDGE_LOOP('', (#164, #165, #166));
#164 = ORIENTED_EDGE('', *, *, #123, .F.);
#165 = ORIENTED_EDGE('', *, *, #147, .F.);
#166 = ORIENTED_EDGE('', *, *, #93, .F.);
#167 = (
   BOUNDED_SURFACE ()
   B_SPLINE_SURFACE (2, 2, ((#168, #169, #170, #171, #172), (#173, #174, #175, #176, #177), (#178, #179, #180, #181, #182), (#183, #184, #185, #186, #187), (#188, #189, #190, #191, #192), (#193, #194, #195, #196, #197), (#198, #199, #200, #201, #202), (#203, #204, #205, #206, #207), (#208, #209, #210, #211, #212)), .UNSPECIFIED., .T., .F., .U.)
   B_SPLINE_SURFACE_WITH_KNOTS ((3, 2, 2, 2, 3), (3, 2, 3), (0., 0.25, 0.5, 0.75, 1.), (0., 0.5, 1.), .UNSPECIFIED.)
   GEOMETRIC_REPRESENTATION_ITEM ()
   RATIONAL_B_SPLINE_SURFACE (((1., 0.707106781186548, 1., 0.707106781186548, 1.), (0.707106781186548, 0.5, 0.707106781186548, 0.5, 0.707106781186548), (1., 0.707106781186548, 1., 0.707106781186548, 1.), (0.707106781186548, 0.5, 0.707106781186548, 0.5, 0.707106781186548), (1., 0.707106781186548, 1., 0.707106781186548, 1.), (0.707106781186548, 0.5, 0.707106781186548, 0.5, 0.707106781186548), (1., 0.707106781186548, 1., 0.707106781186548, 1.), (0.707106781186548, 0.5, 0.707106781186548, 0.5, 0.707106781186548), (1., 0.707106781186548, 1., 0.707106781186548, 1.)))
   REPRESENTATION_ITEM ('')
   SURFACE ()
);
#168 = CARTESIAN_POINT('', (-5.51091059616309E-15, 0., -30.));
#169 = CARTESIAN_POINT('', (30., 0., -30.));
#170 = CARTESIAN_POINT('', (30., 0., -7.34788079488412E-15));
#171 = CARTESIAN_POINT('', (30., 0., 30.));
#172 = CARTESIAN_POINT('', (9.18485099360515E-15, 0., 30.));
#173 = CARTESIAN_POINT('', (-5.51091059616309E-15, 0., -30.));
#174 = CARTESIAN_POINT('', (30., 30., -30.));
#175 = CARTESIAN_POINT('', (30., 30., -7.34788079488412E-15));
#176 = CARTESIAN_POINT('', (30., 30., 30.));
#177 = CARTESIAN_POINT('', (9.18485099360515E-15, 0., 30.));
#178 = CARTESIAN_POINT('', (-5.51091059616309E-15, 0., -30.));
#179 = CARTESIAN_POINT('', (1.83697019872103E-15, 30., -30.));
#180 = CARTESIAN_POINT('', (1.83697019872103E-15, 30., -7.34788079488412E-15));
#181 = CARTESIAN_POINT('', (1.83697019872103E-15, 30., 30.));
#182 = CARTESIAN_POINT('', (9.18485099360515E-15, 0., 30.));
#183 = CARTESIAN_POINT('', (-5.51091059616309E-15, 0., -30.));
#184 = CARTESIAN_POINT('', (-30., 30., -30.));
#185 = CARTESIAN_POINT('', (-30., 30., -7.34788079488412E-15));
#186 = CARTESIAN_POINT('', (-30., 30., 30.));
#187 = CARTESIAN_POINT('', (9.18485099360515E-15, 0., 30.));
#188 = CARTESIAN_POINT('', (-5.51091059616309E-15, 0., -30.));
#189 = CARTESIAN_POINT('', (-30., 3.67394039744206E-15, -30.));
#190 = CARTESIAN_POINT('', (-30., 3.67394039744206E-15, -7.34788079488412E-15));
#191 = CARTESIAN_POINT('', (-30., 3.67394039744206E-15, 30.));
#192 = CARTESIAN_POINT('', (9.18485099360515E-15, 0., 30.));
#193 = CARTESIAN_POINT('', (-5.51091059616309E-15, 0., -30.));
#194 = CARTESIAN_POINT('', (-30., -30., -30.));
#195 = CARTESIAN_POINT('', (-30., -30., -7.34788079488412E-15));
#196 = CARTESIAN_POINT('', (-30., -30., 30.));
#197 = CARTESIAN_POINT('', (9.18485099360515E-15, 0., 30.));
#198 = CARTESIAN_POINT('', (-5.51091059616309E-15, 0., -30.));
#199 = CARTESIAN_POINT('', (-5.51091059616309E-15, -30., -30.));
#200 = CARTESIAN_POINT('', (-5.51091059616309E-15, -30., -7.34788079488412E-15));
#201 = CARTESIAN_POINT('', (-5.51091059616309E-15, -30., 30.));
#202 = CARTESIAN_POINT('', (9.18485099360515E-15, 0., 30.));
#203 = CARTESIAN_POINT('', (-5.51091059616309E-15, 0., -30.));
#204 = CARTESIAN_POINT('', (30., -30., -30.));
#205 = CARTESIAN_POINT('', (30., -30., -7.34788079488412E-15));
#206 = CARTESIAN_POINT('', (30., -30., 30.));
#207 = CARTESIAN_POINT('', (9.18485099360515E-15, 0., 30.));
#208 = CARTESIAN_POINT('', (-5.51091059616309E-15, 0., -30.));
#209 = CARTESIAN_POINT('', (30., 0., -30.));
#210 = CARTESIAN_POINT('', (30., 0., -7.34788079488412E-15));
#211 = CARTESIAN_POINT('', (30., 0., 30.));
#212 = CARTESIAN_POINT('', (9.18485099360515E-15, 0., 30.));
#213 = DRAUGHTING_MODEL('', (#221), #224);
#214 = PRESENTATION_STYLE_ASSIGNMENT((#215));
#215 = SURFACE_STYLE_USAGE(.POSITIVE., #216);
#216 = SURFACE_SIDE_STYLE('', (#217));
#217 = SURFACE_STYLE_FILL_AREA(#218);
#218 = FILL_AREA_STYLE('', (#219));
#219 = FILL_AREA_STYLE_COLOUR('', #220);
#220 = COLOUR_RGB('', 0.50196078431373, 0.50196078431373, 0.50196078431373);
#221 = STYLED_ITEM('', (#214), #1);
#222 = CARTESIAN_POINT('Origin', (0., 0., 0.));
#223 = GEOMETRIC_SET('', (#222));
#224 = (
   GEOMETRIC_REPRESENTATION_CONTEXT (3)
   GLOBAL_UNCERTAINTY_ASSIGNED_CONTEXT ((#226))
   GLOBAL_UNIT_ASSIGNED_CONTEXT ((#225, #227, #228))
   REPRESENTATION_CONTEXT ('', '3D')
);
#225 = (
   LENGTH_UNIT ()
   NAMED_UNIT (*)
   SI_UNIT (.MILLI., .METRE.)
);
#226 = UNCERTAINTY_MEASURE_WITH_UNIT(LENGTH_MEASURE(1.E-6), #225, 'DISTANCE_ACCURACY_VALUE', '');
#227 = (
   NAMED_UNIT (*)
   SI_UNIT ($, .STERADIAN.)
   SOLID_ANGLE_UNIT ()
);
#228 = (
   NAMED_UNIT (*)
   PLANE_ANGLE_UNIT ()
   SI_UNIT ($, .RADIAN.)
);
#229 = SHAPE_REPRESENTATION('', (#244), #224);
#230 = PRODUCT_DEFINITION_SHAPE('', '', #231);
#231 = PRODUCT_DEFINITION('', '', #234, #238);
#232 = APPLICATION_CONTEXT('configuration controlled 3D designs of mechanical parts and assemblies');
#233 = APPLICATION_PROTOCOL_DEFINITION('International Standard', 'automotive_design', 2002, #232);
#234 = PRODUCT_DEFINITION_FORMATION_WITH_SPECIFIED_SOURCE('', '', #235, .NOT_KNOWN.);
#235 = PRODUCT('Test', 'Test', '', (#236));
#236 = PRODUCT_CONTEXT('', #232, 'mechanical');
#237 = PRODUCT_RELATED_PRODUCT_CATEGORY('detail', '', (#235));
#238 = PRODUCT_DEFINITION_CONTEXT('part definition', #232, 'design');
#239 = SHAPE_DEFINITION_REPRESENTATION(#230, #229);
#240 = SHAPE_REPRESENTATION_RELATIONSHIP('', '', #229, #241);
#241 = SHAPE_REPRESENTATION('', (#223), #224);
#242 = SHAPE_REPRESENTATION_RELATIONSHIP('', '', #229, #243);
#243 = ADVANCED_BREP_SHAPE_REPRESENTATION('', (#1), #224);
#244 = AXIS2_PLACEMENT_3D('', #245, #246, #247);
#245 = CARTESIAN_POINT('', (0., 0., 0.));
#246 = DIRECTION('', (0., 0., 1.));
#247 = DIRECTION('', (1., 0., 0.));
ENDSEC;
END-ISO-10303-21;
