ISO-10303-21;
HEADER;
FILE_DESCRIPTION(('STEP'), '1');
FILE_NAME('TrueCone', '2026-04-13T15:07:39', (''), (''), 'Express 3.1.2.0', 'Express Tool', 'Unknown');
FILE_SCHEMA(('AUTOMOTIVE_DESIGN'));
ENDSEC;

DATA;
#1 = MANIFOLD_SOLID_BREP('Solid', #2);
#2 = CLOSED_SHELL('', (#3, #47));
#3 = ADVANCED_FACE('', (#4), #28, .T.);
#4 = FACE_OUTER_BOUND('', #5, .T.);
#5 = EDGE_LOOP('', (#6, #15, #27));
#6 = ORIENTED_EDGE('', *, *, #7, .F.);
#7 = EDGE_CURVE('', #8, #10, #12, .T.);
#8 = VERTEX_POINT('', #9);
#9 = CARTESIAN_POINT('', (30., 0., -50.));
#10 = VERTEX_POINT('', #11);
#11 = CARTESIAN_POINT('', (-7.105427357601E-15, 0., 50.));
#12 = B_SPLINE_CURVE_WITH_KNOTS('', 1, (#13, #14), .UNSPECIFIED., .F., .U., (2, 2), (0., 100.), .UNSPECIFIED.);
#13 = CARTESIAN_POINT('', (30., 0., -50.));
#14 = CARTESIAN_POINT('', (-3.5527136788005E-15, 0., 50.));
#15 = ORIENTED_EDGE('', *, *, #16, .T.);
#16 = EDGE_CURVE('', #8, #8, #17, .T.);
#17 = (
   BOUNDED_CURVE ()
   B_SPLINE_CURVE (2, (#18, #19, #20, #21, #22, #23, #24, #25, #26), .UNSPECIFIED., .T., .U.)
   B_SPLINE_CURVE_WITH_KNOTS ((3, 2, 2, 2, 3), (0., 0.25, 0.5, 0.75, 1.), .UNSPECIFIED.)
   CURVE ()
   GEOMETRIC_REPRESENTATION_ITEM ()
   RATIONAL_B_SPLINE_CURVE ((1., 0.707106781186548, 1., 0.707106781186548, 1., 0.707106781186548, 1., 0.707106781186548, 1.))
   REPRESENTATION_ITEM ('')
);
#18 = CARTESIAN_POINT('', (30., 0., -50.));
#19 = CARTESIAN_POINT('', (30., 30., -50.));
#20 = CARTESIAN_POINT('', (1.83697019872103E-15, 30., -50.));
#21 = CARTESIAN_POINT('', (-30., 30., -50.));
#22 = CARTESIAN_POINT('', (-30., 3.67394039744206E-15, -50.));
#23 = CARTESIAN_POINT('', (-30., -30., -50.));
#24 = CARTESIAN_POINT('', (-5.51091059616309E-15, -30., -50.));
#25 = CARTESIAN_POINT('', (30., -30., -50.));
#26 = CARTESIAN_POINT('', (30., 0., -50.));
#27 = ORIENTED_EDGE('', *, *, #7, .T.);
#28 = (
   BOUNDED_SURFACE ()
   B_SPLINE_SURFACE (2, 1, ((#29, #30), (#31, #32), (#33, #34), (#35, #36), (#37, #38), (#39, #40), (#41, #42), (#43, #44), (#45, #46)), .UNSPECIFIED., .T., .F., .U.)
   B_SPLINE_SURFACE_WITH_KNOTS ((3, 2, 2, 2, 3), (2, 2), (0., 0.25, 0.5, 0.75, 1.), (0., 100.), .UNSPECIFIED.)
   GEOMETRIC_REPRESENTATION_ITEM ()
   RATIONAL_B_SPLINE_SURFACE (((1., 1.), (0.707106781186548, 0.707106781186548), (1., 1.), (0.707106781186548, 0.707106781186548), (1., 1.), (0.707106781186548, 0.707106781186548), (1., 1.), (0.707106781186548, 0.707106781186548), (1., 1.)))
   REPRESENTATION_ITEM ('')
   SURFACE ()
);
#29 = CARTESIAN_POINT('', (30., 0., -50.));
#30 = CARTESIAN_POINT('', (-3.5527136788005E-15, 0., 50.));
#31 = CARTESIAN_POINT('', (30., 30., -50.));
#32 = CARTESIAN_POINT('', (-3.5527136788005E-15, 0., 50.));
#33 = CARTESIAN_POINT('', (1.83697019872103E-15, 30., -50.));
#34 = CARTESIAN_POINT('', (-3.5527136788005E-15, 0., 50.));
#35 = CARTESIAN_POINT('', (-30., 30., -50.));
#36 = CARTESIAN_POINT('', (-3.5527136788005E-15, 0., 50.));
#37 = CARTESIAN_POINT('', (-30., 3.67394039744206E-15, -50.));
#38 = CARTESIAN_POINT('', (-3.5527136788005E-15, 0., 50.));
#39 = CARTESIAN_POINT('', (-30., -30., -50.));
#40 = CARTESIAN_POINT('', (-3.5527136788005E-15, 0., 50.));
#41 = CARTESIAN_POINT('', (-5.51091059616309E-15, -30., -50.));
#42 = CARTESIAN_POINT('', (-3.5527136788005E-15, 0., 50.));
#43 = CARTESIAN_POINT('', (30., -30., -50.));
#44 = CARTESIAN_POINT('', (-3.5527136788005E-15, 0., 50.));
#45 = CARTESIAN_POINT('', (30., 0., -50.));
#46 = CARTESIAN_POINT('', (-3.5527136788005E-15, 0., 50.));
#47 = ADVANCED_FACE('', (#48), #51, .T.);
#48 = FACE_OUTER_BOUND('', #49, .T.);
#49 = EDGE_LOOP('', (#50));
#50 = ORIENTED_EDGE('', *, *, #16, .F.);
#51 = B_SPLINE_SURFACE_WITH_KNOTS('', 1, 1, ((#52, #53), (#54, #55)), .UNSPECIFIED., .F., .F., .U., (2, 2), (2, 2), (0., 1.), (0., 1.), .UNSPECIFIED.);
#52 = CARTESIAN_POINT('', (46.6690475583121, -46.6690475583122, -50.));
#53 = CARTESIAN_POINT('', (46.6690475583121, 46.6690475583121, -50.));
#54 = CARTESIAN_POINT('', (-46.6690475583122, -46.6690475583122, -50.));
#55 = CARTESIAN_POINT('', (-46.6690475583122, 46.6690475583121, -50.));
#56 = DRAUGHTING_MODEL('', (#64), #67);
#57 = PRESENTATION_STYLE_ASSIGNMENT((#58));
#58 = SURFACE_STYLE_USAGE(.POSITIVE., #59);
#59 = SURFACE_SIDE_STYLE('', (#60));
#60 = SURFACE_STYLE_FILL_AREA(#61);
#61 = FILL_AREA_STYLE('', (#62));
#62 = FILL_AREA_STYLE_COLOUR('', #63);
#63 = COLOUR_RGB('', 0.50196078431373, 0.50196078431373, 0.50196078431373);
#64 = STYLED_ITEM('', (#57), #1);
#65 = CARTESIAN_POINT('Origin', (0., 0., 0.));
#66 = GEOMETRIC_SET('', (#65));
#67 = (
   GEOMETRIC_REPRESENTATION_CONTEXT (3)
   GLOBAL_UNCERTAINTY_ASSIGNED_CONTEXT ((#69))
   GLOBAL_UNIT_ASSIGNED_CONTEXT ((#68, #70, #71))
   REPRESENTATION_CONTEXT ('', '3D')
);
#68 = (
   LENGTH_UNIT ()
   NAMED_UNIT (*)
   SI_UNIT (.MILLI., .METRE.)
);
#69 = UNCERTAINTY_MEASURE_WITH_UNIT(LENGTH_MEASURE(1.E-6), #68, 'DISTANCE_ACCURACY_VALUE', '');
#70 = (
   NAMED_UNIT (*)
   SI_UNIT ($, .STERADIAN.)
   SOLID_ANGLE_UNIT ()
);
#71 = (
   NAMED_UNIT (*)
   PLANE_ANGLE_UNIT ()
   SI_UNIT ($, .RADIAN.)
);
#72 = SHAPE_REPRESENTATION('', (#87), #67);
#73 = PRODUCT_DEFINITION_SHAPE('', '', #74);
#74 = PRODUCT_DEFINITION('', '', #77, #81);
#75 = APPLICATION_CONTEXT('configuration controlled 3D designs of mechanical parts and assemblies');
#76 = APPLICATION_PROTOCOL_DEFINITION('International Standard', 'automotive_design', 2002, #75);
#77 = PRODUCT_DEFINITION_FORMATION_WITH_SPECIFIED_SOURCE('', '', #78, .NOT_KNOWN.);
#78 = PRODUCT('TrueCone', 'TrueCone', '', (#79));
#79 = PRODUCT_CONTEXT('', #75, 'mechanical');
#80 = PRODUCT_RELATED_PRODUCT_CATEGORY('detail', '', (#78));
#81 = PRODUCT_DEFINITION_CONTEXT('part definition', #75, 'design');
#82 = SHAPE_DEFINITION_REPRESENTATION(#73, #72);
#83 = SHAPE_REPRESENTATION_RELATIONSHIP('', '', #72, #84);
#84 = SHAPE_REPRESENTATION('', (#66), #67);
#85 = SHAPE_REPRESENTATION_RELATIONSHIP('', '', #72, #86);
#86 = ADVANCED_BREP_SHAPE_REPRESENTATION('', (#1), #67);
#87 = AXIS2_PLACEMENT_3D('', #88, #89, #90);
#88 = CARTESIAN_POINT('', (0., 0., 0.));
#89 = DIRECTION('', (0., 0., 1.));
#90 = DIRECTION('', (1., 0., 0.));
ENDSEC;
END-ISO-10303-21;
