ISO-10303-21;
HEADER;
FILE_DESCRIPTION(('STEP'), '1');
FILE_NAME('CompoundRot', '2026-04-15T09:37:32', (''), (''), 'Express 3.1.2.0', 'Express Tool', 'Unknown');
FILE_SCHEMA(('AUTOMOTIVE_DESIGN'));
ENDSEC;

DATA;
#1 = MANIFOLD_SOLID_BREP('Solid', #2);
#2 = CLOSED_SHELL('', (#3, #39, #75, #151, #167, #239, #259, #279, #295, #311, #323, #335, #351, #367));
#3 = ADVANCED_FACE('', (#4), #34, .T.);
#4 = FACE_OUTER_BOUND('', #5, .T.);
#5 = EDGE_LOOP('', (#6, #15, #22, #29));
#6 = ORIENTED_EDGE('', *, *, #7, .T.);
#7 = EDGE_CURVE('', #8, #10, #12, .T.);
#8 = VERTEX_POINT('', #9);
#9 = CARTESIAN_POINT('', (-10., -10., -10.));
#10 = VERTEX_POINT('', #11);
#11 = CARTESIAN_POINT('', (-10., -10., 10.));
#12 = B_SPLINE_CURVE_WITH_KNOTS('', 1, (#13, #14), .UNSPECIFIED., .F., .U., (2, 2), (0., 1.), .UNSPECIFIED.);
#13 = CARTESIAN_POINT('', (-10., -10., -10.));
#14 = CARTESIAN_POINT('', (-10., -10., 10.));
#15 = ORIENTED_EDGE('', *, *, #16, .T.);
#16 = EDGE_CURVE('', #10, #17, #19, .T.);
#17 = VERTEX_POINT('', #18);
#18 = CARTESIAN_POINT('', (-30., -10., 10.));
#19 = B_SPLINE_CURVE_WITH_KNOTS('', 1, (#20, #21), .UNSPECIFIED., .F., .U., (2, 2), (40., 60.), .UNSPECIFIED.);
#20 = CARTESIAN_POINT('', (-10., -10., 10.));
#21 = CARTESIAN_POINT('', (-30., -10., 10.));
#22 = ORIENTED_EDGE('', *, *, #23, .F.);
#23 = EDGE_CURVE('', #24, #17, #26, .T.);
#24 = VERTEX_POINT('', #25);
#25 = CARTESIAN_POINT('', (-30., -10., -10.));
#26 = B_SPLINE_CURVE_WITH_KNOTS('', 1, (#27, #28), .UNSPECIFIED., .F., .U., (2, 2), (0., 20.), .UNSPECIFIED.);
#27 = CARTESIAN_POINT('', (-30., -10., -10.));
#28 = CARTESIAN_POINT('', (-30., -10., 10.));
#29 = ORIENTED_EDGE('', *, *, #30, .F.);
#30 = EDGE_CURVE('', #8, #24, #31, .T.);
#31 = B_SPLINE_CURVE_WITH_KNOTS('', 1, (#32, #33), .UNSPECIFIED., .F., .U., (2, 2), (40., 60.), .UNSPECIFIED.);
#32 = CARTESIAN_POINT('', (-10., -10., -10.));
#33 = CARTESIAN_POINT('', (-30., -10., -10.));
#34 = B_SPLINE_SURFACE_WITH_KNOTS('', 1, 1, ((#35, #36), (#37, #38)), .UNSPECIFIED., .F., .F., .U., (2, 2), (2, 2), (0., 20.), (0., 60.), .UNSPECIFIED.);
#35 = CARTESIAN_POINT('', (30., -10., -10.));
#36 = CARTESIAN_POINT('', (-30., -10., -10.));
#37 = CARTESIAN_POINT('', (30., -10., 10.));
#38 = CARTESIAN_POINT('', (-30., -10., 10.));
#39 = ADVANCED_FACE('', (#40), #70, .T.);
#40 = FACE_OUTER_BOUND('', #41, .T.);
#41 = EDGE_LOOP('', (#42, #51, #58, #65));
#42 = ORIENTED_EDGE('', *, *, #43, .T.);
#43 = EDGE_CURVE('', #44, #46, #48, .T.);
#44 = VERTEX_POINT('', #45);
#45 = CARTESIAN_POINT('', (-10., 10., 10.));
#46 = VERTEX_POINT('', #47);
#47 = CARTESIAN_POINT('', (-10., 10., -10.));
#48 = B_SPLINE_CURVE_WITH_KNOTS('', 1, (#49, #50), .UNSPECIFIED., .F., .U., (2, 2), (0., 1.), .UNSPECIFIED.);
#49 = CARTESIAN_POINT('', (-10., 10., 10.));
#50 = CARTESIAN_POINT('', (-10., 10., -10.));
#51 = ORIENTED_EDGE('', *, *, #52, .T.);
#52 = EDGE_CURVE('', #46, #53, #55, .T.);
#53 = VERTEX_POINT('', #54);
#54 = CARTESIAN_POINT('', (-30., 10., -10.));
#55 = B_SPLINE_CURVE_WITH_KNOTS('', 1, (#56, #57), .UNSPECIFIED., .F., .U., (2, 2), (40., 60.), .UNSPECIFIED.);
#56 = CARTESIAN_POINT('', (-10., 10., -10.));
#57 = CARTESIAN_POINT('', (-30., 10., -10.));
#58 = ORIENTED_EDGE('', *, *, #59, .T.);
#59 = EDGE_CURVE('', #53, #60, #62, .T.);
#60 = VERTEX_POINT('', #61);
#61 = CARTESIAN_POINT('', (-30., 10., 10.));
#62 = B_SPLINE_CURVE_WITH_KNOTS('', 1, (#63, #64), .UNSPECIFIED., .F., .U., (2, 2), (0., 20.), .UNSPECIFIED.);
#63 = CARTESIAN_POINT('', (-30., 10., -10.));
#64 = CARTESIAN_POINT('', (-30., 10., 10.));
#65 = ORIENTED_EDGE('', *, *, #66, .F.);
#66 = EDGE_CURVE('', #44, #60, #67, .T.);
#67 = B_SPLINE_CURVE_WITH_KNOTS('', 1, (#68, #69), .UNSPECIFIED., .F., .U., (2, 2), (40., 60.), .UNSPECIFIED.);
#68 = CARTESIAN_POINT('', (-10., 10., 10.));
#69 = CARTESIAN_POINT('', (-30., 10., 10.));
#70 = B_SPLINE_SURFACE_WITH_KNOTS('', 1, 1, ((#71, #72), (#73, #74)), .UNSPECIFIED., .F., .F., .U., (2, 2), (2, 2), (0., 60.), (0., 20.), .UNSPECIFIED.);
#71 = CARTESIAN_POINT('', (30., 10., -10.));
#72 = CARTESIAN_POINT('', (30., 10., 10.));
#73 = CARTESIAN_POINT('', (-30., 10., -10.));
#74 = CARTESIAN_POINT('', (-30., 10., 10.));
#75 = ADVANCED_FACE('', (#76), #146, .T.);
#76 = FACE_OUTER_BOUND('', #77, .T.);
#77 = EDGE_LOOP('', (#78, #79, #86, #93, #100, #107, #114, #121, #128, #135, #140, #141));
#78 = ORIENTED_EDGE('', *, *, #52, .F.);
#79 = ORIENTED_EDGE('', *, *, #80, .T.);
#80 = EDGE_CURVE('', #46, #81, #83, .T.);
#81 = VERTEX_POINT('', #82);
#82 = CARTESIAN_POINT('', (-10., 40., -10.));
#83 = B_SPLINE_CURVE_WITH_KNOTS('', 1, (#84, #85), .UNSPECIFIED., .F., .U., (2, 2), (50., 80.), .UNSPECIFIED.);
#84 = CARTESIAN_POINT('', (-10., 10., -10.));
#85 = CARTESIAN_POINT('', (-10., 40., -10.));
#86 = ORIENTED_EDGE('', *, *, #87, .F.);
#87 = EDGE_CURVE('', #88, #81, #90, .T.);
#88 = VERTEX_POINT('', #89);
#89 = CARTESIAN_POINT('', (10., 40., -10.));
#90 = B_SPLINE_CURVE_WITH_KNOTS('', 1, (#91, #92), .UNSPECIFIED., .F., .U., (2, 2), (0., 20.), .UNSPECIFIED.);
#91 = CARTESIAN_POINT('', (10., 40., -10.));
#92 = CARTESIAN_POINT('', (-10., 40., -10.));
#93 = ORIENTED_EDGE('', *, *, #94, .F.);
#94 = EDGE_CURVE('', #95, #88, #97, .T.);
#95 = VERTEX_POINT('', #96);
#96 = CARTESIAN_POINT('', (10., 10., -10.));
#97 = B_SPLINE_CURVE_WITH_KNOTS('', 1, (#98, #99), .UNSPECIFIED., .F., .U., (2, 2), (50., 80.), .UNSPECIFIED.);
#98 = CARTESIAN_POINT('', (10., 10., -10.));
#99 = CARTESIAN_POINT('', (10., 40., -10.));
#100 = ORIENTED_EDGE('', *, *, #101, .F.);
#101 = EDGE_CURVE('', #102, #95, #104, .T.);
#102 = VERTEX_POINT('', #103);
#103 = CARTESIAN_POINT('', (30., 10., -10.));
#104 = B_SPLINE_CURVE_WITH_KNOTS('', 1, (#105, #106), .UNSPECIFIED., .F., .U., (2, 2), (0., 20.), .UNSPECIFIED.);
#105 = CARTESIAN_POINT('', (30., 10., -10.));
#106 = CARTESIAN_POINT('', (10., 10., -10.));
#107 = ORIENTED_EDGE('', *, *, #108, .F.);
#108 = EDGE_CURVE('', #109, #102, #111, .T.);
#109 = VERTEX_POINT('', #110);
#110 = CARTESIAN_POINT('', (30., -10., -10.));
#111 = B_SPLINE_CURVE_WITH_KNOTS('', 1, (#112, #113), .UNSPECIFIED., .F., .U., (2, 2), (0., 20.), .UNSPECIFIED.);
#112 = CARTESIAN_POINT('', (30., -10., -10.));
#113 = CARTESIAN_POINT('', (30., 10., -10.));
#114 = ORIENTED_EDGE('', *, *, #115, .T.);
#115 = EDGE_CURVE('', #109, #116, #118, .T.);
#116 = VERTEX_POINT('', #117);
#117 = CARTESIAN_POINT('', (10., -10., -10.));
#118 = B_SPLINE_CURVE_WITH_KNOTS('', 1, (#119, #120), .UNSPECIFIED., .F., .U., (2, 2), (0., 20.), .UNSPECIFIED.);
#119 = CARTESIAN_POINT('', (30., -10., -10.));
#120 = CARTESIAN_POINT('', (10., -10., -10.));
#121 = ORIENTED_EDGE('', *, *, #122, .F.);
#122 = EDGE_CURVE('', #123, #116, #125, .T.);
#123 = VERTEX_POINT('', #124);
#124 = CARTESIAN_POINT('', (10., -40., -10.));
#125 = B_SPLINE_CURVE_WITH_KNOTS('', 1, (#126, #127), .UNSPECIFIED., .F., .U., (2, 2), (0., 30.), .UNSPECIFIED.);
#126 = CARTESIAN_POINT('', (10., -40., -10.));
#127 = CARTESIAN_POINT('', (10., -10., -10.));
#128 = ORIENTED_EDGE('', *, *, #129, .T.);
#129 = EDGE_CURVE('', #123, #130, #132, .T.);
#130 = VERTEX_POINT('', #131);
#131 = CARTESIAN_POINT('', (-10., -40., -10.));
#132 = B_SPLINE_CURVE_WITH_KNOTS('', 1, (#133, #134), .UNSPECIFIED., .F., .U., (2, 2), (0., 20.), .UNSPECIFIED.);
#133 = CARTESIAN_POINT('', (10., -40., -10.));
#134 = CARTESIAN_POINT('', (-10., -40., -10.));
#135 = ORIENTED_EDGE('', *, *, #136, .T.);
#136 = EDGE_CURVE('', #130, #8, #137, .T.);
#137 = B_SPLINE_CURVE_WITH_KNOTS('', 1, (#138, #139), .UNSPECIFIED., .F., .U., (2, 2), (0., 30.), .UNSPECIFIED.);
#138 = CARTESIAN_POINT('', (-10., -40., -10.));
#139 = CARTESIAN_POINT('', (-10., -10., -10.));
#140 = ORIENTED_EDGE('', *, *, #30, .T.);
#141 = ORIENTED_EDGE('', *, *, #142, .T.);
#142 = EDGE_CURVE('', #24, #53, #143, .T.);
#143 = B_SPLINE_CURVE_WITH_KNOTS('', 1, (#144, #145), .UNSPECIFIED., .F., .U., (2, 2), (0., 20.), .UNSPECIFIED.);
#144 = CARTESIAN_POINT('', (-30., -10., -10.));
#145 = CARTESIAN_POINT('', (-30., 10., -10.));
#146 = B_SPLINE_SURFACE_WITH_KNOTS('', 1, 1, ((#147, #148), (#149, #150)), .UNSPECIFIED., .F., .F., .U., (2, 2), (2, 2), (-1.06581410364015E-14, 60.), (-30., 50.), .UNSPECIFIED.);
#147 = CARTESIAN_POINT('', (30., -40., -10.));
#148 = CARTESIAN_POINT('', (30., 40., -10.));
#149 = CARTESIAN_POINT('', (-30., -40., -10.));
#150 = CARTESIAN_POINT('', (-30., 40., -10.));
#151 = ADVANCED_FACE('', (#152), #162, .T.);
#152 = FACE_OUTER_BOUND('', #153, .T.);
#153 = EDGE_LOOP('', (#154, #155, #160, #161));
#154 = ORIENTED_EDGE('', *, *, #23, .T.);
#155 = ORIENTED_EDGE('', *, *, #156, .T.);
#156 = EDGE_CURVE('', #17, #60, #157, .T.);
#157 = B_SPLINE_CURVE_WITH_KNOTS('', 1, (#158, #159), .UNSPECIFIED., .F., .U., (2, 2), (0., 20.), .UNSPECIFIED.);
#158 = CARTESIAN_POINT('', (-30., -10., 10.));
#159 = CARTESIAN_POINT('', (-30., 10., 10.));
#160 = ORIENTED_EDGE('', *, *, #59, .F.);
#161 = ORIENTED_EDGE('', *, *, #142, .F.);
#162 = B_SPLINE_SURFACE_WITH_KNOTS('', 1, 1, ((#163, #164), (#165, #166)), .UNSPECIFIED., .F., .F., .U., (2, 2), (2, 2), (0., 20.), (0., 20.), .UNSPECIFIED.);
#163 = CARTESIAN_POINT('', (-30., -10., -10.));
#164 = CARTESIAN_POINT('', (-30., 10., -10.));
#165 = CARTESIAN_POINT('', (-30., -10., 10.));
#166 = CARTESIAN_POINT('', (-30., 10., 10.));
#167 = ADVANCED_FACE('', (#168), #234, .T.);
#168 = FACE_OUTER_BOUND('', #169, .T.);
#169 = EDGE_LOOP('', (#170, #179, #186, #193, #200, #207, #214, #219, #220, #221, #222, #229));
#170 = ORIENTED_EDGE('', *, *, #171, .T.);
#171 = EDGE_CURVE('', #172, #174, #176, .T.);
#172 = VERTEX_POINT('', #173);
#173 = CARTESIAN_POINT('', (10., -40., 10.));
#174 = VERTEX_POINT('', #175);
#175 = CARTESIAN_POINT('', (10., -10., 10.));
#176 = B_SPLINE_CURVE_WITH_KNOTS('', 1, (#177, #178), .UNSPECIFIED., .F., .U., (2, 2), (0., 30.), .UNSPECIFIED.);
#177 = CARTESIAN_POINT('', (10., -40., 10.));
#178 = CARTESIAN_POINT('', (10., -10., 10.));
#179 = ORIENTED_EDGE('', *, *, #180, .F.);
#180 = EDGE_CURVE('', #181, #174, #183, .T.);
#181 = VERTEX_POINT('', #182);
#182 = CARTESIAN_POINT('', (30., -10., 10.));
#183 = B_SPLINE_CURVE_WITH_KNOTS('', 1, (#184, #185), .UNSPECIFIED., .F., .U., (2, 2), (0., 20.), .UNSPECIFIED.);
#184 = CARTESIAN_POINT('', (30., -10., 10.));
#185 = CARTESIAN_POINT('', (10., -10., 10.));
#186 = ORIENTED_EDGE('', *, *, #187, .T.);
#187 = EDGE_CURVE('', #181, #188, #190, .T.);
#188 = VERTEX_POINT('', #189);
#189 = CARTESIAN_POINT('', (30., 10., 10.));
#190 = B_SPLINE_CURVE_WITH_KNOTS('', 1, (#191, #192), .UNSPECIFIED., .F., .U., (2, 2), (0., 20.), .UNSPECIFIED.);
#191 = CARTESIAN_POINT('', (30., -10., 10.));
#192 = CARTESIAN_POINT('', (30., 10., 10.));
#193 = ORIENTED_EDGE('', *, *, #194, .T.);
#194 = EDGE_CURVE('', #188, #195, #197, .T.);
#195 = VERTEX_POINT('', #196);
#196 = CARTESIAN_POINT('', (10., 10., 10.));
#197 = B_SPLINE_CURVE_WITH_KNOTS('', 1, (#198, #199), .UNSPECIFIED., .F., .U., (2, 2), (0., 20.), .UNSPECIFIED.);
#198 = CARTESIAN_POINT('', (30., 10., 10.));
#199 = CARTESIAN_POINT('', (10., 10., 10.));
#200 = ORIENTED_EDGE('', *, *, #201, .T.);
#201 = EDGE_CURVE('', #195, #202, #204, .T.);
#202 = VERTEX_POINT('', #203);
#203 = CARTESIAN_POINT('', (10., 40., 10.));
#204 = B_SPLINE_CURVE_WITH_KNOTS('', 1, (#205, #206), .UNSPECIFIED., .F., .U., (2, 2), (50., 80.), .UNSPECIFIED.);
#205 = CARTESIAN_POINT('', (10., 10., 10.));
#206 = CARTESIAN_POINT('', (10., 40., 10.));
#207 = ORIENTED_EDGE('', *, *, #208, .T.);
#208 = EDGE_CURVE('', #202, #209, #211, .T.);
#209 = VERTEX_POINT('', #210);
#210 = CARTESIAN_POINT('', (-10., 40., 10.));
#211 = B_SPLINE_CURVE_WITH_KNOTS('', 1, (#212, #213), .UNSPECIFIED., .F., .U., (2, 2), (0., 20.), .UNSPECIFIED.);
#212 = CARTESIAN_POINT('', (10., 40., 10.));
#213 = CARTESIAN_POINT('', (-10., 40., 10.));
#214 = ORIENTED_EDGE('', *, *, #215, .F.);
#215 = EDGE_CURVE('', #44, #209, #216, .T.);
#216 = B_SPLINE_CURVE_WITH_KNOTS('', 1, (#217, #218), .UNSPECIFIED., .F., .U., (2, 2), (50., 80.), .UNSPECIFIED.);
#217 = CARTESIAN_POINT('', (-10., 10., 10.));
#218 = CARTESIAN_POINT('', (-10., 40., 10.));
#219 = ORIENTED_EDGE('', *, *, #66, .T.);
#220 = ORIENTED_EDGE('', *, *, #156, .F.);
#221 = ORIENTED_EDGE('', *, *, #16, .F.);
#222 = ORIENTED_EDGE('', *, *, #223, .F.);
#223 = EDGE_CURVE('', #224, #10, #226, .T.);
#224 = VERTEX_POINT('', #225);
#225 = CARTESIAN_POINT('', (-10., -40., 10.));
#226 = B_SPLINE_CURVE_WITH_KNOTS('', 1, (#227, #228), .UNSPECIFIED., .F., .U., (2, 2), (0., 30.), .UNSPECIFIED.);
#227 = CARTESIAN_POINT('', (-10., -40., 10.));
#228 = CARTESIAN_POINT('', (-10., -10., 10.));
#229 = ORIENTED_EDGE('', *, *, #230, .F.);
#230 = EDGE_CURVE('', #172, #224, #231, .T.);
#231 = B_SPLINE_CURVE_WITH_KNOTS('', 1, (#232, #233), .UNSPECIFIED., .F., .U., (2, 2), (0., 20.), .UNSPECIFIED.);
#232 = CARTESIAN_POINT('', (10., -40., 10.));
#233 = CARTESIAN_POINT('', (-10., -40., 10.));
#234 = B_SPLINE_SURFACE_WITH_KNOTS('', 1, 1, ((#235, #236), (#237, #238)), .UNSPECIFIED., .F., .F., .U., (2, 2), (2, 2), (0., 80.), (-20., 40.), .UNSPECIFIED.);
#235 = CARTESIAN_POINT('', (30., -40., 10.));
#236 = CARTESIAN_POINT('', (-30., -40., 10.));
#237 = CARTESIAN_POINT('', (30., 40., 10.));
#238 = CARTESIAN_POINT('', (-30., 40., 10.));
#239 = ADVANCED_FACE('', (#240), #254, .T.);
#240 = FACE_OUTER_BOUND('', #241, .T.);
#241 = EDGE_LOOP('', (#242, #247, #248, #253));
#242 = ORIENTED_EDGE('', *, *, #243, .F.);
#243 = EDGE_CURVE('', #88, #202, #244, .T.);
#244 = B_SPLINE_CURVE_WITH_KNOTS('', 1, (#245, #246), .UNSPECIFIED., .F., .U., (2, 2), (0., 20.), .UNSPECIFIED.);
#245 = CARTESIAN_POINT('', (10., 40., -10.));
#246 = CARTESIAN_POINT('', (10., 40., 10.));
#247 = ORIENTED_EDGE('', *, *, #87, .T.);
#248 = ORIENTED_EDGE('', *, *, #249, .T.);
#249 = EDGE_CURVE('', #81, #209, #250, .T.);
#250 = B_SPLINE_CURVE_WITH_KNOTS('', 1, (#251, #252), .UNSPECIFIED., .F., .U., (2, 2), (0., 20.), .UNSPECIFIED.);
#251 = CARTESIAN_POINT('', (-10., 40., -10.));
#252 = CARTESIAN_POINT('', (-10., 40., 10.));
#253 = ORIENTED_EDGE('', *, *, #208, .F.);
#254 = B_SPLINE_SURFACE_WITH_KNOTS('', 1, 1, ((#255, #256), (#257, #258)), .UNSPECIFIED., .F., .F., .U., (2, 2), (2, 2), (0., 20.), (0., 20.), .UNSPECIFIED.);
#255 = CARTESIAN_POINT('', (10., 40., -10.));
#256 = CARTESIAN_POINT('', (10., 40., 10.));
#257 = CARTESIAN_POINT('', (-10., 40., -10.));
#258 = CARTESIAN_POINT('', (-10., 40., 10.));
#259 = ADVANCED_FACE('', (#260), #274, .T.);
#260 = FACE_OUTER_BOUND('', #261, .T.);
#261 = EDGE_LOOP('', (#262, #267, #268, #273));
#262 = ORIENTED_EDGE('', *, *, #263, .T.);
#263 = EDGE_CURVE('', #123, #172, #264, .T.);
#264 = B_SPLINE_CURVE_WITH_KNOTS('', 1, (#265, #266), .UNSPECIFIED., .F., .U., (2, 2), (0., 20.), .UNSPECIFIED.);
#265 = CARTESIAN_POINT('', (10., -40., -10.));
#266 = CARTESIAN_POINT('', (10., -40., 10.));
#267 = ORIENTED_EDGE('', *, *, #230, .T.);
#268 = ORIENTED_EDGE('', *, *, #269, .F.);
#269 = EDGE_CURVE('', #130, #224, #270, .T.);
#270 = B_SPLINE_CURVE_WITH_KNOTS('', 1, (#271, #272), .UNSPECIFIED., .F., .U., (2, 2), (0., 20.), .UNSPECIFIED.);
#271 = CARTESIAN_POINT('', (-10., -40., -10.));
#272 = CARTESIAN_POINT('', (-10., -40., 10.));
#273 = ORIENTED_EDGE('', *, *, #129, .F.);
#274 = B_SPLINE_SURFACE_WITH_KNOTS('', 1, 1, ((#275, #276), (#277, #278)), .UNSPECIFIED., .F., .F., .U., (2, 2), (2, 2), (0., 20.), (0., 20.), .UNSPECIFIED.);
#275 = CARTESIAN_POINT('', (10., -40., -10.));
#276 = CARTESIAN_POINT('', (-10., -40., -10.));
#277 = CARTESIAN_POINT('', (10., -40., 10.));
#278 = CARTESIAN_POINT('', (-10., -40., 10.));
#279 = ADVANCED_FACE('', (#280), #290, .T.);
#280 = FACE_OUTER_BOUND('', #281, .T.);
#281 = EDGE_LOOP('', (#282, #287, #288, #289));
#282 = ORIENTED_EDGE('', *, *, #283, .F.);
#283 = EDGE_CURVE('', #174, #116, #284, .T.);
#284 = B_SPLINE_CURVE_WITH_KNOTS('', 1, (#285, #286), .UNSPECIFIED., .F., .U., (2, 2), (0., 1.), .UNSPECIFIED.);
#285 = CARTESIAN_POINT('', (10., -10., 10.));
#286 = CARTESIAN_POINT('', (10., -10., -10.));
#287 = ORIENTED_EDGE('', *, *, #171, .F.);
#288 = ORIENTED_EDGE('', *, *, #263, .F.);
#289 = ORIENTED_EDGE('', *, *, #122, .T.);
#290 = B_SPLINE_SURFACE_WITH_KNOTS('', 1, 1, ((#291, #292), (#293, #294)), .UNSPECIFIED., .F., .F., .U., (2, 2), (2, 2), (0., 80.), (0., 20.), .UNSPECIFIED.);
#291 = CARTESIAN_POINT('', (10., -40., -10.));
#292 = CARTESIAN_POINT('', (10., -40., 10.));
#293 = CARTESIAN_POINT('', (10., 40., -10.));
#294 = CARTESIAN_POINT('', (10., 40., 10.));
#295 = ADVANCED_FACE('', (#296), #306, .T.);
#296 = FACE_OUTER_BOUND('', #297, .T.);
#297 = EDGE_LOOP('', (#298, #303, #304, #305));
#298 = ORIENTED_EDGE('', *, *, #299, .F.);
#299 = EDGE_CURVE('', #95, #195, #300, .T.);
#300 = B_SPLINE_CURVE_WITH_KNOTS('', 1, (#301, #302), .UNSPECIFIED., .F., .U., (2, 2), (0., 1.), .UNSPECIFIED.);
#301 = CARTESIAN_POINT('', (10., 10., -10.));
#302 = CARTESIAN_POINT('', (10., 10., 10.));
#303 = ORIENTED_EDGE('', *, *, #94, .T.);
#304 = ORIENTED_EDGE('', *, *, #243, .T.);
#305 = ORIENTED_EDGE('', *, *, #201, .F.);
#306 = B_SPLINE_SURFACE_WITH_KNOTS('', 1, 1, ((#307, #308), (#309, #310)), .UNSPECIFIED., .F., .F., .U., (2, 2), (2, 2), (0., 80.), (0., 20.), .UNSPECIFIED.);
#307 = CARTESIAN_POINT('', (10., -40., -10.));
#308 = CARTESIAN_POINT('', (10., -40., 10.));
#309 = CARTESIAN_POINT('', (10., 40., -10.));
#310 = CARTESIAN_POINT('', (10., 40., 10.));
#311 = ADVANCED_FACE('', (#312), #318, .T.);
#312 = FACE_OUTER_BOUND('', #313, .T.);
#313 = EDGE_LOOP('', (#314, #315, #316, #317));
#314 = ORIENTED_EDGE('', *, *, #7, .F.);
#315 = ORIENTED_EDGE('', *, *, #136, .F.);
#316 = ORIENTED_EDGE('', *, *, #269, .T.);
#317 = ORIENTED_EDGE('', *, *, #223, .T.);
#318 = B_SPLINE_SURFACE_WITH_KNOTS('', 1, 1, ((#319, #320), (#321, #322)), .UNSPECIFIED., .F., .F., .U., (2, 2), (2, 2), (0., 20.), (0., 80.), .UNSPECIFIED.);
#319 = CARTESIAN_POINT('', (-10., -40., -10.));
#320 = CARTESIAN_POINT('', (-10., 40., -10.));
#321 = CARTESIAN_POINT('', (-10., -40., 10.));
#322 = CARTESIAN_POINT('', (-10., 40., 10.));
#323 = ADVANCED_FACE('', (#324), #330, .T.);
#324 = FACE_OUTER_BOUND('', #325, .T.);
#325 = EDGE_LOOP('', (#326, #327, #328, #329));
#326 = ORIENTED_EDGE('', *, *, #43, .F.);
#327 = ORIENTED_EDGE('', *, *, #215, .T.);
#328 = ORIENTED_EDGE('', *, *, #249, .F.);
#329 = ORIENTED_EDGE('', *, *, #80, .F.);
#330 = B_SPLINE_SURFACE_WITH_KNOTS('', 1, 1, ((#331, #332), (#333, #334)), .UNSPECIFIED., .F., .F., .U., (2, 2), (2, 2), (0., 20.), (0., 80.), .UNSPECIFIED.);
#331 = CARTESIAN_POINT('', (-10., -40., -10.));
#332 = CARTESIAN_POINT('', (-10., 40., -10.));
#333 = CARTESIAN_POINT('', (-10., -40., 10.));
#334 = CARTESIAN_POINT('', (-10., 40., 10.));
#335 = ADVANCED_FACE('', (#336), #346, .T.);
#336 = FACE_OUTER_BOUND('', #337, .T.);
#337 = EDGE_LOOP('', (#338, #339, #340, #345));
#338 = ORIENTED_EDGE('', *, *, #299, .T.);
#339 = ORIENTED_EDGE('', *, *, #194, .F.);
#340 = ORIENTED_EDGE('', *, *, #341, .F.);
#341 = EDGE_CURVE('', #102, #188, #342, .T.);
#342 = B_SPLINE_CURVE_WITH_KNOTS('', 1, (#343, #344), .UNSPECIFIED., .F., .U., (2, 2), (0., 20.), .UNSPECIFIED.);
#343 = CARTESIAN_POINT('', (30., 10., -10.));
#344 = CARTESIAN_POINT('', (30., 10., 10.));
#345 = ORIENTED_EDGE('', *, *, #101, .T.);
#346 = B_SPLINE_SURFACE_WITH_KNOTS('', 1, 1, ((#347, #348), (#349, #350)), .UNSPECIFIED., .F., .F., .U., (2, 2), (2, 2), (0., 60.), (0., 20.), .UNSPECIFIED.);
#347 = CARTESIAN_POINT('', (30., 10., -10.));
#348 = CARTESIAN_POINT('', (30., 10., 10.));
#349 = CARTESIAN_POINT('', (-30., 10., -10.));
#350 = CARTESIAN_POINT('', (-30., 10., 10.));
#351 = ADVANCED_FACE('', (#352), #362, .T.);
#352 = FACE_OUTER_BOUND('', #353, .T.);
#353 = EDGE_LOOP('', (#354, #355, #356, #361));
#354 = ORIENTED_EDGE('', *, *, #283, .T.);
#355 = ORIENTED_EDGE('', *, *, #115, .F.);
#356 = ORIENTED_EDGE('', *, *, #357, .T.);
#357 = EDGE_CURVE('', #109, #181, #358, .T.);
#358 = B_SPLINE_CURVE_WITH_KNOTS('', 1, (#359, #360), .UNSPECIFIED., .F., .U., (2, 2), (0., 20.), .UNSPECIFIED.);
#359 = CARTESIAN_POINT('', (30., -10., -10.));
#360 = CARTESIAN_POINT('', (30., -10., 10.));
#361 = ORIENTED_EDGE('', *, *, #180, .T.);
#362 = B_SPLINE_SURFACE_WITH_KNOTS('', 1, 1, ((#363, #364), (#365, #366)), .UNSPECIFIED., .F., .F., .U., (2, 2), (2, 2), (0., 20.), (0., 60.), .UNSPECIFIED.);
#363 = CARTESIAN_POINT('', (30., -10., -10.));
#364 = CARTESIAN_POINT('', (-30., -10., -10.));
#365 = CARTESIAN_POINT('', (30., -10., 10.));
#366 = CARTESIAN_POINT('', (-30., -10., 10.));
#367 = ADVANCED_FACE('', (#368), #374, .T.);
#368 = FACE_OUTER_BOUND('', #369, .T.);
#369 = EDGE_LOOP('', (#370, #371, #372, #373));
#370 = ORIENTED_EDGE('', *, *, #357, .F.);
#371 = ORIENTED_EDGE('', *, *, #108, .T.);
#372 = ORIENTED_EDGE('', *, *, #341, .T.);
#373 = ORIENTED_EDGE('', *, *, #187, .F.);
#374 = B_SPLINE_SURFACE_WITH_KNOTS('', 1, 1, ((#375, #376), (#377, #378)), .UNSPECIFIED., .F., .F., .U., (2, 2), (2, 2), (0., 20.), (0., 20.), .UNSPECIFIED.);
#375 = CARTESIAN_POINT('', (30., -10., -10.));
#376 = CARTESIAN_POINT('', (30., -10., 10.));
#377 = CARTESIAN_POINT('', (30., 10., -10.));
#378 = CARTESIAN_POINT('', (30., 10., 10.));
#379 = DRAUGHTING_MODEL('', (#387, #459), #462);
#380 = PRESENTATION_STYLE_ASSIGNMENT((#381));
#381 = SURFACE_STYLE_USAGE(.POSITIVE., #382);
#382 = SURFACE_SIDE_STYLE('', (#383));
#383 = SURFACE_STYLE_FILL_AREA(#384);
#384 = FILL_AREA_STYLE('', (#385));
#385 = FILL_AREA_STYLE_COLOUR('', #386);
#386 = COLOUR_RGB('', 0.50196078431373, 0.50196078431373, 0.50196078431373);
#387 = STYLED_ITEM('', (#380), #1);
#388 = MANIFOLD_SOLID_BREP('Solid0', #389);
#389 = CLOSED_SHELL('', (#390));
#390 = ADVANCED_FACE('', (#391), #406, .T.);
#391 = FACE_OUTER_BOUND('', #392, .T.);
#392 = EDGE_LOOP('', (#393, #405));
#393 = ORIENTED_EDGE('', *, *, #394, .F.);
#394 = EDGE_CURVE('', #395, #397, #399, .T.);
#395 = VERTEX_POINT('', #396);
#396 = CARTESIAN_POINT('', (-40., -40., -8.));
#397 = VERTEX_POINT('', #398);
#398 = CARTESIAN_POINT('', (-40., -40., 8.));
#399 = (
   BOUNDED_CURVE ()
   B_SPLINE_CURVE (2, (#400, #401, #402, #403, #404), .UNSPECIFIED., .F., .U.)
   B_SPLINE_CURVE_WITH_KNOTS ((3, 2, 3), (0., 0.5, 1.), .UNSPECIFIED.)
   CURVE ()
   GEOMETRIC_REPRESENTATION_ITEM ()
   RATIONAL_B_SPLINE_CURVE ((1., 0.707106781186548, 1., 0.707106781186548, 1.))
   REPRESENTATION_ITEM ('')
);
#400 = CARTESIAN_POINT('', (-40., -40., -8.));
#401 = CARTESIAN_POINT('', (-32., -40., -8.));
#402 = CARTESIAN_POINT('', (-32., -40., -1.95943487863577E-15));
#403 = CARTESIAN_POINT('', (-32., -40., 8.));
#404 = CARTESIAN_POINT('', (-40., -40., 8.));
#405 = ORIENTED_EDGE('', *, *, #394, .T.);
#406 = (
   BOUNDED_SURFACE ()
   B_SPLINE_SURFACE (2, 2, ((#407, #408, #409, #410, #411), (#412, #413, #414, #415, #416), (#417, #418, #419, #420, #421), (#422, #423, #424, #425, #426), (#427, #428, #429, #430, #431), (#432, #433, #434, #435, #436), (#437, #438, #439, #440, #441), (#442, #443, #444, #445, #446), (#447, #448, #449, #450, #451)), .UNSPECIFIED., .T., .F., .U.)
   B_SPLINE_SURFACE_WITH_KNOTS ((3, 2, 2, 2, 3), (3, 2, 3), (0., 0.25, 0.5, 0.75, 1.), (0., 0.5, 1.), .UNSPECIFIED.)
   GEOMETRIC_REPRESENTATION_ITEM ()
   RATIONAL_B_SPLINE_SURFACE (((1., 0.707106781186548, 1., 0.707106781186548, 1.), (0.707106781186548, 0.5, 0.707106781186548, 0.5, 0.707106781186548), (1., 0.707106781186548, 1., 0.707106781186548, 1.), (0.707106781186548, 0.5, 0.707106781186548, 0.5, 0.707106781186548), (1., 0.707106781186548, 1., 0.707106781186548, 1.), (0.707106781186548, 0.5, 0.707106781186548, 0.5, 0.707106781186548), (1., 0.707106781186548, 1., 0.707106781186548, 1.), (0.707106781186548, 0.5, 0.707106781186548, 0.5, 0.707106781186548), (1., 0.707106781186548, 1., 0.707106781186548, 1.)))
   REPRESENTATION_ITEM ('')
   SURFACE ()
);
#407 = CARTESIAN_POINT('', (-40., -40., -8.));
#408 = CARTESIAN_POINT('', (-32., -40., -8.));
#409 = CARTESIAN_POINT('', (-32., -40., -1.95943487863577E-15));
#410 = CARTESIAN_POINT('', (-32., -40., 8.));
#411 = CARTESIAN_POINT('', (-40., -40., 8.));
#412 = CARTESIAN_POINT('', (-40., -40., -8.));
#413 = CARTESIAN_POINT('', (-32., -32., -8.));
#414 = CARTESIAN_POINT('', (-32., -32., -1.95943487863577E-15));
#415 = CARTESIAN_POINT('', (-32., -32., 8.));
#416 = CARTESIAN_POINT('', (-40., -40., 8.));
#417 = CARTESIAN_POINT('', (-40., -40., -8.));
#418 = CARTESIAN_POINT('', (-40., -32., -8.));
#419 = CARTESIAN_POINT('', (-40., -32., -1.95943487863577E-15));
#420 = CARTESIAN_POINT('', (-40., -32., 8.));
#421 = CARTESIAN_POINT('', (-40., -40., 8.));
#422 = CARTESIAN_POINT('', (-40., -40., -8.));
#423 = CARTESIAN_POINT('', (-48., -32., -8.));
#424 = CARTESIAN_POINT('', (-48., -32., -1.95943487863577E-15));
#425 = CARTESIAN_POINT('', (-48., -32., 8.));
#426 = CARTESIAN_POINT('', (-40., -40., 8.));
#427 = CARTESIAN_POINT('', (-40., -40., -8.));
#428 = CARTESIAN_POINT('', (-48., -40., -8.));
#429 = CARTESIAN_POINT('', (-48., -40., -1.95943487863577E-15));
#430 = CARTESIAN_POINT('', (-48., -40., 8.));
#431 = CARTESIAN_POINT('', (-40., -40., 8.));
#432 = CARTESIAN_POINT('', (-40., -40., -8.));
#433 = CARTESIAN_POINT('', (-48., -48., -8.));
#434 = CARTESIAN_POINT('', (-48., -48., -1.95943487863577E-15));
#435 = CARTESIAN_POINT('', (-48., -48., 8.));
#436 = CARTESIAN_POINT('', (-40., -40., 8.));
#437 = CARTESIAN_POINT('', (-40., -40., -8.));
#438 = CARTESIAN_POINT('', (-40., -48., -8.));
#439 = CARTESIAN_POINT('', (-40., -48., -1.95943487863577E-15));
#440 = CARTESIAN_POINT('', (-40., -48., 8.));
#441 = CARTESIAN_POINT('', (-40., -40., 8.));
#442 = CARTESIAN_POINT('', (-40., -40., -8.));
#443 = CARTESIAN_POINT('', (-32., -48., -8.));
#444 = CARTESIAN_POINT('', (-32., -48., -1.95943487863577E-15));
#445 = CARTESIAN_POINT('', (-32., -48., 8.));
#446 = CARTESIAN_POINT('', (-40., -40., 8.));
#447 = CARTESIAN_POINT('', (-40., -40., -8.));
#448 = CARTESIAN_POINT('', (-32., -40., -8.));
#449 = CARTESIAN_POINT('', (-32., -40., -1.95943487863577E-15));
#450 = CARTESIAN_POINT('', (-32., -40., 8.));
#451 = CARTESIAN_POINT('', (-40., -40., 8.));
#452 = PRESENTATION_STYLE_ASSIGNMENT((#453));
#453 = SURFACE_STYLE_USAGE(.POSITIVE., #454);
#454 = SURFACE_SIDE_STYLE('', (#455));
#455 = SURFACE_STYLE_FILL_AREA(#456);
#456 = FILL_AREA_STYLE('', (#457));
#457 = FILL_AREA_STYLE_COLOUR('', #458);
#458 = COLOUR_RGB('', 0.50196078431373, 0.50196078431373, 0.50196078431373);
#459 = STYLED_ITEM('', (#452), #388);
#460 = CARTESIAN_POINT('Origin', (0., 0., 0.));
#461 = GEOMETRIC_SET('', (#460));
#462 = (
   GEOMETRIC_REPRESENTATION_CONTEXT (3)
   GLOBAL_UNCERTAINTY_ASSIGNED_CONTEXT ((#464))
   GLOBAL_UNIT_ASSIGNED_CONTEXT ((#463, #465, #466))
   REPRESENTATION_CONTEXT ('', '3D')
);
#463 = (
   LENGTH_UNIT ()
   NAMED_UNIT (*)
   SI_UNIT (.MILLI., .METRE.)
);
#464 = UNCERTAINTY_MEASURE_WITH_UNIT(LENGTH_MEASURE(1.E-6), #463, 'DISTANCE_ACCURACY_VALUE', '');
#465 = (
   NAMED_UNIT (*)
   SI_UNIT ($, .STERADIAN.)
   SOLID_ANGLE_UNIT ()
);
#466 = (
   NAMED_UNIT (*)
   PLANE_ANGLE_UNIT ()
   SI_UNIT ($, .RADIAN.)
);
#467 = SHAPE_REPRESENTATION('', (#482), #462);
#468 = PRODUCT_DEFINITION_SHAPE('', '', #469);
#469 = PRODUCT_DEFINITION('', '', #472, #476);
#470 = APPLICATION_CONTEXT('configuration controlled 3D designs of mechanical parts and assemblies');
#471 = APPLICATION_PROTOCOL_DEFINITION('International Standard', 'automotive_design', 2002, #470);
#472 = PRODUCT_DEFINITION_FORMATION_WITH_SPECIFIED_SOURCE('', '', #473, .NOT_KNOWN.);
#473 = PRODUCT('CompoundRot', 'CompoundRot', '', (#474));
#474 = PRODUCT_CONTEXT('', #470, 'mechanical');
#475 = PRODUCT_RELATED_PRODUCT_CATEGORY('detail', '', (#473));
#476 = PRODUCT_DEFINITION_CONTEXT('part definition', #470, 'design');
#477 = SHAPE_DEFINITION_REPRESENTATION(#468, #467);
#478 = SHAPE_REPRESENTATION_RELATIONSHIP('', '', #467, #479);
#479 = SHAPE_REPRESENTATION('', (#461), #462);
#480 = SHAPE_REPRESENTATION_RELATIONSHIP('', '', #467, #481);
#481 = ADVANCED_BREP_SHAPE_REPRESENTATION('', (#1, #388), #462);
#482 = AXIS2_PLACEMENT_3D('', #483, #484, #485);
#483 = CARTESIAN_POINT('', (0., 0., 0.));
#484 = DIRECTION('', (0., 0., 1.));
#485 = DIRECTION('', (1., 0., 0.));
ENDSEC;
END-ISO-10303-21;
