ISO-10303-21;
HEADER;
FILE_DESCRIPTION(('STEP'), '1');
FILE_NAME('SolidTypesTest', '2026-04-21T16:18:10', (''), (''), 'Express 3.1.2.0', 'Express Tool', 'Unknown');
FILE_SCHEMA(('AUTOMOTIVE_DESIGN'));
ENDSEC;

DATA;
#1 = MANIFOLD_SOLID_BREP('Solid', #2);
#2 = CLOSED_SHELL('', (#3));
#3 = ADVANCED_FACE('', (#4), #19, .T.);
#4 = FACE_OUTER_BOUND('', #5, .T.);
#5 = EDGE_LOOP('', (#6, #18));
#6 = ORIENTED_EDGE('', *, *, #7, .F.);
#7 = EDGE_CURVE('', #8, #10, #12, .T.);
#8 = VERTEX_POINT('', #9);
#9 = CARTESIAN_POINT('', (-3.67394039744206E-15, 0., -20.));
#10 = VERTEX_POINT('', #11);
#11 = CARTESIAN_POINT('', (6.12323399573677E-15, 0., 20.));
#12 = (
   BOUNDED_CURVE ()
   B_SPLINE_CURVE (2, (#13, #14, #15, #16, #17), .UNSPECIFIED., .F., .U.)
   B_SPLINE_CURVE_WITH_KNOTS ((3, 2, 3), (0., 0.5, 1.), .UNSPECIFIED.)
   CURVE ()
   GEOMETRIC_REPRESENTATION_ITEM ()
   RATIONAL_B_SPLINE_CURVE ((1., 0.707106781186548, 1., 0.707106781186548, 1.))
   REPRESENTATION_ITEM ('')
);
#13 = CARTESIAN_POINT('', (-3.67394039744206E-15, 0., -20.));
#14 = CARTESIAN_POINT('', (20., 0., -20.));
#15 = CARTESIAN_POINT('', (20., 0., -4.89858719658941E-15));
#16 = CARTESIAN_POINT('', (20., 0., 20.));
#17 = CARTESIAN_POINT('', (6.12323399573677E-15, 0., 20.));
#18 = ORIENTED_EDGE('', *, *, #7, .T.);
#19 = (
   BOUNDED_SURFACE ()
   B_SPLINE_SURFACE (2, 2, ((#20, #21, #22, #23, #24), (#25, #26, #27, #28, #29), (#30, #31, #32, #33, #34), (#35, #36, #37, #38, #39), (#40, #41, #42, #43, #44), (#45, #46, #47, #48, #49), (#50, #51, #52, #53, #54), (#55, #56, #57, #58, #59), (#60, #61, #62, #63, #64)), .UNSPECIFIED., .T., .F., .U.)
   B_SPLINE_SURFACE_WITH_KNOTS ((3, 2, 2, 2, 3), (3, 2, 3), (0., 0.25, 0.5, 0.75, 1.), (0., 0.5, 1.), .UNSPECIFIED.)
   GEOMETRIC_REPRESENTATION_ITEM ()
   RATIONAL_B_SPLINE_SURFACE (((1., 0.707106781186548, 1., 0.707106781186548, 1.), (0.707106781186548, 0.5, 0.707106781186548, 0.5, 0.707106781186548), (1., 0.707106781186548, 1., 0.707106781186548, 1.), (0.707106781186548, 0.5, 0.707106781186548, 0.5, 0.707106781186548), (1., 0.707106781186548, 1., 0.707106781186548, 1.), (0.707106781186548, 0.5, 0.707106781186548, 0.5, 0.707106781186548), (1., 0.707106781186548, 1., 0.707106781186548, 1.), (0.707106781186548, 0.5, 0.707106781186548, 0.5, 0.707106781186548), (1., 0.707106781186548, 1., 0.707106781186548, 1.)))
   REPRESENTATION_ITEM ('')
   SURFACE ()
);
#20 = CARTESIAN_POINT('', (-3.67394039744206E-15, 0., -20.));
#21 = CARTESIAN_POINT('', (20., 0., -20.));
#22 = CARTESIAN_POINT('', (20., 0., -4.89858719658941E-15));
#23 = CARTESIAN_POINT('', (20., 0., 20.));
#24 = CARTESIAN_POINT('', (6.12323399573677E-15, 0., 20.));
#25 = CARTESIAN_POINT('', (-3.67394039744206E-15, 0., -20.));
#26 = CARTESIAN_POINT('', (20., 20., -20.));
#27 = CARTESIAN_POINT('', (20., 20., -4.89858719658941E-15));
#28 = CARTESIAN_POINT('', (20., 20., 20.));
#29 = CARTESIAN_POINT('', (6.12323399573677E-15, 0., 20.));
#30 = CARTESIAN_POINT('', (-3.67394039744206E-15, 0., -20.));
#31 = CARTESIAN_POINT('', (1.22464679914735E-15, 20., -20.));
#32 = CARTESIAN_POINT('', (1.22464679914735E-15, 20., -4.89858719658941E-15));
#33 = CARTESIAN_POINT('', (1.22464679914735E-15, 20., 20.));
#34 = CARTESIAN_POINT('', (6.12323399573677E-15, 0., 20.));
#35 = CARTESIAN_POINT('', (-3.67394039744206E-15, 0., -20.));
#36 = CARTESIAN_POINT('', (-20., 20., -20.));
#37 = CARTESIAN_POINT('', (-20., 20., -4.89858719658941E-15));
#38 = CARTESIAN_POINT('', (-20., 20., 20.));
#39 = CARTESIAN_POINT('', (6.12323399573677E-15, 0., 20.));
#40 = CARTESIAN_POINT('', (-3.67394039744206E-15, 0., -20.));
#41 = CARTESIAN_POINT('', (-20., 2.44929359829471E-15, -20.));
#42 = CARTESIAN_POINT('', (-20., 2.44929359829471E-15, -4.89858719658941E-15));
#43 = CARTESIAN_POINT('', (-20., 2.44929359829471E-15, 20.));
#44 = CARTESIAN_POINT('', (6.12323399573677E-15, 0., 20.));
#45 = CARTESIAN_POINT('', (-3.67394039744206E-15, 0., -20.));
#46 = CARTESIAN_POINT('', (-20., -20., -20.));
#47 = CARTESIAN_POINT('', (-20., -20., -4.89858719658941E-15));
#48 = CARTESIAN_POINT('', (-20., -20., 20.));
#49 = CARTESIAN_POINT('', (6.12323399573677E-15, 0., 20.));
#50 = CARTESIAN_POINT('', (-3.67394039744206E-15, 0., -20.));
#51 = CARTESIAN_POINT('', (-3.67394039744206E-15, -20., -20.));
#52 = CARTESIAN_POINT('', (-3.67394039744206E-15, -20., -4.89858719658941E-15));
#53 = CARTESIAN_POINT('', (-3.67394039744206E-15, -20., 20.));
#54 = CARTESIAN_POINT('', (6.12323399573677E-15, 0., 20.));
#55 = CARTESIAN_POINT('', (-3.67394039744206E-15, 0., -20.));
#56 = CARTESIAN_POINT('', (20., -20., -20.));
#57 = CARTESIAN_POINT('', (20., -20., -4.89858719658941E-15));
#58 = CARTESIAN_POINT('', (20., -20., 20.));
#59 = CARTESIAN_POINT('', (6.12323399573677E-15, 0., 20.));
#60 = CARTESIAN_POINT('', (-3.67394039744206E-15, 0., -20.));
#61 = CARTESIAN_POINT('', (20., 0., -20.));
#62 = CARTESIAN_POINT('', (20., 0., -4.89858719658941E-15));
#63 = CARTESIAN_POINT('', (20., 0., 20.));
#64 = CARTESIAN_POINT('', (6.12323399573677E-15, 0., 20.));
#65 = DRAUGHTING_MODEL('', (#73, #157, #303), #306);
#66 = PRESENTATION_STYLE_ASSIGNMENT((#67));
#67 = SURFACE_STYLE_USAGE(.POSITIVE., #68);
#68 = SURFACE_SIDE_STYLE('', (#69));
#69 = SURFACE_STYLE_FILL_AREA(#70);
#70 = FILL_AREA_STYLE('', (#71));
#71 = FILL_AREA_STYLE_COLOUR('', #72);
#72 = COLOUR_RGB('', 0.50196078431373, 0.50196078431373, 0.50196078431373);
#73 = STYLED_ITEM('', (#66), #1);
#74 = MANIFOLD_SOLID_BREP('Solid0', #75);
#75 = CLOSED_SHELL('', (#76, #132, #141));
#76 = ADVANCED_FACE('', (#77), #113, .T.);
#77 = FACE_OUTER_BOUND('', #78, .T.);
#78 = EDGE_LOOP('', (#79, #88, #100, #101));
#79 = ORIENTED_EDGE('', *, *, #80, .F.);
#80 = EDGE_CURVE('', #81, #83, #85, .T.);
#81 = VERTEX_POINT('', #82);
#82 = CARTESIAN_POINT('', (92., 0., -20.));
#83 = VERTEX_POINT('', #84);
#84 = CARTESIAN_POINT('', (92., 0., 20.));
#85 = B_SPLINE_CURVE_WITH_KNOTS('', 1, (#86, #87), .UNSPECIFIED., .F., .U., (2, 2), (0., 40.), .UNSPECIFIED.);
#86 = CARTESIAN_POINT('', (92., 0., -20.));
#87 = CARTESIAN_POINT('', (92., 0., 20.));
#88 = ORIENTED_EDGE('', *, *, #89, .T.);
#89 = EDGE_CURVE('', #81, #81, #90, .T.);
#90 = (
   BOUNDED_CURVE ()
   B_SPLINE_CURVE (2, (#91, #92, #93, #94, #95, #96, #97, #98, #99), .UNSPECIFIED., .T., .U.)
   B_SPLINE_CURVE_WITH_KNOTS ((3, 2, 2, 2, 3), (0., 18.8495559215388, 37.6991118430775, 56.5486677646163, 75.398223686155), .UNSPECIFIED.)
   CURVE ()
   GEOMETRIC_REPRESENTATION_ITEM ()
   RATIONAL_B_SPLINE_CURVE ((1., 0.707106781186548, 1., 0.707106781186548, 1., 0.707106781186548, 1., 0.707106781186548, 1.))
   REPRESENTATION_ITEM ('')
);
#91 = CARTESIAN_POINT('', (92., 0., -20.));
#92 = CARTESIAN_POINT('', (92., 12., -20.));
#93 = CARTESIAN_POINT('', (80., 12., -20.));
#94 = CARTESIAN_POINT('', (68., 12., -20.));
#95 = CARTESIAN_POINT('', (68., 1.46957615897682E-15, -20.));
#96 = CARTESIAN_POINT('', (68., -12., -20.));
#97 = CARTESIAN_POINT('', (80., -12., -20.));
#98 = CARTESIAN_POINT('', (92., -12., -20.));
#99 = CARTESIAN_POINT('', (92., 0., -20.));
#100 = ORIENTED_EDGE('', *, *, #80, .T.);
#101 = ORIENTED_EDGE('', *, *, #102, .F.);
#102 = EDGE_CURVE('', #83, #83, #103, .T.);
#103 = (
   BOUNDED_CURVE ()
   B_SPLINE_CURVE (2, (#104, #105, #106, #107, #108, #109, #110, #111, #112), .UNSPECIFIED., .T., .U.)
   B_SPLINE_CURVE_WITH_KNOTS ((3, 2, 2, 2, 3), (0., 18.8495559215388, 37.6991118430775, 56.5486677646163, 75.398223686155), .UNSPECIFIED.)
   CURVE ()
   GEOMETRIC_REPRESENTATION_ITEM ()
   RATIONAL_B_SPLINE_CURVE ((1., 0.707106781186548, 1., 0.707106781186548, 1., 0.707106781186548, 1., 0.707106781186548, 1.))
   REPRESENTATION_ITEM ('')
);
#104 = CARTESIAN_POINT('', (92., 0., 20.));
#105 = CARTESIAN_POINT('', (92., 12., 20.));
#106 = CARTESIAN_POINT('', (80., 12., 20.));
#107 = CARTESIAN_POINT('', (68., 12., 20.));
#108 = CARTESIAN_POINT('', (68., 1.46957615897682E-15, 20.));
#109 = CARTESIAN_POINT('', (68., -12., 20.));
#110 = CARTESIAN_POINT('', (80., -12., 20.));
#111 = CARTESIAN_POINT('', (92., -12., 20.));
#112 = CARTESIAN_POINT('', (92., 0., 20.));
#113 = (
   BOUNDED_SURFACE ()
   B_SPLINE_SURFACE (2, 1, ((#114, #115), (#116, #117), (#118, #119), (#120, #121), (#122, #123), (#124, #125), (#126, #127), (#128, #129), (#130, #131)), .UNSPECIFIED., .T., .F., .U.)
   B_SPLINE_SURFACE_WITH_KNOTS ((3, 2, 2, 2, 3), (2, 2), (0., 18.8495559215388, 37.6991118430775, 56.5486677646163, 75.398223686155), (0., 40.), .UNSPECIFIED.)
   GEOMETRIC_REPRESENTATION_ITEM ()
   RATIONAL_B_SPLINE_SURFACE (((1., 1.), (0.707106781186548, 0.707106781186548), (1., 1.), (0.707106781186548, 0.707106781186548), (1., 1.), (0.707106781186548, 0.707106781186548), (1., 1.), (0.707106781186548, 0.707106781186548), (1., 1.)))
   REPRESENTATION_ITEM ('')
   SURFACE ()
);
#114 = CARTESIAN_POINT('', (92., 0., -20.));
#115 = CARTESIAN_POINT('', (92., 0., 20.));
#116 = CARTESIAN_POINT('', (92., 12., -20.));
#117 = CARTESIAN_POINT('', (92., 12., 20.));
#118 = CARTESIAN_POINT('', (80., 12., -20.));
#119 = CARTESIAN_POINT('', (80., 12., 20.));
#120 = CARTESIAN_POINT('', (68., 12., -20.));
#121 = CARTESIAN_POINT('', (68., 12., 20.));
#122 = CARTESIAN_POINT('', (68., 1.46957615897682E-15, -20.));
#123 = CARTESIAN_POINT('', (68., 1.46957615897682E-15, 20.));
#124 = CARTESIAN_POINT('', (68., -12., -20.));
#125 = CARTESIAN_POINT('', (68., -12., 20.));
#126 = CARTESIAN_POINT('', (80., -12., -20.));
#127 = CARTESIAN_POINT('', (80., -12., 20.));
#128 = CARTESIAN_POINT('', (92., -12., -20.));
#129 = CARTESIAN_POINT('', (92., -12., 20.));
#130 = CARTESIAN_POINT('', (92., 0., -20.));
#131 = CARTESIAN_POINT('', (92., 0., 20.));
#132 = ADVANCED_FACE('', (#133), #136, .T.);
#133 = FACE_OUTER_BOUND('', #134, .T.);
#134 = EDGE_LOOP('', (#135));
#135 = ORIENTED_EDGE('', *, *, #89, .F.);
#136 = B_SPLINE_SURFACE_WITH_KNOTS('', 1, 1, ((#137, #138), (#139, #140)), .UNSPECIFIED., .F., .F., .U., (2, 2), (2, 2), (0., 1.), (0., 1.), .UNSPECIFIED.);
#137 = CARTESIAN_POINT('', (98.6676190233249, -18.6676190233249, -20.));
#138 = CARTESIAN_POINT('', (98.6676190233249, 18.6676190233249, -20.));
#139 = CARTESIAN_POINT('', (61.3323809766751, -18.6676190233249, -20.));
#140 = CARTESIAN_POINT('', (61.3323809766751, 18.6676190233249, -20.));
#141 = ADVANCED_FACE('', (#142), #145, .T.);
#142 = FACE_OUTER_BOUND('', #143, .T.);
#143 = EDGE_LOOP('', (#144));
#144 = ORIENTED_EDGE('', *, *, #102, .T.);
#145 = B_SPLINE_SURFACE_WITH_KNOTS('', 1, 1, ((#146, #147), (#148, #149)), .UNSPECIFIED., .F., .F., .U., (2, 2), (2, 2), (0., 1.), (0., 1.), .UNSPECIFIED.);
#146 = CARTESIAN_POINT('', (98.6676190233249, -18.6676190233249, 20.));
#147 = CARTESIAN_POINT('', (61.3323809766751, -18.6676190233249, 20.));
#148 = CARTESIAN_POINT('', (98.6676190233249, 18.6676190233249, 20.));
#149 = CARTESIAN_POINT('', (61.3323809766751, 18.6676190233249, 20.));
#150 = PRESENTATION_STYLE_ASSIGNMENT((#151));
#151 = SURFACE_STYLE_USAGE(.POSITIVE., #152);
#152 = SURFACE_SIDE_STYLE('', (#153));
#153 = SURFACE_STYLE_FILL_AREA(#154);
#154 = FILL_AREA_STYLE('', (#155));
#155 = FILL_AREA_STYLE_COLOUR('', #156);
#156 = COLOUR_RGB('', 0.50196078431373, 0.50196078431373, 0.50196078431373);
#157 = STYLED_ITEM('', (#150), #74);
#158 = MANIFOLD_SOLID_BREP('Solid1', #159);
#159 = CLOSED_SHELL('', (#160, #196, #224, #252, #272, #284));
#160 = ADVANCED_FACE('', (#161), #191, .T.);
#161 = FACE_OUTER_BOUND('', #162, .T.);
#162 = EDGE_LOOP('', (#163, #172, #179, #186));
#163 = ORIENTED_EDGE('', *, *, #164, .T.);
#164 = EDGE_CURVE('', #165, #167, #169, .T.);
#165 = VERTEX_POINT('', #166);
#166 = CARTESIAN_POINT('', (-15., 90., -5.));
#167 = VERTEX_POINT('', #168);
#168 = CARTESIAN_POINT('', (-15., 90., 5.));
#169 = B_SPLINE_CURVE_WITH_KNOTS('', 1, (#170, #171), .UNSPECIFIED., .F., .U., (2, 2), (0., 10.), .UNSPECIFIED.);
#170 = CARTESIAN_POINT('', (-15., 90., -5.));
#171 = CARTESIAN_POINT('', (-15., 90., 5.));
#172 = ORIENTED_EDGE('', *, *, #173, .T.);
#173 = EDGE_CURVE('', #167, #174, #176, .T.);
#174 = VERTEX_POINT('', #175);
#175 = CARTESIAN_POINT('', (15., 90., 5.));
#176 = B_SPLINE_CURVE_WITH_KNOTS('', 1, (#177, #178), .UNSPECIFIED., .F., .U., (2, 2), (0., 30.), .UNSPECIFIED.);
#177 = CARTESIAN_POINT('', (-15., 90., 5.));
#178 = CARTESIAN_POINT('', (15., 90., 5.));
#179 = ORIENTED_EDGE('', *, *, #180, .F.);
#180 = EDGE_CURVE('', #181, #174, #183, .T.);
#181 = VERTEX_POINT('', #182);
#182 = CARTESIAN_POINT('', (15., 90., -5.));
#183 = B_SPLINE_CURVE_WITH_KNOTS('', 1, (#184, #185), .UNSPECIFIED., .F., .U., (2, 2), (0., 10.), .UNSPECIFIED.);
#184 = CARTESIAN_POINT('', (15., 90., -5.));
#185 = CARTESIAN_POINT('', (15., 90., 5.));
#186 = ORIENTED_EDGE('', *, *, #187, .F.);
#187 = EDGE_CURVE('', #165, #181, #188, .T.);
#188 = B_SPLINE_CURVE_WITH_KNOTS('', 1, (#189, #190), .UNSPECIFIED., .F., .U., (2, 2), (0., 30.), .UNSPECIFIED.);
#189 = CARTESIAN_POINT('', (-15., 90., -5.));
#190 = CARTESIAN_POINT('', (15., 90., -5.));
#191 = B_SPLINE_SURFACE_WITH_KNOTS('', 1, 1, ((#192, #193), (#194, #195)), .UNSPECIFIED., .F., .F., .U., (2, 2), (2, 2), (0., 10.), (0., 30.), .UNSPECIFIED.);
#192 = CARTESIAN_POINT('', (-15., 90., -5.));
#193 = CARTESIAN_POINT('', (15., 90., -5.));
#194 = CARTESIAN_POINT('', (-15., 90., 5.));
#195 = CARTESIAN_POINT('', (15., 90., 5.));
#196 = ADVANCED_FACE('', (#197), #219, .T.);
#197 = FACE_OUTER_BOUND('', #198, .T.);
#198 = EDGE_LOOP('', (#199, #206, #213, #218));
#199 = ORIENTED_EDGE('', *, *, #200, .F.);
#200 = EDGE_CURVE('', #201, #167, #203, .T.);
#201 = VERTEX_POINT('', #202);
#202 = CARTESIAN_POINT('', (-15., 70., 5.));
#203 = B_SPLINE_CURVE_WITH_KNOTS('', 1, (#204, #205), .UNSPECIFIED., .F., .U., (2, 2), (0., 20.), .UNSPECIFIED.);
#204 = CARTESIAN_POINT('', (-15., 70., 5.));
#205 = CARTESIAN_POINT('', (-15., 90., 5.));
#206 = ORIENTED_EDGE('', *, *, #207, .T.);
#207 = EDGE_CURVE('', #201, #208, #210, .T.);
#208 = VERTEX_POINT('', #209);
#209 = CARTESIAN_POINT('', (15., 70., 5.));
#210 = B_SPLINE_CURVE_WITH_KNOTS('', 1, (#211, #212), .UNSPECIFIED., .F., .U., (2, 2), (0., 30.), .UNSPECIFIED.);
#211 = CARTESIAN_POINT('', (-15., 70., 5.));
#212 = CARTESIAN_POINT('', (15., 70., 5.));
#213 = ORIENTED_EDGE('', *, *, #214, .T.);
#214 = EDGE_CURVE('', #208, #174, #215, .T.);
#215 = B_SPLINE_CURVE_WITH_KNOTS('', 1, (#216, #217), .UNSPECIFIED., .F., .U., (2, 2), (0., 20.), .UNSPECIFIED.);
#216 = CARTESIAN_POINT('', (15., 70., 5.));
#217 = CARTESIAN_POINT('', (15., 90., 5.));
#218 = ORIENTED_EDGE('', *, *, #173, .F.);
#219 = B_SPLINE_SURFACE_WITH_KNOTS('', 1, 1, ((#220, #221), (#222, #223)), .UNSPECIFIED., .F., .F., .U., (2, 2), (2, 2), (0., 30.), (0., 20.), .UNSPECIFIED.);
#220 = CARTESIAN_POINT('', (-15., 70., 5.));
#221 = CARTESIAN_POINT('', (-15., 90., 5.));
#222 = CARTESIAN_POINT('', (15., 70., 5.));
#223 = CARTESIAN_POINT('', (15., 90., 5.));
#224 = ADVANCED_FACE('', (#225), #247, .T.);
#225 = FACE_OUTER_BOUND('', #226, .T.);
#226 = EDGE_LOOP('', (#227, #234, #241, #246));
#227 = ORIENTED_EDGE('', *, *, #228, .F.);
#228 = EDGE_CURVE('', #229, #201, #231, .T.);
#229 = VERTEX_POINT('', #230);
#230 = CARTESIAN_POINT('', (-15., 70., -5.));
#231 = B_SPLINE_CURVE_WITH_KNOTS('', 1, (#232, #233), .UNSPECIFIED., .F., .U., (2, 2), (0., 10.), .UNSPECIFIED.);
#232 = CARTESIAN_POINT('', (-15., 70., -5.));
#233 = CARTESIAN_POINT('', (-15., 70., 5.));
#234 = ORIENTED_EDGE('', *, *, #235, .T.);
#235 = EDGE_CURVE('', #229, #236, #238, .T.);
#236 = VERTEX_POINT('', #237);
#237 = CARTESIAN_POINT('', (15., 70., -5.));
#238 = B_SPLINE_CURVE_WITH_KNOTS('', 1, (#239, #240), .UNSPECIFIED., .F., .U., (2, 2), (0., 30.), .UNSPECIFIED.);
#239 = CARTESIAN_POINT('', (-15., 70., -5.));
#240 = CARTESIAN_POINT('', (15., 70., -5.));
#241 = ORIENTED_EDGE('', *, *, #242, .T.);
#242 = EDGE_CURVE('', #236, #208, #243, .T.);
#243 = B_SPLINE_CURVE_WITH_KNOTS('', 1, (#244, #245), .UNSPECIFIED., .F., .U., (2, 2), (0., 10.), .UNSPECIFIED.);
#244 = CARTESIAN_POINT('', (15., 70., -5.));
#245 = CARTESIAN_POINT('', (15., 70., 5.));
#246 = ORIENTED_EDGE('', *, *, #207, .F.);
#247 = B_SPLINE_SURFACE_WITH_KNOTS('', 1, 1, ((#248, #249), (#250, #251)), .UNSPECIFIED., .F., .F., .U., (2, 2), (2, 2), (0., 30.), (0., 10.), .UNSPECIFIED.);
#248 = CARTESIAN_POINT('', (-15., 70., -5.));
#249 = CARTESIAN_POINT('', (-15., 70., 5.));
#250 = CARTESIAN_POINT('', (15., 70., -5.));
#251 = CARTESIAN_POINT('', (15., 70., 5.));
#252 = ADVANCED_FACE('', (#253), #267, .T.);
#253 = FACE_OUTER_BOUND('', #254, .T.);
#254 = EDGE_LOOP('', (#255, #260, #261, #266));
#255 = ORIENTED_EDGE('', *, *, #256, .T.);
#256 = EDGE_CURVE('', #229, #165, #257, .T.);
#257 = B_SPLINE_CURVE_WITH_KNOTS('', 1, (#258, #259), .UNSPECIFIED., .F., .U., (2, 2), (0., 20.), .UNSPECIFIED.);
#258 = CARTESIAN_POINT('', (-15., 70., -5.));
#259 = CARTESIAN_POINT('', (-15., 90., -5.));
#260 = ORIENTED_EDGE('', *, *, #187, .T.);
#261 = ORIENTED_EDGE('', *, *, #262, .F.);
#262 = EDGE_CURVE('', #236, #181, #263, .T.);
#263 = B_SPLINE_CURVE_WITH_KNOTS('', 1, (#264, #265), .UNSPECIFIED., .F., .U., (2, 2), (0., 20.), .UNSPECIFIED.);
#264 = CARTESIAN_POINT('', (15., 70., -5.));
#265 = CARTESIAN_POINT('', (15., 90., -5.));
#266 = ORIENTED_EDGE('', *, *, #235, .F.);
#267 = B_SPLINE_SURFACE_WITH_KNOTS('', 1, 1, ((#268, #269), (#270, #271)), .UNSPECIFIED., .F., .F., .U., (2, 2), (2, 2), (0., 20.), (0., 30.), .UNSPECIFIED.);
#268 = CARTESIAN_POINT('', (-15., 70., -5.));
#269 = CARTESIAN_POINT('', (15., 70., -5.));
#270 = CARTESIAN_POINT('', (-15., 90., -5.));
#271 = CARTESIAN_POINT('', (15., 90., -5.));
#272 = ADVANCED_FACE('', (#273), #279, .T.);
#273 = FACE_OUTER_BOUND('', #274, .T.);
#274 = EDGE_LOOP('', (#275, #276, #277, #278));
#275 = ORIENTED_EDGE('', *, *, #242, .F.);
#276 = ORIENTED_EDGE('', *, *, #262, .T.);
#277 = ORIENTED_EDGE('', *, *, #180, .T.);
#278 = ORIENTED_EDGE('', *, *, #214, .F.);
#279 = B_SPLINE_SURFACE_WITH_KNOTS('', 1, 1, ((#280, #281), (#282, #283)), .UNSPECIFIED., .F., .F., .U., (2, 2), (2, 2), (0., 20.), (0., 10.), .UNSPECIFIED.);
#280 = CARTESIAN_POINT('', (15., 70., -5.));
#281 = CARTESIAN_POINT('', (15., 70., 5.));
#282 = CARTESIAN_POINT('', (15., 90., -5.));
#283 = CARTESIAN_POINT('', (15., 90., 5.));
#284 = ADVANCED_FACE('', (#285), #291, .T.);
#285 = FACE_OUTER_BOUND('', #286, .T.);
#286 = EDGE_LOOP('', (#287, #288, #289, #290));
#287 = ORIENTED_EDGE('', *, *, #228, .T.);
#288 = ORIENTED_EDGE('', *, *, #200, .T.);
#289 = ORIENTED_EDGE('', *, *, #164, .F.);
#290 = ORIENTED_EDGE('', *, *, #256, .F.);
#291 = B_SPLINE_SURFACE_WITH_KNOTS('', 1, 1, ((#292, #293), (#294, #295)), .UNSPECIFIED., .F., .F., .U., (2, 2), (2, 2), (0., 10.), (0., 20.), .UNSPECIFIED.);
#292 = CARTESIAN_POINT('', (-15., 70., -5.));
#293 = CARTESIAN_POINT('', (-15., 90., -5.));
#294 = CARTESIAN_POINT('', (-15., 70., 5.));
#295 = CARTESIAN_POINT('', (-15., 90., 5.));
#296 = PRESENTATION_STYLE_ASSIGNMENT((#297));
#297 = SURFACE_STYLE_USAGE(.POSITIVE., #298);
#298 = SURFACE_SIDE_STYLE('', (#299));
#299 = SURFACE_STYLE_FILL_AREA(#300);
#300 = FILL_AREA_STYLE('', (#301));
#301 = FILL_AREA_STYLE_COLOUR('', #302);
#302 = COLOUR_RGB('', 0.50196078431373, 0.50196078431373, 0.50196078431373);
#303 = STYLED_ITEM('', (#296), #158);
#304 = CARTESIAN_POINT('Origin', (0., 0., 0.));
#305 = GEOMETRIC_SET('', (#304));
#306 = (
   GEOMETRIC_REPRESENTATION_CONTEXT (3)
   GLOBAL_UNCERTAINTY_ASSIGNED_CONTEXT ((#308))
   GLOBAL_UNIT_ASSIGNED_CONTEXT ((#307, #309, #310))
   REPRESENTATION_CONTEXT ('', '3D')
);
#307 = (
   LENGTH_UNIT ()
   NAMED_UNIT (*)
   SI_UNIT (.MILLI., .METRE.)
);
#308 = UNCERTAINTY_MEASURE_WITH_UNIT(LENGTH_MEASURE(1.E-6), #307, 'DISTANCE_ACCURACY_VALUE', '');
#309 = (
   NAMED_UNIT (*)
   SI_UNIT ($, .STERADIAN.)
   SOLID_ANGLE_UNIT ()
);
#310 = (
   NAMED_UNIT (*)
   PLANE_ANGLE_UNIT ()
   SI_UNIT ($, .RADIAN.)
);
#311 = SHAPE_REPRESENTATION('', (#326), #306);
#312 = PRODUCT_DEFINITION_SHAPE('', '', #313);
#313 = PRODUCT_DEFINITION('', '', #316, #320);
#314 = APPLICATION_CONTEXT('configuration controlled 3D designs of mechanical parts and assemblies');
#315 = APPLICATION_PROTOCOL_DEFINITION('International Standard', 'automotive_design', 2002, #314);
#316 = PRODUCT_DEFINITION_FORMATION_WITH_SPECIFIED_SOURCE('', '', #317, .NOT_KNOWN.);
#317 = PRODUCT('SolidTypesTest', 'SolidTypesTest', '', (#318));
#318 = PRODUCT_CONTEXT('', #314, 'mechanical');
#319 = PRODUCT_RELATED_PRODUCT_CATEGORY('detail', '', (#317));
#320 = PRODUCT_DEFINITION_CONTEXT('part definition', #314, 'design');
#321 = SHAPE_DEFINITION_REPRESENTATION(#312, #311);
#322 = SHAPE_REPRESENTATION_RELATIONSHIP('', '', #311, #323);
#323 = SHAPE_REPRESENTATION('', (#305), #306);
#324 = SHAPE_REPRESENTATION_RELATIONSHIP('', '', #311, #325);
#325 = ADVANCED_BREP_SHAPE_REPRESENTATION('', (#1, #74, #158), #306);
#326 = AXIS2_PLACEMENT_3D('', #327, #328, #329);
#327 = CARTESIAN_POINT('', (0., 0., 0.));
#328 = DIRECTION('', (0., 0., 1.));
#329 = DIRECTION('', (1., 0., 0.));
ENDSEC;
END-ISO-10303-21;
