ISO-10303-21;
HEADER;
FILE_DESCRIPTION(('STEP'), '1');
FILE_NAME('SliceRevNormal', '2026-04-15T13:35:43', (''), (''), 'Express 3.1.2.0', 'Express Tool', 'Unknown');
FILE_SCHEMA(('AUTOMOTIVE_DESIGN'));
ENDSEC;

DATA;
#1 = MANIFOLD_SOLID_BREP('Solid', #2);
#2 = CLOSED_SHELL('', (#3, #39, #67, #95, #111, #127));
#3 = ADVANCED_FACE('', (#4), #34, .T.);
#4 = FACE_OUTER_BOUND('', #5, .T.);
#5 = EDGE_LOOP('', (#6, #15, #22, #29));
#6 = ORIENTED_EDGE('', *, *, #7, .F.);
#7 = EDGE_CURVE('', #8, #10, #12, .T.);
#8 = VERTEX_POINT('', #9);
#9 = CARTESIAN_POINT('', (-40., -30., 20.));
#10 = VERTEX_POINT('', #11);
#11 = CARTESIAN_POINT('', (-40., 30., 20.));
#12 = B_SPLINE_CURVE_WITH_KNOTS('', 1, (#13, #14), .UNSPECIFIED., .F., .U., (2, 2), (0., 60.), .UNSPECIFIED.);
#13 = CARTESIAN_POINT('', (-40., -30., 20.));
#14 = CARTESIAN_POINT('', (-40., 30., 20.));
#15 = ORIENTED_EDGE('', *, *, #16, .T.);
#16 = EDGE_CURVE('', #8, #17, #19, .T.);
#17 = VERTEX_POINT('', #18);
#18 = CARTESIAN_POINT('', (40., -30., 20.));
#19 = B_SPLINE_CURVE_WITH_KNOTS('', 1, (#20, #21), .UNSPECIFIED., .F., .U., (2, 2), (0., 80.), .UNSPECIFIED.);
#20 = CARTESIAN_POINT('', (-40., -30., 20.));
#21 = CARTESIAN_POINT('', (40., -30., 20.));
#22 = ORIENTED_EDGE('', *, *, #23, .T.);
#23 = EDGE_CURVE('', #17, #24, #26, .T.);
#24 = VERTEX_POINT('', #25);
#25 = CARTESIAN_POINT('', (40., 30., 20.));
#26 = B_SPLINE_CURVE_WITH_KNOTS('', 1, (#27, #28), .UNSPECIFIED., .F., .U., (2, 2), (0., 60.), .UNSPECIFIED.);
#27 = CARTESIAN_POINT('', (40., -30., 20.));
#28 = CARTESIAN_POINT('', (40., 30., 20.));
#29 = ORIENTED_EDGE('', *, *, #30, .F.);
#30 = EDGE_CURVE('', #10, #24, #31, .T.);
#31 = B_SPLINE_CURVE_WITH_KNOTS('', 1, (#32, #33), .UNSPECIFIED., .F., .U., (2, 2), (0., 80.), .UNSPECIFIED.);
#32 = CARTESIAN_POINT('', (-40., 30., 20.));
#33 = CARTESIAN_POINT('', (40., 30., 20.));
#34 = B_SPLINE_SURFACE_WITH_KNOTS('', 1, 1, ((#35, #36), (#37, #38)), .UNSPECIFIED., .F., .F., .U., (2, 2), (2, 2), (0., 80.), (0., 60.), .UNSPECIFIED.);
#35 = CARTESIAN_POINT('', (-40., -30., 20.));
#36 = CARTESIAN_POINT('', (-40., 30., 20.));
#37 = CARTESIAN_POINT('', (40., -30., 20.));
#38 = CARTESIAN_POINT('', (40., 30., 20.));
#39 = ADVANCED_FACE('', (#40), #62, .T.);
#40 = FACE_OUTER_BOUND('', #41, .T.);
#41 = EDGE_LOOP('', (#42, #51, #56, #57));
#42 = ORIENTED_EDGE('', *, *, #43, .F.);
#43 = EDGE_CURVE('', #44, #46, #48, .T.);
#44 = VERTEX_POINT('', #45);
#45 = CARTESIAN_POINT('', (-40., -30., 0.));
#46 = VERTEX_POINT('', #47);
#47 = CARTESIAN_POINT('', (-40., 30., 0.));
#48 = B_SPLINE_CURVE_WITH_KNOTS('', 1, (#49, #50), .UNSPECIFIED., .F., .U., (2, 2), (0., 1.), .UNSPECIFIED.);
#49 = CARTESIAN_POINT('', (-40., -30., 0.));
#50 = CARTESIAN_POINT('', (-40., 30., 0.));
#51 = ORIENTED_EDGE('', *, *, #52, .T.);
#52 = EDGE_CURVE('', #44, #8, #53, .T.);
#53 = B_SPLINE_CURVE_WITH_KNOTS('', 1, (#54, #55), .UNSPECIFIED., .F., .U., (2, 2), (20., 40.), .UNSPECIFIED.);
#54 = CARTESIAN_POINT('', (-40., -30., 0.));
#55 = CARTESIAN_POINT('', (-40., -30., 20.));
#56 = ORIENTED_EDGE('', *, *, #7, .T.);
#57 = ORIENTED_EDGE('', *, *, #58, .F.);
#58 = EDGE_CURVE('', #46, #10, #59, .T.);
#59 = B_SPLINE_CURVE_WITH_KNOTS('', 1, (#60, #61), .UNSPECIFIED., .F., .U., (2, 2), (20., 40.), .UNSPECIFIED.);
#60 = CARTESIAN_POINT('', (-40., 30., 0.));
#61 = CARTESIAN_POINT('', (-40., 30., 20.));
#62 = B_SPLINE_SURFACE_WITH_KNOTS('', 1, 1, ((#63, #64), (#65, #66)), .UNSPECIFIED., .F., .F., .U., (2, 2), (2, 2), (0., 40.), (0., 60.), .UNSPECIFIED.);
#63 = CARTESIAN_POINT('', (-40., -30., -20.));
#64 = CARTESIAN_POINT('', (-40., 30., -20.));
#65 = CARTESIAN_POINT('', (-40., -30., 20.));
#66 = CARTESIAN_POINT('', (-40., 30., 20.));
#67 = ADVANCED_FACE('', (#68), #90, .T.);
#68 = FACE_OUTER_BOUND('', #69, .T.);
#69 = EDGE_LOOP('', (#70, #79, #84, #85));
#70 = ORIENTED_EDGE('', *, *, #71, .F.);
#71 = EDGE_CURVE('', #72, #74, #76, .T.);
#72 = VERTEX_POINT('', #73);
#73 = CARTESIAN_POINT('', (40., 30., 0.));
#74 = VERTEX_POINT('', #75);
#75 = CARTESIAN_POINT('', (40., -30., 0.));
#76 = B_SPLINE_CURVE_WITH_KNOTS('', 1, (#77, #78), .UNSPECIFIED., .F., .U., (2, 2), (0., 1.), .UNSPECIFIED.);
#77 = CARTESIAN_POINT('', (40., 30., 0.));
#78 = CARTESIAN_POINT('', (40., -30., 0.));
#79 = ORIENTED_EDGE('', *, *, #80, .T.);
#80 = EDGE_CURVE('', #72, #24, #81, .T.);
#81 = B_SPLINE_CURVE_WITH_KNOTS('', 1, (#82, #83), .UNSPECIFIED., .F., .U., (2, 2), (20., 40.), .UNSPECIFIED.);
#82 = CARTESIAN_POINT('', (40., 30., 0.));
#83 = CARTESIAN_POINT('', (40., 30., 20.));
#84 = ORIENTED_EDGE('', *, *, #23, .F.);
#85 = ORIENTED_EDGE('', *, *, #86, .F.);
#86 = EDGE_CURVE('', #74, #17, #87, .T.);
#87 = B_SPLINE_CURVE_WITH_KNOTS('', 1, (#88, #89), .UNSPECIFIED., .F., .U., (2, 2), (20., 40.), .UNSPECIFIED.);
#88 = CARTESIAN_POINT('', (40., -30., 0.));
#89 = CARTESIAN_POINT('', (40., -30., 20.));
#90 = B_SPLINE_SURFACE_WITH_KNOTS('', 1, 1, ((#91, #92), (#93, #94)), .UNSPECIFIED., .F., .F., .U., (2, 2), (2, 2), (0., 60.), (0., 40.), .UNSPECIFIED.);
#91 = CARTESIAN_POINT('', (40., -30., -20.));
#92 = CARTESIAN_POINT('', (40., -30., 20.));
#93 = CARTESIAN_POINT('', (40., 30., -20.));
#94 = CARTESIAN_POINT('', (40., 30., 20.));
#95 = ADVANCED_FACE('', (#96), #106, .T.);
#96 = FACE_OUTER_BOUND('', #97, .T.);
#97 = EDGE_LOOP('', (#98, #103, #104, #105));
#98 = ORIENTED_EDGE('', *, *, #99, .F.);
#99 = EDGE_CURVE('', #74, #44, #100, .T.);
#100 = B_SPLINE_CURVE_WITH_KNOTS('', 1, (#101, #102), .UNSPECIFIED., .F., .U., (2, 2), (0., 1.), .UNSPECIFIED.);
#101 = CARTESIAN_POINT('', (40., -30., 0.));
#102 = CARTESIAN_POINT('', (-40., -30., 0.));
#103 = ORIENTED_EDGE('', *, *, #86, .T.);
#104 = ORIENTED_EDGE('', *, *, #16, .F.);
#105 = ORIENTED_EDGE('', *, *, #52, .F.);
#106 = B_SPLINE_SURFACE_WITH_KNOTS('', 1, 1, ((#107, #108), (#109, #110)), .UNSPECIFIED., .F., .F., .U., (2, 2), (2, 2), (0., 80.), (0., 40.), .UNSPECIFIED.);
#107 = CARTESIAN_POINT('', (-40., -30., -20.));
#108 = CARTESIAN_POINT('', (-40., -30., 20.));
#109 = CARTESIAN_POINT('', (40., -30., -20.));
#110 = CARTESIAN_POINT('', (40., -30., 20.));
#111 = ADVANCED_FACE('', (#112), #122, .T.);
#112 = FACE_OUTER_BOUND('', #113, .T.);
#113 = EDGE_LOOP('', (#114, #119, #120, #121));
#114 = ORIENTED_EDGE('', *, *, #115, .F.);
#115 = EDGE_CURVE('', #46, #72, #116, .T.);
#116 = B_SPLINE_CURVE_WITH_KNOTS('', 1, (#117, #118), .UNSPECIFIED., .F., .U., (2, 2), (0., 1.), .UNSPECIFIED.);
#117 = CARTESIAN_POINT('', (-40., 30., 0.));
#118 = CARTESIAN_POINT('', (40., 30., 0.));
#119 = ORIENTED_EDGE('', *, *, #58, .T.);
#120 = ORIENTED_EDGE('', *, *, #30, .T.);
#121 = ORIENTED_EDGE('', *, *, #80, .F.);
#122 = B_SPLINE_SURFACE_WITH_KNOTS('', 1, 1, ((#123, #124), (#125, #126)), .UNSPECIFIED., .F., .F., .U., (2, 2), (2, 2), (0., 40.), (0., 80.), .UNSPECIFIED.);
#123 = CARTESIAN_POINT('', (-40., 30., -20.));
#124 = CARTESIAN_POINT('', (40., 30., -20.));
#125 = CARTESIAN_POINT('', (-40., 30., 20.));
#126 = CARTESIAN_POINT('', (40., 30., 20.));
#127 = ADVANCED_FACE('', (#128), #134, .F.);
#128 = FACE_OUTER_BOUND('', #129, .F.);
#129 = EDGE_LOOP('', (#130, #131, #132, #133));
#130 = ORIENTED_EDGE('', *, *, #115, .F.);
#131 = ORIENTED_EDGE('', *, *, #43, .F.);
#132 = ORIENTED_EDGE('', *, *, #99, .F.);
#133 = ORIENTED_EDGE('', *, *, #71, .F.);
#134 = B_SPLINE_SURFACE_WITH_KNOTS('', 1, 1, ((#135, #136), (#137, #138)), .UNSPECIFIED., .F., .F., .U., (2, 2), (2, 2), (0., 215.406725986027), (0., 215.406725986027), .UNSPECIFIED.);
#135 = CARTESIAN_POINT('', (107.703362993013, 107.703362993013, 0.));
#136 = CARTESIAN_POINT('', (107.703362993013, -107.703362993013, 0.));
#137 = CARTESIAN_POINT('', (-107.703362993013, 107.703362993013, 0.));
#138 = CARTESIAN_POINT('', (-107.703362993013, -107.703362993013, 0.));
#139 = DRAUGHTING_MODEL('', (#147, #231), #234);
#140 = PRESENTATION_STYLE_ASSIGNMENT((#141));
#141 = SURFACE_STYLE_USAGE(.POSITIVE., #142);
#142 = SURFACE_SIDE_STYLE('', (#143));
#143 = SURFACE_STYLE_FILL_AREA(#144);
#144 = FILL_AREA_STYLE('', (#145));
#145 = FILL_AREA_STYLE_COLOUR('', #146);
#146 = COLOUR_RGB('', 0.50196078431373, 0.50196078431373, 0.50196078431373);
#147 = STYLED_ITEM('', (#140), #1);
#148 = MANIFOLD_SOLID_BREP('Solid0', #149);
#149 = CLOSED_SHELL('', (#150, #206, #215));
#150 = ADVANCED_FACE('', (#151), #187, .T.);
#151 = FACE_OUTER_BOUND('', #152, .T.);
#152 = EDGE_LOOP('', (#153, #162, #174, #175));
#153 = ORIENTED_EDGE('', *, *, #154, .F.);
#154 = EDGE_CURVE('', #155, #157, #159, .T.);
#155 = VERTEX_POINT('', #156);
#156 = CARTESIAN_POINT('', (65., 0., -20.));
#157 = VERTEX_POINT('', #158);
#158 = CARTESIAN_POINT('', (65., 0., 20.));
#159 = B_SPLINE_CURVE_WITH_KNOTS('', 1, (#160, #161), .UNSPECIFIED., .F., .U., (2, 2), (0., 40.), .UNSPECIFIED.);
#160 = CARTESIAN_POINT('', (65., 0., -20.));
#161 = CARTESIAN_POINT('', (65., 0., 20.));
#162 = ORIENTED_EDGE('', *, *, #163, .T.);
#163 = EDGE_CURVE('', #155, #155, #164, .T.);
#164 = (
   BOUNDED_CURVE ()
   B_SPLINE_CURVE (2, (#165, #166, #167, #168, #169, #170, #171, #172, #173), .UNSPECIFIED., .T., .U.)
   B_SPLINE_CURVE_WITH_KNOTS ((3, 2, 2, 2, 3), (0., 7.85398163397448, 15.707963267949, 23.5619449019234, 31.4159265358979), .UNSPECIFIED.)
   CURVE ()
   GEOMETRIC_REPRESENTATION_ITEM ()
   RATIONAL_B_SPLINE_CURVE ((1., 0.707106781186548, 1., 0.707106781186548, 1., 0.707106781186548, 1., 0.707106781186548, 1.))
   REPRESENTATION_ITEM ('')
);
#165 = CARTESIAN_POINT('', (65., 0., -20.));
#166 = CARTESIAN_POINT('', (65., 5., -20.));
#167 = CARTESIAN_POINT('', (60., 5., -20.));
#168 = CARTESIAN_POINT('', (55., 5., -20.));
#169 = CARTESIAN_POINT('', (55., 6.12323399573677E-16, -20.));
#170 = CARTESIAN_POINT('', (55., -5., -20.));
#171 = CARTESIAN_POINT('', (60., -5., -20.));
#172 = CARTESIAN_POINT('', (65., -5., -20.));
#173 = CARTESIAN_POINT('', (65., 0., -20.));
#174 = ORIENTED_EDGE('', *, *, #154, .T.);
#175 = ORIENTED_EDGE('', *, *, #176, .F.);
#176 = EDGE_CURVE('', #157, #157, #177, .T.);
#177 = (
   BOUNDED_CURVE ()
   B_SPLINE_CURVE (2, (#178, #179, #180, #181, #182, #183, #184, #185, #186), .UNSPECIFIED., .T., .U.)
   B_SPLINE_CURVE_WITH_KNOTS ((3, 2, 2, 2, 3), (0., 7.85398163397448, 15.707963267949, 23.5619449019234, 31.4159265358979), .UNSPECIFIED.)
   CURVE ()
   GEOMETRIC_REPRESENTATION_ITEM ()
   RATIONAL_B_SPLINE_CURVE ((1., 0.707106781186548, 1., 0.707106781186548, 1., 0.707106781186548, 1., 0.707106781186548, 1.))
   REPRESENTATION_ITEM ('')
);
#178 = CARTESIAN_POINT('', (65., 0., 20.));
#179 = CARTESIAN_POINT('', (65., 5., 20.));
#180 = CARTESIAN_POINT('', (60., 5., 20.));
#181 = CARTESIAN_POINT('', (55., 5., 20.));
#182 = CARTESIAN_POINT('', (55., 6.12323399573677E-16, 20.));
#183 = CARTESIAN_POINT('', (55., -5., 20.));
#184 = CARTESIAN_POINT('', (60., -5., 20.));
#185 = CARTESIAN_POINT('', (65., -5., 20.));
#186 = CARTESIAN_POINT('', (65., 0., 20.));
#187 = (
   BOUNDED_SURFACE ()
   B_SPLINE_SURFACE (2, 1, ((#188, #189), (#190, #191), (#192, #193), (#194, #195), (#196, #197), (#198, #199), (#200, #201), (#202, #203), (#204, #205)), .UNSPECIFIED., .T., .F., .U.)
   B_SPLINE_SURFACE_WITH_KNOTS ((3, 2, 2, 2, 3), (2, 2), (0., 7.85398163397448, 15.707963267949, 23.5619449019234, 31.4159265358979), (0., 40.), .UNSPECIFIED.)
   GEOMETRIC_REPRESENTATION_ITEM ()
   RATIONAL_B_SPLINE_SURFACE (((1., 1.), (0.707106781186548, 0.707106781186548), (1., 1.), (0.707106781186548, 0.707106781186548), (1., 1.), (0.707106781186548, 0.707106781186548), (1., 1.), (0.707106781186548, 0.707106781186548), (1., 1.)))
   REPRESENTATION_ITEM ('')
   SURFACE ()
);
#188 = CARTESIAN_POINT('', (65., 0., -20.));
#189 = CARTESIAN_POINT('', (65., 0., 20.));
#190 = CARTESIAN_POINT('', (65., 5., -20.));
#191 = CARTESIAN_POINT('', (65., 5., 20.));
#192 = CARTESIAN_POINT('', (60., 5., -20.));
#193 = CARTESIAN_POINT('', (60., 5., 20.));
#194 = CARTESIAN_POINT('', (55., 5., -20.));
#195 = CARTESIAN_POINT('', (55., 5., 20.));
#196 = CARTESIAN_POINT('', (55., 6.12323399573677E-16, -20.));
#197 = CARTESIAN_POINT('', (55., 6.12323399573677E-16, 20.));
#198 = CARTESIAN_POINT('', (55., -5., -20.));
#199 = CARTESIAN_POINT('', (55., -5., 20.));
#200 = CARTESIAN_POINT('', (60., -5., -20.));
#201 = CARTESIAN_POINT('', (60., -5., 20.));
#202 = CARTESIAN_POINT('', (65., -5., -20.));
#203 = CARTESIAN_POINT('', (65., -5., 20.));
#204 = CARTESIAN_POINT('', (65., 0., -20.));
#205 = CARTESIAN_POINT('', (65., 0., 20.));
#206 = ADVANCED_FACE('', (#207), #210, .T.);
#207 = FACE_OUTER_BOUND('', #208, .T.);
#208 = EDGE_LOOP('', (#209));
#209 = ORIENTED_EDGE('', *, *, #163, .F.);
#210 = B_SPLINE_SURFACE_WITH_KNOTS('', 1, 1, ((#211, #212), (#213, #214)), .UNSPECIFIED., .F., .F., .U., (2, 2), (2, 2), (0., 1.), (0., 1.), .UNSPECIFIED.);
#211 = CARTESIAN_POINT('', (67.778174593052, -7.77817459305203, -20.));
#212 = CARTESIAN_POINT('', (67.778174593052, 7.77817459305202, -20.));
#213 = CARTESIAN_POINT('', (52.221825406948, -7.77817459305203, -20.));
#214 = CARTESIAN_POINT('', (52.221825406948, 7.77817459305202, -20.));
#215 = ADVANCED_FACE('', (#216), #219, .T.);
#216 = FACE_OUTER_BOUND('', #217, .T.);
#217 = EDGE_LOOP('', (#218));
#218 = ORIENTED_EDGE('', *, *, #176, .T.);
#219 = B_SPLINE_SURFACE_WITH_KNOTS('', 1, 1, ((#220, #221), (#222, #223)), .UNSPECIFIED., .F., .F., .U., (2, 2), (2, 2), (0., 1.), (0., 1.), .UNSPECIFIED.);
#220 = CARTESIAN_POINT('', (67.778174593052, -7.77817459305203, 20.));
#221 = CARTESIAN_POINT('', (52.221825406948, -7.77817459305203, 20.));
#222 = CARTESIAN_POINT('', (67.778174593052, 7.77817459305202, 20.));
#223 = CARTESIAN_POINT('', (52.221825406948, 7.77817459305202, 20.));
#224 = PRESENTATION_STYLE_ASSIGNMENT((#225));
#225 = SURFACE_STYLE_USAGE(.POSITIVE., #226);
#226 = SURFACE_SIDE_STYLE('', (#227));
#227 = SURFACE_STYLE_FILL_AREA(#228);
#228 = FILL_AREA_STYLE('', (#229));
#229 = FILL_AREA_STYLE_COLOUR('', #230);
#230 = COLOUR_RGB('', 0.50196078431373, 0.50196078431373, 0.50196078431373);
#231 = STYLED_ITEM('', (#224), #148);
#232 = CARTESIAN_POINT('Origin', (0., 0., 0.));
#233 = GEOMETRIC_SET('', (#232));
#234 = (
   GEOMETRIC_REPRESENTATION_CONTEXT (3)
   GLOBAL_UNCERTAINTY_ASSIGNED_CONTEXT ((#236))
   GLOBAL_UNIT_ASSIGNED_CONTEXT ((#235, #237, #238))
   REPRESENTATION_CONTEXT ('', '3D')
);
#235 = (
   LENGTH_UNIT ()
   NAMED_UNIT (*)
   SI_UNIT (.MILLI., .METRE.)
);
#236 = UNCERTAINTY_MEASURE_WITH_UNIT(LENGTH_MEASURE(1.E-6), #235, 'DISTANCE_ACCURACY_VALUE', '');
#237 = (
   NAMED_UNIT (*)
   SI_UNIT ($, .STERADIAN.)
   SOLID_ANGLE_UNIT ()
);
#238 = (
   NAMED_UNIT (*)
   PLANE_ANGLE_UNIT ()
   SI_UNIT ($, .RADIAN.)
);
#239 = SHAPE_REPRESENTATION('', (#254), #234);
#240 = PRODUCT_DEFINITION_SHAPE('', '', #241);
#241 = PRODUCT_DEFINITION('', '', #244, #248);
#242 = APPLICATION_CONTEXT('configuration controlled 3D designs of mechanical parts and assemblies');
#243 = APPLICATION_PROTOCOL_DEFINITION('International Standard', 'automotive_design', 2002, #242);
#244 = PRODUCT_DEFINITION_FORMATION_WITH_SPECIFIED_SOURCE('', '', #245, .NOT_KNOWN.);
#245 = PRODUCT('SliceRevNormal', 'SliceRevNormal', '', (#246));
#246 = PRODUCT_CONTEXT('', #242, 'mechanical');
#247 = PRODUCT_RELATED_PRODUCT_CATEGORY('detail', '', (#245));
#248 = PRODUCT_DEFINITION_CONTEXT('part definition', #242, 'design');
#249 = SHAPE_DEFINITION_REPRESENTATION(#240, #239);
#250 = SHAPE_REPRESENTATION_RELATIONSHIP('', '', #239, #251);
#251 = SHAPE_REPRESENTATION('', (#233), #234);
#252 = SHAPE_REPRESENTATION_RELATIONSHIP('', '', #239, #253);
#253 = ADVANCED_BREP_SHAPE_REPRESENTATION('', (#1, #148), #234);
#254 = AXIS2_PLACEMENT_3D('', #255, #256, #257);
#255 = CARTESIAN_POINT('', (0., 0., 0.));
#256 = DIRECTION('', (0., 0., 1.));
#257 = DIRECTION('', (1., 0., 0.));
ENDSEC;
END-ISO-10303-21;
