ISO-10303-21;
HEADER;
FILE_DESCRIPTION(('STEP'), '1');
FILE_NAME('SliceSphere', '2026-04-15T13:37:49', (''), (''), 'Express 3.1.2.0', 'Express Tool', 'Unknown');
FILE_SCHEMA(('AUTOMOTIVE_DESIGN'));
ENDSEC;

DATA;
#1 = MANIFOLD_SOLID_BREP('Solid', #2);
#2 = CLOSED_SHELL('', (#3, #81));
#3 = ADVANCED_FACE('', (#4, #19), #35, .T.);
#4 = FACE_OUTER_BOUND('', #5, .T.);
#5 = EDGE_LOOP('', (#6, #18));
#6 = ORIENTED_EDGE('', *, *, #7, .F.);
#7 = EDGE_CURVE('', #8, #10, #12, .T.);
#8 = VERTEX_POINT('', #9);
#9 = CARTESIAN_POINT('', (-5.51091059616309E-15, 0., -30.));
#10 = VERTEX_POINT('', #11);
#11 = CARTESIAN_POINT('', (9.18485099360515E-15, 0., 30.));
#12 = (
   BOUNDED_CURVE ()
   B_SPLINE_CURVE (2, (#13, #14, #15, #16, #17), .UNSPECIFIED., .F., .U.)
   B_SPLINE_CURVE_WITH_KNOTS ((3, 2, 3), (0., 0.5, 1.), .UNSPECIFIED.)
   CURVE ()
   GEOMETRIC_REPRESENTATION_ITEM ()
   RATIONAL_B_SPLINE_CURVE ((1., 0.707106781186548, 1., 0.707106781186548, 1.))
   REPRESENTATION_ITEM ('')
);
#13 = CARTESIAN_POINT('', (-5.51091059616309E-15, 0., -30.));
#14 = CARTESIAN_POINT('', (30., 0., -30.));
#15 = CARTESIAN_POINT('', (30., 0., -7.34788079488412E-15));
#16 = CARTESIAN_POINT('', (30., 0., 30.));
#17 = CARTESIAN_POINT('', (9.18485099360515E-15, 0., 30.));
#18 = ORIENTED_EDGE('', *, *, #7, .T.);
#19 = FACE_BOUND('', #20, .T.);
#20 = EDGE_LOOP('', (#21));
#21 = ORIENTED_EDGE('', *, *, #22, .T.);
#22 = EDGE_CURVE('', #23, #23, #25, .T.);
#23 = VERTEX_POINT('', #24);
#24 = CARTESIAN_POINT('', (-1.53080849893419E-15, 10., -28.2842712474619));
#25 = (
   BOUNDED_CURVE ()
   B_SPLINE_CURVE (2, (#26, #27, #28, #29, #30, #31, #32, #33, #34), .UNSPECIFIED., .T., .U.)
   B_SPLINE_CURVE_WITH_KNOTS ((3, 2, 2, 2, 3), (0., 0.25, 0.5, 0.75, 1.), .UNSPECIFIED.)
   CURVE ()
   GEOMETRIC_REPRESENTATION_ITEM ()
   RATIONAL_B_SPLINE_CURVE ((1., 0.707106781186548, 1., 0.707106781186548, 1., 0.707106781186548, 1., 0.707106781186548, 1.))
   REPRESENTATION_ITEM ('')
);
#26 = CARTESIAN_POINT('', (0., 10., -28.2842712474619));
#27 = CARTESIAN_POINT('', (28.2842712474619, 10., -28.2842712474619));
#28 = CARTESIAN_POINT('', (28.2842712474619, 10., -1.73191211247099E-15));
#29 = CARTESIAN_POINT('', (28.2842712474619, 10., 28.2842712474619));
#30 = CARTESIAN_POINT('', (3.46382422494197E-15, 10., 28.2842712474619));
#31 = CARTESIAN_POINT('', (-28.2842712474619, 10., 28.2842712474619));
#32 = CARTESIAN_POINT('', (-28.2842712474619, 10., 5.19573633741296E-15));
#33 = CARTESIAN_POINT('', (-28.2842712474619, 10., -28.2842712474619));
#34 = CARTESIAN_POINT('', (0., 10., -28.2842712474619));
#35 = (
   BOUNDED_SURFACE ()
   B_SPLINE_SURFACE (2, 2, ((#36, #37, #38, #39, #40), (#41, #42, #43, #44, #45), (#46, #47, #48, #49, #50), (#51, #52, #53, #54, #55), (#56, #57, #58, #59, #60), (#61, #62, #63, #64, #65), (#66, #67, #68, #69, #70), (#71, #72, #73, #74, #75), (#76, #77, #78, #79, #80)), .UNSPECIFIED., .T., .F., .U.)
   B_SPLINE_SURFACE_WITH_KNOTS ((3, 2, 2, 2, 3), (3, 2, 3), (0., 0.25, 0.5, 0.75, 1.), (0., 0.5, 1.), .UNSPECIFIED.)
   GEOMETRIC_REPRESENTATION_ITEM ()
   RATIONAL_B_SPLINE_SURFACE (((1., 0.707106781186548, 1., 0.707106781186548, 1.), (0.707106781186548, 0.5, 0.707106781186548, 0.5, 0.707106781186548), (1., 0.707106781186548, 1., 0.707106781186548, 1.), (0.707106781186548, 0.5, 0.707106781186548, 0.5, 0.707106781186548), (1., 0.707106781186548, 1., 0.707106781186548, 1.), (0.707106781186548, 0.5, 0.707106781186548, 0.5, 0.707106781186548), (1., 0.707106781186548, 1., 0.707106781186548, 1.), (0.707106781186548, 0.5, 0.707106781186548, 0.5, 0.707106781186548), (1., 0.707106781186548, 1., 0.707106781186548, 1.)))
   REPRESENTATION_ITEM ('')
   SURFACE ()
);
#36 = CARTESIAN_POINT('', (-5.51091059616309E-15, 0., -30.));
#37 = CARTESIAN_POINT('', (30., 0., -30.));
#38 = CARTESIAN_POINT('', (30., 0., -7.34788079488412E-15));
#39 = CARTESIAN_POINT('', (30., 0., 30.));
#40 = CARTESIAN_POINT('', (9.18485099360515E-15, 0., 30.));
#41 = CARTESIAN_POINT('', (-5.51091059616309E-15, 0., -30.));
#42 = CARTESIAN_POINT('', (30., 30., -30.));
#43 = CARTESIAN_POINT('', (30., 30., -7.34788079488412E-15));
#44 = CARTESIAN_POINT('', (30., 30., 30.));
#45 = CARTESIAN_POINT('', (9.18485099360515E-15, 0., 30.));
#46 = CARTESIAN_POINT('', (-5.51091059616309E-15, 0., -30.));
#47 = CARTESIAN_POINT('', (1.83697019872103E-15, 30., -30.));
#48 = CARTESIAN_POINT('', (1.83697019872103E-15, 30., -7.34788079488412E-15));
#49 = CARTESIAN_POINT('', (1.83697019872103E-15, 30., 30.));
#50 = CARTESIAN_POINT('', (9.18485099360515E-15, 0., 30.));
#51 = CARTESIAN_POINT('', (-5.51091059616309E-15, 0., -30.));
#52 = CARTESIAN_POINT('', (-30., 30., -30.));
#53 = CARTESIAN_POINT('', (-30., 30., -7.34788079488412E-15));
#54 = CARTESIAN_POINT('', (-30., 30., 30.));
#55 = CARTESIAN_POINT('', (9.18485099360515E-15, 0., 30.));
#56 = CARTESIAN_POINT('', (-5.51091059616309E-15, 0., -30.));
#57 = CARTESIAN_POINT('', (-30., 3.67394039744206E-15, -30.));
#58 = CARTESIAN_POINT('', (-30., 3.67394039744206E-15, -7.34788079488412E-15));
#59 = CARTESIAN_POINT('', (-30., 3.67394039744206E-15, 30.));
#60 = CARTESIAN_POINT('', (9.18485099360515E-15, 0., 30.));
#61 = CARTESIAN_POINT('', (-5.51091059616309E-15, 0., -30.));
#62 = CARTESIAN_POINT('', (-30., -30., -30.));
#63 = CARTESIAN_POINT('', (-30., -30., -7.34788079488412E-15));
#64 = CARTESIAN_POINT('', (-30., -30., 30.));
#65 = CARTESIAN_POINT('', (9.18485099360515E-15, 0., 30.));
#66 = CARTESIAN_POINT('', (-5.51091059616309E-15, 0., -30.));
#67 = CARTESIAN_POINT('', (-5.51091059616309E-15, -30., -30.));
#68 = CARTESIAN_POINT('', (-5.51091059616309E-15, -30., -7.34788079488412E-15));
#69 = CARTESIAN_POINT('', (-5.51091059616309E-15, -30., 30.));
#70 = CARTESIAN_POINT('', (9.18485099360515E-15, 0., 30.));
#71 = CARTESIAN_POINT('', (-5.51091059616309E-15, 0., -30.));
#72 = CARTESIAN_POINT('', (30., -30., -30.));
#73 = CARTESIAN_POINT('', (30., -30., -7.34788079488412E-15));
#74 = CARTESIAN_POINT('', (30., -30., 30.));
#75 = CARTESIAN_POINT('', (9.18485099360515E-15, 0., 30.));
#76 = CARTESIAN_POINT('', (-5.51091059616309E-15, 0., -30.));
#77 = CARTESIAN_POINT('', (30., 0., -30.));
#78 = CARTESIAN_POINT('', (30., 0., -7.34788079488412E-15));
#79 = CARTESIAN_POINT('', (30., 0., 30.));
#80 = CARTESIAN_POINT('', (9.18485099360515E-15, 0., 30.));
#81 = ADVANCED_FACE('', (#82), #85, .F.);
#82 = FACE_OUTER_BOUND('', #83, .F.);
#83 = EDGE_LOOP('', (#84));
#84 = ORIENTED_EDGE('', *, *, #22, .T.);
#85 = B_SPLINE_SURFACE_WITH_KNOTS('', 1, 1, ((#86, #87), (#88, #89)), .UNSPECIFIED., .F., .F., .U., (2, 2), (2, 2), (0., 207.846166190298), (0., 207.846166190298), .UNSPECIFIED.);
#86 = CARTESIAN_POINT('', (-93.9230830951488, 10., 93.9230830951488));
#87 = CARTESIAN_POINT('', (113.923083095149, 10., 93.9230830951488));
#88 = CARTESIAN_POINT('', (-93.9230830951488, 10., -113.923083095149));
#89 = CARTESIAN_POINT('', (113.923083095149, 10., -113.923083095149));
#90 = DRAUGHTING_MODEL('', (#98), #101);
#91 = PRESENTATION_STYLE_ASSIGNMENT((#92));
#92 = SURFACE_STYLE_USAGE(.POSITIVE., #93);
#93 = SURFACE_SIDE_STYLE('', (#94));
#94 = SURFACE_STYLE_FILL_AREA(#95);
#95 = FILL_AREA_STYLE('', (#96));
#96 = FILL_AREA_STYLE_COLOUR('', #97);
#97 = COLOUR_RGB('', 0.50196078431373, 0.50196078431373, 0.50196078431373);
#98 = STYLED_ITEM('', (#91), #1);
#99 = CARTESIAN_POINT('Origin', (0., 0., 0.));
#100 = GEOMETRIC_SET('', (#99));
#101 = (
   GEOMETRIC_REPRESENTATION_CONTEXT (3)
   GLOBAL_UNCERTAINTY_ASSIGNED_CONTEXT ((#103))
   GLOBAL_UNIT_ASSIGNED_CONTEXT ((#102, #104, #105))
   REPRESENTATION_CONTEXT ('', '3D')
);
#102 = (
   LENGTH_UNIT ()
   NAMED_UNIT (*)
   SI_UNIT (.MILLI., .METRE.)
);
#103 = UNCERTAINTY_MEASURE_WITH_UNIT(LENGTH_MEASURE(1.E-6), #102, 'DISTANCE_ACCURACY_VALUE', '');
#104 = (
   NAMED_UNIT (*)
   SI_UNIT ($, .STERADIAN.)
   SOLID_ANGLE_UNIT ()
);
#105 = (
   NAMED_UNIT (*)
   PLANE_ANGLE_UNIT ()
   SI_UNIT ($, .RADIAN.)
);
#106 = SHAPE_REPRESENTATION('', (#121), #101);
#107 = PRODUCT_DEFINITION_SHAPE('', '', #108);
#108 = PRODUCT_DEFINITION('', '', #111, #115);
#109 = APPLICATION_CONTEXT('configuration controlled 3D designs of mechanical parts and assemblies');
#110 = APPLICATION_PROTOCOL_DEFINITION('International Standard', 'automotive_design', 2002, #109);
#111 = PRODUCT_DEFINITION_FORMATION_WITH_SPECIFIED_SOURCE('', '', #112, .NOT_KNOWN.);
#112 = PRODUCT('SliceSphere', 'SliceSphere', '', (#113));
#113 = PRODUCT_CONTEXT('', #109, 'mechanical');
#114 = PRODUCT_RELATED_PRODUCT_CATEGORY('detail', '', (#112));
#115 = PRODUCT_DEFINITION_CONTEXT('part definition', #109, 'design');
#116 = SHAPE_DEFINITION_REPRESENTATION(#107, #106);
#117 = SHAPE_REPRESENTATION_RELATIONSHIP('', '', #106, #118);
#118 = SHAPE_REPRESENTATION('', (#100), #101);
#119 = SHAPE_REPRESENTATION_RELATIONSHIP('', '', #106, #120);
#120 = ADVANCED_BREP_SHAPE_REPRESENTATION('', (#1), #101);
#121 = AXIS2_PLACEMENT_3D('', #122, #123, #124);
#122 = CARTESIAN_POINT('', (0., 0., 0.));
#123 = DIRECTION('', (0., 0., 1.));
#124 = DIRECTION('', (1., 0., 0.));
ENDSEC;
END-ISO-10303-21;
