ISO-10303-21;
HEADER;
FILE_DESCRIPTION(('STEP'), '1');
FILE_NAME('CopyShapes', '2026-04-15T16:10:32', (''), (''), 'Express 3.1.2.0', 'Express Tool', 'Unknown');
FILE_SCHEMA(('AUTOMOTIVE_DESIGN'));
ENDSEC;

DATA;
#1 = MANIFOLD_SOLID_BREP('Solid', #2);
#2 = CLOSED_SHELL('', (#3));
#3 = ADVANCED_FACE('', (#4), #19, .T.);
#4 = FACE_OUTER_BOUND('', #5, .T.);
#5 = EDGE_LOOP('', (#6, #18));
#6 = ORIENTED_EDGE('', *, *, #7, .F.);
#7 = EDGE_CURVE('', #8, #10, #12, .T.);
#8 = VERTEX_POINT('', #9);
#9 = CARTESIAN_POINT('', (-3.67394039744206E-15, 0., -20.));
#10 = VERTEX_POINT('', #11);
#11 = CARTESIAN_POINT('', (6.12323399573677E-15, 0., 20.));
#12 = (
   BOUNDED_CURVE ()
   B_SPLINE_CURVE (2, (#13, #14, #15, #16, #17), .UNSPECIFIED., .F., .U.)
   B_SPLINE_CURVE_WITH_KNOTS ((3, 2, 3), (0., 0.5, 1.), .UNSPECIFIED.)
   CURVE ()
   GEOMETRIC_REPRESENTATION_ITEM ()
   RATIONAL_B_SPLINE_CURVE ((1., 0.707106781186548, 1., 0.707106781186548, 1.))
   REPRESENTATION_ITEM ('')
);
#13 = CARTESIAN_POINT('', (-3.67394039744206E-15, 0., -20.));
#14 = CARTESIAN_POINT('', (20., 0., -20.));
#15 = CARTESIAN_POINT('', (20., 0., -4.89858719658941E-15));
#16 = CARTESIAN_POINT('', (20., 0., 20.));
#17 = CARTESIAN_POINT('', (6.12323399573677E-15, 0., 20.));
#18 = ORIENTED_EDGE('', *, *, #7, .T.);
#19 = (
   BOUNDED_SURFACE ()
   B_SPLINE_SURFACE (2, 2, ((#20, #21, #22, #23, #24), (#25, #26, #27, #28, #29), (#30, #31, #32, #33, #34), (#35, #36, #37, #38, #39), (#40, #41, #42, #43, #44), (#45, #46, #47, #48, #49), (#50, #51, #52, #53, #54), (#55, #56, #57, #58, #59), (#60, #61, #62, #63, #64)), .UNSPECIFIED., .T., .F., .U.)
   B_SPLINE_SURFACE_WITH_KNOTS ((3, 2, 2, 2, 3), (3, 2, 3), (0., 0.25, 0.5, 0.75, 1.), (0., 0.5, 1.), .UNSPECIFIED.)
   GEOMETRIC_REPRESENTATION_ITEM ()
   RATIONAL_B_SPLINE_SURFACE (((1., 0.707106781186548, 1., 0.707106781186548, 1.), (0.707106781186548, 0.5, 0.707106781186548, 0.5, 0.707106781186548), (1., 0.707106781186548, 1., 0.707106781186548, 1.), (0.707106781186548, 0.5, 0.707106781186548, 0.5, 0.707106781186548), (1., 0.707106781186548, 1., 0.707106781186548, 1.), (0.707106781186548, 0.5, 0.707106781186548, 0.5, 0.707106781186548), (1., 0.707106781186548, 1., 0.707106781186548, 1.), (0.707106781186548, 0.5, 0.707106781186548, 0.5, 0.707106781186548), (1., 0.707106781186548, 1., 0.707106781186548, 1.)))
   REPRESENTATION_ITEM ('')
   SURFACE ()
);
#20 = CARTESIAN_POINT('', (-3.67394039744206E-15, 0., -20.));
#21 = CARTESIAN_POINT('', (20., 0., -20.));
#22 = CARTESIAN_POINT('', (20., 0., -4.89858719658941E-15));
#23 = CARTESIAN_POINT('', (20., 0., 20.));
#24 = CARTESIAN_POINT('', (6.12323399573677E-15, 0., 20.));
#25 = CARTESIAN_POINT('', (-3.67394039744206E-15, 0., -20.));
#26 = CARTESIAN_POINT('', (20., 20., -20.));
#27 = CARTESIAN_POINT('', (20., 20., -4.89858719658941E-15));
#28 = CARTESIAN_POINT('', (20., 20., 20.));
#29 = CARTESIAN_POINT('', (6.12323399573677E-15, 0., 20.));
#30 = CARTESIAN_POINT('', (-3.67394039744206E-15, 0., -20.));
#31 = CARTESIAN_POINT('', (1.22464679914735E-15, 20., -20.));
#32 = CARTESIAN_POINT('', (1.22464679914735E-15, 20., -4.89858719658941E-15));
#33 = CARTESIAN_POINT('', (1.22464679914735E-15, 20., 20.));
#34 = CARTESIAN_POINT('', (6.12323399573677E-15, 0., 20.));
#35 = CARTESIAN_POINT('', (-3.67394039744206E-15, 0., -20.));
#36 = CARTESIAN_POINT('', (-20., 20., -20.));
#37 = CARTESIAN_POINT('', (-20., 20., -4.89858719658941E-15));
#38 = CARTESIAN_POINT('', (-20., 20., 20.));
#39 = CARTESIAN_POINT('', (6.12323399573677E-15, 0., 20.));
#40 = CARTESIAN_POINT('', (-3.67394039744206E-15, 0., -20.));
#41 = CARTESIAN_POINT('', (-20., 2.44929359829471E-15, -20.));
#42 = CARTESIAN_POINT('', (-20., 2.44929359829471E-15, -4.89858719658941E-15));
#43 = CARTESIAN_POINT('', (-20., 2.44929359829471E-15, 20.));
#44 = CARTESIAN_POINT('', (6.12323399573677E-15, 0., 20.));
#45 = CARTESIAN_POINT('', (-3.67394039744206E-15, 0., -20.));
#46 = CARTESIAN_POINT('', (-20., -20., -20.));
#47 = CARTESIAN_POINT('', (-20., -20., -4.89858719658941E-15));
#48 = CARTESIAN_POINT('', (-20., -20., 20.));
#49 = CARTESIAN_POINT('', (6.12323399573677E-15, 0., 20.));
#50 = CARTESIAN_POINT('', (-3.67394039744206E-15, 0., -20.));
#51 = CARTESIAN_POINT('', (-3.67394039744206E-15, -20., -20.));
#52 = CARTESIAN_POINT('', (-3.67394039744206E-15, -20., -4.89858719658941E-15));
#53 = CARTESIAN_POINT('', (-3.67394039744206E-15, -20., 20.));
#54 = CARTESIAN_POINT('', (6.12323399573677E-15, 0., 20.));
#55 = CARTESIAN_POINT('', (-3.67394039744206E-15, 0., -20.));
#56 = CARTESIAN_POINT('', (20., -20., -20.));
#57 = CARTESIAN_POINT('', (20., -20., -4.89858719658941E-15));
#58 = CARTESIAN_POINT('', (20., -20., 20.));
#59 = CARTESIAN_POINT('', (6.12323399573677E-15, 0., 20.));
#60 = CARTESIAN_POINT('', (-3.67394039744206E-15, 0., -20.));
#61 = CARTESIAN_POINT('', (20., 0., -20.));
#62 = CARTESIAN_POINT('', (20., 0., -4.89858719658941E-15));
#63 = CARTESIAN_POINT('', (20., 0., 20.));
#64 = CARTESIAN_POINT('', (6.12323399573677E-15, 0., 20.));
#65 = DRAUGHTING_MODEL('', (#73, #157, #241, #313, #397, #481), #484);
#66 = PRESENTATION_STYLE_ASSIGNMENT((#67));
#67 = SURFACE_STYLE_USAGE(.POSITIVE., #68);
#68 = SURFACE_SIDE_STYLE('', (#69));
#69 = SURFACE_STYLE_FILL_AREA(#70);
#70 = FILL_AREA_STYLE('', (#71));
#71 = FILL_AREA_STYLE_COLOUR('', #72);
#72 = COLOUR_RGB('', 0.50196078431373, 0.50196078431373, 0.50196078431373);
#73 = STYLED_ITEM('', (#66), #1);
#74 = MANIFOLD_SOLID_BREP('Solid0', #75);
#75 = CLOSED_SHELL('', (#76, #132, #141));
#76 = ADVANCED_FACE('', (#77), #113, .T.);
#77 = FACE_OUTER_BOUND('', #78, .T.);
#78 = EDGE_LOOP('', (#79, #88, #100, #101));
#79 = ORIENTED_EDGE('', *, *, #80, .F.);
#80 = EDGE_CURVE('', #81, #83, #85, .T.);
#81 = VERTEX_POINT('', #82);
#82 = CARTESIAN_POINT('', (72.5, 0., -20.));
#83 = VERTEX_POINT('', #84);
#84 = CARTESIAN_POINT('', (72.5, 0., 20.));
#85 = B_SPLINE_CURVE_WITH_KNOTS('', 1, (#86, #87), .UNSPECIFIED., .F., .U., (2, 2), (0., 40.), .UNSPECIFIED.);
#86 = CARTESIAN_POINT('', (72.5, 0., -20.));
#87 = CARTESIAN_POINT('', (72.5, 0., 20.));
#88 = ORIENTED_EDGE('', *, *, #89, .T.);
#89 = EDGE_CURVE('', #81, #81, #90, .T.);
#90 = (
   BOUNDED_CURVE ()
   B_SPLINE_CURVE (2, (#91, #92, #93, #94, #95, #96, #97, #98, #99), .UNSPECIFIED., .T., .U.)
   B_SPLINE_CURVE_WITH_KNOTS ((3, 2, 2, 2, 3), (0., 19.6349540849362, 39.2699081698724, 58.9048622548086, 78.5398163397448), .UNSPECIFIED.)
   CURVE ()
   GEOMETRIC_REPRESENTATION_ITEM ()
   RATIONAL_B_SPLINE_CURVE ((1., 0.707106781186548, 1., 0.707106781186548, 1., 0.707106781186548, 1., 0.707106781186548, 1.))
   REPRESENTATION_ITEM ('')
);
#91 = CARTESIAN_POINT('', (72.5, 0., -20.));
#92 = CARTESIAN_POINT('', (72.5, 12.5, -20.));
#93 = CARTESIAN_POINT('', (60., 12.5, -20.));
#94 = CARTESIAN_POINT('', (47.5, 12.5, -20.));
#95 = CARTESIAN_POINT('', (47.5, 1.53080849893419E-15, -20.));
#96 = CARTESIAN_POINT('', (47.5, -12.5, -20.));
#97 = CARTESIAN_POINT('', (60., -12.5, -20.));
#98 = CARTESIAN_POINT('', (72.5, -12.5, -20.));
#99 = CARTESIAN_POINT('', (72.5, 0., -20.));
#100 = ORIENTED_EDGE('', *, *, #80, .T.);
#101 = ORIENTED_EDGE('', *, *, #102, .F.);
#102 = EDGE_CURVE('', #83, #83, #103, .T.);
#103 = (
   BOUNDED_CURVE ()
   B_SPLINE_CURVE (2, (#104, #105, #106, #107, #108, #109, #110, #111, #112), .UNSPECIFIED., .T., .U.)
   B_SPLINE_CURVE_WITH_KNOTS ((3, 2, 2, 2, 3), (0., 19.6349540849362, 39.2699081698724, 58.9048622548086, 78.5398163397448), .UNSPECIFIED.)
   CURVE ()
   GEOMETRIC_REPRESENTATION_ITEM ()
   RATIONAL_B_SPLINE_CURVE ((1., 0.707106781186548, 1., 0.707106781186548, 1., 0.707106781186548, 1., 0.707106781186548, 1.))
   REPRESENTATION_ITEM ('')
);
#104 = CARTESIAN_POINT('', (72.5, 0., 20.));
#105 = CARTESIAN_POINT('', (72.5, 12.5, 20.));
#106 = CARTESIAN_POINT('', (60., 12.5, 20.));
#107 = CARTESIAN_POINT('', (47.5, 12.5, 20.));
#108 = CARTESIAN_POINT('', (47.5, 1.53080849893419E-15, 20.));
#109 = CARTESIAN_POINT('', (47.5, -12.5, 20.));
#110 = CARTESIAN_POINT('', (60., -12.5, 20.));
#111 = CARTESIAN_POINT('', (72.5, -12.5, 20.));
#112 = CARTESIAN_POINT('', (72.5, 0., 20.));
#113 = (
   BOUNDED_SURFACE ()
   B_SPLINE_SURFACE (2, 1, ((#114, #115), (#116, #117), (#118, #119), (#120, #121), (#122, #123), (#124, #125), (#126, #127), (#128, #129), (#130, #131)), .UNSPECIFIED., .T., .F., .U.)
   B_SPLINE_SURFACE_WITH_KNOTS ((3, 2, 2, 2, 3), (2, 2), (0., 19.6349540849362, 39.2699081698724, 58.9048622548086, 78.5398163397448), (0., 40.), .UNSPECIFIED.)
   GEOMETRIC_REPRESENTATION_ITEM ()
   RATIONAL_B_SPLINE_SURFACE (((1., 1.), (0.707106781186548, 0.707106781186548), (1., 1.), (0.707106781186548, 0.707106781186548), (1., 1.), (0.707106781186548, 0.707106781186548), (1., 1.), (0.707106781186548, 0.707106781186548), (1., 1.)))
   REPRESENTATION_ITEM ('')
   SURFACE ()
);
#114 = CARTESIAN_POINT('', (72.5, 0., -20.));
#115 = CARTESIAN_POINT('', (72.5, 0., 20.));
#116 = CARTESIAN_POINT('', (72.5, 12.5, -20.));
#117 = CARTESIAN_POINT('', (72.5, 12.5, 20.));
#118 = CARTESIAN_POINT('', (60., 12.5, -20.));
#119 = CARTESIAN_POINT('', (60., 12.5, 20.));
#120 = CARTESIAN_POINT('', (47.5, 12.5, -20.));
#121 = CARTESIAN_POINT('', (47.5, 12.5, 20.));
#122 = CARTESIAN_POINT('', (47.5, 1.53080849893419E-15, -20.));
#123 = CARTESIAN_POINT('', (47.5, 1.53080849893419E-15, 20.));
#124 = CARTESIAN_POINT('', (47.5, -12.5, -20.));
#125 = CARTESIAN_POINT('', (47.5, -12.5, 20.));
#126 = CARTESIAN_POINT('', (60., -12.5, -20.));
#127 = CARTESIAN_POINT('', (60., -12.5, 20.));
#128 = CARTESIAN_POINT('', (72.5, -12.5, -20.));
#129 = CARTESIAN_POINT('', (72.5, -12.5, 20.));
#130 = CARTESIAN_POINT('', (72.5, 0., -20.));
#131 = CARTESIAN_POINT('', (72.5, 0., 20.));
#132 = ADVANCED_FACE('', (#133), #136, .T.);
#133 = FACE_OUTER_BOUND('', #134, .T.);
#134 = EDGE_LOOP('', (#135));
#135 = ORIENTED_EDGE('', *, *, #89, .F.);
#136 = B_SPLINE_SURFACE_WITH_KNOTS('', 1, 1, ((#137, #138), (#139, #140)), .UNSPECIFIED., .F., .F., .U., (2, 2), (2, 2), (0., 1.), (0., 1.), .UNSPECIFIED.);
#137 = CARTESIAN_POINT('', (79.4454364826301, -19.4454364826301, -20.));
#138 = CARTESIAN_POINT('', (79.4454364826301, 19.4454364826301, -20.));
#139 = CARTESIAN_POINT('', (40.5545635173699, -19.4454364826301, -20.));
#140 = CARTESIAN_POINT('', (40.5545635173699, 19.4454364826301, -20.));
#141 = ADVANCED_FACE('', (#142), #145, .T.);
#142 = FACE_OUTER_BOUND('', #143, .T.);
#143 = EDGE_LOOP('', (#144));
#144 = ORIENTED_EDGE('', *, *, #102, .T.);
#145 = B_SPLINE_SURFACE_WITH_KNOTS('', 1, 1, ((#146, #147), (#148, #149)), .UNSPECIFIED., .F., .F., .U., (2, 2), (2, 2), (0., 1.), (0., 1.), .UNSPECIFIED.);
#146 = CARTESIAN_POINT('', (79.4454364826301, -19.4454364826301, 20.));
#147 = CARTESIAN_POINT('', (40.5545635173699, -19.4454364826301, 20.));
#148 = CARTESIAN_POINT('', (79.4454364826301, 19.4454364826301, 20.));
#149 = CARTESIAN_POINT('', (40.5545635173699, 19.4454364826301, 20.));
#150 = PRESENTATION_STYLE_ASSIGNMENT((#151));
#151 = SURFACE_STYLE_USAGE(.POSITIVE., #152);
#152 = SURFACE_SIDE_STYLE('', (#153));
#153 = SURFACE_STYLE_FILL_AREA(#154);
#154 = FILL_AREA_STYLE('', (#155));
#155 = FILL_AREA_STYLE_COLOUR('', #156);
#156 = COLOUR_RGB('', 0.50196078431373, 0.50196078431373, 0.50196078431373);
#157 = STYLED_ITEM('', (#150), #74);
#158 = MANIFOLD_SOLID_BREP('Solid1', #159);
#159 = CLOSED_SHELL('', (#160, #216, #225));
#160 = ADVANCED_FACE('', (#161), #197, .T.);
#161 = FACE_OUTER_BOUND('', #162, .T.);
#162 = EDGE_LOOP('', (#163, #172, #184, #185));
#163 = ORIENTED_EDGE('', *, *, #164, .F.);
#164 = EDGE_CURVE('', #165, #167, #169, .T.);
#165 = VERTEX_POINT('', #166);
#166 = CARTESIAN_POINT('', (132.5, 0., -17.5));
#167 = VERTEX_POINT('', #168);
#168 = CARTESIAN_POINT('', (122.5, 0., 17.5));
#169 = B_SPLINE_CURVE_WITH_KNOTS('', 1, (#170, #171), .UNSPECIFIED., .F., .U., (2, 2), (0., 35.), .UNSPECIFIED.);
#170 = CARTESIAN_POINT('', (132.5, 0., -17.5));
#171 = CARTESIAN_POINT('', (122.5, 0., 17.5));
#172 = ORIENTED_EDGE('', *, *, #173, .T.);
#173 = EDGE_CURVE('', #165, #165, #174, .T.);
#174 = (
   BOUNDED_CURVE ()
   B_SPLINE_CURVE (2, (#175, #176, #177, #178, #179, #180, #181, #182, #183), .UNSPECIFIED., .T., .U.)
   B_SPLINE_CURVE_WITH_KNOTS ((3, 2, 2, 2, 3), (0., 0.25, 0.5, 0.75, 1.), .UNSPECIFIED.)
   CURVE ()
   GEOMETRIC_REPRESENTATION_ITEM ()
   RATIONAL_B_SPLINE_CURVE ((1., 0.707106781186548, 1., 0.707106781186548, 1., 0.707106781186548, 1., 0.707106781186548, 1.))
   REPRESENTATION_ITEM ('')
);
#175 = CARTESIAN_POINT('', (132.5, 0., -17.5));
#176 = CARTESIAN_POINT('', (132.5, 12.5, -17.5));
#177 = CARTESIAN_POINT('', (120., 12.5, -17.5));
#178 = CARTESIAN_POINT('', (107.5, 12.5, -17.5));
#179 = CARTESIAN_POINT('', (107.5, 1.53080849893419E-15, -17.5));
#180 = CARTESIAN_POINT('', (107.5, -12.5, -17.5));
#181 = CARTESIAN_POINT('', (120., -12.5, -17.5));
#182 = CARTESIAN_POINT('', (132.5, -12.5, -17.5));
#183 = CARTESIAN_POINT('', (132.5, 0., -17.5));
#184 = ORIENTED_EDGE('', *, *, #164, .T.);
#185 = ORIENTED_EDGE('', *, *, #186, .F.);
#186 = EDGE_CURVE('', #167, #167, #187, .T.);
#187 = (
   BOUNDED_CURVE ()
   B_SPLINE_CURVE (2, (#188, #189, #190, #191, #192, #193, #194, #195, #196), .UNSPECIFIED., .T., .U.)
   B_SPLINE_CURVE_WITH_KNOTS ((3, 2, 2, 2, 3), (0., 0.25, 0.5, 0.75, 1.), .UNSPECIFIED.)
   CURVE ()
   GEOMETRIC_REPRESENTATION_ITEM ()
   RATIONAL_B_SPLINE_CURVE ((1., 0.707106781186548, 1., 0.707106781186548, 1., 0.707106781186548, 1., 0.707106781186548, 1.))
   REPRESENTATION_ITEM ('')
);
#188 = CARTESIAN_POINT('', (122.5, 0., 17.5));
#189 = CARTESIAN_POINT('', (122.5, 2.5, 17.5));
#190 = CARTESIAN_POINT('', (120., 2.5, 17.5));
#191 = CARTESIAN_POINT('', (117.5, 2.5, 17.5));
#192 = CARTESIAN_POINT('', (117.5, 3.06161699786838E-16, 17.5));
#193 = CARTESIAN_POINT('', (117.5, -2.5, 17.5));
#194 = CARTESIAN_POINT('', (120., -2.5, 17.5));
#195 = CARTESIAN_POINT('', (122.5, -2.5, 17.5));
#196 = CARTESIAN_POINT('', (122.5, 0., 17.5));
#197 = (
   BOUNDED_SURFACE ()
   B_SPLINE_SURFACE (2, 1, ((#198, #199), (#200, #201), (#202, #203), (#204, #205), (#206, #207), (#208, #209), (#210, #211), (#212, #213), (#214, #215)), .UNSPECIFIED., .T., .F., .U.)
   B_SPLINE_SURFACE_WITH_KNOTS ((3, 2, 2, 2, 3), (2, 2), (0., 0.25, 0.5, 0.75, 1.), (0., 35.), .UNSPECIFIED.)
   GEOMETRIC_REPRESENTATION_ITEM ()
   RATIONAL_B_SPLINE_SURFACE (((1., 1.), (0.707106781186548, 0.707106781186548), (1., 1.), (0.707106781186548, 0.707106781186548), (1., 1.), (0.707106781186548, 0.707106781186548), (1., 1.), (0.707106781186548, 0.707106781186548), (1., 1.)))
   REPRESENTATION_ITEM ('')
   SURFACE ()
);
#198 = CARTESIAN_POINT('', (132.5, 0., -17.5));
#199 = CARTESIAN_POINT('', (122.5, 0., 17.5));
#200 = CARTESIAN_POINT('', (132.5, 12.5, -17.5));
#201 = CARTESIAN_POINT('', (122.5, 2.5, 17.5));
#202 = CARTESIAN_POINT('', (120., 12.5, -17.5));
#203 = CARTESIAN_POINT('', (120., 2.5, 17.5));
#204 = CARTESIAN_POINT('', (107.5, 12.5, -17.5));
#205 = CARTESIAN_POINT('', (117.5, 2.5, 17.5));
#206 = CARTESIAN_POINT('', (107.5, 1.53080849893419E-15, -17.5));
#207 = CARTESIAN_POINT('', (117.5, 3.06161699786838E-16, 17.5));
#208 = CARTESIAN_POINT('', (107.5, -12.5, -17.5));
#209 = CARTESIAN_POINT('', (117.5, -2.5, 17.5));
#210 = CARTESIAN_POINT('', (120., -12.5, -17.5));
#211 = CARTESIAN_POINT('', (120., -2.5, 17.5));
#212 = CARTESIAN_POINT('', (132.5, -12.5, -17.5));
#213 = CARTESIAN_POINT('', (122.5, -2.5, 17.5));
#214 = CARTESIAN_POINT('', (132.5, 0., -17.5));
#215 = CARTESIAN_POINT('', (122.5, 0., 17.5));
#216 = ADVANCED_FACE('', (#217), #220, .T.);
#217 = FACE_OUTER_BOUND('', #218, .T.);
#218 = EDGE_LOOP('', (#219));
#219 = ORIENTED_EDGE('', *, *, #173, .F.);
#220 = B_SPLINE_SURFACE_WITH_KNOTS('', 1, 1, ((#221, #222), (#223, #224)), .UNSPECIFIED., .F., .F., .U., (2, 2), (2, 2), (0., 1.), (0., 1.), .UNSPECIFIED.);
#221 = CARTESIAN_POINT('', (139.44543648263, -19.4454364826301, -17.5));
#222 = CARTESIAN_POINT('', (139.44543648263, 19.4454364826301, -17.5));
#223 = CARTESIAN_POINT('', (100.55456351737, -19.4454364826301, -17.5));
#224 = CARTESIAN_POINT('', (100.55456351737, 19.4454364826301, -17.5));
#225 = ADVANCED_FACE('', (#226), #229, .T.);
#226 = FACE_OUTER_BOUND('', #227, .T.);
#227 = EDGE_LOOP('', (#228));
#228 = ORIENTED_EDGE('', *, *, #186, .T.);
#229 = B_SPLINE_SURFACE_WITH_KNOTS('', 1, 1, ((#230, #231), (#232, #233)), .UNSPECIFIED., .F., .F., .U., (2, 2), (2, 2), (0., 1.), (0., 1.), .UNSPECIFIED.);
#230 = CARTESIAN_POINT('', (123.889087296526, -3.88908729652601, 17.5));
#231 = CARTESIAN_POINT('', (116.110912703474, -3.88908729652601, 17.5));
#232 = CARTESIAN_POINT('', (123.889087296526, 3.88908729652601, 17.5));
#233 = CARTESIAN_POINT('', (116.110912703474, 3.88908729652601, 17.5));
#234 = PRESENTATION_STYLE_ASSIGNMENT((#235));
#235 = SURFACE_STYLE_USAGE(.POSITIVE., #236);
#236 = SURFACE_SIDE_STYLE('', (#237));
#237 = SURFACE_STYLE_FILL_AREA(#238);
#238 = FILL_AREA_STYLE('', (#239));
#239 = FILL_AREA_STYLE_COLOUR('', #240);
#240 = COLOUR_RGB('', 0.50196078431373, 0.50196078431373, 0.50196078431373);
#241 = STYLED_ITEM('', (#234), #158);
#242 = MANIFOLD_SOLID_BREP('EntityObjCopy', #243);
#243 = CLOSED_SHELL('', (#244));
#244 = ADVANCED_FACE('', (#245), #260, .T.);
#245 = FACE_OUTER_BOUND('', #246, .T.);
#246 = EDGE_LOOP('', (#247, #259));
#247 = ORIENTED_EDGE('', *, *, #248, .F.);
#248 = EDGE_CURVE('', #249, #251, #253, .T.);
#249 = VERTEX_POINT('', #250);
#250 = CARTESIAN_POINT('', (-3.67394039744206E-15, 60., -20.));
#251 = VERTEX_POINT('', #252);
#252 = CARTESIAN_POINT('', (6.12323399573677E-15, 60., 20.));
#253 = (
   BOUNDED_CURVE ()
   B_SPLINE_CURVE (2, (#254, #255, #256, #257, #258), .UNSPECIFIED., .F., .U.)
   B_SPLINE_CURVE_WITH_KNOTS ((3, 2, 3), (0., 0.5, 1.), .UNSPECIFIED.)
   CURVE ()
   GEOMETRIC_REPRESENTATION_ITEM ()
   RATIONAL_B_SPLINE_CURVE ((1., 0.707106781186548, 1., 0.707106781186548, 1.))
   REPRESENTATION_ITEM ('')
);
#254 = CARTESIAN_POINT('', (-3.67394039744206E-15, 60., -20.));
#255 = CARTESIAN_POINT('', (20., 60., -20.));
#256 = CARTESIAN_POINT('', (20., 60., -4.89858719658941E-15));
#257 = CARTESIAN_POINT('', (20., 60., 20.));
#258 = CARTESIAN_POINT('', (6.12323399573677E-15, 60., 20.));
#259 = ORIENTED_EDGE('', *, *, #248, .T.);
#260 = (
   BOUNDED_SURFACE ()
   B_SPLINE_SURFACE (2, 2, ((#261, #262, #263, #264, #265), (#266, #267, #268, #269, #270), (#271, #272, #273, #274, #275), (#276, #277, #278, #279, #280), (#281, #282, #283, #284, #285), (#286, #287, #288, #289, #290), (#291, #292, #293, #294, #295), (#296, #297, #298, #299, #300), (#301, #302, #303, #304, #305)), .UNSPECIFIED., .T., .F., .U.)
   B_SPLINE_SURFACE_WITH_KNOTS ((3, 2, 2, 2, 3), (3, 2, 3), (0., 0.25, 0.5, 0.75, 1.), (0., 0.5, 1.), .UNSPECIFIED.)
   GEOMETRIC_REPRESENTATION_ITEM ()
   RATIONAL_B_SPLINE_SURFACE (((1., 0.707106781186548, 1., 0.707106781186548, 1.), (0.707106781186548, 0.5, 0.707106781186548, 0.5, 0.707106781186548), (1., 0.707106781186548, 1., 0.707106781186548, 1.), (0.707106781186548, 0.5, 0.707106781186548, 0.5, 0.707106781186548), (1., 0.707106781186548, 1., 0.707106781186548, 1.), (0.707106781186548, 0.5, 0.707106781186548, 0.5, 0.707106781186548), (1., 0.707106781186548, 1., 0.707106781186548, 1.), (0.707106781186548, 0.5, 0.707106781186548, 0.5, 0.707106781186548), (1., 0.707106781186548, 1., 0.707106781186548, 1.)))
   REPRESENTATION_ITEM ('')
   SURFACE ()
);
#261 = CARTESIAN_POINT('', (-3.67394039744206E-15, 60., -20.));
#262 = CARTESIAN_POINT('', (20., 60., -20.));
#263 = CARTESIAN_POINT('', (20., 60., -4.89858719658941E-15));
#264 = CARTESIAN_POINT('', (20., 60., 20.));
#265 = CARTESIAN_POINT('', (6.12323399573677E-15, 60., 20.));
#266 = CARTESIAN_POINT('', (-3.67394039744206E-15, 60., -20.));
#267 = CARTESIAN_POINT('', (20., 80., -20.));
#268 = CARTESIAN_POINT('', (20., 80., -4.89858719658941E-15));
#269 = CARTESIAN_POINT('', (20., 80., 20.));
#270 = CARTESIAN_POINT('', (6.12323399573677E-15, 60., 20.));
#271 = CARTESIAN_POINT('', (-3.67394039744206E-15, 60., -20.));
#272 = CARTESIAN_POINT('', (1.22464679914735E-15, 80., -20.));
#273 = CARTESIAN_POINT('', (1.22464679914735E-15, 80., -4.89858719658941E-15));
#274 = CARTESIAN_POINT('', (1.22464679914735E-15, 80., 20.));
#275 = CARTESIAN_POINT('', (6.12323399573677E-15, 60., 20.));
#276 = CARTESIAN_POINT('', (-3.67394039744206E-15, 60., -20.));
#277 = CARTESIAN_POINT('', (-20., 80., -20.));
#278 = CARTESIAN_POINT('', (-20., 80., -4.89858719658941E-15));
#279 = CARTESIAN_POINT('', (-20., 80., 20.));
#280 = CARTESIAN_POINT('', (6.12323399573677E-15, 60., 20.));
#281 = CARTESIAN_POINT('', (-3.67394039744206E-15, 60., -20.));
#282 = CARTESIAN_POINT('', (-20., 60., -20.));
#283 = CARTESIAN_POINT('', (-20., 60., -4.89858719658941E-15));
#284 = CARTESIAN_POINT('', (-20., 60., 20.));
#285 = CARTESIAN_POINT('', (6.12323399573677E-15, 60., 20.));
#286 = CARTESIAN_POINT('', (-3.67394039744206E-15, 60., -20.));
#287 = CARTESIAN_POINT('', (-20., 40., -20.));
#288 = CARTESIAN_POINT('', (-20., 40., -4.89858719658941E-15));
#289 = CARTESIAN_POINT('', (-20., 40., 20.));
#290 = CARTESIAN_POINT('', (6.12323399573677E-15, 60., 20.));
#291 = CARTESIAN_POINT('', (-3.67394039744206E-15, 60., -20.));
#292 = CARTESIAN_POINT('', (-3.67394039744206E-15, 40., -20.));
#293 = CARTESIAN_POINT('', (-3.67394039744206E-15, 40., -4.89858719658941E-15));
#294 = CARTESIAN_POINT('', (-3.67394039744206E-15, 40., 20.));
#295 = CARTESIAN_POINT('', (6.12323399573677E-15, 60., 20.));
#296 = CARTESIAN_POINT('', (-3.67394039744206E-15, 60., -20.));
#297 = CARTESIAN_POINT('', (20., 40., -20.));
#298 = CARTESIAN_POINT('', (20., 40., -4.89858719658941E-15));
#299 = CARTESIAN_POINT('', (20., 40., 20.));
#300 = CARTESIAN_POINT('', (6.12323399573677E-15, 60., 20.));
#301 = CARTESIAN_POINT('', (-3.67394039744206E-15, 60., -20.));
#302 = CARTESIAN_POINT('', (20., 60., -20.));
#303 = CARTESIAN_POINT('', (20., 60., -4.89858719658941E-15));
#304 = CARTESIAN_POINT('', (20., 60., 20.));
#305 = CARTESIAN_POINT('', (6.12323399573677E-15, 60., 20.));
#306 = PRESENTATION_STYLE_ASSIGNMENT((#307));
#307 = SURFACE_STYLE_USAGE(.POSITIVE., #308);
#308 = SURFACE_SIDE_STYLE('', (#309));
#309 = SURFACE_STYLE_FILL_AREA(#310);
#310 = FILL_AREA_STYLE('', (#311));
#311 = FILL_AREA_STYLE_COLOUR('', #312);
#312 = COLOUR_RGB('', 0.50196078431373, 0.50196078431373, 0.50196078431373);
#313 = STYLED_ITEM('', (#306), #242);
#314 = MANIFOLD_SOLID_BREP('EntityObjCopy0', #315);
#315 = CLOSED_SHELL('', (#316, #372, #381));
#316 = ADVANCED_FACE('', (#317), #353, .T.);
#317 = FACE_OUTER_BOUND('', #318, .T.);
#318 = EDGE_LOOP('', (#319, #328, #340, #341));
#319 = ORIENTED_EDGE('', *, *, #320, .F.);
#320 = EDGE_CURVE('', #321, #323, #325, .T.);
#321 = VERTEX_POINT('', #322);
#322 = CARTESIAN_POINT('', (72.5, 60., -20.));
#323 = VERTEX_POINT('', #324);
#324 = CARTESIAN_POINT('', (72.5, 60., 20.));
#325 = B_SPLINE_CURVE_WITH_KNOTS('', 1, (#326, #327), .UNSPECIFIED., .F., .U., (2, 2), (0., 40.), .UNSPECIFIED.);
#326 = CARTESIAN_POINT('', (72.5, 60., -20.));
#327 = CARTESIAN_POINT('', (72.5, 60., 20.));
#328 = ORIENTED_EDGE('', *, *, #329, .T.);
#329 = EDGE_CURVE('', #321, #321, #330, .T.);
#330 = (
   BOUNDED_CURVE ()
   B_SPLINE_CURVE (2, (#331, #332, #333, #334, #335, #336, #337, #338, #339), .UNSPECIFIED., .T., .U.)
   B_SPLINE_CURVE_WITH_KNOTS ((3, 2, 2, 2, 3), (0., 19.6349540849362, 39.2699081698724, 58.9048622548086, 78.5398163397448), .UNSPECIFIED.)
   CURVE ()
   GEOMETRIC_REPRESENTATION_ITEM ()
   RATIONAL_B_SPLINE_CURVE ((1., 0.707106781186548, 1., 0.707106781186548, 1., 0.707106781186548, 1., 0.707106781186548, 1.))
   REPRESENTATION_ITEM ('')
);
#331 = CARTESIAN_POINT('', (72.5, 60., -20.));
#332 = CARTESIAN_POINT('', (72.5, 72.5, -20.));
#333 = CARTESIAN_POINT('', (60., 72.5, -20.));
#334 = CARTESIAN_POINT('', (47.5, 72.5, -20.));
#335 = CARTESIAN_POINT('', (47.5, 60., -20.));
#336 = CARTESIAN_POINT('', (47.5, 47.5, -20.));
#337 = CARTESIAN_POINT('', (60., 47.5, -20.));
#338 = CARTESIAN_POINT('', (72.5, 47.5, -20.));
#339 = CARTESIAN_POINT('', (72.5, 60., -20.));
#340 = ORIENTED_EDGE('', *, *, #320, .T.);
#341 = ORIENTED_EDGE('', *, *, #342, .F.);
#342 = EDGE_CURVE('', #323, #323, #343, .T.);
#343 = (
   BOUNDED_CURVE ()
   B_SPLINE_CURVE (2, (#344, #345, #346, #347, #348, #349, #350, #351, #352), .UNSPECIFIED., .T., .U.)
   B_SPLINE_CURVE_WITH_KNOTS ((3, 2, 2, 2, 3), (0., 19.6349540849362, 39.2699081698724, 58.9048622548086, 78.5398163397448), .UNSPECIFIED.)
   CURVE ()
   GEOMETRIC_REPRESENTATION_ITEM ()
   RATIONAL_B_SPLINE_CURVE ((1., 0.707106781186548, 1., 0.707106781186548, 1., 0.707106781186548, 1., 0.707106781186548, 1.))
   REPRESENTATION_ITEM ('')
);
#344 = CARTESIAN_POINT('', (72.5, 60., 20.));
#345 = CARTESIAN_POINT('', (72.5, 72.5, 20.));
#346 = CARTESIAN_POINT('', (60., 72.5, 20.));
#347 = CARTESIAN_POINT('', (47.5, 72.5, 20.));
#348 = CARTESIAN_POINT('', (47.5, 60., 20.));
#349 = CARTESIAN_POINT('', (47.5, 47.5, 20.));
#350 = CARTESIAN_POINT('', (60., 47.5, 20.));
#351 = CARTESIAN_POINT('', (72.5, 47.5, 20.));
#352 = CARTESIAN_POINT('', (72.5, 60., 20.));
#353 = (
   BOUNDED_SURFACE ()
   B_SPLINE_SURFACE (2, 1, ((#354, #355), (#356, #357), (#358, #359), (#360, #361), (#362, #363), (#364, #365), (#366, #367), (#368, #369), (#370, #371)), .UNSPECIFIED., .T., .F., .U.)
   B_SPLINE_SURFACE_WITH_KNOTS ((3, 2, 2, 2, 3), (2, 2), (0., 19.6349540849362, 39.2699081698724, 58.9048622548086, 78.5398163397448), (0., 40.), .UNSPECIFIED.)
   GEOMETRIC_REPRESENTATION_ITEM ()
   RATIONAL_B_SPLINE_SURFACE (((1., 1.), (0.707106781186548, 0.707106781186548), (1., 1.), (0.707106781186548, 0.707106781186548), (1., 1.), (0.707106781186548, 0.707106781186548), (1., 1.), (0.707106781186548, 0.707106781186548), (1., 1.)))
   REPRESENTATION_ITEM ('')
   SURFACE ()
);
#354 = CARTESIAN_POINT('', (72.5, 60., -20.));
#355 = CARTESIAN_POINT('', (72.5, 60., 20.));
#356 = CARTESIAN_POINT('', (72.5, 72.5, -20.));
#357 = CARTESIAN_POINT('', (72.5, 72.5, 20.));
#358 = CARTESIAN_POINT('', (60., 72.5, -20.));
#359 = CARTESIAN_POINT('', (60., 72.5, 20.));
#360 = CARTESIAN_POINT('', (47.5, 72.5, -20.));
#361 = CARTESIAN_POINT('', (47.5, 72.5, 20.));
#362 = CARTESIAN_POINT('', (47.5, 60., -20.));
#363 = CARTESIAN_POINT('', (47.5, 60., 20.));
#364 = CARTESIAN_POINT('', (47.5, 47.5, -20.));
#365 = CARTESIAN_POINT('', (47.5, 47.5, 20.));
#366 = CARTESIAN_POINT('', (60., 47.5, -20.));
#367 = CARTESIAN_POINT('', (60., 47.5, 20.));
#368 = CARTESIAN_POINT('', (72.5, 47.5, -20.));
#369 = CARTESIAN_POINT('', (72.5, 47.5, 20.));
#370 = CARTESIAN_POINT('', (72.5, 60., -20.));
#371 = CARTESIAN_POINT('', (72.5, 60., 20.));
#372 = ADVANCED_FACE('', (#373), #376, .T.);
#373 = FACE_OUTER_BOUND('', #374, .T.);
#374 = EDGE_LOOP('', (#375));
#375 = ORIENTED_EDGE('', *, *, #329, .F.);
#376 = B_SPLINE_SURFACE_WITH_KNOTS('', 1, 1, ((#377, #378), (#379, #380)), .UNSPECIFIED., .F., .F., .U., (2, 2), (2, 2), (0., 1.), (0., 1.), .UNSPECIFIED.);
#377 = CARTESIAN_POINT('', (79.4454364826301, 40.5545635173699, -20.));
#378 = CARTESIAN_POINT('', (79.4454364826301, 79.4454364826301, -20.));
#379 = CARTESIAN_POINT('', (40.5545635173699, 40.5545635173699, -20.));
#380 = CARTESIAN_POINT('', (40.5545635173699, 79.4454364826301, -20.));
#381 = ADVANCED_FACE('', (#382), #385, .T.);
#382 = FACE_OUTER_BOUND('', #383, .T.);
#383 = EDGE_LOOP('', (#384));
#384 = ORIENTED_EDGE('', *, *, #342, .T.);
#385 = B_SPLINE_SURFACE_WITH_KNOTS('', 1, 1, ((#386, #387), (#388, #389)), .UNSPECIFIED., .F., .F., .U., (2, 2), (2, 2), (0., 1.), (0., 1.), .UNSPECIFIED.);
#386 = CARTESIAN_POINT('', (79.4454364826301, 40.5545635173699, 20.));
#387 = CARTESIAN_POINT('', (40.5545635173699, 40.5545635173699, 20.));
#388 = CARTESIAN_POINT('', (79.4454364826301, 79.4454364826301, 20.));
#389 = CARTESIAN_POINT('', (40.5545635173699, 79.4454364826301, 20.));
#390 = PRESENTATION_STYLE_ASSIGNMENT((#391));
#391 = SURFACE_STYLE_USAGE(.POSITIVE., #392);
#392 = SURFACE_SIDE_STYLE('', (#393));
#393 = SURFACE_STYLE_FILL_AREA(#394);
#394 = FILL_AREA_STYLE('', (#395));
#395 = FILL_AREA_STYLE_COLOUR('', #396);
#396 = COLOUR_RGB('', 0.50196078431373, 0.50196078431373, 0.50196078431373);
#397 = STYLED_ITEM('', (#390), #314);
#398 = MANIFOLD_SOLID_BREP('EntityObjCopy1', #399);
#399 = CLOSED_SHELL('', (#400, #456, #465));
#400 = ADVANCED_FACE('', (#401), #437, .T.);
#401 = FACE_OUTER_BOUND('', #402, .T.);
#402 = EDGE_LOOP('', (#403, #412, #424, #425));
#403 = ORIENTED_EDGE('', *, *, #404, .F.);
#404 = EDGE_CURVE('', #405, #407, #409, .T.);
#405 = VERTEX_POINT('', #406);
#406 = CARTESIAN_POINT('', (132.5, 60., -17.5));
#407 = VERTEX_POINT('', #408);
#408 = CARTESIAN_POINT('', (122.5, 60., 17.5));
#409 = B_SPLINE_CURVE_WITH_KNOTS('', 1, (#410, #411), .UNSPECIFIED., .F., .U., (2, 2), (0., 35.), .UNSPECIFIED.);
#410 = CARTESIAN_POINT('', (132.5, 60., -17.5));
#411 = CARTESIAN_POINT('', (122.5, 60., 17.5));
#412 = ORIENTED_EDGE('', *, *, #413, .T.);
#413 = EDGE_CURVE('', #405, #405, #414, .T.);
#414 = (
   BOUNDED_CURVE ()
   B_SPLINE_CURVE (2, (#415, #416, #417, #418, #419, #420, #421, #422, #423), .UNSPECIFIED., .T., .U.)
   B_SPLINE_CURVE_WITH_KNOTS ((3, 2, 2, 2, 3), (0., 0.25, 0.5, 0.75, 1.), .UNSPECIFIED.)
   CURVE ()
   GEOMETRIC_REPRESENTATION_ITEM ()
   RATIONAL_B_SPLINE_CURVE ((1., 0.707106781186548, 1., 0.707106781186548, 1., 0.707106781186548, 1., 0.707106781186548, 1.))
   REPRESENTATION_ITEM ('')
);
#415 = CARTESIAN_POINT('', (132.5, 60., -17.5));
#416 = CARTESIAN_POINT('', (132.5, 72.5, -17.5));
#417 = CARTESIAN_POINT('', (120., 72.5, -17.5));
#418 = CARTESIAN_POINT('', (107.5, 72.5, -17.5));
#419 = CARTESIAN_POINT('', (107.5, 60., -17.5));
#420 = CARTESIAN_POINT('', (107.5, 47.5, -17.5));
#421 = CARTESIAN_POINT('', (120., 47.5, -17.5));
#422 = CARTESIAN_POINT('', (132.5, 47.5, -17.5));
#423 = CARTESIAN_POINT('', (132.5, 60., -17.5));
#424 = ORIENTED_EDGE('', *, *, #404, .T.);
#425 = ORIENTED_EDGE('', *, *, #426, .F.);
#426 = EDGE_CURVE('', #407, #407, #427, .T.);
#427 = (
   BOUNDED_CURVE ()
   B_SPLINE_CURVE (2, (#428, #429, #430, #431, #432, #433, #434, #435, #436), .UNSPECIFIED., .T., .U.)
   B_SPLINE_CURVE_WITH_KNOTS ((3, 2, 2, 2, 3), (0., 0.25, 0.5, 0.75, 1.), .UNSPECIFIED.)
   CURVE ()
   GEOMETRIC_REPRESENTATION_ITEM ()
   RATIONAL_B_SPLINE_CURVE ((1., 0.707106781186548, 1., 0.707106781186548, 1., 0.707106781186548, 1., 0.707106781186548, 1.))
   REPRESENTATION_ITEM ('')
);
#428 = CARTESIAN_POINT('', (122.5, 60., 17.5));
#429 = CARTESIAN_POINT('', (122.5, 62.5, 17.5));
#430 = CARTESIAN_POINT('', (120., 62.5, 17.5));
#431 = CARTESIAN_POINT('', (117.5, 62.5, 17.5));
#432 = CARTESIAN_POINT('', (117.5, 60., 17.5));
#433 = CARTESIAN_POINT('', (117.5, 57.5, 17.5));
#434 = CARTESIAN_POINT('', (120., 57.5, 17.5));
#435 = CARTESIAN_POINT('', (122.5, 57.5, 17.5));
#436 = CARTESIAN_POINT('', (122.5, 60., 17.5));
#437 = (
   BOUNDED_SURFACE ()
   B_SPLINE_SURFACE (2, 1, ((#438, #439), (#440, #441), (#442, #443), (#444, #445), (#446, #447), (#448, #449), (#450, #451), (#452, #453), (#454, #455)), .UNSPECIFIED., .T., .F., .U.)
   B_SPLINE_SURFACE_WITH_KNOTS ((3, 2, 2, 2, 3), (2, 2), (0., 0.25, 0.5, 0.75, 1.), (0., 35.), .UNSPECIFIED.)
   GEOMETRIC_REPRESENTATION_ITEM ()
   RATIONAL_B_SPLINE_SURFACE (((1., 1.), (0.707106781186548, 0.707106781186548), (1., 1.), (0.707106781186548, 0.707106781186548), (1., 1.), (0.707106781186548, 0.707106781186548), (1., 1.), (0.707106781186548, 0.707106781186548), (1., 1.)))
   REPRESENTATION_ITEM ('')
   SURFACE ()
);
#438 = CARTESIAN_POINT('', (132.5, 60., -17.5));
#439 = CARTESIAN_POINT('', (122.5, 60., 17.5));
#440 = CARTESIAN_POINT('', (132.5, 72.5, -17.5));
#441 = CARTESIAN_POINT('', (122.5, 62.5, 17.5));
#442 = CARTESIAN_POINT('', (120., 72.5, -17.5));
#443 = CARTESIAN_POINT('', (120., 62.5, 17.5));
#444 = CARTESIAN_POINT('', (107.5, 72.5, -17.5));
#445 = CARTESIAN_POINT('', (117.5, 62.5, 17.5));
#446 = CARTESIAN_POINT('', (107.5, 60., -17.5));
#447 = CARTESIAN_POINT('', (117.5, 60., 17.5));
#448 = CARTESIAN_POINT('', (107.5, 47.5, -17.5));
#449 = CARTESIAN_POINT('', (117.5, 57.5, 17.5));
#450 = CARTESIAN_POINT('', (120., 47.5, -17.5));
#451 = CARTESIAN_POINT('', (120., 57.5, 17.5));
#452 = CARTESIAN_POINT('', (132.5, 47.5, -17.5));
#453 = CARTESIAN_POINT('', (122.5, 57.5, 17.5));
#454 = CARTESIAN_POINT('', (132.5, 60., -17.5));
#455 = CARTESIAN_POINT('', (122.5, 60., 17.5));
#456 = ADVANCED_FACE('', (#457), #460, .T.);
#457 = FACE_OUTER_BOUND('', #458, .T.);
#458 = EDGE_LOOP('', (#459));
#459 = ORIENTED_EDGE('', *, *, #413, .F.);
#460 = B_SPLINE_SURFACE_WITH_KNOTS('', 1, 1, ((#461, #462), (#463, #464)), .UNSPECIFIED., .F., .F., .U., (2, 2), (2, 2), (0., 1.), (0., 1.), .UNSPECIFIED.);
#461 = CARTESIAN_POINT('', (139.44543648263, 40.5545635173699, -17.5));
#462 = CARTESIAN_POINT('', (139.44543648263, 79.4454364826301, -17.5));
#463 = CARTESIAN_POINT('', (100.55456351737, 40.5545635173699, -17.5));
#464 = CARTESIAN_POINT('', (100.55456351737, 79.4454364826301, -17.5));
#465 = ADVANCED_FACE('', (#466), #469, .T.);
#466 = FACE_OUTER_BOUND('', #467, .T.);
#467 = EDGE_LOOP('', (#468));
#468 = ORIENTED_EDGE('', *, *, #426, .T.);
#469 = B_SPLINE_SURFACE_WITH_KNOTS('', 1, 1, ((#470, #471), (#472, #473)), .UNSPECIFIED., .F., .F., .U., (2, 2), (2, 2), (0., 1.), (0., 1.), .UNSPECIFIED.);
#470 = CARTESIAN_POINT('', (123.889087296526, 56.110912703474, 17.5));
#471 = CARTESIAN_POINT('', (116.110912703474, 56.110912703474, 17.5));
#472 = CARTESIAN_POINT('', (123.889087296526, 63.889087296526, 17.5));
#473 = CARTESIAN_POINT('', (116.110912703474, 63.889087296526, 17.5));
#474 = PRESENTATION_STYLE_ASSIGNMENT((#475));
#475 = SURFACE_STYLE_USAGE(.POSITIVE., #476);
#476 = SURFACE_SIDE_STYLE('', (#477));
#477 = SURFACE_STYLE_FILL_AREA(#478);
#478 = FILL_AREA_STYLE('', (#479));
#479 = FILL_AREA_STYLE_COLOUR('', #480);
#480 = COLOUR_RGB('', 0.50196078431373, 0.50196078431373, 0.50196078431373);
#481 = STYLED_ITEM('', (#474), #398);
#482 = CARTESIAN_POINT('Origin', (0., 0., 0.));
#483 = GEOMETRIC_SET('', (#482));
#484 = (
   GEOMETRIC_REPRESENTATION_CONTEXT (3)
   GLOBAL_UNCERTAINTY_ASSIGNED_CONTEXT ((#486))
   GLOBAL_UNIT_ASSIGNED_CONTEXT ((#485, #487, #488))
   REPRESENTATION_CONTEXT ('', '3D')
);
#485 = (
   LENGTH_UNIT ()
   NAMED_UNIT (*)
   SI_UNIT (.MILLI., .METRE.)
);
#486 = UNCERTAINTY_MEASURE_WITH_UNIT(LENGTH_MEASURE(1.E-6), #485, 'DISTANCE_ACCURACY_VALUE', '');
#487 = (
   NAMED_UNIT (*)
   SI_UNIT ($, .STERADIAN.)
   SOLID_ANGLE_UNIT ()
);
#488 = (
   NAMED_UNIT (*)
   PLANE_ANGLE_UNIT ()
   SI_UNIT ($, .RADIAN.)
);
#489 = SHAPE_REPRESENTATION('', (#504), #484);
#490 = PRODUCT_DEFINITION_SHAPE('', '', #491);
#491 = PRODUCT_DEFINITION('', '', #494, #498);
#492 = APPLICATION_CONTEXT('configuration controlled 3D designs of mechanical parts and assemblies');
#493 = APPLICATION_PROTOCOL_DEFINITION('International Standard', 'automotive_design', 2002, #492);
#494 = PRODUCT_DEFINITION_FORMATION_WITH_SPECIFIED_SOURCE('', '', #495, .NOT_KNOWN.);
#495 = PRODUCT('CopyShapes', 'CopyShapes', '', (#496));
#496 = PRODUCT_CONTEXT('', #492, 'mechanical');
#497 = PRODUCT_RELATED_PRODUCT_CATEGORY('detail', '', (#495));
#498 = PRODUCT_DEFINITION_CONTEXT('part definition', #492, 'design');
#499 = SHAPE_DEFINITION_REPRESENTATION(#490, #489);
#500 = SHAPE_REPRESENTATION_RELATIONSHIP('', '', #489, #501);
#501 = SHAPE_REPRESENTATION('', (#483), #484);
#502 = SHAPE_REPRESENTATION_RELATIONSHIP('', '', #489, #503);
#503 = ADVANCED_BREP_SHAPE_REPRESENTATION('', (#1, #74, #158, #242, #314, #398), #484);
#504 = AXIS2_PLACEMENT_3D('', #505, #506, #507);
#505 = CARTESIAN_POINT('', (0., 0., 0.));
#506 = DIRECTION('', (0., 0., 1.));
#507 = DIRECTION('', (1., 0., 0.));
ENDSEC;
END-ISO-10303-21;
