ISO-10303-21;
HEADER;
FILE_DESCRIPTION(('STEP'), '1');
FILE_NAME('MultiCopy', '2026-04-15T16:12:28', (''), (''), 'Express 3.1.2.0', 'Express Tool', 'Unknown');
FILE_SCHEMA(('AUTOMOTIVE_DESIGN'));
ENDSEC;

DATA;
#1 = MANIFOLD_SOLID_BREP('Solid', #2);
#2 = CLOSED_SHELL('', (#3, #39, #67, #95, #115, #127));
#3 = ADVANCED_FACE('', (#4), #34, .T.);
#4 = FACE_OUTER_BOUND('', #5, .T.);
#5 = EDGE_LOOP('', (#6, #15, #22, #29));
#6 = ORIENTED_EDGE('', *, *, #7, .T.);
#7 = EDGE_CURVE('', #8, #10, #12, .T.);
#8 = VERTEX_POINT('', #9);
#9 = CARTESIAN_POINT('', (40., 5., -7.5));
#10 = VERTEX_POINT('', #11);
#11 = CARTESIAN_POINT('', (40., 5., 7.5));
#12 = B_SPLINE_CURVE_WITH_KNOTS('', 1, (#13, #14), .UNSPECIFIED., .F., .U., (2, 2), (0., 15.), .UNSPECIFIED.);
#13 = CARTESIAN_POINT('', (40., 5., -7.5));
#14 = CARTESIAN_POINT('', (40., 5., 7.5));
#15 = ORIENTED_EDGE('', *, *, #16, .T.);
#16 = EDGE_CURVE('', #10, #17, #19, .T.);
#17 = VERTEX_POINT('', #18);
#18 = CARTESIAN_POINT('', (60., 5., 7.5));
#19 = B_SPLINE_CURVE_WITH_KNOTS('', 1, (#20, #21), .UNSPECIFIED., .F., .U., (2, 2), (0., 20.), .UNSPECIFIED.);
#20 = CARTESIAN_POINT('', (40., 5., 7.5));
#21 = CARTESIAN_POINT('', (60., 5., 7.5));
#22 = ORIENTED_EDGE('', *, *, #23, .F.);
#23 = EDGE_CURVE('', #24, #17, #26, .T.);
#24 = VERTEX_POINT('', #25);
#25 = CARTESIAN_POINT('', (60., 5., -7.5));
#26 = B_SPLINE_CURVE_WITH_KNOTS('', 1, (#27, #28), .UNSPECIFIED., .F., .U., (2, 2), (0., 15.), .UNSPECIFIED.);
#27 = CARTESIAN_POINT('', (60., 5., -7.5));
#28 = CARTESIAN_POINT('', (60., 5., 7.5));
#29 = ORIENTED_EDGE('', *, *, #30, .F.);
#30 = EDGE_CURVE('', #8, #24, #31, .T.);
#31 = B_SPLINE_CURVE_WITH_KNOTS('', 1, (#32, #33), .UNSPECIFIED., .F., .U., (2, 2), (0., 20.), .UNSPECIFIED.);
#32 = CARTESIAN_POINT('', (40., 5., -7.5));
#33 = CARTESIAN_POINT('', (60., 5., -7.5));
#34 = B_SPLINE_SURFACE_WITH_KNOTS('', 1, 1, ((#35, #36), (#37, #38)), .UNSPECIFIED., .F., .F., .U., (2, 2), (2, 2), (0., 15.), (0., 20.), .UNSPECIFIED.);
#35 = CARTESIAN_POINT('', (40., 5., -7.5));
#36 = CARTESIAN_POINT('', (60., 5., -7.5));
#37 = CARTESIAN_POINT('', (40., 5., 7.5));
#38 = CARTESIAN_POINT('', (60., 5., 7.5));
#39 = ADVANCED_FACE('', (#40), #62, .T.);
#40 = FACE_OUTER_BOUND('', #41, .T.);
#41 = EDGE_LOOP('', (#42, #49, #56, #61));
#42 = ORIENTED_EDGE('', *, *, #43, .F.);
#43 = EDGE_CURVE('', #44, #10, #46, .T.);
#44 = VERTEX_POINT('', #45);
#45 = CARTESIAN_POINT('', (40., -5., 7.5));
#46 = B_SPLINE_CURVE_WITH_KNOTS('', 1, (#47, #48), .UNSPECIFIED., .F., .U., (2, 2), (0., 10.), .UNSPECIFIED.);
#47 = CARTESIAN_POINT('', (40., -5., 7.5));
#48 = CARTESIAN_POINT('', (40., 5., 7.5));
#49 = ORIENTED_EDGE('', *, *, #50, .T.);
#50 = EDGE_CURVE('', #44, #51, #53, .T.);
#51 = VERTEX_POINT('', #52);
#52 = CARTESIAN_POINT('', (60., -5., 7.5));
#53 = B_SPLINE_CURVE_WITH_KNOTS('', 1, (#54, #55), .UNSPECIFIED., .F., .U., (2, 2), (0., 20.), .UNSPECIFIED.);
#54 = CARTESIAN_POINT('', (40., -5., 7.5));
#55 = CARTESIAN_POINT('', (60., -5., 7.5));
#56 = ORIENTED_EDGE('', *, *, #57, .T.);
#57 = EDGE_CURVE('', #51, #17, #58, .T.);
#58 = B_SPLINE_CURVE_WITH_KNOTS('', 1, (#59, #60), .UNSPECIFIED., .F., .U., (2, 2), (0., 10.), .UNSPECIFIED.);
#59 = CARTESIAN_POINT('', (60., -5., 7.5));
#60 = CARTESIAN_POINT('', (60., 5., 7.5));
#61 = ORIENTED_EDGE('', *, *, #16, .F.);
#62 = B_SPLINE_SURFACE_WITH_KNOTS('', 1, 1, ((#63, #64), (#65, #66)), .UNSPECIFIED., .F., .F., .U., (2, 2), (2, 2), (0., 20.), (0., 10.), .UNSPECIFIED.);
#63 = CARTESIAN_POINT('', (40., -5., 7.5));
#64 = CARTESIAN_POINT('', (40., 5., 7.5));
#65 = CARTESIAN_POINT('', (60., -5., 7.5));
#66 = CARTESIAN_POINT('', (60., 5., 7.5));
#67 = ADVANCED_FACE('', (#68), #90, .T.);
#68 = FACE_OUTER_BOUND('', #69, .T.);
#69 = EDGE_LOOP('', (#70, #77, #84, #89));
#70 = ORIENTED_EDGE('', *, *, #71, .F.);
#71 = EDGE_CURVE('', #72, #44, #74, .T.);
#72 = VERTEX_POINT('', #73);
#73 = CARTESIAN_POINT('', (40., -5., -7.5));
#74 = B_SPLINE_CURVE_WITH_KNOTS('', 1, (#75, #76), .UNSPECIFIED., .F., .U., (2, 2), (0., 15.), .UNSPECIFIED.);
#75 = CARTESIAN_POINT('', (40., -5., -7.5));
#76 = CARTESIAN_POINT('', (40., -5., 7.5));
#77 = ORIENTED_EDGE('', *, *, #78, .T.);
#78 = EDGE_CURVE('', #72, #79, #81, .T.);
#79 = VERTEX_POINT('', #80);
#80 = CARTESIAN_POINT('', (60., -5., -7.5));
#81 = B_SPLINE_CURVE_WITH_KNOTS('', 1, (#82, #83), .UNSPECIFIED., .F., .U., (2, 2), (0., 20.), .UNSPECIFIED.);
#82 = CARTESIAN_POINT('', (40., -5., -7.5));
#83 = CARTESIAN_POINT('', (60., -5., -7.5));
#84 = ORIENTED_EDGE('', *, *, #85, .T.);
#85 = EDGE_CURVE('', #79, #51, #86, .T.);
#86 = B_SPLINE_CURVE_WITH_KNOTS('', 1, (#87, #88), .UNSPECIFIED., .F., .U., (2, 2), (0., 15.), .UNSPECIFIED.);
#87 = CARTESIAN_POINT('', (60., -5., -7.5));
#88 = CARTESIAN_POINT('', (60., -5., 7.5));
#89 = ORIENTED_EDGE('', *, *, #50, .F.);
#90 = B_SPLINE_SURFACE_WITH_KNOTS('', 1, 1, ((#91, #92), (#93, #94)), .UNSPECIFIED., .F., .F., .U., (2, 2), (2, 2), (0., 20.), (0., 15.), .UNSPECIFIED.);
#91 = CARTESIAN_POINT('', (40., -5., -7.5));
#92 = CARTESIAN_POINT('', (40., -5., 7.5));
#93 = CARTESIAN_POINT('', (60., -5., -7.5));
#94 = CARTESIAN_POINT('', (60., -5., 7.5));
#95 = ADVANCED_FACE('', (#96), #110, .T.);
#96 = FACE_OUTER_BOUND('', #97, .T.);
#97 = EDGE_LOOP('', (#98, #103, #104, #109));
#98 = ORIENTED_EDGE('', *, *, #99, .T.);
#99 = EDGE_CURVE('', #72, #8, #100, .T.);
#100 = B_SPLINE_CURVE_WITH_KNOTS('', 1, (#101, #102), .UNSPECIFIED., .F., .U., (2, 2), (0., 10.), .UNSPECIFIED.);
#101 = CARTESIAN_POINT('', (40., -5., -7.5));
#102 = CARTESIAN_POINT('', (40., 5., -7.5));
#103 = ORIENTED_EDGE('', *, *, #30, .T.);
#104 = ORIENTED_EDGE('', *, *, #105, .F.);
#105 = EDGE_CURVE('', #79, #24, #106, .T.);
#106 = B_SPLINE_CURVE_WITH_KNOTS('', 1, (#107, #108), .UNSPECIFIED., .F., .U., (2, 2), (0., 10.), .UNSPECIFIED.);
#107 = CARTESIAN_POINT('', (60., -5., -7.5));
#108 = CARTESIAN_POINT('', (60., 5., -7.5));
#109 = ORIENTED_EDGE('', *, *, #78, .F.);
#110 = B_SPLINE_SURFACE_WITH_KNOTS('', 1, 1, ((#111, #112), (#113, #114)), .UNSPECIFIED., .F., .F., .U., (2, 2), (2, 2), (0., 10.), (0., 20.), .UNSPECIFIED.);
#111 = CARTESIAN_POINT('', (40., -5., -7.5));
#112 = CARTESIAN_POINT('', (60., -5., -7.5));
#113 = CARTESIAN_POINT('', (40., 5., -7.5));
#114 = CARTESIAN_POINT('', (60., 5., -7.5));
#115 = ADVANCED_FACE('', (#116), #122, .T.);
#116 = FACE_OUTER_BOUND('', #117, .T.);
#117 = EDGE_LOOP('', (#118, #119, #120, #121));
#118 = ORIENTED_EDGE('', *, *, #85, .F.);
#119 = ORIENTED_EDGE('', *, *, #105, .T.);
#120 = ORIENTED_EDGE('', *, *, #23, .T.);
#121 = ORIENTED_EDGE('', *, *, #57, .F.);
#122 = B_SPLINE_SURFACE_WITH_KNOTS('', 1, 1, ((#123, #124), (#125, #126)), .UNSPECIFIED., .F., .F., .U., (2, 2), (2, 2), (0., 10.), (0., 15.), .UNSPECIFIED.);
#123 = CARTESIAN_POINT('', (60., -5., -7.5));
#124 = CARTESIAN_POINT('', (60., -5., 7.5));
#125 = CARTESIAN_POINT('', (60., 5., -7.5));
#126 = CARTESIAN_POINT('', (60., 5., 7.5));
#127 = ADVANCED_FACE('', (#128), #134, .T.);
#128 = FACE_OUTER_BOUND('', #129, .T.);
#129 = EDGE_LOOP('', (#130, #131, #132, #133));
#130 = ORIENTED_EDGE('', *, *, #71, .T.);
#131 = ORIENTED_EDGE('', *, *, #43, .T.);
#132 = ORIENTED_EDGE('', *, *, #7, .F.);
#133 = ORIENTED_EDGE('', *, *, #99, .F.);
#134 = B_SPLINE_SURFACE_WITH_KNOTS('', 1, 1, ((#135, #136), (#137, #138)), .UNSPECIFIED., .F., .F., .U., (2, 2), (2, 2), (0., 15.), (0., 10.), .UNSPECIFIED.);
#135 = CARTESIAN_POINT('', (40., -5., -7.5));
#136 = CARTESIAN_POINT('', (40., 5., -7.5));
#137 = CARTESIAN_POINT('', (40., -5., 7.5));
#138 = CARTESIAN_POINT('', (40., 5., 7.5));
#139 = DRAUGHTING_MODEL('', (#147, #293, #439, #585, #731, #877, #961), #964);
#140 = PRESENTATION_STYLE_ASSIGNMENT((#141));
#141 = SURFACE_STYLE_USAGE(.POSITIVE., #142);
#142 = SURFACE_SIDE_STYLE('', (#143));
#143 = SURFACE_STYLE_FILL_AREA(#144);
#144 = FILL_AREA_STYLE('', (#145));
#145 = FILL_AREA_STYLE_COLOUR('', #146);
#146 = COLOUR_RGB('', 0.50196078431373, 0.50196078431373, 0.50196078431373);
#147 = STYLED_ITEM('', (#140), #1);
#148 = MANIFOLD_SOLID_BREP('EntityObjCopy', #149);
#149 = CLOSED_SHELL('', (#150, #186, #214, #242, #262, #274));
#150 = ADVANCED_FACE('', (#151), #181, .T.);
#151 = FACE_OUTER_BOUND('', #152, .T.);
#152 = EDGE_LOOP('', (#153, #162, #169, #176));
#153 = ORIENTED_EDGE('', *, *, #154, .T.);
#154 = EDGE_CURVE('', #155, #157, #159, .T.);
#155 = VERTEX_POINT('', #156);
#156 = CARTESIAN_POINT('', (40.6698729810778, 80.4422863405995, -7.5));
#157 = VERTEX_POINT('', #158);
#158 = CARTESIAN_POINT('', (40.6698729810778, 80.4422863405995, 7.5));
#159 = B_SPLINE_CURVE_WITH_KNOTS('', 1, (#160, #161), .UNSPECIFIED., .F., .U., (2, 2), (0., 15.), .UNSPECIFIED.);
#160 = CARTESIAN_POINT('', (40.6698729810778, 80.4422863405995, -7.5));
#161 = CARTESIAN_POINT('', (40.6698729810778, 80.4422863405995, 7.5));
#162 = ORIENTED_EDGE('', *, *, #163, .T.);
#163 = EDGE_CURVE('', #157, #164, #166, .T.);
#164 = VERTEX_POINT('', #165);
#165 = CARTESIAN_POINT('', (50.6698729810778, 97.7627944162882, 7.5));
#166 = B_SPLINE_CURVE_WITH_KNOTS('', 1, (#167, #168), .UNSPECIFIED., .F., .U., (2, 2), (0., 20.), .UNSPECIFIED.);
#167 = CARTESIAN_POINT('', (40.6698729810778, 80.4422863405995, 7.5));
#168 = CARTESIAN_POINT('', (50.6698729810778, 97.7627944162882, 7.5));
#169 = ORIENTED_EDGE('', *, *, #170, .F.);
#170 = EDGE_CURVE('', #171, #164, #173, .T.);
#171 = VERTEX_POINT('', #172);
#172 = CARTESIAN_POINT('', (50.6698729810778, 97.7627944162882, -7.5));
#173 = B_SPLINE_CURVE_WITH_KNOTS('', 1, (#174, #175), .UNSPECIFIED., .F., .U., (2, 2), (0., 15.), .UNSPECIFIED.);
#174 = CARTESIAN_POINT('', (50.6698729810778, 97.7627944162882, -7.5));
#175 = CARTESIAN_POINT('', (50.6698729810778, 97.7627944162882, 7.5));
#176 = ORIENTED_EDGE('', *, *, #177, .F.);
#177 = EDGE_CURVE('', #155, #171, #178, .T.);
#178 = B_SPLINE_CURVE_WITH_KNOTS('', 1, (#179, #180), .UNSPECIFIED., .F., .U., (2, 2), (0., 20.), .UNSPECIFIED.);
#179 = CARTESIAN_POINT('', (40.6698729810778, 80.4422863405995, -7.5));
#180 = CARTESIAN_POINT('', (50.6698729810778, 97.7627944162882, -7.5));
#181 = B_SPLINE_SURFACE_WITH_KNOTS('', 1, 1, ((#182, #183), (#184, #185)), .UNSPECIFIED., .F., .F., .U., (2, 2), (2, 2), (0., 15.), (0., 20.), .UNSPECIFIED.);
#182 = CARTESIAN_POINT('', (40.6698729810778, 80.4422863405995, -7.5));
#183 = CARTESIAN_POINT('', (50.6698729810778, 97.7627944162882, -7.5));
#184 = CARTESIAN_POINT('', (40.6698729810778, 80.4422863405995, 7.5));
#185 = CARTESIAN_POINT('', (50.6698729810778, 97.7627944162882, 7.5));
#186 = ADVANCED_FACE('', (#187), #209, .T.);
#187 = FACE_OUTER_BOUND('', #188, .T.);
#188 = EDGE_LOOP('', (#189, #196, #203, #208));
#189 = ORIENTED_EDGE('', *, *, #190, .F.);
#190 = EDGE_CURVE('', #191, #157, #193, .T.);
#191 = VERTEX_POINT('', #192);
#192 = CARTESIAN_POINT('', (49.3301270189222, 75.4422863405995, 7.5));
#193 = B_SPLINE_CURVE_WITH_KNOTS('', 1, (#194, #195), .UNSPECIFIED., .F., .U., (2, 2), (0., 10.), .UNSPECIFIED.);
#194 = CARTESIAN_POINT('', (49.3301270189222, 75.4422863405995, 7.5));
#195 = CARTESIAN_POINT('', (40.6698729810778, 80.4422863405995, 7.5));
#196 = ORIENTED_EDGE('', *, *, #197, .T.);
#197 = EDGE_CURVE('', #191, #198, #200, .T.);
#198 = VERTEX_POINT('', #199);
#199 = CARTESIAN_POINT('', (59.3301270189222, 92.7627944162882, 7.5));
#200 = B_SPLINE_CURVE_WITH_KNOTS('', 1, (#201, #202), .UNSPECIFIED., .F., .U., (2, 2), (0., 20.), .UNSPECIFIED.);
#201 = CARTESIAN_POINT('', (49.3301270189222, 75.4422863405995, 7.5));
#202 = CARTESIAN_POINT('', (59.3301270189222, 92.7627944162882, 7.5));
#203 = ORIENTED_EDGE('', *, *, #204, .T.);
#204 = EDGE_CURVE('', #198, #164, #205, .T.);
#205 = B_SPLINE_CURVE_WITH_KNOTS('', 1, (#206, #207), .UNSPECIFIED., .F., .U., (2, 2), (0., 10.), .UNSPECIFIED.);
#206 = CARTESIAN_POINT('', (59.3301270189222, 92.7627944162882, 7.5));
#207 = CARTESIAN_POINT('', (50.6698729810778, 97.7627944162882, 7.5));
#208 = ORIENTED_EDGE('', *, *, #163, .F.);
#209 = B_SPLINE_SURFACE_WITH_KNOTS('', 1, 1, ((#210, #211), (#212, #213)), .UNSPECIFIED., .F., .F., .U., (2, 2), (2, 2), (0., 20.), (0., 10.), .UNSPECIFIED.);
#210 = CARTESIAN_POINT('', (49.3301270189222, 75.4422863405995, 7.5));
#211 = CARTESIAN_POINT('', (40.6698729810778, 80.4422863405995, 7.5));
#212 = CARTESIAN_POINT('', (59.3301270189222, 92.7627944162882, 7.5));
#213 = CARTESIAN_POINT('', (50.6698729810778, 97.7627944162882, 7.5));
#214 = ADVANCED_FACE('', (#215), #237, .T.);
#215 = FACE_OUTER_BOUND('', #216, .T.);
#216 = EDGE_LOOP('', (#217, #224, #231, #236));
#217 = ORIENTED_EDGE('', *, *, #218, .F.);
#218 = EDGE_CURVE('', #219, #191, #221, .T.);
#219 = VERTEX_POINT('', #220);
#220 = CARTESIAN_POINT('', (49.3301270189222, 75.4422863405995, -7.5));
#221 = B_SPLINE_CURVE_WITH_KNOTS('', 1, (#222, #223), .UNSPECIFIED., .F., .U., (2, 2), (0., 15.), .UNSPECIFIED.);
#222 = CARTESIAN_POINT('', (49.3301270189222, 75.4422863405995, -7.5));
#223 = CARTESIAN_POINT('', (49.3301270189222, 75.4422863405995, 7.5));
#224 = ORIENTED_EDGE('', *, *, #225, .T.);
#225 = EDGE_CURVE('', #219, #226, #228, .T.);
#226 = VERTEX_POINT('', #227);
#227 = CARTESIAN_POINT('', (59.3301270189222, 92.7627944162882, -7.5));
#228 = B_SPLINE_CURVE_WITH_KNOTS('', 1, (#229, #230), .UNSPECIFIED., .F., .U., (2, 2), (0., 20.), .UNSPECIFIED.);
#229 = CARTESIAN_POINT('', (49.3301270189222, 75.4422863405995, -7.5));
#230 = CARTESIAN_POINT('', (59.3301270189222, 92.7627944162882, -7.5));
#231 = ORIENTED_EDGE('', *, *, #232, .T.);
#232 = EDGE_CURVE('', #226, #198, #233, .T.);
#233 = B_SPLINE_CURVE_WITH_KNOTS('', 1, (#234, #235), .UNSPECIFIED., .F., .U., (2, 2), (0., 15.), .UNSPECIFIED.);
#234 = CARTESIAN_POINT('', (59.3301270189222, 92.7627944162882, -7.5));
#235 = CARTESIAN_POINT('', (59.3301270189222, 92.7627944162882, 7.5));
#236 = ORIENTED_EDGE('', *, *, #197, .F.);
#237 = B_SPLINE_SURFACE_WITH_KNOTS('', 1, 1, ((#238, #239), (#240, #241)), .UNSPECIFIED., .F., .F., .U., (2, 2), (2, 2), (0., 20.), (0., 15.), .UNSPECIFIED.);
#238 = CARTESIAN_POINT('', (49.3301270189222, 75.4422863405995, -7.5));
#239 = CARTESIAN_POINT('', (49.3301270189222, 75.4422863405995, 7.5));
#240 = CARTESIAN_POINT('', (59.3301270189222, 92.7627944162882, -7.5));
#241 = CARTESIAN_POINT('', (59.3301270189222, 92.7627944162882, 7.5));
#242 = ADVANCED_FACE('', (#243), #257, .T.);
#243 = FACE_OUTER_BOUND('', #244, .T.);
#244 = EDGE_LOOP('', (#245, #250, #251, #256));
#245 = ORIENTED_EDGE('', *, *, #246, .T.);
#246 = EDGE_CURVE('', #219, #155, #247, .T.);
#247 = B_SPLINE_CURVE_WITH_KNOTS('', 1, (#248, #249), .UNSPECIFIED., .F., .U., (2, 2), (0., 10.), .UNSPECIFIED.);
#248 = CARTESIAN_POINT('', (49.3301270189222, 75.4422863405995, -7.5));
#249 = CARTESIAN_POINT('', (40.6698729810778, 80.4422863405995, -7.5));
#250 = ORIENTED_EDGE('', *, *, #177, .T.);
#251 = ORIENTED_EDGE('', *, *, #252, .F.);
#252 = EDGE_CURVE('', #226, #171, #253, .T.);
#253 = B_SPLINE_CURVE_WITH_KNOTS('', 1, (#254, #255), .UNSPECIFIED., .F., .U., (2, 2), (0., 10.), .UNSPECIFIED.);
#254 = CARTESIAN_POINT('', (59.3301270189222, 92.7627944162882, -7.5));
#255 = CARTESIAN_POINT('', (50.6698729810778, 97.7627944162882, -7.5));
#256 = ORIENTED_EDGE('', *, *, #225, .F.);
#257 = B_SPLINE_SURFACE_WITH_KNOTS('', 1, 1, ((#258, #259), (#260, #261)), .UNSPECIFIED., .F., .F., .U., (2, 2), (2, 2), (0., 10.), (0., 20.), .UNSPECIFIED.);
#258 = CARTESIAN_POINT('', (49.3301270189222, 75.4422863405995, -7.5));
#259 = CARTESIAN_POINT('', (59.3301270189222, 92.7627944162882, -7.5));
#260 = CARTESIAN_POINT('', (40.6698729810778, 80.4422863405995, -7.5));
#261 = CARTESIAN_POINT('', (50.6698729810778, 97.7627944162882, -7.5));
#262 = ADVANCED_FACE('', (#263), #269, .T.);
#263 = FACE_OUTER_BOUND('', #264, .T.);
#264 = EDGE_LOOP('', (#265, #266, #267, #268));
#265 = ORIENTED_EDGE('', *, *, #232, .F.);
#266 = ORIENTED_EDGE('', *, *, #252, .T.);
#267 = ORIENTED_EDGE('', *, *, #170, .T.);
#268 = ORIENTED_EDGE('', *, *, #204, .F.);
#269 = B_SPLINE_SURFACE_WITH_KNOTS('', 1, 1, ((#270, #271), (#272, #273)), .UNSPECIFIED., .F., .F., .U., (2, 2), (2, 2), (0., 10.), (0., 15.), .UNSPECIFIED.);
#270 = CARTESIAN_POINT('', (59.3301270189222, 92.7627944162882, -7.5));
#271 = CARTESIAN_POINT('', (59.3301270189222, 92.7627944162882, 7.5));
#272 = CARTESIAN_POINT('', (50.6698729810778, 97.7627944162882, -7.5));
#273 = CARTESIAN_POINT('', (50.6698729810778, 97.7627944162882, 7.5));
#274 = ADVANCED_FACE('', (#275), #281, .T.);
#275 = FACE_OUTER_BOUND('', #276, .T.);
#276 = EDGE_LOOP('', (#277, #278, #279, #280));
#277 = ORIENTED_EDGE('', *, *, #218, .T.);
#278 = ORIENTED_EDGE('', *, *, #190, .T.);
#279 = ORIENTED_EDGE('', *, *, #154, .F.);
#280 = ORIENTED_EDGE('', *, *, #246, .F.);
#281 = B_SPLINE_SURFACE_WITH_KNOTS('', 1, 1, ((#282, #283), (#284, #285)), .UNSPECIFIED., .F., .F., .U., (2, 2), (2, 2), (0., 15.), (0., 10.), .UNSPECIFIED.);
#282 = CARTESIAN_POINT('', (49.3301270189222, 75.4422863405995, -7.5));
#283 = CARTESIAN_POINT('', (40.6698729810778, 80.4422863405995, -7.5));
#284 = CARTESIAN_POINT('', (49.3301270189222, 75.4422863405995, 7.5));
#285 = CARTESIAN_POINT('', (40.6698729810778, 80.4422863405995, 7.5));
#286 = PRESENTATION_STYLE_ASSIGNMENT((#287));
#287 = SURFACE_STYLE_USAGE(.POSITIVE., #288);
#288 = SURFACE_SIDE_STYLE('', (#289));
#289 = SURFACE_STYLE_FILL_AREA(#290);
#290 = FILL_AREA_STYLE('', (#291));
#291 = FILL_AREA_STYLE_COLOUR('', #292);
#292 = COLOUR_RGB('', 0.50196078431373, 0.50196078431373, 0.50196078431373);
#293 = STYLED_ITEM('', (#286), #148);
#294 = MANIFOLD_SOLID_BREP('EntityObjCopy0', #295);
#295 = CLOSED_SHELL('', (#296, #332, #360, #388, #408, #420));
#296 = ADVANCED_FACE('', (#297), #327, .T.);
#297 = FACE_OUTER_BOUND('', #298, .T.);
#298 = EDGE_LOOP('', (#299, #308, #315, #322));
#299 = ORIENTED_EDGE('', *, *, #300, .T.);
#300 = EDGE_CURVE('', #301, #303, #305, .T.);
#301 = VERTEX_POINT('', #302);
#302 = CARTESIAN_POINT('', (-49.3301270189222, 75.4422863405995, -7.5));
#303 = VERTEX_POINT('', #304);
#304 = CARTESIAN_POINT('', (-49.3301270189222, 75.4422863405995, 7.5));
#305 = B_SPLINE_CURVE_WITH_KNOTS('', 1, (#306, #307), .UNSPECIFIED., .F., .U., (2, 2), (0., 15.), .UNSPECIFIED.);
#306 = CARTESIAN_POINT('', (-49.3301270189222, 75.4422863405995, -7.5));
#307 = CARTESIAN_POINT('', (-49.3301270189222, 75.4422863405995, 7.5));
#308 = ORIENTED_EDGE('', *, *, #309, .T.);
#309 = EDGE_CURVE('', #303, #310, #312, .T.);
#310 = VERTEX_POINT('', #311);
#311 = CARTESIAN_POINT('', (-59.3301270189222, 92.7627944162883, 7.5));
#312 = B_SPLINE_CURVE_WITH_KNOTS('', 1, (#313, #314), .UNSPECIFIED., .F., .U., (2, 2), (0., 20.), .UNSPECIFIED.);
#313 = CARTESIAN_POINT('', (-49.3301270189222, 75.4422863405995, 7.5));
#314 = CARTESIAN_POINT('', (-59.3301270189222, 92.7627944162883, 7.5));
#315 = ORIENTED_EDGE('', *, *, #316, .F.);
#316 = EDGE_CURVE('', #317, #310, #319, .T.);
#317 = VERTEX_POINT('', #318);
#318 = CARTESIAN_POINT('', (-59.3301270189222, 92.7627944162883, -7.5));
#319 = B_SPLINE_CURVE_WITH_KNOTS('', 1, (#320, #321), .UNSPECIFIED., .F., .U., (2, 2), (0., 15.), .UNSPECIFIED.);
#320 = CARTESIAN_POINT('', (-59.3301270189222, 92.7627944162883, -7.5));
#321 = CARTESIAN_POINT('', (-59.3301270189222, 92.7627944162883, 7.5));
#322 = ORIENTED_EDGE('', *, *, #323, .F.);
#323 = EDGE_CURVE('', #301, #317, #324, .T.);
#324 = B_SPLINE_CURVE_WITH_KNOTS('', 1, (#325, #326), .UNSPECIFIED., .F., .U., (2, 2), (0., 20.), .UNSPECIFIED.);
#325 = CARTESIAN_POINT('', (-49.3301270189222, 75.4422863405995, -7.5));
#326 = CARTESIAN_POINT('', (-59.3301270189222, 92.7627944162883, -7.5));
#327 = B_SPLINE_SURFACE_WITH_KNOTS('', 1, 1, ((#328, #329), (#330, #331)), .UNSPECIFIED., .F., .F., .U., (2, 2), (2, 2), (0., 15.), (0., 20.), .UNSPECIFIED.);
#328 = CARTESIAN_POINT('', (-49.3301270189222, 75.4422863405995, -7.5));
#329 = CARTESIAN_POINT('', (-59.3301270189222, 92.7627944162883, -7.5));
#330 = CARTESIAN_POINT('', (-49.3301270189222, 75.4422863405995, 7.5));
#331 = CARTESIAN_POINT('', (-59.3301270189222, 92.7627944162883, 7.5));
#332 = ADVANCED_FACE('', (#333), #355, .T.);
#333 = FACE_OUTER_BOUND('', #334, .T.);
#334 = EDGE_LOOP('', (#335, #342, #349, #354));
#335 = ORIENTED_EDGE('', *, *, #336, .F.);
#336 = EDGE_CURVE('', #337, #303, #339, .T.);
#337 = VERTEX_POINT('', #338);
#338 = CARTESIAN_POINT('', (-40.6698729810778, 80.4422863405995, 7.5));
#339 = B_SPLINE_CURVE_WITH_KNOTS('', 1, (#340, #341), .UNSPECIFIED., .F., .U., (2, 2), (0., 10.), .UNSPECIFIED.);
#340 = CARTESIAN_POINT('', (-40.6698729810778, 80.4422863405995, 7.5));
#341 = CARTESIAN_POINT('', (-49.3301270189222, 75.4422863405995, 7.5));
#342 = ORIENTED_EDGE('', *, *, #343, .T.);
#343 = EDGE_CURVE('', #337, #344, #346, .T.);
#344 = VERTEX_POINT('', #345);
#345 = CARTESIAN_POINT('', (-50.6698729810778, 97.7627944162883, 7.5));
#346 = B_SPLINE_CURVE_WITH_KNOTS('', 1, (#347, #348), .UNSPECIFIED., .F., .U., (2, 2), (0., 20.), .UNSPECIFIED.);
#347 = CARTESIAN_POINT('', (-40.6698729810778, 80.4422863405995, 7.5));
#348 = CARTESIAN_POINT('', (-50.6698729810778, 97.7627944162883, 7.5));
#349 = ORIENTED_EDGE('', *, *, #350, .T.);
#350 = EDGE_CURVE('', #344, #310, #351, .T.);
#351 = B_SPLINE_CURVE_WITH_KNOTS('', 1, (#352, #353), .UNSPECIFIED., .F., .U., (2, 2), (0., 10.), .UNSPECIFIED.);
#352 = CARTESIAN_POINT('', (-50.6698729810778, 97.7627944162883, 7.5));
#353 = CARTESIAN_POINT('', (-59.3301270189222, 92.7627944162883, 7.5));
#354 = ORIENTED_EDGE('', *, *, #309, .F.);
#355 = B_SPLINE_SURFACE_WITH_KNOTS('', 1, 1, ((#356, #357), (#358, #359)), .UNSPECIFIED., .F., .F., .U., (2, 2), (2, 2), (0., 20.), (0., 10.), .UNSPECIFIED.);
#356 = CARTESIAN_POINT('', (-40.6698729810778, 80.4422863405995, 7.5));
#357 = CARTESIAN_POINT('', (-49.3301270189222, 75.4422863405995, 7.5));
#358 = CARTESIAN_POINT('', (-50.6698729810778, 97.7627944162883, 7.5));
#359 = CARTESIAN_POINT('', (-59.3301270189222, 92.7627944162883, 7.5));
#360 = ADVANCED_FACE('', (#361), #383, .T.);
#361 = FACE_OUTER_BOUND('', #362, .T.);
#362 = EDGE_LOOP('', (#363, #370, #377, #382));
#363 = ORIENTED_EDGE('', *, *, #364, .F.);
#364 = EDGE_CURVE('', #365, #337, #367, .T.);
#365 = VERTEX_POINT('', #366);
#366 = CARTESIAN_POINT('', (-40.6698729810778, 80.4422863405995, -7.5));
#367 = B_SPLINE_CURVE_WITH_KNOTS('', 1, (#368, #369), .UNSPECIFIED., .F., .U., (2, 2), (0., 15.), .UNSPECIFIED.);
#368 = CARTESIAN_POINT('', (-40.6698729810778, 80.4422863405995, -7.5));
#369 = CARTESIAN_POINT('', (-40.6698729810778, 80.4422863405995, 7.5));
#370 = ORIENTED_EDGE('', *, *, #371, .T.);
#371 = EDGE_CURVE('', #365, #372, #374, .T.);
#372 = VERTEX_POINT('', #373);
#373 = CARTESIAN_POINT('', (-50.6698729810778, 97.7627944162883, -7.5));
#374 = B_SPLINE_CURVE_WITH_KNOTS('', 1, (#375, #376), .UNSPECIFIED., .F., .U., (2, 2), (0., 20.), .UNSPECIFIED.);
#375 = CARTESIAN_POINT('', (-40.6698729810778, 80.4422863405995, -7.5));
#376 = CARTESIAN_POINT('', (-50.6698729810778, 97.7627944162883, -7.5));
#377 = ORIENTED_EDGE('', *, *, #378, .T.);
#378 = EDGE_CURVE('', #372, #344, #379, .T.);
#379 = B_SPLINE_CURVE_WITH_KNOTS('', 1, (#380, #381), .UNSPECIFIED., .F., .U., (2, 2), (0., 15.), .UNSPECIFIED.);
#380 = CARTESIAN_POINT('', (-50.6698729810778, 97.7627944162883, -7.5));
#381 = CARTESIAN_POINT('', (-50.6698729810778, 97.7627944162883, 7.5));
#382 = ORIENTED_EDGE('', *, *, #343, .F.);
#383 = B_SPLINE_SURFACE_WITH_KNOTS('', 1, 1, ((#384, #385), (#386, #387)), .UNSPECIFIED., .F., .F., .U., (2, 2), (2, 2), (0., 20.), (0., 15.), .UNSPECIFIED.);
#384 = CARTESIAN_POINT('', (-40.6698729810778, 80.4422863405995, -7.5));
#385 = CARTESIAN_POINT('', (-40.6698729810778, 80.4422863405995, 7.5));
#386 = CARTESIAN_POINT('', (-50.6698729810778, 97.7627944162883, -7.5));
#387 = CARTESIAN_POINT('', (-50.6698729810778, 97.7627944162883, 7.5));
#388 = ADVANCED_FACE('', (#389), #403, .T.);
#389 = FACE_OUTER_BOUND('', #390, .T.);
#390 = EDGE_LOOP('', (#391, #396, #397, #402));
#391 = ORIENTED_EDGE('', *, *, #392, .T.);
#392 = EDGE_CURVE('', #365, #301, #393, .T.);
#393 = B_SPLINE_CURVE_WITH_KNOTS('', 1, (#394, #395), .UNSPECIFIED., .F., .U., (2, 2), (0., 10.), .UNSPECIFIED.);
#394 = CARTESIAN_POINT('', (-40.6698729810778, 80.4422863405995, -7.5));
#395 = CARTESIAN_POINT('', (-49.3301270189222, 75.4422863405995, -7.5));
#396 = ORIENTED_EDGE('', *, *, #323, .T.);
#397 = ORIENTED_EDGE('', *, *, #398, .F.);
#398 = EDGE_CURVE('', #372, #317, #399, .T.);
#399 = B_SPLINE_CURVE_WITH_KNOTS('', 1, (#400, #401), .UNSPECIFIED., .F., .U., (2, 2), (0., 10.), .UNSPECIFIED.);
#400 = CARTESIAN_POINT('', (-50.6698729810778, 97.7627944162883, -7.5));
#401 = CARTESIAN_POINT('', (-59.3301270189222, 92.7627944162883, -7.5));
#402 = ORIENTED_EDGE('', *, *, #371, .F.);
#403 = B_SPLINE_SURFACE_WITH_KNOTS('', 1, 1, ((#404, #405), (#406, #407)), .UNSPECIFIED., .F., .F., .U., (2, 2), (2, 2), (0., 10.), (0., 20.), .UNSPECIFIED.);
#404 = CARTESIAN_POINT('', (-40.6698729810778, 80.4422863405995, -7.5));
#405 = CARTESIAN_POINT('', (-50.6698729810778, 97.7627944162883, -7.5));
#406 = CARTESIAN_POINT('', (-49.3301270189222, 75.4422863405995, -7.5));
#407 = CARTESIAN_POINT('', (-59.3301270189222, 92.7627944162883, -7.5));
#408 = ADVANCED_FACE('', (#409), #415, .T.);
#409 = FACE_OUTER_BOUND('', #410, .T.);
#410 = EDGE_LOOP('', (#411, #412, #413, #414));
#411 = ORIENTED_EDGE('', *, *, #378, .F.);
#412 = ORIENTED_EDGE('', *, *, #398, .T.);
#413 = ORIENTED_EDGE('', *, *, #316, .T.);
#414 = ORIENTED_EDGE('', *, *, #350, .F.);
#415 = B_SPLINE_SURFACE_WITH_KNOTS('', 1, 1, ((#416, #417), (#418, #419)), .UNSPECIFIED., .F., .F., .U., (2, 2), (2, 2), (0., 10.), (0., 15.), .UNSPECIFIED.);
#416 = CARTESIAN_POINT('', (-50.6698729810778, 97.7627944162883, -7.5));
#417 = CARTESIAN_POINT('', (-50.6698729810778, 97.7627944162883, 7.5));
#418 = CARTESIAN_POINT('', (-59.3301270189222, 92.7627944162883, -7.5));
#419 = CARTESIAN_POINT('', (-59.3301270189222, 92.7627944162883, 7.5));
#420 = ADVANCED_FACE('', (#421), #427, .T.);
#421 = FACE_OUTER_BOUND('', #422, .T.);
#422 = EDGE_LOOP('', (#423, #424, #425, #426));
#423 = ORIENTED_EDGE('', *, *, #364, .T.);
#424 = ORIENTED_EDGE('', *, *, #336, .T.);
#425 = ORIENTED_EDGE('', *, *, #300, .F.);
#426 = ORIENTED_EDGE('', *, *, #392, .F.);
#427 = B_SPLINE_SURFACE_WITH_KNOTS('', 1, 1, ((#428, #429), (#430, #431)), .UNSPECIFIED., .F., .F., .U., (2, 2), (2, 2), (0., 15.), (0., 10.), .UNSPECIFIED.);
#428 = CARTESIAN_POINT('', (-40.6698729810778, 80.4422863405995, -7.5));
#429 = CARTESIAN_POINT('', (-49.3301270189222, 75.4422863405995, -7.5));
#430 = CARTESIAN_POINT('', (-40.6698729810778, 80.4422863405995, 7.5));
#431 = CARTESIAN_POINT('', (-49.3301270189222, 75.4422863405995, 7.5));
#432 = PRESENTATION_STYLE_ASSIGNMENT((#433));
#433 = SURFACE_STYLE_USAGE(.POSITIVE., #434);
#434 = SURFACE_SIDE_STYLE('', (#435));
#435 = SURFACE_STYLE_FILL_AREA(#436);
#436 = FILL_AREA_STYLE('', (#437));
#437 = FILL_AREA_STYLE_COLOUR('', #438);
#438 = COLOUR_RGB('', 0.50196078431373, 0.50196078431373, 0.50196078431373);
#439 = STYLED_ITEM('', (#432), #294);
#440 = MANIFOLD_SOLID_BREP('EntityObjCopy1', #441);
#441 = CLOSED_SHELL('', (#442, #478, #506, #534, #554, #566));
#442 = ADVANCED_FACE('', (#443), #473, .T.);
#443 = FACE_OUTER_BOUND('', #444, .T.);
#444 = EDGE_LOOP('', (#445, #454, #461, #468));
#445 = ORIENTED_EDGE('', *, *, #446, .T.);
#446 = EDGE_CURVE('', #447, #449, #451, .T.);
#447 = VERTEX_POINT('', #448);
#448 = CARTESIAN_POINT('', (-90., -4.99999999999999, -7.5));
#449 = VERTEX_POINT('', #450);
#450 = CARTESIAN_POINT('', (-90., -4.99999999999999, 7.5));
#451 = B_SPLINE_CURVE_WITH_KNOTS('', 1, (#452, #453), .UNSPECIFIED., .F., .U., (2, 2), (0., 15.), .UNSPECIFIED.);
#452 = CARTESIAN_POINT('', (-90., -4.99999999999999, -7.5));
#453 = CARTESIAN_POINT('', (-90., -4.99999999999999, 7.5));
#454 = ORIENTED_EDGE('', *, *, #455, .T.);
#455 = EDGE_CURVE('', #449, #456, #458, .T.);
#456 = VERTEX_POINT('', #457);
#457 = CARTESIAN_POINT('', (-110., -4.99999999999999, 7.5));
#458 = B_SPLINE_CURVE_WITH_KNOTS('', 1, (#459, #460), .UNSPECIFIED., .F., .U., (2, 2), (0., 20.), .UNSPECIFIED.);
#459 = CARTESIAN_POINT('', (-90., -4.99999999999999, 7.5));
#460 = CARTESIAN_POINT('', (-110., -4.99999999999999, 7.5));
#461 = ORIENTED_EDGE('', *, *, #462, .F.);
#462 = EDGE_CURVE('', #463, #456, #465, .T.);
#463 = VERTEX_POINT('', #464);
#464 = CARTESIAN_POINT('', (-110., -4.99999999999999, -7.5));
#465 = B_SPLINE_CURVE_WITH_KNOTS('', 1, (#466, #467), .UNSPECIFIED., .F., .U., (2, 2), (0., 15.), .UNSPECIFIED.);
#466 = CARTESIAN_POINT('', (-110., -4.99999999999999, -7.5));
#467 = CARTESIAN_POINT('', (-110., -4.99999999999999, 7.5));
#468 = ORIENTED_EDGE('', *, *, #469, .F.);
#469 = EDGE_CURVE('', #447, #463, #470, .T.);
#470 = B_SPLINE_CURVE_WITH_KNOTS('', 1, (#471, #472), .UNSPECIFIED., .F., .U., (2, 2), (0., 20.), .UNSPECIFIED.);
#471 = CARTESIAN_POINT('', (-90., -4.99999999999999, -7.5));
#472 = CARTESIAN_POINT('', (-110., -4.99999999999999, -7.5));
#473 = B_SPLINE_SURFACE_WITH_KNOTS('', 1, 1, ((#474, #475), (#476, #477)), .UNSPECIFIED., .F., .F., .U., (2, 2), (2, 2), (0., 15.), (0., 20.), .UNSPECIFIED.);
#474 = CARTESIAN_POINT('', (-90., -4.99999999999999, -7.5));
#475 = CARTESIAN_POINT('', (-110., -4.99999999999999, -7.5));
#476 = CARTESIAN_POINT('', (-90., -4.99999999999999, 7.5));
#477 = CARTESIAN_POINT('', (-110., -4.99999999999999, 7.5));
#478 = ADVANCED_FACE('', (#479), #501, .T.);
#479 = FACE_OUTER_BOUND('', #480, .T.);
#480 = EDGE_LOOP('', (#481, #488, #495, #500));
#481 = ORIENTED_EDGE('', *, *, #482, .F.);
#482 = EDGE_CURVE('', #483, #449, #485, .T.);
#483 = VERTEX_POINT('', #484);
#484 = CARTESIAN_POINT('', (-90., 5.00000000000001, 7.5));
#485 = B_SPLINE_CURVE_WITH_KNOTS('', 1, (#486, #487), .UNSPECIFIED., .F., .U., (2, 2), (0., 10.), .UNSPECIFIED.);
#486 = CARTESIAN_POINT('', (-90., 5.00000000000001, 7.5));
#487 = CARTESIAN_POINT('', (-90., -4.99999999999999, 7.5));
#488 = ORIENTED_EDGE('', *, *, #489, .T.);
#489 = EDGE_CURVE('', #483, #490, #492, .T.);
#490 = VERTEX_POINT('', #491);
#491 = CARTESIAN_POINT('', (-110., 5.00000000000001, 7.5));
#492 = B_SPLINE_CURVE_WITH_KNOTS('', 1, (#493, #494), .UNSPECIFIED., .F., .U., (2, 2), (0., 20.), .UNSPECIFIED.);
#493 = CARTESIAN_POINT('', (-90., 5.00000000000001, 7.5));
#494 = CARTESIAN_POINT('', (-110., 5.00000000000001, 7.5));
#495 = ORIENTED_EDGE('', *, *, #496, .T.);
#496 = EDGE_CURVE('', #490, #456, #497, .T.);
#497 = B_SPLINE_CURVE_WITH_KNOTS('', 1, (#498, #499), .UNSPECIFIED., .F., .U., (2, 2), (0., 10.), .UNSPECIFIED.);
#498 = CARTESIAN_POINT('', (-110., 5.00000000000001, 7.5));
#499 = CARTESIAN_POINT('', (-110., -4.99999999999999, 7.5));
#500 = ORIENTED_EDGE('', *, *, #455, .F.);
#501 = B_SPLINE_SURFACE_WITH_KNOTS('', 1, 1, ((#502, #503), (#504, #505)), .UNSPECIFIED., .F., .F., .U., (2, 2), (2, 2), (0., 20.), (0., 10.), .UNSPECIFIED.);
#502 = CARTESIAN_POINT('', (-90., 5.00000000000001, 7.5));
#503 = CARTESIAN_POINT('', (-90., -4.99999999999999, 7.5));
#504 = CARTESIAN_POINT('', (-110., 5.00000000000001, 7.5));
#505 = CARTESIAN_POINT('', (-110., -4.99999999999999, 7.5));
#506 = ADVANCED_FACE('', (#507), #529, .T.);
#507 = FACE_OUTER_BOUND('', #508, .T.);
#508 = EDGE_LOOP('', (#509, #516, #523, #528));
#509 = ORIENTED_EDGE('', *, *, #510, .F.);
#510 = EDGE_CURVE('', #511, #483, #513, .T.);
#511 = VERTEX_POINT('', #512);
#512 = CARTESIAN_POINT('', (-90., 5.00000000000001, -7.5));
#513 = B_SPLINE_CURVE_WITH_KNOTS('', 1, (#514, #515), .UNSPECIFIED., .F., .U., (2, 2), (0., 15.), .UNSPECIFIED.);
#514 = CARTESIAN_POINT('', (-90., 5.00000000000001, -7.5));
#515 = CARTESIAN_POINT('', (-90., 5.00000000000001, 7.5));
#516 = ORIENTED_EDGE('', *, *, #517, .T.);
#517 = EDGE_CURVE('', #511, #518, #520, .T.);
#518 = VERTEX_POINT('', #519);
#519 = CARTESIAN_POINT('', (-110., 5.00000000000001, -7.5));
#520 = B_SPLINE_CURVE_WITH_KNOTS('', 1, (#521, #522), .UNSPECIFIED., .F., .U., (2, 2), (0., 20.), .UNSPECIFIED.);
#521 = CARTESIAN_POINT('', (-90., 5.00000000000001, -7.5));
#522 = CARTESIAN_POINT('', (-110., 5.00000000000001, -7.5));
#523 = ORIENTED_EDGE('', *, *, #524, .T.);
#524 = EDGE_CURVE('', #518, #490, #525, .T.);
#525 = B_SPLINE_CURVE_WITH_KNOTS('', 1, (#526, #527), .UNSPECIFIED., .F., .U., (2, 2), (0., 15.), .UNSPECIFIED.);
#526 = CARTESIAN_POINT('', (-110., 5.00000000000001, -7.5));
#527 = CARTESIAN_POINT('', (-110., 5.00000000000001, 7.5));
#528 = ORIENTED_EDGE('', *, *, #489, .F.);
#529 = B_SPLINE_SURFACE_WITH_KNOTS('', 1, 1, ((#530, #531), (#532, #533)), .UNSPECIFIED., .F., .F., .U., (2, 2), (2, 2), (0., 20.), (0., 15.), .UNSPECIFIED.);
#530 = CARTESIAN_POINT('', (-90., 5.00000000000001, -7.5));
#531 = CARTESIAN_POINT('', (-90., 5.00000000000001, 7.5));
#532 = CARTESIAN_POINT('', (-110., 5.00000000000001, -7.5));
#533 = CARTESIAN_POINT('', (-110., 5.00000000000001, 7.5));
#534 = ADVANCED_FACE('', (#535), #549, .T.);
#535 = FACE_OUTER_BOUND('', #536, .T.);
#536 = EDGE_LOOP('', (#537, #542, #543, #548));
#537 = ORIENTED_EDGE('', *, *, #538, .T.);
#538 = EDGE_CURVE('', #511, #447, #539, .T.);
#539 = B_SPLINE_CURVE_WITH_KNOTS('', 1, (#540, #541), .UNSPECIFIED., .F., .U., (2, 2), (0., 10.), .UNSPECIFIED.);
#540 = CARTESIAN_POINT('', (-90., 5.00000000000001, -7.5));
#541 = CARTESIAN_POINT('', (-90., -4.99999999999999, -7.5));
#542 = ORIENTED_EDGE('', *, *, #469, .T.);
#543 = ORIENTED_EDGE('', *, *, #544, .F.);
#544 = EDGE_CURVE('', #518, #463, #545, .T.);
#545 = B_SPLINE_CURVE_WITH_KNOTS('', 1, (#546, #547), .UNSPECIFIED., .F., .U., (2, 2), (0., 10.), .UNSPECIFIED.);
#546 = CARTESIAN_POINT('', (-110., 5.00000000000001, -7.5));
#547 = CARTESIAN_POINT('', (-110., -4.99999999999999, -7.5));
#548 = ORIENTED_EDGE('', *, *, #517, .F.);
#549 = B_SPLINE_SURFACE_WITH_KNOTS('', 1, 1, ((#550, #551), (#552, #553)), .UNSPECIFIED., .F., .F., .U., (2, 2), (2, 2), (0., 10.), (0., 20.), .UNSPECIFIED.);
#550 = CARTESIAN_POINT('', (-90., 5.00000000000001, -7.5));
#551 = CARTESIAN_POINT('', (-110., 5.00000000000001, -7.5));
#552 = CARTESIAN_POINT('', (-90., -4.99999999999999, -7.5));
#553 = CARTESIAN_POINT('', (-110., -4.99999999999999, -7.5));
#554 = ADVANCED_FACE('', (#555), #561, .T.);
#555 = FACE_OUTER_BOUND('', #556, .T.);
#556 = EDGE_LOOP('', (#557, #558, #559, #560));
#557 = ORIENTED_EDGE('', *, *, #524, .F.);
#558 = ORIENTED_EDGE('', *, *, #544, .T.);
#559 = ORIENTED_EDGE('', *, *, #462, .T.);
#560 = ORIENTED_EDGE('', *, *, #496, .F.);
#561 = B_SPLINE_SURFACE_WITH_KNOTS('', 1, 1, ((#562, #563), (#564, #565)), .UNSPECIFIED., .F., .F., .U., (2, 2), (2, 2), (0., 10.), (0., 15.), .UNSPECIFIED.);
#562 = CARTESIAN_POINT('', (-110., 5.00000000000001, -7.5));
#563 = CARTESIAN_POINT('', (-110., 5.00000000000001, 7.5));
#564 = CARTESIAN_POINT('', (-110., -4.99999999999999, -7.5));
#565 = CARTESIAN_POINT('', (-110., -4.99999999999999, 7.5));
#566 = ADVANCED_FACE('', (#567), #573, .T.);
#567 = FACE_OUTER_BOUND('', #568, .T.);
#568 = EDGE_LOOP('', (#569, #570, #571, #572));
#569 = ORIENTED_EDGE('', *, *, #510, .T.);
#570 = ORIENTED_EDGE('', *, *, #482, .T.);
#571 = ORIENTED_EDGE('', *, *, #446, .F.);
#572 = ORIENTED_EDGE('', *, *, #538, .F.);
#573 = B_SPLINE_SURFACE_WITH_KNOTS('', 1, 1, ((#574, #575), (#576, #577)), .UNSPECIFIED., .F., .F., .U., (2, 2), (2, 2), (0., 15.), (0., 10.), .UNSPECIFIED.);
#574 = CARTESIAN_POINT('', (-90., 5.00000000000001, -7.5));
#575 = CARTESIAN_POINT('', (-90., -4.99999999999999, -7.5));
#576 = CARTESIAN_POINT('', (-90., 5.00000000000001, 7.5));
#577 = CARTESIAN_POINT('', (-90., -4.99999999999999, 7.5));
#578 = PRESENTATION_STYLE_ASSIGNMENT((#579));
#579 = SURFACE_STYLE_USAGE(.POSITIVE., #580);
#580 = SURFACE_SIDE_STYLE('', (#581));
#581 = SURFACE_STYLE_FILL_AREA(#582);
#582 = FILL_AREA_STYLE('', (#583));
#583 = FILL_AREA_STYLE_COLOUR('', #584);
#584 = COLOUR_RGB('', 0.50196078431373, 0.50196078431373, 0.50196078431373);
#585 = STYLED_ITEM('', (#578), #440);
#586 = MANIFOLD_SOLID_BREP('EntityObjCopy2', #587);
#587 = CLOSED_SHELL('', (#588, #624, #652, #680, #700, #712));
#588 = ADVANCED_FACE('', (#589), #619, .T.);
#589 = FACE_OUTER_BOUND('', #590, .T.);
#590 = EDGE_LOOP('', (#591, #600, #607, #614));
#591 = ORIENTED_EDGE('', *, *, #592, .T.);
#592 = EDGE_CURVE('', #593, #595, #597, .T.);
#593 = VERTEX_POINT('', #594);
#594 = CARTESIAN_POINT('', (-40.6698729810779, -80.4422863405995, -7.5));
#595 = VERTEX_POINT('', #596);
#596 = CARTESIAN_POINT('', (-40.6698729810779, -80.4422863405995, 7.5));
#597 = B_SPLINE_CURVE_WITH_KNOTS('', 1, (#598, #599), .UNSPECIFIED., .F., .U., (2, 2), (0., 15.), .UNSPECIFIED.);
#598 = CARTESIAN_POINT('', (-40.6698729810778, -80.4422863405995, -7.5));
#599 = CARTESIAN_POINT('', (-40.6698729810778, -80.4422863405995, 7.5));
#600 = ORIENTED_EDGE('', *, *, #601, .T.);
#601 = EDGE_CURVE('', #595, #602, #604, .T.);
#602 = VERTEX_POINT('', #603);
#603 = CARTESIAN_POINT('', (-50.6698729810779, -97.7627944162882, 7.5));
#604 = B_SPLINE_CURVE_WITH_KNOTS('', 1, (#605, #606), .UNSPECIFIED., .F., .U., (2, 2), (0., 20.), .UNSPECIFIED.);
#605 = CARTESIAN_POINT('', (-40.6698729810778, -80.4422863405995, 7.5));
#606 = CARTESIAN_POINT('', (-50.6698729810779, -97.7627944162882, 7.5));
#607 = ORIENTED_EDGE('', *, *, #608, .F.);
#608 = EDGE_CURVE('', #609, #602, #611, .T.);
#609 = VERTEX_POINT('', #610);
#610 = CARTESIAN_POINT('', (-50.6698729810779, -97.7627944162882, -7.5));
#611 = B_SPLINE_CURVE_WITH_KNOTS('', 1, (#612, #613), .UNSPECIFIED., .F., .U., (2, 2), (0., 15.), .UNSPECIFIED.);
#612 = CARTESIAN_POINT('', (-50.6698729810779, -97.7627944162882, -7.5));
#613 = CARTESIAN_POINT('', (-50.6698729810779, -97.7627944162882, 7.5));
#614 = ORIENTED_EDGE('', *, *, #615, .F.);
#615 = EDGE_CURVE('', #593, #609, #616, .T.);
#616 = B_SPLINE_CURVE_WITH_KNOTS('', 1, (#617, #618), .UNSPECIFIED., .F., .U., (2, 2), (0., 20.), .UNSPECIFIED.);
#617 = CARTESIAN_POINT('', (-40.6698729810778, -80.4422863405995, -7.5));
#618 = CARTESIAN_POINT('', (-50.6698729810779, -97.7627944162882, -7.5));
#619 = B_SPLINE_SURFACE_WITH_KNOTS('', 1, 1, ((#620, #621), (#622, #623)), .UNSPECIFIED., .F., .F., .U., (2, 2), (2, 2), (0., 15.), (0., 20.), .UNSPECIFIED.);
#620 = CARTESIAN_POINT('', (-40.6698729810778, -80.4422863405995, -7.5));
#621 = CARTESIAN_POINT('', (-50.6698729810779, -97.7627944162882, -7.5));
#622 = CARTESIAN_POINT('', (-40.6698729810778, -80.4422863405995, 7.5));
#623 = CARTESIAN_POINT('', (-50.6698729810779, -97.7627944162882, 7.5));
#624 = ADVANCED_FACE('', (#625), #647, .T.);
#625 = FACE_OUTER_BOUND('', #626, .T.);
#626 = EDGE_LOOP('', (#627, #634, #641, #646));
#627 = ORIENTED_EDGE('', *, *, #628, .F.);
#628 = EDGE_CURVE('', #629, #595, #631, .T.);
#629 = VERTEX_POINT('', #630);
#630 = CARTESIAN_POINT('', (-49.3301270189222, -75.4422863405995, 7.5));
#631 = B_SPLINE_CURVE_WITH_KNOTS('', 1, (#632, #633), .UNSPECIFIED., .F., .U., (2, 2), (0., 10.), .UNSPECIFIED.);
#632 = CARTESIAN_POINT('', (-49.3301270189222, -75.4422863405995, 7.5));
#633 = CARTESIAN_POINT('', (-40.6698729810778, -80.4422863405995, 7.5));
#634 = ORIENTED_EDGE('', *, *, #635, .T.);
#635 = EDGE_CURVE('', #629, #636, #638, .T.);
#636 = VERTEX_POINT('', #637);
#637 = CARTESIAN_POINT('', (-59.3301270189222, -92.7627944162882, 7.5));
#638 = B_SPLINE_CURVE_WITH_KNOTS('', 1, (#639, #640), .UNSPECIFIED., .F., .U., (2, 2), (0., 20.), .UNSPECIFIED.);
#639 = CARTESIAN_POINT('', (-49.3301270189222, -75.4422863405995, 7.5));
#640 = CARTESIAN_POINT('', (-59.3301270189222, -92.7627944162882, 7.5));
#641 = ORIENTED_EDGE('', *, *, #642, .T.);
#642 = EDGE_CURVE('', #636, #602, #643, .T.);
#643 = B_SPLINE_CURVE_WITH_KNOTS('', 1, (#644, #645), .UNSPECIFIED., .F., .U., (2, 2), (0., 10.), .UNSPECIFIED.);
#644 = CARTESIAN_POINT('', (-59.3301270189222, -92.7627944162882, 7.5));
#645 = CARTESIAN_POINT('', (-50.6698729810779, -97.7627944162882, 7.5));
#646 = ORIENTED_EDGE('', *, *, #601, .F.);
#647 = B_SPLINE_SURFACE_WITH_KNOTS('', 1, 1, ((#648, #649), (#650, #651)), .UNSPECIFIED., .F., .F., .U., (2, 2), (2, 2), (0., 20.), (0., 10.), .UNSPECIFIED.);
#648 = CARTESIAN_POINT('', (-49.3301270189222, -75.4422863405995, 7.5));
#649 = CARTESIAN_POINT('', (-40.6698729810778, -80.4422863405995, 7.5));
#650 = CARTESIAN_POINT('', (-59.3301270189222, -92.7627944162882, 7.5));
#651 = CARTESIAN_POINT('', (-50.6698729810779, -97.7627944162882, 7.5));
#652 = ADVANCED_FACE('', (#653), #675, .T.);
#653 = FACE_OUTER_BOUND('', #654, .T.);
#654 = EDGE_LOOP('', (#655, #662, #669, #674));
#655 = ORIENTED_EDGE('', *, *, #656, .F.);
#656 = EDGE_CURVE('', #657, #629, #659, .T.);
#657 = VERTEX_POINT('', #658);
#658 = CARTESIAN_POINT('', (-49.3301270189222, -75.4422863405995, -7.5));
#659 = B_SPLINE_CURVE_WITH_KNOTS('', 1, (#660, #661), .UNSPECIFIED., .F., .U., (2, 2), (0., 15.), .UNSPECIFIED.);
#660 = CARTESIAN_POINT('', (-49.3301270189222, -75.4422863405995, -7.5));
#661 = CARTESIAN_POINT('', (-49.3301270189222, -75.4422863405995, 7.5));
#662 = ORIENTED_EDGE('', *, *, #663, .T.);
#663 = EDGE_CURVE('', #657, #664, #666, .T.);
#664 = VERTEX_POINT('', #665);
#665 = CARTESIAN_POINT('', (-59.3301270189222, -92.7627944162882, -7.5));
#666 = B_SPLINE_CURVE_WITH_KNOTS('', 1, (#667, #668), .UNSPECIFIED., .F., .U., (2, 2), (0., 20.), .UNSPECIFIED.);
#667 = CARTESIAN_POINT('', (-49.3301270189222, -75.4422863405995, -7.5));
#668 = CARTESIAN_POINT('', (-59.3301270189222, -92.7627944162882, -7.5));
#669 = ORIENTED_EDGE('', *, *, #670, .T.);
#670 = EDGE_CURVE('', #664, #636, #671, .T.);
#671 = B_SPLINE_CURVE_WITH_KNOTS('', 1, (#672, #673), .UNSPECIFIED., .F., .U., (2, 2), (0., 15.), .UNSPECIFIED.);
#672 = CARTESIAN_POINT('', (-59.3301270189222, -92.7627944162882, -7.5));
#673 = CARTESIAN_POINT('', (-59.3301270189222, -92.7627944162882, 7.5));
#674 = ORIENTED_EDGE('', *, *, #635, .F.);
#675 = B_SPLINE_SURFACE_WITH_KNOTS('', 1, 1, ((#676, #677), (#678, #679)), .UNSPECIFIED., .F., .F., .U., (2, 2), (2, 2), (0., 20.), (0., 15.), .UNSPECIFIED.);
#676 = CARTESIAN_POINT('', (-49.3301270189222, -75.4422863405995, -7.5));
#677 = CARTESIAN_POINT('', (-49.3301270189222, -75.4422863405995, 7.5));
#678 = CARTESIAN_POINT('', (-59.3301270189222, -92.7627944162882, -7.5));
#679 = CARTESIAN_POINT('', (-59.3301270189222, -92.7627944162882, 7.5));
#680 = ADVANCED_FACE('', (#681), #695, .T.);
#681 = FACE_OUTER_BOUND('', #682, .T.);
#682 = EDGE_LOOP('', (#683, #688, #689, #694));
#683 = ORIENTED_EDGE('', *, *, #684, .T.);
#684 = EDGE_CURVE('', #657, #593, #685, .T.);
#685 = B_SPLINE_CURVE_WITH_KNOTS('', 1, (#686, #687), .UNSPECIFIED., .F., .U., (2, 2), (0., 10.), .UNSPECIFIED.);
#686 = CARTESIAN_POINT('', (-49.3301270189222, -75.4422863405995, -7.5));
#687 = CARTESIAN_POINT('', (-40.6698729810778, -80.4422863405995, -7.5));
#688 = ORIENTED_EDGE('', *, *, #615, .T.);
#689 = ORIENTED_EDGE('', *, *, #690, .F.);
#690 = EDGE_CURVE('', #664, #609, #691, .T.);
#691 = B_SPLINE_CURVE_WITH_KNOTS('', 1, (#692, #693), .UNSPECIFIED., .F., .U., (2, 2), (0., 10.), .UNSPECIFIED.);
#692 = CARTESIAN_POINT('', (-59.3301270189222, -92.7627944162882, -7.5));
#693 = CARTESIAN_POINT('', (-50.6698729810779, -97.7627944162882, -7.5));
#694 = ORIENTED_EDGE('', *, *, #663, .F.);
#695 = B_SPLINE_SURFACE_WITH_KNOTS('', 1, 1, ((#696, #697), (#698, #699)), .UNSPECIFIED., .F., .F., .U., (2, 2), (2, 2), (0., 10.), (0., 20.), .UNSPECIFIED.);
#696 = CARTESIAN_POINT('', (-49.3301270189222, -75.4422863405995, -7.5));
#697 = CARTESIAN_POINT('', (-59.3301270189222, -92.7627944162882, -7.5));
#698 = CARTESIAN_POINT('', (-40.6698729810778, -80.4422863405995, -7.5));
#699 = CARTESIAN_POINT('', (-50.6698729810779, -97.7627944162882, -7.5));
#700 = ADVANCED_FACE('', (#701), #707, .T.);
#701 = FACE_OUTER_BOUND('', #702, .T.);
#702 = EDGE_LOOP('', (#703, #704, #705, #706));
#703 = ORIENTED_EDGE('', *, *, #670, .F.);
#704 = ORIENTED_EDGE('', *, *, #690, .T.);
#705 = ORIENTED_EDGE('', *, *, #608, .T.);
#706 = ORIENTED_EDGE('', *, *, #642, .F.);
#707 = B_SPLINE_SURFACE_WITH_KNOTS('', 1, 1, ((#708, #709), (#710, #711)), .UNSPECIFIED., .F., .F., .U., (2, 2), (2, 2), (0., 10.), (0., 15.), .UNSPECIFIED.);
#708 = CARTESIAN_POINT('', (-59.3301270189222, -92.7627944162882, -7.5));
#709 = CARTESIAN_POINT('', (-59.3301270189222, -92.7627944162882, 7.5));
#710 = CARTESIAN_POINT('', (-50.6698729810779, -97.7627944162882, -7.5));
#711 = CARTESIAN_POINT('', (-50.6698729810779, -97.7627944162882, 7.5));
#712 = ADVANCED_FACE('', (#713), #719, .T.);
#713 = FACE_OUTER_BOUND('', #714, .T.);
#714 = EDGE_LOOP('', (#715, #716, #717, #718));
#715 = ORIENTED_EDGE('', *, *, #656, .T.);
#716 = ORIENTED_EDGE('', *, *, #628, .T.);
#717 = ORIENTED_EDGE('', *, *, #592, .F.);
#718 = ORIENTED_EDGE('', *, *, #684, .F.);
#719 = B_SPLINE_SURFACE_WITH_KNOTS('', 1, 1, ((#720, #721), (#722, #723)), .UNSPECIFIED., .F., .F., .U., (2, 2), (2, 2), (0., 15.), (0., 10.), .UNSPECIFIED.);
#720 = CARTESIAN_POINT('', (-49.3301270189222, -75.4422863405995, -7.5));
#721 = CARTESIAN_POINT('', (-40.6698729810778, -80.4422863405995, -7.5));
#722 = CARTESIAN_POINT('', (-49.3301270189222, -75.4422863405995, 7.5));
#723 = CARTESIAN_POINT('', (-40.6698729810778, -80.4422863405995, 7.5));
#724 = PRESENTATION_STYLE_ASSIGNMENT((#725));
#725 = SURFACE_STYLE_USAGE(.POSITIVE., #726);
#726 = SURFACE_SIDE_STYLE('', (#727));
#727 = SURFACE_STYLE_FILL_AREA(#728);
#728 = FILL_AREA_STYLE('', (#729));
#729 = FILL_AREA_STYLE_COLOUR('', #730);
#730 = COLOUR_RGB('', 0.50196078431373, 0.50196078431373, 0.50196078431373);
#731 = STYLED_ITEM('', (#724), #586);
#732 = MANIFOLD_SOLID_BREP('EntityObjCopy3', #733);
#733 = CLOSED_SHELL('', (#734, #770, #798, #826, #846, #858));
#734 = ADVANCED_FACE('', (#735), #765, .T.);
#735 = FACE_OUTER_BOUND('', #736, .T.);
#736 = EDGE_LOOP('', (#737, #746, #753, #760));
#737 = ORIENTED_EDGE('', *, *, #738, .T.);
#738 = EDGE_CURVE('', #739, #741, #743, .T.);
#739 = VERTEX_POINT('', #740);
#740 = CARTESIAN_POINT('', (49.3301270189222, -75.4422863405995, -7.5));
#741 = VERTEX_POINT('', #742);
#742 = CARTESIAN_POINT('', (49.3301270189222, -75.4422863405995, 7.5));
#743 = B_SPLINE_CURVE_WITH_KNOTS('', 1, (#744, #745), .UNSPECIFIED., .F., .U., (2, 2), (0., 15.), .UNSPECIFIED.);
#744 = CARTESIAN_POINT('', (49.3301270189222, -75.4422863405995, -7.5));
#745 = CARTESIAN_POINT('', (49.3301270189222, -75.4422863405995, 7.5));
#746 = ORIENTED_EDGE('', *, *, #747, .T.);
#747 = EDGE_CURVE('', #741, #748, #750, .T.);
#748 = VERTEX_POINT('', #749);
#749 = CARTESIAN_POINT('', (59.3301270189222, -92.7627944162882, 7.5));
#750 = B_SPLINE_CURVE_WITH_KNOTS('', 1, (#751, #752), .UNSPECIFIED., .F., .U., (2, 2), (0., 20.), .UNSPECIFIED.);
#751 = CARTESIAN_POINT('', (49.3301270189222, -75.4422863405995, 7.5));
#752 = CARTESIAN_POINT('', (59.3301270189222, -92.7627944162882, 7.5));
#753 = ORIENTED_EDGE('', *, *, #754, .F.);
#754 = EDGE_CURVE('', #755, #748, #757, .T.);
#755 = VERTEX_POINT('', #756);
#756 = CARTESIAN_POINT('', (59.3301270189222, -92.7627944162882, -7.5));
#757 = B_SPLINE_CURVE_WITH_KNOTS('', 1, (#758, #759), .UNSPECIFIED., .F., .U., (2, 2), (0., 15.), .UNSPECIFIED.);
#758 = CARTESIAN_POINT('', (59.3301270189222, -92.7627944162882, -7.5));
#759 = CARTESIAN_POINT('', (59.3301270189222, -92.7627944162882, 7.5));
#760 = ORIENTED_EDGE('', *, *, #761, .F.);
#761 = EDGE_CURVE('', #739, #755, #762, .T.);
#762 = B_SPLINE_CURVE_WITH_KNOTS('', 1, (#763, #764), .UNSPECIFIED., .F., .U., (2, 2), (0., 20.), .UNSPECIFIED.);
#763 = CARTESIAN_POINT('', (49.3301270189222, -75.4422863405995, -7.5));
#764 = CARTESIAN_POINT('', (59.3301270189222, -92.7627944162882, -7.5));
#765 = B_SPLINE_SURFACE_WITH_KNOTS('', 1, 1, ((#766, #767), (#768, #769)), .UNSPECIFIED., .F., .F., .U., (2, 2), (2, 2), (0., 15.), (0., 20.), .UNSPECIFIED.);
#766 = CARTESIAN_POINT('', (49.3301270189222, -75.4422863405995, -7.5));
#767 = CARTESIAN_POINT('', (59.3301270189222, -92.7627944162882, -7.5));
#768 = CARTESIAN_POINT('', (49.3301270189222, -75.4422863405995, 7.5));
#769 = CARTESIAN_POINT('', (59.3301270189222, -92.7627944162882, 7.5));
#770 = ADVANCED_FACE('', (#771), #793, .T.);
#771 = FACE_OUTER_BOUND('', #772, .T.);
#772 = EDGE_LOOP('', (#773, #780, #787, #792));
#773 = ORIENTED_EDGE('', *, *, #774, .F.);
#774 = EDGE_CURVE('', #775, #741, #777, .T.);
#775 = VERTEX_POINT('', #776);
#776 = CARTESIAN_POINT('', (40.6698729810778, -80.4422863405995, 7.5));
#777 = B_SPLINE_CURVE_WITH_KNOTS('', 1, (#778, #779), .UNSPECIFIED., .F., .U., (2, 2), (0., 10.), .UNSPECIFIED.);
#778 = CARTESIAN_POINT('', (40.6698729810778, -80.4422863405995, 7.5));
#779 = CARTESIAN_POINT('', (49.3301270189222, -75.4422863405995, 7.5));
#780 = ORIENTED_EDGE('', *, *, #781, .T.);
#781 = EDGE_CURVE('', #775, #782, #784, .T.);
#782 = VERTEX_POINT('', #783);
#783 = CARTESIAN_POINT('', (50.6698729810778, -97.7627944162882, 7.5));
#784 = B_SPLINE_CURVE_WITH_KNOTS('', 1, (#785, #786), .UNSPECIFIED., .F., .U., (2, 2), (0., 20.), .UNSPECIFIED.);
#785 = CARTESIAN_POINT('', (40.6698729810778, -80.4422863405995, 7.5));
#786 = CARTESIAN_POINT('', (50.6698729810778, -97.7627944162882, 7.5));
#787 = ORIENTED_EDGE('', *, *, #788, .T.);
#788 = EDGE_CURVE('', #782, #748, #789, .T.);
#789 = B_SPLINE_CURVE_WITH_KNOTS('', 1, (#790, #791), .UNSPECIFIED., .F., .U., (2, 2), (0., 10.), .UNSPECIFIED.);
#790 = CARTESIAN_POINT('', (50.6698729810778, -97.7627944162882, 7.5));
#791 = CARTESIAN_POINT('', (59.3301270189222, -92.7627944162882, 7.5));
#792 = ORIENTED_EDGE('', *, *, #747, .F.);
#793 = B_SPLINE_SURFACE_WITH_KNOTS('', 1, 1, ((#794, #795), (#796, #797)), .UNSPECIFIED., .F., .F., .U., (2, 2), (2, 2), (0., 20.), (0., 10.), .UNSPECIFIED.);
#794 = CARTESIAN_POINT('', (40.6698729810778, -80.4422863405995, 7.5));
#795 = CARTESIAN_POINT('', (49.3301270189222, -75.4422863405995, 7.5));
#796 = CARTESIAN_POINT('', (50.6698729810778, -97.7627944162882, 7.5));
#797 = CARTESIAN_POINT('', (59.3301270189222, -92.7627944162882, 7.5));
#798 = ADVANCED_FACE('', (#799), #821, .T.);
#799 = FACE_OUTER_BOUND('', #800, .T.);
#800 = EDGE_LOOP('', (#801, #808, #815, #820));
#801 = ORIENTED_EDGE('', *, *, #802, .F.);
#802 = EDGE_CURVE('', #803, #775, #805, .T.);
#803 = VERTEX_POINT('', #804);
#804 = CARTESIAN_POINT('', (40.6698729810778, -80.4422863405995, -7.5));
#805 = B_SPLINE_CURVE_WITH_KNOTS('', 1, (#806, #807), .UNSPECIFIED., .F., .U., (2, 2), (0., 15.), .UNSPECIFIED.);
#806 = CARTESIAN_POINT('', (40.6698729810778, -80.4422863405995, -7.5));
#807 = CARTESIAN_POINT('', (40.6698729810778, -80.4422863405995, 7.5));
#808 = ORIENTED_EDGE('', *, *, #809, .T.);
#809 = EDGE_CURVE('', #803, #810, #812, .T.);
#810 = VERTEX_POINT('', #811);
#811 = CARTESIAN_POINT('', (50.6698729810778, -97.7627944162882, -7.5));
#812 = B_SPLINE_CURVE_WITH_KNOTS('', 1, (#813, #814), .UNSPECIFIED., .F., .U., (2, 2), (0., 20.), .UNSPECIFIED.);
#813 = CARTESIAN_POINT('', (40.6698729810778, -80.4422863405995, -7.5));
#814 = CARTESIAN_POINT('', (50.6698729810778, -97.7627944162882, -7.5));
#815 = ORIENTED_EDGE('', *, *, #816, .T.);
#816 = EDGE_CURVE('', #810, #782, #817, .T.);
#817 = B_SPLINE_CURVE_WITH_KNOTS('', 1, (#818, #819), .UNSPECIFIED., .F., .U., (2, 2), (0., 15.), .UNSPECIFIED.);
#818 = CARTESIAN_POINT('', (50.6698729810778, -97.7627944162882, -7.5));
#819 = CARTESIAN_POINT('', (50.6698729810778, -97.7627944162882, 7.5));
#820 = ORIENTED_EDGE('', *, *, #781, .F.);
#821 = B_SPLINE_SURFACE_WITH_KNOTS('', 1, 1, ((#822, #823), (#824, #825)), .UNSPECIFIED., .F., .F., .U., (2, 2), (2, 2), (0., 20.), (0., 15.), .UNSPECIFIED.);
#822 = CARTESIAN_POINT('', (40.6698729810778, -80.4422863405995, -7.5));
#823 = CARTESIAN_POINT('', (40.6698729810778, -80.4422863405995, 7.5));
#824 = CARTESIAN_POINT('', (50.6698729810778, -97.7627944162882, -7.5));
#825 = CARTESIAN_POINT('', (50.6698729810778, -97.7627944162882, 7.5));
#826 = ADVANCED_FACE('', (#827), #841, .T.);
#827 = FACE_OUTER_BOUND('', #828, .T.);
#828 = EDGE_LOOP('', (#829, #834, #835, #840));
#829 = ORIENTED_EDGE('', *, *, #830, .T.);
#830 = EDGE_CURVE('', #803, #739, #831, .T.);
#831 = B_SPLINE_CURVE_WITH_KNOTS('', 1, (#832, #833), .UNSPECIFIED., .F., .U., (2, 2), (0., 10.), .UNSPECIFIED.);
#832 = CARTESIAN_POINT('', (40.6698729810778, -80.4422863405995, -7.5));
#833 = CARTESIAN_POINT('', (49.3301270189222, -75.4422863405995, -7.5));
#834 = ORIENTED_EDGE('', *, *, #761, .T.);
#835 = ORIENTED_EDGE('', *, *, #836, .F.);
#836 = EDGE_CURVE('', #810, #755, #837, .T.);
#837 = B_SPLINE_CURVE_WITH_KNOTS('', 1, (#838, #839), .UNSPECIFIED., .F., .U., (2, 2), (0., 10.), .UNSPECIFIED.);
#838 = CARTESIAN_POINT('', (50.6698729810778, -97.7627944162882, -7.5));
#839 = CARTESIAN_POINT('', (59.3301270189222, -92.7627944162882, -7.5));
#840 = ORIENTED_EDGE('', *, *, #809, .F.);
#841 = B_SPLINE_SURFACE_WITH_KNOTS('', 1, 1, ((#842, #843), (#844, #845)), .UNSPECIFIED., .F., .F., .U., (2, 2), (2, 2), (0., 10.), (0., 20.), .UNSPECIFIED.);
#842 = CARTESIAN_POINT('', (40.6698729810778, -80.4422863405995, -7.5));
#843 = CARTESIAN_POINT('', (50.6698729810778, -97.7627944162882, -7.5));
#844 = CARTESIAN_POINT('', (49.3301270189222, -75.4422863405995, -7.5));
#845 = CARTESIAN_POINT('', (59.3301270189222, -92.7627944162882, -7.5));
#846 = ADVANCED_FACE('', (#847), #853, .T.);
#847 = FACE_OUTER_BOUND('', #848, .T.);
#848 = EDGE_LOOP('', (#849, #850, #851, #852));
#849 = ORIENTED_EDGE('', *, *, #816, .F.);
#850 = ORIENTED_EDGE('', *, *, #836, .T.);
#851 = ORIENTED_EDGE('', *, *, #754, .T.);
#852 = ORIENTED_EDGE('', *, *, #788, .F.);
#853 = B_SPLINE_SURFACE_WITH_KNOTS('', 1, 1, ((#854, #855), (#856, #857)), .UNSPECIFIED., .F., .F., .U., (2, 2), (2, 2), (0., 10.), (0., 15.), .UNSPECIFIED.);
#854 = CARTESIAN_POINT('', (50.6698729810778, -97.7627944162882, -7.5));
#855 = CARTESIAN_POINT('', (50.6698729810778, -97.7627944162882, 7.5));
#856 = CARTESIAN_POINT('', (59.3301270189222, -92.7627944162882, -7.5));
#857 = CARTESIAN_POINT('', (59.3301270189222, -92.7627944162882, 7.5));
#858 = ADVANCED_FACE('', (#859), #865, .T.);
#859 = FACE_OUTER_BOUND('', #860, .T.);
#860 = EDGE_LOOP('', (#861, #862, #863, #864));
#861 = ORIENTED_EDGE('', *, *, #802, .T.);
#862 = ORIENTED_EDGE('', *, *, #774, .T.);
#863 = ORIENTED_EDGE('', *, *, #738, .F.);
#864 = ORIENTED_EDGE('', *, *, #830, .F.);
#865 = B_SPLINE_SURFACE_WITH_KNOTS('', 1, 1, ((#866, #867), (#868, #869)), .UNSPECIFIED., .F., .F., .U., (2, 2), (2, 2), (0., 15.), (0., 10.), .UNSPECIFIED.);
#866 = CARTESIAN_POINT('', (40.6698729810778, -80.4422863405995, -7.5));
#867 = CARTESIAN_POINT('', (49.3301270189222, -75.4422863405995, -7.5));
#868 = CARTESIAN_POINT('', (40.6698729810778, -80.4422863405995, 7.5));
#869 = CARTESIAN_POINT('', (49.3301270189222, -75.4422863405995, 7.5));
#870 = PRESENTATION_STYLE_ASSIGNMENT((#871));
#871 = SURFACE_STYLE_USAGE(.POSITIVE., #872);
#872 = SURFACE_SIDE_STYLE('', (#873));
#873 = SURFACE_STYLE_FILL_AREA(#874);
#874 = FILL_AREA_STYLE('', (#875));
#875 = FILL_AREA_STYLE_COLOUR('', #876);
#876 = COLOUR_RGB('', 0.50196078431373, 0.50196078431373, 0.50196078431373);
#877 = STYLED_ITEM('', (#870), #732);
#878 = MANIFOLD_SOLID_BREP('Solid0', #879);
#879 = CLOSED_SHELL('', (#880, #936, #945));
#880 = ADVANCED_FACE('', (#881), #917, .T.);
#881 = FACE_OUTER_BOUND('', #882, .T.);
#882 = EDGE_LOOP('', (#883, #892, #904, #905));
#883 = ORIENTED_EDGE('', *, *, #884, .F.);
#884 = EDGE_CURVE('', #885, #887, #889, .T.);
#885 = VERTEX_POINT('', #886);
#886 = CARTESIAN_POINT('', (5., 0., -7.5));
#887 = VERTEX_POINT('', #888);
#888 = CARTESIAN_POINT('', (5., 0., 7.5));
#889 = B_SPLINE_CURVE_WITH_KNOTS('', 1, (#890, #891), .UNSPECIFIED., .F., .U., (2, 2), (0., 15.), .UNSPECIFIED.);
#890 = CARTESIAN_POINT('', (5., 0., -7.5));
#891 = CARTESIAN_POINT('', (5., 0., 7.5));
#892 = ORIENTED_EDGE('', *, *, #893, .T.);
#893 = EDGE_CURVE('', #885, #885, #894, .T.);
#894 = (
   BOUNDED_CURVE ()
   B_SPLINE_CURVE (2, (#895, #896, #897, #898, #899, #900, #901, #902, #903), .UNSPECIFIED., .T., .U.)
   B_SPLINE_CURVE_WITH_KNOTS ((3, 2, 2, 2, 3), (0., 7.85398163397448, 15.707963267949, 23.5619449019234, 31.4159265358979), .UNSPECIFIED.)
   CURVE ()
   GEOMETRIC_REPRESENTATION_ITEM ()
   RATIONAL_B_SPLINE_CURVE ((1., 0.707106781186548, 1., 0.707106781186548, 1., 0.707106781186548, 1., 0.707106781186548, 1.))
   REPRESENTATION_ITEM ('')
);
#895 = CARTESIAN_POINT('', (5., 0., -7.5));
#896 = CARTESIAN_POINT('', (5., 5., -7.5));
#897 = CARTESIAN_POINT('', (3.06161699786838E-16, 5., -7.5));
#898 = CARTESIAN_POINT('', (-5., 5., -7.5));
#899 = CARTESIAN_POINT('', (-5., 6.12323399573677E-16, -7.5));
#900 = CARTESIAN_POINT('', (-5., -5., -7.5));
#901 = CARTESIAN_POINT('', (-9.18485099360515E-16, -5., -7.5));
#902 = CARTESIAN_POINT('', (5., -5., -7.5));
#903 = CARTESIAN_POINT('', (5., 0., -7.5));
#904 = ORIENTED_EDGE('', *, *, #884, .T.);
#905 = ORIENTED_EDGE('', *, *, #906, .F.);
#906 = EDGE_CURVE('', #887, #887, #907, .T.);
#907 = (
   BOUNDED_CURVE ()
   B_SPLINE_CURVE (2, (#908, #909, #910, #911, #912, #913, #914, #915, #916), .UNSPECIFIED., .T., .U.)
   B_SPLINE_CURVE_WITH_KNOTS ((3, 2, 2, 2, 3), (0., 7.85398163397448, 15.707963267949, 23.5619449019234, 31.4159265358979), .UNSPECIFIED.)
   CURVE ()
   GEOMETRIC_REPRESENTATION_ITEM ()
   RATIONAL_B_SPLINE_CURVE ((1., 0.707106781186548, 1., 0.707106781186548, 1., 0.707106781186548, 1., 0.707106781186548, 1.))
   REPRESENTATION_ITEM ('')
);
#908 = CARTESIAN_POINT('', (5., 0., 7.5));
#909 = CARTESIAN_POINT('', (5., 5., 7.5));
#910 = CARTESIAN_POINT('', (3.06161699786838E-16, 5., 7.5));
#911 = CARTESIAN_POINT('', (-5., 5., 7.5));
#912 = CARTESIAN_POINT('', (-5., 6.12323399573677E-16, 7.5));
#913 = CARTESIAN_POINT('', (-5., -5., 7.5));
#914 = CARTESIAN_POINT('', (-9.18485099360515E-16, -5., 7.5));
#915 = CARTESIAN_POINT('', (5., -5., 7.5));
#916 = CARTESIAN_POINT('', (5., 0., 7.5));
#917 = (
   BOUNDED_SURFACE ()
   B_SPLINE_SURFACE (2, 1, ((#918, #919), (#920, #921), (#922, #923), (#924, #925), (#926, #927), (#928, #929), (#930, #931), (#932, #933), (#934, #935)), .UNSPECIFIED., .T., .F., .U.)
   B_SPLINE_SURFACE_WITH_KNOTS ((3, 2, 2, 2, 3), (2, 2), (0., 7.85398163397448, 15.707963267949, 23.5619449019234, 31.4159265358979), (0., 15.), .UNSPECIFIED.)
   GEOMETRIC_REPRESENTATION_ITEM ()
   RATIONAL_B_SPLINE_SURFACE (((1., 1.), (0.707106781186548, 0.707106781186548), (1., 1.), (0.707106781186548, 0.707106781186548), (1., 1.), (0.707106781186548, 0.707106781186548), (1., 1.), (0.707106781186548, 0.707106781186548), (1., 1.)))
   REPRESENTATION_ITEM ('')
   SURFACE ()
);
#918 = CARTESIAN_POINT('', (5., 0., -7.5));
#919 = CARTESIAN_POINT('', (5., 0., 7.5));
#920 = CARTESIAN_POINT('', (5., 5., -7.5));
#921 = CARTESIAN_POINT('', (5., 5., 7.5));
#922 = CARTESIAN_POINT('', (3.06161699786838E-16, 5., -7.5));
#923 = CARTESIAN_POINT('', (3.06161699786838E-16, 5., 7.5));
#924 = CARTESIAN_POINT('', (-5., 5., -7.5));
#925 = CARTESIAN_POINT('', (-5., 5., 7.5));
#926 = CARTESIAN_POINT('', (-5., 6.12323399573677E-16, -7.5));
#927 = CARTESIAN_POINT('', (-5., 6.12323399573677E-16, 7.5));
#928 = CARTESIAN_POINT('', (-5., -5., -7.5));
#929 = CARTESIAN_POINT('', (-5., -5., 7.5));
#930 = CARTESIAN_POINT('', (-9.18485099360515E-16, -5., -7.5));
#931 = CARTESIAN_POINT('', (-9.18485099360515E-16, -5., 7.5));
#932 = CARTESIAN_POINT('', (5., -5., -7.5));
#933 = CARTESIAN_POINT('', (5., -5., 7.5));
#934 = CARTESIAN_POINT('', (5., 0., -7.5));
#935 = CARTESIAN_POINT('', (5., 0., 7.5));
#936 = ADVANCED_FACE('', (#937), #940, .T.);
#937 = FACE_OUTER_BOUND('', #938, .T.);
#938 = EDGE_LOOP('', (#939));
#939 = ORIENTED_EDGE('', *, *, #893, .F.);
#940 = B_SPLINE_SURFACE_WITH_KNOTS('', 1, 1, ((#941, #942), (#943, #944)), .UNSPECIFIED., .F., .F., .U., (2, 2), (2, 2), (0., 1.), (0., 1.), .UNSPECIFIED.);
#941 = CARTESIAN_POINT('', (7.77817459305202, -7.77817459305203, -7.5));
#942 = CARTESIAN_POINT('', (7.77817459305202, 7.77817459305202, -7.5));
#943 = CARTESIAN_POINT('', (-7.77817459305203, -7.77817459305203, -7.5));
#944 = CARTESIAN_POINT('', (-7.77817459305203, 7.77817459305202, -7.5));
#945 = ADVANCED_FACE('', (#946), #949, .T.);
#946 = FACE_OUTER_BOUND('', #947, .T.);
#947 = EDGE_LOOP('', (#948));
#948 = ORIENTED_EDGE('', *, *, #906, .T.);
#949 = B_SPLINE_SURFACE_WITH_KNOTS('', 1, 1, ((#950, #951), (#952, #953)), .UNSPECIFIED., .F., .F., .U., (2, 2), (2, 2), (0., 1.), (0., 1.), .UNSPECIFIED.);
#950 = CARTESIAN_POINT('', (7.77817459305202, -7.77817459305203, 7.5));
#951 = CARTESIAN_POINT('', (-7.77817459305203, -7.77817459305203, 7.5));
#952 = CARTESIAN_POINT('', (7.77817459305202, 7.77817459305202, 7.5));
#953 = CARTESIAN_POINT('', (-7.77817459305203, 7.77817459305202, 7.5));
#954 = PRESENTATION_STYLE_ASSIGNMENT((#955));
#955 = SURFACE_STYLE_USAGE(.POSITIVE., #956);
#956 = SURFACE_SIDE_STYLE('', (#957));
#957 = SURFACE_STYLE_FILL_AREA(#958);
#958 = FILL_AREA_STYLE('', (#959));
#959 = FILL_AREA_STYLE_COLOUR('', #960);
#960 = COLOUR_RGB('', 0.50196078431373, 0.50196078431373, 0.50196078431373);
#961 = STYLED_ITEM('', (#954), #878);
#962 = CARTESIAN_POINT('Origin', (0., 0., 0.));
#963 = GEOMETRIC_SET('', (#962));
#964 = (
   GEOMETRIC_REPRESENTATION_CONTEXT (3)
   GLOBAL_UNCERTAINTY_ASSIGNED_CONTEXT ((#966))
   GLOBAL_UNIT_ASSIGNED_CONTEXT ((#965, #967, #968))
   REPRESENTATION_CONTEXT ('', '3D')
);
#965 = (
   LENGTH_UNIT ()
   NAMED_UNIT (*)
   SI_UNIT (.MILLI., .METRE.)
);
#966 = UNCERTAINTY_MEASURE_WITH_UNIT(LENGTH_MEASURE(1.E-6), #965, 'DISTANCE_ACCURACY_VALUE', '');
#967 = (
   NAMED_UNIT (*)
   SI_UNIT ($, .STERADIAN.)
   SOLID_ANGLE_UNIT ()
);
#968 = (
   NAMED_UNIT (*)
   PLANE_ANGLE_UNIT ()
   SI_UNIT ($, .RADIAN.)
);
#969 = SHAPE_REPRESENTATION('', (#984), #964);
#970 = PRODUCT_DEFINITION_SHAPE('', '', #971);
#971 = PRODUCT_DEFINITION('', '', #974, #978);
#972 = APPLICATION_CONTEXT('configuration controlled 3D designs of mechanical parts and assemblies');
#973 = APPLICATION_PROTOCOL_DEFINITION('International Standard', 'automotive_design', 2002, #972);
#974 = PRODUCT_DEFINITION_FORMATION_WITH_SPECIFIED_SOURCE('', '', #975, .NOT_KNOWN.);
#975 = PRODUCT('MultiCopy', 'MultiCopy', '', (#976));
#976 = PRODUCT_CONTEXT('', #972, 'mechanical');
#977 = PRODUCT_RELATED_PRODUCT_CATEGORY('detail', '', (#975));
#978 = PRODUCT_DEFINITION_CONTEXT('part definition', #972, 'design');
#979 = SHAPE_DEFINITION_REPRESENTATION(#970, #969);
#980 = SHAPE_REPRESENTATION_RELATIONSHIP('', '', #969, #981);
#981 = SHAPE_REPRESENTATION('', (#963), #964);
#982 = SHAPE_REPRESENTATION_RELATIONSHIP('', '', #969, #983);
#983 = ADVANCED_BREP_SHAPE_REPRESENTATION('', (#1, #148, #294, #440, #586, #732, #878), #964);
#984 = AXIS2_PLACEMENT_3D('', #985, #986, #987);
#985 = CARTESIAN_POINT('', (0., 0., 0.));
#986 = DIRECTION('', (0., 0., 1.));
#987 = DIRECTION('', (1., 0., 0.));
ENDSEC;
END-ISO-10303-21;
