ISO-10303-21;
HEADER;
FILE_DESCRIPTION(('STEP'), '1');
FILE_NAME('MeshVerify', '2026-04-15T16:15:31', (''), (''), 'Express 3.1.2.0', 'Express Tool', 'Unknown');
FILE_SCHEMA(('AUTOMOTIVE_DESIGN'));
ENDSEC;

DATA;
#1 = MANIFOLD_SOLID_BREP('Solid', #2);
#2 = CLOSED_SHELL('', (#3, #39, #67, #95, #115, #127));
#3 = ADVANCED_FACE('', (#4), #34, .T.);
#4 = FACE_OUTER_BOUND('', #5, .T.);
#5 = EDGE_LOOP('', (#6, #15, #22, #29));
#6 = ORIENTED_EDGE('', *, *, #7, .T.);
#7 = EDGE_CURVE('', #8, #10, #12, .T.);
#8 = VERTEX_POINT('', #9);
#9 = CARTESIAN_POINT('', (-30., 20., -15.));
#10 = VERTEX_POINT('', #11);
#11 = CARTESIAN_POINT('', (-30., 20., 15.));
#12 = B_SPLINE_CURVE_WITH_KNOTS('', 1, (#13, #14), .UNSPECIFIED., .F., .U., (2, 2), (0., 30.), .UNSPECIFIED.);
#13 = CARTESIAN_POINT('', (-30., 20., -15.));
#14 = CARTESIAN_POINT('', (-30., 20., 15.));
#15 = ORIENTED_EDGE('', *, *, #16, .T.);
#16 = EDGE_CURVE('', #10, #17, #19, .T.);
#17 = VERTEX_POINT('', #18);
#18 = CARTESIAN_POINT('', (30., 20., 15.));
#19 = B_SPLINE_CURVE_WITH_KNOTS('', 1, (#20, #21), .UNSPECIFIED., .F., .U., (2, 2), (0., 60.), .UNSPECIFIED.);
#20 = CARTESIAN_POINT('', (-30., 20., 15.));
#21 = CARTESIAN_POINT('', (30., 20., 15.));
#22 = ORIENTED_EDGE('', *, *, #23, .F.);
#23 = EDGE_CURVE('', #24, #17, #26, .T.);
#24 = VERTEX_POINT('', #25);
#25 = CARTESIAN_POINT('', (30., 20., -15.));
#26 = B_SPLINE_CURVE_WITH_KNOTS('', 1, (#27, #28), .UNSPECIFIED., .F., .U., (2, 2), (0., 30.), .UNSPECIFIED.);
#27 = CARTESIAN_POINT('', (30., 20., -15.));
#28 = CARTESIAN_POINT('', (30., 20., 15.));
#29 = ORIENTED_EDGE('', *, *, #30, .F.);
#30 = EDGE_CURVE('', #8, #24, #31, .T.);
#31 = B_SPLINE_CURVE_WITH_KNOTS('', 1, (#32, #33), .UNSPECIFIED., .F., .U., (2, 2), (0., 60.), .UNSPECIFIED.);
#32 = CARTESIAN_POINT('', (-30., 20., -15.));
#33 = CARTESIAN_POINT('', (30., 20., -15.));
#34 = B_SPLINE_SURFACE_WITH_KNOTS('', 1, 1, ((#35, #36), (#37, #38)), .UNSPECIFIED., .F., .F., .U., (2, 2), (2, 2), (0., 30.), (0., 60.), .UNSPECIFIED.);
#35 = CARTESIAN_POINT('', (-30., 20., -15.));
#36 = CARTESIAN_POINT('', (30., 20., -15.));
#37 = CARTESIAN_POINT('', (-30., 20., 15.));
#38 = CARTESIAN_POINT('', (30., 20., 15.));
#39 = ADVANCED_FACE('', (#40), #62, .T.);
#40 = FACE_OUTER_BOUND('', #41, .T.);
#41 = EDGE_LOOP('', (#42, #49, #56, #61));
#42 = ORIENTED_EDGE('', *, *, #43, .F.);
#43 = EDGE_CURVE('', #44, #10, #46, .T.);
#44 = VERTEX_POINT('', #45);
#45 = CARTESIAN_POINT('', (-30., -20., 15.));
#46 = B_SPLINE_CURVE_WITH_KNOTS('', 1, (#47, #48), .UNSPECIFIED., .F., .U., (2, 2), (0., 40.), .UNSPECIFIED.);
#47 = CARTESIAN_POINT('', (-30., -20., 15.));
#48 = CARTESIAN_POINT('', (-30., 20., 15.));
#49 = ORIENTED_EDGE('', *, *, #50, .T.);
#50 = EDGE_CURVE('', #44, #51, #53, .T.);
#51 = VERTEX_POINT('', #52);
#52 = CARTESIAN_POINT('', (30., -20., 15.));
#53 = B_SPLINE_CURVE_WITH_KNOTS('', 1, (#54, #55), .UNSPECIFIED., .F., .U., (2, 2), (0., 60.), .UNSPECIFIED.);
#54 = CARTESIAN_POINT('', (-30., -20., 15.));
#55 = CARTESIAN_POINT('', (30., -20., 15.));
#56 = ORIENTED_EDGE('', *, *, #57, .T.);
#57 = EDGE_CURVE('', #51, #17, #58, .T.);
#58 = B_SPLINE_CURVE_WITH_KNOTS('', 1, (#59, #60), .UNSPECIFIED., .F., .U., (2, 2), (0., 40.), .UNSPECIFIED.);
#59 = CARTESIAN_POINT('', (30., -20., 15.));
#60 = CARTESIAN_POINT('', (30., 20., 15.));
#61 = ORIENTED_EDGE('', *, *, #16, .F.);
#62 = B_SPLINE_SURFACE_WITH_KNOTS('', 1, 1, ((#63, #64), (#65, #66)), .UNSPECIFIED., .F., .F., .U., (2, 2), (2, 2), (0., 60.), (0., 40.), .UNSPECIFIED.);
#63 = CARTESIAN_POINT('', (-30., -20., 15.));
#64 = CARTESIAN_POINT('', (-30., 20., 15.));
#65 = CARTESIAN_POINT('', (30., -20., 15.));
#66 = CARTESIAN_POINT('', (30., 20., 15.));
#67 = ADVANCED_FACE('', (#68), #90, .T.);
#68 = FACE_OUTER_BOUND('', #69, .T.);
#69 = EDGE_LOOP('', (#70, #77, #84, #89));
#70 = ORIENTED_EDGE('', *, *, #71, .F.);
#71 = EDGE_CURVE('', #72, #44, #74, .T.);
#72 = VERTEX_POINT('', #73);
#73 = CARTESIAN_POINT('', (-30., -20., -15.));
#74 = B_SPLINE_CURVE_WITH_KNOTS('', 1, (#75, #76), .UNSPECIFIED., .F., .U., (2, 2), (0., 30.), .UNSPECIFIED.);
#75 = CARTESIAN_POINT('', (-30., -20., -15.));
#76 = CARTESIAN_POINT('', (-30., -20., 15.));
#77 = ORIENTED_EDGE('', *, *, #78, .T.);
#78 = EDGE_CURVE('', #72, #79, #81, .T.);
#79 = VERTEX_POINT('', #80);
#80 = CARTESIAN_POINT('', (30., -20., -15.));
#81 = B_SPLINE_CURVE_WITH_KNOTS('', 1, (#82, #83), .UNSPECIFIED., .F., .U., (2, 2), (0., 60.), .UNSPECIFIED.);
#82 = CARTESIAN_POINT('', (-30., -20., -15.));
#83 = CARTESIAN_POINT('', (30., -20., -15.));
#84 = ORIENTED_EDGE('', *, *, #85, .T.);
#85 = EDGE_CURVE('', #79, #51, #86, .T.);
#86 = B_SPLINE_CURVE_WITH_KNOTS('', 1, (#87, #88), .UNSPECIFIED., .F., .U., (2, 2), (0., 30.), .UNSPECIFIED.);
#87 = CARTESIAN_POINT('', (30., -20., -15.));
#88 = CARTESIAN_POINT('', (30., -20., 15.));
#89 = ORIENTED_EDGE('', *, *, #50, .F.);
#90 = B_SPLINE_SURFACE_WITH_KNOTS('', 1, 1, ((#91, #92), (#93, #94)), .UNSPECIFIED., .F., .F., .U., (2, 2), (2, 2), (0., 60.), (0., 30.), .UNSPECIFIED.);
#91 = CARTESIAN_POINT('', (-30., -20., -15.));
#92 = CARTESIAN_POINT('', (-30., -20., 15.));
#93 = CARTESIAN_POINT('', (30., -20., -15.));
#94 = CARTESIAN_POINT('', (30., -20., 15.));
#95 = ADVANCED_FACE('', (#96), #110, .T.);
#96 = FACE_OUTER_BOUND('', #97, .T.);
#97 = EDGE_LOOP('', (#98, #103, #104, #109));
#98 = ORIENTED_EDGE('', *, *, #99, .T.);
#99 = EDGE_CURVE('', #72, #8, #100, .T.);
#100 = B_SPLINE_CURVE_WITH_KNOTS('', 1, (#101, #102), .UNSPECIFIED., .F., .U., (2, 2), (0., 40.), .UNSPECIFIED.);
#101 = CARTESIAN_POINT('', (-30., -20., -15.));
#102 = CARTESIAN_POINT('', (-30., 20., -15.));
#103 = ORIENTED_EDGE('', *, *, #30, .T.);
#104 = ORIENTED_EDGE('', *, *, #105, .F.);
#105 = EDGE_CURVE('', #79, #24, #106, .T.);
#106 = B_SPLINE_CURVE_WITH_KNOTS('', 1, (#107, #108), .UNSPECIFIED., .F., .U., (2, 2), (0., 40.), .UNSPECIFIED.);
#107 = CARTESIAN_POINT('', (30., -20., -15.));
#108 = CARTESIAN_POINT('', (30., 20., -15.));
#109 = ORIENTED_EDGE('', *, *, #78, .F.);
#110 = B_SPLINE_SURFACE_WITH_KNOTS('', 1, 1, ((#111, #112), (#113, #114)), .UNSPECIFIED., .F., .F., .U., (2, 2), (2, 2), (0., 40.), (0., 60.), .UNSPECIFIED.);
#111 = CARTESIAN_POINT('', (-30., -20., -15.));
#112 = CARTESIAN_POINT('', (30., -20., -15.));
#113 = CARTESIAN_POINT('', (-30., 20., -15.));
#114 = CARTESIAN_POINT('', (30., 20., -15.));
#115 = ADVANCED_FACE('', (#116), #122, .T.);
#116 = FACE_OUTER_BOUND('', #117, .T.);
#117 = EDGE_LOOP('', (#118, #119, #120, #121));
#118 = ORIENTED_EDGE('', *, *, #85, .F.);
#119 = ORIENTED_EDGE('', *, *, #105, .T.);
#120 = ORIENTED_EDGE('', *, *, #23, .T.);
#121 = ORIENTED_EDGE('', *, *, #57, .F.);
#122 = B_SPLINE_SURFACE_WITH_KNOTS('', 1, 1, ((#123, #124), (#125, #126)), .UNSPECIFIED., .F., .F., .U., (2, 2), (2, 2), (0., 40.), (0., 30.), .UNSPECIFIED.);
#123 = CARTESIAN_POINT('', (30., -20., -15.));
#124 = CARTESIAN_POINT('', (30., -20., 15.));
#125 = CARTESIAN_POINT('', (30., 20., -15.));
#126 = CARTESIAN_POINT('', (30., 20., 15.));
#127 = ADVANCED_FACE('', (#128), #134, .T.);
#128 = FACE_OUTER_BOUND('', #129, .T.);
#129 = EDGE_LOOP('', (#130, #131, #132, #133));
#130 = ORIENTED_EDGE('', *, *, #71, .T.);
#131 = ORIENTED_EDGE('', *, *, #43, .T.);
#132 = ORIENTED_EDGE('', *, *, #7, .F.);
#133 = ORIENTED_EDGE('', *, *, #99, .F.);
#134 = B_SPLINE_SURFACE_WITH_KNOTS('', 1, 1, ((#135, #136), (#137, #138)), .UNSPECIFIED., .F., .F., .U., (2, 2), (2, 2), (0., 30.), (0., 40.), .UNSPECIFIED.);
#135 = CARTESIAN_POINT('', (-30., -20., -15.));
#136 = CARTESIAN_POINT('', (-30., 20., -15.));
#137 = CARTESIAN_POINT('', (-30., -20., 15.));
#138 = CARTESIAN_POINT('', (-30., 20., 15.));
#139 = DRAUGHTING_MODEL('', (#147, #293, #365, #437), #440);
#140 = PRESENTATION_STYLE_ASSIGNMENT((#141));
#141 = SURFACE_STYLE_USAGE(.POSITIVE., #142);
#142 = SURFACE_SIDE_STYLE('', (#143));
#143 = SURFACE_STYLE_FILL_AREA(#144);
#144 = FILL_AREA_STYLE('', (#145));
#145 = FILL_AREA_STYLE_COLOUR('', #146);
#146 = COLOUR_RGB('', 0.50196078431373, 0.50196078431373, 0.50196078431373);
#147 = STYLED_ITEM('', (#140), #1);
#148 = MANIFOLD_SOLID_BREP('EntityObjCopy', #149);
#149 = CLOSED_SHELL('', (#150, #186, #214, #242, #262, #274));
#150 = ADVANCED_FACE('', (#151), #181, .T.);
#151 = FACE_OUTER_BOUND('', #152, .T.);
#152 = EDGE_LOOP('', (#153, #162, #169, #176));
#153 = ORIENTED_EDGE('', *, *, #154, .T.);
#154 = EDGE_CURVE('', #155, #157, #159, .T.);
#155 = VERTEX_POINT('', #156);
#156 = CARTESIAN_POINT('', (50., 20., -15.));
#157 = VERTEX_POINT('', #158);
#158 = CARTESIAN_POINT('', (50., 20., 15.));
#159 = B_SPLINE_CURVE_WITH_KNOTS('', 1, (#160, #161), .UNSPECIFIED., .F., .U., (2, 2), (0., 30.), .UNSPECIFIED.);
#160 = CARTESIAN_POINT('', (50., 20., -15.));
#161 = CARTESIAN_POINT('', (50., 20., 15.));
#162 = ORIENTED_EDGE('', *, *, #163, .T.);
#163 = EDGE_CURVE('', #157, #164, #166, .T.);
#164 = VERTEX_POINT('', #165);
#165 = CARTESIAN_POINT('', (110., 20., 15.));
#166 = B_SPLINE_CURVE_WITH_KNOTS('', 1, (#167, #168), .UNSPECIFIED., .F., .U., (2, 2), (0., 60.), .UNSPECIFIED.);
#167 = CARTESIAN_POINT('', (50., 20., 15.));
#168 = CARTESIAN_POINT('', (110., 20., 15.));
#169 = ORIENTED_EDGE('', *, *, #170, .F.);
#170 = EDGE_CURVE('', #171, #164, #173, .T.);
#171 = VERTEX_POINT('', #172);
#172 = CARTESIAN_POINT('', (110., 20., -15.));
#173 = B_SPLINE_CURVE_WITH_KNOTS('', 1, (#174, #175), .UNSPECIFIED., .F., .U., (2, 2), (0., 30.), .UNSPECIFIED.);
#174 = CARTESIAN_POINT('', (110., 20., -15.));
#175 = CARTESIAN_POINT('', (110., 20., 15.));
#176 = ORIENTED_EDGE('', *, *, #177, .F.);
#177 = EDGE_CURVE('', #155, #171, #178, .T.);
#178 = B_SPLINE_CURVE_WITH_KNOTS('', 1, (#179, #180), .UNSPECIFIED., .F., .U., (2, 2), (0., 60.), .UNSPECIFIED.);
#179 = CARTESIAN_POINT('', (50., 20., -15.));
#180 = CARTESIAN_POINT('', (110., 20., -15.));
#181 = B_SPLINE_SURFACE_WITH_KNOTS('', 1, 1, ((#182, #183), (#184, #185)), .UNSPECIFIED., .F., .F., .U., (2, 2), (2, 2), (0., 30.), (0., 60.), .UNSPECIFIED.);
#182 = CARTESIAN_POINT('', (50., 20., -15.));
#183 = CARTESIAN_POINT('', (110., 20., -15.));
#184 = CARTESIAN_POINT('', (50., 20., 15.));
#185 = CARTESIAN_POINT('', (110., 20., 15.));
#186 = ADVANCED_FACE('', (#187), #209, .T.);
#187 = FACE_OUTER_BOUND('', #188, .T.);
#188 = EDGE_LOOP('', (#189, #196, #203, #208));
#189 = ORIENTED_EDGE('', *, *, #190, .F.);
#190 = EDGE_CURVE('', #191, #157, #193, .T.);
#191 = VERTEX_POINT('', #192);
#192 = CARTESIAN_POINT('', (50., -20., 15.));
#193 = B_SPLINE_CURVE_WITH_KNOTS('', 1, (#194, #195), .UNSPECIFIED., .F., .U., (2, 2), (0., 40.), .UNSPECIFIED.);
#194 = CARTESIAN_POINT('', (50., -20., 15.));
#195 = CARTESIAN_POINT('', (50., 20., 15.));
#196 = ORIENTED_EDGE('', *, *, #197, .T.);
#197 = EDGE_CURVE('', #191, #198, #200, .T.);
#198 = VERTEX_POINT('', #199);
#199 = CARTESIAN_POINT('', (110., -20., 15.));
#200 = B_SPLINE_CURVE_WITH_KNOTS('', 1, (#201, #202), .UNSPECIFIED., .F., .U., (2, 2), (0., 60.), .UNSPECIFIED.);
#201 = CARTESIAN_POINT('', (50., -20., 15.));
#202 = CARTESIAN_POINT('', (110., -20., 15.));
#203 = ORIENTED_EDGE('', *, *, #204, .T.);
#204 = EDGE_CURVE('', #198, #164, #205, .T.);
#205 = B_SPLINE_CURVE_WITH_KNOTS('', 1, (#206, #207), .UNSPECIFIED., .F., .U., (2, 2), (0., 40.), .UNSPECIFIED.);
#206 = CARTESIAN_POINT('', (110., -20., 15.));
#207 = CARTESIAN_POINT('', (110., 20., 15.));
#208 = ORIENTED_EDGE('', *, *, #163, .F.);
#209 = B_SPLINE_SURFACE_WITH_KNOTS('', 1, 1, ((#210, #211), (#212, #213)), .UNSPECIFIED., .F., .F., .U., (2, 2), (2, 2), (0., 60.), (0., 40.), .UNSPECIFIED.);
#210 = CARTESIAN_POINT('', (50., -20., 15.));
#211 = CARTESIAN_POINT('', (50., 20., 15.));
#212 = CARTESIAN_POINT('', (110., -20., 15.));
#213 = CARTESIAN_POINT('', (110., 20., 15.));
#214 = ADVANCED_FACE('', (#215), #237, .T.);
#215 = FACE_OUTER_BOUND('', #216, .T.);
#216 = EDGE_LOOP('', (#217, #224, #231, #236));
#217 = ORIENTED_EDGE('', *, *, #218, .F.);
#218 = EDGE_CURVE('', #219, #191, #221, .T.);
#219 = VERTEX_POINT('', #220);
#220 = CARTESIAN_POINT('', (50., -20., -15.));
#221 = B_SPLINE_CURVE_WITH_KNOTS('', 1, (#222, #223), .UNSPECIFIED., .F., .U., (2, 2), (0., 30.), .UNSPECIFIED.);
#222 = CARTESIAN_POINT('', (50., -20., -15.));
#223 = CARTESIAN_POINT('', (50., -20., 15.));
#224 = ORIENTED_EDGE('', *, *, #225, .T.);
#225 = EDGE_CURVE('', #219, #226, #228, .T.);
#226 = VERTEX_POINT('', #227);
#227 = CARTESIAN_POINT('', (110., -20., -15.));
#228 = B_SPLINE_CURVE_WITH_KNOTS('', 1, (#229, #230), .UNSPECIFIED., .F., .U., (2, 2), (0., 60.), .UNSPECIFIED.);
#229 = CARTESIAN_POINT('', (50., -20., -15.));
#230 = CARTESIAN_POINT('', (110., -20., -15.));
#231 = ORIENTED_EDGE('', *, *, #232, .T.);
#232 = EDGE_CURVE('', #226, #198, #233, .T.);
#233 = B_SPLINE_CURVE_WITH_KNOTS('', 1, (#234, #235), .UNSPECIFIED., .F., .U., (2, 2), (0., 30.), .UNSPECIFIED.);
#234 = CARTESIAN_POINT('', (110., -20., -15.));
#235 = CARTESIAN_POINT('', (110., -20., 15.));
#236 = ORIENTED_EDGE('', *, *, #197, .F.);
#237 = B_SPLINE_SURFACE_WITH_KNOTS('', 1, 1, ((#238, #239), (#240, #241)), .UNSPECIFIED., .F., .F., .U., (2, 2), (2, 2), (0., 60.), (0., 30.), .UNSPECIFIED.);
#238 = CARTESIAN_POINT('', (50., -20., -15.));
#239 = CARTESIAN_POINT('', (50., -20., 15.));
#240 = CARTESIAN_POINT('', (110., -20., -15.));
#241 = CARTESIAN_POINT('', (110., -20., 15.));
#242 = ADVANCED_FACE('', (#243), #257, .T.);
#243 = FACE_OUTER_BOUND('', #244, .T.);
#244 = EDGE_LOOP('', (#245, #250, #251, #256));
#245 = ORIENTED_EDGE('', *, *, #246, .T.);
#246 = EDGE_CURVE('', #219, #155, #247, .T.);
#247 = B_SPLINE_CURVE_WITH_KNOTS('', 1, (#248, #249), .UNSPECIFIED., .F., .U., (2, 2), (0., 40.), .UNSPECIFIED.);
#248 = CARTESIAN_POINT('', (50., -20., -15.));
#249 = CARTESIAN_POINT('', (50., 20., -15.));
#250 = ORIENTED_EDGE('', *, *, #177, .T.);
#251 = ORIENTED_EDGE('', *, *, #252, .F.);
#252 = EDGE_CURVE('', #226, #171, #253, .T.);
#253 = B_SPLINE_CURVE_WITH_KNOTS('', 1, (#254, #255), .UNSPECIFIED., .F., .U., (2, 2), (0., 40.), .UNSPECIFIED.);
#254 = CARTESIAN_POINT('', (110., -20., -15.));
#255 = CARTESIAN_POINT('', (110., 20., -15.));
#256 = ORIENTED_EDGE('', *, *, #225, .F.);
#257 = B_SPLINE_SURFACE_WITH_KNOTS('', 1, 1, ((#258, #259), (#260, #261)), .UNSPECIFIED., .F., .F., .U., (2, 2), (2, 2), (0., 40.), (0., 60.), .UNSPECIFIED.);
#258 = CARTESIAN_POINT('', (50., -20., -15.));
#259 = CARTESIAN_POINT('', (110., -20., -15.));
#260 = CARTESIAN_POINT('', (50., 20., -15.));
#261 = CARTESIAN_POINT('', (110., 20., -15.));
#262 = ADVANCED_FACE('', (#263), #269, .T.);
#263 = FACE_OUTER_BOUND('', #264, .T.);
#264 = EDGE_LOOP('', (#265, #266, #267, #268));
#265 = ORIENTED_EDGE('', *, *, #232, .F.);
#266 = ORIENTED_EDGE('', *, *, #252, .T.);
#267 = ORIENTED_EDGE('', *, *, #170, .T.);
#268 = ORIENTED_EDGE('', *, *, #204, .F.);
#269 = B_SPLINE_SURFACE_WITH_KNOTS('', 1, 1, ((#270, #271), (#272, #273)), .UNSPECIFIED., .F., .F., .U., (2, 2), (2, 2), (0., 40.), (0., 30.), .UNSPECIFIED.);
#270 = CARTESIAN_POINT('', (110., -20., -15.));
#271 = CARTESIAN_POINT('', (110., -20., 15.));
#272 = CARTESIAN_POINT('', (110., 20., -15.));
#273 = CARTESIAN_POINT('', (110., 20., 15.));
#274 = ADVANCED_FACE('', (#275), #281, .T.);
#275 = FACE_OUTER_BOUND('', #276, .T.);
#276 = EDGE_LOOP('', (#277, #278, #279, #280));
#277 = ORIENTED_EDGE('', *, *, #218, .T.);
#278 = ORIENTED_EDGE('', *, *, #190, .T.);
#279 = ORIENTED_EDGE('', *, *, #154, .F.);
#280 = ORIENTED_EDGE('', *, *, #246, .F.);
#281 = B_SPLINE_SURFACE_WITH_KNOTS('', 1, 1, ((#282, #283), (#284, #285)), .UNSPECIFIED., .F., .F., .U., (2, 2), (2, 2), (0., 30.), (0., 40.), .UNSPECIFIED.);
#282 = CARTESIAN_POINT('', (50., -20., -15.));
#283 = CARTESIAN_POINT('', (50., 20., -15.));
#284 = CARTESIAN_POINT('', (50., -20., 15.));
#285 = CARTESIAN_POINT('', (50., 20., 15.));
#286 = PRESENTATION_STYLE_ASSIGNMENT((#287));
#287 = SURFACE_STYLE_USAGE(.POSITIVE., #288);
#288 = SURFACE_SIDE_STYLE('', (#289));
#289 = SURFACE_STYLE_FILL_AREA(#290);
#290 = FILL_AREA_STYLE('', (#291));
#291 = FILL_AREA_STYLE_COLOUR('', #292);
#292 = COLOUR_RGB('', 0.50196078431373, 0.50196078431373, 0.50196078431373);
#293 = STYLED_ITEM('', (#286), #148);
#294 = MANIFOLD_SOLID_BREP('Solid0', #295);
#295 = CLOSED_SHELL('', (#296));
#296 = ADVANCED_FACE('', (#297), #312, .T.);
#297 = FACE_OUTER_BOUND('', #298, .T.);
#298 = EDGE_LOOP('', (#299, #311));
#299 = ORIENTED_EDGE('', *, *, #300, .F.);
#300 = EDGE_CURVE('', #301, #303, #305, .T.);
#301 = VERTEX_POINT('', #302);
#302 = CARTESIAN_POINT('', (-3.67394039744206E-15, 80., -20.));
#303 = VERTEX_POINT('', #304);
#304 = CARTESIAN_POINT('', (6.12323399573677E-15, 80., 20.));
#305 = (
   BOUNDED_CURVE ()
   B_SPLINE_CURVE (2, (#306, #307, #308, #309, #310), .UNSPECIFIED., .F., .U.)
   B_SPLINE_CURVE_WITH_KNOTS ((3, 2, 3), (0., 0.5, 1.), .UNSPECIFIED.)
   CURVE ()
   GEOMETRIC_REPRESENTATION_ITEM ()
   RATIONAL_B_SPLINE_CURVE ((1., 0.707106781186548, 1., 0.707106781186548, 1.))
   REPRESENTATION_ITEM ('')
);
#306 = CARTESIAN_POINT('', (-3.67394039744206E-15, 80., -20.));
#307 = CARTESIAN_POINT('', (20., 80., -20.));
#308 = CARTESIAN_POINT('', (20., 80., -4.89858719658941E-15));
#309 = CARTESIAN_POINT('', (20., 80., 20.));
#310 = CARTESIAN_POINT('', (6.12323399573677E-15, 80., 20.));
#311 = ORIENTED_EDGE('', *, *, #300, .T.);
#312 = (
   BOUNDED_SURFACE ()
   B_SPLINE_SURFACE (2, 2, ((#313, #314, #315, #316, #317), (#318, #319, #320, #321, #322), (#323, #324, #325, #326, #327), (#328, #329, #330, #331, #332), (#333, #334, #335, #336, #337), (#338, #339, #340, #341, #342), (#343, #344, #345, #346, #347), (#348, #349, #350, #351, #352), (#353, #354, #355, #356, #357)), .UNSPECIFIED., .T., .F., .U.)
   B_SPLINE_SURFACE_WITH_KNOTS ((3, 2, 2, 2, 3), (3, 2, 3), (0., 0.25, 0.5, 0.75, 1.), (0., 0.5, 1.), .UNSPECIFIED.)
   GEOMETRIC_REPRESENTATION_ITEM ()
   RATIONAL_B_SPLINE_SURFACE (((1., 0.707106781186548, 1., 0.707106781186548, 1.), (0.707106781186548, 0.5, 0.707106781186548, 0.5, 0.707106781186548), (1., 0.707106781186548, 1., 0.707106781186548, 1.), (0.707106781186548, 0.5, 0.707106781186548, 0.5, 0.707106781186548), (1., 0.707106781186548, 1., 0.707106781186548, 1.), (0.707106781186548, 0.5, 0.707106781186548, 0.5, 0.707106781186548), (1., 0.707106781186548, 1., 0.707106781186548, 1.), (0.707106781186548, 0.5, 0.707106781186548, 0.5, 0.707106781186548), (1., 0.707106781186548, 1., 0.707106781186548, 1.)))
   REPRESENTATION_ITEM ('')
   SURFACE ()
);
#313 = CARTESIAN_POINT('', (-3.67394039744206E-15, 80., -20.));
#314 = CARTESIAN_POINT('', (20., 80., -20.));
#315 = CARTESIAN_POINT('', (20., 80., -4.89858719658941E-15));
#316 = CARTESIAN_POINT('', (20., 80., 20.));
#317 = CARTESIAN_POINT('', (6.12323399573677E-15, 80., 20.));
#318 = CARTESIAN_POINT('', (-3.67394039744206E-15, 80., -20.));
#319 = CARTESIAN_POINT('', (20., 100., -20.));
#320 = CARTESIAN_POINT('', (20., 100., -4.89858719658941E-15));
#321 = CARTESIAN_POINT('', (20., 100., 20.));
#322 = CARTESIAN_POINT('', (6.12323399573677E-15, 80., 20.));
#323 = CARTESIAN_POINT('', (-3.67394039744206E-15, 80., -20.));
#324 = CARTESIAN_POINT('', (1.22464679914735E-15, 100., -20.));
#325 = CARTESIAN_POINT('', (1.22464679914735E-15, 100., -4.89858719658941E-15));
#326 = CARTESIAN_POINT('', (1.22464679914735E-15, 100., 20.));
#327 = CARTESIAN_POINT('', (6.12323399573677E-15, 80., 20.));
#328 = CARTESIAN_POINT('', (-3.67394039744206E-15, 80., -20.));
#329 = CARTESIAN_POINT('', (-20., 100., -20.));
#330 = CARTESIAN_POINT('', (-20., 100., -4.89858719658941E-15));
#331 = CARTESIAN_POINT('', (-20., 100., 20.));
#332 = CARTESIAN_POINT('', (6.12323399573677E-15, 80., 20.));
#333 = CARTESIAN_POINT('', (-3.67394039744206E-15, 80., -20.));
#334 = CARTESIAN_POINT('', (-20., 80., -20.));
#335 = CARTESIAN_POINT('', (-20., 80., -4.89858719658941E-15));
#336 = CARTESIAN_POINT('', (-20., 80., 20.));
#337 = CARTESIAN_POINT('', (6.12323399573677E-15, 80., 20.));
#338 = CARTESIAN_POINT('', (-3.67394039744206E-15, 80., -20.));
#339 = CARTESIAN_POINT('', (-20., 60., -20.));
#340 = CARTESIAN_POINT('', (-20., 60., -4.89858719658941E-15));
#341 = CARTESIAN_POINT('', (-20., 60., 20.));
#342 = CARTESIAN_POINT('', (6.12323399573677E-15, 80., 20.));
#343 = CARTESIAN_POINT('', (-3.67394039744206E-15, 80., -20.));
#344 = CARTESIAN_POINT('', (-3.67394039744206E-15, 60., -20.));
#345 = CARTESIAN_POINT('', (-3.67394039744206E-15, 60., -4.89858719658941E-15));
#346 = CARTESIAN_POINT('', (-3.67394039744206E-15, 60., 20.));
#347 = CARTESIAN_POINT('', (6.12323399573677E-15, 80., 20.));
#348 = CARTESIAN_POINT('', (-3.67394039744206E-15, 80., -20.));
#349 = CARTESIAN_POINT('', (20., 60., -20.));
#350 = CARTESIAN_POINT('', (20., 60., -4.89858719658941E-15));
#351 = CARTESIAN_POINT('', (20., 60., 20.));
#352 = CARTESIAN_POINT('', (6.12323399573677E-15, 80., 20.));
#353 = CARTESIAN_POINT('', (-3.67394039744206E-15, 80., -20.));
#354 = CARTESIAN_POINT('', (20., 80., -20.));
#355 = CARTESIAN_POINT('', (20., 80., -4.89858719658941E-15));
#356 = CARTESIAN_POINT('', (20., 80., 20.));
#357 = CARTESIAN_POINT('', (6.12323399573677E-15, 80., 20.));
#358 = PRESENTATION_STYLE_ASSIGNMENT((#359));
#359 = SURFACE_STYLE_USAGE(.POSITIVE., #360);
#360 = SURFACE_SIDE_STYLE('', (#361));
#361 = SURFACE_STYLE_FILL_AREA(#362);
#362 = FILL_AREA_STYLE('', (#363));
#363 = FILL_AREA_STYLE_COLOUR('', #364);
#364 = COLOUR_RGB('', 0.50196078431373, 0.50196078431373, 0.50196078431373);
#365 = STYLED_ITEM('', (#358), #294);
#366 = MANIFOLD_SOLID_BREP('EntityObjCopy0', #367);
#367 = CLOSED_SHELL('', (#368));
#368 = ADVANCED_FACE('', (#369), #384, .T.);
#369 = FACE_OUTER_BOUND('', #370, .T.);
#370 = EDGE_LOOP('', (#371, #383));
#371 = ORIENTED_EDGE('', *, *, #372, .F.);
#372 = EDGE_CURVE('', #373, #375, #377, .T.);
#373 = VERTEX_POINT('', #374);
#374 = CARTESIAN_POINT('', (80., 160., -20.));
#375 = VERTEX_POINT('', #376);
#376 = CARTESIAN_POINT('', (80., 160., 20.));
#377 = (
   BOUNDED_CURVE ()
   B_SPLINE_CURVE (2, (#378, #379, #380, #381, #382), .UNSPECIFIED., .F., .U.)
   B_SPLINE_CURVE_WITH_KNOTS ((3, 2, 3), (0., 0.5, 1.), .UNSPECIFIED.)
   CURVE ()
   GEOMETRIC_REPRESENTATION_ITEM ()
   RATIONAL_B_SPLINE_CURVE ((1., 0.707106781186548, 1., 0.707106781186548, 1.))
   REPRESENTATION_ITEM ('')
);
#378 = CARTESIAN_POINT('', (80., 160., -20.));
#379 = CARTESIAN_POINT('', (100., 160., -20.));
#380 = CARTESIAN_POINT('', (100., 160., -4.89858719658941E-15));
#381 = CARTESIAN_POINT('', (100., 160., 20.));
#382 = CARTESIAN_POINT('', (80., 160., 20.));
#383 = ORIENTED_EDGE('', *, *, #372, .T.);
#384 = (
   BOUNDED_SURFACE ()
   B_SPLINE_SURFACE (2, 2, ((#385, #386, #387, #388, #389), (#390, #391, #392, #393, #394), (#395, #396, #397, #398, #399), (#400, #401, #402, #403, #404), (#405, #406, #407, #408, #409), (#410, #411, #412, #413, #414), (#415, #416, #417, #418, #419), (#420, #421, #422, #423, #424), (#425, #426, #427, #428, #429)), .UNSPECIFIED., .T., .F., .U.)
   B_SPLINE_SURFACE_WITH_KNOTS ((3, 2, 2, 2, 3), (3, 2, 3), (0., 0.25, 0.5, 0.75, 1.), (0., 0.5, 1.), .UNSPECIFIED.)
   GEOMETRIC_REPRESENTATION_ITEM ()
   RATIONAL_B_SPLINE_SURFACE (((1., 0.707106781186548, 1., 0.707106781186548, 1.), (0.707106781186548, 0.5, 0.707106781186548, 0.5, 0.707106781186548), (1., 0.707106781186548, 1., 0.707106781186548, 1.), (0.707106781186548, 0.5, 0.707106781186548, 0.5, 0.707106781186548), (1., 0.707106781186548, 1., 0.707106781186548, 1.), (0.707106781186548, 0.5, 0.707106781186548, 0.5, 0.707106781186548), (1., 0.707106781186548, 1., 0.707106781186548, 1.), (0.707106781186548, 0.5, 0.707106781186548, 0.5, 0.707106781186548), (1., 0.707106781186548, 1., 0.707106781186548, 1.)))
   REPRESENTATION_ITEM ('')
   SURFACE ()
);
#385 = CARTESIAN_POINT('', (80., 160., -20.));
#386 = CARTESIAN_POINT('', (100., 160., -20.));
#387 = CARTESIAN_POINT('', (100., 160., -4.89858719658941E-15));
#388 = CARTESIAN_POINT('', (100., 160., 20.));
#389 = CARTESIAN_POINT('', (80., 160., 20.));
#390 = CARTESIAN_POINT('', (80., 160., -20.));
#391 = CARTESIAN_POINT('', (100., 180., -20.));
#392 = CARTESIAN_POINT('', (100., 180., -4.89858719658941E-15));
#393 = CARTESIAN_POINT('', (100., 180., 20.));
#394 = CARTESIAN_POINT('', (80., 160., 20.));
#395 = CARTESIAN_POINT('', (80., 160., -20.));
#396 = CARTESIAN_POINT('', (80., 180., -20.));
#397 = CARTESIAN_POINT('', (80., 180., -4.89858719658941E-15));
#398 = CARTESIAN_POINT('', (80., 180., 20.));
#399 = CARTESIAN_POINT('', (80., 160., 20.));
#400 = CARTESIAN_POINT('', (80., 160., -20.));
#401 = CARTESIAN_POINT('', (60., 180., -20.));
#402 = CARTESIAN_POINT('', (60., 180., -4.89858719658941E-15));
#403 = CARTESIAN_POINT('', (60., 180., 20.));
#404 = CARTESIAN_POINT('', (80., 160., 20.));
#405 = CARTESIAN_POINT('', (80., 160., -20.));
#406 = CARTESIAN_POINT('', (60., 160., -20.));
#407 = CARTESIAN_POINT('', (60., 160., -4.89858719658941E-15));
#408 = CARTESIAN_POINT('', (60., 160., 20.));
#409 = CARTESIAN_POINT('', (80., 160., 20.));
#410 = CARTESIAN_POINT('', (80., 160., -20.));
#411 = CARTESIAN_POINT('', (60., 140., -20.));
#412 = CARTESIAN_POINT('', (60., 140., -4.89858719658941E-15));
#413 = CARTESIAN_POINT('', (60., 140., 20.));
#414 = CARTESIAN_POINT('', (80., 160., 20.));
#415 = CARTESIAN_POINT('', (80., 160., -20.));
#416 = CARTESIAN_POINT('', (80., 140., -20.));
#417 = CARTESIAN_POINT('', (80., 140., -4.89858719658941E-15));
#418 = CARTESIAN_POINT('', (80., 140., 20.));
#419 = CARTESIAN_POINT('', (80., 160., 20.));
#420 = CARTESIAN_POINT('', (80., 160., -20.));
#421 = CARTESIAN_POINT('', (100., 140., -20.));
#422 = CARTESIAN_POINT('', (100., 140., -4.89858719658941E-15));
#423 = CARTESIAN_POINT('', (100., 140., 20.));
#424 = CARTESIAN_POINT('', (80., 160., 20.));
#425 = CARTESIAN_POINT('', (80., 160., -20.));
#426 = CARTESIAN_POINT('', (100., 160., -20.));
#427 = CARTESIAN_POINT('', (100., 160., -4.89858719658941E-15));
#428 = CARTESIAN_POINT('', (100., 160., 20.));
#429 = CARTESIAN_POINT('', (80., 160., 20.));
#430 = PRESENTATION_STYLE_ASSIGNMENT((#431));
#431 = SURFACE_STYLE_USAGE(.POSITIVE., #432);
#432 = SURFACE_SIDE_STYLE('', (#433));
#433 = SURFACE_STYLE_FILL_AREA(#434);
#434 = FILL_AREA_STYLE('', (#435));
#435 = FILL_AREA_STYLE_COLOUR('', #436);
#436 = COLOUR_RGB('', 0.50196078431373, 0.50196078431373, 0.50196078431373);
#437 = STYLED_ITEM('', (#430), #366);
#438 = CARTESIAN_POINT('Origin', (0., 0., 0.));
#439 = GEOMETRIC_SET('', (#438));
#440 = (
   GEOMETRIC_REPRESENTATION_CONTEXT (3)
   GLOBAL_UNCERTAINTY_ASSIGNED_CONTEXT ((#442))
   GLOBAL_UNIT_ASSIGNED_CONTEXT ((#441, #443, #444))
   REPRESENTATION_CONTEXT ('', '3D')
);
#441 = (
   LENGTH_UNIT ()
   NAMED_UNIT (*)
   SI_UNIT (.MILLI., .METRE.)
);
#442 = UNCERTAINTY_MEASURE_WITH_UNIT(LENGTH_MEASURE(1.E-6), #441, 'DISTANCE_ACCURACY_VALUE', '');
#443 = (
   NAMED_UNIT (*)
   SI_UNIT ($, .STERADIAN.)
   SOLID_ANGLE_UNIT ()
);
#444 = (
   NAMED_UNIT (*)
   PLANE_ANGLE_UNIT ()
   SI_UNIT ($, .RADIAN.)
);
#445 = SHAPE_REPRESENTATION('', (#460), #440);
#446 = PRODUCT_DEFINITION_SHAPE('', '', #447);
#447 = PRODUCT_DEFINITION('', '', #450, #454);
#448 = APPLICATION_CONTEXT('configuration controlled 3D designs of mechanical parts and assemblies');
#449 = APPLICATION_PROTOCOL_DEFINITION('International Standard', 'automotive_design', 2002, #448);
#450 = PRODUCT_DEFINITION_FORMATION_WITH_SPECIFIED_SOURCE('', '', #451, .NOT_KNOWN.);
#451 = PRODUCT('MeshVerify', 'MeshVerify', '', (#452));
#452 = PRODUCT_CONTEXT('', #448, 'mechanical');
#453 = PRODUCT_RELATED_PRODUCT_CATEGORY('detail', '', (#451));
#454 = PRODUCT_DEFINITION_CONTEXT('part definition', #448, 'design');
#455 = SHAPE_DEFINITION_REPRESENTATION(#446, #445);
#456 = SHAPE_REPRESENTATION_RELATIONSHIP('', '', #445, #457);
#457 = SHAPE_REPRESENTATION('', (#439), #440);
#458 = SHAPE_REPRESENTATION_RELATIONSHIP('', '', #445, #459);
#459 = ADVANCED_BREP_SHAPE_REPRESENTATION('', (#1, #148, #294, #366), #440);
#460 = AXIS2_PLACEMENT_3D('', #461, #462, #463);
#461 = CARTESIAN_POINT('', (0., 0., 0.));
#462 = DIRECTION('', (0., 0., 1.));
#463 = DIRECTION('', (1., 0., 0.));
ENDSEC;
END-ISO-10303-21;
