ISO-10303-21;
HEADER;
FILE_DESCRIPTION(('STEP'), '1');
FILE_NAME('CopyExtrusion', '2026-04-15T16:17:49', (''), (''), 'Express 3.1.2.0', 'Express Tool', 'Unknown');
FILE_SCHEMA(('AUTOMOTIVE_DESIGN'));
ENDSEC;

DATA;
#1 = MANIFOLD_SOLID_BREP('Solid', #2);
#2 = CLOSED_SHELL('', (#3, #53, #103, #123, #139, #159, #175, #187));
#3 = ADVANCED_FACE('', (#4), #48, .T.);
#4 = FACE_OUTER_BOUND('', #5, .T.);
#5 = EDGE_LOOP('', (#6, #15, #22, #29, #36, #43));
#6 = ORIENTED_EDGE('', *, *, #7, .T.);
#7 = EDGE_CURVE('', #8, #10, #12, .T.);
#8 = VERTEX_POINT('', #9);
#9 = CARTESIAN_POINT('', (0., 40., 25.));
#10 = VERTEX_POINT('', #11);
#11 = CARTESIAN_POINT('', (0., 0., 25.));
#12 = B_SPLINE_CURVE_WITH_KNOTS('', 1, (#13, #14), .UNSPECIFIED., .F., .U., (2, 2), (0., 1.), .UNSPECIFIED.);
#13 = CARTESIAN_POINT('', (0., 40., 25.));
#14 = CARTESIAN_POINT('', (0., 0., 25.));
#15 = ORIENTED_EDGE('', *, *, #16, .T.);
#16 = EDGE_CURVE('', #10, #17, #19, .T.);
#17 = VERTEX_POINT('', #18);
#18 = CARTESIAN_POINT('', (40., 0., 25.));
#19 = B_SPLINE_CURVE_WITH_KNOTS('', 1, (#20, #21), .UNSPECIFIED., .F., .U., (2, 2), (0., 1.), .UNSPECIFIED.);
#20 = CARTESIAN_POINT('', (0., 0., 25.));
#21 = CARTESIAN_POINT('', (40., 0., 25.));
#22 = ORIENTED_EDGE('', *, *, #23, .T.);
#23 = EDGE_CURVE('', #17, #24, #26, .T.);
#24 = VERTEX_POINT('', #25);
#25 = CARTESIAN_POINT('', (40., 15., 25.));
#26 = B_SPLINE_CURVE_WITH_KNOTS('', 1, (#27, #28), .UNSPECIFIED., .F., .U., (2, 2), (0., 1.), .UNSPECIFIED.);
#27 = CARTESIAN_POINT('', (40., 0., 25.));
#28 = CARTESIAN_POINT('', (40., 15., 25.));
#29 = ORIENTED_EDGE('', *, *, #30, .T.);
#30 = EDGE_CURVE('', #24, #31, #33, .T.);
#31 = VERTEX_POINT('', #32);
#32 = CARTESIAN_POINT('', (15., 15., 25.));
#33 = B_SPLINE_CURVE_WITH_KNOTS('', 1, (#34, #35), .UNSPECIFIED., .F., .U., (2, 2), (0., 1.), .UNSPECIFIED.);
#34 = CARTESIAN_POINT('', (40., 15., 25.));
#35 = CARTESIAN_POINT('', (15., 15., 25.));
#36 = ORIENTED_EDGE('', *, *, #37, .T.);
#37 = EDGE_CURVE('', #31, #38, #40, .T.);
#38 = VERTEX_POINT('', #39);
#39 = CARTESIAN_POINT('', (15., 40., 25.));
#40 = B_SPLINE_CURVE_WITH_KNOTS('', 1, (#41, #42), .UNSPECIFIED., .F., .U., (2, 2), (0., 1.), .UNSPECIFIED.);
#41 = CARTESIAN_POINT('', (15., 15., 25.));
#42 = CARTESIAN_POINT('', (15., 40., 25.));
#43 = ORIENTED_EDGE('', *, *, #44, .T.);
#44 = EDGE_CURVE('', #38, #8, #45, .T.);
#45 = B_SPLINE_CURVE_WITH_KNOTS('', 1, (#46, #47), .UNSPECIFIED., .F., .U., (2, 2), (0., 1.), .UNSPECIFIED.);
#46 = CARTESIAN_POINT('', (15., 40., 25.));
#47 = CARTESIAN_POINT('', (0., 40., 25.));
#48 = B_SPLINE_SURFACE_WITH_KNOTS('', 1, 1, ((#49, #50), (#51, #52)), .UNSPECIFIED., .F., .F., .U., (2, 2), (2, 2), (0., 1.), (0., 1.), .UNSPECIFIED.);
#49 = CARTESIAN_POINT('', (51.1126983722081, -11.1126983722081, 25.));
#50 = CARTESIAN_POINT('', (-11.1126983722081, -11.1126983722081, 25.));
#51 = CARTESIAN_POINT('', (51.1126983722081, 51.1126983722081, 25.));
#52 = CARTESIAN_POINT('', (-11.1126983722081, 51.1126983722081, 25.));
#53 = ADVANCED_FACE('', (#54), #98, .T.);
#54 = FACE_OUTER_BOUND('', #55, .T.);
#55 = EDGE_LOOP('', (#56, #65, #72, #79, #86, #93));
#56 = ORIENTED_EDGE('', *, *, #57, .F.);
#57 = EDGE_CURVE('', #58, #60, #62, .T.);
#58 = VERTEX_POINT('', #59);
#59 = CARTESIAN_POINT('', (0., 40., 0.));
#60 = VERTEX_POINT('', #61);
#61 = CARTESIAN_POINT('', (0., 0., 0.));
#62 = B_SPLINE_CURVE_WITH_KNOTS('', 1, (#63, #64), .UNSPECIFIED., .F., .U., (2, 2), (0., 1.), .UNSPECIFIED.);
#63 = CARTESIAN_POINT('', (0., 40., 0.));
#64 = CARTESIAN_POINT('', (0., 0., 0.));
#65 = ORIENTED_EDGE('', *, *, #66, .F.);
#66 = EDGE_CURVE('', #67, #58, #69, .T.);
#67 = VERTEX_POINT('', #68);
#68 = CARTESIAN_POINT('', (15., 40., 0.));
#69 = B_SPLINE_CURVE_WITH_KNOTS('', 1, (#70, #71), .UNSPECIFIED., .F., .U., (2, 2), (0., 1.), .UNSPECIFIED.);
#70 = CARTESIAN_POINT('', (15., 40., 0.));
#71 = CARTESIAN_POINT('', (0., 40., 0.));
#72 = ORIENTED_EDGE('', *, *, #73, .F.);
#73 = EDGE_CURVE('', #74, #67, #76, .T.);
#74 = VERTEX_POINT('', #75);
#75 = CARTESIAN_POINT('', (15., 15., 0.));
#76 = B_SPLINE_CURVE_WITH_KNOTS('', 1, (#77, #78), .UNSPECIFIED., .F., .U., (2, 2), (0., 1.), .UNSPECIFIED.);
#77 = CARTESIAN_POINT('', (15., 15., 0.));
#78 = CARTESIAN_POINT('', (15., 40., 0.));
#79 = ORIENTED_EDGE('', *, *, #80, .F.);
#80 = EDGE_CURVE('', #81, #74, #83, .T.);
#81 = VERTEX_POINT('', #82);
#82 = CARTESIAN_POINT('', (40., 15., 0.));
#83 = B_SPLINE_CURVE_WITH_KNOTS('', 1, (#84, #85), .UNSPECIFIED., .F., .U., (2, 2), (0., 1.), .UNSPECIFIED.);
#84 = CARTESIAN_POINT('', (40., 15., 0.));
#85 = CARTESIAN_POINT('', (15., 15., 0.));
#86 = ORIENTED_EDGE('', *, *, #87, .F.);
#87 = EDGE_CURVE('', #88, #81, #90, .T.);
#88 = VERTEX_POINT('', #89);
#89 = CARTESIAN_POINT('', (40., 0., 0.));
#90 = B_SPLINE_CURVE_WITH_KNOTS('', 1, (#91, #92), .UNSPECIFIED., .F., .U., (2, 2), (0., 1.), .UNSPECIFIED.);
#91 = CARTESIAN_POINT('', (40., 0., 0.));
#92 = CARTESIAN_POINT('', (40., 15., 0.));
#93 = ORIENTED_EDGE('', *, *, #94, .F.);
#94 = EDGE_CURVE('', #60, #88, #95, .T.);
#95 = B_SPLINE_CURVE_WITH_KNOTS('', 1, (#96, #97), .UNSPECIFIED., .F., .U., (2, 2), (0., 1.), .UNSPECIFIED.);
#96 = CARTESIAN_POINT('', (0., 0., 0.));
#97 = CARTESIAN_POINT('', (40., 0., 0.));
#98 = B_SPLINE_SURFACE_WITH_KNOTS('', 1, 1, ((#99, #100), (#101, #102)), .UNSPECIFIED., .F., .F., .U., (2, 2), (2, 2), (0., 1.), (0., 1.), .UNSPECIFIED.);
#99 = CARTESIAN_POINT('', (51.1126983722081, -11.1126983722081, 0.));
#100 = CARTESIAN_POINT('', (51.1126983722081, 51.1126983722081, 0.));
#101 = CARTESIAN_POINT('', (-11.1126983722081, -11.1126983722081, 0.));
#102 = CARTESIAN_POINT('', (-11.1126983722081, 51.1126983722081, 0.));
#103 = ADVANCED_FACE('', (#104), #118, .T.);
#104 = FACE_OUTER_BOUND('', #105, .T.);
#105 = EDGE_LOOP('', (#106, #111, #112, #117));
#106 = ORIENTED_EDGE('', *, *, #107, .F.);
#107 = EDGE_CURVE('', #58, #8, #108, .T.);
#108 = B_SPLINE_CURVE_WITH_KNOTS('', 1, (#109, #110), .UNSPECIFIED., .F., .U., (2, 2), (0., 1.), .UNSPECIFIED.);
#109 = CARTESIAN_POINT('', (0., 40., 0.));
#110 = CARTESIAN_POINT('', (0., 40., 25.));
#111 = ORIENTED_EDGE('', *, *, #57, .T.);
#112 = ORIENTED_EDGE('', *, *, #113, .T.);
#113 = EDGE_CURVE('', #60, #10, #114, .T.);
#114 = B_SPLINE_CURVE_WITH_KNOTS('', 1, (#115, #116), .UNSPECIFIED., .F., .U., (2, 2), (0., 1.), .UNSPECIFIED.);
#115 = CARTESIAN_POINT('', (0., 0., 0.));
#116 = CARTESIAN_POINT('', (0., 0., 25.));
#117 = ORIENTED_EDGE('', *, *, #7, .F.);
#118 = B_SPLINE_SURFACE_WITH_KNOTS('', 1, 1, ((#119, #120), (#121, #122)), .UNSPECIFIED., .F., .F., .U., (2, 2), (2, 2), (0., 1.), (0., 1.), .UNSPECIFIED.);
#119 = CARTESIAN_POINT('', (0., 40., 0.));
#120 = CARTESIAN_POINT('', (0., 40., 25.));
#121 = CARTESIAN_POINT('', (0., 0., 0.));
#122 = CARTESIAN_POINT('', (0., 0., 25.));
#123 = ADVANCED_FACE('', (#124), #134, .T.);
#124 = FACE_OUTER_BOUND('', #125, .T.);
#125 = EDGE_LOOP('', (#126, #127, #128, #133));
#126 = ORIENTED_EDGE('', *, *, #113, .F.);
#127 = ORIENTED_EDGE('', *, *, #94, .T.);
#128 = ORIENTED_EDGE('', *, *, #129, .T.);
#129 = EDGE_CURVE('', #88, #17, #130, .T.);
#130 = B_SPLINE_CURVE_WITH_KNOTS('', 1, (#131, #132), .UNSPECIFIED., .F., .U., (2, 2), (0., 1.), .UNSPECIFIED.);
#131 = CARTESIAN_POINT('', (40., 0., 0.));
#132 = CARTESIAN_POINT('', (40., 0., 25.));
#133 = ORIENTED_EDGE('', *, *, #16, .F.);
#134 = B_SPLINE_SURFACE_WITH_KNOTS('', 1, 1, ((#135, #136), (#137, #138)), .UNSPECIFIED., .F., .F., .U., (2, 2), (2, 2), (0., 1.), (0., 1.), .UNSPECIFIED.);
#135 = CARTESIAN_POINT('', (0., 0., 0.));
#136 = CARTESIAN_POINT('', (0., 0., 25.));
#137 = CARTESIAN_POINT('', (40., 0., 0.));
#138 = CARTESIAN_POINT('', (40., 0., 25.));
#139 = ADVANCED_FACE('', (#140), #154, .T.);
#140 = FACE_OUTER_BOUND('', #141, .T.);
#141 = EDGE_LOOP('', (#142, #147, #148, #153));
#142 = ORIENTED_EDGE('', *, *, #143, .F.);
#143 = EDGE_CURVE('', #74, #31, #144, .T.);
#144 = B_SPLINE_CURVE_WITH_KNOTS('', 1, (#145, #146), .UNSPECIFIED., .F., .U., (2, 2), (0., 1.), .UNSPECIFIED.);
#145 = CARTESIAN_POINT('', (15., 15., 0.));
#146 = CARTESIAN_POINT('', (15., 15., 25.));
#147 = ORIENTED_EDGE('', *, *, #73, .T.);
#148 = ORIENTED_EDGE('', *, *, #149, .T.);
#149 = EDGE_CURVE('', #67, #38, #150, .T.);
#150 = B_SPLINE_CURVE_WITH_KNOTS('', 1, (#151, #152), .UNSPECIFIED., .F., .U., (2, 2), (0., 1.), .UNSPECIFIED.);
#151 = CARTESIAN_POINT('', (15., 40., 0.));
#152 = CARTESIAN_POINT('', (15., 40., 25.));
#153 = ORIENTED_EDGE('', *, *, #37, .F.);
#154 = B_SPLINE_SURFACE_WITH_KNOTS('', 1, 1, ((#155, #156), (#157, #158)), .UNSPECIFIED., .F., .F., .U., (2, 2), (2, 2), (0., 1.), (0., 1.), .UNSPECIFIED.);
#155 = CARTESIAN_POINT('', (15., 15., 0.));
#156 = CARTESIAN_POINT('', (15., 15., 25.));
#157 = CARTESIAN_POINT('', (15., 40., 0.));
#158 = CARTESIAN_POINT('', (15., 40., 25.));
#159 = ADVANCED_FACE('', (#160), #170, .T.);
#160 = FACE_OUTER_BOUND('', #161, .T.);
#161 = EDGE_LOOP('', (#162, #167, #168, #169));
#162 = ORIENTED_EDGE('', *, *, #163, .F.);
#163 = EDGE_CURVE('', #81, #24, #164, .T.);
#164 = B_SPLINE_CURVE_WITH_KNOTS('', 1, (#165, #166), .UNSPECIFIED., .F., .U., (2, 2), (0., 1.), .UNSPECIFIED.);
#165 = CARTESIAN_POINT('', (40., 15., 0.));
#166 = CARTESIAN_POINT('', (40., 15., 25.));
#167 = ORIENTED_EDGE('', *, *, #80, .T.);
#168 = ORIENTED_EDGE('', *, *, #143, .T.);
#169 = ORIENTED_EDGE('', *, *, #30, .F.);
#170 = B_SPLINE_SURFACE_WITH_KNOTS('', 1, 1, ((#171, #172), (#173, #174)), .UNSPECIFIED., .F., .F., .U., (2, 2), (2, 2), (0., 1.), (0., 1.), .UNSPECIFIED.);
#171 = CARTESIAN_POINT('', (40., 15., 0.));
#172 = CARTESIAN_POINT('', (40., 15., 25.));
#173 = CARTESIAN_POINT('', (15., 15., 0.));
#174 = CARTESIAN_POINT('', (15., 15., 25.));
#175 = ADVANCED_FACE('', (#176), #182, .T.);
#176 = FACE_OUTER_BOUND('', #177, .T.);
#177 = EDGE_LOOP('', (#178, #179, #180, #181));
#178 = ORIENTED_EDGE('', *, *, #149, .F.);
#179 = ORIENTED_EDGE('', *, *, #66, .T.);
#180 = ORIENTED_EDGE('', *, *, #107, .T.);
#181 = ORIENTED_EDGE('', *, *, #44, .F.);
#182 = B_SPLINE_SURFACE_WITH_KNOTS('', 1, 1, ((#183, #184), (#185, #186)), .UNSPECIFIED., .F., .F., .U., (2, 2), (2, 2), (0., 1.), (0., 1.), .UNSPECIFIED.);
#183 = CARTESIAN_POINT('', (15., 40., 0.));
#184 = CARTESIAN_POINT('', (15., 40., 25.));
#185 = CARTESIAN_POINT('', (0., 40., 0.));
#186 = CARTESIAN_POINT('', (0., 40., 25.));
#187 = ADVANCED_FACE('', (#188), #194, .T.);
#188 = FACE_OUTER_BOUND('', #189, .T.);
#189 = EDGE_LOOP('', (#190, #191, #192, #193));
#190 = ORIENTED_EDGE('', *, *, #129, .F.);
#191 = ORIENTED_EDGE('', *, *, #87, .T.);
#192 = ORIENTED_EDGE('', *, *, #163, .T.);
#193 = ORIENTED_EDGE('', *, *, #23, .F.);
#194 = B_SPLINE_SURFACE_WITH_KNOTS('', 1, 1, ((#195, #196), (#197, #198)), .UNSPECIFIED., .F., .F., .U., (2, 2), (2, 2), (0., 1.), (0., 1.), .UNSPECIFIED.);
#195 = CARTESIAN_POINT('', (40., 0., 0.));
#196 = CARTESIAN_POINT('', (40., 0., 25.));
#197 = CARTESIAN_POINT('', (40., 15., 0.));
#198 = CARTESIAN_POINT('', (40., 15., 25.));
#199 = DRAUGHTING_MODEL('', (#207, #413, #559), #562);
#200 = PRESENTATION_STYLE_ASSIGNMENT((#201));
#201 = SURFACE_STYLE_USAGE(.POSITIVE., #202);
#202 = SURFACE_SIDE_STYLE('', (#203));
#203 = SURFACE_STYLE_FILL_AREA(#204);
#204 = FILL_AREA_STYLE('', (#205));
#205 = FILL_AREA_STYLE_COLOUR('', #206);
#206 = COLOUR_RGB('', 0.50196078431373, 0.50196078431373, 0.50196078431373);
#207 = STYLED_ITEM('', (#200), #1);
#208 = MANIFOLD_SOLID_BREP('EntityObjCopy', #209);
#209 = CLOSED_SHELL('', (#210, #260, #310, #330, #346, #366, #382, #394));
#210 = ADVANCED_FACE('', (#211), #255, .T.);
#211 = FACE_OUTER_BOUND('', #212, .T.);
#212 = EDGE_LOOP('', (#213, #222, #229, #236, #243, #250));
#213 = ORIENTED_EDGE('', *, *, #214, .T.);
#214 = EDGE_CURVE('', #215, #217, #219, .T.);
#215 = VERTEX_POINT('', #216);
#216 = CARTESIAN_POINT('', (60., 40., 25.));
#217 = VERTEX_POINT('', #218);
#218 = CARTESIAN_POINT('', (60., 0., 25.));
#219 = B_SPLINE_CURVE_WITH_KNOTS('', 1, (#220, #221), .UNSPECIFIED., .F., .U., (2, 2), (0., 1.), .UNSPECIFIED.);
#220 = CARTESIAN_POINT('', (60., 40., 25.));
#221 = CARTESIAN_POINT('', (60., 0., 25.));
#222 = ORIENTED_EDGE('', *, *, #223, .T.);
#223 = EDGE_CURVE('', #217, #224, #226, .T.);
#224 = VERTEX_POINT('', #225);
#225 = CARTESIAN_POINT('', (100., 0., 25.));
#226 = B_SPLINE_CURVE_WITH_KNOTS('', 1, (#227, #228), .UNSPECIFIED., .F., .U., (2, 2), (0., 1.), .UNSPECIFIED.);
#227 = CARTESIAN_POINT('', (60., 0., 25.));
#228 = CARTESIAN_POINT('', (100., 0., 25.));
#229 = ORIENTED_EDGE('', *, *, #230, .T.);
#230 = EDGE_CURVE('', #224, #231, #233, .T.);
#231 = VERTEX_POINT('', #232);
#232 = CARTESIAN_POINT('', (100., 15., 25.));
#233 = B_SPLINE_CURVE_WITH_KNOTS('', 1, (#234, #235), .UNSPECIFIED., .F., .U., (2, 2), (0., 1.), .UNSPECIFIED.);
#234 = CARTESIAN_POINT('', (100., 0., 25.));
#235 = CARTESIAN_POINT('', (100., 15., 25.));
#236 = ORIENTED_EDGE('', *, *, #237, .T.);
#237 = EDGE_CURVE('', #231, #238, #240, .T.);
#238 = VERTEX_POINT('', #239);
#239 = CARTESIAN_POINT('', (75., 15., 25.));
#240 = B_SPLINE_CURVE_WITH_KNOTS('', 1, (#241, #242), .UNSPECIFIED., .F., .U., (2, 2), (0., 1.), .UNSPECIFIED.);
#241 = CARTESIAN_POINT('', (100., 15., 25.));
#242 = CARTESIAN_POINT('', (75., 15., 25.));
#243 = ORIENTED_EDGE('', *, *, #244, .T.);
#244 = EDGE_CURVE('', #238, #245, #247, .T.);
#245 = VERTEX_POINT('', #246);
#246 = CARTESIAN_POINT('', (75., 40., 25.));
#247 = B_SPLINE_CURVE_WITH_KNOTS('', 1, (#248, #249), .UNSPECIFIED., .F., .U., (2, 2), (0., 1.), .UNSPECIFIED.);
#248 = CARTESIAN_POINT('', (75., 15., 25.));
#249 = CARTESIAN_POINT('', (75., 40., 25.));
#250 = ORIENTED_EDGE('', *, *, #251, .T.);
#251 = EDGE_CURVE('', #245, #215, #252, .T.);
#252 = B_SPLINE_CURVE_WITH_KNOTS('', 1, (#253, #254), .UNSPECIFIED., .F., .U., (2, 2), (0., 1.), .UNSPECIFIED.);
#253 = CARTESIAN_POINT('', (75., 40., 25.));
#254 = CARTESIAN_POINT('', (60., 40., 25.));
#255 = B_SPLINE_SURFACE_WITH_KNOTS('', 1, 1, ((#256, #257), (#258, #259)), .UNSPECIFIED., .F., .F., .U., (2, 2), (2, 2), (0., 1.), (0., 1.), .UNSPECIFIED.);
#256 = CARTESIAN_POINT('', (111.112698372208, -11.1126983722081, 25.));
#257 = CARTESIAN_POINT('', (48.8873016277919, -11.1126983722081, 25.));
#258 = CARTESIAN_POINT('', (111.112698372208, 51.1126983722081, 25.));
#259 = CARTESIAN_POINT('', (48.8873016277919, 51.1126983722081, 25.));
#260 = ADVANCED_FACE('', (#261), #305, .T.);
#261 = FACE_OUTER_BOUND('', #262, .T.);
#262 = EDGE_LOOP('', (#263, #272, #279, #286, #293, #300));
#263 = ORIENTED_EDGE('', *, *, #264, .F.);
#264 = EDGE_CURVE('', #265, #267, #269, .T.);
#265 = VERTEX_POINT('', #266);
#266 = CARTESIAN_POINT('', (60., 40., 0.));
#267 = VERTEX_POINT('', #268);
#268 = CARTESIAN_POINT('', (60., 0., 0.));
#269 = B_SPLINE_CURVE_WITH_KNOTS('', 1, (#270, #271), .UNSPECIFIED., .F., .U., (2, 2), (0., 1.), .UNSPECIFIED.);
#270 = CARTESIAN_POINT('', (60., 40., 0.));
#271 = CARTESIAN_POINT('', (60., 0., 0.));
#272 = ORIENTED_EDGE('', *, *, #273, .F.);
#273 = EDGE_CURVE('', #274, #265, #276, .T.);
#274 = VERTEX_POINT('', #275);
#275 = CARTESIAN_POINT('', (75., 40., 0.));
#276 = B_SPLINE_CURVE_WITH_KNOTS('', 1, (#277, #278), .UNSPECIFIED., .F., .U., (2, 2), (0., 1.), .UNSPECIFIED.);
#277 = CARTESIAN_POINT('', (75., 40., 0.));
#278 = CARTESIAN_POINT('', (60., 40., 0.));
#279 = ORIENTED_EDGE('', *, *, #280, .F.);
#280 = EDGE_CURVE('', #281, #274, #283, .T.);
#281 = VERTEX_POINT('', #282);
#282 = CARTESIAN_POINT('', (75., 15., 0.));
#283 = B_SPLINE_CURVE_WITH_KNOTS('', 1, (#284, #285), .UNSPECIFIED., .F., .U., (2, 2), (0., 1.), .UNSPECIFIED.);
#284 = CARTESIAN_POINT('', (75., 15., 0.));
#285 = CARTESIAN_POINT('', (75., 40., 0.));
#286 = ORIENTED_EDGE('', *, *, #287, .F.);
#287 = EDGE_CURVE('', #288, #281, #290, .T.);
#288 = VERTEX_POINT('', #289);
#289 = CARTESIAN_POINT('', (100., 15., 0.));
#290 = B_SPLINE_CURVE_WITH_KNOTS('', 1, (#291, #292), .UNSPECIFIED., .F., .U., (2, 2), (0., 1.), .UNSPECIFIED.);
#291 = CARTESIAN_POINT('', (100., 15., 0.));
#292 = CARTESIAN_POINT('', (75., 15., 0.));
#293 = ORIENTED_EDGE('', *, *, #294, .F.);
#294 = EDGE_CURVE('', #295, #288, #297, .T.);
#295 = VERTEX_POINT('', #296);
#296 = CARTESIAN_POINT('', (100., 0., 0.));
#297 = B_SPLINE_CURVE_WITH_KNOTS('', 1, (#298, #299), .UNSPECIFIED., .F., .U., (2, 2), (0., 1.), .UNSPECIFIED.);
#298 = CARTESIAN_POINT('', (100., 0., 0.));
#299 = CARTESIAN_POINT('', (100., 15., 0.));
#300 = ORIENTED_EDGE('', *, *, #301, .F.);
#301 = EDGE_CURVE('', #267, #295, #302, .T.);
#302 = B_SPLINE_CURVE_WITH_KNOTS('', 1, (#303, #304), .UNSPECIFIED., .F., .U., (2, 2), (0., 1.), .UNSPECIFIED.);
#303 = CARTESIAN_POINT('', (60., 0., 0.));
#304 = CARTESIAN_POINT('', (100., 0., 0.));
#305 = B_SPLINE_SURFACE_WITH_KNOTS('', 1, 1, ((#306, #307), (#308, #309)), .UNSPECIFIED., .F., .F., .U., (2, 2), (2, 2), (0., 1.), (0., 1.), .UNSPECIFIED.);
#306 = CARTESIAN_POINT('', (111.112698372208, -11.1126983722081, 0.));
#307 = CARTESIAN_POINT('', (111.112698372208, 51.1126983722081, 0.));
#308 = CARTESIAN_POINT('', (48.8873016277919, -11.1126983722081, 0.));
#309 = CARTESIAN_POINT('', (48.8873016277919, 51.1126983722081, 0.));
#310 = ADVANCED_FACE('', (#311), #325, .T.);
#311 = FACE_OUTER_BOUND('', #312, .T.);
#312 = EDGE_LOOP('', (#313, #318, #319, #324));
#313 = ORIENTED_EDGE('', *, *, #314, .F.);
#314 = EDGE_CURVE('', #265, #215, #315, .T.);
#315 = B_SPLINE_CURVE_WITH_KNOTS('', 1, (#316, #317), .UNSPECIFIED., .F., .U., (2, 2), (0., 1.), .UNSPECIFIED.);
#316 = CARTESIAN_POINT('', (60., 40., 0.));
#317 = CARTESIAN_POINT('', (60., 40., 25.));
#318 = ORIENTED_EDGE('', *, *, #264, .T.);
#319 = ORIENTED_EDGE('', *, *, #320, .T.);
#320 = EDGE_CURVE('', #267, #217, #321, .T.);
#321 = B_SPLINE_CURVE_WITH_KNOTS('', 1, (#322, #323), .UNSPECIFIED., .F., .U., (2, 2), (0., 1.), .UNSPECIFIED.);
#322 = CARTESIAN_POINT('', (60., 0., 0.));
#323 = CARTESIAN_POINT('', (60., 0., 25.));
#324 = ORIENTED_EDGE('', *, *, #214, .F.);
#325 = B_SPLINE_SURFACE_WITH_KNOTS('', 1, 1, ((#326, #327), (#328, #329)), .UNSPECIFIED., .F., .F., .U., (2, 2), (2, 2), (0., 1.), (0., 1.), .UNSPECIFIED.);
#326 = CARTESIAN_POINT('', (60., 40., 0.));
#327 = CARTESIAN_POINT('', (60., 40., 25.));
#328 = CARTESIAN_POINT('', (60., 0., 0.));
#329 = CARTESIAN_POINT('', (60., 0., 25.));
#330 = ADVANCED_FACE('', (#331), #341, .T.);
#331 = FACE_OUTER_BOUND('', #332, .T.);
#332 = EDGE_LOOP('', (#333, #334, #335, #340));
#333 = ORIENTED_EDGE('', *, *, #320, .F.);
#334 = ORIENTED_EDGE('', *, *, #301, .T.);
#335 = ORIENTED_EDGE('', *, *, #336, .T.);
#336 = EDGE_CURVE('', #295, #224, #337, .T.);
#337 = B_SPLINE_CURVE_WITH_KNOTS('', 1, (#338, #339), .UNSPECIFIED., .F., .U., (2, 2), (0., 1.), .UNSPECIFIED.);
#338 = CARTESIAN_POINT('', (100., 0., 0.));
#339 = CARTESIAN_POINT('', (100., 0., 25.));
#340 = ORIENTED_EDGE('', *, *, #223, .F.);
#341 = B_SPLINE_SURFACE_WITH_KNOTS('', 1, 1, ((#342, #343), (#344, #345)), .UNSPECIFIED., .F., .F., .U., (2, 2), (2, 2), (0., 1.), (0., 1.), .UNSPECIFIED.);
#342 = CARTESIAN_POINT('', (60., 0., 0.));
#343 = CARTESIAN_POINT('', (60., 0., 25.));
#344 = CARTESIAN_POINT('', (100., 0., 0.));
#345 = CARTESIAN_POINT('', (100., 0., 25.));
#346 = ADVANCED_FACE('', (#347), #361, .T.);
#347 = FACE_OUTER_BOUND('', #348, .T.);
#348 = EDGE_LOOP('', (#349, #354, #355, #360));
#349 = ORIENTED_EDGE('', *, *, #350, .F.);
#350 = EDGE_CURVE('', #281, #238, #351, .T.);
#351 = B_SPLINE_CURVE_WITH_KNOTS('', 1, (#352, #353), .UNSPECIFIED., .F., .U., (2, 2), (0., 1.), .UNSPECIFIED.);
#352 = CARTESIAN_POINT('', (75., 15., 0.));
#353 = CARTESIAN_POINT('', (75., 15., 25.));
#354 = ORIENTED_EDGE('', *, *, #280, .T.);
#355 = ORIENTED_EDGE('', *, *, #356, .T.);
#356 = EDGE_CURVE('', #274, #245, #357, .T.);
#357 = B_SPLINE_CURVE_WITH_KNOTS('', 1, (#358, #359), .UNSPECIFIED., .F., .U., (2, 2), (0., 1.), .UNSPECIFIED.);
#358 = CARTESIAN_POINT('', (75., 40., 0.));
#359 = CARTESIAN_POINT('', (75., 40., 25.));
#360 = ORIENTED_EDGE('', *, *, #244, .F.);
#361 = B_SPLINE_SURFACE_WITH_KNOTS('', 1, 1, ((#362, #363), (#364, #365)), .UNSPECIFIED., .F., .F., .U., (2, 2), (2, 2), (0., 1.), (0., 1.), .UNSPECIFIED.);
#362 = CARTESIAN_POINT('', (75., 15., 0.));
#363 = CARTESIAN_POINT('', (75., 15., 25.));
#364 = CARTESIAN_POINT('', (75., 40., 0.));
#365 = CARTESIAN_POINT('', (75., 40., 25.));
#366 = ADVANCED_FACE('', (#367), #377, .T.);
#367 = FACE_OUTER_BOUND('', #368, .T.);
#368 = EDGE_LOOP('', (#369, #374, #375, #376));
#369 = ORIENTED_EDGE('', *, *, #370, .F.);
#370 = EDGE_CURVE('', #288, #231, #371, .T.);
#371 = B_SPLINE_CURVE_WITH_KNOTS('', 1, (#372, #373), .UNSPECIFIED., .F., .U., (2, 2), (0., 1.), .UNSPECIFIED.);
#372 = CARTESIAN_POINT('', (100., 15., 0.));
#373 = CARTESIAN_POINT('', (100., 15., 25.));
#374 = ORIENTED_EDGE('', *, *, #287, .T.);
#375 = ORIENTED_EDGE('', *, *, #350, .T.);
#376 = ORIENTED_EDGE('', *, *, #237, .F.);
#377 = B_SPLINE_SURFACE_WITH_KNOTS('', 1, 1, ((#378, #379), (#380, #381)), .UNSPECIFIED., .F., .F., .U., (2, 2), (2, 2), (0., 1.), (0., 1.), .UNSPECIFIED.);
#378 = CARTESIAN_POINT('', (100., 15., 0.));
#379 = CARTESIAN_POINT('', (100., 15., 25.));
#380 = CARTESIAN_POINT('', (75., 15., 0.));
#381 = CARTESIAN_POINT('', (75., 15., 25.));
#382 = ADVANCED_FACE('', (#383), #389, .T.);
#383 = FACE_OUTER_BOUND('', #384, .T.);
#384 = EDGE_LOOP('', (#385, #386, #387, #388));
#385 = ORIENTED_EDGE('', *, *, #356, .F.);
#386 = ORIENTED_EDGE('', *, *, #273, .T.);
#387 = ORIENTED_EDGE('', *, *, #314, .T.);
#388 = ORIENTED_EDGE('', *, *, #251, .F.);
#389 = B_SPLINE_SURFACE_WITH_KNOTS('', 1, 1, ((#390, #391), (#392, #393)), .UNSPECIFIED., .F., .F., .U., (2, 2), (2, 2), (0., 1.), (0., 1.), .UNSPECIFIED.);
#390 = CARTESIAN_POINT('', (75., 40., 0.));
#391 = CARTESIAN_POINT('', (75., 40., 25.));
#392 = CARTESIAN_POINT('', (60., 40., 0.));
#393 = CARTESIAN_POINT('', (60., 40., 25.));
#394 = ADVANCED_FACE('', (#395), #401, .T.);
#395 = FACE_OUTER_BOUND('', #396, .T.);
#396 = EDGE_LOOP('', (#397, #398, #399, #400));
#397 = ORIENTED_EDGE('', *, *, #336, .F.);
#398 = ORIENTED_EDGE('', *, *, #294, .T.);
#399 = ORIENTED_EDGE('', *, *, #370, .T.);
#400 = ORIENTED_EDGE('', *, *, #230, .F.);
#401 = B_SPLINE_SURFACE_WITH_KNOTS('', 1, 1, ((#402, #403), (#404, #405)), .UNSPECIFIED., .F., .F., .U., (2, 2), (2, 2), (0., 1.), (0., 1.), .UNSPECIFIED.);
#402 = CARTESIAN_POINT('', (100., 0., 0.));
#403 = CARTESIAN_POINT('', (100., 0., 25.));
#404 = CARTESIAN_POINT('', (100., 15., 0.));
#405 = CARTESIAN_POINT('', (100., 15., 25.));
#406 = PRESENTATION_STYLE_ASSIGNMENT((#407));
#407 = SURFACE_STYLE_USAGE(.POSITIVE., #408);
#408 = SURFACE_SIDE_STYLE('', (#409));
#409 = SURFACE_STYLE_FILL_AREA(#410);
#410 = FILL_AREA_STYLE('', (#411));
#411 = FILL_AREA_STYLE_COLOUR('', #412);
#412 = COLOUR_RGB('', 0.50196078431373, 0.50196078431373, 0.50196078431373);
#413 = STYLED_ITEM('', (#406), #208);
#414 = MANIFOLD_SOLID_BREP('Solid0', #415);
#415 = CLOSED_SHELL('', (#416, #452, #480, #508, #528, #540));
#416 = ADVANCED_FACE('', (#417), #447, .T.);
#417 = FACE_OUTER_BOUND('', #418, .T.);
#418 = EDGE_LOOP('', (#419, #428, #435, #442));
#419 = ORIENTED_EDGE('', *, *, #420, .T.);
#420 = EDGE_CURVE('', #421, #423, #425, .T.);
#421 = VERTEX_POINT('', #422);
#422 = CARTESIAN_POINT('', (-0.5, 0.5, -0.5));
#423 = VERTEX_POINT('', #424);
#424 = CARTESIAN_POINT('', (-0.5, 0.5, 0.5));
#425 = B_SPLINE_CURVE_WITH_KNOTS('', 1, (#426, #427), .UNSPECIFIED., .F., .U., (2, 2), (0., 1.), .UNSPECIFIED.);
#426 = CARTESIAN_POINT('', (-0.5, 0.5, -0.5));
#427 = CARTESIAN_POINT('', (-0.5, 0.5, 0.5));
#428 = ORIENTED_EDGE('', *, *, #429, .T.);
#429 = EDGE_CURVE('', #423, #430, #432, .T.);
#430 = VERTEX_POINT('', #431);
#431 = CARTESIAN_POINT('', (0.5, 0.5, 0.5));
#432 = B_SPLINE_CURVE_WITH_KNOTS('', 1, (#433, #434), .UNSPECIFIED., .F., .U., (2, 2), (0., 1.), .UNSPECIFIED.);
#433 = CARTESIAN_POINT('', (-0.5, 0.5, 0.5));
#434 = CARTESIAN_POINT('', (0.5, 0.5, 0.5));
#435 = ORIENTED_EDGE('', *, *, #436, .F.);
#436 = EDGE_CURVE('', #437, #430, #439, .T.);
#437 = VERTEX_POINT('', #438);
#438 = CARTESIAN_POINT('', (0.5, 0.5, -0.5));
#439 = B_SPLINE_CURVE_WITH_KNOTS('', 1, (#440, #441), .UNSPECIFIED., .F., .U., (2, 2), (0., 1.), .UNSPECIFIED.);
#440 = CARTESIAN_POINT('', (0.5, 0.5, -0.5));
#441 = CARTESIAN_POINT('', (0.5, 0.5, 0.5));
#442 = ORIENTED_EDGE('', *, *, #443, .F.);
#443 = EDGE_CURVE('', #421, #437, #444, .T.);
#444 = B_SPLINE_CURVE_WITH_KNOTS('', 1, (#445, #446), .UNSPECIFIED., .F., .U., (2, 2), (0., 1.), .UNSPECIFIED.);
#445 = CARTESIAN_POINT('', (-0.5, 0.5, -0.5));
#446 = CARTESIAN_POINT('', (0.5, 0.5, -0.5));
#447 = B_SPLINE_SURFACE_WITH_KNOTS('', 1, 1, ((#448, #449), (#450, #451)), .UNSPECIFIED., .F., .F., .U., (2, 2), (2, 2), (0., 1.), (0., 1.), .UNSPECIFIED.);
#448 = CARTESIAN_POINT('', (-0.5, 0.5, -0.5));
#449 = CARTESIAN_POINT('', (0.5, 0.5, -0.5));
#450 = CARTESIAN_POINT('', (-0.5, 0.5, 0.5));
#451 = CARTESIAN_POINT('', (0.5, 0.5, 0.5));
#452 = ADVANCED_FACE('', (#453), #475, .T.);
#453 = FACE_OUTER_BOUND('', #454, .T.);
#454 = EDGE_LOOP('', (#455, #462, #469, #474));
#455 = ORIENTED_EDGE('', *, *, #456, .F.);
#456 = EDGE_CURVE('', #457, #423, #459, .T.);
#457 = VERTEX_POINT('', #458);
#458 = CARTESIAN_POINT('', (-0.5, -0.5, 0.5));
#459 = B_SPLINE_CURVE_WITH_KNOTS('', 1, (#460, #461), .UNSPECIFIED., .F., .U., (2, 2), (0., 1.), .UNSPECIFIED.);
#460 = CARTESIAN_POINT('', (-0.5, -0.5, 0.5));
#461 = CARTESIAN_POINT('', (-0.5, 0.5, 0.5));
#462 = ORIENTED_EDGE('', *, *, #463, .T.);
#463 = EDGE_CURVE('', #457, #464, #466, .T.);
#464 = VERTEX_POINT('', #465);
#465 = CARTESIAN_POINT('', (0.5, -0.5, 0.5));
#466 = B_SPLINE_CURVE_WITH_KNOTS('', 1, (#467, #468), .UNSPECIFIED., .F., .U., (2, 2), (0., 1.), .UNSPECIFIED.);
#467 = CARTESIAN_POINT('', (-0.5, -0.5, 0.5));
#468 = CARTESIAN_POINT('', (0.5, -0.5, 0.5));
#469 = ORIENTED_EDGE('', *, *, #470, .T.);
#470 = EDGE_CURVE('', #464, #430, #471, .T.);
#471 = B_SPLINE_CURVE_WITH_KNOTS('', 1, (#472, #473), .UNSPECIFIED., .F., .U., (2, 2), (0., 1.), .UNSPECIFIED.);
#472 = CARTESIAN_POINT('', (0.5, -0.5, 0.5));
#473 = CARTESIAN_POINT('', (0.5, 0.5, 0.5));
#474 = ORIENTED_EDGE('', *, *, #429, .F.);
#475 = B_SPLINE_SURFACE_WITH_KNOTS('', 1, 1, ((#476, #477), (#478, #479)), .UNSPECIFIED., .F., .F., .U., (2, 2), (2, 2), (0., 1.), (0., 1.), .UNSPECIFIED.);
#476 = CARTESIAN_POINT('', (-0.5, -0.5, 0.5));
#477 = CARTESIAN_POINT('', (-0.5, 0.5, 0.5));
#478 = CARTESIAN_POINT('', (0.5, -0.5, 0.5));
#479 = CARTESIAN_POINT('', (0.5, 0.5, 0.5));
#480 = ADVANCED_FACE('', (#481), #503, .T.);
#481 = FACE_OUTER_BOUND('', #482, .T.);
#482 = EDGE_LOOP('', (#483, #490, #497, #502));
#483 = ORIENTED_EDGE('', *, *, #484, .F.);
#484 = EDGE_CURVE('', #485, #457, #487, .T.);
#485 = VERTEX_POINT('', #486);
#486 = CARTESIAN_POINT('', (-0.5, -0.5, -0.5));
#487 = B_SPLINE_CURVE_WITH_KNOTS('', 1, (#488, #489), .UNSPECIFIED., .F., .U., (2, 2), (0., 1.), .UNSPECIFIED.);
#488 = CARTESIAN_POINT('', (-0.5, -0.5, -0.5));
#489 = CARTESIAN_POINT('', (-0.5, -0.5, 0.5));
#490 = ORIENTED_EDGE('', *, *, #491, .T.);
#491 = EDGE_CURVE('', #485, #492, #494, .T.);
#492 = VERTEX_POINT('', #493);
#493 = CARTESIAN_POINT('', (0.5, -0.5, -0.5));
#494 = B_SPLINE_CURVE_WITH_KNOTS('', 1, (#495, #496), .UNSPECIFIED., .F., .U., (2, 2), (0., 1.), .UNSPECIFIED.);
#495 = CARTESIAN_POINT('', (-0.5, -0.5, -0.5));
#496 = CARTESIAN_POINT('', (0.5, -0.5, -0.5));
#497 = ORIENTED_EDGE('', *, *, #498, .T.);
#498 = EDGE_CURVE('', #492, #464, #499, .T.);
#499 = B_SPLINE_CURVE_WITH_KNOTS('', 1, (#500, #501), .UNSPECIFIED., .F., .U., (2, 2), (0., 1.), .UNSPECIFIED.);
#500 = CARTESIAN_POINT('', (0.5, -0.5, -0.5));
#501 = CARTESIAN_POINT('', (0.5, -0.5, 0.5));
#502 = ORIENTED_EDGE('', *, *, #463, .F.);
#503 = B_SPLINE_SURFACE_WITH_KNOTS('', 1, 1, ((#504, #505), (#506, #507)), .UNSPECIFIED., .F., .F., .U., (2, 2), (2, 2), (0., 1.), (0., 1.), .UNSPECIFIED.);
#504 = CARTESIAN_POINT('', (-0.5, -0.5, -0.5));
#505 = CARTESIAN_POINT('', (-0.5, -0.5, 0.5));
#506 = CARTESIAN_POINT('', (0.5, -0.5, -0.5));
#507 = CARTESIAN_POINT('', (0.5, -0.5, 0.5));
#508 = ADVANCED_FACE('', (#509), #523, .T.);
#509 = FACE_OUTER_BOUND('', #510, .T.);
#510 = EDGE_LOOP('', (#511, #516, #517, #522));
#511 = ORIENTED_EDGE('', *, *, #512, .T.);
#512 = EDGE_CURVE('', #485, #421, #513, .T.);
#513 = B_SPLINE_CURVE_WITH_KNOTS('', 1, (#514, #515), .UNSPECIFIED., .F., .U., (2, 2), (0., 1.), .UNSPECIFIED.);
#514 = CARTESIAN_POINT('', (-0.5, -0.5, -0.5));
#515 = CARTESIAN_POINT('', (-0.5, 0.5, -0.5));
#516 = ORIENTED_EDGE('', *, *, #443, .T.);
#517 = ORIENTED_EDGE('', *, *, #518, .F.);
#518 = EDGE_CURVE('', #492, #437, #519, .T.);
#519 = B_SPLINE_CURVE_WITH_KNOTS('', 1, (#520, #521), .UNSPECIFIED., .F., .U., (2, 2), (0., 1.), .UNSPECIFIED.);
#520 = CARTESIAN_POINT('', (0.5, -0.5, -0.5));
#521 = CARTESIAN_POINT('', (0.5, 0.5, -0.5));
#522 = ORIENTED_EDGE('', *, *, #491, .F.);
#523 = B_SPLINE_SURFACE_WITH_KNOTS('', 1, 1, ((#524, #525), (#526, #527)), .UNSPECIFIED., .F., .F., .U., (2, 2), (2, 2), (0., 1.), (0., 1.), .UNSPECIFIED.);
#524 = CARTESIAN_POINT('', (-0.5, -0.5, -0.5));
#525 = CARTESIAN_POINT('', (0.5, -0.5, -0.5));
#526 = CARTESIAN_POINT('', (-0.5, 0.5, -0.5));
#527 = CARTESIAN_POINT('', (0.5, 0.5, -0.5));
#528 = ADVANCED_FACE('', (#529), #535, .T.);
#529 = FACE_OUTER_BOUND('', #530, .T.);
#530 = EDGE_LOOP('', (#531, #532, #533, #534));
#531 = ORIENTED_EDGE('', *, *, #498, .F.);
#532 = ORIENTED_EDGE('', *, *, #518, .T.);
#533 = ORIENTED_EDGE('', *, *, #436, .T.);
#534 = ORIENTED_EDGE('', *, *, #470, .F.);
#535 = B_SPLINE_SURFACE_WITH_KNOTS('', 1, 1, ((#536, #537), (#538, #539)), .UNSPECIFIED., .F., .F., .U., (2, 2), (2, 2), (0., 1.), (0., 1.), .UNSPECIFIED.);
#536 = CARTESIAN_POINT('', (0.5, -0.5, -0.5));
#537 = CARTESIAN_POINT('', (0.5, -0.5, 0.5));
#538 = CARTESIAN_POINT('', (0.5, 0.5, -0.5));
#539 = CARTESIAN_POINT('', (0.5, 0.5, 0.5));
#540 = ADVANCED_FACE('', (#541), #547, .T.);
#541 = FACE_OUTER_BOUND('', #542, .T.);
#542 = EDGE_LOOP('', (#543, #544, #545, #546));
#543 = ORIENTED_EDGE('', *, *, #484, .T.);
#544 = ORIENTED_EDGE('', *, *, #456, .T.);
#545 = ORIENTED_EDGE('', *, *, #420, .F.);
#546 = ORIENTED_EDGE('', *, *, #512, .F.);
#547 = B_SPLINE_SURFACE_WITH_KNOTS('', 1, 1, ((#548, #549), (#550, #551)), .UNSPECIFIED., .F., .F., .U., (2, 2), (2, 2), (0., 1.), (0., 1.), .UNSPECIFIED.);
#548 = CARTESIAN_POINT('', (-0.5, -0.5, -0.5));
#549 = CARTESIAN_POINT('', (-0.5, 0.5, -0.5));
#550 = CARTESIAN_POINT('', (-0.5, -0.5, 0.5));
#551 = CARTESIAN_POINT('', (-0.5, 0.5, 0.5));
#552 = PRESENTATION_STYLE_ASSIGNMENT((#553));
#553 = SURFACE_STYLE_USAGE(.POSITIVE., #554);
#554 = SURFACE_SIDE_STYLE('', (#555));
#555 = SURFACE_STYLE_FILL_AREA(#556);
#556 = FILL_AREA_STYLE('', (#557));
#557 = FILL_AREA_STYLE_COLOUR('', #558);
#558 = COLOUR_RGB('', 0.50196078431373, 0.50196078431373, 0.50196078431373);
#559 = STYLED_ITEM('', (#552), #414);
#560 = CARTESIAN_POINT('Origin', (0., 0., 0.));
#561 = GEOMETRIC_SET('', (#560));
#562 = (
   GEOMETRIC_REPRESENTATION_CONTEXT (3)
   GLOBAL_UNCERTAINTY_ASSIGNED_CONTEXT ((#564))
   GLOBAL_UNIT_ASSIGNED_CONTEXT ((#563, #565, #566))
   REPRESENTATION_CONTEXT ('', '3D')
);
#563 = (
   LENGTH_UNIT ()
   NAMED_UNIT (*)
   SI_UNIT (.MILLI., .METRE.)
);
#564 = UNCERTAINTY_MEASURE_WITH_UNIT(LENGTH_MEASURE(1.E-6), #563, 'DISTANCE_ACCURACY_VALUE', '');
#565 = (
   NAMED_UNIT (*)
   SI_UNIT ($, .STERADIAN.)
   SOLID_ANGLE_UNIT ()
);
#566 = (
   NAMED_UNIT (*)
   PLANE_ANGLE_UNIT ()
   SI_UNIT ($, .RADIAN.)
);
#567 = SHAPE_REPRESENTATION('', (#582), #562);
#568 = PRODUCT_DEFINITION_SHAPE('', '', #569);
#569 = PRODUCT_DEFINITION('', '', #572, #576);
#570 = APPLICATION_CONTEXT('configuration controlled 3D designs of mechanical parts and assemblies');
#571 = APPLICATION_PROTOCOL_DEFINITION('International Standard', 'automotive_design', 2002, #570);
#572 = PRODUCT_DEFINITION_FORMATION_WITH_SPECIFIED_SOURCE('', '', #573, .NOT_KNOWN.);
#573 = PRODUCT('CopyExtrusion', 'CopyExtrusion', '', (#574));
#574 = PRODUCT_CONTEXT('', #570, 'mechanical');
#575 = PRODUCT_RELATED_PRODUCT_CATEGORY('detail', '', (#573));
#576 = PRODUCT_DEFINITION_CONTEXT('part definition', #570, 'design');
#577 = SHAPE_DEFINITION_REPRESENTATION(#568, #567);
#578 = SHAPE_REPRESENTATION_RELATIONSHIP('', '', #567, #579);
#579 = SHAPE_REPRESENTATION('', (#561), #562);
#580 = SHAPE_REPRESENTATION_RELATIONSHIP('', '', #567, #581);
#581 = ADVANCED_BREP_SHAPE_REPRESENTATION('', (#1, #208, #414), #562);
#582 = AXIS2_PLACEMENT_3D('', #583, #584, #585);
#583 = CARTESIAN_POINT('', (0., 0., 0.));
#584 = DIRECTION('', (0., 0., 1.));
#585 = DIRECTION('', (1., 0., 0.));
ENDSEC;
END-ISO-10303-21;
